<?xml version="1.0" encoding="utf-8"?>
<svg xmlns="http://www.w3.org/2000/svg" xmlns:xlink="http://www.w3.org/1999/xlink" width="672" height="480" viewBox="0 0 2688 1920">
<defs>
  <clipPath id="clip920">
    <rect x="0" y="0" width="2688" height="1920"/>
  </clipPath>
</defs>
<path clip-path="url(#clip920)" d="M0 1920 L2688 1920 L2688 -4.26326e-14 L0 -4.26326e-14  Z" fill="#ffffff" fill-rule="evenodd" fill-opacity="1"/>
<defs>
  <clipPath id="clip921">
    <rect x="238" y="127" width="2403" height="1607"/>
  </clipPath>
</defs>
<path clip-path="url(#clip920)" d="M238.664 1734.12 L2640.76 1734.12 L2640.76 127.792 L238.664 127.792  Z" fill="#ffffff" fill-rule="evenodd" fill-opacity="1"/>
<polyline clip-path="url(#clip921)" style="stroke:#000000; stroke-linecap:round; stroke-linejoin:round; stroke-width:2; stroke-opacity:0.1; fill:none" points="306.647,1734.12 306.647,127.792 "/>
<polyline clip-path="url(#clip921)" style="stroke:#000000; stroke-linecap:round; stroke-linejoin:round; stroke-width:2; stroke-opacity:0.1; fill:none" points="873.179,1734.12 873.179,127.792 "/>
<polyline clip-path="url(#clip921)" style="stroke:#000000; stroke-linecap:round; stroke-linejoin:round; stroke-width:2; stroke-opacity:0.1; fill:none" points="1439.71,1734.12 1439.71,127.792 "/>
<polyline clip-path="url(#clip921)" style="stroke:#000000; stroke-linecap:round; stroke-linejoin:round; stroke-width:2; stroke-opacity:0.1; fill:none" points="2006.24,1734.12 2006.24,127.792 "/>
<polyline clip-path="url(#clip921)" style="stroke:#000000; stroke-linecap:round; stroke-linejoin:round; stroke-width:2; stroke-opacity:0.1; fill:none" points="2572.77,1734.12 2572.77,127.792 "/>
<polyline clip-path="url(#clip921)" style="stroke:#000000; stroke-linecap:round; stroke-linejoin:round; stroke-width:2; stroke-opacity:0.1; fill:none" points="238.664,1516.97 2640.76,1516.97 "/>
<polyline clip-path="url(#clip921)" style="stroke:#000000; stroke-linecap:round; stroke-linejoin:round; stroke-width:2; stroke-opacity:0.1; fill:none" points="238.664,1207.36 2640.76,1207.36 "/>
<polyline clip-path="url(#clip921)" style="stroke:#000000; stroke-linecap:round; stroke-linejoin:round; stroke-width:2; stroke-opacity:0.1; fill:none" points="238.664,897.739 2640.76,897.739 "/>
<polyline clip-path="url(#clip921)" style="stroke:#000000; stroke-linecap:round; stroke-linejoin:round; stroke-width:2; stroke-opacity:0.1; fill:none" points="238.664,588.122 2640.76,588.122 "/>
<polyline clip-path="url(#clip921)" style="stroke:#000000; stroke-linecap:round; stroke-linejoin:round; stroke-width:2; stroke-opacity:0.1; fill:none" points="238.664,278.506 2640.76,278.506 "/>
<polyline clip-path="url(#clip920)" style="stroke:#000000; stroke-linecap:round; stroke-linejoin:round; stroke-width:4; stroke-opacity:1; fill:none" points="238.664,1734.12 2640.76,1734.12 "/>
<polyline clip-path="url(#clip920)" style="stroke:#000000; stroke-linecap:round; stroke-linejoin:round; stroke-width:4; stroke-opacity:1; fill:none" points="306.647,1734.12 306.647,1715.22 "/>
<polyline clip-path="url(#clip920)" style="stroke:#000000; stroke-linecap:round; stroke-linejoin:round; stroke-width:4; stroke-opacity:1; fill:none" points="873.179,1734.12 873.179,1715.22 "/>
<polyline clip-path="url(#clip920)" style="stroke:#000000; stroke-linecap:round; stroke-linejoin:round; stroke-width:4; stroke-opacity:1; fill:none" points="1439.71,1734.12 1439.71,1715.22 "/>
<polyline clip-path="url(#clip920)" style="stroke:#000000; stroke-linecap:round; stroke-linejoin:round; stroke-width:4; stroke-opacity:1; fill:none" points="2006.24,1734.12 2006.24,1715.22 "/>
<polyline clip-path="url(#clip920)" style="stroke:#000000; stroke-linecap:round; stroke-linejoin:round; stroke-width:4; stroke-opacity:1; fill:none" points="2572.77,1734.12 2572.77,1715.22 "/>
<path clip-path="url(#clip920)" d="M306.647 1767.34 Q303.036 1767.34 301.208 1770.9 Q299.402 1774.45 299.402 1781.58 Q299.402 1788.68 301.208 1792.25 Q303.036 1795.79 306.647 1795.79 Q310.282 1795.79 312.087 1792.25 Q313.916 1788.68 313.916 1781.58 Q313.916 1774.45 312.087 1770.9 Q310.282 1767.34 306.647 1767.34 M306.647 1763.64 Q312.458 1763.64 315.513 1768.24 Q318.592 1772.83 318.592 1781.58 Q318.592 1790.3 315.513 1794.91 Q312.458 1799.49 306.647 1799.49 Q300.837 1799.49 297.759 1794.91 Q294.703 1790.3 294.703 1781.58 Q294.703 1772.83 297.759 1768.24 Q300.837 1763.64 306.647 1763.64 Z" fill="#000000" fill-rule="nonzero" fill-opacity="1" /><path clip-path="url(#clip920)" d="M847.866 1794.89 L855.505 1794.89 L855.505 1768.52 L847.195 1770.19 L847.195 1765.93 L855.459 1764.26 L860.135 1764.26 L860.135 1794.89 L867.774 1794.89 L867.774 1798.82 L847.866 1798.82 L847.866 1794.89 Z" fill="#000000" fill-rule="nonzero" fill-opacity="1" /><path clip-path="url(#clip920)" d="M887.218 1767.34 Q883.607 1767.34 881.778 1770.9 Q879.973 1774.45 879.973 1781.58 Q879.973 1788.68 881.778 1792.25 Q883.607 1795.79 887.218 1795.79 Q890.852 1795.79 892.658 1792.25 Q894.486 1788.68 894.486 1781.58 Q894.486 1774.45 892.658 1770.9 Q890.852 1767.34 887.218 1767.34 M887.218 1763.64 Q893.028 1763.64 896.084 1768.24 Q899.162 1772.83 899.162 1781.58 Q899.162 1790.3 896.084 1794.91 Q893.028 1799.49 887.218 1799.49 Q881.408 1799.49 878.329 1794.91 Q875.273 1790.3 875.273 1781.58 Q875.273 1772.83 878.329 1768.24 Q881.408 1763.64 887.218 1763.64 Z" fill="#000000" fill-rule="nonzero" fill-opacity="1" /><path clip-path="url(#clip920)" d="M1418.48 1794.89 L1434.8 1794.89 L1434.8 1798.82 L1412.86 1798.82 L1412.86 1794.89 Q1415.52 1792.13 1420.1 1787.5 Q1424.71 1782.85 1425.89 1781.51 Q1428.14 1778.98 1429.02 1777.25 Q1429.92 1775.49 1429.92 1773.8 Q1429.92 1771.04 1427.97 1769.31 Q1426.05 1767.57 1422.95 1767.57 Q1420.75 1767.57 1418.3 1768.34 Q1415.87 1769.1 1413.09 1770.65 L1413.09 1765.93 Q1415.91 1764.79 1418.37 1764.21 Q1420.82 1763.64 1422.86 1763.64 Q1428.23 1763.64 1431.42 1766.32 Q1434.62 1769.01 1434.62 1773.5 Q1434.62 1775.63 1433.81 1777.55 Q1433.02 1779.45 1430.91 1782.04 Q1430.33 1782.71 1427.23 1785.93 Q1424.13 1789.12 1418.48 1794.89 Z" fill="#000000" fill-rule="nonzero" fill-opacity="1" /><path clip-path="url(#clip920)" d="M1454.62 1767.34 Q1451.01 1767.34 1449.18 1770.9 Q1447.37 1774.45 1447.37 1781.58 Q1447.37 1788.68 1449.18 1792.25 Q1451.01 1795.79 1454.62 1795.79 Q1458.25 1795.79 1460.06 1792.25 Q1461.89 1788.68 1461.89 1781.58 Q1461.89 1774.45 1460.06 1770.9 Q1458.25 1767.34 1454.62 1767.34 M1454.62 1763.64 Q1460.43 1763.64 1463.48 1768.24 Q1466.56 1772.83 1466.56 1781.58 Q1466.56 1790.3 1463.48 1794.91 Q1460.43 1799.49 1454.62 1799.49 Q1448.81 1799.49 1445.73 1794.91 Q1442.67 1790.3 1442.67 1781.58 Q1442.67 1772.83 1445.73 1768.24 Q1448.81 1763.64 1454.62 1763.64 Z" fill="#000000" fill-rule="nonzero" fill-opacity="1" /><path clip-path="url(#clip920)" d="M1995.08 1780.19 Q1998.44 1780.9 2000.32 1783.17 Q2002.21 1785.44 2002.21 1788.77 Q2002.21 1793.89 1998.69 1796.69 Q1995.18 1799.49 1988.69 1799.49 Q1986.52 1799.49 1984.2 1799.05 Q1981.91 1798.64 1979.46 1797.78 L1979.46 1793.27 Q1981.4 1794.4 1983.72 1794.98 Q1986.03 1795.56 1988.56 1795.56 Q1992.95 1795.56 1995.25 1793.82 Q1997.56 1792.08 1997.56 1788.77 Q1997.56 1785.72 1995.41 1784.01 Q1993.28 1782.27 1989.46 1782.27 L1985.43 1782.27 L1985.43 1778.43 L1989.64 1778.43 Q1993.09 1778.43 1994.92 1777.06 Q1996.75 1775.67 1996.75 1773.08 Q1996.75 1770.42 1994.85 1769.01 Q1992.98 1767.57 1989.46 1767.57 Q1987.54 1767.57 1985.34 1767.99 Q1983.14 1768.4 1980.5 1769.28 L1980.5 1765.12 Q1983.16 1764.38 1985.48 1764.01 Q1987.82 1763.64 1989.88 1763.64 Q1995.2 1763.64 1998.3 1766.07 Q2001.4 1768.47 2001.4 1772.59 Q2001.4 1775.46 1999.76 1777.46 Q1998.12 1779.42 1995.08 1780.19 Z" fill="#000000" fill-rule="nonzero" fill-opacity="1" /><path clip-path="url(#clip920)" d="M2021.08 1767.34 Q2017.47 1767.34 2015.64 1770.9 Q2013.83 1774.45 2013.83 1781.58 Q2013.83 1788.68 2015.64 1792.25 Q2017.47 1795.79 2021.08 1795.79 Q2024.71 1795.79 2026.52 1792.25 Q2028.35 1788.68 2028.35 1781.58 Q2028.35 1774.45 2026.52 1770.9 Q2024.71 1767.34 2021.08 1767.34 M2021.08 1763.64 Q2026.89 1763.64 2029.94 1768.24 Q2033.02 1772.83 2033.02 1781.58 Q2033.02 1790.3 2029.94 1794.91 Q2026.89 1799.49 2021.08 1799.49 Q2015.27 1799.49 2012.19 1794.91 Q2009.13 1790.3 2009.13 1781.58 Q2009.13 1772.83 2012.19 1768.24 Q2015.27 1763.64 2021.08 1763.64 Z" fill="#000000" fill-rule="nonzero" fill-opacity="1" /><path clip-path="url(#clip920)" d="M2560.94 1768.34 L2549.14 1786.78 L2560.94 1786.78 L2560.94 1768.34 M2559.72 1764.26 L2565.6 1764.26 L2565.6 1786.78 L2570.53 1786.78 L2570.53 1790.67 L2565.6 1790.67 L2565.6 1798.82 L2560.94 1798.82 L2560.94 1790.67 L2545.34 1790.67 L2545.34 1786.16 L2559.72 1764.26 Z" fill="#000000" fill-rule="nonzero" fill-opacity="1" /><path clip-path="url(#clip920)" d="M2588.26 1767.34 Q2584.65 1767.34 2582.82 1770.9 Q2581.01 1774.45 2581.01 1781.58 Q2581.01 1788.68 2582.82 1792.25 Q2584.65 1795.79 2588.26 1795.79 Q2591.89 1795.79 2593.7 1792.25 Q2595.53 1788.68 2595.53 1781.58 Q2595.53 1774.45 2593.7 1770.9 Q2591.89 1767.34 2588.26 1767.34 M2588.26 1763.64 Q2594.07 1763.64 2597.12 1768.24 Q2600.2 1772.83 2600.2 1781.58 Q2600.2 1790.3 2597.12 1794.91 Q2594.07 1799.49 2588.26 1799.49 Q2582.45 1799.49 2579.37 1794.91 Q2576.31 1790.3 2576.31 1781.58 Q2576.31 1772.83 2579.37 1768.24 Q2582.45 1763.64 2588.26 1763.64 Z" fill="#000000" fill-rule="nonzero" fill-opacity="1" /><path clip-path="url(#clip920)" d="M1132.63 1835.78 L1172.83 1835.78 L1172.83 1841.19 L1155.96 1841.19 L1155.96 1883.3 L1149.5 1883.3 L1149.5 1841.19 L1132.63 1841.19 L1132.63 1835.78 Z" fill="#000000" fill-rule="nonzero" fill-opacity="1" /><path clip-path="url(#clip920)" d="M1176.77 1847.65 L1182.63 1847.65 L1182.63 1883.3 L1176.77 1883.3 L1176.77 1847.65 M1176.77 1833.78 L1182.63 1833.78 L1182.63 1841.19 L1176.77 1841.19 L1176.77 1833.78 Z" fill="#000000" fill-rule="nonzero" fill-opacity="1" /><path clip-path="url(#clip920)" d="M1222.64 1854.5 Q1224.84 1850.55 1227.89 1848.67 Q1230.95 1846.79 1235.08 1846.79 Q1240.65 1846.79 1243.68 1850.71 Q1246.7 1854.59 1246.7 1861.78 L1246.7 1883.3 L1240.81 1883.3 L1240.81 1861.98 Q1240.81 1856.85 1239 1854.37 Q1237.18 1851.89 1233.46 1851.89 Q1228.91 1851.89 1226.27 1854.91 Q1223.63 1857.93 1223.63 1863.15 L1223.63 1883.3 L1217.74 1883.3 L1217.74 1861.98 Q1217.74 1856.82 1215.92 1854.37 Q1214.11 1851.89 1210.32 1851.89 Q1205.83 1851.89 1203.19 1854.94 Q1200.55 1857.97 1200.55 1863.15 L1200.55 1883.3 L1194.66 1883.3 L1194.66 1847.65 L1200.55 1847.65 L1200.55 1853.19 Q1202.56 1849.91 1205.36 1848.35 Q1208.16 1846.79 1212.01 1846.79 Q1215.89 1846.79 1218.6 1848.77 Q1221.33 1850.74 1222.64 1854.5 Z" fill="#000000" fill-rule="nonzero" fill-opacity="1" /><path clip-path="url(#clip920)" d="M1288.87 1864.01 L1288.87 1866.88 L1261.95 1866.88 Q1262.33 1872.92 1265.58 1876.11 Q1268.85 1879.26 1274.68 1879.26 Q1278.05 1879.26 1281.2 1878.43 Q1284.39 1877.6 1287.51 1875.95 L1287.51 1881.49 Q1284.35 1882.82 1281.04 1883.52 Q1277.73 1884.22 1274.33 1884.22 Q1265.8 1884.22 1260.8 1879.26 Q1255.84 1874.29 1255.84 1865.83 Q1255.84 1857.07 1260.55 1851.95 Q1265.29 1846.79 1273.31 1846.79 Q1280.5 1846.79 1284.67 1851.44 Q1288.87 1856.06 1288.87 1864.01 M1283.02 1862.29 Q1282.95 1857.49 1280.31 1854.62 Q1277.7 1851.76 1273.37 1851.76 Q1268.47 1851.76 1265.51 1854.53 Q1262.58 1857.3 1262.14 1862.33 L1283.02 1862.29 Z" fill="#000000" fill-rule="nonzero" fill-opacity="1" /><path clip-path="url(#clip920)" d="M1333.28 1833.84 Q1329.01 1841.16 1326.94 1848.32 Q1324.87 1855.48 1324.87 1862.84 Q1324.87 1870.19 1326.94 1877.41 Q1329.04 1884.61 1333.28 1891.89 L1328.18 1891.89 Q1323.41 1884.41 1321.02 1877.19 Q1318.67 1869.96 1318.67 1862.84 Q1318.67 1855.74 1321.02 1848.54 Q1323.38 1841.35 1328.18 1833.84 L1333.28 1833.84 Z" fill="#000000" fill-rule="nonzero" fill-opacity="1" /><path clip-path="url(#clip920)" d="M1368.1 1865.06 Q1368.1 1858.7 1365.45 1855.2 Q1362.84 1851.7 1358.1 1851.7 Q1353.39 1851.7 1350.75 1855.2 Q1348.14 1858.7 1348.14 1865.06 Q1348.14 1871.4 1350.75 1874.9 Q1353.39 1878.4 1358.1 1878.4 Q1362.84 1878.4 1365.45 1874.9 Q1368.1 1871.4 1368.1 1865.06 M1373.95 1878.88 Q1373.95 1887.98 1369.91 1892.4 Q1365.87 1896.86 1357.53 1896.86 Q1354.44 1896.86 1351.7 1896.38 Q1348.97 1895.94 1346.39 1894.98 L1346.39 1889.28 Q1348.97 1890.69 1351.48 1891.35 Q1354 1892.02 1356.61 1892.02 Q1362.37 1892.02 1365.23 1889 Q1368.1 1886.01 1368.1 1879.93 L1368.1 1877.03 Q1366.28 1880.18 1363.45 1881.74 Q1360.62 1883.3 1356.67 1883.3 Q1350.11 1883.3 1346.1 1878.3 Q1342.09 1873.31 1342.09 1865.06 Q1342.09 1856.79 1346.1 1851.79 Q1350.11 1846.79 1356.67 1846.79 Q1360.62 1846.79 1363.45 1848.35 Q1366.28 1849.91 1368.1 1853.06 L1368.1 1847.65 L1373.95 1847.65 L1373.95 1878.88 Z" fill="#000000" fill-rule="nonzero" fill-opacity="1" /><path clip-path="url(#clip920)" d="M1416.51 1864.01 L1416.51 1866.88 L1389.58 1866.88 Q1389.96 1872.92 1393.21 1876.11 Q1396.49 1879.26 1402.31 1879.26 Q1405.69 1879.26 1408.84 1878.43 Q1412.02 1877.6 1415.14 1875.95 L1415.14 1881.49 Q1411.99 1882.82 1408.68 1883.52 Q1405.37 1884.22 1401.96 1884.22 Q1393.43 1884.22 1388.43 1879.26 Q1383.47 1874.29 1383.47 1865.83 Q1383.47 1857.07 1388.18 1851.95 Q1392.92 1846.79 1400.94 1846.79 Q1408.14 1846.79 1412.31 1851.44 Q1416.51 1856.06 1416.51 1864.01 M1410.65 1862.29 Q1410.59 1857.49 1407.94 1854.62 Q1405.33 1851.76 1401.01 1851.76 Q1396.1 1851.76 1393.14 1854.53 Q1390.22 1857.3 1389.77 1862.33 L1410.65 1862.29 Z" fill="#000000" fill-rule="nonzero" fill-opacity="1" /><path clip-path="url(#clip920)" d="M1455.75 1861.78 L1455.75 1883.3 L1449.89 1883.3 L1449.89 1861.98 Q1449.89 1856.92 1447.92 1854.4 Q1445.95 1851.89 1442 1851.89 Q1437.26 1851.89 1434.52 1854.91 Q1431.78 1857.93 1431.78 1863.15 L1431.78 1883.3 L1425.9 1883.3 L1425.9 1847.65 L1431.78 1847.65 L1431.78 1853.19 Q1433.89 1849.98 1436.72 1848.39 Q1439.58 1846.79 1443.31 1846.79 Q1449.45 1846.79 1452.6 1850.61 Q1455.75 1854.4 1455.75 1861.78 Z" fill="#000000" fill-rule="nonzero" fill-opacity="1" /><path clip-path="url(#clip920)" d="M1497.92 1864.01 L1497.92 1866.88 L1471 1866.88 Q1471.38 1872.92 1474.63 1876.11 Q1477.9 1879.26 1483.73 1879.26 Q1487.1 1879.26 1490.25 1878.43 Q1493.44 1877.6 1496.56 1875.95 L1496.56 1881.49 Q1493.4 1882.82 1490.09 1883.52 Q1486.78 1884.22 1483.38 1884.22 Q1474.85 1884.22 1469.85 1879.26 Q1464.89 1874.29 1464.89 1865.83 Q1464.89 1857.07 1469.6 1851.95 Q1474.34 1846.79 1482.36 1846.79 Q1489.55 1846.79 1493.72 1851.44 Q1497.92 1856.06 1497.92 1864.01 M1492.07 1862.29 Q1492 1857.49 1489.36 1854.62 Q1486.75 1851.76 1482.42 1851.76 Q1477.52 1851.76 1474.56 1854.53 Q1471.63 1857.3 1471.19 1862.33 L1492.07 1862.29 Z" fill="#000000" fill-rule="nonzero" fill-opacity="1" /><path clip-path="url(#clip920)" d="M1528.19 1853.13 Q1527.21 1852.55 1526.03 1852.3 Q1524.88 1852.01 1523.48 1852.01 Q1518.52 1852.01 1515.84 1855.26 Q1513.2 1858.47 1513.2 1864.52 L1513.2 1883.3 L1507.31 1883.3 L1507.31 1847.65 L1513.2 1847.65 L1513.2 1853.19 Q1515.05 1849.94 1518.01 1848.39 Q1520.97 1846.79 1525.2 1846.79 Q1525.81 1846.79 1526.54 1846.89 Q1527.27 1846.95 1528.16 1847.11 L1528.19 1853.13 Z" fill="#000000" fill-rule="nonzero" fill-opacity="1" /><path clip-path="url(#clip920)" d="M1550.54 1865.38 Q1543.44 1865.38 1540.7 1867 Q1537.96 1868.63 1537.96 1872.54 Q1537.96 1875.66 1540 1877.51 Q1542.07 1879.32 1545.6 1879.32 Q1550.47 1879.32 1553.4 1875.88 Q1556.36 1872.42 1556.36 1866.69 L1556.36 1865.38 L1550.54 1865.38 M1562.22 1862.96 L1562.22 1883.3 L1556.36 1883.3 L1556.36 1877.89 Q1554.36 1881.14 1551.36 1882.7 Q1548.37 1884.22 1544.04 1884.22 Q1538.57 1884.22 1535.32 1881.17 Q1532.11 1878.08 1532.11 1872.92 Q1532.11 1866.91 1536.12 1863.85 Q1540.16 1860.8 1548.15 1860.8 L1556.36 1860.8 L1556.36 1860.23 Q1556.36 1856.18 1553.69 1853.99 Q1551.05 1851.76 1546.24 1851.76 Q1543.18 1851.76 1540.29 1852.49 Q1537.39 1853.22 1534.72 1854.69 L1534.72 1849.28 Q1537.93 1848.03 1540.96 1847.43 Q1543.98 1846.79 1546.84 1846.79 Q1554.58 1846.79 1558.4 1850.8 Q1562.22 1854.81 1562.22 1862.96 Z" fill="#000000" fill-rule="nonzero" fill-opacity="1" /><path clip-path="url(#clip920)" d="M1580.07 1837.53 L1580.07 1847.65 L1592.14 1847.65 L1592.14 1852.2 L1580.07 1852.2 L1580.07 1871.56 Q1580.07 1875.92 1581.25 1877.16 Q1582.46 1878.4 1586.12 1878.4 L1592.14 1878.4 L1592.14 1883.3 L1586.12 1883.3 Q1579.34 1883.3 1576.76 1880.79 Q1574.19 1878.24 1574.19 1871.56 L1574.19 1852.2 L1569.89 1852.2 L1569.89 1847.65 L1574.19 1847.65 L1574.19 1837.53 L1580.07 1837.53 Z" fill="#000000" fill-rule="nonzero" fill-opacity="1" /><path clip-path="url(#clip920)" d="M1599.84 1847.65 L1605.7 1847.65 L1605.7 1883.3 L1599.84 1883.3 L1599.84 1847.65 M1599.84 1833.78 L1605.7 1833.78 L1605.7 1841.19 L1599.84 1841.19 L1599.84 1833.78 Z" fill="#000000" fill-rule="nonzero" fill-opacity="1" /><path clip-path="url(#clip920)" d="M1631.76 1851.76 Q1627.05 1851.76 1624.32 1855.45 Q1621.58 1859.11 1621.58 1865.51 Q1621.58 1871.91 1624.28 1875.6 Q1627.02 1879.26 1631.76 1879.26 Q1636.44 1879.26 1639.18 1875.57 Q1641.92 1871.87 1641.92 1865.51 Q1641.92 1859.17 1639.18 1855.48 Q1636.44 1851.76 1631.76 1851.76 M1631.76 1846.79 Q1639.4 1846.79 1643.76 1851.76 Q1648.12 1856.72 1648.12 1865.51 Q1648.12 1874.26 1643.76 1879.26 Q1639.4 1884.22 1631.76 1884.22 Q1624.09 1884.22 1619.73 1879.26 Q1615.4 1874.26 1615.4 1865.51 Q1615.4 1856.72 1619.73 1851.76 Q1624.09 1846.79 1631.76 1846.79 Z" fill="#000000" fill-rule="nonzero" fill-opacity="1" /><path clip-path="url(#clip920)" d="M1687.46 1861.78 L1687.46 1883.3 L1681.61 1883.3 L1681.61 1861.98 Q1681.61 1856.92 1679.63 1854.4 Q1677.66 1851.89 1673.71 1851.89 Q1668.97 1851.89 1666.23 1854.91 Q1663.5 1857.93 1663.5 1863.15 L1663.5 1883.3 L1657.61 1883.3 L1657.61 1847.65 L1663.5 1847.65 L1663.5 1853.19 Q1665.6 1849.98 1668.43 1848.39 Q1671.29 1846.79 1675.02 1846.79 Q1681.16 1846.79 1684.31 1850.61 Q1687.46 1854.4 1687.46 1861.78 Z" fill="#000000" fill-rule="nonzero" fill-opacity="1" /><path clip-path="url(#clip920)" d="M1721.87 1848.7 L1721.87 1854.24 Q1719.39 1852.97 1716.71 1852.33 Q1714.04 1851.7 1711.18 1851.7 Q1706.81 1851.7 1704.62 1853.03 Q1702.45 1854.37 1702.45 1857.04 Q1702.45 1859.08 1704.01 1860.26 Q1705.57 1861.4 1710.28 1862.45 L1712.29 1862.9 Q1718.53 1864.24 1721.14 1866.69 Q1723.78 1869.11 1723.78 1873.47 Q1723.78 1878.43 1719.83 1881.33 Q1715.92 1884.22 1709.04 1884.22 Q1706.18 1884.22 1703.06 1883.65 Q1699.97 1883.11 1696.53 1882 L1696.53 1875.95 Q1699.78 1877.64 1702.93 1878.49 Q1706.08 1879.32 1709.17 1879.32 Q1713.31 1879.32 1715.54 1877.92 Q1717.76 1876.49 1717.76 1873.91 Q1717.76 1871.52 1716.14 1870.25 Q1714.55 1868.98 1709.11 1867.8 L1707.07 1867.32 Q1701.63 1866.18 1699.21 1863.82 Q1696.79 1861.43 1696.79 1857.3 Q1696.79 1852.27 1700.35 1849.53 Q1703.92 1846.79 1710.48 1846.79 Q1713.72 1846.79 1716.59 1847.27 Q1719.45 1847.75 1721.87 1848.7 Z" fill="#000000" fill-rule="nonzero" fill-opacity="1" /><path clip-path="url(#clip920)" d="M1732.18 1833.84 L1737.27 1833.84 Q1742.05 1841.35 1744.4 1848.54 Q1746.79 1855.74 1746.79 1862.84 Q1746.79 1869.96 1744.4 1877.19 Q1742.05 1884.41 1737.27 1891.89 L1732.18 1891.89 Q1736.42 1884.61 1738.48 1877.41 Q1740.58 1870.19 1740.58 1862.84 Q1740.58 1855.48 1738.48 1848.32 Q1736.42 1841.16 1732.18 1833.84 Z" fill="#000000" fill-rule="nonzero" fill-opacity="1" /><polyline clip-path="url(#clip920)" style="stroke:#000000; stroke-linecap:round; stroke-linejoin:round; stroke-width:4; stroke-opacity:1; fill:none" points="238.664,1734.12 238.664,127.792 "/>
<polyline clip-path="url(#clip920)" style="stroke:#000000; stroke-linecap:round; stroke-linejoin:round; stroke-width:4; stroke-opacity:1; fill:none" points="238.664,1516.97 257.561,1516.97 "/>
<polyline clip-path="url(#clip920)" style="stroke:#000000; stroke-linecap:round; stroke-linejoin:round; stroke-width:4; stroke-opacity:1; fill:none" points="238.664,1207.36 257.561,1207.36 "/>
<polyline clip-path="url(#clip920)" style="stroke:#000000; stroke-linecap:round; stroke-linejoin:round; stroke-width:4; stroke-opacity:1; fill:none" points="238.664,897.739 257.561,897.739 "/>
<polyline clip-path="url(#clip920)" style="stroke:#000000; stroke-linecap:round; stroke-linejoin:round; stroke-width:4; stroke-opacity:1; fill:none" points="238.664,588.122 257.561,588.122 "/>
<polyline clip-path="url(#clip920)" style="stroke:#000000; stroke-linecap:round; stroke-linejoin:round; stroke-width:4; stroke-opacity:1; fill:none" points="238.664,278.506 257.561,278.506 "/>
<path clip-path="url(#clip920)" d="M150.265 1530.32 L166.585 1530.32 L166.585 1534.25 L144.64 1534.25 L144.64 1530.32 Q147.302 1527.56 151.886 1522.93 Q156.492 1518.28 157.673 1516.94 Q159.918 1514.41 160.798 1512.68 Q161.7 1510.92 161.7 1509.23 Q161.7 1506.47 159.756 1504.74 Q157.835 1503 154.733 1503 Q152.534 1503 150.08 1503.77 Q147.649 1504.53 144.872 1506.08 L144.872 1501.36 Q147.696 1500.22 150.149 1499.65 Q152.603 1499.07 154.64 1499.07 Q160.011 1499.07 163.205 1501.75 Q166.399 1504.44 166.399 1508.93 Q166.399 1511.06 165.589 1512.98 Q164.802 1514.88 162.696 1517.47 Q162.117 1518.14 159.015 1521.36 Q155.913 1524.55 150.265 1530.32 Z" fill="#000000" fill-rule="nonzero" fill-opacity="1" /><path clip-path="url(#clip920)" d="M186.399 1502.77 Q182.788 1502.77 180.959 1506.34 Q179.154 1509.88 179.154 1517.01 Q179.154 1524.11 180.959 1527.68 Q182.788 1531.22 186.399 1531.22 Q190.033 1531.22 191.839 1527.68 Q193.668 1524.11 193.668 1517.01 Q193.668 1509.88 191.839 1506.34 Q190.033 1502.77 186.399 1502.77 M186.399 1499.07 Q192.209 1499.07 195.265 1503.67 Q198.344 1508.26 198.344 1517.01 Q198.344 1525.73 195.265 1530.34 Q192.209 1534.92 186.399 1534.92 Q180.589 1534.92 177.51 1530.34 Q174.455 1525.73 174.455 1517.01 Q174.455 1508.26 177.51 1503.67 Q180.589 1499.07 186.399 1499.07 Z" fill="#000000" fill-rule="nonzero" fill-opacity="1" /><path clip-path="url(#clip920)" d="M159.085 1194.15 L147.279 1212.6 L159.085 1212.6 L159.085 1194.15 M157.858 1190.08 L163.737 1190.08 L163.737 1212.6 L168.668 1212.6 L168.668 1216.49 L163.737 1216.49 L163.737 1224.64 L159.085 1224.64 L159.085 1216.49 L143.483 1216.49 L143.483 1211.97 L157.858 1190.08 Z" fill="#000000" fill-rule="nonzero" fill-opacity="1" /><path clip-path="url(#clip920)" d="M186.399 1193.15 Q182.788 1193.15 180.959 1196.72 Q179.154 1200.26 179.154 1207.39 Q179.154 1214.5 180.959 1218.06 Q182.788 1221.6 186.399 1221.6 Q190.033 1221.6 191.839 1218.06 Q193.668 1214.5 193.668 1207.39 Q193.668 1200.26 191.839 1196.72 Q190.033 1193.15 186.399 1193.15 M186.399 1189.45 Q192.209 1189.45 195.265 1194.06 Q198.344 1198.64 198.344 1207.39 Q198.344 1216.12 195.265 1220.72 Q192.209 1225.31 186.399 1225.31 Q180.589 1225.31 177.51 1220.72 Q174.455 1216.12 174.455 1207.39 Q174.455 1198.64 177.51 1194.06 Q180.589 1189.45 186.399 1189.45 Z" fill="#000000" fill-rule="nonzero" fill-opacity="1" /><path clip-path="url(#clip920)" d="M156.816 895.875 Q153.668 895.875 151.816 898.028 Q149.987 900.181 149.987 903.931 Q149.987 907.658 151.816 909.833 Q153.668 911.986 156.816 911.986 Q159.964 911.986 161.793 909.833 Q163.645 907.658 163.645 903.931 Q163.645 900.181 161.793 898.028 Q159.964 895.875 156.816 895.875 M166.098 881.223 L166.098 885.482 Q164.339 884.648 162.534 884.209 Q160.751 883.769 158.992 883.769 Q154.362 883.769 151.909 886.894 Q149.478 890.019 149.131 896.338 Q150.497 894.324 152.557 893.26 Q154.617 892.172 157.094 892.172 Q162.302 892.172 165.311 895.343 Q168.344 898.491 168.344 903.931 Q168.344 909.255 165.196 912.472 Q162.048 915.69 156.816 915.69 Q150.821 915.69 147.649 911.107 Q144.478 906.5 144.478 897.773 Q144.478 889.579 148.367 884.718 Q152.256 879.834 158.807 879.834 Q160.566 879.834 162.348 880.181 Q164.154 880.528 166.098 881.223 Z" fill="#000000" fill-rule="nonzero" fill-opacity="1" /><path clip-path="url(#clip920)" d="M186.399 883.537 Q182.788 883.537 180.959 887.102 Q179.154 890.644 179.154 897.773 Q179.154 904.88 180.959 908.445 Q182.788 911.986 186.399 911.986 Q190.033 911.986 191.839 908.445 Q193.668 904.88 193.668 897.773 Q193.668 890.644 191.839 887.102 Q190.033 883.537 186.399 883.537 M186.399 879.834 Q192.209 879.834 195.265 884.44 Q198.344 889.023 198.344 897.773 Q198.344 906.5 195.265 911.107 Q192.209 915.69 186.399 915.69 Q180.589 915.69 177.51 911.107 Q174.455 906.5 174.455 897.773 Q174.455 889.023 177.51 884.44 Q180.589 879.834 186.399 879.834 Z" fill="#000000" fill-rule="nonzero" fill-opacity="1" /><path clip-path="url(#clip920)" d="M156.237 588.99 Q152.904 588.99 150.983 590.773 Q149.085 592.555 149.085 595.68 Q149.085 598.805 150.983 600.587 Q152.904 602.37 156.237 602.37 Q159.571 602.37 161.492 600.587 Q163.413 598.782 163.413 595.68 Q163.413 592.555 161.492 590.773 Q159.594 588.99 156.237 588.99 M151.561 587 Q148.552 586.259 146.862 584.199 Q145.196 582.138 145.196 579.175 Q145.196 575.032 148.136 572.625 Q151.099 570.217 156.237 570.217 Q161.399 570.217 164.339 572.625 Q167.279 575.032 167.279 579.175 Q167.279 582.138 165.589 584.199 Q163.923 586.259 160.936 587 Q164.316 587.787 166.191 590.078 Q168.089 592.37 168.089 595.68 Q168.089 600.703 165.01 603.388 Q161.955 606.074 156.237 606.074 Q150.52 606.074 147.441 603.388 Q144.386 600.703 144.386 595.68 Q144.386 592.37 146.284 590.078 Q148.182 587.787 151.561 587 M149.849 579.615 Q149.849 582.3 151.515 583.805 Q153.205 585.31 156.237 585.31 Q159.247 585.31 160.936 583.805 Q162.649 582.3 162.649 579.615 Q162.649 576.93 160.936 575.426 Q159.247 573.921 156.237 573.921 Q153.205 573.921 151.515 575.426 Q149.849 576.93 149.849 579.615 Z" fill="#000000" fill-rule="nonzero" fill-opacity="1" /><path clip-path="url(#clip920)" d="M186.399 573.921 Q182.788 573.921 180.959 577.486 Q179.154 581.027 179.154 588.157 Q179.154 595.263 180.959 598.828 Q182.788 602.37 186.399 602.37 Q190.033 602.37 191.839 598.828 Q193.668 595.263 193.668 588.157 Q193.668 581.027 191.839 577.486 Q190.033 573.921 186.399 573.921 M186.399 570.217 Q192.209 570.217 195.265 574.824 Q198.344 579.407 198.344 588.157 Q198.344 596.884 195.265 601.49 Q192.209 606.074 186.399 606.074 Q180.589 606.074 177.51 601.49 Q174.455 596.884 174.455 588.157 Q174.455 579.407 177.51 574.824 Q180.589 570.217 186.399 570.217 Z" fill="#000000" fill-rule="nonzero" fill-opacity="1" /><path clip-path="url(#clip920)" d="M116.886 291.851 L124.525 291.851 L124.525 265.485 L116.214 267.152 L116.214 262.892 L124.478 261.226 L129.154 261.226 L129.154 291.851 L136.793 291.851 L136.793 295.786 L116.886 295.786 L116.886 291.851 Z" fill="#000000" fill-rule="nonzero" fill-opacity="1" /><path clip-path="url(#clip920)" d="M156.237 264.304 Q152.626 264.304 150.798 267.869 Q148.992 271.411 148.992 278.54 Q148.992 285.647 150.798 289.212 Q152.626 292.753 156.237 292.753 Q159.872 292.753 161.677 289.212 Q163.506 285.647 163.506 278.54 Q163.506 271.411 161.677 267.869 Q159.872 264.304 156.237 264.304 M156.237 260.601 Q162.048 260.601 165.103 265.207 Q168.182 269.791 168.182 278.54 Q168.182 287.267 165.103 291.874 Q162.048 296.457 156.237 296.457 Q150.427 296.457 147.349 291.874 Q144.293 287.267 144.293 278.54 Q144.293 269.791 147.349 265.207 Q150.427 260.601 156.237 260.601 Z" fill="#000000" fill-rule="nonzero" fill-opacity="1" /><path clip-path="url(#clip920)" d="M186.399 264.304 Q182.788 264.304 180.959 267.869 Q179.154 271.411 179.154 278.54 Q179.154 285.647 180.959 289.212 Q182.788 292.753 186.399 292.753 Q190.033 292.753 191.839 289.212 Q193.668 285.647 193.668 278.54 Q193.668 271.411 191.839 267.869 Q190.033 264.304 186.399 264.304 M186.399 260.601 Q192.209 260.601 195.265 265.207 Q198.344 269.791 198.344 278.54 Q198.344 287.267 195.265 291.874 Q192.209 296.457 186.399 296.457 Q180.589 296.457 177.51 291.874 Q174.455 287.267 174.455 278.54 Q174.455 269.791 177.51 265.207 Q180.589 260.601 186.399 260.601 Z" fill="#000000" fill-rule="nonzero" fill-opacity="1" /><path clip-path="url(#clip920)" d="M19.402 1197.66 L37.2578 1197.66 L37.2578 1189.58 Q37.2578 1185.09 34.9343 1182.64 Q32.6108 1180.19 28.314 1180.19 Q24.0489 1180.19 21.7255 1182.64 Q19.402 1185.09 19.402 1189.58 L19.402 1197.66 M14.1184 1204.09 L14.1184 1189.58 Q14.1184 1181.59 17.7469 1177.51 Q21.3435 1173.41 28.314 1173.41 Q35.3481 1173.41 38.9447 1177.51 Q42.5413 1181.59 42.5413 1189.58 L42.5413 1197.66 L61.6384 1197.66 L61.6384 1204.09 L14.1184 1204.09 Z" fill="#000000" fill-rule="nonzero" fill-opacity="1" /><path clip-path="url(#clip920)" d="M30.0964 1153.55 Q30.0964 1158.26 33.7885 1161 Q37.4488 1163.73 43.8463 1163.73 Q50.2438 1163.73 53.9359 1161.03 Q57.5962 1158.29 57.5962 1153.55 Q57.5962 1148.87 53.9041 1146.13 Q50.212 1143.39 43.8463 1143.39 Q37.5124 1143.39 33.8203 1146.13 Q30.0964 1148.87 30.0964 1153.55 M25.1311 1153.55 Q25.1311 1145.91 30.0964 1141.55 Q35.0616 1137.19 43.8463 1137.19 Q52.5991 1137.19 57.5962 1141.55 Q62.5615 1145.91 62.5615 1153.55 Q62.5615 1161.22 57.5962 1165.58 Q52.5991 1169.91 43.8463 1169.91 Q35.0616 1169.91 30.0964 1165.58 Q25.1311 1161.22 25.1311 1153.55 Z" fill="#000000" fill-rule="nonzero" fill-opacity="1" /><path clip-path="url(#clip920)" d="M56.2912 1121.81 L75.1974 1121.81 L75.1974 1127.7 L25.9905 1127.7 L25.9905 1121.81 L31.4013 1121.81 Q28.2185 1119.97 26.6907 1117.17 Q25.1311 1114.33 25.1311 1110.42 Q25.1311 1103.93 30.2873 1099.88 Q35.4436 1095.81 43.8463 1095.81 Q52.249 1095.81 57.4052 1099.88 Q62.5615 1103.93 62.5615 1110.42 Q62.5615 1114.33 61.0337 1117.17 Q59.4741 1119.97 56.2912 1121.81 M43.8463 1101.89 Q37.3851 1101.89 33.7248 1104.56 Q30.0327 1107.21 30.0327 1111.85 Q30.0327 1116.5 33.7248 1119.17 Q37.3851 1121.81 43.8463 1121.81 Q50.3075 1121.81 53.9996 1119.17 Q57.6599 1116.5 57.6599 1111.85 Q57.6599 1107.21 53.9996 1104.56 Q50.3075 1101.89 43.8463 1101.89 Z" fill="#000000" fill-rule="nonzero" fill-opacity="1" /><path clip-path="url(#clip920)" d="M47.5702 1086.71 L25.9905 1086.71 L25.9905 1080.85 L47.3474 1080.85 Q52.4082 1080.85 54.9545 1078.88 Q57.4689 1076.9 57.4689 1072.96 Q57.4689 1068.22 54.4452 1065.48 Q51.4215 1062.71 46.2016 1062.71 L25.9905 1062.71 L25.9905 1056.85 L61.6384 1056.85 L61.6384 1062.71 L56.1639 1062.71 Q59.4104 1064.84 61.0019 1067.67 Q62.5615 1070.47 62.5615 1074.2 Q62.5615 1080.34 58.742 1083.52 Q54.9226 1086.71 47.5702 1086.71 M25.1311 1071.97 L25.1311 1071.97 Z" fill="#000000" fill-rule="nonzero" fill-opacity="1" /><path clip-path="url(#clip920)" d="M12.1132 1044.79 L12.1132 1038.93 L61.6384 1038.93 L61.6384 1044.79 L12.1132 1044.79 Z" fill="#000000" fill-rule="nonzero" fill-opacity="1" /><path clip-path="url(#clip920)" d="M43.719 1010.48 Q43.719 1017.58 45.3422 1020.31 Q46.9655 1023.05 50.8804 1023.05 Q53.9996 1023.05 55.8457 1021.01 Q57.6599 1018.94 57.6599 1015.41 Q57.6599 1010.54 54.2224 1007.61 Q50.7531 1004.65 45.0239 1004.65 L43.719 1004.65 L43.719 1010.48 M41.3 998.797 L61.6384 998.797 L61.6384 1004.65 L56.2276 1004.65 Q59.4741 1006.66 61.0337 1009.65 Q62.5615 1012.64 62.5615 1016.97 Q62.5615 1022.45 59.5059 1025.69 Q56.4186 1028.91 51.2623 1028.91 Q45.2467 1028.91 42.1912 1024.9 Q39.1357 1020.85 39.1357 1012.87 L39.1357 1004.65 L38.5628 1004.65 Q34.5205 1004.65 32.3244 1007.33 Q30.0964 1009.97 30.0964 1014.77 Q30.0964 1017.83 30.8284 1020.73 Q31.5605 1023.62 33.0246 1026.3 L27.6137 1026.3 Q26.3724 1023.08 25.7677 1020.06 Q25.1311 1017.03 25.1311 1014.17 Q25.1311 1006.44 29.1415 1002.62 Q33.1519 998.797 41.3 998.797 Z" fill="#000000" fill-rule="nonzero" fill-opacity="1" /><path clip-path="url(#clip920)" d="M15.869 980.941 L25.9905 980.941 L25.9905 968.878 L30.542 968.878 L30.542 980.941 L49.8937 980.941 Q54.2542 980.941 55.4955 979.764 Q56.7368 978.554 56.7368 974.894 L56.7368 968.878 L61.6384 968.878 L61.6384 974.894 Q61.6384 981.673 59.124 984.251 Q56.5777 986.83 49.8937 986.83 L30.542 986.83 L30.542 991.126 L25.9905 991.126 L25.9905 986.83 L15.869 986.83 L15.869 980.941 Z" fill="#000000" fill-rule="nonzero" fill-opacity="1" /><path clip-path="url(#clip920)" d="M25.9905 961.176 L25.9905 955.319 L61.6384 955.319 L61.6384 961.176 L25.9905 961.176 M12.1132 961.176 L12.1132 955.319 L19.5293 955.319 L19.5293 961.176 L12.1132 961.176 Z" fill="#000000" fill-rule="nonzero" fill-opacity="1" /><path clip-path="url(#clip920)" d="M30.0964 929.252 Q30.0964 933.962 33.7885 936.7 Q37.4488 939.437 43.8463 939.437 Q50.2438 939.437 53.9359 936.731 Q57.5962 933.994 57.5962 929.252 Q57.5962 924.573 53.9041 921.836 Q50.212 919.098 43.8463 919.098 Q37.5124 919.098 33.8203 921.836 Q30.0964 924.573 30.0964 929.252 M25.1311 929.252 Q25.1311 921.613 30.0964 917.252 Q35.0616 912.892 43.8463 912.892 Q52.5991 912.892 57.5962 917.252 Q62.5615 921.613 62.5615 929.252 Q62.5615 936.922 57.5962 941.283 Q52.5991 945.612 43.8463 945.612 Q35.0616 945.612 30.0964 941.283 Q25.1311 936.922 25.1311 929.252 Z" fill="#000000" fill-rule="nonzero" fill-opacity="1" /><path clip-path="url(#clip920)" d="M40.1224 873.552 L61.6384 873.552 L61.6384 879.408 L40.3133 879.408 Q35.2526 879.408 32.7381 881.382 Q30.2237 883.355 30.2237 887.302 Q30.2237 892.044 33.2474 894.781 Q36.2711 897.519 41.491 897.519 L61.6384 897.519 L61.6384 903.407 L25.9905 903.407 L25.9905 897.519 L31.5287 897.519 Q28.314 895.418 26.7225 892.585 Q25.1311 889.721 25.1311 885.997 Q25.1311 879.854 28.9505 876.703 Q32.7381 873.552 40.1224 873.552 Z" fill="#000000" fill-rule="nonzero" fill-opacity="1" /><path clip-path="url(#clip920)" d="M27.0408 818.425 L32.579 818.425 Q31.3059 820.907 30.6693 823.581 Q30.0327 826.255 30.0327 829.119 Q30.0327 833.48 31.3695 835.676 Q32.7063 837.84 35.3799 837.84 Q37.4169 837.84 38.5946 836.281 Q39.7404 834.721 40.7908 830.01 L41.2364 828.005 Q42.5732 821.767 45.0239 819.157 Q47.4429 816.515 51.8034 816.515 Q56.7687 816.515 59.6651 820.462 Q62.5615 824.377 62.5615 831.252 Q62.5615 834.116 61.9886 837.235 Q61.4475 840.323 60.3335 843.76 L54.2861 843.76 Q55.973 840.514 56.8323 837.363 Q57.6599 834.212 57.6599 831.124 Q57.6599 826.987 56.2594 824.759 Q54.8271 822.531 52.249 822.531 Q49.8619 822.531 48.5887 824.154 Q47.3156 825.745 46.1379 831.188 L45.6605 833.225 Q44.5147 838.668 42.1594 841.087 Q39.7722 843.506 35.6345 843.506 Q30.6056 843.506 27.8684 839.941 Q25.1311 836.376 25.1311 829.819 Q25.1311 826.573 25.6085 823.708 Q26.086 820.844 27.0408 818.425 Z" fill="#000000" fill-rule="nonzero" fill-opacity="1" /><path clip-path="url(#clip920)" d="M25.9905 807.189 L25.9905 801.333 L61.6384 801.333 L61.6384 807.189 L25.9905 807.189 M12.1132 807.189 L12.1132 801.333 L19.5293 801.333 L19.5293 807.189 L12.1132 807.189 Z" fill="#000000" fill-rule="nonzero" fill-opacity="1" /><path clip-path="url(#clip920)" d="M25.9905 791.625 L25.9905 763.807 L31.3377 763.807 L56.9596 785.832 L56.9596 763.807 L61.6384 763.807 L61.6384 792.421 L56.2912 792.421 L30.6693 770.396 L30.6693 791.625 L25.9905 791.625 Z" fill="#000000" fill-rule="nonzero" fill-opacity="1" /><path clip-path="url(#clip920)" d="M42.3504 724.371 L45.2149 724.371 L45.2149 751.298 Q51.2623 750.916 54.4452 747.67 Q57.5962 744.392 57.5962 738.567 Q57.5962 735.193 56.7687 732.042 Q55.9411 728.859 54.2861 725.74 L59.8242 725.74 Q61.161 728.891 61.8612 732.201 Q62.5615 735.511 62.5615 738.917 Q62.5615 747.447 57.5962 752.444 Q52.631 757.409 44.1646 757.409 Q35.4117 757.409 30.2873 752.699 Q25.1311 747.956 25.1311 739.936 Q25.1311 732.742 29.7781 728.573 Q34.3932 724.371 42.3504 724.371 M40.6316 730.228 Q35.8255 730.292 32.9609 732.933 Q30.0964 735.543 30.0964 739.872 Q30.0964 744.774 32.8654 747.734 Q35.6345 750.662 40.6634 751.107 L40.6316 730.228 Z" fill="#000000" fill-rule="nonzero" fill-opacity="1" /><path clip-path="url(#clip920)" d="M14.1184 693.784 L14.1184 685.127 L53.8723 664.056 L14.1184 664.056 L14.1184 657.818 L61.6384 657.818 L61.6384 666.475 L21.8846 687.546 L61.6384 687.546 L61.6384 693.784 L14.1184 693.784 Z" fill="#000000" fill-rule="nonzero" fill-opacity="1" /><path clip-path="url(#clip920)" d="M820.529 44.2197 Q823.162 45.1109 825.633 48.0275 Q828.145 50.9442 830.656 56.0483 L838.961 72.576 L830.17 72.576 L822.433 57.061 Q819.435 50.9847 816.6 48.9997 Q813.805 47.0148 808.943 47.0148 L800.031 47.0148 L800.031 72.576 L791.849 72.576 L791.849 12.096 L810.321 12.096 Q820.691 12.096 825.795 16.4305 Q830.899 20.7649 830.899 29.5149 Q830.899 35.2267 828.226 38.994 Q825.593 42.7613 820.529 44.2197 M800.031 18.8205 L800.031 40.2903 L810.321 40.2903 Q816.235 40.2903 819.233 37.5762 Q822.271 34.8216 822.271 29.5149 Q822.271 24.2082 819.233 21.5346 Q816.235 18.8205 810.321 18.8205 L800.031 18.8205 Z" fill="#000000" fill-rule="nonzero" fill-opacity="1" /><path clip-path="url(#clip920)" d="M849.169 27.2059 L856.623 27.2059 L856.623 72.576 L849.169 72.576 L849.169 27.2059 M849.169 9.54393 L856.623 9.54393 L856.623 18.9825 L849.169 18.9825 L849.169 9.54393 Z" fill="#000000" fill-rule="nonzero" fill-opacity="1" /><path clip-path="url(#clip920)" d="M904.869 28.9478 L904.869 35.9153 Q901.709 34.1734 898.509 33.3227 Q895.349 32.4315 892.109 32.4315 Q884.857 32.4315 880.847 37.0496 Q876.837 41.6271 876.837 49.9314 Q876.837 58.2358 880.847 62.8538 Q884.857 67.4314 892.109 67.4314 Q895.349 67.4314 898.509 66.5807 Q901.709 65.6895 904.869 63.9476 L904.869 70.8341 Q901.75 72.2924 898.387 73.0216 Q895.066 73.7508 891.298 73.7508 Q881.05 73.7508 875.014 67.3098 Q868.978 60.8689 868.978 49.9314 Q868.978 38.832 875.054 32.472 Q881.171 26.1121 891.784 26.1121 Q895.228 26.1121 898.509 26.8413 Q901.79 27.5299 904.869 28.9478 Z" fill="#000000" fill-rule="nonzero" fill-opacity="1" /><path clip-path="url(#clip920)" d="M917.548 9.54393 L925.042 9.54393 L925.042 46.7717 L947.282 27.2059 L956.801 27.2059 L932.739 48.4326 L957.814 72.576 L948.092 72.576 L925.042 50.4176 L925.042 72.576 L917.548 72.576 L917.548 9.54393 Z" fill="#000000" fill-rule="nonzero" fill-opacity="1" /><path clip-path="url(#clip920)" d="M1001.73 48.0275 L1001.73 51.6733 L967.455 51.6733 Q967.941 59.3701 972.073 63.421 Q976.246 67.4314 983.659 67.4314 Q987.953 67.4314 991.963 66.3781 Q996.014 65.3249 999.984 63.2184 L999.984 70.267 Q995.974 71.9684 991.761 72.8596 Q987.548 73.7508 983.213 73.7508 Q972.357 73.7508 965.997 67.4314 Q959.678 61.1119 959.678 50.3365 Q959.678 39.1965 965.673 32.6746 Q971.709 26.1121 981.917 26.1121 Q991.072 26.1121 996.379 32.0264 Q1001.73 37.9003 1001.73 48.0275 M994.272 45.84 Q994.191 39.7232 990.829 36.0774 Q987.507 32.4315 981.998 32.4315 Q975.76 32.4315 971.992 35.9558 Q968.266 39.4801 967.698 45.8805 L994.272 45.84 Z" fill="#000000" fill-rule="nonzero" fill-opacity="1" /><path clip-path="url(#clip920)" d="M1040.25 34.1734 Q1038.99 33.4443 1037.5 33.1202 Q1036.04 32.7556 1034.25 32.7556 Q1027.94 32.7556 1024.53 36.8875 Q1021.17 40.9789 1021.17 48.6757 L1021.17 72.576 L1013.68 72.576 L1013.68 27.2059 L1021.17 27.2059 L1021.17 34.2544 Q1023.52 30.1225 1027.29 28.1376 Q1031.05 26.1121 1036.44 26.1121 Q1037.21 26.1121 1038.14 26.2337 Q1039.08 26.3147 1040.21 26.5172 L1040.25 34.1734 Z" fill="#000000" fill-rule="nonzero" fill-opacity="1" /><path clip-path="url(#clip920)" d="M1074.76 12.096 L1086.96 12.096 L1102.39 53.2532 L1117.91 12.096 L1130.1 12.096 L1130.1 72.576 L1122.12 72.576 L1122.12 19.4686 L1106.52 60.9499 L1098.3 60.9499 L1082.7 19.4686 L1082.7 72.576 L1074.76 72.576 L1074.76 12.096 Z" fill="#000000" fill-rule="nonzero" fill-opacity="1" /><path clip-path="url(#clip920)" d="M1163.6 32.4315 Q1157.6 32.4315 1154.12 37.1306 Q1150.64 41.7891 1150.64 49.9314 Q1150.64 58.0738 1154.08 62.7728 Q1157.56 67.4314 1163.6 67.4314 Q1169.55 67.4314 1173.04 62.7323 Q1176.52 58.0333 1176.52 49.9314 Q1176.52 41.8701 1173.04 37.1711 Q1169.55 32.4315 1163.6 32.4315 M1163.6 26.1121 Q1173.32 26.1121 1178.87 32.4315 Q1184.42 38.7509 1184.42 49.9314 Q1184.42 61.0714 1178.87 67.4314 Q1173.32 73.7508 1163.6 73.7508 Q1153.84 73.7508 1148.29 67.4314 Q1142.78 61.0714 1142.78 49.9314 Q1142.78 38.7509 1148.29 32.4315 Q1153.84 26.1121 1163.6 26.1121 Z" fill="#000000" fill-rule="nonzero" fill-opacity="1" /><path clip-path="url(#clip920)" d="M1226.63 34.0924 L1226.63 9.54393 L1234.09 9.54393 L1234.09 72.576 L1226.63 72.576 L1226.63 65.7705 Q1224.28 69.8214 1220.68 71.8063 Q1217.11 73.7508 1212.09 73.7508 Q1203.87 73.7508 1198.68 67.1883 Q1193.54 60.6258 1193.54 49.9314 Q1193.54 39.2371 1198.68 32.6746 Q1203.87 26.1121 1212.09 26.1121 Q1217.11 26.1121 1220.68 28.0971 Q1224.28 30.0415 1226.63 34.0924 M1201.23 49.9314 Q1201.23 58.1548 1204.6 62.8538 Q1208 67.5124 1213.91 67.5124 Q1219.83 67.5124 1223.23 62.8538 Q1226.63 58.1548 1226.63 49.9314 Q1226.63 41.7081 1223.23 37.0496 Q1219.83 32.3505 1213.91 32.3505 Q1208 32.3505 1204.6 37.0496 Q1201.23 41.7081 1201.23 49.9314 Z" fill="#000000" fill-rule="nonzero" fill-opacity="1" /><path clip-path="url(#clip920)" d="M1288.25 48.0275 L1288.25 51.6733 L1253.98 51.6733 Q1254.46 59.3701 1258.59 63.421 Q1262.77 67.4314 1270.18 67.4314 Q1274.47 67.4314 1278.48 66.3781 Q1282.53 65.3249 1286.5 63.2184 L1286.5 70.267 Q1282.49 71.9684 1278.28 72.8596 Q1274.07 73.7508 1269.73 73.7508 Q1258.88 73.7508 1252.52 67.4314 Q1246.2 61.1119 1246.2 50.3365 Q1246.2 39.1965 1252.19 32.6746 Q1258.23 26.1121 1268.44 26.1121 Q1277.59 26.1121 1282.9 32.0264 Q1288.25 37.9003 1288.25 48.0275 M1280.79 45.84 Q1280.71 39.7232 1277.35 36.0774 Q1274.03 32.4315 1268.52 32.4315 Q1262.28 32.4315 1258.51 35.9558 Q1254.79 39.4801 1254.22 45.8805 L1280.79 45.84 Z" fill="#000000" fill-rule="nonzero" fill-opacity="1" /><path clip-path="url(#clip920)" d="M1300.48 9.54393 L1307.93 9.54393 L1307.93 72.576 L1300.48 72.576 L1300.48 9.54393 Z" fill="#000000" fill-rule="nonzero" fill-opacity="1" /><path clip-path="url(#clip920)" d="M1346.13 46.9338 L1420.99 46.9338 L1420.99 52.7671 L1346.13 52.7671 L1346.13 46.9338 Z" fill="#000000" fill-rule="nonzero" fill-opacity="1" /><path clip-path="url(#clip920)" d="M1495.81 14.0809 L1495.81 22.0612 Q1491.16 19.8332 1487.02 18.7395 Q1482.89 17.6457 1479.04 17.6457 Q1472.36 17.6457 1468.71 20.2383 Q1465.11 22.8309 1465.11 27.611 Q1465.11 31.6214 1467.5 33.6873 Q1469.93 35.7128 1476.65 36.9686 L1481.6 37.9813 Q1490.75 39.7232 1495.09 44.1387 Q1499.46 48.5136 1499.46 55.8863 Q1499.46 64.6767 1493.55 69.2137 Q1487.67 73.7508 1476.29 73.7508 Q1472 73.7508 1467.13 72.7785 Q1462.31 71.8063 1457.13 69.9024 L1457.13 61.4765 Q1462.11 64.2716 1466.89 65.6895 Q1471.67 67.1073 1476.29 67.1073 Q1483.3 67.1073 1487.11 64.3527 Q1490.91 61.598 1490.91 56.4939 Q1490.91 52.0379 1488.16 49.5264 Q1485.44 47.0148 1479.21 45.759 L1474.22 44.7868 Q1465.07 42.9639 1460.98 39.075 Q1456.89 35.1862 1456.89 28.2591 Q1456.89 20.2383 1462.52 15.6203 Q1468.19 11.0023 1478.11 11.0023 Q1482.37 11.0023 1486.78 11.7719 Q1491.2 12.5416 1495.81 14.0809 Z" fill="#000000" fill-rule="nonzero" fill-opacity="1" /><path clip-path="url(#clip920)" d="M1511.9 27.2059 L1519.35 27.2059 L1519.35 72.576 L1511.9 72.576 L1511.9 27.2059 M1511.9 9.54393 L1519.35 9.54393 L1519.35 18.9825 L1511.9 18.9825 L1511.9 9.54393 Z" fill="#000000" fill-rule="nonzero" fill-opacity="1" /><path clip-path="url(#clip920)" d="M1570.27 35.9153 Q1573.07 30.8922 1576.95 28.5022 Q1580.84 26.1121 1586.11 26.1121 Q1593.2 26.1121 1597.05 31.0947 Q1600.9 36.0368 1600.9 45.1919 L1600.9 72.576 L1593.4 72.576 L1593.4 45.4349 Q1593.4 38.913 1591.09 35.7533 Q1588.78 32.5936 1584.04 32.5936 Q1578.25 32.5936 1574.89 36.4419 Q1571.53 40.2903 1571.53 46.9338 L1571.53 72.576 L1564.03 72.576 L1564.03 45.4349 Q1564.03 38.8725 1561.72 35.7533 Q1559.41 32.5936 1554.59 32.5936 Q1548.88 32.5936 1545.52 36.4824 Q1542.16 40.3308 1542.16 46.9338 L1542.16 72.576 L1534.66 72.576 L1534.66 27.2059 L1542.16 27.2059 L1542.16 34.2544 Q1544.71 30.082 1548.27 28.0971 Q1551.84 26.1121 1556.74 26.1121 Q1561.68 26.1121 1565.13 28.6237 Q1568.61 31.1352 1570.27 35.9153 Z" fill="#000000" fill-rule="nonzero" fill-opacity="1" /><path clip-path="url(#clip920)" d="M1614.99 54.671 L1614.99 27.2059 L1622.45 27.2059 L1622.45 54.3874 Q1622.45 60.8284 1624.96 64.0691 Q1627.47 67.2693 1632.49 67.2693 Q1638.53 67.2693 1642.01 63.421 Q1645.54 59.5726 1645.54 52.9291 L1645.54 27.2059 L1652.99 27.2059 L1652.99 72.576 L1645.54 72.576 L1645.54 65.6084 Q1642.82 69.7404 1639.22 71.7658 Q1635.65 73.7508 1630.91 73.7508 Q1623.09 73.7508 1619.04 68.8897 Q1614.99 64.0286 1614.99 54.671 M1633.75 26.1121 L1633.75 26.1121 Z" fill="#000000" fill-rule="nonzero" fill-opacity="1" /><path clip-path="url(#clip920)" d="M1668.34 9.54393 L1675.8 9.54393 L1675.8 72.576 L1668.34 72.576 L1668.34 9.54393 Z" fill="#000000" fill-rule="nonzero" fill-opacity="1" /><path clip-path="url(#clip920)" d="M1712.01 49.7694 Q1702.98 49.7694 1699.49 51.8354 Q1696.01 53.9013 1696.01 58.8839 Q1696.01 62.8538 1698.6 65.2034 Q1701.24 67.5124 1705.73 67.5124 Q1711.93 67.5124 1715.66 63.1374 Q1719.42 58.7219 1719.42 51.4303 L1719.42 49.7694 L1712.01 49.7694 M1726.88 46.6907 L1726.88 72.576 L1719.42 72.576 L1719.42 65.6895 Q1716.87 69.8214 1713.06 71.8063 Q1709.26 73.7508 1703.75 73.7508 Q1696.78 73.7508 1692.65 69.8619 Q1688.56 65.9325 1688.56 59.3701 Q1688.56 51.7138 1693.66 47.825 Q1698.81 43.9361 1708.97 43.9361 L1719.42 43.9361 L1719.42 43.2069 Q1719.42 38.0623 1716.02 35.2672 Q1712.66 32.4315 1706.54 32.4315 Q1702.65 32.4315 1698.97 33.3632 Q1695.28 34.295 1691.88 36.1584 L1691.88 29.2718 Q1695.97 27.692 1699.82 26.9223 Q1703.67 26.1121 1707.31 26.1121 Q1717.16 26.1121 1722.02 31.2163 Q1726.88 36.3204 1726.88 46.6907 Z" fill="#000000" fill-rule="nonzero" fill-opacity="1" /><path clip-path="url(#clip920)" d="M1749.6 14.324 L1749.6 27.2059 L1764.96 27.2059 L1764.96 32.9987 L1749.6 32.9987 L1749.6 57.6282 Q1749.6 63.1779 1751.1 64.7578 Q1752.64 66.3376 1757.3 66.3376 L1764.96 66.3376 L1764.96 72.576 L1757.3 72.576 Q1748.67 72.576 1745.39 69.3758 Q1742.11 66.1351 1742.11 57.6282 L1742.11 32.9987 L1736.64 32.9987 L1736.64 27.2059 L1742.11 27.2059 L1742.11 14.324 L1749.6 14.324 Z" fill="#000000" fill-rule="nonzero" fill-opacity="1" /><path clip-path="url(#clip920)" d="M1813.57 48.0275 L1813.57 51.6733 L1779.3 51.6733 Q1779.78 59.3701 1783.92 63.421 Q1788.09 67.4314 1795.5 67.4314 Q1799.79 67.4314 1803.81 66.3781 Q1807.86 65.3249 1811.83 63.2184 L1811.83 70.267 Q1807.82 71.9684 1803.6 72.8596 Q1799.39 73.7508 1795.06 73.7508 Q1784.2 73.7508 1777.84 67.4314 Q1771.52 61.1119 1771.52 50.3365 Q1771.52 39.1965 1777.51 32.6746 Q1783.55 26.1121 1793.76 26.1121 Q1802.91 26.1121 1808.22 32.0264 Q1813.57 37.9003 1813.57 48.0275 M1806.11 45.84 Q1806.03 39.7232 1802.67 36.0774 Q1799.35 32.4315 1793.84 32.4315 Q1787.6 32.4315 1783.83 35.9558 Q1780.11 39.4801 1779.54 45.8805 L1806.11 45.84 Z" fill="#000000" fill-rule="nonzero" fill-opacity="1" /><path clip-path="url(#clip920)" d="M1855.66 34.0924 L1855.66 9.54393 L1863.11 9.54393 L1863.11 72.576 L1855.66 72.576 L1855.66 65.7705 Q1853.31 69.8214 1849.7 71.8063 Q1846.14 73.7508 1841.11 73.7508 Q1832.89 73.7508 1827.71 67.1883 Q1822.56 60.6258 1822.56 49.9314 Q1822.56 39.2371 1827.71 32.6746 Q1832.89 26.1121 1841.11 26.1121 Q1846.14 26.1121 1849.7 28.0971 Q1853.31 30.0415 1855.66 34.0924 M1830.26 49.9314 Q1830.26 58.1548 1833.62 62.8538 Q1837.02 67.5124 1842.94 67.5124 Q1848.85 67.5124 1852.25 62.8538 Q1855.66 58.1548 1855.66 49.9314 Q1855.66 41.7081 1852.25 37.0496 Q1848.85 32.3505 1842.94 32.3505 Q1837.02 32.3505 1833.62 37.0496 Q1830.26 41.7081 1830.26 49.9314 Z" fill="#000000" fill-rule="nonzero" fill-opacity="1" /><path clip-path="url(#clip920)" d="M1913.34 18.8205 L1913.34 65.8515 L1923.23 65.8515 Q1935.74 65.8515 1941.54 60.1802 Q1947.37 54.509 1947.37 42.2752 Q1947.37 30.1225 1941.54 24.4918 Q1935.74 18.8205 1923.23 18.8205 L1913.34 18.8205 M1905.16 12.096 L1921.97 12.096 Q1939.55 12.096 1947.77 19.4281 Q1956 26.7198 1956 42.2752 Q1956 57.9117 1947.73 65.2439 Q1939.47 72.576 1921.97 72.576 L1905.16 72.576 L1905.16 12.096 Z" fill="#000000" fill-rule="nonzero" fill-opacity="1" /><path clip-path="url(#clip920)" d="M1989.34 49.7694 Q1980.3 49.7694 1976.82 51.8354 Q1973.34 53.9013 1973.34 58.8839 Q1973.34 62.8538 1975.93 65.2034 Q1978.56 67.5124 1983.06 67.5124 Q1989.26 67.5124 1992.98 63.1374 Q1996.75 58.7219 1996.75 51.4303 L1996.75 49.7694 L1989.34 49.7694 M2004.2 46.6907 L2004.2 72.576 L1996.75 72.576 L1996.75 65.6895 Q1994.2 69.8214 1990.39 71.8063 Q1986.58 73.7508 1981.07 73.7508 Q1974.11 73.7508 1969.97 69.8619 Q1965.88 65.9325 1965.88 59.3701 Q1965.88 51.7138 1970.99 47.825 Q1976.13 43.9361 1986.3 43.9361 L1996.75 43.9361 L1996.75 43.2069 Q1996.75 38.0623 1993.35 35.2672 Q1989.98 32.4315 1983.87 32.4315 Q1979.98 32.4315 1976.29 33.3632 Q1972.61 34.295 1969.2 36.1584 L1969.2 29.2718 Q1973.29 27.692 1977.14 26.9223 Q1980.99 26.1121 1984.64 26.1121 Q1994.48 26.1121 1999.34 31.2163 Q2004.2 36.3204 2004.2 46.6907 Z" fill="#000000" fill-rule="nonzero" fill-opacity="1" /><path clip-path="url(#clip920)" d="M2026.93 14.324 L2026.93 27.2059 L2042.28 27.2059 L2042.28 32.9987 L2026.93 32.9987 L2026.93 57.6282 Q2026.93 63.1779 2028.43 64.7578 Q2029.97 66.3376 2034.63 66.3376 L2042.28 66.3376 L2042.28 72.576 L2034.63 72.576 Q2026 72.576 2022.72 69.3758 Q2019.43 66.1351 2019.43 57.6282 L2019.43 32.9987 L2013.97 32.9987 L2013.97 27.2059 L2019.43 27.2059 L2019.43 14.324 L2026.93 14.324 Z" fill="#000000" fill-rule="nonzero" fill-opacity="1" /><path clip-path="url(#clip920)" d="M2072.7 49.7694 Q2063.67 49.7694 2060.19 51.8354 Q2056.7 53.9013 2056.7 58.8839 Q2056.7 62.8538 2059.3 65.2034 Q2061.93 67.5124 2066.43 67.5124 Q2072.62 67.5124 2076.35 63.1374 Q2080.12 58.7219 2080.12 51.4303 L2080.12 49.7694 L2072.7 49.7694 M2087.57 46.6907 L2087.57 72.576 L2080.12 72.576 L2080.12 65.6895 Q2077.57 69.8214 2073.76 71.8063 Q2069.95 73.7508 2064.44 73.7508 Q2057.47 73.7508 2053.34 69.8619 Q2049.25 65.9325 2049.25 59.3701 Q2049.25 51.7138 2054.35 47.825 Q2059.5 43.9361 2069.67 43.9361 L2080.12 43.9361 L2080.12 43.2069 Q2080.12 38.0623 2076.71 35.2672 Q2073.35 32.4315 2067.24 32.4315 Q2063.35 32.4315 2059.66 33.3632 Q2055.97 34.295 2052.57 36.1584 L2052.57 29.2718 Q2056.66 27.692 2060.51 26.9223 Q2064.36 26.1121 2068.01 26.1121 Q2077.85 26.1121 2082.71 31.2163 Q2087.57 36.3204 2087.57 46.6907 Z" fill="#000000" fill-rule="nonzero" fill-opacity="1" /><polyline clip-path="url(#clip921)" style="stroke:#000000; stroke-linecap:round; stroke-linejoin:round; stroke-width:8; stroke-opacity:1; fill:none" stroke-dasharray="32, 20" points="306.647,1671.78 363.3,1508.54 419.954,1226.05 476.607,846.648 533.26,512.249 589.913,343.502 646.566,292.842 703.219,281.437 759.872,279.095 816.525,278.624 873.179,278.529 929.832,278.51 986.485,278.507 1043.14,278.506 1099.79,278.506 1156.44,278.506 1213.1,278.506 1269.75,278.506 1326.4,278.506 1383.06,278.506 1439.71,278.506 1496.36,278.506 1553.02,278.506 1609.67,278.506 1666.32,278.506 1722.98,278.506 1779.63,278.506 1836.28,278.506 1892.93,278.506 1949.59,278.506 2006.24,278.506 2062.89,278.506 2119.55,278.506 2176.2,278.506 2232.85,278.506 2289.51,278.506 2346.16,278.506 2402.81,278.506 2459.47,278.506 2516.12,278.506 2572.77,278.506 "/>
<circle clip-path="url(#clip921)" cx="306.647" cy="1688.65" r="14.4" fill="#4682b4" fill-rule="evenodd" fill-opacity="0.7" stroke="#000000" stroke-opacity="0.7" stroke-width="3.84"/>
<circle clip-path="url(#clip921)" cx="363.3" cy="1496.85" r="14.4" fill="#4682b4" fill-rule="evenodd" fill-opacity="0.7" stroke="#000000" stroke-opacity="0.7" stroke-width="3.84"/>
<circle clip-path="url(#clip921)" cx="419.954" cy="1240.67" r="14.4" fill="#4682b4" fill-rule="evenodd" fill-opacity="0.7" stroke="#000000" stroke-opacity="0.7" stroke-width="3.84"/>
<circle clip-path="url(#clip921)" cx="476.607" cy="861.103" r="14.4" fill="#4682b4" fill-rule="evenodd" fill-opacity="0.7" stroke="#000000" stroke-opacity="0.7" stroke-width="3.84"/>
<circle clip-path="url(#clip921)" cx="533.26" cy="474.338" r="14.4" fill="#4682b4" fill-rule="evenodd" fill-opacity="0.7" stroke="#000000" stroke-opacity="0.7" stroke-width="3.84"/>
<circle clip-path="url(#clip921)" cx="589.913" cy="321.361" r="14.4" fill="#4682b4" fill-rule="evenodd" fill-opacity="0.7" stroke="#000000" stroke-opacity="0.7" stroke-width="3.84"/>
<circle clip-path="url(#clip921)" cx="646.566" cy="332.762" r="14.4" fill="#4682b4" fill-rule="evenodd" fill-opacity="0.7" stroke="#000000" stroke-opacity="0.7" stroke-width="3.84"/>
<circle clip-path="url(#clip921)" cx="703.219" cy="349.674" r="14.4" fill="#4682b4" fill-rule="evenodd" fill-opacity="0.7" stroke="#000000" stroke-opacity="0.7" stroke-width="3.84"/>
<circle clip-path="url(#clip921)" cx="759.872" cy="377.29" r="14.4" fill="#4682b4" fill-rule="evenodd" fill-opacity="0.7" stroke="#000000" stroke-opacity="0.7" stroke-width="3.84"/>
<circle clip-path="url(#clip921)" cx="816.525" cy="276.59" r="14.4" fill="#4682b4" fill-rule="evenodd" fill-opacity="0.7" stroke="#000000" stroke-opacity="0.7" stroke-width="3.84"/>
<circle clip-path="url(#clip921)" cx="873.179" cy="316.86" r="14.4" fill="#4682b4" fill-rule="evenodd" fill-opacity="0.7" stroke="#000000" stroke-opacity="0.7" stroke-width="3.84"/>
<circle clip-path="url(#clip921)" cx="929.832" cy="239.485" r="14.4" fill="#4682b4" fill-rule="evenodd" fill-opacity="0.7" stroke="#000000" stroke-opacity="0.7" stroke-width="3.84"/>
<circle clip-path="url(#clip921)" cx="986.485" cy="258.356" r="14.4" fill="#4682b4" fill-rule="evenodd" fill-opacity="0.7" stroke="#000000" stroke-opacity="0.7" stroke-width="3.84"/>
<circle clip-path="url(#clip921)" cx="1043.14" cy="296.871" r="14.4" fill="#4682b4" fill-rule="evenodd" fill-opacity="0.7" stroke="#000000" stroke-opacity="0.7" stroke-width="3.84"/>
<circle clip-path="url(#clip921)" cx="1099.79" cy="254.489" r="14.4" fill="#4682b4" fill-rule="evenodd" fill-opacity="0.7" stroke="#000000" stroke-opacity="0.7" stroke-width="3.84"/>
<circle clip-path="url(#clip921)" cx="1156.44" cy="211.293" r="14.4" fill="#4682b4" fill-rule="evenodd" fill-opacity="0.7" stroke="#000000" stroke-opacity="0.7" stroke-width="3.84"/>
<circle clip-path="url(#clip921)" cx="1213.1" cy="282.829" r="14.4" fill="#4682b4" fill-rule="evenodd" fill-opacity="0.7" stroke="#000000" stroke-opacity="0.7" stroke-width="3.84"/>
<circle clip-path="url(#clip921)" cx="1269.75" cy="337.608" r="14.4" fill="#4682b4" fill-rule="evenodd" fill-opacity="0.7" stroke="#000000" stroke-opacity="0.7" stroke-width="3.84"/>
<circle clip-path="url(#clip921)" cx="1326.4" cy="280.385" r="14.4" fill="#4682b4" fill-rule="evenodd" fill-opacity="0.7" stroke="#000000" stroke-opacity="0.7" stroke-width="3.84"/>
<circle clip-path="url(#clip921)" cx="1383.06" cy="282.991" r="14.4" fill="#4682b4" fill-rule="evenodd" fill-opacity="0.7" stroke="#000000" stroke-opacity="0.7" stroke-width="3.84"/>
<circle clip-path="url(#clip921)" cx="1439.71" cy="342.727" r="14.4" fill="#4682b4" fill-rule="evenodd" fill-opacity="0.7" stroke="#000000" stroke-opacity="0.7" stroke-width="3.84"/>
<circle clip-path="url(#clip921)" cx="1496.36" cy="346.425" r="14.4" fill="#4682b4" fill-rule="evenodd" fill-opacity="0.7" stroke="#000000" stroke-opacity="0.7" stroke-width="3.84"/>
<circle clip-path="url(#clip921)" cx="1553.02" cy="218.085" r="14.4" fill="#4682b4" fill-rule="evenodd" fill-opacity="0.7" stroke="#000000" stroke-opacity="0.7" stroke-width="3.84"/>
<circle clip-path="url(#clip921)" cx="1609.67" cy="173.254" r="14.4" fill="#4682b4" fill-rule="evenodd" fill-opacity="0.7" stroke="#000000" stroke-opacity="0.7" stroke-width="3.84"/>
<circle clip-path="url(#clip921)" cx="1666.32" cy="208.267" r="14.4" fill="#4682b4" fill-rule="evenodd" fill-opacity="0.7" stroke="#000000" stroke-opacity="0.7" stroke-width="3.84"/>
<circle clip-path="url(#clip921)" cx="1722.98" cy="248.372" r="14.4" fill="#4682b4" fill-rule="evenodd" fill-opacity="0.7" stroke="#000000" stroke-opacity="0.7" stroke-width="3.84"/>
<circle clip-path="url(#clip921)" cx="1779.63" cy="236.71" r="14.4" fill="#4682b4" fill-rule="evenodd" fill-opacity="0.7" stroke="#000000" stroke-opacity="0.7" stroke-width="3.84"/>
<circle clip-path="url(#clip921)" cx="1836.28" cy="265.309" r="14.4" fill="#4682b4" fill-rule="evenodd" fill-opacity="0.7" stroke="#000000" stroke-opacity="0.7" stroke-width="3.84"/>
<circle clip-path="url(#clip921)" cx="1892.93" cy="227.252" r="14.4" fill="#4682b4" fill-rule="evenodd" fill-opacity="0.7" stroke="#000000" stroke-opacity="0.7" stroke-width="3.84"/>
<circle clip-path="url(#clip921)" cx="1949.59" cy="247.673" r="14.4" fill="#4682b4" fill-rule="evenodd" fill-opacity="0.7" stroke="#000000" stroke-opacity="0.7" stroke-width="3.84"/>
<circle clip-path="url(#clip921)" cx="2006.24" cy="270.552" r="14.4" fill="#4682b4" fill-rule="evenodd" fill-opacity="0.7" stroke="#000000" stroke-opacity="0.7" stroke-width="3.84"/>
<circle clip-path="url(#clip921)" cx="2062.89" cy="226.494" r="14.4" fill="#4682b4" fill-rule="evenodd" fill-opacity="0.7" stroke="#000000" stroke-opacity="0.7" stroke-width="3.84"/>
<circle clip-path="url(#clip921)" cx="2119.55" cy="189.301" r="14.4" fill="#4682b4" fill-rule="evenodd" fill-opacity="0.7" stroke="#000000" stroke-opacity="0.7" stroke-width="3.84"/>
<circle clip-path="url(#clip921)" cx="2176.2" cy="241.322" r="14.4" fill="#4682b4" fill-rule="evenodd" fill-opacity="0.7" stroke="#000000" stroke-opacity="0.7" stroke-width="3.84"/>
<circle clip-path="url(#clip921)" cx="2232.85" cy="296.414" r="14.4" fill="#4682b4" fill-rule="evenodd" fill-opacity="0.7" stroke="#000000" stroke-opacity="0.7" stroke-width="3.84"/>
<circle clip-path="url(#clip921)" cx="2289.51" cy="298.928" r="14.4" fill="#4682b4" fill-rule="evenodd" fill-opacity="0.7" stroke="#000000" stroke-opacity="0.7" stroke-width="3.84"/>
<circle clip-path="url(#clip921)" cx="2346.16" cy="249.252" r="14.4" fill="#4682b4" fill-rule="evenodd" fill-opacity="0.7" stroke="#000000" stroke-opacity="0.7" stroke-width="3.84"/>
<circle clip-path="url(#clip921)" cx="2402.81" cy="281.739" r="14.4" fill="#4682b4" fill-rule="evenodd" fill-opacity="0.7" stroke="#000000" stroke-opacity="0.7" stroke-width="3.84"/>
<circle clip-path="url(#clip921)" cx="2459.47" cy="314.68" r="14.4" fill="#4682b4" fill-rule="evenodd" fill-opacity="0.7" stroke="#000000" stroke-opacity="0.7" stroke-width="3.84"/>
<circle clip-path="url(#clip921)" cx="2516.12" cy="319.317" r="14.4" fill="#4682b4" fill-rule="evenodd" fill-opacity="0.7" stroke="#000000" stroke-opacity="0.7" stroke-width="3.84"/>
<circle clip-path="url(#clip921)" cx="2572.77" cy="288.101" r="14.4" fill="#4682b4" fill-rule="evenodd" fill-opacity="0.7" stroke="#000000" stroke-opacity="0.7" stroke-width="3.84"/>
<path clip-path="url(#clip920)" d="M2099.37 1680.57 L2560.69 1680.57 L2560.69 1525.05 L2099.37 1525.05  Z" fill="#ffffff" fill-rule="evenodd" fill-opacity="1"/>
<polyline clip-path="url(#clip920)" style="stroke:#000000; stroke-linecap:round; stroke-linejoin:round; stroke-width:4; stroke-opacity:1; fill:none" points="2099.37,1680.57 2560.69,1680.57 2560.69,1525.05 2099.37,1525.05 2099.37,1680.57 "/>
<polyline clip-path="url(#clip920)" style="stroke:#000000; stroke-linecap:round; stroke-linejoin:round; stroke-width:8; stroke-opacity:1; fill:none" stroke-dasharray="32, 20" points="2126.06,1576.89 2286.2,1576.89 "/>
<path clip-path="url(#clip920)" d="M2312.89 1559.61 L2342.12 1559.61 L2342.12 1563.55 L2329.85 1563.55 L2329.85 1594.17 L2325.15 1594.17 L2325.15 1563.55 L2312.89 1563.55 L2312.89 1559.61 Z" fill="#000000" fill-rule="nonzero" fill-opacity="1" /><path clip-path="url(#clip920)" d="M2354.51 1572.23 Q2353.79 1571.81 2352.93 1571.63 Q2352.1 1571.42 2351.08 1571.42 Q2347.47 1571.42 2345.53 1573.78 Q2343.6 1576.12 2343.6 1580.52 L2343.6 1594.17 L2339.32 1594.17 L2339.32 1568.25 L2343.6 1568.25 L2343.6 1572.27 Q2344.95 1569.91 2347.1 1568.78 Q2349.25 1567.62 2352.33 1567.62 Q2352.77 1567.62 2353.3 1567.69 Q2353.84 1567.74 2354.48 1567.85 L2354.51 1572.23 Z" fill="#000000" fill-rule="nonzero" fill-opacity="1" /><path clip-path="url(#clip920)" d="M2358.53 1583.94 L2358.53 1568.25 L2362.79 1568.25 L2362.79 1583.78 Q2362.79 1587.46 2364.23 1589.31 Q2365.66 1591.14 2368.53 1591.14 Q2371.98 1591.14 2373.97 1588.94 Q2375.99 1586.74 2375.99 1582.95 L2375.99 1568.25 L2380.25 1568.25 L2380.25 1594.17 L2375.99 1594.17 L2375.99 1590.19 Q2374.44 1592.55 2372.38 1593.71 Q2370.34 1594.84 2367.63 1594.84 Q2363.16 1594.84 2360.85 1592.07 Q2358.53 1589.29 2358.53 1583.94 M2369.25 1567.62 L2369.25 1567.62 Z" fill="#000000" fill-rule="nonzero" fill-opacity="1" /><path clip-path="url(#clip920)" d="M2411.2 1580.15 L2411.2 1582.23 L2391.61 1582.23 Q2391.89 1586.63 2394.25 1588.94 Q2396.64 1591.23 2400.87 1591.23 Q2403.33 1591.23 2405.62 1590.63 Q2407.93 1590.03 2410.2 1588.83 L2410.2 1592.85 Q2407.91 1593.83 2405.5 1594.33 Q2403.09 1594.84 2400.62 1594.84 Q2394.41 1594.84 2390.78 1591.23 Q2387.17 1587.62 2387.17 1581.46 Q2387.17 1575.1 2390.59 1571.37 Q2394.04 1567.62 2399.88 1567.62 Q2405.11 1567.62 2408.14 1571 Q2411.2 1574.36 2411.2 1580.15 M2406.94 1578.9 Q2406.89 1575.4 2404.97 1573.32 Q2403.07 1571.23 2399.92 1571.23 Q2396.36 1571.23 2394.21 1573.25 Q2392.08 1575.26 2391.75 1578.92 L2406.94 1578.9 Z" fill="#000000" fill-rule="nonzero" fill-opacity="1" /><circle clip-path="url(#clip920)" cx="2206.13" cy="1628.73" r="20.48" fill="#4682b4" fill-rule="evenodd" fill-opacity="0.7" stroke="#000000" stroke-opacity="0.7" stroke-width="5.46133"/>
<path clip-path="url(#clip920)" d="M2328.9 1614.62 Q2323.81 1614.62 2320.8 1618.42 Q2317.82 1622.22 2317.82 1628.77 Q2317.82 1635.3 2320.8 1639.09 Q2323.81 1642.89 2328.9 1642.89 Q2334 1642.89 2336.96 1639.09 Q2339.95 1635.3 2339.95 1628.77 Q2339.95 1622.22 2336.96 1618.42 Q2334 1614.62 2328.9 1614.62 M2328.9 1610.83 Q2336.17 1610.83 2340.53 1615.71 Q2344.88 1620.57 2344.88 1628.77 Q2344.88 1636.94 2340.53 1641.82 Q2336.17 1646.68 2328.9 1646.68 Q2321.61 1646.68 2317.24 1641.82 Q2312.89 1636.96 2312.89 1628.77 Q2312.89 1620.57 2317.24 1615.71 Q2321.61 1610.83 2328.9 1610.83 Z" fill="#000000" fill-rule="nonzero" fill-opacity="1" /><path clip-path="url(#clip920)" d="M2370.62 1633.07 Q2370.62 1628.37 2368.67 1625.71 Q2366.75 1623.03 2363.37 1623.03 Q2359.99 1623.03 2358.05 1625.71 Q2356.13 1628.37 2356.13 1633.07 Q2356.13 1637.77 2358.05 1640.46 Q2359.99 1643.12 2363.37 1643.12 Q2366.75 1643.12 2368.67 1640.46 Q2370.62 1637.77 2370.62 1633.07 M2356.13 1624.02 Q2357.47 1621.71 2359.51 1620.6 Q2361.57 1619.46 2364.41 1619.46 Q2369.14 1619.46 2372.08 1623.21 Q2375.04 1626.96 2375.04 1633.07 Q2375.04 1639.18 2372.08 1642.93 Q2369.14 1646.68 2364.41 1646.68 Q2361.57 1646.68 2359.51 1645.57 Q2357.47 1644.44 2356.13 1642.12 L2356.13 1646.01 L2351.84 1646.01 L2351.84 1609.99 L2356.13 1609.99 L2356.13 1624.02 Z" fill="#000000" fill-rule="nonzero" fill-opacity="1" /><path clip-path="url(#clip920)" d="M2398.63 1620.85 L2398.63 1624.88 Q2396.82 1623.95 2394.88 1623.49 Q2392.93 1623.03 2390.85 1623.03 Q2387.68 1623.03 2386.08 1624 Q2384.51 1624.97 2384.51 1626.92 Q2384.51 1628.4 2385.64 1629.25 Q2386.77 1630.09 2390.2 1630.85 L2391.66 1631.17 Q2396.2 1632.15 2398.09 1633.93 Q2400.02 1635.69 2400.02 1638.86 Q2400.02 1642.47 2397.15 1644.58 Q2394.3 1646.68 2389.3 1646.68 Q2387.21 1646.68 2384.95 1646.27 Q2382.7 1645.87 2380.2 1645.06 L2380.2 1640.67 Q2382.56 1641.89 2384.85 1642.52 Q2387.15 1643.12 2389.39 1643.12 Q2392.4 1643.12 2394.02 1642.1 Q2395.64 1641.06 2395.64 1639.18 Q2395.64 1637.45 2394.46 1636.52 Q2393.3 1635.6 2389.34 1634.74 L2387.86 1634.39 Q2383.9 1633.56 2382.15 1631.85 Q2380.39 1630.11 2380.39 1627.1 Q2380.39 1623.44 2382.98 1621.45 Q2385.57 1619.46 2390.34 1619.46 Q2392.7 1619.46 2394.78 1619.81 Q2396.87 1620.16 2398.63 1620.85 Z" fill="#000000" fill-rule="nonzero" fill-opacity="1" /><path clip-path="url(#clip920)" d="M2428.97 1631.99 L2428.97 1634.07 L2409.39 1634.07 Q2409.67 1638.47 2412.03 1640.78 Q2414.41 1643.07 2418.65 1643.07 Q2421.1 1643.07 2423.39 1642.47 Q2425.71 1641.87 2427.98 1640.67 L2427.98 1644.69 Q2425.69 1645.67 2423.28 1646.17 Q2420.87 1646.68 2418.4 1646.68 Q2412.19 1646.68 2408.56 1643.07 Q2404.95 1639.46 2404.95 1633.3 Q2404.95 1626.94 2408.37 1623.21 Q2411.82 1619.46 2417.65 1619.46 Q2422.89 1619.46 2425.92 1622.84 Q2428.97 1626.2 2428.97 1631.99 M2424.71 1630.74 Q2424.67 1627.24 2422.75 1625.16 Q2420.85 1623.07 2417.7 1623.07 Q2414.14 1623.07 2411.98 1625.09 Q2409.85 1627.1 2409.53 1630.76 L2424.71 1630.74 Z" fill="#000000" fill-rule="nonzero" fill-opacity="1" /><path clip-path="url(#clip920)" d="M2450.99 1624.07 Q2450.27 1623.65 2449.41 1623.47 Q2448.58 1623.26 2447.56 1623.26 Q2443.95 1623.26 2442.01 1625.62 Q2440.08 1627.96 2440.08 1632.36 L2440.08 1646.01 L2435.8 1646.01 L2435.8 1620.09 L2440.08 1620.09 L2440.08 1624.11 Q2441.43 1621.75 2443.58 1620.62 Q2445.73 1619.46 2448.81 1619.46 Q2449.25 1619.46 2449.78 1619.53 Q2450.32 1619.58 2450.96 1619.69 L2450.99 1624.07 Z" fill="#000000" fill-rule="nonzero" fill-opacity="1" /><path clip-path="url(#clip920)" d="M2452.4 1620.09 L2456.91 1620.09 L2465.02 1641.85 L2473.12 1620.09 L2477.63 1620.09 L2467.91 1646.01 L2462.12 1646.01 L2452.4 1620.09 Z" fill="#000000" fill-rule="nonzero" fill-opacity="1" /><path clip-path="url(#clip920)" d="M2505.69 1631.99 L2505.69 1634.07 L2486.1 1634.07 Q2486.38 1638.47 2488.74 1640.78 Q2491.13 1643.07 2495.36 1643.07 Q2497.82 1643.07 2500.11 1642.47 Q2502.42 1641.87 2504.69 1640.67 L2504.69 1644.69 Q2502.4 1645.67 2499.99 1646.17 Q2497.58 1646.68 2495.11 1646.68 Q2488.9 1646.68 2485.27 1643.07 Q2481.66 1639.46 2481.66 1633.3 Q2481.66 1626.94 2485.08 1623.21 Q2488.53 1619.46 2494.37 1619.46 Q2499.6 1619.46 2502.63 1622.84 Q2505.69 1626.2 2505.69 1631.99 M2501.43 1630.74 Q2501.38 1627.24 2499.46 1625.16 Q2497.56 1623.07 2494.41 1623.07 Q2490.85 1623.07 2488.7 1625.09 Q2486.57 1627.1 2486.24 1630.76 L2501.43 1630.74 Z" fill="#000000" fill-rule="nonzero" fill-opacity="1" /><path clip-path="url(#clip920)" d="M2529.74 1624.02 L2529.74 1609.99 L2534 1609.99 L2534 1646.01 L2529.74 1646.01 L2529.74 1642.12 Q2528.39 1644.44 2526.33 1645.57 Q2524.3 1646.68 2521.43 1646.68 Q2516.73 1646.68 2513.76 1642.93 Q2510.83 1639.18 2510.83 1633.07 Q2510.83 1626.96 2513.76 1623.21 Q2516.73 1619.46 2521.43 1619.46 Q2524.3 1619.46 2526.33 1620.6 Q2528.39 1621.71 2529.74 1624.02 M2515.22 1633.07 Q2515.22 1637.77 2517.14 1640.46 Q2519.09 1643.12 2522.47 1643.12 Q2525.85 1643.12 2527.79 1640.46 Q2529.74 1637.77 2529.74 1633.07 Q2529.74 1628.37 2527.79 1625.71 Q2525.85 1623.03 2522.47 1623.03 Q2519.09 1623.03 2517.14 1625.71 Q2515.22 1628.37 2515.22 1633.07 Z" fill="#000000" fill-rule="nonzero" fill-opacity="1" /></svg>
