<?xml version="1.0" encoding="utf-8"?>
<svg xmlns="http://www.w3.org/2000/svg" xmlns:xlink="http://www.w3.org/1999/xlink" width="672" height="480" viewBox="0 0 2688 1920">
<defs>
  <clipPath id="clip670">
    <rect x="0" y="0" width="2688" height="1920"/>
  </clipPath>
</defs>
<path clip-path="url(#clip670)" d="M0 1920 L2688 1920 L2688 -4.26326e-14 L0 -4.26326e-14  Z" fill="#ffffff" fill-rule="evenodd" fill-opacity="1"/>
<defs>
  <clipPath id="clip671">
    <rect x="345" y="127" width="2296" height="1607"/>
  </clipPath>
</defs>
<path clip-path="url(#clip670)" d="M345.816 1734.12 L2640.76 1734.12 L2640.76 127.792 L345.816 127.792  Z" fill="#ffffff" fill-rule="evenodd" fill-opacity="1"/>
<polyline clip-path="url(#clip671)" style="stroke:#000000; stroke-linecap:round; stroke-linejoin:round; stroke-width:2; stroke-opacity:0.1; fill:none" points="410.767,1734.12 410.767,127.792 "/>
<polyline clip-path="url(#clip671)" style="stroke:#000000; stroke-linecap:round; stroke-linejoin:round; stroke-width:2; stroke-opacity:0.1; fill:none" points="891.886,1734.12 891.886,127.792 "/>
<polyline clip-path="url(#clip671)" style="stroke:#000000; stroke-linecap:round; stroke-linejoin:round; stroke-width:2; stroke-opacity:0.1; fill:none" points="1373.01,1734.12 1373.01,127.792 "/>
<polyline clip-path="url(#clip671)" style="stroke:#000000; stroke-linecap:round; stroke-linejoin:round; stroke-width:2; stroke-opacity:0.1; fill:none" points="1854.13,1734.12 1854.13,127.792 "/>
<polyline clip-path="url(#clip671)" style="stroke:#000000; stroke-linecap:round; stroke-linejoin:round; stroke-width:2; stroke-opacity:0.1; fill:none" points="2335.25,1734.12 2335.25,127.792 "/>
<polyline clip-path="url(#clip671)" style="stroke:#000000; stroke-linecap:round; stroke-linejoin:round; stroke-width:2; stroke-opacity:0.1; fill:none" points="345.816,1688.65 2640.76,1688.65 "/>
<polyline clip-path="url(#clip671)" style="stroke:#000000; stroke-linecap:round; stroke-linejoin:round; stroke-width:2; stroke-opacity:0.1; fill:none" points="345.816,1297.91 2640.76,1297.91 "/>
<polyline clip-path="url(#clip671)" style="stroke:#000000; stroke-linecap:round; stroke-linejoin:round; stroke-width:2; stroke-opacity:0.1; fill:none" points="345.816,907.172 2640.76,907.172 "/>
<polyline clip-path="url(#clip671)" style="stroke:#000000; stroke-linecap:round; stroke-linejoin:round; stroke-width:2; stroke-opacity:0.1; fill:none" points="345.816,516.43 2640.76,516.43 "/>
<polyline clip-path="url(#clip670)" style="stroke:#000000; stroke-linecap:round; stroke-linejoin:round; stroke-width:4; stroke-opacity:1; fill:none" points="345.816,1734.12 2640.76,1734.12 "/>
<polyline clip-path="url(#clip670)" style="stroke:#000000; stroke-linecap:round; stroke-linejoin:round; stroke-width:4; stroke-opacity:1; fill:none" points="410.767,1734.12 410.767,1715.22 "/>
<polyline clip-path="url(#clip670)" style="stroke:#000000; stroke-linecap:round; stroke-linejoin:round; stroke-width:4; stroke-opacity:1; fill:none" points="891.886,1734.12 891.886,1715.22 "/>
<polyline clip-path="url(#clip670)" style="stroke:#000000; stroke-linecap:round; stroke-linejoin:round; stroke-width:4; stroke-opacity:1; fill:none" points="1373.01,1734.12 1373.01,1715.22 "/>
<polyline clip-path="url(#clip670)" style="stroke:#000000; stroke-linecap:round; stroke-linejoin:round; stroke-width:4; stroke-opacity:1; fill:none" points="1854.13,1734.12 1854.13,1715.22 "/>
<polyline clip-path="url(#clip670)" style="stroke:#000000; stroke-linecap:round; stroke-linejoin:round; stroke-width:4; stroke-opacity:1; fill:none" points="2335.25,1734.12 2335.25,1715.22 "/>
<path clip-path="url(#clip670)" d="M410.767 1767.34 Q407.156 1767.34 405.327 1770.9 Q403.522 1774.45 403.522 1781.58 Q403.522 1788.68 405.327 1792.25 Q407.156 1795.79 410.767 1795.79 Q414.401 1795.79 416.207 1792.25 Q418.035 1788.68 418.035 1781.58 Q418.035 1774.45 416.207 1770.9 Q414.401 1767.34 410.767 1767.34 M410.767 1763.64 Q416.577 1763.64 419.633 1768.24 Q422.711 1772.83 422.711 1781.58 Q422.711 1790.3 419.633 1794.91 Q416.577 1799.49 410.767 1799.49 Q404.957 1799.49 401.878 1794.91 Q398.823 1790.3 398.823 1781.58 Q398.823 1772.83 401.878 1768.24 Q404.957 1763.64 410.767 1763.64 Z" fill="#000000" fill-rule="nonzero" fill-opacity="1" /><path clip-path="url(#clip670)" d="M870.66 1794.89 L886.979 1794.89 L886.979 1798.82 L865.035 1798.82 L865.035 1794.89 Q867.697 1792.13 872.28 1787.5 Q876.887 1782.85 878.067 1781.51 Q880.312 1778.98 881.192 1777.25 Q882.095 1775.49 882.095 1773.8 Q882.095 1771.04 880.15 1769.31 Q878.229 1767.57 875.127 1767.57 Q872.928 1767.57 870.475 1768.34 Q868.044 1769.1 865.266 1770.65 L865.266 1765.93 Q868.09 1764.79 870.544 1764.21 Q872.998 1763.64 875.035 1763.64 Q880.405 1763.64 883.599 1766.32 Q886.794 1769.01 886.794 1773.5 Q886.794 1775.63 885.984 1777.55 Q885.197 1779.45 883.09 1782.04 Q882.512 1782.71 879.41 1785.93 Q876.308 1789.12 870.66 1794.89 Z" fill="#000000" fill-rule="nonzero" fill-opacity="1" /><path clip-path="url(#clip670)" d="M906.794 1767.34 Q903.183 1767.34 901.354 1770.9 Q899.548 1774.45 899.548 1781.58 Q899.548 1788.68 901.354 1792.25 Q903.183 1795.79 906.794 1795.79 Q910.428 1795.79 912.234 1792.25 Q914.062 1788.68 914.062 1781.58 Q914.062 1774.45 912.234 1770.9 Q910.428 1767.34 906.794 1767.34 M906.794 1763.64 Q912.604 1763.64 915.66 1768.24 Q918.738 1772.83 918.738 1781.58 Q918.738 1790.3 915.66 1794.91 Q912.604 1799.49 906.794 1799.49 Q900.984 1799.49 897.905 1794.91 Q894.849 1790.3 894.849 1781.58 Q894.849 1772.83 897.905 1768.24 Q900.984 1763.64 906.794 1763.64 Z" fill="#000000" fill-rule="nonzero" fill-opacity="1" /><path clip-path="url(#clip670)" d="M1361.18 1768.34 L1349.37 1786.78 L1361.18 1786.78 L1361.18 1768.34 M1359.95 1764.26 L1365.83 1764.26 L1365.83 1786.78 L1370.76 1786.78 L1370.76 1790.67 L1365.83 1790.67 L1365.83 1798.82 L1361.18 1798.82 L1361.18 1790.67 L1345.58 1790.67 L1345.58 1786.16 L1359.95 1764.26 Z" fill="#000000" fill-rule="nonzero" fill-opacity="1" /><path clip-path="url(#clip670)" d="M1388.49 1767.34 Q1384.88 1767.34 1383.05 1770.9 Q1381.25 1774.45 1381.25 1781.58 Q1381.25 1788.68 1383.05 1792.25 Q1384.88 1795.79 1388.49 1795.79 Q1392.13 1795.79 1393.93 1792.25 Q1395.76 1788.68 1395.76 1781.58 Q1395.76 1774.45 1393.93 1770.9 Q1392.13 1767.34 1388.49 1767.34 M1388.49 1763.64 Q1394.3 1763.64 1397.36 1768.24 Q1400.44 1772.83 1400.44 1781.58 Q1400.44 1790.3 1397.36 1794.91 Q1394.3 1799.49 1388.49 1799.49 Q1382.68 1799.49 1379.6 1794.91 Q1376.55 1790.3 1376.55 1781.58 Q1376.55 1772.83 1379.6 1768.24 Q1382.68 1763.64 1388.49 1763.64 Z" fill="#000000" fill-rule="nonzero" fill-opacity="1" /><path clip-path="url(#clip670)" d="M1839.53 1779.68 Q1836.38 1779.68 1834.53 1781.83 Q1832.7 1783.98 1832.7 1787.73 Q1832.7 1791.46 1834.53 1793.64 Q1836.38 1795.79 1839.53 1795.79 Q1842.68 1795.79 1844.51 1793.64 Q1846.36 1791.46 1846.36 1787.73 Q1846.36 1783.98 1844.51 1781.83 Q1842.68 1779.68 1839.53 1779.68 M1848.81 1765.02 L1848.81 1769.28 Q1847.05 1768.45 1845.25 1768.01 Q1843.47 1767.57 1841.71 1767.57 Q1837.08 1767.57 1834.62 1770.7 Q1832.19 1773.82 1831.85 1780.14 Q1833.21 1778.13 1835.27 1777.06 Q1837.33 1775.97 1839.81 1775.97 Q1845.02 1775.97 1848.03 1779.15 Q1851.06 1782.29 1851.06 1787.73 Q1851.06 1793.06 1847.91 1796.27 Q1844.76 1799.49 1839.53 1799.49 Q1833.54 1799.49 1830.36 1794.91 Q1827.19 1790.3 1827.19 1781.58 Q1827.19 1773.38 1831.08 1768.52 Q1834.97 1763.64 1841.52 1763.64 Q1843.28 1763.64 1845.06 1763.98 Q1846.87 1764.33 1848.81 1765.02 Z" fill="#000000" fill-rule="nonzero" fill-opacity="1" /><path clip-path="url(#clip670)" d="M1869.11 1767.34 Q1865.5 1767.34 1863.67 1770.9 Q1861.87 1774.45 1861.87 1781.58 Q1861.87 1788.68 1863.67 1792.25 Q1865.5 1795.79 1869.11 1795.79 Q1872.75 1795.79 1874.55 1792.25 Q1876.38 1788.68 1876.38 1781.58 Q1876.38 1774.45 1874.55 1770.9 Q1872.75 1767.34 1869.11 1767.34 M1869.11 1763.64 Q1874.92 1763.64 1877.98 1768.24 Q1881.06 1772.83 1881.06 1781.58 Q1881.06 1790.3 1877.98 1794.91 Q1874.92 1799.49 1869.11 1799.49 Q1863.3 1799.49 1860.23 1794.91 Q1857.17 1790.3 1857.17 1781.58 Q1857.17 1772.83 1860.23 1768.24 Q1863.3 1763.64 1869.11 1763.64 Z" fill="#000000" fill-rule="nonzero" fill-opacity="1" /><path clip-path="url(#clip670)" d="M2320.12 1782.41 Q2316.78 1782.41 2314.86 1784.19 Q2312.97 1785.97 2312.97 1789.1 Q2312.97 1792.22 2314.86 1794.01 Q2316.78 1795.79 2320.12 1795.79 Q2323.45 1795.79 2325.37 1794.01 Q2327.29 1792.2 2327.29 1789.1 Q2327.29 1785.97 2325.37 1784.19 Q2323.47 1782.41 2320.12 1782.41 M2315.44 1780.42 Q2312.43 1779.68 2310.74 1777.62 Q2309.08 1775.56 2309.08 1772.59 Q2309.08 1768.45 2312.02 1766.04 Q2314.98 1763.64 2320.12 1763.64 Q2325.28 1763.64 2328.22 1766.04 Q2331.16 1768.45 2331.16 1772.59 Q2331.16 1775.56 2329.47 1777.62 Q2327.8 1779.68 2324.82 1780.42 Q2328.2 1781.21 2330.07 1783.5 Q2331.97 1785.79 2331.97 1789.1 Q2331.97 1794.12 2328.89 1796.81 Q2325.84 1799.49 2320.12 1799.49 Q2314.4 1799.49 2311.32 1796.81 Q2308.27 1794.12 2308.27 1789.1 Q2308.27 1785.79 2310.16 1783.5 Q2312.06 1781.21 2315.44 1780.42 M2313.73 1773.03 Q2313.73 1775.72 2315.4 1777.22 Q2317.09 1778.73 2320.12 1778.73 Q2323.13 1778.73 2324.82 1777.22 Q2326.53 1775.72 2326.53 1773.03 Q2326.53 1770.35 2324.82 1768.84 Q2323.13 1767.34 2320.12 1767.34 Q2317.09 1767.34 2315.4 1768.84 Q2313.73 1770.35 2313.73 1773.03 Z" fill="#000000" fill-rule="nonzero" fill-opacity="1" /><path clip-path="url(#clip670)" d="M2350.28 1767.34 Q2346.67 1767.34 2344.84 1770.9 Q2343.03 1774.45 2343.03 1781.58 Q2343.03 1788.68 2344.84 1792.25 Q2346.67 1795.79 2350.28 1795.79 Q2353.91 1795.79 2355.72 1792.25 Q2357.55 1788.68 2357.55 1781.58 Q2357.55 1774.45 2355.72 1770.9 Q2353.91 1767.34 2350.28 1767.34 M2350.28 1763.64 Q2356.09 1763.64 2359.15 1768.24 Q2362.22 1772.83 2362.22 1781.58 Q2362.22 1790.3 2359.15 1794.91 Q2356.09 1799.49 2350.28 1799.49 Q2344.47 1799.49 2341.39 1794.91 Q2338.34 1790.3 2338.34 1781.58 Q2338.34 1772.83 2341.39 1768.24 Q2344.47 1763.64 2350.28 1763.64 Z" fill="#000000" fill-rule="nonzero" fill-opacity="1" /><path clip-path="url(#clip670)" d="M1439.53 1841.06 L1439.53 1878.02 L1447.29 1878.02 Q1457.13 1878.02 1461.68 1873.56 Q1466.26 1869.11 1466.26 1859.49 Q1466.26 1849.94 1461.68 1845.52 Q1457.13 1841.06 1447.29 1841.06 L1439.53 1841.06 M1433.1 1835.78 L1446.31 1835.78 Q1460.12 1835.78 1466.58 1841.54 Q1473.04 1847.27 1473.04 1859.49 Q1473.04 1871.78 1466.55 1877.54 Q1460.06 1883.3 1446.31 1883.3 L1433.1 1883.3 L1433.1 1835.78 Z" fill="#000000" fill-rule="nonzero" fill-opacity="1" /><path clip-path="url(#clip670)" d="M1499.24 1865.38 Q1492.14 1865.38 1489.4 1867 Q1486.67 1868.63 1486.67 1872.54 Q1486.67 1875.66 1488.7 1877.51 Q1490.77 1879.32 1494.3 1879.32 Q1499.17 1879.32 1502.1 1875.88 Q1505.06 1872.42 1505.06 1866.69 L1505.06 1865.38 L1499.24 1865.38 M1510.92 1862.96 L1510.92 1883.3 L1505.06 1883.3 L1505.06 1877.89 Q1503.06 1881.14 1500.07 1882.7 Q1497.07 1884.22 1492.74 1884.22 Q1487.27 1884.22 1484.02 1881.17 Q1480.81 1878.08 1480.81 1872.92 Q1480.81 1866.91 1484.82 1863.85 Q1488.86 1860.8 1496.85 1860.8 L1505.06 1860.8 L1505.06 1860.23 Q1505.06 1856.18 1502.39 1853.99 Q1499.75 1851.76 1494.94 1851.76 Q1491.89 1851.76 1488.99 1852.49 Q1486.09 1853.22 1483.42 1854.69 L1483.42 1849.28 Q1486.63 1848.03 1489.66 1847.43 Q1492.68 1846.79 1495.55 1846.79 Q1503.28 1846.79 1507.1 1850.8 Q1510.92 1854.81 1510.92 1862.96 Z" fill="#000000" fill-rule="nonzero" fill-opacity="1" /><path clip-path="url(#clip670)" d="M1537.81 1886.61 Q1535.33 1892.98 1532.98 1894.92 Q1530.62 1896.86 1526.67 1896.86 L1522 1896.86 L1522 1891.96 L1525.43 1891.96 Q1527.85 1891.96 1529.19 1890.81 Q1530.53 1889.67 1532.15 1885.4 L1533.2 1882.73 L1518.78 1847.65 L1524.99 1847.65 L1536.13 1875.53 L1547.27 1847.65 L1553.47 1847.65 L1537.81 1886.61 Z" fill="#000000" fill-rule="nonzero" fill-opacity="1" /><polyline clip-path="url(#clip670)" style="stroke:#000000; stroke-linecap:round; stroke-linejoin:round; stroke-width:4; stroke-opacity:1; fill:none" points="345.816,1734.12 345.816,127.792 "/>
<polyline clip-path="url(#clip670)" style="stroke:#000000; stroke-linecap:round; stroke-linejoin:round; stroke-width:4; stroke-opacity:1; fill:none" points="345.816,1688.65 364.713,1688.65 "/>
<polyline clip-path="url(#clip670)" style="stroke:#000000; stroke-linecap:round; stroke-linejoin:round; stroke-width:4; stroke-opacity:1; fill:none" points="345.816,1297.91 364.713,1297.91 "/>
<polyline clip-path="url(#clip670)" style="stroke:#000000; stroke-linecap:round; stroke-linejoin:round; stroke-width:4; stroke-opacity:1; fill:none" points="345.816,907.172 364.713,907.172 "/>
<polyline clip-path="url(#clip670)" style="stroke:#000000; stroke-linecap:round; stroke-linejoin:round; stroke-width:4; stroke-opacity:1; fill:none" points="345.816,516.43 364.713,516.43 "/>
<path clip-path="url(#clip670)" d="M293.551 1674.45 Q289.94 1674.45 288.112 1678.02 Q286.306 1681.56 286.306 1688.69 Q286.306 1695.8 288.112 1699.36 Q289.94 1702.9 293.551 1702.9 Q297.186 1702.9 298.991 1699.36 Q300.82 1695.8 300.82 1688.69 Q300.82 1681.56 298.991 1678.02 Q297.186 1674.45 293.551 1674.45 M293.551 1670.75 Q299.362 1670.75 302.417 1675.36 Q305.496 1679.94 305.496 1688.69 Q305.496 1697.42 302.417 1702.02 Q299.362 1706.61 293.551 1706.61 Q287.741 1706.61 284.663 1702.02 Q281.607 1697.42 281.607 1688.69 Q281.607 1679.94 284.663 1675.36 Q287.741 1670.75 293.551 1670.75 Z" fill="#000000" fill-rule="nonzero" fill-opacity="1" /><path clip-path="url(#clip670)" d="M118.622 1317.71 L126.261 1317.71 L126.261 1291.34 L117.951 1293.01 L117.951 1288.75 L126.214 1287.08 L130.89 1287.08 L130.89 1317.71 L138.529 1317.71 L138.529 1321.64 L118.622 1321.64 L118.622 1317.71 Z" fill="#000000" fill-rule="nonzero" fill-opacity="1" /><path clip-path="url(#clip670)" d="M147.974 1315.76 L152.858 1315.76 L152.858 1321.64 L147.974 1321.64 L147.974 1315.76 Z" fill="#000000" fill-rule="nonzero" fill-opacity="1" /><path clip-path="url(#clip670)" d="M173.043 1290.16 Q169.432 1290.16 167.603 1293.72 Q165.798 1297.27 165.798 1304.4 Q165.798 1311.5 167.603 1315.07 Q169.432 1318.61 173.043 1318.61 Q176.677 1318.61 178.483 1315.07 Q180.311 1311.5 180.311 1304.4 Q180.311 1297.27 178.483 1293.72 Q176.677 1290.16 173.043 1290.16 M173.043 1286.46 Q178.853 1286.46 181.909 1291.06 Q184.987 1295.65 184.987 1304.4 Q184.987 1313.12 181.909 1317.73 Q178.853 1322.31 173.043 1322.31 Q167.233 1322.31 164.154 1317.73 Q161.098 1313.12 161.098 1304.4 Q161.098 1295.65 164.154 1291.06 Q167.233 1286.46 173.043 1286.46 Z" fill="#000000" fill-rule="nonzero" fill-opacity="1" /><path clip-path="url(#clip670)" d="M221.376 1296.18 L210.797 1306.8 L221.376 1317.38 L218.621 1320.18 L207.996 1309.56 L197.371 1320.18 L194.64 1317.38 L205.195 1306.8 L194.64 1296.18 L197.371 1293.38 L207.996 1304 L218.621 1293.38 L221.376 1296.18 Z" fill="#000000" fill-rule="nonzero" fill-opacity="1" /><path clip-path="url(#clip670)" d="M233.737 1317.71 L241.376 1317.71 L241.376 1291.34 L233.066 1293.01 L233.066 1288.75 L241.33 1287.08 L246.005 1287.08 L246.005 1317.71 L253.644 1317.71 L253.644 1321.64 L233.737 1321.64 L233.737 1317.71 Z" fill="#000000" fill-rule="nonzero" fill-opacity="1" /><path clip-path="url(#clip670)" d="M273.089 1290.16 Q269.478 1290.16 267.649 1293.72 Q265.843 1297.27 265.843 1304.4 Q265.843 1311.5 267.649 1315.07 Q269.478 1318.61 273.089 1318.61 Q276.723 1318.61 278.528 1315.07 Q280.357 1311.5 280.357 1304.4 Q280.357 1297.27 278.528 1293.72 Q276.723 1290.16 273.089 1290.16 M273.089 1286.46 Q278.899 1286.46 281.954 1291.06 Q285.033 1295.65 285.033 1304.4 Q285.033 1313.12 281.954 1317.73 Q278.899 1322.31 273.089 1322.31 Q267.278 1322.31 264.2 1317.73 Q261.144 1313.12 261.144 1304.4 Q261.144 1295.65 264.2 1291.06 Q267.278 1286.46 273.089 1286.46 Z" fill="#000000" fill-rule="nonzero" fill-opacity="1" /><path clip-path="url(#clip670)" d="M297.709 1269.46 L288.117 1284.45 L297.709 1284.45 L297.709 1269.46 M296.713 1266.15 L301.49 1266.15 L301.49 1284.45 L305.496 1284.45 L305.496 1287.61 L301.49 1287.61 L301.49 1294.23 L297.709 1294.23 L297.709 1287.61 L285.033 1287.61 L285.033 1283.94 L296.713 1266.15 Z" fill="#000000" fill-rule="nonzero" fill-opacity="1" /><path clip-path="url(#clip670)" d="M121.839 926.964 L138.159 926.964 L138.159 930.899 L116.214 930.899 L116.214 926.964 Q118.876 924.209 123.46 919.58 Q128.066 914.927 129.247 913.585 Q131.492 911.061 132.372 909.325 Q133.275 907.566 133.275 905.876 Q133.275 903.122 131.33 901.386 Q129.409 899.649 126.307 899.649 Q124.108 899.649 121.654 900.413 Q119.224 901.177 116.446 902.728 L116.446 898.006 Q119.27 896.872 121.724 896.293 Q124.177 895.714 126.214 895.714 Q131.585 895.714 134.779 898.399 Q137.974 901.085 137.974 905.575 Q137.974 907.705 137.163 909.626 Q136.376 911.524 134.27 914.117 Q133.691 914.788 130.589 918.006 Q127.488 921.2 121.839 926.964 Z" fill="#000000" fill-rule="nonzero" fill-opacity="1" /><path clip-path="url(#clip670)" d="M147.974 925.02 L152.858 925.02 L152.858 930.899 L147.974 930.899 L147.974 925.02 Z" fill="#000000" fill-rule="nonzero" fill-opacity="1" /><path clip-path="url(#clip670)" d="M173.043 899.418 Q169.432 899.418 167.603 902.983 Q165.798 906.524 165.798 913.654 Q165.798 920.76 167.603 924.325 Q169.432 927.867 173.043 927.867 Q176.677 927.867 178.483 924.325 Q180.311 920.76 180.311 913.654 Q180.311 906.524 178.483 902.983 Q176.677 899.418 173.043 899.418 M173.043 895.714 Q178.853 895.714 181.909 900.321 Q184.987 904.904 184.987 913.654 Q184.987 922.381 181.909 926.987 Q178.853 931.571 173.043 931.571 Q167.233 931.571 164.154 926.987 Q161.098 922.381 161.098 913.654 Q161.098 904.904 164.154 900.321 Q167.233 895.714 173.043 895.714 Z" fill="#000000" fill-rule="nonzero" fill-opacity="1" /><path clip-path="url(#clip670)" d="M221.376 905.436 L210.797 916.061 L221.376 926.64 L218.621 929.441 L207.996 918.816 L197.371 929.441 L194.64 926.64 L205.195 916.061 L194.64 905.436 L197.371 902.636 L207.996 913.26 L218.621 902.636 L221.376 905.436 Z" fill="#000000" fill-rule="nonzero" fill-opacity="1" /><path clip-path="url(#clip670)" d="M233.737 926.964 L241.376 926.964 L241.376 900.599 L233.066 902.265 L233.066 898.006 L241.33 896.339 L246.005 896.339 L246.005 926.964 L253.644 926.964 L253.644 930.899 L233.737 930.899 L233.737 926.964 Z" fill="#000000" fill-rule="nonzero" fill-opacity="1" /><path clip-path="url(#clip670)" d="M273.089 899.418 Q269.478 899.418 267.649 902.983 Q265.843 906.524 265.843 913.654 Q265.843 920.76 267.649 924.325 Q269.478 927.867 273.089 927.867 Q276.723 927.867 278.528 924.325 Q280.357 920.76 280.357 913.654 Q280.357 906.524 278.528 902.983 Q276.723 899.418 273.089 899.418 M273.089 895.714 Q278.899 895.714 281.954 900.321 Q285.033 904.904 285.033 913.654 Q285.033 922.381 281.954 926.987 Q278.899 931.571 273.089 931.571 Q267.278 931.571 264.2 926.987 Q261.144 922.381 261.144 913.654 Q261.144 904.904 264.2 900.321 Q267.278 895.714 273.089 895.714 Z" fill="#000000" fill-rule="nonzero" fill-opacity="1" /><path clip-path="url(#clip670)" d="M297.709 878.719 L288.117 893.709 L297.709 893.709 L297.709 878.719 M296.713 875.409 L301.49 875.409 L301.49 893.709 L305.496 893.709 L305.496 896.869 L301.49 896.869 L301.49 903.489 L297.709 903.489 L297.709 896.869 L285.033 896.869 L285.033 893.201 L296.713 875.409 Z" fill="#000000" fill-rule="nonzero" fill-opacity="1" /><path clip-path="url(#clip670)" d="M131.978 521.523 Q135.335 522.241 137.21 524.51 Q139.108 526.778 139.108 530.111 Q139.108 535.227 135.589 538.028 Q132.071 540.829 125.589 540.829 Q123.413 540.829 121.099 540.389 Q118.807 539.972 116.353 539.116 L116.353 534.602 Q118.298 535.736 120.613 536.315 Q122.927 536.894 125.451 536.894 Q129.849 536.894 132.14 535.158 Q134.455 533.422 134.455 530.111 Q134.455 527.056 132.302 525.343 Q130.173 523.607 126.353 523.607 L122.326 523.607 L122.326 519.764 L126.538 519.764 Q129.988 519.764 131.816 518.398 Q133.645 517.01 133.645 514.417 Q133.645 511.755 131.747 510.343 Q129.872 508.908 126.353 508.908 Q124.432 508.908 122.233 509.324 Q120.034 509.741 117.395 510.621 L117.395 506.454 Q120.057 505.713 122.372 505.343 Q124.71 504.973 126.77 504.973 Q132.094 504.973 135.196 507.403 Q138.298 509.811 138.298 513.931 Q138.298 516.801 136.654 518.792 Q135.011 520.76 131.978 521.523 Z" fill="#000000" fill-rule="nonzero" fill-opacity="1" /><path clip-path="url(#clip670)" d="M147.974 534.278 L152.858 534.278 L152.858 540.158 L147.974 540.158 L147.974 534.278 Z" fill="#000000" fill-rule="nonzero" fill-opacity="1" /><path clip-path="url(#clip670)" d="M173.043 508.676 Q169.432 508.676 167.603 512.241 Q165.798 515.783 165.798 522.912 Q165.798 530.019 167.603 533.584 Q169.432 537.125 173.043 537.125 Q176.677 537.125 178.483 533.584 Q180.311 530.019 180.311 522.912 Q180.311 515.783 178.483 512.241 Q176.677 508.676 173.043 508.676 M173.043 504.973 Q178.853 504.973 181.909 509.579 Q184.987 514.162 184.987 522.912 Q184.987 531.639 181.909 536.246 Q178.853 540.829 173.043 540.829 Q167.233 540.829 164.154 536.246 Q161.098 531.639 161.098 522.912 Q161.098 514.162 164.154 509.579 Q167.233 504.973 173.043 504.973 Z" fill="#000000" fill-rule="nonzero" fill-opacity="1" /><path clip-path="url(#clip670)" d="M221.376 514.695 L210.797 525.32 L221.376 535.898 L218.621 538.699 L207.996 528.074 L197.371 538.699 L194.64 535.898 L205.195 525.32 L194.64 514.695 L197.371 511.894 L207.996 522.519 L218.621 511.894 L221.376 514.695 Z" fill="#000000" fill-rule="nonzero" fill-opacity="1" /><path clip-path="url(#clip670)" d="M233.737 536.222 L241.376 536.222 L241.376 509.857 L233.066 511.524 L233.066 507.264 L241.33 505.598 L246.005 505.598 L246.005 536.222 L253.644 536.222 L253.644 540.158 L233.737 540.158 L233.737 536.222 Z" fill="#000000" fill-rule="nonzero" fill-opacity="1" /><path clip-path="url(#clip670)" d="M273.089 508.676 Q269.478 508.676 267.649 512.241 Q265.843 515.783 265.843 522.912 Q265.843 530.019 267.649 533.584 Q269.478 537.125 273.089 537.125 Q276.723 537.125 278.528 533.584 Q280.357 530.019 280.357 522.912 Q280.357 515.783 278.528 512.241 Q276.723 508.676 273.089 508.676 M273.089 504.973 Q278.899 504.973 281.954 509.579 Q285.033 514.162 285.033 522.912 Q285.033 531.639 281.954 536.246 Q278.899 540.829 273.089 540.829 Q267.278 540.829 264.2 536.246 Q261.144 531.639 261.144 522.912 Q261.144 514.162 264.2 509.579 Q267.278 504.973 273.089 504.973 Z" fill="#000000" fill-rule="nonzero" fill-opacity="1" /><path clip-path="url(#clip670)" d="M297.709 487.977 L288.117 502.967 L297.709 502.967 L297.709 487.977 M296.713 484.667 L301.49 484.667 L301.49 502.967 L305.496 502.967 L305.496 506.127 L301.49 506.127 L301.49 512.747 L297.709 512.747 L297.709 506.127 L285.033 506.127 L285.033 502.459 L296.713 484.667 Z" fill="#000000" fill-rule="nonzero" fill-opacity="1" /><path clip-path="url(#clip670)" d="M20.4523 1090.78 L44.1009 1099.5 L44.1009 1082.03 L20.4523 1090.78 M14.1184 1094.41 L14.1184 1087.12 L61.6384 1069.01 L61.6384 1075.69 L49.4481 1080.02 L49.4481 1101.44 L61.6384 1105.77 L61.6384 1112.55 L14.1184 1094.41 Z" fill="#000000" fill-rule="nonzero" fill-opacity="1" /><path clip-path="url(#clip670)" d="M43.8463 1036.74 Q37.3851 1036.74 33.7248 1039.41 Q30.0327 1042.05 30.0327 1046.7 Q30.0327 1051.35 33.7248 1054.02 Q37.3851 1056.66 43.8463 1056.66 Q50.3075 1056.66 53.9996 1054.02 Q57.6599 1051.35 57.6599 1046.7 Q57.6599 1042.05 53.9996 1039.41 Q50.3075 1036.74 43.8463 1036.74 M31.4013 1056.66 Q28.2185 1054.82 26.6907 1052.01 Q25.1311 1049.18 25.1311 1045.27 Q25.1311 1038.77 30.2873 1034.73 Q35.4436 1030.66 43.8463 1030.66 Q52.249 1030.66 57.4052 1034.73 Q62.5615 1038.77 62.5615 1045.27 Q62.5615 1049.18 61.0337 1052.01 Q59.4741 1054.82 56.2912 1056.66 L61.6384 1056.66 L61.6384 1062.55 L12.1132 1062.55 L12.1132 1056.66 L31.4013 1056.66 Z" fill="#000000" fill-rule="nonzero" fill-opacity="1" /><path clip-path="url(#clip670)" d="M47.5702 1021.55 L25.9905 1021.55 L25.9905 1015.7 L47.3474 1015.7 Q52.4082 1015.7 54.9545 1013.72 Q57.4689 1011.75 57.4689 1007.8 Q57.4689 1003.06 54.4452 1000.32 Q51.4215 997.556 46.2016 997.556 L25.9905 997.556 L25.9905 991.699 L61.6384 991.699 L61.6384 997.556 L56.1639 997.556 Q59.4104 999.688 61.0019 1002.52 Q62.5615 1005.32 62.5615 1009.05 Q62.5615 1015.19 58.742 1018.37 Q54.9226 1021.55 47.5702 1021.55 M25.1311 1006.82 L25.1311 1006.82 Z" fill="#000000" fill-rule="nonzero" fill-opacity="1" /><path clip-path="url(#clip670)" d="M40.1224 950.004 L61.6384 950.004 L61.6384 955.86 L40.3133 955.86 Q35.2526 955.86 32.7381 957.834 Q30.2237 959.807 30.2237 963.754 Q30.2237 968.496 33.2474 971.234 Q36.2711 973.971 41.491 973.971 L61.6384 973.971 L61.6384 979.859 L25.9905 979.859 L25.9905 973.971 L31.5287 973.971 Q28.314 971.87 26.7225 969.037 Q25.1311 966.173 25.1311 962.449 Q25.1311 956.306 28.9505 953.155 Q32.7381 950.004 40.1224 950.004 Z" fill="#000000" fill-rule="nonzero" fill-opacity="1" /><path clip-path="url(#clip670)" d="M31.4013 914.865 L12.1132 914.865 L12.1132 909.009 L61.6384 909.009 L61.6384 914.865 L56.2912 914.865 Q59.4741 916.711 61.0337 919.544 Q62.5615 922.345 62.5615 926.292 Q62.5615 932.753 57.4052 936.827 Q52.249 940.869 43.8463 940.869 Q35.4436 940.869 30.2873 936.827 Q25.1311 932.753 25.1311 926.292 Q25.1311 922.345 26.6907 919.544 Q28.2185 916.711 31.4013 914.865 M43.8463 934.822 Q50.3075 934.822 53.9996 932.18 Q57.6599 929.506 57.6599 924.859 Q57.6599 920.212 53.9996 917.539 Q50.3075 914.865 43.8463 914.865 Q37.3851 914.865 33.7248 917.539 Q30.0327 920.212 30.0327 924.859 Q30.0327 929.506 33.7248 932.18 Q37.3851 934.822 43.8463 934.822 Z" fill="#000000" fill-rule="nonzero" fill-opacity="1" /><path clip-path="url(#clip670)" d="M43.719 880.745 Q43.719 887.843 45.3422 890.58 Q46.9655 893.317 50.8804 893.317 Q53.9996 893.317 55.8457 891.28 Q57.6599 889.211 57.6599 885.678 Q57.6599 880.809 54.2224 877.88 Q50.7531 874.92 45.0239 874.92 L43.719 874.92 L43.719 880.745 M41.3 869.064 L61.6384 869.064 L61.6384 874.92 L56.2276 874.92 Q59.4741 876.926 61.0337 879.918 Q62.5615 882.909 62.5615 887.238 Q62.5615 892.713 59.5059 895.959 Q56.4186 899.174 51.2623 899.174 Q45.2467 899.174 42.1912 895.163 Q39.1357 891.121 39.1357 883.132 L39.1357 874.92 L38.5628 874.92 Q34.5205 874.92 32.3244 877.594 Q30.0964 880.236 30.0964 885.042 Q30.0964 888.097 30.8284 890.994 Q31.5605 893.89 33.0246 896.564 L27.6137 896.564 Q26.3724 893.349 25.7677 890.325 Q25.1311 887.302 25.1311 884.437 Q25.1311 876.703 29.1415 872.883 Q33.1519 869.064 41.3 869.064 Z" fill="#000000" fill-rule="nonzero" fill-opacity="1" /><path clip-path="url(#clip670)" d="M40.1224 827.369 L61.6384 827.369 L61.6384 833.225 L40.3133 833.225 Q35.2526 833.225 32.7381 835.198 Q30.2237 837.172 30.2237 841.119 Q30.2237 845.861 33.2474 848.598 Q36.2711 851.335 41.491 851.335 L61.6384 851.335 L61.6384 857.224 L25.9905 857.224 L25.9905 851.335 L31.5287 851.335 Q28.314 849.235 26.7225 846.402 Q25.1311 843.537 25.1311 839.814 Q25.1311 833.671 28.9505 830.52 Q32.7381 827.369 40.1224 827.369 Z" fill="#000000" fill-rule="nonzero" fill-opacity="1" /><path clip-path="url(#clip670)" d="M27.3591 790.034 L32.8336 790.034 Q31.465 792.516 30.7966 795.031 Q30.0964 797.513 30.0964 800.06 Q30.0964 805.757 33.7248 808.908 Q37.3214 812.059 43.8463 812.059 Q50.3711 812.059 53.9996 808.908 Q57.5962 805.757 57.5962 800.06 Q57.5962 797.513 56.9278 795.031 Q56.2276 792.516 54.859 790.034 L60.2698 790.034 Q61.4156 792.485 61.9886 795.126 Q62.5615 797.736 62.5615 800.696 Q62.5615 808.749 57.5007 813.491 Q52.44 818.234 43.8463 818.234 Q35.1253 818.234 30.1282 813.46 Q25.1311 808.653 25.1311 800.314 Q25.1311 797.609 25.704 795.031 Q26.2451 792.453 27.3591 790.034 Z" fill="#000000" fill-rule="nonzero" fill-opacity="1" /><path clip-path="url(#clip670)" d="M42.3504 749.357 L45.2149 749.357 L45.2149 776.284 Q51.2623 775.902 54.4452 772.655 Q57.5962 769.377 57.5962 763.552 Q57.5962 760.179 56.7687 757.028 Q55.9411 753.845 54.2861 750.725 L59.8242 750.725 Q61.161 753.877 61.8612 757.187 Q62.5615 760.497 62.5615 763.902 Q62.5615 772.433 57.5962 777.43 Q52.631 782.395 44.1646 782.395 Q35.4117 782.395 30.2873 777.684 Q25.1311 772.942 25.1311 764.921 Q25.1311 757.728 29.7781 753.558 Q34.3932 749.357 42.3504 749.357 M40.6316 755.213 Q35.8255 755.277 32.9609 757.919 Q30.0964 760.529 30.0964 764.857 Q30.0964 769.759 32.8654 772.719 Q35.6345 775.647 40.6634 776.093 L40.6316 755.213 Z" fill="#000000" fill-rule="nonzero" fill-opacity="1" /><path clip-path="url(#clip670)" d="M968.349 16.7545 L968.349 25.383 Q964.218 21.5346 959.518 19.6307 Q954.86 17.7268 949.594 17.7268 Q939.223 17.7268 933.714 24.0867 Q928.205 30.4061 928.205 42.3968 Q928.205 54.3469 933.714 60.7069 Q939.223 67.0263 949.594 67.0263 Q954.86 67.0263 959.518 65.1223 Q964.218 63.2184 968.349 59.3701 L968.349 67.9175 Q964.055 70.8341 959.235 72.2924 Q954.455 73.7508 949.108 73.7508 Q935.375 73.7508 927.476 65.3654 Q919.577 56.9395 919.577 42.3968 Q919.577 27.8135 927.476 19.4281 Q935.375 11.0023 949.108 11.0023 Q954.536 11.0023 959.316 12.4606 Q964.137 13.8784 968.349 16.7545 Z" fill="#000000" fill-rule="nonzero" fill-opacity="1" /><path clip-path="url(#clip670)" d="M998.245 32.4315 Q992.25 32.4315 988.766 37.1306 Q985.282 41.7891 985.282 49.9314 Q985.282 58.0738 988.725 62.7728 Q992.209 67.4314 998.245 67.4314 Q1004.2 67.4314 1007.68 62.7323 Q1011.17 58.0333 1011.17 49.9314 Q1011.17 41.8701 1007.68 37.1711 Q1004.2 32.4315 998.245 32.4315 M998.245 26.1121 Q1007.97 26.1121 1013.52 32.4315 Q1019.07 38.7509 1019.07 49.9314 Q1019.07 61.0714 1013.52 67.4314 Q1007.97 73.7508 998.245 73.7508 Q988.482 73.7508 982.933 67.4314 Q977.423 61.0714 977.423 49.9314 Q977.423 38.7509 982.933 32.4315 Q988.482 26.1121 998.245 26.1121 Z" fill="#000000" fill-rule="nonzero" fill-opacity="1" /><path clip-path="url(#clip670)" d="M1038.63 65.7705 L1038.63 89.8329 L1031.14 89.8329 L1031.14 27.2059 L1038.63 27.2059 L1038.63 34.0924 Q1040.98 30.0415 1044.55 28.0971 Q1048.15 26.1121 1053.13 26.1121 Q1061.4 26.1121 1066.54 32.6746 Q1071.73 39.2371 1071.73 49.9314 Q1071.73 60.6258 1066.54 67.1883 Q1061.4 73.7508 1053.13 73.7508 Q1048.15 73.7508 1044.55 71.8063 Q1040.98 69.8214 1038.63 65.7705 M1063.99 49.9314 Q1063.99 41.7081 1060.59 37.0496 Q1057.23 32.3505 1051.31 32.3505 Q1045.4 32.3505 1041.99 37.0496 Q1038.63 41.7081 1038.63 49.9314 Q1038.63 58.1548 1041.99 62.8538 Q1045.4 67.5124 1051.31 67.5124 Q1057.23 67.5124 1060.59 62.8538 Q1063.99 58.1548 1063.99 49.9314 Z" fill="#000000" fill-rule="nonzero" fill-opacity="1" /><path clip-path="url(#clip670)" d="M1122.89 48.0275 L1122.89 51.6733 L1088.62 51.6733 Q1089.11 59.3701 1093.24 63.421 Q1097.41 67.4314 1104.82 67.4314 Q1109.12 67.4314 1113.13 66.3781 Q1117.18 65.3249 1121.15 63.2184 L1121.15 70.267 Q1117.14 71.9684 1112.93 72.8596 Q1108.71 73.7508 1104.38 73.7508 Q1093.52 73.7508 1087.16 67.4314 Q1080.84 61.1119 1080.84 50.3365 Q1080.84 39.1965 1086.84 32.6746 Q1092.87 26.1121 1103.08 26.1121 Q1112.24 26.1121 1117.54 32.0264 Q1122.89 37.9003 1122.89 48.0275 M1115.44 45.84 Q1115.36 39.7232 1111.99 36.0774 Q1108.67 32.4315 1103.16 32.4315 Q1096.93 32.4315 1093.16 35.9558 Q1089.43 39.4801 1088.86 45.8805 L1115.44 45.84 Z" fill="#000000" fill-rule="nonzero" fill-opacity="1" /><path clip-path="url(#clip670)" d="M1142.34 65.7705 L1142.34 89.8329 L1134.84 89.8329 L1134.84 27.2059 L1142.34 27.2059 L1142.34 34.0924 Q1144.69 30.0415 1148.25 28.0971 Q1151.86 26.1121 1156.84 26.1121 Q1165.1 26.1121 1170.25 32.6746 Q1175.43 39.2371 1175.43 49.9314 Q1175.43 60.6258 1170.25 67.1883 Q1165.1 73.7508 1156.84 73.7508 Q1151.86 73.7508 1148.25 71.8063 Q1144.69 69.8214 1142.34 65.7705 M1167.69 49.9314 Q1167.69 41.7081 1164.29 37.0496 Q1160.93 32.3505 1155.02 32.3505 Q1149.1 32.3505 1145.7 37.0496 Q1142.34 41.7081 1142.34 49.9314 Q1142.34 58.1548 1145.7 62.8538 Q1149.1 67.5124 1155.02 67.5124 Q1160.93 67.5124 1164.29 62.8538 Q1167.69 58.1548 1167.69 49.9314 Z" fill="#000000" fill-rule="nonzero" fill-opacity="1" /><path clip-path="url(#clip670)" d="M1205.37 32.4315 Q1199.37 32.4315 1195.89 37.1306 Q1192.4 41.7891 1192.4 49.9314 Q1192.4 58.0738 1195.85 62.7728 Q1199.33 67.4314 1205.37 67.4314 Q1211.32 67.4314 1214.81 62.7323 Q1218.29 58.0333 1218.29 49.9314 Q1218.29 41.8701 1214.81 37.1711 Q1211.32 32.4315 1205.37 32.4315 M1205.37 26.1121 Q1215.09 26.1121 1220.64 32.4315 Q1226.19 38.7509 1226.19 49.9314 Q1226.19 61.0714 1220.64 67.4314 Q1215.09 73.7508 1205.37 73.7508 Q1195.61 73.7508 1190.06 67.4314 Q1184.55 61.0714 1184.55 49.9314 Q1184.55 38.7509 1190.06 32.4315 Q1195.61 26.1121 1205.37 26.1121 Z" fill="#000000" fill-rule="nonzero" fill-opacity="1" /><path clip-path="url(#clip670)" d="M1268.4 34.0924 L1268.4 9.54393 L1275.85 9.54393 L1275.85 72.576 L1268.4 72.576 L1268.4 65.7705 Q1266.05 69.8214 1262.45 71.8063 Q1258.88 73.7508 1253.86 73.7508 Q1245.63 73.7508 1240.45 67.1883 Q1235.3 60.6258 1235.3 49.9314 Q1235.3 39.2371 1240.45 32.6746 Q1245.63 26.1121 1253.86 26.1121 Q1258.88 26.1121 1262.45 28.0971 Q1266.05 30.0415 1268.4 34.0924 M1243 49.9314 Q1243 58.1548 1246.36 62.8538 Q1249.77 67.5124 1255.68 67.5124 Q1261.59 67.5124 1265 62.8538 Q1268.4 58.1548 1268.4 49.9314 Q1268.4 41.7081 1265 37.0496 Q1261.59 32.3505 1255.68 32.3505 Q1249.77 32.3505 1246.36 37.0496 Q1243 41.7081 1243 49.9314 Z" fill="#000000" fill-rule="nonzero" fill-opacity="1" /><path clip-path="url(#clip670)" d="M1346.5 28.5427 L1346.5 35.5912 Q1343.34 33.9709 1339.94 33.1607 Q1336.54 32.3505 1332.89 32.3505 Q1327.34 32.3505 1324.55 34.0519 Q1321.79 35.7533 1321.79 39.156 Q1321.79 41.7486 1323.78 43.2475 Q1325.76 44.7058 1331.76 46.0426 L1334.31 46.6097 Q1342.25 48.3111 1345.57 51.4303 Q1348.93 54.509 1348.93 60.0587 Q1348.93 66.3781 1343.91 70.0644 Q1338.93 73.7508 1330.18 73.7508 Q1326.53 73.7508 1322.56 73.0216 Q1318.63 72.3329 1314.26 70.9151 L1314.26 63.2184 Q1318.39 65.3654 1322.4 66.4591 Q1326.41 67.5124 1330.34 67.5124 Q1335.6 67.5124 1338.44 65.73 Q1341.28 63.9071 1341.28 60.6258 Q1341.28 57.5877 1339.21 55.9673 Q1337.18 54.3469 1330.26 52.8481 L1327.66 52.2405 Q1320.74 50.7821 1317.66 47.7845 Q1314.58 44.7463 1314.58 39.4801 Q1314.58 33.0797 1319.12 29.5959 Q1323.65 26.1121 1332 26.1121 Q1336.13 26.1121 1339.78 26.7198 Q1343.42 27.3274 1346.5 28.5427 Z" fill="#000000" fill-rule="nonzero" fill-opacity="1" /><path clip-path="url(#clip670)" d="M1368.17 14.324 L1368.17 27.2059 L1383.53 27.2059 L1383.53 32.9987 L1368.17 32.9987 L1368.17 57.6282 Q1368.17 63.1779 1369.67 64.7578 Q1371.21 66.3376 1375.87 66.3376 L1383.53 66.3376 L1383.53 72.576 L1375.87 72.576 Q1367.24 72.576 1363.96 69.3758 Q1360.68 66.1351 1360.68 57.6282 L1360.68 32.9987 L1355.21 32.9987 L1355.21 27.2059 L1360.68 27.2059 L1360.68 14.324 L1368.17 14.324 Z" fill="#000000" fill-rule="nonzero" fill-opacity="1" /><path clip-path="url(#clip670)" d="M1413.95 49.7694 Q1404.92 49.7694 1401.43 51.8354 Q1397.95 53.9013 1397.95 58.8839 Q1397.95 62.8538 1400.54 65.2034 Q1403.17 67.5124 1407.67 67.5124 Q1413.87 67.5124 1417.59 63.1374 Q1421.36 58.7219 1421.36 51.4303 L1421.36 49.7694 L1413.95 49.7694 M1428.82 46.6907 L1428.82 72.576 L1421.36 72.576 L1421.36 65.6895 Q1418.81 69.8214 1415 71.8063 Q1411.19 73.7508 1405.69 73.7508 Q1398.72 73.7508 1394.59 69.8619 Q1390.49 65.9325 1390.49 59.3701 Q1390.49 51.7138 1395.6 47.825 Q1400.74 43.9361 1410.91 43.9361 L1421.36 43.9361 L1421.36 43.2069 Q1421.36 38.0623 1417.96 35.2672 Q1414.6 32.4315 1408.48 32.4315 Q1404.59 32.4315 1400.91 33.3632 Q1397.22 34.295 1393.82 36.1584 L1393.82 29.2718 Q1397.91 27.692 1401.76 26.9223 Q1405.6 26.1121 1409.25 26.1121 Q1419.09 26.1121 1423.95 31.2163 Q1428.82 36.3204 1428.82 46.6907 Z" fill="#000000" fill-rule="nonzero" fill-opacity="1" /><path clip-path="url(#clip670)" d="M1474.02 49.3643 Q1474.02 41.2625 1470.66 36.8065 Q1467.34 32.3505 1461.3 32.3505 Q1455.31 32.3505 1451.95 36.8065 Q1448.62 41.2625 1448.62 49.3643 Q1448.62 57.4256 1451.95 61.8816 Q1455.31 66.3376 1461.3 66.3376 Q1467.34 66.3376 1470.66 61.8816 Q1474.02 57.4256 1474.02 49.3643 M1481.48 66.9452 Q1481.48 78.5308 1476.33 84.1616 Q1471.19 89.8329 1460.57 89.8329 Q1456.65 89.8329 1453.16 89.2252 Q1449.68 88.6581 1446.4 87.4428 L1446.4 80.1917 Q1449.68 81.9741 1452.88 82.8248 Q1456.08 83.6755 1459.4 83.6755 Q1466.73 83.6755 1470.38 79.8271 Q1474.02 76.0193 1474.02 68.282 L1474.02 64.5957 Q1471.71 68.6061 1468.11 70.5911 Q1464.5 72.576 1459.48 72.576 Q1451.14 72.576 1446.03 66.2161 Q1440.93 59.8562 1440.93 49.3643 Q1440.93 38.832 1446.03 32.472 Q1451.14 26.1121 1459.48 26.1121 Q1464.5 26.1121 1468.11 28.0971 Q1471.71 30.082 1474.02 34.0924 L1474.02 27.2059 L1481.48 27.2059 L1481.48 66.9452 Z" fill="#000000" fill-rule="nonzero" fill-opacity="1" /><path clip-path="url(#clip670)" d="M1535.64 48.0275 L1535.64 51.6733 L1501.37 51.6733 Q1501.85 59.3701 1505.99 63.421 Q1510.16 67.4314 1517.57 67.4314 Q1521.87 67.4314 1525.88 66.3781 Q1529.93 65.3249 1533.9 63.2184 L1533.9 70.267 Q1529.89 71.9684 1525.67 72.8596 Q1521.46 73.7508 1517.13 73.7508 Q1506.27 73.7508 1499.91 67.4314 Q1493.59 61.1119 1493.59 50.3365 Q1493.59 39.1965 1499.59 32.6746 Q1505.62 26.1121 1515.83 26.1121 Q1524.98 26.1121 1530.29 32.0264 Q1535.64 37.9003 1535.64 48.0275 M1528.18 45.84 Q1528.1 39.7232 1524.74 36.0774 Q1521.42 32.4315 1515.91 32.4315 Q1509.67 32.4315 1505.9 35.9558 Q1502.18 39.4801 1501.61 45.8805 L1528.18 45.84 Z" fill="#000000" fill-rule="nonzero" fill-opacity="1" /><path clip-path="url(#clip670)" d="M1594.86 49.7694 Q1585.83 49.7694 1582.35 51.8354 Q1578.86 53.9013 1578.86 58.8839 Q1578.86 62.8538 1581.45 65.2034 Q1584.09 67.5124 1588.58 67.5124 Q1594.78 67.5124 1598.51 63.1374 Q1602.28 58.7219 1602.28 51.4303 L1602.28 49.7694 L1594.86 49.7694 M1609.73 46.6907 L1609.73 72.576 L1602.28 72.576 L1602.28 65.6895 Q1599.72 69.8214 1595.92 71.8063 Q1592.11 73.7508 1586.6 73.7508 Q1579.63 73.7508 1575.5 69.8619 Q1571.41 65.9325 1571.41 59.3701 Q1571.41 51.7138 1576.51 47.825 Q1581.66 43.9361 1591.82 43.9361 L1602.28 43.9361 L1602.28 43.2069 Q1602.28 38.0623 1598.87 35.2672 Q1595.51 32.4315 1589.39 32.4315 Q1585.5 32.4315 1581.82 33.3632 Q1578.13 34.295 1574.73 36.1584 L1574.73 29.2718 Q1578.82 27.692 1582.67 26.9223 Q1586.52 26.1121 1590.16 26.1121 Q1600.01 26.1121 1604.87 31.2163 Q1609.73 36.3204 1609.73 46.6907 Z" fill="#000000" fill-rule="nonzero" fill-opacity="1" /><path clip-path="url(#clip670)" d="M1657.65 49.9314 Q1657.65 41.7081 1654.25 37.0496 Q1650.89 32.3505 1644.97 32.3505 Q1639.06 32.3505 1635.65 37.0496 Q1632.29 41.7081 1632.29 49.9314 Q1632.29 58.1548 1635.65 62.8538 Q1639.06 67.5124 1644.97 67.5124 Q1650.89 67.5124 1654.25 62.8538 Q1657.65 58.1548 1657.65 49.9314 M1632.29 34.0924 Q1634.64 30.0415 1638.21 28.0971 Q1641.81 26.1121 1646.79 26.1121 Q1655.06 26.1121 1660.2 32.6746 Q1665.39 39.2371 1665.39 49.9314 Q1665.39 60.6258 1660.2 67.1883 Q1655.06 73.7508 1646.79 73.7508 Q1641.81 73.7508 1638.21 71.8063 Q1634.64 69.8214 1632.29 65.7705 L1632.29 72.576 L1624.8 72.576 L1624.8 9.54393 L1632.29 9.54393 L1632.29 34.0924 Z" fill="#000000" fill-rule="nonzero" fill-opacity="1" /><path clip-path="url(#clip670)" d="M1676.97 54.671 L1676.97 27.2059 L1684.43 27.2059 L1684.43 54.3874 Q1684.43 60.8284 1686.94 64.0691 Q1689.45 67.2693 1694.47 67.2693 Q1700.51 67.2693 1703.99 63.421 Q1707.52 59.5726 1707.52 52.9291 L1707.52 27.2059 L1714.97 27.2059 L1714.97 72.576 L1707.52 72.576 L1707.52 65.6084 Q1704.8 69.7404 1701.2 71.7658 Q1697.63 73.7508 1692.89 73.7508 Q1685.08 73.7508 1681.03 68.8897 Q1676.97 64.0286 1676.97 54.671 M1695.73 26.1121 L1695.73 26.1121 Z" fill="#000000" fill-rule="nonzero" fill-opacity="1" /><path clip-path="url(#clip670)" d="M1768.04 45.1919 L1768.04 72.576 L1760.58 72.576 L1760.58 45.4349 Q1760.58 38.994 1758.07 35.7938 Q1755.56 32.5936 1750.54 32.5936 Q1744.5 32.5936 1741.02 36.4419 Q1737.54 40.2903 1737.54 46.9338 L1737.54 72.576 L1730.04 72.576 L1730.04 27.2059 L1737.54 27.2059 L1737.54 34.2544 Q1740.21 30.163 1743.81 28.1376 Q1747.46 26.1121 1752.2 26.1121 Q1760.02 26.1121 1764.03 30.9732 Q1768.04 35.7938 1768.04 45.1919 Z" fill="#000000" fill-rule="nonzero" fill-opacity="1" /><path clip-path="url(#clip670)" d="M1812.76 34.0924 L1812.76 9.54393 L1820.21 9.54393 L1820.21 72.576 L1812.76 72.576 L1812.76 65.7705 Q1810.41 69.8214 1806.81 71.8063 Q1803.24 73.7508 1798.22 73.7508 Q1789.99 73.7508 1784.81 67.1883 Q1779.66 60.6258 1779.66 49.9314 Q1779.66 39.2371 1784.81 32.6746 Q1789.99 26.1121 1798.22 26.1121 Q1803.24 26.1121 1806.81 28.0971 Q1810.41 30.0415 1812.76 34.0924 M1787.36 49.9314 Q1787.36 58.1548 1790.72 62.8538 Q1794.13 67.5124 1800.04 67.5124 Q1805.95 67.5124 1809.36 62.8538 Q1812.76 58.1548 1812.76 49.9314 Q1812.76 41.7081 1809.36 37.0496 Q1805.95 32.3505 1800.04 32.3505 Q1794.13 32.3505 1790.72 37.0496 Q1787.36 41.7081 1787.36 49.9314 Z" fill="#000000" fill-rule="nonzero" fill-opacity="1" /><path clip-path="url(#clip670)" d="M1856.19 49.7694 Q1847.15 49.7694 1843.67 51.8354 Q1840.19 53.9013 1840.19 58.8839 Q1840.19 62.8538 1842.78 65.2034 Q1845.41 67.5124 1849.91 67.5124 Q1856.11 67.5124 1859.83 63.1374 Q1863.6 58.7219 1863.6 51.4303 L1863.6 49.7694 L1856.19 49.7694 M1871.05 46.6907 L1871.05 72.576 L1863.6 72.576 L1863.6 65.6895 Q1861.05 69.8214 1857.24 71.8063 Q1853.43 73.7508 1847.92 73.7508 Q1840.95 73.7508 1836.82 69.8619 Q1832.73 65.9325 1832.73 59.3701 Q1832.73 51.7138 1837.84 47.825 Q1842.98 43.9361 1853.15 43.9361 L1863.6 43.9361 L1863.6 43.2069 Q1863.6 38.0623 1860.2 35.2672 Q1856.83 32.4315 1850.72 32.4315 Q1846.83 32.4315 1843.14 33.3632 Q1839.46 34.295 1836.05 36.1584 L1836.05 29.2718 Q1840.14 27.692 1843.99 26.9223 Q1847.84 26.1121 1851.49 26.1121 Q1861.33 26.1121 1866.19 31.2163 Q1871.05 36.3204 1871.05 46.6907 Z" fill="#000000" fill-rule="nonzero" fill-opacity="1" /><path clip-path="url(#clip670)" d="M1924.12 45.1919 L1924.12 72.576 L1916.67 72.576 L1916.67 45.4349 Q1916.67 38.994 1914.15 35.7938 Q1911.64 32.5936 1906.62 32.5936 Q1900.58 32.5936 1897.1 36.4419 Q1893.62 40.2903 1893.62 46.9338 L1893.62 72.576 L1886.12 72.576 L1886.12 27.2059 L1893.62 27.2059 L1893.62 34.2544 Q1896.29 30.163 1899.9 28.1376 Q1903.54 26.1121 1908.28 26.1121 Q1916.1 26.1121 1920.11 30.9732 Q1924.12 35.7938 1924.12 45.1919 Z" fill="#000000" fill-rule="nonzero" fill-opacity="1" /><path clip-path="url(#clip670)" d="M1971.64 28.9478 L1971.64 35.9153 Q1968.48 34.1734 1965.28 33.3227 Q1962.12 32.4315 1958.88 32.4315 Q1951.63 32.4315 1947.62 37.0496 Q1943.6 41.6271 1943.6 49.9314 Q1943.6 58.2358 1947.62 62.8538 Q1951.63 67.4314 1958.88 67.4314 Q1962.12 67.4314 1965.28 66.5807 Q1968.48 65.6895 1971.64 63.9476 L1971.64 70.8341 Q1968.52 72.2924 1965.16 73.0216 Q1961.83 73.7508 1958.07 73.7508 Q1947.82 73.7508 1941.78 67.3098 Q1935.75 60.8689 1935.75 49.9314 Q1935.75 38.832 1941.82 32.472 Q1947.94 26.1121 1958.55 26.1121 Q1962 26.1121 1965.28 26.8413 Q1968.56 27.5299 1971.64 28.9478 Z" fill="#000000" fill-rule="nonzero" fill-opacity="1" /><path clip-path="url(#clip670)" d="M2023.41 48.0275 L2023.41 51.6733 L1989.14 51.6733 Q1989.62 59.3701 1993.75 63.421 Q1997.93 67.4314 2005.34 67.4314 Q2009.63 67.4314 2013.64 66.3781 Q2017.7 65.3249 2021.67 63.2184 L2021.67 70.267 Q2017.66 71.9684 2013.44 72.8596 Q2009.23 73.7508 2004.89 73.7508 Q1994.04 73.7508 1987.68 67.4314 Q1981.36 61.1119 1981.36 50.3365 Q1981.36 39.1965 1987.35 32.6746 Q1993.39 26.1121 2003.6 26.1121 Q2012.75 26.1121 2018.06 32.0264 Q2023.41 37.9003 2023.41 48.0275 M2015.95 45.84 Q2015.87 39.7232 2012.51 36.0774 Q2009.19 32.4315 2003.68 32.4315 Q1997.44 32.4315 1993.67 35.9558 Q1989.95 39.4801 1989.38 45.8805 L2015.95 45.84 Z" fill="#000000" fill-rule="nonzero" fill-opacity="1" /><path clip-path="url(#clip670)" d="M2064.56 28.5427 L2064.56 35.5912 Q2061.4 33.9709 2058 33.1607 Q2054.6 32.3505 2050.95 32.3505 Q2045.4 32.3505 2042.61 34.0519 Q2039.85 35.7533 2039.85 39.156 Q2039.85 41.7486 2041.84 43.2475 Q2043.82 44.7058 2049.82 46.0426 L2052.37 46.6097 Q2060.31 48.3111 2063.63 51.4303 Q2067 54.509 2067 60.0587 Q2067 66.3781 2061.97 70.0644 Q2056.99 73.7508 2048.24 73.7508 Q2044.59 73.7508 2040.62 73.0216 Q2036.69 72.3329 2032.32 70.9151 L2032.32 63.2184 Q2036.45 65.3654 2040.46 66.4591 Q2044.47 67.5124 2048.4 67.5124 Q2053.67 67.5124 2056.5 65.73 Q2059.34 63.9071 2059.34 60.6258 Q2059.34 57.5877 2057.27 55.9673 Q2055.25 54.3469 2048.32 52.8481 L2045.73 52.2405 Q2038.8 50.7821 2035.72 47.7845 Q2032.64 44.7463 2032.64 39.4801 Q2032.64 33.0797 2037.18 29.5959 Q2041.72 26.1121 2050.06 26.1121 Q2054.19 26.1121 2057.84 26.7198 Q2061.49 27.3274 2064.56 28.5427 Z" fill="#000000" fill-rule="nonzero" fill-opacity="1" /><circle clip-path="url(#clip671)" cx="410.767" cy="1577.14" r="14.4" fill="#009af9" fill-rule="evenodd" fill-opacity="1" stroke="#000000" stroke-opacity="1" stroke-width="3.84"/>
<circle clip-path="url(#clip671)" cx="651.327" cy="1259.56" r="14.4" fill="#009af9" fill-rule="evenodd" fill-opacity="1" stroke="#000000" stroke-opacity="1" stroke-width="3.84"/>
<circle clip-path="url(#clip671)" cx="891.886" cy="1482" r="14.4" fill="#009af9" fill-rule="evenodd" fill-opacity="1" stroke="#000000" stroke-opacity="1" stroke-width="3.84"/>
<circle clip-path="url(#clip671)" cx="1132.45" cy="1312.94" r="14.4" fill="#009af9" fill-rule="evenodd" fill-opacity="1" stroke="#000000" stroke-opacity="1" stroke-width="3.84"/>
<circle clip-path="url(#clip671)" cx="1373.01" cy="1328.02" r="14.4" fill="#009af9" fill-rule="evenodd" fill-opacity="1" stroke="#000000" stroke-opacity="1" stroke-width="3.84"/>
<circle clip-path="url(#clip671)" cx="1613.57" cy="1288.73" r="14.4" fill="#009af9" fill-rule="evenodd" fill-opacity="1" stroke="#000000" stroke-opacity="1" stroke-width="3.84"/>
<circle clip-path="url(#clip671)" cx="1854.13" cy="1688.65" r="14.4" fill="#009af9" fill-rule="evenodd" fill-opacity="1" stroke="#000000" stroke-opacity="1" stroke-width="3.84"/>
<circle clip-path="url(#clip671)" cx="2094.69" cy="1587.87" r="14.4" fill="#009af9" fill-rule="evenodd" fill-opacity="1" stroke="#000000" stroke-opacity="1" stroke-width="3.84"/>
<circle clip-path="url(#clip671)" cx="2335.25" cy="1688.65" r="14.4" fill="#009af9" fill-rule="evenodd" fill-opacity="1" stroke="#000000" stroke-opacity="1" stroke-width="3.84"/>
<circle clip-path="url(#clip671)" cx="2575.8" cy="1623.77" r="14.4" fill="#009af9" fill-rule="evenodd" fill-opacity="1" stroke="#000000" stroke-opacity="1" stroke-width="3.84"/>
<circle clip-path="url(#clip671)" cx="410.767" cy="1159.8" r="14.4" fill="#e26f46" fill-rule="evenodd" fill-opacity="1" stroke="#000000" stroke-opacity="1" stroke-width="3.84"/>
<circle clip-path="url(#clip671)" cx="651.327" cy="720.432" r="14.4" fill="#e26f46" fill-rule="evenodd" fill-opacity="1" stroke="#000000" stroke-opacity="1" stroke-width="3.84"/>
<circle clip-path="url(#clip671)" cx="891.886" cy="424.994" r="14.4" fill="#e26f46" fill-rule="evenodd" fill-opacity="1" stroke="#000000" stroke-opacity="1" stroke-width="3.84"/>
<circle clip-path="url(#clip671)" cx="1132.45" cy="173.254" r="14.4" fill="#e26f46" fill-rule="evenodd" fill-opacity="1" stroke="#000000" stroke-opacity="1" stroke-width="3.84"/>
<circle clip-path="url(#clip671)" cx="1373.01" cy="197.969" r="14.4" fill="#e26f46" fill-rule="evenodd" fill-opacity="1" stroke="#000000" stroke-opacity="1" stroke-width="3.84"/>
<circle clip-path="url(#clip671)" cx="1613.57" cy="362.005" r="14.4" fill="#e26f46" fill-rule="evenodd" fill-opacity="1" stroke="#000000" stroke-opacity="1" stroke-width="3.84"/>
<circle clip-path="url(#clip671)" cx="1854.13" cy="997.344" r="14.4" fill="#e26f46" fill-rule="evenodd" fill-opacity="1" stroke="#000000" stroke-opacity="1" stroke-width="3.84"/>
<circle clip-path="url(#clip671)" cx="2094.69" cy="974.267" r="14.4" fill="#e26f46" fill-rule="evenodd" fill-opacity="1" stroke="#000000" stroke-opacity="1" stroke-width="3.84"/>
<circle clip-path="url(#clip671)" cx="2335.25" cy="1390.1" r="14.4" fill="#e26f46" fill-rule="evenodd" fill-opacity="1" stroke="#000000" stroke-opacity="1" stroke-width="3.84"/>
<circle clip-path="url(#clip671)" cx="2575.8" cy="911.613" r="14.4" fill="#e26f46" fill-rule="evenodd" fill-opacity="1" stroke="#000000" stroke-opacity="1" stroke-width="3.84"/>
<circle clip-path="url(#clip671)" cx="410.767" cy="1431.67" r="14.4" fill="#3da44d" fill-rule="evenodd" fill-opacity="1" stroke="#000000" stroke-opacity="1" stroke-width="3.84"/>
<circle clip-path="url(#clip671)" cx="651.327" cy="1522.26" r="14.4" fill="#3da44d" fill-rule="evenodd" fill-opacity="1" stroke="#000000" stroke-opacity="1" stroke-width="3.84"/>
<circle clip-path="url(#clip671)" cx="891.886" cy="1391.74" r="14.4" fill="#3da44d" fill-rule="evenodd" fill-opacity="1" stroke="#000000" stroke-opacity="1" stroke-width="3.84"/>
<circle clip-path="url(#clip671)" cx="1132.45" cy="1375.52" r="14.4" fill="#3da44d" fill-rule="evenodd" fill-opacity="1" stroke="#000000" stroke-opacity="1" stroke-width="3.84"/>
<circle clip-path="url(#clip671)" cx="1373.01" cy="1093.24" r="14.4" fill="#3da44d" fill-rule="evenodd" fill-opacity="1" stroke="#000000" stroke-opacity="1" stroke-width="3.84"/>
<circle clip-path="url(#clip671)" cx="1613.57" cy="1265.55" r="14.4" fill="#3da44d" fill-rule="evenodd" fill-opacity="1" stroke="#000000" stroke-opacity="1" stroke-width="3.84"/>
<circle clip-path="url(#clip671)" cx="1854.13" cy="1011.98" r="14.4" fill="#3da44d" fill-rule="evenodd" fill-opacity="1" stroke="#000000" stroke-opacity="1" stroke-width="3.84"/>
<circle clip-path="url(#clip671)" cx="2094.69" cy="1640.7" r="14.4" fill="#3da44d" fill-rule="evenodd" fill-opacity="1" stroke="#000000" stroke-opacity="1" stroke-width="3.84"/>
<circle clip-path="url(#clip671)" cx="2335.25" cy="1299.06" r="14.4" fill="#3da44d" fill-rule="evenodd" fill-opacity="1" stroke="#000000" stroke-opacity="1" stroke-width="3.84"/>
<circle clip-path="url(#clip671)" cx="2575.8" cy="1406.46" r="14.4" fill="#3da44d" fill-rule="evenodd" fill-opacity="1" stroke="#000000" stroke-opacity="1" stroke-width="3.84"/>
<circle clip-path="url(#clip671)" cx="410.767" cy="1476.93" r="14.4" fill="#c271d2" fill-rule="evenodd" fill-opacity="1" stroke="#000000" stroke-opacity="1" stroke-width="3.84"/>
<circle clip-path="url(#clip671)" cx="651.327" cy="1677.37" r="14.4" fill="#c271d2" fill-rule="evenodd" fill-opacity="1" stroke="#000000" stroke-opacity="1" stroke-width="3.84"/>
<circle clip-path="url(#clip671)" cx="891.886" cy="1405.86" r="14.4" fill="#c271d2" fill-rule="evenodd" fill-opacity="1" stroke="#000000" stroke-opacity="1" stroke-width="3.84"/>
<circle clip-path="url(#clip671)" cx="1132.45" cy="1246.02" r="14.4" fill="#c271d2" fill-rule="evenodd" fill-opacity="1" stroke="#000000" stroke-opacity="1" stroke-width="3.84"/>
<circle clip-path="url(#clip671)" cx="1373.01" cy="1158.67" r="14.4" fill="#c271d2" fill-rule="evenodd" fill-opacity="1" stroke="#000000" stroke-opacity="1" stroke-width="3.84"/>
<circle clip-path="url(#clip671)" cx="1613.57" cy="1240.74" r="14.4" fill="#c271d2" fill-rule="evenodd" fill-opacity="1" stroke="#000000" stroke-opacity="1" stroke-width="3.84"/>
<circle clip-path="url(#clip671)" cx="1854.13" cy="989.808" r="14.4" fill="#c271d2" fill-rule="evenodd" fill-opacity="1" stroke="#000000" stroke-opacity="1" stroke-width="3.84"/>
<circle clip-path="url(#clip671)" cx="2094.69" cy="1313.38" r="14.4" fill="#c271d2" fill-rule="evenodd" fill-opacity="1" stroke="#000000" stroke-opacity="1" stroke-width="3.84"/>
<circle clip-path="url(#clip671)" cx="2335.25" cy="1339.73" r="14.4" fill="#c271d2" fill-rule="evenodd" fill-opacity="1" stroke="#000000" stroke-opacity="1" stroke-width="3.84"/>
<circle clip-path="url(#clip671)" cx="2575.8" cy="1688.65" r="14.4" fill="#c271d2" fill-rule="evenodd" fill-opacity="1" stroke="#000000" stroke-opacity="1" stroke-width="3.84"/>
<circle clip-path="url(#clip671)" cx="410.767" cy="1376.72" r="14.4" fill="#ac8d18" fill-rule="evenodd" fill-opacity="1" stroke="#000000" stroke-opacity="1" stroke-width="3.84"/>
<circle clip-path="url(#clip671)" cx="651.327" cy="1631.07" r="14.4" fill="#ac8d18" fill-rule="evenodd" fill-opacity="1" stroke="#000000" stroke-opacity="1" stroke-width="3.84"/>
<circle clip-path="url(#clip671)" cx="891.886" cy="1688.65" r="14.4" fill="#ac8d18" fill-rule="evenodd" fill-opacity="1" stroke="#000000" stroke-opacity="1" stroke-width="3.84"/>
<circle clip-path="url(#clip671)" cx="1132.45" cy="1566.45" r="14.4" fill="#ac8d18" fill-rule="evenodd" fill-opacity="1" stroke="#000000" stroke-opacity="1" stroke-width="3.84"/>
<circle clip-path="url(#clip671)" cx="1373.01" cy="1686.31" r="14.4" fill="#ac8d18" fill-rule="evenodd" fill-opacity="1" stroke="#000000" stroke-opacity="1" stroke-width="3.84"/>
<circle clip-path="url(#clip671)" cx="1613.57" cy="1121.98" r="14.4" fill="#ac8d18" fill-rule="evenodd" fill-opacity="1" stroke="#000000" stroke-opacity="1" stroke-width="3.84"/>
<circle clip-path="url(#clip671)" cx="1854.13" cy="1326.14" r="14.4" fill="#ac8d18" fill-rule="evenodd" fill-opacity="1" stroke="#000000" stroke-opacity="1" stroke-width="3.84"/>
<circle clip-path="url(#clip671)" cx="2094.69" cy="1370.25" r="14.4" fill="#ac8d18" fill-rule="evenodd" fill-opacity="1" stroke="#000000" stroke-opacity="1" stroke-width="3.84"/>
<circle clip-path="url(#clip671)" cx="2335.25" cy="1688.65" r="14.4" fill="#ac8d18" fill-rule="evenodd" fill-opacity="1" stroke="#000000" stroke-opacity="1" stroke-width="3.84"/>
<circle clip-path="url(#clip671)" cx="2575.8" cy="1688.65" r="14.4" fill="#ac8d18" fill-rule="evenodd" fill-opacity="1" stroke="#000000" stroke-opacity="1" stroke-width="3.84"/>
<path clip-path="url(#clip670)" d="M2276.78 492.376 L2564.26 492.376 L2564.26 181.336 L2276.78 181.336  Z" fill="#ffffff" fill-rule="evenodd" fill-opacity="1"/>
<polyline clip-path="url(#clip670)" style="stroke:#000000; stroke-linecap:round; stroke-linejoin:round; stroke-width:4; stroke-opacity:1; fill:none" points="2276.78,492.376 2564.26,492.376 2564.26,181.336 2276.78,181.336 2276.78,492.376 "/>
<circle clip-path="url(#clip670)" cx="2378.78" cy="233.176" r="20.48" fill="#009af9" fill-rule="evenodd" fill-opacity="1" stroke="#000000" stroke-opacity="1" stroke-width="5.46133"/>
<path clip-path="url(#clip670)" d="M2480.77 215.896 L2487.07 215.896 L2502.39 244.808 L2502.39 215.896 L2506.93 215.896 L2506.93 250.456 L2500.63 250.456 L2485.31 221.544 L2485.31 250.456 L2480.77 250.456 L2480.77 215.896 Z" fill="#000000" fill-rule="nonzero" fill-opacity="1" /><path clip-path="url(#clip670)" d="M2517.46 246.521 L2525.1 246.521 L2525.1 220.156 L2516.79 221.822 L2516.79 217.563 L2525.05 215.896 L2529.73 215.896 L2529.73 246.521 L2537.37 246.521 L2537.37 250.456 L2517.46 250.456 L2517.46 246.521 Z" fill="#000000" fill-rule="nonzero" fill-opacity="1" /><circle clip-path="url(#clip670)" cx="2378.78" cy="285.016" r="20.48" fill="#e26f46" fill-rule="evenodd" fill-opacity="1" stroke="#000000" stroke-opacity="1" stroke-width="5.46133"/>
<path clip-path="url(#clip670)" d="M2480.77 267.736 L2487.07 267.736 L2502.39 296.648 L2502.39 267.736 L2506.93 267.736 L2506.93 302.296 L2500.63 302.296 L2485.31 273.384 L2485.31 302.296 L2480.77 302.296 L2480.77 267.736 Z" fill="#000000" fill-rule="nonzero" fill-opacity="1" /><path clip-path="url(#clip670)" d="M2530.82 283.662 Q2534.18 284.38 2536.05 286.648 Q2537.95 288.917 2537.95 292.25 Q2537.95 297.366 2534.43 300.167 Q2530.91 302.968 2524.43 302.968 Q2522.25 302.968 2519.94 302.528 Q2517.65 302.111 2515.19 301.255 L2515.19 296.741 Q2517.14 297.875 2519.45 298.454 Q2521.77 299.032 2524.29 299.032 Q2528.69 299.032 2530.98 297.296 Q2533.3 295.56 2533.3 292.25 Q2533.3 289.195 2531.14 287.482 Q2529.01 285.745 2525.19 285.745 L2521.17 285.745 L2521.17 281.903 L2525.38 281.903 Q2528.83 281.903 2530.66 280.537 Q2532.49 279.148 2532.49 276.556 Q2532.49 273.894 2530.59 272.482 Q2528.71 271.046 2525.19 271.046 Q2523.27 271.046 2521.07 271.463 Q2518.87 271.88 2516.24 272.759 L2516.24 268.593 Q2518.9 267.852 2521.21 267.482 Q2523.55 267.111 2525.61 267.111 Q2530.93 267.111 2534.04 269.542 Q2537.14 271.949 2537.14 276.07 Q2537.14 278.94 2535.49 280.931 Q2533.85 282.898 2530.82 283.662 Z" fill="#000000" fill-rule="nonzero" fill-opacity="1" /><circle clip-path="url(#clip670)" cx="2378.78" cy="336.856" r="20.48" fill="#3da44d" fill-rule="evenodd" fill-opacity="1" stroke="#000000" stroke-opacity="1" stroke-width="5.46133"/>
<path clip-path="url(#clip670)" d="M2480.77 319.576 L2487.07 319.576 L2502.39 348.488 L2502.39 319.576 L2506.93 319.576 L2506.93 354.136 L2500.63 354.136 L2485.31 325.224 L2485.31 354.136 L2480.77 354.136 L2480.77 319.576 Z" fill="#000000" fill-rule="nonzero" fill-opacity="1" /><path clip-path="url(#clip670)" d="M2527.23 334.993 Q2524.08 334.993 2522.23 337.146 Q2520.4 339.298 2520.4 343.048 Q2520.4 346.775 2522.23 348.951 Q2524.08 351.104 2527.23 351.104 Q2530.38 351.104 2532.21 348.951 Q2534.06 346.775 2534.06 343.048 Q2534.06 339.298 2532.21 337.146 Q2530.38 334.993 2527.23 334.993 M2536.51 320.34 L2536.51 324.599 Q2534.75 323.766 2532.95 323.326 Q2531.17 322.886 2529.41 322.886 Q2524.78 322.886 2522.32 326.011 Q2519.89 329.136 2519.55 335.456 Q2520.91 333.442 2522.97 332.377 Q2525.03 331.289 2527.51 331.289 Q2532.72 331.289 2535.73 334.46 Q2538.76 337.609 2538.76 343.048 Q2538.76 348.372 2535.61 351.59 Q2532.46 354.808 2527.23 354.808 Q2521.24 354.808 2518.06 350.224 Q2514.89 345.618 2514.89 336.891 Q2514.89 328.697 2518.78 323.836 Q2522.67 318.951 2529.22 318.951 Q2530.98 318.951 2532.76 319.299 Q2534.57 319.646 2536.51 320.34 Z" fill="#000000" fill-rule="nonzero" fill-opacity="1" /><circle clip-path="url(#clip670)" cx="2378.78" cy="388.696" r="20.48" fill="#c271d2" fill-rule="evenodd" fill-opacity="1" stroke="#000000" stroke-opacity="1" stroke-width="5.46133"/>
<path clip-path="url(#clip670)" d="M2508.64 374.078 L2508.64 379.009 Q2506.28 376.81 2503.6 375.722 Q2500.93 374.634 2497.93 374.634 Q2492 374.634 2488.85 378.268 Q2485.7 381.879 2485.7 388.731 Q2485.7 395.56 2488.85 399.194 Q2492 402.805 2497.93 402.805 Q2500.93 402.805 2503.6 401.717 Q2506.28 400.629 2508.64 398.43 L2508.64 403.314 Q2506.19 404.981 2503.43 405.814 Q2500.7 406.648 2497.65 406.648 Q2489.8 406.648 2485.29 401.856 Q2480.77 397.041 2480.77 388.731 Q2480.77 380.398 2485.29 375.606 Q2489.8 370.791 2497.65 370.791 Q2500.75 370.791 2503.48 371.625 Q2506.24 372.435 2508.64 374.078 Z" fill="#000000" fill-rule="nonzero" fill-opacity="1" /><path clip-path="url(#clip670)" d="M2517.09 402.041 L2524.73 402.041 L2524.73 375.676 L2516.42 377.342 L2516.42 373.083 L2524.68 371.416 L2529.36 371.416 L2529.36 402.041 L2537 402.041 L2537 405.976 L2517.09 405.976 L2517.09 402.041 Z" fill="#000000" fill-rule="nonzero" fill-opacity="1" /><circle clip-path="url(#clip670)" cx="2378.78" cy="440.536" r="20.48" fill="#ac8d18" fill-rule="evenodd" fill-opacity="1" stroke="#000000" stroke-opacity="1" stroke-width="5.46133"/>
<path clip-path="url(#clip670)" d="M2508.64 425.918 L2508.64 430.849 Q2506.28 428.65 2503.6 427.562 Q2500.93 426.474 2497.93 426.474 Q2492 426.474 2488.85 430.108 Q2485.7 433.719 2485.7 440.571 Q2485.7 447.4 2488.85 451.034 Q2492 454.645 2497.93 454.645 Q2500.93 454.645 2503.6 453.557 Q2506.28 452.469 2508.64 450.27 L2508.64 455.154 Q2506.19 456.821 2503.43 457.654 Q2500.7 458.488 2497.65 458.488 Q2489.8 458.488 2485.29 453.696 Q2480.77 448.881 2480.77 440.571 Q2480.77 432.238 2485.29 427.446 Q2489.8 422.631 2497.65 422.631 Q2500.75 422.631 2503.48 423.465 Q2506.24 424.275 2508.64 425.918 Z" fill="#000000" fill-rule="nonzero" fill-opacity="1" /><path clip-path="url(#clip670)" d="M2516.33 423.256 L2534.68 423.256 L2534.68 427.191 L2520.61 427.191 L2520.61 435.664 Q2521.63 435.316 2522.65 435.154 Q2523.67 434.969 2524.68 434.969 Q2530.47 434.969 2533.85 438.14 Q2537.23 441.312 2537.23 446.728 Q2537.23 452.307 2533.76 455.409 Q2530.29 458.488 2523.97 458.488 Q2521.79 458.488 2519.52 458.117 Q2517.28 457.747 2514.87 457.006 L2514.87 452.307 Q2516.95 453.441 2519.18 453.997 Q2521.4 454.552 2523.87 454.552 Q2527.88 454.552 2530.22 452.446 Q2532.55 450.339 2532.55 446.728 Q2532.55 443.117 2530.22 441.011 Q2527.88 438.904 2523.87 438.904 Q2522 438.904 2520.12 439.321 Q2518.27 439.738 2516.33 440.617 L2516.33 423.256 Z" fill="#000000" fill-rule="nonzero" fill-opacity="1" /></svg>
