<?xml version="1.0" encoding="utf-8"?>
<svg xmlns="http://www.w3.org/2000/svg" xmlns:xlink="http://www.w3.org/1999/xlink" width="672" height="480" viewBox="0 0 2688 1920">
<defs>
  <clipPath id="clip590">
    <rect x="0" y="0" width="2688" height="1920"/>
  </clipPath>
</defs>
<path clip-path="url(#clip590)" d="M0 1920 L2688 1920 L2688 -4.26326e-14 L0 -4.26326e-14  Z" fill="#ffffff" fill-rule="evenodd" fill-opacity="1"/>
<defs>
  <clipPath id="clip591">
    <rect x="217" y="127" width="2425" height="1607"/>
  </clipPath>
</defs>
<path clip-path="url(#clip590)" d="M217.02 1734.12 L2640.76 1734.12 L2640.76 127.792 L217.02 127.792  Z" fill="#ffffff" fill-rule="evenodd" fill-opacity="1"/>
<polyline clip-path="url(#clip591)" style="stroke:#000000; stroke-linecap:round; stroke-linejoin:round; stroke-width:2; stroke-opacity:0.1; fill:none" points="266.402,1734.12 266.402,127.792 "/>
<polyline clip-path="url(#clip591)" style="stroke:#000000; stroke-linecap:round; stroke-linejoin:round; stroke-width:2; stroke-opacity:0.1; fill:none" points="746.768,1734.12 746.768,127.792 "/>
<polyline clip-path="url(#clip591)" style="stroke:#000000; stroke-linecap:round; stroke-linejoin:round; stroke-width:2; stroke-opacity:0.1; fill:none" points="1227.13,1734.12 1227.13,127.792 "/>
<polyline clip-path="url(#clip591)" style="stroke:#000000; stroke-linecap:round; stroke-linejoin:round; stroke-width:2; stroke-opacity:0.1; fill:none" points="1707.5,1734.12 1707.5,127.792 "/>
<polyline clip-path="url(#clip591)" style="stroke:#000000; stroke-linecap:round; stroke-linejoin:round; stroke-width:2; stroke-opacity:0.1; fill:none" points="2187.87,1734.12 2187.87,127.792 "/>
<polyline clip-path="url(#clip591)" style="stroke:#000000; stroke-linecap:round; stroke-linejoin:round; stroke-width:2; stroke-opacity:0.1; fill:none" points="217.02,1564.02 2640.76,1564.02 "/>
<polyline clip-path="url(#clip591)" style="stroke:#000000; stroke-linecap:round; stroke-linejoin:round; stroke-width:2; stroke-opacity:0.1; fill:none" points="217.02,1295.19 2640.76,1295.19 "/>
<polyline clip-path="url(#clip591)" style="stroke:#000000; stroke-linecap:round; stroke-linejoin:round; stroke-width:2; stroke-opacity:0.1; fill:none" points="217.02,1026.36 2640.76,1026.36 "/>
<polyline clip-path="url(#clip591)" style="stroke:#000000; stroke-linecap:round; stroke-linejoin:round; stroke-width:2; stroke-opacity:0.1; fill:none" points="217.02,757.527 2640.76,757.527 "/>
<polyline clip-path="url(#clip591)" style="stroke:#000000; stroke-linecap:round; stroke-linejoin:round; stroke-width:2; stroke-opacity:0.1; fill:none" points="217.02,488.695 2640.76,488.695 "/>
<polyline clip-path="url(#clip591)" style="stroke:#000000; stroke-linecap:round; stroke-linejoin:round; stroke-width:2; stroke-opacity:0.1; fill:none" points="217.02,219.863 2640.76,219.863 "/>
<polyline clip-path="url(#clip590)" style="stroke:#000000; stroke-linecap:round; stroke-linejoin:round; stroke-width:4; stroke-opacity:1; fill:none" points="217.02,1734.12 2640.76,1734.12 "/>
<polyline clip-path="url(#clip590)" style="stroke:#000000; stroke-linecap:round; stroke-linejoin:round; stroke-width:4; stroke-opacity:1; fill:none" points="266.402,1734.12 266.402,1715.22 "/>
<polyline clip-path="url(#clip590)" style="stroke:#000000; stroke-linecap:round; stroke-linejoin:round; stroke-width:4; stroke-opacity:1; fill:none" points="746.768,1734.12 746.768,1715.22 "/>
<polyline clip-path="url(#clip590)" style="stroke:#000000; stroke-linecap:round; stroke-linejoin:round; stroke-width:4; stroke-opacity:1; fill:none" points="1227.13,1734.12 1227.13,1715.22 "/>
<polyline clip-path="url(#clip590)" style="stroke:#000000; stroke-linecap:round; stroke-linejoin:round; stroke-width:4; stroke-opacity:1; fill:none" points="1707.5,1734.12 1707.5,1715.22 "/>
<polyline clip-path="url(#clip590)" style="stroke:#000000; stroke-linecap:round; stroke-linejoin:round; stroke-width:4; stroke-opacity:1; fill:none" points="2187.87,1734.12 2187.87,1715.22 "/>
<path clip-path="url(#clip590)" d="M228.705 1767.34 Q225.094 1767.34 223.266 1770.9 Q221.46 1774.45 221.46 1781.58 Q221.46 1788.68 223.266 1792.25 Q225.094 1795.79 228.705 1795.79 Q232.34 1795.79 234.145 1792.25 Q235.974 1788.68 235.974 1781.58 Q235.974 1774.45 234.145 1770.9 Q232.34 1767.34 228.705 1767.34 M228.705 1763.64 Q234.515 1763.64 237.571 1768.24 Q240.65 1772.83 240.65 1781.58 Q240.65 1790.3 237.571 1794.91 Q234.515 1799.49 228.705 1799.49 Q222.895 1799.49 219.816 1794.91 Q216.761 1790.3 216.761 1781.58 Q216.761 1772.83 219.816 1768.24 Q222.895 1763.64 228.705 1763.64 Z" fill="#000000" fill-rule="nonzero" fill-opacity="1" /><path clip-path="url(#clip590)" d="M248.867 1792.94 L253.751 1792.94 L253.751 1798.82 L248.867 1798.82 L248.867 1792.94 Z" fill="#000000" fill-rule="nonzero" fill-opacity="1" /><path clip-path="url(#clip590)" d="M273.937 1767.34 Q270.325 1767.34 268.497 1770.9 Q266.691 1774.45 266.691 1781.58 Q266.691 1788.68 268.497 1792.25 Q270.325 1795.79 273.937 1795.79 Q277.571 1795.79 279.376 1792.25 Q281.205 1788.68 281.205 1781.58 Q281.205 1774.45 279.376 1770.9 Q277.571 1767.34 273.937 1767.34 M273.937 1763.64 Q279.747 1763.64 282.802 1768.24 Q285.881 1772.83 285.881 1781.58 Q285.881 1790.3 282.802 1794.91 Q279.747 1799.49 273.937 1799.49 Q268.126 1799.49 265.048 1794.91 Q261.992 1790.3 261.992 1781.58 Q261.992 1772.83 265.048 1768.24 Q268.126 1763.64 273.937 1763.64 Z" fill="#000000" fill-rule="nonzero" fill-opacity="1" /><path clip-path="url(#clip590)" d="M304.098 1767.34 Q300.487 1767.34 298.659 1770.9 Q296.853 1774.45 296.853 1781.58 Q296.853 1788.68 298.659 1792.25 Q300.487 1795.79 304.098 1795.79 Q307.733 1795.79 309.538 1792.25 Q311.367 1788.68 311.367 1781.58 Q311.367 1774.45 309.538 1770.9 Q307.733 1767.34 304.098 1767.34 M304.098 1763.64 Q309.909 1763.64 312.964 1768.24 Q316.043 1772.83 316.043 1781.58 Q316.043 1790.3 312.964 1794.91 Q309.909 1799.49 304.098 1799.49 Q298.288 1799.49 295.21 1794.91 Q292.154 1790.3 292.154 1781.58 Q292.154 1772.83 295.21 1768.24 Q298.288 1763.64 304.098 1763.64 Z" fill="#000000" fill-rule="nonzero" fill-opacity="1" /><path clip-path="url(#clip590)" d="M709.569 1767.34 Q705.958 1767.34 704.129 1770.9 Q702.324 1774.45 702.324 1781.58 Q702.324 1788.68 704.129 1792.25 Q705.958 1795.79 709.569 1795.79 Q713.203 1795.79 715.009 1792.25 Q716.838 1788.68 716.838 1781.58 Q716.838 1774.45 715.009 1770.9 Q713.203 1767.34 709.569 1767.34 M709.569 1763.64 Q715.379 1763.64 718.435 1768.24 Q721.514 1772.83 721.514 1781.58 Q721.514 1790.3 718.435 1794.91 Q715.379 1799.49 709.569 1799.49 Q703.759 1799.49 700.68 1794.91 Q697.625 1790.3 697.625 1781.58 Q697.625 1772.83 700.68 1768.24 Q703.759 1763.64 709.569 1763.64 Z" fill="#000000" fill-rule="nonzero" fill-opacity="1" /><path clip-path="url(#clip590)" d="M729.731 1792.94 L734.615 1792.94 L734.615 1798.82 L729.731 1798.82 L729.731 1792.94 Z" fill="#000000" fill-rule="nonzero" fill-opacity="1" /><path clip-path="url(#clip590)" d="M748.828 1794.89 L765.148 1794.89 L765.148 1798.82 L743.203 1798.82 L743.203 1794.89 Q745.865 1792.13 750.449 1787.5 Q755.055 1782.85 756.236 1781.51 Q758.481 1778.98 759.361 1777.25 Q760.263 1775.49 760.263 1773.8 Q760.263 1771.04 758.319 1769.31 Q756.398 1767.57 753.296 1767.57 Q751.097 1767.57 748.643 1768.34 Q746.213 1769.1 743.435 1770.65 L743.435 1765.93 Q746.259 1764.79 748.713 1764.21 Q751.166 1763.64 753.203 1763.64 Q758.574 1763.64 761.768 1766.32 Q764.962 1769.01 764.962 1773.5 Q764.962 1775.63 764.152 1777.55 Q763.365 1779.45 761.259 1782.04 Q760.68 1782.71 757.578 1785.93 Q754.476 1789.12 748.828 1794.89 Z" fill="#000000" fill-rule="nonzero" fill-opacity="1" /><path clip-path="url(#clip590)" d="M775.009 1764.26 L793.365 1764.26 L793.365 1768.2 L779.291 1768.2 L779.291 1776.67 Q780.31 1776.32 781.328 1776.16 Q782.347 1775.97 783.365 1775.97 Q789.152 1775.97 792.532 1779.15 Q795.911 1782.32 795.911 1787.73 Q795.911 1793.31 792.439 1796.41 Q788.967 1799.49 782.648 1799.49 Q780.472 1799.49 778.203 1799.12 Q775.958 1798.75 773.55 1798.01 L773.55 1793.31 Q775.634 1794.45 777.856 1795 Q780.078 1795.56 782.555 1795.56 Q786.56 1795.56 788.897 1793.45 Q791.235 1791.34 791.235 1787.73 Q791.235 1784.12 788.897 1782.02 Q786.56 1779.91 782.555 1779.91 Q780.68 1779.91 778.805 1780.33 Q776.953 1780.74 775.009 1781.62 L775.009 1764.26 Z" fill="#000000" fill-rule="nonzero" fill-opacity="1" /><path clip-path="url(#clip590)" d="M1189.44 1767.34 Q1185.83 1767.34 1184 1770.9 Q1182.19 1774.45 1182.19 1781.58 Q1182.19 1788.68 1184 1792.25 Q1185.83 1795.79 1189.44 1795.79 Q1193.07 1795.79 1194.88 1792.25 Q1196.71 1788.68 1196.71 1781.58 Q1196.71 1774.45 1194.88 1770.9 Q1193.07 1767.34 1189.44 1767.34 M1189.44 1763.64 Q1195.25 1763.64 1198.3 1768.24 Q1201.38 1772.83 1201.38 1781.58 Q1201.38 1790.3 1198.3 1794.91 Q1195.25 1799.49 1189.44 1799.49 Q1183.63 1799.49 1180.55 1794.91 Q1177.49 1790.3 1177.49 1781.58 Q1177.49 1772.83 1180.55 1768.24 Q1183.63 1763.64 1189.44 1763.64 Z" fill="#000000" fill-rule="nonzero" fill-opacity="1" /><path clip-path="url(#clip590)" d="M1209.6 1792.94 L1214.48 1792.94 L1214.48 1798.82 L1209.6 1798.82 L1209.6 1792.94 Z" fill="#000000" fill-rule="nonzero" fill-opacity="1" /><path clip-path="url(#clip590)" d="M1224.72 1764.26 L1243.07 1764.26 L1243.07 1768.2 L1229 1768.2 L1229 1776.67 Q1230.02 1776.32 1231.03 1776.16 Q1232.05 1775.97 1233.07 1775.97 Q1238.86 1775.97 1242.24 1779.15 Q1245.62 1782.32 1245.62 1787.73 Q1245.62 1793.31 1242.15 1796.41 Q1238.67 1799.49 1232.35 1799.49 Q1230.18 1799.49 1227.91 1799.12 Q1225.66 1798.75 1223.26 1798.01 L1223.26 1793.31 Q1225.34 1794.45 1227.56 1795 Q1229.78 1795.56 1232.26 1795.56 Q1236.27 1795.56 1238.6 1793.45 Q1240.94 1791.34 1240.94 1787.73 Q1240.94 1784.12 1238.6 1782.02 Q1236.27 1779.91 1232.26 1779.91 Q1230.39 1779.91 1228.51 1780.33 Q1226.66 1780.74 1224.72 1781.62 L1224.72 1764.26 Z" fill="#000000" fill-rule="nonzero" fill-opacity="1" /><path clip-path="url(#clip590)" d="M1264.83 1767.34 Q1261.22 1767.34 1259.39 1770.9 Q1257.59 1774.45 1257.59 1781.58 Q1257.59 1788.68 1259.39 1792.25 Q1261.22 1795.79 1264.83 1795.79 Q1268.47 1795.79 1270.27 1792.25 Q1272.1 1788.68 1272.1 1781.58 Q1272.1 1774.45 1270.27 1770.9 Q1268.47 1767.34 1264.83 1767.34 M1264.83 1763.64 Q1270.64 1763.64 1273.7 1768.24 Q1276.78 1772.83 1276.78 1781.58 Q1276.78 1790.3 1273.7 1794.91 Q1270.64 1799.49 1264.83 1799.49 Q1259.02 1799.49 1255.94 1794.91 Q1252.89 1790.3 1252.89 1781.58 Q1252.89 1772.83 1255.94 1768.24 Q1259.02 1763.64 1264.83 1763.64 Z" fill="#000000" fill-rule="nonzero" fill-opacity="1" /><path clip-path="url(#clip590)" d="M1670.3 1767.34 Q1666.69 1767.34 1664.86 1770.9 Q1663.06 1774.45 1663.06 1781.58 Q1663.06 1788.68 1664.86 1792.25 Q1666.69 1795.79 1670.3 1795.79 Q1673.94 1795.79 1675.74 1792.25 Q1677.57 1788.68 1677.57 1781.58 Q1677.57 1774.45 1675.74 1770.9 Q1673.94 1767.34 1670.3 1767.34 M1670.3 1763.64 Q1676.11 1763.64 1679.17 1768.24 Q1682.25 1772.83 1682.25 1781.58 Q1682.25 1790.3 1679.17 1794.91 Q1676.11 1799.49 1670.3 1799.49 Q1664.49 1799.49 1661.41 1794.91 Q1658.36 1790.3 1658.36 1781.58 Q1658.36 1772.83 1661.41 1768.24 Q1664.49 1763.64 1670.3 1763.64 Z" fill="#000000" fill-rule="nonzero" fill-opacity="1" /><path clip-path="url(#clip590)" d="M1690.46 1792.94 L1695.35 1792.94 L1695.35 1798.82 L1690.46 1798.82 L1690.46 1792.94 Z" fill="#000000" fill-rule="nonzero" fill-opacity="1" /><path clip-path="url(#clip590)" d="M1704.35 1764.26 L1726.57 1764.26 L1726.57 1766.25 L1714.03 1798.82 L1709.14 1798.82 L1720.95 1768.2 L1704.35 1768.2 L1704.35 1764.26 Z" fill="#000000" fill-rule="nonzero" fill-opacity="1" /><path clip-path="url(#clip590)" d="M1735.74 1764.26 L1754.1 1764.26 L1754.1 1768.2 L1740.02 1768.2 L1740.02 1776.67 Q1741.04 1776.32 1742.06 1776.16 Q1743.08 1775.97 1744.1 1775.97 Q1749.88 1775.97 1753.26 1779.15 Q1756.64 1782.32 1756.64 1787.73 Q1756.64 1793.31 1753.17 1796.41 Q1749.7 1799.49 1743.38 1799.49 Q1741.2 1799.49 1738.94 1799.12 Q1736.69 1798.75 1734.28 1798.01 L1734.28 1793.31 Q1736.37 1794.45 1738.59 1795 Q1740.81 1795.56 1743.29 1795.56 Q1747.29 1795.56 1749.63 1793.45 Q1751.97 1791.34 1751.97 1787.73 Q1751.97 1784.12 1749.63 1782.02 Q1747.29 1779.91 1743.29 1779.91 Q1741.41 1779.91 1739.54 1780.33 Q1737.69 1780.74 1735.74 1781.62 L1735.74 1764.26 Z" fill="#000000" fill-rule="nonzero" fill-opacity="1" /><path clip-path="url(#clip590)" d="M2139.94 1794.89 L2147.58 1794.89 L2147.58 1768.52 L2139.27 1770.19 L2139.27 1765.93 L2147.53 1764.26 L2152.21 1764.26 L2152.21 1794.89 L2159.85 1794.89 L2159.85 1798.82 L2139.94 1798.82 L2139.94 1794.89 Z" fill="#000000" fill-rule="nonzero" fill-opacity="1" /><path clip-path="url(#clip590)" d="M2169.29 1792.94 L2174.17 1792.94 L2174.17 1798.82 L2169.29 1798.82 L2169.29 1792.94 Z" fill="#000000" fill-rule="nonzero" fill-opacity="1" /><path clip-path="url(#clip590)" d="M2194.36 1767.34 Q2190.75 1767.34 2188.92 1770.9 Q2187.11 1774.45 2187.11 1781.58 Q2187.11 1788.68 2188.92 1792.25 Q2190.75 1795.79 2194.36 1795.79 Q2197.99 1795.79 2199.8 1792.25 Q2201.63 1788.68 2201.63 1781.58 Q2201.63 1774.45 2199.8 1770.9 Q2197.99 1767.34 2194.36 1767.34 M2194.36 1763.64 Q2200.17 1763.64 2203.23 1768.24 Q2206.3 1772.83 2206.3 1781.58 Q2206.3 1790.3 2203.23 1794.91 Q2200.17 1799.49 2194.36 1799.49 Q2188.55 1799.49 2185.47 1794.91 Q2182.42 1790.3 2182.42 1781.58 Q2182.42 1772.83 2185.47 1768.24 Q2188.55 1763.64 2194.36 1763.64 Z" fill="#000000" fill-rule="nonzero" fill-opacity="1" /><path clip-path="url(#clip590)" d="M2224.52 1767.34 Q2220.91 1767.34 2219.08 1770.9 Q2217.28 1774.45 2217.28 1781.58 Q2217.28 1788.68 2219.08 1792.25 Q2220.91 1795.79 2224.52 1795.79 Q2228.16 1795.79 2229.96 1792.25 Q2231.79 1788.68 2231.79 1781.58 Q2231.79 1774.45 2229.96 1770.9 Q2228.16 1767.34 2224.52 1767.34 M2224.52 1763.64 Q2230.33 1763.64 2233.39 1768.24 Q2236.47 1772.83 2236.47 1781.58 Q2236.47 1790.3 2233.39 1794.91 Q2230.33 1799.49 2224.52 1799.49 Q2218.71 1799.49 2215.63 1794.91 Q2212.58 1790.3 2212.58 1781.58 Q2212.58 1772.83 2215.63 1768.24 Q2218.71 1763.64 2224.52 1763.64 Z" fill="#000000" fill-rule="nonzero" fill-opacity="1" /><path clip-path="url(#clip590)" d="M1188.73 1847.65 L1175.84 1865 L1189.39 1883.3 L1182.49 1883.3 L1172.11 1869.3 L1161.74 1883.3 L1154.83 1883.3 L1168.67 1864.65 L1156.01 1847.65 L1162.91 1847.65 L1172.37 1860.35 L1181.82 1847.65 L1188.73 1847.65 Z" fill="#000000" fill-rule="nonzero" fill-opacity="1" /><path clip-path="url(#clip590)" d="M1232.46 1833.84 Q1228.19 1841.16 1226.12 1848.32 Q1224.06 1855.48 1224.06 1862.84 Q1224.06 1870.19 1226.12 1877.41 Q1228.23 1884.61 1232.46 1891.89 L1227.37 1891.89 Q1222.59 1884.41 1220.2 1877.19 Q1217.85 1869.96 1217.85 1862.84 Q1217.85 1855.74 1220.2 1848.54 Q1222.56 1841.35 1227.37 1833.84 L1232.46 1833.84 Z" fill="#000000" fill-rule="nonzero" fill-opacity="1" /><path clip-path="url(#clip590)" d="M1267.28 1853.06 L1267.28 1833.78 L1273.14 1833.78 L1273.14 1883.3 L1267.28 1883.3 L1267.28 1877.95 Q1265.43 1881.14 1262.6 1882.7 Q1259.8 1884.22 1255.85 1884.22 Q1249.39 1884.22 1245.32 1879.07 Q1241.27 1873.91 1241.27 1865.51 Q1241.27 1857.11 1245.32 1851.95 Q1249.39 1846.79 1255.85 1846.79 Q1259.8 1846.79 1262.6 1848.35 Q1265.43 1849.88 1267.28 1853.06 M1247.32 1865.51 Q1247.32 1871.97 1249.96 1875.66 Q1252.64 1879.32 1257.28 1879.32 Q1261.93 1879.32 1264.61 1875.66 Q1267.28 1871.97 1267.28 1865.51 Q1267.28 1859.05 1264.61 1855.39 Q1261.93 1851.7 1257.28 1851.7 Q1252.64 1851.7 1249.96 1855.39 Q1247.32 1859.05 1247.32 1865.51 Z" fill="#000000" fill-rule="nonzero" fill-opacity="1" /><path clip-path="url(#clip590)" d="M1315.69 1864.01 L1315.69 1866.88 L1288.76 1866.88 Q1289.14 1872.92 1292.39 1876.11 Q1295.67 1879.26 1301.49 1879.26 Q1304.87 1879.26 1308.02 1878.43 Q1311.2 1877.6 1314.32 1875.95 L1314.32 1881.49 Q1311.17 1882.82 1307.86 1883.52 Q1304.55 1884.22 1301.14 1884.22 Q1292.61 1884.22 1287.62 1879.26 Q1282.65 1874.29 1282.65 1865.83 Q1282.65 1857.07 1287.36 1851.95 Q1292.1 1846.79 1300.13 1846.79 Q1307.32 1846.79 1311.49 1851.44 Q1315.69 1856.06 1315.69 1864.01 M1309.83 1862.29 Q1309.77 1857.49 1307.13 1854.62 Q1304.52 1851.76 1300.19 1851.76 Q1295.29 1851.76 1292.33 1854.53 Q1289.4 1857.3 1288.95 1862.33 L1309.83 1862.29 Z" fill="#000000" fill-rule="nonzero" fill-opacity="1" /><path clip-path="url(#clip590)" d="M1325.3 1833.78 L1331.16 1833.78 L1331.16 1883.3 L1325.3 1883.3 L1325.3 1833.78 Z" fill="#000000" fill-rule="nonzero" fill-opacity="1" /><path clip-path="url(#clip590)" d="M1359.61 1865.38 Q1352.52 1865.38 1349.78 1867 Q1347.04 1868.63 1347.04 1872.54 Q1347.04 1875.66 1349.08 1877.51 Q1351.15 1879.32 1354.68 1879.32 Q1359.55 1879.32 1362.48 1875.88 Q1365.44 1872.42 1365.44 1866.69 L1365.44 1865.38 L1359.61 1865.38 M1371.29 1862.96 L1371.29 1883.3 L1365.44 1883.3 L1365.44 1877.89 Q1363.43 1881.14 1360.44 1882.7 Q1357.45 1884.22 1353.12 1884.22 Q1347.65 1884.22 1344.4 1881.17 Q1341.18 1878.08 1341.18 1872.92 Q1341.18 1866.91 1345.19 1863.85 Q1349.24 1860.8 1357.23 1860.8 L1365.44 1860.8 L1365.44 1860.23 Q1365.44 1856.18 1362.76 1853.99 Q1360.12 1851.76 1355.32 1851.76 Q1352.26 1851.76 1349.36 1852.49 Q1346.47 1853.22 1343.79 1854.69 L1343.79 1849.28 Q1347.01 1848.03 1350.03 1847.43 Q1353.06 1846.79 1355.92 1846.79 Q1363.66 1846.79 1367.47 1850.8 Q1371.29 1854.81 1371.29 1862.96 Z" fill="#000000" fill-rule="nonzero" fill-opacity="1" /><path clip-path="url(#clip590)" d="M1398.19 1886.61 Q1395.71 1892.98 1393.35 1894.92 Q1391 1896.86 1387.05 1896.86 L1382.37 1896.86 L1382.37 1891.96 L1385.81 1891.96 Q1388.23 1891.96 1389.56 1890.81 Q1390.9 1889.67 1392.52 1885.4 L1393.57 1882.73 L1379.16 1847.65 L1385.36 1847.65 L1396.5 1875.53 L1407.64 1847.65 L1413.85 1847.65 L1398.19 1886.61 Z" fill="#000000" fill-rule="nonzero" fill-opacity="1" /><path clip-path="url(#clip590)" d="M1452.43 1864.01 L1452.43 1866.88 L1425.5 1866.88 Q1425.88 1872.92 1429.13 1876.11 Q1432.41 1879.26 1438.23 1879.26 Q1441.6 1879.26 1444.75 1878.43 Q1447.94 1877.6 1451.06 1875.95 L1451.06 1881.49 Q1447.91 1882.82 1444.6 1883.52 Q1441.29 1884.22 1437.88 1884.22 Q1429.35 1884.22 1424.35 1879.26 Q1419.39 1874.29 1419.39 1865.83 Q1419.39 1857.07 1424.1 1851.95 Q1428.84 1846.79 1436.86 1846.79 Q1444.05 1846.79 1448.22 1851.44 Q1452.43 1856.06 1452.43 1864.01 M1446.57 1862.29 Q1446.51 1857.49 1443.86 1854.62 Q1441.25 1851.76 1436.92 1851.76 Q1432.02 1851.76 1429.06 1854.53 Q1426.13 1857.3 1425.69 1862.33 L1446.57 1862.29 Z" fill="#000000" fill-rule="nonzero" fill-opacity="1" /><path clip-path="url(#clip590)" d="M1485.5 1853.06 L1485.5 1833.78 L1491.35 1833.78 L1491.35 1883.3 L1485.5 1883.3 L1485.5 1877.95 Q1483.65 1881.14 1480.82 1882.7 Q1478.02 1884.22 1474.07 1884.22 Q1467.61 1884.22 1463.53 1879.07 Q1459.49 1873.91 1459.49 1865.51 Q1459.49 1857.11 1463.53 1851.95 Q1467.61 1846.79 1474.07 1846.79 Q1478.02 1846.79 1480.82 1848.35 Q1483.65 1849.88 1485.5 1853.06 M1465.54 1865.51 Q1465.54 1871.97 1468.18 1875.66 Q1470.85 1879.32 1475.5 1879.32 Q1480.15 1879.32 1482.82 1875.66 Q1485.5 1871.97 1485.5 1865.51 Q1485.5 1859.05 1482.82 1855.39 Q1480.15 1851.7 1475.5 1851.7 Q1470.85 1851.7 1468.18 1855.39 Q1465.54 1859.05 1465.54 1865.51 Z" fill="#000000" fill-rule="nonzero" fill-opacity="1" /><path clip-path="url(#clip590)" d="M1546.86 1848.7 L1546.86 1854.24 Q1544.38 1852.97 1541.7 1852.33 Q1539.03 1851.7 1536.17 1851.7 Q1531.81 1851.7 1529.61 1853.03 Q1527.45 1854.37 1527.45 1857.04 Q1527.45 1859.08 1529 1860.26 Q1530.56 1861.4 1535.27 1862.45 L1537.28 1862.9 Q1543.52 1864.24 1546.13 1866.69 Q1548.77 1869.11 1548.77 1873.47 Q1548.77 1878.43 1544.82 1881.33 Q1540.91 1884.22 1534.03 1884.22 Q1531.17 1884.22 1528.05 1883.65 Q1524.96 1883.11 1521.53 1882 L1521.53 1875.95 Q1524.77 1877.64 1527.92 1878.49 Q1531.07 1879.32 1534.16 1879.32 Q1538.3 1879.32 1540.53 1877.92 Q1542.75 1876.49 1542.75 1873.91 Q1542.75 1871.52 1541.13 1870.25 Q1539.54 1868.98 1534.1 1867.8 L1532.06 1867.32 Q1526.62 1866.18 1524.2 1863.82 Q1521.78 1861.43 1521.78 1857.3 Q1521.78 1852.27 1525.34 1849.53 Q1528.91 1846.79 1535.47 1846.79 Q1538.71 1846.79 1541.58 1847.27 Q1544.44 1847.75 1546.86 1848.7 Z" fill="#000000" fill-rule="nonzero" fill-opacity="1" /><path clip-path="url(#clip590)" d="M1563.89 1837.53 L1563.89 1847.65 L1575.95 1847.65 L1575.95 1852.2 L1563.89 1852.2 L1563.89 1871.56 Q1563.89 1875.92 1565.07 1877.16 Q1566.28 1878.4 1569.94 1878.4 L1575.95 1878.4 L1575.95 1883.3 L1569.94 1883.3 Q1563.16 1883.3 1560.58 1880.79 Q1558 1878.24 1558 1871.56 L1558 1852.2 L1553.7 1852.2 L1553.7 1847.65 L1558 1847.65 L1558 1837.53 L1563.89 1837.53 Z" fill="#000000" fill-rule="nonzero" fill-opacity="1" /><path clip-path="url(#clip590)" d="M1599.86 1865.38 Q1592.76 1865.38 1590.02 1867 Q1587.28 1868.63 1587.28 1872.54 Q1587.28 1875.66 1589.32 1877.51 Q1591.39 1879.32 1594.92 1879.32 Q1599.79 1879.32 1602.72 1875.88 Q1605.68 1872.42 1605.68 1866.69 L1605.68 1865.38 L1599.86 1865.38 M1611.54 1862.96 L1611.54 1883.3 L1605.68 1883.3 L1605.68 1877.89 Q1603.67 1881.14 1600.68 1882.7 Q1597.69 1884.22 1593.36 1884.22 Q1587.89 1884.22 1584.64 1881.17 Q1581.43 1878.08 1581.43 1872.92 Q1581.43 1866.91 1585.44 1863.85 Q1589.48 1860.8 1597.47 1860.8 L1605.68 1860.8 L1605.68 1860.23 Q1605.68 1856.18 1603.01 1853.99 Q1600.36 1851.76 1595.56 1851.76 Q1592.5 1851.76 1589.61 1852.49 Q1586.71 1853.22 1584.04 1854.69 L1584.04 1849.28 Q1587.25 1848.03 1590.27 1847.43 Q1593.3 1846.79 1596.16 1846.79 Q1603.9 1846.79 1607.72 1850.8 Q1611.54 1854.81 1611.54 1862.96 Z" fill="#000000" fill-rule="nonzero" fill-opacity="1" /><path clip-path="url(#clip590)" d="M1629.39 1837.53 L1629.39 1847.65 L1641.45 1847.65 L1641.45 1852.2 L1629.39 1852.2 L1629.39 1871.56 Q1629.39 1875.92 1630.57 1877.16 Q1631.78 1878.4 1635.44 1878.4 L1641.45 1878.4 L1641.45 1883.3 L1635.44 1883.3 Q1628.66 1883.3 1626.08 1880.79 Q1623.5 1878.24 1623.5 1871.56 L1623.5 1852.2 L1619.21 1852.2 L1619.21 1847.65 L1623.5 1847.65 L1623.5 1837.53 L1629.39 1837.53 Z" fill="#000000" fill-rule="nonzero" fill-opacity="1" /><path clip-path="url(#clip590)" d="M1679.65 1864.01 L1679.65 1866.88 L1652.72 1866.88 Q1653.1 1872.92 1656.35 1876.11 Q1659.63 1879.26 1665.45 1879.26 Q1668.83 1879.26 1671.98 1878.43 Q1675.16 1877.6 1678.28 1875.95 L1678.28 1881.49 Q1675.13 1882.82 1671.82 1883.52 Q1668.51 1884.22 1665.1 1884.22 Q1656.57 1884.22 1651.58 1879.26 Q1646.61 1874.29 1646.61 1865.83 Q1646.61 1857.07 1651.32 1851.95 Q1656.06 1846.79 1664.09 1846.79 Q1671.28 1846.79 1675.45 1851.44 Q1679.65 1856.06 1679.65 1864.01 M1673.79 1862.29 Q1673.73 1857.49 1671.09 1854.62 Q1668.48 1851.76 1664.15 1851.76 Q1659.25 1851.76 1656.29 1854.53 Q1653.36 1857.3 1652.91 1862.33 L1673.79 1862.29 Z" fill="#000000" fill-rule="nonzero" fill-opacity="1" /><path clip-path="url(#clip590)" d="M1688.34 1833.84 L1693.43 1833.84 Q1698.21 1841.35 1700.56 1848.54 Q1702.95 1855.74 1702.95 1862.84 Q1702.95 1869.96 1700.56 1877.19 Q1698.21 1884.41 1693.43 1891.89 L1688.34 1891.89 Q1692.57 1884.61 1694.64 1877.41 Q1696.74 1870.19 1696.74 1862.84 Q1696.74 1855.48 1694.64 1848.32 Q1692.57 1841.16 1688.34 1833.84 Z" fill="#000000" fill-rule="nonzero" fill-opacity="1" /><polyline clip-path="url(#clip590)" style="stroke:#000000; stroke-linecap:round; stroke-linejoin:round; stroke-width:4; stroke-opacity:1; fill:none" points="217.02,1734.12 217.02,127.792 "/>
<polyline clip-path="url(#clip590)" style="stroke:#000000; stroke-linecap:round; stroke-linejoin:round; stroke-width:4; stroke-opacity:1; fill:none" points="217.02,1564.02 235.918,1564.02 "/>
<polyline clip-path="url(#clip590)" style="stroke:#000000; stroke-linecap:round; stroke-linejoin:round; stroke-width:4; stroke-opacity:1; fill:none" points="217.02,1295.19 235.918,1295.19 "/>
<polyline clip-path="url(#clip590)" style="stroke:#000000; stroke-linecap:round; stroke-linejoin:round; stroke-width:4; stroke-opacity:1; fill:none" points="217.02,1026.36 235.918,1026.36 "/>
<polyline clip-path="url(#clip590)" style="stroke:#000000; stroke-linecap:round; stroke-linejoin:round; stroke-width:4; stroke-opacity:1; fill:none" points="217.02,757.527 235.918,757.527 "/>
<polyline clip-path="url(#clip590)" style="stroke:#000000; stroke-linecap:round; stroke-linejoin:round; stroke-width:4; stroke-opacity:1; fill:none" points="217.02,488.695 235.918,488.695 "/>
<polyline clip-path="url(#clip590)" style="stroke:#000000; stroke-linecap:round; stroke-linejoin:round; stroke-width:4; stroke-opacity:1; fill:none" points="217.02,219.863 235.918,219.863 "/>
<path clip-path="url(#clip590)" d="M116.214 1564.47 L145.89 1564.47 L145.89 1568.41 L116.214 1568.41 L116.214 1564.47 Z" fill="#000000" fill-rule="nonzero" fill-opacity="1" /><path clip-path="url(#clip590)" d="M156.793 1577.37 L164.432 1577.37 L164.432 1551 L156.122 1552.67 L156.122 1548.41 L164.385 1546.74 L169.061 1546.74 L169.061 1577.37 L176.7 1577.37 L176.7 1581.3 L156.793 1581.3 L156.793 1577.37 Z" fill="#000000" fill-rule="nonzero" fill-opacity="1" /><path clip-path="url(#clip590)" d="M164.756 1280.99 Q161.145 1280.99 159.316 1284.55 Q157.511 1288.1 157.511 1295.22 Q157.511 1302.33 159.316 1305.9 Q161.145 1309.44 164.756 1309.44 Q168.39 1309.44 170.196 1305.9 Q172.024 1302.33 172.024 1295.22 Q172.024 1288.1 170.196 1284.55 Q168.39 1280.99 164.756 1280.99 M164.756 1277.29 Q170.566 1277.29 173.622 1281.89 Q176.7 1286.47 176.7 1295.22 Q176.7 1303.95 173.622 1308.56 Q170.566 1313.14 164.756 1313.14 Q158.946 1313.14 155.867 1308.56 Q152.811 1303.95 152.811 1295.22 Q152.811 1286.47 155.867 1281.89 Q158.946 1277.29 164.756 1277.29 Z" fill="#000000" fill-rule="nonzero" fill-opacity="1" /><path clip-path="url(#clip590)" d="M156.793 1039.7 L164.432 1039.7 L164.432 1013.34 L156.122 1015 L156.122 1010.75 L164.385 1009.08 L169.061 1009.08 L169.061 1039.7 L176.7 1039.7 L176.7 1043.64 L156.793 1043.64 L156.793 1039.7 Z" fill="#000000" fill-rule="nonzero" fill-opacity="1" /><path clip-path="url(#clip590)" d="M160.381 770.872 L176.7 770.872 L176.7 774.807 L154.756 774.807 L154.756 770.872 Q157.418 768.117 162.001 763.487 Q166.608 758.835 167.788 757.492 Q170.034 754.969 170.913 753.233 Q171.816 751.474 171.816 749.784 Q171.816 747.029 169.872 745.293 Q167.95 743.557 164.848 743.557 Q162.649 743.557 160.196 744.321 Q157.765 745.085 154.987 746.636 L154.987 741.913 Q157.811 740.779 160.265 740.2 Q162.719 739.622 164.756 739.622 Q170.126 739.622 173.321 742.307 Q176.515 744.992 176.515 749.483 Q176.515 751.612 175.705 753.534 Q174.918 755.432 172.811 758.024 Q172.233 758.696 169.131 761.913 Q166.029 765.108 160.381 770.872 Z" fill="#000000" fill-rule="nonzero" fill-opacity="1" /><path clip-path="url(#clip590)" d="M169.571 487.341 Q172.927 488.058 174.802 490.327 Q176.7 492.596 176.7 495.929 Q176.7 501.045 173.182 503.845 Q169.663 506.646 163.182 506.646 Q161.006 506.646 158.691 506.207 Q156.399 505.79 153.946 504.933 L153.946 500.42 Q155.89 501.554 158.205 502.132 Q160.52 502.711 163.043 502.711 Q167.441 502.711 169.733 500.975 Q172.047 499.239 172.047 495.929 Q172.047 492.873 169.895 491.16 Q167.765 489.424 163.946 489.424 L159.918 489.424 L159.918 485.582 L164.131 485.582 Q167.58 485.582 169.409 484.216 Q171.237 482.827 171.237 480.234 Q171.237 477.572 169.339 476.16 Q167.464 474.725 163.946 474.725 Q162.024 474.725 159.825 475.142 Q157.626 475.559 154.987 476.438 L154.987 472.272 Q157.649 471.531 159.964 471.16 Q162.302 470.79 164.362 470.79 Q169.686 470.79 172.788 473.221 Q175.89 475.628 175.89 479.748 Q175.89 482.619 174.247 484.609 Q172.603 486.577 169.571 487.341 Z" fill="#000000" fill-rule="nonzero" fill-opacity="1" /><path clip-path="url(#clip590)" d="M167.117 206.657 L155.311 225.106 L167.117 225.106 L167.117 206.657 M165.89 202.583 L171.77 202.583 L171.77 225.106 L176.7 225.106 L176.7 228.995 L171.77 228.995 L171.77 237.143 L167.117 237.143 L167.117 228.995 L151.515 228.995 L151.515 224.481 L165.89 202.583 Z" fill="#000000" fill-rule="nonzero" fill-opacity="1" /><path clip-path="url(#clip590)" d="M12.1132 960.905 L16.983 960.905 L16.983 966.507 Q16.983 969.658 18.2562 970.899 Q19.5293 972.109 22.8395 972.109 L25.9905 972.109 L25.9905 962.465 L30.542 962.465 L30.542 972.109 L61.6384 972.109 L61.6384 977.997 L30.542 977.997 L30.542 983.599 L25.9905 983.599 L25.9905 977.997 L23.5079 977.997 Q17.5559 977.997 14.8505 975.228 Q12.1132 972.459 12.1132 966.443 L12.1132 960.905 Z" fill="#000000" fill-rule="nonzero" fill-opacity="1" /><path clip-path="url(#clip590)" d="M12.1769 941.935 Q19.4975 946.2 26.6589 948.269 Q33.8203 950.338 41.1727 950.338 Q48.5251 950.338 55.7502 948.269 Q62.9434 946.169 70.2321 941.935 L70.2321 947.028 Q62.7524 951.802 55.5274 954.189 Q48.3023 956.545 41.1727 956.545 Q34.0749 956.545 26.8817 954.189 Q19.6884 951.834 12.1769 947.028 L12.1769 941.935 Z" fill="#000000" fill-rule="nonzero" fill-opacity="1" /><path clip-path="url(#clip590)" d="M25.9905 900.94 L43.337 913.831 L61.6384 900.272 L61.6384 907.179 L47.6339 917.555 L61.6384 927.931 L61.6384 934.838 L42.9869 920.992 L25.9905 933.66 L25.9905 926.753 L38.6901 917.3 L25.9905 907.847 L25.9905 900.94 Z" fill="#000000" fill-rule="nonzero" fill-opacity="1" /><path clip-path="url(#clip590)" d="M12.1769 892.919 L12.1769 887.827 Q19.6884 883.053 26.8817 880.697 Q34.0749 878.31 41.1727 878.31 Q48.3023 878.31 55.5274 880.697 Q62.7524 883.053 70.2321 887.827 L70.2321 892.919 Q62.9434 888.686 55.7502 886.617 Q48.5251 884.517 41.1727 884.517 Q33.8203 884.517 26.6589 886.617 Q19.4975 888.686 12.1769 892.919 Z" fill="#000000" fill-rule="nonzero" fill-opacity="1" /><path clip-path="url(#clip590)" d="M604.023 44.2197 Q606.656 45.1109 609.127 48.0275 Q611.638 50.9442 614.15 56.0483 L622.454 72.576 L613.664 72.576 L605.927 57.061 Q602.929 50.9847 600.093 48.9997 Q597.298 47.0148 592.437 47.0148 L583.525 47.0148 L583.525 72.576 L575.342 72.576 L575.342 12.096 L593.814 12.096 Q604.185 12.096 609.289 16.4305 Q614.393 20.7649 614.393 29.5149 Q614.393 35.2267 611.719 38.994 Q609.086 42.7613 604.023 44.2197 M583.525 18.8205 L583.525 40.2903 L593.814 40.2903 Q599.729 40.2903 602.726 37.5762 Q605.765 34.8216 605.765 29.5149 Q605.765 24.2082 602.726 21.5346 Q599.729 18.8205 593.814 18.8205 L583.525 18.8205 Z" fill="#000000" fill-rule="nonzero" fill-opacity="1" /><path clip-path="url(#clip590)" d="M667.743 48.0275 L667.743 51.6733 L633.473 51.6733 Q633.959 59.3701 638.091 63.421 Q642.263 67.4314 649.676 67.4314 Q653.97 67.4314 657.981 66.3781 Q662.032 65.3249 666.002 63.2184 L666.002 70.267 Q661.991 71.9684 657.778 72.8596 Q653.565 73.7508 649.231 73.7508 Q638.374 73.7508 632.014 67.4314 Q625.695 61.1119 625.695 50.3365 Q625.695 39.1965 631.69 32.6746 Q637.726 26.1121 647.934 26.1121 Q657.09 26.1121 662.396 32.0264 Q667.743 37.9003 667.743 48.0275 M660.29 45.84 Q660.209 39.7232 656.846 36.0774 Q653.525 32.4315 648.016 32.4315 Q641.777 32.4315 638.01 35.9558 Q634.283 39.4801 633.716 45.8805 L660.29 45.84 Z" fill="#000000" fill-rule="nonzero" fill-opacity="1" /><path clip-path="url(#clip590)" d="M712.627 28.9478 L712.627 35.9153 Q709.468 34.1734 706.268 33.3227 Q703.108 32.4315 699.867 32.4315 Q692.616 32.4315 688.606 37.0496 Q684.595 41.6271 684.595 49.9314 Q684.595 58.2358 688.606 62.8538 Q692.616 67.4314 699.867 67.4314 Q703.108 67.4314 706.268 66.5807 Q709.468 65.6895 712.627 63.9476 L712.627 70.8341 Q709.508 72.2924 706.146 73.0216 Q702.824 73.7508 699.057 73.7508 Q688.808 73.7508 682.772 67.3098 Q676.736 60.8689 676.736 49.9314 Q676.736 38.832 682.813 32.472 Q688.93 26.1121 699.543 26.1121 Q702.986 26.1121 706.268 26.8413 Q709.549 27.5299 712.627 28.9478 Z" fill="#000000" fill-rule="nonzero" fill-opacity="1" /><path clip-path="url(#clip590)" d="M743.171 32.4315 Q737.176 32.4315 733.692 37.1306 Q730.208 41.7891 730.208 49.9314 Q730.208 58.0738 733.652 62.7728 Q737.135 67.4314 743.171 67.4314 Q749.126 67.4314 752.61 62.7323 Q756.094 58.0333 756.094 49.9314 Q756.094 41.8701 752.61 37.1711 Q749.126 32.4315 743.171 32.4315 M743.171 26.1121 Q752.893 26.1121 758.443 32.4315 Q763.993 38.7509 763.993 49.9314 Q763.993 61.0714 758.443 67.4314 Q752.893 73.7508 743.171 73.7508 Q733.409 73.7508 727.859 67.4314 Q722.35 61.0714 722.35 49.9314 Q722.35 38.7509 727.859 32.4315 Q733.409 26.1121 743.171 26.1121 Z" fill="#000000" fill-rule="nonzero" fill-opacity="1" /><path clip-path="url(#clip590)" d="M771.001 27.2059 L778.9 27.2059 L793.078 65.2844 L807.257 27.2059 L815.156 27.2059 L798.142 72.576 L788.015 72.576 L771.001 27.2059 Z" fill="#000000" fill-rule="nonzero" fill-opacity="1" /><path clip-path="url(#clip590)" d="M864.253 48.0275 L864.253 51.6733 L829.982 51.6733 Q830.468 59.3701 834.6 63.421 Q838.773 67.4314 846.186 67.4314 Q850.48 67.4314 854.49 66.3781 Q858.541 65.3249 862.511 63.2184 L862.511 70.267 Q858.5 71.9684 854.288 72.8596 Q850.075 73.7508 845.74 73.7508 Q834.884 73.7508 828.524 67.4314 Q822.204 61.1119 822.204 50.3365 Q822.204 39.1965 828.2 32.6746 Q834.236 26.1121 844.444 26.1121 Q853.599 26.1121 858.906 32.0264 Q864.253 37.9003 864.253 48.0275 M856.799 45.84 Q856.718 39.7232 853.356 36.0774 Q850.034 32.4315 844.525 32.4315 Q838.286 32.4315 834.519 35.9558 Q830.792 39.4801 830.225 45.8805 L856.799 45.84 Z" fill="#000000" fill-rule="nonzero" fill-opacity="1" /><path clip-path="url(#clip590)" d="M902.777 34.1734 Q901.521 33.4443 900.022 33.1202 Q898.564 32.7556 896.782 32.7556 Q890.462 32.7556 887.059 36.8875 Q883.697 40.9789 883.697 48.6757 L883.697 72.576 L876.203 72.576 L876.203 27.2059 L883.697 27.2059 L883.697 34.2544 Q886.047 30.1225 889.814 28.1376 Q893.581 26.1121 898.969 26.1121 Q899.739 26.1121 900.67 26.2337 Q901.602 26.3147 902.736 26.5172 L902.777 34.1734 Z" fill="#000000" fill-rule="nonzero" fill-opacity="1" /><path clip-path="url(#clip590)" d="M947.58 48.0275 L947.58 51.6733 L913.309 51.6733 Q913.795 59.3701 917.927 63.421 Q922.1 67.4314 929.513 67.4314 Q933.807 67.4314 937.817 66.3781 Q941.868 65.3249 945.838 63.2184 L945.838 70.267 Q941.828 71.9684 937.615 72.8596 Q933.402 73.7508 929.067 73.7508 Q918.211 73.7508 911.851 67.4314 Q905.531 61.1119 905.531 50.3365 Q905.531 39.1965 911.527 32.6746 Q917.563 26.1121 927.771 26.1121 Q936.926 26.1121 942.233 32.0264 Q947.58 37.9003 947.58 48.0275 M940.126 45.84 Q940.045 39.7232 936.683 36.0774 Q933.361 32.4315 927.852 32.4315 Q921.614 32.4315 917.846 35.9558 Q914.119 39.4801 913.552 45.8805 L940.126 45.84 Z" fill="#000000" fill-rule="nonzero" fill-opacity="1" /><path clip-path="url(#clip590)" d="M989.669 34.0924 L989.669 9.54393 L997.122 9.54393 L997.122 72.576 L989.669 72.576 L989.669 65.7705 Q987.319 69.8214 983.714 71.8063 Q980.149 73.7508 975.126 73.7508 Q966.903 73.7508 961.718 67.1883 Q956.573 60.6258 956.573 49.9314 Q956.573 39.2371 961.718 32.6746 Q966.903 26.1121 975.126 26.1121 Q980.149 26.1121 983.714 28.0971 Q987.319 30.0415 989.669 34.0924 M964.27 49.9314 Q964.27 58.1548 967.632 62.8538 Q971.035 67.5124 976.949 67.5124 Q982.863 67.5124 986.266 62.8538 Q989.669 58.1548 989.669 49.9314 Q989.669 41.7081 986.266 37.0496 Q982.863 32.3505 976.949 32.3505 Q971.035 32.3505 967.632 37.0496 Q964.27 41.7081 964.27 49.9314 Z" fill="#000000" fill-rule="nonzero" fill-opacity="1" /><path clip-path="url(#clip590)" d="M1039.17 12.096 L1073.93 12.096 L1073.93 18.9825 L1047.35 18.9825 L1047.35 36.8065 L1071.34 36.8065 L1071.34 43.6931 L1047.35 43.6931 L1047.35 72.576 L1039.17 72.576 L1039.17 12.096 Z" fill="#000000" fill-rule="nonzero" fill-opacity="1" /><path clip-path="url(#clip590)" d="M1081.26 54.671 L1081.26 27.2059 L1088.71 27.2059 L1088.71 54.3874 Q1088.71 60.8284 1091.22 64.0691 Q1093.74 67.2693 1098.76 67.2693 Q1104.8 67.2693 1108.28 63.421 Q1111.8 59.5726 1111.8 52.9291 L1111.8 27.2059 L1119.26 27.2059 L1119.26 72.576 L1111.8 72.576 L1111.8 65.6084 Q1109.09 69.7404 1105.48 71.7658 Q1101.92 73.7508 1097.18 73.7508 Q1089.36 73.7508 1085.31 68.8897 Q1081.26 64.0286 1081.26 54.671 M1100.02 26.1121 L1100.02 26.1121 Z" fill="#000000" fill-rule="nonzero" fill-opacity="1" /><path clip-path="url(#clip590)" d="M1172.32 45.1919 L1172.32 72.576 L1164.87 72.576 L1164.87 45.4349 Q1164.87 38.994 1162.36 35.7938 Q1159.85 32.5936 1154.82 32.5936 Q1148.79 32.5936 1145.3 36.4419 Q1141.82 40.2903 1141.82 46.9338 L1141.82 72.576 L1134.33 72.576 L1134.33 27.2059 L1141.82 27.2059 L1141.82 34.2544 Q1144.49 30.163 1148.1 28.1376 Q1151.75 26.1121 1156.49 26.1121 Q1164.3 26.1121 1168.31 30.9732 Q1172.32 35.7938 1172.32 45.1919 Z" fill="#000000" fill-rule="nonzero" fill-opacity="1" /><path clip-path="url(#clip590)" d="M1219.84 28.9478 L1219.84 35.9153 Q1216.68 34.1734 1213.48 33.3227 Q1210.32 32.4315 1207.08 32.4315 Q1199.83 32.4315 1195.82 37.0496 Q1191.81 41.6271 1191.81 49.9314 Q1191.81 58.2358 1195.82 62.8538 Q1199.83 67.4314 1207.08 67.4314 Q1210.32 67.4314 1213.48 66.5807 Q1216.68 65.6895 1219.84 63.9476 L1219.84 70.8341 Q1216.72 72.2924 1213.36 73.0216 Q1210.04 73.7508 1206.27 73.7508 Q1196.02 73.7508 1189.99 67.3098 Q1183.95 60.8689 1183.95 49.9314 Q1183.95 38.832 1190.03 32.472 Q1196.14 26.1121 1206.76 26.1121 Q1210.2 26.1121 1213.48 26.8413 Q1216.76 27.5299 1219.84 28.9478 Z" fill="#000000" fill-rule="nonzero" fill-opacity="1" /><path clip-path="url(#clip590)" d="M1240.18 14.324 L1240.18 27.2059 L1255.53 27.2059 L1255.53 32.9987 L1240.18 32.9987 L1240.18 57.6282 Q1240.18 63.1779 1241.68 64.7578 Q1243.21 66.3376 1247.87 66.3376 L1255.53 66.3376 L1255.53 72.576 L1247.87 72.576 Q1239.24 72.576 1235.96 69.3758 Q1232.68 66.1351 1232.68 57.6282 L1232.68 32.9987 L1227.21 32.9987 L1227.21 27.2059 L1232.68 27.2059 L1232.68 14.324 L1240.18 14.324 Z" fill="#000000" fill-rule="nonzero" fill-opacity="1" /><path clip-path="url(#clip590)" d="M1265.33 27.2059 L1272.79 27.2059 L1272.79 72.576 L1265.33 72.576 L1265.33 27.2059 M1265.33 9.54393 L1272.79 9.54393 L1272.79 18.9825 L1265.33 18.9825 L1265.33 9.54393 Z" fill="#000000" fill-rule="nonzero" fill-opacity="1" /><path clip-path="url(#clip590)" d="M1305.96 32.4315 Q1299.97 32.4315 1296.48 37.1306 Q1293 41.7891 1293 49.9314 Q1293 58.0738 1296.44 62.7728 Q1299.93 67.4314 1305.96 67.4314 Q1311.92 67.4314 1315.4 62.7323 Q1318.89 58.0333 1318.89 49.9314 Q1318.89 41.8701 1315.4 37.1711 Q1311.92 32.4315 1305.96 32.4315 M1305.96 26.1121 Q1315.69 26.1121 1321.24 32.4315 Q1326.79 38.7509 1326.79 49.9314 Q1326.79 61.0714 1321.24 67.4314 Q1315.69 73.7508 1305.96 73.7508 Q1296.2 73.7508 1290.65 67.4314 Q1285.14 61.0714 1285.14 49.9314 Q1285.14 38.7509 1290.65 32.4315 Q1296.2 26.1121 1305.96 26.1121 Z" fill="#000000" fill-rule="nonzero" fill-opacity="1" /><path clip-path="url(#clip590)" d="M1376.85 45.1919 L1376.85 72.576 L1369.4 72.576 L1369.4 45.4349 Q1369.4 38.994 1366.89 35.7938 Q1364.38 32.5936 1359.35 32.5936 Q1353.32 32.5936 1349.83 36.4419 Q1346.35 40.2903 1346.35 46.9338 L1346.35 72.576 L1338.86 72.576 L1338.86 27.2059 L1346.35 27.2059 L1346.35 34.2544 Q1349.02 30.163 1352.63 28.1376 Q1356.28 26.1121 1361.02 26.1121 Q1368.83 26.1121 1372.84 30.9732 Q1376.85 35.7938 1376.85 45.1919 Z" fill="#000000" fill-rule="nonzero" fill-opacity="1" /><path clip-path="url(#clip590)" d="M1414.33 46.9338 L1489.19 46.9338 L1489.19 52.7671 L1414.33 52.7671 L1414.33 46.9338 Z" fill="#000000" fill-rule="nonzero" fill-opacity="1" /><path clip-path="url(#clip590)" d="M1535.93 18.8205 L1535.93 65.8515 L1545.82 65.8515 Q1558.33 65.8515 1564.13 60.1802 Q1569.96 54.509 1569.96 42.2752 Q1569.96 30.1225 1564.13 24.4918 Q1558.33 18.8205 1545.82 18.8205 L1535.93 18.8205 M1527.75 12.096 L1544.56 12.096 Q1562.14 12.096 1570.37 19.4281 Q1578.59 26.7198 1578.59 42.2752 Q1578.59 57.9117 1570.33 65.2439 Q1562.06 72.576 1544.56 72.576 L1527.75 72.576 L1527.75 12.096 Z" fill="#000000" fill-rule="nonzero" fill-opacity="1" /><path clip-path="url(#clip590)" d="M1630.12 48.0275 L1630.12 51.6733 L1595.85 51.6733 Q1596.33 59.3701 1600.46 63.421 Q1604.64 67.4314 1612.05 67.4314 Q1616.34 67.4314 1620.35 66.3781 Q1624.4 65.3249 1628.37 63.2184 L1628.37 70.267 Q1624.36 71.9684 1620.15 72.8596 Q1615.94 73.7508 1611.6 73.7508 Q1600.75 73.7508 1594.39 67.4314 Q1588.07 61.1119 1588.07 50.3365 Q1588.07 39.1965 1594.06 32.6746 Q1600.1 26.1121 1610.31 26.1121 Q1619.46 26.1121 1624.77 32.0264 Q1630.12 37.9003 1630.12 48.0275 M1622.66 45.84 Q1622.58 39.7232 1619.22 36.0774 Q1615.9 32.4315 1610.39 32.4315 Q1604.15 32.4315 1600.38 35.9558 Q1596.66 39.4801 1596.09 45.8805 L1622.66 45.84 Z" fill="#000000" fill-rule="nonzero" fill-opacity="1" /><path clip-path="url(#clip590)" d="M1642.35 9.54393 L1649.8 9.54393 L1649.8 72.576 L1642.35 72.576 L1642.35 9.54393 Z" fill="#000000" fill-rule="nonzero" fill-opacity="1" /><path clip-path="url(#clip590)" d="M1686.02 49.7694 Q1676.99 49.7694 1673.5 51.8354 Q1670.02 53.9013 1670.02 58.8839 Q1670.02 62.8538 1672.61 65.2034 Q1675.24 67.5124 1679.74 67.5124 Q1685.94 67.5124 1689.67 63.1374 Q1693.43 58.7219 1693.43 51.4303 L1693.43 49.7694 L1686.02 49.7694 M1700.89 46.6907 L1700.89 72.576 L1693.43 72.576 L1693.43 65.6895 Q1690.88 69.8214 1687.07 71.8063 Q1683.26 73.7508 1677.76 73.7508 Q1670.79 73.7508 1666.66 69.8619 Q1662.56 65.9325 1662.56 59.3701 Q1662.56 51.7138 1667.67 47.825 Q1672.81 43.9361 1682.98 43.9361 L1693.43 43.9361 L1693.43 43.2069 Q1693.43 38.0623 1690.03 35.2672 Q1686.67 32.4315 1680.55 32.4315 Q1676.66 32.4315 1672.98 33.3632 Q1669.29 34.295 1665.89 36.1584 L1665.89 29.2718 Q1669.98 27.692 1673.83 26.9223 Q1677.67 26.1121 1681.32 26.1121 Q1691.16 26.1121 1696.02 31.2163 Q1700.89 36.3204 1700.89 46.6907 Z" fill="#000000" fill-rule="nonzero" fill-opacity="1" /><path clip-path="url(#clip590)" d="M1735.12 76.7889 Q1731.96 84.8907 1728.96 87.3618 Q1725.96 89.8329 1720.94 89.8329 L1714.98 89.8329 L1714.98 83.5945 L1719.36 83.5945 Q1722.44 83.5945 1724.14 82.1361 Q1725.84 80.6778 1727.91 75.2496 L1729.24 71.8468 L1710.89 27.2059 L1718.79 27.2059 L1732.97 62.6918 L1747.15 27.2059 L1755.05 27.2059 L1735.12 76.7889 Z" fill="#000000" fill-rule="nonzero" fill-opacity="1" /><path clip-path="url(#clip590)" d="M1804.14 48.0275 L1804.14 51.6733 L1769.87 51.6733 Q1770.36 59.3701 1774.49 63.421 Q1778.66 67.4314 1786.08 67.4314 Q1790.37 67.4314 1794.38 66.3781 Q1798.43 65.3249 1802.4 63.2184 L1802.4 70.267 Q1798.39 71.9684 1794.18 72.8596 Q1789.97 73.7508 1785.63 73.7508 Q1774.77 73.7508 1768.41 67.4314 Q1762.1 61.1119 1762.1 50.3365 Q1762.1 39.1965 1768.09 32.6746 Q1774.13 26.1121 1784.33 26.1121 Q1793.49 26.1121 1798.8 32.0264 Q1804.14 37.9003 1804.14 48.0275 M1796.69 45.84 Q1796.61 39.7232 1793.25 36.0774 Q1789.92 32.4315 1784.42 32.4315 Q1778.18 32.4315 1774.41 35.9558 Q1770.68 39.4801 1770.12 45.8805 L1796.69 45.84 Z" fill="#000000" fill-rule="nonzero" fill-opacity="1" /><path clip-path="url(#clip590)" d="M1846.23 34.0924 L1846.23 9.54393 L1853.69 9.54393 L1853.69 72.576 L1846.23 72.576 L1846.23 65.7705 Q1843.88 69.8214 1840.28 71.8063 Q1836.71 73.7508 1831.69 73.7508 Q1823.47 73.7508 1818.28 67.1883 Q1813.14 60.6258 1813.14 49.9314 Q1813.14 39.2371 1818.28 32.6746 Q1823.47 26.1121 1831.69 26.1121 Q1836.71 26.1121 1840.28 28.0971 Q1843.88 30.0415 1846.23 34.0924 M1820.83 49.9314 Q1820.83 58.1548 1824.2 62.8538 Q1827.6 67.5124 1833.51 67.5124 Q1839.43 67.5124 1842.83 62.8538 Q1846.23 58.1548 1846.23 49.9314 Q1846.23 41.7081 1842.83 37.0496 Q1839.43 32.3505 1833.51 32.3505 Q1827.6 32.3505 1824.2 37.0496 Q1820.83 41.7081 1820.83 49.9314 Z" fill="#000000" fill-rule="nonzero" fill-opacity="1" /><path clip-path="url(#clip590)" d="M1895.73 12.096 L1930.49 12.096 L1930.49 18.9825 L1903.92 18.9825 L1903.92 36.8065 L1927.9 36.8065 L1927.9 43.6931 L1903.92 43.6931 L1903.92 72.576 L1895.73 72.576 L1895.73 12.096 Z" fill="#000000" fill-rule="nonzero" fill-opacity="1" /><path clip-path="url(#clip590)" d="M1977.4 48.0275 L1977.4 51.6733 L1943.13 51.6733 Q1943.62 59.3701 1947.75 63.421 Q1951.92 67.4314 1959.33 67.4314 Q1963.63 67.4314 1967.64 66.3781 Q1971.69 65.3249 1975.66 63.2184 L1975.66 70.267 Q1971.65 71.9684 1967.44 72.8596 Q1963.22 73.7508 1958.89 73.7508 Q1948.03 73.7508 1941.67 67.4314 Q1935.35 61.1119 1935.35 50.3365 Q1935.35 39.1965 1941.35 32.6746 Q1947.38 26.1121 1957.59 26.1121 Q1966.75 26.1121 1972.05 32.0264 Q1977.4 37.9003 1977.4 48.0275 M1969.95 45.84 Q1969.87 39.7232 1966.5 36.0774 Q1963.18 32.4315 1957.67 32.4315 Q1951.43 32.4315 1947.67 35.9558 Q1943.94 39.4801 1943.37 45.8805 L1969.95 45.84 Z" fill="#000000" fill-rule="nonzero" fill-opacity="1" /><path clip-path="url(#clip590)" d="M2028.44 48.0275 L2028.44 51.6733 L1994.17 51.6733 Q1994.66 59.3701 1998.79 63.421 Q2002.96 67.4314 2010.38 67.4314 Q2014.67 67.4314 2018.68 66.3781 Q2022.73 65.3249 2026.7 63.2184 L2026.7 70.267 Q2022.69 71.9684 2018.48 72.8596 Q2014.26 73.7508 2009.93 73.7508 Q1999.07 73.7508 1992.71 67.4314 Q1986.39 61.1119 1986.39 50.3365 Q1986.39 39.1965 1992.39 32.6746 Q1998.42 26.1121 2008.63 26.1121 Q2017.79 26.1121 2023.09 32.0264 Q2028.44 37.9003 2028.44 48.0275 M2020.99 45.84 Q2020.91 39.7232 2017.55 36.0774 Q2014.22 32.4315 2008.71 32.4315 Q2002.48 32.4315 1998.71 35.9558 Q1994.98 39.4801 1994.41 45.8805 L2020.99 45.84 Z" fill="#000000" fill-rule="nonzero" fill-opacity="1" /><path clip-path="url(#clip590)" d="M2070.53 34.0924 L2070.53 9.54393 L2077.98 9.54393 L2077.98 72.576 L2070.53 72.576 L2070.53 65.7705 Q2068.18 69.8214 2064.58 71.8063 Q2061.01 73.7508 2055.99 73.7508 Q2047.76 73.7508 2042.58 67.1883 Q2037.44 60.6258 2037.44 49.9314 Q2037.44 39.2371 2042.58 32.6746 Q2047.76 26.1121 2055.99 26.1121 Q2061.01 26.1121 2064.58 28.0971 Q2068.18 30.0415 2070.53 34.0924 M2045.13 49.9314 Q2045.13 58.1548 2048.49 62.8538 Q2051.9 67.5124 2057.81 67.5124 Q2063.73 67.5124 2067.13 62.8538 Q2070.53 58.1548 2070.53 49.9314 Q2070.53 41.7081 2067.13 37.0496 Q2063.73 32.3505 2057.81 32.3505 Q2051.9 32.3505 2048.49 37.0496 Q2045.13 41.7081 2045.13 49.9314 Z" fill="#000000" fill-rule="nonzero" fill-opacity="1" /><path clip-path="url(#clip590)" d="M2125.91 49.9314 Q2125.91 41.7081 2122.5 37.0496 Q2119.14 32.3505 2113.23 32.3505 Q2107.31 32.3505 2103.91 37.0496 Q2100.55 41.7081 2100.55 49.9314 Q2100.55 58.1548 2103.91 62.8538 Q2107.31 67.5124 2113.23 67.5124 Q2119.14 67.5124 2122.5 62.8538 Q2125.91 58.1548 2125.91 49.9314 M2100.55 34.0924 Q2102.9 30.0415 2106.46 28.0971 Q2110.07 26.1121 2115.05 26.1121 Q2123.31 26.1121 2128.46 32.6746 Q2133.64 39.2371 2133.64 49.9314 Q2133.64 60.6258 2128.46 67.1883 Q2123.31 73.7508 2115.05 73.7508 Q2110.07 73.7508 2106.46 71.8063 Q2102.9 69.8214 2100.55 65.7705 L2100.55 72.576 L2093.05 72.576 L2093.05 9.54393 L2100.55 9.54393 L2100.55 34.0924 Z" fill="#000000" fill-rule="nonzero" fill-opacity="1" /><path clip-path="url(#clip590)" d="M2166.62 49.7694 Q2157.58 49.7694 2154.1 51.8354 Q2150.62 53.9013 2150.62 58.8839 Q2150.62 62.8538 2153.21 65.2034 Q2155.84 67.5124 2160.34 67.5124 Q2166.54 67.5124 2170.26 63.1374 Q2174.03 58.7219 2174.03 51.4303 L2174.03 49.7694 L2166.62 49.7694 M2181.49 46.6907 L2181.49 72.576 L2174.03 72.576 L2174.03 65.6895 Q2171.48 69.8214 2167.67 71.8063 Q2163.86 73.7508 2158.35 73.7508 Q2151.39 73.7508 2147.26 69.8619 Q2143.16 65.9325 2143.16 59.3701 Q2143.16 51.7138 2148.27 47.825 Q2153.41 43.9361 2163.58 43.9361 L2174.03 43.9361 L2174.03 43.2069 Q2174.03 38.0623 2170.63 35.2672 Q2167.27 32.4315 2161.15 32.4315 Q2157.26 32.4315 2153.57 33.3632 Q2149.89 34.295 2146.49 36.1584 L2146.49 29.2718 Q2150.58 27.692 2154.43 26.9223 Q2158.27 26.1121 2161.92 26.1121 Q2171.76 26.1121 2176.62 31.2163 Q2181.49 36.3204 2181.49 46.6907 Z" fill="#000000" fill-rule="nonzero" fill-opacity="1" /><path clip-path="url(#clip590)" d="M2229.49 28.9478 L2229.49 35.9153 Q2226.33 34.1734 2223.13 33.3227 Q2219.97 32.4315 2216.73 32.4315 Q2209.48 32.4315 2205.47 37.0496 Q2201.46 41.6271 2201.46 49.9314 Q2201.46 58.2358 2205.47 62.8538 Q2209.48 67.4314 2216.73 67.4314 Q2219.97 67.4314 2223.13 66.5807 Q2226.33 65.6895 2229.49 63.9476 L2229.49 70.8341 Q2226.37 72.2924 2223.01 73.0216 Q2219.69 73.7508 2215.92 73.7508 Q2205.67 73.7508 2199.63 67.3098 Q2193.6 60.8689 2193.6 49.9314 Q2193.6 38.832 2199.67 32.472 Q2205.79 26.1121 2216.4 26.1121 Q2219.85 26.1121 2223.13 26.8413 Q2226.41 27.5299 2229.49 28.9478 Z" fill="#000000" fill-rule="nonzero" fill-opacity="1" /><path clip-path="url(#clip590)" d="M2242.17 9.54393 L2249.66 9.54393 L2249.66 46.7717 L2271.9 27.2059 L2281.42 27.2059 L2257.36 48.4326 L2282.43 72.576 L2272.71 72.576 L2249.66 50.4176 L2249.66 72.576 L2242.17 72.576 L2242.17 9.54393 Z" fill="#000000" fill-rule="nonzero" fill-opacity="1" /><polyline clip-path="url(#clip591)" style="stroke:#000000; stroke-linecap:round; stroke-linejoin:round; stroke-width:12; stroke-opacity:1; fill:none" stroke-dasharray="48, 30" points="285.617,1293.85 297.107,1293.04 308.597,1292.24 320.087,1291.43 331.577,1290.63 343.067,1289.83 354.558,1289.02 366.048,1288.22 377.538,1287.42 389.028,1286.61 400.518,1285.81 412.008,1285 423.499,1284.2 434.989,1283.4 446.479,1282.59 457.969,1281.79 469.459,1280.99 480.949,1280.18 492.44,1279.38 503.93,1278.57 515.42,1277.77 526.91,1276.97 538.4,1276.16 549.89,1275.36 561.381,1274.55 572.871,1273.75 584.361,1272.95 595.851,1272.14 607.341,1271.34 618.831,1270.54 630.322,1269.73 641.812,1268.93 653.302,1268.12 664.792,1267.32 676.282,1266.52 687.772,1265.71 699.263,1264.91 710.753,1264.11 722.243,1263.3 733.733,1262.5 745.223,1261.69 756.713,1260.89 768.204,1260.09 779.694,1259.28 791.184,1258.48 802.674,1257.68 814.164,1256.87 825.654,1256.07 837.145,1255.26 848.635,1254.46 860.125,1253.66 871.615,1252.85 883.105,1252.05 894.595,1251.24 906.086,1250.44 917.576,1249.64 929.066,1248.83 940.556,1248.03 952.046,1247.23 963.536,1246.42 975.026,1245.62 986.517,1244.81 998.007,1244.01 1009.5,1243.21 1020.99,1242.4 1032.48,1241.6 1043.97,1240.8 1055.46,1239.99 1066.95,1239.19 1078.44,1238.38 1089.93,1237.58 1101.42,1236.78 1112.91,1235.97 1124.4,1235.17 1135.89,1234.37 1147.38,1233.56 1158.87,1232.76 1170.36,1231.95 1181.85,1231.15 1193.34,1230.35 1204.83,1229.54 1216.32,1228.74 1227.81,1227.93 1239.3,1227.13 1250.79,1226.33 1262.28,1225.52 1273.77,1224.72 1285.26,1223.92 1296.75,1223.11 1308.24,1222.31 1319.73,1221.5 1331.22,1220.7 1342.71,1219.9 1354.2,1219.09 1365.69,1218.29 1377.18,1217.49 1388.67,1216.68 1400.16,1215.88 1411.65,1215.07 1423.14,1214.27 1434.63,1213.47 1446.12,1212.66 1457.61,1211.86 1469.1,1211.06 1480.59,1210.25 1492.08,1209.45 1503.57,1208.64 1515.06,1207.84 1526.55,1207.04 1538.04,1206.23 1549.53,1205.43 1561.02,1204.62 1572.52,1203.82 1584.01,1203.02 1595.5,1202.21 1606.99,1201.41 1618.48,1200.61 1629.97,1199.8 1641.46,1199 1652.95,1198.19 1664.44,1197.39 1675.93,1196.59 1687.42,1195.78 1698.91,1194.98 1710.4,1194.18 1721.89,1193.37 1733.38,1192.57 1744.87,1191.76 1756.36,1190.96 1767.85,1190.16 1779.34,1189.35 1790.83,1188.55 1802.32,1187.75 1813.81,1186.94 1825.3,1186.14 1836.79,1185.33 1848.28,1184.53 1859.77,1183.73 1871.26,1182.92 1882.75,1182.12 1894.24,1181.31 1905.73,1180.51 1917.22,1179.71 1928.71,1178.9 1940.2,1178.1 1951.69,1177.3 1963.18,1176.49 1974.67,1175.69 1986.16,1174.88 1997.65,1174.08 2009.14,1173.28 2020.63,1172.47 2032.12,1171.67 2043.61,1170.87 2055.1,1170.06 2066.59,1169.26 2078.08,1168.45 2089.57,1167.65 2101.06,1166.85 2112.55,1166.04 2124.04,1165.24 2135.53,1164.44 2147.02,1163.63 2158.51,1162.83 2170,1162.02 2181.49,1161.22 2192.98,1160.42 2204.47,1159.61 2215.96,1158.81 2227.45,1158 2238.94,1157.2 2250.43,1156.4 2261.93,1155.59 2273.42,1154.79 2284.91,1153.99 2296.4,1153.18 2307.89,1152.38 2319.38,1151.57 2330.87,1150.77 2342.36,1149.97 2353.85,1149.16 2365.34,1148.36 2376.83,1147.56 2388.32,1146.75 2399.81,1145.95 2411.3,1145.14 2422.79,1144.34 2434.28,1143.54 2445.77,1142.73 2457.26,1141.93 2468.75,1141.13 2480.24,1140.32 2491.73,1139.52 2503.22,1138.71 2514.71,1137.91 2526.2,1137.11 2537.69,1136.3 2549.18,1135.5 2560.67,1134.69 2572.16,1133.89 "/>
<polyline clip-path="url(#clip591)" style="stroke:#008080; stroke-linecap:round; stroke-linejoin:round; stroke-width:8; stroke-opacity:1; fill:none" points="285.617,1292.2 297.107,1291.9 308.597,1291.6 320.087,1291.3 331.577,1290.99 343.067,1290.67 354.558,1290.34 366.048,1289.99 377.538,1289.63 389.028,1289.26 400.518,1288.87 412.008,1288.47 423.499,1288.04 434.989,1287.59 446.479,1287.12 457.969,1286.63 469.459,1286.1 480.949,1285.55 492.44,1284.98 503.93,1284.37 515.42,1283.72 526.91,1283.05 538.4,1282.34 549.89,1281.59 561.381,1280.8 572.871,1279.98 584.361,1279.11 595.851,1278.2 607.341,1277.24 618.831,1276.24 630.322,1275.19 641.812,1274.09 653.302,1272.93 664.792,1271.73 676.282,1270.47 687.772,1269.16 699.263,1267.79 710.753,1266.39 722.243,1264.94 733.733,1263.46 745.223,1261.96 756.713,1260.44 768.204,1258.91 779.694,1257.38 791.184,1255.85 802.674,1254.32 814.164,1252.81 825.654,1251.33 837.145,1249.86 848.635,1248.44 860.125,1247.05 871.615,1245.72 883.105,1244.43 894.595,1243.21 906.086,1242.06 917.576,1240.98 929.066,1239.98 940.556,1239.06 952.046,1238.24 963.536,1237.52 975.026,1236.91 986.517,1236.4 998.007,1236.02 1009.5,1235.77 1020.99,1235.64 1032.48,1235.66 1043.97,1235.82 1055.46,1236.14 1066.95,1236.61 1078.44,1237.25 1089.93,1238.06 1101.42,1239.05 1112.91,1240.22 1124.4,1241.58 1135.89,1243.13 1147.38,1244.87 1158.87,1246.82 1170.36,1248.96 1181.85,1251.32 1193.34,1253.88 1204.83,1256.67 1216.32,1259.67 1227.81,1262.9 1239.3,1266.35 1250.79,1270.04 1262.28,1273.96 1273.77,1278.13 1285.26,1282.54 1296.75,1287.2 1308.24,1292.12 1319.73,1297.29 1331.22,1302.72 1342.71,1308.42 1354.2,1314.39 1365.69,1320.64 1377.18,1327.16 1388.67,1333.96 1400.16,1341.06 1411.65,1348.44 1423.14,1356.12 1434.63,1364.1 1446.12,1372.38 1457.61,1380.97 1469.1,1389.87 1480.59,1399.09 1492.08,1408.62 1503.57,1418.48 1515.06,1428.66 1526.55,1439.12 1538.04,1449.83 1549.53,1460.73 1561.02,1471.8 1572.52,1483 1584.01,1494.28 1595.5,1505.6 1606.99,1516.93 1618.48,1528.23 1629.97,1539.46 1641.46,1550.57 1652.95,1561.53 1664.44,1572.3 1675.93,1582.84 1687.42,1593.11 1698.91,1603.07 1710.4,1612.69 1721.89,1621.91 1733.38,1630.71 1744.87,1639.05 1756.36,1646.87 1767.85,1654.15 1779.34,1660.85 1790.83,1666.92 1802.32,1672.33 1813.81,1677.04 1825.3,1681.01 1836.79,1684.19 1848.28,1686.55 1859.77,1688.05 1871.26,1688.65 1882.75,1688.32 1894.24,1687 1905.73,1684.67 1917.22,1681.28 1928.71,1676.81 1940.2,1671.29 1951.69,1664.71 1963.18,1657.1 1974.67,1648.47 1986.16,1638.84 1997.65,1628.21 2009.14,1616.62 2020.63,1604.07 2032.12,1590.57 2043.61,1576.14 2055.1,1560.81 2066.59,1544.57 2078.08,1527.45 2089.57,1509.46 2101.06,1490.61 2112.55,1470.93 2124.04,1450.42 2135.53,1429.11 2147.02,1407 2158.51,1384.11 2170,1360.46 2181.49,1336.06 2192.98,1310.93 2204.47,1285.08 2215.96,1258.52 2227.45,1231.27 2238.94,1203.35 2250.43,1174.77 2261.93,1145.55 2273.42,1115.7 2284.91,1085.24 2296.4,1054.17 2307.89,1022.52 2319.38,990.304 2330.87,957.532 2342.36,924.223 2353.85,890.394 2365.34,856.064 2376.83,821.252 2388.32,785.975 2399.81,750.252 2411.3,714.1 2422.79,677.539 2434.28,640.587 2445.77,603.261 2457.26,565.58 2468.75,527.562 2480.24,489.225 2491.73,450.589 2503.22,411.67 2514.71,372.487 2526.2,333.059 2537.69,293.403 2549.18,253.538 2560.67,213.482 2572.16,173.254 "/>
<path clip-path="url(#clip590)" d="M297.811 336.856 L909.581 336.856 L909.581 181.336 L297.811 181.336  Z" fill="#ffffff" fill-rule="evenodd" fill-opacity="1"/>
<polyline clip-path="url(#clip590)" style="stroke:#000000; stroke-linecap:round; stroke-linejoin:round; stroke-width:4; stroke-opacity:1; fill:none" points="297.811,336.856 909.581,336.856 909.581,181.336 297.811,181.336 297.811,336.856 "/>
<polyline clip-path="url(#clip590)" style="stroke:#000000; stroke-linecap:round; stroke-linejoin:round; stroke-width:12; stroke-opacity:1; fill:none" stroke-dasharray="48, 30" points="324.742,233.176 486.324,233.176 "/>
<path clip-path="url(#clip590)" d="M513.255 215.896 L542.491 215.896 L542.491 219.831 L530.222 219.831 L530.222 250.456 L525.523 250.456 L525.523 219.831 L513.255 219.831 L513.255 215.896 Z" fill="#000000" fill-rule="nonzero" fill-opacity="1" /><path clip-path="url(#clip590)" d="M554.875 228.512 Q554.157 228.095 553.301 227.91 Q552.467 227.702 551.449 227.702 Q547.838 227.702 545.893 230.063 Q543.972 232.401 543.972 236.799 L543.972 250.456 L539.69 250.456 L539.69 224.531 L543.972 224.531 L543.972 228.558 Q545.315 226.197 547.467 225.063 Q549.62 223.906 552.699 223.906 Q553.139 223.906 553.671 223.975 Q554.203 224.021 554.852 224.137 L554.875 228.512 Z" fill="#000000" fill-rule="nonzero" fill-opacity="1" /><path clip-path="url(#clip590)" d="M558.902 240.225 L558.902 224.531 L563.162 224.531 L563.162 240.063 Q563.162 243.743 564.597 245.595 Q566.032 247.424 568.902 247.424 Q572.351 247.424 574.342 245.225 Q576.356 243.026 576.356 239.229 L576.356 224.531 L580.615 224.531 L580.615 250.456 L576.356 250.456 L576.356 246.475 Q574.805 248.836 572.745 249.993 Q570.708 251.128 568 251.128 Q563.532 251.128 561.217 248.35 Q558.902 245.572 558.902 240.225 M569.62 223.906 L569.62 223.906 Z" fill="#000000" fill-rule="nonzero" fill-opacity="1" /><path clip-path="url(#clip590)" d="M611.564 236.429 L611.564 238.512 L591.981 238.512 Q592.259 242.91 594.62 245.225 Q597.004 247.516 601.24 247.516 Q603.694 247.516 605.986 246.915 Q608.3 246.313 610.569 245.109 L610.569 249.137 Q608.277 250.109 605.87 250.618 Q603.462 251.128 600.986 251.128 Q594.782 251.128 591.148 247.516 Q587.537 243.905 587.537 237.748 Q587.537 231.382 590.963 227.655 Q594.412 223.906 600.245 223.906 Q605.476 223.906 608.509 227.285 Q611.564 230.642 611.564 236.429 M607.305 235.179 Q607.259 231.683 605.337 229.6 Q603.439 227.517 600.291 227.517 Q596.726 227.517 594.574 229.53 Q592.444 231.544 592.12 235.202 L607.305 235.179 Z" fill="#000000" fill-rule="nonzero" fill-opacity="1" /><path clip-path="url(#clip590)" d="M646.749 214.438 L646.749 217.98 L642.675 217.98 Q640.384 217.98 639.481 218.906 Q638.601 219.831 638.601 222.239 L638.601 224.531 L645.615 224.531 L645.615 227.841 L638.601 227.841 L638.601 250.456 L634.319 250.456 L634.319 227.841 L630.245 227.841 L630.245 224.531 L634.319 224.531 L634.319 222.725 Q634.319 218.396 636.333 216.429 Q638.347 214.438 642.721 214.438 L646.749 214.438 Z" fill="#000000" fill-rule="nonzero" fill-opacity="1" /><path clip-path="url(#clip590)" d="M660.545 214.484 Q657.444 219.808 655.939 225.017 Q654.434 230.225 654.434 235.572 Q654.434 240.919 655.939 246.174 Q657.467 251.405 660.545 256.706 L656.842 256.706 Q653.37 251.266 651.633 246.012 Q649.921 240.757 649.921 235.572 Q649.921 230.41 651.633 225.179 Q653.346 219.947 656.842 214.484 L660.545 214.484 Z" fill="#000000" fill-rule="nonzero" fill-opacity="1" /><path clip-path="url(#clip590)" d="M690.36 224.531 L680.985 237.146 L690.846 250.456 L685.823 250.456 L678.277 240.271 L670.731 250.456 L665.707 250.456 L675.777 236.892 L666.564 224.531 L671.587 224.531 L678.462 233.767 L685.337 224.531 L690.36 224.531 Z" fill="#000000" fill-rule="nonzero" fill-opacity="1" /><path clip-path="url(#clip590)" d="M696.193 214.484 L699.897 214.484 Q703.369 219.947 705.082 225.179 Q706.818 230.41 706.818 235.572 Q706.818 240.757 705.082 246.012 Q703.369 251.266 699.897 256.706 L696.193 256.706 Q699.272 251.405 700.777 246.174 Q702.305 240.919 702.305 235.572 Q702.305 230.225 700.777 225.017 Q699.272 219.808 696.193 214.484 Z" fill="#000000" fill-rule="nonzero" fill-opacity="1" /><path clip-path="url(#clip590)" d="M730.985 228.929 L760.661 228.929 L760.661 232.817 L730.985 232.817 L730.985 228.929 M730.985 238.373 L760.661 238.373 L760.661 242.308 L730.985 242.308 L730.985 238.373 Z" fill="#000000" fill-rule="nonzero" fill-opacity="1" /><path clip-path="url(#clip590)" d="M795.823 218.975 Q792.211 218.975 790.383 222.54 Q788.577 226.081 788.577 233.211 Q788.577 240.317 790.383 243.882 Q792.211 247.424 795.823 247.424 Q799.457 247.424 801.262 243.882 Q803.091 240.317 803.091 233.211 Q803.091 226.081 801.262 222.54 Q799.457 218.975 795.823 218.975 M795.823 215.271 Q801.633 215.271 804.688 219.878 Q807.767 224.461 807.767 233.211 Q807.767 241.938 804.688 246.544 Q801.633 251.128 795.823 251.128 Q790.012 251.128 786.934 246.544 Q783.878 241.938 783.878 233.211 Q783.878 224.461 786.934 219.878 Q790.012 215.271 795.823 215.271 Z" fill="#000000" fill-rule="nonzero" fill-opacity="1" /><path clip-path="url(#clip590)" d="M815.984 244.577 L820.869 244.577 L820.869 250.456 L815.984 250.456 L815.984 244.577 Z" fill="#000000" fill-rule="nonzero" fill-opacity="1" /><path clip-path="url(#clip590)" d="M831.1 215.896 L849.456 215.896 L849.456 219.831 L835.382 219.831 L835.382 228.304 Q836.401 227.956 837.42 227.794 Q838.438 227.609 839.457 227.609 Q845.244 227.609 848.623 230.78 Q852.003 233.952 852.003 239.368 Q852.003 244.947 848.531 248.049 Q845.058 251.128 838.739 251.128 Q836.563 251.128 834.295 250.757 Q832.049 250.387 829.642 249.646 L829.642 244.947 Q831.725 246.081 833.947 246.637 Q836.17 247.192 838.646 247.192 Q842.651 247.192 844.989 245.086 Q847.327 242.979 847.327 239.368 Q847.327 235.757 844.989 233.651 Q842.651 231.544 838.646 231.544 Q836.771 231.544 834.896 231.961 Q833.045 232.378 831.1 233.257 L831.1 215.896 Z" fill="#000000" fill-rule="nonzero" fill-opacity="1" /><path clip-path="url(#clip590)" d="M882.165 224.531 L872.79 237.146 L882.651 250.456 L877.628 250.456 L870.081 240.271 L862.535 250.456 L857.512 250.456 L867.581 236.892 L858.368 224.531 L863.392 224.531 L870.267 233.767 L877.142 224.531 L882.165 224.531 Z" fill="#000000" fill-rule="nonzero" fill-opacity="1" /><polyline clip-path="url(#clip590)" style="stroke:#008080; stroke-linecap:round; stroke-linejoin:round; stroke-width:8; stroke-opacity:1; fill:none" points="324.742,285.016 486.324,285.016 "/>
<path clip-path="url(#clip590)" d="M513.255 267.736 L517.93 267.736 L517.93 298.361 L534.759 298.361 L534.759 302.296 L513.255 302.296 L513.255 267.736 Z" fill="#000000" fill-rule="nonzero" fill-opacity="1" /><path clip-path="url(#clip590)" d="M552.305 272.343 L545.963 289.542 L558.671 289.542 L552.305 272.343 M549.666 267.736 L554.967 267.736 L568.139 302.296 L563.277 302.296 L560.129 293.431 L544.551 293.431 L541.403 302.296 L536.472 302.296 L549.666 267.736 Z" fill="#000000" fill-rule="nonzero" fill-opacity="1" /><path clip-path="url(#clip590)" d="M573.185 267.736 L580.152 267.736 L588.972 291.255 L597.837 267.736 L604.805 267.736 L604.805 302.296 L600.245 302.296 L600.245 271.949 L591.333 295.653 L586.634 295.653 L577.722 271.949 L577.722 302.296 L573.185 302.296 L573.185 267.736 Z" fill="#000000" fill-rule="nonzero" fill-opacity="1" /><path clip-path="url(#clip590)" d="M614.087 267.736 L618.763 267.736 L618.763 298.361 L635.592 298.361 L635.592 302.296 L614.087 302.296 L614.087 267.736 Z" fill="#000000" fill-rule="nonzero" fill-opacity="1" /><path clip-path="url(#clip590)" d="M668.508 266.278 L668.508 269.82 L664.434 269.82 Q662.143 269.82 661.24 270.746 Q660.36 271.671 660.36 274.079 L660.36 276.371 L667.374 276.371 L667.374 279.681 L660.36 279.681 L660.36 302.296 L656.078 302.296 L656.078 279.681 L652.004 279.681 L652.004 276.371 L656.078 276.371 L656.078 274.565 Q656.078 270.236 658.092 268.269 Q660.106 266.278 664.481 266.278 L668.508 266.278 Z" fill="#000000" fill-rule="nonzero" fill-opacity="1" /><path clip-path="url(#clip590)" d="M672.073 276.371 L676.332 276.371 L676.332 302.296 L672.073 302.296 L672.073 276.371 M672.073 266.278 L676.332 266.278 L676.332 271.671 L672.073 271.671 L672.073 266.278 Z" fill="#000000" fill-rule="nonzero" fill-opacity="1" /><path clip-path="url(#clip590)" d="M689.457 269.009 L689.457 276.371 L698.23 276.371 L698.23 279.681 L689.457 279.681 L689.457 293.755 Q689.457 296.926 690.314 297.829 Q691.193 298.731 693.855 298.731 L698.23 298.731 L698.23 302.296 L693.855 302.296 Q688.925 302.296 687.05 300.468 Q685.175 298.616 685.175 293.755 L685.175 279.681 L682.05 279.681 L682.05 276.371 L685.175 276.371 L685.175 269.009 L689.457 269.009 Z" fill="#000000" fill-rule="nonzero" fill-opacity="1" /></svg>
