<?xml version="1.0" encoding="utf-8"?>
<svg xmlns="http://www.w3.org/2000/svg" xmlns:xlink="http://www.w3.org/1999/xlink" width="672" height="480" viewBox="0 0 2688 1920">
<defs>
  <clipPath id="clip200">
    <rect x="0" y="0" width="2688" height="1920"/>
  </clipPath>
</defs>
<path clip-path="url(#clip200)" d="M0 1920 L2688 1920 L2688 -4.26326e-14 L0 -4.26326e-14  Z" fill="#ffffff" fill-rule="evenodd" fill-opacity="1"/>
<defs>
  <clipPath id="clip201">
    <rect x="225" y="127" width="2416" height="1607"/>
  </clipPath>
</defs>
<path clip-path="url(#clip200)" d="M225.654 1734.12 L2640.76 1734.12 L2640.76 127.792 L225.654 127.792  Z" fill="#ffffff" fill-rule="evenodd" fill-opacity="1"/>
<polyline clip-path="url(#clip201)" style="stroke:#000000; stroke-linecap:round; stroke-linejoin:round; stroke-width:2; stroke-opacity:0.1; fill:none" points="289.856,1734.12 289.856,127.792 "/>
<polyline clip-path="url(#clip201)" style="stroke:#000000; stroke-linecap:round; stroke-linejoin:round; stroke-width:2; stroke-opacity:0.1; fill:none" points="704.865,1734.12 704.865,127.792 "/>
<polyline clip-path="url(#clip201)" style="stroke:#000000; stroke-linecap:round; stroke-linejoin:round; stroke-width:2; stroke-opacity:0.1; fill:none" points="1119.87,1734.12 1119.87,127.792 "/>
<polyline clip-path="url(#clip201)" style="stroke:#000000; stroke-linecap:round; stroke-linejoin:round; stroke-width:2; stroke-opacity:0.1; fill:none" points="1534.88,1734.12 1534.88,127.792 "/>
<polyline clip-path="url(#clip201)" style="stroke:#000000; stroke-linecap:round; stroke-linejoin:round; stroke-width:2; stroke-opacity:0.1; fill:none" points="1949.89,1734.12 1949.89,127.792 "/>
<polyline clip-path="url(#clip201)" style="stroke:#000000; stroke-linecap:round; stroke-linejoin:round; stroke-width:2; stroke-opacity:0.1; fill:none" points="2364.9,1734.12 2364.9,127.792 "/>
<polyline clip-path="url(#clip201)" style="stroke:#000000; stroke-linecap:round; stroke-linejoin:round; stroke-width:2; stroke-opacity:0.1; fill:none" points="225.654,1675.97 2640.76,1675.97 "/>
<polyline clip-path="url(#clip201)" style="stroke:#000000; stroke-linecap:round; stroke-linejoin:round; stroke-width:2; stroke-opacity:0.1; fill:none" points="225.654,1402.75 2640.76,1402.75 "/>
<polyline clip-path="url(#clip201)" style="stroke:#000000; stroke-linecap:round; stroke-linejoin:round; stroke-width:2; stroke-opacity:0.1; fill:none" points="225.654,1129.53 2640.76,1129.53 "/>
<polyline clip-path="url(#clip201)" style="stroke:#000000; stroke-linecap:round; stroke-linejoin:round; stroke-width:2; stroke-opacity:0.1; fill:none" points="225.654,856.308 2640.76,856.308 "/>
<polyline clip-path="url(#clip201)" style="stroke:#000000; stroke-linecap:round; stroke-linejoin:round; stroke-width:2; stroke-opacity:0.1; fill:none" points="225.654,583.087 2640.76,583.087 "/>
<polyline clip-path="url(#clip201)" style="stroke:#000000; stroke-linecap:round; stroke-linejoin:round; stroke-width:2; stroke-opacity:0.1; fill:none" points="225.654,309.865 2640.76,309.865 "/>
<polyline clip-path="url(#clip200)" style="stroke:#000000; stroke-linecap:round; stroke-linejoin:round; stroke-width:4; stroke-opacity:1; fill:none" points="225.654,1734.12 2640.76,1734.12 "/>
<polyline clip-path="url(#clip200)" style="stroke:#000000; stroke-linecap:round; stroke-linejoin:round; stroke-width:4; stroke-opacity:1; fill:none" points="289.856,1734.12 289.856,1715.22 "/>
<polyline clip-path="url(#clip200)" style="stroke:#000000; stroke-linecap:round; stroke-linejoin:round; stroke-width:4; stroke-opacity:1; fill:none" points="704.865,1734.12 704.865,1715.22 "/>
<polyline clip-path="url(#clip200)" style="stroke:#000000; stroke-linecap:round; stroke-linejoin:round; stroke-width:4; stroke-opacity:1; fill:none" points="1119.87,1734.12 1119.87,1715.22 "/>
<polyline clip-path="url(#clip200)" style="stroke:#000000; stroke-linecap:round; stroke-linejoin:round; stroke-width:4; stroke-opacity:1; fill:none" points="1534.88,1734.12 1534.88,1715.22 "/>
<polyline clip-path="url(#clip200)" style="stroke:#000000; stroke-linecap:round; stroke-linejoin:round; stroke-width:4; stroke-opacity:1; fill:none" points="1949.89,1734.12 1949.89,1715.22 "/>
<polyline clip-path="url(#clip200)" style="stroke:#000000; stroke-linecap:round; stroke-linejoin:round; stroke-width:4; stroke-opacity:1; fill:none" points="2364.9,1734.12 2364.9,1715.22 "/>
<path clip-path="url(#clip200)" d="M289.856 1767.34 Q286.245 1767.34 284.416 1770.9 Q282.611 1774.45 282.611 1781.58 Q282.611 1788.68 284.416 1792.25 Q286.245 1795.79 289.856 1795.79 Q293.491 1795.79 295.296 1792.25 Q297.125 1788.68 297.125 1781.58 Q297.125 1774.45 295.296 1770.9 Q293.491 1767.34 289.856 1767.34 M289.856 1763.64 Q295.666 1763.64 298.722 1768.24 Q301.801 1772.83 301.801 1781.58 Q301.801 1790.3 298.722 1794.91 Q295.666 1799.49 289.856 1799.49 Q284.046 1799.49 280.967 1794.91 Q277.912 1790.3 277.912 1781.58 Q277.912 1772.83 280.967 1768.24 Q284.046 1763.64 289.856 1763.64 Z" fill="#000000" fill-rule="nonzero" fill-opacity="1" /><path clip-path="url(#clip200)" d="M695.247 1794.89 L702.886 1794.89 L702.886 1768.52 L694.576 1770.19 L694.576 1765.93 L702.84 1764.26 L707.515 1764.26 L707.515 1794.89 L715.154 1794.89 L715.154 1798.82 L695.247 1798.82 L695.247 1794.89 Z" fill="#000000" fill-rule="nonzero" fill-opacity="1" /><path clip-path="url(#clip200)" d="M1114.53 1794.89 L1130.85 1794.89 L1130.85 1798.82 L1108.9 1798.82 L1108.9 1794.89 Q1111.56 1792.13 1116.15 1787.5 Q1120.75 1782.85 1121.93 1781.51 Q1124.18 1778.98 1125.06 1777.25 Q1125.96 1775.49 1125.96 1773.8 Q1125.96 1771.04 1124.02 1769.31 Q1122.1 1767.57 1118.99 1767.57 Q1116.79 1767.57 1114.34 1768.34 Q1111.91 1769.1 1109.13 1770.65 L1109.13 1765.93 Q1111.96 1764.79 1114.41 1764.21 Q1116.86 1763.64 1118.9 1763.64 Q1124.27 1763.64 1127.47 1766.32 Q1130.66 1769.01 1130.66 1773.5 Q1130.66 1775.63 1129.85 1777.55 Q1129.06 1779.45 1126.96 1782.04 Q1126.38 1782.71 1123.28 1785.93 Q1120.17 1789.12 1114.53 1794.89 Z" fill="#000000" fill-rule="nonzero" fill-opacity="1" /><path clip-path="url(#clip200)" d="M1539.13 1780.19 Q1542.49 1780.9 1544.36 1783.17 Q1546.26 1785.44 1546.26 1788.77 Q1546.26 1793.89 1542.74 1796.69 Q1539.22 1799.49 1532.74 1799.49 Q1530.57 1799.49 1528.25 1799.05 Q1525.96 1798.64 1523.51 1797.78 L1523.51 1793.27 Q1525.45 1794.4 1527.76 1794.98 Q1530.08 1795.56 1532.6 1795.56 Q1537 1795.56 1539.29 1793.82 Q1541.61 1792.08 1541.61 1788.77 Q1541.61 1785.72 1539.45 1784.01 Q1537.32 1782.27 1533.5 1782.27 L1529.48 1782.27 L1529.48 1778.43 L1533.69 1778.43 Q1537.14 1778.43 1538.97 1777.06 Q1540.8 1775.67 1540.8 1773.08 Q1540.8 1770.42 1538.9 1769.01 Q1537.02 1767.57 1533.5 1767.57 Q1531.58 1767.57 1529.38 1767.99 Q1527.19 1768.4 1524.55 1769.28 L1524.55 1765.12 Q1527.21 1764.38 1529.52 1764.01 Q1531.86 1763.64 1533.92 1763.64 Q1539.25 1763.64 1542.35 1766.07 Q1545.45 1768.47 1545.45 1772.59 Q1545.45 1775.46 1543.81 1777.46 Q1542.16 1779.42 1539.13 1780.19 Z" fill="#000000" fill-rule="nonzero" fill-opacity="1" /><path clip-path="url(#clip200)" d="M1952.9 1768.34 L1941.09 1786.78 L1952.9 1786.78 L1952.9 1768.34 M1951.67 1764.26 L1957.55 1764.26 L1957.55 1786.78 L1962.48 1786.78 L1962.48 1790.67 L1957.55 1790.67 L1957.55 1798.82 L1952.9 1798.82 L1952.9 1790.67 L1937.3 1790.67 L1937.3 1786.16 L1951.67 1764.26 Z" fill="#000000" fill-rule="nonzero" fill-opacity="1" /><path clip-path="url(#clip200)" d="M2355.18 1764.26 L2373.53 1764.26 L2373.53 1768.2 L2359.46 1768.2 L2359.46 1776.67 Q2360.48 1776.32 2361.5 1776.16 Q2362.52 1775.97 2363.53 1775.97 Q2369.32 1775.97 2372.7 1779.15 Q2376.08 1782.32 2376.08 1787.73 Q2376.08 1793.31 2372.61 1796.41 Q2369.14 1799.49 2362.82 1799.49 Q2360.64 1799.49 2358.37 1799.12 Q2356.13 1798.75 2353.72 1798.01 L2353.72 1793.31 Q2355.8 1794.45 2358.02 1795 Q2360.25 1795.56 2362.72 1795.56 Q2366.73 1795.56 2369.07 1793.45 Q2371.4 1791.34 2371.4 1787.73 Q2371.4 1784.12 2369.07 1782.02 Q2366.73 1779.91 2362.72 1779.91 Q2360.85 1779.91 2358.97 1780.33 Q2357.12 1780.74 2355.18 1781.62 L2355.18 1764.26 Z" fill="#000000" fill-rule="nonzero" fill-opacity="1" /><path clip-path="url(#clip200)" d="M1243.54 1841.06 L1243.54 1858.92 L1251.62 1858.92 Q1256.11 1858.92 1258.56 1856.6 Q1261.01 1854.27 1261.01 1849.98 Q1261.01 1845.71 1258.56 1843.39 Q1256.11 1841.06 1251.62 1841.06 L1243.54 1841.06 M1237.11 1835.78 L1251.62 1835.78 Q1259.61 1835.78 1263.69 1839.41 Q1267.79 1843.01 1267.79 1849.98 Q1267.79 1857.01 1263.69 1860.61 Q1259.61 1864.2 1251.62 1864.2 L1243.54 1864.2 L1243.54 1883.3 L1237.11 1883.3 L1237.11 1835.78 Z" fill="#000000" fill-rule="nonzero" fill-opacity="1" /><path clip-path="url(#clip200)" d="M1287.65 1851.76 Q1282.94 1851.76 1280.21 1855.45 Q1277.47 1859.11 1277.47 1865.51 Q1277.47 1871.91 1280.17 1875.6 Q1282.91 1879.26 1287.65 1879.26 Q1292.33 1879.26 1295.07 1875.57 Q1297.81 1871.87 1297.81 1865.51 Q1297.81 1859.17 1295.07 1855.48 Q1292.33 1851.76 1287.65 1851.76 M1287.65 1846.79 Q1295.29 1846.79 1299.65 1851.76 Q1304.01 1856.72 1304.01 1865.51 Q1304.01 1874.26 1299.65 1879.26 Q1295.29 1884.22 1287.65 1884.22 Q1279.98 1884.22 1275.62 1879.26 Q1271.29 1874.26 1271.29 1865.51 Q1271.29 1856.72 1275.62 1851.76 Q1279.98 1846.79 1287.65 1846.79 Z" fill="#000000" fill-rule="nonzero" fill-opacity="1" /><path clip-path="url(#clip200)" d="M1319.39 1877.95 L1319.39 1896.86 L1313.5 1896.86 L1313.5 1847.65 L1319.39 1847.65 L1319.39 1853.06 Q1321.23 1849.88 1324.03 1848.35 Q1326.87 1846.79 1330.78 1846.79 Q1337.27 1846.79 1341.32 1851.95 Q1345.39 1857.11 1345.39 1865.51 Q1345.39 1873.91 1341.32 1879.07 Q1337.27 1884.22 1330.78 1884.22 Q1326.87 1884.22 1324.03 1882.7 Q1321.23 1881.14 1319.39 1877.95 M1339.31 1865.51 Q1339.31 1859.05 1336.64 1855.39 Q1334 1851.7 1329.35 1851.7 Q1324.7 1851.7 1322.03 1855.39 Q1319.39 1859.05 1319.39 1865.51 Q1319.39 1871.97 1322.03 1875.66 Q1324.7 1879.32 1329.35 1879.32 Q1334 1879.32 1336.64 1875.66 Q1339.31 1871.97 1339.31 1865.51 Z" fill="#000000" fill-rule="nonzero" fill-opacity="1" /><path clip-path="url(#clip200)" d="M1354.49 1869.23 L1354.49 1847.65 L1360.35 1847.65 L1360.35 1869.01 Q1360.35 1874.07 1362.32 1876.62 Q1364.3 1879.13 1368.24 1879.13 Q1372.99 1879.13 1375.72 1876.11 Q1378.49 1873.08 1378.49 1867.86 L1378.49 1847.65 L1384.35 1847.65 L1384.35 1883.3 L1378.49 1883.3 L1378.49 1877.83 Q1376.36 1881.07 1373.53 1882.66 Q1370.73 1884.22 1367 1884.22 Q1360.86 1884.22 1357.68 1880.4 Q1354.49 1876.59 1354.49 1869.23 M1369.23 1846.79 L1369.23 1846.79 Z" fill="#000000" fill-rule="nonzero" fill-opacity="1" /><path clip-path="url(#clip200)" d="M1396.41 1833.78 L1402.27 1833.78 L1402.27 1883.3 L1396.41 1883.3 L1396.41 1833.78 Z" fill="#000000" fill-rule="nonzero" fill-opacity="1" /><path clip-path="url(#clip200)" d="M1430.72 1865.38 Q1423.62 1865.38 1420.89 1867 Q1418.15 1868.63 1418.15 1872.54 Q1418.15 1875.66 1420.19 1877.51 Q1422.26 1879.32 1425.79 1879.32 Q1430.66 1879.32 1433.59 1875.88 Q1436.55 1872.42 1436.55 1866.69 L1436.55 1865.38 L1430.72 1865.38 M1442.4 1862.96 L1442.4 1883.3 L1436.55 1883.3 L1436.55 1877.89 Q1434.54 1881.14 1431.55 1882.7 Q1428.56 1884.22 1424.23 1884.22 Q1418.76 1884.22 1415.51 1881.17 Q1412.29 1878.08 1412.29 1872.92 Q1412.29 1866.91 1416.3 1863.85 Q1420.35 1860.8 1428.34 1860.8 L1436.55 1860.8 L1436.55 1860.23 Q1436.55 1856.18 1433.87 1853.99 Q1431.23 1851.76 1426.43 1851.76 Q1423.37 1851.76 1420.47 1852.49 Q1417.58 1853.22 1414.9 1854.69 L1414.9 1849.28 Q1418.12 1848.03 1421.14 1847.43 Q1424.17 1846.79 1427.03 1846.79 Q1434.76 1846.79 1438.58 1850.8 Q1442.4 1854.81 1442.4 1862.96 Z" fill="#000000" fill-rule="nonzero" fill-opacity="1" /><path clip-path="url(#clip200)" d="M1460.26 1837.53 L1460.26 1847.65 L1472.32 1847.65 L1472.32 1852.2 L1460.26 1852.2 L1460.26 1871.56 Q1460.26 1875.92 1461.44 1877.16 Q1462.65 1878.4 1466.31 1878.4 L1472.32 1878.4 L1472.32 1883.3 L1466.31 1883.3 Q1459.53 1883.3 1456.95 1880.79 Q1454.37 1878.24 1454.37 1871.56 L1454.37 1852.2 L1450.07 1852.2 L1450.07 1847.65 L1454.37 1847.65 L1454.37 1837.53 L1460.26 1837.53 Z" fill="#000000" fill-rule="nonzero" fill-opacity="1" /><path clip-path="url(#clip200)" d="M1480.02 1847.65 L1485.88 1847.65 L1485.88 1883.3 L1480.02 1883.3 L1480.02 1847.65 M1480.02 1833.78 L1485.88 1833.78 L1485.88 1841.19 L1480.02 1841.19 L1480.02 1833.78 Z" fill="#000000" fill-rule="nonzero" fill-opacity="1" /><path clip-path="url(#clip200)" d="M1511.95 1851.76 Q1507.24 1851.76 1504.5 1855.45 Q1501.76 1859.11 1501.76 1865.51 Q1501.76 1871.91 1504.47 1875.6 Q1507.21 1879.26 1511.95 1879.26 Q1516.63 1879.26 1519.37 1875.57 Q1522.1 1871.87 1522.1 1865.51 Q1522.1 1859.17 1519.37 1855.48 Q1516.63 1851.76 1511.95 1851.76 M1511.95 1846.79 Q1519.59 1846.79 1523.95 1851.76 Q1528.31 1856.72 1528.31 1865.51 Q1528.31 1874.26 1523.95 1879.26 Q1519.59 1884.22 1511.95 1884.22 Q1504.28 1884.22 1499.92 1879.26 Q1495.59 1874.26 1495.59 1865.51 Q1495.59 1856.72 1499.92 1851.76 Q1504.28 1846.79 1511.95 1846.79 Z" fill="#000000" fill-rule="nonzero" fill-opacity="1" /><path clip-path="url(#clip200)" d="M1567.65 1861.78 L1567.65 1883.3 L1561.79 1883.3 L1561.79 1861.98 Q1561.79 1856.92 1559.82 1854.4 Q1557.85 1851.89 1553.9 1851.89 Q1549.16 1851.89 1546.42 1854.91 Q1543.68 1857.93 1543.68 1863.15 L1543.68 1883.3 L1537.79 1883.3 L1537.79 1847.65 L1543.68 1847.65 L1543.68 1853.19 Q1545.78 1849.98 1548.62 1848.39 Q1551.48 1846.79 1555.2 1846.79 Q1561.35 1846.79 1564.5 1850.61 Q1567.65 1854.4 1567.65 1861.78 Z" fill="#000000" fill-rule="nonzero" fill-opacity="1" /><path clip-path="url(#clip200)" d="M1599.45 1869.23 L1599.45 1847.65 L1605.3 1847.65 L1605.3 1869.01 Q1605.3 1874.07 1607.28 1876.62 Q1609.25 1879.13 1613.2 1879.13 Q1617.94 1879.13 1620.68 1876.11 Q1623.44 1873.08 1623.44 1867.86 L1623.44 1847.65 L1629.3 1847.65 L1629.3 1883.3 L1623.44 1883.3 L1623.44 1877.83 Q1621.31 1881.07 1618.48 1882.66 Q1615.68 1884.22 1611.95 1884.22 Q1605.81 1884.22 1602.63 1880.4 Q1599.45 1876.59 1599.45 1869.23 M1614.18 1846.79 L1614.18 1846.79 Z" fill="#000000" fill-rule="nonzero" fill-opacity="1" /><polyline clip-path="url(#clip200)" style="stroke:#000000; stroke-linecap:round; stroke-linejoin:round; stroke-width:4; stroke-opacity:1; fill:none" points="225.654,1734.12 225.654,127.792 "/>
<polyline clip-path="url(#clip200)" style="stroke:#000000; stroke-linecap:round; stroke-linejoin:round; stroke-width:4; stroke-opacity:1; fill:none" points="225.654,1675.97 244.552,1675.97 "/>
<polyline clip-path="url(#clip200)" style="stroke:#000000; stroke-linecap:round; stroke-linejoin:round; stroke-width:4; stroke-opacity:1; fill:none" points="225.654,1402.75 244.552,1402.75 "/>
<polyline clip-path="url(#clip200)" style="stroke:#000000; stroke-linecap:round; stroke-linejoin:round; stroke-width:4; stroke-opacity:1; fill:none" points="225.654,1129.53 244.552,1129.53 "/>
<polyline clip-path="url(#clip200)" style="stroke:#000000; stroke-linecap:round; stroke-linejoin:round; stroke-width:4; stroke-opacity:1; fill:none" points="225.654,856.308 244.552,856.308 "/>
<polyline clip-path="url(#clip200)" style="stroke:#000000; stroke-linecap:round; stroke-linejoin:round; stroke-width:4; stroke-opacity:1; fill:none" points="225.654,583.087 244.552,583.087 "/>
<polyline clip-path="url(#clip200)" style="stroke:#000000; stroke-linecap:round; stroke-linejoin:round; stroke-width:4; stroke-opacity:1; fill:none" points="225.654,309.865 244.552,309.865 "/>
<path clip-path="url(#clip200)" d="M128.159 1661.77 Q124.548 1661.77 122.719 1665.34 Q120.913 1668.88 120.913 1676.01 Q120.913 1683.11 122.719 1686.68 Q124.548 1690.22 128.159 1690.22 Q131.793 1690.22 133.599 1686.68 Q135.427 1683.11 135.427 1676.01 Q135.427 1668.88 133.599 1665.34 Q131.793 1661.77 128.159 1661.77 M128.159 1658.07 Q133.969 1658.07 137.025 1662.67 Q140.103 1667.26 140.103 1676.01 Q140.103 1684.73 137.025 1689.34 Q133.969 1693.92 128.159 1693.92 Q122.349 1693.92 119.27 1689.34 Q116.214 1684.73 116.214 1676.01 Q116.214 1667.26 119.27 1662.67 Q122.349 1658.07 128.159 1658.07 Z" fill="#000000" fill-rule="nonzero" fill-opacity="1" /><path clip-path="url(#clip200)" d="M148.321 1687.37 L153.205 1687.37 L153.205 1693.25 L148.321 1693.25 L148.321 1687.37 Z" fill="#000000" fill-rule="nonzero" fill-opacity="1" /><path clip-path="url(#clip200)" d="M173.39 1661.77 Q169.779 1661.77 167.95 1665.34 Q166.145 1668.88 166.145 1676.01 Q166.145 1683.11 167.95 1686.68 Q169.779 1690.22 173.39 1690.22 Q177.024 1690.22 178.83 1686.68 Q180.659 1683.11 180.659 1676.01 Q180.659 1668.88 178.83 1665.34 Q177.024 1661.77 173.39 1661.77 M173.39 1658.07 Q179.2 1658.07 182.256 1662.67 Q185.334 1667.26 185.334 1676.01 Q185.334 1684.73 182.256 1689.34 Q179.2 1693.92 173.39 1693.92 Q167.58 1693.92 164.501 1689.34 Q161.446 1684.73 161.446 1676.01 Q161.446 1667.26 164.501 1662.67 Q167.58 1658.07 173.39 1658.07 Z" fill="#000000" fill-rule="nonzero" fill-opacity="1" /><path clip-path="url(#clip200)" d="M129.154 1388.55 Q125.543 1388.55 123.714 1392.12 Q121.909 1395.66 121.909 1402.79 Q121.909 1409.89 123.714 1413.46 Q125.543 1417 129.154 1417 Q132.788 1417 134.594 1413.46 Q136.423 1409.89 136.423 1402.79 Q136.423 1395.66 134.594 1392.12 Q132.788 1388.55 129.154 1388.55 M129.154 1384.85 Q134.964 1384.85 138.02 1389.45 Q141.099 1394.04 141.099 1402.79 Q141.099 1411.51 138.02 1416.12 Q134.964 1420.7 129.154 1420.7 Q123.344 1420.7 120.265 1416.12 Q117.21 1411.51 117.21 1402.79 Q117.21 1394.04 120.265 1389.45 Q123.344 1384.85 129.154 1384.85 Z" fill="#000000" fill-rule="nonzero" fill-opacity="1" /><path clip-path="url(#clip200)" d="M149.316 1414.15 L154.2 1414.15 L154.2 1420.03 L149.316 1420.03 L149.316 1414.15 Z" fill="#000000" fill-rule="nonzero" fill-opacity="1" /><path clip-path="url(#clip200)" d="M164.432 1385.47 L182.788 1385.47 L182.788 1389.41 L168.714 1389.41 L168.714 1397.88 Q169.733 1397.53 170.751 1397.37 Q171.77 1397.18 172.788 1397.18 Q178.575 1397.18 181.955 1400.36 Q185.334 1403.53 185.334 1408.94 Q185.334 1414.52 181.862 1417.62 Q178.39 1420.7 172.071 1420.7 Q169.895 1420.7 167.626 1420.33 Q165.381 1419.96 162.973 1419.22 L162.973 1414.52 Q165.057 1415.66 167.279 1416.21 Q169.501 1416.77 171.978 1416.77 Q175.983 1416.77 178.321 1414.66 Q180.659 1412.55 180.659 1408.94 Q180.659 1405.33 178.321 1403.23 Q175.983 1401.12 171.978 1401.12 Q170.103 1401.12 168.228 1401.54 Q166.376 1401.95 164.432 1402.83 L164.432 1385.47 Z" fill="#000000" fill-rule="nonzero" fill-opacity="1" /><path clip-path="url(#clip200)" d="M118.969 1142.87 L126.608 1142.87 L126.608 1116.51 L118.298 1118.18 L118.298 1113.92 L126.562 1112.25 L131.238 1112.25 L131.238 1142.87 L138.876 1142.87 L138.876 1146.81 L118.969 1146.81 L118.969 1142.87 Z" fill="#000000" fill-rule="nonzero" fill-opacity="1" /><path clip-path="url(#clip200)" d="M148.321 1140.93 L153.205 1140.93 L153.205 1146.81 L148.321 1146.81 L148.321 1140.93 Z" fill="#000000" fill-rule="nonzero" fill-opacity="1" /><path clip-path="url(#clip200)" d="M173.39 1115.33 Q169.779 1115.33 167.95 1118.89 Q166.145 1122.44 166.145 1129.56 Q166.145 1136.67 167.95 1140.24 Q169.779 1143.78 173.39 1143.78 Q177.024 1143.78 178.83 1140.24 Q180.659 1136.67 180.659 1129.56 Q180.659 1122.44 178.83 1118.89 Q177.024 1115.33 173.39 1115.33 M173.39 1111.63 Q179.2 1111.63 182.256 1116.23 Q185.334 1120.81 185.334 1129.56 Q185.334 1138.29 182.256 1142.9 Q179.2 1147.48 173.39 1147.48 Q167.58 1147.48 164.501 1142.9 Q161.446 1138.29 161.446 1129.56 Q161.446 1120.81 164.501 1116.23 Q167.58 1111.63 173.39 1111.63 Z" fill="#000000" fill-rule="nonzero" fill-opacity="1" /><path clip-path="url(#clip200)" d="M119.964 869.653 L127.603 869.653 L127.603 843.288 L119.293 844.954 L119.293 840.695 L127.557 839.028 L132.233 839.028 L132.233 869.653 L139.872 869.653 L139.872 873.588 L119.964 873.588 L119.964 869.653 Z" fill="#000000" fill-rule="nonzero" fill-opacity="1" /><path clip-path="url(#clip200)" d="M149.316 867.709 L154.2 867.709 L154.2 873.588 L149.316 873.588 L149.316 867.709 Z" fill="#000000" fill-rule="nonzero" fill-opacity="1" /><path clip-path="url(#clip200)" d="M164.432 839.028 L182.788 839.028 L182.788 842.964 L168.714 842.964 L168.714 851.436 Q169.733 851.088 170.751 850.926 Q171.77 850.741 172.788 850.741 Q178.575 850.741 181.955 853.913 Q185.334 857.084 185.334 862.5 Q185.334 868.079 181.862 871.181 Q178.39 874.26 172.071 874.26 Q169.895 874.26 167.626 873.889 Q165.381 873.519 162.973 872.778 L162.973 868.079 Q165.057 869.213 167.279 869.769 Q169.501 870.324 171.978 870.324 Q175.983 870.324 178.321 868.218 Q180.659 866.112 180.659 862.5 Q180.659 858.889 178.321 856.783 Q175.983 854.676 171.978 854.676 Q170.103 854.676 168.228 855.093 Q166.376 855.51 164.432 856.389 L164.432 839.028 Z" fill="#000000" fill-rule="nonzero" fill-opacity="1" /><path clip-path="url(#clip200)" d="M122.187 596.432 L138.506 596.432 L138.506 600.367 L116.562 600.367 L116.562 596.432 Q119.224 593.677 123.807 589.047 Q128.413 584.395 129.594 583.052 Q131.839 580.529 132.719 578.793 Q133.622 577.033 133.622 575.344 Q133.622 572.589 131.677 570.853 Q129.756 569.117 126.654 569.117 Q124.455 569.117 122.001 569.881 Q119.571 570.645 116.793 572.196 L116.793 567.473 Q119.617 566.339 122.071 565.76 Q124.525 565.182 126.562 565.182 Q131.932 565.182 135.126 567.867 Q138.321 570.552 138.321 575.043 Q138.321 577.172 137.511 579.094 Q136.724 580.992 134.617 583.584 Q134.038 584.256 130.937 587.473 Q127.835 590.668 122.187 596.432 Z" fill="#000000" fill-rule="nonzero" fill-opacity="1" /><path clip-path="url(#clip200)" d="M148.321 594.487 L153.205 594.487 L153.205 600.367 L148.321 600.367 L148.321 594.487 Z" fill="#000000" fill-rule="nonzero" fill-opacity="1" /><path clip-path="url(#clip200)" d="M173.39 568.885 Q169.779 568.885 167.95 572.45 Q166.145 575.992 166.145 583.121 Q166.145 590.228 167.95 593.793 Q169.779 597.334 173.39 597.334 Q177.024 597.334 178.83 593.793 Q180.659 590.228 180.659 583.121 Q180.659 575.992 178.83 572.45 Q177.024 568.885 173.39 568.885 M173.39 565.182 Q179.2 565.182 182.256 569.788 Q185.334 574.371 185.334 583.121 Q185.334 591.848 182.256 596.455 Q179.2 601.038 173.39 601.038 Q167.58 601.038 164.501 596.455 Q161.446 591.848 161.446 583.121 Q161.446 574.371 164.501 569.788 Q167.58 565.182 173.39 565.182 Z" fill="#000000" fill-rule="nonzero" fill-opacity="1" /><path clip-path="url(#clip200)" d="M123.182 323.21 L139.501 323.21 L139.501 327.145 L117.557 327.145 L117.557 323.21 Q120.219 320.455 124.802 315.826 Q129.409 311.173 130.589 309.83 Q132.835 307.307 133.714 305.571 Q134.617 303.812 134.617 302.122 Q134.617 299.367 132.673 297.631 Q130.751 295.895 127.65 295.895 Q125.451 295.895 122.997 296.659 Q120.566 297.423 117.789 298.974 L117.789 294.252 Q120.613 293.117 123.066 292.539 Q125.52 291.96 127.557 291.96 Q132.927 291.96 136.122 294.645 Q139.316 297.33 139.316 301.821 Q139.316 303.951 138.506 305.872 Q137.719 307.77 135.612 310.363 Q135.034 311.034 131.932 314.252 Q128.83 317.446 123.182 323.21 Z" fill="#000000" fill-rule="nonzero" fill-opacity="1" /><path clip-path="url(#clip200)" d="M149.316 321.265 L154.2 321.265 L154.2 327.145 L149.316 327.145 L149.316 321.265 Z" fill="#000000" fill-rule="nonzero" fill-opacity="1" /><path clip-path="url(#clip200)" d="M164.432 292.585 L182.788 292.585 L182.788 296.52 L168.714 296.52 L168.714 304.992 Q169.733 304.645 170.751 304.483 Q171.77 304.298 172.788 304.298 Q178.575 304.298 181.955 307.469 Q185.334 310.64 185.334 316.057 Q185.334 321.636 181.862 324.738 Q178.39 327.816 172.071 327.816 Q169.895 327.816 167.626 327.446 Q165.381 327.076 162.973 326.335 L162.973 321.636 Q165.057 322.77 167.279 323.326 Q169.501 323.881 171.978 323.881 Q175.983 323.881 178.321 321.775 Q180.659 319.668 180.659 316.057 Q180.659 312.446 178.321 310.34 Q175.983 308.233 171.978 308.233 Q170.103 308.233 168.228 308.65 Q166.376 309.066 164.432 309.946 L164.432 292.585 Z" fill="#000000" fill-rule="nonzero" fill-opacity="1" /><path clip-path="url(#clip200)" d="M31.465 963.802 Q30.8921 964.788 30.6375 965.966 Q30.351 967.112 30.351 968.512 Q30.351 973.477 33.5975 976.151 Q36.8122 978.793 42.8596 978.793 L61.6384 978.793 L61.6384 984.681 L25.9905 984.681 L25.9905 978.793 L31.5287 978.793 Q28.2821 976.947 26.7225 973.987 Q25.1311 971.027 25.1311 966.793 Q25.1311 966.189 25.2266 965.457 Q25.2903 964.725 25.4494 963.833 L31.465 963.802 Z" fill="#000000" fill-rule="nonzero" fill-opacity="1" /><path clip-path="url(#clip200)" d="M12.1769 943.59 Q19.4975 947.856 26.6589 949.924 Q33.8203 951.993 41.1727 951.993 Q48.5251 951.993 55.7502 949.924 Q62.9434 947.824 70.2321 943.59 L70.2321 948.683 Q62.7524 953.457 55.5274 955.844 Q48.3023 958.2 41.1727 958.2 Q34.0749 958.2 26.8817 955.844 Q19.6884 953.489 12.1769 948.683 L12.1769 943.59 Z" fill="#000000" fill-rule="nonzero" fill-opacity="1" /><path clip-path="url(#clip200)" d="M47.5702 932.832 L25.9905 932.832 L25.9905 926.976 L47.3474 926.976 Q52.4082 926.976 54.9545 925.003 Q57.4689 923.029 57.4689 919.083 Q57.4689 914.34 54.4452 911.603 Q51.4215 908.834 46.2016 908.834 L25.9905 908.834 L25.9905 902.977 L61.6384 902.977 L61.6384 908.834 L56.1639 908.834 Q59.4104 910.966 61.0019 913.799 Q62.5615 916.6 62.5615 920.324 Q62.5615 926.467 58.742 929.65 Q54.9226 932.832 47.5702 932.832 M25.1311 918.096 L25.1311 918.096 Z" fill="#000000" fill-rule="nonzero" fill-opacity="1" /><path clip-path="url(#clip200)" d="M12.1769 891.837 L12.1769 886.745 Q19.6884 881.97 26.8817 879.615 Q34.0749 877.228 41.1727 877.228 Q48.3023 877.228 55.5274 879.615 Q62.7524 881.97 70.2321 886.745 L70.2321 891.837 Q62.9434 887.604 55.7502 885.535 Q48.5251 883.435 41.1727 883.435 Q33.8203 883.435 26.6589 885.535 Q19.4975 887.604 12.1769 891.837 Z" fill="#000000" fill-rule="nonzero" fill-opacity="1" /><path clip-path="url(#clip200)" d="M595.721 44.2197 Q598.354 45.1109 600.825 48.0275 Q603.337 50.9442 605.848 56.0483 L614.153 72.576 L605.362 72.576 L597.625 57.061 Q594.627 50.9847 591.792 48.9997 Q588.997 47.0148 584.136 47.0148 L575.224 47.0148 L575.224 72.576 L567.041 72.576 L567.041 12.096 L585.513 12.096 Q595.883 12.096 600.987 16.4305 Q606.092 20.7649 606.092 29.5149 Q606.092 35.2267 603.418 38.994 Q600.785 42.7613 595.721 44.2197 M575.224 18.8205 L575.224 40.2903 L585.513 40.2903 Q591.427 40.2903 594.425 37.5762 Q597.463 34.8216 597.463 29.5149 Q597.463 24.2082 594.425 21.5346 Q591.427 18.8205 585.513 18.8205 L575.224 18.8205 Z" fill="#000000" fill-rule="nonzero" fill-opacity="1" /><path clip-path="url(#clip200)" d="M643.157 49.7694 Q634.124 49.7694 630.64 51.8354 Q627.156 53.9013 627.156 58.8839 Q627.156 62.8538 629.749 65.2034 Q632.382 67.5124 636.878 67.5124 Q643.076 67.5124 646.803 63.1374 Q650.57 58.7219 650.57 51.4303 L650.57 49.7694 L643.157 49.7694 M658.024 46.6907 L658.024 72.576 L650.57 72.576 L650.57 65.6895 Q648.018 69.8214 644.211 71.8063 Q640.403 73.7508 634.893 73.7508 Q627.926 73.7508 623.794 69.8619 Q619.703 65.9325 619.703 59.3701 Q619.703 51.7138 624.807 47.825 Q629.951 43.9361 640.119 43.9361 L650.57 43.9361 L650.57 43.2069 Q650.57 38.0623 647.168 35.2672 Q643.805 32.4315 637.689 32.4315 Q633.8 32.4315 630.113 33.3632 Q626.427 34.295 623.024 36.1584 L623.024 29.2718 Q627.116 27.692 630.964 26.9223 Q634.812 26.1121 638.458 26.1121 Q648.302 26.1121 653.163 31.2163 Q658.024 36.3204 658.024 46.6907 Z" fill="#000000" fill-rule="nonzero" fill-opacity="1" /><path clip-path="url(#clip200)" d="M680.75 14.324 L680.75 27.2059 L696.103 27.2059 L696.103 32.9987 L680.75 32.9987 L680.75 57.6282 Q680.75 63.1779 682.249 64.7578 Q683.788 66.3376 688.446 66.3376 L696.103 66.3376 L696.103 72.576 L688.446 72.576 Q679.818 72.576 676.537 69.3758 Q673.256 66.1351 673.256 57.6282 L673.256 32.9987 L667.787 32.9987 L667.787 27.2059 L673.256 27.2059 L673.256 14.324 L680.75 14.324 Z" fill="#000000" fill-rule="nonzero" fill-opacity="1" /><path clip-path="url(#clip200)" d="M744.713 48.0275 L744.713 51.6733 L710.443 51.6733 Q710.929 59.3701 715.061 63.421 Q719.233 67.4314 726.646 67.4314 Q730.94 67.4314 734.951 66.3781 Q739.002 65.3249 742.972 63.2184 L742.972 70.267 Q738.961 71.9684 734.748 72.8596 Q730.535 73.7508 726.201 73.7508 Q715.344 73.7508 708.985 67.4314 Q702.665 61.1119 702.665 50.3365 Q702.665 39.1965 708.66 32.6746 Q714.696 26.1121 724.905 26.1121 Q734.06 26.1121 739.366 32.0264 Q744.713 37.9003 744.713 48.0275 M737.26 45.84 Q737.179 39.7232 733.817 36.0774 Q730.495 32.4315 724.986 32.4315 Q718.747 32.4315 714.98 35.9558 Q711.253 39.4801 710.686 45.8805 L737.26 45.84 Z" fill="#000000" fill-rule="nonzero" fill-opacity="1" /><path clip-path="url(#clip200)" d="M812.323 44.2197 Q814.956 45.1109 817.427 48.0275 Q819.939 50.9442 822.45 56.0483 L830.755 72.576 L821.964 72.576 L814.227 57.061 Q811.229 50.9847 808.394 48.9997 Q805.599 47.0148 800.737 47.0148 L791.826 47.0148 L791.826 72.576 L783.643 72.576 L783.643 12.096 L802.115 12.096 Q812.485 12.096 817.589 16.4305 Q822.693 20.7649 822.693 29.5149 Q822.693 35.2267 820.02 38.994 Q817.387 42.7613 812.323 44.2197 M791.826 18.8205 L791.826 40.2903 L802.115 40.2903 Q808.029 40.2903 811.027 37.5762 Q814.065 34.8216 814.065 29.5149 Q814.065 24.2082 811.027 21.5346 Q808.029 18.8205 802.115 18.8205 L791.826 18.8205 Z" fill="#000000" fill-rule="nonzero" fill-opacity="1" /><path clip-path="url(#clip200)" d="M876.044 48.0275 L876.044 51.6733 L841.773 51.6733 Q842.259 59.3701 846.391 63.421 Q850.564 67.4314 857.977 67.4314 Q862.271 67.4314 866.281 66.3781 Q870.332 65.3249 874.302 63.2184 L874.302 70.267 Q870.292 71.9684 866.079 72.8596 Q861.866 73.7508 857.531 73.7508 Q846.675 73.7508 840.315 67.4314 Q833.995 61.1119 833.995 50.3365 Q833.995 39.1965 839.991 32.6746 Q846.027 26.1121 856.235 26.1121 Q865.39 26.1121 870.697 32.0264 Q876.044 37.9003 876.044 48.0275 M868.59 45.84 Q868.509 39.7232 865.147 36.0774 Q861.825 32.4315 856.316 32.4315 Q850.078 32.4315 846.31 35.9558 Q842.583 39.4801 842.016 45.8805 L868.59 45.84 Z" fill="#000000" fill-rule="nonzero" fill-opacity="1" /><path clip-path="url(#clip200)" d="M920.928 28.9478 L920.928 35.9153 Q917.768 34.1734 914.568 33.3227 Q911.408 32.4315 908.167 32.4315 Q900.916 32.4315 896.906 37.0496 Q892.896 41.6271 892.896 49.9314 Q892.896 58.2358 896.906 62.8538 Q900.916 67.4314 908.167 67.4314 Q911.408 67.4314 914.568 66.5807 Q917.768 65.6895 920.928 63.9476 L920.928 70.8341 Q917.809 72.2924 914.446 73.0216 Q911.125 73.7508 907.357 73.7508 Q897.109 73.7508 891.073 67.3098 Q885.037 60.8689 885.037 49.9314 Q885.037 38.832 891.113 32.472 Q897.23 26.1121 907.843 26.1121 Q911.287 26.1121 914.568 26.8413 Q917.849 27.5299 920.928 28.9478 Z" fill="#000000" fill-rule="nonzero" fill-opacity="1" /><path clip-path="url(#clip200)" d="M951.472 32.4315 Q945.476 32.4315 941.993 37.1306 Q938.509 41.7891 938.509 49.9314 Q938.509 58.0738 941.952 62.7728 Q945.436 67.4314 951.472 67.4314 Q957.426 67.4314 960.91 62.7323 Q964.394 58.0333 964.394 49.9314 Q964.394 41.8701 960.91 37.1711 Q957.426 32.4315 951.472 32.4315 M951.472 26.1121 Q961.194 26.1121 966.744 32.4315 Q972.293 38.7509 972.293 49.9314 Q972.293 61.0714 966.744 67.4314 Q961.194 73.7508 951.472 73.7508 Q941.709 73.7508 936.159 67.4314 Q930.65 61.0714 930.65 49.9314 Q930.65 38.7509 936.159 32.4315 Q941.709 26.1121 951.472 26.1121 Z" fill="#000000" fill-rule="nonzero" fill-opacity="1" /><path clip-path="url(#clip200)" d="M979.301 27.2059 L987.201 27.2059 L1001.38 65.2844 L1015.56 27.2059 L1023.46 27.2059 L1006.44 72.576 L996.315 72.576 L979.301 27.2059 Z" fill="#000000" fill-rule="nonzero" fill-opacity="1" /><path clip-path="url(#clip200)" d="M1072.55 48.0275 L1072.55 51.6733 L1038.28 51.6733 Q1038.77 59.3701 1042.9 63.421 Q1047.07 67.4314 1054.49 67.4314 Q1058.78 67.4314 1062.79 66.3781 Q1066.84 65.3249 1070.81 63.2184 L1070.81 70.267 Q1066.8 71.9684 1062.59 72.8596 Q1058.38 73.7508 1054.04 73.7508 Q1043.18 73.7508 1036.82 67.4314 Q1030.5 61.1119 1030.5 50.3365 Q1030.5 39.1965 1036.5 32.6746 Q1042.54 26.1121 1052.74 26.1121 Q1061.9 26.1121 1067.21 32.0264 Q1072.55 37.9003 1072.55 48.0275 M1065.1 45.84 Q1065.02 39.7232 1061.66 36.0774 Q1058.33 32.4315 1052.83 32.4315 Q1046.59 32.4315 1042.82 35.9558 Q1039.09 39.4801 1038.53 45.8805 L1065.1 45.84 Z" fill="#000000" fill-rule="nonzero" fill-opacity="1" /><path clip-path="url(#clip200)" d="M1111.08 34.1734 Q1109.82 33.4443 1108.32 33.1202 Q1106.86 32.7556 1105.08 32.7556 Q1098.76 32.7556 1095.36 36.8875 Q1092 40.9789 1092 48.6757 L1092 72.576 L1084.5 72.576 L1084.5 27.2059 L1092 27.2059 L1092 34.2544 Q1094.35 30.1225 1098.11 28.1376 Q1101.88 26.1121 1107.27 26.1121 Q1108.04 26.1121 1108.97 26.2337 Q1109.9 26.3147 1111.04 26.5172 L1111.08 34.1734 Z" fill="#000000" fill-rule="nonzero" fill-opacity="1" /><path clip-path="url(#clip200)" d="M1137.77 76.7889 Q1134.61 84.8907 1131.62 87.3618 Q1128.62 89.8329 1123.59 89.8329 L1117.64 89.8329 L1117.64 83.5945 L1122.01 83.5945 Q1125.09 83.5945 1126.79 82.1361 Q1128.5 80.6778 1130.56 75.2496 L1131.9 71.8468 L1113.55 27.2059 L1121.45 27.2059 L1135.63 62.6918 L1149.8 27.2059 L1157.7 27.2059 L1137.77 76.7889 Z" fill="#000000" fill-rule="nonzero" fill-opacity="1" /><path clip-path="url(#clip200)" d="M1163.86 62.2867 L1172.41 62.2867 L1172.41 72.576 L1163.86 72.576 L1163.86 62.2867 M1163.86 29.6769 L1172.41 29.6769 L1172.41 39.9662 L1163.86 39.9662 L1163.86 29.6769 Z" fill="#000000" fill-rule="nonzero" fill-opacity="1" /><path clip-path="url(#clip200)" d="M1208.22 12.096 L1259.38 12.096 L1259.38 18.9825 L1237.91 18.9825 L1237.91 72.576 L1229.69 72.576 L1229.69 18.9825 L1208.22 18.9825 L1208.22 12.096 Z" fill="#000000" fill-rule="nonzero" fill-opacity="1" /><path clip-path="url(#clip200)" d="M1248.89 27.2059 L1256.34 27.2059 L1265.66 62.6108 L1274.94 27.2059 L1283.73 27.2059 L1293.04 62.6108 L1302.32 27.2059 L1309.77 27.2059 L1297.9 72.576 L1289.11 72.576 L1279.35 35.3887 L1269.55 72.576 L1260.76 72.576 L1248.89 27.2059 Z" fill="#000000" fill-rule="nonzero" fill-opacity="1" /><path clip-path="url(#clip200)" d="M1338.66 32.4315 Q1332.66 32.4315 1329.18 37.1306 Q1325.69 41.7891 1325.69 49.9314 Q1325.69 58.0738 1329.14 62.7728 Q1332.62 67.4314 1338.66 67.4314 Q1344.61 67.4314 1348.1 62.7323 Q1351.58 58.0333 1351.58 49.9314 Q1351.58 41.8701 1348.1 37.1711 Q1344.61 32.4315 1338.66 32.4315 M1338.66 26.1121 Q1348.38 26.1121 1353.93 32.4315 Q1359.48 38.7509 1359.48 49.9314 Q1359.48 61.0714 1353.93 67.4314 Q1348.38 73.7508 1338.66 73.7508 Q1328.89 73.7508 1323.34 67.4314 Q1317.84 61.0714 1317.84 49.9314 Q1317.84 38.7509 1323.34 32.4315 Q1328.89 26.1121 1338.66 26.1121 Z" fill="#000000" fill-rule="nonzero" fill-opacity="1" /><path clip-path="url(#clip200)" d="M1408.41 14.0809 L1408.41 22.0612 Q1403.76 19.8332 1399.62 18.7395 Q1395.49 17.6457 1391.64 17.6457 Q1384.96 17.6457 1381.31 20.2383 Q1377.71 22.8309 1377.71 27.611 Q1377.71 31.6214 1380.1 33.6873 Q1382.53 35.7128 1389.25 36.9686 L1394.19 37.9813 Q1403.35 39.7232 1407.68 44.1387 Q1412.06 48.5136 1412.06 55.8863 Q1412.06 64.6767 1406.15 69.2137 Q1400.27 73.7508 1388.89 73.7508 Q1384.59 73.7508 1379.73 72.7785 Q1374.91 71.8063 1369.73 69.9024 L1369.73 61.4765 Q1374.71 64.2716 1379.49 65.6895 Q1384.27 67.1073 1388.89 67.1073 Q1395.9 67.1073 1399.7 64.3527 Q1403.51 61.598 1403.51 56.4939 Q1403.51 52.0379 1400.76 49.5264 Q1398.04 47.0148 1391.8 45.759 L1386.82 44.7868 Q1377.67 42.9639 1373.58 39.075 Q1369.48 35.1862 1369.48 28.2591 Q1369.48 20.2383 1375.12 15.6203 Q1380.79 11.0023 1390.71 11.0023 Q1394.96 11.0023 1399.38 11.7719 Q1403.8 12.5416 1408.41 14.0809 Z" fill="#000000" fill-rule="nonzero" fill-opacity="1" /><path clip-path="url(#clip200)" d="M1431.87 14.324 L1431.87 27.2059 L1447.22 27.2059 L1447.22 32.9987 L1431.87 32.9987 L1431.87 57.6282 Q1431.87 63.1779 1433.37 64.7578 Q1434.91 66.3376 1439.57 66.3376 L1447.22 66.3376 L1447.22 72.576 L1439.57 72.576 Q1430.94 72.576 1427.66 69.3758 Q1424.37 66.1351 1424.37 57.6282 L1424.37 32.9987 L1418.91 32.9987 L1418.91 27.2059 L1424.37 27.2059 L1424.37 14.324 L1431.87 14.324 Z" fill="#000000" fill-rule="nonzero" fill-opacity="1" /><path clip-path="url(#clip200)" d="M1477.64 49.7694 Q1468.61 49.7694 1465.13 51.8354 Q1461.64 53.9013 1461.64 58.8839 Q1461.64 62.8538 1464.24 65.2034 Q1466.87 67.5124 1471.36 67.5124 Q1477.56 67.5124 1481.29 63.1374 Q1485.06 58.7219 1485.06 51.4303 L1485.06 49.7694 L1477.64 49.7694 M1492.51 46.6907 L1492.51 72.576 L1485.06 72.576 L1485.06 65.6895 Q1482.5 69.8214 1478.7 71.8063 Q1474.89 73.7508 1469.38 73.7508 Q1462.41 73.7508 1458.28 69.8619 Q1454.19 65.9325 1454.19 59.3701 Q1454.19 51.7138 1459.29 47.825 Q1464.44 43.9361 1474.61 43.9361 L1485.06 43.9361 L1485.06 43.2069 Q1485.06 38.0623 1481.65 35.2672 Q1478.29 32.4315 1472.17 32.4315 Q1468.29 32.4315 1464.6 33.3632 Q1460.91 34.295 1457.51 36.1584 L1457.51 29.2718 Q1461.6 27.692 1465.45 26.9223 Q1469.3 26.1121 1472.94 26.1121 Q1482.79 26.1121 1487.65 31.2163 Q1492.51 36.3204 1492.51 46.6907 Z" fill="#000000" fill-rule="nonzero" fill-opacity="1" /><path clip-path="url(#clip200)" d="M1537.72 49.3643 Q1537.72 41.2625 1534.36 36.8065 Q1531.03 32.3505 1525 32.3505 Q1519 32.3505 1515.64 36.8065 Q1512.32 41.2625 1512.32 49.3643 Q1512.32 57.4256 1515.64 61.8816 Q1519 66.3376 1525 66.3376 Q1531.03 66.3376 1534.36 61.8816 Q1537.72 57.4256 1537.72 49.3643 M1545.17 66.9452 Q1545.17 78.5308 1540.03 84.1616 Q1534.88 89.8329 1524.27 89.8329 Q1520.34 89.8329 1516.86 89.2252 Q1513.37 88.6581 1510.09 87.4428 L1510.09 80.1917 Q1513.37 81.9741 1516.57 82.8248 Q1519.77 83.6755 1523.09 83.6755 Q1530.43 83.6755 1534.07 79.8271 Q1537.72 76.0193 1537.72 68.282 L1537.72 64.5957 Q1535.41 68.6061 1531.8 70.5911 Q1528.2 72.576 1523.18 72.576 Q1514.83 72.576 1509.73 66.2161 Q1504.62 59.8562 1504.62 49.3643 Q1504.62 38.832 1509.73 32.472 Q1514.83 26.1121 1523.18 26.1121 Q1528.2 26.1121 1531.8 28.0971 Q1535.41 30.082 1537.72 34.0924 L1537.72 27.2059 L1545.17 27.2059 L1545.17 66.9452 Z" fill="#000000" fill-rule="nonzero" fill-opacity="1" /><path clip-path="url(#clip200)" d="M1599.33 48.0275 L1599.33 51.6733 L1565.06 51.6733 Q1565.55 59.3701 1569.68 63.421 Q1573.85 67.4314 1581.27 67.4314 Q1585.56 67.4314 1589.57 66.3781 Q1593.62 65.3249 1597.59 63.2184 L1597.59 70.267 Q1593.58 71.9684 1589.37 72.8596 Q1585.15 73.7508 1580.82 73.7508 Q1569.96 73.7508 1563.6 67.4314 Q1557.28 61.1119 1557.28 50.3365 Q1557.28 39.1965 1563.28 32.6746 Q1569.32 26.1121 1579.52 26.1121 Q1588.68 26.1121 1593.99 32.0264 Q1599.33 37.9003 1599.33 48.0275 M1591.88 45.84 Q1591.8 39.7232 1588.44 36.0774 Q1585.11 32.4315 1579.6 32.4315 Q1573.37 32.4315 1569.6 35.9558 Q1565.87 39.4801 1565.31 45.8805 L1591.88 45.84 Z" fill="#000000" fill-rule="nonzero" fill-opacity="1" /><path clip-path="url(#clip200)" d="M1632.59 27.2059 L1640.49 27.2059 L1654.67 65.2844 L1668.85 27.2059 L1676.75 27.2059 L1659.73 72.576 L1649.6 72.576 L1632.59 27.2059 Z" fill="#000000" fill-rule="nonzero" fill-opacity="1" /><path clip-path="url(#clip200)" d="M1715.96 28.5427 L1715.96 35.5912 Q1712.8 33.9709 1709.4 33.1607 Q1705.99 32.3505 1702.35 32.3505 Q1696.8 32.3505 1694 34.0519 Q1691.25 35.7533 1691.25 39.156 Q1691.25 41.7486 1693.23 43.2475 Q1695.22 44.7058 1701.21 46.0426 L1703.77 46.6097 Q1711.7 48.3111 1715.03 51.4303 Q1718.39 54.509 1718.39 60.0587 Q1718.39 66.3781 1713.37 70.0644 Q1708.38 73.7508 1699.63 73.7508 Q1695.99 73.7508 1692.02 73.0216 Q1688.09 72.3329 1683.71 70.9151 L1683.71 63.2184 Q1687.85 65.3654 1691.86 66.4591 Q1695.87 67.5124 1699.8 67.5124 Q1705.06 67.5124 1707.9 65.73 Q1710.73 63.9071 1710.73 60.6258 Q1710.73 57.5877 1708.67 55.9673 Q1706.64 54.3469 1699.71 52.8481 L1697.12 52.2405 Q1690.19 50.7821 1687.12 47.7845 Q1684.04 44.7463 1684.04 39.4801 Q1684.04 33.0797 1688.57 29.5959 Q1693.11 26.1121 1701.46 26.1121 Q1705.59 26.1121 1709.23 26.7198 Q1712.88 27.3274 1715.96 28.5427 Z" fill="#000000" fill-rule="nonzero" fill-opacity="1" /><path clip-path="url(#clip200)" d="M1765.14 43.6931 L1765.14 65.8515 L1778.26 65.8515 Q1784.86 65.8515 1788.02 63.1374 Q1791.22 60.3828 1791.22 54.752 Q1791.22 49.0808 1788.02 46.4072 Q1784.86 43.6931 1778.26 43.6931 L1765.14 43.6931 M1765.14 18.8205 L1765.14 37.0496 L1777.25 37.0496 Q1783.24 37.0496 1786.16 34.8216 Q1789.12 32.5531 1789.12 27.935 Q1789.12 23.3575 1786.16 21.089 Q1783.24 18.8205 1777.25 18.8205 L1765.14 18.8205 M1756.95 12.096 L1777.86 12.096 Q1787.21 12.096 1792.28 15.9849 Q1797.34 19.8737 1797.34 27.0438 Q1797.34 32.5936 1794.75 35.8748 Q1792.16 39.156 1787.13 39.9662 Q1793.17 41.2625 1796.49 45.3944 Q1799.85 49.4858 1799.85 55.6432 Q1799.85 63.745 1794.34 68.1605 Q1788.83 72.576 1778.67 72.576 L1756.95 72.576 L1756.95 12.096 Z" fill="#000000" fill-rule="nonzero" fill-opacity="1" /><path clip-path="url(#clip200)" d="M1813.87 12.096 L1824.89 12.096 L1851.7 62.6918 L1851.7 12.096 L1859.64 12.096 L1859.64 72.576 L1848.63 72.576 L1821.81 21.9802 L1821.81 72.576 L1813.87 72.576 L1813.87 12.096 Z" fill="#000000" fill-rule="nonzero" fill-opacity="1" /><path clip-path="url(#clip200)" d="M1917.17 63.9476 L1917.17 47.7034 L1903.8 47.7034 L1903.8 40.9789 L1925.27 40.9789 L1925.27 66.9452 Q1920.53 70.3075 1914.82 72.0494 Q1909.11 73.7508 1902.62 73.7508 Q1888.45 73.7508 1880.43 65.4869 Q1872.44 57.1826 1872.44 42.3968 Q1872.44 27.5705 1880.43 19.3066 Q1888.45 11.0023 1902.62 11.0023 Q1908.54 11.0023 1913.84 12.4606 Q1919.19 13.9189 1923.69 16.7545 L1923.69 25.464 Q1919.15 21.6156 1914.05 19.6712 Q1908.94 17.7268 1903.31 17.7268 Q1892.21 17.7268 1886.62 23.9246 Q1881.07 30.1225 1881.07 42.3968 Q1881.07 54.6305 1886.62 60.8284 Q1892.21 67.0263 1903.31 67.0263 Q1907.65 67.0263 1911.05 66.2971 Q1914.45 65.5274 1917.17 63.9476 Z" fill="#000000" fill-rule="nonzero" fill-opacity="1" /><path clip-path="url(#clip200)" d="M1960.92 27.2059 L1968.82 27.2059 L1982.99 65.2844 L1997.17 27.2059 L2005.07 27.2059 L1988.06 72.576 L1977.93 72.576 L1960.92 27.2059 Z" fill="#000000" fill-rule="nonzero" fill-opacity="1" /><path clip-path="url(#clip200)" d="M2044.28 28.5427 L2044.28 35.5912 Q2041.12 33.9709 2037.72 33.1607 Q2034.32 32.3505 2030.67 32.3505 Q2025.12 32.3505 2022.33 34.0519 Q2019.57 35.7533 2019.57 39.156 Q2019.57 41.7486 2021.56 43.2475 Q2023.54 44.7058 2029.54 46.0426 L2032.09 46.6097 Q2040.03 48.3111 2043.35 51.4303 Q2046.71 54.509 2046.71 60.0587 Q2046.71 66.3781 2041.69 70.0644 Q2036.71 73.7508 2027.96 73.7508 Q2024.31 73.7508 2020.34 73.0216 Q2016.41 72.3329 2012.04 70.9151 L2012.04 63.2184 Q2016.17 65.3654 2020.18 66.4591 Q2024.19 67.5124 2028.12 67.5124 Q2033.39 67.5124 2036.22 65.73 Q2039.06 63.9071 2039.06 60.6258 Q2039.06 57.5877 2036.99 55.9673 Q2034.97 54.3469 2028.04 52.8481 L2025.45 52.2405 Q2018.52 50.7821 2015.44 47.7845 Q2012.36 44.7463 2012.36 39.4801 Q2012.36 33.0797 2016.9 29.5959 Q2021.44 26.1121 2029.78 26.1121 Q2033.91 26.1121 2037.56 26.7198 Q2041.21 27.3274 2044.28 28.5427 Z" fill="#000000" fill-rule="nonzero" fill-opacity="1" /><path clip-path="url(#clip200)" d="M2085.28 12.096 L2093.46 12.096 L2093.46 65.6895 L2122.91 65.6895 L2122.91 72.576 L2085.28 72.576 L2085.28 12.096 Z" fill="#000000" fill-rule="nonzero" fill-opacity="1" /><path clip-path="url(#clip200)" d="M2153.62 20.1573 L2142.52 50.2555 L2164.76 50.2555 L2153.62 20.1573 M2149 12.096 L2158.28 12.096 L2181.33 72.576 L2172.82 72.576 L2167.31 57.061 L2140.05 57.061 L2134.54 72.576 L2125.91 72.576 L2149 12.096 Z" fill="#000000" fill-rule="nonzero" fill-opacity="1" /><path clip-path="url(#clip200)" d="M2190.16 12.096 L2202.35 12.096 L2217.78 53.2532 L2233.3 12.096 L2245.49 12.096 L2245.49 72.576 L2237.51 72.576 L2237.51 19.4686 L2221.92 60.9499 L2213.69 60.9499 L2198.1 19.4686 L2198.1 72.576 L2190.16 72.576 L2190.16 12.096 Z" fill="#000000" fill-rule="nonzero" fill-opacity="1" /><path clip-path="url(#clip200)" d="M2261.74 12.096 L2269.92 12.096 L2269.92 65.6895 L2299.37 65.6895 L2299.37 72.576 L2261.74 72.576 L2261.74 12.096 Z" fill="#000000" fill-rule="nonzero" fill-opacity="1" /><polyline clip-path="url(#clip201)" style="stroke:#000000; stroke-linecap:round; stroke-linejoin:round; stroke-width:12; stroke-opacity:1; fill:none" stroke-dasharray="48, 30" points="294.006,1673.24 317.02,1658.09 340.035,1642.94 363.049,1627.79 386.063,1612.64 409.077,1597.48 432.091,1582.33 455.105,1567.18 478.119,1552.03 501.133,1536.88 524.148,1521.73 547.162,1506.58 570.176,1491.42 593.19,1476.27 616.204,1461.12 639.218,1445.97 662.232,1430.82 685.246,1415.67 708.26,1400.52 731.275,1385.36 754.289,1370.21 777.303,1355.06 800.317,1339.91 823.331,1324.76 846.345,1309.61 869.359,1294.46 892.373,1279.31 915.388,1264.15 938.402,1249 961.416,1233.85 984.43,1218.7 1007.44,1203.55 1030.46,1188.4 1053.47,1173.25 1076.49,1158.09 1099.5,1142.94 1122.51,1127.79 1145.53,1112.64 1168.54,1097.49 1191.56,1082.34 1214.57,1067.19 1237.59,1052.03 1260.6,1036.88 1283.61,1021.73 1306.63,1006.58 1329.64,991.429 1352.66,976.278 1375.67,961.126 1398.68,945.975 1421.7,930.823 1444.71,915.672 1467.73,900.521 1490.74,885.369 1513.75,870.218 1536.77,855.066 1559.78,839.915 1582.8,824.764 1605.81,809.612 1628.83,794.461 1651.84,779.31 1674.85,764.158 1697.87,749.007 1720.88,733.855 1743.9,718.704 1766.91,703.553 1789.92,688.401 1812.94,673.25 1835.95,658.098 1858.97,642.947 1881.98,627.796 1904.99,612.644 1928.01,597.493 1951.02,582.342 1974.04,567.19 1997.05,552.039 2020.07,536.887 2043.08,521.736 2066.09,506.585 2089.11,491.433 2112.12,476.282 2135.14,461.13 2158.15,445.979 2181.16,430.828 2204.18,415.676 2227.19,400.525 2250.21,385.374 2273.22,370.222 2296.23,355.071 2319.25,339.919 2342.26,324.768 2365.28,309.617 2388.29,294.465 2411.31,279.314 2434.32,264.162 2457.33,249.011 2480.35,233.86 2503.36,218.708 2526.38,203.557 2549.39,188.406 2572.4,173.254 "/>
<polyline clip-path="url(#clip201)" style="stroke:#e26f46; stroke-linecap:round; stroke-linejoin:round; stroke-width:8; stroke-opacity:1; fill:none" points="294.006,1443.86 317.02,1435.71 340.035,1427.55 363.049,1419.4 386.063,1411.25 409.077,1403.1 432.091,1394.95 455.105,1386.8 478.119,1378.66 501.133,1370.51 524.148,1362.37 547.162,1354.23 570.176,1346.09 593.19,1337.96 616.204,1329.83 639.218,1321.71 662.232,1313.59 685.246,1305.49 708.26,1297.39 731.275,1289.3 754.289,1281.22 777.303,1273.15 800.317,1265.1 823.331,1257.06 846.345,1249.03 869.359,1241.02 892.373,1233.03 915.388,1225.06 938.402,1217.11 961.416,1209.18 984.43,1201.28 1007.44,1193.4 1030.46,1185.55 1053.47,1177.73 1076.49,1169.94 1099.5,1162.17 1122.51,1154.44 1145.53,1146.74 1168.54,1139.08 1191.56,1131.45 1214.57,1123.86 1237.59,1116.31 1260.6,1108.79 1283.61,1101.32 1306.63,1093.89 1329.64,1086.5 1352.66,1079.15 1375.67,1071.85 1398.68,1064.6 1421.7,1057.4 1444.71,1050.24 1467.73,1043.14 1490.74,1036.09 1513.75,1029.09 1536.77,1022.15 1559.78,1015.26 1582.8,1008.43 1605.81,1001.66 1628.83,994.95 1651.84,988.292 1674.85,981.69 1697.87,975.141 1720.88,968.645 1743.9,962.202 1766.91,955.81 1789.92,949.469 1812.94,943.178 1835.95,936.936 1858.97,930.741 1881.98,924.59 1904.99,918.482 1928.01,912.414 1951.02,906.384 1974.04,900.391 1997.05,894.431 2020.07,888.503 2043.08,882.604 2066.09,876.733 2089.11,870.887 2112.12,865.064 2135.14,859.262 2158.15,853.479 2181.16,847.713 2204.18,841.962 2227.19,836.224 2250.21,830.496 2273.22,824.777 2296.23,819.065 2319.25,813.357 2342.26,807.652 2365.28,801.949 2388.29,796.248 2411.31,790.549 2434.32,784.851 2457.33,779.155 2480.35,773.46 2503.36,767.765 2526.38,762.072 2549.39,756.379 2572.4,750.686 "/>
<polyline clip-path="url(#clip201)" style="stroke:#3da44d; stroke-linecap:round; stroke-linejoin:round; stroke-width:8; stroke-opacity:1; fill:none" stroke-dasharray="32, 20" points="294.006,1443.86 317.02,1435.71 340.035,1427.55 363.049,1419.4 386.063,1411.25 409.077,1403.1 432.091,1394.95 455.105,1386.8 478.119,1378.66 501.133,1370.51 524.148,1362.37 547.162,1354.23 570.176,1346.09 593.19,1337.96 616.204,1329.83 639.218,1321.71 662.232,1313.59 685.246,1305.49 708.26,1297.39 731.275,1289.3 754.289,1281.22 777.303,1273.15 800.317,1265.1 823.331,1257.06 846.345,1249.03 869.359,1241.02 892.373,1233.03 915.388,1225.06 938.402,1217.11 961.416,1209.18 984.43,1201.28 1007.44,1193.4 1030.46,1185.55 1053.47,1177.73 1076.49,1169.94 1099.5,1162.17 1122.51,1154.44 1145.53,1146.74 1168.54,1139.08 1191.56,1131.45 1214.57,1123.86 1237.59,1116.31 1260.6,1108.79 1283.61,1101.32 1306.63,1093.89 1329.64,1086.5 1352.66,1079.15 1375.67,1071.85 1398.68,1064.6 1421.7,1057.4 1444.71,1050.24 1467.73,1043.14 1490.74,1036.09 1513.75,1029.09 1536.77,1022.15 1559.78,1015.26 1582.8,1008.43 1605.81,1001.66 1628.83,994.95 1651.84,988.292 1674.85,981.69 1697.87,975.141 1720.88,968.645 1743.9,962.202 1766.91,955.81 1789.92,949.469 1812.94,943.178 1835.95,936.936 1858.97,930.741 1881.98,924.59 1904.99,918.482 1928.01,912.414 1951.02,906.384 1974.04,900.391 1997.05,894.431 2020.07,888.503 2043.08,882.604 2066.09,876.733 2089.11,870.887 2112.12,865.064 2135.14,859.262 2158.15,853.479 2181.16,847.713 2204.18,841.962 2227.19,836.224 2250.21,830.496 2273.22,824.777 2296.23,819.065 2319.25,813.357 2342.26,807.652 2365.28,801.949 2388.29,796.248 2411.31,790.549 2434.32,784.851 2457.33,779.155 2480.35,773.46 2503.36,767.765 2526.38,762.072 2549.39,756.379 2572.4,750.686 "/>
<polyline clip-path="url(#clip201)" style="stroke:#c271d2; stroke-linecap:round; stroke-linejoin:round; stroke-width:8; stroke-opacity:1; fill:none" stroke-dasharray="4, 8" points="294.006,1688.65 317.02,1669.65 340.035,1650.67 363.049,1631.75 386.063,1612.91 409.077,1594.18 432.091,1575.58 455.105,1557.15 478.119,1538.91 501.133,1520.88 524.148,1503.1 547.162,1485.6 570.176,1468.38 593.19,1451.45 616.204,1434.79 639.218,1418.38 662.232,1402.21 685.246,1386.26 708.26,1370.52 731.275,1354.97 754.289,1339.59 777.303,1324.38 800.317,1309.31 823.331,1294.37 846.345,1279.56 869.359,1264.88 892.373,1250.33 915.388,1235.9 938.402,1221.59 961.416,1207.41 984.43,1193.35 1007.44,1179.42 1030.46,1165.6 1053.47,1151.91 1076.49,1138.33 1099.5,1124.88 1122.51,1111.56 1145.53,1098.37 1168.54,1085.32 1191.56,1072.4 1214.57,1059.64 1237.59,1047.02 1260.6,1034.56 1283.61,1022.26 1306.63,1010.12 1329.64,998.144 1352.66,986.336 1375.67,974.692 1398.68,963.21 1421.7,951.887 1444.71,940.723 1467.73,929.714 1490.74,918.86 1513.75,908.157 1536.77,897.605 1559.78,887.2 1582.8,876.941 1605.81,866.82 1628.83,856.829 1651.84,846.959 1674.85,837.202 1697.87,827.55 1720.88,817.995 1743.9,808.528 1766.91,799.142 1789.92,789.827 1812.94,780.576 1835.95,771.381 1858.97,762.237 1881.98,753.142 1904.99,744.09 1928.01,735.079 1951.02,726.104 1974.04,717.161 1997.05,708.248 2020.07,699.36 2043.08,690.493 2066.09,681.644 2089.11,672.808 2112.12,663.986 2135.14,655.174 2158.15,646.372 2181.16,637.579 2204.18,628.793 2227.19,620.013 2250.21,611.237 2273.22,602.464 2296.23,593.694 2319.25,584.924 2342.26,576.153 2365.28,567.382 2388.29,558.61 2411.31,549.838 2434.32,541.065 2457.33,532.292 2480.35,523.519 2503.36,514.745 2526.38,505.971 2549.39,497.197 2572.4,488.422 "/>
<path clip-path="url(#clip200)" d="M306.158 440.536 L771.162 440.536 L771.162 181.336 L306.158 181.336  Z" fill="#ffffff" fill-rule="evenodd" fill-opacity="1"/>
<polyline clip-path="url(#clip200)" style="stroke:#000000; stroke-linecap:round; stroke-linejoin:round; stroke-width:4; stroke-opacity:1; fill:none" points="306.158,440.536 771.162,440.536 771.162,181.336 306.158,181.336 306.158,440.536 "/>
<polyline clip-path="url(#clip200)" style="stroke:#000000; stroke-linecap:round; stroke-linejoin:round; stroke-width:12; stroke-opacity:1; fill:none" stroke-dasharray="48, 30" points="332.992,233.176 493.999,233.176 "/>
<path clip-path="url(#clip200)" d="M520.834 215.896 L550.069 215.896 L550.069 219.831 L537.801 219.831 L537.801 250.456 L533.102 250.456 L533.102 219.831 L520.834 219.831 L520.834 215.896 Z" fill="#000000" fill-rule="nonzero" fill-opacity="1" /><path clip-path="url(#clip200)" d="M562.454 228.512 Q561.736 228.095 560.88 227.91 Q560.046 227.702 559.028 227.702 Q555.417 227.702 553.472 230.063 Q551.551 232.401 551.551 236.799 L551.551 250.456 L547.269 250.456 L547.269 224.531 L551.551 224.531 L551.551 228.558 Q552.894 226.197 555.046 225.063 Q557.199 223.906 560.278 223.906 Q560.718 223.906 561.25 223.975 Q561.782 224.021 562.431 224.137 L562.454 228.512 Z" fill="#000000" fill-rule="nonzero" fill-opacity="1" /><path clip-path="url(#clip200)" d="M566.481 240.225 L566.481 224.531 L570.741 224.531 L570.741 240.063 Q570.741 243.743 572.176 245.595 Q573.611 247.424 576.481 247.424 Q579.93 247.424 581.921 245.225 Q583.935 243.026 583.935 239.229 L583.935 224.531 L588.194 224.531 L588.194 250.456 L583.935 250.456 L583.935 246.475 Q582.384 248.836 580.324 249.993 Q578.287 251.128 575.579 251.128 Q571.111 251.128 568.796 248.35 Q566.481 245.572 566.481 240.225 M577.199 223.906 L577.199 223.906 Z" fill="#000000" fill-rule="nonzero" fill-opacity="1" /><path clip-path="url(#clip200)" d="M619.143 236.429 L619.143 238.512 L599.56 238.512 Q599.838 242.91 602.199 245.225 Q604.583 247.516 608.819 247.516 Q611.273 247.516 613.564 246.915 Q615.879 246.313 618.148 245.109 L618.148 249.137 Q615.856 250.109 613.449 250.618 Q611.041 251.128 608.565 251.128 Q602.361 251.128 598.727 247.516 Q595.116 243.905 595.116 237.748 Q595.116 231.382 598.541 227.655 Q601.99 223.906 607.824 223.906 Q613.055 223.906 616.088 227.285 Q619.143 230.642 619.143 236.429 M614.884 235.179 Q614.838 231.683 612.916 229.6 Q611.018 227.517 607.87 227.517 Q604.305 227.517 602.153 229.53 Q600.023 231.544 599.699 235.202 L614.884 235.179 Z" fill="#000000" fill-rule="nonzero" fill-opacity="1" /><path clip-path="url(#clip200)" d="M656.226 228.512 Q655.509 228.095 654.652 227.91 Q653.819 227.702 652.8 227.702 Q649.189 227.702 647.245 230.063 Q645.324 232.401 645.324 236.799 L645.324 250.456 L641.041 250.456 L641.041 224.531 L645.324 224.531 L645.324 228.558 Q646.666 226.197 648.819 225.063 Q650.972 223.906 654.05 223.906 Q654.49 223.906 655.023 223.975 Q655.555 224.021 656.203 224.137 L656.226 228.512 Z" fill="#000000" fill-rule="nonzero" fill-opacity="1" /><path clip-path="url(#clip200)" d="M670.925 214.484 Q667.823 219.808 666.319 225.017 Q664.814 230.225 664.814 235.572 Q664.814 240.919 666.319 246.174 Q667.847 251.405 670.925 256.706 L667.222 256.706 Q663.749 251.266 662.013 246.012 Q660.3 240.757 660.3 235.572 Q660.3 230.41 662.013 225.179 Q663.726 219.947 667.222 214.484 L670.925 214.484 Z" fill="#000000" fill-rule="nonzero" fill-opacity="1" /><path clip-path="url(#clip200)" d="M678.749 240.225 L678.749 224.531 L683.009 224.531 L683.009 240.063 Q683.009 243.743 684.444 245.595 Q685.879 247.424 688.749 247.424 Q692.198 247.424 694.189 245.225 Q696.203 243.026 696.203 239.229 L696.203 224.531 L700.462 224.531 L700.462 250.456 L696.203 250.456 L696.203 246.475 Q694.652 248.836 692.592 249.993 Q690.555 251.128 687.847 251.128 Q683.379 251.128 681.064 248.35 Q678.749 245.572 678.749 240.225 M689.467 223.906 L689.467 223.906 Z" fill="#000000" fill-rule="nonzero" fill-opacity="1" /><path clip-path="url(#clip200)" d="M708.564 214.484 L712.268 214.484 Q715.74 219.947 717.453 225.179 Q719.189 230.41 719.189 235.572 Q719.189 240.757 717.453 246.012 Q715.74 251.266 712.268 256.706 L708.564 256.706 Q711.643 251.405 713.147 246.174 Q714.675 240.919 714.675 235.572 Q714.675 230.225 713.147 225.017 Q711.643 219.808 708.564 214.484 Z" fill="#000000" fill-rule="nonzero" fill-opacity="1" /><polyline clip-path="url(#clip200)" style="stroke:#e26f46; stroke-linecap:round; stroke-linejoin:round; stroke-width:8; stroke-opacity:1; fill:none" points="332.992,285.016 493.999,285.016 "/>
<path clip-path="url(#clip200)" d="M520.834 267.736 L550.069 267.736 L550.069 271.671 L537.801 271.671 L537.801 302.296 L533.102 302.296 L533.102 271.671 L520.834 271.671 L520.834 267.736 Z" fill="#000000" fill-rule="nonzero" fill-opacity="1" /><path clip-path="url(#clip200)" d="M544.074 276.371 L548.333 276.371 L553.657 296.602 L558.958 276.371 L563.981 276.371 L569.305 296.602 L574.606 276.371 L578.866 276.371 L572.083 302.296 L567.06 302.296 L561.481 281.046 L555.88 302.296 L550.856 302.296 L544.074 276.371 Z" fill="#000000" fill-rule="nonzero" fill-opacity="1" /><path clip-path="url(#clip200)" d="M595.37 279.357 Q591.944 279.357 589.954 282.042 Q587.963 284.704 587.963 289.357 Q587.963 294.009 589.93 296.694 Q591.921 299.356 595.37 299.356 Q598.773 299.356 600.764 296.671 Q602.754 293.986 602.754 289.357 Q602.754 284.75 600.764 282.065 Q598.773 279.357 595.37 279.357 M595.37 275.746 Q600.926 275.746 604.097 279.357 Q607.268 282.968 607.268 289.357 Q607.268 295.722 604.097 299.356 Q600.926 302.968 595.37 302.968 Q589.791 302.968 586.62 299.356 Q583.472 295.722 583.472 289.357 Q583.472 282.968 586.62 279.357 Q589.791 275.746 595.37 275.746 Z" fill="#000000" fill-rule="nonzero" fill-opacity="1" /><path clip-path="url(#clip200)" d="M635.231 268.871 L635.231 273.431 Q632.569 272.158 630.208 271.533 Q627.847 270.908 625.648 270.908 Q621.828 270.908 619.745 272.389 Q617.685 273.871 617.685 276.602 Q617.685 278.894 619.051 280.074 Q620.439 281.232 624.282 281.949 L627.106 282.528 Q632.338 283.523 634.814 286.046 Q637.314 288.546 637.314 292.759 Q637.314 297.782 633.935 300.375 Q630.578 302.968 624.074 302.968 Q621.62 302.968 618.842 302.412 Q616.088 301.856 613.125 300.769 L613.125 295.954 Q615.972 297.551 618.703 298.361 Q621.435 299.171 624.074 299.171 Q628.078 299.171 630.254 297.597 Q632.43 296.023 632.43 293.107 Q632.43 290.56 630.856 289.125 Q629.305 287.69 625.74 286.972 L622.893 286.417 Q617.662 285.375 615.324 283.153 Q612.986 280.931 612.986 276.972 Q612.986 272.389 616.203 269.75 Q619.444 267.111 625.115 267.111 Q627.546 267.111 630.069 267.551 Q632.592 267.991 635.231 268.871 Z" fill="#000000" fill-rule="nonzero" fill-opacity="1" /><path clip-path="url(#clip200)" d="M648.634 269.009 L648.634 276.371 L657.407 276.371 L657.407 279.681 L648.634 279.681 L648.634 293.755 Q648.634 296.926 649.49 297.829 Q650.37 298.731 653.032 298.731 L657.407 298.731 L657.407 302.296 L653.032 302.296 Q648.101 302.296 646.226 300.468 Q644.351 298.616 644.351 293.755 L644.351 279.681 L641.226 279.681 L641.226 276.371 L644.351 276.371 L644.351 269.009 L648.634 269.009 Z" fill="#000000" fill-rule="nonzero" fill-opacity="1" /><path clip-path="url(#clip200)" d="M674.791 289.264 Q669.629 289.264 667.638 290.444 Q665.648 291.625 665.648 294.472 Q665.648 296.741 667.129 298.083 Q668.634 299.403 671.203 299.403 Q674.745 299.403 676.874 296.903 Q679.027 294.38 679.027 290.213 L679.027 289.264 L674.791 289.264 M683.286 287.505 L683.286 302.296 L679.027 302.296 L679.027 298.361 Q677.569 300.722 675.393 301.856 Q673.217 302.968 670.069 302.968 Q666.087 302.968 663.726 300.745 Q661.388 298.5 661.388 294.75 Q661.388 290.375 664.305 288.153 Q667.245 285.931 673.055 285.931 L679.027 285.931 L679.027 285.514 Q679.027 282.574 677.083 280.977 Q675.161 279.357 671.666 279.357 Q669.444 279.357 667.337 279.889 Q665.231 280.421 663.286 281.486 L663.286 277.551 Q665.624 276.648 667.823 276.208 Q670.023 275.746 672.106 275.746 Q677.731 275.746 680.509 278.662 Q683.286 281.579 683.286 287.505 Z" fill="#000000" fill-rule="nonzero" fill-opacity="1" /><path clip-path="url(#clip200)" d="M709.12 289.032 Q709.12 284.403 707.198 281.857 Q705.3 279.31 701.851 279.31 Q698.425 279.31 696.504 281.857 Q694.606 284.403 694.606 289.032 Q694.606 293.639 696.504 296.185 Q698.425 298.731 701.851 298.731 Q705.3 298.731 707.198 296.185 Q709.12 293.639 709.12 289.032 M713.379 299.079 Q713.379 305.699 710.439 308.917 Q707.499 312.157 701.434 312.157 Q699.189 312.157 697.198 311.81 Q695.208 311.486 693.333 310.792 L693.333 306.648 Q695.208 307.667 697.036 308.153 Q698.865 308.639 700.763 308.639 Q704.953 308.639 707.036 306.44 Q709.12 304.264 709.12 299.843 L709.12 297.736 Q707.8 300.028 705.74 301.162 Q703.68 302.296 700.809 302.296 Q696.041 302.296 693.124 298.662 Q690.208 295.028 690.208 289.032 Q690.208 283.014 693.124 279.38 Q696.041 275.746 700.809 275.746 Q703.68 275.746 705.74 276.88 Q707.8 278.014 709.12 280.306 L709.12 276.371 L713.379 276.371 L713.379 299.079 Z" fill="#000000" fill-rule="nonzero" fill-opacity="1" /><path clip-path="url(#clip200)" d="M744.328 288.269 L744.328 290.352 L724.744 290.352 Q725.022 294.75 727.383 297.065 Q729.768 299.356 734.004 299.356 Q736.457 299.356 738.749 298.755 Q741.064 298.153 743.332 296.949 L743.332 300.977 Q741.041 301.949 738.633 302.458 Q736.226 302.968 733.749 302.968 Q727.545 302.968 723.911 299.356 Q720.3 295.745 720.3 289.588 Q720.3 283.222 723.726 279.495 Q727.175 275.746 733.008 275.746 Q738.24 275.746 741.272 279.125 Q744.328 282.482 744.328 288.269 M740.068 287.019 Q740.022 283.523 738.101 281.44 Q736.203 279.357 733.055 279.357 Q729.49 279.357 727.337 281.37 Q725.207 283.384 724.883 287.042 L740.068 287.019 Z" fill="#000000" fill-rule="nonzero" fill-opacity="1" /><polyline clip-path="url(#clip200)" style="stroke:#3da44d; stroke-linecap:round; stroke-linejoin:round; stroke-width:8; stroke-opacity:1; fill:none" stroke-dasharray="32, 20" points="332.992,336.856 493.999,336.856 "/>
<path clip-path="url(#clip200)" d="M525.509 337.632 L525.509 350.294 L533.009 350.294 Q536.782 350.294 538.588 348.743 Q540.417 347.169 540.417 343.951 Q540.417 340.71 538.588 339.183 Q536.782 337.632 533.009 337.632 L525.509 337.632 M525.509 323.419 L525.509 333.835 L532.431 333.835 Q535.857 333.835 537.523 332.562 Q539.213 331.266 539.213 328.627 Q539.213 326.011 537.523 324.715 Q535.857 323.419 532.431 323.419 L525.509 323.419 M520.834 319.576 L532.778 319.576 Q538.125 319.576 541.019 321.798 Q543.912 324.021 543.912 328.118 Q543.912 331.289 542.431 333.164 Q540.949 335.039 538.079 335.502 Q541.528 336.243 543.426 338.604 Q545.347 340.942 545.347 344.46 Q545.347 349.09 542.199 351.613 Q539.051 354.136 533.241 354.136 L520.834 354.136 L520.834 319.576 Z" fill="#000000" fill-rule="nonzero" fill-opacity="1" /><path clip-path="url(#clip200)" d="M553.356 319.576 L559.653 319.576 L574.977 348.488 L574.977 319.576 L579.514 319.576 L579.514 354.136 L573.217 354.136 L557.893 325.224 L557.893 354.136 L553.356 354.136 L553.356 319.576 Z" fill="#000000" fill-rule="nonzero" fill-opacity="1" /><path clip-path="url(#clip200)" d="M612.384 349.206 L612.384 339.923 L604.745 339.923 L604.745 336.081 L617.014 336.081 L617.014 350.919 Q614.305 352.84 611.041 353.835 Q607.777 354.808 604.074 354.808 Q595.972 354.808 591.389 350.085 Q586.829 345.34 586.829 336.891 Q586.829 328.419 591.389 323.697 Q595.972 318.951 604.074 318.951 Q607.453 318.951 610.486 319.785 Q613.541 320.618 616.111 322.238 L616.111 327.215 Q613.518 325.016 610.602 323.905 Q607.685 322.794 604.467 322.794 Q598.125 322.794 594.93 326.336 Q591.759 329.877 591.759 336.891 Q591.759 343.882 594.93 347.423 Q598.125 350.965 604.467 350.965 Q606.944 350.965 608.889 350.548 Q610.833 350.109 612.384 349.206 Z" fill="#000000" fill-rule="nonzero" fill-opacity="1" /><polyline clip-path="url(#clip200)" style="stroke:#c271d2; stroke-linecap:round; stroke-linejoin:round; stroke-width:8; stroke-opacity:1; fill:none" stroke-dasharray="4, 8" points="332.992,388.696 493.999,388.696 "/>
<path clip-path="url(#clip200)" d="M520.834 371.416 L525.509 371.416 L525.509 402.041 L542.338 402.041 L542.338 405.976 L520.834 405.976 L520.834 371.416 Z" fill="#000000" fill-rule="nonzero" fill-opacity="1" /><path clip-path="url(#clip200)" d="M559.884 376.023 L553.542 393.222 L566.25 393.222 L559.884 376.023 M557.245 371.416 L562.546 371.416 L575.717 405.976 L570.856 405.976 L567.708 397.111 L552.13 397.111 L548.982 405.976 L544.051 405.976 L557.245 371.416 Z" fill="#000000" fill-rule="nonzero" fill-opacity="1" /><path clip-path="url(#clip200)" d="M580.764 371.416 L587.731 371.416 L596.551 394.935 L605.416 371.416 L612.384 371.416 L612.384 405.976 L607.824 405.976 L607.824 375.629 L598.912 399.333 L594.213 399.333 L585.301 375.629 L585.301 405.976 L580.764 405.976 L580.764 371.416 Z" fill="#000000" fill-rule="nonzero" fill-opacity="1" /><path clip-path="url(#clip200)" d="M621.666 371.416 L626.342 371.416 L626.342 402.041 L643.171 402.041 L643.171 405.976 L621.666 405.976 L621.666 371.416 Z" fill="#000000" fill-rule="nonzero" fill-opacity="1" /></svg>
