<?xml version="1.0" encoding="utf-8"?>
<svg xmlns="http://www.w3.org/2000/svg" xmlns:xlink="http://www.w3.org/1999/xlink" width="672" height="480" viewBox="0 0 2688 1920">
<defs>
  <clipPath id="clip140">
    <rect x="0" y="0" width="2688" height="1920"/>
  </clipPath>
</defs>
<path clip-path="url(#clip140)" d="M0 1920 L2688 1920 L2688 -4.26326e-14 L0 -4.26326e-14  Z" fill="#ffffff" fill-rule="evenodd" fill-opacity="1"/>
<defs>
  <clipPath id="clip141">
    <rect x="226" y="127" width="2416" height="1607"/>
  </clipPath>
</defs>
<path clip-path="url(#clip140)" d="M226.141 1734.12 L2640.76 1734.12 L2640.76 127.792 L226.141 127.792  Z" fill="#ffffff" fill-rule="evenodd" fill-opacity="1"/>
<polyline clip-path="url(#clip141)" style="stroke:#000000; stroke-linecap:round; stroke-linejoin:round; stroke-width:2; stroke-opacity:0.1; fill:none" points="654.153,1734.12 654.153,127.792 "/>
<polyline clip-path="url(#clip141)" style="stroke:#000000; stroke-linecap:round; stroke-linejoin:round; stroke-width:2; stroke-opacity:0.1; fill:none" points="1133.72,1734.12 1133.72,127.792 "/>
<polyline clip-path="url(#clip141)" style="stroke:#000000; stroke-linecap:round; stroke-linejoin:round; stroke-width:2; stroke-opacity:0.1; fill:none" points="1613.29,1734.12 1613.29,127.792 "/>
<polyline clip-path="url(#clip141)" style="stroke:#000000; stroke-linecap:round; stroke-linejoin:round; stroke-width:2; stroke-opacity:0.1; fill:none" points="2092.85,1734.12 2092.85,127.792 "/>
<polyline clip-path="url(#clip141)" style="stroke:#000000; stroke-linecap:round; stroke-linejoin:round; stroke-width:2; stroke-opacity:0.1; fill:none" points="2572.42,1734.12 2572.42,127.792 "/>
<polyline clip-path="url(#clip141)" style="stroke:#000000; stroke-linecap:round; stroke-linejoin:round; stroke-width:2; stroke-opacity:0.1; fill:none" points="226.141,1688.65 2640.76,1688.65 "/>
<polyline clip-path="url(#clip141)" style="stroke:#000000; stroke-linecap:round; stroke-linejoin:round; stroke-width:2; stroke-opacity:0.1; fill:none" points="226.141,1382.34 2640.76,1382.34 "/>
<polyline clip-path="url(#clip141)" style="stroke:#000000; stroke-linecap:round; stroke-linejoin:round; stroke-width:2; stroke-opacity:0.1; fill:none" points="226.141,1076.02 2640.76,1076.02 "/>
<polyline clip-path="url(#clip141)" style="stroke:#000000; stroke-linecap:round; stroke-linejoin:round; stroke-width:2; stroke-opacity:0.1; fill:none" points="226.141,769.708 2640.76,769.708 "/>
<polyline clip-path="url(#clip141)" style="stroke:#000000; stroke-linecap:round; stroke-linejoin:round; stroke-width:2; stroke-opacity:0.1; fill:none" points="226.141,463.392 2640.76,463.392 "/>
<polyline clip-path="url(#clip141)" style="stroke:#000000; stroke-linecap:round; stroke-linejoin:round; stroke-width:2; stroke-opacity:0.1; fill:none" points="226.141,157.076 2640.76,157.076 "/>
<polyline clip-path="url(#clip140)" style="stroke:#000000; stroke-linecap:round; stroke-linejoin:round; stroke-width:4; stroke-opacity:1; fill:none" points="226.141,1734.12 2640.76,1734.12 "/>
<polyline clip-path="url(#clip140)" style="stroke:#000000; stroke-linecap:round; stroke-linejoin:round; stroke-width:4; stroke-opacity:1; fill:none" points="654.153,1734.12 654.153,1715.22 "/>
<polyline clip-path="url(#clip140)" style="stroke:#000000; stroke-linecap:round; stroke-linejoin:round; stroke-width:4; stroke-opacity:1; fill:none" points="1133.72,1734.12 1133.72,1715.22 "/>
<polyline clip-path="url(#clip140)" style="stroke:#000000; stroke-linecap:round; stroke-linejoin:round; stroke-width:4; stroke-opacity:1; fill:none" points="1613.29,1734.12 1613.29,1715.22 "/>
<polyline clip-path="url(#clip140)" style="stroke:#000000; stroke-linecap:round; stroke-linejoin:round; stroke-width:4; stroke-opacity:1; fill:none" points="2092.85,1734.12 2092.85,1715.22 "/>
<polyline clip-path="url(#clip140)" style="stroke:#000000; stroke-linecap:round; stroke-linejoin:round; stroke-width:4; stroke-opacity:1; fill:none" points="2572.42,1734.12 2572.42,1715.22 "/>
<path clip-path="url(#clip140)" d="M648.806 1794.89 L665.125 1794.89 L665.125 1798.82 L643.181 1798.82 L643.181 1794.89 Q645.843 1792.13 650.426 1787.5 Q655.033 1782.85 656.213 1781.51 Q658.459 1778.98 659.338 1777.25 Q660.241 1775.49 660.241 1773.8 Q660.241 1771.04 658.297 1769.31 Q656.376 1767.57 653.274 1767.57 Q651.075 1767.57 648.621 1768.34 Q646.19 1769.1 643.413 1770.65 L643.413 1765.93 Q646.237 1764.79 648.69 1764.21 Q651.144 1763.64 653.181 1763.64 Q658.551 1763.64 661.746 1766.32 Q664.94 1769.01 664.94 1773.5 Q664.94 1775.63 664.13 1777.55 Q663.343 1779.45 661.237 1782.04 Q660.658 1782.71 657.556 1785.93 Q654.454 1789.12 648.806 1794.89 Z" fill="#000000" fill-rule="nonzero" fill-opacity="1" /><path clip-path="url(#clip140)" d="M1136.73 1768.34 L1124.92 1786.78 L1136.73 1786.78 L1136.73 1768.34 M1135.5 1764.26 L1141.38 1764.26 L1141.38 1786.78 L1146.31 1786.78 L1146.31 1790.67 L1141.38 1790.67 L1141.38 1798.82 L1136.73 1798.82 L1136.73 1790.67 L1121.13 1790.67 L1121.13 1786.16 L1135.5 1764.26 Z" fill="#000000" fill-rule="nonzero" fill-opacity="1" /><path clip-path="url(#clip140)" d="M1613.69 1779.68 Q1610.54 1779.68 1608.69 1781.83 Q1606.86 1783.98 1606.86 1787.73 Q1606.86 1791.46 1608.69 1793.64 Q1610.54 1795.79 1613.69 1795.79 Q1616.84 1795.79 1618.67 1793.64 Q1620.52 1791.46 1620.52 1787.73 Q1620.52 1783.98 1618.67 1781.83 Q1616.84 1779.68 1613.69 1779.68 M1622.97 1765.02 L1622.97 1769.28 Q1621.21 1768.45 1619.41 1768.01 Q1617.63 1767.57 1615.87 1767.57 Q1611.24 1767.57 1608.78 1770.7 Q1606.35 1773.82 1606.01 1780.14 Q1607.37 1778.13 1609.43 1777.06 Q1611.49 1775.97 1613.97 1775.97 Q1619.18 1775.97 1622.19 1779.15 Q1625.22 1782.29 1625.22 1787.73 Q1625.22 1793.06 1622.07 1796.27 Q1618.92 1799.49 1613.69 1799.49 Q1607.7 1799.49 1604.52 1794.91 Q1601.35 1790.3 1601.35 1781.58 Q1601.35 1773.38 1605.24 1768.52 Q1609.13 1763.64 1615.68 1763.64 Q1617.44 1763.64 1619.22 1763.98 Q1621.03 1764.33 1622.97 1765.02 Z" fill="#000000" fill-rule="nonzero" fill-opacity="1" /><path clip-path="url(#clip140)" d="M2092.85 1782.41 Q2089.52 1782.41 2087.6 1784.19 Q2085.7 1785.97 2085.7 1789.1 Q2085.7 1792.22 2087.6 1794.01 Q2089.52 1795.79 2092.85 1795.79 Q2096.18 1795.79 2098.11 1794.01 Q2100.03 1792.2 2100.03 1789.1 Q2100.03 1785.97 2098.11 1784.19 Q2096.21 1782.41 2092.85 1782.41 M2088.18 1780.42 Q2085.17 1779.68 2083.48 1777.62 Q2081.81 1775.56 2081.81 1772.59 Q2081.81 1768.45 2084.75 1766.04 Q2087.71 1763.64 2092.85 1763.64 Q2098.01 1763.64 2100.95 1766.04 Q2103.89 1768.45 2103.89 1772.59 Q2103.89 1775.56 2102.2 1777.62 Q2100.54 1779.68 2097.55 1780.42 Q2100.93 1781.21 2102.81 1783.5 Q2104.7 1785.79 2104.7 1789.1 Q2104.7 1794.12 2101.62 1796.81 Q2098.57 1799.49 2092.85 1799.49 Q2087.13 1799.49 2084.06 1796.81 Q2081 1794.12 2081 1789.1 Q2081 1785.79 2082.9 1783.5 Q2084.8 1781.21 2088.18 1780.42 M2086.46 1773.03 Q2086.46 1775.72 2088.13 1777.22 Q2089.82 1778.73 2092.85 1778.73 Q2095.86 1778.73 2097.55 1777.22 Q2099.26 1775.72 2099.26 1773.03 Q2099.26 1770.35 2097.55 1768.84 Q2095.86 1767.34 2092.85 1767.34 Q2089.82 1767.34 2088.13 1768.84 Q2086.46 1770.35 2086.46 1773.03 Z" fill="#000000" fill-rule="nonzero" fill-opacity="1" /><path clip-path="url(#clip140)" d="M2547.11 1794.89 L2554.74 1794.89 L2554.74 1768.52 L2546.43 1770.19 L2546.43 1765.93 L2554.7 1764.26 L2559.37 1764.26 L2559.37 1794.89 L2567.01 1794.89 L2567.01 1798.82 L2547.11 1798.82 L2547.11 1794.89 Z" fill="#000000" fill-rule="nonzero" fill-opacity="1" /><path clip-path="url(#clip140)" d="M2586.46 1767.34 Q2582.85 1767.34 2581.02 1770.9 Q2579.21 1774.45 2579.21 1781.58 Q2579.21 1788.68 2581.02 1792.25 Q2582.85 1795.79 2586.46 1795.79 Q2590.09 1795.79 2591.9 1792.25 Q2593.73 1788.68 2593.73 1781.58 Q2593.73 1774.45 2591.9 1770.9 Q2590.09 1767.34 2586.46 1767.34 M2586.46 1763.64 Q2592.27 1763.64 2595.32 1768.24 Q2598.4 1772.83 2598.4 1781.58 Q2598.4 1790.3 2595.32 1794.91 Q2592.27 1799.49 2586.46 1799.49 Q2580.65 1799.49 2577.57 1794.91 Q2574.51 1790.3 2574.51 1781.58 Q2574.51 1772.83 2577.57 1768.24 Q2580.65 1763.64 2586.46 1763.64 Z" fill="#000000" fill-rule="nonzero" fill-opacity="1" /><path clip-path="url(#clip140)" d="M1240.3 1841.06 L1240.3 1858.92 L1248.38 1858.92 Q1252.87 1858.92 1255.32 1856.6 Q1257.77 1854.27 1257.77 1849.98 Q1257.77 1845.71 1255.32 1843.39 Q1252.87 1841.06 1248.38 1841.06 L1240.3 1841.06 M1233.87 1835.78 L1248.38 1835.78 Q1256.37 1835.78 1260.44 1839.41 Q1264.55 1843.01 1264.55 1849.98 Q1264.55 1857.01 1260.44 1860.61 Q1256.37 1864.2 1248.38 1864.2 L1240.3 1864.2 L1240.3 1883.3 L1233.87 1883.3 L1233.87 1835.78 Z" fill="#000000" fill-rule="nonzero" fill-opacity="1" /><path clip-path="url(#clip140)" d="M1284.41 1851.76 Q1279.7 1851.76 1276.96 1855.45 Q1274.23 1859.11 1274.23 1865.51 Q1274.23 1871.91 1276.93 1875.6 Q1279.67 1879.26 1284.41 1879.26 Q1289.09 1879.26 1291.83 1875.57 Q1294.56 1871.87 1294.56 1865.51 Q1294.56 1859.17 1291.83 1855.48 Q1289.09 1851.76 1284.41 1851.76 M1284.41 1846.79 Q1292.05 1846.79 1296.41 1851.76 Q1300.77 1856.72 1300.77 1865.51 Q1300.77 1874.26 1296.41 1879.26 Q1292.05 1884.22 1284.41 1884.22 Q1276.74 1884.22 1272.38 1879.26 Q1268.05 1874.26 1268.05 1865.51 Q1268.05 1856.72 1272.38 1851.76 Q1276.74 1846.79 1284.41 1846.79 Z" fill="#000000" fill-rule="nonzero" fill-opacity="1" /><path clip-path="url(#clip140)" d="M1316.14 1877.95 L1316.14 1896.86 L1310.26 1896.86 L1310.26 1847.65 L1316.14 1847.65 L1316.14 1853.06 Q1317.99 1849.88 1320.79 1848.35 Q1323.62 1846.79 1327.54 1846.79 Q1334.03 1846.79 1338.07 1851.95 Q1342.15 1857.11 1342.15 1865.51 Q1342.15 1873.91 1338.07 1879.07 Q1334.03 1884.22 1327.54 1884.22 Q1323.62 1884.22 1320.79 1882.7 Q1317.99 1881.14 1316.14 1877.95 M1336.07 1865.51 Q1336.07 1859.05 1333.4 1855.39 Q1330.75 1851.7 1326.11 1851.7 Q1321.46 1851.7 1318.79 1855.39 Q1316.14 1859.05 1316.14 1865.51 Q1316.14 1871.97 1318.79 1875.66 Q1321.46 1879.32 1326.11 1879.32 Q1330.75 1879.32 1333.4 1875.66 Q1336.07 1871.97 1336.07 1865.51 Z" fill="#000000" fill-rule="nonzero" fill-opacity="1" /><path clip-path="url(#clip140)" d="M1351.25 1869.23 L1351.25 1847.65 L1357.11 1847.65 L1357.11 1869.01 Q1357.11 1874.07 1359.08 1876.62 Q1361.05 1879.13 1365 1879.13 Q1369.74 1879.13 1372.48 1876.11 Q1375.25 1873.08 1375.25 1867.86 L1375.25 1847.65 L1381.11 1847.65 L1381.11 1883.3 L1375.25 1883.3 L1375.25 1877.83 Q1373.12 1881.07 1370.28 1882.66 Q1367.48 1884.22 1363.76 1884.22 Q1357.62 1884.22 1354.43 1880.4 Q1351.25 1876.59 1351.25 1869.23 M1365.99 1846.79 L1365.99 1846.79 Z" fill="#000000" fill-rule="nonzero" fill-opacity="1" /><path clip-path="url(#clip140)" d="M1393.17 1833.78 L1399.03 1833.78 L1399.03 1883.3 L1393.17 1883.3 L1393.17 1833.78 Z" fill="#000000" fill-rule="nonzero" fill-opacity="1" /><path clip-path="url(#clip140)" d="M1427.48 1865.38 Q1420.38 1865.38 1417.65 1867 Q1414.91 1868.63 1414.91 1872.54 Q1414.91 1875.66 1416.95 1877.51 Q1419.01 1879.32 1422.55 1879.32 Q1427.42 1879.32 1430.34 1875.88 Q1433.31 1872.42 1433.31 1866.69 L1433.31 1865.38 L1427.48 1865.38 M1439.16 1862.96 L1439.16 1883.3 L1433.31 1883.3 L1433.31 1877.89 Q1431.3 1881.14 1428.31 1882.7 Q1425.32 1884.22 1420.99 1884.22 Q1415.51 1884.22 1412.27 1881.17 Q1409.05 1878.08 1409.05 1872.92 Q1409.05 1866.91 1413.06 1863.85 Q1417.1 1860.8 1425.09 1860.8 L1433.31 1860.8 L1433.31 1860.23 Q1433.31 1856.18 1430.63 1853.99 Q1427.99 1851.76 1423.18 1851.76 Q1420.13 1851.76 1417.23 1852.49 Q1414.34 1853.22 1411.66 1854.69 L1411.66 1849.28 Q1414.88 1848.03 1417.9 1847.43 Q1420.92 1846.79 1423.79 1846.79 Q1431.52 1846.79 1435.34 1850.8 Q1439.16 1854.81 1439.16 1862.96 Z" fill="#000000" fill-rule="nonzero" fill-opacity="1" /><path clip-path="url(#clip140)" d="M1457.02 1837.53 L1457.02 1847.65 L1469.08 1847.65 L1469.08 1852.2 L1457.02 1852.2 L1457.02 1871.56 Q1457.02 1875.92 1458.19 1877.16 Q1459.4 1878.4 1463.06 1878.4 L1469.08 1878.4 L1469.08 1883.3 L1463.06 1883.3 Q1456.29 1883.3 1453.71 1880.79 Q1451.13 1878.24 1451.13 1871.56 L1451.13 1852.2 L1446.83 1852.2 L1446.83 1847.65 L1451.13 1847.65 L1451.13 1837.53 L1457.02 1837.53 Z" fill="#000000" fill-rule="nonzero" fill-opacity="1" /><path clip-path="url(#clip140)" d="M1476.78 1847.65 L1482.64 1847.65 L1482.64 1883.3 L1476.78 1883.3 L1476.78 1847.65 M1476.78 1833.78 L1482.64 1833.78 L1482.64 1841.19 L1476.78 1841.19 L1476.78 1833.78 Z" fill="#000000" fill-rule="nonzero" fill-opacity="1" /><path clip-path="url(#clip140)" d="M1508.71 1851.76 Q1504 1851.76 1501.26 1855.45 Q1498.52 1859.11 1498.52 1865.51 Q1498.52 1871.91 1501.23 1875.6 Q1503.96 1879.26 1508.71 1879.26 Q1513.39 1879.26 1516.12 1875.57 Q1518.86 1871.87 1518.86 1865.51 Q1518.86 1859.17 1516.12 1855.48 Q1513.39 1851.76 1508.71 1851.76 M1508.71 1846.79 Q1516.35 1846.79 1520.71 1851.76 Q1525.07 1856.72 1525.07 1865.51 Q1525.07 1874.26 1520.71 1879.26 Q1516.35 1884.22 1508.71 1884.22 Q1501.04 1884.22 1496.68 1879.26 Q1492.35 1874.26 1492.35 1865.51 Q1492.35 1856.72 1496.68 1851.76 Q1501.04 1846.79 1508.71 1846.79 Z" fill="#000000" fill-rule="nonzero" fill-opacity="1" /><path clip-path="url(#clip140)" d="M1564.41 1861.78 L1564.41 1883.3 L1558.55 1883.3 L1558.55 1861.98 Q1558.55 1856.92 1556.58 1854.4 Q1554.6 1851.89 1550.66 1851.89 Q1545.91 1851.89 1543.18 1854.91 Q1540.44 1857.93 1540.44 1863.15 L1540.44 1883.3 L1534.55 1883.3 L1534.55 1847.65 L1540.44 1847.65 L1540.44 1853.19 Q1542.54 1849.98 1545.37 1848.39 Q1548.24 1846.79 1551.96 1846.79 Q1558.1 1846.79 1561.26 1850.61 Q1564.41 1854.4 1564.41 1861.78 Z" fill="#000000" fill-rule="nonzero" fill-opacity="1" /><path clip-path="url(#clip140)" d="M1597.06 1835.78 L1605.72 1835.78 L1626.79 1875.53 L1626.79 1835.78 L1633.03 1835.78 L1633.03 1883.3 L1624.37 1883.3 L1603.3 1843.55 L1603.3 1883.3 L1597.06 1883.3 L1597.06 1835.78 Z" fill="#000000" fill-rule="nonzero" fill-opacity="1" /><polyline clip-path="url(#clip140)" style="stroke:#000000; stroke-linecap:round; stroke-linejoin:round; stroke-width:4; stroke-opacity:1; fill:none" points="226.141,1734.12 226.141,127.792 "/>
<polyline clip-path="url(#clip140)" style="stroke:#000000; stroke-linecap:round; stroke-linejoin:round; stroke-width:4; stroke-opacity:1; fill:none" points="226.141,1688.65 245.038,1688.65 "/>
<polyline clip-path="url(#clip140)" style="stroke:#000000; stroke-linecap:round; stroke-linejoin:round; stroke-width:4; stroke-opacity:1; fill:none" points="226.141,1382.34 245.038,1382.34 "/>
<polyline clip-path="url(#clip140)" style="stroke:#000000; stroke-linecap:round; stroke-linejoin:round; stroke-width:4; stroke-opacity:1; fill:none" points="226.141,1076.02 245.038,1076.02 "/>
<polyline clip-path="url(#clip140)" style="stroke:#000000; stroke-linecap:round; stroke-linejoin:round; stroke-width:4; stroke-opacity:1; fill:none" points="226.141,769.708 245.038,769.708 "/>
<polyline clip-path="url(#clip140)" style="stroke:#000000; stroke-linecap:round; stroke-linejoin:round; stroke-width:4; stroke-opacity:1; fill:none" points="226.141,463.392 245.038,463.392 "/>
<polyline clip-path="url(#clip140)" style="stroke:#000000; stroke-linecap:round; stroke-linejoin:round; stroke-width:4; stroke-opacity:1; fill:none" points="226.141,157.076 245.038,157.076 "/>
<path clip-path="url(#clip140)" d="M128.645 1674.45 Q125.034 1674.45 123.205 1678.02 Q121.4 1681.56 121.4 1688.69 Q121.4 1695.8 123.205 1699.36 Q125.034 1702.9 128.645 1702.9 Q132.279 1702.9 134.085 1699.36 Q135.913 1695.8 135.913 1688.69 Q135.913 1681.56 134.085 1678.02 Q132.279 1674.45 128.645 1674.45 M128.645 1670.75 Q134.455 1670.75 137.511 1675.36 Q140.589 1679.94 140.589 1688.69 Q140.589 1697.42 137.511 1702.02 Q134.455 1706.61 128.645 1706.61 Q122.835 1706.61 119.756 1702.02 Q116.701 1697.42 116.701 1688.69 Q116.701 1679.94 119.756 1675.36 Q122.835 1670.75 128.645 1670.75 Z" fill="#000000" fill-rule="nonzero" fill-opacity="1" /><path clip-path="url(#clip140)" d="M148.807 1700.06 L153.691 1700.06 L153.691 1705.93 L148.807 1705.93 L148.807 1700.06 Z" fill="#000000" fill-rule="nonzero" fill-opacity="1" /><path clip-path="url(#clip140)" d="M173.876 1674.45 Q170.265 1674.45 168.436 1678.02 Q166.631 1681.56 166.631 1688.69 Q166.631 1695.8 168.436 1699.36 Q170.265 1702.9 173.876 1702.9 Q177.51 1702.9 179.316 1699.36 Q181.145 1695.8 181.145 1688.69 Q181.145 1681.56 179.316 1678.02 Q177.51 1674.45 173.876 1674.45 M173.876 1670.75 Q179.686 1670.75 182.742 1675.36 Q185.821 1679.94 185.821 1688.69 Q185.821 1697.42 182.742 1702.02 Q179.686 1706.61 173.876 1706.61 Q168.066 1706.61 164.987 1702.02 Q161.932 1697.42 161.932 1688.69 Q161.932 1679.94 164.987 1675.36 Q168.066 1670.75 173.876 1670.75 Z" fill="#000000" fill-rule="nonzero" fill-opacity="1" /><path clip-path="url(#clip140)" d="M129.872 1368.14 Q126.261 1368.14 124.432 1371.7 Q122.626 1375.24 122.626 1382.37 Q122.626 1389.48 124.432 1393.05 Q126.261 1396.59 129.872 1396.59 Q133.506 1396.59 135.312 1393.05 Q137.14 1389.48 137.14 1382.37 Q137.14 1375.24 135.312 1371.7 Q133.506 1368.14 129.872 1368.14 M129.872 1364.43 Q135.682 1364.43 138.737 1369.04 Q141.816 1373.62 141.816 1382.37 Q141.816 1391.1 138.737 1395.71 Q135.682 1400.29 129.872 1400.29 Q124.062 1400.29 120.983 1395.71 Q117.927 1391.1 117.927 1382.37 Q117.927 1373.62 120.983 1369.04 Q124.062 1364.43 129.872 1364.43 Z" fill="#000000" fill-rule="nonzero" fill-opacity="1" /><path clip-path="url(#clip140)" d="M150.034 1393.74 L154.918 1393.74 L154.918 1399.62 L150.034 1399.62 L150.034 1393.74 Z" fill="#000000" fill-rule="nonzero" fill-opacity="1" /><path clip-path="url(#clip140)" d="M165.913 1395.68 L173.552 1395.68 L173.552 1369.32 L165.242 1370.99 L165.242 1366.73 L173.506 1365.06 L178.182 1365.06 L178.182 1395.68 L185.821 1395.68 L185.821 1399.62 L165.913 1399.62 L165.913 1395.68 Z" fill="#000000" fill-rule="nonzero" fill-opacity="1" /><path clip-path="url(#clip140)" d="M130.242 1061.82 Q126.631 1061.82 124.802 1065.39 Q122.997 1068.93 122.997 1076.06 Q122.997 1083.16 124.802 1086.73 Q126.631 1090.27 130.242 1090.27 Q133.876 1090.27 135.682 1086.73 Q137.511 1083.16 137.511 1076.06 Q137.511 1068.93 135.682 1065.39 Q133.876 1061.82 130.242 1061.82 M130.242 1058.12 Q136.052 1058.12 139.108 1062.72 Q142.187 1067.31 142.187 1076.06 Q142.187 1084.78 139.108 1089.39 Q136.052 1093.97 130.242 1093.97 Q124.432 1093.97 121.353 1089.39 Q118.298 1084.78 118.298 1076.06 Q118.298 1067.31 121.353 1062.72 Q124.432 1058.12 130.242 1058.12 Z" fill="#000000" fill-rule="nonzero" fill-opacity="1" /><path clip-path="url(#clip140)" d="M150.404 1087.42 L155.288 1087.42 L155.288 1093.3 L150.404 1093.3 L150.404 1087.42 Z" fill="#000000" fill-rule="nonzero" fill-opacity="1" /><path clip-path="url(#clip140)" d="M169.501 1089.37 L185.821 1089.37 L185.821 1093.3 L163.876 1093.3 L163.876 1089.37 Q166.538 1086.61 171.122 1081.98 Q175.728 1077.33 176.909 1075.99 Q179.154 1073.47 180.034 1071.73 Q180.936 1069.97 180.936 1068.28 Q180.936 1065.53 178.992 1063.79 Q177.071 1062.05 173.969 1062.05 Q171.77 1062.05 169.316 1062.82 Q166.885 1063.58 164.108 1065.13 L164.108 1060.41 Q166.932 1059.28 169.385 1058.7 Q171.839 1058.12 173.876 1058.12 Q179.247 1058.12 182.441 1060.8 Q185.635 1063.49 185.635 1067.98 Q185.635 1070.11 184.825 1072.03 Q184.038 1073.93 181.932 1076.52 Q181.353 1077.19 178.251 1080.41 Q175.149 1083.6 169.501 1089.37 Z" fill="#000000" fill-rule="nonzero" fill-opacity="1" /><path clip-path="url(#clip140)" d="M129.293 755.506 Q125.682 755.506 123.853 759.071 Q122.048 762.613 122.048 769.742 Q122.048 776.849 123.853 780.414 Q125.682 783.955 129.293 783.955 Q132.927 783.955 134.733 780.414 Q136.562 776.849 136.562 769.742 Q136.562 762.613 134.733 759.071 Q132.927 755.506 129.293 755.506 M129.293 751.803 Q135.103 751.803 138.159 756.409 Q141.237 760.992 141.237 769.742 Q141.237 778.469 138.159 783.076 Q135.103 787.659 129.293 787.659 Q123.483 787.659 120.404 783.076 Q117.349 778.469 117.349 769.742 Q117.349 760.992 120.404 756.409 Q123.483 751.803 129.293 751.803 Z" fill="#000000" fill-rule="nonzero" fill-opacity="1" /><path clip-path="url(#clip140)" d="M149.455 781.108 L154.339 781.108 L154.339 786.988 L149.455 786.988 L149.455 781.108 Z" fill="#000000" fill-rule="nonzero" fill-opacity="1" /><path clip-path="url(#clip140)" d="M178.691 768.353 Q182.047 769.071 183.922 771.34 Q185.821 773.608 185.821 776.941 Q185.821 782.057 182.302 784.858 Q178.784 787.659 172.302 787.659 Q170.126 787.659 167.811 787.219 Q165.52 786.802 163.066 785.946 L163.066 781.432 Q165.01 782.566 167.325 783.145 Q169.64 783.724 172.163 783.724 Q176.561 783.724 178.853 781.988 Q181.168 780.252 181.168 776.941 Q181.168 773.886 179.015 772.173 Q176.885 770.437 173.066 770.437 L169.038 770.437 L169.038 766.594 L173.251 766.594 Q176.7 766.594 178.529 765.229 Q180.358 763.84 180.358 761.247 Q180.358 758.585 178.459 757.173 Q176.584 755.738 173.066 755.738 Q171.145 755.738 168.946 756.154 Q166.747 756.571 164.108 757.451 L164.108 753.284 Q166.77 752.543 169.085 752.173 Q171.422 751.803 173.483 751.803 Q178.807 751.803 181.909 754.233 Q185.01 756.641 185.01 760.761 Q185.01 763.631 183.367 765.622 Q181.723 767.59 178.691 768.353 Z" fill="#000000" fill-rule="nonzero" fill-opacity="1" /><path clip-path="url(#clip140)" d="M128.159 449.191 Q124.548 449.191 122.719 452.755 Q120.913 456.297 120.913 463.427 Q120.913 470.533 122.719 474.098 Q124.548 477.639 128.159 477.639 Q131.793 477.639 133.599 474.098 Q135.427 470.533 135.427 463.427 Q135.427 456.297 133.599 452.755 Q131.793 449.191 128.159 449.191 M128.159 445.487 Q133.969 445.487 137.025 450.093 Q140.103 454.677 140.103 463.427 Q140.103 472.153 137.025 476.76 Q133.969 481.343 128.159 481.343 Q122.349 481.343 119.27 476.76 Q116.214 472.153 116.214 463.427 Q116.214 454.677 119.27 450.093 Q122.349 445.487 128.159 445.487 Z" fill="#000000" fill-rule="nonzero" fill-opacity="1" /><path clip-path="url(#clip140)" d="M148.321 474.792 L153.205 474.792 L153.205 480.672 L148.321 480.672 L148.321 474.792 Z" fill="#000000" fill-rule="nonzero" fill-opacity="1" /><path clip-path="url(#clip140)" d="M176.237 450.186 L164.432 468.635 L176.237 468.635 L176.237 450.186 M175.01 446.112 L180.89 446.112 L180.89 468.635 L185.821 468.635 L185.821 472.524 L180.89 472.524 L180.89 480.672 L176.237 480.672 L176.237 472.524 L160.636 472.524 L160.636 468.01 L175.01 446.112 Z" fill="#000000" fill-rule="nonzero" fill-opacity="1" /><path clip-path="url(#clip140)" d="M129.64 142.875 Q126.029 142.875 124.201 146.44 Q122.395 149.981 122.395 157.111 Q122.395 164.217 124.201 167.782 Q126.029 171.324 129.64 171.324 Q133.275 171.324 135.08 167.782 Q136.909 164.217 136.909 157.111 Q136.909 149.981 135.08 146.44 Q133.275 142.875 129.64 142.875 M129.64 139.171 Q135.45 139.171 138.506 143.778 Q141.585 148.361 141.585 157.111 Q141.585 165.838 138.506 170.444 Q135.45 175.027 129.64 175.027 Q123.83 175.027 120.751 170.444 Q117.696 165.838 117.696 157.111 Q117.696 148.361 120.751 143.778 Q123.83 139.171 129.64 139.171 Z" fill="#000000" fill-rule="nonzero" fill-opacity="1" /><path clip-path="url(#clip140)" d="M149.802 168.477 L154.686 168.477 L154.686 174.356 L149.802 174.356 L149.802 168.477 Z" fill="#000000" fill-rule="nonzero" fill-opacity="1" /><path clip-path="url(#clip140)" d="M164.918 139.796 L183.274 139.796 L183.274 143.731 L169.2 143.731 L169.2 152.203 Q170.219 151.856 171.237 151.694 Q172.256 151.509 173.274 151.509 Q179.061 151.509 182.441 154.68 Q185.821 157.852 185.821 163.268 Q185.821 168.847 182.348 171.949 Q178.876 175.027 172.557 175.027 Q170.381 175.027 168.112 174.657 Q165.867 174.287 163.46 173.546 L163.46 168.847 Q165.543 169.981 167.765 170.537 Q169.987 171.092 172.464 171.092 Q176.469 171.092 178.807 168.986 Q181.145 166.879 181.145 163.268 Q181.145 159.657 178.807 157.551 Q176.469 155.444 172.464 155.444 Q170.589 155.444 168.714 155.861 Q166.862 156.278 164.918 157.157 L164.918 139.796 Z" fill="#000000" fill-rule="nonzero" fill-opacity="1" /><path clip-path="url(#clip140)" d="M31.465 967.526 Q30.8921 968.512 30.6375 969.69 Q30.351 970.836 30.351 972.236 Q30.351 977.201 33.5975 979.875 Q36.8122 982.517 42.8596 982.517 L61.6384 982.517 L61.6384 988.405 L25.9905 988.405 L25.9905 982.517 L31.5287 982.517 Q28.2821 980.671 26.7225 977.711 Q25.1311 974.751 25.1311 970.517 Q25.1311 969.913 25.2266 969.181 Q25.2903 968.449 25.4494 967.557 L31.465 967.526 Z" fill="#000000" fill-rule="nonzero" fill-opacity="1" /><path clip-path="url(#clip140)" d="M12.1769 947.314 Q19.4975 951.579 26.6589 953.648 Q33.8203 955.717 41.1727 955.717 Q48.5251 955.717 55.7502 953.648 Q62.9434 951.548 70.2321 947.314 L70.2321 952.407 Q62.7524 957.181 55.5274 959.568 Q48.3023 961.924 41.1727 961.924 Q34.0749 961.924 26.8817 959.568 Q19.6884 957.213 12.1769 952.407 L12.1769 947.314 Z" fill="#000000" fill-rule="nonzero" fill-opacity="1" /><path clip-path="url(#clip140)" d="M14.1184 935.697 L14.1184 927.04 L53.8723 905.969 L14.1184 905.969 L14.1184 899.731 L61.6384 899.731 L61.6384 908.388 L21.8846 929.459 L61.6384 929.459 L61.6384 935.697 L14.1184 935.697 Z" fill="#000000" fill-rule="nonzero" fill-opacity="1" /><path clip-path="url(#clip140)" d="M12.1769 888.113 L12.1769 883.021 Q19.6884 878.247 26.8817 875.891 Q34.0749 873.504 41.1727 873.504 Q48.3023 873.504 55.5274 875.891 Q62.7524 878.247 70.2321 883.021 L70.2321 888.113 Q62.9434 883.88 55.7502 881.811 Q48.5251 879.711 41.1727 879.711 Q33.8203 879.711 26.6589 881.811 Q19.4975 883.88 12.1769 888.113 Z" fill="#000000" fill-rule="nonzero" fill-opacity="1" /><path clip-path="url(#clip140)" d="M398.442 44.2197 Q401.075 45.1109 403.546 48.0275 Q406.058 50.9442 408.569 56.0483 L416.874 72.576 L408.083 72.576 L400.346 57.061 Q397.348 50.9847 394.513 48.9997 Q391.718 47.0148 386.857 47.0148 L377.945 47.0148 L377.945 72.576 L369.762 72.576 L369.762 12.096 L388.234 12.096 Q398.604 12.096 403.708 16.4305 Q408.813 20.7649 408.813 29.5149 Q408.813 35.2267 406.139 38.994 Q403.506 42.7613 398.442 44.2197 M377.945 18.8205 L377.945 40.2903 L388.234 40.2903 Q394.148 40.2903 397.146 37.5762 Q400.184 34.8216 400.184 29.5149 Q400.184 24.2082 397.146 21.5346 Q394.148 18.8205 388.234 18.8205 L377.945 18.8205 Z" fill="#000000" fill-rule="nonzero" fill-opacity="1" /><path clip-path="url(#clip140)" d="M462.163 48.0275 L462.163 51.6733 L427.892 51.6733 Q428.378 59.3701 432.51 63.421 Q436.683 67.4314 444.096 67.4314 Q448.39 67.4314 452.4 66.3781 Q456.451 65.3249 460.421 63.2184 L460.421 70.267 Q456.411 71.9684 452.198 72.8596 Q447.985 73.7508 443.65 73.7508 Q432.794 73.7508 426.434 67.4314 Q420.115 61.1119 420.115 50.3365 Q420.115 39.1965 426.11 32.6746 Q432.146 26.1121 442.354 26.1121 Q451.509 26.1121 456.816 32.0264 Q462.163 37.9003 462.163 48.0275 M454.709 45.84 Q454.628 39.7232 451.266 36.0774 Q447.944 32.4315 442.435 32.4315 Q436.197 32.4315 432.429 35.9558 Q428.702 39.4801 428.135 45.8805 L454.709 45.84 Z" fill="#000000" fill-rule="nonzero" fill-opacity="1" /><path clip-path="url(#clip140)" d="M507.047 28.9478 L507.047 35.9153 Q503.887 34.1734 500.687 33.3227 Q497.527 32.4315 494.287 32.4315 Q487.035 32.4315 483.025 37.0496 Q479.015 41.6271 479.015 49.9314 Q479.015 58.2358 483.025 62.8538 Q487.035 67.4314 494.287 67.4314 Q497.527 67.4314 500.687 66.5807 Q503.887 65.6895 507.047 63.9476 L507.047 70.8341 Q503.928 72.2924 500.565 73.0216 Q497.244 73.7508 493.476 73.7508 Q483.228 73.7508 477.192 67.3098 Q471.156 60.8689 471.156 49.9314 Q471.156 38.832 477.232 32.472 Q483.349 26.1121 493.963 26.1121 Q497.406 26.1121 500.687 26.8413 Q503.968 27.5299 507.047 28.9478 Z" fill="#000000" fill-rule="nonzero" fill-opacity="1" /><path clip-path="url(#clip140)" d="M537.591 32.4315 Q531.595 32.4315 528.112 37.1306 Q524.628 41.7891 524.628 49.9314 Q524.628 58.0738 528.071 62.7728 Q531.555 67.4314 537.591 67.4314 Q543.546 67.4314 547.029 62.7323 Q550.513 58.0333 550.513 49.9314 Q550.513 41.8701 547.029 37.1711 Q543.546 32.4315 537.591 32.4315 M537.591 26.1121 Q547.313 26.1121 552.863 32.4315 Q558.412 38.7509 558.412 49.9314 Q558.412 61.0714 552.863 67.4314 Q547.313 73.7508 537.591 73.7508 Q527.828 73.7508 522.278 67.4314 Q516.769 61.0714 516.769 49.9314 Q516.769 38.7509 522.278 32.4315 Q527.828 26.1121 537.591 26.1121 Z" fill="#000000" fill-rule="nonzero" fill-opacity="1" /><path clip-path="url(#clip140)" d="M565.42 27.2059 L573.32 27.2059 L587.498 65.2844 L601.676 27.2059 L609.575 27.2059 L592.562 72.576 L582.434 72.576 L565.42 27.2059 Z" fill="#000000" fill-rule="nonzero" fill-opacity="1" /><path clip-path="url(#clip140)" d="M658.672 48.0275 L658.672 51.6733 L624.402 51.6733 Q624.888 59.3701 629.02 63.421 Q633.192 67.4314 640.605 67.4314 Q644.899 67.4314 648.91 66.3781 Q652.961 65.3249 656.93 63.2184 L656.93 70.267 Q652.92 71.9684 648.707 72.8596 Q644.494 73.7508 640.16 73.7508 Q629.303 73.7508 622.943 67.4314 Q616.624 61.1119 616.624 50.3365 Q616.624 39.1965 622.619 32.6746 Q628.655 26.1121 638.863 26.1121 Q648.018 26.1121 653.325 32.0264 Q658.672 37.9003 658.672 48.0275 M651.219 45.84 Q651.138 39.7232 647.775 36.0774 Q644.454 32.4315 638.944 32.4315 Q632.706 32.4315 628.939 35.9558 Q625.212 39.4801 624.645 45.8805 L651.219 45.84 Z" fill="#000000" fill-rule="nonzero" fill-opacity="1" /><path clip-path="url(#clip140)" d="M697.196 34.1734 Q695.941 33.4443 694.442 33.1202 Q692.983 32.7556 691.201 32.7556 Q684.882 32.7556 681.479 36.8875 Q678.117 40.9789 678.117 48.6757 L678.117 72.576 L670.622 72.576 L670.622 27.2059 L678.117 27.2059 L678.117 34.2544 Q680.466 30.1225 684.233 28.1376 Q688.001 26.1121 693.389 26.1121 Q694.158 26.1121 695.09 26.2337 Q696.022 26.3147 697.156 26.5172 L697.196 34.1734 Z" fill="#000000" fill-rule="nonzero" fill-opacity="1" /><path clip-path="url(#clip140)" d="M741.999 48.0275 L741.999 51.6733 L707.729 51.6733 Q708.215 59.3701 712.347 63.421 Q716.519 67.4314 723.932 67.4314 Q728.226 67.4314 732.237 66.3781 Q736.288 65.3249 740.257 63.2184 L740.257 70.267 Q736.247 71.9684 732.034 72.8596 Q727.821 73.7508 723.487 73.7508 Q712.63 73.7508 706.27 67.4314 Q699.951 61.1119 699.951 50.3365 Q699.951 39.1965 705.946 32.6746 Q711.982 26.1121 722.19 26.1121 Q731.346 26.1121 736.652 32.0264 Q741.999 37.9003 741.999 48.0275 M734.546 45.84 Q734.465 39.7232 731.102 36.0774 Q727.781 32.4315 722.271 32.4315 Q716.033 32.4315 712.266 35.9558 Q708.539 39.4801 707.972 45.8805 L734.546 45.84 Z" fill="#000000" fill-rule="nonzero" fill-opacity="1" /><path clip-path="url(#clip140)" d="M784.088 34.0924 L784.088 9.54393 L791.542 9.54393 L791.542 72.576 L784.088 72.576 L784.088 65.7705 Q781.739 69.8214 778.133 71.8063 Q774.569 73.7508 769.546 73.7508 Q761.322 73.7508 756.137 67.1883 Q750.992 60.6258 750.992 49.9314 Q750.992 39.2371 756.137 32.6746 Q761.322 26.1121 769.546 26.1121 Q774.569 26.1121 778.133 28.0971 Q781.739 30.0415 784.088 34.0924 M758.689 49.9314 Q758.689 58.1548 762.051 62.8538 Q765.454 67.5124 771.368 67.5124 Q777.283 67.5124 780.686 62.8538 Q784.088 58.1548 784.088 49.9314 Q784.088 41.7081 780.686 37.0496 Q777.283 32.3505 771.368 32.3505 Q765.454 32.3505 762.051 37.0496 Q758.689 41.7081 758.689 49.9314 Z" fill="#000000" fill-rule="nonzero" fill-opacity="1" /><path clip-path="url(#clip140)" d="M863.121 49.3643 Q863.121 41.2625 859.759 36.8065 Q856.437 32.3505 850.402 32.3505 Q844.406 32.3505 841.044 36.8065 Q837.722 41.2625 837.722 49.3643 Q837.722 57.4256 841.044 61.8816 Q844.406 66.3376 850.402 66.3376 Q856.437 66.3376 859.759 61.8816 Q863.121 57.4256 863.121 49.3643 M870.575 66.9452 Q870.575 78.5308 865.43 84.1616 Q860.286 89.8329 849.672 89.8329 Q845.743 89.8329 842.259 89.2252 Q838.775 88.6581 835.494 87.4428 L835.494 80.1917 Q838.775 81.9741 841.976 82.8248 Q845.176 83.6755 848.498 83.6755 Q855.83 83.6755 859.476 79.8271 Q863.121 76.0193 863.121 68.282 L863.121 64.5957 Q860.812 68.6061 857.207 70.5911 Q853.602 72.576 848.579 72.576 Q840.234 72.576 835.13 66.2161 Q830.026 59.8562 830.026 49.3643 Q830.026 38.832 835.13 32.472 Q840.234 26.1121 848.579 26.1121 Q853.602 26.1121 857.207 28.0971 Q860.812 30.082 863.121 34.0924 L863.121 27.2059 L870.575 27.2059 L870.575 66.9452 Z" fill="#000000" fill-rule="nonzero" fill-opacity="1" /><path clip-path="url(#clip140)" d="M912.218 34.1734 Q910.963 33.4443 909.464 33.1202 Q908.005 32.7556 906.223 32.7556 Q899.904 32.7556 896.501 36.8875 Q893.139 40.9789 893.139 48.6757 L893.139 72.576 L885.644 72.576 L885.644 27.2059 L893.139 27.2059 L893.139 34.2544 Q895.488 30.1225 899.255 28.1376 Q903.023 26.1121 908.411 26.1121 Q909.18 26.1121 910.112 26.2337 Q911.044 26.3147 912.178 26.5172 L912.218 34.1734 Z" fill="#000000" fill-rule="nonzero" fill-opacity="1" /><path clip-path="url(#clip140)" d="M935.795 32.4315 Q929.799 32.4315 926.316 37.1306 Q922.832 41.7891 922.832 49.9314 Q922.832 58.0738 926.275 62.7728 Q929.759 67.4314 935.795 67.4314 Q941.749 67.4314 945.233 62.7323 Q948.717 58.0333 948.717 49.9314 Q948.717 41.8701 945.233 37.1711 Q941.749 32.4315 935.795 32.4315 M935.795 26.1121 Q945.517 26.1121 951.067 32.4315 Q956.616 38.7509 956.616 49.9314 Q956.616 61.0714 951.067 67.4314 Q945.517 73.7508 935.795 73.7508 Q926.032 73.7508 920.482 67.4314 Q914.973 61.0714 914.973 49.9314 Q914.973 38.7509 920.482 32.4315 Q926.032 26.1121 935.795 26.1121 Z" fill="#000000" fill-rule="nonzero" fill-opacity="1" /><path clip-path="url(#clip140)" d="M964.637 27.2059 L972.091 27.2059 L981.408 62.6108 L990.684 27.2059 L999.475 27.2059 L1008.79 62.6108 L1018.07 27.2059 L1025.52 27.2059 L1013.65 72.576 L1004.86 72.576 L995.1 35.3887 L985.297 72.576 L976.506 72.576 L964.637 27.2059 Z" fill="#000000" fill-rule="nonzero" fill-opacity="1" /><path clip-path="url(#clip140)" d="M1044.2 14.324 L1044.2 27.2059 L1059.55 27.2059 L1059.55 32.9987 L1044.2 32.9987 L1044.2 57.6282 Q1044.2 63.1779 1045.7 64.7578 Q1047.24 66.3376 1051.89 66.3376 L1059.55 66.3376 L1059.55 72.576 L1051.89 72.576 Q1043.27 72.576 1039.98 69.3758 Q1036.7 66.1351 1036.7 57.6282 L1036.7 32.9987 L1031.23 32.9987 L1031.23 27.2059 L1036.7 27.2059 L1036.7 14.324 L1044.2 14.324 Z" fill="#000000" fill-rule="nonzero" fill-opacity="1" /><path clip-path="url(#clip140)" d="M1107.07 45.1919 L1107.07 72.576 L1099.61 72.576 L1099.61 45.4349 Q1099.61 38.994 1097.1 35.7938 Q1094.59 32.5936 1089.57 32.5936 Q1083.53 32.5936 1080.05 36.4419 Q1076.56 40.2903 1076.56 46.9338 L1076.56 72.576 L1069.07 72.576 L1069.07 9.54393 L1076.56 9.54393 L1076.56 34.2544 Q1079.24 30.163 1082.84 28.1376 Q1086.49 26.1121 1091.23 26.1121 Q1099.05 26.1121 1103.06 30.9732 Q1107.07 35.7938 1107.07 45.1919 Z" fill="#000000" fill-rule="nonzero" fill-opacity="1" /><path clip-path="url(#clip140)" d="M1174.6 34.1734 Q1173.34 33.4443 1171.84 33.1202 Q1170.38 32.7556 1168.6 32.7556 Q1162.28 32.7556 1158.88 36.8875 Q1155.52 40.9789 1155.52 48.6757 L1155.52 72.576 L1148.02 72.576 L1148.02 27.2059 L1155.52 27.2059 L1155.52 34.2544 Q1157.87 30.1225 1161.63 28.1376 Q1165.4 26.1121 1170.79 26.1121 Q1171.56 26.1121 1172.49 26.2337 Q1173.42 26.3147 1174.55 26.5172 L1174.6 34.1734 Z" fill="#000000" fill-rule="nonzero" fill-opacity="1" /><path clip-path="url(#clip140)" d="M1203.03 49.7694 Q1194 49.7694 1190.52 51.8354 Q1187.03 53.9013 1187.03 58.8839 Q1187.03 62.8538 1189.62 65.2034 Q1192.26 67.5124 1196.75 67.5124 Q1202.95 67.5124 1206.68 63.1374 Q1210.45 58.7219 1210.45 51.4303 L1210.45 49.7694 L1203.03 49.7694 M1217.9 46.6907 L1217.9 72.576 L1210.45 72.576 L1210.45 65.6895 Q1207.89 69.8214 1204.09 71.8063 Q1200.28 73.7508 1194.77 73.7508 Q1187.8 73.7508 1183.67 69.8619 Q1179.58 65.9325 1179.58 59.3701 Q1179.58 51.7138 1184.68 47.825 Q1189.83 43.9361 1199.99 43.9361 L1210.45 43.9361 L1210.45 43.2069 Q1210.45 38.0623 1207.04 35.2672 Q1203.68 32.4315 1197.56 32.4315 Q1193.68 32.4315 1189.99 33.3632 Q1186.3 34.295 1182.9 36.1584 L1182.9 29.2718 Q1186.99 27.692 1190.84 26.9223 Q1194.69 26.1121 1198.33 26.1121 Q1208.18 26.1121 1213.04 31.2163 Q1217.9 36.3204 1217.9 46.6907 Z" fill="#000000" fill-rule="nonzero" fill-opacity="1" /><path clip-path="url(#clip140)" d="M1240.63 14.324 L1240.63 27.2059 L1255.98 27.2059 L1255.98 32.9987 L1240.63 32.9987 L1240.63 57.6282 Q1240.63 63.1779 1242.12 64.7578 Q1243.66 66.3376 1248.32 66.3376 L1255.98 66.3376 L1255.98 72.576 L1248.32 72.576 Q1239.69 72.576 1236.41 69.3758 Q1233.13 66.1351 1233.13 57.6282 L1233.13 32.9987 L1227.66 32.9987 L1227.66 27.2059 L1233.13 27.2059 L1233.13 14.324 L1240.63 14.324 Z" fill="#000000" fill-rule="nonzero" fill-opacity="1" /><path clip-path="url(#clip140)" d="M1304.59 48.0275 L1304.59 51.6733 L1270.32 51.6733 Q1270.8 59.3701 1274.94 63.421 Q1279.11 67.4314 1286.52 67.4314 Q1290.82 67.4314 1294.83 66.3781 Q1298.88 65.3249 1302.85 63.2184 L1302.85 70.267 Q1298.84 71.9684 1294.62 72.8596 Q1290.41 73.7508 1286.08 73.7508 Q1275.22 73.7508 1268.86 67.4314 Q1262.54 61.1119 1262.54 50.3365 Q1262.54 39.1965 1268.54 32.6746 Q1274.57 26.1121 1284.78 26.1121 Q1293.94 26.1121 1299.24 32.0264 Q1304.59 37.9003 1304.59 48.0275 M1297.14 45.84 Q1297.05 39.7232 1293.69 36.0774 Q1290.37 32.4315 1284.86 32.4315 Q1278.62 32.4315 1274.86 35.9558 Q1271.13 39.4801 1270.56 45.8805 L1297.14 45.84 Z" fill="#000000" fill-rule="nonzero" fill-opacity="1" /><path clip-path="url(#clip140)" d="M1318.73 62.2867 L1327.27 62.2867 L1327.27 72.576 L1318.73 72.576 L1318.73 62.2867 M1318.73 29.6769 L1327.27 29.6769 L1327.27 39.9662 L1318.73 39.9662 L1318.73 29.6769 Z" fill="#000000" fill-rule="nonzero" fill-opacity="1" /><path clip-path="url(#clip140)" d="M1401 49.3643 Q1401 41.2625 1397.64 36.8065 Q1394.32 32.3505 1388.28 32.3505 Q1382.29 32.3505 1378.92 36.8065 Q1375.6 41.2625 1375.6 49.3643 Q1375.6 57.4256 1378.92 61.8816 Q1382.29 66.3376 1388.28 66.3376 Q1394.32 66.3376 1397.64 61.8816 Q1401 57.4256 1401 49.3643 M1408.45 66.9452 Q1408.45 78.5308 1403.31 84.1616 Q1398.16 89.8329 1387.55 89.8329 Q1383.62 89.8329 1380.14 89.2252 Q1376.65 88.6581 1373.37 87.4428 L1373.37 80.1917 Q1376.65 81.9741 1379.85 82.8248 Q1383.05 83.6755 1386.38 83.6755 Q1393.71 83.6755 1397.35 79.8271 Q1401 76.0193 1401 68.282 L1401 64.5957 Q1398.69 68.6061 1395.09 70.5911 Q1391.48 72.576 1386.46 72.576 Q1378.11 72.576 1373.01 66.2161 Q1367.9 59.8562 1367.9 49.3643 Q1367.9 38.832 1373.01 32.472 Q1378.11 26.1121 1386.46 26.1121 Q1391.48 26.1121 1395.09 28.0971 Q1398.69 30.082 1401 34.0924 L1401 27.2059 L1408.45 27.2059 L1408.45 66.9452 Z" fill="#000000" fill-rule="nonzero" fill-opacity="1" /><path clip-path="url(#clip140)" d="M1450.1 34.1734 Q1448.84 33.4443 1447.34 33.1202 Q1445.88 32.7556 1444.1 32.7556 Q1437.78 32.7556 1434.38 36.8875 Q1431.02 40.9789 1431.02 48.6757 L1431.02 72.576 L1423.52 72.576 L1423.52 27.2059 L1431.02 27.2059 L1431.02 34.2544 Q1433.37 30.1225 1437.13 28.1376 Q1440.9 26.1121 1446.29 26.1121 Q1447.06 26.1121 1447.99 26.2337 Q1448.92 26.3147 1450.06 26.5172 L1450.1 34.1734 Z" fill="#000000" fill-rule="nonzero" fill-opacity="1" /><path clip-path="url(#clip140)" d="M1478.53 49.7694 Q1469.5 49.7694 1466.02 51.8354 Q1462.53 53.9013 1462.53 58.8839 Q1462.53 62.8538 1465.13 65.2034 Q1467.76 67.5124 1472.26 67.5124 Q1478.45 67.5124 1482.18 63.1374 Q1485.95 58.7219 1485.95 51.4303 L1485.95 49.7694 L1478.53 49.7694 M1493.4 46.6907 L1493.4 72.576 L1485.95 72.576 L1485.95 65.6895 Q1483.4 69.8214 1479.59 71.8063 Q1475.78 73.7508 1470.27 73.7508 Q1463.3 73.7508 1459.17 69.8619 Q1455.08 65.9325 1455.08 59.3701 Q1455.08 51.7138 1460.18 47.825 Q1465.33 43.9361 1475.5 43.9361 L1485.95 43.9361 L1485.95 43.2069 Q1485.95 38.0623 1482.55 35.2672 Q1479.18 32.4315 1473.07 32.4315 Q1469.18 32.4315 1465.49 33.3632 Q1461.8 34.295 1458.4 36.1584 L1458.4 29.2718 Q1462.49 27.692 1466.34 26.9223 Q1470.19 26.1121 1473.84 26.1121 Q1483.68 26.1121 1488.54 31.2163 Q1493.4 36.3204 1493.4 46.6907 Z" fill="#000000" fill-rule="nonzero" fill-opacity="1" /><path clip-path="url(#clip140)" d="M1538.61 34.0924 L1538.61 9.54393 L1546.06 9.54393 L1546.06 72.576 L1538.61 72.576 L1538.61 65.7705 Q1536.26 69.8214 1532.65 71.8063 Q1529.09 73.7508 1524.07 73.7508 Q1515.84 73.7508 1510.66 67.1883 Q1505.51 60.6258 1505.51 49.9314 Q1505.51 39.2371 1510.66 32.6746 Q1515.84 26.1121 1524.07 26.1121 Q1529.09 26.1121 1532.65 28.0971 Q1536.26 30.0415 1538.61 34.0924 M1513.21 49.9314 Q1513.21 58.1548 1516.57 62.8538 Q1519.98 67.5124 1525.89 67.5124 Q1531.8 67.5124 1535.21 62.8538 Q1538.61 58.1548 1538.61 49.9314 Q1538.61 41.7081 1535.21 37.0496 Q1531.8 32.3505 1525.89 32.3505 Q1519.98 32.3505 1516.57 37.0496 Q1513.21 41.7081 1513.21 49.9314 Z" fill="#000000" fill-rule="nonzero" fill-opacity="1" /><path clip-path="url(#clip140)" d="M1561.42 27.2059 L1568.87 27.2059 L1568.87 72.576 L1561.42 72.576 L1561.42 27.2059 M1561.42 9.54393 L1568.87 9.54393 L1568.87 18.9825 L1561.42 18.9825 L1561.42 9.54393 Z" fill="#000000" fill-rule="nonzero" fill-opacity="1" /><path clip-path="url(#clip140)" d="M1623.27 48.0275 L1623.27 51.6733 L1589 51.6733 Q1589.49 59.3701 1593.62 63.421 Q1597.79 67.4314 1605.21 67.4314 Q1609.5 67.4314 1613.51 66.3781 Q1617.56 65.3249 1621.53 63.2184 L1621.53 70.267 Q1617.52 71.9684 1613.31 72.8596 Q1609.1 73.7508 1604.76 73.7508 Q1593.9 73.7508 1587.54 67.4314 Q1581.23 61.1119 1581.23 50.3365 Q1581.23 39.1965 1587.22 32.6746 Q1593.26 26.1121 1603.46 26.1121 Q1612.62 26.1121 1617.93 32.0264 Q1623.27 37.9003 1623.27 48.0275 M1615.82 45.84 Q1615.74 39.7232 1612.38 36.0774 Q1609.05 32.4315 1603.55 32.4315 Q1597.31 32.4315 1593.54 35.9558 Q1589.81 39.4801 1589.25 45.8805 L1615.82 45.84 Z" fill="#000000" fill-rule="nonzero" fill-opacity="1" /><path clip-path="url(#clip140)" d="M1673.22 45.1919 L1673.22 72.576 L1665.77 72.576 L1665.77 45.4349 Q1665.77 38.994 1663.26 35.7938 Q1660.74 32.5936 1655.72 32.5936 Q1649.69 32.5936 1646.2 36.4419 Q1642.72 40.2903 1642.72 46.9338 L1642.72 72.576 L1635.22 72.576 L1635.22 27.2059 L1642.72 27.2059 L1642.72 34.2544 Q1645.39 30.163 1649 28.1376 Q1652.64 26.1121 1657.38 26.1121 Q1665.2 26.1121 1669.21 30.9732 Q1673.22 35.7938 1673.22 45.1919 Z" fill="#000000" fill-rule="nonzero" fill-opacity="1" /><path clip-path="url(#clip140)" d="M1695.46 14.324 L1695.46 27.2059 L1710.81 27.2059 L1710.81 32.9987 L1695.46 32.9987 L1695.46 57.6282 Q1695.46 63.1779 1696.96 64.7578 Q1698.5 66.3376 1703.16 66.3376 L1710.81 66.3376 L1710.81 72.576 L1703.16 72.576 Q1694.53 72.576 1691.25 69.3758 Q1687.97 66.1351 1687.97 57.6282 L1687.97 32.9987 L1682.5 32.9987 L1682.5 27.2059 L1687.97 27.2059 L1687.97 14.324 L1695.46 14.324 Z" fill="#000000" fill-rule="nonzero" fill-opacity="1" /><path clip-path="url(#clip140)" d="M1782.31 35.9153 Q1785.11 30.8922 1789 28.5022 Q1792.88 26.1121 1798.15 26.1121 Q1805.24 26.1121 1809.09 31.0947 Q1812.94 36.0368 1812.94 45.1919 L1812.94 72.576 L1805.44 72.576 L1805.44 45.4349 Q1805.44 38.913 1803.13 35.7533 Q1800.82 32.5936 1796.09 32.5936 Q1790.29 32.5936 1786.93 36.4419 Q1783.57 40.2903 1783.57 46.9338 L1783.57 72.576 L1776.07 72.576 L1776.07 45.4349 Q1776.07 38.8725 1773.76 35.7533 Q1771.46 32.5936 1766.64 32.5936 Q1760.92 32.5936 1757.56 36.4824 Q1754.2 40.3308 1754.2 46.9338 L1754.2 72.576 L1746.7 72.576 L1746.7 27.2059 L1754.2 27.2059 L1754.2 34.2544 Q1756.75 30.082 1760.32 28.0971 Q1763.88 26.1121 1768.78 26.1121 Q1773.72 26.1121 1777.17 28.6237 Q1780.65 31.1352 1782.31 35.9153 Z" fill="#000000" fill-rule="nonzero" fill-opacity="1" /><path clip-path="url(#clip140)" d="M1848.42 49.7694 Q1839.39 49.7694 1835.91 51.8354 Q1832.42 53.9013 1832.42 58.8839 Q1832.42 62.8538 1835.01 65.2034 Q1837.65 67.5124 1842.14 67.5124 Q1848.34 67.5124 1852.07 63.1374 Q1855.84 58.7219 1855.84 51.4303 L1855.84 49.7694 L1848.42 49.7694 M1863.29 46.6907 L1863.29 72.576 L1855.84 72.576 L1855.84 65.6895 Q1853.28 69.8214 1849.48 71.8063 Q1845.67 73.7508 1840.16 73.7508 Q1833.19 73.7508 1829.06 69.8619 Q1824.97 65.9325 1824.97 59.3701 Q1824.97 51.7138 1830.07 47.825 Q1835.22 43.9361 1845.38 43.9361 L1855.84 43.9361 L1855.84 43.2069 Q1855.84 38.0623 1852.43 35.2672 Q1849.07 32.4315 1842.95 32.4315 Q1839.07 32.4315 1835.38 33.3632 Q1831.69 34.295 1828.29 36.1584 L1828.29 29.2718 Q1832.38 27.692 1836.23 26.9223 Q1840.08 26.1121 1843.72 26.1121 Q1853.57 26.1121 1858.43 31.2163 Q1863.29 36.3204 1863.29 46.6907 Z" fill="#000000" fill-rule="nonzero" fill-opacity="1" /><path clip-path="url(#clip140)" d="M1886.02 14.324 L1886.02 27.2059 L1901.37 27.2059 L1901.37 32.9987 L1886.02 32.9987 L1886.02 57.6282 Q1886.02 63.1779 1887.51 64.7578 Q1889.05 66.3376 1893.71 66.3376 L1901.37 66.3376 L1901.37 72.576 L1893.71 72.576 Q1885.08 72.576 1881.8 69.3758 Q1878.52 66.1351 1878.52 57.6282 L1878.52 32.9987 L1873.05 32.9987 L1873.05 27.2059 L1878.52 27.2059 L1878.52 14.324 L1886.02 14.324 Z" fill="#000000" fill-rule="nonzero" fill-opacity="1" /><path clip-path="url(#clip140)" d="M1943.82 28.9478 L1943.82 35.9153 Q1940.66 34.1734 1937.46 33.3227 Q1934.3 32.4315 1931.06 32.4315 Q1923.81 32.4315 1919.8 37.0496 Q1915.79 41.6271 1915.79 49.9314 Q1915.79 58.2358 1919.8 62.8538 Q1923.81 67.4314 1931.06 67.4314 Q1934.3 67.4314 1937.46 66.5807 Q1940.66 65.6895 1943.82 63.9476 L1943.82 70.8341 Q1940.7 72.2924 1937.34 73.0216 Q1934.02 73.7508 1930.25 73.7508 Q1920 73.7508 1913.97 67.3098 Q1907.93 60.8689 1907.93 49.9314 Q1907.93 38.832 1914.01 32.472 Q1920.12 26.1121 1930.74 26.1121 Q1934.18 26.1121 1937.46 26.8413 Q1940.74 27.5299 1943.82 28.9478 Z" fill="#000000" fill-rule="nonzero" fill-opacity="1" /><path clip-path="url(#clip140)" d="M1994.5 45.1919 L1994.5 72.576 L1987.04 72.576 L1987.04 45.4349 Q1987.04 38.994 1984.53 35.7938 Q1982.02 32.5936 1977 32.5936 Q1970.96 32.5936 1967.48 36.4419 Q1964 40.2903 1964 46.9338 L1964 72.576 L1956.5 72.576 L1956.5 9.54393 L1964 9.54393 L1964 34.2544 Q1966.67 30.163 1970.27 28.1376 Q1973.92 26.1121 1978.66 26.1121 Q1986.48 26.1121 1990.49 30.9732 Q1994.5 35.7938 1994.5 45.1919 Z" fill="#000000" fill-rule="nonzero" fill-opacity="1" /><path clip-path="url(#clip140)" d="M2009.37 27.2059 L2016.82 27.2059 L2016.82 72.576 L2009.37 72.576 L2009.37 27.2059 M2009.37 9.54393 L2016.82 9.54393 L2016.82 18.9825 L2009.37 18.9825 L2009.37 9.54393 Z" fill="#000000" fill-rule="nonzero" fill-opacity="1" /><path clip-path="url(#clip140)" d="M2070.13 45.1919 L2070.13 72.576 L2062.68 72.576 L2062.68 45.4349 Q2062.68 38.994 2060.16 35.7938 Q2057.65 32.5936 2052.63 32.5936 Q2046.59 32.5936 2043.11 36.4419 Q2039.63 40.2903 2039.63 46.9338 L2039.63 72.576 L2032.13 72.576 L2032.13 27.2059 L2039.63 27.2059 L2039.63 34.2544 Q2042.3 30.163 2045.9 28.1376 Q2049.55 26.1121 2054.29 26.1121 Q2062.11 26.1121 2066.12 30.9732 Q2070.13 35.7938 2070.13 45.1919 Z" fill="#000000" fill-rule="nonzero" fill-opacity="1" /><path clip-path="url(#clip140)" d="M2114.85 49.3643 Q2114.85 41.2625 2111.49 36.8065 Q2108.17 32.3505 2102.13 32.3505 Q2096.14 32.3505 2092.77 36.8065 Q2089.45 41.2625 2089.45 49.3643 Q2089.45 57.4256 2092.77 61.8816 Q2096.14 66.3376 2102.13 66.3376 Q2108.17 66.3376 2111.49 61.8816 Q2114.85 57.4256 2114.85 49.3643 M2122.3 66.9452 Q2122.3 78.5308 2117.16 84.1616 Q2112.02 89.8329 2101.4 89.8329 Q2097.47 89.8329 2093.99 89.2252 Q2090.5 88.6581 2087.22 87.4428 L2087.22 80.1917 Q2090.5 81.9741 2093.71 82.8248 Q2096.91 83.6755 2100.23 83.6755 Q2107.56 83.6755 2111.21 79.8271 Q2114.85 76.0193 2114.85 68.282 L2114.85 64.5957 Q2112.54 68.6061 2108.94 70.5911 Q2105.33 72.576 2100.31 72.576 Q2091.96 72.576 2086.86 66.2161 Q2081.75 59.8562 2081.75 49.3643 Q2081.75 38.832 2086.86 32.472 Q2091.96 26.1121 2100.31 26.1121 Q2105.33 26.1121 2108.94 28.0971 Q2112.54 30.082 2114.85 34.0924 L2114.85 27.2059 L2122.3 27.2059 L2122.3 66.9452 Z" fill="#000000" fill-rule="nonzero" fill-opacity="1" /><path clip-path="url(#clip140)" d="M2158.68 27.2059 L2166.58 27.2059 L2180.76 65.2844 L2194.94 27.2059 L2202.84 27.2059 L2185.82 72.576 L2175.7 72.576 L2158.68 27.2059 Z" fill="#000000" fill-rule="nonzero" fill-opacity="1" /><path clip-path="url(#clip140)" d="M2242.05 28.5427 L2242.05 35.5912 Q2238.89 33.9709 2235.49 33.1607 Q2232.08 32.3505 2228.44 32.3505 Q2222.89 32.3505 2220.09 34.0519 Q2217.34 35.7533 2217.34 39.156 Q2217.34 41.7486 2219.32 43.2475 Q2221.31 44.7058 2227.3 46.0426 L2229.86 46.6097 Q2237.8 48.3111 2241.12 51.4303 Q2244.48 54.509 2244.48 60.0587 Q2244.48 66.3781 2239.46 70.0644 Q2234.47 73.7508 2225.72 73.7508 Q2222.08 73.7508 2218.11 73.0216 Q2214.18 72.3329 2209.8 70.9151 L2209.8 63.2184 Q2213.94 65.3654 2217.95 66.4591 Q2221.96 67.5124 2225.89 67.5124 Q2231.15 67.5124 2233.99 65.73 Q2236.82 63.9071 2236.82 60.6258 Q2236.82 57.5877 2234.76 55.9673 Q2232.73 54.3469 2225.81 52.8481 L2223.21 52.2405 Q2216.29 50.7821 2213.21 47.7845 Q2210.13 44.7463 2210.13 39.4801 Q2210.13 33.0797 2214.67 29.5959 Q2219.2 26.1121 2227.55 26.1121 Q2231.68 26.1121 2235.32 26.7198 Q2238.97 27.3274 2242.05 28.5427 Z" fill="#000000" fill-rule="nonzero" fill-opacity="1" /><path clip-path="url(#clip140)" d="M2283.04 12.096 L2291.23 12.096 L2291.23 65.6895 L2320.68 65.6895 L2320.68 72.576 L2283.04 72.576 L2283.04 12.096 Z" fill="#000000" fill-rule="nonzero" fill-opacity="1" /><path clip-path="url(#clip140)" d="M2351.38 20.1573 L2340.28 50.2555 L2362.52 50.2555 L2351.38 20.1573 M2346.77 12.096 L2356.04 12.096 L2379.09 72.576 L2370.58 72.576 L2365.08 57.061 L2337.81 57.061 L2332.3 72.576 L2323.67 72.576 L2346.77 12.096 Z" fill="#000000" fill-rule="nonzero" fill-opacity="1" /><path clip-path="url(#clip140)" d="M2387.92 12.096 L2400.12 12.096 L2415.55 53.2532 L2431.06 12.096 L2443.26 12.096 L2443.26 72.576 L2435.28 72.576 L2435.28 19.4686 L2419.68 60.9499 L2411.46 60.9499 L2395.86 19.4686 L2395.86 72.576 L2387.92 72.576 L2387.92 12.096 Z" fill="#000000" fill-rule="nonzero" fill-opacity="1" /><path clip-path="url(#clip140)" d="M2459.5 12.096 L2467.68 12.096 L2467.68 65.6895 L2497.13 65.6895 L2497.13 72.576 L2459.5 72.576 L2459.5 12.096 Z" fill="#000000" fill-rule="nonzero" fill-opacity="1" /><polyline clip-path="url(#clip141)" style="stroke:#000000; stroke-linecap:round; stroke-linejoin:round; stroke-width:12; stroke-opacity:1; fill:none" stroke-dasharray="48, 30" points="294.479,233.655 317.488,248.352 340.498,263.049 363.507,277.746 386.517,292.443 409.526,307.14 432.536,321.837 455.545,336.534 478.555,351.231 501.564,365.928 524.574,380.625 547.583,395.322 570.593,410.019 593.602,424.716 616.612,439.413 639.621,454.11 662.63,468.807 685.64,483.504 708.649,498.2 731.659,512.897 754.668,527.594 777.678,542.291 800.687,556.988 823.697,571.685 846.706,586.382 869.716,601.079 892.725,615.776 915.735,630.473 938.744,645.17 961.754,659.867 984.763,674.564 1007.77,689.261 1030.78,703.958 1053.79,718.655 1076.8,733.352 1099.81,748.049 1122.82,762.746 1145.83,777.443 1168.84,792.14 1191.85,806.837 1214.86,821.534 1237.87,836.231 1260.88,850.928 1283.89,865.625 1306.9,880.322 1329.91,895.019 1352.92,909.716 1375.92,924.413 1398.93,939.11 1421.94,953.807 1444.95,968.503 1467.96,983.2 1490.97,997.897 1513.98,1012.59 1536.99,1027.29 1560,1041.99 1583.01,1056.69 1606.02,1071.38 1629.03,1086.08 1652.04,1100.78 1675.05,1115.47 1698.06,1130.17 1721.07,1144.87 1744.08,1159.56 1767.09,1174.26 1790.1,1188.96 1813.1,1203.65 1836.11,1218.35 1859.12,1233.05 1882.13,1247.75 1905.14,1262.44 1928.15,1277.14 1951.16,1291.84 1974.17,1306.53 1997.18,1321.23 2020.19,1335.93 2043.2,1350.62 2066.21,1365.32 2089.22,1380.02 2112.23,1394.72 2135.24,1409.41 2158.25,1424.11 2181.26,1438.81 2204.27,1453.5 2227.28,1468.2 2250.28,1482.9 2273.29,1497.59 2296.3,1512.29 2319.31,1526.99 2342.32,1541.69 2365.33,1556.38 2388.34,1571.08 2411.35,1585.78 2434.36,1600.47 2457.37,1615.17 2480.38,1629.87 2503.39,1644.56 2526.4,1659.26 2549.41,1673.96 2572.42,1688.65 "/>
<polyline clip-path="url(#clip141)" style="stroke:#0000ff; stroke-linecap:round; stroke-linejoin:round; stroke-width:8; stroke-opacity:1; fill:none" points="294.479,1319.46 317.488,1180.76 340.498,1047.39 363.507,920.204 386.517,800.053 409.526,687.796 432.536,584.291 455.545,490.396 478.555,406.968 501.564,334.863 524.574,274.939 547.583,228.053 570.593,195.062 593.602,176.808 616.612,173.254 639.621,183.051 662.63,204.74 685.64,236.864 708.649,277.962 731.659,326.579 754.668,381.254 777.678,440.531 800.687,502.95 823.697,567.053 846.706,631.383 869.716,694.48 892.725,754.887 915.735,811.146 938.744,861.797 961.754,905.384 984.763,940.446 1007.77,965.574 1030.78,980.531 1053.79,986.317 1076.8,983.99 1099.81,974.608 1122.82,959.228 1145.83,938.91 1168.84,914.71 1191.85,887.687 1214.86,858.899 1237.87,829.404 1260.88,800.259 1283.89,772.523 1306.9,747.255 1329.91,725.511 1352.92,708.35 1375.92,696.829 1398.93,692.008 1421.94,694.873 1444.95,705.427 1467.96,722.947 1490.97,746.692 1513.98,775.921 1536.99,809.895 1560,847.872 1583.01,889.113 1606.02,932.877 1629.03,978.423 1652.04,1025.01 1675.05,1071.9 1698.06,1118.35 1721.07,1163.62 1744.08,1206.97 1767.09,1247.66 1790.1,1284.95 1813.1,1318.1 1836.11,1346.45 1859.12,1370.07 1882.13,1389.39 1905.14,1404.85 1928.15,1416.89 1951.16,1425.94 1974.17,1432.45 1997.18,1436.85 2020.19,1439.58 2043.2,1441.08 2066.21,1441.79 2089.22,1442.14 2112.23,1442.57 2135.24,1443.52 2158.25,1445.44 2181.26,1448.75 2204.27,1453.89 2227.28,1461.31 2250.28,1471.33 2273.29,1483.65 2296.3,1497.76 2319.31,1513.14 2342.32,1529.29 2365.33,1545.67 2388.34,1561.79 2411.35,1577.12 2434.36,1591.14 2457.37,1603.35 2480.38,1613.23 2503.39,1620.26 2526.4,1623.94 2549.41,1623.73 2572.42,1619.13 "/>
<polyline clip-path="url(#clip141)" style="stroke:#ff0000; stroke-linecap:round; stroke-linejoin:round; stroke-width:8; stroke-opacity:1; fill:none" points="294.479,295.832 317.488,312.606 340.498,329.334 363.507,346.009 386.517,362.624 409.526,379.171 432.536,395.644 455.545,412.034 478.555,428.335 501.564,444.54 524.574,460.64 547.583,476.628 570.593,492.498 593.602,508.242 616.612,523.857 639.621,539.345 662.63,554.711 685.64,569.957 708.649,585.086 731.659,600.103 754.668,615.011 777.678,629.812 800.687,644.511 823.697,659.111 846.706,673.614 869.716,688.026 892.725,702.348 915.735,716.584 938.744,730.738 961.754,744.813 984.763,758.813 1007.77,772.74 1030.78,786.598 1053.79,800.389 1076.8,814.114 1099.81,827.777 1122.82,841.38 1145.83,854.924 1168.84,868.411 1191.85,881.845 1214.86,895.227 1237.87,908.559 1260.88,921.844 1283.89,935.084 1306.9,948.28 1329.91,961.436 1352.92,974.553 1375.92,987.634 1398.93,1000.68 1421.94,1013.69 1444.95,1026.68 1467.96,1039.63 1490.97,1052.56 1513.98,1065.47 1536.99,1078.35 1560,1091.2 1583.01,1104.04 1606.02,1116.86 1629.03,1129.66 1652.04,1142.45 1675.05,1155.23 1698.06,1167.99 1721.07,1180.74 1744.08,1193.49 1767.09,1206.22 1790.1,1218.96 1813.1,1231.68 1836.11,1244.41 1859.12,1257.14 1882.13,1269.87 1905.14,1282.6 1928.15,1295.34 1951.16,1308.09 1974.17,1320.85 1997.18,1333.62 2020.19,1346.41 2043.2,1359.21 2066.21,1372.03 2089.22,1384.87 2112.23,1397.74 2135.24,1410.62 2158.25,1423.54 2181.26,1436.48 2204.27,1449.46 2227.28,1462.47 2250.28,1475.51 2273.29,1488.59 2296.3,1501.72 2319.31,1514.89 2342.32,1528.12 2365.33,1541.41 2388.34,1554.77 2411.35,1568.2 2434.36,1581.7 2457.37,1595.28 2480.38,1608.95 2503.39,1622.71 2526.4,1636.56 2549.41,1650.52 2572.42,1664.58 "/>
<polyline clip-path="url(#clip141)" style="stroke:#008000; stroke-linecap:round; stroke-linejoin:round; stroke-width:8; stroke-opacity:1; fill:none" points="294.479,181.076 317.488,197.534 340.498,213.989 363.507,230.441 386.517,246.889 409.526,263.332 432.536,279.771 455.545,296.204 478.555,312.632 501.564,329.053 524.574,345.468 547.583,361.876 570.593,378.276 593.602,394.668 616.612,411.051 639.621,427.424 662.63,443.784 685.64,460.13 708.649,476.46 731.659,492.773 754.668,509.067 777.678,525.34 800.687,541.591 823.697,557.818 846.706,574.019 869.716,590.193 892.725,606.337 915.735,622.451 938.744,638.532 961.754,654.58 984.763,670.591 1007.77,686.565 1030.78,702.5 1053.79,718.397 1076.8,734.254 1099.81,750.071 1122.82,765.847 1145.83,781.583 1168.84,797.277 1191.85,812.93 1214.86,828.54 1237.87,844.108 1260.88,859.633 1283.89,875.114 1306.9,890.552 1329.91,905.944 1352.92,921.292 1375.92,936.595 1398.93,951.852 1421.94,967.062 1444.95,982.226 1467.96,997.344 1490.97,1012.41 1513.98,1027.44 1536.99,1042.42 1560,1057.35 1583.01,1072.23 1606.02,1087.07 1629.03,1101.85 1652.04,1116.6 1675.05,1131.29 1698.06,1145.94 1721.07,1160.54 1744.08,1175.09 1767.09,1189.59 1790.1,1204.05 1813.1,1218.46 1836.11,1232.82 1859.12,1247.14 1882.13,1261.4 1905.14,1275.63 1928.15,1289.82 1951.16,1303.96 1974.17,1318.07 1997.18,1332.14 2020.19,1346.17 2043.2,1360.18 2066.21,1374.15 2089.22,1388.09 2112.23,1402 2135.24,1415.89 2158.25,1429.75 2181.26,1443.59 2204.27,1457.41 2227.28,1471.21 2250.28,1485 2273.29,1498.76 2296.3,1512.51 2319.31,1526.25 2342.32,1539.97 2365.33,1553.68 2388.34,1567.38 2411.35,1581.07 2434.36,1594.75 2457.37,1608.42 2480.38,1622.08 2503.39,1635.74 2526.4,1649.39 2549.41,1663.04 2572.42,1676.68 "/>
<polyline clip-path="url(#clip141)" style="stroke:#808080; stroke-linecap:round; stroke-linejoin:round; stroke-width:4; stroke-opacity:1; fill:none" stroke-dasharray="2, 4" points="-2188.47,1688.65 5055.37,1688.65 "/>
<path clip-path="url(#clip140)" d="M1901.47 440.536 L2560.27 440.536 L2560.27 181.336 L1901.47 181.336  Z" fill="#ffffff" fill-rule="evenodd" fill-opacity="1"/>
<polyline clip-path="url(#clip140)" style="stroke:#000000; stroke-linecap:round; stroke-linejoin:round; stroke-width:4; stroke-opacity:1; fill:none" points="1901.47,440.536 2560.27,440.536 2560.27,181.336 1901.47,181.336 1901.47,440.536 "/>
<polyline clip-path="url(#clip140)" style="stroke:#000000; stroke-linecap:round; stroke-linejoin:round; stroke-width:12; stroke-opacity:1; fill:none" stroke-dasharray="48, 30" points="1928.3,233.176 2089.27,233.176 "/>
<path clip-path="url(#clip140)" d="M2116.1 215.896 L2145.34 215.896 L2145.34 219.831 L2133.07 219.831 L2133.07 250.456 L2128.37 250.456 L2128.37 219.831 L2116.1 219.831 L2116.1 215.896 Z" fill="#000000" fill-rule="nonzero" fill-opacity="1" /><path clip-path="url(#clip140)" d="M2157.72 228.512 Q2157.01 228.095 2156.15 227.91 Q2155.32 227.702 2154.3 227.702 Q2150.69 227.702 2148.74 230.063 Q2146.82 232.401 2146.82 236.799 L2146.82 250.456 L2142.54 250.456 L2142.54 224.531 L2146.82 224.531 L2146.82 228.558 Q2148.16 226.197 2150.32 225.063 Q2152.47 223.906 2155.55 223.906 Q2155.99 223.906 2156.52 223.975 Q2157.05 224.021 2157.7 224.137 L2157.72 228.512 Z" fill="#000000" fill-rule="nonzero" fill-opacity="1" /><path clip-path="url(#clip140)" d="M2161.75 240.225 L2161.75 224.531 L2166.01 224.531 L2166.01 240.063 Q2166.01 243.743 2167.45 245.595 Q2168.88 247.424 2171.75 247.424 Q2175.2 247.424 2177.19 245.225 Q2179.21 243.026 2179.21 239.229 L2179.21 224.531 L2183.46 224.531 L2183.46 250.456 L2179.21 250.456 L2179.21 246.475 Q2177.65 248.836 2175.59 249.993 Q2173.56 251.128 2170.85 251.128 Q2166.38 251.128 2164.07 248.35 Q2161.75 245.572 2161.75 240.225 M2172.47 223.906 L2172.47 223.906 Z" fill="#000000" fill-rule="nonzero" fill-opacity="1" /><path clip-path="url(#clip140)" d="M2214.41 236.429 L2214.41 238.512 L2194.83 238.512 Q2195.11 242.91 2197.47 245.225 Q2199.85 247.516 2204.09 247.516 Q2206.54 247.516 2208.83 246.915 Q2211.15 246.313 2213.42 245.109 L2213.42 249.137 Q2211.13 250.109 2208.72 250.618 Q2206.31 251.128 2203.83 251.128 Q2197.63 251.128 2194 247.516 Q2190.39 243.905 2190.39 237.748 Q2190.39 231.382 2193.81 227.655 Q2197.26 223.906 2203.09 223.906 Q2208.33 223.906 2211.36 227.285 Q2214.41 230.642 2214.41 236.429 M2210.15 235.179 Q2210.11 231.683 2208.19 229.6 Q2206.29 227.517 2203.14 227.517 Q2199.58 227.517 2197.42 229.53 Q2195.29 231.544 2194.97 235.202 L2210.15 235.179 Z" fill="#000000" fill-rule="nonzero" fill-opacity="1" /><path clip-path="url(#clip140)" d="M2251.5 228.512 Q2250.78 228.095 2249.92 227.91 Q2249.09 227.702 2248.07 227.702 Q2244.46 227.702 2242.52 230.063 Q2240.59 232.401 2240.59 236.799 L2240.59 250.456 L2236.31 250.456 L2236.31 224.531 L2240.59 224.531 L2240.59 228.558 Q2241.94 226.197 2244.09 225.063 Q2246.24 223.906 2249.32 223.906 Q2249.76 223.906 2250.29 223.975 Q2250.83 224.021 2251.47 224.137 L2251.5 228.512 Z" fill="#000000" fill-rule="nonzero" fill-opacity="1" /><path clip-path="url(#clip140)" d="M2266.2 214.484 Q2263.09 219.808 2261.59 225.017 Q2260.08 230.225 2260.08 235.572 Q2260.08 240.919 2261.59 246.174 Q2263.12 251.405 2266.2 256.706 L2262.49 256.706 Q2259.02 251.266 2257.28 246.012 Q2255.57 240.757 2255.57 235.572 Q2255.57 230.41 2257.28 225.179 Q2259 219.947 2262.49 214.484 L2266.2 214.484 Z" fill="#000000" fill-rule="nonzero" fill-opacity="1" /><path clip-path="url(#clip140)" d="M2274.64 215.896 L2280.94 215.896 L2296.27 244.808 L2296.27 215.896 L2300.8 215.896 L2300.8 250.456 L2294.51 250.456 L2279.18 221.544 L2279.18 250.456 L2274.64 250.456 L2274.64 215.896 Z" fill="#000000" fill-rule="nonzero" fill-opacity="1" /><path clip-path="url(#clip140)" d="M2309.25 214.484 L2312.95 214.484 Q2316.43 219.947 2318.14 225.179 Q2319.88 230.41 2319.88 235.572 Q2319.88 240.757 2318.14 246.012 Q2316.43 251.266 2312.95 256.706 L2309.25 256.706 Q2312.33 251.405 2313.83 246.174 Q2315.36 240.919 2315.36 235.572 Q2315.36 230.225 2313.83 225.017 Q2312.33 219.808 2309.25 214.484 Z" fill="#000000" fill-rule="nonzero" fill-opacity="1" /><polyline clip-path="url(#clip140)" style="stroke:#0000ff; stroke-linecap:round; stroke-linejoin:round; stroke-width:8; stroke-opacity:1; fill:none" points="1928.3,285.016 2089.27,285.016 "/>
<path clip-path="url(#clip140)" d="M2141.66 297.366 L2141.66 288.083 L2134.02 288.083 L2134.02 284.241 L2146.29 284.241 L2146.29 299.079 Q2143.58 301 2140.32 301.995 Q2137.05 302.968 2133.35 302.968 Q2125.25 302.968 2120.66 298.245 Q2116.1 293.5 2116.1 285.051 Q2116.1 276.579 2120.66 271.857 Q2125.25 267.111 2133.35 267.111 Q2136.73 267.111 2139.76 267.945 Q2142.82 268.778 2145.39 270.398 L2145.39 275.375 Q2142.79 273.176 2139.88 272.065 Q2136.96 270.954 2133.74 270.954 Q2127.4 270.954 2124.21 274.496 Q2121.03 278.037 2121.03 285.051 Q2121.03 292.042 2124.21 295.583 Q2127.4 299.125 2133.74 299.125 Q2136.22 299.125 2138.16 298.708 Q2140.11 298.269 2141.66 297.366 Z" fill="#000000" fill-rule="nonzero" fill-opacity="1" /><path clip-path="url(#clip140)" d="M2169.67 280.352 Q2168.95 279.935 2168.09 279.75 Q2167.26 279.542 2166.24 279.542 Q2162.63 279.542 2160.69 281.903 Q2158.77 284.241 2158.77 288.639 L2158.77 302.296 L2154.48 302.296 L2154.48 276.371 L2158.77 276.371 L2158.77 280.398 Q2160.11 278.037 2162.26 276.903 Q2164.41 275.746 2167.49 275.746 Q2167.93 275.746 2168.46 275.815 Q2169 275.861 2169.65 275.977 L2169.67 280.352 Z" fill="#000000" fill-rule="nonzero" fill-opacity="1" /><path clip-path="url(#clip140)" d="M2185.92 289.264 Q2180.76 289.264 2178.77 290.444 Q2176.77 291.625 2176.77 294.472 Q2176.77 296.741 2178.26 298.083 Q2179.76 299.403 2182.33 299.403 Q2185.87 299.403 2188 296.903 Q2190.15 294.38 2190.15 290.213 L2190.15 289.264 L2185.92 289.264 M2194.41 287.505 L2194.41 302.296 L2190.15 302.296 L2190.15 298.361 Q2188.7 300.722 2186.52 301.856 Q2184.34 302.968 2181.2 302.968 Q2177.21 302.968 2174.85 300.745 Q2172.52 298.5 2172.52 294.75 Q2172.52 290.375 2175.43 288.153 Q2178.37 285.931 2184.18 285.931 L2190.15 285.931 L2190.15 285.514 Q2190.15 282.574 2188.21 280.977 Q2186.29 279.357 2182.79 279.357 Q2180.57 279.357 2178.46 279.889 Q2176.36 280.421 2174.41 281.486 L2174.41 277.551 Q2176.75 276.648 2178.95 276.208 Q2181.15 275.746 2183.23 275.746 Q2188.86 275.746 2191.64 278.662 Q2194.41 281.579 2194.41 287.505 Z" fill="#000000" fill-rule="nonzero" fill-opacity="1" /><path clip-path="url(#clip140)" d="M2220.25 280.306 L2220.25 266.278 L2224.51 266.278 L2224.51 302.296 L2220.25 302.296 L2220.25 298.407 Q2218.9 300.722 2216.84 301.856 Q2214.81 302.968 2211.94 302.968 Q2207.24 302.968 2204.27 299.218 Q2201.33 295.468 2201.33 289.357 Q2201.33 283.245 2204.27 279.495 Q2207.24 275.746 2211.94 275.746 Q2214.81 275.746 2216.84 276.88 Q2218.9 277.991 2220.25 280.306 M2205.73 289.357 Q2205.73 294.056 2207.65 296.741 Q2209.6 299.403 2212.98 299.403 Q2216.36 299.403 2218.3 296.741 Q2220.25 294.056 2220.25 289.357 Q2220.25 284.657 2218.3 281.995 Q2216.36 279.31 2212.98 279.31 Q2209.6 279.31 2207.65 281.995 Q2205.73 284.657 2205.73 289.357 Z" fill="#000000" fill-rule="nonzero" fill-opacity="1" /><path clip-path="url(#clip140)" d="M2233.28 276.371 L2237.54 276.371 L2237.54 302.296 L2233.28 302.296 L2233.28 276.371 M2233.28 266.278 L2237.54 266.278 L2237.54 271.671 L2233.28 271.671 L2233.28 266.278 Z" fill="#000000" fill-rule="nonzero" fill-opacity="1" /><path clip-path="url(#clip140)" d="M2268.63 288.269 L2268.63 290.352 L2249.04 290.352 Q2249.32 294.75 2251.68 297.065 Q2254.07 299.356 2258.3 299.356 Q2260.76 299.356 2263.05 298.755 Q2265.36 298.153 2267.63 296.949 L2267.63 300.977 Q2265.34 301.949 2262.93 302.458 Q2260.52 302.968 2258.05 302.968 Q2251.84 302.968 2248.21 299.356 Q2244.6 295.745 2244.6 289.588 Q2244.6 283.222 2248.02 279.495 Q2251.47 275.746 2257.31 275.746 Q2262.54 275.746 2265.57 279.125 Q2268.63 282.482 2268.63 288.269 M2264.37 287.019 Q2264.32 283.523 2262.4 281.44 Q2260.5 279.357 2257.35 279.357 Q2253.79 279.357 2251.64 281.37 Q2249.51 283.384 2249.18 287.042 L2264.37 287.019 Z" fill="#000000" fill-rule="nonzero" fill-opacity="1" /><path clip-path="url(#clip140)" d="M2297.17 286.648 L2297.17 302.296 L2292.91 302.296 L2292.91 286.787 Q2292.91 283.107 2291.47 281.278 Q2290.04 279.449 2287.17 279.449 Q2283.72 279.449 2281.73 281.648 Q2279.74 283.847 2279.74 287.644 L2279.74 302.296 L2275.45 302.296 L2275.45 276.371 L2279.74 276.371 L2279.74 280.398 Q2281.27 278.06 2283.33 276.903 Q2285.41 275.746 2288.12 275.746 Q2292.58 275.746 2294.88 278.523 Q2297.17 281.278 2297.17 286.648 Z" fill="#000000" fill-rule="nonzero" fill-opacity="1" /><path clip-path="url(#clip140)" d="M2309.88 269.009 L2309.88 276.371 L2318.65 276.371 L2318.65 279.681 L2309.88 279.681 L2309.88 293.755 Q2309.88 296.926 2310.73 297.829 Q2311.61 298.731 2314.27 298.731 L2318.65 298.731 L2318.65 302.296 L2314.27 302.296 Q2309.34 302.296 2307.47 300.468 Q2305.59 298.616 2305.59 293.755 L2305.59 279.681 L2302.47 279.681 L2302.47 276.371 L2305.59 276.371 L2305.59 269.009 L2309.88 269.009 Z" fill="#000000" fill-rule="nonzero" fill-opacity="1" /><path clip-path="url(#clip140)" d="M2324.44 267.736 L2331.4 267.736 L2340.22 291.255 L2349.09 267.736 L2356.06 267.736 L2356.06 302.296 L2351.5 302.296 L2351.5 271.949 L2342.58 295.653 L2337.89 295.653 L2328.97 271.949 L2328.97 302.296 L2324.44 302.296 L2324.44 267.736 Z" fill="#000000" fill-rule="nonzero" fill-opacity="1" /><path clip-path="url(#clip140)" d="M2376.94 289.264 Q2371.77 289.264 2369.78 290.444 Q2367.79 291.625 2367.79 294.472 Q2367.79 296.741 2369.27 298.083 Q2370.78 299.403 2373.35 299.403 Q2376.89 299.403 2379.02 296.903 Q2381.17 294.38 2381.17 290.213 L2381.17 289.264 L2376.94 289.264 M2385.43 287.505 L2385.43 302.296 L2381.17 302.296 L2381.17 298.361 Q2379.71 300.722 2377.54 301.856 Q2375.36 302.968 2372.21 302.968 Q2368.23 302.968 2365.87 300.745 Q2363.53 298.5 2363.53 294.75 Q2363.53 290.375 2366.45 288.153 Q2369.39 285.931 2375.2 285.931 L2381.17 285.931 L2381.17 285.514 Q2381.17 282.574 2379.23 280.977 Q2377.31 279.357 2373.81 279.357 Q2371.59 279.357 2369.48 279.889 Q2367.38 280.421 2365.43 281.486 L2365.43 277.551 Q2367.77 276.648 2369.97 276.208 Q2372.17 275.746 2374.25 275.746 Q2379.88 275.746 2382.65 278.662 Q2385.43 281.579 2385.43 287.505 Z" fill="#000000" fill-rule="nonzero" fill-opacity="1" /><path clip-path="url(#clip140)" d="M2398.42 269.009 L2398.42 276.371 L2407.19 276.371 L2407.19 279.681 L2398.42 279.681 L2398.42 293.755 Q2398.42 296.926 2399.27 297.829 Q2400.15 298.731 2402.82 298.731 L2407.19 298.731 L2407.19 302.296 L2402.82 302.296 Q2397.88 302.296 2396.01 300.468 Q2394.13 298.616 2394.13 293.755 L2394.13 279.681 L2391.01 279.681 L2391.01 276.371 L2394.13 276.371 L2394.13 269.009 L2398.42 269.009 Z" fill="#000000" fill-rule="nonzero" fill-opacity="1" /><path clip-path="url(#clip140)" d="M2431.45 277.366 L2431.45 281.347 Q2429.64 280.352 2427.82 279.866 Q2426.01 279.357 2424.16 279.357 Q2420.01 279.357 2417.72 281.995 Q2415.43 284.611 2415.43 289.357 Q2415.43 294.102 2417.72 296.741 Q2420.01 299.356 2424.16 299.356 Q2426.01 299.356 2427.82 298.87 Q2429.64 298.361 2431.45 297.366 L2431.45 301.301 Q2429.67 302.134 2427.75 302.551 Q2425.85 302.968 2423.69 302.968 Q2417.84 302.968 2414.39 299.287 Q2410.94 295.607 2410.94 289.357 Q2410.94 283.014 2414.41 279.38 Q2417.91 275.746 2423.97 275.746 Q2425.94 275.746 2427.82 276.162 Q2429.69 276.556 2431.45 277.366 Z" fill="#000000" fill-rule="nonzero" fill-opacity="1" /><path clip-path="url(#clip140)" d="M2460.41 286.648 L2460.41 302.296 L2456.15 302.296 L2456.15 286.787 Q2456.15 283.107 2454.71 281.278 Q2453.28 279.449 2450.41 279.449 Q2446.96 279.449 2444.97 281.648 Q2442.98 283.847 2442.98 287.644 L2442.98 302.296 L2438.69 302.296 L2438.69 266.278 L2442.98 266.278 L2442.98 280.398 Q2444.5 278.06 2446.57 276.903 Q2448.65 275.746 2451.36 275.746 Q2455.82 275.746 2458.12 278.523 Q2460.41 281.278 2460.41 286.648 Z" fill="#000000" fill-rule="nonzero" fill-opacity="1" /><path clip-path="url(#clip140)" d="M2468.9 276.371 L2473.16 276.371 L2473.16 302.296 L2468.9 302.296 L2468.9 276.371 M2468.9 266.278 L2473.16 266.278 L2473.16 271.671 L2468.9 271.671 L2468.9 266.278 Z" fill="#000000" fill-rule="nonzero" fill-opacity="1" /><path clip-path="url(#clip140)" d="M2503.63 286.648 L2503.63 302.296 L2499.37 302.296 L2499.37 286.787 Q2499.37 283.107 2497.93 281.278 Q2496.5 279.449 2493.63 279.449 Q2490.18 279.449 2488.19 281.648 Q2486.19 283.847 2486.19 287.644 L2486.19 302.296 L2481.91 302.296 L2481.91 276.371 L2486.19 276.371 L2486.19 280.398 Q2487.72 278.06 2489.78 276.903 Q2491.87 275.746 2494.57 275.746 Q2499.04 275.746 2501.33 278.523 Q2503.63 281.278 2503.63 286.648 Z" fill="#000000" fill-rule="nonzero" fill-opacity="1" /><path clip-path="url(#clip140)" d="M2529.18 289.032 Q2529.18 284.403 2527.26 281.857 Q2525.36 279.31 2521.91 279.31 Q2518.49 279.31 2516.56 281.857 Q2514.67 284.403 2514.67 289.032 Q2514.67 293.639 2516.56 296.185 Q2518.49 298.731 2521.91 298.731 Q2525.36 298.731 2527.26 296.185 Q2529.18 293.639 2529.18 289.032 M2533.44 299.079 Q2533.44 305.699 2530.5 308.917 Q2527.56 312.157 2521.5 312.157 Q2519.25 312.157 2517.26 311.81 Q2515.27 311.486 2513.39 310.792 L2513.39 306.648 Q2515.27 307.667 2517.1 308.153 Q2518.93 308.639 2520.82 308.639 Q2525.01 308.639 2527.1 306.44 Q2529.18 304.264 2529.18 299.843 L2529.18 297.736 Q2527.86 300.028 2525.8 301.162 Q2523.74 302.296 2520.87 302.296 Q2516.1 302.296 2513.19 298.662 Q2510.27 295.028 2510.27 289.032 Q2510.27 283.014 2513.19 279.38 Q2516.1 275.746 2520.87 275.746 Q2523.74 275.746 2525.8 276.88 Q2527.86 278.014 2529.18 280.306 L2529.18 276.371 L2533.44 276.371 L2533.44 299.079 Z" fill="#000000" fill-rule="nonzero" fill-opacity="1" /><polyline clip-path="url(#clip140)" style="stroke:#ff0000; stroke-linecap:round; stroke-linejoin:round; stroke-width:8; stroke-opacity:1; fill:none" points="1928.3,336.856 2089.27,336.856 "/>
<path clip-path="url(#clip140)" d="M2131.94 324.183 L2125.59 341.382 L2138.3 341.382 L2131.94 324.183 M2129.3 319.576 L2134.6 319.576 L2147.77 354.136 L2142.91 354.136 L2139.76 345.271 L2124.18 345.271 L2121.03 354.136 L2116.1 354.136 L2129.3 319.576 Z" fill="#000000" fill-rule="nonzero" fill-opacity="1" /><path clip-path="url(#clip140)" d="M2175.55 349.206 L2175.55 339.923 L2167.91 339.923 L2167.91 336.081 L2180.18 336.081 L2180.18 350.919 Q2177.47 352.84 2174.21 353.835 Q2170.94 354.808 2167.24 354.808 Q2159.14 354.808 2154.55 350.085 Q2149.99 345.34 2149.99 336.891 Q2149.99 328.419 2154.55 323.697 Q2159.14 318.951 2167.24 318.951 Q2170.62 318.951 2173.65 319.785 Q2176.71 320.618 2179.27 322.238 L2179.27 327.215 Q2176.68 325.016 2173.77 323.905 Q2170.85 322.794 2167.63 322.794 Q2161.29 322.794 2158.09 326.336 Q2154.92 329.877 2154.92 336.891 Q2154.92 343.882 2158.09 347.423 Q2161.29 350.965 2167.63 350.965 Q2170.11 350.965 2172.05 350.548 Q2174 350.109 2175.55 349.206 Z" fill="#000000" fill-rule="nonzero" fill-opacity="1" /><path clip-path="url(#clip140)" d="M2188.72 319.576 L2195.69 319.576 L2204.51 343.095 L2213.37 319.576 L2220.34 319.576 L2220.34 354.136 L2215.78 354.136 L2215.78 323.789 L2206.87 347.493 L2202.17 347.493 L2193.26 323.789 L2193.26 354.136 L2188.72 354.136 L2188.72 319.576 Z" fill="#000000" fill-rule="nonzero" fill-opacity="1" /><polyline clip-path="url(#clip140)" style="stroke:#008000; stroke-linecap:round; stroke-linejoin:round; stroke-width:8; stroke-opacity:1; fill:none" points="1928.3,388.696 2089.27,388.696 "/>
<path clip-path="url(#clip140)" d="M2116.1 371.416 L2120.78 371.416 L2120.78 402.041 L2137.61 402.041 L2137.61 405.976 L2116.1 405.976 L2116.1 371.416 Z" fill="#000000" fill-rule="nonzero" fill-opacity="1" /><path clip-path="url(#clip140)" d="M2155.15 376.023 L2148.81 393.222 L2161.52 393.222 L2155.15 376.023 M2152.52 371.416 L2157.82 371.416 L2170.99 405.976 L2166.13 405.976 L2162.98 397.111 L2147.4 397.111 L2144.25 405.976 L2139.32 405.976 L2152.52 371.416 Z" fill="#000000" fill-rule="nonzero" fill-opacity="1" /><path clip-path="url(#clip140)" d="M2176.03 371.416 L2183 371.416 L2191.82 394.935 L2200.69 371.416 L2207.65 371.416 L2207.65 405.976 L2203.09 405.976 L2203.09 375.629 L2194.18 399.333 L2189.48 399.333 L2180.57 375.629 L2180.57 405.976 L2176.03 405.976 L2176.03 371.416 Z" fill="#000000" fill-rule="nonzero" fill-opacity="1" /><path clip-path="url(#clip140)" d="M2216.94 371.416 L2221.61 371.416 L2221.61 402.041 L2238.44 402.041 L2238.44 405.976 L2216.94 405.976 L2216.94 371.416 Z" fill="#000000" fill-rule="nonzero" fill-opacity="1" /></svg>
