<?xml version="1.0" encoding="utf-8"?>
<svg xmlns="http://www.w3.org/2000/svg" xmlns:xlink="http://www.w3.org/1999/xlink" width="672" height="480" viewBox="0 0 2688 1920">
<defs>
  <clipPath id="clip940">
    <rect x="0" y="0" width="2688" height="1920"/>
  </clipPath>
</defs>
<path clip-path="url(#clip940)" d="M0 1920 L2688 1920 L2688 -4.26326e-14 L0 -4.26326e-14  Z" fill="#ffffff" fill-rule="evenodd" fill-opacity="1"/>
<defs>
  <clipPath id="clip941">
    <rect x="248" y="127" width="2393" height="1607"/>
  </clipPath>
</defs>
<path clip-path="url(#clip940)" d="M248.409 1734.12 L2640.76 1734.12 L2640.76 127.792 L248.409 127.792  Z" fill="#ffffff" fill-rule="evenodd" fill-opacity="1"/>
<polyline clip-path="url(#clip941)" style="stroke:#000000; stroke-linecap:round; stroke-linejoin:round; stroke-width:2; stroke-opacity:0.1; fill:none" points="316.117,1734.12 316.117,127.792 "/>
<polyline clip-path="url(#clip941)" style="stroke:#000000; stroke-linecap:round; stroke-linejoin:round; stroke-width:2; stroke-opacity:0.1; fill:none" points="786.311,1734.12 786.311,127.792 "/>
<polyline clip-path="url(#clip941)" style="stroke:#000000; stroke-linecap:round; stroke-linejoin:round; stroke-width:2; stroke-opacity:0.1; fill:none" points="1256.5,1734.12 1256.5,127.792 "/>
<polyline clip-path="url(#clip941)" style="stroke:#000000; stroke-linecap:round; stroke-linejoin:round; stroke-width:2; stroke-opacity:0.1; fill:none" points="1726.7,1734.12 1726.7,127.792 "/>
<polyline clip-path="url(#clip941)" style="stroke:#000000; stroke-linecap:round; stroke-linejoin:round; stroke-width:2; stroke-opacity:0.1; fill:none" points="2196.89,1734.12 2196.89,127.792 "/>
<polyline clip-path="url(#clip941)" style="stroke:#000000; stroke-linecap:round; stroke-linejoin:round; stroke-width:2; stroke-opacity:0.1; fill:none" points="248.409,1723.78 2640.76,1723.78 "/>
<polyline clip-path="url(#clip941)" style="stroke:#000000; stroke-linecap:round; stroke-linejoin:round; stroke-width:2; stroke-opacity:0.1; fill:none" points="248.409,1218.79 2640.76,1218.79 "/>
<polyline clip-path="url(#clip941)" style="stroke:#000000; stroke-linecap:round; stroke-linejoin:round; stroke-width:2; stroke-opacity:0.1; fill:none" points="248.409,713.795 2640.76,713.795 "/>
<polyline clip-path="url(#clip941)" style="stroke:#000000; stroke-linecap:round; stroke-linejoin:round; stroke-width:2; stroke-opacity:0.1; fill:none" points="248.409,208.804 2640.76,208.804 "/>
<polyline clip-path="url(#clip940)" style="stroke:#000000; stroke-linecap:round; stroke-linejoin:round; stroke-width:4; stroke-opacity:1; fill:none" points="248.409,1734.12 2640.76,1734.12 "/>
<polyline clip-path="url(#clip940)" style="stroke:#000000; stroke-linecap:round; stroke-linejoin:round; stroke-width:4; stroke-opacity:1; fill:none" points="316.117,1734.12 316.117,1715.22 "/>
<polyline clip-path="url(#clip940)" style="stroke:#000000; stroke-linecap:round; stroke-linejoin:round; stroke-width:4; stroke-opacity:1; fill:none" points="786.311,1734.12 786.311,1715.22 "/>
<polyline clip-path="url(#clip940)" style="stroke:#000000; stroke-linecap:round; stroke-linejoin:round; stroke-width:4; stroke-opacity:1; fill:none" points="1256.5,1734.12 1256.5,1715.22 "/>
<polyline clip-path="url(#clip940)" style="stroke:#000000; stroke-linecap:round; stroke-linejoin:round; stroke-width:4; stroke-opacity:1; fill:none" points="1726.7,1734.12 1726.7,1715.22 "/>
<polyline clip-path="url(#clip940)" style="stroke:#000000; stroke-linecap:round; stroke-linejoin:round; stroke-width:4; stroke-opacity:1; fill:none" points="2196.89,1734.12 2196.89,1715.22 "/>
<path clip-path="url(#clip940)" d="M263.339 1767.34 Q259.728 1767.34 257.9 1770.9 Q256.094 1774.45 256.094 1781.58 Q256.094 1788.68 257.9 1792.25 Q259.728 1795.79 263.339 1795.79 Q266.974 1795.79 268.779 1792.25 Q270.608 1788.68 270.608 1781.58 Q270.608 1774.45 268.779 1770.9 Q266.974 1767.34 263.339 1767.34 M263.339 1763.64 Q269.15 1763.64 272.205 1768.24 Q275.284 1772.83 275.284 1781.58 Q275.284 1790.3 272.205 1794.91 Q269.15 1799.49 263.339 1799.49 Q257.529 1799.49 254.451 1794.91 Q251.395 1790.3 251.395 1781.58 Q251.395 1772.83 254.451 1768.24 Q257.529 1763.64 263.339 1763.64 Z" fill="#000000" fill-rule="nonzero" fill-opacity="1" /><path clip-path="url(#clip940)" d="M283.501 1792.94 L288.386 1792.94 L288.386 1798.82 L283.501 1798.82 L283.501 1792.94 Z" fill="#000000" fill-rule="nonzero" fill-opacity="1" /><path clip-path="url(#clip940)" d="M308.571 1767.34 Q304.96 1767.34 303.131 1770.9 Q301.325 1774.45 301.325 1781.58 Q301.325 1788.68 303.131 1792.25 Q304.96 1795.79 308.571 1795.79 Q312.205 1795.79 314.01 1792.25 Q315.839 1788.68 315.839 1781.58 Q315.839 1774.45 314.01 1770.9 Q312.205 1767.34 308.571 1767.34 M308.571 1763.64 Q314.381 1763.64 317.436 1768.24 Q320.515 1772.83 320.515 1781.58 Q320.515 1790.3 317.436 1794.91 Q314.381 1799.49 308.571 1799.49 Q302.76 1799.49 299.682 1794.91 Q296.626 1790.3 296.626 1781.58 Q296.626 1772.83 299.682 1768.24 Q302.76 1763.64 308.571 1763.64 Z" fill="#000000" fill-rule="nonzero" fill-opacity="1" /><path clip-path="url(#clip940)" d="M338.733 1767.34 Q335.121 1767.34 333.293 1770.9 Q331.487 1774.45 331.487 1781.58 Q331.487 1788.68 333.293 1792.25 Q335.121 1795.79 338.733 1795.79 Q342.367 1795.79 344.172 1792.25 Q346.001 1788.68 346.001 1781.58 Q346.001 1774.45 344.172 1770.9 Q342.367 1767.34 338.733 1767.34 M338.733 1763.64 Q344.543 1763.64 347.598 1768.24 Q350.677 1772.83 350.677 1781.58 Q350.677 1790.3 347.598 1794.91 Q344.543 1799.49 338.733 1799.49 Q332.922 1799.49 329.844 1794.91 Q326.788 1790.3 326.788 1781.58 Q326.788 1772.83 329.844 1768.24 Q332.922 1763.64 338.733 1763.64 Z" fill="#000000" fill-rule="nonzero" fill-opacity="1" /><path clip-path="url(#clip940)" d="M368.894 1767.34 Q365.283 1767.34 363.455 1770.9 Q361.649 1774.45 361.649 1781.58 Q361.649 1788.68 363.455 1792.25 Q365.283 1795.79 368.894 1795.79 Q372.529 1795.79 374.334 1792.25 Q376.163 1788.68 376.163 1781.58 Q376.163 1774.45 374.334 1770.9 Q372.529 1767.34 368.894 1767.34 M368.894 1763.64 Q374.705 1763.64 377.76 1768.24 Q380.839 1772.83 380.839 1781.58 Q380.839 1790.3 377.76 1794.91 Q374.705 1799.49 368.894 1799.49 Q363.084 1799.49 360.006 1794.91 Q356.95 1790.3 356.95 1781.58 Q356.95 1772.83 360.006 1768.24 Q363.084 1763.64 368.894 1763.64 Z" fill="#000000" fill-rule="nonzero" fill-opacity="1" /><path clip-path="url(#clip940)" d="M734.031 1767.34 Q730.42 1767.34 728.591 1770.9 Q726.786 1774.45 726.786 1781.58 Q726.786 1788.68 728.591 1792.25 Q730.42 1795.79 734.031 1795.79 Q737.665 1795.79 739.471 1792.25 Q741.3 1788.68 741.3 1781.58 Q741.3 1774.45 739.471 1770.9 Q737.665 1767.34 734.031 1767.34 M734.031 1763.64 Q739.841 1763.64 742.897 1768.24 Q745.975 1772.83 745.975 1781.58 Q745.975 1790.3 742.897 1794.91 Q739.841 1799.49 734.031 1799.49 Q728.221 1799.49 725.142 1794.91 Q722.087 1790.3 722.087 1781.58 Q722.087 1772.83 725.142 1768.24 Q728.221 1763.64 734.031 1763.64 Z" fill="#000000" fill-rule="nonzero" fill-opacity="1" /><path clip-path="url(#clip940)" d="M754.193 1792.94 L759.077 1792.94 L759.077 1798.82 L754.193 1798.82 L754.193 1792.94 Z" fill="#000000" fill-rule="nonzero" fill-opacity="1" /><path clip-path="url(#clip940)" d="M779.262 1767.34 Q775.651 1767.34 773.823 1770.9 Q772.017 1774.45 772.017 1781.58 Q772.017 1788.68 773.823 1792.25 Q775.651 1795.79 779.262 1795.79 Q782.897 1795.79 784.702 1792.25 Q786.531 1788.68 786.531 1781.58 Q786.531 1774.45 784.702 1770.9 Q782.897 1767.34 779.262 1767.34 M779.262 1763.64 Q785.072 1763.64 788.128 1768.24 Q791.207 1772.83 791.207 1781.58 Q791.207 1790.3 788.128 1794.91 Q785.072 1799.49 779.262 1799.49 Q773.452 1799.49 770.373 1794.91 Q767.318 1790.3 767.318 1781.58 Q767.318 1772.83 770.373 1768.24 Q773.452 1763.64 779.262 1763.64 Z" fill="#000000" fill-rule="nonzero" fill-opacity="1" /><path clip-path="url(#clip940)" d="M803.452 1794.89 L819.771 1794.89 L819.771 1798.82 L797.827 1798.82 L797.827 1794.89 Q800.489 1792.13 805.072 1787.5 Q809.679 1782.85 810.859 1781.51 Q813.105 1778.98 813.984 1777.25 Q814.887 1775.49 814.887 1773.8 Q814.887 1771.04 812.943 1769.31 Q811.021 1767.57 807.92 1767.57 Q805.72 1767.57 803.267 1768.34 Q800.836 1769.1 798.058 1770.65 L798.058 1765.93 Q800.883 1764.79 803.336 1764.21 Q805.79 1763.64 807.827 1763.64 Q813.197 1763.64 816.392 1766.32 Q819.586 1769.01 819.586 1773.5 Q819.586 1775.63 818.776 1777.55 Q817.989 1779.45 815.882 1782.04 Q815.304 1782.71 812.202 1785.93 Q809.1 1789.12 803.452 1794.89 Z" fill="#000000" fill-rule="nonzero" fill-opacity="1" /><path clip-path="url(#clip940)" d="M829.632 1764.26 L847.989 1764.26 L847.989 1768.2 L833.915 1768.2 L833.915 1776.67 Q834.933 1776.32 835.952 1776.16 Q836.97 1775.97 837.989 1775.97 Q843.776 1775.97 847.155 1779.15 Q850.535 1782.32 850.535 1787.73 Q850.535 1793.31 847.063 1796.41 Q843.591 1799.49 837.271 1799.49 Q835.095 1799.49 832.827 1799.12 Q830.581 1798.75 828.174 1798.01 L828.174 1793.31 Q830.257 1794.45 832.48 1795 Q834.702 1795.56 837.179 1795.56 Q841.183 1795.56 843.521 1793.45 Q845.859 1791.34 845.859 1787.73 Q845.859 1784.12 843.521 1782.02 Q841.183 1779.91 837.179 1779.91 Q835.304 1779.91 833.429 1780.33 Q831.577 1780.74 829.632 1781.62 L829.632 1764.26 Z" fill="#000000" fill-rule="nonzero" fill-opacity="1" /><path clip-path="url(#clip940)" d="M1203.73 1767.34 Q1200.12 1767.34 1198.29 1770.9 Q1196.48 1774.45 1196.48 1781.58 Q1196.48 1788.68 1198.29 1792.25 Q1200.12 1795.79 1203.73 1795.79 Q1207.36 1795.79 1209.17 1792.25 Q1211 1788.68 1211 1781.58 Q1211 1774.45 1209.17 1770.9 Q1207.36 1767.34 1203.73 1767.34 M1203.73 1763.64 Q1209.54 1763.64 1212.59 1768.24 Q1215.67 1772.83 1215.67 1781.58 Q1215.67 1790.3 1212.59 1794.91 Q1209.54 1799.49 1203.73 1799.49 Q1197.92 1799.49 1194.84 1794.91 Q1191.78 1790.3 1191.78 1781.58 Q1191.78 1772.83 1194.84 1768.24 Q1197.92 1763.64 1203.73 1763.64 Z" fill="#000000" fill-rule="nonzero" fill-opacity="1" /><path clip-path="url(#clip940)" d="M1223.89 1792.94 L1228.77 1792.94 L1228.77 1798.82 L1223.89 1798.82 L1223.89 1792.94 Z" fill="#000000" fill-rule="nonzero" fill-opacity="1" /><path clip-path="url(#clip940)" d="M1248.96 1767.34 Q1245.35 1767.34 1243.52 1770.9 Q1241.71 1774.45 1241.71 1781.58 Q1241.71 1788.68 1243.52 1792.25 Q1245.35 1795.79 1248.96 1795.79 Q1252.59 1795.79 1254.4 1792.25 Q1256.23 1788.68 1256.23 1781.58 Q1256.23 1774.45 1254.4 1770.9 Q1252.59 1767.34 1248.96 1767.34 M1248.96 1763.64 Q1254.77 1763.64 1257.82 1768.24 Q1260.9 1772.83 1260.9 1781.58 Q1260.9 1790.3 1257.82 1794.91 Q1254.77 1799.49 1248.96 1799.49 Q1243.15 1799.49 1240.07 1794.91 Q1237.01 1790.3 1237.01 1781.58 Q1237.01 1772.83 1240.07 1768.24 Q1243.15 1763.64 1248.96 1763.64 Z" fill="#000000" fill-rule="nonzero" fill-opacity="1" /><path clip-path="url(#clip940)" d="M1269.17 1764.26 L1287.52 1764.26 L1287.52 1768.2 L1273.45 1768.2 L1273.45 1776.67 Q1274.47 1776.32 1275.49 1776.16 Q1276.5 1775.97 1277.52 1775.97 Q1283.31 1775.97 1286.69 1779.15 Q1290.07 1782.32 1290.07 1787.73 Q1290.07 1793.31 1286.6 1796.41 Q1283.13 1799.49 1276.81 1799.49 Q1274.63 1799.49 1272.36 1799.12 Q1270.12 1798.75 1267.71 1798.01 L1267.71 1793.31 Q1269.79 1794.45 1272.01 1795 Q1274.24 1795.56 1276.71 1795.56 Q1280.72 1795.56 1283.06 1793.45 Q1285.39 1791.34 1285.39 1787.73 Q1285.39 1784.12 1283.06 1782.02 Q1280.72 1779.91 1276.71 1779.91 Q1274.84 1779.91 1272.96 1780.33 Q1271.11 1780.74 1269.17 1781.62 L1269.17 1764.26 Z" fill="#000000" fill-rule="nonzero" fill-opacity="1" /><path clip-path="url(#clip940)" d="M1309.28 1767.34 Q1305.67 1767.34 1303.84 1770.9 Q1302.04 1774.45 1302.04 1781.58 Q1302.04 1788.68 1303.84 1792.25 Q1305.67 1795.79 1309.28 1795.79 Q1312.92 1795.79 1314.72 1792.25 Q1316.55 1788.68 1316.55 1781.58 Q1316.55 1774.45 1314.72 1770.9 Q1312.92 1767.34 1309.28 1767.34 M1309.28 1763.64 Q1315.09 1763.64 1318.15 1768.24 Q1321.23 1772.83 1321.23 1781.58 Q1321.23 1790.3 1318.15 1794.91 Q1315.09 1799.49 1309.28 1799.49 Q1303.47 1799.49 1300.39 1794.91 Q1297.34 1790.3 1297.34 1781.58 Q1297.34 1772.83 1300.39 1768.24 Q1303.47 1763.64 1309.28 1763.64 Z" fill="#000000" fill-rule="nonzero" fill-opacity="1" /><path clip-path="url(#clip940)" d="M1674.42 1767.34 Q1670.81 1767.34 1668.98 1770.9 Q1667.17 1774.45 1667.17 1781.58 Q1667.17 1788.68 1668.98 1792.25 Q1670.81 1795.79 1674.42 1795.79 Q1678.05 1795.79 1679.86 1792.25 Q1681.69 1788.68 1681.69 1781.58 Q1681.69 1774.45 1679.86 1770.9 Q1678.05 1767.34 1674.42 1767.34 M1674.42 1763.64 Q1680.23 1763.64 1683.28 1768.24 Q1686.36 1772.83 1686.36 1781.58 Q1686.36 1790.3 1683.28 1794.91 Q1680.23 1799.49 1674.42 1799.49 Q1668.61 1799.49 1665.53 1794.91 Q1662.47 1790.3 1662.47 1781.58 Q1662.47 1772.83 1665.53 1768.24 Q1668.61 1763.64 1674.42 1763.64 Z" fill="#000000" fill-rule="nonzero" fill-opacity="1" /><path clip-path="url(#clip940)" d="M1694.58 1792.94 L1699.47 1792.94 L1699.47 1798.82 L1694.58 1798.82 L1694.58 1792.94 Z" fill="#000000" fill-rule="nonzero" fill-opacity="1" /><path clip-path="url(#clip940)" d="M1719.65 1767.34 Q1716.04 1767.34 1714.21 1770.9 Q1712.4 1774.45 1712.4 1781.58 Q1712.4 1788.68 1714.21 1792.25 Q1716.04 1795.79 1719.65 1795.79 Q1723.28 1795.79 1725.09 1792.25 Q1726.92 1788.68 1726.92 1781.58 Q1726.92 1774.45 1725.09 1770.9 Q1723.28 1767.34 1719.65 1767.34 M1719.65 1763.64 Q1725.46 1763.64 1728.52 1768.24 Q1731.59 1772.83 1731.59 1781.58 Q1731.59 1790.3 1728.52 1794.91 Q1725.46 1799.49 1719.65 1799.49 Q1713.84 1799.49 1710.76 1794.91 Q1707.71 1790.3 1707.71 1781.58 Q1707.71 1772.83 1710.76 1768.24 Q1713.84 1763.64 1719.65 1763.64 Z" fill="#000000" fill-rule="nonzero" fill-opacity="1" /><path clip-path="url(#clip940)" d="M1738.63 1764.26 L1760.85 1764.26 L1760.85 1766.25 L1748.31 1798.82 L1743.42 1798.82 L1755.23 1768.2 L1738.63 1768.2 L1738.63 1764.26 Z" fill="#000000" fill-rule="nonzero" fill-opacity="1" /><path clip-path="url(#clip940)" d="M1770.02 1764.26 L1788.38 1764.26 L1788.38 1768.2 L1774.3 1768.2 L1774.3 1776.67 Q1775.32 1776.32 1776.34 1776.16 Q1777.36 1775.97 1778.38 1775.97 Q1784.16 1775.97 1787.54 1779.15 Q1790.92 1782.32 1790.92 1787.73 Q1790.92 1793.31 1787.45 1796.41 Q1783.98 1799.49 1777.66 1799.49 Q1775.48 1799.49 1773.21 1799.12 Q1770.97 1798.75 1768.56 1798.01 L1768.56 1793.31 Q1770.65 1794.45 1772.87 1795 Q1775.09 1795.56 1777.57 1795.56 Q1781.57 1795.56 1783.91 1793.45 Q1786.25 1791.34 1786.25 1787.73 Q1786.25 1784.12 1783.91 1782.02 Q1781.57 1779.91 1777.57 1779.91 Q1775.69 1779.91 1773.82 1780.33 Q1771.96 1780.74 1770.02 1781.62 L1770.02 1764.26 Z" fill="#000000" fill-rule="nonzero" fill-opacity="1" /><path clip-path="url(#clip940)" d="M2144.12 1767.34 Q2140.5 1767.34 2138.68 1770.9 Q2136.87 1774.45 2136.87 1781.58 Q2136.87 1788.68 2138.68 1792.25 Q2140.5 1795.79 2144.12 1795.79 Q2147.75 1795.79 2149.56 1792.25 Q2151.38 1788.68 2151.38 1781.58 Q2151.38 1774.45 2149.56 1770.9 Q2147.75 1767.34 2144.12 1767.34 M2144.12 1763.64 Q2149.93 1763.64 2152.98 1768.24 Q2156.06 1772.83 2156.06 1781.58 Q2156.06 1790.3 2152.98 1794.91 Q2149.93 1799.49 2144.12 1799.49 Q2138.31 1799.49 2135.23 1794.91 Q2132.17 1790.3 2132.17 1781.58 Q2132.17 1772.83 2135.23 1768.24 Q2138.31 1763.64 2144.12 1763.64 Z" fill="#000000" fill-rule="nonzero" fill-opacity="1" /><path clip-path="url(#clip940)" d="M2164.28 1792.94 L2169.16 1792.94 L2169.16 1798.82 L2164.28 1798.82 L2164.28 1792.94 Z" fill="#000000" fill-rule="nonzero" fill-opacity="1" /><path clip-path="url(#clip940)" d="M2180.16 1794.89 L2187.8 1794.89 L2187.8 1768.52 L2179.49 1770.19 L2179.49 1765.93 L2187.75 1764.26 L2192.43 1764.26 L2192.43 1794.89 L2200.06 1794.89 L2200.06 1798.82 L2180.16 1798.82 L2180.16 1794.89 Z" fill="#000000" fill-rule="nonzero" fill-opacity="1" /><path clip-path="url(#clip940)" d="M2219.51 1767.34 Q2215.9 1767.34 2214.07 1770.9 Q2212.26 1774.45 2212.26 1781.58 Q2212.26 1788.68 2214.07 1792.25 Q2215.9 1795.79 2219.51 1795.79 Q2223.14 1795.79 2224.95 1792.25 Q2226.78 1788.68 2226.78 1781.58 Q2226.78 1774.45 2224.95 1770.9 Q2223.14 1767.34 2219.51 1767.34 M2219.51 1763.64 Q2225.32 1763.64 2228.37 1768.24 Q2231.45 1772.83 2231.45 1781.58 Q2231.45 1790.3 2228.37 1794.91 Q2225.32 1799.49 2219.51 1799.49 Q2213.7 1799.49 2210.62 1794.91 Q2207.56 1790.3 2207.56 1781.58 Q2207.56 1772.83 2210.62 1768.24 Q2213.7 1763.64 2219.51 1763.64 Z" fill="#000000" fill-rule="nonzero" fill-opacity="1" /><path clip-path="url(#clip940)" d="M2249.67 1767.34 Q2246.06 1767.34 2244.23 1770.9 Q2242.42 1774.45 2242.42 1781.58 Q2242.42 1788.68 2244.23 1792.25 Q2246.06 1795.79 2249.67 1795.79 Q2253.3 1795.79 2255.11 1792.25 Q2256.94 1788.68 2256.94 1781.58 Q2256.94 1774.45 2255.11 1770.9 Q2253.3 1767.34 2249.67 1767.34 M2249.67 1763.64 Q2255.48 1763.64 2258.54 1768.24 Q2261.61 1772.83 2261.61 1781.58 Q2261.61 1790.3 2258.54 1794.91 Q2255.48 1799.49 2249.67 1799.49 Q2243.86 1799.49 2240.78 1794.91 Q2237.73 1790.3 2237.73 1781.58 Q2237.73 1772.83 2240.78 1768.24 Q2243.86 1763.64 2249.67 1763.64 Z" fill="#000000" fill-rule="nonzero" fill-opacity="1" /><path clip-path="url(#clip940)" d="M1197.43 1841.06 L1197.43 1858.92 L1205.52 1858.92 Q1210.01 1858.92 1212.46 1856.6 Q1214.91 1854.27 1214.91 1849.98 Q1214.91 1845.71 1212.46 1843.39 Q1210.01 1841.06 1205.52 1841.06 L1197.43 1841.06 M1191 1835.78 L1205.52 1835.78 Q1213.51 1835.78 1217.58 1839.41 Q1221.69 1843.01 1221.69 1849.98 Q1221.69 1857.01 1217.58 1860.61 Q1213.51 1864.2 1205.52 1864.2 L1197.43 1864.2 L1197.43 1883.3 L1191 1883.3 L1191 1835.78 Z" fill="#000000" fill-rule="nonzero" fill-opacity="1" /><path clip-path="url(#clip940)" d="M1249.57 1853.13 Q1248.58 1852.55 1247.4 1852.3 Q1246.26 1852.01 1244.86 1852.01 Q1239.89 1852.01 1237.22 1855.26 Q1234.58 1858.47 1234.58 1864.52 L1234.58 1883.3 L1228.69 1883.3 L1228.69 1847.65 L1234.58 1847.65 L1234.58 1853.19 Q1236.42 1849.94 1239.38 1848.39 Q1242.34 1846.79 1246.58 1846.79 Q1247.18 1846.79 1247.91 1846.89 Q1248.65 1846.95 1249.54 1847.11 L1249.57 1853.13 Z" fill="#000000" fill-rule="nonzero" fill-opacity="1" /><path clip-path="url(#clip940)" d="M1284.77 1864.01 L1284.77 1866.88 L1257.84 1866.88 Q1258.23 1872.92 1261.47 1876.11 Q1264.75 1879.26 1270.58 1879.26 Q1273.95 1879.26 1277.1 1878.43 Q1280.28 1877.6 1283.4 1875.95 L1283.4 1881.49 Q1280.25 1882.82 1276.94 1883.52 Q1273.63 1884.22 1270.23 1884.22 Q1261.7 1884.22 1256.7 1879.26 Q1251.73 1874.29 1251.73 1865.83 Q1251.73 1857.07 1256.44 1851.95 Q1261.19 1846.79 1269.21 1846.79 Q1276.4 1846.79 1280.57 1851.44 Q1284.77 1856.06 1284.77 1864.01 M1278.91 1862.29 Q1278.85 1857.49 1276.21 1854.62 Q1273.6 1851.76 1269.27 1851.76 Q1264.37 1851.76 1261.41 1854.53 Q1258.48 1857.3 1258.04 1862.33 L1278.91 1862.29 Z" fill="#000000" fill-rule="nonzero" fill-opacity="1" /><path clip-path="url(#clip940)" d="M1290.18 1847.65 L1296.39 1847.65 L1307.53 1877.57 L1318.67 1847.65 L1324.88 1847.65 L1311.51 1883.3 L1303.55 1883.3 L1290.18 1847.65 Z" fill="#000000" fill-rule="nonzero" fill-opacity="1" /><path clip-path="url(#clip940)" d="M1349.16 1865.38 Q1342.06 1865.38 1339.33 1867 Q1336.59 1868.63 1336.59 1872.54 Q1336.59 1875.66 1338.63 1877.51 Q1340.69 1879.32 1344.23 1879.32 Q1349.1 1879.32 1352.03 1875.88 Q1354.99 1872.42 1354.99 1866.69 L1354.99 1865.38 L1349.16 1865.38 M1360.84 1862.96 L1360.84 1883.3 L1354.99 1883.3 L1354.99 1877.89 Q1352.98 1881.14 1349.99 1882.7 Q1347 1884.22 1342.67 1884.22 Q1337.19 1884.22 1333.95 1881.17 Q1330.73 1878.08 1330.73 1872.92 Q1330.73 1866.91 1334.74 1863.85 Q1338.78 1860.8 1346.77 1860.8 L1354.99 1860.8 L1354.99 1860.23 Q1354.99 1856.18 1352.31 1853.99 Q1349.67 1851.76 1344.86 1851.76 Q1341.81 1851.76 1338.91 1852.49 Q1336.02 1853.22 1333.34 1854.69 L1333.34 1849.28 Q1336.56 1848.03 1339.58 1847.43 Q1342.6 1846.79 1345.47 1846.79 Q1353.2 1846.79 1357.02 1850.8 Q1360.84 1854.81 1360.84 1862.96 Z" fill="#000000" fill-rule="nonzero" fill-opacity="1" /><path clip-path="url(#clip940)" d="M1372.9 1833.78 L1378.76 1833.78 L1378.76 1883.3 L1372.9 1883.3 L1372.9 1833.78 Z" fill="#000000" fill-rule="nonzero" fill-opacity="1" /><path clip-path="url(#clip940)" d="M1421.51 1864.01 L1421.51 1866.88 L1394.58 1866.88 Q1394.96 1872.92 1398.21 1876.11 Q1401.49 1879.26 1407.31 1879.26 Q1410.69 1879.26 1413.84 1878.43 Q1417.02 1877.6 1420.14 1875.95 L1420.14 1881.49 Q1416.99 1882.82 1413.68 1883.52 Q1410.37 1884.22 1406.96 1884.22 Q1398.43 1884.22 1393.43 1879.26 Q1388.47 1874.29 1388.47 1865.83 Q1388.47 1857.07 1393.18 1851.95 Q1397.92 1846.79 1405.94 1846.79 Q1413.14 1846.79 1417.31 1851.44 Q1421.51 1856.06 1421.51 1864.01 M1415.65 1862.29 Q1415.59 1857.49 1412.94 1854.62 Q1410.33 1851.76 1406.01 1851.76 Q1401.1 1851.76 1398.14 1854.53 Q1395.22 1857.3 1394.77 1862.33 L1415.65 1862.29 Z" fill="#000000" fill-rule="nonzero" fill-opacity="1" /><path clip-path="url(#clip940)" d="M1460.75 1861.78 L1460.75 1883.3 L1454.89 1883.3 L1454.89 1861.98 Q1454.89 1856.92 1452.92 1854.4 Q1450.95 1851.89 1447 1851.89 Q1442.26 1851.89 1439.52 1854.91 Q1436.78 1857.93 1436.78 1863.15 L1436.78 1883.3 L1430.9 1883.3 L1430.9 1847.65 L1436.78 1847.65 L1436.78 1853.19 Q1438.89 1849.98 1441.72 1848.39 Q1444.58 1846.79 1448.31 1846.79 Q1454.45 1846.79 1457.6 1850.61 Q1460.75 1854.4 1460.75 1861.78 Z" fill="#000000" fill-rule="nonzero" fill-opacity="1" /><path clip-path="url(#clip940)" d="M1498.09 1849.02 L1498.09 1854.5 Q1495.6 1853.13 1493.09 1852.46 Q1490.61 1851.76 1488.06 1851.76 Q1482.36 1851.76 1479.21 1855.39 Q1476.06 1858.98 1476.06 1865.51 Q1476.06 1872.03 1479.21 1875.66 Q1482.36 1879.26 1488.06 1879.26 Q1490.61 1879.26 1493.09 1878.59 Q1495.6 1877.89 1498.09 1876.52 L1498.09 1881.93 Q1495.64 1883.08 1492.99 1883.65 Q1490.38 1884.22 1487.42 1884.22 Q1479.37 1884.22 1474.63 1879.16 Q1469.89 1874.1 1469.89 1865.51 Q1469.89 1856.79 1474.66 1851.79 Q1479.47 1846.79 1487.81 1846.79 Q1490.51 1846.79 1493.09 1847.37 Q1495.67 1847.91 1498.09 1849.02 Z" fill="#000000" fill-rule="nonzero" fill-opacity="1" /><path clip-path="url(#clip940)" d="M1538.76 1864.01 L1538.76 1866.88 L1511.84 1866.88 Q1512.22 1872.92 1515.46 1876.11 Q1518.74 1879.26 1524.57 1879.26 Q1527.94 1879.26 1531.09 1878.43 Q1534.28 1877.6 1537.39 1875.95 L1537.39 1881.49 Q1534.24 1882.82 1530.93 1883.52 Q1527.62 1884.22 1524.22 1884.22 Q1515.69 1884.22 1510.69 1879.26 Q1505.73 1874.29 1505.73 1865.83 Q1505.73 1857.07 1510.44 1851.95 Q1515.18 1846.79 1523.2 1846.79 Q1530.39 1846.79 1534.56 1851.44 Q1538.76 1856.06 1538.76 1864.01 M1532.91 1862.29 Q1532.84 1857.49 1530.2 1854.62 Q1527.59 1851.76 1523.26 1851.76 Q1518.36 1851.76 1515.4 1854.53 Q1512.47 1857.3 1512.03 1862.33 L1532.91 1862.29 Z" fill="#000000" fill-rule="nonzero" fill-opacity="1" /><path clip-path="url(#clip940)" d="M1583.16 1833.84 Q1578.9 1841.16 1576.83 1848.32 Q1574.76 1855.48 1574.76 1862.84 Q1574.76 1870.19 1576.83 1877.41 Q1578.93 1884.61 1583.16 1891.89 L1578.07 1891.89 Q1573.3 1884.41 1570.91 1877.19 Q1568.55 1869.96 1568.55 1862.84 Q1568.55 1855.74 1570.91 1848.54 Q1573.27 1841.35 1578.07 1833.84 L1583.16 1833.84 Z" fill="#000000" fill-rule="nonzero" fill-opacity="1" /><path clip-path="url(#clip940)" d="M1594.78 1835.78 L1601.21 1835.78 L1601.21 1883.3 L1594.78 1883.3 L1594.78 1835.78 Z" fill="#000000" fill-rule="nonzero" fill-opacity="1" /><path clip-path="url(#clip940)" d="M1624.16 1835.78 L1629.57 1835.78 L1613.02 1889.35 L1607.61 1889.35 L1624.16 1835.78 Z" fill="#000000" fill-rule="nonzero" fill-opacity="1" /><path clip-path="url(#clip940)" d="M1635.97 1835.78 L1644.62 1835.78 L1665.7 1875.53 L1665.7 1835.78 L1671.93 1835.78 L1671.93 1883.3 L1663.28 1883.3 L1642.21 1843.55 L1642.21 1883.3 L1635.97 1883.3 L1635.97 1835.78 Z" fill="#000000" fill-rule="nonzero" fill-opacity="1" /><path clip-path="url(#clip940)" d="M1683.55 1833.84 L1688.64 1833.84 Q1693.42 1841.35 1695.77 1848.54 Q1698.16 1855.74 1698.16 1862.84 Q1698.16 1869.96 1695.77 1877.19 Q1693.42 1884.41 1688.64 1891.89 L1683.55 1891.89 Q1687.78 1884.61 1689.85 1877.41 Q1691.95 1870.19 1691.95 1862.84 Q1691.95 1855.48 1689.85 1848.32 Q1687.78 1841.16 1683.55 1833.84 Z" fill="#000000" fill-rule="nonzero" fill-opacity="1" /><polyline clip-path="url(#clip940)" style="stroke:#000000; stroke-linecap:round; stroke-linejoin:round; stroke-width:4; stroke-opacity:1; fill:none" points="248.409,1734.12 248.409,127.792 "/>
<polyline clip-path="url(#clip940)" style="stroke:#000000; stroke-linecap:round; stroke-linejoin:round; stroke-width:4; stroke-opacity:1; fill:none" points="248.409,1723.78 267.307,1723.78 "/>
<polyline clip-path="url(#clip940)" style="stroke:#000000; stroke-linecap:round; stroke-linejoin:round; stroke-width:4; stroke-opacity:1; fill:none" points="248.409,1218.79 267.307,1218.79 "/>
<polyline clip-path="url(#clip940)" style="stroke:#000000; stroke-linecap:round; stroke-linejoin:round; stroke-width:4; stroke-opacity:1; fill:none" points="248.409,713.795 267.307,713.795 "/>
<polyline clip-path="url(#clip940)" style="stroke:#000000; stroke-linecap:round; stroke-linejoin:round; stroke-width:4; stroke-opacity:1; fill:none" points="248.409,208.804 267.307,208.804 "/>
<path clip-path="url(#clip940)" d="M116.214 1724.23 L145.89 1724.23 L145.89 1728.16 L116.214 1728.16 L116.214 1724.23 Z" fill="#000000" fill-rule="nonzero" fill-opacity="1" /><path clip-path="url(#clip940)" d="M170.149 1722.42 Q173.506 1723.14 175.381 1725.41 Q177.279 1727.68 177.279 1731.01 Q177.279 1736.13 173.76 1738.93 Q170.242 1741.73 163.76 1741.73 Q161.585 1741.73 159.27 1741.29 Q156.978 1740.87 154.524 1740.01 L154.524 1735.5 Q156.469 1736.64 158.784 1737.21 Q161.098 1737.79 163.622 1737.79 Q168.02 1737.79 170.311 1736.06 Q172.626 1734.32 172.626 1731.01 Q172.626 1727.95 170.473 1726.24 Q168.344 1724.51 164.524 1724.51 L160.497 1724.51 L160.497 1720.66 L164.71 1720.66 Q168.159 1720.66 169.987 1719.3 Q171.816 1717.91 171.816 1715.32 Q171.816 1712.65 169.918 1711.24 Q168.043 1709.81 164.524 1709.81 Q162.603 1709.81 160.404 1710.22 Q158.205 1710.64 155.566 1711.52 L155.566 1707.35 Q158.228 1706.61 160.543 1706.24 Q162.881 1705.87 164.941 1705.87 Q170.265 1705.87 173.367 1708.3 Q176.469 1710.71 176.469 1714.83 Q176.469 1717.7 174.825 1719.69 Q173.182 1721.66 170.149 1722.42 Z" fill="#000000" fill-rule="nonzero" fill-opacity="1" /><path clip-path="url(#clip940)" d="M196.145 1709.58 Q192.533 1709.58 190.705 1713.14 Q188.899 1716.68 188.899 1723.81 Q188.899 1730.92 190.705 1734.48 Q192.533 1738.02 196.145 1738.02 Q199.779 1738.02 201.584 1734.48 Q203.413 1730.92 203.413 1723.81 Q203.413 1716.68 201.584 1713.14 Q199.779 1709.58 196.145 1709.58 M196.145 1705.87 Q201.955 1705.87 205.01 1710.48 Q208.089 1715.06 208.089 1723.81 Q208.089 1732.54 205.01 1737.14 Q201.955 1741.73 196.145 1741.73 Q190.334 1741.73 187.256 1737.14 Q184.2 1732.54 184.2 1723.81 Q184.2 1715.06 187.256 1710.48 Q190.334 1705.87 196.145 1705.87 Z" fill="#000000" fill-rule="nonzero" fill-opacity="1" /><path clip-path="url(#clip940)" d="M116.214 1219.24 L145.89 1219.24 L145.89 1223.17 L116.214 1223.17 L116.214 1219.24 Z" fill="#000000" fill-rule="nonzero" fill-opacity="1" /><path clip-path="url(#clip940)" d="M160.011 1232.13 L176.33 1232.13 L176.33 1236.07 L154.386 1236.07 L154.386 1232.13 Q157.048 1229.38 161.631 1224.75 Q166.237 1220.09 167.418 1218.75 Q169.663 1216.23 170.543 1214.49 Q171.446 1212.73 171.446 1211.04 Q171.446 1208.29 169.501 1206.55 Q167.58 1204.82 164.478 1204.82 Q162.279 1204.82 159.825 1205.58 Q157.395 1206.34 154.617 1207.89 L154.617 1203.17 Q157.441 1202.04 159.895 1201.46 Q162.348 1200.88 164.385 1200.88 Q169.756 1200.88 172.95 1203.57 Q176.145 1206.25 176.145 1210.74 Q176.145 1212.87 175.334 1214.79 Q174.547 1216.69 172.441 1219.28 Q171.862 1219.95 168.76 1223.17 Q165.659 1226.37 160.011 1232.13 Z" fill="#000000" fill-rule="nonzero" fill-opacity="1" /><path clip-path="url(#clip940)" d="M196.145 1204.58 Q192.533 1204.58 190.705 1208.15 Q188.899 1211.69 188.899 1218.82 Q188.899 1225.93 190.705 1229.49 Q192.533 1233.03 196.145 1233.03 Q199.779 1233.03 201.584 1229.49 Q203.413 1225.93 203.413 1218.82 Q203.413 1211.69 201.584 1208.15 Q199.779 1204.58 196.145 1204.58 M196.145 1200.88 Q201.955 1200.88 205.01 1205.49 Q208.089 1210.07 208.089 1218.82 Q208.089 1227.55 205.01 1232.15 Q201.955 1236.74 196.145 1236.74 Q190.334 1236.74 187.256 1232.15 Q184.2 1227.55 184.2 1218.82 Q184.2 1210.07 187.256 1205.49 Q190.334 1200.88 196.145 1200.88 Z" fill="#000000" fill-rule="nonzero" fill-opacity="1" /><path clip-path="url(#clip940)" d="M116.214 714.246 L145.89 714.246 L145.89 718.181 L116.214 718.181 L116.214 714.246 Z" fill="#000000" fill-rule="nonzero" fill-opacity="1" /><path clip-path="url(#clip940)" d="M156.793 727.139 L164.432 727.139 L164.432 700.774 L156.122 702.44 L156.122 698.181 L164.385 696.515 L169.061 696.515 L169.061 727.139 L176.7 727.139 L176.7 731.075 L156.793 731.075 L156.793 727.139 Z" fill="#000000" fill-rule="nonzero" fill-opacity="1" /><path clip-path="url(#clip940)" d="M196.145 699.593 Q192.533 699.593 190.705 703.158 Q188.899 706.7 188.899 713.829 Q188.899 720.936 190.705 724.501 Q192.533 728.042 196.145 728.042 Q199.779 728.042 201.584 724.501 Q203.413 720.936 203.413 713.829 Q203.413 706.7 201.584 703.158 Q199.779 699.593 196.145 699.593 M196.145 695.89 Q201.955 695.89 205.01 700.496 Q208.089 705.079 208.089 713.829 Q208.089 722.556 205.01 727.163 Q201.955 731.746 196.145 731.746 Q190.334 731.746 187.256 727.163 Q184.2 722.556 184.2 713.829 Q184.2 705.079 187.256 700.496 Q190.334 695.89 196.145 695.89 Z" fill="#000000" fill-rule="nonzero" fill-opacity="1" /><path clip-path="url(#clip940)" d="M196.145 194.602 Q192.533 194.602 190.705 198.167 Q188.899 201.709 188.899 208.838 Q188.899 215.945 190.705 219.51 Q192.533 223.051 196.145 223.051 Q199.779 223.051 201.584 219.51 Q203.413 215.945 203.413 208.838 Q203.413 201.709 201.584 198.167 Q199.779 194.602 196.145 194.602 M196.145 190.899 Q201.955 190.899 205.01 195.505 Q208.089 200.088 208.089 208.838 Q208.089 217.565 205.01 222.172 Q201.955 226.755 196.145 226.755 Q190.334 226.755 187.256 222.172 Q184.2 217.565 184.2 208.838 Q184.2 200.088 187.256 195.505 Q190.334 190.899 196.145 190.899 Z" fill="#000000" fill-rule="nonzero" fill-opacity="1" /><path clip-path="url(#clip940)" d="M59.4423 940.471 L75.1974 940.471 L75.1974 946.36 L26.2133 946.36 Q11.6995 946.36 11.6995 932.801 Q11.6995 918.987 23.9535 918.987 Q32.6745 918.987 35.8573 924.462 Q38.7219 915.55 47.2201 915.55 Q62.3068 915.55 62.3068 930.891 Q62.3068 937.639 59.4423 940.471 M51.8034 940.471 Q57.3098 936.938 57.3098 930.668 Q57.3098 921.501 47.3156 921.501 Q38.34 921.501 39.0402 936.27 L33.6293 936.27 Q33.6293 924.716 23.4442 924.716 Q16.4738 924.716 16.4738 932.164 Q16.4738 940.471 26.4043 940.471 L51.8034 940.471 Z" fill="#000000" fill-rule="nonzero" fill-opacity="1" /><path clip-path="url(#clip940)" d="M371.721 44.2197 Q374.354 45.1109 376.825 48.0275 Q379.336 50.9442 381.848 56.0483 L390.152 72.576 L381.362 72.576 L373.625 57.061 Q370.627 50.9847 367.791 48.9997 Q364.996 47.0148 360.135 47.0148 L351.223 47.0148 L351.223 72.576 L343.04 72.576 L343.04 12.096 L361.512 12.096 Q371.883 12.096 376.987 16.4305 Q382.091 20.7649 382.091 29.5149 Q382.091 35.2267 379.417 38.994 Q376.784 42.7613 371.721 44.2197 M351.223 18.8205 L351.223 40.2903 L361.512 40.2903 Q367.427 40.2903 370.424 37.5762 Q373.463 34.8216 373.463 29.5149 Q373.463 24.2082 370.424 21.5346 Q367.427 18.8205 361.512 18.8205 L351.223 18.8205 Z" fill="#000000" fill-rule="nonzero" fill-opacity="1" /><path clip-path="url(#clip940)" d="M435.441 48.0275 L435.441 51.6733 L401.171 51.6733 Q401.657 59.3701 405.789 63.421 Q409.961 67.4314 417.374 67.4314 Q421.668 67.4314 425.679 66.3781 Q429.73 65.3249 433.7 63.2184 L433.7 70.267 Q429.689 71.9684 425.476 72.8596 Q421.263 73.7508 416.929 73.7508 Q406.072 73.7508 399.712 67.4314 Q393.393 61.1119 393.393 50.3365 Q393.393 39.1965 399.388 32.6746 Q405.424 26.1121 415.633 26.1121 Q424.788 26.1121 430.094 32.0264 Q435.441 37.9003 435.441 48.0275 M427.988 45.84 Q427.907 39.7232 424.544 36.0774 Q421.223 32.4315 415.714 32.4315 Q409.475 32.4315 405.708 35.9558 Q401.981 39.4801 401.414 45.8805 L427.988 45.84 Z" fill="#000000" fill-rule="nonzero" fill-opacity="1" /><path clip-path="url(#clip940)" d="M480.325 28.9478 L480.325 35.9153 Q477.166 34.1734 473.966 33.3227 Q470.806 32.4315 467.565 32.4315 Q460.314 32.4315 456.304 37.0496 Q452.293 41.6271 452.293 49.9314 Q452.293 58.2358 456.304 62.8538 Q460.314 67.4314 467.565 67.4314 Q470.806 67.4314 473.966 66.5807 Q477.166 65.6895 480.325 63.9476 L480.325 70.8341 Q477.206 72.2924 473.844 73.0216 Q470.522 73.7508 466.755 73.7508 Q456.506 73.7508 450.47 67.3098 Q444.434 60.8689 444.434 49.9314 Q444.434 38.832 450.511 32.472 Q456.628 26.1121 467.241 26.1121 Q470.684 26.1121 473.966 26.8413 Q477.247 27.5299 480.325 28.9478 Z" fill="#000000" fill-rule="nonzero" fill-opacity="1" /><path clip-path="url(#clip940)" d="M510.869 32.4315 Q504.874 32.4315 501.39 37.1306 Q497.906 41.7891 497.906 49.9314 Q497.906 58.0738 501.35 62.7728 Q504.833 67.4314 510.869 67.4314 Q516.824 67.4314 520.308 62.7323 Q523.792 58.0333 523.792 49.9314 Q523.792 41.8701 520.308 37.1711 Q516.824 32.4315 510.869 32.4315 M510.869 26.1121 Q520.591 26.1121 526.141 32.4315 Q531.691 38.7509 531.691 49.9314 Q531.691 61.0714 526.141 67.4314 Q520.591 73.7508 510.869 73.7508 Q501.107 73.7508 495.557 67.4314 Q490.048 61.0714 490.048 49.9314 Q490.048 38.7509 495.557 32.4315 Q501.107 26.1121 510.869 26.1121 Z" fill="#000000" fill-rule="nonzero" fill-opacity="1" /><path clip-path="url(#clip940)" d="M538.699 27.2059 L546.598 27.2059 L560.776 65.2844 L574.955 27.2059 L582.854 27.2059 L565.84 72.576 L555.713 72.576 L538.699 27.2059 Z" fill="#000000" fill-rule="nonzero" fill-opacity="1" /><path clip-path="url(#clip940)" d="M631.951 48.0275 L631.951 51.6733 L597.68 51.6733 Q598.166 59.3701 602.298 63.421 Q606.471 67.4314 613.884 67.4314 Q618.178 67.4314 622.188 66.3781 Q626.239 65.3249 630.209 63.2184 L630.209 70.267 Q626.199 71.9684 621.986 72.8596 Q617.773 73.7508 613.438 73.7508 Q602.582 73.7508 596.222 67.4314 Q589.902 61.1119 589.902 50.3365 Q589.902 39.1965 595.898 32.6746 Q601.934 26.1121 612.142 26.1121 Q621.297 26.1121 626.604 32.0264 Q631.951 37.9003 631.951 48.0275 M624.497 45.84 Q624.416 39.7232 621.054 36.0774 Q617.732 32.4315 612.223 32.4315 Q605.984 32.4315 602.217 35.9558 Q598.49 39.4801 597.923 45.8805 L624.497 45.84 Z" fill="#000000" fill-rule="nonzero" fill-opacity="1" /><path clip-path="url(#clip940)" d="M670.475 34.1734 Q669.219 33.4443 667.72 33.1202 Q666.262 32.7556 664.48 32.7556 Q658.16 32.7556 654.757 36.8875 Q651.395 40.9789 651.395 48.6757 L651.395 72.576 L643.901 72.576 L643.901 27.2059 L651.395 27.2059 L651.395 34.2544 Q653.745 30.1225 657.512 28.1376 Q661.279 26.1121 666.667 26.1121 Q667.437 26.1121 668.368 26.2337 Q669.3 26.3147 670.434 26.5172 L670.475 34.1734 Z" fill="#000000" fill-rule="nonzero" fill-opacity="1" /><path clip-path="url(#clip940)" d="M715.278 48.0275 L715.278 51.6733 L681.007 51.6733 Q681.493 59.3701 685.625 63.421 Q689.798 67.4314 697.211 67.4314 Q701.505 67.4314 705.515 66.3781 Q709.566 65.3249 713.536 63.2184 L713.536 70.267 Q709.526 71.9684 705.313 72.8596 Q701.1 73.7508 696.765 73.7508 Q685.909 73.7508 679.549 67.4314 Q673.23 61.1119 673.23 50.3365 Q673.23 39.1965 679.225 32.6746 Q685.261 26.1121 695.469 26.1121 Q704.624 26.1121 709.931 32.0264 Q715.278 37.9003 715.278 48.0275 M707.824 45.84 Q707.743 39.7232 704.381 36.0774 Q701.059 32.4315 695.55 32.4315 Q689.312 32.4315 685.544 35.9558 Q681.817 39.4801 681.25 45.8805 L707.824 45.84 Z" fill="#000000" fill-rule="nonzero" fill-opacity="1" /><path clip-path="url(#clip940)" d="M757.367 34.0924 L757.367 9.54393 L764.82 9.54393 L764.82 72.576 L757.367 72.576 L757.367 65.7705 Q755.017 69.8214 751.412 71.8063 Q747.847 73.7508 742.824 73.7508 Q734.601 73.7508 729.416 67.1883 Q724.271 60.6258 724.271 49.9314 Q724.271 39.2371 729.416 32.6746 Q734.601 26.1121 742.824 26.1121 Q747.847 26.1121 751.412 28.0971 Q755.017 30.0415 757.367 34.0924 M731.968 49.9314 Q731.968 58.1548 735.33 62.8538 Q738.733 67.5124 744.647 67.5124 Q750.561 67.5124 753.964 62.8538 Q757.367 58.1548 757.367 49.9314 Q757.367 41.7081 753.964 37.0496 Q750.561 32.3505 744.647 32.3505 Q738.733 32.3505 735.33 37.0496 Q731.968 41.7081 731.968 49.9314 Z" fill="#000000" fill-rule="nonzero" fill-opacity="1" /><path clip-path="url(#clip940)" d="M813.998 69.7809 L813.998 89.8329 L806.504 89.8329 L806.504 27.4894 Q806.504 9.01731 823.761 9.01731 Q841.342 9.01731 841.342 24.6133 Q841.342 35.7128 834.374 39.7637 Q845.717 43.4095 845.717 54.2254 Q845.717 73.4267 826.192 73.4267 Q817.604 73.4267 813.998 69.7809 M813.998 60.0587 Q818.495 67.0668 826.475 67.0668 Q838.142 67.0668 838.142 54.3469 Q838.142 42.9234 819.346 43.8146 L819.346 36.928 Q834.05 36.928 834.05 23.9651 Q834.05 15.0937 824.571 15.0937 Q813.998 15.0937 813.998 27.7325 L813.998 60.0587 Z" fill="#000000" fill-rule="nonzero" fill-opacity="1" /><path clip-path="url(#clip940)" d="M861.394 62.2867 L869.941 62.2867 L869.941 72.576 L861.394 72.576 L861.394 62.2867 M861.394 29.6769 L869.941 29.6769 L869.941 39.9662 L861.394 39.9662 L861.394 29.6769 Z" fill="#000000" fill-rule="nonzero" fill-opacity="1" /><path clip-path="url(#clip940)" d="M943.668 49.3643 Q943.668 41.2625 940.306 36.8065 Q936.984 32.3505 930.948 32.3505 Q924.953 32.3505 921.59 36.8065 Q918.269 41.2625 918.269 49.3643 Q918.269 57.4256 921.59 61.8816 Q924.953 66.3376 930.948 66.3376 Q936.984 66.3376 940.306 61.8816 Q943.668 57.4256 943.668 49.3643 M951.122 66.9452 Q951.122 78.5308 945.977 84.1616 Q940.832 89.8329 930.219 89.8329 Q926.289 89.8329 922.806 89.2252 Q919.322 88.6581 916.041 87.4428 L916.041 80.1917 Q919.322 81.9741 922.522 82.8248 Q925.722 83.6755 929.044 83.6755 Q936.376 83.6755 940.022 79.8271 Q943.668 76.0193 943.668 68.282 L943.668 64.5957 Q941.359 68.6061 937.754 70.5911 Q934.148 72.576 929.125 72.576 Q920.78 72.576 915.676 66.2161 Q910.572 59.8562 910.572 49.3643 Q910.572 38.832 915.676 32.472 Q920.78 26.1121 929.125 26.1121 Q934.148 26.1121 937.754 28.0971 Q941.359 30.082 943.668 34.0924 L943.668 27.2059 L951.122 27.2059 L951.122 66.9452 Z" fill="#000000" fill-rule="nonzero" fill-opacity="1" /><path clip-path="url(#clip940)" d="M992.765 34.1734 Q991.509 33.4443 990.01 33.1202 Q988.552 32.7556 986.769 32.7556 Q980.45 32.7556 977.047 36.8875 Q973.685 40.9789 973.685 48.6757 L973.685 72.576 L966.191 72.576 L966.191 27.2059 L973.685 27.2059 L973.685 34.2544 Q976.035 30.1225 979.802 28.1376 Q983.569 26.1121 988.957 26.1121 Q989.727 26.1121 990.658 26.2337 Q991.59 26.3147 992.724 26.5172 L992.765 34.1734 Z" fill="#000000" fill-rule="nonzero" fill-opacity="1" /><path clip-path="url(#clip940)" d="M1021.2 49.7694 Q1012.17 49.7694 1008.68 51.8354 Q1005.2 53.9013 1005.2 58.8839 Q1005.2 62.8538 1007.79 65.2034 Q1010.43 67.5124 1014.92 67.5124 Q1021.12 67.5124 1024.85 63.1374 Q1028.62 58.7219 1028.62 51.4303 L1028.62 49.7694 L1021.2 49.7694 M1036.07 46.6907 L1036.07 72.576 L1028.62 72.576 L1028.62 65.6895 Q1026.06 69.8214 1022.26 71.8063 Q1018.45 73.7508 1012.94 73.7508 Q1005.97 73.7508 1001.84 69.8619 Q997.747 65.9325 997.747 59.3701 Q997.747 51.7138 1002.85 47.825 Q1008 43.9361 1018.16 43.9361 L1028.62 43.9361 L1028.62 43.2069 Q1028.62 38.0623 1025.21 35.2672 Q1021.85 32.4315 1015.73 32.4315 Q1011.84 32.4315 1008.16 33.3632 Q1004.47 34.295 1001.07 36.1584 L1001.07 29.2718 Q1005.16 27.692 1009.01 26.9223 Q1012.86 26.1121 1016.5 26.1121 Q1026.35 26.1121 1031.21 31.2163 Q1036.07 36.3204 1036.07 46.6907 Z" fill="#000000" fill-rule="nonzero" fill-opacity="1" /><path clip-path="url(#clip940)" d="M1081.28 34.0924 L1081.28 9.54393 L1088.73 9.54393 L1088.73 72.576 L1081.28 72.576 L1081.28 65.7705 Q1078.93 69.8214 1075.32 71.8063 Q1071.76 73.7508 1066.73 73.7508 Q1058.51 73.7508 1053.33 67.1883 Q1048.18 60.6258 1048.18 49.9314 Q1048.18 39.2371 1053.33 32.6746 Q1058.51 26.1121 1066.73 26.1121 Q1071.76 26.1121 1075.32 28.0971 Q1078.93 30.0415 1081.28 34.0924 M1055.88 49.9314 Q1055.88 58.1548 1059.24 62.8538 Q1062.64 67.5124 1068.56 67.5124 Q1074.47 67.5124 1077.87 62.8538 Q1081.28 58.1548 1081.28 49.9314 Q1081.28 41.7081 1077.87 37.0496 Q1074.47 32.3505 1068.56 32.3505 Q1062.64 32.3505 1059.24 37.0496 Q1055.88 41.7081 1055.88 49.9314 Z" fill="#000000" fill-rule="nonzero" fill-opacity="1" /><path clip-path="url(#clip940)" d="M1104.08 27.2059 L1111.54 27.2059 L1111.54 72.576 L1104.08 72.576 L1104.08 27.2059 M1104.08 9.54393 L1111.54 9.54393 L1111.54 18.9825 L1104.08 18.9825 L1104.08 9.54393 Z" fill="#000000" fill-rule="nonzero" fill-opacity="1" /><path clip-path="url(#clip940)" d="M1165.94 48.0275 L1165.94 51.6733 L1131.67 51.6733 Q1132.16 59.3701 1136.29 63.421 Q1140.46 67.4314 1147.87 67.4314 Q1152.17 67.4314 1156.18 66.3781 Q1160.23 65.3249 1164.2 63.2184 L1164.2 70.267 Q1160.19 71.9684 1155.98 72.8596 Q1151.76 73.7508 1147.43 73.7508 Q1136.57 73.7508 1130.21 67.4314 Q1123.89 61.1119 1123.89 50.3365 Q1123.89 39.1965 1129.89 32.6746 Q1135.92 26.1121 1146.13 26.1121 Q1155.29 26.1121 1160.59 32.0264 Q1165.94 37.9003 1165.94 48.0275 M1158.49 45.84 Q1158.41 39.7232 1155.04 36.0774 Q1151.72 32.4315 1146.21 32.4315 Q1139.97 32.4315 1136.21 35.9558 Q1132.48 39.4801 1131.91 45.8805 L1158.49 45.84 Z" fill="#000000" fill-rule="nonzero" fill-opacity="1" /><path clip-path="url(#clip940)" d="M1215.89 45.1919 L1215.89 72.576 L1208.43 72.576 L1208.43 45.4349 Q1208.43 38.994 1205.92 35.7938 Q1203.41 32.5936 1198.39 32.5936 Q1192.35 32.5936 1188.87 36.4419 Q1185.39 40.2903 1185.39 46.9338 L1185.39 72.576 L1177.89 72.576 L1177.89 27.2059 L1185.39 27.2059 L1185.39 34.2544 Q1188.06 30.163 1191.66 28.1376 Q1195.31 26.1121 1200.05 26.1121 Q1207.87 26.1121 1211.88 30.9732 Q1215.89 35.7938 1215.89 45.1919 Z" fill="#000000" fill-rule="nonzero" fill-opacity="1" /><path clip-path="url(#clip940)" d="M1238.13 14.324 L1238.13 27.2059 L1253.48 27.2059 L1253.48 32.9987 L1238.13 32.9987 L1238.13 57.6282 Q1238.13 63.1779 1239.63 64.7578 Q1241.17 66.3376 1245.82 66.3376 L1253.48 66.3376 L1253.48 72.576 L1245.82 72.576 Q1237.2 72.576 1233.92 69.3758 Q1230.63 66.1351 1230.63 57.6282 L1230.63 32.9987 L1225.17 32.9987 L1225.17 27.2059 L1230.63 27.2059 L1230.63 14.324 L1238.13 14.324 Z" fill="#000000" fill-rule="nonzero" fill-opacity="1" /><path clip-path="url(#clip940)" d="M1324.98 35.9153 Q1327.77 30.8922 1331.66 28.5022 Q1335.55 26.1121 1340.82 26.1121 Q1347.91 26.1121 1351.76 31.0947 Q1355.6 36.0368 1355.6 45.1919 L1355.6 72.576 L1348.11 72.576 L1348.11 45.4349 Q1348.11 38.913 1345.8 35.7533 Q1343.49 32.5936 1338.75 32.5936 Q1332.96 32.5936 1329.6 36.4419 Q1326.24 40.2903 1326.24 46.9338 L1326.24 72.576 L1318.74 72.576 L1318.74 45.4349 Q1318.74 38.8725 1316.43 35.7533 Q1314.12 32.5936 1309.3 32.5936 Q1303.59 32.5936 1300.23 36.4824 Q1296.87 40.3308 1296.87 46.9338 L1296.87 72.576 L1289.37 72.576 L1289.37 27.2059 L1296.87 27.2059 L1296.87 34.2544 Q1299.42 30.082 1302.98 28.0971 Q1306.55 26.1121 1311.45 26.1121 Q1316.39 26.1121 1319.83 28.6237 Q1323.32 31.1352 1324.98 35.9153 Z" fill="#000000" fill-rule="nonzero" fill-opacity="1" /><path clip-path="url(#clip940)" d="M1391.09 49.7694 Q1382.06 49.7694 1378.57 51.8354 Q1375.09 53.9013 1375.09 58.8839 Q1375.09 62.8538 1377.68 65.2034 Q1380.31 67.5124 1384.81 67.5124 Q1391.01 67.5124 1394.74 63.1374 Q1398.5 58.7219 1398.5 51.4303 L1398.5 49.7694 L1391.09 49.7694 M1405.96 46.6907 L1405.96 72.576 L1398.5 72.576 L1398.5 65.6895 Q1395.95 69.8214 1392.14 71.8063 Q1388.34 73.7508 1382.83 73.7508 Q1375.86 73.7508 1371.73 69.8619 Q1367.64 65.9325 1367.64 59.3701 Q1367.64 51.7138 1372.74 47.825 Q1377.88 43.9361 1388.05 43.9361 L1398.5 43.9361 L1398.5 43.2069 Q1398.5 38.0623 1395.1 35.2672 Q1391.74 32.4315 1385.62 32.4315 Q1381.73 32.4315 1378.05 33.3632 Q1374.36 34.295 1370.96 36.1584 L1370.96 29.2718 Q1375.05 27.692 1378.9 26.9223 Q1382.75 26.1121 1386.39 26.1121 Q1396.23 26.1121 1401.1 31.2163 Q1405.96 36.3204 1405.96 46.6907 Z" fill="#000000" fill-rule="nonzero" fill-opacity="1" /><path clip-path="url(#clip940)" d="M1428.68 14.324 L1428.68 27.2059 L1444.04 27.2059 L1444.04 32.9987 L1428.68 32.9987 L1428.68 57.6282 Q1428.68 63.1779 1430.18 64.7578 Q1431.72 66.3376 1436.38 66.3376 L1444.04 66.3376 L1444.04 72.576 L1436.38 72.576 Q1427.75 72.576 1424.47 69.3758 Q1421.19 66.1351 1421.19 57.6282 L1421.19 32.9987 L1415.72 32.9987 L1415.72 27.2059 L1421.19 27.2059 L1421.19 14.324 L1428.68 14.324 Z" fill="#000000" fill-rule="nonzero" fill-opacity="1" /><path clip-path="url(#clip940)" d="M1486.49 28.9478 L1486.49 35.9153 Q1483.33 34.1734 1480.13 33.3227 Q1476.97 32.4315 1473.73 32.4315 Q1466.48 32.4315 1462.47 37.0496 Q1458.46 41.6271 1458.46 49.9314 Q1458.46 58.2358 1462.47 62.8538 Q1466.48 67.4314 1473.73 67.4314 Q1476.97 67.4314 1480.13 66.5807 Q1483.33 65.6895 1486.49 63.9476 L1486.49 70.8341 Q1483.37 72.2924 1480.01 73.0216 Q1476.69 73.7508 1472.92 73.7508 Q1462.67 73.7508 1456.63 67.3098 Q1450.6 60.8689 1450.6 49.9314 Q1450.6 38.832 1456.67 32.472 Q1462.79 26.1121 1473.4 26.1121 Q1476.85 26.1121 1480.13 26.8413 Q1483.41 27.5299 1486.49 28.9478 Z" fill="#000000" fill-rule="nonzero" fill-opacity="1" /><path clip-path="url(#clip940)" d="M1537.17 45.1919 L1537.17 72.576 L1529.71 72.576 L1529.71 45.4349 Q1529.71 38.994 1527.2 35.7938 Q1524.69 32.5936 1519.67 32.5936 Q1513.63 32.5936 1510.15 36.4419 Q1506.66 40.2903 1506.66 46.9338 L1506.66 72.576 L1499.17 72.576 L1499.17 9.54393 L1506.66 9.54393 L1506.66 34.2544 Q1509.34 30.163 1512.94 28.1376 Q1516.59 26.1121 1521.33 26.1121 Q1529.15 26.1121 1533.16 30.9732 Q1537.17 35.7938 1537.17 45.1919 Z" fill="#000000" fill-rule="nonzero" fill-opacity="1" /><path clip-path="url(#clip940)" d="M1552.03 27.2059 L1559.49 27.2059 L1559.49 72.576 L1552.03 72.576 L1552.03 27.2059 M1552.03 9.54393 L1559.49 9.54393 L1559.49 18.9825 L1552.03 18.9825 L1552.03 9.54393 Z" fill="#000000" fill-rule="nonzero" fill-opacity="1" /><path clip-path="url(#clip940)" d="M1612.8 45.1919 L1612.8 72.576 L1605.34 72.576 L1605.34 45.4349 Q1605.34 38.994 1602.83 35.7938 Q1600.32 32.5936 1595.3 32.5936 Q1589.26 32.5936 1585.78 36.4419 Q1582.29 40.2903 1582.29 46.9338 L1582.29 72.576 L1574.8 72.576 L1574.8 27.2059 L1582.29 27.2059 L1582.29 34.2544 Q1584.97 30.163 1588.57 28.1376 Q1592.22 26.1121 1596.96 26.1121 Q1604.78 26.1121 1608.79 30.9732 Q1612.8 35.7938 1612.8 45.1919 Z" fill="#000000" fill-rule="nonzero" fill-opacity="1" /><path clip-path="url(#clip940)" d="M1657.52 49.3643 Q1657.52 41.2625 1654.16 36.8065 Q1650.83 32.3505 1644.8 32.3505 Q1638.8 32.3505 1635.44 36.8065 Q1632.12 41.2625 1632.12 49.3643 Q1632.12 57.4256 1635.44 61.8816 Q1638.8 66.3376 1644.8 66.3376 Q1650.83 66.3376 1654.16 61.8816 Q1657.52 57.4256 1657.52 49.3643 M1664.97 66.9452 Q1664.97 78.5308 1659.83 84.1616 Q1654.68 89.8329 1644.07 89.8329 Q1640.14 89.8329 1636.66 89.2252 Q1633.17 88.6581 1629.89 87.4428 L1629.89 80.1917 Q1633.17 81.9741 1636.37 82.8248 Q1639.57 83.6755 1642.89 83.6755 Q1650.23 83.6755 1653.87 79.8271 Q1657.52 76.0193 1657.52 68.282 L1657.52 64.5957 Q1655.21 68.6061 1651.6 70.5911 Q1648 72.576 1642.98 72.576 Q1634.63 72.576 1629.53 66.2161 Q1624.42 59.8562 1624.42 49.3643 Q1624.42 38.832 1629.53 32.472 Q1634.63 26.1121 1642.98 26.1121 Q1648 26.1121 1651.6 28.0971 Q1655.21 30.082 1657.52 34.0924 L1657.52 27.2059 L1664.97 27.2059 L1664.97 66.9452 Z" fill="#000000" fill-rule="nonzero" fill-opacity="1" /><path clip-path="url(#clip940)" d="M1701.35 27.2059 L1709.25 27.2059 L1723.43 65.2844 L1737.6 27.2059 L1745.5 27.2059 L1728.49 72.576 L1718.36 72.576 L1701.35 27.2059 Z" fill="#000000" fill-rule="nonzero" fill-opacity="1" /><path clip-path="url(#clip940)" d="M1784.72 28.5427 L1784.72 35.5912 Q1781.56 33.9709 1778.15 33.1607 Q1774.75 32.3505 1771.11 32.3505 Q1765.56 32.3505 1762.76 34.0519 Q1760.01 35.7533 1760.01 39.156 Q1760.01 41.7486 1761.99 43.2475 Q1763.98 44.7058 1769.97 46.0426 L1772.52 46.6097 Q1780.46 48.3111 1783.78 51.4303 Q1787.15 54.509 1787.15 60.0587 Q1787.15 66.3781 1782.12 70.0644 Q1777.14 73.7508 1768.39 73.7508 Q1764.75 73.7508 1760.78 73.0216 Q1756.85 72.3329 1752.47 70.9151 L1752.47 63.2184 Q1756.6 65.3654 1760.61 66.4591 Q1764.62 67.5124 1768.55 67.5124 Q1773.82 67.5124 1776.66 65.73 Q1779.49 63.9071 1779.49 60.6258 Q1779.49 57.5877 1777.42 55.9673 Q1775.4 54.3469 1768.47 52.8481 L1765.88 52.2405 Q1758.95 50.7821 1755.87 47.7845 Q1752.8 44.7463 1752.8 39.4801 Q1752.8 33.0797 1757.33 29.5959 Q1761.87 26.1121 1770.21 26.1121 Q1774.35 26.1121 1777.99 26.7198 Q1781.64 27.3274 1784.72 28.5427 Z" fill="#000000" fill-rule="nonzero" fill-opacity="1" /><path clip-path="url(#clip940)" d="M1825.39 27.2059 L1832.84 27.2059 L1832.84 72.576 L1825.39 72.576 L1825.39 27.2059 M1825.39 9.54393 L1832.84 9.54393 L1832.84 18.9825 L1825.39 18.9825 L1825.39 9.54393 Z" fill="#000000" fill-rule="nonzero" fill-opacity="1" /><path clip-path="url(#clip940)" d="M1886.15 45.1919 L1886.15 72.576 L1878.7 72.576 L1878.7 45.4349 Q1878.7 38.994 1876.19 35.7938 Q1873.67 32.5936 1868.65 32.5936 Q1862.62 32.5936 1859.13 36.4419 Q1855.65 40.2903 1855.65 46.9338 L1855.65 72.576 L1848.15 72.576 L1848.15 27.2059 L1855.65 27.2059 L1855.65 34.2544 Q1858.32 30.163 1861.93 28.1376 Q1865.57 26.1121 1870.31 26.1121 Q1878.13 26.1121 1882.14 30.9732 Q1886.15 35.7938 1886.15 45.1919 Z" fill="#000000" fill-rule="nonzero" fill-opacity="1" /><path clip-path="url(#clip940)" d="M1908.39 14.324 L1908.39 27.2059 L1923.74 27.2059 L1923.74 32.9987 L1908.39 32.9987 L1908.39 57.6282 Q1908.39 63.1779 1909.89 64.7578 Q1911.43 66.3376 1916.09 66.3376 L1923.74 66.3376 L1923.74 72.576 L1916.09 72.576 Q1907.46 72.576 1904.18 69.3758 Q1900.9 66.1351 1900.9 57.6282 L1900.9 32.9987 L1895.43 32.9987 L1895.43 27.2059 L1900.9 27.2059 L1900.9 14.324 L1908.39 14.324 Z" fill="#000000" fill-rule="nonzero" fill-opacity="1" /><path clip-path="url(#clip940)" d="M1972.35 48.0275 L1972.35 51.6733 L1938.08 51.6733 Q1938.57 59.3701 1942.7 63.421 Q1946.87 67.4314 1954.29 67.4314 Q1958.58 67.4314 1962.59 66.3781 Q1966.64 65.3249 1970.61 63.2184 L1970.61 70.267 Q1966.6 71.9684 1962.39 72.8596 Q1958.18 73.7508 1953.84 73.7508 Q1942.99 73.7508 1936.63 67.4314 Q1930.31 61.1119 1930.31 50.3365 Q1930.31 39.1965 1936.3 32.6746 Q1942.34 26.1121 1952.55 26.1121 Q1961.7 26.1121 1967.01 32.0264 Q1972.35 37.9003 1972.35 48.0275 M1964.9 45.84 Q1964.82 39.7232 1961.46 36.0774 Q1958.14 32.4315 1952.63 32.4315 Q1946.39 32.4315 1942.62 35.9558 Q1938.89 39.4801 1938.33 45.8805 L1964.9 45.84 Z" fill="#000000" fill-rule="nonzero" fill-opacity="1" /><path clip-path="url(#clip940)" d="M2014.44 49.3643 Q2014.44 41.2625 2011.08 36.8065 Q2007.76 32.3505 2001.72 32.3505 Q1995.73 32.3505 1992.37 36.8065 Q1989.04 41.2625 1989.04 49.3643 Q1989.04 57.4256 1992.37 61.8816 Q1995.73 66.3376 2001.72 66.3376 Q2007.76 66.3376 2011.08 61.8816 Q2014.44 57.4256 2014.44 49.3643 M2021.9 66.9452 Q2021.9 78.5308 2016.75 84.1616 Q2011.61 89.8329 2000.99 89.8329 Q1997.07 89.8329 1993.58 89.2252 Q1990.1 88.6581 1986.82 87.4428 L1986.82 80.1917 Q1990.1 81.9741 1993.3 82.8248 Q1996.5 83.6755 1999.82 83.6755 Q2007.15 83.6755 2010.8 79.8271 Q2014.44 76.0193 2014.44 68.282 L2014.44 64.5957 Q2012.13 68.6061 2008.53 70.5911 Q2004.92 72.576 1999.9 72.576 Q1991.56 72.576 1986.45 66.2161 Q1981.35 59.8562 1981.35 49.3643 Q1981.35 38.832 1986.45 32.472 Q1991.56 26.1121 1999.9 26.1121 Q2004.92 26.1121 2008.53 28.0971 Q2012.13 30.082 2014.44 34.0924 L2014.44 27.2059 L2021.9 27.2059 L2021.9 66.9452 Z" fill="#000000" fill-rule="nonzero" fill-opacity="1" /><path clip-path="url(#clip940)" d="M2063.54 34.1734 Q2062.28 33.4443 2060.79 33.1202 Q2059.33 32.7556 2057.55 32.7556 Q2051.23 32.7556 2047.82 36.8875 Q2044.46 40.9789 2044.46 48.6757 L2044.46 72.576 L2036.97 72.576 L2036.97 27.2059 L2044.46 27.2059 L2044.46 34.2544 Q2046.81 30.1225 2050.58 28.1376 Q2054.34 26.1121 2059.73 26.1121 Q2060.5 26.1121 2061.43 26.2337 Q2062.37 26.3147 2063.5 26.5172 L2063.54 34.1734 Z" fill="#000000" fill-rule="nonzero" fill-opacity="1" /><path clip-path="url(#clip940)" d="M2091.98 49.7694 Q2082.94 49.7694 2079.46 51.8354 Q2075.98 53.9013 2075.98 58.8839 Q2075.98 62.8538 2078.57 65.2034 Q2081.2 67.5124 2085.7 67.5124 Q2091.9 67.5124 2095.62 63.1374 Q2099.39 58.7219 2099.39 51.4303 L2099.39 49.7694 L2091.98 49.7694 M2106.84 46.6907 L2106.84 72.576 L2099.39 72.576 L2099.39 65.6895 Q2096.84 69.8214 2093.03 71.8063 Q2089.22 73.7508 2083.71 73.7508 Q2076.75 73.7508 2072.61 69.8619 Q2068.52 65.9325 2068.52 59.3701 Q2068.52 51.7138 2073.63 47.825 Q2078.77 43.9361 2088.94 43.9361 L2099.39 43.9361 L2099.39 43.2069 Q2099.39 38.0623 2095.99 35.2672 Q2092.63 32.4315 2086.51 32.4315 Q2082.62 32.4315 2078.93 33.3632 Q2075.25 34.295 2071.84 36.1584 L2071.84 29.2718 Q2075.94 27.692 2079.78 26.9223 Q2083.63 26.1121 2087.28 26.1121 Q2097.12 26.1121 2101.98 31.2163 Q2106.84 36.3204 2106.84 46.6907 Z" fill="#000000" fill-rule="nonzero" fill-opacity="1" /><path clip-path="url(#clip940)" d="M2129.57 14.324 L2129.57 27.2059 L2144.92 27.2059 L2144.92 32.9987 L2129.57 32.9987 L2129.57 57.6282 Q2129.57 63.1779 2131.07 64.7578 Q2132.61 66.3376 2137.27 66.3376 L2144.92 66.3376 L2144.92 72.576 L2137.27 72.576 Q2128.64 72.576 2125.36 69.3758 Q2122.08 66.1351 2122.08 57.6282 L2122.08 32.9987 L2116.61 32.9987 L2116.61 27.2059 L2122.08 27.2059 L2122.08 14.324 L2129.57 14.324 Z" fill="#000000" fill-rule="nonzero" fill-opacity="1" /><path clip-path="url(#clip940)" d="M2154.73 27.2059 L2162.18 27.2059 L2162.18 72.576 L2154.73 72.576 L2154.73 27.2059 M2154.73 9.54393 L2162.18 9.54393 L2162.18 18.9825 L2154.73 18.9825 L2154.73 9.54393 Z" fill="#000000" fill-rule="nonzero" fill-opacity="1" /><path clip-path="url(#clip940)" d="M2195.36 32.4315 Q2189.36 32.4315 2185.88 37.1306 Q2182.39 41.7891 2182.39 49.9314 Q2182.39 58.0738 2185.84 62.7728 Q2189.32 67.4314 2195.36 67.4314 Q2201.31 67.4314 2204.8 62.7323 Q2208.28 58.0333 2208.28 49.9314 Q2208.28 41.8701 2204.8 37.1711 Q2201.31 32.4315 2195.36 32.4315 M2195.36 26.1121 Q2205.08 26.1121 2210.63 32.4315 Q2216.18 38.7509 2216.18 49.9314 Q2216.18 61.0714 2210.63 67.4314 Q2205.08 73.7508 2195.36 73.7508 Q2185.59 73.7508 2180.04 67.4314 Q2174.54 61.0714 2174.54 49.9314 Q2174.54 38.7509 2180.04 32.4315 Q2185.59 26.1121 2195.36 26.1121 Z" fill="#000000" fill-rule="nonzero" fill-opacity="1" /><path clip-path="url(#clip940)" d="M2266.25 45.1919 L2266.25 72.576 L2258.79 72.576 L2258.79 45.4349 Q2258.79 38.994 2256.28 35.7938 Q2253.77 32.5936 2248.75 32.5936 Q2242.71 32.5936 2239.23 36.4419 Q2235.74 40.2903 2235.74 46.9338 L2235.74 72.576 L2228.25 72.576 L2228.25 27.2059 L2235.74 27.2059 L2235.74 34.2544 Q2238.42 30.163 2242.02 28.1376 Q2245.67 26.1121 2250.41 26.1121 Q2258.23 26.1121 2262.24 30.9732 Q2266.25 35.7938 2266.25 45.1919 Z" fill="#000000" fill-rule="nonzero" fill-opacity="1" /><path clip-path="url(#clip940)" d="M2277.35 46.5287 L2299.18 46.5287 L2299.18 53.1722 L2277.35 53.1722 L2277.35 46.5287 Z" fill="#000000" fill-rule="nonzero" fill-opacity="1" /><path clip-path="url(#clip940)" d="M2343.62 49.9314 Q2343.62 41.7081 2340.22 37.0496 Q2336.85 32.3505 2330.94 32.3505 Q2325.03 32.3505 2321.62 37.0496 Q2318.26 41.7081 2318.26 49.9314 Q2318.26 58.1548 2321.62 62.8538 Q2325.03 67.5124 2330.94 67.5124 Q2336.85 67.5124 2340.22 62.8538 Q2343.62 58.1548 2343.62 49.9314 M2318.26 34.0924 Q2320.61 30.0415 2324.18 28.0971 Q2327.78 26.1121 2332.76 26.1121 Q2341.03 26.1121 2346.17 32.6746 Q2351.36 39.2371 2351.36 49.9314 Q2351.36 60.6258 2346.17 67.1883 Q2341.03 73.7508 2332.76 73.7508 Q2327.78 73.7508 2324.18 71.8063 Q2320.61 69.8214 2318.26 65.7705 L2318.26 72.576 L2310.77 72.576 L2310.77 9.54393 L2318.26 9.54393 L2318.26 34.0924 Z" fill="#000000" fill-rule="nonzero" fill-opacity="1" /><path clip-path="url(#clip940)" d="M2384.33 49.7694 Q2375.3 49.7694 2371.81 51.8354 Q2368.33 53.9013 2368.33 58.8839 Q2368.33 62.8538 2370.92 65.2034 Q2373.56 67.5124 2378.05 67.5124 Q2384.25 67.5124 2387.98 63.1374 Q2391.74 58.7219 2391.74 51.4303 L2391.74 49.7694 L2384.33 49.7694 M2399.2 46.6907 L2399.2 72.576 L2391.74 72.576 L2391.74 65.6895 Q2389.19 69.8214 2385.38 71.8063 Q2381.58 73.7508 2376.07 73.7508 Q2369.1 73.7508 2364.97 69.8619 Q2360.88 65.9325 2360.88 59.3701 Q2360.88 51.7138 2365.98 47.825 Q2371.13 43.9361 2381.29 43.9361 L2391.74 43.9361 L2391.74 43.2069 Q2391.74 38.0623 2388.34 35.2672 Q2384.98 32.4315 2378.86 32.4315 Q2374.97 32.4315 2371.29 33.3632 Q2367.6 34.295 2364.2 36.1584 L2364.2 29.2718 Q2368.29 27.692 2372.14 26.9223 Q2375.99 26.1121 2379.63 26.1121 Q2389.48 26.1121 2394.34 31.2163 Q2399.2 36.3204 2399.2 46.6907 Z" fill="#000000" fill-rule="nonzero" fill-opacity="1" /><path clip-path="url(#clip940)" d="M2443.47 28.5427 L2443.47 35.5912 Q2440.31 33.9709 2436.91 33.1607 Q2433.51 32.3505 2429.86 32.3505 Q2424.31 32.3505 2421.52 34.0519 Q2418.76 35.7533 2418.76 39.156 Q2418.76 41.7486 2420.75 43.2475 Q2422.73 44.7058 2428.73 46.0426 L2431.28 46.6097 Q2439.22 48.3111 2442.54 51.4303 Q2445.91 54.509 2445.91 60.0587 Q2445.91 66.3781 2440.88 70.0644 Q2435.9 73.7508 2427.15 73.7508 Q2423.5 73.7508 2419.53 73.0216 Q2415.6 72.3329 2411.23 70.9151 L2411.23 63.2184 Q2415.36 65.3654 2419.37 66.4591 Q2423.38 67.5124 2427.31 67.5124 Q2432.58 67.5124 2435.41 65.73 Q2438.25 63.9071 2438.25 60.6258 Q2438.25 57.5877 2436.18 55.9673 Q2434.16 54.3469 2427.23 52.8481 L2424.64 52.2405 Q2417.71 50.7821 2414.63 47.7845 Q2411.55 44.7463 2411.55 39.4801 Q2411.55 33.0797 2416.09 29.5959 Q2420.63 26.1121 2428.97 26.1121 Q2433.1 26.1121 2436.75 26.7198 Q2440.4 27.3274 2443.47 28.5427 Z" fill="#000000" fill-rule="nonzero" fill-opacity="1" /><path clip-path="url(#clip940)" d="M2496.58 48.0275 L2496.58 51.6733 L2462.31 51.6733 Q2462.8 59.3701 2466.93 63.421 Q2471.1 67.4314 2478.51 67.4314 Q2482.81 67.4314 2486.82 66.3781 Q2490.87 65.3249 2494.84 63.2184 L2494.84 70.267 Q2490.83 71.9684 2486.62 72.8596 Q2482.4 73.7508 2478.07 73.7508 Q2467.21 73.7508 2460.85 67.4314 Q2454.53 61.1119 2454.53 50.3365 Q2454.53 39.1965 2460.53 32.6746 Q2466.56 26.1121 2476.77 26.1121 Q2485.93 26.1121 2491.23 32.0264 Q2496.58 37.9003 2496.58 48.0275 M2489.13 45.84 Q2489.05 39.7232 2485.69 36.0774 Q2482.36 32.4315 2476.85 32.4315 Q2470.62 32.4315 2466.85 35.9558 Q2463.12 39.4801 2462.55 45.8805 L2489.13 45.84 Z" fill="#000000" fill-rule="nonzero" fill-opacity="1" /><path clip-path="url(#clip940)" d="M2538.67 34.0924 L2538.67 9.54393 L2546.12 9.54393 L2546.12 72.576 L2538.67 72.576 L2538.67 65.7705 Q2536.32 69.8214 2532.72 71.8063 Q2529.15 73.7508 2524.13 73.7508 Q2515.9 73.7508 2510.72 67.1883 Q2505.58 60.6258 2505.58 49.9314 Q2505.58 39.2371 2510.72 32.6746 Q2515.9 26.1121 2524.13 26.1121 Q2529.15 26.1121 2532.72 28.0971 Q2536.32 30.0415 2538.67 34.0924 M2513.27 49.9314 Q2513.27 58.1548 2516.63 62.8538 Q2520.04 67.5124 2525.95 67.5124 Q2531.87 67.5124 2535.27 62.8538 Q2538.67 58.1548 2538.67 49.9314 Q2538.67 41.7081 2535.27 37.0496 Q2531.87 32.3505 2525.95 32.3505 Q2520.04 32.3505 2516.63 37.0496 Q2513.27 41.7081 2513.27 49.9314 Z" fill="#000000" fill-rule="nonzero" fill-opacity="1" /><polyline clip-path="url(#clip941)" style="stroke:#000000; stroke-linecap:round; stroke-linejoin:round; stroke-width:12; stroke-opacity:1; fill:none" stroke-dasharray="48, 30" points="316.117,183.554 338.914,183.646 361.711,183.737 384.509,183.828 407.306,183.919 430.103,184.009 452.901,184.099 475.698,184.189 498.495,184.278 521.292,184.367 544.09,184.456 566.887,184.544 589.684,184.632 612.482,184.72 635.279,184.807 658.076,184.894 680.873,184.981 703.671,185.068 726.468,185.154 749.265,185.24 772.063,185.325 794.86,185.41 817.657,185.495 840.454,185.58 863.252,185.664 886.049,185.748 908.846,185.832 931.644,185.915 954.441,185.998 977.238,186.081 1000.04,186.164 1022.83,186.246 1045.63,186.328 1068.43,186.409 1091.22,186.491 1114.02,186.572 1136.82,186.652 1159.62,186.733 1182.41,186.813 1205.21,186.893 1228.01,186.972 1250.81,187.051 1273.6,187.13 1296.4,187.209 1319.2,187.287 1341.99,187.365 1364.79,187.443 1387.59,187.521 1410.39,187.598 1433.18,187.675 1455.98,187.752 1478.78,187.828 1501.58,187.904 1524.37,187.98 1547.17,188.056 1569.97,188.131 1592.76,188.206 1615.56,188.281 1638.36,188.355 1661.16,188.43 1683.95,188.503 1706.75,188.577 1729.55,188.651 1752.35,188.724 1775.14,188.797 1797.94,188.869 1820.74,188.942 1843.53,189.014 1866.33,189.086 1889.13,189.157 1911.93,189.228 1934.72,189.299 1957.52,189.37 1980.32,189.441 2003.12,189.511 2025.91,189.581 2048.71,189.651 2071.51,189.72 2094.31,189.79 2117.1,189.859 2139.9,189.927 2162.7,189.996 2185.49,190.064 2208.29,190.132 2231.09,190.2 2253.89,190.268 2276.68,190.335 2299.48,190.402 2322.28,190.469 2345.08,190.535 2367.87,190.602 2390.67,190.668 2413.47,190.733 2436.26,190.799 2459.06,190.864 2481.86,190.929 2504.66,190.994 2527.45,191.059 2550.25,191.123 2573.05,191.188 "/>
<polyline clip-path="url(#clip941)" style="stroke:#0000ff; stroke-linecap:round; stroke-linejoin:round; stroke-width:8; stroke-opacity:1; fill:none" points="316.117,173.254 338.914,174.249 361.711,175.241 384.509,176.227 407.306,177.202 430.103,178.164 452.901,179.11 475.698,180.036 498.495,180.939 521.292,181.815 544.09,182.662 566.887,183.476 589.684,184.253 612.482,184.991 635.279,185.686 658.076,186.334 680.873,186.933 703.671,187.479 726.468,187.97 749.265,188.403 772.063,188.783 794.86,189.113 817.657,189.398 840.454,189.641 863.252,189.846 886.049,190.017 908.846,190.157 931.644,190.27 954.441,190.361 977.238,190.433 1000.04,190.489 1022.83,190.534 1045.63,190.572 1068.43,190.605 1091.22,190.639 1114.02,190.677 1136.82,190.722 1159.62,190.776 1182.41,190.837 1205.21,190.906 1228.01,190.981 1250.81,191.062 1273.6,191.147 1296.4,191.237 1319.2,191.33 1341.99,191.425 1364.79,191.523 1387.59,191.621 1410.39,191.721 1433.18,191.819 1455.98,191.917 1478.78,192.013 1501.58,192.107 1524.37,192.197 1547.17,192.283 1569.97,192.366 1592.76,192.445 1615.56,192.521 1638.36,192.594 1661.16,192.665 1683.95,192.733 1706.75,192.8 1729.55,192.865 1752.35,192.929 1775.14,192.992 1797.94,193.054 1820.74,193.116 1843.53,193.178 1866.33,193.24 1889.13,193.303 1911.93,193.367 1934.72,193.432 1957.52,193.498 1980.32,193.566 2003.12,193.635 2025.91,193.705 2048.71,193.776 2071.51,193.849 2094.31,193.922 2117.1,193.997 2139.9,194.072 2162.7,194.148 2185.49,194.225 2208.29,194.302 2231.09,194.38 2253.89,194.459 2276.68,194.538 2299.48,194.618 2322.28,194.697 2345.08,194.777 2367.87,194.858 2390.67,194.938 2413.47,195.019 2436.26,195.099 2459.06,195.179 2481.86,195.26 2504.66,195.34 2527.45,195.419 2550.25,195.499 2573.05,195.577 "/>
<polyline clip-path="url(#clip941)" style="stroke:#ff0000; stroke-linecap:round; stroke-linejoin:round; stroke-width:8; stroke-opacity:1; fill:none" points="316.117,187.729 338.914,187.812 361.711,187.896 384.509,187.98 407.306,188.064 430.103,188.148 452.901,188.231 475.698,188.315 498.495,188.399 521.292,188.483 544.09,188.567 566.887,188.65 589.684,188.734 612.482,188.818 635.279,188.902 658.076,188.986 680.873,189.069 703.671,189.153 726.468,189.237 749.265,189.321 772.063,189.405 794.86,189.488 817.657,189.572 840.454,189.656 863.252,189.74 886.049,189.823 908.846,189.907 931.644,189.991 954.441,190.074 977.238,190.158 1000.04,190.241 1022.83,190.325 1045.63,190.408 1068.43,190.491 1091.22,190.574 1114.02,190.658 1136.82,190.741 1159.62,190.823 1182.41,190.906 1205.21,190.989 1228.01,191.072 1250.81,191.154 1273.6,191.237 1296.4,191.319 1319.2,191.401 1341.99,191.483 1364.79,191.565 1387.59,191.647 1410.39,191.728 1433.18,191.81 1455.98,191.891 1478.78,191.972 1501.58,192.053 1524.37,192.134 1547.17,192.214 1569.97,192.295 1592.76,192.375 1615.56,192.455 1638.36,192.535 1661.16,192.614 1683.95,192.694 1706.75,192.773 1729.55,192.852 1752.35,192.931 1775.14,193.01 1797.94,193.088 1820.74,193.167 1843.53,193.245 1866.33,193.323 1889.13,193.4 1911.93,193.478 1934.72,193.555 1957.52,193.632 1980.32,193.709 2003.12,193.786 2025.91,193.862 2048.71,193.938 2071.51,194.015 2094.31,194.09 2117.1,194.166 2139.9,194.242 2162.7,194.317 2185.49,194.392 2208.29,194.467 2231.09,194.542 2253.89,194.616 2276.68,194.691 2299.48,194.765 2322.28,194.839 2345.08,194.913 2367.87,194.987 2390.67,195.061 2413.47,195.135 2436.26,195.208 2459.06,195.281 2481.86,195.355 2504.66,195.428 2527.45,195.501 2550.25,195.574 2573.05,195.647 "/>
<polyline clip-path="url(#clip941)" style="stroke:#008000; stroke-linecap:round; stroke-linejoin:round; stroke-width:8; stroke-opacity:0.6; fill:none" points="316.117,181.773 338.914,181.95 361.711,182.128 384.509,182.306 407.306,182.485 430.103,182.663 452.901,182.843 475.698,183.023 498.495,183.204 521.292,183.385 544.09,183.568 566.887,183.752 589.684,183.937 612.482,184.124 635.279,184.312 658.076,184.501 680.873,184.692 703.671,184.885 726.468,185.08 749.265,185.277 772.063,185.473 794.86,185.668 817.657,185.859 840.454,186.046 863.252,186.227 886.049,186.4 908.846,186.564 931.644,186.718 954.441,186.858 977.238,186.985 1000.04,187.097 1022.83,187.192 1045.63,187.268 1068.43,187.325 1091.22,187.36 1114.02,187.372 1136.82,187.359 1159.62,187.324 1182.41,187.271 1205.21,187.203 1228.01,187.125 1250.81,187.04 1273.6,186.953 1296.4,186.867 1319.2,186.787 1341.99,186.717 1364.79,186.66 1387.59,186.621 1410.39,186.603 1433.18,186.611 1455.98,186.649 1478.78,186.721 1501.58,186.83 1524.37,186.981 1547.17,187.176 1569.97,187.408 1592.76,187.668 1615.56,187.946 1638.36,188.233 1661.16,188.519 1683.95,188.797 1706.75,189.055 1729.55,189.286 1752.35,189.479 1775.14,189.626 1797.94,189.717 1820.74,189.742 1843.53,189.693 1866.33,189.561 1889.13,189.335 1911.93,189.007 1934.72,188.569 1957.52,188.189 1980.32,188.337 2003.12,189.519 2025.91,192.237 2048.71,196.995 2071.51,204.298 2094.31,214.647 2117.1,228.548 2139.9,246.504 2162.7,269.018 2185.49,296.595 2208.29,329.737 2231.09,368.948 2253.89,414.733 2276.68,467.594 2299.48,528.036 2322.28,596.561 2345.08,673.611 2367.87,758.699 2390.67,850.641 2413.47,948.234 2436.26,1050.28 2459.06,1155.57 2481.86,1262.9 2504.66,1371.08 2527.45,1478.9 2550.25,1585.16 2573.05,1688.65 "/>
<polyline clip-path="url(#clip941)" style="stroke:#800080; stroke-linecap:round; stroke-linejoin:round; stroke-width:8; stroke-opacity:0.6; fill:none" points="316.117,183.931 338.914,184.007 361.711,184.083 384.509,184.159 407.306,184.236 430.103,184.312 452.901,184.388 475.698,184.464 498.495,184.54 521.292,184.616 544.09,184.692 566.887,184.768 589.684,184.844 612.482,184.92 635.279,184.997 658.076,185.073 680.873,185.149 703.671,185.225 726.468,185.301 749.265,185.377 772.063,185.453 794.86,185.529 817.657,185.605 840.454,185.681 863.252,185.758 886.049,185.834 908.846,185.91 931.644,185.986 954.441,186.062 977.238,186.138 1000.04,186.214 1022.83,186.29 1045.63,186.366 1068.43,186.442 1091.22,186.519 1114.02,186.595 1136.82,186.671 1159.62,186.747 1182.41,186.823 1205.21,186.899 1228.01,186.975 1250.81,187.051 1273.6,187.127 1296.4,187.203 1319.2,187.28 1341.99,187.356 1364.79,187.432 1387.59,187.508 1410.39,187.584 1433.18,187.66 1455.98,187.736 1478.78,187.812 1501.58,187.888 1524.37,187.964 1547.17,188.041 1569.97,188.117 1592.76,188.193 1615.56,188.269 1638.36,188.345 1661.16,188.421 1683.95,188.497 1706.75,188.573 1729.55,188.649 1752.35,188.725 1775.14,188.802 1797.94,188.878 1820.74,188.954 1843.53,189.03 1866.33,189.106 1889.13,189.182 1911.93,189.258 1934.72,189.334 1957.52,189.41 1980.32,189.486 2003.12,189.562 2025.91,189.639 2048.71,189.715 2071.51,189.791 2094.31,189.867 2117.1,189.943 2139.9,190.019 2162.7,190.095 2185.49,190.171 2208.29,190.247 2231.09,190.323 2253.89,190.4 2276.68,190.476 2299.48,190.552 2322.28,190.628 2345.08,190.704 2367.87,190.78 2390.67,190.856 2413.47,190.932 2436.26,191.008 2459.06,191.084 2481.86,191.161 2504.66,191.237 2527.45,191.313 2550.25,191.389 2573.05,191.465 "/>
<path clip-path="url(#clip940)" d="M328.154 1680.57 L984.724 1680.57 L984.724 1369.53 L328.154 1369.53  Z" fill="#ffffff" fill-rule="evenodd" fill-opacity="1"/>
<polyline clip-path="url(#clip940)" style="stroke:#000000; stroke-linecap:round; stroke-linejoin:round; stroke-width:4; stroke-opacity:1; fill:none" points="328.154,1680.57 984.724,1680.57 984.724,1369.53 328.154,1369.53 328.154,1680.57 "/>
<polyline clip-path="url(#clip940)" style="stroke:#000000; stroke-linecap:round; stroke-linejoin:round; stroke-width:12; stroke-opacity:1; fill:none" stroke-dasharray="48, 30" points="354.735,1421.37 514.225,1421.37 "/>
<path clip-path="url(#clip940)" d="M540.807 1404.09 L570.043 1404.09 L570.043 1408.03 L557.774 1408.03 L557.774 1438.65 L553.075 1438.65 L553.075 1408.03 L540.807 1408.03 L540.807 1404.09 Z" fill="#000000" fill-rule="nonzero" fill-opacity="1" /><path clip-path="url(#clip940)" d="M582.427 1416.71 Q581.709 1416.29 580.853 1416.11 Q580.02 1415.9 579.001 1415.9 Q575.39 1415.9 573.446 1418.26 Q571.524 1420.6 571.524 1425 L571.524 1438.65 L567.242 1438.65 L567.242 1412.73 L571.524 1412.73 L571.524 1416.75 Q572.867 1414.39 575.02 1413.26 Q577.172 1412.1 580.251 1412.1 Q580.691 1412.1 581.223 1412.17 Q581.756 1412.22 582.404 1412.33 L582.427 1416.71 Z" fill="#000000" fill-rule="nonzero" fill-opacity="1" /><path clip-path="url(#clip940)" d="M586.455 1428.42 L586.455 1412.73 L590.714 1412.73 L590.714 1428.26 Q590.714 1431.94 592.149 1433.79 Q593.584 1435.62 596.455 1435.62 Q599.904 1435.62 601.895 1433.42 Q603.908 1431.22 603.908 1427.43 L603.908 1412.73 L608.168 1412.73 L608.168 1438.65 L603.908 1438.65 L603.908 1434.67 Q602.358 1437.03 600.297 1438.19 Q598.26 1439.32 595.552 1439.32 Q591.084 1439.32 588.77 1436.55 Q586.455 1433.77 586.455 1428.42 M597.172 1412.1 L597.172 1412.1 Z" fill="#000000" fill-rule="nonzero" fill-opacity="1" /><path clip-path="url(#clip940)" d="M639.117 1424.63 L639.117 1426.71 L619.533 1426.71 Q619.811 1431.11 622.172 1433.42 Q624.556 1435.71 628.793 1435.71 Q631.246 1435.71 633.538 1435.11 Q635.853 1434.51 638.121 1433.31 L638.121 1437.33 Q635.83 1438.31 633.422 1438.81 Q631.015 1439.32 628.538 1439.32 Q622.334 1439.32 618.7 1435.71 Q615.089 1432.1 615.089 1425.94 Q615.089 1419.58 618.515 1415.85 Q621.964 1412.1 627.797 1412.1 Q633.029 1412.1 636.061 1415.48 Q639.117 1418.84 639.117 1424.63 M634.857 1423.38 Q634.811 1419.88 632.89 1417.8 Q630.992 1415.71 627.843 1415.71 Q624.279 1415.71 622.126 1417.73 Q619.996 1419.74 619.672 1423.4 L634.857 1423.38 Z" fill="#000000" fill-rule="nonzero" fill-opacity="1" /><polyline clip-path="url(#clip940)" style="stroke:#0000ff; stroke-linecap:round; stroke-linejoin:round; stroke-width:8; stroke-opacity:1; fill:none" points="354.735,1473.21 514.225,1473.21 "/>
<path clip-path="url(#clip940)" d="M566.362 1485.56 L566.362 1476.28 L558.723 1476.28 L558.723 1472.44 L570.992 1472.44 L570.992 1487.28 Q568.284 1489.2 565.02 1490.19 Q561.756 1491.16 558.052 1491.16 Q549.95 1491.16 545.367 1486.44 Q540.807 1481.7 540.807 1473.25 Q540.807 1464.78 545.367 1460.05 Q549.95 1455.31 558.052 1455.31 Q561.432 1455.31 564.464 1456.14 Q567.52 1456.97 570.089 1458.59 L570.089 1463.57 Q567.497 1461.37 564.58 1460.26 Q561.663 1459.15 558.446 1459.15 Q552.103 1459.15 548.909 1462.69 Q545.737 1466.23 545.737 1473.25 Q545.737 1480.24 548.909 1483.78 Q552.103 1487.32 558.446 1487.32 Q560.923 1487.32 562.867 1486.9 Q564.811 1486.47 566.362 1485.56 Z" fill="#000000" fill-rule="nonzero" fill-opacity="1" /><path clip-path="url(#clip940)" d="M594.371 1468.55 Q593.654 1468.13 592.797 1467.95 Q591.964 1467.74 590.946 1467.74 Q587.334 1467.74 585.39 1470.1 Q583.469 1472.44 583.469 1476.84 L583.469 1490.49 L579.186 1490.49 L579.186 1464.57 L583.469 1464.57 L583.469 1468.59 Q584.811 1466.23 586.964 1465.1 Q589.117 1463.94 592.196 1463.94 Q592.635 1463.94 593.168 1464.01 Q593.7 1464.06 594.348 1464.17 L594.371 1468.55 Z" fill="#000000" fill-rule="nonzero" fill-opacity="1" /><path clip-path="url(#clip940)" d="M610.621 1477.46 Q605.459 1477.46 603.469 1478.64 Q601.478 1479.82 601.478 1482.67 Q601.478 1484.94 602.959 1486.28 Q604.464 1487.6 607.033 1487.6 Q610.575 1487.6 612.705 1485.1 Q614.857 1482.58 614.857 1478.41 L614.857 1477.46 L610.621 1477.46 M619.117 1475.7 L619.117 1490.49 L614.857 1490.49 L614.857 1486.56 Q613.399 1488.92 611.223 1490.05 Q609.047 1491.16 605.899 1491.16 Q601.918 1491.16 599.557 1488.94 Q597.219 1486.7 597.219 1482.95 Q597.219 1478.57 600.135 1476.35 Q603.075 1474.13 608.885 1474.13 L614.857 1474.13 L614.857 1473.71 Q614.857 1470.77 612.913 1469.17 Q610.992 1467.55 607.496 1467.55 Q605.274 1467.55 603.168 1468.09 Q601.061 1468.62 599.117 1469.68 L599.117 1465.75 Q601.455 1464.84 603.654 1464.41 Q605.853 1463.94 607.936 1463.94 Q613.561 1463.94 616.339 1466.86 Q619.117 1469.78 619.117 1475.7 Z" fill="#000000" fill-rule="nonzero" fill-opacity="1" /><path clip-path="url(#clip940)" d="M644.95 1468.5 L644.95 1454.47 L649.209 1454.47 L649.209 1490.49 L644.95 1490.49 L644.95 1486.6 Q643.607 1488.92 641.547 1490.05 Q639.51 1491.16 636.64 1491.16 Q631.941 1491.16 628.978 1487.41 Q626.038 1483.66 626.038 1477.55 Q626.038 1471.44 628.978 1467.69 Q631.941 1463.94 636.64 1463.94 Q639.51 1463.94 641.547 1465.08 Q643.607 1466.19 644.95 1468.5 M630.436 1477.55 Q630.436 1482.25 632.357 1484.94 Q634.302 1487.6 637.681 1487.6 Q641.061 1487.6 643.005 1484.94 Q644.95 1482.25 644.95 1477.55 Q644.95 1472.85 643.005 1470.19 Q641.061 1467.51 637.681 1467.51 Q634.302 1467.51 632.357 1470.19 Q630.436 1472.85 630.436 1477.55 Z" fill="#000000" fill-rule="nonzero" fill-opacity="1" /><path clip-path="url(#clip940)" d="M657.982 1464.57 L662.241 1464.57 L662.241 1490.49 L657.982 1490.49 L657.982 1464.57 M657.982 1454.47 L662.241 1454.47 L662.241 1459.87 L657.982 1459.87 L657.982 1454.47 Z" fill="#000000" fill-rule="nonzero" fill-opacity="1" /><path clip-path="url(#clip940)" d="M693.329 1476.47 L693.329 1478.55 L673.746 1478.55 Q674.024 1482.95 676.385 1485.26 Q678.769 1487.55 683.005 1487.55 Q685.459 1487.55 687.751 1486.95 Q690.065 1486.35 692.334 1485.15 L692.334 1489.17 Q690.042 1490.15 687.635 1490.65 Q685.227 1491.16 682.751 1491.16 Q676.547 1491.16 672.913 1487.55 Q669.302 1483.94 669.302 1477.78 Q669.302 1471.42 672.728 1467.69 Q676.177 1463.94 682.01 1463.94 Q687.241 1463.94 690.274 1467.32 Q693.329 1470.68 693.329 1476.47 M689.07 1475.22 Q689.024 1471.72 687.102 1469.64 Q685.204 1467.55 682.056 1467.55 Q678.491 1467.55 676.339 1469.57 Q674.209 1471.58 673.885 1475.24 L689.07 1475.22 Z" fill="#000000" fill-rule="nonzero" fill-opacity="1" /><path clip-path="url(#clip940)" d="M721.871 1474.84 L721.871 1490.49 L717.612 1490.49 L717.612 1474.98 Q717.612 1471.3 716.176 1469.47 Q714.741 1467.65 711.871 1467.65 Q708.422 1467.65 706.431 1469.84 Q704.44 1472.04 704.44 1475.84 L704.44 1490.49 L700.158 1490.49 L700.158 1464.57 L704.44 1464.57 L704.44 1468.59 Q705.968 1466.26 708.028 1465.1 Q710.112 1463.94 712.82 1463.94 Q717.287 1463.94 719.579 1466.72 Q721.871 1469.47 721.871 1474.84 Z" fill="#000000" fill-rule="nonzero" fill-opacity="1" /><path clip-path="url(#clip940)" d="M734.579 1457.21 L734.579 1464.57 L743.352 1464.57 L743.352 1467.88 L734.579 1467.88 L734.579 1481.95 Q734.579 1485.12 735.435 1486.03 Q736.315 1486.93 738.977 1486.93 L743.352 1486.93 L743.352 1490.49 L738.977 1490.49 Q734.047 1490.49 732.172 1488.66 Q730.297 1486.81 730.297 1481.95 L730.297 1467.88 L727.172 1467.88 L727.172 1464.57 L730.297 1464.57 L730.297 1457.21 L734.579 1457.21 Z" fill="#000000" fill-rule="nonzero" fill-opacity="1" /><path clip-path="url(#clip940)" d="M749.139 1455.93 L756.107 1455.93 L764.926 1479.45 L773.792 1455.93 L780.759 1455.93 L780.759 1490.49 L776.199 1490.49 L776.199 1460.15 L767.287 1483.85 L762.588 1483.85 L753.676 1460.15 L753.676 1490.49 L749.139 1490.49 L749.139 1455.93 Z" fill="#000000" fill-rule="nonzero" fill-opacity="1" /><path clip-path="url(#clip940)" d="M801.639 1477.46 Q796.477 1477.46 794.486 1478.64 Q792.495 1479.82 792.495 1482.67 Q792.495 1484.94 793.977 1486.28 Q795.481 1487.6 798.051 1487.6 Q801.593 1487.6 803.722 1485.1 Q805.875 1482.58 805.875 1478.41 L805.875 1477.46 L801.639 1477.46 M810.134 1475.7 L810.134 1490.49 L805.875 1490.49 L805.875 1486.56 Q804.417 1488.92 802.241 1490.05 Q800.065 1491.16 796.917 1491.16 Q792.935 1491.16 790.574 1488.94 Q788.236 1486.7 788.236 1482.95 Q788.236 1478.57 791.153 1476.35 Q794.093 1474.13 799.903 1474.13 L805.875 1474.13 L805.875 1473.71 Q805.875 1470.77 803.931 1469.17 Q802.009 1467.55 798.514 1467.55 Q796.292 1467.55 794.185 1468.09 Q792.079 1468.62 790.134 1469.68 L790.134 1465.75 Q792.472 1464.84 794.671 1464.41 Q796.87 1463.94 798.954 1463.94 Q804.579 1463.94 807.356 1466.86 Q810.134 1469.78 810.134 1475.7 Z" fill="#000000" fill-rule="nonzero" fill-opacity="1" /><path clip-path="url(#clip940)" d="M823.12 1457.21 L823.12 1464.57 L831.893 1464.57 L831.893 1467.88 L823.12 1467.88 L823.12 1481.95 Q823.12 1485.12 823.977 1486.03 Q824.856 1486.93 827.518 1486.93 L831.893 1486.93 L831.893 1490.49 L827.518 1490.49 Q822.588 1490.49 820.713 1488.66 Q818.838 1486.81 818.838 1481.95 L818.838 1467.88 L815.713 1467.88 L815.713 1464.57 L818.838 1464.57 L818.838 1457.21 L823.12 1457.21 Z" fill="#000000" fill-rule="nonzero" fill-opacity="1" /><path clip-path="url(#clip940)" d="M856.152 1465.56 L856.152 1469.54 Q854.347 1468.55 852.518 1468.06 Q850.713 1467.55 848.861 1467.55 Q844.717 1467.55 842.426 1470.19 Q840.134 1472.81 840.134 1477.55 Q840.134 1482.3 842.426 1484.94 Q844.717 1487.55 848.861 1487.55 Q850.713 1487.55 852.518 1487.07 Q854.347 1486.56 856.152 1485.56 L856.152 1489.5 Q854.37 1490.33 852.449 1490.75 Q850.551 1491.16 848.398 1491.16 Q842.541 1491.16 839.092 1487.48 Q835.643 1483.8 835.643 1477.55 Q835.643 1471.21 839.115 1467.58 Q842.611 1463.94 848.676 1463.94 Q850.643 1463.94 852.518 1464.36 Q854.393 1464.75 856.152 1465.56 Z" fill="#000000" fill-rule="nonzero" fill-opacity="1" /><path clip-path="url(#clip940)" d="M885.111 1474.84 L885.111 1490.49 L880.851 1490.49 L880.851 1474.98 Q880.851 1471.3 879.416 1469.47 Q877.981 1467.65 875.111 1467.65 Q871.662 1467.65 869.671 1469.84 Q867.68 1472.04 867.68 1475.84 L867.68 1490.49 L863.398 1490.49 L863.398 1454.47 L867.68 1454.47 L867.68 1468.59 Q869.208 1466.26 871.268 1465.1 Q873.351 1463.94 876.06 1463.94 Q880.527 1463.94 882.819 1466.72 Q885.111 1469.47 885.111 1474.84 Z" fill="#000000" fill-rule="nonzero" fill-opacity="1" /><path clip-path="url(#clip940)" d="M893.606 1464.57 L897.865 1464.57 L897.865 1490.49 L893.606 1490.49 L893.606 1464.57 M893.606 1454.47 L897.865 1454.47 L897.865 1459.87 L893.606 1459.87 L893.606 1454.47 Z" fill="#000000" fill-rule="nonzero" fill-opacity="1" /><path clip-path="url(#clip940)" d="M928.328 1474.84 L928.328 1490.49 L924.069 1490.49 L924.069 1474.98 Q924.069 1471.3 922.634 1469.47 Q921.198 1467.65 918.328 1467.65 Q914.879 1467.65 912.888 1469.84 Q910.898 1472.04 910.898 1475.84 L910.898 1490.49 L906.615 1490.49 L906.615 1464.57 L910.898 1464.57 L910.898 1468.59 Q912.425 1466.26 914.485 1465.1 Q916.569 1463.94 919.277 1463.94 Q923.745 1463.94 926.036 1466.72 Q928.328 1469.47 928.328 1474.84 Z" fill="#000000" fill-rule="nonzero" fill-opacity="1" /><path clip-path="url(#clip940)" d="M953.883 1477.23 Q953.883 1472.6 951.962 1470.05 Q950.064 1467.51 946.615 1467.51 Q943.189 1467.51 941.268 1470.05 Q939.37 1472.6 939.37 1477.23 Q939.37 1481.84 941.268 1484.38 Q943.189 1486.93 946.615 1486.93 Q950.064 1486.93 951.962 1484.38 Q953.883 1481.84 953.883 1477.23 M958.143 1487.28 Q958.143 1493.9 955.203 1497.11 Q952.263 1500.35 946.198 1500.35 Q943.953 1500.35 941.962 1500.01 Q939.971 1499.68 938.096 1498.99 L938.096 1494.84 Q939.971 1495.86 941.8 1496.35 Q943.629 1496.84 945.527 1496.84 Q949.717 1496.84 951.8 1494.64 Q953.883 1492.46 953.883 1488.04 L953.883 1485.93 Q952.564 1488.22 950.504 1489.36 Q948.444 1490.49 945.573 1490.49 Q940.805 1490.49 937.888 1486.86 Q934.971 1483.22 934.971 1477.23 Q934.971 1471.21 937.888 1467.58 Q940.805 1463.94 945.573 1463.94 Q948.444 1463.94 950.504 1465.08 Q952.564 1466.21 953.883 1468.5 L953.883 1464.57 L958.143 1464.57 L958.143 1487.28 Z" fill="#000000" fill-rule="nonzero" fill-opacity="1" /><polyline clip-path="url(#clip940)" style="stroke:#ff0000; stroke-linecap:round; stroke-linejoin:round; stroke-width:8; stroke-opacity:1; fill:none" points="354.735,1525.05 514.225,1525.05 "/>
<path clip-path="url(#clip940)" d="M556.64 1512.38 L550.298 1529.58 L563.006 1529.58 L556.64 1512.38 M554.001 1507.77 L559.302 1507.77 L572.473 1542.33 L567.612 1542.33 L564.464 1533.47 L548.886 1533.47 L545.737 1542.33 L540.807 1542.33 L554.001 1507.77 Z" fill="#000000" fill-rule="nonzero" fill-opacity="1" /><path clip-path="url(#clip940)" d="M600.251 1537.4 L600.251 1528.12 L592.612 1528.12 L592.612 1524.28 L604.881 1524.28 L604.881 1539.12 Q602.172 1541.04 598.908 1542.03 Q595.645 1543 591.941 1543 Q583.839 1543 579.256 1538.28 Q574.696 1533.54 574.696 1525.09 Q574.696 1516.62 579.256 1511.89 Q583.839 1507.15 591.941 1507.15 Q595.321 1507.15 598.353 1507.98 Q601.408 1508.81 603.978 1510.43 L603.978 1515.41 Q601.385 1513.21 598.469 1512.1 Q595.552 1510.99 592.334 1510.99 Q585.992 1510.99 582.797 1514.53 Q579.626 1518.07 579.626 1525.09 Q579.626 1532.08 582.797 1535.62 Q585.992 1539.16 592.334 1539.16 Q594.811 1539.16 596.756 1538.74 Q598.7 1538.31 600.251 1537.4 Z" fill="#000000" fill-rule="nonzero" fill-opacity="1" /><path clip-path="url(#clip940)" d="M613.422 1507.77 L620.39 1507.77 L629.209 1531.29 L638.075 1507.77 L645.042 1507.77 L645.042 1542.33 L640.482 1542.33 L640.482 1511.99 L631.57 1535.69 L626.871 1535.69 L617.959 1511.99 L617.959 1542.33 L613.422 1542.33 L613.422 1507.77 Z" fill="#000000" fill-rule="nonzero" fill-opacity="1" /><polyline clip-path="url(#clip940)" style="stroke:#008000; stroke-linecap:round; stroke-linejoin:round; stroke-width:8; stroke-opacity:0.6; fill:none" points="354.735,1576.89 514.225,1576.89 "/>
<path clip-path="url(#clip940)" d="M540.807 1559.61 L545.483 1559.61 L545.483 1590.24 L562.311 1590.24 L562.311 1594.17 L540.807 1594.17 L540.807 1559.61 Z" fill="#000000" fill-rule="nonzero" fill-opacity="1" /><path clip-path="url(#clip940)" d="M579.858 1564.22 L573.515 1581.42 L586.223 1581.42 L579.858 1564.22 M577.219 1559.61 L582.52 1559.61 L595.691 1594.17 L590.83 1594.17 L587.682 1585.31 L572.103 1585.31 L568.955 1594.17 L564.024 1594.17 L577.219 1559.61 Z" fill="#000000" fill-rule="nonzero" fill-opacity="1" /><path clip-path="url(#clip940)" d="M600.737 1559.61 L607.705 1559.61 L616.524 1583.13 L625.39 1559.61 L632.357 1559.61 L632.357 1594.17 L627.797 1594.17 L627.797 1563.83 L618.885 1587.53 L614.186 1587.53 L605.274 1563.83 L605.274 1594.17 L600.737 1594.17 L600.737 1559.61 Z" fill="#000000" fill-rule="nonzero" fill-opacity="1" /><path clip-path="url(#clip940)" d="M641.64 1559.61 L646.316 1559.61 L646.316 1590.24 L663.144 1590.24 L663.144 1594.17 L641.64 1594.17 L641.64 1559.61 Z" fill="#000000" fill-rule="nonzero" fill-opacity="1" /><polyline clip-path="url(#clip940)" style="stroke:#800080; stroke-linecap:round; stroke-linejoin:round; stroke-width:8; stroke-opacity:0.6; fill:none" points="354.735,1628.73 514.225,1628.73 "/>
<path clip-path="url(#clip940)" d="M557.196 1629.81 Q558.7 1630.32 560.112 1631.99 Q561.548 1633.65 562.983 1636.57 L567.728 1646.01 L562.705 1646.01 L558.284 1637.15 Q556.571 1633.67 554.95 1632.54 Q553.353 1631.41 550.575 1631.41 L545.483 1631.41 L545.483 1646.01 L540.807 1646.01 L540.807 1611.45 L551.362 1611.45 Q557.288 1611.45 560.205 1613.93 Q563.122 1616.41 563.122 1621.41 Q563.122 1624.67 561.594 1626.82 Q560.089 1628.98 557.196 1629.81 M545.483 1615.3 L545.483 1627.56 L551.362 1627.56 Q554.742 1627.56 556.455 1626.01 Q558.191 1624.44 558.191 1621.41 Q558.191 1618.37 556.455 1616.85 Q554.742 1615.3 551.362 1615.3 L545.483 1615.3 Z" fill="#000000" fill-rule="nonzero" fill-opacity="1" /><path clip-path="url(#clip940)" d="M581.478 1623.07 Q578.052 1623.07 576.061 1625.76 Q574.071 1628.42 574.071 1633.07 Q574.071 1637.73 576.038 1640.41 Q578.029 1643.07 581.478 1643.07 Q584.881 1643.07 586.871 1640.39 Q588.862 1637.7 588.862 1633.07 Q588.862 1628.47 586.871 1625.78 Q584.881 1623.07 581.478 1623.07 M581.478 1619.46 Q587.034 1619.46 590.205 1623.07 Q593.376 1626.68 593.376 1633.07 Q593.376 1639.44 590.205 1643.07 Q587.034 1646.68 581.478 1646.68 Q575.899 1646.68 572.728 1643.07 Q569.58 1639.44 569.58 1633.07 Q569.58 1626.68 572.728 1623.07 Q575.899 1619.46 581.478 1619.46 Z" fill="#000000" fill-rule="nonzero" fill-opacity="1" /><path clip-path="url(#clip940)" d="M617.496 1624.02 L617.496 1609.99 L621.756 1609.99 L621.756 1646.01 L617.496 1646.01 L617.496 1642.12 Q616.154 1644.44 614.094 1645.57 Q612.057 1646.68 609.186 1646.68 Q604.487 1646.68 601.524 1642.93 Q598.584 1639.18 598.584 1633.07 Q598.584 1626.96 601.524 1623.21 Q604.487 1619.46 609.186 1619.46 Q612.057 1619.46 614.094 1620.6 Q616.154 1621.71 617.496 1624.02 M602.983 1633.07 Q602.983 1637.77 604.904 1640.46 Q606.848 1643.12 610.228 1643.12 Q613.607 1643.12 615.552 1640.46 Q617.496 1637.77 617.496 1633.07 Q617.496 1628.37 615.552 1625.71 Q613.607 1623.03 610.228 1623.03 Q606.848 1623.03 604.904 1625.71 Q602.983 1628.37 602.983 1633.07 Z" fill="#000000" fill-rule="nonzero" fill-opacity="1" /><path clip-path="url(#clip940)" d="M652.704 1631.99 L652.704 1634.07 L633.121 1634.07 Q633.399 1638.47 635.76 1640.78 Q638.144 1643.07 642.38 1643.07 Q644.834 1643.07 647.126 1642.47 Q649.441 1641.87 651.709 1640.67 L651.709 1644.69 Q649.417 1645.67 647.01 1646.17 Q644.603 1646.68 642.126 1646.68 Q635.922 1646.68 632.288 1643.07 Q628.677 1639.46 628.677 1633.3 Q628.677 1626.94 632.103 1623.21 Q635.552 1619.46 641.385 1619.46 Q646.617 1619.46 649.649 1622.84 Q652.704 1626.2 652.704 1631.99 M648.445 1630.74 Q648.399 1627.24 646.478 1625.16 Q644.58 1623.07 641.431 1623.07 Q637.867 1623.07 635.714 1625.09 Q633.584 1627.1 633.26 1630.76 L648.445 1630.74 Z" fill="#000000" fill-rule="nonzero" fill-opacity="1" /><path clip-path="url(#clip940)" d="M669.741 1623.07 Q666.315 1623.07 664.325 1625.76 Q662.334 1628.42 662.334 1633.07 Q662.334 1637.73 664.302 1640.41 Q666.292 1643.07 669.741 1643.07 Q673.144 1643.07 675.135 1640.39 Q677.126 1637.7 677.126 1633.07 Q677.126 1628.47 675.135 1625.78 Q673.144 1623.07 669.741 1623.07 M669.741 1619.46 Q675.297 1619.46 678.468 1623.07 Q681.639 1626.68 681.639 1633.07 Q681.639 1639.44 678.468 1643.07 Q675.297 1646.68 669.741 1646.68 Q664.163 1646.68 660.991 1643.07 Q657.843 1639.44 657.843 1633.07 Q657.843 1626.68 660.991 1623.07 Q664.163 1619.46 669.741 1619.46 Z" fill="#000000" fill-rule="nonzero" fill-opacity="1" /></svg>
