<?xml version="1.0" encoding="utf-8"?>
<svg xmlns="http://www.w3.org/2000/svg" xmlns:xlink="http://www.w3.org/1999/xlink" width="672" height="480" viewBox="0 0 2688 1920">
<defs>
  <clipPath id="clip970">
    <rect x="0" y="0" width="2688" height="1920"/>
  </clipPath>
</defs>
<path clip-path="url(#clip970)" d="M0 1920 L2688 1920 L2688 -4.26326e-14 L0 -4.26326e-14  Z" fill="#ffffff" fill-rule="evenodd" fill-opacity="1"/>
<defs>
  <clipPath id="clip971">
    <rect x="226" y="127" width="2416" height="1607"/>
  </clipPath>
</defs>
<path clip-path="url(#clip970)" d="M226.141 1734.12 L2640.76 1734.12 L2640.76 127.792 L226.141 127.792  Z" fill="#ffffff" fill-rule="evenodd" fill-opacity="1"/>
<polyline clip-path="url(#clip971)" style="stroke:#000000; stroke-linecap:round; stroke-linejoin:round; stroke-width:2; stroke-opacity:0.1; fill:none" points="654.153,1734.12 654.153,127.792 "/>
<polyline clip-path="url(#clip971)" style="stroke:#000000; stroke-linecap:round; stroke-linejoin:round; stroke-width:2; stroke-opacity:0.1; fill:none" points="1133.72,1734.12 1133.72,127.792 "/>
<polyline clip-path="url(#clip971)" style="stroke:#000000; stroke-linecap:round; stroke-linejoin:round; stroke-width:2; stroke-opacity:0.1; fill:none" points="1613.29,1734.12 1613.29,127.792 "/>
<polyline clip-path="url(#clip971)" style="stroke:#000000; stroke-linecap:round; stroke-linejoin:round; stroke-width:2; stroke-opacity:0.1; fill:none" points="2092.85,1734.12 2092.85,127.792 "/>
<polyline clip-path="url(#clip971)" style="stroke:#000000; stroke-linecap:round; stroke-linejoin:round; stroke-width:2; stroke-opacity:0.1; fill:none" points="2572.42,1734.12 2572.42,127.792 "/>
<polyline clip-path="url(#clip971)" style="stroke:#000000; stroke-linecap:round; stroke-linejoin:round; stroke-width:2; stroke-opacity:0.1; fill:none" points="226.141,1688.65 2640.76,1688.65 "/>
<polyline clip-path="url(#clip971)" style="stroke:#000000; stroke-linecap:round; stroke-linejoin:round; stroke-width:2; stroke-opacity:0.1; fill:none" points="226.141,1378.79 2640.76,1378.79 "/>
<polyline clip-path="url(#clip971)" style="stroke:#000000; stroke-linecap:round; stroke-linejoin:round; stroke-width:2; stroke-opacity:0.1; fill:none" points="226.141,1068.93 2640.76,1068.93 "/>
<polyline clip-path="url(#clip971)" style="stroke:#000000; stroke-linecap:round; stroke-linejoin:round; stroke-width:2; stroke-opacity:0.1; fill:none" points="226.141,759.065 2640.76,759.065 "/>
<polyline clip-path="url(#clip971)" style="stroke:#000000; stroke-linecap:round; stroke-linejoin:round; stroke-width:2; stroke-opacity:0.1; fill:none" points="226.141,449.201 2640.76,449.201 "/>
<polyline clip-path="url(#clip971)" style="stroke:#000000; stroke-linecap:round; stroke-linejoin:round; stroke-width:2; stroke-opacity:0.1; fill:none" points="226.141,139.338 2640.76,139.338 "/>
<polyline clip-path="url(#clip970)" style="stroke:#000000; stroke-linecap:round; stroke-linejoin:round; stroke-width:4; stroke-opacity:1; fill:none" points="226.141,1734.12 2640.76,1734.12 "/>
<polyline clip-path="url(#clip970)" style="stroke:#000000; stroke-linecap:round; stroke-linejoin:round; stroke-width:4; stroke-opacity:1; fill:none" points="654.153,1734.12 654.153,1715.22 "/>
<polyline clip-path="url(#clip970)" style="stroke:#000000; stroke-linecap:round; stroke-linejoin:round; stroke-width:4; stroke-opacity:1; fill:none" points="1133.72,1734.12 1133.72,1715.22 "/>
<polyline clip-path="url(#clip970)" style="stroke:#000000; stroke-linecap:round; stroke-linejoin:round; stroke-width:4; stroke-opacity:1; fill:none" points="1613.29,1734.12 1613.29,1715.22 "/>
<polyline clip-path="url(#clip970)" style="stroke:#000000; stroke-linecap:round; stroke-linejoin:round; stroke-width:4; stroke-opacity:1; fill:none" points="2092.85,1734.12 2092.85,1715.22 "/>
<polyline clip-path="url(#clip970)" style="stroke:#000000; stroke-linecap:round; stroke-linejoin:round; stroke-width:4; stroke-opacity:1; fill:none" points="2572.42,1734.12 2572.42,1715.22 "/>
<path clip-path="url(#clip970)" d="M648.806 1794.89 L665.125 1794.89 L665.125 1798.82 L643.181 1798.82 L643.181 1794.89 Q645.843 1792.13 650.426 1787.5 Q655.033 1782.85 656.213 1781.51 Q658.459 1778.98 659.338 1777.25 Q660.241 1775.49 660.241 1773.8 Q660.241 1771.04 658.297 1769.31 Q656.376 1767.57 653.274 1767.57 Q651.075 1767.57 648.621 1768.34 Q646.19 1769.1 643.413 1770.65 L643.413 1765.93 Q646.237 1764.79 648.69 1764.21 Q651.144 1763.64 653.181 1763.64 Q658.551 1763.64 661.746 1766.32 Q664.94 1769.01 664.94 1773.5 Q664.94 1775.63 664.13 1777.55 Q663.343 1779.45 661.237 1782.04 Q660.658 1782.71 657.556 1785.93 Q654.454 1789.12 648.806 1794.89 Z" fill="#000000" fill-rule="nonzero" fill-opacity="1" /><path clip-path="url(#clip970)" d="M1136.73 1768.34 L1124.92 1786.78 L1136.73 1786.78 L1136.73 1768.34 M1135.5 1764.26 L1141.38 1764.26 L1141.38 1786.78 L1146.31 1786.78 L1146.31 1790.67 L1141.38 1790.67 L1141.38 1798.82 L1136.73 1798.82 L1136.73 1790.67 L1121.13 1790.67 L1121.13 1786.16 L1135.5 1764.26 Z" fill="#000000" fill-rule="nonzero" fill-opacity="1" /><path clip-path="url(#clip970)" d="M1613.69 1779.68 Q1610.54 1779.68 1608.69 1781.83 Q1606.86 1783.98 1606.86 1787.73 Q1606.86 1791.46 1608.69 1793.64 Q1610.54 1795.79 1613.69 1795.79 Q1616.84 1795.79 1618.67 1793.64 Q1620.52 1791.46 1620.52 1787.73 Q1620.52 1783.98 1618.67 1781.83 Q1616.84 1779.68 1613.69 1779.68 M1622.97 1765.02 L1622.97 1769.28 Q1621.21 1768.45 1619.41 1768.01 Q1617.63 1767.57 1615.87 1767.57 Q1611.24 1767.57 1608.78 1770.7 Q1606.35 1773.82 1606.01 1780.14 Q1607.37 1778.13 1609.43 1777.06 Q1611.49 1775.97 1613.97 1775.97 Q1619.18 1775.97 1622.19 1779.15 Q1625.22 1782.29 1625.22 1787.73 Q1625.22 1793.06 1622.07 1796.27 Q1618.92 1799.49 1613.69 1799.49 Q1607.7 1799.49 1604.52 1794.91 Q1601.35 1790.3 1601.35 1781.58 Q1601.35 1773.38 1605.24 1768.52 Q1609.13 1763.64 1615.68 1763.64 Q1617.44 1763.64 1619.22 1763.98 Q1621.03 1764.33 1622.97 1765.02 Z" fill="#000000" fill-rule="nonzero" fill-opacity="1" /><path clip-path="url(#clip970)" d="M2092.85 1782.41 Q2089.52 1782.41 2087.6 1784.19 Q2085.7 1785.97 2085.7 1789.1 Q2085.7 1792.22 2087.6 1794.01 Q2089.52 1795.79 2092.85 1795.79 Q2096.18 1795.79 2098.11 1794.01 Q2100.03 1792.2 2100.03 1789.1 Q2100.03 1785.97 2098.11 1784.19 Q2096.21 1782.41 2092.85 1782.41 M2088.18 1780.42 Q2085.17 1779.68 2083.48 1777.62 Q2081.81 1775.56 2081.81 1772.59 Q2081.81 1768.45 2084.75 1766.04 Q2087.71 1763.64 2092.85 1763.64 Q2098.01 1763.64 2100.95 1766.04 Q2103.89 1768.45 2103.89 1772.59 Q2103.89 1775.56 2102.2 1777.62 Q2100.54 1779.68 2097.55 1780.42 Q2100.93 1781.21 2102.81 1783.5 Q2104.7 1785.79 2104.7 1789.1 Q2104.7 1794.12 2101.62 1796.81 Q2098.57 1799.49 2092.85 1799.49 Q2087.13 1799.49 2084.06 1796.81 Q2081 1794.12 2081 1789.1 Q2081 1785.79 2082.9 1783.5 Q2084.8 1781.21 2088.18 1780.42 M2086.46 1773.03 Q2086.46 1775.72 2088.13 1777.22 Q2089.82 1778.73 2092.85 1778.73 Q2095.86 1778.73 2097.55 1777.22 Q2099.26 1775.72 2099.26 1773.03 Q2099.26 1770.35 2097.55 1768.84 Q2095.86 1767.34 2092.85 1767.34 Q2089.82 1767.34 2088.13 1768.84 Q2086.46 1770.35 2086.46 1773.03 Z" fill="#000000" fill-rule="nonzero" fill-opacity="1" /><path clip-path="url(#clip970)" d="M2547.11 1794.89 L2554.74 1794.89 L2554.74 1768.52 L2546.43 1770.19 L2546.43 1765.93 L2554.7 1764.26 L2559.37 1764.26 L2559.37 1794.89 L2567.01 1794.89 L2567.01 1798.82 L2547.11 1798.82 L2547.11 1794.89 Z" fill="#000000" fill-rule="nonzero" fill-opacity="1" /><path clip-path="url(#clip970)" d="M2586.46 1767.34 Q2582.85 1767.34 2581.02 1770.9 Q2579.21 1774.45 2579.21 1781.58 Q2579.21 1788.68 2581.02 1792.25 Q2582.85 1795.79 2586.46 1795.79 Q2590.09 1795.79 2591.9 1792.25 Q2593.73 1788.68 2593.73 1781.58 Q2593.73 1774.45 2591.9 1770.9 Q2590.09 1767.34 2586.46 1767.34 M2586.46 1763.64 Q2592.27 1763.64 2595.32 1768.24 Q2598.4 1772.83 2598.4 1781.58 Q2598.4 1790.3 2595.32 1794.91 Q2592.27 1799.49 2586.46 1799.49 Q2580.65 1799.49 2577.57 1794.91 Q2574.51 1790.3 2574.51 1781.58 Q2574.51 1772.83 2577.57 1768.24 Q2580.65 1763.64 2586.46 1763.64 Z" fill="#000000" fill-rule="nonzero" fill-opacity="1" /><path clip-path="url(#clip970)" d="M1240.3 1841.06 L1240.3 1858.92 L1248.38 1858.92 Q1252.87 1858.92 1255.32 1856.6 Q1257.77 1854.27 1257.77 1849.98 Q1257.77 1845.71 1255.32 1843.39 Q1252.87 1841.06 1248.38 1841.06 L1240.3 1841.06 M1233.87 1835.78 L1248.38 1835.78 Q1256.37 1835.78 1260.44 1839.41 Q1264.55 1843.01 1264.55 1849.98 Q1264.55 1857.01 1260.44 1860.61 Q1256.37 1864.2 1248.38 1864.2 L1240.3 1864.2 L1240.3 1883.3 L1233.87 1883.3 L1233.87 1835.78 Z" fill="#000000" fill-rule="nonzero" fill-opacity="1" /><path clip-path="url(#clip970)" d="M1284.41 1851.76 Q1279.7 1851.76 1276.96 1855.45 Q1274.23 1859.11 1274.23 1865.51 Q1274.23 1871.91 1276.93 1875.6 Q1279.67 1879.26 1284.41 1879.26 Q1289.09 1879.26 1291.83 1875.57 Q1294.56 1871.87 1294.56 1865.51 Q1294.56 1859.17 1291.83 1855.48 Q1289.09 1851.76 1284.41 1851.76 M1284.41 1846.79 Q1292.05 1846.79 1296.41 1851.76 Q1300.77 1856.72 1300.77 1865.51 Q1300.77 1874.26 1296.41 1879.26 Q1292.05 1884.22 1284.41 1884.22 Q1276.74 1884.22 1272.38 1879.26 Q1268.05 1874.26 1268.05 1865.51 Q1268.05 1856.72 1272.38 1851.76 Q1276.74 1846.79 1284.41 1846.79 Z" fill="#000000" fill-rule="nonzero" fill-opacity="1" /><path clip-path="url(#clip970)" d="M1316.14 1877.95 L1316.14 1896.86 L1310.26 1896.86 L1310.26 1847.65 L1316.14 1847.65 L1316.14 1853.06 Q1317.99 1849.88 1320.79 1848.35 Q1323.62 1846.79 1327.54 1846.79 Q1334.03 1846.79 1338.07 1851.95 Q1342.15 1857.11 1342.15 1865.51 Q1342.15 1873.91 1338.07 1879.07 Q1334.03 1884.22 1327.54 1884.22 Q1323.62 1884.22 1320.79 1882.7 Q1317.99 1881.14 1316.14 1877.95 M1336.07 1865.51 Q1336.07 1859.05 1333.4 1855.39 Q1330.75 1851.7 1326.11 1851.7 Q1321.46 1851.7 1318.79 1855.39 Q1316.14 1859.05 1316.14 1865.51 Q1316.14 1871.97 1318.79 1875.66 Q1321.46 1879.32 1326.11 1879.32 Q1330.75 1879.32 1333.4 1875.66 Q1336.07 1871.97 1336.07 1865.51 Z" fill="#000000" fill-rule="nonzero" fill-opacity="1" /><path clip-path="url(#clip970)" d="M1351.25 1869.23 L1351.25 1847.65 L1357.11 1847.65 L1357.11 1869.01 Q1357.11 1874.07 1359.08 1876.62 Q1361.05 1879.13 1365 1879.13 Q1369.74 1879.13 1372.48 1876.11 Q1375.25 1873.08 1375.25 1867.86 L1375.25 1847.65 L1381.11 1847.65 L1381.11 1883.3 L1375.25 1883.3 L1375.25 1877.83 Q1373.12 1881.07 1370.28 1882.66 Q1367.48 1884.22 1363.76 1884.22 Q1357.62 1884.22 1354.43 1880.4 Q1351.25 1876.59 1351.25 1869.23 M1365.99 1846.79 L1365.99 1846.79 Z" fill="#000000" fill-rule="nonzero" fill-opacity="1" /><path clip-path="url(#clip970)" d="M1393.17 1833.78 L1399.03 1833.78 L1399.03 1883.3 L1393.17 1883.3 L1393.17 1833.78 Z" fill="#000000" fill-rule="nonzero" fill-opacity="1" /><path clip-path="url(#clip970)" d="M1427.48 1865.38 Q1420.38 1865.38 1417.65 1867 Q1414.91 1868.63 1414.91 1872.54 Q1414.91 1875.66 1416.95 1877.51 Q1419.01 1879.32 1422.55 1879.32 Q1427.42 1879.32 1430.34 1875.88 Q1433.31 1872.42 1433.31 1866.69 L1433.31 1865.38 L1427.48 1865.38 M1439.16 1862.96 L1439.16 1883.3 L1433.31 1883.3 L1433.31 1877.89 Q1431.3 1881.14 1428.31 1882.7 Q1425.32 1884.22 1420.99 1884.22 Q1415.51 1884.22 1412.27 1881.17 Q1409.05 1878.08 1409.05 1872.92 Q1409.05 1866.91 1413.06 1863.85 Q1417.1 1860.8 1425.09 1860.8 L1433.31 1860.8 L1433.31 1860.23 Q1433.31 1856.18 1430.63 1853.99 Q1427.99 1851.76 1423.18 1851.76 Q1420.13 1851.76 1417.23 1852.49 Q1414.34 1853.22 1411.66 1854.69 L1411.66 1849.28 Q1414.88 1848.03 1417.9 1847.43 Q1420.92 1846.79 1423.79 1846.79 Q1431.52 1846.79 1435.34 1850.8 Q1439.16 1854.81 1439.16 1862.96 Z" fill="#000000" fill-rule="nonzero" fill-opacity="1" /><path clip-path="url(#clip970)" d="M1457.02 1837.53 L1457.02 1847.65 L1469.08 1847.65 L1469.08 1852.2 L1457.02 1852.2 L1457.02 1871.56 Q1457.02 1875.92 1458.19 1877.16 Q1459.4 1878.4 1463.06 1878.4 L1469.08 1878.4 L1469.08 1883.3 L1463.06 1883.3 Q1456.29 1883.3 1453.71 1880.79 Q1451.13 1878.24 1451.13 1871.56 L1451.13 1852.2 L1446.83 1852.2 L1446.83 1847.65 L1451.13 1847.65 L1451.13 1837.53 L1457.02 1837.53 Z" fill="#000000" fill-rule="nonzero" fill-opacity="1" /><path clip-path="url(#clip970)" d="M1476.78 1847.65 L1482.64 1847.65 L1482.64 1883.3 L1476.78 1883.3 L1476.78 1847.65 M1476.78 1833.78 L1482.64 1833.78 L1482.64 1841.19 L1476.78 1841.19 L1476.78 1833.78 Z" fill="#000000" fill-rule="nonzero" fill-opacity="1" /><path clip-path="url(#clip970)" d="M1508.71 1851.76 Q1504 1851.76 1501.26 1855.45 Q1498.52 1859.11 1498.52 1865.51 Q1498.52 1871.91 1501.23 1875.6 Q1503.96 1879.26 1508.71 1879.26 Q1513.39 1879.26 1516.12 1875.57 Q1518.86 1871.87 1518.86 1865.51 Q1518.86 1859.17 1516.12 1855.48 Q1513.39 1851.76 1508.71 1851.76 M1508.71 1846.79 Q1516.35 1846.79 1520.71 1851.76 Q1525.07 1856.72 1525.07 1865.51 Q1525.07 1874.26 1520.71 1879.26 Q1516.35 1884.22 1508.71 1884.22 Q1501.04 1884.22 1496.68 1879.26 Q1492.35 1874.26 1492.35 1865.51 Q1492.35 1856.72 1496.68 1851.76 Q1501.04 1846.79 1508.71 1846.79 Z" fill="#000000" fill-rule="nonzero" fill-opacity="1" /><path clip-path="url(#clip970)" d="M1564.41 1861.78 L1564.41 1883.3 L1558.55 1883.3 L1558.55 1861.98 Q1558.55 1856.92 1556.58 1854.4 Q1554.6 1851.89 1550.66 1851.89 Q1545.91 1851.89 1543.18 1854.91 Q1540.44 1857.93 1540.44 1863.15 L1540.44 1883.3 L1534.55 1883.3 L1534.55 1847.65 L1540.44 1847.65 L1540.44 1853.19 Q1542.54 1849.98 1545.37 1848.39 Q1548.24 1846.79 1551.96 1846.79 Q1558.1 1846.79 1561.26 1850.61 Q1564.41 1854.4 1564.41 1861.78 Z" fill="#000000" fill-rule="nonzero" fill-opacity="1" /><path clip-path="url(#clip970)" d="M1597.06 1835.78 L1605.72 1835.78 L1626.79 1875.53 L1626.79 1835.78 L1633.03 1835.78 L1633.03 1883.3 L1624.37 1883.3 L1603.3 1843.55 L1603.3 1883.3 L1597.06 1883.3 L1597.06 1835.78 Z" fill="#000000" fill-rule="nonzero" fill-opacity="1" /><polyline clip-path="url(#clip970)" style="stroke:#000000; stroke-linecap:round; stroke-linejoin:round; stroke-width:4; stroke-opacity:1; fill:none" points="226.141,1734.12 226.141,127.792 "/>
<polyline clip-path="url(#clip970)" style="stroke:#000000; stroke-linecap:round; stroke-linejoin:round; stroke-width:4; stroke-opacity:1; fill:none" points="226.141,1688.65 245.038,1688.65 "/>
<polyline clip-path="url(#clip970)" style="stroke:#000000; stroke-linecap:round; stroke-linejoin:round; stroke-width:4; stroke-opacity:1; fill:none" points="226.141,1378.79 245.038,1378.79 "/>
<polyline clip-path="url(#clip970)" style="stroke:#000000; stroke-linecap:round; stroke-linejoin:round; stroke-width:4; stroke-opacity:1; fill:none" points="226.141,1068.93 245.038,1068.93 "/>
<polyline clip-path="url(#clip970)" style="stroke:#000000; stroke-linecap:round; stroke-linejoin:round; stroke-width:4; stroke-opacity:1; fill:none" points="226.141,759.065 245.038,759.065 "/>
<polyline clip-path="url(#clip970)" style="stroke:#000000; stroke-linecap:round; stroke-linejoin:round; stroke-width:4; stroke-opacity:1; fill:none" points="226.141,449.201 245.038,449.201 "/>
<polyline clip-path="url(#clip970)" style="stroke:#000000; stroke-linecap:round; stroke-linejoin:round; stroke-width:4; stroke-opacity:1; fill:none" points="226.141,139.338 245.038,139.338 "/>
<path clip-path="url(#clip970)" d="M128.645 1674.45 Q125.034 1674.45 123.205 1678.02 Q121.4 1681.56 121.4 1688.69 Q121.4 1695.8 123.205 1699.36 Q125.034 1702.9 128.645 1702.9 Q132.279 1702.9 134.085 1699.36 Q135.913 1695.8 135.913 1688.69 Q135.913 1681.56 134.085 1678.02 Q132.279 1674.45 128.645 1674.45 M128.645 1670.75 Q134.455 1670.75 137.511 1675.36 Q140.589 1679.94 140.589 1688.69 Q140.589 1697.42 137.511 1702.02 Q134.455 1706.61 128.645 1706.61 Q122.835 1706.61 119.756 1702.02 Q116.701 1697.42 116.701 1688.69 Q116.701 1679.94 119.756 1675.36 Q122.835 1670.75 128.645 1670.75 Z" fill="#000000" fill-rule="nonzero" fill-opacity="1" /><path clip-path="url(#clip970)" d="M148.807 1700.06 L153.691 1700.06 L153.691 1705.93 L148.807 1705.93 L148.807 1700.06 Z" fill="#000000" fill-rule="nonzero" fill-opacity="1" /><path clip-path="url(#clip970)" d="M173.876 1674.45 Q170.265 1674.45 168.436 1678.02 Q166.631 1681.56 166.631 1688.69 Q166.631 1695.8 168.436 1699.36 Q170.265 1702.9 173.876 1702.9 Q177.51 1702.9 179.316 1699.36 Q181.145 1695.8 181.145 1688.69 Q181.145 1681.56 179.316 1678.02 Q177.51 1674.45 173.876 1674.45 M173.876 1670.75 Q179.686 1670.75 182.742 1675.36 Q185.821 1679.94 185.821 1688.69 Q185.821 1697.42 182.742 1702.02 Q179.686 1706.61 173.876 1706.61 Q168.066 1706.61 164.987 1702.02 Q161.932 1697.42 161.932 1688.69 Q161.932 1679.94 164.987 1675.36 Q168.066 1670.75 173.876 1670.75 Z" fill="#000000" fill-rule="nonzero" fill-opacity="1" /><path clip-path="url(#clip970)" d="M129.872 1364.59 Q126.261 1364.59 124.432 1368.15 Q122.626 1371.7 122.626 1378.83 Q122.626 1385.93 124.432 1389.5 Q126.261 1393.04 129.872 1393.04 Q133.506 1393.04 135.312 1389.5 Q137.14 1385.93 137.14 1378.83 Q137.14 1371.7 135.312 1368.15 Q133.506 1364.59 129.872 1364.59 M129.872 1360.89 Q135.682 1360.89 138.737 1365.49 Q141.816 1370.08 141.816 1378.83 Q141.816 1387.55 138.737 1392.16 Q135.682 1396.74 129.872 1396.74 Q124.062 1396.74 120.983 1392.16 Q117.927 1387.55 117.927 1378.83 Q117.927 1370.08 120.983 1365.49 Q124.062 1360.89 129.872 1360.89 Z" fill="#000000" fill-rule="nonzero" fill-opacity="1" /><path clip-path="url(#clip970)" d="M150.034 1390.19 L154.918 1390.19 L154.918 1396.07 L150.034 1396.07 L150.034 1390.19 Z" fill="#000000" fill-rule="nonzero" fill-opacity="1" /><path clip-path="url(#clip970)" d="M165.913 1392.14 L173.552 1392.14 L173.552 1365.77 L165.242 1367.44 L165.242 1363.18 L173.506 1361.51 L178.182 1361.51 L178.182 1392.14 L185.821 1392.14 L185.821 1396.07 L165.913 1396.07 L165.913 1392.14 Z" fill="#000000" fill-rule="nonzero" fill-opacity="1" /><path clip-path="url(#clip970)" d="M130.242 1054.73 Q126.631 1054.73 124.802 1058.29 Q122.997 1061.83 122.997 1068.96 Q122.997 1076.07 124.802 1079.63 Q126.631 1083.18 130.242 1083.18 Q133.876 1083.18 135.682 1079.63 Q137.511 1076.07 137.511 1068.96 Q137.511 1061.83 135.682 1058.29 Q133.876 1054.73 130.242 1054.73 M130.242 1051.02 Q136.052 1051.02 139.108 1055.63 Q142.187 1060.21 142.187 1068.96 Q142.187 1077.69 139.108 1082.3 Q136.052 1086.88 130.242 1086.88 Q124.432 1086.88 121.353 1082.3 Q118.298 1077.69 118.298 1068.96 Q118.298 1060.21 121.353 1055.63 Q124.432 1051.02 130.242 1051.02 Z" fill="#000000" fill-rule="nonzero" fill-opacity="1" /><path clip-path="url(#clip970)" d="M150.404 1080.33 L155.288 1080.33 L155.288 1086.21 L150.404 1086.21 L150.404 1080.33 Z" fill="#000000" fill-rule="nonzero" fill-opacity="1" /><path clip-path="url(#clip970)" d="M169.501 1082.27 L185.821 1082.27 L185.821 1086.21 L163.876 1086.21 L163.876 1082.27 Q166.538 1079.52 171.122 1074.89 Q175.728 1070.24 176.909 1068.89 Q179.154 1066.37 180.034 1064.63 Q180.936 1062.87 180.936 1061.19 Q180.936 1058.43 178.992 1056.69 Q177.071 1054.96 173.969 1054.96 Q171.77 1054.96 169.316 1055.72 Q166.885 1056.49 164.108 1058.04 L164.108 1053.31 Q166.932 1052.18 169.385 1051.6 Q171.839 1051.02 173.876 1051.02 Q179.247 1051.02 182.441 1053.71 Q185.635 1056.39 185.635 1060.88 Q185.635 1063.01 184.825 1064.94 Q184.038 1066.83 181.932 1069.43 Q181.353 1070.1 178.251 1073.31 Q175.149 1076.51 169.501 1082.27 Z" fill="#000000" fill-rule="nonzero" fill-opacity="1" /><path clip-path="url(#clip970)" d="M129.293 744.863 Q125.682 744.863 123.853 748.428 Q122.048 751.97 122.048 759.099 Q122.048 766.206 123.853 769.771 Q125.682 773.312 129.293 773.312 Q132.927 773.312 134.733 769.771 Q136.562 766.206 136.562 759.099 Q136.562 751.97 134.733 748.428 Q132.927 744.863 129.293 744.863 M129.293 741.16 Q135.103 741.16 138.159 745.766 Q141.237 750.349 141.237 759.099 Q141.237 767.826 138.159 772.433 Q135.103 777.016 129.293 777.016 Q123.483 777.016 120.404 772.433 Q117.349 767.826 117.349 759.099 Q117.349 750.349 120.404 745.766 Q123.483 741.16 129.293 741.16 Z" fill="#000000" fill-rule="nonzero" fill-opacity="1" /><path clip-path="url(#clip970)" d="M149.455 770.465 L154.339 770.465 L154.339 776.345 L149.455 776.345 L149.455 770.465 Z" fill="#000000" fill-rule="nonzero" fill-opacity="1" /><path clip-path="url(#clip970)" d="M178.691 757.71 Q182.047 758.428 183.922 760.697 Q185.821 762.965 185.821 766.298 Q185.821 771.414 182.302 774.215 Q178.784 777.016 172.302 777.016 Q170.126 777.016 167.811 776.576 Q165.52 776.159 163.066 775.303 L163.066 770.789 Q165.01 771.923 167.325 772.502 Q169.64 773.081 172.163 773.081 Q176.561 773.081 178.853 771.345 Q181.168 769.609 181.168 766.298 Q181.168 763.243 179.015 761.53 Q176.885 759.794 173.066 759.794 L169.038 759.794 L169.038 755.951 L173.251 755.951 Q176.7 755.951 178.529 754.585 Q180.358 753.197 180.358 750.604 Q180.358 747.942 178.459 746.53 Q176.584 745.095 173.066 745.095 Q171.145 745.095 168.946 745.511 Q166.747 745.928 164.108 746.808 L164.108 742.641 Q166.77 741.9 169.085 741.53 Q171.422 741.16 173.483 741.16 Q178.807 741.16 181.909 743.59 Q185.01 745.998 185.01 750.118 Q185.01 752.988 183.367 754.979 Q181.723 756.947 178.691 757.71 Z" fill="#000000" fill-rule="nonzero" fill-opacity="1" /><path clip-path="url(#clip970)" d="M128.159 435 Q124.548 435 122.719 438.565 Q120.913 442.106 120.913 449.236 Q120.913 456.342 122.719 459.907 Q124.548 463.449 128.159 463.449 Q131.793 463.449 133.599 459.907 Q135.427 456.342 135.427 449.236 Q135.427 442.106 133.599 438.565 Q131.793 435 128.159 435 M128.159 431.296 Q133.969 431.296 137.025 435.903 Q140.103 440.486 140.103 449.236 Q140.103 457.963 137.025 462.569 Q133.969 467.152 128.159 467.152 Q122.349 467.152 119.27 462.569 Q116.214 457.963 116.214 449.236 Q116.214 440.486 119.27 435.903 Q122.349 431.296 128.159 431.296 Z" fill="#000000" fill-rule="nonzero" fill-opacity="1" /><path clip-path="url(#clip970)" d="M148.321 460.602 L153.205 460.602 L153.205 466.481 L148.321 466.481 L148.321 460.602 Z" fill="#000000" fill-rule="nonzero" fill-opacity="1" /><path clip-path="url(#clip970)" d="M176.237 435.995 L164.432 454.444 L176.237 454.444 L176.237 435.995 M175.01 431.921 L180.89 431.921 L180.89 454.444 L185.821 454.444 L185.821 458.333 L180.89 458.333 L180.89 466.481 L176.237 466.481 L176.237 458.333 L160.636 458.333 L160.636 453.819 L175.01 431.921 Z" fill="#000000" fill-rule="nonzero" fill-opacity="1" /><path clip-path="url(#clip970)" d="M129.64 125.136 Q126.029 125.136 124.201 128.701 Q122.395 132.243 122.395 139.372 Q122.395 146.479 124.201 150.044 Q126.029 153.585 129.64 153.585 Q133.275 153.585 135.08 150.044 Q136.909 146.479 136.909 139.372 Q136.909 132.243 135.08 128.701 Q133.275 125.136 129.64 125.136 M129.64 121.433 Q135.45 121.433 138.506 126.039 Q141.585 130.622 141.585 139.372 Q141.585 148.099 138.506 152.706 Q135.45 157.289 129.64 157.289 Q123.83 157.289 120.751 152.706 Q117.696 148.099 117.696 139.372 Q117.696 130.622 120.751 126.039 Q123.83 121.433 129.64 121.433 Z" fill="#000000" fill-rule="nonzero" fill-opacity="1" /><path clip-path="url(#clip970)" d="M149.802 150.738 L154.686 150.738 L154.686 156.618 L149.802 156.618 L149.802 150.738 Z" fill="#000000" fill-rule="nonzero" fill-opacity="1" /><path clip-path="url(#clip970)" d="M164.918 122.058 L183.274 122.058 L183.274 125.993 L169.2 125.993 L169.2 134.465 Q170.219 134.118 171.237 133.956 Q172.256 133.771 173.274 133.771 Q179.061 133.771 182.441 136.942 Q185.821 140.113 185.821 145.53 Q185.821 151.108 182.348 154.21 Q178.876 157.289 172.557 157.289 Q170.381 157.289 168.112 156.919 Q165.867 156.548 163.46 155.808 L163.46 151.108 Q165.543 152.243 167.765 152.798 Q169.987 153.354 172.464 153.354 Q176.469 153.354 178.807 151.247 Q181.145 149.141 181.145 145.53 Q181.145 141.919 178.807 139.812 Q176.469 137.706 172.464 137.706 Q170.589 137.706 168.714 138.122 Q166.862 138.539 164.918 139.419 L164.918 122.058 Z" fill="#000000" fill-rule="nonzero" fill-opacity="1" /><path clip-path="url(#clip970)" d="M31.465 967.526 Q30.8921 968.512 30.6375 969.69 Q30.351 970.836 30.351 972.236 Q30.351 977.201 33.5975 979.875 Q36.8122 982.517 42.8596 982.517 L61.6384 982.517 L61.6384 988.405 L25.9905 988.405 L25.9905 982.517 L31.5287 982.517 Q28.2821 980.671 26.7225 977.711 Q25.1311 974.751 25.1311 970.517 Q25.1311 969.913 25.2266 969.181 Q25.2903 968.449 25.4494 967.557 L31.465 967.526 Z" fill="#000000" fill-rule="nonzero" fill-opacity="1" /><path clip-path="url(#clip970)" d="M12.1769 947.314 Q19.4975 951.579 26.6589 953.648 Q33.8203 955.717 41.1727 955.717 Q48.5251 955.717 55.7502 953.648 Q62.9434 951.548 70.2321 947.314 L70.2321 952.407 Q62.7524 957.181 55.5274 959.568 Q48.3023 961.924 41.1727 961.924 Q34.0749 961.924 26.8817 959.568 Q19.6884 957.213 12.1769 952.407 L12.1769 947.314 Z" fill="#000000" fill-rule="nonzero" fill-opacity="1" /><path clip-path="url(#clip970)" d="M14.1184 935.697 L14.1184 927.04 L53.8723 905.969 L14.1184 905.969 L14.1184 899.731 L61.6384 899.731 L61.6384 908.388 L21.8846 929.459 L61.6384 929.459 L61.6384 935.697 L14.1184 935.697 Z" fill="#000000" fill-rule="nonzero" fill-opacity="1" /><path clip-path="url(#clip970)" d="M12.1769 888.113 L12.1769 883.021 Q19.6884 878.247 26.8817 875.891 Q34.0749 873.504 41.1727 873.504 Q48.3023 873.504 55.5274 875.891 Q62.7524 878.247 70.2321 883.021 L70.2321 888.113 Q62.9434 883.88 55.7502 881.811 Q48.5251 879.711 41.1727 879.711 Q33.8203 879.711 26.6589 881.811 Q19.4975 883.88 12.1769 888.113 Z" fill="#000000" fill-rule="nonzero" fill-opacity="1" /><path clip-path="url(#clip970)" d="M398.442 44.2197 Q401.075 45.1109 403.546 48.0275 Q406.058 50.9442 408.569 56.0483 L416.874 72.576 L408.083 72.576 L400.346 57.061 Q397.348 50.9847 394.513 48.9997 Q391.718 47.0148 386.857 47.0148 L377.945 47.0148 L377.945 72.576 L369.762 72.576 L369.762 12.096 L388.234 12.096 Q398.604 12.096 403.708 16.4305 Q408.813 20.7649 408.813 29.5149 Q408.813 35.2267 406.139 38.994 Q403.506 42.7613 398.442 44.2197 M377.945 18.8205 L377.945 40.2903 L388.234 40.2903 Q394.148 40.2903 397.146 37.5762 Q400.184 34.8216 400.184 29.5149 Q400.184 24.2082 397.146 21.5346 Q394.148 18.8205 388.234 18.8205 L377.945 18.8205 Z" fill="#000000" fill-rule="nonzero" fill-opacity="1" /><path clip-path="url(#clip970)" d="M462.163 48.0275 L462.163 51.6733 L427.892 51.6733 Q428.378 59.3701 432.51 63.421 Q436.683 67.4314 444.096 67.4314 Q448.39 67.4314 452.4 66.3781 Q456.451 65.3249 460.421 63.2184 L460.421 70.267 Q456.411 71.9684 452.198 72.8596 Q447.985 73.7508 443.65 73.7508 Q432.794 73.7508 426.434 67.4314 Q420.115 61.1119 420.115 50.3365 Q420.115 39.1965 426.11 32.6746 Q432.146 26.1121 442.354 26.1121 Q451.509 26.1121 456.816 32.0264 Q462.163 37.9003 462.163 48.0275 M454.709 45.84 Q454.628 39.7232 451.266 36.0774 Q447.944 32.4315 442.435 32.4315 Q436.197 32.4315 432.429 35.9558 Q428.702 39.4801 428.135 45.8805 L454.709 45.84 Z" fill="#000000" fill-rule="nonzero" fill-opacity="1" /><path clip-path="url(#clip970)" d="M507.047 28.9478 L507.047 35.9153 Q503.887 34.1734 500.687 33.3227 Q497.527 32.4315 494.287 32.4315 Q487.035 32.4315 483.025 37.0496 Q479.015 41.6271 479.015 49.9314 Q479.015 58.2358 483.025 62.8538 Q487.035 67.4314 494.287 67.4314 Q497.527 67.4314 500.687 66.5807 Q503.887 65.6895 507.047 63.9476 L507.047 70.8341 Q503.928 72.2924 500.565 73.0216 Q497.244 73.7508 493.476 73.7508 Q483.228 73.7508 477.192 67.3098 Q471.156 60.8689 471.156 49.9314 Q471.156 38.832 477.232 32.472 Q483.349 26.1121 493.963 26.1121 Q497.406 26.1121 500.687 26.8413 Q503.968 27.5299 507.047 28.9478 Z" fill="#000000" fill-rule="nonzero" fill-opacity="1" /><path clip-path="url(#clip970)" d="M537.591 32.4315 Q531.595 32.4315 528.112 37.1306 Q524.628 41.7891 524.628 49.9314 Q524.628 58.0738 528.071 62.7728 Q531.555 67.4314 537.591 67.4314 Q543.546 67.4314 547.029 62.7323 Q550.513 58.0333 550.513 49.9314 Q550.513 41.8701 547.029 37.1711 Q543.546 32.4315 537.591 32.4315 M537.591 26.1121 Q547.313 26.1121 552.863 32.4315 Q558.412 38.7509 558.412 49.9314 Q558.412 61.0714 552.863 67.4314 Q547.313 73.7508 537.591 73.7508 Q527.828 73.7508 522.278 67.4314 Q516.769 61.0714 516.769 49.9314 Q516.769 38.7509 522.278 32.4315 Q527.828 26.1121 537.591 26.1121 Z" fill="#000000" fill-rule="nonzero" fill-opacity="1" /><path clip-path="url(#clip970)" d="M565.42 27.2059 L573.32 27.2059 L587.498 65.2844 L601.676 27.2059 L609.575 27.2059 L592.562 72.576 L582.434 72.576 L565.42 27.2059 Z" fill="#000000" fill-rule="nonzero" fill-opacity="1" /><path clip-path="url(#clip970)" d="M658.672 48.0275 L658.672 51.6733 L624.402 51.6733 Q624.888 59.3701 629.02 63.421 Q633.192 67.4314 640.605 67.4314 Q644.899 67.4314 648.91 66.3781 Q652.961 65.3249 656.93 63.2184 L656.93 70.267 Q652.92 71.9684 648.707 72.8596 Q644.494 73.7508 640.16 73.7508 Q629.303 73.7508 622.943 67.4314 Q616.624 61.1119 616.624 50.3365 Q616.624 39.1965 622.619 32.6746 Q628.655 26.1121 638.863 26.1121 Q648.018 26.1121 653.325 32.0264 Q658.672 37.9003 658.672 48.0275 M651.219 45.84 Q651.138 39.7232 647.775 36.0774 Q644.454 32.4315 638.944 32.4315 Q632.706 32.4315 628.939 35.9558 Q625.212 39.4801 624.645 45.8805 L651.219 45.84 Z" fill="#000000" fill-rule="nonzero" fill-opacity="1" /><path clip-path="url(#clip970)" d="M697.196 34.1734 Q695.941 33.4443 694.442 33.1202 Q692.983 32.7556 691.201 32.7556 Q684.882 32.7556 681.479 36.8875 Q678.117 40.9789 678.117 48.6757 L678.117 72.576 L670.622 72.576 L670.622 27.2059 L678.117 27.2059 L678.117 34.2544 Q680.466 30.1225 684.233 28.1376 Q688.001 26.1121 693.389 26.1121 Q694.158 26.1121 695.09 26.2337 Q696.022 26.3147 697.156 26.5172 L697.196 34.1734 Z" fill="#000000" fill-rule="nonzero" fill-opacity="1" /><path clip-path="url(#clip970)" d="M741.999 48.0275 L741.999 51.6733 L707.729 51.6733 Q708.215 59.3701 712.347 63.421 Q716.519 67.4314 723.932 67.4314 Q728.226 67.4314 732.237 66.3781 Q736.288 65.3249 740.257 63.2184 L740.257 70.267 Q736.247 71.9684 732.034 72.8596 Q727.821 73.7508 723.487 73.7508 Q712.63 73.7508 706.27 67.4314 Q699.951 61.1119 699.951 50.3365 Q699.951 39.1965 705.946 32.6746 Q711.982 26.1121 722.19 26.1121 Q731.346 26.1121 736.652 32.0264 Q741.999 37.9003 741.999 48.0275 M734.546 45.84 Q734.465 39.7232 731.102 36.0774 Q727.781 32.4315 722.271 32.4315 Q716.033 32.4315 712.266 35.9558 Q708.539 39.4801 707.972 45.8805 L734.546 45.84 Z" fill="#000000" fill-rule="nonzero" fill-opacity="1" /><path clip-path="url(#clip970)" d="M784.088 34.0924 L784.088 9.54393 L791.542 9.54393 L791.542 72.576 L784.088 72.576 L784.088 65.7705 Q781.739 69.8214 778.133 71.8063 Q774.569 73.7508 769.546 73.7508 Q761.322 73.7508 756.137 67.1883 Q750.992 60.6258 750.992 49.9314 Q750.992 39.2371 756.137 32.6746 Q761.322 26.1121 769.546 26.1121 Q774.569 26.1121 778.133 28.0971 Q781.739 30.0415 784.088 34.0924 M758.689 49.9314 Q758.689 58.1548 762.051 62.8538 Q765.454 67.5124 771.368 67.5124 Q777.283 67.5124 780.686 62.8538 Q784.088 58.1548 784.088 49.9314 Q784.088 41.7081 780.686 37.0496 Q777.283 32.3505 771.368 32.3505 Q765.454 32.3505 762.051 37.0496 Q758.689 41.7081 758.689 49.9314 Z" fill="#000000" fill-rule="nonzero" fill-opacity="1" /><path clip-path="url(#clip970)" d="M863.121 49.3643 Q863.121 41.2625 859.759 36.8065 Q856.437 32.3505 850.402 32.3505 Q844.406 32.3505 841.044 36.8065 Q837.722 41.2625 837.722 49.3643 Q837.722 57.4256 841.044 61.8816 Q844.406 66.3376 850.402 66.3376 Q856.437 66.3376 859.759 61.8816 Q863.121 57.4256 863.121 49.3643 M870.575 66.9452 Q870.575 78.5308 865.43 84.1616 Q860.286 89.8329 849.672 89.8329 Q845.743 89.8329 842.259 89.2252 Q838.775 88.6581 835.494 87.4428 L835.494 80.1917 Q838.775 81.9741 841.976 82.8248 Q845.176 83.6755 848.498 83.6755 Q855.83 83.6755 859.476 79.8271 Q863.121 76.0193 863.121 68.282 L863.121 64.5957 Q860.812 68.6061 857.207 70.5911 Q853.602 72.576 848.579 72.576 Q840.234 72.576 835.13 66.2161 Q830.026 59.8562 830.026 49.3643 Q830.026 38.832 835.13 32.472 Q840.234 26.1121 848.579 26.1121 Q853.602 26.1121 857.207 28.0971 Q860.812 30.082 863.121 34.0924 L863.121 27.2059 L870.575 27.2059 L870.575 66.9452 Z" fill="#000000" fill-rule="nonzero" fill-opacity="1" /><path clip-path="url(#clip970)" d="M912.218 34.1734 Q910.963 33.4443 909.464 33.1202 Q908.005 32.7556 906.223 32.7556 Q899.904 32.7556 896.501 36.8875 Q893.139 40.9789 893.139 48.6757 L893.139 72.576 L885.644 72.576 L885.644 27.2059 L893.139 27.2059 L893.139 34.2544 Q895.488 30.1225 899.255 28.1376 Q903.023 26.1121 908.411 26.1121 Q909.18 26.1121 910.112 26.2337 Q911.044 26.3147 912.178 26.5172 L912.218 34.1734 Z" fill="#000000" fill-rule="nonzero" fill-opacity="1" /><path clip-path="url(#clip970)" d="M935.795 32.4315 Q929.799 32.4315 926.316 37.1306 Q922.832 41.7891 922.832 49.9314 Q922.832 58.0738 926.275 62.7728 Q929.759 67.4314 935.795 67.4314 Q941.749 67.4314 945.233 62.7323 Q948.717 58.0333 948.717 49.9314 Q948.717 41.8701 945.233 37.1711 Q941.749 32.4315 935.795 32.4315 M935.795 26.1121 Q945.517 26.1121 951.067 32.4315 Q956.616 38.7509 956.616 49.9314 Q956.616 61.0714 951.067 67.4314 Q945.517 73.7508 935.795 73.7508 Q926.032 73.7508 920.482 67.4314 Q914.973 61.0714 914.973 49.9314 Q914.973 38.7509 920.482 32.4315 Q926.032 26.1121 935.795 26.1121 Z" fill="#000000" fill-rule="nonzero" fill-opacity="1" /><path clip-path="url(#clip970)" d="M964.637 27.2059 L972.091 27.2059 L981.408 62.6108 L990.684 27.2059 L999.475 27.2059 L1008.79 62.6108 L1018.07 27.2059 L1025.52 27.2059 L1013.65 72.576 L1004.86 72.576 L995.1 35.3887 L985.297 72.576 L976.506 72.576 L964.637 27.2059 Z" fill="#000000" fill-rule="nonzero" fill-opacity="1" /><path clip-path="url(#clip970)" d="M1044.2 14.324 L1044.2 27.2059 L1059.55 27.2059 L1059.55 32.9987 L1044.2 32.9987 L1044.2 57.6282 Q1044.2 63.1779 1045.7 64.7578 Q1047.24 66.3376 1051.89 66.3376 L1059.55 66.3376 L1059.55 72.576 L1051.89 72.576 Q1043.27 72.576 1039.98 69.3758 Q1036.7 66.1351 1036.7 57.6282 L1036.7 32.9987 L1031.23 32.9987 L1031.23 27.2059 L1036.7 27.2059 L1036.7 14.324 L1044.2 14.324 Z" fill="#000000" fill-rule="nonzero" fill-opacity="1" /><path clip-path="url(#clip970)" d="M1107.07 45.1919 L1107.07 72.576 L1099.61 72.576 L1099.61 45.4349 Q1099.61 38.994 1097.1 35.7938 Q1094.59 32.5936 1089.57 32.5936 Q1083.53 32.5936 1080.05 36.4419 Q1076.56 40.2903 1076.56 46.9338 L1076.56 72.576 L1069.07 72.576 L1069.07 9.54393 L1076.56 9.54393 L1076.56 34.2544 Q1079.24 30.163 1082.84 28.1376 Q1086.49 26.1121 1091.23 26.1121 Q1099.05 26.1121 1103.06 30.9732 Q1107.07 35.7938 1107.07 45.1919 Z" fill="#000000" fill-rule="nonzero" fill-opacity="1" /><path clip-path="url(#clip970)" d="M1174.6 34.1734 Q1173.34 33.4443 1171.84 33.1202 Q1170.38 32.7556 1168.6 32.7556 Q1162.28 32.7556 1158.88 36.8875 Q1155.52 40.9789 1155.52 48.6757 L1155.52 72.576 L1148.02 72.576 L1148.02 27.2059 L1155.52 27.2059 L1155.52 34.2544 Q1157.87 30.1225 1161.63 28.1376 Q1165.4 26.1121 1170.79 26.1121 Q1171.56 26.1121 1172.49 26.2337 Q1173.42 26.3147 1174.55 26.5172 L1174.6 34.1734 Z" fill="#000000" fill-rule="nonzero" fill-opacity="1" /><path clip-path="url(#clip970)" d="M1203.03 49.7694 Q1194 49.7694 1190.52 51.8354 Q1187.03 53.9013 1187.03 58.8839 Q1187.03 62.8538 1189.62 65.2034 Q1192.26 67.5124 1196.75 67.5124 Q1202.95 67.5124 1206.68 63.1374 Q1210.45 58.7219 1210.45 51.4303 L1210.45 49.7694 L1203.03 49.7694 M1217.9 46.6907 L1217.9 72.576 L1210.45 72.576 L1210.45 65.6895 Q1207.89 69.8214 1204.09 71.8063 Q1200.28 73.7508 1194.77 73.7508 Q1187.8 73.7508 1183.67 69.8619 Q1179.58 65.9325 1179.58 59.3701 Q1179.58 51.7138 1184.68 47.825 Q1189.83 43.9361 1199.99 43.9361 L1210.45 43.9361 L1210.45 43.2069 Q1210.45 38.0623 1207.04 35.2672 Q1203.68 32.4315 1197.56 32.4315 Q1193.68 32.4315 1189.99 33.3632 Q1186.3 34.295 1182.9 36.1584 L1182.9 29.2718 Q1186.99 27.692 1190.84 26.9223 Q1194.69 26.1121 1198.33 26.1121 Q1208.18 26.1121 1213.04 31.2163 Q1217.9 36.3204 1217.9 46.6907 Z" fill="#000000" fill-rule="nonzero" fill-opacity="1" /><path clip-path="url(#clip970)" d="M1240.63 14.324 L1240.63 27.2059 L1255.98 27.2059 L1255.98 32.9987 L1240.63 32.9987 L1240.63 57.6282 Q1240.63 63.1779 1242.12 64.7578 Q1243.66 66.3376 1248.32 66.3376 L1255.98 66.3376 L1255.98 72.576 L1248.32 72.576 Q1239.69 72.576 1236.41 69.3758 Q1233.13 66.1351 1233.13 57.6282 L1233.13 32.9987 L1227.66 32.9987 L1227.66 27.2059 L1233.13 27.2059 L1233.13 14.324 L1240.63 14.324 Z" fill="#000000" fill-rule="nonzero" fill-opacity="1" /><path clip-path="url(#clip970)" d="M1304.59 48.0275 L1304.59 51.6733 L1270.32 51.6733 Q1270.8 59.3701 1274.94 63.421 Q1279.11 67.4314 1286.52 67.4314 Q1290.82 67.4314 1294.83 66.3781 Q1298.88 65.3249 1302.85 63.2184 L1302.85 70.267 Q1298.84 71.9684 1294.62 72.8596 Q1290.41 73.7508 1286.08 73.7508 Q1275.22 73.7508 1268.86 67.4314 Q1262.54 61.1119 1262.54 50.3365 Q1262.54 39.1965 1268.54 32.6746 Q1274.57 26.1121 1284.78 26.1121 Q1293.94 26.1121 1299.24 32.0264 Q1304.59 37.9003 1304.59 48.0275 M1297.14 45.84 Q1297.05 39.7232 1293.69 36.0774 Q1290.37 32.4315 1284.86 32.4315 Q1278.62 32.4315 1274.86 35.9558 Q1271.13 39.4801 1270.56 45.8805 L1297.14 45.84 Z" fill="#000000" fill-rule="nonzero" fill-opacity="1" /><path clip-path="url(#clip970)" d="M1318.73 62.2867 L1327.27 62.2867 L1327.27 72.576 L1318.73 72.576 L1318.73 62.2867 M1318.73 29.6769 L1327.27 29.6769 L1327.27 39.9662 L1318.73 39.9662 L1318.73 29.6769 Z" fill="#000000" fill-rule="nonzero" fill-opacity="1" /><path clip-path="url(#clip970)" d="M1401 49.3643 Q1401 41.2625 1397.64 36.8065 Q1394.32 32.3505 1388.28 32.3505 Q1382.29 32.3505 1378.92 36.8065 Q1375.6 41.2625 1375.6 49.3643 Q1375.6 57.4256 1378.92 61.8816 Q1382.29 66.3376 1388.28 66.3376 Q1394.32 66.3376 1397.64 61.8816 Q1401 57.4256 1401 49.3643 M1408.45 66.9452 Q1408.45 78.5308 1403.31 84.1616 Q1398.16 89.8329 1387.55 89.8329 Q1383.62 89.8329 1380.14 89.2252 Q1376.65 88.6581 1373.37 87.4428 L1373.37 80.1917 Q1376.65 81.9741 1379.85 82.8248 Q1383.05 83.6755 1386.38 83.6755 Q1393.71 83.6755 1397.35 79.8271 Q1401 76.0193 1401 68.282 L1401 64.5957 Q1398.69 68.6061 1395.09 70.5911 Q1391.48 72.576 1386.46 72.576 Q1378.11 72.576 1373.01 66.2161 Q1367.9 59.8562 1367.9 49.3643 Q1367.9 38.832 1373.01 32.472 Q1378.11 26.1121 1386.46 26.1121 Q1391.48 26.1121 1395.09 28.0971 Q1398.69 30.082 1401 34.0924 L1401 27.2059 L1408.45 27.2059 L1408.45 66.9452 Z" fill="#000000" fill-rule="nonzero" fill-opacity="1" /><path clip-path="url(#clip970)" d="M1450.1 34.1734 Q1448.84 33.4443 1447.34 33.1202 Q1445.88 32.7556 1444.1 32.7556 Q1437.78 32.7556 1434.38 36.8875 Q1431.02 40.9789 1431.02 48.6757 L1431.02 72.576 L1423.52 72.576 L1423.52 27.2059 L1431.02 27.2059 L1431.02 34.2544 Q1433.37 30.1225 1437.13 28.1376 Q1440.9 26.1121 1446.29 26.1121 Q1447.06 26.1121 1447.99 26.2337 Q1448.92 26.3147 1450.06 26.5172 L1450.1 34.1734 Z" fill="#000000" fill-rule="nonzero" fill-opacity="1" /><path clip-path="url(#clip970)" d="M1478.53 49.7694 Q1469.5 49.7694 1466.02 51.8354 Q1462.53 53.9013 1462.53 58.8839 Q1462.53 62.8538 1465.13 65.2034 Q1467.76 67.5124 1472.26 67.5124 Q1478.45 67.5124 1482.18 63.1374 Q1485.95 58.7219 1485.95 51.4303 L1485.95 49.7694 L1478.53 49.7694 M1493.4 46.6907 L1493.4 72.576 L1485.95 72.576 L1485.95 65.6895 Q1483.4 69.8214 1479.59 71.8063 Q1475.78 73.7508 1470.27 73.7508 Q1463.3 73.7508 1459.17 69.8619 Q1455.08 65.9325 1455.08 59.3701 Q1455.08 51.7138 1460.18 47.825 Q1465.33 43.9361 1475.5 43.9361 L1485.95 43.9361 L1485.95 43.2069 Q1485.95 38.0623 1482.55 35.2672 Q1479.18 32.4315 1473.07 32.4315 Q1469.18 32.4315 1465.49 33.3632 Q1461.8 34.295 1458.4 36.1584 L1458.4 29.2718 Q1462.49 27.692 1466.34 26.9223 Q1470.19 26.1121 1473.84 26.1121 Q1483.68 26.1121 1488.54 31.2163 Q1493.4 36.3204 1493.4 46.6907 Z" fill="#000000" fill-rule="nonzero" fill-opacity="1" /><path clip-path="url(#clip970)" d="M1538.61 34.0924 L1538.61 9.54393 L1546.06 9.54393 L1546.06 72.576 L1538.61 72.576 L1538.61 65.7705 Q1536.26 69.8214 1532.65 71.8063 Q1529.09 73.7508 1524.07 73.7508 Q1515.84 73.7508 1510.66 67.1883 Q1505.51 60.6258 1505.51 49.9314 Q1505.51 39.2371 1510.66 32.6746 Q1515.84 26.1121 1524.07 26.1121 Q1529.09 26.1121 1532.65 28.0971 Q1536.26 30.0415 1538.61 34.0924 M1513.21 49.9314 Q1513.21 58.1548 1516.57 62.8538 Q1519.98 67.5124 1525.89 67.5124 Q1531.8 67.5124 1535.21 62.8538 Q1538.61 58.1548 1538.61 49.9314 Q1538.61 41.7081 1535.21 37.0496 Q1531.8 32.3505 1525.89 32.3505 Q1519.98 32.3505 1516.57 37.0496 Q1513.21 41.7081 1513.21 49.9314 Z" fill="#000000" fill-rule="nonzero" fill-opacity="1" /><path clip-path="url(#clip970)" d="M1561.42 27.2059 L1568.87 27.2059 L1568.87 72.576 L1561.42 72.576 L1561.42 27.2059 M1561.42 9.54393 L1568.87 9.54393 L1568.87 18.9825 L1561.42 18.9825 L1561.42 9.54393 Z" fill="#000000" fill-rule="nonzero" fill-opacity="1" /><path clip-path="url(#clip970)" d="M1623.27 48.0275 L1623.27 51.6733 L1589 51.6733 Q1589.49 59.3701 1593.62 63.421 Q1597.79 67.4314 1605.21 67.4314 Q1609.5 67.4314 1613.51 66.3781 Q1617.56 65.3249 1621.53 63.2184 L1621.53 70.267 Q1617.52 71.9684 1613.31 72.8596 Q1609.1 73.7508 1604.76 73.7508 Q1593.9 73.7508 1587.54 67.4314 Q1581.23 61.1119 1581.23 50.3365 Q1581.23 39.1965 1587.22 32.6746 Q1593.26 26.1121 1603.46 26.1121 Q1612.62 26.1121 1617.93 32.0264 Q1623.27 37.9003 1623.27 48.0275 M1615.82 45.84 Q1615.74 39.7232 1612.38 36.0774 Q1609.05 32.4315 1603.55 32.4315 Q1597.31 32.4315 1593.54 35.9558 Q1589.81 39.4801 1589.25 45.8805 L1615.82 45.84 Z" fill="#000000" fill-rule="nonzero" fill-opacity="1" /><path clip-path="url(#clip970)" d="M1673.22 45.1919 L1673.22 72.576 L1665.77 72.576 L1665.77 45.4349 Q1665.77 38.994 1663.26 35.7938 Q1660.74 32.5936 1655.72 32.5936 Q1649.69 32.5936 1646.2 36.4419 Q1642.72 40.2903 1642.72 46.9338 L1642.72 72.576 L1635.22 72.576 L1635.22 27.2059 L1642.72 27.2059 L1642.72 34.2544 Q1645.39 30.163 1649 28.1376 Q1652.64 26.1121 1657.38 26.1121 Q1665.2 26.1121 1669.21 30.9732 Q1673.22 35.7938 1673.22 45.1919 Z" fill="#000000" fill-rule="nonzero" fill-opacity="1" /><path clip-path="url(#clip970)" d="M1695.46 14.324 L1695.46 27.2059 L1710.81 27.2059 L1710.81 32.9987 L1695.46 32.9987 L1695.46 57.6282 Q1695.46 63.1779 1696.96 64.7578 Q1698.5 66.3376 1703.16 66.3376 L1710.81 66.3376 L1710.81 72.576 L1703.16 72.576 Q1694.53 72.576 1691.25 69.3758 Q1687.97 66.1351 1687.97 57.6282 L1687.97 32.9987 L1682.5 32.9987 L1682.5 27.2059 L1687.97 27.2059 L1687.97 14.324 L1695.46 14.324 Z" fill="#000000" fill-rule="nonzero" fill-opacity="1" /><path clip-path="url(#clip970)" d="M1782.31 35.9153 Q1785.11 30.8922 1789 28.5022 Q1792.88 26.1121 1798.15 26.1121 Q1805.24 26.1121 1809.09 31.0947 Q1812.94 36.0368 1812.94 45.1919 L1812.94 72.576 L1805.44 72.576 L1805.44 45.4349 Q1805.44 38.913 1803.13 35.7533 Q1800.82 32.5936 1796.09 32.5936 Q1790.29 32.5936 1786.93 36.4419 Q1783.57 40.2903 1783.57 46.9338 L1783.57 72.576 L1776.07 72.576 L1776.07 45.4349 Q1776.07 38.8725 1773.76 35.7533 Q1771.46 32.5936 1766.64 32.5936 Q1760.92 32.5936 1757.56 36.4824 Q1754.2 40.3308 1754.2 46.9338 L1754.2 72.576 L1746.7 72.576 L1746.7 27.2059 L1754.2 27.2059 L1754.2 34.2544 Q1756.75 30.082 1760.32 28.0971 Q1763.88 26.1121 1768.78 26.1121 Q1773.72 26.1121 1777.17 28.6237 Q1780.65 31.1352 1782.31 35.9153 Z" fill="#000000" fill-rule="nonzero" fill-opacity="1" /><path clip-path="url(#clip970)" d="M1848.42 49.7694 Q1839.39 49.7694 1835.91 51.8354 Q1832.42 53.9013 1832.42 58.8839 Q1832.42 62.8538 1835.01 65.2034 Q1837.65 67.5124 1842.14 67.5124 Q1848.34 67.5124 1852.07 63.1374 Q1855.84 58.7219 1855.84 51.4303 L1855.84 49.7694 L1848.42 49.7694 M1863.29 46.6907 L1863.29 72.576 L1855.84 72.576 L1855.84 65.6895 Q1853.28 69.8214 1849.48 71.8063 Q1845.67 73.7508 1840.16 73.7508 Q1833.19 73.7508 1829.06 69.8619 Q1824.97 65.9325 1824.97 59.3701 Q1824.97 51.7138 1830.07 47.825 Q1835.22 43.9361 1845.38 43.9361 L1855.84 43.9361 L1855.84 43.2069 Q1855.84 38.0623 1852.43 35.2672 Q1849.07 32.4315 1842.95 32.4315 Q1839.07 32.4315 1835.38 33.3632 Q1831.69 34.295 1828.29 36.1584 L1828.29 29.2718 Q1832.38 27.692 1836.23 26.9223 Q1840.08 26.1121 1843.72 26.1121 Q1853.57 26.1121 1858.43 31.2163 Q1863.29 36.3204 1863.29 46.6907 Z" fill="#000000" fill-rule="nonzero" fill-opacity="1" /><path clip-path="url(#clip970)" d="M1886.02 14.324 L1886.02 27.2059 L1901.37 27.2059 L1901.37 32.9987 L1886.02 32.9987 L1886.02 57.6282 Q1886.02 63.1779 1887.51 64.7578 Q1889.05 66.3376 1893.71 66.3376 L1901.37 66.3376 L1901.37 72.576 L1893.71 72.576 Q1885.08 72.576 1881.8 69.3758 Q1878.52 66.1351 1878.52 57.6282 L1878.52 32.9987 L1873.05 32.9987 L1873.05 27.2059 L1878.52 27.2059 L1878.52 14.324 L1886.02 14.324 Z" fill="#000000" fill-rule="nonzero" fill-opacity="1" /><path clip-path="url(#clip970)" d="M1943.82 28.9478 L1943.82 35.9153 Q1940.66 34.1734 1937.46 33.3227 Q1934.3 32.4315 1931.06 32.4315 Q1923.81 32.4315 1919.8 37.0496 Q1915.79 41.6271 1915.79 49.9314 Q1915.79 58.2358 1919.8 62.8538 Q1923.81 67.4314 1931.06 67.4314 Q1934.3 67.4314 1937.46 66.5807 Q1940.66 65.6895 1943.82 63.9476 L1943.82 70.8341 Q1940.7 72.2924 1937.34 73.0216 Q1934.02 73.7508 1930.25 73.7508 Q1920 73.7508 1913.97 67.3098 Q1907.93 60.8689 1907.93 49.9314 Q1907.93 38.832 1914.01 32.472 Q1920.12 26.1121 1930.74 26.1121 Q1934.18 26.1121 1937.46 26.8413 Q1940.74 27.5299 1943.82 28.9478 Z" fill="#000000" fill-rule="nonzero" fill-opacity="1" /><path clip-path="url(#clip970)" d="M1994.5 45.1919 L1994.5 72.576 L1987.04 72.576 L1987.04 45.4349 Q1987.04 38.994 1984.53 35.7938 Q1982.02 32.5936 1977 32.5936 Q1970.96 32.5936 1967.48 36.4419 Q1964 40.2903 1964 46.9338 L1964 72.576 L1956.5 72.576 L1956.5 9.54393 L1964 9.54393 L1964 34.2544 Q1966.67 30.163 1970.27 28.1376 Q1973.92 26.1121 1978.66 26.1121 Q1986.48 26.1121 1990.49 30.9732 Q1994.5 35.7938 1994.5 45.1919 Z" fill="#000000" fill-rule="nonzero" fill-opacity="1" /><path clip-path="url(#clip970)" d="M2009.37 27.2059 L2016.82 27.2059 L2016.82 72.576 L2009.37 72.576 L2009.37 27.2059 M2009.37 9.54393 L2016.82 9.54393 L2016.82 18.9825 L2009.37 18.9825 L2009.37 9.54393 Z" fill="#000000" fill-rule="nonzero" fill-opacity="1" /><path clip-path="url(#clip970)" d="M2070.13 45.1919 L2070.13 72.576 L2062.68 72.576 L2062.68 45.4349 Q2062.68 38.994 2060.16 35.7938 Q2057.65 32.5936 2052.63 32.5936 Q2046.59 32.5936 2043.11 36.4419 Q2039.63 40.2903 2039.63 46.9338 L2039.63 72.576 L2032.13 72.576 L2032.13 27.2059 L2039.63 27.2059 L2039.63 34.2544 Q2042.3 30.163 2045.9 28.1376 Q2049.55 26.1121 2054.29 26.1121 Q2062.11 26.1121 2066.12 30.9732 Q2070.13 35.7938 2070.13 45.1919 Z" fill="#000000" fill-rule="nonzero" fill-opacity="1" /><path clip-path="url(#clip970)" d="M2114.85 49.3643 Q2114.85 41.2625 2111.49 36.8065 Q2108.17 32.3505 2102.13 32.3505 Q2096.14 32.3505 2092.77 36.8065 Q2089.45 41.2625 2089.45 49.3643 Q2089.45 57.4256 2092.77 61.8816 Q2096.14 66.3376 2102.13 66.3376 Q2108.17 66.3376 2111.49 61.8816 Q2114.85 57.4256 2114.85 49.3643 M2122.3 66.9452 Q2122.3 78.5308 2117.16 84.1616 Q2112.02 89.8329 2101.4 89.8329 Q2097.47 89.8329 2093.99 89.2252 Q2090.5 88.6581 2087.22 87.4428 L2087.22 80.1917 Q2090.5 81.9741 2093.71 82.8248 Q2096.91 83.6755 2100.23 83.6755 Q2107.56 83.6755 2111.21 79.8271 Q2114.85 76.0193 2114.85 68.282 L2114.85 64.5957 Q2112.54 68.6061 2108.94 70.5911 Q2105.33 72.576 2100.31 72.576 Q2091.96 72.576 2086.86 66.2161 Q2081.75 59.8562 2081.75 49.3643 Q2081.75 38.832 2086.86 32.472 Q2091.96 26.1121 2100.31 26.1121 Q2105.33 26.1121 2108.94 28.0971 Q2112.54 30.082 2114.85 34.0924 L2114.85 27.2059 L2122.3 27.2059 L2122.3 66.9452 Z" fill="#000000" fill-rule="nonzero" fill-opacity="1" /><path clip-path="url(#clip970)" d="M2158.68 27.2059 L2166.58 27.2059 L2180.76 65.2844 L2194.94 27.2059 L2202.84 27.2059 L2185.82 72.576 L2175.7 72.576 L2158.68 27.2059 Z" fill="#000000" fill-rule="nonzero" fill-opacity="1" /><path clip-path="url(#clip970)" d="M2242.05 28.5427 L2242.05 35.5912 Q2238.89 33.9709 2235.49 33.1607 Q2232.08 32.3505 2228.44 32.3505 Q2222.89 32.3505 2220.09 34.0519 Q2217.34 35.7533 2217.34 39.156 Q2217.34 41.7486 2219.32 43.2475 Q2221.31 44.7058 2227.3 46.0426 L2229.86 46.6097 Q2237.8 48.3111 2241.12 51.4303 Q2244.48 54.509 2244.48 60.0587 Q2244.48 66.3781 2239.46 70.0644 Q2234.47 73.7508 2225.72 73.7508 Q2222.08 73.7508 2218.11 73.0216 Q2214.18 72.3329 2209.8 70.9151 L2209.8 63.2184 Q2213.94 65.3654 2217.95 66.4591 Q2221.96 67.5124 2225.89 67.5124 Q2231.15 67.5124 2233.99 65.73 Q2236.82 63.9071 2236.82 60.6258 Q2236.82 57.5877 2234.76 55.9673 Q2232.73 54.3469 2225.81 52.8481 L2223.21 52.2405 Q2216.29 50.7821 2213.21 47.7845 Q2210.13 44.7463 2210.13 39.4801 Q2210.13 33.0797 2214.67 29.5959 Q2219.2 26.1121 2227.55 26.1121 Q2231.68 26.1121 2235.32 26.7198 Q2238.97 27.3274 2242.05 28.5427 Z" fill="#000000" fill-rule="nonzero" fill-opacity="1" /><path clip-path="url(#clip970)" d="M2283.04 12.096 L2291.23 12.096 L2291.23 65.6895 L2320.68 65.6895 L2320.68 72.576 L2283.04 72.576 L2283.04 12.096 Z" fill="#000000" fill-rule="nonzero" fill-opacity="1" /><path clip-path="url(#clip970)" d="M2351.38 20.1573 L2340.28 50.2555 L2362.52 50.2555 L2351.38 20.1573 M2346.77 12.096 L2356.04 12.096 L2379.09 72.576 L2370.58 72.576 L2365.08 57.061 L2337.81 57.061 L2332.3 72.576 L2323.67 72.576 L2346.77 12.096 Z" fill="#000000" fill-rule="nonzero" fill-opacity="1" /><path clip-path="url(#clip970)" d="M2387.92 12.096 L2400.12 12.096 L2415.55 53.2532 L2431.06 12.096 L2443.26 12.096 L2443.26 72.576 L2435.28 72.576 L2435.28 19.4686 L2419.68 60.9499 L2411.46 60.9499 L2395.86 19.4686 L2395.86 72.576 L2387.92 72.576 L2387.92 12.096 Z" fill="#000000" fill-rule="nonzero" fill-opacity="1" /><path clip-path="url(#clip970)" d="M2459.5 12.096 L2467.68 12.096 L2467.68 65.6895 L2497.13 65.6895 L2497.13 72.576 L2459.5 72.576 L2459.5 12.096 Z" fill="#000000" fill-rule="nonzero" fill-opacity="1" /><polyline clip-path="url(#clip971)" style="stroke:#000000; stroke-linecap:round; stroke-linejoin:round; stroke-width:12; stroke-opacity:1; fill:none" stroke-dasharray="48, 30" points="294.479,216.804 317.488,231.671 340.498,246.538 363.507,261.405 386.517,276.272 409.526,291.14 432.536,306.007 455.545,320.874 478.555,335.741 501.564,350.608 524.574,365.475 547.583,380.343 570.593,395.21 593.602,410.077 616.612,424.944 639.621,439.811 662.63,454.679 685.64,469.546 708.649,484.413 731.659,499.28 754.668,514.147 777.678,529.014 800.687,543.882 823.697,558.749 846.706,573.616 869.716,588.483 892.725,603.35 915.735,618.218 938.744,633.085 961.754,647.952 984.763,662.819 1007.77,677.686 1030.78,692.554 1053.79,707.421 1076.8,722.288 1099.81,737.155 1122.82,752.022 1145.83,766.889 1168.84,781.757 1191.85,796.624 1214.86,811.491 1237.87,826.358 1260.88,841.225 1283.89,856.093 1306.9,870.96 1329.91,885.827 1352.92,900.694 1375.92,915.561 1398.93,930.428 1421.94,945.296 1444.95,960.163 1467.96,975.03 1490.97,989.897 1513.98,1004.76 1536.99,1019.63 1560,1034.5 1583.01,1049.37 1606.02,1064.23 1629.03,1079.1 1652.04,1093.97 1675.05,1108.83 1698.06,1123.7 1721.07,1138.57 1744.08,1153.44 1767.09,1168.3 1790.1,1183.17 1813.1,1198.04 1836.11,1212.91 1859.12,1227.77 1882.13,1242.64 1905.14,1257.51 1928.15,1272.37 1951.16,1287.24 1974.17,1302.11 1997.18,1316.98 2020.19,1331.84 2043.2,1346.71 2066.21,1361.58 2089.22,1376.44 2112.23,1391.31 2135.24,1406.18 2158.25,1421.05 2181.26,1435.91 2204.27,1450.78 2227.28,1465.65 2250.28,1480.51 2273.29,1495.38 2296.3,1510.25 2319.31,1525.12 2342.32,1539.98 2365.33,1554.85 2388.34,1569.72 2411.35,1584.58 2434.36,1599.45 2457.37,1614.32 2480.38,1629.19 2503.39,1644.05 2526.4,1658.92 2549.41,1673.79 2572.42,1688.65 "/>
<polyline clip-path="url(#clip971)" style="stroke:#0000ff; stroke-linecap:round; stroke-linejoin:round; stroke-width:8; stroke-opacity:1; fill:none" points="294.479,664.727 317.488,607.553 340.498,553.172 363.507,502.032 386.517,454.583 409.526,411.276 432.536,372.559 455.545,338.882 478.555,310.695 501.564,288.447 524.574,272.588 547.583,263.567 570.593,261.834 593.602,267.83 616.612,281.512 639.621,302.109 662.63,328.793 685.64,360.735 708.649,397.105 731.659,437.074 754.668,479.813 777.678,524.494 800.687,570.286 823.697,616.361 846.706,661.89 869.716,706.044 892.725,747.993 915.735,786.908 938.744,821.96 961.754,852.321 984.763,877.16 1007.77,895.677 1030.78,907.779 1053.79,914.112 1076.8,915.362 1099.81,912.213 1122.82,905.347 1145.83,895.449 1168.84,883.203 1191.85,869.292 1214.86,854.401 1237.87,839.213 1260.88,824.412 1283.89,810.682 1306.9,798.706 1329.91,789.169 1352.92,782.754 1375.92,780.145 1398.93,782.027 1421.94,789.036 1444.95,801.163 1467.96,817.924 1490.97,838.82 1513.98,863.355 1536.99,891.032 1560,921.354 1583.01,953.825 1606.02,987.946 1629.03,1023.22 1652.04,1059.16 1675.05,1095.25 1698.06,1131.01 1721.07,1165.93 1744.08,1199.52 1767.09,1231.29 1790.1,1260.73 1813.1,1287.35 1836.11,1310.71 1859.12,1330.86 1882.13,1348.09 1905.14,1362.71 1928.15,1375 1951.16,1385.29 1974.17,1393.86 1997.18,1401.01 2020.19,1407.04 2043.2,1412.26 2066.21,1416.97 2089.22,1421.46 2112.23,1426.03 2135.24,1430.99 2158.25,1436.63 2181.26,1443.26 2204.27,1451.17 2227.28,1460.66 2250.28,1471.95 2273.29,1484.71 2296.3,1498.46 2319.31,1512.7 2342.32,1526.94 2365.33,1540.67 2388.34,1553.42 2411.35,1564.67 2434.36,1573.95 2457.37,1580.75 2480.38,1584.57 2503.39,1584.93 2526.4,1581.33 2549.41,1573.28 2572.42,1560.28 "/>
<polyline clip-path="url(#clip971)" style="stroke:#ff0000; stroke-linecap:round; stroke-linejoin:round; stroke-width:8; stroke-opacity:1; fill:none" points="294.479,279.296 317.488,296.282 340.498,313.223 363.507,330.109 386.517,346.935 409.526,363.692 432.536,380.373 455.545,396.97 478.555,413.476 501.564,429.884 524.574,446.185 547.583,462.374 570.593,478.441 593.602,494.381 616.612,510.189 639.621,525.868 662.63,541.423 685.64,556.855 708.649,572.17 731.659,587.37 754.668,602.459 777.678,617.439 800.687,632.316 823.697,647.091 846.706,661.77 869.716,676.354 892.725,690.847 915.735,705.254 938.744,719.576 961.754,733.819 984.763,747.985 1007.77,762.077 1030.78,776.099 1053.79,790.053 1076.8,803.941 1099.81,817.765 1122.82,831.528 1145.83,845.231 1168.84,858.877 1191.85,872.469 1214.86,886.008 1237.87,899.496 1260.88,912.937 1283.89,926.331 1306.9,939.682 1329.91,952.991 1352.92,966.262 1375.92,979.495 1398.93,992.694 1421.94,1005.86 1444.95,1019 1467.96,1032.1 1490.97,1045.18 1513.98,1058.24 1536.99,1071.27 1560,1084.27 1583.01,1097.26 1606.02,1110.23 1629.03,1123.18 1652.04,1136.12 1675.05,1149.04 1698.06,1161.95 1721.07,1174.85 1744.08,1187.75 1767.09,1200.63 1790.1,1213.51 1813.1,1226.39 1836.11,1239.27 1859.12,1252.14 1882.13,1265.02 1905.14,1277.9 1928.15,1290.79 1951.16,1303.69 1974.17,1316.6 1997.18,1329.52 2020.19,1342.45 2043.2,1355.4 2066.21,1368.37 2089.22,1381.36 2112.23,1394.38 2135.24,1407.42 2158.25,1420.48 2181.26,1433.58 2204.27,1446.7 2227.28,1459.86 2250.28,1473.05 2273.29,1486.29 2296.3,1499.57 2319.31,1512.9 2342.32,1526.28 2365.33,1539.72 2388.34,1553.23 2411.35,1566.81 2434.36,1580.47 2457.37,1594.21 2480.38,1608.03 2503.39,1621.95 2526.4,1635.96 2549.41,1650.07 2572.42,1664.29 "/>
<polyline clip-path="url(#clip971)" style="stroke:#008000; stroke-linecap:round; stroke-linejoin:round; stroke-width:8; stroke-opacity:1; fill:none" points="294.479,173.254 317.488,189.464 340.498,205.671 363.507,221.876 386.517,238.079 409.526,254.279 432.536,270.475 455.545,286.668 478.555,302.857 501.564,319.041 524.574,335.221 547.583,351.396 570.593,367.566 593.602,383.731 616.612,399.889 639.621,416.04 662.63,432.182 685.64,448.315 708.649,464.436 731.659,480.546 754.668,496.642 777.678,512.724 800.687,528.791 823.697,544.84 846.706,560.871 869.716,576.884 892.725,592.875 915.735,608.846 938.744,624.793 961.754,640.716 984.763,656.615 1007.77,672.487 1030.78,688.332 1053.79,704.149 1076.8,719.938 1099.81,735.699 1122.82,751.431 1145.83,767.133 1168.84,782.806 1191.85,798.448 1214.86,814.06 1237.87,829.641 1260.88,845.19 1283.89,860.707 1306.9,876.192 1329.91,891.643 1352.92,907.062 1375.92,922.447 1398.93,937.797 1421.94,953.113 1444.95,968.394 1467.96,983.64 1490.97,998.851 1513.98,1014.03 1536.99,1029.17 1560,1044.27 1583.01,1059.34 1606.02,1074.38 1629.03,1089.37 1652.04,1104.34 1675.05,1119.26 1698.06,1134.15 1721.07,1149.01 1744.08,1163.82 1767.09,1178.6 1790.1,1193.35 1813.1,1208.06 1836.11,1222.73 1859.12,1237.36 1882.13,1251.96 1905.14,1266.53 1928.15,1281.07 1951.16,1295.57 1974.17,1310.05 1997.18,1324.49 2020.19,1338.91 2043.2,1353.31 2066.21,1367.68 2089.22,1382.02 2112.23,1396.35 2135.24,1410.66 2158.25,1424.94 2181.26,1439.21 2204.27,1453.46 2227.28,1467.7 2250.28,1481.92 2273.29,1496.13 2296.3,1510.33 2319.31,1524.51 2342.32,1538.69 2365.33,1552.85 2388.34,1567.01 2411.35,1581.16 2434.36,1595.3 2457.37,1609.44 2480.38,1623.57 2503.39,1637.69 2526.4,1651.82 2549.41,1665.94 2572.42,1680.05 "/>
<polyline clip-path="url(#clip971)" style="stroke:#808080; stroke-linecap:round; stroke-linejoin:round; stroke-width:4; stroke-opacity:1; fill:none" stroke-dasharray="2, 4" points="-2188.47,1688.65 5055.37,1688.65 "/>
<path clip-path="url(#clip970)" d="M1901.47 440.536 L2560.27 440.536 L2560.27 181.336 L1901.47 181.336  Z" fill="#ffffff" fill-rule="evenodd" fill-opacity="1"/>
<polyline clip-path="url(#clip970)" style="stroke:#000000; stroke-linecap:round; stroke-linejoin:round; stroke-width:4; stroke-opacity:1; fill:none" points="1901.47,440.536 2560.27,440.536 2560.27,181.336 1901.47,181.336 1901.47,440.536 "/>
<polyline clip-path="url(#clip970)" style="stroke:#000000; stroke-linecap:round; stroke-linejoin:round; stroke-width:12; stroke-opacity:1; fill:none" stroke-dasharray="48, 30" points="1928.3,233.176 2089.27,233.176 "/>
<path clip-path="url(#clip970)" d="M2116.1 215.896 L2145.34 215.896 L2145.34 219.831 L2133.07 219.831 L2133.07 250.456 L2128.37 250.456 L2128.37 219.831 L2116.1 219.831 L2116.1 215.896 Z" fill="#000000" fill-rule="nonzero" fill-opacity="1" /><path clip-path="url(#clip970)" d="M2157.72 228.512 Q2157.01 228.095 2156.15 227.91 Q2155.32 227.702 2154.3 227.702 Q2150.69 227.702 2148.74 230.063 Q2146.82 232.401 2146.82 236.799 L2146.82 250.456 L2142.54 250.456 L2142.54 224.531 L2146.82 224.531 L2146.82 228.558 Q2148.16 226.197 2150.32 225.063 Q2152.47 223.906 2155.55 223.906 Q2155.99 223.906 2156.52 223.975 Q2157.05 224.021 2157.7 224.137 L2157.72 228.512 Z" fill="#000000" fill-rule="nonzero" fill-opacity="1" /><path clip-path="url(#clip970)" d="M2161.75 240.225 L2161.75 224.531 L2166.01 224.531 L2166.01 240.063 Q2166.01 243.743 2167.45 245.595 Q2168.88 247.424 2171.75 247.424 Q2175.2 247.424 2177.19 245.225 Q2179.21 243.026 2179.21 239.229 L2179.21 224.531 L2183.46 224.531 L2183.46 250.456 L2179.21 250.456 L2179.21 246.475 Q2177.65 248.836 2175.59 249.993 Q2173.56 251.128 2170.85 251.128 Q2166.38 251.128 2164.07 248.35 Q2161.75 245.572 2161.75 240.225 M2172.47 223.906 L2172.47 223.906 Z" fill="#000000" fill-rule="nonzero" fill-opacity="1" /><path clip-path="url(#clip970)" d="M2214.41 236.429 L2214.41 238.512 L2194.83 238.512 Q2195.11 242.91 2197.47 245.225 Q2199.85 247.516 2204.09 247.516 Q2206.54 247.516 2208.83 246.915 Q2211.15 246.313 2213.42 245.109 L2213.42 249.137 Q2211.13 250.109 2208.72 250.618 Q2206.31 251.128 2203.83 251.128 Q2197.63 251.128 2194 247.516 Q2190.39 243.905 2190.39 237.748 Q2190.39 231.382 2193.81 227.655 Q2197.26 223.906 2203.09 223.906 Q2208.33 223.906 2211.36 227.285 Q2214.41 230.642 2214.41 236.429 M2210.15 235.179 Q2210.11 231.683 2208.19 229.6 Q2206.29 227.517 2203.14 227.517 Q2199.58 227.517 2197.42 229.53 Q2195.29 231.544 2194.97 235.202 L2210.15 235.179 Z" fill="#000000" fill-rule="nonzero" fill-opacity="1" /><path clip-path="url(#clip970)" d="M2251.5 228.512 Q2250.78 228.095 2249.92 227.91 Q2249.09 227.702 2248.07 227.702 Q2244.46 227.702 2242.52 230.063 Q2240.59 232.401 2240.59 236.799 L2240.59 250.456 L2236.31 250.456 L2236.31 224.531 L2240.59 224.531 L2240.59 228.558 Q2241.94 226.197 2244.09 225.063 Q2246.24 223.906 2249.32 223.906 Q2249.76 223.906 2250.29 223.975 Q2250.83 224.021 2251.47 224.137 L2251.5 228.512 Z" fill="#000000" fill-rule="nonzero" fill-opacity="1" /><path clip-path="url(#clip970)" d="M2266.2 214.484 Q2263.09 219.808 2261.59 225.017 Q2260.08 230.225 2260.08 235.572 Q2260.08 240.919 2261.59 246.174 Q2263.12 251.405 2266.2 256.706 L2262.49 256.706 Q2259.02 251.266 2257.28 246.012 Q2255.57 240.757 2255.57 235.572 Q2255.57 230.41 2257.28 225.179 Q2259 219.947 2262.49 214.484 L2266.2 214.484 Z" fill="#000000" fill-rule="nonzero" fill-opacity="1" /><path clip-path="url(#clip970)" d="M2274.64 215.896 L2280.94 215.896 L2296.27 244.808 L2296.27 215.896 L2300.8 215.896 L2300.8 250.456 L2294.51 250.456 L2279.18 221.544 L2279.18 250.456 L2274.64 250.456 L2274.64 215.896 Z" fill="#000000" fill-rule="nonzero" fill-opacity="1" /><path clip-path="url(#clip970)" d="M2309.25 214.484 L2312.95 214.484 Q2316.43 219.947 2318.14 225.179 Q2319.88 230.41 2319.88 235.572 Q2319.88 240.757 2318.14 246.012 Q2316.43 251.266 2312.95 256.706 L2309.25 256.706 Q2312.33 251.405 2313.83 246.174 Q2315.36 240.919 2315.36 235.572 Q2315.36 230.225 2313.83 225.017 Q2312.33 219.808 2309.25 214.484 Z" fill="#000000" fill-rule="nonzero" fill-opacity="1" /><polyline clip-path="url(#clip970)" style="stroke:#0000ff; stroke-linecap:round; stroke-linejoin:round; stroke-width:8; stroke-opacity:1; fill:none" points="1928.3,285.016 2089.27,285.016 "/>
<path clip-path="url(#clip970)" d="M2141.66 297.366 L2141.66 288.083 L2134.02 288.083 L2134.02 284.241 L2146.29 284.241 L2146.29 299.079 Q2143.58 301 2140.32 301.995 Q2137.05 302.968 2133.35 302.968 Q2125.25 302.968 2120.66 298.245 Q2116.1 293.5 2116.1 285.051 Q2116.1 276.579 2120.66 271.857 Q2125.25 267.111 2133.35 267.111 Q2136.73 267.111 2139.76 267.945 Q2142.82 268.778 2145.39 270.398 L2145.39 275.375 Q2142.79 273.176 2139.88 272.065 Q2136.96 270.954 2133.74 270.954 Q2127.4 270.954 2124.21 274.496 Q2121.03 278.037 2121.03 285.051 Q2121.03 292.042 2124.21 295.583 Q2127.4 299.125 2133.74 299.125 Q2136.22 299.125 2138.16 298.708 Q2140.11 298.269 2141.66 297.366 Z" fill="#000000" fill-rule="nonzero" fill-opacity="1" /><path clip-path="url(#clip970)" d="M2169.67 280.352 Q2168.95 279.935 2168.09 279.75 Q2167.26 279.542 2166.24 279.542 Q2162.63 279.542 2160.69 281.903 Q2158.77 284.241 2158.77 288.639 L2158.77 302.296 L2154.48 302.296 L2154.48 276.371 L2158.77 276.371 L2158.77 280.398 Q2160.11 278.037 2162.26 276.903 Q2164.41 275.746 2167.49 275.746 Q2167.93 275.746 2168.46 275.815 Q2169 275.861 2169.65 275.977 L2169.67 280.352 Z" fill="#000000" fill-rule="nonzero" fill-opacity="1" /><path clip-path="url(#clip970)" d="M2185.92 289.264 Q2180.76 289.264 2178.77 290.444 Q2176.77 291.625 2176.77 294.472 Q2176.77 296.741 2178.26 298.083 Q2179.76 299.403 2182.33 299.403 Q2185.87 299.403 2188 296.903 Q2190.15 294.38 2190.15 290.213 L2190.15 289.264 L2185.92 289.264 M2194.41 287.505 L2194.41 302.296 L2190.15 302.296 L2190.15 298.361 Q2188.7 300.722 2186.52 301.856 Q2184.34 302.968 2181.2 302.968 Q2177.21 302.968 2174.85 300.745 Q2172.52 298.5 2172.52 294.75 Q2172.52 290.375 2175.43 288.153 Q2178.37 285.931 2184.18 285.931 L2190.15 285.931 L2190.15 285.514 Q2190.15 282.574 2188.21 280.977 Q2186.29 279.357 2182.79 279.357 Q2180.57 279.357 2178.46 279.889 Q2176.36 280.421 2174.41 281.486 L2174.41 277.551 Q2176.75 276.648 2178.95 276.208 Q2181.15 275.746 2183.23 275.746 Q2188.86 275.746 2191.64 278.662 Q2194.41 281.579 2194.41 287.505 Z" fill="#000000" fill-rule="nonzero" fill-opacity="1" /><path clip-path="url(#clip970)" d="M2220.25 280.306 L2220.25 266.278 L2224.51 266.278 L2224.51 302.296 L2220.25 302.296 L2220.25 298.407 Q2218.9 300.722 2216.84 301.856 Q2214.81 302.968 2211.94 302.968 Q2207.24 302.968 2204.27 299.218 Q2201.33 295.468 2201.33 289.357 Q2201.33 283.245 2204.27 279.495 Q2207.24 275.746 2211.94 275.746 Q2214.81 275.746 2216.84 276.88 Q2218.9 277.991 2220.25 280.306 M2205.73 289.357 Q2205.73 294.056 2207.65 296.741 Q2209.6 299.403 2212.98 299.403 Q2216.36 299.403 2218.3 296.741 Q2220.25 294.056 2220.25 289.357 Q2220.25 284.657 2218.3 281.995 Q2216.36 279.31 2212.98 279.31 Q2209.6 279.31 2207.65 281.995 Q2205.73 284.657 2205.73 289.357 Z" fill="#000000" fill-rule="nonzero" fill-opacity="1" /><path clip-path="url(#clip970)" d="M2233.28 276.371 L2237.54 276.371 L2237.54 302.296 L2233.28 302.296 L2233.28 276.371 M2233.28 266.278 L2237.54 266.278 L2237.54 271.671 L2233.28 271.671 L2233.28 266.278 Z" fill="#000000" fill-rule="nonzero" fill-opacity="1" /><path clip-path="url(#clip970)" d="M2268.63 288.269 L2268.63 290.352 L2249.04 290.352 Q2249.32 294.75 2251.68 297.065 Q2254.07 299.356 2258.3 299.356 Q2260.76 299.356 2263.05 298.755 Q2265.36 298.153 2267.63 296.949 L2267.63 300.977 Q2265.34 301.949 2262.93 302.458 Q2260.52 302.968 2258.05 302.968 Q2251.84 302.968 2248.21 299.356 Q2244.6 295.745 2244.6 289.588 Q2244.6 283.222 2248.02 279.495 Q2251.47 275.746 2257.31 275.746 Q2262.54 275.746 2265.57 279.125 Q2268.63 282.482 2268.63 288.269 M2264.37 287.019 Q2264.32 283.523 2262.4 281.44 Q2260.5 279.357 2257.35 279.357 Q2253.79 279.357 2251.64 281.37 Q2249.51 283.384 2249.18 287.042 L2264.37 287.019 Z" fill="#000000" fill-rule="nonzero" fill-opacity="1" /><path clip-path="url(#clip970)" d="M2297.17 286.648 L2297.17 302.296 L2292.91 302.296 L2292.91 286.787 Q2292.91 283.107 2291.47 281.278 Q2290.04 279.449 2287.17 279.449 Q2283.72 279.449 2281.73 281.648 Q2279.74 283.847 2279.74 287.644 L2279.74 302.296 L2275.45 302.296 L2275.45 276.371 L2279.74 276.371 L2279.74 280.398 Q2281.27 278.06 2283.33 276.903 Q2285.41 275.746 2288.12 275.746 Q2292.58 275.746 2294.88 278.523 Q2297.17 281.278 2297.17 286.648 Z" fill="#000000" fill-rule="nonzero" fill-opacity="1" /><path clip-path="url(#clip970)" d="M2309.88 269.009 L2309.88 276.371 L2318.65 276.371 L2318.65 279.681 L2309.88 279.681 L2309.88 293.755 Q2309.88 296.926 2310.73 297.829 Q2311.61 298.731 2314.27 298.731 L2318.65 298.731 L2318.65 302.296 L2314.27 302.296 Q2309.34 302.296 2307.47 300.468 Q2305.59 298.616 2305.59 293.755 L2305.59 279.681 L2302.47 279.681 L2302.47 276.371 L2305.59 276.371 L2305.59 269.009 L2309.88 269.009 Z" fill="#000000" fill-rule="nonzero" fill-opacity="1" /><path clip-path="url(#clip970)" d="M2324.44 267.736 L2331.4 267.736 L2340.22 291.255 L2349.09 267.736 L2356.06 267.736 L2356.06 302.296 L2351.5 302.296 L2351.5 271.949 L2342.58 295.653 L2337.89 295.653 L2328.97 271.949 L2328.97 302.296 L2324.44 302.296 L2324.44 267.736 Z" fill="#000000" fill-rule="nonzero" fill-opacity="1" /><path clip-path="url(#clip970)" d="M2376.94 289.264 Q2371.77 289.264 2369.78 290.444 Q2367.79 291.625 2367.79 294.472 Q2367.79 296.741 2369.27 298.083 Q2370.78 299.403 2373.35 299.403 Q2376.89 299.403 2379.02 296.903 Q2381.17 294.38 2381.17 290.213 L2381.17 289.264 L2376.94 289.264 M2385.43 287.505 L2385.43 302.296 L2381.17 302.296 L2381.17 298.361 Q2379.71 300.722 2377.54 301.856 Q2375.36 302.968 2372.21 302.968 Q2368.23 302.968 2365.87 300.745 Q2363.53 298.5 2363.53 294.75 Q2363.53 290.375 2366.45 288.153 Q2369.39 285.931 2375.2 285.931 L2381.17 285.931 L2381.17 285.514 Q2381.17 282.574 2379.23 280.977 Q2377.31 279.357 2373.81 279.357 Q2371.59 279.357 2369.48 279.889 Q2367.38 280.421 2365.43 281.486 L2365.43 277.551 Q2367.77 276.648 2369.97 276.208 Q2372.17 275.746 2374.25 275.746 Q2379.88 275.746 2382.65 278.662 Q2385.43 281.579 2385.43 287.505 Z" fill="#000000" fill-rule="nonzero" fill-opacity="1" /><path clip-path="url(#clip970)" d="M2398.42 269.009 L2398.42 276.371 L2407.19 276.371 L2407.19 279.681 L2398.42 279.681 L2398.42 293.755 Q2398.42 296.926 2399.27 297.829 Q2400.15 298.731 2402.82 298.731 L2407.19 298.731 L2407.19 302.296 L2402.82 302.296 Q2397.88 302.296 2396.01 300.468 Q2394.13 298.616 2394.13 293.755 L2394.13 279.681 L2391.01 279.681 L2391.01 276.371 L2394.13 276.371 L2394.13 269.009 L2398.42 269.009 Z" fill="#000000" fill-rule="nonzero" fill-opacity="1" /><path clip-path="url(#clip970)" d="M2431.45 277.366 L2431.45 281.347 Q2429.64 280.352 2427.82 279.866 Q2426.01 279.357 2424.16 279.357 Q2420.01 279.357 2417.72 281.995 Q2415.43 284.611 2415.43 289.357 Q2415.43 294.102 2417.72 296.741 Q2420.01 299.356 2424.16 299.356 Q2426.01 299.356 2427.82 298.87 Q2429.64 298.361 2431.45 297.366 L2431.45 301.301 Q2429.67 302.134 2427.75 302.551 Q2425.85 302.968 2423.69 302.968 Q2417.84 302.968 2414.39 299.287 Q2410.94 295.607 2410.94 289.357 Q2410.94 283.014 2414.41 279.38 Q2417.91 275.746 2423.97 275.746 Q2425.94 275.746 2427.82 276.162 Q2429.69 276.556 2431.45 277.366 Z" fill="#000000" fill-rule="nonzero" fill-opacity="1" /><path clip-path="url(#clip970)" d="M2460.41 286.648 L2460.41 302.296 L2456.15 302.296 L2456.15 286.787 Q2456.15 283.107 2454.71 281.278 Q2453.28 279.449 2450.41 279.449 Q2446.96 279.449 2444.97 281.648 Q2442.98 283.847 2442.98 287.644 L2442.98 302.296 L2438.69 302.296 L2438.69 266.278 L2442.98 266.278 L2442.98 280.398 Q2444.5 278.06 2446.57 276.903 Q2448.65 275.746 2451.36 275.746 Q2455.82 275.746 2458.12 278.523 Q2460.41 281.278 2460.41 286.648 Z" fill="#000000" fill-rule="nonzero" fill-opacity="1" /><path clip-path="url(#clip970)" d="M2468.9 276.371 L2473.16 276.371 L2473.16 302.296 L2468.9 302.296 L2468.9 276.371 M2468.9 266.278 L2473.16 266.278 L2473.16 271.671 L2468.9 271.671 L2468.9 266.278 Z" fill="#000000" fill-rule="nonzero" fill-opacity="1" /><path clip-path="url(#clip970)" d="M2503.63 286.648 L2503.63 302.296 L2499.37 302.296 L2499.37 286.787 Q2499.37 283.107 2497.93 281.278 Q2496.5 279.449 2493.63 279.449 Q2490.18 279.449 2488.19 281.648 Q2486.19 283.847 2486.19 287.644 L2486.19 302.296 L2481.91 302.296 L2481.91 276.371 L2486.19 276.371 L2486.19 280.398 Q2487.72 278.06 2489.78 276.903 Q2491.87 275.746 2494.57 275.746 Q2499.04 275.746 2501.33 278.523 Q2503.63 281.278 2503.63 286.648 Z" fill="#000000" fill-rule="nonzero" fill-opacity="1" /><path clip-path="url(#clip970)" d="M2529.18 289.032 Q2529.18 284.403 2527.26 281.857 Q2525.36 279.31 2521.91 279.31 Q2518.49 279.31 2516.56 281.857 Q2514.67 284.403 2514.67 289.032 Q2514.67 293.639 2516.56 296.185 Q2518.49 298.731 2521.91 298.731 Q2525.36 298.731 2527.26 296.185 Q2529.18 293.639 2529.18 289.032 M2533.44 299.079 Q2533.44 305.699 2530.5 308.917 Q2527.56 312.157 2521.5 312.157 Q2519.25 312.157 2517.26 311.81 Q2515.27 311.486 2513.39 310.792 L2513.39 306.648 Q2515.27 307.667 2517.1 308.153 Q2518.93 308.639 2520.82 308.639 Q2525.01 308.639 2527.1 306.44 Q2529.18 304.264 2529.18 299.843 L2529.18 297.736 Q2527.86 300.028 2525.8 301.162 Q2523.74 302.296 2520.87 302.296 Q2516.1 302.296 2513.19 298.662 Q2510.27 295.028 2510.27 289.032 Q2510.27 283.014 2513.19 279.38 Q2516.1 275.746 2520.87 275.746 Q2523.74 275.746 2525.8 276.88 Q2527.86 278.014 2529.18 280.306 L2529.18 276.371 L2533.44 276.371 L2533.44 299.079 Z" fill="#000000" fill-rule="nonzero" fill-opacity="1" /><polyline clip-path="url(#clip970)" style="stroke:#ff0000; stroke-linecap:round; stroke-linejoin:round; stroke-width:8; stroke-opacity:1; fill:none" points="1928.3,336.856 2089.27,336.856 "/>
<path clip-path="url(#clip970)" d="M2131.94 324.183 L2125.59 341.382 L2138.3 341.382 L2131.94 324.183 M2129.3 319.576 L2134.6 319.576 L2147.77 354.136 L2142.91 354.136 L2139.76 345.271 L2124.18 345.271 L2121.03 354.136 L2116.1 354.136 L2129.3 319.576 Z" fill="#000000" fill-rule="nonzero" fill-opacity="1" /><path clip-path="url(#clip970)" d="M2175.55 349.206 L2175.55 339.923 L2167.91 339.923 L2167.91 336.081 L2180.18 336.081 L2180.18 350.919 Q2177.47 352.84 2174.21 353.835 Q2170.94 354.808 2167.24 354.808 Q2159.14 354.808 2154.55 350.085 Q2149.99 345.34 2149.99 336.891 Q2149.99 328.419 2154.55 323.697 Q2159.14 318.951 2167.24 318.951 Q2170.62 318.951 2173.65 319.785 Q2176.71 320.618 2179.27 322.238 L2179.27 327.215 Q2176.68 325.016 2173.77 323.905 Q2170.85 322.794 2167.63 322.794 Q2161.29 322.794 2158.09 326.336 Q2154.92 329.877 2154.92 336.891 Q2154.92 343.882 2158.09 347.423 Q2161.29 350.965 2167.63 350.965 Q2170.11 350.965 2172.05 350.548 Q2174 350.109 2175.55 349.206 Z" fill="#000000" fill-rule="nonzero" fill-opacity="1" /><path clip-path="url(#clip970)" d="M2188.72 319.576 L2195.69 319.576 L2204.51 343.095 L2213.37 319.576 L2220.34 319.576 L2220.34 354.136 L2215.78 354.136 L2215.78 323.789 L2206.87 347.493 L2202.17 347.493 L2193.26 323.789 L2193.26 354.136 L2188.72 354.136 L2188.72 319.576 Z" fill="#000000" fill-rule="nonzero" fill-opacity="1" /><polyline clip-path="url(#clip970)" style="stroke:#008000; stroke-linecap:round; stroke-linejoin:round; stroke-width:8; stroke-opacity:1; fill:none" points="1928.3,388.696 2089.27,388.696 "/>
<path clip-path="url(#clip970)" d="M2116.1 371.416 L2120.78 371.416 L2120.78 402.041 L2137.61 402.041 L2137.61 405.976 L2116.1 405.976 L2116.1 371.416 Z" fill="#000000" fill-rule="nonzero" fill-opacity="1" /><path clip-path="url(#clip970)" d="M2155.15 376.023 L2148.81 393.222 L2161.52 393.222 L2155.15 376.023 M2152.52 371.416 L2157.82 371.416 L2170.99 405.976 L2166.13 405.976 L2162.98 397.111 L2147.4 397.111 L2144.25 405.976 L2139.32 405.976 L2152.52 371.416 Z" fill="#000000" fill-rule="nonzero" fill-opacity="1" /><path clip-path="url(#clip970)" d="M2176.03 371.416 L2183 371.416 L2191.82 394.935 L2200.69 371.416 L2207.65 371.416 L2207.65 405.976 L2203.09 405.976 L2203.09 375.629 L2194.18 399.333 L2189.48 399.333 L2180.57 375.629 L2180.57 405.976 L2176.03 405.976 L2176.03 371.416 Z" fill="#000000" fill-rule="nonzero" fill-opacity="1" /><path clip-path="url(#clip970)" d="M2216.94 371.416 L2221.61 371.416 L2221.61 402.041 L2238.44 402.041 L2238.44 405.976 L2216.94 405.976 L2216.94 371.416 Z" fill="#000000" fill-rule="nonzero" fill-opacity="1" /></svg>
