<?xml version="1.0" encoding="utf-8"?>
<svg xmlns="http://www.w3.org/2000/svg" xmlns:xlink="http://www.w3.org/1999/xlink" width="672" height="480" viewBox="0 0 2688 1920">
<defs>
  <clipPath id="clip070">
    <rect x="0" y="0" width="2688" height="1920"/>
  </clipPath>
</defs>
<path clip-path="url(#clip070)" d="M0 1920 L2688 1920 L2688 -4.26326e-14 L0 -4.26326e-14  Z" fill="#ffffff" fill-rule="evenodd" fill-opacity="1"/>
<defs>
  <clipPath id="clip071">
    <rect x="256" y="127" width="2385" height="1607"/>
  </clipPath>
</defs>
<path clip-path="url(#clip070)" d="M256.302 1734.12 L2640.76 1734.12 L2640.76 127.792 L256.302 127.792  Z" fill="#ffffff" fill-rule="evenodd" fill-opacity="1"/>
<polyline clip-path="url(#clip071)" style="stroke:#000000; stroke-linecap:round; stroke-linejoin:round; stroke-width:2; stroke-opacity:0.1; fill:none" points="323.787,1734.12 323.787,127.792 "/>
<polyline clip-path="url(#clip071)" style="stroke:#000000; stroke-linecap:round; stroke-linejoin:round; stroke-width:2; stroke-opacity:0.1; fill:none" points="886.158,1734.12 886.158,127.792 "/>
<polyline clip-path="url(#clip071)" style="stroke:#000000; stroke-linecap:round; stroke-linejoin:round; stroke-width:2; stroke-opacity:0.1; fill:none" points="1448.53,1734.12 1448.53,127.792 "/>
<polyline clip-path="url(#clip071)" style="stroke:#000000; stroke-linecap:round; stroke-linejoin:round; stroke-width:2; stroke-opacity:0.1; fill:none" points="2010.9,1734.12 2010.9,127.792 "/>
<polyline clip-path="url(#clip071)" style="stroke:#000000; stroke-linecap:round; stroke-linejoin:round; stroke-width:2; stroke-opacity:0.1; fill:none" points="2573.27,1734.12 2573.27,127.792 "/>
<polyline clip-path="url(#clip071)" style="stroke:#000000; stroke-linecap:round; stroke-linejoin:round; stroke-width:2; stroke-opacity:0.1; fill:none" points="256.302,1458.79 2640.76,1458.79 "/>
<polyline clip-path="url(#clip071)" style="stroke:#000000; stroke-linecap:round; stroke-linejoin:round; stroke-width:2; stroke-opacity:0.1; fill:none" points="256.302,1157.93 2640.76,1157.93 "/>
<polyline clip-path="url(#clip071)" style="stroke:#000000; stroke-linecap:round; stroke-linejoin:round; stroke-width:2; stroke-opacity:0.1; fill:none" points="256.302,857.071 2640.76,857.071 "/>
<polyline clip-path="url(#clip071)" style="stroke:#000000; stroke-linecap:round; stroke-linejoin:round; stroke-width:2; stroke-opacity:0.1; fill:none" points="256.302,556.21 2640.76,556.21 "/>
<polyline clip-path="url(#clip071)" style="stroke:#000000; stroke-linecap:round; stroke-linejoin:round; stroke-width:2; stroke-opacity:0.1; fill:none" points="256.302,255.349 2640.76,255.349 "/>
<polyline clip-path="url(#clip070)" style="stroke:#000000; stroke-linecap:round; stroke-linejoin:round; stroke-width:4; stroke-opacity:1; fill:none" points="256.302,1734.12 2640.76,1734.12 "/>
<polyline clip-path="url(#clip070)" style="stroke:#000000; stroke-linecap:round; stroke-linejoin:round; stroke-width:4; stroke-opacity:1; fill:none" points="323.787,1734.12 323.787,1715.22 "/>
<polyline clip-path="url(#clip070)" style="stroke:#000000; stroke-linecap:round; stroke-linejoin:round; stroke-width:4; stroke-opacity:1; fill:none" points="886.158,1734.12 886.158,1715.22 "/>
<polyline clip-path="url(#clip070)" style="stroke:#000000; stroke-linecap:round; stroke-linejoin:round; stroke-width:4; stroke-opacity:1; fill:none" points="1448.53,1734.12 1448.53,1715.22 "/>
<polyline clip-path="url(#clip070)" style="stroke:#000000; stroke-linecap:round; stroke-linejoin:round; stroke-width:4; stroke-opacity:1; fill:none" points="2010.9,1734.12 2010.9,1715.22 "/>
<polyline clip-path="url(#clip070)" style="stroke:#000000; stroke-linecap:round; stroke-linejoin:round; stroke-width:4; stroke-opacity:1; fill:none" points="2573.27,1734.12 2573.27,1715.22 "/>
<path clip-path="url(#clip070)" d="M271.009 1767.34 Q267.398 1767.34 265.57 1770.9 Q263.764 1774.45 263.764 1781.58 Q263.764 1788.68 265.57 1792.25 Q267.398 1795.79 271.009 1795.79 Q274.644 1795.79 276.449 1792.25 Q278.278 1788.68 278.278 1781.58 Q278.278 1774.45 276.449 1770.9 Q274.644 1767.34 271.009 1767.34 M271.009 1763.64 Q276.82 1763.64 279.875 1768.24 Q282.954 1772.83 282.954 1781.58 Q282.954 1790.3 279.875 1794.91 Q276.82 1799.49 271.009 1799.49 Q265.199 1799.49 262.121 1794.91 Q259.065 1790.3 259.065 1781.58 Q259.065 1772.83 262.121 1768.24 Q265.199 1763.64 271.009 1763.64 Z" fill="#000000" fill-rule="nonzero" fill-opacity="1" /><path clip-path="url(#clip070)" d="M291.171 1792.94 L296.056 1792.94 L296.056 1798.82 L291.171 1798.82 L291.171 1792.94 Z" fill="#000000" fill-rule="nonzero" fill-opacity="1" /><path clip-path="url(#clip070)" d="M316.241 1767.34 Q312.63 1767.34 310.801 1770.9 Q308.995 1774.45 308.995 1781.58 Q308.995 1788.68 310.801 1792.25 Q312.63 1795.79 316.241 1795.79 Q319.875 1795.79 321.68 1792.25 Q323.509 1788.68 323.509 1781.58 Q323.509 1774.45 321.68 1770.9 Q319.875 1767.34 316.241 1767.34 M316.241 1763.64 Q322.051 1763.64 325.106 1768.24 Q328.185 1772.83 328.185 1781.58 Q328.185 1790.3 325.106 1794.91 Q322.051 1799.49 316.241 1799.49 Q310.431 1799.49 307.352 1794.91 Q304.296 1790.3 304.296 1781.58 Q304.296 1772.83 307.352 1768.24 Q310.431 1763.64 316.241 1763.64 Z" fill="#000000" fill-rule="nonzero" fill-opacity="1" /><path clip-path="url(#clip070)" d="M346.403 1767.34 Q342.791 1767.34 340.963 1770.9 Q339.157 1774.45 339.157 1781.58 Q339.157 1788.68 340.963 1792.25 Q342.791 1795.79 346.403 1795.79 Q350.037 1795.79 351.842 1792.25 Q353.671 1788.68 353.671 1781.58 Q353.671 1774.45 351.842 1770.9 Q350.037 1767.34 346.403 1767.34 M346.403 1763.64 Q352.213 1763.64 355.268 1768.24 Q358.347 1772.83 358.347 1781.58 Q358.347 1790.3 355.268 1794.91 Q352.213 1799.49 346.403 1799.49 Q340.592 1799.49 337.514 1794.91 Q334.458 1790.3 334.458 1781.58 Q334.458 1772.83 337.514 1768.24 Q340.592 1763.64 346.403 1763.64 Z" fill="#000000" fill-rule="nonzero" fill-opacity="1" /><path clip-path="url(#clip070)" d="M376.564 1767.34 Q372.953 1767.34 371.125 1770.9 Q369.319 1774.45 369.319 1781.58 Q369.319 1788.68 371.125 1792.25 Q372.953 1795.79 376.564 1795.79 Q380.199 1795.79 382.004 1792.25 Q383.833 1788.68 383.833 1781.58 Q383.833 1774.45 382.004 1770.9 Q380.199 1767.34 376.564 1767.34 M376.564 1763.64 Q382.375 1763.64 385.43 1768.24 Q388.509 1772.83 388.509 1781.58 Q388.509 1790.3 385.43 1794.91 Q382.375 1799.49 376.564 1799.49 Q370.754 1799.49 367.676 1794.91 Q364.62 1790.3 364.62 1781.58 Q364.62 1772.83 367.676 1768.24 Q370.754 1763.64 376.564 1763.64 Z" fill="#000000" fill-rule="nonzero" fill-opacity="1" /><path clip-path="url(#clip070)" d="M833.878 1767.34 Q830.267 1767.34 828.438 1770.9 Q826.633 1774.45 826.633 1781.58 Q826.633 1788.68 828.438 1792.25 Q830.267 1795.79 833.878 1795.79 Q837.512 1795.79 839.318 1792.25 Q841.147 1788.68 841.147 1781.58 Q841.147 1774.45 839.318 1770.9 Q837.512 1767.34 833.878 1767.34 M833.878 1763.64 Q839.688 1763.64 842.744 1768.24 Q845.823 1772.83 845.823 1781.58 Q845.823 1790.3 842.744 1794.91 Q839.688 1799.49 833.878 1799.49 Q828.068 1799.49 824.989 1794.91 Q821.934 1790.3 821.934 1781.58 Q821.934 1772.83 824.989 1768.24 Q828.068 1763.64 833.878 1763.64 Z" fill="#000000" fill-rule="nonzero" fill-opacity="1" /><path clip-path="url(#clip070)" d="M854.04 1792.94 L858.924 1792.94 L858.924 1798.82 L854.04 1798.82 L854.04 1792.94 Z" fill="#000000" fill-rule="nonzero" fill-opacity="1" /><path clip-path="url(#clip070)" d="M879.109 1767.34 Q875.498 1767.34 873.67 1770.9 Q871.864 1774.45 871.864 1781.58 Q871.864 1788.68 873.67 1792.25 Q875.498 1795.79 879.109 1795.79 Q882.744 1795.79 884.549 1792.25 Q886.378 1788.68 886.378 1781.58 Q886.378 1774.45 884.549 1770.9 Q882.744 1767.34 879.109 1767.34 M879.109 1763.64 Q884.92 1763.64 887.975 1768.24 Q891.054 1772.83 891.054 1781.58 Q891.054 1790.3 887.975 1794.91 Q884.92 1799.49 879.109 1799.49 Q873.299 1799.49 870.221 1794.91 Q867.165 1790.3 867.165 1781.58 Q867.165 1772.83 870.221 1768.24 Q873.299 1763.64 879.109 1763.64 Z" fill="#000000" fill-rule="nonzero" fill-opacity="1" /><path clip-path="url(#clip070)" d="M903.299 1794.89 L919.619 1794.89 L919.619 1798.82 L897.674 1798.82 L897.674 1794.89 Q900.336 1792.13 904.92 1787.5 Q909.526 1782.85 910.707 1781.51 Q912.952 1778.98 913.832 1777.25 Q914.734 1775.49 914.734 1773.8 Q914.734 1771.04 912.79 1769.31 Q910.869 1767.57 907.767 1767.57 Q905.568 1767.57 903.114 1768.34 Q900.683 1769.1 897.906 1770.65 L897.906 1765.93 Q900.73 1764.79 903.183 1764.21 Q905.637 1763.64 907.674 1763.64 Q913.044 1763.64 916.239 1766.32 Q919.433 1769.01 919.433 1773.5 Q919.433 1775.63 918.623 1777.55 Q917.836 1779.45 915.73 1782.04 Q915.151 1782.71 912.049 1785.93 Q908.947 1789.12 903.299 1794.89 Z" fill="#000000" fill-rule="nonzero" fill-opacity="1" /><path clip-path="url(#clip070)" d="M929.48 1764.26 L947.836 1764.26 L947.836 1768.2 L933.762 1768.2 L933.762 1776.67 Q934.78 1776.32 935.799 1776.16 Q936.818 1775.97 937.836 1775.97 Q943.623 1775.97 947.003 1779.15 Q950.382 1782.32 950.382 1787.73 Q950.382 1793.31 946.91 1796.41 Q943.438 1799.49 937.118 1799.49 Q934.943 1799.49 932.674 1799.12 Q930.429 1798.75 928.021 1798.01 L928.021 1793.31 Q930.105 1794.45 932.327 1795 Q934.549 1795.56 937.026 1795.56 Q941.03 1795.56 943.368 1793.45 Q945.706 1791.34 945.706 1787.73 Q945.706 1784.12 943.368 1782.02 Q941.03 1779.91 937.026 1779.91 Q935.151 1779.91 933.276 1780.33 Q931.424 1780.74 929.48 1781.62 L929.48 1764.26 Z" fill="#000000" fill-rule="nonzero" fill-opacity="1" /><path clip-path="url(#clip070)" d="M1395.75 1767.34 Q1392.14 1767.34 1390.31 1770.9 Q1388.51 1774.45 1388.51 1781.58 Q1388.51 1788.68 1390.31 1792.25 Q1392.14 1795.79 1395.75 1795.79 Q1399.39 1795.79 1401.19 1792.25 Q1403.02 1788.68 1403.02 1781.58 Q1403.02 1774.45 1401.19 1770.9 Q1399.39 1767.34 1395.75 1767.34 M1395.75 1763.64 Q1401.56 1763.64 1404.62 1768.24 Q1407.7 1772.83 1407.7 1781.58 Q1407.7 1790.3 1404.62 1794.91 Q1401.56 1799.49 1395.75 1799.49 Q1389.94 1799.49 1386.86 1794.91 Q1383.81 1790.3 1383.81 1781.58 Q1383.81 1772.83 1386.86 1768.24 Q1389.94 1763.64 1395.75 1763.64 Z" fill="#000000" fill-rule="nonzero" fill-opacity="1" /><path clip-path="url(#clip070)" d="M1415.91 1792.94 L1420.8 1792.94 L1420.8 1798.82 L1415.91 1798.82 L1415.91 1792.94 Z" fill="#000000" fill-rule="nonzero" fill-opacity="1" /><path clip-path="url(#clip070)" d="M1440.98 1767.34 Q1437.37 1767.34 1435.54 1770.9 Q1433.74 1774.45 1433.74 1781.58 Q1433.74 1788.68 1435.54 1792.25 Q1437.37 1795.79 1440.98 1795.79 Q1444.62 1795.79 1446.42 1792.25 Q1448.25 1788.68 1448.25 1781.58 Q1448.25 1774.45 1446.42 1770.9 Q1444.62 1767.34 1440.98 1767.34 M1440.98 1763.64 Q1446.79 1763.64 1449.85 1768.24 Q1452.93 1772.83 1452.93 1781.58 Q1452.93 1790.3 1449.85 1794.91 Q1446.79 1799.49 1440.98 1799.49 Q1435.17 1799.49 1432.09 1794.91 Q1429.04 1790.3 1429.04 1781.58 Q1429.04 1772.83 1432.09 1768.24 Q1435.17 1763.64 1440.98 1763.64 Z" fill="#000000" fill-rule="nonzero" fill-opacity="1" /><path clip-path="url(#clip070)" d="M1461.19 1764.26 L1479.55 1764.26 L1479.55 1768.2 L1465.47 1768.2 L1465.47 1776.67 Q1466.49 1776.32 1467.51 1776.16 Q1468.53 1775.97 1469.55 1775.97 Q1475.33 1775.97 1478.71 1779.15 Q1482.09 1782.32 1482.09 1787.73 Q1482.09 1793.31 1478.62 1796.41 Q1475.15 1799.49 1468.83 1799.49 Q1466.65 1799.49 1464.39 1799.12 Q1462.14 1798.75 1459.73 1798.01 L1459.73 1793.31 Q1461.82 1794.45 1464.04 1795 Q1466.26 1795.56 1468.74 1795.56 Q1472.74 1795.56 1475.08 1793.45 Q1477.42 1791.34 1477.42 1787.73 Q1477.42 1784.12 1475.08 1782.02 Q1472.74 1779.91 1468.74 1779.91 Q1466.86 1779.91 1464.99 1780.33 Q1463.14 1780.74 1461.19 1781.62 L1461.19 1764.26 Z" fill="#000000" fill-rule="nonzero" fill-opacity="1" /><path clip-path="url(#clip070)" d="M1501.31 1767.34 Q1497.7 1767.34 1495.87 1770.9 Q1494.06 1774.45 1494.06 1781.58 Q1494.06 1788.68 1495.87 1792.25 Q1497.7 1795.79 1501.31 1795.79 Q1504.94 1795.79 1506.75 1792.25 Q1508.58 1788.68 1508.58 1781.58 Q1508.58 1774.45 1506.75 1770.9 Q1504.94 1767.34 1501.31 1767.34 M1501.31 1763.64 Q1507.12 1763.64 1510.17 1768.24 Q1513.25 1772.83 1513.25 1781.58 Q1513.25 1790.3 1510.17 1794.91 Q1507.12 1799.49 1501.31 1799.49 Q1495.5 1799.49 1492.42 1794.91 Q1489.36 1790.3 1489.36 1781.58 Q1489.36 1772.83 1492.42 1768.24 Q1495.5 1763.64 1501.31 1763.64 Z" fill="#000000" fill-rule="nonzero" fill-opacity="1" /><path clip-path="url(#clip070)" d="M1958.62 1767.34 Q1955.01 1767.34 1953.18 1770.9 Q1951.38 1774.45 1951.38 1781.58 Q1951.38 1788.68 1953.18 1792.25 Q1955.01 1795.79 1958.62 1795.79 Q1962.25 1795.79 1964.06 1792.25 Q1965.89 1788.68 1965.89 1781.58 Q1965.89 1774.45 1964.06 1770.9 Q1962.25 1767.34 1958.62 1767.34 M1958.62 1763.64 Q1964.43 1763.64 1967.49 1768.24 Q1970.56 1772.83 1970.56 1781.58 Q1970.56 1790.3 1967.49 1794.91 Q1964.43 1799.49 1958.62 1799.49 Q1952.81 1799.49 1949.73 1794.91 Q1946.68 1790.3 1946.68 1781.58 Q1946.68 1772.83 1949.73 1768.24 Q1952.81 1763.64 1958.62 1763.64 Z" fill="#000000" fill-rule="nonzero" fill-opacity="1" /><path clip-path="url(#clip070)" d="M1978.78 1792.94 L1983.67 1792.94 L1983.67 1798.82 L1978.78 1798.82 L1978.78 1792.94 Z" fill="#000000" fill-rule="nonzero" fill-opacity="1" /><path clip-path="url(#clip070)" d="M2003.85 1767.34 Q2000.24 1767.34 1998.41 1770.9 Q1996.61 1774.45 1996.61 1781.58 Q1996.61 1788.68 1998.41 1792.25 Q2000.24 1795.79 2003.85 1795.79 Q2007.49 1795.79 2009.29 1792.25 Q2011.12 1788.68 2011.12 1781.58 Q2011.12 1774.45 2009.29 1770.9 Q2007.49 1767.34 2003.85 1767.34 M2003.85 1763.64 Q2009.66 1763.64 2012.72 1768.24 Q2015.8 1772.83 2015.8 1781.58 Q2015.8 1790.3 2012.72 1794.91 Q2009.66 1799.49 2003.85 1799.49 Q1998.04 1799.49 1994.96 1794.91 Q1991.91 1790.3 1991.91 1781.58 Q1991.91 1772.83 1994.96 1768.24 Q1998.04 1763.64 2003.85 1763.64 Z" fill="#000000" fill-rule="nonzero" fill-opacity="1" /><path clip-path="url(#clip070)" d="M2022.83 1764.26 L2045.06 1764.26 L2045.06 1766.25 L2032.51 1798.82 L2027.62 1798.82 L2039.43 1768.2 L2022.83 1768.2 L2022.83 1764.26 Z" fill="#000000" fill-rule="nonzero" fill-opacity="1" /><path clip-path="url(#clip070)" d="M2054.22 1764.26 L2072.58 1764.26 L2072.58 1768.2 L2058.5 1768.2 L2058.5 1776.67 Q2059.52 1776.32 2060.54 1776.16 Q2061.56 1775.97 2062.58 1775.97 Q2068.37 1775.97 2071.74 1779.15 Q2075.12 1782.32 2075.12 1787.73 Q2075.12 1793.31 2071.65 1796.41 Q2068.18 1799.49 2061.86 1799.49 Q2059.68 1799.49 2057.42 1799.12 Q2055.17 1798.75 2052.76 1798.01 L2052.76 1793.31 Q2054.85 1794.45 2057.07 1795 Q2059.29 1795.56 2061.77 1795.56 Q2065.77 1795.56 2068.11 1793.45 Q2070.45 1791.34 2070.45 1787.73 Q2070.45 1784.12 2068.11 1782.02 Q2065.77 1779.91 2061.77 1779.91 Q2059.89 1779.91 2058.02 1780.33 Q2056.17 1780.74 2054.22 1781.62 L2054.22 1764.26 Z" fill="#000000" fill-rule="nonzero" fill-opacity="1" /><path clip-path="url(#clip070)" d="M2520.49 1767.34 Q2516.88 1767.34 2515.05 1770.9 Q2513.25 1774.45 2513.25 1781.58 Q2513.25 1788.68 2515.05 1792.25 Q2516.88 1795.79 2520.49 1795.79 Q2524.13 1795.79 2525.93 1792.25 Q2527.76 1788.68 2527.76 1781.58 Q2527.76 1774.45 2525.93 1770.9 Q2524.13 1767.34 2520.49 1767.34 M2520.49 1763.64 Q2526.3 1763.64 2529.36 1768.24 Q2532.44 1772.83 2532.44 1781.58 Q2532.44 1790.3 2529.36 1794.91 Q2526.3 1799.49 2520.49 1799.49 Q2514.68 1799.49 2511.61 1794.91 Q2508.55 1790.3 2508.55 1781.58 Q2508.55 1772.83 2511.61 1768.24 Q2514.68 1763.64 2520.49 1763.64 Z" fill="#000000" fill-rule="nonzero" fill-opacity="1" /><path clip-path="url(#clip070)" d="M2540.66 1792.94 L2545.54 1792.94 L2545.54 1798.82 L2540.66 1798.82 L2540.66 1792.94 Z" fill="#000000" fill-rule="nonzero" fill-opacity="1" /><path clip-path="url(#clip070)" d="M2556.54 1794.89 L2564.17 1794.89 L2564.17 1768.52 L2555.86 1770.19 L2555.86 1765.93 L2564.13 1764.26 L2568.8 1764.26 L2568.8 1794.89 L2576.44 1794.89 L2576.44 1798.82 L2556.54 1798.82 L2556.54 1794.89 Z" fill="#000000" fill-rule="nonzero" fill-opacity="1" /><path clip-path="url(#clip070)" d="M2595.89 1767.34 Q2592.28 1767.34 2590.45 1770.9 Q2588.64 1774.45 2588.64 1781.58 Q2588.64 1788.68 2590.45 1792.25 Q2592.28 1795.79 2595.89 1795.79 Q2599.52 1795.79 2601.33 1792.25 Q2603.16 1788.68 2603.16 1781.58 Q2603.16 1774.45 2601.33 1770.9 Q2599.52 1767.34 2595.89 1767.34 M2595.89 1763.64 Q2601.7 1763.64 2604.75 1768.24 Q2607.83 1772.83 2607.83 1781.58 Q2607.83 1790.3 2604.75 1794.91 Q2601.7 1799.49 2595.89 1799.49 Q2590.08 1799.49 2587 1794.91 Q2583.94 1790.3 2583.94 1781.58 Q2583.94 1772.83 2587 1768.24 Q2590.08 1763.64 2595.89 1763.64 Z" fill="#000000" fill-rule="nonzero" fill-opacity="1" /><path clip-path="url(#clip070)" d="M2626.05 1767.34 Q2622.44 1767.34 2620.61 1770.9 Q2618.8 1774.45 2618.8 1781.58 Q2618.8 1788.68 2620.61 1792.25 Q2622.44 1795.79 2626.05 1795.79 Q2629.68 1795.79 2631.49 1792.25 Q2633.32 1788.68 2633.32 1781.58 Q2633.32 1774.45 2631.49 1770.9 Q2629.68 1767.34 2626.05 1767.34 M2626.05 1763.64 Q2631.86 1763.64 2634.91 1768.24 Q2637.99 1772.83 2637.99 1781.58 Q2637.99 1790.3 2634.91 1794.91 Q2631.86 1799.49 2626.05 1799.49 Q2620.24 1799.49 2617.16 1794.91 Q2614.1 1790.3 2614.1 1781.58 Q2614.1 1772.83 2617.16 1768.24 Q2620.24 1763.64 2626.05 1763.64 Z" fill="#000000" fill-rule="nonzero" fill-opacity="1" /><path clip-path="url(#clip070)" d="M1201.38 1841.06 L1201.38 1858.92 L1209.47 1858.92 Q1213.95 1858.92 1216.4 1856.6 Q1218.85 1854.27 1218.85 1849.98 Q1218.85 1845.71 1216.4 1843.39 Q1213.95 1841.06 1209.47 1841.06 L1201.38 1841.06 M1194.95 1835.78 L1209.47 1835.78 Q1217.45 1835.78 1221.53 1839.41 Q1225.63 1843.01 1225.63 1849.98 Q1225.63 1857.01 1221.53 1860.61 Q1217.45 1864.2 1209.47 1864.2 L1201.38 1864.2 L1201.38 1883.3 L1194.95 1883.3 L1194.95 1835.78 Z" fill="#000000" fill-rule="nonzero" fill-opacity="1" /><path clip-path="url(#clip070)" d="M1253.52 1853.13 Q1252.53 1852.55 1251.35 1852.3 Q1250.21 1852.01 1248.81 1852.01 Q1243.84 1852.01 1241.17 1855.26 Q1238.52 1858.47 1238.52 1864.52 L1238.52 1883.3 L1232.64 1883.3 L1232.64 1847.65 L1238.52 1847.65 L1238.52 1853.19 Q1240.37 1849.94 1243.33 1848.39 Q1246.29 1846.79 1250.52 1846.79 Q1251.13 1846.79 1251.86 1846.89 Q1252.59 1846.95 1253.48 1847.11 L1253.52 1853.13 Z" fill="#000000" fill-rule="nonzero" fill-opacity="1" /><path clip-path="url(#clip070)" d="M1288.72 1864.01 L1288.72 1866.88 L1261.79 1866.88 Q1262.17 1872.92 1265.42 1876.11 Q1268.7 1879.26 1274.52 1879.26 Q1277.9 1879.26 1281.05 1878.43 Q1284.23 1877.6 1287.35 1875.95 L1287.35 1881.49 Q1284.2 1882.82 1280.89 1883.52 Q1277.58 1884.22 1274.17 1884.22 Q1265.64 1884.22 1260.65 1879.26 Q1255.68 1874.29 1255.68 1865.83 Q1255.68 1857.07 1260.39 1851.95 Q1265.13 1846.79 1273.15 1846.79 Q1280.35 1846.79 1284.52 1851.44 Q1288.72 1856.06 1288.72 1864.01 M1282.86 1862.29 Q1282.8 1857.49 1280.16 1854.62 Q1277.55 1851.76 1273.22 1851.76 Q1268.32 1851.76 1265.36 1854.53 Q1262.43 1857.3 1261.98 1862.33 L1282.86 1862.29 Z" fill="#000000" fill-rule="nonzero" fill-opacity="1" /><path clip-path="url(#clip070)" d="M1294.13 1847.65 L1300.34 1847.65 L1311.48 1877.57 L1322.62 1847.65 L1328.82 1847.65 L1315.45 1883.3 L1307.5 1883.3 L1294.13 1847.65 Z" fill="#000000" fill-rule="nonzero" fill-opacity="1" /><path clip-path="url(#clip070)" d="M1353.11 1865.38 Q1346.01 1865.38 1343.27 1867 Q1340.53 1868.63 1340.53 1872.54 Q1340.53 1875.66 1342.57 1877.51 Q1344.64 1879.32 1348.17 1879.32 Q1353.04 1879.32 1355.97 1875.88 Q1358.93 1872.42 1358.93 1866.69 L1358.93 1865.38 L1353.11 1865.38 M1364.79 1862.96 L1364.79 1883.3 L1358.93 1883.3 L1358.93 1877.89 Q1356.93 1881.14 1353.93 1882.7 Q1350.94 1884.22 1346.61 1884.22 Q1341.14 1884.22 1337.89 1881.17 Q1334.68 1878.08 1334.68 1872.92 Q1334.68 1866.91 1338.69 1863.85 Q1342.73 1860.8 1350.72 1860.8 L1358.93 1860.8 L1358.93 1860.23 Q1358.93 1856.18 1356.26 1853.99 Q1353.62 1851.76 1348.81 1851.76 Q1345.75 1851.76 1342.86 1852.49 Q1339.96 1853.22 1337.29 1854.69 L1337.29 1849.28 Q1340.5 1848.03 1343.53 1847.43 Q1346.55 1846.79 1349.42 1846.79 Q1357.15 1846.79 1360.97 1850.8 Q1364.79 1854.81 1364.79 1862.96 Z" fill="#000000" fill-rule="nonzero" fill-opacity="1" /><path clip-path="url(#clip070)" d="M1376.85 1833.78 L1382.71 1833.78 L1382.71 1883.3 L1376.85 1883.3 L1376.85 1833.78 Z" fill="#000000" fill-rule="nonzero" fill-opacity="1" /><path clip-path="url(#clip070)" d="M1425.45 1864.01 L1425.45 1866.88 L1398.53 1866.88 Q1398.91 1872.92 1402.15 1876.11 Q1405.43 1879.26 1411.26 1879.26 Q1414.63 1879.26 1417.78 1878.43 Q1420.97 1877.6 1424.08 1875.95 L1424.08 1881.49 Q1420.93 1882.82 1417.62 1883.52 Q1414.31 1884.22 1410.91 1884.22 Q1402.38 1884.22 1397.38 1879.26 Q1392.42 1874.29 1392.42 1865.83 Q1392.42 1857.07 1397.13 1851.95 Q1401.87 1846.79 1409.89 1846.79 Q1417.08 1846.79 1421.25 1851.44 Q1425.45 1856.06 1425.45 1864.01 M1419.6 1862.29 Q1419.53 1857.49 1416.89 1854.62 Q1414.28 1851.76 1409.95 1851.76 Q1405.05 1851.76 1402.09 1854.53 Q1399.16 1857.3 1398.72 1862.33 L1419.6 1862.29 Z" fill="#000000" fill-rule="nonzero" fill-opacity="1" /><path clip-path="url(#clip070)" d="M1464.7 1861.78 L1464.7 1883.3 L1458.84 1883.3 L1458.84 1861.98 Q1458.84 1856.92 1456.87 1854.4 Q1454.89 1851.89 1450.95 1851.89 Q1446.21 1851.89 1443.47 1854.91 Q1440.73 1857.93 1440.73 1863.15 L1440.73 1883.3 L1434.84 1883.3 L1434.84 1847.65 L1440.73 1847.65 L1440.73 1853.19 Q1442.83 1849.98 1445.66 1848.39 Q1448.53 1846.79 1452.25 1846.79 Q1458.4 1846.79 1461.55 1850.61 Q1464.7 1854.4 1464.7 1861.78 Z" fill="#000000" fill-rule="nonzero" fill-opacity="1" /><path clip-path="url(#clip070)" d="M1502.03 1849.02 L1502.03 1854.5 Q1499.55 1853.13 1497.04 1852.46 Q1494.55 1851.76 1492.01 1851.76 Q1486.31 1851.76 1483.16 1855.39 Q1480.01 1858.98 1480.01 1865.51 Q1480.01 1872.03 1483.16 1875.66 Q1486.31 1879.26 1492.01 1879.26 Q1494.55 1879.26 1497.04 1878.59 Q1499.55 1877.89 1502.03 1876.52 L1502.03 1881.93 Q1499.58 1883.08 1496.94 1883.65 Q1494.33 1884.22 1491.37 1884.22 Q1483.32 1884.22 1478.58 1879.16 Q1473.83 1874.1 1473.83 1865.51 Q1473.83 1856.79 1478.61 1851.79 Q1483.41 1846.79 1491.75 1846.79 Q1494.46 1846.79 1497.04 1847.37 Q1499.61 1847.91 1502.03 1849.02 Z" fill="#000000" fill-rule="nonzero" fill-opacity="1" /><path clip-path="url(#clip070)" d="M1542.71 1864.01 L1542.71 1866.88 L1515.78 1866.88 Q1516.16 1872.92 1519.41 1876.11 Q1522.69 1879.26 1528.51 1879.26 Q1531.89 1879.26 1535.04 1878.43 Q1538.22 1877.6 1541.34 1875.95 L1541.34 1881.49 Q1538.19 1882.82 1534.88 1883.52 Q1531.57 1884.22 1528.16 1884.22 Q1519.63 1884.22 1514.64 1879.26 Q1509.67 1874.29 1509.67 1865.83 Q1509.67 1857.07 1514.38 1851.95 Q1519.12 1846.79 1527.15 1846.79 Q1534.34 1846.79 1538.51 1851.44 Q1542.71 1856.06 1542.71 1864.01 M1536.85 1862.29 Q1536.79 1857.49 1534.15 1854.62 Q1531.54 1851.76 1527.21 1851.76 Q1522.31 1851.76 1519.35 1854.53 Q1516.42 1857.3 1515.97 1862.33 L1536.85 1862.29 Z" fill="#000000" fill-rule="nonzero" fill-opacity="1" /><path clip-path="url(#clip070)" d="M1587.11 1833.84 Q1582.85 1841.16 1580.78 1848.32 Q1578.71 1855.48 1578.71 1862.84 Q1578.71 1870.19 1580.78 1877.41 Q1582.88 1884.61 1587.11 1891.89 L1582.02 1891.89 Q1577.24 1884.41 1574.86 1877.19 Q1572.5 1869.96 1572.5 1862.84 Q1572.5 1855.74 1574.86 1848.54 Q1577.21 1841.35 1582.02 1833.84 L1587.11 1833.84 Z" fill="#000000" fill-rule="nonzero" fill-opacity="1" /><path clip-path="url(#clip070)" d="M1598.73 1835.78 L1605.16 1835.78 L1605.16 1883.3 L1598.73 1883.3 L1598.73 1835.78 Z" fill="#000000" fill-rule="nonzero" fill-opacity="1" /><path clip-path="url(#clip070)" d="M1628.11 1835.78 L1633.52 1835.78 L1616.97 1889.35 L1611.55 1889.35 L1628.11 1835.78 Z" fill="#000000" fill-rule="nonzero" fill-opacity="1" /><path clip-path="url(#clip070)" d="M1639.91 1835.78 L1648.57 1835.78 L1669.64 1875.53 L1669.64 1835.78 L1675.88 1835.78 L1675.88 1883.3 L1667.22 1883.3 L1646.15 1843.55 L1646.15 1883.3 L1639.91 1883.3 L1639.91 1835.78 Z" fill="#000000" fill-rule="nonzero" fill-opacity="1" /><path clip-path="url(#clip070)" d="M1687.5 1833.84 L1692.59 1833.84 Q1697.36 1841.35 1699.72 1848.54 Q1702.11 1855.74 1702.11 1862.84 Q1702.11 1869.96 1699.72 1877.19 Q1697.36 1884.41 1692.59 1891.89 L1687.5 1891.89 Q1691.73 1884.61 1693.8 1877.41 Q1695.9 1870.19 1695.9 1862.84 Q1695.9 1855.48 1693.8 1848.32 Q1691.73 1841.16 1687.5 1833.84 Z" fill="#000000" fill-rule="nonzero" fill-opacity="1" /><polyline clip-path="url(#clip070)" style="stroke:#000000; stroke-linecap:round; stroke-linejoin:round; stroke-width:4; stroke-opacity:1; fill:none" points="256.302,1734.12 256.302,127.792 "/>
<polyline clip-path="url(#clip070)" style="stroke:#000000; stroke-linecap:round; stroke-linejoin:round; stroke-width:4; stroke-opacity:1; fill:none" points="256.302,1458.79 275.2,1458.79 "/>
<polyline clip-path="url(#clip070)" style="stroke:#000000; stroke-linecap:round; stroke-linejoin:round; stroke-width:4; stroke-opacity:1; fill:none" points="256.302,1157.93 275.2,1157.93 "/>
<polyline clip-path="url(#clip070)" style="stroke:#000000; stroke-linecap:round; stroke-linejoin:round; stroke-width:4; stroke-opacity:1; fill:none" points="256.302,857.071 275.2,857.071 "/>
<polyline clip-path="url(#clip070)" style="stroke:#000000; stroke-linecap:round; stroke-linejoin:round; stroke-width:4; stroke-opacity:1; fill:none" points="256.302,556.21 275.2,556.21 "/>
<polyline clip-path="url(#clip070)" style="stroke:#000000; stroke-linecap:round; stroke-linejoin:round; stroke-width:4; stroke-opacity:1; fill:none" points="256.302,255.349 275.2,255.349 "/>
<path clip-path="url(#clip070)" d="M130.242 1444.59 Q126.631 1444.59 124.802 1448.16 Q122.997 1451.7 122.997 1458.83 Q122.997 1465.93 124.802 1469.5 Q126.631 1473.04 130.242 1473.04 Q133.876 1473.04 135.682 1469.5 Q137.511 1465.93 137.511 1458.83 Q137.511 1451.7 135.682 1448.16 Q133.876 1444.59 130.242 1444.59 M130.242 1440.89 Q136.052 1440.89 139.108 1445.49 Q142.187 1450.08 142.187 1458.83 Q142.187 1467.55 139.108 1472.16 Q136.052 1476.74 130.242 1476.74 Q124.432 1476.74 121.353 1472.16 Q118.298 1467.55 118.298 1458.83 Q118.298 1450.08 121.353 1445.49 Q124.432 1440.89 130.242 1440.89 Z" fill="#000000" fill-rule="nonzero" fill-opacity="1" /><path clip-path="url(#clip070)" d="M150.404 1470.19 L155.288 1470.19 L155.288 1476.07 L150.404 1476.07 L150.404 1470.19 Z" fill="#000000" fill-rule="nonzero" fill-opacity="1" /><path clip-path="url(#clip070)" d="M178.321 1445.59 L166.515 1464.04 L178.321 1464.04 L178.321 1445.59 M177.094 1441.51 L182.973 1441.51 L182.973 1464.04 L187.904 1464.04 L187.904 1467.92 L182.973 1467.92 L182.973 1476.07 L178.321 1476.07 L178.321 1467.92 L162.719 1467.92 L162.719 1463.41 L177.094 1441.51 Z" fill="#000000" fill-rule="nonzero" fill-opacity="1" /><path clip-path="url(#clip070)" d="M199.663 1472.14 L215.982 1472.14 L215.982 1476.07 L194.038 1476.07 L194.038 1472.14 Q196.7 1469.38 201.283 1464.75 Q205.89 1460.1 207.07 1458.76 Q209.316 1456.23 210.195 1454.5 Q211.098 1452.74 211.098 1451.05 Q211.098 1448.3 209.154 1446.56 Q207.232 1444.82 204.131 1444.82 Q201.932 1444.82 199.478 1445.59 Q197.047 1446.35 194.27 1447.9 L194.27 1443.18 Q197.094 1442.05 199.547 1441.47 Q202.001 1440.89 204.038 1440.89 Q209.408 1440.89 212.603 1443.57 Q215.797 1446.26 215.797 1450.75 Q215.797 1452.88 214.987 1454.8 Q214.2 1456.7 212.094 1459.29 Q211.515 1459.96 208.413 1463.18 Q205.311 1466.37 199.663 1472.14 Z" fill="#000000" fill-rule="nonzero" fill-opacity="1" /><path clip-path="url(#clip070)" d="M128.159 1143.73 Q124.548 1143.73 122.719 1147.3 Q120.913 1150.84 120.913 1157.97 Q120.913 1165.07 122.719 1168.64 Q124.548 1172.18 128.159 1172.18 Q131.793 1172.18 133.599 1168.64 Q135.427 1165.07 135.427 1157.97 Q135.427 1150.84 133.599 1147.3 Q131.793 1143.73 128.159 1143.73 M128.159 1140.03 Q133.969 1140.03 137.025 1144.63 Q140.103 1149.22 140.103 1157.97 Q140.103 1166.69 137.025 1171.3 Q133.969 1175.88 128.159 1175.88 Q122.349 1175.88 119.27 1171.3 Q116.214 1166.69 116.214 1157.97 Q116.214 1149.22 119.27 1144.63 Q122.349 1140.03 128.159 1140.03 Z" fill="#000000" fill-rule="nonzero" fill-opacity="1" /><path clip-path="url(#clip070)" d="M148.321 1169.33 L153.205 1169.33 L153.205 1175.21 L148.321 1175.21 L148.321 1169.33 Z" fill="#000000" fill-rule="nonzero" fill-opacity="1" /><path clip-path="url(#clip070)" d="M176.237 1144.73 L164.432 1163.17 L176.237 1163.17 L176.237 1144.73 M175.01 1140.65 L180.89 1140.65 L180.89 1163.17 L185.821 1163.17 L185.821 1167.06 L180.89 1167.06 L180.89 1175.21 L176.237 1175.21 L176.237 1167.06 L160.636 1167.06 L160.636 1162.55 L175.01 1140.65 Z" fill="#000000" fill-rule="nonzero" fill-opacity="1" /><path clip-path="url(#clip070)" d="M206.399 1144.73 L194.594 1163.17 L206.399 1163.17 L206.399 1144.73 M205.172 1140.65 L211.052 1140.65 L211.052 1163.17 L215.982 1163.17 L215.982 1167.06 L211.052 1167.06 L211.052 1175.21 L206.399 1175.21 L206.399 1167.06 L190.797 1167.06 L190.797 1162.55 L205.172 1140.65 Z" fill="#000000" fill-rule="nonzero" fill-opacity="1" /><path clip-path="url(#clip070)" d="M128.483 842.87 Q124.872 842.87 123.043 846.434 Q121.238 849.976 121.238 857.106 Q121.238 864.212 123.043 867.777 Q124.872 871.319 128.483 871.319 Q132.117 871.319 133.923 867.777 Q135.751 864.212 135.751 857.106 Q135.751 849.976 133.923 846.434 Q132.117 842.87 128.483 842.87 M128.483 839.166 Q134.293 839.166 137.349 843.772 Q140.427 848.356 140.427 857.106 Q140.427 865.833 137.349 870.439 Q134.293 875.022 128.483 875.022 Q122.673 875.022 119.594 870.439 Q116.539 865.833 116.539 857.106 Q116.539 848.356 119.594 843.772 Q122.673 839.166 128.483 839.166 Z" fill="#000000" fill-rule="nonzero" fill-opacity="1" /><path clip-path="url(#clip070)" d="M148.645 868.471 L153.529 868.471 L153.529 874.351 L148.645 874.351 L148.645 868.471 Z" fill="#000000" fill-rule="nonzero" fill-opacity="1" /><path clip-path="url(#clip070)" d="M176.561 843.865 L164.756 862.314 L176.561 862.314 L176.561 843.865 M175.334 839.791 L181.214 839.791 L181.214 862.314 L186.145 862.314 L186.145 866.203 L181.214 866.203 L181.214 874.351 L176.561 874.351 L176.561 866.203 L160.96 866.203 L160.96 861.689 L175.334 839.791 Z" fill="#000000" fill-rule="nonzero" fill-opacity="1" /><path clip-path="url(#clip070)" d="M204.455 855.208 Q201.307 855.208 199.455 857.36 Q197.626 859.513 197.626 863.263 Q197.626 866.99 199.455 869.166 Q201.307 871.319 204.455 871.319 Q207.603 871.319 209.432 869.166 Q211.283 866.99 211.283 863.263 Q211.283 859.513 209.432 857.36 Q207.603 855.208 204.455 855.208 M213.737 840.555 L213.737 844.814 Q211.978 843.981 210.172 843.541 Q208.39 843.101 206.631 843.101 Q202.001 843.101 199.547 846.226 Q197.117 849.351 196.77 855.671 Q198.135 853.657 200.195 852.592 Q202.256 851.504 204.732 851.504 Q209.941 851.504 212.95 854.675 Q215.982 857.823 215.982 863.263 Q215.982 868.587 212.834 871.805 Q209.686 875.022 204.455 875.022 Q198.459 875.022 195.288 870.439 Q192.117 865.833 192.117 857.106 Q192.117 848.911 196.006 844.05 Q199.895 839.166 206.445 839.166 Q208.205 839.166 209.987 839.513 Q211.793 839.86 213.737 840.555 Z" fill="#000000" fill-rule="nonzero" fill-opacity="1" /><path clip-path="url(#clip070)" d="M128.738 542.009 Q125.126 542.009 123.298 545.574 Q121.492 549.115 121.492 556.245 Q121.492 563.351 123.298 566.916 Q125.126 570.458 128.738 570.458 Q132.372 570.458 134.177 566.916 Q136.006 563.351 136.006 556.245 Q136.006 549.115 134.177 545.574 Q132.372 542.009 128.738 542.009 M128.738 538.305 Q134.548 538.305 137.603 542.912 Q140.682 547.495 140.682 556.245 Q140.682 564.972 137.603 569.578 Q134.548 574.161 128.738 574.161 Q122.927 574.161 119.849 569.578 Q116.793 564.972 116.793 556.245 Q116.793 547.495 119.849 542.912 Q122.927 538.305 128.738 538.305 Z" fill="#000000" fill-rule="nonzero" fill-opacity="1" /><path clip-path="url(#clip070)" d="M148.899 567.611 L153.784 567.611 L153.784 573.49 L148.899 573.49 L148.899 567.611 Z" fill="#000000" fill-rule="nonzero" fill-opacity="1" /><path clip-path="url(#clip070)" d="M176.816 543.004 L165.01 561.453 L176.816 561.453 L176.816 543.004 M175.589 538.93 L181.469 538.93 L181.469 561.453 L186.399 561.453 L186.399 565.342 L181.469 565.342 L181.469 573.49 L176.816 573.49 L176.816 565.342 L161.214 565.342 L161.214 560.828 L175.589 538.93 Z" fill="#000000" fill-rule="nonzero" fill-opacity="1" /><path clip-path="url(#clip070)" d="M204.131 557.078 Q200.797 557.078 198.876 558.861 Q196.978 560.643 196.978 563.768 Q196.978 566.893 198.876 568.675 Q200.797 570.458 204.131 570.458 Q207.464 570.458 209.385 568.675 Q211.307 566.87 211.307 563.768 Q211.307 560.643 209.385 558.861 Q207.487 557.078 204.131 557.078 M199.455 555.087 Q196.445 554.347 194.756 552.287 Q193.089 550.226 193.089 547.263 Q193.089 543.12 196.029 540.713 Q198.992 538.305 204.131 538.305 Q209.293 538.305 212.232 540.713 Q215.172 543.12 215.172 547.263 Q215.172 550.226 213.482 552.287 Q211.816 554.347 208.83 555.087 Q212.209 555.874 214.084 558.166 Q215.982 560.458 215.982 563.768 Q215.982 568.791 212.904 571.476 Q209.848 574.161 204.131 574.161 Q198.413 574.161 195.334 571.476 Q192.279 568.791 192.279 563.768 Q192.279 560.458 194.177 558.166 Q196.075 555.874 199.455 555.087 M197.742 547.703 Q197.742 550.388 199.408 551.893 Q201.098 553.398 204.131 553.398 Q207.14 553.398 208.83 551.893 Q210.543 550.388 210.543 547.703 Q210.543 545.018 208.83 543.513 Q207.14 542.009 204.131 542.009 Q201.098 542.009 199.408 543.513 Q197.742 545.018 197.742 547.703 Z" fill="#000000" fill-rule="nonzero" fill-opacity="1" /><path clip-path="url(#clip070)" d="M128.645 241.148 Q125.034 241.148 123.205 244.713 Q121.4 248.254 121.4 255.384 Q121.4 262.49 123.205 266.055 Q125.034 269.597 128.645 269.597 Q132.279 269.597 134.085 266.055 Q135.913 262.49 135.913 255.384 Q135.913 248.254 134.085 244.713 Q132.279 241.148 128.645 241.148 M128.645 237.444 Q134.455 237.444 137.511 242.051 Q140.589 246.634 140.589 255.384 Q140.589 264.111 137.511 268.717 Q134.455 273.301 128.645 273.301 Q122.835 273.301 119.756 268.717 Q116.701 264.111 116.701 255.384 Q116.701 246.634 119.756 242.051 Q122.835 237.444 128.645 237.444 Z" fill="#000000" fill-rule="nonzero" fill-opacity="1" /><path clip-path="url(#clip070)" d="M148.807 266.75 L153.691 266.75 L153.691 272.629 L148.807 272.629 L148.807 266.75 Z" fill="#000000" fill-rule="nonzero" fill-opacity="1" /><path clip-path="url(#clip070)" d="M163.923 238.069 L182.279 238.069 L182.279 242.004 L168.205 242.004 L168.205 250.477 Q169.223 250.129 170.242 249.967 Q171.26 249.782 172.279 249.782 Q178.066 249.782 181.446 252.953 Q184.825 256.125 184.825 261.541 Q184.825 267.12 181.353 270.222 Q177.881 273.301 171.561 273.301 Q169.385 273.301 167.117 272.93 Q164.872 272.56 162.464 271.819 L162.464 267.12 Q164.548 268.254 166.77 268.81 Q168.992 269.365 171.469 269.365 Q175.473 269.365 177.811 267.259 Q180.149 265.152 180.149 261.541 Q180.149 257.93 177.811 255.824 Q175.473 253.717 171.469 253.717 Q169.594 253.717 167.719 254.134 Q165.867 254.551 163.923 255.43 L163.923 238.069 Z" fill="#000000" fill-rule="nonzero" fill-opacity="1" /><path clip-path="url(#clip070)" d="M204.038 241.148 Q200.427 241.148 198.598 244.713 Q196.793 248.254 196.793 255.384 Q196.793 262.49 198.598 266.055 Q200.427 269.597 204.038 269.597 Q207.672 269.597 209.478 266.055 Q211.307 262.49 211.307 255.384 Q211.307 248.254 209.478 244.713 Q207.672 241.148 204.038 241.148 M204.038 237.444 Q209.848 237.444 212.904 242.051 Q215.982 246.634 215.982 255.384 Q215.982 264.111 212.904 268.717 Q209.848 273.301 204.038 273.301 Q198.228 273.301 195.149 268.717 Q192.094 264.111 192.094 255.384 Q192.094 246.634 195.149 242.051 Q198.228 237.444 204.038 237.444 Z" fill="#000000" fill-rule="nonzero" fill-opacity="1" /><path clip-path="url(#clip070)" d="M59.4423 940.471 L75.1974 940.471 L75.1974 946.36 L26.2133 946.36 Q11.6995 946.36 11.6995 932.801 Q11.6995 918.987 23.9535 918.987 Q32.6745 918.987 35.8573 924.462 Q38.7219 915.55 47.2201 915.55 Q62.3068 915.55 62.3068 930.891 Q62.3068 937.639 59.4423 940.471 M51.8034 940.471 Q57.3098 936.938 57.3098 930.668 Q57.3098 921.501 47.3156 921.501 Q38.34 921.501 39.0402 936.27 L33.6293 936.27 Q33.6293 924.716 23.4442 924.716 Q16.4738 924.716 16.4738 932.164 Q16.4738 940.471 26.4043 940.471 L51.8034 940.471 Z" fill="#000000" fill-rule="nonzero" fill-opacity="1" /><path clip-path="url(#clip070)" d="M615.906 44.2197 Q618.539 45.1109 621.01 48.0275 Q623.522 50.9442 626.034 56.0483 L634.338 72.576 L625.547 72.576 L617.81 57.061 Q614.813 50.9847 611.977 48.9997 Q609.182 47.0148 604.321 47.0148 L595.409 47.0148 L595.409 72.576 L587.226 72.576 L587.226 12.096 L605.698 12.096 Q616.068 12.096 621.172 16.4305 Q626.277 20.7649 626.277 29.5149 Q626.277 35.2267 623.603 38.994 Q620.97 42.7613 615.906 44.2197 M595.409 18.8205 L595.409 40.2903 L605.698 40.2903 Q611.612 40.2903 614.61 37.5762 Q617.648 34.8216 617.648 29.5149 Q617.648 24.2082 614.61 21.5346 Q611.612 18.8205 605.698 18.8205 L595.409 18.8205 Z" fill="#000000" fill-rule="nonzero" fill-opacity="1" /><path clip-path="url(#clip070)" d="M679.627 48.0275 L679.627 51.6733 L645.356 51.6733 Q645.842 59.3701 649.974 63.421 Q654.147 67.4314 661.56 67.4314 Q665.854 67.4314 669.864 66.3781 Q673.915 65.3249 677.885 63.2184 L677.885 70.267 Q673.875 71.9684 669.662 72.8596 Q665.449 73.7508 661.114 73.7508 Q650.258 73.7508 643.898 67.4314 Q637.579 61.1119 637.579 50.3365 Q637.579 39.1965 643.574 32.6746 Q649.61 26.1121 659.818 26.1121 Q668.973 26.1121 674.28 32.0264 Q679.627 37.9003 679.627 48.0275 M672.173 45.84 Q672.092 39.7232 668.73 36.0774 Q665.408 32.4315 659.899 32.4315 Q653.661 32.4315 649.893 35.9558 Q646.167 39.4801 645.599 45.8805 L672.173 45.84 Z" fill="#000000" fill-rule="nonzero" fill-opacity="1" /><path clip-path="url(#clip070)" d="M724.511 28.9478 L724.511 35.9153 Q721.351 34.1734 718.151 33.3227 Q714.991 32.4315 711.751 32.4315 Q704.5 32.4315 700.489 37.0496 Q696.479 41.6271 696.479 49.9314 Q696.479 58.2358 700.489 62.8538 Q704.5 67.4314 711.751 67.4314 Q714.991 67.4314 718.151 66.5807 Q721.351 65.6895 724.511 63.9476 L724.511 70.8341 Q721.392 72.2924 718.03 73.0216 Q714.708 73.7508 710.941 73.7508 Q700.692 73.7508 694.656 67.3098 Q688.62 60.8689 688.62 49.9314 Q688.62 38.832 694.696 32.472 Q700.813 26.1121 711.427 26.1121 Q714.87 26.1121 718.151 26.8413 Q721.432 27.5299 724.511 28.9478 Z" fill="#000000" fill-rule="nonzero" fill-opacity="1" /><path clip-path="url(#clip070)" d="M755.055 32.4315 Q749.06 32.4315 745.576 37.1306 Q742.092 41.7891 742.092 49.9314 Q742.092 58.0738 745.535 62.7728 Q749.019 67.4314 755.055 67.4314 Q761.01 67.4314 764.493 62.7323 Q767.977 58.0333 767.977 49.9314 Q767.977 41.8701 764.493 37.1711 Q761.01 32.4315 755.055 32.4315 M755.055 26.1121 Q764.777 26.1121 770.327 32.4315 Q775.877 38.7509 775.877 49.9314 Q775.877 61.0714 770.327 67.4314 Q764.777 73.7508 755.055 73.7508 Q745.292 73.7508 739.742 67.4314 Q734.233 61.0714 734.233 49.9314 Q734.233 38.7509 739.742 32.4315 Q745.292 26.1121 755.055 26.1121 Z" fill="#000000" fill-rule="nonzero" fill-opacity="1" /><path clip-path="url(#clip070)" d="M782.885 27.2059 L790.784 27.2059 L804.962 65.2844 L819.14 27.2059 L827.039 27.2059 L810.026 72.576 L799.898 72.576 L782.885 27.2059 Z" fill="#000000" fill-rule="nonzero" fill-opacity="1" /><path clip-path="url(#clip070)" d="M876.136 48.0275 L876.136 51.6733 L841.866 51.6733 Q842.352 59.3701 846.484 63.421 Q850.656 67.4314 858.069 67.4314 Q862.363 67.4314 866.374 66.3781 Q870.425 65.3249 874.395 63.2184 L874.395 70.267 Q870.384 71.9684 866.171 72.8596 Q861.958 73.7508 857.624 73.7508 Q846.767 73.7508 840.407 67.4314 Q834.088 61.1119 834.088 50.3365 Q834.088 39.1965 840.083 32.6746 Q846.119 26.1121 856.327 26.1121 Q865.483 26.1121 870.789 32.0264 Q876.136 37.9003 876.136 48.0275 M868.683 45.84 Q868.602 39.7232 865.239 36.0774 Q861.918 32.4315 856.408 32.4315 Q850.17 32.4315 846.403 35.9558 Q842.676 39.4801 842.109 45.8805 L868.683 45.84 Z" fill="#000000" fill-rule="nonzero" fill-opacity="1" /><path clip-path="url(#clip070)" d="M914.66 34.1734 Q913.405 33.4443 911.906 33.1202 Q910.448 32.7556 908.665 32.7556 Q902.346 32.7556 898.943 36.8875 Q895.581 40.9789 895.581 48.6757 L895.581 72.576 L888.087 72.576 L888.087 27.2059 L895.581 27.2059 L895.581 34.2544 Q897.93 30.1225 901.698 28.1376 Q905.465 26.1121 910.853 26.1121 Q911.622 26.1121 912.554 26.2337 Q913.486 26.3147 914.62 26.5172 L914.66 34.1734 Z" fill="#000000" fill-rule="nonzero" fill-opacity="1" /><path clip-path="url(#clip070)" d="M959.463 48.0275 L959.463 51.6733 L925.193 51.6733 Q925.679 59.3701 929.811 63.421 Q933.983 67.4314 941.396 67.4314 Q945.69 67.4314 949.701 66.3781 Q953.752 65.3249 957.722 63.2184 L957.722 70.267 Q953.711 71.9684 949.498 72.8596 Q945.285 73.7508 940.951 73.7508 Q930.094 73.7508 923.735 67.4314 Q917.415 61.1119 917.415 50.3365 Q917.415 39.1965 923.41 32.6746 Q929.446 26.1121 939.655 26.1121 Q948.81 26.1121 954.116 32.0264 Q959.463 37.9003 959.463 48.0275 M952.01 45.84 Q951.929 39.7232 948.567 36.0774 Q945.245 32.4315 939.736 32.4315 Q933.497 32.4315 929.73 35.9558 Q926.003 39.4801 925.436 45.8805 L952.01 45.84 Z" fill="#000000" fill-rule="nonzero" fill-opacity="1" /><path clip-path="url(#clip070)" d="M1001.55 34.0924 L1001.55 9.54393 L1009.01 9.54393 L1009.01 72.576 L1001.55 72.576 L1001.55 65.7705 Q999.203 69.8214 995.598 71.8063 Q992.033 73.7508 987.01 73.7508 Q978.786 73.7508 973.601 67.1883 Q968.457 60.6258 968.457 49.9314 Q968.457 39.2371 973.601 32.6746 Q978.786 26.1121 987.01 26.1121 Q992.033 26.1121 995.598 28.0971 Q999.203 30.0415 1001.55 34.0924 M976.153 49.9314 Q976.153 58.1548 979.515 62.8538 Q982.918 67.5124 988.833 67.5124 Q994.747 67.5124 998.15 62.8538 Q1001.55 58.1548 1001.55 49.9314 Q1001.55 41.7081 998.15 37.0496 Q994.747 32.3505 988.833 32.3505 Q982.918 32.3505 979.515 37.0496 Q976.153 41.7081 976.153 49.9314 Z" fill="#000000" fill-rule="nonzero" fill-opacity="1" /><path clip-path="url(#clip070)" d="M1058.1 14.324 L1058.1 27.2059 L1073.46 27.2059 L1073.46 32.9987 L1058.1 32.9987 L1058.1 57.6282 Q1058.1 63.1779 1059.6 64.7578 Q1061.14 66.3376 1065.8 66.3376 L1073.46 66.3376 L1073.46 72.576 L1065.8 72.576 Q1057.17 72.576 1053.89 69.3758 Q1050.61 66.1351 1050.61 57.6282 L1050.61 32.9987 L1045.14 32.9987 L1045.14 27.2059 L1050.61 27.2059 L1050.61 14.324 L1058.1 14.324 Z" fill="#000000" fill-rule="nonzero" fill-opacity="1" /><path clip-path="url(#clip070)" d="M1109.55 34.1734 Q1108.29 33.4443 1106.79 33.1202 Q1105.34 32.7556 1103.55 32.7556 Q1097.23 32.7556 1093.83 36.8875 Q1090.47 40.9789 1090.47 48.6757 L1090.47 72.576 L1082.98 72.576 L1082.98 27.2059 L1090.47 27.2059 L1090.47 34.2544 Q1092.82 30.1225 1096.59 28.1376 Q1100.35 26.1121 1105.74 26.1121 Q1106.51 26.1121 1107.44 26.2337 Q1108.37 26.3147 1109.51 26.5172 L1109.55 34.1734 Z" fill="#000000" fill-rule="nonzero" fill-opacity="1" /><path clip-path="url(#clip070)" d="M1137.99 49.7694 Q1128.95 49.7694 1125.47 51.8354 Q1121.99 53.9013 1121.99 58.8839 Q1121.99 62.8538 1124.58 65.2034 Q1127.21 67.5124 1131.71 67.5124 Q1137.91 67.5124 1141.63 63.1374 Q1145.4 58.7219 1145.4 51.4303 L1145.4 49.7694 L1137.99 49.7694 M1152.85 46.6907 L1152.85 72.576 L1145.4 72.576 L1145.4 65.6895 Q1142.85 69.8214 1139.04 71.8063 Q1135.23 73.7508 1129.72 73.7508 Q1122.76 73.7508 1118.62 69.8619 Q1114.53 65.9325 1114.53 59.3701 Q1114.53 51.7138 1119.64 47.825 Q1124.78 43.9361 1134.95 43.9361 L1145.4 43.9361 L1145.4 43.2069 Q1145.4 38.0623 1142 35.2672 Q1138.63 32.4315 1132.52 32.4315 Q1128.63 32.4315 1124.94 33.3632 Q1121.26 34.295 1117.85 36.1584 L1117.85 29.2718 Q1121.95 27.692 1125.79 26.9223 Q1129.64 26.1121 1133.29 26.1121 Q1143.13 26.1121 1147.99 31.2163 Q1152.85 36.3204 1152.85 46.6907 Z" fill="#000000" fill-rule="nonzero" fill-opacity="1" /><path clip-path="url(#clip070)" d="M1205.92 45.1919 L1205.92 72.576 L1198.47 72.576 L1198.47 45.4349 Q1198.47 38.994 1195.96 35.7938 Q1193.44 32.5936 1188.42 32.5936 Q1182.38 32.5936 1178.9 36.4419 Q1175.42 40.2903 1175.42 46.9338 L1175.42 72.576 L1167.92 72.576 L1167.92 27.2059 L1175.42 27.2059 L1175.42 34.2544 Q1178.09 30.163 1181.7 28.1376 Q1185.34 26.1121 1190.08 26.1121 Q1197.9 26.1121 1201.91 30.9732 Q1205.92 35.7938 1205.92 45.1919 Z" fill="#000000" fill-rule="nonzero" fill-opacity="1" /><path clip-path="url(#clip070)" d="M1249.71 28.5427 L1249.71 35.5912 Q1246.55 33.9709 1243.15 33.1607 Q1239.75 32.3505 1236.1 32.3505 Q1230.55 32.3505 1227.75 34.0519 Q1225 35.7533 1225 39.156 Q1225 41.7486 1226.99 43.2475 Q1228.97 44.7058 1234.97 46.0426 L1237.52 46.6097 Q1245.46 48.3111 1248.78 51.4303 Q1252.14 54.509 1252.14 60.0587 Q1252.14 66.3781 1247.12 70.0644 Q1242.14 73.7508 1233.39 73.7508 Q1229.74 73.7508 1225.77 73.0216 Q1221.84 72.3329 1217.47 70.9151 L1217.47 63.2184 Q1221.6 65.3654 1225.61 66.4591 Q1229.62 67.5124 1233.55 67.5124 Q1238.81 67.5124 1241.65 65.73 Q1244.49 63.9071 1244.49 60.6258 Q1244.49 57.5877 1242.42 55.9673 Q1240.39 54.3469 1233.47 52.8481 L1230.87 52.2405 Q1223.95 50.7821 1220.87 47.7845 Q1217.79 44.7463 1217.79 39.4801 Q1217.79 33.0797 1222.33 29.5959 Q1226.86 26.1121 1235.21 26.1121 Q1239.34 26.1121 1242.99 26.7198 Q1246.63 27.3274 1249.71 28.5427 Z" fill="#000000" fill-rule="nonzero" fill-opacity="1" /><path clip-path="url(#clip070)" d="M1299.33 35.9153 Q1302.13 30.8922 1306.02 28.5022 Q1309.91 26.1121 1315.17 26.1121 Q1322.26 26.1121 1326.11 31.0947 Q1329.96 36.0368 1329.96 45.1919 L1329.96 72.576 L1322.47 72.576 L1322.47 45.4349 Q1322.47 38.913 1320.16 35.7533 Q1317.85 32.5936 1313.11 32.5936 Q1307.31 32.5936 1303.95 36.4419 Q1300.59 40.2903 1300.59 46.9338 L1300.59 72.576 L1293.1 72.576 L1293.1 45.4349 Q1293.1 38.8725 1290.79 35.7533 Q1288.48 32.5936 1283.66 32.5936 Q1277.95 32.5936 1274.58 36.4824 Q1271.22 40.3308 1271.22 46.9338 L1271.22 72.576 L1263.73 72.576 L1263.73 27.2059 L1271.22 27.2059 L1271.22 34.2544 Q1273.77 30.082 1277.34 28.0971 Q1280.9 26.1121 1285.8 26.1121 Q1290.75 26.1121 1294.19 28.6237 Q1297.67 31.1352 1299.33 35.9153 Z" fill="#000000" fill-rule="nonzero" fill-opacity="1" /><path clip-path="url(#clip070)" d="M1344.83 27.2059 L1352.28 27.2059 L1352.28 72.576 L1344.83 72.576 L1344.83 27.2059 M1344.83 9.54393 L1352.28 9.54393 L1352.28 18.9825 L1344.83 18.9825 L1344.83 9.54393 Z" fill="#000000" fill-rule="nonzero" fill-opacity="1" /><path clip-path="url(#clip070)" d="M1396.8 28.5427 L1396.8 35.5912 Q1393.64 33.9709 1390.24 33.1607 Q1386.83 32.3505 1383.19 32.3505 Q1377.64 32.3505 1374.84 34.0519 Q1372.09 35.7533 1372.09 39.156 Q1372.09 41.7486 1374.07 43.2475 Q1376.06 44.7058 1382.05 46.0426 L1384.61 46.6097 Q1392.55 48.3111 1395.87 51.4303 Q1399.23 54.509 1399.23 60.0587 Q1399.23 66.3781 1394.21 70.0644 Q1389.22 73.7508 1380.47 73.7508 Q1376.83 73.7508 1372.86 73.0216 Q1368.93 72.3329 1364.55 70.9151 L1364.55 63.2184 Q1368.69 65.3654 1372.7 66.4591 Q1376.71 67.5124 1380.64 67.5124 Q1385.9 67.5124 1388.74 65.73 Q1391.57 63.9071 1391.57 60.6258 Q1391.57 57.5877 1389.51 55.9673 Q1387.48 54.3469 1380.55 52.8481 L1377.96 52.2405 Q1371.04 50.7821 1367.96 47.7845 Q1364.88 44.7463 1364.88 39.4801 Q1364.88 33.0797 1369.42 29.5959 Q1373.95 26.1121 1382.3 26.1121 Q1386.43 26.1121 1390.07 26.7198 Q1393.72 27.3274 1396.8 28.5427 Z" fill="#000000" fill-rule="nonzero" fill-opacity="1" /><path clip-path="url(#clip070)" d="M1440.02 28.5427 L1440.02 35.5912 Q1436.86 33.9709 1433.46 33.1607 Q1430.06 32.3505 1426.41 32.3505 Q1420.86 32.3505 1418.07 34.0519 Q1415.31 35.7533 1415.31 39.156 Q1415.31 41.7486 1417.3 43.2475 Q1419.28 44.7058 1425.28 46.0426 L1427.83 46.6097 Q1435.77 48.3111 1439.09 51.4303 Q1442.45 54.509 1442.45 60.0587 Q1442.45 66.3781 1437.43 70.0644 Q1432.45 73.7508 1423.7 73.7508 Q1420.05 73.7508 1416.08 73.0216 Q1412.15 72.3329 1407.78 70.9151 L1407.78 63.2184 Q1411.91 65.3654 1415.92 66.4591 Q1419.93 67.5124 1423.86 67.5124 Q1429.13 67.5124 1431.96 65.73 Q1434.8 63.9071 1434.8 60.6258 Q1434.8 57.5877 1432.73 55.9673 Q1430.71 54.3469 1423.78 52.8481 L1421.19 52.2405 Q1414.26 50.7821 1411.18 47.7845 Q1408.1 44.7463 1408.1 39.4801 Q1408.1 33.0797 1412.64 29.5959 Q1417.18 26.1121 1425.52 26.1121 Q1429.65 26.1121 1433.3 26.7198 Q1436.94 27.3274 1440.02 28.5427 Z" fill="#000000" fill-rule="nonzero" fill-opacity="1" /><path clip-path="url(#clip070)" d="M1454.32 27.2059 L1461.78 27.2059 L1461.78 72.576 L1454.32 72.576 L1454.32 27.2059 M1454.32 9.54393 L1461.78 9.54393 L1461.78 18.9825 L1454.32 18.9825 L1454.32 9.54393 Z" fill="#000000" fill-rule="nonzero" fill-opacity="1" /><path clip-path="url(#clip070)" d="M1494.95 32.4315 Q1488.96 32.4315 1485.47 37.1306 Q1481.99 41.7891 1481.99 49.9314 Q1481.99 58.0738 1485.43 62.7728 Q1488.92 67.4314 1494.95 67.4314 Q1500.91 67.4314 1504.39 62.7323 Q1507.87 58.0333 1507.87 49.9314 Q1507.87 41.8701 1504.39 37.1711 Q1500.91 32.4315 1494.95 32.4315 M1494.95 26.1121 Q1504.67 26.1121 1510.22 32.4315 Q1515.77 38.7509 1515.77 49.9314 Q1515.77 61.0714 1510.22 67.4314 Q1504.67 73.7508 1494.95 73.7508 Q1485.19 73.7508 1479.64 67.4314 Q1474.13 61.0714 1474.13 49.9314 Q1474.13 38.7509 1479.64 32.4315 Q1485.19 26.1121 1494.95 26.1121 Z" fill="#000000" fill-rule="nonzero" fill-opacity="1" /><path clip-path="url(#clip070)" d="M1565.84 45.1919 L1565.84 72.576 L1558.39 72.576 L1558.39 45.4349 Q1558.39 38.994 1555.88 35.7938 Q1553.37 32.5936 1548.34 32.5936 Q1542.31 32.5936 1538.82 36.4419 Q1535.34 40.2903 1535.34 46.9338 L1535.34 72.576 L1527.85 72.576 L1527.85 27.2059 L1535.34 27.2059 L1535.34 34.2544 Q1538.01 30.163 1541.62 28.1376 Q1545.26 26.1121 1550 26.1121 Q1557.82 26.1121 1561.83 30.9732 Q1565.84 35.7938 1565.84 45.1919 Z" fill="#000000" fill-rule="nonzero" fill-opacity="1" /><path clip-path="url(#clip070)" d="M1633.37 34.1734 Q1632.12 33.4443 1630.62 33.1202 Q1629.16 32.7556 1627.38 32.7556 Q1621.06 32.7556 1617.65 36.8875 Q1614.29 40.9789 1614.29 48.6757 L1614.29 72.576 L1606.8 72.576 L1606.8 27.2059 L1614.29 27.2059 L1614.29 34.2544 Q1616.64 30.1225 1620.41 28.1376 Q1624.18 26.1121 1629.56 26.1121 Q1630.33 26.1121 1631.27 26.2337 Q1632.2 26.3147 1633.33 26.5172 L1633.37 34.1734 Z" fill="#000000" fill-rule="nonzero" fill-opacity="1" /><path clip-path="url(#clip070)" d="M1661.81 49.7694 Q1652.78 49.7694 1649.29 51.8354 Q1645.81 53.9013 1645.81 58.8839 Q1645.81 62.8538 1648.4 65.2034 Q1651.03 67.5124 1655.53 67.5124 Q1661.73 67.5124 1665.46 63.1374 Q1669.22 58.7219 1669.22 51.4303 L1669.22 49.7694 L1661.81 49.7694 M1676.68 46.6907 L1676.68 72.576 L1669.22 72.576 L1669.22 65.6895 Q1666.67 69.8214 1662.86 71.8063 Q1659.05 73.7508 1653.55 73.7508 Q1646.58 73.7508 1642.45 69.8619 Q1638.35 65.9325 1638.35 59.3701 Q1638.35 51.7138 1643.46 47.825 Q1648.6 43.9361 1658.77 43.9361 L1669.22 43.9361 L1669.22 43.2069 Q1669.22 38.0623 1665.82 35.2672 Q1662.46 32.4315 1656.34 32.4315 Q1652.45 32.4315 1648.77 33.3632 Q1645.08 34.295 1641.68 36.1584 L1641.68 29.2718 Q1645.77 27.692 1649.62 26.9223 Q1653.46 26.1121 1657.11 26.1121 Q1666.95 26.1121 1671.82 31.2163 Q1676.68 36.3204 1676.68 46.6907 Z" fill="#000000" fill-rule="nonzero" fill-opacity="1" /><path clip-path="url(#clip070)" d="M1699.4 14.324 L1699.4 27.2059 L1714.75 27.2059 L1714.75 32.9987 L1699.4 32.9987 L1699.4 57.6282 Q1699.4 63.1779 1700.9 64.7578 Q1702.44 66.3376 1707.1 66.3376 L1714.75 66.3376 L1714.75 72.576 L1707.1 72.576 Q1698.47 72.576 1695.19 69.3758 Q1691.91 66.1351 1691.91 57.6282 L1691.91 32.9987 L1686.44 32.9987 L1686.44 27.2059 L1691.91 27.2059 L1691.91 14.324 L1699.4 14.324 Z" fill="#000000" fill-rule="nonzero" fill-opacity="1" /><path clip-path="url(#clip070)" d="M1763.37 48.0275 L1763.37 51.6733 L1729.09 51.6733 Q1729.58 59.3701 1733.71 63.421 Q1737.89 67.4314 1745.3 67.4314 Q1749.59 67.4314 1753.6 66.3781 Q1757.65 65.3249 1761.62 63.2184 L1761.62 70.267 Q1757.61 71.9684 1753.4 72.8596 Q1749.19 73.7508 1744.85 73.7508 Q1734 73.7508 1727.64 67.4314 Q1721.32 61.1119 1721.32 50.3365 Q1721.32 39.1965 1727.31 32.6746 Q1733.35 26.1121 1743.56 26.1121 Q1752.71 26.1121 1758.02 32.0264 Q1763.37 37.9003 1763.37 48.0275 M1755.91 45.84 Q1755.83 39.7232 1752.47 36.0774 Q1749.15 32.4315 1743.64 32.4315 Q1737.4 32.4315 1733.63 35.9558 Q1729.9 39.4801 1729.34 45.8805 L1755.91 45.84 Z" fill="#000000" fill-rule="nonzero" fill-opacity="1" /><path clip-path="url(#clip070)" d="M1834.54 49.9314 Q1834.54 41.7081 1831.14 37.0496 Q1827.77 32.3505 1821.86 32.3505 Q1815.95 32.3505 1812.54 37.0496 Q1809.18 41.7081 1809.18 49.9314 Q1809.18 58.1548 1812.54 62.8538 Q1815.95 67.5124 1821.86 67.5124 Q1827.77 67.5124 1831.14 62.8538 Q1834.54 58.1548 1834.54 49.9314 M1809.18 34.0924 Q1811.53 30.0415 1815.1 28.0971 Q1818.7 26.1121 1823.68 26.1121 Q1831.95 26.1121 1837.09 32.6746 Q1842.28 39.2371 1842.28 49.9314 Q1842.28 60.6258 1837.09 67.1883 Q1831.95 73.7508 1823.68 73.7508 Q1818.7 73.7508 1815.1 71.8063 Q1811.53 69.8214 1809.18 65.7705 L1809.18 72.576 L1801.69 72.576 L1801.69 9.54393 L1809.18 9.54393 L1809.18 34.0924 Z" fill="#000000" fill-rule="nonzero" fill-opacity="1" /><path clip-path="url(#clip070)" d="M1873.51 76.7889 Q1870.35 84.8907 1867.35 87.3618 Q1864.35 89.8329 1859.33 89.8329 L1853.38 89.8329 L1853.38 83.5945 L1857.75 83.5945 Q1860.83 83.5945 1862.53 82.1361 Q1864.23 80.6778 1866.3 75.2496 L1867.64 71.8468 L1849.29 27.2059 L1857.18 27.2059 L1871.36 62.6918 L1885.54 27.2059 L1893.44 27.2059 L1873.51 76.7889 Z" fill="#000000" fill-rule="nonzero" fill-opacity="1" /><path clip-path="url(#clip070)" d="M1930.1 9.54393 L1937.55 9.54393 L1937.55 72.576 L1930.1 72.576 L1930.1 9.54393 Z" fill="#000000" fill-rule="nonzero" fill-opacity="1" /><path clip-path="url(#clip070)" d="M1953.15 27.2059 L1960.6 27.2059 L1960.6 72.576 L1953.15 72.576 L1953.15 27.2059 M1953.15 9.54393 L1960.6 9.54393 L1960.6 18.9825 L1953.15 18.9825 L1953.15 9.54393 Z" fill="#000000" fill-rule="nonzero" fill-opacity="1" /><path clip-path="url(#clip070)" d="M1975.92 9.54393 L1983.41 9.54393 L1983.41 46.7717 L2005.65 27.2059 L2015.17 27.2059 L1991.11 48.4326 L2016.18 72.576 L2006.46 72.576 L1983.41 50.4176 L1983.41 72.576 L1975.92 72.576 L1975.92 9.54393 Z" fill="#000000" fill-rule="nonzero" fill-opacity="1" /><path clip-path="url(#clip070)" d="M2060.09 48.0275 L2060.09 51.6733 L2025.82 51.6733 Q2026.31 59.3701 2030.44 63.421 Q2034.61 67.4314 2042.03 67.4314 Q2046.32 67.4314 2050.33 66.3781 Q2054.38 65.3249 2058.35 63.2184 L2058.35 70.267 Q2054.34 71.9684 2050.13 72.8596 Q2045.92 73.7508 2041.58 73.7508 Q2030.73 73.7508 2024.37 67.4314 Q2018.05 61.1119 2018.05 50.3365 Q2018.05 39.1965 2024.04 32.6746 Q2030.08 26.1121 2040.29 26.1121 Q2049.44 26.1121 2054.75 32.0264 Q2060.09 37.9003 2060.09 48.0275 M2052.64 45.84 Q2052.56 39.7232 2049.2 36.0774 Q2045.88 32.4315 2040.37 32.4315 Q2034.13 32.4315 2030.36 35.9558 Q2026.63 39.4801 2026.07 45.8805 L2052.64 45.84 Z" fill="#000000" fill-rule="nonzero" fill-opacity="1" /><path clip-path="url(#clip070)" d="M2072.33 9.54393 L2079.78 9.54393 L2079.78 72.576 L2072.33 72.576 L2072.33 9.54393 Z" fill="#000000" fill-rule="nonzero" fill-opacity="1" /><path clip-path="url(#clip070)" d="M2095.38 27.2059 L2102.83 27.2059 L2102.83 72.576 L2095.38 72.576 L2095.38 27.2059 M2095.38 9.54393 L2102.83 9.54393 L2102.83 18.9825 L2095.38 18.9825 L2095.38 9.54393 Z" fill="#000000" fill-rule="nonzero" fill-opacity="1" /><path clip-path="url(#clip070)" d="M2156.14 45.1919 L2156.14 72.576 L2148.69 72.576 L2148.69 45.4349 Q2148.69 38.994 2146.18 35.7938 Q2143.66 32.5936 2138.64 32.5936 Q2132.61 32.5936 2129.12 36.4419 Q2125.64 40.2903 2125.64 46.9338 L2125.64 72.576 L2118.14 72.576 L2118.14 9.54393 L2125.64 9.54393 L2125.64 34.2544 Q2128.31 30.163 2131.92 28.1376 Q2135.56 26.1121 2140.3 26.1121 Q2148.12 26.1121 2152.13 30.9732 Q2156.14 35.7938 2156.14 45.1919 Z" fill="#000000" fill-rule="nonzero" fill-opacity="1" /><path clip-path="url(#clip070)" d="M2188.59 32.4315 Q2182.59 32.4315 2179.11 37.1306 Q2175.63 41.7891 2175.63 49.9314 Q2175.63 58.0738 2179.07 62.7728 Q2182.55 67.4314 2188.59 67.4314 Q2194.54 67.4314 2198.03 62.7323 Q2201.51 58.0333 2201.51 49.9314 Q2201.51 41.8701 2198.03 37.1711 Q2194.54 32.4315 2188.59 32.4315 M2188.59 26.1121 Q2198.31 26.1121 2203.86 32.4315 Q2209.41 38.7509 2209.41 49.9314 Q2209.41 61.0714 2203.86 67.4314 Q2198.31 73.7508 2188.59 73.7508 Q2178.83 73.7508 2173.28 67.4314 Q2167.77 61.0714 2167.77 49.9314 Q2167.77 38.7509 2173.28 32.4315 Q2178.83 26.1121 2188.59 26.1121 Z" fill="#000000" fill-rule="nonzero" fill-opacity="1" /><path clip-path="url(#clip070)" d="M2239.35 32.4315 Q2233.35 32.4315 2229.87 37.1306 Q2226.38 41.7891 2226.38 49.9314 Q2226.38 58.0738 2229.83 62.7728 Q2233.31 67.4314 2239.35 67.4314 Q2245.3 67.4314 2248.79 62.7323 Q2252.27 58.0333 2252.27 49.9314 Q2252.27 41.8701 2248.79 37.1711 Q2245.3 32.4315 2239.35 32.4315 M2239.35 26.1121 Q2249.07 26.1121 2254.62 32.4315 Q2260.17 38.7509 2260.17 49.9314 Q2260.17 61.0714 2254.62 67.4314 Q2249.07 73.7508 2239.35 73.7508 Q2229.58 73.7508 2224.03 67.4314 Q2218.53 61.0714 2218.53 49.9314 Q2218.53 38.7509 2224.03 32.4315 Q2229.58 26.1121 2239.35 26.1121 Z" fill="#000000" fill-rule="nonzero" fill-opacity="1" /><path clip-path="url(#clip070)" d="M2302.38 34.0924 L2302.38 9.54393 L2309.83 9.54393 L2309.83 72.576 L2302.38 72.576 L2302.38 65.7705 Q2300.03 69.8214 2296.42 71.8063 Q2292.86 73.7508 2287.84 73.7508 Q2279.61 73.7508 2274.43 67.1883 Q2269.28 60.6258 2269.28 49.9314 Q2269.28 39.2371 2274.43 32.6746 Q2279.61 26.1121 2287.84 26.1121 Q2292.86 26.1121 2296.42 28.0971 Q2300.03 30.0415 2302.38 34.0924 M2276.98 49.9314 Q2276.98 58.1548 2280.34 62.8538 Q2283.74 67.5124 2289.66 67.5124 Q2295.57 67.5124 2298.98 62.8538 Q2302.38 58.1548 2302.38 49.9314 Q2302.38 41.7081 2298.98 37.0496 Q2295.57 32.3505 2289.66 32.3505 Q2283.74 32.3505 2280.34 37.0496 Q2276.98 41.7081 2276.98 49.9314 Z" fill="#000000" fill-rule="nonzero" fill-opacity="1" /><polyline clip-path="url(#clip071)" style="stroke:#000000; stroke-linecap:round; stroke-linejoin:round; stroke-width:12; stroke-opacity:1; fill:none" stroke-dasharray="48, 30" points="323.787,255.349 346.509,270.529 369.231,285.678 391.953,300.796 414.675,315.884 437.397,330.942 460.119,345.969 482.841,360.966 505.563,375.932 528.286,390.868 551.008,405.775 573.73,420.651 596.452,435.497 619.174,450.313 641.896,465.099 664.618,479.855 687.34,494.582 710.062,509.279 732.784,523.946 755.506,538.584 778.228,553.192 800.95,567.77 823.672,582.319 846.394,596.839 869.117,611.33 891.839,625.791 914.561,640.223 937.283,654.626 960.005,669 982.727,683.344 1005.45,697.66 1028.17,711.947 1050.89,726.205 1073.62,740.435 1096.34,754.636 1119.06,768.808 1141.78,782.951 1164.5,797.066 1187.23,811.152 1209.95,825.21 1232.67,839.24 1255.39,853.241 1278.11,867.214 1300.84,881.159 1323.56,895.076 1346.28,908.964 1369,922.825 1391.72,936.657 1414.45,950.462 1437.17,964.239 1459.89,977.988 1482.61,991.709 1505.33,1005.4 1528.06,1019.07 1550.78,1032.71 1573.5,1046.32 1596.22,1059.9 1618.94,1073.46 1641.67,1086.99 1664.39,1100.49 1687.11,1113.96 1709.83,1127.41 1732.55,1140.83 1755.28,1154.22 1778,1167.59 1800.72,1180.92 1823.44,1194.24 1846.17,1207.52 1868.89,1220.78 1891.61,1234.01 1914.33,1247.21 1937.05,1260.39 1959.78,1273.54 1982.5,1286.67 2005.22,1299.77 2027.94,1312.84 2050.66,1325.88 2073.39,1338.9 2096.11,1351.9 2118.83,1364.86 2141.55,1377.8 2164.27,1390.72 2187,1403.61 2209.72,1416.47 2232.44,1429.3 2255.16,1442.11 2277.88,1454.9 2300.61,1467.66 2323.33,1480.39 2346.05,1493.1 2368.77,1505.78 2391.49,1518.44 2414.22,1531.07 2436.94,1543.67 2459.66,1556.25 2482.38,1568.81 2505.11,1581.33 2527.83,1593.84 2550.55,1606.32 2573.27,1618.77 "/>
<polyline clip-path="url(#clip071)" style="stroke:#0000ff; stroke-linecap:round; stroke-linejoin:round; stroke-width:8; stroke-opacity:1; fill:none" points="323.787,463.565 346.509,468.916 369.231,474.258 391.953,479.596 414.675,484.929 437.397,490.26 460.119,495.591 482.841,500.925 505.563,506.262 528.286,511.606 551.008,516.958 573.73,522.319 596.452,527.693 619.174,533.08 641.896,538.484 664.618,543.905 687.34,549.346 710.062,554.809 732.784,560.296 755.506,565.809 778.228,571.35 800.95,576.922 823.672,582.531 846.394,588.186 869.117,593.892 891.839,599.658 914.561,605.489 937.283,611.393 960.005,617.377 982.727,623.448 1005.45,629.613 1028.17,635.88 1050.89,642.254 1073.62,648.743 1096.34,655.355 1119.06,662.095 1141.78,668.97 1164.5,675.979 1187.23,683.125 1209.95,690.409 1232.67,697.831 1255.39,705.392 1278.11,713.095 1300.84,720.939 1323.56,728.926 1346.28,737.058 1369,745.335 1391.72,753.758 1414.45,762.328 1437.17,771.047 1459.89,779.916 1482.61,788.935 1505.33,798.104 1528.06,807.423 1550.78,816.891 1573.5,826.509 1596.22,836.276 1618.94,846.192 1641.67,856.257 1664.39,866.47 1687.11,876.832 1709.83,887.342 1732.55,898 1755.28,908.806 1778,919.76 1800.72,930.861 1823.44,942.11 1846.17,953.506 1868.89,965.05 1891.61,976.742 1914.33,988.58 1937.05,1000.57 1959.78,1012.7 1982.5,1024.98 2005.22,1037.41 2027.94,1049.99 2050.66,1062.71 2073.39,1075.59 2096.11,1088.61 2118.83,1101.78 2141.55,1115.09 2164.27,1128.55 2187,1142.15 2209.72,1155.89 2232.44,1169.75 2255.16,1183.73 2277.88,1197.84 2300.61,1212.05 2323.33,1226.38 2346.05,1240.81 2368.77,1255.34 2391.49,1269.96 2414.22,1284.67 2436.94,1299.46 2459.66,1314.33 2482.38,1329.28 2505.11,1344.29 2527.83,1359.37 2550.55,1374.51 2573.27,1389.69 "/>
<polyline clip-path="url(#clip071)" style="stroke:#008000; stroke-linecap:round; stroke-linejoin:round; stroke-width:8; stroke-opacity:1; fill:none" points="323.787,617.944 346.509,618.466 369.231,620.139 391.953,622.67 414.675,625.768 437.397,629.143 460.119,632.504 482.841,635.559 505.563,638.017 528.286,639.588 551.008,639.979 573.73,638.9 596.452,636.059 619.174,631.166 641.896,623.93 664.618,614.058 687.34,601.261 710.062,585.247 732.784,565.724 755.506,542.402 778.228,514.992 800.95,483.588 823.672,449.147 846.394,412.738 869.117,375.433 891.839,338.303 914.561,302.419 937.283,268.852 960.005,238.672 982.727,212.952 1005.45,192.761 1028.17,179.172 1050.89,173.254 1073.62,176.079 1096.34,188.719 1119.06,212.226 1141.78,246.74 1164.5,291.044 1187.23,343.811 1209.95,403.714 1232.67,469.426 1255.39,539.621 1278.11,612.972 1300.84,688.152 1323.56,763.833 1346.28,838.69 1369,911.395 1391.72,980.622 1414.45,1045.04 1437.17,1103.33 1459.89,1154.19 1482.61,1197.08 1505.33,1232.18 1528.06,1259.71 1550.78,1279.9 1573.5,1292.98 1596.22,1299.17 1618.94,1298.68 1641.67,1291.76 1664.39,1278.61 1687.11,1259.46 1709.83,1234.54 1732.55,1204.07 1755.28,1168.27 1778,1127.37 1800.72,1081.63 1823.44,1031.77 1846.17,978.814 1868.89,923.81 1891.61,867.792 1914.33,811.797 1937.05,756.863 1959.78,704.026 1982.5,654.325 2005.22,608.798 2027.94,568.48 2050.66,534.411 2073.39,507.627 2096.11,489.165 2118.83,480.064 2141.55,481.216 2164.27,492.442 2187,513.082 2209.72,542.475 2232.44,579.959 2255.16,624.874 2277.88,676.557 2300.61,734.347 2323.33,797.583 2346.05,865.603 2368.77,937.746 2391.49,1013.35 2414.22,1091.75 2436.94,1172.29 2459.66,1254.31 2482.38,1337.23 2505.11,1420.89 2527.83,1505.22 2550.55,1590.18 2573.27,1675.71 "/>
<polyline clip-path="url(#clip071)" style="stroke:#ff0000; stroke-linecap:round; stroke-linejoin:round; stroke-width:8; stroke-opacity:1; fill:none" points="323.787,198.312 346.509,208.66 369.231,219.003 391.953,229.341 414.675,239.677 437.397,250.012 460.119,260.346 482.841,270.682 505.563,281.021 528.286,291.364 551.008,301.713 573.73,312.069 596.452,322.434 619.174,332.808 641.896,343.194 664.618,353.593 687.34,364.005 710.062,374.433 732.784,384.879 755.506,395.342 778.228,405.826 800.95,416.332 823.672,426.867 846.394,437.439 869.117,448.053 891.839,458.717 914.561,469.437 937.283,480.221 960.005,491.075 982.727,502.007 1005.45,513.022 1028.17,524.129 1050.89,535.333 1073.62,546.642 1096.34,558.062 1119.06,569.601 1141.78,581.264 1164.5,593.055 1187.23,604.979 1209.95,617.04 1232.67,629.242 1255.39,641.59 1278.11,654.087 1300.84,666.739 1323.56,679.548 1346.28,692.52 1369,705.658 1391.72,718.968 1414.45,732.452 1437.17,746.116 1459.89,759.963 1482.61,773.997 1505.33,788.22 1528.06,802.636 1550.78,817.245 1573.5,832.052 1596.22,847.058 1618.94,862.266 1641.67,877.678 1664.39,893.298 1687.11,909.127 1709.83,925.167 1732.55,941.423 1755.28,957.895 1778,974.586 1800.72,991.5 1823.44,1008.64 1846.17,1025.99 1868.89,1043.57 1891.61,1061.38 1914.33,1079.4 1937.05,1097.64 1959.78,1116.1 1982.5,1134.79 2005.22,1153.69 2027.94,1172.81 2050.66,1192.15 2073.39,1211.71 2096.11,1231.49 2118.83,1251.49 2141.55,1271.7 2164.27,1292.12 2187,1312.75 2209.72,1333.58 2232.44,1354.6 2255.16,1375.81 2277.88,1397.2 2300.61,1418.76 2323.33,1440.49 2346.05,1462.38 2368.77,1484.42 2391.49,1506.61 2414.22,1528.94 2436.94,1551.41 2459.66,1574.01 2482.38,1596.73 2505.11,1619.56 2527.83,1642.49 2550.55,1665.53 2573.27,1688.65 "/>
<path clip-path="url(#clip070)" d="M335.784 1680.57 L859.066 1680.57 L859.066 1421.37 L335.784 1421.37  Z" fill="#ffffff" fill-rule="evenodd" fill-opacity="1"/>
<polyline clip-path="url(#clip070)" style="stroke:#000000; stroke-linecap:round; stroke-linejoin:round; stroke-width:4; stroke-opacity:1; fill:none" points="335.784,1680.57 859.066,1680.57 859.066,1421.37 335.784,1421.37 335.784,1680.57 "/>
<polyline clip-path="url(#clip070)" style="stroke:#000000; stroke-linecap:round; stroke-linejoin:round; stroke-width:12; stroke-opacity:1; fill:none" stroke-dasharray="48, 30" points="362.278,1473.21 521.242,1473.21 "/>
<path clip-path="url(#clip070)" d="M547.736 1455.93 L576.972 1455.93 L576.972 1459.87 L564.703 1459.87 L564.703 1490.49 L560.004 1490.49 L560.004 1459.87 L547.736 1459.87 L547.736 1455.93 Z" fill="#000000" fill-rule="nonzero" fill-opacity="1" /><path clip-path="url(#clip070)" d="M589.356 1468.55 Q588.638 1468.13 587.782 1467.95 Q586.948 1467.74 585.93 1467.74 Q582.319 1467.74 580.374 1470.1 Q578.453 1472.44 578.453 1476.84 L578.453 1490.49 L574.171 1490.49 L574.171 1464.57 L578.453 1464.57 L578.453 1468.59 Q579.796 1466.23 581.948 1465.1 Q584.101 1463.94 587.18 1463.94 Q587.62 1463.94 588.152 1464.01 Q588.684 1464.06 589.333 1464.17 L589.356 1468.55 Z" fill="#000000" fill-rule="nonzero" fill-opacity="1" /><path clip-path="url(#clip070)" d="M593.384 1480.26 L593.384 1464.57 L597.643 1464.57 L597.643 1480.1 Q597.643 1483.78 599.078 1485.63 Q600.513 1487.46 603.383 1487.46 Q606.833 1487.46 608.823 1485.26 Q610.837 1483.06 610.837 1479.27 L610.837 1464.57 L615.096 1464.57 L615.096 1490.49 L610.837 1490.49 L610.837 1486.51 Q609.286 1488.87 607.226 1490.03 Q605.189 1491.16 602.481 1491.16 Q598.013 1491.16 595.698 1488.39 Q593.384 1485.61 593.384 1480.26 M604.101 1463.94 L604.101 1463.94 Z" fill="#000000" fill-rule="nonzero" fill-opacity="1" /><path clip-path="url(#clip070)" d="M646.045 1476.47 L646.045 1478.55 L626.462 1478.55 Q626.74 1482.95 629.101 1485.26 Q631.485 1487.55 635.721 1487.55 Q638.175 1487.55 640.467 1486.95 Q642.781 1486.35 645.05 1485.15 L645.05 1489.17 Q642.758 1490.15 640.351 1490.65 Q637.943 1491.16 635.467 1491.16 Q629.263 1491.16 625.629 1487.55 Q622.018 1483.94 622.018 1477.78 Q622.018 1471.42 625.444 1467.69 Q628.893 1463.94 634.726 1463.94 Q639.957 1463.94 642.99 1467.32 Q646.045 1470.68 646.045 1476.47 M641.786 1475.22 Q641.74 1471.72 639.818 1469.64 Q637.92 1467.55 634.772 1467.55 Q631.207 1467.55 629.055 1469.57 Q626.925 1471.58 626.601 1475.24 L641.786 1475.22 Z" fill="#000000" fill-rule="nonzero" fill-opacity="1" /><path clip-path="url(#clip070)" d="M672.365 1488.9 L672.365 1500.35 L668.082 1500.35 L668.082 1464.73 Q668.082 1454.17 677.943 1454.17 Q687.99 1454.17 687.99 1463.09 Q687.99 1469.43 684.008 1471.74 Q690.489 1473.83 690.489 1480.01 Q690.489 1490.98 679.332 1490.98 Q674.425 1490.98 672.365 1488.9 M672.365 1483.34 Q674.934 1487.34 679.494 1487.34 Q686.161 1487.34 686.161 1480.08 Q686.161 1473.55 675.42 1474.06 L675.42 1470.12 Q683.823 1470.12 683.823 1462.72 Q683.823 1457.65 678.406 1457.65 Q672.365 1457.65 672.365 1464.87 L672.365 1483.34 Z" fill="#000000" fill-rule="nonzero" fill-opacity="1" /><path clip-path="url(#clip070)" d="M708.591 1454.52 Q705.489 1459.84 703.985 1465.05 Q702.48 1470.26 702.48 1475.61 Q702.48 1480.96 703.985 1486.21 Q705.513 1491.44 708.591 1496.74 L704.888 1496.74 Q701.415 1491.3 699.679 1486.05 Q697.966 1480.79 697.966 1475.61 Q697.966 1470.45 699.679 1465.22 Q701.392 1459.98 704.888 1454.52 L708.591 1454.52 Z" fill="#000000" fill-rule="nonzero" fill-opacity="1" /><path clip-path="url(#clip070)" d="M720.975 1486.6 L720.975 1500.35 L716.693 1500.35 L716.693 1464.57 L720.975 1464.57 L720.975 1468.5 Q722.318 1466.19 724.355 1465.08 Q726.415 1463.94 729.262 1463.94 Q733.985 1463.94 736.924 1467.69 Q739.887 1471.44 739.887 1477.55 Q739.887 1483.66 736.924 1487.41 Q733.985 1491.16 729.262 1491.16 Q726.415 1491.16 724.355 1490.05 Q722.318 1488.92 720.975 1486.6 M735.466 1477.55 Q735.466 1472.85 733.522 1470.19 Q731.6 1467.51 728.221 1467.51 Q724.841 1467.51 722.897 1470.19 Q720.975 1472.85 720.975 1477.55 Q720.975 1482.25 722.897 1484.94 Q724.841 1487.6 728.221 1487.6 Q731.6 1487.6 733.522 1484.94 Q735.466 1482.25 735.466 1477.55 Z" fill="#000000" fill-rule="nonzero" fill-opacity="1" /><path clip-path="url(#clip070)" d="M761.971 1468.55 Q761.253 1468.13 760.397 1467.95 Q759.563 1467.74 758.545 1467.74 Q754.934 1467.74 752.989 1470.1 Q751.068 1472.44 751.068 1476.84 L751.068 1490.49 L746.785 1490.49 L746.785 1464.57 L751.068 1464.57 L751.068 1468.59 Q752.41 1466.23 754.563 1465.1 Q756.716 1463.94 759.795 1463.94 Q760.234 1463.94 760.767 1464.01 Q761.299 1464.06 761.947 1464.17 L761.971 1468.55 Z" fill="#000000" fill-rule="nonzero" fill-opacity="1" /><path clip-path="url(#clip070)" d="M787.572 1476.47 L787.572 1478.55 L767.989 1478.55 Q768.267 1482.95 770.628 1485.26 Q773.012 1487.55 777.248 1487.55 Q779.702 1487.55 781.994 1486.95 Q784.308 1486.35 786.577 1485.15 L786.577 1489.17 Q784.285 1490.15 781.878 1490.65 Q779.47 1491.16 776.994 1491.16 Q770.79 1491.16 767.156 1487.55 Q763.545 1483.94 763.545 1477.78 Q763.545 1471.42 766.971 1467.69 Q770.42 1463.94 776.253 1463.94 Q781.484 1463.94 784.517 1467.32 Q787.572 1470.68 787.572 1476.47 M783.313 1475.22 Q783.267 1471.72 781.345 1469.64 Q779.447 1467.55 776.299 1467.55 Q772.734 1467.55 770.582 1469.57 Q768.452 1471.58 768.128 1475.24 L783.313 1475.22 Z" fill="#000000" fill-rule="nonzero" fill-opacity="1" /><path clip-path="url(#clip070)" d="M791.507 1464.57 L796.021 1464.57 L804.123 1486.33 L812.225 1464.57 L816.739 1464.57 L807.017 1490.49 L801.23 1490.49 L791.507 1464.57 Z" fill="#000000" fill-rule="nonzero" fill-opacity="1" /><path clip-path="url(#clip070)" d="M821.947 1454.52 L825.651 1454.52 Q829.123 1459.98 830.836 1465.22 Q832.572 1470.45 832.572 1475.61 Q832.572 1480.79 830.836 1486.05 Q829.123 1491.3 825.651 1496.74 L821.947 1496.74 Q825.026 1491.44 826.53 1486.21 Q828.058 1480.96 828.058 1475.61 Q828.058 1470.26 826.53 1465.05 Q825.026 1459.84 821.947 1454.52 Z" fill="#000000" fill-rule="nonzero" fill-opacity="1" /><polyline clip-path="url(#clip070)" style="stroke:#0000ff; stroke-linecap:round; stroke-linejoin:round; stroke-width:8; stroke-opacity:1; fill:none" points="362.278,1525.05 521.242,1525.05 "/>
<path clip-path="url(#clip070)" d="M573.291 1537.4 L573.291 1528.12 L565.652 1528.12 L565.652 1524.28 L577.921 1524.28 L577.921 1539.12 Q575.212 1541.04 571.948 1542.03 Q568.685 1543 564.981 1543 Q556.879 1543 552.296 1538.28 Q547.736 1533.54 547.736 1525.09 Q547.736 1516.62 552.296 1511.89 Q556.879 1507.15 564.981 1507.15 Q568.361 1507.15 571.393 1507.98 Q574.448 1508.81 577.018 1510.43 L577.018 1515.41 Q574.425 1513.21 571.509 1512.1 Q568.592 1510.99 565.374 1510.99 Q559.032 1510.99 555.837 1514.53 Q552.666 1518.07 552.666 1525.09 Q552.666 1532.08 555.837 1535.62 Q559.032 1539.16 565.374 1539.16 Q567.851 1539.16 569.796 1538.74 Q571.74 1538.31 573.291 1537.4 Z" fill="#000000" fill-rule="nonzero" fill-opacity="1" /><path clip-path="url(#clip070)" d="M598.059 1529.3 Q592.897 1529.3 590.907 1530.48 Q588.916 1531.66 588.916 1534.51 Q588.916 1536.78 590.397 1538.12 Q591.902 1539.44 594.471 1539.44 Q598.013 1539.44 600.143 1536.94 Q602.296 1534.42 602.296 1530.25 L602.296 1529.3 L598.059 1529.3 M606.555 1527.54 L606.555 1542.33 L602.296 1542.33 L602.296 1538.4 Q600.837 1540.76 598.661 1541.89 Q596.485 1543 593.337 1543 Q589.356 1543 586.995 1540.78 Q584.657 1538.54 584.657 1534.79 Q584.657 1530.41 587.573 1528.19 Q590.513 1525.97 596.323 1525.97 L602.296 1525.97 L602.296 1525.55 Q602.296 1522.61 600.351 1521.01 Q598.43 1519.39 594.934 1519.39 Q592.712 1519.39 590.606 1519.93 Q588.499 1520.46 586.555 1521.52 L586.555 1517.59 Q588.893 1516.68 591.092 1516.25 Q593.291 1515.78 595.374 1515.78 Q600.999 1515.78 603.777 1518.7 Q606.555 1521.62 606.555 1527.54 Z" fill="#000000" fill-rule="nonzero" fill-opacity="1" /><path clip-path="url(#clip070)" d="M614.888 1532.1 L614.888 1516.41 L619.147 1516.41 L619.147 1531.94 Q619.147 1535.62 620.582 1537.47 Q622.018 1539.3 624.888 1539.3 Q628.337 1539.3 630.328 1537.1 Q632.342 1534.9 632.342 1531.11 L632.342 1516.41 L636.601 1516.41 L636.601 1542.33 L632.342 1542.33 L632.342 1538.35 Q630.791 1540.71 628.731 1541.87 Q626.694 1543 623.985 1543 Q619.518 1543 617.203 1540.23 Q614.888 1537.45 614.888 1532.1 M625.606 1515.78 L625.606 1515.78 Z" fill="#000000" fill-rule="nonzero" fill-opacity="1" /><path clip-path="url(#clip070)" d="M661.902 1517.17 L661.902 1521.2 Q660.096 1520.27 658.152 1519.81 Q656.207 1519.35 654.124 1519.35 Q650.953 1519.35 649.355 1520.32 Q647.781 1521.29 647.781 1523.24 Q647.781 1524.72 648.916 1525.57 Q650.05 1526.41 653.476 1527.17 L654.934 1527.49 Q659.471 1528.47 661.369 1530.25 Q663.291 1532.01 663.291 1535.18 Q663.291 1538.79 660.42 1540.9 Q657.573 1543 652.573 1543 Q650.49 1543 648.221 1542.59 Q645.976 1542.19 643.476 1541.38 L643.476 1536.99 Q645.837 1538.21 648.129 1538.84 Q650.42 1539.44 652.666 1539.44 Q655.675 1539.44 657.295 1538.42 Q658.916 1537.38 658.916 1535.5 Q658.916 1533.77 657.735 1532.84 Q656.578 1531.92 652.619 1531.06 L651.138 1530.71 Q647.18 1529.88 645.42 1528.17 Q643.661 1526.43 643.661 1523.42 Q643.661 1519.76 646.254 1517.77 Q648.846 1515.78 653.615 1515.78 Q655.976 1515.78 658.059 1516.13 Q660.142 1516.48 661.902 1517.17 Z" fill="#000000" fill-rule="nonzero" fill-opacity="1" /><path clip-path="url(#clip070)" d="M686.601 1517.17 L686.601 1521.2 Q684.795 1520.27 682.851 1519.81 Q680.906 1519.35 678.823 1519.35 Q675.652 1519.35 674.054 1520.32 Q672.48 1521.29 672.48 1523.24 Q672.48 1524.72 673.615 1525.57 Q674.749 1526.41 678.175 1527.17 L679.633 1527.49 Q684.17 1528.47 686.068 1530.25 Q687.99 1532.01 687.99 1535.18 Q687.99 1538.79 685.119 1540.9 Q682.272 1543 677.272 1543 Q675.189 1543 672.92 1542.59 Q670.675 1542.19 668.175 1541.38 L668.175 1536.99 Q670.536 1538.21 672.828 1538.84 Q675.119 1539.44 677.365 1539.44 Q680.374 1539.44 681.994 1538.42 Q683.615 1537.38 683.615 1535.5 Q683.615 1533.77 682.434 1532.84 Q681.277 1531.92 677.318 1531.06 L675.837 1530.71 Q671.878 1529.88 670.119 1528.17 Q668.36 1526.43 668.36 1523.42 Q668.36 1519.76 670.953 1517.77 Q673.545 1515.78 678.314 1515.78 Q680.675 1515.78 682.758 1516.13 Q684.841 1516.48 686.601 1517.17 Z" fill="#000000" fill-rule="nonzero" fill-opacity="1" /><path clip-path="url(#clip070)" d="M694.772 1516.41 L699.031 1516.41 L699.031 1542.33 L694.772 1542.33 L694.772 1516.41 M694.772 1506.31 L699.031 1506.31 L699.031 1511.71 L694.772 1511.71 L694.772 1506.31 Z" fill="#000000" fill-rule="nonzero" fill-opacity="1" /><path clip-path="url(#clip070)" d="M719.725 1529.3 Q714.563 1529.3 712.573 1530.48 Q710.582 1531.66 710.582 1534.51 Q710.582 1536.78 712.063 1538.12 Q713.568 1539.44 716.138 1539.44 Q719.679 1539.44 721.809 1536.94 Q723.962 1534.42 723.962 1530.25 L723.962 1529.3 L719.725 1529.3 M728.221 1527.54 L728.221 1542.33 L723.962 1542.33 L723.962 1538.4 Q722.503 1540.76 720.327 1541.89 Q718.151 1543 715.003 1543 Q711.022 1543 708.661 1540.78 Q706.323 1538.54 706.323 1534.79 Q706.323 1530.41 709.239 1528.19 Q712.179 1525.97 717.989 1525.97 L723.962 1525.97 L723.962 1525.55 Q723.962 1522.61 722.017 1521.01 Q720.096 1519.39 716.6 1519.39 Q714.378 1519.39 712.272 1519.93 Q710.165 1520.46 708.221 1521.52 L708.221 1517.59 Q710.559 1516.68 712.758 1516.25 Q714.957 1515.78 717.04 1515.78 Q722.665 1515.78 725.443 1518.7 Q728.221 1521.62 728.221 1527.54 Z" fill="#000000" fill-rule="nonzero" fill-opacity="1" /><path clip-path="url(#clip070)" d="M758.545 1526.68 L758.545 1542.33 L754.285 1542.33 L754.285 1526.82 Q754.285 1523.14 752.85 1521.31 Q751.415 1519.49 748.545 1519.49 Q745.096 1519.49 743.105 1521.68 Q741.114 1523.88 741.114 1527.68 L741.114 1542.33 L736.832 1542.33 L736.832 1516.41 L741.114 1516.41 L741.114 1520.43 Q742.642 1518.1 744.702 1516.94 Q746.785 1515.78 749.494 1515.78 Q753.961 1515.78 756.253 1518.56 Q758.545 1521.31 758.545 1526.68 Z" fill="#000000" fill-rule="nonzero" fill-opacity="1" /><polyline clip-path="url(#clip070)" style="stroke:#008000; stroke-linecap:round; stroke-linejoin:round; stroke-width:8; stroke-opacity:1; fill:none" points="362.278,1576.89 521.242,1576.89 "/>
<path clip-path="url(#clip070)" d="M552.412 1563.46 L552.412 1576.44 L558.291 1576.44 Q561.555 1576.44 563.337 1574.75 Q565.12 1573.06 565.12 1569.94 Q565.12 1566.84 563.337 1565.15 Q561.555 1563.46 558.291 1563.46 L552.412 1563.46 M547.736 1559.61 L558.291 1559.61 Q564.101 1559.61 567.064 1562.25 Q570.05 1564.87 570.05 1569.94 Q570.05 1575.05 567.064 1577.67 Q564.101 1580.28 558.291 1580.28 L552.412 1580.28 L552.412 1594.17 L547.736 1594.17 L547.736 1559.61 Z" fill="#000000" fill-rule="nonzero" fill-opacity="1" /><path clip-path="url(#clip070)" d="M584.495 1571.23 Q581.069 1571.23 579.078 1573.92 Q577.087 1576.58 577.087 1581.23 Q577.087 1585.89 579.055 1588.57 Q581.046 1591.23 584.495 1591.23 Q587.897 1591.23 589.888 1588.55 Q591.879 1585.86 591.879 1581.23 Q591.879 1576.63 589.888 1573.94 Q587.897 1571.23 584.495 1571.23 M584.495 1567.62 Q590.05 1567.62 593.221 1571.23 Q596.393 1574.84 596.393 1581.23 Q596.393 1587.6 593.221 1591.23 Q590.05 1594.84 584.495 1594.84 Q578.916 1594.84 575.745 1591.23 Q572.597 1587.6 572.597 1581.23 Q572.597 1574.84 575.745 1571.23 Q578.916 1567.62 584.495 1567.62 Z" fill="#000000" fill-rule="nonzero" fill-opacity="1" /><path clip-path="url(#clip070)" d="M603.453 1568.25 L607.712 1568.25 L607.712 1594.17 L603.453 1594.17 L603.453 1568.25 M603.453 1558.15 L607.712 1558.15 L607.712 1563.55 L603.453 1563.55 L603.453 1558.15 Z" fill="#000000" fill-rule="nonzero" fill-opacity="1" /><path clip-path="url(#clip070)" d="M633.152 1569.01 L633.152 1573.04 Q631.346 1572.11 629.402 1571.65 Q627.457 1571.19 625.374 1571.19 Q622.203 1571.19 620.606 1572.16 Q619.032 1573.13 619.032 1575.08 Q619.032 1576.56 620.166 1577.41 Q621.3 1578.25 624.726 1579.01 L626.184 1579.33 Q630.721 1580.31 632.619 1582.09 Q634.541 1583.85 634.541 1587.02 Q634.541 1590.63 631.67 1592.74 Q628.823 1594.84 623.823 1594.84 Q621.74 1594.84 619.471 1594.43 Q617.226 1594.03 614.726 1593.22 L614.726 1588.83 Q617.087 1590.05 619.379 1590.68 Q621.67 1591.28 623.916 1591.28 Q626.925 1591.28 628.545 1590.26 Q630.166 1589.22 630.166 1587.34 Q630.166 1585.61 628.985 1584.68 Q627.828 1583.76 623.869 1582.9 L622.388 1582.55 Q618.43 1581.72 616.67 1580.01 Q614.911 1578.27 614.911 1575.26 Q614.911 1571.6 617.504 1569.61 Q620.096 1567.62 624.865 1567.62 Q627.226 1567.62 629.309 1567.97 Q631.393 1568.32 633.152 1569.01 Z" fill="#000000" fill-rule="nonzero" fill-opacity="1" /><path clip-path="url(#clip070)" d="M657.851 1569.01 L657.851 1573.04 Q656.045 1572.11 654.101 1571.65 Q652.156 1571.19 650.073 1571.19 Q646.902 1571.19 645.305 1572.16 Q643.73 1573.13 643.73 1575.08 Q643.73 1576.56 644.865 1577.41 Q645.999 1578.25 649.425 1579.01 L650.883 1579.33 Q655.42 1580.31 657.318 1582.09 Q659.24 1583.85 659.24 1587.02 Q659.24 1590.63 656.369 1592.74 Q653.522 1594.84 648.522 1594.84 Q646.439 1594.84 644.17 1594.43 Q641.925 1594.03 639.425 1593.22 L639.425 1588.83 Q641.786 1590.05 644.078 1590.68 Q646.369 1591.28 648.615 1591.28 Q651.624 1591.28 653.244 1590.26 Q654.865 1589.22 654.865 1587.34 Q654.865 1585.61 653.684 1584.68 Q652.527 1583.76 648.568 1582.9 L647.087 1582.55 Q643.129 1581.72 641.369 1580.01 Q639.61 1578.27 639.61 1575.26 Q639.61 1571.6 642.203 1569.61 Q644.795 1567.62 649.564 1567.62 Q651.925 1567.62 654.008 1567.97 Q656.092 1568.32 657.851 1569.01 Z" fill="#000000" fill-rule="nonzero" fill-opacity="1" /><path clip-path="url(#clip070)" d="M676.068 1571.23 Q672.642 1571.23 670.652 1573.92 Q668.661 1576.58 668.661 1581.23 Q668.661 1585.89 670.628 1588.57 Q672.619 1591.23 676.068 1591.23 Q679.471 1591.23 681.462 1588.55 Q683.452 1585.86 683.452 1581.23 Q683.452 1576.63 681.462 1573.94 Q679.471 1571.23 676.068 1571.23 M676.068 1567.62 Q681.624 1567.62 684.795 1571.23 Q687.966 1574.84 687.966 1581.23 Q687.966 1587.6 684.795 1591.23 Q681.624 1594.84 676.068 1594.84 Q670.49 1594.84 667.318 1591.23 Q664.17 1587.6 664.17 1581.23 Q664.17 1574.84 667.318 1571.23 Q670.49 1567.62 676.068 1567.62 Z" fill="#000000" fill-rule="nonzero" fill-opacity="1" /><path clip-path="url(#clip070)" d="M716.577 1578.52 L716.577 1594.17 L712.318 1594.17 L712.318 1578.66 Q712.318 1574.98 710.883 1573.15 Q709.448 1571.33 706.577 1571.33 Q703.128 1571.33 701.138 1573.52 Q699.147 1575.72 699.147 1579.52 L699.147 1594.17 L694.864 1594.17 L694.864 1568.25 L699.147 1568.25 L699.147 1572.27 Q700.675 1569.94 702.735 1568.78 Q704.818 1567.62 707.526 1567.62 Q711.994 1567.62 714.286 1570.4 Q716.577 1573.15 716.577 1578.52 Z" fill="#000000" fill-rule="nonzero" fill-opacity="1" /><polyline clip-path="url(#clip070)" style="stroke:#ff0000; stroke-linecap:round; stroke-linejoin:round; stroke-width:8; stroke-opacity:1; fill:none" points="362.278,1628.73 521.242,1628.73 "/>
<path clip-path="url(#clip070)" d="M547.736 1611.45 L554.032 1611.45 L569.356 1640.36 L569.356 1611.45 L573.893 1611.45 L573.893 1646.01 L567.597 1646.01 L552.273 1617.1 L552.273 1646.01 L547.736 1646.01 L547.736 1611.45 Z" fill="#000000" fill-rule="nonzero" fill-opacity="1" /><path clip-path="url(#clip070)" d="M605.189 1631.99 L605.189 1634.07 L585.606 1634.07 Q585.884 1638.47 588.245 1640.78 Q590.629 1643.07 594.865 1643.07 Q597.319 1643.07 599.61 1642.47 Q601.925 1641.87 604.194 1640.67 L604.194 1644.69 Q601.902 1645.67 599.495 1646.17 Q597.087 1646.68 594.61 1646.68 Q588.407 1646.68 584.772 1643.07 Q581.161 1639.46 581.161 1633.3 Q581.161 1626.94 584.587 1623.21 Q588.036 1619.46 593.87 1619.46 Q599.101 1619.46 602.133 1622.84 Q605.189 1626.2 605.189 1631.99 M600.93 1630.74 Q600.883 1627.24 598.962 1625.16 Q597.064 1623.07 593.916 1623.07 Q590.351 1623.07 588.198 1625.09 Q586.069 1627.1 585.745 1630.76 L600.93 1630.74 Z" fill="#000000" fill-rule="nonzero" fill-opacity="1" /><path clip-path="url(#clip070)" d="M629.24 1632.75 Q629.24 1628.12 627.319 1625.57 Q625.42 1623.03 621.971 1623.03 Q618.545 1623.03 616.624 1625.57 Q614.726 1628.12 614.726 1632.75 Q614.726 1637.36 616.624 1639.9 Q618.545 1642.45 621.971 1642.45 Q625.42 1642.45 627.319 1639.9 Q629.24 1637.36 629.24 1632.75 M633.499 1642.8 Q633.499 1649.42 630.559 1652.63 Q627.619 1655.87 621.555 1655.87 Q619.309 1655.87 617.319 1655.53 Q615.328 1655.2 613.453 1654.51 L613.453 1650.36 Q615.328 1651.38 617.157 1651.87 Q618.985 1652.36 620.883 1652.36 Q625.073 1652.36 627.157 1650.16 Q629.24 1647.98 629.24 1643.56 L629.24 1641.45 Q627.92 1643.74 625.86 1644.88 Q623.8 1646.01 620.93 1646.01 Q616.161 1646.01 613.245 1642.38 Q610.328 1638.74 610.328 1632.75 Q610.328 1626.73 613.245 1623.1 Q616.161 1619.46 620.93 1619.46 Q623.8 1619.46 625.86 1620.6 Q627.92 1621.73 629.24 1624.02 L629.24 1620.09 L633.499 1620.09 L633.499 1642.8 Z" fill="#000000" fill-rule="nonzero" fill-opacity="1" /><path clip-path="url(#clip070)" d="M647.133 1629.51 L647.133 1642.17 L654.633 1642.17 Q658.406 1642.17 660.212 1640.62 Q662.041 1639.05 662.041 1635.83 Q662.041 1632.59 660.212 1631.06 Q658.406 1629.51 654.633 1629.51 L647.133 1629.51 M647.133 1615.3 L647.133 1625.71 L654.055 1625.71 Q657.48 1625.71 659.147 1624.44 Q660.837 1623.14 660.837 1620.5 Q660.837 1617.89 659.147 1616.59 Q657.48 1615.3 654.055 1615.3 L647.133 1615.3 M642.457 1611.45 L654.402 1611.45 Q659.749 1611.45 662.642 1613.68 Q665.536 1615.9 665.536 1619.99 Q665.536 1623.17 664.054 1625.04 Q662.573 1626.92 659.703 1627.38 Q663.152 1628.12 665.05 1630.48 Q666.971 1632.82 666.971 1636.34 Q666.971 1640.97 663.823 1643.49 Q660.675 1646.01 654.865 1646.01 L642.457 1646.01 L642.457 1611.45 Z" fill="#000000" fill-rule="nonzero" fill-opacity="1" /><path clip-path="url(#clip070)" d="M674.795 1620.09 L679.054 1620.09 L679.054 1646.01 L674.795 1646.01 L674.795 1620.09 M674.795 1609.99 L679.054 1609.99 L679.054 1615.39 L674.795 1615.39 L674.795 1609.99 Z" fill="#000000" fill-rule="nonzero" fill-opacity="1" /><path clip-path="url(#clip070)" d="M709.517 1630.36 L709.517 1646.01 L705.258 1646.01 L705.258 1630.5 Q705.258 1626.82 703.823 1624.99 Q702.388 1623.17 699.517 1623.17 Q696.068 1623.17 694.077 1625.36 Q692.087 1627.56 692.087 1631.36 L692.087 1646.01 L687.804 1646.01 L687.804 1620.09 L692.087 1620.09 L692.087 1624.11 Q693.614 1621.78 695.675 1620.62 Q697.758 1619.46 700.466 1619.46 Q704.934 1619.46 707.226 1622.24 Q709.517 1624.99 709.517 1630.36 Z" fill="#000000" fill-rule="nonzero" fill-opacity="1" /></svg>
