<?xml version="1.0" encoding="utf-8"?>
<svg xmlns="http://www.w3.org/2000/svg" xmlns:xlink="http://www.w3.org/1999/xlink" width="672" height="480" viewBox="0 0 2688 1920">
<defs>
  <clipPath id="clip200">
    <rect x="0" y="0" width="2688" height="1920"/>
  </clipPath>
</defs>
<path clip-path="url(#clip200)" d="M0 1920 L2688 1920 L2688 -4.26326e-14 L0 -4.26326e-14  Z" fill="#ffffff" fill-rule="evenodd" fill-opacity="1"/>
<defs>
  <clipPath id="clip201">
    <rect x="226" y="127" width="2416" height="1607"/>
  </clipPath>
</defs>
<path clip-path="url(#clip200)" d="M226.141 1734.12 L2640.76 1734.12 L2640.76 127.792 L226.141 127.792  Z" fill="#ffffff" fill-rule="evenodd" fill-opacity="1"/>
<polyline clip-path="url(#clip201)" style="stroke:#000000; stroke-linecap:round; stroke-linejoin:round; stroke-width:2; stroke-opacity:0.1; fill:none" points="291.945,1734.12 291.945,127.792 "/>
<polyline clip-path="url(#clip201)" style="stroke:#000000; stroke-linecap:round; stroke-linejoin:round; stroke-width:2; stroke-opacity:0.1; fill:none" points="798.717,1734.12 798.717,127.792 "/>
<polyline clip-path="url(#clip201)" style="stroke:#000000; stroke-linecap:round; stroke-linejoin:round; stroke-width:2; stroke-opacity:0.1; fill:none" points="1305.49,1734.12 1305.49,127.792 "/>
<polyline clip-path="url(#clip201)" style="stroke:#000000; stroke-linecap:round; stroke-linejoin:round; stroke-width:2; stroke-opacity:0.1; fill:none" points="1812.26,1734.12 1812.26,127.792 "/>
<polyline clip-path="url(#clip201)" style="stroke:#000000; stroke-linecap:round; stroke-linejoin:round; stroke-width:2; stroke-opacity:0.1; fill:none" points="2319.03,1734.12 2319.03,127.792 "/>
<polyline clip-path="url(#clip201)" style="stroke:#000000; stroke-linecap:round; stroke-linejoin:round; stroke-width:2; stroke-opacity:0.1; fill:none" points="226.141,1596.75 2640.76,1596.75 "/>
<polyline clip-path="url(#clip201)" style="stroke:#000000; stroke-linecap:round; stroke-linejoin:round; stroke-width:2; stroke-opacity:0.1; fill:none" points="226.141,1379.66 2640.76,1379.66 "/>
<polyline clip-path="url(#clip201)" style="stroke:#000000; stroke-linecap:round; stroke-linejoin:round; stroke-width:2; stroke-opacity:0.1; fill:none" points="226.141,1162.57 2640.76,1162.57 "/>
<polyline clip-path="url(#clip201)" style="stroke:#000000; stroke-linecap:round; stroke-linejoin:round; stroke-width:2; stroke-opacity:0.1; fill:none" points="226.141,945.477 2640.76,945.477 "/>
<polyline clip-path="url(#clip201)" style="stroke:#000000; stroke-linecap:round; stroke-linejoin:round; stroke-width:2; stroke-opacity:0.1; fill:none" points="226.141,728.385 2640.76,728.385 "/>
<polyline clip-path="url(#clip201)" style="stroke:#000000; stroke-linecap:round; stroke-linejoin:round; stroke-width:2; stroke-opacity:0.1; fill:none" points="226.141,511.294 2640.76,511.294 "/>
<polyline clip-path="url(#clip201)" style="stroke:#000000; stroke-linecap:round; stroke-linejoin:round; stroke-width:2; stroke-opacity:0.1; fill:none" points="226.141,294.202 2640.76,294.202 "/>
<polyline clip-path="url(#clip200)" style="stroke:#000000; stroke-linecap:round; stroke-linejoin:round; stroke-width:4; stroke-opacity:1; fill:none" points="226.141,1734.12 2640.76,1734.12 "/>
<polyline clip-path="url(#clip200)" style="stroke:#000000; stroke-linecap:round; stroke-linejoin:round; stroke-width:4; stroke-opacity:1; fill:none" points="291.945,1734.12 291.945,1715.22 "/>
<polyline clip-path="url(#clip200)" style="stroke:#000000; stroke-linecap:round; stroke-linejoin:round; stroke-width:4; stroke-opacity:1; fill:none" points="798.717,1734.12 798.717,1715.22 "/>
<polyline clip-path="url(#clip200)" style="stroke:#000000; stroke-linecap:round; stroke-linejoin:round; stroke-width:4; stroke-opacity:1; fill:none" points="1305.49,1734.12 1305.49,1715.22 "/>
<polyline clip-path="url(#clip200)" style="stroke:#000000; stroke-linecap:round; stroke-linejoin:round; stroke-width:4; stroke-opacity:1; fill:none" points="1812.26,1734.12 1812.26,1715.22 "/>
<polyline clip-path="url(#clip200)" style="stroke:#000000; stroke-linecap:round; stroke-linejoin:round; stroke-width:4; stroke-opacity:1; fill:none" points="2319.03,1734.12 2319.03,1715.22 "/>
<path clip-path="url(#clip200)" d="M291.945 1767.34 Q288.334 1767.34 286.505 1770.9 Q284.7 1774.45 284.7 1781.58 Q284.7 1788.68 286.505 1792.25 Q288.334 1795.79 291.945 1795.79 Q295.579 1795.79 297.385 1792.25 Q299.213 1788.68 299.213 1781.58 Q299.213 1774.45 297.385 1770.9 Q295.579 1767.34 291.945 1767.34 M291.945 1763.64 Q297.755 1763.64 300.811 1768.24 Q303.889 1772.83 303.889 1781.58 Q303.889 1790.3 300.811 1794.91 Q297.755 1799.49 291.945 1799.49 Q286.135 1799.49 283.056 1794.91 Q280 1790.3 280 1781.58 Q280 1772.83 283.056 1768.24 Q286.135 1763.64 291.945 1763.64 Z" fill="#000000" fill-rule="nonzero" fill-opacity="1" /><path clip-path="url(#clip200)" d="M777.49 1794.89 L793.809 1794.89 L793.809 1798.82 L771.865 1798.82 L771.865 1794.89 Q774.527 1792.13 779.11 1787.5 Q783.717 1782.85 784.897 1781.51 Q787.143 1778.98 788.022 1777.25 Q788.925 1775.49 788.925 1773.8 Q788.925 1771.04 786.981 1769.31 Q785.059 1767.57 781.957 1767.57 Q779.758 1767.57 777.305 1768.34 Q774.874 1769.1 772.096 1770.65 L772.096 1765.93 Q774.92 1764.79 777.374 1764.21 Q779.828 1763.64 781.865 1763.64 Q787.235 1763.64 790.43 1766.32 Q793.624 1769.01 793.624 1773.5 Q793.624 1775.63 792.814 1777.55 Q792.027 1779.45 789.92 1782.04 Q789.342 1782.71 786.24 1785.93 Q783.138 1789.12 777.49 1794.89 Z" fill="#000000" fill-rule="nonzero" fill-opacity="1" /><path clip-path="url(#clip200)" d="M813.624 1767.34 Q810.013 1767.34 808.184 1770.9 Q806.379 1774.45 806.379 1781.58 Q806.379 1788.68 808.184 1792.25 Q810.013 1795.79 813.624 1795.79 Q817.258 1795.79 819.064 1792.25 Q820.892 1788.68 820.892 1781.58 Q820.892 1774.45 819.064 1770.9 Q817.258 1767.34 813.624 1767.34 M813.624 1763.64 Q819.434 1763.64 822.49 1768.24 Q825.568 1772.83 825.568 1781.58 Q825.568 1790.3 822.49 1794.91 Q819.434 1799.49 813.624 1799.49 Q807.814 1799.49 804.735 1794.91 Q801.68 1790.3 801.68 1781.58 Q801.68 1772.83 804.735 1768.24 Q807.814 1763.64 813.624 1763.64 Z" fill="#000000" fill-rule="nonzero" fill-opacity="1" /><path clip-path="url(#clip200)" d="M1293.66 1768.34 L1281.85 1786.78 L1293.66 1786.78 L1293.66 1768.34 M1292.43 1764.26 L1298.31 1764.26 L1298.31 1786.78 L1303.24 1786.78 L1303.24 1790.67 L1298.31 1790.67 L1298.31 1798.82 L1293.66 1798.82 L1293.66 1790.67 L1278.06 1790.67 L1278.06 1786.16 L1292.43 1764.26 Z" fill="#000000" fill-rule="nonzero" fill-opacity="1" /><path clip-path="url(#clip200)" d="M1320.97 1767.34 Q1317.36 1767.34 1315.53 1770.9 Q1313.73 1774.45 1313.73 1781.58 Q1313.73 1788.68 1315.53 1792.25 Q1317.36 1795.79 1320.97 1795.79 Q1324.61 1795.79 1326.41 1792.25 Q1328.24 1788.68 1328.24 1781.58 Q1328.24 1774.45 1326.41 1770.9 Q1324.61 1767.34 1320.97 1767.34 M1320.97 1763.64 Q1326.78 1763.64 1329.84 1768.24 Q1332.92 1772.83 1332.92 1781.58 Q1332.92 1790.3 1329.84 1794.91 Q1326.78 1799.49 1320.97 1799.49 Q1315.16 1799.49 1312.09 1794.91 Q1309.03 1790.3 1309.03 1781.58 Q1309.03 1772.83 1312.09 1768.24 Q1315.16 1763.64 1320.97 1763.64 Z" fill="#000000" fill-rule="nonzero" fill-opacity="1" /><path clip-path="url(#clip200)" d="M1797.67 1779.68 Q1794.52 1779.68 1792.67 1781.83 Q1790.84 1783.98 1790.84 1787.73 Q1790.84 1791.46 1792.67 1793.64 Q1794.52 1795.79 1797.67 1795.79 Q1800.81 1795.79 1802.64 1793.64 Q1804.49 1791.46 1804.49 1787.73 Q1804.49 1783.98 1802.64 1781.83 Q1800.81 1779.68 1797.67 1779.68 M1806.95 1765.02 L1806.95 1769.28 Q1805.19 1768.45 1803.38 1768.01 Q1801.6 1767.57 1799.84 1767.57 Q1795.21 1767.57 1792.76 1770.7 Q1790.33 1773.82 1789.98 1780.14 Q1791.35 1778.13 1793.41 1777.06 Q1795.47 1775.97 1797.94 1775.97 Q1803.15 1775.97 1806.16 1779.15 Q1809.19 1782.29 1809.19 1787.73 Q1809.19 1793.06 1806.04 1796.27 Q1802.9 1799.49 1797.67 1799.49 Q1791.67 1799.49 1788.5 1794.91 Q1785.33 1790.3 1785.33 1781.58 Q1785.33 1773.38 1789.22 1768.52 Q1793.11 1763.64 1799.66 1763.64 Q1801.42 1763.64 1803.2 1763.98 Q1805 1764.33 1806.95 1765.02 Z" fill="#000000" fill-rule="nonzero" fill-opacity="1" /><path clip-path="url(#clip200)" d="M1827.25 1767.34 Q1823.64 1767.34 1821.81 1770.9 Q1820 1774.45 1820 1781.58 Q1820 1788.68 1821.81 1792.25 Q1823.64 1795.79 1827.25 1795.79 Q1830.88 1795.79 1832.69 1792.25 Q1834.52 1788.68 1834.52 1781.58 Q1834.52 1774.45 1832.69 1770.9 Q1830.88 1767.34 1827.25 1767.34 M1827.25 1763.64 Q1833.06 1763.64 1836.11 1768.24 Q1839.19 1772.83 1839.19 1781.58 Q1839.19 1790.3 1836.11 1794.91 Q1833.06 1799.49 1827.25 1799.49 Q1821.44 1799.49 1818.36 1794.91 Q1815.3 1790.3 1815.3 1781.58 Q1815.3 1772.83 1818.36 1768.24 Q1821.44 1763.64 1827.25 1763.64 Z" fill="#000000" fill-rule="nonzero" fill-opacity="1" /><path clip-path="url(#clip200)" d="M2303.9 1782.41 Q2300.57 1782.41 2298.65 1784.19 Q2296.75 1785.97 2296.75 1789.1 Q2296.75 1792.22 2298.65 1794.01 Q2300.57 1795.79 2303.9 1795.79 Q2307.24 1795.79 2309.16 1794.01 Q2311.08 1792.2 2311.08 1789.1 Q2311.08 1785.97 2309.16 1784.19 Q2307.26 1782.41 2303.9 1782.41 M2299.23 1780.42 Q2296.22 1779.68 2294.53 1777.62 Q2292.86 1775.56 2292.86 1772.59 Q2292.86 1768.45 2295.8 1766.04 Q2298.77 1763.64 2303.9 1763.64 Q2309.07 1763.64 2312.01 1766.04 Q2314.95 1768.45 2314.95 1772.59 Q2314.95 1775.56 2313.26 1777.62 Q2311.59 1779.68 2308.6 1780.42 Q2311.98 1781.21 2313.86 1783.5 Q2315.76 1785.79 2315.76 1789.1 Q2315.76 1794.12 2312.68 1796.81 Q2309.62 1799.49 2303.9 1799.49 Q2298.19 1799.49 2295.11 1796.81 Q2292.05 1794.12 2292.05 1789.1 Q2292.05 1785.79 2293.95 1783.5 Q2295.85 1781.21 2299.23 1780.42 M2297.52 1773.03 Q2297.52 1775.72 2299.18 1777.22 Q2300.87 1778.73 2303.9 1778.73 Q2306.91 1778.73 2308.6 1777.22 Q2310.32 1775.72 2310.32 1773.03 Q2310.32 1770.35 2308.6 1768.84 Q2306.91 1767.34 2303.9 1767.34 Q2300.87 1767.34 2299.18 1768.84 Q2297.52 1770.35 2297.52 1773.03 Z" fill="#000000" fill-rule="nonzero" fill-opacity="1" /><path clip-path="url(#clip200)" d="M2334.07 1767.34 Q2330.46 1767.34 2328.63 1770.9 Q2326.82 1774.45 2326.82 1781.58 Q2326.82 1788.68 2328.63 1792.25 Q2330.46 1795.79 2334.07 1795.79 Q2337.7 1795.79 2339.51 1792.25 Q2341.33 1788.68 2341.33 1781.58 Q2341.33 1774.45 2339.51 1770.9 Q2337.7 1767.34 2334.07 1767.34 M2334.07 1763.64 Q2339.88 1763.64 2342.93 1768.24 Q2346.01 1772.83 2346.01 1781.58 Q2346.01 1790.3 2342.93 1794.91 Q2339.88 1799.49 2334.07 1799.49 Q2328.26 1799.49 2325.18 1794.91 Q2322.12 1790.3 2322.12 1781.58 Q2322.12 1772.83 2325.18 1768.24 Q2328.26 1763.64 2334.07 1763.64 Z" fill="#000000" fill-rule="nonzero" fill-opacity="1" /><path clip-path="url(#clip200)" d="M1430.23 1835.78 L1436.66 1835.78 L1436.66 1883.3 L1430.23 1883.3 L1430.23 1835.78 Z" fill="#000000" fill-rule="nonzero" fill-opacity="1" /><polyline clip-path="url(#clip200)" style="stroke:#000000; stroke-linecap:round; stroke-linejoin:round; stroke-width:4; stroke-opacity:1; fill:none" points="226.141,1734.12 226.141,127.792 "/>
<polyline clip-path="url(#clip200)" style="stroke:#000000; stroke-linecap:round; stroke-linejoin:round; stroke-width:4; stroke-opacity:1; fill:none" points="226.141,1596.75 245.038,1596.75 "/>
<polyline clip-path="url(#clip200)" style="stroke:#000000; stroke-linecap:round; stroke-linejoin:round; stroke-width:4; stroke-opacity:1; fill:none" points="226.141,1379.66 245.038,1379.66 "/>
<polyline clip-path="url(#clip200)" style="stroke:#000000; stroke-linecap:round; stroke-linejoin:round; stroke-width:4; stroke-opacity:1; fill:none" points="226.141,1162.57 245.038,1162.57 "/>
<polyline clip-path="url(#clip200)" style="stroke:#000000; stroke-linecap:round; stroke-linejoin:round; stroke-width:4; stroke-opacity:1; fill:none" points="226.141,945.477 245.038,945.477 "/>
<polyline clip-path="url(#clip200)" style="stroke:#000000; stroke-linecap:round; stroke-linejoin:round; stroke-width:4; stroke-opacity:1; fill:none" points="226.141,728.385 245.038,728.385 "/>
<polyline clip-path="url(#clip200)" style="stroke:#000000; stroke-linecap:round; stroke-linejoin:round; stroke-width:4; stroke-opacity:1; fill:none" points="226.141,511.294 245.038,511.294 "/>
<polyline clip-path="url(#clip200)" style="stroke:#000000; stroke-linecap:round; stroke-linejoin:round; stroke-width:4; stroke-opacity:1; fill:none" points="226.141,294.202 245.038,294.202 "/>
<path clip-path="url(#clip200)" d="M128.159 1582.55 Q124.548 1582.55 122.719 1586.11 Q120.913 1589.66 120.913 1596.79 Q120.913 1603.89 122.719 1607.46 Q124.548 1611 128.159 1611 Q131.793 1611 133.599 1607.46 Q135.427 1603.89 135.427 1596.79 Q135.427 1589.66 133.599 1586.11 Q131.793 1582.55 128.159 1582.55 M128.159 1578.85 Q133.969 1578.85 137.025 1583.45 Q140.103 1588.04 140.103 1596.79 Q140.103 1605.51 137.025 1610.12 Q133.969 1614.7 128.159 1614.7 Q122.349 1614.7 119.27 1610.12 Q116.214 1605.51 116.214 1596.79 Q116.214 1588.04 119.27 1583.45 Q122.349 1578.85 128.159 1578.85 Z" fill="#000000" fill-rule="nonzero" fill-opacity="1" /><path clip-path="url(#clip200)" d="M148.321 1608.15 L153.205 1608.15 L153.205 1614.03 L148.321 1614.03 L148.321 1608.15 Z" fill="#000000" fill-rule="nonzero" fill-opacity="1" /><path clip-path="url(#clip200)" d="M176.237 1583.55 L164.432 1601.99 L176.237 1601.99 L176.237 1583.55 M175.01 1579.47 L180.89 1579.47 L180.89 1601.99 L185.821 1601.99 L185.821 1605.88 L180.89 1605.88 L180.89 1614.03 L176.237 1614.03 L176.237 1605.88 L160.636 1605.88 L160.636 1601.37 L175.01 1579.47 Z" fill="#000000" fill-rule="nonzero" fill-opacity="1" /><path clip-path="url(#clip200)" d="M128.483 1365.46 Q124.872 1365.46 123.043 1369.02 Q121.238 1372.56 121.238 1379.69 Q121.238 1386.8 123.043 1390.37 Q124.872 1393.91 128.483 1393.91 Q132.117 1393.91 133.923 1390.37 Q135.751 1386.8 135.751 1379.69 Q135.751 1372.56 133.923 1369.02 Q132.117 1365.46 128.483 1365.46 M128.483 1361.75 Q134.293 1361.75 137.349 1366.36 Q140.427 1370.94 140.427 1379.69 Q140.427 1388.42 137.349 1393.03 Q134.293 1397.61 128.483 1397.61 Q122.673 1397.61 119.594 1393.03 Q116.539 1388.42 116.539 1379.69 Q116.539 1370.94 119.594 1366.36 Q122.673 1361.75 128.483 1361.75 Z" fill="#000000" fill-rule="nonzero" fill-opacity="1" /><path clip-path="url(#clip200)" d="M148.645 1391.06 L153.529 1391.06 L153.529 1396.94 L148.645 1396.94 L148.645 1391.06 Z" fill="#000000" fill-rule="nonzero" fill-opacity="1" /><path clip-path="url(#clip200)" d="M174.293 1377.8 Q171.145 1377.8 169.293 1379.95 Q167.464 1382.1 167.464 1385.85 Q167.464 1389.58 169.293 1391.75 Q171.145 1393.91 174.293 1393.91 Q177.441 1393.91 179.27 1391.75 Q181.122 1389.58 181.122 1385.85 Q181.122 1382.1 179.27 1379.95 Q177.441 1377.8 174.293 1377.8 M183.575 1363.14 L183.575 1367.4 Q181.816 1366.57 180.01 1366.13 Q178.228 1365.69 176.469 1365.69 Q171.839 1365.69 169.385 1368.81 Q166.955 1371.94 166.608 1378.26 Q167.973 1376.25 170.034 1375.18 Q172.094 1374.09 174.571 1374.09 Q179.779 1374.09 182.788 1377.26 Q185.821 1380.41 185.821 1385.85 Q185.821 1391.18 182.672 1394.39 Q179.524 1397.61 174.293 1397.61 Q168.297 1397.61 165.126 1393.03 Q161.955 1388.42 161.955 1379.69 Q161.955 1371.5 165.844 1366.64 Q169.733 1361.75 176.284 1361.75 Q178.043 1361.75 179.825 1362.1 Q181.631 1362.45 183.575 1363.14 Z" fill="#000000" fill-rule="nonzero" fill-opacity="1" /><path clip-path="url(#clip200)" d="M128.738 1148.37 Q125.126 1148.37 123.298 1151.93 Q121.492 1155.47 121.492 1162.6 Q121.492 1169.71 123.298 1173.27 Q125.126 1176.82 128.738 1176.82 Q132.372 1176.82 134.177 1173.27 Q136.006 1169.71 136.006 1162.6 Q136.006 1155.47 134.177 1151.93 Q132.372 1148.37 128.738 1148.37 M128.738 1144.66 Q134.548 1144.66 137.603 1149.27 Q140.682 1153.85 140.682 1162.6 Q140.682 1171.33 137.603 1175.94 Q134.548 1180.52 128.738 1180.52 Q122.927 1180.52 119.849 1175.94 Q116.793 1171.33 116.793 1162.6 Q116.793 1153.85 119.849 1149.27 Q122.927 1144.66 128.738 1144.66 Z" fill="#000000" fill-rule="nonzero" fill-opacity="1" /><path clip-path="url(#clip200)" d="M148.899 1173.97 L153.784 1173.97 L153.784 1179.85 L148.899 1179.85 L148.899 1173.97 Z" fill="#000000" fill-rule="nonzero" fill-opacity="1" /><path clip-path="url(#clip200)" d="M173.969 1163.44 Q170.635 1163.44 168.714 1165.22 Q166.816 1167 166.816 1170.13 Q166.816 1173.25 168.714 1175.03 Q170.635 1176.82 173.969 1176.82 Q177.302 1176.82 179.223 1175.03 Q181.145 1173.23 181.145 1170.13 Q181.145 1167 179.223 1165.22 Q177.325 1163.44 173.969 1163.44 M169.293 1161.45 Q166.284 1160.7 164.594 1158.64 Q162.927 1156.58 162.927 1153.62 Q162.927 1149.48 165.867 1147.07 Q168.83 1144.66 173.969 1144.66 Q179.131 1144.66 182.071 1147.07 Q185.01 1149.48 185.01 1153.62 Q185.01 1156.58 183.321 1158.64 Q181.654 1160.7 178.668 1161.45 Q182.047 1162.23 183.922 1164.52 Q185.821 1166.82 185.821 1170.13 Q185.821 1175.15 182.742 1177.83 Q179.686 1180.52 173.969 1180.52 Q168.251 1180.52 165.173 1177.83 Q162.117 1175.15 162.117 1170.13 Q162.117 1166.82 164.015 1164.52 Q165.913 1162.23 169.293 1161.45 M167.58 1154.06 Q167.58 1156.75 169.247 1158.25 Q170.936 1159.76 173.969 1159.76 Q176.978 1159.76 178.668 1158.25 Q180.381 1156.75 180.381 1154.06 Q180.381 1151.38 178.668 1149.87 Q176.978 1148.37 173.969 1148.37 Q170.936 1148.37 169.247 1149.87 Q167.58 1151.38 167.58 1154.06 Z" fill="#000000" fill-rule="nonzero" fill-opacity="1" /><path clip-path="url(#clip200)" d="M119.455 958.822 L127.094 958.822 L127.094 932.456 L118.784 934.123 L118.784 929.863 L127.048 928.197 L131.724 928.197 L131.724 958.822 L139.362 958.822 L139.362 962.757 L119.455 962.757 L119.455 958.822 Z" fill="#000000" fill-rule="nonzero" fill-opacity="1" /><path clip-path="url(#clip200)" d="M148.807 956.877 L153.691 956.877 L153.691 962.757 L148.807 962.757 L148.807 956.877 Z" fill="#000000" fill-rule="nonzero" fill-opacity="1" /><path clip-path="url(#clip200)" d="M173.876 931.275 Q170.265 931.275 168.436 934.84 Q166.631 938.382 166.631 945.511 Q166.631 952.618 168.436 956.183 Q170.265 959.724 173.876 959.724 Q177.51 959.724 179.316 956.183 Q181.145 952.618 181.145 945.511 Q181.145 938.382 179.316 934.84 Q177.51 931.275 173.876 931.275 M173.876 927.572 Q179.686 927.572 182.742 932.178 Q185.821 936.761 185.821 945.511 Q185.821 954.238 182.742 958.845 Q179.686 963.428 173.876 963.428 Q168.066 963.428 164.987 958.845 Q161.932 954.238 161.932 945.511 Q161.932 936.761 164.987 932.178 Q168.066 927.572 173.876 927.572 Z" fill="#000000" fill-rule="nonzero" fill-opacity="1" /><path clip-path="url(#clip200)" d="M121.052 741.73 L128.691 741.73 L128.691 715.364 L120.381 717.031 L120.381 712.772 L128.645 711.105 L133.321 711.105 L133.321 741.73 L140.96 741.73 L140.96 745.665 L121.052 745.665 L121.052 741.73 Z" fill="#000000" fill-rule="nonzero" fill-opacity="1" /><path clip-path="url(#clip200)" d="M150.404 739.786 L155.288 739.786 L155.288 745.665 L150.404 745.665 L150.404 739.786 Z" fill="#000000" fill-rule="nonzero" fill-opacity="1" /><path clip-path="url(#clip200)" d="M169.501 741.73 L185.821 741.73 L185.821 745.665 L163.876 745.665 L163.876 741.73 Q166.538 738.975 171.122 734.346 Q175.728 729.693 176.909 728.35 Q179.154 725.827 180.034 724.091 Q180.936 722.332 180.936 720.642 Q180.936 717.888 178.992 716.151 Q177.071 714.415 173.969 714.415 Q171.77 714.415 169.316 715.179 Q166.885 715.943 164.108 717.494 L164.108 712.772 Q166.932 711.638 169.385 711.059 Q171.839 710.48 173.876 710.48 Q179.247 710.48 182.441 713.165 Q185.635 715.851 185.635 720.341 Q185.635 722.471 184.825 724.392 Q184.038 726.29 181.932 728.883 Q181.353 729.554 178.251 732.772 Q175.149 735.966 169.501 741.73 Z" fill="#000000" fill-rule="nonzero" fill-opacity="1" /><path clip-path="url(#clip200)" d="M118.969 524.638 L126.608 524.638 L126.608 498.273 L118.298 499.94 L118.298 495.68 L126.562 494.014 L131.238 494.014 L131.238 524.638 L138.876 524.638 L138.876 528.574 L118.969 528.574 L118.969 524.638 Z" fill="#000000" fill-rule="nonzero" fill-opacity="1" /><path clip-path="url(#clip200)" d="M148.321 522.694 L153.205 522.694 L153.205 528.574 L148.321 528.574 L148.321 522.694 Z" fill="#000000" fill-rule="nonzero" fill-opacity="1" /><path clip-path="url(#clip200)" d="M176.237 498.088 L164.432 516.537 L176.237 516.537 L176.237 498.088 M175.01 494.014 L180.89 494.014 L180.89 516.537 L185.821 516.537 L185.821 520.426 L180.89 520.426 L180.89 528.574 L176.237 528.574 L176.237 520.426 L160.636 520.426 L160.636 515.912 L175.01 494.014 Z" fill="#000000" fill-rule="nonzero" fill-opacity="1" /><path clip-path="url(#clip200)" d="M119.293 307.547 L126.932 307.547 L126.932 281.181 L118.622 282.848 L118.622 278.589 L126.886 276.922 L131.562 276.922 L131.562 307.547 L139.2 307.547 L139.2 311.482 L119.293 311.482 L119.293 307.547 Z" fill="#000000" fill-rule="nonzero" fill-opacity="1" /><path clip-path="url(#clip200)" d="M148.645 305.603 L153.529 305.603 L153.529 311.482 L148.645 311.482 L148.645 305.603 Z" fill="#000000" fill-rule="nonzero" fill-opacity="1" /><path clip-path="url(#clip200)" d="M174.293 292.339 Q171.145 292.339 169.293 294.491 Q167.464 296.644 167.464 300.394 Q167.464 304.121 169.293 306.297 Q171.145 308.45 174.293 308.45 Q177.441 308.45 179.27 306.297 Q181.122 304.121 181.122 300.394 Q181.122 296.644 179.27 294.491 Q177.441 292.339 174.293 292.339 M183.575 277.686 L183.575 281.945 Q181.816 281.112 180.01 280.672 Q178.228 280.232 176.469 280.232 Q171.839 280.232 169.385 283.357 Q166.955 286.482 166.608 292.802 Q167.973 290.788 170.034 289.723 Q172.094 288.635 174.571 288.635 Q179.779 288.635 182.788 291.806 Q185.821 294.954 185.821 300.394 Q185.821 305.718 182.672 308.936 Q179.524 312.153 174.293 312.153 Q168.297 312.153 165.126 307.57 Q161.955 302.964 161.955 294.237 Q161.955 286.042 165.844 281.181 Q169.733 276.297 176.284 276.297 Q178.043 276.297 179.825 276.644 Q181.631 276.992 183.575 277.686 Z" fill="#000000" fill-rule="nonzero" fill-opacity="1" /><path clip-path="url(#clip200)" d="M59.4423 975.053 L75.1974 975.053 L75.1974 980.941 L26.2133 980.941 Q11.6995 980.941 11.6995 967.382 Q11.6995 953.569 23.9535 953.569 Q32.6745 953.569 35.8573 959.043 Q38.7219 950.131 47.2201 950.131 Q62.3068 950.131 62.3068 965.473 Q62.3068 972.22 59.4423 975.053 M51.8034 975.053 Q57.3098 971.52 57.3098 965.25 Q57.3098 956.083 47.3156 956.083 Q38.34 956.083 39.0402 970.852 L33.6293 970.852 Q33.6293 959.298 23.4442 959.298 Q16.4738 959.298 16.4738 966.746 Q16.4738 975.053 26.4043 975.053 L51.8034 975.053 Z" fill="#000000" fill-rule="nonzero" fill-opacity="1" /><path clip-path="url(#clip200)" d="M12.1769 925.241 Q19.4975 929.506 26.6589 931.575 Q33.8203 933.644 41.1727 933.644 Q48.5251 933.644 55.7502 931.575 Q62.9434 929.475 70.2321 925.241 L70.2321 930.334 Q62.7524 935.108 55.5274 937.495 Q48.3023 939.851 41.1727 939.851 Q34.0749 939.851 26.8817 937.495 Q19.6884 935.14 12.1769 930.334 L12.1769 925.241 Z" fill="#000000" fill-rule="nonzero" fill-opacity="1" /><path clip-path="url(#clip200)" d="M14.1184 913.624 L14.1184 907.195 L61.6384 907.195 L61.6384 913.624 L14.1184 913.624 Z" fill="#000000" fill-rule="nonzero" fill-opacity="1" /><path clip-path="url(#clip200)" d="M12.1769 895.577 L12.1769 890.485 Q19.6884 885.71 26.8817 883.355 Q34.0749 880.968 41.1727 880.968 Q48.3023 880.968 55.5274 883.355 Q62.7524 885.71 70.2321 890.485 L70.2321 895.577 Q62.9434 891.344 55.7502 889.275 Q48.5251 887.174 41.1727 887.174 Q33.8203 887.174 26.6589 889.275 Q19.4975 891.344 12.1769 895.577 Z" fill="#000000" fill-rule="nonzero" fill-opacity="1" /><path clip-path="url(#clip200)" d="M1030.57 63.9476 L1030.57 47.7034 L1017.2 47.7034 L1017.2 40.9789 L1038.67 40.9789 L1038.67 66.9452 Q1033.93 70.3075 1028.22 72.0494 Q1022.5 73.7508 1016.02 73.7508 Q1001.84 73.7508 993.824 65.4869 Q985.844 57.1826 985.844 42.3968 Q985.844 27.5705 993.824 19.3066 Q1001.84 11.0023 1016.02 11.0023 Q1021.94 11.0023 1027.24 12.4606 Q1032.59 13.9189 1037.09 16.7545 L1037.09 25.464 Q1032.55 21.6156 1027.45 19.6712 Q1022.34 17.7268 1016.71 17.7268 Q1005.61 17.7268 1000.02 23.9246 Q994.472 30.1225 994.472 42.3968 Q994.472 54.6305 1000.02 60.8284 Q1005.61 67.0263 1016.71 67.0263 Q1021.05 67.0263 1024.45 66.2971 Q1027.85 65.5274 1030.57 63.9476 Z" fill="#000000" fill-rule="nonzero" fill-opacity="1" /><path clip-path="url(#clip200)" d="M1061.8 18.8205 L1061.8 41.5461 L1072.09 41.5461 Q1077.8 41.5461 1080.92 38.5889 Q1084.04 35.6318 1084.04 30.163 Q1084.04 24.7348 1080.92 21.7777 Q1077.8 18.8205 1072.09 18.8205 L1061.8 18.8205 M1053.62 12.096 L1072.09 12.096 Q1082.26 12.096 1087.44 16.714 Q1092.67 21.2916 1092.67 30.163 Q1092.67 39.1155 1087.44 43.6931 Q1082.26 48.2706 1072.09 48.2706 L1061.8 48.2706 L1061.8 72.576 L1053.62 72.576 L1053.62 12.096 Z" fill="#000000" fill-rule="nonzero" fill-opacity="1" /><path clip-path="url(#clip200)" d="M1129.41 9.54393 L1136.9 9.54393 L1136.9 46.7717 L1159.14 27.2059 L1168.66 27.2059 L1144.6 48.4326 L1169.67 72.576 L1159.95 72.576 L1136.9 50.4176 L1136.9 72.576 L1129.41 72.576 L1129.41 9.54393 Z" fill="#000000" fill-rule="nonzero" fill-opacity="1" /><path clip-path="url(#clip200)" d="M1213.59 48.0275 L1213.59 51.6733 L1179.31 51.6733 Q1179.8 59.3701 1183.93 63.421 Q1188.11 67.4314 1195.52 67.4314 Q1199.81 67.4314 1203.82 66.3781 Q1207.87 65.3249 1211.84 63.2184 L1211.84 70.267 Q1207.83 71.9684 1203.62 72.8596 Q1199.41 73.7508 1195.07 73.7508 Q1184.22 73.7508 1177.86 67.4314 Q1171.54 61.1119 1171.54 50.3365 Q1171.54 39.1965 1177.53 32.6746 Q1183.57 26.1121 1193.78 26.1121 Q1202.93 26.1121 1208.24 32.0264 Q1213.59 37.9003 1213.59 48.0275 M1206.13 45.84 Q1206.05 39.7232 1202.69 36.0774 Q1199.37 32.4315 1193.86 32.4315 Q1187.62 32.4315 1183.85 35.9558 Q1180.12 39.4801 1179.56 45.8805 L1206.13 45.84 Z" fill="#000000" fill-rule="nonzero" fill-opacity="1" /><path clip-path="url(#clip200)" d="M1252.11 34.1734 Q1250.85 33.4443 1249.35 33.1202 Q1247.9 32.7556 1246.11 32.7556 Q1239.79 32.7556 1236.39 36.8875 Q1233.03 40.9789 1233.03 48.6757 L1233.03 72.576 L1225.54 72.576 L1225.54 27.2059 L1233.03 27.2059 L1233.03 34.2544 Q1235.38 30.1225 1239.15 28.1376 Q1242.91 26.1121 1248.3 26.1121 Q1249.07 26.1121 1250 26.2337 Q1250.93 26.3147 1252.07 26.5172 L1252.11 34.1734 Z" fill="#000000" fill-rule="nonzero" fill-opacity="1" /><path clip-path="url(#clip200)" d="M1296.18 45.1919 L1296.18 72.576 L1288.73 72.576 L1288.73 45.4349 Q1288.73 38.994 1286.22 35.7938 Q1283.71 32.5936 1278.68 32.5936 Q1272.65 32.5936 1269.16 36.4419 Q1265.68 40.2903 1265.68 46.9338 L1265.68 72.576 L1258.19 72.576 L1258.19 27.2059 L1265.68 27.2059 L1265.68 34.2544 Q1268.35 30.163 1271.96 28.1376 Q1275.6 26.1121 1280.34 26.1121 Q1288.16 26.1121 1292.17 30.9732 Q1296.18 35.7938 1296.18 45.1919 Z" fill="#000000" fill-rule="nonzero" fill-opacity="1" /><path clip-path="url(#clip200)" d="M1349.86 48.0275 L1349.86 51.6733 L1315.59 51.6733 Q1316.07 59.3701 1320.21 63.421 Q1324.38 67.4314 1331.79 67.4314 Q1336.08 67.4314 1340.1 66.3781 Q1344.15 65.3249 1348.12 63.2184 L1348.12 70.267 Q1344.11 71.9684 1339.89 72.8596 Q1335.68 73.7508 1331.35 73.7508 Q1320.49 73.7508 1314.13 67.4314 Q1307.81 61.1119 1307.81 50.3365 Q1307.81 39.1965 1313.8 32.6746 Q1319.84 26.1121 1330.05 26.1121 Q1339.2 26.1121 1344.51 32.0264 Q1349.86 37.9003 1349.86 48.0275 M1342.4 45.84 Q1342.32 39.7232 1338.96 36.0774 Q1335.64 32.4315 1330.13 32.4315 Q1323.89 32.4315 1320.12 35.9558 Q1316.4 39.4801 1315.83 45.8805 L1342.4 45.84 Z" fill="#000000" fill-rule="nonzero" fill-opacity="1" /><path clip-path="url(#clip200)" d="M1362.09 9.54393 L1369.55 9.54393 L1369.55 72.576 L1362.09 72.576 L1362.09 9.54393 Z" fill="#000000" fill-rule="nonzero" fill-opacity="1" /><path clip-path="url(#clip200)" d="M1444.16 28.9478 L1444.16 35.9153 Q1441 34.1734 1437.8 33.3227 Q1434.64 32.4315 1431.4 32.4315 Q1424.15 32.4315 1420.14 37.0496 Q1416.13 41.6271 1416.13 49.9314 Q1416.13 58.2358 1420.14 62.8538 Q1424.15 67.4314 1431.4 67.4314 Q1434.64 67.4314 1437.8 66.5807 Q1441 65.6895 1444.16 63.9476 L1444.16 70.8341 Q1441.04 72.2924 1437.68 73.0216 Q1434.36 73.7508 1430.59 73.7508 Q1420.34 73.7508 1414.31 67.3098 Q1408.27 60.8689 1408.27 49.9314 Q1408.27 38.832 1414.35 32.472 Q1420.47 26.1121 1431.08 26.1121 Q1434.52 26.1121 1437.8 26.8413 Q1441.08 27.5299 1444.16 28.9478 Z" fill="#000000" fill-rule="nonzero" fill-opacity="1" /><path clip-path="url(#clip200)" d="M1474.71 32.4315 Q1468.71 32.4315 1465.23 37.1306 Q1461.74 41.7891 1461.74 49.9314 Q1461.74 58.0738 1465.19 62.7728 Q1468.67 67.4314 1474.71 67.4314 Q1480.66 67.4314 1484.15 62.7323 Q1487.63 58.0333 1487.63 49.9314 Q1487.63 41.8701 1484.15 37.1711 Q1480.66 32.4315 1474.71 32.4315 M1474.71 26.1121 Q1484.43 26.1121 1489.98 32.4315 Q1495.53 38.7509 1495.53 49.9314 Q1495.53 61.0714 1489.98 67.4314 Q1484.43 73.7508 1474.71 73.7508 Q1464.94 73.7508 1459.39 67.4314 Q1453.89 61.0714 1453.89 49.9314 Q1453.89 38.7509 1459.39 32.4315 Q1464.94 26.1121 1474.71 26.1121 Z" fill="#000000" fill-rule="nonzero" fill-opacity="1" /><path clip-path="url(#clip200)" d="M1543.21 35.9153 Q1546 30.8922 1549.89 28.5022 Q1553.78 26.1121 1559.05 26.1121 Q1566.14 26.1121 1569.98 31.0947 Q1573.83 36.0368 1573.83 45.1919 L1573.83 72.576 L1566.34 72.576 L1566.34 45.4349 Q1566.34 38.913 1564.03 35.7533 Q1561.72 32.5936 1556.98 32.5936 Q1551.19 32.5936 1547.83 36.4419 Q1544.46 40.2903 1544.46 46.9338 L1544.46 72.576 L1536.97 72.576 L1536.97 45.4349 Q1536.97 38.8725 1534.66 35.7533 Q1532.35 32.5936 1527.53 32.5936 Q1521.82 32.5936 1518.46 36.4824 Q1515.09 40.3308 1515.09 46.9338 L1515.09 72.576 L1507.6 72.576 L1507.6 27.2059 L1515.09 27.2059 L1515.09 34.2544 Q1517.65 30.082 1521.21 28.0971 Q1524.78 26.1121 1529.68 26.1121 Q1534.62 26.1121 1538.06 28.6237 Q1541.55 31.1352 1543.21 35.9153 Z" fill="#000000" fill-rule="nonzero" fill-opacity="1" /><path clip-path="url(#clip200)" d="M1595.91 65.7705 L1595.91 89.8329 L1588.42 89.8329 L1588.42 27.2059 L1595.91 27.2059 L1595.91 34.0924 Q1598.26 30.0415 1601.82 28.0971 Q1605.43 26.1121 1610.41 26.1121 Q1618.68 26.1121 1623.82 32.6746 Q1629.01 39.2371 1629.01 49.9314 Q1629.01 60.6258 1623.82 67.1883 Q1618.68 73.7508 1610.41 73.7508 Q1605.43 73.7508 1601.82 71.8063 Q1598.26 69.8214 1595.91 65.7705 M1621.27 49.9314 Q1621.27 41.7081 1617.87 37.0496 Q1614.5 32.3505 1608.59 32.3505 Q1602.67 32.3505 1599.27 37.0496 Q1595.91 41.7081 1595.91 49.9314 Q1595.91 58.1548 1599.27 62.8538 Q1602.67 67.5124 1608.59 67.5124 Q1614.5 67.5124 1617.87 62.8538 Q1621.27 58.1548 1621.27 49.9314 Z" fill="#000000" fill-rule="nonzero" fill-opacity="1" /><path clip-path="url(#clip200)" d="M1661.98 49.7694 Q1652.95 49.7694 1649.46 51.8354 Q1645.98 53.9013 1645.98 58.8839 Q1645.98 62.8538 1648.57 65.2034 Q1651.2 67.5124 1655.7 67.5124 Q1661.9 67.5124 1665.63 63.1374 Q1669.39 58.7219 1669.39 51.4303 L1669.39 49.7694 L1661.98 49.7694 M1676.85 46.6907 L1676.85 72.576 L1669.39 72.576 L1669.39 65.6895 Q1666.84 69.8214 1663.03 71.8063 Q1659.23 73.7508 1653.72 73.7508 Q1646.75 73.7508 1642.62 69.8619 Q1638.53 65.9325 1638.53 59.3701 Q1638.53 51.7138 1643.63 47.825 Q1648.77 43.9361 1658.94 43.9361 L1669.39 43.9361 L1669.39 43.2069 Q1669.39 38.0623 1665.99 35.2672 Q1662.63 32.4315 1656.51 32.4315 Q1652.62 32.4315 1648.94 33.3632 Q1645.25 34.295 1641.85 36.1584 L1641.85 29.2718 Q1645.94 27.692 1649.79 26.9223 Q1653.64 26.1121 1657.28 26.1121 Q1667.12 26.1121 1671.99 31.2163 Q1676.85 36.3204 1676.85 46.6907 Z" fill="#000000" fill-rule="nonzero" fill-opacity="1" /><path clip-path="url(#clip200)" d="M1718.49 34.1734 Q1717.23 33.4443 1715.74 33.1202 Q1714.28 32.7556 1712.49 32.7556 Q1706.18 32.7556 1702.77 36.8875 Q1699.41 40.9789 1699.41 48.6757 L1699.41 72.576 L1691.92 72.576 L1691.92 27.2059 L1699.41 27.2059 L1699.41 34.2544 Q1701.76 30.1225 1705.53 28.1376 Q1709.29 26.1121 1714.68 26.1121 Q1715.45 26.1121 1716.38 26.2337 Q1717.32 26.3147 1718.45 26.5172 L1718.49 34.1734 Z" fill="#000000" fill-rule="nonzero" fill-opacity="1" /><path clip-path="url(#clip200)" d="M1726.31 27.2059 L1733.76 27.2059 L1733.76 72.576 L1726.31 72.576 L1726.31 27.2059 M1726.31 9.54393 L1733.76 9.54393 L1733.76 18.9825 L1726.31 18.9825 L1726.31 9.54393 Z" fill="#000000" fill-rule="nonzero" fill-opacity="1" /><path clip-path="url(#clip200)" d="M1778.28 28.5427 L1778.28 35.5912 Q1775.12 33.9709 1771.72 33.1607 Q1768.32 32.3505 1764.67 32.3505 Q1759.12 32.3505 1756.33 34.0519 Q1753.57 35.7533 1753.57 39.156 Q1753.57 41.7486 1755.56 43.2475 Q1757.54 44.7058 1763.54 46.0426 L1766.09 46.6097 Q1774.03 48.3111 1777.35 51.4303 Q1780.71 54.509 1780.71 60.0587 Q1780.71 66.3781 1775.69 70.0644 Q1770.71 73.7508 1761.96 73.7508 Q1758.31 73.7508 1754.34 73.0216 Q1750.41 72.3329 1746.04 70.9151 L1746.04 63.2184 Q1750.17 65.3654 1754.18 66.4591 Q1758.19 67.5124 1762.12 67.5124 Q1767.38 67.5124 1770.22 65.73 Q1773.06 63.9071 1773.06 60.6258 Q1773.06 57.5877 1770.99 55.9673 Q1768.96 54.3469 1762.04 52.8481 L1759.44 52.2405 Q1752.52 50.7821 1749.44 47.7845 Q1746.36 44.7463 1746.36 39.4801 Q1746.36 33.0797 1750.9 29.5959 Q1755.43 26.1121 1763.78 26.1121 Q1767.91 26.1121 1771.56 26.7198 Q1775.2 27.3274 1778.28 28.5427 Z" fill="#000000" fill-rule="nonzero" fill-opacity="1" /><path clip-path="url(#clip200)" d="M1810.16 32.4315 Q1804.17 32.4315 1800.68 37.1306 Q1797.2 41.7891 1797.2 49.9314 Q1797.2 58.0738 1800.64 62.7728 Q1804.13 67.4314 1810.16 67.4314 Q1816.12 67.4314 1819.6 62.7323 Q1823.08 58.0333 1823.08 49.9314 Q1823.08 41.8701 1819.6 37.1711 Q1816.12 32.4315 1810.16 32.4315 M1810.16 26.1121 Q1819.88 26.1121 1825.43 32.4315 Q1830.98 38.7509 1830.98 49.9314 Q1830.98 61.0714 1825.43 67.4314 Q1819.88 73.7508 1810.16 73.7508 Q1800.4 73.7508 1794.85 67.4314 Q1789.34 61.0714 1789.34 49.9314 Q1789.34 38.7509 1794.85 32.4315 Q1800.4 26.1121 1810.16 26.1121 Z" fill="#000000" fill-rule="nonzero" fill-opacity="1" /><path clip-path="url(#clip200)" d="M1881.05 45.1919 L1881.05 72.576 L1873.6 72.576 L1873.6 45.4349 Q1873.6 38.994 1871.09 35.7938 Q1868.58 32.5936 1863.55 32.5936 Q1857.52 32.5936 1854.03 36.4419 Q1850.55 40.2903 1850.55 46.9338 L1850.55 72.576 L1843.06 72.576 L1843.06 27.2059 L1850.55 27.2059 L1850.55 34.2544 Q1853.22 30.163 1856.83 28.1376 Q1860.47 26.1121 1865.21 26.1121 Q1873.03 26.1121 1877.04 30.9732 Q1881.05 35.7938 1881.05 45.1919 Z" fill="#000000" fill-rule="nonzero" fill-opacity="1" /><polyline clip-path="url(#clip201)" style="stroke:#000000; stroke-linecap:round; stroke-linejoin:round; stroke-width:12; stroke-opacity:1; fill:none" stroke-dasharray="48, 30" points="294.479,1488.48 305.926,1489.7 317.373,1490.92 328.82,1492.14 340.266,1493.36 351.713,1494.57 363.16,1495.78 374.607,1496.99 386.054,1498.19 397.501,1499.39 408.948,1500.59 420.395,1501.79 431.842,1502.98 443.289,1504.17 454.736,1505.36 466.183,1506.55 477.63,1507.73 489.077,1508.91 500.523,1510.09 511.97,1511.26 523.417,1512.44 534.864,1513.61 546.311,1514.77 557.758,1515.94 569.205,1517.1 580.652,1518.26 592.099,1519.42 603.546,1520.57 614.993,1521.72 626.44,1522.87 637.887,1524.02 649.334,1525.16 660.78,1526.3 672.227,1527.44 683.674,1528.58 695.121,1529.71 706.568,1530.84 718.015,1531.97 729.462,1533.1 740.909,1534.22 752.356,1535.34 763.803,1536.46 775.25,1537.57 786.697,1538.69 798.144,1539.8 809.591,1540.91 821.037,1542.01 832.484,1543.11 843.931,1544.21 855.378,1545.31 866.825,1546.41 878.272,1547.5 889.719,1548.59 901.166,1549.68 912.613,1550.77 924.06,1551.85 935.507,1552.93 946.954,1554.01 958.401,1555.09 969.848,1556.16 981.295,1557.23 992.741,1558.3 1004.19,1559.37 1015.64,1560.43 1027.08,1561.49 1038.53,1562.55 1049.98,1563.61 1061.42,1564.66 1072.87,1565.71 1084.32,1566.76 1095.76,1567.81 1107.21,1568.86 1118.66,1569.9 1130.1,1570.94 1141.55,1571.98 1153,1573.01 1164.45,1574.04 1175.89,1575.08 1187.34,1576.1 1198.79,1577.13 1210.23,1578.15 1221.68,1579.18 1233.13,1580.2 1244.57,1581.21 1256.02,1582.23 1267.47,1583.24 1278.91,1584.25 1290.36,1585.26 1301.81,1586.26 1313.26,1587.27 1324.7,1588.27 1336.15,1589.27 1347.6,1590.26 1359.04,1591.26 1370.49,1592.25 1381.94,1593.24 1393.38,1594.23 1404.83,1595.21 1416.28,1596.19 1427.72,1597.18 1439.17,1598.15 1450.62,1599.13 1462.07,1600.1 1473.51,1601.08 1484.96,1602.05 1496.41,1603.01 1507.85,1603.98 1519.3,1604.94 1530.75,1605.9 1542.19,1606.86 1553.64,1607.82 1565.09,1608.77 1576.53,1609.73 1587.98,1610.68 1599.43,1611.63 1610.88,1612.57 1622.32,1613.52 1633.77,1614.46 1645.22,1615.4 1656.66,1616.33 1668.11,1617.27 1679.56,1618.2 1691,1619.13 1702.45,1620.06 1713.9,1620.99 1725.34,1621.92 1736.79,1622.84 1748.24,1623.76 1759.69,1624.68 1771.13,1625.59 1782.58,1626.51 1794.03,1627.42 1805.47,1628.33 1816.92,1629.24 1828.37,1630.15 1839.81,1631.05 1851.26,1631.95 1862.71,1632.85 1874.16,1633.75 1885.6,1634.65 1897.05,1635.54 1908.5,1636.43 1919.94,1637.32 1931.39,1638.21 1942.84,1639.1 1954.28,1639.98 1965.73,1640.86 1977.18,1641.74 1988.62,1642.62 2000.07,1643.5 2011.52,1644.37 2022.97,1645.25 2034.41,1646.12 2045.86,1646.98 2057.31,1647.85 2068.75,1648.71 2080.2,1649.58 2091.65,1650.44 2103.09,1651.3 2114.54,1652.15 2125.99,1653.01 2137.43,1653.86 2148.88,1654.71 2160.33,1655.56 2171.78,1656.41 2183.22,1657.25 2194.67,1658.09 2206.12,1658.94 2217.56,1659.77 2229.01,1660.61 2240.46,1661.45 2251.9,1662.28 2263.35,1663.11 2274.8,1663.94 2286.24,1664.77 2297.69,1665.6 2309.14,1666.42 2320.59,1667.24 2332.03,1668.06 2343.48,1668.88 2354.93,1669.7 2366.37,1670.51 2377.82,1671.33 2389.27,1672.14 2400.71,1672.95 2412.16,1673.76 2423.61,1674.56 2435.05,1675.37 2446.5,1676.17 2457.95,1676.97 2469.4,1677.77 2480.84,1678.56 2492.29,1679.36 2503.74,1680.15 2515.18,1680.94 2526.63,1681.73 2538.08,1682.52 2549.52,1683.31 2560.97,1684.09 2572.42,1684.88 "/>
<polyline clip-path="url(#clip201)" style="stroke:#008000; stroke-linecap:round; stroke-linejoin:round; stroke-width:8; stroke-opacity:1; fill:none" points="294.479,1501.74 305.926,1498 317.373,1494.93 328.82,1492.51 340.266,1490.73 351.713,1489.56 363.16,1488.96 374.607,1488.9 386.054,1489.34 397.501,1490.24 408.948,1491.54 420.395,1493.22 431.842,1495.21 443.289,1497.48 454.736,1499.97 466.183,1502.63 477.63,1505.43 489.077,1508.31 500.523,1511.23 511.97,1514.16 523.417,1517.05 534.864,1519.87 546.311,1522.59 557.758,1525.19 569.205,1527.63 580.652,1529.91 592.099,1532.01 603.546,1533.92 614.993,1535.63 626.44,1537.13 637.887,1538.44 649.334,1539.56 660.78,1540.48 672.227,1541.24 683.674,1541.83 695.121,1542.27 706.568,1542.59 718.015,1542.8 729.462,1542.92 740.909,1542.97 752.356,1542.97 763.803,1542.95 775.25,1542.92 786.697,1542.9 798.144,1542.91 809.591,1542.98 821.037,1543.1 832.484,1543.3 843.931,1543.58 855.378,1543.97 866.825,1544.45 878.272,1545.04 889.719,1545.74 901.166,1546.55 912.613,1547.46 924.06,1548.48 935.507,1549.6 946.954,1550.81 958.401,1552.1 969.848,1553.47 981.295,1554.9 992.741,1556.37 1004.19,1557.89 1015.64,1559.44 1027.08,1560.99 1038.53,1562.56 1049.98,1564.11 1061.42,1565.65 1072.87,1567.16 1084.32,1568.62 1095.76,1570.05 1107.21,1571.42 1118.66,1572.73 1130.1,1573.98 1141.55,1575.16 1153,1576.28 1164.45,1577.32 1175.89,1578.3 1187.34,1579.22 1198.79,1580.07 1210.23,1580.87 1221.68,1581.61 1233.13,1582.31 1244.57,1582.96 1256.02,1583.58 1267.47,1584.18 1278.91,1584.76 1290.36,1585.33 1301.81,1585.89 1313.26,1586.46 1324.7,1587.04 1336.15,1587.64 1347.6,1588.26 1359.04,1588.92 1370.49,1589.61 1381.94,1590.34 1393.38,1591.11 1404.83,1591.93 1416.28,1592.8 1427.72,1593.71 1439.17,1594.68 1450.62,1595.69 1462.07,1596.74 1473.51,1597.84 1484.96,1598.98 1496.41,1600.15 1507.85,1601.36 1519.3,1602.59 1530.75,1603.84 1542.19,1605.11 1553.64,1606.38 1565.09,1607.66 1576.53,1608.93 1587.98,1610.19 1599.43,1611.43 1610.88,1612.66 1622.32,1613.85 1633.77,1615.01 1645.22,1616.13 1656.66,1617.22 1668.11,1618.25 1679.56,1619.24 1691,1620.19 1702.45,1621.08 1713.9,1621.92 1725.34,1622.71 1736.79,1623.46 1748.24,1624.16 1759.69,1624.82 1771.13,1625.44 1782.58,1626.03 1794.03,1626.6 1805.47,1627.14 1816.92,1627.67 1828.37,1628.2 1839.81,1628.72 1851.26,1629.25 1862.71,1629.8 1874.16,1630.37 1885.6,1630.98 1897.05,1631.62 1908.5,1632.3 1919.94,1633.04 1931.39,1633.83 1942.84,1634.68 1954.28,1635.6 1965.73,1636.58 1977.18,1637.62 1988.62,1638.73 2000.07,1639.91 2011.52,1641.15 2022.97,1642.45 2034.41,1643.8 2045.86,1645.2 2057.31,1646.64 2068.75,1648.11 2080.2,1649.6 2091.65,1651.1 2103.09,1652.61 2114.54,1654.1 2125.99,1655.56 2137.43,1656.99 2148.88,1658.37 2160.33,1659.69 2171.78,1660.94 2183.22,1662.1 2194.67,1663.18 2206.12,1664.15 2217.56,1665.02 2229.01,1665.77 2240.46,1666.41 2251.9,1666.93 2263.35,1667.33 2274.8,1667.61 2286.24,1667.79 2297.69,1667.86 2309.14,1667.84 2320.59,1667.73 2332.03,1667.56 2343.48,1667.34 2354.93,1667.08 2366.37,1666.81 2377.82,1666.55 2389.27,1666.33 2400.71,1666.16 2412.16,1666.07 2423.61,1666.1 2435.05,1666.26 2446.5,1666.59 2457.95,1667.1 2469.4,1667.84 2480.84,1668.82 2492.29,1670.07 2503.74,1671.6 2515.18,1673.45 2526.63,1675.63 2538.08,1678.15 2549.52,1681.04 2560.97,1684.3 2572.42,1687.94 "/>
<polyline clip-path="url(#clip201)" style="stroke:#ffa500; stroke-linecap:round; stroke-linejoin:round; stroke-width:8; stroke-opacity:1; fill:none" points="294.479,1520.26 305.926,1516.04 317.373,1512.21 328.82,1508.74 340.266,1505.62 351.713,1502.83 363.16,1500.35 374.607,1498.17 386.054,1496.26 397.501,1494.62 408.948,1493.24 420.395,1492.12 431.842,1491.24 443.289,1490.61 454.736,1490.22 466.183,1490.08 477.63,1490.19 489.077,1490.55 500.523,1491.17 511.97,1492.06 523.417,1493.23 534.864,1494.7 546.311,1496.48 557.758,1498.57 569.205,1500.94 580.652,1503.54 592.099,1506.34 603.546,1509.3 614.993,1512.39 626.44,1515.56 637.887,1518.78 649.334,1522.02 660.78,1525.26 672.227,1528.46 683.674,1531.59 695.121,1534.63 706.568,1537.54 718.015,1540.31 729.462,1542.91 740.909,1545.31 752.356,1547.49 763.803,1549.43 775.25,1551.1 786.697,1552.48 798.144,1553.55 809.591,1554.3 821.037,1554.73 832.484,1554.89 843.931,1554.79 855.378,1554.48 866.825,1553.98 878.272,1553.32 889.719,1552.54 901.166,1551.66 912.613,1550.72 924.06,1549.76 935.507,1548.8 946.954,1547.89 958.401,1547.06 969.848,1546.35 981.295,1545.8 992.741,1545.46 1004.19,1545.36 1015.64,1545.56 1027.08,1546.09 1038.53,1547.02 1049.98,1548.39 1061.42,1550.25 1072.87,1552.56 1084.32,1555.28 1095.76,1558.34 1107.21,1561.69 1118.66,1565.28 1130.1,1569.06 1141.55,1572.98 1153,1577 1164.45,1581.06 1175.89,1585.13 1187.34,1589.15 1198.79,1593.1 1210.23,1596.93 1221.68,1600.59 1233.13,1604.04 1244.57,1607.26 1256.02,1610.19 1267.47,1612.8 1278.91,1615.04 1290.36,1616.89 1301.81,1618.29 1313.26,1619.21 1324.7,1619.67 1336.15,1619.69 1347.6,1619.31 1359.04,1618.58 1370.49,1617.52 1381.94,1616.16 1393.38,1614.56 1404.83,1612.74 1416.28,1610.73 1427.72,1608.58 1439.17,1606.33 1450.62,1604 1462.07,1601.65 1473.51,1599.3 1484.96,1597 1496.41,1594.8 1507.85,1592.73 1519.3,1590.84 1530.75,1589.17 1542.19,1587.78 1553.64,1586.71 1565.09,1586.02 1576.53,1585.7 1587.98,1585.73 1599.43,1586.07 1610.88,1586.69 1622.32,1587.57 1633.77,1588.67 1645.22,1589.97 1656.66,1591.46 1668.11,1593.1 1679.56,1594.87 1691,1596.76 1702.45,1598.76 1713.9,1600.83 1725.34,1602.98 1736.79,1605.17 1748.24,1607.42 1759.69,1609.69 1771.13,1611.98 1782.58,1614.29 1794.03,1616.59 1805.47,1618.9 1816.92,1621.19 1828.37,1623.46 1839.81,1625.69 1851.26,1627.88 1862.71,1630 1874.16,1632.03 1885.6,1633.98 1897.05,1635.82 1908.5,1637.54 1919.94,1639.14 1931.39,1640.6 1942.84,1641.91 1954.28,1643.06 1965.73,1644.05 1977.18,1644.86 1988.62,1645.49 2000.07,1645.92 2011.52,1646.16 2022.97,1646.19 2034.41,1646 2045.86,1645.59 2057.31,1644.96 2068.75,1644.09 2080.2,1642.94 2091.65,1641.38 2103.09,1639.3 2114.54,1636.55 2125.99,1633.02 2137.43,1628.56 2148.88,1623.04 2160.33,1616.33 2171.78,1608.29 2183.22,1598.78 2194.67,1587.64 2206.12,1574.74 2217.56,1559.92 2229.01,1543.01 2240.46,1523.86 2251.9,1502.29 2263.35,1478.13 2274.8,1451.2 2286.24,1421.3 2297.69,1388.25 2309.14,1351.82 2320.59,1311.82 2332.03,1268.17 2343.48,1221.2 2354.93,1171.3 2366.37,1118.87 2377.82,1064.28 2389.27,1007.91 2400.71,950.136 2412.16,891.322 2423.61,831.842 2435.05,772.066 2446.5,712.368 2457.95,653.123 2469.4,594.711 2480.84,537.521 2492.29,481.943 2503.74,428.382 2515.18,377.247 2526.63,328.963 2538.08,283.964 2549.52,242.7 2560.97,205.636 2572.42,173.254 "/>
<polyline clip-path="url(#clip201)" style="stroke:#800080; stroke-linecap:round; stroke-linejoin:round; stroke-width:8; stroke-opacity:1; fill:none" points="294.479,1496.53 305.926,1495.16 317.373,1494.15 328.82,1493.5 340.266,1493.19 351.713,1493.2 363.16,1493.5 374.607,1494.08 386.054,1494.92 397.501,1495.99 408.948,1497.25 420.395,1498.7 431.842,1500.29 443.289,1502.01 454.736,1503.83 466.183,1505.73 477.63,1507.68 489.077,1509.65 500.523,1511.63 511.97,1513.6 523.417,1515.54 534.864,1517.43 546.311,1519.26 557.758,1521.01 569.205,1522.69 580.652,1524.27 592.099,1525.77 603.546,1527.17 614.993,1528.47 626.44,1529.69 637.887,1530.81 649.334,1531.85 660.78,1532.81 672.227,1533.7 683.674,1534.53 695.121,1535.3 706.568,1536.02 718.015,1536.7 729.462,1537.36 740.909,1538 752.356,1538.63 763.803,1539.26 775.25,1539.9 786.697,1540.56 798.144,1541.24 809.591,1541.95 821.037,1542.69 832.484,1543.47 843.931,1544.29 855.378,1545.14 866.825,1546.03 878.272,1546.95 889.719,1547.9 901.166,1548.89 912.613,1549.9 924.06,1550.93 935.507,1551.99 946.954,1553.06 958.401,1554.15 969.848,1555.25 981.295,1556.35 992.741,1557.47 1004.19,1558.59 1015.64,1559.71 1027.08,1560.82 1038.53,1561.94 1049.98,1563.05 1061.42,1564.15 1072.87,1565.24 1084.32,1566.33 1095.76,1567.4 1107.21,1568.45 1118.66,1569.5 1130.1,1570.53 1141.55,1571.54 1153,1572.54 1164.45,1573.52 1175.89,1574.49 1187.34,1575.45 1198.79,1576.39 1210.23,1577.33 1221.68,1578.25 1233.13,1579.16 1244.57,1580.07 1256.02,1580.98 1267.47,1581.88 1278.91,1582.79 1290.36,1583.7 1301.81,1584.61 1313.26,1585.52 1324.7,1586.45 1336.15,1587.37 1347.6,1588.31 1359.04,1589.25 1370.49,1590.19 1381.94,1591.14 1393.38,1592.09 1404.83,1593.05 1416.28,1594.01 1427.72,1594.97 1439.17,1595.93 1450.62,1596.9 1462.07,1597.86 1473.51,1598.83 1484.96,1599.8 1496.41,1600.77 1507.85,1601.74 1519.3,1602.72 1530.75,1603.7 1542.19,1604.68 1553.64,1605.66 1565.09,1606.65 1576.53,1607.64 1587.98,1608.63 1599.43,1609.62 1610.88,1610.61 1622.32,1611.6 1633.77,1612.58 1645.22,1613.56 1656.66,1614.53 1668.11,1615.49 1679.56,1616.45 1691,1617.39 1702.45,1618.33 1713.9,1619.26 1725.34,1620.18 1736.79,1621.09 1748.24,1621.99 1759.69,1622.88 1771.13,1623.77 1782.58,1624.65 1794.03,1625.52 1805.47,1626.39 1816.92,1627.26 1828.37,1628.12 1839.81,1628.99 1851.26,1629.85 1862.71,1630.72 1874.16,1631.59 1885.6,1632.45 1897.05,1633.33 1908.5,1634.21 1919.94,1635.09 1931.39,1635.98 1942.84,1636.88 1954.28,1637.8 1965.73,1638.72 1977.18,1639.66 1988.62,1640.61 2000.07,1641.57 2011.52,1642.56 2022.97,1643.56 2034.41,1644.58 2045.86,1645.63 2057.31,1646.69 2068.75,1647.76 2080.2,1648.85 2091.65,1649.96 2103.09,1651.07 2114.54,1652.19 2125.99,1653.3 2137.43,1654.42 2148.88,1655.52 2160.33,1656.6 2171.78,1657.67 2183.22,1658.71 2194.67,1659.73 2206.12,1660.7 2217.56,1661.64 2229.01,1662.54 2240.46,1663.4 2251.9,1664.21 2263.35,1664.98 2274.8,1665.7 2286.24,1666.37 2297.69,1666.99 2309.14,1667.58 2320.59,1668.12 2332.03,1668.63 2343.48,1669.11 2354.93,1669.57 2366.37,1670.02 2377.82,1670.46 2389.27,1670.91 2400.71,1671.38 2412.16,1671.88 2423.61,1672.41 2435.05,1673 2446.5,1673.65 2457.95,1674.38 2469.4,1675.21 2480.84,1676.13 2492.29,1677.17 2503.74,1678.34 2515.18,1679.65 2526.63,1681.12 2538.08,1682.74 2549.52,1684.53 2560.97,1686.5 2572.42,1688.65 "/>
<path clip-path="url(#clip200)" d="M306.628 440.536 L796.468 440.536 L796.468 181.336 L306.628 181.336  Z" fill="#ffffff" fill-rule="evenodd" fill-opacity="1"/>
<polyline clip-path="url(#clip200)" style="stroke:#000000; stroke-linecap:round; stroke-linejoin:round; stroke-width:4; stroke-opacity:1; fill:none" points="306.628,440.536 796.468,440.536 796.468,181.336 306.628,181.336 306.628,440.536 "/>
<polyline clip-path="url(#clip200)" style="stroke:#000000; stroke-linecap:round; stroke-linejoin:round; stroke-width:12; stroke-opacity:1; fill:none" stroke-dasharray="48, 30" points="333.457,233.176 494.431,233.176 "/>
<path clip-path="url(#clip200)" d="M521.26 215.896 L550.496 215.896 L550.496 219.831 L538.228 219.831 L538.228 250.456 L533.529 250.456 L533.529 219.831 L521.26 219.831 L521.26 215.896 Z" fill="#000000" fill-rule="nonzero" fill-opacity="1" /><path clip-path="url(#clip200)" d="M562.88 228.512 Q562.163 228.095 561.306 227.91 Q560.473 227.702 559.454 227.702 Q555.843 227.702 553.899 230.063 Q551.978 232.401 551.978 236.799 L551.978 250.456 L547.695 250.456 L547.695 224.531 L551.978 224.531 L551.978 228.558 Q553.32 226.197 555.473 225.063 Q557.626 223.906 560.704 223.906 Q561.144 223.906 561.677 223.975 Q562.209 224.021 562.857 224.137 L562.88 228.512 Z" fill="#000000" fill-rule="nonzero" fill-opacity="1" /><path clip-path="url(#clip200)" d="M566.908 240.225 L566.908 224.531 L571.167 224.531 L571.167 240.063 Q571.167 243.743 572.603 245.595 Q574.038 247.424 576.908 247.424 Q580.357 247.424 582.348 245.225 Q584.362 243.026 584.362 239.229 L584.362 224.531 L588.621 224.531 L588.621 250.456 L584.362 250.456 L584.362 246.475 Q582.811 248.836 580.751 249.993 Q578.714 251.128 576.005 251.128 Q571.538 251.128 569.223 248.35 Q566.908 245.572 566.908 240.225 M577.626 223.906 L577.626 223.906 Z" fill="#000000" fill-rule="nonzero" fill-opacity="1" /><path clip-path="url(#clip200)" d="M619.57 236.429 L619.57 238.512 L599.987 238.512 Q600.264 242.91 602.626 245.225 Q605.01 247.516 609.246 247.516 Q611.7 247.516 613.991 246.915 Q616.306 246.313 618.574 245.109 L618.574 249.137 Q616.283 250.109 613.875 250.618 Q611.468 251.128 608.991 251.128 Q602.788 251.128 599.153 247.516 Q595.542 243.905 595.542 237.748 Q595.542 231.382 598.968 227.655 Q602.417 223.906 608.25 223.906 Q613.482 223.906 616.514 227.285 Q619.57 230.642 619.57 236.429 M615.311 235.179 Q615.264 231.683 613.343 229.6 Q611.445 227.517 608.297 227.517 Q604.732 227.517 602.579 229.53 Q600.45 231.544 600.126 235.202 L615.311 235.179 Z" fill="#000000" fill-rule="nonzero" fill-opacity="1" /><polyline clip-path="url(#clip200)" style="stroke:#008000; stroke-linecap:round; stroke-linejoin:round; stroke-width:8; stroke-opacity:1; fill:none" points="333.457,285.016 494.431,285.016 "/>
<path clip-path="url(#clip200)" d="M543.505 268.871 L543.505 273.431 Q540.843 272.158 538.482 271.533 Q536.121 270.908 533.922 270.908 Q530.103 270.908 528.019 272.389 Q525.959 273.871 525.959 276.602 Q525.959 278.894 527.325 280.074 Q528.714 281.232 532.556 281.949 L535.381 282.528 Q540.612 283.523 543.089 286.046 Q545.589 288.546 545.589 292.759 Q545.589 297.782 542.209 300.375 Q538.853 302.968 532.348 302.968 Q529.894 302.968 527.117 302.412 Q524.362 301.856 521.399 300.769 L521.399 295.954 Q524.246 297.551 526.978 298.361 Q529.709 299.171 532.348 299.171 Q536.353 299.171 538.529 297.597 Q540.705 296.023 540.705 293.107 Q540.705 290.56 539.13 289.125 Q537.58 287.69 534.015 286.972 L531.168 286.417 Q525.936 285.375 523.598 283.153 Q521.26 280.931 521.26 276.972 Q521.26 272.389 524.478 269.75 Q527.719 267.111 533.39 267.111 Q535.82 267.111 538.343 267.551 Q540.867 267.991 543.505 268.871 Z" fill="#000000" fill-rule="nonzero" fill-opacity="1" /><path clip-path="url(#clip200)" d="M555.242 289.357 Q555.242 294.056 557.163 296.741 Q559.107 299.403 562.487 299.403 Q565.866 299.403 567.811 296.741 Q569.755 294.056 569.755 289.357 Q569.755 284.657 567.811 281.995 Q565.866 279.31 562.487 279.31 Q559.107 279.31 557.163 281.995 Q555.242 284.657 555.242 289.357 M569.755 298.407 Q568.413 300.722 566.353 301.856 Q564.316 302.968 561.445 302.968 Q556.746 302.968 553.783 299.218 Q550.843 295.468 550.843 289.357 Q550.843 283.245 553.783 279.495 Q556.746 275.746 561.445 275.746 Q564.316 275.746 566.353 276.88 Q568.413 277.991 569.755 280.306 L569.755 276.371 L574.015 276.371 L574.015 312.157 L569.755 312.157 L569.755 298.407 Z" fill="#000000" fill-rule="nonzero" fill-opacity="1" /><path clip-path="url(#clip200)" d="M582.973 267.736 L604.825 267.736 L604.825 271.671 L587.649 271.671 L587.649 281.903 L604.107 281.903 L604.107 285.838 L587.649 285.838 L587.649 298.361 L605.241 298.361 L605.241 302.296 L582.973 302.296 L582.973 267.736 Z" fill="#000000" fill-rule="nonzero" fill-opacity="1" /><path clip-path="url(#clip200)" d="M634.292 276.371 L624.917 288.986 L634.778 302.296 L629.755 302.296 L622.209 292.111 L614.662 302.296 L609.639 302.296 L619.709 288.732 L610.496 276.371 L615.519 276.371 L622.394 285.607 L629.269 276.371 L634.292 276.371 Z" fill="#000000" fill-rule="nonzero" fill-opacity="1" /><path clip-path="url(#clip200)" d="M644.917 298.407 L644.917 312.157 L640.635 312.157 L640.635 276.371 L644.917 276.371 L644.917 280.306 Q646.26 277.991 648.297 276.88 Q650.357 275.746 653.204 275.746 Q657.926 275.746 660.866 279.495 Q663.829 283.245 663.829 289.357 Q663.829 295.468 660.866 299.218 Q657.926 302.968 653.204 302.968 Q650.357 302.968 648.297 301.856 Q646.26 300.722 644.917 298.407 M659.408 289.357 Q659.408 284.657 657.463 281.995 Q655.542 279.31 652.162 279.31 Q648.783 279.31 646.838 281.995 Q644.917 284.657 644.917 289.357 Q644.917 294.056 646.838 296.741 Q648.783 299.403 652.162 299.403 Q655.542 299.403 657.463 296.741 Q659.408 294.056 659.408 289.357 Z" fill="#000000" fill-rule="nonzero" fill-opacity="1" /><polyline clip-path="url(#clip200)" style="stroke:#ffa500; stroke-linecap:round; stroke-linejoin:round; stroke-width:8; stroke-opacity:1; fill:none" points="333.457,336.856 494.431,336.856 "/>
<path clip-path="url(#clip200)" d="M521.26 319.576 L528.228 319.576 L537.047 343.095 L545.913 319.576 L552.88 319.576 L552.88 354.136 L548.32 354.136 L548.32 323.789 L539.408 347.493 L534.709 347.493 L525.797 323.789 L525.797 354.136 L521.26 354.136 L521.26 319.576 Z" fill="#000000" fill-rule="nonzero" fill-opacity="1" /><path clip-path="url(#clip200)" d="M573.76 341.104 Q568.598 341.104 566.607 342.284 Q564.616 343.465 564.616 346.312 Q564.616 348.581 566.098 349.923 Q567.603 351.243 570.172 351.243 Q573.714 351.243 575.843 348.743 Q577.996 346.22 577.996 342.053 L577.996 341.104 L573.76 341.104 M582.255 339.345 L582.255 354.136 L577.996 354.136 L577.996 350.201 Q576.538 352.562 574.362 353.696 Q572.186 354.808 569.038 354.808 Q565.056 354.808 562.695 352.585 Q560.357 350.34 560.357 346.59 Q560.357 342.215 563.274 339.993 Q566.214 337.771 572.024 337.771 L577.996 337.771 L577.996 337.354 Q577.996 334.414 576.052 332.817 Q574.13 331.197 570.635 331.197 Q568.413 331.197 566.306 331.729 Q564.2 332.261 562.255 333.326 L562.255 329.391 Q564.593 328.488 566.792 328.048 Q568.991 327.586 571.075 327.586 Q576.7 327.586 579.477 330.502 Q582.255 333.419 582.255 339.345 Z" fill="#000000" fill-rule="nonzero" fill-opacity="1" /><path clip-path="url(#clip200)" d="M595.241 320.849 L595.241 328.211 L604.014 328.211 L604.014 331.521 L595.241 331.521 L595.241 345.595 Q595.241 348.766 596.098 349.669 Q596.977 350.571 599.639 350.571 L604.014 350.571 L604.014 354.136 L599.639 354.136 Q594.709 354.136 592.834 352.308 Q590.959 350.456 590.959 345.595 L590.959 331.521 L587.834 331.521 L587.834 328.211 L590.959 328.211 L590.959 320.849 L595.241 320.849 Z" fill="#000000" fill-rule="nonzero" fill-opacity="1" /><path clip-path="url(#clip200)" d="M631.792 340.109 L631.792 342.192 L612.209 342.192 Q612.487 346.59 614.848 348.905 Q617.232 351.196 621.468 351.196 Q623.922 351.196 626.213 350.595 Q628.528 349.993 630.797 348.789 L630.797 352.817 Q628.505 353.789 626.098 354.298 Q623.69 354.808 621.213 354.808 Q615.01 354.808 611.375 351.196 Q607.764 347.585 607.764 341.428 Q607.764 335.062 611.19 331.335 Q614.639 327.586 620.473 327.586 Q625.704 327.586 628.736 330.965 Q631.792 334.322 631.792 340.109 M627.533 338.859 Q627.486 335.363 625.565 333.28 Q623.667 331.197 620.519 331.197 Q616.954 331.197 614.801 333.21 Q612.672 335.224 612.348 338.882 L627.533 338.859 M623.436 316.22 L628.042 316.22 L620.496 324.923 L616.954 324.923 L623.436 316.22 Z" fill="#000000" fill-rule="nonzero" fill-opacity="1" /><path clip-path="url(#clip200)" d="M653.806 332.192 Q653.088 331.775 652.232 331.59 Q651.398 331.382 650.38 331.382 Q646.769 331.382 644.824 333.743 Q642.903 336.081 642.903 340.479 L642.903 354.136 L638.621 354.136 L638.621 328.211 L642.903 328.211 L642.903 332.238 Q644.246 329.877 646.398 328.743 Q648.551 327.586 651.63 327.586 Q652.07 327.586 652.602 327.655 Q653.134 327.701 653.783 327.817 L653.806 332.192 Z" fill="#000000" fill-rule="nonzero" fill-opacity="1" /><path clip-path="url(#clip200)" d="M678.991 338.488 L678.991 354.136 L674.732 354.136 L674.732 338.627 Q674.732 334.947 673.296 333.118 Q671.861 331.289 668.991 331.289 Q665.542 331.289 663.551 333.488 Q661.56 335.687 661.56 339.484 L661.56 354.136 L657.278 354.136 L657.278 328.211 L661.56 328.211 L661.56 332.238 Q663.088 329.9 665.148 328.743 Q667.232 327.586 669.94 327.586 Q674.408 327.586 676.699 330.363 Q678.991 333.118 678.991 338.488 Z" fill="#000000" fill-rule="nonzero" fill-opacity="1" /><path clip-path="url(#clip200)" d="M717.324 335.502 Q720.68 336.22 722.555 338.488 Q724.454 340.757 724.454 344.09 Q724.454 349.206 720.935 352.007 Q717.417 354.808 710.935 354.808 Q708.759 354.808 706.444 354.368 Q704.153 353.951 701.699 353.095 L701.699 348.581 Q703.643 349.715 705.958 350.294 Q708.273 350.872 710.796 350.872 Q715.194 350.872 717.486 349.136 Q719.801 347.4 719.801 344.09 Q719.801 341.035 717.648 339.322 Q715.518 337.585 711.699 337.585 L707.671 337.585 L707.671 333.743 L711.884 333.743 Q715.333 333.743 717.162 332.377 Q718.991 330.988 718.991 328.396 Q718.991 325.734 717.092 324.322 Q715.218 322.886 711.699 322.886 Q709.778 322.886 707.579 323.303 Q705.38 323.72 702.741 324.599 L702.741 320.433 Q705.403 319.692 707.718 319.322 Q710.055 318.951 712.116 318.951 Q717.44 318.951 720.542 321.382 Q723.643 323.789 723.643 327.91 Q723.643 330.78 722 332.771 Q720.356 334.738 717.324 335.502 Z" fill="#000000" fill-rule="nonzero" fill-opacity="1" /><path clip-path="url(#clip200)" d="M740.287 319.576 L744.222 319.576 L732.185 358.534 L728.25 358.534 L740.287 319.576 Z" fill="#000000" fill-rule="nonzero" fill-opacity="1" /><path clip-path="url(#clip200)" d="M753.319 350.201 L769.639 350.201 L769.639 354.136 L747.694 354.136 L747.694 350.201 Q750.356 347.447 754.94 342.817 Q759.546 338.164 760.727 336.822 Q762.972 334.298 763.851 332.562 Q764.754 330.803 764.754 329.113 Q764.754 326.359 762.81 324.623 Q760.889 322.886 757.787 322.886 Q755.588 322.886 753.134 323.65 Q750.703 324.414 747.926 325.965 L747.926 321.243 Q750.75 320.109 753.203 319.53 Q755.657 318.951 757.694 318.951 Q763.064 318.951 766.259 321.636 Q769.453 324.322 769.453 328.812 Q769.453 330.942 768.643 332.863 Q767.856 334.761 765.75 337.354 Q765.171 338.025 762.069 341.243 Q758.967 344.437 753.319 350.201 Z" fill="#000000" fill-rule="nonzero" fill-opacity="1" /><polyline clip-path="url(#clip200)" style="stroke:#800080; stroke-linecap:round; stroke-linejoin:round; stroke-width:8; stroke-opacity:1; fill:none" points="333.457,388.696 494.431,388.696 "/>
<path clip-path="url(#clip200)" d="M521.26 371.416 L528.228 371.416 L537.047 394.935 L545.913 371.416 L552.88 371.416 L552.88 405.976 L548.32 405.976 L548.32 375.629 L539.408 399.333 L534.709 399.333 L525.797 375.629 L525.797 405.976 L521.26 405.976 L521.26 371.416 Z" fill="#000000" fill-rule="nonzero" fill-opacity="1" /><path clip-path="url(#clip200)" d="M573.76 392.944 Q568.598 392.944 566.607 394.124 Q564.616 395.305 564.616 398.152 Q564.616 400.421 566.098 401.763 Q567.603 403.083 570.172 403.083 Q573.714 403.083 575.843 400.583 Q577.996 398.06 577.996 393.893 L577.996 392.944 L573.76 392.944 M582.255 391.185 L582.255 405.976 L577.996 405.976 L577.996 402.041 Q576.538 404.402 574.362 405.536 Q572.186 406.648 569.038 406.648 Q565.056 406.648 562.695 404.425 Q560.357 402.18 560.357 398.43 Q560.357 394.055 563.274 391.833 Q566.214 389.611 572.024 389.611 L577.996 389.611 L577.996 389.194 Q577.996 386.254 576.052 384.657 Q574.13 383.037 570.635 383.037 Q568.413 383.037 566.306 383.569 Q564.2 384.101 562.255 385.166 L562.255 381.231 Q564.593 380.328 566.792 379.888 Q568.991 379.426 571.075 379.426 Q576.7 379.426 579.477 382.342 Q582.255 385.259 582.255 391.185 Z" fill="#000000" fill-rule="nonzero" fill-opacity="1" /><path clip-path="url(#clip200)" d="M595.241 372.689 L595.241 380.051 L604.014 380.051 L604.014 383.361 L595.241 383.361 L595.241 397.435 Q595.241 400.606 596.098 401.509 Q596.977 402.411 599.639 402.411 L604.014 402.411 L604.014 405.976 L599.639 405.976 Q594.709 405.976 592.834 404.148 Q590.959 402.296 590.959 397.435 L590.959 383.361 L587.834 383.361 L587.834 380.051 L590.959 380.051 L590.959 372.689 L595.241 372.689 Z" fill="#000000" fill-rule="nonzero" fill-opacity="1" /><path clip-path="url(#clip200)" d="M631.792 391.949 L631.792 394.032 L612.209 394.032 Q612.487 398.43 614.848 400.745 Q617.232 403.036 621.468 403.036 Q623.922 403.036 626.213 402.435 Q628.528 401.833 630.797 400.629 L630.797 404.657 Q628.505 405.629 626.098 406.138 Q623.69 406.648 621.213 406.648 Q615.01 406.648 611.375 403.036 Q607.764 399.425 607.764 393.268 Q607.764 386.902 611.19 383.175 Q614.639 379.426 620.473 379.426 Q625.704 379.426 628.736 382.805 Q631.792 386.162 631.792 391.949 M627.533 390.699 Q627.486 387.203 625.565 385.12 Q623.667 383.037 620.519 383.037 Q616.954 383.037 614.801 385.05 Q612.672 387.064 612.348 390.722 L627.533 390.699 M623.436 368.06 L628.042 368.06 L620.496 376.763 L616.954 376.763 L623.436 368.06 Z" fill="#000000" fill-rule="nonzero" fill-opacity="1" /><path clip-path="url(#clip200)" d="M653.806 384.032 Q653.088 383.615 652.232 383.43 Q651.398 383.222 650.38 383.222 Q646.769 383.222 644.824 385.583 Q642.903 387.921 642.903 392.319 L642.903 405.976 L638.621 405.976 L638.621 380.051 L642.903 380.051 L642.903 384.078 Q644.246 381.717 646.398 380.583 Q648.551 379.426 651.63 379.426 Q652.07 379.426 652.602 379.495 Q653.134 379.541 653.783 379.657 L653.806 384.032 Z" fill="#000000" fill-rule="nonzero" fill-opacity="1" /><path clip-path="url(#clip200)" d="M678.991 390.328 L678.991 405.976 L674.732 405.976 L674.732 390.467 Q674.732 386.787 673.296 384.958 Q671.861 383.129 668.991 383.129 Q665.542 383.129 663.551 385.328 Q661.56 387.527 661.56 391.324 L661.56 405.976 L657.278 405.976 L657.278 380.051 L661.56 380.051 L661.56 384.078 Q663.088 381.74 665.148 380.583 Q667.232 379.426 669.94 379.426 Q674.408 379.426 676.699 382.203 Q678.991 384.958 678.991 390.328 Z" fill="#000000" fill-rule="nonzero" fill-opacity="1" /><path clip-path="url(#clip200)" d="M703.204 371.416 L721.56 371.416 L721.56 375.351 L707.486 375.351 L707.486 383.824 Q708.505 383.476 709.523 383.314 Q710.542 383.129 711.56 383.129 Q717.347 383.129 720.727 386.3 Q724.106 389.472 724.106 394.888 Q724.106 400.467 720.634 403.569 Q717.162 406.648 710.843 406.648 Q708.667 406.648 706.398 406.277 Q704.153 405.907 701.745 405.166 L701.745 400.467 Q703.829 401.601 706.051 402.157 Q708.273 402.712 710.75 402.712 Q714.755 402.712 717.092 400.606 Q719.43 398.499 719.43 394.888 Q719.43 391.277 717.092 389.171 Q714.755 387.064 710.75 387.064 Q708.875 387.064 707 387.481 Q705.148 387.898 703.204 388.777 L703.204 371.416 Z" fill="#000000" fill-rule="nonzero" fill-opacity="1" /><path clip-path="url(#clip200)" d="M740.287 371.416 L744.222 371.416 L732.185 410.374 L728.25 410.374 L740.287 371.416 Z" fill="#000000" fill-rule="nonzero" fill-opacity="1" /><path clip-path="url(#clip200)" d="M753.319 402.041 L769.639 402.041 L769.639 405.976 L747.694 405.976 L747.694 402.041 Q750.356 399.287 754.94 394.657 Q759.546 390.004 760.727 388.662 Q762.972 386.138 763.851 384.402 Q764.754 382.643 764.754 380.953 Q764.754 378.199 762.81 376.463 Q760.889 374.726 757.787 374.726 Q755.588 374.726 753.134 375.49 Q750.703 376.254 747.926 377.805 L747.926 373.083 Q750.75 371.949 753.203 371.37 Q755.657 370.791 757.694 370.791 Q763.064 370.791 766.259 373.476 Q769.453 376.162 769.453 380.652 Q769.453 382.782 768.643 384.703 Q767.856 386.601 765.75 389.194 Q765.171 389.865 762.069 393.083 Q758.967 396.277 753.319 402.041 Z" fill="#000000" fill-rule="nonzero" fill-opacity="1" /></svg>
