<?xml version="1.0" encoding="utf-8"?>
<svg xmlns="http://www.w3.org/2000/svg" xmlns:xlink="http://www.w3.org/1999/xlink" width="672" height="480" viewBox="0 0 2688 1920">
<defs>
  <clipPath id="clip510">
    <rect x="0" y="0" width="2688" height="1920"/>
  </clipPath>
</defs>
<path clip-path="url(#clip510)" d="M0 1920 L2688 1920 L2688 -4.26326e-14 L0 -4.26326e-14  Z" fill="#ffffff" fill-rule="evenodd" fill-opacity="1"/>
<defs>
  <clipPath id="clip511">
    <rect x="208" y="127" width="2433" height="1607"/>
  </clipPath>
</defs>
<path clip-path="url(#clip510)" d="M208.502 1734.12 L2640.76 1734.12 L2640.76 127.792 L208.502 127.792  Z" fill="#ffffff" fill-rule="evenodd" fill-opacity="1"/>
<polyline clip-path="url(#clip511)" style="stroke:#000000; stroke-linecap:round; stroke-linejoin:round; stroke-width:2; stroke-opacity:0.1; fill:none" points="277.339,1734.12 277.339,127.792 "/>
<polyline clip-path="url(#clip511)" style="stroke:#000000; stroke-linecap:round; stroke-linejoin:round; stroke-width:2; stroke-opacity:0.1; fill:none" points="1042.2,1734.12 1042.2,127.792 "/>
<polyline clip-path="url(#clip511)" style="stroke:#000000; stroke-linecap:round; stroke-linejoin:round; stroke-width:2; stroke-opacity:0.1; fill:none" points="1807.06,1734.12 1807.06,127.792 "/>
<polyline clip-path="url(#clip511)" style="stroke:#000000; stroke-linecap:round; stroke-linejoin:round; stroke-width:2; stroke-opacity:0.1; fill:none" points="2571.92,1734.12 2571.92,127.792 "/>
<polyline clip-path="url(#clip511)" style="stroke:#000000; stroke-linecap:round; stroke-linejoin:round; stroke-width:2; stroke-opacity:0.1; fill:none" points="208.502,1442.32 2640.76,1442.32 "/>
<polyline clip-path="url(#clip511)" style="stroke:#000000; stroke-linecap:round; stroke-linejoin:round; stroke-width:2; stroke-opacity:0.1; fill:none" points="208.502,1136.12 2640.76,1136.12 "/>
<polyline clip-path="url(#clip511)" style="stroke:#000000; stroke-linecap:round; stroke-linejoin:round; stroke-width:2; stroke-opacity:0.1; fill:none" points="208.502,829.919 2640.76,829.919 "/>
<polyline clip-path="url(#clip511)" style="stroke:#000000; stroke-linecap:round; stroke-linejoin:round; stroke-width:2; stroke-opacity:0.1; fill:none" points="208.502,523.721 2640.76,523.721 "/>
<polyline clip-path="url(#clip511)" style="stroke:#000000; stroke-linecap:round; stroke-linejoin:round; stroke-width:2; stroke-opacity:0.1; fill:none" points="208.502,217.522 2640.76,217.522 "/>
<polyline clip-path="url(#clip510)" style="stroke:#000000; stroke-linecap:round; stroke-linejoin:round; stroke-width:4; stroke-opacity:1; fill:none" points="208.502,1734.12 2640.76,1734.12 "/>
<polyline clip-path="url(#clip510)" style="stroke:#000000; stroke-linecap:round; stroke-linejoin:round; stroke-width:4; stroke-opacity:1; fill:none" points="277.339,1734.12 277.339,1715.22 "/>
<polyline clip-path="url(#clip510)" style="stroke:#000000; stroke-linecap:round; stroke-linejoin:round; stroke-width:4; stroke-opacity:1; fill:none" points="1042.2,1734.12 1042.2,1715.22 "/>
<polyline clip-path="url(#clip510)" style="stroke:#000000; stroke-linecap:round; stroke-linejoin:round; stroke-width:4; stroke-opacity:1; fill:none" points="1807.06,1734.12 1807.06,1715.22 "/>
<polyline clip-path="url(#clip510)" style="stroke:#000000; stroke-linecap:round; stroke-linejoin:round; stroke-width:4; stroke-opacity:1; fill:none" points="2571.92,1734.12 2571.92,1715.22 "/>
<path clip-path="url(#clip510)" d="M277.339 1767.34 Q273.728 1767.34 271.899 1770.9 Q270.094 1774.45 270.094 1781.58 Q270.094 1788.68 271.899 1792.25 Q273.728 1795.79 277.339 1795.79 Q280.973 1795.79 282.779 1792.25 Q284.608 1788.68 284.608 1781.58 Q284.608 1774.45 282.779 1770.9 Q280.973 1767.34 277.339 1767.34 M277.339 1763.64 Q283.149 1763.64 286.205 1768.24 Q289.284 1772.83 289.284 1781.58 Q289.284 1790.3 286.205 1794.91 Q283.149 1799.49 277.339 1799.49 Q271.529 1799.49 268.45 1794.91 Q265.395 1790.3 265.395 1781.58 Q265.395 1772.83 268.45 1768.24 Q271.529 1763.64 277.339 1763.64 Z" fill="#000000" fill-rule="nonzero" fill-opacity="1" /><path clip-path="url(#clip510)" d="M1032.48 1764.26 L1050.83 1764.26 L1050.83 1768.2 L1036.76 1768.2 L1036.76 1776.67 Q1037.78 1776.32 1038.8 1776.16 Q1039.81 1775.97 1040.83 1775.97 Q1046.62 1775.97 1050 1779.15 Q1053.38 1782.32 1053.38 1787.73 Q1053.38 1793.31 1049.91 1796.41 Q1046.44 1799.49 1040.12 1799.49 Q1037.94 1799.49 1035.67 1799.12 Q1033.43 1798.75 1031.02 1798.01 L1031.02 1793.31 Q1033.1 1794.45 1035.32 1795 Q1037.55 1795.56 1040.02 1795.56 Q1044.03 1795.56 1046.37 1793.45 Q1048.7 1791.34 1048.7 1787.73 Q1048.7 1784.12 1046.37 1782.02 Q1044.03 1779.91 1040.02 1779.91 Q1038.15 1779.91 1036.27 1780.33 Q1034.42 1780.74 1032.48 1781.62 L1032.48 1764.26 Z" fill="#000000" fill-rule="nonzero" fill-opacity="1" /><path clip-path="url(#clip510)" d="M1781.75 1794.89 L1789.39 1794.89 L1789.39 1768.52 L1781.08 1770.19 L1781.08 1765.93 L1789.34 1764.26 L1794.01 1764.26 L1794.01 1794.89 L1801.65 1794.89 L1801.65 1798.82 L1781.75 1798.82 L1781.75 1794.89 Z" fill="#000000" fill-rule="nonzero" fill-opacity="1" /><path clip-path="url(#clip510)" d="M1821.1 1767.34 Q1817.49 1767.34 1815.66 1770.9 Q1813.85 1774.45 1813.85 1781.58 Q1813.85 1788.68 1815.66 1792.25 Q1817.49 1795.79 1821.1 1795.79 Q1824.73 1795.79 1826.54 1792.25 Q1828.37 1788.68 1828.37 1781.58 Q1828.37 1774.45 1826.54 1770.9 Q1824.73 1767.34 1821.1 1767.34 M1821.1 1763.64 Q1826.91 1763.64 1829.96 1768.24 Q1833.04 1772.83 1833.04 1781.58 Q1833.04 1790.3 1829.96 1794.91 Q1826.91 1799.49 1821.1 1799.49 Q1815.29 1799.49 1812.21 1794.91 Q1809.15 1790.3 1809.15 1781.58 Q1809.15 1772.83 1812.21 1768.24 Q1815.29 1763.64 1821.1 1763.64 Z" fill="#000000" fill-rule="nonzero" fill-opacity="1" /><path clip-path="url(#clip510)" d="M2547.1 1794.89 L2554.74 1794.89 L2554.74 1768.52 L2546.43 1770.19 L2546.43 1765.93 L2554.7 1764.26 L2559.37 1764.26 L2559.37 1794.89 L2567.01 1794.89 L2567.01 1798.82 L2547.1 1798.82 L2547.1 1794.89 Z" fill="#000000" fill-rule="nonzero" fill-opacity="1" /><path clip-path="url(#clip510)" d="M2576.5 1764.26 L2594.86 1764.26 L2594.86 1768.2 L2580.78 1768.2 L2580.78 1776.67 Q2581.8 1776.32 2582.82 1776.16 Q2583.84 1775.97 2584.86 1775.97 Q2590.65 1775.97 2594.02 1779.15 Q2597.4 1782.32 2597.4 1787.73 Q2597.4 1793.31 2593.93 1796.41 Q2590.46 1799.49 2584.14 1799.49 Q2581.96 1799.49 2579.7 1799.12 Q2577.45 1798.75 2575.04 1798.01 L2575.04 1793.31 Q2577.13 1794.45 2579.35 1795 Q2581.57 1795.56 2584.05 1795.56 Q2588.05 1795.56 2590.39 1793.45 Q2592.73 1791.34 2592.73 1787.73 Q2592.73 1784.12 2590.39 1782.02 Q2588.05 1779.91 2584.05 1779.91 Q2582.17 1779.91 2580.3 1780.33 Q2578.45 1780.74 2576.5 1781.62 L2576.5 1764.26 Z" fill="#000000" fill-rule="nonzero" fill-opacity="1" /><path clip-path="url(#clip510)" d="M1346.51 1835.78 L1386.71 1835.78 L1386.71 1841.19 L1369.84 1841.19 L1369.84 1883.3 L1363.37 1883.3 L1363.37 1841.19 L1346.51 1841.19 L1346.51 1835.78 Z" fill="#000000" fill-rule="nonzero" fill-opacity="1" /><path clip-path="url(#clip510)" d="M1390.65 1847.65 L1396.51 1847.65 L1396.51 1883.3 L1390.65 1883.3 L1390.65 1847.65 M1390.65 1833.78 L1396.51 1833.78 L1396.51 1841.19 L1390.65 1841.19 L1390.65 1833.78 Z" fill="#000000" fill-rule="nonzero" fill-opacity="1" /><path clip-path="url(#clip510)" d="M1436.52 1854.5 Q1438.71 1850.55 1441.77 1848.67 Q1444.82 1846.79 1448.96 1846.79 Q1454.53 1846.79 1457.56 1850.71 Q1460.58 1854.59 1460.58 1861.78 L1460.58 1883.3 L1454.69 1883.3 L1454.69 1861.98 Q1454.69 1856.85 1452.88 1854.37 Q1451.06 1851.89 1447.34 1851.89 Q1442.79 1851.89 1440.15 1854.91 Q1437.5 1857.93 1437.5 1863.15 L1437.5 1883.3 L1431.62 1883.3 L1431.62 1861.98 Q1431.62 1856.82 1429.8 1854.37 Q1427.99 1851.89 1424.2 1851.89 Q1419.71 1851.89 1417.07 1854.94 Q1414.43 1857.97 1414.43 1863.15 L1414.43 1883.3 L1408.54 1883.3 L1408.54 1847.65 L1414.43 1847.65 L1414.43 1853.19 Q1416.43 1849.91 1419.23 1848.35 Q1422.03 1846.79 1425.89 1846.79 Q1429.77 1846.79 1432.47 1848.77 Q1435.21 1850.74 1436.52 1854.5 Z" fill="#000000" fill-rule="nonzero" fill-opacity="1" /><path clip-path="url(#clip510)" d="M1502.75 1864.01 L1502.75 1866.88 L1475.83 1866.88 Q1476.21 1872.92 1479.45 1876.11 Q1482.73 1879.26 1488.56 1879.26 Q1491.93 1879.26 1495.08 1878.43 Q1498.26 1877.6 1501.38 1875.95 L1501.38 1881.49 Q1498.23 1882.82 1494.92 1883.52 Q1491.61 1884.22 1488.21 1884.22 Q1479.68 1884.22 1474.68 1879.26 Q1469.71 1874.29 1469.71 1865.83 Q1469.71 1857.07 1474.42 1851.95 Q1479.17 1846.79 1487.19 1846.79 Q1494.38 1846.79 1498.55 1851.44 Q1502.75 1856.06 1502.75 1864.01 M1496.9 1862.29 Q1496.83 1857.49 1494.19 1854.62 Q1491.58 1851.76 1487.25 1851.76 Q1482.35 1851.76 1479.39 1854.53 Q1476.46 1857.3 1476.02 1862.33 L1496.9 1862.29 Z" fill="#000000" fill-rule="nonzero" fill-opacity="1" /><polyline clip-path="url(#clip510)" style="stroke:#000000; stroke-linecap:round; stroke-linejoin:round; stroke-width:4; stroke-opacity:1; fill:none" points="208.502,1734.12 208.502,127.792 "/>
<polyline clip-path="url(#clip510)" style="stroke:#000000; stroke-linecap:round; stroke-linejoin:round; stroke-width:4; stroke-opacity:1; fill:none" points="208.502,1442.32 227.399,1442.32 "/>
<polyline clip-path="url(#clip510)" style="stroke:#000000; stroke-linecap:round; stroke-linejoin:round; stroke-width:4; stroke-opacity:1; fill:none" points="208.502,1136.12 227.399,1136.12 "/>
<polyline clip-path="url(#clip510)" style="stroke:#000000; stroke-linecap:round; stroke-linejoin:round; stroke-width:4; stroke-opacity:1; fill:none" points="208.502,829.919 227.399,829.919 "/>
<polyline clip-path="url(#clip510)" style="stroke:#000000; stroke-linecap:round; stroke-linejoin:round; stroke-width:4; stroke-opacity:1; fill:none" points="208.502,523.721 227.399,523.721 "/>
<polyline clip-path="url(#clip510)" style="stroke:#000000; stroke-linecap:round; stroke-linejoin:round; stroke-width:4; stroke-opacity:1; fill:none" points="208.502,217.522 227.399,217.522 "/>
<path clip-path="url(#clip510)" d="M151.862 1455.66 L168.182 1455.66 L168.182 1459.6 L146.237 1459.6 L146.237 1455.66 Q148.899 1452.91 153.483 1448.28 Q158.089 1443.62 159.27 1442.28 Q161.515 1439.76 162.395 1438.02 Q163.298 1436.26 163.298 1434.57 Q163.298 1431.82 161.353 1430.08 Q159.432 1428.35 156.33 1428.35 Q154.131 1428.35 151.677 1429.11 Q149.247 1429.87 146.469 1431.43 L146.469 1426.7 Q149.293 1425.57 151.747 1424.99 Q154.2 1424.41 156.237 1424.41 Q161.608 1424.41 164.802 1427.1 Q167.997 1429.78 167.997 1434.27 Q167.997 1436.4 167.186 1438.32 Q166.399 1440.22 164.293 1442.81 Q163.714 1443.49 160.612 1446.7 Q157.511 1449.9 151.862 1455.66 Z" fill="#000000" fill-rule="nonzero" fill-opacity="1" /><path clip-path="url(#clip510)" d="M158.598 1122.91 L146.793 1141.36 L158.598 1141.36 L158.598 1122.91 M157.372 1118.84 L163.251 1118.84 L163.251 1141.36 L168.182 1141.36 L168.182 1145.25 L163.251 1145.25 L163.251 1153.4 L158.598 1153.4 L158.598 1145.25 L142.997 1145.25 L142.997 1140.74 L157.372 1118.84 Z" fill="#000000" fill-rule="nonzero" fill-opacity="1" /><path clip-path="url(#clip510)" d="M156.654 828.056 Q153.506 828.056 151.654 830.209 Q149.825 832.362 149.825 836.112 Q149.825 839.838 151.654 842.014 Q153.506 844.167 156.654 844.167 Q159.802 844.167 161.631 842.014 Q163.483 839.838 163.483 836.112 Q163.483 832.362 161.631 830.209 Q159.802 828.056 156.654 828.056 M165.936 813.403 L165.936 817.663 Q164.177 816.829 162.372 816.389 Q160.589 815.95 158.83 815.95 Q154.2 815.95 151.747 819.075 Q149.316 822.2 148.969 828.519 Q150.335 826.505 152.395 825.44 Q154.455 824.352 156.932 824.352 Q162.14 824.352 165.149 827.524 Q168.182 830.672 168.182 836.112 Q168.182 841.436 165.034 844.653 Q161.885 847.871 156.654 847.871 Q150.659 847.871 147.487 843.287 Q144.316 838.681 144.316 829.954 Q144.316 821.76 148.205 816.899 Q152.094 812.014 158.645 812.014 Q160.404 812.014 162.186 812.362 Q163.992 812.709 165.936 813.403 Z" fill="#000000" fill-rule="nonzero" fill-opacity="1" /><path clip-path="url(#clip510)" d="M156.33 524.589 Q152.997 524.589 151.075 526.371 Q149.177 528.154 149.177 531.279 Q149.177 534.404 151.075 536.186 Q152.997 537.968 156.33 537.968 Q159.663 537.968 161.585 536.186 Q163.506 534.38 163.506 531.279 Q163.506 528.154 161.585 526.371 Q159.686 524.589 156.33 524.589 M151.654 522.598 Q148.645 521.857 146.955 519.797 Q145.288 517.737 145.288 514.774 Q145.288 510.631 148.228 508.223 Q151.191 505.816 156.33 505.816 Q161.492 505.816 164.432 508.223 Q167.372 510.631 167.372 514.774 Q167.372 517.737 165.682 519.797 Q164.015 521.857 161.029 522.598 Q164.409 523.385 166.284 525.677 Q168.182 527.968 168.182 531.279 Q168.182 536.302 165.103 538.987 Q162.048 541.672 156.33 541.672 Q150.612 541.672 147.534 538.987 Q144.478 536.302 144.478 531.279 Q144.478 527.968 146.376 525.677 Q148.274 523.385 151.654 522.598 M149.941 515.214 Q149.941 517.899 151.608 519.404 Q153.298 520.908 156.33 520.908 Q159.339 520.908 161.029 519.404 Q162.742 517.899 162.742 515.214 Q162.742 512.529 161.029 511.024 Q159.339 509.519 156.33 509.519 Q153.298 509.519 151.608 511.024 Q149.941 512.529 149.941 515.214 Z" fill="#000000" fill-rule="nonzero" fill-opacity="1" /><path clip-path="url(#clip510)" d="M116.886 230.867 L124.525 230.867 L124.525 204.501 L116.214 206.168 L116.214 201.909 L124.478 200.242 L129.154 200.242 L129.154 230.867 L136.793 230.867 L136.793 234.802 L116.886 234.802 L116.886 230.867 Z" fill="#000000" fill-rule="nonzero" fill-opacity="1" /><path clip-path="url(#clip510)" d="M156.237 203.321 Q152.626 203.321 150.798 206.885 Q148.992 210.427 148.992 217.557 Q148.992 224.663 150.798 228.228 Q152.626 231.77 156.237 231.77 Q159.872 231.77 161.677 228.228 Q163.506 224.663 163.506 217.557 Q163.506 210.427 161.677 206.885 Q159.872 203.321 156.237 203.321 M156.237 199.617 Q162.048 199.617 165.103 204.223 Q168.182 208.807 168.182 217.557 Q168.182 226.284 165.103 230.89 Q162.048 235.473 156.237 235.473 Q150.427 235.473 147.349 230.89 Q144.293 226.284 144.293 217.557 Q144.293 208.807 147.349 204.223 Q150.427 199.617 156.237 199.617 Z" fill="#000000" fill-rule="nonzero" fill-opacity="1" /><path clip-path="url(#clip510)" d="M19.402 1124.11 L37.2578 1124.11 L37.2578 1116.02 Q37.2578 1111.53 34.9343 1109.08 Q32.6108 1106.63 28.314 1106.63 Q24.0489 1106.63 21.7255 1109.08 Q19.402 1111.53 19.402 1116.02 L19.402 1124.11 M14.1184 1130.54 L14.1184 1116.02 Q14.1184 1108.03 17.7469 1103.96 Q21.3435 1099.85 28.314 1099.85 Q35.3481 1099.85 38.9447 1103.96 Q42.5413 1108.03 42.5413 1116.02 L42.5413 1124.11 L61.6384 1124.11 L61.6384 1130.54 L14.1184 1130.54 Z" fill="#000000" fill-rule="nonzero" fill-opacity="1" /><path clip-path="url(#clip510)" d="M30.0964 1079.99 Q30.0964 1084.7 33.7885 1087.44 Q37.4488 1090.18 43.8463 1090.18 Q50.2438 1090.18 53.9359 1087.47 Q57.5962 1084.73 57.5962 1079.99 Q57.5962 1075.31 53.9041 1072.58 Q50.212 1069.84 43.8463 1069.84 Q37.5124 1069.84 33.8203 1072.58 Q30.0964 1075.31 30.0964 1079.99 M25.1311 1079.99 Q25.1311 1072.35 30.0964 1067.99 Q35.0616 1063.63 43.8463 1063.63 Q52.5991 1063.63 57.5962 1067.99 Q62.5615 1072.35 62.5615 1079.99 Q62.5615 1087.66 57.5962 1092.02 Q52.5991 1096.35 43.8463 1096.35 Q35.0616 1096.35 30.0964 1092.02 Q25.1311 1087.66 25.1311 1079.99 Z" fill="#000000" fill-rule="nonzero" fill-opacity="1" /><path clip-path="url(#clip510)" d="M56.2912 1048.26 L75.1974 1048.26 L75.1974 1054.15 L25.9905 1054.15 L25.9905 1048.26 L31.4013 1048.26 Q28.2185 1046.41 26.6907 1043.61 Q25.1311 1040.78 25.1311 1036.86 Q25.1311 1030.37 30.2873 1026.33 Q35.4436 1022.25 43.8463 1022.25 Q52.249 1022.25 57.4052 1026.33 Q62.5615 1030.37 62.5615 1036.86 Q62.5615 1040.78 61.0337 1043.61 Q59.4741 1046.41 56.2912 1048.26 M43.8463 1028.33 Q37.3851 1028.33 33.7248 1031.01 Q30.0327 1033.65 30.0327 1038.3 Q30.0327 1042.94 33.7248 1045.62 Q37.3851 1048.26 43.8463 1048.26 Q50.3075 1048.26 53.9996 1045.62 Q57.6599 1042.94 57.6599 1038.3 Q57.6599 1033.65 53.9996 1031.01 Q50.3075 1028.33 43.8463 1028.33 Z" fill="#000000" fill-rule="nonzero" fill-opacity="1" /><path clip-path="url(#clip510)" d="M47.5702 1013.15 L25.9905 1013.15 L25.9905 1007.3 L47.3474 1007.3 Q52.4082 1007.3 54.9545 1005.32 Q57.4689 1003.35 57.4689 999.402 Q57.4689 994.659 54.4452 991.922 Q51.4215 989.153 46.2016 989.153 L25.9905 989.153 L25.9905 983.297 L61.6384 983.297 L61.6384 989.153 L56.1639 989.153 Q59.4104 991.286 61.0019 994.118 Q62.5615 996.919 62.5615 1000.64 Q62.5615 1006.79 58.742 1009.97 Q54.9226 1013.15 47.5702 1013.15 M25.1311 998.415 L25.1311 998.415 Z" fill="#000000" fill-rule="nonzero" fill-opacity="1" /><path clip-path="url(#clip510)" d="M12.1132 971.234 L12.1132 965.377 L61.6384 965.377 L61.6384 971.234 L12.1132 971.234 Z" fill="#000000" fill-rule="nonzero" fill-opacity="1" /><path clip-path="url(#clip510)" d="M43.719 936.922 Q43.719 944.02 45.3422 946.757 Q46.9655 949.495 50.8804 949.495 Q53.9996 949.495 55.8457 947.458 Q57.6599 945.389 57.6599 941.856 Q57.6599 936.986 54.2224 934.058 Q50.7531 931.098 45.0239 931.098 L43.719 931.098 L43.719 936.922 M41.3 925.241 L61.6384 925.241 L61.6384 931.098 L56.2276 931.098 Q59.4741 933.103 61.0337 936.095 Q62.5615 939.087 62.5615 943.415 Q62.5615 948.89 59.5059 952.136 Q56.4186 955.351 51.2623 955.351 Q45.2467 955.351 42.1912 951.341 Q39.1357 947.299 39.1357 939.31 L39.1357 931.098 L38.5628 931.098 Q34.5205 931.098 32.3244 933.771 Q30.0964 936.413 30.0964 941.219 Q30.0964 944.275 30.8284 947.171 Q31.5605 950.068 33.0246 952.741 L27.6137 952.741 Q26.3724 949.527 25.7677 946.503 Q25.1311 943.479 25.1311 940.615 Q25.1311 932.88 29.1415 929.061 Q33.1519 925.241 41.3 925.241 Z" fill="#000000" fill-rule="nonzero" fill-opacity="1" /><path clip-path="url(#clip510)" d="M15.869 907.386 L25.9905 907.386 L25.9905 895.323 L30.542 895.323 L30.542 907.386 L49.8937 907.386 Q54.2542 907.386 55.4955 906.208 Q56.7368 904.998 56.7368 901.338 L56.7368 895.323 L61.6384 895.323 L61.6384 901.338 Q61.6384 908.118 59.124 910.696 Q56.5777 913.274 49.8937 913.274 L30.542 913.274 L30.542 917.571 L25.9905 917.571 L25.9905 913.274 L15.869 913.274 L15.869 907.386 Z" fill="#000000" fill-rule="nonzero" fill-opacity="1" /><path clip-path="url(#clip510)" d="M25.9905 887.62 L25.9905 881.764 L61.6384 881.764 L61.6384 887.62 L25.9905 887.62 M12.1132 887.62 L12.1132 881.764 L19.5293 881.764 L19.5293 887.62 L12.1132 887.62 Z" fill="#000000" fill-rule="nonzero" fill-opacity="1" /><path clip-path="url(#clip510)" d="M30.0964 855.696 Q30.0964 860.407 33.7885 863.144 Q37.4488 865.881 43.8463 865.881 Q50.2438 865.881 53.9359 863.176 Q57.5962 860.438 57.5962 855.696 Q57.5962 851.017 53.9041 848.28 Q50.212 845.543 43.8463 845.543 Q37.5124 845.543 33.8203 848.28 Q30.0964 851.017 30.0964 855.696 M25.1311 855.696 Q25.1311 848.057 30.0964 843.697 Q35.0616 839.336 43.8463 839.336 Q52.5991 839.336 57.5962 843.697 Q62.5615 848.057 62.5615 855.696 Q62.5615 863.367 57.5962 867.727 Q52.5991 872.056 43.8463 872.056 Q35.0616 872.056 30.0964 867.727 Q25.1311 863.367 25.1311 855.696 Z" fill="#000000" fill-rule="nonzero" fill-opacity="1" /><path clip-path="url(#clip510)" d="M40.1224 799.996 L61.6384 799.996 L61.6384 805.853 L40.3133 805.853 Q35.2526 805.853 32.7381 807.826 Q30.2237 809.799 30.2237 813.746 Q30.2237 818.488 33.2474 821.226 Q36.2711 823.963 41.491 823.963 L61.6384 823.963 L61.6384 829.851 L25.9905 829.851 L25.9905 823.963 L31.5287 823.963 Q28.314 821.862 26.7225 819.03 Q25.1311 816.165 25.1311 812.441 Q25.1311 806.298 28.9505 803.147 Q32.7381 799.996 40.1224 799.996 Z" fill="#000000" fill-rule="nonzero" fill-opacity="1" /><path clip-path="url(#clip510)" d="M14.1184 767.34 L14.1184 758.683 L53.8723 737.612 L14.1184 737.612 L14.1184 731.374 L61.6384 731.374 L61.6384 740.031 L21.8846 761.102 L61.6384 761.102 L61.6384 767.34 L14.1184 767.34 Z" fill="#000000" fill-rule="nonzero" fill-opacity="1" /><path clip-path="url(#clip510)" d="M472.666 18.8205 L472.666 41.5461 L482.956 41.5461 Q488.667 41.5461 491.787 38.5889 Q494.906 35.6318 494.906 30.163 Q494.906 24.7348 491.787 21.7777 Q488.667 18.8205 482.956 18.8205 L472.666 18.8205 M464.484 12.096 L482.956 12.096 Q493.123 12.096 498.309 16.714 Q503.534 21.2916 503.534 30.163 Q503.534 39.1155 498.309 43.6931 Q493.123 48.2706 482.956 48.2706 L472.666 48.2706 L472.666 72.576 L464.484 72.576 L464.484 12.096 Z" fill="#000000" fill-rule="nonzero" fill-opacity="1" /><path clip-path="url(#clip510)" d="M550.768 14.0809 L550.768 22.0612 Q546.109 19.8332 541.977 18.7395 Q537.845 17.6457 533.997 17.6457 Q527.313 17.6457 523.667 20.2383 Q520.062 22.8309 520.062 27.611 Q520.062 31.6214 522.452 33.6873 Q524.882 35.7128 531.607 36.9686 L536.549 37.9813 Q545.704 39.7232 550.039 44.1387 Q554.414 48.5136 554.414 55.8863 Q554.414 64.6767 548.499 69.2137 Q542.625 73.7508 531.242 73.7508 Q526.948 73.7508 522.087 72.7785 Q517.267 71.8063 512.082 69.9024 L512.082 61.4765 Q517.064 64.2716 521.844 65.6895 Q526.624 67.1073 531.242 67.1073 Q538.25 67.1073 542.058 64.3527 Q545.866 61.598 545.866 56.4939 Q545.866 52.0379 543.112 49.5264 Q540.397 47.0148 534.159 45.759 L529.176 44.7868 Q520.021 42.9639 515.93 39.075 Q511.839 35.1862 511.839 28.2591 Q511.839 20.2383 517.469 15.6203 Q523.141 11.0023 533.065 11.0023 Q537.319 11.0023 541.734 11.7719 Q546.15 12.5416 550.768 14.0809 Z" fill="#000000" fill-rule="nonzero" fill-opacity="1" /><path clip-path="url(#clip510)" d="M567.174 12.096 L579.367 12.096 L594.801 53.2532 L610.316 12.096 L622.509 12.096 L622.509 72.576 L614.529 72.576 L614.529 19.4686 L598.933 60.9499 L590.71 60.9499 L575.114 19.4686 L575.114 72.576 L567.174 72.576 L567.174 12.096 Z" fill="#000000" fill-rule="nonzero" fill-opacity="1" /><path clip-path="url(#clip510)" d="M687.769 9.54393 L687.769 15.7418 L680.64 15.7418 Q676.629 15.7418 675.05 17.3622 Q673.51 18.9825 673.51 23.1955 L673.51 27.2059 L685.784 27.2059 L685.784 32.9987 L673.51 32.9987 L673.51 72.576 L666.016 72.576 L666.016 32.9987 L658.886 32.9987 L658.886 27.2059 L666.016 27.2059 L666.016 24.0462 Q666.016 16.471 669.54 13.0277 Q673.065 9.54393 680.721 9.54393 L687.769 9.54393 Z" fill="#000000" fill-rule="nonzero" fill-opacity="1" /><path clip-path="url(#clip510)" d="M694.008 27.2059 L701.461 27.2059 L701.461 72.576 L694.008 72.576 L694.008 27.2059 M694.008 9.54393 L701.461 9.54393 L701.461 18.9825 L694.008 18.9825 L694.008 9.54393 Z" fill="#000000" fill-rule="nonzero" fill-opacity="1" /><path clip-path="url(#clip510)" d="M724.43 14.324 L724.43 27.2059 L739.783 27.2059 L739.783 32.9987 L724.43 32.9987 L724.43 57.6282 Q724.43 63.1779 725.929 64.7578 Q727.468 66.3376 732.127 66.3376 L739.783 66.3376 L739.783 72.576 L732.127 72.576 Q723.498 72.576 720.217 69.3758 Q716.936 66.1351 716.936 57.6282 L716.936 32.9987 L711.467 32.9987 L711.467 27.2059 L716.936 27.2059 L716.936 14.324 L724.43 14.324 Z" fill="#000000" fill-rule="nonzero" fill-opacity="1" /><path clip-path="url(#clip510)" d="M751.49 62.2867 L760.037 62.2867 L760.037 72.576 L751.49 72.576 L751.49 62.2867 M751.49 29.6769 L760.037 29.6769 L760.037 39.9662 L751.49 39.9662 L751.49 29.6769 Z" fill="#000000" fill-rule="nonzero" fill-opacity="1" /><path clip-path="url(#clip510)" d="M842.716 48.0275 L842.716 51.6733 L808.446 51.6733 Q808.932 59.3701 813.064 63.421 Q817.236 67.4314 824.649 67.4314 Q828.943 67.4314 832.954 66.3781 Q837.005 65.3249 840.975 63.2184 L840.975 70.267 Q836.964 71.9684 832.751 72.8596 Q828.538 73.7508 824.204 73.7508 Q813.347 73.7508 806.987 67.4314 Q800.668 61.1119 800.668 50.3365 Q800.668 39.1965 806.663 32.6746 Q812.699 26.1121 822.908 26.1121 Q832.063 26.1121 837.369 32.0264 Q842.716 37.9003 842.716 48.0275 M835.263 45.84 Q835.182 39.7232 831.82 36.0774 Q828.498 32.4315 822.989 32.4315 Q816.75 32.4315 812.983 35.9558 Q809.256 39.4801 808.689 45.8805 L835.263 45.84 Z" fill="#000000" fill-rule="nonzero" fill-opacity="1" /><path clip-path="url(#clip510)" d="M891.206 27.2059 L874.8 49.2833 L892.056 72.576 L883.266 72.576 L870.06 54.752 L856.854 72.576 L848.064 72.576 L865.685 48.8377 L849.562 27.2059 L858.353 27.2059 L870.384 43.369 L882.415 27.2059 L891.206 27.2059 Z" fill="#000000" fill-rule="nonzero" fill-opacity="1" /><path clip-path="url(#clip510)" d="M909.799 65.7705 L909.799 89.8329 L902.305 89.8329 L902.305 27.2059 L909.799 27.2059 L909.799 34.0924 Q912.149 30.0415 915.714 28.0971 Q919.319 26.1121 924.302 26.1121 Q932.565 26.1121 937.71 32.6746 Q942.895 39.2371 942.895 49.9314 Q942.895 60.6258 937.71 67.1883 Q932.565 73.7508 924.302 73.7508 Q919.319 73.7508 915.714 71.8063 Q912.149 69.8214 909.799 65.7705 M935.158 49.9314 Q935.158 41.7081 931.755 37.0496 Q928.393 32.3505 922.479 32.3505 Q916.564 32.3505 913.162 37.0496 Q909.799 41.7081 909.799 49.9314 Q909.799 58.1548 913.162 62.8538 Q916.564 67.5124 922.479 67.5124 Q928.393 67.5124 931.755 62.8538 Q935.158 58.1548 935.158 49.9314 Z" fill="#000000" fill-rule="nonzero" fill-opacity="1" /><path clip-path="url(#clip510)" d="M972.831 32.4315 Q966.836 32.4315 963.352 37.1306 Q959.869 41.7891 959.869 49.9314 Q959.869 58.0738 963.312 62.7728 Q966.796 67.4314 972.831 67.4314 Q978.786 67.4314 982.27 62.7323 Q985.754 58.0333 985.754 49.9314 Q985.754 41.8701 982.27 37.1711 Q978.786 32.4315 972.831 32.4315 M972.831 26.1121 Q982.554 26.1121 988.103 32.4315 Q993.653 38.7509 993.653 49.9314 Q993.653 61.0714 988.103 67.4314 Q982.554 73.7508 972.831 73.7508 Q963.069 73.7508 957.519 67.4314 Q952.01 61.0714 952.01 49.9314 Q952.01 38.7509 957.519 32.4315 Q963.069 26.1121 972.831 26.1121 Z" fill="#000000" fill-rule="nonzero" fill-opacity="1" /><path clip-path="url(#clip510)" d="M1043.72 45.1919 L1043.72 72.576 L1036.27 72.576 L1036.27 45.4349 Q1036.27 38.994 1033.76 35.7938 Q1031.25 32.5936 1026.22 32.5936 Q1020.19 32.5936 1016.7 36.4419 Q1013.22 40.2903 1013.22 46.9338 L1013.22 72.576 L1005.72 72.576 L1005.72 27.2059 L1013.22 27.2059 L1013.22 34.2544 Q1015.89 30.163 1019.5 28.1376 Q1023.14 26.1121 1027.88 26.1121 Q1035.7 26.1121 1039.71 30.9732 Q1043.72 35.7938 1043.72 45.1919 Z" fill="#000000" fill-rule="nonzero" fill-opacity="1" /><path clip-path="url(#clip510)" d="M1097.4 48.0275 L1097.4 51.6733 L1063.13 51.6733 Q1063.61 59.3701 1067.74 63.421 Q1071.92 67.4314 1079.33 67.4314 Q1083.62 67.4314 1087.63 66.3781 Q1091.69 65.3249 1095.65 63.2184 L1095.65 70.267 Q1091.64 71.9684 1087.43 72.8596 Q1083.22 73.7508 1078.88 73.7508 Q1068.03 73.7508 1061.67 67.4314 Q1055.35 61.1119 1055.35 50.3365 Q1055.35 39.1965 1061.34 32.6746 Q1067.38 26.1121 1077.59 26.1121 Q1086.74 26.1121 1092.05 32.0264 Q1097.4 37.9003 1097.4 48.0275 M1089.94 45.84 Q1089.86 39.7232 1086.5 36.0774 Q1083.18 32.4315 1077.67 32.4315 Q1071.43 32.4315 1067.66 35.9558 Q1063.94 39.4801 1063.37 45.8805 L1089.94 45.84 Z" fill="#000000" fill-rule="nonzero" fill-opacity="1" /><path clip-path="url(#clip510)" d="M1147.34 45.1919 L1147.34 72.576 L1139.89 72.576 L1139.89 45.4349 Q1139.89 38.994 1137.38 35.7938 Q1134.87 32.5936 1129.84 32.5936 Q1123.81 32.5936 1120.32 36.4419 Q1116.84 40.2903 1116.84 46.9338 L1116.84 72.576 L1109.35 72.576 L1109.35 27.2059 L1116.84 27.2059 L1116.84 34.2544 Q1119.51 30.163 1123.12 28.1376 Q1126.77 26.1121 1131.51 26.1121 Q1139.32 26.1121 1143.33 30.9732 Q1147.34 35.7938 1147.34 45.1919 Z" fill="#000000" fill-rule="nonzero" fill-opacity="1" /><path clip-path="url(#clip510)" d="M1169.58 14.324 L1169.58 27.2059 L1184.94 27.2059 L1184.94 32.9987 L1169.58 32.9987 L1169.58 57.6282 Q1169.58 63.1779 1171.08 64.7578 Q1172.62 66.3376 1177.28 66.3376 L1184.94 66.3376 L1184.94 72.576 L1177.28 72.576 Q1168.65 72.576 1165.37 69.3758 Q1162.09 66.1351 1162.09 57.6282 L1162.09 32.9987 L1156.62 32.9987 L1156.62 27.2059 L1162.09 27.2059 L1162.09 14.324 L1169.58 14.324 Z" fill="#000000" fill-rule="nonzero" fill-opacity="1" /><path clip-path="url(#clip510)" d="M1194.74 27.2059 L1202.19 27.2059 L1202.19 72.576 L1194.74 72.576 L1194.74 27.2059 M1194.74 9.54393 L1202.19 9.54393 L1202.19 18.9825 L1194.74 18.9825 L1194.74 9.54393 Z" fill="#000000" fill-rule="nonzero" fill-opacity="1" /><path clip-path="url(#clip510)" d="M1238.41 49.7694 Q1229.38 49.7694 1225.89 51.8354 Q1222.41 53.9013 1222.41 58.8839 Q1222.41 62.8538 1225 65.2034 Q1227.63 67.5124 1232.13 67.5124 Q1238.33 67.5124 1242.05 63.1374 Q1245.82 58.7219 1245.82 51.4303 L1245.82 49.7694 L1238.41 49.7694 M1253.28 46.6907 L1253.28 72.576 L1245.82 72.576 L1245.82 65.6895 Q1243.27 69.8214 1239.46 71.8063 Q1235.65 73.7508 1230.14 73.7508 Q1223.18 73.7508 1219.05 69.8619 Q1214.95 65.9325 1214.95 59.3701 Q1214.95 51.7138 1220.06 47.825 Q1225.2 43.9361 1235.37 43.9361 L1245.82 43.9361 L1245.82 43.2069 Q1245.82 38.0623 1242.42 35.2672 Q1239.06 32.4315 1232.94 32.4315 Q1229.05 32.4315 1225.36 33.3632 Q1221.68 34.295 1218.28 36.1584 L1218.28 29.2718 Q1222.37 27.692 1226.22 26.9223 Q1230.06 26.1121 1233.71 26.1121 Q1243.55 26.1121 1248.41 31.2163 Q1253.28 36.3204 1253.28 46.6907 Z" fill="#000000" fill-rule="nonzero" fill-opacity="1" /><path clip-path="url(#clip510)" d="M1268.63 9.54393 L1276.08 9.54393 L1276.08 72.576 L1268.63 72.576 L1268.63 9.54393 Z" fill="#000000" fill-rule="nonzero" fill-opacity="1" /><path clip-path="url(#clip510)" d="M1347.9 49.3643 Q1347.9 41.2625 1344.54 36.8065 Q1341.22 32.3505 1335.18 32.3505 Q1329.19 32.3505 1325.83 36.8065 Q1322.51 41.2625 1322.51 49.3643 Q1322.51 57.4256 1325.83 61.8816 Q1329.19 66.3376 1335.18 66.3376 Q1341.22 66.3376 1344.54 61.8816 Q1347.9 57.4256 1347.9 49.3643 M1355.36 66.9452 Q1355.36 78.5308 1350.21 84.1616 Q1345.07 89.8329 1334.46 89.8329 Q1330.53 89.8329 1327.04 89.2252 Q1323.56 88.6581 1320.28 87.4428 L1320.28 80.1917 Q1323.56 81.9741 1326.76 82.8248 Q1329.96 83.6755 1333.28 83.6755 Q1340.61 83.6755 1344.26 79.8271 Q1347.9 76.0193 1347.9 68.282 L1347.9 64.5957 Q1345.6 68.6061 1341.99 70.5911 Q1338.39 72.576 1333.36 72.576 Q1325.02 72.576 1319.91 66.2161 Q1314.81 59.8562 1314.81 49.3643 Q1314.81 38.832 1319.91 32.472 Q1325.02 26.1121 1333.36 26.1121 Q1338.39 26.1121 1341.99 28.0971 Q1345.6 30.082 1347.9 34.0924 L1347.9 27.2059 L1355.36 27.2059 L1355.36 66.9452 Z" fill="#000000" fill-rule="nonzero" fill-opacity="1" /><path clip-path="url(#clip510)" d="M1397 34.1734 Q1395.75 33.4443 1394.25 33.1202 Q1392.79 32.7556 1391.01 32.7556 Q1384.69 32.7556 1381.28 36.8875 Q1377.92 40.9789 1377.92 48.6757 L1377.92 72.576 L1370.43 72.576 L1370.43 27.2059 L1377.92 27.2059 L1377.92 34.2544 Q1380.27 30.1225 1384.04 28.1376 Q1387.81 26.1121 1393.19 26.1121 Q1393.96 26.1121 1394.9 26.2337 Q1395.83 26.3147 1396.96 26.5172 L1397 34.1734 Z" fill="#000000" fill-rule="nonzero" fill-opacity="1" /><path clip-path="url(#clip510)" d="M1420.58 32.4315 Q1414.58 32.4315 1411.1 37.1306 Q1407.62 41.7891 1407.62 49.9314 Q1407.62 58.0738 1411.06 62.7728 Q1414.54 67.4314 1420.58 67.4314 Q1426.53 67.4314 1430.02 62.7323 Q1433.5 58.0333 1433.5 49.9314 Q1433.5 41.8701 1430.02 37.1711 Q1426.53 32.4315 1420.58 32.4315 M1420.58 26.1121 Q1430.3 26.1121 1435.85 32.4315 Q1441.4 38.7509 1441.4 49.9314 Q1441.4 61.0714 1435.85 67.4314 Q1430.3 73.7508 1420.58 73.7508 Q1410.82 73.7508 1405.27 67.4314 Q1399.76 61.0714 1399.76 49.9314 Q1399.76 38.7509 1405.27 32.4315 Q1410.82 26.1121 1420.58 26.1121 Z" fill="#000000" fill-rule="nonzero" fill-opacity="1" /><path clip-path="url(#clip510)" d="M1449.42 27.2059 L1456.87 27.2059 L1466.19 62.6108 L1475.47 27.2059 L1484.26 27.2059 L1493.58 62.6108 L1502.85 27.2059 L1510.31 27.2059 L1498.44 72.576 L1489.65 72.576 L1479.88 35.3887 L1470.08 72.576 L1461.29 72.576 L1449.42 27.2059 Z" fill="#000000" fill-rule="nonzero" fill-opacity="1" /><path clip-path="url(#clip510)" d="M1528.98 14.324 L1528.98 27.2059 L1544.33 27.2059 L1544.33 32.9987 L1528.98 32.9987 L1528.98 57.6282 Q1528.98 63.1779 1530.48 64.7578 Q1532.02 66.3376 1536.68 66.3376 L1544.33 66.3376 L1544.33 72.576 L1536.68 72.576 Q1528.05 72.576 1524.77 69.3758 Q1521.49 66.1351 1521.49 57.6282 L1521.49 32.9987 L1516.02 32.9987 L1516.02 27.2059 L1521.49 27.2059 L1521.49 14.324 L1528.98 14.324 Z" fill="#000000" fill-rule="nonzero" fill-opacity="1" /><path clip-path="url(#clip510)" d="M1591.85 45.1919 L1591.85 72.576 L1584.4 72.576 L1584.4 45.4349 Q1584.4 38.994 1581.88 35.7938 Q1579.37 32.5936 1574.35 32.5936 Q1568.31 32.5936 1564.83 36.4419 Q1561.35 40.2903 1561.35 46.9338 L1561.35 72.576 L1553.85 72.576 L1553.85 9.54393 L1561.35 9.54393 L1561.35 34.2544 Q1564.02 30.163 1567.63 28.1376 Q1571.27 26.1121 1576.01 26.1121 Q1583.83 26.1121 1587.84 30.9732 Q1591.85 35.7938 1591.85 45.1919 Z" fill="#000000" fill-rule="nonzero" fill-opacity="1" /><path clip-path="url(#clip510)" d="M1628.75 27.2059 L1636.21 27.2059 L1645.52 62.6108 L1654.8 27.2059 L1663.59 27.2059 L1672.91 62.6108 L1682.19 27.2059 L1689.64 27.2059 L1677.77 72.576 L1668.98 72.576 L1659.22 35.3887 L1649.41 72.576 L1640.62 72.576 L1628.75 27.2059 Z" fill="#000000" fill-rule="nonzero" fill-opacity="1" /><path clip-path="url(#clip510)" d="M1700.94 27.2059 L1708.39 27.2059 L1708.39 72.576 L1700.94 72.576 L1700.94 27.2059 M1700.94 9.54393 L1708.39 9.54393 L1708.39 18.9825 L1700.94 18.9825 L1700.94 9.54393 Z" fill="#000000" fill-rule="nonzero" fill-opacity="1" /><path clip-path="url(#clip510)" d="M1731.36 14.324 L1731.36 27.2059 L1746.72 27.2059 L1746.72 32.9987 L1731.36 32.9987 L1731.36 57.6282 Q1731.36 63.1779 1732.86 64.7578 Q1734.4 66.3376 1739.06 66.3376 L1746.72 66.3376 L1746.72 72.576 L1739.06 72.576 Q1730.43 72.576 1727.15 69.3758 Q1723.87 66.1351 1723.87 57.6282 L1723.87 32.9987 L1718.4 32.9987 L1718.4 27.2059 L1723.87 27.2059 L1723.87 14.324 L1731.36 14.324 Z" fill="#000000" fill-rule="nonzero" fill-opacity="1" /><path clip-path="url(#clip510)" d="M1794.23 45.1919 L1794.23 72.576 L1786.78 72.576 L1786.78 45.4349 Q1786.78 38.994 1784.27 35.7938 Q1781.76 32.5936 1776.73 32.5936 Q1770.7 32.5936 1767.21 36.4419 Q1763.73 40.2903 1763.73 46.9338 L1763.73 72.576 L1756.24 72.576 L1756.24 9.54393 L1763.73 9.54393 L1763.73 34.2544 Q1766.4 30.163 1770.01 28.1376 Q1773.65 26.1121 1778.39 26.1121 Q1786.21 26.1121 1790.22 30.9732 Q1794.23 35.7938 1794.23 45.1919 Z" fill="#000000" fill-rule="nonzero" fill-opacity="1" /><path clip-path="url(#clip510)" d="M1834.7 54.671 L1834.7 27.2059 L1842.16 27.2059 L1842.16 54.3874 Q1842.16 60.8284 1844.67 64.0691 Q1847.18 67.2693 1852.2 67.2693 Q1858.24 67.2693 1861.72 63.421 Q1865.25 59.5726 1865.25 52.9291 L1865.25 27.2059 L1872.7 27.2059 L1872.7 72.576 L1865.25 72.576 L1865.25 65.6084 Q1862.53 69.7404 1858.93 71.7658 Q1855.36 73.7508 1850.62 73.7508 Q1842.8 73.7508 1838.75 68.8897 Q1834.7 64.0286 1834.7 54.671 M1853.46 26.1121 L1853.46 26.1121 Z" fill="#000000" fill-rule="nonzero" fill-opacity="1" /><path clip-path="url(#clip510)" d="M1925.77 45.1919 L1925.77 72.576 L1918.31 72.576 L1918.31 45.4349 Q1918.31 38.994 1915.8 35.7938 Q1913.29 32.5936 1908.27 32.5936 Q1902.23 32.5936 1898.75 36.4419 Q1895.26 40.2903 1895.26 46.9338 L1895.26 72.576 L1887.77 72.576 L1887.77 27.2059 L1895.26 27.2059 L1895.26 34.2544 Q1897.94 30.163 1901.54 28.1376 Q1905.19 26.1121 1909.93 26.1121 Q1917.75 26.1121 1921.76 30.9732 Q1925.77 35.7938 1925.77 45.1919 Z" fill="#000000" fill-rule="nonzero" fill-opacity="1" /><path clip-path="url(#clip510)" d="M1940.35 9.54393 L1947.84 9.54393 L1947.84 46.7717 L1970.08 27.2059 L1979.6 27.2059 L1955.54 48.4326 L1980.62 72.576 L1970.89 72.576 L1947.84 50.4176 L1947.84 72.576 L1940.35 72.576 L1940.35 9.54393 Z" fill="#000000" fill-rule="nonzero" fill-opacity="1" /><path clip-path="url(#clip510)" d="M2026.39 45.1919 L2026.39 72.576 L2018.94 72.576 L2018.94 45.4349 Q2018.94 38.994 2016.43 35.7938 Q2013.91 32.5936 2008.89 32.5936 Q2002.85 32.5936 1999.37 36.4419 Q1995.89 40.2903 1995.89 46.9338 L1995.89 72.576 L1988.39 72.576 L1988.39 27.2059 L1995.89 27.2059 L1995.89 34.2544 Q1998.56 30.163 2002.17 28.1376 Q2005.81 26.1121 2010.55 26.1121 Q2018.37 26.1121 2022.38 30.9732 Q2026.39 35.7938 2026.39 45.1919 Z" fill="#000000" fill-rule="nonzero" fill-opacity="1" /><path clip-path="url(#clip510)" d="M2058.84 32.4315 Q2052.84 32.4315 2049.36 37.1306 Q2045.88 41.7891 2045.88 49.9314 Q2045.88 58.0738 2049.32 62.7728 Q2052.8 67.4314 2058.84 67.4314 Q2064.79 67.4314 2068.28 62.7323 Q2071.76 58.0333 2071.76 49.9314 Q2071.76 41.8701 2068.28 37.1711 Q2064.79 32.4315 2058.84 32.4315 M2058.84 26.1121 Q2068.56 26.1121 2074.11 32.4315 Q2079.66 38.7509 2079.66 49.9314 Q2079.66 61.0714 2074.11 67.4314 Q2068.56 73.7508 2058.84 73.7508 Q2049.08 73.7508 2043.53 67.4314 Q2038.02 61.0714 2038.02 49.9314 Q2038.02 38.7509 2043.53 32.4315 Q2049.08 26.1121 2058.84 26.1121 Z" fill="#000000" fill-rule="nonzero" fill-opacity="1" /><path clip-path="url(#clip510)" d="M2087.68 27.2059 L2095.13 27.2059 L2104.45 62.6108 L2113.73 27.2059 L2122.52 27.2059 L2131.84 62.6108 L2141.11 27.2059 L2148.57 27.2059 L2136.7 72.576 L2127.91 72.576 L2118.14 35.3887 L2108.34 72.576 L2099.55 72.576 L2087.68 27.2059 Z" fill="#000000" fill-rule="nonzero" fill-opacity="1" /><path clip-path="url(#clip510)" d="M2197.58 45.1919 L2197.58 72.576 L2190.13 72.576 L2190.13 45.4349 Q2190.13 38.994 2187.62 35.7938 Q2185.11 32.5936 2180.08 32.5936 Q2174.05 32.5936 2170.56 36.4419 Q2167.08 40.2903 2167.08 46.9338 L2167.08 72.576 L2159.58 72.576 L2159.58 27.2059 L2167.08 27.2059 L2167.08 34.2544 Q2169.75 30.163 2173.36 28.1376 Q2177 26.1121 2181.74 26.1121 Q2189.56 26.1121 2193.57 30.9732 Q2197.58 35.7938 2197.58 45.1919 Z" fill="#000000" fill-rule="nonzero" fill-opacity="1" /><path clip-path="url(#clip510)" d="M2265.11 34.1734 Q2263.85 33.4443 2262.36 33.1202 Q2260.9 32.7556 2259.12 32.7556 Q2252.8 32.7556 2249.39 36.8875 Q2246.03 40.9789 2246.03 48.6757 L2246.03 72.576 L2238.54 72.576 L2238.54 27.2059 L2246.03 27.2059 L2246.03 34.2544 Q2248.38 30.1225 2252.15 28.1376 Q2255.91 26.1121 2261.3 26.1121 Q2262.07 26.1121 2263 26.2337 Q2263.94 26.3147 2265.07 26.5172 L2265.11 34.1734 Z" fill="#000000" fill-rule="nonzero" fill-opacity="1" /><path clip-path="url(#clip510)" d="M2290.83 9.62495 Q2285.41 18.942 2282.77 28.0566 Q2280.14 37.1711 2280.14 46.5287 Q2280.14 55.8863 2282.77 65.0818 Q2285.45 74.2369 2290.83 83.5134 L2284.35 83.5134 Q2278.28 73.9938 2275.24 64.7983 Q2272.24 55.6027 2272.24 46.5287 Q2272.24 37.4952 2275.24 28.3401 Q2278.24 19.1851 2284.35 9.62495 L2290.83 9.62495 Z" fill="#000000" fill-rule="nonzero" fill-opacity="1" /><path clip-path="url(#clip510)" d="M2305.62 12.096 L2316.64 12.096 L2343.45 62.6918 L2343.45 12.096 L2351.39 12.096 L2351.39 72.576 L2340.38 72.576 L2313.56 21.9802 L2313.56 72.576 L2305.62 72.576 L2305.62 12.096 Z" fill="#000000" fill-rule="nonzero" fill-opacity="1" /><path clip-path="url(#clip510)" d="M2366.18 9.62495 L2372.66 9.62495 Q2378.74 19.1851 2381.74 28.3401 Q2384.77 37.4952 2384.77 46.5287 Q2384.77 55.6027 2381.74 64.7983 Q2378.74 73.9938 2372.66 83.5134 L2366.18 83.5134 Q2371.57 74.2369 2374.2 65.0818 Q2376.87 55.8863 2376.87 46.5287 Q2376.87 37.1711 2374.2 28.0566 Q2371.57 18.942 2366.18 9.62495 Z" fill="#000000" fill-rule="nonzero" fill-opacity="1" /><polyline clip-path="url(#clip511)" style="stroke:#000000; stroke-linecap:round; stroke-linejoin:round; stroke-width:8; stroke-opacity:1; fill:none" stroke-dasharray="32, 20" points="277.339,1671.97 353.825,1651.6 430.311,1626.27 506.797,1595.03 583.283,1556.89 659.769,1510.92 736.255,1456.31 812.741,1392.61 889.227,1319.83 965.713,1238.62 1042.2,1150.38 1118.68,1057.21 1195.17,961.747 1271.66,866.954 1348.14,775.726 1424.63,690.408 1501.11,612.749 1577.6,543.902 1654.09,484.286 1730.57,433.596 1807.06,391.23 1883.54,356.243 1960.03,327.615 2036.52,304.567 2113,286.252 2189.49,271.731 2265.97,260.081 2342.46,250.854 2418.95,243.61 2495.43,237.934 2571.92,233.469 "/>
<circle clip-path="url(#clip511)" cx="277.339" cy="1688.65" r="14.4" fill="#e26f46" fill-rule="evenodd" fill-opacity="0.6" stroke="#000000" stroke-opacity="0.6" stroke-width="3.84"/>
<circle clip-path="url(#clip511)" cx="353.825" cy="1640.04" r="14.4" fill="#e26f46" fill-rule="evenodd" fill-opacity="0.6" stroke="#000000" stroke-opacity="0.6" stroke-width="3.84"/>
<circle clip-path="url(#clip511)" cx="430.311" cy="1640.74" r="14.4" fill="#e26f46" fill-rule="evenodd" fill-opacity="0.6" stroke="#000000" stroke-opacity="0.6" stroke-width="3.84"/>
<circle clip-path="url(#clip511)" cx="506.797" cy="1609.33" r="14.4" fill="#e26f46" fill-rule="evenodd" fill-opacity="0.6" stroke="#000000" stroke-opacity="0.6" stroke-width="3.84"/>
<circle clip-path="url(#clip511)" cx="583.283" cy="1519.4" r="14.4" fill="#e26f46" fill-rule="evenodd" fill-opacity="0.6" stroke="#000000" stroke-opacity="0.6" stroke-width="3.84"/>
<circle clip-path="url(#clip511)" cx="659.769" cy="1489.02" r="14.4" fill="#e26f46" fill-rule="evenodd" fill-opacity="0.6" stroke="#000000" stroke-opacity="0.6" stroke-width="3.84"/>
<circle clip-path="url(#clip511)" cx="736.255" cy="1495.79" r="14.4" fill="#e26f46" fill-rule="evenodd" fill-opacity="0.6" stroke="#000000" stroke-opacity="0.6" stroke-width="3.84"/>
<circle clip-path="url(#clip511)" cx="812.741" cy="1460.1" r="14.4" fill="#e26f46" fill-rule="evenodd" fill-opacity="0.6" stroke="#000000" stroke-opacity="0.6" stroke-width="3.84"/>
<circle clip-path="url(#clip511)" cx="889.227" cy="1416.94" r="14.4" fill="#e26f46" fill-rule="evenodd" fill-opacity="0.6" stroke="#000000" stroke-opacity="0.6" stroke-width="3.84"/>
<circle clip-path="url(#clip511)" cx="965.713" cy="1236.61" r="14.4" fill="#e26f46" fill-rule="evenodd" fill-opacity="0.6" stroke="#000000" stroke-opacity="0.6" stroke-width="3.84"/>
<circle clip-path="url(#clip511)" cx="1042.2" cy="1188.28" r="14.4" fill="#e26f46" fill-rule="evenodd" fill-opacity="0.6" stroke="#000000" stroke-opacity="0.6" stroke-width="3.84"/>
<circle clip-path="url(#clip511)" cx="1118.68" cy="1018.61" r="14.4" fill="#e26f46" fill-rule="evenodd" fill-opacity="0.6" stroke="#000000" stroke-opacity="0.6" stroke-width="3.84"/>
<circle clip-path="url(#clip511)" cx="1195.17" cy="941.819" r="14.4" fill="#e26f46" fill-rule="evenodd" fill-opacity="0.6" stroke="#000000" stroke-opacity="0.6" stroke-width="3.84"/>
<circle clip-path="url(#clip511)" cx="1271.66" cy="885.117" r="14.4" fill="#e26f46" fill-rule="evenodd" fill-opacity="0.6" stroke="#000000" stroke-opacity="0.6" stroke-width="3.84"/>
<circle clip-path="url(#clip511)" cx="1348.14" cy="751.975" r="14.4" fill="#e26f46" fill-rule="evenodd" fill-opacity="0.6" stroke="#000000" stroke-opacity="0.6" stroke-width="3.84"/>
<circle clip-path="url(#clip511)" cx="1424.63" cy="623.937" r="14.4" fill="#e26f46" fill-rule="evenodd" fill-opacity="0.6" stroke="#000000" stroke-opacity="0.6" stroke-width="3.84"/>
<circle clip-path="url(#clip511)" cx="1501.11" cy="617.024" r="14.4" fill="#e26f46" fill-rule="evenodd" fill-opacity="0.6" stroke="#000000" stroke-opacity="0.6" stroke-width="3.84"/>
<circle clip-path="url(#clip511)" cx="1577.6" cy="602.352" r="14.4" fill="#e26f46" fill-rule="evenodd" fill-opacity="0.6" stroke="#000000" stroke-opacity="0.6" stroke-width="3.84"/>
<circle clip-path="url(#clip511)" cx="1654.09" cy="429.264" r="14.4" fill="#e26f46" fill-rule="evenodd" fill-opacity="0.6" stroke="#000000" stroke-opacity="0.6" stroke-width="3.84"/>
<circle clip-path="url(#clip511)" cx="1730.57" cy="438.032" r="14.4" fill="#e26f46" fill-rule="evenodd" fill-opacity="0.6" stroke="#000000" stroke-opacity="0.6" stroke-width="3.84"/>
<circle clip-path="url(#clip511)" cx="1807.06" cy="454.742" r="14.4" fill="#e26f46" fill-rule="evenodd" fill-opacity="0.6" stroke="#000000" stroke-opacity="0.6" stroke-width="3.84"/>
<circle clip-path="url(#clip511)" cx="1883.54" cy="423.413" r="14.4" fill="#e26f46" fill-rule="evenodd" fill-opacity="0.6" stroke="#000000" stroke-opacity="0.6" stroke-width="3.84"/>
<circle clip-path="url(#clip511)" cx="1960.03" cy="267.861" r="14.4" fill="#e26f46" fill-rule="evenodd" fill-opacity="0.6" stroke="#000000" stroke-opacity="0.6" stroke-width="3.84"/>
<circle clip-path="url(#clip511)" cx="2036.52" cy="200.477" r="14.4" fill="#e26f46" fill-rule="evenodd" fill-opacity="0.6" stroke="#000000" stroke-opacity="0.6" stroke-width="3.84"/>
<circle clip-path="url(#clip511)" cx="2113" cy="295.742" r="14.4" fill="#e26f46" fill-rule="evenodd" fill-opacity="0.6" stroke="#000000" stroke-opacity="0.6" stroke-width="3.84"/>
<circle clip-path="url(#clip511)" cx="2189.49" cy="286.003" r="14.4" fill="#e26f46" fill-rule="evenodd" fill-opacity="0.6" stroke="#000000" stroke-opacity="0.6" stroke-width="3.84"/>
<circle clip-path="url(#clip511)" cx="2265.97" cy="261.94" r="14.4" fill="#e26f46" fill-rule="evenodd" fill-opacity="0.6" stroke="#000000" stroke-opacity="0.6" stroke-width="3.84"/>
<circle clip-path="url(#clip511)" cx="2342.46" cy="246.042" r="14.4" fill="#e26f46" fill-rule="evenodd" fill-opacity="0.6" stroke="#000000" stroke-opacity="0.6" stroke-width="3.84"/>
<circle clip-path="url(#clip511)" cx="2418.95" cy="287.954" r="14.4" fill="#e26f46" fill-rule="evenodd" fill-opacity="0.6" stroke="#000000" stroke-opacity="0.6" stroke-width="3.84"/>
<circle clip-path="url(#clip511)" cx="2495.43" cy="193.582" r="14.4" fill="#e26f46" fill-rule="evenodd" fill-opacity="0.6" stroke="#000000" stroke-opacity="0.6" stroke-width="3.84"/>
<circle clip-path="url(#clip511)" cx="2571.92" cy="173.254" r="14.4" fill="#e26f46" fill-rule="evenodd" fill-opacity="0.6" stroke="#000000" stroke-opacity="0.6" stroke-width="3.84"/>
<polyline clip-path="url(#clip511)" style="stroke:#ff0000; stroke-linecap:round; stroke-linejoin:round; stroke-width:8; stroke-opacity:1; fill:none" points="277.339,1671.97 353.825,1653.13 430.311,1629.95 506.797,1601.55 583.283,1566.97 659.769,1525.1 736.255,1474.77 812.741,1414.61 889.227,1343.25 965.713,1259.76 1042.2,1164.84 1118.68,1062.15 1195.17,957.69 1271.66,857.923 1348.14,767.221 1424.63,686.73 1501.11,615.301 1577.6,551.517 1654.09,494.573 1730.57,444.098 1807.06,399.942 1883.54,361.982 1960.03,329.989 2036.52,303.57 2113,282.177 2189.49,265.163 2265.97,251.841 2342.46,241.544 2418.95,233.669 2495.43,227.698 2571.92,223.2 "/>
<path clip-path="url(#clip510)" d="M289.577 388.696 L753.912 388.696 L753.912 181.336 L289.577 181.336  Z" fill="#ffffff" fill-rule="evenodd" fill-opacity="1"/>
<polyline clip-path="url(#clip510)" style="stroke:#000000; stroke-linecap:round; stroke-linejoin:round; stroke-width:4; stroke-opacity:1; fill:none" points="289.577,388.696 753.912,388.696 753.912,181.336 289.577,181.336 289.577,388.696 "/>
<polyline clip-path="url(#clip510)" style="stroke:#000000; stroke-linecap:round; stroke-linejoin:round; stroke-width:8; stroke-opacity:1; fill:none" stroke-dasharray="32, 20" points="316.602,233.176 478.752,233.176 "/>
<path clip-path="url(#clip510)" d="M505.777 215.896 L535.013 215.896 L535.013 219.831 L522.745 219.831 L522.745 250.456 L518.046 250.456 L518.046 219.831 L505.777 219.831 L505.777 215.896 Z" fill="#000000" fill-rule="nonzero" fill-opacity="1" /><path clip-path="url(#clip510)" d="M547.397 228.512 Q546.68 228.095 545.823 227.91 Q544.99 227.702 543.972 227.702 Q540.36 227.702 538.416 230.063 Q536.495 232.401 536.495 236.799 L536.495 250.456 L532.212 250.456 L532.212 224.531 L536.495 224.531 L536.495 228.558 Q537.837 226.197 539.99 225.063 Q542.143 223.906 545.221 223.906 Q545.661 223.906 546.194 223.975 Q546.726 224.021 547.374 224.137 L547.397 228.512 Z" fill="#000000" fill-rule="nonzero" fill-opacity="1" /><path clip-path="url(#clip510)" d="M551.425 240.225 L551.425 224.531 L555.684 224.531 L555.684 240.063 Q555.684 243.743 557.12 245.595 Q558.555 247.424 561.425 247.424 Q564.874 247.424 566.865 245.225 Q568.879 243.026 568.879 239.229 L568.879 224.531 L573.138 224.531 L573.138 250.456 L568.879 250.456 L568.879 246.475 Q567.328 248.836 565.268 249.993 Q563.231 251.128 560.522 251.128 Q556.055 251.128 553.74 248.35 Q551.425 245.572 551.425 240.225 M562.143 223.906 L562.143 223.906 Z" fill="#000000" fill-rule="nonzero" fill-opacity="1" /><path clip-path="url(#clip510)" d="M604.087 236.429 L604.087 238.512 L584.504 238.512 Q584.781 242.91 587.143 245.225 Q589.527 247.516 593.763 247.516 Q596.217 247.516 598.508 246.915 Q600.823 246.313 603.092 245.109 L603.092 249.137 Q600.8 250.109 598.393 250.618 Q595.985 251.128 593.508 251.128 Q587.305 251.128 583.67 247.516 Q580.059 243.905 580.059 237.748 Q580.059 231.382 583.485 227.655 Q586.934 223.906 592.768 223.906 Q597.999 223.906 601.031 227.285 Q604.087 230.642 604.087 236.429 M599.828 235.179 Q599.781 231.683 597.86 229.6 Q595.962 227.517 592.814 227.517 Q589.249 227.517 587.096 229.53 Q584.967 231.544 584.643 235.202 L599.828 235.179 Z" fill="#000000" fill-rule="nonzero" fill-opacity="1" /><circle clip-path="url(#clip510)" cx="397.677" cy="285.016" r="20.48" fill="#e26f46" fill-rule="evenodd" fill-opacity="0.6" stroke="#000000" stroke-opacity="0.6" stroke-width="5.46133"/>
<path clip-path="url(#clip510)" d="M521.796 270.908 Q516.703 270.908 513.694 274.704 Q510.708 278.5 510.708 285.051 Q510.708 291.579 513.694 295.375 Q516.703 299.171 521.796 299.171 Q526.888 299.171 529.851 295.375 Q532.837 291.579 532.837 285.051 Q532.837 278.5 529.851 274.704 Q526.888 270.908 521.796 270.908 M521.796 267.111 Q529.064 267.111 533.416 271.996 Q537.768 276.857 537.768 285.051 Q537.768 293.222 533.416 298.106 Q529.064 302.968 521.796 302.968 Q514.504 302.968 510.129 298.106 Q505.777 293.245 505.777 285.051 Q505.777 276.857 510.129 271.996 Q514.504 267.111 521.796 267.111 Z" fill="#000000" fill-rule="nonzero" fill-opacity="1" /><path clip-path="url(#clip510)" d="M563.508 289.357 Q563.508 284.657 561.564 281.995 Q559.643 279.31 556.263 279.31 Q552.883 279.31 550.939 281.995 Q549.018 284.657 549.018 289.357 Q549.018 294.056 550.939 296.741 Q552.883 299.403 556.263 299.403 Q559.643 299.403 561.564 296.741 Q563.508 294.056 563.508 289.357 M549.018 280.306 Q550.36 277.991 552.397 276.88 Q554.458 275.746 557.305 275.746 Q562.027 275.746 564.967 279.495 Q567.93 283.245 567.93 289.357 Q567.93 295.468 564.967 299.218 Q562.027 302.968 557.305 302.968 Q554.458 302.968 552.397 301.856 Q550.36 300.722 549.018 298.407 L549.018 302.296 L544.735 302.296 L544.735 266.278 L549.018 266.278 L549.018 280.306 Z" fill="#000000" fill-rule="nonzero" fill-opacity="1" /><path clip-path="url(#clip510)" d="M591.518 277.134 L591.518 281.162 Q589.712 280.236 587.768 279.773 Q585.823 279.31 583.74 279.31 Q580.569 279.31 578.971 280.283 Q577.397 281.255 577.397 283.199 Q577.397 284.681 578.532 285.537 Q579.666 286.37 583.092 287.134 L584.55 287.458 Q589.087 288.431 590.985 290.213 Q592.906 291.972 592.906 295.144 Q592.906 298.755 590.036 300.861 Q587.189 302.968 582.189 302.968 Q580.106 302.968 577.837 302.551 Q575.592 302.157 573.092 301.347 L573.092 296.949 Q575.453 298.176 577.744 298.801 Q580.036 299.403 582.281 299.403 Q585.291 299.403 586.911 298.384 Q588.531 297.343 588.531 295.468 Q588.531 293.732 587.351 292.806 Q586.194 291.88 582.235 291.023 L580.754 290.676 Q576.795 289.843 575.036 288.13 Q573.277 286.394 573.277 283.384 Q573.277 279.727 575.869 277.736 Q578.462 275.746 583.231 275.746 Q585.592 275.746 587.675 276.093 Q589.758 276.44 591.518 277.134 Z" fill="#000000" fill-rule="nonzero" fill-opacity="1" /><path clip-path="url(#clip510)" d="M621.865 288.269 L621.865 290.352 L602.281 290.352 Q602.559 294.75 604.92 297.065 Q607.304 299.356 611.541 299.356 Q613.994 299.356 616.286 298.755 Q618.601 298.153 620.869 296.949 L620.869 300.977 Q618.578 301.949 616.17 302.458 Q613.763 302.968 611.286 302.968 Q605.082 302.968 601.448 299.356 Q597.837 295.745 597.837 289.588 Q597.837 283.222 601.263 279.495 Q604.712 275.746 610.545 275.746 Q615.777 275.746 618.809 279.125 Q621.865 282.482 621.865 288.269 M617.605 287.019 Q617.559 283.523 615.638 281.44 Q613.74 279.357 610.592 279.357 Q607.027 279.357 604.874 281.37 Q602.744 283.384 602.42 287.042 L617.605 287.019 Z" fill="#000000" fill-rule="nonzero" fill-opacity="1" /><path clip-path="url(#clip510)" d="M643.878 280.352 Q643.161 279.935 642.304 279.75 Q641.471 279.542 640.452 279.542 Q636.841 279.542 634.897 281.903 Q632.976 284.241 632.976 288.639 L632.976 302.296 L628.693 302.296 L628.693 276.371 L632.976 276.371 L632.976 280.398 Q634.318 278.037 636.471 276.903 Q638.624 275.746 641.702 275.746 Q642.142 275.746 642.675 275.815 Q643.207 275.861 643.855 275.977 L643.878 280.352 Z" fill="#000000" fill-rule="nonzero" fill-opacity="1" /><path clip-path="url(#clip510)" d="M645.29 276.371 L649.804 276.371 L657.906 298.13 L666.008 276.371 L670.522 276.371 L660.8 302.296 L655.013 302.296 L645.29 276.371 Z" fill="#000000" fill-rule="nonzero" fill-opacity="1" /><path clip-path="url(#clip510)" d="M698.577 288.269 L698.577 290.352 L678.994 290.352 Q679.272 294.75 681.633 297.065 Q684.017 299.356 688.253 299.356 Q690.707 299.356 692.998 298.755 Q695.313 298.153 697.582 296.949 L697.582 300.977 Q695.29 301.949 692.883 302.458 Q690.475 302.968 687.999 302.968 Q681.795 302.968 678.161 299.356 Q674.55 295.745 674.55 289.588 Q674.55 283.222 677.975 279.495 Q681.424 275.746 687.258 275.746 Q692.489 275.746 695.522 279.125 Q698.577 282.482 698.577 288.269 M694.318 287.019 Q694.272 283.523 692.35 281.44 Q690.452 279.357 687.304 279.357 Q683.739 279.357 681.587 281.37 Q679.457 283.384 679.133 287.042 L694.318 287.019 Z" fill="#000000" fill-rule="nonzero" fill-opacity="1" /><path clip-path="url(#clip510)" d="M722.628 280.306 L722.628 266.278 L726.887 266.278 L726.887 302.296 L722.628 302.296 L722.628 298.407 Q721.285 300.722 719.225 301.856 Q717.188 302.968 714.318 302.968 Q709.619 302.968 706.656 299.218 Q703.716 295.468 703.716 289.357 Q703.716 283.245 706.656 279.495 Q709.619 275.746 714.318 275.746 Q717.188 275.746 719.225 276.88 Q721.285 277.991 722.628 280.306 M708.114 289.357 Q708.114 294.056 710.035 296.741 Q711.98 299.403 715.359 299.403 Q718.739 299.403 720.684 296.741 Q722.628 294.056 722.628 289.357 Q722.628 284.657 720.684 281.995 Q718.739 279.31 715.359 279.31 Q711.98 279.31 710.035 281.995 Q708.114 284.657 708.114 289.357 Z" fill="#000000" fill-rule="nonzero" fill-opacity="1" /><polyline clip-path="url(#clip510)" style="stroke:#ff0000; stroke-linecap:round; stroke-linejoin:round; stroke-width:8; stroke-opacity:1; fill:none" points="316.602,336.856 478.752,336.856 "/>
<path clip-path="url(#clip510)" d="M510.453 323.419 L510.453 336.405 L516.333 336.405 Q519.597 336.405 521.379 334.715 Q523.161 333.025 523.161 329.9 Q523.161 326.798 521.379 325.109 Q519.597 323.419 516.333 323.419 L510.453 323.419 M505.777 319.576 L516.333 319.576 Q522.143 319.576 525.106 322.215 Q528.092 324.831 528.092 329.9 Q528.092 335.016 525.106 337.632 Q522.143 340.247 516.333 340.247 L510.453 340.247 L510.453 354.136 L505.777 354.136 L505.777 319.576 Z" fill="#000000" fill-rule="nonzero" fill-opacity="1" /><path clip-path="url(#clip510)" d="M555.083 320.711 L555.083 325.271 Q552.421 323.998 550.059 323.373 Q547.698 322.748 545.499 322.748 Q541.68 322.748 539.597 324.229 Q537.536 325.711 537.536 328.442 Q537.536 330.734 538.902 331.914 Q540.291 333.072 544.134 333.789 L546.958 334.368 Q552.189 335.363 554.666 337.886 Q557.166 340.386 557.166 344.599 Q557.166 349.622 553.786 352.215 Q550.43 354.808 543.925 354.808 Q541.472 354.808 538.694 354.252 Q535.939 353.696 532.976 352.609 L532.976 347.794 Q535.823 349.391 538.555 350.201 Q541.286 351.011 543.925 351.011 Q547.93 351.011 550.106 349.437 Q552.282 347.863 552.282 344.947 Q552.282 342.4 550.708 340.965 Q549.157 339.53 545.592 338.812 L542.745 338.257 Q537.513 337.215 535.175 334.993 Q532.837 332.771 532.837 328.812 Q532.837 324.229 536.055 321.59 Q539.296 318.951 544.967 318.951 Q547.397 318.951 549.921 319.391 Q552.444 319.831 555.083 320.711 Z" fill="#000000" fill-rule="nonzero" fill-opacity="1" /><path clip-path="url(#clip510)" d="M564.458 319.576 L571.425 319.576 L580.244 343.095 L589.11 319.576 L596.078 319.576 L596.078 354.136 L591.518 354.136 L591.518 323.789 L582.606 347.493 L577.907 347.493 L568.995 323.789 L568.995 354.136 L564.458 354.136 L564.458 319.576 Z" fill="#000000" fill-rule="nonzero" fill-opacity="1" /><path clip-path="url(#clip510)" d="M633.369 318.118 L633.369 321.66 L629.295 321.66 Q627.003 321.66 626.101 322.586 Q625.221 323.511 625.221 325.919 L625.221 328.211 L632.235 328.211 L632.235 331.521 L625.221 331.521 L625.221 354.136 L620.939 354.136 L620.939 331.521 L616.865 331.521 L616.865 328.211 L620.939 328.211 L620.939 326.405 Q620.939 322.076 622.953 320.109 Q624.966 318.118 629.341 318.118 L633.369 318.118 Z" fill="#000000" fill-rule="nonzero" fill-opacity="1" /><path clip-path="url(#clip510)" d="M636.934 328.211 L641.193 328.211 L641.193 354.136 L636.934 354.136 L636.934 328.211 M636.934 318.118 L641.193 318.118 L641.193 323.511 L636.934 323.511 L636.934 318.118 Z" fill="#000000" fill-rule="nonzero" fill-opacity="1" /><path clip-path="url(#clip510)" d="M654.318 320.849 L654.318 328.211 L663.091 328.211 L663.091 331.521 L654.318 331.521 L654.318 345.595 Q654.318 348.766 655.175 349.669 Q656.054 350.571 658.716 350.571 L663.091 350.571 L663.091 354.136 L658.716 354.136 Q653.786 354.136 651.911 352.308 Q650.036 350.456 650.036 345.595 L650.036 331.521 L646.911 331.521 L646.911 328.211 L650.036 328.211 L650.036 320.849 L654.318 320.849 Z" fill="#000000" fill-rule="nonzero" fill-opacity="1" /></svg>
