<?xml version="1.0" encoding="utf-8"?>
<svg xmlns="http://www.w3.org/2000/svg" xmlns:xlink="http://www.w3.org/1999/xlink" width="672" height="480" viewBox="0 0 2688 1920">
<defs>
  <clipPath id="clip290">
    <rect x="0" y="0" width="2688" height="1920"/>
  </clipPath>
</defs>
<path clip-path="url(#clip290)" d="M0 1920 L2688 1920 L2688 -4.26326e-14 L0 -4.26326e-14  Z" fill="#ffffff" fill-rule="evenodd" fill-opacity="1"/>
<defs>
  <clipPath id="clip291">
    <rect x="208" y="47" width="2433" height="1688"/>
  </clipPath>
</defs>
<path clip-path="url(#clip290)" d="M208.502 1734.12 L2640.76 1734.12 L2640.76 47.2441 L208.502 47.2441  Z" fill="#ffffff" fill-rule="evenodd" fill-opacity="1"/>
<polyline clip-path="url(#clip291)" style="stroke:#000000; stroke-linecap:round; stroke-linejoin:round; stroke-width:2; stroke-opacity:0.1; fill:none" points="208.502,1734.12 208.502,47.2441 "/>
<polyline clip-path="url(#clip291)" style="stroke:#000000; stroke-linecap:round; stroke-linejoin:round; stroke-width:2; stroke-opacity:0.1; fill:none" points="1019.25,1734.12 1019.25,47.2441 "/>
<polyline clip-path="url(#clip291)" style="stroke:#000000; stroke-linecap:round; stroke-linejoin:round; stroke-width:2; stroke-opacity:0.1; fill:none" points="1830,1734.12 1830,47.2441 "/>
<polyline clip-path="url(#clip291)" style="stroke:#000000; stroke-linecap:round; stroke-linejoin:round; stroke-width:2; stroke-opacity:0.1; fill:none" points="2640.76,1734.12 2640.76,47.2441 "/>
<polyline clip-path="url(#clip291)" style="stroke:#000000; stroke-linecap:round; stroke-linejoin:round; stroke-width:2; stroke-opacity:0.1; fill:none" points="208.502,1515.62 2640.76,1515.62 "/>
<polyline clip-path="url(#clip291)" style="stroke:#000000; stroke-linecap:round; stroke-linejoin:round; stroke-width:2; stroke-opacity:0.1; fill:none" points="208.502,1174.1 2640.76,1174.1 "/>
<polyline clip-path="url(#clip291)" style="stroke:#000000; stroke-linecap:round; stroke-linejoin:round; stroke-width:2; stroke-opacity:0.1; fill:none" points="208.502,832.58 2640.76,832.58 "/>
<polyline clip-path="url(#clip291)" style="stroke:#000000; stroke-linecap:round; stroke-linejoin:round; stroke-width:2; stroke-opacity:0.1; fill:none" points="208.502,491.062 2640.76,491.062 "/>
<polyline clip-path="url(#clip291)" style="stroke:#000000; stroke-linecap:round; stroke-linejoin:round; stroke-width:2; stroke-opacity:0.1; fill:none" points="208.502,149.543 2640.76,149.543 "/>
<polyline clip-path="url(#clip290)" style="stroke:#000000; stroke-linecap:round; stroke-linejoin:round; stroke-width:4; stroke-opacity:1; fill:none" points="208.502,1734.12 2640.76,1734.12 "/>
<polyline clip-path="url(#clip290)" style="stroke:#000000; stroke-linecap:round; stroke-linejoin:round; stroke-width:4; stroke-opacity:1; fill:none" points="208.502,1734.12 208.502,1715.22 "/>
<polyline clip-path="url(#clip290)" style="stroke:#000000; stroke-linecap:round; stroke-linejoin:round; stroke-width:4; stroke-opacity:1; fill:none" points="1019.25,1734.12 1019.25,1715.22 "/>
<polyline clip-path="url(#clip290)" style="stroke:#000000; stroke-linecap:round; stroke-linejoin:round; stroke-width:4; stroke-opacity:1; fill:none" points="1830,1734.12 1830,1715.22 "/>
<polyline clip-path="url(#clip290)" style="stroke:#000000; stroke-linecap:round; stroke-linejoin:round; stroke-width:4; stroke-opacity:1; fill:none" points="2640.76,1734.12 2640.76,1715.22 "/>
<path clip-path="url(#clip290)" d="M208.502 1767.34 Q204.891 1767.34 203.062 1770.9 Q201.256 1774.45 201.256 1781.58 Q201.256 1788.68 203.062 1792.25 Q204.891 1795.79 208.502 1795.79 Q212.136 1795.79 213.942 1792.25 Q215.77 1788.68 215.77 1781.58 Q215.77 1774.45 213.942 1770.9 Q212.136 1767.34 208.502 1767.34 M208.502 1763.64 Q214.312 1763.64 217.367 1768.24 Q220.446 1772.83 220.446 1781.58 Q220.446 1790.3 217.367 1794.91 Q214.312 1799.49 208.502 1799.49 Q202.692 1799.49 199.613 1794.91 Q196.557 1790.3 196.557 1781.58 Q196.557 1772.83 199.613 1768.24 Q202.692 1763.64 208.502 1763.64 Z" fill="#000000" fill-rule="nonzero" fill-opacity="1" /><path clip-path="url(#clip290)" d="M1009.53 1764.26 L1027.89 1764.26 L1027.89 1768.2 L1013.81 1768.2 L1013.81 1776.67 Q1014.83 1776.32 1015.85 1776.16 Q1016.87 1775.97 1017.89 1775.97 Q1023.67 1775.97 1027.05 1779.15 Q1030.43 1782.32 1030.43 1787.73 Q1030.43 1793.31 1026.96 1796.41 Q1023.49 1799.49 1017.17 1799.49 Q1014.99 1799.49 1012.73 1799.12 Q1010.48 1798.75 1008.07 1798.01 L1008.07 1793.31 Q1010.16 1794.45 1012.38 1795 Q1014.6 1795.56 1017.08 1795.56 Q1021.08 1795.56 1023.42 1793.45 Q1025.76 1791.34 1025.76 1787.73 Q1025.76 1784.12 1023.42 1782.02 Q1021.08 1779.91 1017.08 1779.91 Q1015.2 1779.91 1013.33 1780.33 Q1011.48 1780.74 1009.53 1781.62 L1009.53 1764.26 Z" fill="#000000" fill-rule="nonzero" fill-opacity="1" /><path clip-path="url(#clip290)" d="M1804.69 1794.89 L1812.33 1794.89 L1812.33 1768.52 L1804.02 1770.19 L1804.02 1765.93 L1812.28 1764.26 L1816.96 1764.26 L1816.96 1794.89 L1824.6 1794.89 L1824.6 1798.82 L1804.69 1798.82 L1804.69 1794.89 Z" fill="#000000" fill-rule="nonzero" fill-opacity="1" /><path clip-path="url(#clip290)" d="M1844.04 1767.34 Q1840.43 1767.34 1838.6 1770.9 Q1836.8 1774.45 1836.8 1781.58 Q1836.8 1788.68 1838.6 1792.25 Q1840.43 1795.79 1844.04 1795.79 Q1847.68 1795.79 1849.48 1792.25 Q1851.31 1788.68 1851.31 1781.58 Q1851.31 1774.45 1849.48 1770.9 Q1847.68 1767.34 1844.04 1767.34 M1844.04 1763.64 Q1849.85 1763.64 1852.91 1768.24 Q1855.99 1772.83 1855.99 1781.58 Q1855.99 1790.3 1852.91 1794.91 Q1849.85 1799.49 1844.04 1799.49 Q1838.23 1799.49 1835.15 1794.91 Q1832.1 1790.3 1832.1 1781.58 Q1832.1 1772.83 1835.15 1768.24 Q1838.23 1763.64 1844.04 1763.64 Z" fill="#000000" fill-rule="nonzero" fill-opacity="1" /><path clip-path="url(#clip290)" d="M2615.94 1794.89 L2623.58 1794.89 L2623.58 1768.52 L2615.27 1770.19 L2615.27 1765.93 L2623.53 1764.26 L2628.21 1764.26 L2628.21 1794.89 L2635.85 1794.89 L2635.85 1798.82 L2615.94 1798.82 L2615.94 1794.89 Z" fill="#000000" fill-rule="nonzero" fill-opacity="1" /><path clip-path="url(#clip290)" d="M2645.34 1764.26 L2663.7 1764.26 L2663.7 1768.2 L2649.62 1768.2 L2649.62 1776.67 Q2650.64 1776.32 2651.66 1776.16 Q2652.68 1775.97 2653.7 1775.97 Q2659.48 1775.97 2662.86 1779.15 Q2666.24 1782.32 2666.24 1787.73 Q2666.24 1793.31 2662.77 1796.41 Q2659.3 1799.49 2652.98 1799.49 Q2650.8 1799.49 2648.53 1799.12 Q2646.29 1798.75 2643.88 1798.01 L2643.88 1793.31 Q2645.96 1794.45 2648.19 1795 Q2650.41 1795.56 2652.89 1795.56 Q2656.89 1795.56 2659.23 1793.45 Q2661.57 1791.34 2661.57 1787.73 Q2661.57 1784.12 2659.23 1782.02 Q2656.89 1779.91 2652.89 1779.91 Q2651.01 1779.91 2649.14 1780.33 Q2647.28 1780.74 2645.34 1781.62 L2645.34 1764.26 Z" fill="#000000" fill-rule="nonzero" fill-opacity="1" /><path clip-path="url(#clip290)" d="M1346.51 1835.78 L1386.71 1835.78 L1386.71 1841.19 L1369.84 1841.19 L1369.84 1883.3 L1363.37 1883.3 L1363.37 1841.19 L1346.51 1841.19 L1346.51 1835.78 Z" fill="#000000" fill-rule="nonzero" fill-opacity="1" /><path clip-path="url(#clip290)" d="M1390.65 1847.65 L1396.51 1847.65 L1396.51 1883.3 L1390.65 1883.3 L1390.65 1847.65 M1390.65 1833.78 L1396.51 1833.78 L1396.51 1841.19 L1390.65 1841.19 L1390.65 1833.78 Z" fill="#000000" fill-rule="nonzero" fill-opacity="1" /><path clip-path="url(#clip290)" d="M1436.52 1854.5 Q1438.71 1850.55 1441.77 1848.67 Q1444.82 1846.79 1448.96 1846.79 Q1454.53 1846.79 1457.56 1850.71 Q1460.58 1854.59 1460.58 1861.78 L1460.58 1883.3 L1454.69 1883.3 L1454.69 1861.98 Q1454.69 1856.85 1452.88 1854.37 Q1451.06 1851.89 1447.34 1851.89 Q1442.79 1851.89 1440.15 1854.91 Q1437.5 1857.93 1437.5 1863.15 L1437.5 1883.3 L1431.62 1883.3 L1431.62 1861.98 Q1431.62 1856.82 1429.8 1854.37 Q1427.99 1851.89 1424.2 1851.89 Q1419.71 1851.89 1417.07 1854.94 Q1414.43 1857.97 1414.43 1863.15 L1414.43 1883.3 L1408.54 1883.3 L1408.54 1847.65 L1414.43 1847.65 L1414.43 1853.19 Q1416.43 1849.91 1419.23 1848.35 Q1422.03 1846.79 1425.89 1846.79 Q1429.77 1846.79 1432.47 1848.77 Q1435.21 1850.74 1436.52 1854.5 Z" fill="#000000" fill-rule="nonzero" fill-opacity="1" /><path clip-path="url(#clip290)" d="M1502.75 1864.01 L1502.75 1866.88 L1475.83 1866.88 Q1476.21 1872.92 1479.45 1876.11 Q1482.73 1879.26 1488.56 1879.26 Q1491.93 1879.26 1495.08 1878.43 Q1498.26 1877.6 1501.38 1875.95 L1501.38 1881.49 Q1498.23 1882.82 1494.92 1883.52 Q1491.61 1884.22 1488.21 1884.22 Q1479.68 1884.22 1474.68 1879.26 Q1469.71 1874.29 1469.71 1865.83 Q1469.71 1857.07 1474.42 1851.95 Q1479.17 1846.79 1487.19 1846.79 Q1494.38 1846.79 1498.55 1851.44 Q1502.75 1856.06 1502.75 1864.01 M1496.9 1862.29 Q1496.83 1857.49 1494.19 1854.62 Q1491.58 1851.76 1487.25 1851.76 Q1482.35 1851.76 1479.39 1854.53 Q1476.46 1857.3 1476.02 1862.33 L1496.9 1862.29 Z" fill="#000000" fill-rule="nonzero" fill-opacity="1" /><polyline clip-path="url(#clip290)" style="stroke:#000000; stroke-linecap:round; stroke-linejoin:round; stroke-width:4; stroke-opacity:1; fill:none" points="208.502,1734.12 208.502,47.2441 "/>
<polyline clip-path="url(#clip290)" style="stroke:#000000; stroke-linecap:round; stroke-linejoin:round; stroke-width:4; stroke-opacity:1; fill:none" points="208.502,1515.62 227.399,1515.62 "/>
<polyline clip-path="url(#clip290)" style="stroke:#000000; stroke-linecap:round; stroke-linejoin:round; stroke-width:4; stroke-opacity:1; fill:none" points="208.502,1174.1 227.399,1174.1 "/>
<polyline clip-path="url(#clip290)" style="stroke:#000000; stroke-linecap:round; stroke-linejoin:round; stroke-width:4; stroke-opacity:1; fill:none" points="208.502,832.58 227.399,832.58 "/>
<polyline clip-path="url(#clip290)" style="stroke:#000000; stroke-linecap:round; stroke-linejoin:round; stroke-width:4; stroke-opacity:1; fill:none" points="208.502,491.062 227.399,491.062 "/>
<polyline clip-path="url(#clip290)" style="stroke:#000000; stroke-linecap:round; stroke-linejoin:round; stroke-width:4; stroke-opacity:1; fill:none" points="208.502,149.543 227.399,149.543 "/>
<path clip-path="url(#clip290)" d="M151.862 1528.96 L168.182 1528.96 L168.182 1532.9 L146.237 1532.9 L146.237 1528.96 Q148.899 1526.21 153.483 1521.58 Q158.089 1516.92 159.27 1515.58 Q161.515 1513.06 162.395 1511.32 Q163.298 1509.56 163.298 1507.87 Q163.298 1505.12 161.353 1503.38 Q159.432 1501.65 156.33 1501.65 Q154.131 1501.65 151.677 1502.41 Q149.247 1503.17 146.469 1504.73 L146.469 1500 Q149.293 1498.87 151.747 1498.29 Q154.2 1497.71 156.237 1497.71 Q161.608 1497.71 164.802 1500.4 Q167.997 1503.08 167.997 1507.57 Q167.997 1509.7 167.186 1511.62 Q166.399 1513.52 164.293 1516.11 Q163.714 1516.79 160.612 1520 Q157.511 1523.2 151.862 1528.96 Z" fill="#000000" fill-rule="nonzero" fill-opacity="1" /><path clip-path="url(#clip290)" d="M158.598 1160.89 L146.793 1179.34 L158.598 1179.34 L158.598 1160.89 M157.372 1156.82 L163.251 1156.82 L163.251 1179.34 L168.182 1179.34 L168.182 1183.23 L163.251 1183.23 L163.251 1191.38 L158.598 1191.38 L158.598 1183.23 L142.997 1183.23 L142.997 1178.72 L157.372 1156.82 Z" fill="#000000" fill-rule="nonzero" fill-opacity="1" /><path clip-path="url(#clip290)" d="M156.654 830.716 Q153.506 830.716 151.654 832.869 Q149.825 835.022 149.825 838.772 Q149.825 842.499 151.654 844.675 Q153.506 846.827 156.654 846.827 Q159.802 846.827 161.631 844.675 Q163.483 842.499 163.483 838.772 Q163.483 835.022 161.631 832.869 Q159.802 830.716 156.654 830.716 M165.936 816.064 L165.936 820.323 Q164.177 819.49 162.372 819.05 Q160.589 818.61 158.83 818.61 Q154.2 818.61 151.747 821.735 Q149.316 824.86 148.969 831.179 Q150.335 829.165 152.395 828.101 Q154.455 827.013 156.932 827.013 Q162.14 827.013 165.149 830.184 Q168.182 833.332 168.182 838.772 Q168.182 844.096 165.034 847.313 Q161.885 850.531 156.654 850.531 Q150.659 850.531 147.487 845.948 Q144.316 841.341 144.316 832.614 Q144.316 824.42 148.205 819.559 Q152.094 814.675 158.645 814.675 Q160.404 814.675 162.186 815.022 Q163.992 815.369 165.936 816.064 Z" fill="#000000" fill-rule="nonzero" fill-opacity="1" /><path clip-path="url(#clip290)" d="M156.33 491.93 Q152.997 491.93 151.075 493.712 Q149.177 495.494 149.177 498.619 Q149.177 501.744 151.075 503.527 Q152.997 505.309 156.33 505.309 Q159.663 505.309 161.585 503.527 Q163.506 501.721 163.506 498.619 Q163.506 495.494 161.585 493.712 Q159.686 491.93 156.33 491.93 M151.654 489.939 Q148.645 489.198 146.955 487.138 Q145.288 485.078 145.288 482.115 Q145.288 477.971 148.228 475.564 Q151.191 473.157 156.33 473.157 Q161.492 473.157 164.432 475.564 Q167.372 477.971 167.372 482.115 Q167.372 485.078 165.682 487.138 Q164.015 489.198 161.029 489.939 Q164.409 490.726 166.284 493.018 Q168.182 495.309 168.182 498.619 Q168.182 503.642 165.103 506.328 Q162.048 509.013 156.33 509.013 Q150.612 509.013 147.534 506.328 Q144.478 503.642 144.478 498.619 Q144.478 495.309 146.376 493.018 Q148.274 490.726 151.654 489.939 M149.941 482.555 Q149.941 485.24 151.608 486.744 Q153.298 488.249 156.33 488.249 Q159.339 488.249 161.029 486.744 Q162.742 485.24 162.742 482.555 Q162.742 479.869 161.029 478.365 Q159.339 476.86 156.33 476.86 Q153.298 476.86 151.608 478.365 Q149.941 479.869 149.941 482.555 Z" fill="#000000" fill-rule="nonzero" fill-opacity="1" /><path clip-path="url(#clip290)" d="M116.886 162.888 L124.525 162.888 L124.525 136.523 L116.214 138.189 L116.214 133.93 L124.478 132.263 L129.154 132.263 L129.154 162.888 L136.793 162.888 L136.793 166.823 L116.886 166.823 L116.886 162.888 Z" fill="#000000" fill-rule="nonzero" fill-opacity="1" /><path clip-path="url(#clip290)" d="M156.237 135.342 Q152.626 135.342 150.798 138.907 Q148.992 142.448 148.992 149.578 Q148.992 156.684 150.798 160.249 Q152.626 163.791 156.237 163.791 Q159.872 163.791 161.677 160.249 Q163.506 156.684 163.506 149.578 Q163.506 142.448 161.677 138.907 Q159.872 135.342 156.237 135.342 M156.237 131.638 Q162.048 131.638 165.103 136.245 Q168.182 140.828 168.182 149.578 Q168.182 158.305 165.103 162.911 Q162.048 167.495 156.237 167.495 Q150.427 167.495 147.349 162.911 Q144.293 158.305 144.293 149.578 Q144.293 140.828 147.349 136.245 Q150.427 131.638 156.237 131.638 Z" fill="#000000" fill-rule="nonzero" fill-opacity="1" /><path clip-path="url(#clip290)" d="M14.1184 947.272 L14.1184 938.614 L53.8723 917.544 L14.1184 917.544 L14.1184 911.305 L61.6384 911.305 L61.6384 919.963 L21.8846 941.033 L61.6384 941.033 L61.6384 947.272 L14.1184 947.272 Z" fill="#000000" fill-rule="nonzero" fill-opacity="1" /><path clip-path="url(#clip290)" d="M12.1769 884.697 Q19.4975 888.962 26.6589 891.031 Q33.8203 893.1 41.1727 893.1 Q48.5251 893.1 55.7502 891.031 Q62.9434 888.93 70.2321 884.697 L70.2321 889.789 Q62.7524 894.564 55.5274 896.951 Q48.3023 899.306 41.1727 899.306 Q34.0749 899.306 26.8817 896.951 Q19.6884 894.595 12.1769 889.789 L12.1769 884.697 Z" fill="#000000" fill-rule="nonzero" fill-opacity="1" /><path clip-path="url(#clip290)" d="M15.869 867.541 L25.9905 867.541 L25.9905 855.478 L30.542 855.478 L30.542 867.541 L49.8937 867.541 Q54.2542 867.541 55.4955 866.364 Q56.7368 865.154 56.7368 861.494 L56.7368 855.478 L61.6384 855.478 L61.6384 861.494 Q61.6384 868.273 59.124 870.851 Q56.5777 873.429 49.8937 873.429 L30.542 873.429 L30.542 877.726 L25.9905 877.726 L25.9905 873.429 L15.869 873.429 L15.869 867.541 Z" fill="#000000" fill-rule="nonzero" fill-opacity="1" /><path clip-path="url(#clip290)" d="M12.1769 848.699 L12.1769 843.606 Q19.6884 838.832 26.8817 836.477 Q34.0749 834.089 41.1727 834.089 Q48.3023 834.089 55.5274 836.477 Q62.7524 838.832 70.2321 843.606 L70.2321 848.699 Q62.9434 844.466 55.7502 842.397 Q48.5251 840.296 41.1727 840.296 Q33.8203 840.296 26.6589 842.397 Q19.4975 844.466 12.1769 848.699 Z" fill="#000000" fill-rule="nonzero" fill-opacity="1" /><polyline clip-path="url(#clip291)" style="stroke:#009af9; stroke-linecap:round; stroke-linejoin:round; stroke-width:8; stroke-opacity:1; fill:none" points="208.502,1686.38 210.123,1685.61 211.745,1684.83 213.366,1684.06 214.988,1683.28 216.609,1682.49 218.231,1681.71 219.852,1680.92 221.474,1680.13 223.095,1679.33 224.717,1678.54 226.338,1677.73 227.96,1676.93 229.581,1676.12 231.203,1675.31 232.824,1674.5 234.446,1673.68 236.067,1672.86 237.689,1672.04 239.31,1671.21 240.932,1670.38 242.553,1669.55 244.175,1668.71 245.796,1667.87 247.418,1667.03 249.039,1666.18 250.661,1665.33 252.282,1664.48 253.904,1663.62 255.525,1662.76 257.147,1661.9 258.768,1661.03 260.39,1660.16 262.011,1659.29 263.633,1658.42 265.254,1657.54 266.876,1656.65 268.497,1655.77 270.119,1654.88 271.74,1653.98 273.362,1653.09 274.983,1652.19 276.605,1651.28 278.226,1650.38 279.848,1649.47 281.469,1648.55 283.091,1647.63 284.712,1646.71 286.334,1645.79 287.955,1644.86 289.577,1643.93 291.198,1643 292.82,1642.06 294.441,1641.12 296.063,1640.17 297.684,1639.22 299.306,1638.27 300.927,1637.31 302.549,1636.35 304.17,1635.39 305.792,1634.43 307.413,1633.46 309.035,1632.48 310.656,1631.5 312.278,1630.52 313.899,1629.54 315.521,1628.55 317.142,1627.56 318.764,1626.56 320.385,1625.56 322.007,1624.56 323.628,1623.56 325.25,1622.55 326.871,1621.53 328.493,1620.51 330.114,1619.49 331.736,1618.47 333.357,1617.44 334.979,1616.41 336.6,1615.37 338.222,1614.33 339.843,1613.29 341.465,1612.24 343.086,1611.19 344.708,1610.14 346.329,1609.08 347.951,1608.02 349.572,1606.95 351.194,1605.88 352.816,1604.81 354.437,1603.73 356.059,1602.65 357.68,1601.57 359.302,1600.48 360.923,1599.39 362.545,1598.29 364.166,1597.19 365.788,1596.09 367.409,1594.98 369.031,1593.87 370.652,1592.75 372.274,1591.63 373.895,1590.51 375.517,1589.38 377.138,1588.25 378.76,1587.12 380.381,1585.98 382.003,1584.84 383.624,1583.69 385.246,1582.54 386.867,1581.38 388.489,1580.23 390.11,1579.06 391.732,1577.9 393.353,1576.73 394.975,1575.56 396.596,1574.38 398.218,1573.2 399.839,1572.01 401.461,1570.82 403.082,1569.63 404.704,1568.43 406.325,1567.23 407.947,1566.02 409.568,1564.81 411.19,1563.6 412.811,1562.38 414.433,1561.16 416.054,1559.94 417.676,1558.71 419.297,1557.47 420.919,1556.24 422.54,1554.99 424.162,1553.75 425.783,1552.5 427.405,1551.25 429.026,1549.99 430.648,1548.73 432.269,1547.46 433.891,1546.19 435.512,1544.92 437.134,1543.64 438.755,1542.36 440.377,1541.07 441.998,1539.78 443.62,1538.49 445.241,1537.19 446.863,1535.89 448.484,1534.58 450.106,1533.27 451.727,1531.96 453.349,1530.64 454.97,1529.32 456.592,1527.99 458.213,1526.66 459.835,1525.33 461.456,1523.99 463.078,1522.65 464.699,1521.3 466.321,1519.95 467.942,1518.59 469.564,1517.23 471.185,1515.87 472.807,1514.5 474.428,1513.13 476.05,1511.76 477.671,1510.38 479.293,1508.99 480.914,1507.6 482.536,1506.21 484.157,1504.82 485.779,1503.42 487.4,1502.01 489.022,1500.6 490.643,1499.19 492.265,1497.77 493.886,1496.35 495.508,1494.93 497.129,1493.5 498.751,1492.07 500.372,1490.63 501.994,1489.19 503.615,1487.74 505.237,1486.29 506.858,1484.84 508.48,1483.38 510.101,1481.92 511.723,1480.45 513.344,1478.98 514.966,1477.51 516.587,1476.03 518.209,1474.55 519.83,1473.06 521.452,1471.57 523.073,1470.08 524.695,1468.58 526.316,1467.08 527.938,1465.57 529.559,1464.06 531.181,1462.54 532.802,1461.03 534.424,1459.5 536.045,1457.98 537.667,1456.44 539.288,1454.91 540.91,1453.37 542.531,1451.83 544.153,1450.28 545.774,1448.73 547.396,1447.17 549.017,1445.61 550.639,1444.05 552.26,1442.48 553.882,1440.91 555.503,1439.33 557.125,1437.75 558.746,1436.17 560.368,1434.58 561.989,1432.99 563.611,1431.39 565.232,1429.79 566.854,1428.19 568.475,1426.58 570.097,1424.97 571.718,1423.35 573.34,1421.73 574.961,1420.11 576.583,1418.48 578.204,1416.85 579.826,1415.21 581.447,1413.57 583.069,1411.93 584.69,1410.28 586.312,1408.63 587.933,1406.97 589.555,1405.32 591.176,1403.65 592.798,1401.98 594.419,1400.31 596.041,1398.64 597.662,1396.96 599.284,1395.28 600.905,1393.59 602.527,1391.9 604.148,1390.21 605.77,1388.51 607.391,1386.81 609.013,1385.1 610.634,1383.39 612.256,1381.68 613.877,1379.96 615.499,1378.24 617.12,1376.51 618.742,1374.78 620.363,1373.05 621.985,1371.32 623.606,1369.58 625.228,1367.83 626.849,1366.09 628.471,1364.33 630.092,1362.58 631.714,1360.82 633.335,1359.06 634.957,1357.29 636.578,1355.52 638.2,1353.75 639.821,1351.97 641.443,1350.19 643.064,1348.41 644.686,1346.62 646.308,1344.83 647.929,1343.04 649.551,1341.24 651.172,1339.43 652.794,1337.63 654.415,1335.82 656.037,1334.01 657.658,1332.19 659.28,1330.37 660.901,1328.55 662.523,1326.72 664.144,1324.89 665.766,1323.06 667.387,1321.22 669.009,1319.38 670.63,1317.54 672.252,1315.69 673.873,1313.84 675.495,1311.99 677.116,1310.13 678.738,1308.27 680.359,1306.41 681.981,1304.54 683.602,1302.67 685.224,1300.79 686.845,1298.92 688.467,1297.04 690.088,1295.15 691.71,1293.27 693.331,1291.38 694.953,1289.48 696.574,1287.59 698.196,1285.69 699.817,1283.78 701.439,1281.88 703.06,1279.97 704.682,1278.06 706.303,1276.14 707.925,1274.23 709.546,1272.3 711.168,1270.38 712.789,1268.45 714.411,1266.52 716.032,1264.59 717.654,1262.65 719.275,1260.71 720.897,1258.77 722.518,1256.83 724.14,1254.88 725.761,1252.93 727.383,1250.98 729.004,1249.02 730.626,1247.06 732.247,1245.1 733.869,1243.13 735.49,1241.17 737.112,1239.2 738.733,1237.22 740.355,1235.25 741.976,1233.27 743.598,1231.29 745.219,1229.3 746.841,1227.32 748.462,1225.33 750.084,1223.34 751.705,1221.34 753.327,1219.35 754.948,1217.35 756.57,1215.35 758.191,1213.34 759.813,1211.33 761.434,1209.33 763.056,1207.31 764.677,1205.3 766.299,1203.28 767.92,1201.26 769.542,1199.24 771.163,1197.22 772.785,1195.19 774.406,1193.17 776.028,1191.14 777.649,1189.1 779.271,1187.07 780.892,1185.03 782.514,1182.99 784.135,1180.95 785.757,1178.91 787.378,1176.86 789,1174.81 790.621,1172.76 792.243,1170.71 793.864,1168.66 795.486,1166.6 797.107,1164.54 798.729,1162.49 800.35,1160.42 801.972,1158.36 803.593,1156.3 805.215,1154.23 806.836,1152.16 808.458,1150.09 810.079,1148.02 811.701,1145.94 813.322,1143.87 814.944,1141.79 816.565,1139.71 818.187,1137.63 819.808,1135.55 821.43,1133.46 823.051,1131.38 824.673,1129.29 826.294,1127.2 827.916,1125.11 829.537,1123.02 831.159,1120.92 832.78,1118.83 834.402,1116.73 836.023,1114.64 837.645,1112.54 839.266,1110.44 840.888,1108.34 842.509,1106.23 844.131,1104.13 845.752,1102.02 847.374,1099.92 848.995,1097.81 850.617,1095.7 852.238,1093.59 853.86,1091.48 855.481,1089.37 857.103,1087.26 858.724,1085.14 860.346,1083.03 861.967,1080.91 863.589,1078.79 865.21,1076.68 866.832,1074.56 868.453,1072.44 870.075,1070.32 871.696,1068.2 873.318,1066.07 874.939,1063.95 876.561,1061.83 878.182,1059.7 879.804,1057.58 881.425,1055.45 883.047,1053.32 884.668,1051.2 886.29,1049.07 887.911,1046.94 889.533,1044.81 891.154,1042.68 892.776,1040.55 894.397,1038.42 896.019,1036.29 897.64,1034.16 899.262,1032.03 900.883,1029.9 902.505,1027.76 904.126,1025.63 905.748,1023.5 907.369,1021.37 908.991,1019.23 910.612,1017.1 912.234,1014.96 913.855,1012.83 915.477,1010.7 917.098,1008.56 918.72,1006.43 920.341,1004.29 921.963,1002.16 923.584,1000.02 925.206,997.89 926.827,995.756 928.449,993.622 930.07,991.488 931.692,989.354 933.313,987.22 934.935,985.086 936.556,982.953 938.178,980.819 939.8,978.686 941.421,976.554 943.043,974.421 944.664,972.289 946.286,970.158 947.907,968.027 949.529,965.896 951.15,963.766 952.772,961.636 954.393,959.506 956.015,957.378 957.636,955.249 959.258,953.122 960.879,950.995 962.501,948.868 964.122,946.743 965.744,944.618 967.365,942.493 968.987,940.37 970.608,938.247 972.23,936.125 973.851,934.004 975.473,931.884 977.094,929.765 978.716,927.646 980.337,925.529 981.959,923.412 983.58,921.297 985.202,919.182 986.823,917.069 988.445,914.957 990.066,912.846 991.688,910.736 993.309,908.627 994.931,906.519 996.552,904.413 998.174,902.307 999.795,900.203 1001.42,898.101 1003.04,895.999 1004.66,893.899 1006.28,891.8 1007.9,889.703 1009.52,887.607 1011.15,885.512 1012.77,883.419 1014.39,881.327 1016.01,879.237 1017.63,877.148 1019.25,875.061 1020.87,872.975 1022.5,870.891 1024.12,868.809 1025.74,866.728 1027.36,864.649 1028.98,862.572 1030.6,860.496 1032.23,858.422 1033.85,856.35 1035.47,854.28 1037.09,852.211 1038.71,850.144 1040.33,848.079 1041.95,846.016 1043.58,843.955 1045.2,841.896 1046.82,839.839 1048.44,837.784 1050.06,835.731 1051.68,833.679 1053.3,831.63 1054.93,829.583 1056.55,827.538 1058.17,825.495 1059.79,823.454 1061.41,821.416 1063.03,819.379 1064.66,817.345 1066.28,815.313 1067.9,813.283 1069.52,811.256 1071.14,809.231 1072.76,807.208 1074.38,805.187 1076.01,803.169 1077.63,801.153 1079.25,799.14 1080.87,797.129 1082.49,795.12 1084.11,793.114 1085.73,791.11 1087.36,789.109 1088.98,787.11 1090.6,785.114 1092.22,783.121 1093.84,781.13 1095.46,779.141 1097.09,777.155 1098.71,775.172 1100.33,773.192 1101.95,771.214 1103.57,769.239 1105.19,767.266 1106.81,765.296 1108.44,763.329 1110.06,761.365 1111.68,759.404 1113.3,757.445 1114.92,755.489 1116.54,753.536 1118.16,751.586 1119.79,749.639 1121.41,747.694 1123.03,745.753 1124.65,743.814 1126.27,741.879 1127.89,739.946 1129.52,738.016 1131.14,736.09 1132.76,734.166 1134.38,732.245 1136,730.328 1137.62,728.413 1139.24,726.502 1140.87,724.593 1142.49,722.688 1144.11,720.786 1145.73,718.887 1147.35,716.991 1148.97,715.098 1150.59,713.209 1152.22,711.322 1153.84,709.439 1155.46,707.559 1157.08,705.683 1158.7,703.809 1160.32,701.939 1161.95,700.072 1163.57,698.209 1165.19,696.349 1166.81,694.492 1168.43,692.638 1170.05,690.788 1171.67,688.941 1173.3,687.098 1174.92,685.258 1176.54,683.421 1178.16,681.588 1179.78,679.758 1181.4,677.932 1183.02,676.109 1184.65,674.29 1186.27,672.474 1187.89,670.662 1189.51,668.853 1191.13,667.048 1192.75,665.246 1194.38,663.448 1196,661.654 1197.62,659.863 1199.24,658.075 1200.86,656.291 1202.48,654.511 1204.1,652.735 1205.73,650.962 1207.35,649.192 1208.97,647.427 1210.59,645.665 1212.21,643.907 1213.83,642.152 1215.45,640.401 1217.08,638.654 1218.7,636.911 1220.32,635.171 1221.94,633.435 1223.56,631.703 1225.18,629.974 1226.81,628.25 1228.43,626.529 1230.05,624.812 1231.67,623.098 1233.29,621.389 1234.91,619.683 1236.53,617.982 1238.16,616.284 1239.78,614.589 1241.4,612.899 1243.02,611.213 1244.64,609.53 1246.26,607.852 1247.89,606.177 1249.51,604.506 1251.13,602.839 1252.75,601.176 1254.37,599.517 1255.99,597.862 1257.61,596.211 1259.24,594.563 1260.86,592.92 1262.48,591.281 1264.1,589.645 1265.72,588.014 1267.34,586.386 1268.96,584.763 1270.59,583.143 1272.21,581.528 1273.83,579.916 1275.45,578.309 1277.07,576.705 1278.69,575.106 1280.32,573.511 1281.94,571.919 1283.56,570.332 1285.18,568.748 1286.8,567.169 1288.42,565.594 1290.04,564.023 1291.67,562.456 1293.29,560.892 1294.91,559.333 1296.53,557.778 1298.15,556.227 1299.77,554.68 1301.39,553.138 1303.02,551.599 1304.64,550.064 1306.26,548.533 1307.88,547.007 1309.5,545.484 1311.12,543.966 1312.75,542.451 1314.37,540.941 1315.99,539.435 1317.61,537.933 1319.23,536.435 1320.85,534.941 1322.47,533.451 1324.1,531.965 1325.72,530.483 1327.34,529.006 1328.96,527.532 1330.58,526.063 1332.2,524.597 1333.82,523.136 1335.45,521.679 1337.07,520.226 1338.69,518.777 1340.31,517.332 1341.93,515.891 1343.55,514.454 1345.18,513.021 1346.8,511.593 1348.42,510.168 1350.04,508.748 1351.66,507.332 1353.28,505.92 1354.9,504.512 1356.53,503.108 1358.15,501.708 1359.77,500.312 1361.39,498.92 1363.01,497.533 1364.63,496.149 1366.25,494.77 1367.88,493.394 1369.5,492.023 1371.12,490.656 1372.74,489.293 1374.36,487.934 1375.98,486.579 1377.61,485.228 1379.23,483.882 1380.85,482.539 1382.47,481.2 1384.09,479.866 1385.71,478.536 1387.33,477.209 1388.96,475.887 1390.58,474.569 1392.2,473.255 1393.82,471.945 1395.44,470.639 1397.06,469.337 1398.68,468.039 1400.31,466.745 1401.93,465.455 1403.55,464.17 1405.17,462.888 1406.79,461.61 1408.41,460.337 1410.04,459.067 1411.66,457.802 1413.28,456.541 1414.9,455.283 1416.52,454.03 1418.14,452.78 1419.76,451.535 1421.39,450.294 1423.01,449.057 1424.63,447.823 1426.25,446.594 1427.87,445.369 1429.49,444.148 1431.11,442.93 1432.74,441.717 1434.36,440.508 1435.98,439.303 1437.6,438.101 1439.22,436.904 1440.84,435.711 1442.47,434.521 1444.09,433.336 1445.71,432.155 1447.33,430.977 1448.95,429.804 1450.57,428.634 1452.19,427.468 1453.82,426.307 1455.44,425.149 1457.06,423.995 1458.68,422.845 1460.3,421.699 1461.92,420.557 1463.54,419.419 1465.17,418.285 1466.79,417.154 1468.41,416.028 1470.03,414.905 1471.65,413.786 1473.27,412.671 1474.9,411.56 1476.52,410.453 1478.14,409.35 1479.76,408.251 1481.38,407.155 1483,406.063 1484.62,404.975 1486.25,403.891 1487.87,402.811 1489.49,401.734 1491.11,400.662 1492.73,399.593 1494.35,398.528 1495.97,397.466 1497.6,396.409 1499.22,395.355 1500.84,394.305 1502.46,393.259 1504.08,392.216 1505.7,391.177 1507.33,390.142 1508.95,389.111 1510.57,388.083 1512.19,387.059 1513.81,386.039 1515.43,385.023 1517.05,384.01 1518.68,383.001 1520.3,381.995 1521.92,380.993 1523.54,379.995 1525.16,379 1526.78,378.009 1528.41,377.022 1530.03,376.038 1531.65,375.058 1533.27,374.082 1534.89,373.109 1536.51,372.14 1538.13,371.174 1539.76,370.212 1541.38,369.253 1543,368.298 1544.62,367.347 1546.24,366.399 1547.86,365.454 1549.48,364.513 1551.11,363.576 1552.73,362.642 1554.35,361.711 1555.97,360.784 1557.59,359.86 1559.21,358.94 1560.84,358.023 1562.46,357.11 1564.08,356.2 1565.7,355.294 1567.32,354.391 1568.94,353.491 1570.56,352.595 1572.19,351.702 1573.81,350.812 1575.43,349.925 1577.05,349.042 1578.67,348.163 1580.29,347.286 1581.91,346.413 1583.54,345.543 1585.16,344.677 1586.78,343.813 1588.4,342.953 1590.02,342.096 1591.64,341.243 1593.27,340.392 1594.89,339.545 1596.51,338.702 1598.13,337.861 1599.75,337.024 1601.37,336.189 1602.99,335.358 1604.62,334.531 1606.24,333.706 1607.86,332.885 1609.48,332.066 1611.1,331.251 1612.72,330.439 1614.34,329.631 1615.97,328.825 1617.59,328.022 1619.21,327.223 1620.83,326.427 1622.45,325.634 1624.07,324.844 1625.7,324.057 1627.32,323.273 1628.94,322.492 1630.56,321.715 1632.18,320.94 1633.8,320.169 1635.42,319.4 1637.05,318.635 1638.67,317.872 1640.29,317.113 1641.91,316.357 1643.53,315.604 1645.15,314.853 1646.77,314.106 1648.4,313.362 1650.02,312.621 1651.64,311.882 1653.26,311.147 1654.88,310.415 1656.5,309.685 1658.13,308.959 1659.75,308.235 1661.37,307.515 1662.99,306.797 1664.61,306.083 1666.23,305.371 1667.85,304.662 1669.48,303.956 1671.1,303.253 1672.72,302.553 1674.34,301.855 1675.96,301.161 1677.58,300.469 1679.2,299.781 1680.83,299.095 1682.45,298.412 1684.07,297.732 1685.69,297.054 1687.31,296.38 1688.93,295.708 1690.56,295.039 1692.18,294.373 1693.8,293.709 1695.42,293.049 1697.04,292.391 1698.66,291.736 1700.28,291.083 1701.91,290.434 1703.53,289.787 1705.15,289.143 1706.77,288.501 1708.39,287.863 1710.01,287.227 1711.63,286.593 1713.26,285.963 1714.88,285.335 1716.5,284.709 1718.12,284.087 1719.74,283.467 1721.36,282.85 1722.99,282.235 1724.61,281.623 1726.23,281.013 1727.85,280.407 1729.47,279.802 1731.09,279.201 1732.71,278.602 1734.34,278.005 1735.96,277.412 1737.58,276.82 1739.2,276.232 1740.82,275.645 1742.44,275.062 1744.06,274.481 1745.69,273.902 1747.31,273.326 1748.93,272.752 1750.55,272.181 1752.17,271.613 1753.79,271.047 1755.42,270.483 1757.04,269.922 1758.66,269.363 1760.28,268.807 1761.9,268.253 1763.52,267.702 1765.14,267.153 1766.77,266.607 1768.39,266.062 1770.01,265.521 1771.63,264.981 1773.25,264.444 1774.87,263.91 1776.49,263.378 1778.12,262.848 1779.74,262.32 1781.36,261.795 1782.98,261.272 1784.6,260.752 1786.22,260.234 1787.85,259.718 1789.47,259.204 1791.09,258.693 1792.71,258.184 1794.33,257.677 1795.95,257.172 1797.57,256.67 1799.2,256.17 1800.82,255.672 1802.44,255.177 1804.06,254.683 1805.68,254.192 1807.3,253.703 1808.92,253.217 1810.55,252.732 1812.17,252.25 1813.79,251.77 1815.41,251.291 1817.03,250.816 1818.65,250.342 1820.28,249.87 1821.9,249.401 1823.52,248.933 1825.14,248.468 1826.76,248.005 1828.38,247.543 1830,247.084 1831.63,246.627 1833.25,246.172 1834.87,245.72 1836.49,245.269 1838.11,244.82 1839.73,244.373 1841.36,243.928 1842.98,243.486 1844.6,243.045 1846.22,242.606 1847.84,242.169 1849.46,241.734 1851.08,241.301 1852.71,240.87 1854.33,240.441 1855.95,240.014 1857.57,239.589 1859.19,239.166 1860.81,238.744 1862.43,238.325 1864.06,237.907 1865.68,237.492 1867.3,237.078 1868.92,236.666 1870.54,236.256 1872.16,235.847 1873.79,235.441 1875.41,235.036 1877.03,234.633 1878.65,234.232 1880.27,233.833 1881.89,233.435 1883.51,233.04 1885.14,232.646 1886.76,232.253 1888.38,231.863 1890,231.474 1891.62,231.087 1893.24,230.702 1894.86,230.318 1896.49,229.936 1898.11,229.556 1899.73,229.178 1901.35,228.801 1902.97,228.426 1904.59,228.052 1906.22,227.68 1907.84,227.31 1909.46,226.941 1911.08,226.574 1912.7,226.209 1914.32,225.845 1915.94,225.482 1917.57,225.122 1919.19,224.763 1920.81,224.405 1922.43,224.049 1924.05,223.694 1925.67,223.341 1927.29,222.99 1928.92,222.64 1930.54,222.291 1932.16,221.944 1933.78,221.599 1935.4,221.255 1937.02,220.912 1938.65,220.571 1940.27,220.231 1941.89,219.893 1943.51,219.556 1945.13,219.221 1946.75,218.888 1948.37,218.556 1950,218.225 1951.62,217.896 1953.24,217.569 1954.86,217.242 1956.48,216.918 1958.1,216.595 1959.72,216.273 1961.35,215.953 1962.97,215.634 1964.59,215.317 1966.21,215.001 1967.83,214.686 1969.45,214.373 1971.08,214.062 1972.7,213.752 1974.32,213.443 1975.94,213.136 1977.56,212.83 1979.18,212.525 1980.8,212.222 1982.43,211.92 1984.05,211.62 1985.67,211.321 1987.29,211.024 1988.91,210.727 1990.53,210.433 1992.15,210.139 1993.78,209.847 1995.4,209.556 1997.02,209.267 1998.64,208.979 2000.26,208.692 2001.88,208.407 2003.51,208.122 2005.13,207.84 2006.75,207.558 2008.37,207.278 2009.99,206.999 2011.61,206.722 2013.23,206.445 2014.86,206.17 2016.48,205.897 2018.1,205.624 2019.72,205.353 2021.34,205.083 2022.96,204.815 2024.58,204.547 2026.21,204.281 2027.83,204.016 2029.45,203.753 2031.07,203.491 2032.69,203.229 2034.31,202.969 2035.94,202.711 2037.56,202.453 2039.18,202.197 2040.8,201.942 2042.42,201.688 2044.04,201.436 2045.66,201.184 2047.29,200.934 2048.91,200.685 2050.53,200.437 2052.15,200.19 2053.77,199.945 2055.39,199.7 2057.01,199.457 2058.64,199.215 2060.26,198.974 2061.88,198.734 2063.5,198.496 2065.12,198.258 2066.74,198.022 2068.37,197.787 2069.99,197.552 2071.61,197.319 2073.23,197.087 2074.85,196.857 2076.47,196.627 2078.09,196.398 2079.72,196.171 2081.34,195.944 2082.96,195.719 2084.58,195.495 2086.2,195.272 2087.82,195.05 2089.44,194.829 2091.07,194.609 2092.69,194.39 2094.31,194.172 2095.93,193.955 2097.55,193.739 2099.17,193.524 2100.8,193.311 2102.42,193.098 2104.04,192.886 2105.66,192.676 2107.28,192.466 2108.9,192.257 2110.52,192.05 2112.15,191.843 2113.77,191.637 2115.39,191.433 2117.01,191.229 2118.63,191.026 2120.25,190.824 2121.88,190.624 2123.5,190.424 2125.12,190.225 2126.74,190.027 2128.36,189.83 2129.98,189.634 2131.6,189.439 2133.23,189.245 2134.85,189.052 2136.47,188.86 2138.09,188.669 2139.71,188.478 2141.33,188.289 2142.95,188.1 2144.58,187.913 2146.2,187.726 2147.82,187.54 2149.44,187.355 2151.06,187.171 2152.68,186.988 2154.31,186.806 2155.93,186.624 2157.55,186.444 2159.17,186.264 2160.79,186.086 2162.41,185.908 2164.03,185.731 2165.66,185.554 2167.28,185.379 2168.9,185.205 2170.52,185.031 2172.14,184.858 2173.76,184.686 2175.38,184.515 2177.01,184.345 2178.63,184.175 2180.25,184.006 2181.87,183.838 2183.49,183.671 2185.11,183.505 2186.74,183.34 2188.36,183.175 2189.98,183.011 2191.6,182.848 2193.22,182.685 2194.84,182.524 2196.46,182.363 2198.09,182.203 2199.71,182.044 2201.33,181.885 2202.95,181.728 2204.57,181.571 2206.19,181.414 2207.81,181.259 2209.44,181.104 2211.06,180.95 2212.68,180.797 2214.3,180.644 2215.92,180.492 2217.54,180.341 2219.17,180.191 2220.79,180.041 2222.41,179.892 2224.03,179.744 2225.65,179.596 2227.27,179.449 2228.89,179.303 2230.52,179.158 2232.14,179.013 2233.76,178.869 2235.38,178.725 2237,178.583 2238.62,178.44 2240.24,178.299 2241.87,178.158 2243.49,178.018 2245.11,177.879 2246.73,177.74 2248.35,177.602 2249.97,177.464 2251.6,177.327 2253.22,177.191 2254.84,177.055 2256.46,176.92 2258.08,176.786 2259.7,176.652 2261.32,176.519 2262.95,176.386 2264.57,176.254 2266.19,176.123 2267.81,175.992 2269.43,175.862 2271.05,175.733 2272.67,175.604 2274.3,175.475 2275.92,175.348 2277.54,175.221 2279.16,175.094 2280.78,174.968 2282.4,174.843 2284.03,174.718 2285.65,174.594 2287.27,174.47 2288.89,174.347 2290.51,174.225 2292.13,174.103 2293.75,173.982 2295.38,173.861 2297,173.741 2298.62,173.622 2300.24,173.503 2301.86,173.384 2303.48,173.266 2305.1,173.149 2306.73,173.032 2308.35,172.916 2309.97,172.8 2311.59,172.685 2313.21,172.571 2314.83,172.457 2316.46,172.343 2318.08,172.231 2319.7,172.118 2321.32,172.006 2322.94,171.895 2324.56,171.784 2326.18,171.674 2327.81,171.565 2329.43,171.455 2331.05,171.347 2332.67,171.239 2334.29,171.131 2335.91,171.024 2337.53,170.918 2339.16,170.812 2340.78,170.706 2342.4,170.601 2344.02,170.497 2345.64,170.393 2347.26,170.289 2348.89,170.187 2350.51,170.084 2352.13,169.982 2353.75,169.881 2355.37,169.78 2356.99,169.679 2358.61,169.58 2360.24,169.48 2361.86,169.381 2363.48,169.283 2365.1,169.185 2366.72,169.087 2368.34,168.99 2369.96,168.894 2371.59,168.798 2373.21,168.702 2374.83,168.607 2376.45,168.512 2378.07,168.418 2379.69,168.325 2381.32,168.231 2382.94,168.139 2384.56,168.046 2386.18,167.954 2387.8,167.863 2389.42,167.772 2391.04,167.682 2392.67,167.592 2394.29,167.502 2395.91,167.413 2397.53,167.324 2399.15,167.236 2400.77,167.148 2402.39,167.061 2404.02,166.974 2405.64,166.888 2407.26,166.802 2408.88,166.716 2410.5,166.631 2412.12,166.546 2413.75,166.462 2415.37,166.378 2416.99,166.295 2418.61,166.212 2420.23,166.129 2421.85,166.047 2423.47,165.965 2425.1,165.884 2426.72,165.803 2428.34,165.722 2429.96,165.642 2431.58,165.562 2433.2,165.483 2434.83,165.404 2436.45,165.326 2438.07,165.248 2439.69,165.17 2441.31,165.093 2442.93,165.016 2444.55,164.939 2446.18,164.863 2447.8,164.787 2449.42,164.712 2451.04,164.637 2452.66,164.562 2454.28,164.488 2455.9,164.414 2457.53,164.341 2459.15,164.268 2460.77,164.195 2462.39,164.123 2464.01,164.051 2465.63,163.979 2467.26,163.908 2468.88,163.837 2470.5,163.767 2472.12,163.696 2473.74,163.627 2475.36,163.557 2476.98,163.488 2478.61,163.419 2480.23,163.351 2481.85,163.283 2483.47,163.215 2485.09,163.148 2486.71,163.081 2488.33,163.014 2489.96,162.948 2491.58,162.882 2493.2,162.816 2494.82,162.751 2496.44,162.686 2498.06,162.622 2499.69,162.557 2501.31,162.493 2502.93,162.43 2504.55,162.366 2506.17,162.303 2507.79,162.241 2509.41,162.178 2511.04,162.116 2512.66,162.054 2514.28,161.993 2515.9,161.932 2517.52,161.871 2519.14,161.811 2520.76,161.75 2522.39,161.691 2524.01,161.631 2525.63,161.572 2527.25,161.513 2528.87,161.454 2530.49,161.396 2532.12,161.338 2533.74,161.28 2535.36,161.222 2536.98,161.165 2538.6,161.108 2540.22,161.052 2541.84,160.995 2543.47,160.939 2545.09,160.883 2546.71,160.828 2548.33,160.772 2549.95,160.718 2551.57,160.663 2553.19,160.608 2554.82,160.554 2556.44,160.5 2558.06,160.447 2559.68,160.393 2561.3,160.34 2562.92,160.287 2564.55,160.235 2566.17,160.183 2567.79,160.13 2569.41,160.079 2571.03,160.027 2572.65,159.976 2574.27,159.925 2575.9,159.874 2577.52,159.823 2579.14,159.773 2580.76,159.723 2582.38,159.673 2584,159.624 2585.62,159.574 2587.25,159.525 2588.87,159.476 2590.49,159.428 2592.11,159.379 2593.73,159.331 2595.35,159.283 2596.98,159.235 2598.6,159.188 2600.22,159.14 2601.84,159.093 2603.46,159.046 2605.08,159 2606.7,158.953 2608.33,158.907 2609.95,158.861 2611.57,158.815 2613.19,158.77 2614.81,158.724 2616.43,158.679 2618.05,158.634 2619.68,158.589 2621.3,158.545 2622.92,158.5 2624.54,158.456 2626.16,158.412 2627.78,158.369 2629.41,158.325 2631.03,158.282 2632.65,158.238 2634.27,158.195 2635.89,158.152 2637.51,158.11 2639.13,158.067 2640.76,158.025 "/>
<circle clip-path="url(#clip291)" cx="289.577" cy="1603.55" r="14.4" fill="#e26f46" fill-rule="evenodd" fill-opacity="0.7" stroke="#000000" stroke-opacity="0.7" stroke-width="3.84"/>
<circle clip-path="url(#clip291)" cx="370.652" cy="1637.82" r="14.4" fill="#e26f46" fill-rule="evenodd" fill-opacity="0.7" stroke="#000000" stroke-opacity="0.7" stroke-width="3.84"/>
<circle clip-path="url(#clip291)" cx="451.727" cy="1576.72" r="14.4" fill="#e26f46" fill-rule="evenodd" fill-opacity="0.7" stroke="#000000" stroke-opacity="0.7" stroke-width="3.84"/>
<circle clip-path="url(#clip291)" cx="532.802" cy="1498.59" r="14.4" fill="#e26f46" fill-rule="evenodd" fill-opacity="0.7" stroke="#000000" stroke-opacity="0.7" stroke-width="3.84"/>
<circle clip-path="url(#clip291)" cx="613.877" cy="1415.93" r="14.4" fill="#e26f46" fill-rule="evenodd" fill-opacity="0.7" stroke="#000000" stroke-opacity="0.7" stroke-width="3.84"/>
<circle clip-path="url(#clip291)" cx="694.953" cy="1293.2" r="14.4" fill="#e26f46" fill-rule="evenodd" fill-opacity="0.7" stroke="#000000" stroke-opacity="0.7" stroke-width="3.84"/>
<circle clip-path="url(#clip291)" cx="776.028" cy="1237.9" r="14.4" fill="#e26f46" fill-rule="evenodd" fill-opacity="0.7" stroke="#000000" stroke-opacity="0.7" stroke-width="3.84"/>
<circle clip-path="url(#clip291)" cx="857.103" cy="1054.9" r="14.4" fill="#e26f46" fill-rule="evenodd" fill-opacity="0.7" stroke="#000000" stroke-opacity="0.7" stroke-width="3.84"/>
<circle clip-path="url(#clip291)" cx="938.178" cy="907.119" r="14.4" fill="#e26f46" fill-rule="evenodd" fill-opacity="0.7" stroke="#000000" stroke-opacity="0.7" stroke-width="3.84"/>
<circle clip-path="url(#clip291)" cx="1019.25" cy="893.204" r="14.4" fill="#e26f46" fill-rule="evenodd" fill-opacity="0.7" stroke="#000000" stroke-opacity="0.7" stroke-width="3.84"/>
<circle clip-path="url(#clip291)" cx="1100.33" cy="732.408" r="14.4" fill="#e26f46" fill-rule="evenodd" fill-opacity="0.7" stroke="#000000" stroke-opacity="0.7" stroke-width="3.84"/>
<circle clip-path="url(#clip291)" cx="1181.4" cy="738.144" r="14.4" fill="#e26f46" fill-rule="evenodd" fill-opacity="0.7" stroke="#000000" stroke-opacity="0.7" stroke-width="3.84"/>
<circle clip-path="url(#clip291)" cx="1262.48" cy="621.679" r="14.4" fill="#e26f46" fill-rule="evenodd" fill-opacity="0.7" stroke="#000000" stroke-opacity="0.7" stroke-width="3.84"/>
<circle clip-path="url(#clip291)" cx="1343.55" cy="492.446" r="14.4" fill="#e26f46" fill-rule="evenodd" fill-opacity="0.7" stroke="#000000" stroke-opacity="0.7" stroke-width="3.84"/>
<circle clip-path="url(#clip291)" cx="1424.63" cy="399.038" r="14.4" fill="#e26f46" fill-rule="evenodd" fill-opacity="0.7" stroke="#000000" stroke-opacity="0.7" stroke-width="3.84"/>
<circle clip-path="url(#clip291)" cx="1505.7" cy="384.562" r="14.4" fill="#e26f46" fill-rule="evenodd" fill-opacity="0.7" stroke="#000000" stroke-opacity="0.7" stroke-width="3.84"/>
<circle clip-path="url(#clip291)" cx="1586.78" cy="358.914" r="14.4" fill="#e26f46" fill-rule="evenodd" fill-opacity="0.7" stroke="#000000" stroke-opacity="0.7" stroke-width="3.84"/>
<circle clip-path="url(#clip291)" cx="1667.85" cy="323.835" r="14.4" fill="#e26f46" fill-rule="evenodd" fill-opacity="0.7" stroke="#000000" stroke-opacity="0.7" stroke-width="3.84"/>
<circle clip-path="url(#clip291)" cx="1748.93" cy="212.841" r="14.4" fill="#e26f46" fill-rule="evenodd" fill-opacity="0.7" stroke="#000000" stroke-opacity="0.7" stroke-width="3.84"/>
<circle clip-path="url(#clip291)" cx="1830" cy="233.927" r="14.4" fill="#e26f46" fill-rule="evenodd" fill-opacity="0.7" stroke="#000000" stroke-opacity="0.7" stroke-width="3.84"/>
<circle clip-path="url(#clip291)" cx="1911.08" cy="216.281" r="14.4" fill="#e26f46" fill-rule="evenodd" fill-opacity="0.7" stroke="#000000" stroke-opacity="0.7" stroke-width="3.84"/>
<circle clip-path="url(#clip291)" cx="1992.15" cy="152.052" r="14.4" fill="#e26f46" fill-rule="evenodd" fill-opacity="0.7" stroke="#000000" stroke-opacity="0.7" stroke-width="3.84"/>
<circle clip-path="url(#clip291)" cx="2073.23" cy="182.242" r="14.4" fill="#e26f46" fill-rule="evenodd" fill-opacity="0.7" stroke="#000000" stroke-opacity="0.7" stroke-width="3.84"/>
<circle clip-path="url(#clip291)" cx="2154.31" cy="265.227" r="14.4" fill="#e26f46" fill-rule="evenodd" fill-opacity="0.7" stroke="#000000" stroke-opacity="0.7" stroke-width="3.84"/>
<circle clip-path="url(#clip291)" cx="2235.38" cy="167.537" r="14.4" fill="#e26f46" fill-rule="evenodd" fill-opacity="0.7" stroke="#000000" stroke-opacity="0.7" stroke-width="3.84"/>
<circle clip-path="url(#clip291)" cx="2316.46" cy="203.547" r="14.4" fill="#e26f46" fill-rule="evenodd" fill-opacity="0.7" stroke="#000000" stroke-opacity="0.7" stroke-width="3.84"/>
<circle clip-path="url(#clip291)" cx="2397.53" cy="134.08" r="14.4" fill="#e26f46" fill-rule="evenodd" fill-opacity="0.7" stroke="#000000" stroke-opacity="0.7" stroke-width="3.84"/>
<circle clip-path="url(#clip291)" cx="2478.61" cy="94.9858" r="14.4" fill="#e26f46" fill-rule="evenodd" fill-opacity="0.7" stroke="#000000" stroke-opacity="0.7" stroke-width="3.84"/>
<circle clip-path="url(#clip291)" cx="2559.68" cy="194.507" r="14.4" fill="#e26f46" fill-rule="evenodd" fill-opacity="0.7" stroke="#000000" stroke-opacity="0.7" stroke-width="3.84"/>
<circle clip-path="url(#clip291)" cx="2640.76" cy="209.54" r="14.4" fill="#e26f46" fill-rule="evenodd" fill-opacity="0.7" stroke="#000000" stroke-opacity="0.7" stroke-width="3.84"/>
<path clip-path="url(#clip290)" d="M289.577 258.993 L1036.67 258.993 L1036.67 103.473 L289.577 103.473  Z" fill="#ffffff" fill-rule="evenodd" fill-opacity="1"/>
<polyline clip-path="url(#clip290)" style="stroke:#000000; stroke-linecap:round; stroke-linejoin:round; stroke-width:4; stroke-opacity:1; fill:none" points="289.577,258.993 1036.67,258.993 1036.67,103.473 289.577,103.473 289.577,258.993 "/>
<polyline clip-path="url(#clip290)" style="stroke:#009af9; stroke-linecap:round; stroke-linejoin:round; stroke-width:8; stroke-opacity:1; fill:none" points="316.602,155.313 478.752,155.313 "/>
<path clip-path="url(#clip290)" d="M505.777 138.033 L535.013 138.033 L535.013 141.968 L522.745 141.968 L522.745 172.593 L518.046 172.593 L518.046 141.968 L505.777 141.968 L505.777 138.033 Z" fill="#000000" fill-rule="nonzero" fill-opacity="1" /><path clip-path="url(#clip290)" d="M547.397 150.649 Q546.68 150.232 545.823 150.047 Q544.99 149.839 543.972 149.839 Q540.36 149.839 538.416 152.2 Q536.495 154.538 536.495 158.936 L536.495 172.593 L532.212 172.593 L532.212 146.667 L536.495 146.667 L536.495 150.695 Q537.837 148.334 539.99 147.2 Q542.143 146.042 545.221 146.042 Q545.661 146.042 546.194 146.112 Q546.726 146.158 547.374 146.274 L547.397 150.649 Z" fill="#000000" fill-rule="nonzero" fill-opacity="1" /><path clip-path="url(#clip290)" d="M551.425 162.362 L551.425 146.667 L555.684 146.667 L555.684 162.2 Q555.684 165.88 557.12 167.732 Q558.555 169.561 561.425 169.561 Q564.874 169.561 566.865 167.362 Q568.879 165.163 568.879 161.366 L568.879 146.667 L573.138 146.667 L573.138 172.593 L568.879 172.593 L568.879 168.612 Q567.328 170.973 565.268 172.13 Q563.231 173.264 560.522 173.264 Q556.055 173.264 553.74 170.487 Q551.425 167.709 551.425 162.362 M562.143 146.042 L562.143 146.042 Z" fill="#000000" fill-rule="nonzero" fill-opacity="1" /><path clip-path="url(#clip290)" d="M604.087 158.565 L604.087 160.649 L584.504 160.649 Q584.781 165.047 587.143 167.362 Q589.527 169.653 593.763 169.653 Q596.217 169.653 598.508 169.052 Q600.823 168.45 603.092 167.246 L603.092 171.274 Q600.8 172.246 598.393 172.755 Q595.985 173.264 593.508 173.264 Q587.305 173.264 583.67 169.653 Q580.059 166.042 580.059 159.885 Q580.059 153.519 583.485 149.792 Q586.934 146.042 592.768 146.042 Q597.999 146.042 601.031 149.422 Q604.087 152.778 604.087 158.565 M599.828 157.315 Q599.781 153.82 597.86 151.737 Q595.962 149.653 592.814 149.653 Q589.249 149.653 587.096 151.667 Q584.967 153.681 584.643 157.339 L599.828 157.315 Z" fill="#000000" fill-rule="nonzero" fill-opacity="1" /><path clip-path="url(#clip290)" d="M630.36 139.306 L630.36 146.667 L639.133 146.667 L639.133 149.978 L630.36 149.978 L630.36 164.052 Q630.36 167.223 631.216 168.126 Q632.096 169.028 634.758 169.028 L639.133 169.028 L639.133 172.593 L634.758 172.593 Q629.828 172.593 627.953 170.764 Q626.078 168.913 626.078 164.052 L626.078 149.978 L622.953 149.978 L622.953 146.667 L626.078 146.667 L626.078 139.306 L630.36 139.306 Z" fill="#000000" fill-rule="nonzero" fill-opacity="1" /><path clip-path="url(#clip290)" d="M659.758 150.649 Q659.04 150.232 658.184 150.047 Q657.351 149.839 656.332 149.839 Q652.721 149.839 650.776 152.2 Q648.855 154.538 648.855 158.936 L648.855 172.593 L644.573 172.593 L644.573 146.667 L648.855 146.667 L648.855 150.695 Q650.198 148.334 652.351 147.2 Q654.503 146.042 657.582 146.042 Q658.022 146.042 658.554 146.112 Q659.087 146.158 659.735 146.274 L659.758 150.649 Z" fill="#000000" fill-rule="nonzero" fill-opacity="1" /><path clip-path="url(#clip290)" d="M676.008 159.561 Q670.846 159.561 668.855 160.741 Q666.864 161.922 666.864 164.769 Q666.864 167.038 668.346 168.38 Q669.85 169.7 672.42 169.7 Q675.962 169.7 678.091 167.2 Q680.244 164.677 680.244 160.51 L680.244 159.561 L676.008 159.561 M684.503 157.802 L684.503 172.593 L680.244 172.593 L680.244 168.658 Q678.786 171.019 676.61 172.153 Q674.434 173.264 671.286 173.264 Q667.304 173.264 664.943 171.042 Q662.605 168.797 662.605 165.047 Q662.605 160.672 665.522 158.45 Q668.462 156.228 674.272 156.228 L680.244 156.228 L680.244 155.811 Q680.244 152.871 678.299 151.274 Q676.378 149.653 672.883 149.653 Q670.661 149.653 668.554 150.186 Q666.448 150.718 664.503 151.783 L664.503 147.848 Q666.841 146.945 669.04 146.505 Q671.239 146.042 673.323 146.042 Q678.948 146.042 681.725 148.959 Q684.503 151.876 684.503 157.802 Z" fill="#000000" fill-rule="nonzero" fill-opacity="1" /><path clip-path="url(#clip290)" d="M693.276 146.667 L697.535 146.667 L697.535 173.056 Q697.535 178.01 695.637 180.232 Q693.762 182.454 689.573 182.454 L687.952 182.454 L687.952 178.843 L689.086 178.843 Q691.517 178.843 692.397 177.709 Q693.276 176.598 693.276 173.056 L693.276 146.667 M693.276 136.575 L697.535 136.575 L697.535 141.968 L693.276 141.968 L693.276 136.575 Z" fill="#000000" fill-rule="nonzero" fill-opacity="1" /><path clip-path="url(#clip290)" d="M728.623 158.565 L728.623 160.649 L709.04 160.649 Q709.318 165.047 711.679 167.362 Q714.063 169.653 718.299 169.653 Q720.753 169.653 723.045 169.052 Q725.359 168.45 727.628 167.246 L727.628 171.274 Q725.336 172.246 722.929 172.755 Q720.521 173.264 718.045 173.264 Q711.841 173.264 708.207 169.653 Q704.596 166.042 704.596 159.885 Q704.596 153.519 708.022 149.792 Q711.471 146.042 717.304 146.042 Q722.535 146.042 725.568 149.422 Q728.623 152.778 728.623 158.565 M724.364 157.315 Q724.318 153.82 722.396 151.737 Q720.498 149.653 717.35 149.653 Q713.785 149.653 711.633 151.667 Q709.503 153.681 709.179 157.339 L724.364 157.315 Z" fill="#000000" fill-rule="nonzero" fill-opacity="1" /><path clip-path="url(#clip290)" d="M754.271 147.663 L754.271 151.644 Q752.466 150.649 750.637 150.163 Q748.832 149.653 746.98 149.653 Q742.836 149.653 740.545 152.292 Q738.253 154.908 738.253 159.653 Q738.253 164.399 740.545 167.038 Q742.836 169.653 746.98 169.653 Q748.832 169.653 750.637 169.167 Q752.466 168.658 754.271 167.663 L754.271 171.598 Q752.489 172.431 750.568 172.848 Q748.669 173.264 746.517 173.264 Q740.66 173.264 737.211 169.584 Q733.762 165.903 733.762 159.653 Q733.762 153.311 737.234 149.677 Q740.73 146.042 746.794 146.042 Q748.762 146.042 750.637 146.459 Q752.512 146.853 754.271 147.663 Z" fill="#000000" fill-rule="nonzero" fill-opacity="1" /><path clip-path="url(#clip290)" d="M765.892 139.306 L765.892 146.667 L774.665 146.667 L774.665 149.978 L765.892 149.978 L765.892 164.052 Q765.892 167.223 766.748 168.126 Q767.628 169.028 770.29 169.028 L774.665 169.028 L774.665 172.593 L770.29 172.593 Q765.359 172.593 763.484 170.764 Q761.609 168.913 761.609 164.052 L761.609 149.978 L758.484 149.978 L758.484 146.667 L761.609 146.667 L761.609 139.306 L765.892 139.306 Z" fill="#000000" fill-rule="nonzero" fill-opacity="1" /><path clip-path="url(#clip290)" d="M790.313 149.653 Q786.887 149.653 784.896 152.339 Q782.905 155.001 782.905 159.653 Q782.905 164.306 784.873 166.991 Q786.864 169.653 790.313 169.653 Q793.716 169.653 795.706 166.968 Q797.697 164.283 797.697 159.653 Q797.697 155.047 795.706 152.362 Q793.716 149.653 790.313 149.653 M790.313 146.042 Q795.868 146.042 799.04 149.653 Q802.211 153.265 802.211 159.653 Q802.211 166.019 799.04 169.653 Q795.868 173.264 790.313 173.264 Q784.734 173.264 781.563 169.653 Q778.415 166.019 778.415 159.653 Q778.415 153.265 781.563 149.653 Q784.734 146.042 790.313 146.042 Z" fill="#000000" fill-rule="nonzero" fill-opacity="1" /><path clip-path="url(#clip290)" d="M824.294 150.649 Q823.576 150.232 822.72 150.047 Q821.887 149.839 820.868 149.839 Q817.257 149.839 815.313 152.2 Q813.391 154.538 813.391 158.936 L813.391 172.593 L809.109 172.593 L809.109 146.667 L813.391 146.667 L813.391 150.695 Q814.734 148.334 816.887 147.2 Q819.039 146.042 822.118 146.042 Q822.558 146.042 823.09 146.112 Q823.623 146.158 824.271 146.274 L824.294 150.649 Z" fill="#000000" fill-rule="nonzero" fill-opacity="1" /><path clip-path="url(#clip290)" d="M839.549 175.001 Q837.743 179.63 836.03 181.042 Q834.317 182.454 831.447 182.454 L828.044 182.454 L828.044 178.889 L830.544 178.889 Q832.303 178.889 833.276 178.056 Q834.248 177.223 835.428 174.121 L836.192 172.177 L825.706 146.667 L830.22 146.667 L838.322 166.945 L846.424 146.667 L850.937 146.667 L839.549 175.001 Z" fill="#000000" fill-rule="nonzero" fill-opacity="1" /><circle clip-path="url(#clip290)" cx="397.677" cy="207.153" r="20.48" fill="#e26f46" fill-rule="evenodd" fill-opacity="0.7" stroke="#000000" stroke-opacity="0.7" stroke-width="5.46133"/>
<path clip-path="url(#clip290)" d="M521.796 193.044 Q516.703 193.044 513.694 196.841 Q510.708 200.637 510.708 207.188 Q510.708 213.716 513.694 217.512 Q516.703 221.308 521.796 221.308 Q526.888 221.308 529.851 217.512 Q532.837 213.716 532.837 207.188 Q532.837 200.637 529.851 196.841 Q526.888 193.044 521.796 193.044 M521.796 189.248 Q529.064 189.248 533.416 194.132 Q537.768 198.994 537.768 207.188 Q537.768 215.359 533.416 220.243 Q529.064 225.104 521.796 225.104 Q514.504 225.104 510.129 220.243 Q505.777 215.382 505.777 207.188 Q505.777 198.994 510.129 194.132 Q514.504 189.248 521.796 189.248 Z" fill="#000000" fill-rule="nonzero" fill-opacity="1" /><path clip-path="url(#clip290)" d="M563.508 211.493 Q563.508 206.794 561.564 204.132 Q559.643 201.447 556.263 201.447 Q552.883 201.447 550.939 204.132 Q549.018 206.794 549.018 211.493 Q549.018 216.192 550.939 218.878 Q552.883 221.54 556.263 221.54 Q559.643 221.54 561.564 218.878 Q563.508 216.192 563.508 211.493 M549.018 202.443 Q550.36 200.128 552.397 199.017 Q554.458 197.882 557.305 197.882 Q562.027 197.882 564.967 201.632 Q567.93 205.382 567.93 211.493 Q567.93 217.605 564.967 221.355 Q562.027 225.104 557.305 225.104 Q554.458 225.104 552.397 223.993 Q550.36 222.859 549.018 220.544 L549.018 224.433 L544.735 224.433 L544.735 188.415 L549.018 188.415 L549.018 202.443 Z" fill="#000000" fill-rule="nonzero" fill-opacity="1" /><path clip-path="url(#clip290)" d="M591.518 199.271 L591.518 203.299 Q589.712 202.373 587.768 201.91 Q585.823 201.447 583.74 201.447 Q580.569 201.447 578.971 202.419 Q577.397 203.392 577.397 205.336 Q577.397 206.818 578.532 207.674 Q579.666 208.507 583.092 209.271 L584.55 209.595 Q589.087 210.568 590.985 212.35 Q592.906 214.109 592.906 217.28 Q592.906 220.892 590.036 222.998 Q587.189 225.104 582.189 225.104 Q580.106 225.104 577.837 224.688 Q575.592 224.294 573.092 223.484 L573.092 219.086 Q575.453 220.313 577.744 220.938 Q580.036 221.54 582.281 221.54 Q585.291 221.54 586.911 220.521 Q588.531 219.48 588.531 217.605 Q588.531 215.868 587.351 214.943 Q586.194 214.017 582.235 213.16 L580.754 212.813 Q576.795 211.98 575.036 210.267 Q573.277 208.53 573.277 205.521 Q573.277 201.864 575.869 199.873 Q578.462 197.882 583.231 197.882 Q585.592 197.882 587.675 198.23 Q589.758 198.577 591.518 199.271 Z" fill="#000000" fill-rule="nonzero" fill-opacity="1" /><path clip-path="url(#clip290)" d="M621.865 210.405 L621.865 212.489 L602.281 212.489 Q602.559 216.887 604.92 219.202 Q607.304 221.493 611.541 221.493 Q613.994 221.493 616.286 220.892 Q618.601 220.29 620.869 219.086 L620.869 223.114 Q618.578 224.086 616.17 224.595 Q613.763 225.104 611.286 225.104 Q605.082 225.104 601.448 221.493 Q597.837 217.882 597.837 211.725 Q597.837 205.359 601.263 201.632 Q604.712 197.882 610.545 197.882 Q615.777 197.882 618.809 201.262 Q621.865 204.618 621.865 210.405 M617.605 209.155 Q617.559 205.66 615.638 203.577 Q613.74 201.493 610.592 201.493 Q607.027 201.493 604.874 203.507 Q602.744 205.521 602.42 209.179 L617.605 209.155 Z" fill="#000000" fill-rule="nonzero" fill-opacity="1" /><path clip-path="url(#clip290)" d="M643.878 202.489 Q643.161 202.072 642.304 201.887 Q641.471 201.679 640.452 201.679 Q636.841 201.679 634.897 204.04 Q632.976 206.378 632.976 210.776 L632.976 224.433 L628.693 224.433 L628.693 198.507 L632.976 198.507 L632.976 202.535 Q634.318 200.174 636.471 199.04 Q638.624 197.882 641.702 197.882 Q642.142 197.882 642.675 197.952 Q643.207 197.998 643.855 198.114 L643.878 202.489 Z" fill="#000000" fill-rule="nonzero" fill-opacity="1" /><path clip-path="url(#clip290)" d="M645.29 198.507 L649.804 198.507 L657.906 220.267 L666.008 198.507 L670.522 198.507 L660.8 224.433 L655.013 224.433 L645.29 198.507 Z" fill="#000000" fill-rule="nonzero" fill-opacity="1" /><path clip-path="url(#clip290)" d="M688.184 211.401 Q683.022 211.401 681.031 212.581 Q679.04 213.762 679.04 216.609 Q679.04 218.878 680.522 220.22 Q682.026 221.54 684.596 221.54 Q688.137 221.54 690.267 219.04 Q692.42 216.517 692.42 212.35 L692.42 211.401 L688.184 211.401 M696.679 209.642 L696.679 224.433 L692.42 224.433 L692.42 220.498 Q690.961 222.859 688.786 223.993 Q686.61 225.104 683.461 225.104 Q679.48 225.104 677.119 222.882 Q674.781 220.637 674.781 216.887 Q674.781 212.512 677.698 210.29 Q680.637 208.068 686.448 208.068 L692.42 208.068 L692.42 207.651 Q692.42 204.711 690.475 203.114 Q688.554 201.493 685.059 201.493 Q682.837 201.493 680.73 202.026 Q678.624 202.558 676.679 203.623 L676.679 199.688 Q679.017 198.785 681.216 198.345 Q683.415 197.882 685.499 197.882 Q691.123 197.882 693.901 200.799 Q696.679 203.716 696.679 209.642 Z" fill="#000000" fill-rule="nonzero" fill-opacity="1" /><path clip-path="url(#clip290)" d="M709.665 191.146 L709.665 198.507 L718.438 198.507 L718.438 201.818 L709.665 201.818 L709.665 215.892 Q709.665 219.063 710.522 219.966 Q711.401 220.868 714.063 220.868 L718.438 220.868 L718.438 224.433 L714.063 224.433 Q709.133 224.433 707.258 222.604 Q705.383 220.753 705.383 215.892 L705.383 201.818 L702.258 201.818 L702.258 198.507 L705.383 198.507 L705.383 191.146 L709.665 191.146 Z" fill="#000000" fill-rule="nonzero" fill-opacity="1" /><path clip-path="url(#clip290)" d="M724.04 198.507 L728.299 198.507 L728.299 224.433 L724.04 224.433 L724.04 198.507 M724.04 188.415 L728.299 188.415 L728.299 193.808 L724.04 193.808 L724.04 188.415 Z" fill="#000000" fill-rule="nonzero" fill-opacity="1" /><path clip-path="url(#clip290)" d="M747.257 201.493 Q743.832 201.493 741.841 204.179 Q739.85 206.841 739.85 211.493 Q739.85 216.146 741.818 218.831 Q743.808 221.493 747.257 221.493 Q750.66 221.493 752.651 218.808 Q754.642 216.123 754.642 211.493 Q754.642 206.887 752.651 204.202 Q750.66 201.493 747.257 201.493 M747.257 197.882 Q752.813 197.882 755.984 201.493 Q759.156 205.105 759.156 211.493 Q759.156 217.859 755.984 221.493 Q752.813 225.104 747.257 225.104 Q741.679 225.104 738.507 221.493 Q735.359 217.859 735.359 211.493 Q735.359 205.105 738.507 201.493 Q741.679 197.882 747.257 197.882 Z" fill="#000000" fill-rule="nonzero" fill-opacity="1" /><path clip-path="url(#clip290)" d="M787.766 208.785 L787.766 224.433 L783.507 224.433 L783.507 208.924 Q783.507 205.243 782.072 203.415 Q780.637 201.586 777.767 201.586 Q774.317 201.586 772.327 203.785 Q770.336 205.984 770.336 209.78 L770.336 224.433 L766.054 224.433 L766.054 198.507 L770.336 198.507 L770.336 202.535 Q771.864 200.197 773.924 199.04 Q776.007 197.882 778.716 197.882 Q783.183 197.882 785.475 200.66 Q787.766 203.415 787.766 208.785 Z" fill="#000000" fill-rule="nonzero" fill-opacity="1" /><path clip-path="url(#clip290)" d="M812.79 199.271 L812.79 203.299 Q810.984 202.373 809.04 201.91 Q807.095 201.447 805.012 201.447 Q801.84 201.447 800.243 202.419 Q798.669 203.392 798.669 205.336 Q798.669 206.818 799.803 207.674 Q800.938 208.507 804.364 209.271 L805.822 209.595 Q810.359 210.568 812.257 212.35 Q814.178 214.109 814.178 217.28 Q814.178 220.892 811.308 222.998 Q808.461 225.104 803.461 225.104 Q801.378 225.104 799.109 224.688 Q796.864 224.294 794.364 223.484 L794.364 219.086 Q796.725 220.313 799.016 220.938 Q801.308 221.54 803.553 221.54 Q806.563 221.54 808.183 220.521 Q809.803 219.48 809.803 217.605 Q809.803 215.868 808.623 214.943 Q807.465 214.017 803.507 213.16 L802.026 212.813 Q798.067 211.98 796.308 210.267 Q794.549 208.53 794.549 205.521 Q794.549 201.864 797.141 199.873 Q799.734 197.882 804.503 197.882 Q806.864 197.882 808.947 198.23 Q811.03 198.577 812.79 199.271 Z" fill="#000000" fill-rule="nonzero" fill-opacity="1" /><path clip-path="url(#clip290)" d="M846.262 188.461 Q843.16 193.785 841.655 198.994 Q840.15 204.202 840.15 209.549 Q840.15 214.896 841.655 220.151 Q843.183 225.382 846.262 230.683 L842.558 230.683 Q839.086 225.243 837.35 219.989 Q835.637 214.734 835.637 209.549 Q835.637 204.387 837.35 199.156 Q839.063 193.924 842.558 188.461 L846.262 188.461 Z" fill="#000000" fill-rule="nonzero" fill-opacity="1" /><path clip-path="url(#clip290)" d="M864.572 201.887 Q861.053 201.887 859.155 204.433 Q857.164 207.095 857.164 211.493 Q857.164 216.146 859.132 218.831 Q861.123 221.493 864.572 221.493 Q867.974 221.493 869.965 218.808 Q871.956 216.123 871.956 211.493 Q871.956 207.257 869.965 204.433 Q868.136 201.887 864.572 201.887 M864.572 198.507 L878.715 198.507 L878.715 202.767 L873.947 202.767 Q876.47 206.378 876.47 211.493 Q876.47 217.859 873.298 221.47 Q870.127 225.104 864.572 225.104 Q858.993 225.104 855.845 221.47 Q852.674 217.859 852.674 211.493 Q852.674 205.081 855.845 201.493 Q858.461 198.507 864.572 198.507 Z" fill="#000000" fill-rule="nonzero" fill-opacity="1" /><path clip-path="url(#clip290)" d="M885.127 202.906 L914.803 202.906 L914.803 206.794 L885.127 206.794 L885.127 202.906 M885.127 212.35 L914.803 212.35 L914.803 216.285 L885.127 216.285 L885.127 212.35 Z" fill="#000000" fill-rule="nonzero" fill-opacity="1" /><path clip-path="url(#clip290)" d="M934.895 192.952 Q931.284 192.952 929.456 196.517 Q927.65 200.058 927.65 207.188 Q927.65 214.294 929.456 217.859 Q931.284 221.401 934.895 221.401 Q938.53 221.401 940.335 217.859 Q942.164 214.294 942.164 207.188 Q942.164 200.058 940.335 196.517 Q938.53 192.952 934.895 192.952 M934.895 189.248 Q940.705 189.248 943.761 193.855 Q946.84 198.438 946.84 207.188 Q946.84 215.915 943.761 220.521 Q940.705 225.104 934.895 225.104 Q929.085 225.104 926.006 220.521 Q922.951 215.915 922.951 207.188 Q922.951 198.438 926.006 193.855 Q929.085 189.248 934.895 189.248 Z" fill="#000000" fill-rule="nonzero" fill-opacity="1" /><path clip-path="url(#clip290)" d="M955.057 218.554 L959.941 218.554 L959.941 224.433 L955.057 224.433 L955.057 218.554 Z" fill="#000000" fill-rule="nonzero" fill-opacity="1" /><path clip-path="url(#clip290)" d="M984.293 205.799 Q987.65 206.517 989.525 208.785 Q991.423 211.054 991.423 214.387 Q991.423 219.503 987.904 222.304 Q984.386 225.104 977.904 225.104 Q975.728 225.104 973.414 224.665 Q971.122 224.248 968.668 223.392 L968.668 218.878 Q970.613 220.012 972.928 220.591 Q975.242 221.169 977.765 221.169 Q982.164 221.169 984.455 219.433 Q986.77 217.697 986.77 214.387 Q986.77 211.331 984.617 209.618 Q982.488 207.882 978.668 207.882 L974.64 207.882 L974.64 204.04 L978.853 204.04 Q982.302 204.04 984.131 202.674 Q985.96 201.285 985.96 198.693 Q985.96 196.031 984.062 194.619 Q982.187 193.183 978.668 193.183 Q976.747 193.183 974.548 193.6 Q972.349 194.017 969.71 194.896 L969.71 190.73 Q972.372 189.989 974.687 189.619 Q977.025 189.248 979.085 189.248 Q984.409 189.248 987.511 191.679 Q990.613 194.086 990.613 198.206 Q990.613 201.077 988.969 203.068 Q987.326 205.035 984.293 205.799 Z" fill="#000000" fill-rule="nonzero" fill-opacity="1" /><path clip-path="url(#clip290)" d="M999.015 188.461 L1002.72 188.461 Q1006.19 193.924 1007.9 199.156 Q1009.64 204.387 1009.64 209.549 Q1009.64 214.734 1007.9 219.989 Q1006.19 225.243 1002.72 230.683 L999.015 230.683 Q1002.09 225.382 1003.6 220.151 Q1005.13 214.896 1005.13 209.549 Q1005.13 204.202 1003.6 198.994 Q1002.09 193.785 999.015 188.461 Z" fill="#000000" fill-rule="nonzero" fill-opacity="1" /></svg>
