<?xml version="1.0" encoding="utf-8"?>
<svg xmlns="http://www.w3.org/2000/svg" xmlns:xlink="http://www.w3.org/1999/xlink" width="672" height="480" viewBox="0 0 2688 1920">
<defs>
  <clipPath id="clip330">
    <rect x="0" y="0" width="2688" height="1920"/>
  </clipPath>
</defs>
<path clip-path="url(#clip330)" d="M0 1920 L2688 1920 L2688 -4.26326e-14 L0 -4.26326e-14  Z" fill="#ffffff" fill-rule="evenodd" fill-opacity="1"/>
<defs>
  <clipPath id="clip331">
    <rect x="226" y="127" width="2416" height="1607"/>
  </clipPath>
</defs>
<path clip-path="url(#clip330)" d="M226.141 1734.12 L2640.76 1734.12 L2640.76 127.792 L226.141 127.792  Z" fill="#ffffff" fill-rule="evenodd" fill-opacity="1"/>
<polyline clip-path="url(#clip331)" style="stroke:#000000; stroke-linecap:round; stroke-linejoin:round; stroke-width:2; stroke-opacity:0.1; fill:none" points="272.575,1734.12 272.575,127.792 "/>
<polyline clip-path="url(#clip331)" style="stroke:#000000; stroke-linecap:round; stroke-linejoin:round; stroke-width:2; stroke-opacity:0.1; fill:none" points="820.157,1734.12 820.157,127.792 "/>
<polyline clip-path="url(#clip331)" style="stroke:#000000; stroke-linecap:round; stroke-linejoin:round; stroke-width:2; stroke-opacity:0.1; fill:none" points="1367.74,1734.12 1367.74,127.792 "/>
<polyline clip-path="url(#clip331)" style="stroke:#000000; stroke-linecap:round; stroke-linejoin:round; stroke-width:2; stroke-opacity:0.1; fill:none" points="1915.32,1734.12 1915.32,127.792 "/>
<polyline clip-path="url(#clip331)" style="stroke:#000000; stroke-linecap:round; stroke-linejoin:round; stroke-width:2; stroke-opacity:0.1; fill:none" points="2462.9,1734.12 2462.9,127.792 "/>
<polyline clip-path="url(#clip331)" style="stroke:#000000; stroke-linecap:round; stroke-linejoin:round; stroke-width:2; stroke-opacity:0.1; fill:none" points="226.141,1602.17 2640.76,1602.17 "/>
<polyline clip-path="url(#clip331)" style="stroke:#000000; stroke-linecap:round; stroke-linejoin:round; stroke-width:2; stroke-opacity:0.1; fill:none" points="226.141,1362.46 2640.76,1362.46 "/>
<polyline clip-path="url(#clip331)" style="stroke:#000000; stroke-linecap:round; stroke-linejoin:round; stroke-width:2; stroke-opacity:0.1; fill:none" points="226.141,1122.75 2640.76,1122.75 "/>
<polyline clip-path="url(#clip331)" style="stroke:#000000; stroke-linecap:round; stroke-linejoin:round; stroke-width:2; stroke-opacity:0.1; fill:none" points="226.141,883.039 2640.76,883.039 "/>
<polyline clip-path="url(#clip331)" style="stroke:#000000; stroke-linecap:round; stroke-linejoin:round; stroke-width:2; stroke-opacity:0.1; fill:none" points="226.141,643.327 2640.76,643.327 "/>
<polyline clip-path="url(#clip331)" style="stroke:#000000; stroke-linecap:round; stroke-linejoin:round; stroke-width:2; stroke-opacity:0.1; fill:none" points="226.141,403.615 2640.76,403.615 "/>
<polyline clip-path="url(#clip331)" style="stroke:#000000; stroke-linecap:round; stroke-linejoin:round; stroke-width:2; stroke-opacity:0.1; fill:none" points="226.141,163.903 2640.76,163.903 "/>
<polyline clip-path="url(#clip330)" style="stroke:#000000; stroke-linecap:round; stroke-linejoin:round; stroke-width:4; stroke-opacity:1; fill:none" points="226.141,1734.12 2640.76,1734.12 "/>
<polyline clip-path="url(#clip330)" style="stroke:#000000; stroke-linecap:round; stroke-linejoin:round; stroke-width:4; stroke-opacity:1; fill:none" points="272.575,1734.12 272.575,1715.22 "/>
<polyline clip-path="url(#clip330)" style="stroke:#000000; stroke-linecap:round; stroke-linejoin:round; stroke-width:4; stroke-opacity:1; fill:none" points="820.157,1734.12 820.157,1715.22 "/>
<polyline clip-path="url(#clip330)" style="stroke:#000000; stroke-linecap:round; stroke-linejoin:round; stroke-width:4; stroke-opacity:1; fill:none" points="1367.74,1734.12 1367.74,1715.22 "/>
<polyline clip-path="url(#clip330)" style="stroke:#000000; stroke-linecap:round; stroke-linejoin:round; stroke-width:4; stroke-opacity:1; fill:none" points="1915.32,1734.12 1915.32,1715.22 "/>
<polyline clip-path="url(#clip330)" style="stroke:#000000; stroke-linecap:round; stroke-linejoin:round; stroke-width:4; stroke-opacity:1; fill:none" points="2462.9,1734.12 2462.9,1715.22 "/>
<path clip-path="url(#clip330)" d="M249.96 1767.34 Q246.349 1767.34 244.52 1770.9 Q242.715 1774.45 242.715 1781.58 Q242.715 1788.68 244.52 1792.25 Q246.349 1795.79 249.96 1795.79 Q253.594 1795.79 255.4 1792.25 Q257.228 1788.68 257.228 1781.58 Q257.228 1774.45 255.4 1770.9 Q253.594 1767.34 249.96 1767.34 M249.96 1763.64 Q255.77 1763.64 258.826 1768.24 Q261.904 1772.83 261.904 1781.58 Q261.904 1790.3 258.826 1794.91 Q255.77 1799.49 249.96 1799.49 Q244.15 1799.49 241.071 1794.91 Q238.015 1790.3 238.015 1781.58 Q238.015 1772.83 241.071 1768.24 Q244.15 1763.64 249.96 1763.64 Z" fill="#000000" fill-rule="nonzero" fill-opacity="1" /><path clip-path="url(#clip330)" d="M270.122 1792.94 L275.006 1792.94 L275.006 1798.82 L270.122 1798.82 L270.122 1792.94 Z" fill="#000000" fill-rule="nonzero" fill-opacity="1" /><path clip-path="url(#clip330)" d="M295.191 1767.34 Q291.58 1767.34 289.751 1770.9 Q287.946 1774.45 287.946 1781.58 Q287.946 1788.68 289.751 1792.25 Q291.58 1795.79 295.191 1795.79 Q298.825 1795.79 300.631 1792.25 Q302.46 1788.68 302.46 1781.58 Q302.46 1774.45 300.631 1770.9 Q298.825 1767.34 295.191 1767.34 M295.191 1763.64 Q301.001 1763.64 304.057 1768.24 Q307.135 1772.83 307.135 1781.58 Q307.135 1790.3 304.057 1794.91 Q301.001 1799.49 295.191 1799.49 Q289.381 1799.49 286.302 1794.91 Q283.247 1790.3 283.247 1781.58 Q283.247 1772.83 286.302 1768.24 Q289.381 1763.64 295.191 1763.64 Z" fill="#000000" fill-rule="nonzero" fill-opacity="1" /><path clip-path="url(#clip330)" d="M791.893 1794.89 L808.213 1794.89 L808.213 1798.82 L786.268 1798.82 L786.268 1794.89 Q788.93 1792.13 793.514 1787.5 Q798.12 1782.85 799.301 1781.51 Q801.546 1778.98 802.426 1777.25 Q803.328 1775.49 803.328 1773.8 Q803.328 1771.04 801.384 1769.31 Q799.463 1767.57 796.361 1767.57 Q794.162 1767.57 791.708 1768.34 Q789.277 1769.1 786.5 1770.65 L786.5 1765.93 Q789.324 1764.79 791.777 1764.21 Q794.231 1763.64 796.268 1763.64 Q801.639 1763.64 804.833 1766.32 Q808.027 1769.01 808.027 1773.5 Q808.027 1775.63 807.217 1777.55 Q806.43 1779.45 804.324 1782.04 Q803.745 1782.71 800.643 1785.93 Q797.541 1789.12 791.893 1794.89 Z" fill="#000000" fill-rule="nonzero" fill-opacity="1" /><path clip-path="url(#clip330)" d="M818.027 1792.94 L822.912 1792.94 L822.912 1798.82 L818.027 1798.82 L818.027 1792.94 Z" fill="#000000" fill-rule="nonzero" fill-opacity="1" /><path clip-path="url(#clip330)" d="M833.143 1764.26 L851.499 1764.26 L851.499 1768.2 L837.425 1768.2 L837.425 1776.67 Q838.444 1776.32 839.462 1776.16 Q840.481 1775.97 841.499 1775.97 Q847.286 1775.97 850.666 1779.15 Q854.046 1782.32 854.046 1787.73 Q854.046 1793.31 850.573 1796.41 Q847.101 1799.49 840.782 1799.49 Q838.606 1799.49 836.337 1799.12 Q834.092 1798.75 831.685 1798.01 L831.685 1793.31 Q833.768 1794.45 835.99 1795 Q838.212 1795.56 840.689 1795.56 Q844.694 1795.56 847.032 1793.45 Q849.37 1791.34 849.37 1787.73 Q849.37 1784.12 847.032 1782.02 Q844.694 1779.91 840.689 1779.91 Q838.814 1779.91 836.939 1780.33 Q835.087 1780.74 833.143 1781.62 L833.143 1764.26 Z" fill="#000000" fill-rule="nonzero" fill-opacity="1" /><path clip-path="url(#clip330)" d="M1334.9 1764.26 L1353.26 1764.26 L1353.26 1768.2 L1339.19 1768.2 L1339.19 1776.67 Q1340.2 1776.32 1341.22 1776.16 Q1342.24 1775.97 1343.26 1775.97 Q1349.05 1775.97 1352.43 1779.15 Q1355.81 1782.32 1355.81 1787.73 Q1355.81 1793.31 1352.33 1796.41 Q1348.86 1799.49 1342.54 1799.49 Q1340.37 1799.49 1338.1 1799.12 Q1335.85 1798.75 1333.44 1798.01 L1333.44 1793.31 Q1335.53 1794.45 1337.75 1795 Q1339.97 1795.56 1342.45 1795.56 Q1346.45 1795.56 1348.79 1793.45 Q1351.13 1791.34 1351.13 1787.73 Q1351.13 1784.12 1348.79 1782.02 Q1346.45 1779.91 1342.45 1779.91 Q1340.57 1779.91 1338.7 1780.33 Q1336.85 1780.74 1334.9 1781.62 L1334.9 1764.26 Z" fill="#000000" fill-rule="nonzero" fill-opacity="1" /><path clip-path="url(#clip330)" d="M1365.02 1792.94 L1369.9 1792.94 L1369.9 1798.82 L1365.02 1798.82 L1365.02 1792.94 Z" fill="#000000" fill-rule="nonzero" fill-opacity="1" /><path clip-path="url(#clip330)" d="M1390.09 1767.34 Q1386.48 1767.34 1384.65 1770.9 Q1382.84 1774.45 1382.84 1781.58 Q1382.84 1788.68 1384.65 1792.25 Q1386.48 1795.79 1390.09 1795.79 Q1393.72 1795.79 1395.53 1792.25 Q1397.36 1788.68 1397.36 1781.58 Q1397.36 1774.45 1395.53 1770.9 Q1393.72 1767.34 1390.09 1767.34 M1390.09 1763.64 Q1395.9 1763.64 1398.95 1768.24 Q1402.03 1772.83 1402.03 1781.58 Q1402.03 1790.3 1398.95 1794.91 Q1395.9 1799.49 1390.09 1799.49 Q1384.28 1799.49 1381.2 1794.91 Q1378.14 1790.3 1378.14 1781.58 Q1378.14 1772.83 1381.2 1768.24 Q1384.28 1763.64 1390.09 1763.64 Z" fill="#000000" fill-rule="nonzero" fill-opacity="1" /><path clip-path="url(#clip330)" d="M1881.64 1764.26 L1903.86 1764.26 L1903.86 1766.25 L1891.32 1798.82 L1886.43 1798.82 L1898.24 1768.2 L1881.64 1768.2 L1881.64 1764.26 Z" fill="#000000" fill-rule="nonzero" fill-opacity="1" /><path clip-path="url(#clip330)" d="M1912.98 1792.94 L1917.87 1792.94 L1917.87 1798.82 L1912.98 1798.82 L1912.98 1792.94 Z" fill="#000000" fill-rule="nonzero" fill-opacity="1" /><path clip-path="url(#clip330)" d="M1928.1 1764.26 L1946.45 1764.26 L1946.45 1768.2 L1932.38 1768.2 L1932.38 1776.67 Q1933.4 1776.32 1934.42 1776.16 Q1935.44 1775.97 1936.45 1775.97 Q1942.24 1775.97 1945.62 1779.15 Q1949 1782.32 1949 1787.73 Q1949 1793.31 1945.53 1796.41 Q1942.06 1799.49 1935.74 1799.49 Q1933.56 1799.49 1931.29 1799.12 Q1929.05 1798.75 1926.64 1798.01 L1926.64 1793.31 Q1928.72 1794.45 1930.94 1795 Q1933.17 1795.56 1935.64 1795.56 Q1939.65 1795.56 1941.99 1793.45 Q1944.32 1791.34 1944.32 1787.73 Q1944.32 1784.12 1941.99 1782.02 Q1939.65 1779.91 1935.64 1779.91 Q1933.77 1779.91 1931.89 1780.33 Q1930.04 1780.74 1928.1 1781.62 L1928.1 1764.26 Z" fill="#000000" fill-rule="nonzero" fill-opacity="1" /><path clip-path="url(#clip330)" d="M2414.97 1794.89 L2422.61 1794.89 L2422.61 1768.52 L2414.3 1770.19 L2414.3 1765.93 L2422.57 1764.26 L2427.24 1764.26 L2427.24 1794.89 L2434.88 1794.89 L2434.88 1798.82 L2414.97 1798.82 L2414.97 1794.89 Z" fill="#000000" fill-rule="nonzero" fill-opacity="1" /><path clip-path="url(#clip330)" d="M2454.33 1767.34 Q2450.71 1767.34 2448.89 1770.9 Q2447.08 1774.45 2447.08 1781.58 Q2447.08 1788.68 2448.89 1792.25 Q2450.71 1795.79 2454.33 1795.79 Q2457.96 1795.79 2459.76 1792.25 Q2461.59 1788.68 2461.59 1781.58 Q2461.59 1774.45 2459.76 1770.9 Q2457.96 1767.34 2454.33 1767.34 M2454.33 1763.64 Q2460.14 1763.64 2463.19 1768.24 Q2466.27 1772.83 2466.27 1781.58 Q2466.27 1790.3 2463.19 1794.91 Q2460.14 1799.49 2454.33 1799.49 Q2448.51 1799.49 2445.44 1794.91 Q2442.38 1790.3 2442.38 1781.58 Q2442.38 1772.83 2445.44 1768.24 Q2448.51 1763.64 2454.33 1763.64 Z" fill="#000000" fill-rule="nonzero" fill-opacity="1" /><path clip-path="url(#clip330)" d="M2474.49 1792.94 L2479.37 1792.94 L2479.37 1798.82 L2474.49 1798.82 L2474.49 1792.94 Z" fill="#000000" fill-rule="nonzero" fill-opacity="1" /><path clip-path="url(#clip330)" d="M2499.56 1767.34 Q2495.95 1767.34 2494.12 1770.9 Q2492.31 1774.45 2492.31 1781.58 Q2492.31 1788.68 2494.12 1792.25 Q2495.95 1795.79 2499.56 1795.79 Q2503.19 1795.79 2505 1792.25 Q2506.82 1788.68 2506.82 1781.58 Q2506.82 1774.45 2505 1770.9 Q2503.19 1767.34 2499.56 1767.34 M2499.56 1763.64 Q2505.37 1763.64 2508.42 1768.24 Q2511.5 1772.83 2511.5 1781.58 Q2511.5 1790.3 2508.42 1794.91 Q2505.37 1799.49 2499.56 1799.49 Q2493.75 1799.49 2490.67 1794.91 Q2487.61 1790.3 2487.61 1781.58 Q2487.61 1772.83 2490.67 1768.24 Q2493.75 1763.64 2499.56 1763.64 Z" fill="#000000" fill-rule="nonzero" fill-opacity="1" /><path clip-path="url(#clip330)" d="M1415.47 1835.78 L1424.12 1835.78 L1445.19 1875.53 L1445.19 1835.78 L1451.43 1835.78 L1451.43 1883.3 L1442.77 1883.3 L1421.7 1843.55 L1421.7 1883.3 L1415.47 1883.3 L1415.47 1835.78 Z" fill="#000000" fill-rule="nonzero" fill-opacity="1" /><polyline clip-path="url(#clip330)" style="stroke:#000000; stroke-linecap:round; stroke-linejoin:round; stroke-width:4; stroke-opacity:1; fill:none" points="226.141,1734.12 226.141,127.792 "/>
<polyline clip-path="url(#clip330)" style="stroke:#000000; stroke-linecap:round; stroke-linejoin:round; stroke-width:4; stroke-opacity:1; fill:none" points="226.141,1602.17 245.038,1602.17 "/>
<polyline clip-path="url(#clip330)" style="stroke:#000000; stroke-linecap:round; stroke-linejoin:round; stroke-width:4; stroke-opacity:1; fill:none" points="226.141,1362.46 245.038,1362.46 "/>
<polyline clip-path="url(#clip330)" style="stroke:#000000; stroke-linecap:round; stroke-linejoin:round; stroke-width:4; stroke-opacity:1; fill:none" points="226.141,1122.75 245.038,1122.75 "/>
<polyline clip-path="url(#clip330)" style="stroke:#000000; stroke-linecap:round; stroke-linejoin:round; stroke-width:4; stroke-opacity:1; fill:none" points="226.141,883.039 245.038,883.039 "/>
<polyline clip-path="url(#clip330)" style="stroke:#000000; stroke-linecap:round; stroke-linejoin:round; stroke-width:4; stroke-opacity:1; fill:none" points="226.141,643.327 245.038,643.327 "/>
<polyline clip-path="url(#clip330)" style="stroke:#000000; stroke-linecap:round; stroke-linejoin:round; stroke-width:4; stroke-opacity:1; fill:none" points="226.141,403.615 245.038,403.615 "/>
<polyline clip-path="url(#clip330)" style="stroke:#000000; stroke-linecap:round; stroke-linejoin:round; stroke-width:4; stroke-opacity:1; fill:none" points="226.141,163.903 245.038,163.903 "/>
<path clip-path="url(#clip330)" d="M128.645 1587.97 Q125.034 1587.97 123.205 1591.54 Q121.4 1595.08 121.4 1602.21 Q121.4 1609.32 123.205 1612.88 Q125.034 1616.42 128.645 1616.42 Q132.279 1616.42 134.085 1612.88 Q135.913 1609.32 135.913 1602.21 Q135.913 1595.08 134.085 1591.54 Q132.279 1587.97 128.645 1587.97 M128.645 1584.27 Q134.455 1584.27 137.511 1588.88 Q140.589 1593.46 140.589 1602.21 Q140.589 1610.94 137.511 1615.54 Q134.455 1620.13 128.645 1620.13 Q122.835 1620.13 119.756 1615.54 Q116.701 1610.94 116.701 1602.21 Q116.701 1593.46 119.756 1588.88 Q122.835 1584.27 128.645 1584.27 Z" fill="#000000" fill-rule="nonzero" fill-opacity="1" /><path clip-path="url(#clip330)" d="M148.807 1613.57 L153.691 1613.57 L153.691 1619.45 L148.807 1619.45 L148.807 1613.57 Z" fill="#000000" fill-rule="nonzero" fill-opacity="1" /><path clip-path="url(#clip330)" d="M173.876 1587.97 Q170.265 1587.97 168.436 1591.54 Q166.631 1595.08 166.631 1602.21 Q166.631 1609.32 168.436 1612.88 Q170.265 1616.42 173.876 1616.42 Q177.51 1616.42 179.316 1612.88 Q181.145 1609.32 181.145 1602.21 Q181.145 1595.08 179.316 1591.54 Q177.51 1587.97 173.876 1587.97 M173.876 1584.27 Q179.686 1584.27 182.742 1588.88 Q185.821 1593.46 185.821 1602.21 Q185.821 1610.94 182.742 1615.54 Q179.686 1620.13 173.876 1620.13 Q168.066 1620.13 164.987 1615.54 Q161.932 1610.94 161.932 1602.21 Q161.932 1593.46 164.987 1588.88 Q168.066 1584.27 173.876 1584.27 Z" fill="#000000" fill-rule="nonzero" fill-opacity="1" /><path clip-path="url(#clip330)" d="M129.872 1348.26 Q126.261 1348.26 124.432 1351.83 Q122.626 1355.37 122.626 1362.5 Q122.626 1369.6 124.432 1373.17 Q126.261 1376.71 129.872 1376.71 Q133.506 1376.71 135.312 1373.17 Q137.14 1369.6 137.14 1362.5 Q137.14 1355.37 135.312 1351.83 Q133.506 1348.26 129.872 1348.26 M129.872 1344.56 Q135.682 1344.56 138.737 1349.16 Q141.816 1353.75 141.816 1362.5 Q141.816 1371.22 138.737 1375.83 Q135.682 1380.41 129.872 1380.41 Q124.062 1380.41 120.983 1375.83 Q117.927 1371.22 117.927 1362.5 Q117.927 1353.75 120.983 1349.16 Q124.062 1344.56 129.872 1344.56 Z" fill="#000000" fill-rule="nonzero" fill-opacity="1" /><path clip-path="url(#clip330)" d="M150.034 1373.86 L154.918 1373.86 L154.918 1379.74 L150.034 1379.74 L150.034 1373.86 Z" fill="#000000" fill-rule="nonzero" fill-opacity="1" /><path clip-path="url(#clip330)" d="M165.913 1375.81 L173.552 1375.81 L173.552 1349.44 L165.242 1351.11 L165.242 1346.85 L173.506 1345.18 L178.182 1345.18 L178.182 1375.81 L185.821 1375.81 L185.821 1379.74 L165.913 1379.74 L165.913 1375.81 Z" fill="#000000" fill-rule="nonzero" fill-opacity="1" /><path clip-path="url(#clip330)" d="M130.242 1108.55 Q126.631 1108.55 124.802 1112.11 Q122.997 1115.66 122.997 1122.79 Q122.997 1129.89 124.802 1133.46 Q126.631 1137 130.242 1137 Q133.876 1137 135.682 1133.46 Q137.511 1129.89 137.511 1122.79 Q137.511 1115.66 135.682 1112.11 Q133.876 1108.55 130.242 1108.55 M130.242 1104.85 Q136.052 1104.85 139.108 1109.45 Q142.187 1114.04 142.187 1122.79 Q142.187 1131.51 139.108 1136.12 Q136.052 1140.7 130.242 1140.7 Q124.432 1140.7 121.353 1136.12 Q118.298 1131.51 118.298 1122.79 Q118.298 1114.04 121.353 1109.45 Q124.432 1104.85 130.242 1104.85 Z" fill="#000000" fill-rule="nonzero" fill-opacity="1" /><path clip-path="url(#clip330)" d="M150.404 1134.15 L155.288 1134.15 L155.288 1140.03 L150.404 1140.03 L150.404 1134.15 Z" fill="#000000" fill-rule="nonzero" fill-opacity="1" /><path clip-path="url(#clip330)" d="M169.501 1136.1 L185.821 1136.1 L185.821 1140.03 L163.876 1140.03 L163.876 1136.1 Q166.538 1133.34 171.122 1128.71 Q175.728 1124.06 176.909 1122.72 Q179.154 1120.19 180.034 1118.46 Q180.936 1116.7 180.936 1115.01 Q180.936 1112.25 178.992 1110.52 Q177.071 1108.78 173.969 1108.78 Q171.77 1108.78 169.316 1109.54 Q166.885 1110.31 164.108 1111.86 L164.108 1107.14 Q166.932 1106 169.385 1105.42 Q171.839 1104.85 173.876 1104.85 Q179.247 1104.85 182.441 1107.53 Q185.635 1110.22 185.635 1114.71 Q185.635 1116.84 184.825 1118.76 Q184.038 1120.66 181.932 1123.25 Q181.353 1123.92 178.251 1127.14 Q175.149 1130.33 169.501 1136.1 Z" fill="#000000" fill-rule="nonzero" fill-opacity="1" /><path clip-path="url(#clip330)" d="M129.293 868.837 Q125.682 868.837 123.853 872.402 Q122.048 875.944 122.048 883.073 Q122.048 890.18 123.853 893.745 Q125.682 897.286 129.293 897.286 Q132.927 897.286 134.733 893.745 Q136.562 890.18 136.562 883.073 Q136.562 875.944 134.733 872.402 Q132.927 868.837 129.293 868.837 M129.293 865.134 Q135.103 865.134 138.159 869.74 Q141.237 874.323 141.237 883.073 Q141.237 891.8 138.159 896.407 Q135.103 900.99 129.293 900.99 Q123.483 900.99 120.404 896.407 Q117.349 891.8 117.349 883.073 Q117.349 874.323 120.404 869.74 Q123.483 865.134 129.293 865.134 Z" fill="#000000" fill-rule="nonzero" fill-opacity="1" /><path clip-path="url(#clip330)" d="M149.455 894.439 L154.339 894.439 L154.339 900.319 L149.455 900.319 L149.455 894.439 Z" fill="#000000" fill-rule="nonzero" fill-opacity="1" /><path clip-path="url(#clip330)" d="M178.691 881.685 Q182.047 882.402 183.922 884.671 Q185.821 886.939 185.821 890.272 Q185.821 895.388 182.302 898.189 Q178.784 900.99 172.302 900.99 Q170.126 900.99 167.811 900.55 Q165.52 900.134 163.066 899.277 L163.066 894.763 Q165.01 895.897 167.325 896.476 Q169.64 897.055 172.163 897.055 Q176.561 897.055 178.853 895.319 Q181.168 893.583 181.168 890.272 Q181.168 887.217 179.015 885.504 Q176.885 883.768 173.066 883.768 L169.038 883.768 L169.038 879.925 L173.251 879.925 Q176.7 879.925 178.529 878.56 Q180.358 877.171 180.358 874.578 Q180.358 871.916 178.459 870.504 Q176.584 869.069 173.066 869.069 Q171.145 869.069 168.946 869.486 Q166.747 869.902 164.108 870.782 L164.108 866.615 Q166.77 865.874 169.085 865.504 Q171.422 865.134 173.483 865.134 Q178.807 865.134 181.909 867.564 Q185.01 869.972 185.01 874.092 Q185.01 876.962 183.367 878.953 Q181.723 880.921 178.691 881.685 Z" fill="#000000" fill-rule="nonzero" fill-opacity="1" /><path clip-path="url(#clip330)" d="M128.159 629.126 Q124.548 629.126 122.719 632.69 Q120.913 636.232 120.913 643.362 Q120.913 650.468 122.719 654.033 Q124.548 657.575 128.159 657.575 Q131.793 657.575 133.599 654.033 Q135.427 650.468 135.427 643.362 Q135.427 636.232 133.599 632.69 Q131.793 629.126 128.159 629.126 M128.159 625.422 Q133.969 625.422 137.025 630.028 Q140.103 634.612 140.103 643.362 Q140.103 652.088 137.025 656.695 Q133.969 661.278 128.159 661.278 Q122.349 661.278 119.27 656.695 Q116.214 652.088 116.214 643.362 Q116.214 634.612 119.27 630.028 Q122.349 625.422 128.159 625.422 Z" fill="#000000" fill-rule="nonzero" fill-opacity="1" /><path clip-path="url(#clip330)" d="M148.321 654.727 L153.205 654.727 L153.205 660.607 L148.321 660.607 L148.321 654.727 Z" fill="#000000" fill-rule="nonzero" fill-opacity="1" /><path clip-path="url(#clip330)" d="M176.237 630.121 L164.432 648.57 L176.237 648.57 L176.237 630.121 M175.01 626.047 L180.89 626.047 L180.89 648.57 L185.821 648.57 L185.821 652.459 L180.89 652.459 L180.89 660.607 L176.237 660.607 L176.237 652.459 L160.636 652.459 L160.636 647.945 L175.01 626.047 Z" fill="#000000" fill-rule="nonzero" fill-opacity="1" /><path clip-path="url(#clip330)" d="M129.64 389.414 Q126.029 389.414 124.201 392.979 Q122.395 396.52 122.395 403.65 Q122.395 410.756 124.201 414.321 Q126.029 417.863 129.64 417.863 Q133.275 417.863 135.08 414.321 Q136.909 410.756 136.909 403.65 Q136.909 396.52 135.08 392.979 Q133.275 389.414 129.64 389.414 M129.64 385.71 Q135.45 385.71 138.506 390.317 Q141.585 394.9 141.585 403.65 Q141.585 412.377 138.506 416.983 Q135.45 421.566 129.64 421.566 Q123.83 421.566 120.751 416.983 Q117.696 412.377 117.696 403.65 Q117.696 394.9 120.751 390.317 Q123.83 385.71 129.64 385.71 Z" fill="#000000" fill-rule="nonzero" fill-opacity="1" /><path clip-path="url(#clip330)" d="M149.802 415.016 L154.686 415.016 L154.686 420.895 L149.802 420.895 L149.802 415.016 Z" fill="#000000" fill-rule="nonzero" fill-opacity="1" /><path clip-path="url(#clip330)" d="M164.918 386.335 L183.274 386.335 L183.274 390.27 L169.2 390.27 L169.2 398.742 Q170.219 398.395 171.237 398.233 Q172.256 398.048 173.274 398.048 Q179.061 398.048 182.441 401.219 Q185.821 404.391 185.821 409.807 Q185.821 415.386 182.348 418.488 Q178.876 421.566 172.557 421.566 Q170.381 421.566 168.112 421.196 Q165.867 420.826 163.46 420.085 L163.46 415.386 Q165.543 416.52 167.765 417.076 Q169.987 417.631 172.464 417.631 Q176.469 417.631 178.807 415.525 Q181.145 413.418 181.145 409.807 Q181.145 406.196 178.807 404.09 Q176.469 401.983 172.464 401.983 Q170.589 401.983 168.714 402.4 Q166.862 402.816 164.918 403.696 L164.918 386.335 Z" fill="#000000" fill-rule="nonzero" fill-opacity="1" /><path clip-path="url(#clip330)" d="M128.483 149.702 Q124.872 149.702 123.043 153.267 Q121.238 156.808 121.238 163.938 Q121.238 171.044 123.043 174.609 Q124.872 178.151 128.483 178.151 Q132.117 178.151 133.923 174.609 Q135.751 171.044 135.751 163.938 Q135.751 156.808 133.923 153.267 Q132.117 149.702 128.483 149.702 M128.483 145.998 Q134.293 145.998 137.349 150.605 Q140.427 155.188 140.427 163.938 Q140.427 172.665 137.349 177.271 Q134.293 181.855 128.483 181.855 Q122.673 181.855 119.594 177.271 Q116.539 172.665 116.539 163.938 Q116.539 155.188 119.594 150.605 Q122.673 145.998 128.483 145.998 Z" fill="#000000" fill-rule="nonzero" fill-opacity="1" /><path clip-path="url(#clip330)" d="M148.645 175.304 L153.529 175.304 L153.529 181.183 L148.645 181.183 L148.645 175.304 Z" fill="#000000" fill-rule="nonzero" fill-opacity="1" /><path clip-path="url(#clip330)" d="M174.293 162.04 Q171.145 162.04 169.293 164.193 Q167.464 166.345 167.464 170.095 Q167.464 173.822 169.293 175.998 Q171.145 178.151 174.293 178.151 Q177.441 178.151 179.27 175.998 Q181.122 173.822 181.122 170.095 Q181.122 166.345 179.27 164.193 Q177.441 162.04 174.293 162.04 M183.575 147.387 L183.575 151.646 Q181.816 150.813 180.01 150.373 Q178.228 149.933 176.469 149.933 Q171.839 149.933 169.385 153.058 Q166.955 156.183 166.608 162.503 Q167.973 160.489 170.034 159.424 Q172.094 158.336 174.571 158.336 Q179.779 158.336 182.788 161.507 Q185.821 164.656 185.821 170.095 Q185.821 175.419 182.672 178.637 Q179.524 181.855 174.293 181.855 Q168.297 181.855 165.126 177.271 Q161.955 172.665 161.955 163.938 Q161.955 155.744 165.844 150.883 Q169.733 145.998 176.284 145.998 Q178.043 145.998 179.825 146.346 Q181.631 146.693 183.575 147.387 Z" fill="#000000" fill-rule="nonzero" fill-opacity="1" /><path clip-path="url(#clip330)" d="M31.465 967.526 Q30.8921 968.512 30.6375 969.69 Q30.351 970.836 30.351 972.236 Q30.351 977.201 33.5975 979.875 Q36.8122 982.517 42.8596 982.517 L61.6384 982.517 L61.6384 988.405 L25.9905 988.405 L25.9905 982.517 L31.5287 982.517 Q28.2821 980.671 26.7225 977.711 Q25.1311 974.751 25.1311 970.517 Q25.1311 969.913 25.2266 969.181 Q25.2903 968.449 25.4494 967.557 L31.465 967.526 Z" fill="#000000" fill-rule="nonzero" fill-opacity="1" /><path clip-path="url(#clip330)" d="M12.1769 947.314 Q19.4975 951.579 26.6589 953.648 Q33.8203 955.717 41.1727 955.717 Q48.5251 955.717 55.7502 953.648 Q62.9434 951.548 70.2321 947.314 L70.2321 952.407 Q62.7524 957.181 55.5274 959.568 Q48.3023 961.924 41.1727 961.924 Q34.0749 961.924 26.8817 959.568 Q19.6884 957.213 12.1769 952.407 L12.1769 947.314 Z" fill="#000000" fill-rule="nonzero" fill-opacity="1" /><path clip-path="url(#clip330)" d="M14.1184 935.697 L14.1184 927.04 L53.8723 905.969 L14.1184 905.969 L14.1184 899.731 L61.6384 899.731 L61.6384 908.388 L21.8846 929.459 L61.6384 929.459 L61.6384 935.697 L14.1184 935.697 Z" fill="#000000" fill-rule="nonzero" fill-opacity="1" /><path clip-path="url(#clip330)" d="M12.1769 888.113 L12.1769 883.021 Q19.6884 878.247 26.8817 875.891 Q34.0749 873.504 41.1727 873.504 Q48.3023 873.504 55.5274 875.891 Q62.7524 878.247 70.2321 883.021 L70.2321 888.113 Q62.9434 883.88 55.7502 881.811 Q48.5251 879.711 41.1727 879.711 Q33.8203 879.711 26.6589 881.811 Q19.4975 883.88 12.1769 888.113 Z" fill="#000000" fill-rule="nonzero" fill-opacity="1" /><path clip-path="url(#clip330)" d="M910.558 12.096 L948.798 12.096 L948.798 18.9825 L918.74 18.9825 L918.74 36.8875 L947.542 36.8875 L947.542 43.7741 L918.74 43.7741 L918.74 65.6895 L949.527 65.6895 L949.527 72.576 L910.558 72.576 L910.558 12.096 Z" fill="#000000" fill-rule="nonzero" fill-opacity="1" /><path clip-path="url(#clip330)" d="M991.576 28.5427 L991.576 35.5912 Q988.416 33.9709 985.013 33.1607 Q981.61 32.3505 977.965 32.3505 Q972.415 32.3505 969.62 34.0519 Q966.865 35.7533 966.865 39.156 Q966.865 41.7486 968.85 43.2475 Q970.835 44.7058 976.83 46.0426 L979.382 46.6097 Q987.322 48.3111 990.644 51.4303 Q994.006 54.509 994.006 60.0587 Q994.006 66.3781 988.983 70.0644 Q984 73.7508 975.25 73.7508 Q971.605 73.7508 967.635 73.0216 Q963.705 72.3329 959.33 70.9151 L959.33 63.2184 Q963.462 65.3654 967.473 66.4591 Q971.483 67.5124 975.412 67.5124 Q980.679 67.5124 983.514 65.73 Q986.35 63.9071 986.35 60.6258 Q986.35 57.5877 984.284 55.9673 Q982.259 54.3469 975.331 52.8481 L972.739 52.2405 Q965.812 50.7821 962.733 47.7845 Q959.654 44.7463 959.654 39.4801 Q959.654 33.0797 964.191 29.5959 Q968.728 26.1121 977.073 26.1121 Q981.205 26.1121 984.851 26.7198 Q988.497 27.3274 991.576 28.5427 Z" fill="#000000" fill-rule="nonzero" fill-opacity="1" /><path clip-path="url(#clip330)" d="M1013.25 14.324 L1013.25 27.2059 L1028.6 27.2059 L1028.6 32.9987 L1013.25 32.9987 L1013.25 57.6282 Q1013.25 63.1779 1014.75 64.7578 Q1016.29 66.3376 1020.94 66.3376 L1028.6 66.3376 L1028.6 72.576 L1020.94 72.576 Q1012.32 72.576 1009.03 69.3758 Q1005.75 66.1351 1005.75 57.6282 L1005.75 32.9987 L1000.29 32.9987 L1000.29 27.2059 L1005.75 27.2059 L1005.75 14.324 L1013.25 14.324 Z" fill="#000000" fill-rule="nonzero" fill-opacity="1" /><path clip-path="url(#clip330)" d="M1038.4 27.2059 L1045.86 27.2059 L1045.86 72.576 L1038.4 72.576 L1038.4 27.2059 M1038.4 9.54393 L1045.86 9.54393 L1045.86 18.9825 L1038.4 18.9825 L1038.4 9.54393 Z" fill="#000000" fill-rule="nonzero" fill-opacity="1" /><path clip-path="url(#clip330)" d="M1096.78 35.9153 Q1099.57 30.8922 1103.46 28.5022 Q1107.35 26.1121 1112.62 26.1121 Q1119.71 26.1121 1123.55 31.0947 Q1127.4 36.0368 1127.4 45.1919 L1127.4 72.576 L1119.91 72.576 L1119.91 45.4349 Q1119.91 38.913 1117.6 35.7533 Q1115.29 32.5936 1110.55 32.5936 Q1104.76 32.5936 1101.4 36.4419 Q1098.03 40.2903 1098.03 46.9338 L1098.03 72.576 L1090.54 72.576 L1090.54 45.4349 Q1090.54 38.8725 1088.23 35.7533 Q1085.92 32.5936 1081.1 32.5936 Q1075.39 32.5936 1072.03 36.4824 Q1068.66 40.3308 1068.66 46.9338 L1068.66 72.576 L1061.17 72.576 L1061.17 27.2059 L1068.66 27.2059 L1068.66 34.2544 Q1071.22 30.082 1074.78 28.0971 Q1078.35 26.1121 1083.25 26.1121 Q1088.19 26.1121 1091.63 28.6237 Q1095.12 31.1352 1096.78 35.9153 Z" fill="#000000" fill-rule="nonzero" fill-opacity="1" /><path clip-path="url(#clip330)" d="M1162.89 49.7694 Q1153.85 49.7694 1150.37 51.8354 Q1146.89 53.9013 1146.89 58.8839 Q1146.89 62.8538 1149.48 65.2034 Q1152.11 67.5124 1156.61 67.5124 Q1162.81 67.5124 1166.53 63.1374 Q1170.3 58.7219 1170.3 51.4303 L1170.3 49.7694 L1162.89 49.7694 M1177.76 46.6907 L1177.76 72.576 L1170.3 72.576 L1170.3 65.6895 Q1167.75 69.8214 1163.94 71.8063 Q1160.13 73.7508 1154.62 73.7508 Q1147.66 73.7508 1143.53 69.8619 Q1139.43 65.9325 1139.43 59.3701 Q1139.43 51.7138 1144.54 47.825 Q1149.68 43.9361 1159.85 43.9361 L1170.3 43.9361 L1170.3 43.2069 Q1170.3 38.0623 1166.9 35.2672 Q1163.54 32.4315 1157.42 32.4315 Q1153.53 32.4315 1149.84 33.3632 Q1146.16 34.295 1142.76 36.1584 L1142.76 29.2718 Q1146.85 27.692 1150.7 26.9223 Q1154.54 26.1121 1158.19 26.1121 Q1168.03 26.1121 1172.89 31.2163 Q1177.76 36.3204 1177.76 46.6907 Z" fill="#000000" fill-rule="nonzero" fill-opacity="1" /><path clip-path="url(#clip330)" d="M1200.48 14.324 L1200.48 27.2059 L1215.83 27.2059 L1215.83 32.9987 L1200.48 32.9987 L1200.48 57.6282 Q1200.48 63.1779 1201.98 64.7578 Q1203.52 66.3376 1208.18 66.3376 L1215.83 66.3376 L1215.83 72.576 L1208.18 72.576 Q1199.55 72.576 1196.27 69.3758 Q1192.99 66.1351 1192.99 57.6282 L1192.99 32.9987 L1187.52 32.9987 L1187.52 27.2059 L1192.99 27.2059 L1192.99 14.324 L1200.48 14.324 Z" fill="#000000" fill-rule="nonzero" fill-opacity="1" /><path clip-path="url(#clip330)" d="M1264.44 48.0275 L1264.44 51.6733 L1230.17 51.6733 Q1230.66 59.3701 1234.79 63.421 Q1238.96 67.4314 1246.38 67.4314 Q1250.67 67.4314 1254.68 66.3781 Q1258.73 65.3249 1262.7 63.2184 L1262.7 70.267 Q1258.69 71.9684 1254.48 72.8596 Q1250.27 73.7508 1245.93 73.7508 Q1235.08 73.7508 1228.72 67.4314 Q1222.4 61.1119 1222.4 50.3365 Q1222.4 39.1965 1228.39 32.6746 Q1234.43 26.1121 1244.64 26.1121 Q1253.79 26.1121 1259.1 32.0264 Q1264.44 37.9003 1264.44 48.0275 M1256.99 45.84 Q1256.91 39.7232 1253.55 36.0774 Q1250.23 32.4315 1244.72 32.4315 Q1238.48 32.4315 1234.71 35.9558 Q1230.98 39.4801 1230.42 45.8805 L1256.99 45.84 Z" fill="#000000" fill-rule="nonzero" fill-opacity="1" /><path clip-path="url(#clip330)" d="M1306.53 34.0924 L1306.53 9.54393 L1313.99 9.54393 L1313.99 72.576 L1306.53 72.576 L1306.53 65.7705 Q1304.18 69.8214 1300.58 71.8063 Q1297.01 73.7508 1291.99 73.7508 Q1283.77 73.7508 1278.58 67.1883 Q1273.44 60.6258 1273.44 49.9314 Q1273.44 39.2371 1278.58 32.6746 Q1283.77 26.1121 1291.99 26.1121 Q1297.01 26.1121 1300.58 28.0971 Q1304.18 30.0415 1306.53 34.0924 M1281.13 49.9314 Q1281.13 58.1548 1284.5 62.8538 Q1287.9 67.5124 1293.81 67.5124 Q1299.73 67.5124 1303.13 62.8538 Q1306.53 58.1548 1306.53 49.9314 Q1306.53 41.7081 1303.13 37.0496 Q1299.73 32.3505 1293.81 32.3505 Q1287.9 32.3505 1284.5 37.0496 Q1281.13 41.7081 1281.13 49.9314 Z" fill="#000000" fill-rule="nonzero" fill-opacity="1" /><path clip-path="url(#clip330)" d="M1362.92 65.7705 L1362.92 89.8329 L1355.43 89.8329 L1355.43 27.2059 L1362.92 27.2059 L1362.92 34.0924 Q1365.27 30.0415 1368.84 28.0971 Q1372.44 26.1121 1377.42 26.1121 Q1385.69 26.1121 1390.83 32.6746 Q1396.02 39.2371 1396.02 49.9314 Q1396.02 60.6258 1390.83 67.1883 Q1385.69 73.7508 1377.42 73.7508 Q1372.44 73.7508 1368.84 71.8063 Q1365.27 69.8214 1362.92 65.7705 M1388.28 49.9314 Q1388.28 41.7081 1384.88 37.0496 Q1381.52 32.3505 1375.6 32.3505 Q1369.69 32.3505 1366.28 37.0496 Q1362.92 41.7081 1362.92 49.9314 Q1362.92 58.1548 1366.28 62.8538 Q1369.69 67.5124 1375.6 67.5124 Q1381.52 67.5124 1384.88 62.8538 Q1388.28 58.1548 1388.28 49.9314 Z" fill="#000000" fill-rule="nonzero" fill-opacity="1" /><path clip-path="url(#clip330)" d="M1447.18 48.0275 L1447.18 51.6733 L1412.91 51.6733 Q1413.4 59.3701 1417.53 63.421 Q1421.7 67.4314 1429.11 67.4314 Q1433.41 67.4314 1437.42 66.3781 Q1441.47 65.3249 1445.44 63.2184 L1445.44 70.267 Q1441.43 71.9684 1437.22 72.8596 Q1433 73.7508 1428.67 73.7508 Q1417.81 73.7508 1411.45 67.4314 Q1405.13 61.1119 1405.13 50.3365 Q1405.13 39.1965 1411.13 32.6746 Q1417.16 26.1121 1427.37 26.1121 Q1436.53 26.1121 1441.83 32.0264 Q1447.18 37.9003 1447.18 48.0275 M1439.73 45.84 Q1439.65 39.7232 1436.28 36.0774 Q1432.96 32.4315 1427.45 32.4315 Q1421.21 32.4315 1417.45 35.9558 Q1413.72 39.4801 1413.15 45.8805 L1439.73 45.84 Z" fill="#000000" fill-rule="nonzero" fill-opacity="1" /><path clip-path="url(#clip330)" d="M1485.7 34.1734 Q1484.45 33.4443 1482.95 33.1202 Q1481.49 32.7556 1479.71 32.7556 Q1473.39 32.7556 1469.99 36.8875 Q1466.63 40.9789 1466.63 48.6757 L1466.63 72.576 L1459.13 72.576 L1459.13 27.2059 L1466.63 27.2059 L1466.63 34.2544 Q1468.97 30.1225 1472.74 28.1376 Q1476.51 26.1121 1481.9 26.1121 Q1482.67 26.1121 1483.6 26.2337 Q1484.53 26.3147 1485.66 26.5172 L1485.7 34.1734 Z" fill="#000000" fill-rule="nonzero" fill-opacity="1" /><path clip-path="url(#clip330)" d="M1484.45 46.5287 L1506.28 46.5287 L1506.28 53.1722 L1484.45 53.1722 L1484.45 46.5287 Z" fill="#000000" fill-rule="nonzero" fill-opacity="1" /><path clip-path="url(#clip330)" d="M1550.8 28.9478 L1550.8 35.9153 Q1547.64 34.1734 1544.44 33.3227 Q1541.28 32.4315 1538.04 32.4315 Q1530.79 32.4315 1526.78 37.0496 Q1522.77 41.6271 1522.77 49.9314 Q1522.77 58.2358 1526.78 62.8538 Q1530.79 67.4314 1538.04 67.4314 Q1541.28 67.4314 1544.44 66.5807 Q1547.64 65.6895 1550.8 63.9476 L1550.8 70.8341 Q1547.68 72.2924 1544.32 73.0216 Q1541 73.7508 1537.23 73.7508 Q1526.98 73.7508 1520.95 67.3098 Q1514.91 60.8689 1514.91 49.9314 Q1514.91 38.832 1520.99 32.472 Q1527.11 26.1121 1537.72 26.1121 Q1541.16 26.1121 1544.44 26.8413 Q1547.72 27.5299 1550.8 28.9478 Z" fill="#000000" fill-rule="nonzero" fill-opacity="1" /><path clip-path="url(#clip330)" d="M1584.38 49.7694 Q1575.35 49.7694 1571.87 51.8354 Q1568.38 53.9013 1568.38 58.8839 Q1568.38 62.8538 1570.98 65.2034 Q1573.61 67.5124 1578.11 67.5124 Q1584.3 67.5124 1588.03 63.1374 Q1591.8 58.7219 1591.8 51.4303 L1591.8 49.7694 L1584.38 49.7694 M1599.25 46.6907 L1599.25 72.576 L1591.8 72.576 L1591.8 65.6895 Q1589.25 69.8214 1585.44 71.8063 Q1581.63 73.7508 1576.12 73.7508 Q1569.15 73.7508 1565.02 69.8619 Q1560.93 65.9325 1560.93 59.3701 Q1560.93 51.7138 1566.03 47.825 Q1571.18 43.9361 1581.35 43.9361 L1591.8 43.9361 L1591.8 43.2069 Q1591.8 38.0623 1588.4 35.2672 Q1585.03 32.4315 1578.92 32.4315 Q1575.03 32.4315 1571.34 33.3632 Q1567.65 34.295 1564.25 36.1584 L1564.25 29.2718 Q1568.34 27.692 1572.19 26.9223 Q1576.04 26.1121 1579.69 26.1121 Q1589.53 26.1121 1594.39 31.2163 Q1599.25 36.3204 1599.25 46.6907 Z" fill="#000000" fill-rule="nonzero" fill-opacity="1" /><path clip-path="url(#clip330)" d="M1621.82 65.7705 L1621.82 89.8329 L1614.32 89.8329 L1614.32 27.2059 L1621.82 27.2059 L1621.82 34.0924 Q1624.16 30.0415 1627.73 28.0971 Q1631.33 26.1121 1636.32 26.1121 Q1644.58 26.1121 1649.73 32.6746 Q1654.91 39.2371 1654.91 49.9314 Q1654.91 60.6258 1649.73 67.1883 Q1644.58 73.7508 1636.32 73.7508 Q1631.33 73.7508 1627.73 71.8063 Q1624.16 69.8214 1621.82 65.7705 M1647.17 49.9314 Q1647.17 41.7081 1643.77 37.0496 Q1640.41 32.3505 1634.49 32.3505 Q1628.58 32.3505 1625.18 37.0496 Q1621.82 41.7081 1621.82 49.9314 Q1621.82 58.1548 1625.18 62.8538 Q1628.58 67.5124 1634.49 67.5124 Q1640.41 67.5124 1643.77 62.8538 Q1647.17 58.1548 1647.17 49.9314 Z" fill="#000000" fill-rule="nonzero" fill-opacity="1" /><path clip-path="url(#clip330)" d="M1667.27 27.2059 L1674.72 27.2059 L1674.72 72.576 L1667.27 72.576 L1667.27 27.2059 M1667.27 9.54393 L1674.72 9.54393 L1674.72 18.9825 L1667.27 18.9825 L1667.27 9.54393 Z" fill="#000000" fill-rule="nonzero" fill-opacity="1" /><path clip-path="url(#clip330)" d="M1697.69 14.324 L1697.69 27.2059 L1713.04 27.2059 L1713.04 32.9987 L1697.69 32.9987 L1697.69 57.6282 Q1697.69 63.1779 1699.19 64.7578 Q1700.73 66.3376 1705.39 66.3376 L1713.04 66.3376 L1713.04 72.576 L1705.39 72.576 Q1696.76 72.576 1693.48 69.3758 Q1690.19 66.1351 1690.19 57.6282 L1690.19 32.9987 L1684.73 32.9987 L1684.73 27.2059 L1690.19 27.2059 L1690.19 14.324 L1697.69 14.324 Z" fill="#000000" fill-rule="nonzero" fill-opacity="1" /><path clip-path="url(#clip330)" d="M1743.46 49.7694 Q1734.43 49.7694 1730.95 51.8354 Q1727.46 53.9013 1727.46 58.8839 Q1727.46 62.8538 1730.06 65.2034 Q1732.69 67.5124 1737.19 67.5124 Q1743.38 67.5124 1747.11 63.1374 Q1750.88 58.7219 1750.88 51.4303 L1750.88 49.7694 L1743.46 49.7694 M1758.33 46.6907 L1758.33 72.576 L1750.88 72.576 L1750.88 65.6895 Q1748.33 69.8214 1744.52 71.8063 Q1740.71 73.7508 1735.2 73.7508 Q1728.23 73.7508 1724.1 69.8619 Q1720.01 65.9325 1720.01 59.3701 Q1720.01 51.7138 1725.11 47.825 Q1730.26 43.9361 1740.43 43.9361 L1750.88 43.9361 L1750.88 43.2069 Q1750.88 38.0623 1747.47 35.2672 Q1744.11 32.4315 1738 32.4315 Q1734.11 32.4315 1730.42 33.3632 Q1726.73 34.295 1723.33 36.1584 L1723.33 29.2718 Q1727.42 27.692 1731.27 26.9223 Q1735.12 26.1121 1738.76 26.1121 Q1748.61 26.1121 1753.47 31.2163 Q1758.33 36.3204 1758.33 46.6907 Z" fill="#000000" fill-rule="nonzero" fill-opacity="1" /><path clip-path="url(#clip330)" d="M1826.35 34.1734 Q1825.09 33.4443 1823.59 33.1202 Q1822.13 32.7556 1820.35 32.7556 Q1814.03 32.7556 1810.63 36.8875 Q1807.27 40.9789 1807.27 48.6757 L1807.27 72.576 L1799.77 72.576 L1799.77 27.2059 L1807.27 27.2059 L1807.27 34.2544 Q1809.62 30.1225 1813.38 28.1376 Q1817.15 26.1121 1822.54 26.1121 Q1823.31 26.1121 1824.24 26.2337 Q1825.17 26.3147 1826.3 26.5172 L1826.35 34.1734 Z" fill="#000000" fill-rule="nonzero" fill-opacity="1" /><path clip-path="url(#clip330)" d="M1854.78 49.7694 Q1845.75 49.7694 1842.27 51.8354 Q1838.78 53.9013 1838.78 58.8839 Q1838.78 62.8538 1841.37 65.2034 Q1844.01 67.5124 1848.5 67.5124 Q1854.7 67.5124 1858.43 63.1374 Q1862.2 58.7219 1862.2 51.4303 L1862.2 49.7694 L1854.78 49.7694 M1869.65 46.6907 L1869.65 72.576 L1862.2 72.576 L1862.2 65.6895 Q1859.64 69.8214 1855.84 71.8063 Q1852.03 73.7508 1846.52 73.7508 Q1839.55 73.7508 1835.42 69.8619 Q1831.33 65.9325 1831.33 59.3701 Q1831.33 51.7138 1836.43 47.825 Q1841.58 43.9361 1851.74 43.9361 L1862.2 43.9361 L1862.2 43.2069 Q1862.2 38.0623 1858.79 35.2672 Q1855.43 32.4315 1849.31 32.4315 Q1845.43 32.4315 1841.74 33.3632 Q1838.05 34.295 1834.65 36.1584 L1834.65 29.2718 Q1838.74 27.692 1842.59 26.9223 Q1846.44 26.1121 1850.08 26.1121 Q1859.93 26.1121 1864.79 31.2163 Q1869.65 36.3204 1869.65 46.6907 Z" fill="#000000" fill-rule="nonzero" fill-opacity="1" /><path clip-path="url(#clip330)" d="M1892.38 14.324 L1892.38 27.2059 L1907.73 27.2059 L1907.73 32.9987 L1892.38 32.9987 L1892.38 57.6282 Q1892.38 63.1779 1893.87 64.7578 Q1895.41 66.3376 1900.07 66.3376 L1907.73 66.3376 L1907.73 72.576 L1900.07 72.576 Q1891.44 72.576 1888.16 69.3758 Q1884.88 66.1351 1884.88 57.6282 L1884.88 32.9987 L1879.41 32.9987 L1879.41 27.2059 L1884.88 27.2059 L1884.88 14.324 L1892.38 14.324 Z" fill="#000000" fill-rule="nonzero" fill-opacity="1" /><path clip-path="url(#clip330)" d="M1956.34 48.0275 L1956.34 51.6733 L1922.07 51.6733 Q1922.55 59.3701 1926.69 63.421 Q1930.86 67.4314 1938.27 67.4314 Q1942.57 67.4314 1946.58 66.3781 Q1950.63 65.3249 1954.6 63.2184 L1954.6 70.267 Q1950.59 71.9684 1946.37 72.8596 Q1942.16 73.7508 1937.83 73.7508 Q1926.97 73.7508 1920.61 67.4314 Q1914.29 61.1119 1914.29 50.3365 Q1914.29 39.1965 1920.29 32.6746 Q1926.32 26.1121 1936.53 26.1121 Q1945.69 26.1121 1950.99 32.0264 Q1956.34 37.9003 1956.34 48.0275 M1948.89 45.84 Q1948.8 39.7232 1945.44 36.0774 Q1942.12 32.4315 1936.61 32.4315 Q1930.37 32.4315 1926.61 35.9558 Q1922.88 39.4801 1922.31 45.8805 L1948.89 45.84 Z" fill="#000000" fill-rule="nonzero" fill-opacity="1" /><polyline clip-path="url(#clip331)" style="stroke:#000000; stroke-linecap:round; stroke-linejoin:round; stroke-width:12; stroke-opacity:1; fill:none" stroke-dasharray="48, 30" points="294.479,415.601 305.926,421.865 317.373,428.128 328.82,434.392 340.266,440.656 351.713,446.92 363.16,453.184 374.607,459.447 386.054,465.711 397.501,471.975 408.948,478.239 420.395,484.503 431.842,490.767 443.289,497.03 454.736,503.294 466.183,509.558 477.63,515.822 489.077,522.086 500.523,528.35 511.97,534.613 523.417,540.877 534.864,547.141 546.311,553.405 557.758,559.669 569.205,565.933 580.652,572.196 592.099,578.46 603.546,584.724 614.993,590.988 626.44,597.252 637.887,603.515 649.334,609.779 660.78,616.043 672.227,622.307 683.674,628.571 695.121,634.835 706.568,641.098 718.015,647.362 729.462,653.626 740.909,659.89 752.356,666.154 763.803,672.418 775.25,678.681 786.697,684.945 798.144,691.209 809.591,697.473 821.037,703.737 832.484,710.001 843.931,716.264 855.378,722.528 866.825,728.792 878.272,735.056 889.719,741.32 901.166,747.583 912.613,753.847 924.06,760.111 935.507,766.375 946.954,772.639 958.401,778.903 969.848,785.166 981.295,791.43 992.741,797.694 1004.19,803.958 1015.64,810.222 1027.08,816.486 1038.53,822.749 1049.98,829.013 1061.42,835.277 1072.87,841.541 1084.32,847.805 1095.76,854.069 1107.21,860.332 1118.66,866.596 1130.1,872.86 1141.55,879.124 1153,885.388 1164.45,891.651 1175.89,897.915 1187.34,904.179 1198.79,910.443 1210.23,916.707 1221.68,922.971 1233.13,929.234 1244.57,935.498 1256.02,941.762 1267.47,948.026 1278.91,954.29 1290.36,960.554 1301.81,966.817 1313.26,973.081 1324.7,979.345 1336.15,985.609 1347.6,991.873 1359.04,998.137 1370.49,1004.4 1381.94,1010.66 1393.38,1016.93 1404.83,1023.19 1416.28,1029.46 1427.72,1035.72 1439.17,1041.98 1450.62,1048.25 1462.07,1054.51 1473.51,1060.77 1484.96,1067.04 1496.41,1073.3 1507.85,1079.57 1519.3,1085.83 1530.75,1092.09 1542.19,1098.36 1553.64,1104.62 1565.09,1110.89 1576.53,1117.15 1587.98,1123.41 1599.43,1129.68 1610.88,1135.94 1622.32,1142.2 1633.77,1148.47 1645.22,1154.73 1656.66,1161 1668.11,1167.26 1679.56,1173.52 1691,1179.79 1702.45,1186.05 1713.9,1192.32 1725.34,1198.58 1736.79,1204.84 1748.24,1211.11 1759.69,1217.37 1771.13,1223.63 1782.58,1229.9 1794.03,1236.16 1805.47,1242.43 1816.92,1248.69 1828.37,1254.95 1839.81,1261.22 1851.26,1267.48 1862.71,1273.74 1874.16,1280.01 1885.6,1286.27 1897.05,1292.54 1908.5,1298.8 1919.94,1305.06 1931.39,1311.33 1942.84,1317.59 1954.28,1323.86 1965.73,1330.12 1977.18,1336.38 1988.62,1342.65 2000.07,1348.91 2011.52,1355.17 2022.97,1361.44 2034.41,1367.7 2045.86,1373.97 2057.31,1380.23 2068.75,1386.49 2080.2,1392.76 2091.65,1399.02 2103.09,1405.29 2114.54,1411.55 2125.99,1417.81 2137.43,1424.08 2148.88,1430.34 2160.33,1436.6 2171.78,1442.87 2183.22,1449.13 2194.67,1455.4 2206.12,1461.66 2217.56,1467.92 2229.01,1474.19 2240.46,1480.45 2251.9,1486.71 2263.35,1492.98 2274.8,1499.24 2286.24,1505.51 2297.69,1511.77 2309.14,1518.03 2320.59,1524.3 2332.03,1530.56 2343.48,1536.83 2354.93,1543.09 2366.37,1549.35 2377.82,1555.62 2389.27,1561.88 2400.71,1568.14 2412.16,1574.41 2423.61,1580.67 2435.05,1586.94 2446.5,1593.2 2457.95,1599.46 2469.4,1605.73 2480.84,1611.99 2492.29,1618.26 2503.74,1624.52 2515.18,1630.78 2526.63,1637.05 2538.08,1643.31 2549.52,1649.57 2560.97,1655.84 2572.42,1662.1 "/>
<polyline clip-path="url(#clip331)" style="stroke:#e26f46; stroke-linecap:round; stroke-linejoin:round; stroke-width:8; stroke-opacity:1; fill:none" points="294.479,471.469 305.926,476.169 317.373,480.87 328.82,485.572 340.266,490.276 351.713,494.983 363.16,499.693 374.607,504.407 386.054,509.126 397.501,513.85 408.948,518.581 420.395,523.318 431.842,528.063 443.289,532.815 454.736,537.577 466.183,542.348 477.63,547.13 489.077,551.922 500.523,556.725 511.97,561.541 523.417,566.37 534.864,571.212 546.311,576.069 557.758,580.94 569.205,585.827 580.652,590.731 592.099,595.651 603.546,600.589 614.993,605.545 626.44,610.52 637.887,615.515 649.334,620.53 660.78,625.566 672.227,630.624 683.674,635.704 695.121,640.808 706.568,645.935 718.015,651.086 729.462,656.263 740.909,661.465 752.356,666.694 763.803,671.949 775.25,677.233 786.697,682.545 798.144,687.886 809.591,693.257 821.037,698.659 832.484,704.092 843.931,709.556 855.378,715.054 866.825,720.584 878.272,726.148 889.719,731.747 901.166,737.381 912.613,743.051 924.06,748.758 935.507,754.502 946.954,760.284 958.401,766.104 969.848,771.964 981.295,777.864 992.741,783.804 1004.19,789.786 1015.64,795.81 1027.08,801.876 1038.53,807.986 1049.98,814.14 1061.42,820.339 1072.87,826.582 1084.32,832.868 1095.76,839.195 1107.21,845.563 1118.66,851.97 1130.1,858.414 1141.55,864.896 1153,871.413 1164.45,877.964 1175.89,884.548 1187.34,891.163 1198.79,897.809 1210.23,904.484 1221.68,911.188 1233.13,917.917 1244.57,924.673 1256.02,931.452 1267.47,938.254 1278.91,945.079 1290.36,951.923 1301.81,958.787 1313.26,965.668 1324.7,972.567 1336.15,979.481 1347.6,986.409 1359.04,993.35 1370.49,1000.3 1381.94,1007.27 1393.38,1014.24 1404.83,1021.22 1416.28,1028.21 1427.72,1035.2 1439.17,1042.2 1450.62,1049.2 1462.07,1056.2 1473.51,1063.2 1484.96,1070.2 1496.41,1077.2 1507.85,1084.2 1519.3,1091.19 1530.75,1098.17 1542.19,1105.15 1553.64,1112.12 1565.09,1119.09 1576.53,1126.04 1587.98,1132.98 1599.43,1139.9 1610.88,1146.81 1622.32,1153.71 1633.77,1160.59 1645.22,1167.45 1656.66,1174.29 1668.11,1181.11 1679.56,1187.9 1691,1194.68 1702.45,1201.43 1713.9,1208.15 1725.34,1214.85 1736.79,1221.52 1748.24,1228.16 1759.69,1234.77 1771.13,1241.35 1782.58,1247.9 1794.03,1254.41 1805.47,1260.88 1816.92,1267.32 1828.37,1273.72 1839.81,1280.08 1851.26,1286.41 1862.71,1292.7 1874.16,1298.96 1885.6,1305.18 1897.05,1311.36 1908.5,1317.52 1919.94,1323.64 1931.39,1329.73 1942.84,1335.78 1954.28,1341.81 1965.73,1347.8 1977.18,1353.76 1988.62,1359.7 2000.07,1365.6 2011.52,1371.48 2022.97,1377.33 2034.41,1383.15 2045.86,1388.95 2057.31,1394.72 2068.75,1400.46 2080.2,1406.18 2091.65,1411.87 2103.09,1417.54 2114.54,1423.19 2125.99,1428.81 2137.43,1434.42 2148.88,1440 2160.33,1445.55 2171.78,1451.09 2183.22,1456.61 2194.67,1462.11 2206.12,1467.59 2217.56,1473.05 2229.01,1478.5 2240.46,1483.93 2251.9,1489.34 2263.35,1494.73 2274.8,1500.11 2286.24,1505.48 2297.69,1510.83 2309.14,1516.17 2320.59,1521.49 2332.03,1526.8 2343.48,1532.1 2354.93,1537.39 2366.37,1542.67 2377.82,1547.94 2389.27,1553.2 2400.71,1558.44 2412.16,1563.68 2423.61,1568.92 2435.05,1574.14 2446.5,1579.36 2457.95,1584.57 2469.4,1589.78 2480.84,1594.98 2492.29,1600.17 2503.74,1605.37 2515.18,1610.56 2526.63,1615.74 2538.08,1620.92 2549.52,1626.11 2560.97,1631.29 2572.42,1636.47 "/>
<polyline clip-path="url(#clip331)" style="stroke:#3da44d; stroke-linecap:round; stroke-linejoin:round; stroke-width:8; stroke-opacity:1; fill:none" points="294.479,610.868 305.926,612.142 317.373,613.415 328.82,614.689 340.266,615.964 351.713,617.24 363.16,618.517 374.607,619.795 386.054,621.075 397.501,622.356 408.948,623.64 420.395,624.926 431.842,626.214 443.289,627.505 454.736,628.799 466.183,630.096 477.63,631.398 489.077,632.709 500.523,634.029 511.97,635.362 523.417,636.71 534.864,638.076 546.311,639.462 557.758,640.871 569.205,642.306 580.652,643.768 592.099,645.26 603.546,646.786 614.993,648.347 626.44,649.945 637.887,651.586 649.334,653.274 660.78,655.013 672.227,656.809 683.674,658.668 695.121,660.593 706.568,662.591 718.015,664.666 729.462,666.823 740.909,669.067 752.356,671.403 763.803,673.837 775.25,676.373 786.697,679.017 798.144,681.772 809.591,684.64 821.037,687.624 832.484,690.725 843.931,693.947 855.378,697.29 866.825,700.757 878.272,704.35 889.719,708.072 901.166,711.923 912.613,715.907 924.06,720.025 935.507,724.28 946.954,728.674 958.401,733.208 969.848,737.881 981.295,742.694 992.741,747.645 1004.19,752.735 1015.64,757.962 1027.08,763.326 1038.53,768.827 1049.98,774.463 1061.42,780.235 1072.87,786.142 1084.32,792.183 1095.76,798.358 1107.21,804.666 1118.66,811.106 1130.1,817.676 1141.55,824.37 1153,831.187 1164.45,838.122 1175.89,845.171 1187.34,852.33 1198.79,859.597 1210.23,866.967 1221.68,874.436 1233.13,882.002 1244.57,889.659 1256.02,897.405 1267.47,905.236 1278.91,913.148 1290.36,921.132 1301.81,929.182 1313.26,937.286 1324.7,945.436 1336.15,953.623 1347.6,961.837 1359.04,970.07 1370.49,978.311 1381.94,986.553 1393.38,994.786 1404.83,1003 1416.28,1011.19 1427.72,1019.34 1439.17,1027.44 1450.62,1035.49 1462.07,1043.49 1473.51,1051.42 1484.96,1059.29 1496.41,1067.09 1507.85,1074.82 1519.3,1082.48 1530.75,1090.06 1542.19,1097.55 1553.64,1104.95 1565.09,1112.27 1576.53,1119.49 1587.98,1126.61 1599.43,1133.63 1610.88,1140.54 1622.32,1147.35 1633.77,1154.06 1645.22,1160.67 1656.66,1167.19 1668.11,1173.61 1679.56,1179.94 1691,1186.18 1702.45,1192.34 1713.9,1198.4 1725.34,1204.39 1736.79,1210.29 1748.24,1216.12 1759.69,1221.86 1771.13,1227.54 1782.58,1233.15 1794.03,1238.7 1805.47,1244.2 1816.92,1249.67 1828.37,1255.1 1839.81,1260.52 1851.26,1265.92 1862.71,1271.31 1874.16,1276.72 1885.6,1282.13 1897.05,1287.57 1908.5,1293.04 1919.94,1298.55 1931.39,1304.11 1942.84,1309.72 1954.28,1315.37 1965.73,1321.08 1977.18,1326.82 1988.62,1332.61 2000.07,1338.45 2011.52,1344.32 2022.97,1350.23 2034.41,1356.18 2045.86,1362.17 2057.31,1368.2 2068.75,1374.26 2080.2,1380.35 2091.65,1386.47 2103.09,1392.62 2114.54,1398.81 2125.99,1405.04 2137.43,1411.32 2148.88,1417.63 2160.33,1424 2171.78,1430.42 2183.22,1436.89 2194.67,1443.42 2206.12,1450 2217.56,1456.66 2229.01,1463.38 2240.46,1470.17 2251.9,1477.03 2263.35,1483.96 2274.8,1490.97 2286.24,1498.04 2297.69,1505.17 2309.14,1512.36 2320.59,1519.61 2332.03,1526.9 2343.48,1534.25 2354.93,1541.64 2366.37,1549.07 2377.82,1556.53 2389.27,1564.03 2400.71,1571.56 2412.16,1579.12 2423.61,1586.7 2435.05,1594.29 2446.5,1601.91 2457.95,1609.55 2469.4,1617.2 2480.84,1624.87 2492.29,1632.55 2503.74,1640.24 2515.18,1647.94 2526.63,1655.65 2538.08,1663.37 2549.52,1671.09 2560.97,1678.81 2572.42,1686.54 "/>
<polyline clip-path="url(#clip331)" style="stroke:#c271d2; stroke-linecap:round; stroke-linejoin:round; stroke-width:8; stroke-opacity:1; fill:none" points="294.479,173.254 305.926,225.33 317.373,277.064 328.82,328.114 340.266,378.137 351.713,426.793 363.16,473.739 374.607,518.632 386.054,561.132 397.501,600.895 408.948,637.581 420.395,670.854 431.842,700.549 443.289,726.653 454.736,749.162 466.183,768.071 477.63,783.375 489.077,795.067 500.523,803.143 511.97,807.599 523.417,808.428 534.864,805.625 546.311,799.314 557.758,790.052 569.205,778.494 580.652,765.29 592.099,751.093 603.546,736.557 614.993,722.332 626.44,709.071 637.887,697.427 649.334,688.052 660.78,681.566 672.227,678.052 683.674,677.156 695.121,678.513 706.568,681.758 718.015,686.524 729.462,692.447 740.909,699.161 752.356,706.299 763.803,713.497 775.25,720.388 786.697,726.626 798.144,731.922 809.591,735.993 821.037,738.56 832.484,739.342 843.931,738.059 855.378,734.431 866.825,728.176 878.272,719.015 889.719,706.667 901.166,690.914 912.613,672.355 924.06,652.169 935.507,631.548 946.954,611.684 958.401,593.768 969.848,578.992 981.295,568.547 992.741,563.626 1004.19,565.418 1015.64,575.115 1027.08,593.266 1038.53,618.811 1049.98,650.442 1061.42,686.849 1072.87,726.725 1084.32,768.761 1095.76,811.647 1107.21,854.077 1118.66,894.739 1130.1,932.328 1141.55,965.613 1153,994.245 1164.45,1018.41 1175.89,1038.32 1187.34,1054.16 1198.79,1066.14 1210.23,1074.44 1221.68,1079.28 1233.13,1080.84 1244.57,1079.33 1256.02,1074.95 1267.47,1068.06 1278.91,1059.37 1290.36,1049.67 1301.81,1039.71 1313.26,1030.25 1324.7,1022.07 1336.15,1015.94 1347.6,1012.61 1359.04,1012.86 1370.49,1017.44 1381.94,1027.03 1393.38,1041.27 1404.83,1059.32 1416.28,1080.28 1427.72,1103.29 1439.17,1127.48 1450.62,1151.97 1462.07,1175.9 1473.51,1198.39 1484.96,1218.57 1496.41,1235.56 1507.85,1248.89 1519.3,1258.79 1530.75,1265.58 1542.19,1269.57 1553.64,1271.07 1565.09,1270.39 1576.53,1267.87 1587.98,1263.8 1599.43,1258.5 1610.88,1252.29 1622.32,1245.46 1633.77,1238.15 1645.22,1230.41 1656.66,1222.31 1668.11,1213.9 1679.56,1205.26 1691,1196.43 1702.45,1187.49 1713.9,1178.48 1725.34,1169.48 1736.79,1160.53 1748.24,1151.73 1759.69,1143.15 1771.13,1134.9 1782.58,1127.08 1794.03,1119.78 1805.47,1113.11 1816.92,1107.14 1828.37,1102 1839.81,1097.76 1851.26,1094.54 1862.71,1092.41 1874.16,1091.38 1885.6,1091.42 1897.05,1092.51 1908.5,1094.62 1919.94,1097.72 1931.39,1101.79 1942.84,1106.8 1954.28,1112.73 1965.73,1119.54 1977.18,1127.22 1988.62,1135.73 2000.07,1145.04 2011.52,1155.13 2022.97,1165.95 2034.41,1177.49 2045.86,1189.7 2057.31,1202.55 2068.75,1216.02 2080.2,1230.07 2091.65,1244.68 2103.09,1259.79 2114.54,1275.32 2125.99,1291.16 2137.43,1307.2 2148.88,1323.32 2160.33,1339.41 2171.78,1355.37 2183.22,1371.09 2194.67,1386.44 2206.12,1401.33 2217.56,1415.64 2229.01,1429.33 2240.46,1442.4 2251.9,1454.9 2263.35,1466.85 2274.8,1478.28 2286.24,1489.2 2297.69,1499.65 2309.14,1509.66 2320.59,1519.25 2332.03,1528.44 2343.48,1537.27 2354.93,1545.78 2366.37,1553.99 2377.82,1561.96 2389.27,1569.71 2400.71,1577.29 2412.16,1584.74 2423.61,1592.1 2435.05,1599.4 2446.5,1606.68 2457.95,1613.99 2469.4,1621.34 2480.84,1628.72 2492.29,1636.14 2503.74,1643.59 2515.18,1651.06 2526.63,1658.55 2538.08,1666.06 2549.52,1673.59 2560.97,1681.12 2572.42,1688.65 "/>
<path clip-path="url(#clip330)" d="M1968.3 440.536 L2560.27 440.536 L2560.27 181.336 L1968.3 181.336  Z" fill="#ffffff" fill-rule="evenodd" fill-opacity="1"/>
<polyline clip-path="url(#clip330)" style="stroke:#000000; stroke-linecap:round; stroke-linejoin:round; stroke-width:4; stroke-opacity:1; fill:none" points="1968.3,440.536 2560.27,440.536 2560.27,181.336 1968.3,181.336 1968.3,440.536 "/>
<polyline clip-path="url(#clip330)" style="stroke:#000000; stroke-linecap:round; stroke-linejoin:round; stroke-width:12; stroke-opacity:1; fill:none" stroke-dasharray="48, 30" points="1995.13,233.176 2156.1,233.176 "/>
<path clip-path="url(#clip330)" d="M2182.93 215.896 L2212.17 215.896 L2212.17 219.831 L2199.9 219.831 L2199.9 250.456 L2195.2 250.456 L2195.2 219.831 L2182.93 219.831 L2182.93 215.896 Z" fill="#000000" fill-rule="nonzero" fill-opacity="1" /><path clip-path="url(#clip330)" d="M2224.55 228.512 Q2223.83 228.095 2222.98 227.91 Q2222.15 227.702 2221.13 227.702 Q2217.52 227.702 2215.57 230.063 Q2213.65 232.401 2213.65 236.799 L2213.65 250.456 L2209.37 250.456 L2209.37 224.531 L2213.65 224.531 L2213.65 228.558 Q2214.99 226.197 2217.15 225.063 Q2219.3 223.906 2222.38 223.906 Q2222.82 223.906 2223.35 223.975 Q2223.88 224.021 2224.53 224.137 L2224.55 228.512 Z" fill="#000000" fill-rule="nonzero" fill-opacity="1" /><path clip-path="url(#clip330)" d="M2228.58 240.225 L2228.58 224.531 L2232.84 224.531 L2232.84 240.063 Q2232.84 243.743 2234.27 245.595 Q2235.71 247.424 2238.58 247.424 Q2242.03 247.424 2244.02 245.225 Q2246.03 243.026 2246.03 239.229 L2246.03 224.531 L2250.29 224.531 L2250.29 250.456 L2246.03 250.456 L2246.03 246.475 Q2244.48 248.836 2242.42 249.993 Q2240.39 251.128 2237.68 251.128 Q2233.21 251.128 2230.89 248.35 Q2228.58 245.572 2228.58 240.225 M2239.3 223.906 L2239.3 223.906 Z" fill="#000000" fill-rule="nonzero" fill-opacity="1" /><path clip-path="url(#clip330)" d="M2281.24 236.429 L2281.24 238.512 L2261.66 238.512 Q2261.94 242.91 2264.3 245.225 Q2266.68 247.516 2270.92 247.516 Q2273.37 247.516 2275.66 246.915 Q2277.98 246.313 2280.25 245.109 L2280.25 249.137 Q2277.95 250.109 2275.55 250.618 Q2273.14 251.128 2270.66 251.128 Q2264.46 251.128 2260.83 247.516 Q2257.21 243.905 2257.21 237.748 Q2257.21 231.382 2260.64 227.655 Q2264.09 223.906 2269.92 223.906 Q2275.15 223.906 2278.19 227.285 Q2281.24 230.642 2281.24 236.429 M2276.98 235.179 Q2276.94 231.683 2275.02 229.6 Q2273.12 227.517 2269.97 227.517 Q2266.4 227.517 2264.25 229.53 Q2262.12 231.544 2261.8 235.202 L2276.98 235.179 Z" fill="#000000" fill-rule="nonzero" fill-opacity="1" /><path clip-path="url(#clip330)" d="M2318.33 228.512 Q2317.61 228.095 2316.75 227.91 Q2315.92 227.702 2314.9 227.702 Q2311.29 227.702 2309.34 230.063 Q2307.42 232.401 2307.42 236.799 L2307.42 250.456 L2303.14 250.456 L2303.14 224.531 L2307.42 224.531 L2307.42 228.558 Q2308.76 226.197 2310.92 225.063 Q2313.07 223.906 2316.15 223.906 Q2316.59 223.906 2317.12 223.975 Q2317.65 224.021 2318.3 224.137 L2318.33 228.512 Z" fill="#000000" fill-rule="nonzero" fill-opacity="1" /><path clip-path="url(#clip330)" d="M2333.02 214.484 Q2329.92 219.808 2328.42 225.017 Q2326.91 230.225 2326.91 235.572 Q2326.91 240.919 2328.42 246.174 Q2329.95 251.405 2333.02 256.706 L2329.32 256.706 Q2325.85 251.266 2324.11 246.012 Q2322.4 240.757 2322.4 235.572 Q2322.4 230.41 2324.11 225.179 Q2325.83 219.947 2329.32 214.484 L2333.02 214.484 Z" fill="#000000" fill-rule="nonzero" fill-opacity="1" /><path clip-path="url(#clip330)" d="M2341.47 215.896 L2347.77 215.896 L2363.09 244.808 L2363.09 215.896 L2367.63 215.896 L2367.63 250.456 L2361.33 250.456 L2346.01 221.544 L2346.01 250.456 L2341.47 250.456 L2341.47 215.896 Z" fill="#000000" fill-rule="nonzero" fill-opacity="1" /><path clip-path="url(#clip330)" d="M2376.08 214.484 L2379.78 214.484 Q2383.26 219.947 2384.97 225.179 Q2386.7 230.41 2386.7 235.572 Q2386.7 240.757 2384.97 246.012 Q2383.26 251.266 2379.78 256.706 L2376.08 256.706 Q2379.16 251.405 2380.66 246.174 Q2382.19 240.919 2382.19 235.572 Q2382.19 230.225 2380.66 225.017 Q2379.16 219.808 2376.08 214.484 Z" fill="#000000" fill-rule="nonzero" fill-opacity="1" /><polyline clip-path="url(#clip330)" style="stroke:#e26f46; stroke-linecap:round; stroke-linejoin:round; stroke-width:8; stroke-opacity:1; fill:none" points="1995.13,285.016 2156.1,285.016 "/>
<path clip-path="url(#clip330)" d="M2198.53 271.81 L2186.73 290.259 L2198.53 290.259 L2198.53 271.81 M2197.31 267.736 L2203.19 267.736 L2203.19 290.259 L2208.12 290.259 L2208.12 294.148 L2203.19 294.148 L2203.19 302.296 L2198.53 302.296 L2198.53 294.148 L2182.93 294.148 L2182.93 289.634 L2197.31 267.736 Z" fill="#000000" fill-rule="nonzero" fill-opacity="1" /><path clip-path="url(#clip330)" d="M2230.15 266.278 L2234.44 266.278 L2234.44 287.551 L2247.14 276.371 L2252.58 276.371 L2238.83 288.5 L2253.16 302.296 L2247.61 302.296 L2234.44 289.634 L2234.44 302.296 L2230.15 302.296 L2230.15 266.278 Z" fill="#000000" fill-rule="nonzero" fill-opacity="1" /><path clip-path="url(#clip330)" d="M2279.32 286.648 L2279.32 302.296 L2275.06 302.296 L2275.06 286.787 Q2275.06 283.107 2273.63 281.278 Q2272.19 279.449 2269.32 279.449 Q2265.87 279.449 2263.88 281.648 Q2261.89 283.847 2261.89 287.644 L2261.89 302.296 L2257.61 302.296 L2257.61 276.371 L2261.89 276.371 L2261.89 280.398 Q2263.42 278.06 2265.48 276.903 Q2267.56 275.746 2270.27 275.746 Q2274.74 275.746 2277.03 278.523 Q2279.32 281.278 2279.32 286.648 Z" fill="#000000" fill-rule="nonzero" fill-opacity="1" /><path clip-path="url(#clip330)" d="M2297.86 279.357 Q2294.44 279.357 2292.45 282.042 Q2290.45 284.704 2290.45 289.357 Q2290.45 294.009 2292.42 296.694 Q2294.41 299.356 2297.86 299.356 Q2301.26 299.356 2303.26 296.671 Q2305.25 293.986 2305.25 289.357 Q2305.25 284.75 2303.26 282.065 Q2301.26 279.357 2297.86 279.357 M2297.86 275.746 Q2303.42 275.746 2306.59 279.357 Q2309.76 282.968 2309.76 289.357 Q2309.76 295.722 2306.59 299.356 Q2303.42 302.968 2297.86 302.968 Q2292.28 302.968 2289.11 299.356 Q2285.96 295.722 2285.96 289.357 Q2285.96 282.968 2289.11 279.357 Q2292.28 275.746 2297.86 275.746 Z" fill="#000000" fill-rule="nonzero" fill-opacity="1" /><path clip-path="url(#clip330)" d="M2321.03 269.009 L2321.03 276.371 L2329.81 276.371 L2329.81 279.681 L2321.03 279.681 L2321.03 293.755 Q2321.03 296.926 2321.89 297.829 Q2322.77 298.731 2325.43 298.731 L2329.81 298.731 L2329.81 302.296 L2325.43 302.296 Q2320.5 302.296 2318.63 300.468 Q2316.75 298.616 2316.75 293.755 L2316.75 279.681 L2313.63 279.681 L2313.63 276.371 L2316.75 276.371 L2316.75 269.009 L2321.03 269.009 Z" fill="#000000" fill-rule="nonzero" fill-opacity="1" /><path clip-path="url(#clip330)" d="M2351.94 277.134 L2351.94 281.162 Q2350.13 280.236 2348.19 279.773 Q2346.24 279.31 2344.16 279.31 Q2340.99 279.31 2339.39 280.283 Q2337.82 281.255 2337.82 283.199 Q2337.82 284.681 2338.95 285.537 Q2340.08 286.37 2343.51 287.134 L2344.97 287.458 Q2349.51 288.431 2351.4 290.213 Q2353.32 291.972 2353.32 295.144 Q2353.32 298.755 2350.45 300.861 Q2347.61 302.968 2342.61 302.968 Q2340.52 302.968 2338.26 302.551 Q2336.01 302.157 2333.51 301.347 L2333.51 296.949 Q2335.87 298.176 2338.16 298.801 Q2340.45 299.403 2342.7 299.403 Q2345.71 299.403 2347.33 298.384 Q2348.95 297.343 2348.95 295.468 Q2348.95 293.732 2347.77 292.806 Q2346.61 291.88 2342.65 291.023 L2341.17 290.676 Q2337.21 289.843 2335.45 288.13 Q2333.7 286.394 2333.7 283.384 Q2333.7 279.727 2336.29 277.736 Q2338.88 275.746 2343.65 275.746 Q2346.01 275.746 2348.09 276.093 Q2350.18 276.44 2351.94 277.134 Z" fill="#000000" fill-rule="nonzero" fill-opacity="1" /><polyline clip-path="url(#clip330)" style="stroke:#3da44d; stroke-linecap:round; stroke-linejoin:round; stroke-width:8; stroke-opacity:1; fill:none" points="1995.13,336.856 2156.1,336.856 "/>
<path clip-path="url(#clip330)" d="M2183.6 350.201 L2191.24 350.201 L2191.24 323.836 L2182.93 325.502 L2182.93 321.243 L2191.2 319.576 L2195.87 319.576 L2195.87 350.201 L2203.51 350.201 L2203.51 354.136 L2183.6 354.136 L2183.6 350.201 Z" fill="#000000" fill-rule="nonzero" fill-opacity="1" /><path clip-path="url(#clip330)" d="M2213 319.576 L2231.36 319.576 L2231.36 323.511 L2217.28 323.511 L2217.28 331.984 Q2218.3 331.636 2219.32 331.474 Q2220.34 331.289 2221.36 331.289 Q2227.15 331.289 2230.52 334.46 Q2233.9 337.632 2233.9 343.048 Q2233.9 348.627 2230.43 351.729 Q2226.96 354.808 2220.64 354.808 Q2218.46 354.808 2216.2 354.437 Q2213.95 354.067 2211.54 353.326 L2211.54 348.627 Q2213.63 349.761 2215.85 350.317 Q2218.07 350.872 2220.55 350.872 Q2224.55 350.872 2226.89 348.766 Q2229.23 346.659 2229.23 343.048 Q2229.23 339.437 2226.89 337.331 Q2224.55 335.224 2220.55 335.224 Q2218.67 335.224 2216.8 335.641 Q2214.95 336.058 2213 336.937 L2213 319.576 Z" fill="#000000" fill-rule="nonzero" fill-opacity="1" /><path clip-path="url(#clip330)" d="M2257.42 318.118 L2261.71 318.118 L2261.71 339.391 L2274.41 328.211 L2279.85 328.211 L2266.1 340.34 L2280.43 354.136 L2274.88 354.136 L2261.71 341.474 L2261.71 354.136 L2257.42 354.136 L2257.42 318.118 Z" fill="#000000" fill-rule="nonzero" fill-opacity="1" /><path clip-path="url(#clip330)" d="M2306.59 338.488 L2306.59 354.136 L2302.33 354.136 L2302.33 338.627 Q2302.33 334.947 2300.89 333.118 Q2299.46 331.289 2296.59 331.289 Q2293.14 331.289 2291.15 333.488 Q2289.16 335.687 2289.16 339.484 L2289.16 354.136 L2284.88 354.136 L2284.88 328.211 L2289.16 328.211 L2289.16 332.238 Q2290.69 329.9 2292.75 328.743 Q2294.83 327.586 2297.54 327.586 Q2302.01 327.586 2304.3 330.363 Q2306.59 333.118 2306.59 338.488 Z" fill="#000000" fill-rule="nonzero" fill-opacity="1" /><path clip-path="url(#clip330)" d="M2325.13 331.197 Q2321.7 331.197 2319.71 333.882 Q2317.72 336.544 2317.72 341.197 Q2317.72 345.849 2319.69 348.534 Q2321.68 351.196 2325.13 351.196 Q2328.53 351.196 2330.52 348.511 Q2332.51 345.826 2332.51 341.197 Q2332.51 336.59 2330.52 333.905 Q2328.53 331.197 2325.13 331.197 M2325.13 327.586 Q2330.69 327.586 2333.86 331.197 Q2337.03 334.808 2337.03 341.197 Q2337.03 347.562 2333.86 351.196 Q2330.69 354.808 2325.13 354.808 Q2319.55 354.808 2316.38 351.196 Q2313.23 347.562 2313.23 341.197 Q2313.23 334.808 2316.38 331.197 Q2319.55 327.586 2325.13 327.586 Z" fill="#000000" fill-rule="nonzero" fill-opacity="1" /><path clip-path="url(#clip330)" d="M2348.3 320.849 L2348.3 328.211 L2357.07 328.211 L2357.07 331.521 L2348.3 331.521 L2348.3 345.595 Q2348.3 348.766 2349.16 349.669 Q2350.04 350.571 2352.7 350.571 L2357.07 350.571 L2357.07 354.136 L2352.7 354.136 Q2347.77 354.136 2345.89 352.308 Q2344.02 350.456 2344.02 345.595 L2344.02 331.521 L2340.89 331.521 L2340.89 328.211 L2344.02 328.211 L2344.02 320.849 L2348.3 320.849 Z" fill="#000000" fill-rule="nonzero" fill-opacity="1" /><path clip-path="url(#clip330)" d="M2379.2 328.974 L2379.2 333.002 Q2377.4 332.076 2375.45 331.613 Q2373.51 331.15 2371.43 331.15 Q2368.26 331.15 2366.66 332.123 Q2365.08 333.095 2365.08 335.039 Q2365.08 336.521 2366.22 337.377 Q2367.35 338.21 2370.78 338.974 L2372.24 339.298 Q2376.77 340.271 2378.67 342.053 Q2380.59 343.812 2380.59 346.984 Q2380.59 350.595 2377.72 352.701 Q2374.88 354.808 2369.88 354.808 Q2367.79 354.808 2365.52 354.391 Q2363.28 353.997 2360.78 353.187 L2360.78 348.789 Q2363.14 350.016 2365.43 350.641 Q2367.72 351.243 2369.97 351.243 Q2372.98 351.243 2374.6 350.224 Q2376.22 349.183 2376.22 347.308 Q2376.22 345.572 2375.04 344.646 Q2373.88 343.72 2369.92 342.863 L2368.44 342.516 Q2364.48 341.683 2362.72 339.97 Q2360.96 338.234 2360.96 335.224 Q2360.96 331.567 2363.56 329.576 Q2366.15 327.586 2370.92 327.586 Q2373.28 327.586 2375.36 327.933 Q2377.45 328.28 2379.2 328.974 Z" fill="#000000" fill-rule="nonzero" fill-opacity="1" /><path clip-path="url(#clip330)" d="M2412.68 318.164 Q2409.57 323.488 2408.07 328.697 Q2406.57 333.905 2406.57 339.252 Q2406.57 344.599 2408.07 349.854 Q2409.6 355.085 2412.68 360.386 L2408.97 360.386 Q2405.5 354.946 2403.76 349.692 Q2402.05 344.437 2402.05 339.252 Q2402.05 334.09 2403.76 328.859 Q2405.48 323.627 2408.97 318.164 L2412.68 318.164 Z" fill="#000000" fill-rule="nonzero" fill-opacity="1" /><path clip-path="url(#clip330)" d="M2439.55 341.197 Q2439.55 336.497 2437.61 333.835 Q2435.69 331.15 2432.31 331.15 Q2428.93 331.15 2426.98 333.835 Q2425.06 336.497 2425.06 341.197 Q2425.06 345.896 2426.98 348.581 Q2428.93 351.243 2432.31 351.243 Q2435.69 351.243 2437.61 348.581 Q2439.55 345.896 2439.55 341.197 M2425.06 332.146 Q2426.4 329.831 2428.44 328.72 Q2430.5 327.586 2433.35 327.586 Q2438.07 327.586 2441.01 331.335 Q2443.97 335.085 2443.97 341.197 Q2443.97 347.308 2441.01 351.058 Q2438.07 354.808 2433.35 354.808 Q2430.5 354.808 2428.44 353.696 Q2426.4 352.562 2425.06 350.247 L2425.06 354.136 L2420.78 354.136 L2420.78 318.118 L2425.06 318.118 L2425.06 332.146 Z" fill="#000000" fill-rule="nonzero" fill-opacity="1" /><path clip-path="url(#clip330)" d="M2473.21 340.109 L2473.21 342.192 L2453.63 342.192 Q2453.9 346.59 2456.26 348.905 Q2458.65 351.196 2462.88 351.196 Q2465.34 351.196 2467.63 350.595 Q2469.94 349.993 2472.21 348.789 L2472.21 352.817 Q2469.92 353.789 2467.51 354.298 Q2465.11 354.808 2462.63 354.808 Q2456.43 354.808 2452.79 351.196 Q2449.18 347.585 2449.18 341.428 Q2449.18 335.062 2452.61 331.335 Q2456.06 327.586 2461.89 327.586 Q2467.12 327.586 2470.15 330.965 Q2473.21 334.322 2473.21 340.109 M2468.95 338.859 Q2468.9 335.363 2466.98 333.28 Q2465.08 331.197 2461.94 331.197 Q2458.37 331.197 2456.22 333.21 Q2454.09 335.224 2453.76 338.882 L2468.95 338.859 Z" fill="#000000" fill-rule="nonzero" fill-opacity="1" /><path clip-path="url(#clip330)" d="M2496.73 328.974 L2496.73 333.002 Q2494.92 332.076 2492.98 331.613 Q2491.03 331.15 2488.95 331.15 Q2485.78 331.15 2484.18 332.123 Q2482.61 333.095 2482.61 335.039 Q2482.61 336.521 2483.74 337.377 Q2484.88 338.21 2488.3 338.974 L2489.76 339.298 Q2494.3 340.271 2496.19 342.053 Q2498.12 343.812 2498.12 346.984 Q2498.12 350.595 2495.25 352.701 Q2492.4 354.808 2487.4 354.808 Q2485.31 354.808 2483.05 354.391 Q2480.8 353.997 2478.3 353.187 L2478.3 348.789 Q2480.66 350.016 2482.95 350.641 Q2485.25 351.243 2487.49 351.243 Q2490.5 351.243 2492.12 350.224 Q2493.74 349.183 2493.74 347.308 Q2493.74 345.572 2492.56 344.646 Q2491.4 343.72 2487.44 342.863 L2485.96 342.516 Q2482 341.683 2480.25 339.97 Q2478.49 338.234 2478.49 335.224 Q2478.49 331.567 2481.08 329.576 Q2483.67 327.586 2488.44 327.586 Q2490.8 327.586 2492.88 327.933 Q2494.97 328.28 2496.73 328.974 Z" fill="#000000" fill-rule="nonzero" fill-opacity="1" /><path clip-path="url(#clip330)" d="M2509.11 320.849 L2509.11 328.211 L2517.88 328.211 L2517.88 331.521 L2509.11 331.521 L2509.11 345.595 Q2509.11 348.766 2509.97 349.669 Q2510.85 350.571 2513.51 350.571 L2517.88 350.571 L2517.88 354.136 L2513.51 354.136 Q2508.58 354.136 2506.7 352.308 Q2504.83 350.456 2504.83 345.595 L2504.83 331.521 L2501.7 331.521 L2501.7 328.211 L2504.83 328.211 L2504.83 320.849 L2509.11 320.849 Z" fill="#000000" fill-rule="nonzero" fill-opacity="1" /><path clip-path="url(#clip330)" d="M2522.81 318.164 L2526.52 318.164 Q2529.99 323.627 2531.7 328.859 Q2533.44 334.09 2533.44 339.252 Q2533.44 344.437 2531.7 349.692 Q2529.99 354.946 2526.52 360.386 L2522.81 360.386 Q2525.89 355.085 2527.4 349.854 Q2528.93 344.599 2528.93 339.252 Q2528.93 333.905 2527.4 328.697 Q2525.89 323.488 2522.81 318.164 Z" fill="#000000" fill-rule="nonzero" fill-opacity="1" /><polyline clip-path="url(#clip330)" style="stroke:#c271d2; stroke-linecap:round; stroke-linejoin:round; stroke-width:8; stroke-opacity:1; fill:none" points="1995.13,388.696 2156.1,388.696 "/>
<path clip-path="url(#clip330)" d="M2188.56 402.041 L2204.88 402.041 L2204.88 405.976 L2182.93 405.976 L2182.93 402.041 Q2185.59 399.287 2190.18 394.657 Q2194.78 390.004 2195.96 388.662 Q2198.21 386.138 2199.09 384.402 Q2199.99 382.643 2199.99 380.953 Q2199.99 378.199 2198.05 376.463 Q2196.13 374.726 2193.02 374.726 Q2190.83 374.726 2188.37 375.49 Q2185.94 376.254 2183.16 377.805 L2183.16 373.083 Q2185.99 371.949 2188.44 371.37 Q2190.9 370.791 2192.93 370.791 Q2198.3 370.791 2201.5 373.476 Q2204.69 376.162 2204.69 380.652 Q2204.69 382.782 2203.88 384.703 Q2203.09 386.601 2200.99 389.194 Q2200.41 389.865 2197.31 393.083 Q2194.21 396.277 2188.56 402.041 Z" fill="#000000" fill-rule="nonzero" fill-opacity="1" /><path clip-path="url(#clip330)" d="M2224.69 374.495 Q2221.08 374.495 2219.25 378.06 Q2217.45 381.601 2217.45 388.731 Q2217.45 395.837 2219.25 399.402 Q2221.08 402.944 2224.69 402.944 Q2228.33 402.944 2230.13 399.402 Q2231.96 395.837 2231.96 388.731 Q2231.96 381.601 2230.13 378.06 Q2228.33 374.495 2224.69 374.495 M2224.69 370.791 Q2230.5 370.791 2233.56 375.398 Q2236.64 379.981 2236.64 388.731 Q2236.64 397.458 2233.56 402.064 Q2230.5 406.648 2224.69 406.648 Q2218.88 406.648 2215.8 402.064 Q2212.75 397.458 2212.75 388.731 Q2212.75 379.981 2215.8 375.398 Q2218.88 370.791 2224.69 370.791 Z" fill="#000000" fill-rule="nonzero" fill-opacity="1" /><path clip-path="url(#clip330)" d="M2259.16 369.958 L2263.44 369.958 L2263.44 391.231 L2276.15 380.051 L2281.59 380.051 L2267.84 392.18 L2282.17 405.976 L2276.61 405.976 L2263.44 393.314 L2263.44 405.976 L2259.16 405.976 L2259.16 369.958 Z" fill="#000000" fill-rule="nonzero" fill-opacity="1" /><path clip-path="url(#clip330)" d="M2308.33 390.328 L2308.33 405.976 L2304.07 405.976 L2304.07 390.467 Q2304.07 386.787 2302.63 384.958 Q2301.2 383.129 2298.33 383.129 Q2294.88 383.129 2292.89 385.328 Q2290.89 387.527 2290.89 391.324 L2290.89 405.976 L2286.61 405.976 L2286.61 380.051 L2290.89 380.051 L2290.89 384.078 Q2292.42 381.74 2294.48 380.583 Q2296.57 379.426 2299.27 379.426 Q2303.74 379.426 2306.03 382.203 Q2308.33 384.958 2308.33 390.328 Z" fill="#000000" fill-rule="nonzero" fill-opacity="1" /><path clip-path="url(#clip330)" d="M2326.87 383.037 Q2323.44 383.037 2321.45 385.722 Q2319.46 388.384 2319.46 393.037 Q2319.46 397.689 2321.43 400.374 Q2323.42 403.036 2326.87 403.036 Q2330.27 403.036 2332.26 400.351 Q2334.25 397.666 2334.25 393.037 Q2334.25 388.43 2332.26 385.745 Q2330.27 383.037 2326.87 383.037 M2326.87 379.426 Q2332.42 379.426 2335.59 383.037 Q2338.76 386.648 2338.76 393.037 Q2338.76 399.402 2335.59 403.036 Q2332.42 406.648 2326.87 406.648 Q2321.29 406.648 2318.12 403.036 Q2314.97 399.402 2314.97 393.037 Q2314.97 386.648 2318.12 383.037 Q2321.29 379.426 2326.87 379.426 Z" fill="#000000" fill-rule="nonzero" fill-opacity="1" /><path clip-path="url(#clip330)" d="M2350.04 372.689 L2350.04 380.051 L2358.81 380.051 L2358.81 383.361 L2350.04 383.361 L2350.04 397.435 Q2350.04 400.606 2350.89 401.509 Q2351.77 402.411 2354.44 402.411 L2358.81 402.411 L2358.81 405.976 L2354.44 405.976 Q2349.51 405.976 2347.63 404.148 Q2345.76 402.296 2345.76 397.435 L2345.76 383.361 L2342.63 383.361 L2342.63 380.051 L2345.76 380.051 L2345.76 372.689 L2350.04 372.689 Z" fill="#000000" fill-rule="nonzero" fill-opacity="1" /><path clip-path="url(#clip330)" d="M2380.94 380.814 L2380.94 384.842 Q2379.13 383.916 2377.19 383.453 Q2375.25 382.99 2373.16 382.99 Q2369.99 382.99 2368.39 383.963 Q2366.82 384.935 2366.82 386.879 Q2366.82 388.361 2367.95 389.217 Q2369.09 390.05 2372.51 390.814 L2373.97 391.138 Q2378.51 392.111 2380.41 393.893 Q2382.33 395.652 2382.33 398.824 Q2382.33 402.435 2379.46 404.541 Q2376.61 406.648 2371.61 406.648 Q2369.53 406.648 2367.26 406.231 Q2365.01 405.837 2362.51 405.027 L2362.51 400.629 Q2364.88 401.856 2367.17 402.481 Q2369.46 403.083 2371.7 403.083 Q2374.71 403.083 2376.33 402.064 Q2377.95 401.023 2377.95 399.148 Q2377.95 397.412 2376.77 396.486 Q2375.62 395.56 2371.66 394.703 L2370.18 394.356 Q2366.22 393.523 2364.46 391.81 Q2362.7 390.074 2362.7 387.064 Q2362.7 383.407 2365.29 381.416 Q2367.88 379.426 2372.65 379.426 Q2375.01 379.426 2377.1 379.773 Q2379.18 380.12 2380.94 380.814 Z" fill="#000000" fill-rule="nonzero" fill-opacity="1" /></svg>
