<?xml version="1.0" encoding="utf-8"?>
<svg xmlns="http://www.w3.org/2000/svg" xmlns:xlink="http://www.w3.org/1999/xlink" width="672" height="480" viewBox="0 0 2688 1920">
<defs>
  <clipPath id="clip530">
    <rect x="0" y="0" width="2688" height="1920"/>
  </clipPath>
</defs>
<path clip-path="url(#clip530)" d="M0 1920 L2688 1920 L2688 -4.26326e-14 L0 -4.26326e-14  Z" fill="#ffffff" fill-rule="evenodd" fill-opacity="1"/>
<defs>
  <clipPath id="clip531">
    <rect x="268" y="127" width="2373" height="1607"/>
  </clipPath>
</defs>
<path clip-path="url(#clip530)" d="M268.826 1734.12 L2640.76 1734.12 L2640.76 127.792 L268.826 127.792  Z" fill="#ffffff" fill-rule="evenodd" fill-opacity="1"/>
<polyline clip-path="url(#clip531)" style="stroke:#000000; stroke-linecap:round; stroke-linejoin:round; stroke-width:2; stroke-opacity:0.1; fill:none" points="335.956,1734.12 335.956,127.792 "/>
<polyline clip-path="url(#clip531)" style="stroke:#000000; stroke-linecap:round; stroke-linejoin:round; stroke-width:2; stroke-opacity:0.1; fill:none" points="802.139,1734.12 802.139,127.792 "/>
<polyline clip-path="url(#clip531)" style="stroke:#000000; stroke-linecap:round; stroke-linejoin:round; stroke-width:2; stroke-opacity:0.1; fill:none" points="1268.32,1734.12 1268.32,127.792 "/>
<polyline clip-path="url(#clip531)" style="stroke:#000000; stroke-linecap:round; stroke-linejoin:round; stroke-width:2; stroke-opacity:0.1; fill:none" points="1734.5,1734.12 1734.5,127.792 "/>
<polyline clip-path="url(#clip531)" style="stroke:#000000; stroke-linecap:round; stroke-linejoin:round; stroke-width:2; stroke-opacity:0.1; fill:none" points="2200.69,1734.12 2200.69,127.792 "/>
<polyline clip-path="url(#clip531)" style="stroke:#000000; stroke-linecap:round; stroke-linejoin:round; stroke-width:2; stroke-opacity:0.1; fill:none" points="268.826,1688.65 2640.76,1688.65 "/>
<polyline clip-path="url(#clip531)" style="stroke:#000000; stroke-linecap:round; stroke-linejoin:round; stroke-width:2; stroke-opacity:0.1; fill:none" points="268.826,1447.79 2640.76,1447.79 "/>
<polyline clip-path="url(#clip531)" style="stroke:#000000; stroke-linecap:round; stroke-linejoin:round; stroke-width:2; stroke-opacity:0.1; fill:none" points="268.826,1206.92 2640.76,1206.92 "/>
<polyline clip-path="url(#clip531)" style="stroke:#000000; stroke-linecap:round; stroke-linejoin:round; stroke-width:2; stroke-opacity:0.1; fill:none" points="268.826,966.056 2640.76,966.056 "/>
<polyline clip-path="url(#clip531)" style="stroke:#000000; stroke-linecap:round; stroke-linejoin:round; stroke-width:2; stroke-opacity:0.1; fill:none" points="268.826,725.189 2640.76,725.189 "/>
<polyline clip-path="url(#clip531)" style="stroke:#000000; stroke-linecap:round; stroke-linejoin:round; stroke-width:2; stroke-opacity:0.1; fill:none" points="268.826,484.323 2640.76,484.323 "/>
<polyline clip-path="url(#clip531)" style="stroke:#000000; stroke-linecap:round; stroke-linejoin:round; stroke-width:2; stroke-opacity:0.1; fill:none" points="268.826,243.456 2640.76,243.456 "/>
<polyline clip-path="url(#clip530)" style="stroke:#000000; stroke-linecap:round; stroke-linejoin:round; stroke-width:4; stroke-opacity:1; fill:none" points="268.826,1734.12 2640.76,1734.12 "/>
<polyline clip-path="url(#clip530)" style="stroke:#000000; stroke-linecap:round; stroke-linejoin:round; stroke-width:4; stroke-opacity:1; fill:none" points="335.956,1734.12 335.956,1715.22 "/>
<polyline clip-path="url(#clip530)" style="stroke:#000000; stroke-linecap:round; stroke-linejoin:round; stroke-width:4; stroke-opacity:1; fill:none" points="802.139,1734.12 802.139,1715.22 "/>
<polyline clip-path="url(#clip530)" style="stroke:#000000; stroke-linecap:round; stroke-linejoin:round; stroke-width:4; stroke-opacity:1; fill:none" points="1268.32,1734.12 1268.32,1715.22 "/>
<polyline clip-path="url(#clip530)" style="stroke:#000000; stroke-linecap:round; stroke-linejoin:round; stroke-width:4; stroke-opacity:1; fill:none" points="1734.5,1734.12 1734.5,1715.22 "/>
<polyline clip-path="url(#clip530)" style="stroke:#000000; stroke-linecap:round; stroke-linejoin:round; stroke-width:4; stroke-opacity:1; fill:none" points="2200.69,1734.12 2200.69,1715.22 "/>
<path clip-path="url(#clip530)" d="M335.956 1767.34 Q332.345 1767.34 330.516 1770.9 Q328.71 1774.45 328.71 1781.58 Q328.71 1788.68 330.516 1792.25 Q332.345 1795.79 335.956 1795.79 Q339.59 1795.79 341.395 1792.25 Q343.224 1788.68 343.224 1781.58 Q343.224 1774.45 341.395 1770.9 Q339.59 1767.34 335.956 1767.34 M335.956 1763.64 Q341.766 1763.64 344.821 1768.24 Q347.9 1772.83 347.9 1781.58 Q347.9 1790.3 344.821 1794.91 Q341.766 1799.49 335.956 1799.49 Q330.145 1799.49 327.067 1794.91 Q324.011 1790.3 324.011 1781.58 Q324.011 1772.83 327.067 1768.24 Q330.145 1763.64 335.956 1763.64 Z" fill="#000000" fill-rule="nonzero" fill-opacity="1" /><path clip-path="url(#clip530)" d="M761.757 1764.26 L780.113 1764.26 L780.113 1768.2 L766.039 1768.2 L766.039 1776.67 Q767.058 1776.32 768.076 1776.16 Q769.095 1775.97 770.113 1775.97 Q775.9 1775.97 779.28 1779.15 Q782.659 1782.32 782.659 1787.73 Q782.659 1793.31 779.187 1796.41 Q775.715 1799.49 769.396 1799.49 Q767.22 1799.49 764.951 1799.12 Q762.706 1798.75 760.298 1798.01 L760.298 1793.31 Q762.382 1794.45 764.604 1795 Q766.826 1795.56 769.303 1795.56 Q773.308 1795.56 775.646 1793.45 Q777.984 1791.34 777.984 1787.73 Q777.984 1784.12 775.646 1782.02 Q773.308 1779.91 769.303 1779.91 Q767.428 1779.91 765.553 1780.33 Q763.701 1780.74 761.757 1781.62 L761.757 1764.26 Z" fill="#000000" fill-rule="nonzero" fill-opacity="1" /><path clip-path="url(#clip530)" d="M801.872 1767.34 Q798.261 1767.34 796.433 1770.9 Q794.627 1774.45 794.627 1781.58 Q794.627 1788.68 796.433 1792.25 Q798.261 1795.79 801.872 1795.79 Q805.507 1795.79 807.312 1792.25 Q809.141 1788.68 809.141 1781.58 Q809.141 1774.45 807.312 1770.9 Q805.507 1767.34 801.872 1767.34 M801.872 1763.64 Q807.682 1763.64 810.738 1768.24 Q813.817 1772.83 813.817 1781.58 Q813.817 1790.3 810.738 1794.91 Q807.682 1799.49 801.872 1799.49 Q796.062 1799.49 792.983 1794.91 Q789.928 1790.3 789.928 1781.58 Q789.928 1772.83 792.983 1768.24 Q796.062 1763.64 801.872 1763.64 Z" fill="#000000" fill-rule="nonzero" fill-opacity="1" /><path clip-path="url(#clip530)" d="M832.034 1767.34 Q828.423 1767.34 826.594 1770.9 Q824.789 1774.45 824.789 1781.58 Q824.789 1788.68 826.594 1792.25 Q828.423 1795.79 832.034 1795.79 Q835.668 1795.79 837.474 1792.25 Q839.303 1788.68 839.303 1781.58 Q839.303 1774.45 837.474 1770.9 Q835.668 1767.34 832.034 1767.34 M832.034 1763.64 Q837.844 1763.64 840.9 1768.24 Q843.979 1772.83 843.979 1781.58 Q843.979 1790.3 840.9 1794.91 Q837.844 1799.49 832.034 1799.49 Q826.224 1799.49 823.145 1794.91 Q820.09 1790.3 820.09 1781.58 Q820.09 1772.83 823.145 1768.24 Q826.224 1763.64 832.034 1763.64 Z" fill="#000000" fill-rule="nonzero" fill-opacity="1" /><path clip-path="url(#clip530)" d="M1212.85 1794.89 L1220.49 1794.89 L1220.49 1768.52 L1212.18 1770.19 L1212.18 1765.93 L1220.44 1764.26 L1225.12 1764.26 L1225.12 1794.89 L1232.75 1794.89 L1232.75 1798.82 L1212.85 1798.82 L1212.85 1794.89 Z" fill="#000000" fill-rule="nonzero" fill-opacity="1" /><path clip-path="url(#clip530)" d="M1252.2 1767.34 Q1248.59 1767.34 1246.76 1770.9 Q1244.95 1774.45 1244.95 1781.58 Q1244.95 1788.68 1246.76 1792.25 Q1248.59 1795.79 1252.2 1795.79 Q1255.83 1795.79 1257.64 1792.25 Q1259.47 1788.68 1259.47 1781.58 Q1259.47 1774.45 1257.64 1770.9 Q1255.83 1767.34 1252.2 1767.34 M1252.2 1763.64 Q1258.01 1763.64 1261.06 1768.24 Q1264.14 1772.83 1264.14 1781.58 Q1264.14 1790.3 1261.06 1794.91 Q1258.01 1799.49 1252.2 1799.49 Q1246.39 1799.49 1243.31 1794.91 Q1240.25 1790.3 1240.25 1781.58 Q1240.25 1772.83 1243.31 1768.24 Q1246.39 1763.64 1252.2 1763.64 Z" fill="#000000" fill-rule="nonzero" fill-opacity="1" /><path clip-path="url(#clip530)" d="M1282.36 1767.34 Q1278.75 1767.34 1276.92 1770.9 Q1275.12 1774.45 1275.12 1781.58 Q1275.12 1788.68 1276.92 1792.25 Q1278.75 1795.79 1282.36 1795.79 Q1285.99 1795.79 1287.8 1792.25 Q1289.63 1788.68 1289.63 1781.58 Q1289.63 1774.45 1287.8 1770.9 Q1285.99 1767.34 1282.36 1767.34 M1282.36 1763.64 Q1288.17 1763.64 1291.23 1768.24 Q1294.31 1772.83 1294.31 1781.58 Q1294.31 1790.3 1291.23 1794.91 Q1288.17 1799.49 1282.36 1799.49 Q1276.55 1799.49 1273.47 1794.91 Q1270.42 1790.3 1270.42 1781.58 Q1270.42 1772.83 1273.47 1768.24 Q1276.55 1763.64 1282.36 1763.64 Z" fill="#000000" fill-rule="nonzero" fill-opacity="1" /><path clip-path="url(#clip530)" d="M1312.52 1767.34 Q1308.91 1767.34 1307.08 1770.9 Q1305.28 1774.45 1305.28 1781.58 Q1305.28 1788.68 1307.08 1792.25 Q1308.91 1795.79 1312.52 1795.79 Q1316.16 1795.79 1317.96 1792.25 Q1319.79 1788.68 1319.79 1781.58 Q1319.79 1774.45 1317.96 1770.9 Q1316.16 1767.34 1312.52 1767.34 M1312.52 1763.64 Q1318.33 1763.64 1321.39 1768.24 Q1324.47 1772.83 1324.47 1781.58 Q1324.47 1790.3 1321.39 1794.91 Q1318.33 1799.49 1312.52 1799.49 Q1306.71 1799.49 1303.63 1794.91 Q1300.58 1790.3 1300.58 1781.58 Q1300.58 1772.83 1303.63 1768.24 Q1306.71 1763.64 1312.52 1763.64 Z" fill="#000000" fill-rule="nonzero" fill-opacity="1" /><path clip-path="url(#clip530)" d="M1679.03 1794.89 L1686.67 1794.89 L1686.67 1768.52 L1678.36 1770.19 L1678.36 1765.93 L1686.62 1764.26 L1691.3 1764.26 L1691.3 1794.89 L1698.94 1794.89 L1698.94 1798.82 L1679.03 1798.82 L1679.03 1794.89 Z" fill="#000000" fill-rule="nonzero" fill-opacity="1" /><path clip-path="url(#clip530)" d="M1708.43 1764.26 L1726.78 1764.26 L1726.78 1768.2 L1712.71 1768.2 L1712.71 1776.67 Q1713.73 1776.32 1714.75 1776.16 Q1715.77 1775.97 1716.78 1775.97 Q1722.57 1775.97 1725.95 1779.15 Q1729.33 1782.32 1729.33 1787.73 Q1729.33 1793.31 1725.86 1796.41 Q1722.39 1799.49 1716.07 1799.49 Q1713.89 1799.49 1711.62 1799.12 Q1709.38 1798.75 1706.97 1798.01 L1706.97 1793.31 Q1709.05 1794.45 1711.28 1795 Q1713.5 1795.56 1715.97 1795.56 Q1719.98 1795.56 1722.32 1793.45 Q1724.65 1791.34 1724.65 1787.73 Q1724.65 1784.12 1722.32 1782.02 Q1719.98 1779.91 1715.97 1779.91 Q1714.1 1779.91 1712.22 1780.33 Q1710.37 1780.74 1708.43 1781.62 L1708.43 1764.26 Z" fill="#000000" fill-rule="nonzero" fill-opacity="1" /><path clip-path="url(#clip530)" d="M1748.54 1767.34 Q1744.93 1767.34 1743.1 1770.9 Q1741.3 1774.45 1741.3 1781.58 Q1741.3 1788.68 1743.1 1792.25 Q1744.93 1795.79 1748.54 1795.79 Q1752.18 1795.79 1753.98 1792.25 Q1755.81 1788.68 1755.81 1781.58 Q1755.81 1774.45 1753.98 1770.9 Q1752.18 1767.34 1748.54 1767.34 M1748.54 1763.64 Q1754.35 1763.64 1757.41 1768.24 Q1760.49 1772.83 1760.49 1781.58 Q1760.49 1790.3 1757.41 1794.91 Q1754.35 1799.49 1748.54 1799.49 Q1742.73 1799.49 1739.65 1794.91 Q1736.6 1790.3 1736.6 1781.58 Q1736.6 1772.83 1739.65 1768.24 Q1742.73 1763.64 1748.54 1763.64 Z" fill="#000000" fill-rule="nonzero" fill-opacity="1" /><path clip-path="url(#clip530)" d="M1778.71 1767.34 Q1775.09 1767.34 1773.27 1770.9 Q1771.46 1774.45 1771.46 1781.58 Q1771.46 1788.68 1773.27 1792.25 Q1775.09 1795.79 1778.71 1795.79 Q1782.34 1795.79 1784.15 1792.25 Q1785.97 1788.68 1785.97 1781.58 Q1785.97 1774.45 1784.15 1770.9 Q1782.34 1767.34 1778.71 1767.34 M1778.71 1763.64 Q1784.52 1763.64 1787.57 1768.24 Q1790.65 1772.83 1790.65 1781.58 Q1790.65 1790.3 1787.57 1794.91 Q1784.52 1799.49 1778.71 1799.49 Q1772.9 1799.49 1769.82 1794.91 Q1766.76 1790.3 1766.76 1781.58 Q1766.76 1772.83 1769.82 1768.24 Q1772.9 1763.64 1778.71 1763.64 Z" fill="#000000" fill-rule="nonzero" fill-opacity="1" /><path clip-path="url(#clip530)" d="M2149.3 1794.89 L2165.62 1794.89 L2165.62 1798.82 L2143.67 1798.82 L2143.67 1794.89 Q2146.34 1792.13 2150.92 1787.5 Q2155.53 1782.85 2156.71 1781.51 Q2158.95 1778.98 2159.83 1777.25 Q2160.73 1775.49 2160.73 1773.8 Q2160.73 1771.04 2158.79 1769.31 Q2156.87 1767.57 2153.77 1767.57 Q2151.57 1767.57 2149.11 1768.34 Q2146.68 1769.1 2143.91 1770.65 L2143.91 1765.93 Q2146.73 1764.79 2149.18 1764.21 Q2151.64 1763.64 2153.67 1763.64 Q2159.04 1763.64 2162.24 1766.32 Q2165.43 1769.01 2165.43 1773.5 Q2165.43 1775.63 2164.62 1777.55 Q2163.84 1779.45 2161.73 1782.04 Q2161.15 1782.71 2158.05 1785.93 Q2154.95 1789.12 2149.3 1794.89 Z" fill="#000000" fill-rule="nonzero" fill-opacity="1" /><path clip-path="url(#clip530)" d="M2185.43 1767.34 Q2181.82 1767.34 2179.99 1770.9 Q2178.19 1774.45 2178.19 1781.58 Q2178.19 1788.68 2179.99 1792.25 Q2181.82 1795.79 2185.43 1795.79 Q2189.07 1795.79 2190.87 1792.25 Q2192.7 1788.68 2192.7 1781.58 Q2192.7 1774.45 2190.87 1770.9 Q2189.07 1767.34 2185.43 1767.34 M2185.43 1763.64 Q2191.24 1763.64 2194.3 1768.24 Q2197.38 1772.83 2197.38 1781.58 Q2197.38 1790.3 2194.3 1794.91 Q2191.24 1799.49 2185.43 1799.49 Q2179.62 1799.49 2176.54 1794.91 Q2173.49 1790.3 2173.49 1781.58 Q2173.49 1772.83 2176.54 1768.24 Q2179.62 1763.64 2185.43 1763.64 Z" fill="#000000" fill-rule="nonzero" fill-opacity="1" /><path clip-path="url(#clip530)" d="M2215.59 1767.34 Q2211.98 1767.34 2210.15 1770.9 Q2208.35 1774.45 2208.35 1781.58 Q2208.35 1788.68 2210.15 1792.25 Q2211.98 1795.79 2215.59 1795.79 Q2219.23 1795.79 2221.03 1792.25 Q2222.86 1788.68 2222.86 1781.58 Q2222.86 1774.45 2221.03 1770.9 Q2219.23 1767.34 2215.59 1767.34 M2215.59 1763.64 Q2221.4 1763.64 2224.46 1768.24 Q2227.54 1772.83 2227.54 1781.58 Q2227.54 1790.3 2224.46 1794.91 Q2221.4 1799.49 2215.59 1799.49 Q2209.78 1799.49 2206.71 1794.91 Q2203.65 1790.3 2203.65 1781.58 Q2203.65 1772.83 2206.71 1768.24 Q2209.78 1763.64 2215.59 1763.64 Z" fill="#000000" fill-rule="nonzero" fill-opacity="1" /><path clip-path="url(#clip530)" d="M2245.76 1767.34 Q2242.15 1767.34 2240.32 1770.9 Q2238.51 1774.45 2238.51 1781.58 Q2238.51 1788.68 2240.32 1792.25 Q2242.15 1795.79 2245.76 1795.79 Q2249.39 1795.79 2251.2 1792.25 Q2253.02 1788.68 2253.02 1781.58 Q2253.02 1774.45 2251.2 1770.9 Q2249.39 1767.34 2245.76 1767.34 M2245.76 1763.64 Q2251.57 1763.64 2254.62 1768.24 Q2257.7 1772.83 2257.7 1781.58 Q2257.7 1790.3 2254.62 1794.91 Q2251.57 1799.49 2245.76 1799.49 Q2239.95 1799.49 2236.87 1794.91 Q2233.81 1790.3 2233.81 1781.58 Q2233.81 1772.83 2236.87 1768.24 Q2239.95 1763.64 2245.76 1763.64 Z" fill="#000000" fill-rule="nonzero" fill-opacity="1" /><path clip-path="url(#clip530)" d="M1177.93 1837.34 L1177.93 1843.61 Q1174.27 1841.86 1171.02 1841 Q1167.78 1840.14 1164.75 1840.14 Q1159.5 1840.14 1156.64 1842.18 Q1153.8 1844.22 1153.8 1847.97 Q1153.8 1851.12 1155.68 1852.75 Q1157.59 1854.34 1162.88 1855.32 L1166.76 1856.12 Q1173.95 1857.49 1177.36 1860.96 Q1180.79 1864.39 1180.79 1870.19 Q1180.79 1877.09 1176.15 1880.66 Q1171.53 1884.22 1162.59 1884.22 Q1159.22 1884.22 1155.4 1883.46 Q1151.61 1882.7 1147.53 1881.2 L1147.53 1874.58 Q1151.45 1876.78 1155.2 1877.89 Q1158.96 1879 1162.59 1879 Q1168.1 1879 1171.09 1876.84 Q1174.08 1874.68 1174.08 1870.67 Q1174.08 1867.16 1171.91 1865.19 Q1169.78 1863.22 1164.88 1862.23 L1160.97 1861.47 Q1153.77 1860.03 1150.56 1856.98 Q1147.34 1853.92 1147.34 1848.48 Q1147.34 1842.18 1151.77 1838.55 Q1156.22 1834.92 1164.02 1834.92 Q1167.36 1834.92 1170.83 1835.53 Q1174.3 1836.13 1177.93 1837.34 Z" fill="#000000" fill-rule="nonzero" fill-opacity="1" /><path clip-path="url(#clip530)" d="M1196.23 1877.95 L1196.23 1896.86 L1190.34 1896.86 L1190.34 1847.65 L1196.23 1847.65 L1196.23 1853.06 Q1198.08 1849.88 1200.88 1848.35 Q1203.71 1846.79 1207.63 1846.79 Q1214.12 1846.79 1218.16 1851.95 Q1222.24 1857.11 1222.24 1865.51 Q1222.24 1873.91 1218.16 1879.07 Q1214.12 1884.22 1207.63 1884.22 Q1203.71 1884.22 1200.88 1882.7 Q1198.08 1881.14 1196.23 1877.95 M1216.16 1865.51 Q1216.16 1859.05 1213.48 1855.39 Q1210.84 1851.7 1206.19 1851.7 Q1201.55 1851.7 1198.87 1855.39 Q1196.23 1859.05 1196.23 1865.51 Q1196.23 1871.97 1198.87 1875.66 Q1201.55 1879.32 1206.19 1879.32 Q1210.84 1879.32 1213.48 1875.66 Q1216.16 1871.97 1216.16 1865.51 Z" fill="#000000" fill-rule="nonzero" fill-opacity="1" /><path clip-path="url(#clip530)" d="M1248.14 1865.38 Q1241.05 1865.38 1238.31 1867 Q1235.57 1868.63 1235.57 1872.54 Q1235.57 1875.66 1237.61 1877.51 Q1239.68 1879.32 1243.21 1879.32 Q1248.08 1879.32 1251.01 1875.88 Q1253.97 1872.42 1253.97 1866.69 L1253.97 1865.38 L1248.14 1865.38 M1259.83 1862.96 L1259.83 1883.3 L1253.97 1883.3 L1253.97 1877.89 Q1251.96 1881.14 1248.97 1882.7 Q1245.98 1884.22 1241.65 1884.22 Q1236.18 1884.22 1232.93 1881.17 Q1229.72 1878.08 1229.72 1872.92 Q1229.72 1866.91 1233.73 1863.85 Q1237.77 1860.8 1245.76 1860.8 L1253.97 1860.8 L1253.97 1860.23 Q1253.97 1856.18 1251.29 1853.99 Q1248.65 1851.76 1243.85 1851.76 Q1240.79 1851.76 1237.9 1852.49 Q1235 1853.22 1232.33 1854.69 L1232.33 1849.28 Q1235.54 1848.03 1238.56 1847.43 Q1241.59 1846.79 1244.45 1846.79 Q1252.19 1846.79 1256.01 1850.8 Q1259.83 1854.81 1259.83 1862.96 Z" fill="#000000" fill-rule="nonzero" fill-opacity="1" /><path clip-path="url(#clip530)" d="M1268.48 1847.65 L1274.34 1847.65 L1281.66 1875.47 L1288.95 1847.65 L1295.85 1847.65 L1303.18 1875.47 L1310.46 1847.65 L1316.32 1847.65 L1306.99 1883.3 L1300.09 1883.3 L1292.42 1854.08 L1284.71 1883.3 L1277.81 1883.3 L1268.48 1847.65 Z" fill="#000000" fill-rule="nonzero" fill-opacity="1" /><path clip-path="url(#clip530)" d="M1354.83 1861.78 L1354.83 1883.3 L1348.98 1883.3 L1348.98 1861.98 Q1348.98 1856.92 1347 1854.4 Q1345.03 1851.89 1341.08 1851.89 Q1336.34 1851.89 1333.6 1854.91 Q1330.87 1857.93 1330.87 1863.15 L1330.87 1883.3 L1324.98 1883.3 L1324.98 1847.65 L1330.87 1847.65 L1330.87 1853.19 Q1332.97 1849.98 1335.8 1848.39 Q1338.66 1846.79 1342.39 1846.79 Q1348.53 1846.79 1351.68 1850.61 Q1354.83 1854.4 1354.83 1861.78 Z" fill="#000000" fill-rule="nonzero" fill-opacity="1" /><path clip-path="url(#clip530)" d="M1366.51 1847.65 L1372.37 1847.65 L1372.37 1883.3 L1366.51 1883.3 L1366.51 1847.65 M1366.51 1833.78 L1372.37 1833.78 L1372.37 1841.19 L1366.51 1841.19 L1366.51 1833.78 Z" fill="#000000" fill-rule="nonzero" fill-opacity="1" /><path clip-path="url(#clip530)" d="M1414.26 1861.78 L1414.26 1883.3 L1408.4 1883.3 L1408.4 1861.98 Q1408.4 1856.92 1406.43 1854.4 Q1404.45 1851.89 1400.51 1851.89 Q1395.76 1851.89 1393.03 1854.91 Q1390.29 1857.93 1390.29 1863.15 L1390.29 1883.3 L1384.4 1883.3 L1384.4 1847.65 L1390.29 1847.65 L1390.29 1853.19 Q1392.39 1849.98 1395.22 1848.39 Q1398.09 1846.79 1401.81 1846.79 Q1407.96 1846.79 1411.11 1850.61 Q1414.26 1854.4 1414.26 1861.78 Z" fill="#000000" fill-rule="nonzero" fill-opacity="1" /><path clip-path="url(#clip530)" d="M1449.4 1865.06 Q1449.4 1858.7 1446.75 1855.2 Q1444.14 1851.7 1439.4 1851.7 Q1434.69 1851.7 1432.05 1855.2 Q1429.44 1858.7 1429.44 1865.06 Q1429.44 1871.4 1432.05 1874.9 Q1434.69 1878.4 1439.4 1878.4 Q1444.14 1878.4 1446.75 1874.9 Q1449.4 1871.4 1449.4 1865.06 M1455.25 1878.88 Q1455.25 1887.98 1451.21 1892.4 Q1447.17 1896.86 1438.83 1896.86 Q1435.74 1896.86 1433 1896.38 Q1430.27 1895.94 1427.69 1894.98 L1427.69 1889.28 Q1430.27 1890.69 1432.78 1891.35 Q1435.3 1892.02 1437.91 1892.02 Q1443.67 1892.02 1446.53 1889 Q1449.4 1886.01 1449.4 1879.93 L1449.4 1877.03 Q1447.58 1880.18 1444.75 1881.74 Q1441.92 1883.3 1437.97 1883.3 Q1431.41 1883.3 1427.4 1878.3 Q1423.39 1873.31 1423.39 1865.06 Q1423.39 1856.79 1427.4 1851.79 Q1431.41 1846.79 1437.97 1846.79 Q1441.92 1846.79 1444.75 1848.35 Q1447.58 1849.91 1449.4 1853.06 L1449.4 1847.65 L1455.25 1847.65 L1455.25 1878.88 Z" fill="#000000" fill-rule="nonzero" fill-opacity="1" /><path clip-path="url(#clip530)" d="M1510.76 1848.7 L1510.76 1854.24 Q1508.28 1852.97 1505.6 1852.33 Q1502.93 1851.7 1500.07 1851.7 Q1495.71 1851.7 1493.51 1853.03 Q1491.35 1854.37 1491.35 1857.04 Q1491.35 1859.08 1492.91 1860.26 Q1494.46 1861.4 1499.18 1862.45 L1501.18 1862.9 Q1507.42 1864.24 1510.03 1866.69 Q1512.67 1869.11 1512.67 1873.47 Q1512.67 1878.43 1508.72 1881.33 Q1504.81 1884.22 1497.93 1884.22 Q1495.07 1884.22 1491.95 1883.65 Q1488.86 1883.11 1485.43 1882 L1485.43 1875.95 Q1488.67 1877.64 1491.82 1878.49 Q1494.97 1879.32 1498.06 1879.32 Q1502.2 1879.32 1504.43 1877.92 Q1506.66 1876.49 1506.66 1873.91 Q1506.66 1871.52 1505.03 1870.25 Q1503.44 1868.98 1498 1867.8 L1495.96 1867.32 Q1490.52 1866.18 1488.1 1863.82 Q1485.68 1861.43 1485.68 1857.3 Q1485.68 1852.27 1489.25 1849.53 Q1492.81 1846.79 1499.37 1846.79 Q1502.61 1846.79 1505.48 1847.27 Q1508.34 1847.75 1510.76 1848.7 Z" fill="#000000" fill-rule="nonzero" fill-opacity="1" /><path clip-path="url(#clip530)" d="M1527.79 1837.53 L1527.79 1847.65 L1539.85 1847.65 L1539.85 1852.2 L1527.79 1852.2 L1527.79 1871.56 Q1527.79 1875.92 1528.97 1877.16 Q1530.18 1878.4 1533.84 1878.4 L1539.85 1878.4 L1539.85 1883.3 L1533.84 1883.3 Q1527.06 1883.3 1524.48 1880.79 Q1521.9 1878.24 1521.9 1871.56 L1521.9 1852.2 L1517.6 1852.2 L1517.6 1847.65 L1521.9 1847.65 L1521.9 1837.53 L1527.79 1837.53 Z" fill="#000000" fill-rule="nonzero" fill-opacity="1" /><path clip-path="url(#clip530)" d="M1561.37 1851.76 Q1556.66 1851.76 1553.92 1855.45 Q1551.18 1859.11 1551.18 1865.51 Q1551.18 1871.91 1553.89 1875.6 Q1556.63 1879.26 1561.37 1879.26 Q1566.05 1879.26 1568.78 1875.57 Q1571.52 1871.87 1571.52 1865.51 Q1571.52 1859.17 1568.78 1855.48 Q1566.05 1851.76 1561.37 1851.76 M1561.37 1846.79 Q1569.01 1846.79 1573.37 1851.76 Q1577.73 1856.72 1577.73 1865.51 Q1577.73 1874.26 1573.37 1879.26 Q1569.01 1884.22 1561.37 1884.22 Q1553.7 1884.22 1549.34 1879.26 Q1545.01 1874.26 1545.01 1865.51 Q1545.01 1856.72 1549.34 1851.76 Q1553.7 1846.79 1561.37 1846.79 Z" fill="#000000" fill-rule="nonzero" fill-opacity="1" /><path clip-path="url(#clip530)" d="M1613.09 1849.02 L1613.09 1854.5 Q1610.61 1853.13 1608.09 1852.46 Q1605.61 1851.76 1603.06 1851.76 Q1597.37 1851.76 1594.22 1855.39 Q1591.06 1858.98 1591.06 1865.51 Q1591.06 1872.03 1594.22 1875.66 Q1597.37 1879.26 1603.06 1879.26 Q1605.61 1879.26 1608.09 1878.59 Q1610.61 1877.89 1613.09 1876.52 L1613.09 1881.93 Q1610.64 1883.08 1608 1883.65 Q1605.39 1884.22 1602.43 1884.22 Q1594.37 1884.22 1589.63 1879.16 Q1584.89 1874.1 1584.89 1865.51 Q1584.89 1856.79 1589.66 1851.79 Q1594.47 1846.79 1602.81 1846.79 Q1605.51 1846.79 1608.09 1847.37 Q1610.67 1847.91 1613.09 1849.02 Z" fill="#000000" fill-rule="nonzero" fill-opacity="1" /><path clip-path="url(#clip530)" d="M1623.05 1833.78 L1628.94 1833.78 L1628.94 1863.03 L1646.41 1847.65 L1653.89 1847.65 L1634.99 1864.33 L1654.69 1883.3 L1647.05 1883.3 L1628.94 1865.89 L1628.94 1883.3 L1623.05 1883.3 L1623.05 1833.78 Z" fill="#000000" fill-rule="nonzero" fill-opacity="1" /><path clip-path="url(#clip530)" d="M1695.81 1833.84 Q1691.55 1841.16 1689.48 1848.32 Q1687.41 1855.48 1687.41 1862.84 Q1687.41 1870.19 1689.48 1877.41 Q1691.58 1884.61 1695.81 1891.89 L1690.72 1891.89 Q1685.95 1884.41 1683.56 1877.19 Q1681.2 1869.96 1681.2 1862.84 Q1681.2 1855.74 1683.56 1848.54 Q1685.91 1841.35 1690.72 1833.84 L1695.81 1833.84 Z" fill="#000000" fill-rule="nonzero" fill-opacity="1" /><path clip-path="url(#clip530)" d="M1735.92 1837.34 L1735.92 1843.61 Q1732.26 1841.86 1729.01 1841 Q1725.76 1840.14 1722.74 1840.14 Q1717.49 1840.14 1714.62 1842.18 Q1711.79 1844.22 1711.79 1847.97 Q1711.79 1851.12 1713.67 1852.75 Q1715.58 1854.34 1720.86 1855.32 L1724.74 1856.12 Q1731.94 1857.49 1735.34 1860.96 Q1738.78 1864.39 1738.78 1870.19 Q1738.78 1877.09 1734.13 1880.66 Q1729.52 1884.22 1720.57 1884.22 Q1717.2 1884.22 1713.38 1883.46 Q1709.59 1882.7 1705.52 1881.2 L1705.52 1874.58 Q1709.43 1876.78 1713.19 1877.89 Q1716.95 1879 1720.57 1879 Q1726.08 1879 1729.07 1876.84 Q1732.06 1874.68 1732.06 1870.67 Q1732.06 1867.16 1729.9 1865.19 Q1727.77 1863.22 1722.87 1862.23 L1718.95 1861.47 Q1711.76 1860.03 1708.54 1856.98 Q1705.33 1853.92 1705.33 1848.48 Q1705.33 1842.18 1709.75 1838.55 Q1714.21 1834.92 1722.01 1834.92 Q1725.35 1834.92 1728.82 1835.53 Q1732.29 1836.13 1735.92 1837.34 Z" fill="#000000" fill-rule="nonzero" fill-opacity="1" /><path clip-path="url(#clip530)" d="M1747.63 1833.84 L1752.72 1833.84 Q1757.5 1841.35 1759.85 1848.54 Q1762.24 1855.74 1762.24 1862.84 Q1762.24 1869.96 1759.85 1877.19 Q1757.5 1884.41 1752.72 1891.89 L1747.63 1891.89 Q1751.86 1884.61 1753.93 1877.41 Q1756.03 1870.19 1756.03 1862.84 Q1756.03 1855.48 1753.93 1848.32 Q1751.86 1841.16 1747.63 1833.84 Z" fill="#000000" fill-rule="nonzero" fill-opacity="1" /><polyline clip-path="url(#clip530)" style="stroke:#000000; stroke-linecap:round; stroke-linejoin:round; stroke-width:4; stroke-opacity:1; fill:none" points="268.826,1734.12 268.826,127.792 "/>
<polyline clip-path="url(#clip530)" style="stroke:#000000; stroke-linecap:round; stroke-linejoin:round; stroke-width:4; stroke-opacity:1; fill:none" points="268.826,1688.65 287.723,1688.65 "/>
<polyline clip-path="url(#clip530)" style="stroke:#000000; stroke-linecap:round; stroke-linejoin:round; stroke-width:4; stroke-opacity:1; fill:none" points="268.826,1447.79 287.723,1447.79 "/>
<polyline clip-path="url(#clip530)" style="stroke:#000000; stroke-linecap:round; stroke-linejoin:round; stroke-width:4; stroke-opacity:1; fill:none" points="268.826,1206.92 287.723,1206.92 "/>
<polyline clip-path="url(#clip530)" style="stroke:#000000; stroke-linecap:round; stroke-linejoin:round; stroke-width:4; stroke-opacity:1; fill:none" points="268.826,966.056 287.723,966.056 "/>
<polyline clip-path="url(#clip530)" style="stroke:#000000; stroke-linecap:round; stroke-linejoin:round; stroke-width:4; stroke-opacity:1; fill:none" points="268.826,725.189 287.723,725.189 "/>
<polyline clip-path="url(#clip530)" style="stroke:#000000; stroke-linecap:round; stroke-linejoin:round; stroke-width:4; stroke-opacity:1; fill:none" points="268.826,484.323 287.723,484.323 "/>
<polyline clip-path="url(#clip530)" style="stroke:#000000; stroke-linecap:round; stroke-linejoin:round; stroke-width:4; stroke-opacity:1; fill:none" points="268.826,243.456 287.723,243.456 "/>
<path clip-path="url(#clip530)" d="M216.561 1674.45 Q212.95 1674.45 211.121 1678.02 Q209.316 1681.56 209.316 1688.69 Q209.316 1695.8 211.121 1699.36 Q212.95 1702.9 216.561 1702.9 Q220.195 1702.9 222.001 1699.36 Q223.83 1695.8 223.83 1688.69 Q223.83 1681.56 222.001 1678.02 Q220.195 1674.45 216.561 1674.45 M216.561 1670.75 Q222.371 1670.75 225.427 1675.36 Q228.506 1679.94 228.506 1688.69 Q228.506 1697.42 225.427 1702.02 Q222.371 1706.61 216.561 1706.61 Q210.751 1706.61 207.672 1702.02 Q204.617 1697.42 204.617 1688.69 Q204.617 1679.94 207.672 1675.36 Q210.751 1670.75 216.561 1670.75 Z" fill="#000000" fill-rule="nonzero" fill-opacity="1" /><path clip-path="url(#clip530)" d="M150.265 1461.13 L166.585 1461.13 L166.585 1465.07 L144.64 1465.07 L144.64 1461.13 Q147.302 1458.38 151.886 1453.75 Q156.492 1449.1 157.673 1447.75 Q159.918 1445.23 160.798 1443.49 Q161.7 1441.74 161.7 1440.05 Q161.7 1437.29 159.756 1435.55 Q157.835 1433.82 154.733 1433.82 Q152.534 1433.82 150.08 1434.58 Q147.649 1435.35 144.872 1436.9 L144.872 1432.18 Q147.696 1431.04 150.149 1430.46 Q152.603 1429.88 154.64 1429.88 Q160.011 1429.88 163.205 1432.57 Q166.399 1435.25 166.399 1439.74 Q166.399 1441.87 165.589 1443.8 Q164.802 1445.69 162.696 1448.29 Q162.117 1448.96 159.015 1452.18 Q155.913 1455.37 150.265 1461.13 Z" fill="#000000" fill-rule="nonzero" fill-opacity="1" /><path clip-path="url(#clip530)" d="M186.399 1433.59 Q182.788 1433.59 180.959 1437.15 Q179.154 1440.69 179.154 1447.82 Q179.154 1454.93 180.959 1458.49 Q182.788 1462.04 186.399 1462.04 Q190.033 1462.04 191.839 1458.49 Q193.668 1454.93 193.668 1447.82 Q193.668 1440.69 191.839 1437.15 Q190.033 1433.59 186.399 1433.59 M186.399 1429.88 Q192.209 1429.88 195.265 1434.49 Q198.344 1439.07 198.344 1447.82 Q198.344 1456.55 195.265 1461.16 Q192.209 1465.74 186.399 1465.74 Q180.589 1465.74 177.51 1461.16 Q174.455 1456.55 174.455 1447.82 Q174.455 1439.07 177.51 1434.49 Q180.589 1429.88 186.399 1429.88 Z" fill="#000000" fill-rule="nonzero" fill-opacity="1" /><path clip-path="url(#clip530)" d="M216.561 1433.59 Q212.95 1433.59 211.121 1437.15 Q209.316 1440.69 209.316 1447.82 Q209.316 1454.93 211.121 1458.49 Q212.95 1462.04 216.561 1462.04 Q220.195 1462.04 222.001 1458.49 Q223.83 1454.93 223.83 1447.82 Q223.83 1440.69 222.001 1437.15 Q220.195 1433.59 216.561 1433.59 M216.561 1429.88 Q222.371 1429.88 225.427 1434.49 Q228.506 1439.07 228.506 1447.82 Q228.506 1456.55 225.427 1461.16 Q222.371 1465.74 216.561 1465.74 Q210.751 1465.74 207.672 1461.16 Q204.617 1456.55 204.617 1447.82 Q204.617 1439.07 207.672 1434.49 Q210.751 1429.88 216.561 1429.88 Z" fill="#000000" fill-rule="nonzero" fill-opacity="1" /><path clip-path="url(#clip530)" d="M159.085 1193.72 L147.279 1212.17 L159.085 1212.17 L159.085 1193.72 M157.858 1189.64 L163.737 1189.64 L163.737 1212.17 L168.668 1212.17 L168.668 1216.05 L163.737 1216.05 L163.737 1224.2 L159.085 1224.2 L159.085 1216.05 L143.483 1216.05 L143.483 1211.54 L157.858 1189.64 Z" fill="#000000" fill-rule="nonzero" fill-opacity="1" /><path clip-path="url(#clip530)" d="M186.399 1192.72 Q182.788 1192.72 180.959 1196.29 Q179.154 1199.83 179.154 1206.96 Q179.154 1214.06 180.959 1217.63 Q182.788 1221.17 186.399 1221.17 Q190.033 1221.17 191.839 1217.63 Q193.668 1214.06 193.668 1206.96 Q193.668 1199.83 191.839 1196.29 Q190.033 1192.72 186.399 1192.72 M186.399 1189.02 Q192.209 1189.02 195.265 1193.62 Q198.344 1198.21 198.344 1206.96 Q198.344 1215.68 195.265 1220.29 Q192.209 1224.87 186.399 1224.87 Q180.589 1224.87 177.51 1220.29 Q174.455 1215.68 174.455 1206.96 Q174.455 1198.21 177.51 1193.62 Q180.589 1189.02 186.399 1189.02 Z" fill="#000000" fill-rule="nonzero" fill-opacity="1" /><path clip-path="url(#clip530)" d="M216.561 1192.72 Q212.95 1192.72 211.121 1196.29 Q209.316 1199.83 209.316 1206.96 Q209.316 1214.06 211.121 1217.63 Q212.95 1221.17 216.561 1221.17 Q220.195 1221.17 222.001 1217.63 Q223.83 1214.06 223.83 1206.96 Q223.83 1199.83 222.001 1196.29 Q220.195 1192.72 216.561 1192.72 M216.561 1189.02 Q222.371 1189.02 225.427 1193.62 Q228.506 1198.21 228.506 1206.96 Q228.506 1215.68 225.427 1220.29 Q222.371 1224.87 216.561 1224.87 Q210.751 1224.87 207.672 1220.29 Q204.617 1215.68 204.617 1206.96 Q204.617 1198.21 207.672 1193.62 Q210.751 1189.02 216.561 1189.02 Z" fill="#000000" fill-rule="nonzero" fill-opacity="1" /><path clip-path="url(#clip530)" d="M156.816 964.192 Q153.668 964.192 151.816 966.345 Q149.987 968.498 149.987 972.248 Q149.987 975.975 151.816 978.151 Q153.668 980.303 156.816 980.303 Q159.964 980.303 161.793 978.151 Q163.645 975.975 163.645 972.248 Q163.645 968.498 161.793 966.345 Q159.964 964.192 156.816 964.192 M166.098 949.54 L166.098 953.799 Q164.339 952.966 162.534 952.526 Q160.751 952.086 158.992 952.086 Q154.362 952.086 151.909 955.211 Q149.478 958.336 149.131 964.655 Q150.497 962.641 152.557 961.577 Q154.617 960.489 157.094 960.489 Q162.302 960.489 165.311 963.66 Q168.344 966.808 168.344 972.248 Q168.344 977.572 165.196 980.789 Q162.048 984.007 156.816 984.007 Q150.821 984.007 147.649 979.424 Q144.478 974.817 144.478 966.09 Q144.478 957.896 148.367 953.035 Q152.256 948.151 158.807 948.151 Q160.566 948.151 162.348 948.498 Q164.154 948.845 166.098 949.54 Z" fill="#000000" fill-rule="nonzero" fill-opacity="1" /><path clip-path="url(#clip530)" d="M186.399 951.854 Q182.788 951.854 180.959 955.419 Q179.154 958.961 179.154 966.09 Q179.154 973.197 180.959 976.762 Q182.788 980.303 186.399 980.303 Q190.033 980.303 191.839 976.762 Q193.668 973.197 193.668 966.09 Q193.668 958.961 191.839 955.419 Q190.033 951.854 186.399 951.854 M186.399 948.151 Q192.209 948.151 195.265 952.757 Q198.344 957.34 198.344 966.09 Q198.344 974.817 195.265 979.424 Q192.209 984.007 186.399 984.007 Q180.589 984.007 177.51 979.424 Q174.455 974.817 174.455 966.09 Q174.455 957.34 177.51 952.757 Q180.589 948.151 186.399 948.151 Z" fill="#000000" fill-rule="nonzero" fill-opacity="1" /><path clip-path="url(#clip530)" d="M216.561 951.854 Q212.95 951.854 211.121 955.419 Q209.316 958.961 209.316 966.09 Q209.316 973.197 211.121 976.762 Q212.95 980.303 216.561 980.303 Q220.195 980.303 222.001 976.762 Q223.83 973.197 223.83 966.09 Q223.83 958.961 222.001 955.419 Q220.195 951.854 216.561 951.854 M216.561 948.151 Q222.371 948.151 225.427 952.757 Q228.506 957.34 228.506 966.09 Q228.506 974.817 225.427 979.424 Q222.371 984.007 216.561 984.007 Q210.751 984.007 207.672 979.424 Q204.617 974.817 204.617 966.09 Q204.617 957.34 207.672 952.757 Q210.751 948.151 216.561 948.151 Z" fill="#000000" fill-rule="nonzero" fill-opacity="1" /><path clip-path="url(#clip530)" d="M156.237 726.057 Q152.904 726.057 150.983 727.84 Q149.085 729.622 149.085 732.747 Q149.085 735.872 150.983 737.655 Q152.904 739.437 156.237 739.437 Q159.571 739.437 161.492 737.655 Q163.413 735.849 163.413 732.747 Q163.413 729.622 161.492 727.84 Q159.594 726.057 156.237 726.057 M151.561 724.067 Q148.552 723.326 146.862 721.266 Q145.196 719.206 145.196 716.243 Q145.196 712.099 148.136 709.692 Q151.099 707.284 156.237 707.284 Q161.399 707.284 164.339 709.692 Q167.279 712.099 167.279 716.243 Q167.279 719.206 165.589 721.266 Q163.923 723.326 160.936 724.067 Q164.316 724.854 166.191 727.145 Q168.089 729.437 168.089 732.747 Q168.089 737.77 165.01 740.455 Q161.955 743.141 156.237 743.141 Q150.52 743.141 147.441 740.455 Q144.386 737.77 144.386 732.747 Q144.386 729.437 146.284 727.145 Q148.182 724.854 151.561 724.067 M149.849 716.682 Q149.849 719.368 151.515 720.872 Q153.205 722.377 156.237 722.377 Q159.247 722.377 160.936 720.872 Q162.649 719.368 162.649 716.682 Q162.649 713.997 160.936 712.493 Q159.247 710.988 156.237 710.988 Q153.205 710.988 151.515 712.493 Q149.849 713.997 149.849 716.682 Z" fill="#000000" fill-rule="nonzero" fill-opacity="1" /><path clip-path="url(#clip530)" d="M186.399 710.988 Q182.788 710.988 180.959 714.553 Q179.154 718.094 179.154 725.224 Q179.154 732.33 180.959 735.895 Q182.788 739.437 186.399 739.437 Q190.033 739.437 191.839 735.895 Q193.668 732.33 193.668 725.224 Q193.668 718.094 191.839 714.553 Q190.033 710.988 186.399 710.988 M186.399 707.284 Q192.209 707.284 195.265 711.891 Q198.344 716.474 198.344 725.224 Q198.344 733.951 195.265 738.557 Q192.209 743.141 186.399 743.141 Q180.589 743.141 177.51 738.557 Q174.455 733.951 174.455 725.224 Q174.455 716.474 177.51 711.891 Q180.589 707.284 186.399 707.284 Z" fill="#000000" fill-rule="nonzero" fill-opacity="1" /><path clip-path="url(#clip530)" d="M216.561 710.988 Q212.95 710.988 211.121 714.553 Q209.316 718.094 209.316 725.224 Q209.316 732.33 211.121 735.895 Q212.95 739.437 216.561 739.437 Q220.195 739.437 222.001 735.895 Q223.83 732.33 223.83 725.224 Q223.83 718.094 222.001 714.553 Q220.195 710.988 216.561 710.988 M216.561 707.284 Q222.371 707.284 225.427 711.891 Q228.506 716.474 228.506 725.224 Q228.506 733.951 225.427 738.557 Q222.371 743.141 216.561 743.141 Q210.751 743.141 207.672 738.557 Q204.617 733.951 204.617 725.224 Q204.617 716.474 207.672 711.891 Q210.751 707.284 216.561 707.284 Z" fill="#000000" fill-rule="nonzero" fill-opacity="1" /><path clip-path="url(#clip530)" d="M116.886 497.668 L124.525 497.668 L124.525 471.302 L116.214 472.969 L116.214 468.71 L124.478 467.043 L129.154 467.043 L129.154 497.668 L136.793 497.668 L136.793 501.603 L116.886 501.603 L116.886 497.668 Z" fill="#000000" fill-rule="nonzero" fill-opacity="1" /><path clip-path="url(#clip530)" d="M156.237 470.122 Q152.626 470.122 150.798 473.686 Q148.992 477.228 148.992 484.358 Q148.992 491.464 150.798 495.029 Q152.626 498.571 156.237 498.571 Q159.872 498.571 161.677 495.029 Q163.506 491.464 163.506 484.358 Q163.506 477.228 161.677 473.686 Q159.872 470.122 156.237 470.122 M156.237 466.418 Q162.048 466.418 165.103 471.024 Q168.182 475.608 168.182 484.358 Q168.182 493.084 165.103 497.691 Q162.048 502.274 156.237 502.274 Q150.427 502.274 147.349 497.691 Q144.293 493.084 144.293 484.358 Q144.293 475.608 147.349 471.024 Q150.427 466.418 156.237 466.418 Z" fill="#000000" fill-rule="nonzero" fill-opacity="1" /><path clip-path="url(#clip530)" d="M186.399 470.122 Q182.788 470.122 180.959 473.686 Q179.154 477.228 179.154 484.358 Q179.154 491.464 180.959 495.029 Q182.788 498.571 186.399 498.571 Q190.033 498.571 191.839 495.029 Q193.668 491.464 193.668 484.358 Q193.668 477.228 191.839 473.686 Q190.033 470.122 186.399 470.122 M186.399 466.418 Q192.209 466.418 195.265 471.024 Q198.344 475.608 198.344 484.358 Q198.344 493.084 195.265 497.691 Q192.209 502.274 186.399 502.274 Q180.589 502.274 177.51 497.691 Q174.455 493.084 174.455 484.358 Q174.455 475.608 177.51 471.024 Q180.589 466.418 186.399 466.418 Z" fill="#000000" fill-rule="nonzero" fill-opacity="1" /><path clip-path="url(#clip530)" d="M216.561 470.122 Q212.95 470.122 211.121 473.686 Q209.316 477.228 209.316 484.358 Q209.316 491.464 211.121 495.029 Q212.95 498.571 216.561 498.571 Q220.195 498.571 222.001 495.029 Q223.83 491.464 223.83 484.358 Q223.83 477.228 222.001 473.686 Q220.195 470.122 216.561 470.122 M216.561 466.418 Q222.371 466.418 225.427 471.024 Q228.506 475.608 228.506 484.358 Q228.506 493.084 225.427 497.691 Q222.371 502.274 216.561 502.274 Q210.751 502.274 207.672 497.691 Q204.617 493.084 204.617 484.358 Q204.617 475.608 207.672 471.024 Q210.751 466.418 216.561 466.418 Z" fill="#000000" fill-rule="nonzero" fill-opacity="1" /><path clip-path="url(#clip530)" d="M116.886 256.801 L124.525 256.801 L124.525 230.436 L116.214 232.102 L116.214 227.843 L124.478 226.176 L129.154 226.176 L129.154 256.801 L136.793 256.801 L136.793 260.736 L116.886 260.736 L116.886 256.801 Z" fill="#000000" fill-rule="nonzero" fill-opacity="1" /><path clip-path="url(#clip530)" d="M150.265 256.801 L166.585 256.801 L166.585 260.736 L144.64 260.736 L144.64 256.801 Q147.302 254.047 151.886 249.417 Q156.492 244.764 157.673 243.422 Q159.918 240.899 160.798 239.163 Q161.7 237.403 161.7 235.713 Q161.7 232.959 159.756 231.223 Q157.835 229.487 154.733 229.487 Q152.534 229.487 150.08 230.251 Q147.649 231.014 144.872 232.565 L144.872 227.843 Q147.696 226.709 150.149 226.13 Q152.603 225.551 154.64 225.551 Q160.011 225.551 163.205 228.237 Q166.399 230.922 166.399 235.413 Q166.399 237.542 165.589 239.463 Q164.802 241.362 162.696 243.954 Q162.117 244.625 159.015 247.843 Q155.913 251.037 150.265 256.801 Z" fill="#000000" fill-rule="nonzero" fill-opacity="1" /><path clip-path="url(#clip530)" d="M186.399 229.255 Q182.788 229.255 180.959 232.82 Q179.154 236.362 179.154 243.491 Q179.154 250.598 180.959 254.162 Q182.788 257.704 186.399 257.704 Q190.033 257.704 191.839 254.162 Q193.668 250.598 193.668 243.491 Q193.668 236.362 191.839 232.82 Q190.033 229.255 186.399 229.255 M186.399 225.551 Q192.209 225.551 195.265 230.158 Q198.344 234.741 198.344 243.491 Q198.344 252.218 195.265 256.824 Q192.209 261.408 186.399 261.408 Q180.589 261.408 177.51 256.824 Q174.455 252.218 174.455 243.491 Q174.455 234.741 177.51 230.158 Q180.589 225.551 186.399 225.551 Z" fill="#000000" fill-rule="nonzero" fill-opacity="1" /><path clip-path="url(#clip530)" d="M216.561 229.255 Q212.95 229.255 211.121 232.82 Q209.316 236.362 209.316 243.491 Q209.316 250.598 211.121 254.162 Q212.95 257.704 216.561 257.704 Q220.195 257.704 222.001 254.162 Q223.83 250.598 223.83 243.491 Q223.83 236.362 222.001 232.82 Q220.195 229.255 216.561 229.255 M216.561 225.551 Q222.371 225.551 225.427 230.158 Q228.506 234.741 228.506 243.491 Q228.506 252.218 225.427 256.824 Q222.371 261.408 216.561 261.408 Q210.751 261.408 207.672 256.824 Q204.617 252.218 204.617 243.491 Q204.617 234.741 207.672 230.158 Q210.751 225.551 216.561 225.551 Z" fill="#000000" fill-rule="nonzero" fill-opacity="1" /><path clip-path="url(#clip530)" d="M39.3585 971.186 Q40.0587 969.117 42.3504 967.175 Q44.642 965.202 48.6524 963.229 L61.6384 956.704 L61.6384 963.611 L49.4481 969.69 Q44.6738 972.045 43.1142 974.273 Q41.5546 976.469 41.5546 980.289 L41.5546 987.291 L61.6384 987.291 L61.6384 993.72 L14.1184 993.72 L14.1184 979.207 Q14.1184 971.059 17.5241 967.048 Q20.9297 963.038 27.8047 963.038 Q32.2925 963.038 35.2526 965.138 Q38.2126 967.207 39.3585 971.186 M19.402 987.291 L36.2711 987.291 L36.2711 979.207 Q36.2711 974.56 34.1386 972.204 Q31.9743 969.817 27.8047 969.817 Q23.6352 969.817 21.5345 972.204 Q19.402 974.56 19.402 979.207 L19.402 987.291 Z" fill="#000000" fill-rule="nonzero" fill-opacity="1" /><path clip-path="url(#clip530)" d="M12.1769 934.615 Q19.4975 938.88 26.6589 940.949 Q33.8203 943.018 41.1727 943.018 Q48.5251 943.018 55.7502 940.949 Q62.9434 938.848 70.2321 934.615 L70.2321 939.707 Q62.7524 944.482 55.5274 946.869 Q48.3023 949.224 41.1727 949.224 Q34.0749 949.224 26.8817 946.869 Q19.6884 944.514 12.1769 939.707 L12.1769 934.615 Z" fill="#000000" fill-rule="nonzero" fill-opacity="1" /><path clip-path="url(#clip530)" d="M15.678 894.511 L21.9483 894.511 Q20.1977 898.171 19.3383 901.418 Q18.479 904.664 18.479 907.688 Q18.479 912.94 20.516 915.804 Q22.553 918.637 26.3088 918.637 Q29.4598 918.637 31.0831 916.759 Q32.6745 914.849 33.6612 909.566 L34.4569 905.683 Q35.8255 898.489 39.2948 895.084 Q42.7323 891.646 48.5251 891.646 Q55.4319 891.646 58.9967 896.293 Q62.5615 900.908 62.5615 909.852 Q62.5615 913.226 61.7976 917.045 Q61.0337 920.833 59.5378 924.907 L52.9174 924.907 Q55.1136 920.992 56.2276 917.236 Q57.3416 913.481 57.3416 909.852 Q57.3416 904.346 55.1773 901.354 Q53.0129 898.362 49.0025 898.362 Q45.5014 898.362 43.528 900.526 Q41.5546 902.659 40.568 907.561 L39.8041 911.475 Q38.3718 918.669 35.3162 921.883 Q32.2607 925.098 26.818 925.098 Q20.516 925.098 16.8875 920.674 Q13.2591 916.218 13.2591 908.42 Q13.2591 905.078 13.8638 901.609 Q14.4686 898.139 15.678 894.511 Z" fill="#000000" fill-rule="nonzero" fill-opacity="1" /><path clip-path="url(#clip530)" d="M12.1769 882.798 L12.1769 877.705 Q19.6884 872.931 26.8817 870.576 Q34.0749 868.189 41.1727 868.189 Q48.3023 868.189 55.5274 870.576 Q62.7524 872.931 70.2321 877.705 L70.2321 882.798 Q62.9434 878.565 55.7502 876.496 Q48.5251 874.395 41.1727 874.395 Q33.8203 874.395 26.6589 876.496 Q19.4975 878.565 12.1769 882.798 Z" fill="#000000" fill-rule="nonzero" fill-opacity="1" /><path clip-path="url(#clip530)" d="M574.651 43.6931 L574.651 65.8515 L587.776 65.8515 Q594.379 65.8515 597.538 63.1374 Q600.739 60.3828 600.739 54.752 Q600.739 49.0808 597.538 46.4072 Q594.379 43.6931 587.776 43.6931 L574.651 43.6931 M574.651 18.8205 L574.651 37.0496 L586.763 37.0496 Q592.758 37.0496 595.675 34.8216 Q598.632 32.5531 598.632 27.935 Q598.632 23.3575 595.675 21.089 Q592.758 18.8205 586.763 18.8205 L574.651 18.8205 M566.468 12.096 L587.371 12.096 Q596.728 12.096 601.792 15.9849 Q606.855 19.8737 606.855 27.0438 Q606.855 32.5936 604.263 35.8748 Q601.67 39.156 596.647 39.9662 Q602.683 41.2625 606.005 45.3944 Q609.367 49.4858 609.367 55.6432 Q609.367 63.745 603.858 68.1605 Q598.349 72.576 588.181 72.576 L566.468 72.576 L566.468 12.096 Z" fill="#000000" fill-rule="nonzero" fill-opacity="1" /><path clip-path="url(#clip530)" d="M640.64 32.4315 Q634.645 32.4315 631.161 37.1306 Q627.677 41.7891 627.677 49.9314 Q627.677 58.0738 631.12 62.7728 Q634.604 67.4314 640.64 67.4314 Q646.595 67.4314 650.079 62.7323 Q653.562 58.0333 653.562 49.9314 Q653.562 41.8701 650.079 37.1711 Q646.595 32.4315 640.64 32.4315 M640.64 26.1121 Q650.362 26.1121 655.912 32.4315 Q661.462 38.7509 661.462 49.9314 Q661.462 61.0714 655.912 67.4314 Q650.362 73.7508 640.64 73.7508 Q630.877 73.7508 625.328 67.4314 Q619.818 61.0714 619.818 49.9314 Q619.818 38.7509 625.328 32.4315 Q630.877 26.1121 640.64 26.1121 Z" fill="#000000" fill-rule="nonzero" fill-opacity="1" /><path clip-path="url(#clip530)" d="M691.398 32.4315 Q685.402 32.4315 681.919 37.1306 Q678.435 41.7891 678.435 49.9314 Q678.435 58.0738 681.878 62.7728 Q685.362 67.4314 691.398 67.4314 Q697.353 67.4314 700.836 62.7323 Q704.32 58.0333 704.32 49.9314 Q704.32 41.8701 700.836 37.1711 Q697.353 32.4315 691.398 32.4315 M691.398 26.1121 Q701.12 26.1121 706.67 32.4315 Q712.219 38.7509 712.219 49.9314 Q712.219 61.0714 706.67 67.4314 Q701.12 73.7508 691.398 73.7508 Q681.635 73.7508 676.085 67.4314 Q670.576 61.0714 670.576 49.9314 Q670.576 38.7509 676.085 32.4315 Q681.635 26.1121 691.398 26.1121 Z" fill="#000000" fill-rule="nonzero" fill-opacity="1" /><path clip-path="url(#clip530)" d="M731.947 14.324 L731.947 27.2059 L747.3 27.2059 L747.3 32.9987 L731.947 32.9987 L731.947 57.6282 Q731.947 63.1779 733.446 64.7578 Q734.986 66.3376 739.644 66.3376 L747.3 66.3376 L747.3 72.576 L739.644 72.576 Q731.016 72.576 727.734 69.3758 Q724.453 66.1351 724.453 57.6282 L724.453 32.9987 L718.984 32.9987 L718.984 27.2059 L724.453 27.2059 L724.453 14.324 L731.947 14.324 Z" fill="#000000" fill-rule="nonzero" fill-opacity="1" /><path clip-path="url(#clip530)" d="M786.027 28.5427 L786.027 35.5912 Q782.867 33.9709 779.464 33.1607 Q776.062 32.3505 772.416 32.3505 Q766.866 32.3505 764.071 34.0519 Q761.316 35.7533 761.316 39.156 Q761.316 41.7486 763.301 43.2475 Q765.286 44.7058 771.282 46.0426 L773.834 46.6097 Q781.773 48.3111 785.095 51.4303 Q788.457 54.509 788.457 60.0587 Q788.457 66.3781 783.434 70.0644 Q778.452 73.7508 769.702 73.7508 Q766.056 73.7508 762.086 73.0216 Q758.157 72.3329 753.782 70.9151 L753.782 63.2184 Q757.914 65.3654 761.924 66.4591 Q765.934 67.5124 769.864 67.5124 Q775.13 67.5124 777.966 65.73 Q780.801 63.9071 780.801 60.6258 Q780.801 57.5877 778.735 55.9673 Q776.71 54.3469 769.783 52.8481 L767.19 52.2405 Q760.263 50.7821 757.184 47.7845 Q754.106 44.7463 754.106 39.4801 Q754.106 33.0797 758.643 29.5959 Q763.18 26.1121 771.525 26.1121 Q775.657 26.1121 779.302 26.7198 Q782.948 27.3274 786.027 28.5427 Z" fill="#000000" fill-rule="nonzero" fill-opacity="1" /><path clip-path="url(#clip530)" d="M807.699 14.324 L807.699 27.2059 L823.052 27.2059 L823.052 32.9987 L807.699 32.9987 L807.699 57.6282 Q807.699 63.1779 809.198 64.7578 Q810.737 66.3376 815.396 66.3376 L823.052 66.3376 L823.052 72.576 L815.396 72.576 Q806.768 72.576 803.486 69.3758 Q800.205 66.1351 800.205 57.6282 L800.205 32.9987 L794.736 32.9987 L794.736 27.2059 L800.205 27.2059 L800.205 14.324 L807.699 14.324 Z" fill="#000000" fill-rule="nonzero" fill-opacity="1" /><path clip-path="url(#clip530)" d="M859.146 34.1734 Q857.89 33.4443 856.391 33.1202 Q854.933 32.7556 853.15 32.7556 Q846.831 32.7556 843.428 36.8875 Q840.066 40.9789 840.066 48.6757 L840.066 72.576 L832.572 72.576 L832.572 27.2059 L840.066 27.2059 L840.066 34.2544 Q842.416 30.1225 846.183 28.1376 Q849.95 26.1121 855.338 26.1121 Q856.108 26.1121 857.039 26.2337 Q857.971 26.3147 859.105 26.5172 L859.146 34.1734 Z" fill="#000000" fill-rule="nonzero" fill-opacity="1" /><path clip-path="url(#clip530)" d="M887.583 49.7694 Q878.55 49.7694 875.066 51.8354 Q871.582 53.9013 871.582 58.8839 Q871.582 62.8538 874.175 65.2034 Q876.808 67.5124 881.304 67.5124 Q887.502 67.5124 891.229 63.1374 Q894.996 58.7219 894.996 51.4303 L894.996 49.7694 L887.583 49.7694 M902.45 46.6907 L902.45 72.576 L894.996 72.576 L894.996 65.6895 Q892.444 69.8214 888.636 71.8063 Q884.828 73.7508 879.319 73.7508 Q872.352 73.7508 868.22 69.8619 Q864.128 65.9325 864.128 59.3701 Q864.128 51.7138 869.233 47.825 Q874.377 43.9361 884.545 43.9361 L894.996 43.9361 L894.996 43.2069 Q894.996 38.0623 891.593 35.2672 Q888.231 32.4315 882.114 32.4315 Q878.226 32.4315 874.539 33.3632 Q870.853 34.295 867.45 36.1584 L867.45 29.2718 Q871.542 27.692 875.39 26.9223 Q879.238 26.1121 882.884 26.1121 Q892.728 26.1121 897.589 31.2163 Q902.45 36.3204 902.45 46.6907 Z" fill="#000000" fill-rule="nonzero" fill-opacity="1" /><path clip-path="url(#clip530)" d="M925.013 65.7705 L925.013 89.8329 L917.519 89.8329 L917.519 27.2059 L925.013 27.2059 L925.013 34.0924 Q927.363 30.0415 930.928 28.0971 Q934.533 26.1121 939.516 26.1121 Q947.78 26.1121 952.924 32.6746 Q958.109 39.2371 958.109 49.9314 Q958.109 60.6258 952.924 67.1883 Q947.78 73.7508 939.516 73.7508 Q934.533 73.7508 930.928 71.8063 Q927.363 69.8214 925.013 65.7705 M950.372 49.9314 Q950.372 41.7081 946.969 37.0496 Q943.607 32.3505 937.693 32.3505 Q931.778 32.3505 928.376 37.0496 Q925.013 41.7081 925.013 49.9314 Q925.013 58.1548 928.376 62.8538 Q931.778 67.5124 937.693 67.5124 Q943.607 67.5124 946.969 62.8538 Q950.372 58.1548 950.372 49.9314 Z" fill="#000000" fill-rule="nonzero" fill-opacity="1" /><path clip-path="url(#clip530)" d="M998.132 71.3202 L998.132 63.8666 Q1001.21 65.3249 1004.37 66.0946 Q1007.53 66.8642 1010.57 66.8642 Q1018.67 66.8642 1022.92 61.436 Q1027.22 55.9673 1027.83 44.8678 Q1025.48 48.3516 1021.87 50.215 Q1018.27 52.0784 1013.89 52.0784 Q1004.82 52.0784 999.51 46.6097 Q994.243 41.1005 994.243 31.5808 Q994.243 22.2638 999.753 16.633 Q1005.26 11.0023 1014.42 11.0023 Q1024.91 11.0023 1030.42 19.0636 Q1035.97 27.0843 1035.97 42.3968 Q1035.97 56.6965 1029.16 65.2439 Q1022.4 73.7508 1010.93 73.7508 Q1007.85 73.7508 1004.69 73.1431 Q1001.54 72.5355 998.132 71.3202 M1014.42 45.678 Q1019.93 45.678 1023.13 41.9107 Q1026.37 38.1433 1026.37 31.5808 Q1026.37 25.0589 1023.13 21.2916 Q1019.93 17.4837 1014.42 17.4837 Q1008.91 17.4837 1005.67 21.2916 Q1002.47 25.0589 1002.47 31.5808 Q1002.47 38.1433 1005.67 41.9107 Q1008.91 45.678 1014.42 45.678 Z" fill="#000000" fill-rule="nonzero" fill-opacity="1" /><path clip-path="url(#clip530)" d="M1050.75 12.096 L1082.88 12.096 L1082.88 18.9825 L1058.25 18.9825 L1058.25 33.8088 Q1060.03 33.2012 1061.81 32.9176 Q1063.59 32.5936 1065.38 32.5936 Q1075.5 32.5936 1081.42 38.1433 Q1087.33 43.6931 1087.33 53.1722 Q1087.33 62.9348 1081.26 68.3631 Q1075.18 73.7508 1064.12 73.7508 Q1060.31 73.7508 1056.34 73.1026 Q1052.41 72.4545 1048.2 71.1582 L1048.2 62.9348 Q1051.85 64.9198 1055.74 65.892 Q1059.63 66.8642 1063.96 66.8642 Q1070.97 66.8642 1075.06 63.1779 Q1079.15 59.4916 1079.15 53.1722 Q1079.15 46.8528 1075.06 43.1664 Q1070.97 39.4801 1063.96 39.4801 Q1060.68 39.4801 1057.4 40.2093 Q1054.16 40.9384 1050.75 42.4778 L1050.75 12.096 Z" fill="#000000" fill-rule="nonzero" fill-opacity="1" /><path clip-path="url(#clip530)" d="M1154.9 45.9616 Q1151.38 45.9616 1149.35 48.9592 Q1147.37 51.9569 1147.37 57.3041 Q1147.37 62.5703 1149.35 65.6084 Q1151.38 68.6061 1154.9 68.6061 Q1158.35 68.6061 1160.33 65.6084 Q1162.36 62.5703 1162.36 57.3041 Q1162.36 51.9974 1160.33 48.9997 Q1158.35 45.9616 1154.9 45.9616 M1154.9 40.8169 Q1161.3 40.8169 1165.07 45.2729 Q1168.84 49.7289 1168.84 57.3041 Q1168.84 64.8793 1165.03 69.3353 Q1161.26 73.7508 1154.9 73.7508 Q1148.42 73.7508 1144.65 69.3353 Q1140.89 64.8793 1140.89 57.3041 Q1140.89 49.6884 1144.65 45.2729 Q1148.46 40.8169 1154.9 40.8169 M1113.1 16.1469 Q1109.61 16.1469 1107.59 19.1851 Q1105.6 22.1828 1105.6 27.4489 Q1105.6 32.7961 1107.59 35.7938 Q1109.57 38.7915 1113.1 38.7915 Q1116.62 38.7915 1118.61 35.7938 Q1120.63 32.7961 1120.63 27.4489 Q1120.63 22.2233 1118.61 19.1851 Q1116.58 16.1469 1113.1 16.1469 M1149.68 11.0023 L1156.16 11.0023 L1118.32 73.7508 L1111.84 73.7508 L1149.68 11.0023 M1113.1 11.0023 Q1119.5 11.0023 1123.31 15.4583 Q1127.11 19.8737 1127.11 27.4489 Q1127.11 35.1051 1123.31 39.5206 Q1119.54 43.9361 1113.1 43.9361 Q1106.66 43.9361 1102.89 39.5206 Q1099.16 35.0646 1099.16 27.4489 Q1099.16 19.9142 1102.93 15.4583 Q1106.7 11.0023 1113.1 11.0023 Z" fill="#000000" fill-rule="nonzero" fill-opacity="1" /><path clip-path="url(#clip530)" d="M1253.22 16.7545 L1253.22 25.383 Q1249.09 21.5346 1244.39 19.6307 Q1239.73 17.7268 1234.46 17.7268 Q1224.09 17.7268 1218.58 24.0867 Q1213.07 30.4061 1213.07 42.3968 Q1213.07 54.3469 1218.58 60.7069 Q1224.09 67.0263 1234.46 67.0263 Q1239.73 67.0263 1244.39 65.1223 Q1249.09 63.2184 1253.22 59.3701 L1253.22 67.9175 Q1248.92 70.8341 1244.1 72.2924 Q1239.32 73.7508 1233.98 73.7508 Q1220.24 73.7508 1212.34 65.3654 Q1204.44 56.9395 1204.44 42.3968 Q1204.44 27.8135 1212.34 19.4281 Q1220.24 11.0023 1233.98 11.0023 Q1239.4 11.0023 1244.18 12.4606 Q1249 13.8784 1253.22 16.7545 Z" fill="#000000" fill-rule="nonzero" fill-opacity="1" /><path clip-path="url(#clip530)" d="M1265.86 12.096 L1274.04 12.096 L1274.04 72.576 L1265.86 72.576 L1265.86 12.096 Z" fill="#000000" fill-rule="nonzero" fill-opacity="1" /><path clip-path="url(#clip530)" d="M1318.92 28.5427 L1318.92 35.5912 Q1315.76 33.9709 1312.36 33.1607 Q1308.96 32.3505 1305.31 32.3505 Q1299.76 32.3505 1296.97 34.0519 Q1294.21 35.7533 1294.21 39.156 Q1294.21 41.7486 1296.2 43.2475 Q1298.18 44.7058 1304.18 46.0426 L1306.73 46.6097 Q1314.67 48.3111 1317.99 51.4303 Q1321.35 54.509 1321.35 60.0587 Q1321.35 66.3781 1316.33 70.0644 Q1311.35 73.7508 1302.6 73.7508 Q1298.95 73.7508 1294.98 73.0216 Q1291.05 72.3329 1286.68 70.9151 L1286.68 63.2184 Q1290.81 65.3654 1294.82 66.4591 Q1298.83 67.5124 1302.76 67.5124 Q1308.03 67.5124 1310.86 65.73 Q1313.7 63.9071 1313.7 60.6258 Q1313.7 57.5877 1311.63 55.9673 Q1309.61 54.3469 1302.68 52.8481 L1300.09 52.2405 Q1293.16 50.7821 1290.08 47.7845 Q1287 44.7463 1287 39.4801 Q1287 33.0797 1291.54 29.5959 Q1296.08 26.1121 1304.42 26.1121 Q1308.55 26.1121 1312.2 26.7198 Q1315.84 27.3274 1318.92 28.5427 Z" fill="#000000" fill-rule="nonzero" fill-opacity="1" /><path clip-path="url(#clip530)" d="M1355.83 46.9338 L1430.69 46.9338 L1430.69 52.7671 L1355.83 52.7671 L1355.83 46.9338 Z" fill="#000000" fill-rule="nonzero" fill-opacity="1" /><path clip-path="url(#clip530)" d="M1497.93 44.2197 Q1500.57 45.1109 1503.04 48.0275 Q1505.55 50.9442 1508.06 56.0483 L1516.36 72.576 L1507.57 72.576 L1499.84 57.061 Q1496.84 50.9847 1494 48.9997 Q1491.21 47.0148 1486.35 47.0148 L1477.44 47.0148 L1477.44 72.576 L1469.25 72.576 L1469.25 12.096 L1487.72 12.096 Q1498.09 12.096 1503.2 16.4305 Q1508.3 20.7649 1508.3 29.5149 Q1508.3 35.2267 1505.63 38.994 Q1503 42.7613 1497.93 44.2197 M1477.44 18.8205 L1477.44 40.2903 L1487.72 40.2903 Q1493.64 40.2903 1496.64 37.5762 Q1499.67 34.8216 1499.67 29.5149 Q1499.67 24.2082 1496.64 21.5346 Q1493.64 18.8205 1487.72 18.8205 L1477.44 18.8205 Z" fill="#000000" fill-rule="nonzero" fill-opacity="1" /><path clip-path="url(#clip530)" d="M1561.65 48.0275 L1561.65 51.6733 L1527.38 51.6733 Q1527.87 59.3701 1532 63.421 Q1536.17 67.4314 1543.59 67.4314 Q1547.88 67.4314 1551.89 66.3781 Q1555.94 65.3249 1559.91 63.2184 L1559.91 70.267 Q1555.9 71.9684 1551.69 72.8596 Q1547.48 73.7508 1543.14 73.7508 Q1532.28 73.7508 1525.92 67.4314 Q1519.61 61.1119 1519.61 50.3365 Q1519.61 39.1965 1525.6 32.6746 Q1531.64 26.1121 1541.84 26.1121 Q1551 26.1121 1556.31 32.0264 Q1561.65 37.9003 1561.65 48.0275 M1554.2 45.84 Q1554.12 39.7232 1550.76 36.0774 Q1547.43 32.4315 1541.93 32.4315 Q1535.69 32.4315 1531.92 35.9558 Q1528.19 39.4801 1527.63 45.8805 L1554.2 45.84 Z" fill="#000000" fill-rule="nonzero" fill-opacity="1" /><path clip-path="url(#clip530)" d="M1606.54 28.9478 L1606.54 35.9153 Q1603.38 34.1734 1600.18 33.3227 Q1597.02 32.4315 1593.78 32.4315 Q1586.53 32.4315 1582.52 37.0496 Q1578.51 41.6271 1578.51 49.9314 Q1578.51 58.2358 1582.52 62.8538 Q1586.53 67.4314 1593.78 67.4314 Q1597.02 67.4314 1600.18 66.5807 Q1603.38 65.6895 1606.54 63.9476 L1606.54 70.8341 Q1603.42 72.2924 1600.06 73.0216 Q1596.73 73.7508 1592.97 73.7508 Q1582.72 73.7508 1576.68 67.3098 Q1570.65 60.8689 1570.65 49.9314 Q1570.65 38.832 1576.72 32.472 Q1582.84 26.1121 1593.45 26.1121 Q1596.9 26.1121 1600.18 26.8413 Q1603.46 27.5299 1606.54 28.9478 Z" fill="#000000" fill-rule="nonzero" fill-opacity="1" /><path clip-path="url(#clip530)" d="M1645.79 34.1734 Q1644.54 33.4443 1643.04 33.1202 Q1641.58 32.7556 1639.8 32.7556 Q1633.48 32.7556 1630.07 36.8875 Q1626.71 40.9789 1626.71 48.6757 L1626.71 72.576 L1619.22 72.576 L1619.22 27.2059 L1626.71 27.2059 L1626.71 34.2544 Q1629.06 30.1225 1632.83 28.1376 Q1636.6 26.1121 1641.98 26.1121 Q1642.75 26.1121 1643.68 26.2337 Q1644.62 26.3147 1645.75 26.5172 L1645.79 34.1734 Z" fill="#000000" fill-rule="nonzero" fill-opacity="1" /><path clip-path="url(#clip530)" d="M1652.84 54.671 L1652.84 27.2059 L1660.29 27.2059 L1660.29 54.3874 Q1660.29 60.8284 1662.8 64.0691 Q1665.32 67.2693 1670.34 67.2693 Q1676.38 67.2693 1679.86 63.421 Q1683.38 59.5726 1683.38 52.9291 L1683.38 27.2059 L1690.84 27.2059 L1690.84 72.576 L1683.38 72.576 L1683.38 65.6084 Q1680.67 69.7404 1677.06 71.7658 Q1673.5 73.7508 1668.76 73.7508 Q1660.94 73.7508 1656.89 68.8897 Q1652.84 64.0286 1652.84 54.671 M1671.6 26.1121 L1671.6 26.1121 Z" fill="#000000" fill-rule="nonzero" fill-opacity="1" /><path clip-path="url(#clip530)" d="M1706.19 27.2059 L1713.64 27.2059 L1713.64 72.576 L1706.19 72.576 L1706.19 27.2059 M1706.19 9.54393 L1713.64 9.54393 L1713.64 18.9825 L1706.19 18.9825 L1706.19 9.54393 Z" fill="#000000" fill-rule="nonzero" fill-opacity="1" /><path clip-path="url(#clip530)" d="M1736.61 14.324 L1736.61 27.2059 L1751.97 27.2059 L1751.97 32.9987 L1736.61 32.9987 L1736.61 57.6282 Q1736.61 63.1779 1738.11 64.7578 Q1739.65 66.3376 1744.31 66.3376 L1751.97 66.3376 L1751.97 72.576 L1744.31 72.576 Q1735.68 72.576 1732.4 69.3758 Q1729.12 66.1351 1729.12 57.6282 L1729.12 32.9987 L1723.65 32.9987 L1723.65 27.2059 L1729.12 27.2059 L1729.12 14.324 L1736.61 14.324 Z" fill="#000000" fill-rule="nonzero" fill-opacity="1" /><path clip-path="url(#clip530)" d="M1797.09 35.9153 Q1799.89 30.8922 1803.78 28.5022 Q1807.66 26.1121 1812.93 26.1121 Q1820.02 26.1121 1823.87 31.0947 Q1827.72 36.0368 1827.72 45.1919 L1827.72 72.576 L1820.22 72.576 L1820.22 45.4349 Q1820.22 38.913 1817.91 35.7533 Q1815.6 32.5936 1810.87 32.5936 Q1805.07 32.5936 1801.71 36.4419 Q1798.35 40.2903 1798.35 46.9338 L1798.35 72.576 L1790.85 72.576 L1790.85 45.4349 Q1790.85 38.8725 1788.54 35.7533 Q1786.24 32.5936 1781.42 32.5936 Q1775.7 32.5936 1772.34 36.4824 Q1768.98 40.3308 1768.98 46.9338 L1768.98 72.576 L1761.48 72.576 L1761.48 27.2059 L1768.98 27.2059 L1768.98 34.2544 Q1771.53 30.082 1775.1 28.0971 Q1778.66 26.1121 1783.56 26.1121 Q1788.5 26.1121 1791.95 28.6237 Q1795.43 31.1352 1797.09 35.9153 Z" fill="#000000" fill-rule="nonzero" fill-opacity="1" /><path clip-path="url(#clip530)" d="M1881.39 48.0275 L1881.39 51.6733 L1847.12 51.6733 Q1847.61 59.3701 1851.74 63.421 Q1855.91 67.4314 1863.32 67.4314 Q1867.62 67.4314 1871.63 66.3781 Q1875.68 65.3249 1879.65 63.2184 L1879.65 70.267 Q1875.64 71.9684 1871.43 72.8596 Q1867.21 73.7508 1862.88 73.7508 Q1852.02 73.7508 1845.66 67.4314 Q1839.34 61.1119 1839.34 50.3365 Q1839.34 39.1965 1845.34 32.6746 Q1851.37 26.1121 1861.58 26.1121 Q1870.74 26.1121 1876.04 32.0264 Q1881.39 37.9003 1881.39 48.0275 M1873.94 45.84 Q1873.86 39.7232 1870.49 36.0774 Q1867.17 32.4315 1861.66 32.4315 Q1855.43 32.4315 1851.66 35.9558 Q1847.93 39.4801 1847.36 45.8805 L1873.94 45.84 Z" fill="#000000" fill-rule="nonzero" fill-opacity="1" /><path clip-path="url(#clip530)" d="M1931.34 45.1919 L1931.34 72.576 L1923.89 72.576 L1923.89 45.4349 Q1923.89 38.994 1921.37 35.7938 Q1918.86 32.5936 1913.84 32.5936 Q1907.8 32.5936 1904.32 36.4419 Q1900.84 40.2903 1900.84 46.9338 L1900.84 72.576 L1893.34 72.576 L1893.34 27.2059 L1900.84 27.2059 L1900.84 34.2544 Q1903.51 30.163 1907.11 28.1376 Q1910.76 26.1121 1915.5 26.1121 Q1923.32 26.1121 1927.33 30.9732 Q1931.34 35.7938 1931.34 45.1919 Z" fill="#000000" fill-rule="nonzero" fill-opacity="1" /><path clip-path="url(#clip530)" d="M1953.58 14.324 L1953.58 27.2059 L1968.93 27.2059 L1968.93 32.9987 L1953.58 32.9987 L1953.58 57.6282 Q1953.58 63.1779 1955.08 64.7578 Q1956.62 66.3376 1961.28 66.3376 L1968.93 66.3376 L1968.93 72.576 L1961.28 72.576 Q1952.65 72.576 1949.37 69.3758 Q1946.08 66.1351 1946.08 57.6282 L1946.08 32.9987 L1940.62 32.9987 L1940.62 27.2059 L1946.08 27.2059 L1946.08 14.324 L1953.58 14.324 Z" fill="#000000" fill-rule="nonzero" fill-opacity="1" /><path clip-path="url(#clip530)" d="M2005.43 12.096 L2040.19 12.096 L2040.19 18.9825 L2013.61 18.9825 L2013.61 36.8065 L2037.59 36.8065 L2037.59 43.6931 L2013.61 43.6931 L2013.61 72.576 L2005.43 72.576 L2005.43 12.096 Z" fill="#000000" fill-rule="nonzero" fill-opacity="1" /><path clip-path="url(#clip530)" d="M2047.52 54.671 L2047.52 27.2059 L2054.97 27.2059 L2054.97 54.3874 Q2054.97 60.8284 2057.48 64.0691 Q2060 67.2693 2065.02 67.2693 Q2071.05 67.2693 2074.54 63.421 Q2078.06 59.5726 2078.06 52.9291 L2078.06 27.2059 L2085.52 27.2059 L2085.52 72.576 L2078.06 72.576 L2078.06 65.6084 Q2075.35 69.7404 2071.74 71.7658 Q2068.18 73.7508 2063.44 73.7508 Q2055.62 73.7508 2051.57 68.8897 Q2047.52 64.0286 2047.52 54.671 M2066.27 26.1121 L2066.27 26.1121 Z" fill="#000000" fill-rule="nonzero" fill-opacity="1" /><path clip-path="url(#clip530)" d="M2138.58 45.1919 L2138.58 72.576 L2131.13 72.576 L2131.13 45.4349 Q2131.13 38.994 2128.62 35.7938 Q2126.11 32.5936 2121.08 32.5936 Q2115.05 32.5936 2111.56 36.4419 Q2108.08 40.2903 2108.08 46.9338 L2108.08 72.576 L2100.59 72.576 L2100.59 27.2059 L2108.08 27.2059 L2108.08 34.2544 Q2110.75 30.163 2114.36 28.1376 Q2118 26.1121 2122.74 26.1121 Q2130.56 26.1121 2134.57 30.9732 Q2138.58 35.7938 2138.58 45.1919 Z" fill="#000000" fill-rule="nonzero" fill-opacity="1" /><path clip-path="url(#clip530)" d="M2186.1 28.9478 L2186.1 35.9153 Q2182.94 34.1734 2179.74 33.3227 Q2176.58 32.4315 2173.34 32.4315 Q2166.09 32.4315 2162.08 37.0496 Q2158.07 41.6271 2158.07 49.9314 Q2158.07 58.2358 2162.08 62.8538 Q2166.09 67.4314 2173.34 67.4314 Q2176.58 67.4314 2179.74 66.5807 Q2182.94 65.6895 2186.1 63.9476 L2186.1 70.8341 Q2182.98 72.2924 2179.62 73.0216 Q2176.3 73.7508 2172.53 73.7508 Q2162.28 73.7508 2156.25 67.3098 Q2150.21 60.8689 2150.21 49.9314 Q2150.21 38.832 2156.29 32.472 Q2162.4 26.1121 2173.02 26.1121 Q2176.46 26.1121 2179.74 26.8413 Q2183.02 27.5299 2186.1 28.9478 Z" fill="#000000" fill-rule="nonzero" fill-opacity="1" /><path clip-path="url(#clip530)" d="M2206.44 14.324 L2206.44 27.2059 L2221.79 27.2059 L2221.79 32.9987 L2206.44 32.9987 L2206.44 57.6282 Q2206.44 63.1779 2207.93 64.7578 Q2209.47 66.3376 2214.13 66.3376 L2221.79 66.3376 L2221.79 72.576 L2214.13 72.576 Q2205.5 72.576 2202.22 69.3758 Q2198.94 66.1351 2198.94 57.6282 L2198.94 32.9987 L2193.47 32.9987 L2193.47 27.2059 L2198.94 27.2059 L2198.94 14.324 L2206.44 14.324 Z" fill="#000000" fill-rule="nonzero" fill-opacity="1" /><path clip-path="url(#clip530)" d="M2231.59 27.2059 L2239.05 27.2059 L2239.05 72.576 L2231.59 72.576 L2231.59 27.2059 M2231.59 9.54393 L2239.05 9.54393 L2239.05 18.9825 L2231.59 18.9825 L2231.59 9.54393 Z" fill="#000000" fill-rule="nonzero" fill-opacity="1" /><path clip-path="url(#clip530)" d="M2272.22 32.4315 Q2266.23 32.4315 2262.74 37.1306 Q2259.26 41.7891 2259.26 49.9314 Q2259.26 58.0738 2262.7 62.7728 Q2266.19 67.4314 2272.22 67.4314 Q2278.18 67.4314 2281.66 62.7323 Q2285.15 58.0333 2285.15 49.9314 Q2285.15 41.8701 2281.66 37.1711 Q2278.18 32.4315 2272.22 32.4315 M2272.22 26.1121 Q2281.94 26.1121 2287.49 32.4315 Q2293.04 38.7509 2293.04 49.9314 Q2293.04 61.0714 2287.49 67.4314 Q2281.94 73.7508 2272.22 73.7508 Q2262.46 73.7508 2256.91 67.4314 Q2251.4 61.0714 2251.4 49.9314 Q2251.4 38.7509 2256.91 32.4315 Q2262.46 26.1121 2272.22 26.1121 Z" fill="#000000" fill-rule="nonzero" fill-opacity="1" /><path clip-path="url(#clip530)" d="M2343.11 45.1919 L2343.11 72.576 L2335.66 72.576 L2335.66 45.4349 Q2335.66 38.994 2333.15 35.7938 Q2330.64 32.5936 2325.61 32.5936 Q2319.58 32.5936 2316.09 36.4419 Q2312.61 40.2903 2312.61 46.9338 L2312.61 72.576 L2305.12 72.576 L2305.12 27.2059 L2312.61 27.2059 L2312.61 34.2544 Q2315.28 30.163 2318.89 28.1376 Q2322.53 26.1121 2327.27 26.1121 Q2335.09 26.1121 2339.1 30.9732 Q2343.11 35.7938 2343.11 45.1919 Z" fill="#000000" fill-rule="nonzero" fill-opacity="1" /><polyline clip-path="url(#clip531)" style="stroke:#000000; stroke-linecap:round; stroke-linejoin:round; stroke-width:12; stroke-opacity:1; fill:none" stroke-dasharray="48, 30" points="335.956,1688.65 358.558,1605.12 381.161,1528.97 403.764,1459.26 426.367,1395.21 448.969,1336.17 471.572,1281.56 494.175,1230.9 516.777,1183.78 539.38,1139.85 561.983,1098.78 584.586,1060.31 607.188,1024.2 629.791,990.233 652.394,958.231 674.997,928.026 697.599,899.47 720.202,872.431 742.805,846.793 765.407,822.449 788.01,799.304 810.613,777.27 833.216,756.27 855.818,736.233 878.421,717.095 901.024,698.795 923.627,681.28 946.229,664.5 968.832,648.411 991.435,632.97 1014.04,618.139 1036.64,603.883 1059.24,590.168 1081.85,576.965 1104.45,564.246 1127.05,551.983 1149.65,540.154 1172.26,528.736 1194.86,517.707 1217.46,507.048 1240.06,496.74 1262.67,486.767 1285.27,477.113 1307.87,467.762 1330.48,458.7 1353.08,449.915 1375.68,441.393 1398.28,433.123 1420.89,425.095 1443.49,417.297 1466.09,409.72 1488.69,402.354 1511.3,395.191 1533.9,388.223 1556.5,381.441 1579.11,374.839 1601.71,368.41 1624.31,362.145 1646.91,356.041 1669.52,350.089 1692.12,344.285 1714.72,338.624 1737.32,333.099 1759.93,327.707 1782.53,322.442 1805.13,317.3 1827.74,312.277 1850.34,307.368 1872.94,302.57 1895.54,297.879 1918.15,293.292 1940.75,288.805 1963.35,284.415 1985.95,280.118 2008.56,275.912 2031.16,271.795 2053.76,267.762 2076.37,263.812 2098.97,259.943 2121.57,256.151 2144.17,252.434 2166.78,248.79 2189.38,245.218 2211.98,241.714 2234.58,238.278 2257.19,234.906 2279.79,231.598 2302.39,228.351 2325,225.164 2347.6,222.035 2370.2,218.963 2392.8,215.945 2415.41,212.982 2438.01,210.07 2460.61,207.209 2483.21,204.398 2505.82,201.635 2528.42,198.919 2551.02,196.249 2573.63,193.623 "/>
<path clip-path="url(#clip531)" d="M335.956 1150.7 L358.558 1137.12 L381.161 1123.53 L403.764 1109.95 L426.367 1096.37 L448.969 1082.78 L471.572 1069.2 L494.175 1055.61 L516.777 1042.03 L539.38 1028.45 L561.983 1014.86 L584.586 1001.28 L607.188 987.699 L629.791 974.117 L652.394 960.535 L674.997 946.953 L697.599 933.372 L720.202 919.791 L742.805 906.21 L765.407 892.63 L788.01 879.05 L810.613 865.471 L833.216 851.897 L855.818 838.331 L878.421 824.775 L901.024 811.233 L923.627 797.708 L946.229 784.204 L968.832 770.724 L991.435 757.271 L1014.04 743.848 L1036.64 730.492 L1059.24 717.178 L1081.85 703.912 L1104.45 690.697 L1127.05 677.536 L1149.65 664.434 L1172.26 651.416 L1194.86 638.558 L1217.46 625.782 L1240.06 613.091 L1262.67 600.492 L1285.27 587.992 L1307.87 575.599 L1330.48 563.32 L1353.08 551.203 L1375.68 539.381 L1398.28 527.031 L1420.89 514.988 L1443.49 503.099 L1466.09 491.526 L1488.69 480.414 L1511.3 469.525 L1533.9 459.536 L1556.5 449.849 L1579.11 440.32 L1601.71 430.459 L1624.31 420.921 L1646.91 411.819 L1669.52 402.963 L1692.12 394.298 L1714.72 385.824 L1737.32 377.541 L1759.93 369.468 L1782.53 361.579 L1805.13 353.862 L1827.74 346.316 L1850.34 338.889 L1872.94 331.605 L1895.54 324.478 L1918.15 317.508 L1940.75 310.702 L1963.35 304.12 L1985.95 297.693 L2008.56 291.42 L2031.16 285.301 L2053.76 279.334 L2076.37 273.518 L2098.97 268.326 L2121.57 264.031 L2144.17 259.766 L2166.78 254.975 L2189.38 250.801 L2211.98 246.851 L2234.58 245.234 L2257.19 243.813 L2279.79 242.335 L2302.39 240.226 L2325 238.681 L2347.6 237.818 L2370.2 237.157 L2392.8 236.627 L2415.41 236.203 L2438.01 235.871 L2460.61 235.618 L2483.21 235.432 L2505.82 235.301 L2528.42 235.211 L2551.02 235.176 L2573.63 235.161 L2573.63 173.254 L2551.02 175.832 L2528.42 178.523 L2505.82 181.331 L2483.21 184.26 L2460.61 187.314 L2438.01 190.754 L2415.41 194.574 L2392.8 198.295 L2370.2 201.805 L2347.6 204.95 L2325 208.46 L2302.39 212.258 L2279.79 216.205 L2257.19 219.877 L2234.58 223.266 L2211.98 226.607 L2189.38 230.158 L2166.78 233.931 L2144.17 237.871 L2121.57 241.151 L2098.97 244.382 L2076.37 247.781 L2053.76 251.482 L2031.16 255.49 L2008.56 259.81 L1985.95 264.447 L1963.35 269.512 L1940.75 275.407 L1918.15 281.361 L1895.54 287.134 L1872.94 293.214 L1850.34 299.645 L1827.74 306.435 L1805.13 313.642 L1782.53 321.385 L1759.93 329.382 L1737.32 337.469 L1714.72 345.769 L1692.12 354.769 L1669.52 364.186 L1646.91 374.015 L1624.31 384.201 L1601.71 394.722 L1579.11 405.605 L1556.5 416.828 L1533.9 428.371 L1511.3 440.21 L1488.69 452.324 L1466.09 464.69 L1443.49 476.865 L1420.89 488.335 L1398.28 500.165 L1375.68 511.357 L1353.08 522.733 L1330.48 534.289 L1307.87 546.234 L1285.27 558.364 L1262.67 570.615 L1240.06 582.99 L1217.46 595.405 L1194.86 607.834 L1172.26 620.385 L1149.65 633.054 L1127.05 645.833 L1104.45 658.545 L1081.85 671.351 L1059.24 684.452 L1036.64 697.517 L1014.04 710.521 L991.435 723.833 L968.832 737.222 L946.229 750.683 L923.627 764.211 L901.024 777.801 L878.421 791.447 L855.818 805.145 L833.216 818.888 L810.613 832.672 L788.01 846.385 L765.407 860.097 L742.805 873.848 L720.202 887.635 L697.599 901.456 L674.997 915.311 L652.394 929.196 L629.791 943.112 L607.188 957.055 L584.586 970.932 L561.983 984.795 L539.38 998.691 L516.777 1012.62 L494.175 1026.57 L471.572 1040.55 L448.969 1054.56 L426.367 1068.59 L403.764 1082.64 L381.161 1096.71 L358.558 1110.79 L335.956 1124.89  Z" fill="#ff0000" fill-rule="evenodd" fill-opacity="0.25"/>
<polyline clip-path="url(#clip531)" style="stroke:#ff0000; stroke-linecap:round; stroke-linejoin:round; stroke-width:4; stroke-opacity:1; fill:none" points="335.956,1150.7 358.558,1137.12 381.161,1123.53 403.764,1109.95 426.367,1096.37 448.969,1082.78 471.572,1069.2 494.175,1055.61 516.777,1042.03 539.38,1028.45 561.983,1014.86 584.586,1001.28 607.188,987.699 629.791,974.117 652.394,960.535 674.997,946.953 697.599,933.372 720.202,919.791 742.805,906.21 765.407,892.63 788.01,879.05 810.613,865.471 833.216,851.897 855.818,838.331 878.421,824.775 901.024,811.233 923.627,797.708 946.229,784.204 968.832,770.724 991.435,757.271 1014.04,743.848 1036.64,730.492 1059.24,717.178 1081.85,703.912 1104.45,690.697 1127.05,677.536 1149.65,664.434 1172.26,651.416 1194.86,638.558 1217.46,625.782 1240.06,613.091 1262.67,600.492 1285.27,587.992 1307.87,575.599 1330.48,563.32 1353.08,551.203 1375.68,539.381 1398.28,527.031 1420.89,514.988 1443.49,503.099 1466.09,491.526 1488.69,480.414 1511.3,469.525 1533.9,459.536 1556.5,449.849 1579.11,440.32 1601.71,430.459 1624.31,420.921 1646.91,411.819 1669.52,402.963 1692.12,394.298 1714.72,385.824 1737.32,377.541 1759.93,369.468 1782.53,361.579 1805.13,353.862 1827.74,346.316 1850.34,338.889 1872.94,331.605 1895.54,324.478 1918.15,317.508 1940.75,310.702 1963.35,304.12 1985.95,297.693 2008.56,291.42 2031.16,285.301 2053.76,279.334 2076.37,273.518 2098.97,268.326 2121.57,264.031 2144.17,259.766 2166.78,254.975 2189.38,250.801 2211.98,246.851 2234.58,245.234 2257.19,243.813 2279.79,242.335 2302.39,240.226 2325,238.681 2347.6,237.818 2370.2,237.157 2392.8,236.627 2415.41,236.203 2438.01,235.871 2460.61,235.618 2483.21,235.432 2505.82,235.301 2528.42,235.211 2551.02,235.176 2573.63,235.161 "/>
<polyline clip-path="url(#clip531)" style="stroke:#ff0000; stroke-linecap:round; stroke-linejoin:round; stroke-width:8; stroke-opacity:1; fill:none" points="335.956,1147.7 358.558,1134.04 381.161,1120.38 403.764,1106.72 426.367,1093.06 448.969,1079.4 471.572,1065.74 494.175,1052.08 516.777,1038.42 539.38,1024.76 561.983,1011.1 584.586,997.441 607.188,983.781 629.791,970.12 652.394,956.46 674.997,942.8 697.599,929.139 720.202,915.479 742.805,901.819 765.407,888.158 788.01,874.498 810.613,860.838 833.216,847.177 855.818,833.517 878.421,819.857 901.024,806.197 923.627,792.537 946.229,778.877 968.832,765.217 991.435,751.558 1014.04,737.898 1036.64,724.239 1059.24,710.58 1081.85,696.921 1104.45,683.262 1127.05,669.604 1149.65,655.946 1172.26,642.288 1194.86,628.63 1217.46,614.973 1240.06,601.316 1262.67,587.669 1285.27,574.052 1307.87,560.487 1330.48,546.994 1353.08,533.596 1375.68,520.312 1398.28,507.165 1420.89,494.177 1443.49,481.367 1466.09,468.758 1488.69,456.371 1511.3,444.226 1533.9,432.346 1556.5,420.752 1579.11,409.465 1601.71,398.506 1624.31,387.896 1646.91,377.658 1669.52,367.811 1692.12,358.377 1714.72,349.36 1737.32,340.752 1759.93,332.546 1782.53,324.733 1805.13,317.306 1827.74,310.256 1850.34,303.577 1872.94,297.26 1895.54,291.297 1918.15,285.681 1940.75,280.403 1963.35,275.456 1985.95,270.831 2008.56,266.522 2031.16,262.519 2053.76,258.816 2076.37,255.403 2098.97,252.275 2121.57,249.422 2144.17,246.836 2166.78,244.505 2189.38,242.417 2211.98,240.557 2234.58,238.913 2257.19,237.47 2279.79,236.216 2302.39,235.138 2325,234.221 2347.6,233.452 2370.2,232.819 2392.8,232.308 2415.41,231.905 2438.01,231.597 2460.61,231.37 2483.21,231.212 2505.82,231.109 2528.42,231.048 2551.02,231.014 2573.63,230.996 "/>
<path clip-path="url(#clip530)" d="M347.89 388.696 L919.294 388.696 L919.294 181.336 L347.89 181.336  Z" fill="#ffffff" fill-rule="evenodd" fill-opacity="1"/>
<polyline clip-path="url(#clip530)" style="stroke:#000000; stroke-linecap:round; stroke-linejoin:round; stroke-width:4; stroke-opacity:1; fill:none" points="347.89,388.696 919.294,388.696 919.294,181.336 347.89,181.336 347.89,388.696 "/>
<polyline clip-path="url(#clip530)" style="stroke:#000000; stroke-linecap:round; stroke-linejoin:round; stroke-width:12; stroke-opacity:1; fill:none" stroke-dasharray="48, 30" points="374.245,233.176 532.373,233.176 "/>
<path clip-path="url(#clip530)" d="M558.728 215.896 L587.964 215.896 L587.964 219.831 L575.696 219.831 L575.696 250.456 L570.997 250.456 L570.997 219.831 L558.728 219.831 L558.728 215.896 Z" fill="#000000" fill-rule="nonzero" fill-opacity="1" /><path clip-path="url(#clip530)" d="M600.348 228.512 Q599.631 228.095 598.774 227.91 Q597.941 227.702 596.922 227.702 Q593.311 227.702 591.367 230.063 Q589.446 232.401 589.446 236.799 L589.446 250.456 L585.163 250.456 L585.163 224.531 L589.446 224.531 L589.446 228.558 Q590.788 226.197 592.941 225.063 Q595.094 223.906 598.172 223.906 Q598.612 223.906 599.145 223.975 Q599.677 224.021 600.325 224.137 L600.348 228.512 Z" fill="#000000" fill-rule="nonzero" fill-opacity="1" /><path clip-path="url(#clip530)" d="M604.376 240.225 L604.376 224.531 L608.635 224.531 L608.635 240.063 Q608.635 243.743 610.07 245.595 Q611.506 247.424 614.376 247.424 Q617.825 247.424 619.816 245.225 Q621.83 243.026 621.83 239.229 L621.83 224.531 L626.089 224.531 L626.089 250.456 L621.83 250.456 L621.83 246.475 Q620.279 248.836 618.219 249.993 Q616.182 251.128 613.473 251.128 Q609.006 251.128 606.691 248.35 Q604.376 245.572 604.376 240.225 M615.094 223.906 L615.094 223.906 Z" fill="#000000" fill-rule="nonzero" fill-opacity="1" /><path clip-path="url(#clip530)" d="M657.038 236.429 L657.038 238.512 L637.455 238.512 Q637.732 242.91 640.093 245.225 Q642.478 247.516 646.714 247.516 Q649.167 247.516 651.459 246.915 Q653.774 246.313 656.042 245.109 L656.042 249.137 Q653.751 250.109 651.343 250.618 Q648.936 251.128 646.459 251.128 Q640.255 251.128 636.621 247.516 Q633.01 243.905 633.01 237.748 Q633.01 231.382 636.436 227.655 Q639.885 223.906 645.718 223.906 Q650.95 223.906 653.982 227.285 Q657.038 230.642 657.038 236.429 M652.779 235.179 Q652.732 231.683 650.811 229.6 Q648.913 227.517 645.765 227.517 Q642.2 227.517 640.047 229.53 Q637.918 231.544 637.593 235.202 L652.779 235.179 Z" fill="#000000" fill-rule="nonzero" fill-opacity="1" /><path clip-path="url(#clip530)" d="M695.672 234.253 Q697.176 234.762 698.588 236.429 Q700.024 238.095 701.459 241.012 L706.204 250.456 L701.181 250.456 L696.76 241.591 Q695.047 238.118 693.426 236.984 Q691.829 235.85 689.051 235.85 L683.959 235.85 L683.959 250.456 L679.283 250.456 L679.283 215.896 L689.839 215.896 Q695.764 215.896 698.681 218.373 Q701.598 220.85 701.598 225.85 Q701.598 229.114 700.07 231.267 Q698.565 233.419 695.672 234.253 M683.959 219.739 L683.959 232.007 L689.839 232.007 Q693.218 232.007 694.931 230.456 Q696.667 228.882 696.667 225.85 Q696.667 222.818 694.931 221.29 Q693.218 219.739 689.839 219.739 L683.959 219.739 Z" fill="#000000" fill-rule="nonzero" fill-opacity="1" /><path clip-path="url(#clip530)" d="M722.269 214.484 Q719.167 219.808 717.662 225.017 Q716.158 230.225 716.158 235.572 Q716.158 240.919 717.662 246.174 Q719.19 251.405 722.269 256.706 L718.565 256.706 Q715.093 251.266 713.357 246.012 Q711.644 240.757 711.644 235.572 Q711.644 230.41 713.357 225.179 Q715.07 219.947 718.565 214.484 L722.269 214.484 Z" fill="#000000" fill-rule="nonzero" fill-opacity="1" /><path clip-path="url(#clip530)" d="M751.435 217.031 L751.435 221.591 Q748.773 220.318 746.412 219.693 Q744.051 219.068 741.852 219.068 Q738.033 219.068 735.949 220.549 Q733.889 222.031 733.889 224.762 Q733.889 227.054 735.255 228.234 Q736.644 229.392 740.486 230.109 L743.31 230.688 Q748.542 231.683 751.019 234.206 Q753.519 236.706 753.519 240.919 Q753.519 245.942 750.139 248.535 Q746.783 251.128 740.278 251.128 Q737.824 251.128 735.047 250.572 Q732.292 250.016 729.329 248.929 L729.329 244.114 Q732.176 245.711 734.908 246.521 Q737.639 247.331 740.278 247.331 Q744.283 247.331 746.459 245.757 Q748.635 244.183 748.635 241.267 Q748.635 238.72 747.06 237.285 Q745.51 235.85 741.945 235.132 L739.098 234.577 Q733.866 233.535 731.528 231.313 Q729.19 229.091 729.19 225.132 Q729.19 220.549 732.408 217.91 Q735.648 215.271 741.32 215.271 Q743.75 215.271 746.273 215.711 Q748.797 216.151 751.435 217.031 Z" fill="#000000" fill-rule="nonzero" fill-opacity="1" /><path clip-path="url(#clip530)" d="M759.954 214.484 L763.658 214.484 Q767.13 219.947 768.843 225.179 Q770.579 230.41 770.579 235.572 Q770.579 240.757 768.843 246.012 Q767.13 251.266 763.658 256.706 L759.954 256.706 Q763.033 251.405 764.537 246.174 Q766.065 240.919 766.065 235.572 Q766.065 230.225 764.537 225.017 Q763.033 219.808 759.954 214.484 Z" fill="#000000" fill-rule="nonzero" fill-opacity="1" /><path clip-path="url(#clip530)" d="M374.245 305.752 L532.373 305.752 L532.373 264.28 L374.245 264.28 L374.245 305.752  Z" fill="#ff0000" fill-rule="evenodd" fill-opacity="0.25"/>
<polyline clip-path="url(#clip530)" style="stroke:#ff0000; stroke-linecap:round; stroke-linejoin:round; stroke-width:4; stroke-opacity:1; fill:none" points="374.245,264.28 532.373,264.28 "/>
<path clip-path="url(#clip530)" d="M560.95 301.579 L560.95 297.319 Q562.71 298.153 564.515 298.593 Q566.321 299.032 568.057 299.032 Q572.686 299.032 575.117 295.931 Q577.571 292.806 577.918 286.463 Q576.575 288.454 574.515 289.519 Q572.455 290.583 569.955 290.583 Q564.77 290.583 561.737 287.458 Q558.728 284.31 558.728 278.87 Q558.728 273.546 561.876 270.329 Q565.024 267.111 570.256 267.111 Q576.251 267.111 579.399 271.718 Q582.571 276.301 582.571 285.051 Q582.571 293.222 578.682 298.106 Q574.816 302.968 568.265 302.968 Q566.506 302.968 564.7 302.62 Q562.895 302.273 560.95 301.579 M570.256 286.926 Q573.404 286.926 575.233 284.773 Q577.084 282.62 577.084 278.87 Q577.084 275.144 575.233 272.991 Q573.404 270.815 570.256 270.815 Q567.108 270.815 565.256 272.991 Q563.427 275.144 563.427 278.87 Q563.427 282.62 565.256 284.773 Q567.108 286.926 570.256 286.926 Z" fill="#000000" fill-rule="nonzero" fill-opacity="1" /><path clip-path="url(#clip530)" d="M591.02 267.736 L609.376 267.736 L609.376 271.671 L595.302 271.671 L595.302 280.144 Q596.321 279.796 597.339 279.634 Q598.358 279.449 599.376 279.449 Q605.163 279.449 608.543 282.62 Q611.922 285.792 611.922 291.208 Q611.922 296.787 608.45 299.889 Q604.978 302.968 598.658 302.968 Q596.483 302.968 594.214 302.597 Q591.969 302.227 589.561 301.486 L589.561 296.787 Q591.645 297.921 593.867 298.477 Q596.089 299.032 598.566 299.032 Q602.57 299.032 604.908 296.926 Q607.246 294.819 607.246 291.208 Q607.246 287.597 604.908 285.491 Q602.57 283.384 598.566 283.384 Q596.691 283.384 594.816 283.801 Q592.964 284.218 591.02 285.097 L591.02 267.736 Z" fill="#000000" fill-rule="nonzero" fill-opacity="1" /><path clip-path="url(#clip530)" d="M650.533 287.088 Q648.519 287.088 647.362 288.801 Q646.228 290.514 646.228 293.569 Q646.228 296.579 647.362 298.315 Q648.519 300.028 650.533 300.028 Q652.501 300.028 653.635 298.315 Q654.792 296.579 654.792 293.569 Q654.792 290.537 653.635 288.824 Q652.501 287.088 650.533 287.088 M650.533 284.148 Q654.191 284.148 656.343 286.695 Q658.496 289.241 658.496 293.569 Q658.496 297.898 656.32 300.444 Q654.167 302.968 650.533 302.968 Q646.829 302.968 644.677 300.444 Q642.524 297.898 642.524 293.569 Q642.524 289.218 644.677 286.695 Q646.853 284.148 650.533 284.148 M626.644 270.051 Q624.654 270.051 623.496 271.787 Q622.362 273.5 622.362 276.509 Q622.362 279.565 623.496 281.278 Q624.631 282.991 626.644 282.991 Q628.658 282.991 629.793 281.278 Q630.95 279.565 630.95 276.509 Q630.95 273.523 629.793 271.787 Q628.635 270.051 626.644 270.051 M647.547 267.111 L651.251 267.111 L629.631 302.968 L625.927 302.968 L647.547 267.111 M626.644 267.111 Q630.302 267.111 632.478 269.658 Q634.654 272.181 634.654 276.509 Q634.654 280.884 632.478 283.408 Q630.325 285.931 626.644 285.931 Q622.964 285.931 620.811 283.408 Q618.681 280.861 618.681 276.509 Q618.681 272.204 620.834 269.658 Q622.987 267.111 626.644 267.111 Z" fill="#000000" fill-rule="nonzero" fill-opacity="1" /><path clip-path="url(#clip530)" d="M706.713 270.398 L706.713 275.329 Q704.352 273.13 701.667 272.042 Q699.005 270.954 695.996 270.954 Q690.07 270.954 686.922 274.588 Q683.774 278.199 683.774 285.051 Q683.774 291.88 686.922 295.514 Q690.07 299.125 695.996 299.125 Q699.005 299.125 701.667 298.037 Q704.352 296.949 706.713 294.75 L706.713 299.634 Q704.26 301.301 701.505 302.134 Q698.774 302.968 695.718 302.968 Q687.871 302.968 683.357 298.176 Q678.843 293.361 678.843 285.051 Q678.843 276.718 683.357 271.926 Q687.871 267.111 695.718 267.111 Q698.82 267.111 701.551 267.945 Q704.306 268.755 706.713 270.398 Z" fill="#000000" fill-rule="nonzero" fill-opacity="1" /><path clip-path="url(#clip530)" d="M713.936 267.736 L718.612 267.736 L718.612 302.296 L713.936 302.296 L713.936 267.736 Z" fill="#000000" fill-rule="nonzero" fill-opacity="1" /><polyline clip-path="url(#clip530)" style="stroke:#ff0000; stroke-linecap:round; stroke-linejoin:round; stroke-width:8; stroke-opacity:1; fill:none" points="374.245,336.856 532.373,336.856 "/>
<path clip-path="url(#clip530)" d="M563.404 323.419 L563.404 336.405 L569.284 336.405 Q572.547 336.405 574.33 334.715 Q576.112 333.025 576.112 329.9 Q576.112 326.798 574.33 325.109 Q572.547 323.419 569.284 323.419 L563.404 323.419 M558.728 319.576 L569.284 319.576 Q575.094 319.576 578.057 322.215 Q581.043 324.831 581.043 329.9 Q581.043 335.016 578.057 337.632 Q575.094 340.247 569.284 340.247 L563.404 340.247 L563.404 354.136 L558.728 354.136 L558.728 319.576 Z" fill="#000000" fill-rule="nonzero" fill-opacity="1" /><path clip-path="url(#clip530)" d="M595.487 331.197 Q592.061 331.197 590.071 333.882 Q588.08 336.544 588.08 341.197 Q588.08 345.849 590.047 348.534 Q592.038 351.196 595.487 351.196 Q598.89 351.196 600.881 348.511 Q602.871 345.826 602.871 341.197 Q602.871 336.59 600.881 333.905 Q598.89 331.197 595.487 331.197 M595.487 327.586 Q601.043 327.586 604.214 331.197 Q607.385 334.808 607.385 341.197 Q607.385 347.562 604.214 351.196 Q601.043 354.808 595.487 354.808 Q589.909 354.808 586.737 351.196 Q583.589 347.562 583.589 341.197 Q583.589 334.808 586.737 331.197 Q589.909 327.586 595.487 327.586 Z" fill="#000000" fill-rule="nonzero" fill-opacity="1" /><path clip-path="url(#clip530)" d="M614.445 328.211 L618.705 328.211 L618.705 354.136 L614.445 354.136 L614.445 328.211 M614.445 318.118 L618.705 318.118 L618.705 323.511 L614.445 323.511 L614.445 318.118 Z" fill="#000000" fill-rule="nonzero" fill-opacity="1" /><path clip-path="url(#clip530)" d="M649.167 338.488 L649.167 354.136 L644.908 354.136 L644.908 338.627 Q644.908 334.947 643.473 333.118 Q642.038 331.289 639.167 331.289 Q635.718 331.289 633.728 333.488 Q631.737 335.687 631.737 339.484 L631.737 354.136 L627.455 354.136 L627.455 328.211 L631.737 328.211 L631.737 332.238 Q633.265 329.9 635.325 328.743 Q637.408 327.586 640.117 327.586 Q644.584 327.586 646.876 330.363 Q649.167 333.118 649.167 338.488 Z" fill="#000000" fill-rule="nonzero" fill-opacity="1" /><path clip-path="url(#clip530)" d="M661.876 320.849 L661.876 328.211 L670.649 328.211 L670.649 331.521 L661.876 331.521 L661.876 345.595 Q661.876 348.766 662.732 349.669 Q663.612 350.571 666.274 350.571 L670.649 350.571 L670.649 354.136 L666.274 354.136 Q661.343 354.136 659.468 352.308 Q657.593 350.456 657.593 345.595 L657.593 331.521 L654.468 331.521 L654.468 328.211 L657.593 328.211 L657.593 320.849 L661.876 320.849 Z" fill="#000000" fill-rule="nonzero" fill-opacity="1" /><path clip-path="url(#clip530)" d="M713.496 340.109 L713.496 342.192 L693.913 342.192 Q694.19 346.59 696.551 348.905 Q698.936 351.196 703.172 351.196 Q705.625 351.196 707.917 350.595 Q710.232 349.993 712.5 348.789 L712.5 352.817 Q710.209 353.789 707.801 354.298 Q705.394 354.808 702.917 354.808 Q696.713 354.808 693.079 351.196 Q689.468 347.585 689.468 341.428 Q689.468 335.062 692.894 331.335 Q696.343 327.586 702.176 327.586 Q707.408 327.586 710.44 330.965 Q713.496 334.322 713.496 340.109 M709.237 338.859 Q709.19 335.363 707.269 333.28 Q705.371 331.197 702.223 331.197 Q698.658 331.197 696.505 333.21 Q694.376 335.224 694.051 338.882 L709.237 338.859 Z" fill="#000000" fill-rule="nonzero" fill-opacity="1" /><path clip-path="url(#clip530)" d="M737.014 328.974 L737.014 333.002 Q735.209 332.076 733.264 331.613 Q731.32 331.15 729.236 331.15 Q726.065 331.15 724.468 332.123 Q722.894 333.095 722.894 335.039 Q722.894 336.521 724.028 337.377 Q725.162 338.21 728.588 338.974 L730.047 339.298 Q734.584 340.271 736.482 342.053 Q738.403 343.812 738.403 346.984 Q738.403 350.595 735.533 352.701 Q732.686 354.808 727.686 354.808 Q725.602 354.808 723.334 354.391 Q721.088 353.997 718.588 353.187 L718.588 348.789 Q720.949 350.016 723.241 350.641 Q725.533 351.243 727.778 351.243 Q730.787 351.243 732.408 350.224 Q734.028 349.183 734.028 347.308 Q734.028 345.572 732.848 344.646 Q731.69 343.72 727.732 342.863 L726.25 342.516 Q722.292 341.683 720.533 339.97 Q718.774 338.234 718.774 335.224 Q718.774 331.567 721.366 329.576 Q723.959 327.586 728.727 327.586 Q731.088 327.586 733.172 327.933 Q735.255 328.28 737.014 328.974 Z" fill="#000000" fill-rule="nonzero" fill-opacity="1" /><path clip-path="url(#clip530)" d="M749.398 320.849 L749.398 328.211 L758.171 328.211 L758.171 331.521 L749.398 331.521 L749.398 345.595 Q749.398 348.766 750.255 349.669 Q751.134 350.571 753.797 350.571 L758.171 350.571 L758.171 354.136 L753.797 354.136 Q748.866 354.136 746.991 352.308 Q745.116 350.456 745.116 345.595 L745.116 331.521 L741.991 331.521 L741.991 328.211 L745.116 328.211 L745.116 320.849 L749.398 320.849 Z" fill="#000000" fill-rule="nonzero" fill-opacity="1" /><path clip-path="url(#clip530)" d="M763.773 328.211 L768.033 328.211 L768.033 354.136 L763.773 354.136 L763.773 328.211 M763.773 318.118 L768.033 318.118 L768.033 323.511 L763.773 323.511 L763.773 318.118 Z" fill="#000000" fill-rule="nonzero" fill-opacity="1" /><path clip-path="url(#clip530)" d="M797.13 333.187 Q798.727 330.317 800.949 328.951 Q803.171 327.586 806.18 327.586 Q810.231 327.586 812.43 330.433 Q814.63 333.257 814.63 338.488 L814.63 354.136 L810.347 354.136 L810.347 338.627 Q810.347 334.9 809.028 333.095 Q807.708 331.289 805 331.289 Q801.69 331.289 799.768 333.488 Q797.847 335.687 797.847 339.484 L797.847 354.136 L793.565 354.136 L793.565 338.627 Q793.565 334.877 792.245 333.095 Q790.926 331.289 788.171 331.289 Q784.907 331.289 782.986 333.511 Q781.065 335.71 781.065 339.484 L781.065 354.136 L776.782 354.136 L776.782 328.211 L781.065 328.211 L781.065 332.238 Q782.523 329.854 784.56 328.72 Q786.597 327.586 789.398 327.586 Q792.222 327.586 794.19 329.021 Q796.181 330.456 797.13 333.187 Z" fill="#000000" fill-rule="nonzero" fill-opacity="1" /><path clip-path="url(#clip530)" d="M834.907 341.104 Q829.745 341.104 827.754 342.284 Q825.764 343.465 825.764 346.312 Q825.764 348.581 827.245 349.923 Q828.75 351.243 831.319 351.243 Q834.861 351.243 836.991 348.743 Q839.143 346.22 839.143 342.053 L839.143 341.104 L834.907 341.104 M843.403 339.345 L843.403 354.136 L839.143 354.136 L839.143 350.201 Q837.685 352.562 835.509 353.696 Q833.333 354.808 830.185 354.808 Q826.204 354.808 823.842 352.585 Q821.504 350.34 821.504 346.59 Q821.504 342.215 824.421 339.993 Q827.361 337.771 833.171 337.771 L839.143 337.771 L839.143 337.354 Q839.143 334.414 837.199 332.817 Q835.278 331.197 831.782 331.197 Q829.56 331.197 827.454 331.729 Q825.347 332.261 823.403 333.326 L823.403 329.391 Q825.741 328.488 827.94 328.048 Q830.139 327.586 832.222 327.586 Q837.847 327.586 840.625 330.502 Q843.403 333.419 843.403 339.345 Z" fill="#000000" fill-rule="nonzero" fill-opacity="1" /><path clip-path="url(#clip530)" d="M856.389 320.849 L856.389 328.211 L865.162 328.211 L865.162 331.521 L856.389 331.521 L856.389 345.595 Q856.389 348.766 857.245 349.669 Q858.125 350.571 860.787 350.571 L865.162 350.571 L865.162 354.136 L860.787 354.136 Q855.856 354.136 853.981 352.308 Q852.106 350.456 852.106 345.595 L852.106 331.521 L848.981 331.521 L848.981 328.211 L852.106 328.211 L852.106 320.849 L856.389 320.849 Z" fill="#000000" fill-rule="nonzero" fill-opacity="1" /><path clip-path="url(#clip530)" d="M892.939 340.109 L892.939 342.192 L873.356 342.192 Q873.634 346.59 875.995 348.905 Q878.379 351.196 882.615 351.196 Q885.069 351.196 887.361 350.595 Q889.675 349.993 891.944 348.789 L891.944 352.817 Q889.652 353.789 887.245 354.298 Q884.837 354.808 882.361 354.808 Q876.157 354.808 872.523 351.196 Q868.912 347.585 868.912 341.428 Q868.912 335.062 872.338 331.335 Q875.787 327.586 881.62 327.586 Q886.851 327.586 889.884 330.965 Q892.939 334.322 892.939 340.109 M888.68 338.859 Q888.634 335.363 886.712 333.28 Q884.814 331.197 881.666 331.197 Q878.101 331.197 875.949 333.21 Q873.819 335.224 873.495 338.882 L888.68 338.859 Z" fill="#000000" fill-rule="nonzero" fill-opacity="1" /></svg>
