<?xml version="1.0" encoding="utf-8"?>
<svg xmlns="http://www.w3.org/2000/svg" xmlns:xlink="http://www.w3.org/1999/xlink" width="672" height="480" viewBox="0 0 2688 1920">
<defs>
  <clipPath id="clip560">
    <rect x="0" y="0" width="2688" height="1920"/>
  </clipPath>
</defs>
<path clip-path="url(#clip560)" d="M0 1920 L2688 1920 L2688 -4.26326e-14 L0 -4.26326e-14  Z" fill="#ffffff" fill-rule="evenodd" fill-opacity="1"/>
<defs>
  <clipPath id="clip561">
    <rect x="271" y="127" width="2370" height="1607"/>
  </clipPath>
</defs>
<path clip-path="url(#clip560)" d="M271.719 1734.12 L2640.76 1734.12 L2640.76 127.792 L271.719 127.792  Z" fill="#ffffff" fill-rule="evenodd" fill-opacity="1"/>
<polyline clip-path="url(#clip561)" style="stroke:#000000; stroke-linecap:round; stroke-linejoin:round; stroke-width:2; stroke-opacity:0.1; fill:none" points="293.156,1734.12 293.156,127.792 "/>
<polyline clip-path="url(#clip561)" style="stroke:#000000; stroke-linecap:round; stroke-linejoin:round; stroke-width:2; stroke-opacity:0.1; fill:none" points="749.266,1734.12 749.266,127.792 "/>
<polyline clip-path="url(#clip561)" style="stroke:#000000; stroke-linecap:round; stroke-linejoin:round; stroke-width:2; stroke-opacity:0.1; fill:none" points="1205.38,1734.12 1205.38,127.792 "/>
<polyline clip-path="url(#clip561)" style="stroke:#000000; stroke-linecap:round; stroke-linejoin:round; stroke-width:2; stroke-opacity:0.1; fill:none" points="1661.49,1734.12 1661.49,127.792 "/>
<polyline clip-path="url(#clip561)" style="stroke:#000000; stroke-linecap:round; stroke-linejoin:round; stroke-width:2; stroke-opacity:0.1; fill:none" points="2117.6,1734.12 2117.6,127.792 "/>
<polyline clip-path="url(#clip561)" style="stroke:#000000; stroke-linecap:round; stroke-linejoin:round; stroke-width:2; stroke-opacity:0.1; fill:none" points="2573.71,1734.12 2573.71,127.792 "/>
<polyline clip-path="url(#clip561)" style="stroke:#000000; stroke-linecap:round; stroke-linejoin:round; stroke-width:2; stroke-opacity:0.1; fill:none" points="271.719,1378.28 2640.76,1378.28 "/>
<polyline clip-path="url(#clip561)" style="stroke:#000000; stroke-linecap:round; stroke-linejoin:round; stroke-width:2; stroke-opacity:0.1; fill:none" points="271.719,990.314 2640.76,990.314 "/>
<polyline clip-path="url(#clip561)" style="stroke:#000000; stroke-linecap:round; stroke-linejoin:round; stroke-width:2; stroke-opacity:0.1; fill:none" points="271.719,602.346 2640.76,602.346 "/>
<polyline clip-path="url(#clip561)" style="stroke:#000000; stroke-linecap:round; stroke-linejoin:round; stroke-width:2; stroke-opacity:0.1; fill:none" points="271.719,214.379 2640.76,214.379 "/>
<polyline clip-path="url(#clip560)" style="stroke:#000000; stroke-linecap:round; stroke-linejoin:round; stroke-width:4; stroke-opacity:1; fill:none" points="271.719,1734.12 2640.76,1734.12 "/>
<polyline clip-path="url(#clip560)" style="stroke:#000000; stroke-linecap:round; stroke-linejoin:round; stroke-width:4; stroke-opacity:1; fill:none" points="293.156,1734.12 293.156,1715.22 "/>
<polyline clip-path="url(#clip560)" style="stroke:#000000; stroke-linecap:round; stroke-linejoin:round; stroke-width:4; stroke-opacity:1; fill:none" points="749.266,1734.12 749.266,1715.22 "/>
<polyline clip-path="url(#clip560)" style="stroke:#000000; stroke-linecap:round; stroke-linejoin:round; stroke-width:4; stroke-opacity:1; fill:none" points="1205.38,1734.12 1205.38,1715.22 "/>
<polyline clip-path="url(#clip560)" style="stroke:#000000; stroke-linecap:round; stroke-linejoin:round; stroke-width:4; stroke-opacity:1; fill:none" points="1661.49,1734.12 1661.49,1715.22 "/>
<polyline clip-path="url(#clip560)" style="stroke:#000000; stroke-linecap:round; stroke-linejoin:round; stroke-width:4; stroke-opacity:1; fill:none" points="2117.6,1734.12 2117.6,1715.22 "/>
<polyline clip-path="url(#clip560)" style="stroke:#000000; stroke-linecap:round; stroke-linejoin:round; stroke-width:4; stroke-opacity:1; fill:none" points="2573.71,1734.12 2573.71,1715.22 "/>
<path clip-path="url(#clip560)" d="M293.156 1767.34 Q289.545 1767.34 287.716 1770.9 Q285.911 1774.45 285.911 1781.58 Q285.911 1788.68 287.716 1792.25 Q289.545 1795.79 293.156 1795.79 Q296.79 1795.79 298.596 1792.25 Q300.425 1788.68 300.425 1781.58 Q300.425 1774.45 298.596 1770.9 Q296.79 1767.34 293.156 1767.34 M293.156 1763.64 Q298.966 1763.64 302.022 1768.24 Q305.101 1772.83 305.101 1781.58 Q305.101 1790.3 302.022 1794.91 Q298.966 1799.49 293.156 1799.49 Q287.346 1799.49 284.267 1794.91 Q281.212 1790.3 281.212 1781.58 Q281.212 1772.83 284.267 1768.24 Q287.346 1763.64 293.156 1763.64 Z" fill="#000000" fill-rule="nonzero" fill-opacity="1" /><path clip-path="url(#clip560)" d="M723.954 1794.89 L731.593 1794.89 L731.593 1768.52 L723.283 1770.19 L723.283 1765.93 L731.547 1764.26 L736.223 1764.26 L736.223 1794.89 L743.861 1794.89 L743.861 1798.82 L723.954 1798.82 L723.954 1794.89 Z" fill="#000000" fill-rule="nonzero" fill-opacity="1" /><path clip-path="url(#clip560)" d="M763.306 1767.34 Q759.695 1767.34 757.866 1770.9 Q756.06 1774.45 756.06 1781.58 Q756.06 1788.68 757.866 1792.25 Q759.695 1795.79 763.306 1795.79 Q766.94 1795.79 768.746 1792.25 Q770.574 1788.68 770.574 1781.58 Q770.574 1774.45 768.746 1770.9 Q766.94 1767.34 763.306 1767.34 M763.306 1763.64 Q769.116 1763.64 772.171 1768.24 Q775.25 1772.83 775.25 1781.58 Q775.25 1790.3 772.171 1794.91 Q769.116 1799.49 763.306 1799.49 Q757.496 1799.49 754.417 1794.91 Q751.361 1790.3 751.361 1781.58 Q751.361 1772.83 754.417 1768.24 Q757.496 1763.64 763.306 1763.64 Z" fill="#000000" fill-rule="nonzero" fill-opacity="1" /><path clip-path="url(#clip560)" d="M1184.15 1794.89 L1200.47 1794.89 L1200.47 1798.82 L1178.53 1798.82 L1178.53 1794.89 Q1181.19 1792.13 1185.77 1787.5 Q1190.38 1782.85 1191.56 1781.51 Q1193.8 1778.98 1194.68 1777.25 Q1195.59 1775.49 1195.59 1773.8 Q1195.59 1771.04 1193.64 1769.31 Q1191.72 1767.57 1188.62 1767.57 Q1186.42 1767.57 1183.96 1768.34 Q1181.53 1769.1 1178.76 1770.65 L1178.76 1765.93 Q1181.58 1764.79 1184.03 1764.21 Q1186.49 1763.64 1188.53 1763.64 Q1193.9 1763.64 1197.09 1766.32 Q1200.28 1769.01 1200.28 1773.5 Q1200.28 1775.63 1199.47 1777.55 Q1198.69 1779.45 1196.58 1782.04 Q1196 1782.71 1192.9 1785.93 Q1189.8 1789.12 1184.15 1794.89 Z" fill="#000000" fill-rule="nonzero" fill-opacity="1" /><path clip-path="url(#clip560)" d="M1220.28 1767.34 Q1216.67 1767.34 1214.84 1770.9 Q1213.04 1774.45 1213.04 1781.58 Q1213.04 1788.68 1214.84 1792.25 Q1216.67 1795.79 1220.28 1795.79 Q1223.92 1795.79 1225.72 1792.25 Q1227.55 1788.68 1227.55 1781.58 Q1227.55 1774.45 1225.72 1770.9 Q1223.92 1767.34 1220.28 1767.34 M1220.28 1763.64 Q1226.09 1763.64 1229.15 1768.24 Q1232.23 1772.83 1232.23 1781.58 Q1232.23 1790.3 1229.15 1794.91 Q1226.09 1799.49 1220.28 1799.49 Q1214.47 1799.49 1211.4 1794.91 Q1208.34 1790.3 1208.34 1781.58 Q1208.34 1772.83 1211.4 1768.24 Q1214.47 1763.64 1220.28 1763.64 Z" fill="#000000" fill-rule="nonzero" fill-opacity="1" /><path clip-path="url(#clip560)" d="M1650.33 1780.19 Q1653.69 1780.9 1655.56 1783.17 Q1657.46 1785.44 1657.46 1788.77 Q1657.46 1793.89 1653.94 1796.69 Q1650.42 1799.49 1643.94 1799.49 Q1641.76 1799.49 1639.45 1799.05 Q1637.16 1798.64 1634.7 1797.78 L1634.7 1793.27 Q1636.65 1794.4 1638.96 1794.98 Q1641.28 1795.56 1643.8 1795.56 Q1648.2 1795.56 1650.49 1793.82 Q1652.81 1792.08 1652.81 1788.77 Q1652.81 1785.72 1650.65 1784.01 Q1648.52 1782.27 1644.7 1782.27 L1640.68 1782.27 L1640.68 1778.43 L1644.89 1778.43 Q1648.34 1778.43 1650.17 1777.06 Q1652 1775.67 1652 1773.08 Q1652 1770.42 1650.1 1769.01 Q1648.22 1767.57 1644.7 1767.57 Q1642.78 1767.57 1640.58 1767.99 Q1638.39 1768.4 1635.75 1769.28 L1635.75 1765.12 Q1638.41 1764.38 1640.72 1764.01 Q1643.06 1763.64 1645.12 1763.64 Q1650.45 1763.64 1653.55 1766.07 Q1656.65 1768.47 1656.65 1772.59 Q1656.65 1775.46 1655.01 1777.46 Q1653.36 1779.42 1650.33 1780.19 Z" fill="#000000" fill-rule="nonzero" fill-opacity="1" /><path clip-path="url(#clip560)" d="M1676.32 1767.34 Q1672.71 1767.34 1670.89 1770.9 Q1669.08 1774.45 1669.08 1781.58 Q1669.08 1788.68 1670.89 1792.25 Q1672.71 1795.79 1676.32 1795.79 Q1679.96 1795.79 1681.76 1792.25 Q1683.59 1788.68 1683.59 1781.58 Q1683.59 1774.45 1681.76 1770.9 Q1679.96 1767.34 1676.32 1767.34 M1676.32 1763.64 Q1682.14 1763.64 1685.19 1768.24 Q1688.27 1772.83 1688.27 1781.58 Q1688.27 1790.3 1685.19 1794.91 Q1682.14 1799.49 1676.32 1799.49 Q1670.51 1799.49 1667.44 1794.91 Q1664.38 1790.3 1664.38 1781.58 Q1664.38 1772.83 1667.44 1768.24 Q1670.51 1763.64 1676.32 1763.64 Z" fill="#000000" fill-rule="nonzero" fill-opacity="1" /><path clip-path="url(#clip560)" d="M2105.77 1768.34 L2093.96 1786.78 L2105.77 1786.78 L2105.77 1768.34 M2104.54 1764.26 L2110.42 1764.26 L2110.42 1786.78 L2115.35 1786.78 L2115.35 1790.67 L2110.42 1790.67 L2110.42 1798.82 L2105.77 1798.82 L2105.77 1790.67 L2090.17 1790.67 L2090.17 1786.16 L2104.54 1764.26 Z" fill="#000000" fill-rule="nonzero" fill-opacity="1" /><path clip-path="url(#clip560)" d="M2133.08 1767.34 Q2129.47 1767.34 2127.64 1770.9 Q2125.84 1774.45 2125.84 1781.58 Q2125.84 1788.68 2127.64 1792.25 Q2129.47 1795.79 2133.08 1795.79 Q2136.72 1795.79 2138.52 1792.25 Q2140.35 1788.68 2140.35 1781.58 Q2140.35 1774.45 2138.52 1770.9 Q2136.72 1767.34 2133.08 1767.34 M2133.08 1763.64 Q2138.89 1763.64 2141.95 1768.24 Q2145.03 1772.83 2145.03 1781.58 Q2145.03 1790.3 2141.95 1794.91 Q2138.89 1799.49 2133.08 1799.49 Q2127.27 1799.49 2124.19 1794.91 Q2121.14 1790.3 2121.14 1781.58 Q2121.14 1772.83 2124.19 1768.24 Q2127.27 1763.64 2133.08 1763.64 Z" fill="#000000" fill-rule="nonzero" fill-opacity="1" /><path clip-path="url(#clip560)" d="M2548.41 1764.26 L2566.76 1764.26 L2566.76 1768.2 L2552.69 1768.2 L2552.69 1776.67 Q2553.71 1776.32 2554.73 1776.16 Q2555.74 1775.97 2556.76 1775.97 Q2562.55 1775.97 2565.93 1779.15 Q2569.31 1782.32 2569.31 1787.73 Q2569.31 1793.31 2565.84 1796.41 Q2562.37 1799.49 2556.05 1799.49 Q2553.87 1799.49 2551.6 1799.12 Q2549.36 1798.75 2546.95 1798.01 L2546.95 1793.31 Q2549.03 1794.45 2551.25 1795 Q2553.48 1795.56 2555.95 1795.56 Q2559.96 1795.56 2562.3 1793.45 Q2564.63 1791.34 2564.63 1787.73 Q2564.63 1784.12 2562.3 1782.02 Q2559.96 1779.91 2555.95 1779.91 Q2554.08 1779.91 2552.2 1780.33 Q2550.35 1780.74 2548.41 1781.62 L2548.41 1764.26 Z" fill="#000000" fill-rule="nonzero" fill-opacity="1" /><path clip-path="url(#clip560)" d="M2588.52 1767.34 Q2584.91 1767.34 2583.08 1770.9 Q2581.28 1774.45 2581.28 1781.58 Q2581.28 1788.68 2583.08 1792.25 Q2584.91 1795.79 2588.52 1795.79 Q2592.16 1795.79 2593.96 1792.25 Q2595.79 1788.68 2595.79 1781.58 Q2595.79 1774.45 2593.96 1770.9 Q2592.16 1767.34 2588.52 1767.34 M2588.52 1763.64 Q2594.33 1763.64 2597.39 1768.24 Q2600.47 1772.83 2600.47 1781.58 Q2600.47 1790.3 2597.39 1794.91 Q2594.33 1799.49 2588.52 1799.49 Q2582.71 1799.49 2579.63 1794.91 Q2576.58 1790.3 2576.58 1781.58 Q2576.58 1772.83 2579.63 1768.24 Q2582.71 1763.64 2588.52 1763.64 Z" fill="#000000" fill-rule="nonzero" fill-opacity="1" /><path clip-path="url(#clip560)" d="M1387.17 1835.78 L1394.08 1835.78 L1407.25 1855.32 L1420.33 1835.78 L1427.24 1835.78 L1410.44 1860.67 L1410.44 1883.3 L1403.98 1883.3 L1403.98 1860.67 L1387.17 1835.78 Z" fill="#000000" fill-rule="nonzero" fill-opacity="1" /><path clip-path="url(#clip560)" d="M1455.09 1864.01 L1455.09 1866.88 L1428.16 1866.88 Q1428.55 1872.92 1431.79 1876.11 Q1435.07 1879.26 1440.9 1879.26 Q1444.27 1879.26 1447.42 1878.43 Q1450.6 1877.6 1453.72 1875.95 L1453.72 1881.49 Q1450.57 1882.82 1447.26 1883.52 Q1443.95 1884.22 1440.55 1884.22 Q1432.02 1884.22 1427.02 1879.26 Q1422.05 1874.29 1422.05 1865.83 Q1422.05 1857.07 1426.76 1851.95 Q1431.51 1846.79 1439.53 1846.79 Q1446.72 1846.79 1450.89 1851.44 Q1455.09 1856.06 1455.09 1864.01 M1449.24 1862.29 Q1449.17 1857.49 1446.53 1854.62 Q1443.92 1851.76 1439.59 1851.76 Q1434.69 1851.76 1431.73 1854.53 Q1428.8 1857.3 1428.36 1862.33 L1449.24 1862.29 Z" fill="#000000" fill-rule="nonzero" fill-opacity="1" /><path clip-path="url(#clip560)" d="M1480.9 1865.38 Q1473.81 1865.38 1471.07 1867 Q1468.33 1868.63 1468.33 1872.54 Q1468.33 1875.66 1470.37 1877.51 Q1472.44 1879.32 1475.97 1879.32 Q1480.84 1879.32 1483.77 1875.88 Q1486.73 1872.42 1486.73 1866.69 L1486.73 1865.38 L1480.9 1865.38 M1492.59 1862.96 L1492.59 1883.3 L1486.73 1883.3 L1486.73 1877.89 Q1484.72 1881.14 1481.73 1882.7 Q1478.74 1884.22 1474.41 1884.22 Q1468.94 1884.22 1465.69 1881.17 Q1462.48 1878.08 1462.48 1872.92 Q1462.48 1866.91 1466.49 1863.85 Q1470.53 1860.8 1478.52 1860.8 L1486.73 1860.8 L1486.73 1860.23 Q1486.73 1856.18 1484.06 1853.99 Q1481.41 1851.76 1476.61 1851.76 Q1473.55 1851.76 1470.66 1852.49 Q1467.76 1853.22 1465.09 1854.69 L1465.09 1849.28 Q1468.3 1848.03 1471.32 1847.43 Q1474.35 1846.79 1477.21 1846.79 Q1484.95 1846.79 1488.77 1850.8 Q1492.59 1854.81 1492.59 1862.96 Z" fill="#000000" fill-rule="nonzero" fill-opacity="1" /><path clip-path="url(#clip560)" d="M1525.31 1853.13 Q1524.32 1852.55 1523.14 1852.3 Q1522 1852.01 1520.59 1852.01 Q1515.63 1852.01 1512.96 1855.26 Q1510.31 1858.47 1510.31 1864.52 L1510.31 1883.3 L1504.43 1883.3 L1504.43 1847.65 L1510.31 1847.65 L1510.31 1853.19 Q1512.16 1849.94 1515.12 1848.39 Q1518.08 1846.79 1522.31 1846.79 Q1522.92 1846.79 1523.65 1846.89 Q1524.38 1846.95 1525.27 1847.11 L1525.31 1853.13 Z" fill="#000000" fill-rule="nonzero" fill-opacity="1" /><polyline clip-path="url(#clip560)" style="stroke:#000000; stroke-linecap:round; stroke-linejoin:round; stroke-width:4; stroke-opacity:1; fill:none" points="271.719,1734.12 271.719,127.792 "/>
<polyline clip-path="url(#clip560)" style="stroke:#000000; stroke-linecap:round; stroke-linejoin:round; stroke-width:4; stroke-opacity:1; fill:none" points="271.719,1378.28 290.617,1378.28 "/>
<polyline clip-path="url(#clip560)" style="stroke:#000000; stroke-linecap:round; stroke-linejoin:round; stroke-width:4; stroke-opacity:1; fill:none" points="271.719,990.314 290.617,990.314 "/>
<polyline clip-path="url(#clip560)" style="stroke:#000000; stroke-linecap:round; stroke-linejoin:round; stroke-width:4; stroke-opacity:1; fill:none" points="271.719,602.346 290.617,602.346 "/>
<polyline clip-path="url(#clip560)" style="stroke:#000000; stroke-linecap:round; stroke-linejoin:round; stroke-width:4; stroke-opacity:1; fill:none" points="271.719,214.379 290.617,214.379 "/>
<path clip-path="url(#clip560)" d="M119.779 1391.63 L127.418 1391.63 L127.418 1365.26 L119.108 1366.93 L119.108 1362.67 L127.372 1361 L132.048 1361 L132.048 1391.63 L139.687 1391.63 L139.687 1395.56 L119.779 1395.56 L119.779 1391.63 Z" fill="#000000" fill-rule="nonzero" fill-opacity="1" /><path clip-path="url(#clip560)" d="M159.131 1364.08 Q155.52 1364.08 153.691 1367.64 Q151.886 1371.19 151.886 1378.32 Q151.886 1385.42 153.691 1388.99 Q155.52 1392.53 159.131 1392.53 Q162.765 1392.53 164.571 1388.99 Q166.399 1385.42 166.399 1378.32 Q166.399 1371.19 164.571 1367.64 Q162.765 1364.08 159.131 1364.08 M159.131 1360.38 Q164.941 1360.38 167.997 1364.98 Q171.075 1369.57 171.075 1378.32 Q171.075 1387.04 167.997 1391.65 Q164.941 1396.23 159.131 1396.23 Q153.321 1396.23 150.242 1391.65 Q147.186 1387.04 147.186 1378.32 Q147.186 1369.57 150.242 1364.98 Q153.321 1360.38 159.131 1360.38 Z" fill="#000000" fill-rule="nonzero" fill-opacity="1" /><path clip-path="url(#clip560)" d="M189.293 1364.08 Q185.682 1364.08 183.853 1367.64 Q182.047 1371.19 182.047 1378.32 Q182.047 1385.42 183.853 1388.99 Q185.682 1392.53 189.293 1392.53 Q192.927 1392.53 194.733 1388.99 Q196.561 1385.42 196.561 1378.32 Q196.561 1371.19 194.733 1367.64 Q192.927 1364.08 189.293 1364.08 M189.293 1360.38 Q195.103 1360.38 198.158 1364.98 Q201.237 1369.57 201.237 1378.32 Q201.237 1387.04 198.158 1391.65 Q195.103 1396.23 189.293 1396.23 Q183.483 1396.23 180.404 1391.65 Q177.348 1387.04 177.348 1378.32 Q177.348 1369.57 180.404 1364.98 Q183.483 1360.38 189.293 1360.38 Z" fill="#000000" fill-rule="nonzero" fill-opacity="1" /><path clip-path="url(#clip560)" d="M219.455 1364.08 Q215.844 1364.08 214.015 1367.64 Q212.209 1371.19 212.209 1378.32 Q212.209 1385.42 214.015 1388.99 Q215.844 1392.53 219.455 1392.53 Q223.089 1392.53 224.894 1388.99 Q226.723 1385.42 226.723 1378.32 Q226.723 1371.19 224.894 1367.64 Q223.089 1364.08 219.455 1364.08 M219.455 1360.38 Q225.265 1360.38 228.32 1364.98 Q231.399 1369.57 231.399 1378.32 Q231.399 1387.04 228.32 1391.65 Q225.265 1396.23 219.455 1396.23 Q213.644 1396.23 210.566 1391.65 Q207.51 1387.04 207.51 1378.32 Q207.51 1369.57 210.566 1364.98 Q213.644 1360.38 219.455 1360.38 Z" fill="#000000" fill-rule="nonzero" fill-opacity="1" /><path clip-path="url(#clip560)" d="M122.997 1003.66 L139.316 1003.66 L139.316 1007.59 L117.372 1007.59 L117.372 1003.66 Q120.034 1000.9 124.617 996.274 Q129.224 991.621 130.404 990.279 Q132.65 987.756 133.529 986.02 Q134.432 984.26 134.432 982.571 Q134.432 979.816 132.488 978.08 Q130.566 976.344 127.464 976.344 Q125.265 976.344 122.812 977.108 Q120.381 977.872 117.603 979.422 L117.603 974.7 Q120.427 973.566 122.881 972.987 Q125.335 972.409 127.372 972.409 Q132.742 972.409 135.937 975.094 Q139.131 977.779 139.131 982.27 Q139.131 984.399 138.321 986.321 Q137.534 988.219 135.427 990.811 Q134.849 991.483 131.747 994.7 Q128.645 997.895 122.997 1003.66 Z" fill="#000000" fill-rule="nonzero" fill-opacity="1" /><path clip-path="url(#clip560)" d="M159.131 976.112 Q155.52 976.112 153.691 979.677 Q151.886 983.219 151.886 990.348 Q151.886 997.455 153.691 1001.02 Q155.52 1004.56 159.131 1004.56 Q162.765 1004.56 164.571 1001.02 Q166.399 997.455 166.399 990.348 Q166.399 983.219 164.571 979.677 Q162.765 976.112 159.131 976.112 M159.131 972.409 Q164.941 972.409 167.997 977.015 Q171.075 981.598 171.075 990.348 Q171.075 999.075 167.997 1003.68 Q164.941 1008.26 159.131 1008.26 Q153.321 1008.26 150.242 1003.68 Q147.186 999.075 147.186 990.348 Q147.186 981.598 150.242 977.015 Q153.321 972.409 159.131 972.409 Z" fill="#000000" fill-rule="nonzero" fill-opacity="1" /><path clip-path="url(#clip560)" d="M189.293 976.112 Q185.682 976.112 183.853 979.677 Q182.047 983.219 182.047 990.348 Q182.047 997.455 183.853 1001.02 Q185.682 1004.56 189.293 1004.56 Q192.927 1004.56 194.733 1001.02 Q196.561 997.455 196.561 990.348 Q196.561 983.219 194.733 979.677 Q192.927 976.112 189.293 976.112 M189.293 972.409 Q195.103 972.409 198.158 977.015 Q201.237 981.598 201.237 990.348 Q201.237 999.075 198.158 1003.68 Q195.103 1008.26 189.293 1008.26 Q183.483 1008.26 180.404 1003.68 Q177.348 999.075 177.348 990.348 Q177.348 981.598 180.404 977.015 Q183.483 972.409 189.293 972.409 Z" fill="#000000" fill-rule="nonzero" fill-opacity="1" /><path clip-path="url(#clip560)" d="M219.455 976.112 Q215.844 976.112 214.015 979.677 Q212.209 983.219 212.209 990.348 Q212.209 997.455 214.015 1001.02 Q215.844 1004.56 219.455 1004.56 Q223.089 1004.56 224.894 1001.02 Q226.723 997.455 226.723 990.348 Q226.723 983.219 224.894 979.677 Q223.089 976.112 219.455 976.112 M219.455 972.409 Q225.265 972.409 228.32 977.015 Q231.399 981.598 231.399 990.348 Q231.399 999.075 228.32 1003.68 Q225.265 1008.26 219.455 1008.26 Q213.644 1008.26 210.566 1003.68 Q207.51 999.075 207.51 990.348 Q207.51 981.598 210.566 977.015 Q213.644 972.409 219.455 972.409 Z" fill="#000000" fill-rule="nonzero" fill-opacity="1" /><path clip-path="url(#clip560)" d="M133.136 600.992 Q136.492 601.71 138.367 603.978 Q140.265 606.247 140.265 609.58 Q140.265 614.696 136.747 617.497 Q133.228 620.297 126.747 620.297 Q124.571 620.297 122.256 619.858 Q119.964 619.441 117.511 618.584 L117.511 614.071 Q119.455 615.205 121.77 615.784 Q124.085 616.362 126.608 616.362 Q131.006 616.362 133.298 614.626 Q135.612 612.89 135.612 609.58 Q135.612 606.524 133.46 604.811 Q131.33 603.075 127.511 603.075 L123.483 603.075 L123.483 599.233 L127.696 599.233 Q131.145 599.233 132.974 597.867 Q134.802 596.478 134.802 593.886 Q134.802 591.224 132.904 589.811 Q131.029 588.376 127.511 588.376 Q125.589 588.376 123.39 588.793 Q121.191 589.21 118.552 590.089 L118.552 585.923 Q121.214 585.182 123.529 584.812 Q125.867 584.441 127.927 584.441 Q133.251 584.441 136.353 586.872 Q139.455 589.279 139.455 593.399 Q139.455 596.27 137.812 598.261 Q136.168 600.228 133.136 600.992 Z" fill="#000000" fill-rule="nonzero" fill-opacity="1" /><path clip-path="url(#clip560)" d="M159.131 588.145 Q155.52 588.145 153.691 591.71 Q151.886 595.251 151.886 602.381 Q151.886 609.487 153.691 613.052 Q155.52 616.594 159.131 616.594 Q162.765 616.594 164.571 613.052 Q166.399 609.487 166.399 602.381 Q166.399 595.251 164.571 591.71 Q162.765 588.145 159.131 588.145 M159.131 584.441 Q164.941 584.441 167.997 589.048 Q171.075 593.631 171.075 602.381 Q171.075 611.108 167.997 615.714 Q164.941 620.297 159.131 620.297 Q153.321 620.297 150.242 615.714 Q147.186 611.108 147.186 602.381 Q147.186 593.631 150.242 589.048 Q153.321 584.441 159.131 584.441 Z" fill="#000000" fill-rule="nonzero" fill-opacity="1" /><path clip-path="url(#clip560)" d="M189.293 588.145 Q185.682 588.145 183.853 591.71 Q182.047 595.251 182.047 602.381 Q182.047 609.487 183.853 613.052 Q185.682 616.594 189.293 616.594 Q192.927 616.594 194.733 613.052 Q196.561 609.487 196.561 602.381 Q196.561 595.251 194.733 591.71 Q192.927 588.145 189.293 588.145 M189.293 584.441 Q195.103 584.441 198.158 589.048 Q201.237 593.631 201.237 602.381 Q201.237 611.108 198.158 615.714 Q195.103 620.297 189.293 620.297 Q183.483 620.297 180.404 615.714 Q177.348 611.108 177.348 602.381 Q177.348 593.631 180.404 589.048 Q183.483 584.441 189.293 584.441 Z" fill="#000000" fill-rule="nonzero" fill-opacity="1" /><path clip-path="url(#clip560)" d="M219.455 588.145 Q215.844 588.145 214.015 591.71 Q212.209 595.251 212.209 602.381 Q212.209 609.487 214.015 613.052 Q215.844 616.594 219.455 616.594 Q223.089 616.594 224.894 613.052 Q226.723 609.487 226.723 602.381 Q226.723 595.251 224.894 591.71 Q223.089 588.145 219.455 588.145 M219.455 584.441 Q225.265 584.441 228.32 589.048 Q231.399 593.631 231.399 602.381 Q231.399 611.108 228.32 615.714 Q225.265 620.297 219.455 620.297 Q213.644 620.297 210.566 615.714 Q207.51 611.108 207.51 602.381 Q207.51 593.631 210.566 589.048 Q213.644 584.441 219.455 584.441 Z" fill="#000000" fill-rule="nonzero" fill-opacity="1" /><path clip-path="url(#clip560)" d="M131.816 201.173 L120.011 219.622 L131.816 219.622 L131.816 201.173 M130.589 197.099 L136.469 197.099 L136.469 219.622 L141.399 219.622 L141.399 223.511 L136.469 223.511 L136.469 231.659 L131.816 231.659 L131.816 223.511 L116.214 223.511 L116.214 218.997 L130.589 197.099 Z" fill="#000000" fill-rule="nonzero" fill-opacity="1" /><path clip-path="url(#clip560)" d="M159.131 200.177 Q155.52 200.177 153.691 203.742 Q151.886 207.284 151.886 214.413 Q151.886 221.52 153.691 225.085 Q155.52 228.626 159.131 228.626 Q162.765 228.626 164.571 225.085 Q166.399 221.52 166.399 214.413 Q166.399 207.284 164.571 203.742 Q162.765 200.177 159.131 200.177 M159.131 196.474 Q164.941 196.474 167.997 201.08 Q171.075 205.663 171.075 214.413 Q171.075 223.14 167.997 227.747 Q164.941 232.33 159.131 232.33 Q153.321 232.33 150.242 227.747 Q147.186 223.14 147.186 214.413 Q147.186 205.663 150.242 201.08 Q153.321 196.474 159.131 196.474 Z" fill="#000000" fill-rule="nonzero" fill-opacity="1" /><path clip-path="url(#clip560)" d="M189.293 200.177 Q185.682 200.177 183.853 203.742 Q182.047 207.284 182.047 214.413 Q182.047 221.52 183.853 225.085 Q185.682 228.626 189.293 228.626 Q192.927 228.626 194.733 225.085 Q196.561 221.52 196.561 214.413 Q196.561 207.284 194.733 203.742 Q192.927 200.177 189.293 200.177 M189.293 196.474 Q195.103 196.474 198.158 201.08 Q201.237 205.663 201.237 214.413 Q201.237 223.14 198.158 227.747 Q195.103 232.33 189.293 232.33 Q183.483 232.33 180.404 227.747 Q177.348 223.14 177.348 214.413 Q177.348 205.663 180.404 201.08 Q183.483 196.474 189.293 196.474 Z" fill="#000000" fill-rule="nonzero" fill-opacity="1" /><path clip-path="url(#clip560)" d="M219.455 200.177 Q215.844 200.177 214.015 203.742 Q212.209 207.284 212.209 214.413 Q212.209 221.52 214.015 225.085 Q215.844 228.626 219.455 228.626 Q223.089 228.626 224.894 225.085 Q226.723 221.52 226.723 214.413 Q226.723 207.284 224.894 203.742 Q223.089 200.177 219.455 200.177 M219.455 196.474 Q225.265 196.474 228.32 201.08 Q231.399 205.663 231.399 214.413 Q231.399 223.14 228.32 227.747 Q225.265 232.33 219.455 232.33 Q213.644 232.33 210.566 227.747 Q207.51 223.14 207.51 214.413 Q207.51 205.663 210.566 201.08 Q213.644 196.474 219.455 196.474 Z" fill="#000000" fill-rule="nonzero" fill-opacity="1" /><path clip-path="url(#clip560)" d="M20.4523 1090.78 L44.1009 1099.5 L44.1009 1082.03 L20.4523 1090.78 M14.1184 1094.41 L14.1184 1087.12 L61.6384 1069.01 L61.6384 1075.69 L49.4481 1080.02 L49.4481 1101.44 L61.6384 1105.77 L61.6384 1112.55 L14.1184 1094.41 Z" fill="#000000" fill-rule="nonzero" fill-opacity="1" /><path clip-path="url(#clip560)" d="M43.8463 1036.74 Q37.3851 1036.74 33.7248 1039.41 Q30.0327 1042.05 30.0327 1046.7 Q30.0327 1051.35 33.7248 1054.02 Q37.3851 1056.66 43.8463 1056.66 Q50.3075 1056.66 53.9996 1054.02 Q57.6599 1051.35 57.6599 1046.7 Q57.6599 1042.05 53.9996 1039.41 Q50.3075 1036.74 43.8463 1036.74 M31.4013 1056.66 Q28.2185 1054.82 26.6907 1052.01 Q25.1311 1049.18 25.1311 1045.27 Q25.1311 1038.77 30.2873 1034.73 Q35.4436 1030.66 43.8463 1030.66 Q52.249 1030.66 57.4052 1034.73 Q62.5615 1038.77 62.5615 1045.27 Q62.5615 1049.18 61.0337 1052.01 Q59.4741 1054.82 56.2912 1056.66 L61.6384 1056.66 L61.6384 1062.55 L12.1132 1062.55 L12.1132 1056.66 L31.4013 1056.66 Z" fill="#000000" fill-rule="nonzero" fill-opacity="1" /><path clip-path="url(#clip560)" d="M47.5702 1021.55 L25.9905 1021.55 L25.9905 1015.7 L47.3474 1015.7 Q52.4082 1015.7 54.9545 1013.72 Q57.4689 1011.75 57.4689 1007.8 Q57.4689 1003.06 54.4452 1000.32 Q51.4215 997.556 46.2016 997.556 L25.9905 997.556 L25.9905 991.699 L61.6384 991.699 L61.6384 997.556 L56.1639 997.556 Q59.4104 999.688 61.0019 1002.52 Q62.5615 1005.32 62.5615 1009.05 Q62.5615 1015.19 58.742 1018.37 Q54.9226 1021.55 47.5702 1021.55 M25.1311 1006.82 L25.1311 1006.82 Z" fill="#000000" fill-rule="nonzero" fill-opacity="1" /><path clip-path="url(#clip560)" d="M40.1224 950.004 L61.6384 950.004 L61.6384 955.86 L40.3133 955.86 Q35.2526 955.86 32.7381 957.834 Q30.2237 959.807 30.2237 963.754 Q30.2237 968.496 33.2474 971.234 Q36.2711 973.971 41.491 973.971 L61.6384 973.971 L61.6384 979.859 L25.9905 979.859 L25.9905 973.971 L31.5287 973.971 Q28.314 971.87 26.7225 969.037 Q25.1311 966.173 25.1311 962.449 Q25.1311 956.306 28.9505 953.155 Q32.7381 950.004 40.1224 950.004 Z" fill="#000000" fill-rule="nonzero" fill-opacity="1" /><path clip-path="url(#clip560)" d="M31.4013 914.865 L12.1132 914.865 L12.1132 909.009 L61.6384 909.009 L61.6384 914.865 L56.2912 914.865 Q59.4741 916.711 61.0337 919.544 Q62.5615 922.345 62.5615 926.292 Q62.5615 932.753 57.4052 936.827 Q52.249 940.869 43.8463 940.869 Q35.4436 940.869 30.2873 936.827 Q25.1311 932.753 25.1311 926.292 Q25.1311 922.345 26.6907 919.544 Q28.2185 916.711 31.4013 914.865 M43.8463 934.822 Q50.3075 934.822 53.9996 932.18 Q57.6599 929.506 57.6599 924.859 Q57.6599 920.212 53.9996 917.539 Q50.3075 914.865 43.8463 914.865 Q37.3851 914.865 33.7248 917.539 Q30.0327 920.212 30.0327 924.859 Q30.0327 929.506 33.7248 932.18 Q37.3851 934.822 43.8463 934.822 Z" fill="#000000" fill-rule="nonzero" fill-opacity="1" /><path clip-path="url(#clip560)" d="M43.719 880.745 Q43.719 887.843 45.3422 890.58 Q46.9655 893.317 50.8804 893.317 Q53.9996 893.317 55.8457 891.28 Q57.6599 889.211 57.6599 885.678 Q57.6599 880.809 54.2224 877.88 Q50.7531 874.92 45.0239 874.92 L43.719 874.92 L43.719 880.745 M41.3 869.064 L61.6384 869.064 L61.6384 874.92 L56.2276 874.92 Q59.4741 876.926 61.0337 879.918 Q62.5615 882.909 62.5615 887.238 Q62.5615 892.713 59.5059 895.959 Q56.4186 899.174 51.2623 899.174 Q45.2467 899.174 42.1912 895.163 Q39.1357 891.121 39.1357 883.132 L39.1357 874.92 L38.5628 874.92 Q34.5205 874.92 32.3244 877.594 Q30.0964 880.236 30.0964 885.042 Q30.0964 888.097 30.8284 890.994 Q31.5605 893.89 33.0246 896.564 L27.6137 896.564 Q26.3724 893.349 25.7677 890.325 Q25.1311 887.302 25.1311 884.437 Q25.1311 876.703 29.1415 872.883 Q33.1519 869.064 41.3 869.064 Z" fill="#000000" fill-rule="nonzero" fill-opacity="1" /><path clip-path="url(#clip560)" d="M40.1224 827.369 L61.6384 827.369 L61.6384 833.225 L40.3133 833.225 Q35.2526 833.225 32.7381 835.198 Q30.2237 837.172 30.2237 841.119 Q30.2237 845.861 33.2474 848.598 Q36.2711 851.335 41.491 851.335 L61.6384 851.335 L61.6384 857.224 L25.9905 857.224 L25.9905 851.335 L31.5287 851.335 Q28.314 849.235 26.7225 846.402 Q25.1311 843.537 25.1311 839.814 Q25.1311 833.671 28.9505 830.52 Q32.7381 827.369 40.1224 827.369 Z" fill="#000000" fill-rule="nonzero" fill-opacity="1" /><path clip-path="url(#clip560)" d="M27.3591 790.034 L32.8336 790.034 Q31.465 792.516 30.7966 795.031 Q30.0964 797.513 30.0964 800.06 Q30.0964 805.757 33.7248 808.908 Q37.3214 812.059 43.8463 812.059 Q50.3711 812.059 53.9996 808.908 Q57.5962 805.757 57.5962 800.06 Q57.5962 797.513 56.9278 795.031 Q56.2276 792.516 54.859 790.034 L60.2698 790.034 Q61.4156 792.485 61.9886 795.126 Q62.5615 797.736 62.5615 800.696 Q62.5615 808.749 57.5007 813.491 Q52.44 818.234 43.8463 818.234 Q35.1253 818.234 30.1282 813.46 Q25.1311 808.653 25.1311 800.314 Q25.1311 797.609 25.704 795.031 Q26.2451 792.453 27.3591 790.034 Z" fill="#000000" fill-rule="nonzero" fill-opacity="1" /><path clip-path="url(#clip560)" d="M42.3504 749.357 L45.2149 749.357 L45.2149 776.284 Q51.2623 775.902 54.4452 772.655 Q57.5962 769.377 57.5962 763.552 Q57.5962 760.179 56.7687 757.028 Q55.9411 753.845 54.2861 750.725 L59.8242 750.725 Q61.161 753.877 61.8612 757.187 Q62.5615 760.497 62.5615 763.902 Q62.5615 772.433 57.5962 777.43 Q52.631 782.395 44.1646 782.395 Q35.4117 782.395 30.2873 777.684 Q25.1311 772.942 25.1311 764.921 Q25.1311 757.728 29.7781 753.558 Q34.3932 749.357 42.3504 749.357 M40.6316 755.213 Q35.8255 755.277 32.9609 757.919 Q30.0964 760.529 30.0964 764.857 Q30.0964 769.759 32.8654 772.719 Q35.6345 775.647 40.6634 776.093 L40.6316 755.213 Z" fill="#000000" fill-rule="nonzero" fill-opacity="1" /><path clip-path="url(#clip560)" d="M683.588 43.6931 L683.588 65.8515 L696.713 65.8515 Q703.316 65.8515 706.476 63.1374 Q709.676 60.3828 709.676 54.752 Q709.676 49.0808 706.476 46.4072 Q703.316 43.6931 696.713 43.6931 L683.588 43.6931 M683.588 18.8205 L683.588 37.0496 L695.7 37.0496 Q701.696 37.0496 704.612 34.8216 Q707.57 32.5531 707.57 27.935 Q707.57 23.3575 704.612 21.089 Q701.696 18.8205 695.7 18.8205 L683.588 18.8205 M675.405 12.096 L696.308 12.096 Q705.666 12.096 710.729 15.9849 Q715.793 19.8737 715.793 27.0438 Q715.793 32.5936 713.2 35.8748 Q710.608 39.156 705.585 39.9662 Q711.62 41.2625 714.942 45.3944 Q718.304 49.4858 718.304 55.6432 Q718.304 63.745 712.795 68.1605 Q707.286 72.576 697.118 72.576 L675.405 72.576 L675.405 12.096 Z" fill="#000000" fill-rule="nonzero" fill-opacity="1" /><path clip-path="url(#clip560)" d="M749.577 32.4315 Q743.582 32.4315 740.098 37.1306 Q736.615 41.7891 736.615 49.9314 Q736.615 58.0738 740.058 62.7728 Q743.542 67.4314 749.577 67.4314 Q755.532 67.4314 759.016 62.7323 Q762.5 58.0333 762.5 49.9314 Q762.5 41.8701 759.016 37.1711 Q755.532 32.4315 749.577 32.4315 M749.577 26.1121 Q759.3 26.1121 764.849 32.4315 Q770.399 38.7509 770.399 49.9314 Q770.399 61.0714 764.849 67.4314 Q759.3 73.7508 749.577 73.7508 Q739.815 73.7508 734.265 67.4314 Q728.756 61.0714 728.756 49.9314 Q728.756 38.7509 734.265 32.4315 Q739.815 26.1121 749.577 26.1121 Z" fill="#000000" fill-rule="nonzero" fill-opacity="1" /><path clip-path="url(#clip560)" d="M800.335 32.4315 Q794.34 32.4315 790.856 37.1306 Q787.372 41.7891 787.372 49.9314 Q787.372 58.0738 790.816 62.7728 Q794.299 67.4314 800.335 67.4314 Q806.29 67.4314 809.774 62.7323 Q813.258 58.0333 813.258 49.9314 Q813.258 41.8701 809.774 37.1711 Q806.29 32.4315 800.335 32.4315 M800.335 26.1121 Q810.057 26.1121 815.607 32.4315 Q821.157 38.7509 821.157 49.9314 Q821.157 61.0714 815.607 67.4314 Q810.057 73.7508 800.335 73.7508 Q790.573 73.7508 785.023 67.4314 Q779.514 61.0714 779.514 49.9314 Q779.514 38.7509 785.023 32.4315 Q790.573 26.1121 800.335 26.1121 Z" fill="#000000" fill-rule="nonzero" fill-opacity="1" /><path clip-path="url(#clip560)" d="M840.885 14.324 L840.885 27.2059 L856.238 27.2059 L856.238 32.9987 L840.885 32.9987 L840.885 57.6282 Q840.885 63.1779 842.384 64.7578 Q843.923 66.3376 848.582 66.3376 L856.238 66.3376 L856.238 72.576 L848.582 72.576 Q839.953 72.576 836.672 69.3758 Q833.391 66.1351 833.391 57.6282 L833.391 32.9987 L827.922 32.9987 L827.922 27.2059 L833.391 27.2059 L833.391 14.324 L840.885 14.324 Z" fill="#000000" fill-rule="nonzero" fill-opacity="1" /><path clip-path="url(#clip560)" d="M894.964 28.5427 L894.964 35.5912 Q891.805 33.9709 888.402 33.1607 Q884.999 32.3505 881.353 32.3505 Q875.804 32.3505 873.009 34.0519 Q870.254 35.7533 870.254 39.156 Q870.254 41.7486 872.239 43.2475 Q874.224 44.7058 880.219 46.0426 L882.771 46.6097 Q890.711 48.3111 894.033 51.4303 Q897.395 54.509 897.395 60.0587 Q897.395 66.3781 892.372 70.0644 Q887.389 73.7508 878.639 73.7508 Q874.993 73.7508 871.024 73.0216 Q867.094 72.3329 862.719 70.9151 L862.719 63.2184 Q866.851 65.3654 870.862 66.4591 Q874.872 67.5124 878.801 67.5124 Q884.067 67.5124 886.903 65.73 Q889.739 63.9071 889.739 60.6258 Q889.739 57.5877 887.673 55.9673 Q885.647 54.3469 878.72 52.8481 L876.128 52.2405 Q869.201 50.7821 866.122 47.7845 Q863.043 44.7463 863.043 39.4801 Q863.043 33.0797 867.58 29.5959 Q872.117 26.1121 880.462 26.1121 Q884.594 26.1121 888.24 26.7198 Q891.886 27.3274 894.964 28.5427 Z" fill="#000000" fill-rule="nonzero" fill-opacity="1" /><path clip-path="url(#clip560)" d="M916.637 14.324 L916.637 27.2059 L931.99 27.2059 L931.99 32.9987 L916.637 32.9987 L916.637 57.6282 Q916.637 63.1779 918.136 64.7578 Q919.675 66.3376 924.333 66.3376 L931.99 66.3376 L931.99 72.576 L924.333 72.576 Q915.705 72.576 912.424 69.3758 Q909.143 66.1351 909.143 57.6282 L909.143 32.9987 L903.674 32.9987 L903.674 27.2059 L909.143 27.2059 L909.143 14.324 L916.637 14.324 Z" fill="#000000" fill-rule="nonzero" fill-opacity="1" /><path clip-path="url(#clip560)" d="M968.083 34.1734 Q966.827 33.4443 965.329 33.1202 Q963.87 32.7556 962.088 32.7556 Q955.768 32.7556 952.366 36.8875 Q949.003 40.9789 949.003 48.6757 L949.003 72.576 L941.509 72.576 L941.509 27.2059 L949.003 27.2059 L949.003 34.2544 Q951.353 30.1225 955.12 28.1376 Q958.888 26.1121 964.275 26.1121 Q965.045 26.1121 965.977 26.2337 Q966.908 26.3147 968.043 26.5172 L968.083 34.1734 Z" fill="#000000" fill-rule="nonzero" fill-opacity="1" /><path clip-path="url(#clip560)" d="M996.521 49.7694 Q987.487 49.7694 984.003 51.8354 Q980.52 53.9013 980.52 58.8839 Q980.52 62.8538 983.112 65.2034 Q985.745 67.5124 990.242 67.5124 Q996.44 67.5124 1000.17 63.1374 Q1003.93 58.7219 1003.93 51.4303 L1003.93 49.7694 L996.521 49.7694 M1011.39 46.6907 L1011.39 72.576 L1003.93 72.576 L1003.93 65.6895 Q1001.38 69.8214 997.574 71.8063 Q993.766 73.7508 988.257 73.7508 Q981.289 73.7508 977.157 69.8619 Q973.066 65.9325 973.066 59.3701 Q973.066 51.7138 978.17 47.825 Q983.315 43.9361 993.482 43.9361 L1003.93 43.9361 L1003.93 43.2069 Q1003.93 38.0623 1000.53 35.2672 Q997.169 32.4315 991.052 32.4315 Q987.163 32.4315 983.477 33.3632 Q979.79 34.295 976.388 36.1584 L976.388 29.2718 Q980.479 27.692 984.327 26.9223 Q988.176 26.1121 991.822 26.1121 Q1001.67 26.1121 1006.53 31.2163 Q1011.39 36.3204 1011.39 46.6907 Z" fill="#000000" fill-rule="nonzero" fill-opacity="1" /><path clip-path="url(#clip560)" d="M1033.95 65.7705 L1033.95 89.8329 L1026.46 89.8329 L1026.46 27.2059 L1033.95 27.2059 L1033.95 34.0924 Q1036.3 30.0415 1039.87 28.0971 Q1043.47 26.1121 1048.45 26.1121 Q1056.72 26.1121 1061.86 32.6746 Q1067.05 39.2371 1067.05 49.9314 Q1067.05 60.6258 1061.86 67.1883 Q1056.72 73.7508 1048.45 73.7508 Q1043.47 73.7508 1039.87 71.8063 Q1036.3 69.8214 1033.95 65.7705 M1059.31 49.9314 Q1059.31 41.7081 1055.91 37.0496 Q1052.54 32.3505 1046.63 32.3505 Q1040.72 32.3505 1037.31 37.0496 Q1033.95 41.7081 1033.95 49.9314 Q1033.95 58.1548 1037.31 62.8538 Q1040.72 67.5124 1046.63 67.5124 Q1052.54 67.5124 1055.91 62.8538 Q1059.31 58.1548 1059.31 49.9314 Z" fill="#000000" fill-rule="nonzero" fill-opacity="1" /><path clip-path="url(#clip560)" d="M1107.07 71.3202 L1107.07 63.8666 Q1110.15 65.3249 1113.31 66.0946 Q1116.47 66.8642 1119.51 66.8642 Q1127.61 66.8642 1131.86 61.436 Q1136.16 55.9673 1136.76 44.8678 Q1134.41 48.3516 1130.81 50.215 Q1127.2 52.0784 1122.83 52.0784 Q1113.75 52.0784 1108.45 46.6097 Q1103.18 41.1005 1103.18 31.5808 Q1103.18 22.2638 1108.69 16.633 Q1114.2 11.0023 1123.35 11.0023 Q1133.85 11.0023 1139.36 19.0636 Q1144.91 27.0843 1144.91 42.3968 Q1144.91 56.6965 1138.1 65.2439 Q1131.33 73.7508 1119.87 73.7508 Q1116.79 73.7508 1113.63 73.1431 Q1110.47 72.5355 1107.07 71.3202 M1123.35 45.678 Q1128.86 45.678 1132.06 41.9107 Q1135.3 38.1433 1135.3 31.5808 Q1135.3 25.0589 1132.06 21.2916 Q1128.86 17.4837 1123.35 17.4837 Q1117.85 17.4837 1114.6 21.2916 Q1111.4 25.0589 1111.4 31.5808 Q1111.4 38.1433 1114.6 41.9107 Q1117.85 45.678 1123.35 45.678 Z" fill="#000000" fill-rule="nonzero" fill-opacity="1" /><path clip-path="url(#clip560)" d="M1159.69 12.096 L1191.81 12.096 L1191.81 18.9825 L1167.19 18.9825 L1167.19 33.8088 Q1168.97 33.2012 1170.75 32.9176 Q1172.53 32.5936 1174.31 32.5936 Q1184.44 32.5936 1190.36 38.1433 Q1196.27 43.6931 1196.27 53.1722 Q1196.27 62.9348 1190.19 68.3631 Q1184.12 73.7508 1173.06 73.7508 Q1169.25 73.7508 1165.28 73.1026 Q1161.35 72.4545 1157.14 71.1582 L1157.14 62.9348 Q1160.78 64.9198 1164.67 65.892 Q1168.56 66.8642 1172.9 66.8642 Q1179.91 66.8642 1184 63.1779 Q1188.09 59.4916 1188.09 53.1722 Q1188.09 46.8528 1184 43.1664 Q1179.91 39.4801 1172.9 39.4801 Q1169.62 39.4801 1166.33 40.2093 Q1163.09 40.9384 1159.69 42.4778 L1159.69 12.096 Z" fill="#000000" fill-rule="nonzero" fill-opacity="1" /><path clip-path="url(#clip560)" d="M1263.84 45.9616 Q1260.32 45.9616 1258.29 48.9592 Q1256.31 51.9569 1256.31 57.3041 Q1256.31 62.5703 1258.29 65.6084 Q1260.32 68.6061 1263.84 68.6061 Q1267.28 68.6061 1269.27 65.6084 Q1271.29 62.5703 1271.29 57.3041 Q1271.29 51.9974 1269.27 48.9997 Q1267.28 45.9616 1263.84 45.9616 M1263.84 40.8169 Q1270.24 40.8169 1274.01 45.2729 Q1277.77 49.7289 1277.77 57.3041 Q1277.77 64.8793 1273.97 69.3353 Q1270.2 73.7508 1263.84 73.7508 Q1257.36 73.7508 1253.59 69.3353 Q1249.82 64.8793 1249.82 57.3041 Q1249.82 49.6884 1253.59 45.2729 Q1257.4 40.8169 1263.84 40.8169 M1222.03 16.1469 Q1218.55 16.1469 1216.53 19.1851 Q1214.54 22.1828 1214.54 27.4489 Q1214.54 32.7961 1216.53 35.7938 Q1218.51 38.7915 1222.03 38.7915 Q1225.56 38.7915 1227.54 35.7938 Q1229.57 32.7961 1229.57 27.4489 Q1229.57 22.2233 1227.54 19.1851 Q1225.52 16.1469 1222.03 16.1469 M1258.61 11.0023 L1265.1 11.0023 L1227.26 73.7508 L1220.78 73.7508 L1258.61 11.0023 M1222.03 11.0023 Q1228.43 11.0023 1232.24 15.4583 Q1236.05 19.8737 1236.05 27.4489 Q1236.05 35.1051 1232.24 39.5206 Q1228.48 43.9361 1222.03 43.9361 Q1215.59 43.9361 1211.83 39.5206 Q1208.1 35.0646 1208.1 27.4489 Q1208.1 19.9142 1211.87 15.4583 Q1215.63 11.0023 1222.03 11.0023 Z" fill="#000000" fill-rule="nonzero" fill-opacity="1" /><path clip-path="url(#clip560)" d="M1362.16 16.7545 L1362.16 25.383 Q1358.02 21.5346 1353.32 19.6307 Q1348.67 17.7268 1343.4 17.7268 Q1333.03 17.7268 1327.52 24.0867 Q1322.01 30.4061 1322.01 42.3968 Q1322.01 54.3469 1327.52 60.7069 Q1333.03 67.0263 1343.4 67.0263 Q1348.67 67.0263 1353.32 65.1223 Q1358.02 63.2184 1362.16 59.3701 L1362.16 67.9175 Q1357.86 70.8341 1353.04 72.2924 Q1348.26 73.7508 1342.91 73.7508 Q1329.18 73.7508 1321.28 65.3654 Q1313.38 56.9395 1313.38 42.3968 Q1313.38 27.8135 1321.28 19.4281 Q1329.18 11.0023 1342.91 11.0023 Q1348.34 11.0023 1353.12 12.4606 Q1357.94 13.8784 1362.16 16.7545 Z" fill="#000000" fill-rule="nonzero" fill-opacity="1" /><path clip-path="url(#clip560)" d="M1374.79 12.096 L1382.98 12.096 L1382.98 72.576 L1374.79 72.576 L1374.79 12.096 Z" fill="#000000" fill-rule="nonzero" fill-opacity="1" /><path clip-path="url(#clip560)" d="M1427.86 28.5427 L1427.86 35.5912 Q1424.7 33.9709 1421.3 33.1607 Q1417.9 32.3505 1414.25 32.3505 Q1408.7 32.3505 1405.9 34.0519 Q1403.15 35.7533 1403.15 39.156 Q1403.15 41.7486 1405.14 43.2475 Q1407.12 44.7058 1413.12 46.0426 L1415.67 46.6097 Q1423.61 48.3111 1426.93 51.4303 Q1430.29 54.509 1430.29 60.0587 Q1430.29 66.3781 1425.27 70.0644 Q1420.29 73.7508 1411.54 73.7508 Q1407.89 73.7508 1403.92 73.0216 Q1399.99 72.3329 1395.62 70.9151 L1395.62 63.2184 Q1399.75 65.3654 1403.76 66.4591 Q1407.77 67.5124 1411.7 67.5124 Q1416.96 67.5124 1419.8 65.73 Q1422.64 63.9071 1422.64 60.6258 Q1422.64 57.5877 1420.57 55.9673 Q1418.54 54.3469 1411.62 52.8481 L1409.02 52.2405 Q1402.1 50.7821 1399.02 47.7845 Q1395.94 44.7463 1395.94 39.4801 Q1395.94 33.0797 1400.48 29.5959 Q1405.01 26.1121 1413.36 26.1121 Q1417.49 26.1121 1421.14 26.7198 Q1424.78 27.3274 1427.86 28.5427 Z" fill="#000000" fill-rule="nonzero" fill-opacity="1" /><path clip-path="url(#clip560)" d="M1464.76 46.9338 L1539.63 46.9338 L1539.63 52.7671 L1464.76 52.7671 L1464.76 46.9338 Z" fill="#000000" fill-rule="nonzero" fill-opacity="1" /><path clip-path="url(#clip560)" d="M1578.19 12.096 L1612.95 12.096 L1612.95 18.9825 L1586.37 18.9825 L1586.37 36.8065 L1610.35 36.8065 L1610.35 43.6931 L1586.37 43.6931 L1586.37 72.576 L1578.19 72.576 L1578.19 12.096 Z" fill="#000000" fill-rule="nonzero" fill-opacity="1" /><path clip-path="url(#clip560)" d="M1619.55 27.2059 L1627 27.2059 L1627 72.576 L1619.55 72.576 L1619.55 27.2059 M1619.55 9.54393 L1627 9.54393 L1627 18.9825 L1619.55 18.9825 L1619.55 9.54393 Z" fill="#000000" fill-rule="nonzero" fill-opacity="1" /><path clip-path="url(#clip560)" d="M1649.97 14.324 L1649.97 27.2059 L1665.32 27.2059 L1665.32 32.9987 L1649.97 32.9987 L1649.97 57.6282 Q1649.97 63.1779 1651.47 64.7578 Q1653.01 66.3376 1657.67 66.3376 L1665.32 66.3376 L1665.32 72.576 L1657.67 72.576 Q1649.04 72.576 1645.76 69.3758 Q1642.48 66.1351 1642.48 57.6282 L1642.48 32.9987 L1637.01 32.9987 L1637.01 27.2059 L1642.48 27.2059 L1642.48 14.324 L1649.97 14.324 Z" fill="#000000" fill-rule="nonzero" fill-opacity="1" /><path clip-path="url(#clip560)" d="M1682.5 14.324 L1682.5 27.2059 L1697.85 27.2059 L1697.85 32.9987 L1682.5 32.9987 L1682.5 57.6282 Q1682.5 63.1779 1684 64.7578 Q1685.54 66.3376 1690.2 66.3376 L1697.85 66.3376 L1697.85 72.576 L1690.2 72.576 Q1681.57 72.576 1678.29 69.3758 Q1675.01 66.1351 1675.01 57.6282 L1675.01 32.9987 L1669.54 32.9987 L1669.54 27.2059 L1675.01 27.2059 L1675.01 14.324 L1682.5 14.324 Z" fill="#000000" fill-rule="nonzero" fill-opacity="1" /><path clip-path="url(#clip560)" d="M1746.46 48.0275 L1746.46 51.6733 L1712.19 51.6733 Q1712.68 59.3701 1716.81 63.421 Q1720.98 67.4314 1728.4 67.4314 Q1732.69 67.4314 1736.7 66.3781 Q1740.75 65.3249 1744.72 63.2184 L1744.72 70.267 Q1740.71 71.9684 1736.5 72.8596 Q1732.29 73.7508 1727.95 73.7508 Q1717.1 73.7508 1710.74 67.4314 Q1704.42 61.1119 1704.42 50.3365 Q1704.42 39.1965 1710.41 32.6746 Q1716.45 26.1121 1726.66 26.1121 Q1735.81 26.1121 1741.12 32.0264 Q1746.46 37.9003 1746.46 48.0275 M1739.01 45.84 Q1738.93 39.7232 1735.57 36.0774 Q1732.25 32.4315 1726.74 32.4315 Q1720.5 32.4315 1716.73 35.9558 Q1713 39.4801 1712.44 45.8805 L1739.01 45.84 Z" fill="#000000" fill-rule="nonzero" fill-opacity="1" /><path clip-path="url(#clip560)" d="M1788.55 34.0924 L1788.55 9.54393 L1796.01 9.54393 L1796.01 72.576 L1788.55 72.576 L1788.55 65.7705 Q1786.2 69.8214 1782.6 71.8063 Q1779.03 73.7508 1774.01 73.7508 Q1765.79 73.7508 1760.6 67.1883 Q1755.46 60.6258 1755.46 49.9314 Q1755.46 39.2371 1760.6 32.6746 Q1765.79 26.1121 1774.01 26.1121 Q1779.03 26.1121 1782.6 28.0971 Q1786.2 30.0415 1788.55 34.0924 M1763.15 49.9314 Q1763.15 58.1548 1766.52 62.8538 Q1769.92 67.5124 1775.83 67.5124 Q1781.75 67.5124 1785.15 62.8538 Q1788.55 58.1548 1788.55 49.9314 Q1788.55 41.7081 1785.15 37.0496 Q1781.75 32.3505 1775.83 32.3505 Q1769.92 32.3505 1766.52 37.0496 Q1763.15 41.7081 1763.15 49.9314 Z" fill="#000000" fill-rule="nonzero" fill-opacity="1" /><path clip-path="url(#clip560)" d="M1829.67 12.096 L1880.83 12.096 L1880.83 18.9825 L1859.36 18.9825 L1859.36 72.576 L1851.14 72.576 L1851.14 18.9825 L1829.67 18.9825 L1829.67 12.096 Z" fill="#000000" fill-rule="nonzero" fill-opacity="1" /><path clip-path="url(#clip560)" d="M1902.51 34.1734 Q1901.25 33.4443 1899.75 33.1202 Q1898.29 32.7556 1896.51 32.7556 Q1890.19 32.7556 1886.79 36.8875 Q1883.43 40.9789 1883.43 48.6757 L1883.43 72.576 L1875.93 72.576 L1875.93 27.2059 L1883.43 27.2059 L1883.43 34.2544 Q1885.78 30.1225 1889.54 28.1376 Q1893.31 26.1121 1898.7 26.1121 Q1899.47 26.1121 1900.4 26.2337 Q1901.33 26.3147 1902.46 26.5172 L1902.51 34.1734 Z" fill="#000000" fill-rule="nonzero" fill-opacity="1" /><path clip-path="url(#clip560)" d="M1930.94 49.7694 Q1921.91 49.7694 1918.43 51.8354 Q1914.94 53.9013 1914.94 58.8839 Q1914.94 62.8538 1917.53 65.2034 Q1920.17 67.5124 1924.66 67.5124 Q1930.86 67.5124 1934.59 63.1374 Q1938.36 58.7219 1938.36 51.4303 L1938.36 49.7694 L1930.94 49.7694 M1945.81 46.6907 L1945.81 72.576 L1938.36 72.576 L1938.36 65.6895 Q1935.8 69.8214 1932 71.8063 Q1928.19 73.7508 1922.68 73.7508 Q1915.71 73.7508 1911.58 69.8619 Q1907.49 65.9325 1907.49 59.3701 Q1907.49 51.7138 1912.59 47.825 Q1917.74 43.9361 1927.9 43.9361 L1938.36 43.9361 L1938.36 43.2069 Q1938.36 38.0623 1934.95 35.2672 Q1931.59 32.4315 1925.47 32.4315 Q1921.59 32.4315 1917.9 33.3632 Q1914.21 34.295 1910.81 36.1584 L1910.81 29.2718 Q1914.9 27.692 1918.75 26.9223 Q1922.6 26.1121 1926.24 26.1121 Q1936.09 26.1121 1940.95 31.2163 Q1945.81 36.3204 1945.81 46.6907 Z" fill="#000000" fill-rule="nonzero" fill-opacity="1" /><path clip-path="url(#clip560)" d="M1961.16 27.2059 L1968.62 27.2059 L1968.62 73.3862 Q1968.62 82.0551 1965.29 85.944 Q1962.01 89.8329 1954.68 89.8329 L1951.85 89.8329 L1951.85 83.5134 L1953.83 83.5134 Q1958.08 83.5134 1959.62 81.5285 Q1961.16 79.5841 1961.16 73.3862 L1961.16 27.2059 M1961.16 9.54393 L1968.62 9.54393 L1968.62 18.9825 L1961.16 18.9825 L1961.16 9.54393 Z" fill="#000000" fill-rule="nonzero" fill-opacity="1" /><path clip-path="url(#clip560)" d="M2023.02 48.0275 L2023.02 51.6733 L1988.75 51.6733 Q1989.24 59.3701 1993.37 63.421 Q1997.54 67.4314 2004.95 67.4314 Q2009.25 67.4314 2013.26 66.3781 Q2017.31 65.3249 2021.28 63.2184 L2021.28 70.267 Q2017.27 71.9684 2013.05 72.8596 Q2008.84 73.7508 2004.51 73.7508 Q1993.65 73.7508 1987.29 67.4314 Q1980.97 61.1119 1980.97 50.3365 Q1980.97 39.1965 1986.97 32.6746 Q1993 26.1121 2003.21 26.1121 Q2012.37 26.1121 2017.67 32.0264 Q2023.02 37.9003 2023.02 48.0275 M2015.57 45.84 Q2015.49 39.7232 2012.12 36.0774 Q2008.8 32.4315 2003.29 32.4315 Q1997.05 32.4315 1993.29 35.9558 Q1989.56 39.4801 1988.99 45.8805 L2015.57 45.84 Z" fill="#000000" fill-rule="nonzero" fill-opacity="1" /><path clip-path="url(#clip560)" d="M2067.9 28.9478 L2067.9 35.9153 Q2064.74 34.1734 2061.54 33.3227 Q2058.38 32.4315 2055.14 32.4315 Q2047.89 32.4315 2043.88 37.0496 Q2039.87 41.6271 2039.87 49.9314 Q2039.87 58.2358 2043.88 62.8538 Q2047.89 67.4314 2055.14 67.4314 Q2058.38 67.4314 2061.54 66.5807 Q2064.74 65.6895 2067.9 63.9476 L2067.9 70.8341 Q2064.78 72.2924 2061.42 73.0216 Q2058.1 73.7508 2054.33 73.7508 Q2044.08 73.7508 2038.05 67.3098 Q2032.01 60.8689 2032.01 49.9314 Q2032.01 38.832 2038.09 32.472 Q2044.21 26.1121 2054.82 26.1121 Q2058.26 26.1121 2061.54 26.8413 Q2064.83 27.5299 2067.9 28.9478 Z" fill="#000000" fill-rule="nonzero" fill-opacity="1" /><path clip-path="url(#clip560)" d="M2088.24 14.324 L2088.24 27.2059 L2103.59 27.2059 L2103.59 32.9987 L2088.24 32.9987 L2088.24 57.6282 Q2088.24 63.1779 2089.74 64.7578 Q2091.28 66.3376 2095.94 66.3376 L2103.59 66.3376 L2103.59 72.576 L2095.94 72.576 Q2087.31 72.576 2084.03 69.3758 Q2080.75 66.1351 2080.75 57.6282 L2080.75 32.9987 L2075.28 32.9987 L2075.28 27.2059 L2080.75 27.2059 L2080.75 14.324 L2088.24 14.324 Z" fill="#000000" fill-rule="nonzero" fill-opacity="1" /><path clip-path="url(#clip560)" d="M2130.98 32.4315 Q2124.98 32.4315 2121.5 37.1306 Q2118.01 41.7891 2118.01 49.9314 Q2118.01 58.0738 2121.46 62.7728 Q2124.94 67.4314 2130.98 67.4314 Q2136.93 67.4314 2140.41 62.7323 Q2143.9 58.0333 2143.9 49.9314 Q2143.9 41.8701 2140.41 37.1711 Q2136.93 32.4315 2130.98 32.4315 M2130.98 26.1121 Q2140.7 26.1121 2146.25 32.4315 Q2151.8 38.7509 2151.8 49.9314 Q2151.8 61.0714 2146.25 67.4314 Q2140.7 73.7508 2130.98 73.7508 Q2121.21 73.7508 2115.66 67.4314 Q2110.15 61.0714 2110.15 49.9314 Q2110.15 38.7509 2115.66 32.4315 Q2121.21 26.1121 2130.98 26.1121 Z" fill="#000000" fill-rule="nonzero" fill-opacity="1" /><path clip-path="url(#clip560)" d="M2190.44 34.1734 Q2189.19 33.4443 2187.69 33.1202 Q2186.23 32.7556 2184.45 32.7556 Q2178.13 32.7556 2174.73 36.8875 Q2171.36 40.9789 2171.36 48.6757 L2171.36 72.576 L2163.87 72.576 L2163.87 27.2059 L2171.36 27.2059 L2171.36 34.2544 Q2173.71 30.1225 2177.48 28.1376 Q2181.25 26.1121 2186.64 26.1121 Q2187.41 26.1121 2188.34 26.2337 Q2189.27 26.3147 2190.4 26.5172 L2190.44 34.1734 Z" fill="#000000" fill-rule="nonzero" fill-opacity="1" /><path clip-path="url(#clip560)" d="M2217.14 76.7889 Q2213.98 84.8907 2210.98 87.3618 Q2207.98 89.8329 2202.96 89.8329 L2197.01 89.8329 L2197.01 83.5945 L2201.38 83.5945 Q2204.46 83.5945 2206.16 82.1361 Q2207.86 80.6778 2209.93 75.2496 L2211.27 71.8468 L2192.91 27.2059 L2200.81 27.2059 L2214.99 62.6918 L2229.17 27.2059 L2237.07 27.2059 L2217.14 76.7889 Z" fill="#000000" fill-rule="nonzero" fill-opacity="1" /><polyline clip-path="url(#clip561)" style="stroke:#000000; stroke-linecap:round; stroke-linejoin:round; stroke-width:8; stroke-opacity:1; fill:none" stroke-dasharray="32, 20" points="338.767,1688.65 384.378,1614.94 429.989,1497.05 475.6,1339.42 521.211,1162.62 566.822,989.449 612.433,834.377 658.044,703.052 703.655,595.644 749.266,509.736 794.878,442.033 840.489,389.212 886.1,348.291 931.711,316.748 977.322,292.522 1022.93,273.964 1068.54,259.777 1114.15,248.947 1159.77,240.688 1205.38,234.395 1250.99,229.604 1296.6,225.957 1342.21,223.182 1387.82,221.072 1433.43,219.467 1479.04,218.247 1524.65,217.319 1570.27,216.613 1615.88,216.077 1661.49,215.67 1707.1,215.36 1752.71,215.124 1798.32,214.945 1843.93,214.809 1889.54,214.706 1935.15,214.628 1980.76,214.568 2026.38,214.522 2071.99,214.488 2117.6,214.462 2163.21,214.442 2208.82,214.427 2254.43,214.415 2300.04,214.406 2345.65,214.4 2391.26,214.395 2436.87,214.391 2482.49,214.388 2528.1,214.386 2573.71,214.384 "/>
<path clip-path="url(#clip561)" d="M338.767 1688.65 L384.378 1520.84 L429.989 1364.38 L475.6 1218.51 L521.211 1082.64 L566.822 956.512 L612.433 840.357 L658.044 735.349 L703.655 641.996 L749.266 560.672 L794.878 491.068 L840.489 432.547 L886.1 385.021 L931.711 349.121 L977.322 321.018 L1022.93 298.85 L1068.54 281.248 L1114.15 267.354 L1159.77 256.348 L1205.38 247.926 L1250.99 242.261 L1296.6 237.914 L1342.21 234.581 L1387.82 231.803 L1433.43 229.517 L1479.04 227.884 L1524.65 226.634 L1570.27 225.677 L1615.88 224.944 L1661.49 224.383 L1707.1 223.953 L1752.71 223.624 L1798.32 223.372 L1843.93 223.18 L1889.54 223.032 L1935.15 222.919 L1980.76 222.832 L2026.38 222.766 L2071.99 222.715 L2117.6 222.676 L2163.21 222.646 L2208.82 222.623 L2254.43 222.606 L2300.04 222.592 L2345.65 222.582 L2391.26 222.574 L2436.87 222.568 L2482.49 222.563 L2528.1 222.56 L2573.71 222.557 L2573.71 194.102 L2528.1 194.104 L2482.49 194.107 L2436.87 194.111 L2391.26 194.115 L2345.65 194.121 L2300.04 194.129 L2254.43 194.14 L2208.82 194.154 L2163.21 194.172 L2117.6 194.197 L2071.99 194.229 L2026.38 194.271 L1980.76 194.327 L1935.15 194.401 L1889.54 194.499 L1843.93 194.627 L1798.32 194.797 L1752.71 195.021 L1707.1 195.316 L1661.49 195.705 L1615.88 196.218 L1570.27 196.895 L1524.65 197.787 L1479.04 198.964 L1433.43 200.513 L1387.82 202.554 L1342.21 205.241 L1296.6 208.774 L1250.99 213.416 L1205.38 218.743 L1159.77 225.458 L1114.15 234.17 L1068.54 245.923 L1022.93 261.721 L977.322 282.772 L931.711 310.547 L886.1 347.247 L840.489 392.87 L794.878 450.028 L749.266 515.632 L703.655 594.001 L658.044 686.693 L612.433 792.76 L566.822 912.197 L521.211 1045.54 L475.6 1189.99 L429.989 1345.35 L384.378 1511.52 L338.767 1688.65  Z" fill="#ff0000" fill-rule="evenodd" fill-opacity="0.25"/>
<polyline clip-path="url(#clip561)" style="stroke:#ff0000; stroke-linecap:round; stroke-linejoin:round; stroke-width:4; stroke-opacity:1; fill:none" points="338.767,1688.65 384.378,1520.84 429.989,1364.38 475.6,1218.51 521.211,1082.64 566.822,956.512 612.433,840.357 658.044,735.349 703.655,641.996 749.266,560.672 794.878,491.068 840.489,432.547 886.1,385.021 931.711,349.121 977.322,321.018 1022.93,298.85 1068.54,281.248 1114.15,267.354 1159.77,256.348 1205.38,247.926 1250.99,242.261 1296.6,237.914 1342.21,234.581 1387.82,231.803 1433.43,229.517 1479.04,227.884 1524.65,226.634 1570.27,225.677 1615.88,224.944 1661.49,224.383 1707.1,223.953 1752.71,223.624 1798.32,223.372 1843.93,223.18 1889.54,223.032 1935.15,222.919 1980.76,222.832 2026.38,222.766 2071.99,222.715 2117.6,222.676 2163.21,222.646 2208.82,222.623 2254.43,222.606 2300.04,222.592 2345.65,222.582 2391.26,222.574 2436.87,222.568 2482.49,222.563 2528.1,222.56 2573.71,222.557 "/>
<polyline clip-path="url(#clip561)" style="stroke:#ff0000; stroke-linecap:round; stroke-linejoin:round; stroke-width:8; stroke-opacity:1; fill:none" points="338.767,1688.65 384.378,1519.52 429.989,1361.56 475.6,1214.03 521.211,1076.25 566.822,947.575 612.433,827.478 658.044,716.509 703.655,616.5 749.266,529.637 794.878,457.16 840.489,398.653 886.1,352.621 931.711,317.103 977.322,290.093 1022.93,269.771 1068.54,254.6 1114.15,243.34 1159.77,235.015 1205.38,228.88 1250.99,224.367 1296.6,221.053 1342.21,218.622 1387.82,216.84 1433.43,215.535 1479.04,214.579 1524.65,213.879 1570.27,213.367 1615.88,212.993 1661.49,212.718 1707.1,212.518 1752.71,212.371 1798.32,212.264 1843.93,212.186 1889.54,212.128 1935.15,212.086 1980.76,212.055 2026.38,212.033 2071.99,212.017 2117.6,212.005 2163.21,211.996 2208.82,211.989 2254.43,211.985 2300.04,211.981 2345.65,211.979 2391.26,211.977 2436.87,211.975 2482.49,211.975 2528.1,211.974 2573.71,211.973 "/>
<circle clip-path="url(#clip561)" cx="338.767" cy="1683.61" r="10.8" fill="#808080" fill-rule="evenodd" fill-opacity="0.5" stroke="#000000" stroke-opacity="0.5" stroke-width="3.84"/>
<circle clip-path="url(#clip561)" cx="384.378" cy="1620.37" r="10.8" fill="#808080" fill-rule="evenodd" fill-opacity="0.5" stroke="#000000" stroke-opacity="0.5" stroke-width="3.84"/>
<circle clip-path="url(#clip561)" cx="429.989" cy="1488.85" r="10.8" fill="#808080" fill-rule="evenodd" fill-opacity="0.5" stroke="#000000" stroke-opacity="0.5" stroke-width="3.84"/>
<circle clip-path="url(#clip561)" cx="475.6" cy="1338.32" r="10.8" fill="#808080" fill-rule="evenodd" fill-opacity="0.5" stroke="#000000" stroke-opacity="0.5" stroke-width="3.84"/>
<circle clip-path="url(#clip561)" cx="521.211" cy="1181.58" r="10.8" fill="#808080" fill-rule="evenodd" fill-opacity="0.5" stroke="#000000" stroke-opacity="0.5" stroke-width="3.84"/>
<circle clip-path="url(#clip561)" cx="566.822" cy="989.538" r="10.8" fill="#808080" fill-rule="evenodd" fill-opacity="0.5" stroke="#000000" stroke-opacity="0.5" stroke-width="3.84"/>
<circle clip-path="url(#clip561)" cx="612.433" cy="792.838" r="10.8" fill="#808080" fill-rule="evenodd" fill-opacity="0.5" stroke="#000000" stroke-opacity="0.5" stroke-width="3.84"/>
<circle clip-path="url(#clip561)" cx="658.044" cy="692.743" r="10.8" fill="#808080" fill-rule="evenodd" fill-opacity="0.5" stroke="#000000" stroke-opacity="0.5" stroke-width="3.84"/>
<circle clip-path="url(#clip561)" cx="703.655" cy="631.832" r="10.8" fill="#808080" fill-rule="evenodd" fill-opacity="0.5" stroke="#000000" stroke-opacity="0.5" stroke-width="3.84"/>
<circle clip-path="url(#clip561)" cx="749.266" cy="508.846" r="10.8" fill="#808080" fill-rule="evenodd" fill-opacity="0.5" stroke="#000000" stroke-opacity="0.5" stroke-width="3.84"/>
<circle clip-path="url(#clip561)" cx="794.878" cy="423.493" r="10.8" fill="#808080" fill-rule="evenodd" fill-opacity="0.5" stroke="#000000" stroke-opacity="0.5" stroke-width="3.84"/>
<circle clip-path="url(#clip561)" cx="840.489" cy="347.452" r="10.8" fill="#808080" fill-rule="evenodd" fill-opacity="0.5" stroke="#000000" stroke-opacity="0.5" stroke-width="3.84"/>
<circle clip-path="url(#clip561)" cx="886.1" cy="312.922" r="10.8" fill="#808080" fill-rule="evenodd" fill-opacity="0.5" stroke="#000000" stroke-opacity="0.5" stroke-width="3.84"/>
<circle clip-path="url(#clip561)" cx="931.711" cy="319.906" r="10.8" fill="#808080" fill-rule="evenodd" fill-opacity="0.5" stroke="#000000" stroke-opacity="0.5" stroke-width="3.84"/>
<circle clip-path="url(#clip561)" cx="977.322" cy="252.787" r="10.8" fill="#808080" fill-rule="evenodd" fill-opacity="0.5" stroke="#000000" stroke-opacity="0.5" stroke-width="3.84"/>
<circle clip-path="url(#clip561)" cx="1022.93" cy="300.895" r="10.8" fill="#808080" fill-rule="evenodd" fill-opacity="0.5" stroke="#000000" stroke-opacity="0.5" stroke-width="3.84"/>
<circle clip-path="url(#clip561)" cx="1068.54" cy="267.142" r="10.8" fill="#808080" fill-rule="evenodd" fill-opacity="0.5" stroke="#000000" stroke-opacity="0.5" stroke-width="3.84"/>
<circle clip-path="url(#clip561)" cx="1114.15" cy="230.673" r="10.8" fill="#808080" fill-rule="evenodd" fill-opacity="0.5" stroke="#000000" stroke-opacity="0.5" stroke-width="3.84"/>
<circle clip-path="url(#clip561)" cx="1159.77" cy="253.175" r="10.8" fill="#808080" fill-rule="evenodd" fill-opacity="0.5" stroke="#000000" stroke-opacity="0.5" stroke-width="3.84"/>
<circle clip-path="url(#clip561)" cx="1205.38" cy="184.117" r="10.8" fill="#808080" fill-rule="evenodd" fill-opacity="0.5" stroke="#000000" stroke-opacity="0.5" stroke-width="3.84"/>
<circle clip-path="url(#clip561)" cx="1250.99" cy="246.58" r="10.8" fill="#808080" fill-rule="evenodd" fill-opacity="0.5" stroke="#000000" stroke-opacity="0.5" stroke-width="3.84"/>
<circle clip-path="url(#clip561)" cx="1296.6" cy="222.526" r="10.8" fill="#808080" fill-rule="evenodd" fill-opacity="0.5" stroke="#000000" stroke-opacity="0.5" stroke-width="3.84"/>
<circle clip-path="url(#clip561)" cx="1342.21" cy="192.653" r="10.8" fill="#808080" fill-rule="evenodd" fill-opacity="0.5" stroke="#000000" stroke-opacity="0.5" stroke-width="3.84"/>
<circle clip-path="url(#clip561)" cx="1387.82" cy="205.455" r="10.8" fill="#808080" fill-rule="evenodd" fill-opacity="0.5" stroke="#000000" stroke-opacity="0.5" stroke-width="3.84"/>
<circle clip-path="url(#clip561)" cx="1433.43" cy="185.281" r="10.8" fill="#808080" fill-rule="evenodd" fill-opacity="0.5" stroke="#000000" stroke-opacity="0.5" stroke-width="3.84"/>
<circle clip-path="url(#clip561)" cx="1479.04" cy="279.169" r="10.8" fill="#808080" fill-rule="evenodd" fill-opacity="0.5" stroke="#000000" stroke-opacity="0.5" stroke-width="3.84"/>
<circle clip-path="url(#clip561)" cx="1524.65" cy="220.974" r="10.8" fill="#808080" fill-rule="evenodd" fill-opacity="0.5" stroke="#000000" stroke-opacity="0.5" stroke-width="3.84"/>
<circle clip-path="url(#clip561)" cx="1570.27" cy="242.312" r="10.8" fill="#808080" fill-rule="evenodd" fill-opacity="0.5" stroke="#000000" stroke-opacity="0.5" stroke-width="3.84"/>
<circle clip-path="url(#clip561)" cx="1615.88" cy="173.254" r="10.8" fill="#808080" fill-rule="evenodd" fill-opacity="0.5" stroke="#000000" stroke-opacity="0.5" stroke-width="3.84"/>
<circle clip-path="url(#clip561)" cx="1661.49" cy="204.292" r="10.8" fill="#808080" fill-rule="evenodd" fill-opacity="0.5" stroke="#000000" stroke-opacity="0.5" stroke-width="3.84"/>
<circle clip-path="url(#clip561)" cx="1707.1" cy="177.134" r="10.8" fill="#808080" fill-rule="evenodd" fill-opacity="0.5" stroke="#000000" stroke-opacity="0.5" stroke-width="3.84"/>
<circle clip-path="url(#clip561)" cx="1752.71" cy="239.597" r="10.8" fill="#808080" fill-rule="evenodd" fill-opacity="0.5" stroke="#000000" stroke-opacity="0.5" stroke-width="3.84"/>
<circle clip-path="url(#clip561)" cx="1798.32" cy="265.59" r="10.8" fill="#808080" fill-rule="evenodd" fill-opacity="0.5" stroke="#000000" stroke-opacity="0.5" stroke-width="3.84"/>
<circle clip-path="url(#clip561)" cx="1843.93" cy="215.543" r="10.8" fill="#808080" fill-rule="evenodd" fill-opacity="0.5" stroke="#000000" stroke-opacity="0.5" stroke-width="3.84"/>
<circle clip-path="url(#clip561)" cx="1889.54" cy="202.352" r="10.8" fill="#808080" fill-rule="evenodd" fill-opacity="0.5" stroke="#000000" stroke-opacity="0.5" stroke-width="3.84"/>
<circle clip-path="url(#clip561)" cx="1935.15" cy="206.619" r="10.8" fill="#808080" fill-rule="evenodd" fill-opacity="0.5" stroke="#000000" stroke-opacity="0.5" stroke-width="3.84"/>
<circle clip-path="url(#clip561)" cx="1980.76" cy="190.713" r="10.8" fill="#808080" fill-rule="evenodd" fill-opacity="0.5" stroke="#000000" stroke-opacity="0.5" stroke-width="3.84"/>
<circle clip-path="url(#clip561)" cx="2026.38" cy="265.978" r="10.8" fill="#808080" fill-rule="evenodd" fill-opacity="0.5" stroke="#000000" stroke-opacity="0.5" stroke-width="3.84"/>
<circle clip-path="url(#clip561)" cx="2071.99" cy="252.4" r="10.8" fill="#808080" fill-rule="evenodd" fill-opacity="0.5" stroke="#000000" stroke-opacity="0.5" stroke-width="3.84"/>
<circle clip-path="url(#clip561)" cx="2117.6" cy="187.997" r="10.8" fill="#808080" fill-rule="evenodd" fill-opacity="0.5" stroke="#000000" stroke-opacity="0.5" stroke-width="3.84"/>
<circle clip-path="url(#clip561)" cx="2163.21" cy="234.941" r="10.8" fill="#808080" fill-rule="evenodd" fill-opacity="0.5" stroke="#000000" stroke-opacity="0.5" stroke-width="3.84"/>
<circle clip-path="url(#clip561)" cx="2208.82" cy="216.319" r="10.8" fill="#808080" fill-rule="evenodd" fill-opacity="0.5" stroke="#000000" stroke-opacity="0.5" stroke-width="3.84"/>
<circle clip-path="url(#clip561)" cx="2254.43" cy="247.744" r="10.8" fill="#808080" fill-rule="evenodd" fill-opacity="0.5" stroke="#000000" stroke-opacity="0.5" stroke-width="3.84"/>
<circle clip-path="url(#clip561)" cx="2300.04" cy="216.319" r="10.8" fill="#808080" fill-rule="evenodd" fill-opacity="0.5" stroke="#000000" stroke-opacity="0.5" stroke-width="3.84"/>
<circle clip-path="url(#clip561)" cx="2345.65" cy="203.128" r="10.8" fill="#808080" fill-rule="evenodd" fill-opacity="0.5" stroke="#000000" stroke-opacity="0.5" stroke-width="3.84"/>
<circle clip-path="url(#clip561)" cx="2391.26" cy="206.231" r="10.8" fill="#808080" fill-rule="evenodd" fill-opacity="0.5" stroke="#000000" stroke-opacity="0.5" stroke-width="3.84"/>
<circle clip-path="url(#clip561)" cx="2436.87" cy="203.128" r="10.8" fill="#808080" fill-rule="evenodd" fill-opacity="0.5" stroke="#000000" stroke-opacity="0.5" stroke-width="3.84"/>
<circle clip-path="url(#clip561)" cx="2482.49" cy="184.505" r="10.8" fill="#808080" fill-rule="evenodd" fill-opacity="0.5" stroke="#000000" stroke-opacity="0.5" stroke-width="3.84"/>
<circle clip-path="url(#clip561)" cx="2528.1" cy="179.85" r="10.8" fill="#808080" fill-rule="evenodd" fill-opacity="0.5" stroke="#000000" stroke-opacity="0.5" stroke-width="3.84"/>
<circle clip-path="url(#clip561)" cx="2573.71" cy="211.275" r="10.8" fill="#808080" fill-rule="evenodd" fill-opacity="0.5" stroke="#000000" stroke-opacity="0.5" stroke-width="3.84"/>
<path clip-path="url(#clip560)" d="M1990.67 1680.57 L2561.79 1680.57 L2561.79 1421.37 L1990.67 1421.37  Z" fill="#ffffff" fill-rule="evenodd" fill-opacity="1"/>
<polyline clip-path="url(#clip560)" style="stroke:#000000; stroke-linecap:round; stroke-linejoin:round; stroke-width:4; stroke-opacity:1; fill:none" points="1990.67,1680.57 2561.79,1680.57 2561.79,1421.37 1990.67,1421.37 1990.67,1680.57 "/>
<polyline clip-path="url(#clip560)" style="stroke:#000000; stroke-linecap:round; stroke-linejoin:round; stroke-width:8; stroke-opacity:1; fill:none" stroke-dasharray="32, 20" points="2017,1473.21 2174.93,1473.21 "/>
<path clip-path="url(#clip560)" d="M2201.25 1455.93 L2230.49 1455.93 L2230.49 1459.87 L2218.22 1459.87 L2218.22 1490.49 L2213.52 1490.49 L2213.52 1459.87 L2201.25 1459.87 L2201.25 1455.93 Z" fill="#000000" fill-rule="nonzero" fill-opacity="1" /><path clip-path="url(#clip560)" d="M2242.87 1468.55 Q2242.16 1468.13 2241.3 1467.95 Q2240.47 1467.74 2239.45 1467.74 Q2235.84 1467.74 2233.89 1470.1 Q2231.97 1472.44 2231.97 1476.84 L2231.97 1490.49 L2227.69 1490.49 L2227.69 1464.57 L2231.97 1464.57 L2231.97 1468.59 Q2233.31 1466.23 2235.47 1465.1 Q2237.62 1463.94 2240.7 1463.94 Q2241.14 1463.94 2241.67 1464.01 Q2242.2 1464.06 2242.85 1464.17 L2242.87 1468.55 Z" fill="#000000" fill-rule="nonzero" fill-opacity="1" /><path clip-path="url(#clip560)" d="M2246.9 1480.26 L2246.9 1464.57 L2251.16 1464.57 L2251.16 1480.1 Q2251.16 1483.78 2252.6 1485.63 Q2254.03 1487.46 2256.9 1487.46 Q2260.35 1487.46 2262.34 1485.26 Q2264.36 1483.06 2264.36 1479.27 L2264.36 1464.57 L2268.61 1464.57 L2268.61 1490.49 L2264.36 1490.49 L2264.36 1486.51 Q2262.8 1488.87 2260.74 1490.03 Q2258.71 1491.16 2256 1491.16 Q2251.53 1491.16 2249.22 1488.39 Q2246.9 1485.61 2246.9 1480.26 M2257.62 1463.94 L2257.62 1463.94 Z" fill="#000000" fill-rule="nonzero" fill-opacity="1" /><path clip-path="url(#clip560)" d="M2299.56 1476.47 L2299.56 1478.55 L2279.98 1478.55 Q2280.26 1482.95 2282.62 1485.26 Q2285 1487.55 2289.24 1487.55 Q2291.69 1487.55 2293.99 1486.95 Q2296.3 1486.35 2298.57 1485.15 L2298.57 1489.17 Q2296.28 1490.15 2293.87 1490.65 Q2291.46 1491.16 2288.99 1491.16 Q2282.78 1491.16 2279.15 1487.55 Q2275.54 1483.94 2275.54 1477.78 Q2275.54 1471.42 2278.96 1467.69 Q2282.41 1463.94 2288.24 1463.94 Q2293.48 1463.94 2296.51 1467.32 Q2299.56 1470.68 2299.56 1476.47 M2295.3 1475.22 Q2295.26 1471.72 2293.34 1469.64 Q2291.44 1467.55 2288.29 1467.55 Q2284.73 1467.55 2282.57 1469.57 Q2280.44 1471.58 2280.12 1475.24 L2295.3 1475.22 Z" fill="#000000" fill-rule="nonzero" fill-opacity="1" /><path clip-path="url(#clip560)" d="M2017 1545.79 L2174.93 1545.79 L2174.93 1504.32 L2017 1504.32 L2017 1545.79  Z" fill="#ff0000" fill-rule="evenodd" fill-opacity="0.25"/>
<polyline clip-path="url(#clip560)" style="stroke:#ff0000; stroke-linecap:round; stroke-linejoin:round; stroke-width:4; stroke-opacity:1; fill:none" points="2017,1504.32 2174.93,1504.32 "/>
<path clip-path="url(#clip560)" d="M2203.48 1541.62 L2203.48 1537.36 Q2205.24 1538.19 2207.04 1538.63 Q2208.85 1539.07 2210.58 1539.07 Q2215.21 1539.07 2217.64 1535.97 Q2220.1 1532.84 2220.44 1526.5 Q2219.1 1528.49 2217.04 1529.56 Q2214.98 1530.62 2212.48 1530.62 Q2207.3 1530.62 2204.26 1527.49 Q2201.25 1524.35 2201.25 1518.91 Q2201.25 1513.58 2204.4 1510.37 Q2207.55 1507.15 2212.78 1507.15 Q2218.78 1507.15 2221.93 1511.75 Q2225.1 1516.34 2225.1 1525.09 Q2225.1 1533.26 2221.21 1538.14 Q2217.34 1543 2210.79 1543 Q2209.03 1543 2207.23 1542.66 Q2205.42 1542.31 2203.48 1541.62 M2212.78 1526.96 Q2215.93 1526.96 2217.76 1524.81 Q2219.61 1522.66 2219.61 1518.91 Q2219.61 1515.18 2217.76 1513.03 Q2215.93 1510.85 2212.78 1510.85 Q2209.63 1510.85 2207.78 1513.03 Q2205.95 1515.18 2205.95 1518.91 Q2205.95 1522.66 2207.78 1524.81 Q2209.63 1526.96 2212.78 1526.96 Z" fill="#000000" fill-rule="nonzero" fill-opacity="1" /><path clip-path="url(#clip560)" d="M2233.55 1507.77 L2251.9 1507.77 L2251.9 1511.71 L2237.83 1511.71 L2237.83 1520.18 Q2238.85 1519.83 2239.87 1519.67 Q2240.88 1519.49 2241.9 1519.49 Q2247.69 1519.49 2251.07 1522.66 Q2254.45 1525.83 2254.45 1531.24 Q2254.45 1536.82 2250.98 1539.93 Q2247.5 1543 2241.18 1543 Q2239.01 1543 2236.74 1542.63 Q2234.49 1542.26 2232.09 1541.52 L2232.09 1536.82 Q2234.17 1537.96 2236.39 1538.51 Q2238.62 1539.07 2241.09 1539.07 Q2245.1 1539.07 2247.43 1536.96 Q2249.77 1534.86 2249.77 1531.24 Q2249.77 1527.63 2247.43 1525.53 Q2245.1 1523.42 2241.09 1523.42 Q2239.22 1523.42 2237.34 1523.84 Q2235.49 1524.25 2233.55 1525.13 L2233.55 1507.77 Z" fill="#000000" fill-rule="nonzero" fill-opacity="1" /><path clip-path="url(#clip560)" d="M2293.06 1527.12 Q2291.05 1527.12 2289.89 1528.84 Q2288.75 1530.55 2288.75 1533.61 Q2288.75 1536.62 2289.89 1538.35 Q2291.05 1540.06 2293.06 1540.06 Q2295.03 1540.06 2296.16 1538.35 Q2297.32 1536.62 2297.32 1533.61 Q2297.32 1530.57 2296.16 1528.86 Q2295.03 1527.12 2293.06 1527.12 M2293.06 1524.18 Q2296.72 1524.18 2298.87 1526.73 Q2301.02 1529.28 2301.02 1533.61 Q2301.02 1537.93 2298.85 1540.48 Q2296.69 1543 2293.06 1543 Q2289.36 1543 2287.2 1540.48 Q2285.05 1537.93 2285.05 1533.61 Q2285.05 1529.25 2287.2 1526.73 Q2289.38 1524.18 2293.06 1524.18 M2269.17 1510.09 Q2267.18 1510.09 2266.02 1511.82 Q2264.89 1513.54 2264.89 1516.55 Q2264.89 1519.6 2266.02 1521.31 Q2267.16 1523.03 2269.17 1523.03 Q2271.18 1523.03 2272.32 1521.31 Q2273.48 1519.6 2273.48 1516.55 Q2273.48 1513.56 2272.32 1511.82 Q2271.16 1510.09 2269.17 1510.09 M2290.07 1507.15 L2293.78 1507.15 L2272.16 1543 L2268.45 1543 L2290.07 1507.15 M2269.17 1507.15 Q2272.83 1507.15 2275 1509.69 Q2277.18 1512.22 2277.18 1516.55 Q2277.18 1520.92 2275 1523.44 Q2272.85 1525.97 2269.17 1525.97 Q2265.49 1525.97 2263.34 1523.44 Q2261.21 1520.9 2261.21 1516.55 Q2261.21 1512.24 2263.36 1509.69 Q2265.51 1507.15 2269.17 1507.15 Z" fill="#000000" fill-rule="nonzero" fill-opacity="1" /><path clip-path="url(#clip560)" d="M2349.24 1510.43 L2349.24 1515.37 Q2346.88 1513.17 2344.19 1512.08 Q2341.53 1510.99 2338.52 1510.99 Q2332.6 1510.99 2329.45 1514.62 Q2326.3 1518.24 2326.3 1525.09 Q2326.3 1531.92 2329.45 1535.55 Q2332.6 1539.16 2338.52 1539.16 Q2341.53 1539.16 2344.19 1538.07 Q2346.88 1536.99 2349.24 1534.79 L2349.24 1539.67 Q2346.79 1541.34 2344.03 1542.17 Q2341.3 1543 2338.24 1543 Q2330.4 1543 2325.88 1538.21 Q2321.37 1533.4 2321.37 1525.09 Q2321.37 1516.75 2325.88 1511.96 Q2330.4 1507.15 2338.24 1507.15 Q2341.35 1507.15 2344.08 1507.98 Q2346.83 1508.79 2349.24 1510.43 Z" fill="#000000" fill-rule="nonzero" fill-opacity="1" /><path clip-path="url(#clip560)" d="M2356.46 1507.77 L2361.14 1507.77 L2361.14 1542.33 L2356.46 1542.33 L2356.46 1507.77 Z" fill="#000000" fill-rule="nonzero" fill-opacity="1" /><polyline clip-path="url(#clip560)" style="stroke:#ff0000; stroke-linecap:round; stroke-linejoin:round; stroke-width:8; stroke-opacity:1; fill:none" points="2017,1576.89 2174.93,1576.89 "/>
<path clip-path="url(#clip560)" d="M2205.93 1563.46 L2205.93 1576.44 L2211.81 1576.44 Q2215.07 1576.44 2216.86 1574.75 Q2218.64 1573.06 2218.64 1569.94 Q2218.64 1566.84 2216.86 1565.15 Q2215.07 1563.46 2211.81 1563.46 L2205.93 1563.46 M2201.25 1559.61 L2211.81 1559.61 Q2217.62 1559.61 2220.58 1562.25 Q2223.57 1564.87 2223.57 1569.94 Q2223.57 1575.05 2220.58 1577.67 Q2217.62 1580.28 2211.81 1580.28 L2205.93 1580.28 L2205.93 1594.17 L2201.25 1594.17 L2201.25 1559.61 Z" fill="#000000" fill-rule="nonzero" fill-opacity="1" /><path clip-path="url(#clip560)" d="M2238.01 1571.23 Q2234.59 1571.23 2232.6 1573.92 Q2230.61 1576.58 2230.61 1581.23 Q2230.61 1585.89 2232.57 1588.57 Q2234.56 1591.23 2238.01 1591.23 Q2241.42 1591.23 2243.41 1588.55 Q2245.4 1585.86 2245.4 1581.23 Q2245.4 1576.63 2243.41 1573.94 Q2241.42 1571.23 2238.01 1571.23 M2238.01 1567.62 Q2243.57 1567.62 2246.74 1571.23 Q2249.91 1574.84 2249.91 1581.23 Q2249.91 1587.6 2246.74 1591.23 Q2243.57 1594.84 2238.01 1594.84 Q2232.43 1594.84 2229.26 1591.23 Q2226.12 1587.6 2226.12 1581.23 Q2226.12 1574.84 2229.26 1571.23 Q2232.43 1567.62 2238.01 1567.62 Z" fill="#000000" fill-rule="nonzero" fill-opacity="1" /><path clip-path="url(#clip560)" d="M2256.97 1568.25 L2261.23 1568.25 L2261.23 1594.17 L2256.97 1594.17 L2256.97 1568.25 M2256.97 1558.15 L2261.23 1558.15 L2261.23 1563.55 L2256.97 1563.55 L2256.97 1558.15 Z" fill="#000000" fill-rule="nonzero" fill-opacity="1" /><path clip-path="url(#clip560)" d="M2291.69 1578.52 L2291.69 1594.17 L2287.43 1594.17 L2287.43 1578.66 Q2287.43 1574.98 2286 1573.15 Q2284.56 1571.33 2281.69 1571.33 Q2278.24 1571.33 2276.25 1573.52 Q2274.26 1575.72 2274.26 1579.52 L2274.26 1594.17 L2269.98 1594.17 L2269.98 1568.25 L2274.26 1568.25 L2274.26 1572.27 Q2275.79 1569.94 2277.85 1568.78 Q2279.93 1567.62 2282.64 1567.62 Q2287.11 1567.62 2289.4 1570.4 Q2291.69 1573.15 2291.69 1578.52 Z" fill="#000000" fill-rule="nonzero" fill-opacity="1" /><path clip-path="url(#clip560)" d="M2304.4 1560.89 L2304.4 1568.25 L2313.17 1568.25 L2313.17 1571.56 L2304.4 1571.56 L2304.4 1585.63 Q2304.4 1588.8 2305.26 1589.71 Q2306.14 1590.61 2308.8 1590.61 L2313.17 1590.61 L2313.17 1594.17 L2308.8 1594.17 Q2303.87 1594.17 2301.99 1592.34 Q2300.12 1590.49 2300.12 1585.63 L2300.12 1571.56 L2296.99 1571.56 L2296.99 1568.25 L2300.12 1568.25 L2300.12 1560.89 L2304.4 1560.89 Z" fill="#000000" fill-rule="nonzero" fill-opacity="1" /><path clip-path="url(#clip560)" d="M2356.02 1580.15 L2356.02 1582.23 L2336.44 1582.23 Q2336.72 1586.63 2339.08 1588.94 Q2341.46 1591.23 2345.7 1591.23 Q2348.15 1591.23 2350.44 1590.63 Q2352.76 1590.03 2355.03 1588.83 L2355.03 1592.85 Q2352.73 1593.83 2350.33 1594.33 Q2347.92 1594.84 2345.44 1594.84 Q2339.24 1594.84 2335.61 1591.23 Q2331.99 1587.62 2331.99 1581.46 Q2331.99 1575.1 2335.42 1571.37 Q2338.87 1567.62 2344.7 1567.62 Q2349.93 1567.62 2352.97 1571 Q2356.02 1574.36 2356.02 1580.15 M2351.76 1578.9 Q2351.72 1575.4 2349.8 1573.32 Q2347.9 1571.23 2344.75 1571.23 Q2341.18 1571.23 2339.03 1573.25 Q2336.9 1575.26 2336.58 1578.92 L2351.76 1578.9 Z" fill="#000000" fill-rule="nonzero" fill-opacity="1" /><path clip-path="url(#clip560)" d="M2379.54 1569.01 L2379.54 1573.04 Q2377.73 1572.11 2375.79 1571.65 Q2373.85 1571.19 2371.76 1571.19 Q2368.59 1571.19 2366.99 1572.16 Q2365.42 1573.13 2365.42 1575.08 Q2365.42 1576.56 2366.55 1577.41 Q2367.69 1578.25 2371.11 1579.01 L2372.57 1579.33 Q2377.11 1580.31 2379.01 1582.09 Q2380.93 1583.85 2380.93 1587.02 Q2380.93 1590.63 2378.06 1592.74 Q2375.21 1594.84 2370.21 1594.84 Q2368.13 1594.84 2365.86 1594.43 Q2363.61 1594.03 2361.11 1593.22 L2361.11 1588.83 Q2363.48 1590.05 2365.77 1590.68 Q2368.06 1591.28 2370.3 1591.28 Q2373.31 1591.28 2374.93 1590.26 Q2376.55 1589.22 2376.55 1587.34 Q2376.55 1585.61 2375.37 1584.68 Q2374.22 1583.76 2370.26 1582.9 L2368.78 1582.55 Q2364.82 1581.72 2363.06 1580.01 Q2361.3 1578.27 2361.3 1575.26 Q2361.3 1571.6 2363.89 1569.61 Q2366.48 1567.62 2371.25 1567.62 Q2373.61 1567.62 2375.7 1567.97 Q2377.78 1568.32 2379.54 1569.01 Z" fill="#000000" fill-rule="nonzero" fill-opacity="1" /><path clip-path="url(#clip560)" d="M2391.92 1560.89 L2391.92 1568.25 L2400.7 1568.25 L2400.7 1571.56 L2391.92 1571.56 L2391.92 1585.63 Q2391.92 1588.8 2392.78 1589.71 Q2393.66 1590.61 2396.32 1590.61 L2400.7 1590.61 L2400.7 1594.17 L2396.32 1594.17 Q2391.39 1594.17 2389.52 1592.34 Q2387.64 1590.49 2387.64 1585.63 L2387.64 1571.56 L2384.52 1571.56 L2384.52 1568.25 L2387.64 1568.25 L2387.64 1560.89 L2391.92 1560.89 Z" fill="#000000" fill-rule="nonzero" fill-opacity="1" /><path clip-path="url(#clip560)" d="M2406.3 1568.25 L2410.56 1568.25 L2410.56 1594.17 L2406.3 1594.17 L2406.3 1568.25 M2406.3 1558.15 L2410.56 1558.15 L2410.56 1563.55 L2406.3 1563.55 L2406.3 1558.15 Z" fill="#000000" fill-rule="nonzero" fill-opacity="1" /><path clip-path="url(#clip560)" d="M2439.66 1573.22 Q2441.25 1570.35 2443.48 1568.99 Q2445.7 1567.62 2448.71 1567.62 Q2452.76 1567.62 2454.96 1570.47 Q2457.16 1573.29 2457.16 1578.52 L2457.16 1594.17 L2452.87 1594.17 L2452.87 1578.66 Q2452.87 1574.94 2451.55 1573.13 Q2450.23 1571.33 2447.53 1571.33 Q2444.22 1571.33 2442.29 1573.52 Q2440.37 1575.72 2440.37 1579.52 L2440.37 1594.17 L2436.09 1594.17 L2436.09 1578.66 Q2436.09 1574.91 2434.77 1573.13 Q2433.45 1571.33 2430.7 1571.33 Q2427.43 1571.33 2425.51 1573.55 Q2423.59 1575.75 2423.59 1579.52 L2423.59 1594.17 L2419.31 1594.17 L2419.31 1568.25 L2423.59 1568.25 L2423.59 1572.27 Q2425.05 1569.89 2427.09 1568.76 Q2429.12 1567.62 2431.92 1567.62 Q2434.75 1567.62 2436.72 1569.06 Q2438.71 1570.49 2439.66 1573.22 Z" fill="#000000" fill-rule="nonzero" fill-opacity="1" /><path clip-path="url(#clip560)" d="M2477.43 1581.14 Q2472.27 1581.14 2470.28 1582.32 Q2468.29 1583.5 2468.29 1586.35 Q2468.29 1588.62 2469.77 1589.96 Q2471.28 1591.28 2473.85 1591.28 Q2477.39 1591.28 2479.52 1588.78 Q2481.67 1586.26 2481.67 1582.09 L2481.67 1581.14 L2477.43 1581.14 M2485.93 1579.38 L2485.93 1594.17 L2481.67 1594.17 L2481.67 1590.24 Q2480.21 1592.6 2478.04 1593.73 Q2475.86 1594.84 2472.71 1594.84 Q2468.73 1594.84 2466.37 1592.62 Q2464.03 1590.38 2464.03 1586.63 Q2464.03 1582.25 2466.95 1580.03 Q2469.89 1577.81 2475.7 1577.81 L2481.67 1577.81 L2481.67 1577.39 Q2481.67 1574.45 2479.72 1572.85 Q2477.8 1571.23 2474.31 1571.23 Q2472.09 1571.23 2469.98 1571.77 Q2467.87 1572.3 2465.93 1573.36 L2465.93 1569.43 Q2468.27 1568.52 2470.47 1568.09 Q2472.66 1567.62 2474.75 1567.62 Q2480.37 1567.62 2483.15 1570.54 Q2485.93 1573.46 2485.93 1579.38 Z" fill="#000000" fill-rule="nonzero" fill-opacity="1" /><path clip-path="url(#clip560)" d="M2498.91 1560.89 L2498.91 1568.25 L2507.69 1568.25 L2507.69 1571.56 L2498.91 1571.56 L2498.91 1585.63 Q2498.91 1588.8 2499.77 1589.71 Q2500.65 1590.61 2503.31 1590.61 L2507.69 1590.61 L2507.69 1594.17 L2503.31 1594.17 Q2498.38 1594.17 2496.51 1592.34 Q2494.63 1590.49 2494.63 1585.63 L2494.63 1571.56 L2491.51 1571.56 L2491.51 1568.25 L2494.63 1568.25 L2494.63 1560.89 L2498.91 1560.89 Z" fill="#000000" fill-rule="nonzero" fill-opacity="1" /><path clip-path="url(#clip560)" d="M2535.47 1580.15 L2535.47 1582.23 L2515.88 1582.23 Q2516.16 1586.63 2518.52 1588.94 Q2520.91 1591.23 2525.14 1591.23 Q2527.6 1591.23 2529.89 1590.63 Q2532.2 1590.03 2534.47 1588.83 L2534.47 1592.85 Q2532.18 1593.83 2529.77 1594.33 Q2527.36 1594.84 2524.89 1594.84 Q2518.68 1594.84 2515.05 1591.23 Q2511.44 1587.62 2511.44 1581.46 Q2511.44 1575.1 2514.86 1571.37 Q2518.31 1567.62 2524.15 1567.62 Q2529.38 1567.62 2532.41 1571 Q2535.47 1574.36 2535.47 1580.15 M2531.21 1578.9 Q2531.16 1575.4 2529.24 1573.32 Q2527.34 1571.23 2524.19 1571.23 Q2520.63 1571.23 2518.47 1573.25 Q2516.35 1575.26 2516.02 1578.92 L2531.21 1578.9 Z" fill="#000000" fill-rule="nonzero" fill-opacity="1" /><circle clip-path="url(#clip560)" cx="2095.96" cy="1628.73" r="19.7486" fill="#808080" fill-rule="evenodd" fill-opacity="0.5" stroke="#000000" stroke-opacity="0.5" stroke-width="7.02171"/>
<path clip-path="url(#clip560)" d="M2205.93 1615.3 L2205.93 1642.17 L2211.58 1642.17 Q2218.73 1642.17 2222.04 1638.93 Q2225.37 1635.69 2225.37 1628.7 Q2225.37 1621.75 2222.04 1618.54 Q2218.73 1615.3 2211.58 1615.3 L2205.93 1615.3 M2201.25 1611.45 L2210.86 1611.45 Q2220.91 1611.45 2225.61 1615.64 Q2230.3 1619.81 2230.3 1628.7 Q2230.3 1637.63 2225.58 1641.82 Q2220.86 1646.01 2210.86 1646.01 L2201.25 1646.01 L2201.25 1611.45 Z" fill="#000000" fill-rule="nonzero" fill-opacity="1" /><path clip-path="url(#clip560)" d="M2249.36 1632.98 Q2244.19 1632.98 2242.2 1634.16 Q2240.21 1635.34 2240.21 1638.19 Q2240.21 1640.46 2241.69 1641.8 Q2243.2 1643.12 2245.77 1643.12 Q2249.31 1643.12 2251.44 1640.62 Q2253.59 1638.1 2253.59 1633.93 L2253.59 1632.98 L2249.36 1632.98 M2257.85 1631.22 L2257.85 1646.01 L2253.59 1646.01 L2253.59 1642.08 Q2252.13 1644.44 2249.96 1645.57 Q2247.78 1646.68 2244.63 1646.68 Q2240.65 1646.68 2238.29 1644.46 Q2235.95 1642.22 2235.95 1638.47 Q2235.95 1634.09 2238.87 1631.87 Q2241.81 1629.65 2247.62 1629.65 L2253.59 1629.65 L2253.59 1629.23 Q2253.59 1626.29 2251.65 1624.69 Q2249.73 1623.07 2246.23 1623.07 Q2244.01 1623.07 2241.9 1623.61 Q2239.8 1624.14 2237.85 1625.2 L2237.85 1621.27 Q2240.19 1620.36 2242.39 1619.93 Q2244.59 1619.46 2246.67 1619.46 Q2252.3 1619.46 2255.07 1622.38 Q2257.85 1625.3 2257.85 1631.22 Z" fill="#000000" fill-rule="nonzero" fill-opacity="1" /><path clip-path="url(#clip560)" d="M2270.84 1612.73 L2270.84 1620.09 L2279.61 1620.09 L2279.61 1623.4 L2270.84 1623.4 L2270.84 1637.47 Q2270.84 1640.64 2271.69 1641.55 Q2272.57 1642.45 2275.24 1642.45 L2279.61 1642.45 L2279.61 1646.01 L2275.24 1646.01 Q2270.3 1646.01 2268.43 1644.18 Q2266.55 1642.33 2266.55 1637.47 L2266.55 1623.4 L2263.43 1623.4 L2263.43 1620.09 L2266.55 1620.09 L2266.55 1612.73 L2270.84 1612.73 Z" fill="#000000" fill-rule="nonzero" fill-opacity="1" /><path clip-path="url(#clip560)" d="M2296.99 1632.98 Q2291.83 1632.98 2289.84 1634.16 Q2287.85 1635.34 2287.85 1638.19 Q2287.85 1640.46 2289.33 1641.8 Q2290.84 1643.12 2293.41 1643.12 Q2296.95 1643.12 2299.08 1640.62 Q2301.23 1638.1 2301.23 1633.93 L2301.23 1632.98 L2296.99 1632.98 M2305.49 1631.22 L2305.49 1646.01 L2301.23 1646.01 L2301.23 1642.08 Q2299.77 1644.44 2297.6 1645.57 Q2295.42 1646.68 2292.27 1646.68 Q2288.29 1646.68 2285.93 1644.46 Q2283.59 1642.22 2283.59 1638.47 Q2283.59 1634.09 2286.51 1631.87 Q2289.45 1629.65 2295.26 1629.65 L2301.23 1629.65 L2301.23 1629.23 Q2301.23 1626.29 2299.29 1624.69 Q2297.36 1623.07 2293.87 1623.07 Q2291.65 1623.07 2289.54 1623.61 Q2287.43 1624.14 2285.49 1625.2 L2285.49 1621.27 Q2287.83 1620.36 2290.03 1619.93 Q2292.23 1619.46 2294.31 1619.46 Q2299.93 1619.46 2302.71 1622.38 Q2305.49 1625.3 2305.49 1631.22 Z" fill="#000000" fill-rule="nonzero" fill-opacity="1" /></svg>
