<?xml version="1.0" encoding="utf-8"?>
<svg xmlns="http://www.w3.org/2000/svg" xmlns:xlink="http://www.w3.org/1999/xlink" width="672" height="480" viewBox="0 0 2688 1920">
<defs>
  <clipPath id="clip380">
    <rect x="0" y="0" width="2688" height="1920"/>
  </clipPath>
</defs>
<path clip-path="url(#clip380)" d="M0 1920 L2688 1920 L2688 -4.26326e-14 L0 -4.26326e-14  Z" fill="#ffffff" fill-rule="evenodd" fill-opacity="1"/>
<defs>
  <clipPath id="clip381">
    <rect x="271" y="127" width="2370" height="1607"/>
  </clipPath>
</defs>
<path clip-path="url(#clip380)" d="M271.719 1734.12 L2640.76 1734.12 L2640.76 127.792 L271.719 127.792  Z" fill="#ffffff" fill-rule="evenodd" fill-opacity="1"/>
<polyline clip-path="url(#clip381)" style="stroke:#000000; stroke-linecap:round; stroke-linejoin:round; stroke-width:2; stroke-opacity:0.1; fill:none" points="293.156,1734.12 293.156,127.792 "/>
<polyline clip-path="url(#clip381)" style="stroke:#000000; stroke-linecap:round; stroke-linejoin:round; stroke-width:2; stroke-opacity:0.1; fill:none" points="749.266,1734.12 749.266,127.792 "/>
<polyline clip-path="url(#clip381)" style="stroke:#000000; stroke-linecap:round; stroke-linejoin:round; stroke-width:2; stroke-opacity:0.1; fill:none" points="1205.38,1734.12 1205.38,127.792 "/>
<polyline clip-path="url(#clip381)" style="stroke:#000000; stroke-linecap:round; stroke-linejoin:round; stroke-width:2; stroke-opacity:0.1; fill:none" points="1661.49,1734.12 1661.49,127.792 "/>
<polyline clip-path="url(#clip381)" style="stroke:#000000; stroke-linecap:round; stroke-linejoin:round; stroke-width:2; stroke-opacity:0.1; fill:none" points="2117.6,1734.12 2117.6,127.792 "/>
<polyline clip-path="url(#clip381)" style="stroke:#000000; stroke-linecap:round; stroke-linejoin:round; stroke-width:2; stroke-opacity:0.1; fill:none" points="2573.71,1734.12 2573.71,127.792 "/>
<polyline clip-path="url(#clip381)" style="stroke:#000000; stroke-linecap:round; stroke-linejoin:round; stroke-width:2; stroke-opacity:0.1; fill:none" points="271.719,1379.07 2640.76,1379.07 "/>
<polyline clip-path="url(#clip381)" style="stroke:#000000; stroke-linecap:round; stroke-linejoin:round; stroke-width:2; stroke-opacity:0.1; fill:none" points="271.719,992.097 2640.76,992.097 "/>
<polyline clip-path="url(#clip381)" style="stroke:#000000; stroke-linecap:round; stroke-linejoin:round; stroke-width:2; stroke-opacity:0.1; fill:none" points="271.719,605.12 2640.76,605.12 "/>
<polyline clip-path="url(#clip381)" style="stroke:#000000; stroke-linecap:round; stroke-linejoin:round; stroke-width:2; stroke-opacity:0.1; fill:none" points="271.719,218.143 2640.76,218.143 "/>
<polyline clip-path="url(#clip380)" style="stroke:#000000; stroke-linecap:round; stroke-linejoin:round; stroke-width:4; stroke-opacity:1; fill:none" points="271.719,1734.12 2640.76,1734.12 "/>
<polyline clip-path="url(#clip380)" style="stroke:#000000; stroke-linecap:round; stroke-linejoin:round; stroke-width:4; stroke-opacity:1; fill:none" points="293.156,1734.12 293.156,1715.22 "/>
<polyline clip-path="url(#clip380)" style="stroke:#000000; stroke-linecap:round; stroke-linejoin:round; stroke-width:4; stroke-opacity:1; fill:none" points="749.266,1734.12 749.266,1715.22 "/>
<polyline clip-path="url(#clip380)" style="stroke:#000000; stroke-linecap:round; stroke-linejoin:round; stroke-width:4; stroke-opacity:1; fill:none" points="1205.38,1734.12 1205.38,1715.22 "/>
<polyline clip-path="url(#clip380)" style="stroke:#000000; stroke-linecap:round; stroke-linejoin:round; stroke-width:4; stroke-opacity:1; fill:none" points="1661.49,1734.12 1661.49,1715.22 "/>
<polyline clip-path="url(#clip380)" style="stroke:#000000; stroke-linecap:round; stroke-linejoin:round; stroke-width:4; stroke-opacity:1; fill:none" points="2117.6,1734.12 2117.6,1715.22 "/>
<polyline clip-path="url(#clip380)" style="stroke:#000000; stroke-linecap:round; stroke-linejoin:round; stroke-width:4; stroke-opacity:1; fill:none" points="2573.71,1734.12 2573.71,1715.22 "/>
<path clip-path="url(#clip380)" d="M293.156 1767.34 Q289.545 1767.34 287.716 1770.9 Q285.911 1774.45 285.911 1781.58 Q285.911 1788.68 287.716 1792.25 Q289.545 1795.79 293.156 1795.79 Q296.79 1795.79 298.596 1792.25 Q300.425 1788.68 300.425 1781.58 Q300.425 1774.45 298.596 1770.9 Q296.79 1767.34 293.156 1767.34 M293.156 1763.64 Q298.966 1763.64 302.022 1768.24 Q305.101 1772.83 305.101 1781.58 Q305.101 1790.3 302.022 1794.91 Q298.966 1799.49 293.156 1799.49 Q287.346 1799.49 284.267 1794.91 Q281.212 1790.3 281.212 1781.58 Q281.212 1772.83 284.267 1768.24 Q287.346 1763.64 293.156 1763.64 Z" fill="#000000" fill-rule="nonzero" fill-opacity="1" /><path clip-path="url(#clip380)" d="M723.954 1794.89 L731.593 1794.89 L731.593 1768.52 L723.283 1770.19 L723.283 1765.93 L731.547 1764.26 L736.223 1764.26 L736.223 1794.89 L743.861 1794.89 L743.861 1798.82 L723.954 1798.82 L723.954 1794.89 Z" fill="#000000" fill-rule="nonzero" fill-opacity="1" /><path clip-path="url(#clip380)" d="M763.306 1767.34 Q759.695 1767.34 757.866 1770.9 Q756.06 1774.45 756.06 1781.58 Q756.06 1788.68 757.866 1792.25 Q759.695 1795.79 763.306 1795.79 Q766.94 1795.79 768.746 1792.25 Q770.574 1788.68 770.574 1781.58 Q770.574 1774.45 768.746 1770.9 Q766.94 1767.34 763.306 1767.34 M763.306 1763.64 Q769.116 1763.64 772.171 1768.24 Q775.25 1772.83 775.25 1781.58 Q775.25 1790.3 772.171 1794.91 Q769.116 1799.49 763.306 1799.49 Q757.496 1799.49 754.417 1794.91 Q751.361 1790.3 751.361 1781.58 Q751.361 1772.83 754.417 1768.24 Q757.496 1763.64 763.306 1763.64 Z" fill="#000000" fill-rule="nonzero" fill-opacity="1" /><path clip-path="url(#clip380)" d="M1184.15 1794.89 L1200.47 1794.89 L1200.47 1798.82 L1178.53 1798.82 L1178.53 1794.89 Q1181.19 1792.13 1185.77 1787.5 Q1190.38 1782.85 1191.56 1781.51 Q1193.8 1778.98 1194.68 1777.25 Q1195.59 1775.49 1195.59 1773.8 Q1195.59 1771.04 1193.64 1769.31 Q1191.72 1767.57 1188.62 1767.57 Q1186.42 1767.57 1183.96 1768.34 Q1181.53 1769.1 1178.76 1770.65 L1178.76 1765.93 Q1181.58 1764.79 1184.03 1764.21 Q1186.49 1763.64 1188.53 1763.64 Q1193.9 1763.64 1197.09 1766.32 Q1200.28 1769.01 1200.28 1773.5 Q1200.28 1775.63 1199.47 1777.55 Q1198.69 1779.45 1196.58 1782.04 Q1196 1782.71 1192.9 1785.93 Q1189.8 1789.12 1184.15 1794.89 Z" fill="#000000" fill-rule="nonzero" fill-opacity="1" /><path clip-path="url(#clip380)" d="M1220.28 1767.34 Q1216.67 1767.34 1214.84 1770.9 Q1213.04 1774.45 1213.04 1781.58 Q1213.04 1788.68 1214.84 1792.25 Q1216.67 1795.79 1220.28 1795.79 Q1223.92 1795.79 1225.72 1792.25 Q1227.55 1788.68 1227.55 1781.58 Q1227.55 1774.45 1225.72 1770.9 Q1223.92 1767.34 1220.28 1767.34 M1220.28 1763.64 Q1226.09 1763.64 1229.15 1768.24 Q1232.23 1772.83 1232.23 1781.58 Q1232.23 1790.3 1229.15 1794.91 Q1226.09 1799.49 1220.28 1799.49 Q1214.47 1799.49 1211.4 1794.91 Q1208.34 1790.3 1208.34 1781.58 Q1208.34 1772.83 1211.4 1768.24 Q1214.47 1763.64 1220.28 1763.64 Z" fill="#000000" fill-rule="nonzero" fill-opacity="1" /><path clip-path="url(#clip380)" d="M1650.33 1780.19 Q1653.69 1780.9 1655.56 1783.17 Q1657.46 1785.44 1657.46 1788.77 Q1657.46 1793.89 1653.94 1796.69 Q1650.42 1799.49 1643.94 1799.49 Q1641.76 1799.49 1639.45 1799.05 Q1637.16 1798.64 1634.7 1797.78 L1634.7 1793.27 Q1636.65 1794.4 1638.96 1794.98 Q1641.28 1795.56 1643.8 1795.56 Q1648.2 1795.56 1650.49 1793.82 Q1652.81 1792.08 1652.81 1788.77 Q1652.81 1785.72 1650.65 1784.01 Q1648.52 1782.27 1644.7 1782.27 L1640.68 1782.27 L1640.68 1778.43 L1644.89 1778.43 Q1648.34 1778.43 1650.17 1777.06 Q1652 1775.67 1652 1773.08 Q1652 1770.42 1650.1 1769.01 Q1648.22 1767.57 1644.7 1767.57 Q1642.78 1767.57 1640.58 1767.99 Q1638.39 1768.4 1635.75 1769.28 L1635.75 1765.12 Q1638.41 1764.38 1640.72 1764.01 Q1643.06 1763.64 1645.12 1763.64 Q1650.45 1763.64 1653.55 1766.07 Q1656.65 1768.47 1656.65 1772.59 Q1656.65 1775.46 1655.01 1777.46 Q1653.36 1779.42 1650.33 1780.19 Z" fill="#000000" fill-rule="nonzero" fill-opacity="1" /><path clip-path="url(#clip380)" d="M1676.32 1767.34 Q1672.71 1767.34 1670.89 1770.9 Q1669.08 1774.45 1669.08 1781.58 Q1669.08 1788.68 1670.89 1792.25 Q1672.71 1795.79 1676.32 1795.79 Q1679.96 1795.79 1681.76 1792.25 Q1683.59 1788.68 1683.59 1781.58 Q1683.59 1774.45 1681.76 1770.9 Q1679.96 1767.34 1676.32 1767.34 M1676.32 1763.64 Q1682.14 1763.64 1685.19 1768.24 Q1688.27 1772.83 1688.27 1781.58 Q1688.27 1790.3 1685.19 1794.91 Q1682.14 1799.49 1676.32 1799.49 Q1670.51 1799.49 1667.44 1794.91 Q1664.38 1790.3 1664.38 1781.58 Q1664.38 1772.83 1667.44 1768.24 Q1670.51 1763.64 1676.32 1763.64 Z" fill="#000000" fill-rule="nonzero" fill-opacity="1" /><path clip-path="url(#clip380)" d="M2105.77 1768.34 L2093.96 1786.78 L2105.77 1786.78 L2105.77 1768.34 M2104.54 1764.26 L2110.42 1764.26 L2110.42 1786.78 L2115.35 1786.78 L2115.35 1790.67 L2110.42 1790.67 L2110.42 1798.82 L2105.77 1798.82 L2105.77 1790.67 L2090.17 1790.67 L2090.17 1786.16 L2104.54 1764.26 Z" fill="#000000" fill-rule="nonzero" fill-opacity="1" /><path clip-path="url(#clip380)" d="M2133.08 1767.34 Q2129.47 1767.34 2127.64 1770.9 Q2125.84 1774.45 2125.84 1781.58 Q2125.84 1788.68 2127.64 1792.25 Q2129.47 1795.79 2133.08 1795.79 Q2136.72 1795.79 2138.52 1792.25 Q2140.35 1788.68 2140.35 1781.58 Q2140.35 1774.45 2138.52 1770.9 Q2136.72 1767.34 2133.08 1767.34 M2133.08 1763.64 Q2138.89 1763.64 2141.95 1768.24 Q2145.03 1772.83 2145.03 1781.58 Q2145.03 1790.3 2141.95 1794.91 Q2138.89 1799.49 2133.08 1799.49 Q2127.27 1799.49 2124.19 1794.91 Q2121.14 1790.3 2121.14 1781.58 Q2121.14 1772.83 2124.19 1768.24 Q2127.27 1763.64 2133.08 1763.64 Z" fill="#000000" fill-rule="nonzero" fill-opacity="1" /><path clip-path="url(#clip380)" d="M2548.41 1764.26 L2566.76 1764.26 L2566.76 1768.2 L2552.69 1768.2 L2552.69 1776.67 Q2553.71 1776.32 2554.73 1776.16 Q2555.74 1775.97 2556.76 1775.97 Q2562.55 1775.97 2565.93 1779.15 Q2569.31 1782.32 2569.31 1787.73 Q2569.31 1793.31 2565.84 1796.41 Q2562.37 1799.49 2556.05 1799.49 Q2553.87 1799.49 2551.6 1799.12 Q2549.36 1798.75 2546.95 1798.01 L2546.95 1793.31 Q2549.03 1794.45 2551.25 1795 Q2553.48 1795.56 2555.95 1795.56 Q2559.96 1795.56 2562.3 1793.45 Q2564.63 1791.34 2564.63 1787.73 Q2564.63 1784.12 2562.3 1782.02 Q2559.96 1779.91 2555.95 1779.91 Q2554.08 1779.91 2552.2 1780.33 Q2550.35 1780.74 2548.41 1781.62 L2548.41 1764.26 Z" fill="#000000" fill-rule="nonzero" fill-opacity="1" /><path clip-path="url(#clip380)" d="M2588.52 1767.34 Q2584.91 1767.34 2583.08 1770.9 Q2581.28 1774.45 2581.28 1781.58 Q2581.28 1788.68 2583.08 1792.25 Q2584.91 1795.79 2588.52 1795.79 Q2592.16 1795.79 2593.96 1792.25 Q2595.79 1788.68 2595.79 1781.58 Q2595.79 1774.45 2593.96 1770.9 Q2592.16 1767.34 2588.52 1767.34 M2588.52 1763.64 Q2594.33 1763.64 2597.39 1768.24 Q2600.47 1772.83 2600.47 1781.58 Q2600.47 1790.3 2597.39 1794.91 Q2594.33 1799.49 2588.52 1799.49 Q2582.71 1799.49 2579.63 1794.91 Q2576.58 1790.3 2576.58 1781.58 Q2576.58 1772.83 2579.63 1768.24 Q2582.71 1763.64 2588.52 1763.64 Z" fill="#000000" fill-rule="nonzero" fill-opacity="1" /><path clip-path="url(#clip380)" d="M1387.17 1835.78 L1394.08 1835.78 L1407.25 1855.32 L1420.33 1835.78 L1427.24 1835.78 L1410.44 1860.67 L1410.44 1883.3 L1403.98 1883.3 L1403.98 1860.67 L1387.17 1835.78 Z" fill="#000000" fill-rule="nonzero" fill-opacity="1" /><path clip-path="url(#clip380)" d="M1455.09 1864.01 L1455.09 1866.88 L1428.16 1866.88 Q1428.55 1872.92 1431.79 1876.11 Q1435.07 1879.26 1440.9 1879.26 Q1444.27 1879.26 1447.42 1878.43 Q1450.6 1877.6 1453.72 1875.95 L1453.72 1881.49 Q1450.57 1882.82 1447.26 1883.52 Q1443.95 1884.22 1440.55 1884.22 Q1432.02 1884.22 1427.02 1879.26 Q1422.05 1874.29 1422.05 1865.83 Q1422.05 1857.07 1426.76 1851.95 Q1431.51 1846.79 1439.53 1846.79 Q1446.72 1846.79 1450.89 1851.44 Q1455.09 1856.06 1455.09 1864.01 M1449.24 1862.29 Q1449.17 1857.49 1446.53 1854.62 Q1443.92 1851.76 1439.59 1851.76 Q1434.69 1851.76 1431.73 1854.53 Q1428.8 1857.3 1428.36 1862.33 L1449.24 1862.29 Z" fill="#000000" fill-rule="nonzero" fill-opacity="1" /><path clip-path="url(#clip380)" d="M1480.9 1865.38 Q1473.81 1865.38 1471.07 1867 Q1468.33 1868.63 1468.33 1872.54 Q1468.33 1875.66 1470.37 1877.51 Q1472.44 1879.32 1475.97 1879.32 Q1480.84 1879.32 1483.77 1875.88 Q1486.73 1872.42 1486.73 1866.69 L1486.73 1865.38 L1480.9 1865.38 M1492.59 1862.96 L1492.59 1883.3 L1486.73 1883.3 L1486.73 1877.89 Q1484.72 1881.14 1481.73 1882.7 Q1478.74 1884.22 1474.41 1884.22 Q1468.94 1884.22 1465.69 1881.17 Q1462.48 1878.08 1462.48 1872.92 Q1462.48 1866.91 1466.49 1863.85 Q1470.53 1860.8 1478.52 1860.8 L1486.73 1860.8 L1486.73 1860.23 Q1486.73 1856.18 1484.06 1853.99 Q1481.41 1851.76 1476.61 1851.76 Q1473.55 1851.76 1470.66 1852.49 Q1467.76 1853.22 1465.09 1854.69 L1465.09 1849.28 Q1468.3 1848.03 1471.32 1847.43 Q1474.35 1846.79 1477.21 1846.79 Q1484.95 1846.79 1488.77 1850.8 Q1492.59 1854.81 1492.59 1862.96 Z" fill="#000000" fill-rule="nonzero" fill-opacity="1" /><path clip-path="url(#clip380)" d="M1525.31 1853.13 Q1524.32 1852.55 1523.14 1852.3 Q1522 1852.01 1520.59 1852.01 Q1515.63 1852.01 1512.96 1855.26 Q1510.31 1858.47 1510.31 1864.52 L1510.31 1883.3 L1504.43 1883.3 L1504.43 1847.65 L1510.31 1847.65 L1510.31 1853.19 Q1512.16 1849.94 1515.12 1848.39 Q1518.08 1846.79 1522.31 1846.79 Q1522.92 1846.79 1523.65 1846.89 Q1524.38 1846.95 1525.27 1847.11 L1525.31 1853.13 Z" fill="#000000" fill-rule="nonzero" fill-opacity="1" /><polyline clip-path="url(#clip380)" style="stroke:#000000; stroke-linecap:round; stroke-linejoin:round; stroke-width:4; stroke-opacity:1; fill:none" points="271.719,1734.12 271.719,127.792 "/>
<polyline clip-path="url(#clip380)" style="stroke:#000000; stroke-linecap:round; stroke-linejoin:round; stroke-width:4; stroke-opacity:1; fill:none" points="271.719,1379.07 290.617,1379.07 "/>
<polyline clip-path="url(#clip380)" style="stroke:#000000; stroke-linecap:round; stroke-linejoin:round; stroke-width:4; stroke-opacity:1; fill:none" points="271.719,992.097 290.617,992.097 "/>
<polyline clip-path="url(#clip380)" style="stroke:#000000; stroke-linecap:round; stroke-linejoin:round; stroke-width:4; stroke-opacity:1; fill:none" points="271.719,605.12 290.617,605.12 "/>
<polyline clip-path="url(#clip380)" style="stroke:#000000; stroke-linecap:round; stroke-linejoin:round; stroke-width:4; stroke-opacity:1; fill:none" points="271.719,218.143 290.617,218.143 "/>
<path clip-path="url(#clip380)" d="M119.779 1392.42 L127.418 1392.42 L127.418 1366.05 L119.108 1367.72 L119.108 1363.46 L127.372 1361.79 L132.048 1361.79 L132.048 1392.42 L139.687 1392.42 L139.687 1396.35 L119.779 1396.35 L119.779 1392.42 Z" fill="#000000" fill-rule="nonzero" fill-opacity="1" /><path clip-path="url(#clip380)" d="M159.131 1364.87 Q155.52 1364.87 153.691 1368.44 Q151.886 1371.98 151.886 1379.11 Q151.886 1386.21 153.691 1389.78 Q155.52 1393.32 159.131 1393.32 Q162.765 1393.32 164.571 1389.78 Q166.399 1386.21 166.399 1379.11 Q166.399 1371.98 164.571 1368.44 Q162.765 1364.87 159.131 1364.87 M159.131 1361.17 Q164.941 1361.17 167.997 1365.78 Q171.075 1370.36 171.075 1379.11 Q171.075 1387.84 167.997 1392.44 Q164.941 1397.02 159.131 1397.02 Q153.321 1397.02 150.242 1392.44 Q147.186 1387.84 147.186 1379.11 Q147.186 1370.36 150.242 1365.78 Q153.321 1361.17 159.131 1361.17 Z" fill="#000000" fill-rule="nonzero" fill-opacity="1" /><path clip-path="url(#clip380)" d="M189.293 1364.87 Q185.682 1364.87 183.853 1368.44 Q182.047 1371.98 182.047 1379.11 Q182.047 1386.21 183.853 1389.78 Q185.682 1393.32 189.293 1393.32 Q192.927 1393.32 194.733 1389.78 Q196.561 1386.21 196.561 1379.11 Q196.561 1371.98 194.733 1368.44 Q192.927 1364.87 189.293 1364.87 M189.293 1361.17 Q195.103 1361.17 198.158 1365.78 Q201.237 1370.36 201.237 1379.11 Q201.237 1387.84 198.158 1392.44 Q195.103 1397.02 189.293 1397.02 Q183.483 1397.02 180.404 1392.44 Q177.348 1387.84 177.348 1379.11 Q177.348 1370.36 180.404 1365.78 Q183.483 1361.17 189.293 1361.17 Z" fill="#000000" fill-rule="nonzero" fill-opacity="1" /><path clip-path="url(#clip380)" d="M219.455 1364.87 Q215.844 1364.87 214.015 1368.44 Q212.209 1371.98 212.209 1379.11 Q212.209 1386.21 214.015 1389.78 Q215.844 1393.32 219.455 1393.32 Q223.089 1393.32 224.894 1389.78 Q226.723 1386.21 226.723 1379.11 Q226.723 1371.98 224.894 1368.44 Q223.089 1364.87 219.455 1364.87 M219.455 1361.17 Q225.265 1361.17 228.32 1365.78 Q231.399 1370.36 231.399 1379.11 Q231.399 1387.84 228.32 1392.44 Q225.265 1397.02 219.455 1397.02 Q213.644 1397.02 210.566 1392.44 Q207.51 1387.84 207.51 1379.11 Q207.51 1370.36 210.566 1365.78 Q213.644 1361.17 219.455 1361.17 Z" fill="#000000" fill-rule="nonzero" fill-opacity="1" /><path clip-path="url(#clip380)" d="M122.997 1005.44 L139.316 1005.44 L139.316 1009.38 L117.372 1009.38 L117.372 1005.44 Q120.034 1002.69 124.617 998.057 Q129.224 993.405 130.404 992.062 Q132.65 989.539 133.529 987.803 Q134.432 986.044 134.432 984.354 Q134.432 981.599 132.488 979.863 Q130.566 978.127 127.464 978.127 Q125.265 978.127 122.812 978.891 Q120.381 979.655 117.603 981.206 L117.603 976.484 Q120.427 975.349 122.881 974.771 Q125.335 974.192 127.372 974.192 Q132.742 974.192 135.937 976.877 Q139.131 979.562 139.131 984.053 Q139.131 986.183 138.321 988.104 Q137.534 990.002 135.427 992.595 Q134.849 993.266 131.747 996.483 Q128.645 999.678 122.997 1005.44 Z" fill="#000000" fill-rule="nonzero" fill-opacity="1" /><path clip-path="url(#clip380)" d="M159.131 977.896 Q155.52 977.896 153.691 981.46 Q151.886 985.002 151.886 992.132 Q151.886 999.238 153.691 1002.8 Q155.52 1006.34 159.131 1006.34 Q162.765 1006.34 164.571 1002.8 Q166.399 999.238 166.399 992.132 Q166.399 985.002 164.571 981.46 Q162.765 977.896 159.131 977.896 M159.131 974.192 Q164.941 974.192 167.997 978.798 Q171.075 983.382 171.075 992.132 Q171.075 1000.86 167.997 1005.46 Q164.941 1010.05 159.131 1010.05 Q153.321 1010.05 150.242 1005.46 Q147.186 1000.86 147.186 992.132 Q147.186 983.382 150.242 978.798 Q153.321 974.192 159.131 974.192 Z" fill="#000000" fill-rule="nonzero" fill-opacity="1" /><path clip-path="url(#clip380)" d="M189.293 977.896 Q185.682 977.896 183.853 981.46 Q182.047 985.002 182.047 992.132 Q182.047 999.238 183.853 1002.8 Q185.682 1006.34 189.293 1006.34 Q192.927 1006.34 194.733 1002.8 Q196.561 999.238 196.561 992.132 Q196.561 985.002 194.733 981.46 Q192.927 977.896 189.293 977.896 M189.293 974.192 Q195.103 974.192 198.158 978.798 Q201.237 983.382 201.237 992.132 Q201.237 1000.86 198.158 1005.46 Q195.103 1010.05 189.293 1010.05 Q183.483 1010.05 180.404 1005.46 Q177.348 1000.86 177.348 992.132 Q177.348 983.382 180.404 978.798 Q183.483 974.192 189.293 974.192 Z" fill="#000000" fill-rule="nonzero" fill-opacity="1" /><path clip-path="url(#clip380)" d="M219.455 977.896 Q215.844 977.896 214.015 981.46 Q212.209 985.002 212.209 992.132 Q212.209 999.238 214.015 1002.8 Q215.844 1006.34 219.455 1006.34 Q223.089 1006.34 224.894 1002.8 Q226.723 999.238 226.723 992.132 Q226.723 985.002 224.894 981.46 Q223.089 977.896 219.455 977.896 M219.455 974.192 Q225.265 974.192 228.32 978.798 Q231.399 983.382 231.399 992.132 Q231.399 1000.86 228.32 1005.46 Q225.265 1010.05 219.455 1010.05 Q213.644 1010.05 210.566 1005.46 Q207.51 1000.86 207.51 992.132 Q207.51 983.382 210.566 978.798 Q213.644 974.192 219.455 974.192 Z" fill="#000000" fill-rule="nonzero" fill-opacity="1" /><path clip-path="url(#clip380)" d="M133.136 603.766 Q136.492 604.484 138.367 606.752 Q140.265 609.021 140.265 612.354 Q140.265 617.47 136.747 620.271 Q133.228 623.071 126.747 623.071 Q124.571 623.071 122.256 622.632 Q119.964 622.215 117.511 621.359 L117.511 616.845 Q119.455 617.979 121.77 618.558 Q124.085 619.136 126.608 619.136 Q131.006 619.136 133.298 617.4 Q135.612 615.664 135.612 612.354 Q135.612 609.298 133.46 607.585 Q131.33 605.849 127.511 605.849 L123.483 605.849 L123.483 602.007 L127.696 602.007 Q131.145 602.007 132.974 600.641 Q134.802 599.252 134.802 596.66 Q134.802 593.998 132.904 592.586 Q131.029 591.15 127.511 591.15 Q125.589 591.15 123.39 591.567 Q121.191 591.984 118.552 592.863 L118.552 588.697 Q121.214 587.956 123.529 587.586 Q125.867 587.215 127.927 587.215 Q133.251 587.215 136.353 589.646 Q139.455 592.053 139.455 596.173 Q139.455 599.044 137.812 601.035 Q136.168 603.002 133.136 603.766 Z" fill="#000000" fill-rule="nonzero" fill-opacity="1" /><path clip-path="url(#clip380)" d="M159.131 590.919 Q155.52 590.919 153.691 594.484 Q151.886 598.025 151.886 605.155 Q151.886 612.261 153.691 615.826 Q155.52 619.368 159.131 619.368 Q162.765 619.368 164.571 615.826 Q166.399 612.261 166.399 605.155 Q166.399 598.025 164.571 594.484 Q162.765 590.919 159.131 590.919 M159.131 587.215 Q164.941 587.215 167.997 591.822 Q171.075 596.405 171.075 605.155 Q171.075 613.882 167.997 618.488 Q164.941 623.071 159.131 623.071 Q153.321 623.071 150.242 618.488 Q147.186 613.882 147.186 605.155 Q147.186 596.405 150.242 591.822 Q153.321 587.215 159.131 587.215 Z" fill="#000000" fill-rule="nonzero" fill-opacity="1" /><path clip-path="url(#clip380)" d="M189.293 590.919 Q185.682 590.919 183.853 594.484 Q182.047 598.025 182.047 605.155 Q182.047 612.261 183.853 615.826 Q185.682 619.368 189.293 619.368 Q192.927 619.368 194.733 615.826 Q196.561 612.261 196.561 605.155 Q196.561 598.025 194.733 594.484 Q192.927 590.919 189.293 590.919 M189.293 587.215 Q195.103 587.215 198.158 591.822 Q201.237 596.405 201.237 605.155 Q201.237 613.882 198.158 618.488 Q195.103 623.071 189.293 623.071 Q183.483 623.071 180.404 618.488 Q177.348 613.882 177.348 605.155 Q177.348 596.405 180.404 591.822 Q183.483 587.215 189.293 587.215 Z" fill="#000000" fill-rule="nonzero" fill-opacity="1" /><path clip-path="url(#clip380)" d="M219.455 590.919 Q215.844 590.919 214.015 594.484 Q212.209 598.025 212.209 605.155 Q212.209 612.261 214.015 615.826 Q215.844 619.368 219.455 619.368 Q223.089 619.368 224.894 615.826 Q226.723 612.261 226.723 605.155 Q226.723 598.025 224.894 594.484 Q223.089 590.919 219.455 590.919 M219.455 587.215 Q225.265 587.215 228.32 591.822 Q231.399 596.405 231.399 605.155 Q231.399 613.882 228.32 618.488 Q225.265 623.071 219.455 623.071 Q213.644 623.071 210.566 618.488 Q207.51 613.882 207.51 605.155 Q207.51 596.405 210.566 591.822 Q213.644 587.215 219.455 587.215 Z" fill="#000000" fill-rule="nonzero" fill-opacity="1" /><path clip-path="url(#clip380)" d="M131.816 204.938 L120.011 223.386 L131.816 223.386 L131.816 204.938 M130.589 200.863 L136.469 200.863 L136.469 223.386 L141.399 223.386 L141.399 227.275 L136.469 227.275 L136.469 235.423 L131.816 235.423 L131.816 227.275 L116.214 227.275 L116.214 222.761 L130.589 200.863 Z" fill="#000000" fill-rule="nonzero" fill-opacity="1" /><path clip-path="url(#clip380)" d="M159.131 203.942 Q155.52 203.942 153.691 207.507 Q151.886 211.049 151.886 218.178 Q151.886 225.285 153.691 228.849 Q155.52 232.391 159.131 232.391 Q162.765 232.391 164.571 228.849 Q166.399 225.285 166.399 218.178 Q166.399 211.049 164.571 207.507 Q162.765 203.942 159.131 203.942 M159.131 200.238 Q164.941 200.238 167.997 204.845 Q171.075 209.428 171.075 218.178 Q171.075 226.905 167.997 231.511 Q164.941 236.095 159.131 236.095 Q153.321 236.095 150.242 231.511 Q147.186 226.905 147.186 218.178 Q147.186 209.428 150.242 204.845 Q153.321 200.238 159.131 200.238 Z" fill="#000000" fill-rule="nonzero" fill-opacity="1" /><path clip-path="url(#clip380)" d="M189.293 203.942 Q185.682 203.942 183.853 207.507 Q182.047 211.049 182.047 218.178 Q182.047 225.285 183.853 228.849 Q185.682 232.391 189.293 232.391 Q192.927 232.391 194.733 228.849 Q196.561 225.285 196.561 218.178 Q196.561 211.049 194.733 207.507 Q192.927 203.942 189.293 203.942 M189.293 200.238 Q195.103 200.238 198.158 204.845 Q201.237 209.428 201.237 218.178 Q201.237 226.905 198.158 231.511 Q195.103 236.095 189.293 236.095 Q183.483 236.095 180.404 231.511 Q177.348 226.905 177.348 218.178 Q177.348 209.428 180.404 204.845 Q183.483 200.238 189.293 200.238 Z" fill="#000000" fill-rule="nonzero" fill-opacity="1" /><path clip-path="url(#clip380)" d="M219.455 203.942 Q215.844 203.942 214.015 207.507 Q212.209 211.049 212.209 218.178 Q212.209 225.285 214.015 228.849 Q215.844 232.391 219.455 232.391 Q223.089 232.391 224.894 228.849 Q226.723 225.285 226.723 218.178 Q226.723 211.049 224.894 207.507 Q223.089 203.942 219.455 203.942 M219.455 200.238 Q225.265 200.238 228.32 204.845 Q231.399 209.428 231.399 218.178 Q231.399 226.905 228.32 231.511 Q225.265 236.095 219.455 236.095 Q213.644 236.095 210.566 231.511 Q207.51 226.905 207.51 218.178 Q207.51 209.428 210.566 204.845 Q213.644 200.238 219.455 200.238 Z" fill="#000000" fill-rule="nonzero" fill-opacity="1" /><path clip-path="url(#clip380)" d="M20.4523 1090.78 L44.1009 1099.5 L44.1009 1082.03 L20.4523 1090.78 M14.1184 1094.41 L14.1184 1087.12 L61.6384 1069.01 L61.6384 1075.69 L49.4481 1080.02 L49.4481 1101.44 L61.6384 1105.77 L61.6384 1112.55 L14.1184 1094.41 Z" fill="#000000" fill-rule="nonzero" fill-opacity="1" /><path clip-path="url(#clip380)" d="M43.8463 1036.74 Q37.3851 1036.74 33.7248 1039.41 Q30.0327 1042.05 30.0327 1046.7 Q30.0327 1051.35 33.7248 1054.02 Q37.3851 1056.66 43.8463 1056.66 Q50.3075 1056.66 53.9996 1054.02 Q57.6599 1051.35 57.6599 1046.7 Q57.6599 1042.05 53.9996 1039.41 Q50.3075 1036.74 43.8463 1036.74 M31.4013 1056.66 Q28.2185 1054.82 26.6907 1052.01 Q25.1311 1049.18 25.1311 1045.27 Q25.1311 1038.77 30.2873 1034.73 Q35.4436 1030.66 43.8463 1030.66 Q52.249 1030.66 57.4052 1034.73 Q62.5615 1038.77 62.5615 1045.27 Q62.5615 1049.18 61.0337 1052.01 Q59.4741 1054.82 56.2912 1056.66 L61.6384 1056.66 L61.6384 1062.55 L12.1132 1062.55 L12.1132 1056.66 L31.4013 1056.66 Z" fill="#000000" fill-rule="nonzero" fill-opacity="1" /><path clip-path="url(#clip380)" d="M47.5702 1021.55 L25.9905 1021.55 L25.9905 1015.7 L47.3474 1015.7 Q52.4082 1015.7 54.9545 1013.72 Q57.4689 1011.75 57.4689 1007.8 Q57.4689 1003.06 54.4452 1000.32 Q51.4215 997.556 46.2016 997.556 L25.9905 997.556 L25.9905 991.699 L61.6384 991.699 L61.6384 997.556 L56.1639 997.556 Q59.4104 999.688 61.0019 1002.52 Q62.5615 1005.32 62.5615 1009.05 Q62.5615 1015.19 58.742 1018.37 Q54.9226 1021.55 47.5702 1021.55 M25.1311 1006.82 L25.1311 1006.82 Z" fill="#000000" fill-rule="nonzero" fill-opacity="1" /><path clip-path="url(#clip380)" d="M40.1224 950.004 L61.6384 950.004 L61.6384 955.86 L40.3133 955.86 Q35.2526 955.86 32.7381 957.834 Q30.2237 959.807 30.2237 963.754 Q30.2237 968.496 33.2474 971.234 Q36.2711 973.971 41.491 973.971 L61.6384 973.971 L61.6384 979.859 L25.9905 979.859 L25.9905 973.971 L31.5287 973.971 Q28.314 971.87 26.7225 969.037 Q25.1311 966.173 25.1311 962.449 Q25.1311 956.306 28.9505 953.155 Q32.7381 950.004 40.1224 950.004 Z" fill="#000000" fill-rule="nonzero" fill-opacity="1" /><path clip-path="url(#clip380)" d="M31.4013 914.865 L12.1132 914.865 L12.1132 909.009 L61.6384 909.009 L61.6384 914.865 L56.2912 914.865 Q59.4741 916.711 61.0337 919.544 Q62.5615 922.345 62.5615 926.292 Q62.5615 932.753 57.4052 936.827 Q52.249 940.869 43.8463 940.869 Q35.4436 940.869 30.2873 936.827 Q25.1311 932.753 25.1311 926.292 Q25.1311 922.345 26.6907 919.544 Q28.2185 916.711 31.4013 914.865 M43.8463 934.822 Q50.3075 934.822 53.9996 932.18 Q57.6599 929.506 57.6599 924.859 Q57.6599 920.212 53.9996 917.539 Q50.3075 914.865 43.8463 914.865 Q37.3851 914.865 33.7248 917.539 Q30.0327 920.212 30.0327 924.859 Q30.0327 929.506 33.7248 932.18 Q37.3851 934.822 43.8463 934.822 Z" fill="#000000" fill-rule="nonzero" fill-opacity="1" /><path clip-path="url(#clip380)" d="M43.719 880.745 Q43.719 887.843 45.3422 890.58 Q46.9655 893.317 50.8804 893.317 Q53.9996 893.317 55.8457 891.28 Q57.6599 889.211 57.6599 885.678 Q57.6599 880.809 54.2224 877.88 Q50.7531 874.92 45.0239 874.92 L43.719 874.92 L43.719 880.745 M41.3 869.064 L61.6384 869.064 L61.6384 874.92 L56.2276 874.92 Q59.4741 876.926 61.0337 879.918 Q62.5615 882.909 62.5615 887.238 Q62.5615 892.713 59.5059 895.959 Q56.4186 899.174 51.2623 899.174 Q45.2467 899.174 42.1912 895.163 Q39.1357 891.121 39.1357 883.132 L39.1357 874.92 L38.5628 874.92 Q34.5205 874.92 32.3244 877.594 Q30.0964 880.236 30.0964 885.042 Q30.0964 888.097 30.8284 890.994 Q31.5605 893.89 33.0246 896.564 L27.6137 896.564 Q26.3724 893.349 25.7677 890.325 Q25.1311 887.302 25.1311 884.437 Q25.1311 876.703 29.1415 872.883 Q33.1519 869.064 41.3 869.064 Z" fill="#000000" fill-rule="nonzero" fill-opacity="1" /><path clip-path="url(#clip380)" d="M40.1224 827.369 L61.6384 827.369 L61.6384 833.225 L40.3133 833.225 Q35.2526 833.225 32.7381 835.198 Q30.2237 837.172 30.2237 841.119 Q30.2237 845.861 33.2474 848.598 Q36.2711 851.335 41.491 851.335 L61.6384 851.335 L61.6384 857.224 L25.9905 857.224 L25.9905 851.335 L31.5287 851.335 Q28.314 849.235 26.7225 846.402 Q25.1311 843.537 25.1311 839.814 Q25.1311 833.671 28.9505 830.52 Q32.7381 827.369 40.1224 827.369 Z" fill="#000000" fill-rule="nonzero" fill-opacity="1" /><path clip-path="url(#clip380)" d="M27.3591 790.034 L32.8336 790.034 Q31.465 792.516 30.7966 795.031 Q30.0964 797.513 30.0964 800.06 Q30.0964 805.757 33.7248 808.908 Q37.3214 812.059 43.8463 812.059 Q50.3711 812.059 53.9996 808.908 Q57.5962 805.757 57.5962 800.06 Q57.5962 797.513 56.9278 795.031 Q56.2276 792.516 54.859 790.034 L60.2698 790.034 Q61.4156 792.485 61.9886 795.126 Q62.5615 797.736 62.5615 800.696 Q62.5615 808.749 57.5007 813.491 Q52.44 818.234 43.8463 818.234 Q35.1253 818.234 30.1282 813.46 Q25.1311 808.653 25.1311 800.314 Q25.1311 797.609 25.704 795.031 Q26.2451 792.453 27.3591 790.034 Z" fill="#000000" fill-rule="nonzero" fill-opacity="1" /><path clip-path="url(#clip380)" d="M42.3504 749.357 L45.2149 749.357 L45.2149 776.284 Q51.2623 775.902 54.4452 772.655 Q57.5962 769.377 57.5962 763.552 Q57.5962 760.179 56.7687 757.028 Q55.9411 753.845 54.2861 750.725 L59.8242 750.725 Q61.161 753.877 61.8612 757.187 Q62.5615 760.497 62.5615 763.902 Q62.5615 772.433 57.5962 777.43 Q52.631 782.395 44.1646 782.395 Q35.4117 782.395 30.2873 777.684 Q25.1311 772.942 25.1311 764.921 Q25.1311 757.728 29.7781 753.558 Q34.3932 749.357 42.3504 749.357 M40.6316 755.213 Q35.8255 755.277 32.9609 757.919 Q30.0964 760.529 30.0964 764.857 Q30.0964 769.759 32.8654 772.719 Q35.6345 775.647 40.6634 776.093 L40.6316 755.213 Z" fill="#000000" fill-rule="nonzero" fill-opacity="1" /><path clip-path="url(#clip380)" d="M717.109 14.0809 L717.109 22.0612 Q712.451 19.8332 708.319 18.7395 Q704.187 17.6457 700.339 17.6457 Q693.655 17.6457 690.009 20.2383 Q686.404 22.8309 686.404 27.611 Q686.404 31.6214 688.794 33.6873 Q691.224 35.7128 697.949 36.9686 L702.891 37.9813 Q712.046 39.7232 716.38 44.1387 Q720.755 48.5136 720.755 55.8863 Q720.755 64.6767 714.841 69.2137 Q708.967 73.7508 697.584 73.7508 Q693.29 73.7508 688.429 72.7785 Q683.608 71.8063 678.423 69.9024 L678.423 61.4765 Q683.406 64.2716 688.186 65.6895 Q692.966 67.1073 697.584 67.1073 Q704.592 67.1073 708.4 64.3527 Q712.208 61.598 712.208 56.4939 Q712.208 52.0379 709.453 49.5264 Q706.739 47.0148 700.501 45.759 L695.518 44.7868 Q686.363 42.9639 682.272 39.075 Q678.18 35.1862 678.18 28.2591 Q678.18 20.2383 683.811 15.6203 Q689.482 11.0023 699.407 11.0023 Q703.66 11.0023 708.076 11.7719 Q712.491 12.5416 717.109 14.0809 Z" fill="#000000" fill-rule="nonzero" fill-opacity="1" /><path clip-path="url(#clip380)" d="M740.564 14.324 L740.564 27.2059 L755.917 27.2059 L755.917 32.9987 L740.564 32.9987 L740.564 57.6282 Q740.564 63.1779 742.063 64.7578 Q743.602 66.3376 748.261 66.3376 L755.917 66.3376 L755.917 72.576 L748.261 72.576 Q739.633 72.576 736.351 69.3758 Q733.07 66.1351 733.07 57.6282 L733.07 32.9987 L727.601 32.9987 L727.601 27.2059 L733.07 27.2059 L733.07 14.324 L740.564 14.324 Z" fill="#000000" fill-rule="nonzero" fill-opacity="1" /><path clip-path="url(#clip380)" d="M783.301 32.4315 Q777.306 32.4315 773.822 37.1306 Q770.338 41.7891 770.338 49.9314 Q770.338 58.0738 773.782 62.7728 Q777.265 67.4314 783.301 67.4314 Q789.256 67.4314 792.74 62.7323 Q796.224 58.0333 796.224 49.9314 Q796.224 41.8701 792.74 37.1711 Q789.256 32.4315 783.301 32.4315 M783.301 26.1121 Q793.023 26.1121 798.573 32.4315 Q804.123 38.7509 804.123 49.9314 Q804.123 61.0714 798.573 67.4314 Q793.023 73.7508 783.301 73.7508 Q773.539 73.7508 767.989 67.4314 Q762.48 61.0714 762.48 49.9314 Q762.48 38.7509 767.989 32.4315 Q773.539 26.1121 783.301 26.1121 Z" fill="#000000" fill-rule="nonzero" fill-opacity="1" /><path clip-path="url(#clip380)" d="M849.128 28.9478 L849.128 35.9153 Q845.969 34.1734 842.769 33.3227 Q839.609 32.4315 836.368 32.4315 Q829.117 32.4315 825.107 37.0496 Q821.096 41.6271 821.096 49.9314 Q821.096 58.2358 825.107 62.8538 Q829.117 67.4314 836.368 67.4314 Q839.609 67.4314 842.769 66.5807 Q845.969 65.6895 849.128 63.9476 L849.128 70.8341 Q846.009 72.2924 842.647 73.0216 Q839.325 73.7508 835.558 73.7508 Q825.309 73.7508 819.273 67.3098 Q813.237 60.8689 813.237 49.9314 Q813.237 38.832 819.314 32.472 Q825.431 26.1121 836.044 26.1121 Q839.487 26.1121 842.769 26.8413 Q846.05 27.5299 849.128 28.9478 Z" fill="#000000" fill-rule="nonzero" fill-opacity="1" /><path clip-path="url(#clip380)" d="M861.808 9.54393 L869.302 9.54393 L869.302 46.7717 L891.541 27.2059 L901.061 27.2059 L876.999 48.4326 L902.074 72.576 L892.352 72.576 L869.302 50.4176 L869.302 72.576 L861.808 72.576 L861.808 9.54393 Z" fill="#000000" fill-rule="nonzero" fill-opacity="1" /><path clip-path="url(#clip380)" d="M906.368 46.5287 L928.202 46.5287 L928.202 53.1722 L906.368 53.1722 L906.368 46.5287 Z" fill="#000000" fill-rule="nonzero" fill-opacity="1" /><path clip-path="url(#clip380)" d="M969.076 44.2197 Q971.709 45.1109 974.18 48.0275 Q976.691 50.9442 979.203 56.0483 L987.507 72.576 L978.717 72.576 L970.98 57.061 Q967.982 50.9847 965.146 48.9997 Q962.351 47.0148 957.49 47.0148 L948.578 47.0148 L948.578 72.576 L940.395 72.576 L940.395 12.096 L958.867 12.096 Q969.238 12.096 974.342 16.4305 Q979.446 20.7649 979.446 29.5149 Q979.446 35.2267 976.772 38.994 Q974.139 42.7613 969.076 44.2197 M948.578 18.8205 L948.578 40.2903 L958.867 40.2903 Q964.782 40.2903 967.779 37.5762 Q970.818 34.8216 970.818 29.5149 Q970.818 24.2082 967.779 21.5346 Q964.782 18.8205 958.867 18.8205 L948.578 18.8205 Z" fill="#000000" fill-rule="nonzero" fill-opacity="1" /><path clip-path="url(#clip380)" d="M1032.8 48.0275 L1032.8 51.6733 L998.526 51.6733 Q999.012 59.3701 1003.14 63.421 Q1007.32 67.4314 1014.73 67.4314 Q1019.02 67.4314 1023.03 66.3781 Q1027.08 65.3249 1031.05 63.2184 L1031.05 70.267 Q1027.04 71.9684 1022.83 72.8596 Q1018.62 73.7508 1014.28 73.7508 Q1003.43 73.7508 997.067 67.4314 Q990.748 61.1119 990.748 50.3365 Q990.748 39.1965 996.743 32.6746 Q1002.78 26.1121 1012.99 26.1121 Q1022.14 26.1121 1027.45 32.0264 Q1032.8 37.9003 1032.8 48.0275 M1025.34 45.84 Q1025.26 39.7232 1021.9 36.0774 Q1018.58 32.4315 1013.07 32.4315 Q1006.83 32.4315 1003.06 35.9558 Q999.336 39.4801 998.769 45.8805 L1025.34 45.84 Z" fill="#000000" fill-rule="nonzero" fill-opacity="1" /><path clip-path="url(#clip380)" d="M1077.68 28.9478 L1077.68 35.9153 Q1074.52 34.1734 1071.32 33.3227 Q1068.16 32.4315 1064.92 32.4315 Q1057.67 32.4315 1053.66 37.0496 Q1049.65 41.6271 1049.65 49.9314 Q1049.65 58.2358 1053.66 62.8538 Q1057.67 67.4314 1064.92 67.4314 Q1068.16 67.4314 1071.32 66.5807 Q1074.52 65.6895 1077.68 63.9476 L1077.68 70.8341 Q1074.56 72.2924 1071.2 73.0216 Q1067.88 73.7508 1064.11 73.7508 Q1053.86 73.7508 1047.83 67.3098 Q1041.79 60.8689 1041.79 49.9314 Q1041.79 38.832 1047.87 32.472 Q1053.98 26.1121 1064.6 26.1121 Q1068.04 26.1121 1071.32 26.8413 Q1074.6 27.5299 1077.68 28.9478 Z" fill="#000000" fill-rule="nonzero" fill-opacity="1" /><path clip-path="url(#clip380)" d="M1116.93 34.1734 Q1115.68 33.4443 1114.18 33.1202 Q1112.72 32.7556 1110.94 32.7556 Q1104.62 32.7556 1101.22 36.8875 Q1097.85 40.9789 1097.85 48.6757 L1097.85 72.576 L1090.36 72.576 L1090.36 27.2059 L1097.85 27.2059 L1097.85 34.2544 Q1100.2 30.1225 1103.97 28.1376 Q1107.74 26.1121 1113.13 26.1121 Q1113.9 26.1121 1114.83 26.2337 Q1115.76 26.3147 1116.89 26.5172 L1116.93 34.1734 Z" fill="#000000" fill-rule="nonzero" fill-opacity="1" /><path clip-path="url(#clip380)" d="M1123.98 54.671 L1123.98 27.2059 L1131.44 27.2059 L1131.44 54.3874 Q1131.44 60.8284 1133.95 64.0691 Q1136.46 67.2693 1141.48 67.2693 Q1147.52 67.2693 1151 63.421 Q1154.53 59.5726 1154.53 52.9291 L1154.53 27.2059 L1161.98 27.2059 L1161.98 72.576 L1154.53 72.576 L1154.53 65.6084 Q1151.81 69.7404 1148.21 71.7658 Q1144.64 73.7508 1139.9 73.7508 Q1132.08 73.7508 1128.03 68.8897 Q1123.98 64.0286 1123.98 54.671 M1142.74 26.1121 L1142.74 26.1121 Z" fill="#000000" fill-rule="nonzero" fill-opacity="1" /><path clip-path="url(#clip380)" d="M1177.33 27.2059 L1184.79 27.2059 L1184.79 72.576 L1177.33 72.576 L1177.33 27.2059 M1177.33 9.54393 L1184.79 9.54393 L1184.79 18.9825 L1177.33 18.9825 L1177.33 9.54393 Z" fill="#000000" fill-rule="nonzero" fill-opacity="1" /><path clip-path="url(#clip380)" d="M1207.75 14.324 L1207.75 27.2059 L1223.11 27.2059 L1223.11 32.9987 L1207.75 32.9987 L1207.75 57.6282 Q1207.75 63.1779 1209.25 64.7578 Q1210.79 66.3376 1215.45 66.3376 L1223.11 66.3376 L1223.11 72.576 L1215.45 72.576 Q1206.82 72.576 1203.54 69.3758 Q1200.26 66.1351 1200.26 57.6282 L1200.26 32.9987 L1194.79 32.9987 L1194.79 27.2059 L1200.26 27.2059 L1200.26 14.324 L1207.75 14.324 Z" fill="#000000" fill-rule="nonzero" fill-opacity="1" /><path clip-path="url(#clip380)" d="M1268.23 35.9153 Q1271.03 30.8922 1274.92 28.5022 Q1278.81 26.1121 1284.07 26.1121 Q1291.16 26.1121 1295.01 31.0947 Q1298.86 36.0368 1298.86 45.1919 L1298.86 72.576 L1291.37 72.576 L1291.37 45.4349 Q1291.37 38.913 1289.06 35.7533 Q1286.75 32.5936 1282.01 32.5936 Q1276.22 32.5936 1272.85 36.4419 Q1269.49 40.2903 1269.49 46.9338 L1269.49 72.576 L1262 72.576 L1262 45.4349 Q1262 38.8725 1259.69 35.7533 Q1257.38 32.5936 1252.56 32.5936 Q1246.85 32.5936 1243.48 36.4824 Q1240.12 40.3308 1240.12 46.9338 L1240.12 72.576 L1232.63 72.576 L1232.63 27.2059 L1240.12 27.2059 L1240.12 34.2544 Q1242.67 30.082 1246.24 28.0971 Q1249.8 26.1121 1254.7 26.1121 Q1259.65 26.1121 1263.09 28.6237 Q1266.57 31.1352 1268.23 35.9153 Z" fill="#000000" fill-rule="nonzero" fill-opacity="1" /><path clip-path="url(#clip380)" d="M1352.53 48.0275 L1352.53 51.6733 L1318.26 51.6733 Q1318.75 59.3701 1322.88 63.421 Q1327.05 67.4314 1334.47 67.4314 Q1338.76 67.4314 1342.77 66.3781 Q1346.82 65.3249 1350.79 63.2184 L1350.79 70.267 Q1346.78 71.9684 1342.57 72.8596 Q1338.36 73.7508 1334.02 73.7508 Q1323.17 73.7508 1316.81 67.4314 Q1310.49 61.1119 1310.49 50.3365 Q1310.49 39.1965 1316.48 32.6746 Q1322.52 26.1121 1332.73 26.1121 Q1341.88 26.1121 1347.19 32.0264 Q1352.53 37.9003 1352.53 48.0275 M1345.08 45.84 Q1345 39.7232 1341.64 36.0774 Q1338.32 32.4315 1332.81 32.4315 Q1326.57 32.4315 1322.8 35.9558 Q1319.07 39.4801 1318.51 45.8805 L1345.08 45.84 Z" fill="#000000" fill-rule="nonzero" fill-opacity="1" /><path clip-path="url(#clip380)" d="M1402.48 45.1919 L1402.48 72.576 L1395.03 72.576 L1395.03 45.4349 Q1395.03 38.994 1392.52 35.7938 Q1390.01 32.5936 1384.98 32.5936 Q1378.95 32.5936 1375.46 36.4419 Q1371.98 40.2903 1371.98 46.9338 L1371.98 72.576 L1364.48 72.576 L1364.48 27.2059 L1371.98 27.2059 L1371.98 34.2544 Q1374.65 30.163 1378.26 28.1376 Q1381.9 26.1121 1386.64 26.1121 Q1394.46 26.1121 1398.47 30.9732 Q1402.48 35.7938 1402.48 45.1919 Z" fill="#000000" fill-rule="nonzero" fill-opacity="1" /><path clip-path="url(#clip380)" d="M1424.72 14.324 L1424.72 27.2059 L1440.07 27.2059 L1440.07 32.9987 L1424.72 32.9987 L1424.72 57.6282 Q1424.72 63.1779 1426.22 64.7578 Q1427.76 66.3376 1432.42 66.3376 L1440.07 66.3376 L1440.07 72.576 L1432.42 72.576 Q1423.79 72.576 1420.51 69.3758 Q1417.23 66.1351 1417.23 57.6282 L1417.23 32.9987 L1411.76 32.9987 L1411.76 27.2059 L1417.23 27.2059 L1417.23 14.324 L1424.72 14.324 Z" fill="#000000" fill-rule="nonzero" fill-opacity="1" /><path clip-path="url(#clip380)" d="M1451.78 62.2867 L1460.33 62.2867 L1460.33 72.576 L1451.78 72.576 L1451.78 62.2867 M1451.78 29.6769 L1460.33 29.6769 L1460.33 39.9662 L1451.78 39.9662 L1451.78 29.6769 Z" fill="#000000" fill-rule="nonzero" fill-opacity="1" /><path clip-path="url(#clip380)" d="M1540.78 14.0809 L1540.78 22.0612 Q1536.12 19.8332 1531.99 18.7395 Q1527.86 17.6457 1524.01 17.6457 Q1517.33 17.6457 1513.68 20.2383 Q1510.07 22.8309 1510.07 27.611 Q1510.07 31.6214 1512.46 33.6873 Q1514.89 35.7128 1521.62 36.9686 L1526.56 37.9813 Q1535.72 39.7232 1540.05 44.1387 Q1544.43 48.5136 1544.43 55.8863 Q1544.43 64.6767 1538.51 69.2137 Q1532.64 73.7508 1521.25 73.7508 Q1516.96 73.7508 1512.1 72.7785 Q1507.28 71.8063 1502.09 69.9024 L1502.09 61.4765 Q1507.08 64.2716 1511.86 65.6895 Q1516.64 67.1073 1521.25 67.1073 Q1528.26 67.1073 1532.07 64.3527 Q1535.88 61.598 1535.88 56.4939 Q1535.88 52.0379 1533.12 49.5264 Q1530.41 47.0148 1524.17 45.759 L1519.19 44.7868 Q1510.03 42.9639 1505.94 39.075 Q1501.85 35.1862 1501.85 28.2591 Q1501.85 20.2383 1507.48 15.6203 Q1513.15 11.0023 1523.08 11.0023 Q1527.33 11.0023 1531.75 11.7719 Q1536.16 12.5416 1540.78 14.0809 Z" fill="#000000" fill-rule="nonzero" fill-opacity="1" /><path clip-path="url(#clip380)" d="M1556.86 27.2059 L1564.32 27.2059 L1564.32 72.576 L1556.86 72.576 L1556.86 27.2059 M1556.86 9.54393 L1564.32 9.54393 L1564.32 18.9825 L1556.86 18.9825 L1556.86 9.54393 Z" fill="#000000" fill-rule="nonzero" fill-opacity="1" /><path clip-path="url(#clip380)" d="M1615.24 35.9153 Q1618.03 30.8922 1621.92 28.5022 Q1625.81 26.1121 1631.07 26.1121 Q1638.16 26.1121 1642.01 31.0947 Q1645.86 36.0368 1645.86 45.1919 L1645.86 72.576 L1638.37 72.576 L1638.37 45.4349 Q1638.37 38.913 1636.06 35.7533 Q1633.75 32.5936 1629.01 32.5936 Q1623.22 32.5936 1619.85 36.4419 Q1616.49 40.2903 1616.49 46.9338 L1616.49 72.576 L1609 72.576 L1609 45.4349 Q1609 38.8725 1606.69 35.7533 Q1604.38 32.5936 1599.56 32.5936 Q1593.85 32.5936 1590.48 36.4824 Q1587.12 40.3308 1587.12 46.9338 L1587.12 72.576 L1579.63 72.576 L1579.63 27.2059 L1587.12 27.2059 L1587.12 34.2544 Q1589.67 30.082 1593.24 28.0971 Q1596.8 26.1121 1601.71 26.1121 Q1606.65 26.1121 1610.09 28.6237 Q1613.57 31.1352 1615.24 35.9153 Z" fill="#000000" fill-rule="nonzero" fill-opacity="1" /><path clip-path="url(#clip380)" d="M1659.96 54.671 L1659.96 27.2059 L1667.41 27.2059 L1667.41 54.3874 Q1667.41 60.8284 1669.92 64.0691 Q1672.43 67.2693 1677.46 67.2693 Q1683.49 67.2693 1686.98 63.421 Q1690.5 59.5726 1690.5 52.9291 L1690.5 27.2059 L1697.95 27.2059 L1697.95 72.576 L1690.5 72.576 L1690.5 65.6084 Q1687.79 69.7404 1684.18 71.7658 Q1680.62 73.7508 1675.88 73.7508 Q1668.06 73.7508 1664.01 68.8897 Q1659.96 64.0286 1659.96 54.671 M1678.71 26.1121 L1678.71 26.1121 Z" fill="#000000" fill-rule="nonzero" fill-opacity="1" /><path clip-path="url(#clip380)" d="M1713.31 9.54393 L1720.76 9.54393 L1720.76 72.576 L1713.31 72.576 L1713.31 9.54393 Z" fill="#000000" fill-rule="nonzero" fill-opacity="1" /><path clip-path="url(#clip380)" d="M1756.98 49.7694 Q1747.94 49.7694 1744.46 51.8354 Q1740.98 53.9013 1740.98 58.8839 Q1740.98 62.8538 1743.57 65.2034 Q1746.2 67.5124 1750.7 67.5124 Q1756.9 67.5124 1760.62 63.1374 Q1764.39 58.7219 1764.39 51.4303 L1764.39 49.7694 L1756.98 49.7694 M1771.84 46.6907 L1771.84 72.576 L1764.39 72.576 L1764.39 65.6895 Q1761.84 69.8214 1758.03 71.8063 Q1754.22 73.7508 1748.71 73.7508 Q1741.75 73.7508 1737.61 69.8619 Q1733.52 65.9325 1733.52 59.3701 Q1733.52 51.7138 1738.63 47.825 Q1743.77 43.9361 1753.94 43.9361 L1764.39 43.9361 L1764.39 43.2069 Q1764.39 38.0623 1760.99 35.2672 Q1757.62 32.4315 1751.51 32.4315 Q1747.62 32.4315 1743.93 33.3632 Q1740.25 34.295 1736.84 36.1584 L1736.84 29.2718 Q1740.94 27.692 1744.78 26.9223 Q1748.63 26.1121 1752.28 26.1121 Q1762.12 26.1121 1766.98 31.2163 Q1771.84 36.3204 1771.84 46.6907 Z" fill="#000000" fill-rule="nonzero" fill-opacity="1" /><path clip-path="url(#clip380)" d="M1794.57 14.324 L1794.57 27.2059 L1809.92 27.2059 L1809.92 32.9987 L1794.57 32.9987 L1794.57 57.6282 Q1794.57 63.1779 1796.07 64.7578 Q1797.61 66.3376 1802.27 66.3376 L1809.92 66.3376 L1809.92 72.576 L1802.27 72.576 Q1793.64 72.576 1790.36 69.3758 Q1787.07 66.1351 1787.07 57.6282 L1787.07 32.9987 L1781.61 32.9987 L1781.61 27.2059 L1787.07 27.2059 L1787.07 14.324 L1794.57 14.324 Z" fill="#000000" fill-rule="nonzero" fill-opacity="1" /><path clip-path="url(#clip380)" d="M1858.53 48.0275 L1858.53 51.6733 L1824.26 51.6733 Q1824.75 59.3701 1828.88 63.421 Q1833.05 67.4314 1840.47 67.4314 Q1844.76 67.4314 1848.77 66.3781 Q1852.82 65.3249 1856.79 63.2184 L1856.79 70.267 Q1852.78 71.9684 1848.57 72.8596 Q1844.35 73.7508 1840.02 73.7508 Q1829.16 73.7508 1822.8 67.4314 Q1816.48 61.1119 1816.48 50.3365 Q1816.48 39.1965 1822.48 32.6746 Q1828.52 26.1121 1838.72 26.1121 Q1847.88 26.1121 1853.19 32.0264 Q1858.53 37.9003 1858.53 48.0275 M1851.08 45.84 Q1851 39.7232 1847.64 36.0774 Q1844.31 32.4315 1838.8 32.4315 Q1832.57 32.4315 1828.8 35.9558 Q1825.07 39.4801 1824.51 45.8805 L1851.08 45.84 Z" fill="#000000" fill-rule="nonzero" fill-opacity="1" /><path clip-path="url(#clip380)" d="M1900.62 34.0924 L1900.62 9.54393 L1908.08 9.54393 L1908.08 72.576 L1900.62 72.576 L1900.62 65.7705 Q1898.27 69.8214 1894.67 71.8063 Q1891.1 73.7508 1886.08 73.7508 Q1877.86 73.7508 1872.67 67.1883 Q1867.53 60.6258 1867.53 49.9314 Q1867.53 39.2371 1872.67 32.6746 Q1877.86 26.1121 1886.08 26.1121 Q1891.1 26.1121 1894.67 28.0971 Q1898.27 30.0415 1900.62 34.0924 M1875.22 49.9314 Q1875.22 58.1548 1878.58 62.8538 Q1881.99 67.5124 1887.9 67.5124 Q1893.82 67.5124 1897.22 62.8538 Q1900.62 58.1548 1900.62 49.9314 Q1900.62 41.7081 1897.22 37.0496 Q1893.82 32.3505 1887.9 32.3505 Q1881.99 32.3505 1878.58 37.0496 Q1875.22 41.7081 1875.22 49.9314 Z" fill="#000000" fill-rule="nonzero" fill-opacity="1" /><path clip-path="url(#clip380)" d="M1950.12 12.096 L1984.88 12.096 L1984.88 18.9825 L1958.31 18.9825 L1958.31 36.8065 L1982.29 36.8065 L1982.29 43.6931 L1958.31 43.6931 L1958.31 72.576 L1950.12 72.576 L1950.12 12.096 Z" fill="#000000" fill-rule="nonzero" fill-opacity="1" /><path clip-path="url(#clip380)" d="M1991.48 27.2059 L1998.94 27.2059 L1998.94 72.576 L1991.48 72.576 L1991.48 27.2059 M1991.48 9.54393 L1998.94 9.54393 L1998.94 18.9825 L1991.48 18.9825 L1991.48 9.54393 Z" fill="#000000" fill-rule="nonzero" fill-opacity="1" /><path clip-path="url(#clip380)" d="M2043.46 28.5427 L2043.46 35.5912 Q2040.3 33.9709 2036.89 33.1607 Q2033.49 32.3505 2029.85 32.3505 Q2024.3 32.3505 2021.5 34.0519 Q2018.75 35.7533 2018.75 39.156 Q2018.75 41.7486 2020.73 43.2475 Q2022.72 44.7058 2028.71 46.0426 L2031.26 46.6097 Q2039.2 48.3111 2042.52 51.4303 Q2045.89 54.509 2045.89 60.0587 Q2045.89 66.3781 2040.86 70.0644 Q2035.88 73.7508 2027.13 73.7508 Q2023.49 73.7508 2019.52 73.0216 Q2015.59 72.3329 2011.21 70.9151 L2011.21 63.2184 Q2015.34 65.3654 2019.35 66.4591 Q2023.36 67.5124 2027.29 67.5124 Q2032.56 67.5124 2035.4 65.73 Q2038.23 63.9071 2038.23 60.6258 Q2038.23 57.5877 2036.16 55.9673 Q2034.14 54.3469 2027.21 52.8481 L2024.62 52.2405 Q2017.69 50.7821 2014.61 47.7845 Q2011.54 44.7463 2011.54 39.4801 Q2011.54 33.0797 2016.07 29.5959 Q2020.61 26.1121 2028.95 26.1121 Q2033.09 26.1121 2036.73 26.7198 Q2040.38 27.3274 2043.46 28.5427 Z" fill="#000000" fill-rule="nonzero" fill-opacity="1" /><path clip-path="url(#clip380)" d="M2095.47 45.1919 L2095.47 72.576 L2088.02 72.576 L2088.02 45.4349 Q2088.02 38.994 2085.5 35.7938 Q2082.99 32.5936 2077.97 32.5936 Q2071.93 32.5936 2068.45 36.4419 Q2064.97 40.2903 2064.97 46.9338 L2064.97 72.576 L2057.47 72.576 L2057.47 9.54393 L2064.97 9.54393 L2064.97 34.2544 Q2067.64 30.163 2071.25 28.1376 Q2074.89 26.1121 2079.63 26.1121 Q2087.45 26.1121 2091.46 30.9732 Q2095.47 35.7938 2095.47 45.1919 Z" fill="#000000" fill-rule="nonzero" fill-opacity="1" /><path clip-path="url(#clip380)" d="M2149.14 48.0275 L2149.14 51.6733 L2114.87 51.6733 Q2115.36 59.3701 2119.49 63.421 Q2123.66 67.4314 2131.08 67.4314 Q2135.37 67.4314 2139.38 66.3781 Q2143.43 65.3249 2147.4 63.2184 L2147.4 70.267 Q2143.39 71.9684 2139.18 72.8596 Q2134.97 73.7508 2130.63 73.7508 Q2119.78 73.7508 2113.42 67.4314 Q2107.1 61.1119 2107.1 50.3365 Q2107.1 39.1965 2113.09 32.6746 Q2119.13 26.1121 2129.34 26.1121 Q2138.49 26.1121 2143.8 32.0264 Q2149.14 37.9003 2149.14 48.0275 M2141.69 45.84 Q2141.61 39.7232 2138.25 36.0774 Q2134.93 32.4315 2129.42 32.4315 Q2123.18 32.4315 2119.41 35.9558 Q2115.68 39.4801 2115.12 45.8805 L2141.69 45.84 Z" fill="#000000" fill-rule="nonzero" fill-opacity="1" /><path clip-path="url(#clip380)" d="M2187.67 34.1734 Q2186.41 33.4443 2184.91 33.1202 Q2183.46 32.7556 2181.67 32.7556 Q2175.35 32.7556 2171.95 36.8875 Q2168.59 40.9789 2168.59 48.6757 L2168.59 72.576 L2161.09 72.576 L2161.09 27.2059 L2168.59 27.2059 L2168.59 34.2544 Q2170.94 30.1225 2174.71 28.1376 Q2178.47 26.1121 2183.86 26.1121 Q2184.63 26.1121 2185.56 26.2337 Q2186.49 26.3147 2187.63 26.5172 L2187.67 34.1734 Z" fill="#000000" fill-rule="nonzero" fill-opacity="1" /><path clip-path="url(#clip380)" d="M2214.36 76.7889 Q2211.2 84.8907 2208.21 87.3618 Q2205.21 89.8329 2200.19 89.8329 L2194.23 89.8329 L2194.23 83.5945 L2198.61 83.5945 Q2201.68 83.5945 2203.39 82.1361 Q2205.09 80.6778 2207.15 75.2496 L2208.49 71.8468 L2190.14 27.2059 L2198.04 27.2059 L2212.22 62.6918 L2226.4 27.2059 L2234.29 27.2059 L2214.36 76.7889 Z" fill="#000000" fill-rule="nonzero" fill-opacity="1" /><polyline clip-path="url(#clip381)" style="stroke:#000000; stroke-linecap:round; stroke-linejoin:round; stroke-width:8; stroke-opacity:1; fill:none" stroke-dasharray="32, 20" points="338.767,1688.65 384.378,1615.13 429.989,1497.54 475.6,1340.32 521.211,1163.96 566.822,991.234 612.433,836.559 658.044,705.569 703.655,598.435 749.266,512.747 794.878,445.217 840.489,392.531 886.1,351.714 931.711,320.252 977.322,296.087 1022.93,277.577 1068.54,263.426 1114.15,252.623 1159.77,244.386 1205.38,238.109 1250.99,233.33 1296.6,229.692 1342.21,226.925 1387.82,224.82 1433.43,223.219 1479.04,222.001 1524.65,221.076 1570.27,220.372 1615.88,219.838 1661.49,219.431 1707.1,219.122 1752.71,218.887 1798.32,218.709 1843.93,218.573 1889.54,218.47 1935.15,218.392 1980.76,218.332 2026.38,218.287 2071.99,218.252 2117.6,218.226 2163.21,218.206 2208.82,218.191 2254.43,218.18 2300.04,218.171 2345.65,218.164 2391.26,218.159 2436.87,218.156 2482.49,218.153 2528.1,218.15 2573.71,218.149 "/>
<circle clip-path="url(#clip381)" cx="338.767" cy="1684.4" r="14.4" fill="#4682b4" fill-rule="evenodd" fill-opacity="0.7" stroke="#000000" stroke-opacity="0.7" stroke-width="3.84"/>
<circle clip-path="url(#clip381)" cx="384.378" cy="1622.09" r="14.4" fill="#4682b4" fill-rule="evenodd" fill-opacity="0.7" stroke="#000000" stroke-opacity="0.7" stroke-width="3.84"/>
<circle clip-path="url(#clip381)" cx="429.989" cy="1505.23" r="14.4" fill="#4682b4" fill-rule="evenodd" fill-opacity="0.7" stroke="#000000" stroke-opacity="0.7" stroke-width="3.84"/>
<circle clip-path="url(#clip381)" cx="475.6" cy="1341.54" r="14.4" fill="#4682b4" fill-rule="evenodd" fill-opacity="0.7" stroke="#000000" stroke-opacity="0.7" stroke-width="3.84"/>
<circle clip-path="url(#clip381)" cx="521.211" cy="1154.63" r="14.4" fill="#4682b4" fill-rule="evenodd" fill-opacity="0.7" stroke="#000000" stroke-opacity="0.7" stroke-width="3.84"/>
<circle clip-path="url(#clip381)" cx="566.822" cy="966.556" r="14.4" fill="#4682b4" fill-rule="evenodd" fill-opacity="0.7" stroke="#000000" stroke-opacity="0.7" stroke-width="3.84"/>
<circle clip-path="url(#clip381)" cx="612.433" cy="843.498" r="14.4" fill="#4682b4" fill-rule="evenodd" fill-opacity="0.7" stroke="#000000" stroke-opacity="0.7" stroke-width="3.84"/>
<circle clip-path="url(#clip381)" cx="658.044" cy="729.727" r="14.4" fill="#4682b4" fill-rule="evenodd" fill-opacity="0.7" stroke="#000000" stroke-opacity="0.7" stroke-width="3.84"/>
<circle clip-path="url(#clip381)" cx="703.655" cy="589.641" r="14.4" fill="#4682b4" fill-rule="evenodd" fill-opacity="0.7" stroke="#000000" stroke-opacity="0.7" stroke-width="3.84"/>
<circle clip-path="url(#clip381)" cx="749.266" cy="492.123" r="14.4" fill="#4682b4" fill-rule="evenodd" fill-opacity="0.7" stroke="#000000" stroke-opacity="0.7" stroke-width="3.84"/>
<circle clip-path="url(#clip381)" cx="794.878" cy="442.59" r="14.4" fill="#4682b4" fill-rule="evenodd" fill-opacity="0.7" stroke="#000000" stroke-opacity="0.7" stroke-width="3.84"/>
<circle clip-path="url(#clip381)" cx="840.489" cy="399.636" r="14.4" fill="#4682b4" fill-rule="evenodd" fill-opacity="0.7" stroke="#000000" stroke-opacity="0.7" stroke-width="3.84"/>
<circle clip-path="url(#clip381)" cx="886.1" cy="324.562" r="14.4" fill="#4682b4" fill-rule="evenodd" fill-opacity="0.7" stroke="#000000" stroke-opacity="0.7" stroke-width="3.84"/>
<circle clip-path="url(#clip381)" cx="931.711" cy="314.501" r="14.4" fill="#4682b4" fill-rule="evenodd" fill-opacity="0.7" stroke="#000000" stroke-opacity="0.7" stroke-width="3.84"/>
<circle clip-path="url(#clip381)" cx="977.322" cy="291.669" r="14.4" fill="#4682b4" fill-rule="evenodd" fill-opacity="0.7" stroke="#000000" stroke-opacity="0.7" stroke-width="3.84"/>
<circle clip-path="url(#clip381)" cx="1022.93" cy="250.649" r="14.4" fill="#4682b4" fill-rule="evenodd" fill-opacity="0.7" stroke="#000000" stroke-opacity="0.7" stroke-width="3.84"/>
<circle clip-path="url(#clip381)" cx="1068.54" cy="256.454" r="14.4" fill="#4682b4" fill-rule="evenodd" fill-opacity="0.7" stroke="#000000" stroke-opacity="0.7" stroke-width="3.84"/>
<circle clip-path="url(#clip381)" cx="1114.15" cy="289.734" r="14.4" fill="#4682b4" fill-rule="evenodd" fill-opacity="0.7" stroke="#000000" stroke-opacity="0.7" stroke-width="3.84"/>
<circle clip-path="url(#clip381)" cx="1159.77" cy="259.55" r="14.4" fill="#4682b4" fill-rule="evenodd" fill-opacity="0.7" stroke="#000000" stroke-opacity="0.7" stroke-width="3.84"/>
<circle clip-path="url(#clip381)" cx="1205.38" cy="205.76" r="14.4" fill="#4682b4" fill-rule="evenodd" fill-opacity="0.7" stroke="#000000" stroke-opacity="0.7" stroke-width="3.84"/>
<circle clip-path="url(#clip381)" cx="1250.99" cy="249.876" r="14.4" fill="#4682b4" fill-rule="evenodd" fill-opacity="0.7" stroke="#000000" stroke-opacity="0.7" stroke-width="3.84"/>
<circle clip-path="url(#clip381)" cx="1296.6" cy="210.017" r="14.4" fill="#4682b4" fill-rule="evenodd" fill-opacity="0.7" stroke="#000000" stroke-opacity="0.7" stroke-width="3.84"/>
<circle clip-path="url(#clip381)" cx="1342.21" cy="236.331" r="14.4" fill="#4682b4" fill-rule="evenodd" fill-opacity="0.7" stroke="#000000" stroke-opacity="0.7" stroke-width="3.84"/>
<circle clip-path="url(#clip381)" cx="1387.82" cy="232.462" r="14.4" fill="#4682b4" fill-rule="evenodd" fill-opacity="0.7" stroke="#000000" stroke-opacity="0.7" stroke-width="3.84"/>
<circle clip-path="url(#clip381)" cx="1433.43" cy="220.852" r="14.4" fill="#4682b4" fill-rule="evenodd" fill-opacity="0.7" stroke="#000000" stroke-opacity="0.7" stroke-width="3.84"/>
<circle clip-path="url(#clip381)" cx="1479.04" cy="245.619" r="14.4" fill="#4682b4" fill-rule="evenodd" fill-opacity="0.7" stroke="#000000" stroke-opacity="0.7" stroke-width="3.84"/>
<circle clip-path="url(#clip381)" cx="1524.65" cy="189.12" r="14.4" fill="#4682b4" fill-rule="evenodd" fill-opacity="0.7" stroke="#000000" stroke-opacity="0.7" stroke-width="3.84"/>
<circle clip-path="url(#clip381)" cx="1570.27" cy="210.791" r="14.4" fill="#4682b4" fill-rule="evenodd" fill-opacity="0.7" stroke="#000000" stroke-opacity="0.7" stroke-width="3.84"/>
<circle clip-path="url(#clip381)" cx="1615.88" cy="190.668" r="14.4" fill="#4682b4" fill-rule="evenodd" fill-opacity="0.7" stroke="#000000" stroke-opacity="0.7" stroke-width="3.84"/>
<circle clip-path="url(#clip381)" cx="1661.49" cy="249.876" r="14.4" fill="#4682b4" fill-rule="evenodd" fill-opacity="0.7" stroke="#000000" stroke-opacity="0.7" stroke-width="3.84"/>
<circle clip-path="url(#clip381)" cx="1707.1" cy="220.078" r="14.4" fill="#4682b4" fill-rule="evenodd" fill-opacity="0.7" stroke="#000000" stroke-opacity="0.7" stroke-width="3.84"/>
<circle clip-path="url(#clip381)" cx="1752.71" cy="234.783" r="14.4" fill="#4682b4" fill-rule="evenodd" fill-opacity="0.7" stroke="#000000" stroke-opacity="0.7" stroke-width="3.84"/>
<circle clip-path="url(#clip381)" cx="1798.32" cy="242.523" r="14.4" fill="#4682b4" fill-rule="evenodd" fill-opacity="0.7" stroke="#000000" stroke-opacity="0.7" stroke-width="3.84"/>
<circle clip-path="url(#clip381)" cx="1843.93" cy="209.63" r="14.4" fill="#4682b4" fill-rule="evenodd" fill-opacity="0.7" stroke="#000000" stroke-opacity="0.7" stroke-width="3.84"/>
<circle clip-path="url(#clip381)" cx="1889.54" cy="225.109" r="14.4" fill="#4682b4" fill-rule="evenodd" fill-opacity="0.7" stroke="#000000" stroke-opacity="0.7" stroke-width="3.84"/>
<circle clip-path="url(#clip381)" cx="1935.15" cy="195.699" r="14.4" fill="#4682b4" fill-rule="evenodd" fill-opacity="0.7" stroke="#000000" stroke-opacity="0.7" stroke-width="3.84"/>
<circle clip-path="url(#clip381)" cx="1980.76" cy="205.76" r="14.4" fill="#4682b4" fill-rule="evenodd" fill-opacity="0.7" stroke="#000000" stroke-opacity="0.7" stroke-width="3.84"/>
<circle clip-path="url(#clip381)" cx="2026.38" cy="220.852" r="14.4" fill="#4682b4" fill-rule="evenodd" fill-opacity="0.7" stroke="#000000" stroke-opacity="0.7" stroke-width="3.84"/>
<circle clip-path="url(#clip381)" cx="2071.99" cy="225.496" r="14.4" fill="#4682b4" fill-rule="evenodd" fill-opacity="0.7" stroke="#000000" stroke-opacity="0.7" stroke-width="3.84"/>
<circle clip-path="url(#clip381)" cx="2117.6" cy="223.561" r="14.4" fill="#4682b4" fill-rule="evenodd" fill-opacity="0.7" stroke="#000000" stroke-opacity="0.7" stroke-width="3.84"/>
<circle clip-path="url(#clip381)" cx="2163.21" cy="223.948" r="14.4" fill="#4682b4" fill-rule="evenodd" fill-opacity="0.7" stroke="#000000" stroke-opacity="0.7" stroke-width="3.84"/>
<circle clip-path="url(#clip381)" cx="2208.82" cy="246.393" r="14.4" fill="#4682b4" fill-rule="evenodd" fill-opacity="0.7" stroke="#000000" stroke-opacity="0.7" stroke-width="3.84"/>
<circle clip-path="url(#clip381)" cx="2254.43" cy="245.232" r="14.4" fill="#4682b4" fill-rule="evenodd" fill-opacity="0.7" stroke="#000000" stroke-opacity="0.7" stroke-width="3.84"/>
<circle clip-path="url(#clip381)" cx="2300.04" cy="221.239" r="14.4" fill="#4682b4" fill-rule="evenodd" fill-opacity="0.7" stroke="#000000" stroke-opacity="0.7" stroke-width="3.84"/>
<circle clip-path="url(#clip381)" cx="2345.65" cy="184.476" r="14.4" fill="#4682b4" fill-rule="evenodd" fill-opacity="0.7" stroke="#000000" stroke-opacity="0.7" stroke-width="3.84"/>
<circle clip-path="url(#clip381)" cx="2391.26" cy="230.914" r="14.4" fill="#4682b4" fill-rule="evenodd" fill-opacity="0.7" stroke="#000000" stroke-opacity="0.7" stroke-width="3.84"/>
<circle clip-path="url(#clip381)" cx="2436.87" cy="173.254" r="14.4" fill="#4682b4" fill-rule="evenodd" fill-opacity="0.7" stroke="#000000" stroke-opacity="0.7" stroke-width="3.84"/>
<circle clip-path="url(#clip381)" cx="2482.49" cy="229.753" r="14.4" fill="#4682b4" fill-rule="evenodd" fill-opacity="0.7" stroke="#000000" stroke-opacity="0.7" stroke-width="3.84"/>
<circle clip-path="url(#clip381)" cx="2528.1" cy="200.729" r="14.4" fill="#4682b4" fill-rule="evenodd" fill-opacity="0.7" stroke="#000000" stroke-opacity="0.7" stroke-width="3.84"/>
<circle clip-path="url(#clip381)" cx="2573.71" cy="222.787" r="14.4" fill="#4682b4" fill-rule="evenodd" fill-opacity="0.7" stroke="#000000" stroke-opacity="0.7" stroke-width="3.84"/>
<path clip-path="url(#clip380)" d="M1980.81 1680.57 L2561.79 1680.57 L2561.79 1525.05 L1980.81 1525.05  Z" fill="#ffffff" fill-rule="evenodd" fill-opacity="1"/>
<polyline clip-path="url(#clip380)" style="stroke:#000000; stroke-linecap:round; stroke-linejoin:round; stroke-width:4; stroke-opacity:1; fill:none" points="1980.81,1680.57 2561.79,1680.57 2561.79,1525.05 1980.81,1525.05 1980.81,1680.57 "/>
<polyline clip-path="url(#clip380)" style="stroke:#000000; stroke-linecap:round; stroke-linejoin:round; stroke-width:8; stroke-opacity:1; fill:none" stroke-dasharray="32, 20" points="2007.13,1576.89 2165.07,1576.89 "/>
<path clip-path="url(#clip380)" d="M2191.39 1559.61 L2220.63 1559.61 L2220.63 1563.55 L2208.36 1563.55 L2208.36 1594.17 L2203.66 1594.17 L2203.66 1563.55 L2191.39 1563.55 L2191.39 1559.61 Z" fill="#000000" fill-rule="nonzero" fill-opacity="1" /><path clip-path="url(#clip380)" d="M2233.01 1572.23 Q2232.3 1571.81 2231.44 1571.63 Q2230.61 1571.42 2229.59 1571.42 Q2225.98 1571.42 2224.03 1573.78 Q2222.11 1576.12 2222.11 1580.52 L2222.11 1594.17 L2217.83 1594.17 L2217.83 1568.25 L2222.11 1568.25 L2222.11 1572.27 Q2223.45 1569.91 2225.61 1568.78 Q2227.76 1567.62 2230.84 1567.62 Q2231.28 1567.62 2231.81 1567.69 Q2232.34 1567.74 2232.99 1567.85 L2233.01 1572.23 Z" fill="#000000" fill-rule="nonzero" fill-opacity="1" /><path clip-path="url(#clip380)" d="M2237.04 1583.94 L2237.04 1568.25 L2241.3 1568.25 L2241.3 1583.78 Q2241.3 1587.46 2242.74 1589.31 Q2244.17 1591.14 2247.04 1591.14 Q2250.49 1591.14 2252.48 1588.94 Q2254.49 1586.74 2254.49 1582.95 L2254.49 1568.25 L2258.75 1568.25 L2258.75 1594.17 L2254.49 1594.17 L2254.49 1590.19 Q2252.94 1592.55 2250.88 1593.71 Q2248.85 1594.84 2246.14 1594.84 Q2241.67 1594.84 2239.36 1592.07 Q2237.04 1589.29 2237.04 1583.94 M2247.76 1567.62 L2247.76 1567.62 Z" fill="#000000" fill-rule="nonzero" fill-opacity="1" /><path clip-path="url(#clip380)" d="M2289.7 1580.15 L2289.7 1582.23 L2270.12 1582.23 Q2270.4 1586.63 2272.76 1588.94 Q2275.14 1591.23 2279.38 1591.23 Q2281.83 1591.23 2284.12 1590.63 Q2286.44 1590.03 2288.71 1588.83 L2288.71 1592.85 Q2286.42 1593.83 2284.01 1594.33 Q2281.6 1594.84 2279.12 1594.84 Q2272.92 1594.84 2269.29 1591.23 Q2265.68 1587.62 2265.68 1581.46 Q2265.68 1575.1 2269.1 1571.37 Q2272.55 1567.62 2278.38 1567.62 Q2283.61 1567.62 2286.65 1571 Q2289.7 1574.36 2289.7 1580.15 M2285.44 1578.9 Q2285.4 1575.4 2283.48 1573.32 Q2281.58 1571.23 2278.43 1571.23 Q2274.86 1571.23 2272.71 1573.25 Q2270.58 1575.26 2270.26 1578.92 L2285.44 1578.9 Z" fill="#000000" fill-rule="nonzero" fill-opacity="1" /><path clip-path="url(#clip380)" d="M2311.95 1559.61 L2318.24 1559.61 L2333.57 1588.52 L2333.57 1559.61 L2338.11 1559.61 L2338.11 1594.17 L2331.81 1594.17 L2316.49 1565.26 L2316.49 1594.17 L2311.95 1594.17 L2311.95 1559.61 Z" fill="#000000" fill-rule="nonzero" fill-opacity="1" /><path clip-path="url(#clip380)" d="M2357.46 1558.2 Q2354.36 1563.52 2352.85 1568.73 Q2351.35 1573.94 2351.35 1579.29 Q2351.35 1584.64 2352.85 1589.89 Q2354.38 1595.12 2357.46 1600.42 L2353.75 1600.42 Q2350.28 1594.98 2348.55 1589.73 Q2346.83 1584.47 2346.83 1579.29 Q2346.83 1574.13 2348.55 1568.9 Q2350.26 1563.66 2353.75 1558.2 L2357.46 1558.2 Z" fill="#000000" fill-rule="nonzero" fill-opacity="1" /><path clip-path="url(#clip380)" d="M2369.93 1560.89 L2369.93 1568.25 L2378.71 1568.25 L2378.71 1571.56 L2369.93 1571.56 L2369.93 1585.63 Q2369.93 1588.8 2370.79 1589.71 Q2371.67 1590.61 2374.33 1590.61 L2378.71 1590.61 L2378.71 1594.17 L2374.33 1594.17 Q2369.4 1594.17 2367.53 1592.34 Q2365.65 1590.49 2365.65 1585.63 L2365.65 1571.56 L2362.53 1571.56 L2362.53 1568.25 L2365.65 1568.25 L2365.65 1560.89 L2369.93 1560.89 Z" fill="#000000" fill-rule="nonzero" fill-opacity="1" /><path clip-path="url(#clip380)" d="M2383.64 1558.2 L2387.34 1558.2 Q2390.81 1563.66 2392.53 1568.9 Q2394.26 1574.13 2394.26 1579.29 Q2394.26 1584.47 2392.53 1589.73 Q2390.81 1594.98 2387.34 1600.42 L2383.64 1600.42 Q2386.72 1595.12 2388.22 1589.89 Q2389.75 1584.64 2389.75 1579.29 Q2389.75 1573.94 2388.22 1568.73 Q2386.72 1563.52 2383.64 1558.2 Z" fill="#000000" fill-rule="nonzero" fill-opacity="1" /><circle clip-path="url(#clip380)" cx="2086.1" cy="1628.73" r="20.48" fill="#4682b4" fill-rule="evenodd" fill-opacity="0.7" stroke="#000000" stroke-opacity="0.7" stroke-width="5.46133"/>
<path clip-path="url(#clip380)" d="M2196.07 1615.3 L2196.07 1628.28 L2201.95 1628.28 Q2205.21 1628.28 2206.99 1626.59 Q2208.78 1624.9 2208.78 1621.78 Q2208.78 1618.68 2206.99 1616.99 Q2205.21 1615.3 2201.95 1615.3 L2196.07 1615.3 M2191.39 1611.45 L2201.95 1611.45 Q2207.76 1611.45 2210.72 1614.09 Q2213.71 1616.71 2213.71 1621.78 Q2213.71 1626.89 2210.72 1629.51 Q2207.76 1632.12 2201.95 1632.12 L2196.07 1632.12 L2196.07 1646.01 L2191.39 1646.01 L2191.39 1611.45 Z" fill="#000000" fill-rule="nonzero" fill-opacity="1" /><path clip-path="url(#clip380)" d="M2228.15 1623.07 Q2224.73 1623.07 2222.74 1625.76 Q2220.74 1628.42 2220.74 1633.07 Q2220.74 1637.73 2222.71 1640.41 Q2224.7 1643.07 2228.15 1643.07 Q2231.55 1643.07 2233.55 1640.39 Q2235.54 1637.7 2235.54 1633.07 Q2235.54 1628.47 2233.55 1625.78 Q2231.55 1623.07 2228.15 1623.07 M2228.15 1619.46 Q2233.71 1619.46 2236.88 1623.07 Q2240.05 1626.68 2240.05 1633.07 Q2240.05 1639.44 2236.88 1643.07 Q2233.71 1646.68 2228.15 1646.68 Q2222.57 1646.68 2219.4 1643.07 Q2216.25 1639.44 2216.25 1633.07 Q2216.25 1626.68 2219.4 1623.07 Q2222.57 1619.46 2228.15 1619.46 Z" fill="#000000" fill-rule="nonzero" fill-opacity="1" /><path clip-path="url(#clip380)" d="M2247.11 1620.09 L2251.37 1620.09 L2251.37 1646.01 L2247.11 1646.01 L2247.11 1620.09 M2247.11 1609.99 L2251.37 1609.99 L2251.37 1615.39 L2247.11 1615.39 L2247.11 1609.99 Z" fill="#000000" fill-rule="nonzero" fill-opacity="1" /><path clip-path="url(#clip380)" d="M2276.81 1620.85 L2276.81 1624.88 Q2275 1623.95 2273.06 1623.49 Q2271.11 1623.03 2269.03 1623.03 Q2265.86 1623.03 2264.26 1624 Q2262.69 1624.97 2262.69 1626.92 Q2262.69 1628.4 2263.82 1629.25 Q2264.96 1630.09 2268.38 1630.85 L2269.84 1631.17 Q2274.38 1632.15 2276.28 1633.93 Q2278.2 1635.69 2278.2 1638.86 Q2278.2 1642.47 2275.33 1644.58 Q2272.48 1646.68 2267.48 1646.68 Q2265.4 1646.68 2263.13 1646.27 Q2260.88 1645.87 2258.38 1645.06 L2258.38 1640.67 Q2260.74 1641.89 2263.04 1642.52 Q2265.33 1643.12 2267.57 1643.12 Q2270.58 1643.12 2272.2 1642.1 Q2273.82 1641.06 2273.82 1639.18 Q2273.82 1637.45 2272.64 1636.52 Q2271.49 1635.6 2267.53 1634.74 L2266.05 1634.39 Q2262.09 1633.56 2260.33 1631.85 Q2258.57 1630.11 2258.57 1627.1 Q2258.57 1623.44 2261.16 1621.45 Q2263.75 1619.46 2268.52 1619.46 Q2270.88 1619.46 2272.97 1619.81 Q2275.05 1620.16 2276.81 1620.85 Z" fill="#000000" fill-rule="nonzero" fill-opacity="1" /><path clip-path="url(#clip380)" d="M2301.51 1620.85 L2301.51 1624.88 Q2299.7 1623.95 2297.76 1623.49 Q2295.81 1623.03 2293.73 1623.03 Q2290.56 1623.03 2288.96 1624 Q2287.39 1624.97 2287.39 1626.92 Q2287.39 1628.4 2288.52 1629.25 Q2289.66 1630.09 2293.08 1630.85 L2294.54 1631.17 Q2299.08 1632.15 2300.98 1633.93 Q2302.9 1635.69 2302.9 1638.86 Q2302.9 1642.47 2300.03 1644.58 Q2297.18 1646.68 2292.18 1646.68 Q2290.1 1646.68 2287.83 1646.27 Q2285.58 1645.87 2283.08 1645.06 L2283.08 1640.67 Q2285.44 1641.89 2287.74 1642.52 Q2290.03 1643.12 2292.27 1643.12 Q2295.28 1643.12 2296.9 1642.1 Q2298.52 1641.06 2298.52 1639.18 Q2298.52 1637.45 2297.34 1636.52 Q2296.18 1635.6 2292.23 1634.74 L2290.74 1634.39 Q2286.79 1633.56 2285.03 1631.85 Q2283.27 1630.11 2283.27 1627.1 Q2283.27 1623.44 2285.86 1621.45 Q2288.45 1619.46 2293.22 1619.46 Q2295.58 1619.46 2297.67 1619.81 Q2299.75 1620.16 2301.51 1620.85 Z" fill="#000000" fill-rule="nonzero" fill-opacity="1" /><path clip-path="url(#clip380)" d="M2319.73 1623.07 Q2316.3 1623.07 2314.31 1625.76 Q2312.32 1628.42 2312.32 1633.07 Q2312.32 1637.73 2314.29 1640.41 Q2316.28 1643.07 2319.73 1643.07 Q2323.13 1643.07 2325.12 1640.39 Q2327.11 1637.7 2327.11 1633.07 Q2327.11 1628.47 2325.12 1625.78 Q2323.13 1623.07 2319.73 1623.07 M2319.73 1619.46 Q2325.28 1619.46 2328.45 1623.07 Q2331.62 1626.68 2331.62 1633.07 Q2331.62 1639.44 2328.45 1643.07 Q2325.28 1646.68 2319.73 1646.68 Q2314.15 1646.68 2310.98 1643.07 Q2307.83 1639.44 2307.83 1633.07 Q2307.83 1626.68 2310.98 1623.07 Q2314.15 1619.46 2319.73 1619.46 Z" fill="#000000" fill-rule="nonzero" fill-opacity="1" /><path clip-path="url(#clip380)" d="M2360.23 1630.36 L2360.23 1646.01 L2355.98 1646.01 L2355.98 1630.5 Q2355.98 1626.82 2354.54 1624.99 Q2353.11 1623.17 2350.23 1623.17 Q2346.79 1623.17 2344.8 1625.36 Q2342.8 1627.56 2342.8 1631.36 L2342.8 1646.01 L2338.52 1646.01 L2338.52 1620.09 L2342.8 1620.09 L2342.8 1624.11 Q2344.33 1621.78 2346.39 1620.62 Q2348.48 1619.46 2351.18 1619.46 Q2355.65 1619.46 2357.94 1622.24 Q2360.23 1624.99 2360.23 1630.36 Z" fill="#000000" fill-rule="nonzero" fill-opacity="1" /><path clip-path="url(#clip380)" d="M2402.46 1621.08 L2402.46 1625.06 Q2400.65 1624.07 2398.82 1623.58 Q2397.02 1623.07 2395.17 1623.07 Q2391.02 1623.07 2388.73 1625.71 Q2386.44 1628.33 2386.44 1633.07 Q2386.44 1637.82 2388.73 1640.46 Q2391.02 1643.07 2395.17 1643.07 Q2397.02 1643.07 2398.82 1642.59 Q2400.65 1642.08 2402.46 1641.08 L2402.46 1645.02 Q2400.67 1645.85 2398.75 1646.27 Q2396.86 1646.68 2394.7 1646.68 Q2388.85 1646.68 2385.4 1643 Q2381.95 1639.32 2381.95 1633.07 Q2381.95 1626.73 2385.42 1623.1 Q2388.92 1619.46 2394.98 1619.46 Q2396.95 1619.46 2398.82 1619.88 Q2400.7 1620.27 2402.46 1621.08 Z" fill="#000000" fill-rule="nonzero" fill-opacity="1" /><path clip-path="url(#clip380)" d="M2419.91 1623.07 Q2416.48 1623.07 2414.49 1625.76 Q2412.5 1628.42 2412.5 1633.07 Q2412.5 1637.73 2414.47 1640.41 Q2416.46 1643.07 2419.91 1643.07 Q2423.31 1643.07 2425.3 1640.39 Q2427.29 1637.7 2427.29 1633.07 Q2427.29 1628.47 2425.3 1625.78 Q2423.31 1623.07 2419.91 1623.07 M2419.91 1619.46 Q2425.47 1619.46 2428.64 1623.07 Q2431.81 1626.68 2431.81 1633.07 Q2431.81 1639.44 2428.64 1643.07 Q2425.47 1646.68 2419.91 1646.68 Q2414.33 1646.68 2411.16 1643.07 Q2408.01 1639.44 2408.01 1633.07 Q2408.01 1626.68 2411.16 1623.07 Q2414.33 1619.46 2419.91 1619.46 Z" fill="#000000" fill-rule="nonzero" fill-opacity="1" /><path clip-path="url(#clip380)" d="M2438.43 1635.78 L2438.43 1620.09 L2442.69 1620.09 L2442.69 1635.62 Q2442.69 1639.3 2444.12 1641.15 Q2445.56 1642.98 2448.43 1642.98 Q2451.88 1642.98 2453.87 1640.78 Q2455.88 1638.58 2455.88 1634.79 L2455.88 1620.09 L2460.14 1620.09 L2460.14 1646.01 L2455.88 1646.01 L2455.88 1642.03 Q2454.33 1644.39 2452.27 1645.55 Q2450.23 1646.68 2447.53 1646.68 Q2443.06 1646.68 2440.74 1643.91 Q2438.43 1641.13 2438.43 1635.78 M2449.15 1619.46 L2449.15 1619.46 Z" fill="#000000" fill-rule="nonzero" fill-opacity="1" /><path clip-path="url(#clip380)" d="M2490.47 1630.36 L2490.47 1646.01 L2486.21 1646.01 L2486.21 1630.5 Q2486.21 1626.82 2484.77 1624.99 Q2483.34 1623.17 2480.47 1623.17 Q2477.02 1623.17 2475.03 1625.36 Q2473.04 1627.56 2473.04 1631.36 L2473.04 1646.01 L2468.75 1646.01 L2468.75 1620.09 L2473.04 1620.09 L2473.04 1624.11 Q2474.56 1621.78 2476.62 1620.62 Q2478.71 1619.46 2481.41 1619.46 Q2485.88 1619.46 2488.17 1622.24 Q2490.47 1624.99 2490.47 1630.36 Z" fill="#000000" fill-rule="nonzero" fill-opacity="1" /><path clip-path="url(#clip380)" d="M2503.17 1612.73 L2503.17 1620.09 L2511.95 1620.09 L2511.95 1623.4 L2503.17 1623.4 L2503.17 1637.47 Q2503.17 1640.64 2504.03 1641.55 Q2504.91 1642.45 2507.57 1642.45 L2511.95 1642.45 L2511.95 1646.01 L2507.57 1646.01 Q2502.64 1646.01 2500.77 1644.18 Q2498.89 1642.33 2498.89 1637.47 L2498.89 1623.4 L2495.77 1623.4 L2495.77 1620.09 L2498.89 1620.09 L2498.89 1612.73 L2503.17 1612.73 Z" fill="#000000" fill-rule="nonzero" fill-opacity="1" /><path clip-path="url(#clip380)" d="M2534.08 1620.85 L2534.08 1624.88 Q2532.27 1623.95 2530.33 1623.49 Q2528.38 1623.03 2526.3 1623.03 Q2523.13 1623.03 2521.53 1624 Q2519.96 1624.97 2519.96 1626.92 Q2519.96 1628.4 2521.09 1629.25 Q2522.22 1630.09 2525.65 1630.85 L2527.11 1631.17 Q2531.65 1632.15 2533.54 1633.93 Q2535.47 1635.69 2535.47 1638.86 Q2535.47 1642.47 2532.6 1644.58 Q2529.75 1646.68 2524.75 1646.68 Q2522.66 1646.68 2520.4 1646.27 Q2518.15 1645.87 2515.65 1645.06 L2515.65 1640.67 Q2518.01 1641.89 2520.3 1642.52 Q2522.6 1643.12 2524.84 1643.12 Q2527.85 1643.12 2529.47 1642.1 Q2531.09 1641.06 2531.09 1639.18 Q2531.09 1637.45 2529.91 1636.52 Q2528.75 1635.6 2524.79 1634.74 L2523.31 1634.39 Q2519.35 1633.56 2517.6 1631.85 Q2515.84 1630.11 2515.84 1627.1 Q2515.84 1623.44 2518.43 1621.45 Q2521.02 1619.46 2525.79 1619.46 Q2528.15 1619.46 2530.23 1619.81 Q2532.32 1620.16 2534.08 1620.85 Z" fill="#000000" fill-rule="nonzero" fill-opacity="1" /></svg>
