<?xml version="1.0" encoding="utf-8"?>
<svg xmlns="http://www.w3.org/2000/svg" xmlns:xlink="http://www.w3.org/1999/xlink" width="672" height="480" viewBox="0 0 2688 1920">
<defs>
  <clipPath id="clip440">
    <rect x="0" y="0" width="2688" height="1920"/>
  </clipPath>
</defs>
<path clip-path="url(#clip440)" d="M0 1920 L2688 1920 L2688 -4.26326e-14 L0 -4.26326e-14  Z" fill="#ffffff" fill-rule="evenodd" fill-opacity="1"/>
<defs>
  <clipPath id="clip441">
    <rect x="263" y="127" width="2378" height="1607"/>
  </clipPath>
</defs>
<path clip-path="url(#clip440)" d="M263.478 1734.12 L2640.76 1734.12 L2640.76 127.792 L263.478 127.792  Z" fill="#ffffff" fill-rule="evenodd" fill-opacity="1"/>
<polyline clip-path="url(#clip441)" style="stroke:#000000; stroke-linecap:round; stroke-linejoin:round; stroke-width:2; stroke-opacity:0.1; fill:none" points="651.148,1734.12 651.148,127.792 "/>
<polyline clip-path="url(#clip441)" style="stroke:#000000; stroke-linecap:round; stroke-linejoin:round; stroke-width:2; stroke-opacity:0.1; fill:none" points="1078.33,1734.12 1078.33,127.792 "/>
<polyline clip-path="url(#clip441)" style="stroke:#000000; stroke-linecap:round; stroke-linejoin:round; stroke-width:2; stroke-opacity:0.1; fill:none" points="1505.52,1734.12 1505.52,127.792 "/>
<polyline clip-path="url(#clip441)" style="stroke:#000000; stroke-linecap:round; stroke-linejoin:round; stroke-width:2; stroke-opacity:0.1; fill:none" points="1932.7,1734.12 1932.7,127.792 "/>
<polyline clip-path="url(#clip441)" style="stroke:#000000; stroke-linecap:round; stroke-linejoin:round; stroke-width:2; stroke-opacity:0.1; fill:none" points="2359.88,1734.12 2359.88,127.792 "/>
<polyline clip-path="url(#clip441)" style="stroke:#000000; stroke-linecap:round; stroke-linejoin:round; stroke-width:2; stroke-opacity:0.1; fill:none" points="263.478,1640.51 2640.76,1640.51 "/>
<polyline clip-path="url(#clip441)" style="stroke:#000000; stroke-linecap:round; stroke-linejoin:round; stroke-width:2; stroke-opacity:0.1; fill:none" points="263.478,1330.05 2640.76,1330.05 "/>
<polyline clip-path="url(#clip441)" style="stroke:#000000; stroke-linecap:round; stroke-linejoin:round; stroke-width:2; stroke-opacity:0.1; fill:none" points="263.478,1019.6 2640.76,1019.6 "/>
<polyline clip-path="url(#clip441)" style="stroke:#000000; stroke-linecap:round; stroke-linejoin:round; stroke-width:2; stroke-opacity:0.1; fill:none" points="263.478,709.14 2640.76,709.14 "/>
<polyline clip-path="url(#clip441)" style="stroke:#000000; stroke-linecap:round; stroke-linejoin:round; stroke-width:2; stroke-opacity:0.1; fill:none" points="263.478,398.685 2640.76,398.685 "/>
<polyline clip-path="url(#clip440)" style="stroke:#000000; stroke-linecap:round; stroke-linejoin:round; stroke-width:4; stroke-opacity:1; fill:none" points="263.478,1734.12 2640.76,1734.12 "/>
<polyline clip-path="url(#clip440)" style="stroke:#000000; stroke-linecap:round; stroke-linejoin:round; stroke-width:4; stroke-opacity:1; fill:none" points="651.148,1734.12 651.148,1715.22 "/>
<polyline clip-path="url(#clip440)" style="stroke:#000000; stroke-linecap:round; stroke-linejoin:round; stroke-width:4; stroke-opacity:1; fill:none" points="1078.33,1734.12 1078.33,1715.22 "/>
<polyline clip-path="url(#clip440)" style="stroke:#000000; stroke-linecap:round; stroke-linejoin:round; stroke-width:4; stroke-opacity:1; fill:none" points="1505.52,1734.12 1505.52,1715.22 "/>
<polyline clip-path="url(#clip440)" style="stroke:#000000; stroke-linecap:round; stroke-linejoin:round; stroke-width:4; stroke-opacity:1; fill:none" points="1932.7,1734.12 1932.7,1715.22 "/>
<polyline clip-path="url(#clip440)" style="stroke:#000000; stroke-linecap:round; stroke-linejoin:round; stroke-width:4; stroke-opacity:1; fill:none" points="2359.88,1734.12 2359.88,1715.22 "/>
<path clip-path="url(#clip440)" d="M629.921 1794.89 L646.24 1794.89 L646.24 1798.82 L624.296 1798.82 L624.296 1794.89 Q626.958 1792.13 631.541 1787.5 Q636.148 1782.85 637.328 1781.51 Q639.574 1778.98 640.453 1777.25 Q641.356 1775.49 641.356 1773.8 Q641.356 1771.04 639.412 1769.31 Q637.49 1767.57 634.388 1767.57 Q632.189 1767.57 629.736 1768.34 Q627.305 1769.1 624.527 1770.65 L624.527 1765.93 Q627.351 1764.79 629.805 1764.21 Q632.259 1763.64 634.296 1763.64 Q639.666 1763.64 642.861 1766.32 Q646.055 1769.01 646.055 1773.5 Q646.055 1775.63 645.245 1777.55 Q644.458 1779.45 642.351 1782.04 Q641.773 1782.71 638.671 1785.93 Q635.569 1789.12 629.921 1794.89 Z" fill="#000000" fill-rule="nonzero" fill-opacity="1" /><path clip-path="url(#clip440)" d="M666.055 1767.34 Q662.444 1767.34 660.615 1770.9 Q658.81 1774.45 658.81 1781.58 Q658.81 1788.68 660.615 1792.25 Q662.444 1795.79 666.055 1795.79 Q669.689 1795.79 671.495 1792.25 Q673.323 1788.68 673.323 1781.58 Q673.323 1774.45 671.495 1770.9 Q669.689 1767.34 666.055 1767.34 M666.055 1763.64 Q671.865 1763.64 674.921 1768.24 Q677.999 1772.83 677.999 1781.58 Q677.999 1790.3 674.921 1794.91 Q671.865 1799.49 666.055 1799.49 Q660.245 1799.49 657.166 1794.91 Q654.111 1790.3 654.111 1781.58 Q654.111 1772.83 657.166 1768.24 Q660.245 1763.64 666.055 1763.64 Z" fill="#000000" fill-rule="nonzero" fill-opacity="1" /><path clip-path="url(#clip440)" d="M1066.5 1768.34 L1054.7 1786.78 L1066.5 1786.78 L1066.5 1768.34 M1065.28 1764.26 L1071.16 1764.26 L1071.16 1786.78 L1076.09 1786.78 L1076.09 1790.67 L1071.16 1790.67 L1071.16 1798.82 L1066.5 1798.82 L1066.5 1790.67 L1050.9 1790.67 L1050.9 1786.16 L1065.28 1764.26 Z" fill="#000000" fill-rule="nonzero" fill-opacity="1" /><path clip-path="url(#clip440)" d="M1093.82 1767.34 Q1090.21 1767.34 1088.38 1770.9 Q1086.57 1774.45 1086.57 1781.58 Q1086.57 1788.68 1088.38 1792.25 Q1090.21 1795.79 1093.82 1795.79 Q1097.45 1795.79 1099.26 1792.25 Q1101.09 1788.68 1101.09 1781.58 Q1101.09 1774.45 1099.26 1770.9 Q1097.45 1767.34 1093.82 1767.34 M1093.82 1763.64 Q1099.63 1763.64 1102.68 1768.24 Q1105.76 1772.83 1105.76 1781.58 Q1105.76 1790.3 1102.68 1794.91 Q1099.63 1799.49 1093.82 1799.49 Q1088.01 1799.49 1084.93 1794.91 Q1081.87 1790.3 1081.87 1781.58 Q1081.87 1772.83 1084.93 1768.24 Q1088.01 1763.64 1093.82 1763.64 Z" fill="#000000" fill-rule="nonzero" fill-opacity="1" /><path clip-path="url(#clip440)" d="M1490.92 1779.68 Q1487.77 1779.68 1485.92 1781.83 Q1484.09 1783.98 1484.09 1787.73 Q1484.09 1791.46 1485.92 1793.64 Q1487.77 1795.79 1490.92 1795.79 Q1494.07 1795.79 1495.9 1793.64 Q1497.75 1791.46 1497.75 1787.73 Q1497.75 1783.98 1495.9 1781.83 Q1494.07 1779.68 1490.92 1779.68 M1500.2 1765.02 L1500.2 1769.28 Q1498.44 1768.45 1496.64 1768.01 Q1494.86 1767.57 1493.1 1767.57 Q1488.47 1767.57 1486.01 1770.7 Q1483.58 1773.82 1483.24 1780.14 Q1484.6 1778.13 1486.66 1777.06 Q1488.72 1775.97 1491.2 1775.97 Q1496.41 1775.97 1499.42 1779.15 Q1502.45 1782.29 1502.45 1787.73 Q1502.45 1793.06 1499.3 1796.27 Q1496.15 1799.49 1490.92 1799.49 Q1484.92 1799.49 1481.75 1794.91 Q1478.58 1790.3 1478.58 1781.58 Q1478.58 1773.38 1482.47 1768.52 Q1486.36 1763.64 1492.91 1763.64 Q1494.67 1763.64 1496.45 1763.98 Q1498.26 1764.33 1500.2 1765.02 Z" fill="#000000" fill-rule="nonzero" fill-opacity="1" /><path clip-path="url(#clip440)" d="M1520.5 1767.34 Q1516.89 1767.34 1515.06 1770.9 Q1513.26 1774.45 1513.26 1781.58 Q1513.26 1788.68 1515.06 1792.25 Q1516.89 1795.79 1520.5 1795.79 Q1524.14 1795.79 1525.94 1792.25 Q1527.77 1788.68 1527.77 1781.58 Q1527.77 1774.45 1525.94 1770.9 Q1524.14 1767.34 1520.5 1767.34 M1520.5 1763.64 Q1526.31 1763.64 1529.37 1768.24 Q1532.45 1772.83 1532.45 1781.58 Q1532.45 1790.3 1529.37 1794.91 Q1526.31 1799.49 1520.5 1799.49 Q1514.69 1799.49 1511.61 1794.91 Q1508.56 1790.3 1508.56 1781.58 Q1508.56 1772.83 1511.61 1768.24 Q1514.69 1763.64 1520.5 1763.64 Z" fill="#000000" fill-rule="nonzero" fill-opacity="1" /><path clip-path="url(#clip440)" d="M1917.57 1782.41 Q1914.24 1782.41 1912.32 1784.19 Q1910.42 1785.97 1910.42 1789.1 Q1910.42 1792.22 1912.32 1794.01 Q1914.24 1795.79 1917.57 1795.79 Q1920.9 1795.79 1922.83 1794.01 Q1924.75 1792.2 1924.75 1789.1 Q1924.75 1785.97 1922.83 1784.19 Q1920.93 1782.41 1917.57 1782.41 M1912.9 1780.42 Q1909.89 1779.68 1908.2 1777.62 Q1906.53 1775.56 1906.53 1772.59 Q1906.53 1768.45 1909.47 1766.04 Q1912.43 1763.64 1917.57 1763.64 Q1922.73 1763.64 1925.67 1766.04 Q1928.61 1768.45 1928.61 1772.59 Q1928.61 1775.56 1926.92 1777.62 Q1925.26 1779.68 1922.27 1780.42 Q1925.65 1781.21 1927.53 1783.5 Q1929.42 1785.79 1929.42 1789.1 Q1929.42 1794.12 1926.34 1796.81 Q1923.29 1799.49 1917.57 1799.49 Q1911.85 1799.49 1908.78 1796.81 Q1905.72 1794.12 1905.72 1789.1 Q1905.72 1785.79 1907.62 1783.5 Q1909.52 1781.21 1912.9 1780.42 M1911.18 1773.03 Q1911.18 1775.72 1912.85 1777.22 Q1914.54 1778.73 1917.57 1778.73 Q1920.58 1778.73 1922.27 1777.22 Q1923.98 1775.72 1923.98 1773.03 Q1923.98 1770.35 1922.27 1768.84 Q1920.58 1767.34 1917.57 1767.34 Q1914.54 1767.34 1912.85 1768.84 Q1911.18 1770.35 1911.18 1773.03 Z" fill="#000000" fill-rule="nonzero" fill-opacity="1" /><path clip-path="url(#clip440)" d="M1947.73 1767.34 Q1944.12 1767.34 1942.29 1770.9 Q1940.49 1774.45 1940.49 1781.58 Q1940.49 1788.68 1942.29 1792.25 Q1944.12 1795.79 1947.73 1795.79 Q1951.37 1795.79 1953.17 1792.25 Q1955 1788.68 1955 1781.58 Q1955 1774.45 1953.17 1770.9 Q1951.37 1767.34 1947.73 1767.34 M1947.73 1763.64 Q1953.54 1763.64 1956.6 1768.24 Q1959.68 1772.83 1959.68 1781.58 Q1959.68 1790.3 1956.6 1794.91 Q1953.54 1799.49 1947.73 1799.49 Q1941.92 1799.49 1938.84 1794.91 Q1935.79 1790.3 1935.79 1781.58 Q1935.79 1772.83 1938.84 1768.24 Q1941.92 1763.64 1947.73 1763.64 Z" fill="#000000" fill-rule="nonzero" fill-opacity="1" /><path clip-path="url(#clip440)" d="M2319.49 1794.89 L2327.13 1794.89 L2327.13 1768.52 L2318.82 1770.19 L2318.82 1765.93 L2327.08 1764.26 L2331.76 1764.26 L2331.76 1794.89 L2339.4 1794.89 L2339.4 1798.82 L2319.49 1798.82 L2319.49 1794.89 Z" fill="#000000" fill-rule="nonzero" fill-opacity="1" /><path clip-path="url(#clip440)" d="M2358.84 1767.34 Q2355.23 1767.34 2353.4 1770.9 Q2351.6 1774.45 2351.6 1781.58 Q2351.6 1788.68 2353.4 1792.25 Q2355.23 1795.79 2358.84 1795.79 Q2362.48 1795.79 2364.28 1792.25 Q2366.11 1788.68 2366.11 1781.58 Q2366.11 1774.45 2364.28 1770.9 Q2362.48 1767.34 2358.84 1767.34 M2358.84 1763.64 Q2364.65 1763.64 2367.71 1768.24 Q2370.79 1772.83 2370.79 1781.58 Q2370.79 1790.3 2367.71 1794.91 Q2364.65 1799.49 2358.84 1799.49 Q2353.03 1799.49 2349.95 1794.91 Q2346.9 1790.3 2346.9 1781.58 Q2346.9 1772.83 2349.95 1768.24 Q2353.03 1763.64 2358.84 1763.64 Z" fill="#000000" fill-rule="nonzero" fill-opacity="1" /><path clip-path="url(#clip440)" d="M2389 1767.34 Q2385.39 1767.34 2383.56 1770.9 Q2381.76 1774.45 2381.76 1781.58 Q2381.76 1788.68 2383.56 1792.25 Q2385.39 1795.79 2389 1795.79 Q2392.64 1795.79 2394.44 1792.25 Q2396.27 1788.68 2396.27 1781.58 Q2396.27 1774.45 2394.44 1770.9 Q2392.64 1767.34 2389 1767.34 M2389 1763.64 Q2394.81 1763.64 2397.87 1768.24 Q2400.95 1772.83 2400.95 1781.58 Q2400.95 1790.3 2397.87 1794.91 Q2394.81 1799.49 2389 1799.49 Q2383.19 1799.49 2380.11 1794.91 Q2377.06 1790.3 2377.06 1781.58 Q2377.06 1772.83 2380.11 1768.24 Q2383.19 1763.64 2389 1763.64 Z" fill="#000000" fill-rule="nonzero" fill-opacity="1" /><path clip-path="url(#clip440)" d="M1258.97 1841.06 L1258.97 1858.92 L1267.05 1858.92 Q1271.54 1858.92 1273.99 1856.6 Q1276.44 1854.27 1276.44 1849.98 Q1276.44 1845.71 1273.99 1843.39 Q1271.54 1841.06 1267.05 1841.06 L1258.97 1841.06 M1252.54 1835.78 L1267.05 1835.78 Q1275.04 1835.78 1279.11 1839.41 Q1283.22 1843.01 1283.22 1849.98 Q1283.22 1857.01 1279.11 1860.61 Q1275.04 1864.2 1267.05 1864.2 L1258.97 1864.2 L1258.97 1883.3 L1252.54 1883.3 L1252.54 1835.78 Z" fill="#000000" fill-rule="nonzero" fill-opacity="1" /><path clip-path="url(#clip440)" d="M1303.08 1851.76 Q1298.37 1851.76 1295.63 1855.45 Q1292.89 1859.11 1292.89 1865.51 Q1292.89 1871.91 1295.6 1875.6 Q1298.34 1879.26 1303.08 1879.26 Q1307.76 1879.26 1310.5 1875.57 Q1313.23 1871.87 1313.23 1865.51 Q1313.23 1859.17 1310.5 1855.48 Q1307.76 1851.76 1303.08 1851.76 M1303.08 1846.79 Q1310.72 1846.79 1315.08 1851.76 Q1319.44 1856.72 1319.44 1865.51 Q1319.44 1874.26 1315.08 1879.26 Q1310.72 1884.22 1303.08 1884.22 Q1295.41 1884.22 1291.05 1879.26 Q1286.72 1874.26 1286.72 1865.51 Q1286.72 1856.72 1291.05 1851.76 Q1295.41 1846.79 1303.08 1846.79 Z" fill="#000000" fill-rule="nonzero" fill-opacity="1" /><path clip-path="url(#clip440)" d="M1334.81 1877.95 L1334.81 1896.86 L1328.92 1896.86 L1328.92 1847.65 L1334.81 1847.65 L1334.81 1853.06 Q1336.66 1849.88 1339.46 1848.35 Q1342.29 1846.79 1346.21 1846.79 Q1352.7 1846.79 1356.74 1851.95 Q1360.82 1857.11 1360.82 1865.51 Q1360.82 1873.91 1356.74 1879.07 Q1352.7 1884.22 1346.21 1884.22 Q1342.29 1884.22 1339.46 1882.7 Q1336.66 1881.14 1334.81 1877.95 M1354.74 1865.51 Q1354.74 1859.05 1352.06 1855.39 Q1349.42 1851.7 1344.78 1851.7 Q1340.13 1851.7 1337.45 1855.39 Q1334.81 1859.05 1334.81 1865.51 Q1334.81 1871.97 1337.45 1875.66 Q1340.13 1879.32 1344.78 1879.32 Q1349.42 1879.32 1352.06 1875.66 Q1354.74 1871.97 1354.74 1865.51 Z" fill="#000000" fill-rule="nonzero" fill-opacity="1" /><path clip-path="url(#clip440)" d="M1369.92 1869.23 L1369.92 1847.65 L1375.78 1847.65 L1375.78 1869.01 Q1375.78 1874.07 1377.75 1876.62 Q1379.72 1879.13 1383.67 1879.13 Q1388.41 1879.13 1391.15 1876.11 Q1393.92 1873.08 1393.92 1867.86 L1393.92 1847.65 L1399.78 1847.65 L1399.78 1883.3 L1393.92 1883.3 L1393.92 1877.83 Q1391.79 1881.07 1388.95 1882.66 Q1386.15 1884.22 1382.43 1884.22 Q1376.29 1884.22 1373.1 1880.4 Q1369.92 1876.59 1369.92 1869.23 M1384.66 1846.79 L1384.66 1846.79 Z" fill="#000000" fill-rule="nonzero" fill-opacity="1" /><path clip-path="url(#clip440)" d="M1411.84 1833.78 L1417.69 1833.78 L1417.69 1883.3 L1411.84 1883.3 L1411.84 1833.78 Z" fill="#000000" fill-rule="nonzero" fill-opacity="1" /><path clip-path="url(#clip440)" d="M1446.15 1865.38 Q1439.05 1865.38 1436.31 1867 Q1433.58 1868.63 1433.58 1872.54 Q1433.58 1875.66 1435.61 1877.51 Q1437.68 1879.32 1441.22 1879.32 Q1446.09 1879.32 1449.01 1875.88 Q1451.97 1872.42 1451.97 1866.69 L1451.97 1865.38 L1446.15 1865.38 M1457.83 1862.96 L1457.83 1883.3 L1451.97 1883.3 L1451.97 1877.89 Q1449.97 1881.14 1446.98 1882.7 Q1443.98 1884.22 1439.66 1884.22 Q1434.18 1884.22 1430.94 1881.17 Q1427.72 1878.08 1427.72 1872.92 Q1427.72 1866.91 1431.73 1863.85 Q1435.77 1860.8 1443.76 1860.8 L1451.97 1860.8 L1451.97 1860.23 Q1451.97 1856.18 1449.3 1853.99 Q1446.66 1851.76 1441.85 1851.76 Q1438.8 1851.76 1435.9 1852.49 Q1433 1853.22 1430.33 1854.69 L1430.33 1849.28 Q1433.55 1848.03 1436.57 1847.43 Q1439.59 1846.79 1442.46 1846.79 Q1450.19 1846.79 1454.01 1850.8 Q1457.83 1854.81 1457.83 1862.96 Z" fill="#000000" fill-rule="nonzero" fill-opacity="1" /><path clip-path="url(#clip440)" d="M1475.69 1837.53 L1475.69 1847.65 L1487.75 1847.65 L1487.75 1852.2 L1475.69 1852.2 L1475.69 1871.56 Q1475.69 1875.92 1476.86 1877.16 Q1478.07 1878.4 1481.73 1878.4 L1487.75 1878.4 L1487.75 1883.3 L1481.73 1883.3 Q1474.95 1883.3 1472.38 1880.79 Q1469.8 1878.24 1469.8 1871.56 L1469.8 1852.2 L1465.5 1852.2 L1465.5 1847.65 L1469.8 1847.65 L1469.8 1837.53 L1475.69 1837.53 Z" fill="#000000" fill-rule="nonzero" fill-opacity="1" /><path clip-path="url(#clip440)" d="M1495.45 1847.65 L1501.31 1847.65 L1501.31 1883.3 L1495.45 1883.3 L1495.45 1847.65 M1495.45 1833.78 L1501.31 1833.78 L1501.31 1841.19 L1495.45 1841.19 L1495.45 1833.78 Z" fill="#000000" fill-rule="nonzero" fill-opacity="1" /><path clip-path="url(#clip440)" d="M1527.38 1851.76 Q1522.67 1851.76 1519.93 1855.45 Q1517.19 1859.11 1517.19 1865.51 Q1517.19 1871.91 1519.9 1875.6 Q1522.63 1879.26 1527.38 1879.26 Q1532.05 1879.26 1534.79 1875.57 Q1537.53 1871.87 1537.53 1865.51 Q1537.53 1859.17 1534.79 1855.48 Q1532.05 1851.76 1527.38 1851.76 M1527.38 1846.79 Q1535.01 1846.79 1539.38 1851.76 Q1543.74 1856.72 1543.74 1865.51 Q1543.74 1874.26 1539.38 1879.26 Q1535.01 1884.22 1527.38 1884.22 Q1519.71 1884.22 1515.34 1879.26 Q1511.02 1874.26 1511.02 1865.51 Q1511.02 1856.72 1515.34 1851.76 Q1519.71 1846.79 1527.38 1846.79 Z" fill="#000000" fill-rule="nonzero" fill-opacity="1" /><path clip-path="url(#clip440)" d="M1583.08 1861.78 L1583.08 1883.3 L1577.22 1883.3 L1577.22 1861.98 Q1577.22 1856.92 1575.25 1854.4 Q1573.27 1851.89 1569.33 1851.89 Q1564.58 1851.89 1561.85 1854.91 Q1559.11 1857.93 1559.11 1863.15 L1559.11 1883.3 L1553.22 1883.3 L1553.22 1847.65 L1559.11 1847.65 L1559.11 1853.19 Q1561.21 1849.98 1564.04 1848.39 Q1566.91 1846.79 1570.63 1846.79 Q1576.77 1846.79 1579.92 1850.61 Q1583.08 1854.4 1583.08 1861.78 Z" fill="#000000" fill-rule="nonzero" fill-opacity="1" /><path clip-path="url(#clip440)" d="M1615.73 1835.78 L1624.39 1835.78 L1645.46 1875.53 L1645.46 1835.78 L1651.7 1835.78 L1651.7 1883.3 L1643.04 1883.3 L1621.97 1843.55 L1621.97 1883.3 L1615.73 1883.3 L1615.73 1835.78 Z" fill="#000000" fill-rule="nonzero" fill-opacity="1" /><polyline clip-path="url(#clip440)" style="stroke:#000000; stroke-linecap:round; stroke-linejoin:round; stroke-width:4; stroke-opacity:1; fill:none" points="263.478,1734.12 263.478,127.792 "/>
<polyline clip-path="url(#clip440)" style="stroke:#000000; stroke-linecap:round; stroke-linejoin:round; stroke-width:4; stroke-opacity:1; fill:none" points="263.478,1640.51 282.376,1640.51 "/>
<polyline clip-path="url(#clip440)" style="stroke:#000000; stroke-linecap:round; stroke-linejoin:round; stroke-width:4; stroke-opacity:1; fill:none" points="263.478,1330.05 282.376,1330.05 "/>
<polyline clip-path="url(#clip440)" style="stroke:#000000; stroke-linecap:round; stroke-linejoin:round; stroke-width:4; stroke-opacity:1; fill:none" points="263.478,1019.6 282.376,1019.6 "/>
<polyline clip-path="url(#clip440)" style="stroke:#000000; stroke-linecap:round; stroke-linejoin:round; stroke-width:4; stroke-opacity:1; fill:none" points="263.478,709.14 282.376,709.14 "/>
<polyline clip-path="url(#clip440)" style="stroke:#000000; stroke-linecap:round; stroke-linejoin:round; stroke-width:4; stroke-opacity:1; fill:none" points="263.478,398.685 282.376,398.685 "/>
<path clip-path="url(#clip440)" d="M116.214 1640.96 L145.89 1640.96 L145.89 1644.89 L116.214 1644.89 L116.214 1640.96 Z" fill="#000000" fill-rule="nonzero" fill-opacity="1" /><path clip-path="url(#clip440)" d="M156.793 1653.85 L164.432 1653.85 L164.432 1627.48 L156.122 1629.15 L156.122 1624.89 L164.385 1623.23 L169.061 1623.23 L169.061 1653.85 L176.7 1653.85 L176.7 1657.79 L156.793 1657.79 L156.793 1653.85 Z" fill="#000000" fill-rule="nonzero" fill-opacity="1" /><path clip-path="url(#clip440)" d="M186.145 1651.91 L191.029 1651.91 L191.029 1657.79 L186.145 1657.79 L186.145 1651.91 Z" fill="#000000" fill-rule="nonzero" fill-opacity="1" /><path clip-path="url(#clip440)" d="M211.214 1626.3 Q207.603 1626.3 205.774 1629.87 Q203.969 1633.41 203.969 1640.54 Q203.969 1647.65 205.774 1651.21 Q207.603 1654.75 211.214 1654.75 Q214.848 1654.75 216.654 1651.21 Q218.482 1647.65 218.482 1640.54 Q218.482 1633.41 216.654 1629.87 Q214.848 1626.3 211.214 1626.3 M211.214 1622.6 Q217.024 1622.6 220.08 1627.21 Q223.158 1631.79 223.158 1640.54 Q223.158 1649.27 220.08 1653.87 Q217.024 1658.46 211.214 1658.46 Q205.404 1658.46 202.325 1653.87 Q199.27 1649.27 199.27 1640.54 Q199.27 1631.79 202.325 1627.21 Q205.404 1622.6 211.214 1622.6 Z" fill="#000000" fill-rule="nonzero" fill-opacity="1" /><path clip-path="url(#clip440)" d="M117.21 1330.5 L146.886 1330.5 L146.886 1334.44 L117.21 1334.44 L117.21 1330.5 Z" fill="#000000" fill-rule="nonzero" fill-opacity="1" /><path clip-path="url(#clip440)" d="M166.978 1315.85 Q163.367 1315.85 161.538 1319.41 Q159.733 1322.96 159.733 1330.08 Q159.733 1337.19 161.538 1340.76 Q163.367 1344.3 166.978 1344.3 Q170.612 1344.3 172.418 1340.76 Q174.247 1337.19 174.247 1330.08 Q174.247 1322.96 172.418 1319.41 Q170.612 1315.85 166.978 1315.85 M166.978 1312.15 Q172.788 1312.15 175.844 1316.75 Q178.922 1321.33 178.922 1330.08 Q178.922 1338.81 175.844 1343.42 Q172.788 1348 166.978 1348 Q161.168 1348 158.089 1343.42 Q155.034 1338.81 155.034 1330.08 Q155.034 1321.33 158.089 1316.75 Q161.168 1312.15 166.978 1312.15 Z" fill="#000000" fill-rule="nonzero" fill-opacity="1" /><path clip-path="url(#clip440)" d="M187.14 1341.45 L192.024 1341.45 L192.024 1347.33 L187.14 1347.33 L187.14 1341.45 Z" fill="#000000" fill-rule="nonzero" fill-opacity="1" /><path clip-path="url(#clip440)" d="M202.256 1312.77 L220.612 1312.77 L220.612 1316.71 L206.538 1316.71 L206.538 1325.18 Q207.557 1324.83 208.575 1324.67 Q209.594 1324.48 210.612 1324.48 Q216.399 1324.48 219.779 1327.65 Q223.158 1330.83 223.158 1336.24 Q223.158 1341.82 219.686 1344.92 Q216.214 1348 209.894 1348 Q207.719 1348 205.45 1347.63 Q203.205 1347.26 200.797 1346.52 L200.797 1341.82 Q202.881 1342.96 205.103 1343.51 Q207.325 1344.07 209.802 1344.07 Q213.807 1344.07 216.144 1341.96 Q218.482 1339.85 218.482 1336.24 Q218.482 1332.63 216.144 1330.52 Q213.807 1328.42 209.802 1328.42 Q207.927 1328.42 206.052 1328.83 Q204.2 1329.25 202.256 1330.13 L202.256 1312.77 Z" fill="#000000" fill-rule="nonzero" fill-opacity="1" /><path clip-path="url(#clip440)" d="M165.983 1005.39 Q162.372 1005.39 160.543 1008.96 Q158.737 1012.5 158.737 1019.63 Q158.737 1026.74 160.543 1030.3 Q162.372 1033.84 165.983 1033.84 Q169.617 1033.84 171.422 1030.3 Q173.251 1026.74 173.251 1019.63 Q173.251 1012.5 171.422 1008.96 Q169.617 1005.39 165.983 1005.39 M165.983 1001.69 Q171.793 1001.69 174.848 1006.3 Q177.927 1010.88 177.927 1019.63 Q177.927 1028.36 174.848 1032.96 Q171.793 1037.55 165.983 1037.55 Q160.173 1037.55 157.094 1032.96 Q154.038 1028.36 154.038 1019.63 Q154.038 1010.88 157.094 1006.3 Q160.173 1001.69 165.983 1001.69 Z" fill="#000000" fill-rule="nonzero" fill-opacity="1" /><path clip-path="url(#clip440)" d="M186.145 1031 L191.029 1031 L191.029 1036.88 L186.145 1036.88 L186.145 1031 Z" fill="#000000" fill-rule="nonzero" fill-opacity="1" /><path clip-path="url(#clip440)" d="M211.214 1005.39 Q207.603 1005.39 205.774 1008.96 Q203.969 1012.5 203.969 1019.63 Q203.969 1026.74 205.774 1030.3 Q207.603 1033.84 211.214 1033.84 Q214.848 1033.84 216.654 1030.3 Q218.482 1026.74 218.482 1019.63 Q218.482 1012.5 216.654 1008.96 Q214.848 1005.39 211.214 1005.39 M211.214 1001.69 Q217.024 1001.69 220.08 1006.3 Q223.158 1010.88 223.158 1019.63 Q223.158 1028.36 220.08 1032.96 Q217.024 1037.55 211.214 1037.55 Q205.404 1037.55 202.325 1032.96 Q199.27 1028.36 199.27 1019.63 Q199.27 1010.88 202.325 1006.3 Q205.404 1001.69 211.214 1001.69 Z" fill="#000000" fill-rule="nonzero" fill-opacity="1" /><path clip-path="url(#clip440)" d="M166.978 694.939 Q163.367 694.939 161.538 698.504 Q159.733 702.045 159.733 709.175 Q159.733 716.281 161.538 719.846 Q163.367 723.388 166.978 723.388 Q170.612 723.388 172.418 719.846 Q174.247 716.281 174.247 709.175 Q174.247 702.045 172.418 698.504 Q170.612 694.939 166.978 694.939 M166.978 691.235 Q172.788 691.235 175.844 695.842 Q178.922 700.425 178.922 709.175 Q178.922 717.902 175.844 722.508 Q172.788 727.091 166.978 727.091 Q161.168 727.091 158.089 722.508 Q155.034 717.902 155.034 709.175 Q155.034 700.425 158.089 695.842 Q161.168 691.235 166.978 691.235 Z" fill="#000000" fill-rule="nonzero" fill-opacity="1" /><path clip-path="url(#clip440)" d="M187.14 720.54 L192.024 720.54 L192.024 726.42 L187.14 726.42 L187.14 720.54 Z" fill="#000000" fill-rule="nonzero" fill-opacity="1" /><path clip-path="url(#clip440)" d="M202.256 691.86 L220.612 691.86 L220.612 695.795 L206.538 695.795 L206.538 704.267 Q207.557 703.92 208.575 703.758 Q209.594 703.573 210.612 703.573 Q216.399 703.573 219.779 706.744 Q223.158 709.916 223.158 715.332 Q223.158 720.911 219.686 724.013 Q216.214 727.091 209.894 727.091 Q207.719 727.091 205.45 726.721 Q203.205 726.351 200.797 725.61 L200.797 720.911 Q202.881 722.045 205.103 722.601 Q207.325 723.156 209.802 723.156 Q213.807 723.156 216.144 721.05 Q218.482 718.943 218.482 715.332 Q218.482 711.721 216.144 709.615 Q213.807 707.508 209.802 707.508 Q207.927 707.508 206.052 707.925 Q204.2 708.341 202.256 709.221 L202.256 691.86 Z" fill="#000000" fill-rule="nonzero" fill-opacity="1" /><path clip-path="url(#clip440)" d="M156.793 412.03 L164.432 412.03 L164.432 385.664 L156.122 387.331 L156.122 383.072 L164.385 381.405 L169.061 381.405 L169.061 412.03 L176.7 412.03 L176.7 415.965 L156.793 415.965 L156.793 412.03 Z" fill="#000000" fill-rule="nonzero" fill-opacity="1" /><path clip-path="url(#clip440)" d="M186.145 410.085 L191.029 410.085 L191.029 415.965 L186.145 415.965 L186.145 410.085 Z" fill="#000000" fill-rule="nonzero" fill-opacity="1" /><path clip-path="url(#clip440)" d="M211.214 384.484 Q207.603 384.484 205.774 388.048 Q203.969 391.59 203.969 398.72 Q203.969 405.826 205.774 409.391 Q207.603 412.933 211.214 412.933 Q214.848 412.933 216.654 409.391 Q218.482 405.826 218.482 398.72 Q218.482 391.59 216.654 388.048 Q214.848 384.484 211.214 384.484 M211.214 380.78 Q217.024 380.78 220.08 385.386 Q223.158 389.97 223.158 398.72 Q223.158 407.447 220.08 412.053 Q217.024 416.636 211.214 416.636 Q205.404 416.636 202.325 412.053 Q199.27 407.447 199.27 398.72 Q199.27 389.97 202.325 385.386 Q205.404 380.78 211.214 380.78 Z" fill="#000000" fill-rule="nonzero" fill-opacity="1" /><path clip-path="url(#clip440)" d="M31.465 967.526 Q30.8921 968.512 30.6375 969.69 Q30.351 970.836 30.351 972.236 Q30.351 977.201 33.5975 979.875 Q36.8122 982.517 42.8596 982.517 L61.6384 982.517 L61.6384 988.405 L25.9905 988.405 L25.9905 982.517 L31.5287 982.517 Q28.2821 980.671 26.7225 977.711 Q25.1311 974.751 25.1311 970.517 Q25.1311 969.913 25.2266 969.181 Q25.2903 968.449 25.4494 967.557 L31.465 967.526 Z" fill="#000000" fill-rule="nonzero" fill-opacity="1" /><path clip-path="url(#clip440)" d="M12.1769 947.314 Q19.4975 951.579 26.6589 953.648 Q33.8203 955.717 41.1727 955.717 Q48.5251 955.717 55.7502 953.648 Q62.9434 951.548 70.2321 947.314 L70.2321 952.407 Q62.7524 957.181 55.5274 959.568 Q48.3023 961.924 41.1727 961.924 Q34.0749 961.924 26.8817 959.568 Q19.6884 957.213 12.1769 952.407 L12.1769 947.314 Z" fill="#000000" fill-rule="nonzero" fill-opacity="1" /><path clip-path="url(#clip440)" d="M14.1184 935.697 L14.1184 927.04 L53.8723 905.969 L14.1184 905.969 L14.1184 899.731 L61.6384 899.731 L61.6384 908.388 L21.8846 929.459 L61.6384 929.459 L61.6384 935.697 L14.1184 935.697 Z" fill="#000000" fill-rule="nonzero" fill-opacity="1" /><path clip-path="url(#clip440)" d="M12.1769 888.113 L12.1769 883.021 Q19.6884 878.247 26.8817 875.891 Q34.0749 873.504 41.1727 873.504 Q48.3023 873.504 55.5274 875.891 Q62.7524 878.247 70.2321 883.021 L70.2321 888.113 Q62.9434 883.88 55.7502 881.811 Q48.5251 879.711 41.1727 879.711 Q33.8203 879.711 26.6589 881.811 Q19.4975 883.88 12.1769 888.113 Z" fill="#000000" fill-rule="nonzero" fill-opacity="1" /><path clip-path="url(#clip440)" d="M602.703 12.096 L614.896 12.096 L630.33 53.2532 L645.845 12.096 L658.039 12.096 L658.039 72.576 L650.058 72.576 L650.058 19.4686 L634.462 60.9499 L626.239 60.9499 L610.643 19.4686 L610.643 72.576 L602.703 72.576 L602.703 12.096 Z" fill="#000000" fill-rule="nonzero" fill-opacity="1" /><path clip-path="url(#clip440)" d="M719.572 16.7545 L719.572 25.383 Q715.44 21.5346 710.741 19.6307 Q706.082 17.7268 700.816 17.7268 Q690.446 17.7268 684.937 24.0867 Q679.427 30.4061 679.427 42.3968 Q679.427 54.3469 684.937 60.7069 Q690.446 67.0263 700.816 67.0263 Q706.082 67.0263 710.741 65.1223 Q715.44 63.2184 719.572 59.3701 L719.572 67.9175 Q715.278 70.8341 710.457 72.2924 Q705.677 73.7508 700.33 73.7508 Q686.597 73.7508 678.698 65.3654 Q670.799 56.9395 670.799 42.3968 Q670.799 27.8135 678.698 19.4281 Q686.597 11.0023 700.33 11.0023 Q705.758 11.0023 710.538 12.4606 Q715.359 13.8784 719.572 16.7545 Z" fill="#000000" fill-rule="nonzero" fill-opacity="1" /><path clip-path="url(#clip440)" d="M732.211 12.096 L744.404 12.096 L759.838 53.2532 L775.353 12.096 L787.546 12.096 L787.546 72.576 L779.566 72.576 L779.566 19.4686 L763.97 60.9499 L755.746 60.9499 L740.15 19.4686 L740.15 72.576 L732.211 72.576 L732.211 12.096 Z" fill="#000000" fill-rule="nonzero" fill-opacity="1" /><path clip-path="url(#clip440)" d="M849.079 16.7545 L849.079 25.383 Q844.947 21.5346 840.248 19.6307 Q835.59 17.7268 830.324 17.7268 Q819.953 17.7268 814.444 24.0867 Q808.935 30.4061 808.935 42.3968 Q808.935 54.3469 814.444 60.7069 Q819.953 67.0263 830.324 67.0263 Q835.59 67.0263 840.248 65.1223 Q844.947 63.2184 849.079 59.3701 L849.079 67.9175 Q844.785 70.8341 839.965 72.2924 Q835.185 73.7508 829.837 73.7508 Q816.105 73.7508 808.206 65.3654 Q800.306 56.9395 800.306 42.3968 Q800.306 27.8135 808.206 19.4281 Q816.105 11.0023 829.837 11.0023 Q835.266 11.0023 840.046 12.4606 Q844.866 13.8784 849.079 16.7545 Z" fill="#000000" fill-rule="nonzero" fill-opacity="1" /><path clip-path="url(#clip440)" d="M882.418 27.2059 L890.317 27.2059 L904.496 65.2844 L918.674 27.2059 L926.573 27.2059 L909.559 72.576 L899.432 72.576 L882.418 27.2059 Z" fill="#000000" fill-rule="nonzero" fill-opacity="1" /><path clip-path="url(#clip440)" d="M965.786 28.5427 L965.786 35.5912 Q962.626 33.9709 959.223 33.1607 Q955.821 32.3505 952.175 32.3505 Q946.625 32.3505 943.83 34.0519 Q941.075 35.7533 941.075 39.156 Q941.075 41.7486 943.06 43.2475 Q945.045 44.7058 951.041 46.0426 L953.593 46.6097 Q961.532 48.3111 964.854 51.4303 Q968.216 54.509 968.216 60.0587 Q968.216 66.3781 963.193 70.0644 Q958.211 73.7508 949.461 73.7508 Q945.815 73.7508 941.845 73.0216 Q937.916 72.3329 933.541 70.9151 L933.541 63.2184 Q937.673 65.3654 941.683 66.4591 Q945.693 67.5124 949.623 67.5124 Q954.889 67.5124 957.725 65.73 Q960.56 63.9071 960.56 60.6258 Q960.56 57.5877 958.494 55.9673 Q956.469 54.3469 949.542 52.8481 L946.949 52.2405 Q940.022 50.7821 936.943 47.7845 Q933.865 44.7463 933.865 39.4801 Q933.865 33.0797 938.402 29.5959 Q942.939 26.1121 951.284 26.1121 Q955.415 26.1121 959.061 26.7198 Q962.707 27.3274 965.786 28.5427 Z" fill="#000000" fill-rule="nonzero" fill-opacity="1" /><path clip-path="url(#clip440)" d="M1006.78 12.096 L1014.96 12.096 L1014.96 65.6895 L1044.41 65.6895 L1044.41 72.576 L1006.78 72.576 L1006.78 12.096 Z" fill="#000000" fill-rule="nonzero" fill-opacity="1" /><path clip-path="url(#clip440)" d="M1075.12 20.1573 L1064.02 50.2555 L1086.26 50.2555 L1075.12 20.1573 M1070.5 12.096 L1079.78 12.096 L1102.83 72.576 L1094.32 72.576 L1088.81 57.061 L1061.55 57.061 L1056.04 72.576 L1047.41 72.576 L1070.5 12.096 Z" fill="#000000" fill-rule="nonzero" fill-opacity="1" /><path clip-path="url(#clip440)" d="M1111.66 12.096 L1123.85 12.096 L1139.29 53.2532 L1154.8 12.096 L1166.99 12.096 L1166.99 72.576 L1159.01 72.576 L1159.01 19.4686 L1143.42 60.9499 L1135.19 60.9499 L1119.6 19.4686 L1119.6 72.576 L1111.66 72.576 L1111.66 12.096 Z" fill="#000000" fill-rule="nonzero" fill-opacity="1" /><path clip-path="url(#clip440)" d="M1183.24 12.096 L1191.42 12.096 L1191.42 65.6895 L1220.87 65.6895 L1220.87 72.576 L1183.24 72.576 L1183.24 12.096 Z" fill="#000000" fill-rule="nonzero" fill-opacity="1" /><path clip-path="url(#clip440)" d="M1251.74 46.9338 L1326.6 46.9338 L1326.6 52.7671 L1251.74 52.7671 L1251.74 46.9338 Z" fill="#000000" fill-rule="nonzero" fill-opacity="1" /><path clip-path="url(#clip440)" d="M1364.23 12.096 L1372.46 12.096 L1372.46 48.8377 Q1372.46 58.5599 1375.98 62.8538 Q1379.5 67.1073 1387.4 67.1073 Q1395.26 67.1073 1398.79 62.8538 Q1402.31 58.5599 1402.31 48.8377 L1402.31 12.096 L1410.53 12.096 L1410.53 49.8504 Q1410.53 61.6791 1404.66 67.7149 Q1398.83 73.7508 1387.4 73.7508 Q1375.94 73.7508 1370.07 67.7149 Q1364.23 61.6791 1364.23 49.8504 L1364.23 12.096 Z" fill="#000000" fill-rule="nonzero" fill-opacity="1" /><path clip-path="url(#clip440)" d="M1463.28 45.1919 L1463.28 72.576 L1455.82 72.576 L1455.82 45.4349 Q1455.82 38.994 1453.31 35.7938 Q1450.8 32.5936 1445.78 32.5936 Q1439.74 32.5936 1436.26 36.4419 Q1432.77 40.2903 1432.77 46.9338 L1432.77 72.576 L1425.28 72.576 L1425.28 27.2059 L1432.77 27.2059 L1432.77 34.2544 Q1435.45 30.163 1439.05 28.1376 Q1442.7 26.1121 1447.44 26.1121 Q1455.26 26.1121 1459.27 30.9732 Q1463.28 35.7938 1463.28 45.1919 Z" fill="#000000" fill-rule="nonzero" fill-opacity="1" /><path clip-path="url(#clip440)" d="M1477.86 9.54393 L1485.35 9.54393 L1485.35 46.7717 L1507.59 27.2059 L1517.11 27.2059 L1493.05 48.4326 L1518.13 72.576 L1508.4 72.576 L1485.35 50.4176 L1485.35 72.576 L1477.86 72.576 L1477.86 9.54393 Z" fill="#000000" fill-rule="nonzero" fill-opacity="1" /><path clip-path="url(#clip440)" d="M1563.9 45.1919 L1563.9 72.576 L1556.45 72.576 L1556.45 45.4349 Q1556.45 38.994 1553.94 35.7938 Q1551.43 32.5936 1546.4 32.5936 Q1540.37 32.5936 1536.88 36.4419 Q1533.4 40.2903 1533.4 46.9338 L1533.4 72.576 L1525.9 72.576 L1525.9 27.2059 L1533.4 27.2059 L1533.4 34.2544 Q1536.07 30.163 1539.68 28.1376 Q1543.32 26.1121 1548.06 26.1121 Q1555.88 26.1121 1559.89 30.9732 Q1563.9 35.7938 1563.9 45.1919 Z" fill="#000000" fill-rule="nonzero" fill-opacity="1" /><path clip-path="url(#clip440)" d="M1596.35 32.4315 Q1590.35 32.4315 1586.87 37.1306 Q1583.39 41.7891 1583.39 49.9314 Q1583.39 58.0738 1586.83 62.7728 Q1590.31 67.4314 1596.35 67.4314 Q1602.3 67.4314 1605.79 62.7323 Q1609.27 58.0333 1609.27 49.9314 Q1609.27 41.8701 1605.79 37.1711 Q1602.3 32.4315 1596.35 32.4315 M1596.35 26.1121 Q1606.07 26.1121 1611.62 32.4315 Q1617.17 38.7509 1617.17 49.9314 Q1617.17 61.0714 1611.62 67.4314 Q1606.07 73.7508 1596.35 73.7508 Q1586.59 73.7508 1581.04 67.4314 Q1575.53 61.0714 1575.53 49.9314 Q1575.53 38.7509 1581.04 32.4315 Q1586.59 26.1121 1596.35 26.1121 Z" fill="#000000" fill-rule="nonzero" fill-opacity="1" /><path clip-path="url(#clip440)" d="M1625.19 27.2059 L1632.65 27.2059 L1641.96 62.6108 L1651.24 27.2059 L1660.03 27.2059 L1669.35 62.6108 L1678.62 27.2059 L1686.08 27.2059 L1674.21 72.576 L1665.42 72.576 L1655.65 35.3887 L1645.85 72.576 L1637.06 72.576 L1625.19 27.2059 Z" fill="#000000" fill-rule="nonzero" fill-opacity="1" /><path clip-path="url(#clip440)" d="M1735.09 45.1919 L1735.09 72.576 L1727.64 72.576 L1727.64 45.4349 Q1727.64 38.994 1725.13 35.7938 Q1722.62 32.5936 1717.59 32.5936 Q1711.56 32.5936 1708.07 36.4419 Q1704.59 40.2903 1704.59 46.9338 L1704.59 72.576 L1697.1 72.576 L1697.1 27.2059 L1704.59 27.2059 L1704.59 34.2544 Q1707.26 30.163 1710.87 28.1376 Q1714.51 26.1121 1719.25 26.1121 Q1727.07 26.1121 1731.08 30.9732 Q1735.09 35.7938 1735.09 45.1919 Z" fill="#000000" fill-rule="nonzero" fill-opacity="1" /><path clip-path="url(#clip440)" d="M1776.66 12.096 L1811.41 12.096 L1811.41 18.9825 L1784.84 18.9825 L1784.84 36.8065 L1808.82 36.8065 L1808.82 43.6931 L1784.84 43.6931 L1784.84 72.576 L1776.66 72.576 L1776.66 12.096 Z" fill="#000000" fill-rule="nonzero" fill-opacity="1" /><path clip-path="url(#clip440)" d="M1818.74 54.671 L1818.74 27.2059 L1826.2 27.2059 L1826.2 54.3874 Q1826.2 60.8284 1828.71 64.0691 Q1831.22 67.2693 1836.24 67.2693 Q1842.28 67.2693 1845.76 63.421 Q1849.29 59.5726 1849.29 52.9291 L1849.29 27.2059 L1856.74 27.2059 L1856.74 72.576 L1849.29 72.576 L1849.29 65.6084 Q1846.57 69.7404 1842.97 71.7658 Q1839.4 73.7508 1834.66 73.7508 Q1826.85 73.7508 1822.8 68.8897 Q1818.74 64.0286 1818.74 54.671 M1837.5 26.1121 L1837.5 26.1121 Z" fill="#000000" fill-rule="nonzero" fill-opacity="1" /><path clip-path="url(#clip440)" d="M1909.81 45.1919 L1909.81 72.576 L1902.35 72.576 L1902.35 45.4349 Q1902.35 38.994 1899.84 35.7938 Q1897.33 32.5936 1892.31 32.5936 Q1886.27 32.5936 1882.79 36.4419 Q1879.31 40.2903 1879.31 46.9338 L1879.31 72.576 L1871.81 72.576 L1871.81 27.2059 L1879.31 27.2059 L1879.31 34.2544 Q1881.98 30.163 1885.58 28.1376 Q1889.23 26.1121 1893.97 26.1121 Q1901.79 26.1121 1905.8 30.9732 Q1909.81 35.7938 1909.81 45.1919 Z" fill="#000000" fill-rule="nonzero" fill-opacity="1" /><path clip-path="url(#clip440)" d="M1957.33 28.9478 L1957.33 35.9153 Q1954.17 34.1734 1950.97 33.3227 Q1947.81 32.4315 1944.57 32.4315 Q1937.31 32.4315 1933.3 37.0496 Q1929.29 41.6271 1929.29 49.9314 Q1929.29 58.2358 1933.3 62.8538 Q1937.31 67.4314 1944.57 67.4314 Q1947.81 67.4314 1950.97 66.5807 Q1954.17 65.6895 1957.33 63.9476 L1957.33 70.8341 Q1954.21 72.2924 1950.84 73.0216 Q1947.52 73.7508 1943.76 73.7508 Q1933.51 73.7508 1927.47 67.3098 Q1921.43 60.8689 1921.43 49.9314 Q1921.43 38.832 1927.51 32.472 Q1933.63 26.1121 1944.24 26.1121 Q1947.68 26.1121 1950.97 26.8413 Q1954.25 27.5299 1957.33 28.9478 Z" fill="#000000" fill-rule="nonzero" fill-opacity="1" /><path clip-path="url(#clip440)" d="M1977.66 14.324 L1977.66 27.2059 L1993.01 27.2059 L1993.01 32.9987 L1977.66 32.9987 L1977.66 57.6282 Q1977.66 63.1779 1979.16 64.7578 Q1980.7 66.3376 1985.36 66.3376 L1993.01 66.3376 L1993.01 72.576 L1985.36 72.576 Q1976.73 72.576 1973.45 69.3758 Q1970.17 66.1351 1970.17 57.6282 L1970.17 32.9987 L1964.7 32.9987 L1964.7 27.2059 L1970.17 27.2059 L1970.17 14.324 L1977.66 14.324 Z" fill="#000000" fill-rule="nonzero" fill-opacity="1" /><path clip-path="url(#clip440)" d="M2002.82 27.2059 L2010.27 27.2059 L2010.27 72.576 L2002.82 72.576 L2002.82 27.2059 M2002.82 9.54393 L2010.27 9.54393 L2010.27 18.9825 L2002.82 18.9825 L2002.82 9.54393 Z" fill="#000000" fill-rule="nonzero" fill-opacity="1" /><path clip-path="url(#clip440)" d="M2043.45 32.4315 Q2037.45 32.4315 2033.97 37.1306 Q2030.48 41.7891 2030.48 49.9314 Q2030.48 58.0738 2033.93 62.7728 Q2037.41 67.4314 2043.45 67.4314 Q2049.4 67.4314 2052.89 62.7323 Q2056.37 58.0333 2056.37 49.9314 Q2056.37 41.8701 2052.89 37.1711 Q2049.4 32.4315 2043.45 32.4315 M2043.45 26.1121 Q2053.17 26.1121 2058.72 32.4315 Q2064.27 38.7509 2064.27 49.9314 Q2064.27 61.0714 2058.72 67.4314 Q2053.17 73.7508 2043.45 73.7508 Q2033.69 73.7508 2028.14 67.4314 Q2022.63 61.0714 2022.63 49.9314 Q2022.63 38.7509 2028.14 32.4315 Q2033.69 26.1121 2043.45 26.1121 Z" fill="#000000" fill-rule="nonzero" fill-opacity="1" /><path clip-path="url(#clip440)" d="M2114.34 45.1919 L2114.34 72.576 L2106.89 72.576 L2106.89 45.4349 Q2106.89 38.994 2104.37 35.7938 Q2101.86 32.5936 2096.84 32.5936 Q2090.8 32.5936 2087.32 36.4419 Q2083.84 40.2903 2083.84 46.9338 L2083.84 72.576 L2076.34 72.576 L2076.34 27.2059 L2083.84 27.2059 L2083.84 34.2544 Q2086.51 30.163 2090.11 28.1376 Q2093.76 26.1121 2098.5 26.1121 Q2106.32 26.1121 2110.33 30.9732 Q2114.34 35.7938 2114.34 45.1919 Z" fill="#000000" fill-rule="nonzero" fill-opacity="1" /><path clip-path="url(#clip440)" d="M2181.87 34.1734 Q2180.61 33.4443 2179.11 33.1202 Q2177.65 32.7556 2175.87 32.7556 Q2169.55 32.7556 2166.15 36.8875 Q2162.79 40.9789 2162.79 48.6757 L2162.79 72.576 L2155.29 72.576 L2155.29 27.2059 L2162.79 27.2059 L2162.79 34.2544 Q2165.14 30.1225 2168.9 28.1376 Q2172.67 26.1121 2178.06 26.1121 Q2178.83 26.1121 2179.76 26.2337 Q2180.69 26.3147 2181.83 26.5172 L2181.87 34.1734 Z" fill="#000000" fill-rule="nonzero" fill-opacity="1" /><path clip-path="url(#clip440)" d="M2207.59 9.62495 Q2202.16 18.942 2199.53 28.0566 Q2196.9 37.1711 2196.9 46.5287 Q2196.9 55.8863 2199.53 65.0818 Q2202.2 74.2369 2207.59 83.5134 L2201.11 83.5134 Q2195.03 73.9938 2191.99 64.7983 Q2189 55.6027 2189 46.5287 Q2189 37.4952 2191.99 28.3401 Q2194.99 19.1851 2201.11 9.62495 L2207.59 9.62495 Z" fill="#000000" fill-rule="nonzero" fill-opacity="1" /><path clip-path="url(#clip440)" d="M2222.38 12.096 L2233.39 12.096 L2260.21 62.6918 L2260.21 12.096 L2268.15 12.096 L2268.15 72.576 L2257.13 72.576 L2230.32 21.9802 L2230.32 72.576 L2222.38 72.576 L2222.38 12.096 Z" fill="#000000" fill-rule="nonzero" fill-opacity="1" /><path clip-path="url(#clip440)" d="M2282.94 9.62495 L2289.42 9.62495 Q2295.5 19.1851 2298.49 28.3401 Q2301.53 37.4952 2301.53 46.5287 Q2301.53 55.6027 2298.49 64.7983 Q2295.5 73.9938 2289.42 83.5134 L2282.94 83.5134 Q2288.33 74.2369 2290.96 65.0818 Q2293.63 55.8863 2293.63 46.5287 Q2293.63 37.1711 2290.96 28.0566 Q2288.33 18.942 2282.94 9.62495 Z" fill="#000000" fill-rule="nonzero" fill-opacity="1" /><path clip-path="url(#clip441)" d="M330.76 1047.97 L359.149 995.23 L387.537 935.701 L415.926 882.932 L444.315 836.827 L472.704 803.751 L501.093 785.345 L529.481 786.198 L557.87 794.479 L586.259 805.427 L614.648 818.67 L643.036 835.689 L671.425 852.669 L699.814 869.696 L728.203 883.035 L756.592 892.222 L784.98 895.976 L813.369 897.491 L841.758 901.263 L870.147 907.347 L898.536 911.267 L926.924 914.571 L955.313 915.783 L983.702 906.232 L1012.09 896.735 L1040.48 890.403 L1068.87 882.471 L1097.26 877.247 L1125.65 875.749 L1154.03 872.423 L1182.42 866.038 L1210.81 863.287 L1239.2 861.607 L1267.59 864.999 L1295.98 871.86 L1324.37 880.58 L1352.76 887.183 L1381.15 892.359 L1409.53 895.517 L1437.92 898.059 L1466.31 902.928 L1494.7 913.657 L1523.09 926.38 L1551.48 936.871 L1579.87 941.56 L1608.26 939.445 L1636.64 940.092 L1665.03 938.912 L1693.42 942.531 L1721.81 946.714 L1750.2 955.165 L1778.59 962.395 L1806.98 965.974 L1835.37 967.248 L1863.75 969.045 L1892.14 971.461 L1920.53 976.719 L1948.92 983.897 L1977.31 991.316 L2005.7 995.59 L2034.09 998.257 L2062.48 1000.58 L2090.86 1002.47 L2119.25 1004.51 L2147.64 1006.16 L2176.03 1005.48 L2204.42 1001.12 L2232.81 996.86 L2261.2 994.732 L2289.59 996.496 L2317.98 1001.69 L2346.36 1012.71 L2374.75 1037.64 L2403.14 1086.47 L2431.53 1155.93 L2459.92 1244.67 L2488.31 1342.83 L2516.7 1446.5 L2545.09 1565.42 L2573.47 1688.65 L2573.47 1179.91 L2545.09 1151.67 L2516.7 1124.42 L2488.31 1095.97 L2459.92 1069.99 L2431.53 1045.72 L2403.14 1017.49 L2374.75 984.666 L2346.36 958.401 L2317.98 945.309 L2289.59 943.347 L2261.2 948.545 L2232.81 958.564 L2204.42 970.188 L2176.03 978.256 L2147.64 983.732 L2119.25 985.998 L2090.86 982.113 L2062.48 968.493 L2034.09 954.616 L2005.7 940.34 L1977.31 930.651 L1948.92 922.773 L1920.53 917.037 L1892.14 910.955 L1863.75 898.781 L1835.37 886.14 L1806.98 875.467 L1778.59 868.124 L1750.2 865.161 L1721.81 861.492 L1693.42 856.054 L1665.03 841.358 L1636.64 823.616 L1608.26 807.349 L1579.87 789.724 L1551.48 775.877 L1523.09 772.277 L1494.7 774.909 L1466.31 773.745 L1437.92 760.266 L1409.53 746.593 L1381.15 731.768 L1352.76 718.711 L1324.37 705.989 L1295.98 703.879 L1267.59 694.944 L1239.2 689.399 L1210.81 679.516 L1182.42 676.332 L1154.03 673.736 L1125.65 681.304 L1097.26 692.363 L1068.87 718.353 L1040.48 744.997 L1012.09 764.314 L983.702 770.936 L955.313 787.933 L926.924 792.965 L898.536 799.979 L870.147 804.207 L841.758 799.688 L813.369 782.63 L784.98 757.217 L756.592 737.027 L728.203 720.483 L699.814 709.642 L671.425 704.906 L643.036 696.883 L614.648 692.113 L586.259 682.404 L557.87 665.414 L529.481 630.913 L501.093 593.067 L472.704 542.782 L444.315 477.181 L415.926 410.177 L387.537 339.473 L359.149 260.271 L330.76 173.254  Z" fill="#1e90ff" fill-rule="evenodd" fill-opacity="0.2"/>
<polyline clip-path="url(#clip441)" style="stroke:#1e90ff; stroke-linecap:round; stroke-linejoin:round; stroke-width:8; stroke-opacity:1; fill:none" points="330.76,651.204 359.149,663.864 387.537,672.076 415.926,684.319 444.315,695.936 472.704,707.94 501.093,720.3 529.481,729.95 557.87,739.594 586.259,752.259 614.648,764.752 643.036,777.978 671.425,790.985 699.814,804.631 728.203,817.299 756.592,827.449 784.98,837.142 813.369,848.835 841.758,855.048 870.147,862.478 898.536,865.281 926.924,864.792 955.313,860.837 983.702,853.188 1012.09,842.895 1040.48,830.495 1068.87,819.692 1097.26,807.727 1125.65,799.164 1154.03,790.469 1182.42,786.955 1210.81,788.829 1239.2,791.767 1267.59,795.12 1295.98,801.764 1324.37,809.78 1352.76,819.12 1381.15,828.158 1409.53,837.427 1437.92,845.06 1466.31,853.103 1494.7,861.418 1523.09,870.238 1551.48,879.062 1579.87,886.201 1608.26,891.937 1636.64,897.837 1665.03,903.512 1693.42,909.235 1721.81,915.175 1750.2,921.542 1778.59,927.125 1806.98,932.573 1835.37,937.864 1863.75,943.01 1892.14,948.316 1920.53,954.095 1948.92,961.306 1977.31,969.162 2005.7,976.976 2034.09,984.252 2062.48,990.5 2090.86,995.144 2119.25,998.215 2147.64,998.563 2176.03,995.528 2204.42,989.079 2232.81,982.644 2261.2,977.025 2289.59,975.302 2317.98,979.574 2346.36,991.62 2374.75,1013.56 2403.14,1044.96 2431.53,1088.25 2459.92,1140.71 2488.31,1202.29 2516.7,1266.85 2545.09,1334.92 2573.47,1404.36 "/>
<polyline clip-path="url(#clip441)" style="stroke:#ff0000; stroke-linecap:round; stroke-linejoin:round; stroke-width:8; stroke-opacity:1; fill:none" points="330.76,1057.85 359.149,994.275 387.537,932.655 415.926,874.953 444.315,823.128 472.704,779.138 501.093,744.942 529.481,722.5 557.87,713.354 586.259,716.148 614.648,728.289 643.036,747.182 671.425,770.23 699.814,794.837 728.203,818.406 756.592,838.454 784.98,853.966 813.369,864.949 841.758,871.436 870.147,873.456 898.536,871.04 926.924,864.219 955.313,853.051 983.702,838.371 1012.09,821.891 1040.48,805.37 1068.87,790.566 1097.26,779.237 1125.65,773.142 1154.03,774.026 1182.42,782.366 1210.81,796.321 1239.2,813.803 1267.59,832.725 1295.98,851 1324.37,866.54 1352.76,877.259 1381.15,881.869 1409.53,881.522 1437.92,877.835 1466.31,872.423 1494.7,866.902 1523.09,862.889 1551.48,861.998 1579.87,865.515 1608.26,872.981 1636.64,883.366 1665.03,895.639 1693.42,908.769 1721.81,921.727 1750.2,933.481 1778.59,943.098 1806.98,950.558 1835.37,956.34 1863.75,960.929 1892.14,964.808 1920.53,968.463 1948.92,972.377 1977.31,977.005 2005.7,982.203 2034.09,987.3 2062.48,991.609 2090.86,994.439 2119.25,995.103 2147.64,992.91 2176.03,987.199 2204.42,978.651 2232.81,969.865 2261.2,963.588 2289.59,962.568 2317.98,969.551 2346.36,987.284 2374.75,1018.51 2403.14,1064.63 2431.53,1123.9 2459.92,1194.14 2488.31,1273.14 2516.7,1358.72 2545.09,1448.69 2573.47,1540.85 "/>
<polyline clip-path="url(#clip441)" style="stroke:#000000; stroke-linecap:round; stroke-linejoin:round; stroke-width:8; stroke-opacity:1; fill:none" stroke-dasharray="32, 20" points="330.76,724.663 359.149,728.789 387.537,732.915 415.926,737.042 444.315,741.168 472.704,745.294 501.093,749.421 529.481,753.547 557.87,757.673 586.259,761.8 614.648,765.926 643.036,770.052 671.425,774.178 699.814,778.305 728.203,782.431 756.592,786.557 784.98,790.684 813.369,794.81 841.758,798.936 870.147,803.063 898.536,807.189 926.924,811.315 955.313,815.441 983.702,819.568 1012.09,823.694 1040.48,827.82 1068.87,831.947 1097.26,836.073 1125.65,840.199 1154.03,844.326 1182.42,848.452 1210.81,852.578 1239.2,856.704 1267.59,860.831 1295.98,864.957 1324.37,869.083 1352.76,873.21 1381.15,877.336 1409.53,881.462 1437.92,885.589 1466.31,889.715 1494.7,893.841 1523.09,897.967 1551.48,902.094 1579.87,906.22 1608.26,910.346 1636.64,914.473 1665.03,918.599 1693.42,922.725 1721.81,926.852 1750.2,930.978 1778.59,935.104 1806.98,939.23 1835.37,943.357 1863.75,947.483 1892.14,951.609 1920.53,955.736 1948.92,959.862 1977.31,963.988 2005.7,968.115 2034.09,972.241 2062.48,976.367 2090.86,980.493 2119.25,984.62 2147.64,988.746 2176.03,992.872 2204.42,996.999 2232.81,1001.12 2261.2,1005.25 2289.59,1009.38 2317.98,1013.5 2346.36,1017.63 2374.75,1021.76 2403.14,1025.88 2431.53,1030.01 2459.92,1034.14 2488.31,1038.26 2516.7,1042.39 2545.09,1046.51 2573.47,1050.64 "/>
<polyline clip-path="url(#clip441)" style="stroke:#808080; stroke-linecap:round; stroke-linejoin:round; stroke-width:4; stroke-opacity:1; fill:none" stroke-dasharray="2, 4" points="-2113.8,1019.6 5018.03,1019.6 "/>
<path clip-path="url(#clip441)" d="M2476.53 3340.44 L2476.53 -1478.53 L2573.47 -1478.53 L2573.47 3340.44 L2476.53 3340.44  Z" fill="#ffa500" fill-rule="evenodd" fill-opacity="0.08"/>
<polyline clip-path="url(#clip441)" style="stroke:#000000; stroke-linecap:round; stroke-linejoin:round; stroke-width:0; stroke-opacity:0.08; fill:none" points="2476.53,3340.44 2476.53,-1478.53 2573.47,-1478.53 2573.47,3340.44 2476.53,3340.44 "/>
<path clip-path="url(#clip440)" d="M1717.35 440.536 L2561.51 440.536 L2561.51 181.336 L1717.35 181.336  Z" fill="#ffffff" fill-rule="evenodd" fill-opacity="1"/>
<polyline clip-path="url(#clip440)" style="stroke:#000000; stroke-linecap:round; stroke-linejoin:round; stroke-width:4; stroke-opacity:1; fill:none" points="1717.35,440.536 2561.51,440.536 2561.51,181.336 1717.35,181.336 1717.35,440.536 "/>
<polyline clip-path="url(#clip440)" style="stroke:#1e90ff; stroke-linecap:round; stroke-linejoin:round; stroke-width:8; stroke-opacity:1; fill:none" points="1743.77,233.176 1902.25,233.176 "/>
<path clip-path="url(#clip440)" d="M1928.67 215.896 L1935.63 215.896 L1944.45 239.415 L1953.32 215.896 L1960.29 215.896 L1960.29 250.456 L1955.73 250.456 L1955.73 220.109 L1946.82 243.813 L1942.12 243.813 L1933.2 220.109 L1933.2 250.456 L1928.67 250.456 L1928.67 215.896 Z" fill="#000000" fill-rule="nonzero" fill-opacity="1" /><path clip-path="url(#clip440)" d="M1995.45 218.558 L1995.45 223.489 Q1993.09 221.29 1990.4 220.202 Q1987.74 219.114 1984.73 219.114 Q1978.81 219.114 1975.66 222.748 Q1972.51 226.359 1972.51 233.211 Q1972.51 240.04 1975.66 243.674 Q1978.81 247.285 1984.73 247.285 Q1987.74 247.285 1990.4 246.197 Q1993.09 245.109 1995.45 242.91 L1995.45 247.794 Q1993 249.461 1990.24 250.294 Q1987.51 251.128 1984.45 251.128 Q1976.61 251.128 1972.09 246.336 Q1967.58 241.521 1967.58 233.211 Q1967.58 224.878 1972.09 220.086 Q1976.61 215.271 1984.45 215.271 Q1987.56 215.271 1990.29 216.105 Q1993.04 216.915 1995.45 218.558 Z" fill="#000000" fill-rule="nonzero" fill-opacity="1" /><path clip-path="url(#clip440)" d="M2002.67 215.896 L2009.64 215.896 L2018.46 239.415 L2027.32 215.896 L2034.29 215.896 L2034.29 250.456 L2029.73 250.456 L2029.73 220.109 L2020.82 243.813 L2016.12 243.813 L2007.21 220.109 L2007.21 250.456 L2002.67 250.456 L2002.67 215.896 Z" fill="#000000" fill-rule="nonzero" fill-opacity="1" /><path clip-path="url(#clip440)" d="M2069.45 218.558 L2069.45 223.489 Q2067.09 221.29 2064.41 220.202 Q2061.75 219.114 2058.74 219.114 Q2052.81 219.114 2049.66 222.748 Q2046.51 226.359 2046.51 233.211 Q2046.51 240.04 2049.66 243.674 Q2052.81 247.285 2058.74 247.285 Q2061.75 247.285 2064.41 246.197 Q2067.09 245.109 2069.45 242.91 L2069.45 247.794 Q2067 249.461 2064.25 250.294 Q2061.51 251.128 2058.46 251.128 Q2050.61 251.128 2046.1 246.336 Q2041.58 241.521 2041.58 233.211 Q2041.58 224.878 2046.1 220.086 Q2050.61 215.271 2058.46 215.271 Q2061.56 215.271 2064.29 216.105 Q2067.05 216.915 2069.45 218.558 Z" fill="#000000" fill-rule="nonzero" fill-opacity="1" /><path clip-path="url(#clip440)" d="M2101.79 214.484 Q2098.69 219.808 2097.18 225.017 Q2095.68 230.225 2095.68 235.572 Q2095.68 240.919 2097.18 246.174 Q2098.71 251.405 2101.79 256.706 L2098.09 256.706 Q2094.62 251.266 2092.88 246.012 Q2091.17 240.757 2091.17 235.572 Q2091.17 230.41 2092.88 225.179 Q2094.59 219.947 2098.09 214.484 L2101.79 214.484 Z" fill="#000000" fill-rule="nonzero" fill-opacity="1" /><path clip-path="url(#clip440)" d="M2130.24 229.507 Q2131.84 226.637 2134.06 225.271 Q2136.28 223.906 2139.29 223.906 Q2143.34 223.906 2145.54 226.753 Q2147.74 229.577 2147.74 234.808 L2147.74 250.456 L2143.46 250.456 L2143.46 234.947 Q2143.46 231.22 2142.14 229.415 Q2140.82 227.609 2138.11 227.609 Q2134.8 227.609 2132.88 229.808 Q2130.96 232.007 2130.96 235.804 L2130.96 250.456 L2126.68 250.456 L2126.68 234.947 Q2126.68 231.197 2125.36 229.415 Q2124.04 227.609 2121.28 227.609 Q2118.02 227.609 2116.1 229.831 Q2114.18 232.03 2114.18 235.804 L2114.18 250.456 L2109.89 250.456 L2109.89 224.531 L2114.18 224.531 L2114.18 228.558 Q2115.63 226.174 2117.67 225.04 Q2119.71 223.906 2122.51 223.906 Q2125.33 223.906 2127.3 225.341 Q2129.29 226.776 2130.24 229.507 Z" fill="#000000" fill-rule="nonzero" fill-opacity="1" /><path clip-path="url(#clip440)" d="M2178.41 236.429 L2178.41 238.512 L2158.83 238.512 Q2159.11 242.91 2161.47 245.225 Q2163.85 247.516 2168.09 247.516 Q2170.54 247.516 2172.83 246.915 Q2175.15 246.313 2177.42 245.109 L2177.42 249.137 Q2175.12 250.109 2172.72 250.618 Q2170.31 251.128 2167.83 251.128 Q2161.63 251.128 2157.99 247.516 Q2154.38 243.905 2154.38 237.748 Q2154.38 231.382 2157.81 227.655 Q2161.26 223.906 2167.09 223.906 Q2172.32 223.906 2175.36 227.285 Q2178.41 230.642 2178.41 236.429 M2174.15 235.179 Q2174.11 231.683 2172.18 229.6 Q2170.29 227.517 2167.14 227.517 Q2163.57 227.517 2161.42 229.53 Q2159.29 231.544 2158.97 235.202 L2174.15 235.179 Z" fill="#000000" fill-rule="nonzero" fill-opacity="1" /><path clip-path="url(#clip440)" d="M2202.46 228.466 L2202.46 214.438 L2206.72 214.438 L2206.72 250.456 L2202.46 250.456 L2202.46 246.567 Q2201.12 248.882 2199.06 250.016 Q2197.02 251.128 2194.15 251.128 Q2189.45 251.128 2186.49 247.378 Q2183.55 243.628 2183.55 237.517 Q2183.55 231.405 2186.49 227.655 Q2189.45 223.906 2194.15 223.906 Q2197.02 223.906 2199.06 225.04 Q2201.12 226.151 2202.46 228.466 M2187.95 237.517 Q2187.95 242.216 2189.87 244.901 Q2191.81 247.563 2195.19 247.563 Q2198.57 247.563 2200.52 244.901 Q2202.46 242.216 2202.46 237.517 Q2202.46 232.817 2200.52 230.155 Q2198.57 227.47 2195.19 227.47 Q2191.81 227.47 2189.87 230.155 Q2187.95 232.817 2187.95 237.517 Z" fill="#000000" fill-rule="nonzero" fill-opacity="1" /><path clip-path="url(#clip440)" d="M2215.49 224.531 L2219.75 224.531 L2219.75 250.456 L2215.49 250.456 L2215.49 224.531 M2215.49 214.438 L2219.75 214.438 L2219.75 219.831 L2215.49 219.831 L2215.49 214.438 Z" fill="#000000" fill-rule="nonzero" fill-opacity="1" /><path clip-path="url(#clip440)" d="M2240.45 237.424 Q2235.29 237.424 2233.3 238.604 Q2231.3 239.785 2231.3 242.632 Q2231.3 244.901 2232.79 246.243 Q2234.29 247.563 2236.86 247.563 Q2240.4 247.563 2242.53 245.063 Q2244.68 242.54 2244.68 238.373 L2244.68 237.424 L2240.45 237.424 M2248.94 235.665 L2248.94 250.456 L2244.68 250.456 L2244.68 246.521 Q2243.23 248.882 2241.05 250.016 Q2238.87 251.128 2235.73 251.128 Q2231.74 251.128 2229.38 248.905 Q2227.05 246.66 2227.05 242.91 Q2227.05 238.535 2229.96 236.313 Q2232.9 234.091 2238.71 234.091 L2244.68 234.091 L2244.68 233.674 Q2244.68 230.734 2242.74 229.137 Q2240.82 227.517 2237.32 227.517 Q2235.1 227.517 2232.99 228.049 Q2230.89 228.581 2228.94 229.646 L2228.94 225.711 Q2231.28 224.808 2233.48 224.368 Q2235.68 223.906 2237.76 223.906 Q2243.39 223.906 2246.17 226.822 Q2248.94 229.739 2248.94 235.665 Z" fill="#000000" fill-rule="nonzero" fill-opacity="1" /><path clip-path="url(#clip440)" d="M2279.27 234.808 L2279.27 250.456 L2275.01 250.456 L2275.01 234.947 Q2275.01 231.267 2273.57 229.438 Q2272.14 227.609 2269.27 227.609 Q2265.82 227.609 2263.83 229.808 Q2261.84 232.007 2261.84 235.804 L2261.84 250.456 L2257.55 250.456 L2257.55 224.531 L2261.84 224.531 L2261.84 228.558 Q2263.36 226.22 2265.42 225.063 Q2267.51 223.906 2270.22 223.906 Q2274.68 223.906 2276.98 226.683 Q2279.27 229.438 2279.27 234.808 Z" fill="#000000" fill-rule="nonzero" fill-opacity="1" /><path clip-path="url(#clip440)" d="M2320.17 220.734 L2320.17 233.628 L2333.06 233.628 L2333.06 237.563 L2320.17 237.563 L2320.17 250.456 L2316.28 250.456 L2316.28 237.563 L2303.39 237.563 L2303.39 233.628 L2316.28 233.628 L2316.28 220.734 L2320.17 220.734 Z" fill="#000000" fill-rule="nonzero" fill-opacity="1" /><path clip-path="url(#clip440)" d="M2358.36 249.739 L2358.36 245.479 Q2360.12 246.313 2361.93 246.753 Q2363.73 247.192 2365.47 247.192 Q2370.1 247.192 2372.53 244.091 Q2374.98 240.966 2375.33 234.623 Q2373.99 236.614 2371.93 237.679 Q2369.87 238.743 2367.37 238.743 Q2362.18 238.743 2359.15 235.618 Q2356.14 232.47 2356.14 227.03 Q2356.14 221.706 2359.29 218.489 Q2362.44 215.271 2367.67 215.271 Q2373.66 215.271 2376.81 219.878 Q2379.98 224.461 2379.98 233.211 Q2379.98 241.382 2376.1 246.266 Q2372.23 251.128 2365.68 251.128 Q2363.92 251.128 2362.11 250.78 Q2360.31 250.433 2358.36 249.739 M2367.67 235.086 Q2370.82 235.086 2372.65 232.933 Q2374.5 230.78 2374.5 227.03 Q2374.5 223.304 2372.65 221.151 Q2370.82 218.975 2367.67 218.975 Q2364.52 218.975 2362.67 221.151 Q2360.84 223.304 2360.84 227.03 Q2360.84 230.78 2362.67 232.933 Q2364.52 235.086 2367.67 235.086 Z" fill="#000000" fill-rule="nonzero" fill-opacity="1" /><path clip-path="url(#clip440)" d="M2388.43 215.896 L2406.79 215.896 L2406.79 219.831 L2392.72 219.831 L2392.72 228.304 Q2393.73 227.956 2394.75 227.794 Q2395.77 227.609 2396.79 227.609 Q2402.58 227.609 2405.96 230.78 Q2409.34 233.952 2409.34 239.368 Q2409.34 244.947 2405.86 248.049 Q2402.39 251.128 2396.07 251.128 Q2393.9 251.128 2391.63 250.757 Q2389.38 250.387 2386.97 249.646 L2386.97 244.947 Q2389.06 246.081 2391.28 246.637 Q2393.5 247.192 2395.98 247.192 Q2399.98 247.192 2402.32 245.086 Q2404.66 242.979 2404.66 239.368 Q2404.66 235.757 2402.32 233.651 Q2399.98 231.544 2395.98 231.544 Q2394.1 231.544 2392.23 231.961 Q2390.38 232.378 2388.43 233.257 L2388.43 215.896 Z" fill="#000000" fill-rule="nonzero" fill-opacity="1" /><path clip-path="url(#clip440)" d="M2447.95 235.248 Q2445.93 235.248 2444.78 236.961 Q2443.64 238.674 2443.64 241.729 Q2443.64 244.739 2444.78 246.475 Q2445.93 248.188 2447.95 248.188 Q2449.91 248.188 2451.05 246.475 Q2452.21 244.739 2452.21 241.729 Q2452.21 238.697 2451.05 236.984 Q2449.91 235.248 2447.95 235.248 M2447.95 232.308 Q2451.6 232.308 2453.76 234.855 Q2455.91 237.401 2455.91 241.729 Q2455.91 246.058 2453.73 248.604 Q2451.58 251.128 2447.95 251.128 Q2444.24 251.128 2442.09 248.604 Q2439.94 246.058 2439.94 241.729 Q2439.94 237.378 2442.09 234.855 Q2444.27 232.308 2447.95 232.308 M2424.06 218.211 Q2422.07 218.211 2420.91 219.947 Q2419.78 221.66 2419.78 224.669 Q2419.78 227.725 2420.91 229.438 Q2422.04 231.151 2424.06 231.151 Q2426.07 231.151 2427.21 229.438 Q2428.36 227.725 2428.36 224.669 Q2428.36 221.683 2427.21 219.947 Q2426.05 218.211 2424.06 218.211 M2444.96 215.271 L2448.66 215.271 L2427.04 251.128 L2423.34 251.128 L2444.96 215.271 M2424.06 215.271 Q2427.72 215.271 2429.89 217.818 Q2432.07 220.341 2432.07 224.669 Q2432.07 229.044 2429.89 231.568 Q2427.74 234.091 2424.06 234.091 Q2420.38 234.091 2418.22 231.568 Q2416.1 229.021 2416.1 224.669 Q2416.1 220.364 2418.25 217.818 Q2420.4 215.271 2424.06 215.271 Z" fill="#000000" fill-rule="nonzero" fill-opacity="1" /><path clip-path="url(#clip440)" d="M2504.13 218.558 L2504.13 223.489 Q2501.77 221.29 2499.08 220.202 Q2496.42 219.114 2493.41 219.114 Q2487.48 219.114 2484.34 222.748 Q2481.19 226.359 2481.19 233.211 Q2481.19 240.04 2484.34 243.674 Q2487.48 247.285 2493.41 247.285 Q2496.42 247.285 2499.08 246.197 Q2501.77 245.109 2504.13 242.91 L2504.13 247.794 Q2501.67 249.461 2498.92 250.294 Q2496.19 251.128 2493.13 251.128 Q2485.28 251.128 2480.77 246.336 Q2476.26 241.521 2476.26 233.211 Q2476.26 224.878 2480.77 220.086 Q2485.28 215.271 2493.13 215.271 Q2496.23 215.271 2498.97 216.105 Q2501.72 216.915 2504.13 218.558 Z" fill="#000000" fill-rule="nonzero" fill-opacity="1" /><path clip-path="url(#clip440)" d="M2511.35 215.896 L2516.03 215.896 L2516.03 250.456 L2511.35 250.456 L2511.35 215.896 Z" fill="#000000" fill-rule="nonzero" fill-opacity="1" /><path clip-path="url(#clip440)" d="M2524.47 214.484 L2528.18 214.484 Q2531.65 219.947 2533.36 225.179 Q2535.1 230.41 2535.1 235.572 Q2535.1 240.757 2533.36 246.012 Q2531.65 251.266 2528.18 256.706 L2524.47 256.706 Q2527.55 251.405 2529.06 246.174 Q2530.59 240.919 2530.59 235.572 Q2530.59 230.225 2529.06 225.017 Q2527.55 219.808 2524.47 214.484 Z" fill="#000000" fill-rule="nonzero" fill-opacity="1" /><polyline clip-path="url(#clip440)" style="stroke:#ff0000; stroke-linecap:round; stroke-linejoin:round; stroke-width:8; stroke-opacity:1; fill:none" points="1743.77,285.016 1902.25,285.016 "/>
<path clip-path="url(#clip440)" d="M1928.67 267.736 L1933.34 267.736 L1933.34 298.361 L1950.17 298.361 L1950.17 302.296 L1928.67 302.296 L1928.67 267.736 Z" fill="#000000" fill-rule="nonzero" fill-opacity="1" /><path clip-path="url(#clip440)" d="M1967.72 272.343 L1961.38 289.542 L1974.08 289.542 L1967.72 272.343 M1965.08 267.736 L1970.38 267.736 L1983.55 302.296 L1978.69 302.296 L1975.54 293.431 L1959.96 293.431 L1956.82 302.296 L1951.88 302.296 L1965.08 267.736 Z" fill="#000000" fill-rule="nonzero" fill-opacity="1" /><path clip-path="url(#clip440)" d="M1988.6 267.736 L1995.56 267.736 L2004.38 291.255 L2013.25 267.736 L2020.22 267.736 L2020.22 302.296 L2015.66 302.296 L2015.66 271.949 L2006.75 295.653 L2002.05 295.653 L1993.13 271.949 L1993.13 302.296 L1988.6 302.296 L1988.6 267.736 Z" fill="#000000" fill-rule="nonzero" fill-opacity="1" /><path clip-path="url(#clip440)" d="M2029.5 267.736 L2034.18 267.736 L2034.18 298.361 L2051 298.361 L2051 302.296 L2029.5 302.296 L2029.5 267.736 Z" fill="#000000" fill-rule="nonzero" fill-opacity="1" /><polyline clip-path="url(#clip440)" style="stroke:#000000; stroke-linecap:round; stroke-linejoin:round; stroke-width:8; stroke-opacity:1; fill:none" stroke-dasharray="32, 20" points="1743.77,336.856 1902.25,336.856 "/>
<path clip-path="url(#clip440)" d="M1928.67 319.576 L1957.9 319.576 L1957.9 323.511 L1945.63 323.511 L1945.63 354.136 L1940.94 354.136 L1940.94 323.511 L1928.67 323.511 L1928.67 319.576 Z" fill="#000000" fill-rule="nonzero" fill-opacity="1" /><path clip-path="url(#clip440)" d="M1970.29 332.192 Q1969.57 331.775 1968.71 331.59 Q1967.88 331.382 1966.86 331.382 Q1963.25 331.382 1961.31 333.743 Q1959.38 336.081 1959.38 340.479 L1959.38 354.136 L1955.1 354.136 L1955.1 328.211 L1959.38 328.211 L1959.38 332.238 Q1960.73 329.877 1962.88 328.743 Q1965.03 327.586 1968.11 327.586 Q1968.55 327.586 1969.08 327.655 Q1969.62 327.701 1970.26 327.817 L1970.29 332.192 Z" fill="#000000" fill-rule="nonzero" fill-opacity="1" /><path clip-path="url(#clip440)" d="M1974.32 343.905 L1974.32 328.211 L1978.57 328.211 L1978.57 343.743 Q1978.57 347.423 1980.01 349.275 Q1981.44 351.104 1984.32 351.104 Q1987.76 351.104 1989.75 348.905 Q1991.77 346.706 1991.77 342.909 L1991.77 328.211 L1996.03 328.211 L1996.03 354.136 L1991.77 354.136 L1991.77 350.155 Q1990.22 352.516 1988.16 353.673 Q1986.12 354.808 1983.41 354.808 Q1978.94 354.808 1976.63 352.03 Q1974.32 349.252 1974.32 343.905 M1985.03 327.586 L1985.03 327.586 Z" fill="#000000" fill-rule="nonzero" fill-opacity="1" /><path clip-path="url(#clip440)" d="M2026.98 340.109 L2026.98 342.192 L2007.39 342.192 Q2007.67 346.59 2010.03 348.905 Q2012.42 351.196 2016.65 351.196 Q2019.11 351.196 2021.4 350.595 Q2023.71 349.993 2025.98 348.789 L2025.98 352.817 Q2023.69 353.789 2021.28 354.298 Q2018.88 354.808 2016.4 354.808 Q2010.19 354.808 2006.56 351.196 Q2002.95 347.585 2002.95 341.428 Q2002.95 335.062 2006.38 331.335 Q2009.82 327.586 2015.66 327.586 Q2020.89 327.586 2023.92 330.965 Q2026.98 334.322 2026.98 340.109 M2022.72 338.859 Q2022.67 335.363 2020.75 333.28 Q2018.85 331.197 2015.7 331.197 Q2012.14 331.197 2009.99 333.21 Q2007.86 335.224 2007.53 338.882 L2022.72 338.859 Z" fill="#000000" fill-rule="nonzero" fill-opacity="1" /><path clip-path="url(#clip440)" d="M2064.06 332.192 Q2063.34 331.775 2062.49 331.59 Q2061.65 331.382 2060.63 331.382 Q2057.02 331.382 2055.08 333.743 Q2053.16 336.081 2053.16 340.479 L2053.16 354.136 L2048.87 354.136 L2048.87 328.211 L2053.16 328.211 L2053.16 332.238 Q2054.5 329.877 2056.65 328.743 Q2058.81 327.586 2061.88 327.586 Q2062.32 327.586 2062.86 327.655 Q2063.39 327.701 2064.04 327.817 L2064.06 332.192 Z" fill="#000000" fill-rule="nonzero" fill-opacity="1" /><path clip-path="url(#clip440)" d="M2078.76 318.164 Q2075.66 323.488 2074.15 328.697 Q2072.65 333.905 2072.65 339.252 Q2072.65 344.599 2074.15 349.854 Q2075.68 355.085 2078.76 360.386 L2075.06 360.386 Q2071.58 354.946 2069.85 349.692 Q2068.13 344.437 2068.13 339.252 Q2068.13 334.09 2069.85 328.859 Q2071.56 323.627 2075.06 318.164 L2078.76 318.164 Z" fill="#000000" fill-rule="nonzero" fill-opacity="1" /><path clip-path="url(#clip440)" d="M2087.21 319.576 L2093.5 319.576 L2108.83 348.488 L2108.83 319.576 L2113.37 319.576 L2113.37 354.136 L2107.07 354.136 L2091.75 325.224 L2091.75 354.136 L2087.21 354.136 L2087.21 319.576 Z" fill="#000000" fill-rule="nonzero" fill-opacity="1" /><path clip-path="url(#clip440)" d="M2121.81 318.164 L2125.52 318.164 Q2128.99 323.627 2130.7 328.859 Q2132.44 334.09 2132.44 339.252 Q2132.44 344.437 2130.7 349.692 Q2128.99 354.946 2125.52 360.386 L2121.81 360.386 Q2124.89 355.085 2126.4 349.854 Q2127.93 344.599 2127.93 339.252 Q2127.93 333.905 2126.4 328.697 Q2124.89 323.488 2121.81 318.164 Z" fill="#000000" fill-rule="nonzero" fill-opacity="1" /><path clip-path="url(#clip440)" d="M1743.77 409.432 L1902.25 409.432 L1902.25 367.96 L1743.77 367.96 L1743.77 409.432  Z" fill="#ffa500" fill-rule="evenodd" fill-opacity="0.08"/>
<polyline clip-path="url(#clip440)" style="stroke:#000000; stroke-linecap:round; stroke-linejoin:round; stroke-width:0.8; stroke-opacity:1; fill:none" points="1743.77,409.432 1902.25,409.432 1902.25,367.96 1743.77,367.96 1743.77,409.432 "/>
<path clip-path="url(#clip440)" d="M1933.34 389.472 L1933.34 402.134 L1940.84 402.134 Q1944.62 402.134 1946.42 400.583 Q1948.25 399.009 1948.25 395.791 Q1948.25 392.55 1946.42 391.023 Q1944.62 389.472 1940.84 389.472 L1933.34 389.472 M1933.34 375.259 L1933.34 385.675 L1940.26 385.675 Q1943.69 385.675 1945.36 384.402 Q1947.05 383.106 1947.05 380.467 Q1947.05 377.851 1945.36 376.555 Q1943.69 375.259 1940.26 375.259 L1933.34 375.259 M1928.67 371.416 L1940.61 371.416 Q1945.96 371.416 1948.85 373.638 Q1951.75 375.861 1951.75 379.958 Q1951.75 383.129 1950.26 385.004 Q1948.78 386.879 1945.91 387.342 Q1949.36 388.083 1951.26 390.444 Q1953.18 392.782 1953.18 396.3 Q1953.18 400.93 1950.03 403.453 Q1946.88 405.976 1941.07 405.976 L1928.67 405.976 L1928.67 371.416 Z" fill="#000000" fill-rule="nonzero" fill-opacity="1" /><path clip-path="url(#clip440)" d="M1983.18 391.949 L1983.18 394.032 L1963.6 394.032 Q1963.88 398.43 1966.24 400.745 Q1968.62 403.036 1972.86 403.036 Q1975.31 403.036 1977.6 402.435 Q1979.92 401.833 1982.19 400.629 L1982.19 404.657 Q1979.89 405.629 1977.49 406.138 Q1975.08 406.648 1972.6 406.648 Q1966.4 406.648 1962.76 403.036 Q1959.15 399.425 1959.15 393.268 Q1959.15 386.902 1962.58 383.175 Q1966.03 379.426 1971.86 379.426 Q1977.09 379.426 1980.13 382.805 Q1983.18 386.162 1983.18 391.949 M1978.92 390.699 Q1978.88 387.203 1976.95 385.12 Q1975.06 383.037 1971.91 383.037 Q1968.34 383.037 1966.19 385.05 Q1964.06 387.064 1963.74 390.722 L1978.92 390.699 Z" fill="#000000" fill-rule="nonzero" fill-opacity="1" /><path clip-path="url(#clip440)" d="M2000.96 408.384 Q1999.15 413.013 1997.44 414.425 Q1995.73 415.837 1992.86 415.837 L1989.45 415.837 L1989.45 412.273 L1991.95 412.273 Q1993.71 412.273 1994.69 411.439 Q1995.66 410.606 1996.84 407.504 L1997.6 405.56 L1987.12 380.051 L1991.63 380.051 L1999.73 400.328 L2007.83 380.051 L2012.35 380.051 L2000.96 408.384 Z" fill="#000000" fill-rule="nonzero" fill-opacity="1" /><path clip-path="url(#clip440)" d="M2028.27 383.037 Q2024.85 383.037 2022.86 385.722 Q2020.87 388.384 2020.87 393.037 Q2020.87 397.689 2022.83 400.374 Q2024.82 403.036 2028.27 403.036 Q2031.68 403.036 2033.67 400.351 Q2035.66 397.666 2035.66 393.037 Q2035.66 388.43 2033.67 385.745 Q2031.68 383.037 2028.27 383.037 M2028.27 379.426 Q2033.83 379.426 2037 383.037 Q2040.17 386.648 2040.17 393.037 Q2040.17 399.402 2037 403.036 Q2033.83 406.648 2028.27 406.648 Q2022.69 406.648 2019.52 403.036 Q2016.38 399.402 2016.38 393.037 Q2016.38 386.648 2019.52 383.037 Q2022.69 379.426 2028.27 379.426 Z" fill="#000000" fill-rule="nonzero" fill-opacity="1" /><path clip-path="url(#clip440)" d="M2068.78 390.328 L2068.78 405.976 L2064.52 405.976 L2064.52 390.467 Q2064.52 386.787 2063.09 384.958 Q2061.65 383.129 2058.78 383.129 Q2055.33 383.129 2053.34 385.328 Q2051.35 387.527 2051.35 391.324 L2051.35 405.976 L2047.07 405.976 L2047.07 380.051 L2051.35 380.051 L2051.35 384.078 Q2052.88 381.74 2054.94 380.583 Q2057.02 379.426 2059.73 379.426 Q2064.2 379.426 2066.49 382.203 Q2068.78 384.958 2068.78 390.328 Z" fill="#000000" fill-rule="nonzero" fill-opacity="1" /><path clip-path="url(#clip440)" d="M2094.34 383.986 L2094.34 369.958 L2098.6 369.958 L2098.6 405.976 L2094.34 405.976 L2094.34 402.087 Q2093 404.402 2090.93 405.536 Q2088.9 406.648 2086.03 406.648 Q2081.33 406.648 2078.37 402.898 Q2075.43 399.148 2075.43 393.037 Q2075.43 386.925 2078.37 383.175 Q2081.33 379.426 2086.03 379.426 Q2088.9 379.426 2090.93 380.56 Q2093 381.671 2094.34 383.986 M2079.82 393.037 Q2079.82 397.736 2081.75 400.421 Q2083.69 403.083 2087.07 403.083 Q2090.45 403.083 2092.39 400.421 Q2094.34 397.736 2094.34 393.037 Q2094.34 388.337 2092.39 385.675 Q2090.45 382.99 2087.07 382.99 Q2083.69 382.99 2081.75 385.675 Q2079.82 388.337 2079.82 393.037 Z" fill="#000000" fill-rule="nonzero" fill-opacity="1" /><path clip-path="url(#clip440)" d="M2139.5 383.986 L2139.5 369.958 L2143.76 369.958 L2143.76 405.976 L2139.5 405.976 L2139.5 402.087 Q2138.16 404.402 2136.1 405.536 Q2134.06 406.648 2131.19 406.648 Q2126.49 406.648 2123.53 402.898 Q2120.59 399.148 2120.59 393.037 Q2120.59 386.925 2123.53 383.175 Q2126.49 379.426 2131.19 379.426 Q2134.06 379.426 2136.1 380.56 Q2138.16 381.671 2139.5 383.986 M2124.99 393.037 Q2124.99 397.736 2126.91 400.421 Q2128.85 403.083 2132.23 403.083 Q2135.61 403.083 2137.55 400.421 Q2139.5 397.736 2139.5 393.037 Q2139.5 388.337 2137.55 385.675 Q2135.61 382.99 2132.23 382.99 Q2128.85 382.99 2126.91 385.675 Q2124.99 388.337 2124.99 393.037 Z" fill="#000000" fill-rule="nonzero" fill-opacity="1" /><path clip-path="url(#clip440)" d="M2164.31 392.944 Q2159.15 392.944 2157.16 394.124 Q2155.17 395.305 2155.17 398.152 Q2155.17 400.421 2156.65 401.763 Q2158.16 403.083 2160.73 403.083 Q2164.27 403.083 2166.4 400.583 Q2168.55 398.06 2168.55 393.893 L2168.55 392.944 L2164.31 392.944 M2172.81 391.185 L2172.81 405.976 L2168.55 405.976 L2168.55 402.041 Q2167.09 404.402 2164.92 405.536 Q2162.74 406.648 2159.59 406.648 Q2155.61 406.648 2153.25 404.425 Q2150.91 402.18 2150.91 398.43 Q2150.91 394.055 2153.83 391.833 Q2156.77 389.611 2162.58 389.611 L2168.55 389.611 L2168.55 389.194 Q2168.55 386.254 2166.61 384.657 Q2164.68 383.037 2161.19 383.037 Q2158.97 383.037 2156.86 383.569 Q2154.75 384.101 2152.81 385.166 L2152.81 381.231 Q2155.15 380.328 2157.35 379.888 Q2159.55 379.426 2161.63 379.426 Q2167.25 379.426 2170.03 382.342 Q2172.81 385.259 2172.81 391.185 Z" fill="#000000" fill-rule="nonzero" fill-opacity="1" /><path clip-path="url(#clip440)" d="M2185.8 372.689 L2185.8 380.051 L2194.57 380.051 L2194.57 383.361 L2185.8 383.361 L2185.8 397.435 Q2185.8 400.606 2186.65 401.509 Q2187.53 402.411 2190.19 402.411 L2194.57 402.411 L2194.57 405.976 L2190.19 405.976 Q2185.26 405.976 2183.39 404.148 Q2181.51 402.296 2181.51 397.435 L2181.51 383.361 L2178.39 383.361 L2178.39 380.051 L2181.51 380.051 L2181.51 372.689 L2185.8 372.689 Z" fill="#000000" fill-rule="nonzero" fill-opacity="1" /><path clip-path="url(#clip440)" d="M2211.95 392.944 Q2206.79 392.944 2204.8 394.124 Q2202.81 395.305 2202.81 398.152 Q2202.81 400.421 2204.29 401.763 Q2205.8 403.083 2208.36 403.083 Q2211.91 403.083 2214.04 400.583 Q2216.19 398.06 2216.19 393.893 L2216.19 392.944 L2211.95 392.944 M2220.45 391.185 L2220.45 405.976 L2216.19 405.976 L2216.19 402.041 Q2214.73 404.402 2212.55 405.536 Q2210.38 406.648 2207.23 406.648 Q2203.25 406.648 2200.89 404.425 Q2198.55 402.18 2198.55 398.43 Q2198.55 394.055 2201.47 391.833 Q2204.41 389.611 2210.22 389.611 L2216.19 389.611 L2216.19 389.194 Q2216.19 386.254 2214.24 384.657 Q2212.32 383.037 2208.83 383.037 Q2206.61 383.037 2204.5 383.569 Q2202.39 384.101 2200.45 385.166 L2200.45 381.231 Q2202.79 380.328 2204.99 379.888 Q2207.18 379.426 2209.27 379.426 Q2214.89 379.426 2217.67 382.342 Q2220.45 385.259 2220.45 391.185 Z" fill="#000000" fill-rule="nonzero" fill-opacity="1" /><path clip-path="url(#clip440)" d="M2259.31 384.032 Q2258.6 383.615 2257.74 383.43 Q2256.91 383.222 2255.89 383.222 Q2252.28 383.222 2250.33 385.583 Q2248.41 387.921 2248.41 392.319 L2248.41 405.976 L2244.13 405.976 L2244.13 380.051 L2248.41 380.051 L2248.41 384.078 Q2249.75 381.717 2251.91 380.583 Q2254.06 379.426 2257.14 379.426 Q2257.58 379.426 2258.11 379.495 Q2258.64 379.541 2259.29 379.657 L2259.31 384.032 Z" fill="#000000" fill-rule="nonzero" fill-opacity="1" /><path clip-path="url(#clip440)" d="M2275.56 392.944 Q2270.4 392.944 2268.41 394.124 Q2266.42 395.305 2266.42 398.152 Q2266.42 400.421 2267.9 401.763 Q2269.41 403.083 2271.98 403.083 Q2275.52 403.083 2277.65 400.583 Q2279.8 398.06 2279.8 393.893 L2279.8 392.944 L2275.56 392.944 M2284.06 391.185 L2284.06 405.976 L2279.8 405.976 L2279.8 402.041 Q2278.34 404.402 2276.17 405.536 Q2273.99 406.648 2270.84 406.648 Q2266.86 406.648 2264.5 404.425 Q2262.16 402.18 2262.16 398.43 Q2262.16 394.055 2265.08 391.833 Q2268.02 389.611 2273.83 389.611 L2279.8 389.611 L2279.8 389.194 Q2279.8 386.254 2277.86 384.657 Q2275.93 383.037 2272.44 383.037 Q2270.22 383.037 2268.11 383.569 Q2266 384.101 2264.06 385.166 L2264.06 381.231 Q2266.4 380.328 2268.6 379.888 Q2270.79 379.426 2272.88 379.426 Q2278.5 379.426 2281.28 382.342 Q2284.06 385.259 2284.06 391.185 Z" fill="#000000" fill-rule="nonzero" fill-opacity="1" /><path clip-path="url(#clip440)" d="M2314.38 390.328 L2314.38 405.976 L2310.12 405.976 L2310.12 390.467 Q2310.12 386.787 2308.69 384.958 Q2307.25 383.129 2304.38 383.129 Q2300.93 383.129 2298.94 385.328 Q2296.95 387.527 2296.95 391.324 L2296.95 405.976 L2292.67 405.976 L2292.67 380.051 L2296.95 380.051 L2296.95 384.078 Q2298.48 381.74 2300.54 380.583 Q2302.62 379.426 2305.33 379.426 Q2309.8 379.426 2312.09 382.203 Q2314.38 384.958 2314.38 390.328 Z" fill="#000000" fill-rule="nonzero" fill-opacity="1" /><path clip-path="url(#clip440)" d="M2339.94 392.712 Q2339.94 388.083 2338.02 385.537 Q2336.12 382.99 2332.67 382.99 Q2329.24 382.99 2327.32 385.537 Q2325.42 388.083 2325.42 392.712 Q2325.42 397.319 2327.32 399.865 Q2329.24 402.411 2332.67 402.411 Q2336.12 402.411 2338.02 399.865 Q2339.94 397.319 2339.94 392.712 M2344.2 402.759 Q2344.2 409.379 2341.26 412.597 Q2338.32 415.837 2332.25 415.837 Q2330.01 415.837 2328.02 415.49 Q2326.03 415.166 2324.15 414.472 L2324.15 410.328 Q2326.03 411.347 2327.85 411.833 Q2329.68 412.319 2331.58 412.319 Q2335.77 412.319 2337.85 410.12 Q2339.94 407.944 2339.94 403.523 L2339.94 401.416 Q2338.62 403.708 2336.56 404.842 Q2334.5 405.976 2331.63 405.976 Q2326.86 405.976 2323.94 402.342 Q2321.03 398.708 2321.03 392.712 Q2321.03 386.694 2323.94 383.06 Q2326.86 379.426 2331.63 379.426 Q2334.5 379.426 2336.56 380.56 Q2338.62 381.694 2339.94 383.986 L2339.94 380.051 L2344.2 380.051 L2344.2 402.759 Z" fill="#000000" fill-rule="nonzero" fill-opacity="1" /><path clip-path="url(#clip440)" d="M2375.15 391.949 L2375.15 394.032 L2355.56 394.032 Q2355.84 398.43 2358.2 400.745 Q2360.59 403.036 2364.82 403.036 Q2367.28 403.036 2369.57 402.435 Q2371.88 401.833 2374.15 400.629 L2374.15 404.657 Q2371.86 405.629 2369.45 406.138 Q2367.04 406.648 2364.57 406.648 Q2358.36 406.648 2354.73 403.036 Q2351.12 399.425 2351.12 393.268 Q2351.12 386.902 2354.54 383.175 Q2357.99 379.426 2363.83 379.426 Q2369.06 379.426 2372.09 382.805 Q2375.15 386.162 2375.15 391.949 M2370.89 390.699 Q2370.84 387.203 2368.92 385.12 Q2367.02 383.037 2363.87 383.037 Q2360.31 383.037 2358.16 385.05 Q2356.03 387.064 2355.7 390.722 L2370.89 390.699 Z" fill="#000000" fill-rule="nonzero" fill-opacity="1" /></svg>
