<?xml version="1.0" encoding="utf-8"?>
<svg xmlns="http://www.w3.org/2000/svg" xmlns:xlink="http://www.w3.org/1999/xlink" width="672" height="480" viewBox="0 0 2688 1920">
<defs>
  <clipPath id="clip530">
    <rect x="0" y="0" width="2688" height="1920"/>
  </clipPath>
</defs>
<path clip-path="url(#clip530)" d="M0 1920 L2688 1920 L2688 -4.26326e-14 L0 -4.26326e-14  Z" fill="#ffffff" fill-rule="evenodd" fill-opacity="1"/>
<defs>
  <clipPath id="clip531">
    <rect x="211" y="127" width="2430" height="1607"/>
  </clipPath>
</defs>
<path clip-path="url(#clip530)" d="M211.395 1734.12 L2640.76 1734.12 L2640.76 127.792 L211.395 127.792  Z" fill="#ffffff" fill-rule="evenodd" fill-opacity="1"/>
<polyline clip-path="url(#clip531)" style="stroke:#000000; stroke-linecap:round; stroke-linejoin:round; stroke-width:2; stroke-opacity:0.1; fill:none" points="280.151,1734.12 280.151,127.792 "/>
<polyline clip-path="url(#clip531)" style="stroke:#000000; stroke-linecap:round; stroke-linejoin:round; stroke-width:2; stroke-opacity:0.1; fill:none" points="853.113,1734.12 853.113,127.792 "/>
<polyline clip-path="url(#clip531)" style="stroke:#000000; stroke-linecap:round; stroke-linejoin:round; stroke-width:2; stroke-opacity:0.1; fill:none" points="1426.08,1734.12 1426.08,127.792 "/>
<polyline clip-path="url(#clip531)" style="stroke:#000000; stroke-linecap:round; stroke-linejoin:round; stroke-width:2; stroke-opacity:0.1; fill:none" points="1999.04,1734.12 1999.04,127.792 "/>
<polyline clip-path="url(#clip531)" style="stroke:#000000; stroke-linecap:round; stroke-linejoin:round; stroke-width:2; stroke-opacity:0.1; fill:none" points="2572,1734.12 2572,127.792 "/>
<polyline clip-path="url(#clip531)" style="stroke:#000000; stroke-linecap:round; stroke-linejoin:round; stroke-width:2; stroke-opacity:0.1; fill:none" points="211.395,1688.87 2640.76,1688.87 "/>
<polyline clip-path="url(#clip531)" style="stroke:#000000; stroke-linecap:round; stroke-linejoin:round; stroke-width:2; stroke-opacity:0.1; fill:none" points="211.395,1388.11 2640.76,1388.11 "/>
<polyline clip-path="url(#clip531)" style="stroke:#000000; stroke-linecap:round; stroke-linejoin:round; stroke-width:2; stroke-opacity:0.1; fill:none" points="211.395,1087.35 2640.76,1087.35 "/>
<polyline clip-path="url(#clip531)" style="stroke:#000000; stroke-linecap:round; stroke-linejoin:round; stroke-width:2; stroke-opacity:0.1; fill:none" points="211.395,786.588 2640.76,786.588 "/>
<polyline clip-path="url(#clip531)" style="stroke:#000000; stroke-linecap:round; stroke-linejoin:round; stroke-width:2; stroke-opacity:0.1; fill:none" points="211.395,485.827 2640.76,485.827 "/>
<polyline clip-path="url(#clip531)" style="stroke:#000000; stroke-linecap:round; stroke-linejoin:round; stroke-width:2; stroke-opacity:0.1; fill:none" points="211.395,185.065 2640.76,185.065 "/>
<polyline clip-path="url(#clip530)" style="stroke:#000000; stroke-linecap:round; stroke-linejoin:round; stroke-width:4; stroke-opacity:1; fill:none" points="211.395,1734.12 2640.76,1734.12 "/>
<polyline clip-path="url(#clip530)" style="stroke:#000000; stroke-linecap:round; stroke-linejoin:round; stroke-width:4; stroke-opacity:1; fill:none" points="280.151,1734.12 280.151,1715.22 "/>
<polyline clip-path="url(#clip530)" style="stroke:#000000; stroke-linecap:round; stroke-linejoin:round; stroke-width:4; stroke-opacity:1; fill:none" points="853.113,1734.12 853.113,1715.22 "/>
<polyline clip-path="url(#clip530)" style="stroke:#000000; stroke-linecap:round; stroke-linejoin:round; stroke-width:4; stroke-opacity:1; fill:none" points="1426.08,1734.12 1426.08,1715.22 "/>
<polyline clip-path="url(#clip530)" style="stroke:#000000; stroke-linecap:round; stroke-linejoin:round; stroke-width:4; stroke-opacity:1; fill:none" points="1999.04,1734.12 1999.04,1715.22 "/>
<polyline clip-path="url(#clip530)" style="stroke:#000000; stroke-linecap:round; stroke-linejoin:round; stroke-width:4; stroke-opacity:1; fill:none" points="2572,1734.12 2572,1715.22 "/>
<path clip-path="url(#clip530)" d="M280.151 1767.34 Q276.54 1767.34 274.711 1770.9 Q272.905 1774.45 272.905 1781.58 Q272.905 1788.68 274.711 1792.25 Q276.54 1795.79 280.151 1795.79 Q283.785 1795.79 285.591 1792.25 Q287.419 1788.68 287.419 1781.58 Q287.419 1774.45 285.591 1770.9 Q283.785 1767.34 280.151 1767.34 M280.151 1763.64 Q285.961 1763.64 289.016 1768.24 Q292.095 1772.83 292.095 1781.58 Q292.095 1790.3 289.016 1794.91 Q285.961 1799.49 280.151 1799.49 Q274.341 1799.49 271.262 1794.91 Q268.206 1790.3 268.206 1781.58 Q268.206 1772.83 271.262 1768.24 Q274.341 1763.64 280.151 1763.64 Z" fill="#000000" fill-rule="nonzero" fill-opacity="1" /><path clip-path="url(#clip530)" d="M831.886 1794.89 L848.206 1794.89 L848.206 1798.82 L826.261 1798.82 L826.261 1794.89 Q828.923 1792.13 833.507 1787.5 Q838.113 1782.85 839.294 1781.51 Q841.539 1778.98 842.419 1777.25 Q843.322 1775.49 843.322 1773.8 Q843.322 1771.04 841.377 1769.31 Q839.456 1767.57 836.354 1767.57 Q834.155 1767.57 831.701 1768.34 Q829.271 1769.1 826.493 1770.65 L826.493 1765.93 Q829.317 1764.79 831.771 1764.21 Q834.224 1763.64 836.261 1763.64 Q841.632 1763.64 844.826 1766.32 Q848.021 1769.01 848.021 1773.5 Q848.021 1775.63 847.21 1777.55 Q846.423 1779.45 844.317 1782.04 Q843.738 1782.71 840.636 1785.93 Q837.535 1789.12 831.886 1794.89 Z" fill="#000000" fill-rule="nonzero" fill-opacity="1" /><path clip-path="url(#clip530)" d="M868.02 1767.34 Q864.409 1767.34 862.581 1770.9 Q860.775 1774.45 860.775 1781.58 Q860.775 1788.68 862.581 1792.25 Q864.409 1795.79 868.02 1795.79 Q871.655 1795.79 873.46 1792.25 Q875.289 1788.68 875.289 1781.58 Q875.289 1774.45 873.46 1770.9 Q871.655 1767.34 868.02 1767.34 M868.02 1763.64 Q873.831 1763.64 876.886 1768.24 Q879.965 1772.83 879.965 1781.58 Q879.965 1790.3 876.886 1794.91 Q873.831 1799.49 868.02 1799.49 Q862.21 1799.49 859.132 1794.91 Q856.076 1790.3 856.076 1781.58 Q856.076 1772.83 859.132 1768.24 Q862.21 1763.64 868.02 1763.64 Z" fill="#000000" fill-rule="nonzero" fill-opacity="1" /><path clip-path="url(#clip530)" d="M1414.25 1768.34 L1402.44 1786.78 L1414.25 1786.78 L1414.25 1768.34 M1413.02 1764.26 L1418.9 1764.26 L1418.9 1786.78 L1423.83 1786.78 L1423.83 1790.67 L1418.9 1790.67 L1418.9 1798.82 L1414.25 1798.82 L1414.25 1790.67 L1398.65 1790.67 L1398.65 1786.16 L1413.02 1764.26 Z" fill="#000000" fill-rule="nonzero" fill-opacity="1" /><path clip-path="url(#clip530)" d="M1441.56 1767.34 Q1437.95 1767.34 1436.12 1770.9 Q1434.32 1774.45 1434.32 1781.58 Q1434.32 1788.68 1436.12 1792.25 Q1437.95 1795.79 1441.56 1795.79 Q1445.2 1795.79 1447 1792.25 Q1448.83 1788.68 1448.83 1781.58 Q1448.83 1774.45 1447 1770.9 Q1445.2 1767.34 1441.56 1767.34 M1441.56 1763.64 Q1447.37 1763.64 1450.43 1768.24 Q1453.51 1772.83 1453.51 1781.58 Q1453.51 1790.3 1450.43 1794.91 Q1447.37 1799.49 1441.56 1799.49 Q1435.75 1799.49 1432.67 1794.91 Q1429.62 1790.3 1429.62 1781.58 Q1429.62 1772.83 1432.67 1768.24 Q1435.75 1763.64 1441.56 1763.64 Z" fill="#000000" fill-rule="nonzero" fill-opacity="1" /><path clip-path="url(#clip530)" d="M1984.44 1779.68 Q1981.3 1779.68 1979.44 1781.83 Q1977.61 1783.98 1977.61 1787.73 Q1977.61 1791.46 1979.44 1793.64 Q1981.3 1795.79 1984.44 1795.79 Q1987.59 1795.79 1989.42 1793.64 Q1991.27 1791.46 1991.27 1787.73 Q1991.27 1783.98 1989.42 1781.83 Q1987.59 1779.68 1984.44 1779.68 M1993.73 1765.02 L1993.73 1769.28 Q1991.97 1768.45 1990.16 1768.01 Q1988.38 1767.57 1986.62 1767.57 Q1981.99 1767.57 1979.54 1770.7 Q1977.11 1773.82 1976.76 1780.14 Q1978.12 1778.13 1980.18 1777.06 Q1982.24 1775.97 1984.72 1775.97 Q1989.93 1775.97 1992.94 1779.15 Q1995.97 1782.29 1995.97 1787.73 Q1995.97 1793.06 1992.82 1796.27 Q1989.67 1799.49 1984.44 1799.49 Q1978.45 1799.49 1975.28 1794.91 Q1972.11 1790.3 1972.11 1781.58 Q1972.11 1773.38 1975.99 1768.52 Q1979.88 1763.64 1986.43 1763.64 Q1988.19 1763.64 1989.98 1763.98 Q1991.78 1764.33 1993.73 1765.02 Z" fill="#000000" fill-rule="nonzero" fill-opacity="1" /><path clip-path="url(#clip530)" d="M2014.03 1767.34 Q2010.42 1767.34 2008.59 1770.9 Q2006.78 1774.45 2006.78 1781.58 Q2006.78 1788.68 2008.59 1792.25 Q2010.42 1795.79 2014.03 1795.79 Q2017.66 1795.79 2019.47 1792.25 Q2021.29 1788.68 2021.29 1781.58 Q2021.29 1774.45 2019.47 1770.9 Q2017.66 1767.34 2014.03 1767.34 M2014.03 1763.64 Q2019.84 1763.64 2022.89 1768.24 Q2025.97 1772.83 2025.97 1781.58 Q2025.97 1790.3 2022.89 1794.91 Q2019.84 1799.49 2014.03 1799.49 Q2008.22 1799.49 2005.14 1794.91 Q2002.08 1790.3 2002.08 1781.58 Q2002.08 1772.83 2005.14 1768.24 Q2008.22 1763.64 2014.03 1763.64 Z" fill="#000000" fill-rule="nonzero" fill-opacity="1" /><path clip-path="url(#clip530)" d="M2556.87 1782.41 Q2553.54 1782.41 2551.62 1784.19 Q2549.72 1785.97 2549.72 1789.1 Q2549.72 1792.22 2551.62 1794.01 Q2553.54 1795.79 2556.87 1795.79 Q2560.21 1795.79 2562.13 1794.01 Q2564.05 1792.2 2564.05 1789.1 Q2564.05 1785.97 2562.13 1784.19 Q2560.23 1782.41 2556.87 1782.41 M2552.2 1780.42 Q2549.19 1779.68 2547.5 1777.62 Q2545.83 1775.56 2545.83 1772.59 Q2545.83 1768.45 2548.77 1766.04 Q2551.73 1763.64 2556.87 1763.64 Q2562.04 1763.64 2564.97 1766.04 Q2567.91 1768.45 2567.91 1772.59 Q2567.91 1775.56 2566.22 1777.62 Q2564.56 1779.68 2561.57 1780.42 Q2564.95 1781.21 2566.83 1783.5 Q2568.72 1785.79 2568.72 1789.1 Q2568.72 1794.12 2565.65 1796.81 Q2562.59 1799.49 2556.87 1799.49 Q2551.16 1799.49 2548.08 1796.81 Q2545.02 1794.12 2545.02 1789.1 Q2545.02 1785.79 2546.92 1783.5 Q2548.82 1781.21 2552.2 1780.42 M2550.48 1773.03 Q2550.48 1775.72 2552.15 1777.22 Q2553.84 1778.73 2556.87 1778.73 Q2559.88 1778.73 2561.57 1777.22 Q2563.29 1775.72 2563.29 1773.03 Q2563.29 1770.35 2561.57 1768.84 Q2559.88 1767.34 2556.87 1767.34 Q2553.84 1767.34 2552.15 1768.84 Q2550.48 1770.35 2550.48 1773.03 Z" fill="#000000" fill-rule="nonzero" fill-opacity="1" /><path clip-path="url(#clip530)" d="M2587.04 1767.34 Q2583.42 1767.34 2581.6 1770.9 Q2579.79 1774.45 2579.79 1781.58 Q2579.79 1788.68 2581.6 1792.25 Q2583.42 1795.79 2587.04 1795.79 Q2590.67 1795.79 2592.47 1792.25 Q2594.3 1788.68 2594.3 1781.58 Q2594.3 1774.45 2592.47 1770.9 Q2590.67 1767.34 2587.04 1767.34 M2587.04 1763.64 Q2592.85 1763.64 2595.9 1768.24 Q2598.98 1772.83 2598.98 1781.58 Q2598.98 1790.3 2595.9 1794.91 Q2592.85 1799.49 2587.04 1799.49 Q2581.22 1799.49 2578.15 1794.91 Q2575.09 1790.3 2575.09 1781.58 Q2575.09 1772.83 2578.15 1768.24 Q2581.22 1763.64 2587.04 1763.64 Z" fill="#000000" fill-rule="nonzero" fill-opacity="1" /><path clip-path="url(#clip530)" d="M1347.95 1835.78 L1388.15 1835.78 L1388.15 1841.19 L1371.28 1841.19 L1371.28 1883.3 L1364.82 1883.3 L1364.82 1841.19 L1347.95 1841.19 L1347.95 1835.78 Z" fill="#000000" fill-rule="nonzero" fill-opacity="1" /><path clip-path="url(#clip530)" d="M1392.1 1847.65 L1397.96 1847.65 L1397.96 1883.3 L1392.1 1883.3 L1392.1 1847.65 M1392.1 1833.78 L1397.96 1833.78 L1397.96 1841.19 L1392.1 1841.19 L1392.1 1833.78 Z" fill="#000000" fill-rule="nonzero" fill-opacity="1" /><path clip-path="url(#clip530)" d="M1437.96 1854.5 Q1440.16 1850.55 1443.22 1848.67 Q1446.27 1846.79 1450.41 1846.79 Q1455.98 1846.79 1459 1850.71 Q1462.03 1854.59 1462.03 1861.78 L1462.03 1883.3 L1456.14 1883.3 L1456.14 1861.98 Q1456.14 1856.85 1454.32 1854.37 Q1452.51 1851.89 1448.79 1851.89 Q1444.23 1851.89 1441.59 1854.91 Q1438.95 1857.93 1438.95 1863.15 L1438.95 1883.3 L1433.06 1883.3 L1433.06 1861.98 Q1433.06 1856.82 1431.25 1854.37 Q1429.43 1851.89 1425.65 1851.89 Q1421.16 1851.89 1418.52 1854.94 Q1415.87 1857.97 1415.87 1863.15 L1415.87 1883.3 L1409.99 1883.3 L1409.99 1847.65 L1415.87 1847.65 L1415.87 1853.19 Q1417.88 1849.91 1420.68 1848.35 Q1423.48 1846.79 1427.33 1846.79 Q1431.22 1846.79 1433.92 1848.77 Q1436.66 1850.74 1437.96 1854.5 Z" fill="#000000" fill-rule="nonzero" fill-opacity="1" /><path clip-path="url(#clip530)" d="M1504.2 1864.01 L1504.2 1866.88 L1477.27 1866.88 Q1477.65 1872.92 1480.9 1876.11 Q1484.18 1879.26 1490 1879.26 Q1493.38 1879.26 1496.53 1878.43 Q1499.71 1877.6 1502.83 1875.95 L1502.83 1881.49 Q1499.68 1882.82 1496.37 1883.52 Q1493.06 1884.22 1489.65 1884.22 Q1481.12 1884.22 1476.13 1879.26 Q1471.16 1874.29 1471.16 1865.83 Q1471.16 1857.07 1475.87 1851.95 Q1480.61 1846.79 1488.63 1846.79 Q1495.83 1846.79 1500 1851.44 Q1504.2 1856.06 1504.2 1864.01 M1498.34 1862.29 Q1498.28 1857.49 1495.64 1854.62 Q1493.03 1851.76 1488.7 1851.76 Q1483.8 1851.76 1480.84 1854.53 Q1477.91 1857.3 1477.46 1862.33 L1498.34 1862.29 Z" fill="#000000" fill-rule="nonzero" fill-opacity="1" /><polyline clip-path="url(#clip530)" style="stroke:#000000; stroke-linecap:round; stroke-linejoin:round; stroke-width:4; stroke-opacity:1; fill:none" points="211.395,1734.12 211.395,127.792 "/>
<polyline clip-path="url(#clip530)" style="stroke:#000000; stroke-linecap:round; stroke-linejoin:round; stroke-width:4; stroke-opacity:1; fill:none" points="211.395,1688.87 230.293,1688.87 "/>
<polyline clip-path="url(#clip530)" style="stroke:#000000; stroke-linecap:round; stroke-linejoin:round; stroke-width:4; stroke-opacity:1; fill:none" points="211.395,1388.11 230.293,1388.11 "/>
<polyline clip-path="url(#clip530)" style="stroke:#000000; stroke-linecap:round; stroke-linejoin:round; stroke-width:4; stroke-opacity:1; fill:none" points="211.395,1087.35 230.293,1087.35 "/>
<polyline clip-path="url(#clip530)" style="stroke:#000000; stroke-linecap:round; stroke-linejoin:round; stroke-width:4; stroke-opacity:1; fill:none" points="211.395,786.588 230.293,786.588 "/>
<polyline clip-path="url(#clip530)" style="stroke:#000000; stroke-linecap:round; stroke-linejoin:round; stroke-width:4; stroke-opacity:1; fill:none" points="211.395,485.827 230.293,485.827 "/>
<polyline clip-path="url(#clip530)" style="stroke:#000000; stroke-linecap:round; stroke-linejoin:round; stroke-width:4; stroke-opacity:1; fill:none" points="211.395,185.065 230.293,185.065 "/>
<path clip-path="url(#clip530)" d="M159.131 1674.67 Q155.52 1674.67 153.691 1678.24 Q151.886 1681.78 151.886 1688.91 Q151.886 1696.01 153.691 1699.58 Q155.52 1703.12 159.131 1703.12 Q162.765 1703.12 164.571 1699.58 Q166.399 1696.01 166.399 1688.91 Q166.399 1681.78 164.571 1678.24 Q162.765 1674.67 159.131 1674.67 M159.131 1670.97 Q164.941 1670.97 167.997 1675.57 Q171.075 1680.16 171.075 1688.91 Q171.075 1697.63 167.997 1702.24 Q164.941 1706.82 159.131 1706.82 Q153.321 1706.82 150.242 1702.24 Q147.186 1697.63 147.186 1688.91 Q147.186 1680.16 150.242 1675.57 Q153.321 1670.97 159.131 1670.97 Z" fill="#000000" fill-rule="nonzero" fill-opacity="1" /><path clip-path="url(#clip530)" d="M119.779 1401.46 L127.418 1401.46 L127.418 1375.09 L119.108 1376.76 L119.108 1372.5 L127.372 1370.83 L132.048 1370.83 L132.048 1401.46 L139.687 1401.46 L139.687 1405.39 L119.779 1405.39 L119.779 1401.46 Z" fill="#000000" fill-rule="nonzero" fill-opacity="1" /><path clip-path="url(#clip530)" d="M159.131 1373.91 Q155.52 1373.91 153.691 1377.48 Q151.886 1381.02 151.886 1388.15 Q151.886 1395.25 153.691 1398.82 Q155.52 1402.36 159.131 1402.36 Q162.765 1402.36 164.571 1398.82 Q166.399 1395.25 166.399 1388.15 Q166.399 1381.02 164.571 1377.48 Q162.765 1373.91 159.131 1373.91 M159.131 1370.21 Q164.941 1370.21 167.997 1374.81 Q171.075 1379.4 171.075 1388.15 Q171.075 1396.87 167.997 1401.48 Q164.941 1406.06 159.131 1406.06 Q153.321 1406.06 150.242 1401.48 Q147.186 1396.87 147.186 1388.15 Q147.186 1379.4 150.242 1374.81 Q153.321 1370.21 159.131 1370.21 Z" fill="#000000" fill-rule="nonzero" fill-opacity="1" /><path clip-path="url(#clip530)" d="M122.997 1100.69 L139.316 1100.69 L139.316 1104.63 L117.372 1104.63 L117.372 1100.69 Q120.034 1097.94 124.617 1093.31 Q129.224 1088.66 130.404 1087.32 Q132.65 1084.79 133.529 1083.06 Q134.432 1081.3 134.432 1079.61 Q134.432 1076.85 132.488 1075.12 Q130.566 1073.38 127.464 1073.38 Q125.265 1073.38 122.812 1074.14 Q120.381 1074.91 117.603 1076.46 L117.603 1071.74 Q120.427 1070.6 122.881 1070.02 Q125.335 1069.44 127.372 1069.44 Q132.742 1069.44 135.937 1072.13 Q139.131 1074.82 139.131 1079.31 Q139.131 1081.44 138.321 1083.36 Q137.534 1085.26 135.427 1087.85 Q134.849 1088.52 131.747 1091.74 Q128.645 1094.93 122.997 1100.69 Z" fill="#000000" fill-rule="nonzero" fill-opacity="1" /><path clip-path="url(#clip530)" d="M159.131 1073.15 Q155.52 1073.15 153.691 1076.71 Q151.886 1080.26 151.886 1087.38 Q151.886 1094.49 153.691 1098.06 Q155.52 1101.6 159.131 1101.6 Q162.765 1101.6 164.571 1098.06 Q166.399 1094.49 166.399 1087.38 Q166.399 1080.26 164.571 1076.71 Q162.765 1073.15 159.131 1073.15 M159.131 1069.44 Q164.941 1069.44 167.997 1074.05 Q171.075 1078.63 171.075 1087.38 Q171.075 1096.11 167.997 1100.72 Q164.941 1105.3 159.131 1105.3 Q153.321 1105.3 150.242 1100.72 Q147.186 1096.11 147.186 1087.38 Q147.186 1078.63 150.242 1074.05 Q153.321 1069.44 159.131 1069.44 Z" fill="#000000" fill-rule="nonzero" fill-opacity="1" /><path clip-path="url(#clip530)" d="M133.136 785.234 Q136.492 785.952 138.367 788.22 Q140.265 790.489 140.265 793.822 Q140.265 798.938 136.747 801.739 Q133.228 804.54 126.747 804.54 Q124.571 804.54 122.256 804.1 Q119.964 803.683 117.511 802.827 L117.511 798.313 Q119.455 799.447 121.77 800.026 Q124.085 800.604 126.608 800.604 Q131.006 800.604 133.298 798.868 Q135.612 797.132 135.612 793.822 Q135.612 790.766 133.46 789.054 Q131.33 787.317 127.511 787.317 L123.483 787.317 L123.483 783.475 L127.696 783.475 Q131.145 783.475 132.974 782.109 Q134.802 780.72 134.802 778.128 Q134.802 775.466 132.904 774.054 Q131.029 772.618 127.511 772.618 Q125.589 772.618 123.39 773.035 Q121.191 773.452 118.552 774.331 L118.552 770.165 Q121.214 769.424 123.529 769.054 Q125.867 768.683 127.927 768.683 Q133.251 768.683 136.353 771.114 Q139.455 773.521 139.455 777.642 Q139.455 780.512 137.812 782.503 Q136.168 784.47 133.136 785.234 Z" fill="#000000" fill-rule="nonzero" fill-opacity="1" /><path clip-path="url(#clip530)" d="M159.131 772.387 Q155.52 772.387 153.691 775.952 Q151.886 779.493 151.886 786.623 Q151.886 793.729 153.691 797.294 Q155.52 800.836 159.131 800.836 Q162.765 800.836 164.571 797.294 Q166.399 793.729 166.399 786.623 Q166.399 779.493 164.571 775.952 Q162.765 772.387 159.131 772.387 M159.131 768.683 Q164.941 768.683 167.997 773.29 Q171.075 777.873 171.075 786.623 Q171.075 795.35 167.997 799.956 Q164.941 804.54 159.131 804.54 Q153.321 804.54 150.242 799.956 Q147.186 795.35 147.186 786.623 Q147.186 777.873 150.242 773.29 Q153.321 768.683 159.131 768.683 Z" fill="#000000" fill-rule="nonzero" fill-opacity="1" /><path clip-path="url(#clip530)" d="M131.816 472.621 L120.011 491.07 L131.816 491.07 L131.816 472.621 M130.589 468.547 L136.469 468.547 L136.469 491.07 L141.399 491.07 L141.399 494.959 L136.469 494.959 L136.469 503.107 L131.816 503.107 L131.816 494.959 L116.214 494.959 L116.214 490.445 L130.589 468.547 Z" fill="#000000" fill-rule="nonzero" fill-opacity="1" /><path clip-path="url(#clip530)" d="M159.131 471.625 Q155.52 471.625 153.691 475.19 Q151.886 478.732 151.886 485.861 Q151.886 492.968 153.691 496.533 Q155.52 500.074 159.131 500.074 Q162.765 500.074 164.571 496.533 Q166.399 492.968 166.399 485.861 Q166.399 478.732 164.571 475.19 Q162.765 471.625 159.131 471.625 M159.131 467.922 Q164.941 467.922 167.997 472.528 Q171.075 477.111 171.075 485.861 Q171.075 494.588 167.997 499.195 Q164.941 503.778 159.131 503.778 Q153.321 503.778 150.242 499.195 Q147.186 494.588 147.186 485.861 Q147.186 477.111 150.242 472.528 Q153.321 467.922 159.131 467.922 Z" fill="#000000" fill-rule="nonzero" fill-opacity="1" /><path clip-path="url(#clip530)" d="M119.015 167.785 L137.372 167.785 L137.372 171.72 L123.298 171.72 L123.298 180.192 Q124.316 179.845 125.335 179.683 Q126.353 179.498 127.372 179.498 Q133.159 179.498 136.538 182.669 Q139.918 185.84 139.918 191.257 Q139.918 196.836 136.446 199.938 Q132.974 203.016 126.654 203.016 Q124.478 203.016 122.21 202.646 Q119.964 202.276 117.557 201.535 L117.557 196.836 Q119.64 197.97 121.863 198.526 Q124.085 199.081 126.562 199.081 Q130.566 199.081 132.904 196.975 Q135.242 194.868 135.242 191.257 Q135.242 187.646 132.904 185.54 Q130.566 183.433 126.562 183.433 Q124.687 183.433 122.812 183.85 Q120.96 184.266 119.015 185.146 L119.015 167.785 Z" fill="#000000" fill-rule="nonzero" fill-opacity="1" /><path clip-path="url(#clip530)" d="M159.131 170.864 Q155.52 170.864 153.691 174.428 Q151.886 177.97 151.886 185.1 Q151.886 192.206 153.691 195.771 Q155.52 199.313 159.131 199.313 Q162.765 199.313 164.571 195.771 Q166.399 192.206 166.399 185.1 Q166.399 177.97 164.571 174.428 Q162.765 170.864 159.131 170.864 M159.131 167.16 Q164.941 167.16 167.997 171.766 Q171.075 176.35 171.075 185.1 Q171.075 193.827 167.997 198.433 Q164.941 203.016 159.131 203.016 Q153.321 203.016 150.242 198.433 Q147.186 193.827 147.186 185.1 Q147.186 176.35 150.242 171.766 Q153.321 167.16 159.131 167.16 Z" fill="#000000" fill-rule="nonzero" fill-opacity="1" /><path clip-path="url(#clip530)" d="M19.402 1089.79 L37.2578 1089.79 L37.2578 1081.71 Q37.2578 1077.22 34.9343 1074.77 Q32.6108 1072.32 28.314 1072.32 Q24.0489 1072.32 21.7255 1074.77 Q19.402 1077.22 19.402 1081.71 L19.402 1089.79 M14.1184 1096.22 L14.1184 1081.71 Q14.1184 1073.72 17.7469 1069.65 Q21.3435 1065.54 28.314 1065.54 Q35.3481 1065.54 38.9447 1069.65 Q42.5413 1073.72 42.5413 1081.71 L42.5413 1089.79 L61.6384 1089.79 L61.6384 1096.22 L14.1184 1096.22 Z" fill="#000000" fill-rule="nonzero" fill-opacity="1" /><path clip-path="url(#clip530)" d="M30.0964 1045.68 Q30.0964 1050.39 33.7885 1053.13 Q37.4488 1055.87 43.8463 1055.87 Q50.2438 1055.87 53.9359 1053.16 Q57.5962 1050.42 57.5962 1045.68 Q57.5962 1041 53.9041 1038.26 Q50.212 1035.53 43.8463 1035.53 Q37.5124 1035.53 33.8203 1038.26 Q30.0964 1041 30.0964 1045.68 M25.1311 1045.68 Q25.1311 1038.04 30.0964 1033.68 Q35.0616 1029.32 43.8463 1029.32 Q52.5991 1029.32 57.5962 1033.68 Q62.5615 1038.04 62.5615 1045.68 Q62.5615 1053.35 57.5962 1057.71 Q52.5991 1062.04 43.8463 1062.04 Q35.0616 1062.04 30.0964 1057.71 Q25.1311 1053.35 25.1311 1045.68 Z" fill="#000000" fill-rule="nonzero" fill-opacity="1" /><path clip-path="url(#clip530)" d="M56.2912 1013.95 L75.1974 1013.95 L75.1974 1019.84 L25.9905 1019.84 L25.9905 1013.95 L31.4013 1013.95 Q28.2185 1012.1 26.6907 1009.3 Q25.1311 1006.47 25.1311 1002.55 Q25.1311 996.06 30.2873 992.018 Q35.4436 987.944 43.8463 987.944 Q52.249 987.944 57.4052 992.018 Q62.5615 996.06 62.5615 1002.55 Q62.5615 1006.47 61.0337 1009.3 Q59.4741 1012.1 56.2912 1013.95 M43.8463 994.023 Q37.3851 994.023 33.7248 996.696 Q30.0327 999.338 30.0327 1003.99 Q30.0327 1008.63 33.7248 1011.31 Q37.3851 1013.95 43.8463 1013.95 Q50.3075 1013.95 53.9996 1011.31 Q57.6599 1008.63 57.6599 1003.99 Q57.6599 999.338 53.9996 996.696 Q50.3075 994.023 43.8463 994.023 Z" fill="#000000" fill-rule="nonzero" fill-opacity="1" /><path clip-path="url(#clip530)" d="M47.5702 978.841 L25.9905 978.841 L25.9905 972.984 L47.3474 972.984 Q52.4082 972.984 54.9545 971.011 Q57.4689 969.037 57.4689 965.091 Q57.4689 960.348 54.4452 957.611 Q51.4215 954.842 46.2016 954.842 L25.9905 954.842 L25.9905 948.985 L61.6384 948.985 L61.6384 954.842 L56.1639 954.842 Q59.4104 956.974 61.0019 959.807 Q62.5615 962.608 62.5615 966.332 Q62.5615 972.475 58.742 975.658 Q54.9226 978.841 47.5702 978.841 M25.1311 964.104 L25.1311 964.104 Z" fill="#000000" fill-rule="nonzero" fill-opacity="1" /><path clip-path="url(#clip530)" d="M12.1132 936.922 L12.1132 931.066 L61.6384 931.066 L61.6384 936.922 L12.1132 936.922 Z" fill="#000000" fill-rule="nonzero" fill-opacity="1" /><path clip-path="url(#clip530)" d="M43.719 902.611 Q43.719 909.709 45.3422 912.446 Q46.9655 915.184 50.8804 915.184 Q53.9996 915.184 55.8457 913.146 Q57.6599 911.078 57.6599 907.545 Q57.6599 902.675 54.2224 899.747 Q50.7531 896.787 45.0239 896.787 L43.719 896.787 L43.719 902.611 M41.3 890.93 L61.6384 890.93 L61.6384 896.787 L56.2276 896.787 Q59.4741 898.792 61.0337 901.784 Q62.5615 904.776 62.5615 909.104 Q62.5615 914.579 59.5059 917.825 Q56.4186 921.04 51.2623 921.04 Q45.2467 921.04 42.1912 917.03 Q39.1357 912.987 39.1357 904.998 L39.1357 896.787 L38.5628 896.787 Q34.5205 896.787 32.3244 899.46 Q30.0964 902.102 30.0964 906.908 Q30.0964 909.964 30.8284 912.86 Q31.5605 915.756 33.0246 918.43 L27.6137 918.43 Q26.3724 915.215 25.7677 912.192 Q25.1311 909.168 25.1311 906.303 Q25.1311 898.569 29.1415 894.75 Q33.1519 890.93 41.3 890.93 Z" fill="#000000" fill-rule="nonzero" fill-opacity="1" /><path clip-path="url(#clip530)" d="M15.869 873.074 L25.9905 873.074 L25.9905 861.011 L30.542 861.011 L30.542 873.074 L49.8937 873.074 Q54.2542 873.074 55.4955 871.897 Q56.7368 870.687 56.7368 867.027 L56.7368 861.011 L61.6384 861.011 L61.6384 867.027 Q61.6384 873.806 59.124 876.385 Q56.5777 878.963 49.8937 878.963 L30.542 878.963 L30.542 883.259 L25.9905 883.259 L25.9905 878.963 L15.869 878.963 L15.869 873.074 Z" fill="#000000" fill-rule="nonzero" fill-opacity="1" /><path clip-path="url(#clip530)" d="M25.9905 853.309 L25.9905 847.452 L61.6384 847.452 L61.6384 853.309 L25.9905 853.309 M12.1132 853.309 L12.1132 847.452 L19.5293 847.452 L19.5293 853.309 L12.1132 853.309 Z" fill="#000000" fill-rule="nonzero" fill-opacity="1" /><path clip-path="url(#clip530)" d="M30.0964 821.385 Q30.0964 826.095 33.7885 828.833 Q37.4488 831.57 43.8463 831.57 Q50.2438 831.57 53.9359 828.865 Q57.5962 826.127 57.5962 821.385 Q57.5962 816.706 53.9041 813.969 Q50.212 811.232 43.8463 811.232 Q37.5124 811.232 33.8203 813.969 Q30.0964 816.706 30.0964 821.385 M25.1311 821.385 Q25.1311 813.746 30.0964 809.385 Q35.0616 805.025 43.8463 805.025 Q52.5991 805.025 57.5962 809.385 Q62.5615 813.746 62.5615 821.385 Q62.5615 829.056 57.5962 833.416 Q52.5991 837.745 43.8463 837.745 Q35.0616 837.745 30.0964 833.416 Q25.1311 829.056 25.1311 821.385 Z" fill="#000000" fill-rule="nonzero" fill-opacity="1" /><path clip-path="url(#clip530)" d="M40.1224 765.685 L61.6384 765.685 L61.6384 771.541 L40.3133 771.541 Q35.2526 771.541 32.7381 773.515 Q30.2237 775.488 30.2237 779.435 Q30.2237 784.177 33.2474 786.915 Q36.2711 789.652 41.491 789.652 L61.6384 789.652 L61.6384 795.54 L25.9905 795.54 L25.9905 789.652 L31.5287 789.652 Q28.314 787.551 26.7225 784.718 Q25.1311 781.854 25.1311 778.13 Q25.1311 771.987 28.9505 768.836 Q32.7381 765.685 40.1224 765.685 Z" fill="#000000" fill-rule="nonzero" fill-opacity="1" /><path clip-path="url(#clip530)" d="M875.051 44.2197 Q877.684 45.1109 880.155 48.0275 Q882.667 50.9442 885.179 56.0483 L893.483 72.576 L884.692 72.576 L876.955 57.061 Q873.958 50.9847 871.122 48.9997 Q868.327 47.0148 863.466 47.0148 L854.554 47.0148 L854.554 72.576 L846.371 72.576 L846.371 12.096 L864.843 12.096 Q875.213 12.096 880.318 16.4305 Q885.422 20.7649 885.422 29.5149 Q885.422 35.2267 882.748 38.994 Q880.115 42.7613 875.051 44.2197 M854.554 18.8205 L854.554 40.2903 L864.843 40.2903 Q870.757 40.2903 873.755 37.5762 Q876.793 34.8216 876.793 29.5149 Q876.793 24.2082 873.755 21.5346 Q870.757 18.8205 864.843 18.8205 L854.554 18.8205 Z" fill="#000000" fill-rule="nonzero" fill-opacity="1" /><path clip-path="url(#clip530)" d="M917.545 32.4315 Q911.55 32.4315 908.066 37.1306 Q904.582 41.7891 904.582 49.9314 Q904.582 58.0738 908.026 62.7728 Q911.509 67.4314 917.545 67.4314 Q923.5 67.4314 926.984 62.7323 Q930.468 58.0333 930.468 49.9314 Q930.468 41.8701 926.984 37.1711 Q923.5 32.4315 917.545 32.4315 M917.545 26.1121 Q927.267 26.1121 932.817 32.4315 Q938.367 38.7509 938.367 49.9314 Q938.367 61.0714 932.817 67.4314 Q927.267 73.7508 917.545 73.7508 Q907.783 73.7508 902.233 67.4314 Q896.724 61.0714 896.724 49.9314 Q896.724 38.7509 902.233 32.4315 Q907.783 26.1121 917.545 26.1121 Z" fill="#000000" fill-rule="nonzero" fill-opacity="1" /><path clip-path="url(#clip530)" d="M979.646 28.5427 L979.646 35.5912 Q976.486 33.9709 973.083 33.1607 Q969.68 32.3505 966.035 32.3505 Q960.485 32.3505 957.69 34.0519 Q954.935 35.7533 954.935 39.156 Q954.935 41.7486 956.92 43.2475 Q958.905 44.7058 964.9 46.0426 L967.452 46.6097 Q975.392 48.3111 978.714 51.4303 Q982.076 54.509 982.076 60.0587 Q982.076 66.3781 977.053 70.0644 Q972.07 73.7508 963.321 73.7508 Q959.675 73.7508 955.705 73.0216 Q951.775 72.3329 947.4 70.9151 L947.4 63.2184 Q951.532 65.3654 955.543 66.4591 Q959.553 67.5124 963.483 67.5124 Q968.749 67.5124 971.584 65.73 Q974.42 63.9071 974.42 60.6258 Q974.42 57.5877 972.354 55.9673 Q970.329 54.3469 963.402 52.8481 L960.809 52.2405 Q953.882 50.7821 950.803 47.7845 Q947.725 44.7463 947.725 39.4801 Q947.725 33.0797 952.262 29.5959 Q956.799 26.1121 965.143 26.1121 Q969.275 26.1121 972.921 26.7198 Q976.567 27.3274 979.646 28.5427 Z" fill="#000000" fill-rule="nonzero" fill-opacity="1" /><path clip-path="url(#clip530)" d="M1032.75 48.0275 L1032.75 51.6733 L998.482 51.6733 Q998.968 59.3701 1003.1 63.421 Q1007.27 67.4314 1014.69 67.4314 Q1018.98 67.4314 1022.99 66.3781 Q1027.04 65.3249 1031.01 63.2184 L1031.01 70.267 Q1027 71.9684 1022.79 72.8596 Q1018.57 73.7508 1014.24 73.7508 Q1003.38 73.7508 997.024 67.4314 Q990.705 61.1119 990.705 50.3365 Q990.705 39.1965 996.7 32.6746 Q1002.74 26.1121 1012.94 26.1121 Q1022.1 26.1121 1027.41 32.0264 Q1032.75 37.9003 1032.75 48.0275 M1025.3 45.84 Q1025.22 39.7232 1021.86 36.0774 Q1018.53 32.4315 1013.03 32.4315 Q1006.79 32.4315 1003.02 35.9558 Q999.293 39.4801 998.725 45.8805 L1025.3 45.84 Z" fill="#000000" fill-rule="nonzero" fill-opacity="1" /><path clip-path="url(#clip530)" d="M1082.7 45.1919 L1082.7 72.576 L1075.25 72.576 L1075.25 45.4349 Q1075.25 38.994 1072.74 35.7938 Q1070.22 32.5936 1065.2 32.5936 Q1059.16 32.5936 1055.68 36.4419 Q1052.2 40.2903 1052.2 46.9338 L1052.2 72.576 L1044.7 72.576 L1044.7 27.2059 L1052.2 27.2059 L1052.2 34.2544 Q1054.87 30.163 1058.48 28.1376 Q1062.12 26.1121 1066.86 26.1121 Q1074.68 26.1121 1078.69 30.9732 Q1082.7 35.7938 1082.7 45.1919 Z" fill="#000000" fill-rule="nonzero" fill-opacity="1" /><path clip-path="url(#clip530)" d="M1094.33 27.2059 L1129.73 27.2059 L1129.73 34.0114 L1101.7 66.6212 L1129.73 66.6212 L1129.73 72.576 L1093.31 72.576 L1093.31 65.7705 L1121.35 33.1607 L1094.33 33.1607 L1094.33 27.2059 Z" fill="#000000" fill-rule="nonzero" fill-opacity="1" /><path clip-path="url(#clip530)" d="M1136.78 27.2059 L1144.23 27.2059 L1153.55 62.6108 L1162.83 27.2059 L1171.62 27.2059 L1180.94 62.6108 L1190.21 27.2059 L1197.67 27.2059 L1185.8 72.576 L1177.01 72.576 L1167.24 35.3887 L1157.44 72.576 L1148.65 72.576 L1136.78 27.2059 Z" fill="#000000" fill-rule="nonzero" fill-opacity="1" /><path clip-path="url(#clip530)" d="M1247.78 48.0275 L1247.78 51.6733 L1213.5 51.6733 Q1213.99 59.3701 1218.12 63.421 Q1222.29 67.4314 1229.71 67.4314 Q1234 67.4314 1238.01 66.3781 Q1242.06 65.3249 1246.03 63.2184 L1246.03 70.267 Q1242.02 71.9684 1237.81 72.8596 Q1233.6 73.7508 1229.26 73.7508 Q1218.41 73.7508 1212.05 67.4314 Q1205.73 61.1119 1205.73 50.3365 Q1205.73 39.1965 1211.72 32.6746 Q1217.76 26.1121 1227.97 26.1121 Q1237.12 26.1121 1242.43 32.0264 Q1247.78 37.9003 1247.78 48.0275 M1240.32 45.84 Q1240.24 39.7232 1236.88 36.0774 Q1233.56 32.4315 1228.05 32.4315 Q1221.81 32.4315 1218.04 35.9558 Q1214.31 39.4801 1213.75 45.8805 L1240.32 45.84 Z" fill="#000000" fill-rule="nonzero" fill-opacity="1" /><path clip-path="url(#clip530)" d="M1260.01 27.2059 L1267.46 27.2059 L1267.46 72.576 L1260.01 72.576 L1260.01 27.2059 M1260.01 9.54393 L1267.46 9.54393 L1267.46 18.9825 L1260.01 18.9825 L1260.01 9.54393 Z" fill="#000000" fill-rule="nonzero" fill-opacity="1" /><path clip-path="url(#clip530)" d="M1312.91 49.3643 Q1312.91 41.2625 1309.55 36.8065 Q1306.23 32.3505 1300.19 32.3505 Q1294.2 32.3505 1290.84 36.8065 Q1287.51 41.2625 1287.51 49.3643 Q1287.51 57.4256 1290.84 61.8816 Q1294.2 66.3376 1300.19 66.3376 Q1306.23 66.3376 1309.55 61.8816 Q1312.91 57.4256 1312.91 49.3643 M1320.37 66.9452 Q1320.37 78.5308 1315.22 84.1616 Q1310.08 89.8329 1299.46 89.8329 Q1295.54 89.8329 1292.05 89.2252 Q1288.57 88.6581 1285.29 87.4428 L1285.29 80.1917 Q1288.57 81.9741 1291.77 82.8248 Q1294.97 83.6755 1298.29 83.6755 Q1305.62 83.6755 1309.27 79.8271 Q1312.91 76.0193 1312.91 68.282 L1312.91 64.5957 Q1310.6 68.6061 1307 70.5911 Q1303.39 72.576 1298.37 72.576 Q1290.03 72.576 1284.92 66.2161 Q1279.82 59.8562 1279.82 49.3643 Q1279.82 38.832 1284.92 32.472 Q1290.03 26.1121 1298.37 26.1121 Q1303.39 26.1121 1307 28.0971 Q1310.6 30.082 1312.91 34.0924 L1312.91 27.2059 L1320.37 27.2059 L1320.37 66.9452 Z" fill="#000000" fill-rule="nonzero" fill-opacity="1" /><path clip-path="url(#clip530)" d="M1331.95 46.9338 L1365.33 46.9338 L1365.33 52.7671 L1331.95 52.7671 L1331.95 46.9338 Z" fill="#000000" fill-rule="nonzero" fill-opacity="1" /><path clip-path="url(#clip530)" d="M1377.53 12.096 L1389.72 12.096 L1405.15 53.2532 L1420.67 12.096 L1432.86 12.096 L1432.86 72.576 L1424.88 72.576 L1424.88 19.4686 L1409.28 60.9499 L1401.06 60.9499 L1385.47 19.4686 L1385.47 72.576 L1377.53 72.576 L1377.53 12.096 Z" fill="#000000" fill-rule="nonzero" fill-opacity="1" /><path clip-path="url(#clip530)" d="M1469.4 49.7694 Q1460.37 49.7694 1456.88 51.8354 Q1453.4 53.9013 1453.4 58.8839 Q1453.4 62.8538 1455.99 65.2034 Q1458.62 67.5124 1463.12 67.5124 Q1469.32 67.5124 1473.05 63.1374 Q1476.81 58.7219 1476.81 51.4303 L1476.81 49.7694 L1469.4 49.7694 M1484.27 46.6907 L1484.27 72.576 L1476.81 72.576 L1476.81 65.6895 Q1474.26 69.8214 1470.45 71.8063 Q1466.65 73.7508 1461.14 73.7508 Q1454.17 73.7508 1450.04 69.8619 Q1445.95 65.9325 1445.95 59.3701 Q1445.95 51.7138 1451.05 47.825 Q1456.19 43.9361 1466.36 43.9361 L1476.81 43.9361 L1476.81 43.2069 Q1476.81 38.0623 1473.41 35.2672 Q1470.05 32.4315 1463.93 32.4315 Q1460.04 32.4315 1456.36 33.3632 Q1452.67 34.295 1449.27 36.1584 L1449.27 29.2718 Q1453.36 27.692 1457.21 26.9223 Q1461.06 26.1121 1464.7 26.1121 Q1474.54 26.1121 1479.41 31.2163 Q1484.27 36.3204 1484.27 46.6907 Z" fill="#000000" fill-rule="nonzero" fill-opacity="1" /><path clip-path="url(#clip530)" d="M1532.27 28.9478 L1532.27 35.9153 Q1529.11 34.1734 1525.91 33.3227 Q1522.75 32.4315 1519.51 32.4315 Q1512.26 32.4315 1508.25 37.0496 Q1504.24 41.6271 1504.24 49.9314 Q1504.24 58.2358 1508.25 62.8538 Q1512.26 67.4314 1519.51 67.4314 Q1522.75 67.4314 1525.91 66.5807 Q1529.11 65.6895 1532.27 63.9476 L1532.27 70.8341 Q1529.15 72.2924 1525.79 73.0216 Q1522.47 73.7508 1518.7 73.7508 Q1508.45 73.7508 1502.41 67.3098 Q1496.38 60.8689 1496.38 49.9314 Q1496.38 38.832 1502.46 32.472 Q1508.57 26.1121 1519.19 26.1121 Q1522.63 26.1121 1525.91 26.8413 Q1529.19 27.5299 1532.27 28.9478 Z" fill="#000000" fill-rule="nonzero" fill-opacity="1" /><path clip-path="url(#clip530)" d="M1565.77 20.1573 L1554.67 50.2555 L1576.91 50.2555 L1565.77 20.1573 M1561.15 12.096 L1570.43 12.096 L1593.48 72.576 L1584.97 72.576 L1579.46 57.061 L1552.2 57.061 L1546.69 72.576 L1538.06 72.576 L1561.15 12.096 Z" fill="#000000" fill-rule="nonzero" fill-opacity="1" /><path clip-path="url(#clip530)" d="M1628.28 34.1734 Q1627.02 33.4443 1625.52 33.1202 Q1624.06 32.7556 1622.28 32.7556 Q1615.96 32.7556 1612.56 36.8875 Q1609.2 40.9789 1609.2 48.6757 L1609.2 72.576 L1601.7 72.576 L1601.7 27.2059 L1609.2 27.2059 L1609.2 34.2544 Q1611.55 30.1225 1615.31 28.1376 Q1619.08 26.1121 1624.47 26.1121 Q1625.24 26.1121 1626.17 26.2337 Q1627.1 26.3147 1628.24 26.5172 L1628.28 34.1734 Z" fill="#000000" fill-rule="nonzero" fill-opacity="1" /><path clip-path="url(#clip530)" d="M1643.47 14.324 L1643.47 27.2059 L1658.82 27.2059 L1658.82 32.9987 L1643.47 32.9987 L1643.47 57.6282 Q1643.47 63.1779 1644.97 64.7578 Q1646.51 66.3376 1651.16 66.3376 L1658.82 66.3376 L1658.82 72.576 L1651.16 72.576 Q1642.54 72.576 1639.25 69.3758 Q1635.97 66.1351 1635.97 57.6282 L1635.97 32.9987 L1630.5 32.9987 L1630.5 27.2059 L1635.97 27.2059 L1635.97 14.324 L1643.47 14.324 Z" fill="#000000" fill-rule="nonzero" fill-opacity="1" /><path clip-path="url(#clip530)" d="M1706.34 45.1919 L1706.34 72.576 L1698.88 72.576 L1698.88 45.4349 Q1698.88 38.994 1696.37 35.7938 Q1693.86 32.5936 1688.84 32.5936 Q1682.8 32.5936 1679.32 36.4419 Q1675.83 40.2903 1675.83 46.9338 L1675.83 72.576 L1668.34 72.576 L1668.34 9.54393 L1675.83 9.54393 L1675.83 34.2544 Q1678.51 30.163 1682.11 28.1376 Q1685.76 26.1121 1690.5 26.1121 Q1698.32 26.1121 1702.33 30.9732 Q1706.34 35.7938 1706.34 45.1919 Z" fill="#000000" fill-rule="nonzero" fill-opacity="1" /><path clip-path="url(#clip530)" d="M1720.43 54.671 L1720.43 27.2059 L1727.89 27.2059 L1727.89 54.3874 Q1727.89 60.8284 1730.4 64.0691 Q1732.91 67.2693 1737.93 67.2693 Q1743.97 67.2693 1747.45 63.421 Q1750.98 59.5726 1750.98 52.9291 L1750.98 27.2059 L1758.43 27.2059 L1758.43 72.576 L1750.98 72.576 L1750.98 65.6084 Q1748.26 69.7404 1744.66 71.7658 Q1741.09 73.7508 1736.35 73.7508 Q1728.54 73.7508 1724.49 68.8897 Q1720.43 64.0286 1720.43 54.671 M1739.19 26.1121 L1739.19 26.1121 Z" fill="#000000" fill-rule="nonzero" fill-opacity="1" /><path clip-path="url(#clip530)" d="M1800.08 34.1734 Q1798.82 33.4443 1797.32 33.1202 Q1795.86 32.7556 1794.08 32.7556 Q1787.76 32.7556 1784.36 36.8875 Q1781 40.9789 1781 48.6757 L1781 72.576 L1773.5 72.576 L1773.5 27.2059 L1781 27.2059 L1781 34.2544 Q1783.35 30.1225 1787.11 28.1376 Q1790.88 26.1121 1796.27 26.1121 Q1797.04 26.1121 1797.97 26.2337 Q1798.9 26.3147 1800.03 26.5172 L1800.08 34.1734 Z" fill="#000000" fill-rule="nonzero" fill-opacity="1" /><path clip-path="url(#clip530)" d="M1864.12 34.0924 L1864.12 9.54393 L1871.57 9.54393 L1871.57 72.576 L1864.12 72.576 L1864.12 65.7705 Q1861.77 69.8214 1858.17 71.8063 Q1854.6 73.7508 1849.58 73.7508 Q1841.35 73.7508 1836.17 67.1883 Q1831.02 60.6258 1831.02 49.9314 Q1831.02 39.2371 1836.17 32.6746 Q1841.35 26.1121 1849.58 26.1121 Q1854.6 26.1121 1858.17 28.0971 Q1861.77 30.0415 1864.12 34.0924 M1838.72 49.9314 Q1838.72 58.1548 1842.08 62.8538 Q1845.49 67.5124 1851.4 67.5124 Q1857.31 67.5124 1860.72 62.8538 Q1864.12 58.1548 1864.12 49.9314 Q1864.12 41.7081 1860.72 37.0496 Q1857.31 32.3505 1851.4 32.3505 Q1845.49 32.3505 1842.08 37.0496 Q1838.72 41.7081 1838.72 49.9314 Z" fill="#000000" fill-rule="nonzero" fill-opacity="1" /><path clip-path="url(#clip530)" d="M1907.55 49.7694 Q1898.51 49.7694 1895.03 51.8354 Q1891.54 53.9013 1891.54 58.8839 Q1891.54 62.8538 1894.14 65.2034 Q1896.77 67.5124 1901.27 67.5124 Q1907.46 67.5124 1911.19 63.1374 Q1914.96 58.7219 1914.96 51.4303 L1914.96 49.7694 L1907.55 49.7694 M1922.41 46.6907 L1922.41 72.576 L1914.96 72.576 L1914.96 65.6895 Q1912.41 69.8214 1908.6 71.8063 Q1904.79 73.7508 1899.28 73.7508 Q1892.31 73.7508 1888.18 69.8619 Q1884.09 65.9325 1884.09 59.3701 Q1884.09 51.7138 1889.2 47.825 Q1894.34 43.9361 1904.51 43.9361 L1914.96 43.9361 L1914.96 43.2069 Q1914.96 38.0623 1911.56 35.2672 Q1908.19 32.4315 1902.08 32.4315 Q1898.19 32.4315 1894.5 33.3632 Q1890.82 34.295 1887.41 36.1584 L1887.41 29.2718 Q1891.5 27.692 1895.35 26.9223 Q1899.2 26.1121 1902.85 26.1121 Q1912.69 26.1121 1917.55 31.2163 Q1922.41 36.3204 1922.41 46.6907 Z" fill="#000000" fill-rule="nonzero" fill-opacity="1" /><path clip-path="url(#clip530)" d="M1945.14 14.324 L1945.14 27.2059 L1960.49 27.2059 L1960.49 32.9987 L1945.14 32.9987 L1945.14 57.6282 Q1945.14 63.1779 1946.64 64.7578 Q1948.18 66.3376 1952.83 66.3376 L1960.49 66.3376 L1960.49 72.576 L1952.83 72.576 Q1944.21 72.576 1940.93 69.3758 Q1937.64 66.1351 1937.64 57.6282 L1937.64 32.9987 L1932.18 32.9987 L1932.18 27.2059 L1937.64 27.2059 L1937.64 14.324 L1945.14 14.324 Z" fill="#000000" fill-rule="nonzero" fill-opacity="1" /><path clip-path="url(#clip530)" d="M1990.91 49.7694 Q1981.88 49.7694 1978.4 51.8354 Q1974.91 53.9013 1974.91 58.8839 Q1974.91 62.8538 1977.5 65.2034 Q1980.14 67.5124 1984.63 67.5124 Q1990.83 67.5124 1994.56 63.1374 Q1998.33 58.7219 1998.33 51.4303 L1998.33 49.7694 L1990.91 49.7694 M2005.78 46.6907 L2005.78 72.576 L1998.33 72.576 L1998.33 65.6895 Q1995.77 69.8214 1991.97 71.8063 Q1988.16 73.7508 1982.65 73.7508 Q1975.68 73.7508 1971.55 69.8619 Q1967.46 65.9325 1967.46 59.3701 Q1967.46 51.7138 1972.56 47.825 Q1977.71 43.9361 1987.88 43.9361 L1998.33 43.9361 L1998.33 43.2069 Q1998.33 38.0623 1994.92 35.2672 Q1991.56 32.4315 1985.44 32.4315 Q1981.56 32.4315 1977.87 33.3632 Q1974.18 34.295 1970.78 36.1584 L1970.78 29.2718 Q1974.87 27.692 1978.72 26.9223 Q1982.57 26.1121 1986.21 26.1121 Q1996.06 26.1121 2000.92 31.2163 Q2005.78 36.3204 2005.78 46.6907 Z" fill="#000000" fill-rule="nonzero" fill-opacity="1" /><circle clip-path="url(#clip531)" cx="280.151" cy="1106.77" r="10.8" fill="#0000ff" fill-rule="evenodd" fill-opacity="1" stroke="#000000" stroke-opacity="1" stroke-width="3.84"/>
<circle clip-path="url(#clip531)" cx="308.799" cy="1076.26" r="10.8" fill="#0000ff" fill-rule="evenodd" fill-opacity="1" stroke="#000000" stroke-opacity="1" stroke-width="3.84"/>
<circle clip-path="url(#clip531)" cx="337.447" cy="1039.17" r="10.8" fill="#0000ff" fill-rule="evenodd" fill-opacity="1" stroke="#000000" stroke-opacity="1" stroke-width="3.84"/>
<circle clip-path="url(#clip531)" cx="366.095" cy="972.057" r="10.8" fill="#0000ff" fill-rule="evenodd" fill-opacity="1" stroke="#000000" stroke-opacity="1" stroke-width="3.84"/>
<circle clip-path="url(#clip531)" cx="394.743" cy="945.788" r="10.8" fill="#0000ff" fill-rule="evenodd" fill-opacity="1" stroke="#000000" stroke-opacity="1" stroke-width="3.84"/>
<circle clip-path="url(#clip531)" cx="423.391" cy="948.127" r="10.8" fill="#0000ff" fill-rule="evenodd" fill-opacity="1" stroke="#000000" stroke-opacity="1" stroke-width="3.84"/>
<circle clip-path="url(#clip531)" cx="452.039" cy="1015.87" r="10.8" fill="#0000ff" fill-rule="evenodd" fill-opacity="1" stroke="#000000" stroke-opacity="1" stroke-width="3.84"/>
<circle clip-path="url(#clip531)" cx="480.688" cy="1037.64" r="10.8" fill="#0000ff" fill-rule="evenodd" fill-opacity="1" stroke="#000000" stroke-opacity="1" stroke-width="3.84"/>
<circle clip-path="url(#clip531)" cx="509.336" cy="1217.53" r="10.8" fill="#0000ff" fill-rule="evenodd" fill-opacity="1" stroke="#000000" stroke-opacity="1" stroke-width="3.84"/>
<circle clip-path="url(#clip531)" cx="537.984" cy="1285.23" r="10.8" fill="#0000ff" fill-rule="evenodd" fill-opacity="1" stroke="#000000" stroke-opacity="1" stroke-width="3.84"/>
<circle clip-path="url(#clip531)" cx="566.632" cy="1421.49" r="10.8" fill="#0000ff" fill-rule="evenodd" fill-opacity="1" stroke="#000000" stroke-opacity="1" stroke-width="3.84"/>
<circle clip-path="url(#clip531)" cx="595.28" cy="1596.71" r="10.8" fill="#0000ff" fill-rule="evenodd" fill-opacity="1" stroke="#000000" stroke-opacity="1" stroke-width="3.84"/>
<circle clip-path="url(#clip531)" cx="623.928" cy="1656.21" r="10.8" fill="#0000ff" fill-rule="evenodd" fill-opacity="1" stroke="#000000" stroke-opacity="1" stroke-width="3.84"/>
<circle clip-path="url(#clip531)" cx="652.576" cy="1688.57" r="10.8" fill="#0000ff" fill-rule="evenodd" fill-opacity="1" stroke="#000000" stroke-opacity="1" stroke-width="3.84"/>
<circle clip-path="url(#clip531)" cx="681.224" cy="1664.45" r="10.8" fill="#0000ff" fill-rule="evenodd" fill-opacity="1" stroke="#000000" stroke-opacity="1" stroke-width="3.84"/>
<circle clip-path="url(#clip531)" cx="709.873" cy="1688.57" r="10.8" fill="#0000ff" fill-rule="evenodd" fill-opacity="1" stroke="#000000" stroke-opacity="1" stroke-width="3.84"/>
<circle clip-path="url(#clip531)" cx="738.521" cy="1681.25" r="10.8" fill="#0000ff" fill-rule="evenodd" fill-opacity="1" stroke="#000000" stroke-opacity="1" stroke-width="3.84"/>
<circle clip-path="url(#clip531)" cx="767.169" cy="1688.57" r="10.8" fill="#0000ff" fill-rule="evenodd" fill-opacity="1" stroke="#000000" stroke-opacity="1" stroke-width="3.84"/>
<circle clip-path="url(#clip531)" cx="795.817" cy="1672.39" r="10.8" fill="#0000ff" fill-rule="evenodd" fill-opacity="1" stroke="#000000" stroke-opacity="1" stroke-width="3.84"/>
<circle clip-path="url(#clip531)" cx="824.465" cy="1688.57" r="10.8" fill="#0000ff" fill-rule="evenodd" fill-opacity="1" stroke="#000000" stroke-opacity="1" stroke-width="3.84"/>
<circle clip-path="url(#clip531)" cx="853.113" cy="1679.11" r="10.8" fill="#0000ff" fill-rule="evenodd" fill-opacity="1" stroke="#000000" stroke-opacity="1" stroke-width="3.84"/>
<circle clip-path="url(#clip531)" cx="881.761" cy="1688.57" r="10.8" fill="#0000ff" fill-rule="evenodd" fill-opacity="1" stroke="#000000" stroke-opacity="1" stroke-width="3.84"/>
<circle clip-path="url(#clip531)" cx="910.409" cy="1688.57" r="10.8" fill="#0000ff" fill-rule="evenodd" fill-opacity="1" stroke="#000000" stroke-opacity="1" stroke-width="3.84"/>
<circle clip-path="url(#clip531)" cx="939.058" cy="1671.72" r="10.8" fill="#0000ff" fill-rule="evenodd" fill-opacity="1" stroke="#000000" stroke-opacity="1" stroke-width="3.84"/>
<circle clip-path="url(#clip531)" cx="967.706" cy="1677.27" r="10.8" fill="#0000ff" fill-rule="evenodd" fill-opacity="1" stroke="#000000" stroke-opacity="1" stroke-width="3.84"/>
<circle clip-path="url(#clip531)" cx="996.354" cy="1667.76" r="10.8" fill="#0000ff" fill-rule="evenodd" fill-opacity="1" stroke="#000000" stroke-opacity="1" stroke-width="3.84"/>
<circle clip-path="url(#clip531)" cx="1025" cy="1666.92" r="10.8" fill="#0000ff" fill-rule="evenodd" fill-opacity="1" stroke="#000000" stroke-opacity="1" stroke-width="3.84"/>
<circle clip-path="url(#clip531)" cx="1053.65" cy="1644.86" r="10.8" fill="#0000ff" fill-rule="evenodd" fill-opacity="1" stroke="#000000" stroke-opacity="1" stroke-width="3.84"/>
<circle clip-path="url(#clip531)" cx="1082.3" cy="1642.73" r="10.8" fill="#0000ff" fill-rule="evenodd" fill-opacity="1" stroke="#000000" stroke-opacity="1" stroke-width="3.84"/>
<circle clip-path="url(#clip531)" cx="1110.95" cy="1554.44" r="10.8" fill="#0000ff" fill-rule="evenodd" fill-opacity="1" stroke="#000000" stroke-opacity="1" stroke-width="3.84"/>
<circle clip-path="url(#clip531)" cx="1139.59" cy="1547.69" r="10.8" fill="#0000ff" fill-rule="evenodd" fill-opacity="1" stroke="#000000" stroke-opacity="1" stroke-width="3.84"/>
<circle clip-path="url(#clip531)" cx="1168.24" cy="1499.02" r="10.8" fill="#0000ff" fill-rule="evenodd" fill-opacity="1" stroke="#000000" stroke-opacity="1" stroke-width="3.84"/>
<circle clip-path="url(#clip531)" cx="1196.89" cy="1425.94" r="10.8" fill="#0000ff" fill-rule="evenodd" fill-opacity="1" stroke="#000000" stroke-opacity="1" stroke-width="3.84"/>
<circle clip-path="url(#clip531)" cx="1225.54" cy="1237.95" r="10.8" fill="#0000ff" fill-rule="evenodd" fill-opacity="1" stroke="#000000" stroke-opacity="1" stroke-width="3.84"/>
<circle clip-path="url(#clip531)" cx="1254.19" cy="1089.69" r="10.8" fill="#0000ff" fill-rule="evenodd" fill-opacity="1" stroke="#000000" stroke-opacity="1" stroke-width="3.84"/>
<circle clip-path="url(#clip531)" cx="1282.83" cy="907.124" r="10.8" fill="#0000ff" fill-rule="evenodd" fill-opacity="1" stroke="#000000" stroke-opacity="1" stroke-width="3.84"/>
<circle clip-path="url(#clip531)" cx="1311.48" cy="702.34" r="10.8" fill="#0000ff" fill-rule="evenodd" fill-opacity="1" stroke="#000000" stroke-opacity="1" stroke-width="3.84"/>
<circle clip-path="url(#clip531)" cx="1340.13" cy="575.792" r="10.8" fill="#0000ff" fill-rule="evenodd" fill-opacity="1" stroke="#000000" stroke-opacity="1" stroke-width="3.84"/>
<circle clip-path="url(#clip531)" cx="1368.78" cy="448.802" r="10.8" fill="#0000ff" fill-rule="evenodd" fill-opacity="1" stroke="#000000" stroke-opacity="1" stroke-width="3.84"/>
<circle clip-path="url(#clip531)" cx="1397.43" cy="416.821" r="10.8" fill="#0000ff" fill-rule="evenodd" fill-opacity="1" stroke="#000000" stroke-opacity="1" stroke-width="3.84"/>
<circle clip-path="url(#clip531)" cx="1426.08" cy="272.078" r="10.8" fill="#0000ff" fill-rule="evenodd" fill-opacity="1" stroke="#000000" stroke-opacity="1" stroke-width="3.84"/>
<circle clip-path="url(#clip531)" cx="1454.72" cy="232.467" r="10.8" fill="#0000ff" fill-rule="evenodd" fill-opacity="1" stroke="#000000" stroke-opacity="1" stroke-width="3.84"/>
<circle clip-path="url(#clip531)" cx="1483.37" cy="224.646" r="10.8" fill="#0000ff" fill-rule="evenodd" fill-opacity="1" stroke="#000000" stroke-opacity="1" stroke-width="3.84"/>
<circle clip-path="url(#clip531)" cx="1512.02" cy="279.413" r="10.8" fill="#0000ff" fill-rule="evenodd" fill-opacity="1" stroke="#000000" stroke-opacity="1" stroke-width="3.84"/>
<circle clip-path="url(#clip531)" cx="1540.67" cy="216.059" r="10.8" fill="#0000ff" fill-rule="evenodd" fill-opacity="1" stroke="#000000" stroke-opacity="1" stroke-width="3.84"/>
<circle clip-path="url(#clip531)" cx="1569.32" cy="173.254" r="10.8" fill="#0000ff" fill-rule="evenodd" fill-opacity="1" stroke="#000000" stroke-opacity="1" stroke-width="3.84"/>
<circle clip-path="url(#clip531)" cx="1597.96" cy="278.636" r="10.8" fill="#0000ff" fill-rule="evenodd" fill-opacity="1" stroke="#000000" stroke-opacity="1" stroke-width="3.84"/>
<circle clip-path="url(#clip531)" cx="1626.61" cy="275.026" r="10.8" fill="#0000ff" fill-rule="evenodd" fill-opacity="1" stroke="#000000" stroke-opacity="1" stroke-width="3.84"/>
<circle clip-path="url(#clip531)" cx="1655.26" cy="219.884" r="10.8" fill="#0000ff" fill-rule="evenodd" fill-opacity="1" stroke="#000000" stroke-opacity="1" stroke-width="3.84"/>
<circle clip-path="url(#clip531)" cx="1683.91" cy="214.639" r="10.8" fill="#0000ff" fill-rule="evenodd" fill-opacity="1" stroke="#000000" stroke-opacity="1" stroke-width="3.84"/>
<circle clip-path="url(#clip531)" cx="1712.56" cy="211.431" r="10.8" fill="#0000ff" fill-rule="evenodd" fill-opacity="1" stroke="#000000" stroke-opacity="1" stroke-width="3.84"/>
<circle clip-path="url(#clip531)" cx="1741.2" cy="258.443" r="10.8" fill="#0000ff" fill-rule="evenodd" fill-opacity="1" stroke="#000000" stroke-opacity="1" stroke-width="3.84"/>
<circle clip-path="url(#clip531)" cx="1769.85" cy="286.386" r="10.8" fill="#0000ff" fill-rule="evenodd" fill-opacity="1" stroke="#000000" stroke-opacity="1" stroke-width="3.84"/>
<circle clip-path="url(#clip531)" cx="1798.5" cy="278.555" r="10.8" fill="#0000ff" fill-rule="evenodd" fill-opacity="1" stroke="#000000" stroke-opacity="1" stroke-width="3.84"/>
<circle clip-path="url(#clip531)" cx="1827.15" cy="249.074" r="10.8" fill="#0000ff" fill-rule="evenodd" fill-opacity="1" stroke="#000000" stroke-opacity="1" stroke-width="3.84"/>
<circle clip-path="url(#clip531)" cx="1855.8" cy="394.982" r="10.8" fill="#0000ff" fill-rule="evenodd" fill-opacity="1" stroke="#000000" stroke-opacity="1" stroke-width="3.84"/>
<circle clip-path="url(#clip531)" cx="1884.45" cy="303.205" r="10.8" fill="#0000ff" fill-rule="evenodd" fill-opacity="1" stroke="#000000" stroke-opacity="1" stroke-width="3.84"/>
<circle clip-path="url(#clip531)" cx="1913.09" cy="390.037" r="10.8" fill="#0000ff" fill-rule="evenodd" fill-opacity="1" stroke="#000000" stroke-opacity="1" stroke-width="3.84"/>
<circle clip-path="url(#clip531)" cx="1941.74" cy="284.377" r="10.8" fill="#0000ff" fill-rule="evenodd" fill-opacity="1" stroke="#000000" stroke-opacity="1" stroke-width="3.84"/>
<circle clip-path="url(#clip531)" cx="1970.39" cy="420.004" r="10.8" fill="#0000ff" fill-rule="evenodd" fill-opacity="1" stroke="#000000" stroke-opacity="1" stroke-width="3.84"/>
<circle clip-path="url(#clip531)" cx="1999.04" cy="469.261" r="10.8" fill="#0000ff" fill-rule="evenodd" fill-opacity="1" stroke="#000000" stroke-opacity="1" stroke-width="3.84"/>
<circle clip-path="url(#clip531)" cx="2027.69" cy="483.043" r="10.8" fill="#0000ff" fill-rule="evenodd" fill-opacity="1" stroke="#000000" stroke-opacity="1" stroke-width="3.84"/>
<circle clip-path="url(#clip531)" cx="2056.33" cy="573.869" r="10.8" fill="#0000ff" fill-rule="evenodd" fill-opacity="1" stroke="#000000" stroke-opacity="1" stroke-width="3.84"/>
<circle clip-path="url(#clip531)" cx="2084.98" cy="574.262" r="10.8" fill="#0000ff" fill-rule="evenodd" fill-opacity="1" stroke="#000000" stroke-opacity="1" stroke-width="3.84"/>
<circle clip-path="url(#clip531)" cx="2113.63" cy="717.749" r="10.8" fill="#0000ff" fill-rule="evenodd" fill-opacity="1" stroke="#000000" stroke-opacity="1" stroke-width="3.84"/>
<circle clip-path="url(#clip531)" cx="2142.28" cy="816.959" r="10.8" fill="#0000ff" fill-rule="evenodd" fill-opacity="1" stroke="#000000" stroke-opacity="1" stroke-width="3.84"/>
<circle clip-path="url(#clip531)" cx="2170.93" cy="893.389" r="10.8" fill="#0000ff" fill-rule="evenodd" fill-opacity="1" stroke="#000000" stroke-opacity="1" stroke-width="3.84"/>
<circle clip-path="url(#clip531)" cx="2199.57" cy="1090.51" r="10.8" fill="#0000ff" fill-rule="evenodd" fill-opacity="1" stroke="#000000" stroke-opacity="1" stroke-width="3.84"/>
<circle clip-path="url(#clip531)" cx="2228.22" cy="1290.41" r="10.8" fill="#0000ff" fill-rule="evenodd" fill-opacity="1" stroke="#000000" stroke-opacity="1" stroke-width="3.84"/>
<circle clip-path="url(#clip531)" cx="2256.87" cy="1402" r="10.8" fill="#0000ff" fill-rule="evenodd" fill-opacity="1" stroke="#000000" stroke-opacity="1" stroke-width="3.84"/>
<circle clip-path="url(#clip531)" cx="2285.52" cy="1617.18" r="10.8" fill="#0000ff" fill-rule="evenodd" fill-opacity="1" stroke="#000000" stroke-opacity="1" stroke-width="3.84"/>
<circle clip-path="url(#clip531)" cx="2314.17" cy="1634.13" r="10.8" fill="#0000ff" fill-rule="evenodd" fill-opacity="1" stroke="#000000" stroke-opacity="1" stroke-width="3.84"/>
<circle clip-path="url(#clip531)" cx="2342.82" cy="1671.02" r="10.8" fill="#0000ff" fill-rule="evenodd" fill-opacity="1" stroke="#000000" stroke-opacity="1" stroke-width="3.84"/>
<circle clip-path="url(#clip531)" cx="2371.46" cy="1688.57" r="10.8" fill="#0000ff" fill-rule="evenodd" fill-opacity="1" stroke="#000000" stroke-opacity="1" stroke-width="3.84"/>
<circle clip-path="url(#clip531)" cx="2400.11" cy="1658.4" r="10.8" fill="#0000ff" fill-rule="evenodd" fill-opacity="1" stroke="#000000" stroke-opacity="1" stroke-width="3.84"/>
<circle clip-path="url(#clip531)" cx="2428.76" cy="1688.57" r="10.8" fill="#0000ff" fill-rule="evenodd" fill-opacity="1" stroke="#000000" stroke-opacity="1" stroke-width="3.84"/>
<circle clip-path="url(#clip531)" cx="2457.41" cy="1670.22" r="10.8" fill="#0000ff" fill-rule="evenodd" fill-opacity="1" stroke="#000000" stroke-opacity="1" stroke-width="3.84"/>
<circle clip-path="url(#clip531)" cx="2486.06" cy="1688.57" r="10.8" fill="#0000ff" fill-rule="evenodd" fill-opacity="1" stroke="#000000" stroke-opacity="1" stroke-width="3.84"/>
<circle clip-path="url(#clip531)" cx="2514.7" cy="1660.16" r="10.8" fill="#0000ff" fill-rule="evenodd" fill-opacity="1" stroke="#000000" stroke-opacity="1" stroke-width="3.84"/>
<circle clip-path="url(#clip531)" cx="2543.35" cy="1641.25" r="10.8" fill="#0000ff" fill-rule="evenodd" fill-opacity="1" stroke="#000000" stroke-opacity="1" stroke-width="3.84"/>
<circle clip-path="url(#clip531)" cx="2572" cy="1688.57" r="10.8" fill="#0000ff" fill-rule="evenodd" fill-opacity="1" stroke="#000000" stroke-opacity="1" stroke-width="3.84"/>
<circle clip-path="url(#clip531)" cx="280.151" cy="1544.21" r="10.8" fill="#ff0000" fill-rule="evenodd" fill-opacity="1" stroke="#000000" stroke-opacity="1" stroke-width="3.84"/>
<circle clip-path="url(#clip531)" cx="308.799" cy="1525.36" r="10.8" fill="#ff0000" fill-rule="evenodd" fill-opacity="1" stroke="#000000" stroke-opacity="1" stroke-width="3.84"/>
<circle clip-path="url(#clip531)" cx="337.447" cy="1501.39" r="10.8" fill="#ff0000" fill-rule="evenodd" fill-opacity="1" stroke="#000000" stroke-opacity="1" stroke-width="3.84"/>
<circle clip-path="url(#clip531)" cx="366.095" cy="1481.42" r="10.8" fill="#ff0000" fill-rule="evenodd" fill-opacity="1" stroke="#000000" stroke-opacity="1" stroke-width="3.84"/>
<circle clip-path="url(#clip531)" cx="394.743" cy="1464.25" r="10.8" fill="#ff0000" fill-rule="evenodd" fill-opacity="1" stroke="#000000" stroke-opacity="1" stroke-width="3.84"/>
<circle clip-path="url(#clip531)" cx="423.391" cy="1415.59" r="10.8" fill="#ff0000" fill-rule="evenodd" fill-opacity="1" stroke="#000000" stroke-opacity="1" stroke-width="3.84"/>
<circle clip-path="url(#clip531)" cx="452.039" cy="1390.37" r="10.8" fill="#ff0000" fill-rule="evenodd" fill-opacity="1" stroke="#000000" stroke-opacity="1" stroke-width="3.84"/>
<circle clip-path="url(#clip531)" cx="480.688" cy="1346.47" r="10.8" fill="#ff0000" fill-rule="evenodd" fill-opacity="1" stroke="#000000" stroke-opacity="1" stroke-width="3.84"/>
<circle clip-path="url(#clip531)" cx="509.336" cy="1336.26" r="10.8" fill="#ff0000" fill-rule="evenodd" fill-opacity="1" stroke="#000000" stroke-opacity="1" stroke-width="3.84"/>
<circle clip-path="url(#clip531)" cx="537.984" cy="1281.86" r="10.8" fill="#ff0000" fill-rule="evenodd" fill-opacity="1" stroke="#000000" stroke-opacity="1" stroke-width="3.84"/>
<circle clip-path="url(#clip531)" cx="566.632" cy="1261.97" r="10.8" fill="#ff0000" fill-rule="evenodd" fill-opacity="1" stroke="#000000" stroke-opacity="1" stroke-width="3.84"/>
<circle clip-path="url(#clip531)" cx="595.28" cy="1339.66" r="10.8" fill="#ff0000" fill-rule="evenodd" fill-opacity="1" stroke="#000000" stroke-opacity="1" stroke-width="3.84"/>
<circle clip-path="url(#clip531)" cx="623.928" cy="1357.19" r="10.8" fill="#ff0000" fill-rule="evenodd" fill-opacity="1" stroke="#000000" stroke-opacity="1" stroke-width="3.84"/>
<circle clip-path="url(#clip531)" cx="652.576" cy="1422.38" r="10.8" fill="#ff0000" fill-rule="evenodd" fill-opacity="1" stroke="#000000" stroke-opacity="1" stroke-width="3.84"/>
<circle clip-path="url(#clip531)" cx="681.224" cy="1484.05" r="10.8" fill="#ff0000" fill-rule="evenodd" fill-opacity="1" stroke="#000000" stroke-opacity="1" stroke-width="3.84"/>
<circle clip-path="url(#clip531)" cx="709.873" cy="1545.03" r="10.8" fill="#ff0000" fill-rule="evenodd" fill-opacity="1" stroke="#000000" stroke-opacity="1" stroke-width="3.84"/>
<circle clip-path="url(#clip531)" cx="738.521" cy="1565.13" r="10.8" fill="#ff0000" fill-rule="evenodd" fill-opacity="1" stroke="#000000" stroke-opacity="1" stroke-width="3.84"/>
<circle clip-path="url(#clip531)" cx="767.169" cy="1608.78" r="10.8" fill="#ff0000" fill-rule="evenodd" fill-opacity="1" stroke="#000000" stroke-opacity="1" stroke-width="3.84"/>
<circle clip-path="url(#clip531)" cx="795.817" cy="1637.79" r="10.8" fill="#ff0000" fill-rule="evenodd" fill-opacity="1" stroke="#000000" stroke-opacity="1" stroke-width="3.84"/>
<circle clip-path="url(#clip531)" cx="824.465" cy="1631.13" r="10.8" fill="#ff0000" fill-rule="evenodd" fill-opacity="1" stroke="#000000" stroke-opacity="1" stroke-width="3.84"/>
<circle clip-path="url(#clip531)" cx="853.113" cy="1653.51" r="10.8" fill="#ff0000" fill-rule="evenodd" fill-opacity="1" stroke="#000000" stroke-opacity="1" stroke-width="3.84"/>
<circle clip-path="url(#clip531)" cx="881.761" cy="1647.9" r="10.8" fill="#ff0000" fill-rule="evenodd" fill-opacity="1" stroke="#000000" stroke-opacity="1" stroke-width="3.84"/>
<circle clip-path="url(#clip531)" cx="910.409" cy="1675.25" r="10.8" fill="#ff0000" fill-rule="evenodd" fill-opacity="1" stroke="#000000" stroke-opacity="1" stroke-width="3.84"/>
<circle clip-path="url(#clip531)" cx="939.058" cy="1684.2" r="10.8" fill="#ff0000" fill-rule="evenodd" fill-opacity="1" stroke="#000000" stroke-opacity="1" stroke-width="3.84"/>
<circle clip-path="url(#clip531)" cx="967.706" cy="1688.57" r="10.8" fill="#ff0000" fill-rule="evenodd" fill-opacity="1" stroke="#000000" stroke-opacity="1" stroke-width="3.84"/>
<circle clip-path="url(#clip531)" cx="996.354" cy="1674.07" r="10.8" fill="#ff0000" fill-rule="evenodd" fill-opacity="1" stroke="#000000" stroke-opacity="1" stroke-width="3.84"/>
<circle clip-path="url(#clip531)" cx="1025" cy="1649.5" r="10.8" fill="#ff0000" fill-rule="evenodd" fill-opacity="1" stroke="#000000" stroke-opacity="1" stroke-width="3.84"/>
<circle clip-path="url(#clip531)" cx="1053.65" cy="1661.07" r="10.8" fill="#ff0000" fill-rule="evenodd" fill-opacity="1" stroke="#000000" stroke-opacity="1" stroke-width="3.84"/>
<circle clip-path="url(#clip531)" cx="1082.3" cy="1688.57" r="10.8" fill="#ff0000" fill-rule="evenodd" fill-opacity="1" stroke="#000000" stroke-opacity="1" stroke-width="3.84"/>
<circle clip-path="url(#clip531)" cx="1110.95" cy="1674.49" r="10.8" fill="#ff0000" fill-rule="evenodd" fill-opacity="1" stroke="#000000" stroke-opacity="1" stroke-width="3.84"/>
<circle clip-path="url(#clip531)" cx="1139.59" cy="1679.9" r="10.8" fill="#ff0000" fill-rule="evenodd" fill-opacity="1" stroke="#000000" stroke-opacity="1" stroke-width="3.84"/>
<circle clip-path="url(#clip531)" cx="1168.24" cy="1688.57" r="10.8" fill="#ff0000" fill-rule="evenodd" fill-opacity="1" stroke="#000000" stroke-opacity="1" stroke-width="3.84"/>
<circle clip-path="url(#clip531)" cx="1196.89" cy="1688.57" r="10.8" fill="#ff0000" fill-rule="evenodd" fill-opacity="1" stroke="#000000" stroke-opacity="1" stroke-width="3.84"/>
<circle clip-path="url(#clip531)" cx="1225.54" cy="1688.57" r="10.8" fill="#ff0000" fill-rule="evenodd" fill-opacity="1" stroke="#000000" stroke-opacity="1" stroke-width="3.84"/>
<circle clip-path="url(#clip531)" cx="1254.19" cy="1685.16" r="10.8" fill="#ff0000" fill-rule="evenodd" fill-opacity="1" stroke="#000000" stroke-opacity="1" stroke-width="3.84"/>
<circle clip-path="url(#clip531)" cx="1282.83" cy="1688.57" r="10.8" fill="#ff0000" fill-rule="evenodd" fill-opacity="1" stroke="#000000" stroke-opacity="1" stroke-width="3.84"/>
<circle clip-path="url(#clip531)" cx="1311.48" cy="1684.09" r="10.8" fill="#ff0000" fill-rule="evenodd" fill-opacity="1" stroke="#000000" stroke-opacity="1" stroke-width="3.84"/>
<circle clip-path="url(#clip531)" cx="1340.13" cy="1685.47" r="10.8" fill="#ff0000" fill-rule="evenodd" fill-opacity="1" stroke="#000000" stroke-opacity="1" stroke-width="3.84"/>
<circle clip-path="url(#clip531)" cx="1368.78" cy="1682.39" r="10.8" fill="#ff0000" fill-rule="evenodd" fill-opacity="1" stroke="#000000" stroke-opacity="1" stroke-width="3.84"/>
<circle clip-path="url(#clip531)" cx="1397.43" cy="1634.56" r="10.8" fill="#ff0000" fill-rule="evenodd" fill-opacity="1" stroke="#000000" stroke-opacity="1" stroke-width="3.84"/>
<circle clip-path="url(#clip531)" cx="1426.08" cy="1688.57" r="10.8" fill="#ff0000" fill-rule="evenodd" fill-opacity="1" stroke="#000000" stroke-opacity="1" stroke-width="3.84"/>
<circle clip-path="url(#clip531)" cx="1454.72" cy="1688.57" r="10.8" fill="#ff0000" fill-rule="evenodd" fill-opacity="1" stroke="#000000" stroke-opacity="1" stroke-width="3.84"/>
<circle clip-path="url(#clip531)" cx="1483.37" cy="1688.57" r="10.8" fill="#ff0000" fill-rule="evenodd" fill-opacity="1" stroke="#000000" stroke-opacity="1" stroke-width="3.84"/>
<circle clip-path="url(#clip531)" cx="1512.02" cy="1688.57" r="10.8" fill="#ff0000" fill-rule="evenodd" fill-opacity="1" stroke="#000000" stroke-opacity="1" stroke-width="3.84"/>
<circle clip-path="url(#clip531)" cx="1540.67" cy="1671.82" r="10.8" fill="#ff0000" fill-rule="evenodd" fill-opacity="1" stroke="#000000" stroke-opacity="1" stroke-width="3.84"/>
<circle clip-path="url(#clip531)" cx="1569.32" cy="1688.57" r="10.8" fill="#ff0000" fill-rule="evenodd" fill-opacity="1" stroke="#000000" stroke-opacity="1" stroke-width="3.84"/>
<circle clip-path="url(#clip531)" cx="1597.96" cy="1651.21" r="10.8" fill="#ff0000" fill-rule="evenodd" fill-opacity="1" stroke="#000000" stroke-opacity="1" stroke-width="3.84"/>
<circle clip-path="url(#clip531)" cx="1626.61" cy="1663.68" r="10.8" fill="#ff0000" fill-rule="evenodd" fill-opacity="1" stroke="#000000" stroke-opacity="1" stroke-width="3.84"/>
<circle clip-path="url(#clip531)" cx="1655.26" cy="1660.06" r="10.8" fill="#ff0000" fill-rule="evenodd" fill-opacity="1" stroke="#000000" stroke-opacity="1" stroke-width="3.84"/>
<circle clip-path="url(#clip531)" cx="1683.91" cy="1640.01" r="10.8" fill="#ff0000" fill-rule="evenodd" fill-opacity="1" stroke="#000000" stroke-opacity="1" stroke-width="3.84"/>
<circle clip-path="url(#clip531)" cx="1712.56" cy="1664.27" r="10.8" fill="#ff0000" fill-rule="evenodd" fill-opacity="1" stroke="#000000" stroke-opacity="1" stroke-width="3.84"/>
<circle clip-path="url(#clip531)" cx="1741.2" cy="1627.62" r="10.8" fill="#ff0000" fill-rule="evenodd" fill-opacity="1" stroke="#000000" stroke-opacity="1" stroke-width="3.84"/>
<circle clip-path="url(#clip531)" cx="1769.85" cy="1665.41" r="10.8" fill="#ff0000" fill-rule="evenodd" fill-opacity="1" stroke="#000000" stroke-opacity="1" stroke-width="3.84"/>
<circle clip-path="url(#clip531)" cx="1798.5" cy="1631.75" r="10.8" fill="#ff0000" fill-rule="evenodd" fill-opacity="1" stroke="#000000" stroke-opacity="1" stroke-width="3.84"/>
<circle clip-path="url(#clip531)" cx="1827.15" cy="1616.07" r="10.8" fill="#ff0000" fill-rule="evenodd" fill-opacity="1" stroke="#000000" stroke-opacity="1" stroke-width="3.84"/>
<circle clip-path="url(#clip531)" cx="1855.8" cy="1623.8" r="10.8" fill="#ff0000" fill-rule="evenodd" fill-opacity="1" stroke="#000000" stroke-opacity="1" stroke-width="3.84"/>
<circle clip-path="url(#clip531)" cx="1884.45" cy="1605.88" r="10.8" fill="#ff0000" fill-rule="evenodd" fill-opacity="1" stroke="#000000" stroke-opacity="1" stroke-width="3.84"/>
<circle clip-path="url(#clip531)" cx="1913.09" cy="1574.03" r="10.8" fill="#ff0000" fill-rule="evenodd" fill-opacity="1" stroke="#000000" stroke-opacity="1" stroke-width="3.84"/>
<circle clip-path="url(#clip531)" cx="1941.74" cy="1559.59" r="10.8" fill="#ff0000" fill-rule="evenodd" fill-opacity="1" stroke="#000000" stroke-opacity="1" stroke-width="3.84"/>
<circle clip-path="url(#clip531)" cx="1970.39" cy="1545.69" r="10.8" fill="#ff0000" fill-rule="evenodd" fill-opacity="1" stroke="#000000" stroke-opacity="1" stroke-width="3.84"/>
<circle clip-path="url(#clip531)" cx="1999.04" cy="1522.26" r="10.8" fill="#ff0000" fill-rule="evenodd" fill-opacity="1" stroke="#000000" stroke-opacity="1" stroke-width="3.84"/>
<circle clip-path="url(#clip531)" cx="2027.69" cy="1476.54" r="10.8" fill="#ff0000" fill-rule="evenodd" fill-opacity="1" stroke="#000000" stroke-opacity="1" stroke-width="3.84"/>
<circle clip-path="url(#clip531)" cx="2056.33" cy="1471.97" r="10.8" fill="#ff0000" fill-rule="evenodd" fill-opacity="1" stroke="#000000" stroke-opacity="1" stroke-width="3.84"/>
<circle clip-path="url(#clip531)" cx="2084.98" cy="1427.46" r="10.8" fill="#ff0000" fill-rule="evenodd" fill-opacity="1" stroke="#000000" stroke-opacity="1" stroke-width="3.84"/>
<circle clip-path="url(#clip531)" cx="2113.63" cy="1403.15" r="10.8" fill="#ff0000" fill-rule="evenodd" fill-opacity="1" stroke="#000000" stroke-opacity="1" stroke-width="3.84"/>
<circle clip-path="url(#clip531)" cx="2142.28" cy="1344.88" r="10.8" fill="#ff0000" fill-rule="evenodd" fill-opacity="1" stroke="#000000" stroke-opacity="1" stroke-width="3.84"/>
<circle clip-path="url(#clip531)" cx="2170.93" cy="1335.09" r="10.8" fill="#ff0000" fill-rule="evenodd" fill-opacity="1" stroke="#000000" stroke-opacity="1" stroke-width="3.84"/>
<circle clip-path="url(#clip531)" cx="2199.57" cy="1273.67" r="10.8" fill="#ff0000" fill-rule="evenodd" fill-opacity="1" stroke="#000000" stroke-opacity="1" stroke-width="3.84"/>
<circle clip-path="url(#clip531)" cx="2228.22" cy="1204.31" r="10.8" fill="#ff0000" fill-rule="evenodd" fill-opacity="1" stroke="#000000" stroke-opacity="1" stroke-width="3.84"/>
<circle clip-path="url(#clip531)" cx="2256.87" cy="1171.57" r="10.8" fill="#ff0000" fill-rule="evenodd" fill-opacity="1" stroke="#000000" stroke-opacity="1" stroke-width="3.84"/>
<circle clip-path="url(#clip531)" cx="2285.52" cy="1214.61" r="10.8" fill="#ff0000" fill-rule="evenodd" fill-opacity="1" stroke="#000000" stroke-opacity="1" stroke-width="3.84"/>
<circle clip-path="url(#clip531)" cx="2314.17" cy="1306" r="10.8" fill="#ff0000" fill-rule="evenodd" fill-opacity="1" stroke="#000000" stroke-opacity="1" stroke-width="3.84"/>
<circle clip-path="url(#clip531)" cx="2342.82" cy="1390.74" r="10.8" fill="#ff0000" fill-rule="evenodd" fill-opacity="1" stroke="#000000" stroke-opacity="1" stroke-width="3.84"/>
<circle clip-path="url(#clip531)" cx="2371.46" cy="1507.42" r="10.8" fill="#ff0000" fill-rule="evenodd" fill-opacity="1" stroke="#000000" stroke-opacity="1" stroke-width="3.84"/>
<circle clip-path="url(#clip531)" cx="2400.11" cy="1555.08" r="10.8" fill="#ff0000" fill-rule="evenodd" fill-opacity="1" stroke="#000000" stroke-opacity="1" stroke-width="3.84"/>
<circle clip-path="url(#clip531)" cx="2428.76" cy="1534.87" r="10.8" fill="#ff0000" fill-rule="evenodd" fill-opacity="1" stroke="#000000" stroke-opacity="1" stroke-width="3.84"/>
<circle clip-path="url(#clip531)" cx="2457.41" cy="1609.09" r="10.8" fill="#ff0000" fill-rule="evenodd" fill-opacity="1" stroke="#000000" stroke-opacity="1" stroke-width="3.84"/>
<circle clip-path="url(#clip531)" cx="2486.06" cy="1623.61" r="10.8" fill="#ff0000" fill-rule="evenodd" fill-opacity="1" stroke="#000000" stroke-opacity="1" stroke-width="3.84"/>
<circle clip-path="url(#clip531)" cx="2514.7" cy="1648.02" r="10.8" fill="#ff0000" fill-rule="evenodd" fill-opacity="1" stroke="#000000" stroke-opacity="1" stroke-width="3.84"/>
<circle clip-path="url(#clip531)" cx="2543.35" cy="1658.5" r="10.8" fill="#ff0000" fill-rule="evenodd" fill-opacity="1" stroke="#000000" stroke-opacity="1" stroke-width="3.84"/>
<circle clip-path="url(#clip531)" cx="2572" cy="1688.57" r="10.8" fill="#ff0000" fill-rule="evenodd" fill-opacity="1" stroke="#000000" stroke-opacity="1" stroke-width="3.84"/>
<polyline clip-path="url(#clip531)" style="stroke:#0000ff; stroke-linecap:round; stroke-linejoin:round; stroke-width:8; stroke-opacity:1; fill:none" stroke-dasharray="32, 20" points="280.151,1087.35 308.799,1032.25 337.447,990.338 366.095,965.51 394.743,960.592 423.391,977.631 452.039,1018.28 480.688,1084.24 509.336,1177.18 537.984,1297.63 566.632,1439.34 595.28,1573.6 623.928,1653.92 652.576,1679 681.224,1685.11 709.873,1686.86 738.521,1687.45 767.169,1687.62 795.817,1687.58 824.465,1687.37 853.113,1686.97 881.761,1686.28 910.409,1685.18 939.058,1683.4 967.706,1680.55 996.354,1675.98 1025,1668.64 1053.65,1656.86 1082.3,1638.05 1110.95,1608.35 1139.59,1562.25 1168.24,1492.94 1196.89,1393.21 1225.54,1259.11 1254.19,1094 1282.83,911.587 1311.48,732.705 1340.13,576.657 1368.78,453.939 1397.43,365.176 1426.08,305.366 1454.72,267.015 1483.37,243.165 1512.02,229.739 1540.67,222.62 1569.32,219.832 1597.96,220.189 1626.61,222.593 1655.26,226.749 1683.91,232.511 1712.56,239.713 1741.2,248.424 1769.85,258.862 1798.5,271.253 1827.15,285.851 1855.8,303.022 1884.45,323.285 1913.09,347.239 1941.74,375.563 1970.39,409.044 1999.04,448.748 2027.69,496.002 2056.33,552.549 2084.98,620.559 2113.63,702.648 2142.28,802.457 2170.93,924.62 2199.57,1073.88 2228.22,1254.37 2256.87,1456.9 2285.52,1621.41 2314.17,1677.96 2342.82,1686.62 2371.46,1688.12 2400.11,1688.5 2428.76,1688.62 2457.41,1688.65 2486.06,1688.65 2514.7,1688.62 2543.35,1688.55 2572,1688.44 "/>
<polyline clip-path="url(#clip531)" style="stroke:#ff0000; stroke-linecap:round; stroke-linejoin:round; stroke-width:8; stroke-opacity:1; fill:none" stroke-dasharray="32, 20" points="280.151,1538.49 308.799,1522.08 337.447,1502.81 366.095,1480.58 394.743,1455.35 423.391,1427.21 452.039,1396.54 480.688,1364.24 509.336,1332.18 537.984,1304.37 566.632,1288.82 595.28,1301.5 623.928,1354.03 652.576,1426.31 681.224,1490.52 709.873,1540.62 738.521,1578.44 767.169,1606.71 795.817,1627.75 824.465,1643.39 853.113,1654.99 881.761,1663.59 910.409,1669.95 939.058,1674.65 967.706,1678.11 996.354,1680.63 1025,1682.46 1053.65,1683.77 1082.3,1684.67 1110.95,1685.25 1139.59,1685.59 1168.24,1685.74 1196.89,1685.71 1225.54,1685.54 1254.19,1685.25 1282.83,1684.82 1311.48,1684.28 1340.13,1683.61 1368.78,1682.8 1397.43,1681.83 1426.08,1680.69 1454.72,1679.35 1483.37,1677.78 1512.02,1675.95 1540.67,1673.81 1569.32,1671.31 1597.96,1668.39 1626.61,1664.99 1655.26,1661.03 1683.91,1656.42 1712.56,1651.05 1741.2,1644.8 1769.85,1637.54 1798.5,1629.09 1827.15,1619.29 1855.8,1607.93 1884.45,1594.76 1913.09,1579.52 1941.74,1561.94 1970.39,1541.69 1999.04,1518.45 2027.69,1491.84 2056.33,1461.55 2084.98,1427.39 2113.63,1389.27 2142.28,1347.34 2170.93,1302.46 2199.57,1257.48 2228.22,1217.73 2256.87,1197.36 2285.52,1227.83 2314.17,1317.51 2342.82,1409.1 2371.46,1480.71 2400.11,1534.4 2428.76,1574.32 2457.41,1603.94 2486.06,1625.91 2514.7,1642.19 2543.35,1654.26 2572,1663.2 "/>
<path clip-path="url(#clip530)" d="M1988.12 440.536 L2559.78 440.536 L2559.78 181.336 L1988.12 181.336  Z" fill="#ffffff" fill-rule="evenodd" fill-opacity="1"/>
<polyline clip-path="url(#clip530)" style="stroke:#000000; stroke-linecap:round; stroke-linejoin:round; stroke-width:4; stroke-opacity:1; fill:none" points="1988.12,440.536 2559.78,440.536 2559.78,181.336 1988.12,181.336 1988.12,440.536 "/>
<circle clip-path="url(#clip530)" cx="2096.09" cy="233.176" r="19.7486" fill="#0000ff" fill-rule="evenodd" fill-opacity="1" stroke="#000000" stroke-opacity="1" stroke-width="7.02171"/>
<path clip-path="url(#clip530)" d="M2208.74 219.739 L2208.74 232.725 L2214.61 232.725 Q2217.88 232.725 2219.66 231.035 Q2221.44 229.345 2221.44 226.22 Q2221.44 223.118 2219.66 221.429 Q2217.88 219.739 2214.61 219.739 L2208.74 219.739 M2204.06 215.896 L2214.61 215.896 Q2220.42 215.896 2223.39 218.535 Q2226.37 221.151 2226.37 226.22 Q2226.37 231.336 2223.39 233.952 Q2220.42 236.567 2214.61 236.567 L2208.74 236.567 L2208.74 250.456 L2204.06 250.456 L2204.06 215.896 Z" fill="#000000" fill-rule="nonzero" fill-opacity="1" /><path clip-path="url(#clip530)" d="M2246.65 228.512 Q2245.93 228.095 2245.08 227.91 Q2244.24 227.702 2243.23 227.702 Q2239.61 227.702 2237.67 230.063 Q2235.75 232.401 2235.75 236.799 L2235.75 250.456 L2231.47 250.456 L2231.47 224.531 L2235.75 224.531 L2235.75 228.558 Q2237.09 226.197 2239.24 225.063 Q2241.4 223.906 2244.48 223.906 Q2244.92 223.906 2245.45 223.975 Q2245.98 224.021 2246.63 224.137 L2246.65 228.512 Z" fill="#000000" fill-rule="nonzero" fill-opacity="1" /><path clip-path="url(#clip530)" d="M2272.25 236.429 L2272.25 238.512 L2252.67 238.512 Q2252.95 242.91 2255.31 245.225 Q2257.69 247.516 2261.93 247.516 Q2264.38 247.516 2266.67 246.915 Q2268.99 246.313 2271.26 245.109 L2271.26 249.137 Q2268.97 250.109 2266.56 250.618 Q2264.15 251.128 2261.67 251.128 Q2255.47 251.128 2251.84 247.516 Q2248.23 243.905 2248.23 237.748 Q2248.23 231.382 2251.65 227.655 Q2255.1 223.906 2260.93 223.906 Q2266.17 223.906 2269.2 227.285 Q2272.25 230.642 2272.25 236.429 M2267.99 235.179 Q2267.95 231.683 2266.03 229.6 Q2264.13 227.517 2260.98 227.517 Q2257.42 227.517 2255.26 229.53 Q2253.13 231.544 2252.81 235.202 L2267.99 235.179 Z" fill="#000000" fill-rule="nonzero" fill-opacity="1" /><path clip-path="url(#clip530)" d="M2290.03 252.864 Q2288.23 257.493 2286.51 258.905 Q2284.8 260.317 2281.93 260.317 L2278.53 260.317 L2278.53 256.753 L2281.03 256.753 Q2282.79 256.753 2283.76 255.919 Q2284.73 255.086 2285.91 251.984 L2286.67 250.04 L2276.19 224.531 L2280.7 224.531 L2288.8 244.808 L2296.91 224.531 L2301.42 224.531 L2290.03 252.864 Z" fill="#000000" fill-rule="nonzero" fill-opacity="1" /><path clip-path="url(#clip530)" d="M2332.6 214.484 Q2329.5 219.808 2327.99 225.017 Q2326.49 230.225 2326.49 235.572 Q2326.49 240.919 2327.99 246.174 Q2329.52 251.405 2332.6 256.706 L2328.9 256.706 Q2325.42 251.266 2323.69 246.012 Q2321.98 240.757 2321.98 235.572 Q2321.98 230.41 2323.69 225.179 Q2325.4 219.947 2328.9 214.484 L2332.6 214.484 Z" fill="#000000" fill-rule="nonzero" fill-opacity="1" /><path clip-path="url(#clip530)" d="M2350.91 227.517 Q2347.48 227.517 2345.49 230.202 Q2343.5 232.864 2343.5 237.517 Q2343.5 242.169 2345.47 244.854 Q2347.46 247.516 2350.91 247.516 Q2354.31 247.516 2356.3 244.831 Q2358.29 242.146 2358.29 237.517 Q2358.29 232.91 2356.3 230.225 Q2354.31 227.517 2350.91 227.517 M2350.91 223.906 Q2356.47 223.906 2359.64 227.517 Q2362.81 231.128 2362.81 237.517 Q2362.81 243.882 2359.64 247.516 Q2356.47 251.128 2350.91 251.128 Q2345.33 251.128 2342.16 247.516 Q2339.01 243.882 2339.01 237.517 Q2339.01 231.128 2342.16 227.517 Q2345.33 223.906 2350.91 223.906 Z" fill="#000000" fill-rule="nonzero" fill-opacity="1" /><path clip-path="url(#clip530)" d="M2388.48 237.517 Q2388.48 232.817 2386.54 230.155 Q2384.61 227.47 2381.23 227.47 Q2377.85 227.47 2375.91 230.155 Q2373.99 232.817 2373.99 237.517 Q2373.99 242.216 2375.91 244.901 Q2377.85 247.563 2381.23 247.563 Q2384.61 247.563 2386.54 244.901 Q2388.48 242.216 2388.48 237.517 M2373.99 228.466 Q2375.33 226.151 2377.37 225.04 Q2379.43 223.906 2382.28 223.906 Q2387 223.906 2389.94 227.655 Q2392.9 231.405 2392.9 237.517 Q2392.9 243.628 2389.94 247.378 Q2387 251.128 2382.28 251.128 Q2379.43 251.128 2377.37 250.016 Q2375.33 248.882 2373.99 246.567 L2373.99 250.456 L2369.71 250.456 L2369.71 214.438 L2373.99 214.438 L2373.99 228.466 Z" fill="#000000" fill-rule="nonzero" fill-opacity="1" /><path clip-path="url(#clip530)" d="M2416.49 225.294 L2416.49 229.322 Q2414.68 228.396 2412.74 227.933 Q2410.79 227.47 2408.71 227.47 Q2405.54 227.47 2403.94 228.443 Q2402.37 229.415 2402.37 231.359 Q2402.37 232.841 2403.5 233.697 Q2404.64 234.53 2408.06 235.294 L2409.52 235.618 Q2414.06 236.591 2415.96 238.373 Q2417.88 240.132 2417.88 243.304 Q2417.88 246.915 2415.01 249.021 Q2412.16 251.128 2407.16 251.128 Q2405.08 251.128 2402.81 250.711 Q2400.56 250.317 2398.06 249.507 L2398.06 245.109 Q2400.42 246.336 2402.72 246.961 Q2405.01 247.563 2407.25 247.563 Q2410.26 247.563 2411.88 246.544 Q2413.5 245.503 2413.5 243.628 Q2413.5 241.892 2412.32 240.966 Q2411.16 240.04 2407.21 239.183 L2405.72 238.836 Q2401.77 238.003 2400.01 236.29 Q2398.25 234.554 2398.25 231.544 Q2398.25 227.887 2400.84 225.896 Q2403.43 223.906 2408.2 223.906 Q2410.56 223.906 2412.65 224.253 Q2414.73 224.6 2416.49 225.294 Z" fill="#000000" fill-rule="nonzero" fill-opacity="1" /><path clip-path="url(#clip530)" d="M2423.99 214.484 L2427.69 214.484 Q2431.16 219.947 2432.88 225.179 Q2434.61 230.41 2434.61 235.572 Q2434.61 240.757 2432.88 246.012 Q2431.16 251.266 2427.69 256.706 L2423.99 256.706 Q2427.07 251.405 2428.57 246.174 Q2430.1 240.919 2430.1 235.572 Q2430.1 230.225 2428.57 225.017 Q2427.07 219.808 2423.99 214.484 Z" fill="#000000" fill-rule="nonzero" fill-opacity="1" /><circle clip-path="url(#clip530)" cx="2096.09" cy="285.016" r="19.7486" fill="#ff0000" fill-rule="evenodd" fill-opacity="1" stroke="#000000" stroke-opacity="1" stroke-width="7.02171"/>
<path clip-path="url(#clip530)" d="M2208.74 271.579 L2208.74 284.565 L2214.61 284.565 Q2217.88 284.565 2219.66 282.875 Q2221.44 281.185 2221.44 278.06 Q2221.44 274.958 2219.66 273.269 Q2217.88 271.579 2214.61 271.579 L2208.74 271.579 M2204.06 267.736 L2214.61 267.736 Q2220.42 267.736 2223.39 270.375 Q2226.37 272.991 2226.37 278.06 Q2226.37 283.176 2223.39 285.792 Q2220.42 288.407 2214.61 288.407 L2208.74 288.407 L2208.74 302.296 L2204.06 302.296 L2204.06 267.736 Z" fill="#000000" fill-rule="nonzero" fill-opacity="1" /><path clip-path="url(#clip530)" d="M2246.65 280.352 Q2245.93 279.935 2245.08 279.75 Q2244.24 279.542 2243.23 279.542 Q2239.61 279.542 2237.67 281.903 Q2235.75 284.241 2235.75 288.639 L2235.75 302.296 L2231.47 302.296 L2231.47 276.371 L2235.75 276.371 L2235.75 280.398 Q2237.09 278.037 2239.24 276.903 Q2241.4 275.746 2244.48 275.746 Q2244.92 275.746 2245.45 275.815 Q2245.98 275.861 2246.63 275.977 L2246.65 280.352 Z" fill="#000000" fill-rule="nonzero" fill-opacity="1" /><path clip-path="url(#clip530)" d="M2272.25 288.269 L2272.25 290.352 L2252.67 290.352 Q2252.95 294.75 2255.31 297.065 Q2257.69 299.356 2261.93 299.356 Q2264.38 299.356 2266.67 298.755 Q2268.99 298.153 2271.26 296.949 L2271.26 300.977 Q2268.97 301.949 2266.56 302.458 Q2264.15 302.968 2261.67 302.968 Q2255.47 302.968 2251.84 299.356 Q2248.23 295.745 2248.23 289.588 Q2248.23 283.222 2251.65 279.495 Q2255.1 275.746 2260.93 275.746 Q2266.17 275.746 2269.2 279.125 Q2272.25 282.482 2272.25 288.269 M2267.99 287.019 Q2267.95 283.523 2266.03 281.44 Q2264.13 279.357 2260.98 279.357 Q2257.42 279.357 2255.26 281.37 Q2253.13 283.384 2252.81 287.042 L2267.99 287.019 Z" fill="#000000" fill-rule="nonzero" fill-opacity="1" /><path clip-path="url(#clip530)" d="M2296.3 280.306 L2296.3 266.278 L2300.56 266.278 L2300.56 302.296 L2296.3 302.296 L2296.3 298.407 Q2294.96 300.722 2292.9 301.856 Q2290.86 302.968 2287.99 302.968 Q2283.29 302.968 2280.33 299.218 Q2277.39 295.468 2277.39 289.357 Q2277.39 283.245 2280.33 279.495 Q2283.29 275.746 2287.99 275.746 Q2290.86 275.746 2292.9 276.88 Q2294.96 277.991 2296.3 280.306 M2281.79 289.357 Q2281.79 294.056 2283.71 296.741 Q2285.66 299.403 2289.04 299.403 Q2292.42 299.403 2294.36 296.741 Q2296.3 294.056 2296.3 289.357 Q2296.3 284.657 2294.36 281.995 Q2292.42 279.31 2289.04 279.31 Q2285.66 279.31 2283.71 281.995 Q2281.79 284.657 2281.79 289.357 Z" fill="#000000" fill-rule="nonzero" fill-opacity="1" /><path clip-path="url(#clip530)" d="M2321.12 289.264 Q2315.96 289.264 2313.97 290.444 Q2311.98 291.625 2311.98 294.472 Q2311.98 296.741 2313.46 298.083 Q2314.96 299.403 2317.53 299.403 Q2321.07 299.403 2323.2 296.903 Q2325.35 294.38 2325.35 290.213 L2325.35 289.264 L2321.12 289.264 M2329.61 287.505 L2329.61 302.296 L2325.35 302.296 L2325.35 298.361 Q2323.9 300.722 2321.72 301.856 Q2319.54 302.968 2316.4 302.968 Q2312.42 302.968 2310.05 300.745 Q2307.72 298.5 2307.72 294.75 Q2307.72 290.375 2310.63 288.153 Q2313.57 285.931 2319.38 285.931 L2325.35 285.931 L2325.35 285.514 Q2325.35 282.574 2323.41 280.977 Q2321.49 279.357 2317.99 279.357 Q2315.77 279.357 2313.67 279.889 Q2311.56 280.421 2309.61 281.486 L2309.61 277.551 Q2311.95 276.648 2314.15 276.208 Q2316.35 275.746 2318.43 275.746 Q2324.06 275.746 2326.84 278.662 Q2329.61 281.579 2329.61 287.505 Z" fill="#000000" fill-rule="nonzero" fill-opacity="1" /><path clip-path="url(#clip530)" d="M2342.6 269.009 L2342.6 276.371 L2351.37 276.371 L2351.37 279.681 L2342.6 279.681 L2342.6 293.755 Q2342.6 296.926 2343.46 297.829 Q2344.34 298.731 2347 298.731 L2351.37 298.731 L2351.37 302.296 L2347 302.296 Q2342.07 302.296 2340.19 300.468 Q2338.32 298.616 2338.32 293.755 L2338.32 279.681 L2335.19 279.681 L2335.19 276.371 L2338.32 276.371 L2338.32 269.009 L2342.6 269.009 Z" fill="#000000" fill-rule="nonzero" fill-opacity="1" /><path clip-path="url(#clip530)" d="M2367.02 279.357 Q2363.6 279.357 2361.6 282.042 Q2359.61 284.704 2359.61 289.357 Q2359.61 294.009 2361.58 296.694 Q2363.57 299.356 2367.02 299.356 Q2370.42 299.356 2372.41 296.671 Q2374.41 293.986 2374.41 289.357 Q2374.41 284.75 2372.41 282.065 Q2370.42 279.357 2367.02 279.357 M2367.02 275.746 Q2372.58 275.746 2375.75 279.357 Q2378.92 282.968 2378.92 289.357 Q2378.92 295.722 2375.75 299.356 Q2372.58 302.968 2367.02 302.968 Q2361.44 302.968 2358.27 299.356 Q2355.12 295.722 2355.12 289.357 Q2355.12 282.968 2358.27 279.357 Q2361.44 275.746 2367.02 275.746 Z" fill="#000000" fill-rule="nonzero" fill-opacity="1" /><path clip-path="url(#clip530)" d="M2401 280.352 Q2400.29 279.935 2399.43 279.75 Q2398.6 279.542 2397.58 279.542 Q2393.97 279.542 2392.02 281.903 Q2390.1 284.241 2390.1 288.639 L2390.1 302.296 L2385.82 302.296 L2385.82 276.371 L2390.1 276.371 L2390.1 280.398 Q2391.44 278.037 2393.6 276.903 Q2395.75 275.746 2398.83 275.746 Q2399.27 275.746 2399.8 275.815 Q2400.33 275.861 2400.98 275.977 L2401 280.352 Z" fill="#000000" fill-rule="nonzero" fill-opacity="1" /><path clip-path="url(#clip530)" d="M2430.77 266.324 Q2427.67 271.648 2426.16 276.857 Q2424.66 282.065 2424.66 287.412 Q2424.66 292.759 2426.16 298.014 Q2427.69 303.245 2430.77 308.546 L2427.07 308.546 Q2423.6 303.106 2421.86 297.852 Q2420.15 292.597 2420.15 287.412 Q2420.15 282.25 2421.86 277.019 Q2423.57 271.787 2427.07 266.324 L2430.77 266.324 Z" fill="#000000" fill-rule="nonzero" fill-opacity="1" /><path clip-path="url(#clip530)" d="M2449.08 279.357 Q2445.66 279.357 2443.66 282.042 Q2441.67 284.704 2441.67 289.357 Q2441.67 294.009 2443.64 296.694 Q2445.63 299.356 2449.08 299.356 Q2452.48 299.356 2454.47 296.671 Q2456.47 293.986 2456.47 289.357 Q2456.47 284.75 2454.47 282.065 Q2452.48 279.357 2449.08 279.357 M2449.08 275.746 Q2454.64 275.746 2457.81 279.357 Q2460.98 282.968 2460.98 289.357 Q2460.98 295.722 2457.81 299.356 Q2454.64 302.968 2449.08 302.968 Q2443.5 302.968 2440.33 299.356 Q2437.18 295.722 2437.18 289.357 Q2437.18 282.968 2440.33 279.357 Q2443.5 275.746 2449.08 275.746 Z" fill="#000000" fill-rule="nonzero" fill-opacity="1" /><path clip-path="url(#clip530)" d="M2486.65 289.357 Q2486.65 284.657 2484.71 281.995 Q2482.78 279.31 2479.4 279.31 Q2476.03 279.31 2474.08 281.995 Q2472.16 284.657 2472.16 289.357 Q2472.16 294.056 2474.08 296.741 Q2476.03 299.403 2479.4 299.403 Q2482.78 299.403 2484.71 296.741 Q2486.65 294.056 2486.65 289.357 M2472.16 280.306 Q2473.5 277.991 2475.54 276.88 Q2477.6 275.746 2480.45 275.746 Q2485.17 275.746 2488.11 279.495 Q2491.07 283.245 2491.07 289.357 Q2491.07 295.468 2488.11 299.218 Q2485.17 302.968 2480.45 302.968 Q2477.6 302.968 2475.54 301.856 Q2473.5 300.722 2472.16 298.407 L2472.16 302.296 L2467.88 302.296 L2467.88 266.278 L2472.16 266.278 L2472.16 280.306 Z" fill="#000000" fill-rule="nonzero" fill-opacity="1" /><path clip-path="url(#clip530)" d="M2514.66 277.134 L2514.66 281.162 Q2512.85 280.236 2510.91 279.773 Q2508.97 279.31 2506.88 279.31 Q2503.71 279.31 2502.11 280.283 Q2500.54 281.255 2500.54 283.199 Q2500.54 284.681 2501.67 285.537 Q2502.81 286.37 2506.23 287.134 L2507.69 287.458 Q2512.23 288.431 2514.13 290.213 Q2516.05 291.972 2516.05 295.144 Q2516.05 298.755 2513.18 300.861 Q2510.33 302.968 2505.33 302.968 Q2503.25 302.968 2500.98 302.551 Q2498.73 302.157 2496.23 301.347 L2496.23 296.949 Q2498.59 298.176 2500.89 298.801 Q2503.18 299.403 2505.42 299.403 Q2508.43 299.403 2510.05 298.384 Q2511.67 297.343 2511.67 295.468 Q2511.67 293.732 2510.49 292.806 Q2509.34 291.88 2505.38 291.023 L2503.9 290.676 Q2499.94 289.843 2498.18 288.13 Q2496.42 286.394 2496.42 283.384 Q2496.42 279.727 2499.01 277.736 Q2501.6 275.746 2506.37 275.746 Q2508.73 275.746 2510.82 276.093 Q2512.9 276.44 2514.66 277.134 Z" fill="#000000" fill-rule="nonzero" fill-opacity="1" /><path clip-path="url(#clip530)" d="M2522.16 266.324 L2525.86 266.324 Q2529.34 271.787 2531.05 277.019 Q2532.78 282.25 2532.78 287.412 Q2532.78 292.597 2531.05 297.852 Q2529.34 303.106 2525.86 308.546 L2522.16 308.546 Q2525.24 303.245 2526.74 298.014 Q2528.27 292.759 2528.27 287.412 Q2528.27 282.065 2526.74 276.857 Q2525.24 271.648 2522.16 266.324 Z" fill="#000000" fill-rule="nonzero" fill-opacity="1" /><polyline clip-path="url(#clip530)" style="stroke:#0000ff; stroke-linecap:round; stroke-linejoin:round; stroke-width:8; stroke-opacity:1; fill:none" stroke-dasharray="32, 20" points="2015.11,336.856 2177.07,336.856 "/>
<path clip-path="url(#clip530)" d="M2208.74 323.419 L2208.74 336.405 L2214.61 336.405 Q2217.88 336.405 2219.66 334.715 Q2221.44 333.025 2221.44 329.9 Q2221.44 326.798 2219.66 325.109 Q2217.88 323.419 2214.61 323.419 L2208.74 323.419 M2204.06 319.576 L2214.61 319.576 Q2220.42 319.576 2223.39 322.215 Q2226.37 324.831 2226.37 329.9 Q2226.37 335.016 2223.39 337.632 Q2220.42 340.247 2214.61 340.247 L2208.74 340.247 L2208.74 354.136 L2204.06 354.136 L2204.06 319.576 Z" fill="#000000" fill-rule="nonzero" fill-opacity="1" /><path clip-path="url(#clip530)" d="M2246.65 332.192 Q2245.93 331.775 2245.08 331.59 Q2244.24 331.382 2243.23 331.382 Q2239.61 331.382 2237.67 333.743 Q2235.75 336.081 2235.75 340.479 L2235.75 354.136 L2231.47 354.136 L2231.47 328.211 L2235.75 328.211 L2235.75 332.238 Q2237.09 329.877 2239.24 328.743 Q2241.4 327.586 2244.48 327.586 Q2244.92 327.586 2245.45 327.655 Q2245.98 327.701 2246.63 327.817 L2246.65 332.192 Z" fill="#000000" fill-rule="nonzero" fill-opacity="1" /><path clip-path="url(#clip530)" d="M2272.25 340.109 L2272.25 342.192 L2252.67 342.192 Q2252.95 346.59 2255.31 348.905 Q2257.69 351.196 2261.93 351.196 Q2264.38 351.196 2266.67 350.595 Q2268.99 349.993 2271.26 348.789 L2271.26 352.817 Q2268.97 353.789 2266.56 354.298 Q2264.15 354.808 2261.67 354.808 Q2255.47 354.808 2251.84 351.196 Q2248.23 347.585 2248.23 341.428 Q2248.23 335.062 2251.65 331.335 Q2255.1 327.586 2260.93 327.586 Q2266.17 327.586 2269.2 330.965 Q2272.25 334.322 2272.25 340.109 M2267.99 338.859 Q2267.95 335.363 2266.03 333.28 Q2264.13 331.197 2260.98 331.197 Q2257.42 331.197 2255.26 333.21 Q2253.13 335.224 2252.81 338.882 L2267.99 338.859 Z" fill="#000000" fill-rule="nonzero" fill-opacity="1" /><path clip-path="url(#clip530)" d="M2290.03 356.544 Q2288.23 361.173 2286.51 362.585 Q2284.8 363.997 2281.93 363.997 L2278.53 363.997 L2278.53 360.433 L2281.03 360.433 Q2282.79 360.433 2283.76 359.599 Q2284.73 358.766 2285.91 355.664 L2286.67 353.72 L2276.19 328.211 L2280.7 328.211 L2288.8 348.488 L2296.91 328.211 L2301.42 328.211 L2290.03 356.544 Z" fill="#000000" fill-rule="nonzero" fill-opacity="1" /><path clip-path="url(#clip530)" d="M2332.6 318.164 Q2329.5 323.488 2327.99 328.697 Q2326.49 333.905 2326.49 339.252 Q2326.49 344.599 2327.99 349.854 Q2329.52 355.085 2332.6 360.386 L2328.9 360.386 Q2325.42 354.946 2323.69 349.692 Q2321.98 344.437 2321.98 339.252 Q2321.98 334.09 2323.69 328.859 Q2325.4 323.627 2328.9 318.164 L2332.6 318.164 Z" fill="#000000" fill-rule="nonzero" fill-opacity="1" /><path clip-path="url(#clip530)" d="M2345.08 320.849 L2345.08 328.211 L2353.85 328.211 L2353.85 331.521 L2345.08 331.521 L2345.08 345.595 Q2345.08 348.766 2345.93 349.669 Q2346.81 350.571 2349.48 350.571 L2353.85 350.571 L2353.85 354.136 L2349.48 354.136 Q2344.54 354.136 2342.67 352.308 Q2340.79 350.456 2340.79 345.595 L2340.79 331.521 L2337.67 331.521 L2337.67 328.211 L2340.79 328.211 L2340.79 320.849 L2345.08 320.849 Z" fill="#000000" fill-rule="nonzero" fill-opacity="1" /><path clip-path="url(#clip530)" d="M2374.47 332.192 Q2373.76 331.775 2372.9 331.59 Q2372.07 331.382 2371.05 331.382 Q2367.44 331.382 2365.49 333.743 Q2363.57 336.081 2363.57 340.479 L2363.57 354.136 L2359.29 354.136 L2359.29 328.211 L2363.57 328.211 L2363.57 332.238 Q2364.91 329.877 2367.07 328.743 Q2369.22 327.586 2372.3 327.586 Q2372.74 327.586 2373.27 327.655 Q2373.8 327.701 2374.45 327.817 L2374.47 332.192 Z" fill="#000000" fill-rule="nonzero" fill-opacity="1" /><path clip-path="url(#clip530)" d="M2378.5 343.905 L2378.5 328.211 L2382.76 328.211 L2382.76 343.743 Q2382.76 347.423 2384.2 349.275 Q2385.63 351.104 2388.5 351.104 Q2391.95 351.104 2393.94 348.905 Q2395.96 346.706 2395.96 342.909 L2395.96 328.211 L2400.22 328.211 L2400.22 354.136 L2395.96 354.136 L2395.96 350.155 Q2394.41 352.516 2392.35 353.673 Q2390.31 354.808 2387.6 354.808 Q2383.13 354.808 2380.82 352.03 Q2378.5 349.252 2378.5 343.905 M2389.22 327.586 L2389.22 327.586 Z" fill="#000000" fill-rule="nonzero" fill-opacity="1" /><path clip-path="url(#clip530)" d="M2431.16 340.109 L2431.16 342.192 L2411.58 342.192 Q2411.86 346.59 2414.22 348.905 Q2416.6 351.196 2420.84 351.196 Q2423.29 351.196 2425.59 350.595 Q2427.9 349.993 2430.17 348.789 L2430.17 352.817 Q2427.88 353.789 2425.47 354.298 Q2423.06 354.808 2420.59 354.808 Q2414.38 354.808 2410.75 351.196 Q2407.14 347.585 2407.14 341.428 Q2407.14 335.062 2410.56 331.335 Q2414.01 327.586 2419.85 327.586 Q2425.08 327.586 2428.11 330.965 Q2431.16 334.322 2431.16 340.109 M2426.91 338.859 Q2426.86 335.363 2424.94 333.28 Q2423.04 331.197 2419.89 331.197 Q2416.33 331.197 2414.17 333.21 Q2412.04 335.224 2411.72 338.882 L2426.91 338.859 Z" fill="#000000" fill-rule="nonzero" fill-opacity="1" /><path clip-path="url(#clip530)" d="M2437.48 318.164 L2441.19 318.164 Q2444.66 323.627 2446.37 328.859 Q2448.11 334.09 2448.11 339.252 Q2448.11 344.437 2446.37 349.692 Q2444.66 354.946 2441.19 360.386 L2437.48 360.386 Q2440.56 355.085 2442.07 349.854 Q2443.59 344.599 2443.59 339.252 Q2443.59 333.905 2442.07 328.697 Q2440.56 323.488 2437.48 318.164 Z" fill="#000000" fill-rule="nonzero" fill-opacity="1" /><polyline clip-path="url(#clip530)" style="stroke:#ff0000; stroke-linecap:round; stroke-linejoin:round; stroke-width:8; stroke-opacity:1; fill:none" stroke-dasharray="32, 20" points="2015.11,388.696 2177.07,388.696 "/>
<path clip-path="url(#clip530)" d="M2208.74 375.259 L2208.74 388.245 L2214.61 388.245 Q2217.88 388.245 2219.66 386.555 Q2221.44 384.865 2221.44 381.74 Q2221.44 378.638 2219.66 376.949 Q2217.88 375.259 2214.61 375.259 L2208.74 375.259 M2204.06 371.416 L2214.61 371.416 Q2220.42 371.416 2223.39 374.055 Q2226.37 376.671 2226.37 381.74 Q2226.37 386.856 2223.39 389.472 Q2220.42 392.087 2214.61 392.087 L2208.74 392.087 L2208.74 405.976 L2204.06 405.976 L2204.06 371.416 Z" fill="#000000" fill-rule="nonzero" fill-opacity="1" /><path clip-path="url(#clip530)" d="M2246.65 384.032 Q2245.93 383.615 2245.08 383.43 Q2244.24 383.222 2243.23 383.222 Q2239.61 383.222 2237.67 385.583 Q2235.75 387.921 2235.75 392.319 L2235.75 405.976 L2231.47 405.976 L2231.47 380.051 L2235.75 380.051 L2235.75 384.078 Q2237.09 381.717 2239.24 380.583 Q2241.4 379.426 2244.48 379.426 Q2244.92 379.426 2245.45 379.495 Q2245.98 379.541 2246.63 379.657 L2246.65 384.032 Z" fill="#000000" fill-rule="nonzero" fill-opacity="1" /><path clip-path="url(#clip530)" d="M2272.25 391.949 L2272.25 394.032 L2252.67 394.032 Q2252.95 398.43 2255.31 400.745 Q2257.69 403.036 2261.93 403.036 Q2264.38 403.036 2266.67 402.435 Q2268.99 401.833 2271.26 400.629 L2271.26 404.657 Q2268.97 405.629 2266.56 406.138 Q2264.15 406.648 2261.67 406.648 Q2255.47 406.648 2251.84 403.036 Q2248.23 399.425 2248.23 393.268 Q2248.23 386.902 2251.65 383.175 Q2255.1 379.426 2260.93 379.426 Q2266.17 379.426 2269.2 382.805 Q2272.25 386.162 2272.25 391.949 M2267.99 390.699 Q2267.95 387.203 2266.03 385.12 Q2264.13 383.037 2260.98 383.037 Q2257.42 383.037 2255.26 385.05 Q2253.13 387.064 2252.81 390.722 L2267.99 390.699 Z" fill="#000000" fill-rule="nonzero" fill-opacity="1" /><path clip-path="url(#clip530)" d="M2296.3 383.986 L2296.3 369.958 L2300.56 369.958 L2300.56 405.976 L2296.3 405.976 L2296.3 402.087 Q2294.96 404.402 2292.9 405.536 Q2290.86 406.648 2287.99 406.648 Q2283.29 406.648 2280.33 402.898 Q2277.39 399.148 2277.39 393.037 Q2277.39 386.925 2280.33 383.175 Q2283.29 379.426 2287.99 379.426 Q2290.86 379.426 2292.9 380.56 Q2294.96 381.671 2296.3 383.986 M2281.79 393.037 Q2281.79 397.736 2283.71 400.421 Q2285.66 403.083 2289.04 403.083 Q2292.42 403.083 2294.36 400.421 Q2296.3 397.736 2296.3 393.037 Q2296.3 388.337 2294.36 385.675 Q2292.42 382.99 2289.04 382.99 Q2285.66 382.99 2283.71 385.675 Q2281.79 388.337 2281.79 393.037 Z" fill="#000000" fill-rule="nonzero" fill-opacity="1" /><path clip-path="url(#clip530)" d="M2334.64 370.004 Q2331.54 375.328 2330.03 380.537 Q2328.53 385.745 2328.53 391.092 Q2328.53 396.439 2330.03 401.694 Q2331.56 406.925 2334.64 412.226 L2330.93 412.226 Q2327.46 406.786 2325.73 401.532 Q2324.01 396.277 2324.01 391.092 Q2324.01 385.93 2325.73 380.699 Q2327.44 375.467 2330.93 370.004 L2334.64 370.004 Z" fill="#000000" fill-rule="nonzero" fill-opacity="1" /><path clip-path="url(#clip530)" d="M2347.11 372.689 L2347.11 380.051 L2355.89 380.051 L2355.89 383.361 L2347.11 383.361 L2347.11 397.435 Q2347.11 400.606 2347.97 401.509 Q2348.85 402.411 2351.51 402.411 L2355.89 402.411 L2355.89 405.976 L2351.51 405.976 Q2346.58 405.976 2344.71 404.148 Q2342.83 402.296 2342.83 397.435 L2342.83 383.361 L2339.71 383.361 L2339.71 380.051 L2342.83 380.051 L2342.83 372.689 L2347.11 372.689 Z" fill="#000000" fill-rule="nonzero" fill-opacity="1" /><path clip-path="url(#clip530)" d="M2376.51 384.032 Q2375.79 383.615 2374.94 383.43 Q2374.1 383.222 2373.09 383.222 Q2369.48 383.222 2367.53 385.583 Q2365.61 387.921 2365.61 392.319 L2365.61 405.976 L2361.33 405.976 L2361.33 380.051 L2365.61 380.051 L2365.61 384.078 Q2366.95 381.717 2369.1 380.583 Q2371.26 379.426 2374.34 379.426 Q2374.78 379.426 2375.31 379.495 Q2375.84 379.541 2376.49 379.657 L2376.51 384.032 Z" fill="#000000" fill-rule="nonzero" fill-opacity="1" /><path clip-path="url(#clip530)" d="M2380.54 395.745 L2380.54 380.051 L2384.8 380.051 L2384.8 395.583 Q2384.8 399.263 2386.23 401.115 Q2387.67 402.944 2390.54 402.944 Q2393.99 402.944 2395.98 400.745 Q2397.99 398.546 2397.99 394.749 L2397.99 380.051 L2402.25 380.051 L2402.25 405.976 L2397.99 405.976 L2397.99 401.995 Q2396.44 404.356 2394.38 405.513 Q2392.35 406.648 2389.64 406.648 Q2385.17 406.648 2382.85 403.87 Q2380.54 401.092 2380.54 395.745 M2391.26 379.426 L2391.26 379.426 Z" fill="#000000" fill-rule="nonzero" fill-opacity="1" /><path clip-path="url(#clip530)" d="M2433.2 391.949 L2433.2 394.032 L2413.62 394.032 Q2413.9 398.43 2416.26 400.745 Q2418.64 403.036 2422.88 403.036 Q2425.33 403.036 2427.62 402.435 Q2429.94 401.833 2432.21 400.629 L2432.21 404.657 Q2429.91 405.629 2427.51 406.138 Q2425.1 406.648 2422.62 406.648 Q2416.42 406.648 2412.78 403.036 Q2409.17 399.425 2409.17 393.268 Q2409.17 386.902 2412.6 383.175 Q2416.05 379.426 2421.88 379.426 Q2427.11 379.426 2430.15 382.805 Q2433.2 386.162 2433.2 391.949 M2428.94 390.699 Q2428.9 387.203 2426.97 385.12 Q2425.08 383.037 2421.93 383.037 Q2418.36 383.037 2416.21 385.05 Q2414.08 387.064 2413.76 390.722 L2428.94 390.699 Z" fill="#000000" fill-rule="nonzero" fill-opacity="1" /><path clip-path="url(#clip530)" d="M2439.52 370.004 L2443.22 370.004 Q2446.7 375.467 2448.41 380.699 Q2450.15 385.93 2450.15 391.092 Q2450.15 396.277 2448.41 401.532 Q2446.7 406.786 2443.22 412.226 L2439.52 412.226 Q2442.6 406.925 2444.1 401.694 Q2445.63 396.439 2445.63 391.092 Q2445.63 385.745 2444.1 380.537 Q2442.6 375.328 2439.52 370.004 Z" fill="#000000" fill-rule="nonzero" fill-opacity="1" /></svg>
