<?xml version="1.0" encoding="utf-8"?>
<svg xmlns="http://www.w3.org/2000/svg" xmlns:xlink="http://www.w3.org/1999/xlink" width="672" height="480" viewBox="0 0 2688 1920">
<defs>
  <clipPath id="clip070">
    <rect x="0" y="0" width="2688" height="1920"/>
  </clipPath>
</defs>
<path clip-path="url(#clip070)" d="M0 1920 L2688 1920 L2688 -4.26326e-14 L0 -4.26326e-14  Z" fill="#ffffff" fill-rule="evenodd" fill-opacity="1"/>
<defs>
  <clipPath id="clip071">
    <rect x="226" y="127" width="2416" height="1607"/>
  </clipPath>
</defs>
<path clip-path="url(#clip070)" d="M226.141 1734.12 L2640.76 1734.12 L2640.76 127.792 L226.141 127.792  Z" fill="#ffffff" fill-rule="evenodd" fill-opacity="1"/>
<polyline clip-path="url(#clip071)" style="stroke:#000000; stroke-linecap:round; stroke-linejoin:round; stroke-width:2; stroke-opacity:0.1; fill:none" points="636.17,1734.12 636.17,127.792 "/>
<polyline clip-path="url(#clip071)" style="stroke:#000000; stroke-linecap:round; stroke-linejoin:round; stroke-width:2; stroke-opacity:0.1; fill:none" points="1091.76,1734.12 1091.76,127.792 "/>
<polyline clip-path="url(#clip071)" style="stroke:#000000; stroke-linecap:round; stroke-linejoin:round; stroke-width:2; stroke-opacity:0.1; fill:none" points="1547.35,1734.12 1547.35,127.792 "/>
<polyline clip-path="url(#clip071)" style="stroke:#000000; stroke-linecap:round; stroke-linejoin:round; stroke-width:2; stroke-opacity:0.1; fill:none" points="2002.93,1734.12 2002.93,127.792 "/>
<polyline clip-path="url(#clip071)" style="stroke:#000000; stroke-linecap:round; stroke-linejoin:round; stroke-width:2; stroke-opacity:0.1; fill:none" points="2458.52,1734.12 2458.52,127.792 "/>
<polyline clip-path="url(#clip071)" style="stroke:#000000; stroke-linecap:round; stroke-linejoin:round; stroke-width:2; stroke-opacity:0.1; fill:none" points="226.141,1512.44 2640.76,1512.44 "/>
<polyline clip-path="url(#clip071)" style="stroke:#000000; stroke-linecap:round; stroke-linejoin:round; stroke-width:2; stroke-opacity:0.1; fill:none" points="226.141,1250.79 2640.76,1250.79 "/>
<polyline clip-path="url(#clip071)" style="stroke:#000000; stroke-linecap:round; stroke-linejoin:round; stroke-width:2; stroke-opacity:0.1; fill:none" points="226.141,989.139 2640.76,989.139 "/>
<polyline clip-path="url(#clip071)" style="stroke:#000000; stroke-linecap:round; stroke-linejoin:round; stroke-width:2; stroke-opacity:0.1; fill:none" points="226.141,727.486 2640.76,727.486 "/>
<polyline clip-path="url(#clip071)" style="stroke:#000000; stroke-linecap:round; stroke-linejoin:round; stroke-width:2; stroke-opacity:0.1; fill:none" points="226.141,465.833 2640.76,465.833 "/>
<polyline clip-path="url(#clip071)" style="stroke:#000000; stroke-linecap:round; stroke-linejoin:round; stroke-width:2; stroke-opacity:0.1; fill:none" points="226.141,204.18 2640.76,204.18 "/>
<polyline clip-path="url(#clip070)" style="stroke:#000000; stroke-linecap:round; stroke-linejoin:round; stroke-width:4; stroke-opacity:1; fill:none" points="226.141,1734.12 2640.76,1734.12 "/>
<polyline clip-path="url(#clip070)" style="stroke:#000000; stroke-linecap:round; stroke-linejoin:round; stroke-width:4; stroke-opacity:1; fill:none" points="636.17,1734.12 636.17,1715.22 "/>
<polyline clip-path="url(#clip070)" style="stroke:#000000; stroke-linecap:round; stroke-linejoin:round; stroke-width:4; stroke-opacity:1; fill:none" points="1091.76,1734.12 1091.76,1715.22 "/>
<polyline clip-path="url(#clip070)" style="stroke:#000000; stroke-linecap:round; stroke-linejoin:round; stroke-width:4; stroke-opacity:1; fill:none" points="1547.35,1734.12 1547.35,1715.22 "/>
<polyline clip-path="url(#clip070)" style="stroke:#000000; stroke-linecap:round; stroke-linejoin:round; stroke-width:4; stroke-opacity:1; fill:none" points="2002.93,1734.12 2002.93,1715.22 "/>
<polyline clip-path="url(#clip070)" style="stroke:#000000; stroke-linecap:round; stroke-linejoin:round; stroke-width:4; stroke-opacity:1; fill:none" points="2458.52,1734.12 2458.52,1715.22 "/>
<path clip-path="url(#clip070)" d="M630.822 1794.89 L647.142 1794.89 L647.142 1798.82 L625.197 1798.82 L625.197 1794.89 Q627.859 1792.13 632.443 1787.5 Q637.049 1782.85 638.23 1781.51 Q640.475 1778.98 641.355 1777.25 Q642.258 1775.49 642.258 1773.8 Q642.258 1771.04 640.313 1769.31 Q638.392 1767.57 635.29 1767.57 Q633.091 1767.57 630.637 1768.34 Q628.207 1769.1 625.429 1770.65 L625.429 1765.93 Q628.253 1764.79 630.707 1764.21 Q633.16 1763.64 635.197 1763.64 Q640.568 1763.64 643.762 1766.32 Q646.957 1769.01 646.957 1773.5 Q646.957 1775.63 646.146 1777.55 Q645.359 1779.45 643.253 1782.04 Q642.674 1782.71 639.572 1785.93 Q636.47 1789.12 630.822 1794.89 Z" fill="#000000" fill-rule="nonzero" fill-opacity="1" /><path clip-path="url(#clip070)" d="M1094.77 1768.34 L1082.96 1786.78 L1094.77 1786.78 L1094.77 1768.34 M1093.54 1764.26 L1099.42 1764.26 L1099.42 1786.78 L1104.35 1786.78 L1104.35 1790.67 L1099.42 1790.67 L1099.42 1798.82 L1094.77 1798.82 L1094.77 1790.67 L1079.16 1790.67 L1079.16 1786.16 L1093.54 1764.26 Z" fill="#000000" fill-rule="nonzero" fill-opacity="1" /><path clip-path="url(#clip070)" d="M1547.75 1779.68 Q1544.6 1779.68 1542.75 1781.83 Q1540.92 1783.98 1540.92 1787.73 Q1540.92 1791.46 1542.75 1793.64 Q1544.6 1795.79 1547.75 1795.79 Q1550.9 1795.79 1552.73 1793.64 Q1554.58 1791.46 1554.58 1787.73 Q1554.58 1783.98 1552.73 1781.83 Q1550.9 1779.68 1547.75 1779.68 M1557.03 1765.02 L1557.03 1769.28 Q1555.27 1768.45 1553.47 1768.01 Q1551.69 1767.57 1549.93 1767.57 Q1545.3 1767.57 1542.84 1770.7 Q1540.41 1773.82 1540.07 1780.14 Q1541.43 1778.13 1543.49 1777.06 Q1545.55 1775.97 1548.03 1775.97 Q1553.24 1775.97 1556.25 1779.15 Q1559.28 1782.29 1559.28 1787.73 Q1559.28 1793.06 1556.13 1796.27 Q1552.98 1799.49 1547.75 1799.49 Q1541.75 1799.49 1538.58 1794.91 Q1535.41 1790.3 1535.41 1781.58 Q1535.41 1773.38 1539.3 1768.52 Q1543.19 1763.64 1549.74 1763.64 Q1551.5 1763.64 1553.28 1763.98 Q1555.09 1764.33 1557.03 1765.02 Z" fill="#000000" fill-rule="nonzero" fill-opacity="1" /><path clip-path="url(#clip070)" d="M2002.93 1782.41 Q1999.6 1782.41 1997.68 1784.19 Q1995.78 1785.97 1995.78 1789.1 Q1995.78 1792.22 1997.68 1794.01 Q1999.6 1795.79 2002.93 1795.79 Q2006.27 1795.79 2008.19 1794.01 Q2010.11 1792.2 2010.11 1789.1 Q2010.11 1785.97 2008.19 1784.19 Q2006.29 1782.41 2002.93 1782.41 M1998.26 1780.42 Q1995.25 1779.68 1993.56 1777.62 Q1991.89 1775.56 1991.89 1772.59 Q1991.89 1768.45 1994.83 1766.04 Q1997.79 1763.64 2002.93 1763.64 Q2008.09 1763.64 2011.03 1766.04 Q2013.97 1768.45 2013.97 1772.59 Q2013.97 1775.56 2012.28 1777.62 Q2010.62 1779.68 2007.63 1780.42 Q2011.01 1781.21 2012.89 1783.5 Q2014.78 1785.79 2014.78 1789.1 Q2014.78 1794.12 2011.71 1796.81 Q2008.65 1799.49 2002.93 1799.49 Q1997.22 1799.49 1994.14 1796.81 Q1991.08 1794.12 1991.08 1789.1 Q1991.08 1785.79 1992.98 1783.5 Q1994.88 1781.21 1998.26 1780.42 M1996.54 1773.03 Q1996.54 1775.72 1998.21 1777.22 Q1999.9 1778.73 2002.93 1778.73 Q2005.94 1778.73 2007.63 1777.22 Q2009.34 1775.72 2009.34 1773.03 Q2009.34 1770.35 2007.63 1768.84 Q2005.94 1767.34 2002.93 1767.34 Q1999.9 1767.34 1998.21 1768.84 Q1996.54 1770.35 1996.54 1773.03 Z" fill="#000000" fill-rule="nonzero" fill-opacity="1" /><path clip-path="url(#clip070)" d="M2433.21 1794.89 L2440.85 1794.89 L2440.85 1768.52 L2432.54 1770.19 L2432.54 1765.93 L2440.8 1764.26 L2445.48 1764.26 L2445.48 1794.89 L2453.12 1794.89 L2453.12 1798.82 L2433.21 1798.82 L2433.21 1794.89 Z" fill="#000000" fill-rule="nonzero" fill-opacity="1" /><path clip-path="url(#clip070)" d="M2472.56 1767.34 Q2468.95 1767.34 2467.12 1770.9 Q2465.31 1774.45 2465.31 1781.58 Q2465.31 1788.68 2467.12 1792.25 Q2468.95 1795.79 2472.56 1795.79 Q2476.19 1795.79 2478 1792.25 Q2479.83 1788.68 2479.83 1781.58 Q2479.83 1774.45 2478 1770.9 Q2476.19 1767.34 2472.56 1767.34 M2472.56 1763.64 Q2478.37 1763.64 2481.43 1768.24 Q2484.5 1772.83 2484.5 1781.58 Q2484.5 1790.3 2481.43 1794.91 Q2478.37 1799.49 2472.56 1799.49 Q2466.75 1799.49 2463.67 1794.91 Q2460.62 1790.3 2460.62 1781.58 Q2460.62 1772.83 2463.67 1768.24 Q2466.75 1763.64 2472.56 1763.64 Z" fill="#000000" fill-rule="nonzero" fill-opacity="1" /><path clip-path="url(#clip070)" d="M1240.3 1841.06 L1240.3 1858.92 L1248.38 1858.92 Q1252.87 1858.92 1255.32 1856.6 Q1257.77 1854.27 1257.77 1849.98 Q1257.77 1845.71 1255.32 1843.39 Q1252.87 1841.06 1248.38 1841.06 L1240.3 1841.06 M1233.87 1835.78 L1248.38 1835.78 Q1256.37 1835.78 1260.44 1839.41 Q1264.55 1843.01 1264.55 1849.98 Q1264.55 1857.01 1260.44 1860.61 Q1256.37 1864.2 1248.38 1864.2 L1240.3 1864.2 L1240.3 1883.3 L1233.87 1883.3 L1233.87 1835.78 Z" fill="#000000" fill-rule="nonzero" fill-opacity="1" /><path clip-path="url(#clip070)" d="M1284.41 1851.76 Q1279.7 1851.76 1276.96 1855.45 Q1274.23 1859.11 1274.23 1865.51 Q1274.23 1871.91 1276.93 1875.6 Q1279.67 1879.26 1284.41 1879.26 Q1289.09 1879.26 1291.83 1875.57 Q1294.56 1871.87 1294.56 1865.51 Q1294.56 1859.17 1291.83 1855.48 Q1289.09 1851.76 1284.41 1851.76 M1284.41 1846.79 Q1292.05 1846.79 1296.41 1851.76 Q1300.77 1856.72 1300.77 1865.51 Q1300.77 1874.26 1296.41 1879.26 Q1292.05 1884.22 1284.41 1884.22 Q1276.74 1884.22 1272.38 1879.26 Q1268.05 1874.26 1268.05 1865.51 Q1268.05 1856.72 1272.38 1851.76 Q1276.74 1846.79 1284.41 1846.79 Z" fill="#000000" fill-rule="nonzero" fill-opacity="1" /><path clip-path="url(#clip070)" d="M1316.14 1877.95 L1316.14 1896.86 L1310.26 1896.86 L1310.26 1847.65 L1316.14 1847.65 L1316.14 1853.06 Q1317.99 1849.88 1320.79 1848.35 Q1323.62 1846.79 1327.54 1846.79 Q1334.03 1846.79 1338.07 1851.95 Q1342.15 1857.11 1342.15 1865.51 Q1342.15 1873.91 1338.07 1879.07 Q1334.03 1884.22 1327.54 1884.22 Q1323.62 1884.22 1320.79 1882.7 Q1317.99 1881.14 1316.14 1877.95 M1336.07 1865.51 Q1336.07 1859.05 1333.4 1855.39 Q1330.75 1851.7 1326.11 1851.7 Q1321.46 1851.7 1318.79 1855.39 Q1316.14 1859.05 1316.14 1865.51 Q1316.14 1871.97 1318.79 1875.66 Q1321.46 1879.32 1326.11 1879.32 Q1330.75 1879.32 1333.4 1875.66 Q1336.07 1871.97 1336.07 1865.51 Z" fill="#000000" fill-rule="nonzero" fill-opacity="1" /><path clip-path="url(#clip070)" d="M1351.25 1869.23 L1351.25 1847.65 L1357.11 1847.65 L1357.11 1869.01 Q1357.11 1874.07 1359.08 1876.62 Q1361.05 1879.13 1365 1879.13 Q1369.74 1879.13 1372.48 1876.11 Q1375.25 1873.08 1375.25 1867.86 L1375.25 1847.65 L1381.11 1847.65 L1381.11 1883.3 L1375.25 1883.3 L1375.25 1877.83 Q1373.12 1881.07 1370.28 1882.66 Q1367.48 1884.22 1363.76 1884.22 Q1357.62 1884.22 1354.43 1880.4 Q1351.25 1876.59 1351.25 1869.23 M1365.99 1846.79 L1365.99 1846.79 Z" fill="#000000" fill-rule="nonzero" fill-opacity="1" /><path clip-path="url(#clip070)" d="M1393.17 1833.78 L1399.03 1833.78 L1399.03 1883.3 L1393.17 1883.3 L1393.17 1833.78 Z" fill="#000000" fill-rule="nonzero" fill-opacity="1" /><path clip-path="url(#clip070)" d="M1427.48 1865.38 Q1420.38 1865.38 1417.65 1867 Q1414.91 1868.63 1414.91 1872.54 Q1414.91 1875.66 1416.95 1877.51 Q1419.01 1879.32 1422.55 1879.32 Q1427.42 1879.32 1430.34 1875.88 Q1433.31 1872.42 1433.31 1866.69 L1433.31 1865.38 L1427.48 1865.38 M1439.16 1862.96 L1439.16 1883.3 L1433.31 1883.3 L1433.31 1877.89 Q1431.3 1881.14 1428.31 1882.7 Q1425.32 1884.22 1420.99 1884.22 Q1415.51 1884.22 1412.27 1881.17 Q1409.05 1878.08 1409.05 1872.92 Q1409.05 1866.91 1413.06 1863.85 Q1417.1 1860.8 1425.09 1860.8 L1433.31 1860.8 L1433.31 1860.23 Q1433.31 1856.18 1430.63 1853.99 Q1427.99 1851.76 1423.18 1851.76 Q1420.13 1851.76 1417.23 1852.49 Q1414.34 1853.22 1411.66 1854.69 L1411.66 1849.28 Q1414.88 1848.03 1417.9 1847.43 Q1420.92 1846.79 1423.79 1846.79 Q1431.52 1846.79 1435.34 1850.8 Q1439.16 1854.81 1439.16 1862.96 Z" fill="#000000" fill-rule="nonzero" fill-opacity="1" /><path clip-path="url(#clip070)" d="M1457.02 1837.53 L1457.02 1847.65 L1469.08 1847.65 L1469.08 1852.2 L1457.02 1852.2 L1457.02 1871.56 Q1457.02 1875.92 1458.19 1877.16 Q1459.4 1878.4 1463.06 1878.4 L1469.08 1878.4 L1469.08 1883.3 L1463.06 1883.3 Q1456.29 1883.3 1453.71 1880.79 Q1451.13 1878.24 1451.13 1871.56 L1451.13 1852.2 L1446.83 1852.2 L1446.83 1847.65 L1451.13 1847.65 L1451.13 1837.53 L1457.02 1837.53 Z" fill="#000000" fill-rule="nonzero" fill-opacity="1" /><path clip-path="url(#clip070)" d="M1476.78 1847.65 L1482.64 1847.65 L1482.64 1883.3 L1476.78 1883.3 L1476.78 1847.65 M1476.78 1833.78 L1482.64 1833.78 L1482.64 1841.19 L1476.78 1841.19 L1476.78 1833.78 Z" fill="#000000" fill-rule="nonzero" fill-opacity="1" /><path clip-path="url(#clip070)" d="M1508.71 1851.76 Q1504 1851.76 1501.26 1855.45 Q1498.52 1859.11 1498.52 1865.51 Q1498.52 1871.91 1501.23 1875.6 Q1503.96 1879.26 1508.71 1879.26 Q1513.39 1879.26 1516.12 1875.57 Q1518.86 1871.87 1518.86 1865.51 Q1518.86 1859.17 1516.12 1855.48 Q1513.39 1851.76 1508.71 1851.76 M1508.71 1846.79 Q1516.35 1846.79 1520.71 1851.76 Q1525.07 1856.72 1525.07 1865.51 Q1525.07 1874.26 1520.71 1879.26 Q1516.35 1884.22 1508.71 1884.22 Q1501.04 1884.22 1496.68 1879.26 Q1492.35 1874.26 1492.35 1865.51 Q1492.35 1856.72 1496.68 1851.76 Q1501.04 1846.79 1508.71 1846.79 Z" fill="#000000" fill-rule="nonzero" fill-opacity="1" /><path clip-path="url(#clip070)" d="M1564.41 1861.78 L1564.41 1883.3 L1558.55 1883.3 L1558.55 1861.98 Q1558.55 1856.92 1556.58 1854.4 Q1554.6 1851.89 1550.66 1851.89 Q1545.91 1851.89 1543.18 1854.91 Q1540.44 1857.93 1540.44 1863.15 L1540.44 1883.3 L1534.55 1883.3 L1534.55 1847.65 L1540.44 1847.65 L1540.44 1853.19 Q1542.54 1849.98 1545.37 1848.39 Q1548.24 1846.79 1551.96 1846.79 Q1558.1 1846.79 1561.26 1850.61 Q1564.41 1854.4 1564.41 1861.78 Z" fill="#000000" fill-rule="nonzero" fill-opacity="1" /><path clip-path="url(#clip070)" d="M1597.06 1835.78 L1605.72 1835.78 L1626.79 1875.53 L1626.79 1835.78 L1633.03 1835.78 L1633.03 1883.3 L1624.37 1883.3 L1603.3 1843.55 L1603.3 1883.3 L1597.06 1883.3 L1597.06 1835.78 Z" fill="#000000" fill-rule="nonzero" fill-opacity="1" /><polyline clip-path="url(#clip070)" style="stroke:#000000; stroke-linecap:round; stroke-linejoin:round; stroke-width:4; stroke-opacity:1; fill:none" points="226.141,1734.12 226.141,127.792 "/>
<polyline clip-path="url(#clip070)" style="stroke:#000000; stroke-linecap:round; stroke-linejoin:round; stroke-width:4; stroke-opacity:1; fill:none" points="226.141,1512.44 245.038,1512.44 "/>
<polyline clip-path="url(#clip070)" style="stroke:#000000; stroke-linecap:round; stroke-linejoin:round; stroke-width:4; stroke-opacity:1; fill:none" points="226.141,1250.79 245.038,1250.79 "/>
<polyline clip-path="url(#clip070)" style="stroke:#000000; stroke-linecap:round; stroke-linejoin:round; stroke-width:4; stroke-opacity:1; fill:none" points="226.141,989.139 245.038,989.139 "/>
<polyline clip-path="url(#clip070)" style="stroke:#000000; stroke-linecap:round; stroke-linejoin:round; stroke-width:4; stroke-opacity:1; fill:none" points="226.141,727.486 245.038,727.486 "/>
<polyline clip-path="url(#clip070)" style="stroke:#000000; stroke-linecap:round; stroke-linejoin:round; stroke-width:4; stroke-opacity:1; fill:none" points="226.141,465.833 245.038,465.833 "/>
<polyline clip-path="url(#clip070)" style="stroke:#000000; stroke-linecap:round; stroke-linejoin:round; stroke-width:4; stroke-opacity:1; fill:none" points="226.141,204.18 245.038,204.18 "/>
<path clip-path="url(#clip070)" d="M128.645 1498.24 Q125.034 1498.24 123.205 1501.81 Q121.4 1505.35 121.4 1512.48 Q121.4 1519.59 123.205 1523.15 Q125.034 1526.69 128.645 1526.69 Q132.279 1526.69 134.085 1523.15 Q135.913 1519.59 135.913 1512.48 Q135.913 1505.35 134.085 1501.81 Q132.279 1498.24 128.645 1498.24 M128.645 1494.54 Q134.455 1494.54 137.511 1499.15 Q140.589 1503.73 140.589 1512.48 Q140.589 1521.21 137.511 1525.81 Q134.455 1530.4 128.645 1530.4 Q122.835 1530.4 119.756 1525.81 Q116.701 1521.21 116.701 1512.48 Q116.701 1503.73 119.756 1499.15 Q122.835 1494.54 128.645 1494.54 Z" fill="#000000" fill-rule="nonzero" fill-opacity="1" /><path clip-path="url(#clip070)" d="M148.807 1523.84 L153.691 1523.84 L153.691 1529.72 L148.807 1529.72 L148.807 1523.84 Z" fill="#000000" fill-rule="nonzero" fill-opacity="1" /><path clip-path="url(#clip070)" d="M173.876 1498.24 Q170.265 1498.24 168.436 1501.81 Q166.631 1505.35 166.631 1512.48 Q166.631 1519.59 168.436 1523.15 Q170.265 1526.69 173.876 1526.69 Q177.51 1526.69 179.316 1523.15 Q181.145 1519.59 181.145 1512.48 Q181.145 1505.35 179.316 1501.81 Q177.51 1498.24 173.876 1498.24 M173.876 1494.54 Q179.686 1494.54 182.742 1499.15 Q185.821 1503.73 185.821 1512.48 Q185.821 1521.21 182.742 1525.81 Q179.686 1530.4 173.876 1530.4 Q168.066 1530.4 164.987 1525.81 Q161.932 1521.21 161.932 1512.48 Q161.932 1503.73 164.987 1499.15 Q168.066 1494.54 173.876 1494.54 Z" fill="#000000" fill-rule="nonzero" fill-opacity="1" /><path clip-path="url(#clip070)" d="M129.872 1236.59 Q126.261 1236.59 124.432 1240.16 Q122.626 1243.7 122.626 1250.83 Q122.626 1257.93 124.432 1261.5 Q126.261 1265.04 129.872 1265.04 Q133.506 1265.04 135.312 1261.5 Q137.14 1257.93 137.14 1250.83 Q137.14 1243.7 135.312 1240.16 Q133.506 1236.59 129.872 1236.59 M129.872 1232.89 Q135.682 1232.89 138.737 1237.49 Q141.816 1242.08 141.816 1250.83 Q141.816 1259.55 138.737 1264.16 Q135.682 1268.74 129.872 1268.74 Q124.062 1268.74 120.983 1264.16 Q117.927 1259.55 117.927 1250.83 Q117.927 1242.08 120.983 1237.49 Q124.062 1232.89 129.872 1232.89 Z" fill="#000000" fill-rule="nonzero" fill-opacity="1" /><path clip-path="url(#clip070)" d="M150.034 1262.19 L154.918 1262.19 L154.918 1268.07 L150.034 1268.07 L150.034 1262.19 Z" fill="#000000" fill-rule="nonzero" fill-opacity="1" /><path clip-path="url(#clip070)" d="M165.913 1264.14 L173.552 1264.14 L173.552 1237.77 L165.242 1239.44 L165.242 1235.18 L173.506 1233.51 L178.182 1233.51 L178.182 1264.14 L185.821 1264.14 L185.821 1268.07 L165.913 1268.07 L165.913 1264.14 Z" fill="#000000" fill-rule="nonzero" fill-opacity="1" /><path clip-path="url(#clip070)" d="M130.242 974.937 Q126.631 974.937 124.802 978.502 Q122.997 982.044 122.997 989.173 Q122.997 996.28 124.802 999.845 Q126.631 1003.39 130.242 1003.39 Q133.876 1003.39 135.682 999.845 Q137.511 996.28 137.511 989.173 Q137.511 982.044 135.682 978.502 Q133.876 974.937 130.242 974.937 M130.242 971.234 Q136.052 971.234 139.108 975.84 Q142.187 980.423 142.187 989.173 Q142.187 997.9 139.108 1002.51 Q136.052 1007.09 130.242 1007.09 Q124.432 1007.09 121.353 1002.51 Q118.298 997.9 118.298 989.173 Q118.298 980.423 121.353 975.84 Q124.432 971.234 130.242 971.234 Z" fill="#000000" fill-rule="nonzero" fill-opacity="1" /><path clip-path="url(#clip070)" d="M150.404 1000.54 L155.288 1000.54 L155.288 1006.42 L150.404 1006.42 L150.404 1000.54 Z" fill="#000000" fill-rule="nonzero" fill-opacity="1" /><path clip-path="url(#clip070)" d="M169.501 1002.48 L185.821 1002.48 L185.821 1006.42 L163.876 1006.42 L163.876 1002.48 Q166.538 999.729 171.122 995.099 Q175.728 990.446 176.909 989.104 Q179.154 986.581 180.034 984.845 Q180.936 983.085 180.936 981.396 Q180.936 978.641 178.992 976.905 Q177.071 975.169 173.969 975.169 Q171.77 975.169 169.316 975.933 Q166.885 976.697 164.108 978.247 L164.108 973.525 Q166.932 972.391 169.385 971.812 Q171.839 971.234 173.876 971.234 Q179.247 971.234 182.441 973.919 Q185.635 976.604 185.635 981.095 Q185.635 983.224 184.825 985.146 Q184.038 987.044 181.932 989.636 Q181.353 990.308 178.251 993.525 Q175.149 996.72 169.501 1002.48 Z" fill="#000000" fill-rule="nonzero" fill-opacity="1" /><path clip-path="url(#clip070)" d="M129.293 713.284 Q125.682 713.284 123.853 716.849 Q122.048 720.391 122.048 727.52 Q122.048 734.627 123.853 738.192 Q125.682 741.733 129.293 741.733 Q132.927 741.733 134.733 738.192 Q136.562 734.627 136.562 727.52 Q136.562 720.391 134.733 716.849 Q132.927 713.284 129.293 713.284 M129.293 709.581 Q135.103 709.581 138.159 714.187 Q141.237 718.77 141.237 727.52 Q141.237 736.247 138.159 740.854 Q135.103 745.437 129.293 745.437 Q123.483 745.437 120.404 740.854 Q117.349 736.247 117.349 727.52 Q117.349 718.77 120.404 714.187 Q123.483 709.581 129.293 709.581 Z" fill="#000000" fill-rule="nonzero" fill-opacity="1" /><path clip-path="url(#clip070)" d="M149.455 738.886 L154.339 738.886 L154.339 744.766 L149.455 744.766 L149.455 738.886 Z" fill="#000000" fill-rule="nonzero" fill-opacity="1" /><path clip-path="url(#clip070)" d="M178.691 726.132 Q182.047 726.849 183.922 729.118 Q185.821 731.386 185.821 734.719 Q185.821 739.835 182.302 742.636 Q178.784 745.437 172.302 745.437 Q170.126 745.437 167.811 744.997 Q165.52 744.581 163.066 743.724 L163.066 739.21 Q165.01 740.344 167.325 740.923 Q169.64 741.502 172.163 741.502 Q176.561 741.502 178.853 739.766 Q181.168 738.03 181.168 734.719 Q181.168 731.664 179.015 729.951 Q176.885 728.215 173.066 728.215 L169.038 728.215 L169.038 724.372 L173.251 724.372 Q176.7 724.372 178.529 723.007 Q180.358 721.618 180.358 719.025 Q180.358 716.363 178.459 714.951 Q176.584 713.516 173.066 713.516 Q171.145 713.516 168.946 713.933 Q166.747 714.349 164.108 715.229 L164.108 711.062 Q166.77 710.321 169.085 709.951 Q171.422 709.581 173.483 709.581 Q178.807 709.581 181.909 712.011 Q185.01 714.419 185.01 718.539 Q185.01 721.409 183.367 723.4 Q181.723 725.368 178.691 726.132 Z" fill="#000000" fill-rule="nonzero" fill-opacity="1" /><path clip-path="url(#clip070)" d="M128.159 451.631 Q124.548 451.631 122.719 455.196 Q120.913 458.738 120.913 465.867 Q120.913 472.974 122.719 476.539 Q124.548 480.08 128.159 480.08 Q131.793 480.08 133.599 476.539 Q135.427 472.974 135.427 465.867 Q135.427 458.738 133.599 455.196 Q131.793 451.631 128.159 451.631 M128.159 447.928 Q133.969 447.928 137.025 452.534 Q140.103 457.118 140.103 465.867 Q140.103 474.594 137.025 479.201 Q133.969 483.784 128.159 483.784 Q122.349 483.784 119.27 479.201 Q116.214 474.594 116.214 465.867 Q116.214 457.118 119.27 452.534 Q122.349 447.928 128.159 447.928 Z" fill="#000000" fill-rule="nonzero" fill-opacity="1" /><path clip-path="url(#clip070)" d="M148.321 477.233 L153.205 477.233 L153.205 483.113 L148.321 483.113 L148.321 477.233 Z" fill="#000000" fill-rule="nonzero" fill-opacity="1" /><path clip-path="url(#clip070)" d="M176.237 452.627 L164.432 471.076 L176.237 471.076 L176.237 452.627 M175.01 448.553 L180.89 448.553 L180.89 471.076 L185.821 471.076 L185.821 474.965 L180.89 474.965 L180.89 483.113 L176.237 483.113 L176.237 474.965 L160.636 474.965 L160.636 470.451 L175.01 448.553 Z" fill="#000000" fill-rule="nonzero" fill-opacity="1" /><path clip-path="url(#clip070)" d="M129.64 189.978 Q126.029 189.978 124.201 193.543 Q122.395 197.085 122.395 204.215 Q122.395 211.321 124.201 214.886 Q126.029 218.427 129.64 218.427 Q133.275 218.427 135.08 214.886 Q136.909 211.321 136.909 204.215 Q136.909 197.085 135.08 193.543 Q133.275 189.978 129.64 189.978 M129.64 186.275 Q135.45 186.275 138.506 190.881 Q141.585 195.465 141.585 204.215 Q141.585 212.941 138.506 217.548 Q135.45 222.131 129.64 222.131 Q123.83 222.131 120.751 217.548 Q117.696 212.941 117.696 204.215 Q117.696 195.465 120.751 190.881 Q123.83 186.275 129.64 186.275 Z" fill="#000000" fill-rule="nonzero" fill-opacity="1" /><path clip-path="url(#clip070)" d="M149.802 215.58 L154.686 215.58 L154.686 221.46 L149.802 221.46 L149.802 215.58 Z" fill="#000000" fill-rule="nonzero" fill-opacity="1" /><path clip-path="url(#clip070)" d="M164.918 186.9 L183.274 186.9 L183.274 190.835 L169.2 190.835 L169.2 199.307 Q170.219 198.96 171.237 198.798 Q172.256 198.613 173.274 198.613 Q179.061 198.613 182.441 201.784 Q185.821 204.955 185.821 210.372 Q185.821 215.951 182.348 219.052 Q178.876 222.131 172.557 222.131 Q170.381 222.131 168.112 221.761 Q165.867 221.39 163.46 220.65 L163.46 215.951 Q165.543 217.085 167.765 217.64 Q169.987 218.196 172.464 218.196 Q176.469 218.196 178.807 216.089 Q181.145 213.983 181.145 210.372 Q181.145 206.761 178.807 204.654 Q176.469 202.548 172.464 202.548 Q170.589 202.548 168.714 202.965 Q166.862 203.381 164.918 204.261 L164.918 186.9 Z" fill="#000000" fill-rule="nonzero" fill-opacity="1" /><path clip-path="url(#clip070)" d="M31.465 967.526 Q30.8921 968.512 30.6375 969.69 Q30.351 970.836 30.351 972.236 Q30.351 977.201 33.5975 979.875 Q36.8122 982.517 42.8596 982.517 L61.6384 982.517 L61.6384 988.405 L25.9905 988.405 L25.9905 982.517 L31.5287 982.517 Q28.2821 980.671 26.7225 977.711 Q25.1311 974.751 25.1311 970.517 Q25.1311 969.913 25.2266 969.181 Q25.2903 968.449 25.4494 967.557 L31.465 967.526 Z" fill="#000000" fill-rule="nonzero" fill-opacity="1" /><path clip-path="url(#clip070)" d="M12.1769 947.314 Q19.4975 951.579 26.6589 953.648 Q33.8203 955.717 41.1727 955.717 Q48.5251 955.717 55.7502 953.648 Q62.9434 951.548 70.2321 947.314 L70.2321 952.407 Q62.7524 957.181 55.5274 959.568 Q48.3023 961.924 41.1727 961.924 Q34.0749 961.924 26.8817 959.568 Q19.6884 957.213 12.1769 952.407 L12.1769 947.314 Z" fill="#000000" fill-rule="nonzero" fill-opacity="1" /><path clip-path="url(#clip070)" d="M14.1184 935.697 L14.1184 927.04 L53.8723 905.969 L14.1184 905.969 L14.1184 899.731 L61.6384 899.731 L61.6384 908.388 L21.8846 929.459 L61.6384 929.459 L61.6384 935.697 L14.1184 935.697 Z" fill="#000000" fill-rule="nonzero" fill-opacity="1" /><path clip-path="url(#clip070)" d="M12.1769 888.113 L12.1769 883.021 Q19.6884 878.247 26.8817 875.891 Q34.0749 873.504 41.1727 873.504 Q48.3023 873.504 55.5274 875.891 Q62.7524 878.247 70.2321 883.021 L70.2321 888.113 Q62.9434 883.88 55.7502 881.811 Q48.5251 879.711 41.1727 879.711 Q33.8203 879.711 26.6589 881.811 Q19.4975 883.88 12.1769 888.113 Z" fill="#000000" fill-rule="nonzero" fill-opacity="1" /><path clip-path="url(#clip070)" d="M963.928 18.8205 L963.928 41.5461 L974.217 41.5461 Q979.929 41.5461 983.048 38.5889 Q986.168 35.6318 986.168 30.163 Q986.168 24.7348 983.048 21.7777 Q979.929 18.8205 974.217 18.8205 L963.928 18.8205 M955.745 12.096 L974.217 12.096 Q984.385 12.096 989.57 16.714 Q994.796 21.2916 994.796 30.163 Q994.796 39.1155 989.57 43.6931 Q984.385 48.2706 974.217 48.2706 L963.928 48.2706 L963.928 72.576 L955.745 72.576 L955.745 12.096 Z" fill="#000000" fill-rule="nonzero" fill-opacity="1" /><path clip-path="url(#clip070)" d="M1041.3 48.0275 L1041.3 51.6733 L1007.03 51.6733 Q1007.52 59.3701 1011.65 63.421 Q1015.82 67.4314 1023.23 67.4314 Q1027.53 67.4314 1031.54 66.3781 Q1035.59 65.3249 1039.56 63.2184 L1039.56 70.267 Q1035.55 71.9684 1031.34 72.8596 Q1027.12 73.7508 1022.79 73.7508 Q1011.93 73.7508 1005.57 67.4314 Q999.252 61.1119 999.252 50.3365 Q999.252 39.1965 1005.25 32.6746 Q1011.28 26.1121 1021.49 26.1121 Q1030.65 26.1121 1035.95 32.0264 Q1041.3 37.9003 1041.3 48.0275 M1033.85 45.84 Q1033.77 39.7232 1030.4 36.0774 Q1027.08 32.4315 1021.57 32.4315 Q1015.33 32.4315 1011.57 35.9558 Q1007.84 39.4801 1007.27 45.8805 L1033.85 45.84 Z" fill="#000000" fill-rule="nonzero" fill-opacity="1" /><path clip-path="url(#clip070)" d="M1079.82 34.1734 Q1078.57 33.4443 1077.07 33.1202 Q1075.61 32.7556 1073.83 32.7556 Q1067.51 32.7556 1064.11 36.8875 Q1060.74 40.9789 1060.74 48.6757 L1060.74 72.576 L1053.25 72.576 L1053.25 27.2059 L1060.74 27.2059 L1060.74 34.2544 Q1063.09 30.1225 1066.86 28.1376 Q1070.63 26.1121 1076.02 26.1121 Q1076.79 26.1121 1077.72 26.2337 Q1078.65 26.3147 1079.78 26.5172 L1079.82 34.1734 Z" fill="#000000" fill-rule="nonzero" fill-opacity="1" /><path clip-path="url(#clip070)" d="M1078.57 46.5287 L1100.4 46.5287 L1100.4 53.1722 L1078.57 53.1722 L1078.57 46.5287 Z" fill="#000000" fill-rule="nonzero" fill-opacity="1" /><path clip-path="url(#clip070)" d="M1157.89 16.7545 L1157.89 25.383 Q1153.75 21.5346 1149.05 19.6307 Q1144.4 17.7268 1139.13 17.7268 Q1128.76 17.7268 1123.25 24.0867 Q1117.74 30.4061 1117.74 42.3968 Q1117.74 54.3469 1123.25 60.7069 Q1128.76 67.0263 1139.13 67.0263 Q1144.4 67.0263 1149.05 65.1223 Q1153.75 63.2184 1157.89 59.3701 L1157.89 67.9175 Q1153.59 70.8341 1148.77 72.2924 Q1143.99 73.7508 1138.64 73.7508 Q1124.91 73.7508 1117.01 65.3654 Q1109.11 56.9395 1109.11 42.3968 Q1109.11 27.8135 1117.01 19.4281 Q1124.91 11.0023 1138.64 11.0023 Q1144.07 11.0023 1148.85 12.4606 Q1153.67 13.8784 1157.89 16.7545 Z" fill="#000000" fill-rule="nonzero" fill-opacity="1" /><path clip-path="url(#clip070)" d="M1190.82 49.7694 Q1181.79 49.7694 1178.3 51.8354 Q1174.82 53.9013 1174.82 58.8839 Q1174.82 62.8538 1177.41 65.2034 Q1180.04 67.5124 1184.54 67.5124 Q1190.74 67.5124 1194.47 63.1374 Q1198.23 58.7219 1198.23 51.4303 L1198.23 49.7694 L1190.82 49.7694 M1205.69 46.6907 L1205.69 72.576 L1198.23 72.576 L1198.23 65.6895 Q1195.68 69.8214 1191.87 71.8063 Q1188.06 73.7508 1182.56 73.7508 Q1175.59 73.7508 1171.46 69.8619 Q1167.36 65.9325 1167.36 59.3701 Q1167.36 51.7138 1172.47 47.825 Q1177.61 43.9361 1187.78 43.9361 L1198.23 43.9361 L1198.23 43.2069 Q1198.23 38.0623 1194.83 35.2672 Q1191.47 32.4315 1185.35 32.4315 Q1181.46 32.4315 1177.78 33.3632 Q1174.09 34.295 1170.69 36.1584 L1170.69 29.2718 Q1174.78 27.692 1178.63 26.9223 Q1182.47 26.1121 1186.12 26.1121 Q1195.96 26.1121 1200.83 31.2163 Q1205.69 36.3204 1205.69 46.6907 Z" fill="#000000" fill-rule="nonzero" fill-opacity="1" /><path clip-path="url(#clip070)" d="M1228.25 65.7705 L1228.25 89.8329 L1220.76 89.8329 L1220.76 27.2059 L1228.25 27.2059 L1228.25 34.0924 Q1230.6 30.0415 1234.16 28.0971 Q1237.77 26.1121 1242.75 26.1121 Q1251.02 26.1121 1256.16 32.6746 Q1261.35 39.2371 1261.35 49.9314 Q1261.35 60.6258 1256.16 67.1883 Q1251.02 73.7508 1242.75 73.7508 Q1237.77 73.7508 1234.16 71.8063 Q1230.6 69.8214 1228.25 65.7705 M1253.61 49.9314 Q1253.61 41.7081 1250.21 37.0496 Q1246.84 32.3505 1240.93 32.3505 Q1235.01 32.3505 1231.61 37.0496 Q1228.25 41.7081 1228.25 49.9314 Q1228.25 58.1548 1231.61 62.8538 Q1235.01 67.5124 1240.93 67.5124 Q1246.84 67.5124 1250.21 62.8538 Q1253.61 58.1548 1253.61 49.9314 Z" fill="#000000" fill-rule="nonzero" fill-opacity="1" /><path clip-path="url(#clip070)" d="M1273.7 27.2059 L1281.15 27.2059 L1281.15 72.576 L1273.7 72.576 L1273.7 27.2059 M1273.7 9.54393 L1281.15 9.54393 L1281.15 18.9825 L1273.7 18.9825 L1273.7 9.54393 Z" fill="#000000" fill-rule="nonzero" fill-opacity="1" /><path clip-path="url(#clip070)" d="M1304.12 14.324 L1304.12 27.2059 L1319.48 27.2059 L1319.48 32.9987 L1304.12 32.9987 L1304.12 57.6282 Q1304.12 63.1779 1305.62 64.7578 Q1307.16 66.3376 1311.82 66.3376 L1319.48 66.3376 L1319.48 72.576 L1311.82 72.576 Q1303.19 72.576 1299.91 69.3758 Q1296.63 66.1351 1296.63 57.6282 L1296.63 32.9987 L1291.16 32.9987 L1291.16 27.2059 L1296.63 27.2059 L1296.63 14.324 L1304.12 14.324 Z" fill="#000000" fill-rule="nonzero" fill-opacity="1" /><path clip-path="url(#clip070)" d="M1349.9 49.7694 Q1340.86 49.7694 1337.38 51.8354 Q1333.9 53.9013 1333.9 58.8839 Q1333.9 62.8538 1336.49 65.2034 Q1339.12 67.5124 1343.62 67.5124 Q1349.82 67.5124 1353.54 63.1374 Q1357.31 58.7219 1357.31 51.4303 L1357.31 49.7694 L1349.9 49.7694 M1364.77 46.6907 L1364.77 72.576 L1357.31 72.576 L1357.31 65.6895 Q1354.76 69.8214 1350.95 71.8063 Q1347.14 73.7508 1341.63 73.7508 Q1334.67 73.7508 1330.54 69.8619 Q1326.44 65.9325 1326.44 59.3701 Q1326.44 51.7138 1331.55 47.825 Q1336.69 43.9361 1346.86 43.9361 L1357.31 43.9361 L1357.31 43.2069 Q1357.31 38.0623 1353.91 35.2672 Q1350.55 32.4315 1344.43 32.4315 Q1340.54 32.4315 1336.85 33.3632 Q1333.17 34.295 1329.77 36.1584 L1329.77 29.2718 Q1333.86 27.692 1337.71 26.9223 Q1341.55 26.1121 1345.2 26.1121 Q1355.04 26.1121 1359.9 31.2163 Q1364.77 36.3204 1364.77 46.6907 Z" fill="#000000" fill-rule="nonzero" fill-opacity="1" /><path clip-path="url(#clip070)" d="M1448.05 63.9476 L1448.05 47.7034 L1434.68 47.7034 L1434.68 40.9789 L1456.15 40.9789 L1456.15 66.9452 Q1451.41 70.3075 1445.7 72.0494 Q1439.99 73.7508 1433.51 73.7508 Q1419.33 73.7508 1411.31 65.4869 Q1403.33 57.1826 1403.33 42.3968 Q1403.33 27.5705 1411.31 19.3066 Q1419.33 11.0023 1433.51 11.0023 Q1439.42 11.0023 1444.73 12.4606 Q1450.08 13.9189 1454.57 16.7545 L1454.57 25.464 Q1450.04 21.6156 1444.93 19.6712 Q1439.83 17.7268 1434.2 17.7268 Q1423.1 17.7268 1417.51 23.9246 Q1411.96 30.1225 1411.96 42.3968 Q1411.96 54.6305 1417.51 60.8284 Q1423.1 67.0263 1434.2 67.0263 Q1438.53 67.0263 1441.93 66.2971 Q1445.34 65.5274 1448.05 63.9476 Z" fill="#000000" fill-rule="nonzero" fill-opacity="1" /><path clip-path="url(#clip070)" d="M1497.07 34.1734 Q1495.81 33.4443 1494.31 33.1202 Q1492.85 32.7556 1491.07 32.7556 Q1484.75 32.7556 1481.35 36.8875 Q1477.99 40.9789 1477.99 48.6757 L1477.99 72.576 L1470.49 72.576 L1470.49 27.2059 L1477.99 27.2059 L1477.99 34.2544 Q1480.34 30.1225 1484.1 28.1376 Q1487.87 26.1121 1493.26 26.1121 Q1494.03 26.1121 1494.96 26.2337 Q1495.89 26.3147 1497.03 26.5172 L1497.07 34.1734 Z" fill="#000000" fill-rule="nonzero" fill-opacity="1" /><path clip-path="url(#clip070)" d="M1520.64 32.4315 Q1514.65 32.4315 1511.16 37.1306 Q1507.68 41.7891 1507.68 49.9314 Q1507.68 58.0738 1511.12 62.7728 Q1514.61 67.4314 1520.64 67.4314 Q1526.6 67.4314 1530.08 62.7323 Q1533.57 58.0333 1533.57 49.9314 Q1533.57 41.8701 1530.08 37.1711 Q1526.6 32.4315 1520.64 32.4315 M1520.64 26.1121 Q1530.37 26.1121 1535.92 32.4315 Q1541.47 38.7509 1541.47 49.9314 Q1541.47 61.0714 1535.92 67.4314 Q1530.37 73.7508 1520.64 73.7508 Q1510.88 73.7508 1505.33 67.4314 Q1499.82 61.0714 1499.82 49.9314 Q1499.82 38.7509 1505.33 32.4315 Q1510.88 26.1121 1520.64 26.1121 Z" fill="#000000" fill-rule="nonzero" fill-opacity="1" /><path clip-path="url(#clip070)" d="M1549.49 27.2059 L1556.94 27.2059 L1566.26 62.6108 L1575.53 27.2059 L1584.32 27.2059 L1593.64 62.6108 L1602.92 27.2059 L1610.37 27.2059 L1598.5 72.576 L1589.71 72.576 L1579.95 35.3887 L1570.15 72.576 L1561.36 72.576 L1549.49 27.2059 Z" fill="#000000" fill-rule="nonzero" fill-opacity="1" /><path clip-path="url(#clip070)" d="M1629.05 14.324 L1629.05 27.2059 L1644.4 27.2059 L1644.4 32.9987 L1629.05 32.9987 L1629.05 57.6282 Q1629.05 63.1779 1630.54 64.7578 Q1632.08 66.3376 1636.74 66.3376 L1644.4 66.3376 L1644.4 72.576 L1636.74 72.576 Q1628.11 72.576 1624.83 69.3758 Q1621.55 66.1351 1621.55 57.6282 L1621.55 32.9987 L1616.08 32.9987 L1616.08 27.2059 L1621.55 27.2059 L1621.55 14.324 L1629.05 14.324 Z" fill="#000000" fill-rule="nonzero" fill-opacity="1" /><path clip-path="url(#clip070)" d="M1691.92 45.1919 L1691.92 72.576 L1684.46 72.576 L1684.46 45.4349 Q1684.46 38.994 1681.95 35.7938 Q1679.44 32.5936 1674.42 32.5936 Q1668.38 32.5936 1664.9 36.4419 Q1661.41 40.2903 1661.41 46.9338 L1661.41 72.576 L1653.92 72.576 L1653.92 9.54393 L1661.41 9.54393 L1661.41 34.2544 Q1664.09 30.163 1667.69 28.1376 Q1671.34 26.1121 1676.08 26.1121 Q1683.9 26.1121 1687.91 30.9732 Q1691.92 35.7938 1691.92 45.1919 Z" fill="#000000" fill-rule="nonzero" fill-opacity="1" /><path clip-path="url(#clip070)" d="M1762.16 44.2197 Q1764.79 45.1109 1767.26 48.0275 Q1769.77 50.9442 1772.29 56.0483 L1780.59 72.576 L1771.8 72.576 L1764.06 57.061 Q1761.07 50.9847 1758.23 48.9997 Q1755.43 47.0148 1750.57 47.0148 L1741.66 47.0148 L1741.66 72.576 L1733.48 72.576 L1733.48 12.096 L1751.95 12.096 Q1762.32 12.096 1767.43 16.4305 Q1772.53 20.7649 1772.53 29.5149 Q1772.53 35.2267 1769.86 38.994 Q1767.22 42.7613 1762.16 44.2197 M1741.66 18.8205 L1741.66 40.2903 L1751.95 40.2903 Q1757.86 40.2903 1760.86 37.5762 Q1763.9 34.8216 1763.9 29.5149 Q1763.9 24.2082 1760.86 21.5346 Q1757.86 18.8205 1751.95 18.8205 L1741.66 18.8205 Z" fill="#000000" fill-rule="nonzero" fill-opacity="1" /><path clip-path="url(#clip070)" d="M1809.59 49.7694 Q1800.56 49.7694 1797.08 51.8354 Q1793.59 53.9013 1793.59 58.8839 Q1793.59 62.8538 1796.19 65.2034 Q1798.82 67.5124 1803.32 67.5124 Q1809.51 67.5124 1813.24 63.1374 Q1817.01 58.7219 1817.01 51.4303 L1817.01 49.7694 L1809.59 49.7694 M1824.46 46.6907 L1824.46 72.576 L1817.01 72.576 L1817.01 65.6895 Q1814.46 69.8214 1810.65 71.8063 Q1806.84 73.7508 1801.33 73.7508 Q1794.36 73.7508 1790.23 69.8619 Q1786.14 65.9325 1786.14 59.3701 Q1786.14 51.7138 1791.24 47.825 Q1796.39 43.9361 1806.56 43.9361 L1817.01 43.9361 L1817.01 43.2069 Q1817.01 38.0623 1813.61 35.2672 Q1810.24 32.4315 1804.13 32.4315 Q1800.24 32.4315 1796.55 33.3632 Q1792.86 34.295 1789.46 36.1584 L1789.46 29.2718 Q1793.55 27.692 1797.4 26.9223 Q1801.25 26.1121 1804.9 26.1121 Q1814.74 26.1121 1819.6 31.2163 Q1824.46 36.3204 1824.46 46.6907 Z" fill="#000000" fill-rule="nonzero" fill-opacity="1" /><path clip-path="url(#clip070)" d="M1847.19 14.324 L1847.19 27.2059 L1862.54 27.2059 L1862.54 32.9987 L1847.19 32.9987 L1847.19 57.6282 Q1847.19 63.1779 1848.69 64.7578 Q1850.23 66.3376 1854.88 66.3376 L1862.54 66.3376 L1862.54 72.576 L1854.88 72.576 Q1846.26 72.576 1842.97 69.3758 Q1839.69 66.1351 1839.69 57.6282 L1839.69 32.9987 L1834.22 32.9987 L1834.22 27.2059 L1839.69 27.2059 L1839.69 14.324 L1847.19 14.324 Z" fill="#000000" fill-rule="nonzero" fill-opacity="1" /><path clip-path="url(#clip070)" d="M1911.15 48.0275 L1911.15 51.6733 L1876.88 51.6733 Q1877.37 59.3701 1881.5 63.421 Q1885.67 67.4314 1893.08 67.4314 Q1897.38 67.4314 1901.39 66.3781 Q1905.44 65.3249 1909.41 63.2184 L1909.41 70.267 Q1905.4 71.9684 1901.19 72.8596 Q1896.97 73.7508 1892.64 73.7508 Q1881.78 73.7508 1875.42 67.4314 Q1869.1 61.1119 1869.1 50.3365 Q1869.1 39.1965 1875.1 32.6746 Q1881.13 26.1121 1891.34 26.1121 Q1900.5 26.1121 1905.8 32.0264 Q1911.15 37.9003 1911.15 48.0275 M1903.7 45.84 Q1903.62 39.7232 1900.25 36.0774 Q1896.93 32.4315 1891.42 32.4315 Q1885.18 32.4315 1881.42 35.9558 Q1877.69 39.4801 1877.12 45.8805 L1903.7 45.84 Z" fill="#000000" fill-rule="nonzero" fill-opacity="1" /><polyline clip-path="url(#clip071)" style="stroke:#000000; stroke-linecap:round; stroke-linejoin:round; stroke-width:8; stroke-opacity:1; fill:none" points="294.479,269.593 317.488,282.808 340.498,296.023 363.507,309.237 386.517,322.452 409.526,335.667 432.536,348.882 455.545,362.097 478.555,375.311 501.564,388.526 524.574,401.741 547.583,414.956 570.593,428.171 593.602,441.385 616.612,454.6 639.621,467.815 662.63,481.03 685.64,494.245 708.649,507.459 731.659,520.674 754.668,533.889 777.678,547.104 800.687,560.319 823.697,573.533 846.706,586.748 869.716,599.963 892.725,613.178 915.735,626.393 938.744,639.607 961.754,652.822 984.763,666.037 1007.77,679.252 1030.78,692.466 1053.79,705.681 1076.8,718.896 1099.81,732.111 1122.82,745.326 1145.83,758.54 1168.84,771.755 1191.85,784.97 1214.86,798.185 1237.87,811.4 1260.88,824.614 1283.89,837.829 1306.9,851.044 1329.91,864.259 1352.92,877.474 1375.92,890.688 1398.93,903.903 1421.94,917.118 1444.95,930.333 1467.96,943.548 1490.97,956.762 1513.98,969.977 1536.99,983.192 1560,996.407 1583.01,1009.62 1606.02,1022.84 1629.03,1036.05 1652.04,1049.27 1675.05,1062.48 1698.06,1075.7 1721.07,1088.91 1744.08,1102.13 1767.09,1115.34 1790.1,1128.55 1813.1,1141.77 1836.11,1154.98 1859.12,1168.2 1882.13,1181.41 1905.14,1194.63 1928.15,1207.84 1951.16,1221.06 1974.17,1234.27 1997.18,1247.49 2020.19,1260.7 2043.2,1273.92 2066.21,1287.13 2089.22,1300.35 2112.23,1313.56 2135.24,1326.78 2158.25,1339.99 2181.26,1353.21 2204.27,1366.42 2227.28,1379.64 2250.28,1392.85 2273.29,1406.07 2296.3,1419.28 2319.31,1432.5 2342.32,1445.71 2365.33,1458.92 2388.34,1472.14 2411.35,1485.35 2434.36,1498.57 2457.37,1511.78 2480.38,1525 2503.39,1538.21 2526.4,1551.43 2549.41,1564.64 2572.42,1577.86 "/>
<polyline clip-path="url(#clip071)" style="stroke:#e26f46; stroke-linecap:round; stroke-linejoin:round; stroke-width:8; stroke-opacity:1; fill:none" points="294.479,173.254 317.488,188.376 340.498,203.501 363.507,218.633 386.517,233.777 409.526,248.936 432.536,264.114 455.545,279.314 478.555,294.541 501.564,309.797 524.574,325.087 547.583,340.415 570.593,355.784 593.602,371.198 616.612,386.661 639.621,402.176 662.63,417.745 685.64,433.371 708.649,449.053 731.659,464.795 754.668,480.598 777.678,496.462 800.687,512.391 823.697,528.385 846.706,544.445 869.716,560.574 892.725,576.773 915.735,593.043 938.744,609.387 961.754,625.804 984.763,642.279 1007.77,658.789 1030.78,675.311 1053.79,691.822 1076.8,708.297 1099.81,724.715 1122.82,741.052 1145.83,757.284 1168.84,773.389 1191.85,789.342 1214.86,805.121 1237.87,820.702 1260.88,836.062 1283.89,851.178 1306.9,866.038 1329.91,880.637 1352.92,894.97 1375.92,909.033 1398.93,922.822 1421.94,936.332 1444.95,949.559 1467.96,962.499 1490.97,975.147 1513.98,987.498 1536.99,999.548 1560,1011.29 1583.01,1022.73 1606.02,1033.85 1629.03,1044.68 1652.04,1055.27 1675.05,1065.66 1698.06,1075.91 1721.07,1086.06 1744.08,1096.18 1767.09,1106.3 1790.1,1116.48 1813.1,1126.77 1836.11,1137.22 1859.12,1147.88 1882.13,1158.8 1905.14,1170.03 1928.15,1181.62 1951.16,1193.61 1974.17,1206.02 1997.18,1218.85 2020.19,1232.11 2043.2,1245.83 2066.21,1260.01 2089.22,1274.66 2112.23,1289.8 2135.24,1305.44 2158.25,1321.59 2181.26,1338.26 2204.27,1355.46 2227.28,1373.22 2250.28,1391.53 2273.29,1410.4 2296.3,1429.79 2319.31,1449.66 2342.32,1469.98 2365.33,1490.7 2388.34,1511.78 2411.35,1533.19 2434.36,1554.87 2457.37,1576.8 2480.38,1598.93 2503.39,1621.22 2526.4,1643.63 2549.41,1666.12 2572.42,1688.65 "/>
<polyline clip-path="url(#clip071)" style="stroke:#3da44d; stroke-linecap:round; stroke-linejoin:round; stroke-width:8; stroke-opacity:1; fill:none" stroke-dasharray="32, 20" points="294.479,209.803 317.488,223.907 340.498,238.011 363.507,252.115 386.517,266.218 409.526,280.322 432.536,294.426 455.545,308.53 478.555,322.634 501.564,336.737 524.574,350.841 547.583,364.945 570.593,379.049 593.602,393.153 616.612,407.256 639.621,421.36 662.63,435.464 685.64,449.568 708.649,463.672 731.659,477.775 754.668,491.879 777.678,505.983 800.687,520.087 823.697,534.191 846.706,548.294 869.716,562.398 892.725,576.502 915.735,590.606 938.744,604.71 961.754,618.813 984.763,632.917 1007.77,647.021 1030.78,661.125 1053.79,675.229 1076.8,689.332 1099.81,703.436 1122.82,717.54 1145.83,731.644 1168.84,745.747 1191.85,759.851 1214.86,773.955 1237.87,788.059 1260.88,802.162 1283.89,816.266 1306.9,830.37 1329.91,844.473 1352.92,858.577 1375.92,872.681 1398.93,886.785 1421.94,900.888 1444.95,914.992 1467.96,929.096 1490.97,943.199 1513.98,957.303 1536.99,971.407 1560,985.51 1583.01,999.614 1606.02,1013.72 1629.03,1027.82 1652.04,1041.93 1675.05,1056.03 1698.06,1070.13 1721.07,1084.24 1744.08,1098.34 1767.09,1112.44 1790.1,1126.55 1813.1,1140.65 1836.11,1154.76 1859.12,1168.86 1882.13,1182.97 1905.14,1197.07 1928.15,1211.17 1951.16,1225.28 1974.17,1239.38 1997.18,1253.49 2020.19,1267.59 2043.2,1281.7 2066.21,1295.8 2089.22,1309.91 2112.23,1324.01 2135.24,1338.12 2158.25,1352.22 2181.26,1366.33 2204.27,1380.43 2227.28,1394.54 2250.28,1408.64 2273.29,1422.75 2296.3,1436.85 2319.31,1450.96 2342.32,1465.06 2365.33,1479.17 2388.34,1493.27 2411.35,1507.38 2434.36,1521.48 2457.37,1535.59 2480.38,1549.69 2503.39,1563.8 2526.4,1577.91 2549.41,1592.01 2572.42,1606.12 "/>
<path clip-path="url(#clip070)" d="M1899.5 388.696 L2560.27 388.696 L2560.27 181.336 L1899.5 181.336  Z" fill="#ffffff" fill-rule="evenodd" fill-opacity="1"/>
<polyline clip-path="url(#clip070)" style="stroke:#000000; stroke-linecap:round; stroke-linejoin:round; stroke-width:4; stroke-opacity:1; fill:none" points="1899.5,388.696 2560.27,388.696 2560.27,181.336 1899.5,181.336 1899.5,388.696 "/>
<polyline clip-path="url(#clip070)" style="stroke:#000000; stroke-linecap:round; stroke-linejoin:round; stroke-width:8; stroke-opacity:1; fill:none" points="1926.33,233.176 2087.31,233.176 "/>
<path clip-path="url(#clip070)" d="M2114.14 215.896 L2143.37 215.896 L2143.37 219.831 L2131.1 219.831 L2131.1 250.456 L2126.4 250.456 L2126.4 219.831 L2114.14 219.831 L2114.14 215.896 Z" fill="#000000" fill-rule="nonzero" fill-opacity="1" /><path clip-path="url(#clip070)" d="M2155.76 228.512 Q2155.04 228.095 2154.18 227.91 Q2153.35 227.702 2152.33 227.702 Q2148.72 227.702 2146.78 230.063 Q2144.85 232.401 2144.85 236.799 L2144.85 250.456 L2140.57 250.456 L2140.57 224.531 L2144.85 224.531 L2144.85 228.558 Q2146.2 226.197 2148.35 225.063 Q2150.5 223.906 2153.58 223.906 Q2154.02 223.906 2154.55 223.975 Q2155.09 224.021 2155.73 224.137 L2155.76 228.512 Z" fill="#000000" fill-rule="nonzero" fill-opacity="1" /><path clip-path="url(#clip070)" d="M2159.78 240.225 L2159.78 224.531 L2164.04 224.531 L2164.04 240.063 Q2164.04 243.743 2165.48 245.595 Q2166.91 247.424 2169.78 247.424 Q2173.23 247.424 2175.22 245.225 Q2177.24 243.026 2177.24 239.229 L2177.24 224.531 L2181.5 224.531 L2181.5 250.456 L2177.24 250.456 L2177.24 246.475 Q2175.69 248.836 2173.63 249.993 Q2171.59 251.128 2168.88 251.128 Q2164.41 251.128 2162.1 248.35 Q2159.78 245.572 2159.78 240.225 M2170.5 223.906 L2170.5 223.906 Z" fill="#000000" fill-rule="nonzero" fill-opacity="1" /><path clip-path="url(#clip070)" d="M2212.45 236.429 L2212.45 238.512 L2192.86 238.512 Q2193.14 242.91 2195.5 245.225 Q2197.89 247.516 2202.12 247.516 Q2204.58 247.516 2206.87 246.915 Q2209.18 246.313 2211.45 245.109 L2211.45 249.137 Q2209.16 250.109 2206.75 250.618 Q2204.34 251.128 2201.87 251.128 Q2195.66 251.128 2192.03 247.516 Q2188.42 243.905 2188.42 237.748 Q2188.42 231.382 2191.84 227.655 Q2195.29 223.906 2201.13 223.906 Q2206.36 223.906 2209.39 227.285 Q2212.45 230.642 2212.45 236.429 M2208.19 235.179 Q2208.14 231.683 2206.22 229.6 Q2204.32 227.517 2201.17 227.517 Q2197.61 227.517 2195.46 229.53 Q2193.33 231.544 2193 235.202 L2208.19 235.179 Z" fill="#000000" fill-rule="nonzero" fill-opacity="1" /><path clip-path="url(#clip070)" d="M2249.53 228.512 Q2248.81 228.095 2247.96 227.91 Q2247.12 227.702 2246.1 227.702 Q2242.49 227.702 2240.55 230.063 Q2238.63 232.401 2238.63 236.799 L2238.63 250.456 L2234.34 250.456 L2234.34 224.531 L2238.63 224.531 L2238.63 228.558 Q2239.97 226.197 2242.12 225.063 Q2244.27 223.906 2247.35 223.906 Q2247.79 223.906 2248.33 223.975 Q2248.86 224.021 2249.51 224.137 L2249.53 228.512 Z" fill="#000000" fill-rule="nonzero" fill-opacity="1" /><path clip-path="url(#clip070)" d="M2264.23 214.484 Q2261.13 219.808 2259.62 225.017 Q2258.12 230.225 2258.12 235.572 Q2258.12 240.919 2259.62 246.174 Q2261.15 251.405 2264.23 256.706 L2260.52 256.706 Q2257.05 251.266 2255.32 246.012 Q2253.6 240.757 2253.6 235.572 Q2253.6 230.41 2255.32 225.179 Q2257.03 219.947 2260.52 214.484 L2264.23 214.484 Z" fill="#000000" fill-rule="nonzero" fill-opacity="1" /><path clip-path="url(#clip070)" d="M2272.68 215.896 L2278.97 215.896 L2294.3 244.808 L2294.3 215.896 L2298.83 215.896 L2298.83 250.456 L2292.54 250.456 L2277.21 221.544 L2277.21 250.456 L2272.68 250.456 L2272.68 215.896 Z" fill="#000000" fill-rule="nonzero" fill-opacity="1" /><path clip-path="url(#clip070)" d="M2307.28 214.484 L2310.99 214.484 Q2314.46 219.947 2316.17 225.179 Q2317.91 230.41 2317.91 235.572 Q2317.91 240.757 2316.17 246.012 Q2314.46 251.266 2310.99 256.706 L2307.28 256.706 Q2310.36 251.405 2311.87 246.174 Q2313.39 240.919 2313.39 235.572 Q2313.39 230.225 2311.87 225.017 Q2310.36 219.808 2307.28 214.484 Z" fill="#000000" fill-rule="nonzero" fill-opacity="1" /><polyline clip-path="url(#clip070)" style="stroke:#e26f46; stroke-linecap:round; stroke-linejoin:round; stroke-width:8; stroke-opacity:1; fill:none" points="1926.33,285.016 2087.31,285.016 "/>
<path clip-path="url(#clip070)" d="M2127.33 302.296 L2114.14 267.736 L2119.02 267.736 L2129.97 296.833 L2140.94 267.736 L2145.8 267.736 L2132.63 302.296 L2127.33 302.296 Z" fill="#000000" fill-rule="nonzero" fill-opacity="1" /><path clip-path="url(#clip070)" d="M2150.85 267.736 L2155.53 267.736 L2155.53 302.296 L2150.85 302.296 L2150.85 267.736 Z" fill="#000000" fill-rule="nonzero" fill-opacity="1" /><path clip-path="url(#clip070)" d="M2183.84 298.407 L2183.84 312.157 L2179.55 312.157 L2179.55 276.371 L2183.84 276.371 L2183.84 280.306 Q2185.18 277.991 2187.21 276.88 Q2189.27 275.746 2192.12 275.746 Q2196.84 275.746 2199.78 279.495 Q2202.75 283.245 2202.75 289.357 Q2202.75 295.468 2199.78 299.218 Q2196.84 302.968 2192.12 302.968 Q2189.27 302.968 2187.21 301.856 Q2185.18 300.722 2183.84 298.407 M2198.33 289.357 Q2198.33 284.657 2196.38 281.995 Q2194.46 279.31 2191.08 279.31 Q2187.7 279.31 2185.76 281.995 Q2183.84 284.657 2183.84 289.357 Q2183.84 294.056 2185.76 296.741 Q2187.7 299.403 2191.08 299.403 Q2194.46 299.403 2196.38 296.741 Q2198.33 294.056 2198.33 289.357 Z" fill="#000000" fill-rule="nonzero" fill-opacity="1" /><path clip-path="url(#clip070)" d="M2219.85 279.357 Q2216.43 279.357 2214.44 282.042 Q2212.45 284.704 2212.45 289.357 Q2212.45 294.009 2214.41 296.694 Q2216.4 299.356 2219.85 299.356 Q2223.26 299.356 2225.25 296.671 Q2227.24 293.986 2227.24 289.357 Q2227.24 284.75 2225.25 282.065 Q2223.26 279.357 2219.85 279.357 M2219.85 275.746 Q2225.41 275.746 2228.58 279.357 Q2231.75 282.968 2231.75 289.357 Q2231.75 295.722 2228.58 299.356 Q2225.41 302.968 2219.85 302.968 Q2214.27 302.968 2211.1 299.356 Q2207.96 295.722 2207.96 289.357 Q2207.96 282.968 2211.1 279.357 Q2214.27 275.746 2219.85 275.746 Z" fill="#000000" fill-rule="nonzero" fill-opacity="1" /><path clip-path="url(#clip070)" d="M2255.34 277.134 L2255.34 281.162 Q2253.53 280.236 2251.59 279.773 Q2249.64 279.31 2247.56 279.31 Q2244.39 279.31 2242.79 280.283 Q2241.22 281.255 2241.22 283.199 Q2241.22 284.681 2242.35 285.537 Q2243.49 286.37 2246.91 287.134 L2248.37 287.458 Q2252.91 288.431 2254.81 290.213 Q2256.73 291.972 2256.73 295.144 Q2256.73 298.755 2253.86 300.861 Q2251.01 302.968 2246.01 302.968 Q2243.93 302.968 2241.66 302.551 Q2239.41 302.157 2236.91 301.347 L2236.91 296.949 Q2239.27 298.176 2241.57 298.801 Q2243.86 299.403 2246.1 299.403 Q2249.11 299.403 2250.73 298.384 Q2252.35 297.343 2252.35 295.468 Q2252.35 293.732 2251.17 292.806 Q2250.02 291.88 2246.06 291.023 L2244.58 290.676 Q2240.62 289.843 2238.86 288.13 Q2237.1 286.394 2237.1 283.384 Q2237.1 279.727 2239.69 277.736 Q2242.28 275.746 2247.05 275.746 Q2249.41 275.746 2251.5 276.093 Q2253.58 276.44 2255.34 277.134 Z" fill="#000000" fill-rule="nonzero" fill-opacity="1" /><path clip-path="url(#clip070)" d="M2267.72 269.009 L2267.72 276.371 L2276.5 276.371 L2276.5 279.681 L2267.72 279.681 L2267.72 293.755 Q2267.72 296.926 2268.58 297.829 Q2269.46 298.731 2272.12 298.731 L2276.5 298.731 L2276.5 302.296 L2272.12 302.296 Q2267.19 302.296 2265.32 300.468 Q2263.44 298.616 2263.44 293.755 L2263.44 279.681 L2260.32 279.681 L2260.32 276.371 L2263.44 276.371 L2263.44 269.009 L2267.72 269.009 Z" fill="#000000" fill-rule="nonzero" fill-opacity="1" /><path clip-path="url(#clip070)" d="M2304.27 288.269 L2304.27 290.352 L2284.69 290.352 Q2284.97 294.75 2287.33 297.065 Q2289.71 299.356 2293.95 299.356 Q2296.4 299.356 2298.7 298.755 Q2301.01 298.153 2303.28 296.949 L2303.28 300.977 Q2300.99 301.949 2298.58 302.458 Q2296.17 302.968 2293.7 302.968 Q2287.49 302.968 2283.86 299.356 Q2280.25 295.745 2280.25 289.588 Q2280.25 283.222 2283.67 279.495 Q2287.12 275.746 2292.95 275.746 Q2298.19 275.746 2301.22 279.125 Q2304.27 282.482 2304.27 288.269 M2300.01 287.019 Q2299.97 283.523 2298.05 281.44 Q2296.15 279.357 2293 279.357 Q2289.44 279.357 2287.28 281.37 Q2285.15 283.384 2284.83 287.042 L2300.01 287.019 Z" fill="#000000" fill-rule="nonzero" fill-opacity="1" /><path clip-path="url(#clip070)" d="M2326.29 280.352 Q2325.57 279.935 2324.71 279.75 Q2323.88 279.542 2322.86 279.542 Q2319.25 279.542 2317.31 281.903 Q2315.39 284.241 2315.39 288.639 L2315.39 302.296 L2311.1 302.296 L2311.1 276.371 L2315.39 276.371 L2315.39 280.398 Q2316.73 278.037 2318.88 276.903 Q2321.03 275.746 2324.11 275.746 Q2324.55 275.746 2325.08 275.815 Q2325.62 275.861 2326.26 275.977 L2326.29 280.352 Z" fill="#000000" fill-rule="nonzero" fill-opacity="1" /><path clip-path="url(#clip070)" d="M2330.76 276.371 L2335.01 276.371 L2335.01 302.296 L2330.76 302.296 L2330.76 276.371 M2330.76 266.278 L2335.01 266.278 L2335.01 271.671 L2330.76 271.671 L2330.76 266.278 Z" fill="#000000" fill-rule="nonzero" fill-opacity="1" /><path clip-path="url(#clip070)" d="M2353.97 279.357 Q2350.55 279.357 2348.56 282.042 Q2346.57 284.704 2346.57 289.357 Q2346.57 294.009 2348.53 296.694 Q2350.52 299.356 2353.97 299.356 Q2357.38 299.356 2359.37 296.671 Q2361.36 293.986 2361.36 289.357 Q2361.36 284.75 2359.37 282.065 Q2357.38 279.357 2353.97 279.357 M2353.97 275.746 Q2359.53 275.746 2362.7 279.357 Q2365.87 282.968 2365.87 289.357 Q2365.87 295.722 2362.7 299.356 Q2359.53 302.968 2353.97 302.968 Q2348.39 302.968 2345.22 299.356 Q2342.07 295.722 2342.07 289.357 Q2342.07 282.968 2345.22 279.357 Q2348.39 275.746 2353.97 275.746 Z" fill="#000000" fill-rule="nonzero" fill-opacity="1" /><path clip-path="url(#clip070)" d="M2387.95 280.352 Q2387.24 279.935 2386.38 279.75 Q2385.55 279.542 2384.53 279.542 Q2380.92 279.542 2378.97 281.903 Q2377.05 284.241 2377.05 288.639 L2377.05 302.296 L2372.77 302.296 L2372.77 276.371 L2377.05 276.371 L2377.05 280.398 Q2378.39 278.037 2380.55 276.903 Q2382.7 275.746 2385.78 275.746 Q2386.22 275.746 2386.75 275.815 Q2387.28 275.861 2387.93 275.977 L2387.95 280.352 Z" fill="#000000" fill-rule="nonzero" fill-opacity="1" /><path clip-path="url(#clip070)" d="M2427.68 281.347 Q2429.27 278.477 2431.5 277.111 Q2433.72 275.746 2436.73 275.746 Q2440.78 275.746 2442.98 278.593 Q2445.18 281.417 2445.18 286.648 L2445.18 302.296 L2440.89 302.296 L2440.89 286.787 Q2440.89 283.06 2439.57 281.255 Q2438.25 279.449 2435.55 279.449 Q2432.24 279.449 2430.32 281.648 Q2428.39 283.847 2428.39 287.644 L2428.39 302.296 L2424.11 302.296 L2424.11 286.787 Q2424.11 283.037 2422.79 281.255 Q2421.47 279.449 2418.72 279.449 Q2415.45 279.449 2413.53 281.671 Q2411.61 283.87 2411.61 287.644 L2411.61 302.296 L2407.33 302.296 L2407.33 276.371 L2411.61 276.371 L2411.61 280.398 Q2413.07 278.014 2415.11 276.88 Q2417.14 275.746 2419.94 275.746 Q2422.77 275.746 2424.74 277.181 Q2426.73 278.616 2427.68 281.347 Z" fill="#000000" fill-rule="nonzero" fill-opacity="1" /><path clip-path="url(#clip070)" d="M2475.85 288.269 L2475.85 290.352 L2456.26 290.352 Q2456.54 294.75 2458.9 297.065 Q2461.29 299.356 2465.52 299.356 Q2467.98 299.356 2470.27 298.755 Q2472.58 298.153 2474.85 296.949 L2474.85 300.977 Q2472.56 301.949 2470.15 302.458 Q2467.75 302.968 2465.27 302.968 Q2459.07 302.968 2455.43 299.356 Q2451.82 295.745 2451.82 289.588 Q2451.82 283.222 2455.25 279.495 Q2458.69 275.746 2464.53 275.746 Q2469.76 275.746 2472.79 279.125 Q2475.85 282.482 2475.85 288.269 M2471.59 287.019 Q2471.54 283.523 2469.62 281.44 Q2467.72 279.357 2464.57 279.357 Q2461.01 279.357 2458.86 281.37 Q2456.73 283.384 2456.4 287.042 L2471.59 287.019 Z" fill="#000000" fill-rule="nonzero" fill-opacity="1" /><path clip-path="url(#clip070)" d="M2494.62 289.264 Q2489.46 289.264 2487.47 290.444 Q2485.48 291.625 2485.48 294.472 Q2485.48 296.741 2486.96 298.083 Q2488.46 299.403 2491.03 299.403 Q2494.57 299.403 2496.7 296.903 Q2498.86 294.38 2498.86 290.213 L2498.86 289.264 L2494.62 289.264 M2503.12 287.505 L2503.12 302.296 L2498.86 302.296 L2498.86 298.361 Q2497.4 300.722 2495.22 301.856 Q2493.05 302.968 2489.9 302.968 Q2485.92 302.968 2483.56 300.745 Q2481.22 298.5 2481.22 294.75 Q2481.22 290.375 2484.13 288.153 Q2487.07 285.931 2492.88 285.931 L2498.86 285.931 L2498.86 285.514 Q2498.86 282.574 2496.91 280.977 Q2494.99 279.357 2491.5 279.357 Q2489.27 279.357 2487.17 279.889 Q2485.06 280.421 2483.12 281.486 L2483.12 277.551 Q2485.45 276.648 2487.65 276.208 Q2489.85 275.746 2491.94 275.746 Q2497.56 275.746 2500.34 278.662 Q2503.12 281.579 2503.12 287.505 Z" fill="#000000" fill-rule="nonzero" fill-opacity="1" /><path clip-path="url(#clip070)" d="M2533.44 286.648 L2533.44 302.296 L2529.18 302.296 L2529.18 286.787 Q2529.18 283.107 2527.75 281.278 Q2526.31 279.449 2523.44 279.449 Q2519.99 279.449 2518 281.648 Q2516.01 283.847 2516.01 287.644 L2516.01 302.296 L2511.73 302.296 L2511.73 276.371 L2516.01 276.371 L2516.01 280.398 Q2517.54 278.06 2519.6 276.903 Q2521.68 275.746 2524.39 275.746 Q2528.86 275.746 2531.15 278.523 Q2533.44 281.278 2533.44 286.648 Z" fill="#000000" fill-rule="nonzero" fill-opacity="1" /><polyline clip-path="url(#clip070)" style="stroke:#3da44d; stroke-linecap:round; stroke-linejoin:round; stroke-width:8; stroke-opacity:1; fill:none" stroke-dasharray="32, 20" points="1926.33,336.856 2087.31,336.856 "/>
<path clip-path="url(#clip070)" d="M2114.14 319.576 L2118.81 319.576 L2118.81 350.201 L2135.64 350.201 L2135.64 354.136 L2114.14 354.136 L2114.14 319.576 Z" fill="#000000" fill-rule="nonzero" fill-opacity="1" /><path clip-path="url(#clip070)" d="M2153.19 324.183 L2146.84 341.382 L2159.55 341.382 L2153.19 324.183 M2150.55 319.576 L2155.85 319.576 L2169.02 354.136 L2164.16 354.136 L2161.01 345.271 L2145.43 345.271 L2142.28 354.136 L2137.35 354.136 L2150.55 319.576 Z" fill="#000000" fill-rule="nonzero" fill-opacity="1" /><path clip-path="url(#clip070)" d="M2174.07 319.576 L2181.03 319.576 L2189.85 343.095 L2198.72 319.576 L2205.69 319.576 L2205.69 354.136 L2201.13 354.136 L2201.13 323.789 L2192.21 347.493 L2187.52 347.493 L2178.6 323.789 L2178.6 354.136 L2174.07 354.136 L2174.07 319.576 Z" fill="#000000" fill-rule="nonzero" fill-opacity="1" /><path clip-path="url(#clip070)" d="M2214.97 319.576 L2219.65 319.576 L2219.65 350.201 L2236.47 350.201 L2236.47 354.136 L2214.97 354.136 L2214.97 319.576 Z" fill="#000000" fill-rule="nonzero" fill-opacity="1" /></svg>
