<?xml version="1.0" encoding="utf-8"?>
<svg xmlns="http://www.w3.org/2000/svg" xmlns:xlink="http://www.w3.org/1999/xlink" width="672" height="480" viewBox="0 0 2688 1920">
<defs>
  <clipPath id="clip910">
    <rect x="0" y="0" width="2688" height="1920"/>
  </clipPath>
</defs>
<path clip-path="url(#clip910)" d="M0 1920 L2688 1920 L2688 -4.26326e-14 L0 -4.26326e-14  Z" fill="#ffffff" fill-rule="evenodd" fill-opacity="1"/>
<defs>
  <clipPath id="clip911">
    <rect x="225" y="127" width="2416" height="1607"/>
  </clipPath>
</defs>
<path clip-path="url(#clip910)" d="M225.816 1734.12 L2640.76 1734.12 L2640.76 127.792 L225.816 127.792  Z" fill="#ffffff" fill-rule="evenodd" fill-opacity="1"/>
<polyline clip-path="url(#clip911)" style="stroke:#000000; stroke-linecap:round; stroke-linejoin:round; stroke-width:2; stroke-opacity:0.1; fill:none" points="294.164,1734.12 294.164,127.792 "/>
<polyline clip-path="url(#clip911)" style="stroke:#000000; stroke-linecap:round; stroke-linejoin:round; stroke-width:2; stroke-opacity:0.1; fill:none" points="863.725,1734.12 863.725,127.792 "/>
<polyline clip-path="url(#clip911)" style="stroke:#000000; stroke-linecap:round; stroke-linejoin:round; stroke-width:2; stroke-opacity:0.1; fill:none" points="1433.29,1734.12 1433.29,127.792 "/>
<polyline clip-path="url(#clip911)" style="stroke:#000000; stroke-linecap:round; stroke-linejoin:round; stroke-width:2; stroke-opacity:0.1; fill:none" points="2002.85,1734.12 2002.85,127.792 "/>
<polyline clip-path="url(#clip911)" style="stroke:#000000; stroke-linecap:round; stroke-linejoin:round; stroke-width:2; stroke-opacity:0.1; fill:none" points="2572.41,1734.12 2572.41,127.792 "/>
<polyline clip-path="url(#clip911)" style="stroke:#000000; stroke-linecap:round; stroke-linejoin:round; stroke-width:2; stroke-opacity:0.1; fill:none" points="225.816,1500.82 2640.76,1500.82 "/>
<polyline clip-path="url(#clip911)" style="stroke:#000000; stroke-linecap:round; stroke-linejoin:round; stroke-width:2; stroke-opacity:0.1; fill:none" points="225.816,1225.62 2640.76,1225.62 "/>
<polyline clip-path="url(#clip911)" style="stroke:#000000; stroke-linecap:round; stroke-linejoin:round; stroke-width:2; stroke-opacity:0.1; fill:none" points="225.816,950.422 2640.76,950.422 "/>
<polyline clip-path="url(#clip911)" style="stroke:#000000; stroke-linecap:round; stroke-linejoin:round; stroke-width:2; stroke-opacity:0.1; fill:none" points="225.816,675.223 2640.76,675.223 "/>
<polyline clip-path="url(#clip911)" style="stroke:#000000; stroke-linecap:round; stroke-linejoin:round; stroke-width:2; stroke-opacity:0.1; fill:none" points="225.816,400.024 2640.76,400.024 "/>
<polyline clip-path="url(#clip910)" style="stroke:#000000; stroke-linecap:round; stroke-linejoin:round; stroke-width:4; stroke-opacity:1; fill:none" points="225.816,1734.12 2640.76,1734.12 "/>
<polyline clip-path="url(#clip910)" style="stroke:#000000; stroke-linecap:round; stroke-linejoin:round; stroke-width:4; stroke-opacity:1; fill:none" points="294.164,1734.12 294.164,1715.22 "/>
<polyline clip-path="url(#clip910)" style="stroke:#000000; stroke-linecap:round; stroke-linejoin:round; stroke-width:4; stroke-opacity:1; fill:none" points="863.725,1734.12 863.725,1715.22 "/>
<polyline clip-path="url(#clip910)" style="stroke:#000000; stroke-linecap:round; stroke-linejoin:round; stroke-width:4; stroke-opacity:1; fill:none" points="1433.29,1734.12 1433.29,1715.22 "/>
<polyline clip-path="url(#clip910)" style="stroke:#000000; stroke-linecap:round; stroke-linejoin:round; stroke-width:4; stroke-opacity:1; fill:none" points="2002.85,1734.12 2002.85,1715.22 "/>
<polyline clip-path="url(#clip910)" style="stroke:#000000; stroke-linecap:round; stroke-linejoin:round; stroke-width:4; stroke-opacity:1; fill:none" points="2572.41,1734.12 2572.41,1715.22 "/>
<path clip-path="url(#clip910)" d="M271.548 1767.34 Q267.937 1767.34 266.108 1770.9 Q264.303 1774.45 264.303 1781.58 Q264.303 1788.68 266.108 1792.25 Q267.937 1795.79 271.548 1795.79 Q275.182 1795.79 276.988 1792.25 Q278.817 1788.68 278.817 1781.58 Q278.817 1774.45 276.988 1770.9 Q275.182 1767.34 271.548 1767.34 M271.548 1763.64 Q277.358 1763.64 280.414 1768.24 Q283.493 1772.83 283.493 1781.58 Q283.493 1790.3 280.414 1794.91 Q277.358 1799.49 271.548 1799.49 Q265.738 1799.49 262.659 1794.91 Q259.604 1790.3 259.604 1781.58 Q259.604 1772.83 262.659 1768.24 Q265.738 1763.64 271.548 1763.64 Z" fill="#000000" fill-rule="nonzero" fill-opacity="1" /><path clip-path="url(#clip910)" d="M291.71 1792.94 L296.594 1792.94 L296.594 1798.82 L291.71 1798.82 L291.71 1792.94 Z" fill="#000000" fill-rule="nonzero" fill-opacity="1" /><path clip-path="url(#clip910)" d="M316.779 1767.34 Q313.168 1767.34 311.34 1770.9 Q309.534 1774.45 309.534 1781.58 Q309.534 1788.68 311.34 1792.25 Q313.168 1795.79 316.779 1795.79 Q320.414 1795.79 322.219 1792.25 Q324.048 1788.68 324.048 1781.58 Q324.048 1774.45 322.219 1770.9 Q320.414 1767.34 316.779 1767.34 M316.779 1763.64 Q322.59 1763.64 325.645 1768.24 Q328.724 1772.83 328.724 1781.58 Q328.724 1790.3 325.645 1794.91 Q322.59 1799.49 316.779 1799.49 Q310.969 1799.49 307.891 1794.91 Q304.835 1790.3 304.835 1781.58 Q304.835 1772.83 307.891 1768.24 Q310.969 1763.64 316.779 1763.64 Z" fill="#000000" fill-rule="nonzero" fill-opacity="1" /><path clip-path="url(#clip910)" d="M835.461 1794.89 L851.781 1794.89 L851.781 1798.82 L829.836 1798.82 L829.836 1794.89 Q832.498 1792.13 837.082 1787.5 Q841.688 1782.85 842.869 1781.51 Q845.114 1778.98 845.994 1777.25 Q846.896 1775.49 846.896 1773.8 Q846.896 1771.04 844.952 1769.31 Q843.031 1767.57 839.929 1767.57 Q837.73 1767.57 835.276 1768.34 Q832.846 1769.1 830.068 1770.65 L830.068 1765.93 Q832.892 1764.79 835.346 1764.21 Q837.799 1763.64 839.836 1763.64 Q845.207 1763.64 848.401 1766.32 Q851.595 1769.01 851.595 1773.5 Q851.595 1775.63 850.785 1777.55 Q849.998 1779.45 847.892 1782.04 Q847.313 1782.71 844.211 1785.93 Q841.109 1789.12 835.461 1794.89 Z" fill="#000000" fill-rule="nonzero" fill-opacity="1" /><path clip-path="url(#clip910)" d="M861.595 1792.94 L866.48 1792.94 L866.48 1798.82 L861.595 1798.82 L861.595 1792.94 Z" fill="#000000" fill-rule="nonzero" fill-opacity="1" /><path clip-path="url(#clip910)" d="M876.711 1764.26 L895.067 1764.26 L895.067 1768.2 L880.993 1768.2 L880.993 1776.67 Q882.012 1776.32 883.03 1776.16 Q884.049 1775.97 885.067 1775.97 Q890.854 1775.97 894.234 1779.15 Q897.614 1782.32 897.614 1787.73 Q897.614 1793.31 894.142 1796.41 Q890.669 1799.49 884.35 1799.49 Q882.174 1799.49 879.905 1799.12 Q877.66 1798.75 875.253 1798.01 L875.253 1793.31 Q877.336 1794.45 879.558 1795 Q881.78 1795.56 884.257 1795.56 Q888.262 1795.56 890.6 1793.45 Q892.938 1791.34 892.938 1787.73 Q892.938 1784.12 890.6 1782.02 Q888.262 1779.91 884.257 1779.91 Q882.382 1779.91 880.507 1780.33 Q878.655 1780.74 876.711 1781.62 L876.711 1764.26 Z" fill="#000000" fill-rule="nonzero" fill-opacity="1" /><path clip-path="url(#clip910)" d="M1400.45 1764.26 L1418.81 1764.26 L1418.81 1768.2 L1404.73 1768.2 L1404.73 1776.67 Q1405.75 1776.32 1406.77 1776.16 Q1407.79 1775.97 1408.81 1775.97 Q1414.59 1775.97 1417.97 1779.15 Q1421.35 1782.32 1421.35 1787.73 Q1421.35 1793.31 1417.88 1796.41 Q1414.41 1799.49 1408.09 1799.49 Q1405.91 1799.49 1403.65 1799.12 Q1401.4 1798.75 1398.99 1798.01 L1398.99 1793.31 Q1401.08 1794.45 1403.3 1795 Q1405.52 1795.56 1408 1795.56 Q1412 1795.56 1414.34 1793.45 Q1416.68 1791.34 1416.68 1787.73 Q1416.68 1784.12 1414.34 1782.02 Q1412 1779.91 1408 1779.91 Q1406.12 1779.91 1404.25 1780.33 Q1402.4 1780.74 1400.45 1781.62 L1400.45 1764.26 Z" fill="#000000" fill-rule="nonzero" fill-opacity="1" /><path clip-path="url(#clip910)" d="M1430.57 1792.94 L1435.45 1792.94 L1435.45 1798.82 L1430.57 1798.82 L1430.57 1792.94 Z" fill="#000000" fill-rule="nonzero" fill-opacity="1" /><path clip-path="url(#clip910)" d="M1455.64 1767.34 Q1452.02 1767.34 1450.2 1770.9 Q1448.39 1774.45 1448.39 1781.58 Q1448.39 1788.68 1450.2 1792.25 Q1452.02 1795.79 1455.64 1795.79 Q1459.27 1795.79 1461.08 1792.25 Q1462.9 1788.68 1462.9 1781.58 Q1462.9 1774.45 1461.08 1770.9 Q1459.27 1767.34 1455.64 1767.34 M1455.64 1763.64 Q1461.45 1763.64 1464.5 1768.24 Q1467.58 1772.83 1467.58 1781.58 Q1467.58 1790.3 1464.5 1794.91 Q1461.45 1799.49 1455.64 1799.49 Q1449.83 1799.49 1446.75 1794.91 Q1443.69 1790.3 1443.69 1781.58 Q1443.69 1772.83 1446.75 1768.24 Q1449.83 1763.64 1455.64 1763.64 Z" fill="#000000" fill-rule="nonzero" fill-opacity="1" /><path clip-path="url(#clip910)" d="M1969.17 1764.26 L1991.39 1764.26 L1991.39 1766.25 L1978.84 1798.82 L1973.96 1798.82 L1985.76 1768.2 L1969.17 1768.2 L1969.17 1764.26 Z" fill="#000000" fill-rule="nonzero" fill-opacity="1" /><path clip-path="url(#clip910)" d="M2000.51 1792.94 L2005.39 1792.94 L2005.39 1798.82 L2000.51 1798.82 L2000.51 1792.94 Z" fill="#000000" fill-rule="nonzero" fill-opacity="1" /><path clip-path="url(#clip910)" d="M2015.63 1764.26 L2033.98 1764.26 L2033.98 1768.2 L2019.91 1768.2 L2019.91 1776.67 Q2020.93 1776.32 2021.94 1776.16 Q2022.96 1775.97 2023.98 1775.97 Q2029.77 1775.97 2033.15 1779.15 Q2036.53 1782.32 2036.53 1787.73 Q2036.53 1793.31 2033.06 1796.41 Q2029.58 1799.49 2023.26 1799.49 Q2021.09 1799.49 2018.82 1799.12 Q2016.57 1798.75 2014.17 1798.01 L2014.17 1793.31 Q2016.25 1794.45 2018.47 1795 Q2020.69 1795.56 2023.17 1795.56 Q2027.18 1795.56 2029.51 1793.45 Q2031.85 1791.34 2031.85 1787.73 Q2031.85 1784.12 2029.51 1782.02 Q2027.18 1779.91 2023.17 1779.91 Q2021.3 1779.91 2019.42 1780.33 Q2017.57 1780.74 2015.63 1781.62 L2015.63 1764.26 Z" fill="#000000" fill-rule="nonzero" fill-opacity="1" /><path clip-path="url(#clip910)" d="M2524.48 1794.89 L2532.12 1794.89 L2532.12 1768.52 L2523.81 1770.19 L2523.81 1765.93 L2532.07 1764.26 L2536.75 1764.26 L2536.75 1794.89 L2544.39 1794.89 L2544.39 1798.82 L2524.48 1798.82 L2524.48 1794.89 Z" fill="#000000" fill-rule="nonzero" fill-opacity="1" /><path clip-path="url(#clip910)" d="M2563.83 1767.34 Q2560.22 1767.34 2558.39 1770.9 Q2556.59 1774.45 2556.59 1781.58 Q2556.59 1788.68 2558.39 1792.25 Q2560.22 1795.79 2563.83 1795.79 Q2567.47 1795.79 2569.27 1792.25 Q2571.1 1788.68 2571.1 1781.58 Q2571.1 1774.45 2569.27 1770.9 Q2567.47 1767.34 2563.83 1767.34 M2563.83 1763.64 Q2569.64 1763.64 2572.7 1768.24 Q2575.78 1772.83 2575.78 1781.58 Q2575.78 1790.3 2572.7 1794.91 Q2569.64 1799.49 2563.83 1799.49 Q2558.02 1799.49 2554.94 1794.91 Q2551.89 1790.3 2551.89 1781.58 Q2551.89 1772.83 2554.94 1768.24 Q2558.02 1763.64 2563.83 1763.64 Z" fill="#000000" fill-rule="nonzero" fill-opacity="1" /><path clip-path="url(#clip910)" d="M2583.99 1792.94 L2588.88 1792.94 L2588.88 1798.82 L2583.99 1798.82 L2583.99 1792.94 Z" fill="#000000" fill-rule="nonzero" fill-opacity="1" /><path clip-path="url(#clip910)" d="M2609.06 1767.34 Q2605.45 1767.34 2603.62 1770.9 Q2601.82 1774.45 2601.82 1781.58 Q2601.82 1788.68 2603.62 1792.25 Q2605.45 1795.79 2609.06 1795.79 Q2612.7 1795.79 2614.5 1792.25 Q2616.33 1788.68 2616.33 1781.58 Q2616.33 1774.45 2614.5 1770.9 Q2612.7 1767.34 2609.06 1767.34 M2609.06 1763.64 Q2614.87 1763.64 2617.93 1768.24 Q2621.01 1772.83 2621.01 1781.58 Q2621.01 1790.3 2617.93 1794.91 Q2614.87 1799.49 2609.06 1799.49 Q2603.25 1799.49 2600.17 1794.91 Q2597.12 1790.3 2597.12 1781.58 Q2597.12 1772.83 2600.17 1768.24 Q2603.25 1763.64 2609.06 1763.64 Z" fill="#000000" fill-rule="nonzero" fill-opacity="1" /><path clip-path="url(#clip910)" d="M1147.63 1861.02 Q1149.69 1861.72 1151.64 1864.01 Q1153.61 1866.3 1155.58 1870.31 L1162.11 1883.3 L1155.2 1883.3 L1149.12 1871.11 Q1146.77 1866.34 1144.54 1864.78 Q1142.34 1863.22 1138.52 1863.22 L1131.52 1863.22 L1131.52 1883.3 L1125.09 1883.3 L1125.09 1835.78 L1139.6 1835.78 Q1147.75 1835.78 1151.76 1839.19 Q1155.77 1842.59 1155.77 1849.47 Q1155.77 1853.96 1153.67 1856.92 Q1151.6 1859.88 1147.63 1861.02 M1131.52 1841.06 L1131.52 1857.93 L1139.6 1857.93 Q1144.25 1857.93 1146.61 1855.8 Q1148.99 1853.64 1148.99 1849.47 Q1148.99 1845.3 1146.61 1843.2 Q1144.25 1841.06 1139.6 1841.06 L1131.52 1841.06 Z" fill="#000000" fill-rule="nonzero" fill-opacity="1" /><path clip-path="url(#clip910)" d="M1197.69 1864.01 L1197.69 1866.88 L1170.76 1866.88 Q1171.15 1872.92 1174.39 1876.11 Q1177.67 1879.26 1183.5 1879.26 Q1186.87 1879.26 1190.02 1878.43 Q1193.2 1877.6 1196.32 1875.95 L1196.32 1881.49 Q1193.17 1882.82 1189.86 1883.52 Q1186.55 1884.22 1183.15 1884.22 Q1174.62 1884.22 1169.62 1879.26 Q1164.65 1874.29 1164.65 1865.83 Q1164.65 1857.07 1169.36 1851.95 Q1174.11 1846.79 1182.13 1846.79 Q1189.32 1846.79 1193.49 1851.44 Q1197.69 1856.06 1197.69 1864.01 M1191.83 1862.29 Q1191.77 1857.49 1189.13 1854.62 Q1186.52 1851.76 1182.19 1851.76 Q1177.29 1851.76 1174.33 1854.53 Q1171.4 1857.3 1170.96 1862.33 L1191.83 1862.29 Z" fill="#000000" fill-rule="nonzero" fill-opacity="1" /><path clip-path="url(#clip910)" d="M1230.03 1848.7 L1230.03 1854.24 Q1227.55 1852.97 1224.87 1852.33 Q1222.2 1851.7 1219.33 1851.7 Q1214.97 1851.7 1212.78 1853.03 Q1210.61 1854.37 1210.61 1857.04 Q1210.61 1859.08 1212.17 1860.26 Q1213.73 1861.4 1218.44 1862.45 L1220.45 1862.9 Q1226.69 1864.24 1229.3 1866.69 Q1231.94 1869.11 1231.94 1873.47 Q1231.94 1878.43 1227.99 1881.33 Q1224.08 1884.22 1217.2 1884.22 Q1214.34 1884.22 1211.22 1883.65 Q1208.13 1883.11 1204.69 1882 L1204.69 1875.95 Q1207.94 1877.64 1211.09 1878.49 Q1214.24 1879.32 1217.33 1879.32 Q1221.47 1879.32 1223.7 1877.92 Q1225.92 1876.49 1225.92 1873.91 Q1225.92 1871.52 1224.3 1870.25 Q1222.71 1868.98 1217.27 1867.8 L1215.23 1867.32 Q1209.79 1866.18 1207.37 1863.82 Q1204.95 1861.43 1204.95 1857.3 Q1204.95 1852.27 1208.51 1849.53 Q1212.08 1846.79 1218.63 1846.79 Q1221.88 1846.79 1224.75 1847.27 Q1227.61 1847.75 1230.03 1848.7 Z" fill="#000000" fill-rule="nonzero" fill-opacity="1" /><path clip-path="url(#clip910)" d="M1255.08 1851.76 Q1250.37 1851.76 1247.63 1855.45 Q1244.89 1859.11 1244.89 1865.51 Q1244.89 1871.91 1247.6 1875.6 Q1250.34 1879.26 1255.08 1879.26 Q1259.76 1879.26 1262.49 1875.57 Q1265.23 1871.87 1265.23 1865.51 Q1265.23 1859.17 1262.49 1855.48 Q1259.76 1851.76 1255.08 1851.76 M1255.08 1846.79 Q1262.72 1846.79 1267.08 1851.76 Q1271.44 1856.72 1271.44 1865.51 Q1271.44 1874.26 1267.08 1879.26 Q1262.72 1884.22 1255.08 1884.22 Q1247.41 1884.22 1243.05 1879.26 Q1238.72 1874.26 1238.72 1865.51 Q1238.72 1856.72 1243.05 1851.76 Q1247.41 1846.79 1255.08 1846.79 Z" fill="#000000" fill-rule="nonzero" fill-opacity="1" /><path clip-path="url(#clip910)" d="M1280.54 1869.23 L1280.54 1847.65 L1286.4 1847.65 L1286.4 1869.01 Q1286.4 1874.07 1288.37 1876.62 Q1290.34 1879.13 1294.29 1879.13 Q1299.03 1879.13 1301.77 1876.11 Q1304.54 1873.08 1304.54 1867.86 L1304.54 1847.65 L1310.4 1847.65 L1310.4 1883.3 L1304.54 1883.3 L1304.54 1877.83 Q1302.41 1881.07 1299.57 1882.66 Q1296.77 1884.22 1293.05 1884.22 Q1286.91 1884.22 1283.72 1880.4 Q1280.54 1876.59 1280.54 1869.23 M1295.28 1846.79 L1295.28 1846.79 Z" fill="#000000" fill-rule="nonzero" fill-opacity="1" /><path clip-path="url(#clip910)" d="M1343.12 1853.13 Q1342.13 1852.55 1340.95 1852.3 Q1339.81 1852.01 1338.41 1852.01 Q1333.44 1852.01 1330.77 1855.26 Q1328.12 1858.47 1328.12 1864.52 L1328.12 1883.3 L1322.24 1883.3 L1322.24 1847.65 L1328.12 1847.65 L1328.12 1853.19 Q1329.97 1849.94 1332.93 1848.39 Q1335.89 1846.79 1340.12 1846.79 Q1340.73 1846.79 1341.46 1846.89 Q1342.19 1846.95 1343.08 1847.11 L1343.12 1853.13 Z" fill="#000000" fill-rule="nonzero" fill-opacity="1" /><path clip-path="url(#clip910)" d="M1373.48 1849.02 L1373.48 1854.5 Q1371 1853.13 1368.48 1852.46 Q1366 1851.76 1363.45 1851.76 Q1357.76 1851.76 1354.61 1855.39 Q1351.46 1858.98 1351.46 1865.51 Q1351.46 1872.03 1354.61 1875.66 Q1357.76 1879.26 1363.45 1879.26 Q1366 1879.26 1368.48 1878.59 Q1371 1877.89 1373.48 1876.52 L1373.48 1881.93 Q1371.03 1883.08 1368.39 1883.65 Q1365.78 1884.22 1362.82 1884.22 Q1354.77 1884.22 1350.02 1879.16 Q1345.28 1874.1 1345.28 1865.51 Q1345.28 1856.79 1350.05 1851.79 Q1354.86 1846.79 1363.2 1846.79 Q1365.91 1846.79 1368.48 1847.37 Q1371.06 1847.91 1373.48 1849.02 Z" fill="#000000" fill-rule="nonzero" fill-opacity="1" /><path clip-path="url(#clip910)" d="M1414.16 1864.01 L1414.16 1866.88 L1387.23 1866.88 Q1387.61 1872.92 1390.86 1876.11 Q1394.14 1879.26 1399.96 1879.26 Q1403.34 1879.26 1406.49 1878.43 Q1409.67 1877.6 1412.79 1875.95 L1412.79 1881.49 Q1409.64 1882.82 1406.33 1883.52 Q1403.02 1884.22 1399.61 1884.22 Q1391.08 1884.22 1386.08 1879.26 Q1381.12 1874.29 1381.12 1865.83 Q1381.12 1857.07 1385.83 1851.95 Q1390.57 1846.79 1398.59 1846.79 Q1405.79 1846.79 1409.96 1851.44 Q1414.16 1856.06 1414.16 1864.01 M1408.3 1862.29 Q1408.24 1857.49 1405.6 1854.62 Q1402.99 1851.76 1398.66 1851.76 Q1393.76 1851.76 1390.8 1854.53 Q1387.87 1857.3 1387.42 1862.33 L1408.3 1862.29 Z" fill="#000000" fill-rule="nonzero" fill-opacity="1" /><path clip-path="url(#clip910)" d="M1467.95 1853.06 L1467.95 1833.78 L1473.8 1833.78 L1473.8 1883.3 L1467.95 1883.3 L1467.95 1877.95 Q1466.1 1881.14 1463.27 1882.7 Q1460.47 1884.22 1456.52 1884.22 Q1450.06 1884.22 1445.99 1879.07 Q1441.94 1873.91 1441.94 1865.51 Q1441.94 1857.11 1445.99 1851.95 Q1450.06 1846.79 1456.52 1846.79 Q1460.47 1846.79 1463.27 1848.35 Q1466.1 1849.88 1467.95 1853.06 M1447.99 1865.51 Q1447.99 1871.97 1450.63 1875.66 Q1453.31 1879.32 1457.95 1879.32 Q1462.6 1879.32 1465.27 1875.66 Q1467.95 1871.97 1467.95 1865.51 Q1467.95 1859.05 1465.27 1855.39 Q1462.6 1851.7 1457.95 1851.7 Q1453.31 1851.7 1450.63 1855.39 Q1447.99 1859.05 1447.99 1865.51 Z" fill="#000000" fill-rule="nonzero" fill-opacity="1" /><path clip-path="url(#clip910)" d="M1516.36 1864.01 L1516.36 1866.88 L1489.43 1866.88 Q1489.81 1872.92 1493.06 1876.11 Q1496.34 1879.26 1502.16 1879.26 Q1505.54 1879.26 1508.69 1878.43 Q1511.87 1877.6 1514.99 1875.95 L1514.99 1881.49 Q1511.84 1882.82 1508.53 1883.52 Q1505.22 1884.22 1501.81 1884.22 Q1493.28 1884.22 1488.29 1879.26 Q1483.32 1874.29 1483.32 1865.83 Q1483.32 1857.07 1488.03 1851.95 Q1492.77 1846.79 1500.79 1846.79 Q1507.99 1846.79 1512.16 1851.44 Q1516.36 1856.06 1516.36 1864.01 M1510.5 1862.29 Q1510.44 1857.49 1507.8 1854.62 Q1505.19 1851.76 1500.86 1851.76 Q1495.96 1851.76 1493 1854.53 Q1490.07 1857.3 1489.62 1862.33 L1510.5 1862.29 Z" fill="#000000" fill-rule="nonzero" fill-opacity="1" /><path clip-path="url(#clip910)" d="M1555.6 1861.78 L1555.6 1883.3 L1549.75 1883.3 L1549.75 1861.98 Q1549.75 1856.92 1547.77 1854.4 Q1545.8 1851.89 1541.85 1851.89 Q1537.11 1851.89 1534.37 1854.91 Q1531.64 1857.93 1531.64 1863.15 L1531.64 1883.3 L1525.75 1883.3 L1525.75 1847.65 L1531.64 1847.65 L1531.64 1853.19 Q1533.74 1849.98 1536.57 1848.39 Q1539.43 1846.79 1543.16 1846.79 Q1549.3 1846.79 1552.45 1850.61 Q1555.6 1854.4 1555.6 1861.78 Z" fill="#000000" fill-rule="nonzero" fill-opacity="1" /><path clip-path="url(#clip910)" d="M1590.01 1848.7 L1590.01 1854.24 Q1587.53 1852.97 1584.85 1852.33 Q1582.18 1851.7 1579.32 1851.7 Q1574.95 1851.7 1572.76 1853.03 Q1570.59 1854.37 1570.59 1857.04 Q1570.59 1859.08 1572.15 1860.26 Q1573.71 1861.4 1578.42 1862.45 L1580.43 1862.9 Q1586.67 1864.24 1589.28 1866.69 Q1591.92 1869.11 1591.92 1873.47 Q1591.92 1878.43 1587.97 1881.33 Q1584.06 1884.22 1577.18 1884.22 Q1574.32 1884.22 1571.2 1883.65 Q1568.11 1883.11 1564.67 1882 L1564.67 1875.95 Q1567.92 1877.64 1571.07 1878.49 Q1574.22 1879.32 1577.31 1879.32 Q1581.45 1879.32 1583.68 1877.92 Q1585.9 1876.49 1585.9 1873.91 Q1585.9 1871.52 1584.28 1870.25 Q1582.69 1868.98 1577.25 1867.8 L1575.21 1867.32 Q1569.77 1866.18 1567.35 1863.82 Q1564.93 1861.43 1564.93 1857.3 Q1564.93 1852.27 1568.49 1849.53 Q1572.06 1846.79 1578.62 1846.79 Q1581.86 1846.79 1584.73 1847.27 Q1587.59 1847.75 1590.01 1848.7 Z" fill="#000000" fill-rule="nonzero" fill-opacity="1" /><path clip-path="url(#clip910)" d="M1601.25 1847.65 L1607.1 1847.65 L1607.1 1883.3 L1601.25 1883.3 L1601.25 1847.65 M1601.25 1833.78 L1607.1 1833.78 L1607.1 1841.19 L1601.25 1841.19 L1601.25 1833.78 Z" fill="#000000" fill-rule="nonzero" fill-opacity="1" /><path clip-path="url(#clip910)" d="M1625.15 1837.53 L1625.15 1847.65 L1637.21 1847.65 L1637.21 1852.2 L1625.15 1852.2 L1625.15 1871.56 Q1625.15 1875.92 1626.33 1877.16 Q1627.54 1878.4 1631.2 1878.4 L1637.21 1878.4 L1637.21 1883.3 L1631.2 1883.3 Q1624.42 1883.3 1621.84 1880.79 Q1619.26 1878.24 1619.26 1871.56 L1619.26 1852.2 L1614.96 1852.2 L1614.96 1847.65 L1619.26 1847.65 L1619.26 1837.53 L1625.15 1837.53 Z" fill="#000000" fill-rule="nonzero" fill-opacity="1" /><path clip-path="url(#clip910)" d="M1659.75 1886.61 Q1657.26 1892.98 1654.91 1894.92 Q1652.55 1896.86 1648.61 1896.86 L1643.93 1896.86 L1643.93 1891.96 L1647.36 1891.96 Q1649.78 1891.96 1651.12 1890.81 Q1652.46 1889.67 1654.08 1885.4 L1655.13 1882.73 L1640.71 1847.65 L1646.92 1847.65 L1658.06 1875.53 L1669.2 1847.65 L1675.41 1847.65 L1659.75 1886.61 Z" fill="#000000" fill-rule="nonzero" fill-opacity="1" /><path clip-path="url(#clip910)" d="M1727 1861.02 Q1729.07 1861.72 1731.01 1864.01 Q1732.98 1866.3 1734.96 1870.31 L1741.48 1883.3 L1734.58 1883.3 L1728.5 1871.11 Q1726.14 1866.34 1723.91 1864.78 Q1721.72 1863.22 1717.9 1863.22 L1710.89 1863.22 L1710.89 1883.3 L1704.47 1883.3 L1704.47 1835.78 L1718.98 1835.78 Q1727.13 1835.78 1731.14 1839.19 Q1735.15 1842.59 1735.15 1849.47 Q1735.15 1853.96 1733.05 1856.92 Q1730.98 1859.88 1727 1861.02 M1710.89 1841.06 L1710.89 1857.93 L1718.98 1857.93 Q1723.63 1857.93 1725.98 1855.8 Q1728.37 1853.64 1728.37 1849.47 Q1728.37 1845.3 1725.98 1843.2 Q1723.63 1841.06 1718.98 1841.06 L1710.89 1841.06 Z" fill="#000000" fill-rule="nonzero" fill-opacity="1" /><polyline clip-path="url(#clip910)" style="stroke:#000000; stroke-linecap:round; stroke-linejoin:round; stroke-width:4; stroke-opacity:1; fill:none" points="225.816,1734.12 225.816,127.792 "/>
<polyline clip-path="url(#clip910)" style="stroke:#000000; stroke-linecap:round; stroke-linejoin:round; stroke-width:4; stroke-opacity:1; fill:none" points="225.816,1500.82 244.714,1500.82 "/>
<polyline clip-path="url(#clip910)" style="stroke:#000000; stroke-linecap:round; stroke-linejoin:round; stroke-width:4; stroke-opacity:1; fill:none" points="225.816,1225.62 244.714,1225.62 "/>
<polyline clip-path="url(#clip910)" style="stroke:#000000; stroke-linecap:round; stroke-linejoin:round; stroke-width:4; stroke-opacity:1; fill:none" points="225.816,950.422 244.714,950.422 "/>
<polyline clip-path="url(#clip910)" style="stroke:#000000; stroke-linecap:round; stroke-linejoin:round; stroke-width:4; stroke-opacity:1; fill:none" points="225.816,675.223 244.714,675.223 "/>
<polyline clip-path="url(#clip910)" style="stroke:#000000; stroke-linecap:round; stroke-linejoin:round; stroke-width:4; stroke-opacity:1; fill:none" points="225.816,400.024 244.714,400.024 "/>
<path clip-path="url(#clip910)" d="M128.969 1486.62 Q125.358 1486.62 123.529 1490.18 Q121.724 1493.73 121.724 1500.86 Q121.724 1507.96 123.529 1511.53 Q125.358 1515.07 128.969 1515.07 Q132.603 1515.07 134.409 1511.53 Q136.237 1507.96 136.237 1500.86 Q136.237 1493.73 134.409 1490.18 Q132.603 1486.62 128.969 1486.62 M128.969 1482.92 Q134.779 1482.92 137.835 1487.52 Q140.913 1492.11 140.913 1500.86 Q140.913 1509.58 137.835 1514.19 Q134.779 1518.77 128.969 1518.77 Q123.159 1518.77 120.08 1514.19 Q117.025 1509.58 117.025 1500.86 Q117.025 1492.11 120.08 1487.52 Q123.159 1482.92 128.969 1482.92 Z" fill="#000000" fill-rule="nonzero" fill-opacity="1" /><path clip-path="url(#clip910)" d="M149.131 1512.22 L154.015 1512.22 L154.015 1518.1 L149.131 1518.1 L149.131 1512.22 Z" fill="#000000" fill-rule="nonzero" fill-opacity="1" /><path clip-path="url(#clip910)" d="M178.367 1499.47 Q181.723 1500.18 183.598 1502.45 Q185.496 1504.72 185.496 1508.05 Q185.496 1513.17 181.978 1515.97 Q178.459 1518.77 171.978 1518.77 Q169.802 1518.77 167.487 1518.33 Q165.196 1517.92 162.742 1517.06 L162.742 1512.55 Q164.686 1513.68 167.001 1514.26 Q169.316 1514.84 171.839 1514.84 Q176.237 1514.84 178.529 1513.1 Q180.844 1511.36 180.844 1508.05 Q180.844 1505 178.691 1503.29 Q176.561 1501.55 172.742 1501.55 L168.714 1501.55 L168.714 1497.71 L172.927 1497.71 Q176.376 1497.71 178.205 1496.34 Q180.034 1494.95 180.034 1492.36 Q180.034 1489.7 178.135 1488.29 Q176.26 1486.85 172.742 1486.85 Q170.821 1486.85 168.622 1487.27 Q166.423 1487.68 163.784 1488.56 L163.784 1484.4 Q166.446 1483.66 168.76 1483.29 Q171.098 1482.92 173.159 1482.92 Q178.483 1482.92 181.584 1485.35 Q184.686 1487.75 184.686 1491.87 Q184.686 1494.74 183.043 1496.73 Q181.399 1498.7 178.367 1499.47 Z" fill="#000000" fill-rule="nonzero" fill-opacity="1" /><path clip-path="url(#clip910)" d="M128.159 1211.42 Q124.548 1211.42 122.719 1214.98 Q120.913 1218.53 120.913 1225.66 Q120.913 1232.76 122.719 1236.33 Q124.548 1239.87 128.159 1239.87 Q131.793 1239.87 133.599 1236.33 Q135.427 1232.76 135.427 1225.66 Q135.427 1218.53 133.599 1214.98 Q131.793 1211.42 128.159 1211.42 M128.159 1207.72 Q133.969 1207.72 137.025 1212.32 Q140.103 1216.91 140.103 1225.66 Q140.103 1234.38 137.025 1238.99 Q133.969 1243.57 128.159 1243.57 Q122.349 1243.57 119.27 1238.99 Q116.214 1234.38 116.214 1225.66 Q116.214 1216.91 119.27 1212.32 Q122.349 1207.72 128.159 1207.72 Z" fill="#000000" fill-rule="nonzero" fill-opacity="1" /><path clip-path="url(#clip910)" d="M148.321 1237.02 L153.205 1237.02 L153.205 1242.9 L148.321 1242.9 L148.321 1237.02 Z" fill="#000000" fill-rule="nonzero" fill-opacity="1" /><path clip-path="url(#clip910)" d="M173.969 1223.76 Q170.821 1223.76 168.969 1225.91 Q167.14 1228.06 167.14 1231.81 Q167.14 1235.54 168.969 1237.72 Q170.821 1239.87 173.969 1239.87 Q177.117 1239.87 178.946 1237.72 Q180.797 1235.54 180.797 1231.81 Q180.797 1228.06 178.946 1225.91 Q177.117 1223.76 173.969 1223.76 M183.251 1209.11 L183.251 1213.36 Q181.492 1212.53 179.686 1212.09 Q177.904 1211.65 176.145 1211.65 Q171.515 1211.65 169.061 1214.78 Q166.631 1217.9 166.284 1224.22 Q167.649 1222.21 169.71 1221.14 Q171.77 1220.05 174.247 1220.05 Q179.455 1220.05 182.464 1223.23 Q185.496 1226.37 185.496 1231.81 Q185.496 1237.14 182.348 1240.36 Q179.2 1243.57 173.969 1243.57 Q167.973 1243.57 164.802 1238.99 Q161.631 1234.38 161.631 1225.66 Q161.631 1217.46 165.52 1212.6 Q169.409 1207.72 175.959 1207.72 Q177.719 1207.72 179.501 1208.06 Q181.307 1208.41 183.251 1209.11 Z" fill="#000000" fill-rule="nonzero" fill-opacity="1" /><path clip-path="url(#clip910)" d="M128.506 936.221 Q124.895 936.221 123.066 939.786 Q121.261 943.327 121.261 950.457 Q121.261 957.563 123.066 961.128 Q124.895 964.67 128.506 964.67 Q132.14 964.67 133.946 961.128 Q135.775 957.563 135.775 950.457 Q135.775 943.327 133.946 939.786 Q132.14 936.221 128.506 936.221 M128.506 932.517 Q134.316 932.517 137.372 937.124 Q140.45 941.707 140.45 950.457 Q140.45 959.184 137.372 963.79 Q134.316 968.373 128.506 968.373 Q122.696 968.373 119.617 963.79 Q116.562 959.184 116.562 950.457 Q116.562 941.707 119.617 937.124 Q122.696 932.517 128.506 932.517 Z" fill="#000000" fill-rule="nonzero" fill-opacity="1" /><path clip-path="url(#clip910)" d="M148.668 961.823 L153.552 961.823 L153.552 967.702 L148.668 967.702 L148.668 961.823 Z" fill="#000000" fill-rule="nonzero" fill-opacity="1" /><path clip-path="url(#clip910)" d="M163.876 966.985 L163.876 962.725 Q165.635 963.559 167.441 963.998 Q169.247 964.438 170.983 964.438 Q175.612 964.438 178.043 961.336 Q180.497 958.211 180.844 951.869 Q179.501 953.86 177.441 954.924 Q175.381 955.989 172.881 955.989 Q167.696 955.989 164.663 952.864 Q161.654 949.716 161.654 944.276 Q161.654 938.952 164.802 935.735 Q167.95 932.517 173.182 932.517 Q179.177 932.517 182.325 937.124 Q185.496 941.707 185.496 950.457 Q185.496 958.628 181.608 963.512 Q177.742 968.373 171.191 968.373 Q169.432 968.373 167.626 968.026 Q165.821 967.679 163.876 966.985 M173.182 952.332 Q176.33 952.332 178.159 950.179 Q180.01 948.026 180.01 944.276 Q180.01 940.55 178.159 938.397 Q176.33 936.221 173.182 936.221 Q170.034 936.221 168.182 938.397 Q166.353 940.55 166.353 944.276 Q166.353 948.026 168.182 950.179 Q170.034 952.332 173.182 952.332 Z" fill="#000000" fill-rule="nonzero" fill-opacity="1" /><path clip-path="url(#clip910)" d="M120.728 688.568 L128.367 688.568 L128.367 662.202 L120.057 663.869 L120.057 659.61 L128.321 657.943 L132.997 657.943 L132.997 688.568 L140.636 688.568 L140.636 692.503 L120.728 692.503 L120.728 688.568 Z" fill="#000000" fill-rule="nonzero" fill-opacity="1" /><path clip-path="url(#clip910)" d="M150.08 686.623 L154.964 686.623 L154.964 692.503 L150.08 692.503 L150.08 686.623 Z" fill="#000000" fill-rule="nonzero" fill-opacity="1" /><path clip-path="url(#clip910)" d="M169.177 688.568 L185.496 688.568 L185.496 692.503 L163.552 692.503 L163.552 688.568 Q166.214 685.813 170.797 681.184 Q175.404 676.531 176.584 675.188 Q178.83 672.665 179.709 670.929 Q180.612 669.17 180.612 667.48 Q180.612 664.725 178.668 662.989 Q176.747 661.253 173.645 661.253 Q171.446 661.253 168.992 662.017 Q166.561 662.781 163.784 664.332 L163.784 659.61 Q166.608 658.475 169.061 657.897 Q171.515 657.318 173.552 657.318 Q178.922 657.318 182.117 660.003 Q185.311 662.688 185.311 667.179 Q185.311 669.309 184.501 671.23 Q183.714 673.128 181.608 675.721 Q181.029 676.392 177.927 679.609 Q174.825 682.804 169.177 688.568 Z" fill="#000000" fill-rule="nonzero" fill-opacity="1" /><path clip-path="url(#clip910)" d="M120.126 413.369 L127.765 413.369 L127.765 387.003 L119.455 388.67 L119.455 384.41 L127.719 382.744 L132.395 382.744 L132.395 413.369 L140.034 413.369 L140.034 417.304 L120.126 417.304 L120.126 413.369 Z" fill="#000000" fill-rule="nonzero" fill-opacity="1" /><path clip-path="url(#clip910)" d="M149.478 411.424 L154.362 411.424 L154.362 417.304 L149.478 417.304 L149.478 411.424 Z" fill="#000000" fill-rule="nonzero" fill-opacity="1" /><path clip-path="url(#clip910)" d="M164.594 382.744 L182.95 382.744 L182.95 386.679 L168.876 386.679 L168.876 395.151 Q169.895 394.804 170.913 394.642 Q171.932 394.457 172.95 394.457 Q178.737 394.457 182.117 397.628 Q185.496 400.799 185.496 406.216 Q185.496 411.795 182.024 414.896 Q178.552 417.975 172.233 417.975 Q170.057 417.975 167.788 417.605 Q165.543 417.234 163.135 416.494 L163.135 411.795 Q165.219 412.929 167.441 413.484 Q169.663 414.04 172.14 414.04 Q176.145 414.04 178.483 411.933 Q180.821 409.827 180.821 406.216 Q180.821 402.605 178.483 400.498 Q176.145 398.392 172.14 398.392 Q170.265 398.392 168.39 398.808 Q166.538 399.225 164.594 400.105 L164.594 382.744 Z" fill="#000000" fill-rule="nonzero" fill-opacity="1" /><path clip-path="url(#clip910)" d="M12.1132 964.263 L16.983 964.263 L16.983 969.865 Q16.983 973.016 18.2562 974.257 Q19.5293 975.467 22.8395 975.467 L25.9905 975.467 L25.9905 965.823 L30.542 965.823 L30.542 975.467 L61.6384 975.467 L61.6384 981.355 L30.542 981.355 L30.542 986.957 L25.9905 986.957 L25.9905 981.355 L23.5079 981.355 Q17.5559 981.355 14.8505 978.586 Q12.1132 975.817 12.1132 969.801 L12.1132 964.263 Z" fill="#000000" fill-rule="nonzero" fill-opacity="1" /><path clip-path="url(#clip910)" d="M12.1769 945.293 Q19.4975 949.558 26.6589 951.627 Q33.8203 953.696 41.1727 953.696 Q48.5251 953.696 55.7502 951.627 Q62.9434 949.527 70.2321 945.293 L70.2321 950.386 Q62.7524 955.16 55.5274 957.547 Q48.3023 959.903 41.1727 959.903 Q34.0749 959.903 26.8817 957.547 Q19.6884 955.192 12.1769 950.386 L12.1769 945.293 Z" fill="#000000" fill-rule="nonzero" fill-opacity="1" /><path clip-path="url(#clip910)" d="M39.3585 911.141 Q40.0587 909.072 42.3504 907.131 Q44.642 905.158 48.6524 903.184 L61.6384 896.659 L61.6384 903.566 L49.4481 909.645 Q44.6738 912.001 43.1142 914.229 Q41.5546 916.425 41.5546 920.244 L41.5546 927.247 L61.6384 927.247 L61.6384 933.676 L14.1184 933.676 L14.1184 919.162 Q14.1184 911.014 17.5241 907.004 Q20.9297 902.993 27.8047 902.993 Q32.2925 902.993 35.2526 905.094 Q38.2126 907.163 39.3585 911.141 M19.402 927.247 L36.2711 927.247 L36.2711 919.162 Q36.2711 914.515 34.1386 912.16 Q31.9743 909.773 27.8047 909.773 Q23.6352 909.773 21.5345 912.16 Q19.402 914.515 19.402 919.162 L19.402 927.247 Z" fill="#000000" fill-rule="nonzero" fill-opacity="1" /><path clip-path="url(#clip910)" d="M12.1769 889.562 L12.1769 884.469 Q19.6884 879.695 26.8817 877.339 Q34.0749 874.952 41.1727 874.952 Q48.3023 874.952 55.5274 877.339 Q62.7524 879.695 70.2321 884.469 L70.2321 889.562 Q62.9434 885.328 55.7502 883.259 Q48.5251 881.159 41.1727 881.159 Q33.8203 881.159 26.6589 883.259 Q19.4975 885.328 12.1769 889.562 Z" fill="#000000" fill-rule="nonzero" fill-opacity="1" /><path clip-path="url(#clip910)" d="M580.085 12.096 L614.842 12.096 L614.842 18.9825 L588.268 18.9825 L588.268 36.8065 L612.249 36.8065 L612.249 43.6931 L588.268 43.6931 L588.268 72.576 L580.085 72.576 L580.085 12.096 Z" fill="#000000" fill-rule="nonzero" fill-opacity="1" /><path clip-path="url(#clip910)" d="M622.174 54.671 L622.174 27.2059 L629.627 27.2059 L629.627 54.3874 Q629.627 60.8284 632.139 64.0691 Q634.65 67.2693 639.674 67.2693 Q645.709 67.2693 649.193 63.421 Q652.717 59.5726 652.717 52.9291 L652.717 27.2059 L660.171 27.2059 L660.171 72.576 L652.717 72.576 L652.717 65.6084 Q650.003 69.7404 646.398 71.7658 Q642.833 73.7508 638.094 73.7508 Q630.275 73.7508 626.225 68.8897 Q622.174 64.0286 622.174 54.671 M640.929 26.1121 L640.929 26.1121 Z" fill="#000000" fill-rule="nonzero" fill-opacity="1" /><path clip-path="url(#clip910)" d="M713.238 45.1919 L713.238 72.576 L705.784 72.576 L705.784 45.4349 Q705.784 38.994 703.273 35.7938 Q700.761 32.5936 695.738 32.5936 Q689.702 32.5936 686.218 36.4419 Q682.735 40.2903 682.735 46.9338 L682.735 72.576 L675.24 72.576 L675.24 27.2059 L682.735 27.2059 L682.735 34.2544 Q685.408 30.163 689.014 28.1376 Q692.659 26.1121 697.399 26.1121 Q705.217 26.1121 709.228 30.9732 Q713.238 35.7938 713.238 45.1919 Z" fill="#000000" fill-rule="nonzero" fill-opacity="1" /><path clip-path="url(#clip910)" d="M760.755 28.9478 L760.755 35.9153 Q757.595 34.1734 754.395 33.3227 Q751.235 32.4315 747.995 32.4315 Q740.744 32.4315 736.733 37.0496 Q732.723 41.6271 732.723 49.9314 Q732.723 58.2358 736.733 62.8538 Q740.744 67.4314 747.995 67.4314 Q751.235 67.4314 754.395 66.5807 Q757.595 65.6895 760.755 63.9476 L760.755 70.8341 Q757.636 72.2924 754.274 73.0216 Q750.952 73.7508 747.185 73.7508 Q736.936 73.7508 730.9 67.3098 Q724.864 60.8689 724.864 49.9314 Q724.864 38.832 730.94 32.472 Q737.057 26.1121 747.671 26.1121 Q751.114 26.1121 754.395 26.8413 Q757.676 27.5299 760.755 28.9478 Z" fill="#000000" fill-rule="nonzero" fill-opacity="1" /><path clip-path="url(#clip910)" d="M781.091 14.324 L781.091 27.2059 L796.444 27.2059 L796.444 32.9987 L781.091 32.9987 L781.091 57.6282 Q781.091 63.1779 782.589 64.7578 Q784.129 66.3376 788.787 66.3376 L796.444 66.3376 L796.444 72.576 L788.787 72.576 Q780.159 72.576 776.878 69.3758 Q773.596 66.1351 773.596 57.6282 L773.596 32.9987 L768.128 32.9987 L768.128 27.2059 L773.596 27.2059 L773.596 14.324 L781.091 14.324 Z" fill="#000000" fill-rule="nonzero" fill-opacity="1" /><path clip-path="url(#clip910)" d="M806.247 27.2059 L813.7 27.2059 L813.7 72.576 L806.247 72.576 L806.247 27.2059 M806.247 9.54393 L813.7 9.54393 L813.7 18.9825 L806.247 18.9825 L806.247 9.54393 Z" fill="#000000" fill-rule="nonzero" fill-opacity="1" /><path clip-path="url(#clip910)" d="M846.877 32.4315 Q840.882 32.4315 837.398 37.1306 Q833.914 41.7891 833.914 49.9314 Q833.914 58.0738 837.358 62.7728 Q840.841 67.4314 846.877 67.4314 Q852.832 67.4314 856.316 62.7323 Q859.8 58.0333 859.8 49.9314 Q859.8 41.8701 856.316 37.1711 Q852.832 32.4315 846.877 32.4315 M846.877 26.1121 Q856.599 26.1121 862.149 32.4315 Q867.699 38.7509 867.699 49.9314 Q867.699 61.0714 862.149 67.4314 Q856.599 73.7508 846.877 73.7508 Q837.115 73.7508 831.565 67.4314 Q826.056 61.0714 826.056 49.9314 Q826.056 38.7509 831.565 32.4315 Q837.115 26.1121 846.877 26.1121 Z" fill="#000000" fill-rule="nonzero" fill-opacity="1" /><path clip-path="url(#clip910)" d="M917.768 45.1919 L917.768 72.576 L910.314 72.576 L910.314 45.4349 Q910.314 38.994 907.803 35.7938 Q905.291 32.5936 900.268 32.5936 Q894.232 32.5936 890.749 36.4419 Q887.265 40.2903 887.265 46.9338 L887.265 72.576 L879.771 72.576 L879.771 27.2059 L887.265 27.2059 L887.265 34.2544 Q889.938 30.163 893.544 28.1376 Q897.19 26.1121 901.929 26.1121 Q909.747 26.1121 913.758 30.9732 Q917.768 35.7938 917.768 45.1919 Z" fill="#000000" fill-rule="nonzero" fill-opacity="1" /><path clip-path="url(#clip910)" d="M953.254 49.7694 Q944.221 49.7694 940.737 51.8354 Q937.253 53.9013 937.253 58.8839 Q937.253 62.8538 939.846 65.2034 Q942.479 67.5124 946.975 67.5124 Q953.173 67.5124 956.9 63.1374 Q960.667 58.7219 960.667 51.4303 L960.667 49.7694 L953.254 49.7694 M968.121 46.6907 L968.121 72.576 L960.667 72.576 L960.667 65.6895 Q958.115 69.8214 954.307 71.8063 Q950.499 73.7508 944.99 73.7508 Q938.023 73.7508 933.891 69.8619 Q929.799 65.9325 929.799 59.3701 Q929.799 51.7138 934.903 47.825 Q940.048 43.9361 950.216 43.9361 L960.667 43.9361 L960.667 43.2069 Q960.667 38.0623 957.264 35.2672 Q953.902 32.4315 947.785 32.4315 Q943.896 32.4315 940.21 33.3632 Q936.524 34.295 933.121 36.1584 L933.121 29.2718 Q937.212 27.692 941.061 26.9223 Q944.909 26.1121 948.555 26.1121 Q958.399 26.1121 963.26 31.2163 Q968.121 36.3204 968.121 46.6907 Z" fill="#000000" fill-rule="nonzero" fill-opacity="1" /><path clip-path="url(#clip910)" d="M983.474 9.54393 L990.927 9.54393 L990.927 72.576 L983.474 72.576 L983.474 9.54393 Z" fill="#000000" fill-rule="nonzero" fill-opacity="1" /><path clip-path="url(#clip910)" d="M1061.9 44.2197 Q1064.53 45.1109 1067 48.0275 Q1069.51 50.9442 1072.03 56.0483 L1080.33 72.576 L1071.54 72.576 L1063.8 57.061 Q1060.81 50.9847 1057.97 48.9997 Q1055.17 47.0148 1050.31 47.0148 L1041.4 47.0148 L1041.4 72.576 L1033.22 72.576 L1033.22 12.096 L1051.69 12.096 Q1062.06 12.096 1067.17 16.4305 Q1072.27 20.7649 1072.27 29.5149 Q1072.27 35.2267 1069.6 38.994 Q1066.96 42.7613 1061.9 44.2197 M1041.4 18.8205 L1041.4 40.2903 L1051.69 40.2903 Q1057.61 40.2903 1060.6 37.5762 Q1063.64 34.8216 1063.64 29.5149 Q1063.64 24.2082 1060.6 21.5346 Q1057.61 18.8205 1051.69 18.8205 L1041.4 18.8205 Z" fill="#000000" fill-rule="nonzero" fill-opacity="1" /><path clip-path="url(#clip910)" d="M1125.62 48.0275 L1125.62 51.6733 L1091.35 51.6733 Q1091.84 59.3701 1095.97 63.421 Q1100.14 67.4314 1107.55 67.4314 Q1111.85 67.4314 1115.86 66.3781 Q1119.91 65.3249 1123.88 63.2184 L1123.88 70.267 Q1119.87 71.9684 1115.65 72.8596 Q1111.44 73.7508 1107.11 73.7508 Q1096.25 73.7508 1089.89 67.4314 Q1083.57 61.1119 1083.57 50.3365 Q1083.57 39.1965 1089.57 32.6746 Q1095.6 26.1121 1105.81 26.1121 Q1114.97 26.1121 1120.27 32.0264 Q1125.62 37.9003 1125.62 48.0275 M1118.17 45.84 Q1118.09 39.7232 1114.72 36.0774 Q1111.4 32.4315 1105.89 32.4315 Q1099.65 32.4315 1095.89 35.9558 Q1092.16 39.4801 1091.59 45.8805 L1118.17 45.84 Z" fill="#000000" fill-rule="nonzero" fill-opacity="1" /><path clip-path="url(#clip910)" d="M1166.78 28.5427 L1166.78 35.5912 Q1163.62 33.9709 1160.21 33.1607 Q1156.81 32.3505 1153.17 32.3505 Q1147.62 32.3505 1144.82 34.0519 Q1142.07 35.7533 1142.07 39.156 Q1142.07 41.7486 1144.05 43.2475 Q1146.04 44.7058 1152.03 46.0426 L1154.58 46.6097 Q1162.52 48.3111 1165.85 51.4303 Q1169.21 54.509 1169.21 60.0587 Q1169.21 66.3781 1164.18 70.0644 Q1159.2 73.7508 1150.45 73.7508 Q1146.81 73.7508 1142.84 73.0216 Q1138.91 72.3329 1134.53 70.9151 L1134.53 63.2184 Q1138.66 65.3654 1142.67 66.4591 Q1146.68 67.5124 1150.61 67.5124 Q1155.88 67.5124 1158.72 65.73 Q1161.55 63.9071 1161.55 60.6258 Q1161.55 57.5877 1159.49 55.9673 Q1157.46 54.3469 1150.53 52.8481 L1147.94 52.2405 Q1141.01 50.7821 1137.93 47.7845 Q1134.86 44.7463 1134.86 39.4801 Q1134.86 33.0797 1139.39 29.5959 Q1143.93 26.1121 1152.27 26.1121 Q1156.41 26.1121 1160.05 26.7198 Q1163.7 27.3274 1166.78 28.5427 Z" fill="#000000" fill-rule="nonzero" fill-opacity="1" /><path clip-path="url(#clip910)" d="M1188.29 65.7705 L1188.29 89.8329 L1180.79 89.8329 L1180.79 27.2059 L1188.29 27.2059 L1188.29 34.0924 Q1190.64 30.0415 1194.2 28.0971 Q1197.81 26.1121 1202.79 26.1121 Q1211.05 26.1121 1216.2 32.6746 Q1221.38 39.2371 1221.38 49.9314 Q1221.38 60.6258 1216.2 67.1883 Q1211.05 73.7508 1202.79 73.7508 Q1197.81 73.7508 1194.2 71.8063 Q1190.64 69.8214 1188.29 65.7705 M1213.65 49.9314 Q1213.65 41.7081 1210.24 37.0496 Q1206.88 32.3505 1200.97 32.3505 Q1195.05 32.3505 1191.65 37.0496 Q1188.29 41.7081 1188.29 49.9314 Q1188.29 58.1548 1191.65 62.8538 Q1195.05 67.5124 1200.97 67.5124 Q1206.88 67.5124 1210.24 62.8538 Q1213.65 58.1548 1213.65 49.9314 Z" fill="#000000" fill-rule="nonzero" fill-opacity="1" /><path clip-path="url(#clip910)" d="M1251.32 32.4315 Q1245.32 32.4315 1241.84 37.1306 Q1238.36 41.7891 1238.36 49.9314 Q1238.36 58.0738 1241.8 62.7728 Q1245.28 67.4314 1251.32 67.4314 Q1257.27 67.4314 1260.76 62.7323 Q1264.24 58.0333 1264.24 49.9314 Q1264.24 41.8701 1260.76 37.1711 Q1257.27 32.4315 1251.32 32.4315 M1251.32 26.1121 Q1261.04 26.1121 1266.59 32.4315 Q1272.14 38.7509 1272.14 49.9314 Q1272.14 61.0714 1266.59 67.4314 Q1261.04 73.7508 1251.32 73.7508 Q1241.56 73.7508 1236.01 67.4314 Q1230.5 61.0714 1230.5 49.9314 Q1230.5 38.7509 1236.01 32.4315 Q1241.56 26.1121 1251.32 26.1121 Z" fill="#000000" fill-rule="nonzero" fill-opacity="1" /><path clip-path="url(#clip910)" d="M1322.21 45.1919 L1322.21 72.576 L1314.76 72.576 L1314.76 45.4349 Q1314.76 38.994 1312.25 35.7938 Q1309.73 32.5936 1304.71 32.5936 Q1298.67 32.5936 1295.19 36.4419 Q1291.71 40.2903 1291.71 46.9338 L1291.71 72.576 L1284.21 72.576 L1284.21 27.2059 L1291.71 27.2059 L1291.71 34.2544 Q1294.38 30.163 1297.99 28.1376 Q1301.63 26.1121 1306.37 26.1121 Q1314.19 26.1121 1318.2 30.9732 Q1322.21 35.7938 1322.21 45.1919 Z" fill="#000000" fill-rule="nonzero" fill-opacity="1" /><path clip-path="url(#clip910)" d="M1366 28.5427 L1366 35.5912 Q1362.84 33.9709 1359.44 33.1607 Q1356.04 32.3505 1352.39 32.3505 Q1346.84 32.3505 1344.04 34.0519 Q1341.29 35.7533 1341.29 39.156 Q1341.29 41.7486 1343.28 43.2475 Q1345.26 44.7058 1351.26 46.0426 L1353.81 46.6097 Q1361.75 48.3111 1365.07 51.4303 Q1368.43 54.509 1368.43 60.0587 Q1368.43 66.3781 1363.41 70.0644 Q1358.43 73.7508 1349.68 73.7508 Q1346.03 73.7508 1342.06 73.0216 Q1338.13 72.3329 1333.76 70.9151 L1333.76 63.2184 Q1337.89 65.3654 1341.9 66.4591 Q1345.91 67.5124 1349.84 67.5124 Q1355.1 67.5124 1357.94 65.73 Q1360.78 63.9071 1360.78 60.6258 Q1360.78 57.5877 1358.71 55.9673 Q1356.68 54.3469 1349.76 52.8481 L1347.16 52.2405 Q1340.24 50.7821 1337.16 47.7845 Q1334.08 44.7463 1334.08 39.4801 Q1334.08 33.0797 1338.62 29.5959 Q1343.15 26.1121 1351.5 26.1121 Q1355.63 26.1121 1359.28 26.7198 Q1362.92 27.3274 1366 28.5427 Z" fill="#000000" fill-rule="nonzero" fill-opacity="1" /><path clip-path="url(#clip910)" d="M1419.11 48.0275 L1419.11 51.6733 L1384.84 51.6733 Q1385.32 59.3701 1389.46 63.421 Q1393.63 67.4314 1401.04 67.4314 Q1405.33 67.4314 1409.35 66.3781 Q1413.4 65.3249 1417.37 63.2184 L1417.37 70.267 Q1413.36 71.9684 1409.14 72.8596 Q1404.93 73.7508 1400.6 73.7508 Q1389.74 73.7508 1383.38 67.4314 Q1377.06 61.1119 1377.06 50.3365 Q1377.06 39.1965 1383.05 32.6746 Q1389.09 26.1121 1399.3 26.1121 Q1408.45 26.1121 1413.76 32.0264 Q1419.11 37.9003 1419.11 48.0275 M1411.65 45.84 Q1411.57 39.7232 1408.21 36.0774 Q1404.89 32.4315 1399.38 32.4315 Q1393.14 32.4315 1389.37 35.9558 Q1385.65 39.4801 1385.08 45.8805 L1411.65 45.84 Z" fill="#000000" fill-rule="nonzero" fill-opacity="1" /><path clip-path="url(#clip910)" d="M1453.95 46.9338 L1528.81 46.9338 L1528.81 52.7671 L1453.95 52.7671 L1453.95 46.9338 Z" fill="#000000" fill-rule="nonzero" fill-opacity="1" /><path clip-path="url(#clip910)" d="M1567.37 12.096 L1575.55 12.096 L1575.55 65.6895 L1605 65.6895 L1605 72.576 L1567.37 72.576 L1567.37 12.096 Z" fill="#000000" fill-rule="nonzero" fill-opacity="1" /><path clip-path="url(#clip910)" d="M1635.71 20.1573 L1624.61 50.2555 L1646.85 50.2555 L1635.71 20.1573 M1631.09 12.096 L1640.37 12.096 L1663.42 72.576 L1654.91 72.576 L1649.4 57.061 L1622.14 57.061 L1616.63 72.576 L1608 72.576 L1631.09 12.096 Z" fill="#000000" fill-rule="nonzero" fill-opacity="1" /><path clip-path="url(#clip910)" d="M1672.25 12.096 L1684.44 12.096 L1699.88 53.2532 L1715.39 12.096 L1727.58 12.096 L1727.58 72.576 L1719.6 72.576 L1719.6 19.4686 L1704.01 60.9499 L1695.78 60.9499 L1680.19 19.4686 L1680.19 72.576 L1672.25 72.576 L1672.25 12.096 Z" fill="#000000" fill-rule="nonzero" fill-opacity="1" /><path clip-path="url(#clip910)" d="M1743.83 12.096 L1752.01 12.096 L1752.01 65.6895 L1781.46 65.6895 L1781.46 72.576 L1743.83 72.576 L1743.83 12.096 Z" fill="#000000" fill-rule="nonzero" fill-opacity="1" /><path clip-path="url(#clip910)" d="M1824.6 43.6931 L1824.6 65.8515 L1837.73 65.8515 Q1844.33 65.8515 1847.49 63.1374 Q1850.69 60.3828 1850.69 54.752 Q1850.69 49.0808 1847.49 46.4072 Q1844.33 43.6931 1837.73 43.6931 L1824.6 43.6931 M1824.6 18.8205 L1824.6 37.0496 L1836.72 37.0496 Q1842.71 37.0496 1845.63 34.8216 Q1848.58 32.5531 1848.58 27.935 Q1848.58 23.3575 1845.63 21.089 Q1842.71 18.8205 1836.72 18.8205 L1824.6 18.8205 M1816.42 12.096 L1837.32 12.096 Q1846.68 12.096 1851.74 15.9849 Q1856.81 19.8737 1856.81 27.0438 Q1856.81 32.5936 1854.22 35.8748 Q1851.62 39.156 1846.6 39.9662 Q1852.64 41.2625 1855.96 45.3944 Q1859.32 49.4858 1859.32 55.6432 Q1859.32 63.745 1853.81 68.1605 Q1848.3 72.576 1838.13 72.576 L1816.42 72.576 L1816.42 12.096 Z" fill="#000000" fill-rule="nonzero" fill-opacity="1" /><path clip-path="url(#clip910)" d="M1893.63 49.7694 Q1884.6 49.7694 1881.11 51.8354 Q1877.63 53.9013 1877.63 58.8839 Q1877.63 62.8538 1880.22 65.2034 Q1882.86 67.5124 1887.35 67.5124 Q1893.55 67.5124 1897.28 63.1374 Q1901.04 58.7219 1901.04 51.4303 L1901.04 49.7694 L1893.63 49.7694 M1908.5 46.6907 L1908.5 72.576 L1901.04 72.576 L1901.04 65.6895 Q1898.49 69.8214 1894.68 71.8063 Q1890.88 73.7508 1885.37 73.7508 Q1878.4 73.7508 1874.27 69.8619 Q1870.18 65.9325 1870.18 59.3701 Q1870.18 51.7138 1875.28 47.825 Q1880.43 43.9361 1890.59 43.9361 L1901.04 43.9361 L1901.04 43.2069 Q1901.04 38.0623 1897.64 35.2672 Q1894.28 32.4315 1888.16 32.4315 Q1884.27 32.4315 1880.59 33.3632 Q1876.9 34.295 1873.5 36.1584 L1873.5 29.2718 Q1877.59 27.692 1881.44 26.9223 Q1885.29 26.1121 1888.93 26.1121 Q1898.78 26.1121 1903.64 31.2163 Q1908.5 36.3204 1908.5 46.6907 Z" fill="#000000" fill-rule="nonzero" fill-opacity="1" /><path clip-path="url(#clip910)" d="M1942.73 76.7889 Q1939.57 84.8907 1936.57 87.3618 Q1933.57 89.8329 1928.55 89.8329 L1922.59 89.8329 L1922.59 83.5945 L1926.97 83.5945 Q1930.05 83.5945 1931.75 82.1361 Q1933.45 80.6778 1935.52 75.2496 L1936.85 71.8468 L1918.5 27.2059 L1926.4 27.2059 L1940.58 62.6918 L1954.76 27.2059 L1962.66 27.2059 L1942.73 76.7889 Z" fill="#000000" fill-rule="nonzero" fill-opacity="1" /><path clip-path="url(#clip910)" d="M2011.76 48.0275 L2011.76 51.6733 L1977.48 51.6733 Q1977.97 59.3701 1982.1 63.421 Q1986.28 67.4314 1993.69 67.4314 Q1997.98 67.4314 2001.99 66.3781 Q2006.04 65.3249 2010.01 63.2184 L2010.01 70.267 Q2006 71.9684 2001.79 72.8596 Q1997.58 73.7508 1993.24 73.7508 Q1982.39 73.7508 1976.03 67.4314 Q1969.71 61.1119 1969.71 50.3365 Q1969.71 39.1965 1975.7 32.6746 Q1981.74 26.1121 1991.95 26.1121 Q2001.1 26.1121 2006.41 32.0264 Q2011.76 37.9003 2011.76 48.0275 M2004.3 45.84 Q2004.22 39.7232 2000.86 36.0774 Q1997.54 32.4315 1992.03 32.4315 Q1985.79 32.4315 1982.02 35.9558 Q1978.29 39.4801 1977.73 45.8805 L2004.3 45.84 Z" fill="#000000" fill-rule="nonzero" fill-opacity="1" /><path clip-path="url(#clip910)" d="M2052.91 28.5427 L2052.91 35.5912 Q2049.75 33.9709 2046.35 33.1607 Q2042.95 32.3505 2039.3 32.3505 Q2033.75 32.3505 2030.96 34.0519 Q2028.2 35.7533 2028.2 39.156 Q2028.2 41.7486 2030.19 43.2475 Q2032.17 44.7058 2038.17 46.0426 L2040.72 46.6097 Q2048.66 48.3111 2051.98 51.4303 Q2055.34 54.509 2055.34 60.0587 Q2055.34 66.3781 2050.32 70.0644 Q2045.34 73.7508 2036.59 73.7508 Q2032.94 73.7508 2028.97 73.0216 Q2025.04 72.3329 2020.67 70.9151 L2020.67 63.2184 Q2024.8 65.3654 2028.81 66.4591 Q2032.82 67.5124 2036.75 67.5124 Q2042.02 67.5124 2044.85 65.73 Q2047.69 63.9071 2047.69 60.6258 Q2047.69 57.5877 2045.62 55.9673 Q2043.6 54.3469 2036.67 52.8481 L2034.08 52.2405 Q2027.15 50.7821 2024.07 47.7845 Q2020.99 44.7463 2020.99 39.4801 Q2020.99 33.0797 2025.53 29.5959 Q2030.07 26.1121 2038.41 26.1121 Q2042.54 26.1121 2046.19 26.7198 Q2049.83 27.3274 2052.91 28.5427 Z" fill="#000000" fill-rule="nonzero" fill-opacity="1" /><path clip-path="url(#clip910)" d="M2067.21 27.2059 L2074.67 27.2059 L2074.67 72.576 L2067.21 72.576 L2067.21 27.2059 M2067.21 9.54393 L2074.67 9.54393 L2074.67 18.9825 L2067.21 18.9825 L2067.21 9.54393 Z" fill="#000000" fill-rule="nonzero" fill-opacity="1" /><path clip-path="url(#clip910)" d="M2110.88 49.7694 Q2101.85 49.7694 2098.36 51.8354 Q2094.88 53.9013 2094.88 58.8839 Q2094.88 62.8538 2097.47 65.2034 Q2100.11 67.5124 2104.6 67.5124 Q2110.8 67.5124 2114.53 63.1374 Q2118.29 58.7219 2118.29 51.4303 L2118.29 49.7694 L2110.88 49.7694 M2125.75 46.6907 L2125.75 72.576 L2118.29 72.576 L2118.29 65.6895 Q2115.74 69.8214 2111.93 71.8063 Q2108.13 73.7508 2102.62 73.7508 Q2095.65 73.7508 2091.52 69.8619 Q2087.43 65.9325 2087.43 59.3701 Q2087.43 51.7138 2092.53 47.825 Q2097.67 43.9361 2107.84 43.9361 L2118.29 43.9361 L2118.29 43.2069 Q2118.29 38.0623 2114.89 35.2672 Q2111.53 32.4315 2105.41 32.4315 Q2101.52 32.4315 2097.84 33.3632 Q2094.15 34.295 2090.75 36.1584 L2090.75 29.2718 Q2094.84 27.692 2098.69 26.9223 Q2102.54 26.1121 2106.18 26.1121 Q2116.03 26.1121 2120.89 31.2163 Q2125.75 36.3204 2125.75 46.6907 Z" fill="#000000" fill-rule="nonzero" fill-opacity="1" /><path clip-path="url(#clip910)" d="M2178.81 45.1919 L2178.81 72.576 L2171.36 72.576 L2171.36 45.4349 Q2171.36 38.994 2168.85 35.7938 Q2166.34 32.5936 2161.31 32.5936 Q2155.28 32.5936 2151.8 36.4419 Q2148.31 40.2903 2148.31 46.9338 L2148.31 72.576 L2140.82 72.576 L2140.82 27.2059 L2148.31 27.2059 L2148.31 34.2544 Q2150.98 30.163 2154.59 28.1376 Q2158.24 26.1121 2162.98 26.1121 Q2170.79 26.1121 2174.8 30.9732 Q2178.81 35.7938 2178.81 45.1919 Z" fill="#000000" fill-rule="nonzero" fill-opacity="1" /><path clip-path="url(#clip910)" d="M2265.67 16.7545 L2265.67 25.383 Q2261.53 21.5346 2256.84 19.6307 Q2252.18 17.7268 2246.91 17.7268 Q2236.54 17.7268 2231.03 24.0867 Q2225.52 30.4061 2225.52 42.3968 Q2225.52 54.3469 2231.03 60.7069 Q2236.54 67.0263 2246.91 67.0263 Q2252.18 67.0263 2256.84 65.1223 Q2261.53 63.2184 2265.67 59.3701 L2265.67 67.9175 Q2261.37 70.8341 2256.55 72.2924 Q2251.77 73.7508 2246.42 73.7508 Q2232.69 73.7508 2224.79 65.3654 Q2216.89 56.9395 2216.89 42.3968 Q2216.89 27.8135 2224.79 19.4281 Q2232.69 11.0023 2246.42 11.0023 Q2251.85 11.0023 2256.63 12.4606 Q2261.45 13.8784 2265.67 16.7545 Z" fill="#000000" fill-rule="nonzero" fill-opacity="1" /><path clip-path="url(#clip910)" d="M2278.3 12.096 L2286.49 12.096 L2286.49 72.576 L2278.3 72.576 L2278.3 12.096 Z" fill="#000000" fill-rule="nonzero" fill-opacity="1" /><path clip-path="url(#clip911)" d="M294.164 872.738 L317.176 865.407 L340.189 858.082 L363.202 850.764 L386.214 843.452 L409.227 836.148 L432.239 828.851 L455.252 821.56 L478.264 814.277 L501.277 807.001 L524.29 799.731 L547.302 792.468 L570.315 785.212 L593.327 777.962 L616.34 770.718 L639.352 763.482 L662.365 756.253 L685.378 749.031 L708.39 741.816 L731.403 734.609 L754.415 727.409 L777.428 720.216 L800.44 713.029 L823.453 705.85 L846.466 698.676 L869.478 691.51 L892.491 684.351 L915.503 677.2 L938.516 670.056 L961.528 662.92 L984.541 655.792 L1007.55 648.67 L1030.57 641.557 L1053.58 634.45 L1076.59 627.349 L1099.6 620.256 L1122.62 613.17 L1145.63 606.091 L1168.64 599.02 L1191.65 591.958 L1214.67 584.903 L1237.68 577.857 L1260.69 570.818 L1283.7 563.788 L1306.72 556.764 L1329.73 549.747 L1352.74 542.738 L1375.75 535.736 L1398.77 528.742 L1421.78 521.756 L1444.79 514.78 L1467.81 507.811 L1490.82 500.852 L1513.83 493.901 L1536.84 486.958 L1559.86 480.022 L1582.87 473.093 L1605.88 466.171 L1628.89 459.255 L1651.91 452.347 L1674.92 445.446 L1697.93 438.552 L1720.94 431.666 L1743.96 424.786 L1766.97 417.912 L1789.98 411.044 L1812.99 404.179 L1836.01 397.317 L1859.02 390.458 L1882.03 383.602 L1905.04 376.752 L1928.06 369.91 L1951.07 363.08 L1974.08 356.266 L1997.09 349.479 L2020.11 342.733 L2043.12 336.055 L2066.13 329.502 L2089.14 323.19 L2112.16 317.347 L2135.17 312.245 L2158.18 307.894 L2181.19 304.033 L2204.21 300.434 L2227.22 296.976 L2250.23 293.599 L2273.25 290.275 L2296.26 286.985 L2319.27 283.721 L2342.28 280.478 L2365.3 277.252 L2388.31 274.043 L2411.32 270.85 L2434.33 267.671 L2457.35 264.506 L2480.36 261.354 L2503.37 258.213 L2526.38 255.082 L2549.4 251.959 L2572.41 248.843 L2572.41 173.254 L2549.4 180.35 L2526.38 187.438 L2503.37 194.519 L2480.36 201.59 L2457.35 208.649 L2434.33 215.696 L2411.32 222.729 L2388.31 229.748 L2365.3 236.752 L2342.28 243.74 L2319.27 250.71 L2296.26 257.66 L2273.25 264.585 L2250.23 271.475 L2227.22 278.314 L2204.21 285.07 L2181.19 291.686 L2158.18 298.039 L2135.17 303.901 L2112.16 309.012 L2089.14 313.382 L2066.13 317.281 L2043.12 320.939 L2020.11 324.471 L1997.09 327.933 L1974.08 331.353 L1951.07 334.745 L1928.06 338.119 L1905.04 341.479 L1882.03 344.83 L1859.02 348.173 L1836.01 351.511 L1812.99 354.844 L1789.98 358.172 L1766.97 361.494 L1743.96 364.81 L1720.94 368.118 L1697.93 371.417 L1674.92 374.709 L1651.91 377.992 L1628.89 381.267 L1605.88 384.534 L1582.87 387.795 L1559.86 391.048 L1536.84 394.294 L1513.83 397.533 L1490.82 400.764 L1467.81 403.986 L1444.79 407.2 L1421.78 410.405 L1398.77 413.601 L1375.75 416.789 L1352.74 419.969 L1329.73 423.141 L1306.72 426.307 L1283.7 429.465 L1260.69 432.616 L1237.68 435.759 L1214.67 438.895 L1191.65 442.022 L1168.64 445.141 L1145.63 448.252 L1122.62 451.355 L1099.6 454.451 L1076.59 457.539 L1053.58 460.62 L1030.57 463.695 L1007.55 466.763 L984.541 469.823 L961.528 472.876 L938.516 475.922 L915.503 478.96 L892.491 481.99 L869.478 485.013 L846.466 488.028 L823.453 491.037 L800.44 494.038 L777.428 497.034 L754.415 500.022 L731.403 503.004 L708.39 505.978 L685.378 508.945 L662.365 511.905 L639.352 514.857 L616.34 517.803 L593.327 520.741 L570.315 523.672 L547.302 526.597 L524.29 529.516 L501.277 532.428 L478.264 535.333 L455.252 538.232 L432.239 541.123 L409.227 544.007 L386.214 546.885 L363.202 549.755 L340.189 552.618 L317.176 555.475 L294.164 558.325  Z" fill="#008080" fill-rule="evenodd" fill-opacity="0.2"/>
<polyline clip-path="url(#clip911)" style="stroke:#008080; stroke-linecap:round; stroke-linejoin:round; stroke-width:0; stroke-opacity:1; fill:none" stroke-dasharray="1, 2" points="294.164,872.738 317.176,865.407 340.189,858.082 363.202,850.764 386.214,843.452 409.227,836.148 432.239,828.851 455.252,821.56 478.264,814.277 501.277,807.001 524.29,799.731 547.302,792.468 570.315,785.212 593.327,777.962 616.34,770.718 639.352,763.482 662.365,756.253 685.378,749.031 708.39,741.816 731.403,734.609 754.415,727.409 777.428,720.216 800.44,713.029 823.453,705.85 846.466,698.676 869.478,691.51 892.491,684.351 915.503,677.2 938.516,670.056 961.528,662.92 984.541,655.792 1007.55,648.67 1030.57,641.557 1053.58,634.45 1076.59,627.349 1099.6,620.256 1122.62,613.17 1145.63,606.091 1168.64,599.02 1191.65,591.958 1214.67,584.903 1237.68,577.857 1260.69,570.818 1283.7,563.788 1306.72,556.764 1329.73,549.747 1352.74,542.738 1375.75,535.736 1398.77,528.742 1421.78,521.756 1444.79,514.78 1467.81,507.811 1490.82,500.852 1513.83,493.901 1536.84,486.958 1559.86,480.022 1582.87,473.093 1605.88,466.171 1628.89,459.255 1651.91,452.347 1674.92,445.446 1697.93,438.552 1720.94,431.666 1743.96,424.786 1766.97,417.912 1789.98,411.044 1812.99,404.179 1836.01,397.317 1859.02,390.458 1882.03,383.602 1905.04,376.752 1928.06,369.91 1951.07,363.08 1974.08,356.266 1997.09,349.479 2020.11,342.733 2043.12,336.055 2066.13,329.502 2089.14,323.19 2112.16,317.347 2135.17,312.245 2158.18,307.894 2181.19,304.033 2204.21,300.434 2227.22,296.976 2250.23,293.599 2273.25,290.275 2296.26,286.985 2319.27,283.721 2342.28,280.478 2365.3,277.252 2388.31,274.043 2411.32,270.85 2434.33,267.671 2457.35,264.506 2480.36,261.354 2503.37,258.213 2526.38,255.082 2549.4,251.959 2572.41,248.843 "/>
<polyline clip-path="url(#clip911)" style="stroke:#008080; stroke-linecap:round; stroke-linejoin:round; stroke-width:8; stroke-opacity:1; fill:none" points="294.164,715.532 317.176,710.441 340.189,705.35 363.202,700.259 386.214,695.168 409.227,690.078 432.239,684.987 455.252,679.896 478.264,674.805 501.277,669.714 524.29,664.624 547.302,659.533 570.315,654.442 593.327,649.351 616.34,644.26 639.352,639.17 662.365,634.079 685.378,628.988 708.39,623.897 731.403,618.806 754.415,613.716 777.428,608.625 800.44,603.534 823.453,598.443 846.466,593.352 869.478,588.262 892.491,583.171 915.503,578.08 938.516,572.989 961.528,567.898 984.541,562.807 1007.55,557.717 1030.57,552.626 1053.58,547.535 1076.59,542.444 1099.6,537.353 1122.62,532.262 1145.63,527.171 1168.64,522.081 1191.65,516.99 1214.67,511.899 1237.68,506.808 1260.69,501.717 1283.7,496.626 1306.72,491.535 1329.73,486.444 1352.74,481.353 1375.75,476.263 1398.77,471.172 1421.78,466.081 1444.79,460.99 1467.81,455.899 1490.82,450.808 1513.83,445.717 1536.84,440.626 1559.86,435.535 1582.87,430.444 1605.88,425.353 1628.89,420.261 1651.91,415.17 1674.92,410.077 1697.93,404.985 1720.94,399.892 1743.96,394.798 1766.97,389.703 1789.98,384.608 1812.99,379.511 1836.01,374.414 1859.02,369.315 1882.03,364.216 1905.04,359.116 1928.06,354.014 1951.07,348.912 1974.08,343.809 1997.09,338.706 2020.11,333.602 2043.12,328.497 2066.13,323.392 2089.14,318.286 2112.16,313.18 2135.17,308.073 2158.18,302.966 2181.19,297.859 2204.21,292.752 2227.22,287.645 2250.23,282.537 2273.25,277.43 2296.26,272.323 2319.27,267.216 2342.28,262.109 2365.3,257.002 2388.31,251.896 2411.32,246.79 2434.33,241.683 2457.35,236.577 2480.36,231.472 2503.37,226.366 2526.38,221.26 2549.4,216.154 2572.41,211.049 "/>
<polyline clip-path="url(#clip911)" style="stroke:#000000; stroke-linecap:round; stroke-linejoin:round; stroke-width:12; stroke-opacity:1; fill:none" stroke-dasharray="48, 30" points="316.946,1688.65 328.28,1648.22 339.614,1609.61 350.948,1572.72 362.282,1537.41 373.616,1503.61 384.95,1471.2 396.284,1440.12 407.618,1410.27 418.952,1381.59 430.286,1354 441.62,1327.45 452.954,1301.89 464.288,1277.24 475.622,1253.48 486.956,1230.54 498.29,1208.4 509.624,1187 520.958,1166.31 532.292,1146.3 543.626,1126.93 554.96,1108.18 566.294,1090.01 577.628,1072.39 588.962,1055.31 600.296,1038.74 611.63,1022.65 622.964,1007.03 634.298,991.848 645.632,977.096 656.966,962.753 668.3,948.802 679.634,935.227 690.968,922.013 702.302,909.145 713.636,896.611 724.97,884.398 736.304,872.492 747.638,860.884 758.972,849.561 770.306,838.514 781.64,827.733 792.973,817.207 804.307,806.929 815.641,796.889 826.975,787.079 838.309,777.492 849.643,768.119 860.977,758.955 872.311,749.991 883.645,741.222 894.979,732.641 906.313,724.242 917.647,716.019 928.981,707.968 940.315,700.082 951.649,692.356 962.983,684.787 974.317,677.368 985.651,670.096 996.985,662.966 1008.32,655.975 1019.65,649.118 1030.99,642.391 1042.32,635.79 1053.66,629.313 1064.99,622.956 1076.32,616.715 1087.66,610.587 1098.99,604.569 1110.32,598.659 1121.66,592.853 1132.99,587.149 1144.33,581.544 1155.66,576.035 1166.99,570.62 1178.33,565.297 1189.66,560.063 1201,554.916 1212.33,549.854 1223.66,544.875 1235,539.977 1246.33,535.158 1257.67,530.416 1269,525.748 1280.33,521.155 1291.67,516.632 1303,512.18 1314.34,507.796 1325.67,503.479 1337,499.228 1348.34,495.04 1359.67,490.915 1371.01,486.85 1382.34,482.845 1393.67,478.899 1405.01,475.01 1416.34,471.176 1427.68,467.398 1439.01,463.673 1450.34,460 1461.68,456.378 1473.01,452.807 1484.35,449.285 1495.68,445.811 1507.01,442.384 1518.35,439.004 1529.68,435.669 1541.02,432.378 1552.35,429.131 1563.68,425.926 1575.02,422.763 1586.35,419.642 1597.69,416.56 1609.02,413.518 1620.35,410.515 1631.69,407.55 1643.02,404.621 1654.36,401.73 1665.69,398.874 1677.02,396.054 1688.36,393.268 1699.69,390.516 1711.03,387.797 1722.36,385.111 1733.69,382.457 1745.03,379.835 1756.36,377.244 1767.7,374.683 1779.03,372.152 1790.36,369.651 1801.7,367.178 1813.03,364.734 1824.37,362.317 1835.7,359.928 1847.03,357.566 1858.37,355.231 1869.7,352.921 1881.04,350.638 1892.37,348.379 1903.7,346.145 1915.04,343.936 1926.37,341.751 1937.71,339.589 1949.04,337.45 1960.37,335.334 1971.71,333.241 1983.04,331.17 1994.38,329.121 2005.71,327.093 2017.04,325.086 2028.38,323.1 2039.71,321.134 2051.05,319.189 2062.38,317.263 2073.71,315.357 2085.05,313.47 2096.38,311.602 2107.72,309.753 2119.05,307.922 2130.38,306.109 2141.72,304.315 2153.05,302.537 2164.39,300.777 2175.72,299.034 2187.05,297.308 2198.39,295.599 2209.72,293.905 2221.06,292.228 2232.39,290.567 2243.72,288.921 2255.06,287.291 2266.39,285.676 2277.73,284.077 2289.06,282.491 2300.39,280.921 2311.73,279.365 2323.06,277.823 2334.39,276.295 2345.73,274.781 2357.06,273.28 2368.4,271.793 2379.73,270.32 2391.06,268.859 2402.4,267.411 2413.73,265.976 2425.07,264.554 2436.4,263.144 2447.73,261.746 2459.07,260.36 2470.4,258.986 2481.74,257.625 2493.07,256.274 2504.4,254.935 2515.74,253.608 2527.07,252.291 2538.41,250.986 2549.74,249.692 2561.07,248.408 2572.41,247.135 "/>
<path clip-path="url(#clip911)" d="M1433.29 3340.44 L1433.29 -1478.53 L2173.46 -1478.53 L2173.46 3340.44 L1433.29 3340.44  Z" fill="#4682b4" fill-rule="evenodd" fill-opacity="0.08"/>
<polyline clip-path="url(#clip911)" style="stroke:#000000; stroke-linecap:round; stroke-linejoin:round; stroke-width:0; stroke-opacity:0.08; fill:none" points="1433.29,3340.44 1433.29,-1478.53 2173.46,-1478.53 2173.46,3340.44 1433.29,3340.44 "/>
<path clip-path="url(#clip910)" d="M1881.89 1680.57 L2560.26 1680.57 L2560.26 1421.37 L1881.89 1421.37  Z" fill="#ffffff" fill-rule="evenodd" fill-opacity="1"/>
<polyline clip-path="url(#clip910)" style="stroke:#000000; stroke-linecap:round; stroke-linejoin:round; stroke-width:4; stroke-opacity:1; fill:none" points="1881.89,1680.57 2560.26,1680.57 2560.26,1421.37 1881.89,1421.37 1881.89,1680.57 "/>
<path clip-path="url(#clip910)" d="M1908.72 1493.95 L2069.72 1493.95 L2069.72 1452.48 L1908.72 1452.48 L1908.72 1493.95  Z" fill="#008080" fill-rule="evenodd" fill-opacity="0.2"/>
<polyline clip-path="url(#clip910)" style="stroke:#008080; stroke-linecap:round; stroke-linejoin:round; stroke-width:0.8; stroke-opacity:1; fill:none" stroke-dasharray="1, 2" points="1908.72,1452.48 2069.72,1452.48 "/>
<path clip-path="url(#clip910)" d="M2098.77 1489.78 L2098.77 1485.52 Q2100.53 1486.35 2102.34 1486.79 Q2104.15 1487.23 2105.88 1487.23 Q2110.51 1487.23 2112.94 1484.13 Q2115.4 1481 2115.74 1474.66 Q2114.4 1476.65 2112.34 1477.72 Q2110.28 1478.78 2107.78 1478.78 Q2102.59 1478.78 2099.56 1475.65 Q2096.55 1472.51 2096.55 1467.07 Q2096.55 1461.74 2099.7 1458.53 Q2102.85 1455.31 2108.08 1455.31 Q2114.08 1455.31 2117.22 1459.91 Q2120.4 1464.5 2120.4 1473.25 Q2120.4 1481.42 2116.51 1486.3 Q2112.64 1491.16 2106.09 1491.16 Q2104.33 1491.16 2102.52 1490.82 Q2100.72 1490.47 2098.77 1489.78 M2108.08 1475.12 Q2111.23 1475.12 2113.06 1472.97 Q2114.91 1470.82 2114.91 1467.07 Q2114.91 1463.34 2113.06 1461.19 Q2111.23 1459.01 2108.08 1459.01 Q2104.93 1459.01 2103.08 1461.19 Q2101.25 1463.34 2101.25 1467.07 Q2101.25 1470.82 2103.08 1472.97 Q2104.93 1475.12 2108.08 1475.12 Z" fill="#000000" fill-rule="nonzero" fill-opacity="1" /><path clip-path="url(#clip910)" d="M2128.84 1455.93 L2147.2 1455.93 L2147.2 1459.87 L2133.13 1459.87 L2133.13 1468.34 Q2134.14 1467.99 2135.16 1467.83 Q2136.18 1467.65 2137.2 1467.65 Q2142.99 1467.65 2146.37 1470.82 Q2149.75 1473.99 2149.75 1479.4 Q2149.75 1484.98 2146.27 1488.09 Q2142.8 1491.16 2136.48 1491.16 Q2134.31 1491.16 2132.04 1490.79 Q2129.79 1490.42 2127.39 1489.68 L2127.39 1484.98 Q2129.47 1486.12 2131.69 1486.67 Q2133.91 1487.23 2136.39 1487.23 Q2140.39 1487.23 2142.73 1485.12 Q2145.07 1483.02 2145.07 1479.4 Q2145.07 1475.79 2142.73 1473.69 Q2140.39 1471.58 2136.39 1471.58 Q2134.52 1471.58 2132.64 1472 Q2130.79 1472.41 2128.84 1473.29 L2128.84 1455.93 Z" fill="#000000" fill-rule="nonzero" fill-opacity="1" /><path clip-path="url(#clip910)" d="M2188.36 1475.28 Q2186.34 1475.28 2185.19 1477 Q2184.05 1478.71 2184.05 1481.77 Q2184.05 1484.78 2185.19 1486.51 Q2186.34 1488.22 2188.36 1488.22 Q2190.33 1488.22 2191.46 1486.51 Q2192.62 1484.78 2192.62 1481.77 Q2192.62 1478.73 2191.46 1477.02 Q2190.33 1475.28 2188.36 1475.28 M2188.36 1472.34 Q2192.02 1472.34 2194.17 1474.89 Q2196.32 1477.44 2196.32 1481.77 Q2196.32 1486.09 2194.14 1488.64 Q2191.99 1491.16 2188.36 1491.16 Q2184.65 1491.16 2182.5 1488.64 Q2180.35 1486.09 2180.35 1481.77 Q2180.35 1477.41 2182.5 1474.89 Q2184.68 1472.34 2188.36 1472.34 M2164.47 1458.25 Q2162.48 1458.25 2161.32 1459.98 Q2160.19 1461.7 2160.19 1464.71 Q2160.19 1467.76 2161.32 1469.47 Q2162.46 1471.19 2164.47 1471.19 Q2166.48 1471.19 2167.62 1469.47 Q2168.77 1467.76 2168.77 1464.71 Q2168.77 1461.72 2167.62 1459.98 Q2166.46 1458.25 2164.47 1458.25 M2185.37 1455.31 L2189.08 1455.31 L2167.46 1491.16 L2163.75 1491.16 L2185.37 1455.31 M2164.47 1455.31 Q2168.13 1455.31 2170.3 1457.85 Q2172.48 1460.38 2172.48 1464.71 Q2172.48 1469.08 2170.3 1471.6 Q2168.15 1474.13 2164.47 1474.13 Q2160.79 1474.13 2158.64 1471.6 Q2156.51 1469.06 2156.51 1464.71 Q2156.51 1460.4 2158.66 1457.85 Q2160.81 1455.31 2164.47 1455.31 Z" fill="#000000" fill-rule="nonzero" fill-opacity="1" /><path clip-path="url(#clip910)" d="M2237.13 1465.56 L2237.13 1469.54 Q2235.33 1468.55 2233.5 1468.06 Q2231.69 1467.55 2229.84 1467.55 Q2225.7 1467.55 2223.4 1470.19 Q2221.11 1472.81 2221.11 1477.55 Q2221.11 1482.3 2223.4 1484.94 Q2225.7 1487.55 2229.84 1487.55 Q2231.69 1487.55 2233.5 1487.07 Q2235.33 1486.56 2237.13 1485.56 L2237.13 1489.5 Q2235.35 1490.33 2233.43 1490.75 Q2231.53 1491.16 2229.38 1491.16 Q2223.52 1491.16 2220.07 1487.48 Q2216.62 1483.8 2216.62 1477.55 Q2216.62 1471.21 2220.09 1467.58 Q2223.59 1463.94 2229.65 1463.94 Q2231.62 1463.94 2233.5 1464.36 Q2235.37 1464.75 2237.13 1465.56 Z" fill="#000000" fill-rule="nonzero" fill-opacity="1" /><path clip-path="url(#clip910)" d="M2259.56 1468.55 Q2258.84 1468.13 2257.99 1467.95 Q2257.15 1467.74 2256.14 1467.74 Q2252.52 1467.74 2250.58 1470.1 Q2248.66 1472.44 2248.66 1476.84 L2248.66 1490.49 L2244.38 1490.49 L2244.38 1464.57 L2248.66 1464.57 L2248.66 1468.59 Q2250 1466.23 2252.15 1465.1 Q2254.31 1463.94 2257.39 1463.94 Q2257.82 1463.94 2258.36 1464.01 Q2258.89 1464.06 2259.54 1464.17 L2259.56 1468.55 Z" fill="#000000" fill-rule="nonzero" fill-opacity="1" /><path clip-path="url(#clip910)" d="M2285.16 1476.47 L2285.16 1478.55 L2265.58 1478.55 Q2265.86 1482.95 2268.22 1485.26 Q2270.6 1487.55 2274.84 1487.55 Q2277.29 1487.55 2279.58 1486.95 Q2281.9 1486.35 2284.17 1485.15 L2284.17 1489.17 Q2281.88 1490.15 2279.47 1490.65 Q2277.06 1491.16 2274.58 1491.16 Q2268.38 1491.16 2264.75 1487.55 Q2261.14 1483.94 2261.14 1477.78 Q2261.14 1471.42 2264.56 1467.69 Q2268.01 1463.94 2273.84 1463.94 Q2279.07 1463.94 2282.11 1467.32 Q2285.16 1470.68 2285.16 1476.47 M2280.9 1475.22 Q2280.86 1471.72 2278.94 1469.64 Q2277.04 1467.55 2273.89 1467.55 Q2270.32 1467.55 2268.17 1469.57 Q2266.04 1471.58 2265.72 1475.24 L2280.9 1475.22 Z" fill="#000000" fill-rule="nonzero" fill-opacity="1" /><path clip-path="url(#clip910)" d="M2309.21 1468.5 L2309.21 1454.47 L2313.47 1454.47 L2313.47 1490.49 L2309.21 1490.49 L2309.21 1486.6 Q2307.87 1488.92 2305.81 1490.05 Q2303.77 1491.16 2300.9 1491.16 Q2296.2 1491.16 2293.24 1487.41 Q2290.3 1483.66 2290.3 1477.55 Q2290.3 1471.44 2293.24 1467.69 Q2296.2 1463.94 2300.9 1463.94 Q2303.77 1463.94 2305.81 1465.08 Q2307.87 1466.19 2309.21 1468.5 M2294.7 1477.55 Q2294.7 1482.25 2296.62 1484.94 Q2298.57 1487.6 2301.95 1487.6 Q2305.32 1487.6 2307.27 1484.94 Q2309.21 1482.25 2309.21 1477.55 Q2309.21 1472.85 2307.27 1470.19 Q2305.32 1467.51 2301.95 1467.51 Q2298.57 1467.51 2296.62 1470.19 Q2294.7 1472.85 2294.7 1477.55 Z" fill="#000000" fill-rule="nonzero" fill-opacity="1" /><path clip-path="url(#clip910)" d="M2322.25 1464.57 L2326.51 1464.57 L2326.51 1490.49 L2322.25 1490.49 L2322.25 1464.57 M2322.25 1454.47 L2326.51 1454.47 L2326.51 1459.87 L2322.25 1459.87 L2322.25 1454.47 Z" fill="#000000" fill-rule="nonzero" fill-opacity="1" /><path clip-path="url(#clip910)" d="M2354.03 1477.55 Q2354.03 1472.85 2352.08 1470.19 Q2350.16 1467.51 2346.78 1467.51 Q2343.4 1467.51 2341.46 1470.19 Q2339.54 1472.85 2339.54 1477.55 Q2339.54 1482.25 2341.46 1484.94 Q2343.4 1487.6 2346.78 1487.6 Q2350.16 1487.6 2352.08 1484.94 Q2354.03 1482.25 2354.03 1477.55 M2339.54 1468.5 Q2340.88 1466.19 2342.92 1465.08 Q2344.98 1463.94 2347.82 1463.94 Q2352.55 1463.94 2355.49 1467.69 Q2358.45 1471.44 2358.45 1477.55 Q2358.45 1483.66 2355.49 1487.41 Q2352.55 1491.16 2347.82 1491.16 Q2344.98 1491.16 2342.92 1490.05 Q2340.88 1488.92 2339.54 1486.6 L2339.54 1490.49 L2335.26 1490.49 L2335.26 1454.47 L2339.54 1454.47 L2339.54 1468.5 Z" fill="#000000" fill-rule="nonzero" fill-opacity="1" /><path clip-path="url(#clip910)" d="M2365.51 1454.47 L2369.77 1454.47 L2369.77 1490.49 L2365.51 1490.49 L2365.51 1454.47 Z" fill="#000000" fill-rule="nonzero" fill-opacity="1" /><path clip-path="url(#clip910)" d="M2400.86 1476.47 L2400.86 1478.55 L2381.27 1478.55 Q2381.55 1482.95 2383.91 1485.26 Q2386.3 1487.55 2390.53 1487.55 Q2392.99 1487.55 2395.28 1486.95 Q2397.59 1486.35 2399.86 1485.15 L2399.86 1489.17 Q2397.57 1490.15 2395.16 1490.65 Q2392.75 1491.16 2390.28 1491.16 Q2384.07 1491.16 2380.44 1487.55 Q2376.83 1483.94 2376.83 1477.78 Q2376.83 1471.42 2380.25 1467.69 Q2383.7 1463.94 2389.54 1463.94 Q2394.77 1463.94 2397.8 1467.32 Q2400.86 1470.68 2400.86 1476.47 M2396.6 1475.22 Q2396.55 1471.72 2394.63 1469.64 Q2392.73 1467.55 2389.58 1467.55 Q2386.02 1467.55 2383.87 1469.57 Q2381.74 1471.58 2381.41 1475.24 L2396.6 1475.22 Z" fill="#000000" fill-rule="nonzero" fill-opacity="1" /><path clip-path="url(#clip910)" d="M2441.53 1477.55 Q2441.53 1472.85 2439.58 1470.19 Q2437.66 1467.51 2434.28 1467.51 Q2430.9 1467.51 2428.96 1470.19 Q2427.04 1472.85 2427.04 1477.55 Q2427.04 1482.25 2428.96 1484.94 Q2430.9 1487.6 2434.28 1487.6 Q2437.66 1487.6 2439.58 1484.94 Q2441.53 1482.25 2441.53 1477.55 M2427.04 1468.5 Q2428.38 1466.19 2430.42 1465.08 Q2432.48 1463.94 2435.32 1463.94 Q2440.05 1463.94 2442.99 1467.69 Q2445.95 1471.44 2445.95 1477.55 Q2445.95 1483.66 2442.99 1487.41 Q2440.05 1491.16 2435.32 1491.16 Q2432.48 1491.16 2430.42 1490.05 Q2428.38 1488.92 2427.04 1486.6 L2427.04 1490.49 L2422.75 1490.49 L2422.75 1454.47 L2427.04 1454.47 L2427.04 1468.5 Z" fill="#000000" fill-rule="nonzero" fill-opacity="1" /><path clip-path="url(#clip910)" d="M2464.79 1477.46 Q2459.63 1477.46 2457.64 1478.64 Q2455.65 1479.82 2455.65 1482.67 Q2455.65 1484.94 2457.13 1486.28 Q2458.63 1487.6 2461.2 1487.6 Q2464.75 1487.6 2466.87 1485.1 Q2469.03 1482.58 2469.03 1478.41 L2469.03 1477.46 L2464.79 1477.46 M2473.29 1475.7 L2473.29 1490.49 L2469.03 1490.49 L2469.03 1486.56 Q2467.57 1488.92 2465.39 1490.05 Q2463.22 1491.16 2460.07 1491.16 Q2456.09 1491.16 2453.73 1488.94 Q2451.39 1486.7 2451.39 1482.95 Q2451.39 1478.57 2454.31 1476.35 Q2457.25 1474.13 2463.06 1474.13 L2469.03 1474.13 L2469.03 1473.71 Q2469.03 1470.77 2467.08 1469.17 Q2465.16 1467.55 2461.67 1467.55 Q2459.44 1467.55 2457.34 1468.09 Q2455.23 1468.62 2453.29 1469.68 L2453.29 1465.75 Q2455.62 1464.84 2457.82 1464.41 Q2460.02 1463.94 2462.11 1463.94 Q2467.73 1463.94 2470.51 1466.86 Q2473.29 1469.78 2473.29 1475.7 Z" fill="#000000" fill-rule="nonzero" fill-opacity="1" /><path clip-path="url(#clip910)" d="M2503.61 1474.84 L2503.61 1490.49 L2499.35 1490.49 L2499.35 1474.98 Q2499.35 1471.3 2497.92 1469.47 Q2496.48 1467.65 2493.61 1467.65 Q2490.16 1467.65 2488.17 1469.84 Q2486.18 1472.04 2486.18 1475.84 L2486.18 1490.49 L2481.9 1490.49 L2481.9 1464.57 L2486.18 1464.57 L2486.18 1468.59 Q2487.71 1466.26 2489.77 1465.1 Q2491.85 1463.94 2494.56 1463.94 Q2499.03 1463.94 2501.32 1466.72 Q2503.61 1469.47 2503.61 1474.84 Z" fill="#000000" fill-rule="nonzero" fill-opacity="1" /><path clip-path="url(#clip910)" d="M2529.17 1468.5 L2529.17 1454.47 L2533.43 1454.47 L2533.43 1490.49 L2529.17 1490.49 L2529.17 1486.6 Q2527.82 1488.92 2525.76 1490.05 Q2523.73 1491.16 2520.86 1491.16 Q2516.16 1491.16 2513.19 1487.41 Q2510.25 1483.66 2510.25 1477.55 Q2510.25 1471.44 2513.19 1467.69 Q2516.16 1463.94 2520.86 1463.94 Q2523.73 1463.94 2525.76 1465.08 Q2527.82 1466.19 2529.17 1468.5 M2514.65 1477.55 Q2514.65 1482.25 2516.57 1484.94 Q2518.52 1487.6 2521.9 1487.6 Q2525.28 1487.6 2527.22 1484.94 Q2529.17 1482.25 2529.17 1477.55 Q2529.17 1472.85 2527.22 1470.19 Q2525.28 1467.51 2521.9 1467.51 Q2518.52 1467.51 2516.57 1470.19 Q2514.65 1472.85 2514.65 1477.55 Z" fill="#000000" fill-rule="nonzero" fill-opacity="1" /><polyline clip-path="url(#clip910)" style="stroke:#008080; stroke-linecap:round; stroke-linejoin:round; stroke-width:8; stroke-opacity:1; fill:none" points="1908.72,1525.05 2069.72,1525.05 "/>
<path clip-path="url(#clip910)" d="M2096.55 1507.77 L2101.23 1507.77 L2101.23 1538.4 L2118.06 1538.4 L2118.06 1542.33 L2096.55 1542.33 L2096.55 1507.77 Z" fill="#000000" fill-rule="nonzero" fill-opacity="1" /><path clip-path="url(#clip910)" d="M2135.6 1512.38 L2129.26 1529.58 L2141.97 1529.58 L2135.6 1512.38 M2132.96 1507.77 L2138.27 1507.77 L2151.44 1542.33 L2146.58 1542.33 L2143.43 1533.47 L2127.85 1533.47 L2124.7 1542.33 L2119.77 1542.33 L2132.96 1507.77 Z" fill="#000000" fill-rule="nonzero" fill-opacity="1" /><path clip-path="url(#clip910)" d="M2156.48 1507.77 L2163.45 1507.77 L2172.27 1531.29 L2181.14 1507.77 L2188.1 1507.77 L2188.1 1542.33 L2183.54 1542.33 L2183.54 1511.99 L2174.63 1535.69 L2169.93 1535.69 L2161.02 1511.99 L2161.02 1542.33 L2156.48 1542.33 L2156.48 1507.77 Z" fill="#000000" fill-rule="nonzero" fill-opacity="1" /><path clip-path="url(#clip910)" d="M2197.39 1507.77 L2202.06 1507.77 L2202.06 1538.4 L2218.89 1538.4 L2218.89 1542.33 L2197.39 1542.33 L2197.39 1507.77 Z" fill="#000000" fill-rule="nonzero" fill-opacity="1" /><path clip-path="url(#clip910)" d="M2260.86 1528.31 L2260.86 1530.39 L2241.27 1530.39 Q2241.55 1534.79 2243.91 1537.1 Q2246.3 1539.39 2250.53 1539.39 Q2252.99 1539.39 2255.28 1538.79 Q2257.59 1538.19 2259.86 1536.99 L2259.86 1541.01 Q2257.57 1541.99 2255.16 1542.49 Q2252.76 1543 2250.28 1543 Q2244.07 1543 2240.44 1539.39 Q2236.83 1535.78 2236.83 1529.62 Q2236.83 1523.26 2240.26 1519.53 Q2243.7 1515.78 2249.54 1515.78 Q2254.77 1515.78 2257.8 1519.16 Q2260.86 1522.52 2260.86 1528.31 M2256.6 1527.06 Q2256.55 1523.56 2254.63 1521.48 Q2252.73 1519.39 2249.58 1519.39 Q2246.02 1519.39 2243.87 1521.41 Q2241.74 1523.42 2241.41 1527.08 L2256.6 1527.06 Z" fill="#000000" fill-rule="nonzero" fill-opacity="1" /><path clip-path="url(#clip910)" d="M2284.38 1517.17 L2284.38 1521.2 Q2282.57 1520.27 2280.63 1519.81 Q2278.68 1519.35 2276.6 1519.35 Q2273.43 1519.35 2271.83 1520.32 Q2270.26 1521.29 2270.26 1523.24 Q2270.26 1524.72 2271.39 1525.57 Q2272.52 1526.41 2275.95 1527.17 L2277.41 1527.49 Q2281.95 1528.47 2283.84 1530.25 Q2285.76 1532.01 2285.76 1535.18 Q2285.76 1538.79 2282.89 1540.9 Q2280.05 1543 2275.05 1543 Q2272.96 1543 2270.7 1542.59 Q2268.45 1542.19 2265.95 1541.38 L2265.95 1536.99 Q2268.31 1538.21 2270.6 1538.84 Q2272.89 1539.44 2275.14 1539.44 Q2278.15 1539.44 2279.77 1538.42 Q2281.39 1537.38 2281.39 1535.5 Q2281.39 1533.77 2280.21 1532.84 Q2279.05 1531.92 2275.09 1531.06 L2273.61 1530.71 Q2269.65 1529.88 2267.89 1528.17 Q2266.14 1526.43 2266.14 1523.42 Q2266.14 1519.76 2268.73 1517.77 Q2271.32 1515.78 2276.09 1515.78 Q2278.45 1515.78 2280.53 1516.13 Q2282.62 1516.48 2284.38 1517.17 Z" fill="#000000" fill-rule="nonzero" fill-opacity="1" /><path clip-path="url(#clip910)" d="M2296.76 1509.05 L2296.76 1516.41 L2305.53 1516.41 L2305.53 1519.72 L2296.76 1519.72 L2296.76 1533.79 Q2296.76 1536.96 2297.62 1537.87 Q2298.5 1538.77 2301.16 1538.77 L2305.53 1538.77 L2305.53 1542.33 L2301.16 1542.33 Q2296.23 1542.33 2294.35 1540.5 Q2292.48 1538.65 2292.48 1533.79 L2292.48 1519.72 L2289.35 1519.72 L2289.35 1516.41 L2292.48 1516.41 L2292.48 1509.05 L2296.76 1509.05 Z" fill="#000000" fill-rule="nonzero" fill-opacity="1" /><path clip-path="url(#clip910)" d="M2311.13 1516.41 L2315.39 1516.41 L2315.39 1542.33 L2311.13 1542.33 L2311.13 1516.41 M2311.13 1506.31 L2315.39 1506.31 L2315.39 1511.71 L2311.13 1511.71 L2311.13 1506.31 Z" fill="#000000" fill-rule="nonzero" fill-opacity="1" /><path clip-path="url(#clip910)" d="M2344.49 1521.38 Q2346.09 1518.51 2348.31 1517.15 Q2350.53 1515.78 2353.54 1515.78 Q2357.59 1515.78 2359.79 1518.63 Q2361.99 1521.45 2361.99 1526.68 L2361.99 1542.33 L2357.71 1542.33 L2357.71 1526.82 Q2357.71 1523.1 2356.39 1521.29 Q2355.07 1519.49 2352.36 1519.49 Q2349.05 1519.49 2347.13 1521.68 Q2345.21 1523.88 2345.21 1527.68 L2345.21 1542.33 L2340.93 1542.33 L2340.93 1526.82 Q2340.93 1523.07 2339.61 1521.29 Q2338.29 1519.49 2335.53 1519.49 Q2332.27 1519.49 2330.35 1521.71 Q2328.43 1523.91 2328.43 1527.68 L2328.43 1542.33 L2324.14 1542.33 L2324.14 1516.41 L2328.43 1516.41 L2328.43 1520.43 Q2329.88 1518.05 2331.92 1516.92 Q2333.96 1515.78 2336.76 1515.78 Q2339.58 1515.78 2341.55 1517.22 Q2343.54 1518.65 2344.49 1521.38 Z" fill="#000000" fill-rule="nonzero" fill-opacity="1" /><path clip-path="url(#clip910)" d="M2382.27 1529.3 Q2377.11 1529.3 2375.12 1530.48 Q2373.13 1531.66 2373.13 1534.51 Q2373.13 1536.78 2374.61 1538.12 Q2376.11 1539.44 2378.68 1539.44 Q2382.22 1539.44 2384.35 1536.94 Q2386.5 1534.42 2386.5 1530.25 L2386.5 1529.3 L2382.27 1529.3 M2390.76 1527.54 L2390.76 1542.33 L2386.5 1542.33 L2386.5 1538.4 Q2385.05 1540.76 2382.87 1541.89 Q2380.69 1543 2377.55 1543 Q2373.57 1543 2371.2 1540.78 Q2368.87 1538.54 2368.87 1534.79 Q2368.87 1530.41 2371.78 1528.19 Q2374.72 1525.97 2380.53 1525.97 L2386.5 1525.97 L2386.5 1525.55 Q2386.5 1522.61 2384.56 1521.01 Q2382.64 1519.39 2379.14 1519.39 Q2376.92 1519.39 2374.82 1519.93 Q2372.71 1520.46 2370.76 1521.52 L2370.76 1517.59 Q2373.1 1516.68 2375.3 1516.25 Q2377.5 1515.78 2379.58 1515.78 Q2385.21 1515.78 2387.99 1518.7 Q2390.76 1521.62 2390.76 1527.54 Z" fill="#000000" fill-rule="nonzero" fill-opacity="1" /><path clip-path="url(#clip910)" d="M2403.75 1509.05 L2403.75 1516.41 L2412.52 1516.41 L2412.52 1519.72 L2403.75 1519.72 L2403.75 1533.79 Q2403.75 1536.96 2404.61 1537.87 Q2405.49 1538.77 2408.15 1538.77 L2412.52 1538.77 L2412.52 1542.33 L2408.15 1542.33 Q2403.22 1542.33 2401.34 1540.5 Q2399.47 1538.65 2399.47 1533.79 L2399.47 1519.72 L2396.34 1519.72 L2396.34 1516.41 L2399.47 1516.41 L2399.47 1509.05 L2403.75 1509.05 Z" fill="#000000" fill-rule="nonzero" fill-opacity="1" /><path clip-path="url(#clip910)" d="M2440.3 1528.31 L2440.3 1530.39 L2420.72 1530.39 Q2421 1534.79 2423.36 1537.1 Q2425.74 1539.39 2429.98 1539.39 Q2432.43 1539.39 2434.72 1538.79 Q2437.04 1538.19 2439.31 1536.99 L2439.31 1541.01 Q2437.01 1541.99 2434.61 1542.49 Q2432.2 1543 2429.72 1543 Q2423.52 1543 2419.88 1539.39 Q2416.27 1535.78 2416.27 1529.62 Q2416.27 1523.26 2419.7 1519.53 Q2423.15 1515.78 2428.98 1515.78 Q2434.21 1515.78 2437.25 1519.16 Q2440.3 1522.52 2440.3 1528.31 M2436.04 1527.06 Q2436 1523.56 2434.07 1521.48 Q2432.18 1519.39 2429.03 1519.39 Q2425.46 1519.39 2423.31 1521.41 Q2421.18 1523.42 2420.86 1527.08 L2436.04 1527.06 Z" fill="#000000" fill-rule="nonzero" fill-opacity="1" /><polyline clip-path="url(#clip910)" style="stroke:#000000; stroke-linecap:round; stroke-linejoin:round; stroke-width:12; stroke-opacity:1; fill:none" stroke-dasharray="48, 30" points="1908.72,1576.89 2069.72,1576.89 "/>
<path clip-path="url(#clip910)" d="M2096.55 1559.61 L2125.79 1559.61 L2125.79 1563.55 L2113.52 1563.55 L2113.52 1594.17 L2108.82 1594.17 L2108.82 1563.55 L2096.55 1563.55 L2096.55 1559.61 Z" fill="#000000" fill-rule="nonzero" fill-opacity="1" /><path clip-path="url(#clip910)" d="M2138.17 1572.23 Q2137.46 1571.81 2136.6 1571.63 Q2135.77 1571.42 2134.75 1571.42 Q2131.14 1571.42 2129.19 1573.78 Q2127.27 1576.12 2127.27 1580.52 L2127.27 1594.17 L2122.99 1594.17 L2122.99 1568.25 L2127.27 1568.25 L2127.27 1572.27 Q2128.61 1569.91 2130.77 1568.78 Q2132.92 1567.62 2136 1567.62 Q2136.44 1567.62 2136.97 1567.69 Q2137.5 1567.74 2138.15 1567.85 L2138.17 1572.23 Z" fill="#000000" fill-rule="nonzero" fill-opacity="1" /><path clip-path="url(#clip910)" d="M2142.2 1583.94 L2142.2 1568.25 L2146.46 1568.25 L2146.46 1583.78 Q2146.46 1587.46 2147.89 1589.31 Q2149.33 1591.14 2152.2 1591.14 Q2155.65 1591.14 2157.64 1588.94 Q2159.65 1586.74 2159.65 1582.95 L2159.65 1568.25 L2163.91 1568.25 L2163.91 1594.17 L2159.65 1594.17 L2159.65 1590.19 Q2158.1 1592.55 2156.04 1593.71 Q2154.01 1594.84 2151.3 1594.84 Q2146.83 1594.84 2144.52 1592.07 Q2142.2 1589.29 2142.2 1583.94 M2152.92 1567.62 L2152.92 1567.62 Z" fill="#000000" fill-rule="nonzero" fill-opacity="1" /><path clip-path="url(#clip910)" d="M2194.86 1580.15 L2194.86 1582.23 L2175.28 1582.23 Q2175.56 1586.63 2177.92 1588.94 Q2180.3 1591.23 2184.54 1591.23 Q2186.99 1591.23 2189.28 1590.63 Q2191.6 1590.03 2193.87 1588.83 L2193.87 1592.85 Q2191.58 1593.83 2189.17 1594.33 Q2186.76 1594.84 2184.28 1594.84 Q2178.08 1594.84 2174.45 1591.23 Q2170.83 1587.62 2170.83 1581.46 Q2170.83 1575.1 2174.26 1571.37 Q2177.71 1567.62 2183.54 1567.62 Q2188.77 1567.62 2191.81 1571 Q2194.86 1574.36 2194.86 1580.15 M2190.6 1578.9 Q2190.56 1575.4 2188.64 1573.32 Q2186.74 1571.23 2183.59 1571.23 Q2180.02 1571.23 2177.87 1573.25 Q2175.74 1575.26 2175.42 1578.92 L2190.6 1578.9 Z" fill="#000000" fill-rule="nonzero" fill-opacity="1" /><path clip-path="url(#clip910)" d="M2230.05 1558.15 L2230.05 1561.7 L2225.97 1561.7 Q2223.68 1561.7 2222.78 1562.62 Q2221.9 1563.55 2221.9 1565.96 L2221.9 1568.25 L2228.91 1568.25 L2228.91 1571.56 L2221.9 1571.56 L2221.9 1594.17 L2217.62 1594.17 L2217.62 1571.56 L2213.54 1571.56 L2213.54 1568.25 L2217.62 1568.25 L2217.62 1566.44 Q2217.62 1562.11 2219.63 1560.15 Q2221.64 1558.15 2226.02 1558.15 L2230.05 1558.15 Z" fill="#000000" fill-rule="nonzero" fill-opacity="1" /><path clip-path="url(#clip910)" d="M2243.84 1558.2 Q2240.74 1563.52 2239.24 1568.73 Q2237.73 1573.94 2237.73 1579.29 Q2237.73 1584.64 2239.24 1589.89 Q2240.76 1595.12 2243.84 1600.42 L2240.14 1600.42 Q2236.67 1594.98 2234.93 1589.73 Q2233.22 1584.47 2233.22 1579.29 Q2233.22 1574.13 2234.93 1568.9 Q2236.64 1563.66 2240.14 1558.2 L2243.84 1558.2 Z" fill="#000000" fill-rule="nonzero" fill-opacity="1" /><path clip-path="url(#clip910)" d="M2268.68 1577.97 Q2270.19 1578.48 2271.6 1580.15 Q2273.03 1581.81 2274.47 1584.73 L2279.21 1594.17 L2274.19 1594.17 L2269.77 1585.31 Q2268.06 1581.83 2266.44 1580.7 Q2264.84 1579.57 2262.06 1579.57 L2256.97 1579.57 L2256.97 1594.17 L2252.29 1594.17 L2252.29 1559.61 L2262.85 1559.61 Q2268.77 1559.61 2271.69 1562.09 Q2274.61 1564.57 2274.61 1569.57 Q2274.61 1572.83 2273.08 1574.98 Q2271.57 1577.14 2268.68 1577.97 M2256.97 1563.46 L2256.97 1575.72 L2262.85 1575.72 Q2266.23 1575.72 2267.94 1574.17 Q2269.68 1572.6 2269.68 1569.57 Q2269.68 1566.53 2267.94 1565.01 Q2266.23 1563.46 2262.85 1563.46 L2256.97 1563.46 Z" fill="#000000" fill-rule="nonzero" fill-opacity="1" /><path clip-path="url(#clip910)" d="M2284.38 1558.2 L2288.08 1558.2 Q2291.55 1563.66 2293.26 1568.9 Q2295 1574.13 2295 1579.29 Q2295 1584.47 2293.26 1589.73 Q2291.55 1594.98 2288.08 1600.42 L2284.38 1600.42 Q2287.45 1595.12 2288.96 1589.89 Q2290.49 1584.64 2290.49 1579.29 Q2290.49 1573.94 2288.96 1568.73 Q2287.45 1563.52 2284.38 1558.2 Z" fill="#000000" fill-rule="nonzero" fill-opacity="1" /><path clip-path="url(#clip910)" d="M1908.72 1649.47 L2069.72 1649.47 L2069.72 1608 L1908.72 1608 L1908.72 1649.47  Z" fill="#4682b4" fill-rule="evenodd" fill-opacity="0.08"/>
<polyline clip-path="url(#clip910)" style="stroke:#000000; stroke-linecap:round; stroke-linejoin:round; stroke-width:0.8; stroke-opacity:1; fill:none" points="1908.72,1649.47 2069.72,1649.47 2069.72,1608 1908.72,1608 1908.72,1649.47 "/>
<path clip-path="url(#clip910)" d="M2101.23 1615.3 L2101.23 1642.17 L2106.88 1642.17 Q2114.03 1642.17 2117.34 1638.93 Q2120.67 1635.69 2120.67 1628.7 Q2120.67 1621.75 2117.34 1618.54 Q2114.03 1615.3 2106.88 1615.3 L2101.23 1615.3 M2096.55 1611.45 L2106.16 1611.45 Q2116.21 1611.45 2120.9 1615.64 Q2125.6 1619.81 2125.6 1628.7 Q2125.6 1637.63 2120.88 1641.82 Q2116.16 1646.01 2106.16 1646.01 L2096.55 1646.01 L2096.55 1611.45 Z" fill="#000000" fill-rule="nonzero" fill-opacity="1" /><path clip-path="url(#clip910)" d="M2144.65 1632.98 Q2139.49 1632.98 2137.5 1634.16 Q2135.51 1635.34 2135.51 1638.19 Q2135.51 1640.46 2136.99 1641.8 Q2138.5 1643.12 2141.07 1643.12 Q2144.61 1643.12 2146.74 1640.62 Q2148.89 1638.1 2148.89 1633.93 L2148.89 1632.98 L2144.65 1632.98 M2153.15 1631.22 L2153.15 1646.01 L2148.89 1646.01 L2148.89 1642.08 Q2147.43 1644.44 2145.26 1645.57 Q2143.08 1646.68 2139.93 1646.68 Q2135.95 1646.68 2133.59 1644.46 Q2131.25 1642.22 2131.25 1638.47 Q2131.25 1634.09 2134.17 1631.87 Q2137.11 1629.65 2142.92 1629.65 L2148.89 1629.65 L2148.89 1629.23 Q2148.89 1626.29 2146.95 1624.69 Q2145.02 1623.07 2141.53 1623.07 Q2139.31 1623.07 2137.2 1623.61 Q2135.09 1624.14 2133.15 1625.2 L2133.15 1621.27 Q2135.49 1620.36 2137.69 1619.93 Q2139.89 1619.46 2141.97 1619.46 Q2147.59 1619.46 2150.37 1622.38 Q2153.15 1625.3 2153.15 1631.22 Z" fill="#000000" fill-rule="nonzero" fill-opacity="1" /><path clip-path="url(#clip910)" d="M2166.14 1612.73 L2166.14 1620.09 L2174.91 1620.09 L2174.91 1623.4 L2166.14 1623.4 L2166.14 1637.47 Q2166.14 1640.64 2166.99 1641.55 Q2167.87 1642.45 2170.53 1642.45 L2174.91 1642.45 L2174.91 1646.01 L2170.53 1646.01 Q2165.6 1646.01 2163.73 1644.18 Q2161.85 1642.33 2161.85 1637.47 L2161.85 1623.4 L2158.73 1623.4 L2158.73 1620.09 L2161.85 1620.09 L2161.85 1612.73 L2166.14 1612.73 Z" fill="#000000" fill-rule="nonzero" fill-opacity="1" /><path clip-path="url(#clip910)" d="M2192.29 1632.98 Q2187.13 1632.98 2185.14 1634.16 Q2183.15 1635.34 2183.15 1638.19 Q2183.15 1640.46 2184.63 1641.8 Q2186.14 1643.12 2188.7 1643.12 Q2192.25 1643.12 2194.38 1640.62 Q2196.53 1638.1 2196.53 1633.93 L2196.53 1632.98 L2192.29 1632.98 M2200.79 1631.22 L2200.79 1646.01 L2196.53 1646.01 L2196.53 1642.08 Q2195.07 1644.44 2192.89 1645.57 Q2190.72 1646.68 2187.57 1646.68 Q2183.59 1646.68 2181.23 1644.46 Q2178.89 1642.22 2178.89 1638.47 Q2178.89 1634.09 2181.81 1631.87 Q2184.75 1629.65 2190.56 1629.65 L2196.53 1629.65 L2196.53 1629.23 Q2196.53 1626.29 2194.58 1624.69 Q2192.66 1623.07 2189.17 1623.07 Q2186.95 1623.07 2184.84 1623.61 Q2182.73 1624.14 2180.79 1625.2 L2180.79 1621.27 Q2183.13 1620.36 2185.33 1619.93 Q2187.52 1619.46 2189.61 1619.46 Q2195.23 1619.46 2198.01 1622.38 Q2200.79 1625.3 2200.79 1631.22 Z" fill="#000000" fill-rule="nonzero" fill-opacity="1" /><path clip-path="url(#clip910)" d="M2239.65 1624.07 Q2238.94 1623.65 2238.08 1623.47 Q2237.25 1623.26 2236.23 1623.26 Q2232.62 1623.26 2230.67 1625.62 Q2228.75 1627.96 2228.75 1632.36 L2228.75 1646.01 L2224.47 1646.01 L2224.47 1620.09 L2228.75 1620.09 L2228.75 1624.11 Q2230.09 1621.75 2232.25 1620.62 Q2234.4 1619.46 2237.48 1619.46 Q2237.92 1619.46 2238.45 1619.53 Q2238.98 1619.58 2239.63 1619.69 L2239.65 1624.07 Z" fill="#000000" fill-rule="nonzero" fill-opacity="1" /><path clip-path="url(#clip910)" d="M2255.9 1632.98 Q2250.74 1632.98 2248.75 1634.16 Q2246.76 1635.34 2246.76 1638.19 Q2246.76 1640.46 2248.24 1641.8 Q2249.75 1643.12 2252.32 1643.12 Q2255.86 1643.12 2257.99 1640.62 Q2260.14 1638.1 2260.14 1633.93 L2260.14 1632.98 L2255.9 1632.98 M2264.4 1631.22 L2264.4 1646.01 L2260.14 1646.01 L2260.14 1642.08 Q2258.68 1644.44 2256.51 1645.57 Q2254.33 1646.68 2251.18 1646.68 Q2247.2 1646.68 2244.84 1644.46 Q2242.5 1642.22 2242.5 1638.47 Q2242.5 1634.09 2245.42 1631.87 Q2248.36 1629.65 2254.17 1629.65 L2260.14 1629.65 L2260.14 1629.23 Q2260.14 1626.29 2258.2 1624.69 Q2256.27 1623.07 2252.78 1623.07 Q2250.56 1623.07 2248.45 1623.61 Q2246.34 1624.14 2244.4 1625.2 L2244.4 1621.27 Q2246.74 1620.36 2248.94 1619.93 Q2251.14 1619.46 2253.22 1619.46 Q2258.84 1619.46 2261.62 1622.38 Q2264.4 1625.3 2264.4 1631.22 Z" fill="#000000" fill-rule="nonzero" fill-opacity="1" /><path clip-path="url(#clip910)" d="M2294.72 1630.36 L2294.72 1646.01 L2290.46 1646.01 L2290.46 1630.5 Q2290.46 1626.82 2289.03 1624.99 Q2287.59 1623.17 2284.72 1623.17 Q2281.27 1623.17 2279.28 1625.36 Q2277.29 1627.56 2277.29 1631.36 L2277.29 1646.01 L2273.01 1646.01 L2273.01 1620.09 L2277.29 1620.09 L2277.29 1624.11 Q2278.82 1621.78 2280.88 1620.62 Q2282.96 1619.46 2285.67 1619.46 Q2290.14 1619.46 2292.43 1622.24 Q2294.72 1624.99 2294.72 1630.36 Z" fill="#000000" fill-rule="nonzero" fill-opacity="1" /><path clip-path="url(#clip910)" d="M2320.28 1632.75 Q2320.28 1628.12 2318.36 1625.57 Q2316.46 1623.03 2313.01 1623.03 Q2309.58 1623.03 2307.66 1625.57 Q2305.76 1628.12 2305.76 1632.75 Q2305.76 1637.36 2307.66 1639.9 Q2309.58 1642.45 2313.01 1642.45 Q2316.46 1642.45 2318.36 1639.9 Q2320.28 1637.36 2320.28 1632.75 M2324.54 1642.8 Q2324.54 1649.42 2321.6 1652.63 Q2318.66 1655.87 2312.59 1655.87 Q2310.35 1655.87 2308.36 1655.53 Q2306.37 1655.2 2304.49 1654.51 L2304.49 1650.36 Q2306.37 1651.38 2308.19 1651.87 Q2310.02 1652.36 2311.92 1652.36 Q2316.11 1652.36 2318.19 1650.16 Q2320.28 1647.98 2320.28 1643.56 L2320.28 1641.45 Q2318.96 1643.74 2316.9 1644.88 Q2314.84 1646.01 2311.97 1646.01 Q2307.2 1646.01 2304.28 1642.38 Q2301.37 1638.74 2301.37 1632.75 Q2301.37 1626.73 2304.28 1623.1 Q2307.2 1619.46 2311.97 1619.46 Q2314.84 1619.46 2316.9 1620.6 Q2318.96 1621.73 2320.28 1624.02 L2320.28 1620.09 L2324.54 1620.09 L2324.54 1642.8 Z" fill="#000000" fill-rule="nonzero" fill-opacity="1" /><path clip-path="url(#clip910)" d="M2355.49 1631.99 L2355.49 1634.07 L2335.9 1634.07 Q2336.18 1638.47 2338.54 1640.78 Q2340.93 1643.07 2345.16 1643.07 Q2347.62 1643.07 2349.91 1642.47 Q2352.22 1641.87 2354.49 1640.67 L2354.49 1644.69 Q2352.2 1645.67 2349.79 1646.17 Q2347.38 1646.68 2344.91 1646.68 Q2338.7 1646.68 2335.07 1643.07 Q2331.46 1639.46 2331.46 1633.3 Q2331.46 1626.94 2334.88 1623.21 Q2338.33 1619.46 2344.17 1619.46 Q2349.4 1619.46 2352.43 1622.84 Q2355.49 1626.2 2355.49 1631.99 M2351.23 1630.74 Q2351.18 1627.24 2349.26 1625.16 Q2347.36 1623.07 2344.21 1623.07 Q2340.65 1623.07 2338.5 1625.09 Q2336.37 1627.1 2336.04 1630.76 L2351.23 1630.74 Z" fill="#000000" fill-rule="nonzero" fill-opacity="1" /></svg>
