<?xml version="1.0" encoding="utf-8"?>
<svg xmlns="http://www.w3.org/2000/svg" xmlns:xlink="http://www.w3.org/1999/xlink" width="672" height="480" viewBox="0 0 2688 1920">
<defs>
  <clipPath id="clip800">
    <rect x="0" y="0" width="2688" height="1920"/>
  </clipPath>
</defs>
<path clip-path="url(#clip800)" d="M0 1920 L2688 1920 L2688 -4.26326e-14 L0 -4.26326e-14  Z" fill="#ffffff" fill-rule="evenodd" fill-opacity="1"/>
<defs>
  <clipPath id="clip801">
    <rect x="216" y="127" width="2425" height="1607"/>
  </clipPath>
</defs>
<path clip-path="url(#clip800)" d="M216.65 1734.12 L2640.76 1734.12 L2640.76 127.792 L216.65 127.792  Z" fill="#ffffff" fill-rule="evenodd" fill-opacity="1"/>
<polyline clip-path="url(#clip801)" style="stroke:#000000; stroke-linecap:round; stroke-linejoin:round; stroke-width:2; stroke-opacity:0.1; fill:none" points="262.157,1734.12 262.157,127.792 "/>
<polyline clip-path="url(#clip801)" style="stroke:#000000; stroke-linecap:round; stroke-linejoin:round; stroke-width:2; stroke-opacity:0.1; fill:none" points="839.655,1734.12 839.655,127.792 "/>
<polyline clip-path="url(#clip801)" style="stroke:#000000; stroke-linecap:round; stroke-linejoin:round; stroke-width:2; stroke-opacity:0.1; fill:none" points="1417.15,1734.12 1417.15,127.792 "/>
<polyline clip-path="url(#clip801)" style="stroke:#000000; stroke-linecap:round; stroke-linejoin:round; stroke-width:2; stroke-opacity:0.1; fill:none" points="1994.65,1734.12 1994.65,127.792 "/>
<polyline clip-path="url(#clip801)" style="stroke:#000000; stroke-linecap:round; stroke-linejoin:round; stroke-width:2; stroke-opacity:0.1; fill:none" points="2572.15,1734.12 2572.15,127.792 "/>
<polyline clip-path="url(#clip801)" style="stroke:#000000; stroke-linecap:round; stroke-linejoin:round; stroke-width:2; stroke-opacity:0.1; fill:none" points="216.65,1502.24 2640.76,1502.24 "/>
<polyline clip-path="url(#clip801)" style="stroke:#000000; stroke-linecap:round; stroke-linejoin:round; stroke-width:2; stroke-opacity:0.1; fill:none" points="216.65,1135.07 2640.76,1135.07 "/>
<polyline clip-path="url(#clip801)" style="stroke:#000000; stroke-linecap:round; stroke-linejoin:round; stroke-width:2; stroke-opacity:0.1; fill:none" points="216.65,767.903 2640.76,767.903 "/>
<polyline clip-path="url(#clip801)" style="stroke:#000000; stroke-linecap:round; stroke-linejoin:round; stroke-width:2; stroke-opacity:0.1; fill:none" points="216.65,400.736 2640.76,400.736 "/>
<polyline clip-path="url(#clip800)" style="stroke:#000000; stroke-linecap:round; stroke-linejoin:round; stroke-width:4; stroke-opacity:1; fill:none" points="216.65,1734.12 2640.76,1734.12 "/>
<polyline clip-path="url(#clip800)" style="stroke:#000000; stroke-linecap:round; stroke-linejoin:round; stroke-width:4; stroke-opacity:1; fill:none" points="262.157,1734.12 262.157,1715.22 "/>
<polyline clip-path="url(#clip800)" style="stroke:#000000; stroke-linecap:round; stroke-linejoin:round; stroke-width:4; stroke-opacity:1; fill:none" points="839.655,1734.12 839.655,1715.22 "/>
<polyline clip-path="url(#clip800)" style="stroke:#000000; stroke-linecap:round; stroke-linejoin:round; stroke-width:4; stroke-opacity:1; fill:none" points="1417.15,1734.12 1417.15,1715.22 "/>
<polyline clip-path="url(#clip800)" style="stroke:#000000; stroke-linecap:round; stroke-linejoin:round; stroke-width:4; stroke-opacity:1; fill:none" points="1994.65,1734.12 1994.65,1715.22 "/>
<polyline clip-path="url(#clip800)" style="stroke:#000000; stroke-linecap:round; stroke-linejoin:round; stroke-width:4; stroke-opacity:1; fill:none" points="2572.15,1734.12 2572.15,1715.22 "/>
<path clip-path="url(#clip800)" d="M239.541 1767.34 Q235.93 1767.34 234.101 1770.9 Q232.296 1774.45 232.296 1781.58 Q232.296 1788.68 234.101 1792.25 Q235.93 1795.79 239.541 1795.79 Q243.175 1795.79 244.981 1792.25 Q246.81 1788.68 246.81 1781.58 Q246.81 1774.45 244.981 1770.9 Q243.175 1767.34 239.541 1767.34 M239.541 1763.64 Q245.351 1763.64 248.407 1768.24 Q251.485 1772.83 251.485 1781.58 Q251.485 1790.3 248.407 1794.91 Q245.351 1799.49 239.541 1799.49 Q233.731 1799.49 230.652 1794.91 Q227.597 1790.3 227.597 1781.58 Q227.597 1772.83 230.652 1768.24 Q233.731 1763.64 239.541 1763.64 Z" fill="#000000" fill-rule="nonzero" fill-opacity="1" /><path clip-path="url(#clip800)" d="M259.703 1792.94 L264.587 1792.94 L264.587 1798.82 L259.703 1798.82 L259.703 1792.94 Z" fill="#000000" fill-rule="nonzero" fill-opacity="1" /><path clip-path="url(#clip800)" d="M284.772 1767.34 Q281.161 1767.34 279.333 1770.9 Q277.527 1774.45 277.527 1781.58 Q277.527 1788.68 279.333 1792.25 Q281.161 1795.79 284.772 1795.79 Q288.407 1795.79 290.212 1792.25 Q292.041 1788.68 292.041 1781.58 Q292.041 1774.45 290.212 1770.9 Q288.407 1767.34 284.772 1767.34 M284.772 1763.64 Q290.582 1763.64 293.638 1768.24 Q296.717 1772.83 296.717 1781.58 Q296.717 1790.3 293.638 1794.91 Q290.582 1799.49 284.772 1799.49 Q278.962 1799.49 275.883 1794.91 Q272.828 1790.3 272.828 1781.58 Q272.828 1772.83 275.883 1768.24 Q278.962 1763.64 284.772 1763.64 Z" fill="#000000" fill-rule="nonzero" fill-opacity="1" /><path clip-path="url(#clip800)" d="M811.391 1794.89 L827.71 1794.89 L827.71 1798.82 L805.766 1798.82 L805.766 1794.89 Q808.428 1792.13 813.011 1787.5 Q817.618 1782.85 818.798 1781.51 Q821.044 1778.98 821.923 1777.25 Q822.826 1775.49 822.826 1773.8 Q822.826 1771.04 820.882 1769.31 Q818.96 1767.57 815.859 1767.57 Q813.66 1767.57 811.206 1768.34 Q808.775 1769.1 805.998 1770.65 L805.998 1765.93 Q808.822 1764.79 811.275 1764.21 Q813.729 1763.64 815.766 1763.64 Q821.136 1763.64 824.331 1766.32 Q827.525 1769.01 827.525 1773.5 Q827.525 1775.63 826.715 1777.55 Q825.928 1779.45 823.822 1782.04 Q823.243 1782.71 820.141 1785.93 Q817.039 1789.12 811.391 1794.89 Z" fill="#000000" fill-rule="nonzero" fill-opacity="1" /><path clip-path="url(#clip800)" d="M837.525 1792.94 L842.409 1792.94 L842.409 1798.82 L837.525 1798.82 L837.525 1792.94 Z" fill="#000000" fill-rule="nonzero" fill-opacity="1" /><path clip-path="url(#clip800)" d="M852.641 1764.26 L870.997 1764.26 L870.997 1768.2 L856.923 1768.2 L856.923 1776.67 Q857.942 1776.32 858.96 1776.16 Q859.979 1775.97 860.997 1775.97 Q866.784 1775.97 870.164 1779.15 Q873.544 1782.32 873.544 1787.73 Q873.544 1793.31 870.071 1796.41 Q866.599 1799.49 860.28 1799.49 Q858.104 1799.49 855.835 1799.12 Q853.59 1798.75 851.183 1798.01 L851.183 1793.31 Q853.266 1794.45 855.488 1795 Q857.71 1795.56 860.187 1795.56 Q864.192 1795.56 866.53 1793.45 Q868.868 1791.34 868.868 1787.73 Q868.868 1784.12 866.53 1782.02 Q864.192 1779.91 860.187 1779.91 Q858.312 1779.91 856.437 1780.33 Q854.585 1780.74 852.641 1781.62 L852.641 1764.26 Z" fill="#000000" fill-rule="nonzero" fill-opacity="1" /><path clip-path="url(#clip800)" d="M1384.32 1764.26 L1402.67 1764.26 L1402.67 1768.2 L1388.6 1768.2 L1388.6 1776.67 Q1389.62 1776.32 1390.64 1776.16 Q1391.66 1775.97 1392.67 1775.97 Q1398.46 1775.97 1401.84 1779.15 Q1405.22 1782.32 1405.22 1787.73 Q1405.22 1793.31 1401.75 1796.41 Q1398.28 1799.49 1391.96 1799.49 Q1389.78 1799.49 1387.51 1799.12 Q1385.27 1798.75 1382.86 1798.01 L1382.86 1793.31 Q1384.94 1794.45 1387.16 1795 Q1389.39 1795.56 1391.86 1795.56 Q1395.87 1795.56 1398.21 1793.45 Q1400.54 1791.34 1400.54 1787.73 Q1400.54 1784.12 1398.21 1782.02 Q1395.87 1779.91 1391.86 1779.91 Q1389.99 1779.91 1388.11 1780.33 Q1386.26 1780.74 1384.32 1781.62 L1384.32 1764.26 Z" fill="#000000" fill-rule="nonzero" fill-opacity="1" /><path clip-path="url(#clip800)" d="M1414.43 1792.94 L1419.32 1792.94 L1419.32 1798.82 L1414.43 1798.82 L1414.43 1792.94 Z" fill="#000000" fill-rule="nonzero" fill-opacity="1" /><path clip-path="url(#clip800)" d="M1439.5 1767.34 Q1435.89 1767.34 1434.06 1770.9 Q1432.26 1774.45 1432.26 1781.58 Q1432.26 1788.68 1434.06 1792.25 Q1435.89 1795.79 1439.5 1795.79 Q1443.14 1795.79 1444.94 1792.25 Q1446.77 1788.68 1446.77 1781.58 Q1446.77 1774.45 1444.94 1770.9 Q1443.14 1767.34 1439.5 1767.34 M1439.5 1763.64 Q1445.31 1763.64 1448.37 1768.24 Q1451.45 1772.83 1451.45 1781.58 Q1451.45 1790.3 1448.37 1794.91 Q1445.31 1799.49 1439.5 1799.49 Q1433.69 1799.49 1430.61 1794.91 Q1427.56 1790.3 1427.56 1781.58 Q1427.56 1772.83 1430.61 1768.24 Q1433.69 1763.64 1439.5 1763.64 Z" fill="#000000" fill-rule="nonzero" fill-opacity="1" /><path clip-path="url(#clip800)" d="M1960.97 1764.26 L1983.19 1764.26 L1983.19 1766.25 L1970.65 1798.82 L1965.76 1798.82 L1977.57 1768.2 L1960.97 1768.2 L1960.97 1764.26 Z" fill="#000000" fill-rule="nonzero" fill-opacity="1" /><path clip-path="url(#clip800)" d="M1992.31 1792.94 L1997.2 1792.94 L1997.2 1798.82 L1992.31 1798.82 L1992.31 1792.94 Z" fill="#000000" fill-rule="nonzero" fill-opacity="1" /><path clip-path="url(#clip800)" d="M2007.43 1764.26 L2025.79 1764.26 L2025.79 1768.2 L2011.71 1768.2 L2011.71 1776.67 Q2012.73 1776.32 2013.75 1776.16 Q2014.77 1775.97 2015.79 1775.97 Q2021.57 1775.97 2024.95 1779.15 Q2028.33 1782.32 2028.33 1787.73 Q2028.33 1793.31 2024.86 1796.41 Q2021.39 1799.49 2015.07 1799.49 Q2012.89 1799.49 2010.62 1799.12 Q2008.38 1798.75 2005.97 1798.01 L2005.97 1793.31 Q2008.05 1794.45 2010.28 1795 Q2012.5 1795.56 2014.97 1795.56 Q2018.98 1795.56 2021.32 1793.45 Q2023.66 1791.34 2023.66 1787.73 Q2023.66 1784.12 2021.32 1782.02 Q2018.98 1779.91 2014.97 1779.91 Q2013.1 1779.91 2011.23 1780.33 Q2009.37 1780.74 2007.43 1781.62 L2007.43 1764.26 Z" fill="#000000" fill-rule="nonzero" fill-opacity="1" /><path clip-path="url(#clip800)" d="M2524.22 1794.89 L2531.86 1794.89 L2531.86 1768.52 L2523.55 1770.19 L2523.55 1765.93 L2531.81 1764.26 L2536.49 1764.26 L2536.49 1794.89 L2544.13 1794.89 L2544.13 1798.82 L2524.22 1798.82 L2524.22 1794.89 Z" fill="#000000" fill-rule="nonzero" fill-opacity="1" /><path clip-path="url(#clip800)" d="M2563.57 1767.34 Q2559.96 1767.34 2558.13 1770.9 Q2556.33 1774.45 2556.33 1781.58 Q2556.33 1788.68 2558.13 1792.25 Q2559.96 1795.79 2563.57 1795.79 Q2567.21 1795.79 2569.01 1792.25 Q2570.84 1788.68 2570.84 1781.58 Q2570.84 1774.45 2569.01 1770.9 Q2567.21 1767.34 2563.57 1767.34 M2563.57 1763.64 Q2569.38 1763.64 2572.44 1768.24 Q2575.52 1772.83 2575.52 1781.58 Q2575.52 1790.3 2572.44 1794.91 Q2569.38 1799.49 2563.57 1799.49 Q2557.76 1799.49 2554.68 1794.91 Q2551.63 1790.3 2551.63 1781.58 Q2551.63 1772.83 2554.68 1768.24 Q2557.76 1763.64 2563.57 1763.64 Z" fill="#000000" fill-rule="nonzero" fill-opacity="1" /><path clip-path="url(#clip800)" d="M2583.73 1792.94 L2588.62 1792.94 L2588.62 1798.82 L2583.73 1798.82 L2583.73 1792.94 Z" fill="#000000" fill-rule="nonzero" fill-opacity="1" /><path clip-path="url(#clip800)" d="M2608.8 1767.34 Q2605.19 1767.34 2603.36 1770.9 Q2601.56 1774.45 2601.56 1781.58 Q2601.56 1788.68 2603.36 1792.25 Q2605.19 1795.79 2608.8 1795.79 Q2612.44 1795.79 2614.24 1792.25 Q2616.07 1788.68 2616.07 1781.58 Q2616.07 1774.45 2614.24 1770.9 Q2612.44 1767.34 2608.8 1767.34 M2608.8 1763.64 Q2614.61 1763.64 2617.67 1768.24 Q2620.75 1772.83 2620.75 1781.58 Q2620.75 1790.3 2617.67 1794.91 Q2614.61 1799.49 2608.8 1799.49 Q2602.99 1799.49 2599.92 1794.91 Q2596.86 1790.3 2596.86 1781.58 Q2596.86 1772.83 2599.92 1768.24 Q2602.99 1763.64 2608.8 1763.64 Z" fill="#000000" fill-rule="nonzero" fill-opacity="1" /><path clip-path="url(#clip800)" d="M1143.04 1861.02 Q1145.11 1861.72 1147.05 1864.01 Q1149.03 1866.3 1151 1870.31 L1157.52 1883.3 L1150.62 1883.3 L1144.54 1871.11 Q1142.18 1866.34 1139.95 1864.78 Q1137.76 1863.22 1133.94 1863.22 L1126.94 1863.22 L1126.94 1883.3 L1120.51 1883.3 L1120.51 1835.78 L1135.02 1835.78 Q1143.17 1835.78 1147.18 1839.19 Q1151.19 1842.59 1151.19 1849.47 Q1151.19 1853.96 1149.09 1856.92 Q1147.02 1859.88 1143.04 1861.02 M1126.94 1841.06 L1126.94 1857.93 L1135.02 1857.93 Q1139.67 1857.93 1142.02 1855.8 Q1144.41 1853.64 1144.41 1849.47 Q1144.41 1845.3 1142.02 1843.2 Q1139.67 1841.06 1135.02 1841.06 L1126.94 1841.06 Z" fill="#000000" fill-rule="nonzero" fill-opacity="1" /><path clip-path="url(#clip800)" d="M1193.11 1864.01 L1193.11 1866.88 L1166.18 1866.88 Q1166.56 1872.92 1169.81 1876.11 Q1173.09 1879.26 1178.91 1879.26 Q1182.29 1879.26 1185.44 1878.43 Q1188.62 1877.6 1191.74 1875.95 L1191.74 1881.49 Q1188.59 1882.82 1185.28 1883.52 Q1181.97 1884.22 1178.56 1884.22 Q1170.03 1884.22 1165.04 1879.26 Q1160.07 1874.29 1160.07 1865.83 Q1160.07 1857.07 1164.78 1851.95 Q1169.52 1846.79 1177.54 1846.79 Q1184.74 1846.79 1188.91 1851.44 Q1193.11 1856.06 1193.11 1864.01 M1187.25 1862.29 Q1187.19 1857.49 1184.55 1854.62 Q1181.94 1851.76 1177.61 1851.76 Q1172.71 1851.76 1169.75 1854.53 Q1166.82 1857.3 1166.37 1862.33 L1187.25 1862.29 Z" fill="#000000" fill-rule="nonzero" fill-opacity="1" /><path clip-path="url(#clip800)" d="M1225.45 1848.7 L1225.45 1854.24 Q1222.96 1852.97 1220.29 1852.33 Q1217.62 1851.7 1214.75 1851.7 Q1210.39 1851.7 1208.19 1853.03 Q1206.03 1854.37 1206.03 1857.04 Q1206.03 1859.08 1207.59 1860.26 Q1209.15 1861.4 1213.86 1862.45 L1215.87 1862.9 Q1222.1 1864.24 1224.71 1866.69 Q1227.36 1869.11 1227.36 1873.47 Q1227.36 1878.43 1223.41 1881.33 Q1219.49 1884.22 1212.62 1884.22 Q1209.75 1884.22 1206.64 1883.65 Q1203.55 1883.11 1200.11 1882 L1200.11 1875.95 Q1203.36 1877.64 1206.51 1878.49 Q1209.66 1879.32 1212.75 1879.32 Q1216.88 1879.32 1219.11 1877.92 Q1221.34 1876.49 1221.34 1873.91 Q1221.34 1871.52 1219.72 1870.25 Q1218.13 1868.98 1212.68 1867.8 L1210.65 1867.32 Q1205.2 1866.18 1202.78 1863.82 Q1200.36 1861.43 1200.36 1857.3 Q1200.36 1852.27 1203.93 1849.53 Q1207.49 1846.79 1214.05 1846.79 Q1217.3 1846.79 1220.16 1847.27 Q1223.03 1847.75 1225.45 1848.7 Z" fill="#000000" fill-rule="nonzero" fill-opacity="1" /><path clip-path="url(#clip800)" d="M1250.49 1851.76 Q1245.78 1851.76 1243.05 1855.45 Q1240.31 1859.11 1240.31 1865.51 Q1240.31 1871.91 1243.02 1875.6 Q1245.75 1879.26 1250.49 1879.26 Q1255.17 1879.26 1257.91 1875.57 Q1260.65 1871.87 1260.65 1865.51 Q1260.65 1859.17 1257.91 1855.48 Q1255.17 1851.76 1250.49 1851.76 M1250.49 1846.79 Q1258.13 1846.79 1262.49 1851.76 Q1266.85 1856.72 1266.85 1865.51 Q1266.85 1874.26 1262.49 1879.26 Q1258.13 1884.22 1250.49 1884.22 Q1242.82 1884.22 1238.46 1879.26 Q1234.14 1874.26 1234.14 1865.51 Q1234.14 1856.72 1238.46 1851.76 Q1242.82 1846.79 1250.49 1846.79 Z" fill="#000000" fill-rule="nonzero" fill-opacity="1" /><path clip-path="url(#clip800)" d="M1275.96 1869.23 L1275.96 1847.65 L1281.81 1847.65 L1281.81 1869.01 Q1281.81 1874.07 1283.79 1876.62 Q1285.76 1879.13 1289.71 1879.13 Q1294.45 1879.13 1297.19 1876.11 Q1299.96 1873.08 1299.96 1867.86 L1299.96 1847.65 L1305.81 1847.65 L1305.81 1883.3 L1299.96 1883.3 L1299.96 1877.83 Q1297.82 1881.07 1294.99 1882.66 Q1292.19 1884.22 1288.47 1884.22 Q1282.32 1884.22 1279.14 1880.4 Q1275.96 1876.59 1275.96 1869.23 M1290.69 1846.79 L1290.69 1846.79 Z" fill="#000000" fill-rule="nonzero" fill-opacity="1" /><path clip-path="url(#clip800)" d="M1338.53 1853.13 Q1337.55 1852.55 1336.37 1852.3 Q1335.22 1852.01 1333.82 1852.01 Q1328.86 1852.01 1326.18 1855.26 Q1323.54 1858.47 1323.54 1864.52 L1323.54 1883.3 L1317.65 1883.3 L1317.65 1847.65 L1323.54 1847.65 L1323.54 1853.19 Q1325.39 1849.94 1328.35 1848.39 Q1331.31 1846.79 1335.54 1846.79 Q1336.15 1846.79 1336.88 1846.89 Q1337.61 1846.95 1338.5 1847.11 L1338.53 1853.13 Z" fill="#000000" fill-rule="nonzero" fill-opacity="1" /><path clip-path="url(#clip800)" d="M1368.9 1849.02 L1368.9 1854.5 Q1366.41 1853.13 1363.9 1852.46 Q1361.42 1851.76 1358.87 1851.76 Q1353.17 1851.76 1350.02 1855.39 Q1346.87 1858.98 1346.87 1865.51 Q1346.87 1872.03 1350.02 1875.66 Q1353.17 1879.26 1358.87 1879.26 Q1361.42 1879.26 1363.9 1878.59 Q1366.41 1877.89 1368.9 1876.52 L1368.9 1881.93 Q1366.45 1883.08 1363.8 1883.65 Q1361.19 1884.22 1358.23 1884.22 Q1350.18 1884.22 1345.44 1879.16 Q1340.7 1874.1 1340.7 1865.51 Q1340.7 1856.79 1345.47 1851.79 Q1350.28 1846.79 1358.62 1846.79 Q1361.32 1846.79 1363.9 1847.37 Q1366.48 1847.91 1368.9 1849.02 Z" fill="#000000" fill-rule="nonzero" fill-opacity="1" /><path clip-path="url(#clip800)" d="M1409.57 1864.01 L1409.57 1866.88 L1382.65 1866.88 Q1383.03 1872.92 1386.28 1876.11 Q1389.55 1879.26 1395.38 1879.26 Q1398.75 1879.26 1401.9 1878.43 Q1405.09 1877.6 1408.21 1875.95 L1408.21 1881.49 Q1405.05 1882.82 1401.74 1883.52 Q1398.43 1884.22 1395.03 1884.22 Q1386.5 1884.22 1381.5 1879.26 Q1376.54 1874.29 1376.54 1865.83 Q1376.54 1857.07 1381.25 1851.95 Q1385.99 1846.79 1394.01 1846.79 Q1401.2 1846.79 1405.37 1851.44 Q1409.57 1856.06 1409.57 1864.01 M1403.72 1862.29 Q1403.65 1857.49 1401.01 1854.62 Q1398.4 1851.76 1394.07 1851.76 Q1389.17 1851.76 1386.21 1854.53 Q1383.28 1857.3 1382.84 1862.33 L1403.72 1862.29 Z" fill="#000000" fill-rule="nonzero" fill-opacity="1" /><path clip-path="url(#clip800)" d="M1463.36 1853.06 L1463.36 1833.78 L1469.22 1833.78 L1469.22 1883.3 L1463.36 1883.3 L1463.36 1877.95 Q1461.52 1881.14 1458.69 1882.7 Q1455.88 1884.22 1451.94 1884.22 Q1445.48 1884.22 1441.4 1879.07 Q1437.36 1873.91 1437.36 1865.51 Q1437.36 1857.11 1441.4 1851.95 Q1445.48 1846.79 1451.94 1846.79 Q1455.88 1846.79 1458.69 1848.35 Q1461.52 1849.88 1463.36 1853.06 M1443.41 1865.51 Q1443.41 1871.97 1446.05 1875.66 Q1448.72 1879.32 1453.37 1879.32 Q1458.02 1879.32 1460.69 1875.66 Q1463.36 1871.97 1463.36 1865.51 Q1463.36 1859.05 1460.69 1855.39 Q1458.02 1851.7 1453.37 1851.7 Q1448.72 1851.7 1446.05 1855.39 Q1443.41 1859.05 1443.41 1865.51 Z" fill="#000000" fill-rule="nonzero" fill-opacity="1" /><path clip-path="url(#clip800)" d="M1511.78 1864.01 L1511.78 1866.88 L1484.85 1866.88 Q1485.23 1872.92 1488.48 1876.11 Q1491.76 1879.26 1497.58 1879.26 Q1500.95 1879.26 1504.1 1878.43 Q1507.29 1877.6 1510.41 1875.95 L1510.41 1881.49 Q1507.26 1882.82 1503.95 1883.52 Q1500.64 1884.22 1497.23 1884.22 Q1488.7 1884.22 1483.7 1879.26 Q1478.74 1874.29 1478.74 1865.83 Q1478.74 1857.07 1483.45 1851.95 Q1488.19 1846.79 1496.21 1846.79 Q1503.4 1846.79 1507.57 1851.44 Q1511.78 1856.06 1511.78 1864.01 M1505.92 1862.29 Q1505.86 1857.49 1503.21 1854.62 Q1500.6 1851.76 1496.27 1851.76 Q1491.37 1851.76 1488.41 1854.53 Q1485.48 1857.3 1485.04 1862.33 L1505.92 1862.29 Z" fill="#000000" fill-rule="nonzero" fill-opacity="1" /><path clip-path="url(#clip800)" d="M1551.02 1861.78 L1551.02 1883.3 L1545.16 1883.3 L1545.16 1861.98 Q1545.16 1856.92 1543.19 1854.4 Q1541.22 1851.89 1537.27 1851.89 Q1532.53 1851.89 1529.79 1854.91 Q1527.05 1857.93 1527.05 1863.15 L1527.05 1883.3 L1521.16 1883.3 L1521.16 1847.65 L1527.05 1847.65 L1527.05 1853.19 Q1529.15 1849.98 1531.99 1848.39 Q1534.85 1846.79 1538.57 1846.79 Q1544.72 1846.79 1547.87 1850.61 Q1551.02 1854.4 1551.02 1861.78 Z" fill="#000000" fill-rule="nonzero" fill-opacity="1" /><path clip-path="url(#clip800)" d="M1585.43 1848.7 L1585.43 1854.24 Q1582.94 1852.97 1580.27 1852.33 Q1577.6 1851.7 1574.73 1851.7 Q1570.37 1851.7 1568.18 1853.03 Q1566.01 1854.37 1566.01 1857.04 Q1566.01 1859.08 1567.57 1860.26 Q1569.13 1861.4 1573.84 1862.45 L1575.85 1862.9 Q1582.08 1864.24 1584.69 1866.69 Q1587.34 1869.11 1587.34 1873.47 Q1587.34 1878.43 1583.39 1881.33 Q1579.47 1884.22 1572.6 1884.22 Q1569.74 1884.22 1566.62 1883.65 Q1563.53 1883.11 1560.09 1882 L1560.09 1875.95 Q1563.34 1877.64 1566.49 1878.49 Q1569.64 1879.32 1572.73 1879.32 Q1576.86 1879.32 1579.09 1877.92 Q1581.32 1876.49 1581.32 1873.91 Q1581.32 1871.52 1579.7 1870.25 Q1578.11 1868.98 1572.66 1867.8 L1570.63 1867.32 Q1565.18 1866.18 1562.76 1863.82 Q1560.35 1861.43 1560.35 1857.3 Q1560.35 1852.27 1563.91 1849.53 Q1567.48 1846.79 1574.03 1846.79 Q1577.28 1846.79 1580.14 1847.27 Q1583.01 1847.75 1585.43 1848.7 Z" fill="#000000" fill-rule="nonzero" fill-opacity="1" /><path clip-path="url(#clip800)" d="M1596.66 1847.65 L1602.52 1847.65 L1602.52 1883.3 L1596.66 1883.3 L1596.66 1847.65 M1596.66 1833.78 L1602.52 1833.78 L1602.52 1841.19 L1596.66 1841.19 L1596.66 1833.78 Z" fill="#000000" fill-rule="nonzero" fill-opacity="1" /><path clip-path="url(#clip800)" d="M1620.57 1837.53 L1620.57 1847.65 L1632.63 1847.65 L1632.63 1852.2 L1620.57 1852.2 L1620.57 1871.56 Q1620.57 1875.92 1621.74 1877.16 Q1622.95 1878.4 1626.61 1878.4 L1632.63 1878.4 L1632.63 1883.3 L1626.61 1883.3 Q1619.83 1883.3 1617.26 1880.79 Q1614.68 1878.24 1614.68 1871.56 L1614.68 1852.2 L1610.38 1852.2 L1610.38 1847.65 L1614.68 1847.65 L1614.68 1837.53 L1620.57 1837.53 Z" fill="#000000" fill-rule="nonzero" fill-opacity="1" /><path clip-path="url(#clip800)" d="M1655.16 1886.61 Q1652.68 1892.98 1650.32 1894.92 Q1647.97 1896.86 1644.02 1896.86 L1639.34 1896.86 L1639.34 1891.96 L1642.78 1891.96 Q1645.2 1891.96 1646.54 1890.81 Q1647.87 1889.67 1649.5 1885.4 L1650.55 1882.73 L1636.13 1847.65 L1642.34 1847.65 L1653.48 1875.53 L1664.62 1847.65 L1670.82 1847.65 L1655.16 1886.61 Z" fill="#000000" fill-rule="nonzero" fill-opacity="1" /><path clip-path="url(#clip800)" d="M1722.42 1861.02 Q1724.49 1861.72 1726.43 1864.01 Q1728.4 1866.3 1730.37 1870.31 L1736.9 1883.3 L1729.99 1883.3 L1723.91 1871.11 Q1721.56 1866.34 1719.33 1864.78 Q1717.13 1863.22 1713.31 1863.22 L1706.31 1863.22 L1706.31 1883.3 L1699.88 1883.3 L1699.88 1835.78 L1714.4 1835.78 Q1722.54 1835.78 1726.55 1839.19 Q1730.56 1842.59 1730.56 1849.47 Q1730.56 1853.96 1728.46 1856.92 Q1726.4 1859.88 1722.42 1861.02 M1706.31 1841.06 L1706.31 1857.93 L1714.4 1857.93 Q1719.04 1857.93 1721.4 1855.8 Q1723.79 1853.64 1723.79 1849.47 Q1723.79 1845.3 1721.4 1843.2 Q1719.04 1841.06 1714.4 1841.06 L1706.31 1841.06 Z" fill="#000000" fill-rule="nonzero" fill-opacity="1" /><polyline clip-path="url(#clip800)" style="stroke:#000000; stroke-linecap:round; stroke-linejoin:round; stroke-width:4; stroke-opacity:1; fill:none" points="216.65,1734.12 216.65,127.792 "/>
<polyline clip-path="url(#clip800)" style="stroke:#000000; stroke-linecap:round; stroke-linejoin:round; stroke-width:4; stroke-opacity:1; fill:none" points="216.65,1502.24 235.547,1502.24 "/>
<polyline clip-path="url(#clip800)" style="stroke:#000000; stroke-linecap:round; stroke-linejoin:round; stroke-width:4; stroke-opacity:1; fill:none" points="216.65,1135.07 235.547,1135.07 "/>
<polyline clip-path="url(#clip800)" style="stroke:#000000; stroke-linecap:round; stroke-linejoin:round; stroke-width:4; stroke-opacity:1; fill:none" points="216.65,767.903 235.547,767.903 "/>
<polyline clip-path="url(#clip800)" style="stroke:#000000; stroke-linecap:round; stroke-linejoin:round; stroke-width:4; stroke-opacity:1; fill:none" points="216.65,400.736 235.547,400.736 "/>
<path clip-path="url(#clip800)" d="M116.214 1502.69 L145.89 1502.69 L145.89 1506.62 L116.214 1506.62 L116.214 1502.69 Z" fill="#000000" fill-rule="nonzero" fill-opacity="1" /><path clip-path="url(#clip800)" d="M160.011 1515.58 L176.33 1515.58 L176.33 1519.52 L154.386 1519.52 L154.386 1515.58 Q157.048 1512.83 161.631 1508.2 Q166.237 1503.55 167.418 1502.2 Q169.663 1499.68 170.543 1497.94 Q171.446 1496.18 171.446 1494.49 Q171.446 1491.74 169.501 1490 Q167.58 1488.27 164.478 1488.27 Q162.279 1488.27 159.825 1489.03 Q157.395 1489.8 154.617 1491.35 L154.617 1486.62 Q157.441 1485.49 159.895 1484.91 Q162.348 1484.33 164.385 1484.33 Q169.756 1484.33 172.95 1487.02 Q176.145 1489.7 176.145 1494.19 Q176.145 1496.32 175.334 1498.24 Q174.547 1500.14 172.441 1502.73 Q171.862 1503.41 168.76 1506.62 Q165.659 1509.82 160.011 1515.58 Z" fill="#000000" fill-rule="nonzero" fill-opacity="1" /><path clip-path="url(#clip800)" d="M164.385 1120.87 Q160.774 1120.87 158.946 1124.43 Q157.14 1127.98 157.14 1135.1 Q157.14 1142.21 158.946 1145.78 Q160.774 1149.32 164.385 1149.32 Q168.02 1149.32 169.825 1145.78 Q171.654 1142.21 171.654 1135.1 Q171.654 1127.98 169.825 1124.43 Q168.02 1120.87 164.385 1120.87 M164.385 1117.17 Q170.196 1117.17 173.251 1121.77 Q176.33 1126.35 176.33 1135.1 Q176.33 1143.83 173.251 1148.44 Q170.196 1153.02 164.385 1153.02 Q158.575 1153.02 155.497 1148.44 Q152.441 1143.83 152.441 1135.1 Q152.441 1126.35 155.497 1121.77 Q158.575 1117.17 164.385 1117.17 Z" fill="#000000" fill-rule="nonzero" fill-opacity="1" /><path clip-path="url(#clip800)" d="M160.011 781.248 L176.33 781.248 L176.33 785.183 L154.386 785.183 L154.386 781.248 Q157.048 778.493 161.631 773.863 Q166.237 769.211 167.418 767.868 Q169.663 765.345 170.543 763.609 Q171.446 761.85 171.446 760.16 Q171.446 757.405 169.501 755.669 Q167.58 753.933 164.478 753.933 Q162.279 753.933 159.825 754.697 Q157.395 755.461 154.617 757.012 L154.617 752.289 Q157.441 751.155 159.895 750.577 Q162.348 749.998 164.385 749.998 Q169.756 749.998 172.95 752.683 Q176.145 755.368 176.145 759.859 Q176.145 761.988 175.334 763.91 Q174.547 765.808 172.441 768.4 Q171.862 769.072 168.76 772.289 Q165.659 775.484 160.011 781.248 Z" fill="#000000" fill-rule="nonzero" fill-opacity="1" /><path clip-path="url(#clip800)" d="M166.747 387.53 L154.941 405.979 L166.747 405.979 L166.747 387.53 M165.52 383.456 L171.399 383.456 L171.399 405.979 L176.33 405.979 L176.33 409.867 L171.399 409.867 L171.399 418.016 L166.747 418.016 L166.747 409.867 L151.145 409.867 L151.145 405.354 L165.52 383.456 Z" fill="#000000" fill-rule="nonzero" fill-opacity="1" /><path clip-path="url(#clip800)" d="M12.1132 964.263 L16.983 964.263 L16.983 969.865 Q16.983 973.016 18.2562 974.257 Q19.5293 975.467 22.8395 975.467 L25.9905 975.467 L25.9905 965.823 L30.542 965.823 L30.542 975.467 L61.6384 975.467 L61.6384 981.355 L30.542 981.355 L30.542 986.957 L25.9905 986.957 L25.9905 981.355 L23.5079 981.355 Q17.5559 981.355 14.8505 978.586 Q12.1132 975.817 12.1132 969.801 L12.1132 964.263 Z" fill="#000000" fill-rule="nonzero" fill-opacity="1" /><path clip-path="url(#clip800)" d="M12.1769 945.293 Q19.4975 949.558 26.6589 951.627 Q33.8203 953.696 41.1727 953.696 Q48.5251 953.696 55.7502 951.627 Q62.9434 949.527 70.2321 945.293 L70.2321 950.386 Q62.7524 955.16 55.5274 957.547 Q48.3023 959.903 41.1727 959.903 Q34.0749 959.903 26.8817 957.547 Q19.6884 955.192 12.1769 950.386 L12.1769 945.293 Z" fill="#000000" fill-rule="nonzero" fill-opacity="1" /><path clip-path="url(#clip800)" d="M39.3585 911.141 Q40.0587 909.072 42.3504 907.131 Q44.642 905.158 48.6524 903.184 L61.6384 896.659 L61.6384 903.566 L49.4481 909.645 Q44.6738 912.001 43.1142 914.229 Q41.5546 916.425 41.5546 920.244 L41.5546 927.247 L61.6384 927.247 L61.6384 933.676 L14.1184 933.676 L14.1184 919.162 Q14.1184 911.014 17.5241 907.004 Q20.9297 902.993 27.8047 902.993 Q32.2925 902.993 35.2526 905.094 Q38.2126 907.163 39.3585 911.141 M19.402 927.247 L36.2711 927.247 L36.2711 919.162 Q36.2711 914.515 34.1386 912.16 Q31.9743 909.773 27.8047 909.773 Q23.6352 909.773 21.5345 912.16 Q19.402 914.515 19.402 919.162 L19.402 927.247 Z" fill="#000000" fill-rule="nonzero" fill-opacity="1" /><path clip-path="url(#clip800)" d="M12.1769 889.562 L12.1769 884.469 Q19.6884 879.695 26.8817 877.339 Q34.0749 874.952 41.1727 874.952 Q48.3023 874.952 55.5274 877.339 Q62.7524 879.695 70.2321 884.469 L70.2321 889.562 Q62.9434 885.328 55.7502 883.259 Q48.5251 881.159 41.1727 881.159 Q33.8203 881.159 26.6589 883.259 Q19.4975 885.328 12.1769 889.562 Z" fill="#000000" fill-rule="nonzero" fill-opacity="1" /><path clip-path="url(#clip800)" d="M641.754 12.096 L676.511 12.096 L676.511 18.9825 L649.937 18.9825 L649.937 36.8065 L673.918 36.8065 L673.918 43.6931 L649.937 43.6931 L649.937 72.576 L641.754 72.576 L641.754 12.096 Z" fill="#000000" fill-rule="nonzero" fill-opacity="1" /><path clip-path="url(#clip800)" d="M683.843 54.671 L683.843 27.2059 L691.297 27.2059 L691.297 54.3874 Q691.297 60.8284 693.808 64.0691 Q696.32 67.2693 701.343 67.2693 Q707.379 67.2693 710.862 63.421 Q714.387 59.5726 714.387 52.9291 L714.387 27.2059 L721.84 27.2059 L721.84 72.576 L714.387 72.576 L714.387 65.6084 Q711.673 69.7404 708.067 71.7658 Q704.502 73.7508 699.763 73.7508 Q691.945 73.7508 687.894 68.8897 Q683.843 64.0286 683.843 54.671 M702.599 26.1121 L702.599 26.1121 Z" fill="#000000" fill-rule="nonzero" fill-opacity="1" /><path clip-path="url(#clip800)" d="M774.907 45.1919 L774.907 72.576 L767.454 72.576 L767.454 45.4349 Q767.454 38.994 764.942 35.7938 Q762.43 32.5936 757.407 32.5936 Q751.371 32.5936 747.888 36.4419 Q744.404 40.2903 744.404 46.9338 L744.404 72.576 L736.91 72.576 L736.91 27.2059 L744.404 27.2059 L744.404 34.2544 Q747.077 30.163 750.683 28.1376 Q754.329 26.1121 759.068 26.1121 Q766.886 26.1121 770.897 30.9732 Q774.907 35.7938 774.907 45.1919 Z" fill="#000000" fill-rule="nonzero" fill-opacity="1" /><path clip-path="url(#clip800)" d="M822.424 28.9478 L822.424 35.9153 Q819.265 34.1734 816.064 33.3227 Q812.905 32.4315 809.664 32.4315 Q802.413 32.4315 798.402 37.0496 Q794.392 41.6271 794.392 49.9314 Q794.392 58.2358 798.402 62.8538 Q802.413 67.4314 809.664 67.4314 Q812.905 67.4314 816.064 66.5807 Q819.265 65.6895 822.424 63.9476 L822.424 70.8341 Q819.305 72.2924 815.943 73.0216 Q812.621 73.7508 808.854 73.7508 Q798.605 73.7508 792.569 67.3098 Q786.533 60.8689 786.533 49.9314 Q786.533 38.832 792.61 32.472 Q798.727 26.1121 809.34 26.1121 Q812.783 26.1121 816.064 26.8413 Q819.346 27.5299 822.424 28.9478 Z" fill="#000000" fill-rule="nonzero" fill-opacity="1" /><path clip-path="url(#clip800)" d="M842.76 14.324 L842.76 27.2059 L858.113 27.2059 L858.113 32.9987 L842.76 32.9987 L842.76 57.6282 Q842.76 63.1779 844.259 64.7578 Q845.798 66.3376 850.457 66.3376 L858.113 66.3376 L858.113 72.576 L850.457 72.576 Q841.828 72.576 838.547 69.3758 Q835.266 66.1351 835.266 57.6282 L835.266 32.9987 L829.797 32.9987 L829.797 27.2059 L835.266 27.2059 L835.266 14.324 L842.76 14.324 Z" fill="#000000" fill-rule="nonzero" fill-opacity="1" /><path clip-path="url(#clip800)" d="M867.916 27.2059 L875.37 27.2059 L875.37 72.576 L867.916 72.576 L867.916 27.2059 M867.916 9.54393 L875.37 9.54393 L875.37 18.9825 L867.916 18.9825 L867.916 9.54393 Z" fill="#000000" fill-rule="nonzero" fill-opacity="1" /><path clip-path="url(#clip800)" d="M908.547 32.4315 Q902.551 32.4315 899.067 37.1306 Q895.584 41.7891 895.584 49.9314 Q895.584 58.0738 899.027 62.7728 Q902.511 67.4314 908.547 67.4314 Q914.501 67.4314 917.985 62.7323 Q921.469 58.0333 921.469 49.9314 Q921.469 41.8701 917.985 37.1711 Q914.501 32.4315 908.547 32.4315 M908.547 26.1121 Q918.269 26.1121 923.818 32.4315 Q929.368 38.7509 929.368 49.9314 Q929.368 61.0714 923.818 67.4314 Q918.269 73.7508 908.547 73.7508 Q898.784 73.7508 893.234 67.4314 Q887.725 61.0714 887.725 49.9314 Q887.725 38.7509 893.234 32.4315 Q898.784 26.1121 908.547 26.1121 Z" fill="#000000" fill-rule="nonzero" fill-opacity="1" /><path clip-path="url(#clip800)" d="M979.437 45.1919 L979.437 72.576 L971.984 72.576 L971.984 45.4349 Q971.984 38.994 969.472 35.7938 Q966.961 32.5936 961.937 32.5936 Q955.902 32.5936 952.418 36.4419 Q948.934 40.2903 948.934 46.9338 L948.934 72.576 L941.44 72.576 L941.44 27.2059 L948.934 27.2059 L948.934 34.2544 Q951.608 30.163 955.213 28.1376 Q958.859 26.1121 963.598 26.1121 Q971.417 26.1121 975.427 30.9732 Q979.437 35.7938 979.437 45.1919 Z" fill="#000000" fill-rule="nonzero" fill-opacity="1" /><path clip-path="url(#clip800)" d="M1014.92 49.7694 Q1005.89 49.7694 1002.41 51.8354 Q998.922 53.9013 998.922 58.8839 Q998.922 62.8538 1001.51 65.2034 Q1004.15 67.5124 1008.64 67.5124 Q1014.84 67.5124 1018.57 63.1374 Q1022.34 58.7219 1022.34 51.4303 L1022.34 49.7694 L1014.92 49.7694 M1029.79 46.6907 L1029.79 72.576 L1022.34 72.576 L1022.34 65.6895 Q1019.78 69.8214 1015.98 71.8063 Q1012.17 73.7508 1006.66 73.7508 Q999.692 73.7508 995.56 69.8619 Q991.469 65.9325 991.469 59.3701 Q991.469 51.7138 996.573 47.825 Q1001.72 43.9361 1011.89 43.9361 L1022.34 43.9361 L1022.34 43.2069 Q1022.34 38.0623 1018.93 35.2672 Q1015.57 32.4315 1009.45 32.4315 Q1005.57 32.4315 1001.88 33.3632 Q998.193 34.295 994.79 36.1584 L994.79 29.2718 Q998.882 27.692 1002.73 26.9223 Q1006.58 26.1121 1010.22 26.1121 Q1020.07 26.1121 1024.93 31.2163 Q1029.79 36.3204 1029.79 46.6907 Z" fill="#000000" fill-rule="nonzero" fill-opacity="1" /><path clip-path="url(#clip800)" d="M1045.14 9.54393 L1052.6 9.54393 L1052.6 72.576 L1045.14 72.576 L1045.14 9.54393 Z" fill="#000000" fill-rule="nonzero" fill-opacity="1" /><path clip-path="url(#clip800)" d="M1123.57 44.2197 Q1126.2 45.1109 1128.67 48.0275 Q1131.18 50.9442 1133.7 56.0483 L1142 72.576 L1133.21 72.576 L1125.47 57.061 Q1122.47 50.9847 1119.64 48.9997 Q1116.84 47.0148 1111.98 47.0148 L1103.07 47.0148 L1103.07 72.576 L1094.89 72.576 L1094.89 12.096 L1113.36 12.096 Q1123.73 12.096 1128.83 16.4305 Q1133.94 20.7649 1133.94 29.5149 Q1133.94 35.2267 1131.27 38.994 Q1128.63 42.7613 1123.57 44.2197 M1103.07 18.8205 L1103.07 40.2903 L1113.36 40.2903 Q1119.27 40.2903 1122.27 37.5762 Q1125.31 34.8216 1125.31 29.5149 Q1125.31 24.2082 1122.27 21.5346 Q1119.27 18.8205 1113.36 18.8205 L1103.07 18.8205 Z" fill="#000000" fill-rule="nonzero" fill-opacity="1" /><path clip-path="url(#clip800)" d="M1187.29 48.0275 L1187.29 51.6733 L1153.02 51.6733 Q1153.5 59.3701 1157.64 63.421 Q1161.81 67.4314 1169.22 67.4314 Q1173.52 67.4314 1177.53 66.3781 Q1181.58 65.3249 1185.55 63.2184 L1185.55 70.267 Q1181.54 71.9684 1177.32 72.8596 Q1173.11 73.7508 1168.78 73.7508 Q1157.92 73.7508 1151.56 67.4314 Q1145.24 61.1119 1145.24 50.3365 Q1145.24 39.1965 1151.24 32.6746 Q1157.27 26.1121 1167.48 26.1121 Q1176.64 26.1121 1181.94 32.0264 Q1187.29 37.9003 1187.29 48.0275 M1179.84 45.84 Q1179.75 39.7232 1176.39 36.0774 Q1173.07 32.4315 1167.56 32.4315 Q1161.32 32.4315 1157.56 35.9558 Q1153.83 39.4801 1153.26 45.8805 L1179.84 45.84 Z" fill="#000000" fill-rule="nonzero" fill-opacity="1" /><path clip-path="url(#clip800)" d="M1228.45 28.5427 L1228.45 35.5912 Q1225.29 33.9709 1221.88 33.1607 Q1218.48 32.3505 1214.84 32.3505 Q1209.29 32.3505 1206.49 34.0519 Q1203.74 35.7533 1203.74 39.156 Q1203.74 41.7486 1205.72 43.2475 Q1207.71 44.7058 1213.7 46.0426 L1216.25 46.6097 Q1224.19 48.3111 1227.51 51.4303 Q1230.88 54.509 1230.88 60.0587 Q1230.88 66.3781 1225.85 70.0644 Q1220.87 73.7508 1212.12 73.7508 Q1208.48 73.7508 1204.51 73.0216 Q1200.58 72.3329 1196.2 70.9151 L1196.2 63.2184 Q1200.33 65.3654 1204.34 66.4591 Q1208.35 67.5124 1212.28 67.5124 Q1217.55 67.5124 1220.39 65.73 Q1223.22 63.9071 1223.22 60.6258 Q1223.22 57.5877 1221.15 55.9673 Q1219.13 54.3469 1212.2 52.8481 L1209.61 52.2405 Q1202.68 50.7821 1199.6 47.7845 Q1196.53 44.7463 1196.53 39.4801 Q1196.53 33.0797 1201.06 29.5959 Q1205.6 26.1121 1213.94 26.1121 Q1218.08 26.1121 1221.72 26.7198 Q1225.37 27.3274 1228.45 28.5427 Z" fill="#000000" fill-rule="nonzero" fill-opacity="1" /><path clip-path="url(#clip800)" d="M1249.96 65.7705 L1249.96 89.8329 L1242.46 89.8329 L1242.46 27.2059 L1249.96 27.2059 L1249.96 34.0924 Q1252.31 30.0415 1255.87 28.0971 Q1259.48 26.1121 1264.46 26.1121 Q1272.72 26.1121 1277.87 32.6746 Q1283.05 39.2371 1283.05 49.9314 Q1283.05 60.6258 1277.87 67.1883 Q1272.72 73.7508 1264.46 73.7508 Q1259.48 73.7508 1255.87 71.8063 Q1252.31 69.8214 1249.96 65.7705 M1275.32 49.9314 Q1275.32 41.7081 1271.91 37.0496 Q1268.55 32.3505 1262.64 32.3505 Q1256.72 32.3505 1253.32 37.0496 Q1249.96 41.7081 1249.96 49.9314 Q1249.96 58.1548 1253.32 62.8538 Q1256.72 67.5124 1262.64 67.5124 Q1268.55 67.5124 1271.91 62.8538 Q1275.32 58.1548 1275.32 49.9314 Z" fill="#000000" fill-rule="nonzero" fill-opacity="1" /><path clip-path="url(#clip800)" d="M1312.99 32.4315 Q1306.99 32.4315 1303.51 37.1306 Q1300.03 41.7891 1300.03 49.9314 Q1300.03 58.0738 1303.47 62.7728 Q1306.95 67.4314 1312.99 67.4314 Q1318.94 67.4314 1322.43 62.7323 Q1325.91 58.0333 1325.91 49.9314 Q1325.91 41.8701 1322.43 37.1711 Q1318.94 32.4315 1312.99 32.4315 M1312.99 26.1121 Q1322.71 26.1121 1328.26 32.4315 Q1333.81 38.7509 1333.81 49.9314 Q1333.81 61.0714 1328.26 67.4314 Q1322.71 73.7508 1312.99 73.7508 Q1303.23 73.7508 1297.68 67.4314 Q1292.17 61.0714 1292.17 49.9314 Q1292.17 38.7509 1297.68 32.4315 Q1303.23 26.1121 1312.99 26.1121 Z" fill="#000000" fill-rule="nonzero" fill-opacity="1" /><path clip-path="url(#clip800)" d="M1383.88 45.1919 L1383.88 72.576 L1376.43 72.576 L1376.43 45.4349 Q1376.43 38.994 1373.91 35.7938 Q1371.4 32.5936 1366.38 32.5936 Q1360.34 32.5936 1356.86 36.4419 Q1353.38 40.2903 1353.38 46.9338 L1353.38 72.576 L1345.88 72.576 L1345.88 27.2059 L1353.38 27.2059 L1353.38 34.2544 Q1356.05 30.163 1359.66 28.1376 Q1363.3 26.1121 1368.04 26.1121 Q1375.86 26.1121 1379.87 30.9732 Q1383.88 35.7938 1383.88 45.1919 Z" fill="#000000" fill-rule="nonzero" fill-opacity="1" /><path clip-path="url(#clip800)" d="M1427.67 28.5427 L1427.67 35.5912 Q1424.51 33.9709 1421.11 33.1607 Q1417.7 32.3505 1414.06 32.3505 Q1408.51 32.3505 1405.71 34.0519 Q1402.96 35.7533 1402.96 39.156 Q1402.96 41.7486 1404.94 43.2475 Q1406.93 44.7058 1412.92 46.0426 L1415.48 46.6097 Q1423.42 48.3111 1426.74 51.4303 Q1430.1 54.509 1430.1 60.0587 Q1430.1 66.3781 1425.08 70.0644 Q1420.09 73.7508 1411.34 73.7508 Q1407.7 73.7508 1403.73 73.0216 Q1399.8 72.3329 1395.42 70.9151 L1395.42 63.2184 Q1399.56 65.3654 1403.57 66.4591 Q1407.58 67.5124 1411.51 67.5124 Q1416.77 67.5124 1419.61 65.73 Q1422.44 63.9071 1422.44 60.6258 Q1422.44 57.5877 1420.38 55.9673 Q1418.35 54.3469 1411.43 52.8481 L1408.83 52.2405 Q1401.91 50.7821 1398.83 47.7845 Q1395.75 44.7463 1395.75 39.4801 Q1395.75 33.0797 1400.29 29.5959 Q1404.82 26.1121 1413.17 26.1121 Q1417.3 26.1121 1420.95 26.7198 Q1424.59 27.3274 1427.67 28.5427 Z" fill="#000000" fill-rule="nonzero" fill-opacity="1" /><path clip-path="url(#clip800)" d="M1480.78 48.0275 L1480.78 51.6733 L1446.51 51.6733 Q1446.99 59.3701 1451.12 63.421 Q1455.3 67.4314 1462.71 67.4314 Q1467 67.4314 1471.01 66.3781 Q1475.07 65.3249 1479.04 63.2184 L1479.04 70.267 Q1475.02 71.9684 1470.81 72.8596 Q1466.6 73.7508 1462.26 73.7508 Q1451.41 73.7508 1445.05 67.4314 Q1438.73 61.1119 1438.73 50.3365 Q1438.73 39.1965 1444.72 32.6746 Q1450.76 26.1121 1460.97 26.1121 Q1470.12 26.1121 1475.43 32.0264 Q1480.78 37.9003 1480.78 48.0275 M1473.32 45.84 Q1473.24 39.7232 1469.88 36.0774 Q1466.56 32.4315 1461.05 32.4315 Q1454.81 32.4315 1451.04 35.9558 Q1447.32 39.4801 1446.75 45.8805 L1473.32 45.84 Z" fill="#000000" fill-rule="nonzero" fill-opacity="1" /><path clip-path="url(#clip800)" d="M1515.62 46.9338 L1590.48 46.9338 L1590.48 52.7671 L1515.62 52.7671 L1515.62 46.9338 Z" fill="#000000" fill-rule="nonzero" fill-opacity="1" /><path clip-path="url(#clip800)" d="M1628.11 12.096 L1636.33 12.096 L1636.33 48.8377 Q1636.33 58.5599 1639.86 62.8538 Q1643.38 67.1073 1651.28 67.1073 Q1659.14 67.1073 1662.66 62.8538 Q1666.19 58.5599 1666.19 48.8377 L1666.19 12.096 L1674.41 12.096 L1674.41 49.8504 Q1674.41 61.6791 1668.54 67.7149 Q1662.7 73.7508 1651.28 73.7508 Q1639.82 73.7508 1633.94 67.7149 Q1628.11 61.6791 1628.11 49.8504 L1628.11 12.096 Z" fill="#000000" fill-rule="nonzero" fill-opacity="1" /><path clip-path="url(#clip800)" d="M1727.15 45.1919 L1727.15 72.576 L1719.7 72.576 L1719.7 45.4349 Q1719.7 38.994 1717.19 35.7938 Q1714.68 32.5936 1709.65 32.5936 Q1703.62 32.5936 1700.13 36.4419 Q1696.65 40.2903 1696.65 46.9338 L1696.65 72.576 L1689.16 72.576 L1689.16 27.2059 L1696.65 27.2059 L1696.65 34.2544 Q1699.32 30.163 1702.93 28.1376 Q1706.57 26.1121 1711.31 26.1121 Q1719.13 26.1121 1723.14 30.9732 Q1727.15 35.7938 1727.15 45.1919 Z" fill="#000000" fill-rule="nonzero" fill-opacity="1" /><path clip-path="url(#clip800)" d="M1774.67 28.9478 L1774.67 35.9153 Q1771.51 34.1734 1768.31 33.3227 Q1765.15 32.4315 1761.91 32.4315 Q1754.66 32.4315 1750.65 37.0496 Q1746.64 41.6271 1746.64 49.9314 Q1746.64 58.2358 1750.65 62.8538 Q1754.66 67.4314 1761.91 67.4314 Q1765.15 67.4314 1768.31 66.5807 Q1771.51 65.6895 1774.67 63.9476 L1774.67 70.8341 Q1771.55 72.2924 1768.19 73.0216 Q1764.87 73.7508 1761.1 73.7508 Q1750.85 73.7508 1744.82 67.3098 Q1738.78 60.8689 1738.78 49.9314 Q1738.78 38.832 1744.86 32.472 Q1750.97 26.1121 1761.59 26.1121 Q1765.03 26.1121 1768.31 26.8413 Q1771.59 27.5299 1774.67 28.9478 Z" fill="#000000" fill-rule="nonzero" fill-opacity="1" /><path clip-path="url(#clip800)" d="M1805.21 32.4315 Q1799.22 32.4315 1795.74 37.1306 Q1792.25 41.7891 1792.25 49.9314 Q1792.25 58.0738 1795.69 62.7728 Q1799.18 67.4314 1805.21 67.4314 Q1811.17 67.4314 1814.65 62.7323 Q1818.14 58.0333 1818.14 49.9314 Q1818.14 41.8701 1814.65 37.1711 Q1811.17 32.4315 1805.21 32.4315 M1805.21 26.1121 Q1814.94 26.1121 1820.49 32.4315 Q1826.04 38.7509 1826.04 49.9314 Q1826.04 61.0714 1820.49 67.4314 Q1814.94 73.7508 1805.21 73.7508 Q1795.45 73.7508 1789.9 67.4314 Q1784.39 61.0714 1784.39 49.9314 Q1784.39 38.7509 1789.9 32.4315 Q1795.45 26.1121 1805.21 26.1121 Z" fill="#000000" fill-rule="nonzero" fill-opacity="1" /><path clip-path="url(#clip800)" d="M1876.11 45.1919 L1876.11 72.576 L1868.65 72.576 L1868.65 45.4349 Q1868.65 38.994 1866.14 35.7938 Q1863.63 32.5936 1858.61 32.5936 Q1852.57 32.5936 1849.09 36.4419 Q1845.6 40.2903 1845.6 46.9338 L1845.6 72.576 L1838.11 72.576 L1838.11 27.2059 L1845.6 27.2059 L1845.6 34.2544 Q1848.28 30.163 1851.88 28.1376 Q1855.53 26.1121 1860.27 26.1121 Q1868.08 26.1121 1872.09 30.9732 Q1876.11 35.7938 1876.11 45.1919 Z" fill="#000000" fill-rule="nonzero" fill-opacity="1" /><path clip-path="url(#clip800)" d="M1919.9 28.5427 L1919.9 35.5912 Q1916.74 33.9709 1913.33 33.1607 Q1909.93 32.3505 1906.28 32.3505 Q1900.73 32.3505 1897.94 34.0519 Q1895.18 35.7533 1895.18 39.156 Q1895.18 41.7486 1897.17 43.2475 Q1899.15 44.7058 1905.15 46.0426 L1907.7 46.6097 Q1915.64 48.3111 1918.96 51.4303 Q1922.33 54.509 1922.33 60.0587 Q1922.33 66.3781 1917.3 70.0644 Q1912.32 73.7508 1903.57 73.7508 Q1899.92 73.7508 1895.95 73.0216 Q1892.03 72.3329 1887.65 70.9151 L1887.65 63.2184 Q1891.78 65.3654 1895.79 66.4591 Q1899.8 67.5124 1903.73 67.5124 Q1909 67.5124 1911.83 65.73 Q1914.67 63.9071 1914.67 60.6258 Q1914.67 57.5877 1912.6 55.9673 Q1910.58 54.3469 1903.65 52.8481 L1901.06 52.2405 Q1894.13 50.7821 1891.05 47.7845 Q1887.97 44.7463 1887.97 39.4801 Q1887.97 33.0797 1892.51 29.5959 Q1897.05 26.1121 1905.39 26.1121 Q1909.52 26.1121 1913.17 26.7198 Q1916.82 27.3274 1919.9 28.5427 Z" fill="#000000" fill-rule="nonzero" fill-opacity="1" /><path clip-path="url(#clip800)" d="M1941.57 14.324 L1941.57 27.2059 L1956.92 27.2059 L1956.92 32.9987 L1941.57 32.9987 L1941.57 57.6282 Q1941.57 63.1779 1943.07 64.7578 Q1944.61 66.3376 1949.26 66.3376 L1956.92 66.3376 L1956.92 72.576 L1949.26 72.576 Q1940.64 72.576 1937.35 69.3758 Q1934.07 66.1351 1934.07 57.6282 L1934.07 32.9987 L1928.6 32.9987 L1928.6 27.2059 L1934.07 27.2059 L1934.07 14.324 L1941.57 14.324 Z" fill="#000000" fill-rule="nonzero" fill-opacity="1" /><path clip-path="url(#clip800)" d="M1993.01 34.1734 Q1991.76 33.4443 1990.26 33.1202 Q1988.8 32.7556 1987.02 32.7556 Q1980.7 32.7556 1977.3 36.8875 Q1973.93 40.9789 1973.93 48.6757 L1973.93 72.576 L1966.44 72.576 L1966.44 27.2059 L1973.93 27.2059 L1973.93 34.2544 Q1976.28 30.1225 1980.05 28.1376 Q1983.82 26.1121 1989.21 26.1121 Q1989.98 26.1121 1990.91 26.2337 Q1991.84 26.3147 1992.97 26.5172 L1993.01 34.1734 Z" fill="#000000" fill-rule="nonzero" fill-opacity="1" /><path clip-path="url(#clip800)" d="M2021.45 49.7694 Q2012.42 49.7694 2008.93 51.8354 Q2005.45 53.9013 2005.45 58.8839 Q2005.45 62.8538 2008.04 65.2034 Q2010.68 67.5124 2015.17 67.5124 Q2021.37 67.5124 2025.1 63.1374 Q2028.86 58.7219 2028.86 51.4303 L2028.86 49.7694 L2021.45 49.7694 M2036.32 46.6907 L2036.32 72.576 L2028.86 72.576 L2028.86 65.6895 Q2026.31 69.8214 2022.5 71.8063 Q2018.7 73.7508 2013.19 73.7508 Q2006.22 73.7508 2002.09 69.8619 Q1998 65.9325 1998 59.3701 Q1998 51.7138 2003.1 47.825 Q2008.25 43.9361 2018.41 43.9361 L2028.86 43.9361 L2028.86 43.2069 Q2028.86 38.0623 2025.46 35.2672 Q2022.1 32.4315 2015.98 32.4315 Q2012.09 32.4315 2008.41 33.3632 Q2004.72 34.295 2001.32 36.1584 L2001.32 29.2718 Q2005.41 27.692 2009.26 26.9223 Q2013.11 26.1121 2016.75 26.1121 Q2026.6 26.1121 2031.46 31.2163 Q2036.32 36.3204 2036.32 46.6907 Z" fill="#000000" fill-rule="nonzero" fill-opacity="1" /><path clip-path="url(#clip800)" d="M2051.67 27.2059 L2059.12 27.2059 L2059.12 72.576 L2051.67 72.576 L2051.67 27.2059 M2051.67 9.54393 L2059.12 9.54393 L2059.12 18.9825 L2051.67 18.9825 L2051.67 9.54393 Z" fill="#000000" fill-rule="nonzero" fill-opacity="1" /><path clip-path="url(#clip800)" d="M2112.43 45.1919 L2112.43 72.576 L2104.98 72.576 L2104.98 45.4349 Q2104.98 38.994 2102.47 35.7938 Q2099.96 32.5936 2094.93 32.5936 Q2088.9 32.5936 2085.42 36.4419 Q2081.93 40.2903 2081.93 46.9338 L2081.93 72.576 L2074.44 72.576 L2074.44 27.2059 L2081.93 27.2059 L2081.93 34.2544 Q2084.61 30.163 2088.21 28.1376 Q2091.86 26.1121 2096.6 26.1121 Q2104.41 26.1121 2108.42 30.9732 Q2112.43 35.7938 2112.43 45.1919 Z" fill="#000000" fill-rule="nonzero" fill-opacity="1" /><path clip-path="url(#clip800)" d="M2166.11 48.0275 L2166.11 51.6733 L2131.84 51.6733 Q2132.32 59.3701 2136.46 63.421 Q2140.63 67.4314 2148.04 67.4314 Q2152.34 67.4314 2156.35 66.3781 Q2160.4 65.3249 2164.37 63.2184 L2164.37 70.267 Q2160.36 71.9684 2156.14 72.8596 Q2151.93 73.7508 2147.6 73.7508 Q2136.74 73.7508 2130.38 67.4314 Q2124.06 61.1119 2124.06 50.3365 Q2124.06 39.1965 2130.06 32.6746 Q2136.09 26.1121 2146.3 26.1121 Q2155.46 26.1121 2160.76 32.0264 Q2166.11 37.9003 2166.11 48.0275 M2158.66 45.84 Q2158.57 39.7232 2155.21 36.0774 Q2151.89 32.4315 2146.38 32.4315 Q2140.14 32.4315 2136.38 35.9558 Q2132.65 39.4801 2132.08 45.8805 L2158.66 45.84 Z" fill="#000000" fill-rule="nonzero" fill-opacity="1" /><path clip-path="url(#clip800)" d="M2208.2 34.0924 L2208.2 9.54393 L2215.65 9.54393 L2215.65 72.576 L2208.2 72.576 L2208.2 65.7705 Q2205.85 69.8214 2202.24 71.8063 Q2198.68 73.7508 2193.66 73.7508 Q2185.43 73.7508 2180.25 67.1883 Q2175.1 60.6258 2175.1 49.9314 Q2175.1 39.2371 2180.25 32.6746 Q2185.43 26.1121 2193.66 26.1121 Q2198.68 26.1121 2202.24 28.0971 Q2205.85 30.0415 2208.2 34.0924 M2182.8 49.9314 Q2182.8 58.1548 2186.16 62.8538 Q2189.56 67.5124 2195.48 67.5124 Q2201.39 67.5124 2204.8 62.8538 Q2208.2 58.1548 2208.2 49.9314 Q2208.2 41.7081 2204.8 37.0496 Q2201.39 32.3505 2195.48 32.3505 Q2189.56 32.3505 2186.16 37.0496 Q2182.8 41.7081 2182.8 49.9314 Z" fill="#000000" fill-rule="nonzero" fill-opacity="1" /><polyline clip-path="url(#clip801)" style="stroke:#000000; stroke-linecap:round; stroke-linejoin:round; stroke-width:12; stroke-opacity:1; fill:none" stroke-dasharray="48, 30" points="285.257,1117.59 296.749,1109.49 308.24,1101.77 319.732,1094.38 331.224,1087.32 342.716,1080.55 354.208,1074.07 365.7,1067.85 377.192,1061.87 388.684,1056.13 400.176,1050.61 411.668,1045.3 423.16,1040.18 434.652,1035.25 446.144,1030.49 457.635,1025.91 469.127,1021.47 480.619,1017.19 492.111,1013.05 503.603,1009.05 515.095,1005.17 526.587,1001.42 538.079,997.779 549.571,994.254 561.063,990.836 572.555,987.519 584.047,984.299 595.539,981.173 607.03,978.135 618.522,975.183 630.014,972.313 641.506,969.521 652.998,966.804 664.49,964.159 675.982,961.584 687.474,959.076 698.966,956.631 710.458,954.249 721.95,951.926 733.442,949.66 744.934,947.449 756.425,945.291 767.917,943.185 779.409,941.128 790.901,939.118 802.393,937.155 813.885,935.237 825.377,933.361 836.869,931.527 848.361,929.733 859.853,927.978 871.345,926.261 882.837,924.58 894.329,922.934 905.82,921.323 917.312,919.745 928.804,918.199 940.296,916.684 951.788,915.199 963.28,913.744 974.772,912.317 986.264,910.918 997.756,909.545 1009.25,908.199 1020.74,906.878 1032.23,905.582 1043.72,904.31 1055.22,903.061 1066.71,901.834 1078.2,900.63 1089.69,899.447 1101.18,898.285 1112.68,897.144 1124.17,896.022 1135.66,894.919 1147.15,893.836 1158.64,892.77 1170.13,891.723 1181.63,890.693 1193.12,889.68 1204.61,888.683 1216.1,887.703 1227.59,886.739 1239.09,885.79 1250.58,884.856 1262.07,883.936 1273.56,883.031 1285.05,882.14 1296.55,881.263 1308.04,880.399 1319.53,879.548 1331.02,878.71 1342.51,877.884 1354.01,877.071 1365.5,876.27 1376.99,875.48 1388.48,874.701 1399.97,873.934 1411.47,873.178 1422.96,872.433 1434.45,871.697 1445.94,870.973 1457.43,870.258 1468.92,869.553 1480.42,868.858 1491.91,868.172 1503.4,867.496 1514.89,866.828 1526.38,866.17 1537.88,865.52 1549.37,864.878 1560.86,864.245 1572.35,863.621 1583.84,863.004 1595.34,862.395 1606.83,861.794 1618.32,861.201 1629.81,860.615 1641.3,860.036 1652.8,859.465 1664.29,858.9 1675.78,858.343 1687.27,857.792 1698.76,857.248 1710.25,856.71 1721.75,856.179 1733.24,855.654 1744.73,855.136 1756.22,854.623 1767.71,854.117 1779.21,853.616 1790.7,853.121 1802.19,852.632 1813.68,852.148 1825.17,851.67 1836.67,851.198 1848.16,850.73 1859.65,850.268 1871.14,849.811 1882.63,849.359 1894.13,848.912 1905.62,848.47 1917.11,848.033 1928.6,847.6 1940.09,847.172 1951.59,846.748 1963.08,846.33 1974.57,845.915 1986.06,845.505 1997.55,845.099 2009.04,844.697 2020.54,844.3 2032.03,843.907 2043.52,843.517 2055.01,843.132 2066.5,842.75 2078,842.373 2089.49,841.999 2100.98,841.629 2112.47,841.263 2123.96,840.9 2135.46,840.541 2146.95,840.185 2158.44,839.833 2169.93,839.484 2181.42,839.138 2192.92,838.796 2204.41,838.457 2215.9,838.122 2227.39,837.789 2238.88,837.46 2250.38,837.134 2261.87,836.81 2273.36,836.49 2284.85,836.173 2296.34,835.859 2307.83,835.547 2319.33,835.239 2330.82,834.933 2342.31,834.63 2353.8,834.33 2365.29,834.032 2376.79,833.737 2388.28,833.445 2399.77,833.155 2411.26,832.868 2422.75,832.583 2434.25,832.301 2445.74,832.021 2457.23,831.744 2468.72,831.469 2480.21,831.197 2491.71,830.926 2503.2,830.658 2514.69,830.393 2526.18,830.129 2537.67,829.868 2549.17,829.609 2560.66,829.352 2572.15,829.097 "/>
<polyline clip-path="url(#clip801)" style="stroke:#008080; stroke-linecap:round; stroke-linejoin:round; stroke-width:8; stroke-opacity:1; fill:none" points="285.257,1688.65 296.749,1680.43 308.24,1672.2 319.732,1663.95 331.224,1655.69 342.716,1647.4 354.208,1639.09 365.7,1630.75 377.192,1622.38 388.684,1613.97 400.176,1605.53 411.668,1597.04 423.16,1588.51 434.652,1579.93 446.144,1571.29 457.635,1562.6 469.127,1553.85 480.619,1545.04 492.111,1536.15 503.603,1527.2 515.095,1518.18 526.587,1509.08 538.079,1499.9 549.571,1490.65 561.063,1481.34 572.555,1471.96 584.047,1462.53 595.539,1453.04 607.03,1443.51 618.522,1433.94 630.014,1424.32 641.506,1414.68 652.998,1405 664.49,1395.3 675.982,1385.58 687.474,1375.84 698.966,1366.1 710.458,1356.35 721.95,1346.59 733.442,1336.84 744.934,1327.1 756.425,1317.37 767.917,1307.66 779.409,1297.97 790.901,1288.3 802.393,1278.66 813.885,1269.05 825.377,1259.46 836.869,1249.9 848.361,1240.36 859.853,1230.86 871.345,1221.37 882.837,1211.92 894.329,1202.49 905.82,1193.1 917.312,1183.73 928.804,1174.38 940.296,1165.07 951.788,1155.79 963.28,1146.53 974.772,1137.31 986.264,1128.12 997.756,1118.95 1009.25,1109.82 1020.74,1100.72 1032.23,1091.65 1043.72,1082.61 1055.22,1073.62 1066.71,1064.67 1078.2,1055.79 1089.69,1046.99 1101.18,1038.27 1112.68,1029.65 1124.17,1021.13 1135.66,1012.72 1147.15,1004.45 1158.64,996.312 1170.13,988.322 1181.63,980.492 1193.12,972.831 1204.61,965.351 1216.1,958.061 1227.59,950.972 1239.09,944.096 1250.58,937.442 1262.07,931.021 1273.56,924.844 1285.05,918.921 1296.55,913.263 1308.04,907.871 1319.53,902.743 1331.02,897.876 1342.51,893.267 1354.01,888.915 1365.5,884.815 1376.99,880.966 1388.48,877.364 1399.97,874.008 1411.47,870.893 1422.96,868.018 1434.45,865.379 1445.94,862.975 1457.43,860.802 1468.92,858.857 1480.42,857.139 1491.91,855.643 1503.4,854.368 1514.89,853.311 1526.38,852.468 1537.88,851.838 1549.37,851.417 1560.86,851.197 1572.35,851.158 1583.84,851.282 1595.34,851.548 1606.83,851.938 1618.32,852.432 1629.81,853.01 1641.3,853.653 1652.8,854.342 1664.29,855.056 1675.78,855.778 1687.27,856.486 1698.76,857.162 1710.25,857.787 1721.75,858.34 1733.24,858.803 1744.73,859.156 1756.22,859.379 1767.71,859.453 1779.21,859.358 1790.7,859.076 1802.19,858.586 1813.68,857.877 1825.17,856.966 1836.67,855.878 1848.16,854.638 1859.65,853.271 1871.14,851.801 1882.63,850.254 1894.13,848.654 1905.62,847.027 1917.11,845.396 1928.6,843.787 1940.09,842.225 1951.59,840.734 1963.08,839.34 1974.57,838.067 1986.06,836.941 1997.55,835.985 2009.04,835.225 2020.54,834.686 2032.03,834.392 2043.52,834.369 2055.01,834.641 2066.5,835.228 2078,836.083 2089.49,837.119 2100.98,838.246 2112.47,839.378 2123.96,840.425 2135.46,841.299 2146.95,841.911 2158.44,842.173 2169.93,841.996 2181.42,841.292 2192.92,839.972 2204.41,837.948 2215.9,835.132 2227.39,831.435 2238.88,826.768 2250.38,821.043 2261.87,814.172 2273.36,806.065 2284.85,796.636 2296.34,785.794 2307.83,773.452 2319.33,759.522 2330.82,743.977 2342.31,726.882 2353.8,708.312 2365.29,688.341 2376.79,667.041 2388.28,644.487 2399.77,620.753 2411.26,595.912 2422.75,570.038 2434.25,543.205 2445.74,515.487 2457.23,486.957 2468.72,457.689 2480.21,427.758 2491.71,397.236 2503.2,366.197 2514.69,334.717 2526.18,302.867 2537.67,270.722 2549.17,238.356 2560.66,205.842 2572.15,173.254 "/>
<path clip-path="url(#clip801)" d="M1417.15 3340.44 L1417.15 -1478.53 L2167.64 -1478.53 L2167.64 3340.44 L1417.15 3340.44  Z" fill="#4682b4" fill-rule="evenodd" fill-opacity="0.08"/>
<polyline clip-path="url(#clip801)" style="stroke:#000000; stroke-linecap:round; stroke-linejoin:round; stroke-width:0; stroke-opacity:0.08; fill:none" points="1417.15,3340.44 1417.15,-1478.53 2167.64,-1478.53 2167.64,3340.44 1417.15,3340.44 "/>
<path clip-path="url(#clip800)" d="M1973.79 1680.57 L2559.95 1680.57 L2559.95 1473.21 L1973.79 1473.21  Z" fill="#ffffff" fill-rule="evenodd" fill-opacity="1"/>
<polyline clip-path="url(#clip800)" style="stroke:#000000; stroke-linecap:round; stroke-linejoin:round; stroke-width:4; stroke-opacity:1; fill:none" points="1973.79,1680.57 2559.95,1680.57 2559.95,1473.21 1973.79,1473.21 1973.79,1680.57 "/>
<polyline clip-path="url(#clip800)" style="stroke:#000000; stroke-linecap:round; stroke-linejoin:round; stroke-width:12; stroke-opacity:1; fill:none" stroke-dasharray="48, 30" points="2000.73,1525.05 2162.34,1525.05 "/>
<path clip-path="url(#clip800)" d="M2189.27 1507.77 L2218.51 1507.77 L2218.51 1511.71 L2206.24 1511.71 L2206.24 1542.33 L2201.54 1542.33 L2201.54 1511.71 L2189.27 1511.71 L2189.27 1507.77 Z" fill="#000000" fill-rule="nonzero" fill-opacity="1" /><path clip-path="url(#clip800)" d="M2230.89 1520.39 Q2230.17 1519.97 2229.32 1519.79 Q2228.48 1519.58 2227.46 1519.58 Q2223.85 1519.58 2221.91 1521.94 Q2219.99 1524.28 2219.99 1528.68 L2219.99 1542.33 L2215.7 1542.33 L2215.7 1516.41 L2219.99 1516.41 L2219.99 1520.43 Q2221.33 1518.07 2223.48 1516.94 Q2225.64 1515.78 2228.71 1515.78 Q2229.15 1515.78 2229.69 1515.85 Q2230.22 1515.9 2230.87 1516.01 L2230.89 1520.39 Z" fill="#000000" fill-rule="nonzero" fill-opacity="1" /><path clip-path="url(#clip800)" d="M2234.92 1532.1 L2234.92 1516.41 L2239.18 1516.41 L2239.18 1531.94 Q2239.18 1535.62 2240.61 1537.47 Q2242.05 1539.3 2244.92 1539.3 Q2248.37 1539.3 2250.36 1537.1 Q2252.37 1534.9 2252.37 1531.11 L2252.37 1516.41 L2256.63 1516.41 L2256.63 1542.33 L2252.37 1542.33 L2252.37 1538.35 Q2250.82 1540.71 2248.76 1541.87 Q2246.72 1543 2244.01 1543 Q2239.55 1543 2237.23 1540.23 Q2234.92 1537.45 2234.92 1532.1 M2245.64 1515.78 L2245.64 1515.78 Z" fill="#000000" fill-rule="nonzero" fill-opacity="1" /><path clip-path="url(#clip800)" d="M2287.58 1528.31 L2287.58 1530.39 L2268 1530.39 Q2268.27 1534.79 2270.64 1537.1 Q2273.02 1539.39 2277.26 1539.39 Q2279.71 1539.39 2282 1538.79 Q2284.32 1538.19 2286.58 1536.99 L2286.58 1541.01 Q2284.29 1541.99 2281.88 1542.49 Q2279.48 1543 2277 1543 Q2270.8 1543 2267.16 1539.39 Q2263.55 1535.78 2263.55 1529.62 Q2263.55 1523.26 2266.98 1519.53 Q2270.43 1515.78 2276.26 1515.78 Q2281.49 1515.78 2284.52 1519.16 Q2287.58 1522.52 2287.58 1528.31 M2283.32 1527.06 Q2283.27 1523.56 2281.35 1521.48 Q2279.45 1519.39 2276.31 1519.39 Q2272.74 1519.39 2270.59 1521.41 Q2268.46 1523.42 2268.14 1527.08 L2283.32 1527.06 Z" fill="#000000" fill-rule="nonzero" fill-opacity="1" /><path clip-path="url(#clip800)" d="M2322.76 1506.31 L2322.76 1509.86 L2318.69 1509.86 Q2316.4 1509.86 2315.5 1510.78 Q2314.62 1511.71 2314.62 1514.12 L2314.62 1516.41 L2321.63 1516.41 L2321.63 1519.72 L2314.62 1519.72 L2314.62 1542.33 L2310.33 1542.33 L2310.33 1519.72 L2306.26 1519.72 L2306.26 1516.41 L2310.33 1516.41 L2310.33 1514.6 Q2310.33 1510.27 2312.35 1508.31 Q2314.36 1506.31 2318.74 1506.31 L2322.76 1506.31 Z" fill="#000000" fill-rule="nonzero" fill-opacity="1" /><path clip-path="url(#clip800)" d="M2336.56 1506.36 Q2333.46 1511.68 2331.95 1516.89 Q2330.45 1522.1 2330.45 1527.45 Q2330.45 1532.8 2331.95 1538.05 Q2333.48 1543.28 2336.56 1548.58 L2332.86 1548.58 Q2329.38 1543.14 2327.65 1537.89 Q2325.94 1532.63 2325.94 1527.45 Q2325.94 1522.29 2327.65 1517.06 Q2329.36 1511.82 2332.86 1506.36 L2336.56 1506.36 Z" fill="#000000" fill-rule="nonzero" fill-opacity="1" /><path clip-path="url(#clip800)" d="M2361.4 1526.13 Q2362.9 1526.64 2364.32 1528.31 Q2365.75 1529.97 2367.19 1532.89 L2371.93 1542.33 L2366.91 1542.33 L2362.49 1533.47 Q2360.77 1529.99 2359.15 1528.86 Q2357.56 1527.73 2354.78 1527.73 L2349.69 1527.73 L2349.69 1542.33 L2345.01 1542.33 L2345.01 1507.77 L2355.57 1507.77 Q2361.49 1507.77 2364.41 1510.25 Q2367.32 1512.73 2367.32 1517.73 Q2367.32 1520.99 2365.8 1523.14 Q2364.29 1525.3 2361.4 1526.13 M2349.69 1511.62 L2349.69 1523.88 L2355.57 1523.88 Q2358.94 1523.88 2360.66 1522.33 Q2362.39 1520.76 2362.39 1517.73 Q2362.39 1514.69 2360.66 1513.17 Q2358.94 1511.62 2355.57 1511.62 L2349.69 1511.62 Z" fill="#000000" fill-rule="nonzero" fill-opacity="1" /><path clip-path="url(#clip800)" d="M2377.09 1506.36 L2380.8 1506.36 Q2384.27 1511.82 2385.98 1517.06 Q2387.72 1522.29 2387.72 1527.45 Q2387.72 1532.63 2385.98 1537.89 Q2384.27 1543.14 2380.8 1548.58 L2377.09 1548.58 Q2380.17 1543.28 2381.68 1538.05 Q2383.2 1532.8 2383.2 1527.45 Q2383.2 1522.1 2381.68 1516.89 Q2380.17 1511.68 2377.09 1506.36 Z" fill="#000000" fill-rule="nonzero" fill-opacity="1" /><polyline clip-path="url(#clip800)" style="stroke:#008080; stroke-linecap:round; stroke-linejoin:round; stroke-width:8; stroke-opacity:1; fill:none" points="2000.73,1576.89 2162.34,1576.89 "/>
<path clip-path="url(#clip800)" d="M2189.27 1559.61 L2193.95 1559.61 L2193.95 1590.24 L2210.77 1590.24 L2210.77 1594.17 L2189.27 1594.17 L2189.27 1559.61 Z" fill="#000000" fill-rule="nonzero" fill-opacity="1" /><path clip-path="url(#clip800)" d="M2228.32 1564.22 L2221.98 1581.42 L2234.69 1581.42 L2228.32 1564.22 M2225.68 1559.61 L2230.98 1559.61 L2244.15 1594.17 L2239.29 1594.17 L2236.14 1585.31 L2220.57 1585.31 L2217.42 1594.17 L2212.49 1594.17 L2225.68 1559.61 Z" fill="#000000" fill-rule="nonzero" fill-opacity="1" /><path clip-path="url(#clip800)" d="M2249.2 1559.61 L2256.17 1559.61 L2264.99 1583.13 L2273.85 1559.61 L2280.82 1559.61 L2280.82 1594.17 L2276.26 1594.17 L2276.26 1563.83 L2267.35 1587.53 L2262.65 1587.53 L2253.74 1563.83 L2253.74 1594.17 L2249.2 1594.17 L2249.2 1559.61 Z" fill="#000000" fill-rule="nonzero" fill-opacity="1" /><path clip-path="url(#clip800)" d="M2290.1 1559.61 L2294.78 1559.61 L2294.78 1590.24 L2311.61 1590.24 L2311.61 1594.17 L2290.1 1594.17 L2290.1 1559.61 Z" fill="#000000" fill-rule="nonzero" fill-opacity="1" /><path clip-path="url(#clip800)" d="M2353.57 1580.15 L2353.57 1582.23 L2333.99 1582.23 Q2334.27 1586.63 2336.63 1588.94 Q2339.01 1591.23 2343.25 1591.23 Q2345.7 1591.23 2348 1590.63 Q2350.31 1590.03 2352.58 1588.83 L2352.58 1592.85 Q2350.29 1593.83 2347.88 1594.33 Q2345.47 1594.84 2343 1594.84 Q2336.79 1594.84 2333.16 1591.23 Q2329.55 1587.62 2329.55 1581.46 Q2329.55 1575.1 2332.97 1571.37 Q2336.42 1567.62 2342.25 1567.62 Q2347.49 1567.62 2350.52 1571 Q2353.57 1574.36 2353.57 1580.15 M2349.32 1578.9 Q2349.27 1575.4 2347.35 1573.32 Q2345.45 1571.23 2342.3 1571.23 Q2338.74 1571.23 2336.58 1573.25 Q2334.45 1575.26 2334.13 1578.92 L2349.32 1578.9 Z" fill="#000000" fill-rule="nonzero" fill-opacity="1" /><path clip-path="url(#clip800)" d="M2377.09 1569.01 L2377.09 1573.04 Q2375.29 1572.11 2373.34 1571.65 Q2371.4 1571.19 2369.32 1571.19 Q2366.14 1571.19 2364.55 1572.16 Q2362.97 1573.13 2362.97 1575.08 Q2362.97 1576.56 2364.11 1577.41 Q2365.24 1578.25 2368.67 1579.01 L2370.13 1579.33 Q2374.66 1580.31 2376.56 1582.09 Q2378.48 1583.85 2378.48 1587.02 Q2378.48 1590.63 2375.61 1592.74 Q2372.76 1594.84 2367.76 1594.84 Q2365.68 1594.84 2363.41 1594.43 Q2361.17 1594.03 2358.67 1593.22 L2358.67 1588.83 Q2361.03 1590.05 2363.32 1590.68 Q2365.61 1591.28 2367.86 1591.28 Q2370.87 1591.28 2372.49 1590.26 Q2374.11 1589.22 2374.11 1587.34 Q2374.11 1585.61 2372.93 1584.68 Q2371.77 1583.76 2367.81 1582.9 L2366.33 1582.55 Q2362.37 1581.72 2360.61 1580.01 Q2358.85 1578.27 2358.85 1575.26 Q2358.85 1571.6 2361.44 1569.61 Q2364.04 1567.62 2368.81 1567.62 Q2371.17 1567.62 2373.25 1567.97 Q2375.33 1568.32 2377.09 1569.01 Z" fill="#000000" fill-rule="nonzero" fill-opacity="1" /><path clip-path="url(#clip800)" d="M2389.48 1560.89 L2389.48 1568.25 L2398.25 1568.25 L2398.25 1571.56 L2389.48 1571.56 L2389.48 1585.63 Q2389.48 1588.8 2390.33 1589.71 Q2391.21 1590.61 2393.88 1590.61 L2398.25 1590.61 L2398.25 1594.17 L2393.88 1594.17 Q2388.94 1594.17 2387.07 1592.34 Q2385.19 1590.49 2385.19 1585.63 L2385.19 1571.56 L2382.07 1571.56 L2382.07 1568.25 L2385.19 1568.25 L2385.19 1560.89 L2389.48 1560.89 Z" fill="#000000" fill-rule="nonzero" fill-opacity="1" /><path clip-path="url(#clip800)" d="M2403.85 1568.25 L2408.11 1568.25 L2408.11 1594.17 L2403.85 1594.17 L2403.85 1568.25 M2403.85 1558.15 L2408.11 1558.15 L2408.11 1563.55 L2403.85 1563.55 L2403.85 1558.15 Z" fill="#000000" fill-rule="nonzero" fill-opacity="1" /><path clip-path="url(#clip800)" d="M2437.21 1573.22 Q2438.81 1570.35 2441.03 1568.99 Q2443.25 1567.62 2446.26 1567.62 Q2450.31 1567.62 2452.51 1570.47 Q2454.71 1573.29 2454.71 1578.52 L2454.71 1594.17 L2450.43 1594.17 L2450.43 1578.66 Q2450.43 1574.94 2449.11 1573.13 Q2447.79 1571.33 2445.08 1571.33 Q2441.77 1571.33 2439.85 1573.52 Q2437.93 1575.72 2437.93 1579.52 L2437.93 1594.17 L2433.64 1594.17 L2433.64 1578.66 Q2433.64 1574.91 2432.32 1573.13 Q2431 1571.33 2428.25 1571.33 Q2424.99 1571.33 2423.06 1573.55 Q2421.14 1575.75 2421.14 1579.52 L2421.14 1594.17 L2416.86 1594.17 L2416.86 1568.25 L2421.14 1568.25 L2421.14 1572.27 Q2422.6 1569.89 2424.64 1568.76 Q2426.68 1567.62 2429.48 1567.62 Q2432.3 1567.62 2434.27 1569.06 Q2436.26 1570.49 2437.21 1573.22 Z" fill="#000000" fill-rule="nonzero" fill-opacity="1" /><path clip-path="url(#clip800)" d="M2474.99 1581.14 Q2469.82 1581.14 2467.83 1582.32 Q2465.84 1583.5 2465.84 1586.35 Q2465.84 1588.62 2467.32 1589.96 Q2468.83 1591.28 2471.4 1591.28 Q2474.94 1591.28 2477.07 1588.78 Q2479.22 1586.26 2479.22 1582.09 L2479.22 1581.14 L2474.99 1581.14 M2483.48 1579.38 L2483.48 1594.17 L2479.22 1594.17 L2479.22 1590.24 Q2477.76 1592.6 2475.59 1593.73 Q2473.41 1594.84 2470.26 1594.84 Q2466.28 1594.84 2463.92 1592.62 Q2461.58 1590.38 2461.58 1586.63 Q2461.58 1582.25 2464.5 1580.03 Q2467.44 1577.81 2473.25 1577.81 L2479.22 1577.81 L2479.22 1577.39 Q2479.22 1574.45 2477.28 1572.85 Q2475.36 1571.23 2471.86 1571.23 Q2469.64 1571.23 2467.53 1571.77 Q2465.43 1572.3 2463.48 1573.36 L2463.48 1569.43 Q2465.82 1568.52 2468.02 1568.09 Q2470.22 1567.62 2472.3 1567.62 Q2477.93 1567.62 2480.7 1570.54 Q2483.48 1573.46 2483.48 1579.38 Z" fill="#000000" fill-rule="nonzero" fill-opacity="1" /><path clip-path="url(#clip800)" d="M2496.47 1560.89 L2496.47 1568.25 L2505.24 1568.25 L2505.24 1571.56 L2496.47 1571.56 L2496.47 1585.63 Q2496.47 1588.8 2497.32 1589.71 Q2498.2 1590.61 2500.87 1590.61 L2505.24 1590.61 L2505.24 1594.17 L2500.87 1594.17 Q2495.93 1594.17 2494.06 1592.34 Q2492.18 1590.49 2492.18 1585.63 L2492.18 1571.56 L2489.06 1571.56 L2489.06 1568.25 L2492.18 1568.25 L2492.18 1560.89 L2496.47 1560.89 Z" fill="#000000" fill-rule="nonzero" fill-opacity="1" /><path clip-path="url(#clip800)" d="M2533.02 1580.15 L2533.02 1582.23 L2513.43 1582.23 Q2513.71 1586.63 2516.07 1588.94 Q2518.46 1591.23 2522.69 1591.23 Q2525.15 1591.23 2527.44 1590.63 Q2529.75 1590.03 2532.02 1588.83 L2532.02 1592.85 Q2529.73 1593.83 2527.32 1594.33 Q2524.92 1594.84 2522.44 1594.84 Q2516.24 1594.84 2512.6 1591.23 Q2508.99 1587.62 2508.99 1581.46 Q2508.99 1575.1 2512.42 1571.37 Q2515.87 1567.62 2521.7 1567.62 Q2526.93 1567.62 2529.96 1571 Q2533.02 1574.36 2533.02 1580.15 M2528.76 1578.9 Q2528.71 1575.4 2526.79 1573.32 Q2524.89 1571.23 2521.74 1571.23 Q2518.18 1571.23 2516.03 1573.25 Q2513.9 1575.26 2513.57 1578.92 L2528.76 1578.9 Z" fill="#000000" fill-rule="nonzero" fill-opacity="1" /><path clip-path="url(#clip800)" d="M2000.73 1649.47 L2162.34 1649.47 L2162.34 1608 L2000.73 1608 L2000.73 1649.47  Z" fill="#4682b4" fill-rule="evenodd" fill-opacity="0.08"/>
<polyline clip-path="url(#clip800)" style="stroke:#000000; stroke-linecap:round; stroke-linejoin:round; stroke-width:0.8; stroke-opacity:1; fill:none" points="2000.73,1649.47 2162.34,1649.47 2162.34,1608 2000.73,1608 2000.73,1649.47 "/>
<path clip-path="url(#clip800)" d="M2193.95 1615.3 L2193.95 1642.17 L2199.59 1642.17 Q2206.75 1642.17 2210.06 1638.93 Q2213.39 1635.69 2213.39 1628.7 Q2213.39 1621.75 2210.06 1618.54 Q2206.75 1615.3 2199.59 1615.3 L2193.95 1615.3 M2189.27 1611.45 L2198.88 1611.45 Q2208.92 1611.45 2213.62 1615.64 Q2218.32 1619.81 2218.32 1628.7 Q2218.32 1637.63 2213.6 1641.82 Q2208.88 1646.01 2198.88 1646.01 L2189.27 1646.01 L2189.27 1611.45 Z" fill="#000000" fill-rule="nonzero" fill-opacity="1" /><path clip-path="url(#clip800)" d="M2237.37 1632.98 Q2232.21 1632.98 2230.22 1634.16 Q2228.23 1635.34 2228.23 1638.19 Q2228.23 1640.46 2229.71 1641.8 Q2231.21 1643.12 2233.78 1643.12 Q2237.32 1643.12 2239.45 1640.62 Q2241.61 1638.1 2241.61 1633.93 L2241.61 1632.98 L2237.37 1632.98 M2245.87 1631.22 L2245.87 1646.01 L2241.61 1646.01 L2241.61 1642.08 Q2240.15 1644.44 2237.97 1645.57 Q2235.8 1646.68 2232.65 1646.68 Q2228.67 1646.68 2226.31 1644.46 Q2223.97 1642.22 2223.97 1638.47 Q2223.97 1634.09 2226.89 1631.87 Q2229.83 1629.65 2235.64 1629.65 L2241.61 1629.65 L2241.61 1629.23 Q2241.61 1626.29 2239.66 1624.69 Q2237.74 1623.07 2234.25 1623.07 Q2232.02 1623.07 2229.92 1623.61 Q2227.81 1624.14 2225.87 1625.2 L2225.87 1621.27 Q2228.2 1620.36 2230.4 1619.93 Q2232.6 1619.46 2234.69 1619.46 Q2240.31 1619.46 2243.09 1622.38 Q2245.87 1625.3 2245.87 1631.22 Z" fill="#000000" fill-rule="nonzero" fill-opacity="1" /><path clip-path="url(#clip800)" d="M2258.85 1612.73 L2258.85 1620.09 L2267.63 1620.09 L2267.63 1623.4 L2258.85 1623.4 L2258.85 1637.47 Q2258.85 1640.64 2259.71 1641.55 Q2260.59 1642.45 2263.25 1642.45 L2267.63 1642.45 L2267.63 1646.01 L2263.25 1646.01 Q2258.32 1646.01 2256.45 1644.18 Q2254.57 1642.33 2254.57 1637.47 L2254.57 1623.4 L2251.45 1623.4 L2251.45 1620.09 L2254.57 1620.09 L2254.57 1612.73 L2258.85 1612.73 Z" fill="#000000" fill-rule="nonzero" fill-opacity="1" /><path clip-path="url(#clip800)" d="M2285.01 1632.98 Q2279.85 1632.98 2277.86 1634.16 Q2275.87 1635.34 2275.87 1638.19 Q2275.87 1640.46 2277.35 1641.8 Q2278.85 1643.12 2281.42 1643.12 Q2284.96 1643.12 2287.09 1640.62 Q2289.25 1638.1 2289.25 1633.93 L2289.25 1632.98 L2285.01 1632.98 M2293.51 1631.22 L2293.51 1646.01 L2289.25 1646.01 L2289.25 1642.08 Q2287.79 1644.44 2285.61 1645.57 Q2283.44 1646.68 2280.29 1646.68 Q2276.31 1646.68 2273.95 1644.46 Q2271.61 1642.22 2271.61 1638.47 Q2271.61 1634.09 2274.52 1631.87 Q2277.46 1629.65 2283.27 1629.65 L2289.25 1629.65 L2289.25 1629.23 Q2289.25 1626.29 2287.3 1624.69 Q2285.38 1623.07 2281.88 1623.07 Q2279.66 1623.07 2277.56 1623.61 Q2275.45 1624.14 2273.51 1625.2 L2273.51 1621.27 Q2275.84 1620.36 2278.04 1619.93 Q2280.24 1619.46 2282.32 1619.46 Q2287.95 1619.46 2290.73 1622.38 Q2293.51 1625.3 2293.51 1631.22 Z" fill="#000000" fill-rule="nonzero" fill-opacity="1" /><path clip-path="url(#clip800)" d="M2332.37 1624.07 Q2331.65 1623.65 2330.8 1623.47 Q2329.96 1623.26 2328.94 1623.26 Q2325.33 1623.26 2323.39 1625.62 Q2321.47 1627.96 2321.47 1632.36 L2321.47 1646.01 L2317.19 1646.01 L2317.19 1620.09 L2321.47 1620.09 L2321.47 1624.11 Q2322.81 1621.75 2324.96 1620.62 Q2327.12 1619.46 2330.19 1619.46 Q2330.63 1619.46 2331.17 1619.53 Q2331.7 1619.58 2332.35 1619.69 L2332.37 1624.07 Z" fill="#000000" fill-rule="nonzero" fill-opacity="1" /><path clip-path="url(#clip800)" d="M2348.62 1632.98 Q2343.46 1632.98 2341.47 1634.16 Q2339.48 1635.34 2339.48 1638.19 Q2339.48 1640.46 2340.96 1641.8 Q2342.46 1643.12 2345.03 1643.12 Q2348.57 1643.12 2350.7 1640.62 Q2352.86 1638.1 2352.86 1633.93 L2352.86 1632.98 L2348.62 1632.98 M2357.12 1631.22 L2357.12 1646.01 L2352.86 1646.01 L2352.86 1642.08 Q2351.4 1644.44 2349.22 1645.57 Q2347.05 1646.68 2343.9 1646.68 Q2339.92 1646.68 2337.56 1644.46 Q2335.22 1642.22 2335.22 1638.47 Q2335.22 1634.09 2338.13 1631.87 Q2341.07 1629.65 2346.88 1629.65 L2352.86 1629.65 L2352.86 1629.23 Q2352.86 1626.29 2350.91 1624.69 Q2348.99 1623.07 2345.5 1623.07 Q2343.27 1623.07 2341.17 1623.61 Q2339.06 1624.14 2337.12 1625.2 L2337.12 1621.27 Q2339.45 1620.36 2341.65 1619.93 Q2343.85 1619.46 2345.94 1619.46 Q2351.56 1619.46 2354.34 1622.38 Q2357.12 1625.3 2357.12 1631.22 Z" fill="#000000" fill-rule="nonzero" fill-opacity="1" /><path clip-path="url(#clip800)" d="M2387.44 1630.36 L2387.44 1646.01 L2383.18 1646.01 L2383.18 1630.5 Q2383.18 1626.82 2381.75 1624.99 Q2380.31 1623.17 2377.44 1623.17 Q2373.99 1623.17 2372 1625.36 Q2370.01 1627.56 2370.01 1631.36 L2370.01 1646.01 L2365.73 1646.01 L2365.73 1620.09 L2370.01 1620.09 L2370.01 1624.11 Q2371.54 1621.78 2373.6 1620.62 Q2375.68 1619.46 2378.39 1619.46 Q2382.86 1619.46 2385.15 1622.24 Q2387.44 1624.99 2387.44 1630.36 Z" fill="#000000" fill-rule="nonzero" fill-opacity="1" /><path clip-path="url(#clip800)" d="M2413 1632.75 Q2413 1628.12 2411.07 1625.57 Q2409.18 1623.03 2405.73 1623.03 Q2402.3 1623.03 2400.38 1625.57 Q2398.48 1628.12 2398.48 1632.75 Q2398.48 1637.36 2400.38 1639.9 Q2402.3 1642.45 2405.73 1642.45 Q2409.18 1642.45 2411.07 1639.9 Q2413 1637.36 2413 1632.75 M2417.25 1642.8 Q2417.25 1649.42 2414.31 1652.63 Q2411.37 1655.87 2405.31 1655.87 Q2403.06 1655.87 2401.07 1655.53 Q2399.08 1655.2 2397.21 1654.51 L2397.21 1650.36 Q2399.08 1651.38 2400.91 1651.87 Q2402.74 1652.36 2404.64 1652.36 Q2408.83 1652.36 2410.91 1650.16 Q2413 1647.98 2413 1643.56 L2413 1641.45 Q2411.68 1643.74 2409.62 1644.88 Q2407.56 1646.01 2404.69 1646.01 Q2399.92 1646.01 2397 1642.38 Q2394.08 1638.74 2394.08 1632.75 Q2394.08 1626.73 2397 1623.1 Q2399.92 1619.46 2404.69 1619.46 Q2407.56 1619.46 2409.62 1620.6 Q2411.68 1621.73 2413 1624.02 L2413 1620.09 L2417.25 1620.09 L2417.25 1642.8 Z" fill="#000000" fill-rule="nonzero" fill-opacity="1" /><path clip-path="url(#clip800)" d="M2448.2 1631.99 L2448.2 1634.07 L2428.62 1634.07 Q2428.9 1638.47 2431.26 1640.78 Q2433.64 1643.07 2437.88 1643.07 Q2440.33 1643.07 2442.62 1642.47 Q2444.94 1641.87 2447.21 1640.67 L2447.21 1644.69 Q2444.92 1645.67 2442.51 1646.17 Q2440.1 1646.68 2437.62 1646.68 Q2431.42 1646.68 2427.79 1643.07 Q2424.18 1639.46 2424.18 1633.3 Q2424.18 1626.94 2427.6 1623.21 Q2431.05 1619.46 2436.88 1619.46 Q2442.12 1619.46 2445.15 1622.84 Q2448.2 1626.2 2448.2 1631.99 M2443.94 1630.74 Q2443.9 1627.24 2441.98 1625.16 Q2440.08 1623.07 2436.93 1623.07 Q2433.37 1623.07 2431.21 1625.09 Q2429.08 1627.1 2428.76 1630.76 L2443.94 1630.74 Z" fill="#000000" fill-rule="nonzero" fill-opacity="1" /></svg>
