<?xml version="1.0" encoding="utf-8"?>
<svg xmlns="http://www.w3.org/2000/svg" xmlns:xlink="http://www.w3.org/1999/xlink" width="672" height="480" viewBox="0 0 2688 1920">
<defs>
  <clipPath id="clip680">
    <rect x="0" y="0" width="2688" height="1920"/>
  </clipPath>
</defs>
<path clip-path="url(#clip680)" d="M0 1920 L2688 1920 L2688 -4.26326e-14 L0 -4.26326e-14  Z" fill="#ffffff" fill-rule="evenodd" fill-opacity="1"/>
<defs>
  <clipPath id="clip681">
    <rect x="225" y="127" width="2416" height="1607"/>
  </clipPath>
</defs>
<path clip-path="url(#clip680)" d="M225.816 1734.12 L2640.76 1734.12 L2640.76 127.792 L225.816 127.792  Z" fill="#ffffff" fill-rule="evenodd" fill-opacity="1"/>
<polyline clip-path="url(#clip681)" style="stroke:#000000; stroke-linecap:round; stroke-linejoin:round; stroke-width:2; stroke-opacity:0.1; fill:none" points="294.164,1734.12 294.164,127.792 "/>
<polyline clip-path="url(#clip681)" style="stroke:#000000; stroke-linecap:round; stroke-linejoin:round; stroke-width:2; stroke-opacity:0.1; fill:none" points="863.725,1734.12 863.725,127.792 "/>
<polyline clip-path="url(#clip681)" style="stroke:#000000; stroke-linecap:round; stroke-linejoin:round; stroke-width:2; stroke-opacity:0.1; fill:none" points="1433.29,1734.12 1433.29,127.792 "/>
<polyline clip-path="url(#clip681)" style="stroke:#000000; stroke-linecap:round; stroke-linejoin:round; stroke-width:2; stroke-opacity:0.1; fill:none" points="2002.85,1734.12 2002.85,127.792 "/>
<polyline clip-path="url(#clip681)" style="stroke:#000000; stroke-linecap:round; stroke-linejoin:round; stroke-width:2; stroke-opacity:0.1; fill:none" points="2572.41,1734.12 2572.41,127.792 "/>
<polyline clip-path="url(#clip681)" style="stroke:#000000; stroke-linecap:round; stroke-linejoin:round; stroke-width:2; stroke-opacity:0.1; fill:none" points="225.816,1494.99 2640.76,1494.99 "/>
<polyline clip-path="url(#clip681)" style="stroke:#000000; stroke-linecap:round; stroke-linejoin:round; stroke-width:2; stroke-opacity:0.1; fill:none" points="225.816,1211.26 2640.76,1211.26 "/>
<polyline clip-path="url(#clip681)" style="stroke:#000000; stroke-linecap:round; stroke-linejoin:round; stroke-width:2; stroke-opacity:0.1; fill:none" points="225.816,927.525 2640.76,927.525 "/>
<polyline clip-path="url(#clip681)" style="stroke:#000000; stroke-linecap:round; stroke-linejoin:round; stroke-width:2; stroke-opacity:0.1; fill:none" points="225.816,643.79 2640.76,643.79 "/>
<polyline clip-path="url(#clip681)" style="stroke:#000000; stroke-linecap:round; stroke-linejoin:round; stroke-width:2; stroke-opacity:0.1; fill:none" points="225.816,360.055 2640.76,360.055 "/>
<polyline clip-path="url(#clip680)" style="stroke:#000000; stroke-linecap:round; stroke-linejoin:round; stroke-width:4; stroke-opacity:1; fill:none" points="225.816,1734.12 2640.76,1734.12 "/>
<polyline clip-path="url(#clip680)" style="stroke:#000000; stroke-linecap:round; stroke-linejoin:round; stroke-width:4; stroke-opacity:1; fill:none" points="294.164,1734.12 294.164,1715.22 "/>
<polyline clip-path="url(#clip680)" style="stroke:#000000; stroke-linecap:round; stroke-linejoin:round; stroke-width:4; stroke-opacity:1; fill:none" points="863.725,1734.12 863.725,1715.22 "/>
<polyline clip-path="url(#clip680)" style="stroke:#000000; stroke-linecap:round; stroke-linejoin:round; stroke-width:4; stroke-opacity:1; fill:none" points="1433.29,1734.12 1433.29,1715.22 "/>
<polyline clip-path="url(#clip680)" style="stroke:#000000; stroke-linecap:round; stroke-linejoin:round; stroke-width:4; stroke-opacity:1; fill:none" points="2002.85,1734.12 2002.85,1715.22 "/>
<polyline clip-path="url(#clip680)" style="stroke:#000000; stroke-linecap:round; stroke-linejoin:round; stroke-width:4; stroke-opacity:1; fill:none" points="2572.41,1734.12 2572.41,1715.22 "/>
<path clip-path="url(#clip680)" d="M271.548 1767.34 Q267.937 1767.34 266.108 1770.9 Q264.303 1774.45 264.303 1781.58 Q264.303 1788.68 266.108 1792.25 Q267.937 1795.79 271.548 1795.79 Q275.182 1795.79 276.988 1792.25 Q278.817 1788.68 278.817 1781.58 Q278.817 1774.45 276.988 1770.9 Q275.182 1767.34 271.548 1767.34 M271.548 1763.64 Q277.358 1763.64 280.414 1768.24 Q283.493 1772.83 283.493 1781.58 Q283.493 1790.3 280.414 1794.91 Q277.358 1799.49 271.548 1799.49 Q265.738 1799.49 262.659 1794.91 Q259.604 1790.3 259.604 1781.58 Q259.604 1772.83 262.659 1768.24 Q265.738 1763.64 271.548 1763.64 Z" fill="#000000" fill-rule="nonzero" fill-opacity="1" /><path clip-path="url(#clip680)" d="M291.71 1792.94 L296.594 1792.94 L296.594 1798.82 L291.71 1798.82 L291.71 1792.94 Z" fill="#000000" fill-rule="nonzero" fill-opacity="1" /><path clip-path="url(#clip680)" d="M316.779 1767.34 Q313.168 1767.34 311.34 1770.9 Q309.534 1774.45 309.534 1781.58 Q309.534 1788.68 311.34 1792.25 Q313.168 1795.79 316.779 1795.79 Q320.414 1795.79 322.219 1792.25 Q324.048 1788.68 324.048 1781.58 Q324.048 1774.45 322.219 1770.9 Q320.414 1767.34 316.779 1767.34 M316.779 1763.64 Q322.59 1763.64 325.645 1768.24 Q328.724 1772.83 328.724 1781.58 Q328.724 1790.3 325.645 1794.91 Q322.59 1799.49 316.779 1799.49 Q310.969 1799.49 307.891 1794.91 Q304.835 1790.3 304.835 1781.58 Q304.835 1772.83 307.891 1768.24 Q310.969 1763.64 316.779 1763.64 Z" fill="#000000" fill-rule="nonzero" fill-opacity="1" /><path clip-path="url(#clip680)" d="M835.461 1794.89 L851.781 1794.89 L851.781 1798.82 L829.836 1798.82 L829.836 1794.89 Q832.498 1792.13 837.082 1787.5 Q841.688 1782.85 842.869 1781.51 Q845.114 1778.98 845.994 1777.25 Q846.896 1775.49 846.896 1773.8 Q846.896 1771.04 844.952 1769.31 Q843.031 1767.57 839.929 1767.57 Q837.73 1767.57 835.276 1768.34 Q832.846 1769.1 830.068 1770.65 L830.068 1765.93 Q832.892 1764.79 835.346 1764.21 Q837.799 1763.64 839.836 1763.64 Q845.207 1763.64 848.401 1766.32 Q851.595 1769.01 851.595 1773.5 Q851.595 1775.63 850.785 1777.55 Q849.998 1779.45 847.892 1782.04 Q847.313 1782.71 844.211 1785.93 Q841.109 1789.12 835.461 1794.89 Z" fill="#000000" fill-rule="nonzero" fill-opacity="1" /><path clip-path="url(#clip680)" d="M861.595 1792.94 L866.48 1792.94 L866.48 1798.82 L861.595 1798.82 L861.595 1792.94 Z" fill="#000000" fill-rule="nonzero" fill-opacity="1" /><path clip-path="url(#clip680)" d="M876.711 1764.26 L895.067 1764.26 L895.067 1768.2 L880.993 1768.2 L880.993 1776.67 Q882.012 1776.32 883.03 1776.16 Q884.049 1775.97 885.067 1775.97 Q890.854 1775.97 894.234 1779.15 Q897.614 1782.32 897.614 1787.73 Q897.614 1793.31 894.142 1796.41 Q890.669 1799.49 884.35 1799.49 Q882.174 1799.49 879.905 1799.12 Q877.66 1798.75 875.253 1798.01 L875.253 1793.31 Q877.336 1794.45 879.558 1795 Q881.78 1795.56 884.257 1795.56 Q888.262 1795.56 890.6 1793.45 Q892.938 1791.34 892.938 1787.73 Q892.938 1784.12 890.6 1782.02 Q888.262 1779.91 884.257 1779.91 Q882.382 1779.91 880.507 1780.33 Q878.655 1780.74 876.711 1781.62 L876.711 1764.26 Z" fill="#000000" fill-rule="nonzero" fill-opacity="1" /><path clip-path="url(#clip680)" d="M1400.45 1764.26 L1418.81 1764.26 L1418.81 1768.2 L1404.73 1768.2 L1404.73 1776.67 Q1405.75 1776.32 1406.77 1776.16 Q1407.79 1775.97 1408.81 1775.97 Q1414.59 1775.97 1417.97 1779.15 Q1421.35 1782.32 1421.35 1787.73 Q1421.35 1793.31 1417.88 1796.41 Q1414.41 1799.49 1408.09 1799.49 Q1405.91 1799.49 1403.65 1799.12 Q1401.4 1798.75 1398.99 1798.01 L1398.99 1793.31 Q1401.08 1794.45 1403.3 1795 Q1405.52 1795.56 1408 1795.56 Q1412 1795.56 1414.34 1793.45 Q1416.68 1791.34 1416.68 1787.73 Q1416.68 1784.12 1414.34 1782.02 Q1412 1779.91 1408 1779.91 Q1406.12 1779.91 1404.25 1780.33 Q1402.4 1780.74 1400.45 1781.62 L1400.45 1764.26 Z" fill="#000000" fill-rule="nonzero" fill-opacity="1" /><path clip-path="url(#clip680)" d="M1430.57 1792.94 L1435.45 1792.94 L1435.45 1798.82 L1430.57 1798.82 L1430.57 1792.94 Z" fill="#000000" fill-rule="nonzero" fill-opacity="1" /><path clip-path="url(#clip680)" d="M1455.64 1767.34 Q1452.02 1767.34 1450.2 1770.9 Q1448.39 1774.45 1448.39 1781.58 Q1448.39 1788.68 1450.2 1792.25 Q1452.02 1795.79 1455.64 1795.79 Q1459.27 1795.79 1461.08 1792.25 Q1462.9 1788.68 1462.9 1781.58 Q1462.9 1774.45 1461.08 1770.9 Q1459.27 1767.34 1455.64 1767.34 M1455.64 1763.64 Q1461.45 1763.64 1464.5 1768.24 Q1467.58 1772.83 1467.58 1781.58 Q1467.58 1790.3 1464.5 1794.91 Q1461.45 1799.49 1455.64 1799.49 Q1449.83 1799.49 1446.75 1794.91 Q1443.69 1790.3 1443.69 1781.58 Q1443.69 1772.83 1446.75 1768.24 Q1449.83 1763.64 1455.64 1763.64 Z" fill="#000000" fill-rule="nonzero" fill-opacity="1" /><path clip-path="url(#clip680)" d="M1969.17 1764.26 L1991.39 1764.26 L1991.39 1766.25 L1978.84 1798.82 L1973.96 1798.82 L1985.76 1768.2 L1969.17 1768.2 L1969.17 1764.26 Z" fill="#000000" fill-rule="nonzero" fill-opacity="1" /><path clip-path="url(#clip680)" d="M2000.51 1792.94 L2005.39 1792.94 L2005.39 1798.82 L2000.51 1798.82 L2000.51 1792.94 Z" fill="#000000" fill-rule="nonzero" fill-opacity="1" /><path clip-path="url(#clip680)" d="M2015.63 1764.26 L2033.98 1764.26 L2033.98 1768.2 L2019.91 1768.2 L2019.91 1776.67 Q2020.93 1776.32 2021.94 1776.16 Q2022.96 1775.97 2023.98 1775.97 Q2029.77 1775.97 2033.15 1779.15 Q2036.53 1782.32 2036.53 1787.73 Q2036.53 1793.31 2033.06 1796.41 Q2029.58 1799.49 2023.26 1799.49 Q2021.09 1799.49 2018.82 1799.12 Q2016.57 1798.75 2014.17 1798.01 L2014.17 1793.31 Q2016.25 1794.45 2018.47 1795 Q2020.69 1795.56 2023.17 1795.56 Q2027.18 1795.56 2029.51 1793.45 Q2031.85 1791.34 2031.85 1787.73 Q2031.85 1784.12 2029.51 1782.02 Q2027.18 1779.91 2023.17 1779.91 Q2021.3 1779.91 2019.42 1780.33 Q2017.57 1780.74 2015.63 1781.62 L2015.63 1764.26 Z" fill="#000000" fill-rule="nonzero" fill-opacity="1" /><path clip-path="url(#clip680)" d="M2524.48 1794.89 L2532.12 1794.89 L2532.12 1768.52 L2523.81 1770.19 L2523.81 1765.93 L2532.07 1764.26 L2536.75 1764.26 L2536.75 1794.89 L2544.39 1794.89 L2544.39 1798.82 L2524.48 1798.82 L2524.48 1794.89 Z" fill="#000000" fill-rule="nonzero" fill-opacity="1" /><path clip-path="url(#clip680)" d="M2563.83 1767.34 Q2560.22 1767.34 2558.39 1770.9 Q2556.59 1774.45 2556.59 1781.58 Q2556.59 1788.68 2558.39 1792.25 Q2560.22 1795.79 2563.83 1795.79 Q2567.47 1795.79 2569.27 1792.25 Q2571.1 1788.68 2571.1 1781.58 Q2571.1 1774.45 2569.27 1770.9 Q2567.47 1767.34 2563.83 1767.34 M2563.83 1763.64 Q2569.64 1763.64 2572.7 1768.24 Q2575.78 1772.83 2575.78 1781.58 Q2575.78 1790.3 2572.7 1794.91 Q2569.64 1799.49 2563.83 1799.49 Q2558.02 1799.49 2554.94 1794.91 Q2551.89 1790.3 2551.89 1781.58 Q2551.89 1772.83 2554.94 1768.24 Q2558.02 1763.64 2563.83 1763.64 Z" fill="#000000" fill-rule="nonzero" fill-opacity="1" /><path clip-path="url(#clip680)" d="M2583.99 1792.94 L2588.88 1792.94 L2588.88 1798.82 L2583.99 1798.82 L2583.99 1792.94 Z" fill="#000000" fill-rule="nonzero" fill-opacity="1" /><path clip-path="url(#clip680)" d="M2609.06 1767.34 Q2605.45 1767.34 2603.62 1770.9 Q2601.82 1774.45 2601.82 1781.58 Q2601.82 1788.68 2603.62 1792.25 Q2605.45 1795.79 2609.06 1795.79 Q2612.7 1795.79 2614.5 1792.25 Q2616.33 1788.68 2616.33 1781.58 Q2616.33 1774.45 2614.5 1770.9 Q2612.7 1767.34 2609.06 1767.34 M2609.06 1763.64 Q2614.87 1763.64 2617.93 1768.24 Q2621.01 1772.83 2621.01 1781.58 Q2621.01 1790.3 2617.93 1794.91 Q2614.87 1799.49 2609.06 1799.49 Q2603.25 1799.49 2600.17 1794.91 Q2597.12 1790.3 2597.12 1781.58 Q2597.12 1772.83 2600.17 1768.24 Q2603.25 1763.64 2609.06 1763.64 Z" fill="#000000" fill-rule="nonzero" fill-opacity="1" /><path clip-path="url(#clip680)" d="M1147.63 1861.02 Q1149.69 1861.72 1151.64 1864.01 Q1153.61 1866.3 1155.58 1870.31 L1162.11 1883.3 L1155.2 1883.3 L1149.12 1871.11 Q1146.77 1866.34 1144.54 1864.78 Q1142.34 1863.22 1138.52 1863.22 L1131.52 1863.22 L1131.52 1883.3 L1125.09 1883.3 L1125.09 1835.78 L1139.6 1835.78 Q1147.75 1835.78 1151.76 1839.19 Q1155.77 1842.59 1155.77 1849.47 Q1155.77 1853.96 1153.67 1856.92 Q1151.6 1859.88 1147.63 1861.02 M1131.52 1841.06 L1131.52 1857.93 L1139.6 1857.93 Q1144.25 1857.93 1146.61 1855.8 Q1148.99 1853.64 1148.99 1849.47 Q1148.99 1845.3 1146.61 1843.2 Q1144.25 1841.06 1139.6 1841.06 L1131.52 1841.06 Z" fill="#000000" fill-rule="nonzero" fill-opacity="1" /><path clip-path="url(#clip680)" d="M1197.69 1864.01 L1197.69 1866.88 L1170.76 1866.88 Q1171.15 1872.92 1174.39 1876.11 Q1177.67 1879.26 1183.5 1879.26 Q1186.87 1879.26 1190.02 1878.43 Q1193.2 1877.6 1196.32 1875.95 L1196.32 1881.49 Q1193.17 1882.82 1189.86 1883.52 Q1186.55 1884.22 1183.15 1884.22 Q1174.62 1884.22 1169.62 1879.26 Q1164.65 1874.29 1164.65 1865.83 Q1164.65 1857.07 1169.36 1851.95 Q1174.11 1846.79 1182.13 1846.79 Q1189.32 1846.79 1193.49 1851.44 Q1197.69 1856.06 1197.69 1864.01 M1191.83 1862.29 Q1191.77 1857.49 1189.13 1854.62 Q1186.52 1851.76 1182.19 1851.76 Q1177.29 1851.76 1174.33 1854.53 Q1171.4 1857.3 1170.96 1862.33 L1191.83 1862.29 Z" fill="#000000" fill-rule="nonzero" fill-opacity="1" /><path clip-path="url(#clip680)" d="M1230.03 1848.7 L1230.03 1854.24 Q1227.55 1852.97 1224.87 1852.33 Q1222.2 1851.7 1219.33 1851.7 Q1214.97 1851.7 1212.78 1853.03 Q1210.61 1854.37 1210.61 1857.04 Q1210.61 1859.08 1212.17 1860.26 Q1213.73 1861.4 1218.44 1862.45 L1220.45 1862.9 Q1226.69 1864.24 1229.3 1866.69 Q1231.94 1869.11 1231.94 1873.47 Q1231.94 1878.43 1227.99 1881.33 Q1224.08 1884.22 1217.2 1884.22 Q1214.34 1884.22 1211.22 1883.65 Q1208.13 1883.11 1204.69 1882 L1204.69 1875.95 Q1207.94 1877.64 1211.09 1878.49 Q1214.24 1879.32 1217.33 1879.32 Q1221.47 1879.32 1223.7 1877.92 Q1225.92 1876.49 1225.92 1873.91 Q1225.92 1871.52 1224.3 1870.25 Q1222.71 1868.98 1217.27 1867.8 L1215.23 1867.32 Q1209.79 1866.18 1207.37 1863.82 Q1204.95 1861.43 1204.95 1857.3 Q1204.95 1852.27 1208.51 1849.53 Q1212.08 1846.79 1218.63 1846.79 Q1221.88 1846.79 1224.75 1847.27 Q1227.61 1847.75 1230.03 1848.7 Z" fill="#000000" fill-rule="nonzero" fill-opacity="1" /><path clip-path="url(#clip680)" d="M1255.08 1851.76 Q1250.37 1851.76 1247.63 1855.45 Q1244.89 1859.11 1244.89 1865.51 Q1244.89 1871.91 1247.6 1875.6 Q1250.34 1879.26 1255.08 1879.26 Q1259.76 1879.26 1262.49 1875.57 Q1265.23 1871.87 1265.23 1865.51 Q1265.23 1859.17 1262.49 1855.48 Q1259.76 1851.76 1255.08 1851.76 M1255.08 1846.79 Q1262.72 1846.79 1267.08 1851.76 Q1271.44 1856.72 1271.44 1865.51 Q1271.44 1874.26 1267.08 1879.26 Q1262.72 1884.22 1255.08 1884.22 Q1247.41 1884.22 1243.05 1879.26 Q1238.72 1874.26 1238.72 1865.51 Q1238.72 1856.72 1243.05 1851.76 Q1247.41 1846.79 1255.08 1846.79 Z" fill="#000000" fill-rule="nonzero" fill-opacity="1" /><path clip-path="url(#clip680)" d="M1280.54 1869.23 L1280.54 1847.65 L1286.4 1847.65 L1286.4 1869.01 Q1286.4 1874.07 1288.37 1876.62 Q1290.34 1879.13 1294.29 1879.13 Q1299.03 1879.13 1301.77 1876.11 Q1304.54 1873.08 1304.54 1867.86 L1304.54 1847.65 L1310.4 1847.65 L1310.4 1883.3 L1304.54 1883.3 L1304.54 1877.83 Q1302.41 1881.07 1299.57 1882.66 Q1296.77 1884.22 1293.05 1884.22 Q1286.91 1884.22 1283.72 1880.4 Q1280.54 1876.59 1280.54 1869.23 M1295.28 1846.79 L1295.28 1846.79 Z" fill="#000000" fill-rule="nonzero" fill-opacity="1" /><path clip-path="url(#clip680)" d="M1343.12 1853.13 Q1342.13 1852.55 1340.95 1852.3 Q1339.81 1852.01 1338.41 1852.01 Q1333.44 1852.01 1330.77 1855.26 Q1328.12 1858.47 1328.12 1864.52 L1328.12 1883.3 L1322.24 1883.3 L1322.24 1847.65 L1328.12 1847.65 L1328.12 1853.19 Q1329.97 1849.94 1332.93 1848.39 Q1335.89 1846.79 1340.12 1846.79 Q1340.73 1846.79 1341.46 1846.89 Q1342.19 1846.95 1343.08 1847.11 L1343.12 1853.13 Z" fill="#000000" fill-rule="nonzero" fill-opacity="1" /><path clip-path="url(#clip680)" d="M1373.48 1849.02 L1373.48 1854.5 Q1371 1853.13 1368.48 1852.46 Q1366 1851.76 1363.45 1851.76 Q1357.76 1851.76 1354.61 1855.39 Q1351.46 1858.98 1351.46 1865.51 Q1351.46 1872.03 1354.61 1875.66 Q1357.76 1879.26 1363.45 1879.26 Q1366 1879.26 1368.48 1878.59 Q1371 1877.89 1373.48 1876.52 L1373.48 1881.93 Q1371.03 1883.08 1368.39 1883.65 Q1365.78 1884.22 1362.82 1884.22 Q1354.77 1884.22 1350.02 1879.16 Q1345.28 1874.1 1345.28 1865.51 Q1345.28 1856.79 1350.05 1851.79 Q1354.86 1846.79 1363.2 1846.79 Q1365.91 1846.79 1368.48 1847.37 Q1371.06 1847.91 1373.48 1849.02 Z" fill="#000000" fill-rule="nonzero" fill-opacity="1" /><path clip-path="url(#clip680)" d="M1414.16 1864.01 L1414.16 1866.88 L1387.23 1866.88 Q1387.61 1872.92 1390.86 1876.11 Q1394.14 1879.26 1399.96 1879.26 Q1403.34 1879.26 1406.49 1878.43 Q1409.67 1877.6 1412.79 1875.95 L1412.79 1881.49 Q1409.64 1882.82 1406.33 1883.52 Q1403.02 1884.22 1399.61 1884.22 Q1391.08 1884.22 1386.08 1879.26 Q1381.12 1874.29 1381.12 1865.83 Q1381.12 1857.07 1385.83 1851.95 Q1390.57 1846.79 1398.59 1846.79 Q1405.79 1846.79 1409.96 1851.44 Q1414.16 1856.06 1414.16 1864.01 M1408.3 1862.29 Q1408.24 1857.49 1405.6 1854.62 Q1402.99 1851.76 1398.66 1851.76 Q1393.76 1851.76 1390.8 1854.53 Q1387.87 1857.3 1387.42 1862.33 L1408.3 1862.29 Z" fill="#000000" fill-rule="nonzero" fill-opacity="1" /><path clip-path="url(#clip680)" d="M1467.95 1853.06 L1467.95 1833.78 L1473.8 1833.78 L1473.8 1883.3 L1467.95 1883.3 L1467.95 1877.95 Q1466.1 1881.14 1463.27 1882.7 Q1460.47 1884.22 1456.52 1884.22 Q1450.06 1884.22 1445.99 1879.07 Q1441.94 1873.91 1441.94 1865.51 Q1441.94 1857.11 1445.99 1851.95 Q1450.06 1846.79 1456.52 1846.79 Q1460.47 1846.79 1463.27 1848.35 Q1466.1 1849.88 1467.95 1853.06 M1447.99 1865.51 Q1447.99 1871.97 1450.63 1875.66 Q1453.31 1879.32 1457.95 1879.32 Q1462.6 1879.32 1465.27 1875.66 Q1467.95 1871.97 1467.95 1865.51 Q1467.95 1859.05 1465.27 1855.39 Q1462.6 1851.7 1457.95 1851.7 Q1453.31 1851.7 1450.63 1855.39 Q1447.99 1859.05 1447.99 1865.51 Z" fill="#000000" fill-rule="nonzero" fill-opacity="1" /><path clip-path="url(#clip680)" d="M1516.36 1864.01 L1516.36 1866.88 L1489.43 1866.88 Q1489.81 1872.92 1493.06 1876.11 Q1496.34 1879.26 1502.16 1879.26 Q1505.54 1879.26 1508.69 1878.43 Q1511.87 1877.6 1514.99 1875.95 L1514.99 1881.49 Q1511.84 1882.82 1508.53 1883.52 Q1505.22 1884.22 1501.81 1884.22 Q1493.28 1884.22 1488.29 1879.26 Q1483.32 1874.29 1483.32 1865.83 Q1483.32 1857.07 1488.03 1851.95 Q1492.77 1846.79 1500.79 1846.79 Q1507.99 1846.79 1512.16 1851.44 Q1516.36 1856.06 1516.36 1864.01 M1510.5 1862.29 Q1510.44 1857.49 1507.8 1854.62 Q1505.19 1851.76 1500.86 1851.76 Q1495.96 1851.76 1493 1854.53 Q1490.07 1857.3 1489.62 1862.33 L1510.5 1862.29 Z" fill="#000000" fill-rule="nonzero" fill-opacity="1" /><path clip-path="url(#clip680)" d="M1555.6 1861.78 L1555.6 1883.3 L1549.75 1883.3 L1549.75 1861.98 Q1549.75 1856.92 1547.77 1854.4 Q1545.8 1851.89 1541.85 1851.89 Q1537.11 1851.89 1534.37 1854.91 Q1531.64 1857.93 1531.64 1863.15 L1531.64 1883.3 L1525.75 1883.3 L1525.75 1847.65 L1531.64 1847.65 L1531.64 1853.19 Q1533.74 1849.98 1536.57 1848.39 Q1539.43 1846.79 1543.16 1846.79 Q1549.3 1846.79 1552.45 1850.61 Q1555.6 1854.4 1555.6 1861.78 Z" fill="#000000" fill-rule="nonzero" fill-opacity="1" /><path clip-path="url(#clip680)" d="M1590.01 1848.7 L1590.01 1854.24 Q1587.53 1852.97 1584.85 1852.33 Q1582.18 1851.7 1579.32 1851.7 Q1574.95 1851.7 1572.76 1853.03 Q1570.59 1854.37 1570.59 1857.04 Q1570.59 1859.08 1572.15 1860.26 Q1573.71 1861.4 1578.42 1862.45 L1580.43 1862.9 Q1586.67 1864.24 1589.28 1866.69 Q1591.92 1869.11 1591.92 1873.47 Q1591.92 1878.43 1587.97 1881.33 Q1584.06 1884.22 1577.18 1884.22 Q1574.32 1884.22 1571.2 1883.65 Q1568.11 1883.11 1564.67 1882 L1564.67 1875.95 Q1567.92 1877.64 1571.07 1878.49 Q1574.22 1879.32 1577.31 1879.32 Q1581.45 1879.32 1583.68 1877.92 Q1585.9 1876.49 1585.9 1873.91 Q1585.9 1871.52 1584.28 1870.25 Q1582.69 1868.98 1577.25 1867.8 L1575.21 1867.32 Q1569.77 1866.18 1567.35 1863.82 Q1564.93 1861.43 1564.93 1857.3 Q1564.93 1852.27 1568.49 1849.53 Q1572.06 1846.79 1578.62 1846.79 Q1581.86 1846.79 1584.73 1847.27 Q1587.59 1847.75 1590.01 1848.7 Z" fill="#000000" fill-rule="nonzero" fill-opacity="1" /><path clip-path="url(#clip680)" d="M1601.25 1847.65 L1607.1 1847.65 L1607.1 1883.3 L1601.25 1883.3 L1601.25 1847.65 M1601.25 1833.78 L1607.1 1833.78 L1607.1 1841.19 L1601.25 1841.19 L1601.25 1833.78 Z" fill="#000000" fill-rule="nonzero" fill-opacity="1" /><path clip-path="url(#clip680)" d="M1625.15 1837.53 L1625.15 1847.65 L1637.21 1847.65 L1637.21 1852.2 L1625.15 1852.2 L1625.15 1871.56 Q1625.15 1875.92 1626.33 1877.16 Q1627.54 1878.4 1631.2 1878.4 L1637.21 1878.4 L1637.21 1883.3 L1631.2 1883.3 Q1624.42 1883.3 1621.84 1880.79 Q1619.26 1878.24 1619.26 1871.56 L1619.26 1852.2 L1614.96 1852.2 L1614.96 1847.65 L1619.26 1847.65 L1619.26 1837.53 L1625.15 1837.53 Z" fill="#000000" fill-rule="nonzero" fill-opacity="1" /><path clip-path="url(#clip680)" d="M1659.75 1886.61 Q1657.26 1892.98 1654.91 1894.92 Q1652.55 1896.86 1648.61 1896.86 L1643.93 1896.86 L1643.93 1891.96 L1647.36 1891.96 Q1649.78 1891.96 1651.12 1890.81 Q1652.46 1889.67 1654.08 1885.4 L1655.13 1882.73 L1640.71 1847.65 L1646.92 1847.65 L1658.06 1875.53 L1669.2 1847.65 L1675.41 1847.65 L1659.75 1886.61 Z" fill="#000000" fill-rule="nonzero" fill-opacity="1" /><path clip-path="url(#clip680)" d="M1727 1861.02 Q1729.07 1861.72 1731.01 1864.01 Q1732.98 1866.3 1734.96 1870.31 L1741.48 1883.3 L1734.58 1883.3 L1728.5 1871.11 Q1726.14 1866.34 1723.91 1864.78 Q1721.72 1863.22 1717.9 1863.22 L1710.89 1863.22 L1710.89 1883.3 L1704.47 1883.3 L1704.47 1835.78 L1718.98 1835.78 Q1727.13 1835.78 1731.14 1839.19 Q1735.15 1842.59 1735.15 1849.47 Q1735.15 1853.96 1733.05 1856.92 Q1730.98 1859.88 1727 1861.02 M1710.89 1841.06 L1710.89 1857.93 L1718.98 1857.93 Q1723.63 1857.93 1725.98 1855.8 Q1728.37 1853.64 1728.37 1849.47 Q1728.37 1845.3 1725.98 1843.2 Q1723.63 1841.06 1718.98 1841.06 L1710.89 1841.06 Z" fill="#000000" fill-rule="nonzero" fill-opacity="1" /><polyline clip-path="url(#clip680)" style="stroke:#000000; stroke-linecap:round; stroke-linejoin:round; stroke-width:4; stroke-opacity:1; fill:none" points="225.816,1734.12 225.816,127.792 "/>
<polyline clip-path="url(#clip680)" style="stroke:#000000; stroke-linecap:round; stroke-linejoin:round; stroke-width:4; stroke-opacity:1; fill:none" points="225.816,1494.99 244.714,1494.99 "/>
<polyline clip-path="url(#clip680)" style="stroke:#000000; stroke-linecap:round; stroke-linejoin:round; stroke-width:4; stroke-opacity:1; fill:none" points="225.816,1211.26 244.714,1211.26 "/>
<polyline clip-path="url(#clip680)" style="stroke:#000000; stroke-linecap:round; stroke-linejoin:round; stroke-width:4; stroke-opacity:1; fill:none" points="225.816,927.525 244.714,927.525 "/>
<polyline clip-path="url(#clip680)" style="stroke:#000000; stroke-linecap:round; stroke-linejoin:round; stroke-width:4; stroke-opacity:1; fill:none" points="225.816,643.79 244.714,643.79 "/>
<polyline clip-path="url(#clip680)" style="stroke:#000000; stroke-linecap:round; stroke-linejoin:round; stroke-width:4; stroke-opacity:1; fill:none" points="225.816,360.055 244.714,360.055 "/>
<path clip-path="url(#clip680)" d="M128.969 1480.79 Q125.358 1480.79 123.529 1484.36 Q121.724 1487.9 121.724 1495.03 Q121.724 1502.14 123.529 1505.7 Q125.358 1509.24 128.969 1509.24 Q132.603 1509.24 134.409 1505.7 Q136.237 1502.14 136.237 1495.03 Q136.237 1487.9 134.409 1484.36 Q132.603 1480.79 128.969 1480.79 M128.969 1477.09 Q134.779 1477.09 137.835 1481.7 Q140.913 1486.28 140.913 1495.03 Q140.913 1503.76 137.835 1508.36 Q134.779 1512.95 128.969 1512.95 Q123.159 1512.95 120.08 1508.36 Q117.025 1503.76 117.025 1495.03 Q117.025 1486.28 120.08 1481.7 Q123.159 1477.09 128.969 1477.09 Z" fill="#000000" fill-rule="nonzero" fill-opacity="1" /><path clip-path="url(#clip680)" d="M149.131 1506.4 L154.015 1506.4 L154.015 1512.27 L149.131 1512.27 L149.131 1506.4 Z" fill="#000000" fill-rule="nonzero" fill-opacity="1" /><path clip-path="url(#clip680)" d="M178.367 1493.64 Q181.723 1494.36 183.598 1496.63 Q185.496 1498.9 185.496 1502.23 Q185.496 1507.34 181.978 1510.15 Q178.459 1512.95 171.978 1512.95 Q169.802 1512.95 167.487 1512.51 Q165.196 1512.09 162.742 1511.23 L162.742 1506.72 Q164.686 1507.85 167.001 1508.43 Q169.316 1509.01 171.839 1509.01 Q176.237 1509.01 178.529 1507.27 Q180.844 1505.54 180.844 1502.23 Q180.844 1499.17 178.691 1497.46 Q176.561 1495.72 172.742 1495.72 L168.714 1495.72 L168.714 1491.88 L172.927 1491.88 Q176.376 1491.88 178.205 1490.52 Q180.034 1489.13 180.034 1486.53 Q180.034 1483.87 178.135 1482.46 Q176.26 1481.02 172.742 1481.02 Q170.821 1481.02 168.622 1481.44 Q166.423 1481.86 163.784 1482.74 L163.784 1478.57 Q166.446 1477.83 168.76 1477.46 Q171.098 1477.09 173.159 1477.09 Q178.483 1477.09 181.584 1479.52 Q184.686 1481.93 184.686 1486.05 Q184.686 1488.92 183.043 1490.91 Q181.399 1492.88 178.367 1493.64 Z" fill="#000000" fill-rule="nonzero" fill-opacity="1" /><path clip-path="url(#clip680)" d="M128.159 1197.06 Q124.548 1197.06 122.719 1200.62 Q120.913 1204.16 120.913 1211.29 Q120.913 1218.4 122.719 1221.97 Q124.548 1225.51 128.159 1225.51 Q131.793 1225.51 133.599 1221.97 Q135.427 1218.4 135.427 1211.29 Q135.427 1204.16 133.599 1200.62 Q131.793 1197.06 128.159 1197.06 M128.159 1193.35 Q133.969 1193.35 137.025 1197.96 Q140.103 1202.54 140.103 1211.29 Q140.103 1220.02 137.025 1224.63 Q133.969 1229.21 128.159 1229.21 Q122.349 1229.21 119.27 1224.63 Q116.214 1220.02 116.214 1211.29 Q116.214 1202.54 119.27 1197.96 Q122.349 1193.35 128.159 1193.35 Z" fill="#000000" fill-rule="nonzero" fill-opacity="1" /><path clip-path="url(#clip680)" d="M148.321 1222.66 L153.205 1222.66 L153.205 1228.54 L148.321 1228.54 L148.321 1222.66 Z" fill="#000000" fill-rule="nonzero" fill-opacity="1" /><path clip-path="url(#clip680)" d="M173.969 1209.4 Q170.821 1209.4 168.969 1211.55 Q167.14 1213.7 167.14 1217.45 Q167.14 1221.18 168.969 1223.35 Q170.821 1225.51 173.969 1225.51 Q177.117 1225.51 178.946 1223.35 Q180.797 1221.18 180.797 1217.45 Q180.797 1213.7 178.946 1211.55 Q177.117 1209.4 173.969 1209.4 M183.251 1194.74 L183.251 1199 Q181.492 1198.17 179.686 1197.73 Q177.904 1197.29 176.145 1197.29 Q171.515 1197.29 169.061 1200.41 Q166.631 1203.54 166.284 1209.86 Q167.649 1207.85 169.71 1206.78 Q171.77 1205.69 174.247 1205.69 Q179.455 1205.69 182.464 1208.86 Q185.496 1212.01 185.496 1217.45 Q185.496 1222.78 182.348 1225.99 Q179.2 1229.21 173.969 1229.21 Q167.973 1229.21 164.802 1224.63 Q161.631 1220.02 161.631 1211.29 Q161.631 1203.1 165.52 1198.24 Q169.409 1193.35 175.959 1193.35 Q177.719 1193.35 179.501 1193.7 Q181.307 1194.05 183.251 1194.74 Z" fill="#000000" fill-rule="nonzero" fill-opacity="1" /><path clip-path="url(#clip680)" d="M128.506 913.324 Q124.895 913.324 123.066 916.888 Q121.261 920.43 121.261 927.56 Q121.261 934.666 123.066 938.231 Q124.895 941.773 128.506 941.773 Q132.14 941.773 133.946 938.231 Q135.775 934.666 135.775 927.56 Q135.775 920.43 133.946 916.888 Q132.14 913.324 128.506 913.324 M128.506 909.62 Q134.316 909.62 137.372 914.226 Q140.45 918.81 140.45 927.56 Q140.45 936.287 137.372 940.893 Q134.316 945.476 128.506 945.476 Q122.696 945.476 119.617 940.893 Q116.562 936.287 116.562 927.56 Q116.562 918.81 119.617 914.226 Q122.696 909.62 128.506 909.62 Z" fill="#000000" fill-rule="nonzero" fill-opacity="1" /><path clip-path="url(#clip680)" d="M148.668 938.925 L153.552 938.925 L153.552 944.805 L148.668 944.805 L148.668 938.925 Z" fill="#000000" fill-rule="nonzero" fill-opacity="1" /><path clip-path="url(#clip680)" d="M163.876 944.087 L163.876 939.828 Q165.635 940.662 167.441 941.101 Q169.247 941.541 170.983 941.541 Q175.612 941.541 178.043 938.439 Q180.497 935.314 180.844 928.972 Q179.501 930.962 177.441 932.027 Q175.381 933.092 172.881 933.092 Q167.696 933.092 164.663 929.967 Q161.654 926.819 161.654 921.379 Q161.654 916.055 164.802 912.838 Q167.95 909.62 173.182 909.62 Q179.177 909.62 182.325 914.226 Q185.496 918.81 185.496 927.56 Q185.496 935.731 181.608 940.615 Q177.742 945.476 171.191 945.476 Q169.432 945.476 167.626 945.129 Q165.821 944.782 163.876 944.087 M173.182 929.435 Q176.33 929.435 178.159 927.282 Q180.01 925.129 180.01 921.379 Q180.01 917.652 178.159 915.5 Q176.33 913.324 173.182 913.324 Q170.034 913.324 168.182 915.5 Q166.353 917.652 166.353 921.379 Q166.353 925.129 168.182 927.282 Q170.034 929.435 173.182 929.435 Z" fill="#000000" fill-rule="nonzero" fill-opacity="1" /><path clip-path="url(#clip680)" d="M120.728 657.135 L128.367 657.135 L128.367 630.769 L120.057 632.436 L120.057 628.177 L128.321 626.51 L132.997 626.51 L132.997 657.135 L140.636 657.135 L140.636 661.07 L120.728 661.07 L120.728 657.135 Z" fill="#000000" fill-rule="nonzero" fill-opacity="1" /><path clip-path="url(#clip680)" d="M150.08 655.191 L154.964 655.191 L154.964 661.07 L150.08 661.07 L150.08 655.191 Z" fill="#000000" fill-rule="nonzero" fill-opacity="1" /><path clip-path="url(#clip680)" d="M169.177 657.135 L185.496 657.135 L185.496 661.07 L163.552 661.07 L163.552 657.135 Q166.214 654.38 170.797 649.751 Q175.404 645.098 176.584 643.755 Q178.83 641.232 179.709 639.496 Q180.612 637.737 180.612 636.047 Q180.612 633.293 178.668 631.556 Q176.747 629.82 173.645 629.82 Q171.446 629.82 168.992 630.584 Q166.561 631.348 163.784 632.899 L163.784 628.177 Q166.608 627.043 169.061 626.464 Q171.515 625.885 173.552 625.885 Q178.922 625.885 182.117 628.57 Q185.311 631.256 185.311 635.746 Q185.311 637.876 184.501 639.797 Q183.714 641.695 181.608 644.288 Q181.029 644.959 177.927 648.177 Q174.825 651.371 169.177 657.135 Z" fill="#000000" fill-rule="nonzero" fill-opacity="1" /><path clip-path="url(#clip680)" d="M120.126 373.4 L127.765 373.4 L127.765 347.035 L119.455 348.701 L119.455 344.442 L127.719 342.775 L132.395 342.775 L132.395 373.4 L140.034 373.4 L140.034 377.335 L120.126 377.335 L120.126 373.4 Z" fill="#000000" fill-rule="nonzero" fill-opacity="1" /><path clip-path="url(#clip680)" d="M149.478 371.456 L154.362 371.456 L154.362 377.335 L149.478 377.335 L149.478 371.456 Z" fill="#000000" fill-rule="nonzero" fill-opacity="1" /><path clip-path="url(#clip680)" d="M164.594 342.775 L182.95 342.775 L182.95 346.71 L168.876 346.71 L168.876 355.183 Q169.895 354.835 170.913 354.673 Q171.932 354.488 172.95 354.488 Q178.737 354.488 182.117 357.66 Q185.496 360.831 185.496 366.247 Q185.496 371.826 182.024 374.928 Q178.552 378.007 172.233 378.007 Q170.057 378.007 167.788 377.636 Q165.543 377.266 163.135 376.525 L163.135 371.826 Q165.219 372.96 167.441 373.516 Q169.663 374.071 172.14 374.071 Q176.145 374.071 178.483 371.965 Q180.821 369.859 180.821 366.247 Q180.821 362.636 178.483 360.53 Q176.145 358.423 172.14 358.423 Q170.265 358.423 168.39 358.84 Q166.538 359.257 164.594 360.136 L164.594 342.775 Z" fill="#000000" fill-rule="nonzero" fill-opacity="1" /><path clip-path="url(#clip680)" d="M12.1132 964.263 L16.983 964.263 L16.983 969.865 Q16.983 973.016 18.2562 974.257 Q19.5293 975.467 22.8395 975.467 L25.9905 975.467 L25.9905 965.823 L30.542 965.823 L30.542 975.467 L61.6384 975.467 L61.6384 981.355 L30.542 981.355 L30.542 986.957 L25.9905 986.957 L25.9905 981.355 L23.5079 981.355 Q17.5559 981.355 14.8505 978.586 Q12.1132 975.817 12.1132 969.801 L12.1132 964.263 Z" fill="#000000" fill-rule="nonzero" fill-opacity="1" /><path clip-path="url(#clip680)" d="M12.1769 945.293 Q19.4975 949.558 26.6589 951.627 Q33.8203 953.696 41.1727 953.696 Q48.5251 953.696 55.7502 951.627 Q62.9434 949.527 70.2321 945.293 L70.2321 950.386 Q62.7524 955.16 55.5274 957.547 Q48.3023 959.903 41.1727 959.903 Q34.0749 959.903 26.8817 957.547 Q19.6884 955.192 12.1769 950.386 L12.1769 945.293 Z" fill="#000000" fill-rule="nonzero" fill-opacity="1" /><path clip-path="url(#clip680)" d="M39.3585 911.141 Q40.0587 909.072 42.3504 907.131 Q44.642 905.158 48.6524 903.184 L61.6384 896.659 L61.6384 903.566 L49.4481 909.645 Q44.6738 912.001 43.1142 914.229 Q41.5546 916.425 41.5546 920.244 L41.5546 927.247 L61.6384 927.247 L61.6384 933.676 L14.1184 933.676 L14.1184 919.162 Q14.1184 911.014 17.5241 907.004 Q20.9297 902.993 27.8047 902.993 Q32.2925 902.993 35.2526 905.094 Q38.2126 907.163 39.3585 911.141 M19.402 927.247 L36.2711 927.247 L36.2711 919.162 Q36.2711 914.515 34.1386 912.16 Q31.9743 909.773 27.8047 909.773 Q23.6352 909.773 21.5345 912.16 Q19.402 914.515 19.402 919.162 L19.402 927.247 Z" fill="#000000" fill-rule="nonzero" fill-opacity="1" /><path clip-path="url(#clip680)" d="M12.1769 889.562 L12.1769 884.469 Q19.6884 879.695 26.8817 877.339 Q34.0749 874.952 41.1727 874.952 Q48.3023 874.952 55.5274 877.339 Q62.7524 879.695 70.2321 884.469 L70.2321 889.562 Q62.9434 885.328 55.7502 883.259 Q48.5251 881.159 41.1727 881.159 Q33.8203 881.159 26.6589 883.259 Q19.4975 885.328 12.1769 889.562 Z" fill="#000000" fill-rule="nonzero" fill-opacity="1" /><path clip-path="url(#clip680)" d="M585.857 12.096 L620.614 12.096 L620.614 18.9825 L594.04 18.9825 L594.04 36.8065 L618.021 36.8065 L618.021 43.6931 L594.04 43.6931 L594.04 72.576 L585.857 72.576 L585.857 12.096 Z" fill="#000000" fill-rule="nonzero" fill-opacity="1" /><path clip-path="url(#clip680)" d="M627.946 54.671 L627.946 27.2059 L635.4 27.2059 L635.4 54.3874 Q635.4 60.8284 637.911 64.0691 Q640.423 67.2693 645.446 67.2693 Q651.482 67.2693 654.966 63.421 Q658.49 59.5726 658.49 52.9291 L658.49 27.2059 L665.944 27.2059 L665.944 72.576 L658.49 72.576 L658.49 65.6084 Q655.776 69.7404 652.171 71.7658 Q648.606 73.7508 643.866 73.7508 Q636.048 73.7508 631.997 68.8897 Q627.946 64.0286 627.946 54.671 M646.702 26.1121 L646.702 26.1121 Z" fill="#000000" fill-rule="nonzero" fill-opacity="1" /><path clip-path="url(#clip680)" d="M719.011 45.1919 L719.011 72.576 L711.557 72.576 L711.557 45.4349 Q711.557 38.994 709.045 35.7938 Q706.534 32.5936 701.511 32.5936 Q695.475 32.5936 691.991 36.4419 Q688.507 40.2903 688.507 46.9338 L688.507 72.576 L681.013 72.576 L681.013 27.2059 L688.507 27.2059 L688.507 34.2544 Q691.181 30.163 694.786 28.1376 Q698.432 26.1121 703.171 26.1121 Q710.99 26.1121 715 30.9732 Q719.011 35.7938 719.011 45.1919 Z" fill="#000000" fill-rule="nonzero" fill-opacity="1" /><path clip-path="url(#clip680)" d="M766.528 28.9478 L766.528 35.9153 Q763.368 34.1734 760.168 33.3227 Q757.008 32.4315 753.767 32.4315 Q746.516 32.4315 742.506 37.0496 Q738.495 41.6271 738.495 49.9314 Q738.495 58.2358 742.506 62.8538 Q746.516 67.4314 753.767 67.4314 Q757.008 67.4314 760.168 66.5807 Q763.368 65.6895 766.528 63.9476 L766.528 70.8341 Q763.408 72.2924 760.046 73.0216 Q756.724 73.7508 752.957 73.7508 Q742.708 73.7508 736.672 67.3098 Q730.637 60.8689 730.637 49.9314 Q730.637 38.832 736.713 32.472 Q742.83 26.1121 753.443 26.1121 Q756.886 26.1121 760.168 26.8413 Q763.449 27.5299 766.528 28.9478 Z" fill="#000000" fill-rule="nonzero" fill-opacity="1" /><path clip-path="url(#clip680)" d="M786.863 14.324 L786.863 27.2059 L802.216 27.2059 L802.216 32.9987 L786.863 32.9987 L786.863 57.6282 Q786.863 63.1779 788.362 64.7578 Q789.901 66.3376 794.56 66.3376 L802.216 66.3376 L802.216 72.576 L794.56 72.576 Q785.931 72.576 782.65 69.3758 Q779.369 66.1351 779.369 57.6282 L779.369 32.9987 L773.9 32.9987 L773.9 27.2059 L779.369 27.2059 L779.369 14.324 L786.863 14.324 Z" fill="#000000" fill-rule="nonzero" fill-opacity="1" /><path clip-path="url(#clip680)" d="M812.019 27.2059 L819.473 27.2059 L819.473 72.576 L812.019 72.576 L812.019 27.2059 M812.019 9.54393 L819.473 9.54393 L819.473 18.9825 L812.019 18.9825 L812.019 9.54393 Z" fill="#000000" fill-rule="nonzero" fill-opacity="1" /><path clip-path="url(#clip680)" d="M852.65 32.4315 Q846.654 32.4315 843.171 37.1306 Q839.687 41.7891 839.687 49.9314 Q839.687 58.0738 843.13 62.7728 Q846.614 67.4314 852.65 67.4314 Q858.605 67.4314 862.088 62.7323 Q865.572 58.0333 865.572 49.9314 Q865.572 41.8701 862.088 37.1711 Q858.605 32.4315 852.65 32.4315 M852.65 26.1121 Q862.372 26.1121 867.922 32.4315 Q873.471 38.7509 873.471 49.9314 Q873.471 61.0714 867.922 67.4314 Q862.372 73.7508 852.65 73.7508 Q842.887 73.7508 837.337 67.4314 Q831.828 61.0714 831.828 49.9314 Q831.828 38.7509 837.337 32.4315 Q842.887 26.1121 852.65 26.1121 Z" fill="#000000" fill-rule="nonzero" fill-opacity="1" /><path clip-path="url(#clip680)" d="M923.541 45.1919 L923.541 72.576 L916.087 72.576 L916.087 45.4349 Q916.087 38.994 913.575 35.7938 Q911.064 32.5936 906.041 32.5936 Q900.005 32.5936 896.521 36.4419 Q893.037 40.2903 893.037 46.9338 L893.037 72.576 L885.543 72.576 L885.543 27.2059 L893.037 27.2059 L893.037 34.2544 Q895.711 30.163 899.316 28.1376 Q902.962 26.1121 907.702 26.1121 Q915.52 26.1121 919.53 30.9732 Q923.541 35.7938 923.541 45.1919 Z" fill="#000000" fill-rule="nonzero" fill-opacity="1" /><path clip-path="url(#clip680)" d="M959.027 49.7694 Q949.993 49.7694 946.509 51.8354 Q943.026 53.9013 943.026 58.8839 Q943.026 62.8538 945.618 65.2034 Q948.251 67.5124 952.748 67.5124 Q958.946 67.5124 962.672 63.1374 Q966.44 58.7219 966.44 51.4303 L966.44 49.7694 L959.027 49.7694 M973.893 46.6907 L973.893 72.576 L966.44 72.576 L966.44 65.6895 Q963.888 69.8214 960.08 71.8063 Q956.272 73.7508 950.763 73.7508 Q943.795 73.7508 939.663 69.8619 Q935.572 65.9325 935.572 59.3701 Q935.572 51.7138 940.676 47.825 Q945.821 43.9361 955.988 43.9361 L966.44 43.9361 L966.44 43.2069 Q966.44 38.0623 963.037 35.2672 Q959.675 32.4315 953.558 32.4315 Q949.669 32.4315 945.983 33.3632 Q942.296 34.295 938.894 36.1584 L938.894 29.2718 Q942.985 27.692 946.833 26.9223 Q950.682 26.1121 954.328 26.1121 Q964.171 26.1121 969.032 31.2163 Q973.893 36.3204 973.893 46.6907 Z" fill="#000000" fill-rule="nonzero" fill-opacity="1" /><path clip-path="url(#clip680)" d="M989.246 9.54393 L996.7 9.54393 L996.7 72.576 L989.246 72.576 L989.246 9.54393 Z" fill="#000000" fill-rule="nonzero" fill-opacity="1" /><path clip-path="url(#clip680)" d="M1067.67 44.2197 Q1070.3 45.1109 1072.78 48.0275 Q1075.29 50.9442 1077.8 56.0483 L1086.1 72.576 L1077.31 72.576 L1069.58 57.061 Q1066.58 50.9847 1063.74 48.9997 Q1060.95 47.0148 1056.09 47.0148 L1047.17 47.0148 L1047.17 72.576 L1038.99 72.576 L1038.99 12.096 L1057.46 12.096 Q1067.83 12.096 1072.94 16.4305 Q1078.04 20.7649 1078.04 29.5149 Q1078.04 35.2267 1075.37 38.994 Q1072.74 42.7613 1067.67 44.2197 M1047.17 18.8205 L1047.17 40.2903 L1057.46 40.2903 Q1063.38 40.2903 1066.38 37.5762 Q1069.41 34.8216 1069.41 29.5149 Q1069.41 24.2082 1066.38 21.5346 Q1063.38 18.8205 1057.46 18.8205 L1047.17 18.8205 Z" fill="#000000" fill-rule="nonzero" fill-opacity="1" /><path clip-path="url(#clip680)" d="M1131.39 48.0275 L1131.39 51.6733 L1097.12 51.6733 Q1097.61 59.3701 1101.74 63.421 Q1105.91 67.4314 1113.33 67.4314 Q1117.62 67.4314 1121.63 66.3781 Q1125.68 65.3249 1129.65 63.2184 L1129.65 70.267 Q1125.64 71.9684 1121.43 72.8596 Q1117.21 73.7508 1112.88 73.7508 Q1102.02 73.7508 1095.66 67.4314 Q1089.34 61.1119 1089.34 50.3365 Q1089.34 39.1965 1095.34 32.6746 Q1101.38 26.1121 1111.58 26.1121 Q1120.74 26.1121 1126.05 32.0264 Q1131.39 37.9003 1131.39 48.0275 M1123.94 45.84 Q1123.86 39.7232 1120.5 36.0774 Q1117.17 32.4315 1111.66 32.4315 Q1105.43 32.4315 1101.66 35.9558 Q1097.93 39.4801 1097.36 45.8805 L1123.94 45.84 Z" fill="#000000" fill-rule="nonzero" fill-opacity="1" /><path clip-path="url(#clip680)" d="M1172.55 28.5427 L1172.55 35.5912 Q1169.39 33.9709 1165.99 33.1607 Q1162.58 32.3505 1158.94 32.3505 Q1153.39 32.3505 1150.59 34.0519 Q1147.84 35.7533 1147.84 39.156 Q1147.84 41.7486 1149.82 43.2475 Q1151.81 44.7058 1157.8 46.0426 L1160.36 46.6097 Q1168.3 48.3111 1171.62 51.4303 Q1174.98 54.509 1174.98 60.0587 Q1174.98 66.3781 1169.96 70.0644 Q1164.97 73.7508 1156.22 73.7508 Q1152.58 73.7508 1148.61 73.0216 Q1144.68 72.3329 1140.3 70.9151 L1140.3 63.2184 Q1144.44 65.3654 1148.45 66.4591 Q1152.46 67.5124 1156.39 67.5124 Q1161.65 67.5124 1164.49 65.73 Q1167.32 63.9071 1167.32 60.6258 Q1167.32 57.5877 1165.26 55.9673 Q1163.23 54.3469 1156.31 52.8481 L1153.71 52.2405 Q1146.79 50.7821 1143.71 47.7845 Q1140.63 44.7463 1140.63 39.4801 Q1140.63 33.0797 1145.17 29.5959 Q1149.7 26.1121 1158.05 26.1121 Q1162.18 26.1121 1165.83 26.7198 Q1169.47 27.3274 1172.55 28.5427 Z" fill="#000000" fill-rule="nonzero" fill-opacity="1" /><path clip-path="url(#clip680)" d="M1194.06 65.7705 L1194.06 89.8329 L1186.57 89.8329 L1186.57 27.2059 L1194.06 27.2059 L1194.06 34.0924 Q1196.41 30.0415 1199.97 28.0971 Q1203.58 26.1121 1208.56 26.1121 Q1216.83 26.1121 1221.97 32.6746 Q1227.16 39.2371 1227.16 49.9314 Q1227.16 60.6258 1221.97 67.1883 Q1216.83 73.7508 1208.56 73.7508 Q1203.58 73.7508 1199.97 71.8063 Q1196.41 69.8214 1194.06 65.7705 M1219.42 49.9314 Q1219.42 41.7081 1216.02 37.0496 Q1212.65 32.3505 1206.74 32.3505 Q1200.83 32.3505 1197.42 37.0496 Q1194.06 41.7081 1194.06 49.9314 Q1194.06 58.1548 1197.42 62.8538 Q1200.83 67.5124 1206.74 67.5124 Q1212.65 67.5124 1216.02 62.8538 Q1219.42 58.1548 1219.42 49.9314 Z" fill="#000000" fill-rule="nonzero" fill-opacity="1" /><path clip-path="url(#clip680)" d="M1257.09 32.4315 Q1251.1 32.4315 1247.61 37.1306 Q1244.13 41.7891 1244.13 49.9314 Q1244.13 58.0738 1247.57 62.7728 Q1251.06 67.4314 1257.09 67.4314 Q1263.05 67.4314 1266.53 62.7323 Q1270.01 58.0333 1270.01 49.9314 Q1270.01 41.8701 1266.53 37.1711 Q1263.05 32.4315 1257.09 32.4315 M1257.09 26.1121 Q1266.81 26.1121 1272.36 32.4315 Q1277.91 38.7509 1277.91 49.9314 Q1277.91 61.0714 1272.36 67.4314 Q1266.81 73.7508 1257.09 73.7508 Q1247.33 73.7508 1241.78 67.4314 Q1236.27 61.0714 1236.27 49.9314 Q1236.27 38.7509 1241.78 32.4315 Q1247.33 26.1121 1257.09 26.1121 Z" fill="#000000" fill-rule="nonzero" fill-opacity="1" /><path clip-path="url(#clip680)" d="M1327.98 45.1919 L1327.98 72.576 L1320.53 72.576 L1320.53 45.4349 Q1320.53 38.994 1318.02 35.7938 Q1315.51 32.5936 1310.48 32.5936 Q1304.45 32.5936 1300.96 36.4419 Q1297.48 40.2903 1297.48 46.9338 L1297.48 72.576 L1289.99 72.576 L1289.99 27.2059 L1297.48 27.2059 L1297.48 34.2544 Q1300.15 30.163 1303.76 28.1376 Q1307.4 26.1121 1312.14 26.1121 Q1319.96 26.1121 1323.97 30.9732 Q1327.98 35.7938 1327.98 45.1919 Z" fill="#000000" fill-rule="nonzero" fill-opacity="1" /><path clip-path="url(#clip680)" d="M1371.77 28.5427 L1371.77 35.5912 Q1368.61 33.9709 1365.21 33.1607 Q1361.81 32.3505 1358.16 32.3505 Q1352.61 32.3505 1349.82 34.0519 Q1347.06 35.7533 1347.06 39.156 Q1347.06 41.7486 1349.05 43.2475 Q1351.03 44.7058 1357.03 46.0426 L1359.58 46.6097 Q1367.52 48.3111 1370.84 51.4303 Q1374.2 54.509 1374.2 60.0587 Q1374.2 66.3781 1369.18 70.0644 Q1364.2 73.7508 1355.45 73.7508 Q1351.8 73.7508 1347.83 73.0216 Q1343.9 72.3329 1339.53 70.9151 L1339.53 63.2184 Q1343.66 65.3654 1347.67 66.4591 Q1351.68 67.5124 1355.61 67.5124 Q1360.88 67.5124 1363.71 65.73 Q1366.55 63.9071 1366.55 60.6258 Q1366.55 57.5877 1364.48 55.9673 Q1362.46 54.3469 1355.53 52.8481 L1352.94 52.2405 Q1346.01 50.7821 1342.93 47.7845 Q1339.85 44.7463 1339.85 39.4801 Q1339.85 33.0797 1344.39 29.5959 Q1348.93 26.1121 1357.27 26.1121 Q1361.4 26.1121 1365.05 26.7198 Q1368.69 27.3274 1371.77 28.5427 Z" fill="#000000" fill-rule="nonzero" fill-opacity="1" /><path clip-path="url(#clip680)" d="M1424.88 48.0275 L1424.88 51.6733 L1390.61 51.6733 Q1391.1 59.3701 1395.23 63.421 Q1399.4 67.4314 1406.81 67.4314 Q1411.11 67.4314 1415.12 66.3781 Q1419.17 65.3249 1423.14 63.2184 L1423.14 70.267 Q1419.13 71.9684 1414.92 72.8596 Q1410.7 73.7508 1406.37 73.7508 Q1395.51 73.7508 1389.15 67.4314 Q1382.83 61.1119 1382.83 50.3365 Q1382.83 39.1965 1388.83 32.6746 Q1394.86 26.1121 1405.07 26.1121 Q1414.23 26.1121 1419.53 32.0264 Q1424.88 37.9003 1424.88 48.0275 M1417.43 45.84 Q1417.35 39.7232 1413.98 36.0774 Q1410.66 32.4315 1405.15 32.4315 Q1398.91 32.4315 1395.15 35.9558 Q1391.42 39.4801 1390.85 45.8805 L1417.43 45.84 Z" fill="#000000" fill-rule="nonzero" fill-opacity="1" /><path clip-path="url(#clip680)" d="M1459.72 46.9338 L1534.58 46.9338 L1534.58 52.7671 L1459.72 52.7671 L1459.72 46.9338 Z" fill="#000000" fill-rule="nonzero" fill-opacity="1" /><path clip-path="url(#clip680)" d="M1581.33 43.6931 L1581.33 65.8515 L1594.45 65.8515 Q1601.05 65.8515 1604.21 63.1374 Q1607.41 60.3828 1607.41 54.752 Q1607.41 49.0808 1604.21 46.4072 Q1601.05 43.6931 1594.45 43.6931 L1581.33 43.6931 M1581.33 18.8205 L1581.33 37.0496 L1593.44 37.0496 Q1599.43 37.0496 1602.35 34.8216 Q1605.31 32.5531 1605.31 27.935 Q1605.31 23.3575 1602.35 21.089 Q1599.43 18.8205 1593.44 18.8205 L1581.33 18.8205 M1573.14 12.096 L1594.05 12.096 Q1603.4 12.096 1608.47 15.9849 Q1613.53 19.8737 1613.53 27.0438 Q1613.53 32.5936 1610.94 35.8748 Q1608.35 39.156 1603.32 39.9662 Q1609.36 41.2625 1612.68 45.3944 Q1616.04 49.4858 1616.04 55.6432 Q1616.04 63.745 1610.53 68.1605 Q1605.02 72.576 1594.86 72.576 L1573.14 72.576 L1573.14 12.096 Z" fill="#000000" fill-rule="nonzero" fill-opacity="1" /><path clip-path="url(#clip680)" d="M1647.32 32.4315 Q1641.32 32.4315 1637.84 37.1306 Q1634.35 41.7891 1634.35 49.9314 Q1634.35 58.0738 1637.8 62.7728 Q1641.28 67.4314 1647.32 67.4314 Q1653.27 67.4314 1656.75 62.7323 Q1660.24 58.0333 1660.24 49.9314 Q1660.24 41.8701 1656.75 37.1711 Q1653.27 32.4315 1647.32 32.4315 M1647.32 26.1121 Q1657.04 26.1121 1662.59 32.4315 Q1668.14 38.7509 1668.14 49.9314 Q1668.14 61.0714 1662.59 67.4314 Q1657.04 73.7508 1647.32 73.7508 Q1637.55 73.7508 1632 67.4314 Q1626.49 61.0714 1626.49 49.9314 Q1626.49 38.7509 1632 32.4315 Q1637.55 26.1121 1647.32 26.1121 Z" fill="#000000" fill-rule="nonzero" fill-opacity="1" /><path clip-path="url(#clip680)" d="M1698.07 32.4315 Q1692.08 32.4315 1688.59 37.1306 Q1685.11 41.7891 1685.11 49.9314 Q1685.11 58.0738 1688.55 62.7728 Q1692.04 67.4314 1698.07 67.4314 Q1704.03 67.4314 1707.51 62.7323 Q1711 58.0333 1711 49.9314 Q1711 41.8701 1707.51 37.1711 Q1704.03 32.4315 1698.07 32.4315 M1698.07 26.1121 Q1707.8 26.1121 1713.35 32.4315 Q1718.9 38.7509 1718.9 49.9314 Q1718.9 61.0714 1713.35 67.4314 Q1707.8 73.7508 1698.07 73.7508 Q1688.31 73.7508 1682.76 67.4314 Q1677.25 61.0714 1677.25 49.9314 Q1677.25 38.7509 1682.76 32.4315 Q1688.31 26.1121 1698.07 26.1121 Z" fill="#000000" fill-rule="nonzero" fill-opacity="1" /><path clip-path="url(#clip680)" d="M1738.62 14.324 L1738.62 27.2059 L1753.98 27.2059 L1753.98 32.9987 L1738.62 32.9987 L1738.62 57.6282 Q1738.62 63.1779 1740.12 64.7578 Q1741.66 66.3376 1746.32 66.3376 L1753.98 66.3376 L1753.98 72.576 L1746.32 72.576 Q1737.69 72.576 1734.41 69.3758 Q1731.13 66.1351 1731.13 57.6282 L1731.13 32.9987 L1725.66 32.9987 L1725.66 27.2059 L1731.13 27.2059 L1731.13 14.324 L1738.62 14.324 Z" fill="#000000" fill-rule="nonzero" fill-opacity="1" /><path clip-path="url(#clip680)" d="M1792.7 28.5427 L1792.7 35.5912 Q1789.54 33.9709 1786.14 33.1607 Q1782.74 32.3505 1779.09 32.3505 Q1773.54 32.3505 1770.75 34.0519 Q1767.99 35.7533 1767.99 39.156 Q1767.99 41.7486 1769.98 43.2475 Q1771.96 44.7058 1777.96 46.0426 L1780.51 46.6097 Q1788.45 48.3111 1791.77 51.4303 Q1795.13 54.509 1795.13 60.0587 Q1795.13 66.3781 1790.11 70.0644 Q1785.13 73.7508 1776.38 73.7508 Q1772.73 73.7508 1768.76 73.0216 Q1764.83 72.3329 1760.46 70.9151 L1760.46 63.2184 Q1764.59 65.3654 1768.6 66.4591 Q1772.61 67.5124 1776.54 67.5124 Q1781.81 67.5124 1784.64 65.73 Q1787.48 63.9071 1787.48 60.6258 Q1787.48 57.5877 1785.41 55.9673 Q1783.39 54.3469 1776.46 52.8481 L1773.87 52.2405 Q1766.94 50.7821 1763.86 47.7845 Q1760.78 44.7463 1760.78 39.4801 Q1760.78 33.0797 1765.32 29.5959 Q1769.86 26.1121 1778.2 26.1121 Q1782.33 26.1121 1785.98 26.7198 Q1789.62 27.3274 1792.7 28.5427 Z" fill="#000000" fill-rule="nonzero" fill-opacity="1" /><path clip-path="url(#clip680)" d="M1814.38 14.324 L1814.38 27.2059 L1829.73 27.2059 L1829.73 32.9987 L1814.38 32.9987 L1814.38 57.6282 Q1814.38 63.1779 1815.87 64.7578 Q1817.41 66.3376 1822.07 66.3376 L1829.73 66.3376 L1829.73 72.576 L1822.07 72.576 Q1813.44 72.576 1810.16 69.3758 Q1806.88 66.1351 1806.88 57.6282 L1806.88 32.9987 L1801.41 32.9987 L1801.41 27.2059 L1806.88 27.2059 L1806.88 14.324 L1814.38 14.324 Z" fill="#000000" fill-rule="nonzero" fill-opacity="1" /><path clip-path="url(#clip680)" d="M1865.82 34.1734 Q1864.57 33.4443 1863.07 33.1202 Q1861.61 32.7556 1859.83 32.7556 Q1853.51 32.7556 1850.1 36.8875 Q1846.74 40.9789 1846.74 48.6757 L1846.74 72.576 L1839.25 72.576 L1839.25 27.2059 L1846.74 27.2059 L1846.74 34.2544 Q1849.09 30.1225 1852.86 28.1376 Q1856.63 26.1121 1862.01 26.1121 Q1862.78 26.1121 1863.72 26.2337 Q1864.65 26.3147 1865.78 26.5172 L1865.82 34.1734 Z" fill="#000000" fill-rule="nonzero" fill-opacity="1" /><path clip-path="url(#clip680)" d="M1894.26 49.7694 Q1885.23 49.7694 1881.74 51.8354 Q1878.26 53.9013 1878.26 58.8839 Q1878.26 62.8538 1880.85 65.2034 Q1883.48 67.5124 1887.98 67.5124 Q1894.18 67.5124 1897.9 63.1374 Q1901.67 58.7219 1901.67 51.4303 L1901.67 49.7694 L1894.26 49.7694 M1909.13 46.6907 L1909.13 72.576 L1901.67 72.576 L1901.67 65.6895 Q1899.12 69.8214 1895.31 71.8063 Q1891.5 73.7508 1885.99 73.7508 Q1879.03 73.7508 1874.9 69.8619 Q1870.8 65.9325 1870.8 59.3701 Q1870.8 51.7138 1875.91 47.825 Q1881.05 43.9361 1891.22 43.9361 L1901.67 43.9361 L1901.67 43.2069 Q1901.67 38.0623 1898.27 35.2672 Q1894.91 32.4315 1888.79 32.4315 Q1884.9 32.4315 1881.21 33.3632 Q1877.53 34.295 1874.13 36.1584 L1874.13 29.2718 Q1878.22 27.692 1882.07 26.9223 Q1885.91 26.1121 1889.56 26.1121 Q1899.4 26.1121 1904.26 31.2163 Q1909.13 36.3204 1909.13 46.6907 Z" fill="#000000" fill-rule="nonzero" fill-opacity="1" /><path clip-path="url(#clip680)" d="M1931.69 65.7705 L1931.69 89.8329 L1924.2 89.8329 L1924.2 27.2059 L1931.69 27.2059 L1931.69 34.0924 Q1934.04 30.0415 1937.6 28.0971 Q1941.21 26.1121 1946.19 26.1121 Q1954.46 26.1121 1959.6 32.6746 Q1964.79 39.2371 1964.79 49.9314 Q1964.79 60.6258 1959.6 67.1883 Q1954.46 73.7508 1946.19 73.7508 Q1941.21 73.7508 1937.6 71.8063 Q1934.04 69.8214 1931.69 65.7705 M1957.05 49.9314 Q1957.05 41.7081 1953.65 37.0496 Q1950.28 32.3505 1944.37 32.3505 Q1938.45 32.3505 1935.05 37.0496 Q1931.69 41.7081 1931.69 49.9314 Q1931.69 58.1548 1935.05 62.8538 Q1938.45 67.5124 1944.37 67.5124 Q1950.28 67.5124 1953.65 62.8538 Q1957.05 58.1548 1957.05 49.9314 Z" fill="#000000" fill-rule="nonzero" fill-opacity="1" /><path clip-path="url(#clip680)" d="M2004.81 71.3202 L2004.81 63.8666 Q2007.89 65.3249 2011.05 66.0946 Q2014.21 66.8642 2017.24 66.8642 Q2025.35 66.8642 2029.6 61.436 Q2033.89 55.9673 2034.5 44.8678 Q2032.15 48.3516 2028.55 50.215 Q2024.94 52.0784 2020.57 52.0784 Q2011.49 52.0784 2006.19 46.6097 Q2000.92 41.1005 2000.92 31.5808 Q2000.92 22.2638 2006.43 16.633 Q2011.94 11.0023 2021.09 11.0023 Q2031.58 11.0023 2037.09 19.0636 Q2042.64 27.0843 2042.64 42.3968 Q2042.64 56.6965 2035.84 65.2439 Q2029.07 73.7508 2017.61 73.7508 Q2014.53 73.7508 2011.37 73.1431 Q2008.21 72.5355 2004.81 71.3202 M2021.09 45.678 Q2026.6 45.678 2029.8 41.9107 Q2033.04 38.1433 2033.04 31.5808 Q2033.04 25.0589 2029.8 21.2916 Q2026.6 17.4837 2021.09 17.4837 Q2015.58 17.4837 2012.34 21.2916 Q2009.14 25.0589 2009.14 31.5808 Q2009.14 38.1433 2012.34 41.9107 Q2015.58 45.678 2021.09 45.678 Z" fill="#000000" fill-rule="nonzero" fill-opacity="1" /><path clip-path="url(#clip680)" d="M2057.43 12.096 L2089.55 12.096 L2089.55 18.9825 L2064.92 18.9825 L2064.92 33.8088 Q2066.71 33.2012 2068.49 32.9176 Q2070.27 32.5936 2072.05 32.5936 Q2082.18 32.5936 2088.09 38.1433 Q2094.01 43.6931 2094.01 53.1722 Q2094.01 62.9348 2087.93 68.3631 Q2081.86 73.7508 2070.8 73.7508 Q2066.99 73.7508 2063.02 73.1026 Q2059.09 72.4545 2054.88 71.1582 L2054.88 62.9348 Q2058.52 64.9198 2062.41 65.892 Q2066.3 66.8642 2070.64 66.8642 Q2077.64 66.8642 2081.73 63.1779 Q2085.83 59.4916 2085.83 53.1722 Q2085.83 46.8528 2081.73 43.1664 Q2077.64 39.4801 2070.64 39.4801 Q2067.35 39.4801 2064.07 40.2093 Q2060.83 40.9384 2057.43 42.4778 L2057.43 12.096 Z" fill="#000000" fill-rule="nonzero" fill-opacity="1" /><path clip-path="url(#clip680)" d="M2161.58 45.9616 Q2158.05 45.9616 2156.03 48.9592 Q2154.04 51.9569 2154.04 57.3041 Q2154.04 62.5703 2156.03 65.6084 Q2158.05 68.6061 2161.58 68.6061 Q2165.02 68.6061 2167.01 65.6084 Q2169.03 62.5703 2169.03 57.3041 Q2169.03 51.9974 2167.01 48.9997 Q2165.02 45.9616 2161.58 45.9616 M2161.58 40.8169 Q2167.98 40.8169 2171.75 45.2729 Q2175.51 49.7289 2175.51 57.3041 Q2175.51 64.8793 2171.71 69.3353 Q2167.94 73.7508 2161.58 73.7508 Q2155.1 73.7508 2151.33 69.3353 Q2147.56 64.8793 2147.56 57.3041 Q2147.56 49.6884 2151.33 45.2729 Q2155.14 40.8169 2161.58 40.8169 M2119.77 16.1469 Q2116.29 16.1469 2114.26 19.1851 Q2112.28 22.1828 2112.28 27.4489 Q2112.28 32.7961 2114.26 35.7938 Q2116.25 38.7915 2119.77 38.7915 Q2123.3 38.7915 2125.28 35.7938 Q2127.31 32.7961 2127.31 27.4489 Q2127.31 22.2233 2125.28 19.1851 Q2123.26 16.1469 2119.77 16.1469 M2156.35 11.0023 L2162.83 11.0023 L2125 73.7508 L2118.52 73.7508 L2156.35 11.0023 M2119.77 11.0023 Q2126.17 11.0023 2129.98 15.4583 Q2133.79 19.8737 2133.79 27.4489 Q2133.79 35.1051 2129.98 39.5206 Q2126.21 43.9361 2119.77 43.9361 Q2113.33 43.9361 2109.56 39.5206 Q2105.84 35.0646 2105.84 27.4489 Q2105.84 19.9142 2109.6 15.4583 Q2113.37 11.0023 2119.77 11.0023 Z" fill="#000000" fill-rule="nonzero" fill-opacity="1" /><path clip-path="url(#clip680)" d="M2259.89 16.7545 L2259.89 25.383 Q2255.76 21.5346 2251.06 19.6307 Q2246.4 17.7268 2241.14 17.7268 Q2230.77 17.7268 2225.26 24.0867 Q2219.75 30.4061 2219.75 42.3968 Q2219.75 54.3469 2225.26 60.7069 Q2230.77 67.0263 2241.14 67.0263 Q2246.4 67.0263 2251.06 65.1223 Q2255.76 63.2184 2259.89 59.3701 L2259.89 67.9175 Q2255.6 70.8341 2250.78 72.2924 Q2246 73.7508 2240.65 73.7508 Q2226.92 73.7508 2219.02 65.3654 Q2211.12 56.9395 2211.12 42.3968 Q2211.12 27.8135 2219.02 19.4281 Q2226.92 11.0023 2240.65 11.0023 Q2246.08 11.0023 2250.86 12.4606 Q2255.68 13.8784 2259.89 16.7545 Z" fill="#000000" fill-rule="nonzero" fill-opacity="1" /><path clip-path="url(#clip680)" d="M2272.53 12.096 L2280.72 12.096 L2280.72 72.576 L2272.53 72.576 L2272.53 12.096 Z" fill="#000000" fill-rule="nonzero" fill-opacity="1" /><path clip-path="url(#clip681)" d="M294.164 1218.92 L317.176 1201.13 L340.189 1183.49 L363.202 1166 L386.214 1148.66 L409.227 1131.46 L432.239 1114.42 L455.252 1097.52 L478.264 1080.78 L501.277 1064.18 L524.29 1047.73 L547.302 1031.43 L570.315 1015.28 L593.327 999.274 L616.34 983.42 L639.352 967.714 L662.365 952.158 L685.378 936.75 L708.39 921.491 L731.403 906.381 L754.415 891.419 L777.428 876.606 L800.44 861.942 L823.453 847.427 L846.466 833.06 L869.478 818.843 L892.491 804.774 L915.503 790.853 L938.516 777.082 L961.528 763.459 L984.541 749.985 L1007.55 736.66 L1030.57 723.483 L1053.58 710.456 L1076.59 697.577 L1099.6 684.846 L1122.62 672.265 L1145.63 659.832 L1168.64 647.548 L1191.65 635.412 L1214.67 623.425 L1237.68 611.587 L1260.69 599.898 L1283.7 588.358 L1306.72 576.966 L1329.73 565.723 L1352.74 554.628 L1375.75 543.682 L1398.77 532.885 L1421.78 522.237 L1444.79 511.737 L1467.81 501.386 L1490.82 491.184 L1513.83 481.13 L1536.84 471.225 L1559.86 461.469 L1582.87 451.861 L1605.88 442.402 L1628.89 433.092 L1651.91 423.93 L1674.92 414.917 L1697.93 406.052 L1720.94 397.337 L1743.96 388.769 L1766.97 380.351 L1789.98 372.08 L1812.99 363.959 L1836.01 355.986 L1859.02 348.162 L1882.03 340.486 L1905.04 332.959 L1928.06 325.58 L1951.07 318.35 L1974.08 311.269 L1997.09 304.336 L2020.11 297.047 L2043.12 290.23 L2066.13 283.781 L2089.14 277.487 L2112.16 271.67 L2135.17 266.804 L2158.18 262.755 L2181.19 259.152 L2204.21 255.707 L2227.22 252.348 L2250.23 249.101 L2273.25 246.193 L2296.26 243.787 L2319.27 241.613 L2342.28 239.516 L2365.3 237.562 L2388.31 235.689 L2411.32 233.773 L2434.33 231.631 L2457.35 229.571 L2480.36 227.591 L2503.37 225.691 L2526.38 223.871 L2549.4 222.13 L2572.41 220.468 L2572.41 173.254 L2549.4 176.48 L2526.38 179.855 L2503.37 183.378 L2480.36 187.05 L2457.35 190.87 L2434.33 194.839 L2411.32 198.957 L2388.31 203.224 L2365.3 207.639 L2342.28 212.203 L2319.27 216.916 L2296.26 221.778 L2273.25 226.782 L2250.23 231.835 L2227.22 236.905 L2204.21 242.126 L2181.19 247.499 L2158.18 253.096 L2135.17 259.354 L2112.16 263.612 L2089.14 267.862 L2066.13 272.127 L2043.12 275.636 L2020.11 279.262 L1997.09 283.007 L1974.08 286.874 L1951.07 290.865 L1928.06 294.984 L1905.04 299.233 L1882.03 303.613 L1859.02 308.127 L1836.01 312.776 L1812.99 317.444 L1789.98 322.225 L1766.97 326.916 L1743.96 331.626 L1720.94 336.364 L1697.93 341.172 L1674.92 346.069 L1651.91 351.056 L1628.89 356.134 L1605.88 361.305 L1582.87 366.568 L1559.86 371.926 L1536.84 377.381 L1513.83 382.933 L1490.82 388.585 L1467.81 394.339 L1444.79 400.196 L1421.78 406.143 L1398.77 412.175 L1375.75 418.316 L1352.74 424.567 L1329.73 430.93 L1306.72 437.406 L1283.7 443.998 L1260.69 450.707 L1237.68 457.536 L1214.67 464.487 L1191.65 471.86 L1168.64 479.799 L1145.63 487.894 L1122.62 496.103 L1099.6 504.398 L1076.59 512.853 L1053.58 521.468 L1030.57 530.246 L1007.55 538.635 L984.541 546.903 L961.528 555.272 L938.516 563.591 L915.503 572.052 L892.491 580.662 L869.478 589.425 L846.466 598.347 L823.453 607.435 L800.44 616.694 L777.428 626.13 L754.415 635.749 L731.403 645.556 L708.39 655.558 L685.378 666.166 L662.365 677.241 L639.352 688.562 L616.34 700.135 L593.327 711.969 L570.315 724.079 L547.302 736.481 L524.29 749.191 L501.277 761.514 L478.264 773.771 L455.252 786.25 L432.239 798.959 L409.227 811.315 L386.214 823.838 L363.202 837.065 L340.189 851.664 L317.176 866.672 L294.164 882.106  Z" fill="#ff7f50" fill-rule="evenodd" fill-opacity="0.25"/>
<polyline clip-path="url(#clip681)" style="stroke:#ff7f50; stroke-linecap:round; stroke-linejoin:round; stroke-width:4; stroke-opacity:0.25; fill:none" points="294.164,1218.92 317.176,1201.13 340.189,1183.49 363.202,1166 386.214,1148.66 409.227,1131.46 432.239,1114.42 455.252,1097.52 478.264,1080.78 501.277,1064.18 524.29,1047.73 547.302,1031.43 570.315,1015.28 593.327,999.274 616.34,983.42 639.352,967.714 662.365,952.158 685.378,936.75 708.39,921.491 731.403,906.381 754.415,891.419 777.428,876.606 800.44,861.942 823.453,847.427 846.466,833.06 869.478,818.843 892.491,804.774 915.503,790.853 938.516,777.082 961.528,763.459 984.541,749.985 1007.55,736.66 1030.57,723.483 1053.58,710.456 1076.59,697.577 1099.6,684.846 1122.62,672.265 1145.63,659.832 1168.64,647.548 1191.65,635.412 1214.67,623.425 1237.68,611.587 1260.69,599.898 1283.7,588.358 1306.72,576.966 1329.73,565.723 1352.74,554.628 1375.75,543.682 1398.77,532.885 1421.78,522.237 1444.79,511.737 1467.81,501.386 1490.82,491.184 1513.83,481.13 1536.84,471.225 1559.86,461.469 1582.87,451.861 1605.88,442.402 1628.89,433.092 1651.91,423.93 1674.92,414.917 1697.93,406.052 1720.94,397.337 1743.96,388.769 1766.97,380.351 1789.98,372.08 1812.99,363.959 1836.01,355.986 1859.02,348.162 1882.03,340.486 1905.04,332.959 1928.06,325.58 1951.07,318.35 1974.08,311.269 1997.09,304.336 2020.11,297.047 2043.12,290.23 2066.13,283.781 2089.14,277.487 2112.16,271.67 2135.17,266.804 2158.18,262.755 2181.19,259.152 2204.21,255.707 2227.22,252.348 2250.23,249.101 2273.25,246.193 2296.26,243.787 2319.27,241.613 2342.28,239.516 2365.3,237.562 2388.31,235.689 2411.32,233.773 2434.33,231.631 2457.35,229.571 2480.36,227.591 2503.37,225.691 2526.38,223.871 2549.4,222.13 2572.41,220.468 "/>
<polyline clip-path="url(#clip681)" style="stroke:#ff7f50; stroke-linecap:round; stroke-linejoin:round; stroke-width:8; stroke-opacity:1; fill:none" points="294.164,1156.28 317.176,1137.24 340.189,1118.43 363.202,1099.84 386.214,1081.46 409.227,1063.3 432.239,1045.36 455.252,1027.64 478.264,1010.13 501.277,992.842 524.29,975.769 547.302,958.912 570.315,942.27 593.327,925.843 616.34,909.631 639.352,893.633 662.365,877.848 685.378,862.277 708.39,846.917 731.403,831.769 754.415,816.831 777.428,802.103 800.44,787.585 823.453,773.274 846.466,759.171 869.478,745.275 892.491,731.585 915.503,718.1 938.516,704.82 961.528,691.744 984.541,678.87 1007.55,666.198 1030.57,653.727 1053.58,641.454 1076.59,629.379 1099.6,617.501 1122.62,605.818 1145.63,594.329 1168.64,583.034 1191.65,571.93 1214.67,561.016 1237.68,550.292 1260.69,539.756 1283.7,529.407 1306.72,519.243 1329.73,509.263 1352.74,499.465 1375.75,489.848 1398.77,480.41 1421.78,471.15 1444.79,462.066 1467.81,453.157 1490.82,444.42 1513.83,435.855 1536.84,427.46 1559.86,419.234 1582.87,411.174 1605.88,403.279 1628.89,395.549 1651.91,387.979 1674.92,380.571 1697.93,373.32 1720.94,366.226 1743.96,359.287 1766.97,352.501 1789.98,345.866 1812.99,339.381 1836.01,333.044 1859.02,326.852 1882.03,320.805 1905.04,314.901 1928.06,309.137 1951.07,303.513 1974.08,298.027 1997.09,292.677 2020.11,287.462 2043.12,282.381 2066.13,277.432 2089.14,272.615 2112.16,267.928 2135.17,263.369 2158.18,258.938 2181.19,254.633 2204.21,250.452 2227.22,246.394 2250.23,242.459 2273.25,238.644 2296.26,234.949 2319.27,231.374 2342.28,227.917 2365.3,224.577 2388.31,221.355 2411.32,218.248 2434.33,215.257 2457.35,212.38 2480.36,209.617 2503.37,206.967 2526.38,204.43 2549.4,202.003 2572.41,199.688 "/>
<polyline clip-path="url(#clip681)" style="stroke:#000000; stroke-linecap:round; stroke-linejoin:round; stroke-width:12; stroke-opacity:1; fill:none" stroke-dasharray="48, 30" points="316.946,1688.65 328.28,1646.97 339.614,1607.16 350.948,1569.12 362.282,1532.72 373.616,1497.87 384.95,1464.46 396.284,1432.41 407.618,1401.63 418.952,1372.06 430.286,1343.62 441.62,1316.25 452.954,1289.89 464.288,1264.48 475.622,1239.98 486.956,1216.34 498.29,1193.5 509.624,1171.44 520.958,1150.11 532.292,1129.48 543.626,1109.51 554.96,1090.17 566.294,1071.44 577.628,1053.28 588.962,1035.67 600.296,1018.58 611.63,1001.99 622.964,985.884 634.298,970.236 645.632,955.026 656.966,940.239 668.3,925.855 679.634,911.859 690.968,898.234 702.302,884.968 713.636,872.045 724.97,859.453 736.304,847.178 747.638,835.21 758.972,823.536 770.306,812.146 781.64,801.03 792.973,790.178 804.307,779.581 815.641,769.23 826.975,759.116 838.309,749.231 849.643,739.568 860.977,730.119 872.311,720.877 883.645,711.836 894.979,702.989 906.313,694.329 917.647,685.852 928.981,677.55 940.315,669.42 951.649,661.455 962.983,653.65 974.317,646.002 985.651,638.504 996.985,631.154 1008.32,623.945 1019.65,616.875 1030.99,609.94 1042.32,603.135 1053.66,596.456 1064.99,589.902 1076.32,583.467 1087.66,577.149 1098.99,570.945 1110.32,564.851 1121.66,558.865 1132.99,552.984 1144.33,547.205 1155.66,541.526 1166.99,535.943 1178.33,530.455 1189.66,525.058 1201,519.752 1212.33,514.533 1223.66,509.4 1235,504.35 1246.33,499.381 1257.67,494.491 1269,489.679 1280.33,484.943 1291.67,480.281 1303,475.69 1314.34,471.171 1325.67,466.72 1337,462.336 1348.34,458.019 1359.67,453.765 1371.01,449.575 1382.34,445.446 1393.67,441.377 1405.01,437.367 1416.34,433.415 1427.68,429.519 1439.01,425.678 1450.34,421.892 1461.68,418.158 1473.01,414.476 1484.35,410.844 1495.68,407.263 1507.01,403.73 1518.35,400.244 1529.68,396.806 1541.02,393.413 1552.35,390.065 1563.68,386.761 1575.02,383.5 1586.35,380.282 1597.69,377.105 1609.02,373.968 1620.35,370.872 1631.69,367.815 1643.02,364.796 1654.36,361.814 1665.69,358.87 1677.02,355.962 1688.36,353.09 1699.69,350.253 1711.03,347.45 1722.36,344.68 1733.69,341.944 1745.03,339.24 1756.36,336.569 1767.7,333.929 1779.03,331.319 1790.36,328.74 1801.7,326.191 1813.03,323.671 1824.37,321.179 1835.7,318.716 1847.03,316.281 1858.37,313.873 1869.7,311.492 1881.04,309.138 1892.37,306.809 1903.7,304.506 1915.04,302.228 1926.37,299.975 1937.71,297.746 1949.04,295.541 1960.37,293.36 1971.71,291.201 1983.04,289.066 1994.38,286.953 2005.71,284.862 2017.04,282.793 2028.38,280.746 2039.71,278.719 2051.05,276.713 2062.38,274.728 2073.71,272.763 2085.05,270.817 2096.38,268.891 2107.72,266.985 2119.05,265.097 2130.38,263.228 2141.72,261.378 2153.05,259.545 2164.39,257.731 2175.72,255.934 2187.05,254.154 2198.39,252.391 2209.72,250.646 2221.06,248.916 2232.39,247.204 2243.72,245.507 2255.06,243.826 2266.39,242.161 2277.73,240.512 2289.06,238.878 2300.39,237.258 2311.73,235.654 2323.06,234.064 2334.39,232.489 2345.73,230.928 2357.06,229.381 2368.4,227.848 2379.73,226.328 2391.06,224.822 2402.4,223.33 2413.73,221.85 2425.07,220.384 2436.4,218.93 2447.73,217.489 2459.07,216.06 2470.4,214.644 2481.74,213.239 2493.07,211.847 2504.4,210.467 2515.74,209.098 2527.07,207.741 2538.41,206.395 2549.74,205.061 2561.07,203.737 2572.41,202.425 "/>
<path clip-path="url(#clip681)" d="M1433.29 3340.44 L1433.29 -1478.53 L2173.46 -1478.53 L2173.46 3340.44 L1433.29 3340.44  Z" fill="#4682b4" fill-rule="evenodd" fill-opacity="0.08"/>
<polyline clip-path="url(#clip681)" style="stroke:#000000; stroke-linecap:round; stroke-linejoin:round; stroke-width:0; stroke-opacity:0.08; fill:none" points="1433.29,3340.44 1433.29,-1478.53 2173.46,-1478.53 2173.46,3340.44 1433.29,3340.44 "/>
<path clip-path="url(#clip680)" d="M1915.2 1680.57 L2560.26 1680.57 L2560.26 1421.37 L1915.2 1421.37  Z" fill="#ffffff" fill-rule="evenodd" fill-opacity="1"/>
<polyline clip-path="url(#clip680)" style="stroke:#000000; stroke-linecap:round; stroke-linejoin:round; stroke-width:4; stroke-opacity:1; fill:none" points="1915.2,1680.57 2560.26,1680.57 2560.26,1421.37 1915.2,1421.37 1915.2,1680.57 "/>
<path clip-path="url(#clip680)" d="M1942.03 1493.95 L2103.03 1493.95 L2103.03 1452.48 L1942.03 1452.48 L1942.03 1493.95  Z" fill="#ff7f50" fill-rule="evenodd" fill-opacity="0.25"/>
<polyline clip-path="url(#clip680)" style="stroke:#ff7f50; stroke-linecap:round; stroke-linejoin:round; stroke-width:4; stroke-opacity:0.25; fill:none" points="1942.03,1452.48 2103.03,1452.48 "/>
<path clip-path="url(#clip680)" d="M2132.08 1489.78 L2132.08 1485.52 Q2133.84 1486.35 2135.65 1486.79 Q2137.46 1487.23 2139.19 1487.23 Q2143.82 1487.23 2146.25 1484.13 Q2148.71 1481 2149.05 1474.66 Q2147.71 1476.65 2145.65 1477.72 Q2143.59 1478.78 2141.09 1478.78 Q2135.9 1478.78 2132.87 1475.65 Q2129.86 1472.51 2129.86 1467.07 Q2129.86 1461.74 2133.01 1458.53 Q2136.16 1455.31 2141.39 1455.31 Q2147.39 1455.31 2150.53 1459.91 Q2153.71 1464.5 2153.71 1473.25 Q2153.71 1481.42 2149.82 1486.3 Q2145.95 1491.16 2139.4 1491.16 Q2137.64 1491.16 2135.83 1490.82 Q2134.03 1490.47 2132.08 1489.78 M2141.39 1475.12 Q2144.54 1475.12 2146.37 1472.97 Q2148.22 1470.82 2148.22 1467.07 Q2148.22 1463.34 2146.37 1461.19 Q2144.54 1459.01 2141.39 1459.01 Q2138.24 1459.01 2136.39 1461.19 Q2134.56 1463.34 2134.56 1467.07 Q2134.56 1470.82 2136.39 1472.97 Q2138.24 1475.12 2141.39 1475.12 Z" fill="#000000" fill-rule="nonzero" fill-opacity="1" /><path clip-path="url(#clip680)" d="M2162.15 1455.93 L2180.51 1455.93 L2180.51 1459.87 L2166.44 1459.87 L2166.44 1468.34 Q2167.46 1467.99 2168.47 1467.83 Q2169.49 1467.65 2170.51 1467.65 Q2176.3 1467.65 2179.68 1470.82 Q2183.06 1473.99 2183.06 1479.4 Q2183.06 1484.98 2179.58 1488.09 Q2176.11 1491.16 2169.79 1491.16 Q2167.62 1491.16 2165.35 1490.79 Q2163.1 1490.42 2160.7 1489.68 L2160.7 1484.98 Q2162.78 1486.12 2165 1486.67 Q2167.22 1487.23 2169.7 1487.23 Q2173.7 1487.23 2176.04 1485.12 Q2178.38 1483.02 2178.38 1479.4 Q2178.38 1475.79 2176.04 1473.69 Q2173.7 1471.58 2169.7 1471.58 Q2167.83 1471.58 2165.95 1472 Q2164.1 1472.41 2162.15 1473.29 L2162.15 1455.93 Z" fill="#000000" fill-rule="nonzero" fill-opacity="1" /><path clip-path="url(#clip680)" d="M2221.67 1475.28 Q2219.65 1475.28 2218.5 1477 Q2217.36 1478.71 2217.36 1481.77 Q2217.36 1484.78 2218.5 1486.51 Q2219.65 1488.22 2221.67 1488.22 Q2223.64 1488.22 2224.77 1486.51 Q2225.93 1484.78 2225.93 1481.77 Q2225.93 1478.73 2224.77 1477.02 Q2223.64 1475.28 2221.67 1475.28 M2221.67 1472.34 Q2225.33 1472.34 2227.48 1474.89 Q2229.63 1477.44 2229.63 1481.77 Q2229.63 1486.09 2227.45 1488.64 Q2225.3 1491.16 2221.67 1491.16 Q2217.96 1491.16 2215.81 1488.64 Q2213.66 1486.09 2213.66 1481.77 Q2213.66 1477.41 2215.81 1474.89 Q2217.99 1472.34 2221.67 1472.34 M2197.78 1458.25 Q2195.79 1458.25 2194.63 1459.98 Q2193.5 1461.7 2193.5 1464.71 Q2193.5 1467.76 2194.63 1469.47 Q2195.77 1471.19 2197.78 1471.19 Q2199.79 1471.19 2200.93 1469.47 Q2202.08 1467.76 2202.08 1464.71 Q2202.08 1461.72 2200.93 1459.98 Q2199.77 1458.25 2197.78 1458.25 M2218.68 1455.31 L2222.39 1455.31 L2200.77 1491.16 L2197.06 1491.16 L2218.68 1455.31 M2197.78 1455.31 Q2201.44 1455.31 2203.61 1457.85 Q2205.79 1460.38 2205.79 1464.71 Q2205.79 1469.08 2203.61 1471.6 Q2201.46 1474.13 2197.78 1474.13 Q2194.1 1474.13 2191.95 1471.6 Q2189.82 1469.06 2189.82 1464.71 Q2189.82 1460.4 2191.97 1457.85 Q2194.12 1455.31 2197.78 1455.31 Z" fill="#000000" fill-rule="nonzero" fill-opacity="1" /><path clip-path="url(#clip680)" d="M2270.39 1477.55 Q2270.39 1472.85 2268.45 1470.19 Q2266.53 1467.51 2263.15 1467.51 Q2259.77 1467.51 2257.82 1470.19 Q2255.9 1472.85 2255.9 1477.55 Q2255.9 1482.25 2257.82 1484.94 Q2259.77 1487.6 2263.15 1487.6 Q2266.53 1487.6 2268.45 1484.94 Q2270.39 1482.25 2270.39 1477.55 M2255.9 1468.5 Q2257.25 1466.19 2259.28 1465.08 Q2261.34 1463.94 2264.19 1463.94 Q2268.91 1463.94 2271.85 1467.69 Q2274.82 1471.44 2274.82 1477.55 Q2274.82 1483.66 2271.85 1487.41 Q2268.91 1491.16 2264.19 1491.16 Q2261.34 1491.16 2259.28 1490.05 Q2257.25 1488.92 2255.9 1486.6 L2255.9 1490.49 L2251.62 1490.49 L2251.62 1454.47 L2255.9 1454.47 L2255.9 1468.5 Z" fill="#000000" fill-rule="nonzero" fill-opacity="1" /><path clip-path="url(#clip680)" d="M2291.92 1467.55 Q2288.5 1467.55 2286.51 1470.24 Q2284.51 1472.9 2284.51 1477.55 Q2284.51 1482.21 2286.48 1484.89 Q2288.47 1487.55 2291.92 1487.55 Q2295.32 1487.55 2297.32 1484.87 Q2299.31 1482.18 2299.31 1477.55 Q2299.31 1472.95 2297.32 1470.26 Q2295.32 1467.55 2291.92 1467.55 M2291.92 1463.94 Q2297.48 1463.94 2300.65 1467.55 Q2303.82 1471.16 2303.82 1477.55 Q2303.82 1483.92 2300.65 1487.55 Q2297.48 1491.16 2291.92 1491.16 Q2286.34 1491.16 2283.17 1487.55 Q2280.02 1483.92 2280.02 1477.55 Q2280.02 1471.16 2283.17 1467.55 Q2286.34 1463.94 2291.92 1463.94 Z" fill="#000000" fill-rule="nonzero" fill-opacity="1" /><path clip-path="url(#clip680)" d="M2320.93 1467.55 Q2317.5 1467.55 2315.51 1470.24 Q2313.52 1472.9 2313.52 1477.55 Q2313.52 1482.21 2315.49 1484.89 Q2317.48 1487.55 2320.93 1487.55 Q2324.33 1487.55 2326.32 1484.87 Q2328.31 1482.18 2328.31 1477.55 Q2328.31 1472.95 2326.32 1470.26 Q2324.33 1467.55 2320.93 1467.55 M2320.93 1463.94 Q2326.48 1463.94 2329.65 1467.55 Q2332.82 1471.16 2332.82 1477.55 Q2332.82 1483.92 2329.65 1487.55 Q2326.48 1491.16 2320.93 1491.16 Q2315.35 1491.16 2312.18 1487.55 Q2309.03 1483.92 2309.03 1477.55 Q2309.03 1471.16 2312.18 1467.55 Q2315.35 1463.94 2320.93 1463.94 Z" fill="#000000" fill-rule="nonzero" fill-opacity="1" /><path clip-path="url(#clip680)" d="M2344.1 1457.21 L2344.1 1464.57 L2352.87 1464.57 L2352.87 1467.88 L2344.1 1467.88 L2344.1 1481.95 Q2344.1 1485.12 2344.95 1486.03 Q2345.83 1486.93 2348.5 1486.93 L2352.87 1486.93 L2352.87 1490.49 L2348.5 1490.49 Q2343.57 1490.49 2341.69 1488.66 Q2339.82 1486.81 2339.82 1481.95 L2339.82 1467.88 L2336.69 1467.88 L2336.69 1464.57 L2339.82 1464.57 L2339.82 1457.21 L2344.1 1457.21 Z" fill="#000000" fill-rule="nonzero" fill-opacity="1" /><path clip-path="url(#clip680)" d="M2375 1465.33 L2375 1469.36 Q2373.19 1468.43 2371.25 1467.97 Q2369.31 1467.51 2367.22 1467.51 Q2364.05 1467.51 2362.45 1468.48 Q2360.88 1469.45 2360.88 1471.4 Q2360.88 1472.88 2362.01 1473.73 Q2363.15 1474.57 2366.57 1475.33 L2368.03 1475.65 Q2372.57 1476.63 2374.47 1478.41 Q2376.39 1480.17 2376.39 1483.34 Q2376.39 1486.95 2373.52 1489.06 Q2370.67 1491.16 2365.67 1491.16 Q2363.59 1491.16 2361.32 1490.75 Q2359.07 1490.35 2356.57 1489.54 L2356.57 1485.15 Q2358.94 1486.37 2361.23 1487 Q2363.52 1487.6 2365.76 1487.6 Q2368.77 1487.6 2370.39 1486.58 Q2372.01 1485.54 2372.01 1483.66 Q2372.01 1481.93 2370.83 1481 Q2369.68 1480.08 2365.72 1479.22 L2364.24 1478.87 Q2360.28 1478.04 2358.52 1476.33 Q2356.76 1474.59 2356.76 1471.58 Q2356.76 1467.92 2359.35 1465.93 Q2361.94 1463.94 2366.71 1463.94 Q2369.07 1463.94 2371.16 1464.29 Q2373.24 1464.64 2375 1465.33 Z" fill="#000000" fill-rule="nonzero" fill-opacity="1" /><path clip-path="url(#clip680)" d="M2387.38 1457.21 L2387.38 1464.57 L2396.16 1464.57 L2396.16 1467.88 L2387.38 1467.88 L2387.38 1481.95 Q2387.38 1485.12 2388.24 1486.03 Q2389.12 1486.93 2391.78 1486.93 L2396.16 1486.93 L2396.16 1490.49 L2391.78 1490.49 Q2386.85 1490.49 2384.98 1488.66 Q2383.1 1486.81 2383.1 1481.95 L2383.1 1467.88 L2379.98 1467.88 L2379.98 1464.57 L2383.1 1464.57 L2383.1 1457.21 L2387.38 1457.21 Z" fill="#000000" fill-rule="nonzero" fill-opacity="1" /><path clip-path="url(#clip680)" d="M2416.78 1468.55 Q2416.06 1468.13 2415.21 1467.95 Q2414.37 1467.74 2413.36 1467.74 Q2409.75 1467.74 2407.8 1470.1 Q2405.88 1472.44 2405.88 1476.84 L2405.88 1490.49 L2401.6 1490.49 L2401.6 1464.57 L2405.88 1464.57 L2405.88 1468.59 Q2407.22 1466.23 2409.38 1465.1 Q2411.53 1463.94 2414.61 1463.94 Q2415.05 1463.94 2415.58 1464.01 Q2416.11 1464.06 2416.76 1464.17 L2416.78 1468.55 Z" fill="#000000" fill-rule="nonzero" fill-opacity="1" /><path clip-path="url(#clip680)" d="M2433.03 1477.46 Q2427.87 1477.46 2425.88 1478.64 Q2423.89 1479.82 2423.89 1482.67 Q2423.89 1484.94 2425.37 1486.28 Q2426.87 1487.6 2429.44 1487.6 Q2432.99 1487.6 2435.12 1485.1 Q2437.27 1482.58 2437.27 1478.41 L2437.27 1477.46 L2433.03 1477.46 M2441.53 1475.7 L2441.53 1490.49 L2437.27 1490.49 L2437.27 1486.56 Q2435.81 1488.92 2433.63 1490.05 Q2431.46 1491.16 2428.31 1491.16 Q2424.33 1491.16 2421.97 1488.94 Q2419.63 1486.7 2419.63 1482.95 Q2419.63 1478.57 2422.55 1476.35 Q2425.49 1474.13 2431.3 1474.13 L2437.27 1474.13 L2437.27 1473.71 Q2437.27 1470.77 2435.32 1469.17 Q2433.4 1467.55 2429.91 1467.55 Q2427.69 1467.55 2425.58 1468.09 Q2423.47 1468.62 2421.53 1469.68 L2421.53 1465.75 Q2423.87 1464.84 2426.06 1464.41 Q2428.26 1463.94 2430.35 1463.94 Q2435.97 1463.94 2438.75 1466.86 Q2441.53 1469.78 2441.53 1475.7 Z" fill="#000000" fill-rule="nonzero" fill-opacity="1" /><path clip-path="url(#clip680)" d="M2454.42 1486.6 L2454.42 1500.35 L2450.14 1500.35 L2450.14 1464.57 L2454.42 1464.57 L2454.42 1468.5 Q2455.76 1466.19 2457.8 1465.08 Q2459.86 1463.94 2462.71 1463.94 Q2467.43 1463.94 2470.37 1467.69 Q2473.33 1471.44 2473.33 1477.55 Q2473.33 1483.66 2470.37 1487.41 Q2467.43 1491.16 2462.71 1491.16 Q2459.86 1491.16 2457.8 1490.05 Q2455.76 1488.92 2454.42 1486.6 M2468.91 1477.55 Q2468.91 1472.85 2466.97 1470.19 Q2465.05 1467.51 2461.67 1467.51 Q2458.29 1467.51 2456.34 1470.19 Q2454.42 1472.85 2454.42 1477.55 Q2454.42 1482.25 2456.34 1484.94 Q2458.29 1487.6 2461.67 1487.6 Q2465.05 1487.6 2466.97 1484.94 Q2468.91 1482.25 2468.91 1477.55 Z" fill="#000000" fill-rule="nonzero" fill-opacity="1" /><path clip-path="url(#clip680)" d="M2521.53 1458.59 L2521.53 1463.53 Q2519.17 1461.33 2516.48 1460.24 Q2513.82 1459.15 2510.81 1459.15 Q2504.88 1459.15 2501.74 1462.78 Q2498.59 1466.4 2498.59 1473.25 Q2498.59 1480.08 2501.74 1483.71 Q2504.88 1487.32 2510.81 1487.32 Q2513.82 1487.32 2516.48 1486.23 Q2519.17 1485.15 2521.53 1482.95 L2521.53 1487.83 Q2519.07 1489.5 2516.32 1490.33 Q2513.59 1491.16 2510.53 1491.16 Q2502.68 1491.16 2498.17 1486.37 Q2493.66 1481.56 2493.66 1473.25 Q2493.66 1464.91 2498.17 1460.12 Q2502.68 1455.31 2510.53 1455.31 Q2513.63 1455.31 2516.37 1456.14 Q2519.12 1456.95 2521.53 1458.59 Z" fill="#000000" fill-rule="nonzero" fill-opacity="1" /><path clip-path="url(#clip680)" d="M2528.75 1455.93 L2533.43 1455.93 L2533.43 1490.49 L2528.75 1490.49 L2528.75 1455.93 Z" fill="#000000" fill-rule="nonzero" fill-opacity="1" /><polyline clip-path="url(#clip680)" style="stroke:#ff7f50; stroke-linecap:round; stroke-linejoin:round; stroke-width:8; stroke-opacity:1; fill:none" points="1942.03,1525.05 2103.03,1525.05 "/>
<path clip-path="url(#clip680)" d="M2157.73 1510.43 L2157.73 1515.37 Q2155.37 1513.17 2152.69 1512.08 Q2150.02 1510.99 2147.02 1510.99 Q2141.09 1510.99 2137.94 1514.62 Q2134.79 1518.24 2134.79 1525.09 Q2134.79 1531.92 2137.94 1535.55 Q2141.09 1539.16 2147.02 1539.16 Q2150.02 1539.16 2152.69 1538.07 Q2155.37 1536.99 2157.73 1534.79 L2157.73 1539.67 Q2155.28 1541.34 2152.52 1542.17 Q2149.79 1543 2146.74 1543 Q2138.89 1543 2134.38 1538.21 Q2129.86 1533.4 2129.86 1525.09 Q2129.86 1516.75 2134.38 1511.96 Q2138.89 1507.15 2146.74 1507.15 Q2149.84 1507.15 2152.57 1507.98 Q2155.33 1508.79 2157.73 1510.43 Z" fill="#000000" fill-rule="nonzero" fill-opacity="1" /><path clip-path="url(#clip680)" d="M2174.82 1519.39 Q2171.39 1519.39 2169.4 1522.08 Q2167.41 1524.74 2167.41 1529.39 Q2167.41 1534.05 2169.38 1536.73 Q2171.37 1539.39 2174.82 1539.39 Q2178.22 1539.39 2180.21 1536.71 Q2182.2 1534.02 2182.2 1529.39 Q2182.2 1524.79 2180.21 1522.1 Q2178.22 1519.39 2174.82 1519.39 M2174.82 1515.78 Q2180.37 1515.78 2183.54 1519.39 Q2186.71 1523 2186.71 1529.39 Q2186.71 1535.76 2183.54 1539.39 Q2180.37 1543 2174.82 1543 Q2169.24 1543 2166.07 1539.39 Q2162.92 1535.76 2162.92 1529.39 Q2162.92 1523 2166.07 1519.39 Q2169.24 1515.78 2174.82 1515.78 Z" fill="#000000" fill-rule="nonzero" fill-opacity="1" /><path clip-path="url(#clip680)" d="M2215.33 1526.68 L2215.33 1542.33 L2211.07 1542.33 L2211.07 1526.82 Q2211.07 1523.14 2209.63 1521.31 Q2208.2 1519.49 2205.33 1519.49 Q2201.88 1519.49 2199.89 1521.68 Q2197.89 1523.88 2197.89 1527.68 L2197.89 1542.33 L2193.61 1542.33 L2193.61 1516.41 L2197.89 1516.41 L2197.89 1520.43 Q2199.42 1518.1 2201.48 1516.94 Q2203.57 1515.78 2206.27 1515.78 Q2210.74 1515.78 2213.03 1518.56 Q2215.33 1521.31 2215.33 1526.68 Z" fill="#000000" fill-rule="nonzero" fill-opacity="1" /><path clip-path="url(#clip680)" d="M2240.35 1517.17 L2240.35 1521.2 Q2238.54 1520.27 2236.6 1519.81 Q2234.65 1519.35 2232.57 1519.35 Q2229.4 1519.35 2227.8 1520.32 Q2226.23 1521.29 2226.23 1523.24 Q2226.23 1524.72 2227.36 1525.57 Q2228.5 1526.41 2231.92 1527.17 L2233.38 1527.49 Q2237.92 1528.47 2239.82 1530.25 Q2241.74 1532.01 2241.74 1535.18 Q2241.74 1538.79 2238.87 1540.9 Q2236.02 1543 2231.02 1543 Q2228.94 1543 2226.67 1542.59 Q2224.42 1542.19 2221.92 1541.38 L2221.92 1536.99 Q2224.28 1538.21 2226.58 1538.84 Q2228.87 1539.44 2231.11 1539.44 Q2234.12 1539.44 2235.74 1538.42 Q2237.36 1537.38 2237.36 1535.5 Q2237.36 1533.77 2236.18 1532.84 Q2235.02 1531.92 2231.07 1531.06 L2229.58 1530.71 Q2225.63 1529.88 2223.87 1528.17 Q2222.11 1526.43 2222.11 1523.42 Q2222.11 1519.76 2224.7 1517.77 Q2227.29 1515.78 2232.06 1515.78 Q2234.42 1515.78 2236.51 1516.13 Q2238.59 1516.48 2240.35 1517.17 Z" fill="#000000" fill-rule="nonzero" fill-opacity="1" /><path clip-path="url(#clip680)" d="M2252.73 1509.05 L2252.73 1516.41 L2261.51 1516.41 L2261.51 1519.72 L2252.73 1519.72 L2252.73 1533.79 Q2252.73 1536.96 2253.59 1537.87 Q2254.47 1538.77 2257.13 1538.77 L2261.51 1538.77 L2261.51 1542.33 L2257.13 1542.33 Q2252.2 1542.33 2250.32 1540.5 Q2248.45 1538.65 2248.45 1533.79 L2248.45 1519.72 L2245.32 1519.72 L2245.32 1516.41 L2248.45 1516.41 L2248.45 1509.05 L2252.73 1509.05 Z" fill="#000000" fill-rule="nonzero" fill-opacity="1" /><path clip-path="url(#clip680)" d="M2282.13 1520.39 Q2281.41 1519.97 2280.56 1519.79 Q2279.72 1519.58 2278.7 1519.58 Q2275.09 1519.58 2273.15 1521.94 Q2271.23 1524.28 2271.23 1528.68 L2271.23 1542.33 L2266.95 1542.33 L2266.95 1516.41 L2271.23 1516.41 L2271.23 1520.43 Q2272.57 1518.07 2274.72 1516.94 Q2276.88 1515.78 2279.95 1515.78 Q2280.39 1515.78 2280.93 1515.85 Q2281.46 1515.9 2282.11 1516.01 L2282.13 1520.39 Z" fill="#000000" fill-rule="nonzero" fill-opacity="1" /><path clip-path="url(#clip680)" d="M2298.38 1529.3 Q2293.22 1529.3 2291.23 1530.48 Q2289.24 1531.66 2289.24 1534.51 Q2289.24 1536.78 2290.72 1538.12 Q2292.22 1539.44 2294.79 1539.44 Q2298.33 1539.44 2300.46 1536.94 Q2302.62 1534.42 2302.62 1530.25 L2302.62 1529.3 L2298.38 1529.3 M2306.88 1527.54 L2306.88 1542.33 L2302.62 1542.33 L2302.62 1538.4 Q2301.16 1540.76 2298.98 1541.89 Q2296.81 1543 2293.66 1543 Q2289.68 1543 2287.32 1540.78 Q2284.98 1538.54 2284.98 1534.79 Q2284.98 1530.41 2287.89 1528.19 Q2290.83 1525.97 2296.64 1525.97 L2302.62 1525.97 L2302.62 1525.55 Q2302.62 1522.61 2300.67 1521.01 Q2298.75 1519.39 2295.26 1519.39 Q2293.03 1519.39 2290.93 1519.93 Q2288.82 1520.46 2286.88 1521.52 L2286.88 1517.59 Q2289.21 1516.68 2291.41 1516.25 Q2293.61 1515.78 2295.7 1515.78 Q2301.32 1515.78 2304.1 1518.7 Q2306.88 1521.62 2306.88 1527.54 Z" fill="#000000" fill-rule="nonzero" fill-opacity="1" /><path clip-path="url(#clip680)" d="M2315.65 1516.41 L2319.91 1516.41 L2319.91 1542.33 L2315.65 1542.33 L2315.65 1516.41 M2315.65 1506.31 L2319.91 1506.31 L2319.91 1511.71 L2315.65 1511.71 L2315.65 1506.31 Z" fill="#000000" fill-rule="nonzero" fill-opacity="1" /><path clip-path="url(#clip680)" d="M2350.37 1526.68 L2350.37 1542.33 L2346.11 1542.33 L2346.11 1526.82 Q2346.11 1523.14 2344.68 1521.31 Q2343.24 1519.49 2340.37 1519.49 Q2336.92 1519.49 2334.93 1521.68 Q2332.94 1523.88 2332.94 1527.68 L2332.94 1542.33 L2328.66 1542.33 L2328.66 1516.41 L2332.94 1516.41 L2332.94 1520.43 Q2334.47 1518.1 2336.53 1516.94 Q2338.61 1515.78 2341.32 1515.78 Q2345.79 1515.78 2348.08 1518.56 Q2350.37 1521.31 2350.37 1526.68 Z" fill="#000000" fill-rule="nonzero" fill-opacity="1" /><path clip-path="url(#clip680)" d="M2381.04 1528.31 L2381.04 1530.39 L2361.46 1530.39 Q2361.74 1534.79 2364.1 1537.1 Q2366.48 1539.39 2370.72 1539.39 Q2373.17 1539.39 2375.46 1538.79 Q2377.78 1538.19 2380.05 1536.99 L2380.05 1541.01 Q2377.75 1541.99 2375.35 1542.49 Q2372.94 1543 2370.46 1543 Q2364.26 1543 2360.63 1539.39 Q2357.01 1535.78 2357.01 1529.62 Q2357.01 1523.26 2360.44 1519.53 Q2363.89 1515.78 2369.72 1515.78 Q2374.95 1515.78 2377.99 1519.16 Q2381.04 1522.52 2381.04 1528.31 M2376.78 1527.06 Q2376.74 1523.56 2374.82 1521.48 Q2372.92 1519.39 2369.77 1519.39 Q2366.2 1519.39 2364.05 1521.41 Q2361.92 1523.42 2361.6 1527.08 L2376.78 1527.06 Z" fill="#000000" fill-rule="nonzero" fill-opacity="1" /><path clip-path="url(#clip680)" d="M2405.09 1520.34 L2405.09 1506.31 L2409.35 1506.31 L2409.35 1542.33 L2405.09 1542.33 L2405.09 1538.44 Q2403.75 1540.76 2401.69 1541.89 Q2399.65 1543 2396.78 1543 Q2392.08 1543 2389.12 1539.25 Q2386.18 1535.5 2386.18 1529.39 Q2386.18 1523.28 2389.12 1519.53 Q2392.08 1515.78 2396.78 1515.78 Q2399.65 1515.78 2401.69 1516.92 Q2403.75 1518.03 2405.09 1520.34 M2390.58 1529.39 Q2390.58 1534.09 2392.5 1536.78 Q2394.44 1539.44 2397.82 1539.44 Q2401.2 1539.44 2403.15 1536.78 Q2405.09 1534.09 2405.09 1529.39 Q2405.09 1524.69 2403.15 1522.03 Q2401.2 1519.35 2397.82 1519.35 Q2394.44 1519.35 2392.5 1522.03 Q2390.58 1524.69 2390.58 1529.39 Z" fill="#000000" fill-rule="nonzero" fill-opacity="1" /><path clip-path="url(#clip680)" d="M2446.32 1506.31 L2446.32 1509.86 L2442.25 1509.86 Q2439.95 1509.86 2439.05 1510.78 Q2438.17 1511.71 2438.17 1514.12 L2438.17 1516.41 L2445.18 1516.41 L2445.18 1519.72 L2438.17 1519.72 L2438.17 1542.33 L2433.89 1542.33 L2433.89 1519.72 L2429.81 1519.72 L2429.81 1516.41 L2433.89 1516.41 L2433.89 1514.6 Q2433.89 1510.27 2435.9 1508.31 Q2437.92 1506.31 2442.29 1506.31 L2446.32 1506.31 Z" fill="#000000" fill-rule="nonzero" fill-opacity="1" /><path clip-path="url(#clip680)" d="M2449.88 1516.41 L2454.14 1516.41 L2454.14 1542.33 L2449.88 1542.33 L2449.88 1516.41 M2449.88 1506.31 L2454.14 1506.31 L2454.14 1511.71 L2449.88 1511.71 L2449.88 1506.31 Z" fill="#000000" fill-rule="nonzero" fill-opacity="1" /><path clip-path="url(#clip680)" d="M2467.27 1509.05 L2467.27 1516.41 L2476.04 1516.41 L2476.04 1519.72 L2467.27 1519.72 L2467.27 1533.79 Q2467.27 1536.96 2468.12 1537.87 Q2469 1538.77 2471.67 1538.77 L2476.04 1538.77 L2476.04 1542.33 L2471.67 1542.33 Q2466.74 1542.33 2464.86 1540.5 Q2462.99 1538.65 2462.99 1533.79 L2462.99 1519.72 L2459.86 1519.72 L2459.86 1516.41 L2462.99 1516.41 L2462.99 1509.05 L2467.27 1509.05 Z" fill="#000000" fill-rule="nonzero" fill-opacity="1" /><polyline clip-path="url(#clip680)" style="stroke:#000000; stroke-linecap:round; stroke-linejoin:round; stroke-width:12; stroke-opacity:1; fill:none" stroke-dasharray="48, 30" points="1942.03,1576.89 2103.03,1576.89 "/>
<path clip-path="url(#clip680)" d="M2129.86 1559.61 L2159.1 1559.61 L2159.1 1563.55 L2146.83 1563.55 L2146.83 1594.17 L2142.13 1594.17 L2142.13 1563.55 L2129.86 1563.55 L2129.86 1559.61 Z" fill="#000000" fill-rule="nonzero" fill-opacity="1" /><path clip-path="url(#clip680)" d="M2171.48 1572.23 Q2170.77 1571.81 2169.91 1571.63 Q2169.08 1571.42 2168.06 1571.42 Q2164.45 1571.42 2162.5 1573.78 Q2160.58 1576.12 2160.58 1580.52 L2160.58 1594.17 L2156.3 1594.17 L2156.3 1568.25 L2160.58 1568.25 L2160.58 1572.27 Q2161.92 1569.91 2164.08 1568.78 Q2166.23 1567.62 2169.31 1567.62 Q2169.75 1567.62 2170.28 1567.69 Q2170.81 1567.74 2171.46 1567.85 L2171.48 1572.23 Z" fill="#000000" fill-rule="nonzero" fill-opacity="1" /><path clip-path="url(#clip680)" d="M2175.51 1583.94 L2175.51 1568.25 L2179.77 1568.25 L2179.77 1583.78 Q2179.77 1587.46 2181.2 1589.31 Q2182.64 1591.14 2185.51 1591.14 Q2188.96 1591.14 2190.95 1588.94 Q2192.96 1586.74 2192.96 1582.95 L2192.96 1568.25 L2197.22 1568.25 L2197.22 1594.17 L2192.96 1594.17 L2192.96 1590.19 Q2191.41 1592.55 2189.35 1593.71 Q2187.32 1594.84 2184.61 1594.84 Q2180.14 1594.84 2177.83 1592.07 Q2175.51 1589.29 2175.51 1583.94 M2186.23 1567.62 L2186.23 1567.62 Z" fill="#000000" fill-rule="nonzero" fill-opacity="1" /><path clip-path="url(#clip680)" d="M2228.17 1580.15 L2228.17 1582.23 L2208.59 1582.23 Q2208.87 1586.63 2211.23 1588.94 Q2213.61 1591.23 2217.85 1591.23 Q2220.3 1591.23 2222.59 1590.63 Q2224.91 1590.03 2227.18 1588.83 L2227.18 1592.85 Q2224.89 1593.83 2222.48 1594.33 Q2220.07 1594.84 2217.59 1594.84 Q2211.39 1594.84 2207.76 1591.23 Q2204.14 1587.62 2204.14 1581.46 Q2204.14 1575.1 2207.57 1571.37 Q2211.02 1567.62 2216.85 1567.62 Q2222.08 1567.62 2225.12 1571 Q2228.17 1574.36 2228.17 1580.15 M2223.91 1578.9 Q2223.87 1575.4 2221.95 1573.32 Q2220.05 1571.23 2216.9 1571.23 Q2213.33 1571.23 2211.18 1573.25 Q2209.05 1575.26 2208.73 1578.92 L2223.91 1578.9 Z" fill="#000000" fill-rule="nonzero" fill-opacity="1" /><path clip-path="url(#clip680)" d="M2263.36 1558.15 L2263.36 1561.7 L2259.28 1561.7 Q2256.99 1561.7 2256.09 1562.62 Q2255.21 1563.55 2255.21 1565.96 L2255.21 1568.25 L2262.22 1568.25 L2262.22 1571.56 L2255.21 1571.56 L2255.21 1594.17 L2250.93 1594.17 L2250.93 1571.56 L2246.85 1571.56 L2246.85 1568.25 L2250.93 1568.25 L2250.93 1566.44 Q2250.93 1562.11 2252.94 1560.15 Q2254.95 1558.15 2259.33 1558.15 L2263.36 1558.15 Z" fill="#000000" fill-rule="nonzero" fill-opacity="1" /><path clip-path="url(#clip680)" d="M2277.15 1558.2 Q2274.05 1563.52 2272.55 1568.73 Q2271.04 1573.94 2271.04 1579.29 Q2271.04 1584.64 2272.55 1589.89 Q2274.07 1595.12 2277.15 1600.42 L2273.45 1600.42 Q2269.98 1594.98 2268.24 1589.73 Q2266.53 1584.47 2266.53 1579.29 Q2266.53 1574.13 2268.24 1568.9 Q2269.95 1563.66 2273.45 1558.2 L2277.15 1558.2 Z" fill="#000000" fill-rule="nonzero" fill-opacity="1" /><path clip-path="url(#clip680)" d="M2301.99 1577.97 Q2303.5 1578.48 2304.91 1580.15 Q2306.34 1581.81 2307.78 1584.73 L2312.52 1594.17 L2307.5 1594.17 L2303.08 1585.31 Q2301.37 1581.83 2299.75 1580.7 Q2298.15 1579.57 2295.37 1579.57 L2290.28 1579.57 L2290.28 1594.17 L2285.6 1594.17 L2285.6 1559.61 L2296.16 1559.61 Q2302.08 1559.61 2305 1562.09 Q2307.92 1564.57 2307.92 1569.57 Q2307.92 1572.83 2306.39 1574.98 Q2304.88 1577.14 2301.99 1577.97 M2290.28 1563.46 L2290.28 1575.72 L2296.16 1575.72 Q2299.54 1575.72 2301.25 1574.17 Q2302.99 1572.6 2302.99 1569.57 Q2302.99 1566.53 2301.25 1565.01 Q2299.54 1563.46 2296.16 1563.46 L2290.28 1563.46 Z" fill="#000000" fill-rule="nonzero" fill-opacity="1" /><path clip-path="url(#clip680)" d="M2317.69 1558.2 L2321.39 1558.2 Q2324.86 1563.66 2326.57 1568.9 Q2328.31 1574.13 2328.31 1579.29 Q2328.31 1584.47 2326.57 1589.73 Q2324.86 1594.98 2321.39 1600.42 L2317.69 1600.42 Q2320.76 1595.12 2322.27 1589.89 Q2323.8 1584.64 2323.8 1579.29 Q2323.8 1573.94 2322.27 1568.73 Q2320.76 1563.52 2317.69 1558.2 Z" fill="#000000" fill-rule="nonzero" fill-opacity="1" /><path clip-path="url(#clip680)" d="M1942.03 1649.47 L2103.03 1649.47 L2103.03 1608 L1942.03 1608 L1942.03 1649.47  Z" fill="#4682b4" fill-rule="evenodd" fill-opacity="0.08"/>
<polyline clip-path="url(#clip680)" style="stroke:#000000; stroke-linecap:round; stroke-linejoin:round; stroke-width:0.8; stroke-opacity:1; fill:none" points="1942.03,1649.47 2103.03,1649.47 2103.03,1608 1942.03,1608 1942.03,1649.47 "/>
<path clip-path="url(#clip680)" d="M2134.54 1615.3 L2134.54 1642.17 L2140.19 1642.17 Q2147.34 1642.17 2150.65 1638.93 Q2153.98 1635.69 2153.98 1628.7 Q2153.98 1621.75 2150.65 1618.54 Q2147.34 1615.3 2140.19 1615.3 L2134.54 1615.3 M2129.86 1611.45 L2139.47 1611.45 Q2149.52 1611.45 2154.21 1615.64 Q2158.91 1619.81 2158.91 1628.7 Q2158.91 1637.63 2154.19 1641.82 Q2149.47 1646.01 2139.47 1646.01 L2129.86 1646.01 L2129.86 1611.45 Z" fill="#000000" fill-rule="nonzero" fill-opacity="1" /><path clip-path="url(#clip680)" d="M2177.96 1632.98 Q2172.8 1632.98 2170.81 1634.16 Q2168.82 1635.34 2168.82 1638.19 Q2168.82 1640.46 2170.3 1641.8 Q2171.81 1643.12 2174.38 1643.12 Q2177.92 1643.12 2180.05 1640.62 Q2182.2 1638.1 2182.2 1633.93 L2182.2 1632.98 L2177.96 1632.98 M2186.46 1631.22 L2186.46 1646.01 L2182.2 1646.01 L2182.2 1642.08 Q2180.74 1644.44 2178.57 1645.57 Q2176.39 1646.68 2173.24 1646.68 Q2169.26 1646.68 2166.9 1644.46 Q2164.56 1642.22 2164.56 1638.47 Q2164.56 1634.09 2167.48 1631.87 Q2170.42 1629.65 2176.23 1629.65 L2182.2 1629.65 L2182.2 1629.23 Q2182.2 1626.29 2180.26 1624.69 Q2178.33 1623.07 2174.84 1623.07 Q2172.62 1623.07 2170.51 1623.61 Q2168.4 1624.14 2166.46 1625.2 L2166.46 1621.27 Q2168.8 1620.36 2171 1619.93 Q2173.2 1619.46 2175.28 1619.46 Q2180.9 1619.46 2183.68 1622.38 Q2186.46 1625.3 2186.46 1631.22 Z" fill="#000000" fill-rule="nonzero" fill-opacity="1" /><path clip-path="url(#clip680)" d="M2199.45 1612.73 L2199.45 1620.09 L2208.22 1620.09 L2208.22 1623.4 L2199.45 1623.4 L2199.45 1637.47 Q2199.45 1640.64 2200.3 1641.55 Q2201.18 1642.45 2203.84 1642.45 L2208.22 1642.45 L2208.22 1646.01 L2203.84 1646.01 Q2198.91 1646.01 2197.04 1644.18 Q2195.16 1642.33 2195.16 1637.47 L2195.16 1623.4 L2192.04 1623.4 L2192.04 1620.09 L2195.16 1620.09 L2195.16 1612.73 L2199.45 1612.73 Z" fill="#000000" fill-rule="nonzero" fill-opacity="1" /><path clip-path="url(#clip680)" d="M2225.6 1632.98 Q2220.44 1632.98 2218.45 1634.16 Q2216.46 1635.34 2216.46 1638.19 Q2216.46 1640.46 2217.94 1641.8 Q2219.45 1643.12 2222.01 1643.12 Q2225.56 1643.12 2227.69 1640.62 Q2229.84 1638.1 2229.84 1633.93 L2229.84 1632.98 L2225.6 1632.98 M2234.1 1631.22 L2234.1 1646.01 L2229.84 1646.01 L2229.84 1642.08 Q2228.38 1644.44 2226.2 1645.57 Q2224.03 1646.68 2220.88 1646.68 Q2216.9 1646.68 2214.54 1644.46 Q2212.2 1642.22 2212.2 1638.47 Q2212.2 1634.09 2215.12 1631.87 Q2218.06 1629.65 2223.87 1629.65 L2229.84 1629.65 L2229.84 1629.23 Q2229.84 1626.29 2227.89 1624.69 Q2225.97 1623.07 2222.48 1623.07 Q2220.26 1623.07 2218.15 1623.61 Q2216.04 1624.14 2214.1 1625.2 L2214.1 1621.27 Q2216.44 1620.36 2218.64 1619.93 Q2220.83 1619.46 2222.92 1619.46 Q2228.54 1619.46 2231.32 1622.38 Q2234.1 1625.3 2234.1 1631.22 Z" fill="#000000" fill-rule="nonzero" fill-opacity="1" /><path clip-path="url(#clip680)" d="M2272.96 1624.07 Q2272.25 1623.65 2271.39 1623.47 Q2270.56 1623.26 2269.54 1623.26 Q2265.93 1623.26 2263.98 1625.62 Q2262.06 1627.96 2262.06 1632.36 L2262.06 1646.01 L2257.78 1646.01 L2257.78 1620.09 L2262.06 1620.09 L2262.06 1624.11 Q2263.4 1621.75 2265.56 1620.62 Q2267.71 1619.46 2270.79 1619.46 Q2271.23 1619.46 2271.76 1619.53 Q2272.29 1619.58 2272.94 1619.69 L2272.96 1624.07 Z" fill="#000000" fill-rule="nonzero" fill-opacity="1" /><path clip-path="url(#clip680)" d="M2289.21 1632.98 Q2284.05 1632.98 2282.06 1634.16 Q2280.07 1635.34 2280.07 1638.19 Q2280.07 1640.46 2281.55 1641.8 Q2283.06 1643.12 2285.63 1643.12 Q2289.17 1643.12 2291.3 1640.62 Q2293.45 1638.1 2293.45 1633.93 L2293.45 1632.98 L2289.21 1632.98 M2297.71 1631.22 L2297.71 1646.01 L2293.45 1646.01 L2293.45 1642.08 Q2291.99 1644.44 2289.82 1645.57 Q2287.64 1646.68 2284.49 1646.68 Q2280.51 1646.68 2278.15 1644.46 Q2275.81 1642.22 2275.81 1638.47 Q2275.81 1634.09 2278.73 1631.87 Q2281.67 1629.65 2287.48 1629.65 L2293.45 1629.65 L2293.45 1629.23 Q2293.45 1626.29 2291.51 1624.69 Q2289.58 1623.07 2286.09 1623.07 Q2283.87 1623.07 2281.76 1623.61 Q2279.65 1624.14 2277.71 1625.2 L2277.71 1621.27 Q2280.05 1620.36 2282.25 1619.93 Q2284.45 1619.46 2286.53 1619.46 Q2292.15 1619.46 2294.93 1622.38 Q2297.71 1625.3 2297.71 1631.22 Z" fill="#000000" fill-rule="nonzero" fill-opacity="1" /><path clip-path="url(#clip680)" d="M2328.03 1630.36 L2328.03 1646.01 L2323.77 1646.01 L2323.77 1630.5 Q2323.77 1626.82 2322.34 1624.99 Q2320.9 1623.17 2318.03 1623.17 Q2314.58 1623.17 2312.59 1625.36 Q2310.6 1627.56 2310.6 1631.36 L2310.6 1646.01 L2306.32 1646.01 L2306.32 1620.09 L2310.6 1620.09 L2310.6 1624.11 Q2312.13 1621.78 2314.19 1620.62 Q2316.27 1619.46 2318.98 1619.46 Q2323.45 1619.46 2325.74 1622.24 Q2328.03 1624.99 2328.03 1630.36 Z" fill="#000000" fill-rule="nonzero" fill-opacity="1" /><path clip-path="url(#clip680)" d="M2353.59 1632.75 Q2353.59 1628.12 2351.67 1625.57 Q2349.77 1623.03 2346.32 1623.03 Q2342.89 1623.03 2340.97 1625.57 Q2339.07 1628.12 2339.07 1632.75 Q2339.07 1637.36 2340.97 1639.9 Q2342.89 1642.45 2346.32 1642.45 Q2349.77 1642.45 2351.67 1639.9 Q2353.59 1637.36 2353.59 1632.75 M2357.85 1642.8 Q2357.85 1649.42 2354.91 1652.63 Q2351.97 1655.87 2345.9 1655.87 Q2343.66 1655.87 2341.67 1655.53 Q2339.68 1655.2 2337.8 1654.51 L2337.8 1650.36 Q2339.68 1651.38 2341.5 1651.87 Q2343.33 1652.36 2345.23 1652.36 Q2349.42 1652.36 2351.5 1650.16 Q2353.59 1647.98 2353.59 1643.56 L2353.59 1641.45 Q2352.27 1643.74 2350.21 1644.88 Q2348.15 1646.01 2345.28 1646.01 Q2340.51 1646.01 2337.59 1642.38 Q2334.68 1638.74 2334.68 1632.75 Q2334.68 1626.73 2337.59 1623.1 Q2340.51 1619.46 2345.28 1619.46 Q2348.15 1619.46 2350.21 1620.6 Q2352.27 1621.73 2353.59 1624.02 L2353.59 1620.09 L2357.85 1620.09 L2357.85 1642.8 Z" fill="#000000" fill-rule="nonzero" fill-opacity="1" /><path clip-path="url(#clip680)" d="M2388.8 1631.99 L2388.8 1634.07 L2369.21 1634.07 Q2369.49 1638.47 2371.85 1640.78 Q2374.24 1643.07 2378.47 1643.07 Q2380.93 1643.07 2383.22 1642.47 Q2385.53 1641.87 2387.8 1640.67 L2387.8 1644.69 Q2385.51 1645.67 2383.1 1646.17 Q2380.69 1646.68 2378.22 1646.68 Q2372.01 1646.68 2368.38 1643.07 Q2364.77 1639.46 2364.77 1633.3 Q2364.77 1626.94 2368.19 1623.21 Q2371.64 1619.46 2377.48 1619.46 Q2382.71 1619.46 2385.74 1622.84 Q2388.8 1626.2 2388.8 1631.99 M2384.54 1630.74 Q2384.49 1627.24 2382.57 1625.16 Q2380.67 1623.07 2377.52 1623.07 Q2373.96 1623.07 2371.81 1625.09 Q2369.68 1627.1 2369.35 1630.76 L2384.54 1630.74 Z" fill="#000000" fill-rule="nonzero" fill-opacity="1" /></svg>
