<?xml version="1.0" encoding="utf-8"?>
<svg xmlns="http://www.w3.org/2000/svg" xmlns:xlink="http://www.w3.org/1999/xlink" width="672" height="480" viewBox="0 0 2688 1920">
<defs>
  <clipPath id="clip180">
    <rect x="0" y="0" width="2688" height="1920"/>
  </clipPath>
</defs>
<path clip-path="url(#clip180)" d="M0 1920 L2688 1920 L2688 -4.26326e-14 L0 -4.26326e-14  Z" fill="#ffffff" fill-rule="evenodd" fill-opacity="1"/>
<defs>
  <clipPath id="clip181">
    <rect x="180" y="127" width="2461" height="1607"/>
  </clipPath>
</defs>
<path clip-path="url(#clip180)" d="M180.423 1734.12 L2640.76 1734.12 L2640.76 127.792 L180.423 127.792  Z" fill="#ffffff" fill-rule="evenodd" fill-opacity="1"/>
<polyline clip-path="url(#clip181)" style="stroke:#000000; stroke-linecap:round; stroke-linejoin:round; stroke-width:2; stroke-opacity:0.1; fill:none" points="250.055,1734.12 250.055,127.792 "/>
<polyline clip-path="url(#clip181)" style="stroke:#000000; stroke-linecap:round; stroke-linejoin:round; stroke-width:2; stroke-opacity:0.1; fill:none" points="636.9,1734.12 636.9,127.792 "/>
<polyline clip-path="url(#clip181)" style="stroke:#000000; stroke-linecap:round; stroke-linejoin:round; stroke-width:2; stroke-opacity:0.1; fill:none" points="1023.74,1734.12 1023.74,127.792 "/>
<polyline clip-path="url(#clip181)" style="stroke:#000000; stroke-linecap:round; stroke-linejoin:round; stroke-width:2; stroke-opacity:0.1; fill:none" points="1410.59,1734.12 1410.59,127.792 "/>
<polyline clip-path="url(#clip181)" style="stroke:#000000; stroke-linecap:round; stroke-linejoin:round; stroke-width:2; stroke-opacity:0.1; fill:none" points="1797.43,1734.12 1797.43,127.792 "/>
<polyline clip-path="url(#clip181)" style="stroke:#000000; stroke-linecap:round; stroke-linejoin:round; stroke-width:2; stroke-opacity:0.1; fill:none" points="2184.28,1734.12 2184.28,127.792 "/>
<polyline clip-path="url(#clip181)" style="stroke:#000000; stroke-linecap:round; stroke-linejoin:round; stroke-width:2; stroke-opacity:0.1; fill:none" points="2571.12,1734.12 2571.12,127.792 "/>
<polyline clip-path="url(#clip181)" style="stroke:#000000; stroke-linecap:round; stroke-linejoin:round; stroke-width:2; stroke-opacity:0.1; fill:none" points="180.423,1465.88 2640.76,1465.88 "/>
<polyline clip-path="url(#clip181)" style="stroke:#000000; stroke-linecap:round; stroke-linejoin:round; stroke-width:2; stroke-opacity:0.1; fill:none" points="180.423,1060.88 2640.76,1060.88 "/>
<polyline clip-path="url(#clip181)" style="stroke:#000000; stroke-linecap:round; stroke-linejoin:round; stroke-width:2; stroke-opacity:0.1; fill:none" points="180.423,655.891 2640.76,655.891 "/>
<polyline clip-path="url(#clip181)" style="stroke:#000000; stroke-linecap:round; stroke-linejoin:round; stroke-width:2; stroke-opacity:0.1; fill:none" points="180.423,250.897 2640.76,250.897 "/>
<polyline clip-path="url(#clip180)" style="stroke:#000000; stroke-linecap:round; stroke-linejoin:round; stroke-width:4; stroke-opacity:1; fill:none" points="180.423,1734.12 2640.76,1734.12 "/>
<polyline clip-path="url(#clip180)" style="stroke:#000000; stroke-linecap:round; stroke-linejoin:round; stroke-width:4; stroke-opacity:1; fill:none" points="250.055,1734.12 250.055,1715.22 "/>
<polyline clip-path="url(#clip180)" style="stroke:#000000; stroke-linecap:round; stroke-linejoin:round; stroke-width:4; stroke-opacity:1; fill:none" points="636.9,1734.12 636.9,1715.22 "/>
<polyline clip-path="url(#clip180)" style="stroke:#000000; stroke-linecap:round; stroke-linejoin:round; stroke-width:4; stroke-opacity:1; fill:none" points="1023.74,1734.12 1023.74,1715.22 "/>
<polyline clip-path="url(#clip180)" style="stroke:#000000; stroke-linecap:round; stroke-linejoin:round; stroke-width:4; stroke-opacity:1; fill:none" points="1410.59,1734.12 1410.59,1715.22 "/>
<polyline clip-path="url(#clip180)" style="stroke:#000000; stroke-linecap:round; stroke-linejoin:round; stroke-width:4; stroke-opacity:1; fill:none" points="1797.43,1734.12 1797.43,1715.22 "/>
<polyline clip-path="url(#clip180)" style="stroke:#000000; stroke-linecap:round; stroke-linejoin:round; stroke-width:4; stroke-opacity:1; fill:none" points="2184.28,1734.12 2184.28,1715.22 "/>
<polyline clip-path="url(#clip180)" style="stroke:#000000; stroke-linecap:round; stroke-linejoin:round; stroke-width:4; stroke-opacity:1; fill:none" points="2571.12,1734.12 2571.12,1715.22 "/>
<path clip-path="url(#clip180)" d="M250.055 1767.34 Q246.444 1767.34 244.615 1770.9 Q242.81 1774.45 242.81 1781.58 Q242.81 1788.68 244.615 1792.25 Q246.444 1795.79 250.055 1795.79 Q253.69 1795.79 255.495 1792.25 Q257.324 1788.68 257.324 1781.58 Q257.324 1774.45 255.495 1770.9 Q253.69 1767.34 250.055 1767.34 M250.055 1763.64 Q255.865 1763.64 258.921 1768.24 Q262 1772.83 262 1781.58 Q262 1790.3 258.921 1794.91 Q255.865 1799.49 250.055 1799.49 Q244.245 1799.49 241.166 1794.91 Q238.111 1790.3 238.111 1781.58 Q238.111 1772.83 241.166 1768.24 Q244.245 1763.64 250.055 1763.64 Z" fill="#000000" fill-rule="nonzero" fill-opacity="1" /><path clip-path="url(#clip180)" d="M627.282 1794.89 L634.921 1794.89 L634.921 1768.52 L626.611 1770.19 L626.611 1765.93 L634.875 1764.26 L639.55 1764.26 L639.55 1794.89 L647.189 1794.89 L647.189 1798.82 L627.282 1798.82 L627.282 1794.89 Z" fill="#000000" fill-rule="nonzero" fill-opacity="1" /><path clip-path="url(#clip180)" d="M1018.4 1794.89 L1034.72 1794.89 L1034.72 1798.82 L1012.77 1798.82 L1012.77 1794.89 Q1015.43 1792.13 1020.02 1787.5 Q1024.62 1782.85 1025.8 1781.51 Q1028.05 1778.98 1028.93 1777.25 Q1029.83 1775.49 1029.83 1773.8 Q1029.83 1771.04 1027.89 1769.31 Q1025.97 1767.57 1022.87 1767.57 Q1020.67 1767.57 1018.21 1768.34 Q1015.78 1769.1 1013 1770.65 L1013 1765.93 Q1015.83 1764.79 1018.28 1764.21 Q1020.74 1763.64 1022.77 1763.64 Q1028.14 1763.64 1031.34 1766.32 Q1034.53 1769.01 1034.53 1773.5 Q1034.53 1775.63 1033.72 1777.55 Q1032.93 1779.45 1030.83 1782.04 Q1030.25 1782.71 1027.15 1785.93 Q1024.05 1789.12 1018.4 1794.89 Z" fill="#000000" fill-rule="nonzero" fill-opacity="1" /><path clip-path="url(#clip180)" d="M1414.84 1780.19 Q1418.19 1780.9 1420.07 1783.17 Q1421.97 1785.44 1421.97 1788.77 Q1421.97 1793.89 1418.45 1796.69 Q1414.93 1799.49 1408.45 1799.49 Q1406.27 1799.49 1403.96 1799.05 Q1401.67 1798.64 1399.21 1797.78 L1399.21 1793.27 Q1401.16 1794.4 1403.47 1794.98 Q1405.79 1795.56 1408.31 1795.56 Q1412.71 1795.56 1415 1793.82 Q1417.31 1792.08 1417.31 1788.77 Q1417.31 1785.72 1415.16 1784.01 Q1413.03 1782.27 1409.21 1782.27 L1405.18 1782.27 L1405.18 1778.43 L1409.4 1778.43 Q1412.85 1778.43 1414.68 1777.06 Q1416.5 1775.67 1416.5 1773.08 Q1416.5 1770.42 1414.61 1769.01 Q1412.73 1767.57 1409.21 1767.57 Q1407.29 1767.57 1405.09 1767.99 Q1402.89 1768.4 1400.25 1769.28 L1400.25 1765.12 Q1402.92 1764.38 1405.23 1764.01 Q1407.57 1763.64 1409.63 1763.64 Q1414.95 1763.64 1418.05 1766.07 Q1421.16 1768.47 1421.16 1772.59 Q1421.16 1775.46 1419.51 1777.46 Q1417.87 1779.42 1414.84 1780.19 Z" fill="#000000" fill-rule="nonzero" fill-opacity="1" /><path clip-path="url(#clip180)" d="M1800.44 1768.34 L1788.64 1786.78 L1800.44 1786.78 L1800.44 1768.34 M1799.22 1764.26 L1805.1 1764.26 L1805.1 1786.78 L1810.03 1786.78 L1810.03 1790.67 L1805.1 1790.67 L1805.1 1798.82 L1800.44 1798.82 L1800.44 1790.67 L1784.84 1790.67 L1784.84 1786.16 L1799.22 1764.26 Z" fill="#000000" fill-rule="nonzero" fill-opacity="1" /><path clip-path="url(#clip180)" d="M2174.56 1764.26 L2192.91 1764.26 L2192.91 1768.2 L2178.84 1768.2 L2178.84 1776.67 Q2179.86 1776.32 2180.88 1776.16 Q2181.89 1775.97 2182.91 1775.97 Q2188.7 1775.97 2192.08 1779.15 Q2195.46 1782.32 2195.46 1787.73 Q2195.46 1793.31 2191.99 1796.41 Q2188.52 1799.49 2182.2 1799.49 Q2180.02 1799.49 2177.75 1799.12 Q2175.51 1798.75 2173.1 1798.01 L2173.1 1793.31 Q2175.18 1794.45 2177.4 1795 Q2179.63 1795.56 2182.1 1795.56 Q2186.11 1795.56 2188.45 1793.45 Q2190.78 1791.34 2190.78 1787.73 Q2190.78 1784.12 2188.45 1782.02 Q2186.11 1779.91 2182.1 1779.91 Q2180.23 1779.91 2178.35 1780.33 Q2176.5 1780.74 2174.56 1781.62 L2174.56 1764.26 Z" fill="#000000" fill-rule="nonzero" fill-opacity="1" /><path clip-path="url(#clip180)" d="M2571.53 1779.68 Q2568.38 1779.68 2566.53 1781.83 Q2564.7 1783.98 2564.7 1787.73 Q2564.7 1791.46 2566.53 1793.64 Q2568.38 1795.79 2571.53 1795.79 Q2574.68 1795.79 2576.51 1793.64 Q2578.36 1791.46 2578.36 1787.73 Q2578.36 1783.98 2576.51 1781.83 Q2574.68 1779.68 2571.53 1779.68 M2580.81 1765.02 L2580.81 1769.28 Q2579.05 1768.45 2577.25 1768.01 Q2575.46 1767.57 2573.7 1767.57 Q2569.08 1767.57 2566.62 1770.7 Q2564.19 1773.82 2563.84 1780.14 Q2565.21 1778.13 2567.27 1777.06 Q2569.33 1775.97 2571.81 1775.97 Q2577.02 1775.97 2580.02 1779.15 Q2583.06 1782.29 2583.06 1787.73 Q2583.06 1793.06 2579.91 1796.27 Q2576.76 1799.49 2571.53 1799.49 Q2565.53 1799.49 2562.36 1794.91 Q2559.19 1790.3 2559.19 1781.58 Q2559.19 1773.38 2563.08 1768.52 Q2566.97 1763.64 2573.52 1763.64 Q2575.28 1763.64 2577.06 1763.98 Q2578.87 1764.33 2580.81 1765.02 Z" fill="#000000" fill-rule="nonzero" fill-opacity="1" /><path clip-path="url(#clip180)" d="M1395.66 1869.23 L1395.66 1847.65 L1401.52 1847.65 L1401.52 1869.01 Q1401.52 1874.07 1403.49 1876.62 Q1405.47 1879.13 1409.41 1879.13 Q1414.15 1879.13 1416.89 1876.11 Q1419.66 1873.08 1419.66 1867.86 L1419.66 1847.65 L1425.52 1847.65 L1425.52 1883.3 L1419.66 1883.3 L1419.66 1877.83 Q1417.53 1881.07 1414.7 1882.66 Q1411.89 1884.22 1408.17 1884.22 Q1402.03 1884.22 1398.84 1880.4 Q1395.66 1876.59 1395.66 1869.23 M1410.4 1846.79 L1410.4 1846.79 Z" fill="#000000" fill-rule="nonzero" fill-opacity="1" /><polyline clip-path="url(#clip180)" style="stroke:#000000; stroke-linecap:round; stroke-linejoin:round; stroke-width:4; stroke-opacity:1; fill:none" points="180.423,1734.12 180.423,127.792 "/>
<polyline clip-path="url(#clip180)" style="stroke:#000000; stroke-linecap:round; stroke-linejoin:round; stroke-width:4; stroke-opacity:1; fill:none" points="180.423,1465.88 199.321,1465.88 "/>
<polyline clip-path="url(#clip180)" style="stroke:#000000; stroke-linecap:round; stroke-linejoin:round; stroke-width:4; stroke-opacity:1; fill:none" points="180.423,1060.88 199.321,1060.88 "/>
<polyline clip-path="url(#clip180)" style="stroke:#000000; stroke-linecap:round; stroke-linejoin:round; stroke-width:4; stroke-opacity:1; fill:none" points="180.423,655.891 199.321,655.891 "/>
<polyline clip-path="url(#clip180)" style="stroke:#000000; stroke-linecap:round; stroke-linejoin:round; stroke-width:4; stroke-opacity:1; fill:none" points="180.423,250.897 199.321,250.897 "/>
<path clip-path="url(#clip180)" d="M128.159 1451.68 Q124.548 1451.68 122.719 1455.24 Q120.913 1458.78 120.913 1465.91 Q120.913 1473.02 122.719 1476.58 Q124.548 1480.13 128.159 1480.13 Q131.793 1480.13 133.599 1476.58 Q135.427 1473.02 135.427 1465.91 Q135.427 1458.78 133.599 1455.24 Q131.793 1451.68 128.159 1451.68 M128.159 1447.97 Q133.969 1447.97 137.025 1452.58 Q140.103 1457.16 140.103 1465.91 Q140.103 1474.64 137.025 1479.25 Q133.969 1483.83 128.159 1483.83 Q122.349 1483.83 119.27 1479.25 Q116.214 1474.64 116.214 1465.91 Q116.214 1457.16 119.27 1452.58 Q122.349 1447.97 128.159 1447.97 Z" fill="#000000" fill-rule="nonzero" fill-opacity="1" /><path clip-path="url(#clip180)" d="M120.196 1074.23 L127.835 1074.23 L127.835 1047.86 L119.525 1049.53 L119.525 1045.27 L127.788 1043.6 L132.464 1043.6 L132.464 1074.23 L140.103 1074.23 L140.103 1078.16 L120.196 1078.16 L120.196 1074.23 Z" fill="#000000" fill-rule="nonzero" fill-opacity="1" /><path clip-path="url(#clip180)" d="M123.784 669.236 L140.103 669.236 L140.103 673.171 L118.159 673.171 L118.159 669.236 Q120.821 666.481 125.404 661.852 Q130.011 657.199 131.191 655.856 Q133.437 653.333 134.316 651.597 Q135.219 649.838 135.219 648.148 Q135.219 645.393 133.275 643.657 Q131.353 641.921 128.251 641.921 Q126.052 641.921 123.599 642.685 Q121.168 643.449 118.39 645 L118.39 640.278 Q121.214 639.143 123.668 638.565 Q126.122 637.986 128.159 637.986 Q133.529 637.986 136.724 640.671 Q139.918 643.356 139.918 647.847 Q139.918 649.977 139.108 651.898 Q138.321 653.796 136.214 656.389 Q135.636 657.06 132.534 660.278 Q129.432 663.472 123.784 669.236 Z" fill="#000000" fill-rule="nonzero" fill-opacity="1" /><path clip-path="url(#clip180)" d="M132.974 249.543 Q136.33 250.261 138.205 252.529 Q140.103 254.798 140.103 258.131 Q140.103 263.247 136.585 266.048 Q133.066 268.849 126.585 268.849 Q124.409 268.849 122.094 268.409 Q119.802 267.992 117.349 267.136 L117.349 262.622 Q119.293 263.756 121.608 264.335 Q123.923 264.914 126.446 264.914 Q130.844 264.914 133.136 263.177 Q135.45 261.441 135.45 258.131 Q135.45 255.076 133.298 253.363 Q131.168 251.627 127.349 251.627 L123.321 251.627 L123.321 247.784 L127.534 247.784 Q130.983 247.784 132.812 246.418 Q134.64 245.029 134.64 242.437 Q134.64 239.775 132.742 238.363 Q130.867 236.928 127.349 236.928 Q125.427 236.928 123.228 237.344 Q121.029 237.761 118.39 238.641 L118.39 234.474 Q121.052 233.733 123.367 233.363 Q125.705 232.992 127.765 232.992 Q133.089 232.992 136.191 235.423 Q139.293 237.83 139.293 241.951 Q139.293 244.821 137.65 246.812 Q136.006 248.779 132.974 249.543 Z" fill="#000000" fill-rule="nonzero" fill-opacity="1" /><path clip-path="url(#clip180)" d="M12.1132 962.274 L16.983 962.274 L16.983 967.876 Q16.983 971.027 18.2562 972.268 Q19.5293 973.477 22.8395 973.477 L25.9905 973.477 L25.9905 963.833 L30.542 963.833 L30.542 973.477 L61.6384 973.477 L61.6384 979.366 L30.542 979.366 L30.542 984.968 L25.9905 984.968 L25.9905 979.366 L23.5079 979.366 Q17.5559 979.366 14.8505 976.597 Q12.1132 973.828 12.1132 967.812 L12.1132 962.274 Z" fill="#000000" fill-rule="nonzero" fill-opacity="1" /><path clip-path="url(#clip180)" d="M12.1769 943.304 Q19.4975 947.569 26.6589 949.638 Q33.8203 951.707 41.1727 951.707 Q48.5251 951.707 55.7502 949.638 Q62.9434 947.537 70.2321 943.304 L70.2321 948.397 Q62.7524 953.171 55.5274 955.558 Q48.3023 957.913 41.1727 957.913 Q34.0749 957.913 26.8817 955.558 Q19.6884 953.203 12.1769 948.397 L12.1769 943.304 Z" fill="#000000" fill-rule="nonzero" fill-opacity="1" /><path clip-path="url(#clip180)" d="M47.5702 932.546 L25.9905 932.546 L25.9905 926.69 L47.3474 926.69 Q52.4082 926.69 54.9545 924.716 Q57.4689 922.743 57.4689 918.796 Q57.4689 914.054 54.4452 911.316 Q51.4215 908.547 46.2016 908.547 L25.9905 908.547 L25.9905 902.691 L61.6384 902.691 L61.6384 908.547 L56.1639 908.547 Q59.4104 910.68 61.0019 913.513 Q62.5615 916.313 62.5615 920.037 Q62.5615 926.18 58.742 929.363 Q54.9226 932.546 47.5702 932.546 M25.1311 917.809 L25.1311 917.809 Z" fill="#000000" fill-rule="nonzero" fill-opacity="1" /><path clip-path="url(#clip180)" d="M12.1769 891.551 L12.1769 886.458 Q19.6884 881.684 26.8817 879.329 Q34.0749 876.942 41.1727 876.942 Q48.3023 876.942 55.5274 879.329 Q62.7524 881.684 70.2321 886.458 L70.2321 891.551 Q62.9434 887.318 55.7502 885.249 Q48.5251 883.148 41.1727 883.148 Q33.8203 883.148 26.6589 885.249 Q19.4975 887.318 12.1769 891.551 Z" fill="#000000" fill-rule="nonzero" fill-opacity="1" /><path clip-path="url(#clip180)" d="M906.191 20.1573 L895.092 50.2555 L917.331 50.2555 L906.191 20.1573 M901.573 12.096 L910.85 12.096 L933.899 72.576 L925.393 72.576 L919.883 57.061 L892.621 57.061 L887.111 72.576 L878.483 72.576 L901.573 12.096 Z" fill="#000000" fill-rule="nonzero" fill-opacity="1" /><path clip-path="url(#clip180)" d="M950.913 43.6931 L950.913 65.8515 L964.038 65.8515 Q970.641 65.8515 973.801 63.1374 Q977.001 60.3828 977.001 54.752 Q977.001 49.0808 973.801 46.4072 Q970.641 43.6931 964.038 43.6931 L950.913 43.6931 M950.913 18.8205 L950.913 37.0496 L963.025 37.0496 Q969.021 37.0496 971.937 34.8216 Q974.895 32.5531 974.895 27.935 Q974.895 23.3575 971.937 21.089 Q969.021 18.8205 963.025 18.8205 L950.913 18.8205 M942.73 12.096 L963.633 12.096 Q972.991 12.096 978.054 15.9849 Q983.118 19.8737 983.118 27.0438 Q983.118 32.5936 980.525 35.8748 Q977.933 39.156 972.91 39.9662 Q978.945 41.2625 982.267 45.3944 Q985.629 49.4858 985.629 55.6432 Q985.629 63.745 980.12 68.1605 Q974.611 72.576 964.443 72.576 L942.73 72.576 L942.73 12.096 Z" fill="#000000" fill-rule="nonzero" fill-opacity="1" /><path clip-path="url(#clip180)" d="M1043.48 16.7545 L1043.48 25.383 Q1039.34 21.5346 1034.65 19.6307 Q1029.99 17.7268 1024.72 17.7268 Q1014.35 17.7268 1008.84 24.0867 Q1003.33 30.4061 1003.33 42.3968 Q1003.33 54.3469 1008.84 60.7069 Q1014.35 67.0263 1024.72 67.0263 Q1029.99 67.0263 1034.65 65.1223 Q1039.34 63.2184 1043.48 59.3701 L1043.48 67.9175 Q1039.18 70.8341 1034.36 72.2924 Q1029.58 73.7508 1024.23 73.7508 Q1010.5 73.7508 1002.6 65.3654 Q994.703 56.9395 994.703 42.3968 Q994.703 27.8135 1002.6 19.4281 Q1010.5 11.0023 1024.23 11.0023 Q1029.66 11.0023 1034.44 12.4606 Q1039.26 13.8784 1043.48 16.7545 Z" fill="#000000" fill-rule="nonzero" fill-opacity="1" /><path clip-path="url(#clip180)" d="M1076.82 27.2059 L1084.71 27.2059 L1098.89 65.2844 L1113.07 27.2059 L1120.97 27.2059 L1103.96 72.576 L1093.83 72.576 L1076.82 27.2059 Z" fill="#000000" fill-rule="nonzero" fill-opacity="1" /><path clip-path="url(#clip180)" d="M1160.18 28.5427 L1160.18 35.5912 Q1157.02 33.9709 1153.62 33.1607 Q1150.22 32.3505 1146.57 32.3505 Q1141.02 32.3505 1138.23 34.0519 Q1135.47 35.7533 1135.47 39.156 Q1135.47 41.7486 1137.46 43.2475 Q1139.44 44.7058 1145.44 46.0426 L1147.99 46.6097 Q1155.93 48.3111 1159.25 51.4303 Q1162.61 54.509 1162.61 60.0587 Q1162.61 66.3781 1157.59 70.0644 Q1152.61 73.7508 1143.86 73.7508 Q1140.21 73.7508 1136.24 73.0216 Q1132.31 72.3329 1127.94 70.9151 L1127.94 63.2184 Q1132.07 65.3654 1136.08 66.4591 Q1140.09 67.5124 1144.02 67.5124 Q1149.29 67.5124 1152.12 65.73 Q1154.96 63.9071 1154.96 60.6258 Q1154.96 57.5877 1152.89 55.9673 Q1150.87 54.3469 1143.94 52.8481 L1141.35 52.2405 Q1134.42 50.7821 1131.34 47.7845 Q1128.26 44.7463 1128.26 39.4801 Q1128.26 33.0797 1132.8 29.5959 Q1137.34 26.1121 1145.68 26.1121 Q1149.81 26.1121 1153.46 26.7198 Q1157.1 27.3274 1160.18 28.5427 Z" fill="#000000" fill-rule="nonzero" fill-opacity="1" /><path clip-path="url(#clip180)" d="M1201.18 12.096 L1209.36 12.096 L1209.36 65.6895 L1238.81 65.6895 L1238.81 72.576 L1201.18 72.576 L1201.18 12.096 Z" fill="#000000" fill-rule="nonzero" fill-opacity="1" /><path clip-path="url(#clip180)" d="M1269.52 20.1573 L1258.42 50.2555 L1280.66 50.2555 L1269.52 20.1573 M1264.9 12.096 L1274.18 12.096 L1297.23 72.576 L1288.72 72.576 L1283.21 57.061 L1255.95 57.061 L1250.44 72.576 L1241.81 72.576 L1264.9 12.096 Z" fill="#000000" fill-rule="nonzero" fill-opacity="1" /><path clip-path="url(#clip180)" d="M1306.06 12.096 L1318.25 12.096 L1333.68 53.2532 L1349.2 12.096 L1361.39 12.096 L1361.39 72.576 L1353.41 72.576 L1353.41 19.4686 L1337.82 60.9499 L1329.59 60.9499 L1314 19.4686 L1314 72.576 L1306.06 72.576 L1306.06 12.096 Z" fill="#000000" fill-rule="nonzero" fill-opacity="1" /><path clip-path="url(#clip180)" d="M1377.64 12.096 L1385.82 12.096 L1385.82 65.6895 L1415.27 65.6895 L1415.27 72.576 L1377.64 72.576 L1377.64 12.096 Z" fill="#000000" fill-rule="nonzero" fill-opacity="1" /><path clip-path="url(#clip180)" d="M1425.44 62.2867 L1433.98 62.2867 L1433.98 72.576 L1425.44 72.576 L1425.44 62.2867 M1425.44 29.6769 L1433.98 29.6769 L1433.98 39.9662 L1425.44 39.9662 L1425.44 29.6769 Z" fill="#000000" fill-rule="nonzero" fill-opacity="1" /><path clip-path="url(#clip180)" d="M1486.36 18.8205 L1486.36 65.8515 L1496.25 65.8515 Q1508.76 65.8515 1514.56 60.1802 Q1520.39 54.509 1520.39 42.2752 Q1520.39 30.1225 1514.56 24.4918 Q1508.76 18.8205 1496.25 18.8205 L1486.36 18.8205 M1478.18 12.096 L1494.99 12.096 Q1512.57 12.096 1520.79 19.4281 Q1529.02 26.7198 1529.02 42.2752 Q1529.02 57.9117 1520.75 65.2439 Q1512.49 72.576 1494.99 72.576 L1478.18 72.576 L1478.18 12.096 Z" fill="#000000" fill-rule="nonzero" fill-opacity="1" /><path clip-path="url(#clip180)" d="M1580.55 48.0275 L1580.55 51.6733 L1546.27 51.6733 Q1546.76 59.3701 1550.89 63.421 Q1555.07 67.4314 1562.48 67.4314 Q1566.77 67.4314 1570.78 66.3781 Q1574.83 65.3249 1578.8 63.2184 L1578.8 70.267 Q1574.79 71.9684 1570.58 72.8596 Q1566.37 73.7508 1562.03 73.7508 Q1551.18 73.7508 1544.82 67.4314 Q1538.5 61.1119 1538.5 50.3365 Q1538.5 39.1965 1544.49 32.6746 Q1550.53 26.1121 1560.74 26.1121 Q1569.89 26.1121 1575.2 32.0264 Q1580.55 37.9003 1580.55 48.0275 M1573.09 45.84 Q1573.01 39.7232 1569.65 36.0774 Q1566.33 32.4315 1560.82 32.4315 Q1554.58 32.4315 1550.81 35.9558 Q1547.08 39.4801 1546.52 45.8805 L1573.09 45.84 Z" fill="#000000" fill-rule="nonzero" fill-opacity="1" /><path clip-path="url(#clip180)" d="M1625.43 28.9478 L1625.43 35.9153 Q1622.27 34.1734 1619.07 33.3227 Q1615.91 32.4315 1612.67 32.4315 Q1605.42 32.4315 1601.41 37.0496 Q1597.4 41.6271 1597.4 49.9314 Q1597.4 58.2358 1601.41 62.8538 Q1605.42 67.4314 1612.67 67.4314 Q1615.91 67.4314 1619.07 66.5807 Q1622.27 65.6895 1625.43 63.9476 L1625.43 70.8341 Q1622.31 72.2924 1618.95 73.0216 Q1615.63 73.7508 1611.86 73.7508 Q1601.61 73.7508 1595.57 67.3098 Q1589.54 60.8689 1589.54 49.9314 Q1589.54 38.832 1595.61 32.472 Q1601.73 26.1121 1612.34 26.1121 Q1615.79 26.1121 1619.07 26.8413 Q1622.35 27.5299 1625.43 28.9478 Z" fill="#000000" fill-rule="nonzero" fill-opacity="1" /><path clip-path="url(#clip180)" d="M1659.01 49.7694 Q1649.98 49.7694 1646.49 51.8354 Q1643.01 53.9013 1643.01 58.8839 Q1643.01 62.8538 1645.6 65.2034 Q1648.24 67.5124 1652.73 67.5124 Q1658.93 67.5124 1662.66 63.1374 Q1666.42 58.7219 1666.42 51.4303 L1666.42 49.7694 L1659.01 49.7694 M1673.88 46.6907 L1673.88 72.576 L1666.42 72.576 L1666.42 65.6895 Q1663.87 69.8214 1660.06 71.8063 Q1656.26 73.7508 1650.75 73.7508 Q1643.78 73.7508 1639.65 69.8619 Q1635.56 65.9325 1635.56 59.3701 Q1635.56 51.7138 1640.66 47.825 Q1645.81 43.9361 1655.97 43.9361 L1666.42 43.9361 L1666.42 43.2069 Q1666.42 38.0623 1663.02 35.2672 Q1659.66 32.4315 1653.54 32.4315 Q1649.65 32.4315 1645.97 33.3632 Q1642.28 34.295 1638.88 36.1584 L1638.88 29.2718 Q1642.97 27.692 1646.82 26.9223 Q1650.67 26.1121 1654.31 26.1121 Q1664.16 26.1121 1669.02 31.2163 Q1673.88 36.3204 1673.88 46.6907 Z" fill="#000000" fill-rule="nonzero" fill-opacity="1" /><path clip-path="url(#clip180)" d="M1708.11 76.7889 Q1704.95 84.8907 1701.95 87.3618 Q1698.95 89.8329 1693.93 89.8329 L1687.98 89.8329 L1687.98 83.5945 L1692.35 83.5945 Q1695.43 83.5945 1697.13 82.1361 Q1698.83 80.6778 1700.9 75.2496 L1702.23 71.8468 L1683.88 27.2059 L1691.78 27.2059 L1705.96 62.6918 L1720.14 27.2059 L1728.04 27.2059 L1708.11 76.7889 Z" fill="#000000" fill-rule="nonzero" fill-opacity="1" /><path clip-path="url(#clip180)" d="M1793.7 44.2197 Q1796.34 45.1109 1798.81 48.0275 Q1801.32 50.9442 1803.83 56.0483 L1812.14 72.576 L1803.34 72.576 L1795.61 57.061 Q1792.61 50.9847 1789.77 48.9997 Q1786.98 47.0148 1782.12 47.0148 L1773.21 47.0148 L1773.21 72.576 L1765.02 72.576 L1765.02 12.096 L1783.5 12.096 Q1793.87 12.096 1798.97 16.4305 Q1804.07 20.7649 1804.07 29.5149 Q1804.07 35.2267 1801.4 38.994 Q1798.77 42.7613 1793.7 44.2197 M1773.21 18.8205 L1773.21 40.2903 L1783.5 40.2903 Q1789.41 40.2903 1792.41 37.5762 Q1795.45 34.8216 1795.45 29.5149 Q1795.45 24.2082 1792.41 21.5346 Q1789.41 18.8205 1783.5 18.8205 L1773.21 18.8205 Z" fill="#000000" fill-rule="nonzero" fill-opacity="1" /><path clip-path="url(#clip180)" d="M1841.14 49.7694 Q1832.11 49.7694 1828.62 51.8354 Q1825.14 53.9013 1825.14 58.8839 Q1825.14 62.8538 1827.73 65.2034 Q1830.36 67.5124 1834.86 67.5124 Q1841.06 67.5124 1844.79 63.1374 Q1848.55 58.7219 1848.55 51.4303 L1848.55 49.7694 L1841.14 49.7694 M1856.01 46.6907 L1856.01 72.576 L1848.55 72.576 L1848.55 65.6895 Q1846 69.8214 1842.19 71.8063 Q1838.39 73.7508 1832.88 73.7508 Q1825.91 73.7508 1821.78 69.8619 Q1817.69 65.9325 1817.69 59.3701 Q1817.69 51.7138 1822.79 47.825 Q1827.93 43.9361 1838.1 43.9361 L1848.55 43.9361 L1848.55 43.2069 Q1848.55 38.0623 1845.15 35.2672 Q1841.79 32.4315 1835.67 32.4315 Q1831.78 32.4315 1828.1 33.3632 Q1824.41 34.295 1821.01 36.1584 L1821.01 29.2718 Q1825.1 27.692 1828.95 26.9223 Q1832.8 26.1121 1836.44 26.1121 Q1846.28 26.1121 1851.15 31.2163 Q1856.01 36.3204 1856.01 46.6907 Z" fill="#000000" fill-rule="nonzero" fill-opacity="1" /><path clip-path="url(#clip180)" d="M1878.73 14.324 L1878.73 27.2059 L1894.09 27.2059 L1894.09 32.9987 L1878.73 32.9987 L1878.73 57.6282 Q1878.73 63.1779 1880.23 64.7578 Q1881.77 66.3376 1886.43 66.3376 L1894.09 66.3376 L1894.09 72.576 L1886.43 72.576 Q1877.8 72.576 1874.52 69.3758 Q1871.24 66.1351 1871.24 57.6282 L1871.24 32.9987 L1865.77 32.9987 L1865.77 27.2059 L1871.24 27.2059 L1871.24 14.324 L1878.73 14.324 Z" fill="#000000" fill-rule="nonzero" fill-opacity="1" /><path clip-path="url(#clip180)" d="M1942.7 48.0275 L1942.7 51.6733 L1908.43 51.6733 Q1908.91 59.3701 1913.04 63.421 Q1917.22 67.4314 1924.63 67.4314 Q1928.92 67.4314 1932.93 66.3781 Q1936.98 65.3249 1940.95 63.2184 L1940.95 70.267 Q1936.94 71.9684 1932.73 72.8596 Q1928.52 73.7508 1924.18 73.7508 Q1913.33 73.7508 1906.97 67.4314 Q1900.65 61.1119 1900.65 50.3365 Q1900.65 39.1965 1906.64 32.6746 Q1912.68 26.1121 1922.89 26.1121 Q1932.04 26.1121 1937.35 32.0264 Q1942.7 37.9003 1942.7 48.0275 M1935.24 45.84 Q1935.16 39.7232 1931.8 36.0774 Q1928.48 32.4315 1922.97 32.4315 Q1916.73 32.4315 1912.96 35.9558 Q1909.24 39.4801 1908.67 45.8805 L1935.24 45.84 Z" fill="#000000" fill-rule="nonzero" fill-opacity="1" /><polyline clip-path="url(#clip181)" style="stroke:#000000; stroke-linecap:round; stroke-linejoin:round; stroke-width:8; stroke-opacity:1; fill:none" points="250.055,1465.88 273.5,1453.61 296.946,1441.33 320.391,1429.06 343.836,1416.79 367.281,1404.52 390.726,1392.24 414.171,1379.97 437.616,1367.7 461.061,1355.43 484.507,1343.15 507.952,1330.88 531.397,1318.61 554.842,1306.34 578.287,1294.06 601.732,1281.79 625.177,1269.52 648.623,1257.25 672.068,1244.97 695.513,1232.7 718.958,1220.43 742.403,1208.15 765.848,1195.88 789.293,1183.61 812.739,1171.34 836.184,1159.06 859.629,1146.79 883.074,1134.52 906.519,1122.25 929.964,1109.97 953.409,1097.7 976.855,1085.43 1000.3,1073.16 1023.74,1060.88 1047.19,1048.61 1070.64,1036.34 1094.08,1024.07 1117.53,1011.79 1140.97,999.522 1164.42,987.249 1187.86,974.977 1211.31,962.704 1234.75,950.432 1258.2,938.159 1281.64,925.887 1305.09,913.614 1328.53,901.342 1351.98,889.069 1375.42,876.797 1398.87,864.524 1422.31,852.251 1445.76,839.979 1469.2,827.706 1492.65,815.434 1516.09,803.161 1539.54,790.889 1562.98,778.616 1586.43,766.344 1609.87,754.071 1633.32,741.799 1656.76,729.526 1680.21,717.254 1703.65,704.981 1727.1,692.709 1750.54,680.436 1773.99,668.164 1797.43,655.891 1820.88,643.618 1844.32,631.346 1867.77,619.073 1891.21,606.801 1914.66,594.528 1938.11,582.256 1961.55,569.983 1985,557.711 2008.44,545.438 2031.89,533.166 2055.33,520.893 2078.78,508.621 2102.22,496.348 2125.67,484.076 2149.11,471.803 2172.56,459.53 2196,447.258 2219.45,434.985 2242.89,422.713 2266.34,410.44 2289.78,398.168 2313.23,385.895 2336.67,373.623 2360.12,361.35 2383.56,349.078 2407.01,336.805 2430.45,324.533 2453.9,312.26 2477.34,299.988 2500.79,287.715 2524.23,275.443 2547.68,263.17 2571.12,250.897 "/>
<polyline clip-path="url(#clip181)" style="stroke:#e26f46; stroke-linecap:round; stroke-linejoin:round; stroke-width:8; stroke-opacity:1; fill:none" points="250.055,1604.03 273.5,1572.3 296.946,1540.68 320.391,1509.27 343.836,1478.2 367.281,1447.57 390.726,1417.48 414.171,1388.06 437.616,1359.41 461.061,1331.63 484.507,1304.85 507.952,1279.16 531.397,1254.69 554.842,1231.54 578.287,1209.81 601.732,1189.63 625.177,1171.09 648.623,1154.32 672.068,1139.41 695.513,1126.49 718.958,1115.65 742.403,1106.92 765.848,1100.11 789.293,1095.01 812.739,1091.41 836.184,1089.08 859.629,1087.83 883.074,1087.43 906.519,1087.67 929.964,1088.33 953.409,1089.22 976.855,1090.1 1000.3,1090.77 1023.74,1091.01 1047.19,1090.62 1070.64,1089.37 1094.08,1087.05 1117.53,1083.46 1140.97,1078.37 1164.42,1071.58 1187.86,1062.87 1211.31,1052.18 1234.75,1039.67 1258.2,1025.47 1281.64,1009.75 1305.09,992.651 1328.53,974.334 1351.98,954.951 1375.42,934.654 1398.87,913.597 1422.31,891.934 1445.76,869.818 1469.2,847.401 1492.65,824.839 1516.09,802.282 1539.54,779.887 1562.98,757.804 1586.43,736.188 1609.87,715.193 1633.32,694.971 1656.76,675.675 1680.21,657.449 1703.65,640.43 1727.1,624.754 1750.54,610.557 1773.99,597.976 1797.43,587.148 1820.88,578.209 1844.32,571.296 1867.77,566.545 1891.21,564.092 1914.66,564.074 1938.11,566.628 1961.55,571.89 1985,579.997 2008.44,591.085 2031.89,605.29 2055.33,622.749 2078.78,643.599 2102.22,667.976 2125.67,695.989 2149.11,727.543 2172.56,762.453 2196,800.532 2219.45,841.593 2242.89,885.45 2266.34,931.917 2289.78,980.807 2313.23,1031.93 2336.67,1085.11 2360.12,1140.15 2383.56,1196.87 2407.01,1255.08 2430.45,1314.6 2453.9,1375.23 2477.34,1436.8 2500.79,1499.11 2524.23,1561.98 2547.68,1625.22 2571.12,1688.65 "/>
<polyline clip-path="url(#clip181)" style="stroke:#3da44d; stroke-linecap:round; stroke-linejoin:round; stroke-width:8; stroke-opacity:1; fill:none" stroke-dasharray="32, 20" points="250.055,1480.77 273.5,1467.33 296.946,1453.89 320.391,1440.45 343.836,1427.01 367.281,1413.57 390.726,1400.14 414.171,1386.71 437.616,1373.28 461.061,1359.86 484.507,1346.44 507.952,1333.03 531.397,1319.63 554.842,1306.23 578.287,1292.84 601.732,1279.46 625.177,1266.09 648.623,1252.73 672.068,1239.38 695.513,1226.04 718.958,1212.71 742.403,1199.39 765.848,1186.08 789.293,1172.79 812.739,1159.5 836.184,1146.22 859.629,1132.96 883.074,1119.7 906.519,1106.45 929.964,1093.21 953.409,1079.98 976.855,1066.76 1000.3,1053.54 1023.74,1040.33 1047.19,1027.13 1070.64,1013.93 1094.08,1000.74 1117.53,987.549 1140.97,974.366 1164.42,961.187 1187.86,948.012 1211.31,934.841 1234.75,921.673 1258.2,908.508 1281.64,895.346 1305.09,882.188 1328.53,869.032 1351.98,855.879 1375.42,842.728 1398.87,829.58 1422.31,816.434 1445.76,803.291 1469.2,790.149 1492.65,777.009 1516.09,763.871 1539.54,750.735 1562.98,737.6 1586.43,724.466 1609.87,711.334 1633.32,698.203 1656.76,685.073 1680.21,671.943 1703.65,658.815 1727.1,645.687 1750.54,632.56 1773.99,619.433 1797.43,606.308 1820.88,593.182 1844.32,580.058 1867.77,566.934 1891.21,553.81 1914.66,540.686 1938.11,527.563 1961.55,514.44 1985,501.318 2008.44,488.196 2031.89,475.073 2055.33,461.951 2078.78,448.829 2102.22,435.707 2125.67,422.585 2149.11,409.462 2172.56,396.34 2196,383.218 2219.45,370.095 2242.89,356.973 2266.34,343.85 2289.78,330.728 2313.23,317.605 2336.67,304.482 2360.12,291.36 2383.56,278.237 2407.01,265.114 2430.45,251.991 2453.9,238.868 2477.34,225.746 2500.79,212.623 2524.23,199.5 2547.68,186.377 2571.12,173.254 "/>
<path clip-path="url(#clip180)" d="M262.434 388.696 L723.953 388.696 L723.953 181.336 L262.434 181.336  Z" fill="#ffffff" fill-rule="evenodd" fill-opacity="1"/>
<polyline clip-path="url(#clip180)" style="stroke:#000000; stroke-linecap:round; stroke-linejoin:round; stroke-width:4; stroke-opacity:1; fill:none" points="262.434,388.696 723.953,388.696 723.953,181.336 262.434,181.336 262.434,388.696 "/>
<polyline clip-path="url(#clip180)" style="stroke:#000000; stroke-linecap:round; stroke-linejoin:round; stroke-width:8; stroke-opacity:1; fill:none" points="289.771,233.176 453.794,233.176 "/>
<path clip-path="url(#clip180)" d="M481.131 215.896 L510.366 215.896 L510.366 219.831 L498.098 219.831 L498.098 250.456 L493.399 250.456 L493.399 219.831 L481.131 219.831 L481.131 215.896 Z" fill="#000000" fill-rule="nonzero" fill-opacity="1" /><path clip-path="url(#clip180)" d="M522.751 228.512 Q522.033 228.095 521.177 227.91 Q520.343 227.702 519.325 227.702 Q515.714 227.702 513.769 230.063 Q511.848 232.401 511.848 236.799 L511.848 250.456 L507.566 250.456 L507.566 224.531 L511.848 224.531 L511.848 228.558 Q513.191 226.197 515.343 225.063 Q517.496 223.906 520.575 223.906 Q521.015 223.906 521.547 223.975 Q522.079 224.021 522.728 224.137 L522.751 228.512 Z" fill="#000000" fill-rule="nonzero" fill-opacity="1" /><path clip-path="url(#clip180)" d="M526.778 240.225 L526.778 224.531 L531.038 224.531 L531.038 240.063 Q531.038 243.743 532.473 245.595 Q533.908 247.424 536.778 247.424 Q540.227 247.424 542.218 245.225 Q544.232 243.026 544.232 239.229 L544.232 224.531 L548.491 224.531 L548.491 250.456 L544.232 250.456 L544.232 246.475 Q542.681 248.836 540.621 249.993 Q538.584 251.128 535.876 251.128 Q531.408 251.128 529.093 248.35 Q526.778 245.572 526.778 240.225 M537.496 223.906 L537.496 223.906 Z" fill="#000000" fill-rule="nonzero" fill-opacity="1" /><path clip-path="url(#clip180)" d="M579.44 236.429 L579.44 238.512 L559.857 238.512 Q560.135 242.91 562.496 245.225 Q564.88 247.516 569.116 247.516 Q571.57 247.516 573.862 246.915 Q576.176 246.313 578.445 245.109 L578.445 249.137 Q576.153 250.109 573.746 250.618 Q571.338 251.128 568.862 251.128 Q562.658 251.128 559.024 247.516 Q555.413 243.905 555.413 237.748 Q555.413 231.382 558.838 227.655 Q562.288 223.906 568.121 223.906 Q573.352 223.906 576.385 227.285 Q579.44 230.642 579.44 236.429 M575.181 235.179 Q575.135 231.683 573.213 229.6 Q571.315 227.517 568.167 227.517 Q564.602 227.517 562.45 229.53 Q560.32 231.544 559.996 235.202 L575.181 235.179 Z" fill="#000000" fill-rule="nonzero" fill-opacity="1" /><path clip-path="url(#clip180)" d="M614.625 214.438 L614.625 217.98 L610.551 217.98 Q608.259 217.98 607.357 218.906 Q606.477 219.831 606.477 222.239 L606.477 224.531 L613.491 224.531 L613.491 227.841 L606.477 227.841 L606.477 250.456 L602.195 250.456 L602.195 227.841 L598.121 227.841 L598.121 224.531 L602.195 224.531 L602.195 222.725 Q602.195 218.396 604.209 216.429 Q606.222 214.438 610.597 214.438 L614.625 214.438 Z" fill="#000000" fill-rule="nonzero" fill-opacity="1" /><path clip-path="url(#clip180)" d="M628.421 214.484 Q625.32 219.808 623.815 225.017 Q622.31 230.225 622.31 235.572 Q622.31 240.919 623.815 246.174 Q625.343 251.405 628.421 256.706 L624.718 256.706 Q621.246 251.266 619.509 246.012 Q617.796 240.757 617.796 235.572 Q617.796 230.41 619.509 225.179 Q621.222 219.947 624.718 214.484 L628.421 214.484 Z" fill="#000000" fill-rule="nonzero" fill-opacity="1" /><path clip-path="url(#clip180)" d="M636.245 240.225 L636.245 224.531 L640.505 224.531 L640.505 240.063 Q640.505 243.743 641.94 245.595 Q643.375 247.424 646.245 247.424 Q649.694 247.424 651.685 245.225 Q653.699 243.026 653.699 239.229 L653.699 224.531 L657.958 224.531 L657.958 250.456 L653.699 250.456 L653.699 246.475 Q652.148 248.836 650.088 249.993 Q648.051 251.128 645.343 251.128 Q640.875 251.128 638.56 248.35 Q636.245 245.572 636.245 240.225 M646.963 223.906 L646.963 223.906 Z" fill="#000000" fill-rule="nonzero" fill-opacity="1" /><path clip-path="url(#clip180)" d="M666.06 214.484 L669.764 214.484 Q673.236 219.947 674.949 225.179 Q676.685 230.41 676.685 235.572 Q676.685 240.757 674.949 246.012 Q673.236 251.266 669.764 256.706 L666.06 256.706 Q669.139 251.405 670.643 246.174 Q672.171 240.919 672.171 235.572 Q672.171 230.225 670.643 225.017 Q669.139 219.808 666.06 214.484 Z" fill="#000000" fill-rule="nonzero" fill-opacity="1" /><polyline clip-path="url(#clip180)" style="stroke:#e26f46; stroke-linecap:round; stroke-linejoin:round; stroke-width:8; stroke-opacity:1; fill:none" points="289.771,285.016 453.794,285.016 "/>
<path clip-path="url(#clip180)" d="M496.964 272.343 L490.621 289.542 L503.329 289.542 L496.964 272.343 M494.325 267.736 L499.626 267.736 L512.797 302.296 L507.936 302.296 L504.788 293.431 L489.209 293.431 L486.061 302.296 L481.131 302.296 L494.325 267.736 Z" fill="#000000" fill-rule="nonzero" fill-opacity="1" /><path clip-path="url(#clip180)" d="M522.519 285.792 L522.519 298.454 L530.019 298.454 Q533.792 298.454 535.598 296.903 Q537.427 295.329 537.427 292.111 Q537.427 288.87 535.598 287.343 Q533.792 285.792 530.019 285.792 L522.519 285.792 M522.519 271.579 L522.519 281.995 L529.44 281.995 Q532.866 281.995 534.533 280.722 Q536.223 279.426 536.223 276.787 Q536.223 274.171 534.533 272.875 Q532.866 271.579 529.44 271.579 L522.519 271.579 M517.843 267.736 L529.788 267.736 Q535.135 267.736 538.028 269.958 Q540.922 272.181 540.922 276.278 Q540.922 279.449 539.44 281.324 Q537.959 283.199 535.089 283.662 Q538.538 284.403 540.436 286.764 Q542.357 289.102 542.357 292.62 Q542.357 297.25 539.209 299.773 Q536.061 302.296 530.251 302.296 L517.843 302.296 L517.843 267.736 Z" fill="#000000" fill-rule="nonzero" fill-opacity="1" /><path clip-path="url(#clip180)" d="M575.412 270.398 L575.412 275.329 Q573.051 273.13 570.366 272.042 Q567.704 270.954 564.695 270.954 Q558.769 270.954 555.621 274.588 Q552.473 278.199 552.473 285.051 Q552.473 291.88 555.621 295.514 Q558.769 299.125 564.695 299.125 Q567.704 299.125 570.366 298.037 Q573.051 296.949 575.412 294.75 L575.412 299.634 Q572.959 301.301 570.204 302.134 Q567.473 302.968 564.417 302.968 Q556.57 302.968 552.056 298.176 Q547.542 293.361 547.542 285.051 Q547.542 276.718 552.056 271.926 Q556.57 267.111 564.417 267.111 Q567.519 267.111 570.25 267.945 Q573.005 268.755 575.412 270.398 Z" fill="#000000" fill-rule="nonzero" fill-opacity="1" /><path clip-path="url(#clip180)" d="M580.297 287.412 L592.773 287.412 L592.773 291.208 L580.297 291.208 L580.297 287.412 Z" fill="#000000" fill-rule="nonzero" fill-opacity="1" /><path clip-path="url(#clip180)" d="M620.458 268.871 L620.458 273.431 Q617.796 272.158 615.435 271.533 Q613.074 270.908 610.875 270.908 Q607.056 270.908 604.972 272.389 Q602.912 273.871 602.912 276.602 Q602.912 278.894 604.278 280.074 Q605.667 281.232 609.509 281.949 L612.334 282.528 Q617.565 283.523 620.042 286.046 Q622.542 288.546 622.542 292.759 Q622.542 297.782 619.162 300.375 Q615.806 302.968 609.301 302.968 Q606.847 302.968 604.07 302.412 Q601.315 301.856 598.352 300.769 L598.352 295.954 Q601.199 297.551 603.931 298.361 Q606.662 299.171 609.301 299.171 Q613.306 299.171 615.482 297.597 Q617.658 296.023 617.658 293.107 Q617.658 290.56 616.084 289.125 Q614.533 287.69 610.968 286.972 L608.121 286.417 Q602.889 285.375 600.551 283.153 Q598.213 280.931 598.213 276.972 Q598.213 272.389 601.431 269.75 Q604.672 267.111 610.343 267.111 Q612.773 267.111 615.296 267.551 Q617.82 267.991 620.458 268.871 Z" fill="#000000" fill-rule="nonzero" fill-opacity="1" /><path clip-path="url(#clip180)" d="M629.833 267.736 L636.801 267.736 L645.62 291.255 L654.486 267.736 L661.454 267.736 L661.454 302.296 L656.893 302.296 L656.893 271.949 L647.981 295.653 L643.282 295.653 L634.37 271.949 L634.37 302.296 L629.833 302.296 L629.833 267.736 Z" fill="#000000" fill-rule="nonzero" fill-opacity="1" /><path clip-path="url(#clip180)" d="M696.615 270.398 L696.615 275.329 Q694.254 273.13 691.569 272.042 Q688.907 270.954 685.898 270.954 Q679.972 270.954 676.824 274.588 Q673.676 278.199 673.676 285.051 Q673.676 291.88 676.824 295.514 Q679.972 299.125 685.898 299.125 Q688.907 299.125 691.569 298.037 Q694.254 296.949 696.615 294.75 L696.615 299.634 Q694.162 301.301 691.407 302.134 Q688.676 302.968 685.62 302.968 Q677.773 302.968 673.259 298.176 Q668.745 293.361 668.745 285.051 Q668.745 276.718 673.259 271.926 Q677.773 267.111 685.62 267.111 Q688.722 267.111 691.453 267.945 Q694.208 268.755 696.615 270.398 Z" fill="#000000" fill-rule="nonzero" fill-opacity="1" /><polyline clip-path="url(#clip180)" style="stroke:#3da44d; stroke-linecap:round; stroke-linejoin:round; stroke-width:8; stroke-opacity:1; fill:none" stroke-dasharray="32, 20" points="289.771,336.856 453.794,336.856 "/>
<path clip-path="url(#clip180)" d="M481.131 319.576 L485.806 319.576 L485.806 350.201 L502.635 350.201 L502.635 354.136 L481.131 354.136 L481.131 319.576 Z" fill="#000000" fill-rule="nonzero" fill-opacity="1" /><path clip-path="url(#clip180)" d="M520.181 324.183 L513.839 341.382 L526.547 341.382 L520.181 324.183 M517.542 319.576 L522.843 319.576 L536.014 354.136 L531.153 354.136 L528.005 345.271 L512.427 345.271 L509.279 354.136 L504.348 354.136 L517.542 319.576 Z" fill="#000000" fill-rule="nonzero" fill-opacity="1" /><path clip-path="url(#clip180)" d="M541.061 319.576 L548.028 319.576 L556.848 343.095 L565.713 319.576 L572.681 319.576 L572.681 354.136 L568.121 354.136 L568.121 323.789 L559.209 347.493 L554.51 347.493 L545.598 323.789 L545.598 354.136 L541.061 354.136 L541.061 319.576 Z" fill="#000000" fill-rule="nonzero" fill-opacity="1" /><path clip-path="url(#clip180)" d="M581.963 319.576 L586.639 319.576 L586.639 350.201 L603.468 350.201 L603.468 354.136 L581.963 354.136 L581.963 319.576 Z" fill="#000000" fill-rule="nonzero" fill-opacity="1" /></svg>
