<?xml version="1.0" encoding="utf-8"?>
<svg xmlns="http://www.w3.org/2000/svg" xmlns:xlink="http://www.w3.org/1999/xlink" width="672" height="480" viewBox="0 0 2688 1920">
<defs>
  <clipPath id="clip240">
    <rect x="0" y="0" width="2688" height="1920"/>
  </clipPath>
</defs>
<path clip-path="url(#clip240)" d="M0 1920 L2688 1920 L2688 -4.26326e-14 L0 -4.26326e-14  Z" fill="#ffffff" fill-rule="evenodd" fill-opacity="1"/>
<defs>
  <clipPath id="clip241">
    <rect x="181" y="127" width="2460" height="1607"/>
  </clipPath>
</defs>
<path clip-path="url(#clip240)" d="M181.719 1734.12 L2640.76 1734.12 L2640.76 127.792 L181.719 127.792  Z" fill="#ffffff" fill-rule="evenodd" fill-opacity="1"/>
<polyline clip-path="url(#clip241)" style="stroke:#000000; stroke-linecap:round; stroke-linejoin:round; stroke-width:2; stroke-opacity:0.1; fill:none" points="541.296,1734.12 541.296,127.792 "/>
<polyline clip-path="url(#clip241)" style="stroke:#000000; stroke-linecap:round; stroke-linejoin:round; stroke-width:2; stroke-opacity:0.1; fill:none" points="1121.26,1734.12 1121.26,127.792 "/>
<polyline clip-path="url(#clip241)" style="stroke:#000000; stroke-linecap:round; stroke-linejoin:round; stroke-width:2; stroke-opacity:0.1; fill:none" points="1701.22,1734.12 1701.22,127.792 "/>
<polyline clip-path="url(#clip241)" style="stroke:#000000; stroke-linecap:round; stroke-linejoin:round; stroke-width:2; stroke-opacity:0.1; fill:none" points="2281.18,1734.12 2281.18,127.792 "/>
<polyline clip-path="url(#clip241)" style="stroke:#000000; stroke-linecap:round; stroke-linejoin:round; stroke-width:2; stroke-opacity:0.1; fill:none" points="181.719,1454.76 2640.76,1454.76 "/>
<polyline clip-path="url(#clip241)" style="stroke:#000000; stroke-linecap:round; stroke-linejoin:round; stroke-width:2; stroke-opacity:0.1; fill:none" points="181.719,1112.5 2640.76,1112.5 "/>
<polyline clip-path="url(#clip241)" style="stroke:#000000; stroke-linecap:round; stroke-linejoin:round; stroke-width:2; stroke-opacity:0.1; fill:none" points="181.719,770.243 2640.76,770.243 "/>
<polyline clip-path="url(#clip241)" style="stroke:#000000; stroke-linecap:round; stroke-linejoin:round; stroke-width:2; stroke-opacity:0.1; fill:none" points="181.719,427.983 2640.76,427.983 "/>
<polyline clip-path="url(#clip240)" style="stroke:#000000; stroke-linecap:round; stroke-linejoin:round; stroke-width:4; stroke-opacity:1; fill:none" points="181.719,1734.12 2640.76,1734.12 "/>
<polyline clip-path="url(#clip240)" style="stroke:#000000; stroke-linecap:round; stroke-linejoin:round; stroke-width:4; stroke-opacity:1; fill:none" points="541.296,1734.12 541.296,1715.22 "/>
<polyline clip-path="url(#clip240)" style="stroke:#000000; stroke-linecap:round; stroke-linejoin:round; stroke-width:4; stroke-opacity:1; fill:none" points="1121.26,1734.12 1121.26,1715.22 "/>
<polyline clip-path="url(#clip240)" style="stroke:#000000; stroke-linecap:round; stroke-linejoin:round; stroke-width:4; stroke-opacity:1; fill:none" points="1701.22,1734.12 1701.22,1715.22 "/>
<polyline clip-path="url(#clip240)" style="stroke:#000000; stroke-linecap:round; stroke-linejoin:round; stroke-width:4; stroke-opacity:1; fill:none" points="2281.18,1734.12 2281.18,1715.22 "/>
<path clip-path="url(#clip240)" d="M535.948 1794.89 L552.268 1794.89 L552.268 1798.82 L530.323 1798.82 L530.323 1794.89 Q532.985 1792.13 537.569 1787.5 Q542.175 1782.85 543.356 1781.51 Q545.601 1778.98 546.481 1777.25 Q547.384 1775.49 547.384 1773.8 Q547.384 1771.04 545.439 1769.31 Q543.518 1767.57 540.416 1767.57 Q538.217 1767.57 535.763 1768.34 Q533.333 1769.1 530.555 1770.65 L530.555 1765.93 Q533.379 1764.79 535.833 1764.21 Q538.286 1763.64 540.323 1763.64 Q545.694 1763.64 548.888 1766.32 Q552.083 1769.01 552.083 1773.5 Q552.083 1775.63 551.272 1777.55 Q550.485 1779.45 548.379 1782.04 Q547.8 1782.71 544.698 1785.93 Q541.596 1789.12 535.948 1794.89 Z" fill="#000000" fill-rule="nonzero" fill-opacity="1" /><path clip-path="url(#clip240)" d="M1124.27 1768.34 L1112.46 1786.78 L1124.27 1786.78 L1124.27 1768.34 M1123.04 1764.26 L1128.92 1764.26 L1128.92 1786.78 L1133.85 1786.78 L1133.85 1790.67 L1128.92 1790.67 L1128.92 1798.82 L1124.27 1798.82 L1124.27 1790.67 L1108.66 1790.67 L1108.66 1786.16 L1123.04 1764.26 Z" fill="#000000" fill-rule="nonzero" fill-opacity="1" /><path clip-path="url(#clip240)" d="M1701.62 1779.68 Q1698.48 1779.68 1696.62 1781.83 Q1694.79 1783.98 1694.79 1787.73 Q1694.79 1791.46 1696.62 1793.64 Q1698.48 1795.79 1701.62 1795.79 Q1704.77 1795.79 1706.6 1793.64 Q1708.45 1791.46 1708.45 1787.73 Q1708.45 1783.98 1706.6 1781.83 Q1704.77 1779.68 1701.62 1779.68 M1710.91 1765.02 L1710.91 1769.28 Q1709.15 1768.45 1707.34 1768.01 Q1705.56 1767.57 1703.8 1767.57 Q1699.17 1767.57 1696.72 1770.7 Q1694.29 1773.82 1693.94 1780.14 Q1695.3 1778.13 1697.36 1777.06 Q1699.42 1775.97 1701.9 1775.97 Q1707.11 1775.97 1710.12 1779.15 Q1713.15 1782.29 1713.15 1787.73 Q1713.15 1793.06 1710 1796.27 Q1706.85 1799.49 1701.62 1799.49 Q1695.63 1799.49 1692.46 1794.91 Q1689.29 1790.3 1689.29 1781.58 Q1689.29 1773.38 1693.17 1768.52 Q1697.06 1763.64 1703.61 1763.64 Q1705.37 1763.64 1707.16 1763.98 Q1708.96 1764.33 1710.91 1765.02 Z" fill="#000000" fill-rule="nonzero" fill-opacity="1" /><path clip-path="url(#clip240)" d="M2281.18 1782.41 Q2277.85 1782.41 2275.93 1784.19 Q2274.03 1785.97 2274.03 1789.1 Q2274.03 1792.22 2275.93 1794.01 Q2277.85 1795.79 2281.18 1795.79 Q2284.51 1795.79 2286.43 1794.01 Q2288.36 1792.2 2288.36 1789.1 Q2288.36 1785.97 2286.43 1784.19 Q2284.54 1782.41 2281.18 1782.41 M2276.5 1780.42 Q2273.49 1779.68 2271.8 1777.62 Q2270.14 1775.56 2270.14 1772.59 Q2270.14 1768.45 2273.08 1766.04 Q2276.04 1763.64 2281.18 1763.64 Q2286.34 1763.64 2289.28 1766.04 Q2292.22 1768.45 2292.22 1772.59 Q2292.22 1775.56 2290.53 1777.62 Q2288.86 1779.68 2285.88 1780.42 Q2289.26 1781.21 2291.13 1783.5 Q2293.03 1785.79 2293.03 1789.1 Q2293.03 1794.12 2289.95 1796.81 Q2286.9 1799.49 2281.18 1799.49 Q2275.46 1799.49 2272.38 1796.81 Q2269.33 1794.12 2269.33 1789.1 Q2269.33 1785.79 2271.23 1783.5 Q2273.12 1781.21 2276.5 1780.42 M2274.79 1773.03 Q2274.79 1775.72 2276.46 1777.22 Q2278.15 1778.73 2281.18 1778.73 Q2284.19 1778.73 2285.88 1777.22 Q2287.59 1775.72 2287.59 1773.03 Q2287.59 1770.35 2285.88 1768.84 Q2284.19 1767.34 2281.18 1767.34 Q2278.15 1767.34 2276.46 1768.84 Q2274.79 1770.35 2274.79 1773.03 Z" fill="#000000" fill-rule="nonzero" fill-opacity="1" /><path clip-path="url(#clip240)" d="M1269.16 1876.52 L1269.16 1863.76 L1258.65 1863.76 L1258.65 1858.47 L1275.52 1858.47 L1275.52 1878.88 Q1271.8 1881.52 1267.31 1882.89 Q1262.82 1884.22 1257.73 1884.22 Q1246.59 1884.22 1240.29 1877.73 Q1234.02 1871.21 1234.02 1859.59 Q1234.02 1847.94 1240.29 1841.45 Q1246.59 1834.92 1257.73 1834.92 Q1262.38 1834.92 1266.55 1836.07 Q1270.75 1837.21 1274.28 1839.44 L1274.28 1846.28 Q1270.71 1843.26 1266.7 1841.73 Q1262.69 1840.21 1258.27 1840.21 Q1249.55 1840.21 1245.16 1845.07 Q1240.8 1849.94 1240.8 1859.59 Q1240.8 1869.2 1245.16 1874.07 Q1249.55 1878.94 1258.27 1878.94 Q1261.68 1878.94 1264.35 1878.37 Q1267.02 1877.76 1269.16 1876.52 Z" fill="#000000" fill-rule="nonzero" fill-opacity="1" /><path clip-path="url(#clip240)" d="M1317.5 1864.01 L1317.5 1866.88 L1290.58 1866.88 Q1290.96 1872.92 1294.2 1876.11 Q1297.48 1879.26 1303.31 1879.26 Q1306.68 1879.26 1309.83 1878.43 Q1313.01 1877.6 1316.13 1875.95 L1316.13 1881.49 Q1312.98 1882.82 1309.67 1883.52 Q1306.36 1884.22 1302.96 1884.22 Q1294.43 1884.22 1289.43 1879.26 Q1284.46 1874.29 1284.46 1865.83 Q1284.46 1857.07 1289.18 1851.95 Q1293.92 1846.79 1301.94 1846.79 Q1309.13 1846.79 1313.3 1851.44 Q1317.5 1856.06 1317.5 1864.01 M1311.65 1862.29 Q1311.58 1857.49 1308.94 1854.62 Q1306.33 1851.76 1302 1851.76 Q1297.1 1851.76 1294.14 1854.53 Q1291.21 1857.3 1290.77 1862.33 L1311.65 1862.29 Z" fill="#000000" fill-rule="nonzero" fill-opacity="1" /><path clip-path="url(#clip240)" d="M1356.75 1861.78 L1356.75 1883.3 L1350.89 1883.3 L1350.89 1861.98 Q1350.89 1856.92 1348.92 1854.4 Q1346.94 1851.89 1343 1851.89 Q1338.25 1851.89 1335.52 1854.91 Q1332.78 1857.93 1332.78 1863.15 L1332.78 1883.3 L1326.89 1883.3 L1326.89 1847.65 L1332.78 1847.65 L1332.78 1853.19 Q1334.88 1849.98 1337.71 1848.39 Q1340.58 1846.79 1344.3 1846.79 Q1350.45 1846.79 1353.6 1850.61 Q1356.75 1854.4 1356.75 1861.78 Z" fill="#000000" fill-rule="nonzero" fill-opacity="1" /><path clip-path="url(#clip240)" d="M1398.92 1864.01 L1398.92 1866.88 L1371.99 1866.88 Q1372.38 1872.92 1375.62 1876.11 Q1378.9 1879.26 1384.72 1879.26 Q1388.1 1879.26 1391.25 1878.43 Q1394.43 1877.6 1397.55 1875.95 L1397.55 1881.49 Q1394.4 1882.82 1391.09 1883.52 Q1387.78 1884.22 1384.37 1884.22 Q1375.84 1884.22 1370.85 1879.26 Q1365.88 1874.29 1365.88 1865.83 Q1365.88 1857.07 1370.59 1851.95 Q1375.34 1846.79 1383.36 1846.79 Q1390.55 1846.79 1394.72 1851.44 Q1398.92 1856.06 1398.92 1864.01 M1393.06 1862.29 Q1393 1857.49 1390.36 1854.62 Q1387.75 1851.76 1383.42 1851.76 Q1378.52 1851.76 1375.56 1854.53 Q1372.63 1857.3 1372.18 1862.33 L1393.06 1862.29 Z" fill="#000000" fill-rule="nonzero" fill-opacity="1" /><path clip-path="url(#clip240)" d="M1429.19 1853.13 Q1428.2 1852.55 1427.02 1852.3 Q1425.88 1852.01 1424.48 1852.01 Q1419.51 1852.01 1416.84 1855.26 Q1414.2 1858.47 1414.2 1864.52 L1414.2 1883.3 L1408.31 1883.3 L1408.31 1847.65 L1414.2 1847.65 L1414.2 1853.19 Q1416.04 1849.94 1419 1848.39 Q1421.96 1846.79 1426.2 1846.79 Q1426.8 1846.79 1427.53 1846.89 Q1428.27 1846.95 1429.16 1847.11 L1429.19 1853.13 Z" fill="#000000" fill-rule="nonzero" fill-opacity="1" /><path clip-path="url(#clip240)" d="M1451.53 1865.38 Q1444.43 1865.38 1441.7 1867 Q1438.96 1868.63 1438.96 1872.54 Q1438.96 1875.66 1441 1877.51 Q1443.07 1879.32 1446.6 1879.32 Q1451.47 1879.32 1454.4 1875.88 Q1457.36 1872.42 1457.36 1866.69 L1457.36 1865.38 L1451.53 1865.38 M1463.21 1862.96 L1463.21 1883.3 L1457.36 1883.3 L1457.36 1877.89 Q1455.35 1881.14 1452.36 1882.7 Q1449.37 1884.22 1445.04 1884.22 Q1439.57 1884.22 1436.32 1881.17 Q1433.1 1878.08 1433.1 1872.92 Q1433.1 1866.91 1437.11 1863.85 Q1441.16 1860.8 1449.15 1860.8 L1457.36 1860.8 L1457.36 1860.23 Q1457.36 1856.18 1454.68 1853.99 Q1452.04 1851.76 1447.24 1851.76 Q1444.18 1851.76 1441.28 1852.49 Q1438.39 1853.22 1435.71 1854.69 L1435.71 1849.28 Q1438.93 1848.03 1441.95 1847.43 Q1444.98 1846.79 1447.84 1846.79 Q1455.57 1846.79 1459.39 1850.8 Q1463.21 1854.81 1463.21 1862.96 Z" fill="#000000" fill-rule="nonzero" fill-opacity="1" /><path clip-path="url(#clip240)" d="M1481.07 1837.53 L1481.07 1847.65 L1493.13 1847.65 L1493.13 1852.2 L1481.07 1852.2 L1481.07 1871.56 Q1481.07 1875.92 1482.25 1877.16 Q1483.46 1878.4 1487.12 1878.4 L1493.13 1878.4 L1493.13 1883.3 L1487.12 1883.3 Q1480.34 1883.3 1477.76 1880.79 Q1475.18 1878.24 1475.18 1871.56 L1475.18 1852.2 L1470.88 1852.2 L1470.88 1847.65 L1475.18 1847.65 L1475.18 1837.53 L1481.07 1837.53 Z" fill="#000000" fill-rule="nonzero" fill-opacity="1" /><path clip-path="url(#clip240)" d="M1500.84 1847.65 L1506.69 1847.65 L1506.69 1883.3 L1500.84 1883.3 L1500.84 1847.65 M1500.84 1833.78 L1506.69 1833.78 L1506.69 1841.19 L1500.84 1841.19 L1500.84 1833.78 Z" fill="#000000" fill-rule="nonzero" fill-opacity="1" /><path clip-path="url(#clip240)" d="M1532.76 1851.76 Q1528.05 1851.76 1525.31 1855.45 Q1522.57 1859.11 1522.57 1865.51 Q1522.57 1871.91 1525.28 1875.6 Q1528.02 1879.26 1532.76 1879.26 Q1537.44 1879.26 1540.18 1875.57 Q1542.91 1871.87 1542.91 1865.51 Q1542.91 1859.17 1540.18 1855.48 Q1537.44 1851.76 1532.76 1851.76 M1532.76 1846.79 Q1540.4 1846.79 1544.76 1851.76 Q1549.12 1856.72 1549.12 1865.51 Q1549.12 1874.26 1544.76 1879.26 Q1540.4 1884.22 1532.76 1884.22 Q1525.09 1884.22 1520.73 1879.26 Q1516.4 1874.26 1516.4 1865.51 Q1516.4 1856.72 1520.73 1851.76 Q1525.09 1846.79 1532.76 1846.79 Z" fill="#000000" fill-rule="nonzero" fill-opacity="1" /><path clip-path="url(#clip240)" d="M1588.46 1861.78 L1588.46 1883.3 L1582.6 1883.3 L1582.6 1861.98 Q1582.6 1856.92 1580.63 1854.4 Q1578.66 1851.89 1574.71 1851.89 Q1569.97 1851.89 1567.23 1854.91 Q1564.49 1857.93 1564.49 1863.15 L1564.49 1883.3 L1558.6 1883.3 L1558.6 1847.65 L1564.49 1847.65 L1564.49 1853.19 Q1566.59 1849.98 1569.43 1848.39 Q1572.29 1846.79 1576.01 1846.79 Q1582.16 1846.79 1585.31 1850.61 Q1588.46 1854.4 1588.46 1861.78 Z" fill="#000000" fill-rule="nonzero" fill-opacity="1" /><polyline clip-path="url(#clip240)" style="stroke:#000000; stroke-linecap:round; stroke-linejoin:round; stroke-width:4; stroke-opacity:1; fill:none" points="181.719,1734.12 181.719,127.792 "/>
<polyline clip-path="url(#clip240)" style="stroke:#000000; stroke-linecap:round; stroke-linejoin:round; stroke-width:4; stroke-opacity:1; fill:none" points="181.719,1454.76 200.617,1454.76 "/>
<polyline clip-path="url(#clip240)" style="stroke:#000000; stroke-linecap:round; stroke-linejoin:round; stroke-width:4; stroke-opacity:1; fill:none" points="181.719,1112.5 200.617,1112.5 "/>
<polyline clip-path="url(#clip240)" style="stroke:#000000; stroke-linecap:round; stroke-linejoin:round; stroke-width:4; stroke-opacity:1; fill:none" points="181.719,770.243 200.617,770.243 "/>
<polyline clip-path="url(#clip240)" style="stroke:#000000; stroke-linecap:round; stroke-linejoin:round; stroke-width:4; stroke-opacity:1; fill:none" points="181.719,427.983 200.617,427.983 "/>
<path clip-path="url(#clip240)" d="M121.492 1468.11 L129.131 1468.11 L129.131 1441.74 L120.821 1443.41 L120.821 1439.15 L129.085 1437.48 L133.761 1437.48 L133.761 1468.11 L141.399 1468.11 L141.399 1472.04 L121.492 1472.04 L121.492 1468.11 Z" fill="#000000" fill-rule="nonzero" fill-opacity="1" /><path clip-path="url(#clip240)" d="M125.08 1125.85 L141.399 1125.85 L141.399 1129.78 L119.455 1129.78 L119.455 1125.85 Q122.117 1123.09 126.7 1118.46 Q131.307 1113.81 132.488 1112.47 Q134.733 1109.94 135.612 1108.21 Q136.515 1106.45 136.515 1104.76 Q136.515 1102 134.571 1100.27 Q132.65 1098.53 129.548 1098.53 Q127.349 1098.53 124.895 1099.3 Q122.464 1100.06 119.687 1101.61 L119.687 1096.89 Q122.511 1095.75 124.964 1095.18 Q127.418 1094.6 129.455 1094.6 Q134.825 1094.6 138.02 1097.28 Q141.214 1099.97 141.214 1104.46 Q141.214 1106.59 140.404 1108.51 Q139.617 1110.41 137.511 1113 Q136.932 1113.67 133.83 1116.89 Q130.728 1120.08 125.08 1125.85 Z" fill="#000000" fill-rule="nonzero" fill-opacity="1" /><path clip-path="url(#clip240)" d="M134.27 768.889 Q137.626 769.606 139.501 771.875 Q141.399 774.143 141.399 777.477 Q141.399 782.593 137.881 785.393 Q134.362 788.194 127.881 788.194 Q125.705 788.194 123.39 787.755 Q121.099 787.338 118.645 786.481 L118.645 781.968 Q120.589 783.102 122.904 783.68 Q125.219 784.259 127.742 784.259 Q132.14 784.259 134.432 782.523 Q136.747 780.787 136.747 777.477 Q136.747 774.421 134.594 772.708 Q132.464 770.972 128.645 770.972 L124.617 770.972 L124.617 767.13 L128.83 767.13 Q132.279 767.13 134.108 765.764 Q135.937 764.375 135.937 761.782 Q135.937 759.12 134.038 757.708 Q132.163 756.273 128.645 756.273 Q126.724 756.273 124.525 756.69 Q122.326 757.107 119.687 757.986 L119.687 753.82 Q122.349 753.079 124.663 752.708 Q127.001 752.338 129.062 752.338 Q134.386 752.338 137.487 754.769 Q140.589 757.176 140.589 761.296 Q140.589 764.167 138.946 766.157 Q137.302 768.125 134.27 768.889 Z" fill="#000000" fill-rule="nonzero" fill-opacity="1" /><path clip-path="url(#clip240)" d="M131.816 414.778 L120.011 433.227 L131.816 433.227 L131.816 414.778 M130.589 410.703 L136.469 410.703 L136.469 433.227 L141.399 433.227 L141.399 437.115 L136.469 437.115 L136.469 445.263 L131.816 445.263 L131.816 437.115 L116.214 437.115 L116.214 432.602 L130.589 410.703 Z" fill="#000000" fill-rule="nonzero" fill-opacity="1" /><path clip-path="url(#clip240)" d="M14.1184 1084.73 L14.1184 1044.53 L19.5293 1044.53 L19.5293 1061.4 L61.6384 1061.4 L61.6384 1067.86 L19.5293 1067.86 L19.5293 1084.73 L14.1184 1084.73 Z" fill="#000000" fill-rule="nonzero" fill-opacity="1" /><path clip-path="url(#clip240)" d="M30.0964 1035.85 Q30.0964 1040.56 33.7885 1043.29 Q37.4488 1046.03 43.8463 1046.03 Q50.2438 1046.03 53.9359 1043.33 Q57.5962 1040.59 57.5962 1035.85 Q57.5962 1031.17 53.9041 1028.43 Q50.212 1025.69 43.8463 1025.69 Q37.5124 1025.69 33.8203 1028.43 Q30.0964 1031.17 30.0964 1035.85 M25.1311 1035.85 Q25.1311 1028.21 30.0964 1023.85 Q35.0616 1019.49 43.8463 1019.49 Q52.5991 1019.49 57.5962 1023.85 Q62.5615 1028.21 62.5615 1035.85 Q62.5615 1043.52 57.5962 1047.88 Q52.5991 1052.21 43.8463 1052.21 Q35.0616 1052.21 30.0964 1047.88 Q25.1311 1043.52 25.1311 1035.85 Z" fill="#000000" fill-rule="nonzero" fill-opacity="1" /><path clip-path="url(#clip240)" d="M12.1132 1009.78 L12.1132 1003.92 L61.6384 1003.92 L61.6384 1009.78 L12.1132 1009.78 Z" fill="#000000" fill-rule="nonzero" fill-opacity="1" /><path clip-path="url(#clip240)" d="M42.3504 961.176 L45.2149 961.176 L45.2149 988.103 Q51.2623 987.721 54.4452 984.474 Q57.5962 981.196 57.5962 975.371 Q57.5962 971.997 56.7687 968.846 Q55.9411 965.664 54.2861 962.544 L59.8242 962.544 Q61.161 965.695 61.8612 969.006 Q62.5615 972.316 62.5615 975.721 Q62.5615 984.251 57.5962 989.249 Q52.631 994.214 44.1646 994.214 Q35.4117 994.214 30.2873 989.503 Q25.1311 984.761 25.1311 976.74 Q25.1311 969.547 29.7781 965.377 Q34.3932 961.176 42.3504 961.176 M40.6316 967.032 Q35.8255 967.096 32.9609 969.738 Q30.0964 972.348 30.0964 976.676 Q30.0964 981.578 32.8654 984.538 Q35.6345 987.466 40.6634 987.912 L40.6316 967.032 Z" fill="#000000" fill-rule="nonzero" fill-opacity="1" /><path clip-path="url(#clip240)" d="M31.465 930.907 Q30.8921 931.893 30.6375 933.071 Q30.351 934.217 30.351 935.617 Q30.351 940.583 33.5975 943.256 Q36.8122 945.898 42.8596 945.898 L61.6384 945.898 L61.6384 951.786 L25.9905 951.786 L25.9905 945.898 L31.5287 945.898 Q28.2821 944.052 26.7225 941.092 Q25.1311 938.132 25.1311 933.899 Q25.1311 933.294 25.2266 932.562 Q25.2903 931.83 25.4494 930.939 L31.465 930.907 Z" fill="#000000" fill-rule="nonzero" fill-opacity="1" /><path clip-path="url(#clip240)" d="M43.719 908.563 Q43.719 915.661 45.3422 918.398 Q46.9655 921.135 50.8804 921.135 Q53.9996 921.135 55.8457 919.098 Q57.6599 917.03 57.6599 913.497 Q57.6599 908.627 54.2224 905.699 Q50.7531 902.739 45.0239 902.739 L43.719 902.739 L43.719 908.563 M41.3 896.882 L61.6384 896.882 L61.6384 902.739 L56.2276 902.739 Q59.4741 904.744 61.0337 907.736 Q62.5615 910.728 62.5615 915.056 Q62.5615 920.531 59.5059 923.777 Q56.4186 926.992 51.2623 926.992 Q45.2467 926.992 42.1912 922.982 Q39.1357 918.939 39.1357 910.95 L39.1357 902.739 L38.5628 902.739 Q34.5205 902.739 32.3244 905.412 Q30.0964 908.054 30.0964 912.86 Q30.0964 915.916 30.8284 918.812 Q31.5605 921.708 33.0246 924.382 L27.6137 924.382 Q26.3724 921.167 25.7677 918.144 Q25.1311 915.12 25.1311 912.255 Q25.1311 904.521 29.1415 900.702 Q33.1519 896.882 41.3 896.882 Z" fill="#000000" fill-rule="nonzero" fill-opacity="1" /><path clip-path="url(#clip240)" d="M40.1224 855.187 L61.6384 855.187 L61.6384 861.043 L40.3133 861.043 Q35.2526 861.043 32.7381 863.017 Q30.2237 864.99 30.2237 868.937 Q30.2237 873.679 33.2474 876.416 Q36.2711 879.154 41.491 879.154 L61.6384 879.154 L61.6384 885.042 L25.9905 885.042 L25.9905 879.154 L31.5287 879.154 Q28.314 877.053 26.7225 874.22 Q25.1311 871.356 25.1311 867.632 Q25.1311 861.489 28.9505 858.338 Q32.7381 855.187 40.1224 855.187 Z" fill="#000000" fill-rule="nonzero" fill-opacity="1" /><path clip-path="url(#clip240)" d="M27.3591 817.852 L32.8336 817.852 Q31.465 820.334 30.7966 822.849 Q30.0964 825.332 30.0964 827.878 Q30.0964 833.575 33.7248 836.726 Q37.3214 839.877 43.8463 839.877 Q50.3711 839.877 53.9996 836.726 Q57.5962 833.575 57.5962 827.878 Q57.5962 825.332 56.9278 822.849 Q56.2276 820.334 54.859 817.852 L60.2698 817.852 Q61.4156 820.303 61.9886 822.944 Q62.5615 825.554 62.5615 828.514 Q62.5615 836.567 57.5007 841.309 Q52.44 846.052 43.8463 846.052 Q35.1253 846.052 30.1282 841.278 Q25.1311 836.472 25.1311 828.132 Q25.1311 825.427 25.704 822.849 Q26.2451 820.271 27.3591 817.852 Z" fill="#000000" fill-rule="nonzero" fill-opacity="1" /><path clip-path="url(#clip240)" d="M42.3504 777.175 L45.2149 777.175 L45.2149 804.102 Q51.2623 803.72 54.4452 800.473 Q57.5962 797.195 57.5962 791.371 Q57.5962 787.997 56.7687 784.846 Q55.9411 781.663 54.2861 778.544 L59.8242 778.544 Q61.161 781.695 61.8612 785.005 Q62.5615 788.315 62.5615 791.721 Q62.5615 800.251 57.5962 805.248 Q52.631 810.213 44.1646 810.213 Q35.4117 810.213 30.2873 805.502 Q25.1311 800.76 25.1311 792.739 Q25.1311 785.546 29.7781 781.376 Q34.3932 777.175 42.3504 777.175 M40.6316 783.031 Q35.8255 783.095 32.9609 785.737 Q30.0964 788.347 30.0964 792.675 Q30.0964 797.577 32.8654 800.537 Q35.6345 803.465 40.6634 803.911 L40.6316 783.031 Z" fill="#000000" fill-rule="nonzero" fill-opacity="1" /><path clip-path="url(#clip240)" d="M941.616 20.1573 L930.517 50.2555 L952.756 50.2555 L941.616 20.1573 M936.998 12.096 L946.275 12.096 L969.325 72.576 L960.818 72.576 L955.308 57.061 L928.046 57.061 L922.537 72.576 L913.908 72.576 L936.998 12.096 Z" fill="#000000" fill-rule="nonzero" fill-opacity="1" /><path clip-path="url(#clip240)" d="M986.338 43.6931 L986.338 65.8515 L999.463 65.8515 Q1006.07 65.8515 1009.23 63.1374 Q1012.43 60.3828 1012.43 54.752 Q1012.43 49.0808 1009.23 46.4072 Q1006.07 43.6931 999.463 43.6931 L986.338 43.6931 M986.338 18.8205 L986.338 37.0496 L998.451 37.0496 Q1004.45 37.0496 1007.36 34.8216 Q1010.32 32.5531 1010.32 27.935 Q1010.32 23.3575 1007.36 21.089 Q1004.45 18.8205 998.451 18.8205 L986.338 18.8205 M978.156 12.096 L999.058 12.096 Q1008.42 12.096 1013.48 15.9849 Q1018.54 19.8737 1018.54 27.0438 Q1018.54 32.5936 1015.95 35.8748 Q1013.36 39.156 1008.33 39.9662 Q1014.37 41.2625 1017.69 45.3944 Q1021.05 49.4858 1021.05 55.6432 Q1021.05 63.745 1015.55 68.1605 Q1010.04 72.576 999.868 72.576 L978.156 72.576 L978.156 12.096 Z" fill="#000000" fill-rule="nonzero" fill-opacity="1" /><path clip-path="url(#clip240)" d="M1078.9 16.7545 L1078.9 25.383 Q1074.77 21.5346 1070.07 19.6307 Q1065.41 17.7268 1060.15 17.7268 Q1049.78 17.7268 1044.27 24.0867 Q1038.76 30.4061 1038.76 42.3968 Q1038.76 54.3469 1044.27 60.7069 Q1049.78 67.0263 1060.15 67.0263 Q1065.41 67.0263 1070.07 65.1223 Q1074.77 63.2184 1078.9 59.3701 L1078.9 67.9175 Q1074.61 70.8341 1069.79 72.2924 Q1065.01 73.7508 1059.66 73.7508 Q1045.93 73.7508 1038.03 65.3654 Q1030.13 56.9395 1030.13 42.3968 Q1030.13 27.8135 1038.03 19.4281 Q1045.93 11.0023 1059.66 11.0023 Q1065.09 11.0023 1069.87 12.4606 Q1074.69 13.8784 1078.9 16.7545 Z" fill="#000000" fill-rule="nonzero" fill-opacity="1" /><path clip-path="url(#clip240)" d="M1109.53 12.096 L1160.69 12.096 L1160.69 18.9825 L1139.22 18.9825 L1139.22 72.576 L1131 72.576 L1131 18.9825 L1109.53 18.9825 L1109.53 12.096 Z" fill="#000000" fill-rule="nonzero" fill-opacity="1" /><path clip-path="url(#clip240)" d="M1171.75 32.4315 Q1165.75 32.4315 1162.27 37.1306 Q1158.79 41.7891 1158.79 49.9314 Q1158.79 58.0738 1162.23 62.7728 Q1165.71 67.4314 1171.75 67.4314 Q1177.7 67.4314 1181.19 62.7323 Q1184.67 58.0333 1184.67 49.9314 Q1184.67 41.8701 1181.19 37.1711 Q1177.7 32.4315 1171.75 32.4315 M1171.75 26.1121 Q1181.47 26.1121 1187.02 32.4315 Q1192.57 38.7509 1192.57 49.9314 Q1192.57 61.0714 1187.02 67.4314 Q1181.47 73.7508 1171.75 73.7508 Q1161.99 73.7508 1156.44 67.4314 Q1150.93 61.0714 1150.93 49.9314 Q1150.93 38.7509 1156.44 32.4315 Q1161.99 26.1121 1171.75 26.1121 Z" fill="#000000" fill-rule="nonzero" fill-opacity="1" /><path clip-path="url(#clip240)" d="M1204.93 9.54393 L1212.38 9.54393 L1212.38 72.576 L1204.93 72.576 L1204.93 9.54393 Z" fill="#000000" fill-rule="nonzero" fill-opacity="1" /><path clip-path="url(#clip240)" d="M1266.78 48.0275 L1266.78 51.6733 L1232.51 51.6733 Q1233 59.3701 1237.13 63.421 Q1241.3 67.4314 1248.72 67.4314 Q1253.01 67.4314 1257.02 66.3781 Q1261.07 65.3249 1265.04 63.2184 L1265.04 70.267 Q1261.03 71.9684 1256.82 72.8596 Q1252.6 73.7508 1248.27 73.7508 Q1237.41 73.7508 1231.05 67.4314 Q1224.73 61.1119 1224.73 50.3365 Q1224.73 39.1965 1230.73 32.6746 Q1236.77 26.1121 1246.97 26.1121 Q1256.13 26.1121 1261.44 32.0264 Q1266.78 37.9003 1266.78 48.0275 M1259.33 45.84 Q1259.25 39.7232 1255.89 36.0774 Q1252.56 32.4315 1247.05 32.4315 Q1240.82 32.4315 1237.05 35.9558 Q1233.32 39.4801 1232.75 45.8805 L1259.33 45.84 Z" fill="#000000" fill-rule="nonzero" fill-opacity="1" /><path clip-path="url(#clip240)" d="M1305.31 34.1734 Q1304.05 33.4443 1302.55 33.1202 Q1301.09 32.7556 1299.31 32.7556 Q1292.99 32.7556 1289.59 36.8875 Q1286.23 40.9789 1286.23 48.6757 L1286.23 72.576 L1278.73 72.576 L1278.73 27.2059 L1286.23 27.2059 L1286.23 34.2544 Q1288.58 30.1225 1292.34 28.1376 Q1296.11 26.1121 1301.5 26.1121 Q1302.27 26.1121 1303.2 26.2337 Q1304.13 26.3147 1305.27 26.5172 L1305.31 34.1734 Z" fill="#000000" fill-rule="nonzero" fill-opacity="1" /><path clip-path="url(#clip240)" d="M1333.74 49.7694 Q1324.71 49.7694 1321.23 51.8354 Q1317.74 53.9013 1317.74 58.8839 Q1317.74 62.8538 1320.34 65.2034 Q1322.97 67.5124 1327.47 67.5124 Q1333.66 67.5124 1337.39 63.1374 Q1341.16 58.7219 1341.16 51.4303 L1341.16 49.7694 L1333.74 49.7694 M1348.61 46.6907 L1348.61 72.576 L1341.16 72.576 L1341.16 65.6895 Q1338.6 69.8214 1334.8 71.8063 Q1330.99 73.7508 1325.48 73.7508 Q1318.51 73.7508 1314.38 69.8619 Q1310.29 65.9325 1310.29 59.3701 Q1310.29 51.7138 1315.39 47.825 Q1320.54 43.9361 1330.71 43.9361 L1341.16 43.9361 L1341.16 43.2069 Q1341.16 38.0623 1337.75 35.2672 Q1334.39 32.4315 1328.28 32.4315 Q1324.39 32.4315 1320.7 33.3632 Q1317.01 34.295 1313.61 36.1584 L1313.61 29.2718 Q1317.7 27.692 1321.55 26.9223 Q1325.4 26.1121 1329.04 26.1121 Q1338.89 26.1121 1343.75 31.2163 Q1348.61 36.3204 1348.61 46.6907 Z" fill="#000000" fill-rule="nonzero" fill-opacity="1" /><path clip-path="url(#clip240)" d="M1401.68 45.1919 L1401.68 72.576 L1394.22 72.576 L1394.22 45.4349 Q1394.22 38.994 1391.71 35.7938 Q1389.2 32.5936 1384.18 32.5936 Q1378.14 32.5936 1374.66 36.4419 Q1371.17 40.2903 1371.17 46.9338 L1371.17 72.576 L1363.68 72.576 L1363.68 27.2059 L1371.17 27.2059 L1371.17 34.2544 Q1373.85 30.163 1377.45 28.1376 Q1381.1 26.1121 1385.84 26.1121 Q1393.66 26.1121 1397.67 30.9732 Q1401.68 35.7938 1401.68 45.1919 Z" fill="#000000" fill-rule="nonzero" fill-opacity="1" /><path clip-path="url(#clip240)" d="M1449.19 28.9478 L1449.19 35.9153 Q1446.03 34.1734 1442.83 33.3227 Q1439.68 32.4315 1436.43 32.4315 Q1429.18 32.4315 1425.17 37.0496 Q1421.16 41.6271 1421.16 49.9314 Q1421.16 58.2358 1425.17 62.8538 Q1429.18 67.4314 1436.43 67.4314 Q1439.68 67.4314 1442.83 66.5807 Q1446.03 65.6895 1449.19 63.9476 L1449.19 70.8341 Q1446.08 72.2924 1442.71 73.0216 Q1439.39 73.7508 1435.62 73.7508 Q1425.38 73.7508 1419.34 67.3098 Q1413.3 60.8689 1413.3 49.9314 Q1413.3 38.832 1419.38 32.472 Q1425.5 26.1121 1436.11 26.1121 Q1439.55 26.1121 1442.83 26.8413 Q1446.12 27.5299 1449.19 28.9478 Z" fill="#000000" fill-rule="nonzero" fill-opacity="1" /><path clip-path="url(#clip240)" d="M1500.97 48.0275 L1500.97 51.6733 L1466.69 51.6733 Q1467.18 59.3701 1471.31 63.421 Q1475.49 67.4314 1482.9 67.4314 Q1487.19 67.4314 1491.2 66.3781 Q1495.25 65.3249 1499.22 63.2184 L1499.22 70.267 Q1495.21 71.9684 1491 72.8596 Q1486.79 73.7508 1482.45 73.7508 Q1471.6 73.7508 1465.24 67.4314 Q1458.92 61.1119 1458.92 50.3365 Q1458.92 39.1965 1464.91 32.6746 Q1470.95 26.1121 1481.16 26.1121 Q1490.31 26.1121 1495.62 32.0264 Q1500.97 37.9003 1500.97 48.0275 M1493.51 45.84 Q1493.43 39.7232 1490.07 36.0774 Q1486.75 32.4315 1481.24 32.4315 Q1475 32.4315 1471.23 35.9558 Q1467.5 39.4801 1466.94 45.8805 L1493.51 45.84 Z" fill="#000000" fill-rule="nonzero" fill-opacity="1" /><path clip-path="url(#clip240)" d="M1576.15 14.0809 L1576.15 22.0612 Q1571.49 19.8332 1567.36 18.7395 Q1563.23 17.6457 1559.38 17.6457 Q1552.7 17.6457 1549.05 20.2383 Q1545.44 22.8309 1545.44 27.611 Q1545.44 31.6214 1547.83 33.6873 Q1550.26 35.7128 1556.99 36.9686 L1561.93 37.9813 Q1571.09 39.7232 1575.42 44.1387 Q1579.8 48.5136 1579.8 55.8863 Q1579.8 64.6767 1573.88 69.2137 Q1568.01 73.7508 1556.62 73.7508 Q1552.33 73.7508 1547.47 72.7785 Q1542.65 71.8063 1537.46 69.9024 L1537.46 61.4765 Q1542.45 64.2716 1547.23 65.6895 Q1552.01 67.1073 1556.62 67.1073 Q1563.63 67.1073 1567.44 64.3527 Q1571.25 61.598 1571.25 56.4939 Q1571.25 52.0379 1568.49 49.5264 Q1565.78 47.0148 1559.54 45.759 L1554.56 44.7868 Q1545.4 42.9639 1541.31 39.075 Q1537.22 35.1862 1537.22 28.2591 Q1537.22 20.2383 1542.85 15.6203 Q1548.52 11.0023 1558.45 11.0023 Q1562.7 11.0023 1567.12 11.7719 Q1571.53 12.5416 1576.15 14.0809 Z" fill="#000000" fill-rule="nonzero" fill-opacity="1" /><path clip-path="url(#clip240)" d="M1624.88 28.9478 L1624.88 35.9153 Q1621.72 34.1734 1618.52 33.3227 Q1615.36 32.4315 1612.12 32.4315 Q1604.87 32.4315 1600.86 37.0496 Q1596.85 41.6271 1596.85 49.9314 Q1596.85 58.2358 1600.86 62.8538 Q1604.87 67.4314 1612.12 67.4314 Q1615.36 67.4314 1618.52 66.5807 Q1621.72 65.6895 1624.88 63.9476 L1624.88 70.8341 Q1621.76 72.2924 1618.4 73.0216 Q1615.08 73.7508 1611.31 73.7508 Q1601.06 73.7508 1595.03 67.3098 Q1588.99 60.8689 1588.99 49.9314 Q1588.99 38.832 1595.07 32.472 Q1601.18 26.1121 1611.8 26.1121 Q1615.24 26.1121 1618.52 26.8413 Q1621.8 27.5299 1624.88 28.9478 Z" fill="#000000" fill-rule="nonzero" fill-opacity="1" /><path clip-path="url(#clip240)" d="M1675.56 45.1919 L1675.56 72.576 L1668.11 72.576 L1668.11 45.4349 Q1668.11 38.994 1665.59 35.7938 Q1663.08 32.5936 1658.06 32.5936 Q1652.02 32.5936 1648.54 36.4419 Q1645.06 40.2903 1645.06 46.9338 L1645.06 72.576 L1637.56 72.576 L1637.56 9.54393 L1645.06 9.54393 L1645.06 34.2544 Q1647.73 30.163 1651.33 28.1376 Q1654.98 26.1121 1659.72 26.1121 Q1667.54 26.1121 1671.55 30.9732 Q1675.56 35.7938 1675.56 45.1919 Z" fill="#000000" fill-rule="nonzero" fill-opacity="1" /><path clip-path="url(#clip240)" d="M1729.23 48.0275 L1729.23 51.6733 L1694.96 51.6733 Q1695.45 59.3701 1699.58 63.421 Q1703.75 67.4314 1711.17 67.4314 Q1715.46 67.4314 1719.47 66.3781 Q1723.52 65.3249 1727.49 63.2184 L1727.49 70.267 Q1723.48 71.9684 1719.27 72.8596 Q1715.06 73.7508 1710.72 73.7508 Q1699.86 73.7508 1693.5 67.4314 Q1687.19 61.1119 1687.19 50.3365 Q1687.19 39.1965 1693.18 32.6746 Q1699.22 26.1121 1709.42 26.1121 Q1718.58 26.1121 1723.89 32.0264 Q1729.23 37.9003 1729.23 48.0275 M1721.78 45.84 Q1721.7 39.7232 1718.34 36.0774 Q1715.02 32.4315 1709.51 32.4315 Q1703.27 32.4315 1699.5 35.9558 Q1695.77 39.4801 1695.21 45.8805 L1721.78 45.84 Z" fill="#000000" fill-rule="nonzero" fill-opacity="1" /><path clip-path="url(#clip240)" d="M1771.32 34.0924 L1771.32 9.54393 L1778.78 9.54393 L1778.78 72.576 L1771.32 72.576 L1771.32 65.7705 Q1768.97 69.8214 1765.37 71.8063 Q1761.8 73.7508 1756.78 73.7508 Q1748.56 73.7508 1743.37 67.1883 Q1738.23 60.6258 1738.23 49.9314 Q1738.23 39.2371 1743.37 32.6746 Q1748.56 26.1121 1756.78 26.1121 Q1761.8 26.1121 1765.37 28.0971 Q1768.97 30.0415 1771.32 34.0924 M1745.92 49.9314 Q1745.92 58.1548 1749.29 62.8538 Q1752.69 67.5124 1758.6 67.5124 Q1764.52 67.5124 1767.92 62.8538 Q1771.32 58.1548 1771.32 49.9314 Q1771.32 41.7081 1767.92 37.0496 Q1764.52 32.3505 1758.6 32.3505 Q1752.69 32.3505 1749.29 37.0496 Q1745.92 41.7081 1745.92 49.9314 Z" fill="#000000" fill-rule="nonzero" fill-opacity="1" /><path clip-path="url(#clip240)" d="M1793.36 54.671 L1793.36 27.2059 L1800.81 27.2059 L1800.81 54.3874 Q1800.81 60.8284 1803.32 64.0691 Q1805.84 67.2693 1810.86 67.2693 Q1816.9 67.2693 1820.38 63.421 Q1823.9 59.5726 1823.9 52.9291 L1823.9 27.2059 L1831.36 27.2059 L1831.36 72.576 L1823.9 72.576 L1823.9 65.6084 Q1821.19 69.7404 1817.58 71.7658 Q1814.02 73.7508 1809.28 73.7508 Q1801.46 73.7508 1797.41 68.8897 Q1793.36 64.0286 1793.36 54.671 M1812.12 26.1121 L1812.12 26.1121 Z" fill="#000000" fill-rule="nonzero" fill-opacity="1" /><path clip-path="url(#clip240)" d="M1846.71 9.54393 L1854.16 9.54393 L1854.16 72.576 L1846.71 72.576 L1846.71 9.54393 Z" fill="#000000" fill-rule="nonzero" fill-opacity="1" /><path clip-path="url(#clip240)" d="M1908.57 48.0275 L1908.57 51.6733 L1874.3 51.6733 Q1874.78 59.3701 1878.91 63.421 Q1883.09 67.4314 1890.5 67.4314 Q1894.79 67.4314 1898.8 66.3781 Q1902.86 65.3249 1906.83 63.2184 L1906.83 70.267 Q1902.81 71.9684 1898.6 72.8596 Q1894.39 73.7508 1890.05 73.7508 Q1879.2 73.7508 1872.84 67.4314 Q1866.52 61.1119 1866.52 50.3365 Q1866.52 39.1965 1872.51 32.6746 Q1878.55 26.1121 1888.76 26.1121 Q1897.91 26.1121 1903.22 32.0264 Q1908.57 37.9003 1908.57 48.0275 M1901.11 45.84 Q1901.03 39.7232 1897.67 36.0774 Q1894.35 32.4315 1888.84 32.4315 Q1882.6 32.4315 1878.83 35.9558 Q1875.11 39.4801 1874.54 45.8805 L1901.11 45.84 Z" fill="#000000" fill-rule="nonzero" fill-opacity="1" /><polyline clip-path="url(#clip241)" style="stroke:#009af9; stroke-linecap:round; stroke-linejoin:round; stroke-width:8; stroke-opacity:1; fill:none" points="251.315,173.254 541.296,654.316 831.276,968.966 1121.26,1215.8 1411.24,1374.36 1701.22,1502.13 1991.2,1602.15 2281.18,1660.19 2571.16,1688.65 "/>
<circle clip-path="url(#clip241)" cx="251.315" cy="173.254" r="14.4" fill="#009af9" fill-rule="evenodd" fill-opacity="1" stroke="#000000" stroke-opacity="1" stroke-width="3.84"/>
<circle clip-path="url(#clip241)" cx="541.296" cy="654.316" r="14.4" fill="#009af9" fill-rule="evenodd" fill-opacity="1" stroke="#000000" stroke-opacity="1" stroke-width="3.84"/>
<circle clip-path="url(#clip241)" cx="831.276" cy="968.966" r="14.4" fill="#009af9" fill-rule="evenodd" fill-opacity="1" stroke="#000000" stroke-opacity="1" stroke-width="3.84"/>
<circle clip-path="url(#clip241)" cx="1121.26" cy="1215.8" r="14.4" fill="#009af9" fill-rule="evenodd" fill-opacity="1" stroke="#000000" stroke-opacity="1" stroke-width="3.84"/>
<circle clip-path="url(#clip241)" cx="1411.24" cy="1374.36" r="14.4" fill="#009af9" fill-rule="evenodd" fill-opacity="1" stroke="#000000" stroke-opacity="1" stroke-width="3.84"/>
<circle clip-path="url(#clip241)" cx="1701.22" cy="1502.13" r="14.4" fill="#009af9" fill-rule="evenodd" fill-opacity="1" stroke="#000000" stroke-opacity="1" stroke-width="3.84"/>
<circle clip-path="url(#clip241)" cx="1991.2" cy="1602.15" r="14.4" fill="#009af9" fill-rule="evenodd" fill-opacity="1" stroke="#000000" stroke-opacity="1" stroke-width="3.84"/>
<circle clip-path="url(#clip241)" cx="2281.18" cy="1660.19" r="14.4" fill="#009af9" fill-rule="evenodd" fill-opacity="1" stroke="#000000" stroke-opacity="1" stroke-width="3.84"/>
<circle clip-path="url(#clip241)" cx="2571.16" cy="1688.65" r="14.4" fill="#009af9" fill-rule="evenodd" fill-opacity="1" stroke="#000000" stroke-opacity="1" stroke-width="3.84"/>
<path clip-path="url(#clip240)" d="M2293.56 285.016 L2558.79 285.016 L2558.79 181.336 L2293.56 181.336  Z" fill="#ffffff" fill-rule="evenodd" fill-opacity="1"/>
<polyline clip-path="url(#clip240)" style="stroke:#000000; stroke-linecap:round; stroke-linejoin:round; stroke-width:4; stroke-opacity:1; fill:none" points="2293.56,285.016 2558.79,285.016 2558.79,181.336 2293.56,181.336 2293.56,285.016 "/>
<polyline clip-path="url(#clip240)" style="stroke:#009af9; stroke-linecap:round; stroke-linejoin:round; stroke-width:8; stroke-opacity:1; fill:none" points="2320.88,233.176 2484.81,233.176 "/>
<circle clip-path="url(#clip240)" cx="2402.85" cy="233.176" r="20.48" fill="#009af9" fill-rule="evenodd" fill-opacity="1" stroke="#000000" stroke-opacity="1" stroke-width="5.46133"/>
<path clip-path="url(#clip240)" d="M2518.2 236.475 Q2515.61 235.919 2514.22 234.415 Q2512.83 232.933 2512.83 230.78 Q2512.83 227.517 2515.47 225.688 Q2518.09 223.882 2522.62 223.882 Q2524.38 223.882 2526.35 224.16 Q2528.32 224.438 2530.59 224.993 L2530.59 228.859 Q2528.34 228.188 2526.49 227.887 Q2524.61 227.586 2522.97 227.586 Q2520.22 227.586 2518.62 228.651 Q2517 229.716 2517 231.197 Q2517 232.817 2518.57 233.859 Q2520.12 234.878 2522.81 234.878 L2526.4 234.878 L2526.4 238.396 L2522.97 238.396 Q2519.8 238.396 2518.13 239.577 Q2516.33 240.873 2516.33 242.91 Q2516.33 244.993 2518.27 246.29 Q2520.24 247.586 2523.73 247.586 Q2525.89 247.586 2527.85 247.169 Q2529.82 246.729 2531.47 245.873 L2531.47 249.831 Q2529.38 250.479 2527.44 250.804 Q2525.47 251.128 2523.62 251.128 Q2518.11 251.128 2515.12 249.021 Q2512.14 246.915 2512.14 242.91 Q2512.14 240.41 2513.73 238.72 Q2515.33 237.03 2518.2 236.475 Z" fill="#000000" fill-rule="nonzero" fill-opacity="1" /></svg>
