<?xml version="1.0" encoding="utf-8"?>
<svg xmlns="http://www.w3.org/2000/svg" xmlns:xlink="http://www.w3.org/1999/xlink" width="672" height="480" viewBox="0 0 2688 1920">
<defs>
  <clipPath id="clip710">
    <rect x="0" y="0" width="2688" height="1920"/>
  </clipPath>
</defs>
<path clip-path="url(#clip710)" d="M0 1920 L2688 1920 L2688 -4.26326e-14 L0 -4.26326e-14  Z" fill="#ffffff" fill-rule="evenodd" fill-opacity="1"/>
<defs>
  <clipPath id="clip711">
    <rect x="181" y="127" width="2460" height="1607"/>
  </clipPath>
</defs>
<path clip-path="url(#clip710)" d="M181.719 1734.12 L2640.76 1734.12 L2640.76 127.792 L181.719 127.792  Z" fill="#ffffff" fill-rule="evenodd" fill-opacity="1"/>
<polyline clip-path="url(#clip711)" style="stroke:#000000; stroke-linecap:round; stroke-linejoin:round; stroke-width:2; stroke-opacity:0.1; fill:none" points="251.315,1734.12 251.315,127.792 "/>
<polyline clip-path="url(#clip711)" style="stroke:#000000; stroke-linecap:round; stroke-linejoin:round; stroke-width:2; stroke-opacity:0.1; fill:none" points="831.276,1734.12 831.276,127.792 "/>
<polyline clip-path="url(#clip711)" style="stroke:#000000; stroke-linecap:round; stroke-linejoin:round; stroke-width:2; stroke-opacity:0.1; fill:none" points="1411.24,1734.12 1411.24,127.792 "/>
<polyline clip-path="url(#clip711)" style="stroke:#000000; stroke-linecap:round; stroke-linejoin:round; stroke-width:2; stroke-opacity:0.1; fill:none" points="1991.2,1734.12 1991.2,127.792 "/>
<polyline clip-path="url(#clip711)" style="stroke:#000000; stroke-linecap:round; stroke-linejoin:round; stroke-width:2; stroke-opacity:0.1; fill:none" points="2571.16,1734.12 2571.16,127.792 "/>
<polyline clip-path="url(#clip711)" style="stroke:#000000; stroke-linecap:round; stroke-linejoin:round; stroke-width:2; stroke-opacity:0.1; fill:none" points="181.719,1674.83 2640.76,1674.83 "/>
<polyline clip-path="url(#clip711)" style="stroke:#000000; stroke-linecap:round; stroke-linejoin:round; stroke-width:2; stroke-opacity:0.1; fill:none" points="181.719,1379.18 2640.76,1379.18 "/>
<polyline clip-path="url(#clip711)" style="stroke:#000000; stroke-linecap:round; stroke-linejoin:round; stroke-width:2; stroke-opacity:0.1; fill:none" points="181.719,1083.52 2640.76,1083.52 "/>
<polyline clip-path="url(#clip711)" style="stroke:#000000; stroke-linecap:round; stroke-linejoin:round; stroke-width:2; stroke-opacity:0.1; fill:none" points="181.719,787.871 2640.76,787.871 "/>
<polyline clip-path="url(#clip711)" style="stroke:#000000; stroke-linecap:round; stroke-linejoin:round; stroke-width:2; stroke-opacity:0.1; fill:none" points="181.719,492.216 2640.76,492.216 "/>
<polyline clip-path="url(#clip711)" style="stroke:#000000; stroke-linecap:round; stroke-linejoin:round; stroke-width:2; stroke-opacity:0.1; fill:none" points="181.719,196.562 2640.76,196.562 "/>
<polyline clip-path="url(#clip710)" style="stroke:#000000; stroke-linecap:round; stroke-linejoin:round; stroke-width:4; stroke-opacity:1; fill:none" points="181.719,1734.12 2640.76,1734.12 "/>
<polyline clip-path="url(#clip710)" style="stroke:#000000; stroke-linecap:round; stroke-linejoin:round; stroke-width:4; stroke-opacity:1; fill:none" points="251.315,1734.12 251.315,1715.22 "/>
<polyline clip-path="url(#clip710)" style="stroke:#000000; stroke-linecap:round; stroke-linejoin:round; stroke-width:4; stroke-opacity:1; fill:none" points="831.276,1734.12 831.276,1715.22 "/>
<polyline clip-path="url(#clip710)" style="stroke:#000000; stroke-linecap:round; stroke-linejoin:round; stroke-width:4; stroke-opacity:1; fill:none" points="1411.24,1734.12 1411.24,1715.22 "/>
<polyline clip-path="url(#clip710)" style="stroke:#000000; stroke-linecap:round; stroke-linejoin:round; stroke-width:4; stroke-opacity:1; fill:none" points="1991.2,1734.12 1991.2,1715.22 "/>
<polyline clip-path="url(#clip710)" style="stroke:#000000; stroke-linecap:round; stroke-linejoin:round; stroke-width:4; stroke-opacity:1; fill:none" points="2571.16,1734.12 2571.16,1715.22 "/>
<path clip-path="url(#clip710)" d="M228.699 1767.34 Q225.088 1767.34 223.259 1770.9 Q221.454 1774.45 221.454 1781.58 Q221.454 1788.68 223.259 1792.25 Q225.088 1795.79 228.699 1795.79 Q232.333 1795.79 234.139 1792.25 Q235.968 1788.68 235.968 1781.58 Q235.968 1774.45 234.139 1770.9 Q232.333 1767.34 228.699 1767.34 M228.699 1763.64 Q234.509 1763.64 237.565 1768.24 Q240.644 1772.83 240.644 1781.58 Q240.644 1790.3 237.565 1794.91 Q234.509 1799.49 228.699 1799.49 Q222.889 1799.49 219.81 1794.91 Q216.755 1790.3 216.755 1781.58 Q216.755 1772.83 219.81 1768.24 Q222.889 1763.64 228.699 1763.64 Z" fill="#000000" fill-rule="nonzero" fill-opacity="1" /><path clip-path="url(#clip710)" d="M248.861 1792.94 L253.745 1792.94 L253.745 1798.82 L248.861 1798.82 L248.861 1792.94 Z" fill="#000000" fill-rule="nonzero" fill-opacity="1" /><path clip-path="url(#clip710)" d="M273.93 1767.34 Q270.319 1767.34 268.491 1770.9 Q266.685 1774.45 266.685 1781.58 Q266.685 1788.68 268.491 1792.25 Q270.319 1795.79 273.93 1795.79 Q277.565 1795.79 279.37 1792.25 Q281.199 1788.68 281.199 1781.58 Q281.199 1774.45 279.37 1770.9 Q277.565 1767.34 273.93 1767.34 M273.93 1763.64 Q279.741 1763.64 282.796 1768.24 Q285.875 1772.83 285.875 1781.58 Q285.875 1790.3 282.796 1794.91 Q279.741 1799.49 273.93 1799.49 Q268.12 1799.49 265.042 1794.91 Q261.986 1790.3 261.986 1781.58 Q261.986 1772.83 265.042 1768.24 Q268.12 1763.64 273.93 1763.64 Z" fill="#000000" fill-rule="nonzero" fill-opacity="1" /><path clip-path="url(#clip710)" d="M803.013 1794.89 L819.332 1794.89 L819.332 1798.82 L797.388 1798.82 L797.388 1794.89 Q800.05 1792.13 804.633 1787.5 Q809.239 1782.85 810.42 1781.51 Q812.665 1778.98 813.545 1777.25 Q814.448 1775.49 814.448 1773.8 Q814.448 1771.04 812.503 1769.31 Q810.582 1767.57 807.48 1767.57 Q805.281 1767.57 802.827 1768.34 Q800.397 1769.1 797.619 1770.65 L797.619 1765.93 Q800.443 1764.79 802.897 1764.21 Q805.35 1763.64 807.388 1763.64 Q812.758 1763.64 815.952 1766.32 Q819.147 1769.01 819.147 1773.5 Q819.147 1775.63 818.337 1777.55 Q817.55 1779.45 815.443 1782.04 Q814.864 1782.71 811.762 1785.93 Q808.661 1789.12 803.013 1794.89 Z" fill="#000000" fill-rule="nonzero" fill-opacity="1" /><path clip-path="url(#clip710)" d="M829.147 1792.94 L834.031 1792.94 L834.031 1798.82 L829.147 1798.82 L829.147 1792.94 Z" fill="#000000" fill-rule="nonzero" fill-opacity="1" /><path clip-path="url(#clip710)" d="M844.262 1764.26 L862.619 1764.26 L862.619 1768.2 L848.545 1768.2 L848.545 1776.67 Q849.563 1776.32 850.582 1776.16 Q851.6 1775.97 852.619 1775.97 Q858.406 1775.97 861.785 1779.15 Q865.165 1782.32 865.165 1787.73 Q865.165 1793.31 861.693 1796.41 Q858.221 1799.49 851.901 1799.49 Q849.725 1799.49 847.457 1799.12 Q845.211 1798.75 842.804 1798.01 L842.804 1793.31 Q844.887 1794.45 847.11 1795 Q849.332 1795.56 851.809 1795.56 Q855.813 1795.56 858.151 1793.45 Q860.489 1791.34 860.489 1787.73 Q860.489 1784.12 858.151 1782.02 Q855.813 1779.91 851.809 1779.91 Q849.934 1779.91 848.059 1780.33 Q846.207 1780.74 844.262 1781.62 L844.262 1764.26 Z" fill="#000000" fill-rule="nonzero" fill-opacity="1" /><path clip-path="url(#clip710)" d="M1378.4 1764.26 L1396.76 1764.26 L1396.76 1768.2 L1382.68 1768.2 L1382.68 1776.67 Q1383.7 1776.32 1384.72 1776.16 Q1385.74 1775.97 1386.76 1775.97 Q1392.55 1775.97 1395.93 1779.15 Q1399.3 1782.32 1399.3 1787.73 Q1399.3 1793.31 1395.83 1796.41 Q1392.36 1799.49 1386.04 1799.49 Q1383.87 1799.49 1381.6 1799.12 Q1379.35 1798.75 1376.94 1798.01 L1376.94 1793.31 Q1379.03 1794.45 1381.25 1795 Q1383.47 1795.56 1385.95 1795.56 Q1389.95 1795.56 1392.29 1793.45 Q1394.63 1791.34 1394.63 1787.73 Q1394.63 1784.12 1392.29 1782.02 Q1389.95 1779.91 1385.95 1779.91 Q1384.07 1779.91 1382.2 1780.33 Q1380.35 1780.74 1378.4 1781.62 L1378.4 1764.26 Z" fill="#000000" fill-rule="nonzero" fill-opacity="1" /><path clip-path="url(#clip710)" d="M1408.52 1792.94 L1413.4 1792.94 L1413.4 1798.82 L1408.52 1798.82 L1408.52 1792.94 Z" fill="#000000" fill-rule="nonzero" fill-opacity="1" /><path clip-path="url(#clip710)" d="M1433.59 1767.34 Q1429.98 1767.34 1428.15 1770.9 Q1426.34 1774.45 1426.34 1781.58 Q1426.34 1788.68 1428.15 1792.25 Q1429.98 1795.79 1433.59 1795.79 Q1437.22 1795.79 1439.03 1792.25 Q1440.86 1788.68 1440.86 1781.58 Q1440.86 1774.45 1439.03 1770.9 Q1437.22 1767.34 1433.59 1767.34 M1433.59 1763.64 Q1439.4 1763.64 1442.45 1768.24 Q1445.53 1772.83 1445.53 1781.58 Q1445.53 1790.3 1442.45 1794.91 Q1439.4 1799.49 1433.59 1799.49 Q1427.78 1799.49 1424.7 1794.91 Q1421.64 1790.3 1421.64 1781.58 Q1421.64 1772.83 1424.7 1768.24 Q1427.78 1763.64 1433.59 1763.64 Z" fill="#000000" fill-rule="nonzero" fill-opacity="1" /><path clip-path="url(#clip710)" d="M1957.52 1764.26 L1979.74 1764.26 L1979.74 1766.25 L1967.19 1798.82 L1962.31 1798.82 L1974.12 1768.2 L1957.52 1768.2 L1957.52 1764.26 Z" fill="#000000" fill-rule="nonzero" fill-opacity="1" /><path clip-path="url(#clip710)" d="M1988.86 1792.94 L1993.75 1792.94 L1993.75 1798.82 L1988.86 1798.82 L1988.86 1792.94 Z" fill="#000000" fill-rule="nonzero" fill-opacity="1" /><path clip-path="url(#clip710)" d="M2003.98 1764.26 L2022.33 1764.26 L2022.33 1768.2 L2008.26 1768.2 L2008.26 1776.67 Q2009.28 1776.32 2010.3 1776.16 Q2011.31 1775.97 2012.33 1775.97 Q2018.12 1775.97 2021.5 1779.15 Q2024.88 1782.32 2024.88 1787.73 Q2024.88 1793.31 2021.41 1796.41 Q2017.94 1799.49 2011.62 1799.49 Q2009.44 1799.49 2007.17 1799.12 Q2004.93 1798.75 2002.52 1798.01 L2002.52 1793.31 Q2004.6 1794.45 2006.82 1795 Q2009.05 1795.56 2011.52 1795.56 Q2015.53 1795.56 2017.87 1793.45 Q2020.2 1791.34 2020.2 1787.73 Q2020.2 1784.12 2017.87 1782.02 Q2015.53 1779.91 2011.52 1779.91 Q2009.65 1779.91 2007.77 1780.33 Q2005.92 1780.74 2003.98 1781.62 L2003.98 1764.26 Z" fill="#000000" fill-rule="nonzero" fill-opacity="1" /><path clip-path="url(#clip710)" d="M2523.23 1794.89 L2530.87 1794.89 L2530.87 1768.52 L2522.56 1770.19 L2522.56 1765.93 L2530.83 1764.26 L2535.5 1764.26 L2535.5 1794.89 L2543.14 1794.89 L2543.14 1798.82 L2523.23 1798.82 L2523.23 1794.89 Z" fill="#000000" fill-rule="nonzero" fill-opacity="1" /><path clip-path="url(#clip710)" d="M2562.58 1767.34 Q2558.97 1767.34 2557.14 1770.9 Q2555.34 1774.45 2555.34 1781.58 Q2555.34 1788.68 2557.14 1792.25 Q2558.97 1795.79 2562.58 1795.79 Q2566.22 1795.79 2568.02 1792.25 Q2569.85 1788.68 2569.85 1781.58 Q2569.85 1774.45 2568.02 1770.9 Q2566.22 1767.34 2562.58 1767.34 M2562.58 1763.64 Q2568.39 1763.64 2571.45 1768.24 Q2574.53 1772.83 2574.53 1781.58 Q2574.53 1790.3 2571.45 1794.91 Q2568.39 1799.49 2562.58 1799.49 Q2556.77 1799.49 2553.7 1794.91 Q2550.64 1790.3 2550.64 1781.58 Q2550.64 1772.83 2553.7 1768.24 Q2556.77 1763.64 2562.58 1763.64 Z" fill="#000000" fill-rule="nonzero" fill-opacity="1" /><path clip-path="url(#clip710)" d="M2582.75 1792.94 L2587.63 1792.94 L2587.63 1798.82 L2582.75 1798.82 L2582.75 1792.94 Z" fill="#000000" fill-rule="nonzero" fill-opacity="1" /><path clip-path="url(#clip710)" d="M2607.82 1767.34 Q2604.2 1767.34 2602.38 1770.9 Q2600.57 1774.45 2600.57 1781.58 Q2600.57 1788.68 2602.38 1792.25 Q2604.2 1795.79 2607.82 1795.79 Q2611.45 1795.79 2613.26 1792.25 Q2615.08 1788.68 2615.08 1781.58 Q2615.08 1774.45 2613.26 1770.9 Q2611.45 1767.34 2607.82 1767.34 M2607.82 1763.64 Q2613.63 1763.64 2616.68 1768.24 Q2619.76 1772.83 2619.76 1781.58 Q2619.76 1790.3 2616.68 1794.91 Q2613.63 1799.49 2607.82 1799.49 Q2602.01 1799.49 2598.93 1794.91 Q2595.87 1790.3 2595.87 1781.58 Q2595.87 1772.83 2598.93 1768.24 Q2602.01 1763.64 2607.82 1763.64 Z" fill="#000000" fill-rule="nonzero" fill-opacity="1" /><path clip-path="url(#clip710)" d="M1333.11 1835.78 L1373.31 1835.78 L1373.31 1841.19 L1356.44 1841.19 L1356.44 1883.3 L1349.98 1883.3 L1349.98 1841.19 L1333.11 1841.19 L1333.11 1835.78 Z" fill="#000000" fill-rule="nonzero" fill-opacity="1" /><path clip-path="url(#clip710)" d="M1377.26 1847.65 L1383.12 1847.65 L1383.12 1883.3 L1377.26 1883.3 L1377.26 1847.65 M1377.26 1833.78 L1383.12 1833.78 L1383.12 1841.19 L1377.26 1841.19 L1377.26 1833.78 Z" fill="#000000" fill-rule="nonzero" fill-opacity="1" /><path clip-path="url(#clip710)" d="M1423.13 1854.5 Q1425.32 1850.55 1428.38 1848.67 Q1431.43 1846.79 1435.57 1846.79 Q1441.14 1846.79 1444.16 1850.71 Q1447.19 1854.59 1447.19 1861.78 L1447.19 1883.3 L1441.3 1883.3 L1441.3 1861.98 Q1441.3 1856.85 1439.49 1854.37 Q1437.67 1851.89 1433.95 1851.89 Q1429.4 1851.89 1426.75 1854.91 Q1424.11 1857.93 1424.11 1863.15 L1424.11 1883.3 L1418.22 1883.3 L1418.22 1861.98 Q1418.22 1856.82 1416.41 1854.37 Q1414.6 1851.89 1410.81 1851.89 Q1406.32 1851.89 1403.68 1854.94 Q1401.04 1857.97 1401.04 1863.15 L1401.04 1883.3 L1395.15 1883.3 L1395.15 1847.65 L1401.04 1847.65 L1401.04 1853.19 Q1403.04 1849.91 1405.84 1848.35 Q1408.64 1846.79 1412.49 1846.79 Q1416.38 1846.79 1419.08 1848.77 Q1421.82 1850.74 1423.13 1854.5 Z" fill="#000000" fill-rule="nonzero" fill-opacity="1" /><path clip-path="url(#clip710)" d="M1489.36 1864.01 L1489.36 1866.88 L1462.43 1866.88 Q1462.82 1872.92 1466.06 1876.11 Q1469.34 1879.26 1475.17 1879.26 Q1478.54 1879.26 1481.69 1878.43 Q1484.87 1877.6 1487.99 1875.95 L1487.99 1881.49 Q1484.84 1882.82 1481.53 1883.52 Q1478.22 1884.22 1474.82 1884.22 Q1466.29 1884.22 1461.29 1879.26 Q1456.32 1874.29 1456.32 1865.83 Q1456.32 1857.07 1461.03 1851.95 Q1465.78 1846.79 1473.8 1846.79 Q1480.99 1846.79 1485.16 1851.44 Q1489.36 1856.06 1489.36 1864.01 M1483.5 1862.29 Q1483.44 1857.49 1480.8 1854.62 Q1478.19 1851.76 1473.86 1851.76 Q1468.96 1851.76 1466 1854.53 Q1463.07 1857.3 1462.62 1862.33 L1483.5 1862.29 Z" fill="#000000" fill-rule="nonzero" fill-opacity="1" /><polyline clip-path="url(#clip710)" style="stroke:#000000; stroke-linecap:round; stroke-linejoin:round; stroke-width:4; stroke-opacity:1; fill:none" points="181.719,1734.12 181.719,127.792 "/>
<polyline clip-path="url(#clip710)" style="stroke:#000000; stroke-linecap:round; stroke-linejoin:round; stroke-width:4; stroke-opacity:1; fill:none" points="181.719,1674.83 200.617,1674.83 "/>
<polyline clip-path="url(#clip710)" style="stroke:#000000; stroke-linecap:round; stroke-linejoin:round; stroke-width:4; stroke-opacity:1; fill:none" points="181.719,1379.18 200.617,1379.18 "/>
<polyline clip-path="url(#clip710)" style="stroke:#000000; stroke-linecap:round; stroke-linejoin:round; stroke-width:4; stroke-opacity:1; fill:none" points="181.719,1083.52 200.617,1083.52 "/>
<polyline clip-path="url(#clip710)" style="stroke:#000000; stroke-linecap:round; stroke-linejoin:round; stroke-width:4; stroke-opacity:1; fill:none" points="181.719,787.871 200.617,787.871 "/>
<polyline clip-path="url(#clip710)" style="stroke:#000000; stroke-linecap:round; stroke-linejoin:round; stroke-width:4; stroke-opacity:1; fill:none" points="181.719,492.216 200.617,492.216 "/>
<polyline clip-path="url(#clip710)" style="stroke:#000000; stroke-linecap:round; stroke-linejoin:round; stroke-width:4; stroke-opacity:1; fill:none" points="181.719,196.562 200.617,196.562 "/>
<path clip-path="url(#clip710)" d="M129.455 1660.63 Q125.844 1660.63 124.015 1664.2 Q122.21 1667.74 122.21 1674.87 Q122.21 1681.97 124.015 1685.54 Q125.844 1689.08 129.455 1689.08 Q133.089 1689.08 134.895 1685.54 Q136.724 1681.97 136.724 1674.87 Q136.724 1667.74 134.895 1664.2 Q133.089 1660.63 129.455 1660.63 M129.455 1656.93 Q135.265 1656.93 138.321 1661.53 Q141.399 1666.12 141.399 1674.87 Q141.399 1683.59 138.321 1688.2 Q135.265 1692.78 129.455 1692.78 Q123.645 1692.78 120.566 1688.2 Q117.511 1683.59 117.511 1674.87 Q117.511 1666.12 120.566 1661.53 Q123.645 1656.93 129.455 1656.93 Z" fill="#000000" fill-rule="nonzero" fill-opacity="1" /><path clip-path="url(#clip710)" d="M121.492 1392.52 L129.131 1392.52 L129.131 1366.16 L120.821 1367.82 L120.821 1363.57 L129.085 1361.9 L133.761 1361.9 L133.761 1392.52 L141.399 1392.52 L141.399 1396.46 L121.492 1396.46 L121.492 1392.52 Z" fill="#000000" fill-rule="nonzero" fill-opacity="1" /><path clip-path="url(#clip710)" d="M125.08 1096.87 L141.399 1096.87 L141.399 1100.8 L119.455 1100.8 L119.455 1096.87 Q122.117 1094.11 126.7 1089.49 Q131.307 1084.83 132.488 1083.49 Q134.733 1080.97 135.612 1079.23 Q136.515 1077.47 136.515 1075.78 Q136.515 1073.03 134.571 1071.29 Q132.65 1069.55 129.548 1069.55 Q127.349 1069.55 124.895 1070.32 Q122.464 1071.08 119.687 1072.63 L119.687 1067.91 Q122.511 1066.78 124.964 1066.2 Q127.418 1065.62 129.455 1065.62 Q134.825 1065.62 138.02 1068.3 Q141.214 1070.99 141.214 1075.48 Q141.214 1077.61 140.404 1079.53 Q139.617 1081.43 137.511 1084.02 Q136.932 1084.69 133.83 1087.91 Q130.728 1091.11 125.08 1096.87 Z" fill="#000000" fill-rule="nonzero" fill-opacity="1" /><path clip-path="url(#clip710)" d="M134.27 786.516 Q137.626 787.234 139.501 789.502 Q141.399 791.771 141.399 795.104 Q141.399 800.22 137.881 803.021 Q134.362 805.822 127.881 805.822 Q125.705 805.822 123.39 805.382 Q121.099 804.965 118.645 804.109 L118.645 799.595 Q120.589 800.729 122.904 801.308 Q125.219 801.887 127.742 801.887 Q132.14 801.887 134.432 800.151 Q136.747 798.414 136.747 795.104 Q136.747 792.049 134.594 790.336 Q132.464 788.6 128.645 788.6 L124.617 788.6 L124.617 784.757 L128.83 784.757 Q132.279 784.757 134.108 783.391 Q135.937 782.003 135.937 779.41 Q135.937 776.748 134.038 775.336 Q132.163 773.901 128.645 773.901 Q126.724 773.901 124.525 774.317 Q122.326 774.734 119.687 775.614 L119.687 771.447 Q122.349 770.706 124.663 770.336 Q127.001 769.966 129.062 769.966 Q134.386 769.966 137.487 772.396 Q140.589 774.803 140.589 778.924 Q140.589 781.794 138.946 783.785 Q137.302 785.752 134.27 786.516 Z" fill="#000000" fill-rule="nonzero" fill-opacity="1" /><path clip-path="url(#clip710)" d="M131.816 479.01 L120.011 497.459 L131.816 497.459 L131.816 479.01 M130.589 474.936 L136.469 474.936 L136.469 497.459 L141.399 497.459 L141.399 501.348 L136.469 501.348 L136.469 509.496 L131.816 509.496 L131.816 501.348 L116.214 501.348 L116.214 496.834 L130.589 474.936 Z" fill="#000000" fill-rule="nonzero" fill-opacity="1" /><path clip-path="url(#clip710)" d="M120.497 179.282 L138.853 179.282 L138.853 183.217 L124.779 183.217 L124.779 191.69 Q125.798 191.342 126.816 191.18 Q127.835 190.995 128.853 190.995 Q134.64 190.995 138.02 194.166 Q141.399 197.338 141.399 202.754 Q141.399 208.333 137.927 211.435 Q134.455 214.514 128.136 214.514 Q125.96 214.514 123.691 214.143 Q121.446 213.773 119.039 213.032 L119.039 208.333 Q121.122 209.467 123.344 210.023 Q125.566 210.578 128.043 210.578 Q132.048 210.578 134.386 208.472 Q136.724 206.365 136.724 202.754 Q136.724 199.143 134.386 197.037 Q132.048 194.93 128.043 194.93 Q126.168 194.93 124.293 195.347 Q122.441 195.764 120.497 196.643 L120.497 179.282 Z" fill="#000000" fill-rule="nonzero" fill-opacity="1" /><path clip-path="url(#clip710)" d="M47.5702 945.882 L25.9905 945.882 L25.9905 940.026 L47.3474 940.026 Q52.4082 940.026 54.9545 938.052 Q57.4689 936.079 57.4689 932.132 Q57.4689 927.39 54.4452 924.653 Q51.4215 921.883 46.2016 921.883 L25.9905 921.883 L25.9905 916.027 L61.6384 916.027 L61.6384 921.883 L56.1639 921.883 Q59.4104 924.016 61.0019 926.849 Q62.5615 929.65 62.5615 933.374 Q62.5615 939.516 58.742 942.699 Q54.9226 945.882 47.5702 945.882 M25.1311 931.146 L25.1311 931.146 Z" fill="#000000" fill-rule="nonzero" fill-opacity="1" /><path clip-path="url(#clip710)" d="M1207.54 12.096 L1258.7 12.096 L1258.7 18.9825 L1237.23 18.9825 L1237.23 72.576 L1229.01 72.576 L1229.01 18.9825 L1207.54 18.9825 L1207.54 12.096 Z" fill="#000000" fill-rule="nonzero" fill-opacity="1" /><path clip-path="url(#clip710)" d="M1280.37 34.1734 Q1279.12 33.4443 1277.62 33.1202 Q1276.16 32.7556 1274.38 32.7556 Q1268.06 32.7556 1264.66 36.8875 Q1261.29 40.9789 1261.29 48.6757 L1261.29 72.576 L1253.8 72.576 L1253.8 27.2059 L1261.29 27.2059 L1261.29 34.2544 Q1263.64 30.1225 1267.41 28.1376 Q1271.18 26.1121 1276.57 26.1121 Q1277.34 26.1121 1278.27 26.2337 Q1279.2 26.3147 1280.33 26.5172 L1280.37 34.1734 Z" fill="#000000" fill-rule="nonzero" fill-opacity="1" /><path clip-path="url(#clip710)" d="M1308.81 49.7694 Q1299.78 49.7694 1296.29 51.8354 Q1292.81 53.9013 1292.81 58.8839 Q1292.81 62.8538 1295.4 65.2034 Q1298.04 67.5124 1302.53 67.5124 Q1308.73 67.5124 1312.46 63.1374 Q1316.22 58.7219 1316.22 51.4303 L1316.22 49.7694 L1308.81 49.7694 M1323.68 46.6907 L1323.68 72.576 L1316.22 72.576 L1316.22 65.6895 Q1313.67 69.8214 1309.86 71.8063 Q1306.06 73.7508 1300.55 73.7508 Q1293.58 73.7508 1289.45 69.8619 Q1285.36 65.9325 1285.36 59.3701 Q1285.36 51.7138 1290.46 47.825 Q1295.6 43.9361 1305.77 43.9361 L1316.22 43.9361 L1316.22 43.2069 Q1316.22 38.0623 1312.82 35.2672 Q1309.46 32.4315 1303.34 32.4315 Q1299.45 32.4315 1295.77 33.3632 Q1292.08 34.295 1288.68 36.1584 L1288.68 29.2718 Q1292.77 27.692 1296.62 26.9223 Q1300.47 26.1121 1304.11 26.1121 Q1313.96 26.1121 1318.82 31.2163 Q1323.68 36.3204 1323.68 46.6907 Z" fill="#000000" fill-rule="nonzero" fill-opacity="1" /><path clip-path="url(#clip710)" d="M1339.03 27.2059 L1346.48 27.2059 L1346.48 73.3862 Q1346.48 82.0551 1343.16 85.944 Q1339.88 89.8329 1332.55 89.8329 L1329.71 89.8329 L1329.71 83.5134 L1331.7 83.5134 Q1335.95 83.5134 1337.49 81.5285 Q1339.03 79.5841 1339.03 73.3862 L1339.03 27.2059 M1339.03 9.54393 L1346.48 9.54393 L1346.48 18.9825 L1339.03 18.9825 L1339.03 9.54393 Z" fill="#000000" fill-rule="nonzero" fill-opacity="1" /><path clip-path="url(#clip710)" d="M1400.89 48.0275 L1400.89 51.6733 L1366.62 51.6733 Q1367.1 59.3701 1371.24 63.421 Q1375.41 67.4314 1382.82 67.4314 Q1387.11 67.4314 1391.12 66.3781 Q1395.18 65.3249 1399.15 63.2184 L1399.15 70.267 Q1395.14 71.9684 1390.92 72.8596 Q1386.71 73.7508 1382.38 73.7508 Q1371.52 73.7508 1365.16 67.4314 Q1358.84 61.1119 1358.84 50.3365 Q1358.84 39.1965 1364.83 32.6746 Q1370.87 26.1121 1381.08 26.1121 Q1390.23 26.1121 1395.54 32.0264 Q1400.89 37.9003 1400.89 48.0275 M1393.43 45.84 Q1393.35 39.7232 1389.99 36.0774 Q1386.67 32.4315 1381.16 32.4315 Q1374.92 32.4315 1371.15 35.9558 Q1367.43 39.4801 1366.86 45.8805 L1393.43 45.84 Z" fill="#000000" fill-rule="nonzero" fill-opacity="1" /><path clip-path="url(#clip710)" d="M1445.77 28.9478 L1445.77 35.9153 Q1442.61 34.1734 1439.41 33.3227 Q1436.25 32.4315 1433.01 32.4315 Q1425.76 32.4315 1421.75 37.0496 Q1417.74 41.6271 1417.74 49.9314 Q1417.74 58.2358 1421.75 62.8538 Q1425.76 67.4314 1433.01 67.4314 Q1436.25 67.4314 1439.41 66.5807 Q1442.61 65.6895 1445.77 63.9476 L1445.77 70.8341 Q1442.65 72.2924 1439.29 73.0216 Q1435.97 73.7508 1432.2 73.7508 Q1421.95 73.7508 1415.92 67.3098 Q1409.88 60.8689 1409.88 49.9314 Q1409.88 38.832 1415.96 32.472 Q1422.07 26.1121 1432.69 26.1121 Q1436.13 26.1121 1439.41 26.8413 Q1442.69 27.5299 1445.77 28.9478 Z" fill="#000000" fill-rule="nonzero" fill-opacity="1" /><path clip-path="url(#clip710)" d="M1466.11 14.324 L1466.11 27.2059 L1481.46 27.2059 L1481.46 32.9987 L1466.11 32.9987 L1466.11 57.6282 Q1466.11 63.1779 1467.61 64.7578 Q1469.15 66.3376 1473.8 66.3376 L1481.46 66.3376 L1481.46 72.576 L1473.8 72.576 Q1465.18 72.576 1461.89 69.3758 Q1458.61 66.1351 1458.61 57.6282 L1458.61 32.9987 L1453.14 32.9987 L1453.14 27.2059 L1458.61 27.2059 L1458.61 14.324 L1466.11 14.324 Z" fill="#000000" fill-rule="nonzero" fill-opacity="1" /><path clip-path="url(#clip710)" d="M1508.84 32.4315 Q1502.85 32.4315 1499.37 37.1306 Q1495.88 41.7891 1495.88 49.9314 Q1495.88 58.0738 1499.32 62.7728 Q1502.81 67.4314 1508.84 67.4314 Q1514.8 67.4314 1518.28 62.7323 Q1521.77 58.0333 1521.77 49.9314 Q1521.77 41.8701 1518.28 37.1711 Q1514.8 32.4315 1508.84 32.4315 M1508.84 26.1121 Q1518.57 26.1121 1524.12 32.4315 Q1529.67 38.7509 1529.67 49.9314 Q1529.67 61.0714 1524.12 67.4314 Q1518.57 73.7508 1508.84 73.7508 Q1499.08 73.7508 1493.53 67.4314 Q1488.02 61.0714 1488.02 49.9314 Q1488.02 38.7509 1493.53 32.4315 Q1499.08 26.1121 1508.84 26.1121 Z" fill="#000000" fill-rule="nonzero" fill-opacity="1" /><path clip-path="url(#clip710)" d="M1568.31 34.1734 Q1567.06 33.4443 1565.56 33.1202 Q1564.1 32.7556 1562.32 32.7556 Q1556 32.7556 1552.59 36.8875 Q1549.23 40.9789 1549.23 48.6757 L1549.23 72.576 L1541.74 72.576 L1541.74 27.2059 L1549.23 27.2059 L1549.23 34.2544 Q1551.58 30.1225 1555.35 28.1376 Q1559.12 26.1121 1564.5 26.1121 Q1565.27 26.1121 1566.21 26.2337 Q1567.14 26.3147 1568.27 26.5172 L1568.31 34.1734 Z" fill="#000000" fill-rule="nonzero" fill-opacity="1" /><path clip-path="url(#clip710)" d="M1595.01 76.7889 Q1591.85 84.8907 1588.85 87.3618 Q1585.85 89.8329 1580.83 89.8329 L1574.87 89.8329 L1574.87 83.5945 L1579.25 83.5945 Q1582.33 83.5945 1584.03 82.1361 Q1585.73 80.6778 1587.8 75.2496 L1589.13 71.8468 L1570.78 27.2059 L1578.68 27.2059 L1592.86 62.6918 L1607.04 27.2059 L1614.94 27.2059 L1595.01 76.7889 Z" fill="#000000" fill-rule="nonzero" fill-opacity="1" /><circle clip-path="url(#clip711)" cx="251.315" cy="173.254" r="14.4" fill="#009af9" fill-rule="evenodd" fill-opacity="0.6" stroke="#000000" stroke-opacity="0.6" stroke-width="3.84"/>
<circle clip-path="url(#clip711)" cx="367.307" cy="549.568" r="14.4" fill="#009af9" fill-rule="evenodd" fill-opacity="0.6" stroke="#000000" stroke-opacity="0.6" stroke-width="3.84"/>
<circle clip-path="url(#clip711)" cx="483.299" cy="804.051" r="14.4" fill="#009af9" fill-rule="evenodd" fill-opacity="0.6" stroke="#000000" stroke-opacity="0.6" stroke-width="3.84"/>
<circle clip-path="url(#clip711)" cx="599.292" cy="998.227" r="14.4" fill="#009af9" fill-rule="evenodd" fill-opacity="0.6" stroke="#000000" stroke-opacity="0.6" stroke-width="3.84"/>
<circle clip-path="url(#clip711)" cx="715.284" cy="1151.77" r="14.4" fill="#009af9" fill-rule="evenodd" fill-opacity="0.6" stroke="#000000" stroke-opacity="0.6" stroke-width="3.84"/>
<circle clip-path="url(#clip711)" cx="831.276" cy="1253.45" r="14.4" fill="#009af9" fill-rule="evenodd" fill-opacity="0.6" stroke="#000000" stroke-opacity="0.6" stroke-width="3.84"/>
<circle clip-path="url(#clip711)" cx="947.269" cy="1371.98" r="14.4" fill="#009af9" fill-rule="evenodd" fill-opacity="0.6" stroke="#000000" stroke-opacity="0.6" stroke-width="3.84"/>
<circle clip-path="url(#clip711)" cx="1063.26" cy="1399.27" r="14.4" fill="#009af9" fill-rule="evenodd" fill-opacity="0.6" stroke="#000000" stroke-opacity="0.6" stroke-width="3.84"/>
<circle clip-path="url(#clip711)" cx="1179.25" cy="1432.24" r="14.4" fill="#009af9" fill-rule="evenodd" fill-opacity="0.6" stroke="#000000" stroke-opacity="0.6" stroke-width="3.84"/>
<circle clip-path="url(#clip711)" cx="1295.25" cy="1529.49" r="14.4" fill="#009af9" fill-rule="evenodd" fill-opacity="0.6" stroke="#000000" stroke-opacity="0.6" stroke-width="3.84"/>
<circle clip-path="url(#clip711)" cx="1411.24" cy="1529.95" r="14.4" fill="#009af9" fill-rule="evenodd" fill-opacity="0.6" stroke="#000000" stroke-opacity="0.6" stroke-width="3.84"/>
<circle clip-path="url(#clip711)" cx="1527.23" cy="1615.08" r="14.4" fill="#009af9" fill-rule="evenodd" fill-opacity="0.6" stroke="#000000" stroke-opacity="0.6" stroke-width="3.84"/>
<circle clip-path="url(#clip711)" cx="1643.22" cy="1618.78" r="14.4" fill="#009af9" fill-rule="evenodd" fill-opacity="0.6" stroke="#000000" stroke-opacity="0.6" stroke-width="3.84"/>
<circle clip-path="url(#clip711)" cx="1759.21" cy="1604.81" r="14.4" fill="#009af9" fill-rule="evenodd" fill-opacity="0.6" stroke="#000000" stroke-opacity="0.6" stroke-width="3.84"/>
<circle clip-path="url(#clip711)" cx="1875.21" cy="1602.04" r="14.4" fill="#009af9" fill-rule="evenodd" fill-opacity="0.6" stroke="#000000" stroke-opacity="0.6" stroke-width="3.84"/>
<circle clip-path="url(#clip711)" cx="1991.2" cy="1636.25" r="14.4" fill="#009af9" fill-rule="evenodd" fill-opacity="0.6" stroke="#000000" stroke-opacity="0.6" stroke-width="3.84"/>
<circle clip-path="url(#clip711)" cx="2107.19" cy="1656.47" r="14.4" fill="#009af9" fill-rule="evenodd" fill-opacity="0.6" stroke="#000000" stroke-opacity="0.6" stroke-width="3.84"/>
<circle clip-path="url(#clip711)" cx="2223.18" cy="1664.81" r="14.4" fill="#009af9" fill-rule="evenodd" fill-opacity="0.6" stroke="#000000" stroke-opacity="0.6" stroke-width="3.84"/>
<circle clip-path="url(#clip711)" cx="2339.18" cy="1623.83" r="14.4" fill="#009af9" fill-rule="evenodd" fill-opacity="0.6" stroke="#000000" stroke-opacity="0.6" stroke-width="3.84"/>
<circle clip-path="url(#clip711)" cx="2455.17" cy="1654.45" r="14.4" fill="#009af9" fill-rule="evenodd" fill-opacity="0.6" stroke="#000000" stroke-opacity="0.6" stroke-width="3.84"/>
<circle clip-path="url(#clip711)" cx="2571.16" cy="1658.93" r="14.4" fill="#009af9" fill-rule="evenodd" fill-opacity="0.6" stroke="#000000" stroke-opacity="0.6" stroke-width="3.84"/>
<polyline clip-path="url(#clip711)" style="stroke:#e26f46; stroke-linecap:round; stroke-linejoin:round; stroke-width:8; stroke-opacity:1; fill:none" points="251.315,196.562 367.307,457.51 483.299,705.007 599.292,930.902 715.284,1112.87 831.276,1245.56 947.269,1340.95 1063.26,1412.01 1179.25,1467.1 1295.25,1510.95 1411.24,1546.41 1527.23,1575.39 1643.22,1599.22 1759.21,1618.9 1875.21,1635.19 1991.2,1648.69 2107.19,1659.9 2223.18,1669.2 2339.18,1676.92 2455.17,1683.33 2571.16,1688.65 "/>
<polyline clip-path="url(#clip711)" style="stroke:#3da44d; stroke-linecap:round; stroke-linejoin:round; stroke-width:8; stroke-opacity:1; fill:none" stroke-dasharray="32, 20" points="251.315,196.562 367.307,539.084 483.299,798.335 599.292,995.341 715.284,1145.99 831.276,1261.91 947.269,1351.55 1063.26,1421.1 1179.25,1475.19 1295.25,1517.33 1411.24,1550.19 1527.23,1575.82 1643.22,1595.81 1759.21,1611.43 1875.21,1623.61 1991.2,1633.12 2107.19,1640.55 2223.18,1646.35 2339.18,1650.88 2455.17,1654.41 2571.16,1657.17 "/>
<path clip-path="url(#clip710)" d="M2097.4 388.696 L2558.79 388.696 L2558.79 181.336 L2097.4 181.336  Z" fill="#ffffff" fill-rule="evenodd" fill-opacity="1"/>
<polyline clip-path="url(#clip710)" style="stroke:#000000; stroke-linecap:round; stroke-linejoin:round; stroke-width:4; stroke-opacity:1; fill:none" points="2097.4,388.696 2558.79,388.696 2558.79,181.336 2097.4,181.336 2097.4,388.696 "/>
<circle clip-path="url(#clip710)" cx="2206.69" cy="233.176" r="20.48" fill="#009af9" fill-rule="evenodd" fill-opacity="0.6" stroke="#000000" stroke-opacity="0.6" stroke-width="5.46133"/>
<path clip-path="url(#clip710)" d="M2320.66 219.739 L2320.66 246.614 L2326.3 246.614 Q2333.46 246.614 2336.77 243.373 Q2340.1 240.132 2340.1 233.142 Q2340.1 226.197 2336.77 222.98 Q2333.46 219.739 2326.3 219.739 L2320.66 219.739 M2315.98 215.896 L2325.59 215.896 Q2335.63 215.896 2340.33 220.086 Q2345.03 224.253 2345.03 233.142 Q2345.03 242.077 2340.31 246.266 Q2335.59 250.456 2325.59 250.456 L2315.98 250.456 L2315.98 215.896 Z" fill="#000000" fill-rule="nonzero" fill-opacity="1" /><path clip-path="url(#clip710)" d="M2364.08 237.424 Q2358.92 237.424 2356.93 238.604 Q2354.94 239.785 2354.94 242.632 Q2354.94 244.901 2356.42 246.243 Q2357.92 247.563 2360.49 247.563 Q2364.04 247.563 2366.17 245.063 Q2368.32 242.54 2368.32 238.373 L2368.32 237.424 L2364.08 237.424 M2372.58 235.665 L2372.58 250.456 L2368.32 250.456 L2368.32 246.521 Q2366.86 248.882 2364.68 250.016 Q2362.51 251.128 2359.36 251.128 Q2355.38 251.128 2353.02 248.905 Q2350.68 246.66 2350.68 242.91 Q2350.68 238.535 2353.6 236.313 Q2356.54 234.091 2362.35 234.091 L2368.32 234.091 L2368.32 233.674 Q2368.32 230.734 2366.37 229.137 Q2364.45 227.517 2360.96 227.517 Q2358.73 227.517 2356.63 228.049 Q2354.52 228.581 2352.58 229.646 L2352.58 225.711 Q2354.92 224.808 2357.11 224.368 Q2359.31 223.906 2361.4 223.906 Q2367.02 223.906 2369.8 226.822 Q2372.58 229.739 2372.58 235.665 Z" fill="#000000" fill-rule="nonzero" fill-opacity="1" /><path clip-path="url(#clip710)" d="M2385.56 217.169 L2385.56 224.531 L2394.34 224.531 L2394.34 227.841 L2385.56 227.841 L2385.56 241.915 Q2385.56 245.086 2386.42 245.989 Q2387.3 246.891 2389.96 246.891 L2394.34 246.891 L2394.34 250.456 L2389.96 250.456 Q2385.03 250.456 2383.16 248.628 Q2381.28 246.776 2381.28 241.915 L2381.28 227.841 L2378.16 227.841 L2378.16 224.531 L2381.28 224.531 L2381.28 217.169 L2385.56 217.169 Z" fill="#000000" fill-rule="nonzero" fill-opacity="1" /><path clip-path="url(#clip710)" d="M2411.72 237.424 Q2406.56 237.424 2404.57 238.604 Q2402.58 239.785 2402.58 242.632 Q2402.58 244.901 2404.06 246.243 Q2405.56 247.563 2408.13 247.563 Q2411.67 247.563 2413.8 245.063 Q2415.96 242.54 2415.96 238.373 L2415.96 237.424 L2411.72 237.424 M2420.22 235.665 L2420.22 250.456 L2415.96 250.456 L2415.96 246.521 Q2414.5 248.882 2412.32 250.016 Q2410.15 251.128 2407 251.128 Q2403.02 251.128 2400.66 248.905 Q2398.32 246.66 2398.32 242.91 Q2398.32 238.535 2401.23 236.313 Q2404.17 234.091 2409.98 234.091 L2415.96 234.091 L2415.96 233.674 Q2415.96 230.734 2414.01 229.137 Q2412.09 227.517 2408.6 227.517 Q2406.37 227.517 2404.27 228.049 Q2402.16 228.581 2400.22 229.646 L2400.22 225.711 Q2402.55 224.808 2404.75 224.368 Q2406.95 223.906 2409.04 223.906 Q2414.66 223.906 2417.44 226.822 Q2420.22 229.739 2420.22 235.665 Z" fill="#000000" fill-rule="nonzero" fill-opacity="1" /><polyline clip-path="url(#clip710)" style="stroke:#e26f46; stroke-linecap:round; stroke-linejoin:round; stroke-width:8; stroke-opacity:1; fill:none" points="2124.72,285.016 2288.66,285.016 "/>
<path clip-path="url(#clip710)" d="M2331.81 272.343 L2325.47 289.542 L2338.18 289.542 L2331.81 272.343 M2329.17 267.736 L2334.48 267.736 L2347.65 302.296 L2342.79 302.296 L2339.64 293.431 L2324.06 293.431 L2320.91 302.296 L2315.98 302.296 L2329.17 267.736 Z" fill="#000000" fill-rule="nonzero" fill-opacity="1" /><path clip-path="url(#clip710)" d="M2357.37 285.792 L2357.37 298.454 L2364.87 298.454 Q2368.64 298.454 2370.45 296.903 Q2372.28 295.329 2372.28 292.111 Q2372.28 288.87 2370.45 287.343 Q2368.64 285.792 2364.87 285.792 L2357.37 285.792 M2357.37 271.579 L2357.37 281.995 L2364.29 281.995 Q2367.72 281.995 2369.38 280.722 Q2371.07 279.426 2371.07 276.787 Q2371.07 274.171 2369.38 272.875 Q2367.72 271.579 2364.29 271.579 L2357.37 271.579 M2352.69 267.736 L2364.64 267.736 Q2369.98 267.736 2372.88 269.958 Q2375.77 272.181 2375.77 276.278 Q2375.77 279.449 2374.29 281.324 Q2372.81 283.199 2369.94 283.662 Q2373.39 284.403 2375.29 286.764 Q2377.21 289.102 2377.21 292.62 Q2377.21 297.25 2374.06 299.773 Q2370.91 302.296 2365.1 302.296 L2352.69 302.296 L2352.69 267.736 Z" fill="#000000" fill-rule="nonzero" fill-opacity="1" /><path clip-path="url(#clip710)" d="M2410.26 270.398 L2410.26 275.329 Q2407.9 273.13 2405.22 272.042 Q2402.55 270.954 2399.54 270.954 Q2393.62 270.954 2390.47 274.588 Q2387.32 278.199 2387.32 285.051 Q2387.32 291.88 2390.47 295.514 Q2393.62 299.125 2399.54 299.125 Q2402.55 299.125 2405.22 298.037 Q2407.9 296.949 2410.26 294.75 L2410.26 299.634 Q2407.81 301.301 2405.05 302.134 Q2402.32 302.968 2399.27 302.968 Q2391.42 302.968 2386.91 298.176 Q2382.39 293.361 2382.39 285.051 Q2382.39 276.718 2386.91 271.926 Q2391.42 267.111 2399.27 267.111 Q2402.37 267.111 2405.1 267.945 Q2407.85 268.755 2410.26 270.398 Z" fill="#000000" fill-rule="nonzero" fill-opacity="1" /><path clip-path="url(#clip710)" d="M2415.15 287.412 L2427.62 287.412 L2427.62 291.208 L2415.15 291.208 L2415.15 287.412 Z" fill="#000000" fill-rule="nonzero" fill-opacity="1" /><path clip-path="url(#clip710)" d="M2455.31 268.871 L2455.31 273.431 Q2452.65 272.158 2450.29 271.533 Q2447.92 270.908 2445.73 270.908 Q2441.91 270.908 2439.82 272.389 Q2437.76 273.871 2437.76 276.602 Q2437.76 278.894 2439.13 280.074 Q2440.52 281.232 2444.36 281.949 L2447.18 282.528 Q2452.41 283.523 2454.89 286.046 Q2457.39 288.546 2457.39 292.759 Q2457.39 297.782 2454.01 300.375 Q2450.66 302.968 2444.15 302.968 Q2441.7 302.968 2438.92 302.412 Q2436.16 301.856 2433.2 300.769 L2433.2 295.954 Q2436.05 297.551 2438.78 298.361 Q2441.51 299.171 2444.15 299.171 Q2448.16 299.171 2450.33 297.597 Q2452.51 296.023 2452.51 293.107 Q2452.51 290.56 2450.93 289.125 Q2449.38 287.69 2445.82 286.972 L2442.97 286.417 Q2437.74 285.375 2435.4 283.153 Q2433.06 280.931 2433.06 276.972 Q2433.06 272.389 2436.28 269.75 Q2439.52 267.111 2445.19 267.111 Q2447.62 267.111 2450.15 267.551 Q2452.67 267.991 2455.31 268.871 Z" fill="#000000" fill-rule="nonzero" fill-opacity="1" /><path clip-path="url(#clip710)" d="M2464.68 267.736 L2471.65 267.736 L2480.47 291.255 L2489.34 267.736 L2496.3 267.736 L2496.3 302.296 L2491.74 302.296 L2491.74 271.949 L2482.83 295.653 L2478.13 295.653 L2469.22 271.949 L2469.22 302.296 L2464.68 302.296 L2464.68 267.736 Z" fill="#000000" fill-rule="nonzero" fill-opacity="1" /><path clip-path="url(#clip710)" d="M2531.47 270.398 L2531.47 275.329 Q2529.1 273.13 2526.42 272.042 Q2523.76 270.954 2520.75 270.954 Q2514.82 270.954 2511.67 274.588 Q2508.53 278.199 2508.53 285.051 Q2508.53 291.88 2511.67 295.514 Q2514.82 299.125 2520.75 299.125 Q2523.76 299.125 2526.42 298.037 Q2529.1 296.949 2531.47 294.75 L2531.47 299.634 Q2529.01 301.301 2526.26 302.134 Q2523.53 302.968 2520.47 302.968 Q2512.62 302.968 2508.11 298.176 Q2503.6 293.361 2503.6 285.051 Q2503.6 276.718 2508.11 271.926 Q2512.62 267.111 2520.47 267.111 Q2523.57 267.111 2526.3 267.945 Q2529.06 268.755 2531.47 270.398 Z" fill="#000000" fill-rule="nonzero" fill-opacity="1" /><polyline clip-path="url(#clip710)" style="stroke:#3da44d; stroke-linecap:round; stroke-linejoin:round; stroke-width:8; stroke-opacity:1; fill:none" stroke-dasharray="32, 20" points="2124.72,336.856 2288.66,336.856 "/>
<path clip-path="url(#clip710)" d="M2315.98 319.576 L2320.66 319.576 L2320.66 350.201 L2337.48 350.201 L2337.48 354.136 L2315.98 354.136 L2315.98 319.576 Z" fill="#000000" fill-rule="nonzero" fill-opacity="1" /><path clip-path="url(#clip710)" d="M2355.03 324.183 L2348.69 341.382 L2361.4 341.382 L2355.03 324.183 M2352.39 319.576 L2357.69 319.576 L2370.86 354.136 L2366 354.136 L2362.86 345.271 L2347.28 345.271 L2344.13 354.136 L2339.2 354.136 L2352.39 319.576 Z" fill="#000000" fill-rule="nonzero" fill-opacity="1" /><path clip-path="url(#clip710)" d="M2375.91 319.576 L2382.88 319.576 L2391.7 343.095 L2400.56 319.576 L2407.53 319.576 L2407.53 354.136 L2402.97 354.136 L2402.97 323.789 L2394.06 347.493 L2389.36 347.493 L2380.45 323.789 L2380.45 354.136 L2375.91 354.136 L2375.91 319.576 Z" fill="#000000" fill-rule="nonzero" fill-opacity="1" /><path clip-path="url(#clip710)" d="M2416.81 319.576 L2421.49 319.576 L2421.49 350.201 L2438.32 350.201 L2438.32 354.136 L2416.81 354.136 L2416.81 319.576 Z" fill="#000000" fill-rule="nonzero" fill-opacity="1" /></svg>
