<?xml version="1.0" encoding="utf-8"?>
<svg xmlns="http://www.w3.org/2000/svg" xmlns:xlink="http://www.w3.org/1999/xlink" width="672" height="480" viewBox="0 0 2688 1920">
<defs>
  <clipPath id="clip880">
    <rect x="0" y="0" width="2688" height="1920"/>
  </clipPath>
</defs>
<path clip-path="url(#clip880)" d="M0 1920 L2688 1920 L2688 -4.26326e-14 L0 -4.26326e-14  Z" fill="#ffffff" fill-rule="evenodd" fill-opacity="1"/>
<defs>
  <clipPath id="clip881">
    <rect x="181" y="127" width="2460" height="1607"/>
  </clipPath>
</defs>
<path clip-path="url(#clip880)" d="M181.719 1734.12 L2640.76 1734.12 L2640.76 127.792 L181.719 127.792  Z" fill="#ffffff" fill-rule="evenodd" fill-opacity="1"/>
<polyline clip-path="url(#clip881)" style="stroke:#000000; stroke-linecap:round; stroke-linejoin:round; stroke-width:2; stroke-opacity:0.1; fill:none" points="251.315,1734.12 251.315,127.792 "/>
<polyline clip-path="url(#clip881)" style="stroke:#000000; stroke-linecap:round; stroke-linejoin:round; stroke-width:2; stroke-opacity:0.1; fill:none" points="768.687,1734.12 768.687,127.792 "/>
<polyline clip-path="url(#clip881)" style="stroke:#000000; stroke-linecap:round; stroke-linejoin:round; stroke-width:2; stroke-opacity:0.1; fill:none" points="1286.06,1734.12 1286.06,127.792 "/>
<polyline clip-path="url(#clip881)" style="stroke:#000000; stroke-linecap:round; stroke-linejoin:round; stroke-width:2; stroke-opacity:0.1; fill:none" points="1803.43,1734.12 1803.43,127.792 "/>
<polyline clip-path="url(#clip881)" style="stroke:#000000; stroke-linecap:round; stroke-linejoin:round; stroke-width:2; stroke-opacity:0.1; fill:none" points="2320.8,1734.12 2320.8,127.792 "/>
<polyline clip-path="url(#clip881)" style="stroke:#000000; stroke-linecap:round; stroke-linejoin:round; stroke-width:2; stroke-opacity:0.1; fill:none" points="181.719,1515.62 2640.76,1515.62 "/>
<polyline clip-path="url(#clip881)" style="stroke:#000000; stroke-linecap:round; stroke-linejoin:round; stroke-width:2; stroke-opacity:0.1; fill:none" points="181.719,1291.82 2640.76,1291.82 "/>
<polyline clip-path="url(#clip881)" style="stroke:#000000; stroke-linecap:round; stroke-linejoin:round; stroke-width:2; stroke-opacity:0.1; fill:none" points="181.719,1068.02 2640.76,1068.02 "/>
<polyline clip-path="url(#clip881)" style="stroke:#000000; stroke-linecap:round; stroke-linejoin:round; stroke-width:2; stroke-opacity:0.1; fill:none" points="181.719,844.213 2640.76,844.213 "/>
<polyline clip-path="url(#clip881)" style="stroke:#000000; stroke-linecap:round; stroke-linejoin:round; stroke-width:2; stroke-opacity:0.1; fill:none" points="181.719,620.411 2640.76,620.411 "/>
<polyline clip-path="url(#clip881)" style="stroke:#000000; stroke-linecap:round; stroke-linejoin:round; stroke-width:2; stroke-opacity:0.1; fill:none" points="181.719,396.609 2640.76,396.609 "/>
<polyline clip-path="url(#clip881)" style="stroke:#000000; stroke-linecap:round; stroke-linejoin:round; stroke-width:2; stroke-opacity:0.1; fill:none" points="181.719,172.807 2640.76,172.807 "/>
<polyline clip-path="url(#clip880)" style="stroke:#000000; stroke-linecap:round; stroke-linejoin:round; stroke-width:4; stroke-opacity:1; fill:none" points="181.719,1734.12 2640.76,1734.12 "/>
<polyline clip-path="url(#clip880)" style="stroke:#000000; stroke-linecap:round; stroke-linejoin:round; stroke-width:4; stroke-opacity:1; fill:none" points="251.315,1734.12 251.315,1715.22 "/>
<polyline clip-path="url(#clip880)" style="stroke:#000000; stroke-linecap:round; stroke-linejoin:round; stroke-width:4; stroke-opacity:1; fill:none" points="768.687,1734.12 768.687,1715.22 "/>
<polyline clip-path="url(#clip880)" style="stroke:#000000; stroke-linecap:round; stroke-linejoin:round; stroke-width:4; stroke-opacity:1; fill:none" points="1286.06,1734.12 1286.06,1715.22 "/>
<polyline clip-path="url(#clip880)" style="stroke:#000000; stroke-linecap:round; stroke-linejoin:round; stroke-width:4; stroke-opacity:1; fill:none" points="1803.43,1734.12 1803.43,1715.22 "/>
<polyline clip-path="url(#clip880)" style="stroke:#000000; stroke-linecap:round; stroke-linejoin:round; stroke-width:4; stroke-opacity:1; fill:none" points="2320.8,1734.12 2320.8,1715.22 "/>
<path clip-path="url(#clip880)" d="M251.315 1767.34 Q247.704 1767.34 245.875 1770.9 Q244.07 1774.45 244.07 1781.58 Q244.07 1788.68 245.875 1792.25 Q247.704 1795.79 251.315 1795.79 Q254.949 1795.79 256.755 1792.25 Q258.583 1788.68 258.583 1781.58 Q258.583 1774.45 256.755 1770.9 Q254.949 1767.34 251.315 1767.34 M251.315 1763.64 Q257.125 1763.64 260.181 1768.24 Q263.259 1772.83 263.259 1781.58 Q263.259 1790.3 260.181 1794.91 Q257.125 1799.49 251.315 1799.49 Q245.505 1799.49 242.426 1794.91 Q239.37 1790.3 239.37 1781.58 Q239.37 1772.83 242.426 1768.24 Q245.505 1763.64 251.315 1763.64 Z" fill="#000000" fill-rule="nonzero" fill-opacity="1" /><path clip-path="url(#clip880)" d="M717.298 1794.89 L733.618 1794.89 L733.618 1798.82 L711.673 1798.82 L711.673 1794.89 Q714.335 1792.13 718.919 1787.5 Q723.525 1782.85 724.706 1781.51 Q726.951 1778.98 727.831 1777.25 Q728.733 1775.49 728.733 1773.8 Q728.733 1771.04 726.789 1769.31 Q724.868 1767.57 721.766 1767.57 Q719.567 1767.57 717.113 1768.34 Q714.683 1769.1 711.905 1770.65 L711.905 1765.93 Q714.729 1764.79 717.183 1764.21 Q719.636 1763.64 721.673 1763.64 Q727.044 1763.64 730.238 1766.32 Q733.432 1769.01 733.432 1773.5 Q733.432 1775.63 732.622 1777.55 Q731.835 1779.45 729.729 1782.04 Q729.15 1782.71 726.048 1785.93 Q722.946 1789.12 717.298 1794.89 Z" fill="#000000" fill-rule="nonzero" fill-opacity="1" /><path clip-path="url(#clip880)" d="M753.432 1767.34 Q749.821 1767.34 747.993 1770.9 Q746.187 1774.45 746.187 1781.58 Q746.187 1788.68 747.993 1792.25 Q749.821 1795.79 753.432 1795.79 Q757.067 1795.79 758.872 1792.25 Q760.701 1788.68 760.701 1781.58 Q760.701 1774.45 758.872 1770.9 Q757.067 1767.34 753.432 1767.34 M753.432 1763.64 Q759.243 1763.64 762.298 1768.24 Q765.377 1772.83 765.377 1781.58 Q765.377 1790.3 762.298 1794.91 Q759.243 1799.49 753.432 1799.49 Q747.622 1799.49 744.544 1794.91 Q741.488 1790.3 741.488 1781.58 Q741.488 1772.83 744.544 1768.24 Q747.622 1763.64 753.432 1763.64 Z" fill="#000000" fill-rule="nonzero" fill-opacity="1" /><path clip-path="url(#clip880)" d="M783.594 1767.34 Q779.983 1767.34 778.154 1770.9 Q776.349 1774.45 776.349 1781.58 Q776.349 1788.68 778.154 1792.25 Q779.983 1795.79 783.594 1795.79 Q787.228 1795.79 789.034 1792.25 Q790.863 1788.68 790.863 1781.58 Q790.863 1774.45 789.034 1770.9 Q787.228 1767.34 783.594 1767.34 M783.594 1763.64 Q789.404 1763.64 792.46 1768.24 Q795.539 1772.83 795.539 1781.58 Q795.539 1790.3 792.46 1794.91 Q789.404 1799.49 783.594 1799.49 Q777.784 1799.49 774.705 1794.91 Q771.65 1790.3 771.65 1781.58 Q771.65 1772.83 774.705 1768.24 Q777.784 1763.64 783.594 1763.64 Z" fill="#000000" fill-rule="nonzero" fill-opacity="1" /><path clip-path="url(#clip880)" d="M813.756 1767.34 Q810.145 1767.34 808.316 1770.9 Q806.511 1774.45 806.511 1781.58 Q806.511 1788.68 808.316 1792.25 Q810.145 1795.79 813.756 1795.79 Q817.39 1795.79 819.196 1792.25 Q821.025 1788.68 821.025 1781.58 Q821.025 1774.45 819.196 1770.9 Q817.39 1767.34 813.756 1767.34 M813.756 1763.64 Q819.566 1763.64 822.622 1768.24 Q825.7 1772.83 825.7 1781.58 Q825.7 1790.3 822.622 1794.91 Q819.566 1799.49 813.756 1799.49 Q807.946 1799.49 804.867 1794.91 Q801.812 1790.3 801.812 1781.58 Q801.812 1772.83 804.867 1768.24 Q807.946 1763.64 813.756 1763.64 Z" fill="#000000" fill-rule="nonzero" fill-opacity="1" /><path clip-path="url(#clip880)" d="M1244.07 1768.34 L1232.26 1786.78 L1244.07 1786.78 L1244.07 1768.34 M1242.84 1764.26 L1248.72 1764.26 L1248.72 1786.78 L1253.65 1786.78 L1253.65 1790.67 L1248.72 1790.67 L1248.72 1798.82 L1244.07 1798.82 L1244.07 1790.67 L1228.47 1790.67 L1228.47 1786.16 L1242.84 1764.26 Z" fill="#000000" fill-rule="nonzero" fill-opacity="1" /><path clip-path="url(#clip880)" d="M1271.38 1767.34 Q1267.77 1767.34 1265.94 1770.9 Q1264.14 1774.45 1264.14 1781.58 Q1264.14 1788.68 1265.94 1792.25 Q1267.77 1795.79 1271.38 1795.79 Q1275.02 1795.79 1276.82 1792.25 Q1278.65 1788.68 1278.65 1781.58 Q1278.65 1774.45 1276.82 1770.9 Q1275.02 1767.34 1271.38 1767.34 M1271.38 1763.64 Q1277.19 1763.64 1280.25 1768.24 Q1283.33 1772.83 1283.33 1781.58 Q1283.33 1790.3 1280.25 1794.91 Q1277.19 1799.49 1271.38 1799.49 Q1265.57 1799.49 1262.49 1794.91 Q1259.44 1790.3 1259.44 1781.58 Q1259.44 1772.83 1262.49 1768.24 Q1265.57 1763.64 1271.38 1763.64 Z" fill="#000000" fill-rule="nonzero" fill-opacity="1" /><path clip-path="url(#clip880)" d="M1301.54 1767.34 Q1297.93 1767.34 1296.11 1770.9 Q1294.3 1774.45 1294.3 1781.58 Q1294.3 1788.68 1296.11 1792.25 Q1297.93 1795.79 1301.54 1795.79 Q1305.18 1795.79 1306.98 1792.25 Q1308.81 1788.68 1308.81 1781.58 Q1308.81 1774.45 1306.98 1770.9 Q1305.18 1767.34 1301.54 1767.34 M1301.54 1763.64 Q1307.36 1763.64 1310.41 1768.24 Q1313.49 1772.83 1313.49 1781.58 Q1313.49 1790.3 1310.41 1794.91 Q1307.36 1799.49 1301.54 1799.49 Q1295.73 1799.49 1292.66 1794.91 Q1289.6 1790.3 1289.6 1781.58 Q1289.6 1772.83 1292.66 1768.24 Q1295.73 1763.64 1301.54 1763.64 Z" fill="#000000" fill-rule="nonzero" fill-opacity="1" /><path clip-path="url(#clip880)" d="M1331.71 1767.34 Q1328.1 1767.34 1326.27 1770.9 Q1324.46 1774.45 1324.46 1781.58 Q1324.46 1788.68 1326.27 1792.25 Q1328.1 1795.79 1331.71 1795.79 Q1335.34 1795.79 1337.15 1792.25 Q1338.98 1788.68 1338.98 1781.58 Q1338.98 1774.45 1337.15 1770.9 Q1335.34 1767.34 1331.71 1767.34 M1331.71 1763.64 Q1337.52 1763.64 1340.57 1768.24 Q1343.65 1772.83 1343.65 1781.58 Q1343.65 1790.3 1340.57 1794.91 Q1337.52 1799.49 1331.71 1799.49 Q1325.9 1799.49 1322.82 1794.91 Q1319.76 1790.3 1319.76 1781.58 Q1319.76 1772.83 1322.82 1768.24 Q1325.9 1763.64 1331.71 1763.64 Z" fill="#000000" fill-rule="nonzero" fill-opacity="1" /><path clip-path="url(#clip880)" d="M1758.67 1779.68 Q1755.53 1779.68 1753.67 1781.83 Q1751.85 1783.98 1751.85 1787.73 Q1751.85 1791.46 1753.67 1793.64 Q1755.53 1795.79 1758.67 1795.79 Q1761.82 1795.79 1763.65 1793.64 Q1765.5 1791.46 1765.5 1787.73 Q1765.5 1783.98 1763.65 1781.83 Q1761.82 1779.68 1758.67 1779.68 M1767.96 1765.02 L1767.96 1769.28 Q1766.2 1768.45 1764.39 1768.01 Q1762.61 1767.57 1760.85 1767.57 Q1756.22 1767.57 1753.77 1770.7 Q1751.34 1773.82 1750.99 1780.14 Q1752.35 1778.13 1754.42 1777.06 Q1756.48 1775.97 1758.95 1775.97 Q1764.16 1775.97 1767.17 1779.15 Q1770.2 1782.29 1770.2 1787.73 Q1770.2 1793.06 1767.05 1796.27 Q1763.91 1799.49 1758.67 1799.49 Q1752.68 1799.49 1749.51 1794.91 Q1746.34 1790.3 1746.34 1781.58 Q1746.34 1773.38 1750.23 1768.52 Q1754.11 1763.64 1760.67 1763.64 Q1762.42 1763.64 1764.21 1763.98 Q1766.01 1764.33 1767.96 1765.02 Z" fill="#000000" fill-rule="nonzero" fill-opacity="1" /><path clip-path="url(#clip880)" d="M1788.26 1767.34 Q1784.65 1767.34 1782.82 1770.9 Q1781.01 1774.45 1781.01 1781.58 Q1781.01 1788.68 1782.82 1792.25 Q1784.65 1795.79 1788.26 1795.79 Q1791.89 1795.79 1793.7 1792.25 Q1795.53 1788.68 1795.53 1781.58 Q1795.53 1774.45 1793.7 1770.9 Q1791.89 1767.34 1788.26 1767.34 M1788.26 1763.64 Q1794.07 1763.64 1797.12 1768.24 Q1800.2 1772.83 1800.2 1781.58 Q1800.2 1790.3 1797.12 1794.91 Q1794.07 1799.49 1788.26 1799.49 Q1782.45 1799.49 1779.37 1794.91 Q1776.31 1790.3 1776.31 1781.58 Q1776.31 1772.83 1779.37 1768.24 Q1782.45 1763.64 1788.26 1763.64 Z" fill="#000000" fill-rule="nonzero" fill-opacity="1" /><path clip-path="url(#clip880)" d="M1818.42 1767.34 Q1814.81 1767.34 1812.98 1770.9 Q1811.17 1774.45 1811.17 1781.58 Q1811.17 1788.68 1812.98 1792.25 Q1814.81 1795.79 1818.42 1795.79 Q1822.05 1795.79 1823.86 1792.25 Q1825.69 1788.68 1825.69 1781.58 Q1825.69 1774.45 1823.86 1770.9 Q1822.05 1767.34 1818.42 1767.34 M1818.42 1763.64 Q1824.23 1763.64 1827.29 1768.24 Q1830.36 1772.83 1830.36 1781.58 Q1830.36 1790.3 1827.29 1794.91 Q1824.23 1799.49 1818.42 1799.49 Q1812.61 1799.49 1809.53 1794.91 Q1806.47 1790.3 1806.47 1781.58 Q1806.47 1772.83 1809.53 1768.24 Q1812.61 1763.64 1818.42 1763.64 Z" fill="#000000" fill-rule="nonzero" fill-opacity="1" /><path clip-path="url(#clip880)" d="M1848.58 1767.34 Q1844.97 1767.34 1843.14 1770.9 Q1841.34 1774.45 1841.34 1781.58 Q1841.34 1788.68 1843.14 1792.25 Q1844.97 1795.79 1848.58 1795.79 Q1852.22 1795.79 1854.02 1792.25 Q1855.85 1788.68 1855.85 1781.58 Q1855.85 1774.45 1854.02 1770.9 Q1852.22 1767.34 1848.58 1767.34 M1848.58 1763.64 Q1854.39 1763.64 1857.45 1768.24 Q1860.53 1772.83 1860.53 1781.58 Q1860.53 1790.3 1857.45 1794.91 Q1854.39 1799.49 1848.58 1799.49 Q1842.77 1799.49 1839.69 1794.91 Q1836.64 1790.3 1836.64 1781.58 Q1836.64 1772.83 1839.69 1768.24 Q1842.77 1763.64 1848.58 1763.64 Z" fill="#000000" fill-rule="nonzero" fill-opacity="1" /><path clip-path="url(#clip880)" d="M2275.51 1782.41 Q2272.18 1782.41 2270.26 1784.19 Q2268.36 1785.97 2268.36 1789.1 Q2268.36 1792.22 2270.26 1794.01 Q2272.18 1795.79 2275.51 1795.79 Q2278.85 1795.79 2280.77 1794.01 Q2282.69 1792.2 2282.69 1789.1 Q2282.69 1785.97 2280.77 1784.19 Q2278.87 1782.41 2275.51 1782.41 M2270.84 1780.42 Q2267.83 1779.68 2266.14 1777.62 Q2264.47 1775.56 2264.47 1772.59 Q2264.47 1768.45 2267.41 1766.04 Q2270.38 1763.64 2275.51 1763.64 Q2280.68 1763.64 2283.62 1766.04 Q2286.56 1768.45 2286.56 1772.59 Q2286.56 1775.56 2284.87 1777.62 Q2283.2 1779.68 2280.21 1780.42 Q2283.59 1781.21 2285.47 1783.5 Q2287.37 1785.79 2287.37 1789.1 Q2287.37 1794.12 2284.29 1796.81 Q2281.23 1799.49 2275.51 1799.49 Q2269.8 1799.49 2266.72 1796.81 Q2263.66 1794.12 2263.66 1789.1 Q2263.66 1785.79 2265.56 1783.5 Q2267.46 1781.21 2270.84 1780.42 M2269.13 1773.03 Q2269.13 1775.72 2270.79 1777.22 Q2272.48 1778.73 2275.51 1778.73 Q2278.52 1778.73 2280.21 1777.22 Q2281.93 1775.72 2281.93 1773.03 Q2281.93 1770.35 2280.21 1768.84 Q2278.52 1767.34 2275.51 1767.34 Q2272.48 1767.34 2270.79 1768.84 Q2269.13 1770.35 2269.13 1773.03 Z" fill="#000000" fill-rule="nonzero" fill-opacity="1" /><path clip-path="url(#clip880)" d="M2305.68 1767.34 Q2302.06 1767.34 2300.24 1770.9 Q2298.43 1774.45 2298.43 1781.58 Q2298.43 1788.68 2300.24 1792.25 Q2302.06 1795.79 2305.68 1795.79 Q2309.31 1795.79 2311.12 1792.25 Q2312.94 1788.68 2312.94 1781.58 Q2312.94 1774.45 2311.12 1770.9 Q2309.31 1767.34 2305.68 1767.34 M2305.68 1763.64 Q2311.49 1763.64 2314.54 1768.24 Q2317.62 1772.83 2317.62 1781.58 Q2317.62 1790.3 2314.54 1794.91 Q2311.49 1799.49 2305.68 1799.49 Q2299.87 1799.49 2296.79 1794.91 Q2293.73 1790.3 2293.73 1781.58 Q2293.73 1772.83 2296.79 1768.24 Q2299.87 1763.64 2305.68 1763.64 Z" fill="#000000" fill-rule="nonzero" fill-opacity="1" /><path clip-path="url(#clip880)" d="M2335.84 1767.34 Q2332.23 1767.34 2330.4 1770.9 Q2328.59 1774.45 2328.59 1781.58 Q2328.59 1788.68 2330.4 1792.25 Q2332.23 1795.79 2335.84 1795.79 Q2339.47 1795.79 2341.28 1792.25 Q2343.11 1788.68 2343.11 1781.58 Q2343.11 1774.45 2341.28 1770.9 Q2339.47 1767.34 2335.84 1767.34 M2335.84 1763.64 Q2341.65 1763.64 2344.7 1768.24 Q2347.78 1772.83 2347.78 1781.58 Q2347.78 1790.3 2344.7 1794.91 Q2341.65 1799.49 2335.84 1799.49 Q2330.03 1799.49 2326.95 1794.91 Q2323.89 1790.3 2323.89 1781.58 Q2323.89 1772.83 2326.95 1768.24 Q2330.03 1763.64 2335.84 1763.64 Z" fill="#000000" fill-rule="nonzero" fill-opacity="1" /><path clip-path="url(#clip880)" d="M2366 1767.34 Q2362.39 1767.34 2360.56 1770.9 Q2358.75 1774.45 2358.75 1781.58 Q2358.75 1788.68 2360.56 1792.25 Q2362.39 1795.79 2366 1795.79 Q2369.63 1795.79 2371.44 1792.25 Q2373.27 1788.68 2373.27 1781.58 Q2373.27 1774.45 2371.44 1770.9 Q2369.63 1767.34 2366 1767.34 M2366 1763.64 Q2371.81 1763.64 2374.87 1768.24 Q2377.94 1772.83 2377.94 1781.58 Q2377.94 1790.3 2374.87 1794.91 Q2371.81 1799.49 2366 1799.49 Q2360.19 1799.49 2357.11 1794.91 Q2354.06 1790.3 2354.06 1781.58 Q2354.06 1772.83 2357.11 1768.24 Q2360.19 1763.64 2366 1763.64 Z" fill="#000000" fill-rule="nonzero" fill-opacity="1" /><path clip-path="url(#clip880)" d="M985.786 1841.06 L985.786 1878.02 L993.552 1878.02 Q1003.39 1878.02 1007.94 1873.56 Q1012.52 1869.11 1012.52 1859.49 Q1012.52 1849.94 1007.94 1845.52 Q1003.39 1841.06 993.552 1841.06 L985.786 1841.06 M979.356 1835.78 L992.565 1835.78 Q1006.38 1835.78 1012.84 1841.54 Q1019.3 1847.27 1019.3 1859.49 Q1019.3 1871.78 1012.81 1877.54 Q1006.32 1883.3 992.565 1883.3 L979.356 1883.3 L979.356 1835.78 Z" fill="#000000" fill-rule="nonzero" fill-opacity="1" /><path clip-path="url(#clip880)" d="M1059.79 1864.01 L1059.79 1866.88 L1032.86 1866.88 Q1033.24 1872.92 1036.49 1876.11 Q1039.77 1879.26 1045.59 1879.26 Q1048.97 1879.26 1052.12 1878.43 Q1055.3 1877.6 1058.42 1875.95 L1058.42 1881.49 Q1055.27 1882.82 1051.96 1883.52 Q1048.65 1884.22 1045.24 1884.22 Q1036.71 1884.22 1031.71 1879.26 Q1026.75 1874.29 1026.75 1865.83 Q1026.75 1857.07 1031.46 1851.95 Q1036.2 1846.79 1044.22 1846.79 Q1051.42 1846.79 1055.59 1851.44 Q1059.79 1856.06 1059.79 1864.01 M1053.93 1862.29 Q1053.87 1857.49 1051.23 1854.62 Q1048.62 1851.76 1044.29 1851.76 Q1039.38 1851.76 1036.42 1854.53 Q1033.5 1857.3 1033.05 1862.33 L1053.93 1862.29 Z" fill="#000000" fill-rule="nonzero" fill-opacity="1" /><path clip-path="url(#clip880)" d="M1069.4 1833.78 L1075.26 1833.78 L1075.26 1883.3 L1069.4 1883.3 L1069.4 1833.78 Z" fill="#000000" fill-rule="nonzero" fill-opacity="1" /><path clip-path="url(#clip880)" d="M1103.71 1865.38 Q1096.61 1865.38 1093.88 1867 Q1091.14 1868.63 1091.14 1872.54 Q1091.14 1875.66 1093.18 1877.51 Q1095.24 1879.32 1098.78 1879.32 Q1103.65 1879.32 1106.57 1875.88 Q1109.54 1872.42 1109.54 1866.69 L1109.54 1865.38 L1103.71 1865.38 M1115.39 1862.96 L1115.39 1883.3 L1109.54 1883.3 L1109.54 1877.89 Q1107.53 1881.14 1104.54 1882.7 Q1101.55 1884.22 1097.22 1884.22 Q1091.74 1884.22 1088.5 1881.17 Q1085.28 1878.08 1085.28 1872.92 Q1085.28 1866.91 1089.29 1863.85 Q1093.33 1860.8 1101.32 1860.8 L1109.54 1860.8 L1109.54 1860.23 Q1109.54 1856.18 1106.86 1853.99 Q1104.22 1851.76 1099.41 1851.76 Q1096.36 1851.76 1093.46 1852.49 Q1090.57 1853.22 1087.89 1854.69 L1087.89 1849.28 Q1091.11 1848.03 1094.13 1847.43 Q1097.15 1846.79 1100.02 1846.79 Q1107.75 1846.79 1111.57 1850.8 Q1115.39 1854.81 1115.39 1862.96 Z" fill="#000000" fill-rule="nonzero" fill-opacity="1" /><path clip-path="url(#clip880)" d="M1142.29 1886.61 Q1139.8 1892.98 1137.45 1894.92 Q1135.09 1896.86 1131.15 1896.86 L1126.47 1896.86 L1126.47 1891.96 L1129.91 1891.96 Q1132.32 1891.96 1133.66 1890.81 Q1135 1889.67 1136.62 1885.4 L1137.67 1882.73 L1123.25 1847.65 L1129.46 1847.65 L1140.6 1875.53 L1151.74 1847.65 L1157.95 1847.65 L1142.29 1886.61 Z" fill="#000000" fill-rule="nonzero" fill-opacity="1" /><path clip-path="url(#clip880)" d="M1196.52 1864.01 L1196.52 1866.88 L1169.6 1866.88 Q1169.98 1872.92 1173.22 1876.11 Q1176.5 1879.26 1182.33 1879.26 Q1185.7 1879.26 1188.85 1878.43 Q1192.03 1877.6 1195.15 1875.95 L1195.15 1881.49 Q1192 1882.82 1188.69 1883.52 Q1185.38 1884.22 1181.98 1884.22 Q1173.45 1884.22 1168.45 1879.26 Q1163.48 1874.29 1163.48 1865.83 Q1163.48 1857.07 1168.2 1851.95 Q1172.94 1846.79 1180.96 1846.79 Q1188.15 1846.79 1192.32 1851.44 Q1196.52 1856.06 1196.52 1864.01 M1190.67 1862.29 Q1190.6 1857.49 1187.96 1854.62 Q1185.35 1851.76 1181.02 1851.76 Q1176.12 1851.76 1173.16 1854.53 Q1170.23 1857.3 1169.79 1862.33 L1190.67 1862.29 Z" fill="#000000" fill-rule="nonzero" fill-opacity="1" /><path clip-path="url(#clip880)" d="M1229.59 1853.06 L1229.59 1833.78 L1235.45 1833.78 L1235.45 1883.3 L1229.59 1883.3 L1229.59 1877.95 Q1227.75 1881.14 1224.91 1882.7 Q1222.11 1884.22 1218.17 1884.22 Q1211.7 1884.22 1207.63 1879.07 Q1203.59 1873.91 1203.59 1865.51 Q1203.59 1857.11 1207.63 1851.95 Q1211.7 1846.79 1218.17 1846.79 Q1222.11 1846.79 1224.91 1848.35 Q1227.75 1849.88 1229.59 1853.06 M1209.64 1865.51 Q1209.64 1871.97 1212.28 1875.66 Q1214.95 1879.32 1219.6 1879.32 Q1224.25 1879.32 1226.92 1875.66 Q1229.59 1871.97 1229.59 1865.51 Q1229.59 1859.05 1226.92 1855.39 Q1224.25 1851.7 1219.6 1851.7 Q1214.95 1851.7 1212.28 1855.39 Q1209.64 1859.05 1209.64 1865.51 Z" fill="#000000" fill-rule="nonzero" fill-opacity="1" /><path clip-path="url(#clip880)" d="M1273.9 1877.95 L1273.9 1896.86 L1268.01 1896.86 L1268.01 1847.65 L1273.9 1847.65 L1273.9 1853.06 Q1275.74 1849.88 1278.54 1848.35 Q1281.38 1846.79 1285.29 1846.79 Q1291.79 1846.79 1295.83 1851.95 Q1299.9 1857.11 1299.9 1865.51 Q1299.9 1873.91 1295.83 1879.07 Q1291.79 1884.22 1285.29 1884.22 Q1281.38 1884.22 1278.54 1882.7 Q1275.74 1881.14 1273.9 1877.95 M1293.82 1865.51 Q1293.82 1859.05 1291.15 1855.39 Q1288.51 1851.7 1283.86 1851.7 Q1279.21 1851.7 1276.54 1855.39 Q1273.9 1859.05 1273.9 1865.51 Q1273.9 1871.97 1276.54 1875.66 Q1279.21 1879.32 1283.86 1879.32 Q1288.51 1879.32 1291.15 1875.66 Q1293.82 1871.97 1293.82 1865.51 Z" fill="#000000" fill-rule="nonzero" fill-opacity="1" /><path clip-path="url(#clip880)" d="M1323.42 1851.76 Q1318.71 1851.76 1315.97 1855.45 Q1313.24 1859.11 1313.24 1865.51 Q1313.24 1871.91 1315.94 1875.6 Q1318.68 1879.26 1323.42 1879.26 Q1328.1 1879.26 1330.84 1875.57 Q1333.58 1871.87 1333.58 1865.51 Q1333.58 1859.17 1330.84 1855.48 Q1328.1 1851.76 1323.42 1851.76 M1323.42 1846.79 Q1331.06 1846.79 1335.42 1851.76 Q1339.78 1856.72 1339.78 1865.51 Q1339.78 1874.26 1335.42 1879.26 Q1331.06 1884.22 1323.42 1884.22 Q1315.75 1884.22 1311.39 1879.26 Q1307.06 1874.26 1307.06 1865.51 Q1307.06 1856.72 1311.39 1851.76 Q1315.75 1846.79 1323.42 1846.79 Z" fill="#000000" fill-rule="nonzero" fill-opacity="1" /><path clip-path="url(#clip880)" d="M1355.16 1877.95 L1355.16 1896.86 L1349.27 1896.86 L1349.27 1847.65 L1355.16 1847.65 L1355.16 1853.06 Q1357 1849.88 1359.8 1848.35 Q1362.64 1846.79 1366.55 1846.79 Q1373.04 1846.79 1377.09 1851.95 Q1381.16 1857.11 1381.16 1865.51 Q1381.16 1873.91 1377.09 1879.07 Q1373.04 1884.22 1366.55 1884.22 Q1362.64 1884.22 1359.8 1882.7 Q1357 1881.14 1355.16 1877.95 M1375.08 1865.51 Q1375.08 1859.05 1372.41 1855.39 Q1369.77 1851.7 1365.12 1851.7 Q1360.47 1851.7 1357.8 1855.39 Q1355.16 1859.05 1355.16 1865.51 Q1355.16 1871.97 1357.8 1875.66 Q1360.47 1879.32 1365.12 1879.32 Q1369.77 1879.32 1372.41 1875.66 Q1375.08 1871.97 1375.08 1865.51 Z" fill="#000000" fill-rule="nonzero" fill-opacity="1" /><path clip-path="url(#clip880)" d="M1390.26 1869.23 L1390.26 1847.65 L1396.12 1847.65 L1396.12 1869.01 Q1396.12 1874.07 1398.09 1876.62 Q1400.07 1879.13 1404.01 1879.13 Q1408.76 1879.13 1411.49 1876.11 Q1414.26 1873.08 1414.26 1867.86 L1414.26 1847.65 L1420.12 1847.65 L1420.12 1883.3 L1414.26 1883.3 L1414.26 1877.83 Q1412.13 1881.07 1409.3 1882.66 Q1406.5 1884.22 1402.77 1884.22 Q1396.63 1884.22 1393.45 1880.4 Q1390.26 1876.59 1390.26 1869.23 M1405 1846.79 L1405 1846.79 Z" fill="#000000" fill-rule="nonzero" fill-opacity="1" /><path clip-path="url(#clip880)" d="M1432.18 1833.78 L1438.04 1833.78 L1438.04 1883.3 L1432.18 1883.3 L1432.18 1833.78 Z" fill="#000000" fill-rule="nonzero" fill-opacity="1" /><path clip-path="url(#clip880)" d="M1466.49 1865.38 Q1459.39 1865.38 1456.66 1867 Q1453.92 1868.63 1453.92 1872.54 Q1453.92 1875.66 1455.96 1877.51 Q1458.03 1879.32 1461.56 1879.32 Q1466.43 1879.32 1469.36 1875.88 Q1472.32 1872.42 1472.32 1866.69 L1472.32 1865.38 L1466.49 1865.38 M1478.17 1862.96 L1478.17 1883.3 L1472.32 1883.3 L1472.32 1877.89 Q1470.31 1881.14 1467.32 1882.7 Q1464.33 1884.22 1460 1884.22 Q1454.52 1884.22 1451.28 1881.17 Q1448.06 1878.08 1448.06 1872.92 Q1448.06 1866.91 1452.07 1863.85 Q1456.12 1860.8 1464.1 1860.8 L1472.32 1860.8 L1472.32 1860.23 Q1472.32 1856.18 1469.64 1853.99 Q1467 1851.76 1462.2 1851.76 Q1459.14 1851.76 1456.24 1852.49 Q1453.35 1853.22 1450.67 1854.69 L1450.67 1849.28 Q1453.89 1848.03 1456.91 1847.43 Q1459.94 1846.79 1462.8 1846.79 Q1470.53 1846.79 1474.35 1850.8 Q1478.17 1854.81 1478.17 1862.96 Z" fill="#000000" fill-rule="nonzero" fill-opacity="1" /><path clip-path="url(#clip880)" d="M1496.03 1837.53 L1496.03 1847.65 L1508.09 1847.65 L1508.09 1852.2 L1496.03 1852.2 L1496.03 1871.56 Q1496.03 1875.92 1497.21 1877.16 Q1498.42 1878.4 1502.08 1878.4 L1508.09 1878.4 L1508.09 1883.3 L1502.08 1883.3 Q1495.3 1883.3 1492.72 1880.79 Q1490.14 1878.24 1490.14 1871.56 L1490.14 1852.2 L1485.84 1852.2 L1485.84 1847.65 L1490.14 1847.65 L1490.14 1837.53 L1496.03 1837.53 Z" fill="#000000" fill-rule="nonzero" fill-opacity="1" /><path clip-path="url(#clip880)" d="M1515.79 1847.65 L1521.65 1847.65 L1521.65 1883.3 L1515.79 1883.3 L1515.79 1847.65 M1515.79 1833.78 L1521.65 1833.78 L1521.65 1841.19 L1515.79 1841.19 L1515.79 1833.78 Z" fill="#000000" fill-rule="nonzero" fill-opacity="1" /><path clip-path="url(#clip880)" d="M1547.72 1851.76 Q1543.01 1851.76 1540.27 1855.45 Q1537.53 1859.11 1537.53 1865.51 Q1537.53 1871.91 1540.24 1875.6 Q1542.98 1879.26 1547.72 1879.26 Q1552.4 1879.26 1555.13 1875.57 Q1557.87 1871.87 1557.87 1865.51 Q1557.87 1859.17 1555.13 1855.48 Q1552.4 1851.76 1547.72 1851.76 M1547.72 1846.79 Q1555.36 1846.79 1559.72 1851.76 Q1564.08 1856.72 1564.08 1865.51 Q1564.08 1874.26 1559.72 1879.26 Q1555.36 1884.22 1547.72 1884.22 Q1540.05 1884.22 1535.69 1879.26 Q1531.36 1874.26 1531.36 1865.51 Q1531.36 1856.72 1535.69 1851.76 Q1540.05 1846.79 1547.72 1846.79 Z" fill="#000000" fill-rule="nonzero" fill-opacity="1" /><path clip-path="url(#clip880)" d="M1603.42 1861.78 L1603.42 1883.3 L1597.56 1883.3 L1597.56 1861.98 Q1597.56 1856.92 1595.59 1854.4 Q1593.62 1851.89 1589.67 1851.89 Q1584.93 1851.89 1582.19 1854.91 Q1579.45 1857.93 1579.45 1863.15 L1579.45 1883.3 L1573.56 1883.3 L1573.56 1847.65 L1579.45 1847.65 L1579.45 1853.19 Q1581.55 1849.98 1584.38 1848.39 Q1587.25 1846.79 1590.97 1846.79 Q1597.12 1846.79 1600.27 1850.61 Q1603.42 1854.4 1603.42 1861.78 Z" fill="#000000" fill-rule="nonzero" fill-opacity="1" /><path clip-path="url(#clip880)" d="M1636.07 1835.78 L1644.73 1835.78 L1665.8 1875.53 L1665.8 1835.78 L1672.04 1835.78 L1672.04 1883.3 L1663.38 1883.3 L1642.31 1843.55 L1642.31 1883.3 L1636.07 1883.3 L1636.07 1835.78 Z" fill="#000000" fill-rule="nonzero" fill-opacity="1" /><path clip-path="url(#clip880)" d="M1698.65 1833.84 Q1694.38 1841.16 1692.32 1848.32 Q1690.25 1855.48 1690.25 1862.84 Q1690.25 1870.19 1692.32 1877.41 Q1694.42 1884.61 1698.65 1891.89 L1693.56 1891.89 Q1688.78 1884.41 1686.4 1877.19 Q1684.04 1869.96 1684.04 1862.84 Q1684.04 1855.74 1686.4 1848.54 Q1688.75 1841.35 1693.56 1833.84 L1698.65 1833.84 Z" fill="#000000" fill-rule="nonzero" fill-opacity="1" /><path clip-path="url(#clip880)" d="M1715.8 1837.53 L1715.8 1847.65 L1727.87 1847.65 L1727.87 1852.2 L1715.8 1852.2 L1715.8 1871.56 Q1715.8 1875.92 1716.98 1877.16 Q1718.19 1878.4 1721.85 1878.4 L1727.87 1878.4 L1727.87 1883.3 L1721.85 1883.3 Q1715.07 1883.3 1712.49 1880.79 Q1709.92 1878.24 1709.92 1871.56 L1709.92 1852.2 L1705.62 1852.2 L1705.62 1847.65 L1709.92 1847.65 L1709.92 1837.53 L1715.8 1837.53 Z" fill="#000000" fill-rule="nonzero" fill-opacity="1" /><path clip-path="url(#clip880)" d="M1736.33 1860.16 L1777.14 1860.16 L1777.14 1865.57 L1736.33 1865.57 L1736.33 1860.16 Z" fill="#000000" fill-rule="nonzero" fill-opacity="1" /><path clip-path="url(#clip880)" d="M1807.66 1876.81 Q1808.81 1878.34 1812.25 1878.34 L1815.08 1878.34 L1815.08 1883.3 L1811.55 1883.3 Q1805.82 1883.3 1803.21 1880.25 Q1800.6 1877.13 1800.6 1870.38 L1800.6 1853.51 L1787.23 1853.51 L1787.23 1847.65 L1820.11 1847.65 L1820.11 1853.51 L1806.58 1853.51 L1806.58 1870.73 Q1806.58 1875.34 1807.66 1876.81 Z" fill="#000000" fill-rule="nonzero" fill-opacity="1" /><path clip-path="url(#clip880)" d="M1828.51 1833.84 L1833.6 1833.84 Q1838.38 1841.35 1840.73 1848.54 Q1843.12 1855.74 1843.12 1862.84 Q1843.12 1869.96 1840.73 1877.19 Q1838.38 1884.41 1833.6 1891.89 L1828.51 1891.89 Q1832.74 1884.61 1834.81 1877.41 Q1836.91 1870.19 1836.91 1862.84 Q1836.91 1855.48 1834.81 1848.32 Q1832.74 1841.16 1828.51 1833.84 Z" fill="#000000" fill-rule="nonzero" fill-opacity="1" /><polyline clip-path="url(#clip880)" style="stroke:#000000; stroke-linecap:round; stroke-linejoin:round; stroke-width:4; stroke-opacity:1; fill:none" points="181.719,1734.12 181.719,127.792 "/>
<polyline clip-path="url(#clip880)" style="stroke:#000000; stroke-linecap:round; stroke-linejoin:round; stroke-width:4; stroke-opacity:1; fill:none" points="181.719,1515.62 200.617,1515.62 "/>
<polyline clip-path="url(#clip880)" style="stroke:#000000; stroke-linecap:round; stroke-linejoin:round; stroke-width:4; stroke-opacity:1; fill:none" points="181.719,1291.82 200.617,1291.82 "/>
<polyline clip-path="url(#clip880)" style="stroke:#000000; stroke-linecap:round; stroke-linejoin:round; stroke-width:4; stroke-opacity:1; fill:none" points="181.719,1068.02 200.617,1068.02 "/>
<polyline clip-path="url(#clip880)" style="stroke:#000000; stroke-linecap:round; stroke-linejoin:round; stroke-width:4; stroke-opacity:1; fill:none" points="181.719,844.213 200.617,844.213 "/>
<polyline clip-path="url(#clip880)" style="stroke:#000000; stroke-linecap:round; stroke-linejoin:round; stroke-width:4; stroke-opacity:1; fill:none" points="181.719,620.411 200.617,620.411 "/>
<polyline clip-path="url(#clip880)" style="stroke:#000000; stroke-linecap:round; stroke-linejoin:round; stroke-width:4; stroke-opacity:1; fill:none" points="181.719,396.609 200.617,396.609 "/>
<polyline clip-path="url(#clip880)" style="stroke:#000000; stroke-linecap:round; stroke-linejoin:round; stroke-width:4; stroke-opacity:1; fill:none" points="181.719,172.807 200.617,172.807 "/>
<path clip-path="url(#clip880)" d="M125.08 1528.96 L141.399 1528.96 L141.399 1532.9 L119.455 1532.9 L119.455 1528.96 Q122.117 1526.21 126.7 1521.58 Q131.307 1516.93 132.488 1515.59 Q134.733 1513.06 135.612 1511.33 Q136.515 1509.57 136.515 1507.88 Q136.515 1505.12 134.571 1503.39 Q132.65 1501.65 129.548 1501.65 Q127.349 1501.65 124.895 1502.41 Q122.464 1503.18 119.687 1504.73 L119.687 1500.01 Q122.511 1498.87 124.964 1498.29 Q127.418 1497.71 129.455 1497.71 Q134.825 1497.71 138.02 1500.4 Q141.214 1503.09 141.214 1507.58 Q141.214 1509.71 140.404 1511.63 Q139.617 1513.53 137.511 1516.12 Q136.932 1516.79 133.83 1520.01 Q130.728 1523.2 125.08 1528.96 Z" fill="#000000" fill-rule="nonzero" fill-opacity="1" /><path clip-path="url(#clip880)" d="M134.27 1290.46 Q137.626 1291.18 139.501 1293.45 Q141.399 1295.72 141.399 1299.05 Q141.399 1304.17 137.881 1306.97 Q134.362 1309.77 127.881 1309.77 Q125.705 1309.77 123.39 1309.33 Q121.099 1308.91 118.645 1308.06 L118.645 1303.54 Q120.589 1304.68 122.904 1305.26 Q125.219 1305.83 127.742 1305.83 Q132.14 1305.83 134.432 1304.1 Q136.747 1302.36 136.747 1299.05 Q136.747 1296 134.594 1294.28 Q132.464 1292.55 128.645 1292.55 L124.617 1292.55 L124.617 1288.7 L128.83 1288.7 Q132.279 1288.7 134.108 1287.34 Q135.937 1285.95 135.937 1283.36 Q135.937 1280.7 134.038 1279.28 Q132.163 1277.85 128.645 1277.85 Q126.724 1277.85 124.525 1278.26 Q122.326 1278.68 119.687 1279.56 L119.687 1275.39 Q122.349 1274.65 124.663 1274.28 Q127.001 1273.91 129.062 1273.91 Q134.386 1273.91 137.487 1276.34 Q140.589 1278.75 140.589 1282.87 Q140.589 1285.74 138.946 1287.73 Q137.302 1289.7 134.27 1290.46 Z" fill="#000000" fill-rule="nonzero" fill-opacity="1" /><path clip-path="url(#clip880)" d="M131.816 1054.81 L120.011 1073.26 L131.816 1073.26 L131.816 1054.81 M130.589 1050.74 L136.469 1050.74 L136.469 1073.26 L141.399 1073.26 L141.399 1077.15 L136.469 1077.15 L136.469 1085.3 L131.816 1085.3 L131.816 1077.15 L116.214 1077.15 L116.214 1072.63 L130.589 1050.74 Z" fill="#000000" fill-rule="nonzero" fill-opacity="1" /><path clip-path="url(#clip880)" d="M120.497 826.933 L138.853 826.933 L138.853 830.868 L124.779 830.868 L124.779 839.341 Q125.798 838.993 126.816 838.831 Q127.835 838.646 128.853 838.646 Q134.64 838.646 138.02 841.817 Q141.399 844.989 141.399 850.405 Q141.399 855.984 137.927 859.086 Q134.455 862.165 128.136 862.165 Q125.96 862.165 123.691 861.794 Q121.446 861.424 119.039 860.683 L119.039 855.984 Q121.122 857.118 123.344 857.674 Q125.566 858.229 128.043 858.229 Q132.048 858.229 134.386 856.123 Q136.724 854.016 136.724 850.405 Q136.724 846.794 134.386 844.688 Q132.048 842.581 128.043 842.581 Q126.168 842.581 124.293 842.998 Q122.441 843.415 120.497 844.294 L120.497 826.933 Z" fill="#000000" fill-rule="nonzero" fill-opacity="1" /><path clip-path="url(#clip880)" d="M129.872 618.548 Q126.724 618.548 124.872 620.7 Q123.043 622.853 123.043 626.603 Q123.043 630.33 124.872 632.506 Q126.724 634.659 129.872 634.659 Q133.02 634.659 134.849 632.506 Q136.7 630.33 136.7 626.603 Q136.7 622.853 134.849 620.7 Q133.02 618.548 129.872 618.548 M139.154 603.895 L139.154 608.154 Q137.395 607.321 135.589 606.881 Q133.807 606.441 132.048 606.441 Q127.418 606.441 124.964 609.566 Q122.534 612.691 122.187 619.011 Q123.552 616.997 125.613 615.932 Q127.673 614.844 130.15 614.844 Q135.358 614.844 138.367 618.015 Q141.399 621.163 141.399 626.603 Q141.399 631.927 138.251 635.145 Q135.103 638.362 129.872 638.362 Q123.876 638.362 120.705 633.779 Q117.534 629.173 117.534 620.446 Q117.534 612.251 121.423 607.39 Q125.312 602.506 131.863 602.506 Q133.622 602.506 135.404 602.853 Q137.21 603.201 139.154 603.895 Z" fill="#000000" fill-rule="nonzero" fill-opacity="1" /><path clip-path="url(#clip880)" d="M119.177 379.329 L141.399 379.329 L141.399 381.32 L128.853 413.889 L123.969 413.889 L135.775 383.264 L119.177 383.264 L119.177 379.329 Z" fill="#000000" fill-rule="nonzero" fill-opacity="1" /><path clip-path="url(#clip880)" d="M129.548 173.675 Q126.214 173.675 124.293 175.457 Q122.395 177.239 122.395 180.364 Q122.395 183.489 124.293 185.272 Q126.214 187.054 129.548 187.054 Q132.881 187.054 134.802 185.272 Q136.724 183.466 136.724 180.364 Q136.724 177.239 134.802 175.457 Q132.904 173.675 129.548 173.675 M124.872 171.684 Q121.863 170.943 120.173 168.883 Q118.506 166.823 118.506 163.86 Q118.506 159.716 121.446 157.309 Q124.409 154.902 129.548 154.902 Q134.71 154.902 137.65 157.309 Q140.589 159.716 140.589 163.86 Q140.589 166.823 138.9 168.883 Q137.233 170.943 134.247 171.684 Q137.626 172.471 139.501 174.763 Q141.399 177.054 141.399 180.364 Q141.399 185.388 138.321 188.073 Q135.265 190.758 129.548 190.758 Q123.83 190.758 120.751 188.073 Q117.696 185.388 117.696 180.364 Q117.696 177.054 119.594 174.763 Q121.492 172.471 124.872 171.684 M123.159 164.3 Q123.159 166.985 124.826 168.489 Q126.515 169.994 129.548 169.994 Q132.557 169.994 134.247 168.489 Q135.96 166.985 135.96 164.3 Q135.96 161.615 134.247 160.11 Q132.557 158.605 129.548 158.605 Q126.515 158.605 124.826 160.11 Q123.159 161.615 123.159 164.3 Z" fill="#000000" fill-rule="nonzero" fill-opacity="1" /><path clip-path="url(#clip880)" d="M19.402 987.991 L37.2578 987.991 L37.2578 979.907 Q37.2578 975.419 34.9343 972.968 Q32.6108 970.517 28.314 970.517 Q24.0489 970.517 21.7255 972.968 Q19.402 975.419 19.402 979.907 L19.402 987.991 M14.1184 994.421 L14.1184 979.907 Q14.1184 971.918 17.7469 967.844 Q21.3435 963.738 28.314 963.738 Q35.3481 963.738 38.9447 967.844 Q42.5413 971.918 42.5413 979.907 L42.5413 987.991 L61.6384 987.991 L61.6384 994.421 L14.1184 994.421 Z" fill="#000000" fill-rule="nonzero" fill-opacity="1" /><path clip-path="url(#clip880)" d="M12.1769 941.299 Q19.4975 945.564 26.6589 947.633 Q33.8203 949.702 41.1727 949.702 Q48.5251 949.702 55.7502 947.633 Q62.9434 945.532 70.2321 941.299 L70.2321 946.391 Q62.7524 951.166 55.5274 953.553 Q48.3023 955.908 41.1727 955.908 Q34.0749 955.908 26.8817 953.553 Q19.6884 951.198 12.1769 946.391 L12.1769 941.299 Z" fill="#000000" fill-rule="nonzero" fill-opacity="1" /><path clip-path="url(#clip880)" d="M14.1184 929.681 L14.1184 921.024 L53.8723 899.954 L14.1184 899.954 L14.1184 893.715 L61.6384 893.715 L61.6384 902.373 L21.8846 923.443 L61.6384 923.443 L61.6384 929.681 L14.1184 929.681 Z" fill="#000000" fill-rule="nonzero" fill-opacity="1" /><path clip-path="url(#clip880)" d="M12.1769 882.098 L12.1769 877.005 Q19.6884 872.231 26.8817 869.876 Q34.0749 867.488 41.1727 867.488 Q48.3023 867.488 55.5274 869.876 Q62.7524 872.231 70.2321 877.005 L70.2321 882.098 Q62.9434 877.865 55.7502 875.796 Q48.5251 873.695 41.1727 873.695 Q33.8203 873.695 26.6589 875.796 Q19.4975 877.865 12.1769 882.098 Z" fill="#000000" fill-rule="nonzero" fill-opacity="1" /><path clip-path="url(#clip880)" d="M497.03 18.8205 L497.03 41.5461 L507.319 41.5461 Q513.031 41.5461 516.15 38.5889 Q519.269 35.6318 519.269 30.163 Q519.269 24.7348 516.15 21.7777 Q513.031 18.8205 507.319 18.8205 L497.03 18.8205 M488.847 12.096 L507.319 12.096 Q517.487 12.096 522.672 16.714 Q527.898 21.2916 527.898 30.163 Q527.898 39.1155 522.672 43.6931 Q517.487 48.2706 507.319 48.2706 L497.03 48.2706 L497.03 72.576 L488.847 72.576 L488.847 12.096 Z" fill="#000000" fill-rule="nonzero" fill-opacity="1" /><path clip-path="url(#clip880)" d="M574.402 48.0275 L574.402 51.6733 L540.131 51.6733 Q540.617 59.3701 544.749 63.421 Q548.922 67.4314 556.335 67.4314 Q560.629 67.4314 564.639 66.3781 Q568.69 65.3249 572.66 63.2184 L572.66 70.267 Q568.65 71.9684 564.437 72.8596 Q560.224 73.7508 555.889 73.7508 Q545.033 73.7508 538.673 67.4314 Q532.354 61.1119 532.354 50.3365 Q532.354 39.1965 538.349 32.6746 Q544.385 26.1121 554.593 26.1121 Q563.748 26.1121 569.055 32.0264 Q574.402 37.9003 574.402 48.0275 M566.948 45.84 Q566.867 39.7232 563.505 36.0774 Q560.183 32.4315 554.674 32.4315 Q548.436 32.4315 544.668 35.9558 Q540.941 39.4801 540.374 45.8805 L566.948 45.84 Z" fill="#000000" fill-rule="nonzero" fill-opacity="1" /><path clip-path="url(#clip880)" d="M612.926 34.1734 Q611.67 33.4443 610.171 33.1202 Q608.713 32.7556 606.931 32.7556 Q600.611 32.7556 597.208 36.8875 Q593.846 40.9789 593.846 48.6757 L593.846 72.576 L586.352 72.576 L586.352 27.2059 L593.846 27.2059 L593.846 34.2544 Q596.196 30.1225 599.963 28.1376 Q603.73 26.1121 609.118 26.1121 Q609.888 26.1121 610.82 26.2337 Q611.751 26.3147 612.885 26.5172 L612.926 34.1734 Z" fill="#000000" fill-rule="nonzero" fill-opacity="1" /><path clip-path="url(#clip880)" d="M611.67 46.5287 L633.505 46.5287 L633.505 53.1722 L611.67 53.1722 L611.67 46.5287 Z" fill="#000000" fill-rule="nonzero" fill-opacity="1" /><path clip-path="url(#clip880)" d="M690.987 16.7545 L690.987 25.383 Q686.855 21.5346 682.156 19.6307 Q677.497 17.7268 672.231 17.7268 Q661.861 17.7268 656.352 24.0867 Q650.842 30.4061 650.842 42.3968 Q650.842 54.3469 656.352 60.7069 Q661.861 67.0263 672.231 67.0263 Q677.497 67.0263 682.156 65.1223 Q686.855 63.2184 690.987 59.3701 L690.987 67.9175 Q686.693 70.8341 681.872 72.2924 Q677.092 73.7508 671.745 73.7508 Q658.013 73.7508 650.113 65.3654 Q642.214 56.9395 642.214 42.3968 Q642.214 27.8135 650.113 19.4281 Q658.013 11.0023 671.745 11.0023 Q677.173 11.0023 681.953 12.4606 Q686.774 13.8784 690.987 16.7545 Z" fill="#000000" fill-rule="nonzero" fill-opacity="1" /><path clip-path="url(#clip880)" d="M723.921 49.7694 Q714.887 49.7694 711.403 51.8354 Q707.92 53.9013 707.92 58.8839 Q707.92 62.8538 710.512 65.2034 Q713.145 67.5124 717.642 67.5124 Q723.84 67.5124 727.567 63.1374 Q731.334 58.7219 731.334 51.4303 L731.334 49.7694 L723.921 49.7694 M738.788 46.6907 L738.788 72.576 L731.334 72.576 L731.334 65.6895 Q728.782 69.8214 724.974 71.8063 Q721.166 73.7508 715.657 73.7508 Q708.689 73.7508 704.557 69.8619 Q700.466 65.9325 700.466 59.3701 Q700.466 51.7138 705.57 47.825 Q710.715 43.9361 720.883 43.9361 L731.334 43.9361 L731.334 43.2069 Q731.334 38.0623 727.931 35.2672 Q724.569 32.4315 718.452 32.4315 Q714.563 32.4315 710.877 33.3632 Q707.191 34.295 703.788 36.1584 L703.788 29.2718 Q707.879 27.692 711.728 26.9223 Q715.576 26.1121 719.222 26.1121 Q729.065 26.1121 733.927 31.2163 Q738.788 36.3204 738.788 46.6907 Z" fill="#000000" fill-rule="nonzero" fill-opacity="1" /><path clip-path="url(#clip880)" d="M761.351 65.7705 L761.351 89.8329 L753.857 89.8329 L753.857 27.2059 L761.351 27.2059 L761.351 34.0924 Q763.701 30.0415 767.265 28.0971 Q770.871 26.1121 775.853 26.1121 Q784.117 26.1121 789.262 32.6746 Q794.447 39.2371 794.447 49.9314 Q794.447 60.6258 789.262 67.1883 Q784.117 73.7508 775.853 73.7508 Q770.871 73.7508 767.265 71.8063 Q763.701 69.8214 761.351 65.7705 M786.71 49.9314 Q786.71 41.7081 783.307 37.0496 Q779.945 32.3505 774.03 32.3505 Q768.116 32.3505 764.713 37.0496 Q761.351 41.7081 761.351 49.9314 Q761.351 58.1548 764.713 62.8538 Q768.116 67.5124 774.03 67.5124 Q779.945 67.5124 783.307 62.8538 Q786.71 58.1548 786.71 49.9314 Z" fill="#000000" fill-rule="nonzero" fill-opacity="1" /><path clip-path="url(#clip880)" d="M806.802 27.2059 L814.256 27.2059 L814.256 72.576 L806.802 72.576 L806.802 27.2059 M806.802 9.54393 L814.256 9.54393 L814.256 18.9825 L806.802 18.9825 L806.802 9.54393 Z" fill="#000000" fill-rule="nonzero" fill-opacity="1" /><path clip-path="url(#clip880)" d="M837.225 14.324 L837.225 27.2059 L852.577 27.2059 L852.577 32.9987 L837.225 32.9987 L837.225 57.6282 Q837.225 63.1779 838.723 64.7578 Q840.263 66.3376 844.921 66.3376 L852.577 66.3376 L852.577 72.576 L844.921 72.576 Q836.293 72.576 833.012 69.3758 Q829.73 66.1351 829.73 57.6282 L829.73 32.9987 L824.262 32.9987 L824.262 27.2059 L829.73 27.2059 L829.73 14.324 L837.225 14.324 Z" fill="#000000" fill-rule="nonzero" fill-opacity="1" /><path clip-path="url(#clip880)" d="M883 49.7694 Q873.966 49.7694 870.482 51.8354 Q866.999 53.9013 866.999 58.8839 Q866.999 62.8538 869.591 65.2034 Q872.224 67.5124 876.721 67.5124 Q882.919 67.5124 886.646 63.1374 Q890.413 58.7219 890.413 51.4303 L890.413 49.7694 L883 49.7694 M897.867 46.6907 L897.867 72.576 L890.413 72.576 L890.413 65.6895 Q887.861 69.8214 884.053 71.8063 Q880.245 73.7508 874.736 73.7508 Q867.768 73.7508 863.636 69.8619 Q859.545 65.9325 859.545 59.3701 Q859.545 51.7138 864.649 47.825 Q869.794 43.9361 879.962 43.9361 L890.413 43.9361 L890.413 43.2069 Q890.413 38.0623 887.01 35.2672 Q883.648 32.4315 877.531 32.4315 Q873.642 32.4315 869.956 33.3632 Q866.27 34.295 862.867 36.1584 L862.867 29.2718 Q866.958 27.692 870.807 26.9223 Q874.655 26.1121 878.301 26.1121 Q888.144 26.1121 893.006 31.2163 Q897.867 36.3204 897.867 46.6907 Z" fill="#000000" fill-rule="nonzero" fill-opacity="1" /><path clip-path="url(#clip880)" d="M968.595 44.2197 Q971.228 45.1109 973.7 48.0275 Q976.211 50.9442 978.723 56.0483 L987.027 72.576 L978.237 72.576 L970.499 57.061 Q967.502 50.9847 964.666 48.9997 Q961.871 47.0148 957.01 47.0148 L948.098 47.0148 L948.098 72.576 L939.915 72.576 L939.915 12.096 L958.387 12.096 Q968.757 12.096 973.862 16.4305 Q978.966 20.7649 978.966 29.5149 Q978.966 35.2267 976.292 38.994 Q973.659 42.7613 968.595 44.2197 M948.098 18.8205 L948.098 40.2903 L958.387 40.2903 Q964.301 40.2903 967.299 37.5762 Q970.337 34.8216 970.337 29.5149 Q970.337 24.2082 967.299 21.5346 Q964.301 18.8205 958.387 18.8205 L948.098 18.8205 Z" fill="#000000" fill-rule="nonzero" fill-opacity="1" /><path clip-path="url(#clip880)" d="M1032.32 48.0275 L1032.32 51.6733 L998.045 51.6733 Q998.532 59.3701 1002.66 63.421 Q1006.84 67.4314 1014.25 67.4314 Q1018.54 67.4314 1022.55 66.3781 Q1026.6 65.3249 1030.57 63.2184 L1030.57 70.267 Q1026.56 71.9684 1022.35 72.8596 Q1018.14 73.7508 1013.8 73.7508 Q1002.95 73.7508 996.587 67.4314 Q990.268 61.1119 990.268 50.3365 Q990.268 39.1965 996.263 32.6746 Q1002.3 26.1121 1012.51 26.1121 Q1021.66 26.1121 1026.97 32.0264 Q1032.32 37.9003 1032.32 48.0275 M1024.86 45.84 Q1024.78 39.7232 1021.42 36.0774 Q1018.1 32.4315 1012.59 32.4315 Q1006.35 32.4315 1002.58 35.9558 Q998.856 39.4801 998.289 45.8805 L1024.86 45.84 Z" fill="#000000" fill-rule="nonzero" fill-opacity="1" /><path clip-path="url(#clip880)" d="M1051.76 65.7705 L1051.76 89.8329 L1044.27 89.8329 L1044.27 27.2059 L1051.76 27.2059 L1051.76 34.0924 Q1054.11 30.0415 1057.67 28.0971 Q1061.28 26.1121 1066.26 26.1121 Q1074.53 26.1121 1079.67 32.6746 Q1084.86 39.2371 1084.86 49.9314 Q1084.86 60.6258 1079.67 67.1883 Q1074.53 73.7508 1066.26 73.7508 Q1061.28 73.7508 1057.67 71.8063 Q1054.11 69.8214 1051.76 65.7705 M1077.12 49.9314 Q1077.12 41.7081 1073.72 37.0496 Q1070.35 32.3505 1064.44 32.3505 Q1058.53 32.3505 1055.12 37.0496 Q1051.76 41.7081 1051.76 49.9314 Q1051.76 58.1548 1055.12 62.8538 Q1058.53 67.5124 1064.44 67.5124 Q1070.35 67.5124 1073.72 62.8538 Q1077.12 58.1548 1077.12 49.9314 Z" fill="#000000" fill-rule="nonzero" fill-opacity="1" /><path clip-path="url(#clip880)" d="M1123.5 34.1734 Q1122.25 33.4443 1120.75 33.1202 Q1119.29 32.7556 1117.51 32.7556 Q1111.19 32.7556 1107.78 36.8875 Q1104.42 40.9789 1104.42 48.6757 L1104.42 72.576 L1096.93 72.576 L1096.93 27.2059 L1104.42 27.2059 L1104.42 34.2544 Q1106.77 30.1225 1110.54 28.1376 Q1114.31 26.1121 1119.69 26.1121 Q1120.46 26.1121 1121.4 26.2337 Q1122.33 26.3147 1123.46 26.5172 L1123.5 34.1734 Z" fill="#000000" fill-rule="nonzero" fill-opacity="1" /><path clip-path="url(#clip880)" d="M1147.08 32.4315 Q1141.08 32.4315 1137.6 37.1306 Q1134.12 41.7891 1134.12 49.9314 Q1134.12 58.0738 1137.56 62.7728 Q1141.04 67.4314 1147.08 67.4314 Q1153.03 67.4314 1156.52 62.7323 Q1160 58.0333 1160 49.9314 Q1160 41.8701 1156.52 37.1711 Q1153.03 32.4315 1147.08 32.4315 M1147.08 26.1121 Q1156.8 26.1121 1162.35 32.4315 Q1167.9 38.7509 1167.9 49.9314 Q1167.9 61.0714 1162.35 67.4314 Q1156.8 73.7508 1147.08 73.7508 Q1137.32 73.7508 1131.77 67.4314 Q1126.26 61.0714 1126.26 49.9314 Q1126.26 38.7509 1131.77 32.4315 Q1137.32 26.1121 1147.08 26.1121 Z" fill="#000000" fill-rule="nonzero" fill-opacity="1" /><path clip-path="url(#clip880)" d="M1210.11 34.0924 L1210.11 9.54393 L1217.56 9.54393 L1217.56 72.576 L1210.11 72.576 L1210.11 65.7705 Q1207.76 69.8214 1204.16 71.8063 Q1200.59 73.7508 1195.57 73.7508 Q1187.34 73.7508 1182.16 67.1883 Q1177.01 60.6258 1177.01 49.9314 Q1177.01 39.2371 1182.16 32.6746 Q1187.34 26.1121 1195.57 26.1121 Q1200.59 26.1121 1204.16 28.0971 Q1207.76 30.0415 1210.11 34.0924 M1184.71 49.9314 Q1184.71 58.1548 1188.07 62.8538 Q1191.48 67.5124 1197.39 67.5124 Q1203.3 67.5124 1206.71 62.8538 Q1210.11 58.1548 1210.11 49.9314 Q1210.11 41.7081 1206.71 37.0496 Q1203.3 32.3505 1197.39 32.3505 Q1191.48 32.3505 1188.07 37.0496 Q1184.71 41.7081 1184.71 49.9314 Z" fill="#000000" fill-rule="nonzero" fill-opacity="1" /><path clip-path="url(#clip880)" d="M1232.15 54.671 L1232.15 27.2059 L1239.6 27.2059 L1239.6 54.3874 Q1239.6 60.8284 1242.11 64.0691 Q1244.62 67.2693 1249.65 67.2693 Q1255.68 67.2693 1259.17 63.421 Q1262.69 59.5726 1262.69 52.9291 L1262.69 27.2059 L1270.14 27.2059 L1270.14 72.576 L1262.69 72.576 L1262.69 65.6084 Q1259.98 69.7404 1256.37 71.7658 Q1252.81 73.7508 1248.07 73.7508 Q1240.25 73.7508 1236.2 68.8897 Q1232.15 64.0286 1232.15 54.671 M1250.9 26.1121 L1250.9 26.1121 Z" fill="#000000" fill-rule="nonzero" fill-opacity="1" /><path clip-path="url(#clip880)" d="M1318.15 28.9478 L1318.15 35.9153 Q1314.99 34.1734 1311.79 33.3227 Q1308.63 32.4315 1305.39 32.4315 Q1298.14 32.4315 1294.13 37.0496 Q1290.12 41.6271 1290.12 49.9314 Q1290.12 58.2358 1294.13 62.8538 Q1298.14 67.4314 1305.39 67.4314 Q1308.63 67.4314 1311.79 66.5807 Q1314.99 65.6895 1318.15 63.9476 L1318.15 70.8341 Q1315.03 72.2924 1311.67 73.0216 Q1308.34 73.7508 1304.58 73.7508 Q1294.33 73.7508 1288.29 67.3098 Q1282.26 60.8689 1282.26 49.9314 Q1282.26 38.832 1288.33 32.472 Q1294.45 26.1121 1305.06 26.1121 Q1308.51 26.1121 1311.79 26.8413 Q1315.07 27.5299 1318.15 28.9478 Z" fill="#000000" fill-rule="nonzero" fill-opacity="1" /><path clip-path="url(#clip880)" d="M1338.48 14.324 L1338.48 27.2059 L1353.84 27.2059 L1353.84 32.9987 L1338.48 32.9987 L1338.48 57.6282 Q1338.48 63.1779 1339.98 64.7578 Q1341.52 66.3376 1346.18 66.3376 L1353.84 66.3376 L1353.84 72.576 L1346.18 72.576 Q1337.55 72.576 1334.27 69.3758 Q1330.99 66.1351 1330.99 57.6282 L1330.99 32.9987 L1325.52 32.9987 L1325.52 27.2059 L1330.99 27.2059 L1330.99 14.324 L1338.48 14.324 Z" fill="#000000" fill-rule="nonzero" fill-opacity="1" /><path clip-path="url(#clip880)" d="M1363.64 27.2059 L1371.09 27.2059 L1371.09 72.576 L1363.64 72.576 L1363.64 27.2059 M1363.64 9.54393 L1371.09 9.54393 L1371.09 18.9825 L1363.64 18.9825 L1363.64 9.54393 Z" fill="#000000" fill-rule="nonzero" fill-opacity="1" /><path clip-path="url(#clip880)" d="M1404.27 32.4315 Q1398.27 32.4315 1394.79 37.1306 Q1391.31 41.7891 1391.31 49.9314 Q1391.31 58.0738 1394.75 62.7728 Q1398.23 67.4314 1404.27 67.4314 Q1410.22 67.4314 1413.71 62.7323 Q1417.19 58.0333 1417.19 49.9314 Q1417.19 41.8701 1413.71 37.1711 Q1410.22 32.4315 1404.27 32.4315 M1404.27 26.1121 Q1413.99 26.1121 1419.54 32.4315 Q1425.09 38.7509 1425.09 49.9314 Q1425.09 61.0714 1419.54 67.4314 Q1413.99 73.7508 1404.27 73.7508 Q1394.51 73.7508 1388.96 67.4314 Q1383.45 61.0714 1383.45 49.9314 Q1383.45 38.7509 1388.96 32.4315 Q1394.51 26.1121 1404.27 26.1121 Z" fill="#000000" fill-rule="nonzero" fill-opacity="1" /><path clip-path="url(#clip880)" d="M1475.16 45.1919 L1475.16 72.576 L1467.71 72.576 L1467.71 45.4349 Q1467.71 38.994 1465.2 35.7938 Q1462.68 32.5936 1457.66 32.5936 Q1451.63 32.5936 1448.14 36.4419 Q1444.66 40.2903 1444.66 46.9338 L1444.66 72.576 L1437.16 72.576 L1437.16 27.2059 L1444.66 27.2059 L1444.66 34.2544 Q1447.33 30.163 1450.94 28.1376 Q1454.58 26.1121 1459.32 26.1121 Q1467.14 26.1121 1471.15 30.9732 Q1475.16 35.7938 1475.16 45.1919 Z" fill="#000000" fill-rule="nonzero" fill-opacity="1" /><path clip-path="url(#clip880)" d="M1512.63 46.9338 L1587.49 46.9338 L1587.49 52.7671 L1512.63 52.7671 L1512.63 46.9338 Z" fill="#000000" fill-rule="nonzero" fill-opacity="1" /><path clip-path="url(#clip880)" d="M1634.24 43.6931 L1634.24 65.8515 L1647.36 65.8515 Q1653.97 65.8515 1657.13 63.1374 Q1660.33 60.3828 1660.33 54.752 Q1660.33 49.0808 1657.13 46.4072 Q1653.97 43.6931 1647.36 43.6931 L1634.24 43.6931 M1634.24 18.8205 L1634.24 37.0496 L1646.35 37.0496 Q1652.35 37.0496 1655.26 34.8216 Q1658.22 32.5531 1658.22 27.935 Q1658.22 23.3575 1655.26 21.089 Q1652.35 18.8205 1646.35 18.8205 L1634.24 18.8205 M1626.06 12.096 L1646.96 12.096 Q1656.32 12.096 1661.38 15.9849 Q1666.44 19.8737 1666.44 27.0438 Q1666.44 32.5936 1663.85 35.8748 Q1661.26 39.156 1656.24 39.9662 Q1662.27 41.2625 1665.59 45.3944 Q1668.96 49.4858 1668.96 55.6432 Q1668.96 63.745 1663.45 68.1605 Q1657.94 72.576 1647.77 72.576 L1626.06 72.576 L1626.06 12.096 Z" fill="#000000" fill-rule="nonzero" fill-opacity="1" /><path clip-path="url(#clip880)" d="M1700.23 32.4315 Q1694.23 32.4315 1690.75 37.1306 Q1687.27 41.7891 1687.27 49.9314 Q1687.27 58.0738 1690.71 62.7728 Q1694.19 67.4314 1700.23 67.4314 Q1706.18 67.4314 1709.67 62.7323 Q1713.15 58.0333 1713.15 49.9314 Q1713.15 41.8701 1709.67 37.1711 Q1706.18 32.4315 1700.23 32.4315 M1700.23 26.1121 Q1709.95 26.1121 1715.5 32.4315 Q1721.05 38.7509 1721.05 49.9314 Q1721.05 61.0714 1715.5 67.4314 Q1709.95 73.7508 1700.23 73.7508 Q1690.47 73.7508 1684.92 67.4314 Q1679.41 61.0714 1679.41 49.9314 Q1679.41 38.7509 1684.92 32.4315 Q1690.47 26.1121 1700.23 26.1121 Z" fill="#000000" fill-rule="nonzero" fill-opacity="1" /><path clip-path="url(#clip880)" d="M1750.99 32.4315 Q1744.99 32.4315 1741.51 37.1306 Q1738.02 41.7891 1738.02 49.9314 Q1738.02 58.0738 1741.47 62.7728 Q1744.95 67.4314 1750.99 67.4314 Q1756.94 67.4314 1760.43 62.7323 Q1763.91 58.0333 1763.91 49.9314 Q1763.91 41.8701 1760.43 37.1711 Q1756.94 32.4315 1750.99 32.4315 M1750.99 26.1121 Q1760.71 26.1121 1766.26 32.4315 Q1771.81 38.7509 1771.81 49.9314 Q1771.81 61.0714 1766.26 67.4314 Q1760.71 73.7508 1750.99 73.7508 Q1741.22 73.7508 1735.67 67.4314 Q1730.17 61.0714 1730.17 49.9314 Q1730.17 38.7509 1735.67 32.4315 Q1741.22 26.1121 1750.99 26.1121 Z" fill="#000000" fill-rule="nonzero" fill-opacity="1" /><path clip-path="url(#clip880)" d="M1791.54 14.324 L1791.54 27.2059 L1806.89 27.2059 L1806.89 32.9987 L1791.54 32.9987 L1791.54 57.6282 Q1791.54 63.1779 1793.04 64.7578 Q1794.57 66.3376 1799.23 66.3376 L1806.89 66.3376 L1806.89 72.576 L1799.23 72.576 Q1790.6 72.576 1787.32 69.3758 Q1784.04 66.1351 1784.04 57.6282 L1784.04 32.9987 L1778.57 32.9987 L1778.57 27.2059 L1784.04 27.2059 L1784.04 14.324 L1791.54 14.324 Z" fill="#000000" fill-rule="nonzero" fill-opacity="1" /><path clip-path="url(#clip880)" d="M1845.62 28.5427 L1845.62 35.5912 Q1842.46 33.9709 1839.05 33.1607 Q1835.65 32.3505 1832.01 32.3505 Q1826.46 32.3505 1823.66 34.0519 Q1820.91 35.7533 1820.91 39.156 Q1820.91 41.7486 1822.89 43.2475 Q1824.88 44.7058 1830.87 46.0426 L1833.42 46.6097 Q1841.36 48.3111 1844.68 51.4303 Q1848.05 54.509 1848.05 60.0587 Q1848.05 66.3781 1843.02 70.0644 Q1838.04 73.7508 1829.29 73.7508 Q1825.65 73.7508 1821.68 73.0216 Q1817.75 72.3329 1813.37 70.9151 L1813.37 63.2184 Q1817.5 65.3654 1821.51 66.4591 Q1825.52 67.5124 1829.45 67.5124 Q1834.72 67.5124 1837.55 65.73 Q1840.39 63.9071 1840.39 60.6258 Q1840.39 57.5877 1838.32 55.9673 Q1836.3 54.3469 1829.37 52.8481 L1826.78 52.2405 Q1819.85 50.7821 1816.77 47.7845 Q1813.7 44.7463 1813.7 39.4801 Q1813.7 33.0797 1818.23 29.5959 Q1822.77 26.1121 1831.11 26.1121 Q1835.25 26.1121 1838.89 26.7198 Q1842.54 27.3274 1845.62 28.5427 Z" fill="#000000" fill-rule="nonzero" fill-opacity="1" /><path clip-path="url(#clip880)" d="M1867.29 14.324 L1867.29 27.2059 L1882.64 27.2059 L1882.64 32.9987 L1867.29 32.9987 L1867.29 57.6282 Q1867.29 63.1779 1868.79 64.7578 Q1870.33 66.3376 1874.99 66.3376 L1882.64 66.3376 L1882.64 72.576 L1874.99 72.576 Q1866.36 72.576 1863.08 69.3758 Q1859.79 66.1351 1859.79 57.6282 L1859.79 32.9987 L1854.33 32.9987 L1854.33 27.2059 L1859.79 27.2059 L1859.79 14.324 L1867.29 14.324 Z" fill="#000000" fill-rule="nonzero" fill-opacity="1" /><path clip-path="url(#clip880)" d="M1918.73 34.1734 Q1917.48 33.4443 1915.98 33.1202 Q1914.52 32.7556 1912.74 32.7556 Q1906.42 32.7556 1903.02 36.8875 Q1899.66 40.9789 1899.66 48.6757 L1899.66 72.576 L1892.16 72.576 L1892.16 27.2059 L1899.66 27.2059 L1899.66 34.2544 Q1902 30.1225 1905.77 28.1376 Q1909.54 26.1121 1914.93 26.1121 Q1915.7 26.1121 1916.63 26.2337 Q1917.56 26.3147 1918.69 26.5172 L1918.73 34.1734 Z" fill="#000000" fill-rule="nonzero" fill-opacity="1" /><path clip-path="url(#clip880)" d="M1947.17 49.7694 Q1938.14 49.7694 1934.66 51.8354 Q1931.17 53.9013 1931.17 58.8839 Q1931.17 62.8538 1933.76 65.2034 Q1936.4 67.5124 1940.89 67.5124 Q1947.09 67.5124 1950.82 63.1374 Q1954.59 58.7219 1954.59 51.4303 L1954.59 49.7694 L1947.17 49.7694 M1962.04 46.6907 L1962.04 72.576 L1954.59 72.576 L1954.59 65.6895 Q1952.03 69.8214 1948.23 71.8063 Q1944.42 73.7508 1938.91 73.7508 Q1931.94 73.7508 1927.81 69.8619 Q1923.72 65.9325 1923.72 59.3701 Q1923.72 51.7138 1928.82 47.825 Q1933.97 43.9361 1944.13 43.9361 L1954.59 43.9361 L1954.59 43.2069 Q1954.59 38.0623 1951.18 35.2672 Q1947.82 32.4315 1941.7 32.4315 Q1937.81 32.4315 1934.13 33.3632 Q1930.44 34.295 1927.04 36.1584 L1927.04 29.2718 Q1931.13 27.692 1934.98 26.9223 Q1938.83 26.1121 1942.47 26.1121 Q1952.32 26.1121 1957.18 31.2163 Q1962.04 36.3204 1962.04 46.6907 Z" fill="#000000" fill-rule="nonzero" fill-opacity="1" /><path clip-path="url(#clip880)" d="M1984.6 65.7705 L1984.6 89.8329 L1977.11 89.8329 L1977.11 27.2059 L1984.6 27.2059 L1984.6 34.0924 Q1986.95 30.0415 1990.52 28.0971 Q1994.12 26.1121 1999.1 26.1121 Q2007.37 26.1121 2012.51 32.6746 Q2017.7 39.2371 2017.7 49.9314 Q2017.7 60.6258 2012.51 67.1883 Q2007.37 73.7508 1999.1 73.7508 Q1994.12 73.7508 1990.52 71.8063 Q1986.95 69.8214 1984.6 65.7705 M2009.96 49.9314 Q2009.96 41.7081 2006.56 37.0496 Q2003.2 32.3505 1997.28 32.3505 Q1991.37 32.3505 1987.96 37.0496 Q1984.6 41.7081 1984.6 49.9314 Q1984.6 58.1548 1987.96 62.8538 Q1991.37 67.5124 1997.28 67.5124 Q2003.2 67.5124 2006.56 62.8538 Q2009.96 58.1548 2009.96 49.9314 Z" fill="#000000" fill-rule="nonzero" fill-opacity="1" /><path clip-path="url(#clip880)" d="M2057.72 71.3202 L2057.72 63.8666 Q2060.8 65.3249 2063.96 66.0946 Q2067.12 66.8642 2070.16 66.8642 Q2078.26 66.8642 2082.51 61.436 Q2086.81 55.9673 2087.41 44.8678 Q2085.07 48.3516 2081.46 50.215 Q2077.85 52.0784 2073.48 52.0784 Q2064.41 52.0784 2059.1 46.6097 Q2053.83 41.1005 2053.83 31.5808 Q2053.83 22.2638 2059.34 16.633 Q2064.85 11.0023 2074.01 11.0023 Q2084.5 11.0023 2090.01 19.0636 Q2095.56 27.0843 2095.56 42.3968 Q2095.56 56.6965 2088.75 65.2439 Q2081.99 73.7508 2070.52 73.7508 Q2067.44 73.7508 2064.28 73.1431 Q2061.12 72.5355 2057.72 71.3202 M2074.01 45.678 Q2079.52 45.678 2082.72 41.9107 Q2085.96 38.1433 2085.96 31.5808 Q2085.96 25.0589 2082.72 21.2916 Q2079.52 17.4837 2074.01 17.4837 Q2068.5 17.4837 2065.26 21.2916 Q2062.06 25.0589 2062.06 31.5808 Q2062.06 38.1433 2065.26 41.9107 Q2068.5 45.678 2074.01 45.678 Z" fill="#000000" fill-rule="nonzero" fill-opacity="1" /><path clip-path="url(#clip880)" d="M2110.34 12.096 L2142.47 12.096 L2142.47 18.9825 L2117.84 18.9825 L2117.84 33.8088 Q2119.62 33.2012 2121.4 32.9176 Q2123.18 32.5936 2124.97 32.5936 Q2135.09 32.5936 2141.01 38.1433 Q2146.92 43.6931 2146.92 53.1722 Q2146.92 62.9348 2140.85 68.3631 Q2134.77 73.7508 2123.71 73.7508 Q2119.9 73.7508 2115.93 73.1026 Q2112 72.4545 2107.79 71.1582 L2107.79 62.9348 Q2111.44 64.9198 2115.33 65.892 Q2119.21 66.8642 2123.55 66.8642 Q2130.56 66.8642 2134.65 63.1779 Q2138.74 59.4916 2138.74 53.1722 Q2138.74 46.8528 2134.65 43.1664 Q2130.56 39.4801 2123.55 39.4801 Q2120.27 39.4801 2116.99 40.2093 Q2113.75 40.9384 2110.34 42.4778 L2110.34 12.096 Z" fill="#000000" fill-rule="nonzero" fill-opacity="1" /><path clip-path="url(#clip880)" d="M2214.49 45.9616 Q2210.97 45.9616 2208.94 48.9592 Q2206.96 51.9569 2206.96 57.3041 Q2206.96 62.5703 2208.94 65.6084 Q2210.97 68.6061 2214.49 68.6061 Q2217.93 68.6061 2219.92 65.6084 Q2221.95 62.5703 2221.95 57.3041 Q2221.95 51.9974 2219.92 48.9997 Q2217.93 45.9616 2214.49 45.9616 M2214.49 40.8169 Q2220.89 40.8169 2224.66 45.2729 Q2228.43 49.7289 2228.43 57.3041 Q2228.43 64.8793 2224.62 69.3353 Q2220.85 73.7508 2214.49 73.7508 Q2208.01 73.7508 2204.24 69.3353 Q2200.48 64.8793 2200.48 57.3041 Q2200.48 49.6884 2204.24 45.2729 Q2208.05 40.8169 2214.49 40.8169 M2172.69 16.1469 Q2169.2 16.1469 2167.18 19.1851 Q2165.19 22.1828 2165.19 27.4489 Q2165.19 32.7961 2167.18 35.7938 Q2169.16 38.7915 2172.69 38.7915 Q2176.21 38.7915 2178.2 35.7938 Q2180.22 32.7961 2180.22 27.4489 Q2180.22 22.2233 2178.2 19.1851 Q2176.17 16.1469 2172.69 16.1469 M2209.27 11.0023 L2215.75 11.0023 L2177.91 73.7508 L2171.43 73.7508 L2209.27 11.0023 M2172.69 11.0023 Q2179.09 11.0023 2182.89 15.4583 Q2186.7 19.8737 2186.7 27.4489 Q2186.7 35.1051 2182.89 39.5206 Q2179.13 43.9361 2172.69 43.9361 Q2166.25 43.9361 2162.48 39.5206 Q2158.75 35.0646 2158.75 27.4489 Q2158.75 19.9142 2162.52 15.4583 Q2166.29 11.0023 2172.69 11.0023 Z" fill="#000000" fill-rule="nonzero" fill-opacity="1" /><path clip-path="url(#clip880)" d="M2312.81 16.7545 L2312.81 25.383 Q2308.68 21.5346 2303.98 19.6307 Q2299.32 17.7268 2294.05 17.7268 Q2283.68 17.7268 2278.17 24.0867 Q2272.66 30.4061 2272.66 42.3968 Q2272.66 54.3469 2278.17 60.7069 Q2283.68 67.0263 2294.05 67.0263 Q2299.32 67.0263 2303.98 65.1223 Q2308.68 63.2184 2312.81 59.3701 L2312.81 67.9175 Q2308.51 70.8341 2303.69 72.2924 Q2298.91 73.7508 2293.57 73.7508 Q2279.83 73.7508 2271.93 65.3654 Q2264.03 56.9395 2264.03 42.3968 Q2264.03 27.8135 2271.93 19.4281 Q2279.83 11.0023 2293.57 11.0023 Q2298.99 11.0023 2303.77 12.4606 Q2308.59 13.8784 2312.81 16.7545 Z" fill="#000000" fill-rule="nonzero" fill-opacity="1" /><path clip-path="url(#clip880)" d="M2325.45 12.096 L2333.63 12.096 L2333.63 72.576 L2325.45 72.576 L2325.45 12.096 Z" fill="#000000" fill-rule="nonzero" fill-opacity="1" /><path clip-path="url(#clip881)" d="M251.315 875.931 L253.405 877.213 L255.496 878.323 L257.586 879.273 L259.676 880.077 L261.767 880.746 L263.857 881.294 L265.948 881.734 L268.038 882.08 L270.128 882.343 L272.219 882.536 L274.309 882.674 L276.4 882.768 L278.49 882.832 L280.58 882.878 L282.671 882.919 L284.761 882.958 L286.852 882.995 L288.942 883.033 L291.032 883.071 L293.123 883.111 L295.213 883.153 L297.303 883.198 L299.394 883.248 L301.484 883.302 L303.575 883.363 L305.665 883.43 L307.755 883.504 L309.846 883.587 L311.936 883.68 L314.027 883.781 L316.117 883.891 L318.207 884.008 L320.298 884.133 L322.388 884.264 L324.479 884.401 L326.569 884.542 L328.659 884.688 L330.75 884.838 L332.84 884.991 L334.931 885.146 L337.021 885.303 L339.111 885.461 L341.202 885.619 L343.292 885.777 L345.383 885.936 L347.473 886.094 L349.563 886.252 L351.654 886.411 L353.744 886.569 L355.834 886.728 L357.925 886.886 L360.015 887.045 L362.106 887.203 L364.196 887.362 L366.286 887.52 L368.377 887.679 L370.467 887.837 L372.558 887.995 L374.648 888.154 L376.738 888.312 L378.829 888.47 L380.919 888.629 L383.01 888.787 L385.1 888.945 L387.19 889.104 L389.281 889.262 L391.371 889.42 L393.462 889.578 L395.552 889.736 L397.642 889.895 L399.733 890.053 L401.823 890.211 L403.913 890.369 L406.004 890.527 L408.094 890.686 L410.185 890.844 L412.275 891.002 L414.365 891.16 L416.456 891.319 L418.546 891.477 L420.637 891.635 L422.727 891.793 L424.817 891.952 L426.908 892.11 L428.998 892.268 L431.089 892.427 L433.179 892.585 L435.269 892.743 L437.36 892.901 L439.45 893.06 L441.541 893.218 L443.631 893.376 L445.721 893.535 L447.812 893.693 L449.902 893.852 L451.993 894.01 L454.083 894.168 L456.173 894.327 L458.264 894.485 L458.264 862.105 L456.173 861.947 L454.083 861.789 L451.993 861.631 L449.902 861.472 L447.812 861.314 L445.721 861.156 L443.631 860.998 L441.541 860.839 L439.45 860.681 L437.36 860.523 L435.269 860.365 L433.179 860.207 L431.089 860.048 L428.998 859.89 L426.908 859.732 L424.817 859.574 L422.727 859.415 L420.637 859.257 L418.546 859.099 L416.456 858.941 L414.365 858.783 L412.275 858.624 L410.185 858.466 L408.094 858.308 L406.004 858.15 L403.913 857.991 L401.823 857.833 L399.733 857.675 L397.642 857.517 L395.552 857.358 L393.462 857.2 L391.371 857.042 L389.281 856.884 L387.19 856.725 L385.1 856.567 L383.01 856.409 L380.919 856.251 L378.829 856.092 L376.738 855.934 L374.648 855.776 L372.558 855.618 L370.467 855.459 L368.377 855.301 L366.286 855.143 L364.196 854.985 L362.106 854.826 L360.015 854.668 L357.925 854.51 L355.834 854.352 L353.744 854.193 L351.654 854.035 L349.563 853.877 L347.473 853.719 L345.383 853.56 L343.292 853.402 L341.202 853.244 L339.111 853.086 L337.021 852.928 L334.931 852.769 L332.84 852.611 L330.75 852.453 L328.659 852.295 L326.569 852.137 L324.479 851.978 L322.388 851.82 L320.298 851.662 L318.207 851.505 L316.117 851.347 L314.027 851.189 L311.936 851.031 L309.846 850.873 L307.755 850.716 L305.665 850.558 L303.575 850.401 L301.484 850.244 L299.394 850.086 L297.303 849.929 L295.213 849.772 L293.123 849.615 L291.032 849.457 L288.942 849.3 L286.852 849.143 L284.761 848.986 L282.671 848.829 L280.58 848.671 L278.49 848.514 L276.4 848.357 L274.309 848.199 L272.219 848.042 L270.128 847.884 L268.038 847.726 L265.948 847.569 L263.857 847.411 L261.767 847.253 L259.676 847.094 L257.586 846.936 L255.496 846.778 L253.405 846.619 L251.315 846.46  Z" fill="#ff7f50" fill-rule="evenodd" fill-opacity="0.25"/>
<polyline clip-path="url(#clip881)" style="stroke:#ff7f50; stroke-linecap:round; stroke-linejoin:round; stroke-width:4; stroke-opacity:0.25; fill:none" points="251.315,875.931 253.405,877.213 255.496,878.323 257.586,879.273 259.676,880.077 261.767,880.746 263.857,881.294 265.948,881.734 268.038,882.08 270.128,882.343 272.219,882.536 274.309,882.674 276.4,882.768 278.49,882.832 280.58,882.878 282.671,882.919 284.761,882.958 286.852,882.995 288.942,883.033 291.032,883.071 293.123,883.111 295.213,883.153 297.303,883.198 299.394,883.248 301.484,883.302 303.575,883.363 305.665,883.43 307.755,883.504 309.846,883.587 311.936,883.68 314.027,883.781 316.117,883.891 318.207,884.008 320.298,884.133 322.388,884.264 324.479,884.401 326.569,884.542 328.659,884.688 330.75,884.838 332.84,884.991 334.931,885.146 337.021,885.303 339.111,885.461 341.202,885.619 343.292,885.777 345.383,885.936 347.473,886.094 349.563,886.252 351.654,886.411 353.744,886.569 355.834,886.728 357.925,886.886 360.015,887.045 362.106,887.203 364.196,887.362 366.286,887.52 368.377,887.679 370.467,887.837 372.558,887.995 374.648,888.154 376.738,888.312 378.829,888.47 380.919,888.629 383.01,888.787 385.1,888.945 387.19,889.104 389.281,889.262 391.371,889.42 393.462,889.578 395.552,889.736 397.642,889.895 399.733,890.053 401.823,890.211 403.913,890.369 406.004,890.527 408.094,890.686 410.185,890.844 412.275,891.002 414.365,891.16 416.456,891.319 418.546,891.477 420.637,891.635 422.727,891.793 424.817,891.952 426.908,892.11 428.998,892.268 431.089,892.427 433.179,892.585 435.269,892.743 437.36,892.901 439.45,893.06 441.541,893.218 443.631,893.376 445.721,893.535 447.812,893.693 449.902,893.852 451.993,894.01 454.083,894.168 456.173,894.327 458.264,894.485 "/>
<polyline clip-path="url(#clip881)" style="stroke:#ff7f50; stroke-linecap:round; stroke-linejoin:round; stroke-width:8; stroke-opacity:1; fill:none" points="251.315,875.433 253.405,876.653 255.496,877.71 257.586,878.615 259.676,879.381 261.767,880.02 263.857,880.544 265.948,880.966 268.038,881.297 270.128,881.55 272.219,881.737 274.309,881.871 276.4,881.964 278.49,882.028 280.58,882.075 282.671,882.116 284.761,882.156 286.852,882.195 288.942,882.233 291.032,882.272 293.123,882.313 295.213,882.356 297.303,882.402 299.394,882.452 301.484,882.508 303.575,882.569 305.665,882.637 307.755,882.713 309.846,882.797 311.936,882.89 314.027,882.993 316.117,883.104 318.207,883.222 320.298,883.348 322.388,883.48 324.479,883.618 326.569,883.761 328.659,883.908 330.75,884.059 332.84,884.213 334.931,884.369 337.021,884.527 339.111,884.686 341.202,884.846 343.292,885.005 345.383,885.165 347.473,885.324 349.563,885.484 351.654,885.643 353.744,885.803 355.834,885.963 357.925,886.122 360.015,886.282 362.106,886.442 364.196,886.601 366.286,886.761 368.377,886.92 370.467,887.079 372.558,887.239 374.648,887.398 376.738,887.557 378.829,887.716 380.919,887.875 383.01,888.034 385.1,888.193 387.19,888.352 389.281,888.511 391.371,888.669 393.462,888.828 395.552,888.987 397.642,889.146 399.733,889.304 401.823,889.463 403.913,889.622 406.004,889.78 408.094,889.939 410.185,890.097 412.275,890.256 414.365,890.414 416.456,890.573 418.546,890.731 420.637,890.889 422.727,891.047 424.817,891.205 426.908,891.363 428.998,891.521 431.089,891.679 433.179,891.836 435.269,891.994 437.36,892.151 439.45,892.309 441.541,892.466 443.631,892.623 445.721,892.78 447.812,892.938 449.902,893.095 451.993,893.252 454.083,893.409 456.173,893.566 458.264,893.723 "/>
<polyline clip-path="url(#clip881)" style="stroke:#000000; stroke-linecap:round; stroke-linejoin:round; stroke-width:12; stroke-opacity:1; fill:none" stroke-dasharray="48, 30" points="251.341,173.254 252.316,190.038 253.29,206.665 254.265,223.135 255.24,239.451 256.215,255.614 257.19,271.626 258.164,287.487 259.139,303.2 260.114,318.766 261.089,334.185 262.064,349.46 263.039,364.592 264.013,379.581 264.988,394.431 265.963,409.141 266.938,423.713 267.913,438.148 268.887,452.448 269.862,466.614 270.837,480.647 271.812,494.549 272.787,508.32 273.762,521.962 274.736,535.476 275.711,548.864 276.686,562.126 277.661,575.263 278.636,588.278 279.61,601.17 280.585,613.941 281.56,626.593 282.535,639.126 283.51,651.542 284.485,663.841 285.459,676.025 286.434,688.094 287.409,700.051 288.384,711.895 289.359,723.628 290.333,735.251 291.308,746.766 292.283,758.172 293.258,769.471 294.233,780.665 295.208,791.753 296.182,802.737 297.157,813.619 298.132,824.398 299.107,835.077 300.082,845.655 301.056,856.134 302.031,866.515 303.006,876.798 303.981,886.985 304.956,897.077 305.931,907.073 306.905,916.977 307.88,926.787 308.855,936.505 309.83,946.132 310.805,955.669 311.779,965.117 312.754,974.475 313.729,983.747 314.704,992.931 315.679,1002.03 316.653,1011.04 317.628,1019.97 318.603,1028.81 319.578,1037.58 320.553,1046.26 321.528,1054.85 322.502,1063.37 323.477,1071.81 324.452,1080.17 325.427,1088.45 326.402,1096.65 327.376,1104.78 328.351,1112.82 329.326,1120.8 330.301,1128.7 331.276,1136.52 332.251,1144.27 333.225,1151.95 334.2,1159.56 335.175,1167.1 336.15,1174.56 337.125,1181.96 338.099,1189.28 339.074,1196.54 340.049,1203.73 341.024,1210.85 341.999,1217.9 342.974,1224.89 343.948,1231.82 344.923,1238.67 345.898,1245.47 346.873,1252.2 347.848,1258.86 348.822,1265.47 349.797,1272.01 350.772,1278.49 351.747,1284.91 352.722,1291.27 353.697,1297.57 354.671,1303.82 355.646,1310 356.621,1316.12 357.596,1322.19 358.571,1328.2 359.545,1334.16 360.52,1340.05 361.495,1345.9 362.47,1351.69 363.445,1357.42 364.42,1363.1 365.394,1368.73 366.369,1374.3 367.344,1379.82 368.319,1385.29 369.294,1390.71 370.268,1396.08 371.243,1401.4 372.218,1406.67 373.193,1411.89 374.168,1417.06 375.143,1422.18 376.117,1427.25 377.092,1432.28 378.067,1437.25 379.042,1442.19 380.017,1447.07 380.991,1451.91 381.966,1456.71 382.941,1461.46 383.916,1466.16 384.891,1470.82 385.866,1475.44 386.84,1480.01 387.815,1484.54 388.79,1489.03 389.765,1493.48 390.74,1497.88 391.714,1502.25 392.689,1506.57 393.664,1510.85 394.639,1515.09 395.614,1519.29 396.589,1523.46 397.563,1527.58 398.538,1531.66 399.513,1535.71 400.488,1539.72 401.463,1543.69 402.437,1547.62 403.412,1551.52 404.387,1555.38 405.362,1559.21 406.337,1562.99 407.312,1566.75 408.286,1570.47 409.261,1574.15 410.236,1577.8 411.211,1581.41 412.186,1584.99 413.16,1588.54 414.135,1592.05 415.11,1595.53 416.085,1598.98 417.06,1602.39 418.034,1605.78 419.009,1609.13 419.984,1612.45 420.959,1615.74 421.934,1619 422.909,1622.22 423.883,1625.42 424.858,1628.59 425.833,1631.73 426.808,1634.83 427.783,1637.91 428.757,1640.96 429.732,1643.99 430.707,1646.98 431.682,1649.94 432.657,1652.88 433.632,1655.79 434.606,1658.67 435.581,1661.53 436.556,1664.36 437.531,1667.16 438.506,1669.94 439.48,1672.69 440.455,1675.41 441.43,1678.11 442.405,1680.78 443.38,1683.43 444.355,1686.06 445.329,1688.65 "/>
<path clip-path="url(#clip881)" d="M354.789 3340.44 L354.789 -1478.53 L2571.16 -1478.53 L2571.16 3340.44 L354.789 3340.44  Z" fill="#4682b4" fill-rule="evenodd" fill-opacity="0.08"/>
<polyline clip-path="url(#clip881)" style="stroke:#000000; stroke-linecap:round; stroke-linejoin:round; stroke-width:0; stroke-opacity:0.08; fill:none" points="354.789,3340.44 354.789,-1478.53 2571.16,-1478.53 2571.16,3340.44 354.789,3340.44 "/>
<path clip-path="url(#clip880)" d="M1966.71 440.536 L2558.79 440.536 L2558.79 181.336 L1966.71 181.336  Z" fill="#ffffff" fill-rule="evenodd" fill-opacity="1"/>
<polyline clip-path="url(#clip880)" style="stroke:#000000; stroke-linecap:round; stroke-linejoin:round; stroke-width:4; stroke-opacity:1; fill:none" points="1966.71,440.536 2558.79,440.536 2558.79,181.336 1966.71,181.336 1966.71,440.536 "/>
<path clip-path="url(#clip880)" d="M1994.03 253.912 L2157.96 253.912 L2157.96 212.44 L1994.03 212.44 L1994.03 253.912  Z" fill="#ff7f50" fill-rule="evenodd" fill-opacity="0.25"/>
<polyline clip-path="url(#clip880)" style="stroke:#ff7f50; stroke-linecap:round; stroke-linejoin:round; stroke-width:4; stroke-opacity:0.25; fill:none" points="1994.03,212.44 2157.96,212.44 "/>
<path clip-path="url(#clip880)" d="M2187.51 249.739 L2187.51 245.479 Q2189.27 246.313 2191.07 246.753 Q2192.88 247.192 2194.62 247.192 Q2199.24 247.192 2201.68 244.091 Q2204.13 240.966 2204.48 234.623 Q2203.13 236.614 2201.07 237.679 Q2199.01 238.743 2196.51 238.743 Q2191.33 238.743 2188.3 235.618 Q2185.29 232.47 2185.29 227.03 Q2185.29 221.706 2188.43 218.489 Q2191.58 215.271 2196.81 215.271 Q2202.81 215.271 2205.96 219.878 Q2209.13 224.461 2209.13 233.211 Q2209.13 241.382 2205.24 246.266 Q2201.37 251.128 2194.82 251.128 Q2193.06 251.128 2191.26 250.78 Q2189.45 250.433 2187.51 249.739 M2196.81 235.086 Q2199.96 235.086 2201.79 232.933 Q2203.64 230.78 2203.64 227.03 Q2203.64 223.304 2201.79 221.151 Q2199.96 218.975 2196.81 218.975 Q2193.67 218.975 2191.81 221.151 Q2189.99 223.304 2189.99 227.03 Q2189.99 230.78 2191.81 232.933 Q2193.67 235.086 2196.81 235.086 Z" fill="#000000" fill-rule="nonzero" fill-opacity="1" /><path clip-path="url(#clip880)" d="M2217.58 215.896 L2235.93 215.896 L2235.93 219.831 L2221.86 219.831 L2221.86 228.304 Q2222.88 227.956 2223.9 227.794 Q2224.92 227.609 2225.93 227.609 Q2231.72 227.609 2235.1 230.78 Q2238.48 233.952 2238.48 239.368 Q2238.48 244.947 2235.01 248.049 Q2231.54 251.128 2225.22 251.128 Q2223.04 251.128 2220.77 250.757 Q2218.53 250.387 2216.12 249.646 L2216.12 244.947 Q2218.2 246.081 2220.43 246.637 Q2222.65 247.192 2225.12 247.192 Q2229.13 247.192 2231.47 245.086 Q2233.8 242.979 2233.8 239.368 Q2233.8 235.757 2231.47 233.651 Q2229.13 231.544 2225.12 231.544 Q2223.25 231.544 2221.37 231.961 Q2219.52 232.378 2217.58 233.257 L2217.58 215.896 Z" fill="#000000" fill-rule="nonzero" fill-opacity="1" /><path clip-path="url(#clip880)" d="M2277.09 235.248 Q2275.08 235.248 2273.92 236.961 Q2272.79 238.674 2272.79 241.729 Q2272.79 244.739 2273.92 246.475 Q2275.08 248.188 2277.09 248.188 Q2279.06 248.188 2280.19 246.475 Q2281.35 244.739 2281.35 241.729 Q2281.35 238.697 2280.19 236.984 Q2279.06 235.248 2277.09 235.248 M2277.09 232.308 Q2280.75 232.308 2282.9 234.855 Q2285.05 237.401 2285.05 241.729 Q2285.05 246.058 2282.88 248.604 Q2280.73 251.128 2277.09 251.128 Q2273.39 251.128 2271.24 248.604 Q2269.08 246.058 2269.08 241.729 Q2269.08 237.378 2271.24 234.855 Q2273.41 232.308 2277.09 232.308 M2253.2 218.211 Q2251.21 218.211 2250.05 219.947 Q2248.92 221.66 2248.92 224.669 Q2248.92 227.725 2250.05 229.438 Q2251.19 231.151 2253.2 231.151 Q2255.22 231.151 2256.35 229.438 Q2257.51 227.725 2257.51 224.669 Q2257.51 221.683 2256.35 219.947 Q2255.19 218.211 2253.2 218.211 M2274.11 215.271 L2277.81 215.271 L2256.19 251.128 L2252.49 251.128 L2274.11 215.271 M2253.2 215.271 Q2256.86 215.271 2259.04 217.818 Q2261.21 220.341 2261.21 224.669 Q2261.21 229.044 2259.04 231.568 Q2256.88 234.091 2253.2 234.091 Q2249.52 234.091 2247.37 231.568 Q2245.24 229.021 2245.24 224.669 Q2245.24 220.364 2247.39 217.818 Q2249.55 215.271 2253.2 215.271 Z" fill="#000000" fill-rule="nonzero" fill-opacity="1" /><path clip-path="url(#clip880)" d="M2333.27 218.558 L2333.27 223.489 Q2330.91 221.29 2328.23 220.202 Q2325.56 219.114 2322.55 219.114 Q2316.63 219.114 2313.48 222.748 Q2310.33 226.359 2310.33 233.211 Q2310.33 240.04 2313.48 243.674 Q2316.63 247.285 2322.55 247.285 Q2325.56 247.285 2328.23 246.197 Q2330.91 245.109 2333.27 242.91 L2333.27 247.794 Q2330.82 249.461 2328.06 250.294 Q2325.33 251.128 2322.28 251.128 Q2314.43 251.128 2309.92 246.336 Q2305.4 241.521 2305.4 233.211 Q2305.4 224.878 2309.92 220.086 Q2314.43 215.271 2322.28 215.271 Q2325.38 215.271 2328.11 216.105 Q2330.86 216.915 2333.27 218.558 Z" fill="#000000" fill-rule="nonzero" fill-opacity="1" /><path clip-path="url(#clip880)" d="M2340.49 215.896 L2345.17 215.896 L2345.17 250.456 L2340.49 250.456 L2340.49 215.896 Z" fill="#000000" fill-rule="nonzero" fill-opacity="1" /><polyline clip-path="url(#clip880)" style="stroke:#ff7f50; stroke-linecap:round; stroke-linejoin:round; stroke-width:8; stroke-opacity:1; fill:none" points="1994.03,285.016 2157.96,285.016 "/>
<path clip-path="url(#clip880)" d="M2213.16 270.398 L2213.16 275.329 Q2210.8 273.13 2208.11 272.042 Q2205.45 270.954 2202.44 270.954 Q2196.51 270.954 2193.37 274.588 Q2190.22 278.199 2190.22 285.051 Q2190.22 291.88 2193.37 295.514 Q2196.51 299.125 2202.44 299.125 Q2205.45 299.125 2208.11 298.037 Q2210.8 296.949 2213.16 294.75 L2213.16 299.634 Q2210.7 301.301 2207.95 302.134 Q2205.22 302.968 2202.16 302.968 Q2194.31 302.968 2189.8 298.176 Q2185.29 293.361 2185.29 285.051 Q2185.29 276.718 2189.8 271.926 Q2194.31 267.111 2202.16 267.111 Q2205.26 267.111 2207.99 267.945 Q2210.75 268.755 2213.16 270.398 Z" fill="#000000" fill-rule="nonzero" fill-opacity="1" /><path clip-path="url(#clip880)" d="M2230.24 279.357 Q2226.81 279.357 2224.82 282.042 Q2222.83 284.704 2222.83 289.357 Q2222.83 294.009 2224.8 296.694 Q2226.79 299.356 2230.24 299.356 Q2233.64 299.356 2235.63 296.671 Q2237.62 293.986 2237.62 289.357 Q2237.62 284.75 2235.63 282.065 Q2233.64 279.357 2230.24 279.357 M2230.24 275.746 Q2235.8 275.746 2238.97 279.357 Q2242.14 282.968 2242.14 289.357 Q2242.14 295.722 2238.97 299.356 Q2235.8 302.968 2230.24 302.968 Q2224.66 302.968 2221.49 299.356 Q2218.34 295.722 2218.34 289.357 Q2218.34 282.968 2221.49 279.357 Q2224.66 275.746 2230.24 275.746 Z" fill="#000000" fill-rule="nonzero" fill-opacity="1" /><path clip-path="url(#clip880)" d="M2270.75 286.648 L2270.75 302.296 L2266.49 302.296 L2266.49 286.787 Q2266.49 283.107 2265.05 281.278 Q2263.62 279.449 2260.75 279.449 Q2257.3 279.449 2255.31 281.648 Q2253.32 283.847 2253.32 287.644 L2253.32 302.296 L2249.04 302.296 L2249.04 276.371 L2253.32 276.371 L2253.32 280.398 Q2254.85 278.06 2256.91 276.903 Q2258.99 275.746 2261.7 275.746 Q2266.17 275.746 2268.46 278.523 Q2270.75 281.278 2270.75 286.648 Z" fill="#000000" fill-rule="nonzero" fill-opacity="1" /><path clip-path="url(#clip880)" d="M2295.77 277.134 L2295.77 281.162 Q2293.97 280.236 2292.02 279.773 Q2290.08 279.31 2287.99 279.31 Q2284.82 279.31 2283.23 280.283 Q2281.65 281.255 2281.65 283.199 Q2281.65 284.681 2282.79 285.537 Q2283.92 286.37 2287.35 287.134 L2288.8 287.458 Q2293.34 288.431 2295.24 290.213 Q2297.16 291.972 2297.16 295.144 Q2297.16 298.755 2294.29 300.861 Q2291.44 302.968 2286.44 302.968 Q2284.36 302.968 2282.09 302.551 Q2279.85 302.157 2277.35 301.347 L2277.35 296.949 Q2279.71 298.176 2282 298.801 Q2284.29 299.403 2286.54 299.403 Q2289.55 299.403 2291.17 298.384 Q2292.79 297.343 2292.79 295.468 Q2292.79 293.732 2291.61 292.806 Q2290.45 291.88 2286.49 291.023 L2285.01 290.676 Q2281.05 289.843 2279.29 288.13 Q2277.53 286.394 2277.53 283.384 Q2277.53 279.727 2280.12 277.736 Q2282.72 275.746 2287.49 275.746 Q2289.85 275.746 2291.93 276.093 Q2294.01 276.44 2295.77 277.134 Z" fill="#000000" fill-rule="nonzero" fill-opacity="1" /><path clip-path="url(#clip880)" d="M2308.16 269.009 L2308.16 276.371 L2316.93 276.371 L2316.93 279.681 L2308.16 279.681 L2308.16 293.755 Q2308.16 296.926 2309.01 297.829 Q2309.89 298.731 2312.55 298.731 L2316.93 298.731 L2316.93 302.296 L2312.55 302.296 Q2307.62 302.296 2305.75 300.468 Q2303.87 298.616 2303.87 293.755 L2303.87 279.681 L2300.75 279.681 L2300.75 276.371 L2303.87 276.371 L2303.87 269.009 L2308.16 269.009 Z" fill="#000000" fill-rule="nonzero" fill-opacity="1" /><path clip-path="url(#clip880)" d="M2337.55 280.352 Q2336.84 279.935 2335.98 279.75 Q2335.15 279.542 2334.13 279.542 Q2330.52 279.542 2328.57 281.903 Q2326.65 284.241 2326.65 288.639 L2326.65 302.296 L2322.37 302.296 L2322.37 276.371 L2326.65 276.371 L2326.65 280.398 Q2327.99 278.037 2330.15 276.903 Q2332.3 275.746 2335.38 275.746 Q2335.82 275.746 2336.35 275.815 Q2336.88 275.861 2337.53 275.977 L2337.55 280.352 Z" fill="#000000" fill-rule="nonzero" fill-opacity="1" /><path clip-path="url(#clip880)" d="M2353.8 289.264 Q2348.64 289.264 2346.65 290.444 Q2344.66 291.625 2344.66 294.472 Q2344.66 296.741 2346.14 298.083 Q2347.65 299.403 2350.22 299.403 Q2353.76 299.403 2355.89 296.903 Q2358.04 294.38 2358.04 290.213 L2358.04 289.264 L2353.8 289.264 M2362.3 287.505 L2362.3 302.296 L2358.04 302.296 L2358.04 298.361 Q2356.58 300.722 2354.41 301.856 Q2352.23 302.968 2349.08 302.968 Q2345.1 302.968 2342.74 300.745 Q2340.4 298.5 2340.4 294.75 Q2340.4 290.375 2343.32 288.153 Q2346.26 285.931 2352.07 285.931 L2358.04 285.931 L2358.04 285.514 Q2358.04 282.574 2356.1 280.977 Q2354.17 279.357 2350.68 279.357 Q2348.46 279.357 2346.35 279.889 Q2344.24 280.421 2342.3 281.486 L2342.3 277.551 Q2344.64 276.648 2346.84 276.208 Q2349.04 275.746 2351.12 275.746 Q2356.74 275.746 2359.52 278.662 Q2362.3 281.579 2362.3 287.505 Z" fill="#000000" fill-rule="nonzero" fill-opacity="1" /><path clip-path="url(#clip880)" d="M2371.07 276.371 L2375.33 276.371 L2375.33 302.296 L2371.07 302.296 L2371.07 276.371 M2371.07 266.278 L2375.33 266.278 L2375.33 271.671 L2371.07 271.671 L2371.07 266.278 Z" fill="#000000" fill-rule="nonzero" fill-opacity="1" /><path clip-path="url(#clip880)" d="M2405.79 286.648 L2405.79 302.296 L2401.54 302.296 L2401.54 286.787 Q2401.54 283.107 2400.1 281.278 Q2398.67 279.449 2395.79 279.449 Q2392.35 279.449 2390.36 281.648 Q2388.36 283.847 2388.36 287.644 L2388.36 302.296 L2384.08 302.296 L2384.08 276.371 L2388.36 276.371 L2388.36 280.398 Q2389.89 278.06 2391.95 276.903 Q2394.04 275.746 2396.74 275.746 Q2401.21 275.746 2403.5 278.523 Q2405.79 281.278 2405.79 286.648 Z" fill="#000000" fill-rule="nonzero" fill-opacity="1" /><path clip-path="url(#clip880)" d="M2436.47 288.269 L2436.47 290.352 L2416.88 290.352 Q2417.16 294.75 2419.52 297.065 Q2421.91 299.356 2426.14 299.356 Q2428.6 299.356 2430.89 298.755 Q2433.2 298.153 2435.47 296.949 L2435.47 300.977 Q2433.18 301.949 2430.77 302.458 Q2428.36 302.968 2425.89 302.968 Q2419.68 302.968 2416.05 299.356 Q2412.44 295.745 2412.44 289.588 Q2412.44 283.222 2415.86 279.495 Q2419.31 275.746 2425.15 275.746 Q2430.38 275.746 2433.41 279.125 Q2436.47 282.482 2436.47 288.269 M2432.21 287.019 Q2432.16 283.523 2430.24 281.44 Q2428.34 279.357 2425.19 279.357 Q2421.63 279.357 2419.48 281.37 Q2417.35 283.384 2417.02 287.042 L2432.21 287.019 Z" fill="#000000" fill-rule="nonzero" fill-opacity="1" /><path clip-path="url(#clip880)" d="M2460.52 280.306 L2460.52 266.278 L2464.78 266.278 L2464.78 302.296 L2460.52 302.296 L2460.52 298.407 Q2459.17 300.722 2457.11 301.856 Q2455.08 302.968 2452.21 302.968 Q2447.51 302.968 2444.54 299.218 Q2441.6 295.468 2441.6 289.357 Q2441.6 283.245 2444.54 279.495 Q2447.51 275.746 2452.21 275.746 Q2455.08 275.746 2457.11 276.88 Q2459.17 277.991 2460.52 280.306 M2446 289.357 Q2446 294.056 2447.92 296.741 Q2449.87 299.403 2453.25 299.403 Q2456.63 299.403 2458.57 296.741 Q2460.52 294.056 2460.52 289.357 Q2460.52 284.657 2458.57 281.995 Q2456.63 279.31 2453.25 279.31 Q2449.87 279.31 2447.92 281.995 Q2446 284.657 2446 289.357 Z" fill="#000000" fill-rule="nonzero" fill-opacity="1" /><path clip-path="url(#clip880)" d="M2501.74 266.278 L2501.74 269.82 L2497.67 269.82 Q2495.38 269.82 2494.47 270.746 Q2493.6 271.671 2493.6 274.079 L2493.6 276.371 L2500.61 276.371 L2500.61 279.681 L2493.6 279.681 L2493.6 302.296 L2489.31 302.296 L2489.31 279.681 L2485.24 279.681 L2485.24 276.371 L2489.31 276.371 L2489.31 274.565 Q2489.31 270.236 2491.33 268.269 Q2493.34 266.278 2497.72 266.278 L2501.74 266.278 Z" fill="#000000" fill-rule="nonzero" fill-opacity="1" /><path clip-path="url(#clip880)" d="M2505.31 276.371 L2509.57 276.371 L2509.57 302.296 L2505.31 302.296 L2505.31 276.371 M2505.31 266.278 L2509.57 266.278 L2509.57 271.671 L2505.31 271.671 L2505.31 266.278 Z" fill="#000000" fill-rule="nonzero" fill-opacity="1" /><path clip-path="url(#clip880)" d="M2522.69 269.009 L2522.69 276.371 L2531.47 276.371 L2531.47 279.681 L2522.69 279.681 L2522.69 293.755 Q2522.69 296.926 2523.55 297.829 Q2524.43 298.731 2527.09 298.731 L2531.47 298.731 L2531.47 302.296 L2527.09 302.296 Q2522.16 302.296 2520.28 300.468 Q2518.41 298.616 2518.41 293.755 L2518.41 279.681 L2515.28 279.681 L2515.28 276.371 L2518.41 276.371 L2518.41 269.009 L2522.69 269.009 Z" fill="#000000" fill-rule="nonzero" fill-opacity="1" /><polyline clip-path="url(#clip880)" style="stroke:#000000; stroke-linecap:round; stroke-linejoin:round; stroke-width:12; stroke-opacity:1; fill:none" stroke-dasharray="48, 30" points="1994.03,336.856 2157.96,336.856 "/>
<path clip-path="url(#clip880)" d="M2185.29 319.576 L2214.52 319.576 L2214.52 323.511 L2202.25 323.511 L2202.25 354.136 L2197.56 354.136 L2197.56 323.511 L2185.29 323.511 L2185.29 319.576 Z" fill="#000000" fill-rule="nonzero" fill-opacity="1" /><path clip-path="url(#clip880)" d="M2226.91 332.192 Q2226.19 331.775 2225.33 331.59 Q2224.5 331.382 2223.48 331.382 Q2219.87 331.382 2217.93 333.743 Q2216 336.081 2216 340.479 L2216 354.136 L2211.72 354.136 L2211.72 328.211 L2216 328.211 L2216 332.238 Q2217.35 329.877 2219.5 328.743 Q2221.65 327.586 2224.73 327.586 Q2225.17 327.586 2225.7 327.655 Q2226.24 327.701 2226.88 327.817 L2226.91 332.192 Z" fill="#000000" fill-rule="nonzero" fill-opacity="1" /><path clip-path="url(#clip880)" d="M2230.93 343.905 L2230.93 328.211 L2235.19 328.211 L2235.19 343.743 Q2235.19 347.423 2236.63 349.275 Q2238.06 351.104 2240.93 351.104 Q2244.38 351.104 2246.37 348.905 Q2248.39 346.706 2248.39 342.909 L2248.39 328.211 L2252.65 328.211 L2252.65 354.136 L2248.39 354.136 L2248.39 350.155 Q2246.84 352.516 2244.78 353.673 Q2242.74 354.808 2240.03 354.808 Q2235.56 354.808 2233.25 352.03 Q2230.93 349.252 2230.93 343.905 M2241.65 327.586 L2241.65 327.586 Z" fill="#000000" fill-rule="nonzero" fill-opacity="1" /><path clip-path="url(#clip880)" d="M2283.6 340.109 L2283.6 342.192 L2264.01 342.192 Q2264.29 346.59 2266.65 348.905 Q2269.04 351.196 2273.27 351.196 Q2275.73 351.196 2278.02 350.595 Q2280.33 349.993 2282.6 348.789 L2282.6 352.817 Q2280.31 353.789 2277.9 354.298 Q2275.49 354.808 2273.02 354.808 Q2266.81 354.808 2263.18 351.196 Q2259.57 347.585 2259.57 341.428 Q2259.57 335.062 2262.99 331.335 Q2266.44 327.586 2272.28 327.586 Q2277.51 327.586 2280.54 330.965 Q2283.6 334.322 2283.6 340.109 M2279.34 338.859 Q2279.29 335.363 2277.37 333.28 Q2275.47 331.197 2272.32 331.197 Q2268.76 331.197 2266.61 333.21 Q2264.48 335.224 2264.15 338.882 L2279.34 338.859 Z" fill="#000000" fill-rule="nonzero" fill-opacity="1" /><path clip-path="url(#clip880)" d="M2310.52 323.419 L2310.52 336.405 L2316.4 336.405 Q2319.66 336.405 2321.44 334.715 Q2323.23 333.025 2323.23 329.9 Q2323.23 326.798 2321.44 325.109 Q2319.66 323.419 2316.4 323.419 L2310.52 323.419 M2305.84 319.576 L2316.4 319.576 Q2322.21 319.576 2325.17 322.215 Q2328.16 324.831 2328.16 329.9 Q2328.16 335.016 2325.17 337.632 Q2322.21 340.247 2316.4 340.247 L2310.52 340.247 L2310.52 354.136 L2305.84 354.136 L2305.84 319.576 Z" fill="#000000" fill-rule="nonzero" fill-opacity="1" /><path clip-path="url(#clip880)" d="M2344.48 318.164 Q2341.37 323.488 2339.87 328.697 Q2338.36 333.905 2338.36 339.252 Q2338.36 344.599 2339.87 349.854 Q2341.4 355.085 2344.48 360.386 L2340.77 360.386 Q2337.3 354.946 2335.56 349.692 Q2333.85 344.437 2333.85 339.252 Q2333.85 334.09 2335.56 328.859 Q2337.28 323.627 2340.77 318.164 L2344.48 318.164 Z" fill="#000000" fill-rule="nonzero" fill-opacity="1" /><path clip-path="url(#clip880)" d="M2352.92 319.576 L2359.22 319.576 L2374.54 348.488 L2374.54 319.576 L2379.08 319.576 L2379.08 354.136 L2372.79 354.136 L2357.46 325.224 L2357.46 354.136 L2352.92 354.136 L2352.92 319.576 Z" fill="#000000" fill-rule="nonzero" fill-opacity="1" /><path clip-path="url(#clip880)" d="M2387.53 318.164 L2391.23 318.164 Q2394.71 323.627 2396.42 328.859 Q2398.16 334.09 2398.16 339.252 Q2398.16 344.437 2396.42 349.692 Q2394.71 354.946 2391.23 360.386 L2387.53 360.386 Q2390.61 355.085 2392.11 349.854 Q2393.64 344.599 2393.64 339.252 Q2393.64 333.905 2392.11 328.697 Q2390.61 323.488 2387.53 318.164 Z" fill="#000000" fill-rule="nonzero" fill-opacity="1" /><path clip-path="url(#clip880)" d="M1994.03 409.432 L2157.96 409.432 L2157.96 367.96 L1994.03 367.96 L1994.03 409.432  Z" fill="#4682b4" fill-rule="evenodd" fill-opacity="0.08"/>
<polyline clip-path="url(#clip880)" style="stroke:#000000; stroke-linecap:round; stroke-linejoin:round; stroke-width:0.8; stroke-opacity:1; fill:none" points="1994.03,409.432 2157.96,409.432 2157.96,367.96 1994.03,367.96 1994.03,409.432 "/>
<path clip-path="url(#clip880)" d="M2189.96 375.259 L2189.96 402.134 L2195.61 402.134 Q2202.76 402.134 2206.07 398.893 Q2209.41 395.652 2209.41 388.662 Q2209.41 381.717 2206.07 378.5 Q2202.76 375.259 2195.61 375.259 L2189.96 375.259 M2185.29 371.416 L2194.89 371.416 Q2204.94 371.416 2209.64 375.606 Q2214.34 379.773 2214.34 388.662 Q2214.34 397.597 2209.62 401.786 Q2204.89 405.976 2194.89 405.976 L2185.29 405.976 L2185.29 371.416 Z" fill="#000000" fill-rule="nonzero" fill-opacity="1" /><path clip-path="url(#clip880)" d="M2233.39 392.944 Q2228.23 392.944 2226.24 394.124 Q2224.24 395.305 2224.24 398.152 Q2224.24 400.421 2225.73 401.763 Q2227.23 403.083 2229.8 403.083 Q2233.34 403.083 2235.47 400.583 Q2237.62 398.06 2237.62 393.893 L2237.62 392.944 L2233.39 392.944 M2241.88 391.185 L2241.88 405.976 L2237.62 405.976 L2237.62 402.041 Q2236.17 404.402 2233.99 405.536 Q2231.81 406.648 2228.67 406.648 Q2224.68 406.648 2222.32 404.425 Q2219.99 402.18 2219.99 398.43 Q2219.99 394.055 2222.9 391.833 Q2225.84 389.611 2231.65 389.611 L2237.62 389.611 L2237.62 389.194 Q2237.62 386.254 2235.68 384.657 Q2233.76 383.037 2230.26 383.037 Q2228.04 383.037 2225.93 383.569 Q2223.83 384.101 2221.88 385.166 L2221.88 381.231 Q2224.22 380.328 2226.42 379.888 Q2228.62 379.426 2230.7 379.426 Q2236.33 379.426 2239.11 382.342 Q2241.88 385.259 2241.88 391.185 Z" fill="#000000" fill-rule="nonzero" fill-opacity="1" /><path clip-path="url(#clip880)" d="M2254.87 372.689 L2254.87 380.051 L2263.64 380.051 L2263.64 383.361 L2254.87 383.361 L2254.87 397.435 Q2254.87 400.606 2255.73 401.509 Q2256.61 402.411 2259.27 402.411 L2263.64 402.411 L2263.64 405.976 L2259.27 405.976 Q2254.34 405.976 2252.46 404.148 Q2250.59 402.296 2250.59 397.435 L2250.59 383.361 L2247.46 383.361 L2247.46 380.051 L2250.59 380.051 L2250.59 372.689 L2254.87 372.689 Z" fill="#000000" fill-rule="nonzero" fill-opacity="1" /><path clip-path="url(#clip880)" d="M2281.03 392.944 Q2275.86 392.944 2273.87 394.124 Q2271.88 395.305 2271.88 398.152 Q2271.88 400.421 2273.36 401.763 Q2274.87 403.083 2277.44 403.083 Q2280.98 403.083 2283.11 400.583 Q2285.26 398.06 2285.26 393.893 L2285.26 392.944 L2281.03 392.944 M2289.52 391.185 L2289.52 405.976 L2285.26 405.976 L2285.26 402.041 Q2283.8 404.402 2281.63 405.536 Q2279.45 406.648 2276.3 406.648 Q2272.32 406.648 2269.96 404.425 Q2267.62 402.18 2267.62 398.43 Q2267.62 394.055 2270.54 391.833 Q2273.48 389.611 2279.29 389.611 L2285.26 389.611 L2285.26 389.194 Q2285.26 386.254 2283.32 384.657 Q2281.4 383.037 2277.9 383.037 Q2275.68 383.037 2273.57 383.569 Q2271.47 384.101 2269.52 385.166 L2269.52 381.231 Q2271.86 380.328 2274.06 379.888 Q2276.26 379.426 2278.34 379.426 Q2283.97 379.426 2286.74 382.342 Q2289.52 385.259 2289.52 391.185 Z" fill="#000000" fill-rule="nonzero" fill-opacity="1" /><path clip-path="url(#clip880)" d="M2328.39 384.032 Q2327.67 383.615 2326.81 383.43 Q2325.98 383.222 2324.96 383.222 Q2321.35 383.222 2319.41 385.583 Q2317.49 387.921 2317.49 392.319 L2317.49 405.976 L2313.2 405.976 L2313.2 380.051 L2317.49 380.051 L2317.49 384.078 Q2318.83 381.717 2320.98 380.583 Q2323.13 379.426 2326.21 379.426 Q2326.65 379.426 2327.18 379.495 Q2327.72 379.541 2328.36 379.657 L2328.39 384.032 Z" fill="#000000" fill-rule="nonzero" fill-opacity="1" /><path clip-path="url(#clip880)" d="M2344.64 392.944 Q2339.48 392.944 2337.48 394.124 Q2335.49 395.305 2335.49 398.152 Q2335.49 400.421 2336.98 401.763 Q2338.48 403.083 2341.05 403.083 Q2344.59 403.083 2346.72 400.583 Q2348.87 398.06 2348.87 393.893 L2348.87 392.944 L2344.64 392.944 M2353.13 391.185 L2353.13 405.976 L2348.87 405.976 L2348.87 402.041 Q2347.42 404.402 2345.24 405.536 Q2343.06 406.648 2339.92 406.648 Q2335.93 406.648 2333.57 404.425 Q2331.23 402.18 2331.23 398.43 Q2331.23 394.055 2334.15 391.833 Q2337.09 389.611 2342.9 389.611 L2348.87 389.611 L2348.87 389.194 Q2348.87 386.254 2346.93 384.657 Q2345.01 383.037 2341.51 383.037 Q2339.29 383.037 2337.18 383.569 Q2335.08 384.101 2333.13 385.166 L2333.13 381.231 Q2335.47 380.328 2337.67 379.888 Q2339.87 379.426 2341.95 379.426 Q2347.58 379.426 2350.36 382.342 Q2353.13 385.259 2353.13 391.185 Z" fill="#000000" fill-rule="nonzero" fill-opacity="1" /><path clip-path="url(#clip880)" d="M2383.46 390.328 L2383.46 405.976 L2379.2 405.976 L2379.2 390.467 Q2379.2 386.787 2377.76 384.958 Q2376.33 383.129 2373.46 383.129 Q2370.01 383.129 2368.02 385.328 Q2366.03 387.527 2366.03 391.324 L2366.03 405.976 L2361.74 405.976 L2361.74 380.051 L2366.03 380.051 L2366.03 384.078 Q2367.55 381.74 2369.61 380.583 Q2371.7 379.426 2374.41 379.426 Q2378.87 379.426 2381.17 382.203 Q2383.46 384.958 2383.46 390.328 Z" fill="#000000" fill-rule="nonzero" fill-opacity="1" /><path clip-path="url(#clip880)" d="M2409.01 392.712 Q2409.01 388.083 2407.09 385.537 Q2405.19 382.99 2401.74 382.99 Q2398.32 382.99 2396.4 385.537 Q2394.5 388.083 2394.5 392.712 Q2394.5 397.319 2396.4 399.865 Q2398.32 402.411 2401.74 402.411 Q2405.19 402.411 2407.09 399.865 Q2409.01 397.319 2409.01 392.712 M2413.27 402.759 Q2413.27 409.379 2410.33 412.597 Q2407.39 415.837 2401.33 415.837 Q2399.08 415.837 2397.09 415.49 Q2395.1 415.166 2393.23 414.472 L2393.23 410.328 Q2395.1 411.347 2396.93 411.833 Q2398.76 412.319 2400.66 412.319 Q2404.85 412.319 2406.93 410.12 Q2409.01 407.944 2409.01 403.523 L2409.01 401.416 Q2407.69 403.708 2405.63 404.842 Q2403.57 405.976 2400.7 405.976 Q2395.93 405.976 2393.02 402.342 Q2390.1 398.708 2390.1 392.712 Q2390.1 386.694 2393.02 383.06 Q2395.93 379.426 2400.7 379.426 Q2403.57 379.426 2405.63 380.56 Q2407.69 381.694 2409.01 383.986 L2409.01 380.051 L2413.27 380.051 L2413.27 402.759 Z" fill="#000000" fill-rule="nonzero" fill-opacity="1" /><path clip-path="url(#clip880)" d="M2444.22 391.949 L2444.22 394.032 L2424.64 394.032 Q2424.92 398.43 2427.28 400.745 Q2429.66 403.036 2433.9 403.036 Q2436.35 403.036 2438.64 402.435 Q2440.96 401.833 2443.23 400.629 L2443.23 404.657 Q2440.93 405.629 2438.53 406.138 Q2436.12 406.648 2433.64 406.648 Q2427.44 406.648 2423.8 403.036 Q2420.19 399.425 2420.19 393.268 Q2420.19 386.902 2423.62 383.175 Q2427.07 379.426 2432.9 379.426 Q2438.13 379.426 2441.16 382.805 Q2444.22 386.162 2444.22 391.949 M2439.96 390.699 Q2439.91 387.203 2437.99 385.12 Q2436.1 383.037 2432.95 383.037 Q2429.38 383.037 2427.23 385.05 Q2425.1 387.064 2424.78 390.722 L2439.96 390.699 Z" fill="#000000" fill-rule="nonzero" fill-opacity="1" /></svg>
