<?xml version="1.0" encoding="utf-8"?>
<svg xmlns="http://www.w3.org/2000/svg" xmlns:xlink="http://www.w3.org/1999/xlink" width="1000" height="350" viewBox="0 0 4000 1400">
<defs>
  <clipPath id="clip420">
    <rect x="0" y="0" width="4000" height="1400"/>
  </clipPath>
</defs>
<path clip-path="url(#clip420)" d="M0 1400 L4000 1400 L4000 -7.03437e-14 L0 -7.03437e-14  Z" fill="#ffffff" fill-rule="evenodd" fill-opacity="1"/>
<defs>
  <clipPath id="clip421">
    <rect x="2852" y="94" width="1101" height="1170"/>
  </clipPath>
</defs>
<path clip-path="url(#clip420)" d="M213.294 1264.17 L1313.22 1264.17 L1313.22 94.7441 L213.294 94.7441  Z" fill="#ffffff" fill-rule="evenodd" fill-opacity="1"/>
<defs>
  <clipPath id="clip422">
    <rect x="213" y="94" width="1101" height="1170"/>
  </clipPath>
</defs>
<polyline clip-path="url(#clip422)" style="stroke:#000000; stroke-linecap:round; stroke-linejoin:round; stroke-width:2; stroke-opacity:0.1; fill:none" points="384.11,1264.17 384.11,94.7441 "/>
<polyline clip-path="url(#clip422)" style="stroke:#000000; stroke-linecap:round; stroke-linejoin:round; stroke-width:2; stroke-opacity:0.1; fill:none" points="583.661,1264.17 583.661,94.7441 "/>
<polyline clip-path="url(#clip422)" style="stroke:#000000; stroke-linecap:round; stroke-linejoin:round; stroke-width:2; stroke-opacity:0.1; fill:none" points="783.212,1264.17 783.212,94.7441 "/>
<polyline clip-path="url(#clip422)" style="stroke:#000000; stroke-linecap:round; stroke-linejoin:round; stroke-width:2; stroke-opacity:0.1; fill:none" points="982.763,1264.17 982.763,94.7441 "/>
<polyline clip-path="url(#clip422)" style="stroke:#000000; stroke-linecap:round; stroke-linejoin:round; stroke-width:2; stroke-opacity:0.1; fill:none" points="1182.31,1264.17 1182.31,94.7441 "/>
<polyline clip-path="url(#clip422)" style="stroke:#000000; stroke-linecap:round; stroke-linejoin:round; stroke-width:2; stroke-opacity:0.1; fill:none" points="213.294,1041.46 1313.22,1041.46 "/>
<polyline clip-path="url(#clip422)" style="stroke:#000000; stroke-linecap:round; stroke-linejoin:round; stroke-width:2; stroke-opacity:0.1; fill:none" points="213.294,817.368 1313.22,817.368 "/>
<polyline clip-path="url(#clip422)" style="stroke:#000000; stroke-linecap:round; stroke-linejoin:round; stroke-width:2; stroke-opacity:0.1; fill:none" points="213.294,593.279 1313.22,593.279 "/>
<polyline clip-path="url(#clip422)" style="stroke:#000000; stroke-linecap:round; stroke-linejoin:round; stroke-width:2; stroke-opacity:0.1; fill:none" points="213.294,369.19 1313.22,369.19 "/>
<polyline clip-path="url(#clip422)" style="stroke:#000000; stroke-linecap:round; stroke-linejoin:round; stroke-width:2; stroke-opacity:0.1; fill:none" points="213.294,145.101 1313.22,145.101 "/>
<polyline clip-path="url(#clip420)" style="stroke:#000000; stroke-linecap:round; stroke-linejoin:round; stroke-width:4; stroke-opacity:1; fill:none" points="213.294,1264.17 1313.22,1264.17 "/>
<polyline clip-path="url(#clip420)" style="stroke:#000000; stroke-linecap:round; stroke-linejoin:round; stroke-width:4; stroke-opacity:1; fill:none" points="384.11,1264.17 384.11,1245.27 "/>
<polyline clip-path="url(#clip420)" style="stroke:#000000; stroke-linecap:round; stroke-linejoin:round; stroke-width:4; stroke-opacity:1; fill:none" points="583.661,1264.17 583.661,1245.27 "/>
<polyline clip-path="url(#clip420)" style="stroke:#000000; stroke-linecap:round; stroke-linejoin:round; stroke-width:4; stroke-opacity:1; fill:none" points="783.212,1264.17 783.212,1245.27 "/>
<polyline clip-path="url(#clip420)" style="stroke:#000000; stroke-linecap:round; stroke-linejoin:round; stroke-width:4; stroke-opacity:1; fill:none" points="982.763,1264.17 982.763,1245.27 "/>
<polyline clip-path="url(#clip420)" style="stroke:#000000; stroke-linecap:round; stroke-linejoin:round; stroke-width:4; stroke-opacity:1; fill:none" points="1182.31,1264.17 1182.31,1245.27 "/>
<path clip-path="url(#clip420)" d="M374.492 1335.43 L382.131 1335.43 L382.131 1309.07 L373.821 1310.73 L373.821 1306.47 L382.085 1304.81 L386.76 1304.81 L386.76 1335.43 L394.399 1335.43 L394.399 1339.37 L374.492 1339.37 L374.492 1335.43 Z" fill="#000000" fill-rule="nonzero" fill-opacity="1" /><path clip-path="url(#clip420)" d="M578.314 1335.43 L594.633 1335.43 L594.633 1339.37 L572.689 1339.37 L572.689 1335.43 Q575.351 1332.68 579.934 1328.05 Q584.541 1323.4 585.721 1322.05 Q587.967 1319.53 588.846 1317.79 Q589.749 1316.03 589.749 1314.34 Q589.749 1311.59 587.805 1309.85 Q585.883 1308.12 582.781 1308.12 Q580.582 1308.12 578.129 1308.88 Q575.698 1309.65 572.92 1311.2 L572.92 1306.47 Q575.744 1305.34 578.198 1304.76 Q580.652 1304.18 582.689 1304.18 Q588.059 1304.18 591.254 1306.87 Q594.448 1309.55 594.448 1314.04 Q594.448 1316.17 593.638 1318.09 Q592.851 1319.99 590.744 1322.59 Q590.166 1323.26 587.064 1326.47 Q583.962 1329.67 578.314 1335.43 Z" fill="#000000" fill-rule="nonzero" fill-opacity="1" /><path clip-path="url(#clip420)" d="M787.46 1320.73 Q790.816 1321.45 792.691 1323.72 Q794.589 1325.99 794.589 1329.32 Q794.589 1334.44 791.071 1337.24 Q787.552 1340.04 781.071 1340.04 Q778.895 1340.04 776.58 1339.6 Q774.289 1339.18 771.835 1338.33 L771.835 1333.81 Q773.779 1334.95 776.094 1335.53 Q778.409 1336.1 780.932 1336.1 Q785.33 1336.1 787.622 1334.37 Q789.937 1332.63 789.937 1329.32 Q789.937 1326.27 787.784 1324.55 Q785.654 1322.82 781.835 1322.82 L777.807 1322.82 L777.807 1318.97 L782.02 1318.97 Q785.469 1318.97 787.298 1317.61 Q789.127 1316.22 789.127 1313.63 Q789.127 1310.97 787.228 1309.55 Q785.353 1308.12 781.835 1308.12 Q779.914 1308.12 777.715 1308.53 Q775.515 1308.95 772.877 1309.83 L772.877 1305.66 Q775.539 1304.92 777.853 1304.55 Q780.191 1304.18 782.252 1304.18 Q787.576 1304.18 790.677 1306.61 Q793.779 1309.02 793.779 1313.14 Q793.779 1316.01 792.136 1318 Q790.492 1319.97 787.46 1320.73 Z" fill="#000000" fill-rule="nonzero" fill-opacity="1" /><path clip-path="url(#clip420)" d="M985.773 1308.88 L973.967 1327.33 L985.773 1327.33 L985.773 1308.88 M984.546 1304.81 L990.425 1304.81 L990.425 1327.33 L995.356 1327.33 L995.356 1331.22 L990.425 1331.22 L990.425 1339.37 L985.773 1339.37 L985.773 1331.22 L970.171 1331.22 L970.171 1326.71 L984.546 1304.81 Z" fill="#000000" fill-rule="nonzero" fill-opacity="1" /><path clip-path="url(#clip420)" d="M1172.59 1304.81 L1190.95 1304.81 L1190.95 1308.74 L1176.87 1308.74 L1176.87 1317.22 Q1177.89 1316.87 1178.91 1316.71 Q1179.93 1316.52 1180.95 1316.52 Q1186.74 1316.52 1190.12 1319.69 Q1193.49 1322.86 1193.49 1328.28 Q1193.49 1333.86 1190.02 1336.96 Q1186.55 1340.04 1180.23 1340.04 Q1178.06 1340.04 1175.79 1339.67 Q1173.54 1339.3 1171.13 1338.56 L1171.13 1333.86 Q1173.22 1334.99 1175.44 1335.55 Q1177.66 1336.1 1180.14 1336.1 Q1184.14 1336.1 1186.48 1334 Q1188.82 1331.89 1188.82 1328.28 Q1188.82 1324.67 1186.48 1322.56 Q1184.14 1320.46 1180.14 1320.46 Q1178.26 1320.46 1176.39 1320.87 Q1174.54 1321.29 1172.59 1322.17 L1172.59 1304.81 Z" fill="#000000" fill-rule="nonzero" fill-opacity="1" /><path clip-path="url(#clip420)" d="M745.147 1385.51 L751.576 1385.51 L751.576 1404.99 L774.938 1404.99 L774.938 1385.51 L781.368 1385.51 L781.368 1433.03 L774.938 1433.03 L774.938 1410.4 L751.576 1410.4 L751.576 1433.03 L745.147 1433.03 L745.147 1385.51 Z" fill="#000000" fill-rule="nonzero" fill-opacity="1" /><polyline clip-path="url(#clip420)" style="stroke:#000000; stroke-linecap:round; stroke-linejoin:round; stroke-width:4; stroke-opacity:1; fill:none" points="213.294,1264.17 213.294,94.7441 "/>
<polyline clip-path="url(#clip420)" style="stroke:#000000; stroke-linecap:round; stroke-linejoin:round; stroke-width:4; stroke-opacity:1; fill:none" points="213.294,1041.46 232.192,1041.46 "/>
<polyline clip-path="url(#clip420)" style="stroke:#000000; stroke-linecap:round; stroke-linejoin:round; stroke-width:4; stroke-opacity:1; fill:none" points="213.294,817.368 232.192,817.368 "/>
<polyline clip-path="url(#clip420)" style="stroke:#000000; stroke-linecap:round; stroke-linejoin:round; stroke-width:4; stroke-opacity:1; fill:none" points="213.294,593.279 232.192,593.279 "/>
<polyline clip-path="url(#clip420)" style="stroke:#000000; stroke-linecap:round; stroke-linejoin:round; stroke-width:4; stroke-opacity:1; fill:none" points="213.294,369.19 232.192,369.19 "/>
<polyline clip-path="url(#clip420)" style="stroke:#000000; stroke-linecap:round; stroke-linejoin:round; stroke-width:4; stroke-opacity:1; fill:none" points="213.294,145.101 232.192,145.101 "/>
<path clip-path="url(#clip420)" d="M97.7159 1027.26 Q94.1048 1027.26 92.2761 1030.82 Q90.4705 1034.36 90.4705 1041.49 Q90.4705 1048.6 92.2761 1052.16 Q94.1048 1055.7 97.7159 1055.7 Q101.35 1055.7 103.156 1052.16 Q104.984 1048.6 104.984 1041.49 Q104.984 1034.36 103.156 1030.82 Q101.35 1027.26 97.7159 1027.26 M97.7159 1023.55 Q103.526 1023.55 106.582 1028.16 Q109.66 1032.74 109.66 1041.49 Q109.66 1050.22 106.582 1054.83 Q103.526 1059.41 97.7159 1059.41 Q91.9057 1059.41 88.827 1054.83 Q85.7715 1050.22 85.7715 1041.49 Q85.7715 1032.74 88.827 1028.16 Q91.9057 1023.55 97.7159 1023.55 Z" fill="#000000" fill-rule="nonzero" fill-opacity="1" /><path clip-path="url(#clip420)" d="M117.878 1052.86 L122.762 1052.86 L122.762 1058.74 L117.878 1058.74 L117.878 1052.86 Z" fill="#000000" fill-rule="nonzero" fill-opacity="1" /><path clip-path="url(#clip420)" d="M136.975 1054.8 L153.294 1054.8 L153.294 1058.74 L131.35 1058.74 L131.35 1054.8 Q134.012 1052.05 138.595 1047.42 Q143.202 1042.77 144.382 1041.42 Q146.628 1038.9 147.507 1037.16 Q148.41 1035.4 148.41 1033.71 Q148.41 1030.96 146.466 1029.22 Q144.544 1027.49 141.442 1027.49 Q139.243 1027.49 136.79 1028.25 Q134.359 1029.02 131.581 1030.57 L131.581 1025.84 Q134.405 1024.71 136.859 1024.13 Q139.313 1023.55 141.35 1023.55 Q146.72 1023.55 149.915 1026.24 Q153.109 1028.92 153.109 1033.41 Q153.109 1035.54 152.299 1037.46 Q151.512 1039.36 149.405 1041.95 Q148.827 1042.63 145.725 1045.84 Q142.623 1049.04 136.975 1054.8 Z" fill="#000000" fill-rule="nonzero" fill-opacity="1" /><path clip-path="url(#clip420)" d="M96.7668 803.167 Q93.1557 803.167 91.327 806.732 Q89.5215 810.273 89.5215 817.403 Q89.5215 824.509 91.327 828.074 Q93.1557 831.616 96.7668 831.616 Q100.401 831.616 102.207 828.074 Q104.035 824.509 104.035 817.403 Q104.035 810.273 102.207 806.732 Q100.401 803.167 96.7668 803.167 M96.7668 799.463 Q102.577 799.463 105.632 804.07 Q108.711 808.653 108.711 817.403 Q108.711 826.13 105.632 830.736 Q102.577 835.32 96.7668 835.32 Q90.9566 835.32 87.8779 830.736 Q84.8224 826.13 84.8224 817.403 Q84.8224 808.653 87.8779 804.07 Q90.9566 799.463 96.7668 799.463 Z" fill="#000000" fill-rule="nonzero" fill-opacity="1" /><path clip-path="url(#clip420)" d="M116.929 828.769 L121.813 828.769 L121.813 834.648 L116.929 834.648 L116.929 828.769 Z" fill="#000000" fill-rule="nonzero" fill-opacity="1" /><path clip-path="url(#clip420)" d="M146.165 816.014 Q149.521 816.732 151.396 819 Q153.294 821.269 153.294 824.602 Q153.294 829.718 149.776 832.519 Q146.257 835.32 139.776 835.32 Q137.6 835.32 135.285 834.88 Q132.993 834.463 130.54 833.607 L130.54 829.093 Q132.484 830.227 134.799 830.806 Q137.114 831.384 139.637 831.384 Q144.035 831.384 146.327 829.648 Q148.642 827.912 148.642 824.602 Q148.642 821.547 146.489 819.834 Q144.359 818.097 140.54 818.097 L136.512 818.097 L136.512 814.255 L140.725 814.255 Q144.174 814.255 146.003 812.889 Q147.831 811.5 147.831 808.908 Q147.831 806.246 145.933 804.834 Q144.058 803.398 140.54 803.398 Q138.618 803.398 136.419 803.815 Q134.22 804.232 131.581 805.111 L131.581 800.945 Q134.243 800.204 136.558 799.834 Q138.896 799.463 140.956 799.463 Q146.28 799.463 149.382 801.894 Q152.484 804.301 152.484 808.422 Q152.484 811.292 150.841 813.283 Q149.197 815.25 146.165 816.014 Z" fill="#000000" fill-rule="nonzero" fill-opacity="1" /><path clip-path="url(#clip420)" d="M95.6325 579.078 Q92.0214 579.078 90.1928 582.643 Q88.3872 586.184 88.3872 593.314 Q88.3872 600.421 90.1928 603.985 Q92.0214 607.527 95.6325 607.527 Q99.2668 607.527 101.072 603.985 Q102.901 600.421 102.901 593.314 Q102.901 586.184 101.072 582.643 Q99.2668 579.078 95.6325 579.078 M95.6325 575.374 Q101.443 575.374 104.498 579.981 Q107.577 584.564 107.577 593.314 Q107.577 602.041 104.498 606.647 Q101.443 611.231 95.6325 611.231 Q89.8224 611.231 86.7437 606.647 Q83.6882 602.041 83.6882 593.314 Q83.6882 584.564 86.7437 579.981 Q89.8224 575.374 95.6325 575.374 Z" fill="#000000" fill-rule="nonzero" fill-opacity="1" /><path clip-path="url(#clip420)" d="M115.794 604.68 L120.679 604.68 L120.679 610.559 L115.794 610.559 L115.794 604.68 Z" fill="#000000" fill-rule="nonzero" fill-opacity="1" /><path clip-path="url(#clip420)" d="M143.711 580.073 L131.905 598.522 L143.711 598.522 L143.711 580.073 M142.484 575.999 L148.364 575.999 L148.364 598.522 L153.294 598.522 L153.294 602.411 L148.364 602.411 L148.364 610.559 L143.711 610.559 L143.711 602.411 L128.109 602.411 L128.109 597.897 L142.484 575.999 Z" fill="#000000" fill-rule="nonzero" fill-opacity="1" /><path clip-path="url(#clip420)" d="M97.114 354.989 Q93.5029 354.989 91.6742 358.554 Q89.8687 362.096 89.8687 369.225 Q89.8687 376.332 91.6742 379.896 Q93.5029 383.438 97.114 383.438 Q100.748 383.438 102.554 379.896 Q104.382 376.332 104.382 369.225 Q104.382 362.096 102.554 358.554 Q100.748 354.989 97.114 354.989 M97.114 351.285 Q102.924 351.285 105.98 355.892 Q109.058 360.475 109.058 369.225 Q109.058 377.952 105.98 382.558 Q102.924 387.142 97.114 387.142 Q91.3039 387.142 88.2252 382.558 Q85.1696 377.952 85.1696 369.225 Q85.1696 360.475 88.2252 355.892 Q91.3039 351.285 97.114 351.285 Z" fill="#000000" fill-rule="nonzero" fill-opacity="1" /><path clip-path="url(#clip420)" d="M117.276 380.591 L122.16 380.591 L122.16 386.47 L117.276 386.47 L117.276 380.591 Z" fill="#000000" fill-rule="nonzero" fill-opacity="1" /><path clip-path="url(#clip420)" d="M132.392 351.91 L150.748 351.91 L150.748 355.846 L136.674 355.846 L136.674 364.318 Q137.692 363.971 138.711 363.809 Q139.73 363.623 140.748 363.623 Q146.535 363.623 149.915 366.795 Q153.294 369.966 153.294 375.383 Q153.294 380.961 149.822 384.063 Q146.35 387.142 140.03 387.142 Q137.855 387.142 135.586 386.771 Q133.341 386.401 130.933 385.66 L130.933 380.961 Q133.017 382.095 135.239 382.651 Q137.461 383.207 139.938 383.207 Q143.942 383.207 146.28 381.1 Q148.618 378.994 148.618 375.383 Q148.618 371.771 146.28 369.665 Q143.942 367.558 139.938 367.558 Q138.063 367.558 136.188 367.975 Q134.336 368.392 132.392 369.271 L132.392 351.91 Z" fill="#000000" fill-rule="nonzero" fill-opacity="1" /><path clip-path="url(#clip420)" d="M95.9566 130.9 Q92.3455 130.9 90.5168 134.465 Q88.7113 138.007 88.7113 145.136 Q88.7113 152.243 90.5168 155.807 Q92.3455 159.349 95.9566 159.349 Q99.5909 159.349 101.396 155.807 Q103.225 152.243 103.225 145.136 Q103.225 138.007 101.396 134.465 Q99.5909 130.9 95.9566 130.9 M95.9566 127.197 Q101.767 127.197 104.822 131.803 Q107.901 136.386 107.901 145.136 Q107.901 153.863 104.822 158.469 Q101.767 163.053 95.9566 163.053 Q90.1465 163.053 87.0678 158.469 Q84.0122 153.863 84.0122 145.136 Q84.0122 136.386 87.0678 131.803 Q90.1465 127.197 95.9566 127.197 Z" fill="#000000" fill-rule="nonzero" fill-opacity="1" /><path clip-path="url(#clip420)" d="M116.119 156.502 L121.003 156.502 L121.003 162.381 L116.119 162.381 L116.119 156.502 Z" fill="#000000" fill-rule="nonzero" fill-opacity="1" /><path clip-path="url(#clip420)" d="M141.767 143.238 Q138.618 143.238 136.767 145.391 Q134.938 147.544 134.938 151.294 Q134.938 155.02 136.767 157.196 Q138.618 159.349 141.767 159.349 Q144.915 159.349 146.743 157.196 Q148.595 155.02 148.595 151.294 Q148.595 147.544 146.743 145.391 Q144.915 143.238 141.767 143.238 M151.049 128.585 L151.049 132.845 Q149.29 132.011 147.484 131.571 Q145.702 131.132 143.942 131.132 Q139.313 131.132 136.859 134.257 Q134.429 137.382 134.081 143.701 Q135.447 141.687 137.507 140.622 Q139.567 139.534 142.044 139.534 Q147.253 139.534 150.262 142.706 Q153.294 145.854 153.294 151.294 Q153.294 156.618 150.146 159.835 Q146.998 163.053 141.767 163.053 Q135.771 163.053 132.6 158.469 Q129.429 153.863 129.429 145.136 Q129.429 136.942 133.318 132.081 Q137.206 127.197 143.757 127.197 Q145.517 127.197 147.299 127.544 Q149.104 127.891 151.049 128.585 Z" fill="#000000" fill-rule="nonzero" fill-opacity="1" /><path clip-path="url(#clip420)" d="M-8.80559 719.48 Q-15.1713 719.48 -18.6724 722.122 Q-22.1736 724.732 -22.1736 729.475 Q-22.1736 734.185 -18.6724 736.827 Q-15.1713 739.437 -8.80559 739.437 Q-2.47171 739.437 1.02942 736.827 Q4.53056 734.185 4.53056 729.475 Q4.53056 724.732 1.02942 722.122 Q-2.47171 719.48 -8.80559 719.48 M5.00799 713.624 Q14.111 713.624 18.5351 717.666 Q22.9911 721.708 22.9911 730.047 Q22.9911 733.135 22.5137 735.872 Q22.0681 738.609 21.1132 741.187 L15.4159 741.187 Q16.8164 738.609 17.4848 736.095 Q18.1532 733.58 18.1532 730.97 Q18.1532 725.21 15.1295 722.345 Q12.1376 719.48 6.05833 719.48 L3.16194 719.48 Q6.31296 721.295 7.87256 724.127 Q9.43216 726.96 9.43216 730.907 Q9.43216 737.463 4.43508 741.474 Q-0.562002 745.484 -8.80559 745.484 Q-17.081 745.484 -22.0781 741.474 Q-27.0752 737.463 -27.0752 730.907 Q-27.0752 726.96 -25.5156 724.127 Q-23.956 721.295 -20.8049 719.48 L-26.2158 719.48 L-26.2158 713.624 L5.00799 713.624 Z" fill="#000000" fill-rule="nonzero" fill-opacity="1" /><path clip-path="url(#clip420)" d="M-40.0294 687.493 Q-32.7088 691.758 -25.5474 693.827 Q-18.386 695.895 -11.0336 695.895 Q-3.6812 695.895 3.54388 693.827 Q10.7371 691.726 18.0259 687.493 L18.0259 692.585 Q10.5462 697.36 3.32108 699.747 Q-3.904 702.102 -11.0336 702.102 Q-18.1314 702.102 -25.3246 699.747 Q-32.5178 697.391 -40.0294 692.585 L-40.0294 687.493 Z" fill="#000000" fill-rule="nonzero" fill-opacity="1" /><path clip-path="url(#clip420)" d="M-38.0878 675.875 L-38.0878 669.446 L-18.6088 669.446 L-18.6088 646.084 L-38.0878 646.084 L-38.0878 639.654 L9.43216 639.654 L9.43216 646.084 L-13.1979 646.084 L-13.1979 669.446 L9.43216 669.446 L9.43216 675.875 L-38.0878 675.875 Z" fill="#000000" fill-rule="nonzero" fill-opacity="1" /><path clip-path="url(#clip420)" d="M-40.0294 628.037 L-40.0294 622.944 Q-32.5178 618.17 -25.3246 615.815 Q-18.1314 613.428 -11.0336 613.428 Q-3.904 613.428 3.32108 615.815 Q10.5462 618.17 18.0259 622.944 L18.0259 628.037 Q10.7371 623.804 3.54388 621.735 Q-3.6812 619.634 -11.0336 619.634 Q-18.386 619.634 -25.5474 621.735 Q-32.7088 623.804 -40.0294 628.037 Z" fill="#000000" fill-rule="nonzero" fill-opacity="1" /><path clip-path="url(#clip420)" d="M613.576 18.8205 L613.576 65.8515 L623.46 65.8515 Q635.978 65.8515 641.77 60.1802 Q647.604 54.509 647.604 42.2752 Q647.604 30.1225 641.77 24.4918 Q635.978 18.8205 623.46 18.8205 L613.576 18.8205 M605.393 12.096 L622.205 12.096 Q639.786 12.096 648.009 19.4281 Q656.232 26.7198 656.232 42.2752 Q656.232 57.9117 647.968 65.2439 Q639.705 72.576 622.205 72.576 L605.393 72.576 L605.393 12.096 Z" fill="#000000" fill-rule="nonzero" fill-opacity="1" /><path clip-path="url(#clip420)" d="M688.032 20.1573 L676.932 50.2555 L699.172 50.2555 L688.032 20.1573 M683.414 12.096 L692.69 12.096 L715.74 72.576 L707.233 72.576 L701.724 57.061 L674.461 57.061 L668.952 72.576 L660.324 72.576 L683.414 12.096 Z" fill="#000000" fill-rule="nonzero" fill-opacity="1" /><path clip-path="url(#clip420)" d="M724.571 12.096 L732.754 12.096 L732.754 65.6895 L762.204 65.6895 L762.204 72.576 L724.571 72.576 L724.571 12.096 Z" fill="#000000" fill-rule="nonzero" fill-opacity="1" /><path clip-path="url(#clip420)" d="M750.983 12.096 L802.146 12.096 L802.146 18.9825 L780.676 18.9825 L780.676 72.576 L772.453 72.576 L772.453 18.9825 L750.983 18.9825 L750.983 12.096 Z" fill="#000000" fill-rule="nonzero" fill-opacity="1" /><path clip-path="url(#clip420)" d="M834.594 17.6457 Q825.682 17.6457 820.415 24.2892 Q815.19 30.9327 815.19 42.3968 Q815.19 53.8203 820.415 60.4638 Q825.682 67.1073 834.594 67.1073 Q843.506 67.1073 848.691 60.4638 Q853.916 53.8203 853.916 42.3968 Q853.916 30.9327 848.691 24.2892 Q843.506 17.6457 834.594 17.6457 M834.594 11.0023 Q847.313 11.0023 854.929 19.5497 Q862.545 28.0566 862.545 42.3968 Q862.545 56.6965 854.929 65.2439 Q847.313 73.7508 834.594 73.7508 Q821.833 73.7508 814.177 65.2439 Q806.561 56.737 806.561 42.3968 Q806.561 28.0566 814.177 19.5497 Q821.833 11.0023 834.594 11.0023 Z" fill="#000000" fill-rule="nonzero" fill-opacity="1" /><path clip-path="url(#clip420)" d="M875.346 12.096 L886.364 12.096 L913.181 62.6918 L913.181 12.096 L921.121 12.096 L921.121 72.576 L910.102 72.576 L883.285 21.9802 L883.285 72.576 L875.346 72.576 L875.346 12.096 Z" fill="#000000" fill-rule="nonzero" fill-opacity="1" /><polyline clip-path="url(#clip422)" style="stroke:#000000; stroke-linecap:round; stroke-linejoin:round; stroke-width:8; stroke-opacity:1; fill:none" stroke-dasharray="32, 20" points="244.424,1231.07 249.639,1214.09 254.853,1197.76 260.067,1182.05 265.282,1166.93 270.496,1152.36 275.711,1138.31 280.925,1124.76 286.139,1111.68 291.354,1099.04 296.568,1086.82 301.783,1075.01 306.997,1063.58 312.211,1052.51 317.426,1041.8 322.64,1031.41 327.855,1021.34 333.069,1011.57 338.283,1002.08 343.498,992.879 348.712,983.937 353.927,975.248 359.141,966.801 364.355,958.586 369.57,950.595 374.784,942.817 379.999,935.244 385.213,927.869 390.427,920.683 395.642,913.68 400.856,906.853 406.071,900.194 411.285,893.699 416.499,887.36 421.714,881.173 426.928,875.132 432.143,869.232 437.357,863.468 442.571,857.835 447.786,852.329 453,846.946 458.215,841.681 463.429,836.532 468.643,831.493 473.858,826.562 479.072,821.735 484.287,817.008 489.501,812.38 494.715,807.846 499.93,803.404 505.144,799.051 510.359,794.784 515.573,790.601 520.787,786.5 526.002,782.478 531.216,778.532 536.431,774.661 541.645,770.863 546.859,767.135 552.074,763.476 557.288,759.883 562.503,756.356 567.717,752.891 572.931,749.488 578.146,746.145 583.36,742.86 588.575,739.632 593.789,736.459 599.003,733.34 604.218,730.273 609.432,727.258 614.647,724.292 619.861,721.376 625.075,718.507 630.29,715.684 635.504,712.906 640.719,710.173 645.933,707.483 651.147,704.835 656.362,702.228 661.576,699.661 666.791,697.133 672.005,694.644 677.219,692.193 682.434,689.778 687.648,687.399 692.863,685.055 698.077,682.745 703.291,680.469 708.506,678.225 713.72,676.014 718.935,673.834 724.149,671.685 729.363,669.566 734.578,667.476 739.792,665.415 745.007,663.383 750.221,661.378 755.435,659.401 760.65,657.45 765.864,655.525 771.079,653.625 776.293,651.751 781.507,649.901 786.722,648.075 791.936,646.273 797.151,644.494 802.365,642.738 807.58,641.004 812.794,639.292 818.008,637.601 823.223,635.931 828.437,634.282 833.652,632.653 838.866,631.044 844.08,629.455 849.295,627.885 854.509,626.333 859.724,624.8 864.938,623.286 870.152,621.789 875.367,620.309 880.581,618.847 885.796,617.402 891.01,615.973 896.224,614.561 901.439,613.165 906.653,611.785 911.868,610.42 917.082,609.07 922.296,607.736 927.511,606.416 932.725,605.111 937.94,603.82 943.154,602.543 948.368,601.28 953.583,600.031 958.797,598.794 964.012,597.572 969.226,596.362 974.44,595.164 979.655,593.98 984.869,592.807 990.084,591.647 995.298,590.499 1000.51,589.363 1005.73,588.238 1010.94,587.125 1016.16,586.023 1021.37,584.932 1026.58,583.852 1031.8,582.782 1037.01,581.724 1042.23,580.675 1047.44,579.637 1052.66,578.61 1057.87,577.592 1063.09,576.584 1068.3,575.585 1073.51,574.597 1078.73,573.617 1083.94,572.647 1089.16,571.687 1094.37,570.735 1099.59,569.792 1104.8,568.858 1110.01,567.932 1115.23,567.015 1120.44,566.107 1125.66,565.207 1130.87,564.315 1136.09,563.431 1141.3,562.555 1146.52,561.687 1151.73,560.826 1156.94,559.974 1162.16,559.129 1167.37,558.291 1172.59,557.461 1177.8,556.638 1183.02,555.822 1188.23,555.013 1193.45,554.211 1198.66,553.416 1203.87,552.628 1209.09,551.847 1214.3,551.072 1219.52,550.304 1224.73,549.542 1229.95,548.786 1235.16,548.037 1240.37,547.295 1245.59,546.558 1250.8,545.827 1256.02,545.102 1261.23,544.384 1266.45,543.671 1271.66,542.964 1276.88,542.262 1282.09,541.567 "/>
<polyline clip-path="url(#clip422)" style="stroke:#008080; stroke-linecap:round; stroke-linejoin:round; stroke-width:8; stroke-opacity:1; fill:none" points="244.424,1142.31 249.639,1136.36 254.853,1130.41 260.067,1124.46 265.282,1118.5 270.496,1112.53 275.711,1106.55 280.925,1100.56 286.139,1094.55 291.354,1088.53 296.568,1082.49 301.783,1076.43 306.997,1070.34 312.211,1064.23 317.426,1058.1 322.64,1051.93 327.855,1045.74 333.069,1039.51 338.283,1033.24 343.498,1026.94 348.712,1020.6 353.927,1014.22 359.141,1007.79 364.355,1001.32 369.57,994.805 374.784,988.25 379.999,981.657 385.213,975.029 390.427,968.369 395.642,961.678 400.856,954.961 406.071,948.219 411.285,941.455 416.499,934.673 421.714,927.874 426.928,921.062 432.143,914.238 437.357,907.407 442.571,900.571 447.786,893.732 453,886.892 458.215,880.056 463.429,873.225 468.643,866.402 473.858,859.59 479.072,852.792 484.287,846.012 489.501,839.253 494.715,832.52 499.93,825.818 505.144,819.149 510.359,812.52 515.573,805.934 520.787,799.394 526.002,792.906 531.216,786.474 536.431,780.102 541.645,773.794 546.859,767.554 552.074,761.387 557.288,755.297 562.503,749.288 567.717,743.364 572.931,737.53 578.146,731.79 583.36,726.148 588.575,720.608 593.789,715.174 599.003,709.848 604.218,704.629 609.432,699.515 614.647,694.507 619.861,689.603 625.075,684.802 630.29,680.104 635.504,675.509 640.719,671.014 645.933,666.621 651.147,662.326 656.362,658.131 661.576,654.034 666.791,650.034 672.005,646.131 677.219,642.324 682.434,638.612 687.648,634.994 692.863,631.47 698.077,628.039 703.291,624.699 708.506,621.451 713.72,618.291 718.935,615.218 724.149,612.226 729.363,609.314 734.578,606.478 739.792,603.715 745.007,601.021 750.221,598.393 755.435,595.827 760.65,593.321 765.864,590.872 771.079,588.475 776.293,586.127 781.507,583.827 786.722,581.569 791.936,579.351 797.151,577.169 802.365,575.02 807.58,572.902 812.794,570.81 818.008,568.741 823.223,566.692 828.437,564.66 833.652,562.64 838.866,560.627 844.08,558.618 849.295,556.609 854.509,554.595 859.724,552.572 864.938,550.536 870.152,548.482 875.367,546.407 880.581,544.305 885.796,542.174 891.01,540.008 896.224,537.804 901.439,535.557 906.653,533.263 911.868,530.918 917.082,528.518 922.296,526.058 927.511,523.534 932.725,520.942 937.94,518.277 943.154,515.538 948.368,512.725 953.583,509.839 958.797,506.88 964.012,503.85 969.226,500.749 974.44,497.578 979.655,494.337 984.869,491.028 990.084,487.651 995.298,484.207 1000.51,480.697 1005.73,477.122 1010.94,473.483 1016.16,469.779 1021.37,466.013 1026.58,462.184 1031.8,458.294 1037.01,454.344 1042.23,450.333 1047.44,446.264 1052.66,442.136 1057.87,437.952 1063.09,433.714 1068.3,429.425 1073.51,425.089 1078.73,420.708 1083.94,416.285 1089.16,411.824 1094.37,407.328 1099.59,402.799 1104.8,398.241 1110.01,393.657 1115.23,389.051 1120.44,384.424 1125.66,379.78 1130.87,375.123 1136.09,370.454 1141.3,365.779 1146.52,361.098 1151.73,356.417 1156.94,351.736 1162.16,347.061 1167.37,342.393 1172.59,337.736 1177.8,333.088 1183.02,328.45 1188.23,323.821 1193.45,319.201 1198.66,314.588 1203.87,309.983 1209.09,305.386 1214.3,300.795 1219.52,296.21 1224.73,291.631 1229.95,287.057 1235.16,282.488 1240.37,277.923 1245.59,273.362 1250.8,268.805 1256.02,264.25 1261.23,259.697 1266.45,255.147 1271.66,250.598 1276.88,246.05 1282.09,241.502 "/>
<path clip-path="url(#clip420)" d="M249.958 289.245 L484.418 289.245 L484.418 133.725 L249.958 133.725  Z" fill="#ffffff" fill-rule="evenodd" fill-opacity="1"/>
<polyline clip-path="url(#clip420)" style="stroke:#000000; stroke-linecap:round; stroke-linejoin:round; stroke-width:4; stroke-opacity:1; fill:none" points="249.958,289.245 484.418,289.245 484.418,133.725 249.958,133.725 249.958,289.245 "/>
<polyline clip-path="url(#clip420)" style="stroke:#000000; stroke-linecap:round; stroke-linejoin:round; stroke-width:8; stroke-opacity:1; fill:none" stroke-dasharray="32, 20" points="262.18,185.565 335.508,185.565 "/>
<path clip-path="url(#clip420)" d="M347.73 168.285 L376.966 168.285 L376.966 172.22 L364.697 172.22 L364.697 202.845 L359.998 202.845 L359.998 172.22 L347.73 172.22 L347.73 168.285 Z" fill="#000000" fill-rule="nonzero" fill-opacity="1" /><path clip-path="url(#clip420)" d="M389.35 180.901 Q388.632 180.484 387.776 180.299 Q386.942 180.09 385.924 180.09 Q382.313 180.09 380.368 182.452 Q378.447 184.789 378.447 189.188 L378.447 202.845 L374.165 202.845 L374.165 176.919 L378.447 176.919 L378.447 180.947 Q379.79 178.586 381.942 177.452 Q384.095 176.294 387.174 176.294 Q387.614 176.294 388.146 176.364 Q388.678 176.41 389.327 176.526 L389.35 180.901 Z" fill="#000000" fill-rule="nonzero" fill-opacity="1" /><path clip-path="url(#clip420)" d="M393.378 192.613 L393.378 176.919 L397.637 176.919 L397.637 192.451 Q397.637 196.132 399.072 197.984 Q400.507 199.813 403.377 199.813 Q406.827 199.813 408.817 197.613 Q410.831 195.414 410.831 191.618 L410.831 176.919 L415.09 176.919 L415.09 202.845 L410.831 202.845 L410.831 198.863 Q409.28 201.225 407.22 202.382 Q405.183 203.516 402.475 203.516 Q398.007 203.516 395.692 200.738 Q393.378 197.961 393.378 192.613 M404.095 176.294 L404.095 176.294 Z" fill="#000000" fill-rule="nonzero" fill-opacity="1" /><path clip-path="url(#clip420)" d="M446.039 188.817 L446.039 190.901 L426.456 190.901 Q426.734 195.299 429.095 197.613 Q431.479 199.905 435.715 199.905 Q438.169 199.905 440.461 199.303 Q442.775 198.701 445.044 197.498 L445.044 201.525 Q442.752 202.498 440.345 203.007 Q437.937 203.516 435.461 203.516 Q429.257 203.516 425.623 199.905 Q422.012 196.294 422.012 190.137 Q422.012 183.771 425.438 180.044 Q428.887 176.294 434.72 176.294 Q439.951 176.294 442.984 179.674 Q446.039 183.03 446.039 188.817 M441.78 187.567 Q441.734 184.072 439.812 181.989 Q437.914 179.905 434.766 179.905 Q431.201 179.905 429.049 181.919 Q426.919 183.933 426.595 187.59 L441.78 187.567 Z" fill="#000000" fill-rule="nonzero" fill-opacity="1" /><polyline clip-path="url(#clip420)" style="stroke:#008080; stroke-linecap:round; stroke-linejoin:round; stroke-width:8; stroke-opacity:1; fill:none" points="262.18,237.405 335.508,237.405 "/>
<path clip-path="url(#clip420)" d="M347.73 220.125 L367.591 220.125 L367.591 224.06 L352.406 224.06 L352.406 234.245 L366.109 234.245 L366.109 238.18 L352.406 238.18 L352.406 254.685 L347.73 254.685 L347.73 220.125 Z" fill="#000000" fill-rule="nonzero" fill-opacity="1" /><path clip-path="url(#clip420)" d="M371.364 228.759 L375.623 228.759 L375.623 254.685 L371.364 254.685 L371.364 228.759 M371.364 218.667 L375.623 218.667 L375.623 224.06 L371.364 224.06 L371.364 218.667 Z" fill="#000000" fill-rule="nonzero" fill-opacity="1" /><path clip-path="url(#clip420)" d="M388.748 221.398 L388.748 228.759 L397.521 228.759 L397.521 232.069 L388.748 232.069 L388.748 246.143 Q388.748 249.315 389.604 250.217 Q390.484 251.12 393.146 251.12 L397.521 251.12 L397.521 254.685 L393.146 254.685 Q388.216 254.685 386.341 252.856 Q384.466 251.004 384.466 246.143 L384.466 232.069 L381.341 232.069 L381.341 228.759 L384.466 228.759 L384.466 221.398 L388.748 221.398 Z" fill="#000000" fill-rule="nonzero" fill-opacity="1" /><path clip-path="url(#clip420)" d="M407.336 221.398 L407.336 228.759 L416.109 228.759 L416.109 232.069 L407.336 232.069 L407.336 246.143 Q407.336 249.315 408.192 250.217 Q409.072 251.12 411.734 251.12 L416.109 251.12 L416.109 254.685 L411.734 254.685 Q406.803 254.685 404.928 252.856 Q403.053 251.004 403.053 246.143 L403.053 232.069 L399.928 232.069 L399.928 228.759 L403.053 228.759 L403.053 221.398 L407.336 221.398 Z" fill="#000000" fill-rule="nonzero" fill-opacity="1" /><path clip-path="url(#clip420)" d="M443.887 240.657 L443.887 242.741 L424.303 242.741 Q424.581 247.139 426.942 249.453 Q429.326 251.745 433.562 251.745 Q436.016 251.745 438.308 251.143 Q440.623 250.541 442.891 249.338 L442.891 253.365 Q440.599 254.338 438.192 254.847 Q435.785 255.356 433.308 255.356 Q427.104 255.356 423.47 251.745 Q419.859 248.134 419.859 241.977 Q419.859 235.611 423.285 231.884 Q426.734 228.134 432.567 228.134 Q437.799 228.134 440.831 231.514 Q443.887 234.87 443.887 240.657 M439.627 239.407 Q439.581 235.912 437.66 233.829 Q435.762 231.745 432.613 231.745 Q429.049 231.745 426.896 233.759 Q424.766 235.773 424.442 239.43 L439.627 239.407 Z" fill="#000000" fill-rule="nonzero" fill-opacity="1" /><path clip-path="url(#clip420)" d="M467.937 232.694 L467.937 218.667 L472.197 218.667 L472.197 254.685 L467.937 254.685 L467.937 250.796 Q466.595 253.111 464.535 254.245 Q462.498 255.356 459.627 255.356 Q454.928 255.356 451.965 251.606 Q449.025 247.856 449.025 241.745 Q449.025 235.634 451.965 231.884 Q454.928 228.134 459.627 228.134 Q462.498 228.134 464.535 229.268 Q466.595 230.379 467.937 232.694 M453.424 241.745 Q453.424 246.444 455.345 249.129 Q457.289 251.791 460.669 251.791 Q464.048 251.791 465.993 249.129 Q467.937 246.444 467.937 241.745 Q467.937 237.046 465.993 234.384 Q464.048 231.699 460.669 231.699 Q457.289 231.699 455.345 234.384 Q453.424 237.046 453.424 241.745 Z" fill="#000000" fill-rule="nonzero" fill-opacity="1" /><path clip-path="url(#clip420)" d="M1533.06 1264.17 L2632.99 1264.17 L2632.99 94.7441 L1533.06 94.7441  Z" fill="#ffffff" fill-rule="evenodd" fill-opacity="1"/>
<defs>
  <clipPath id="clip423">
    <rect x="1533" y="94" width="1101" height="1170"/>
  </clipPath>
</defs>
<polyline clip-path="url(#clip423)" style="stroke:#000000; stroke-linecap:round; stroke-linejoin:round; stroke-width:2; stroke-opacity:0.1; fill:none" points="1703.88,1264.17 1703.88,94.7441 "/>
<polyline clip-path="url(#clip423)" style="stroke:#000000; stroke-linecap:round; stroke-linejoin:round; stroke-width:2; stroke-opacity:0.1; fill:none" points="1903.43,1264.17 1903.43,94.7441 "/>
<polyline clip-path="url(#clip423)" style="stroke:#000000; stroke-linecap:round; stroke-linejoin:round; stroke-width:2; stroke-opacity:0.1; fill:none" points="2102.98,1264.17 2102.98,94.7441 "/>
<polyline clip-path="url(#clip423)" style="stroke:#000000; stroke-linecap:round; stroke-linejoin:round; stroke-width:2; stroke-opacity:0.1; fill:none" points="2302.53,1264.17 2302.53,94.7441 "/>
<polyline clip-path="url(#clip423)" style="stroke:#000000; stroke-linecap:round; stroke-linejoin:round; stroke-width:2; stroke-opacity:0.1; fill:none" points="2502.08,1264.17 2502.08,94.7441 "/>
<polyline clip-path="url(#clip423)" style="stroke:#000000; stroke-linecap:round; stroke-linejoin:round; stroke-width:2; stroke-opacity:0.1; fill:none" points="1533.06,1041.46 2632.99,1041.46 "/>
<polyline clip-path="url(#clip423)" style="stroke:#000000; stroke-linecap:round; stroke-linejoin:round; stroke-width:2; stroke-opacity:0.1; fill:none" points="1533.06,817.368 2632.99,817.368 "/>
<polyline clip-path="url(#clip423)" style="stroke:#000000; stroke-linecap:round; stroke-linejoin:round; stroke-width:2; stroke-opacity:0.1; fill:none" points="1533.06,593.279 2632.99,593.279 "/>
<polyline clip-path="url(#clip423)" style="stroke:#000000; stroke-linecap:round; stroke-linejoin:round; stroke-width:2; stroke-opacity:0.1; fill:none" points="1533.06,369.19 2632.99,369.19 "/>
<polyline clip-path="url(#clip423)" style="stroke:#000000; stroke-linecap:round; stroke-linejoin:round; stroke-width:2; stroke-opacity:0.1; fill:none" points="1533.06,145.101 2632.99,145.101 "/>
<polyline clip-path="url(#clip420)" style="stroke:#000000; stroke-linecap:round; stroke-linejoin:round; stroke-width:4; stroke-opacity:1; fill:none" points="1533.06,1264.17 2632.99,1264.17 "/>
<polyline clip-path="url(#clip420)" style="stroke:#000000; stroke-linecap:round; stroke-linejoin:round; stroke-width:4; stroke-opacity:1; fill:none" points="1703.88,1264.17 1703.88,1245.27 "/>
<polyline clip-path="url(#clip420)" style="stroke:#000000; stroke-linecap:round; stroke-linejoin:round; stroke-width:4; stroke-opacity:1; fill:none" points="1903.43,1264.17 1903.43,1245.27 "/>
<polyline clip-path="url(#clip420)" style="stroke:#000000; stroke-linecap:round; stroke-linejoin:round; stroke-width:4; stroke-opacity:1; fill:none" points="2102.98,1264.17 2102.98,1245.27 "/>
<polyline clip-path="url(#clip420)" style="stroke:#000000; stroke-linecap:round; stroke-linejoin:round; stroke-width:4; stroke-opacity:1; fill:none" points="2302.53,1264.17 2302.53,1245.27 "/>
<polyline clip-path="url(#clip420)" style="stroke:#000000; stroke-linecap:round; stroke-linejoin:round; stroke-width:4; stroke-opacity:1; fill:none" points="2502.08,1264.17 2502.08,1245.27 "/>
<path clip-path="url(#clip420)" d="M1694.26 1335.43 L1701.9 1335.43 L1701.9 1309.07 L1693.59 1310.73 L1693.59 1306.47 L1701.85 1304.81 L1706.53 1304.81 L1706.53 1335.43 L1714.17 1335.43 L1714.17 1339.37 L1694.26 1339.37 L1694.26 1335.43 Z" fill="#000000" fill-rule="nonzero" fill-opacity="1" /><path clip-path="url(#clip420)" d="M1898.08 1335.43 L1914.4 1335.43 L1914.4 1339.37 L1892.46 1339.37 L1892.46 1335.43 Q1895.12 1332.68 1899.7 1328.05 Q1904.31 1323.4 1905.49 1322.05 Q1907.73 1319.53 1908.61 1317.79 Q1909.52 1316.03 1909.52 1314.34 Q1909.52 1311.59 1907.57 1309.85 Q1905.65 1308.12 1902.55 1308.12 Q1900.35 1308.12 1897.9 1308.88 Q1895.47 1309.65 1892.69 1311.2 L1892.69 1306.47 Q1895.51 1305.34 1897.97 1304.76 Q1900.42 1304.18 1902.46 1304.18 Q1907.83 1304.18 1911.02 1306.87 Q1914.22 1309.55 1914.22 1314.04 Q1914.22 1316.17 1913.41 1318.09 Q1912.62 1319.99 1910.51 1322.59 Q1909.93 1323.26 1906.83 1326.47 Q1903.73 1329.67 1898.08 1335.43 Z" fill="#000000" fill-rule="nonzero" fill-opacity="1" /><path clip-path="url(#clip420)" d="M2107.23 1320.73 Q2110.58 1321.45 2112.46 1323.72 Q2114.36 1325.99 2114.36 1329.32 Q2114.36 1334.44 2110.84 1337.24 Q2107.32 1340.04 2100.84 1340.04 Q2098.66 1340.04 2096.35 1339.6 Q2094.06 1339.18 2091.6 1338.33 L2091.6 1333.81 Q2093.55 1334.95 2095.86 1335.53 Q2098.18 1336.1 2100.7 1336.1 Q2105.1 1336.1 2107.39 1334.37 Q2109.7 1332.63 2109.7 1329.32 Q2109.7 1326.27 2107.55 1324.55 Q2105.42 1322.82 2101.6 1322.82 L2097.58 1322.82 L2097.58 1318.97 L2101.79 1318.97 Q2105.24 1318.97 2107.07 1317.61 Q2108.89 1316.22 2108.89 1313.63 Q2108.89 1310.97 2107 1309.55 Q2105.12 1308.12 2101.6 1308.12 Q2099.68 1308.12 2097.48 1308.53 Q2095.28 1308.95 2092.64 1309.83 L2092.64 1305.66 Q2095.31 1304.92 2097.62 1304.55 Q2099.96 1304.18 2102.02 1304.18 Q2107.34 1304.18 2110.45 1306.61 Q2113.55 1309.02 2113.55 1313.14 Q2113.55 1316.01 2111.9 1318 Q2110.26 1319.97 2107.23 1320.73 Z" fill="#000000" fill-rule="nonzero" fill-opacity="1" /><path clip-path="url(#clip420)" d="M2305.54 1308.88 L2293.74 1327.33 L2305.54 1327.33 L2305.54 1308.88 M2304.31 1304.81 L2310.19 1304.81 L2310.19 1327.33 L2315.12 1327.33 L2315.12 1331.22 L2310.19 1331.22 L2310.19 1339.37 L2305.54 1339.37 L2305.54 1331.22 L2289.94 1331.22 L2289.94 1326.71 L2304.31 1304.81 Z" fill="#000000" fill-rule="nonzero" fill-opacity="1" /><path clip-path="url(#clip420)" d="M2492.36 1304.81 L2510.72 1304.81 L2510.72 1308.74 L2496.64 1308.74 L2496.64 1317.22 Q2497.66 1316.87 2498.68 1316.71 Q2499.7 1316.52 2500.72 1316.52 Q2506.5 1316.52 2509.88 1319.69 Q2513.26 1322.86 2513.26 1328.28 Q2513.26 1333.86 2509.79 1336.96 Q2506.32 1340.04 2500 1340.04 Q2497.82 1340.04 2495.55 1339.67 Q2493.31 1339.3 2490.9 1338.56 L2490.9 1333.86 Q2492.99 1334.99 2495.21 1335.55 Q2497.43 1336.1 2499.91 1336.1 Q2503.91 1336.1 2506.25 1334 Q2508.59 1331.89 2508.59 1328.28 Q2508.59 1324.67 2506.25 1322.56 Q2503.91 1320.46 2499.91 1320.46 Q2498.03 1320.46 2496.16 1320.87 Q2494.3 1321.29 2492.36 1322.17 L2492.36 1304.81 Z" fill="#000000" fill-rule="nonzero" fill-opacity="1" /><path clip-path="url(#clip420)" d="M2064.91 1385.51 L2071.34 1385.51 L2071.34 1404.99 L2094.71 1404.99 L2094.71 1385.51 L2101.14 1385.51 L2101.14 1433.03 L2094.71 1433.03 L2094.71 1410.4 L2071.34 1410.4 L2071.34 1433.03 L2064.91 1433.03 L2064.91 1385.51 Z" fill="#000000" fill-rule="nonzero" fill-opacity="1" /><polyline clip-path="url(#clip420)" style="stroke:#000000; stroke-linecap:round; stroke-linejoin:round; stroke-width:4; stroke-opacity:1; fill:none" points="1533.06,1264.17 1533.06,94.7441 "/>
<polyline clip-path="url(#clip420)" style="stroke:#000000; stroke-linecap:round; stroke-linejoin:round; stroke-width:4; stroke-opacity:1; fill:none" points="1533.06,1041.46 1551.96,1041.46 "/>
<polyline clip-path="url(#clip420)" style="stroke:#000000; stroke-linecap:round; stroke-linejoin:round; stroke-width:4; stroke-opacity:1; fill:none" points="1533.06,817.368 1551.96,817.368 "/>
<polyline clip-path="url(#clip420)" style="stroke:#000000; stroke-linecap:round; stroke-linejoin:round; stroke-width:4; stroke-opacity:1; fill:none" points="1533.06,593.279 1551.96,593.279 "/>
<polyline clip-path="url(#clip420)" style="stroke:#000000; stroke-linecap:round; stroke-linejoin:round; stroke-width:4; stroke-opacity:1; fill:none" points="1533.06,369.19 1551.96,369.19 "/>
<polyline clip-path="url(#clip420)" style="stroke:#000000; stroke-linecap:round; stroke-linejoin:round; stroke-width:4; stroke-opacity:1; fill:none" points="1533.06,145.101 1551.96,145.101 "/>
<path clip-path="url(#clip420)" d="M1417.48 1027.26 Q1413.87 1027.26 1412.04 1030.82 Q1410.24 1034.36 1410.24 1041.49 Q1410.24 1048.6 1412.04 1052.16 Q1413.87 1055.7 1417.48 1055.7 Q1421.12 1055.7 1422.92 1052.16 Q1424.75 1048.6 1424.75 1041.49 Q1424.75 1034.36 1422.92 1030.82 Q1421.12 1027.26 1417.48 1027.26 M1417.48 1023.55 Q1423.29 1023.55 1426.35 1028.16 Q1429.43 1032.74 1429.43 1041.49 Q1429.43 1050.22 1426.35 1054.83 Q1423.29 1059.41 1417.48 1059.41 Q1411.67 1059.41 1408.6 1054.83 Q1405.54 1050.22 1405.54 1041.49 Q1405.54 1032.74 1408.6 1028.16 Q1411.67 1023.55 1417.48 1023.55 Z" fill="#000000" fill-rule="nonzero" fill-opacity="1" /><path clip-path="url(#clip420)" d="M1437.65 1052.86 L1442.53 1052.86 L1442.53 1058.74 L1437.65 1058.74 L1437.65 1052.86 Z" fill="#000000" fill-rule="nonzero" fill-opacity="1" /><path clip-path="url(#clip420)" d="M1456.74 1054.8 L1473.06 1054.8 L1473.06 1058.74 L1451.12 1058.74 L1451.12 1054.8 Q1453.78 1052.05 1458.36 1047.42 Q1462.97 1042.77 1464.15 1041.42 Q1466.4 1038.9 1467.28 1037.16 Q1468.18 1035.4 1468.18 1033.71 Q1468.18 1030.96 1466.23 1029.22 Q1464.31 1027.49 1461.21 1027.49 Q1459.01 1027.49 1456.56 1028.25 Q1454.13 1029.02 1451.35 1030.57 L1451.35 1025.84 Q1454.17 1024.71 1456.63 1024.13 Q1459.08 1023.55 1461.12 1023.55 Q1466.49 1023.55 1469.68 1026.24 Q1472.88 1028.92 1472.88 1033.41 Q1472.88 1035.54 1472.07 1037.46 Q1471.28 1039.36 1469.17 1041.95 Q1468.59 1042.63 1465.49 1045.84 Q1462.39 1049.04 1456.74 1054.8 Z" fill="#000000" fill-rule="nonzero" fill-opacity="1" /><path clip-path="url(#clip420)" d="M1416.53 803.167 Q1412.92 803.167 1411.09 806.732 Q1409.29 810.273 1409.29 817.403 Q1409.29 824.509 1411.09 828.074 Q1412.92 831.616 1416.53 831.616 Q1420.17 831.616 1421.97 828.074 Q1423.8 824.509 1423.8 817.403 Q1423.8 810.273 1421.97 806.732 Q1420.17 803.167 1416.53 803.167 M1416.53 799.463 Q1422.34 799.463 1425.4 804.07 Q1428.48 808.653 1428.48 817.403 Q1428.48 826.13 1425.4 830.736 Q1422.34 835.32 1416.53 835.32 Q1410.72 835.32 1407.65 830.736 Q1404.59 826.13 1404.59 817.403 Q1404.59 808.653 1407.65 804.07 Q1410.72 799.463 1416.53 799.463 Z" fill="#000000" fill-rule="nonzero" fill-opacity="1" /><path clip-path="url(#clip420)" d="M1436.7 828.769 L1441.58 828.769 L1441.58 834.648 L1436.7 834.648 L1436.7 828.769 Z" fill="#000000" fill-rule="nonzero" fill-opacity="1" /><path clip-path="url(#clip420)" d="M1465.93 816.014 Q1469.29 816.732 1471.16 819 Q1473.06 821.269 1473.06 824.602 Q1473.06 829.718 1469.54 832.519 Q1466.03 835.32 1459.54 835.32 Q1457.37 835.32 1455.05 834.88 Q1452.76 834.463 1450.31 833.607 L1450.31 829.093 Q1452.25 830.227 1454.57 830.806 Q1456.88 831.384 1459.4 831.384 Q1463.8 831.384 1466.09 829.648 Q1468.41 827.912 1468.41 824.602 Q1468.41 821.547 1466.26 819.834 Q1464.13 818.097 1460.31 818.097 L1456.28 818.097 L1456.28 814.255 L1460.49 814.255 Q1463.94 814.255 1465.77 812.889 Q1467.6 811.5 1467.6 808.908 Q1467.6 806.246 1465.7 804.834 Q1463.83 803.398 1460.31 803.398 Q1458.39 803.398 1456.19 803.815 Q1453.99 804.232 1451.35 805.111 L1451.35 800.945 Q1454.01 800.204 1456.33 799.834 Q1458.66 799.463 1460.72 799.463 Q1466.05 799.463 1469.15 801.894 Q1472.25 804.301 1472.25 808.422 Q1472.25 811.292 1470.61 813.283 Q1468.97 815.25 1465.93 816.014 Z" fill="#000000" fill-rule="nonzero" fill-opacity="1" /><path clip-path="url(#clip420)" d="M1415.4 579.078 Q1411.79 579.078 1409.96 582.643 Q1408.16 586.184 1408.16 593.314 Q1408.16 600.421 1409.96 603.985 Q1411.79 607.527 1415.4 607.527 Q1419.03 607.527 1420.84 603.985 Q1422.67 600.421 1422.67 593.314 Q1422.67 586.184 1420.84 582.643 Q1419.03 579.078 1415.4 579.078 M1415.4 575.374 Q1421.21 575.374 1424.27 579.981 Q1427.34 584.564 1427.34 593.314 Q1427.34 602.041 1424.27 606.647 Q1421.21 611.231 1415.4 611.231 Q1409.59 611.231 1406.51 606.647 Q1403.46 602.041 1403.46 593.314 Q1403.46 584.564 1406.51 579.981 Q1409.59 575.374 1415.4 575.374 Z" fill="#000000" fill-rule="nonzero" fill-opacity="1" /><path clip-path="url(#clip420)" d="M1435.56 604.68 L1440.45 604.68 L1440.45 610.559 L1435.56 610.559 L1435.56 604.68 Z" fill="#000000" fill-rule="nonzero" fill-opacity="1" /><path clip-path="url(#clip420)" d="M1463.48 580.073 L1451.67 598.522 L1463.48 598.522 L1463.48 580.073 M1462.25 575.999 L1468.13 575.999 L1468.13 598.522 L1473.06 598.522 L1473.06 602.411 L1468.13 602.411 L1468.13 610.559 L1463.48 610.559 L1463.48 602.411 L1447.88 602.411 L1447.88 597.897 L1462.25 575.999 Z" fill="#000000" fill-rule="nonzero" fill-opacity="1" /><path clip-path="url(#clip420)" d="M1416.88 354.989 Q1413.27 354.989 1411.44 358.554 Q1409.64 362.096 1409.64 369.225 Q1409.64 376.332 1411.44 379.896 Q1413.27 383.438 1416.88 383.438 Q1420.52 383.438 1422.32 379.896 Q1424.15 376.332 1424.15 369.225 Q1424.15 362.096 1422.32 358.554 Q1420.52 354.989 1416.88 354.989 M1416.88 351.285 Q1422.69 351.285 1425.75 355.892 Q1428.83 360.475 1428.83 369.225 Q1428.83 377.952 1425.75 382.558 Q1422.69 387.142 1416.88 387.142 Q1411.07 387.142 1407.99 382.558 Q1404.94 377.952 1404.94 369.225 Q1404.94 360.475 1407.99 355.892 Q1411.07 351.285 1416.88 351.285 Z" fill="#000000" fill-rule="nonzero" fill-opacity="1" /><path clip-path="url(#clip420)" d="M1437.04 380.591 L1441.93 380.591 L1441.93 386.47 L1437.04 386.47 L1437.04 380.591 Z" fill="#000000" fill-rule="nonzero" fill-opacity="1" /><path clip-path="url(#clip420)" d="M1452.16 351.91 L1470.52 351.91 L1470.52 355.846 L1456.44 355.846 L1456.44 364.318 Q1457.46 363.971 1458.48 363.809 Q1459.5 363.623 1460.52 363.623 Q1466.3 363.623 1469.68 366.795 Q1473.06 369.966 1473.06 375.383 Q1473.06 380.961 1469.59 384.063 Q1466.12 387.142 1459.8 387.142 Q1457.62 387.142 1455.35 386.771 Q1453.11 386.401 1450.7 385.66 L1450.7 380.961 Q1452.78 382.095 1455.01 382.651 Q1457.23 383.207 1459.71 383.207 Q1463.71 383.207 1466.05 381.1 Q1468.39 378.994 1468.39 375.383 Q1468.39 371.771 1466.05 369.665 Q1463.71 367.558 1459.71 367.558 Q1457.83 367.558 1455.96 367.975 Q1454.1 368.392 1452.16 369.271 L1452.16 351.91 Z" fill="#000000" fill-rule="nonzero" fill-opacity="1" /><path clip-path="url(#clip420)" d="M1415.72 130.9 Q1412.11 130.9 1410.28 134.465 Q1408.48 138.007 1408.48 145.136 Q1408.48 152.243 1410.28 155.807 Q1412.11 159.349 1415.72 159.349 Q1419.36 159.349 1421.16 155.807 Q1422.99 152.243 1422.99 145.136 Q1422.99 138.007 1421.16 134.465 Q1419.36 130.9 1415.72 130.9 M1415.72 127.197 Q1421.53 127.197 1424.59 131.803 Q1427.67 136.386 1427.67 145.136 Q1427.67 153.863 1424.59 158.469 Q1421.53 163.053 1415.72 163.053 Q1409.91 163.053 1406.84 158.469 Q1403.78 153.863 1403.78 145.136 Q1403.78 136.386 1406.84 131.803 Q1409.91 127.197 1415.72 127.197 Z" fill="#000000" fill-rule="nonzero" fill-opacity="1" /><path clip-path="url(#clip420)" d="M1435.89 156.502 L1440.77 156.502 L1440.77 162.381 L1435.89 162.381 L1435.89 156.502 Z" fill="#000000" fill-rule="nonzero" fill-opacity="1" /><path clip-path="url(#clip420)" d="M1461.53 143.238 Q1458.39 143.238 1456.53 145.391 Q1454.71 147.544 1454.71 151.294 Q1454.71 155.02 1456.53 157.196 Q1458.39 159.349 1461.53 159.349 Q1464.68 159.349 1466.51 157.196 Q1468.36 155.02 1468.36 151.294 Q1468.36 147.544 1466.51 145.391 Q1464.68 143.238 1461.53 143.238 M1470.82 128.585 L1470.82 132.845 Q1469.06 132.011 1467.25 131.571 Q1465.47 131.132 1463.71 131.132 Q1459.08 131.132 1456.63 134.257 Q1454.2 137.382 1453.85 143.701 Q1455.22 141.687 1457.28 140.622 Q1459.34 139.534 1461.81 139.534 Q1467.02 139.534 1470.03 142.706 Q1473.06 145.854 1473.06 151.294 Q1473.06 156.618 1469.91 159.835 Q1466.77 163.053 1461.53 163.053 Q1455.54 163.053 1452.37 158.469 Q1449.2 153.863 1449.2 145.136 Q1449.2 136.942 1453.09 132.081 Q1456.97 127.197 1463.53 127.197 Q1465.28 127.197 1467.07 127.544 Q1468.87 127.891 1470.82 128.585 Z" fill="#000000" fill-rule="nonzero" fill-opacity="1" /><path clip-path="url(#clip420)" d="M1975.98 12.096 L1984.16 12.096 L1984.16 65.6895 L2013.61 65.6895 L2013.61 72.576 L1975.98 72.576 L1975.98 12.096 Z" fill="#000000" fill-rule="nonzero" fill-opacity="1" /><path clip-path="url(#clip420)" d="M2044.32 20.1573 L2033.22 50.2555 L2055.46 50.2555 L2044.32 20.1573 M2039.7 12.096 L2048.98 12.096 L2072.03 72.576 L2063.52 72.576 L2058.01 57.061 L2030.75 57.061 L2025.24 72.576 L2016.61 72.576 L2039.7 12.096 Z" fill="#000000" fill-rule="nonzero" fill-opacity="1" /><path clip-path="url(#clip420)" d="M2080.86 12.096 L2093.05 12.096 L2108.49 53.2532 L2124 12.096 L2136.19 12.096 L2136.19 72.576 L2128.21 72.576 L2128.21 19.4686 L2112.62 60.9499 L2104.39 60.9499 L2088.8 19.4686 L2088.8 72.576 L2080.86 72.576 L2080.86 12.096 Z" fill="#000000" fill-rule="nonzero" fill-opacity="1" /><path clip-path="url(#clip420)" d="M2152.44 12.096 L2160.62 12.096 L2160.62 65.6895 L2190.07 65.6895 L2190.07 72.576 L2152.44 72.576 L2152.44 12.096 Z" fill="#000000" fill-rule="nonzero" fill-opacity="1" /><polyline clip-path="url(#clip423)" style="stroke:#000000; stroke-linecap:round; stroke-linejoin:round; stroke-width:8; stroke-opacity:1; fill:none" stroke-dasharray="32, 20" points="1564.19,1231.07 1569.41,1214.09 1574.62,1197.76 1579.84,1182.05 1585.05,1166.93 1590.26,1152.36 1595.48,1138.31 1600.69,1124.76 1605.91,1111.68 1611.12,1099.04 1616.34,1086.82 1621.55,1075.01 1626.77,1063.58 1631.98,1052.51 1637.19,1041.8 1642.41,1031.41 1647.62,1021.34 1652.84,1011.57 1658.05,1002.08 1663.27,992.879 1668.48,983.937 1673.69,975.248 1678.91,966.801 1684.12,958.586 1689.34,950.595 1694.55,942.817 1699.77,935.244 1704.98,927.869 1710.2,920.683 1715.41,913.68 1720.62,906.853 1725.84,900.194 1731.05,893.699 1736.27,887.36 1741.48,881.173 1746.7,875.132 1751.91,869.232 1757.13,863.468 1762.34,857.835 1767.55,852.329 1772.77,846.946 1777.98,841.681 1783.2,836.532 1788.41,831.493 1793.63,826.562 1798.84,821.735 1804.05,817.008 1809.27,812.38 1814.48,807.846 1819.7,803.404 1824.91,799.051 1830.13,794.784 1835.34,790.601 1840.56,786.5 1845.77,782.478 1850.98,778.532 1856.2,774.661 1861.41,770.863 1866.63,767.135 1871.84,763.476 1877.06,759.883 1882.27,756.356 1887.49,752.891 1892.7,749.488 1897.91,746.145 1903.13,742.86 1908.34,739.632 1913.56,736.459 1918.77,733.34 1923.99,730.273 1929.2,727.258 1934.41,724.292 1939.63,721.376 1944.84,718.507 1950.06,715.684 1955.27,712.906 1960.49,710.173 1965.7,707.483 1970.92,704.835 1976.13,702.228 1981.34,699.661 1986.56,697.133 1991.77,694.644 1996.99,692.193 2002.2,689.778 2007.42,687.399 2012.63,685.055 2017.85,682.745 2023.06,680.469 2028.27,678.225 2033.49,676.014 2038.7,673.834 2043.92,671.685 2049.13,669.566 2054.35,667.476 2059.56,665.415 2064.77,663.383 2069.99,661.378 2075.2,659.401 2080.42,657.45 2085.63,655.525 2090.85,653.625 2096.06,651.751 2101.28,649.901 2106.49,648.075 2111.7,646.273 2116.92,644.494 2122.13,642.738 2127.35,641.004 2132.56,639.292 2137.78,637.601 2142.99,635.931 2148.21,634.282 2153.42,632.653 2158.63,631.044 2163.85,629.455 2169.06,627.885 2174.28,626.333 2179.49,624.8 2184.71,623.286 2189.92,621.789 2195.13,620.309 2200.35,618.847 2205.56,617.402 2210.78,615.973 2215.99,614.561 2221.21,613.165 2226.42,611.785 2231.64,610.42 2236.85,609.07 2242.06,607.736 2247.28,606.416 2252.49,605.111 2257.71,603.82 2262.92,602.543 2268.14,601.28 2273.35,600.031 2278.57,598.794 2283.78,597.572 2288.99,596.362 2294.21,595.164 2299.42,593.98 2304.64,592.807 2309.85,591.647 2315.07,590.499 2320.28,589.363 2325.49,588.238 2330.71,587.125 2335.92,586.023 2341.14,584.932 2346.35,583.852 2351.57,582.782 2356.78,581.724 2362,580.675 2367.21,579.637 2372.42,578.61 2377.64,577.592 2382.85,576.584 2388.07,575.585 2393.28,574.597 2398.5,573.617 2403.71,572.647 2408.93,571.687 2414.14,570.735 2419.35,569.792 2424.57,568.858 2429.78,567.932 2435,567.015 2440.21,566.107 2445.43,565.207 2450.64,564.315 2455.85,563.431 2461.07,562.555 2466.28,561.687 2471.5,560.826 2476.71,559.974 2481.93,559.129 2487.14,558.291 2492.36,557.461 2497.57,556.638 2502.78,555.822 2508,555.013 2513.21,554.211 2518.43,553.416 2523.64,552.628 2528.86,551.847 2534.07,551.072 2539.29,550.304 2544.5,549.542 2549.71,548.786 2554.93,548.037 2560.14,547.295 2565.36,546.558 2570.57,545.827 2575.79,545.102 2581,544.384 2586.21,543.671 2591.43,542.964 2596.64,542.262 2601.86,541.567 "/>
<polyline clip-path="url(#clip423)" style="stroke:#ff7f50; stroke-linecap:round; stroke-linejoin:round; stroke-width:8; stroke-opacity:1; fill:none" points="1564.19,1159.7 1569.41,1153.66 1574.62,1147.61 1579.84,1141.55 1585.05,1135.48 1590.26,1129.39 1595.48,1123.28 1600.69,1117.14 1605.91,1110.97 1611.12,1104.77 1616.34,1098.52 1621.55,1092.23 1626.77,1085.89 1631.98,1079.5 1637.19,1073.05 1642.41,1066.53 1647.62,1059.95 1652.84,1053.3 1658.05,1046.57 1663.27,1039.76 1668.48,1032.87 1673.69,1025.88 1678.91,1018.81 1684.12,1011.63 1689.34,1004.36 1694.55,996.998 1699.77,989.548 1704.98,982.015 1710.2,974.401 1715.41,966.712 1720.62,958.95 1725.84,951.121 1731.05,943.227 1736.27,935.273 1741.48,927.262 1746.7,919.199 1751.91,911.087 1757.13,902.93 1762.34,894.733 1767.55,886.499 1772.77,878.231 1777.98,869.935 1783.2,861.613 1788.41,853.27 1793.63,844.909 1798.84,836.536 1804.05,828.158 1809.27,819.788 1814.48,811.436 1819.7,803.114 1824.91,794.832 1830.13,786.602 1835.34,778.434 1840.56,770.341 1845.77,762.333 1850.98,754.422 1856.2,746.617 1861.41,738.932 1866.63,731.376 1871.84,723.961 1877.06,716.698 1882.27,709.599 1887.49,702.673 1892.7,695.934 1897.91,689.39 1903.13,683.055 1908.34,676.939 1913.56,671.052 1918.77,665.398 1923.99,659.974 1929.2,654.781 1934.41,649.815 1939.63,645.075 1944.84,640.56 1950.06,636.267 1955.27,632.196 1960.49,628.344 1965.7,624.711 1970.92,621.293 1976.13,618.091 1981.34,615.101 1986.56,612.323 1991.77,609.754 1996.99,607.393 2002.2,605.239 2007.42,603.29 2012.63,601.544 2017.85,600 2023.06,598.655 2028.27,597.509 2033.49,596.554 2038.7,595.781 2043.92,595.181 2049.13,594.743 2054.35,594.457 2059.56,594.313 2064.77,594.302 2069.99,594.413 2075.2,594.637 2080.42,594.963 2085.63,595.382 2090.85,595.884 2096.06,596.458 2101.28,597.096 2106.49,597.786 2111.7,598.52 2116.92,599.286 2122.13,600.076 2127.35,600.879 2132.56,601.685 2137.78,602.484 2142.99,603.267 2148.21,604.023 2153.42,604.742 2158.63,605.413 2163.85,606.025 2169.06,606.568 2174.28,607.031 2179.49,607.405 2184.71,607.677 2189.92,607.838 2195.13,607.878 2200.35,607.784 2205.56,607.548 2210.78,607.158 2215.99,606.604 2221.21,605.875 2226.42,604.961 2231.64,603.851 2236.85,602.535 2242.06,601.001 2247.28,599.24 2252.49,597.241 2257.71,594.993 2262.92,592.492 2268.14,589.741 2273.35,586.745 2278.57,583.51 2283.78,580.039 2288.99,576.337 2294.21,572.41 2299.42,568.261 2304.64,563.896 2309.85,559.319 2315.07,554.536 2320.28,549.55 2325.49,544.366 2330.71,538.99 2335.92,533.425 2341.14,527.677 2346.35,521.75 2351.57,515.65 2356.78,509.38 2362,502.946 2367.21,496.351 2372.42,489.602 2377.64,482.703 2382.85,475.661 2388.07,468.482 2393.28,461.174 2398.5,453.742 2403.71,446.195 2408.93,438.538 2414.14,430.778 2419.35,422.922 2424.57,414.976 2429.78,406.948 2435,398.845 2440.21,390.672 2445.43,382.436 2450.64,374.146 2455.85,365.806 2461.07,357.424 2466.28,349.006 2471.5,340.56 2476.71,332.092 2481.93,323.608 2487.14,315.116 2492.36,306.621 2497.57,298.123 2502.78,289.623 2508,281.121 2513.21,272.617 2518.43,264.111 2523.64,255.603 2528.86,247.093 2534.07,238.582 2539.29,230.069 2544.5,221.555 2549.71,213.04 2554.93,204.523 2560.14,196.005 2565.36,187.487 2570.57,178.967 2575.79,170.447 2581,161.927 2586.21,153.406 2591.43,144.884 2596.64,136.363 2601.86,127.841 "/>
<path clip-path="url(#clip420)" d="M1569.73 289.245 L1804.19 289.245 L1804.19 133.725 L1569.73 133.725  Z" fill="#ffffff" fill-rule="evenodd" fill-opacity="1"/>
<polyline clip-path="url(#clip420)" style="stroke:#000000; stroke-linecap:round; stroke-linejoin:round; stroke-width:4; stroke-opacity:1; fill:none" points="1569.73,289.245 1804.19,289.245 1804.19,133.725 1569.73,133.725 1569.73,289.245 "/>
<polyline clip-path="url(#clip420)" style="stroke:#000000; stroke-linecap:round; stroke-linejoin:round; stroke-width:8; stroke-opacity:1; fill:none" stroke-dasharray="32, 20" points="1581.95,185.565 1655.28,185.565 "/>
<path clip-path="url(#clip420)" d="M1667.5 168.285 L1696.73 168.285 L1696.73 172.22 L1684.47 172.22 L1684.47 202.845 L1679.77 202.845 L1679.77 172.22 L1667.5 172.22 L1667.5 168.285 Z" fill="#000000" fill-rule="nonzero" fill-opacity="1" /><path clip-path="url(#clip420)" d="M1709.12 180.901 Q1708.4 180.484 1707.54 180.299 Q1706.71 180.09 1705.69 180.09 Q1702.08 180.09 1700.14 182.452 Q1698.22 184.789 1698.22 189.188 L1698.22 202.845 L1693.93 202.845 L1693.93 176.919 L1698.22 176.919 L1698.22 180.947 Q1699.56 178.586 1701.71 177.452 Q1703.86 176.294 1706.94 176.294 Q1707.38 176.294 1707.91 176.364 Q1708.45 176.41 1709.09 176.526 L1709.12 180.901 Z" fill="#000000" fill-rule="nonzero" fill-opacity="1" /><path clip-path="url(#clip420)" d="M1713.15 192.613 L1713.15 176.919 L1717.4 176.919 L1717.4 192.451 Q1717.4 196.132 1718.84 197.984 Q1720.28 199.813 1723.15 199.813 Q1726.59 199.813 1728.59 197.613 Q1730.6 195.414 1730.6 191.618 L1730.6 176.919 L1734.86 176.919 L1734.86 202.845 L1730.6 202.845 L1730.6 198.863 Q1729.05 201.225 1726.99 202.382 Q1724.95 203.516 1722.24 203.516 Q1717.78 203.516 1715.46 200.738 Q1713.15 197.961 1713.15 192.613 M1723.86 176.294 L1723.86 176.294 Z" fill="#000000" fill-rule="nonzero" fill-opacity="1" /><path clip-path="url(#clip420)" d="M1765.81 188.817 L1765.81 190.901 L1746.22 190.901 Q1746.5 195.299 1748.86 197.613 Q1751.25 199.905 1755.48 199.905 Q1757.94 199.905 1760.23 199.303 Q1762.54 198.701 1764.81 197.498 L1764.81 201.525 Q1762.52 202.498 1760.11 203.007 Q1757.71 203.516 1755.23 203.516 Q1749.02 203.516 1745.39 199.905 Q1741.78 196.294 1741.78 190.137 Q1741.78 183.771 1745.21 180.044 Q1748.65 176.294 1754.49 176.294 Q1759.72 176.294 1762.75 179.674 Q1765.81 183.03 1765.81 188.817 M1761.55 187.567 Q1761.5 184.072 1759.58 181.989 Q1757.68 179.905 1754.53 179.905 Q1750.97 179.905 1748.82 181.919 Q1746.69 183.933 1746.36 187.59 L1761.55 187.567 Z" fill="#000000" fill-rule="nonzero" fill-opacity="1" /><polyline clip-path="url(#clip420)" style="stroke:#ff7f50; stroke-linecap:round; stroke-linejoin:round; stroke-width:8; stroke-opacity:1; fill:none" points="1581.95,237.405 1655.28,237.405 "/>
<path clip-path="url(#clip420)" d="M1667.5 220.125 L1687.36 220.125 L1687.36 224.06 L1672.17 224.06 L1672.17 234.245 L1685.88 234.245 L1685.88 238.18 L1672.17 238.18 L1672.17 254.685 L1667.5 254.685 L1667.5 220.125 Z" fill="#000000" fill-rule="nonzero" fill-opacity="1" /><path clip-path="url(#clip420)" d="M1691.13 228.759 L1695.39 228.759 L1695.39 254.685 L1691.13 254.685 L1691.13 228.759 M1691.13 218.667 L1695.39 218.667 L1695.39 224.06 L1691.13 224.06 L1691.13 218.667 Z" fill="#000000" fill-rule="nonzero" fill-opacity="1" /><path clip-path="url(#clip420)" d="M1708.52 221.398 L1708.52 228.759 L1717.29 228.759 L1717.29 232.069 L1708.52 232.069 L1708.52 246.143 Q1708.52 249.315 1709.37 250.217 Q1710.25 251.12 1712.91 251.12 L1717.29 251.12 L1717.29 254.685 L1712.91 254.685 Q1707.98 254.685 1706.11 252.856 Q1704.23 251.004 1704.23 246.143 L1704.23 232.069 L1701.11 232.069 L1701.11 228.759 L1704.23 228.759 L1704.23 221.398 L1708.52 221.398 Z" fill="#000000" fill-rule="nonzero" fill-opacity="1" /><path clip-path="url(#clip420)" d="M1727.1 221.398 L1727.1 228.759 L1735.88 228.759 L1735.88 232.069 L1727.1 232.069 L1727.1 246.143 Q1727.1 249.315 1727.96 250.217 Q1728.84 251.12 1731.5 251.12 L1735.88 251.12 L1735.88 254.685 L1731.5 254.685 Q1726.57 254.685 1724.7 252.856 Q1722.82 251.004 1722.82 246.143 L1722.82 232.069 L1719.7 232.069 L1719.7 228.759 L1722.82 228.759 L1722.82 221.398 L1727.1 221.398 Z" fill="#000000" fill-rule="nonzero" fill-opacity="1" /><path clip-path="url(#clip420)" d="M1763.65 240.657 L1763.65 242.741 L1744.07 242.741 Q1744.35 247.139 1746.71 249.453 Q1749.09 251.745 1753.33 251.745 Q1755.78 251.745 1758.08 251.143 Q1760.39 250.541 1762.66 249.338 L1762.66 253.365 Q1760.37 254.338 1757.96 254.847 Q1755.55 255.356 1753.08 255.356 Q1746.87 255.356 1743.24 251.745 Q1739.63 248.134 1739.63 241.977 Q1739.63 235.611 1743.05 231.884 Q1746.5 228.134 1752.34 228.134 Q1757.57 228.134 1760.6 231.514 Q1763.65 234.87 1763.65 240.657 M1759.4 239.407 Q1759.35 235.912 1757.43 233.829 Q1755.53 231.745 1752.38 231.745 Q1748.82 231.745 1746.66 233.759 Q1744.53 235.773 1744.21 239.43 L1759.4 239.407 Z" fill="#000000" fill-rule="nonzero" fill-opacity="1" /><path clip-path="url(#clip420)" d="M1787.71 232.694 L1787.71 218.667 L1791.96 218.667 L1791.96 254.685 L1787.71 254.685 L1787.71 250.796 Q1786.36 253.111 1784.3 254.245 Q1782.27 255.356 1779.4 255.356 Q1774.7 255.356 1771.73 251.606 Q1768.79 247.856 1768.79 241.745 Q1768.79 235.634 1771.73 231.884 Q1774.7 228.134 1779.4 228.134 Q1782.27 228.134 1784.3 229.268 Q1786.36 230.379 1787.71 232.694 M1773.19 241.745 Q1773.19 246.444 1775.11 249.129 Q1777.06 251.791 1780.44 251.791 Q1783.82 251.791 1785.76 249.129 Q1787.71 246.444 1787.71 241.745 Q1787.71 237.046 1785.76 234.384 Q1783.82 231.699 1780.44 231.699 Q1777.06 231.699 1775.11 234.384 Q1773.19 237.046 1773.19 241.745 Z" fill="#000000" fill-rule="nonzero" fill-opacity="1" /><path clip-path="url(#clip420)" d="M2852.83 1264.17 L3952.76 1264.17 L3952.76 94.7441 L2852.83 94.7441  Z" fill="#ffffff" fill-rule="evenodd" fill-opacity="1"/>
<polyline clip-path="url(#clip421)" style="stroke:#000000; stroke-linecap:round; stroke-linejoin:round; stroke-width:2; stroke-opacity:0.1; fill:none" points="3023.65,1264.17 3023.65,94.7441 "/>
<polyline clip-path="url(#clip421)" style="stroke:#000000; stroke-linecap:round; stroke-linejoin:round; stroke-width:2; stroke-opacity:0.1; fill:none" points="3223.2,1264.17 3223.2,94.7441 "/>
<polyline clip-path="url(#clip421)" style="stroke:#000000; stroke-linecap:round; stroke-linejoin:round; stroke-width:2; stroke-opacity:0.1; fill:none" points="3422.75,1264.17 3422.75,94.7441 "/>
<polyline clip-path="url(#clip421)" style="stroke:#000000; stroke-linecap:round; stroke-linejoin:round; stroke-width:2; stroke-opacity:0.1; fill:none" points="3622.3,1264.17 3622.3,94.7441 "/>
<polyline clip-path="url(#clip421)" style="stroke:#000000; stroke-linecap:round; stroke-linejoin:round; stroke-width:2; stroke-opacity:0.1; fill:none" points="3821.85,1264.17 3821.85,94.7441 "/>
<polyline clip-path="url(#clip421)" style="stroke:#000000; stroke-linecap:round; stroke-linejoin:round; stroke-width:2; stroke-opacity:0.1; fill:none" points="2852.83,1041.46 3952.76,1041.46 "/>
<polyline clip-path="url(#clip421)" style="stroke:#000000; stroke-linecap:round; stroke-linejoin:round; stroke-width:2; stroke-opacity:0.1; fill:none" points="2852.83,817.368 3952.76,817.368 "/>
<polyline clip-path="url(#clip421)" style="stroke:#000000; stroke-linecap:round; stroke-linejoin:round; stroke-width:2; stroke-opacity:0.1; fill:none" points="2852.83,593.279 3952.76,593.279 "/>
<polyline clip-path="url(#clip421)" style="stroke:#000000; stroke-linecap:round; stroke-linejoin:round; stroke-width:2; stroke-opacity:0.1; fill:none" points="2852.83,369.19 3952.76,369.19 "/>
<polyline clip-path="url(#clip421)" style="stroke:#000000; stroke-linecap:round; stroke-linejoin:round; stroke-width:2; stroke-opacity:0.1; fill:none" points="2852.83,145.101 3952.76,145.101 "/>
<polyline clip-path="url(#clip420)" style="stroke:#000000; stroke-linecap:round; stroke-linejoin:round; stroke-width:4; stroke-opacity:1; fill:none" points="2852.83,1264.17 3952.76,1264.17 "/>
<polyline clip-path="url(#clip420)" style="stroke:#000000; stroke-linecap:round; stroke-linejoin:round; stroke-width:4; stroke-opacity:1; fill:none" points="3023.65,1264.17 3023.65,1245.27 "/>
<polyline clip-path="url(#clip420)" style="stroke:#000000; stroke-linecap:round; stroke-linejoin:round; stroke-width:4; stroke-opacity:1; fill:none" points="3223.2,1264.17 3223.2,1245.27 "/>
<polyline clip-path="url(#clip420)" style="stroke:#000000; stroke-linecap:round; stroke-linejoin:round; stroke-width:4; stroke-opacity:1; fill:none" points="3422.75,1264.17 3422.75,1245.27 "/>
<polyline clip-path="url(#clip420)" style="stroke:#000000; stroke-linecap:round; stroke-linejoin:round; stroke-width:4; stroke-opacity:1; fill:none" points="3622.3,1264.17 3622.3,1245.27 "/>
<polyline clip-path="url(#clip420)" style="stroke:#000000; stroke-linecap:round; stroke-linejoin:round; stroke-width:4; stroke-opacity:1; fill:none" points="3821.85,1264.17 3821.85,1245.27 "/>
<path clip-path="url(#clip420)" d="M3014.03 1335.43 L3021.67 1335.43 L3021.67 1309.07 L3013.36 1310.73 L3013.36 1306.47 L3021.62 1304.81 L3026.3 1304.81 L3026.3 1335.43 L3033.94 1335.43 L3033.94 1339.37 L3014.03 1339.37 L3014.03 1335.43 Z" fill="#000000" fill-rule="nonzero" fill-opacity="1" /><path clip-path="url(#clip420)" d="M3217.85 1335.43 L3234.17 1335.43 L3234.17 1339.37 L3212.22 1339.37 L3212.22 1335.43 Q3214.89 1332.68 3219.47 1328.05 Q3224.08 1323.4 3225.26 1322.05 Q3227.5 1319.53 3228.38 1317.79 Q3229.29 1316.03 3229.29 1314.34 Q3229.29 1311.59 3227.34 1309.85 Q3225.42 1308.12 3222.32 1308.12 Q3220.12 1308.12 3217.66 1308.88 Q3215.23 1309.65 3212.46 1311.2 L3212.46 1306.47 Q3215.28 1305.34 3217.73 1304.76 Q3220.19 1304.18 3222.22 1304.18 Q3227.6 1304.18 3230.79 1306.87 Q3233.98 1309.55 3233.98 1314.04 Q3233.98 1316.17 3233.17 1318.09 Q3232.39 1319.99 3230.28 1322.59 Q3229.7 1323.26 3226.6 1326.47 Q3223.5 1329.67 3217.85 1335.43 Z" fill="#000000" fill-rule="nonzero" fill-opacity="1" /><path clip-path="url(#clip420)" d="M3427 1320.73 Q3430.35 1321.45 3432.23 1323.72 Q3434.13 1325.99 3434.13 1329.32 Q3434.13 1334.44 3430.61 1337.24 Q3427.09 1340.04 3420.61 1340.04 Q3418.43 1340.04 3416.12 1339.6 Q3413.82 1339.18 3411.37 1338.33 L3411.37 1333.81 Q3413.32 1334.95 3415.63 1335.53 Q3417.94 1336.1 3420.47 1336.1 Q3424.87 1336.1 3427.16 1334.37 Q3429.47 1332.63 3429.47 1329.32 Q3429.47 1326.27 3427.32 1324.55 Q3425.19 1322.82 3421.37 1322.82 L3417.34 1322.82 L3417.34 1318.97 L3421.56 1318.97 Q3425.01 1318.97 3426.83 1317.61 Q3428.66 1316.22 3428.66 1313.63 Q3428.66 1310.97 3426.76 1309.55 Q3424.89 1308.12 3421.37 1308.12 Q3419.45 1308.12 3417.25 1308.53 Q3415.05 1308.95 3412.41 1309.83 L3412.41 1305.66 Q3415.07 1304.92 3417.39 1304.55 Q3419.73 1304.18 3421.79 1304.18 Q3427.11 1304.18 3430.21 1306.61 Q3433.32 1309.02 3433.32 1313.14 Q3433.32 1316.01 3431.67 1318 Q3430.03 1319.97 3427 1320.73 Z" fill="#000000" fill-rule="nonzero" fill-opacity="1" /><path clip-path="url(#clip420)" d="M3625.31 1308.88 L3613.5 1327.33 L3625.31 1327.33 L3625.31 1308.88 M3624.08 1304.81 L3629.96 1304.81 L3629.96 1327.33 L3634.89 1327.33 L3634.89 1331.22 L3629.96 1331.22 L3629.96 1339.37 L3625.31 1339.37 L3625.31 1331.22 L3609.71 1331.22 L3609.71 1326.71 L3624.08 1304.81 Z" fill="#000000" fill-rule="nonzero" fill-opacity="1" /><path clip-path="url(#clip420)" d="M3812.13 1304.81 L3830.48 1304.81 L3830.48 1308.74 L3816.41 1308.74 L3816.41 1317.22 Q3817.43 1316.87 3818.45 1316.71 Q3819.47 1316.52 3820.48 1316.52 Q3826.27 1316.52 3829.65 1319.69 Q3833.03 1322.86 3833.03 1328.28 Q3833.03 1333.86 3829.56 1336.96 Q3826.09 1340.04 3819.77 1340.04 Q3817.59 1340.04 3815.32 1339.67 Q3813.08 1339.3 3810.67 1338.56 L3810.67 1333.86 Q3812.75 1334.99 3814.98 1335.55 Q3817.2 1336.1 3819.67 1336.1 Q3823.68 1336.1 3826.02 1334 Q3828.35 1331.89 3828.35 1328.28 Q3828.35 1324.67 3826.02 1322.56 Q3823.68 1320.46 3819.67 1320.46 Q3817.8 1320.46 3815.92 1320.87 Q3814.07 1321.29 3812.13 1322.17 L3812.13 1304.81 Z" fill="#000000" fill-rule="nonzero" fill-opacity="1" /><path clip-path="url(#clip420)" d="M3384.68 1385.51 L3391.11 1385.51 L3391.11 1404.99 L3414.47 1404.99 L3414.47 1385.51 L3420.9 1385.51 L3420.9 1433.03 L3414.47 1433.03 L3414.47 1410.4 L3391.11 1410.4 L3391.11 1433.03 L3384.68 1433.03 L3384.68 1385.51 Z" fill="#000000" fill-rule="nonzero" fill-opacity="1" /><polyline clip-path="url(#clip420)" style="stroke:#000000; stroke-linecap:round; stroke-linejoin:round; stroke-width:4; stroke-opacity:1; fill:none" points="2852.83,1264.17 2852.83,94.7441 "/>
<polyline clip-path="url(#clip420)" style="stroke:#000000; stroke-linecap:round; stroke-linejoin:round; stroke-width:4; stroke-opacity:1; fill:none" points="2852.83,1041.46 2871.73,1041.46 "/>
<polyline clip-path="url(#clip420)" style="stroke:#000000; stroke-linecap:round; stroke-linejoin:round; stroke-width:4; stroke-opacity:1; fill:none" points="2852.83,817.368 2871.73,817.368 "/>
<polyline clip-path="url(#clip420)" style="stroke:#000000; stroke-linecap:round; stroke-linejoin:round; stroke-width:4; stroke-opacity:1; fill:none" points="2852.83,593.279 2871.73,593.279 "/>
<polyline clip-path="url(#clip420)" style="stroke:#000000; stroke-linecap:round; stroke-linejoin:round; stroke-width:4; stroke-opacity:1; fill:none" points="2852.83,369.19 2871.73,369.19 "/>
<polyline clip-path="url(#clip420)" style="stroke:#000000; stroke-linecap:round; stroke-linejoin:round; stroke-width:4; stroke-opacity:1; fill:none" points="2852.83,145.101 2871.73,145.101 "/>
<path clip-path="url(#clip420)" d="M2737.25 1027.26 Q2733.64 1027.26 2731.81 1030.82 Q2730.01 1034.36 2730.01 1041.49 Q2730.01 1048.6 2731.81 1052.16 Q2733.64 1055.7 2737.25 1055.7 Q2740.89 1055.7 2742.69 1052.16 Q2744.52 1048.6 2744.52 1041.49 Q2744.52 1034.36 2742.69 1030.82 Q2740.89 1027.26 2737.25 1027.26 M2737.25 1023.55 Q2743.06 1023.55 2746.12 1028.16 Q2749.2 1032.74 2749.2 1041.49 Q2749.2 1050.22 2746.12 1054.83 Q2743.06 1059.41 2737.25 1059.41 Q2731.44 1059.41 2728.36 1054.83 Q2725.31 1050.22 2725.31 1041.49 Q2725.31 1032.74 2728.36 1028.16 Q2731.44 1023.55 2737.25 1023.55 Z" fill="#000000" fill-rule="nonzero" fill-opacity="1" /><path clip-path="url(#clip420)" d="M2757.41 1052.86 L2762.3 1052.86 L2762.3 1058.74 L2757.41 1058.74 L2757.41 1052.86 Z" fill="#000000" fill-rule="nonzero" fill-opacity="1" /><path clip-path="url(#clip420)" d="M2776.51 1054.8 L2792.83 1054.8 L2792.83 1058.74 L2770.89 1058.74 L2770.89 1054.8 Q2773.55 1052.05 2778.13 1047.42 Q2782.74 1042.77 2783.92 1041.42 Q2786.16 1038.9 2787.04 1037.16 Q2787.95 1035.4 2787.95 1033.71 Q2787.95 1030.96 2786 1029.22 Q2784.08 1027.49 2780.98 1027.49 Q2778.78 1027.49 2776.33 1028.25 Q2773.9 1029.02 2771.12 1030.57 L2771.12 1025.84 Q2773.94 1024.71 2776.4 1024.13 Q2778.85 1023.55 2780.89 1023.55 Q2786.26 1023.55 2789.45 1026.24 Q2792.65 1028.92 2792.65 1033.41 Q2792.65 1035.54 2791.83 1037.46 Q2791.05 1039.36 2788.94 1041.95 Q2788.36 1042.63 2785.26 1045.84 Q2782.16 1049.04 2776.51 1054.8 Z" fill="#000000" fill-rule="nonzero" fill-opacity="1" /><path clip-path="url(#clip420)" d="M2736.3 803.167 Q2732.69 803.167 2730.86 806.732 Q2729.06 810.273 2729.06 817.403 Q2729.06 824.509 2730.86 828.074 Q2732.69 831.616 2736.3 831.616 Q2739.94 831.616 2741.74 828.074 Q2743.57 824.509 2743.57 817.403 Q2743.57 810.273 2741.74 806.732 Q2739.94 803.167 2736.3 803.167 M2736.3 799.463 Q2742.11 799.463 2745.17 804.07 Q2748.25 808.653 2748.25 817.403 Q2748.25 826.13 2745.17 830.736 Q2742.11 835.32 2736.3 835.32 Q2730.49 835.32 2727.41 830.736 Q2724.36 826.13 2724.36 817.403 Q2724.36 808.653 2727.41 804.07 Q2730.49 799.463 2736.3 799.463 Z" fill="#000000" fill-rule="nonzero" fill-opacity="1" /><path clip-path="url(#clip420)" d="M2756.46 828.769 L2761.35 828.769 L2761.35 834.648 L2756.46 834.648 L2756.46 828.769 Z" fill="#000000" fill-rule="nonzero" fill-opacity="1" /><path clip-path="url(#clip420)" d="M2785.7 816.014 Q2789.06 816.732 2790.93 819 Q2792.83 821.269 2792.83 824.602 Q2792.83 829.718 2789.31 832.519 Q2785.79 835.32 2779.31 835.32 Q2777.14 835.32 2774.82 834.88 Q2772.53 834.463 2770.08 833.607 L2770.08 829.093 Q2772.02 830.227 2774.33 830.806 Q2776.65 831.384 2779.17 831.384 Q2783.57 831.384 2785.86 829.648 Q2788.18 827.912 2788.18 824.602 Q2788.18 821.547 2786.02 819.834 Q2783.9 818.097 2780.08 818.097 L2776.05 818.097 L2776.05 814.255 L2780.26 814.255 Q2783.71 814.255 2785.54 812.889 Q2787.37 811.5 2787.37 808.908 Q2787.37 806.246 2785.47 804.834 Q2783.59 803.398 2780.08 803.398 Q2778.15 803.398 2775.96 803.815 Q2773.76 804.232 2771.12 805.111 L2771.12 800.945 Q2773.78 800.204 2776.09 799.834 Q2778.43 799.463 2780.49 799.463 Q2785.82 799.463 2788.92 801.894 Q2792.02 804.301 2792.02 808.422 Q2792.02 811.292 2790.38 813.283 Q2788.73 815.25 2785.7 816.014 Z" fill="#000000" fill-rule="nonzero" fill-opacity="1" /><path clip-path="url(#clip420)" d="M2735.17 579.078 Q2731.56 579.078 2729.73 582.643 Q2727.92 586.184 2727.92 593.314 Q2727.92 600.421 2729.73 603.985 Q2731.56 607.527 2735.17 607.527 Q2738.8 607.527 2740.61 603.985 Q2742.44 600.421 2742.44 593.314 Q2742.44 586.184 2740.61 582.643 Q2738.8 579.078 2735.17 579.078 M2735.17 575.374 Q2740.98 575.374 2744.03 579.981 Q2747.11 584.564 2747.11 593.314 Q2747.11 602.041 2744.03 606.647 Q2740.98 611.231 2735.17 611.231 Q2729.36 611.231 2726.28 606.647 Q2723.22 602.041 2723.22 593.314 Q2723.22 584.564 2726.28 579.981 Q2729.36 575.374 2735.17 575.374 Z" fill="#000000" fill-rule="nonzero" fill-opacity="1" /><path clip-path="url(#clip420)" d="M2755.33 604.68 L2760.21 604.68 L2760.21 610.559 L2755.33 610.559 L2755.33 604.68 Z" fill="#000000" fill-rule="nonzero" fill-opacity="1" /><path clip-path="url(#clip420)" d="M2783.25 580.073 L2771.44 598.522 L2783.25 598.522 L2783.25 580.073 M2782.02 575.999 L2787.9 575.999 L2787.9 598.522 L2792.83 598.522 L2792.83 602.411 L2787.9 602.411 L2787.9 610.559 L2783.25 610.559 L2783.25 602.411 L2767.65 602.411 L2767.65 597.897 L2782.02 575.999 Z" fill="#000000" fill-rule="nonzero" fill-opacity="1" /><path clip-path="url(#clip420)" d="M2736.65 354.989 Q2733.04 354.989 2731.21 358.554 Q2729.4 362.096 2729.4 369.225 Q2729.4 376.332 2731.21 379.896 Q2733.04 383.438 2736.65 383.438 Q2740.28 383.438 2742.09 379.896 Q2743.92 376.332 2743.92 369.225 Q2743.92 362.096 2742.09 358.554 Q2740.28 354.989 2736.65 354.989 M2736.65 351.285 Q2742.46 351.285 2745.52 355.892 Q2748.59 360.475 2748.59 369.225 Q2748.59 377.952 2745.52 382.558 Q2742.46 387.142 2736.65 387.142 Q2730.84 387.142 2727.76 382.558 Q2724.71 377.952 2724.71 369.225 Q2724.71 360.475 2727.76 355.892 Q2730.84 351.285 2736.65 351.285 Z" fill="#000000" fill-rule="nonzero" fill-opacity="1" /><path clip-path="url(#clip420)" d="M2756.81 380.591 L2761.7 380.591 L2761.7 386.47 L2756.81 386.47 L2756.81 380.591 Z" fill="#000000" fill-rule="nonzero" fill-opacity="1" /><path clip-path="url(#clip420)" d="M2771.93 351.91 L2790.28 351.91 L2790.28 355.846 L2776.21 355.846 L2776.21 364.318 Q2777.23 363.971 2778.25 363.809 Q2779.27 363.623 2780.28 363.623 Q2786.07 363.623 2789.45 366.795 Q2792.83 369.966 2792.83 375.383 Q2792.83 380.961 2789.36 384.063 Q2785.89 387.142 2779.57 387.142 Q2777.39 387.142 2775.12 386.771 Q2772.88 386.401 2770.47 385.66 L2770.47 380.961 Q2772.55 382.095 2774.77 382.651 Q2777 383.207 2779.47 383.207 Q2783.48 383.207 2785.82 381.1 Q2788.15 378.994 2788.15 375.383 Q2788.15 371.771 2785.82 369.665 Q2783.48 367.558 2779.47 367.558 Q2777.6 367.558 2775.72 367.975 Q2773.87 368.392 2771.93 369.271 L2771.93 351.91 Z" fill="#000000" fill-rule="nonzero" fill-opacity="1" /><path clip-path="url(#clip420)" d="M2735.49 130.9 Q2731.88 130.9 2730.05 134.465 Q2728.25 138.007 2728.25 145.136 Q2728.25 152.243 2730.05 155.807 Q2731.88 159.349 2735.49 159.349 Q2739.13 159.349 2740.93 155.807 Q2742.76 152.243 2742.76 145.136 Q2742.76 138.007 2740.93 134.465 Q2739.13 130.9 2735.49 130.9 M2735.49 127.197 Q2741.3 127.197 2744.36 131.803 Q2747.44 136.386 2747.44 145.136 Q2747.44 153.863 2744.36 158.469 Q2741.3 163.053 2735.49 163.053 Q2729.68 163.053 2726.6 158.469 Q2723.55 153.863 2723.55 145.136 Q2723.55 136.386 2726.6 131.803 Q2729.68 127.197 2735.49 127.197 Z" fill="#000000" fill-rule="nonzero" fill-opacity="1" /><path clip-path="url(#clip420)" d="M2755.65 156.502 L2760.54 156.502 L2760.54 162.381 L2755.65 162.381 L2755.65 156.502 Z" fill="#000000" fill-rule="nonzero" fill-opacity="1" /><path clip-path="url(#clip420)" d="M2781.3 143.238 Q2778.15 143.238 2776.3 145.391 Q2774.47 147.544 2774.47 151.294 Q2774.47 155.02 2776.3 157.196 Q2778.15 159.349 2781.3 159.349 Q2784.45 159.349 2786.28 157.196 Q2788.13 155.02 2788.13 151.294 Q2788.13 147.544 2786.28 145.391 Q2784.45 143.238 2781.3 143.238 M2790.58 128.585 L2790.58 132.845 Q2788.83 132.011 2787.02 131.571 Q2785.24 131.132 2783.48 131.132 Q2778.85 131.132 2776.4 134.257 Q2773.96 137.382 2773.62 143.701 Q2774.98 141.687 2777.04 140.622 Q2779.1 139.534 2781.58 139.534 Q2786.79 139.534 2789.8 142.706 Q2792.83 145.854 2792.83 151.294 Q2792.83 156.618 2789.68 159.835 Q2786.53 163.053 2781.3 163.053 Q2775.31 163.053 2772.14 158.469 Q2768.96 153.863 2768.96 145.136 Q2768.96 136.942 2772.85 132.081 Q2776.74 127.197 2783.29 127.197 Q2785.05 127.197 2786.83 127.544 Q2788.64 127.891 2790.58 128.585 Z" fill="#000000" fill-rule="nonzero" fill-opacity="1" /><path clip-path="url(#clip420)" d="M3144.95 44.2197 Q3147.59 45.1109 3150.06 48.0275 Q3152.57 50.9442 3155.08 56.0483 L3163.38 72.576 L3154.59 72.576 L3146.86 57.061 Q3143.86 50.9847 3141.02 48.9997 Q3138.23 47.0148 3133.37 47.0148 L3124.46 47.0148 L3124.46 72.576 L3116.27 72.576 L3116.27 12.096 L3134.74 12.096 Q3145.12 12.096 3150.22 16.4305 Q3155.32 20.7649 3155.32 29.5149 Q3155.32 35.2267 3152.65 38.994 Q3150.02 42.7613 3144.95 44.2197 M3124.46 18.8205 L3124.46 40.2903 L3134.74 40.2903 Q3140.66 40.2903 3143.66 37.5762 Q3146.69 34.8216 3146.69 29.5149 Q3146.69 24.2082 3143.66 21.5346 Q3140.66 18.8205 3134.74 18.8205 L3124.46 18.8205 Z" fill="#000000" fill-rule="nonzero" fill-opacity="1" /><path clip-path="url(#clip420)" d="M3187.45 32.4315 Q3181.45 32.4315 3177.97 37.1306 Q3174.48 41.7891 3174.48 49.9314 Q3174.48 58.0738 3177.93 62.7728 Q3181.41 67.4314 3187.45 67.4314 Q3193.4 67.4314 3196.89 62.7323 Q3200.37 58.0333 3200.37 49.9314 Q3200.37 41.8701 3196.89 37.1711 Q3193.4 32.4315 3187.45 32.4315 M3187.45 26.1121 Q3197.17 26.1121 3202.72 32.4315 Q3208.27 38.7509 3208.27 49.9314 Q3208.27 61.0714 3202.72 67.4314 Q3197.17 73.7508 3187.45 73.7508 Q3177.68 73.7508 3172.13 67.4314 Q3166.63 61.0714 3166.63 49.9314 Q3166.63 38.7509 3172.13 32.4315 Q3177.68 26.1121 3187.45 26.1121 Z" fill="#000000" fill-rule="nonzero" fill-opacity="1" /><path clip-path="url(#clip420)" d="M3250.48 34.0924 L3250.48 9.54393 L3257.93 9.54393 L3257.93 72.576 L3250.48 72.576 L3250.48 65.7705 Q3248.13 69.8214 3244.52 71.8063 Q3240.96 73.7508 3235.94 73.7508 Q3227.71 73.7508 3222.53 67.1883 Q3217.38 60.6258 3217.38 49.9314 Q3217.38 39.2371 3222.53 32.6746 Q3227.71 26.1121 3235.94 26.1121 Q3240.96 26.1121 3244.52 28.0971 Q3248.13 30.0415 3250.48 34.0924 M3225.08 49.9314 Q3225.08 58.1548 3228.44 62.8538 Q3231.84 67.5124 3237.76 67.5124 Q3243.67 67.5124 3247.08 62.8538 Q3250.48 58.1548 3250.48 49.9314 Q3250.48 41.7081 3247.08 37.0496 Q3243.67 32.3505 3237.76 32.3505 Q3231.84 32.3505 3228.44 37.0496 Q3225.08 41.7081 3225.08 49.9314 Z" fill="#000000" fill-rule="nonzero" fill-opacity="1" /><path clip-path="url(#clip420)" d="M3312.09 48.0275 L3312.09 51.6733 L3277.82 51.6733 Q3278.31 59.3701 3282.44 63.421 Q3286.61 67.4314 3294.03 67.4314 Q3298.32 67.4314 3302.33 66.3781 Q3306.38 65.3249 3310.35 63.2184 L3310.35 70.267 Q3306.34 71.9684 3302.13 72.8596 Q3297.92 73.7508 3293.58 73.7508 Q3282.72 73.7508 3276.36 67.4314 Q3270.04 61.1119 3270.04 50.3365 Q3270.04 39.1965 3276.04 32.6746 Q3282.08 26.1121 3292.28 26.1121 Q3301.44 26.1121 3306.75 32.0264 Q3312.09 37.9003 3312.09 48.0275 M3304.64 45.84 Q3304.56 39.7232 3301.2 36.0774 Q3297.87 32.4315 3292.37 32.4315 Q3286.13 32.4315 3282.36 35.9558 Q3278.63 39.4801 3278.07 45.8805 L3304.64 45.84 Z" fill="#000000" fill-rule="nonzero" fill-opacity="1" /><path clip-path="url(#clip420)" d="M3341.91 32.4315 Q3335.91 32.4315 3332.43 37.1306 Q3328.95 41.7891 3328.95 49.9314 Q3328.95 58.0738 3332.39 62.7728 Q3335.87 67.4314 3341.91 67.4314 Q3347.86 67.4314 3351.35 62.7323 Q3354.83 58.0333 3354.83 49.9314 Q3354.83 41.8701 3351.35 37.1711 Q3347.86 32.4315 3341.91 32.4315 M3341.91 26.1121 Q3351.63 26.1121 3357.18 32.4315 Q3362.73 38.7509 3362.73 49.9314 Q3362.73 61.0714 3357.18 67.4314 Q3351.63 73.7508 3341.91 73.7508 Q3332.15 73.7508 3326.6 67.4314 Q3321.09 61.0714 3321.09 49.9314 Q3321.09 38.7509 3326.6 32.4315 Q3332.15 26.1121 3341.91 26.1121 Z" fill="#000000" fill-rule="nonzero" fill-opacity="1" /><path clip-path="url(#clip420)" d="M3419.36 9.62495 Q3413.93 18.942 3411.3 28.0566 Q3408.67 37.1711 3408.67 46.5287 Q3408.67 55.8863 3411.3 65.0818 Q3413.97 74.2369 3419.36 83.5134 L3412.88 83.5134 Q3406.8 73.9938 3403.77 64.7983 Q3400.77 55.6027 3400.77 46.5287 Q3400.77 37.4952 3403.77 28.3401 Q3406.76 19.1851 3412.88 9.62495 L3419.36 9.62495 Z" fill="#000000" fill-rule="nonzero" fill-opacity="1" /><path clip-path="url(#clip420)" d="M3434.15 12.096 L3468.9 12.096 L3468.9 18.9825 L3442.33 18.9825 L3442.33 36.8065 L3466.31 36.8065 L3466.31 43.6931 L3442.33 43.6931 L3442.33 72.576 L3434.15 72.576 L3434.15 12.096 Z" fill="#000000" fill-rule="nonzero" fill-opacity="1" /><path clip-path="url(#clip420)" d="M3515.81 48.0275 L3515.81 51.6733 L3481.54 51.6733 Q3482.03 59.3701 3486.16 63.421 Q3490.33 67.4314 3497.75 67.4314 Q3502.04 67.4314 3506.05 66.3781 Q3510.1 65.3249 3514.07 63.2184 L3514.07 70.267 Q3510.06 71.9684 3505.85 72.8596 Q3501.64 73.7508 3497.3 73.7508 Q3486.44 73.7508 3480.08 67.4314 Q3473.76 61.1119 3473.76 50.3365 Q3473.76 39.1965 3479.76 32.6746 Q3485.8 26.1121 3496 26.1121 Q3505.16 26.1121 3510.47 32.0264 Q3515.81 37.9003 3515.81 48.0275 M3508.36 45.84 Q3508.28 39.7232 3504.92 36.0774 Q3501.59 32.4315 3496.09 32.4315 Q3489.85 32.4315 3486.08 35.9558 Q3482.35 39.4801 3481.79 45.8805 L3508.36 45.84 Z" fill="#000000" fill-rule="nonzero" fill-opacity="1" /><path clip-path="url(#clip420)" d="M3565.76 45.1919 L3565.76 72.576 L3558.31 72.576 L3558.31 45.4349 Q3558.31 38.994 3555.8 35.7938 Q3553.28 32.5936 3548.26 32.5936 Q3542.23 32.5936 3538.74 36.4419 Q3535.26 40.2903 3535.26 46.9338 L3535.26 72.576 L3527.76 72.576 L3527.76 27.2059 L3535.26 27.2059 L3535.26 34.2544 Q3537.93 30.163 3541.54 28.1376 Q3545.18 26.1121 3549.92 26.1121 Q3557.74 26.1121 3561.75 30.9732 Q3565.76 35.7938 3565.76 45.1919 Z" fill="#000000" fill-rule="nonzero" fill-opacity="1" /><path clip-path="url(#clip420)" d="M3606.92 34.1734 Q3605.66 33.4443 3604.16 33.1202 Q3602.71 32.7556 3600.92 32.7556 Q3594.6 32.7556 3591.2 36.8875 Q3587.84 40.9789 3587.84 48.6757 L3587.84 72.576 L3580.34 72.576 L3580.34 27.2059 L3587.84 27.2059 L3587.84 34.2544 Q3590.19 30.1225 3593.96 28.1376 Q3597.72 26.1121 3603.11 26.1121 Q3603.88 26.1121 3604.81 26.2337 Q3605.74 26.3147 3606.88 26.5172 L3606.92 34.1734 Z" fill="#000000" fill-rule="nonzero" fill-opacity="1" /><path clip-path="url(#clip420)" d="M3614.74 27.2059 L3622.19 27.2059 L3622.19 72.576 L3614.74 72.576 L3614.74 27.2059 M3614.74 9.54393 L3622.19 9.54393 L3622.19 18.9825 L3614.74 18.9825 L3614.74 9.54393 Z" fill="#000000" fill-rule="nonzero" fill-opacity="1" /><path clip-path="url(#clip420)" d="M3664.08 34.1734 Q3662.82 33.4443 3661.32 33.1202 Q3659.86 32.7556 3658.08 32.7556 Q3651.76 32.7556 3648.36 36.8875 Q3645 40.9789 3645 48.6757 L3645 72.576 L3637.5 72.576 L3637.5 27.2059 L3645 27.2059 L3645 34.2544 Q3647.35 30.1225 3651.11 28.1376 Q3654.88 26.1121 3660.27 26.1121 Q3661.04 26.1121 3661.97 26.2337 Q3662.9 26.3147 3664.04 26.5172 L3664.08 34.1734 Z" fill="#000000" fill-rule="nonzero" fill-opacity="1" /><path clip-path="url(#clip420)" d="M3670.72 9.62495 L3677.2 9.62495 Q3683.28 19.1851 3686.28 28.3401 Q3689.31 37.4952 3689.31 46.5287 Q3689.31 55.6027 3686.28 64.7983 Q3683.28 73.9938 3677.2 83.5134 L3670.72 83.5134 Q3676.11 74.2369 3678.74 65.0818 Q3681.41 55.8863 3681.41 46.5287 Q3681.41 37.1711 3678.74 28.0566 Q3676.11 18.942 3670.72 9.62495 Z" fill="#000000" fill-rule="nonzero" fill-opacity="1" /><polyline clip-path="url(#clip421)" style="stroke:#000000; stroke-linecap:round; stroke-linejoin:round; stroke-width:8; stroke-opacity:1; fill:none" stroke-dasharray="32, 20" points="2883.96,1231.07 2889.17,1214.09 2894.39,1197.76 2899.6,1182.05 2904.82,1166.93 2910.03,1152.36 2915.25,1138.31 2920.46,1124.76 2925.68,1111.68 2930.89,1099.04 2936.1,1086.82 2941.32,1075.01 2946.53,1063.58 2951.75,1052.51 2956.96,1041.8 2962.18,1031.41 2967.39,1021.34 2972.61,1011.57 2977.82,1002.08 2983.03,992.879 2988.25,983.937 2993.46,975.248 2998.68,966.801 3003.89,958.586 3009.11,950.595 3014.32,942.817 3019.53,935.244 3024.75,927.869 3029.96,920.683 3035.18,913.68 3040.39,906.853 3045.61,900.194 3050.82,893.699 3056.04,887.36 3061.25,881.173 3066.46,875.132 3071.68,869.232 3076.89,863.468 3082.11,857.835 3087.32,852.329 3092.54,846.946 3097.75,841.681 3102.97,836.532 3108.18,831.493 3113.39,826.562 3118.61,821.735 3123.82,817.008 3129.04,812.38 3134.25,807.846 3139.47,803.404 3144.68,799.051 3149.89,794.784 3155.11,790.601 3160.32,786.5 3165.54,782.478 3170.75,778.532 3175.97,774.661 3181.18,770.863 3186.4,767.135 3191.61,763.476 3196.82,759.883 3202.04,756.356 3207.25,752.891 3212.47,749.488 3217.68,746.145 3222.9,742.86 3228.11,739.632 3233.33,736.459 3238.54,733.34 3243.75,730.273 3248.97,727.258 3254.18,724.292 3259.4,721.376 3264.61,718.507 3269.83,715.684 3275.04,712.906 3280.25,710.173 3285.47,707.483 3290.68,704.835 3295.9,702.228 3301.11,699.661 3306.33,697.133 3311.54,694.644 3316.76,692.193 3321.97,689.778 3327.18,687.399 3332.4,685.055 3337.61,682.745 3342.83,680.469 3348.04,678.225 3353.26,676.014 3358.47,673.834 3363.69,671.685 3368.9,669.566 3374.11,667.476 3379.33,665.415 3384.54,663.383 3389.76,661.378 3394.97,659.401 3400.19,657.45 3405.4,655.525 3410.61,653.625 3415.83,651.751 3421.04,649.901 3426.26,648.075 3431.47,646.273 3436.69,644.494 3441.9,642.738 3447.12,641.004 3452.33,639.292 3457.54,637.601 3462.76,635.931 3467.97,634.282 3473.19,632.653 3478.4,631.044 3483.62,629.455 3488.83,627.885 3494.05,626.333 3499.26,624.8 3504.47,623.286 3509.69,621.789 3514.9,620.309 3520.12,618.847 3525.33,617.402 3530.55,615.973 3535.76,614.561 3540.97,613.165 3546.19,611.785 3551.4,610.42 3556.62,609.07 3561.83,607.736 3567.05,606.416 3572.26,605.111 3577.48,603.82 3582.69,602.543 3587.9,601.28 3593.12,600.031 3598.33,598.794 3603.55,597.572 3608.76,596.362 3613.98,595.164 3619.19,593.98 3624.41,592.807 3629.62,591.647 3634.83,590.499 3640.05,589.363 3645.26,588.238 3650.48,587.125 3655.69,586.023 3660.91,584.932 3666.12,583.852 3671.33,582.782 3676.55,581.724 3681.76,580.675 3686.98,579.637 3692.19,578.61 3697.41,577.592 3702.62,576.584 3707.84,575.585 3713.05,574.597 3718.26,573.617 3723.48,572.647 3728.69,571.687 3733.91,570.735 3739.12,569.792 3744.34,568.858 3749.55,567.932 3754.77,567.015 3759.98,566.107 3765.19,565.207 3770.41,564.315 3775.62,563.431 3780.84,562.555 3786.05,561.687 3791.27,560.826 3796.48,559.974 3801.69,559.129 3806.91,558.291 3812.12,557.461 3817.34,556.638 3822.55,555.822 3827.77,555.013 3832.98,554.211 3838.2,553.416 3843.41,552.628 3848.62,551.847 3853.84,551.072 3859.05,550.304 3864.27,549.542 3869.48,548.786 3874.7,548.037 3879.91,547.295 3885.13,546.558 3890.34,545.827 3895.55,545.102 3900.77,544.384 3905.98,543.671 3911.2,542.964 3916.41,542.262 3921.63,541.567 "/>
<polyline clip-path="url(#clip421)" style="stroke:#800080; stroke-linecap:round; stroke-linejoin:round; stroke-width:8; stroke-opacity:1; fill:none" points="2883.96,1142.3 2889.17,1136.35 2894.39,1130.4 2899.6,1124.45 2904.82,1118.49 2910.03,1112.52 2915.25,1106.54 2920.46,1100.55 2925.68,1094.55 2930.89,1088.53 2936.1,1082.48 2941.32,1076.42 2946.53,1070.34 2951.75,1064.23 2956.96,1058.1 2962.18,1051.93 2967.39,1045.73 2972.61,1039.51 2977.82,1033.24 2983.03,1026.94 2988.25,1020.6 2993.46,1014.22 2998.68,1007.79 3003.89,1001.32 3009.11,994.808 3014.32,988.253 3019.53,981.66 3024.75,975.032 3029.96,968.372 3035.18,961.682 3040.39,954.965 3045.61,948.223 3050.82,941.459 3056.04,934.677 3061.25,927.879 3066.46,921.067 3071.68,914.244 3076.89,907.413 3082.11,900.576 3087.32,893.737 3092.54,886.898 3097.75,880.062 3102.97,873.231 3108.18,866.409 3113.39,859.597 3118.61,852.799 3123.82,846.019 3129.04,839.26 3134.25,832.527 3139.47,825.825 3144.68,819.157 3149.89,812.527 3155.11,805.941 3160.32,799.402 3165.54,792.914 3170.75,786.482 3175.97,780.11 3181.18,773.802 3186.4,767.562 3191.61,761.395 3196.82,755.305 3202.04,749.296 3207.25,743.373 3212.47,737.539 3217.68,731.798 3222.9,726.156 3228.11,720.616 3233.33,715.183 3238.54,709.857 3243.75,704.637 3248.97,699.524 3254.18,694.515 3259.4,689.611 3264.61,684.811 3269.83,680.113 3275.04,675.517 3280.25,671.023 3285.47,666.629 3290.68,662.335 3295.9,658.14 3301.11,654.043 3306.33,650.043 3311.54,646.14 3316.76,642.332 3321.97,638.62 3327.18,635.002 3332.4,631.478 3337.61,628.046 3342.83,624.706 3348.04,621.457 3353.26,618.298 3358.47,615.224 3363.69,612.232 3368.9,609.32 3374.11,606.483 3379.33,603.72 3384.54,601.025 3389.76,598.396 3394.97,595.831 3400.19,593.324 3405.4,590.874 3410.61,588.477 3415.83,586.129 3421.04,583.828 3426.26,581.569 3431.47,579.351 3436.69,577.168 3441.9,575.019 3447.12,572.9 3452.33,570.808 3457.54,568.738 3462.76,566.689 3467.97,564.656 3473.19,562.635 3478.4,560.623 3483.62,558.613 3488.83,556.603 3494.05,554.589 3499.26,552.565 3504.47,550.529 3509.69,548.474 3514.9,546.399 3520.12,544.297 3525.33,542.165 3530.55,539.999 3535.76,537.794 3540.97,535.547 3546.19,533.253 3551.4,530.907 3556.62,528.506 3561.83,526.046 3567.05,523.521 3572.26,520.929 3577.48,518.264 3582.69,515.525 3587.9,512.712 3593.12,509.825 3598.33,506.866 3603.55,503.835 3608.76,500.734 3613.98,497.562 3619.19,494.321 3624.41,491.012 3629.62,487.635 3634.83,484.191 3640.05,480.681 3645.26,477.105 3650.48,473.466 3655.69,469.762 3660.91,465.995 3666.12,462.167 3671.33,458.277 3676.55,454.326 3681.76,450.316 3686.98,446.247 3692.19,442.119 3697.41,437.935 3702.62,433.697 3707.84,429.409 3713.05,425.072 3718.26,420.692 3723.48,416.269 3728.69,411.809 3733.91,407.313 3739.12,402.785 3744.34,398.227 3749.55,393.644 3754.77,389.037 3759.98,384.411 3765.19,379.768 3770.41,375.111 3775.62,370.443 3780.84,365.768 3786.05,361.088 3791.27,356.407 3796.48,351.728 3801.69,347.053 3806.91,342.386 3812.12,337.729 3817.34,333.082 3822.55,328.444 3827.77,323.816 3832.98,319.196 3838.2,314.584 3843.41,309.98 3848.62,305.383 3853.84,300.793 3859.05,296.208 3864.27,291.63 3869.48,287.057 3874.7,282.488 3879.91,277.924 3885.13,273.364 3890.34,268.807 3895.55,264.253 3900.77,259.701 3905.98,255.151 3911.2,250.602 3916.41,246.055 3921.63,241.508 "/>
<path clip-path="url(#clip420)" d="M2889.49 289.245 L3123.95 289.245 L3123.95 133.725 L2889.49 133.725  Z" fill="#ffffff" fill-rule="evenodd" fill-opacity="1"/>
<polyline clip-path="url(#clip420)" style="stroke:#000000; stroke-linecap:round; stroke-linejoin:round; stroke-width:4; stroke-opacity:1; fill:none" points="2889.49,289.245 3123.95,289.245 3123.95,133.725 2889.49,133.725 2889.49,289.245 "/>
<polyline clip-path="url(#clip420)" style="stroke:#000000; stroke-linecap:round; stroke-linejoin:round; stroke-width:8; stroke-opacity:1; fill:none" stroke-dasharray="32, 20" points="2901.72,185.565 2975.04,185.565 "/>
<path clip-path="url(#clip420)" d="M2987.27 168.285 L3016.5 168.285 L3016.5 172.22 L3004.23 172.22 L3004.23 202.845 L2999.53 202.845 L2999.53 172.22 L2987.27 172.22 L2987.27 168.285 Z" fill="#000000" fill-rule="nonzero" fill-opacity="1" /><path clip-path="url(#clip420)" d="M3028.89 180.901 Q3028.17 180.484 3027.31 180.299 Q3026.48 180.09 3025.46 180.09 Q3021.85 180.09 3019.9 182.452 Q3017.98 184.789 3017.98 189.188 L3017.98 202.845 L3013.7 202.845 L3013.7 176.919 L3017.98 176.919 L3017.98 180.947 Q3019.33 178.586 3021.48 177.452 Q3023.63 176.294 3026.71 176.294 Q3027.15 176.294 3027.68 176.364 Q3028.21 176.41 3028.86 176.526 L3028.89 180.901 Z" fill="#000000" fill-rule="nonzero" fill-opacity="1" /><path clip-path="url(#clip420)" d="M3032.91 192.613 L3032.91 176.919 L3037.17 176.919 L3037.17 192.451 Q3037.17 196.132 3038.61 197.984 Q3040.04 199.813 3042.91 199.813 Q3046.36 199.813 3048.35 197.613 Q3050.37 195.414 3050.37 191.618 L3050.37 176.919 L3054.63 176.919 L3054.63 202.845 L3050.37 202.845 L3050.37 198.863 Q3048.82 201.225 3046.76 202.382 Q3044.72 203.516 3042.01 203.516 Q3037.54 203.516 3035.23 200.738 Q3032.91 197.961 3032.91 192.613 M3043.63 176.294 L3043.63 176.294 Z" fill="#000000" fill-rule="nonzero" fill-opacity="1" /><path clip-path="url(#clip420)" d="M3085.58 188.817 L3085.58 190.901 L3065.99 190.901 Q3066.27 195.299 3068.63 197.613 Q3071.02 199.905 3075.25 199.905 Q3077.7 199.905 3080 199.303 Q3082.31 198.701 3084.58 197.498 L3084.58 201.525 Q3082.29 202.498 3079.88 203.007 Q3077.47 203.516 3075 203.516 Q3068.79 203.516 3065.16 199.905 Q3061.55 196.294 3061.55 190.137 Q3061.55 183.771 3064.97 180.044 Q3068.42 176.294 3074.26 176.294 Q3079.49 176.294 3082.52 179.674 Q3085.58 183.03 3085.58 188.817 M3081.32 187.567 Q3081.27 184.072 3079.35 181.989 Q3077.45 179.905 3074.3 179.905 Q3070.74 179.905 3068.58 181.919 Q3066.45 183.933 3066.13 187.59 L3081.32 187.567 Z" fill="#000000" fill-rule="nonzero" fill-opacity="1" /><polyline clip-path="url(#clip420)" style="stroke:#800080; stroke-linecap:round; stroke-linejoin:round; stroke-width:8; stroke-opacity:1; fill:none" points="2901.72,237.405 2975.04,237.405 "/>
<path clip-path="url(#clip420)" d="M2987.27 220.125 L3007.13 220.125 L3007.13 224.06 L2991.94 224.06 L2991.94 234.245 L3005.65 234.245 L3005.65 238.18 L2991.94 238.18 L2991.94 254.685 L2987.27 254.685 L2987.27 220.125 Z" fill="#000000" fill-rule="nonzero" fill-opacity="1" /><path clip-path="url(#clip420)" d="M3010.9 228.759 L3015.16 228.759 L3015.16 254.685 L3010.9 254.685 L3010.9 228.759 M3010.9 218.667 L3015.16 218.667 L3015.16 224.06 L3010.9 224.06 L3010.9 218.667 Z" fill="#000000" fill-rule="nonzero" fill-opacity="1" /><path clip-path="url(#clip420)" d="M3028.28 221.398 L3028.28 228.759 L3037.06 228.759 L3037.06 232.069 L3028.28 232.069 L3028.28 246.143 Q3028.28 249.315 3029.14 250.217 Q3030.02 251.12 3032.68 251.12 L3037.06 251.12 L3037.06 254.685 L3032.68 254.685 Q3027.75 254.685 3025.88 252.856 Q3024 251.004 3024 246.143 L3024 232.069 L3020.88 232.069 L3020.88 228.759 L3024 228.759 L3024 221.398 L3028.28 221.398 Z" fill="#000000" fill-rule="nonzero" fill-opacity="1" /><path clip-path="url(#clip420)" d="M3046.87 221.398 L3046.87 228.759 L3055.64 228.759 L3055.64 232.069 L3046.87 232.069 L3046.87 246.143 Q3046.87 249.315 3047.73 250.217 Q3048.61 251.12 3051.27 251.12 L3055.64 251.12 L3055.64 254.685 L3051.27 254.685 Q3046.34 254.685 3044.46 252.856 Q3042.59 251.004 3042.59 246.143 L3042.59 232.069 L3039.46 232.069 L3039.46 228.759 L3042.59 228.759 L3042.59 221.398 L3046.87 221.398 Z" fill="#000000" fill-rule="nonzero" fill-opacity="1" /><path clip-path="url(#clip420)" d="M3083.42 240.657 L3083.42 242.741 L3063.84 242.741 Q3064.12 247.139 3066.48 249.453 Q3068.86 251.745 3073.1 251.745 Q3075.55 251.745 3077.84 251.143 Q3080.16 250.541 3082.43 249.338 L3082.43 253.365 Q3080.14 254.338 3077.73 254.847 Q3075.32 255.356 3072.84 255.356 Q3066.64 255.356 3063.01 251.745 Q3059.39 248.134 3059.39 241.977 Q3059.39 235.611 3062.82 231.884 Q3066.27 228.134 3072.1 228.134 Q3077.33 228.134 3080.37 231.514 Q3083.42 234.87 3083.42 240.657 M3079.16 239.407 Q3079.12 235.912 3077.2 233.829 Q3075.3 231.745 3072.15 231.745 Q3068.58 231.745 3066.43 233.759 Q3064.3 235.773 3063.98 239.43 L3079.16 239.407 Z" fill="#000000" fill-rule="nonzero" fill-opacity="1" /><path clip-path="url(#clip420)" d="M3107.47 232.694 L3107.47 218.667 L3111.73 218.667 L3111.73 254.685 L3107.47 254.685 L3107.47 250.796 Q3106.13 253.111 3104.07 254.245 Q3102.03 255.356 3099.16 255.356 Q3094.46 255.356 3091.5 251.606 Q3088.56 247.856 3088.56 241.745 Q3088.56 235.634 3091.5 231.884 Q3094.46 228.134 3099.16 228.134 Q3102.03 228.134 3104.07 229.268 Q3106.13 230.379 3107.47 232.694 M3092.96 241.745 Q3092.96 246.444 3094.88 249.129 Q3096.83 251.791 3100.2 251.791 Q3103.58 251.791 3105.53 249.129 Q3107.47 246.444 3107.47 241.745 Q3107.47 237.046 3105.53 234.384 Q3103.58 231.699 3100.2 231.699 Q3096.83 231.699 3094.88 234.384 Q3092.96 237.046 3092.96 241.745 Z" fill="#000000" fill-rule="nonzero" fill-opacity="1" /></svg>
