<?xml version="1.0" encoding="utf-8"?>
<svg xmlns="http://www.w3.org/2000/svg" xmlns:xlink="http://www.w3.org/1999/xlink" width="1000" height="350" viewBox="0 0 4000 1400">
<defs>
  <clipPath id="clip950">
    <rect x="0" y="0" width="4000" height="1400"/>
  </clipPath>
</defs>
<path clip-path="url(#clip950)" d="M0 1400 L4000 1400 L4000 -7.03437e-14 L0 -7.03437e-14  Z" fill="#ffffff" fill-rule="evenodd" fill-opacity="1"/>
<defs>
  <clipPath id="clip951">
    <rect x="2852" y="94" width="1101" height="1170"/>
  </clipPath>
</defs>
<path clip-path="url(#clip950)" d="M213.294 1264.17 L1313.22 1264.17 L1313.22 94.7441 L213.294 94.7441  Z" fill="#ffffff" fill-rule="evenodd" fill-opacity="1"/>
<defs>
  <clipPath id="clip952">
    <rect x="213" y="94" width="1101" height="1170"/>
  </clipPath>
</defs>
<polyline clip-path="url(#clip952)" style="stroke:#000000; stroke-linecap:round; stroke-linejoin:round; stroke-width:2; stroke-opacity:0.1; fill:none" points="408.266,1264.17 408.266,94.7441 "/>
<polyline clip-path="url(#clip952)" style="stroke:#000000; stroke-linecap:round; stroke-linejoin:round; stroke-width:2; stroke-opacity:0.1; fill:none" points="626.722,1264.17 626.722,94.7441 "/>
<polyline clip-path="url(#clip952)" style="stroke:#000000; stroke-linecap:round; stroke-linejoin:round; stroke-width:2; stroke-opacity:0.1; fill:none" points="845.178,1264.17 845.178,94.7441 "/>
<polyline clip-path="url(#clip952)" style="stroke:#000000; stroke-linecap:round; stroke-linejoin:round; stroke-width:2; stroke-opacity:0.1; fill:none" points="1063.63,1264.17 1063.63,94.7441 "/>
<polyline clip-path="url(#clip952)" style="stroke:#000000; stroke-linecap:round; stroke-linejoin:round; stroke-width:2; stroke-opacity:0.1; fill:none" points="1282.09,1264.17 1282.09,94.7441 "/>
<polyline clip-path="url(#clip952)" style="stroke:#000000; stroke-linecap:round; stroke-linejoin:round; stroke-width:2; stroke-opacity:0.1; fill:none" points="213.294,1231.07 1313.22,1231.07 "/>
<polyline clip-path="url(#clip952)" style="stroke:#000000; stroke-linecap:round; stroke-linejoin:round; stroke-width:2; stroke-opacity:0.1; fill:none" points="213.294,998.906 1313.22,998.906 "/>
<polyline clip-path="url(#clip952)" style="stroke:#000000; stroke-linecap:round; stroke-linejoin:round; stroke-width:2; stroke-opacity:0.1; fill:none" points="213.294,766.741 1313.22,766.741 "/>
<polyline clip-path="url(#clip952)" style="stroke:#000000; stroke-linecap:round; stroke-linejoin:round; stroke-width:2; stroke-opacity:0.1; fill:none" points="213.294,534.576 1313.22,534.576 "/>
<polyline clip-path="url(#clip952)" style="stroke:#000000; stroke-linecap:round; stroke-linejoin:round; stroke-width:2; stroke-opacity:0.1; fill:none" points="213.294,302.411 1313.22,302.411 "/>
<polyline clip-path="url(#clip950)" style="stroke:#000000; stroke-linecap:round; stroke-linejoin:round; stroke-width:4; stroke-opacity:1; fill:none" points="213.294,1264.17 1313.22,1264.17 "/>
<polyline clip-path="url(#clip950)" style="stroke:#000000; stroke-linecap:round; stroke-linejoin:round; stroke-width:4; stroke-opacity:1; fill:none" points="408.266,1264.17 408.266,1245.27 "/>
<polyline clip-path="url(#clip950)" style="stroke:#000000; stroke-linecap:round; stroke-linejoin:round; stroke-width:4; stroke-opacity:1; fill:none" points="626.722,1264.17 626.722,1245.27 "/>
<polyline clip-path="url(#clip950)" style="stroke:#000000; stroke-linecap:round; stroke-linejoin:round; stroke-width:4; stroke-opacity:1; fill:none" points="845.178,1264.17 845.178,1245.27 "/>
<polyline clip-path="url(#clip950)" style="stroke:#000000; stroke-linecap:round; stroke-linejoin:round; stroke-width:4; stroke-opacity:1; fill:none" points="1063.63,1264.17 1063.63,1245.27 "/>
<polyline clip-path="url(#clip950)" style="stroke:#000000; stroke-linecap:round; stroke-linejoin:round; stroke-width:4; stroke-opacity:1; fill:none" points="1282.09,1264.17 1282.09,1245.27 "/>
<path clip-path="url(#clip950)" d="M402.919 1335.43 L419.238 1335.43 L419.238 1339.37 L397.294 1339.37 L397.294 1335.43 Q399.956 1332.68 404.539 1328.05 Q409.146 1323.4 410.326 1322.05 Q412.572 1319.53 413.451 1317.79 Q414.354 1316.03 414.354 1314.34 Q414.354 1311.59 412.41 1309.85 Q410.488 1308.12 407.387 1308.12 Q405.188 1308.12 402.734 1308.88 Q400.303 1309.65 397.526 1311.2 L397.526 1306.47 Q400.35 1305.34 402.803 1304.76 Q405.257 1304.18 407.294 1304.18 Q412.664 1304.18 415.859 1306.87 Q419.053 1309.55 419.053 1314.04 Q419.053 1316.17 418.243 1318.09 Q417.456 1319.99 415.349 1322.59 Q414.771 1323.26 411.669 1326.47 Q408.567 1329.67 402.919 1335.43 Z" fill="#000000" fill-rule="nonzero" fill-opacity="1" /><path clip-path="url(#clip950)" d="M629.731 1308.88 L617.926 1327.33 L629.731 1327.33 L629.731 1308.88 M628.505 1304.81 L634.384 1304.81 L634.384 1327.33 L639.315 1327.33 L639.315 1331.22 L634.384 1331.22 L634.384 1339.37 L629.731 1339.37 L629.731 1331.22 L614.13 1331.22 L614.13 1326.71 L628.505 1304.81 Z" fill="#000000" fill-rule="nonzero" fill-opacity="1" /><path clip-path="url(#clip950)" d="M845.583 1320.22 Q842.435 1320.22 840.583 1322.38 Q838.754 1324.53 838.754 1328.28 Q838.754 1332.01 840.583 1334.18 Q842.435 1336.34 845.583 1336.34 Q848.731 1336.34 850.56 1334.18 Q852.412 1332.01 852.412 1328.28 Q852.412 1324.53 850.56 1322.38 Q848.731 1320.22 845.583 1320.22 M854.866 1305.57 L854.866 1309.83 Q853.106 1309 851.301 1308.56 Q849.518 1308.12 847.759 1308.12 Q843.129 1308.12 840.676 1311.24 Q838.245 1314.37 837.898 1320.69 Q839.264 1318.67 841.324 1317.61 Q843.384 1316.52 845.861 1316.52 Q851.069 1316.52 854.078 1319.69 Q857.111 1322.84 857.111 1328.28 Q857.111 1333.6 853.963 1336.82 Q850.815 1340.04 845.583 1340.04 Q839.588 1340.04 836.417 1335.46 Q833.245 1330.85 833.245 1322.12 Q833.245 1313.93 837.134 1309.07 Q841.023 1304.18 847.574 1304.18 Q849.333 1304.18 851.116 1304.53 Q852.921 1304.88 854.866 1305.57 Z" fill="#000000" fill-rule="nonzero" fill-opacity="1" /><path clip-path="url(#clip950)" d="M1063.63 1322.96 Q1060.3 1322.96 1058.38 1324.74 Q1056.48 1326.52 1056.48 1329.65 Q1056.48 1332.77 1058.38 1334.55 Q1060.3 1336.34 1063.63 1336.34 Q1066.97 1336.34 1068.89 1334.55 Q1070.81 1332.75 1070.81 1329.65 Q1070.81 1326.52 1068.89 1324.74 Q1066.99 1322.96 1063.63 1322.96 M1058.96 1320.97 Q1055.95 1320.22 1054.26 1318.16 Q1052.59 1316.1 1052.59 1313.14 Q1052.59 1309 1055.53 1306.59 Q1058.5 1304.18 1063.63 1304.18 Q1068.8 1304.18 1071.74 1306.59 Q1074.68 1309 1074.68 1313.14 Q1074.68 1316.1 1072.99 1318.16 Q1071.32 1320.22 1068.33 1320.97 Q1071.71 1321.75 1073.59 1324.04 Q1075.49 1326.34 1075.49 1329.65 Q1075.49 1334.67 1072.41 1337.35 Q1069.35 1340.04 1063.63 1340.04 Q1057.92 1340.04 1054.84 1337.35 Q1051.78 1334.67 1051.78 1329.65 Q1051.78 1326.34 1053.68 1324.04 Q1055.58 1321.75 1058.96 1320.97 M1057.25 1313.58 Q1057.25 1316.27 1058.91 1317.77 Q1060.6 1319.28 1063.63 1319.28 Q1066.64 1319.28 1068.33 1317.77 Q1070.05 1316.27 1070.05 1313.58 Q1070.05 1310.9 1068.33 1309.39 Q1066.64 1307.89 1063.63 1307.89 Q1060.6 1307.89 1058.91 1309.39 Q1057.25 1310.9 1057.25 1313.58 Z" fill="#000000" fill-rule="nonzero" fill-opacity="1" /><path clip-path="url(#clip950)" d="M1256.78 1335.43 L1264.42 1335.43 L1264.42 1309.07 L1256.11 1310.73 L1256.11 1306.47 L1264.37 1304.81 L1269.05 1304.81 L1269.05 1335.43 L1276.68 1335.43 L1276.68 1339.37 L1256.78 1339.37 L1256.78 1335.43 Z" fill="#000000" fill-rule="nonzero" fill-opacity="1" /><path clip-path="url(#clip950)" d="M1296.13 1307.89 Q1292.52 1307.89 1290.69 1311.45 Q1288.88 1314.99 1288.88 1322.12 Q1288.88 1329.23 1290.69 1332.79 Q1292.52 1336.34 1296.13 1336.34 Q1299.76 1336.34 1301.57 1332.79 Q1303.4 1329.23 1303.4 1322.12 Q1303.4 1314.99 1301.57 1311.45 Q1299.76 1307.89 1296.13 1307.89 M1296.13 1304.18 Q1301.94 1304.18 1304.99 1308.79 Q1308.07 1313.37 1308.07 1322.12 Q1308.07 1330.85 1304.99 1335.46 Q1301.94 1340.04 1296.13 1340.04 Q1290.32 1340.04 1287.24 1335.46 Q1284.18 1330.85 1284.18 1322.12 Q1284.18 1313.37 1287.24 1308.79 Q1290.32 1304.18 1296.13 1304.18 Z" fill="#000000" fill-rule="nonzero" fill-opacity="1" /><path clip-path="url(#clip950)" d="M745.274 1385.51 L753.931 1385.51 L775.002 1425.27 L775.002 1385.51 L781.24 1385.51 L781.24 1433.03 L772.583 1433.03 L751.512 1393.28 L751.512 1433.03 L745.274 1433.03 L745.274 1385.51 Z" fill="#000000" fill-rule="nonzero" fill-opacity="1" /><polyline clip-path="url(#clip950)" style="stroke:#000000; stroke-linecap:round; stroke-linejoin:round; stroke-width:4; stroke-opacity:1; fill:none" points="213.294,1264.17 213.294,94.7441 "/>
<polyline clip-path="url(#clip950)" style="stroke:#000000; stroke-linecap:round; stroke-linejoin:round; stroke-width:4; stroke-opacity:1; fill:none" points="213.294,1231.07 232.192,1231.07 "/>
<polyline clip-path="url(#clip950)" style="stroke:#000000; stroke-linecap:round; stroke-linejoin:round; stroke-width:4; stroke-opacity:1; fill:none" points="213.294,998.906 232.192,998.906 "/>
<polyline clip-path="url(#clip950)" style="stroke:#000000; stroke-linecap:round; stroke-linejoin:round; stroke-width:4; stroke-opacity:1; fill:none" points="213.294,766.741 232.192,766.741 "/>
<polyline clip-path="url(#clip950)" style="stroke:#000000; stroke-linecap:round; stroke-linejoin:round; stroke-width:4; stroke-opacity:1; fill:none" points="213.294,534.576 232.192,534.576 "/>
<polyline clip-path="url(#clip950)" style="stroke:#000000; stroke-linecap:round; stroke-linejoin:round; stroke-width:4; stroke-opacity:1; fill:none" points="213.294,302.411 232.192,302.411 "/>
<path clip-path="url(#clip950)" d="M96.1186 1216.87 Q92.5076 1216.87 90.6789 1220.43 Q88.8733 1223.98 88.8733 1231.11 Q88.8733 1238.21 90.6789 1241.78 Q92.5076 1245.32 96.1186 1245.32 Q99.7529 1245.32 101.558 1241.78 Q103.387 1238.21 103.387 1231.11 Q103.387 1223.98 101.558 1220.43 Q99.7529 1216.87 96.1186 1216.87 M96.1186 1213.17 Q101.929 1213.17 104.984 1217.77 Q108.063 1222.36 108.063 1231.11 Q108.063 1239.83 104.984 1244.44 Q101.929 1249.02 96.1186 1249.02 Q90.3085 1249.02 87.2298 1244.44 Q84.1743 1239.83 84.1743 1231.11 Q84.1743 1222.36 87.2298 1217.77 Q90.3085 1213.17 96.1186 1213.17 Z" fill="#000000" fill-rule="nonzero" fill-opacity="1" /><path clip-path="url(#clip950)" d="M116.281 1242.47 L121.165 1242.47 L121.165 1248.35 L116.281 1248.35 L116.281 1242.47 Z" fill="#000000" fill-rule="nonzero" fill-opacity="1" /><path clip-path="url(#clip950)" d="M141.35 1216.87 Q137.739 1216.87 135.91 1220.43 Q134.105 1223.98 134.105 1231.11 Q134.105 1238.21 135.91 1241.78 Q137.739 1245.32 141.35 1245.32 Q144.984 1245.32 146.79 1241.78 Q148.618 1238.21 148.618 1231.11 Q148.618 1223.98 146.79 1220.43 Q144.984 1216.87 141.35 1216.87 M141.35 1213.17 Q147.16 1213.17 150.216 1217.77 Q153.294 1222.36 153.294 1231.11 Q153.294 1239.83 150.216 1244.44 Q147.16 1249.02 141.35 1249.02 Q135.54 1249.02 132.461 1244.44 Q129.406 1239.83 129.406 1231.11 Q129.406 1222.36 132.461 1217.77 Q135.54 1213.17 141.35 1213.17 Z" fill="#000000" fill-rule="nonzero" fill-opacity="1" /><path clip-path="url(#clip950)" d="M97.3455 984.705 Q93.7344 984.705 91.9057 988.269 Q90.1002 991.811 90.1002 998.941 Q90.1002 1006.05 91.9057 1009.61 Q93.7344 1013.15 97.3455 1013.15 Q100.98 1013.15 102.785 1009.61 Q104.614 1006.05 104.614 998.941 Q104.614 991.811 102.785 988.269 Q100.98 984.705 97.3455 984.705 M97.3455 981.001 Q103.156 981.001 106.211 985.607 Q109.29 990.191 109.29 998.941 Q109.29 1007.67 106.211 1012.27 Q103.156 1016.86 97.3455 1016.86 Q91.5353 1016.86 88.4567 1012.27 Q85.4011 1007.67 85.4011 998.941 Q85.4011 990.191 88.4567 985.607 Q91.5353 981.001 97.3455 981.001 Z" fill="#000000" fill-rule="nonzero" fill-opacity="1" /><path clip-path="url(#clip950)" d="M117.507 1010.31 L122.392 1010.31 L122.392 1016.19 L117.507 1016.19 L117.507 1010.31 Z" fill="#000000" fill-rule="nonzero" fill-opacity="1" /><path clip-path="url(#clip950)" d="M133.387 1012.25 L141.026 1012.25 L141.026 985.885 L132.716 987.552 L132.716 983.293 L140.98 981.626 L145.655 981.626 L145.655 1012.25 L153.294 1012.25 L153.294 1016.19 L133.387 1016.19 L133.387 1012.25 Z" fill="#000000" fill-rule="nonzero" fill-opacity="1" /><path clip-path="url(#clip950)" d="M97.7159 752.539 Q94.1048 752.539 92.2761 756.104 Q90.4705 759.646 90.4705 766.776 Q90.4705 773.882 92.2761 777.447 Q94.1048 780.988 97.7159 780.988 Q101.35 780.988 103.156 777.447 Q104.984 773.882 104.984 766.776 Q104.984 759.646 103.156 756.104 Q101.35 752.539 97.7159 752.539 M97.7159 748.836 Q103.526 748.836 106.582 753.442 Q109.66 758.026 109.66 766.776 Q109.66 775.502 106.582 780.109 Q103.526 784.692 97.7159 784.692 Q91.9057 784.692 88.827 780.109 Q85.7715 775.502 85.7715 766.776 Q85.7715 758.026 88.827 753.442 Q91.9057 748.836 97.7159 748.836 Z" fill="#000000" fill-rule="nonzero" fill-opacity="1" /><path clip-path="url(#clip950)" d="M117.878 778.141 L122.762 778.141 L122.762 784.021 L117.878 784.021 L117.878 778.141 Z" fill="#000000" fill-rule="nonzero" fill-opacity="1" /><path clip-path="url(#clip950)" d="M136.975 780.086 L153.294 780.086 L153.294 784.021 L131.35 784.021 L131.35 780.086 Q134.012 777.331 138.595 772.701 Q143.202 768.049 144.382 766.706 Q146.628 764.183 147.507 762.447 Q148.41 760.688 148.41 758.998 Q148.41 756.243 146.466 754.507 Q144.544 752.771 141.442 752.771 Q139.243 752.771 136.79 753.535 Q134.359 754.299 131.581 755.85 L131.581 751.127 Q134.405 749.993 136.859 749.415 Q139.313 748.836 141.35 748.836 Q146.72 748.836 149.915 751.521 Q153.109 754.206 153.109 758.697 Q153.109 760.826 152.299 762.748 Q151.512 764.646 149.405 767.238 Q148.827 767.91 145.725 771.127 Q142.623 774.322 136.975 780.086 Z" fill="#000000" fill-rule="nonzero" fill-opacity="1" /><path clip-path="url(#clip950)" d="M96.7668 520.374 Q93.1557 520.374 91.327 523.939 Q89.5215 527.481 89.5215 534.61 Q89.5215 541.717 91.327 545.282 Q93.1557 548.823 96.7668 548.823 Q100.401 548.823 102.207 545.282 Q104.035 541.717 104.035 534.61 Q104.035 527.481 102.207 523.939 Q100.401 520.374 96.7668 520.374 M96.7668 516.671 Q102.577 516.671 105.632 521.277 Q108.711 525.861 108.711 534.61 Q108.711 543.337 105.632 547.944 Q102.577 552.527 96.7668 552.527 Q90.9566 552.527 87.8779 547.944 Q84.8224 543.337 84.8224 534.61 Q84.8224 525.861 87.8779 521.277 Q90.9566 516.671 96.7668 516.671 Z" fill="#000000" fill-rule="nonzero" fill-opacity="1" /><path clip-path="url(#clip950)" d="M116.929 545.976 L121.813 545.976 L121.813 551.856 L116.929 551.856 L116.929 545.976 Z" fill="#000000" fill-rule="nonzero" fill-opacity="1" /><path clip-path="url(#clip950)" d="M146.165 533.222 Q149.521 533.939 151.396 536.208 Q153.294 538.476 153.294 541.81 Q153.294 546.925 149.776 549.726 Q146.257 552.527 139.776 552.527 Q137.6 552.527 135.285 552.087 Q132.993 551.671 130.54 550.814 L130.54 546.3 Q132.484 547.434 134.799 548.013 Q137.114 548.592 139.637 548.592 Q144.035 548.592 146.327 546.856 Q148.642 545.12 148.642 541.81 Q148.642 538.754 146.489 537.041 Q144.359 535.305 140.54 535.305 L136.512 535.305 L136.512 531.462 L140.725 531.462 Q144.174 531.462 146.003 530.097 Q147.831 528.708 147.831 526.115 Q147.831 523.453 145.933 522.041 Q144.058 520.606 140.54 520.606 Q138.618 520.606 136.419 521.023 Q134.22 521.439 131.581 522.319 L131.581 518.152 Q134.243 517.411 136.558 517.041 Q138.896 516.671 140.956 516.671 Q146.28 516.671 149.382 519.101 Q152.484 521.509 152.484 525.629 Q152.484 528.499 150.841 530.49 Q149.197 532.458 146.165 533.222 Z" fill="#000000" fill-rule="nonzero" fill-opacity="1" /><path clip-path="url(#clip950)" d="M95.6325 288.209 Q92.0214 288.209 90.1928 291.774 Q88.3872 295.316 88.3872 302.445 Q88.3872 309.552 90.1928 313.117 Q92.0214 316.658 95.6325 316.658 Q99.2668 316.658 101.072 313.117 Q102.901 309.552 102.901 302.445 Q102.901 295.316 101.072 291.774 Q99.2668 288.209 95.6325 288.209 M95.6325 284.506 Q101.443 284.506 104.498 289.112 Q107.577 293.695 107.577 302.445 Q107.577 311.172 104.498 315.779 Q101.443 320.362 95.6325 320.362 Q89.8224 320.362 86.7437 315.779 Q83.6882 311.172 83.6882 302.445 Q83.6882 293.695 86.7437 289.112 Q89.8224 284.506 95.6325 284.506 Z" fill="#000000" fill-rule="nonzero" fill-opacity="1" /><path clip-path="url(#clip950)" d="M115.794 313.811 L120.679 313.811 L120.679 319.691 L115.794 319.691 L115.794 313.811 Z" fill="#000000" fill-rule="nonzero" fill-opacity="1" /><path clip-path="url(#clip950)" d="M143.711 289.205 L131.905 307.654 L143.711 307.654 L143.711 289.205 M142.484 285.131 L148.364 285.131 L148.364 307.654 L153.294 307.654 L153.294 311.543 L148.364 311.543 L148.364 319.691 L143.711 319.691 L143.711 311.543 L128.109 311.543 L128.109 307.029 L142.484 285.131 Z" fill="#000000" fill-rule="nonzero" fill-opacity="1" /><path clip-path="url(#clip950)" d="M-20.7413 716.027 Q-21.3142 717.014 -21.5688 718.191 Q-21.8553 719.337 -21.8553 720.738 Q-21.8553 725.703 -18.6088 728.376 Q-15.3941 731.018 -9.34668 731.018 L9.43216 731.018 L9.43216 736.906 L-26.2158 736.906 L-26.2158 731.018 L-20.6776 731.018 Q-23.9241 729.172 -25.4837 726.212 Q-27.0752 723.252 -27.0752 719.019 Q-27.0752 718.414 -26.9797 717.682 Q-26.916 716.95 -26.7569 716.059 L-20.7413 716.027 Z" fill="#000000" fill-rule="nonzero" fill-opacity="1" /><path clip-path="url(#clip950)" d="M-40.0294 695.816 Q-32.7088 700.081 -25.5474 702.15 Q-18.386 704.219 -11.0336 704.219 Q-3.6812 704.219 3.54388 702.15 Q10.7371 700.049 18.0259 695.816 L18.0259 700.908 Q10.5462 705.683 3.32108 708.07 Q-3.904 710.425 -11.0336 710.425 Q-18.1314 710.425 -25.3246 708.07 Q-32.5178 705.715 -40.0294 700.908 L-40.0294 695.816 Z" fill="#000000" fill-rule="nonzero" fill-opacity="1" /><path clip-path="url(#clip950)" d="M-38.0878 684.198 L-38.0878 675.541 L1.666 654.471 L-38.0878 654.471 L-38.0878 648.232 L9.43216 648.232 L9.43216 656.89 L-30.3217 677.96 L9.43216 677.96 L9.43216 684.198 L-38.0878 684.198 Z" fill="#000000" fill-rule="nonzero" fill-opacity="1" /><path clip-path="url(#clip950)" d="M-40.0294 636.615 L-40.0294 631.522 Q-32.5178 626.748 -25.3246 624.393 Q-18.1314 622.005 -11.0336 622.005 Q-3.904 622.005 3.32108 624.393 Q10.5462 626.748 18.0259 631.522 L18.0259 636.615 Q10.7371 632.382 3.54388 630.313 Q-3.6812 628.212 -11.0336 628.212 Q-18.386 628.212 -25.5474 630.313 Q-32.7088 632.382 -40.0294 636.615 Z" fill="#000000" fill-rule="nonzero" fill-opacity="1" /><path clip-path="url(#clip950)" d="M613.576 18.8205 L613.576 65.8515 L623.46 65.8515 Q635.978 65.8515 641.77 60.1802 Q647.604 54.509 647.604 42.2752 Q647.604 30.1225 641.77 24.4918 Q635.978 18.8205 623.46 18.8205 L613.576 18.8205 M605.393 12.096 L622.205 12.096 Q639.786 12.096 648.009 19.4281 Q656.232 26.7198 656.232 42.2752 Q656.232 57.9117 647.968 65.2439 Q639.705 72.576 622.205 72.576 L605.393 72.576 L605.393 12.096 Z" fill="#000000" fill-rule="nonzero" fill-opacity="1" /><path clip-path="url(#clip950)" d="M688.032 20.1573 L676.932 50.2555 L699.172 50.2555 L688.032 20.1573 M683.414 12.096 L692.69 12.096 L715.74 72.576 L707.233 72.576 L701.724 57.061 L674.461 57.061 L668.952 72.576 L660.324 72.576 L683.414 12.096 Z" fill="#000000" fill-rule="nonzero" fill-opacity="1" /><path clip-path="url(#clip950)" d="M724.571 12.096 L732.754 12.096 L732.754 65.6895 L762.204 65.6895 L762.204 72.576 L724.571 72.576 L724.571 12.096 Z" fill="#000000" fill-rule="nonzero" fill-opacity="1" /><path clip-path="url(#clip950)" d="M750.983 12.096 L802.146 12.096 L802.146 18.9825 L780.676 18.9825 L780.676 72.576 L772.453 72.576 L772.453 18.9825 L750.983 18.9825 L750.983 12.096 Z" fill="#000000" fill-rule="nonzero" fill-opacity="1" /><path clip-path="url(#clip950)" d="M834.594 17.6457 Q825.682 17.6457 820.415 24.2892 Q815.19 30.9327 815.19 42.3968 Q815.19 53.8203 820.415 60.4638 Q825.682 67.1073 834.594 67.1073 Q843.506 67.1073 848.691 60.4638 Q853.916 53.8203 853.916 42.3968 Q853.916 30.9327 848.691 24.2892 Q843.506 17.6457 834.594 17.6457 M834.594 11.0023 Q847.313 11.0023 854.929 19.5497 Q862.545 28.0566 862.545 42.3968 Q862.545 56.6965 854.929 65.2439 Q847.313 73.7508 834.594 73.7508 Q821.833 73.7508 814.177 65.2439 Q806.561 56.737 806.561 42.3968 Q806.561 28.0566 814.177 19.5497 Q821.833 11.0023 834.594 11.0023 Z" fill="#000000" fill-rule="nonzero" fill-opacity="1" /><path clip-path="url(#clip950)" d="M875.346 12.096 L886.364 12.096 L913.181 62.6918 L913.181 12.096 L921.121 12.096 L921.121 72.576 L910.102 72.576 L883.285 21.9802 L883.285 72.576 L875.346 72.576 L875.346 12.096 Z" fill="#000000" fill-rule="nonzero" fill-opacity="1" /><polyline clip-path="url(#clip952)" style="stroke:#000000; stroke-linecap:round; stroke-linejoin:round; stroke-width:8; stroke-opacity:1; fill:none" stroke-dasharray="32, 20" points="244.424,128.287 249.639,133.829 254.853,139.37 260.067,144.912 265.282,150.453 270.496,155.995 275.711,161.537 280.925,167.078 286.139,172.62 291.354,178.162 296.568,183.703 301.783,189.245 306.997,194.786 312.211,200.328 317.426,205.87 322.64,211.411 327.855,216.953 333.069,222.495 338.283,228.036 343.498,233.578 348.712,239.119 353.927,244.661 359.141,250.203 364.355,255.744 369.57,261.286 374.784,266.828 379.999,272.369 385.213,277.911 390.427,283.452 395.642,288.994 400.856,294.536 406.071,300.077 411.285,305.619 416.499,311.161 421.714,316.702 426.928,322.244 432.143,327.786 437.357,333.327 442.571,338.869 447.786,344.41 453,349.952 458.215,355.494 463.429,361.035 468.643,366.577 473.858,372.119 479.072,377.66 484.287,383.202 489.501,388.743 494.715,394.285 499.93,399.827 505.144,405.368 510.359,410.91 515.573,416.452 520.787,421.993 526.002,427.535 531.216,433.076 536.431,438.618 541.645,444.16 546.859,449.701 552.074,455.243 557.288,460.785 562.503,466.326 567.717,471.868 572.931,477.409 578.146,482.951 583.36,488.493 588.575,494.034 593.789,499.576 599.003,505.118 604.218,510.659 609.432,516.201 614.647,521.743 619.861,527.284 625.075,532.826 630.29,538.367 635.504,543.909 640.719,549.451 645.933,554.992 651.147,560.534 656.362,566.076 661.576,571.617 666.791,577.159 672.005,582.7 677.219,588.242 682.434,593.784 687.648,599.325 692.863,604.867 698.077,610.409 703.291,615.95 708.506,621.492 713.72,627.033 718.935,632.575 724.149,638.117 729.363,643.658 734.578,649.2 739.792,654.742 745.007,660.283 750.221,665.825 755.435,671.366 760.65,676.908 765.864,682.45 771.079,687.991 776.293,693.533 781.507,699.075 786.722,704.616 791.936,710.158 797.151,715.699 802.365,721.241 807.58,726.783 812.794,732.324 818.008,737.866 823.223,743.408 828.437,748.949 833.652,754.491 838.866,760.033 844.08,765.574 849.295,771.116 854.509,776.657 859.724,782.199 864.938,787.741 870.152,793.282 875.367,798.824 880.581,804.366 885.796,809.907 891.01,815.449 896.224,820.99 901.439,826.532 906.653,832.074 911.868,837.615 917.082,843.157 922.296,848.699 927.511,854.24 932.725,859.782 937.94,865.323 943.154,870.865 948.368,876.407 953.583,881.948 958.797,887.49 964.012,893.032 969.226,898.573 974.44,904.115 979.655,909.656 984.869,915.198 990.084,920.74 995.298,926.281 1000.51,931.823 1005.73,937.365 1010.94,942.906 1016.16,948.448 1021.37,953.99 1026.58,959.531 1031.8,965.073 1037.01,970.614 1042.23,976.156 1047.44,981.698 1052.66,987.239 1057.87,992.781 1063.09,998.323 1068.3,1003.86 1073.51,1009.41 1078.73,1014.95 1083.94,1020.49 1089.16,1026.03 1094.37,1031.57 1099.59,1037.11 1104.8,1042.66 1110.01,1048.2 1115.23,1053.74 1120.44,1059.28 1125.66,1064.82 1130.87,1070.36 1136.09,1075.91 1141.3,1081.45 1146.52,1086.99 1151.73,1092.53 1156.94,1098.07 1162.16,1103.61 1167.37,1109.16 1172.59,1114.7 1177.8,1120.24 1183.02,1125.78 1188.23,1131.32 1193.45,1136.86 1198.66,1142.4 1203.87,1147.95 1209.09,1153.49 1214.3,1159.03 1219.52,1164.57 1224.73,1170.11 1229.95,1175.65 1235.16,1181.2 1240.37,1186.74 1245.59,1192.28 1250.8,1197.82 1256.02,1203.36 1261.23,1208.9 1266.45,1214.45 1271.66,1219.99 1276.88,1225.53 1282.09,1231.07 "/>
<polyline clip-path="url(#clip952)" style="stroke:#008080; stroke-linecap:round; stroke-linejoin:round; stroke-width:8; stroke-opacity:1; fill:none" points="244.424,393.043 249.639,388.591 254.853,384.146 260.067,379.713 265.282,375.3 270.496,370.913 275.711,366.558 280.925,362.243 286.139,357.973 291.354,353.755 296.568,349.595 301.783,345.5 306.997,341.477 312.211,337.532 317.426,333.672 322.64,329.902 327.855,326.23 333.069,322.662 338.283,319.204 343.498,315.864 348.712,312.647 353.927,309.56 359.141,306.609 364.355,303.801 369.57,301.143 374.784,298.641 379.999,296.302 385.213,294.131 390.427,292.136 395.642,290.323 400.856,288.698 406.071,287.269 411.285,286.042 416.499,285.025 421.714,284.227 426.928,283.653 432.143,283.312 437.357,283.211 442.571,283.359 447.786,283.762 453,284.427 458.215,285.363 463.429,286.578 468.643,288.078 473.858,289.87 479.072,291.964 484.287,294.366 489.501,297.083 494.715,300.124 499.93,303.496 505.144,307.206 510.359,311.262 515.573,315.671 520.787,320.442 526.002,325.581 531.216,331.096 536.431,336.995 541.645,343.284 546.859,349.973 552.074,357.068 557.288,364.576 562.503,372.498 567.717,380.808 572.931,389.48 578.146,398.488 583.36,407.803 588.575,417.399 593.789,427.249 599.003,437.326 604.218,447.603 609.432,458.053 614.647,468.648 619.861,479.362 625.075,490.168 630.29,501.038 635.504,511.946 640.719,522.865 645.933,533.767 651.147,544.625 656.362,555.413 661.576,566.103 666.791,576.669 672.005,587.083 677.219,597.318 682.434,607.347 687.648,617.144 692.863,626.681 698.077,635.93 703.291,644.866 708.506,653.461 713.72,661.688 718.935,669.533 724.149,677.009 729.363,684.131 734.578,690.917 739.792,697.38 745.007,703.539 750.221,709.408 755.435,715.004 760.65,720.343 765.864,725.44 771.079,730.312 776.293,734.975 781.507,739.444 786.722,743.737 791.936,747.868 797.151,751.854 802.365,755.711 807.58,759.454 812.794,763.101 818.008,766.666 823.223,770.166 828.437,773.616 833.652,777.034 838.866,780.435 844.08,783.834 849.295,787.248 854.509,790.693 859.724,794.185 864.938,797.74 870.152,801.374 875.367,805.096 880.581,808.907 885.796,812.804 891.01,816.787 896.224,820.853 901.439,825.002 906.653,829.233 911.868,833.543 917.082,837.931 922.296,842.396 927.511,846.936 932.725,851.55 937.94,856.237 943.154,860.995 948.368,865.823 953.583,870.718 958.797,875.681 964.012,880.709 969.226,885.801 974.44,890.955 979.655,896.171 984.869,901.446 990.084,906.78 995.298,912.17 1000.51,917.616 1005.73,923.115 1010.94,928.667 1016.16,934.271 1021.37,939.924 1026.58,945.625 1031.8,951.372 1037.01,957.163 1042.23,962.994 1047.44,968.863 1052.66,974.767 1057.87,980.703 1063.09,986.667 1068.3,992.658 1073.51,998.673 1078.73,1004.71 1083.94,1010.76 1089.16,1016.83 1094.37,1022.91 1099.59,1028.99 1104.8,1035.09 1110.01,1041.19 1115.23,1047.28 1120.44,1053.38 1125.66,1059.47 1130.87,1065.55 1136.09,1071.62 1141.3,1077.68 1146.52,1083.72 1151.73,1089.74 1156.94,1095.73 1162.16,1101.71 1167.37,1107.65 1172.59,1113.56 1177.8,1119.44 1183.02,1125.28 1188.23,1131.09 1193.45,1136.86 1198.66,1142.59 1203.87,1148.29 1209.09,1153.95 1214.3,1159.58 1219.52,1165.19 1224.73,1170.76 1229.95,1176.31 1235.16,1181.83 1240.37,1187.33 1245.59,1192.8 1250.8,1198.25 1256.02,1203.68 1261.23,1209.09 1266.45,1214.48 1271.66,1219.85 1276.88,1225.21 1282.09,1230.55 "/>
<path clip-path="url(#clip950)" d="M1042.1 289.245 L1276.56 289.245 L1276.56 133.725 L1042.1 133.725  Z" fill="#ffffff" fill-rule="evenodd" fill-opacity="1"/>
<polyline clip-path="url(#clip950)" style="stroke:#000000; stroke-linecap:round; stroke-linejoin:round; stroke-width:4; stroke-opacity:1; fill:none" points="1042.1,289.245 1276.56,289.245 1276.56,133.725 1042.1,133.725 1042.1,289.245 "/>
<polyline clip-path="url(#clip950)" style="stroke:#000000; stroke-linecap:round; stroke-linejoin:round; stroke-width:8; stroke-opacity:1; fill:none" stroke-dasharray="32, 20" points="1054.32,185.565 1127.65,185.565 "/>
<path clip-path="url(#clip950)" d="M1139.87 168.285 L1169.1 168.285 L1169.1 172.22 L1156.83 172.22 L1156.83 202.845 L1152.14 202.845 L1152.14 172.22 L1139.87 172.22 L1139.87 168.285 Z" fill="#000000" fill-rule="nonzero" fill-opacity="1" /><path clip-path="url(#clip950)" d="M1181.49 180.901 Q1180.77 180.484 1179.91 180.299 Q1179.08 180.09 1178.06 180.09 Q1174.45 180.09 1172.51 182.452 Q1170.58 184.789 1170.58 189.188 L1170.58 202.845 L1166.3 202.845 L1166.3 176.919 L1170.58 176.919 L1170.58 180.947 Q1171.93 178.586 1174.08 177.452 Q1176.23 176.294 1179.31 176.294 Q1179.75 176.294 1180.28 176.364 Q1180.82 176.41 1181.46 176.526 L1181.49 180.901 Z" fill="#000000" fill-rule="nonzero" fill-opacity="1" /><path clip-path="url(#clip950)" d="M1185.52 192.613 L1185.52 176.919 L1189.77 176.919 L1189.77 192.451 Q1189.77 196.132 1191.21 197.984 Q1192.64 199.813 1195.52 199.813 Q1198.96 199.813 1200.96 197.613 Q1202.97 195.414 1202.97 191.618 L1202.97 176.919 L1207.23 176.919 L1207.23 202.845 L1202.97 202.845 L1202.97 198.863 Q1201.42 201.225 1199.36 202.382 Q1197.32 203.516 1194.61 203.516 Q1190.14 203.516 1187.83 200.738 Q1185.52 197.961 1185.52 192.613 M1196.23 176.294 L1196.23 176.294 Z" fill="#000000" fill-rule="nonzero" fill-opacity="1" /><path clip-path="url(#clip950)" d="M1238.18 188.817 L1238.18 190.901 L1218.59 190.901 Q1218.87 195.299 1221.23 197.613 Q1223.62 199.905 1227.85 199.905 Q1230.31 199.905 1232.6 199.303 Q1234.91 198.701 1237.18 197.498 L1237.18 201.525 Q1234.89 202.498 1232.48 203.007 Q1230.08 203.516 1227.6 203.516 Q1221.39 203.516 1217.76 199.905 Q1214.15 196.294 1214.15 190.137 Q1214.15 183.771 1217.58 180.044 Q1221.02 176.294 1226.86 176.294 Q1232.09 176.294 1235.12 179.674 Q1238.18 183.03 1238.18 188.817 M1233.92 187.567 Q1233.87 184.072 1231.95 181.989 Q1230.05 179.905 1226.9 179.905 Q1223.34 179.905 1221.19 181.919 Q1219.06 183.933 1218.73 187.59 L1233.92 187.567 Z" fill="#000000" fill-rule="nonzero" fill-opacity="1" /><polyline clip-path="url(#clip950)" style="stroke:#008080; stroke-linecap:round; stroke-linejoin:round; stroke-width:8; stroke-opacity:1; fill:none" points="1054.32,237.405 1127.65,237.405 "/>
<path clip-path="url(#clip950)" d="M1139.87 220.125 L1159.73 220.125 L1159.73 224.06 L1144.54 224.06 L1144.54 234.245 L1158.25 234.245 L1158.25 238.18 L1144.54 238.18 L1144.54 254.685 L1139.87 254.685 L1139.87 220.125 Z" fill="#000000" fill-rule="nonzero" fill-opacity="1" /><path clip-path="url(#clip950)" d="M1163.5 228.759 L1167.76 228.759 L1167.76 254.685 L1163.5 254.685 L1163.5 228.759 M1163.5 218.667 L1167.76 218.667 L1167.76 224.06 L1163.5 224.06 L1163.5 218.667 Z" fill="#000000" fill-rule="nonzero" fill-opacity="1" /><path clip-path="url(#clip950)" d="M1180.89 221.398 L1180.89 228.759 L1189.66 228.759 L1189.66 232.069 L1180.89 232.069 L1180.89 246.143 Q1180.89 249.315 1181.74 250.217 Q1182.62 251.12 1185.28 251.12 L1189.66 251.12 L1189.66 254.685 L1185.28 254.685 Q1180.35 254.685 1178.48 252.856 Q1176.6 251.004 1176.6 246.143 L1176.6 232.069 L1173.48 232.069 L1173.48 228.759 L1176.6 228.759 L1176.6 221.398 L1180.89 221.398 Z" fill="#000000" fill-rule="nonzero" fill-opacity="1" /><path clip-path="url(#clip950)" d="M1199.47 221.398 L1199.47 228.759 L1208.25 228.759 L1208.25 232.069 L1199.47 232.069 L1199.47 246.143 Q1199.47 249.315 1200.33 250.217 Q1201.21 251.12 1203.87 251.12 L1208.25 251.12 L1208.25 254.685 L1203.87 254.685 Q1198.94 254.685 1197.07 252.856 Q1195.19 251.004 1195.19 246.143 L1195.19 232.069 L1192.07 232.069 L1192.07 228.759 L1195.19 228.759 L1195.19 221.398 L1199.47 221.398 Z" fill="#000000" fill-rule="nonzero" fill-opacity="1" /><path clip-path="url(#clip950)" d="M1236.02 240.657 L1236.02 242.741 L1216.44 242.741 Q1216.72 247.139 1219.08 249.453 Q1221.46 251.745 1225.7 251.745 Q1228.15 251.745 1230.45 251.143 Q1232.76 250.541 1235.03 249.338 L1235.03 253.365 Q1232.74 254.338 1230.33 254.847 Q1227.92 255.356 1225.45 255.356 Q1219.24 255.356 1215.61 251.745 Q1212 248.134 1212 241.977 Q1212 235.611 1215.42 231.884 Q1218.87 228.134 1224.7 228.134 Q1229.94 228.134 1232.97 231.514 Q1236.02 234.87 1236.02 240.657 M1231.77 239.407 Q1231.72 235.912 1229.8 233.829 Q1227.9 231.745 1224.75 231.745 Q1221.19 231.745 1219.03 233.759 Q1216.9 235.773 1216.58 239.43 L1231.77 239.407 Z" fill="#000000" fill-rule="nonzero" fill-opacity="1" /><path clip-path="url(#clip950)" d="M1260.08 232.694 L1260.08 218.667 L1264.33 218.667 L1264.33 254.685 L1260.08 254.685 L1260.08 250.796 Q1258.73 253.111 1256.67 254.245 Q1254.64 255.356 1251.76 255.356 Q1247.07 255.356 1244.1 251.606 Q1241.16 247.856 1241.16 241.745 Q1241.16 235.634 1244.1 231.884 Q1247.07 228.134 1251.76 228.134 Q1254.64 228.134 1256.67 229.268 Q1258.73 230.379 1260.08 232.694 M1245.56 241.745 Q1245.56 246.444 1247.48 249.129 Q1249.43 251.791 1252.81 251.791 Q1256.19 251.791 1258.13 249.129 Q1260.08 246.444 1260.08 241.745 Q1260.08 237.046 1258.13 234.384 Q1256.19 231.699 1252.81 231.699 Q1249.43 231.699 1247.48 234.384 Q1245.56 237.046 1245.56 241.745 Z" fill="#000000" fill-rule="nonzero" fill-opacity="1" /><path clip-path="url(#clip950)" d="M1533.06 1264.17 L2632.99 1264.17 L2632.99 94.7441 L1533.06 94.7441  Z" fill="#ffffff" fill-rule="evenodd" fill-opacity="1"/>
<defs>
  <clipPath id="clip953">
    <rect x="1533" y="94" width="1101" height="1170"/>
  </clipPath>
</defs>
<polyline clip-path="url(#clip953)" style="stroke:#000000; stroke-linecap:round; stroke-linejoin:round; stroke-width:2; stroke-opacity:0.1; fill:none" points="1728.03,1264.17 1728.03,94.7441 "/>
<polyline clip-path="url(#clip953)" style="stroke:#000000; stroke-linecap:round; stroke-linejoin:round; stroke-width:2; stroke-opacity:0.1; fill:none" points="1946.49,1264.17 1946.49,94.7441 "/>
<polyline clip-path="url(#clip953)" style="stroke:#000000; stroke-linecap:round; stroke-linejoin:round; stroke-width:2; stroke-opacity:0.1; fill:none" points="2164.95,1264.17 2164.95,94.7441 "/>
<polyline clip-path="url(#clip953)" style="stroke:#000000; stroke-linecap:round; stroke-linejoin:round; stroke-width:2; stroke-opacity:0.1; fill:none" points="2383.4,1264.17 2383.4,94.7441 "/>
<polyline clip-path="url(#clip953)" style="stroke:#000000; stroke-linecap:round; stroke-linejoin:round; stroke-width:2; stroke-opacity:0.1; fill:none" points="2601.86,1264.17 2601.86,94.7441 "/>
<polyline clip-path="url(#clip953)" style="stroke:#000000; stroke-linecap:round; stroke-linejoin:round; stroke-width:2; stroke-opacity:0.1; fill:none" points="1533.06,1231.07 2632.99,1231.07 "/>
<polyline clip-path="url(#clip953)" style="stroke:#000000; stroke-linecap:round; stroke-linejoin:round; stroke-width:2; stroke-opacity:0.1; fill:none" points="1533.06,998.906 2632.99,998.906 "/>
<polyline clip-path="url(#clip953)" style="stroke:#000000; stroke-linecap:round; stroke-linejoin:round; stroke-width:2; stroke-opacity:0.1; fill:none" points="1533.06,766.741 2632.99,766.741 "/>
<polyline clip-path="url(#clip953)" style="stroke:#000000; stroke-linecap:round; stroke-linejoin:round; stroke-width:2; stroke-opacity:0.1; fill:none" points="1533.06,534.576 2632.99,534.576 "/>
<polyline clip-path="url(#clip953)" style="stroke:#000000; stroke-linecap:round; stroke-linejoin:round; stroke-width:2; stroke-opacity:0.1; fill:none" points="1533.06,302.411 2632.99,302.411 "/>
<polyline clip-path="url(#clip950)" style="stroke:#000000; stroke-linecap:round; stroke-linejoin:round; stroke-width:4; stroke-opacity:1; fill:none" points="1533.06,1264.17 2632.99,1264.17 "/>
<polyline clip-path="url(#clip950)" style="stroke:#000000; stroke-linecap:round; stroke-linejoin:round; stroke-width:4; stroke-opacity:1; fill:none" points="1728.03,1264.17 1728.03,1245.27 "/>
<polyline clip-path="url(#clip950)" style="stroke:#000000; stroke-linecap:round; stroke-linejoin:round; stroke-width:4; stroke-opacity:1; fill:none" points="1946.49,1264.17 1946.49,1245.27 "/>
<polyline clip-path="url(#clip950)" style="stroke:#000000; stroke-linecap:round; stroke-linejoin:round; stroke-width:4; stroke-opacity:1; fill:none" points="2164.95,1264.17 2164.95,1245.27 "/>
<polyline clip-path="url(#clip950)" style="stroke:#000000; stroke-linecap:round; stroke-linejoin:round; stroke-width:4; stroke-opacity:1; fill:none" points="2383.4,1264.17 2383.4,1245.27 "/>
<polyline clip-path="url(#clip950)" style="stroke:#000000; stroke-linecap:round; stroke-linejoin:round; stroke-width:4; stroke-opacity:1; fill:none" points="2601.86,1264.17 2601.86,1245.27 "/>
<path clip-path="url(#clip950)" d="M1722.69 1335.43 L1739.01 1335.43 L1739.01 1339.37 L1717.06 1339.37 L1717.06 1335.43 Q1719.72 1332.68 1724.31 1328.05 Q1728.91 1323.4 1730.09 1322.05 Q1732.34 1319.53 1733.22 1317.79 Q1734.12 1316.03 1734.12 1314.34 Q1734.12 1311.59 1732.18 1309.85 Q1730.26 1308.12 1727.15 1308.12 Q1724.96 1308.12 1722.5 1308.88 Q1720.07 1309.65 1717.29 1311.2 L1717.29 1306.47 Q1720.12 1305.34 1722.57 1304.76 Q1725.02 1304.18 1727.06 1304.18 Q1732.43 1304.18 1735.63 1306.87 Q1738.82 1309.55 1738.82 1314.04 Q1738.82 1316.17 1738.01 1318.09 Q1737.22 1319.99 1735.12 1322.59 Q1734.54 1323.26 1731.44 1326.47 Q1728.34 1329.67 1722.69 1335.43 Z" fill="#000000" fill-rule="nonzero" fill-opacity="1" /><path clip-path="url(#clip950)" d="M1949.5 1308.88 L1937.69 1327.33 L1949.5 1327.33 L1949.5 1308.88 M1948.27 1304.81 L1954.15 1304.81 L1954.15 1327.33 L1959.08 1327.33 L1959.08 1331.22 L1954.15 1331.22 L1954.15 1339.37 L1949.5 1339.37 L1949.5 1331.22 L1933.9 1331.22 L1933.9 1326.71 L1948.27 1304.81 Z" fill="#000000" fill-rule="nonzero" fill-opacity="1" /><path clip-path="url(#clip950)" d="M2165.35 1320.22 Q2162.2 1320.22 2160.35 1322.38 Q2158.52 1324.53 2158.52 1328.28 Q2158.52 1332.01 2160.35 1334.18 Q2162.2 1336.34 2165.35 1336.34 Q2168.5 1336.34 2170.33 1334.18 Q2172.18 1332.01 2172.18 1328.28 Q2172.18 1324.53 2170.33 1322.38 Q2168.5 1320.22 2165.35 1320.22 M2174.63 1305.57 L2174.63 1309.83 Q2172.87 1309 2171.07 1308.56 Q2169.29 1308.12 2167.53 1308.12 Q2162.9 1308.12 2160.44 1311.24 Q2158.01 1314.37 2157.67 1320.69 Q2159.03 1318.67 2161.09 1317.61 Q2163.15 1316.52 2165.63 1316.52 Q2170.84 1316.52 2173.85 1319.69 Q2176.88 1322.84 2176.88 1328.28 Q2176.88 1333.6 2173.73 1336.82 Q2170.58 1340.04 2165.35 1340.04 Q2159.36 1340.04 2156.18 1335.46 Q2153.01 1330.85 2153.01 1322.12 Q2153.01 1313.93 2156.9 1309.07 Q2160.79 1304.18 2167.34 1304.18 Q2169.1 1304.18 2170.88 1304.53 Q2172.69 1304.88 2174.63 1305.57 Z" fill="#000000" fill-rule="nonzero" fill-opacity="1" /><path clip-path="url(#clip950)" d="M2383.4 1322.96 Q2380.07 1322.96 2378.15 1324.74 Q2376.25 1326.52 2376.25 1329.65 Q2376.25 1332.77 2378.15 1334.55 Q2380.07 1336.34 2383.4 1336.34 Q2386.74 1336.34 2388.66 1334.55 Q2390.58 1332.75 2390.58 1329.65 Q2390.58 1326.52 2388.66 1324.74 Q2386.76 1322.96 2383.4 1322.96 M2378.73 1320.97 Q2375.72 1320.22 2374.03 1318.16 Q2372.36 1316.1 2372.36 1313.14 Q2372.36 1309 2375.3 1306.59 Q2378.26 1304.18 2383.4 1304.18 Q2388.56 1304.18 2391.5 1306.59 Q2394.44 1309 2394.44 1313.14 Q2394.44 1316.1 2392.75 1318.16 Q2391.09 1320.22 2388.1 1320.97 Q2391.48 1321.75 2393.36 1324.04 Q2395.25 1326.34 2395.25 1329.65 Q2395.25 1334.67 2392.18 1337.35 Q2389.12 1340.04 2383.4 1340.04 Q2377.68 1340.04 2374.61 1337.35 Q2371.55 1334.67 2371.55 1329.65 Q2371.55 1326.34 2373.45 1324.04 Q2375.35 1321.75 2378.73 1320.97 M2377.01 1313.58 Q2377.01 1316.27 2378.68 1317.77 Q2380.37 1319.28 2383.4 1319.28 Q2386.41 1319.28 2388.1 1317.77 Q2389.81 1316.27 2389.81 1313.58 Q2389.81 1310.9 2388.1 1309.39 Q2386.41 1307.89 2383.4 1307.89 Q2380.37 1307.89 2378.68 1309.39 Q2377.01 1310.9 2377.01 1313.58 Z" fill="#000000" fill-rule="nonzero" fill-opacity="1" /><path clip-path="url(#clip950)" d="M2576.55 1335.43 L2584.18 1335.43 L2584.18 1309.07 L2575.87 1310.73 L2575.87 1306.47 L2584.14 1304.81 L2588.81 1304.81 L2588.81 1335.43 L2596.45 1335.43 L2596.45 1339.37 L2576.55 1339.37 L2576.55 1335.43 Z" fill="#000000" fill-rule="nonzero" fill-opacity="1" /><path clip-path="url(#clip950)" d="M2615.9 1307.89 Q2612.29 1307.89 2610.46 1311.45 Q2608.65 1314.99 2608.65 1322.12 Q2608.65 1329.23 2610.46 1332.79 Q2612.29 1336.34 2615.9 1336.34 Q2619.53 1336.34 2621.34 1332.79 Q2623.17 1329.23 2623.17 1322.12 Q2623.17 1314.99 2621.34 1311.45 Q2619.53 1307.89 2615.9 1307.89 M2615.9 1304.18 Q2621.71 1304.18 2624.76 1308.79 Q2627.84 1313.37 2627.84 1322.12 Q2627.84 1330.85 2624.76 1335.46 Q2621.71 1340.04 2615.9 1340.04 Q2610.09 1340.04 2607.01 1335.46 Q2603.95 1330.85 2603.95 1322.12 Q2603.95 1313.37 2607.01 1308.79 Q2610.09 1304.18 2615.9 1304.18 Z" fill="#000000" fill-rule="nonzero" fill-opacity="1" /><path clip-path="url(#clip950)" d="M2065.04 1385.51 L2073.7 1385.51 L2094.77 1425.27 L2094.77 1385.51 L2101.01 1385.51 L2101.01 1433.03 L2092.35 1433.03 L2071.28 1393.28 L2071.28 1433.03 L2065.04 1433.03 L2065.04 1385.51 Z" fill="#000000" fill-rule="nonzero" fill-opacity="1" /><polyline clip-path="url(#clip950)" style="stroke:#000000; stroke-linecap:round; stroke-linejoin:round; stroke-width:4; stroke-opacity:1; fill:none" points="1533.06,1264.17 1533.06,94.7441 "/>
<polyline clip-path="url(#clip950)" style="stroke:#000000; stroke-linecap:round; stroke-linejoin:round; stroke-width:4; stroke-opacity:1; fill:none" points="1533.06,1231.07 1551.96,1231.07 "/>
<polyline clip-path="url(#clip950)" style="stroke:#000000; stroke-linecap:round; stroke-linejoin:round; stroke-width:4; stroke-opacity:1; fill:none" points="1533.06,998.906 1551.96,998.906 "/>
<polyline clip-path="url(#clip950)" style="stroke:#000000; stroke-linecap:round; stroke-linejoin:round; stroke-width:4; stroke-opacity:1; fill:none" points="1533.06,766.741 1551.96,766.741 "/>
<polyline clip-path="url(#clip950)" style="stroke:#000000; stroke-linecap:round; stroke-linejoin:round; stroke-width:4; stroke-opacity:1; fill:none" points="1533.06,534.576 1551.96,534.576 "/>
<polyline clip-path="url(#clip950)" style="stroke:#000000; stroke-linecap:round; stroke-linejoin:round; stroke-width:4; stroke-opacity:1; fill:none" points="1533.06,302.411 1551.96,302.411 "/>
<path clip-path="url(#clip950)" d="M1415.89 1216.87 Q1412.28 1216.87 1410.45 1220.43 Q1408.64 1223.98 1408.64 1231.11 Q1408.64 1238.21 1410.45 1241.78 Q1412.28 1245.32 1415.89 1245.32 Q1419.52 1245.32 1421.33 1241.78 Q1423.16 1238.21 1423.16 1231.11 Q1423.16 1223.98 1421.33 1220.43 Q1419.52 1216.87 1415.89 1216.87 M1415.89 1213.17 Q1421.7 1213.17 1424.75 1217.77 Q1427.83 1222.36 1427.83 1231.11 Q1427.83 1239.83 1424.75 1244.44 Q1421.7 1249.02 1415.89 1249.02 Q1410.08 1249.02 1407 1244.44 Q1403.94 1239.83 1403.94 1231.11 Q1403.94 1222.36 1407 1217.77 Q1410.08 1213.17 1415.89 1213.17 Z" fill="#000000" fill-rule="nonzero" fill-opacity="1" /><path clip-path="url(#clip950)" d="M1436.05 1242.47 L1440.93 1242.47 L1440.93 1248.35 L1436.05 1248.35 L1436.05 1242.47 Z" fill="#000000" fill-rule="nonzero" fill-opacity="1" /><path clip-path="url(#clip950)" d="M1461.12 1216.87 Q1457.51 1216.87 1455.68 1220.43 Q1453.87 1223.98 1453.87 1231.11 Q1453.87 1238.21 1455.68 1241.78 Q1457.51 1245.32 1461.12 1245.32 Q1464.75 1245.32 1466.56 1241.78 Q1468.39 1238.21 1468.39 1231.11 Q1468.39 1223.98 1466.56 1220.43 Q1464.75 1216.87 1461.12 1216.87 M1461.12 1213.17 Q1466.93 1213.17 1469.98 1217.77 Q1473.06 1222.36 1473.06 1231.11 Q1473.06 1239.83 1469.98 1244.44 Q1466.93 1249.02 1461.12 1249.02 Q1455.31 1249.02 1452.23 1244.44 Q1449.17 1239.83 1449.17 1231.11 Q1449.17 1222.36 1452.23 1217.77 Q1455.31 1213.17 1461.12 1213.17 Z" fill="#000000" fill-rule="nonzero" fill-opacity="1" /><path clip-path="url(#clip950)" d="M1417.11 984.705 Q1413.5 984.705 1411.67 988.269 Q1409.87 991.811 1409.87 998.941 Q1409.87 1006.05 1411.67 1009.61 Q1413.5 1013.15 1417.11 1013.15 Q1420.75 1013.15 1422.55 1009.61 Q1424.38 1006.05 1424.38 998.941 Q1424.38 991.811 1422.55 988.269 Q1420.75 984.705 1417.11 984.705 M1417.11 981.001 Q1422.92 981.001 1425.98 985.607 Q1429.06 990.191 1429.06 998.941 Q1429.06 1007.67 1425.98 1012.27 Q1422.92 1016.86 1417.11 1016.86 Q1411.3 1016.86 1408.22 1012.27 Q1405.17 1007.67 1405.17 998.941 Q1405.17 990.191 1408.22 985.607 Q1411.3 981.001 1417.11 981.001 Z" fill="#000000" fill-rule="nonzero" fill-opacity="1" /><path clip-path="url(#clip950)" d="M1437.28 1010.31 L1442.16 1010.31 L1442.16 1016.19 L1437.28 1016.19 L1437.28 1010.31 Z" fill="#000000" fill-rule="nonzero" fill-opacity="1" /><path clip-path="url(#clip950)" d="M1453.15 1012.25 L1460.79 1012.25 L1460.79 985.885 L1452.48 987.552 L1452.48 983.293 L1460.75 981.626 L1465.42 981.626 L1465.42 1012.25 L1473.06 1012.25 L1473.06 1016.19 L1453.15 1016.19 L1453.15 1012.25 Z" fill="#000000" fill-rule="nonzero" fill-opacity="1" /><path clip-path="url(#clip950)" d="M1417.48 752.539 Q1413.87 752.539 1412.04 756.104 Q1410.24 759.646 1410.24 766.776 Q1410.24 773.882 1412.04 777.447 Q1413.87 780.988 1417.48 780.988 Q1421.12 780.988 1422.92 777.447 Q1424.75 773.882 1424.75 766.776 Q1424.75 759.646 1422.92 756.104 Q1421.12 752.539 1417.48 752.539 M1417.48 748.836 Q1423.29 748.836 1426.35 753.442 Q1429.43 758.026 1429.43 766.776 Q1429.43 775.502 1426.35 780.109 Q1423.29 784.692 1417.48 784.692 Q1411.67 784.692 1408.6 780.109 Q1405.54 775.502 1405.54 766.776 Q1405.54 758.026 1408.6 753.442 Q1411.67 748.836 1417.48 748.836 Z" fill="#000000" fill-rule="nonzero" fill-opacity="1" /><path clip-path="url(#clip950)" d="M1437.65 778.141 L1442.53 778.141 L1442.53 784.021 L1437.65 784.021 L1437.65 778.141 Z" fill="#000000" fill-rule="nonzero" fill-opacity="1" /><path clip-path="url(#clip950)" d="M1456.74 780.086 L1473.06 780.086 L1473.06 784.021 L1451.12 784.021 L1451.12 780.086 Q1453.78 777.331 1458.36 772.701 Q1462.97 768.049 1464.15 766.706 Q1466.4 764.183 1467.28 762.447 Q1468.18 760.688 1468.18 758.998 Q1468.18 756.243 1466.23 754.507 Q1464.31 752.771 1461.21 752.771 Q1459.01 752.771 1456.56 753.535 Q1454.13 754.299 1451.35 755.85 L1451.35 751.127 Q1454.17 749.993 1456.63 749.415 Q1459.08 748.836 1461.12 748.836 Q1466.49 748.836 1469.68 751.521 Q1472.88 754.206 1472.88 758.697 Q1472.88 760.826 1472.07 762.748 Q1471.28 764.646 1469.17 767.238 Q1468.59 767.91 1465.49 771.127 Q1462.39 774.322 1456.74 780.086 Z" fill="#000000" fill-rule="nonzero" fill-opacity="1" /><path clip-path="url(#clip950)" d="M1416.53 520.374 Q1412.92 520.374 1411.09 523.939 Q1409.29 527.481 1409.29 534.61 Q1409.29 541.717 1411.09 545.282 Q1412.92 548.823 1416.53 548.823 Q1420.17 548.823 1421.97 545.282 Q1423.8 541.717 1423.8 534.61 Q1423.8 527.481 1421.97 523.939 Q1420.17 520.374 1416.53 520.374 M1416.53 516.671 Q1422.34 516.671 1425.4 521.277 Q1428.48 525.861 1428.48 534.61 Q1428.48 543.337 1425.4 547.944 Q1422.34 552.527 1416.53 552.527 Q1410.72 552.527 1407.65 547.944 Q1404.59 543.337 1404.59 534.61 Q1404.59 525.861 1407.65 521.277 Q1410.72 516.671 1416.53 516.671 Z" fill="#000000" fill-rule="nonzero" fill-opacity="1" /><path clip-path="url(#clip950)" d="M1436.7 545.976 L1441.58 545.976 L1441.58 551.856 L1436.7 551.856 L1436.7 545.976 Z" fill="#000000" fill-rule="nonzero" fill-opacity="1" /><path clip-path="url(#clip950)" d="M1465.93 533.222 Q1469.29 533.939 1471.16 536.208 Q1473.06 538.476 1473.06 541.81 Q1473.06 546.925 1469.54 549.726 Q1466.03 552.527 1459.54 552.527 Q1457.37 552.527 1455.05 552.087 Q1452.76 551.671 1450.31 550.814 L1450.31 546.3 Q1452.25 547.434 1454.57 548.013 Q1456.88 548.592 1459.4 548.592 Q1463.8 548.592 1466.09 546.856 Q1468.41 545.12 1468.41 541.81 Q1468.41 538.754 1466.26 537.041 Q1464.13 535.305 1460.31 535.305 L1456.28 535.305 L1456.28 531.462 L1460.49 531.462 Q1463.94 531.462 1465.77 530.097 Q1467.6 528.708 1467.6 526.115 Q1467.6 523.453 1465.7 522.041 Q1463.83 520.606 1460.31 520.606 Q1458.39 520.606 1456.19 521.023 Q1453.99 521.439 1451.35 522.319 L1451.35 518.152 Q1454.01 517.411 1456.33 517.041 Q1458.66 516.671 1460.72 516.671 Q1466.05 516.671 1469.15 519.101 Q1472.25 521.509 1472.25 525.629 Q1472.25 528.499 1470.61 530.49 Q1468.97 532.458 1465.93 533.222 Z" fill="#000000" fill-rule="nonzero" fill-opacity="1" /><path clip-path="url(#clip950)" d="M1415.4 288.209 Q1411.79 288.209 1409.96 291.774 Q1408.16 295.316 1408.16 302.445 Q1408.16 309.552 1409.96 313.117 Q1411.79 316.658 1415.4 316.658 Q1419.03 316.658 1420.84 313.117 Q1422.67 309.552 1422.67 302.445 Q1422.67 295.316 1420.84 291.774 Q1419.03 288.209 1415.4 288.209 M1415.4 284.506 Q1421.21 284.506 1424.27 289.112 Q1427.34 293.695 1427.34 302.445 Q1427.34 311.172 1424.27 315.779 Q1421.21 320.362 1415.4 320.362 Q1409.59 320.362 1406.51 315.779 Q1403.46 311.172 1403.46 302.445 Q1403.46 293.695 1406.51 289.112 Q1409.59 284.506 1415.4 284.506 Z" fill="#000000" fill-rule="nonzero" fill-opacity="1" /><path clip-path="url(#clip950)" d="M1435.56 313.811 L1440.45 313.811 L1440.45 319.691 L1435.56 319.691 L1435.56 313.811 Z" fill="#000000" fill-rule="nonzero" fill-opacity="1" /><path clip-path="url(#clip950)" d="M1463.48 289.205 L1451.67 307.654 L1463.48 307.654 L1463.48 289.205 M1462.25 285.131 L1468.13 285.131 L1468.13 307.654 L1473.06 307.654 L1473.06 311.543 L1468.13 311.543 L1468.13 319.691 L1463.48 319.691 L1463.48 311.543 L1447.88 311.543 L1447.88 307.029 L1462.25 285.131 Z" fill="#000000" fill-rule="nonzero" fill-opacity="1" /><path clip-path="url(#clip950)" d="M1975.98 12.096 L1984.16 12.096 L1984.16 65.6895 L2013.61 65.6895 L2013.61 72.576 L1975.98 72.576 L1975.98 12.096 Z" fill="#000000" fill-rule="nonzero" fill-opacity="1" /><path clip-path="url(#clip950)" d="M2044.32 20.1573 L2033.22 50.2555 L2055.46 50.2555 L2044.32 20.1573 M2039.7 12.096 L2048.98 12.096 L2072.03 72.576 L2063.52 72.576 L2058.01 57.061 L2030.75 57.061 L2025.24 72.576 L2016.61 72.576 L2039.7 12.096 Z" fill="#000000" fill-rule="nonzero" fill-opacity="1" /><path clip-path="url(#clip950)" d="M2080.86 12.096 L2093.05 12.096 L2108.49 53.2532 L2124 12.096 L2136.19 12.096 L2136.19 72.576 L2128.21 72.576 L2128.21 19.4686 L2112.62 60.9499 L2104.39 60.9499 L2088.8 19.4686 L2088.8 72.576 L2080.86 72.576 L2080.86 12.096 Z" fill="#000000" fill-rule="nonzero" fill-opacity="1" /><path clip-path="url(#clip950)" d="M2152.44 12.096 L2160.62 12.096 L2160.62 65.6895 L2190.07 65.6895 L2190.07 72.576 L2152.44 72.576 L2152.44 12.096 Z" fill="#000000" fill-rule="nonzero" fill-opacity="1" /><polyline clip-path="url(#clip953)" style="stroke:#000000; stroke-linecap:round; stroke-linejoin:round; stroke-width:8; stroke-opacity:1; fill:none" stroke-dasharray="32, 20" points="1564.19,128.287 1569.41,133.829 1574.62,139.37 1579.84,144.912 1585.05,150.453 1590.26,155.995 1595.48,161.537 1600.69,167.078 1605.91,172.62 1611.12,178.162 1616.34,183.703 1621.55,189.245 1626.77,194.786 1631.98,200.328 1637.19,205.87 1642.41,211.411 1647.62,216.953 1652.84,222.495 1658.05,228.036 1663.27,233.578 1668.48,239.119 1673.69,244.661 1678.91,250.203 1684.12,255.744 1689.34,261.286 1694.55,266.828 1699.77,272.369 1704.98,277.911 1710.2,283.452 1715.41,288.994 1720.62,294.536 1725.84,300.077 1731.05,305.619 1736.27,311.161 1741.48,316.702 1746.7,322.244 1751.91,327.786 1757.13,333.327 1762.34,338.869 1767.55,344.41 1772.77,349.952 1777.98,355.494 1783.2,361.035 1788.41,366.577 1793.63,372.119 1798.84,377.66 1804.05,383.202 1809.27,388.743 1814.48,394.285 1819.7,399.827 1824.91,405.368 1830.13,410.91 1835.34,416.452 1840.56,421.993 1845.77,427.535 1850.98,433.076 1856.2,438.618 1861.41,444.16 1866.63,449.701 1871.84,455.243 1877.06,460.785 1882.27,466.326 1887.49,471.868 1892.7,477.409 1897.91,482.951 1903.13,488.493 1908.34,494.034 1913.56,499.576 1918.77,505.118 1923.99,510.659 1929.2,516.201 1934.41,521.743 1939.63,527.284 1944.84,532.826 1950.06,538.367 1955.27,543.909 1960.49,549.451 1965.7,554.992 1970.92,560.534 1976.13,566.076 1981.34,571.617 1986.56,577.159 1991.77,582.7 1996.99,588.242 2002.2,593.784 2007.42,599.325 2012.63,604.867 2017.85,610.409 2023.06,615.95 2028.27,621.492 2033.49,627.033 2038.7,632.575 2043.92,638.117 2049.13,643.658 2054.35,649.2 2059.56,654.742 2064.77,660.283 2069.99,665.825 2075.2,671.366 2080.42,676.908 2085.63,682.45 2090.85,687.991 2096.06,693.533 2101.28,699.075 2106.49,704.616 2111.7,710.158 2116.92,715.699 2122.13,721.241 2127.35,726.783 2132.56,732.324 2137.78,737.866 2142.99,743.408 2148.21,748.949 2153.42,754.491 2158.63,760.033 2163.85,765.574 2169.06,771.116 2174.28,776.657 2179.49,782.199 2184.71,787.741 2189.92,793.282 2195.13,798.824 2200.35,804.366 2205.56,809.907 2210.78,815.449 2215.99,820.99 2221.21,826.532 2226.42,832.074 2231.64,837.615 2236.85,843.157 2242.06,848.699 2247.28,854.24 2252.49,859.782 2257.71,865.323 2262.92,870.865 2268.14,876.407 2273.35,881.948 2278.57,887.49 2283.78,893.032 2288.99,898.573 2294.21,904.115 2299.42,909.656 2304.64,915.198 2309.85,920.74 2315.07,926.281 2320.28,931.823 2325.49,937.365 2330.71,942.906 2335.92,948.448 2341.14,953.99 2346.35,959.531 2351.57,965.073 2356.78,970.614 2362,976.156 2367.21,981.698 2372.42,987.239 2377.64,992.781 2382.85,998.323 2388.07,1003.86 2393.28,1009.41 2398.5,1014.95 2403.71,1020.49 2408.93,1026.03 2414.14,1031.57 2419.35,1037.11 2424.57,1042.66 2429.78,1048.2 2435,1053.74 2440.21,1059.28 2445.43,1064.82 2450.64,1070.36 2455.85,1075.91 2461.07,1081.45 2466.28,1086.99 2471.5,1092.53 2476.71,1098.07 2481.93,1103.61 2487.14,1109.16 2492.36,1114.7 2497.57,1120.24 2502.78,1125.78 2508,1131.32 2513.21,1136.86 2518.43,1142.4 2523.64,1147.95 2528.86,1153.49 2534.07,1159.03 2539.29,1164.57 2544.5,1170.11 2549.71,1175.65 2554.93,1181.2 2560.14,1186.74 2565.36,1192.28 2570.57,1197.82 2575.79,1203.36 2581,1208.9 2586.21,1214.45 2591.43,1219.99 2596.64,1225.53 2601.86,1231.07 "/>
<polyline clip-path="url(#clip953)" style="stroke:#ff7f50; stroke-linecap:round; stroke-linejoin:round; stroke-width:8; stroke-opacity:1; fill:none" points="1564.19,127.841 1569.41,133.373 1574.62,138.905 1579.84,144.438 1585.05,149.97 1590.26,155.502 1595.48,161.034 1600.69,166.567 1605.91,172.099 1611.12,177.631 1616.34,183.163 1621.55,188.695 1626.77,194.228 1631.98,199.76 1637.19,205.292 1642.41,210.824 1647.62,216.357 1652.84,221.889 1658.05,227.421 1663.27,232.954 1668.48,238.486 1673.69,244.018 1678.91,249.551 1684.12,255.083 1689.34,260.615 1694.55,266.148 1699.77,271.68 1704.98,277.213 1710.2,282.745 1715.41,288.277 1720.62,293.81 1725.84,299.342 1731.05,304.875 1736.27,310.407 1741.48,315.94 1746.7,321.472 1751.91,327.005 1757.13,332.538 1762.34,338.07 1767.55,343.603 1772.77,349.136 1777.98,354.669 1783.2,360.201 1788.41,365.734 1793.63,371.267 1798.84,376.8 1804.05,382.333 1809.27,387.866 1814.48,393.399 1819.7,398.932 1824.91,404.465 1830.13,409.999 1835.34,415.532 1840.56,421.065 1845.77,426.599 1850.98,432.132 1856.2,437.666 1861.41,443.199 1866.63,448.733 1871.84,454.267 1877.06,459.801 1882.27,465.335 1887.49,470.869 1892.7,476.403 1897.91,481.937 1903.13,487.471 1908.34,493.005 1913.56,498.54 1918.77,504.074 1923.99,509.609 1929.2,515.143 1934.41,520.678 1939.63,526.212 1944.84,531.747 1950.06,537.282 1955.27,542.817 1960.49,548.352 1965.7,553.887 1970.92,559.422 1976.13,564.958 1981.34,570.493 1986.56,576.028 1991.77,581.564 1996.99,587.099 2002.2,592.635 2007.42,598.171 2012.63,603.707 2017.85,609.242 2023.06,614.778 2028.27,620.314 2033.49,625.85 2038.7,631.387 2043.92,636.923 2049.13,642.459 2054.35,647.995 2059.56,653.532 2064.77,659.068 2069.99,664.605 2075.2,670.142 2080.42,675.678 2085.63,681.215 2090.85,686.752 2096.06,692.289 2101.28,697.826 2106.49,703.363 2111.7,708.901 2116.92,714.438 2122.13,719.975 2127.35,725.513 2132.56,731.05 2137.78,736.588 2142.99,742.126 2148.21,747.664 2153.42,753.202 2158.63,758.74 2163.85,764.278 2169.06,769.816 2174.28,775.354 2179.49,780.892 2184.71,786.431 2189.92,791.969 2195.13,797.508 2200.35,803.047 2205.56,808.586 2210.78,814.124 2215.99,819.663 2221.21,825.202 2226.42,830.742 2231.64,836.281 2236.85,841.82 2242.06,847.36 2247.28,852.899 2252.49,858.439 2257.71,863.979 2262.92,869.519 2268.14,875.059 2273.35,880.599 2278.57,886.139 2283.78,891.679 2288.99,897.22 2294.21,902.76 2299.42,908.301 2304.64,913.842 2309.85,919.383 2315.07,924.924 2320.28,930.465 2325.49,936.006 2330.71,941.548 2335.92,947.089 2341.14,952.631 2346.35,958.172 2351.57,963.714 2356.78,969.256 2362,974.799 2367.21,980.341 2372.42,985.883 2377.64,991.426 2382.85,996.968 2388.07,1002.51 2393.28,1008.05 2398.5,1013.6 2403.71,1019.14 2408.93,1024.68 2414.14,1030.23 2419.35,1035.77 2424.57,1041.31 2429.78,1046.86 2435,1052.4 2440.21,1057.94 2445.43,1063.49 2450.64,1069.03 2455.85,1074.58 2461.07,1080.12 2466.28,1085.66 2471.5,1091.21 2476.71,1096.75 2481.93,1102.3 2487.14,1107.84 2492.36,1113.38 2497.57,1118.93 2502.78,1124.47 2508,1130.02 2513.21,1135.56 2518.43,1141.11 2523.64,1146.65 2528.86,1152.2 2534.07,1157.74 2539.29,1163.29 2544.5,1168.83 2549.71,1174.38 2554.93,1179.92 2560.14,1185.47 2565.36,1191.01 2570.57,1196.56 2575.79,1202.1 2581,1207.65 2586.21,1213.19 2591.43,1218.74 2596.64,1224.28 2601.86,1229.83 "/>
<path clip-path="url(#clip950)" d="M2361.86 289.245 L2596.32 289.245 L2596.32 133.725 L2361.86 133.725  Z" fill="#ffffff" fill-rule="evenodd" fill-opacity="1"/>
<polyline clip-path="url(#clip950)" style="stroke:#000000; stroke-linecap:round; stroke-linejoin:round; stroke-width:4; stroke-opacity:1; fill:none" points="2361.86,289.245 2596.32,289.245 2596.32,133.725 2361.86,133.725 2361.86,289.245 "/>
<polyline clip-path="url(#clip950)" style="stroke:#000000; stroke-linecap:round; stroke-linejoin:round; stroke-width:8; stroke-opacity:1; fill:none" stroke-dasharray="32, 20" points="2374.09,185.565 2447.41,185.565 "/>
<path clip-path="url(#clip950)" d="M2459.64 168.285 L2488.87 168.285 L2488.87 172.22 L2476.6 172.22 L2476.6 202.845 L2471.9 202.845 L2471.9 172.22 L2459.64 172.22 L2459.64 168.285 Z" fill="#000000" fill-rule="nonzero" fill-opacity="1" /><path clip-path="url(#clip950)" d="M2501.26 180.901 Q2500.54 180.484 2499.68 180.299 Q2498.85 180.09 2497.83 180.09 Q2494.22 180.09 2492.27 182.452 Q2490.35 184.789 2490.35 189.188 L2490.35 202.845 L2486.07 202.845 L2486.07 176.919 L2490.35 176.919 L2490.35 180.947 Q2491.7 178.586 2493.85 177.452 Q2496 176.294 2499.08 176.294 Q2499.52 176.294 2500.05 176.364 Q2500.58 176.41 2501.23 176.526 L2501.26 180.901 Z" fill="#000000" fill-rule="nonzero" fill-opacity="1" /><path clip-path="url(#clip950)" d="M2505.28 192.613 L2505.28 176.919 L2509.54 176.919 L2509.54 192.451 Q2509.54 196.132 2510.98 197.984 Q2512.41 199.813 2515.28 199.813 Q2518.73 199.813 2520.72 197.613 Q2522.74 195.414 2522.74 191.618 L2522.74 176.919 L2527 176.919 L2527 202.845 L2522.74 202.845 L2522.74 198.863 Q2521.19 201.225 2519.13 202.382 Q2517.09 203.516 2514.38 203.516 Q2509.91 203.516 2507.6 200.738 Q2505.28 197.961 2505.28 192.613 M2516 176.294 L2516 176.294 Z" fill="#000000" fill-rule="nonzero" fill-opacity="1" /><path clip-path="url(#clip950)" d="M2557.95 188.817 L2557.95 190.901 L2538.36 190.901 Q2538.64 195.299 2541 197.613 Q2543.38 199.905 2547.62 199.905 Q2550.07 199.905 2552.37 199.303 Q2554.68 198.701 2556.95 197.498 L2556.95 201.525 Q2554.66 202.498 2552.25 203.007 Q2549.84 203.516 2547.37 203.516 Q2541.16 203.516 2537.53 199.905 Q2533.92 196.294 2533.92 190.137 Q2533.92 183.771 2537.34 180.044 Q2540.79 176.294 2546.63 176.294 Q2551.86 176.294 2554.89 179.674 Q2557.95 183.03 2557.95 188.817 M2553.69 187.567 Q2553.64 184.072 2551.72 181.989 Q2549.82 179.905 2546.67 179.905 Q2543.11 179.905 2540.95 181.919 Q2538.82 183.933 2538.5 187.59 L2553.69 187.567 Z" fill="#000000" fill-rule="nonzero" fill-opacity="1" /><polyline clip-path="url(#clip950)" style="stroke:#ff7f50; stroke-linecap:round; stroke-linejoin:round; stroke-width:8; stroke-opacity:1; fill:none" points="2374.09,237.405 2447.41,237.405 "/>
<path clip-path="url(#clip950)" d="M2459.64 220.125 L2479.5 220.125 L2479.5 224.06 L2464.31 224.06 L2464.31 234.245 L2478.01 234.245 L2478.01 238.18 L2464.31 238.18 L2464.31 254.685 L2459.64 254.685 L2459.64 220.125 Z" fill="#000000" fill-rule="nonzero" fill-opacity="1" /><path clip-path="url(#clip950)" d="M2483.27 228.759 L2487.53 228.759 L2487.53 254.685 L2483.27 254.685 L2483.27 228.759 M2483.27 218.667 L2487.53 218.667 L2487.53 224.06 L2483.27 224.06 L2483.27 218.667 Z" fill="#000000" fill-rule="nonzero" fill-opacity="1" /><path clip-path="url(#clip950)" d="M2500.65 221.398 L2500.65 228.759 L2509.43 228.759 L2509.43 232.069 L2500.65 232.069 L2500.65 246.143 Q2500.65 249.315 2501.51 250.217 Q2502.39 251.12 2505.05 251.12 L2509.43 251.12 L2509.43 254.685 L2505.05 254.685 Q2500.12 254.685 2498.25 252.856 Q2496.37 251.004 2496.37 246.143 L2496.37 232.069 L2493.25 232.069 L2493.25 228.759 L2496.37 228.759 L2496.37 221.398 L2500.65 221.398 Z" fill="#000000" fill-rule="nonzero" fill-opacity="1" /><path clip-path="url(#clip950)" d="M2519.24 221.398 L2519.24 228.759 L2528.01 228.759 L2528.01 232.069 L2519.24 232.069 L2519.24 246.143 Q2519.24 249.315 2520.1 250.217 Q2520.98 251.12 2523.64 251.12 L2528.01 251.12 L2528.01 254.685 L2523.64 254.685 Q2518.71 254.685 2516.83 252.856 Q2514.96 251.004 2514.96 246.143 L2514.96 232.069 L2511.83 232.069 L2511.83 228.759 L2514.96 228.759 L2514.96 221.398 L2519.24 221.398 Z" fill="#000000" fill-rule="nonzero" fill-opacity="1" /><path clip-path="url(#clip950)" d="M2555.79 240.657 L2555.79 242.741 L2536.21 242.741 Q2536.49 247.139 2538.85 249.453 Q2541.23 251.745 2545.47 251.745 Q2547.92 251.745 2550.21 251.143 Q2552.53 250.541 2554.8 249.338 L2554.8 253.365 Q2552.51 254.338 2550.1 254.847 Q2547.69 255.356 2545.21 255.356 Q2539.01 255.356 2535.38 251.745 Q2531.76 248.134 2531.76 241.977 Q2531.76 235.611 2535.19 231.884 Q2538.64 228.134 2544.47 228.134 Q2549.7 228.134 2552.74 231.514 Q2555.79 234.87 2555.79 240.657 M2551.53 239.407 Q2551.49 235.912 2549.57 233.829 Q2547.67 231.745 2544.52 231.745 Q2540.95 231.745 2538.8 233.759 Q2536.67 235.773 2536.35 239.43 L2551.53 239.407 Z" fill="#000000" fill-rule="nonzero" fill-opacity="1" /><path clip-path="url(#clip950)" d="M2579.84 232.694 L2579.84 218.667 L2584.1 218.667 L2584.1 254.685 L2579.84 254.685 L2579.84 250.796 Q2578.5 253.111 2576.44 254.245 Q2574.4 255.356 2571.53 255.356 Q2566.83 255.356 2563.87 251.606 Q2560.93 247.856 2560.93 241.745 Q2560.93 235.634 2563.87 231.884 Q2566.83 228.134 2571.53 228.134 Q2574.4 228.134 2576.44 229.268 Q2578.5 230.379 2579.84 232.694 M2565.33 241.745 Q2565.33 246.444 2567.25 249.129 Q2569.2 251.791 2572.57 251.791 Q2575.95 251.791 2577.9 249.129 Q2579.84 246.444 2579.84 241.745 Q2579.84 237.046 2577.9 234.384 Q2575.95 231.699 2572.57 231.699 Q2569.2 231.699 2567.25 234.384 Q2565.33 237.046 2565.33 241.745 Z" fill="#000000" fill-rule="nonzero" fill-opacity="1" /><path clip-path="url(#clip950)" d="M2852.83 1264.17 L3952.76 1264.17 L3952.76 94.7441 L2852.83 94.7441  Z" fill="#ffffff" fill-rule="evenodd" fill-opacity="1"/>
<polyline clip-path="url(#clip951)" style="stroke:#000000; stroke-linecap:round; stroke-linejoin:round; stroke-width:2; stroke-opacity:0.1; fill:none" points="3047.8,1264.17 3047.8,94.7441 "/>
<polyline clip-path="url(#clip951)" style="stroke:#000000; stroke-linecap:round; stroke-linejoin:round; stroke-width:2; stroke-opacity:0.1; fill:none" points="3266.26,1264.17 3266.26,94.7441 "/>
<polyline clip-path="url(#clip951)" style="stroke:#000000; stroke-linecap:round; stroke-linejoin:round; stroke-width:2; stroke-opacity:0.1; fill:none" points="3484.71,1264.17 3484.71,94.7441 "/>
<polyline clip-path="url(#clip951)" style="stroke:#000000; stroke-linecap:round; stroke-linejoin:round; stroke-width:2; stroke-opacity:0.1; fill:none" points="3703.17,1264.17 3703.17,94.7441 "/>
<polyline clip-path="url(#clip951)" style="stroke:#000000; stroke-linecap:round; stroke-linejoin:round; stroke-width:2; stroke-opacity:0.1; fill:none" points="3921.63,1264.17 3921.63,94.7441 "/>
<polyline clip-path="url(#clip951)" style="stroke:#000000; stroke-linecap:round; stroke-linejoin:round; stroke-width:2; stroke-opacity:0.1; fill:none" points="2852.83,1231.07 3952.76,1231.07 "/>
<polyline clip-path="url(#clip951)" style="stroke:#000000; stroke-linecap:round; stroke-linejoin:round; stroke-width:2; stroke-opacity:0.1; fill:none" points="2852.83,998.906 3952.76,998.906 "/>
<polyline clip-path="url(#clip951)" style="stroke:#000000; stroke-linecap:round; stroke-linejoin:round; stroke-width:2; stroke-opacity:0.1; fill:none" points="2852.83,766.741 3952.76,766.741 "/>
<polyline clip-path="url(#clip951)" style="stroke:#000000; stroke-linecap:round; stroke-linejoin:round; stroke-width:2; stroke-opacity:0.1; fill:none" points="2852.83,534.576 3952.76,534.576 "/>
<polyline clip-path="url(#clip951)" style="stroke:#000000; stroke-linecap:round; stroke-linejoin:round; stroke-width:2; stroke-opacity:0.1; fill:none" points="2852.83,302.411 3952.76,302.411 "/>
<polyline clip-path="url(#clip950)" style="stroke:#000000; stroke-linecap:round; stroke-linejoin:round; stroke-width:4; stroke-opacity:1; fill:none" points="2852.83,1264.17 3952.76,1264.17 "/>
<polyline clip-path="url(#clip950)" style="stroke:#000000; stroke-linecap:round; stroke-linejoin:round; stroke-width:4; stroke-opacity:1; fill:none" points="3047.8,1264.17 3047.8,1245.27 "/>
<polyline clip-path="url(#clip950)" style="stroke:#000000; stroke-linecap:round; stroke-linejoin:round; stroke-width:4; stroke-opacity:1; fill:none" points="3266.26,1264.17 3266.26,1245.27 "/>
<polyline clip-path="url(#clip950)" style="stroke:#000000; stroke-linecap:round; stroke-linejoin:round; stroke-width:4; stroke-opacity:1; fill:none" points="3484.71,1264.17 3484.71,1245.27 "/>
<polyline clip-path="url(#clip950)" style="stroke:#000000; stroke-linecap:round; stroke-linejoin:round; stroke-width:4; stroke-opacity:1; fill:none" points="3703.17,1264.17 3703.17,1245.27 "/>
<polyline clip-path="url(#clip950)" style="stroke:#000000; stroke-linecap:round; stroke-linejoin:round; stroke-width:4; stroke-opacity:1; fill:none" points="3921.63,1264.17 3921.63,1245.27 "/>
<path clip-path="url(#clip950)" d="M3042.45 1335.43 L3058.77 1335.43 L3058.77 1339.37 L3036.83 1339.37 L3036.83 1335.43 Q3039.49 1332.68 3044.08 1328.05 Q3048.68 1323.4 3049.86 1322.05 Q3052.11 1319.53 3052.99 1317.79 Q3053.89 1316.03 3053.89 1314.34 Q3053.89 1311.59 3051.95 1309.85 Q3050.02 1308.12 3046.92 1308.12 Q3044.72 1308.12 3042.27 1308.88 Q3039.84 1309.65 3037.06 1311.2 L3037.06 1306.47 Q3039.89 1305.34 3042.34 1304.76 Q3044.79 1304.18 3046.83 1304.18 Q3052.2 1304.18 3055.39 1306.87 Q3058.59 1309.55 3058.59 1314.04 Q3058.59 1316.17 3057.78 1318.09 Q3056.99 1319.99 3054.89 1322.59 Q3054.31 1323.26 3051.2 1326.47 Q3048.1 1329.67 3042.45 1335.43 Z" fill="#000000" fill-rule="nonzero" fill-opacity="1" /><path clip-path="url(#clip950)" d="M3269.27 1308.88 L3257.46 1327.33 L3269.27 1327.33 L3269.27 1308.88 M3268.04 1304.81 L3273.92 1304.81 L3273.92 1327.33 L3278.85 1327.33 L3278.85 1331.22 L3273.92 1331.22 L3273.92 1339.37 L3269.27 1339.37 L3269.27 1331.22 L3253.67 1331.22 L3253.67 1326.71 L3268.04 1304.81 Z" fill="#000000" fill-rule="nonzero" fill-opacity="1" /><path clip-path="url(#clip950)" d="M3485.12 1320.22 Q3481.97 1320.22 3480.12 1322.38 Q3478.29 1324.53 3478.29 1328.28 Q3478.29 1332.01 3480.12 1334.18 Q3481.97 1336.34 3485.12 1336.34 Q3488.27 1336.34 3490.1 1334.18 Q3491.95 1332.01 3491.95 1328.28 Q3491.95 1324.53 3490.1 1322.38 Q3488.27 1320.22 3485.12 1320.22 M3494.4 1305.57 L3494.4 1309.83 Q3492.64 1309 3490.84 1308.56 Q3489.05 1308.12 3487.3 1308.12 Q3482.67 1308.12 3480.21 1311.24 Q3477.78 1314.37 3477.43 1320.69 Q3478.8 1318.67 3480.86 1317.61 Q3482.92 1316.52 3485.4 1316.52 Q3490.61 1316.52 3493.61 1319.69 Q3496.65 1322.84 3496.65 1328.28 Q3496.65 1333.6 3493.5 1336.82 Q3490.35 1340.04 3485.12 1340.04 Q3479.12 1340.04 3475.95 1335.46 Q3472.78 1330.85 3472.78 1322.12 Q3472.78 1313.93 3476.67 1309.07 Q3480.56 1304.18 3487.11 1304.18 Q3488.87 1304.18 3490.65 1304.53 Q3492.46 1304.88 3494.4 1305.57 Z" fill="#000000" fill-rule="nonzero" fill-opacity="1" /><path clip-path="url(#clip950)" d="M3703.17 1322.96 Q3699.84 1322.96 3697.92 1324.74 Q3696.02 1326.52 3696.02 1329.65 Q3696.02 1332.77 3697.92 1334.55 Q3699.84 1336.34 3703.17 1336.34 Q3706.5 1336.34 3708.42 1334.55 Q3710.35 1332.75 3710.35 1329.65 Q3710.35 1326.52 3708.42 1324.74 Q3706.53 1322.96 3703.17 1322.96 M3698.49 1320.97 Q3695.48 1320.22 3693.8 1318.16 Q3692.13 1316.1 3692.13 1313.14 Q3692.13 1309 3695.07 1306.59 Q3698.03 1304.18 3703.17 1304.18 Q3708.33 1304.18 3711.27 1306.59 Q3714.21 1309 3714.21 1313.14 Q3714.21 1316.1 3712.52 1318.16 Q3710.86 1320.22 3707.87 1320.97 Q3711.25 1321.75 3713.12 1324.04 Q3715.02 1326.34 3715.02 1329.65 Q3715.02 1334.67 3711.94 1337.35 Q3708.89 1340.04 3703.17 1340.04 Q3697.45 1340.04 3694.37 1337.35 Q3691.32 1334.67 3691.32 1329.65 Q3691.32 1326.34 3693.22 1324.04 Q3695.11 1321.75 3698.49 1320.97 M3696.78 1313.58 Q3696.78 1316.27 3698.45 1317.77 Q3700.14 1319.28 3703.17 1319.28 Q3706.18 1319.28 3707.87 1317.77 Q3709.58 1316.27 3709.58 1313.58 Q3709.58 1310.9 3707.87 1309.39 Q3706.18 1307.89 3703.17 1307.89 Q3700.14 1307.89 3698.45 1309.39 Q3696.78 1310.9 3696.78 1313.58 Z" fill="#000000" fill-rule="nonzero" fill-opacity="1" /><path clip-path="url(#clip950)" d="M3896.31 1335.43 L3903.95 1335.43 L3903.95 1309.07 L3895.64 1310.73 L3895.64 1306.47 L3903.91 1304.81 L3908.58 1304.81 L3908.58 1335.43 L3916.22 1335.43 L3916.22 1339.37 L3896.31 1339.37 L3896.31 1335.43 Z" fill="#000000" fill-rule="nonzero" fill-opacity="1" /><path clip-path="url(#clip950)" d="M3935.67 1307.89 Q3932.05 1307.89 3930.23 1311.45 Q3928.42 1314.99 3928.42 1322.12 Q3928.42 1329.23 3930.23 1332.79 Q3932.05 1336.34 3935.67 1336.34 Q3939.3 1336.34 3941.1 1332.79 Q3942.93 1329.23 3942.93 1322.12 Q3942.93 1314.99 3941.1 1311.45 Q3939.3 1307.89 3935.67 1307.89 M3935.67 1304.18 Q3941.48 1304.18 3944.53 1308.79 Q3947.61 1313.37 3947.61 1322.12 Q3947.61 1330.85 3944.53 1335.46 Q3941.48 1340.04 3935.67 1340.04 Q3929.86 1340.04 3926.78 1335.46 Q3923.72 1330.85 3923.72 1322.12 Q3923.72 1313.37 3926.78 1308.79 Q3929.86 1304.18 3935.67 1304.18 Z" fill="#000000" fill-rule="nonzero" fill-opacity="1" /><path clip-path="url(#clip950)" d="M3384.81 1385.51 L3393.47 1385.51 L3414.54 1425.27 L3414.54 1385.51 L3420.78 1385.51 L3420.78 1433.03 L3412.12 1433.03 L3391.05 1393.28 L3391.05 1433.03 L3384.81 1433.03 L3384.81 1385.51 Z" fill="#000000" fill-rule="nonzero" fill-opacity="1" /><polyline clip-path="url(#clip950)" style="stroke:#000000; stroke-linecap:round; stroke-linejoin:round; stroke-width:4; stroke-opacity:1; fill:none" points="2852.83,1264.17 2852.83,94.7441 "/>
<polyline clip-path="url(#clip950)" style="stroke:#000000; stroke-linecap:round; stroke-linejoin:round; stroke-width:4; stroke-opacity:1; fill:none" points="2852.83,1231.07 2871.73,1231.07 "/>
<polyline clip-path="url(#clip950)" style="stroke:#000000; stroke-linecap:round; stroke-linejoin:round; stroke-width:4; stroke-opacity:1; fill:none" points="2852.83,998.906 2871.73,998.906 "/>
<polyline clip-path="url(#clip950)" style="stroke:#000000; stroke-linecap:round; stroke-linejoin:round; stroke-width:4; stroke-opacity:1; fill:none" points="2852.83,766.741 2871.73,766.741 "/>
<polyline clip-path="url(#clip950)" style="stroke:#000000; stroke-linecap:round; stroke-linejoin:round; stroke-width:4; stroke-opacity:1; fill:none" points="2852.83,534.576 2871.73,534.576 "/>
<polyline clip-path="url(#clip950)" style="stroke:#000000; stroke-linecap:round; stroke-linejoin:round; stroke-width:4; stroke-opacity:1; fill:none" points="2852.83,302.411 2871.73,302.411 "/>
<path clip-path="url(#clip950)" d="M2735.65 1216.87 Q2732.04 1216.87 2730.21 1220.43 Q2728.41 1223.98 2728.41 1231.11 Q2728.41 1238.21 2730.21 1241.78 Q2732.04 1245.32 2735.65 1245.32 Q2739.29 1245.32 2741.09 1241.78 Q2742.92 1238.21 2742.92 1231.11 Q2742.92 1223.98 2741.09 1220.43 Q2739.29 1216.87 2735.65 1216.87 M2735.65 1213.17 Q2741.46 1213.17 2744.52 1217.77 Q2747.6 1222.36 2747.6 1231.11 Q2747.6 1239.83 2744.52 1244.44 Q2741.46 1249.02 2735.65 1249.02 Q2729.84 1249.02 2726.77 1244.44 Q2723.71 1239.83 2723.71 1231.11 Q2723.71 1222.36 2726.77 1217.77 Q2729.84 1213.17 2735.65 1213.17 Z" fill="#000000" fill-rule="nonzero" fill-opacity="1" /><path clip-path="url(#clip950)" d="M2755.82 1242.47 L2760.7 1242.47 L2760.7 1248.35 L2755.82 1248.35 L2755.82 1242.47 Z" fill="#000000" fill-rule="nonzero" fill-opacity="1" /><path clip-path="url(#clip950)" d="M2780.89 1216.87 Q2777.27 1216.87 2775.45 1220.43 Q2773.64 1223.98 2773.64 1231.11 Q2773.64 1238.21 2775.45 1241.78 Q2777.27 1245.32 2780.89 1245.32 Q2784.52 1245.32 2786.33 1241.78 Q2788.15 1238.21 2788.15 1231.11 Q2788.15 1223.98 2786.33 1220.43 Q2784.52 1216.87 2780.89 1216.87 M2780.89 1213.17 Q2786.7 1213.17 2789.75 1217.77 Q2792.83 1222.36 2792.83 1231.11 Q2792.83 1239.83 2789.75 1244.44 Q2786.7 1249.02 2780.89 1249.02 Q2775.08 1249.02 2772 1244.44 Q2768.94 1239.83 2768.94 1231.11 Q2768.94 1222.36 2772 1217.77 Q2775.08 1213.17 2780.89 1213.17 Z" fill="#000000" fill-rule="nonzero" fill-opacity="1" /><path clip-path="url(#clip950)" d="M2736.88 984.705 Q2733.27 984.705 2731.44 988.269 Q2729.64 991.811 2729.64 998.941 Q2729.64 1006.05 2731.44 1009.61 Q2733.27 1013.15 2736.88 1013.15 Q2740.52 1013.15 2742.32 1009.61 Q2744.15 1006.05 2744.15 998.941 Q2744.15 991.811 2742.32 988.269 Q2740.52 984.705 2736.88 984.705 M2736.88 981.001 Q2742.69 981.001 2745.75 985.607 Q2748.83 990.191 2748.83 998.941 Q2748.83 1007.67 2745.75 1012.27 Q2742.69 1016.86 2736.88 1016.86 Q2731.07 1016.86 2727.99 1012.27 Q2724.94 1007.67 2724.94 998.941 Q2724.94 990.191 2727.99 985.607 Q2731.07 981.001 2736.88 981.001 Z" fill="#000000" fill-rule="nonzero" fill-opacity="1" /><path clip-path="url(#clip950)" d="M2757.04 1010.31 L2761.93 1010.31 L2761.93 1016.19 L2757.04 1016.19 L2757.04 1010.31 Z" fill="#000000" fill-rule="nonzero" fill-opacity="1" /><path clip-path="url(#clip950)" d="M2772.92 1012.25 L2780.56 1012.25 L2780.56 985.885 L2772.25 987.552 L2772.25 983.293 L2780.52 981.626 L2785.19 981.626 L2785.19 1012.25 L2792.83 1012.25 L2792.83 1016.19 L2772.92 1016.19 L2772.92 1012.25 Z" fill="#000000" fill-rule="nonzero" fill-opacity="1" /><path clip-path="url(#clip950)" d="M2737.25 752.539 Q2733.64 752.539 2731.81 756.104 Q2730.01 759.646 2730.01 766.776 Q2730.01 773.882 2731.81 777.447 Q2733.64 780.988 2737.25 780.988 Q2740.89 780.988 2742.69 777.447 Q2744.52 773.882 2744.52 766.776 Q2744.52 759.646 2742.69 756.104 Q2740.89 752.539 2737.25 752.539 M2737.25 748.836 Q2743.06 748.836 2746.12 753.442 Q2749.2 758.026 2749.2 766.776 Q2749.2 775.502 2746.12 780.109 Q2743.06 784.692 2737.25 784.692 Q2731.44 784.692 2728.36 780.109 Q2725.31 775.502 2725.31 766.776 Q2725.31 758.026 2728.36 753.442 Q2731.44 748.836 2737.25 748.836 Z" fill="#000000" fill-rule="nonzero" fill-opacity="1" /><path clip-path="url(#clip950)" d="M2757.41 778.141 L2762.3 778.141 L2762.3 784.021 L2757.41 784.021 L2757.41 778.141 Z" fill="#000000" fill-rule="nonzero" fill-opacity="1" /><path clip-path="url(#clip950)" d="M2776.51 780.086 L2792.83 780.086 L2792.83 784.021 L2770.89 784.021 L2770.89 780.086 Q2773.55 777.331 2778.13 772.701 Q2782.74 768.049 2783.92 766.706 Q2786.16 764.183 2787.04 762.447 Q2787.95 760.688 2787.95 758.998 Q2787.95 756.243 2786 754.507 Q2784.08 752.771 2780.98 752.771 Q2778.78 752.771 2776.33 753.535 Q2773.9 754.299 2771.12 755.85 L2771.12 751.127 Q2773.94 749.993 2776.4 749.415 Q2778.85 748.836 2780.89 748.836 Q2786.26 748.836 2789.45 751.521 Q2792.65 754.206 2792.65 758.697 Q2792.65 760.826 2791.83 762.748 Q2791.05 764.646 2788.94 767.238 Q2788.36 767.91 2785.26 771.127 Q2782.16 774.322 2776.51 780.086 Z" fill="#000000" fill-rule="nonzero" fill-opacity="1" /><path clip-path="url(#clip950)" d="M2736.3 520.374 Q2732.69 520.374 2730.86 523.939 Q2729.06 527.481 2729.06 534.61 Q2729.06 541.717 2730.86 545.282 Q2732.69 548.823 2736.3 548.823 Q2739.94 548.823 2741.74 545.282 Q2743.57 541.717 2743.57 534.61 Q2743.57 527.481 2741.74 523.939 Q2739.94 520.374 2736.3 520.374 M2736.3 516.671 Q2742.11 516.671 2745.17 521.277 Q2748.25 525.861 2748.25 534.61 Q2748.25 543.337 2745.17 547.944 Q2742.11 552.527 2736.3 552.527 Q2730.49 552.527 2727.41 547.944 Q2724.36 543.337 2724.36 534.61 Q2724.36 525.861 2727.41 521.277 Q2730.49 516.671 2736.3 516.671 Z" fill="#000000" fill-rule="nonzero" fill-opacity="1" /><path clip-path="url(#clip950)" d="M2756.46 545.976 L2761.35 545.976 L2761.35 551.856 L2756.46 551.856 L2756.46 545.976 Z" fill="#000000" fill-rule="nonzero" fill-opacity="1" /><path clip-path="url(#clip950)" d="M2785.7 533.222 Q2789.06 533.939 2790.93 536.208 Q2792.83 538.476 2792.83 541.81 Q2792.83 546.925 2789.31 549.726 Q2785.79 552.527 2779.31 552.527 Q2777.14 552.527 2774.82 552.087 Q2772.53 551.671 2770.08 550.814 L2770.08 546.3 Q2772.02 547.434 2774.33 548.013 Q2776.65 548.592 2779.17 548.592 Q2783.57 548.592 2785.86 546.856 Q2788.18 545.12 2788.18 541.81 Q2788.18 538.754 2786.02 537.041 Q2783.9 535.305 2780.08 535.305 L2776.05 535.305 L2776.05 531.462 L2780.26 531.462 Q2783.71 531.462 2785.54 530.097 Q2787.37 528.708 2787.37 526.115 Q2787.37 523.453 2785.47 522.041 Q2783.59 520.606 2780.08 520.606 Q2778.15 520.606 2775.96 521.023 Q2773.76 521.439 2771.12 522.319 L2771.12 518.152 Q2773.78 517.411 2776.09 517.041 Q2778.43 516.671 2780.49 516.671 Q2785.82 516.671 2788.92 519.101 Q2792.02 521.509 2792.02 525.629 Q2792.02 528.499 2790.38 530.49 Q2788.73 532.458 2785.7 533.222 Z" fill="#000000" fill-rule="nonzero" fill-opacity="1" /><path clip-path="url(#clip950)" d="M2735.17 288.209 Q2731.56 288.209 2729.73 291.774 Q2727.92 295.316 2727.92 302.445 Q2727.92 309.552 2729.73 313.117 Q2731.56 316.658 2735.17 316.658 Q2738.8 316.658 2740.61 313.117 Q2742.44 309.552 2742.44 302.445 Q2742.44 295.316 2740.61 291.774 Q2738.8 288.209 2735.17 288.209 M2735.17 284.506 Q2740.98 284.506 2744.03 289.112 Q2747.11 293.695 2747.11 302.445 Q2747.11 311.172 2744.03 315.779 Q2740.98 320.362 2735.17 320.362 Q2729.36 320.362 2726.28 315.779 Q2723.22 311.172 2723.22 302.445 Q2723.22 293.695 2726.28 289.112 Q2729.36 284.506 2735.17 284.506 Z" fill="#000000" fill-rule="nonzero" fill-opacity="1" /><path clip-path="url(#clip950)" d="M2755.33 313.811 L2760.21 313.811 L2760.21 319.691 L2755.33 319.691 L2755.33 313.811 Z" fill="#000000" fill-rule="nonzero" fill-opacity="1" /><path clip-path="url(#clip950)" d="M2783.25 289.205 L2771.44 307.654 L2783.25 307.654 L2783.25 289.205 M2782.02 285.131 L2787.9 285.131 L2787.9 307.654 L2792.83 307.654 L2792.83 311.543 L2787.9 311.543 L2787.9 319.691 L2783.25 319.691 L2783.25 311.543 L2767.65 311.543 L2767.65 307.029 L2782.02 285.131 Z" fill="#000000" fill-rule="nonzero" fill-opacity="1" /><path clip-path="url(#clip950)" d="M3144.95 44.2197 Q3147.59 45.1109 3150.06 48.0275 Q3152.57 50.9442 3155.08 56.0483 L3163.38 72.576 L3154.59 72.576 L3146.86 57.061 Q3143.86 50.9847 3141.02 48.9997 Q3138.23 47.0148 3133.37 47.0148 L3124.46 47.0148 L3124.46 72.576 L3116.27 72.576 L3116.27 12.096 L3134.74 12.096 Q3145.12 12.096 3150.22 16.4305 Q3155.32 20.7649 3155.32 29.5149 Q3155.32 35.2267 3152.65 38.994 Q3150.02 42.7613 3144.95 44.2197 M3124.46 18.8205 L3124.46 40.2903 L3134.74 40.2903 Q3140.66 40.2903 3143.66 37.5762 Q3146.69 34.8216 3146.69 29.5149 Q3146.69 24.2082 3143.66 21.5346 Q3140.66 18.8205 3134.74 18.8205 L3124.46 18.8205 Z" fill="#000000" fill-rule="nonzero" fill-opacity="1" /><path clip-path="url(#clip950)" d="M3187.45 32.4315 Q3181.45 32.4315 3177.97 37.1306 Q3174.48 41.7891 3174.48 49.9314 Q3174.48 58.0738 3177.93 62.7728 Q3181.41 67.4314 3187.45 67.4314 Q3193.4 67.4314 3196.89 62.7323 Q3200.37 58.0333 3200.37 49.9314 Q3200.37 41.8701 3196.89 37.1711 Q3193.4 32.4315 3187.45 32.4315 M3187.45 26.1121 Q3197.17 26.1121 3202.72 32.4315 Q3208.27 38.7509 3208.27 49.9314 Q3208.27 61.0714 3202.72 67.4314 Q3197.17 73.7508 3187.45 73.7508 Q3177.68 73.7508 3172.13 67.4314 Q3166.63 61.0714 3166.63 49.9314 Q3166.63 38.7509 3172.13 32.4315 Q3177.68 26.1121 3187.45 26.1121 Z" fill="#000000" fill-rule="nonzero" fill-opacity="1" /><path clip-path="url(#clip950)" d="M3250.48 34.0924 L3250.48 9.54393 L3257.93 9.54393 L3257.93 72.576 L3250.48 72.576 L3250.48 65.7705 Q3248.13 69.8214 3244.52 71.8063 Q3240.96 73.7508 3235.94 73.7508 Q3227.71 73.7508 3222.53 67.1883 Q3217.38 60.6258 3217.38 49.9314 Q3217.38 39.2371 3222.53 32.6746 Q3227.71 26.1121 3235.94 26.1121 Q3240.96 26.1121 3244.52 28.0971 Q3248.13 30.0415 3250.48 34.0924 M3225.08 49.9314 Q3225.08 58.1548 3228.44 62.8538 Q3231.84 67.5124 3237.76 67.5124 Q3243.67 67.5124 3247.08 62.8538 Q3250.48 58.1548 3250.48 49.9314 Q3250.48 41.7081 3247.08 37.0496 Q3243.67 32.3505 3237.76 32.3505 Q3231.84 32.3505 3228.44 37.0496 Q3225.08 41.7081 3225.08 49.9314 Z" fill="#000000" fill-rule="nonzero" fill-opacity="1" /><path clip-path="url(#clip950)" d="M3312.09 48.0275 L3312.09 51.6733 L3277.82 51.6733 Q3278.31 59.3701 3282.44 63.421 Q3286.61 67.4314 3294.03 67.4314 Q3298.32 67.4314 3302.33 66.3781 Q3306.38 65.3249 3310.35 63.2184 L3310.35 70.267 Q3306.34 71.9684 3302.13 72.8596 Q3297.92 73.7508 3293.58 73.7508 Q3282.72 73.7508 3276.36 67.4314 Q3270.04 61.1119 3270.04 50.3365 Q3270.04 39.1965 3276.04 32.6746 Q3282.08 26.1121 3292.28 26.1121 Q3301.44 26.1121 3306.75 32.0264 Q3312.09 37.9003 3312.09 48.0275 M3304.64 45.84 Q3304.56 39.7232 3301.2 36.0774 Q3297.87 32.4315 3292.37 32.4315 Q3286.13 32.4315 3282.36 35.9558 Q3278.63 39.4801 3278.07 45.8805 L3304.64 45.84 Z" fill="#000000" fill-rule="nonzero" fill-opacity="1" /><path clip-path="url(#clip950)" d="M3341.91 32.4315 Q3335.91 32.4315 3332.43 37.1306 Q3328.95 41.7891 3328.95 49.9314 Q3328.95 58.0738 3332.39 62.7728 Q3335.87 67.4314 3341.91 67.4314 Q3347.86 67.4314 3351.35 62.7323 Q3354.83 58.0333 3354.83 49.9314 Q3354.83 41.8701 3351.35 37.1711 Q3347.86 32.4315 3341.91 32.4315 M3341.91 26.1121 Q3351.63 26.1121 3357.18 32.4315 Q3362.73 38.7509 3362.73 49.9314 Q3362.73 61.0714 3357.18 67.4314 Q3351.63 73.7508 3341.91 73.7508 Q3332.15 73.7508 3326.6 67.4314 Q3321.09 61.0714 3321.09 49.9314 Q3321.09 38.7509 3326.6 32.4315 Q3332.15 26.1121 3341.91 26.1121 Z" fill="#000000" fill-rule="nonzero" fill-opacity="1" /><path clip-path="url(#clip950)" d="M3419.36 9.62495 Q3413.93 18.942 3411.3 28.0566 Q3408.67 37.1711 3408.67 46.5287 Q3408.67 55.8863 3411.3 65.0818 Q3413.97 74.2369 3419.36 83.5134 L3412.88 83.5134 Q3406.8 73.9938 3403.77 64.7983 Q3400.77 55.6027 3400.77 46.5287 Q3400.77 37.4952 3403.77 28.3401 Q3406.76 19.1851 3412.88 9.62495 L3419.36 9.62495 Z" fill="#000000" fill-rule="nonzero" fill-opacity="1" /><path clip-path="url(#clip950)" d="M3434.15 12.096 L3468.9 12.096 L3468.9 18.9825 L3442.33 18.9825 L3442.33 36.8065 L3466.31 36.8065 L3466.31 43.6931 L3442.33 43.6931 L3442.33 72.576 L3434.15 72.576 L3434.15 12.096 Z" fill="#000000" fill-rule="nonzero" fill-opacity="1" /><path clip-path="url(#clip950)" d="M3515.81 48.0275 L3515.81 51.6733 L3481.54 51.6733 Q3482.03 59.3701 3486.16 63.421 Q3490.33 67.4314 3497.75 67.4314 Q3502.04 67.4314 3506.05 66.3781 Q3510.1 65.3249 3514.07 63.2184 L3514.07 70.267 Q3510.06 71.9684 3505.85 72.8596 Q3501.64 73.7508 3497.3 73.7508 Q3486.44 73.7508 3480.08 67.4314 Q3473.76 61.1119 3473.76 50.3365 Q3473.76 39.1965 3479.76 32.6746 Q3485.8 26.1121 3496 26.1121 Q3505.16 26.1121 3510.47 32.0264 Q3515.81 37.9003 3515.81 48.0275 M3508.36 45.84 Q3508.28 39.7232 3504.92 36.0774 Q3501.59 32.4315 3496.09 32.4315 Q3489.85 32.4315 3486.08 35.9558 Q3482.35 39.4801 3481.79 45.8805 L3508.36 45.84 Z" fill="#000000" fill-rule="nonzero" fill-opacity="1" /><path clip-path="url(#clip950)" d="M3565.76 45.1919 L3565.76 72.576 L3558.31 72.576 L3558.31 45.4349 Q3558.31 38.994 3555.8 35.7938 Q3553.28 32.5936 3548.26 32.5936 Q3542.23 32.5936 3538.74 36.4419 Q3535.26 40.2903 3535.26 46.9338 L3535.26 72.576 L3527.76 72.576 L3527.76 27.2059 L3535.26 27.2059 L3535.26 34.2544 Q3537.93 30.163 3541.54 28.1376 Q3545.18 26.1121 3549.92 26.1121 Q3557.74 26.1121 3561.75 30.9732 Q3565.76 35.7938 3565.76 45.1919 Z" fill="#000000" fill-rule="nonzero" fill-opacity="1" /><path clip-path="url(#clip950)" d="M3606.92 34.1734 Q3605.66 33.4443 3604.16 33.1202 Q3602.71 32.7556 3600.92 32.7556 Q3594.6 32.7556 3591.2 36.8875 Q3587.84 40.9789 3587.84 48.6757 L3587.84 72.576 L3580.34 72.576 L3580.34 27.2059 L3587.84 27.2059 L3587.84 34.2544 Q3590.19 30.1225 3593.96 28.1376 Q3597.72 26.1121 3603.11 26.1121 Q3603.88 26.1121 3604.81 26.2337 Q3605.74 26.3147 3606.88 26.5172 L3606.92 34.1734 Z" fill="#000000" fill-rule="nonzero" fill-opacity="1" /><path clip-path="url(#clip950)" d="M3614.74 27.2059 L3622.19 27.2059 L3622.19 72.576 L3614.74 72.576 L3614.74 27.2059 M3614.74 9.54393 L3622.19 9.54393 L3622.19 18.9825 L3614.74 18.9825 L3614.74 9.54393 Z" fill="#000000" fill-rule="nonzero" fill-opacity="1" /><path clip-path="url(#clip950)" d="M3664.08 34.1734 Q3662.82 33.4443 3661.32 33.1202 Q3659.86 32.7556 3658.08 32.7556 Q3651.76 32.7556 3648.36 36.8875 Q3645 40.9789 3645 48.6757 L3645 72.576 L3637.5 72.576 L3637.5 27.2059 L3645 27.2059 L3645 34.2544 Q3647.35 30.1225 3651.11 28.1376 Q3654.88 26.1121 3660.27 26.1121 Q3661.04 26.1121 3661.97 26.2337 Q3662.9 26.3147 3664.04 26.5172 L3664.08 34.1734 Z" fill="#000000" fill-rule="nonzero" fill-opacity="1" /><path clip-path="url(#clip950)" d="M3670.72 9.62495 L3677.2 9.62495 Q3683.28 19.1851 3686.28 28.3401 Q3689.31 37.4952 3689.31 46.5287 Q3689.31 55.6027 3686.28 64.7983 Q3683.28 73.9938 3677.2 83.5134 L3670.72 83.5134 Q3676.11 74.2369 3678.74 65.0818 Q3681.41 55.8863 3681.41 46.5287 Q3681.41 37.1711 3678.74 28.0566 Q3676.11 18.942 3670.72 9.62495 Z" fill="#000000" fill-rule="nonzero" fill-opacity="1" /><polyline clip-path="url(#clip951)" style="stroke:#000000; stroke-linecap:round; stroke-linejoin:round; stroke-width:8; stroke-opacity:1; fill:none" stroke-dasharray="32, 20" points="2883.96,128.287 2889.17,133.829 2894.39,139.37 2899.6,144.912 2904.82,150.453 2910.03,155.995 2915.25,161.537 2920.46,167.078 2925.68,172.62 2930.89,178.162 2936.1,183.703 2941.32,189.245 2946.53,194.786 2951.75,200.328 2956.96,205.87 2962.18,211.411 2967.39,216.953 2972.61,222.495 2977.82,228.036 2983.03,233.578 2988.25,239.119 2993.46,244.661 2998.68,250.203 3003.89,255.744 3009.11,261.286 3014.32,266.828 3019.53,272.369 3024.75,277.911 3029.96,283.452 3035.18,288.994 3040.39,294.536 3045.61,300.077 3050.82,305.619 3056.04,311.161 3061.25,316.702 3066.46,322.244 3071.68,327.786 3076.89,333.327 3082.11,338.869 3087.32,344.41 3092.54,349.952 3097.75,355.494 3102.97,361.035 3108.18,366.577 3113.39,372.119 3118.61,377.66 3123.82,383.202 3129.04,388.743 3134.25,394.285 3139.47,399.827 3144.68,405.368 3149.89,410.91 3155.11,416.452 3160.32,421.993 3165.54,427.535 3170.75,433.076 3175.97,438.618 3181.18,444.16 3186.4,449.701 3191.61,455.243 3196.82,460.785 3202.04,466.326 3207.25,471.868 3212.47,477.409 3217.68,482.951 3222.9,488.493 3228.11,494.034 3233.33,499.576 3238.54,505.118 3243.75,510.659 3248.97,516.201 3254.18,521.743 3259.4,527.284 3264.61,532.826 3269.83,538.367 3275.04,543.909 3280.25,549.451 3285.47,554.992 3290.68,560.534 3295.9,566.076 3301.11,571.617 3306.33,577.159 3311.54,582.7 3316.76,588.242 3321.97,593.784 3327.18,599.325 3332.4,604.867 3337.61,610.409 3342.83,615.95 3348.04,621.492 3353.26,627.033 3358.47,632.575 3363.69,638.117 3368.9,643.658 3374.11,649.2 3379.33,654.742 3384.54,660.283 3389.76,665.825 3394.97,671.366 3400.19,676.908 3405.4,682.45 3410.61,687.991 3415.83,693.533 3421.04,699.075 3426.26,704.616 3431.47,710.158 3436.69,715.699 3441.9,721.241 3447.12,726.783 3452.33,732.324 3457.54,737.866 3462.76,743.408 3467.97,748.949 3473.19,754.491 3478.4,760.033 3483.62,765.574 3488.83,771.116 3494.05,776.657 3499.26,782.199 3504.47,787.741 3509.69,793.282 3514.9,798.824 3520.12,804.366 3525.33,809.907 3530.55,815.449 3535.76,820.99 3540.97,826.532 3546.19,832.074 3551.4,837.615 3556.62,843.157 3561.83,848.699 3567.05,854.24 3572.26,859.782 3577.48,865.323 3582.69,870.865 3587.9,876.407 3593.12,881.948 3598.33,887.49 3603.55,893.032 3608.76,898.573 3613.98,904.115 3619.19,909.656 3624.41,915.198 3629.62,920.74 3634.83,926.281 3640.05,931.823 3645.26,937.365 3650.48,942.906 3655.69,948.448 3660.91,953.99 3666.12,959.531 3671.33,965.073 3676.55,970.614 3681.76,976.156 3686.98,981.698 3692.19,987.239 3697.41,992.781 3702.62,998.323 3707.84,1003.86 3713.05,1009.41 3718.26,1014.95 3723.48,1020.49 3728.69,1026.03 3733.91,1031.57 3739.12,1037.11 3744.34,1042.66 3749.55,1048.2 3754.77,1053.74 3759.98,1059.28 3765.19,1064.82 3770.41,1070.36 3775.62,1075.91 3780.84,1081.45 3786.05,1086.99 3791.27,1092.53 3796.48,1098.07 3801.69,1103.61 3806.91,1109.16 3812.12,1114.7 3817.34,1120.24 3822.55,1125.78 3827.77,1131.32 3832.98,1136.86 3838.2,1142.4 3843.41,1147.95 3848.62,1153.49 3853.84,1159.03 3859.05,1164.57 3864.27,1170.11 3869.48,1175.65 3874.7,1181.2 3879.91,1186.74 3885.13,1192.28 3890.34,1197.82 3895.55,1203.36 3900.77,1208.9 3905.98,1214.45 3911.2,1219.99 3916.41,1225.53 3921.63,1231.07 "/>
<polyline clip-path="url(#clip951)" style="stroke:#800080; stroke-linecap:round; stroke-linejoin:round; stroke-width:8; stroke-opacity:1; fill:none" points="2883.96,393.036 2889.17,388.584 2894.39,384.139 2899.6,379.707 2904.82,375.294 2910.03,370.908 2915.25,366.553 2920.46,362.238 2925.68,357.968 2930.89,353.751 2936.1,349.592 2941.32,345.497 2946.53,341.475 2951.75,337.53 2956.96,333.67 2962.18,329.9 2967.39,326.229 2972.61,322.661 2977.82,319.203 2983.03,315.863 2988.25,312.646 2993.46,309.56 2998.68,306.609 3003.89,303.802 3009.11,301.144 3014.32,298.642 3019.53,296.303 3024.75,294.132 3029.96,292.137 3035.18,290.324 3040.39,288.7 3045.61,287.271 3050.82,286.044 3056.04,285.027 3061.25,284.229 3066.46,283.655 3071.68,283.314 3076.89,283.214 3082.11,283.361 3087.32,283.764 3092.54,284.429 3097.75,285.366 3102.97,286.58 3108.18,288.08 3113.39,289.873 3118.61,291.966 3123.82,294.368 3129.04,297.085 3134.25,300.126 3139.47,303.498 3144.68,307.208 3149.89,311.263 3155.11,315.673 3160.32,320.443 3165.54,325.582 3170.75,331.097 3175.97,336.995 3181.18,343.285 3186.4,349.974 3191.61,357.068 3196.82,364.577 3202.04,372.498 3207.25,380.808 3212.47,389.48 3217.68,398.487 3222.9,407.803 3228.11,417.399 3233.33,427.249 3238.54,437.326 3243.75,447.603 3248.97,458.052 3254.18,468.647 3259.4,479.361 3264.61,490.167 3269.83,501.037 3275.04,511.945 3280.25,522.864 3285.47,533.766 3290.68,544.624 3295.9,555.412 3301.11,566.102 3306.33,576.667 3311.54,587.081 3316.76,597.317 3321.97,607.346 3327.18,617.143 3332.4,626.679 3337.61,635.929 3342.83,644.865 3348.04,653.46 3353.26,661.687 3358.47,669.532 3363.69,677.008 3368.9,684.13 3374.11,690.915 3379.33,697.379 3384.54,703.538 3389.76,709.407 3394.97,715.003 3400.19,720.342 3405.4,725.439 3410.61,730.311 3415.83,734.974 3421.04,739.444 3426.26,743.736 3431.47,747.868 3436.69,751.854 3441.9,755.71 3447.12,759.454 3452.33,763.1 3457.54,766.666 3462.76,770.166 3467.97,773.617 3473.19,777.034 3478.4,780.435 3483.62,783.834 3488.83,787.248 3494.05,790.694 3499.26,794.186 3504.47,797.74 3509.69,801.374 3514.9,805.096 3520.12,808.907 3525.33,812.804 3530.55,816.787 3535.76,820.854 3540.97,825.003 3546.19,829.233 3551.4,833.543 3556.62,837.931 3561.83,842.396 3567.05,846.937 3572.26,851.551 3577.48,856.238 3582.69,860.996 3587.9,865.823 3593.12,870.719 3598.33,875.681 3603.55,880.709 3608.76,885.801 3613.98,890.956 3619.19,896.171 3624.41,901.447 3629.62,906.78 3634.83,912.17 3640.05,917.616 3645.26,923.116 3650.48,928.668 3655.69,934.271 3660.91,939.924 3666.12,945.625 3671.33,951.372 3676.55,957.163 3681.76,962.994 3686.98,968.863 3692.19,974.767 3697.41,980.703 3702.62,986.668 3707.84,992.659 3713.05,998.673 3718.26,1004.71 3723.48,1010.76 3728.69,1016.83 3733.91,1022.91 3739.12,1028.99 3744.34,1035.09 3749.55,1041.19 3754.77,1047.28 3759.98,1053.38 3765.19,1059.47 3770.41,1065.55 3775.62,1071.62 3780.84,1077.68 3786.05,1083.72 3791.27,1089.74 3796.48,1095.73 3801.69,1101.71 3806.91,1107.65 3812.12,1113.56 3817.34,1119.44 3822.55,1125.28 3827.77,1131.09 3832.98,1136.86 3838.2,1142.59 3843.41,1148.29 3848.62,1153.95 3853.84,1159.58 3859.05,1165.19 3864.27,1170.76 3869.48,1176.31 3874.7,1181.83 3879.91,1187.33 3885.13,1192.8 3890.34,1198.25 3895.55,1203.68 3900.77,1209.09 3905.98,1214.48 3911.2,1219.85 3916.41,1225.21 3921.63,1230.55 "/>
<path clip-path="url(#clip950)" d="M3681.63 289.245 L3916.09 289.245 L3916.09 133.725 L3681.63 133.725  Z" fill="#ffffff" fill-rule="evenodd" fill-opacity="1"/>
<polyline clip-path="url(#clip950)" style="stroke:#000000; stroke-linecap:round; stroke-linejoin:round; stroke-width:4; stroke-opacity:1; fill:none" points="3681.63,289.245 3916.09,289.245 3916.09,133.725 3681.63,133.725 3681.63,289.245 "/>
<polyline clip-path="url(#clip950)" style="stroke:#000000; stroke-linecap:round; stroke-linejoin:round; stroke-width:8; stroke-opacity:1; fill:none" stroke-dasharray="32, 20" points="3693.85,185.565 3767.18,185.565 "/>
<path clip-path="url(#clip950)" d="M3779.4 168.285 L3808.64 168.285 L3808.64 172.22 L3796.37 172.22 L3796.37 202.845 L3791.67 202.845 L3791.67 172.22 L3779.4 172.22 L3779.4 168.285 Z" fill="#000000" fill-rule="nonzero" fill-opacity="1" /><path clip-path="url(#clip950)" d="M3821.02 180.901 Q3820.31 180.484 3819.45 180.299 Q3818.62 180.09 3817.6 180.09 Q3813.99 180.09 3812.04 182.452 Q3810.12 184.789 3810.12 189.188 L3810.12 202.845 L3805.84 202.845 L3805.84 176.919 L3810.12 176.919 L3810.12 180.947 Q3811.46 178.586 3813.62 177.452 Q3815.77 176.294 3818.85 176.294 Q3819.29 176.294 3819.82 176.364 Q3820.35 176.41 3821 176.526 L3821.02 180.901 Z" fill="#000000" fill-rule="nonzero" fill-opacity="1" /><path clip-path="url(#clip950)" d="M3825.05 192.613 L3825.05 176.919 L3829.31 176.919 L3829.31 192.451 Q3829.31 196.132 3830.75 197.984 Q3832.18 199.813 3835.05 199.813 Q3838.5 199.813 3840.49 197.613 Q3842.5 195.414 3842.5 191.618 L3842.5 176.919 L3846.76 176.919 L3846.76 202.845 L3842.5 202.845 L3842.5 198.863 Q3840.95 201.225 3838.89 202.382 Q3836.86 203.516 3834.15 203.516 Q3829.68 203.516 3827.37 200.738 Q3825.05 197.961 3825.05 192.613 M3835.77 176.294 L3835.77 176.294 Z" fill="#000000" fill-rule="nonzero" fill-opacity="1" /><path clip-path="url(#clip950)" d="M3877.71 188.817 L3877.71 190.901 L3858.13 190.901 Q3858.41 195.299 3860.77 197.613 Q3863.15 199.905 3867.39 199.905 Q3869.84 199.905 3872.13 199.303 Q3874.45 198.701 3876.72 197.498 L3876.72 201.525 Q3874.43 202.498 3872.02 203.007 Q3869.61 203.516 3867.13 203.516 Q3860.93 203.516 3857.3 199.905 Q3853.69 196.294 3853.69 190.137 Q3853.69 183.771 3857.11 180.044 Q3860.56 176.294 3866.39 176.294 Q3871.63 176.294 3874.66 179.674 Q3877.71 183.03 3877.71 188.817 M3873.45 187.567 Q3873.41 184.072 3871.49 181.989 Q3869.59 179.905 3866.44 179.905 Q3862.88 179.905 3860.72 181.919 Q3858.59 183.933 3858.27 187.59 L3873.45 187.567 Z" fill="#000000" fill-rule="nonzero" fill-opacity="1" /><polyline clip-path="url(#clip950)" style="stroke:#800080; stroke-linecap:round; stroke-linejoin:round; stroke-width:8; stroke-opacity:1; fill:none" points="3693.85,237.405 3767.18,237.405 "/>
<path clip-path="url(#clip950)" d="M3779.4 220.125 L3799.26 220.125 L3799.26 224.06 L3784.08 224.06 L3784.08 234.245 L3797.78 234.245 L3797.78 238.18 L3784.08 238.18 L3784.08 254.685 L3779.4 254.685 L3779.4 220.125 Z" fill="#000000" fill-rule="nonzero" fill-opacity="1" /><path clip-path="url(#clip950)" d="M3803.04 228.759 L3807.3 228.759 L3807.3 254.685 L3803.04 254.685 L3803.04 228.759 M3803.04 218.667 L3807.3 218.667 L3807.3 224.06 L3803.04 224.06 L3803.04 218.667 Z" fill="#000000" fill-rule="nonzero" fill-opacity="1" /><path clip-path="url(#clip950)" d="M3820.42 221.398 L3820.42 228.759 L3829.19 228.759 L3829.19 232.069 L3820.42 232.069 L3820.42 246.143 Q3820.42 249.315 3821.28 250.217 Q3822.16 251.12 3824.82 251.12 L3829.19 251.12 L3829.19 254.685 L3824.82 254.685 Q3819.89 254.685 3818.01 252.856 Q3816.14 251.004 3816.14 246.143 L3816.14 232.069 L3813.01 232.069 L3813.01 228.759 L3816.14 228.759 L3816.14 221.398 L3820.42 221.398 Z" fill="#000000" fill-rule="nonzero" fill-opacity="1" /><path clip-path="url(#clip950)" d="M3839.01 221.398 L3839.01 228.759 L3847.78 228.759 L3847.78 232.069 L3839.01 232.069 L3839.01 246.143 Q3839.01 249.315 3839.87 250.217 Q3840.75 251.12 3843.41 251.12 L3847.78 251.12 L3847.78 254.685 L3843.41 254.685 Q3838.48 254.685 3836.6 252.856 Q3834.73 251.004 3834.73 246.143 L3834.73 232.069 L3831.6 232.069 L3831.6 228.759 L3834.73 228.759 L3834.73 221.398 L3839.01 221.398 Z" fill="#000000" fill-rule="nonzero" fill-opacity="1" /><path clip-path="url(#clip950)" d="M3875.56 240.657 L3875.56 242.741 L3855.98 242.741 Q3856.25 247.139 3858.62 249.453 Q3861 251.745 3865.24 251.745 Q3867.69 251.745 3869.98 251.143 Q3872.3 250.541 3874.56 249.338 L3874.56 253.365 Q3872.27 254.338 3869.87 254.847 Q3867.46 255.356 3864.98 255.356 Q3858.78 255.356 3855.14 251.745 Q3851.53 248.134 3851.53 241.977 Q3851.53 235.611 3854.96 231.884 Q3858.41 228.134 3864.24 228.134 Q3869.47 228.134 3872.5 231.514 Q3875.56 234.87 3875.56 240.657 M3871.3 239.407 Q3871.25 235.912 3869.33 233.829 Q3867.44 231.745 3864.29 231.745 Q3860.72 231.745 3858.57 233.759 Q3856.44 235.773 3856.12 239.43 L3871.3 239.407 Z" fill="#000000" fill-rule="nonzero" fill-opacity="1" /><path clip-path="url(#clip950)" d="M3899.61 232.694 L3899.61 218.667 L3903.87 218.667 L3903.87 254.685 L3899.61 254.685 L3899.61 250.796 Q3898.27 253.111 3896.21 254.245 Q3894.17 255.356 3891.3 255.356 Q3886.6 255.356 3883.64 251.606 Q3880.7 247.856 3880.7 241.745 Q3880.7 235.634 3883.64 231.884 Q3886.6 228.134 3891.3 228.134 Q3894.17 228.134 3896.21 229.268 Q3898.27 230.379 3899.61 232.694 M3885.1 241.745 Q3885.1 246.444 3887.02 249.129 Q3888.96 251.791 3892.34 251.791 Q3895.72 251.791 3897.67 249.129 Q3899.61 246.444 3899.61 241.745 Q3899.61 237.046 3897.67 234.384 Q3895.72 231.699 3892.34 231.699 Q3888.96 231.699 3887.02 234.384 Q3885.1 237.046 3885.1 241.745 Z" fill="#000000" fill-rule="nonzero" fill-opacity="1" /></svg>
