<?xml version="1.0" encoding="utf-8"?>
<svg xmlns="http://www.w3.org/2000/svg" xmlns:xlink="http://www.w3.org/1999/xlink" width="672" height="480" viewBox="0 0 2688 1920">
<defs>
  <clipPath id="clip610">
    <rect x="0" y="0" width="2688" height="1920"/>
  </clipPath>
</defs>
<path clip-path="url(#clip610)" d="M0 1920 L2688 1920 L2688 -4.26326e-14 L0 -4.26326e-14  Z" fill="#ffffff" fill-rule="evenodd" fill-opacity="1"/>
<defs>
  <clipPath id="clip611">
    <rect x="181" y="127" width="2460" height="1607"/>
  </clipPath>
</defs>
<path clip-path="url(#clip610)" d="M181.719 1734.12 L2640.76 1734.12 L2640.76 127.792 L181.719 127.792  Z" fill="#ffffff" fill-rule="evenodd" fill-opacity="1"/>
<polyline clip-path="url(#clip611)" style="stroke:#000000; stroke-linecap:round; stroke-linejoin:round; stroke-width:2; stroke-opacity:0.1; fill:none" points="251.315,1734.12 251.315,127.792 "/>
<polyline clip-path="url(#clip611)" style="stroke:#000000; stroke-linecap:round; stroke-linejoin:round; stroke-width:2; stroke-opacity:0.1; fill:none" points="831.276,1734.12 831.276,127.792 "/>
<polyline clip-path="url(#clip611)" style="stroke:#000000; stroke-linecap:round; stroke-linejoin:round; stroke-width:2; stroke-opacity:0.1; fill:none" points="1411.24,1734.12 1411.24,127.792 "/>
<polyline clip-path="url(#clip611)" style="stroke:#000000; stroke-linecap:round; stroke-linejoin:round; stroke-width:2; stroke-opacity:0.1; fill:none" points="1991.2,1734.12 1991.2,127.792 "/>
<polyline clip-path="url(#clip611)" style="stroke:#000000; stroke-linecap:round; stroke-linejoin:round; stroke-width:2; stroke-opacity:0.1; fill:none" points="2571.16,1734.12 2571.16,127.792 "/>
<polyline clip-path="url(#clip611)" style="stroke:#000000; stroke-linecap:round; stroke-linejoin:round; stroke-width:2; stroke-opacity:0.1; fill:none" points="181.719,1696.16 2640.76,1696.16 "/>
<polyline clip-path="url(#clip611)" style="stroke:#000000; stroke-linecap:round; stroke-linejoin:round; stroke-width:2; stroke-opacity:0.1; fill:none" points="181.719,1393.97 2640.76,1393.97 "/>
<polyline clip-path="url(#clip611)" style="stroke:#000000; stroke-linecap:round; stroke-linejoin:round; stroke-width:2; stroke-opacity:0.1; fill:none" points="181.719,1091.77 2640.76,1091.77 "/>
<polyline clip-path="url(#clip611)" style="stroke:#000000; stroke-linecap:round; stroke-linejoin:round; stroke-width:2; stroke-opacity:0.1; fill:none" points="181.719,789.566 2640.76,789.566 "/>
<polyline clip-path="url(#clip611)" style="stroke:#000000; stroke-linecap:round; stroke-linejoin:round; stroke-width:2; stroke-opacity:0.1; fill:none" points="181.719,487.366 2640.76,487.366 "/>
<polyline clip-path="url(#clip611)" style="stroke:#000000; stroke-linecap:round; stroke-linejoin:round; stroke-width:2; stroke-opacity:0.1; fill:none" points="181.719,185.166 2640.76,185.166 "/>
<polyline clip-path="url(#clip610)" style="stroke:#000000; stroke-linecap:round; stroke-linejoin:round; stroke-width:4; stroke-opacity:1; fill:none" points="181.719,1734.12 2640.76,1734.12 "/>
<polyline clip-path="url(#clip610)" style="stroke:#000000; stroke-linecap:round; stroke-linejoin:round; stroke-width:4; stroke-opacity:1; fill:none" points="251.315,1734.12 251.315,1715.22 "/>
<polyline clip-path="url(#clip610)" style="stroke:#000000; stroke-linecap:round; stroke-linejoin:round; stroke-width:4; stroke-opacity:1; fill:none" points="831.276,1734.12 831.276,1715.22 "/>
<polyline clip-path="url(#clip610)" style="stroke:#000000; stroke-linecap:round; stroke-linejoin:round; stroke-width:4; stroke-opacity:1; fill:none" points="1411.24,1734.12 1411.24,1715.22 "/>
<polyline clip-path="url(#clip610)" style="stroke:#000000; stroke-linecap:round; stroke-linejoin:round; stroke-width:4; stroke-opacity:1; fill:none" points="1991.2,1734.12 1991.2,1715.22 "/>
<polyline clip-path="url(#clip610)" style="stroke:#000000; stroke-linecap:round; stroke-linejoin:round; stroke-width:4; stroke-opacity:1; fill:none" points="2571.16,1734.12 2571.16,1715.22 "/>
<path clip-path="url(#clip610)" d="M228.699 1767.34 Q225.088 1767.34 223.259 1770.9 Q221.454 1774.45 221.454 1781.58 Q221.454 1788.68 223.259 1792.25 Q225.088 1795.79 228.699 1795.79 Q232.333 1795.79 234.139 1792.25 Q235.968 1788.68 235.968 1781.58 Q235.968 1774.45 234.139 1770.9 Q232.333 1767.34 228.699 1767.34 M228.699 1763.64 Q234.509 1763.64 237.565 1768.24 Q240.644 1772.83 240.644 1781.58 Q240.644 1790.3 237.565 1794.91 Q234.509 1799.49 228.699 1799.49 Q222.889 1799.49 219.81 1794.91 Q216.755 1790.3 216.755 1781.58 Q216.755 1772.83 219.81 1768.24 Q222.889 1763.64 228.699 1763.64 Z" fill="#000000" fill-rule="nonzero" fill-opacity="1" /><path clip-path="url(#clip610)" d="M248.861 1792.94 L253.745 1792.94 L253.745 1798.82 L248.861 1798.82 L248.861 1792.94 Z" fill="#000000" fill-rule="nonzero" fill-opacity="1" /><path clip-path="url(#clip610)" d="M273.93 1767.34 Q270.319 1767.34 268.491 1770.9 Q266.685 1774.45 266.685 1781.58 Q266.685 1788.68 268.491 1792.25 Q270.319 1795.79 273.93 1795.79 Q277.565 1795.79 279.37 1792.25 Q281.199 1788.68 281.199 1781.58 Q281.199 1774.45 279.37 1770.9 Q277.565 1767.34 273.93 1767.34 M273.93 1763.64 Q279.741 1763.64 282.796 1768.24 Q285.875 1772.83 285.875 1781.58 Q285.875 1790.3 282.796 1794.91 Q279.741 1799.49 273.93 1799.49 Q268.12 1799.49 265.042 1794.91 Q261.986 1790.3 261.986 1781.58 Q261.986 1772.83 265.042 1768.24 Q268.12 1763.64 273.93 1763.64 Z" fill="#000000" fill-rule="nonzero" fill-opacity="1" /><path clip-path="url(#clip610)" d="M803.013 1794.89 L819.332 1794.89 L819.332 1798.82 L797.388 1798.82 L797.388 1794.89 Q800.05 1792.13 804.633 1787.5 Q809.239 1782.85 810.42 1781.51 Q812.665 1778.98 813.545 1777.25 Q814.448 1775.49 814.448 1773.8 Q814.448 1771.04 812.503 1769.31 Q810.582 1767.57 807.48 1767.57 Q805.281 1767.57 802.827 1768.34 Q800.397 1769.1 797.619 1770.65 L797.619 1765.93 Q800.443 1764.79 802.897 1764.21 Q805.35 1763.64 807.388 1763.64 Q812.758 1763.64 815.952 1766.32 Q819.147 1769.01 819.147 1773.5 Q819.147 1775.63 818.337 1777.55 Q817.55 1779.45 815.443 1782.04 Q814.864 1782.71 811.762 1785.93 Q808.661 1789.12 803.013 1794.89 Z" fill="#000000" fill-rule="nonzero" fill-opacity="1" /><path clip-path="url(#clip610)" d="M829.147 1792.94 L834.031 1792.94 L834.031 1798.82 L829.147 1798.82 L829.147 1792.94 Z" fill="#000000" fill-rule="nonzero" fill-opacity="1" /><path clip-path="url(#clip610)" d="M844.262 1764.26 L862.619 1764.26 L862.619 1768.2 L848.545 1768.2 L848.545 1776.67 Q849.563 1776.32 850.582 1776.16 Q851.6 1775.97 852.619 1775.97 Q858.406 1775.97 861.785 1779.15 Q865.165 1782.32 865.165 1787.73 Q865.165 1793.31 861.693 1796.41 Q858.221 1799.49 851.901 1799.49 Q849.725 1799.49 847.457 1799.12 Q845.211 1798.75 842.804 1798.01 L842.804 1793.31 Q844.887 1794.45 847.11 1795 Q849.332 1795.56 851.809 1795.56 Q855.813 1795.56 858.151 1793.45 Q860.489 1791.34 860.489 1787.73 Q860.489 1784.12 858.151 1782.02 Q855.813 1779.91 851.809 1779.91 Q849.934 1779.91 848.059 1780.33 Q846.207 1780.74 844.262 1781.62 L844.262 1764.26 Z" fill="#000000" fill-rule="nonzero" fill-opacity="1" /><path clip-path="url(#clip610)" d="M1378.4 1764.26 L1396.76 1764.26 L1396.76 1768.2 L1382.68 1768.2 L1382.68 1776.67 Q1383.7 1776.32 1384.72 1776.16 Q1385.74 1775.97 1386.76 1775.97 Q1392.55 1775.97 1395.93 1779.15 Q1399.3 1782.32 1399.3 1787.73 Q1399.3 1793.31 1395.83 1796.41 Q1392.36 1799.49 1386.04 1799.49 Q1383.87 1799.49 1381.6 1799.12 Q1379.35 1798.75 1376.94 1798.01 L1376.94 1793.31 Q1379.03 1794.45 1381.25 1795 Q1383.47 1795.56 1385.95 1795.56 Q1389.95 1795.56 1392.29 1793.45 Q1394.63 1791.34 1394.63 1787.73 Q1394.63 1784.12 1392.29 1782.02 Q1389.95 1779.91 1385.95 1779.91 Q1384.07 1779.91 1382.2 1780.33 Q1380.35 1780.74 1378.4 1781.62 L1378.4 1764.26 Z" fill="#000000" fill-rule="nonzero" fill-opacity="1" /><path clip-path="url(#clip610)" d="M1408.52 1792.94 L1413.4 1792.94 L1413.4 1798.82 L1408.52 1798.82 L1408.52 1792.94 Z" fill="#000000" fill-rule="nonzero" fill-opacity="1" /><path clip-path="url(#clip610)" d="M1433.59 1767.34 Q1429.98 1767.34 1428.15 1770.9 Q1426.34 1774.45 1426.34 1781.58 Q1426.34 1788.68 1428.15 1792.25 Q1429.98 1795.79 1433.59 1795.79 Q1437.22 1795.79 1439.03 1792.25 Q1440.86 1788.68 1440.86 1781.58 Q1440.86 1774.45 1439.03 1770.9 Q1437.22 1767.34 1433.59 1767.34 M1433.59 1763.64 Q1439.4 1763.64 1442.45 1768.24 Q1445.53 1772.83 1445.53 1781.58 Q1445.53 1790.3 1442.45 1794.91 Q1439.4 1799.49 1433.59 1799.49 Q1427.78 1799.49 1424.7 1794.91 Q1421.64 1790.3 1421.64 1781.58 Q1421.64 1772.83 1424.7 1768.24 Q1427.78 1763.64 1433.59 1763.64 Z" fill="#000000" fill-rule="nonzero" fill-opacity="1" /><path clip-path="url(#clip610)" d="M1957.52 1764.26 L1979.74 1764.26 L1979.74 1766.25 L1967.19 1798.82 L1962.31 1798.82 L1974.12 1768.2 L1957.52 1768.2 L1957.52 1764.26 Z" fill="#000000" fill-rule="nonzero" fill-opacity="1" /><path clip-path="url(#clip610)" d="M1988.86 1792.94 L1993.75 1792.94 L1993.75 1798.82 L1988.86 1798.82 L1988.86 1792.94 Z" fill="#000000" fill-rule="nonzero" fill-opacity="1" /><path clip-path="url(#clip610)" d="M2003.98 1764.26 L2022.33 1764.26 L2022.33 1768.2 L2008.26 1768.2 L2008.26 1776.67 Q2009.28 1776.32 2010.3 1776.16 Q2011.31 1775.97 2012.33 1775.97 Q2018.12 1775.97 2021.5 1779.15 Q2024.88 1782.32 2024.88 1787.73 Q2024.88 1793.31 2021.41 1796.41 Q2017.94 1799.49 2011.62 1799.49 Q2009.44 1799.49 2007.17 1799.12 Q2004.93 1798.75 2002.52 1798.01 L2002.52 1793.31 Q2004.6 1794.45 2006.82 1795 Q2009.05 1795.56 2011.52 1795.56 Q2015.53 1795.56 2017.87 1793.45 Q2020.2 1791.34 2020.2 1787.73 Q2020.2 1784.12 2017.87 1782.02 Q2015.53 1779.91 2011.52 1779.91 Q2009.65 1779.91 2007.77 1780.33 Q2005.92 1780.74 2003.98 1781.62 L2003.98 1764.26 Z" fill="#000000" fill-rule="nonzero" fill-opacity="1" /><path clip-path="url(#clip610)" d="M2523.23 1794.89 L2530.87 1794.89 L2530.87 1768.52 L2522.56 1770.19 L2522.56 1765.93 L2530.83 1764.26 L2535.5 1764.26 L2535.5 1794.89 L2543.14 1794.89 L2543.14 1798.82 L2523.23 1798.82 L2523.23 1794.89 Z" fill="#000000" fill-rule="nonzero" fill-opacity="1" /><path clip-path="url(#clip610)" d="M2562.58 1767.34 Q2558.97 1767.34 2557.14 1770.9 Q2555.34 1774.45 2555.34 1781.58 Q2555.34 1788.68 2557.14 1792.25 Q2558.97 1795.79 2562.58 1795.79 Q2566.22 1795.79 2568.02 1792.25 Q2569.85 1788.68 2569.85 1781.58 Q2569.85 1774.45 2568.02 1770.9 Q2566.22 1767.34 2562.58 1767.34 M2562.58 1763.64 Q2568.39 1763.64 2571.45 1768.24 Q2574.53 1772.83 2574.53 1781.58 Q2574.53 1790.3 2571.45 1794.91 Q2568.39 1799.49 2562.58 1799.49 Q2556.77 1799.49 2553.7 1794.91 Q2550.64 1790.3 2550.64 1781.58 Q2550.64 1772.83 2553.7 1768.24 Q2556.77 1763.64 2562.58 1763.64 Z" fill="#000000" fill-rule="nonzero" fill-opacity="1" /><path clip-path="url(#clip610)" d="M2582.75 1792.94 L2587.63 1792.94 L2587.63 1798.82 L2582.75 1798.82 L2582.75 1792.94 Z" fill="#000000" fill-rule="nonzero" fill-opacity="1" /><path clip-path="url(#clip610)" d="M2607.82 1767.34 Q2604.2 1767.34 2602.38 1770.9 Q2600.57 1774.45 2600.57 1781.58 Q2600.57 1788.68 2602.38 1792.25 Q2604.2 1795.79 2607.82 1795.79 Q2611.45 1795.79 2613.26 1792.25 Q2615.08 1788.68 2615.08 1781.58 Q2615.08 1774.45 2613.26 1770.9 Q2611.45 1767.34 2607.82 1767.34 M2607.82 1763.64 Q2613.63 1763.64 2616.68 1768.24 Q2619.76 1772.83 2619.76 1781.58 Q2619.76 1790.3 2616.68 1794.91 Q2613.63 1799.49 2607.82 1799.49 Q2602.01 1799.49 2598.93 1794.91 Q2595.87 1790.3 2595.87 1781.58 Q2595.87 1772.83 2598.93 1768.24 Q2602.01 1763.64 2607.82 1763.64 Z" fill="#000000" fill-rule="nonzero" fill-opacity="1" /><path clip-path="url(#clip610)" d="M1333.11 1835.78 L1373.31 1835.78 L1373.31 1841.19 L1356.44 1841.19 L1356.44 1883.3 L1349.98 1883.3 L1349.98 1841.19 L1333.11 1841.19 L1333.11 1835.78 Z" fill="#000000" fill-rule="nonzero" fill-opacity="1" /><path clip-path="url(#clip610)" d="M1377.26 1847.65 L1383.12 1847.65 L1383.12 1883.3 L1377.26 1883.3 L1377.26 1847.65 M1377.26 1833.78 L1383.12 1833.78 L1383.12 1841.19 L1377.26 1841.19 L1377.26 1833.78 Z" fill="#000000" fill-rule="nonzero" fill-opacity="1" /><path clip-path="url(#clip610)" d="M1423.13 1854.5 Q1425.32 1850.55 1428.38 1848.67 Q1431.43 1846.79 1435.57 1846.79 Q1441.14 1846.79 1444.16 1850.71 Q1447.19 1854.59 1447.19 1861.78 L1447.19 1883.3 L1441.3 1883.3 L1441.3 1861.98 Q1441.3 1856.85 1439.49 1854.37 Q1437.67 1851.89 1433.95 1851.89 Q1429.4 1851.89 1426.75 1854.91 Q1424.11 1857.93 1424.11 1863.15 L1424.11 1883.3 L1418.22 1883.3 L1418.22 1861.98 Q1418.22 1856.82 1416.41 1854.37 Q1414.6 1851.89 1410.81 1851.89 Q1406.32 1851.89 1403.68 1854.94 Q1401.04 1857.97 1401.04 1863.15 L1401.04 1883.3 L1395.15 1883.3 L1395.15 1847.65 L1401.04 1847.65 L1401.04 1853.19 Q1403.04 1849.91 1405.84 1848.35 Q1408.64 1846.79 1412.49 1846.79 Q1416.38 1846.79 1419.08 1848.77 Q1421.82 1850.74 1423.13 1854.5 Z" fill="#000000" fill-rule="nonzero" fill-opacity="1" /><path clip-path="url(#clip610)" d="M1489.36 1864.01 L1489.36 1866.88 L1462.43 1866.88 Q1462.82 1872.92 1466.06 1876.11 Q1469.34 1879.26 1475.17 1879.26 Q1478.54 1879.26 1481.69 1878.43 Q1484.87 1877.6 1487.99 1875.95 L1487.99 1881.49 Q1484.84 1882.82 1481.53 1883.52 Q1478.22 1884.22 1474.82 1884.22 Q1466.29 1884.22 1461.29 1879.26 Q1456.32 1874.29 1456.32 1865.83 Q1456.32 1857.07 1461.03 1851.95 Q1465.78 1846.79 1473.8 1846.79 Q1480.99 1846.79 1485.16 1851.44 Q1489.36 1856.06 1489.36 1864.01 M1483.5 1862.29 Q1483.44 1857.49 1480.8 1854.62 Q1478.19 1851.76 1473.86 1851.76 Q1468.96 1851.76 1466 1854.53 Q1463.07 1857.3 1462.62 1862.33 L1483.5 1862.29 Z" fill="#000000" fill-rule="nonzero" fill-opacity="1" /><polyline clip-path="url(#clip610)" style="stroke:#000000; stroke-linecap:round; stroke-linejoin:round; stroke-width:4; stroke-opacity:1; fill:none" points="181.719,1734.12 181.719,127.792 "/>
<polyline clip-path="url(#clip610)" style="stroke:#000000; stroke-linecap:round; stroke-linejoin:round; stroke-width:4; stroke-opacity:1; fill:none" points="181.719,1696.16 200.617,1696.16 "/>
<polyline clip-path="url(#clip610)" style="stroke:#000000; stroke-linecap:round; stroke-linejoin:round; stroke-width:4; stroke-opacity:1; fill:none" points="181.719,1393.97 200.617,1393.97 "/>
<polyline clip-path="url(#clip610)" style="stroke:#000000; stroke-linecap:round; stroke-linejoin:round; stroke-width:4; stroke-opacity:1; fill:none" points="181.719,1091.77 200.617,1091.77 "/>
<polyline clip-path="url(#clip610)" style="stroke:#000000; stroke-linecap:round; stroke-linejoin:round; stroke-width:4; stroke-opacity:1; fill:none" points="181.719,789.566 200.617,789.566 "/>
<polyline clip-path="url(#clip610)" style="stroke:#000000; stroke-linecap:round; stroke-linejoin:round; stroke-width:4; stroke-opacity:1; fill:none" points="181.719,487.366 200.617,487.366 "/>
<polyline clip-path="url(#clip610)" style="stroke:#000000; stroke-linecap:round; stroke-linejoin:round; stroke-width:4; stroke-opacity:1; fill:none" points="181.719,185.166 200.617,185.166 "/>
<path clip-path="url(#clip610)" d="M129.455 1681.96 Q125.844 1681.96 124.015 1685.53 Q122.21 1689.07 122.21 1696.2 Q122.21 1703.31 124.015 1706.87 Q125.844 1710.41 129.455 1710.41 Q133.089 1710.41 134.895 1706.87 Q136.724 1703.31 136.724 1696.2 Q136.724 1689.07 134.895 1685.53 Q133.089 1681.96 129.455 1681.96 M129.455 1678.26 Q135.265 1678.26 138.321 1682.87 Q141.399 1687.45 141.399 1696.2 Q141.399 1704.93 138.321 1709.53 Q135.265 1714.12 129.455 1714.12 Q123.645 1714.12 120.566 1709.53 Q117.511 1704.93 117.511 1696.2 Q117.511 1687.45 120.566 1682.87 Q123.645 1678.26 129.455 1678.26 Z" fill="#000000" fill-rule="nonzero" fill-opacity="1" /><path clip-path="url(#clip610)" d="M121.492 1407.31 L129.131 1407.31 L129.131 1380.94 L120.821 1382.61 L120.821 1378.35 L129.085 1376.69 L133.761 1376.69 L133.761 1407.31 L141.399 1407.31 L141.399 1411.25 L121.492 1411.25 L121.492 1407.31 Z" fill="#000000" fill-rule="nonzero" fill-opacity="1" /><path clip-path="url(#clip610)" d="M125.08 1105.11 L141.399 1105.11 L141.399 1109.05 L119.455 1109.05 L119.455 1105.11 Q122.117 1102.36 126.7 1097.73 Q131.307 1093.07 132.488 1091.73 Q134.733 1089.21 135.612 1087.47 Q136.515 1085.71 136.515 1084.02 Q136.515 1081.27 134.571 1079.53 Q132.65 1077.8 129.548 1077.8 Q127.349 1077.8 124.895 1078.56 Q122.464 1079.32 119.687 1080.87 L119.687 1076.15 Q122.511 1075.02 124.964 1074.44 Q127.418 1073.86 129.455 1073.86 Q134.825 1073.86 138.02 1076.55 Q141.214 1079.23 141.214 1083.72 Q141.214 1085.85 140.404 1087.77 Q139.617 1089.67 137.511 1092.26 Q136.932 1092.93 133.83 1096.15 Q130.728 1099.35 125.08 1105.11 Z" fill="#000000" fill-rule="nonzero" fill-opacity="1" /><path clip-path="url(#clip610)" d="M134.27 788.212 Q137.626 788.929 139.501 791.198 Q141.399 793.466 141.399 796.799 Q141.399 801.915 137.881 804.716 Q134.362 807.517 127.881 807.517 Q125.705 807.517 123.39 807.077 Q121.099 806.661 118.645 805.804 L118.645 801.29 Q120.589 802.424 122.904 803.003 Q125.219 803.582 127.742 803.582 Q132.14 803.582 134.432 801.846 Q136.747 800.11 136.747 796.799 Q136.747 793.744 134.594 792.031 Q132.464 790.295 128.645 790.295 L124.617 790.295 L124.617 786.452 L128.83 786.452 Q132.279 786.452 134.108 785.087 Q135.937 783.698 135.937 781.105 Q135.937 778.443 134.038 777.031 Q132.163 775.596 128.645 775.596 Q126.724 775.596 124.525 776.013 Q122.326 776.429 119.687 777.309 L119.687 773.142 Q122.349 772.401 124.663 772.031 Q127.001 771.661 129.062 771.661 Q134.386 771.661 137.487 774.091 Q140.589 776.499 140.589 780.619 Q140.589 783.489 138.946 785.48 Q137.302 787.448 134.27 788.212 Z" fill="#000000" fill-rule="nonzero" fill-opacity="1" /><path clip-path="url(#clip610)" d="M131.816 474.16 L120.011 492.609 L131.816 492.609 L131.816 474.16 M130.589 470.086 L136.469 470.086 L136.469 492.609 L141.399 492.609 L141.399 496.498 L136.469 496.498 L136.469 504.646 L131.816 504.646 L131.816 496.498 L116.214 496.498 L116.214 491.984 L130.589 470.086 Z" fill="#000000" fill-rule="nonzero" fill-opacity="1" /><path clip-path="url(#clip610)" d="M120.497 167.886 L138.853 167.886 L138.853 171.821 L124.779 171.821 L124.779 180.294 Q125.798 179.946 126.816 179.784 Q127.835 179.599 128.853 179.599 Q134.64 179.599 138.02 182.77 Q141.399 185.942 141.399 191.358 Q141.399 196.937 137.927 200.039 Q134.455 203.117 128.136 203.117 Q125.96 203.117 123.691 202.747 Q121.446 202.377 119.039 201.636 L119.039 196.937 Q121.122 198.071 123.344 198.627 Q125.566 199.182 128.043 199.182 Q132.048 199.182 134.386 197.076 Q136.724 194.969 136.724 191.358 Q136.724 187.747 134.386 185.641 Q132.048 183.534 128.043 183.534 Q126.168 183.534 124.293 183.951 Q122.441 184.368 120.497 185.247 L120.497 167.886 Z" fill="#000000" fill-rule="nonzero" fill-opacity="1" /><path clip-path="url(#clip610)" d="M47.5702 945.882 L25.9905 945.882 L25.9905 940.026 L47.3474 940.026 Q52.4082 940.026 54.9545 938.052 Q57.4689 936.079 57.4689 932.132 Q57.4689 927.39 54.4452 924.653 Q51.4215 921.883 46.2016 921.883 L25.9905 921.883 L25.9905 916.027 L61.6384 916.027 L61.6384 921.883 L56.1639 921.883 Q59.4104 924.016 61.0019 926.849 Q62.5615 929.65 62.5615 933.374 Q62.5615 939.516 58.742 942.699 Q54.9226 945.882 47.5702 945.882 M25.1311 931.146 L25.1311 931.146 Z" fill="#000000" fill-rule="nonzero" fill-opacity="1" /><path clip-path="url(#clip610)" d="M1207.54 12.096 L1258.7 12.096 L1258.7 18.9825 L1237.23 18.9825 L1237.23 72.576 L1229.01 72.576 L1229.01 18.9825 L1207.54 18.9825 L1207.54 12.096 Z" fill="#000000" fill-rule="nonzero" fill-opacity="1" /><path clip-path="url(#clip610)" d="M1280.37 34.1734 Q1279.12 33.4443 1277.62 33.1202 Q1276.16 32.7556 1274.38 32.7556 Q1268.06 32.7556 1264.66 36.8875 Q1261.29 40.9789 1261.29 48.6757 L1261.29 72.576 L1253.8 72.576 L1253.8 27.2059 L1261.29 27.2059 L1261.29 34.2544 Q1263.64 30.1225 1267.41 28.1376 Q1271.18 26.1121 1276.57 26.1121 Q1277.34 26.1121 1278.27 26.2337 Q1279.2 26.3147 1280.33 26.5172 L1280.37 34.1734 Z" fill="#000000" fill-rule="nonzero" fill-opacity="1" /><path clip-path="url(#clip610)" d="M1308.81 49.7694 Q1299.78 49.7694 1296.29 51.8354 Q1292.81 53.9013 1292.81 58.8839 Q1292.81 62.8538 1295.4 65.2034 Q1298.04 67.5124 1302.53 67.5124 Q1308.73 67.5124 1312.46 63.1374 Q1316.22 58.7219 1316.22 51.4303 L1316.22 49.7694 L1308.81 49.7694 M1323.68 46.6907 L1323.68 72.576 L1316.22 72.576 L1316.22 65.6895 Q1313.67 69.8214 1309.86 71.8063 Q1306.06 73.7508 1300.55 73.7508 Q1293.58 73.7508 1289.45 69.8619 Q1285.36 65.9325 1285.36 59.3701 Q1285.36 51.7138 1290.46 47.825 Q1295.6 43.9361 1305.77 43.9361 L1316.22 43.9361 L1316.22 43.2069 Q1316.22 38.0623 1312.82 35.2672 Q1309.46 32.4315 1303.34 32.4315 Q1299.45 32.4315 1295.77 33.3632 Q1292.08 34.295 1288.68 36.1584 L1288.68 29.2718 Q1292.77 27.692 1296.62 26.9223 Q1300.47 26.1121 1304.11 26.1121 Q1313.96 26.1121 1318.82 31.2163 Q1323.68 36.3204 1323.68 46.6907 Z" fill="#000000" fill-rule="nonzero" fill-opacity="1" /><path clip-path="url(#clip610)" d="M1339.03 27.2059 L1346.48 27.2059 L1346.48 73.3862 Q1346.48 82.0551 1343.16 85.944 Q1339.88 89.8329 1332.55 89.8329 L1329.71 89.8329 L1329.71 83.5134 L1331.7 83.5134 Q1335.95 83.5134 1337.49 81.5285 Q1339.03 79.5841 1339.03 73.3862 L1339.03 27.2059 M1339.03 9.54393 L1346.48 9.54393 L1346.48 18.9825 L1339.03 18.9825 L1339.03 9.54393 Z" fill="#000000" fill-rule="nonzero" fill-opacity="1" /><path clip-path="url(#clip610)" d="M1400.89 48.0275 L1400.89 51.6733 L1366.62 51.6733 Q1367.1 59.3701 1371.24 63.421 Q1375.41 67.4314 1382.82 67.4314 Q1387.11 67.4314 1391.12 66.3781 Q1395.18 65.3249 1399.15 63.2184 L1399.15 70.267 Q1395.14 71.9684 1390.92 72.8596 Q1386.71 73.7508 1382.38 73.7508 Q1371.52 73.7508 1365.16 67.4314 Q1358.84 61.1119 1358.84 50.3365 Q1358.84 39.1965 1364.83 32.6746 Q1370.87 26.1121 1381.08 26.1121 Q1390.23 26.1121 1395.54 32.0264 Q1400.89 37.9003 1400.89 48.0275 M1393.43 45.84 Q1393.35 39.7232 1389.99 36.0774 Q1386.67 32.4315 1381.16 32.4315 Q1374.92 32.4315 1371.15 35.9558 Q1367.43 39.4801 1366.86 45.8805 L1393.43 45.84 Z" fill="#000000" fill-rule="nonzero" fill-opacity="1" /><path clip-path="url(#clip610)" d="M1445.77 28.9478 L1445.77 35.9153 Q1442.61 34.1734 1439.41 33.3227 Q1436.25 32.4315 1433.01 32.4315 Q1425.76 32.4315 1421.75 37.0496 Q1417.74 41.6271 1417.74 49.9314 Q1417.74 58.2358 1421.75 62.8538 Q1425.76 67.4314 1433.01 67.4314 Q1436.25 67.4314 1439.41 66.5807 Q1442.61 65.6895 1445.77 63.9476 L1445.77 70.8341 Q1442.65 72.2924 1439.29 73.0216 Q1435.97 73.7508 1432.2 73.7508 Q1421.95 73.7508 1415.92 67.3098 Q1409.88 60.8689 1409.88 49.9314 Q1409.88 38.832 1415.96 32.472 Q1422.07 26.1121 1432.69 26.1121 Q1436.13 26.1121 1439.41 26.8413 Q1442.69 27.5299 1445.77 28.9478 Z" fill="#000000" fill-rule="nonzero" fill-opacity="1" /><path clip-path="url(#clip610)" d="M1466.11 14.324 L1466.11 27.2059 L1481.46 27.2059 L1481.46 32.9987 L1466.11 32.9987 L1466.11 57.6282 Q1466.11 63.1779 1467.61 64.7578 Q1469.15 66.3376 1473.8 66.3376 L1481.46 66.3376 L1481.46 72.576 L1473.8 72.576 Q1465.18 72.576 1461.89 69.3758 Q1458.61 66.1351 1458.61 57.6282 L1458.61 32.9987 L1453.14 32.9987 L1453.14 27.2059 L1458.61 27.2059 L1458.61 14.324 L1466.11 14.324 Z" fill="#000000" fill-rule="nonzero" fill-opacity="1" /><path clip-path="url(#clip610)" d="M1508.84 32.4315 Q1502.85 32.4315 1499.37 37.1306 Q1495.88 41.7891 1495.88 49.9314 Q1495.88 58.0738 1499.32 62.7728 Q1502.81 67.4314 1508.84 67.4314 Q1514.8 67.4314 1518.28 62.7323 Q1521.77 58.0333 1521.77 49.9314 Q1521.77 41.8701 1518.28 37.1711 Q1514.8 32.4315 1508.84 32.4315 M1508.84 26.1121 Q1518.57 26.1121 1524.12 32.4315 Q1529.67 38.7509 1529.67 49.9314 Q1529.67 61.0714 1524.12 67.4314 Q1518.57 73.7508 1508.84 73.7508 Q1499.08 73.7508 1493.53 67.4314 Q1488.02 61.0714 1488.02 49.9314 Q1488.02 38.7509 1493.53 32.4315 Q1499.08 26.1121 1508.84 26.1121 Z" fill="#000000" fill-rule="nonzero" fill-opacity="1" /><path clip-path="url(#clip610)" d="M1568.31 34.1734 Q1567.06 33.4443 1565.56 33.1202 Q1564.1 32.7556 1562.32 32.7556 Q1556 32.7556 1552.59 36.8875 Q1549.23 40.9789 1549.23 48.6757 L1549.23 72.576 L1541.74 72.576 L1541.74 27.2059 L1549.23 27.2059 L1549.23 34.2544 Q1551.58 30.1225 1555.35 28.1376 Q1559.12 26.1121 1564.5 26.1121 Q1565.27 26.1121 1566.21 26.2337 Q1567.14 26.3147 1568.27 26.5172 L1568.31 34.1734 Z" fill="#000000" fill-rule="nonzero" fill-opacity="1" /><path clip-path="url(#clip610)" d="M1595.01 76.7889 Q1591.85 84.8907 1588.85 87.3618 Q1585.85 89.8329 1580.83 89.8329 L1574.87 89.8329 L1574.87 83.5945 L1579.25 83.5945 Q1582.33 83.5945 1584.03 82.1361 Q1585.73 80.6778 1587.8 75.2496 L1589.13 71.8468 L1570.78 27.2059 L1578.68 27.2059 L1592.86 62.6918 L1607.04 27.2059 L1614.94 27.2059 L1595.01 76.7889 Z" fill="#000000" fill-rule="nonzero" fill-opacity="1" /><circle clip-path="url(#clip611)" cx="251.315" cy="173.254" r="14.4" fill="#009af9" fill-rule="evenodd" fill-opacity="0.6" stroke="#000000" stroke-opacity="0.6" stroke-width="3.84"/>
<circle clip-path="url(#clip611)" cx="367.307" cy="532.693" r="14.4" fill="#009af9" fill-rule="evenodd" fill-opacity="0.6" stroke="#000000" stroke-opacity="0.6" stroke-width="3.84"/>
<circle clip-path="url(#clip611)" cx="483.299" cy="792.901" r="14.4" fill="#009af9" fill-rule="evenodd" fill-opacity="0.6" stroke="#000000" stroke-opacity="0.6" stroke-width="3.84"/>
<circle clip-path="url(#clip611)" cx="599.292" cy="993.5" r="14.4" fill="#009af9" fill-rule="evenodd" fill-opacity="0.6" stroke="#000000" stroke-opacity="0.6" stroke-width="3.84"/>
<circle clip-path="url(#clip611)" cx="715.284" cy="1150.91" r="14.4" fill="#009af9" fill-rule="evenodd" fill-opacity="0.6" stroke="#000000" stroke-opacity="0.6" stroke-width="3.84"/>
<circle clip-path="url(#clip611)" cx="831.276" cy="1264.35" r="14.4" fill="#009af9" fill-rule="evenodd" fill-opacity="0.6" stroke="#000000" stroke-opacity="0.6" stroke-width="3.84"/>
<circle clip-path="url(#clip611)" cx="947.269" cy="1372.81" r="14.4" fill="#009af9" fill-rule="evenodd" fill-opacity="0.6" stroke="#000000" stroke-opacity="0.6" stroke-width="3.84"/>
<circle clip-path="url(#clip611)" cx="1063.26" cy="1424.05" r="14.4" fill="#009af9" fill-rule="evenodd" fill-opacity="0.6" stroke="#000000" stroke-opacity="0.6" stroke-width="3.84"/>
<circle clip-path="url(#clip611)" cx="1179.25" cy="1469.94" r="14.4" fill="#009af9" fill-rule="evenodd" fill-opacity="0.6" stroke="#000000" stroke-opacity="0.6" stroke-width="3.84"/>
<circle clip-path="url(#clip611)" cx="1295.25" cy="1542.26" r="14.4" fill="#009af9" fill-rule="evenodd" fill-opacity="0.6" stroke="#000000" stroke-opacity="0.6" stroke-width="3.84"/>
<circle clip-path="url(#clip611)" cx="1411.24" cy="1560.11" r="14.4" fill="#009af9" fill-rule="evenodd" fill-opacity="0.6" stroke="#000000" stroke-opacity="0.6" stroke-width="3.84"/>
<circle clip-path="url(#clip611)" cx="1527.23" cy="1617.33" r="14.4" fill="#009af9" fill-rule="evenodd" fill-opacity="0.6" stroke="#000000" stroke-opacity="0.6" stroke-width="3.84"/>
<circle clip-path="url(#clip611)" cx="1643.22" cy="1629.9" r="14.4" fill="#009af9" fill-rule="evenodd" fill-opacity="0.6" stroke="#000000" stroke-opacity="0.6" stroke-width="3.84"/>
<circle clip-path="url(#clip611)" cx="1759.21" cy="1631.09" r="14.4" fill="#009af9" fill-rule="evenodd" fill-opacity="0.6" stroke="#000000" stroke-opacity="0.6" stroke-width="3.84"/>
<circle clip-path="url(#clip611)" cx="1875.21" cy="1636.15" r="14.4" fill="#009af9" fill-rule="evenodd" fill-opacity="0.6" stroke="#000000" stroke-opacity="0.6" stroke-width="3.84"/>
<circle clip-path="url(#clip611)" cx="1991.2" cy="1658.68" r="14.4" fill="#009af9" fill-rule="evenodd" fill-opacity="0.6" stroke="#000000" stroke-opacity="0.6" stroke-width="3.84"/>
<circle clip-path="url(#clip611)" cx="2107.19" cy="1672.94" r="14.4" fill="#009af9" fill-rule="evenodd" fill-opacity="0.6" stroke="#000000" stroke-opacity="0.6" stroke-width="3.84"/>
<circle clip-path="url(#clip611)" cx="2223.18" cy="1680.27" r="14.4" fill="#009af9" fill-rule="evenodd" fill-opacity="0.6" stroke="#000000" stroke-opacity="0.6" stroke-width="3.84"/>
<circle clip-path="url(#clip611)" cx="2339.18" cy="1661.71" r="14.4" fill="#009af9" fill-rule="evenodd" fill-opacity="0.6" stroke="#000000" stroke-opacity="0.6" stroke-width="3.84"/>
<circle clip-path="url(#clip611)" cx="2455.17" cy="1679.21" r="14.4" fill="#009af9" fill-rule="evenodd" fill-opacity="0.6" stroke="#000000" stroke-opacity="0.6" stroke-width="3.84"/>
<circle clip-path="url(#clip611)" cx="2571.16" cy="1682.95" r="14.4" fill="#009af9" fill-rule="evenodd" fill-opacity="0.6" stroke="#000000" stroke-opacity="0.6" stroke-width="3.84"/>
<polyline clip-path="url(#clip611)" style="stroke:#e26f46; stroke-linecap:round; stroke-linejoin:round; stroke-width:8; stroke-opacity:1; fill:none" points="251.315,185.166 367.307,523.926 483.299,786.392 599.292,989.746 715.284,1147.3 831.276,1269.38 947.269,1363.96 1063.26,1437.25 1179.25,1494.03 1295.25,1538.02 1411.24,1572.11 1527.23,1598.52 1643.22,1618.98 1759.21,1634.84 1875.21,1647.12 1991.2,1656.64 2107.19,1664.01 2223.18,1669.73 2339.18,1674.15 2455.17,1677.58 2571.16,1680.24 "/>
<polyline clip-path="url(#clip611)" style="stroke:#3da44d; stroke-linecap:round; stroke-linejoin:round; stroke-width:8; stroke-opacity:1; fill:none" stroke-dasharray="32, 20" points="251.315,185.166 367.307,384.957 483.299,627.116 599.292,866.196 715.284,1103.24 831.276,1273.95 947.269,1381.32 1063.26,1451.52 1179.25,1501.38 1295.25,1539.13 1411.24,1568.84 1527.23,1592.8 1643.22,1612.45 1759.21,1628.71 1875.21,1642.28 1991.2,1653.66 2107.19,1663.22 2223.18,1671.27 2339.18,1678.07 2455.17,1683.81 2571.16,1688.65 "/>
<polyline clip-path="url(#clip611)" style="stroke:#c271d2; stroke-linecap:round; stroke-linejoin:round; stroke-width:8; stroke-opacity:1; fill:none" stroke-dasharray="4, 8" points="251.315,185.166 367.307,527.516 483.299,790.19 599.292,992.159 715.284,1147.95 831.276,1268.54 947.269,1362.17 1063.26,1434.99 1179.25,1491.7 1295.25,1535.89 1411.24,1570.34 1527.23,1597.2 1643.22,1618.15 1759.21,1634.49 1875.21,1647.24 1991.2,1657.18 2107.19,1664.93 2223.18,1670.98 2339.18,1675.7 2455.17,1679.39 2571.16,1682.26 "/>
<path clip-path="url(#clip610)" d="M2036.08 440.536 L2558.79 440.536 L2558.79 181.336 L2036.08 181.336  Z" fill="#ffffff" fill-rule="evenodd" fill-opacity="1"/>
<polyline clip-path="url(#clip610)" style="stroke:#000000; stroke-linecap:round; stroke-linejoin:round; stroke-width:4; stroke-opacity:1; fill:none" points="2036.08,440.536 2558.79,440.536 2558.79,181.336 2036.08,181.336 2036.08,440.536 "/>
<circle clip-path="url(#clip610)" cx="2145.37" cy="233.176" r="20.48" fill="#009af9" fill-rule="evenodd" fill-opacity="0.6" stroke="#000000" stroke-opacity="0.6" stroke-width="5.46133"/>
<path clip-path="url(#clip610)" d="M2259.34 219.739 L2259.34 246.614 L2264.99 246.614 Q2272.14 246.614 2275.45 243.373 Q2278.78 240.132 2278.78 233.142 Q2278.78 226.197 2275.45 222.98 Q2272.14 219.739 2264.99 219.739 L2259.34 219.739 M2254.66 215.896 L2264.27 215.896 Q2274.31 215.896 2279.01 220.086 Q2283.71 224.253 2283.71 233.142 Q2283.71 242.077 2278.99 246.266 Q2274.27 250.456 2264.27 250.456 L2254.66 250.456 L2254.66 215.896 Z" fill="#000000" fill-rule="nonzero" fill-opacity="1" /><path clip-path="url(#clip610)" d="M2302.76 237.424 Q2297.6 237.424 2295.61 238.604 Q2293.62 239.785 2293.62 242.632 Q2293.62 244.901 2295.1 246.243 Q2296.61 247.563 2299.17 247.563 Q2302.72 247.563 2304.85 245.063 Q2307 242.54 2307 238.373 L2307 237.424 L2302.76 237.424 M2311.26 235.665 L2311.26 250.456 L2307 250.456 L2307 246.521 Q2305.54 248.882 2303.36 250.016 Q2301.19 251.128 2298.04 251.128 Q2294.06 251.128 2291.7 248.905 Q2289.36 246.66 2289.36 242.91 Q2289.36 238.535 2292.28 236.313 Q2295.22 234.091 2301.03 234.091 L2307 234.091 L2307 233.674 Q2307 230.734 2305.05 229.137 Q2303.13 227.517 2299.64 227.517 Q2297.42 227.517 2295.31 228.049 Q2293.2 228.581 2291.26 229.646 L2291.26 225.711 Q2293.6 224.808 2295.8 224.368 Q2297.99 223.906 2300.08 223.906 Q2305.7 223.906 2308.48 226.822 Q2311.26 229.739 2311.26 235.665 Z" fill="#000000" fill-rule="nonzero" fill-opacity="1" /><path clip-path="url(#clip610)" d="M2324.24 217.169 L2324.24 224.531 L2333.02 224.531 L2333.02 227.841 L2324.24 227.841 L2324.24 241.915 Q2324.24 245.086 2325.1 245.989 Q2325.98 246.891 2328.64 246.891 L2333.02 246.891 L2333.02 250.456 L2328.64 250.456 Q2323.71 250.456 2321.84 248.628 Q2319.96 246.776 2319.96 241.915 L2319.96 227.841 L2316.84 227.841 L2316.84 224.531 L2319.96 224.531 L2319.96 217.169 L2324.24 217.169 Z" fill="#000000" fill-rule="nonzero" fill-opacity="1" /><path clip-path="url(#clip610)" d="M2350.4 237.424 Q2345.24 237.424 2343.25 238.604 Q2341.26 239.785 2341.26 242.632 Q2341.26 244.901 2342.74 246.243 Q2344.24 247.563 2346.81 247.563 Q2350.36 247.563 2352.48 245.063 Q2354.64 242.54 2354.64 238.373 L2354.64 237.424 L2350.4 237.424 M2358.9 235.665 L2358.9 250.456 L2354.64 250.456 L2354.64 246.521 Q2353.18 248.882 2351 250.016 Q2348.83 251.128 2345.68 251.128 Q2341.7 251.128 2339.34 248.905 Q2337 246.66 2337 242.91 Q2337 238.535 2339.92 236.313 Q2342.86 234.091 2348.67 234.091 L2354.64 234.091 L2354.64 233.674 Q2354.64 230.734 2352.69 229.137 Q2350.77 227.517 2347.28 227.517 Q2345.05 227.517 2342.95 228.049 Q2340.84 228.581 2338.9 229.646 L2338.9 225.711 Q2341.23 224.808 2343.43 224.368 Q2345.63 223.906 2347.72 223.906 Q2353.34 223.906 2356.12 226.822 Q2358.9 229.739 2358.9 235.665 Z" fill="#000000" fill-rule="nonzero" fill-opacity="1" /><polyline clip-path="url(#clip610)" style="stroke:#e26f46; stroke-linecap:round; stroke-linejoin:round; stroke-width:8; stroke-opacity:1; fill:none" points="2063.4,285.016 2227.34,285.016 "/>
<path clip-path="url(#clip610)" d="M2254.66 267.736 L2260.96 267.736 L2276.28 296.648 L2276.28 267.736 L2280.82 267.736 L2280.82 302.296 L2274.52 302.296 L2259.2 273.384 L2259.2 302.296 L2254.66 302.296 L2254.66 267.736 Z" fill="#000000" fill-rule="nonzero" fill-opacity="1" /><path clip-path="url(#clip610)" d="M2312.11 288.269 L2312.11 290.352 L2292.53 290.352 Q2292.81 294.75 2295.17 297.065 Q2297.55 299.356 2301.79 299.356 Q2304.24 299.356 2306.54 298.755 Q2308.85 298.153 2311.12 296.949 L2311.12 300.977 Q2308.83 301.949 2306.42 302.458 Q2304.01 302.968 2301.54 302.968 Q2295.33 302.968 2291.7 299.356 Q2288.09 295.745 2288.09 289.588 Q2288.09 283.222 2291.51 279.495 Q2294.96 275.746 2300.8 275.746 Q2306.03 275.746 2309.06 279.125 Q2312.11 282.482 2312.11 288.269 M2307.86 287.019 Q2307.81 283.523 2305.89 281.44 Q2303.99 279.357 2300.84 279.357 Q2297.28 279.357 2295.12 281.37 Q2292.99 283.384 2292.67 287.042 L2307.86 287.019 Z" fill="#000000" fill-rule="nonzero" fill-opacity="1" /><path clip-path="url(#clip610)" d="M2319.11 266.278 L2323.36 266.278 L2323.36 302.296 L2319.11 302.296 L2319.11 266.278 Z" fill="#000000" fill-rule="nonzero" fill-opacity="1" /><path clip-path="url(#clip610)" d="M2349.34 280.306 L2349.34 266.278 L2353.6 266.278 L2353.6 302.296 L2349.34 302.296 L2349.34 298.407 Q2347.99 300.722 2345.93 301.856 Q2343.9 302.968 2341.03 302.968 Q2336.33 302.968 2333.36 299.218 Q2330.42 295.468 2330.42 289.357 Q2330.42 283.245 2333.36 279.495 Q2336.33 275.746 2341.03 275.746 Q2343.9 275.746 2345.93 276.88 Q2347.99 277.991 2349.34 280.306 M2334.82 289.357 Q2334.82 294.056 2336.74 296.741 Q2338.69 299.403 2342.07 299.403 Q2345.45 299.403 2347.39 296.741 Q2349.34 294.056 2349.34 289.357 Q2349.34 284.657 2347.39 281.995 Q2345.45 279.31 2342.07 279.31 Q2338.69 279.31 2336.74 281.995 Q2334.82 284.657 2334.82 289.357 Z" fill="#000000" fill-rule="nonzero" fill-opacity="1" /><path clip-path="url(#clip610)" d="M2384.54 288.269 L2384.54 290.352 L2364.96 290.352 Q2365.24 294.75 2367.6 297.065 Q2369.98 299.356 2374.22 299.356 Q2376.67 299.356 2378.97 298.755 Q2381.28 298.153 2383.55 296.949 L2383.55 300.977 Q2381.26 301.949 2378.85 302.458 Q2376.44 302.968 2373.97 302.968 Q2367.76 302.968 2364.13 299.356 Q2360.52 295.745 2360.52 289.588 Q2360.52 283.222 2363.94 279.495 Q2367.39 275.746 2373.23 275.746 Q2378.46 275.746 2381.49 279.125 Q2384.54 282.482 2384.54 288.269 M2380.29 287.019 Q2380.24 283.523 2378.32 281.44 Q2376.42 279.357 2373.27 279.357 Q2369.71 279.357 2367.55 281.37 Q2365.42 283.384 2365.1 287.042 L2380.29 287.019 Z" fill="#000000" fill-rule="nonzero" fill-opacity="1" /><path clip-path="url(#clip610)" d="M2406.56 280.352 Q2405.84 279.935 2404.98 279.75 Q2404.15 279.542 2403.13 279.542 Q2399.52 279.542 2397.58 281.903 Q2395.66 284.241 2395.66 288.639 L2395.66 302.296 L2391.37 302.296 L2391.37 276.371 L2395.66 276.371 L2395.66 280.398 Q2397 278.037 2399.15 276.903 Q2401.3 275.746 2404.38 275.746 Q2404.82 275.746 2405.35 275.815 Q2405.89 275.861 2406.54 275.977 L2406.56 280.352 Z" fill="#000000" fill-rule="nonzero" fill-opacity="1" /><path clip-path="url(#clip610)" d="M2411.21 267.736 L2418.18 267.736 L2427 291.255 L2435.86 267.736 L2442.83 267.736 L2442.83 302.296 L2438.27 302.296 L2438.27 271.949 L2429.36 295.653 L2424.66 295.653 L2415.75 271.949 L2415.75 302.296 L2411.21 302.296 L2411.21 267.736 Z" fill="#000000" fill-rule="nonzero" fill-opacity="1" /><path clip-path="url(#clip610)" d="M2474.1 288.269 L2474.1 290.352 L2454.52 290.352 Q2454.8 294.75 2457.16 297.065 Q2459.54 299.356 2463.78 299.356 Q2466.23 299.356 2468.53 298.755 Q2470.84 298.153 2473.11 296.949 L2473.11 300.977 Q2470.82 301.949 2468.41 302.458 Q2466 302.968 2463.53 302.968 Q2457.32 302.968 2453.69 299.356 Q2450.08 295.745 2450.08 289.588 Q2450.08 283.222 2453.5 279.495 Q2456.95 275.746 2462.79 275.746 Q2468.02 275.746 2471.05 279.125 Q2474.1 282.482 2474.1 288.269 M2469.85 287.019 Q2469.8 283.523 2467.88 281.44 Q2465.98 279.357 2462.83 279.357 Q2459.27 279.357 2457.11 281.37 Q2454.98 283.384 2454.66 287.042 L2469.85 287.019 Z" fill="#000000" fill-rule="nonzero" fill-opacity="1" /><path clip-path="url(#clip610)" d="M2492.88 289.264 Q2487.72 289.264 2485.72 290.444 Q2483.73 291.625 2483.73 294.472 Q2483.73 296.741 2485.22 298.083 Q2486.72 299.403 2489.29 299.403 Q2492.83 299.403 2494.96 296.903 Q2497.11 294.38 2497.11 290.213 L2497.11 289.264 L2492.88 289.264 M2501.37 287.505 L2501.37 302.296 L2497.11 302.296 L2497.11 298.361 Q2495.66 300.722 2493.48 301.856 Q2491.3 302.968 2488.16 302.968 Q2484.17 302.968 2481.81 300.745 Q2479.47 298.5 2479.47 294.75 Q2479.47 290.375 2482.39 288.153 Q2485.33 285.931 2491.14 285.931 L2497.11 285.931 L2497.11 285.514 Q2497.11 282.574 2495.17 280.977 Q2493.25 279.357 2489.75 279.357 Q2487.53 279.357 2485.42 279.889 Q2483.32 280.421 2481.37 281.486 L2481.37 277.551 Q2483.71 276.648 2485.91 276.208 Q2488.11 275.746 2490.19 275.746 Q2495.82 275.746 2498.6 278.662 Q2501.37 281.579 2501.37 287.505 Z" fill="#000000" fill-rule="nonzero" fill-opacity="1" /><path clip-path="url(#clip610)" d="M2527.21 280.306 L2527.21 266.278 L2531.47 266.278 L2531.47 302.296 L2527.21 302.296 L2527.21 298.407 Q2525.86 300.722 2523.8 301.856 Q2521.77 302.968 2518.9 302.968 Q2514.2 302.968 2511.23 299.218 Q2508.29 295.468 2508.29 289.357 Q2508.29 283.245 2511.23 279.495 Q2514.2 275.746 2518.9 275.746 Q2521.77 275.746 2523.8 276.88 Q2525.86 277.991 2527.21 280.306 M2512.69 289.357 Q2512.69 294.056 2514.61 296.741 Q2516.56 299.403 2519.94 299.403 Q2523.32 299.403 2525.26 296.741 Q2527.21 294.056 2527.21 289.357 Q2527.21 284.657 2525.26 281.995 Q2523.32 279.31 2519.94 279.31 Q2516.56 279.31 2514.61 281.995 Q2512.69 284.657 2512.69 289.357 Z" fill="#000000" fill-rule="nonzero" fill-opacity="1" /><polyline clip-path="url(#clip610)" style="stroke:#3da44d; stroke-linecap:round; stroke-linejoin:round; stroke-width:8; stroke-opacity:1; fill:none" stroke-dasharray="32, 20" points="2063.4,336.856 2227.34,336.856 "/>
<path clip-path="url(#clip610)" d="M2270.49 324.183 L2264.15 341.382 L2276.86 341.382 L2270.49 324.183 M2267.86 319.576 L2273.16 319.576 L2286.33 354.136 L2281.47 354.136 L2278.32 345.271 L2262.74 345.271 L2259.59 354.136 L2254.66 354.136 L2267.86 319.576 Z" fill="#000000" fill-rule="nonzero" fill-opacity="1" /><path clip-path="url(#clip610)" d="M2307.42 332.146 L2307.42 318.118 L2311.67 318.118 L2311.67 354.136 L2307.42 354.136 L2307.42 350.247 Q2306.07 352.562 2304.01 353.696 Q2301.98 354.808 2299.11 354.808 Q2294.41 354.808 2291.44 351.058 Q2288.5 347.308 2288.5 341.197 Q2288.5 335.085 2291.44 331.335 Q2294.41 327.586 2299.11 327.586 Q2301.98 327.586 2304.01 328.72 Q2306.07 329.831 2307.42 332.146 M2292.9 341.197 Q2292.9 345.896 2294.82 348.581 Q2296.77 351.243 2300.15 351.243 Q2303.53 351.243 2305.47 348.581 Q2307.42 345.896 2307.42 341.197 Q2307.42 336.497 2305.47 333.835 Q2303.53 331.15 2300.15 331.15 Q2296.77 331.15 2294.82 333.835 Q2292.9 336.497 2292.9 341.197 Z" fill="#000000" fill-rule="nonzero" fill-opacity="1" /><path clip-path="url(#clip610)" d="M2332.23 341.104 Q2327.07 341.104 2325.08 342.284 Q2323.09 343.465 2323.09 346.312 Q2323.09 348.581 2324.57 349.923 Q2326.07 351.243 2328.64 351.243 Q2332.18 351.243 2334.31 348.743 Q2336.47 346.22 2336.47 342.053 L2336.47 341.104 L2332.23 341.104 M2340.73 339.345 L2340.73 354.136 L2336.47 354.136 L2336.47 350.201 Q2335.01 352.562 2332.83 353.696 Q2330.66 354.808 2327.51 354.808 Q2323.53 354.808 2321.17 352.585 Q2318.83 350.34 2318.83 346.59 Q2318.83 342.215 2321.74 339.993 Q2324.68 337.771 2330.49 337.771 L2336.47 337.771 L2336.47 337.354 Q2336.47 334.414 2334.52 332.817 Q2332.6 331.197 2329.11 331.197 Q2326.88 331.197 2324.78 331.729 Q2322.67 332.261 2320.73 333.326 L2320.73 329.391 Q2323.06 328.488 2325.26 328.048 Q2327.46 327.586 2329.55 327.586 Q2335.17 327.586 2337.95 330.502 Q2340.73 333.419 2340.73 339.345 Z" fill="#000000" fill-rule="nonzero" fill-opacity="1" /><path clip-path="url(#clip610)" d="M2369.68 333.187 Q2371.28 330.317 2373.5 328.951 Q2375.73 327.586 2378.73 327.586 Q2382.79 327.586 2384.98 330.433 Q2387.18 333.257 2387.18 338.488 L2387.18 354.136 L2382.9 354.136 L2382.9 338.627 Q2382.9 334.9 2381.58 333.095 Q2380.26 331.289 2377.55 331.289 Q2374.24 331.289 2372.32 333.488 Q2370.4 335.687 2370.4 339.484 L2370.4 354.136 L2366.12 354.136 L2366.12 338.627 Q2366.12 334.877 2364.8 333.095 Q2363.48 331.289 2360.73 331.289 Q2357.46 331.289 2355.54 333.511 Q2353.62 335.71 2353.62 339.484 L2353.62 354.136 L2349.34 354.136 L2349.34 328.211 L2353.62 328.211 L2353.62 332.238 Q2355.08 329.854 2357.11 328.72 Q2359.15 327.586 2361.95 327.586 Q2364.78 327.586 2366.74 329.021 Q2368.73 330.456 2369.68 333.187 Z" fill="#000000" fill-rule="nonzero" fill-opacity="1" /><polyline clip-path="url(#clip610)" style="stroke:#c271d2; stroke-linecap:round; stroke-linejoin:round; stroke-width:8; stroke-opacity:1; fill:none" stroke-dasharray="4, 8" points="2063.4,388.696 2227.34,388.696 "/>
<path clip-path="url(#clip610)" d="M2254.66 371.416 L2259.34 371.416 L2259.34 402.041 L2276.17 402.041 L2276.17 405.976 L2254.66 405.976 L2254.66 371.416 Z" fill="#000000" fill-rule="nonzero" fill-opacity="1" /><path clip-path="url(#clip610)" d="M2293.71 376.023 L2287.37 393.222 L2300.08 393.222 L2293.71 376.023 M2291.07 371.416 L2296.37 371.416 L2309.55 405.976 L2304.68 405.976 L2301.54 397.111 L2285.96 397.111 L2282.81 405.976 L2277.88 405.976 L2291.07 371.416 Z" fill="#000000" fill-rule="nonzero" fill-opacity="1" /><path clip-path="url(#clip610)" d="M2314.59 371.416 L2321.56 371.416 L2330.38 394.935 L2339.24 371.416 L2346.21 371.416 L2346.21 405.976 L2341.65 405.976 L2341.65 375.629 L2332.74 399.333 L2328.04 399.333 L2319.13 375.629 L2319.13 405.976 L2314.59 405.976 L2314.59 371.416 Z" fill="#000000" fill-rule="nonzero" fill-opacity="1" /><path clip-path="url(#clip610)" d="M2355.49 371.416 L2360.17 371.416 L2360.17 402.041 L2377 402.041 L2377 405.976 L2355.49 405.976 L2355.49 371.416 Z" fill="#000000" fill-rule="nonzero" fill-opacity="1" /></svg>
