<?xml version="1.0" encoding="utf-8"?>
<svg xmlns="http://www.w3.org/2000/svg" xmlns:xlink="http://www.w3.org/1999/xlink" width="672" height="480" viewBox="0 0 2688 1920">
<defs>
  <clipPath id="clip770">
    <rect x="0" y="0" width="2688" height="1920"/>
  </clipPath>
</defs>
<path clip-path="url(#clip770)" d="M0 1920 L2688 1920 L2688 -4.26326e-14 L0 -4.26326e-14  Z" fill="#ffffff" fill-rule="evenodd" fill-opacity="1"/>
<defs>
  <clipPath id="clip771">
    <rect x="225" y="127" width="2416" height="1607"/>
  </clipPath>
</defs>
<path clip-path="url(#clip770)" d="M225.654 1734.12 L2640.76 1734.12 L2640.76 127.792 L225.654 127.792  Z" fill="#ffffff" fill-rule="evenodd" fill-opacity="1"/>
<polyline clip-path="url(#clip771)" style="stroke:#000000; stroke-linecap:round; stroke-linejoin:round; stroke-width:2; stroke-opacity:0.1; fill:none" points="289.856,1734.12 289.856,127.792 "/>
<polyline clip-path="url(#clip771)" style="stroke:#000000; stroke-linecap:round; stroke-linejoin:round; stroke-width:2; stroke-opacity:0.1; fill:none" points="704.865,1734.12 704.865,127.792 "/>
<polyline clip-path="url(#clip771)" style="stroke:#000000; stroke-linecap:round; stroke-linejoin:round; stroke-width:2; stroke-opacity:0.1; fill:none" points="1119.87,1734.12 1119.87,127.792 "/>
<polyline clip-path="url(#clip771)" style="stroke:#000000; stroke-linecap:round; stroke-linejoin:round; stroke-width:2; stroke-opacity:0.1; fill:none" points="1534.88,1734.12 1534.88,127.792 "/>
<polyline clip-path="url(#clip771)" style="stroke:#000000; stroke-linecap:round; stroke-linejoin:round; stroke-width:2; stroke-opacity:0.1; fill:none" points="1949.89,1734.12 1949.89,127.792 "/>
<polyline clip-path="url(#clip771)" style="stroke:#000000; stroke-linecap:round; stroke-linejoin:round; stroke-width:2; stroke-opacity:0.1; fill:none" points="2364.9,1734.12 2364.9,127.792 "/>
<polyline clip-path="url(#clip771)" style="stroke:#000000; stroke-linecap:round; stroke-linejoin:round; stroke-width:2; stroke-opacity:0.1; fill:none" points="225.654,1685.33 2640.76,1685.33 "/>
<polyline clip-path="url(#clip771)" style="stroke:#000000; stroke-linecap:round; stroke-linejoin:round; stroke-width:2; stroke-opacity:0.1; fill:none" points="225.654,1420.84 2640.76,1420.84 "/>
<polyline clip-path="url(#clip771)" style="stroke:#000000; stroke-linecap:round; stroke-linejoin:round; stroke-width:2; stroke-opacity:0.1; fill:none" points="225.654,1156.34 2640.76,1156.34 "/>
<polyline clip-path="url(#clip771)" style="stroke:#000000; stroke-linecap:round; stroke-linejoin:round; stroke-width:2; stroke-opacity:0.1; fill:none" points="225.654,891.849 2640.76,891.849 "/>
<polyline clip-path="url(#clip771)" style="stroke:#000000; stroke-linecap:round; stroke-linejoin:round; stroke-width:2; stroke-opacity:0.1; fill:none" points="225.654,627.356 2640.76,627.356 "/>
<polyline clip-path="url(#clip771)" style="stroke:#000000; stroke-linecap:round; stroke-linejoin:round; stroke-width:2; stroke-opacity:0.1; fill:none" points="225.654,362.863 2640.76,362.863 "/>
<polyline clip-path="url(#clip770)" style="stroke:#000000; stroke-linecap:round; stroke-linejoin:round; stroke-width:4; stroke-opacity:1; fill:none" points="225.654,1734.12 2640.76,1734.12 "/>
<polyline clip-path="url(#clip770)" style="stroke:#000000; stroke-linecap:round; stroke-linejoin:round; stroke-width:4; stroke-opacity:1; fill:none" points="289.856,1734.12 289.856,1715.22 "/>
<polyline clip-path="url(#clip770)" style="stroke:#000000; stroke-linecap:round; stroke-linejoin:round; stroke-width:4; stroke-opacity:1; fill:none" points="704.865,1734.12 704.865,1715.22 "/>
<polyline clip-path="url(#clip770)" style="stroke:#000000; stroke-linecap:round; stroke-linejoin:round; stroke-width:4; stroke-opacity:1; fill:none" points="1119.87,1734.12 1119.87,1715.22 "/>
<polyline clip-path="url(#clip770)" style="stroke:#000000; stroke-linecap:round; stroke-linejoin:round; stroke-width:4; stroke-opacity:1; fill:none" points="1534.88,1734.12 1534.88,1715.22 "/>
<polyline clip-path="url(#clip770)" style="stroke:#000000; stroke-linecap:round; stroke-linejoin:round; stroke-width:4; stroke-opacity:1; fill:none" points="1949.89,1734.12 1949.89,1715.22 "/>
<polyline clip-path="url(#clip770)" style="stroke:#000000; stroke-linecap:round; stroke-linejoin:round; stroke-width:4; stroke-opacity:1; fill:none" points="2364.9,1734.12 2364.9,1715.22 "/>
<path clip-path="url(#clip770)" d="M289.856 1767.34 Q286.245 1767.34 284.416 1770.9 Q282.611 1774.45 282.611 1781.58 Q282.611 1788.68 284.416 1792.25 Q286.245 1795.79 289.856 1795.79 Q293.491 1795.79 295.296 1792.25 Q297.125 1788.68 297.125 1781.58 Q297.125 1774.45 295.296 1770.9 Q293.491 1767.34 289.856 1767.34 M289.856 1763.64 Q295.666 1763.64 298.722 1768.24 Q301.801 1772.83 301.801 1781.58 Q301.801 1790.3 298.722 1794.91 Q295.666 1799.49 289.856 1799.49 Q284.046 1799.49 280.967 1794.91 Q277.912 1790.3 277.912 1781.58 Q277.912 1772.83 280.967 1768.24 Q284.046 1763.64 289.856 1763.64 Z" fill="#000000" fill-rule="nonzero" fill-opacity="1" /><path clip-path="url(#clip770)" d="M695.247 1794.89 L702.886 1794.89 L702.886 1768.52 L694.576 1770.19 L694.576 1765.93 L702.84 1764.26 L707.515 1764.26 L707.515 1794.89 L715.154 1794.89 L715.154 1798.82 L695.247 1798.82 L695.247 1794.89 Z" fill="#000000" fill-rule="nonzero" fill-opacity="1" /><path clip-path="url(#clip770)" d="M1114.53 1794.89 L1130.85 1794.89 L1130.85 1798.82 L1108.9 1798.82 L1108.9 1794.89 Q1111.56 1792.13 1116.15 1787.5 Q1120.75 1782.85 1121.93 1781.51 Q1124.18 1778.98 1125.06 1777.25 Q1125.96 1775.49 1125.96 1773.8 Q1125.96 1771.04 1124.02 1769.31 Q1122.1 1767.57 1118.99 1767.57 Q1116.79 1767.57 1114.34 1768.34 Q1111.91 1769.1 1109.13 1770.65 L1109.13 1765.93 Q1111.96 1764.79 1114.41 1764.21 Q1116.86 1763.64 1118.9 1763.64 Q1124.27 1763.64 1127.47 1766.32 Q1130.66 1769.01 1130.66 1773.5 Q1130.66 1775.63 1129.85 1777.55 Q1129.06 1779.45 1126.96 1782.04 Q1126.38 1782.71 1123.28 1785.93 Q1120.17 1789.12 1114.53 1794.89 Z" fill="#000000" fill-rule="nonzero" fill-opacity="1" /><path clip-path="url(#clip770)" d="M1539.13 1780.19 Q1542.49 1780.9 1544.36 1783.17 Q1546.26 1785.44 1546.26 1788.77 Q1546.26 1793.89 1542.74 1796.69 Q1539.22 1799.49 1532.74 1799.49 Q1530.57 1799.49 1528.25 1799.05 Q1525.96 1798.64 1523.51 1797.78 L1523.51 1793.27 Q1525.45 1794.4 1527.76 1794.98 Q1530.08 1795.56 1532.6 1795.56 Q1537 1795.56 1539.29 1793.82 Q1541.61 1792.08 1541.61 1788.77 Q1541.61 1785.72 1539.45 1784.01 Q1537.32 1782.27 1533.5 1782.27 L1529.48 1782.27 L1529.48 1778.43 L1533.69 1778.43 Q1537.14 1778.43 1538.97 1777.06 Q1540.8 1775.67 1540.8 1773.08 Q1540.8 1770.42 1538.9 1769.01 Q1537.02 1767.57 1533.5 1767.57 Q1531.58 1767.57 1529.38 1767.99 Q1527.19 1768.4 1524.55 1769.28 L1524.55 1765.12 Q1527.21 1764.38 1529.52 1764.01 Q1531.86 1763.64 1533.92 1763.64 Q1539.25 1763.64 1542.35 1766.07 Q1545.45 1768.47 1545.45 1772.59 Q1545.45 1775.46 1543.81 1777.46 Q1542.16 1779.42 1539.13 1780.19 Z" fill="#000000" fill-rule="nonzero" fill-opacity="1" /><path clip-path="url(#clip770)" d="M1952.9 1768.34 L1941.09 1786.78 L1952.9 1786.78 L1952.9 1768.34 M1951.67 1764.26 L1957.55 1764.26 L1957.55 1786.78 L1962.48 1786.78 L1962.48 1790.67 L1957.55 1790.67 L1957.55 1798.82 L1952.9 1798.82 L1952.9 1790.67 L1937.3 1790.67 L1937.3 1786.16 L1951.67 1764.26 Z" fill="#000000" fill-rule="nonzero" fill-opacity="1" /><path clip-path="url(#clip770)" d="M2355.18 1764.26 L2373.53 1764.26 L2373.53 1768.2 L2359.46 1768.2 L2359.46 1776.67 Q2360.48 1776.32 2361.5 1776.16 Q2362.52 1775.97 2363.53 1775.97 Q2369.32 1775.97 2372.7 1779.15 Q2376.08 1782.32 2376.08 1787.73 Q2376.08 1793.31 2372.61 1796.41 Q2369.14 1799.49 2362.82 1799.49 Q2360.64 1799.49 2358.37 1799.12 Q2356.13 1798.75 2353.72 1798.01 L2353.72 1793.31 Q2355.8 1794.45 2358.02 1795 Q2360.25 1795.56 2362.72 1795.56 Q2366.73 1795.56 2369.07 1793.45 Q2371.4 1791.34 2371.4 1787.73 Q2371.4 1784.12 2369.07 1782.02 Q2366.73 1779.91 2362.72 1779.91 Q2360.85 1779.91 2358.97 1780.33 Q2357.12 1780.74 2355.18 1781.62 L2355.18 1764.26 Z" fill="#000000" fill-rule="nonzero" fill-opacity="1" /><path clip-path="url(#clip770)" d="M1418.28 1869.23 L1418.28 1847.65 L1424.13 1847.65 L1424.13 1869.01 Q1424.13 1874.07 1426.11 1876.62 Q1428.08 1879.13 1432.03 1879.13 Q1436.77 1879.13 1439.51 1876.11 Q1442.28 1873.08 1442.28 1867.86 L1442.28 1847.65 L1448.13 1847.65 L1448.13 1883.3 L1442.28 1883.3 L1442.28 1877.83 Q1440.14 1881.07 1437.31 1882.66 Q1434.51 1884.22 1430.79 1884.22 Q1424.64 1884.22 1421.46 1880.4 Q1418.28 1876.59 1418.28 1869.23 M1433.01 1846.79 L1433.01 1846.79 Z" fill="#000000" fill-rule="nonzero" fill-opacity="1" /><polyline clip-path="url(#clip770)" style="stroke:#000000; stroke-linecap:round; stroke-linejoin:round; stroke-width:4; stroke-opacity:1; fill:none" points="225.654,1734.12 225.654,127.792 "/>
<polyline clip-path="url(#clip770)" style="stroke:#000000; stroke-linecap:round; stroke-linejoin:round; stroke-width:4; stroke-opacity:1; fill:none" points="225.654,1685.33 244.552,1685.33 "/>
<polyline clip-path="url(#clip770)" style="stroke:#000000; stroke-linecap:round; stroke-linejoin:round; stroke-width:4; stroke-opacity:1; fill:none" points="225.654,1420.84 244.552,1420.84 "/>
<polyline clip-path="url(#clip770)" style="stroke:#000000; stroke-linecap:round; stroke-linejoin:round; stroke-width:4; stroke-opacity:1; fill:none" points="225.654,1156.34 244.552,1156.34 "/>
<polyline clip-path="url(#clip770)" style="stroke:#000000; stroke-linecap:round; stroke-linejoin:round; stroke-width:4; stroke-opacity:1; fill:none" points="225.654,891.849 244.552,891.849 "/>
<polyline clip-path="url(#clip770)" style="stroke:#000000; stroke-linecap:round; stroke-linejoin:round; stroke-width:4; stroke-opacity:1; fill:none" points="225.654,627.356 244.552,627.356 "/>
<polyline clip-path="url(#clip770)" style="stroke:#000000; stroke-linecap:round; stroke-linejoin:round; stroke-width:4; stroke-opacity:1; fill:none" points="225.654,362.863 244.552,362.863 "/>
<path clip-path="url(#clip770)" d="M128.159 1671.13 Q124.548 1671.13 122.719 1674.69 Q120.913 1678.23 120.913 1685.36 Q120.913 1692.47 122.719 1696.03 Q124.548 1699.58 128.159 1699.58 Q131.793 1699.58 133.599 1696.03 Q135.427 1692.47 135.427 1685.36 Q135.427 1678.23 133.599 1674.69 Q131.793 1671.13 128.159 1671.13 M128.159 1667.42 Q133.969 1667.42 137.025 1672.03 Q140.103 1676.61 140.103 1685.36 Q140.103 1694.09 137.025 1698.7 Q133.969 1703.28 128.159 1703.28 Q122.349 1703.28 119.27 1698.7 Q116.214 1694.09 116.214 1685.36 Q116.214 1676.61 119.27 1672.03 Q122.349 1667.42 128.159 1667.42 Z" fill="#000000" fill-rule="nonzero" fill-opacity="1" /><path clip-path="url(#clip770)" d="M148.321 1696.73 L153.205 1696.73 L153.205 1702.61 L148.321 1702.61 L148.321 1696.73 Z" fill="#000000" fill-rule="nonzero" fill-opacity="1" /><path clip-path="url(#clip770)" d="M173.39 1671.13 Q169.779 1671.13 167.95 1674.69 Q166.145 1678.23 166.145 1685.36 Q166.145 1692.47 167.95 1696.03 Q169.779 1699.58 173.39 1699.58 Q177.024 1699.58 178.83 1696.03 Q180.659 1692.47 180.659 1685.36 Q180.659 1678.23 178.83 1674.69 Q177.024 1671.13 173.39 1671.13 M173.39 1667.42 Q179.2 1667.42 182.256 1672.03 Q185.334 1676.61 185.334 1685.36 Q185.334 1694.09 182.256 1698.7 Q179.2 1703.28 173.39 1703.28 Q167.58 1703.28 164.501 1698.7 Q161.446 1694.09 161.446 1685.36 Q161.446 1676.61 164.501 1672.03 Q167.58 1667.42 173.39 1667.42 Z" fill="#000000" fill-rule="nonzero" fill-opacity="1" /><path clip-path="url(#clip770)" d="M129.154 1406.63 Q125.543 1406.63 123.714 1410.2 Q121.909 1413.74 121.909 1420.87 Q121.909 1427.98 123.714 1431.54 Q125.543 1435.08 129.154 1435.08 Q132.788 1435.08 134.594 1431.54 Q136.423 1427.98 136.423 1420.87 Q136.423 1413.74 134.594 1410.2 Q132.788 1406.63 129.154 1406.63 M129.154 1402.93 Q134.964 1402.93 138.02 1407.54 Q141.099 1412.12 141.099 1420.87 Q141.099 1429.6 138.02 1434.2 Q134.964 1438.79 129.154 1438.79 Q123.344 1438.79 120.265 1434.2 Q117.21 1429.6 117.21 1420.87 Q117.21 1412.12 120.265 1407.54 Q123.344 1402.93 129.154 1402.93 Z" fill="#000000" fill-rule="nonzero" fill-opacity="1" /><path clip-path="url(#clip770)" d="M149.316 1432.24 L154.2 1432.24 L154.2 1438.12 L149.316 1438.12 L149.316 1432.24 Z" fill="#000000" fill-rule="nonzero" fill-opacity="1" /><path clip-path="url(#clip770)" d="M164.432 1403.56 L182.788 1403.56 L182.788 1407.49 L168.714 1407.49 L168.714 1415.96 Q169.733 1415.62 170.751 1415.45 Q171.77 1415.27 172.788 1415.27 Q178.575 1415.27 181.955 1418.44 Q185.334 1421.61 185.334 1427.03 Q185.334 1432.61 181.862 1435.71 Q178.39 1438.79 172.071 1438.79 Q169.895 1438.79 167.626 1438.42 Q165.381 1438.05 162.973 1437.31 L162.973 1432.61 Q165.057 1433.74 167.279 1434.3 Q169.501 1434.85 171.978 1434.85 Q175.983 1434.85 178.321 1432.75 Q180.659 1430.64 180.659 1427.03 Q180.659 1423.42 178.321 1421.31 Q175.983 1419.2 171.978 1419.2 Q170.103 1419.2 168.228 1419.62 Q166.376 1420.04 164.432 1420.92 L164.432 1403.56 Z" fill="#000000" fill-rule="nonzero" fill-opacity="1" /><path clip-path="url(#clip770)" d="M118.969 1169.69 L126.608 1169.69 L126.608 1143.32 L118.298 1144.99 L118.298 1140.73 L126.562 1139.06 L131.238 1139.06 L131.238 1169.69 L138.876 1169.69 L138.876 1173.62 L118.969 1173.62 L118.969 1169.69 Z" fill="#000000" fill-rule="nonzero" fill-opacity="1" /><path clip-path="url(#clip770)" d="M148.321 1167.74 L153.205 1167.74 L153.205 1173.62 L148.321 1173.62 L148.321 1167.74 Z" fill="#000000" fill-rule="nonzero" fill-opacity="1" /><path clip-path="url(#clip770)" d="M173.39 1142.14 Q169.779 1142.14 167.95 1145.71 Q166.145 1149.25 166.145 1156.38 Q166.145 1163.48 167.95 1167.05 Q169.779 1170.59 173.39 1170.59 Q177.024 1170.59 178.83 1167.05 Q180.659 1163.48 180.659 1156.38 Q180.659 1149.25 178.83 1145.71 Q177.024 1142.14 173.39 1142.14 M173.39 1138.44 Q179.2 1138.44 182.256 1143.04 Q185.334 1147.63 185.334 1156.38 Q185.334 1165.1 182.256 1169.71 Q179.2 1174.29 173.39 1174.29 Q167.58 1174.29 164.501 1169.71 Q161.446 1165.1 161.446 1156.38 Q161.446 1147.63 164.501 1143.04 Q167.58 1138.44 173.39 1138.44 Z" fill="#000000" fill-rule="nonzero" fill-opacity="1" /><path clip-path="url(#clip770)" d="M119.964 905.194 L127.603 905.194 L127.603 878.828 L119.293 880.495 L119.293 876.236 L127.557 874.569 L132.233 874.569 L132.233 905.194 L139.872 905.194 L139.872 909.129 L119.964 909.129 L119.964 905.194 Z" fill="#000000" fill-rule="nonzero" fill-opacity="1" /><path clip-path="url(#clip770)" d="M149.316 903.25 L154.2 903.25 L154.2 909.129 L149.316 909.129 L149.316 903.25 Z" fill="#000000" fill-rule="nonzero" fill-opacity="1" /><path clip-path="url(#clip770)" d="M164.432 874.569 L182.788 874.569 L182.788 878.504 L168.714 878.504 L168.714 886.977 Q169.733 886.629 170.751 886.467 Q171.77 886.282 172.788 886.282 Q178.575 886.282 181.955 889.453 Q185.334 892.625 185.334 898.041 Q185.334 903.62 181.862 906.722 Q178.39 909.801 172.071 909.801 Q169.895 909.801 167.626 909.43 Q165.381 909.06 162.973 908.319 L162.973 903.62 Q165.057 904.754 167.279 905.31 Q169.501 905.865 171.978 905.865 Q175.983 905.865 178.321 903.759 Q180.659 901.652 180.659 898.041 Q180.659 894.43 178.321 892.324 Q175.983 890.217 171.978 890.217 Q170.103 890.217 168.228 890.634 Q166.376 891.051 164.432 891.93 L164.432 874.569 Z" fill="#000000" fill-rule="nonzero" fill-opacity="1" /><path clip-path="url(#clip770)" d="M122.187 640.701 L138.506 640.701 L138.506 644.636 L116.562 644.636 L116.562 640.701 Q119.224 637.946 123.807 633.317 Q128.413 628.664 129.594 627.321 Q131.839 624.798 132.719 623.062 Q133.622 621.303 133.622 619.613 Q133.622 616.859 131.677 615.122 Q129.756 613.386 126.654 613.386 Q124.455 613.386 122.001 614.15 Q119.571 614.914 116.793 616.465 L116.793 611.743 Q119.617 610.609 122.071 610.03 Q124.525 609.451 126.562 609.451 Q131.932 609.451 135.126 612.136 Q138.321 614.822 138.321 619.312 Q138.321 621.442 137.511 623.363 Q136.724 625.261 134.617 627.854 Q134.038 628.525 130.937 631.743 Q127.835 634.937 122.187 640.701 Z" fill="#000000" fill-rule="nonzero" fill-opacity="1" /><path clip-path="url(#clip770)" d="M148.321 638.757 L153.205 638.757 L153.205 644.636 L148.321 644.636 L148.321 638.757 Z" fill="#000000" fill-rule="nonzero" fill-opacity="1" /><path clip-path="url(#clip770)" d="M173.39 613.155 Q169.779 613.155 167.95 616.72 Q166.145 620.261 166.145 627.391 Q166.145 634.497 167.95 638.062 Q169.779 641.604 173.39 641.604 Q177.024 641.604 178.83 638.062 Q180.659 634.497 180.659 627.391 Q180.659 620.261 178.83 616.72 Q177.024 613.155 173.39 613.155 M173.39 609.451 Q179.2 609.451 182.256 614.058 Q185.334 618.641 185.334 627.391 Q185.334 636.118 182.256 640.724 Q179.2 645.307 173.39 645.307 Q167.58 645.307 164.501 640.724 Q161.446 636.118 161.446 627.391 Q161.446 618.641 164.501 614.058 Q167.58 609.451 173.39 609.451 Z" fill="#000000" fill-rule="nonzero" fill-opacity="1" /><path clip-path="url(#clip770)" d="M123.182 376.208 L139.501 376.208 L139.501 380.143 L117.557 380.143 L117.557 376.208 Q120.219 373.453 124.802 368.824 Q129.409 364.171 130.589 362.828 Q132.835 360.305 133.714 358.569 Q134.617 356.81 134.617 355.12 Q134.617 352.365 132.673 350.629 Q130.751 348.893 127.65 348.893 Q125.451 348.893 122.997 349.657 Q120.566 350.421 117.789 351.972 L117.789 347.25 Q120.613 346.116 123.066 345.537 Q125.52 344.958 127.557 344.958 Q132.927 344.958 136.122 347.643 Q139.316 350.328 139.316 354.819 Q139.316 356.949 138.506 358.87 Q137.719 360.768 135.612 363.361 Q135.034 364.032 131.932 367.25 Q128.83 370.444 123.182 376.208 Z" fill="#000000" fill-rule="nonzero" fill-opacity="1" /><path clip-path="url(#clip770)" d="M149.316 374.264 L154.2 374.264 L154.2 380.143 L149.316 380.143 L149.316 374.264 Z" fill="#000000" fill-rule="nonzero" fill-opacity="1" /><path clip-path="url(#clip770)" d="M164.432 345.583 L182.788 345.583 L182.788 349.518 L168.714 349.518 L168.714 357.99 Q169.733 357.643 170.751 357.481 Q171.77 357.296 172.788 357.296 Q178.575 357.296 181.955 360.467 Q185.334 363.639 185.334 369.055 Q185.334 374.634 181.862 377.736 Q178.39 380.814 172.071 380.814 Q169.895 380.814 167.626 380.444 Q165.381 380.074 162.973 379.333 L162.973 374.634 Q165.057 375.768 167.279 376.324 Q169.501 376.879 171.978 376.879 Q175.983 376.879 178.321 374.773 Q180.659 372.666 180.659 369.055 Q180.659 365.444 178.321 363.338 Q175.983 361.231 171.978 361.231 Q170.103 361.231 168.228 361.648 Q166.376 362.065 164.432 362.944 L164.432 345.583 Z" fill="#000000" fill-rule="nonzero" fill-opacity="1" /><path clip-path="url(#clip770)" d="M12.1132 962.274 L16.983 962.274 L16.983 967.876 Q16.983 971.027 18.2562 972.268 Q19.5293 973.477 22.8395 973.477 L25.9905 973.477 L25.9905 963.833 L30.542 963.833 L30.542 973.477 L61.6384 973.477 L61.6384 979.366 L30.542 979.366 L30.542 984.968 L25.9905 984.968 L25.9905 979.366 L23.5079 979.366 Q17.5559 979.366 14.8505 976.597 Q12.1132 973.828 12.1132 967.812 L12.1132 962.274 Z" fill="#000000" fill-rule="nonzero" fill-opacity="1" /><path clip-path="url(#clip770)" d="M12.1769 943.304 Q19.4975 947.569 26.6589 949.638 Q33.8203 951.707 41.1727 951.707 Q48.5251 951.707 55.7502 949.638 Q62.9434 947.537 70.2321 943.304 L70.2321 948.397 Q62.7524 953.171 55.5274 955.558 Q48.3023 957.913 41.1727 957.913 Q34.0749 957.913 26.8817 955.558 Q19.6884 953.203 12.1769 948.397 L12.1769 943.304 Z" fill="#000000" fill-rule="nonzero" fill-opacity="1" /><path clip-path="url(#clip770)" d="M47.5702 932.546 L25.9905 932.546 L25.9905 926.69 L47.3474 926.69 Q52.4082 926.69 54.9545 924.716 Q57.4689 922.743 57.4689 918.796 Q57.4689 914.054 54.4452 911.316 Q51.4215 908.547 46.2016 908.547 L25.9905 908.547 L25.9905 902.691 L61.6384 902.691 L61.6384 908.547 L56.1639 908.547 Q59.4104 910.68 61.0019 913.513 Q62.5615 916.313 62.5615 920.037 Q62.5615 926.18 58.742 929.363 Q54.9226 932.546 47.5702 932.546 M25.1311 917.809 L25.1311 917.809 Z" fill="#000000" fill-rule="nonzero" fill-opacity="1" /><path clip-path="url(#clip770)" d="M12.1769 891.551 L12.1769 886.458 Q19.6884 881.684 26.8817 879.329 Q34.0749 876.942 41.1727 876.942 Q48.3023 876.942 55.5274 879.329 Q62.7524 881.684 70.2321 886.458 L70.2321 891.551 Q62.9434 887.318 55.7502 885.249 Q48.5251 883.148 41.1727 883.148 Q33.8203 883.148 26.6589 885.249 Q19.4975 887.318 12.1769 891.551 Z" fill="#000000" fill-rule="nonzero" fill-opacity="1" /><path clip-path="url(#clip770)" d="M1002.63 18.8205 L1002.63 65.8515 L1012.52 65.8515 Q1025.04 65.8515 1030.83 60.1802 Q1036.66 54.509 1036.66 42.2752 Q1036.66 30.1225 1030.83 24.4918 Q1025.04 18.8205 1012.52 18.8205 L1002.63 18.8205 M994.452 12.096 L1011.26 12.096 Q1028.84 12.096 1037.07 19.4281 Q1045.29 26.7198 1045.29 42.2752 Q1045.29 57.9117 1037.03 65.2439 Q1028.76 72.576 1011.26 72.576 L994.452 72.576 L994.452 12.096 Z" fill="#000000" fill-rule="nonzero" fill-opacity="1" /><path clip-path="url(#clip770)" d="M1096.82 48.0275 L1096.82 51.6733 L1062.55 51.6733 Q1063.03 59.3701 1067.17 63.421 Q1071.34 67.4314 1078.75 67.4314 Q1083.05 67.4314 1087.06 66.3781 Q1091.11 65.3249 1095.08 63.2184 L1095.08 70.267 Q1091.07 71.9684 1086.85 72.8596 Q1082.64 73.7508 1078.31 73.7508 Q1067.45 73.7508 1061.09 67.4314 Q1054.77 61.1119 1054.77 50.3365 Q1054.77 39.1965 1060.77 32.6746 Q1066.8 26.1121 1077.01 26.1121 Q1086.16 26.1121 1091.47 32.0264 Q1096.82 37.9003 1096.82 48.0275 M1089.36 45.84 Q1089.28 39.7232 1085.92 36.0774 Q1082.6 32.4315 1077.09 32.4315 Q1070.85 32.4315 1067.08 35.9558 Q1063.36 39.4801 1062.79 45.8805 L1089.36 45.84 Z" fill="#000000" fill-rule="nonzero" fill-opacity="1" /><path clip-path="url(#clip770)" d="M1141.7 28.9478 L1141.7 35.9153 Q1138.54 34.1734 1135.34 33.3227 Q1132.18 32.4315 1128.94 32.4315 Q1121.69 32.4315 1117.68 37.0496 Q1113.67 41.6271 1113.67 49.9314 Q1113.67 58.2358 1117.68 62.8538 Q1121.69 67.4314 1128.94 67.4314 Q1132.18 67.4314 1135.34 66.5807 Q1138.54 65.6895 1141.7 63.9476 L1141.7 70.8341 Q1138.58 72.2924 1135.22 73.0216 Q1131.9 73.7508 1128.13 73.7508 Q1117.88 73.7508 1111.85 67.3098 Q1105.81 60.8689 1105.81 49.9314 Q1105.81 38.832 1111.89 32.472 Q1118 26.1121 1128.62 26.1121 Q1132.06 26.1121 1135.34 26.8413 Q1138.62 27.5299 1141.7 28.9478 Z" fill="#000000" fill-rule="nonzero" fill-opacity="1" /><path clip-path="url(#clip770)" d="M1175.28 49.7694 Q1166.25 49.7694 1162.77 51.8354 Q1159.28 53.9013 1159.28 58.8839 Q1159.28 62.8538 1161.88 65.2034 Q1164.51 67.5124 1169.01 67.5124 Q1175.2 67.5124 1178.93 63.1374 Q1182.7 58.7219 1182.7 51.4303 L1182.7 49.7694 L1175.28 49.7694 M1190.15 46.6907 L1190.15 72.576 L1182.7 72.576 L1182.7 65.6895 Q1180.15 69.8214 1176.34 71.8063 Q1172.53 73.7508 1167.02 73.7508 Q1160.05 73.7508 1155.92 69.8619 Q1151.83 65.9325 1151.83 59.3701 Q1151.83 51.7138 1156.93 47.825 Q1162.08 43.9361 1172.25 43.9361 L1182.7 43.9361 L1182.7 43.2069 Q1182.7 38.0623 1179.29 35.2672 Q1175.93 32.4315 1169.82 32.4315 Q1165.93 32.4315 1162.24 33.3632 Q1158.55 34.295 1155.15 36.1584 L1155.15 29.2718 Q1159.24 27.692 1163.09 26.9223 Q1166.94 26.1121 1170.59 26.1121 Q1180.43 26.1121 1185.29 31.2163 Q1190.15 36.3204 1190.15 46.6907 Z" fill="#000000" fill-rule="nonzero" fill-opacity="1" /><path clip-path="url(#clip770)" d="M1224.38 76.7889 Q1221.22 84.8907 1218.22 87.3618 Q1215.23 89.8329 1210.2 89.8329 L1204.25 89.8329 L1204.25 83.5945 L1208.62 83.5945 Q1211.7 83.5945 1213.4 82.1361 Q1215.1 80.6778 1217.17 75.2496 L1218.51 71.8468 L1200.16 27.2059 L1208.06 27.2059 L1222.23 62.6918 L1236.41 27.2059 L1244.31 27.2059 L1224.38 76.7889 Z" fill="#000000" fill-rule="nonzero" fill-opacity="1" /><path clip-path="url(#clip770)" d="M1309.98 44.2197 Q1312.61 45.1109 1315.08 48.0275 Q1317.59 50.9442 1320.1 56.0483 L1328.41 72.576 L1319.62 72.576 L1311.88 57.061 Q1308.88 50.9847 1306.05 48.9997 Q1303.25 47.0148 1298.39 47.0148 L1289.48 47.0148 L1289.48 72.576 L1281.3 72.576 L1281.3 12.096 L1299.77 12.096 Q1310.14 12.096 1315.24 16.4305 Q1320.35 20.7649 1320.35 29.5149 Q1320.35 35.2267 1317.67 38.994 Q1315.04 42.7613 1309.98 44.2197 M1289.48 18.8205 L1289.48 40.2903 L1299.77 40.2903 Q1305.68 40.2903 1308.68 37.5762 Q1311.72 34.8216 1311.72 29.5149 Q1311.72 24.2082 1308.68 21.5346 Q1305.68 18.8205 1299.77 18.8205 L1289.48 18.8205 Z" fill="#000000" fill-rule="nonzero" fill-opacity="1" /><path clip-path="url(#clip770)" d="M1357.41 49.7694 Q1348.38 49.7694 1344.9 51.8354 Q1341.41 53.9013 1341.41 58.8839 Q1341.41 62.8538 1344 65.2034 Q1346.64 67.5124 1351.13 67.5124 Q1357.33 67.5124 1361.06 63.1374 Q1364.83 58.7219 1364.83 51.4303 L1364.83 49.7694 L1357.41 49.7694 M1372.28 46.6907 L1372.28 72.576 L1364.83 72.576 L1364.83 65.6895 Q1362.27 69.8214 1358.47 71.8063 Q1354.66 73.7508 1349.15 73.7508 Q1342.18 73.7508 1338.05 69.8619 Q1333.96 65.9325 1333.96 59.3701 Q1333.96 51.7138 1339.06 47.825 Q1344.21 43.9361 1354.37 43.9361 L1364.83 43.9361 L1364.83 43.2069 Q1364.83 38.0623 1361.42 35.2672 Q1358.06 32.4315 1351.94 32.4315 Q1348.06 32.4315 1344.37 33.3632 Q1340.68 34.295 1337.28 36.1584 L1337.28 29.2718 Q1341.37 27.692 1345.22 26.9223 Q1349.07 26.1121 1352.71 26.1121 Q1362.56 26.1121 1367.42 31.2163 Q1372.28 36.3204 1372.28 46.6907 Z" fill="#000000" fill-rule="nonzero" fill-opacity="1" /><path clip-path="url(#clip770)" d="M1395.01 14.324 L1395.01 27.2059 L1410.36 27.2059 L1410.36 32.9987 L1395.01 32.9987 L1395.01 57.6282 Q1395.01 63.1779 1396.5 64.7578 Q1398.04 66.3376 1402.7 66.3376 L1410.36 66.3376 L1410.36 72.576 L1402.7 72.576 Q1394.07 72.576 1390.79 69.3758 Q1387.51 66.1351 1387.51 57.6282 L1387.51 32.9987 L1382.04 32.9987 L1382.04 27.2059 L1387.51 27.2059 L1387.51 14.324 L1395.01 14.324 Z" fill="#000000" fill-rule="nonzero" fill-opacity="1" /><path clip-path="url(#clip770)" d="M1458.97 48.0275 L1458.97 51.6733 L1424.7 51.6733 Q1425.18 59.3701 1429.32 63.421 Q1433.49 67.4314 1440.9 67.4314 Q1445.2 67.4314 1449.21 66.3781 Q1453.26 65.3249 1457.23 63.2184 L1457.23 70.267 Q1453.22 71.9684 1449 72.8596 Q1444.79 73.7508 1440.46 73.7508 Q1429.6 73.7508 1423.24 67.4314 Q1416.92 61.1119 1416.92 50.3365 Q1416.92 39.1965 1422.92 32.6746 Q1428.95 26.1121 1439.16 26.1121 Q1448.32 26.1121 1453.62 32.0264 Q1458.97 37.9003 1458.97 48.0275 M1451.52 45.84 Q1451.43 39.7232 1448.07 36.0774 Q1444.75 32.4315 1439.24 32.4315 Q1433 32.4315 1429.24 35.9558 Q1425.51 39.4801 1424.94 45.8805 L1451.52 45.84 Z" fill="#000000" fill-rule="nonzero" fill-opacity="1" /><path clip-path="url(#clip770)" d="M1526.58 44.2197 Q1529.21 45.1109 1531.68 48.0275 Q1534.19 50.9442 1536.71 56.0483 L1545.01 72.576 L1536.22 72.576 L1528.48 57.061 Q1525.48 50.9847 1522.65 48.9997 Q1519.85 47.0148 1514.99 47.0148 L1506.08 47.0148 L1506.08 72.576 L1497.9 72.576 L1497.9 12.096 L1516.37 12.096 Q1526.74 12.096 1531.84 16.4305 Q1536.95 20.7649 1536.95 29.5149 Q1536.95 35.2267 1534.28 38.994 Q1531.64 42.7613 1526.58 44.2197 M1506.08 18.8205 L1506.08 40.2903 L1516.37 40.2903 Q1522.28 40.2903 1525.28 37.5762 Q1528.32 34.8216 1528.32 29.5149 Q1528.32 24.2082 1525.28 21.5346 Q1522.28 18.8205 1516.37 18.8205 L1506.08 18.8205 Z" fill="#000000" fill-rule="nonzero" fill-opacity="1" /><path clip-path="url(#clip770)" d="M1590.3 48.0275 L1590.3 51.6733 L1556.03 51.6733 Q1556.51 59.3701 1560.65 63.421 Q1564.82 67.4314 1572.23 67.4314 Q1576.53 67.4314 1580.54 66.3781 Q1584.59 65.3249 1588.56 63.2184 L1588.56 70.267 Q1584.55 71.9684 1580.33 72.8596 Q1576.12 73.7508 1571.79 73.7508 Q1560.93 73.7508 1554.57 67.4314 Q1548.25 61.1119 1548.25 50.3365 Q1548.25 39.1965 1554.25 32.6746 Q1560.28 26.1121 1570.49 26.1121 Q1579.65 26.1121 1584.95 32.0264 Q1590.3 37.9003 1590.3 48.0275 M1582.85 45.84 Q1582.76 39.7232 1579.4 36.0774 Q1576.08 32.4315 1570.57 32.4315 Q1564.33 32.4315 1560.57 35.9558 Q1556.84 39.4801 1556.27 45.8805 L1582.85 45.84 Z" fill="#000000" fill-rule="nonzero" fill-opacity="1" /><path clip-path="url(#clip770)" d="M1635.18 28.9478 L1635.18 35.9153 Q1632.02 34.1734 1628.82 33.3227 Q1625.66 32.4315 1622.42 32.4315 Q1615.17 32.4315 1611.16 37.0496 Q1607.15 41.6271 1607.15 49.9314 Q1607.15 58.2358 1611.16 62.8538 Q1615.17 67.4314 1622.42 67.4314 Q1625.66 67.4314 1628.82 66.5807 Q1632.02 65.6895 1635.18 63.9476 L1635.18 70.8341 Q1632.06 72.2924 1628.7 73.0216 Q1625.38 73.7508 1621.61 73.7508 Q1611.36 73.7508 1605.33 67.3098 Q1599.29 60.8689 1599.29 49.9314 Q1599.29 38.832 1605.37 32.472 Q1611.49 26.1121 1622.1 26.1121 Q1625.54 26.1121 1628.82 26.8413 Q1632.1 27.5299 1635.18 28.9478 Z" fill="#000000" fill-rule="nonzero" fill-opacity="1" /><path clip-path="url(#clip770)" d="M1665.73 32.4315 Q1659.73 32.4315 1656.25 37.1306 Q1652.76 41.7891 1652.76 49.9314 Q1652.76 58.0738 1656.21 62.7728 Q1659.69 67.4314 1665.73 67.4314 Q1671.68 67.4314 1675.17 62.7323 Q1678.65 58.0333 1678.65 49.9314 Q1678.65 41.8701 1675.17 37.1711 Q1671.68 32.4315 1665.73 32.4315 M1665.73 26.1121 Q1675.45 26.1121 1681 32.4315 Q1686.55 38.7509 1686.55 49.9314 Q1686.55 61.0714 1681 67.4314 Q1675.45 73.7508 1665.73 73.7508 Q1655.96 73.7508 1650.41 67.4314 Q1644.91 61.0714 1644.91 49.9314 Q1644.91 38.7509 1650.41 32.4315 Q1655.96 26.1121 1665.73 26.1121 Z" fill="#000000" fill-rule="nonzero" fill-opacity="1" /><path clip-path="url(#clip770)" d="M1693.56 27.2059 L1701.46 27.2059 L1715.63 65.2844 L1729.81 27.2059 L1737.71 27.2059 L1720.7 72.576 L1710.57 72.576 L1693.56 27.2059 Z" fill="#000000" fill-rule="nonzero" fill-opacity="1" /><path clip-path="url(#clip770)" d="M1786.81 48.0275 L1786.81 51.6733 L1752.54 51.6733 Q1753.02 59.3701 1757.16 63.421 Q1761.33 67.4314 1768.74 67.4314 Q1773.04 67.4314 1777.05 66.3781 Q1781.1 65.3249 1785.07 63.2184 L1785.07 70.267 Q1781.06 71.9684 1776.84 72.8596 Q1772.63 73.7508 1768.3 73.7508 Q1757.44 73.7508 1751.08 67.4314 Q1744.76 61.1119 1744.76 50.3365 Q1744.76 39.1965 1750.76 32.6746 Q1756.79 26.1121 1767 26.1121 Q1776.15 26.1121 1781.46 32.0264 Q1786.81 37.9003 1786.81 48.0275 M1779.35 45.84 Q1779.27 39.7232 1775.91 36.0774 Q1772.59 32.4315 1767.08 32.4315 Q1760.84 32.4315 1757.07 35.9558 Q1753.35 39.4801 1752.78 45.8805 L1779.35 45.84 Z" fill="#000000" fill-rule="nonzero" fill-opacity="1" /><path clip-path="url(#clip770)" d="M1825.33 34.1734 Q1824.08 33.4443 1822.58 33.1202 Q1821.12 32.7556 1819.34 32.7556 Q1813.02 32.7556 1809.62 36.8875 Q1806.25 40.9789 1806.25 48.6757 L1806.25 72.576 L1798.76 72.576 L1798.76 27.2059 L1806.25 27.2059 L1806.25 34.2544 Q1808.6 30.1225 1812.37 28.1376 Q1816.14 26.1121 1821.52 26.1121 Q1822.29 26.1121 1823.23 26.2337 Q1824.16 26.3147 1825.29 26.5172 L1825.33 34.1734 Z" fill="#000000" fill-rule="nonzero" fill-opacity="1" /><path clip-path="url(#clip770)" d="M1852.03 76.7889 Q1848.87 84.8907 1845.87 87.3618 Q1842.87 89.8329 1837.85 89.8329 L1831.9 89.8329 L1831.9 83.5945 L1836.27 83.5945 Q1839.35 83.5945 1841.05 82.1361 Q1842.75 80.6778 1844.82 75.2496 L1846.15 71.8468 L1827.8 27.2059 L1835.7 27.2059 L1849.88 62.6918 L1864.06 27.2059 L1871.96 27.2059 L1852.03 76.7889 Z" fill="#000000" fill-rule="nonzero" fill-opacity="1" /><polyline clip-path="url(#clip771)" style="stroke:#000000; stroke-linecap:round; stroke-linejoin:round; stroke-width:8; stroke-opacity:1; fill:none" points="294.006,1682.68 317.02,1668.02 340.035,1653.35 363.049,1638.68 386.063,1624.01 409.077,1609.35 432.091,1594.68 455.105,1580.01 478.119,1565.34 501.133,1550.68 524.148,1536.01 547.162,1521.34 570.176,1506.68 593.19,1492.01 616.204,1477.34 639.218,1462.67 662.232,1448.01 685.246,1433.34 708.26,1418.67 731.275,1404 754.289,1389.34 777.303,1374.67 800.317,1360 823.331,1345.33 846.345,1330.67 869.359,1316 892.373,1301.33 915.388,1286.67 938.402,1272 961.416,1257.33 984.43,1242.66 1007.44,1228 1030.46,1213.33 1053.47,1198.66 1076.49,1183.99 1099.5,1169.33 1122.51,1154.66 1145.53,1139.99 1168.54,1125.32 1191.56,1110.66 1214.57,1095.99 1237.59,1081.32 1260.6,1066.66 1283.61,1051.99 1306.63,1037.32 1329.64,1022.65 1352.66,1007.99 1375.67,993.318 1398.68,978.651 1421.7,963.984 1444.71,949.316 1467.73,934.649 1490.74,919.982 1513.75,905.314 1536.77,890.647 1559.78,875.98 1582.8,861.312 1605.81,846.645 1628.83,831.978 1651.84,817.31 1674.85,802.643 1697.87,787.976 1720.88,773.308 1743.9,758.641 1766.91,743.974 1789.92,729.306 1812.94,714.639 1835.95,699.972 1858.97,685.304 1881.98,670.637 1904.99,655.97 1928.01,641.302 1951.02,626.635 1974.04,611.967 1997.05,597.3 2020.07,582.633 2043.08,567.965 2066.09,553.298 2089.11,538.631 2112.12,523.963 2135.14,509.296 2158.15,494.629 2181.16,479.961 2204.18,465.294 2227.19,450.627 2250.21,435.959 2273.22,421.292 2296.23,406.625 2319.25,391.957 2342.26,377.29 2365.28,362.623 2388.29,347.955 2411.31,333.288 2434.32,318.621 2457.33,303.953 2480.35,289.286 2503.36,274.619 2526.38,259.951 2549.39,245.284 2572.4,230.617 "/>
<polyline clip-path="url(#clip771)" style="stroke:#e26f46; stroke-linecap:round; stroke-linejoin:round; stroke-width:8; stroke-opacity:1; fill:none" points="294.006,1688.65 317.02,1673.69 340.035,1658.72 363.049,1643.75 386.063,1628.78 409.077,1613.82 432.091,1598.85 455.105,1583.88 478.119,1568.91 501.133,1553.95 524.148,1538.98 547.162,1524.01 570.176,1509.04 593.19,1494.07 616.204,1479.11 639.218,1464.14 662.232,1449.17 685.246,1434.2 708.26,1419.24 731.275,1404.27 754.289,1389.3 777.303,1374.33 800.317,1359.36 823.331,1344.39 846.345,1329.43 869.359,1314.46 892.373,1299.49 915.388,1284.52 938.402,1269.55 961.416,1254.58 984.43,1239.62 1007.44,1224.65 1030.46,1209.68 1053.47,1194.71 1076.49,1179.74 1099.5,1164.77 1122.51,1149.8 1145.53,1134.83 1168.54,1119.86 1191.56,1104.9 1214.57,1089.93 1237.59,1074.96 1260.6,1059.99 1283.61,1045.02 1306.63,1030.05 1329.64,1015.08 1352.66,1000.11 1375.67,985.142 1398.68,970.172 1421.7,955.203 1444.71,940.233 1467.73,925.264 1490.74,910.295 1513.75,895.325 1536.77,880.356 1559.78,865.386 1582.8,850.417 1605.81,835.447 1628.83,820.477 1651.84,805.508 1674.85,790.538 1697.87,775.568 1720.88,760.599 1743.9,745.629 1766.91,730.659 1789.92,715.689 1812.94,700.72 1835.95,685.75 1858.97,670.78 1881.98,655.81 1904.99,640.84 1928.01,625.87 1951.02,610.901 1974.04,595.931 1997.05,580.961 2020.07,565.991 2043.08,551.021 2066.09,536.051 2089.11,521.082 2112.12,506.112 2135.14,491.142 2158.15,476.172 2181.16,461.202 2204.18,446.233 2227.19,431.263 2250.21,416.293 2273.22,401.323 2296.23,386.353 2319.25,371.383 2342.26,356.414 2365.28,341.444 2388.29,326.474 2411.31,311.504 2434.32,296.534 2457.33,281.564 2480.35,266.595 2503.36,251.625 2526.38,236.655 2549.39,221.685 2572.4,206.715 "/>
<polyline clip-path="url(#clip771)" style="stroke:#3da44d; stroke-linecap:round; stroke-linejoin:round; stroke-width:8; stroke-opacity:1; fill:none" stroke-dasharray="32, 20" points="294.006,1688.47 317.02,1672.69 340.035,1656.94 363.049,1641.26 386.063,1625.7 409.077,1610.27 432.091,1595.04 455.105,1580.02 478.119,1565.26 501.133,1550.79 524.148,1536.65 547.162,1522.87 570.176,1509.5 593.19,1496.57 616.204,1484.11 639.218,1472.13 662.232,1460.49 685.246,1448.96 708.26,1437.33 731.275,1425.38 754.289,1412.89 777.303,1399.64 800.317,1385.43 823.331,1370.02 846.345,1353.21 869.359,1334.77 892.373,1314.49 915.388,1292.15 938.402,1267.54 961.416,1240.47 984.43,1211.15 1007.44,1179.98 1030.46,1147.38 1053.47,1113.76 1076.49,1079.53 1099.5,1045.12 1122.51,1010.93 1145.53,977.371 1168.54,944.865 1191.56,913.823 1214.57,884.658 1237.59,857.785 1260.6,833.616 1283.61,812.546 1306.63,794.617 1329.64,779.587 1352.66,767.202 1375.67,757.209 1398.68,749.355 1421.7,743.387 1444.71,739.051 1467.73,736.095 1490.74,734.266 1513.75,733.311 1536.77,732.976 1559.78,733.009 1582.8,733.156 1605.81,733.168 1628.83,732.939 1651.84,732.53 1674.85,732.015 1697.87,731.467 1720.88,730.957 1743.9,730.56 1766.91,730.347 1789.92,730.392 1812.94,730.768 1835.95,731.547 1858.97,732.802 1881.98,734.606 1904.99,737.031 1928.01,740.152 1951.02,744.06 1974.04,748.886 1997.05,754.762 2020.07,761.821 2043.08,770.196 2066.09,780.019 2089.11,791.423 2112.12,804.542 2135.14,819.507 2158.15,836.453 2181.16,855.51 2204.18,876.814 2227.19,900.495 2250.21,926.687 2273.22,955.444 2296.23,986.613 2319.25,1020.01 2342.26,1055.45 2365.28,1092.74 2388.29,1131.71 2411.31,1172.15 2434.32,1213.9 2457.33,1256.76 2480.35,1300.55 2503.36,1345.09 2526.38,1390.17 2549.39,1435.63 2572.4,1481.28 "/>
<polyline clip-path="url(#clip771)" style="stroke:#c271d2; stroke-linecap:round; stroke-linejoin:round; stroke-width:8; stroke-opacity:1; fill:none" stroke-dasharray="4, 8" points="294.006,1685.44 317.02,1670.94 340.035,1656.43 363.049,1641.92 386.063,1627.41 409.077,1612.9 432.091,1598.39 455.105,1583.87 478.119,1569.34 501.133,1554.81 524.148,1540.27 547.162,1525.73 570.176,1511.17 593.19,1496.61 616.204,1482.04 639.218,1467.46 662.232,1452.87 685.246,1438.27 708.26,1423.65 731.275,1409.01 754.289,1394.35 777.303,1379.68 800.317,1364.98 823.331,1350.26 846.345,1335.51 869.359,1320.74 892.373,1305.93 915.388,1291.1 938.402,1276.23 961.416,1261.33 984.43,1246.4 1007.44,1231.43 1030.46,1216.43 1053.47,1201.4 1076.49,1186.34 1099.5,1171.24 1122.51,1156.12 1145.53,1140.97 1168.54,1125.79 1191.56,1110.58 1214.57,1095.35 1237.59,1080.09 1260.6,1064.8 1283.61,1049.5 1306.63,1034.16 1329.64,1018.81 1352.66,1003.43 1375.67,988.035 1398.68,972.617 1421.7,957.178 1444.71,941.72 1467.73,926.243 1490.74,910.748 1513.75,895.236 1536.77,879.707 1559.78,864.162 1582.8,848.601 1605.81,833.026 1628.83,817.437 1651.84,801.834 1674.85,786.219 1697.87,770.592 1720.88,754.953 1743.9,739.304 1766.91,723.645 1789.92,707.977 1812.94,692.301 1835.95,676.617 1858.97,660.926 1881.98,645.228 1904.99,629.525 1928.01,613.817 1951.02,598.105 1974.04,582.388 1997.05,566.668 2020.07,550.945 2043.08,535.218 2066.09,519.489 2089.11,503.757 2112.12,488.023 2135.14,472.288 2158.15,456.551 2181.16,440.813 2204.18,425.074 2227.19,409.335 2250.21,393.596 2273.22,377.856 2296.23,362.117 2319.25,346.378 2342.26,330.639 2365.28,314.901 2388.29,299.162 2411.31,283.423 2434.32,267.685 2457.33,251.946 2480.35,236.208 2503.36,220.469 2526.38,204.731 2549.39,188.993 2572.4,173.254 "/>
<path clip-path="url(#clip770)" d="M306.158 440.536 L1143.78 440.536 L1143.78 181.336 L306.158 181.336  Z" fill="#ffffff" fill-rule="evenodd" fill-opacity="1"/>
<polyline clip-path="url(#clip770)" style="stroke:#000000; stroke-linecap:round; stroke-linejoin:round; stroke-width:4; stroke-opacity:1; fill:none" points="306.158,440.536 1143.78,440.536 1143.78,181.336 306.158,181.336 306.158,440.536 "/>
<polyline clip-path="url(#clip770)" style="stroke:#000000; stroke-linecap:round; stroke-linejoin:round; stroke-width:8; stroke-opacity:1; fill:none" points="332.992,233.176 493.999,233.176 "/>
<path clip-path="url(#clip770)" d="M520.834 215.896 L550.069 215.896 L550.069 219.831 L537.801 219.831 L537.801 250.456 L533.102 250.456 L533.102 219.831 L520.834 219.831 L520.834 215.896 Z" fill="#000000" fill-rule="nonzero" fill-opacity="1" /><path clip-path="url(#clip770)" d="M562.454 228.512 Q561.736 228.095 560.88 227.91 Q560.046 227.702 559.028 227.702 Q555.417 227.702 553.472 230.063 Q551.551 232.401 551.551 236.799 L551.551 250.456 L547.269 250.456 L547.269 224.531 L551.551 224.531 L551.551 228.558 Q552.894 226.197 555.046 225.063 Q557.199 223.906 560.278 223.906 Q560.718 223.906 561.25 223.975 Q561.782 224.021 562.431 224.137 L562.454 228.512 Z" fill="#000000" fill-rule="nonzero" fill-opacity="1" /><path clip-path="url(#clip770)" d="M566.481 240.225 L566.481 224.531 L570.741 224.531 L570.741 240.063 Q570.741 243.743 572.176 245.595 Q573.611 247.424 576.481 247.424 Q579.93 247.424 581.921 245.225 Q583.935 243.026 583.935 239.229 L583.935 224.531 L588.194 224.531 L588.194 250.456 L583.935 250.456 L583.935 246.475 Q582.384 248.836 580.324 249.993 Q578.287 251.128 575.579 251.128 Q571.111 251.128 568.796 248.35 Q566.481 245.572 566.481 240.225 M577.199 223.906 L577.199 223.906 Z" fill="#000000" fill-rule="nonzero" fill-opacity="1" /><path clip-path="url(#clip770)" d="M619.143 236.429 L619.143 238.512 L599.56 238.512 Q599.838 242.91 602.199 245.225 Q604.583 247.516 608.819 247.516 Q611.273 247.516 613.564 246.915 Q615.879 246.313 618.148 245.109 L618.148 249.137 Q615.856 250.109 613.449 250.618 Q611.041 251.128 608.565 251.128 Q602.361 251.128 598.727 247.516 Q595.116 243.905 595.116 237.748 Q595.116 231.382 598.541 227.655 Q601.99 223.906 607.824 223.906 Q613.055 223.906 616.088 227.285 Q619.143 230.642 619.143 236.429 M614.884 235.179 Q614.838 231.683 612.916 229.6 Q611.018 227.517 607.87 227.517 Q604.305 227.517 602.153 229.53 Q600.023 231.544 599.699 235.202 L614.884 235.179 Z" fill="#000000" fill-rule="nonzero" fill-opacity="1" /><path clip-path="url(#clip770)" d="M654.328 214.438 L654.328 217.98 L650.254 217.98 Q647.962 217.98 647.06 218.906 Q646.18 219.831 646.18 222.239 L646.18 224.531 L653.194 224.531 L653.194 227.841 L646.18 227.841 L646.18 250.456 L641.898 250.456 L641.898 227.841 L637.824 227.841 L637.824 224.531 L641.898 224.531 L641.898 222.725 Q641.898 218.396 643.912 216.429 Q645.925 214.438 650.3 214.438 L654.328 214.438 Z" fill="#000000" fill-rule="nonzero" fill-opacity="1" /><path clip-path="url(#clip770)" d="M668.124 214.484 Q665.023 219.808 663.518 225.017 Q662.013 230.225 662.013 235.572 Q662.013 240.919 663.518 246.174 Q665.046 251.405 668.124 256.706 L664.421 256.706 Q660.949 251.266 659.212 246.012 Q657.499 240.757 657.499 235.572 Q657.499 230.41 659.212 225.179 Q660.925 219.947 664.421 214.484 L668.124 214.484 Z" fill="#000000" fill-rule="nonzero" fill-opacity="1" /><path clip-path="url(#clip770)" d="M675.948 240.225 L675.948 224.531 L680.208 224.531 L680.208 240.063 Q680.208 243.743 681.643 245.595 Q683.078 247.424 685.948 247.424 Q689.397 247.424 691.388 245.225 Q693.402 243.026 693.402 239.229 L693.402 224.531 L697.661 224.531 L697.661 250.456 L693.402 250.456 L693.402 246.475 Q691.851 248.836 689.791 249.993 Q687.754 251.128 685.046 251.128 Q680.578 251.128 678.263 248.35 Q675.948 245.572 675.948 240.225 M686.666 223.906 L686.666 223.906 Z" fill="#000000" fill-rule="nonzero" fill-opacity="1" /><path clip-path="url(#clip770)" d="M705.763 214.484 L709.467 214.484 Q712.939 219.947 714.652 225.179 Q716.388 230.41 716.388 235.572 Q716.388 240.757 714.652 246.012 Q712.939 251.266 709.467 256.706 L705.763 256.706 Q708.842 251.405 710.346 246.174 Q711.874 240.919 711.874 235.572 Q711.874 230.225 710.346 225.017 Q708.842 219.808 705.763 214.484 Z" fill="#000000" fill-rule="nonzero" fill-opacity="1" /><polyline clip-path="url(#clip770)" style="stroke:#e26f46; stroke-linecap:round; stroke-linejoin:round; stroke-width:8; stroke-opacity:1; fill:none" points="332.992,285.016 493.999,285.016 "/>
<path clip-path="url(#clip770)" d="M520.834 267.736 L527.13 267.736 L542.454 296.648 L542.454 267.736 L546.991 267.736 L546.991 302.296 L540.695 302.296 L525.371 273.384 L525.371 302.296 L520.834 302.296 L520.834 267.736 Z" fill="#000000" fill-rule="nonzero" fill-opacity="1" /><path clip-path="url(#clip770)" d="M578.287 288.269 L578.287 290.352 L558.704 290.352 Q558.981 294.75 561.343 297.065 Q563.727 299.356 567.963 299.356 Q570.417 299.356 572.708 298.755 Q575.023 298.153 577.292 296.949 L577.292 300.977 Q575 301.949 572.592 302.458 Q570.185 302.968 567.708 302.968 Q561.505 302.968 557.87 299.356 Q554.259 295.745 554.259 289.588 Q554.259 283.222 557.685 279.495 Q561.134 275.746 566.968 275.746 Q572.199 275.746 575.231 279.125 Q578.287 282.482 578.287 288.269 M574.028 287.019 Q573.981 283.523 572.06 281.44 Q570.162 279.357 567.014 279.357 Q563.449 279.357 561.296 281.37 Q559.167 283.384 558.843 287.042 L574.028 287.019 Z" fill="#000000" fill-rule="nonzero" fill-opacity="1" /><path clip-path="url(#clip770)" d="M585.278 266.278 L589.537 266.278 L589.537 302.296 L585.278 302.296 L585.278 266.278 Z" fill="#000000" fill-rule="nonzero" fill-opacity="1" /><path clip-path="url(#clip770)" d="M615.509 280.306 L615.509 266.278 L619.768 266.278 L619.768 302.296 L615.509 302.296 L615.509 298.407 Q614.166 300.722 612.106 301.856 Q610.069 302.968 607.199 302.968 Q602.5 302.968 599.537 299.218 Q596.597 295.468 596.597 289.357 Q596.597 283.245 599.537 279.495 Q602.5 275.746 607.199 275.746 Q610.069 275.746 612.106 276.88 Q614.166 277.991 615.509 280.306 M600.995 289.357 Q600.995 294.056 602.916 296.741 Q604.861 299.403 608.24 299.403 Q611.62 299.403 613.564 296.741 Q615.509 294.056 615.509 289.357 Q615.509 284.657 613.564 281.995 Q611.62 279.31 608.24 279.31 Q604.861 279.31 602.916 281.995 Q600.995 284.657 600.995 289.357 Z" fill="#000000" fill-rule="nonzero" fill-opacity="1" /><path clip-path="url(#clip770)" d="M650.717 288.269 L650.717 290.352 L631.134 290.352 Q631.412 294.75 633.773 297.065 Q636.157 299.356 640.393 299.356 Q642.847 299.356 645.138 298.755 Q647.453 298.153 649.722 296.949 L649.722 300.977 Q647.43 301.949 645.023 302.458 Q642.615 302.968 640.138 302.968 Q633.935 302.968 630.301 299.356 Q626.689 295.745 626.689 289.588 Q626.689 283.222 630.115 279.495 Q633.564 275.746 639.398 275.746 Q644.629 275.746 647.662 279.125 Q650.717 282.482 650.717 288.269 M646.458 287.019 Q646.412 283.523 644.49 281.44 Q642.592 279.357 639.444 279.357 Q635.879 279.357 633.726 281.37 Q631.597 283.384 631.273 287.042 L646.458 287.019 Z" fill="#000000" fill-rule="nonzero" fill-opacity="1" /><path clip-path="url(#clip770)" d="M672.731 280.352 Q672.013 279.935 671.157 279.75 Q670.323 279.542 669.305 279.542 Q665.694 279.542 663.749 281.903 Q661.828 284.241 661.828 288.639 L661.828 302.296 L657.546 302.296 L657.546 276.371 L661.828 276.371 L661.828 280.398 Q663.171 278.037 665.323 276.903 Q667.476 275.746 670.555 275.746 Q670.995 275.746 671.527 275.815 Q672.06 275.861 672.708 275.977 L672.731 280.352 Z" fill="#000000" fill-rule="nonzero" fill-opacity="1" /><path clip-path="url(#clip770)" d="M677.384 267.736 L684.351 267.736 L693.171 291.255 L702.036 267.736 L709.004 267.736 L709.004 302.296 L704.444 302.296 L704.444 271.949 L695.532 295.653 L690.833 295.653 L681.921 271.949 L681.921 302.296 L677.384 302.296 L677.384 267.736 Z" fill="#000000" fill-rule="nonzero" fill-opacity="1" /><path clip-path="url(#clip770)" d="M740.277 288.269 L740.277 290.352 L720.694 290.352 Q720.971 294.75 723.332 297.065 Q725.717 299.356 729.953 299.356 Q732.406 299.356 734.698 298.755 Q737.013 298.153 739.281 296.949 L739.281 300.977 Q736.99 301.949 734.582 302.458 Q732.175 302.968 729.698 302.968 Q723.494 302.968 719.86 299.356 Q716.249 295.745 716.249 289.588 Q716.249 283.222 719.675 279.495 Q723.124 275.746 728.957 275.746 Q734.189 275.746 737.221 279.125 Q740.277 282.482 740.277 288.269 M736.018 287.019 Q735.971 283.523 734.05 281.44 Q732.152 279.357 729.004 279.357 Q725.439 279.357 723.286 281.37 Q721.157 283.384 720.832 287.042 L736.018 287.019 Z" fill="#000000" fill-rule="nonzero" fill-opacity="1" /><path clip-path="url(#clip770)" d="M759.05 289.264 Q753.888 289.264 751.897 290.444 Q749.906 291.625 749.906 294.472 Q749.906 296.741 751.388 298.083 Q752.892 299.403 755.462 299.403 Q759.004 299.403 761.133 296.903 Q763.286 294.38 763.286 290.213 L763.286 289.264 L759.05 289.264 M767.545 287.505 L767.545 302.296 L763.286 302.296 L763.286 298.361 Q761.828 300.722 759.652 301.856 Q757.476 302.968 754.328 302.968 Q750.346 302.968 747.985 300.745 Q745.647 298.5 745.647 294.75 Q745.647 290.375 748.564 288.153 Q751.504 285.931 757.314 285.931 L763.286 285.931 L763.286 285.514 Q763.286 282.574 761.341 280.977 Q759.42 279.357 755.925 279.357 Q753.703 279.357 751.596 279.889 Q749.49 280.421 747.545 281.486 L747.545 277.551 Q749.883 276.648 752.082 276.208 Q754.281 275.746 756.365 275.746 Q761.99 275.746 764.767 278.662 Q767.545 281.579 767.545 287.505 Z" fill="#000000" fill-rule="nonzero" fill-opacity="1" /><path clip-path="url(#clip770)" d="M793.378 280.306 L793.378 266.278 L797.638 266.278 L797.638 302.296 L793.378 302.296 L793.378 298.407 Q792.036 300.722 789.976 301.856 Q787.939 302.968 785.068 302.968 Q780.369 302.968 777.406 299.218 Q774.466 295.468 774.466 289.357 Q774.466 283.245 777.406 279.495 Q780.369 275.746 785.068 275.746 Q787.939 275.746 789.976 276.88 Q792.036 277.991 793.378 280.306 M778.865 289.357 Q778.865 294.056 780.786 296.741 Q782.73 299.403 786.11 299.403 Q789.489 299.403 791.434 296.741 Q793.378 294.056 793.378 289.357 Q793.378 284.657 791.434 281.995 Q789.489 279.31 786.11 279.31 Q782.73 279.31 780.786 281.995 Q778.865 284.657 778.865 289.357 Z" fill="#000000" fill-rule="nonzero" fill-opacity="1" /><path clip-path="url(#clip770)" d="M831.711 266.324 Q828.61 271.648 827.105 276.857 Q825.6 282.065 825.6 287.412 Q825.6 292.759 827.105 298.014 Q828.633 303.245 831.711 308.546 L828.008 308.546 Q824.536 303.106 822.799 297.852 Q821.087 292.597 821.087 287.412 Q821.087 282.25 822.799 277.019 Q824.512 271.787 828.008 266.324 L831.711 266.324 Z" fill="#000000" fill-rule="nonzero" fill-opacity="1" /><path clip-path="url(#clip770)" d="M839.975 266.278 L844.235 266.278 L844.235 302.296 L839.975 302.296 L839.975 266.278 Z" fill="#000000" fill-rule="nonzero" fill-opacity="1" /><path clip-path="url(#clip770)" d="M863.193 279.357 Q859.767 279.357 857.776 282.042 Q855.785 284.704 855.785 289.357 Q855.785 294.009 857.753 296.694 Q859.744 299.356 863.193 299.356 Q866.596 299.356 868.586 296.671 Q870.577 293.986 870.577 289.357 Q870.577 284.75 868.586 282.065 Q866.596 279.357 863.193 279.357 M863.193 275.746 Q868.748 275.746 871.92 279.357 Q875.091 282.968 875.091 289.357 Q875.091 295.722 871.92 299.356 Q868.748 302.968 863.193 302.968 Q857.614 302.968 854.443 299.356 Q851.295 295.722 851.295 289.357 Q851.295 282.968 854.443 279.357 Q857.614 275.746 863.193 275.746 Z" fill="#000000" fill-rule="nonzero" fill-opacity="1" /><path clip-path="url(#clip770)" d="M898.679 277.134 L898.679 281.162 Q896.873 280.236 894.929 279.773 Q892.984 279.31 890.901 279.31 Q887.73 279.31 886.132 280.283 Q884.558 281.255 884.558 283.199 Q884.558 284.681 885.693 285.537 Q886.827 286.37 890.253 287.134 L891.711 287.458 Q896.248 288.431 898.146 290.213 Q900.068 291.972 900.068 295.144 Q900.068 298.755 897.197 300.861 Q894.35 302.968 889.35 302.968 Q887.267 302.968 884.998 302.551 Q882.753 302.157 880.253 301.347 L880.253 296.949 Q882.614 298.176 884.906 298.801 Q887.197 299.403 889.443 299.403 Q892.452 299.403 894.072 298.384 Q895.693 297.343 895.693 295.468 Q895.693 293.732 894.512 292.806 Q893.355 291.88 889.396 291.023 L887.915 290.676 Q883.957 289.843 882.197 288.13 Q880.438 286.394 880.438 283.384 Q880.438 279.727 883.031 277.736 Q885.623 275.746 890.392 275.746 Q892.753 275.746 894.836 276.093 Q896.919 276.44 898.679 277.134 Z" fill="#000000" fill-rule="nonzero" fill-opacity="1" /><path clip-path="url(#clip770)" d="M923.378 277.134 L923.378 281.162 Q921.572 280.236 919.628 279.773 Q917.683 279.31 915.6 279.31 Q912.429 279.31 910.831 280.283 Q909.257 281.255 909.257 283.199 Q909.257 284.681 910.392 285.537 Q911.526 286.37 914.952 287.134 L916.41 287.458 Q920.947 288.431 922.845 290.213 Q924.767 291.972 924.767 295.144 Q924.767 298.755 921.896 300.861 Q919.049 302.968 914.049 302.968 Q911.966 302.968 909.697 302.551 Q907.452 302.157 904.952 301.347 L904.952 296.949 Q907.313 298.176 909.605 298.801 Q911.896 299.403 914.142 299.403 Q917.151 299.403 918.771 298.384 Q920.392 297.343 920.392 295.468 Q920.392 293.732 919.211 292.806 Q918.054 291.88 914.095 291.023 L912.614 290.676 Q908.656 289.843 906.896 288.13 Q905.137 286.394 905.137 283.384 Q905.137 279.727 907.73 277.736 Q910.322 275.746 915.091 275.746 Q917.452 275.746 919.535 276.093 Q921.618 276.44 923.378 277.134 Z" fill="#000000" fill-rule="nonzero" fill-opacity="1" /><path clip-path="url(#clip770)" d="M932.104 280.769 L961.78 280.769 L961.78 284.657 L932.104 284.657 L932.104 280.769 M932.104 290.213 L961.78 290.213 L961.78 294.148 L932.104 294.148 L932.104 290.213 Z" fill="#000000" fill-rule="nonzero" fill-opacity="1" /><path clip-path="url(#clip770)" d="M981.873 270.815 Q978.262 270.815 976.433 274.38 Q974.627 277.921 974.627 285.051 Q974.627 292.157 976.433 295.722 Q978.262 299.264 981.873 299.264 Q985.507 299.264 987.312 295.722 Q989.141 292.157 989.141 285.051 Q989.141 277.921 987.312 274.38 Q985.507 270.815 981.873 270.815 M981.873 267.111 Q987.683 267.111 990.738 271.718 Q993.817 276.301 993.817 285.051 Q993.817 293.778 990.738 298.384 Q987.683 302.968 981.873 302.968 Q976.063 302.968 972.984 298.384 Q969.928 293.778 969.928 285.051 Q969.928 276.301 972.984 271.718 Q976.063 267.111 981.873 267.111 Z" fill="#000000" fill-rule="nonzero" fill-opacity="1" /><path clip-path="url(#clip770)" d="M1002.03 296.417 L1006.92 296.417 L1006.92 302.296 L1002.03 302.296 L1002.03 296.417 Z" fill="#000000" fill-rule="nonzero" fill-opacity="1" /><path clip-path="url(#clip770)" d="M1027.1 270.815 Q1023.49 270.815 1021.66 274.38 Q1019.86 277.921 1019.86 285.051 Q1019.86 292.157 1021.66 295.722 Q1023.49 299.264 1027.1 299.264 Q1030.74 299.264 1032.54 295.722 Q1034.37 292.157 1034.37 285.051 Q1034.37 277.921 1032.54 274.38 Q1030.74 270.815 1027.1 270.815 M1027.1 267.111 Q1032.91 267.111 1035.97 271.718 Q1039.05 276.301 1039.05 285.051 Q1039.05 293.778 1035.97 298.384 Q1032.91 302.968 1027.1 302.968 Q1021.29 302.968 1018.22 298.384 Q1015.16 293.778 1015.16 285.051 Q1015.16 276.301 1018.22 271.718 Q1021.29 267.111 1027.1 267.111 Z" fill="#000000" fill-rule="nonzero" fill-opacity="1" /><path clip-path="url(#clip770)" d="M1051.29 298.361 L1067.61 298.361 L1067.61 302.296 L1045.67 302.296 L1045.67 298.361 Q1048.33 295.607 1052.91 290.977 Q1057.52 286.324 1058.7 284.982 Q1060.95 282.458 1061.83 280.722 Q1062.73 278.963 1062.73 277.273 Q1062.73 274.519 1060.78 272.783 Q1058.86 271.046 1055.76 271.046 Q1053.56 271.046 1051.11 271.81 Q1048.68 272.574 1045.9 274.125 L1045.9 269.403 Q1048.72 268.269 1051.18 267.69 Q1053.63 267.111 1055.67 267.111 Q1061.04 267.111 1064.23 269.796 Q1067.43 272.482 1067.43 276.972 Q1067.43 279.102 1066.62 281.023 Q1065.83 282.921 1063.72 285.514 Q1063.15 286.185 1060.04 289.403 Q1056.94 292.597 1051.29 298.361 Z" fill="#000000" fill-rule="nonzero" fill-opacity="1" /><path clip-path="url(#clip770)" d="M1077.47 267.736 L1095.83 267.736 L1095.83 271.671 L1081.76 271.671 L1081.76 280.144 Q1082.77 279.796 1083.79 279.634 Q1084.81 279.449 1085.83 279.449 Q1091.62 279.449 1095 282.62 Q1098.38 285.792 1098.38 291.208 Q1098.38 296.787 1094.9 299.889 Q1091.43 302.968 1085.11 302.968 Q1082.94 302.968 1080.67 302.597 Q1078.42 302.227 1076.02 301.486 L1076.02 296.787 Q1078.1 297.921 1080.32 298.477 Q1082.54 299.032 1085.02 299.032 Q1089.02 299.032 1091.36 296.926 Q1093.7 294.819 1093.7 291.208 Q1093.7 287.597 1091.36 285.491 Q1089.02 283.384 1085.02 283.384 Q1083.15 283.384 1081.27 283.801 Q1079.42 284.218 1077.47 285.097 L1077.47 267.736 Z" fill="#000000" fill-rule="nonzero" fill-opacity="1" /><path clip-path="url(#clip770)" d="M1106.32 266.324 L1110.02 266.324 Q1113.49 271.787 1115.21 277.019 Q1116.94 282.25 1116.94 287.412 Q1116.94 292.597 1115.21 297.852 Q1113.49 303.106 1110.02 308.546 L1106.32 308.546 Q1109.4 303.245 1110.9 298.014 Q1112.43 292.759 1112.43 287.412 Q1112.43 282.065 1110.9 276.857 Q1109.4 271.648 1106.32 266.324 Z" fill="#000000" fill-rule="nonzero" fill-opacity="1" /><polyline clip-path="url(#clip770)" style="stroke:#3da44d; stroke-linecap:round; stroke-linejoin:round; stroke-width:8; stroke-opacity:1; fill:none" stroke-dasharray="32, 20" points="332.992,336.856 493.999,336.856 "/>
<path clip-path="url(#clip770)" d="M536.667 324.183 L530.324 341.382 L543.032 341.382 L536.667 324.183 M534.028 319.576 L539.329 319.576 L552.5 354.136 L547.639 354.136 L544.491 345.271 L528.912 345.271 L525.764 354.136 L520.834 354.136 L534.028 319.576 Z" fill="#000000" fill-rule="nonzero" fill-opacity="1" /><path clip-path="url(#clip770)" d="M573.588 332.146 L573.588 318.118 L577.847 318.118 L577.847 354.136 L573.588 354.136 L573.588 350.247 Q572.245 352.562 570.185 353.696 Q568.148 354.808 565.278 354.808 Q560.579 354.808 557.616 351.058 Q554.676 347.308 554.676 341.197 Q554.676 335.085 557.616 331.335 Q560.579 327.586 565.278 327.586 Q568.148 327.586 570.185 328.72 Q572.245 329.831 573.588 332.146 M559.074 341.197 Q559.074 345.896 560.995 348.581 Q562.94 351.243 566.319 351.243 Q569.699 351.243 571.643 348.581 Q573.588 345.896 573.588 341.197 Q573.588 336.497 571.643 333.835 Q569.699 331.15 566.319 331.15 Q562.94 331.15 560.995 333.835 Q559.074 336.497 559.074 341.197 Z" fill="#000000" fill-rule="nonzero" fill-opacity="1" /><path clip-path="url(#clip770)" d="M598.403 341.104 Q593.241 341.104 591.25 342.284 Q589.259 343.465 589.259 346.312 Q589.259 348.581 590.741 349.923 Q592.245 351.243 594.815 351.243 Q598.356 351.243 600.486 348.743 Q602.639 346.22 602.639 342.053 L602.639 341.104 L598.403 341.104 M606.898 339.345 L606.898 354.136 L602.639 354.136 L602.639 350.201 Q601.18 352.562 599.004 353.696 Q596.828 354.808 593.68 354.808 Q589.699 354.808 587.338 352.585 Q585 350.34 585 346.59 Q585 342.215 587.916 339.993 Q590.856 337.771 596.666 337.771 L602.639 337.771 L602.639 337.354 Q602.639 334.414 600.694 332.817 Q598.773 331.197 595.278 331.197 Q593.055 331.197 590.949 331.729 Q588.842 332.261 586.898 333.326 L586.898 329.391 Q589.236 328.488 591.435 328.048 Q593.634 327.586 595.717 327.586 Q601.342 327.586 604.12 330.502 Q606.898 333.419 606.898 339.345 Z" fill="#000000" fill-rule="nonzero" fill-opacity="1" /><path clip-path="url(#clip770)" d="M635.856 333.187 Q637.453 330.317 639.675 328.951 Q641.898 327.586 644.907 327.586 Q648.958 327.586 651.157 330.433 Q653.356 333.257 653.356 338.488 L653.356 354.136 L649.074 354.136 L649.074 338.627 Q649.074 334.9 647.754 333.095 Q646.435 331.289 643.726 331.289 Q640.416 331.289 638.495 333.488 Q636.574 335.687 636.574 339.484 L636.574 354.136 L632.291 354.136 L632.291 338.627 Q632.291 334.877 630.972 333.095 Q629.652 331.289 626.898 331.289 Q623.634 331.289 621.713 333.511 Q619.791 335.71 619.791 339.484 L619.791 354.136 L615.509 354.136 L615.509 328.211 L619.791 328.211 L619.791 332.238 Q621.25 329.854 623.287 328.72 Q625.324 327.586 628.125 327.586 Q630.949 327.586 632.916 329.021 Q634.907 330.456 635.856 333.187 Z" fill="#000000" fill-rule="nonzero" fill-opacity="1" /><path clip-path="url(#clip770)" d="M687.152 318.164 Q684.05 323.488 682.546 328.697 Q681.041 333.905 681.041 339.252 Q681.041 344.599 682.546 349.854 Q684.073 355.085 687.152 360.386 L683.448 360.386 Q679.976 354.946 678.24 349.692 Q676.527 344.437 676.527 339.252 Q676.527 334.09 678.24 328.859 Q679.953 323.627 683.448 318.164 L687.152 318.164 Z" fill="#000000" fill-rule="nonzero" fill-opacity="1" /><path clip-path="url(#clip770)" d="M695.416 318.118 L699.675 318.118 L699.675 354.136 L695.416 354.136 L695.416 318.118 Z" fill="#000000" fill-rule="nonzero" fill-opacity="1" /><path clip-path="url(#clip770)" d="M718.633 331.197 Q715.207 331.197 713.217 333.882 Q711.226 336.544 711.226 341.197 Q711.226 345.849 713.194 348.534 Q715.184 351.196 718.633 351.196 Q722.036 351.196 724.027 348.511 Q726.018 345.826 726.018 341.197 Q726.018 336.59 724.027 333.905 Q722.036 331.197 718.633 331.197 M718.633 327.586 Q724.189 327.586 727.36 331.197 Q730.531 334.808 730.531 341.197 Q730.531 347.562 727.36 351.196 Q724.189 354.808 718.633 354.808 Q713.055 354.808 709.883 351.196 Q706.735 347.562 706.735 341.197 Q706.735 334.808 709.883 331.197 Q713.055 327.586 718.633 327.586 Z" fill="#000000" fill-rule="nonzero" fill-opacity="1" /><path clip-path="url(#clip770)" d="M754.119 328.974 L754.119 333.002 Q752.314 332.076 750.369 331.613 Q748.425 331.15 746.342 331.15 Q743.17 331.15 741.573 332.123 Q739.999 333.095 739.999 335.039 Q739.999 336.521 741.133 337.377 Q742.268 338.21 745.693 338.974 L747.152 339.298 Q751.689 340.271 753.587 342.053 Q755.508 343.812 755.508 346.984 Q755.508 350.595 752.638 352.701 Q749.791 354.808 744.791 354.808 Q742.707 354.808 740.439 354.391 Q738.193 353.997 735.693 353.187 L735.693 348.789 Q738.055 350.016 740.346 350.641 Q742.638 351.243 744.883 351.243 Q747.892 351.243 749.513 350.224 Q751.133 349.183 751.133 347.308 Q751.133 345.572 749.953 344.646 Q748.795 343.72 744.837 342.863 L743.355 342.516 Q739.397 341.683 737.638 339.97 Q735.879 338.234 735.879 335.224 Q735.879 331.567 738.471 329.576 Q741.064 327.586 745.832 327.586 Q748.193 327.586 750.277 327.933 Q752.36 328.28 754.119 328.974 Z" fill="#000000" fill-rule="nonzero" fill-opacity="1" /><path clip-path="url(#clip770)" d="M778.818 328.974 L778.818 333.002 Q777.013 332.076 775.068 331.613 Q773.124 331.15 771.041 331.15 Q767.869 331.15 766.272 332.123 Q764.698 333.095 764.698 335.039 Q764.698 336.521 765.832 337.377 Q766.966 338.21 770.392 338.974 L771.851 339.298 Q776.388 340.271 778.286 342.053 Q780.207 343.812 780.207 346.984 Q780.207 350.595 777.337 352.701 Q774.49 354.808 769.49 354.808 Q767.406 354.808 765.138 354.391 Q762.892 353.997 760.392 353.187 L760.392 348.789 Q762.754 350.016 765.045 350.641 Q767.337 351.243 769.582 351.243 Q772.591 351.243 774.212 350.224 Q775.832 349.183 775.832 347.308 Q775.832 345.572 774.652 344.646 Q773.494 343.72 769.536 342.863 L768.054 342.516 Q764.096 341.683 762.337 339.97 Q760.578 338.234 760.578 335.224 Q760.578 331.567 763.17 329.576 Q765.763 327.586 770.531 327.586 Q772.892 327.586 774.976 327.933 Q777.059 328.28 778.818 328.974 Z" fill="#000000" fill-rule="nonzero" fill-opacity="1" /><path clip-path="url(#clip770)" d="M787.545 332.609 L817.221 332.609 L817.221 336.497 L787.545 336.497 L787.545 332.609 M787.545 342.053 L817.221 342.053 L817.221 345.988 L787.545 345.988 L787.545 342.053 Z" fill="#000000" fill-rule="nonzero" fill-opacity="1" /><path clip-path="url(#clip770)" d="M837.313 322.655 Q833.702 322.655 831.874 326.22 Q830.068 329.761 830.068 336.891 Q830.068 343.997 831.874 347.562 Q833.702 351.104 837.313 351.104 Q840.948 351.104 842.753 347.562 Q844.582 343.997 844.582 336.891 Q844.582 329.761 842.753 326.22 Q840.948 322.655 837.313 322.655 M837.313 318.951 Q843.123 318.951 846.179 323.558 Q849.258 328.141 849.258 336.891 Q849.258 345.618 846.179 350.224 Q843.123 354.808 837.313 354.808 Q831.503 354.808 828.424 350.224 Q825.369 345.618 825.369 336.891 Q825.369 328.141 828.424 323.558 Q831.503 318.951 837.313 318.951 Z" fill="#000000" fill-rule="nonzero" fill-opacity="1" /><path clip-path="url(#clip770)" d="M857.475 348.257 L862.359 348.257 L862.359 354.136 L857.475 354.136 L857.475 348.257 Z" fill="#000000" fill-rule="nonzero" fill-opacity="1" /><path clip-path="url(#clip770)" d="M886.711 335.502 Q890.068 336.22 891.943 338.488 Q893.841 340.757 893.841 344.09 Q893.841 349.206 890.322 352.007 Q886.804 354.808 880.322 354.808 Q878.146 354.808 875.832 354.368 Q873.54 353.951 871.086 353.095 L871.086 348.581 Q873.031 349.715 875.346 350.294 Q877.66 350.872 880.183 350.872 Q884.582 350.872 886.873 349.136 Q889.188 347.4 889.188 344.09 Q889.188 341.035 887.035 339.322 Q884.906 337.585 881.086 337.585 L877.058 337.585 L877.058 333.743 L881.271 333.743 Q884.72 333.743 886.549 332.377 Q888.378 330.988 888.378 328.396 Q888.378 325.734 886.48 324.322 Q884.605 322.886 881.086 322.886 Q879.165 322.886 876.966 323.303 Q874.767 323.72 872.128 324.599 L872.128 320.433 Q874.79 319.692 877.105 319.322 Q879.443 318.951 881.503 318.951 Q886.827 318.951 889.929 321.382 Q893.031 323.789 893.031 327.91 Q893.031 330.78 891.387 332.771 Q889.744 334.738 886.711 335.502 Z" fill="#000000" fill-rule="nonzero" fill-opacity="1" /><path clip-path="url(#clip770)" d="M901.526 319.576 L923.748 319.576 L923.748 321.567 L911.202 354.136 L906.318 354.136 L918.123 323.511 L901.526 323.511 L901.526 319.576 Z" fill="#000000" fill-rule="nonzero" fill-opacity="1" /><path clip-path="url(#clip770)" d="M931.688 319.576 L953.91 319.576 L953.91 321.567 L941.364 354.136 L936.479 354.136 L948.285 323.511 L931.688 323.511 L931.688 319.576 Z" fill="#000000" fill-rule="nonzero" fill-opacity="1" /><path clip-path="url(#clip770)" d="M961.757 318.164 L965.461 318.164 Q968.933 323.627 970.646 328.859 Q972.382 334.09 972.382 339.252 Q972.382 344.437 970.646 349.692 Q968.933 354.946 965.461 360.386 L961.757 360.386 Q964.836 355.085 966.34 349.854 Q967.868 344.599 967.868 339.252 Q967.868 333.905 966.34 328.697 Q964.836 323.488 961.757 318.164 Z" fill="#000000" fill-rule="nonzero" fill-opacity="1" /><polyline clip-path="url(#clip770)" style="stroke:#c271d2; stroke-linecap:round; stroke-linejoin:round; stroke-width:8; stroke-opacity:1; fill:none" stroke-dasharray="4, 8" points="332.992,388.696 493.999,388.696 "/>
<path clip-path="url(#clip770)" d="M520.834 371.416 L525.509 371.416 L525.509 402.041 L542.338 402.041 L542.338 405.976 L520.834 405.976 L520.834 371.416 Z" fill="#000000" fill-rule="nonzero" fill-opacity="1" /><path clip-path="url(#clip770)" d="M559.884 376.023 L553.542 393.222 L566.25 393.222 L559.884 376.023 M557.245 371.416 L562.546 371.416 L575.717 405.976 L570.856 405.976 L567.708 397.111 L552.13 397.111 L548.982 405.976 L544.051 405.976 L557.245 371.416 Z" fill="#000000" fill-rule="nonzero" fill-opacity="1" /><path clip-path="url(#clip770)" d="M580.764 371.416 L587.731 371.416 L596.551 394.935 L605.416 371.416 L612.384 371.416 L612.384 405.976 L607.824 405.976 L607.824 375.629 L598.912 399.333 L594.213 399.333 L585.301 375.629 L585.301 405.976 L580.764 405.976 L580.764 371.416 Z" fill="#000000" fill-rule="nonzero" fill-opacity="1" /><path clip-path="url(#clip770)" d="M621.666 371.416 L626.342 371.416 L626.342 402.041 L643.171 402.041 L643.171 405.976 L621.666 405.976 L621.666 371.416 Z" fill="#000000" fill-rule="nonzero" fill-opacity="1" /><path clip-path="url(#clip770)" d="M673.194 370.004 Q670.092 375.328 668.587 380.537 Q667.083 385.745 667.083 391.092 Q667.083 396.439 668.587 401.694 Q670.115 406.925 673.194 412.226 L669.49 412.226 Q666.018 406.786 664.282 401.532 Q662.569 396.277 662.569 391.092 Q662.569 385.93 664.282 380.699 Q665.995 375.467 669.49 370.004 L673.194 370.004 Z" fill="#000000" fill-rule="nonzero" fill-opacity="1" /><path clip-path="url(#clip770)" d="M681.458 369.958 L685.717 369.958 L685.717 405.976 L681.458 405.976 L681.458 369.958 Z" fill="#000000" fill-rule="nonzero" fill-opacity="1" /><path clip-path="url(#clip770)" d="M704.675 383.037 Q701.249 383.037 699.258 385.722 Q697.268 388.384 697.268 393.037 Q697.268 397.689 699.235 400.374 Q701.226 403.036 704.675 403.036 Q708.078 403.036 710.069 400.351 Q712.059 397.666 712.059 393.037 Q712.059 388.43 710.069 385.745 Q708.078 383.037 704.675 383.037 M704.675 379.426 Q710.231 379.426 713.402 383.037 Q716.573 386.648 716.573 393.037 Q716.573 399.402 713.402 403.036 Q710.231 406.648 704.675 406.648 Q699.096 406.648 695.925 403.036 Q692.777 399.402 692.777 393.037 Q692.777 386.648 695.925 383.037 Q699.096 379.426 704.675 379.426 Z" fill="#000000" fill-rule="nonzero" fill-opacity="1" /><path clip-path="url(#clip770)" d="M740.161 380.814 L740.161 384.842 Q738.355 383.916 736.411 383.453 Q734.467 382.99 732.383 382.99 Q729.212 382.99 727.615 383.963 Q726.041 384.935 726.041 386.879 Q726.041 388.361 727.175 389.217 Q728.309 390.05 731.735 390.814 L733.193 391.138 Q737.73 392.111 739.629 393.893 Q741.55 395.652 741.55 398.824 Q741.55 402.435 738.68 404.541 Q735.832 406.648 730.832 406.648 Q728.749 406.648 726.481 406.231 Q724.235 405.837 721.735 405.027 L721.735 400.629 Q724.096 401.856 726.388 402.481 Q728.68 403.083 730.925 403.083 Q733.934 403.083 735.555 402.064 Q737.175 401.023 737.175 399.148 Q737.175 397.412 735.994 396.486 Q734.837 395.56 730.879 394.703 L729.397 394.356 Q725.439 393.523 723.68 391.81 Q721.92 390.074 721.92 387.064 Q721.92 383.407 724.513 381.416 Q727.106 379.426 731.874 379.426 Q734.235 379.426 736.318 379.773 Q738.402 380.12 740.161 380.814 Z" fill="#000000" fill-rule="nonzero" fill-opacity="1" /><path clip-path="url(#clip770)" d="M764.86 380.814 L764.86 384.842 Q763.054 383.916 761.11 383.453 Q759.166 382.99 757.082 382.99 Q753.911 382.99 752.314 383.963 Q750.74 384.935 750.74 386.879 Q750.74 388.361 751.874 389.217 Q753.008 390.05 756.434 390.814 L757.892 391.138 Q762.429 392.111 764.328 393.893 Q766.249 395.652 766.249 398.824 Q766.249 402.435 763.379 404.541 Q760.531 406.648 755.531 406.648 Q753.448 406.648 751.179 406.231 Q748.934 405.837 746.434 405.027 L746.434 400.629 Q748.795 401.856 751.087 402.481 Q753.379 403.083 755.624 403.083 Q758.633 403.083 760.254 402.064 Q761.874 401.023 761.874 399.148 Q761.874 397.412 760.693 396.486 Q759.536 395.56 755.578 394.703 L754.096 394.356 Q750.138 393.523 748.379 391.81 Q746.619 390.074 746.619 387.064 Q746.619 383.407 749.212 381.416 Q751.804 379.426 756.573 379.426 Q758.934 379.426 761.017 379.773 Q763.101 380.12 764.86 380.814 Z" fill="#000000" fill-rule="nonzero" fill-opacity="1" /><path clip-path="url(#clip770)" d="M773.587 384.449 L803.263 384.449 L803.263 388.337 L773.587 388.337 L773.587 384.449 M773.587 393.893 L803.263 393.893 L803.263 397.828 L773.587 397.828 L773.587 393.893 Z" fill="#000000" fill-rule="nonzero" fill-opacity="1" /><path clip-path="url(#clip770)" d="M823.355 374.495 Q819.744 374.495 817.915 378.06 Q816.11 381.601 816.11 388.731 Q816.11 395.837 817.915 399.402 Q819.744 402.944 823.355 402.944 Q826.989 402.944 828.795 399.402 Q830.624 395.837 830.624 388.731 Q830.624 381.601 828.795 378.06 Q826.989 374.495 823.355 374.495 M823.355 370.791 Q829.165 370.791 832.221 375.398 Q835.299 379.981 835.299 388.731 Q835.299 397.458 832.221 402.064 Q829.165 406.648 823.355 406.648 Q817.545 406.648 814.466 402.064 Q811.411 397.458 811.411 388.731 Q811.411 379.981 814.466 375.398 Q817.545 370.791 823.355 370.791 Z" fill="#000000" fill-rule="nonzero" fill-opacity="1" /><path clip-path="url(#clip770)" d="M843.517 400.097 L848.401 400.097 L848.401 405.976 L843.517 405.976 L843.517 400.097 Z" fill="#000000" fill-rule="nonzero" fill-opacity="1" /><path clip-path="url(#clip770)" d="M868.586 374.495 Q864.975 374.495 863.146 378.06 Q861.341 381.601 861.341 388.731 Q861.341 395.837 863.146 399.402 Q864.975 402.944 868.586 402.944 Q872.221 402.944 874.026 399.402 Q875.855 395.837 875.855 388.731 Q875.855 381.601 874.026 378.06 Q872.221 374.495 868.586 374.495 M868.586 370.791 Q874.396 370.791 877.452 375.398 Q880.531 379.981 880.531 388.731 Q880.531 397.458 877.452 402.064 Q874.396 406.648 868.586 406.648 Q862.776 406.648 859.697 402.064 Q856.642 397.458 856.642 388.731 Q856.642 379.981 859.697 375.398 Q862.776 370.791 868.586 370.791 Z" fill="#000000" fill-rule="nonzero" fill-opacity="1" /><path clip-path="url(#clip770)" d="M892.776 402.041 L909.095 402.041 L909.095 405.976 L887.151 405.976 L887.151 402.041 Q889.813 399.287 894.396 394.657 Q899.003 390.004 900.183 388.662 Q902.429 386.138 903.308 384.402 Q904.211 382.643 904.211 380.953 Q904.211 378.199 902.267 376.463 Q900.345 374.726 897.244 374.726 Q895.044 374.726 892.591 375.49 Q890.16 376.254 887.382 377.805 L887.382 373.083 Q890.207 371.949 892.66 371.37 Q895.114 370.791 897.151 370.791 Q902.521 370.791 905.716 373.476 Q908.91 376.162 908.91 380.652 Q908.91 382.782 908.1 384.703 Q907.313 386.601 905.206 389.194 Q904.628 389.865 901.526 393.083 Q898.424 396.277 892.776 402.041 Z" fill="#000000" fill-rule="nonzero" fill-opacity="1" /><path clip-path="url(#clip770)" d="M933.077 387.342 Q936.433 388.06 938.308 390.328 Q940.206 392.597 940.206 395.93 Q940.206 401.046 936.688 403.847 Q933.169 406.648 926.688 406.648 Q924.512 406.648 922.197 406.208 Q919.905 405.791 917.452 404.935 L917.452 400.421 Q919.396 401.555 921.711 402.134 Q924.026 402.712 926.549 402.712 Q930.947 402.712 933.239 400.976 Q935.554 399.24 935.554 395.93 Q935.554 392.875 933.401 391.162 Q931.271 389.425 927.452 389.425 L923.424 389.425 L923.424 385.583 L927.637 385.583 Q931.086 385.583 932.915 384.217 Q934.743 382.828 934.743 380.236 Q934.743 377.574 932.845 376.162 Q930.97 374.726 927.452 374.726 Q925.53 374.726 923.331 375.143 Q921.132 375.56 918.493 376.439 L918.493 372.273 Q921.155 371.532 923.47 371.162 Q925.808 370.791 927.868 370.791 Q933.192 370.791 936.294 373.222 Q939.396 375.629 939.396 379.75 Q939.396 382.62 937.753 384.611 Q936.109 386.578 933.077 387.342 Z" fill="#000000" fill-rule="nonzero" fill-opacity="1" /><path clip-path="url(#clip770)" d="M947.799 370.004 L951.502 370.004 Q954.975 375.467 956.688 380.699 Q958.424 385.93 958.424 391.092 Q958.424 396.277 956.688 401.532 Q954.975 406.786 951.502 412.226 L947.799 412.226 Q950.878 406.925 952.382 401.694 Q953.91 396.439 953.91 391.092 Q953.91 385.745 952.382 380.537 Q950.878 375.328 947.799 370.004 Z" fill="#000000" fill-rule="nonzero" fill-opacity="1" /></svg>
