<?xml version="1.0" encoding="utf-8"?>
<svg xmlns="http://www.w3.org/2000/svg" xmlns:xlink="http://www.w3.org/1999/xlink" width="672" height="480" viewBox="0 0 2688 1920">
<defs>
  <clipPath id="clip760">
    <rect x="0" y="0" width="2688" height="1920"/>
  </clipPath>
</defs>
<path clip-path="url(#clip760)" d="M0 1920 L2688 1920 L2688 -4.26326e-14 L0 -4.26326e-14  Z" fill="#ffffff" fill-rule="evenodd" fill-opacity="1"/>
<defs>
  <clipPath id="clip761">
    <rect x="226" y="127" width="2416" height="1607"/>
  </clipPath>
</defs>
<path clip-path="url(#clip760)" d="M226.141 1734.12 L2640.76 1734.12 L2640.76 127.792 L226.141 127.792  Z" fill="#ffffff" fill-rule="evenodd" fill-opacity="1"/>
<polyline clip-path="url(#clip761)" style="stroke:#000000; stroke-linecap:round; stroke-linejoin:round; stroke-width:2; stroke-opacity:0.1; fill:none" points="294.479,1734.12 294.479,127.792 "/>
<polyline clip-path="url(#clip761)" style="stroke:#000000; stroke-linecap:round; stroke-linejoin:round; stroke-width:2; stroke-opacity:0.1; fill:none" points="674.135,1734.12 674.135,127.792 "/>
<polyline clip-path="url(#clip761)" style="stroke:#000000; stroke-linecap:round; stroke-linejoin:round; stroke-width:2; stroke-opacity:0.1; fill:none" points="1053.79,1734.12 1053.79,127.792 "/>
<polyline clip-path="url(#clip761)" style="stroke:#000000; stroke-linecap:round; stroke-linejoin:round; stroke-width:2; stroke-opacity:0.1; fill:none" points="1433.45,1734.12 1433.45,127.792 "/>
<polyline clip-path="url(#clip761)" style="stroke:#000000; stroke-linecap:round; stroke-linejoin:round; stroke-width:2; stroke-opacity:0.1; fill:none" points="1813.1,1734.12 1813.1,127.792 "/>
<polyline clip-path="url(#clip761)" style="stroke:#000000; stroke-linecap:round; stroke-linejoin:round; stroke-width:2; stroke-opacity:0.1; fill:none" points="2192.76,1734.12 2192.76,127.792 "/>
<polyline clip-path="url(#clip761)" style="stroke:#000000; stroke-linecap:round; stroke-linejoin:round; stroke-width:2; stroke-opacity:0.1; fill:none" points="2572.42,1734.12 2572.42,127.792 "/>
<polyline clip-path="url(#clip761)" style="stroke:#000000; stroke-linecap:round; stroke-linejoin:round; stroke-width:2; stroke-opacity:0.1; fill:none" points="226.141,1640 2640.76,1640 "/>
<polyline clip-path="url(#clip761)" style="stroke:#000000; stroke-linecap:round; stroke-linejoin:round; stroke-width:2; stroke-opacity:0.1; fill:none" points="226.141,1369.04 2640.76,1369.04 "/>
<polyline clip-path="url(#clip761)" style="stroke:#000000; stroke-linecap:round; stroke-linejoin:round; stroke-width:2; stroke-opacity:0.1; fill:none" points="226.141,1098.09 2640.76,1098.09 "/>
<polyline clip-path="url(#clip761)" style="stroke:#000000; stroke-linecap:round; stroke-linejoin:round; stroke-width:2; stroke-opacity:0.1; fill:none" points="226.141,827.129 2640.76,827.129 "/>
<polyline clip-path="url(#clip761)" style="stroke:#000000; stroke-linecap:round; stroke-linejoin:round; stroke-width:2; stroke-opacity:0.1; fill:none" points="226.141,556.172 2640.76,556.172 "/>
<polyline clip-path="url(#clip761)" style="stroke:#000000; stroke-linecap:round; stroke-linejoin:round; stroke-width:2; stroke-opacity:0.1; fill:none" points="226.141,285.216 2640.76,285.216 "/>
<polyline clip-path="url(#clip760)" style="stroke:#000000; stroke-linecap:round; stroke-linejoin:round; stroke-width:4; stroke-opacity:1; fill:none" points="226.141,1734.12 2640.76,1734.12 "/>
<polyline clip-path="url(#clip760)" style="stroke:#000000; stroke-linecap:round; stroke-linejoin:round; stroke-width:4; stroke-opacity:1; fill:none" points="294.479,1734.12 294.479,1715.22 "/>
<polyline clip-path="url(#clip760)" style="stroke:#000000; stroke-linecap:round; stroke-linejoin:round; stroke-width:4; stroke-opacity:1; fill:none" points="674.135,1734.12 674.135,1715.22 "/>
<polyline clip-path="url(#clip760)" style="stroke:#000000; stroke-linecap:round; stroke-linejoin:round; stroke-width:4; stroke-opacity:1; fill:none" points="1053.79,1734.12 1053.79,1715.22 "/>
<polyline clip-path="url(#clip760)" style="stroke:#000000; stroke-linecap:round; stroke-linejoin:round; stroke-width:4; stroke-opacity:1; fill:none" points="1433.45,1734.12 1433.45,1715.22 "/>
<polyline clip-path="url(#clip760)" style="stroke:#000000; stroke-linecap:round; stroke-linejoin:round; stroke-width:4; stroke-opacity:1; fill:none" points="1813.1,1734.12 1813.1,1715.22 "/>
<polyline clip-path="url(#clip760)" style="stroke:#000000; stroke-linecap:round; stroke-linejoin:round; stroke-width:4; stroke-opacity:1; fill:none" points="2192.76,1734.12 2192.76,1715.22 "/>
<polyline clip-path="url(#clip760)" style="stroke:#000000; stroke-linecap:round; stroke-linejoin:round; stroke-width:4; stroke-opacity:1; fill:none" points="2572.42,1734.12 2572.42,1715.22 "/>
<path clip-path="url(#clip760)" d="M294.479 1767.34 Q290.868 1767.34 289.039 1770.9 Q287.233 1774.45 287.233 1781.58 Q287.233 1788.68 289.039 1792.25 Q290.868 1795.79 294.479 1795.79 Q298.113 1795.79 299.919 1792.25 Q301.747 1788.68 301.747 1781.58 Q301.747 1774.45 299.919 1770.9 Q298.113 1767.34 294.479 1767.34 M294.479 1763.64 Q300.289 1763.64 303.344 1768.24 Q306.423 1772.83 306.423 1781.58 Q306.423 1790.3 303.344 1794.91 Q300.289 1799.49 294.479 1799.49 Q288.669 1799.49 285.59 1794.91 Q282.534 1790.3 282.534 1781.58 Q282.534 1772.83 285.59 1768.24 Q288.669 1763.64 294.479 1763.64 Z" fill="#000000" fill-rule="nonzero" fill-opacity="1" /><path clip-path="url(#clip760)" d="M648.823 1794.89 L656.462 1794.89 L656.462 1768.52 L648.152 1770.19 L648.152 1765.93 L656.415 1764.26 L661.091 1764.26 L661.091 1794.89 L668.73 1794.89 L668.73 1798.82 L648.823 1798.82 L648.823 1794.89 Z" fill="#000000" fill-rule="nonzero" fill-opacity="1" /><path clip-path="url(#clip760)" d="M688.175 1767.34 Q684.563 1767.34 682.735 1770.9 Q680.929 1774.45 680.929 1781.58 Q680.929 1788.68 682.735 1792.25 Q684.563 1795.79 688.175 1795.79 Q691.809 1795.79 693.614 1792.25 Q695.443 1788.68 695.443 1781.58 Q695.443 1774.45 693.614 1770.9 Q691.809 1767.34 688.175 1767.34 M688.175 1763.64 Q693.985 1763.64 697.04 1768.24 Q700.119 1772.83 700.119 1781.58 Q700.119 1790.3 697.04 1794.91 Q693.985 1799.49 688.175 1799.49 Q682.364 1799.49 679.286 1794.91 Q676.23 1790.3 676.23 1781.58 Q676.23 1772.83 679.286 1768.24 Q682.364 1763.64 688.175 1763.64 Z" fill="#000000" fill-rule="nonzero" fill-opacity="1" /><path clip-path="url(#clip760)" d="M1032.56 1794.89 L1048.88 1794.89 L1048.88 1798.82 L1026.94 1798.82 L1026.94 1794.89 Q1029.6 1792.13 1034.19 1787.5 Q1038.79 1782.85 1039.97 1781.51 Q1042.22 1778.98 1043.1 1777.25 Q1044 1775.49 1044 1773.8 Q1044 1771.04 1042.06 1769.31 Q1040.13 1767.57 1037.03 1767.57 Q1034.83 1767.57 1032.38 1768.34 Q1029.95 1769.1 1027.17 1770.65 L1027.17 1765.93 Q1030 1764.79 1032.45 1764.21 Q1034.9 1763.64 1036.94 1763.64 Q1042.31 1763.64 1045.5 1766.32 Q1048.7 1769.01 1048.7 1773.5 Q1048.7 1775.63 1047.89 1777.55 Q1047.1 1779.45 1045 1782.04 Q1044.42 1782.71 1041.31 1785.93 Q1038.21 1789.12 1032.56 1794.89 Z" fill="#000000" fill-rule="nonzero" fill-opacity="1" /><path clip-path="url(#clip760)" d="M1068.7 1767.34 Q1065.09 1767.34 1063.26 1770.9 Q1061.45 1774.45 1061.45 1781.58 Q1061.45 1788.68 1063.26 1792.25 Q1065.09 1795.79 1068.7 1795.79 Q1072.33 1795.79 1074.14 1792.25 Q1075.97 1788.68 1075.97 1781.58 Q1075.97 1774.45 1074.14 1770.9 Q1072.33 1767.34 1068.7 1767.34 M1068.7 1763.64 Q1074.51 1763.64 1077.56 1768.24 Q1080.64 1772.83 1080.64 1781.58 Q1080.64 1790.3 1077.56 1794.91 Q1074.51 1799.49 1068.7 1799.49 Q1062.89 1799.49 1059.81 1794.91 Q1056.75 1790.3 1056.75 1781.58 Q1056.75 1772.83 1059.81 1768.24 Q1062.89 1763.64 1068.7 1763.64 Z" fill="#000000" fill-rule="nonzero" fill-opacity="1" /><path clip-path="url(#clip760)" d="M1422.29 1780.19 Q1425.65 1780.9 1427.52 1783.17 Q1429.42 1785.44 1429.42 1788.77 Q1429.42 1793.89 1425.9 1796.69 Q1422.38 1799.49 1415.9 1799.49 Q1413.73 1799.49 1411.41 1799.05 Q1409.12 1798.64 1406.67 1797.78 L1406.67 1793.27 Q1408.61 1794.4 1410.93 1794.98 Q1413.24 1795.56 1415.76 1795.56 Q1420.16 1795.56 1422.45 1793.82 Q1424.77 1792.08 1424.77 1788.77 Q1424.77 1785.72 1422.61 1784.01 Q1420.49 1782.27 1416.67 1782.27 L1412.64 1782.27 L1412.64 1778.43 L1416.85 1778.43 Q1420.3 1778.43 1422.13 1777.06 Q1423.96 1775.67 1423.96 1773.08 Q1423.96 1770.42 1422.06 1769.01 Q1420.18 1767.57 1416.67 1767.57 Q1414.74 1767.57 1412.55 1767.99 Q1410.35 1768.4 1407.71 1769.28 L1407.71 1765.12 Q1410.37 1764.38 1412.68 1764.01 Q1415.02 1763.64 1417.08 1763.64 Q1422.41 1763.64 1425.51 1766.07 Q1428.61 1768.47 1428.61 1772.59 Q1428.61 1775.46 1426.97 1777.46 Q1425.32 1779.42 1422.29 1780.19 Z" fill="#000000" fill-rule="nonzero" fill-opacity="1" /><path clip-path="url(#clip760)" d="M1448.29 1767.34 Q1444.68 1767.34 1442.85 1770.9 Q1441.04 1774.45 1441.04 1781.58 Q1441.04 1788.68 1442.85 1792.25 Q1444.68 1795.79 1448.29 1795.79 Q1451.92 1795.79 1453.73 1792.25 Q1455.55 1788.68 1455.55 1781.58 Q1455.55 1774.45 1453.73 1770.9 Q1451.92 1767.34 1448.29 1767.34 M1448.29 1763.64 Q1454.1 1763.64 1457.15 1768.24 Q1460.23 1772.83 1460.23 1781.58 Q1460.23 1790.3 1457.15 1794.91 Q1454.1 1799.49 1448.29 1799.49 Q1442.48 1799.49 1439.4 1794.91 Q1436.34 1790.3 1436.34 1781.58 Q1436.34 1772.83 1439.4 1768.24 Q1442.48 1763.64 1448.29 1763.64 Z" fill="#000000" fill-rule="nonzero" fill-opacity="1" /><path clip-path="url(#clip760)" d="M1801.28 1768.34 L1789.47 1786.78 L1801.28 1786.78 L1801.28 1768.34 M1800.05 1764.26 L1805.93 1764.26 L1805.93 1786.78 L1810.86 1786.78 L1810.86 1790.67 L1805.93 1790.67 L1805.93 1798.82 L1801.28 1798.82 L1801.28 1790.67 L1785.67 1790.67 L1785.67 1786.16 L1800.05 1764.26 Z" fill="#000000" fill-rule="nonzero" fill-opacity="1" /><path clip-path="url(#clip760)" d="M1828.59 1767.34 Q1824.98 1767.34 1823.15 1770.9 Q1821.35 1774.45 1821.35 1781.58 Q1821.35 1788.68 1823.15 1792.25 Q1824.98 1795.79 1828.59 1795.79 Q1832.22 1795.79 1834.03 1792.25 Q1835.86 1788.68 1835.86 1781.58 Q1835.86 1774.45 1834.03 1770.9 Q1832.22 1767.34 1828.59 1767.34 M1828.59 1763.64 Q1834.4 1763.64 1837.46 1768.24 Q1840.54 1772.83 1840.54 1781.58 Q1840.54 1790.3 1837.46 1794.91 Q1834.4 1799.49 1828.59 1799.49 Q1822.78 1799.49 1819.7 1794.91 Q1816.65 1790.3 1816.65 1781.58 Q1816.65 1772.83 1819.7 1768.24 Q1822.78 1763.64 1828.59 1763.64 Z" fill="#000000" fill-rule="nonzero" fill-opacity="1" /><path clip-path="url(#clip760)" d="M2167.46 1764.26 L2185.82 1764.26 L2185.82 1768.2 L2171.74 1768.2 L2171.74 1776.67 Q2172.76 1776.32 2173.78 1776.16 Q2174.8 1775.97 2175.82 1775.97 Q2181.6 1775.97 2184.98 1779.15 Q2188.36 1782.32 2188.36 1787.73 Q2188.36 1793.31 2184.89 1796.41 Q2181.42 1799.49 2175.1 1799.49 Q2172.92 1799.49 2170.65 1799.12 Q2168.41 1798.75 2166 1798.01 L2166 1793.31 Q2168.09 1794.45 2170.31 1795 Q2172.53 1795.56 2175.01 1795.56 Q2179.01 1795.56 2181.35 1793.45 Q2183.69 1791.34 2183.69 1787.73 Q2183.69 1784.12 2181.35 1782.02 Q2179.01 1779.91 2175.01 1779.91 Q2173.13 1779.91 2171.26 1780.33 Q2169.4 1780.74 2167.46 1781.62 L2167.46 1764.26 Z" fill="#000000" fill-rule="nonzero" fill-opacity="1" /><path clip-path="url(#clip760)" d="M2207.58 1767.34 Q2203.96 1767.34 2202.14 1770.9 Q2200.33 1774.45 2200.33 1781.58 Q2200.33 1788.68 2202.14 1792.25 Q2203.96 1795.79 2207.58 1795.79 Q2211.21 1795.79 2213.02 1792.25 Q2214.84 1788.68 2214.84 1781.58 Q2214.84 1774.45 2213.02 1770.9 Q2211.21 1767.34 2207.58 1767.34 M2207.58 1763.64 Q2213.39 1763.64 2216.44 1768.24 Q2219.52 1772.83 2219.52 1781.58 Q2219.52 1790.3 2216.44 1794.91 Q2213.39 1799.49 2207.58 1799.49 Q2201.77 1799.49 2198.69 1794.91 Q2195.63 1790.3 2195.63 1781.58 Q2195.63 1772.83 2198.69 1768.24 Q2201.77 1763.64 2207.58 1763.64 Z" fill="#000000" fill-rule="nonzero" fill-opacity="1" /><path clip-path="url(#clip760)" d="M2557.82 1779.68 Q2554.67 1779.68 2552.82 1781.83 Q2550.99 1783.98 2550.99 1787.73 Q2550.99 1791.46 2552.82 1793.64 Q2554.67 1795.79 2557.82 1795.79 Q2560.97 1795.79 2562.8 1793.64 Q2564.65 1791.46 2564.65 1787.73 Q2564.65 1783.98 2562.8 1781.83 Q2560.97 1779.68 2557.82 1779.68 M2567.11 1765.02 L2567.11 1769.28 Q2565.35 1768.45 2563.54 1768.01 Q2561.76 1767.57 2560 1767.57 Q2555.37 1767.57 2552.92 1770.7 Q2550.48 1773.82 2550.14 1780.14 Q2551.5 1778.13 2553.56 1777.06 Q2555.62 1775.97 2558.1 1775.97 Q2563.31 1775.97 2566.32 1779.15 Q2569.35 1782.29 2569.35 1787.73 Q2569.35 1793.06 2566.2 1796.27 Q2563.05 1799.49 2557.82 1799.49 Q2551.83 1799.49 2548.66 1794.91 Q2545.49 1790.3 2545.49 1781.58 Q2545.49 1773.38 2549.37 1768.52 Q2553.26 1763.64 2559.81 1763.64 Q2561.57 1763.64 2563.36 1763.98 Q2565.16 1764.33 2567.11 1765.02 Z" fill="#000000" fill-rule="nonzero" fill-opacity="1" /><path clip-path="url(#clip760)" d="M2587.41 1767.34 Q2583.79 1767.34 2581.97 1770.9 Q2580.16 1774.45 2580.16 1781.58 Q2580.16 1788.68 2581.97 1792.25 Q2583.79 1795.79 2587.41 1795.79 Q2591.04 1795.79 2592.85 1792.25 Q2594.67 1788.68 2594.67 1781.58 Q2594.67 1774.45 2592.85 1770.9 Q2591.04 1767.34 2587.41 1767.34 M2587.41 1763.64 Q2593.22 1763.64 2596.27 1768.24 Q2599.35 1772.83 2599.35 1781.58 Q2599.35 1790.3 2596.27 1794.91 Q2593.22 1799.49 2587.41 1799.49 Q2581.6 1799.49 2578.52 1794.91 Q2575.46 1790.3 2575.46 1781.58 Q2575.46 1772.83 2578.52 1768.24 Q2581.6 1763.64 2587.41 1763.64 Z" fill="#000000" fill-rule="nonzero" fill-opacity="1" /><path clip-path="url(#clip760)" d="M1379.69 1841.06 L1379.69 1878.02 L1387.46 1878.02 Q1397.29 1878.02 1401.84 1873.56 Q1406.43 1869.11 1406.43 1859.49 Q1406.43 1849.94 1401.84 1845.52 Q1397.29 1841.06 1387.46 1841.06 L1379.69 1841.06 M1373.26 1835.78 L1386.47 1835.78 Q1400.28 1835.78 1406.74 1841.54 Q1413.21 1847.27 1413.21 1859.49 Q1413.21 1871.78 1406.71 1877.54 Q1400.22 1883.3 1386.47 1883.3 L1373.26 1883.3 L1373.26 1835.78 Z" fill="#000000" fill-rule="nonzero" fill-opacity="1" /><path clip-path="url(#clip760)" d="M1439.4 1865.38 Q1432.3 1865.38 1429.57 1867 Q1426.83 1868.63 1426.83 1872.54 Q1426.83 1875.66 1428.86 1877.51 Q1430.93 1879.32 1434.47 1879.32 Q1439.34 1879.32 1442.26 1875.88 Q1445.22 1872.42 1445.22 1866.69 L1445.22 1865.38 L1439.4 1865.38 M1451.08 1862.96 L1451.08 1883.3 L1445.22 1883.3 L1445.22 1877.89 Q1443.22 1881.14 1440.23 1882.7 Q1437.24 1884.22 1432.91 1884.22 Q1427.43 1884.22 1424.19 1881.17 Q1420.97 1878.08 1420.97 1872.92 Q1420.97 1866.91 1424.98 1863.85 Q1429.02 1860.8 1437.01 1860.8 L1445.22 1860.8 L1445.22 1860.23 Q1445.22 1856.18 1442.55 1853.99 Q1439.91 1851.76 1435.1 1851.76 Q1432.05 1851.76 1429.15 1852.49 Q1426.25 1853.22 1423.58 1854.69 L1423.58 1849.28 Q1426.8 1848.03 1429.82 1847.43 Q1432.84 1846.79 1435.71 1846.79 Q1443.44 1846.79 1447.26 1850.8 Q1451.08 1854.81 1451.08 1862.96 Z" fill="#000000" fill-rule="nonzero" fill-opacity="1" /><path clip-path="url(#clip760)" d="M1477.98 1886.61 Q1475.49 1892.98 1473.14 1894.92 Q1470.78 1896.86 1466.84 1896.86 L1462.16 1896.86 L1462.16 1891.96 L1465.6 1891.96 Q1468.01 1891.96 1469.35 1890.81 Q1470.69 1889.67 1472.31 1885.4 L1473.36 1882.73 L1458.94 1847.65 L1465.15 1847.65 L1476.29 1875.53 L1487.43 1847.65 L1493.64 1847.65 L1477.98 1886.61 Z" fill="#000000" fill-rule="nonzero" fill-opacity="1" /><polyline clip-path="url(#clip760)" style="stroke:#000000; stroke-linecap:round; stroke-linejoin:round; stroke-width:4; stroke-opacity:1; fill:none" points="226.141,1734.12 226.141,127.792 "/>
<polyline clip-path="url(#clip760)" style="stroke:#000000; stroke-linecap:round; stroke-linejoin:round; stroke-width:4; stroke-opacity:1; fill:none" points="226.141,1640 245.038,1640 "/>
<polyline clip-path="url(#clip760)" style="stroke:#000000; stroke-linecap:round; stroke-linejoin:round; stroke-width:4; stroke-opacity:1; fill:none" points="226.141,1369.04 245.038,1369.04 "/>
<polyline clip-path="url(#clip760)" style="stroke:#000000; stroke-linecap:round; stroke-linejoin:round; stroke-width:4; stroke-opacity:1; fill:none" points="226.141,1098.09 245.038,1098.09 "/>
<polyline clip-path="url(#clip760)" style="stroke:#000000; stroke-linecap:round; stroke-linejoin:round; stroke-width:4; stroke-opacity:1; fill:none" points="226.141,827.129 245.038,827.129 "/>
<polyline clip-path="url(#clip760)" style="stroke:#000000; stroke-linecap:round; stroke-linejoin:round; stroke-width:4; stroke-opacity:1; fill:none" points="226.141,556.172 245.038,556.172 "/>
<polyline clip-path="url(#clip760)" style="stroke:#000000; stroke-linecap:round; stroke-linejoin:round; stroke-width:4; stroke-opacity:1; fill:none" points="226.141,285.216 245.038,285.216 "/>
<path clip-path="url(#clip760)" d="M129.872 1625.8 Q126.261 1625.8 124.432 1629.36 Q122.626 1632.9 122.626 1640.03 Q122.626 1647.14 124.432 1650.71 Q126.261 1654.25 129.872 1654.25 Q133.506 1654.25 135.312 1650.71 Q137.14 1647.14 137.14 1640.03 Q137.14 1632.9 135.312 1629.36 Q133.506 1625.8 129.872 1625.8 M129.872 1622.09 Q135.682 1622.09 138.737 1626.7 Q141.816 1631.28 141.816 1640.03 Q141.816 1648.76 138.737 1653.37 Q135.682 1657.95 129.872 1657.95 Q124.062 1657.95 120.983 1653.37 Q117.927 1648.76 117.927 1640.03 Q117.927 1631.28 120.983 1626.7 Q124.062 1622.09 129.872 1622.09 Z" fill="#000000" fill-rule="nonzero" fill-opacity="1" /><path clip-path="url(#clip760)" d="M150.034 1651.4 L154.918 1651.4 L154.918 1657.28 L150.034 1657.28 L150.034 1651.4 Z" fill="#000000" fill-rule="nonzero" fill-opacity="1" /><path clip-path="url(#clip760)" d="M165.913 1653.34 L173.552 1653.34 L173.552 1626.98 L165.242 1628.65 L165.242 1624.39 L173.506 1622.72 L178.182 1622.72 L178.182 1653.34 L185.821 1653.34 L185.821 1657.28 L165.913 1657.28 L165.913 1653.34 Z" fill="#000000" fill-rule="nonzero" fill-opacity="1" /><path clip-path="url(#clip760)" d="M130.242 1354.84 Q126.631 1354.84 124.802 1358.41 Q122.997 1361.95 122.997 1369.08 Q122.997 1376.18 124.802 1379.75 Q126.631 1383.29 130.242 1383.29 Q133.876 1383.29 135.682 1379.75 Q137.511 1376.18 137.511 1369.08 Q137.511 1361.95 135.682 1358.41 Q133.876 1354.84 130.242 1354.84 M130.242 1351.14 Q136.052 1351.14 139.108 1355.74 Q142.187 1360.33 142.187 1369.08 Q142.187 1377.8 139.108 1382.41 Q136.052 1386.99 130.242 1386.99 Q124.432 1386.99 121.353 1382.41 Q118.298 1377.8 118.298 1369.08 Q118.298 1360.33 121.353 1355.74 Q124.432 1351.14 130.242 1351.14 Z" fill="#000000" fill-rule="nonzero" fill-opacity="1" /><path clip-path="url(#clip760)" d="M150.404 1380.44 L155.288 1380.44 L155.288 1386.32 L150.404 1386.32 L150.404 1380.44 Z" fill="#000000" fill-rule="nonzero" fill-opacity="1" /><path clip-path="url(#clip760)" d="M169.501 1382.39 L185.821 1382.39 L185.821 1386.32 L163.876 1386.32 L163.876 1382.39 Q166.538 1379.63 171.122 1375 Q175.728 1370.35 176.909 1369.01 Q179.154 1366.49 180.034 1364.75 Q180.936 1362.99 180.936 1361.3 Q180.936 1358.55 178.992 1356.81 Q177.071 1355.07 173.969 1355.07 Q171.77 1355.07 169.316 1355.84 Q166.885 1356.6 164.108 1358.15 L164.108 1353.43 Q166.932 1352.3 169.385 1351.72 Q171.839 1351.14 173.876 1351.14 Q179.247 1351.14 182.441 1353.82 Q185.635 1356.51 185.635 1361 Q185.635 1363.13 184.825 1365.05 Q184.038 1366.95 181.932 1369.54 Q181.353 1370.21 178.251 1373.43 Q175.149 1376.62 169.501 1382.39 Z" fill="#000000" fill-rule="nonzero" fill-opacity="1" /><path clip-path="url(#clip760)" d="M129.293 1083.88 Q125.682 1083.88 123.853 1087.45 Q122.048 1090.99 122.048 1098.12 Q122.048 1105.23 123.853 1108.79 Q125.682 1112.33 129.293 1112.33 Q132.927 1112.33 134.733 1108.79 Q136.562 1105.23 136.562 1098.12 Q136.562 1090.99 134.733 1087.45 Q132.927 1083.88 129.293 1083.88 M129.293 1080.18 Q135.103 1080.18 138.159 1084.79 Q141.237 1089.37 141.237 1098.12 Q141.237 1106.85 138.159 1111.45 Q135.103 1116.04 129.293 1116.04 Q123.483 1116.04 120.404 1111.45 Q117.349 1106.85 117.349 1098.12 Q117.349 1089.37 120.404 1084.79 Q123.483 1080.18 129.293 1080.18 Z" fill="#000000" fill-rule="nonzero" fill-opacity="1" /><path clip-path="url(#clip760)" d="M149.455 1109.49 L154.339 1109.49 L154.339 1115.37 L149.455 1115.37 L149.455 1109.49 Z" fill="#000000" fill-rule="nonzero" fill-opacity="1" /><path clip-path="url(#clip760)" d="M178.691 1096.73 Q182.047 1097.45 183.922 1099.72 Q185.821 1101.99 185.821 1105.32 Q185.821 1110.44 182.302 1113.24 Q178.784 1116.04 172.302 1116.04 Q170.126 1116.04 167.811 1115.6 Q165.52 1115.18 163.066 1114.32 L163.066 1109.81 Q165.01 1110.94 167.325 1111.52 Q169.64 1112.1 172.163 1112.1 Q176.561 1112.1 178.853 1110.37 Q181.168 1108.63 181.168 1105.32 Q181.168 1102.26 179.015 1100.55 Q176.885 1098.82 173.066 1098.82 L169.038 1098.82 L169.038 1094.97 L173.251 1094.97 Q176.7 1094.97 178.529 1093.61 Q180.358 1092.22 180.358 1089.63 Q180.358 1086.96 178.459 1085.55 Q176.584 1084.12 173.066 1084.12 Q171.145 1084.12 168.946 1084.53 Q166.747 1084.95 164.108 1085.83 L164.108 1081.66 Q166.77 1080.92 169.085 1080.55 Q171.422 1080.18 173.483 1080.18 Q178.807 1080.18 181.909 1082.61 Q185.01 1085.02 185.01 1089.14 Q185.01 1092.01 183.367 1094 Q181.723 1095.97 178.691 1096.73 Z" fill="#000000" fill-rule="nonzero" fill-opacity="1" /><path clip-path="url(#clip760)" d="M128.159 812.928 Q124.548 812.928 122.719 816.493 Q120.913 820.034 120.913 827.164 Q120.913 834.27 122.719 837.835 Q124.548 841.377 128.159 841.377 Q131.793 841.377 133.599 837.835 Q135.427 834.27 135.427 827.164 Q135.427 820.034 133.599 816.493 Q131.793 812.928 128.159 812.928 M128.159 809.224 Q133.969 809.224 137.025 813.831 Q140.103 818.414 140.103 827.164 Q140.103 835.891 137.025 840.497 Q133.969 845.081 128.159 845.081 Q122.349 845.081 119.27 840.497 Q116.214 835.891 116.214 827.164 Q116.214 818.414 119.27 813.831 Q122.349 809.224 128.159 809.224 Z" fill="#000000" fill-rule="nonzero" fill-opacity="1" /><path clip-path="url(#clip760)" d="M148.321 838.53 L153.205 838.53 L153.205 844.409 L148.321 844.409 L148.321 838.53 Z" fill="#000000" fill-rule="nonzero" fill-opacity="1" /><path clip-path="url(#clip760)" d="M176.237 813.923 L164.432 832.372 L176.237 832.372 L176.237 813.923 M175.01 809.849 L180.89 809.849 L180.89 832.372 L185.821 832.372 L185.821 836.261 L180.89 836.261 L180.89 844.409 L176.237 844.409 L176.237 836.261 L160.636 836.261 L160.636 831.747 L175.01 809.849 Z" fill="#000000" fill-rule="nonzero" fill-opacity="1" /><path clip-path="url(#clip760)" d="M129.64 541.971 Q126.029 541.971 124.201 545.536 Q122.395 549.078 122.395 556.207 Q122.395 563.314 124.201 566.878 Q126.029 570.42 129.64 570.42 Q133.275 570.42 135.08 566.878 Q136.909 563.314 136.909 556.207 Q136.909 549.078 135.08 545.536 Q133.275 541.971 129.64 541.971 M129.64 538.267 Q135.45 538.267 138.506 542.874 Q141.585 547.457 141.585 556.207 Q141.585 564.934 138.506 569.54 Q135.45 574.124 129.64 574.124 Q123.83 574.124 120.751 569.54 Q117.696 564.934 117.696 556.207 Q117.696 547.457 120.751 542.874 Q123.83 538.267 129.64 538.267 Z" fill="#000000" fill-rule="nonzero" fill-opacity="1" /><path clip-path="url(#clip760)" d="M149.802 567.573 L154.686 567.573 L154.686 573.452 L149.802 573.452 L149.802 567.573 Z" fill="#000000" fill-rule="nonzero" fill-opacity="1" /><path clip-path="url(#clip760)" d="M164.918 538.892 L183.274 538.892 L183.274 542.828 L169.2 542.828 L169.2 551.3 Q170.219 550.953 171.237 550.79 Q172.256 550.605 173.274 550.605 Q179.061 550.605 182.441 553.777 Q185.821 556.948 185.821 562.364 Q185.821 567.943 182.348 571.045 Q178.876 574.124 172.557 574.124 Q170.381 574.124 168.112 573.753 Q165.867 573.383 163.46 572.642 L163.46 567.943 Q165.543 569.077 167.765 569.633 Q169.987 570.189 172.464 570.189 Q176.469 570.189 178.807 568.082 Q181.145 565.976 181.145 562.364 Q181.145 558.753 178.807 556.647 Q176.469 554.54 172.464 554.54 Q170.589 554.54 168.714 554.957 Q166.862 555.374 164.918 556.253 L164.918 538.892 Z" fill="#000000" fill-rule="nonzero" fill-opacity="1" /><path clip-path="url(#clip760)" d="M128.483 271.014 Q124.872 271.014 123.043 274.579 Q121.238 278.121 121.238 285.25 Q121.238 292.357 123.043 295.922 Q124.872 299.463 128.483 299.463 Q132.117 299.463 133.923 295.922 Q135.751 292.357 135.751 285.25 Q135.751 278.121 133.923 274.579 Q132.117 271.014 128.483 271.014 M128.483 267.311 Q134.293 267.311 137.349 271.917 Q140.427 276.5 140.427 285.25 Q140.427 293.977 137.349 298.584 Q134.293 303.167 128.483 303.167 Q122.673 303.167 119.594 298.584 Q116.539 293.977 116.539 285.25 Q116.539 276.5 119.594 271.917 Q122.673 267.311 128.483 267.311 Z" fill="#000000" fill-rule="nonzero" fill-opacity="1" /><path clip-path="url(#clip760)" d="M148.645 296.616 L153.529 296.616 L153.529 302.496 L148.645 302.496 L148.645 296.616 Z" fill="#000000" fill-rule="nonzero" fill-opacity="1" /><path clip-path="url(#clip760)" d="M174.293 283.352 Q171.145 283.352 169.293 285.505 Q167.464 287.658 167.464 291.408 Q167.464 295.134 169.293 297.31 Q171.145 299.463 174.293 299.463 Q177.441 299.463 179.27 297.31 Q181.122 295.134 181.122 291.408 Q181.122 287.658 179.27 285.505 Q177.441 283.352 174.293 283.352 M183.575 268.699 L183.575 272.959 Q181.816 272.125 180.01 271.686 Q178.228 271.246 176.469 271.246 Q171.839 271.246 169.385 274.371 Q166.955 277.496 166.608 283.815 Q167.973 281.801 170.034 280.736 Q172.094 279.648 174.571 279.648 Q179.779 279.648 182.788 282.82 Q185.821 285.968 185.821 291.408 Q185.821 296.732 182.672 299.949 Q179.524 303.167 174.293 303.167 Q168.297 303.167 165.126 298.584 Q161.955 293.977 161.955 285.25 Q161.955 277.056 165.844 272.195 Q169.733 267.311 176.284 267.311 Q178.043 267.311 179.825 267.658 Q181.631 268.005 183.575 268.699 Z" fill="#000000" fill-rule="nonzero" fill-opacity="1" /><path clip-path="url(#clip760)" d="M59.4423 978.22 L75.1974 978.22 L75.1974 984.108 L26.2133 984.108 Q11.6995 984.108 11.6995 970.549 Q11.6995 956.736 23.9535 956.736 Q32.6745 956.736 35.8573 962.21 Q38.7219 953.298 47.2201 953.298 Q62.3068 953.298 62.3068 968.64 Q62.3068 975.387 59.4423 978.22 M51.8034 978.22 Q57.3098 974.687 57.3098 968.417 Q57.3098 959.25 47.3156 959.25 Q38.34 959.25 39.0402 974.019 L33.6293 974.019 Q33.6293 962.465 23.4442 962.465 Q16.4738 962.465 16.4738 969.913 Q16.4738 978.22 26.4043 978.22 L51.8034 978.22 Z" fill="#000000" fill-rule="nonzero" fill-opacity="1" /><path clip-path="url(#clip760)" d="M12.1769 928.408 Q19.4975 932.673 26.6589 934.742 Q33.8203 936.811 41.1727 936.811 Q48.5251 936.811 55.7502 934.742 Q62.9434 932.641 70.2321 928.408 L70.2321 933.501 Q62.7524 938.275 55.5274 940.662 Q48.3023 943.018 41.1727 943.018 Q34.0749 943.018 26.8817 940.662 Q19.6884 938.307 12.1769 933.501 L12.1769 928.408 Z" fill="#000000" fill-rule="nonzero" fill-opacity="1" /><path clip-path="url(#clip760)" d="M15.869 911.253 L25.9905 911.253 L25.9905 899.19 L30.542 899.19 L30.542 911.253 L49.8937 911.253 Q54.2542 911.253 55.4955 910.075 Q56.7368 908.866 56.7368 905.205 L56.7368 899.19 L61.6384 899.19 L61.6384 905.205 Q61.6384 911.985 59.124 914.563 Q56.5777 917.141 49.8937 917.141 L30.542 917.141 L30.542 921.438 L25.9905 921.438 L25.9905 917.141 L15.869 917.141 L15.869 911.253 Z" fill="#000000" fill-rule="nonzero" fill-opacity="1" /><path clip-path="url(#clip760)" d="M12.1769 892.41 L12.1769 887.318 Q19.6884 882.543 26.8817 880.188 Q34.0749 877.801 41.1727 877.801 Q48.3023 877.801 55.5274 880.188 Q62.7524 882.543 70.2321 887.318 L70.2321 892.41 Q62.9434 888.177 55.7502 886.108 Q48.5251 884.007 41.1727 884.007 Q33.8203 884.007 26.6589 886.108 Q19.4975 888.177 12.1769 892.41 Z" fill="#000000" fill-rule="nonzero" fill-opacity="1" /><path clip-path="url(#clip760)" d="M874.059 44.2197 Q876.692 45.1109 879.163 48.0275 Q881.675 50.9442 884.186 56.0483 L892.49 72.576 L883.7 72.576 L875.963 57.061 Q872.965 50.9847 870.129 48.9997 Q867.334 47.0148 862.473 47.0148 L853.561 47.0148 L853.561 72.576 L845.378 72.576 L845.378 12.096 L863.851 12.096 Q874.221 12.096 879.325 16.4305 Q884.429 20.7649 884.429 29.5149 Q884.429 35.2267 881.756 38.994 Q879.122 42.7613 874.059 44.2197 M853.561 18.8205 L853.561 40.2903 L863.851 40.2903 Q869.765 40.2903 872.763 37.5762 Q875.801 34.8216 875.801 29.5149 Q875.801 24.2082 872.763 21.5346 Q869.765 18.8205 863.851 18.8205 L853.561 18.8205 Z" fill="#000000" fill-rule="nonzero" fill-opacity="1" /><path clip-path="url(#clip760)" d="M937.78 48.0275 L937.78 51.6733 L903.509 51.6733 Q903.995 59.3701 908.127 63.421 Q912.299 67.4314 919.713 67.4314 Q924.007 67.4314 928.017 66.3781 Q932.068 65.3249 936.038 63.2184 L936.038 70.267 Q932.027 71.9684 927.814 72.8596 Q923.601 73.7508 919.267 73.7508 Q908.411 73.7508 902.051 67.4314 Q895.731 61.1119 895.731 50.3365 Q895.731 39.1965 901.727 32.6746 Q907.762 26.1121 917.971 26.1121 Q927.126 26.1121 932.432 32.0264 Q937.78 37.9003 937.78 48.0275 M930.326 45.84 Q930.245 39.7232 926.883 36.0774 Q923.561 32.4315 918.052 32.4315 Q911.813 32.4315 908.046 35.9558 Q904.319 39.4801 903.752 45.8805 L930.326 45.84 Z" fill="#000000" fill-rule="nonzero" fill-opacity="1" /><path clip-path="url(#clip760)" d="M982.664 28.9478 L982.664 35.9153 Q979.504 34.1734 976.304 33.3227 Q973.144 32.4315 969.903 32.4315 Q962.652 32.4315 958.642 37.0496 Q954.631 41.6271 954.631 49.9314 Q954.631 58.2358 958.642 62.8538 Q962.652 67.4314 969.903 67.4314 Q973.144 67.4314 976.304 66.5807 Q979.504 65.6895 982.664 63.9476 L982.664 70.8341 Q979.544 72.2924 976.182 73.0216 Q972.86 73.7508 969.093 73.7508 Q958.844 73.7508 952.808 67.3098 Q946.773 60.8689 946.773 49.9314 Q946.773 38.832 952.849 32.472 Q958.966 26.1121 969.579 26.1121 Q973.022 26.1121 976.304 26.8413 Q979.585 27.5299 982.664 28.9478 Z" fill="#000000" fill-rule="nonzero" fill-opacity="1" /><path clip-path="url(#clip760)" d="M1013.21 32.4315 Q1007.21 32.4315 1003.73 37.1306 Q1000.24 41.7891 1000.24 49.9314 Q1000.24 58.0738 1003.69 62.7728 Q1007.17 67.4314 1013.21 67.4314 Q1019.16 67.4314 1022.65 62.7323 Q1026.13 58.0333 1026.13 49.9314 Q1026.13 41.8701 1022.65 37.1711 Q1019.16 32.4315 1013.21 32.4315 M1013.21 26.1121 Q1022.93 26.1121 1028.48 32.4315 Q1034.03 38.7509 1034.03 49.9314 Q1034.03 61.0714 1028.48 67.4314 Q1022.93 73.7508 1013.21 73.7508 Q1003.44 73.7508 997.895 67.4314 Q992.386 61.0714 992.386 49.9314 Q992.386 38.7509 997.895 32.4315 Q1003.44 26.1121 1013.21 26.1121 Z" fill="#000000" fill-rule="nonzero" fill-opacity="1" /><path clip-path="url(#clip760)" d="M1041.04 27.2059 L1048.94 27.2059 L1063.11 65.2844 L1077.29 27.2059 L1085.19 27.2059 L1068.18 72.576 L1058.05 72.576 L1041.04 27.2059 Z" fill="#000000" fill-rule="nonzero" fill-opacity="1" /><path clip-path="url(#clip760)" d="M1134.29 48.0275 L1134.29 51.6733 L1100.02 51.6733 Q1100.5 59.3701 1104.64 63.421 Q1108.81 67.4314 1116.22 67.4314 Q1120.52 67.4314 1124.53 66.3781 Q1128.58 65.3249 1132.55 63.2184 L1132.55 70.267 Q1128.54 71.9684 1124.32 72.8596 Q1120.11 73.7508 1115.78 73.7508 Q1104.92 73.7508 1098.56 67.4314 Q1092.24 61.1119 1092.24 50.3365 Q1092.24 39.1965 1098.24 32.6746 Q1104.27 26.1121 1114.48 26.1121 Q1123.64 26.1121 1128.94 32.0264 Q1134.29 37.9003 1134.29 48.0275 M1126.84 45.84 Q1126.75 39.7232 1123.39 36.0774 Q1120.07 32.4315 1114.56 32.4315 Q1108.32 32.4315 1104.56 35.9558 Q1100.83 39.4801 1100.26 45.8805 L1126.84 45.84 Z" fill="#000000" fill-rule="nonzero" fill-opacity="1" /><path clip-path="url(#clip760)" d="M1172.81 34.1734 Q1171.56 33.4443 1170.06 33.1202 Q1168.6 32.7556 1166.82 32.7556 Q1160.5 32.7556 1157.1 36.8875 Q1153.73 40.9789 1153.73 48.6757 L1153.73 72.576 L1146.24 72.576 L1146.24 27.2059 L1153.73 27.2059 L1153.73 34.2544 Q1156.08 30.1225 1159.85 28.1376 Q1163.62 26.1121 1169.01 26.1121 Q1169.77 26.1121 1170.71 26.2337 Q1171.64 26.3147 1172.77 26.5172 L1172.81 34.1734 Z" fill="#000000" fill-rule="nonzero" fill-opacity="1" /><path clip-path="url(#clip760)" d="M1217.62 48.0275 L1217.62 51.6733 L1183.35 51.6733 Q1183.83 59.3701 1187.96 63.421 Q1192.14 67.4314 1199.55 67.4314 Q1203.84 67.4314 1207.85 66.3781 Q1211.9 65.3249 1215.87 63.2184 L1215.87 70.267 Q1211.86 71.9684 1207.65 72.8596 Q1203.44 73.7508 1199.1 73.7508 Q1188.25 73.7508 1181.89 67.4314 Q1175.57 61.1119 1175.57 50.3365 Q1175.57 39.1965 1181.56 32.6746 Q1187.6 26.1121 1197.81 26.1121 Q1206.96 26.1121 1212.27 32.0264 Q1217.62 37.9003 1217.62 48.0275 M1210.16 45.84 Q1210.08 39.7232 1206.72 36.0774 Q1203.4 32.4315 1197.89 32.4315 Q1191.65 32.4315 1187.88 35.9558 Q1184.16 39.4801 1183.59 45.8805 L1210.16 45.84 Z" fill="#000000" fill-rule="nonzero" fill-opacity="1" /><path clip-path="url(#clip760)" d="M1259.7 34.0924 L1259.7 9.54393 L1267.16 9.54393 L1267.16 72.576 L1259.7 72.576 L1259.7 65.7705 Q1257.36 69.8214 1253.75 71.8063 Q1250.19 73.7508 1245.16 73.7508 Q1236.94 73.7508 1231.75 67.1883 Q1226.61 60.6258 1226.61 49.9314 Q1226.61 39.2371 1231.75 32.6746 Q1236.94 26.1121 1245.16 26.1121 Q1250.19 26.1121 1253.75 28.0971 Q1257.36 30.0415 1259.7 34.0924 M1234.31 49.9314 Q1234.31 58.1548 1237.67 62.8538 Q1241.07 67.5124 1246.99 67.5124 Q1252.9 67.5124 1256.3 62.8538 Q1259.7 58.1548 1259.7 49.9314 Q1259.7 41.7081 1256.3 37.0496 Q1252.9 32.3505 1246.99 32.3505 Q1241.07 32.3505 1237.67 37.0496 Q1234.31 41.7081 1234.31 49.9314 Z" fill="#000000" fill-rule="nonzero" fill-opacity="1" /><path clip-path="url(#clip760)" d="M1316.26 14.324 L1316.26 27.2059 L1331.61 27.2059 L1331.61 32.9987 L1316.26 32.9987 L1316.26 57.6282 Q1316.26 63.1779 1317.75 64.7578 Q1319.29 66.3376 1323.95 66.3376 L1331.61 66.3376 L1331.61 72.576 L1323.95 72.576 Q1315.32 72.576 1312.04 69.3758 Q1308.76 66.1351 1308.76 57.6282 L1308.76 32.9987 L1303.29 32.9987 L1303.29 27.2059 L1308.76 27.2059 L1308.76 14.324 L1316.26 14.324 Z" fill="#000000" fill-rule="nonzero" fill-opacity="1" /><path clip-path="url(#clip760)" d="M1367.7 34.1734 Q1366.45 33.4443 1364.95 33.1202 Q1363.49 32.7556 1361.71 32.7556 Q1355.39 32.7556 1351.98 36.8875 Q1348.62 40.9789 1348.62 48.6757 L1348.62 72.576 L1341.13 72.576 L1341.13 27.2059 L1348.62 27.2059 L1348.62 34.2544 Q1350.97 30.1225 1354.74 28.1376 Q1358.51 26.1121 1363.89 26.1121 Q1364.66 26.1121 1365.6 26.2337 Q1366.53 26.3147 1367.66 26.5172 L1367.7 34.1734 Z" fill="#000000" fill-rule="nonzero" fill-opacity="1" /><path clip-path="url(#clip760)" d="M1396.14 49.7694 Q1387.11 49.7694 1383.62 51.8354 Q1380.14 53.9013 1380.14 58.8839 Q1380.14 62.8538 1382.73 65.2034 Q1385.36 67.5124 1389.86 67.5124 Q1396.06 67.5124 1399.79 63.1374 Q1403.55 58.7219 1403.55 51.4303 L1403.55 49.7694 L1396.14 49.7694 M1411.01 46.6907 L1411.01 72.576 L1403.55 72.576 L1403.55 65.6895 Q1401 69.8214 1397.19 71.8063 Q1393.38 73.7508 1387.88 73.7508 Q1380.91 73.7508 1376.78 69.8619 Q1372.68 65.9325 1372.68 59.3701 Q1372.68 51.7138 1377.79 47.825 Q1382.93 43.9361 1393.1 43.9361 L1403.55 43.9361 L1403.55 43.2069 Q1403.55 38.0623 1400.15 35.2672 Q1396.79 32.4315 1390.67 32.4315 Q1386.78 32.4315 1383.1 33.3632 Q1379.41 34.295 1376.01 36.1584 L1376.01 29.2718 Q1380.1 27.692 1383.95 26.9223 Q1387.79 26.1121 1391.44 26.1121 Q1401.28 26.1121 1406.15 31.2163 Q1411.01 36.3204 1411.01 46.6907 Z" fill="#000000" fill-rule="nonzero" fill-opacity="1" /><path clip-path="url(#clip760)" d="M1464.07 45.1919 L1464.07 72.576 L1456.62 72.576 L1456.62 45.4349 Q1456.62 38.994 1454.11 35.7938 Q1451.6 32.5936 1446.57 32.5936 Q1440.54 32.5936 1437.05 36.4419 Q1433.57 40.2903 1433.57 46.9338 L1433.57 72.576 L1426.08 72.576 L1426.08 27.2059 L1433.57 27.2059 L1433.57 34.2544 Q1436.24 30.163 1439.85 28.1376 Q1443.49 26.1121 1448.23 26.1121 Q1456.05 26.1121 1460.06 30.9732 Q1464.07 35.7938 1464.07 45.1919 Z" fill="#000000" fill-rule="nonzero" fill-opacity="1" /><path clip-path="url(#clip760)" d="M1507.86 28.5427 L1507.86 35.5912 Q1504.7 33.9709 1501.3 33.1607 Q1497.9 32.3505 1494.25 32.3505 Q1488.7 32.3505 1485.91 34.0519 Q1483.15 35.7533 1483.15 39.156 Q1483.15 41.7486 1485.14 43.2475 Q1487.12 44.7058 1493.12 46.0426 L1495.67 46.6097 Q1503.61 48.3111 1506.93 51.4303 Q1510.29 54.509 1510.29 60.0587 Q1510.29 66.3781 1505.27 70.0644 Q1500.29 73.7508 1491.54 73.7508 Q1487.89 73.7508 1483.92 73.0216 Q1479.99 72.3329 1475.62 70.9151 L1475.62 63.2184 Q1479.75 65.3654 1483.76 66.4591 Q1487.77 67.5124 1491.7 67.5124 Q1496.97 67.5124 1499.8 65.73 Q1502.64 63.9071 1502.64 60.6258 Q1502.64 57.5877 1500.57 55.9673 Q1498.55 54.3469 1491.62 52.8481 L1489.03 52.2405 Q1482.1 50.7821 1479.02 47.7845 Q1475.94 44.7463 1475.94 39.4801 Q1475.94 33.0797 1480.48 29.5959 Q1485.02 26.1121 1493.36 26.1121 Q1497.49 26.1121 1501.14 26.7198 Q1504.78 27.3274 1507.86 28.5427 Z" fill="#000000" fill-rule="nonzero" fill-opacity="1" /><path clip-path="url(#clip760)" d="M1557.49 35.9153 Q1560.28 30.8922 1564.17 28.5022 Q1568.06 26.1121 1573.33 26.1121 Q1580.42 26.1121 1584.26 31.0947 Q1588.11 36.0368 1588.11 45.1919 L1588.11 72.576 L1580.62 72.576 L1580.62 45.4349 Q1580.62 38.913 1578.31 35.7533 Q1576 32.5936 1571.26 32.5936 Q1565.47 32.5936 1562.1 36.4419 Q1558.74 40.2903 1558.74 46.9338 L1558.74 72.576 L1551.25 72.576 L1551.25 45.4349 Q1551.25 38.8725 1548.94 35.7533 Q1546.63 32.5936 1541.81 32.5936 Q1536.1 32.5936 1532.74 36.4824 Q1529.37 40.3308 1529.37 46.9338 L1529.37 72.576 L1521.88 72.576 L1521.88 27.2059 L1529.37 27.2059 L1529.37 34.2544 Q1531.93 30.082 1535.49 28.0971 Q1539.06 26.1121 1543.96 26.1121 Q1548.9 26.1121 1552.34 28.6237 Q1555.83 31.1352 1557.49 35.9153 Z" fill="#000000" fill-rule="nonzero" fill-opacity="1" /><path clip-path="url(#clip760)" d="M1602.98 27.2059 L1610.43 27.2059 L1610.43 72.576 L1602.98 72.576 L1602.98 27.2059 M1602.98 9.54393 L1610.43 9.54393 L1610.43 18.9825 L1602.98 18.9825 L1602.98 9.54393 Z" fill="#000000" fill-rule="nonzero" fill-opacity="1" /><path clip-path="url(#clip760)" d="M1654.95 28.5427 L1654.95 35.5912 Q1651.79 33.9709 1648.39 33.1607 Q1644.99 32.3505 1641.34 32.3505 Q1635.79 32.3505 1633 34.0519 Q1630.24 35.7533 1630.24 39.156 Q1630.24 41.7486 1632.23 43.2475 Q1634.21 44.7058 1640.21 46.0426 L1642.76 46.6097 Q1650.7 48.3111 1654.02 51.4303 Q1657.38 54.509 1657.38 60.0587 Q1657.38 66.3781 1652.36 70.0644 Q1647.38 73.7508 1638.63 73.7508 Q1634.98 73.7508 1631.01 73.0216 Q1627.08 72.3329 1622.71 70.9151 L1622.71 63.2184 Q1626.84 65.3654 1630.85 66.4591 Q1634.86 67.5124 1638.79 67.5124 Q1644.05 67.5124 1646.89 65.73 Q1649.73 63.9071 1649.73 60.6258 Q1649.73 57.5877 1647.66 55.9673 Q1645.63 54.3469 1638.71 52.8481 L1636.11 52.2405 Q1629.19 50.7821 1626.11 47.7845 Q1623.03 44.7463 1623.03 39.4801 Q1623.03 33.0797 1627.57 29.5959 Q1632.1 26.1121 1640.45 26.1121 Q1644.58 26.1121 1648.23 26.7198 Q1651.87 27.3274 1654.95 28.5427 Z" fill="#000000" fill-rule="nonzero" fill-opacity="1" /><path clip-path="url(#clip760)" d="M1698.17 28.5427 L1698.17 35.5912 Q1695.02 33.9709 1691.61 33.1607 Q1688.21 32.3505 1684.56 32.3505 Q1679.01 32.3505 1676.22 34.0519 Q1673.46 35.7533 1673.46 39.156 Q1673.46 41.7486 1675.45 43.2475 Q1677.43 44.7058 1683.43 46.0426 L1685.98 46.6097 Q1693.92 48.3111 1697.24 51.4303 Q1700.61 54.509 1700.61 60.0587 Q1700.61 66.3781 1695.58 70.0644 Q1690.6 73.7508 1681.85 73.7508 Q1678.2 73.7508 1674.23 73.0216 Q1670.3 72.3329 1665.93 70.9151 L1665.93 63.2184 Q1670.06 65.3654 1674.07 66.4591 Q1678.08 67.5124 1682.01 67.5124 Q1687.28 67.5124 1690.11 65.73 Q1692.95 63.9071 1692.95 60.6258 Q1692.95 57.5877 1690.88 55.9673 Q1688.86 54.3469 1681.93 52.8481 L1679.34 52.2405 Q1672.41 50.7821 1669.33 47.7845 Q1666.25 44.7463 1666.25 39.4801 Q1666.25 33.0797 1670.79 29.5959 Q1675.33 26.1121 1683.67 26.1121 Q1687.8 26.1121 1691.45 26.7198 Q1695.1 27.3274 1698.17 28.5427 Z" fill="#000000" fill-rule="nonzero" fill-opacity="1" /><path clip-path="url(#clip760)" d="M1712.47 27.2059 L1719.93 27.2059 L1719.93 72.576 L1712.47 72.576 L1712.47 27.2059 M1712.47 9.54393 L1719.93 9.54393 L1719.93 18.9825 L1712.47 18.9825 L1712.47 9.54393 Z" fill="#000000" fill-rule="nonzero" fill-opacity="1" /><path clip-path="url(#clip760)" d="M1753.11 32.4315 Q1747.11 32.4315 1743.63 37.1306 Q1740.14 41.7891 1740.14 49.9314 Q1740.14 58.0738 1743.59 62.7728 Q1747.07 67.4314 1753.11 67.4314 Q1759.06 67.4314 1762.54 62.7323 Q1766.03 58.0333 1766.03 49.9314 Q1766.03 41.8701 1762.54 37.1711 Q1759.06 32.4315 1753.11 32.4315 M1753.11 26.1121 Q1762.83 26.1121 1768.38 32.4315 Q1773.93 38.7509 1773.93 49.9314 Q1773.93 61.0714 1768.38 67.4314 Q1762.83 73.7508 1753.11 73.7508 Q1743.34 73.7508 1737.79 67.4314 Q1732.28 61.0714 1732.28 49.9314 Q1732.28 38.7509 1737.79 32.4315 Q1743.34 26.1121 1753.11 26.1121 Z" fill="#000000" fill-rule="nonzero" fill-opacity="1" /><path clip-path="url(#clip760)" d="M1824 45.1919 L1824 72.576 L1816.54 72.576 L1816.54 45.4349 Q1816.54 38.994 1814.03 35.7938 Q1811.52 32.5936 1806.5 32.5936 Q1800.46 32.5936 1796.98 36.4419 Q1793.49 40.2903 1793.49 46.9338 L1793.49 72.576 L1786 72.576 L1786 27.2059 L1793.49 27.2059 L1793.49 34.2544 Q1796.17 30.163 1799.77 28.1376 Q1803.42 26.1121 1808.16 26.1121 Q1815.98 26.1121 1819.99 30.9732 Q1824 35.7938 1824 45.1919 Z" fill="#000000" fill-rule="nonzero" fill-opacity="1" /><path clip-path="url(#clip760)" d="M1891.52 34.1734 Q1890.27 33.4443 1888.77 33.1202 Q1887.31 32.7556 1885.53 32.7556 Q1879.21 32.7556 1875.81 36.8875 Q1872.44 40.9789 1872.44 48.6757 L1872.44 72.576 L1864.95 72.576 L1864.95 27.2059 L1872.44 27.2059 L1872.44 34.2544 Q1874.79 30.1225 1878.56 28.1376 Q1882.33 26.1121 1887.72 26.1121 Q1888.49 26.1121 1889.42 26.2337 Q1890.35 26.3147 1891.48 26.5172 L1891.52 34.1734 Z" fill="#000000" fill-rule="nonzero" fill-opacity="1" /><path clip-path="url(#clip760)" d="M1919.96 49.7694 Q1910.93 49.7694 1907.44 51.8354 Q1903.96 53.9013 1903.96 58.8839 Q1903.96 62.8538 1906.55 65.2034 Q1909.19 67.5124 1913.68 67.5124 Q1919.88 67.5124 1923.61 63.1374 Q1927.37 58.7219 1927.37 51.4303 L1927.37 49.7694 L1919.96 49.7694 M1934.83 46.6907 L1934.83 72.576 L1927.37 72.576 L1927.37 65.6895 Q1924.82 69.8214 1921.02 71.8063 Q1917.21 73.7508 1911.7 73.7508 Q1904.73 73.7508 1900.6 69.8619 Q1896.51 65.9325 1896.51 59.3701 Q1896.51 51.7138 1901.61 47.825 Q1906.76 43.9361 1916.92 43.9361 L1927.37 43.9361 L1927.37 43.2069 Q1927.37 38.0623 1923.97 35.2672 Q1920.61 32.4315 1914.49 32.4315 Q1910.6 32.4315 1906.92 33.3632 Q1903.23 34.295 1899.83 36.1584 L1899.83 29.2718 Q1903.92 27.692 1907.77 26.9223 Q1911.62 26.1121 1915.26 26.1121 Q1925.11 26.1121 1929.97 31.2163 Q1934.83 36.3204 1934.83 46.6907 Z" fill="#000000" fill-rule="nonzero" fill-opacity="1" /><path clip-path="url(#clip760)" d="M1957.55 14.324 L1957.55 27.2059 L1972.91 27.2059 L1972.91 32.9987 L1957.55 32.9987 L1957.55 57.6282 Q1957.55 63.1779 1959.05 64.7578 Q1960.59 66.3376 1965.25 66.3376 L1972.91 66.3376 L1972.91 72.576 L1965.25 72.576 Q1956.62 72.576 1953.34 69.3758 Q1950.06 66.1351 1950.06 57.6282 L1950.06 32.9987 L1944.59 32.9987 L1944.59 27.2059 L1950.06 27.2059 L1950.06 14.324 L1957.55 14.324 Z" fill="#000000" fill-rule="nonzero" fill-opacity="1" /><path clip-path="url(#clip760)" d="M2021.52 48.0275 L2021.52 51.6733 L1987.25 51.6733 Q1987.73 59.3701 1991.87 63.421 Q1996.04 67.4314 2003.45 67.4314 Q2007.74 67.4314 2011.76 66.3781 Q2015.81 65.3249 2019.78 63.2184 L2019.78 70.267 Q2015.77 71.9684 2011.55 72.8596 Q2007.34 73.7508 2003.01 73.7508 Q1992.15 73.7508 1985.79 67.4314 Q1979.47 61.1119 1979.47 50.3365 Q1979.47 39.1965 1985.46 32.6746 Q1991.5 26.1121 2001.71 26.1121 Q2010.86 26.1121 2016.17 32.0264 Q2021.52 37.9003 2021.52 48.0275 M2014.06 45.84 Q2013.98 39.7232 2010.62 36.0774 Q2007.3 32.4315 2001.79 32.4315 Q1995.55 32.4315 1991.78 35.9558 Q1988.06 39.4801 1987.49 45.8805 L2014.06 45.84 Z" fill="#000000" fill-rule="nonzero" fill-opacity="1" /><polyline clip-path="url(#clip761)" style="stroke:#000000; stroke-linecap:round; stroke-linejoin:round; stroke-width:8; stroke-opacity:1; fill:none" stroke-dasharray="32, 20" points="294.479,1098.09 305.926,1087.82 317.373,1077.57 328.82,1067.35 340.266,1057.18 351.713,1047.06 363.16,1037.02 374.607,1027.06 386.054,1017.21 397.501,1007.47 408.948,997.863 420.395,988.399 431.842,979.093 443.289,969.957 454.736,961.006 466.183,952.251 477.63,943.705 489.077,935.381 500.523,927.291 511.97,919.445 523.417,911.856 534.864,904.535 546.311,897.491 557.758,890.735 569.205,884.277 580.652,878.126 592.099,872.29 603.546,866.778 614.993,861.599 626.44,856.759 637.887,852.265 649.334,848.125 660.78,844.342 672.227,840.925 683.674,837.876 695.121,835.201 706.568,832.903 718.015,830.986 729.462,829.452 740.909,828.304 752.356,827.543 763.803,827.17 775.25,827.186 786.697,827.591 798.144,828.385 809.591,829.565 821.037,831.131 832.484,833.08 843.931,835.409 855.378,838.116 866.825,841.195 878.272,844.644 889.719,848.456 901.166,852.626 912.613,857.149 924.06,862.018 935.507,867.225 946.954,872.764 958.401,878.626 969.848,884.803 981.295,891.287 992.741,898.067 1004.19,905.134 1015.64,912.479 1027.08,920.089 1038.53,927.956 1049.98,936.066 1061.42,944.409 1072.87,952.972 1084.32,961.744 1095.76,970.712 1107.21,979.862 1118.66,989.182 1130.1,998.658 1141.55,1008.28 1153,1018.03 1164.45,1027.89 1175.89,1037.85 1187.34,1047.9 1198.79,1058.02 1210.23,1068.2 1221.68,1078.43 1233.13,1088.68 1244.57,1098.94 1256.02,1109.2 1267.47,1119.45 1278.91,1129.67 1290.36,1139.84 1301.81,1149.95 1313.26,1159.99 1324.7,1169.93 1336.15,1179.78 1347.6,1189.51 1359.04,1199.1 1370.49,1208.55 1381.94,1217.85 1393.38,1226.97 1404.83,1235.9 1416.28,1244.64 1427.72,1253.17 1439.17,1261.47 1450.62,1269.54 1462.07,1277.37 1473.51,1284.94 1484.96,1292.24 1496.41,1299.26 1507.85,1305.99 1519.3,1312.42 1530.75,1318.55 1542.19,1324.35 1553.64,1329.84 1565.09,1334.99 1576.53,1339.8 1587.98,1344.27 1599.43,1348.38 1610.88,1352.13 1622.32,1355.52 1633.77,1358.53 1645.22,1361.18 1656.66,1363.44 1668.11,1365.33 1679.56,1366.83 1691,1367.95 1702.45,1368.68 1713.9,1369.02 1725.34,1368.97 1736.79,1368.53 1748.24,1367.7 1759.69,1366.49 1771.13,1364.89 1782.58,1362.91 1794.03,1360.55 1805.47,1357.81 1816.92,1354.7 1828.37,1351.22 1839.81,1347.38 1851.26,1343.18 1862.71,1338.63 1874.16,1333.73 1885.6,1328.5 1897.05,1322.93 1908.5,1317.04 1919.94,1310.84 1931.39,1304.33 1942.84,1297.53 1954.28,1290.44 1965.73,1283.07 1977.18,1275.44 1988.62,1267.55 2000.07,1259.42 2011.52,1251.06 2022.97,1242.48 2034.41,1233.69 2045.86,1224.7 2057.31,1215.54 2068.75,1206.21 2080.2,1196.72 2091.65,1187.09 2103.09,1177.33 2114.54,1167.46 2125.99,1157.49 2137.43,1147.43 2148.88,1137.3 2160.33,1127.12 2171.78,1116.89 2183.22,1106.64 2194.67,1096.38 2206.12,1086.11 2217.56,1075.87 2229.01,1065.65 2240.46,1055.49 2251.9,1045.38 2263.35,1035.35 2274.8,1025.41 2286.24,1015.58 2297.69,1005.86 2309.14,996.275 2320.59,986.837 2332.03,977.558 2343.48,968.452 2354.93,959.532 2366.37,950.812 2377.82,942.302 2389.27,934.016 2400.71,925.966 2412.16,918.162 2423.61,910.617 2435.05,903.341 2446.5,896.345 2457.95,889.638 2469.4,883.23 2480.84,877.131 2492.29,871.349 2503.74,865.892 2515.18,860.769 2526.63,855.986 2538.08,851.551 2549.52,847.469 2560.97,843.747 2572.42,840.391 "/>
<polyline clip-path="url(#clip761)" style="stroke:#0000ff; stroke-linecap:round; stroke-linejoin:round; stroke-width:8; stroke-opacity:1; fill:none" points="294.479,1545.63 305.926,1490.89 317.373,1436.37 328.82,1382.29 340.266,1328.86 351.713,1276.3 363.16,1224.84 374.607,1174.68 386.054,1126.05 397.501,1079.17 408.948,1034.25 420.395,991.508 431.842,951.17 443.289,913.451 454.736,878.568 466.183,846.74 477.63,818.185 489.077,793.121 500.523,771.767 511.97,754.28 523.417,740.509 534.864,730.195 546.311,723.085 557.758,718.921 569.205,717.447 580.652,718.408 592.099,721.546 603.546,726.607 614.993,733.335 626.44,741.472 637.887,750.763 649.334,760.952 660.78,771.783 672.227,783 683.674,794.346 695.121,805.566 706.568,816.404 718.015,826.627 729.462,836.163 740.909,845.011 752.356,853.169 763.803,860.635 775.25,867.408 786.697,873.485 798.144,878.865 809.591,883.547 821.037,887.527 832.484,890.805 843.931,893.379 855.378,895.246 866.825,896.406 878.272,896.857 889.719,896.595 901.166,895.621 912.613,893.932 924.06,891.539 935.507,888.571 946.954,885.222 958.401,881.688 969.848,878.164 981.295,874.845 992.741,871.926 1004.19,869.601 1015.64,868.066 1027.08,867.516 1038.53,868.146 1049.98,870.15 1061.42,873.725 1072.87,879.064 1084.32,886.364 1095.76,895.818 1107.21,907.623 1118.66,921.972 1130.1,939.036 1141.55,958.641 1153,980.378 1164.45,1003.83 1175.89,1028.58 1187.34,1054.22 1198.79,1080.33 1210.23,1106.49 1221.68,1132.3 1233.13,1157.32 1244.57,1181.16 1256.02,1203.39 1267.47,1223.6 1278.91,1241.37 1290.36,1256.28 1301.81,1267.93 1313.26,1275.9 1324.7,1279.77 1336.15,1279.15 1347.6,1274.2 1359.04,1265.53 1370.49,1253.8 1381.94,1239.64 1393.38,1223.68 1404.83,1206.59 1416.28,1188.98 1427.72,1171.52 1439.17,1154.83 1450.62,1139.56 1462.07,1126.35 1473.51,1115.84 1484.96,1108.68 1496.41,1105.5 1507.85,1106.94 1519.3,1113.65 1530.75,1126.27 1542.19,1145.42 1553.64,1170.99 1565.09,1202.08 1576.53,1237.76 1587.98,1277.06 1599.43,1319.06 1610.88,1362.8 1622.32,1407.34 1633.77,1451.73 1645.22,1495.03 1656.66,1536.29 1668.11,1574.57 1679.56,1608.92 1691,1638.39 1702.45,1662.05 1713.9,1678.94 1725.34,1688.13 1736.79,1688.65 1748.24,1679.6 1759.69,1660.87 1771.13,1633.53 1782.58,1598.77 1794.03,1557.77 1805.47,1511.69 1816.92,1461.71 1828.37,1409.01 1839.81,1354.76 1851.26,1300.15 1862.71,1246.33 1874.16,1194.49 1885.6,1145.81 1897.05,1101.46 1908.5,1062.61 1919.94,1030.44 1931.39,1006.12 1942.84,990.835 1954.28,985.746 1965.73,991.245 1977.18,1006.3 1988.62,1029.74 2000.07,1060.39 2011.52,1097.05 2022.97,1138.56 2034.41,1183.73 2045.86,1231.39 2057.31,1280.36 2068.75,1329.46 2080.2,1377.51 2091.65,1423.33 2103.09,1465.74 2114.54,1503.56 2125.99,1535.62 2137.43,1560.74 2148.88,1577.73 2160.33,1585.42 2171.78,1583.17 2183.22,1571.56 2194.67,1551.38 2206.12,1523.39 2217.56,1488.38 2229.01,1447.11 2240.46,1400.36 2251.9,1348.91 2263.35,1293.52 2274.8,1234.98 2286.24,1174.06 2297.69,1111.52 2309.14,1048.16 2320.59,984.731 2332.03,922.02 2343.48,860.797 2354.93,801.837 2366.37,745.915 2377.82,693.592 2389.27,644.785 2400.71,599.286 2412.16,556.89 2423.61,517.39 2435.05,480.577 2446.5,446.247 2457.95,414.191 2469.4,384.203 2480.84,356.077 2492.29,329.605 2503.74,304.581 2515.18,280.797 2526.63,258.048 2538.08,236.125 2549.52,214.824 2560.97,193.936 2572.42,173.254 "/>
<path clip-path="url(#clip760)" d="M306.628 336.856 L758.898 336.856 L758.898 181.336 L306.628 181.336  Z" fill="#ffffff" fill-rule="evenodd" fill-opacity="1"/>
<polyline clip-path="url(#clip760)" style="stroke:#000000; stroke-linecap:round; stroke-linejoin:round; stroke-width:4; stroke-opacity:1; fill:none" points="306.628,336.856 758.898,336.856 758.898,181.336 306.628,181.336 306.628,336.856 "/>
<polyline clip-path="url(#clip760)" style="stroke:#000000; stroke-linecap:round; stroke-linejoin:round; stroke-width:8; stroke-opacity:1; fill:none" stroke-dasharray="32, 20" points="333.457,233.176 494.431,233.176 "/>
<path clip-path="url(#clip760)" d="M521.26 215.896 L550.496 215.896 L550.496 219.831 L538.228 219.831 L538.228 250.456 L533.529 250.456 L533.529 219.831 L521.26 219.831 L521.26 215.896 Z" fill="#000000" fill-rule="nonzero" fill-opacity="1" /><path clip-path="url(#clip760)" d="M562.88 228.512 Q562.163 228.095 561.306 227.91 Q560.473 227.702 559.454 227.702 Q555.843 227.702 553.899 230.063 Q551.978 232.401 551.978 236.799 L551.978 250.456 L547.695 250.456 L547.695 224.531 L551.978 224.531 L551.978 228.558 Q553.32 226.197 555.473 225.063 Q557.626 223.906 560.704 223.906 Q561.144 223.906 561.677 223.975 Q562.209 224.021 562.857 224.137 L562.88 228.512 Z" fill="#000000" fill-rule="nonzero" fill-opacity="1" /><path clip-path="url(#clip760)" d="M566.908 240.225 L566.908 224.531 L571.167 224.531 L571.167 240.063 Q571.167 243.743 572.603 245.595 Q574.038 247.424 576.908 247.424 Q580.357 247.424 582.348 245.225 Q584.362 243.026 584.362 239.229 L584.362 224.531 L588.621 224.531 L588.621 250.456 L584.362 250.456 L584.362 246.475 Q582.811 248.836 580.751 249.993 Q578.714 251.128 576.005 251.128 Q571.538 251.128 569.223 248.35 Q566.908 245.572 566.908 240.225 M577.626 223.906 L577.626 223.906 Z" fill="#000000" fill-rule="nonzero" fill-opacity="1" /><path clip-path="url(#clip760)" d="M619.57 236.429 L619.57 238.512 L599.987 238.512 Q600.264 242.91 602.626 245.225 Q605.01 247.516 609.246 247.516 Q611.7 247.516 613.991 246.915 Q616.306 246.313 618.574 245.109 L618.574 249.137 Q616.283 250.109 613.875 250.618 Q611.468 251.128 608.991 251.128 Q602.788 251.128 599.153 247.516 Q595.542 243.905 595.542 237.748 Q595.542 231.382 598.968 227.655 Q602.417 223.906 608.25 223.906 Q613.482 223.906 616.514 227.285 Q619.57 230.642 619.57 236.429 M615.311 235.179 Q615.264 231.683 613.343 229.6 Q611.445 227.517 608.297 227.517 Q604.732 227.517 602.579 229.53 Q600.45 231.544 600.126 235.202 L615.311 235.179 Z" fill="#000000" fill-rule="nonzero" fill-opacity="1" /><path clip-path="url(#clip760)" d="M645.889 248.859 L645.889 260.317 L641.607 260.317 L641.607 224.693 Q641.607 214.137 651.468 214.137 Q661.514 214.137 661.514 223.049 Q661.514 229.392 657.533 231.706 Q664.014 233.79 664.014 239.97 Q664.014 250.942 652.857 250.942 Q647.949 250.942 645.889 248.859 M645.889 243.304 Q648.459 247.308 653.019 247.308 Q659.685 247.308 659.685 240.04 Q659.685 233.512 648.945 234.021 L648.945 230.086 Q657.347 230.086 657.347 222.679 Q657.347 217.609 651.931 217.609 Q645.889 217.609 645.889 224.831 L645.889 243.304 Z" fill="#000000" fill-rule="nonzero" fill-opacity="1" /><path clip-path="url(#clip760)" d="M682.116 214.484 Q679.014 219.808 677.509 225.017 Q676.005 230.225 676.005 235.572 Q676.005 240.919 677.509 246.174 Q679.037 251.405 682.116 256.706 L678.412 256.706 Q674.94 251.266 673.204 246.012 Q671.491 240.757 671.491 235.572 Q671.491 230.41 673.204 225.179 Q674.917 219.947 678.412 214.484 L682.116 214.484 Z" fill="#000000" fill-rule="nonzero" fill-opacity="1" /><path clip-path="url(#clip760)" d="M694.593 217.169 L694.593 224.531 L703.366 224.531 L703.366 227.841 L694.593 227.841 L694.593 241.915 Q694.593 245.086 695.449 245.989 Q696.329 246.891 698.991 246.891 L703.366 246.891 L703.366 250.456 L698.991 250.456 Q694.06 250.456 692.185 248.628 Q690.31 246.776 690.31 241.915 L690.31 227.841 L687.185 227.841 L687.185 224.531 L690.31 224.531 L690.31 217.169 L694.593 217.169 Z" fill="#000000" fill-rule="nonzero" fill-opacity="1" /><path clip-path="url(#clip760)" d="M708.296 214.484 L712 214.484 Q715.472 219.947 717.185 225.179 Q718.921 230.41 718.921 235.572 Q718.921 240.757 717.185 246.012 Q715.472 251.266 712 256.706 L708.296 256.706 Q711.375 251.405 712.88 246.174 Q714.407 240.919 714.407 235.572 Q714.407 230.225 712.88 225.017 Q711.375 219.808 708.296 214.484 Z" fill="#000000" fill-rule="nonzero" fill-opacity="1" /><polyline clip-path="url(#clip760)" style="stroke:#0000ff; stroke-linecap:round; stroke-linejoin:round; stroke-width:8; stroke-opacity:1; fill:none" points="333.457,285.016 494.431,285.016 "/>
<path clip-path="url(#clip760)" d="M546.816 297.366 L546.816 288.083 L539.177 288.083 L539.177 284.241 L551.445 284.241 L551.445 299.079 Q548.737 301 545.473 301.995 Q542.209 302.968 538.505 302.968 Q530.404 302.968 525.82 298.245 Q521.26 293.5 521.26 285.051 Q521.26 276.579 525.82 271.857 Q530.404 267.111 538.505 267.111 Q541.885 267.111 544.917 267.945 Q547.973 268.778 550.542 270.398 L550.542 275.375 Q547.95 273.176 545.033 272.065 Q542.117 270.954 538.899 270.954 Q532.556 270.954 529.362 274.496 Q526.191 278.037 526.191 285.051 Q526.191 292.042 529.362 295.583 Q532.556 299.125 538.899 299.125 Q541.376 299.125 543.32 298.708 Q545.265 298.269 546.816 297.366 Z" fill="#000000" fill-rule="nonzero" fill-opacity="1" /><path clip-path="url(#clip760)" d="M571.584 289.264 Q566.422 289.264 564.431 290.444 Q562.441 291.625 562.441 294.472 Q562.441 296.741 563.922 298.083 Q565.427 299.403 567.996 299.403 Q571.538 299.403 573.667 296.903 Q575.82 294.38 575.82 290.213 L575.82 289.264 L571.584 289.264 M580.079 287.505 L580.079 302.296 L575.82 302.296 L575.82 298.361 Q574.362 300.722 572.186 301.856 Q570.01 302.968 566.862 302.968 Q562.88 302.968 560.519 300.745 Q558.181 298.5 558.181 294.75 Q558.181 290.375 561.098 288.153 Q564.038 285.931 569.848 285.931 L575.82 285.931 L575.82 285.514 Q575.82 282.574 573.876 280.977 Q571.954 279.357 568.459 279.357 Q566.237 279.357 564.13 279.889 Q562.024 280.421 560.079 281.486 L560.079 277.551 Q562.417 276.648 564.616 276.208 Q566.816 275.746 568.899 275.746 Q574.524 275.746 577.302 278.662 Q580.079 281.579 580.079 287.505 Z" fill="#000000" fill-rule="nonzero" fill-opacity="1" /><path clip-path="url(#clip760)" d="M588.413 292.065 L588.413 276.371 L592.672 276.371 L592.672 291.903 Q592.672 295.583 594.107 297.435 Q595.542 299.264 598.413 299.264 Q601.862 299.264 603.852 297.065 Q605.866 294.866 605.866 291.069 L605.866 276.371 L610.125 276.371 L610.125 302.296 L605.866 302.296 L605.866 298.315 Q604.315 300.676 602.255 301.833 Q600.218 302.968 597.51 302.968 Q593.042 302.968 590.727 300.19 Q588.413 297.412 588.413 292.065 M599.13 275.746 L599.13 275.746 Z" fill="#000000" fill-rule="nonzero" fill-opacity="1" /><path clip-path="url(#clip760)" d="M635.426 277.134 L635.426 281.162 Q633.621 280.236 631.676 279.773 Q629.732 279.31 627.649 279.31 Q624.477 279.31 622.88 280.283 Q621.306 281.255 621.306 283.199 Q621.306 284.681 622.44 285.537 Q623.574 286.37 627 287.134 L628.459 287.458 Q632.996 288.431 634.894 290.213 Q636.815 291.972 636.815 295.144 Q636.815 298.755 633.945 300.861 Q631.098 302.968 626.098 302.968 Q624.014 302.968 621.746 302.551 Q619.5 302.157 617 301.347 L617 296.949 Q619.362 298.176 621.653 298.801 Q623.945 299.403 626.19 299.403 Q629.199 299.403 630.82 298.384 Q632.44 297.343 632.44 295.468 Q632.44 293.732 631.26 292.806 Q630.102 291.88 626.144 291.023 L624.662 290.676 Q620.704 289.843 618.945 288.13 Q617.186 286.394 617.186 283.384 Q617.186 279.727 619.778 277.736 Q622.371 275.746 627.139 275.746 Q629.5 275.746 631.584 276.093 Q633.667 276.44 635.426 277.134 Z" fill="#000000" fill-rule="nonzero" fill-opacity="1" /><path clip-path="url(#clip760)" d="M660.125 277.134 L660.125 281.162 Q658.32 280.236 656.375 279.773 Q654.431 279.31 652.347 279.31 Q649.176 279.31 647.579 280.283 Q646.005 281.255 646.005 283.199 Q646.005 284.681 647.139 285.537 Q648.273 286.37 651.699 287.134 L653.158 287.458 Q657.695 288.431 659.593 290.213 Q661.514 291.972 661.514 295.144 Q661.514 298.755 658.644 300.861 Q655.797 302.968 650.797 302.968 Q648.713 302.968 646.445 302.551 Q644.199 302.157 641.699 301.347 L641.699 296.949 Q644.06 298.176 646.352 298.801 Q648.644 299.403 650.889 299.403 Q653.898 299.403 655.519 298.384 Q657.139 297.343 657.139 295.468 Q657.139 293.732 655.959 292.806 Q654.801 291.88 650.843 291.023 L649.361 290.676 Q645.403 289.843 643.644 288.13 Q641.885 286.394 641.885 283.384 Q641.885 279.727 644.477 277.736 Q647.07 275.746 651.838 275.746 Q654.199 275.746 656.283 276.093 Q658.366 276.44 660.125 277.134 Z" fill="#000000" fill-rule="nonzero" fill-opacity="1" /><path clip-path="url(#clip760)" d="M668.296 276.371 L672.556 276.371 L672.556 302.296 L668.296 302.296 L668.296 276.371 M668.296 266.278 L672.556 266.278 L672.556 271.671 L668.296 271.671 L668.296 266.278 Z" fill="#000000" fill-rule="nonzero" fill-opacity="1" /><path clip-path="url(#clip760)" d="M693.25 289.264 Q688.088 289.264 686.097 290.444 Q684.107 291.625 684.107 294.472 Q684.107 296.741 685.588 298.083 Q687.093 299.403 689.662 299.403 Q693.204 299.403 695.333 296.903 Q697.486 294.38 697.486 290.213 L697.486 289.264 L693.25 289.264 M701.745 287.505 L701.745 302.296 L697.486 302.296 L697.486 298.361 Q696.028 300.722 693.852 301.856 Q691.676 302.968 688.528 302.968 Q684.546 302.968 682.185 300.745 Q679.847 298.5 679.847 294.75 Q679.847 290.375 682.764 288.153 Q685.704 285.931 691.514 285.931 L697.486 285.931 L697.486 285.514 Q697.486 282.574 695.542 280.977 Q693.62 279.357 690.125 279.357 Q687.903 279.357 685.796 279.889 Q683.69 280.421 681.745 281.486 L681.745 277.551 Q684.083 276.648 686.282 276.208 Q688.482 275.746 690.565 275.746 Q696.19 275.746 698.968 278.662 Q701.745 281.579 701.745 287.505 Z" fill="#000000" fill-rule="nonzero" fill-opacity="1" /><path clip-path="url(#clip760)" d="M732.069 286.648 L732.069 302.296 L727.81 302.296 L727.81 286.787 Q727.81 283.107 726.375 281.278 Q724.94 279.449 722.069 279.449 Q718.62 279.449 716.63 281.648 Q714.639 283.847 714.639 287.644 L714.639 302.296 L710.356 302.296 L710.356 276.371 L714.639 276.371 L714.639 280.398 Q716.167 278.06 718.227 276.903 Q720.31 275.746 723.018 275.746 Q727.486 275.746 729.778 278.523 Q732.069 281.278 732.069 286.648 Z" fill="#000000" fill-rule="nonzero" fill-opacity="1" /></svg>
