<?xml version="1.0" encoding="utf-8"?>
<svg xmlns="http://www.w3.org/2000/svg" xmlns:xlink="http://www.w3.org/1999/xlink" width="672" height="480" viewBox="0 0 2688 1920">
<defs>
  <clipPath id="clip060">
    <rect x="0" y="0" width="2688" height="1920"/>
  </clipPath>
</defs>
<path clip-path="url(#clip060)" d="M0 1920 L2688 1920 L2688 -4.26326e-14 L0 -4.26326e-14  Z" fill="#ffffff" fill-rule="evenodd" fill-opacity="1"/>
<defs>
  <clipPath id="clip061">
    <rect x="255" y="127" width="2386" height="1607"/>
  </clipPath>
</defs>
<path clip-path="url(#clip060)" d="M255.816 1734.12 L2640.76 1734.12 L2640.76 127.792 L255.816 127.792  Z" fill="#ffffff" fill-rule="evenodd" fill-opacity="1"/>
<polyline clip-path="url(#clip061)" style="stroke:#000000; stroke-linecap:round; stroke-linejoin:round; stroke-width:2; stroke-opacity:0.1; fill:none" points="323.315,1734.12 323.315,127.792 "/>
<polyline clip-path="url(#clip061)" style="stroke:#000000; stroke-linecap:round; stroke-linejoin:round; stroke-width:2; stroke-opacity:0.1; fill:none" points="736.907,1734.12 736.907,127.792 "/>
<polyline clip-path="url(#clip061)" style="stroke:#000000; stroke-linecap:round; stroke-linejoin:round; stroke-width:2; stroke-opacity:0.1; fill:none" points="1150.5,1734.12 1150.5,127.792 "/>
<polyline clip-path="url(#clip061)" style="stroke:#000000; stroke-linecap:round; stroke-linejoin:round; stroke-width:2; stroke-opacity:0.1; fill:none" points="1564.09,1734.12 1564.09,127.792 "/>
<polyline clip-path="url(#clip061)" style="stroke:#000000; stroke-linecap:round; stroke-linejoin:round; stroke-width:2; stroke-opacity:0.1; fill:none" points="1977.68,1734.12 1977.68,127.792 "/>
<polyline clip-path="url(#clip061)" style="stroke:#000000; stroke-linecap:round; stroke-linejoin:round; stroke-width:2; stroke-opacity:0.1; fill:none" points="2391.28,1734.12 2391.28,127.792 "/>
<polyline clip-path="url(#clip061)" style="stroke:#000000; stroke-linecap:round; stroke-linejoin:round; stroke-width:2; stroke-opacity:0.1; fill:none" points="255.816,1728 2640.76,1728 "/>
<polyline clip-path="url(#clip061)" style="stroke:#000000; stroke-linecap:round; stroke-linejoin:round; stroke-width:2; stroke-opacity:0.1; fill:none" points="255.816,1264.76 2640.76,1264.76 "/>
<polyline clip-path="url(#clip061)" style="stroke:#000000; stroke-linecap:round; stroke-linejoin:round; stroke-width:2; stroke-opacity:0.1; fill:none" points="255.816,801.518 2640.76,801.518 "/>
<polyline clip-path="url(#clip061)" style="stroke:#000000; stroke-linecap:round; stroke-linejoin:round; stroke-width:2; stroke-opacity:0.1; fill:none" points="255.816,338.277 2640.76,338.277 "/>
<polyline clip-path="url(#clip060)" style="stroke:#000000; stroke-linecap:round; stroke-linejoin:round; stroke-width:4; stroke-opacity:1; fill:none" points="255.816,1734.12 2640.76,1734.12 "/>
<polyline clip-path="url(#clip060)" style="stroke:#000000; stroke-linecap:round; stroke-linejoin:round; stroke-width:4; stroke-opacity:1; fill:none" points="323.315,1734.12 323.315,1715.22 "/>
<polyline clip-path="url(#clip060)" style="stroke:#000000; stroke-linecap:round; stroke-linejoin:round; stroke-width:4; stroke-opacity:1; fill:none" points="736.907,1734.12 736.907,1715.22 "/>
<polyline clip-path="url(#clip060)" style="stroke:#000000; stroke-linecap:round; stroke-linejoin:round; stroke-width:4; stroke-opacity:1; fill:none" points="1150.5,1734.12 1150.5,1715.22 "/>
<polyline clip-path="url(#clip060)" style="stroke:#000000; stroke-linecap:round; stroke-linejoin:round; stroke-width:4; stroke-opacity:1; fill:none" points="1564.09,1734.12 1564.09,1715.22 "/>
<polyline clip-path="url(#clip060)" style="stroke:#000000; stroke-linecap:round; stroke-linejoin:round; stroke-width:4; stroke-opacity:1; fill:none" points="1977.68,1734.12 1977.68,1715.22 "/>
<polyline clip-path="url(#clip060)" style="stroke:#000000; stroke-linecap:round; stroke-linejoin:round; stroke-width:4; stroke-opacity:1; fill:none" points="2391.28,1734.12 2391.28,1715.22 "/>
<path clip-path="url(#clip060)" d="M285.618 1767.34 Q282.007 1767.34 280.178 1770.9 Q278.373 1774.45 278.373 1781.58 Q278.373 1788.68 280.178 1792.25 Q282.007 1795.79 285.618 1795.79 Q289.252 1795.79 291.058 1792.25 Q292.887 1788.68 292.887 1781.58 Q292.887 1774.45 291.058 1770.9 Q289.252 1767.34 285.618 1767.34 M285.618 1763.64 Q291.428 1763.64 294.484 1768.24 Q297.562 1772.83 297.562 1781.58 Q297.562 1790.3 294.484 1794.91 Q291.428 1799.49 285.618 1799.49 Q279.808 1799.49 276.729 1794.91 Q273.674 1790.3 273.674 1781.58 Q273.674 1772.83 276.729 1768.24 Q279.808 1763.64 285.618 1763.64 Z" fill="#000000" fill-rule="nonzero" fill-opacity="1" /><path clip-path="url(#clip060)" d="M305.78 1792.94 L310.664 1792.94 L310.664 1798.82 L305.78 1798.82 L305.78 1792.94 Z" fill="#000000" fill-rule="nonzero" fill-opacity="1" /><path clip-path="url(#clip060)" d="M330.849 1767.34 Q327.238 1767.34 325.41 1770.9 Q323.604 1774.45 323.604 1781.58 Q323.604 1788.68 325.41 1792.25 Q327.238 1795.79 330.849 1795.79 Q334.484 1795.79 336.289 1792.25 Q338.118 1788.68 338.118 1781.58 Q338.118 1774.45 336.289 1770.9 Q334.484 1767.34 330.849 1767.34 M330.849 1763.64 Q336.659 1763.64 339.715 1768.24 Q342.794 1772.83 342.794 1781.58 Q342.794 1790.3 339.715 1794.91 Q336.659 1799.49 330.849 1799.49 Q325.039 1799.49 321.96 1794.91 Q318.905 1790.3 318.905 1781.58 Q318.905 1772.83 321.96 1768.24 Q325.039 1763.64 330.849 1763.64 Z" fill="#000000" fill-rule="nonzero" fill-opacity="1" /><path clip-path="url(#clip060)" d="M361.011 1767.34 Q357.4 1767.34 355.571 1770.9 Q353.766 1774.45 353.766 1781.58 Q353.766 1788.68 355.571 1792.25 Q357.4 1795.79 361.011 1795.79 Q364.645 1795.79 366.451 1792.25 Q368.28 1788.68 368.28 1781.58 Q368.28 1774.45 366.451 1770.9 Q364.645 1767.34 361.011 1767.34 M361.011 1763.64 Q366.821 1763.64 369.877 1768.24 Q372.956 1772.83 372.956 1781.58 Q372.956 1790.3 369.877 1794.91 Q366.821 1799.49 361.011 1799.49 Q355.201 1799.49 352.122 1794.91 Q349.067 1790.3 349.067 1781.58 Q349.067 1772.83 352.122 1768.24 Q355.201 1763.64 361.011 1763.64 Z" fill="#000000" fill-rule="nonzero" fill-opacity="1" /><path clip-path="url(#clip060)" d="M699.708 1767.34 Q696.097 1767.34 694.268 1770.9 Q692.463 1774.45 692.463 1781.58 Q692.463 1788.68 694.268 1792.25 Q696.097 1795.79 699.708 1795.79 Q703.342 1795.79 705.148 1792.25 Q706.977 1788.68 706.977 1781.58 Q706.977 1774.45 705.148 1770.9 Q703.342 1767.34 699.708 1767.34 M699.708 1763.64 Q705.518 1763.64 708.574 1768.24 Q711.653 1772.83 711.653 1781.58 Q711.653 1790.3 708.574 1794.91 Q705.518 1799.49 699.708 1799.49 Q693.898 1799.49 690.819 1794.91 Q687.764 1790.3 687.764 1781.58 Q687.764 1772.83 690.819 1768.24 Q693.898 1763.64 699.708 1763.64 Z" fill="#000000" fill-rule="nonzero" fill-opacity="1" /><path clip-path="url(#clip060)" d="M719.87 1792.94 L724.754 1792.94 L724.754 1798.82 L719.87 1798.82 L719.87 1792.94 Z" fill="#000000" fill-rule="nonzero" fill-opacity="1" /><path clip-path="url(#clip060)" d="M744.939 1767.34 Q741.328 1767.34 739.5 1770.9 Q737.694 1774.45 737.694 1781.58 Q737.694 1788.68 739.5 1792.25 Q741.328 1795.79 744.939 1795.79 Q748.574 1795.79 750.379 1792.25 Q752.208 1788.68 752.208 1781.58 Q752.208 1774.45 750.379 1770.9 Q748.574 1767.34 744.939 1767.34 M744.939 1763.64 Q750.75 1763.64 753.805 1768.24 Q756.884 1772.83 756.884 1781.58 Q756.884 1790.3 753.805 1794.91 Q750.75 1799.49 744.939 1799.49 Q739.129 1799.49 736.051 1794.91 Q732.995 1790.3 732.995 1781.58 Q732.995 1772.83 736.051 1768.24 Q739.129 1763.64 744.939 1763.64 Z" fill="#000000" fill-rule="nonzero" fill-opacity="1" /><path clip-path="url(#clip060)" d="M765.148 1764.26 L783.504 1764.26 L783.504 1768.2 L769.43 1768.2 L769.43 1776.67 Q770.449 1776.32 771.467 1776.16 Q772.486 1775.97 773.504 1775.97 Q779.291 1775.97 782.671 1779.15 Q786.05 1782.32 786.05 1787.73 Q786.05 1793.31 782.578 1796.41 Q779.106 1799.49 772.787 1799.49 Q770.611 1799.49 768.342 1799.12 Q766.097 1798.75 763.689 1798.01 L763.689 1793.31 Q765.773 1794.45 767.995 1795 Q770.217 1795.56 772.694 1795.56 Q776.699 1795.56 779.036 1793.45 Q781.374 1791.34 781.374 1787.73 Q781.374 1784.12 779.036 1782.02 Q776.699 1779.91 772.694 1779.91 Q770.819 1779.91 768.944 1780.33 Q767.092 1780.74 765.148 1781.62 L765.148 1764.26 Z" fill="#000000" fill-rule="nonzero" fill-opacity="1" /><path clip-path="url(#clip060)" d="M1112.8 1767.34 Q1109.19 1767.34 1107.36 1770.9 Q1105.56 1774.45 1105.56 1781.58 Q1105.56 1788.68 1107.36 1792.25 Q1109.19 1795.79 1112.8 1795.79 Q1116.44 1795.79 1118.24 1792.25 Q1120.07 1788.68 1120.07 1781.58 Q1120.07 1774.45 1118.24 1770.9 Q1116.44 1767.34 1112.8 1767.34 M1112.8 1763.64 Q1118.61 1763.64 1121.67 1768.24 Q1124.75 1772.83 1124.75 1781.58 Q1124.75 1790.3 1121.67 1794.91 Q1118.61 1799.49 1112.8 1799.49 Q1106.99 1799.49 1103.91 1794.91 Q1100.86 1790.3 1100.86 1781.58 Q1100.86 1772.83 1103.91 1768.24 Q1106.99 1763.64 1112.8 1763.64 Z" fill="#000000" fill-rule="nonzero" fill-opacity="1" /><path clip-path="url(#clip060)" d="M1132.96 1792.94 L1137.85 1792.94 L1137.85 1798.82 L1132.96 1798.82 L1132.96 1792.94 Z" fill="#000000" fill-rule="nonzero" fill-opacity="1" /><path clip-path="url(#clip060)" d="M1148.84 1794.89 L1156.48 1794.89 L1156.48 1768.52 L1148.17 1770.19 L1148.17 1765.93 L1156.44 1764.26 L1161.11 1764.26 L1161.11 1794.89 L1168.75 1794.89 L1168.75 1798.82 L1148.84 1798.82 L1148.84 1794.89 Z" fill="#000000" fill-rule="nonzero" fill-opacity="1" /><path clip-path="url(#clip060)" d="M1188.2 1767.34 Q1184.59 1767.34 1182.76 1770.9 Q1180.95 1774.45 1180.95 1781.58 Q1180.95 1788.68 1182.76 1792.25 Q1184.59 1795.79 1188.2 1795.79 Q1191.83 1795.79 1193.64 1792.25 Q1195.46 1788.68 1195.46 1781.58 Q1195.46 1774.45 1193.64 1770.9 Q1191.83 1767.34 1188.2 1767.34 M1188.2 1763.64 Q1194.01 1763.64 1197.06 1768.24 Q1200.14 1772.83 1200.14 1781.58 Q1200.14 1790.3 1197.06 1794.91 Q1194.01 1799.49 1188.2 1799.49 Q1182.39 1799.49 1179.31 1794.91 Q1176.25 1790.3 1176.25 1781.58 Q1176.25 1772.83 1179.31 1768.24 Q1182.39 1763.64 1188.2 1763.64 Z" fill="#000000" fill-rule="nonzero" fill-opacity="1" /><path clip-path="url(#clip060)" d="M1526.89 1767.34 Q1523.28 1767.34 1521.45 1770.9 Q1519.65 1774.45 1519.65 1781.58 Q1519.65 1788.68 1521.45 1792.25 Q1523.28 1795.79 1526.89 1795.79 Q1530.53 1795.79 1532.33 1792.25 Q1534.16 1788.68 1534.16 1781.58 Q1534.16 1774.45 1532.33 1770.9 Q1530.53 1767.34 1526.89 1767.34 M1526.89 1763.64 Q1532.7 1763.64 1535.76 1768.24 Q1538.84 1772.83 1538.84 1781.58 Q1538.84 1790.3 1535.76 1794.91 Q1532.7 1799.49 1526.89 1799.49 Q1521.08 1799.49 1518 1794.91 Q1514.95 1790.3 1514.95 1781.58 Q1514.95 1772.83 1518 1768.24 Q1521.08 1763.64 1526.89 1763.64 Z" fill="#000000" fill-rule="nonzero" fill-opacity="1" /><path clip-path="url(#clip060)" d="M1547.06 1792.94 L1551.94 1792.94 L1551.94 1798.82 L1547.06 1798.82 L1547.06 1792.94 Z" fill="#000000" fill-rule="nonzero" fill-opacity="1" /><path clip-path="url(#clip060)" d="M1562.93 1794.89 L1570.57 1794.89 L1570.57 1768.52 L1562.26 1770.19 L1562.26 1765.93 L1570.53 1764.26 L1575.2 1764.26 L1575.2 1794.89 L1582.84 1794.89 L1582.84 1798.82 L1562.93 1798.82 L1562.93 1794.89 Z" fill="#000000" fill-rule="nonzero" fill-opacity="1" /><path clip-path="url(#clip060)" d="M1592.33 1764.26 L1610.69 1764.26 L1610.69 1768.2 L1596.61 1768.2 L1596.61 1776.67 Q1597.63 1776.32 1598.65 1776.16 Q1599.67 1775.97 1600.69 1775.97 Q1606.48 1775.97 1609.86 1779.15 Q1613.24 1782.32 1613.24 1787.73 Q1613.24 1793.31 1609.76 1796.41 Q1606.29 1799.49 1599.97 1799.49 Q1597.8 1799.49 1595.53 1799.12 Q1593.28 1798.75 1590.87 1798.01 L1590.87 1793.31 Q1592.96 1794.45 1595.18 1795 Q1597.4 1795.56 1599.88 1795.56 Q1603.88 1795.56 1606.22 1793.45 Q1608.56 1791.34 1608.56 1787.73 Q1608.56 1784.12 1606.22 1782.02 Q1603.88 1779.91 1599.88 1779.91 Q1598 1779.91 1596.13 1780.33 Q1594.28 1780.74 1592.33 1781.62 L1592.33 1764.26 Z" fill="#000000" fill-rule="nonzero" fill-opacity="1" /><path clip-path="url(#clip060)" d="M1939.99 1767.34 Q1936.38 1767.34 1934.55 1770.9 Q1932.74 1774.45 1932.74 1781.58 Q1932.74 1788.68 1934.55 1792.25 Q1936.38 1795.79 1939.99 1795.79 Q1943.62 1795.79 1945.43 1792.25 Q1947.26 1788.68 1947.26 1781.58 Q1947.26 1774.45 1945.43 1770.9 Q1943.62 1767.34 1939.99 1767.34 M1939.99 1763.64 Q1945.8 1763.64 1948.85 1768.24 Q1951.93 1772.83 1951.93 1781.58 Q1951.93 1790.3 1948.85 1794.91 Q1945.8 1799.49 1939.99 1799.49 Q1934.18 1799.49 1931.1 1794.91 Q1928.04 1790.3 1928.04 1781.58 Q1928.04 1772.83 1931.1 1768.24 Q1934.18 1763.64 1939.99 1763.64 Z" fill="#000000" fill-rule="nonzero" fill-opacity="1" /><path clip-path="url(#clip060)" d="M1960.15 1792.94 L1965.03 1792.94 L1965.03 1798.82 L1960.15 1798.82 L1960.15 1792.94 Z" fill="#000000" fill-rule="nonzero" fill-opacity="1" /><path clip-path="url(#clip060)" d="M1979.25 1794.89 L1995.57 1794.89 L1995.57 1798.82 L1973.62 1798.82 L1973.62 1794.89 Q1976.28 1792.13 1980.87 1787.5 Q1985.47 1782.85 1986.65 1781.51 Q1988.9 1778.98 1989.78 1777.25 Q1990.68 1775.49 1990.68 1773.8 Q1990.68 1771.04 1988.74 1769.31 Q1986.82 1767.57 1983.71 1767.57 Q1981.52 1767.57 1979.06 1768.34 Q1976.63 1769.1 1973.85 1770.65 L1973.85 1765.93 Q1976.68 1764.79 1979.13 1764.21 Q1981.58 1763.64 1983.62 1763.64 Q1988.99 1763.64 1992.19 1766.32 Q1995.38 1769.01 1995.38 1773.5 Q1995.38 1775.63 1994.57 1777.55 Q1993.78 1779.45 1991.68 1782.04 Q1991.1 1782.71 1988 1785.93 Q1984.9 1789.12 1979.25 1794.89 Z" fill="#000000" fill-rule="nonzero" fill-opacity="1" /><path clip-path="url(#clip060)" d="M2015.38 1767.34 Q2011.77 1767.34 2009.94 1770.9 Q2008.14 1774.45 2008.14 1781.58 Q2008.14 1788.68 2009.94 1792.25 Q2011.77 1795.79 2015.38 1795.79 Q2019.02 1795.79 2020.82 1792.25 Q2022.65 1788.68 2022.65 1781.58 Q2022.65 1774.45 2020.82 1770.9 Q2019.02 1767.34 2015.38 1767.34 M2015.38 1763.64 Q2021.19 1763.64 2024.25 1768.24 Q2027.33 1772.83 2027.33 1781.58 Q2027.33 1790.3 2024.25 1794.91 Q2021.19 1799.49 2015.38 1799.49 Q2009.57 1799.49 2006.49 1794.91 Q2003.44 1790.3 2003.44 1781.58 Q2003.44 1772.83 2006.49 1768.24 Q2009.57 1763.64 2015.38 1763.64 Z" fill="#000000" fill-rule="nonzero" fill-opacity="1" /><path clip-path="url(#clip060)" d="M2354.08 1767.34 Q2350.47 1767.34 2348.64 1770.9 Q2346.83 1774.45 2346.83 1781.58 Q2346.83 1788.68 2348.64 1792.25 Q2350.47 1795.79 2354.08 1795.79 Q2357.71 1795.79 2359.52 1792.25 Q2361.35 1788.68 2361.35 1781.58 Q2361.35 1774.45 2359.52 1770.9 Q2357.71 1767.34 2354.08 1767.34 M2354.08 1763.64 Q2359.89 1763.64 2362.94 1768.24 Q2366.02 1772.83 2366.02 1781.58 Q2366.02 1790.3 2362.94 1794.91 Q2359.89 1799.49 2354.08 1799.49 Q2348.27 1799.49 2345.19 1794.91 Q2342.13 1790.3 2342.13 1781.58 Q2342.13 1772.83 2345.19 1768.24 Q2348.27 1763.64 2354.08 1763.64 Z" fill="#000000" fill-rule="nonzero" fill-opacity="1" /><path clip-path="url(#clip060)" d="M2374.24 1792.94 L2379.12 1792.94 L2379.12 1798.82 L2374.24 1798.82 L2374.24 1792.94 Z" fill="#000000" fill-rule="nonzero" fill-opacity="1" /><path clip-path="url(#clip060)" d="M2393.34 1794.89 L2409.66 1794.89 L2409.66 1798.82 L2387.71 1798.82 L2387.71 1794.89 Q2390.37 1792.13 2394.96 1787.5 Q2399.56 1782.85 2400.74 1781.51 Q2402.99 1778.98 2403.87 1777.25 Q2404.77 1775.49 2404.77 1773.8 Q2404.77 1771.04 2402.83 1769.31 Q2400.91 1767.57 2397.8 1767.57 Q2395.61 1767.57 2393.15 1768.34 Q2390.72 1769.1 2387.94 1770.65 L2387.94 1765.93 Q2390.77 1764.79 2393.22 1764.21 Q2395.68 1763.64 2397.71 1763.64 Q2403.08 1763.64 2406.28 1766.32 Q2409.47 1769.01 2409.47 1773.5 Q2409.47 1775.63 2408.66 1777.55 Q2407.87 1779.45 2405.77 1782.04 Q2405.19 1782.71 2402.09 1785.93 Q2398.99 1789.12 2393.34 1794.89 Z" fill="#000000" fill-rule="nonzero" fill-opacity="1" /><path clip-path="url(#clip060)" d="M2419.52 1764.26 L2437.87 1764.26 L2437.87 1768.2 L2423.8 1768.2 L2423.8 1776.67 Q2424.82 1776.32 2425.84 1776.16 Q2426.86 1775.97 2427.87 1775.97 Q2433.66 1775.97 2437.04 1779.15 Q2440.42 1782.32 2440.42 1787.73 Q2440.42 1793.31 2436.95 1796.41 Q2433.48 1799.49 2427.16 1799.49 Q2424.98 1799.49 2422.71 1799.12 Q2420.47 1798.75 2418.06 1798.01 L2418.06 1793.31 Q2420.14 1794.45 2422.36 1795 Q2424.59 1795.56 2427.06 1795.56 Q2431.07 1795.56 2433.41 1793.45 Q2435.74 1791.34 2435.74 1787.73 Q2435.74 1784.12 2433.41 1782.02 Q2431.07 1779.91 2427.06 1779.91 Q2425.19 1779.91 2423.31 1780.33 Q2421.46 1780.74 2419.52 1781.62 L2419.52 1764.26 Z" fill="#000000" fill-rule="nonzero" fill-opacity="1" /><path clip-path="url(#clip060)" d="M1201.14 1841.06 L1201.14 1858.92 L1209.22 1858.92 Q1213.71 1858.92 1216.16 1856.6 Q1218.61 1854.27 1218.61 1849.98 Q1218.61 1845.71 1216.16 1843.39 Q1213.71 1841.06 1209.22 1841.06 L1201.14 1841.06 M1194.71 1835.78 L1209.22 1835.78 Q1217.21 1835.78 1221.29 1839.41 Q1225.39 1843.01 1225.39 1849.98 Q1225.39 1857.01 1221.29 1860.61 Q1217.21 1864.2 1209.22 1864.2 L1201.14 1864.2 L1201.14 1883.3 L1194.71 1883.3 L1194.71 1835.78 Z" fill="#000000" fill-rule="nonzero" fill-opacity="1" /><path clip-path="url(#clip060)" d="M1253.27 1853.13 Q1252.29 1852.55 1251.11 1852.3 Q1249.96 1852.01 1248.56 1852.01 Q1243.6 1852.01 1240.92 1855.26 Q1238.28 1858.47 1238.28 1864.52 L1238.28 1883.3 L1232.39 1883.3 L1232.39 1847.65 L1238.28 1847.65 L1238.28 1853.19 Q1240.13 1849.94 1243.09 1848.39 Q1246.05 1846.79 1250.28 1846.79 Q1250.89 1846.79 1251.62 1846.89 Q1252.35 1846.95 1253.24 1847.11 L1253.27 1853.13 Z" fill="#000000" fill-rule="nonzero" fill-opacity="1" /><path clip-path="url(#clip060)" d="M1288.48 1864.01 L1288.48 1866.88 L1261.55 1866.88 Q1261.93 1872.92 1265.18 1876.11 Q1268.45 1879.26 1274.28 1879.26 Q1277.65 1879.26 1280.8 1878.43 Q1283.99 1877.6 1287.11 1875.95 L1287.11 1881.49 Q1283.96 1882.82 1280.65 1883.52 Q1277.34 1884.22 1273.93 1884.22 Q1265.4 1884.22 1260.4 1879.26 Q1255.44 1874.29 1255.44 1865.83 Q1255.44 1857.07 1260.15 1851.95 Q1264.89 1846.79 1272.91 1846.79 Q1280.1 1846.79 1284.27 1851.44 Q1288.48 1856.06 1288.48 1864.01 M1282.62 1862.29 Q1282.55 1857.49 1279.91 1854.62 Q1277.3 1851.76 1272.97 1851.76 Q1268.07 1851.76 1265.11 1854.53 Q1262.18 1857.3 1261.74 1862.33 L1282.62 1862.29 Z" fill="#000000" fill-rule="nonzero" fill-opacity="1" /><path clip-path="url(#clip060)" d="M1293.89 1847.65 L1300.09 1847.65 L1311.23 1877.57 L1322.37 1847.65 L1328.58 1847.65 L1315.21 1883.3 L1307.25 1883.3 L1293.89 1847.65 Z" fill="#000000" fill-rule="nonzero" fill-opacity="1" /><path clip-path="url(#clip060)" d="M1352.86 1865.38 Q1345.77 1865.38 1343.03 1867 Q1340.29 1868.63 1340.29 1872.54 Q1340.29 1875.66 1342.33 1877.51 Q1344.4 1879.32 1347.93 1879.32 Q1352.8 1879.32 1355.73 1875.88 Q1358.69 1872.42 1358.69 1866.69 L1358.69 1865.38 L1352.86 1865.38 M1364.55 1862.96 L1364.55 1883.3 L1358.69 1883.3 L1358.69 1877.89 Q1356.68 1881.14 1353.69 1882.7 Q1350.7 1884.22 1346.37 1884.22 Q1340.9 1884.22 1337.65 1881.17 Q1334.44 1878.08 1334.44 1872.92 Q1334.44 1866.91 1338.45 1863.85 Q1342.49 1860.8 1350.48 1860.8 L1358.69 1860.8 L1358.69 1860.23 Q1358.69 1856.18 1356.02 1853.99 Q1353.37 1851.76 1348.57 1851.76 Q1345.51 1851.76 1342.62 1852.49 Q1339.72 1853.22 1337.05 1854.69 L1337.05 1849.28 Q1340.26 1848.03 1343.28 1847.43 Q1346.31 1846.79 1349.17 1846.79 Q1356.91 1846.79 1360.73 1850.8 Q1364.55 1854.81 1364.55 1862.96 Z" fill="#000000" fill-rule="nonzero" fill-opacity="1" /><path clip-path="url(#clip060)" d="M1376.61 1833.78 L1382.46 1833.78 L1382.46 1883.3 L1376.61 1883.3 L1376.61 1833.78 Z" fill="#000000" fill-rule="nonzero" fill-opacity="1" /><path clip-path="url(#clip060)" d="M1425.21 1864.01 L1425.21 1866.88 L1398.28 1866.88 Q1398.67 1872.92 1401.91 1876.11 Q1405.19 1879.26 1411.01 1879.26 Q1414.39 1879.26 1417.54 1878.43 Q1420.72 1877.6 1423.84 1875.95 L1423.84 1881.49 Q1420.69 1882.82 1417.38 1883.52 Q1414.07 1884.22 1410.66 1884.22 Q1402.13 1884.22 1397.14 1879.26 Q1392.17 1874.29 1392.17 1865.83 Q1392.17 1857.07 1396.88 1851.95 Q1401.63 1846.79 1409.65 1846.79 Q1416.84 1846.79 1421.01 1851.44 Q1425.21 1856.06 1425.21 1864.01 M1419.35 1862.29 Q1419.29 1857.49 1416.65 1854.62 Q1414.04 1851.76 1409.71 1851.76 Q1404.81 1851.76 1401.85 1854.53 Q1398.92 1857.3 1398.47 1862.33 L1419.35 1862.29 Z" fill="#000000" fill-rule="nonzero" fill-opacity="1" /><path clip-path="url(#clip060)" d="M1464.46 1861.78 L1464.46 1883.3 L1458.6 1883.3 L1458.6 1861.98 Q1458.6 1856.92 1456.63 1854.4 Q1454.65 1851.89 1450.71 1851.89 Q1445.96 1851.89 1443.23 1854.91 Q1440.49 1857.93 1440.49 1863.15 L1440.49 1883.3 L1434.6 1883.3 L1434.6 1847.65 L1440.49 1847.65 L1440.49 1853.19 Q1442.59 1849.98 1445.42 1848.39 Q1448.29 1846.79 1452.01 1846.79 Q1458.15 1846.79 1461.3 1850.61 Q1464.46 1854.4 1464.46 1861.78 Z" fill="#000000" fill-rule="nonzero" fill-opacity="1" /><path clip-path="url(#clip060)" d="M1501.79 1849.02 L1501.79 1854.5 Q1499.31 1853.13 1496.79 1852.46 Q1494.31 1851.76 1491.76 1851.76 Q1486.07 1851.76 1482.92 1855.39 Q1479.76 1858.98 1479.76 1865.51 Q1479.76 1872.03 1482.92 1875.66 Q1486.07 1879.26 1491.76 1879.26 Q1494.31 1879.26 1496.79 1878.59 Q1499.31 1877.89 1501.79 1876.52 L1501.79 1881.93 Q1499.34 1883.08 1496.7 1883.65 Q1494.09 1884.22 1491.13 1884.22 Q1483.07 1884.22 1478.33 1879.16 Q1473.59 1874.1 1473.59 1865.51 Q1473.59 1856.79 1478.36 1851.79 Q1483.17 1846.79 1491.51 1846.79 Q1494.21 1846.79 1496.79 1847.37 Q1499.37 1847.91 1501.79 1849.02 Z" fill="#000000" fill-rule="nonzero" fill-opacity="1" /><path clip-path="url(#clip060)" d="M1542.47 1864.01 L1542.47 1866.88 L1515.54 1866.88 Q1515.92 1872.92 1519.17 1876.11 Q1522.45 1879.26 1528.27 1879.26 Q1531.65 1879.26 1534.8 1878.43 Q1537.98 1877.6 1541.1 1875.95 L1541.1 1881.49 Q1537.95 1882.82 1534.64 1883.52 Q1531.33 1884.22 1527.92 1884.22 Q1519.39 1884.22 1514.39 1879.26 Q1509.43 1874.29 1509.43 1865.83 Q1509.43 1857.07 1514.14 1851.95 Q1518.88 1846.79 1526.9 1846.79 Q1534.1 1846.79 1538.27 1851.44 Q1542.47 1856.06 1542.47 1864.01 M1536.61 1862.29 Q1536.55 1857.49 1533.9 1854.62 Q1531.29 1851.76 1526.97 1851.76 Q1522.06 1851.76 1519.1 1854.53 Q1516.18 1857.3 1515.73 1862.33 L1536.61 1862.29 Z" fill="#000000" fill-rule="nonzero" fill-opacity="1" /><path clip-path="url(#clip060)" d="M1586.87 1833.84 Q1582.6 1841.16 1580.53 1848.32 Q1578.46 1855.48 1578.46 1862.84 Q1578.46 1870.19 1580.53 1877.41 Q1582.63 1884.61 1586.87 1891.89 L1581.77 1891.89 Q1577 1884.41 1574.61 1877.19 Q1572.26 1869.96 1572.26 1862.84 Q1572.26 1855.74 1574.61 1848.54 Q1576.97 1841.35 1581.77 1833.84 L1586.87 1833.84 Z" fill="#000000" fill-rule="nonzero" fill-opacity="1" /><path clip-path="url(#clip060)" d="M1598.48 1835.78 L1604.91 1835.78 L1604.91 1883.3 L1598.48 1883.3 L1598.48 1835.78 Z" fill="#000000" fill-rule="nonzero" fill-opacity="1" /><path clip-path="url(#clip060)" d="M1627.86 1835.78 L1633.27 1835.78 L1616.72 1889.35 L1611.31 1889.35 L1627.86 1835.78 Z" fill="#000000" fill-rule="nonzero" fill-opacity="1" /><path clip-path="url(#clip060)" d="M1639.67 1835.78 L1648.33 1835.78 L1669.4 1875.53 L1669.4 1835.78 L1675.64 1835.78 L1675.64 1883.3 L1666.98 1883.3 L1645.91 1843.55 L1645.91 1883.3 L1639.67 1883.3 L1639.67 1835.78 Z" fill="#000000" fill-rule="nonzero" fill-opacity="1" /><path clip-path="url(#clip060)" d="M1687.25 1833.84 L1692.35 1833.84 Q1697.12 1841.35 1699.48 1848.54 Q1701.86 1855.74 1701.86 1862.84 Q1701.86 1869.96 1699.48 1877.19 Q1697.12 1884.41 1692.35 1891.89 L1687.25 1891.89 Q1691.49 1884.61 1693.56 1877.41 Q1695.66 1870.19 1695.66 1862.84 Q1695.66 1855.48 1693.56 1848.32 Q1691.49 1841.16 1687.25 1833.84 Z" fill="#000000" fill-rule="nonzero" fill-opacity="1" /><polyline clip-path="url(#clip060)" style="stroke:#000000; stroke-linecap:round; stroke-linejoin:round; stroke-width:4; stroke-opacity:1; fill:none" points="255.816,1734.12 255.816,127.792 "/>
<polyline clip-path="url(#clip060)" style="stroke:#000000; stroke-linecap:round; stroke-linejoin:round; stroke-width:4; stroke-opacity:1; fill:none" points="255.816,1728 274.714,1728 "/>
<polyline clip-path="url(#clip060)" style="stroke:#000000; stroke-linecap:round; stroke-linejoin:round; stroke-width:4; stroke-opacity:1; fill:none" points="255.816,1264.76 274.714,1264.76 "/>
<polyline clip-path="url(#clip060)" style="stroke:#000000; stroke-linecap:round; stroke-linejoin:round; stroke-width:4; stroke-opacity:1; fill:none" points="255.816,801.518 274.714,801.518 "/>
<polyline clip-path="url(#clip060)" style="stroke:#000000; stroke-linecap:round; stroke-linejoin:round; stroke-width:4; stroke-opacity:1; fill:none" points="255.816,338.277 274.714,338.277 "/>
<path clip-path="url(#clip060)" d="M128.159 1713.8 Q124.548 1713.8 122.719 1717.36 Q120.913 1720.9 120.913 1728.03 Q120.913 1735.14 122.719 1738.71 Q124.548 1742.25 128.159 1742.25 Q131.793 1742.25 133.599 1738.71 Q135.427 1735.14 135.427 1728.03 Q135.427 1720.9 133.599 1717.36 Q131.793 1713.8 128.159 1713.8 M128.159 1710.09 Q133.969 1710.09 137.025 1714.7 Q140.103 1719.28 140.103 1728.03 Q140.103 1736.76 137.025 1741.37 Q133.969 1745.95 128.159 1745.95 Q122.349 1745.95 119.27 1741.37 Q116.214 1736.76 116.214 1728.03 Q116.214 1719.28 119.27 1714.7 Q122.349 1710.09 128.159 1710.09 Z" fill="#000000" fill-rule="nonzero" fill-opacity="1" /><path clip-path="url(#clip060)" d="M148.321 1739.4 L153.205 1739.4 L153.205 1745.28 L148.321 1745.28 L148.321 1739.4 Z" fill="#000000" fill-rule="nonzero" fill-opacity="1" /><path clip-path="url(#clip060)" d="M173.39 1713.8 Q169.779 1713.8 167.95 1717.36 Q166.145 1720.9 166.145 1728.03 Q166.145 1735.14 167.95 1738.71 Q169.779 1742.25 173.39 1742.25 Q177.024 1742.25 178.83 1738.71 Q180.659 1735.14 180.659 1728.03 Q180.659 1720.9 178.83 1717.36 Q177.024 1713.8 173.39 1713.8 M173.39 1710.09 Q179.2 1710.09 182.256 1714.7 Q185.334 1719.28 185.334 1728.03 Q185.334 1736.76 182.256 1741.37 Q179.2 1745.95 173.39 1745.95 Q167.58 1745.95 164.501 1741.37 Q161.446 1736.76 161.446 1728.03 Q161.446 1719.28 164.501 1714.7 Q167.58 1710.09 173.39 1710.09 Z" fill="#000000" fill-rule="nonzero" fill-opacity="1" /><path clip-path="url(#clip060)" d="M203.552 1713.8 Q199.941 1713.8 198.112 1717.36 Q196.307 1720.9 196.307 1728.03 Q196.307 1735.14 198.112 1738.71 Q199.941 1742.25 203.552 1742.25 Q207.186 1742.25 208.992 1738.71 Q210.82 1735.14 210.82 1728.03 Q210.82 1720.9 208.992 1717.36 Q207.186 1713.8 203.552 1713.8 M203.552 1710.09 Q209.362 1710.09 212.418 1714.7 Q215.496 1719.28 215.496 1728.03 Q215.496 1736.76 212.418 1741.37 Q209.362 1745.95 203.552 1745.95 Q197.742 1745.95 194.663 1741.37 Q191.608 1736.76 191.608 1728.03 Q191.608 1719.28 194.663 1714.7 Q197.742 1710.09 203.552 1710.09 Z" fill="#000000" fill-rule="nonzero" fill-opacity="1" /><path clip-path="url(#clip060)" d="M129.154 1250.56 Q125.543 1250.56 123.714 1254.12 Q121.909 1257.66 121.909 1264.79 Q121.909 1271.9 123.714 1275.46 Q125.543 1279.01 129.154 1279.01 Q132.788 1279.01 134.594 1275.46 Q136.423 1271.9 136.423 1264.79 Q136.423 1257.66 134.594 1254.12 Q132.788 1250.56 129.154 1250.56 M129.154 1246.85 Q134.964 1246.85 138.02 1251.46 Q141.099 1256.04 141.099 1264.79 Q141.099 1273.52 138.02 1278.13 Q134.964 1282.71 129.154 1282.71 Q123.344 1282.71 120.265 1278.13 Q117.21 1273.52 117.21 1264.79 Q117.21 1256.04 120.265 1251.46 Q123.344 1246.85 129.154 1246.85 Z" fill="#000000" fill-rule="nonzero" fill-opacity="1" /><path clip-path="url(#clip060)" d="M149.316 1276.16 L154.2 1276.16 L154.2 1282.04 L149.316 1282.04 L149.316 1276.16 Z" fill="#000000" fill-rule="nonzero" fill-opacity="1" /><path clip-path="url(#clip060)" d="M174.385 1250.56 Q170.774 1250.56 168.946 1254.12 Q167.14 1257.66 167.14 1264.79 Q167.14 1271.9 168.946 1275.46 Q170.774 1279.01 174.385 1279.01 Q178.02 1279.01 179.825 1275.46 Q181.654 1271.9 181.654 1264.79 Q181.654 1257.66 179.825 1254.12 Q178.02 1250.56 174.385 1250.56 M174.385 1246.85 Q180.196 1246.85 183.251 1251.46 Q186.33 1256.04 186.33 1264.79 Q186.33 1273.52 183.251 1278.13 Q180.196 1282.71 174.385 1282.71 Q168.575 1282.71 165.497 1278.13 Q162.441 1273.52 162.441 1264.79 Q162.441 1256.04 165.497 1251.46 Q168.575 1246.85 174.385 1246.85 Z" fill="#000000" fill-rule="nonzero" fill-opacity="1" /><path clip-path="url(#clip060)" d="M194.594 1247.48 L212.95 1247.48 L212.95 1251.41 L198.876 1251.41 L198.876 1259.89 Q199.895 1259.54 200.913 1259.38 Q201.932 1259.19 202.95 1259.19 Q208.737 1259.19 212.117 1262.36 Q215.496 1265.53 215.496 1270.95 Q215.496 1276.53 212.024 1279.63 Q208.552 1282.71 202.233 1282.71 Q200.057 1282.71 197.788 1282.34 Q195.543 1281.97 193.135 1281.23 L193.135 1276.53 Q195.219 1277.66 197.441 1278.22 Q199.663 1278.77 202.14 1278.77 Q206.145 1278.77 208.482 1276.67 Q210.82 1274.56 210.82 1270.95 Q210.82 1267.34 208.482 1265.23 Q206.145 1263.13 202.14 1263.13 Q200.265 1263.13 198.39 1263.54 Q196.538 1263.96 194.594 1264.84 L194.594 1247.48 Z" fill="#000000" fill-rule="nonzero" fill-opacity="1" /><path clip-path="url(#clip060)" d="M128.159 787.317 Q124.548 787.317 122.719 790.881 Q120.913 794.423 120.913 801.553 Q120.913 808.659 122.719 812.224 Q124.548 815.766 128.159 815.766 Q131.793 815.766 133.599 812.224 Q135.427 808.659 135.427 801.553 Q135.427 794.423 133.599 790.881 Q131.793 787.317 128.159 787.317 M128.159 783.613 Q133.969 783.613 137.025 788.219 Q140.103 792.803 140.103 801.553 Q140.103 810.279 137.025 814.886 Q133.969 819.469 128.159 819.469 Q122.349 819.469 119.27 814.886 Q116.214 810.279 116.214 801.553 Q116.214 792.803 119.27 788.219 Q122.349 783.613 128.159 783.613 Z" fill="#000000" fill-rule="nonzero" fill-opacity="1" /><path clip-path="url(#clip060)" d="M148.321 812.918 L153.205 812.918 L153.205 818.798 L148.321 818.798 L148.321 812.918 Z" fill="#000000" fill-rule="nonzero" fill-opacity="1" /><path clip-path="url(#clip060)" d="M164.2 814.863 L171.839 814.863 L171.839 788.497 L163.529 790.164 L163.529 785.905 L171.793 784.238 L176.469 784.238 L176.469 814.863 L184.108 814.863 L184.108 818.798 L164.2 818.798 L164.2 814.863 Z" fill="#000000" fill-rule="nonzero" fill-opacity="1" /><path clip-path="url(#clip060)" d="M203.552 787.317 Q199.941 787.317 198.112 790.881 Q196.307 794.423 196.307 801.553 Q196.307 808.659 198.112 812.224 Q199.941 815.766 203.552 815.766 Q207.186 815.766 208.992 812.224 Q210.82 808.659 210.82 801.553 Q210.82 794.423 208.992 790.881 Q207.186 787.317 203.552 787.317 M203.552 783.613 Q209.362 783.613 212.418 788.219 Q215.496 792.803 215.496 801.553 Q215.496 810.279 212.418 814.886 Q209.362 819.469 203.552 819.469 Q197.742 819.469 194.663 814.886 Q191.608 810.279 191.608 801.553 Q191.608 792.803 194.663 788.219 Q197.742 783.613 203.552 783.613 Z" fill="#000000" fill-rule="nonzero" fill-opacity="1" /><path clip-path="url(#clip060)" d="M129.154 324.076 Q125.543 324.076 123.714 327.641 Q121.909 331.182 121.909 338.312 Q121.909 345.418 123.714 348.983 Q125.543 352.525 129.154 352.525 Q132.788 352.525 134.594 348.983 Q136.423 345.418 136.423 338.312 Q136.423 331.182 134.594 327.641 Q132.788 324.076 129.154 324.076 M129.154 320.372 Q134.964 320.372 138.02 324.979 Q141.099 329.562 141.099 338.312 Q141.099 347.039 138.02 351.645 Q134.964 356.229 129.154 356.229 Q123.344 356.229 120.265 351.645 Q117.21 347.039 117.21 338.312 Q117.21 329.562 120.265 324.979 Q123.344 320.372 129.154 320.372 Z" fill="#000000" fill-rule="nonzero" fill-opacity="1" /><path clip-path="url(#clip060)" d="M149.316 349.678 L154.2 349.678 L154.2 355.557 L149.316 355.557 L149.316 349.678 Z" fill="#000000" fill-rule="nonzero" fill-opacity="1" /><path clip-path="url(#clip060)" d="M165.196 351.622 L172.835 351.622 L172.835 325.257 L164.524 326.923 L164.524 322.664 L172.788 320.997 L177.464 320.997 L177.464 351.622 L185.103 351.622 L185.103 355.557 L165.196 355.557 L165.196 351.622 Z" fill="#000000" fill-rule="nonzero" fill-opacity="1" /><path clip-path="url(#clip060)" d="M194.594 320.997 L212.95 320.997 L212.95 324.932 L198.876 324.932 L198.876 333.405 Q199.895 333.057 200.913 332.895 Q201.932 332.71 202.95 332.71 Q208.737 332.71 212.117 335.881 Q215.496 339.053 215.496 344.469 Q215.496 350.048 212.024 353.15 Q208.552 356.229 202.233 356.229 Q200.057 356.229 197.788 355.858 Q195.543 355.488 193.135 354.747 L193.135 350.048 Q195.219 351.182 197.441 351.738 Q199.663 352.293 202.14 352.293 Q206.145 352.293 208.482 350.187 Q210.82 348.081 210.82 344.469 Q210.82 340.858 208.482 338.752 Q206.145 336.645 202.14 336.645 Q200.265 336.645 198.39 337.062 Q196.538 337.479 194.594 338.358 L194.594 320.997 Z" fill="#000000" fill-rule="nonzero" fill-opacity="1" /><path clip-path="url(#clip060)" d="M14.1184 1238.34 L14.1184 1211.03 L19.5293 1211.03 L19.5293 1231.91 L33.5338 1231.91 L33.5338 1213.07 L38.9447 1213.07 L38.9447 1231.91 L61.6384 1231.91 L61.6384 1238.34 L14.1184 1238.34 Z" fill="#000000" fill-rule="nonzero" fill-opacity="1" /><path clip-path="url(#clip060)" d="M30.0964 1189.61 Q30.0964 1194.32 33.7885 1197.06 Q37.4488 1199.79 43.8463 1199.79 Q50.2438 1199.79 53.9359 1197.09 Q57.5962 1194.35 57.5962 1189.61 Q57.5962 1184.93 53.9041 1182.19 Q50.212 1179.46 43.8463 1179.46 Q37.5124 1179.46 33.8203 1182.19 Q30.0964 1184.93 30.0964 1189.61 M25.1311 1189.61 Q25.1311 1181.97 30.0964 1177.61 Q35.0616 1173.25 43.8463 1173.25 Q52.5991 1173.25 57.5962 1177.61 Q62.5615 1181.97 62.5615 1189.61 Q62.5615 1197.28 57.5962 1201.64 Q52.5991 1205.97 43.8463 1205.97 Q35.0616 1205.97 30.0964 1201.64 Q25.1311 1197.28 25.1311 1189.61 Z" fill="#000000" fill-rule="nonzero" fill-opacity="1" /><path clip-path="url(#clip060)" d="M31.465 1142.88 Q30.8921 1143.87 30.6375 1145.05 Q30.351 1146.2 30.351 1147.6 Q30.351 1152.56 33.5975 1155.23 Q36.8122 1157.88 42.8596 1157.88 L61.6384 1157.88 L61.6384 1163.76 L25.9905 1163.76 L25.9905 1157.88 L31.5287 1157.88 Q28.2821 1156.03 26.7225 1153.07 Q25.1311 1150.11 25.1311 1145.88 Q25.1311 1145.27 25.2266 1144.54 Q25.2903 1143.81 25.4494 1142.92 L31.465 1142.88 Z" fill="#000000" fill-rule="nonzero" fill-opacity="1" /><path clip-path="url(#clip060)" d="M27.3591 1112.52 L32.8336 1112.52 Q31.465 1115 30.7966 1117.52 Q30.0964 1120 30.0964 1122.55 Q30.0964 1128.24 33.7248 1131.39 Q37.3214 1134.55 43.8463 1134.55 Q50.3711 1134.55 53.9996 1131.39 Q57.5962 1128.24 57.5962 1122.55 Q57.5962 1120 56.9278 1117.52 Q56.2276 1115 54.859 1112.52 L60.2698 1112.52 Q61.4156 1114.97 61.9886 1117.61 Q62.5615 1120.22 62.5615 1123.18 Q62.5615 1131.24 57.5007 1135.98 Q52.44 1140.72 43.8463 1140.72 Q35.1253 1140.72 30.1282 1135.95 Q25.1311 1131.14 25.1311 1122.8 Q25.1311 1120.1 25.704 1117.52 Q26.2451 1114.94 27.3591 1112.52 Z" fill="#000000" fill-rule="nonzero" fill-opacity="1" /><path clip-path="url(#clip060)" d="M42.3504 1071.84 L45.2149 1071.84 L45.2149 1098.77 Q51.2623 1098.39 54.4452 1095.14 Q57.5962 1091.86 57.5962 1086.04 Q57.5962 1082.67 56.7687 1079.51 Q55.9411 1076.33 54.2861 1073.21 L59.8242 1073.21 Q61.161 1076.36 61.8612 1079.67 Q62.5615 1082.98 62.5615 1086.39 Q62.5615 1094.92 57.5962 1099.92 Q52.631 1104.88 44.1646 1104.88 Q35.4117 1104.88 30.2873 1100.17 Q25.1311 1095.43 25.1311 1087.41 Q25.1311 1080.21 29.7781 1076.04 Q34.3932 1071.84 42.3504 1071.84 M40.6316 1077.7 Q35.8255 1077.76 32.9609 1080.41 Q30.0964 1083.02 30.0964 1087.34 Q30.0964 1092.25 32.8654 1095.21 Q35.6345 1098.13 40.6634 1098.58 L40.6316 1077.7 Z" fill="#000000" fill-rule="nonzero" fill-opacity="1" /><path clip-path="url(#clip060)" d="M30.0964 1027.7 Q30.0964 1032.41 33.7885 1035.15 Q37.4488 1037.88 43.8463 1037.88 Q50.2438 1037.88 53.9359 1035.18 Q57.5962 1032.44 57.5962 1027.7 Q57.5962 1023.02 53.9041 1020.28 Q50.212 1017.54 43.8463 1017.54 Q37.5124 1017.54 33.8203 1020.28 Q30.0964 1023.02 30.0964 1027.7 M25.1311 1027.7 Q25.1311 1020.06 30.0964 1015.7 Q35.0616 1011.34 43.8463 1011.34 Q52.5991 1011.34 57.5962 1015.7 Q62.5615 1020.06 62.5615 1027.7 Q62.5615 1035.37 57.5962 1039.73 Q52.5991 1044.06 43.8463 1044.06 Q35.0616 1044.06 30.0964 1039.73 Q25.1311 1035.37 25.1311 1027.7 Z" fill="#000000" fill-rule="nonzero" fill-opacity="1" /><path clip-path="url(#clip060)" d="M12.1132 983.583 L16.983 983.583 L16.983 989.185 Q16.983 992.336 18.2562 993.577 Q19.5293 994.787 22.8395 994.787 L25.9905 994.787 L25.9905 985.143 L30.542 985.143 L30.542 994.787 L61.6384 994.787 L61.6384 1000.67 L30.542 1000.67 L30.542 1006.28 L25.9905 1006.28 L25.9905 1000.67 L23.5079 1000.67 Q17.5559 1000.67 14.8505 997.906 Q12.1132 995.137 12.1132 989.121 L12.1132 983.583 Z" fill="#000000" fill-rule="nonzero" fill-opacity="1" /><path clip-path="url(#clip060)" d="M25.9905 957.961 L25.9905 952.105 L61.6384 952.105 L61.6384 957.961 L25.9905 957.961 M12.1132 957.961 L12.1132 952.105 L19.5293 952.105 L19.5293 957.961 L12.1132 957.961 Z" fill="#000000" fill-rule="nonzero" fill-opacity="1" /><path clip-path="url(#clip060)" d="M40.1224 910.218 L61.6384 910.218 L61.6384 916.075 L40.3133 916.075 Q35.2526 916.075 32.7381 918.048 Q30.2237 920.021 30.2237 923.968 Q30.2237 928.711 33.2474 931.448 Q36.2711 934.185 41.491 934.185 L61.6384 934.185 L61.6384 940.073 L25.9905 940.073 L25.9905 934.185 L31.5287 934.185 Q28.314 932.084 26.7225 929.252 Q25.1311 926.387 25.1311 922.663 Q25.1311 916.52 28.9505 913.369 Q32.7381 910.218 40.1224 910.218 Z" fill="#000000" fill-rule="nonzero" fill-opacity="1" /><path clip-path="url(#clip060)" d="M12.1132 880.49 L16.983 880.49 L16.983 886.092 Q16.983 889.243 18.2562 890.485 Q19.5293 891.694 22.8395 891.694 L25.9905 891.694 L25.9905 882.05 L30.542 882.05 L30.542 891.694 L61.6384 891.694 L61.6384 897.582 L30.542 897.582 L30.542 903.184 L25.9905 903.184 L25.9905 897.582 L23.5079 897.582 Q17.5559 897.582 14.8505 894.813 Q12.1132 892.044 12.1132 886.029 L12.1132 880.49 Z" fill="#000000" fill-rule="nonzero" fill-opacity="1" /><path clip-path="url(#clip060)" d="M42.3504 845.097 L45.2149 845.097 L45.2149 872.024 Q51.2623 871.642 54.4452 868.396 Q57.5962 865.117 57.5962 859.293 Q57.5962 855.919 56.7687 852.768 Q55.9411 849.585 54.2861 846.466 L59.8242 846.466 Q61.161 849.617 61.8612 852.927 Q62.5615 856.237 62.5615 859.643 Q62.5615 868.173 57.5962 873.17 Q52.631 878.135 44.1646 878.135 Q35.4117 878.135 30.2873 873.424 Q25.1311 868.682 25.1311 860.661 Q25.1311 853.468 29.7781 849.298 Q34.3932 845.097 42.3504 845.097 M40.6316 850.954 Q35.8255 851.017 32.9609 853.659 Q30.0964 856.269 30.0964 860.598 Q30.0964 865.499 32.8654 868.459 Q35.6345 871.387 40.6634 871.833 L40.6316 850.954 Z" fill="#000000" fill-rule="nonzero" fill-opacity="1" /><path clip-path="url(#clip060)" d="M27.3591 809.831 L32.8336 809.831 Q31.465 812.314 30.7966 814.828 Q30.0964 817.311 30.0964 819.857 Q30.0964 825.554 33.7248 828.705 Q37.3214 831.856 43.8463 831.856 Q50.3711 831.856 53.9996 828.705 Q57.5962 825.554 57.5962 819.857 Q57.5962 817.311 56.9278 814.828 Q56.2276 812.314 54.859 809.831 L60.2698 809.831 Q61.4156 812.282 61.9886 814.924 Q62.5615 817.534 62.5615 820.494 Q62.5615 828.546 57.5007 833.289 Q52.44 838.031 43.8463 838.031 Q35.1253 838.031 30.1282 833.257 Q25.1311 828.451 25.1311 820.112 Q25.1311 817.406 25.704 814.828 Q26.2451 812.25 27.3591 809.831 Z" fill="#000000" fill-rule="nonzero" fill-opacity="1" /><path clip-path="url(#clip060)" d="M15.869 793.853 L25.9905 793.853 L25.9905 781.79 L30.542 781.79 L30.542 793.853 L49.8937 793.853 Q54.2542 793.853 55.4955 792.675 Q56.7368 791.466 56.7368 787.806 L56.7368 781.79 L61.6384 781.79 L61.6384 787.806 Q61.6384 794.585 59.124 797.163 Q56.5777 799.741 49.8937 799.741 L30.542 799.741 L30.542 804.038 L25.9905 804.038 L25.9905 799.741 L15.869 799.741 L15.869 793.853 Z" fill="#000000" fill-rule="nonzero" fill-opacity="1" /><path clip-path="url(#clip060)" d="M25.9905 774.088 L25.9905 768.231 L61.6384 768.231 L61.6384 774.088 L25.9905 774.088 M12.1132 774.088 L12.1132 768.231 L19.5293 768.231 L19.5293 774.088 L12.1132 774.088 Z" fill="#000000" fill-rule="nonzero" fill-opacity="1" /><path clip-path="url(#clip060)" d="M30.0964 742.164 Q30.0964 746.874 33.7885 749.611 Q37.4488 752.349 43.8463 752.349 Q50.2438 752.349 53.9359 749.643 Q57.5962 746.906 57.5962 742.164 Q57.5962 737.485 53.9041 734.748 Q50.212 732.01 43.8463 732.01 Q37.5124 732.01 33.8203 734.748 Q30.0964 737.485 30.0964 742.164 M25.1311 742.164 Q25.1311 734.525 30.0964 730.164 Q35.0616 725.804 43.8463 725.804 Q52.5991 725.804 57.5962 730.164 Q62.5615 734.525 62.5615 742.164 Q62.5615 749.834 57.5962 754.195 Q52.5991 758.523 43.8463 758.523 Q35.0616 758.523 30.0964 754.195 Q25.1311 749.834 25.1311 742.164 Z" fill="#000000" fill-rule="nonzero" fill-opacity="1" /><path clip-path="url(#clip060)" d="M40.1224 686.464 L61.6384 686.464 L61.6384 692.32 L40.3133 692.32 Q35.2526 692.32 32.7381 694.293 Q30.2237 696.267 30.2237 700.214 Q30.2237 704.956 33.2474 707.693 Q36.2711 710.431 41.491 710.431 L61.6384 710.431 L61.6384 716.319 L25.9905 716.319 L25.9905 710.431 L31.5287 710.431 Q28.314 708.33 26.7225 705.497 Q25.1311 702.633 25.1311 698.909 Q25.1311 692.766 28.9505 689.615 Q32.7381 686.464 40.1224 686.464 Z" fill="#000000" fill-rule="nonzero" fill-opacity="1" /><path clip-path="url(#clip060)" d="M17.6832 640.026 L61.6384 623.57 L61.6384 629.777 L35.2844 639.771 L61.6384 652.057 L61.6384 658.264 L27.4546 642.636 L21.1525 644.991 Q17.1422 646.487 17.1422 649.893 L17.1422 652.948 L12.1132 652.948 L12.1769 649.224 Q12.2724 642.031 17.6832 640.026 Z" fill="#000000" fill-rule="nonzero" fill-opacity="1" /><path clip-path="url(#clip060)" d="M574.101 18.8205 L574.101 41.5461 L584.39 41.5461 Q590.102 41.5461 593.221 38.5889 Q596.34 35.6318 596.34 30.163 Q596.34 24.7348 593.221 21.7777 Q590.102 18.8205 584.39 18.8205 L574.101 18.8205 M565.918 12.096 L584.39 12.096 Q594.558 12.096 599.743 16.714 Q604.969 21.2916 604.969 30.163 Q604.969 39.1155 599.743 43.6931 Q594.558 48.2706 584.39 48.2706 L574.101 48.2706 L574.101 72.576 L565.918 72.576 L565.918 12.096 Z" fill="#000000" fill-rule="nonzero" fill-opacity="1" /><path clip-path="url(#clip060)" d="M632.515 49.7694 Q623.482 49.7694 619.998 51.8354 Q616.514 53.9013 616.514 58.8839 Q616.514 62.8538 619.107 65.2034 Q621.74 67.5124 626.236 67.5124 Q632.434 67.5124 636.161 63.1374 Q639.928 58.7219 639.928 51.4303 L639.928 49.7694 L632.515 49.7694 M647.382 46.6907 L647.382 72.576 L639.928 72.576 L639.928 65.6895 Q637.376 69.8214 633.568 71.8063 Q629.76 73.7508 624.251 73.7508 Q617.284 73.7508 613.152 69.8619 Q609.06 65.9325 609.06 59.3701 Q609.06 51.7138 614.164 47.825 Q619.309 43.9361 629.477 43.9361 L639.928 43.9361 L639.928 43.2069 Q639.928 38.0623 636.525 35.2672 Q633.163 32.4315 627.046 32.4315 Q623.157 32.4315 619.471 33.3632 Q615.785 34.295 612.382 36.1584 L612.382 29.2718 Q616.473 27.692 620.322 26.9223 Q624.17 26.1121 627.816 26.1121 Q637.66 26.1121 642.521 31.2163 Q647.382 36.3204 647.382 46.6907 Z" fill="#000000" fill-rule="nonzero" fill-opacity="1" /><path clip-path="url(#clip060)" d="M689.025 34.1734 Q687.769 33.4443 686.271 33.1202 Q684.812 32.7556 683.03 32.7556 Q676.71 32.7556 673.308 36.8875 Q669.945 40.9789 669.945 48.6757 L669.945 72.576 L662.451 72.576 L662.451 27.2059 L669.945 27.2059 L669.945 34.2544 Q672.295 30.1225 676.062 28.1376 Q679.83 26.1121 685.217 26.1121 Q685.987 26.1121 686.919 26.2337 Q687.85 26.3147 688.985 26.5172 L689.025 34.1734 Z" fill="#000000" fill-rule="nonzero" fill-opacity="1" /><path clip-path="url(#clip060)" d="M717.462 49.7694 Q708.429 49.7694 704.945 51.8354 Q701.461 53.9013 701.461 58.8839 Q701.461 62.8538 704.054 65.2034 Q706.687 67.5124 711.184 67.5124 Q717.381 67.5124 721.108 63.1374 Q724.876 58.7219 724.876 51.4303 L724.876 49.7694 L717.462 49.7694 M732.329 46.6907 L732.329 72.576 L724.876 72.576 L724.876 65.6895 Q722.324 69.8214 718.516 71.8063 Q714.708 73.7508 709.199 73.7508 Q702.231 73.7508 698.099 69.8619 Q694.008 65.9325 694.008 59.3701 Q694.008 51.7138 699.112 47.825 Q704.257 43.9361 714.424 43.9361 L724.876 43.9361 L724.876 43.2069 Q724.876 38.0623 721.473 35.2672 Q718.111 32.4315 711.994 32.4315 Q708.105 32.4315 704.419 33.3632 Q700.732 34.295 697.329 36.1584 L697.329 29.2718 Q701.421 27.692 705.269 26.9223 Q709.118 26.1121 712.763 26.1121 Q722.607 26.1121 727.468 31.2163 Q732.329 36.3204 732.329 46.6907 Z" fill="#000000" fill-rule="nonzero" fill-opacity="1" /><path clip-path="url(#clip060)" d="M783.006 35.9153 Q785.801 30.8922 789.69 28.5022 Q793.579 26.1121 798.845 26.1121 Q805.934 26.1121 809.783 31.0947 Q813.631 36.0368 813.631 45.1919 L813.631 72.576 L806.137 72.576 L806.137 45.4349 Q806.137 38.913 803.828 35.7533 Q801.519 32.5936 796.779 32.5936 Q790.986 32.5936 787.624 36.4419 Q784.262 40.2903 784.262 46.9338 L784.262 72.576 L776.768 72.576 L776.768 45.4349 Q776.768 38.8725 774.459 35.7533 Q772.15 32.5936 767.329 32.5936 Q761.617 32.5936 758.255 36.4824 Q754.893 40.3308 754.893 46.9338 L754.893 72.576 L747.399 72.576 L747.399 27.2059 L754.893 27.2059 L754.893 34.2544 Q757.445 30.082 761.01 28.0971 Q764.574 26.1121 769.476 26.1121 Q774.418 26.1121 777.861 28.6237 Q781.345 31.1352 783.006 35.9153 Z" fill="#000000" fill-rule="nonzero" fill-opacity="1" /><path clip-path="url(#clip060)" d="M867.305 48.0275 L867.305 51.6733 L833.035 51.6733 Q833.521 59.3701 837.653 63.421 Q841.825 67.4314 849.238 67.4314 Q853.532 67.4314 857.543 66.3781 Q861.594 65.3249 865.564 63.2184 L865.564 70.267 Q861.553 71.9684 857.34 72.8596 Q853.127 73.7508 848.793 73.7508 Q837.936 73.7508 831.576 67.4314 Q825.257 61.1119 825.257 50.3365 Q825.257 39.1965 831.252 32.6746 Q837.288 26.1121 847.497 26.1121 Q856.652 26.1121 861.958 32.0264 Q867.305 37.9003 867.305 48.0275 M859.852 45.84 Q859.771 39.7232 856.408 36.0774 Q853.087 32.4315 847.578 32.4315 Q841.339 32.4315 837.572 35.9558 Q833.845 39.4801 833.278 45.8805 L859.852 45.84 Z" fill="#000000" fill-rule="nonzero" fill-opacity="1" /><path clip-path="url(#clip060)" d="M886.912 14.324 L886.912 27.2059 L902.265 27.2059 L902.265 32.9987 L886.912 32.9987 L886.912 57.6282 Q886.912 63.1779 888.411 64.7578 Q889.95 66.3376 894.609 66.3376 L902.265 66.3376 L902.265 72.576 L894.609 72.576 Q885.98 72.576 882.699 69.3758 Q879.418 66.1351 879.418 57.6282 L879.418 32.9987 L873.949 32.9987 L873.949 27.2059 L879.418 27.2059 L879.418 14.324 L886.912 14.324 Z" fill="#000000" fill-rule="nonzero" fill-opacity="1" /><path clip-path="url(#clip060)" d="M938.358 34.1734 Q937.103 33.4443 935.604 33.1202 Q934.145 32.7556 932.363 32.7556 Q926.044 32.7556 922.641 36.8875 Q919.279 40.9789 919.279 48.6757 L919.279 72.576 L911.784 72.576 L911.784 27.2059 L919.279 27.2059 L919.279 34.2544 Q921.628 30.1225 925.395 28.1376 Q929.163 26.1121 934.55 26.1121 Q935.32 26.1121 936.252 26.2337 Q937.184 26.3147 938.318 26.5172 L938.358 34.1734 Z" fill="#000000" fill-rule="nonzero" fill-opacity="1" /><path clip-path="url(#clip060)" d="M946.177 27.2059 L953.63 27.2059 L953.63 72.576 L946.177 72.576 L946.177 27.2059 M946.177 9.54393 L953.63 9.54393 L953.63 18.9825 L946.177 18.9825 L946.177 9.54393 Z" fill="#000000" fill-rule="nonzero" fill-opacity="1" /><path clip-path="url(#clip060)" d="M1001.88 28.9478 L1001.88 35.9153 Q998.717 34.1734 995.517 33.3227 Q992.357 32.4315 989.116 32.4315 Q981.865 32.4315 977.855 37.0496 Q973.844 41.6271 973.844 49.9314 Q973.844 58.2358 977.855 62.8538 Q981.865 67.4314 989.116 67.4314 Q992.357 67.4314 995.517 66.5807 Q998.717 65.6895 1001.88 63.9476 L1001.88 70.8341 Q998.757 72.2924 995.395 73.0216 Q992.073 73.7508 988.306 73.7508 Q978.057 73.7508 972.021 67.3098 Q965.985 60.8689 965.985 49.9314 Q965.985 38.832 972.062 32.472 Q978.179 26.1121 988.792 26.1121 Q992.235 26.1121 995.517 26.8413 Q998.798 27.5299 1001.88 28.9478 Z" fill="#000000" fill-rule="nonzero" fill-opacity="1" /><path clip-path="url(#clip060)" d="M1073.78 49.9314 Q1073.78 41.7081 1070.38 37.0496 Q1067.02 32.3505 1061.1 32.3505 Q1055.19 32.3505 1051.78 37.0496 Q1048.42 41.7081 1048.42 49.9314 Q1048.42 58.1548 1051.78 62.8538 Q1055.19 67.5124 1061.1 67.5124 Q1067.02 67.5124 1070.38 62.8538 Q1073.78 58.1548 1073.78 49.9314 M1048.42 34.0924 Q1050.77 30.0415 1054.34 28.0971 Q1057.94 26.1121 1062.92 26.1121 Q1071.19 26.1121 1076.33 32.6746 Q1081.52 39.2371 1081.52 49.9314 Q1081.52 60.6258 1076.33 67.1883 Q1071.19 73.7508 1062.92 73.7508 Q1057.94 73.7508 1054.34 71.8063 Q1050.77 69.8214 1048.42 65.7705 L1048.42 72.576 L1040.93 72.576 L1040.93 9.54393 L1048.42 9.54393 L1048.42 34.0924 Z" fill="#000000" fill-rule="nonzero" fill-opacity="1" /><path clip-path="url(#clip060)" d="M1111.45 32.4315 Q1105.46 32.4315 1101.97 37.1306 Q1098.49 41.7891 1098.49 49.9314 Q1098.49 58.0738 1101.93 62.7728 Q1105.42 67.4314 1111.45 67.4314 Q1117.41 67.4314 1120.89 62.7323 Q1124.38 58.0333 1124.38 49.9314 Q1124.38 41.8701 1120.89 37.1711 Q1117.41 32.4315 1111.45 32.4315 M1111.45 26.1121 Q1121.18 26.1121 1126.73 32.4315 Q1132.28 38.7509 1132.28 49.9314 Q1132.28 61.0714 1126.73 67.4314 Q1121.18 73.7508 1111.45 73.7508 Q1101.69 73.7508 1096.14 67.4314 Q1090.63 61.0714 1090.63 49.9314 Q1090.63 38.7509 1096.14 32.4315 Q1101.69 26.1121 1111.45 26.1121 Z" fill="#000000" fill-rule="nonzero" fill-opacity="1" /><path clip-path="url(#clip060)" d="M1162.21 32.4315 Q1156.22 32.4315 1152.73 37.1306 Q1149.25 41.7891 1149.25 49.9314 Q1149.25 58.0738 1152.69 62.7728 Q1156.18 67.4314 1162.21 67.4314 Q1168.17 67.4314 1171.65 62.7323 Q1175.13 58.0333 1175.13 49.9314 Q1175.13 41.8701 1171.65 37.1711 Q1168.17 32.4315 1162.21 32.4315 M1162.21 26.1121 Q1171.93 26.1121 1177.48 32.4315 Q1183.03 38.7509 1183.03 49.9314 Q1183.03 61.0714 1177.48 67.4314 Q1171.93 73.7508 1162.21 73.7508 Q1152.45 73.7508 1146.9 67.4314 Q1141.39 61.0714 1141.39 49.9314 Q1141.39 38.7509 1146.9 32.4315 Q1152.45 26.1121 1162.21 26.1121 Z" fill="#000000" fill-rule="nonzero" fill-opacity="1" /><path clip-path="url(#clip060)" d="M1202.76 14.324 L1202.76 27.2059 L1218.11 27.2059 L1218.11 32.9987 L1202.76 32.9987 L1202.76 57.6282 Q1202.76 63.1779 1204.26 64.7578 Q1205.8 66.3376 1210.46 66.3376 L1218.11 66.3376 L1218.11 72.576 L1210.46 72.576 Q1201.83 72.576 1198.55 69.3758 Q1195.27 66.1351 1195.27 57.6282 L1195.27 32.9987 L1189.8 32.9987 L1189.8 27.2059 L1195.27 27.2059 L1195.27 14.324 L1202.76 14.324 Z" fill="#000000" fill-rule="nonzero" fill-opacity="1" /><path clip-path="url(#clip060)" d="M1256.84 28.5427 L1256.84 35.5912 Q1253.68 33.9709 1250.28 33.1607 Q1246.88 32.3505 1243.23 32.3505 Q1237.68 32.3505 1234.88 34.0519 Q1232.13 35.7533 1232.13 39.156 Q1232.13 41.7486 1234.11 43.2475 Q1236.1 44.7058 1242.1 46.0426 L1244.65 46.6097 Q1252.59 48.3111 1255.91 51.4303 Q1259.27 54.509 1259.27 60.0587 Q1259.27 66.3781 1254.25 70.0644 Q1249.27 73.7508 1240.52 73.7508 Q1236.87 73.7508 1232.9 73.0216 Q1228.97 72.3329 1224.6 70.9151 L1224.6 63.2184 Q1228.73 65.3654 1232.74 66.4591 Q1236.75 67.5124 1240.68 67.5124 Q1245.94 67.5124 1248.78 65.73 Q1251.61 63.9071 1251.61 60.6258 Q1251.61 57.5877 1249.55 55.9673 Q1247.52 54.3469 1240.6 52.8481 L1238 52.2405 Q1231.08 50.7821 1228 47.7845 Q1224.92 44.7463 1224.92 39.4801 Q1224.92 33.0797 1229.46 29.5959 Q1233.99 26.1121 1242.34 26.1121 Q1246.47 26.1121 1250.12 26.7198 Q1253.76 27.3274 1256.84 28.5427 Z" fill="#000000" fill-rule="nonzero" fill-opacity="1" /><path clip-path="url(#clip060)" d="M1278.51 14.324 L1278.51 27.2059 L1293.87 27.2059 L1293.87 32.9987 L1278.51 32.9987 L1278.51 57.6282 Q1278.51 63.1779 1280.01 64.7578 Q1281.55 66.3376 1286.21 66.3376 L1293.87 66.3376 L1293.87 72.576 L1286.21 72.576 Q1277.58 72.576 1274.3 69.3758 Q1271.02 66.1351 1271.02 57.6282 L1271.02 32.9987 L1265.55 32.9987 L1265.55 27.2059 L1271.02 27.2059 L1271.02 14.324 L1278.51 14.324 Z" fill="#000000" fill-rule="nonzero" fill-opacity="1" /><path clip-path="url(#clip060)" d="M1329.96 34.1734 Q1328.7 33.4443 1327.2 33.1202 Q1325.75 32.7556 1323.96 32.7556 Q1317.64 32.7556 1314.24 36.8875 Q1310.88 40.9789 1310.88 48.6757 L1310.88 72.576 L1303.39 72.576 L1303.39 27.2059 L1310.88 27.2059 L1310.88 34.2544 Q1313.23 30.1225 1317 28.1376 Q1320.76 26.1121 1326.15 26.1121 Q1326.92 26.1121 1327.85 26.2337 Q1328.78 26.3147 1329.92 26.5172 L1329.96 34.1734 Z" fill="#000000" fill-rule="nonzero" fill-opacity="1" /><path clip-path="url(#clip060)" d="M1358.4 49.7694 Q1349.36 49.7694 1345.88 51.8354 Q1342.4 53.9013 1342.4 58.8839 Q1342.4 62.8538 1344.99 65.2034 Q1347.62 67.5124 1352.12 67.5124 Q1358.32 67.5124 1362.04 63.1374 Q1365.81 58.7219 1365.81 51.4303 L1365.81 49.7694 L1358.4 49.7694 M1373.26 46.6907 L1373.26 72.576 L1365.81 72.576 L1365.81 65.6895 Q1363.26 69.8214 1359.45 71.8063 Q1355.64 73.7508 1350.13 73.7508 Q1343.17 73.7508 1339.03 69.8619 Q1334.94 65.9325 1334.94 59.3701 Q1334.94 51.7138 1340.05 47.825 Q1345.19 43.9361 1355.36 43.9361 L1365.81 43.9361 L1365.81 43.2069 Q1365.81 38.0623 1362.41 35.2672 Q1359.04 32.4315 1352.93 32.4315 Q1349.04 32.4315 1345.35 33.3632 Q1341.67 34.295 1338.26 36.1584 L1338.26 29.2718 Q1342.35 27.692 1346.2 26.9223 Q1350.05 26.1121 1353.7 26.1121 Q1363.54 26.1121 1368.4 31.2163 Q1373.26 36.3204 1373.26 46.6907 Z" fill="#000000" fill-rule="nonzero" fill-opacity="1" /><path clip-path="url(#clip060)" d="M1395.83 65.7705 L1395.83 89.8329 L1388.33 89.8329 L1388.33 27.2059 L1395.83 27.2059 L1395.83 34.0924 Q1398.18 30.0415 1401.74 28.0971 Q1405.35 26.1121 1410.33 26.1121 Q1418.59 26.1121 1423.74 32.6746 Q1428.92 39.2371 1428.92 49.9314 Q1428.92 60.6258 1423.74 67.1883 Q1418.59 73.7508 1410.33 73.7508 Q1405.35 73.7508 1401.74 71.8063 Q1398.18 69.8214 1395.83 65.7705 M1421.19 49.9314 Q1421.19 41.7081 1417.78 37.0496 Q1414.42 32.3505 1408.51 32.3505 Q1402.59 32.3505 1399.19 37.0496 Q1395.83 41.7081 1395.83 49.9314 Q1395.83 58.1548 1399.19 62.8538 Q1402.59 67.5124 1408.51 67.5124 Q1414.42 67.5124 1417.78 62.8538 Q1421.19 58.1548 1421.19 49.9314 Z" fill="#000000" fill-rule="nonzero" fill-opacity="1" /><path clip-path="url(#clip060)" d="M1443.18 62.2867 L1451.73 62.2867 L1451.73 72.576 L1443.18 72.576 L1443.18 62.2867 M1443.18 29.6769 L1451.73 29.6769 L1451.73 39.9662 L1443.18 39.9662 L1443.18 29.6769 Z" fill="#000000" fill-rule="nonzero" fill-opacity="1" /><path clip-path="url(#clip060)" d="M1494.83 54.671 L1494.83 27.2059 L1502.28 27.2059 L1502.28 54.3874 Q1502.28 60.8284 1504.8 64.0691 Q1507.31 67.2693 1512.33 67.2693 Q1518.37 67.2693 1521.85 63.421 Q1525.37 59.5726 1525.37 52.9291 L1525.37 27.2059 L1532.83 27.2059 L1532.83 72.576 L1525.37 72.576 L1525.37 65.6084 Q1522.66 69.7404 1519.06 71.7658 Q1515.49 73.7508 1510.75 73.7508 Q1502.93 73.7508 1498.88 68.8897 Q1494.83 64.0286 1494.83 54.671 M1513.59 26.1121 L1513.59 26.1121 Z" fill="#000000" fill-rule="nonzero" fill-opacity="1" /><path clip-path="url(#clip060)" d="M1585.9 45.1919 L1585.9 72.576 L1578.44 72.576 L1578.44 45.4349 Q1578.44 38.994 1575.93 35.7938 Q1573.42 32.5936 1568.4 32.5936 Q1562.36 32.5936 1558.88 36.4419 Q1555.39 40.2903 1555.39 46.9338 L1555.39 72.576 L1547.9 72.576 L1547.9 27.2059 L1555.39 27.2059 L1555.39 34.2544 Q1558.07 30.163 1561.67 28.1376 Q1565.32 26.1121 1570.06 26.1121 Q1577.87 26.1121 1581.88 30.9732 Q1585.9 35.7938 1585.9 45.1919 Z" fill="#000000" fill-rule="nonzero" fill-opacity="1" /><path clip-path="url(#clip060)" d="M1600.48 9.54393 L1607.97 9.54393 L1607.97 46.7717 L1630.21 27.2059 L1639.73 27.2059 L1615.67 48.4326 L1640.74 72.576 L1631.02 72.576 L1607.97 50.4176 L1607.97 72.576 L1600.48 72.576 L1600.48 9.54393 Z" fill="#000000" fill-rule="nonzero" fill-opacity="1" /><path clip-path="url(#clip060)" d="M1686.52 45.1919 L1686.52 72.576 L1679.07 72.576 L1679.07 45.4349 Q1679.07 38.994 1676.55 35.7938 Q1674.04 32.5936 1669.02 32.5936 Q1662.98 32.5936 1659.5 36.4419 Q1656.02 40.2903 1656.02 46.9338 L1656.02 72.576 L1648.52 72.576 L1648.52 27.2059 L1656.02 27.2059 L1656.02 34.2544 Q1658.69 30.163 1662.3 28.1376 Q1665.94 26.1121 1670.68 26.1121 Q1678.5 26.1121 1682.51 30.9732 Q1686.52 35.7938 1686.52 45.1919 Z" fill="#000000" fill-rule="nonzero" fill-opacity="1" /><path clip-path="url(#clip060)" d="M1718.97 32.4315 Q1712.97 32.4315 1709.49 37.1306 Q1706 41.7891 1706 49.9314 Q1706 58.0738 1709.45 62.7728 Q1712.93 67.4314 1718.97 67.4314 Q1724.92 67.4314 1728.41 62.7323 Q1731.89 58.0333 1731.89 49.9314 Q1731.89 41.8701 1728.41 37.1711 Q1724.92 32.4315 1718.97 32.4315 M1718.97 26.1121 Q1728.69 26.1121 1734.24 32.4315 Q1739.79 38.7509 1739.79 49.9314 Q1739.79 61.0714 1734.24 67.4314 Q1728.69 73.7508 1718.97 73.7508 Q1709.2 73.7508 1703.66 67.4314 Q1698.15 61.0714 1698.15 49.9314 Q1698.15 38.7509 1703.66 32.4315 Q1709.2 26.1121 1718.97 26.1121 Z" fill="#000000" fill-rule="nonzero" fill-opacity="1" /><path clip-path="url(#clip060)" d="M1747.81 27.2059 L1755.26 27.2059 L1764.58 62.6108 L1773.86 27.2059 L1782.65 27.2059 L1791.96 62.6108 L1801.24 27.2059 L1808.7 27.2059 L1796.83 72.576 L1788.04 72.576 L1778.27 35.3887 L1768.47 72.576 L1759.68 72.576 L1747.81 27.2059 Z" fill="#000000" fill-rule="nonzero" fill-opacity="1" /><path clip-path="url(#clip060)" d="M1857.71 45.1919 L1857.71 72.576 L1850.26 72.576 L1850.26 45.4349 Q1850.26 38.994 1847.75 35.7938 Q1845.23 32.5936 1840.21 32.5936 Q1834.18 32.5936 1830.69 36.4419 Q1827.21 40.2903 1827.21 46.9338 L1827.21 72.576 L1819.71 72.576 L1819.71 27.2059 L1827.21 27.2059 L1827.21 34.2544 Q1829.88 30.163 1833.49 28.1376 Q1837.13 26.1121 1841.87 26.1121 Q1849.69 26.1121 1853.7 30.9732 Q1857.71 35.7938 1857.71 45.1919 Z" fill="#000000" fill-rule="nonzero" fill-opacity="1" /><path clip-path="url(#clip060)" d="M1921.92 9.54393 L1921.92 15.7418 L1914.79 15.7418 Q1910.78 15.7418 1909.2 17.3622 Q1907.66 18.9825 1907.66 23.1955 L1907.66 27.2059 L1919.93 27.2059 L1919.93 32.9987 L1907.66 32.9987 L1907.66 72.576 L1900.16 72.576 L1900.16 32.9987 L1893.03 32.9987 L1893.03 27.2059 L1900.16 27.2059 L1900.16 24.0462 Q1900.16 16.471 1903.69 13.0277 Q1907.21 9.54393 1914.87 9.54393 L1921.92 9.54393 Z" fill="#000000" fill-rule="nonzero" fill-opacity="1" /><path clip-path="url(#clip060)" d="M1927.39 54.671 L1927.39 27.2059 L1934.84 27.2059 L1934.84 54.3874 Q1934.84 60.8284 1937.35 64.0691 Q1939.86 67.2693 1944.89 67.2693 Q1950.92 67.2693 1954.41 63.421 Q1957.93 59.5726 1957.93 52.9291 L1957.93 27.2059 L1965.38 27.2059 L1965.38 72.576 L1957.93 72.576 L1957.93 65.6084 Q1955.22 69.7404 1951.61 71.7658 Q1948.05 73.7508 1943.31 73.7508 Q1935.49 73.7508 1931.44 68.8897 Q1927.39 64.0286 1927.39 54.671 M1946.14 26.1121 L1946.14 26.1121 Z" fill="#000000" fill-rule="nonzero" fill-opacity="1" /><path clip-path="url(#clip060)" d="M2018.45 45.1919 L2018.45 72.576 L2011 72.576 L2011 45.4349 Q2011 38.994 2008.49 35.7938 Q2005.97 32.5936 2000.95 32.5936 Q1994.92 32.5936 1991.43 36.4419 Q1987.95 40.2903 1987.95 46.9338 L1987.95 72.576 L1980.45 72.576 L1980.45 27.2059 L1987.95 27.2059 L1987.95 34.2544 Q1990.62 30.163 1994.23 28.1376 Q1997.87 26.1121 2002.61 26.1121 Q2010.43 26.1121 2014.44 30.9732 Q2018.45 35.7938 2018.45 45.1919 Z" fill="#000000" fill-rule="nonzero" fill-opacity="1" /><path clip-path="url(#clip060)" d="M2065.97 28.9478 L2065.97 35.9153 Q2062.81 34.1734 2059.61 33.3227 Q2056.45 32.4315 2053.21 32.4315 Q2045.96 32.4315 2041.95 37.0496 Q2037.94 41.6271 2037.94 49.9314 Q2037.94 58.2358 2041.95 62.8538 Q2045.96 67.4314 2053.21 67.4314 Q2056.45 67.4314 2059.61 66.5807 Q2062.81 65.6895 2065.97 63.9476 L2065.97 70.8341 Q2062.85 72.2924 2059.49 73.0216 Q2056.16 73.7508 2052.4 73.7508 Q2042.15 73.7508 2036.11 67.3098 Q2030.08 60.8689 2030.08 49.9314 Q2030.08 38.832 2036.15 32.472 Q2042.27 26.1121 2052.88 26.1121 Q2056.33 26.1121 2059.61 26.8413 Q2062.89 27.5299 2065.97 28.9478 Z" fill="#000000" fill-rule="nonzero" fill-opacity="1" /><path clip-path="url(#clip060)" d="M2086.3 14.324 L2086.3 27.2059 L2101.66 27.2059 L2101.66 32.9987 L2086.3 32.9987 L2086.3 57.6282 Q2086.3 63.1779 2087.8 64.7578 Q2089.34 66.3376 2094 66.3376 L2101.66 66.3376 L2101.66 72.576 L2094 72.576 Q2085.37 72.576 2082.09 69.3758 Q2078.81 66.1351 2078.81 57.6282 L2078.81 32.9987 L2073.34 32.9987 L2073.34 27.2059 L2078.81 27.2059 L2078.81 14.324 L2086.3 14.324 Z" fill="#000000" fill-rule="nonzero" fill-opacity="1" /><path clip-path="url(#clip060)" d="M2111.46 27.2059 L2118.91 27.2059 L2118.91 72.576 L2111.46 72.576 L2111.46 27.2059 M2111.46 9.54393 L2118.91 9.54393 L2118.91 18.9825 L2111.46 18.9825 L2111.46 9.54393 Z" fill="#000000" fill-rule="nonzero" fill-opacity="1" /><path clip-path="url(#clip060)" d="M2152.09 32.4315 Q2146.09 32.4315 2142.61 37.1306 Q2139.13 41.7891 2139.13 49.9314 Q2139.13 58.0738 2142.57 62.7728 Q2146.05 67.4314 2152.09 67.4314 Q2158.05 67.4314 2161.53 62.7323 Q2165.01 58.0333 2165.01 49.9314 Q2165.01 41.8701 2161.53 37.1711 Q2158.05 32.4315 2152.09 32.4315 M2152.09 26.1121 Q2161.81 26.1121 2167.36 32.4315 Q2172.91 38.7509 2172.91 49.9314 Q2172.91 61.0714 2167.36 67.4314 Q2161.81 73.7508 2152.09 73.7508 Q2142.33 73.7508 2136.78 67.4314 Q2131.27 61.0714 2131.27 49.9314 Q2131.27 38.7509 2136.78 32.4315 Q2142.33 26.1121 2152.09 26.1121 Z" fill="#000000" fill-rule="nonzero" fill-opacity="1" /><path clip-path="url(#clip060)" d="M2222.98 45.1919 L2222.98 72.576 L2215.53 72.576 L2215.53 45.4349 Q2215.53 38.994 2213.02 35.7938 Q2210.5 32.5936 2205.48 32.5936 Q2199.45 32.5936 2195.96 36.4419 Q2192.48 40.2903 2192.48 46.9338 L2192.48 72.576 L2184.98 72.576 L2184.98 27.2059 L2192.48 27.2059 L2192.48 34.2544 Q2195.15 30.163 2198.76 28.1376 Q2202.4 26.1121 2207.14 26.1121 Q2214.96 26.1121 2218.97 30.9732 Q2222.98 35.7938 2222.98 45.1919 Z" fill="#000000" fill-rule="nonzero" fill-opacity="1" /><path clip-path="url(#clip060)" d="M2309.83 16.7545 L2309.83 25.383 Q2305.7 21.5346 2301 19.6307 Q2296.34 17.7268 2291.08 17.7268 Q2280.71 17.7268 2275.2 24.0867 Q2269.69 30.4061 2269.69 42.3968 Q2269.69 54.3469 2275.2 60.7069 Q2280.71 67.0263 2291.08 67.0263 Q2296.34 67.0263 2301 65.1223 Q2305.7 63.2184 2309.83 59.3701 L2309.83 67.9175 Q2305.54 70.8341 2300.72 72.2924 Q2295.94 73.7508 2290.59 73.7508 Q2276.86 73.7508 2268.96 65.3654 Q2261.06 56.9395 2261.06 42.3968 Q2261.06 27.8135 2268.96 19.4281 Q2276.86 11.0023 2290.59 11.0023 Q2296.02 11.0023 2300.8 12.4606 Q2305.62 13.8784 2309.83 16.7545 Z" fill="#000000" fill-rule="nonzero" fill-opacity="1" /><path clip-path="url(#clip060)" d="M2322.47 12.096 L2330.65 12.096 L2330.65 72.576 L2322.47 72.576 L2322.47 12.096 Z" fill="#000000" fill-rule="nonzero" fill-opacity="1" /><polyline clip-path="url(#clip061)" style="stroke:#000000; stroke-linecap:round; stroke-linejoin:round; stroke-width:8; stroke-opacity:1; fill:none" stroke-dasharray="32, 20" points="364.674,1688.65 375.954,1679.12 387.233,1669.78 398.513,1660.62 409.793,1651.58 421.073,1642.67 432.353,1633.86 443.632,1625.14 454.912,1616.5 466.192,1607.93 477.472,1599.43 488.752,1590.99 500.031,1582.62 511.311,1574.29 522.591,1566.01 533.871,1557.79 545.151,1549.6 556.43,1541.46 567.71,1533.35 578.99,1525.28 590.27,1517.25 601.55,1509.26 612.829,1501.29 624.109,1493.36 635.389,1485.45 646.669,1477.58 657.949,1469.73 669.228,1461.9 680.508,1454.11 691.788,1446.34 703.068,1438.59 714.347,1430.86 725.627,1423.16 736.907,1415.48 748.187,1407.82 759.467,1400.18 770.746,1392.56 782.026,1384.95 793.306,1377.37 804.586,1369.81 815.866,1362.26 827.145,1354.73 838.425,1347.22 849.705,1339.72 860.985,1332.24 872.265,1324.78 883.544,1317.33 894.824,1309.89 906.104,1302.47 917.384,1295.07 928.664,1287.68 939.943,1280.3 951.223,1272.94 962.503,1265.59 973.783,1258.25 985.063,1250.92 996.342,1243.61 1007.62,1236.31 1018.9,1229.02 1030.18,1221.75 1041.46,1214.48 1052.74,1207.23 1064.02,1199.98 1075.3,1192.75 1086.58,1185.53 1097.86,1178.32 1109.14,1171.12 1120.42,1163.93 1131.7,1156.76 1142.98,1149.59 1154.26,1142.43 1165.54,1135.28 1176.82,1128.14 1188.1,1121.01 1199.38,1113.89 1210.66,1106.78 1221.94,1099.67 1233.22,1092.58 1244.5,1085.5 1255.78,1078.42 1267.06,1071.35 1278.34,1064.29 1289.62,1057.24 1300.9,1050.2 1312.18,1043.16 1323.46,1036.14 1334.74,1029.12 1346.02,1022.11 1357.3,1015.1 1368.58,1008.11 1379.86,1001.12 1391.14,994.14 1402.41,987.167 1413.69,980.201 1424.97,973.242 1436.25,966.291 1447.53,959.346 1458.81,952.409 1470.09,945.478 1481.37,938.554 "/>
<path clip-path="url(#clip061)" d="M323.315 1642.91 L346.041 1635.15 L368.768 1627.11 L391.495 1618.93 L414.221 1610.73 L436.948 1602.17 L459.675 1593.48 L482.401 1584.42 L505.128 1574.94 L527.855 1565 L550.582 1554.58 L573.308 1543.3 L596.035 1531.78 L618.762 1519.66 L641.488 1506.89 L664.215 1493.74 L686.942 1481.67 L709.668 1469.33 L732.395 1456.7 L755.122 1445.28 L777.849 1433.92 L800.575 1422.46 L823.302 1410.7 L846.029 1398.63 L868.755 1386.15 L891.482 1373.23 L914.209 1359.83 L936.935 1346.01 L959.662 1331.81 L982.389 1317.09 L1005.12 1302.09 L1027.84 1287.92 L1050.57 1273.87 L1073.3 1260.02 L1096.02 1245.97 L1118.75 1231.74 L1141.48 1217.34 L1164.2 1202.77 L1186.93 1187.98 L1209.66 1172.09 L1232.38 1156.96 L1255.11 1141.7 L1277.84 1126.32 L1300.56 1110.83 L1323.29 1095.14 L1346.02 1079.28 L1368.74 1063.35 L1391.47 1047.35 L1414.2 1031.57 L1436.92 1015.89 L1459.65 1000.27 L1482.38 984.733 L1505.1 969.153 L1527.83 953.526 L1550.56 937.854 L1573.28 922.136 L1596.01 907.097 L1618.74 892.236 L1641.46 876.625 L1664.19 860.707 L1686.92 844.793 L1709.64 828.882 L1732.37 813.508 L1755.1 798.241 L1777.82 783.566 L1800.55 769.232 L1823.28 754.714 L1846 740.142 L1868.73 725.478 L1891.46 711.267 L1914.18 695.815 L1936.91 680.09 L1959.64 664.089 L1982.36 647.851 L2005.09 631.703 L2027.82 616.023 L2050.54 603.945 L2073.27 592.141 L2096 580.497 L2118.72 568.886 L2141.45 557.306 L2164.18 545.752 L2186.9 534.22 L2209.63 522.705 L2232.36 511.202 L2255.08 499.709 L2277.81 488.22 L2300.54 476.736 L2323.26 465.256 L2345.99 453.78 L2368.72 442.307 L2391.44 430.838 L2414.17 419.371 L2436.9 407.906 L2459.62 396.444 L2482.35 384.983 L2505.08 373.524 L2527.8 362.066 L2550.53 350.608 L2573.26 339.151 L2573.26 173.254 L2550.53 189.833 L2527.8 206.411 L2505.08 222.986 L2482.35 239.556 L2459.62 256.121 L2436.9 272.679 L2414.17 289.228 L2391.44 305.767 L2368.72 322.295 L2345.99 338.81 L2323.26 355.31 L2300.54 371.795 L2277.81 387.792 L2255.08 403.615 L2232.36 419.588 L2209.63 436.381 L2186.9 453.162 L2164.18 469.928 L2141.45 486.674 L2118.72 503.235 L2096 518.467 L2073.27 533.724 L2050.54 548.596 L2027.82 563.474 L2005.09 578.407 L1982.36 594.152 L1959.64 609.889 L1936.91 625.302 L1914.18 640.514 L1891.46 654.861 L1868.73 668.751 L1846 684.076 L1823.28 699.094 L1800.55 713.892 L1777.82 727.589 L1755.1 741.087 L1732.37 754.677 L1709.64 768.449 L1686.92 782.41 L1664.19 796.567 L1641.46 810.928 L1618.74 825.447 L1596.01 840.13 L1573.28 855.032 L1550.56 870.148 L1527.83 885.473 L1505.1 900.751 L1482.38 915.947 L1459.65 931.252 L1436.92 946.728 L1414.2 962.132 L1391.47 977.241 L1368.74 992.084 L1346.02 1006.57 L1323.29 1020.92 L1300.56 1035.64 L1277.84 1050.74 L1255.11 1066.01 L1232.38 1081.32 L1209.66 1096.92 L1186.93 1112.8 L1164.2 1128.92 L1141.48 1145.27 L1118.75 1161.83 L1096.02 1178.58 L1073.3 1195.65 L1050.57 1212.38 L1027.84 1229.2 L1005.12 1246.1 L982.389 1263.08 L959.662 1280.04 L936.935 1297.06 L914.209 1314.55 L891.482 1332.01 L868.755 1349.29 L846.029 1366.35 L823.302 1383.22 L800.575 1399.85 L777.849 1413.38 L755.122 1425.05 L732.395 1439.81 L709.668 1453.76 L686.942 1465.45 L664.215 1476.79 L641.488 1487.61 L618.762 1498.24 L596.035 1508.48 L573.308 1518.27 L550.582 1527.85 L527.855 1537.24 L505.128 1546.5 L482.401 1555.62 L459.675 1564.62 L436.948 1573.49 L414.221 1582.24 L391.495 1590.83 L368.768 1599.31 L346.041 1607.71 L323.315 1616.02  Z" fill="#ff0000" fill-rule="evenodd" fill-opacity="0.2"/>
<polyline clip-path="url(#clip061)" style="stroke:#ff0000; stroke-linecap:round; stroke-linejoin:round; stroke-width:0; stroke-opacity:1; fill:none" stroke-dasharray="1, 2" points="323.315,1642.91 346.041,1635.15 368.768,1627.11 391.495,1618.93 414.221,1610.73 436.948,1602.17 459.675,1593.48 482.401,1584.42 505.128,1574.94 527.855,1565 550.582,1554.58 573.308,1543.3 596.035,1531.78 618.762,1519.66 641.488,1506.89 664.215,1493.74 686.942,1481.67 709.668,1469.33 732.395,1456.7 755.122,1445.28 777.849,1433.92 800.575,1422.46 823.302,1410.7 846.029,1398.63 868.755,1386.15 891.482,1373.23 914.209,1359.83 936.935,1346.01 959.662,1331.81 982.389,1317.09 1005.12,1302.09 1027.84,1287.92 1050.57,1273.87 1073.3,1260.02 1096.02,1245.97 1118.75,1231.74 1141.48,1217.34 1164.2,1202.77 1186.93,1187.98 1209.66,1172.09 1232.38,1156.96 1255.11,1141.7 1277.84,1126.32 1300.56,1110.83 1323.29,1095.14 1346.02,1079.28 1368.74,1063.35 1391.47,1047.35 1414.2,1031.57 1436.92,1015.89 1459.65,1000.27 1482.38,984.733 1505.1,969.153 1527.83,953.526 1550.56,937.854 1573.28,922.136 1596.01,907.097 1618.74,892.236 1641.46,876.625 1664.19,860.707 1686.92,844.793 1709.64,828.882 1732.37,813.508 1755.1,798.241 1777.82,783.566 1800.55,769.232 1823.28,754.714 1846,740.142 1868.73,725.478 1891.46,711.267 1914.18,695.815 1936.91,680.09 1959.64,664.089 1982.36,647.851 2005.09,631.703 2027.82,616.023 2050.54,603.945 2073.27,592.141 2096,580.497 2118.72,568.886 2141.45,557.306 2164.18,545.752 2186.9,534.22 2209.63,522.705 2232.36,511.202 2255.08,499.709 2277.81,488.22 2300.54,476.736 2323.26,465.256 2345.99,453.78 2368.72,442.307 2391.44,430.838 2414.17,419.371 2436.9,407.906 2459.62,396.444 2482.35,384.983 2505.08,373.524 2527.8,362.066 2550.53,350.608 2573.26,339.151 "/>
<polyline clip-path="url(#clip061)" style="stroke:#ff0000; stroke-linecap:round; stroke-linejoin:round; stroke-width:8; stroke-opacity:1; fill:none" points="364.674,1628.05 375.954,1624.2 387.233,1620.27 398.513,1616.27 409.793,1612.18 421.073,1608 432.353,1603.74 443.632,1599.38 454.912,1594.92 466.192,1590.36 477.472,1585.69 488.752,1580.91 500.031,1576.02 511.311,1571.01 522.591,1565.89 533.871,1560.63 545.151,1555.25 556.43,1549.74 567.71,1544.09 578.99,1538.3 590.27,1532.37 601.55,1526.28 612.829,1520.05 624.109,1513.66 635.389,1507.12 646.669,1500.41 657.949,1493.53 669.228,1486.5 680.508,1479.32 691.788,1472.01 703.068,1464.55 714.347,1456.98 725.627,1449.29 736.907,1441.5 748.187,1433.6 759.467,1425.61 770.746,1417.54 782.026,1409.4 793.306,1401.19 804.586,1392.92 815.866,1384.61 827.145,1376.25 838.425,1367.85 849.705,1359.43 860.985,1351 872.265,1342.55 883.544,1334.11 894.824,1325.67 906.104,1317.25 917.384,1308.85 928.664,1300.48 939.943,1292.16 951.223,1283.88 962.503,1275.66 973.783,1267.5 985.063,1259.41 996.342,1251.39 1007.62,1243.43 1018.9,1235.53 1030.18,1227.69 1041.46,1219.92 1052.74,1212.21 1064.02,1204.55 1075.3,1196.95 1086.58,1189.41 1097.86,1181.93 1109.14,1174.5 1120.42,1167.12 1131.7,1159.79 1142.98,1152.52 1154.26,1145.29 1165.54,1138.12 1176.82,1130.99 1188.1,1123.91 1199.38,1116.87 1210.66,1109.88 1221.94,1102.93 1233.22,1096.02 1244.5,1089.15 1255.78,1082.33 1267.06,1075.54 1278.34,1068.79 1289.62,1062.07 1300.9,1055.39 1312.18,1048.74 1323.46,1042.13 1334.74,1035.54 1346.02,1028.97 1357.3,1022.43 1368.58,1015.91 1379.86,1009.41 1391.14,1002.92 1402.41,996.451 1413.69,989.989 1424.97,983.536 1436.25,977.089 1447.53,970.646 1458.81,964.204 1470.09,957.762 1481.37,951.316 "/>
<path clip-path="url(#clip060)" d="M335.314 388.696 L950.103 388.696 L950.103 181.336 L335.314 181.336  Z" fill="#ffffff" fill-rule="evenodd" fill-opacity="1"/>
<polyline clip-path="url(#clip060)" style="stroke:#000000; stroke-linecap:round; stroke-linejoin:round; stroke-width:4; stroke-opacity:1; fill:none" points="335.314,388.696 950.103,388.696 950.103,181.336 335.314,181.336 335.314,388.696 "/>
<polyline clip-path="url(#clip060)" style="stroke:#000000; stroke-linecap:round; stroke-linejoin:round; stroke-width:8; stroke-opacity:1; fill:none" stroke-dasharray="32, 20" points="361.814,233.176 520.81,233.176 "/>
<path clip-path="url(#clip060)" d="M547.309 215.896 L576.545 215.896 L576.545 219.831 L564.276 219.831 L564.276 250.456 L559.577 250.456 L559.577 219.831 L547.309 219.831 L547.309 215.896 Z" fill="#000000" fill-rule="nonzero" fill-opacity="1" /><path clip-path="url(#clip060)" d="M588.929 228.512 Q588.211 228.095 587.355 227.91 Q586.522 227.702 585.503 227.702 Q581.892 227.702 579.948 230.063 Q578.026 232.401 578.026 236.799 L578.026 250.456 L573.744 250.456 L573.744 224.531 L578.026 224.531 L578.026 228.558 Q579.369 226.197 581.522 225.063 Q583.674 223.906 586.753 223.906 Q587.193 223.906 587.725 223.975 Q588.258 224.021 588.906 224.137 L588.929 228.512 Z" fill="#000000" fill-rule="nonzero" fill-opacity="1" /><path clip-path="url(#clip060)" d="M592.957 240.225 L592.957 224.531 L597.216 224.531 L597.216 240.063 Q597.216 243.743 598.651 245.595 Q600.086 247.424 602.957 247.424 Q606.406 247.424 608.397 245.225 Q610.41 243.026 610.41 239.229 L610.41 224.531 L614.67 224.531 L614.67 250.456 L610.41 250.456 L610.41 246.475 Q608.86 248.836 606.799 249.993 Q604.762 251.128 602.054 251.128 Q597.586 251.128 595.272 248.35 Q592.957 245.572 592.957 240.225 M603.674 223.906 L603.674 223.906 Z" fill="#000000" fill-rule="nonzero" fill-opacity="1" /><path clip-path="url(#clip060)" d="M645.619 236.429 L645.619 238.512 L626.035 238.512 Q626.313 242.91 628.674 245.225 Q631.058 247.516 635.295 247.516 Q637.748 247.516 640.04 246.915 Q642.355 246.313 644.623 245.109 L644.623 249.137 Q642.332 250.109 639.924 250.618 Q637.517 251.128 635.04 251.128 Q628.836 251.128 625.202 247.516 Q621.591 243.905 621.591 237.748 Q621.591 231.382 625.017 227.655 Q628.466 223.906 634.299 223.906 Q639.531 223.906 642.563 227.285 Q645.619 230.642 645.619 236.429 M641.359 235.179 Q641.313 231.683 639.392 229.6 Q637.494 227.517 634.346 227.517 Q630.781 227.517 628.628 229.53 Q626.498 231.544 626.174 235.202 L641.359 235.179 Z" fill="#000000" fill-rule="nonzero" fill-opacity="1" /><path clip-path="url(#clip060)" d="M677.887 218.489 L689.854 250.456 L685.341 250.456 L678.072 231.29 L669.137 250.456 L664.623 250.456 L675.989 225.595 L674.276 221.012 Q673.188 218.095 670.711 218.095 L668.489 218.095 L668.489 214.438 L671.197 214.484 Q676.429 214.554 677.887 218.489 Z" fill="#000000" fill-rule="nonzero" fill-opacity="1" /><path clip-path="url(#clip060)" d="M705.965 214.484 Q702.864 219.808 701.359 225.017 Q699.854 230.225 699.854 235.572 Q699.854 240.919 701.359 246.174 Q702.887 251.405 705.965 256.706 L702.262 256.706 Q698.79 251.266 697.054 246.012 Q695.341 240.757 695.341 235.572 Q695.341 230.41 697.054 225.179 Q698.766 219.947 702.262 214.484 L705.965 214.484 Z" fill="#000000" fill-rule="nonzero" fill-opacity="1" /><path clip-path="url(#clip060)" d="M714.415 215.896 L719.09 215.896 L719.09 250.456 L714.415 250.456 L714.415 215.896 Z" fill="#000000" fill-rule="nonzero" fill-opacity="1" /><path clip-path="url(#clip060)" d="M735.78 215.896 L739.715 215.896 L727.678 254.854 L723.743 254.854 L735.78 215.896 Z" fill="#000000" fill-rule="nonzero" fill-opacity="1" /><path clip-path="url(#clip060)" d="M744.368 215.896 L750.664 215.896 L765.988 244.808 L765.988 215.896 L770.525 215.896 L770.525 250.456 L764.229 250.456 L748.905 221.544 L748.905 250.456 L744.368 250.456 L744.368 215.896 Z" fill="#000000" fill-rule="nonzero" fill-opacity="1" /><path clip-path="url(#clip060)" d="M778.974 214.484 L782.678 214.484 Q786.15 219.947 787.863 225.179 Q789.599 230.41 789.599 235.572 Q789.599 240.757 787.863 246.012 Q786.15 251.266 782.678 256.706 L778.974 256.706 Q782.053 251.405 783.558 246.174 Q785.085 240.919 785.085 235.572 Q785.085 230.225 783.558 225.017 Q782.053 219.808 778.974 214.484 Z" fill="#000000" fill-rule="nonzero" fill-opacity="1" /><path clip-path="url(#clip060)" d="M361.814 305.752 L520.81 305.752 L520.81 264.28 L361.814 264.28 L361.814 305.752  Z" fill="#ff0000" fill-rule="evenodd" fill-opacity="0.2"/>
<polyline clip-path="url(#clip060)" style="stroke:#ff0000; stroke-linecap:round; stroke-linejoin:round; stroke-width:0.8; stroke-opacity:1; fill:none" stroke-dasharray="1, 2" points="361.814,264.28 520.81,264.28 "/>
<path clip-path="url(#clip060)" d="M549.531 301.579 L549.531 297.319 Q551.29 298.153 553.096 298.593 Q554.901 299.032 556.638 299.032 Q561.267 299.032 563.698 295.931 Q566.151 292.806 566.499 286.463 Q565.156 288.454 563.096 289.519 Q561.036 290.583 558.536 290.583 Q553.351 290.583 550.318 287.458 Q547.309 284.31 547.309 278.87 Q547.309 273.546 550.457 270.329 Q553.605 267.111 558.837 267.111 Q564.832 267.111 567.98 271.718 Q571.151 276.301 571.151 285.051 Q571.151 293.222 567.263 298.106 Q563.397 302.968 556.846 302.968 Q555.087 302.968 553.281 302.62 Q551.476 302.273 549.531 301.579 M558.837 286.926 Q561.985 286.926 563.813 284.773 Q565.665 282.62 565.665 278.87 Q565.665 275.144 563.813 272.991 Q561.985 270.815 558.837 270.815 Q555.689 270.815 553.837 272.991 Q552.008 275.144 552.008 278.87 Q552.008 282.62 553.837 284.773 Q555.689 286.926 558.837 286.926 Z" fill="#000000" fill-rule="nonzero" fill-opacity="1" /><path clip-path="url(#clip060)" d="M579.6 267.736 L597.957 267.736 L597.957 271.671 L583.883 271.671 L583.883 280.144 Q584.901 279.796 585.92 279.634 Q586.938 279.449 587.957 279.449 Q593.744 279.449 597.123 282.62 Q600.503 285.792 600.503 291.208 Q600.503 296.787 597.031 299.889 Q593.559 302.968 587.239 302.968 Q585.063 302.968 582.795 302.597 Q580.549 302.227 578.142 301.486 L578.142 296.787 Q580.225 297.921 582.448 298.477 Q584.67 299.032 587.147 299.032 Q591.151 299.032 593.489 296.926 Q595.827 294.819 595.827 291.208 Q595.827 287.597 593.489 285.491 Q591.151 283.384 587.147 283.384 Q585.272 283.384 583.397 283.801 Q581.545 284.218 579.6 285.097 L579.6 267.736 Z" fill="#000000" fill-rule="nonzero" fill-opacity="1" /><path clip-path="url(#clip060)" d="M639.114 287.088 Q637.1 287.088 635.943 288.801 Q634.808 290.514 634.808 293.569 Q634.808 296.579 635.943 298.315 Q637.1 300.028 639.114 300.028 Q641.082 300.028 642.216 298.315 Q643.373 296.579 643.373 293.569 Q643.373 290.537 642.216 288.824 Q641.082 287.088 639.114 287.088 M639.114 284.148 Q642.771 284.148 644.924 286.695 Q647.077 289.241 647.077 293.569 Q647.077 297.898 644.901 300.444 Q642.748 302.968 639.114 302.968 Q635.41 302.968 633.258 300.444 Q631.105 297.898 631.105 293.569 Q631.105 289.218 633.258 286.695 Q635.433 284.148 639.114 284.148 M615.225 270.051 Q613.235 270.051 612.077 271.787 Q610.943 273.5 610.943 276.509 Q610.943 279.565 612.077 281.278 Q613.211 282.991 615.225 282.991 Q617.239 282.991 618.373 281.278 Q619.531 279.565 619.531 276.509 Q619.531 273.523 618.373 271.787 Q617.216 270.051 615.225 270.051 M636.128 267.111 L639.832 267.111 L618.211 302.968 L614.508 302.968 L636.128 267.111 M615.225 267.111 Q618.883 267.111 621.059 269.658 Q623.234 272.181 623.234 276.509 Q623.234 280.884 621.059 283.408 Q618.906 285.931 615.225 285.931 Q611.545 285.931 609.392 283.408 Q607.262 280.861 607.262 276.509 Q607.262 272.204 609.415 269.658 Q611.568 267.111 615.225 267.111 Z" fill="#000000" fill-rule="nonzero" fill-opacity="1" /><path clip-path="url(#clip060)" d="M695.294 270.398 L695.294 275.329 Q692.933 273.13 690.248 272.042 Q687.586 270.954 684.577 270.954 Q678.651 270.954 675.503 274.588 Q672.355 278.199 672.355 285.051 Q672.355 291.88 675.503 295.514 Q678.651 299.125 684.577 299.125 Q687.586 299.125 690.248 298.037 Q692.933 296.949 695.294 294.75 L695.294 299.634 Q692.841 301.301 690.086 302.134 Q687.354 302.968 684.299 302.968 Q676.452 302.968 671.938 298.176 Q667.424 293.361 667.424 285.051 Q667.424 276.718 671.938 271.926 Q676.452 267.111 684.299 267.111 Q687.401 267.111 690.132 267.945 Q692.887 268.755 695.294 270.398 Z" fill="#000000" fill-rule="nonzero" fill-opacity="1" /><path clip-path="url(#clip060)" d="M702.516 267.736 L707.192 267.736 L707.192 302.296 L702.516 302.296 L702.516 267.736 Z" fill="#000000" fill-rule="nonzero" fill-opacity="1" /><polyline clip-path="url(#clip060)" style="stroke:#ff0000; stroke-linecap:round; stroke-linejoin:round; stroke-width:8; stroke-opacity:1; fill:none" points="361.814,336.856 520.81,336.856 "/>
<path clip-path="url(#clip060)" d="M547.309 319.576 L569.161 319.576 L569.161 323.511 L551.985 323.511 L551.985 333.743 L568.443 333.743 L568.443 337.678 L551.985 337.678 L551.985 350.201 L569.577 350.201 L569.577 354.136 L547.309 354.136 L547.309 319.576 Z" fill="#000000" fill-rule="nonzero" fill-opacity="1" /><path clip-path="url(#clip060)" d="M593.605 328.974 L593.605 333.002 Q591.799 332.076 589.855 331.613 Q587.911 331.15 585.827 331.15 Q582.656 331.15 581.059 332.123 Q579.485 333.095 579.485 335.039 Q579.485 336.521 580.619 337.377 Q581.753 338.21 585.179 338.974 L586.637 339.298 Q591.174 340.271 593.073 342.053 Q594.994 343.812 594.994 346.984 Q594.994 350.595 592.124 352.701 Q589.276 354.808 584.276 354.808 Q582.193 354.808 579.925 354.391 Q577.679 353.997 575.179 353.187 L575.179 348.789 Q577.54 350.016 579.832 350.641 Q582.124 351.243 584.369 351.243 Q587.378 351.243 588.999 350.224 Q590.619 349.183 590.619 347.308 Q590.619 345.572 589.438 344.646 Q588.281 343.72 584.323 342.863 L582.841 342.516 Q578.883 341.683 577.124 339.97 Q575.364 338.234 575.364 335.224 Q575.364 331.567 577.957 329.576 Q580.549 327.586 585.318 327.586 Q587.679 327.586 589.762 327.933 Q591.846 328.28 593.605 328.974 Z" fill="#000000" fill-rule="nonzero" fill-opacity="1" /><path clip-path="url(#clip060)" d="M605.989 320.849 L605.989 328.211 L614.762 328.211 L614.762 331.521 L605.989 331.521 L605.989 345.595 Q605.989 348.766 606.846 349.669 Q607.725 350.571 610.387 350.571 L614.762 350.571 L614.762 354.136 L610.387 354.136 Q605.457 354.136 603.582 352.308 Q601.707 350.456 601.707 345.595 L601.707 331.521 L598.582 331.521 L598.582 328.211 L601.707 328.211 L601.707 320.849 L605.989 320.849 Z" fill="#000000" fill-rule="nonzero" fill-opacity="1" /><path clip-path="url(#clip060)" d="M620.364 328.211 L624.623 328.211 L624.623 354.136 L620.364 354.136 L620.364 328.211 M620.364 318.118 L624.623 318.118 L624.623 323.511 L620.364 323.511 L620.364 318.118 Z" fill="#000000" fill-rule="nonzero" fill-opacity="1" /><path clip-path="url(#clip060)" d="M653.72 333.187 Q655.318 330.317 657.54 328.951 Q659.762 327.586 662.771 327.586 Q666.822 327.586 669.021 330.433 Q671.22 333.257 671.22 338.488 L671.22 354.136 L666.938 354.136 L666.938 338.627 Q666.938 334.9 665.618 333.095 Q664.299 331.289 661.591 331.289 Q658.281 331.289 656.359 333.488 Q654.438 335.687 654.438 339.484 L654.438 354.136 L650.156 354.136 L650.156 338.627 Q650.156 334.877 648.836 333.095 Q647.517 331.289 644.762 331.289 Q641.498 331.289 639.577 333.511 Q637.656 335.71 637.656 339.484 L637.656 354.136 L633.373 354.136 L633.373 328.211 L637.656 328.211 L637.656 332.238 Q639.114 329.854 641.151 328.72 Q643.188 327.586 645.989 327.586 Q648.813 327.586 650.781 329.021 Q652.771 330.456 653.72 333.187 Z" fill="#000000" fill-rule="nonzero" fill-opacity="1" /><path clip-path="url(#clip060)" d="M691.498 341.104 Q686.336 341.104 684.345 342.284 Q682.355 343.465 682.355 346.312 Q682.355 348.581 683.836 349.923 Q685.341 351.243 687.91 351.243 Q691.452 351.243 693.581 348.743 Q695.734 346.22 695.734 342.053 L695.734 341.104 L691.498 341.104 M699.993 339.345 L699.993 354.136 L695.734 354.136 L695.734 350.201 Q694.276 352.562 692.1 353.696 Q689.924 354.808 686.776 354.808 Q682.794 354.808 680.433 352.585 Q678.095 350.34 678.095 346.59 Q678.095 342.215 681.012 339.993 Q683.952 337.771 689.762 337.771 L695.734 337.771 L695.734 337.354 Q695.734 334.414 693.79 332.817 Q691.868 331.197 688.373 331.197 Q686.151 331.197 684.044 331.729 Q681.938 332.261 679.993 333.326 L679.993 329.391 Q682.331 328.488 684.53 328.048 Q686.729 327.586 688.813 327.586 Q694.438 327.586 697.216 330.502 Q699.993 333.419 699.993 339.345 Z" fill="#000000" fill-rule="nonzero" fill-opacity="1" /><path clip-path="url(#clip060)" d="M712.979 320.849 L712.979 328.211 L721.752 328.211 L721.752 331.521 L712.979 331.521 L712.979 345.595 Q712.979 348.766 713.836 349.669 Q714.715 350.571 717.377 350.571 L721.752 350.571 L721.752 354.136 L717.377 354.136 Q712.447 354.136 710.572 352.308 Q708.697 350.456 708.697 345.595 L708.697 331.521 L705.572 331.521 L705.572 328.211 L708.697 328.211 L708.697 320.849 L712.979 320.849 Z" fill="#000000" fill-rule="nonzero" fill-opacity="1" /><path clip-path="url(#clip060)" d="M749.53 340.109 L749.53 342.192 L729.947 342.192 Q730.225 346.59 732.586 348.905 Q734.97 351.196 739.206 351.196 Q741.66 351.196 743.951 350.595 Q746.266 349.993 748.535 348.789 L748.535 352.817 Q746.243 353.789 743.836 354.298 Q741.428 354.808 738.951 354.808 Q732.748 354.808 729.114 351.196 Q725.502 347.585 725.502 341.428 Q725.502 335.062 728.928 331.335 Q732.377 327.586 738.211 327.586 Q743.442 327.586 746.475 330.965 Q749.53 334.322 749.53 340.109 M745.271 338.859 Q745.225 335.363 743.303 333.28 Q741.405 331.197 738.257 331.197 Q734.692 331.197 732.539 333.21 Q730.41 335.224 730.086 338.882 L745.271 338.859 Z" fill="#000000" fill-rule="nonzero" fill-opacity="1" /><path clip-path="url(#clip060)" d="M773.581 332.146 L773.581 318.118 L777.84 318.118 L777.84 354.136 L773.581 354.136 L773.581 350.247 Q772.238 352.562 770.178 353.696 Q768.141 354.808 765.271 354.808 Q760.572 354.808 757.609 351.058 Q754.669 347.308 754.669 341.197 Q754.669 335.085 757.609 331.335 Q760.572 327.586 765.271 327.586 Q768.141 327.586 770.178 328.72 Q772.238 329.831 773.581 332.146 M759.067 341.197 Q759.067 345.896 760.988 348.581 Q762.933 351.243 766.312 351.243 Q769.692 351.243 771.636 348.581 Q773.581 345.896 773.581 341.197 Q773.581 336.497 771.636 333.835 Q769.692 331.15 766.312 331.15 Q762.933 331.15 760.988 333.835 Q759.067 336.497 759.067 341.197 Z" fill="#000000" fill-rule="nonzero" fill-opacity="1" /><path clip-path="url(#clip060)" d="M811.891 322.169 L823.858 354.136 L819.345 354.136 L812.076 334.97 L803.141 354.136 L798.627 354.136 L809.993 329.275 L808.28 324.692 Q807.192 321.775 804.715 321.775 L802.493 321.775 L802.493 318.118 L805.201 318.164 Q810.433 318.234 811.891 322.169 Z" fill="#000000" fill-rule="nonzero" fill-opacity="1" /><path clip-path="url(#clip060)" d="M839.969 318.164 Q836.868 323.488 835.363 328.697 Q833.858 333.905 833.858 339.252 Q833.858 344.599 835.363 349.854 Q836.891 355.085 839.969 360.386 L836.266 360.386 Q832.794 354.946 831.057 349.692 Q829.344 344.437 829.344 339.252 Q829.344 334.09 831.057 328.859 Q832.77 323.627 836.266 318.164 L839.969 318.164 Z" fill="#000000" fill-rule="nonzero" fill-opacity="1" /><path clip-path="url(#clip060)" d="M848.418 319.576 L853.094 319.576 L853.094 354.136 L848.418 354.136 L848.418 319.576 Z" fill="#000000" fill-rule="nonzero" fill-opacity="1" /><path clip-path="url(#clip060)" d="M869.784 319.576 L873.719 319.576 L861.682 358.534 L857.747 358.534 L869.784 319.576 Z" fill="#000000" fill-rule="nonzero" fill-opacity="1" /><path clip-path="url(#clip060)" d="M878.372 319.576 L884.668 319.576 L899.992 348.488 L899.992 319.576 L904.529 319.576 L904.529 354.136 L898.233 354.136 L882.909 325.224 L882.909 354.136 L878.372 354.136 L878.372 319.576 Z" fill="#000000" fill-rule="nonzero" fill-opacity="1" /><path clip-path="url(#clip060)" d="M912.978 318.164 L916.682 318.164 Q920.154 323.627 921.867 328.859 Q923.603 334.09 923.603 339.252 Q923.603 344.437 921.867 349.692 Q920.154 354.946 916.682 360.386 L912.978 360.386 Q916.057 355.085 917.562 349.854 Q919.089 344.599 919.089 339.252 Q919.089 333.905 917.562 328.697 Q916.057 323.488 912.978 318.164 Z" fill="#000000" fill-rule="nonzero" fill-opacity="1" /></svg>
