<?xml version="1.0" encoding="utf-8"?>
<svg xmlns="http://www.w3.org/2000/svg" xmlns:xlink="http://www.w3.org/1999/xlink" width="672" height="480" viewBox="0 0 2688 1920">
<defs>
  <clipPath id="clip240">
    <rect x="0" y="0" width="2688" height="1920"/>
  </clipPath>
</defs>
<path clip-path="url(#clip240)" d="M0 1920 L2688 1920 L2688 -4.26326e-14 L0 -4.26326e-14  Z" fill="#ffffff" fill-rule="evenodd" fill-opacity="1"/>
<defs>
  <clipPath id="clip241">
    <rect x="308" y="127" width="2333" height="1607"/>
  </clipPath>
</defs>
<path clip-path="url(#clip240)" d="M308.733 1734.12 L2640.76 1734.12 L2640.76 127.792 L308.733 127.792  Z" fill="#ffffff" fill-rule="evenodd" fill-opacity="1"/>
<polyline clip-path="url(#clip241)" style="stroke:#000000; stroke-linecap:round; stroke-linejoin:round; stroke-width:2; stroke-opacity:0.1; fill:none" points="602.322,1734.12 602.322,127.792 "/>
<polyline clip-path="url(#clip241)" style="stroke:#000000; stroke-linecap:round; stroke-linejoin:round; stroke-width:2; stroke-opacity:0.1; fill:none" points="905.773,1734.12 905.773,127.792 "/>
<polyline clip-path="url(#clip241)" style="stroke:#000000; stroke-linecap:round; stroke-linejoin:round; stroke-width:2; stroke-opacity:0.1; fill:none" points="1209.22,1734.12 1209.22,127.792 "/>
<polyline clip-path="url(#clip241)" style="stroke:#000000; stroke-linecap:round; stroke-linejoin:round; stroke-width:2; stroke-opacity:0.1; fill:none" points="1512.68,1734.12 1512.68,127.792 "/>
<polyline clip-path="url(#clip241)" style="stroke:#000000; stroke-linecap:round; stroke-linejoin:round; stroke-width:2; stroke-opacity:0.1; fill:none" points="1816.13,1734.12 1816.13,127.792 "/>
<polyline clip-path="url(#clip241)" style="stroke:#000000; stroke-linecap:round; stroke-linejoin:round; stroke-width:2; stroke-opacity:0.1; fill:none" points="2119.58,1734.12 2119.58,127.792 "/>
<polyline clip-path="url(#clip241)" style="stroke:#000000; stroke-linecap:round; stroke-linejoin:round; stroke-width:2; stroke-opacity:0.1; fill:none" points="2423.03,1734.12 2423.03,127.792 "/>
<polyline clip-path="url(#clip241)" style="stroke:#000000; stroke-linecap:round; stroke-linejoin:round; stroke-width:2; stroke-opacity:0.1; fill:none" points="308.733,1534.48 2640.76,1534.48 "/>
<polyline clip-path="url(#clip241)" style="stroke:#000000; stroke-linecap:round; stroke-linejoin:round; stroke-width:2; stroke-opacity:0.1; fill:none" points="308.733,1303.05 2640.76,1303.05 "/>
<polyline clip-path="url(#clip241)" style="stroke:#000000; stroke-linecap:round; stroke-linejoin:round; stroke-width:2; stroke-opacity:0.1; fill:none" points="308.733,1071.62 2640.76,1071.62 "/>
<polyline clip-path="url(#clip241)" style="stroke:#000000; stroke-linecap:round; stroke-linejoin:round; stroke-width:2; stroke-opacity:0.1; fill:none" points="308.733,840.196 2640.76,840.196 "/>
<polyline clip-path="url(#clip241)" style="stroke:#000000; stroke-linecap:round; stroke-linejoin:round; stroke-width:2; stroke-opacity:0.1; fill:none" points="308.733,608.769 2640.76,608.769 "/>
<polyline clip-path="url(#clip241)" style="stroke:#000000; stroke-linecap:round; stroke-linejoin:round; stroke-width:2; stroke-opacity:0.1; fill:none" points="308.733,377.342 2640.76,377.342 "/>
<polyline clip-path="url(#clip241)" style="stroke:#000000; stroke-linecap:round; stroke-linejoin:round; stroke-width:2; stroke-opacity:0.1; fill:none" points="308.733,145.914 2640.76,145.914 "/>
<polyline clip-path="url(#clip240)" style="stroke:#000000; stroke-linecap:round; stroke-linejoin:round; stroke-width:4; stroke-opacity:1; fill:none" points="308.733,1734.12 2640.76,1734.12 "/>
<polyline clip-path="url(#clip240)" style="stroke:#000000; stroke-linecap:round; stroke-linejoin:round; stroke-width:4; stroke-opacity:1; fill:none" points="602.322,1734.12 602.322,1715.22 "/>
<polyline clip-path="url(#clip240)" style="stroke:#000000; stroke-linecap:round; stroke-linejoin:round; stroke-width:4; stroke-opacity:1; fill:none" points="905.773,1734.12 905.773,1715.22 "/>
<polyline clip-path="url(#clip240)" style="stroke:#000000; stroke-linecap:round; stroke-linejoin:round; stroke-width:4; stroke-opacity:1; fill:none" points="1209.22,1734.12 1209.22,1715.22 "/>
<polyline clip-path="url(#clip240)" style="stroke:#000000; stroke-linecap:round; stroke-linejoin:round; stroke-width:4; stroke-opacity:1; fill:none" points="1512.68,1734.12 1512.68,1715.22 "/>
<polyline clip-path="url(#clip240)" style="stroke:#000000; stroke-linecap:round; stroke-linejoin:round; stroke-width:4; stroke-opacity:1; fill:none" points="1816.13,1734.12 1816.13,1715.22 "/>
<polyline clip-path="url(#clip240)" style="stroke:#000000; stroke-linecap:round; stroke-linejoin:round; stroke-width:4; stroke-opacity:1; fill:none" points="2119.58,1734.12 2119.58,1715.22 "/>
<polyline clip-path="url(#clip240)" style="stroke:#000000; stroke-linecap:round; stroke-linejoin:round; stroke-width:4; stroke-opacity:1; fill:none" points="2423.03,1734.12 2423.03,1715.22 "/>
<path clip-path="url(#clip240)" d="M565.424 1767.34 Q561.813 1767.34 559.984 1770.9 Q558.179 1774.45 558.179 1781.58 Q558.179 1788.68 559.984 1792.25 Q561.813 1795.79 565.424 1795.79 Q569.058 1795.79 570.864 1792.25 Q572.692 1788.68 572.692 1781.58 Q572.692 1774.45 570.864 1770.9 Q569.058 1767.34 565.424 1767.34 M565.424 1763.64 Q571.234 1763.64 574.29 1768.24 Q577.368 1772.83 577.368 1781.58 Q577.368 1790.3 574.29 1794.91 Q571.234 1799.49 565.424 1799.49 Q559.614 1799.49 556.535 1794.91 Q553.479 1790.3 553.479 1781.58 Q553.479 1772.83 556.535 1768.24 Q559.614 1763.64 565.424 1763.64 Z" fill="#000000" fill-rule="nonzero" fill-opacity="1" /><path clip-path="url(#clip240)" d="M585.586 1792.94 L590.47 1792.94 L590.47 1798.82 L585.586 1798.82 L585.586 1792.94 Z" fill="#000000" fill-rule="nonzero" fill-opacity="1" /><path clip-path="url(#clip240)" d="M610.655 1767.34 Q607.044 1767.34 605.215 1770.9 Q603.41 1774.45 603.41 1781.58 Q603.41 1788.68 605.215 1792.25 Q607.044 1795.79 610.655 1795.79 Q614.289 1795.79 616.095 1792.25 Q617.924 1788.68 617.924 1781.58 Q617.924 1774.45 616.095 1770.9 Q614.289 1767.34 610.655 1767.34 M610.655 1763.64 Q616.465 1763.64 619.521 1768.24 Q622.599 1772.83 622.599 1781.58 Q622.599 1790.3 619.521 1794.91 Q616.465 1799.49 610.655 1799.49 Q604.845 1799.49 601.766 1794.91 Q598.711 1790.3 598.711 1781.58 Q598.711 1772.83 601.766 1768.24 Q604.845 1763.64 610.655 1763.64 Z" fill="#000000" fill-rule="nonzero" fill-opacity="1" /><path clip-path="url(#clip240)" d="M634.845 1794.89 L651.164 1794.89 L651.164 1798.82 L629.22 1798.82 L629.22 1794.89 Q631.882 1792.13 636.465 1787.5 Q641.072 1782.85 642.252 1781.51 Q644.498 1778.98 645.377 1777.25 Q646.28 1775.49 646.28 1773.8 Q646.28 1771.04 644.335 1769.31 Q642.414 1767.57 639.312 1767.57 Q637.113 1767.57 634.66 1768.34 Q632.229 1769.1 629.451 1770.65 L629.451 1765.93 Q632.275 1764.79 634.729 1764.21 Q637.183 1763.64 639.22 1763.64 Q644.59 1763.64 647.785 1766.32 Q650.979 1769.01 650.979 1773.5 Q650.979 1775.63 650.169 1777.55 Q649.382 1779.45 647.275 1782.04 Q646.697 1782.71 643.595 1785.93 Q640.493 1789.12 634.845 1794.89 Z" fill="#000000" fill-rule="nonzero" fill-opacity="1" /><path clip-path="url(#clip240)" d="M867.834 1767.34 Q864.222 1767.34 862.394 1770.9 Q860.588 1774.45 860.588 1781.58 Q860.588 1788.68 862.394 1792.25 Q864.222 1795.79 867.834 1795.79 Q871.468 1795.79 873.273 1792.25 Q875.102 1788.68 875.102 1781.58 Q875.102 1774.45 873.273 1770.9 Q871.468 1767.34 867.834 1767.34 M867.834 1763.64 Q873.644 1763.64 876.699 1768.24 Q879.778 1772.83 879.778 1781.58 Q879.778 1790.3 876.699 1794.91 Q873.644 1799.49 867.834 1799.49 Q862.023 1799.49 858.945 1794.91 Q855.889 1790.3 855.889 1781.58 Q855.889 1772.83 858.945 1768.24 Q862.023 1763.64 867.834 1763.64 Z" fill="#000000" fill-rule="nonzero" fill-opacity="1" /><path clip-path="url(#clip240)" d="M887.995 1792.94 L892.88 1792.94 L892.88 1798.82 L887.995 1798.82 L887.995 1792.94 Z" fill="#000000" fill-rule="nonzero" fill-opacity="1" /><path clip-path="url(#clip240)" d="M913.065 1767.34 Q909.454 1767.34 907.625 1770.9 Q905.819 1774.45 905.819 1781.58 Q905.819 1788.68 907.625 1792.25 Q909.454 1795.79 913.065 1795.79 Q916.699 1795.79 918.505 1792.25 Q920.333 1788.68 920.333 1781.58 Q920.333 1774.45 918.505 1770.9 Q916.699 1767.34 913.065 1767.34 M913.065 1763.64 Q918.875 1763.64 921.93 1768.24 Q925.009 1772.83 925.009 1781.58 Q925.009 1790.3 921.93 1794.91 Q918.875 1799.49 913.065 1799.49 Q907.255 1799.49 904.176 1794.91 Q901.12 1790.3 901.12 1781.58 Q901.12 1772.83 904.176 1768.24 Q907.255 1763.64 913.065 1763.64 Z" fill="#000000" fill-rule="nonzero" fill-opacity="1" /><path clip-path="url(#clip240)" d="M946.074 1768.34 L934.268 1786.78 L946.074 1786.78 L946.074 1768.34 M944.847 1764.26 L950.727 1764.26 L950.727 1786.78 L955.657 1786.78 L955.657 1790.67 L950.727 1790.67 L950.727 1798.82 L946.074 1798.82 L946.074 1790.67 L930.472 1790.67 L930.472 1786.16 L944.847 1764.26 Z" fill="#000000" fill-rule="nonzero" fill-opacity="1" /><path clip-path="url(#clip240)" d="M1171.45 1767.34 Q1167.84 1767.34 1166.01 1770.9 Q1164.2 1774.45 1164.2 1781.58 Q1164.2 1788.68 1166.01 1792.25 Q1167.84 1795.79 1171.45 1795.79 Q1175.08 1795.79 1176.89 1792.25 Q1178.72 1788.68 1178.72 1781.58 Q1178.72 1774.45 1176.89 1770.9 Q1175.08 1767.34 1171.45 1767.34 M1171.45 1763.64 Q1177.26 1763.64 1180.31 1768.24 Q1183.39 1772.83 1183.39 1781.58 Q1183.39 1790.3 1180.31 1794.91 Q1177.26 1799.49 1171.45 1799.49 Q1165.64 1799.49 1162.56 1794.91 Q1159.5 1790.3 1159.5 1781.58 Q1159.5 1772.83 1162.56 1768.24 Q1165.64 1763.64 1171.45 1763.64 Z" fill="#000000" fill-rule="nonzero" fill-opacity="1" /><path clip-path="url(#clip240)" d="M1191.61 1792.94 L1196.49 1792.94 L1196.49 1798.82 L1191.61 1798.82 L1191.61 1792.94 Z" fill="#000000" fill-rule="nonzero" fill-opacity="1" /><path clip-path="url(#clip240)" d="M1216.68 1767.34 Q1213.07 1767.34 1211.24 1770.9 Q1209.43 1774.45 1209.43 1781.58 Q1209.43 1788.68 1211.24 1792.25 Q1213.07 1795.79 1216.68 1795.79 Q1220.31 1795.79 1222.12 1792.25 Q1223.95 1788.68 1223.95 1781.58 Q1223.95 1774.45 1222.12 1770.9 Q1220.31 1767.34 1216.68 1767.34 M1216.68 1763.64 Q1222.49 1763.64 1225.54 1768.24 Q1228.62 1772.83 1228.62 1781.58 Q1228.62 1790.3 1225.54 1794.91 Q1222.49 1799.49 1216.68 1799.49 Q1210.87 1799.49 1207.79 1794.91 Q1204.73 1790.3 1204.73 1781.58 Q1204.73 1772.83 1207.79 1768.24 Q1210.87 1763.64 1216.68 1763.64 Z" fill="#000000" fill-rule="nonzero" fill-opacity="1" /><path clip-path="url(#clip240)" d="M1247.42 1779.68 Q1244.27 1779.68 1242.42 1781.83 Q1240.59 1783.98 1240.59 1787.73 Q1240.59 1791.46 1242.42 1793.64 Q1244.27 1795.79 1247.42 1795.79 Q1250.57 1795.79 1252.4 1793.64 Q1254.25 1791.46 1254.25 1787.73 Q1254.25 1783.98 1252.4 1781.83 Q1250.57 1779.68 1247.42 1779.68 M1256.7 1765.02 L1256.7 1769.28 Q1254.94 1768.45 1253.14 1768.01 Q1251.35 1767.57 1249.59 1767.57 Q1244.96 1767.57 1242.51 1770.7 Q1240.08 1773.82 1239.73 1780.14 Q1241.1 1778.13 1243.16 1777.06 Q1245.22 1775.97 1247.7 1775.97 Q1252.9 1775.97 1255.91 1779.15 Q1258.95 1782.29 1258.95 1787.73 Q1258.95 1793.06 1255.8 1796.27 Q1252.65 1799.49 1247.42 1799.49 Q1241.42 1799.49 1238.25 1794.91 Q1235.08 1790.3 1235.08 1781.58 Q1235.08 1773.38 1238.97 1768.52 Q1242.86 1763.64 1249.41 1763.64 Q1251.17 1763.64 1252.95 1763.98 Q1254.76 1764.33 1256.7 1765.02 Z" fill="#000000" fill-rule="nonzero" fill-opacity="1" /><path clip-path="url(#clip240)" d="M1475.03 1767.34 Q1471.41 1767.34 1469.59 1770.9 Q1467.78 1774.45 1467.78 1781.58 Q1467.78 1788.68 1469.59 1792.25 Q1471.41 1795.79 1475.03 1795.79 Q1478.66 1795.79 1480.47 1792.25 Q1482.29 1788.68 1482.29 1781.58 Q1482.29 1774.45 1480.47 1770.9 Q1478.66 1767.34 1475.03 1767.34 M1475.03 1763.64 Q1480.84 1763.64 1483.89 1768.24 Q1486.97 1772.83 1486.97 1781.58 Q1486.97 1790.3 1483.89 1794.91 Q1480.84 1799.49 1475.03 1799.49 Q1469.22 1799.49 1466.14 1794.91 Q1463.08 1790.3 1463.08 1781.58 Q1463.08 1772.83 1466.14 1768.24 Q1469.22 1763.64 1475.03 1763.64 Z" fill="#000000" fill-rule="nonzero" fill-opacity="1" /><path clip-path="url(#clip240)" d="M1495.19 1792.94 L1500.07 1792.94 L1500.07 1798.82 L1495.19 1798.82 L1495.19 1792.94 Z" fill="#000000" fill-rule="nonzero" fill-opacity="1" /><path clip-path="url(#clip240)" d="M1520.26 1767.34 Q1516.65 1767.34 1514.82 1770.9 Q1513.01 1774.45 1513.01 1781.58 Q1513.01 1788.68 1514.82 1792.25 Q1516.65 1795.79 1520.26 1795.79 Q1523.89 1795.79 1525.7 1792.25 Q1527.53 1788.68 1527.53 1781.58 Q1527.53 1774.45 1525.7 1770.9 Q1523.89 1767.34 1520.26 1767.34 M1520.26 1763.64 Q1526.07 1763.64 1529.12 1768.24 Q1532.2 1772.83 1532.2 1781.58 Q1532.2 1790.3 1529.12 1794.91 Q1526.07 1799.49 1520.26 1799.49 Q1514.45 1799.49 1511.37 1794.91 Q1508.31 1790.3 1508.31 1781.58 Q1508.31 1772.83 1511.37 1768.24 Q1514.45 1763.64 1520.26 1763.64 Z" fill="#000000" fill-rule="nonzero" fill-opacity="1" /><path clip-path="url(#clip240)" d="M1550.42 1782.41 Q1547.09 1782.41 1545.16 1784.19 Q1543.27 1785.97 1543.27 1789.1 Q1543.27 1792.22 1545.16 1794.01 Q1547.09 1795.79 1550.42 1795.79 Q1553.75 1795.79 1555.67 1794.01 Q1557.59 1792.2 1557.59 1789.1 Q1557.59 1785.97 1555.67 1784.19 Q1553.78 1782.41 1550.42 1782.41 M1545.74 1780.42 Q1542.73 1779.68 1541.04 1777.62 Q1539.38 1775.56 1539.38 1772.59 Q1539.38 1768.45 1542.32 1766.04 Q1545.28 1763.64 1550.42 1763.64 Q1555.58 1763.64 1558.52 1766.04 Q1561.46 1768.45 1561.46 1772.59 Q1561.46 1775.56 1559.77 1777.62 Q1558.1 1779.68 1555.12 1780.42 Q1558.5 1781.21 1560.37 1783.5 Q1562.27 1785.79 1562.27 1789.1 Q1562.27 1794.12 1559.19 1796.81 Q1556.14 1799.49 1550.42 1799.49 Q1544.7 1799.49 1541.62 1796.81 Q1538.57 1794.12 1538.57 1789.1 Q1538.57 1785.79 1540.46 1783.5 Q1542.36 1781.21 1545.74 1780.42 M1544.03 1773.03 Q1544.03 1775.72 1545.7 1777.22 Q1547.39 1778.73 1550.42 1778.73 Q1553.43 1778.73 1555.12 1777.22 Q1556.83 1775.72 1556.83 1773.03 Q1556.83 1770.35 1555.12 1768.84 Q1553.43 1767.34 1550.42 1767.34 Q1547.39 1767.34 1545.7 1768.84 Q1544.03 1770.35 1544.03 1773.03 Z" fill="#000000" fill-rule="nonzero" fill-opacity="1" /><path clip-path="url(#clip240)" d="M1778.43 1767.34 Q1774.82 1767.34 1772.99 1770.9 Q1771.19 1774.45 1771.19 1781.58 Q1771.19 1788.68 1772.99 1792.25 Q1774.82 1795.79 1778.43 1795.79 Q1782.06 1795.79 1783.87 1792.25 Q1785.7 1788.68 1785.7 1781.58 Q1785.7 1774.45 1783.87 1770.9 Q1782.06 1767.34 1778.43 1767.34 M1778.43 1763.64 Q1784.24 1763.64 1787.3 1768.24 Q1790.37 1772.83 1790.37 1781.58 Q1790.37 1790.3 1787.3 1794.91 Q1784.24 1799.49 1778.43 1799.49 Q1772.62 1799.49 1769.54 1794.91 Q1766.49 1790.3 1766.49 1781.58 Q1766.49 1772.83 1769.54 1768.24 Q1772.62 1763.64 1778.43 1763.64 Z" fill="#000000" fill-rule="nonzero" fill-opacity="1" /><path clip-path="url(#clip240)" d="M1798.59 1792.94 L1803.48 1792.94 L1803.48 1798.82 L1798.59 1798.82 L1798.59 1792.94 Z" fill="#000000" fill-rule="nonzero" fill-opacity="1" /><path clip-path="url(#clip240)" d="M1814.47 1794.89 L1822.11 1794.89 L1822.11 1768.52 L1813.8 1770.19 L1813.8 1765.93 L1822.06 1764.26 L1826.74 1764.26 L1826.74 1794.89 L1834.38 1794.89 L1834.38 1798.82 L1814.47 1798.82 L1814.47 1794.89 Z" fill="#000000" fill-rule="nonzero" fill-opacity="1" /><path clip-path="url(#clip240)" d="M1853.82 1767.34 Q1850.21 1767.34 1848.38 1770.9 Q1846.58 1774.45 1846.58 1781.58 Q1846.58 1788.68 1848.38 1792.25 Q1850.21 1795.79 1853.82 1795.79 Q1857.46 1795.79 1859.26 1792.25 Q1861.09 1788.68 1861.09 1781.58 Q1861.09 1774.45 1859.26 1770.9 Q1857.46 1767.34 1853.82 1767.34 M1853.82 1763.64 Q1859.63 1763.64 1862.69 1768.24 Q1865.77 1772.83 1865.77 1781.58 Q1865.77 1790.3 1862.69 1794.91 Q1859.63 1799.49 1853.82 1799.49 Q1848.01 1799.49 1844.93 1794.91 Q1841.88 1790.3 1841.88 1781.58 Q1841.88 1772.83 1844.93 1768.24 Q1848.01 1763.64 1853.82 1763.64 Z" fill="#000000" fill-rule="nonzero" fill-opacity="1" /><path clip-path="url(#clip240)" d="M2082.68 1767.34 Q2079.07 1767.34 2077.24 1770.9 Q2075.44 1774.45 2075.44 1781.58 Q2075.44 1788.68 2077.24 1792.25 Q2079.07 1795.79 2082.68 1795.79 Q2086.31 1795.79 2088.12 1792.25 Q2089.95 1788.68 2089.95 1781.58 Q2089.95 1774.45 2088.12 1770.9 Q2086.31 1767.34 2082.68 1767.34 M2082.68 1763.64 Q2088.49 1763.64 2091.55 1768.24 Q2094.62 1772.83 2094.62 1781.58 Q2094.62 1790.3 2091.55 1794.91 Q2088.49 1799.49 2082.68 1799.49 Q2076.87 1799.49 2073.79 1794.91 Q2070.74 1790.3 2070.74 1781.58 Q2070.74 1772.83 2073.79 1768.24 Q2076.87 1763.64 2082.68 1763.64 Z" fill="#000000" fill-rule="nonzero" fill-opacity="1" /><path clip-path="url(#clip240)" d="M2102.84 1792.94 L2107.73 1792.94 L2107.73 1798.82 L2102.84 1798.82 L2102.84 1792.94 Z" fill="#000000" fill-rule="nonzero" fill-opacity="1" /><path clip-path="url(#clip240)" d="M2118.72 1794.89 L2126.36 1794.89 L2126.36 1768.52 L2118.05 1770.19 L2118.05 1765.93 L2126.31 1764.26 L2130.99 1764.26 L2130.99 1794.89 L2138.63 1794.89 L2138.63 1798.82 L2118.72 1798.82 L2118.72 1794.89 Z" fill="#000000" fill-rule="nonzero" fill-opacity="1" /><path clip-path="url(#clip240)" d="M2152.1 1794.89 L2168.42 1794.89 L2168.42 1798.82 L2146.48 1798.82 L2146.48 1794.89 Q2149.14 1792.13 2153.72 1787.5 Q2158.33 1782.85 2159.51 1781.51 Q2161.75 1778.98 2162.63 1777.25 Q2163.54 1775.49 2163.54 1773.8 Q2163.54 1771.04 2161.59 1769.31 Q2159.67 1767.57 2156.57 1767.57 Q2154.37 1767.57 2151.92 1768.34 Q2149.49 1769.1 2146.71 1770.65 L2146.71 1765.93 Q2149.53 1764.79 2151.99 1764.21 Q2154.44 1763.64 2156.48 1763.64 Q2161.85 1763.64 2165.04 1766.32 Q2168.24 1769.01 2168.24 1773.5 Q2168.24 1775.63 2167.43 1777.55 Q2166.64 1779.45 2164.53 1782.04 Q2163.95 1782.71 2160.85 1785.93 Q2157.75 1789.12 2152.1 1794.89 Z" fill="#000000" fill-rule="nonzero" fill-opacity="1" /><path clip-path="url(#clip240)" d="M2385.09 1767.34 Q2381.48 1767.34 2379.65 1770.9 Q2377.84 1774.45 2377.84 1781.58 Q2377.84 1788.68 2379.65 1792.25 Q2381.48 1795.79 2385.09 1795.79 Q2388.72 1795.79 2390.53 1792.25 Q2392.36 1788.68 2392.36 1781.58 Q2392.36 1774.45 2390.53 1770.9 Q2388.72 1767.34 2385.09 1767.34 M2385.09 1763.64 Q2390.9 1763.64 2393.96 1768.24 Q2397.03 1772.83 2397.03 1781.58 Q2397.03 1790.3 2393.96 1794.91 Q2390.9 1799.49 2385.09 1799.49 Q2379.28 1799.49 2376.2 1794.91 Q2373.15 1790.3 2373.15 1781.58 Q2373.15 1772.83 2376.2 1768.24 Q2379.28 1763.64 2385.09 1763.64 Z" fill="#000000" fill-rule="nonzero" fill-opacity="1" /><path clip-path="url(#clip240)" d="M2405.25 1792.94 L2410.14 1792.94 L2410.14 1798.82 L2405.25 1798.82 L2405.25 1792.94 Z" fill="#000000" fill-rule="nonzero" fill-opacity="1" /><path clip-path="url(#clip240)" d="M2421.13 1794.89 L2428.77 1794.89 L2428.77 1768.52 L2420.46 1770.19 L2420.46 1765.93 L2428.72 1764.26 L2433.4 1764.26 L2433.4 1794.89 L2441.04 1794.89 L2441.04 1798.82 L2421.13 1798.82 L2421.13 1794.89 Z" fill="#000000" fill-rule="nonzero" fill-opacity="1" /><path clip-path="url(#clip240)" d="M2463.33 1768.34 L2451.52 1786.78 L2463.33 1786.78 L2463.33 1768.34 M2462.1 1764.26 L2467.98 1764.26 L2467.98 1786.78 L2472.91 1786.78 L2472.91 1790.67 L2467.98 1790.67 L2467.98 1798.82 L2463.33 1798.82 L2463.33 1790.67 L2447.73 1790.67 L2447.73 1786.16 L2462.1 1764.26 Z" fill="#000000" fill-rule="nonzero" fill-opacity="1" /><path clip-path="url(#clip240)" d="M1227.6 1841.06 L1227.6 1858.92 L1235.68 1858.92 Q1240.17 1858.92 1242.62 1856.6 Q1245.07 1854.27 1245.07 1849.98 Q1245.07 1845.71 1242.62 1843.39 Q1240.17 1841.06 1235.68 1841.06 L1227.6 1841.06 M1221.17 1835.78 L1235.68 1835.78 Q1243.67 1835.78 1247.74 1839.41 Q1251.85 1843.01 1251.85 1849.98 Q1251.85 1857.01 1247.74 1860.61 Q1243.67 1864.2 1235.68 1864.2 L1227.6 1864.2 L1227.6 1883.3 L1221.17 1883.3 L1221.17 1835.78 Z" fill="#000000" fill-rule="nonzero" fill-opacity="1" /><path clip-path="url(#clip240)" d="M1279.73 1853.13 Q1278.74 1852.55 1277.57 1852.3 Q1276.42 1852.01 1275.02 1852.01 Q1270.06 1852.01 1267.38 1855.26 Q1264.74 1858.47 1264.74 1864.52 L1264.74 1883.3 L1258.85 1883.3 L1258.85 1847.65 L1264.74 1847.65 L1264.74 1853.19 Q1266.59 1849.94 1269.55 1848.39 Q1272.51 1846.79 1276.74 1846.79 Q1277.34 1846.79 1278.08 1846.89 Q1278.81 1846.95 1279.7 1847.11 L1279.73 1853.13 Z" fill="#000000" fill-rule="nonzero" fill-opacity="1" /><path clip-path="url(#clip240)" d="M1314.93 1864.01 L1314.93 1866.88 L1288.01 1866.88 Q1288.39 1872.92 1291.63 1876.11 Q1294.91 1879.26 1300.74 1879.26 Q1304.11 1879.26 1307.26 1878.43 Q1310.45 1877.6 1313.56 1875.95 L1313.56 1881.49 Q1310.41 1882.82 1307.1 1883.52 Q1303.79 1884.22 1300.39 1884.22 Q1291.86 1884.22 1286.86 1879.26 Q1281.9 1874.29 1281.9 1865.83 Q1281.9 1857.07 1286.61 1851.95 Q1291.35 1846.79 1299.37 1846.79 Q1306.56 1846.79 1310.73 1851.44 Q1314.93 1856.06 1314.93 1864.01 M1309.08 1862.29 Q1309.01 1857.49 1306.37 1854.62 Q1303.76 1851.76 1299.43 1851.76 Q1294.53 1851.76 1291.57 1854.53 Q1288.64 1857.3 1288.2 1862.33 L1309.08 1862.29 Z" fill="#000000" fill-rule="nonzero" fill-opacity="1" /><path clip-path="url(#clip240)" d="M1320.34 1847.65 L1326.55 1847.65 L1337.69 1877.57 L1348.83 1847.65 L1355.04 1847.65 L1341.67 1883.3 L1333.71 1883.3 L1320.34 1847.65 Z" fill="#000000" fill-rule="nonzero" fill-opacity="1" /><path clip-path="url(#clip240)" d="M1379.32 1865.38 Q1372.22 1865.38 1369.49 1867 Q1366.75 1868.63 1366.75 1872.54 Q1366.75 1875.66 1368.79 1877.51 Q1370.86 1879.32 1374.39 1879.32 Q1379.26 1879.32 1382.19 1875.88 Q1385.15 1872.42 1385.15 1866.69 L1385.15 1865.38 L1379.32 1865.38 M1391 1862.96 L1391 1883.3 L1385.15 1883.3 L1385.15 1877.89 Q1383.14 1881.14 1380.15 1882.7 Q1377.16 1884.22 1372.83 1884.22 Q1367.35 1884.22 1364.11 1881.17 Q1360.89 1878.08 1360.89 1872.92 Q1360.89 1866.91 1364.9 1863.85 Q1368.95 1860.8 1376.94 1860.8 L1385.15 1860.8 L1385.15 1860.23 Q1385.15 1856.18 1382.47 1853.99 Q1379.83 1851.76 1375.03 1851.76 Q1371.97 1851.76 1369.07 1852.49 Q1366.18 1853.22 1363.5 1854.69 L1363.5 1849.28 Q1366.72 1848.03 1369.74 1847.43 Q1372.77 1846.79 1375.63 1846.79 Q1383.36 1846.79 1387.18 1850.8 Q1391 1854.81 1391 1862.96 Z" fill="#000000" fill-rule="nonzero" fill-opacity="1" /><path clip-path="url(#clip240)" d="M1403.07 1833.78 L1408.92 1833.78 L1408.92 1883.3 L1403.07 1883.3 L1403.07 1833.78 Z" fill="#000000" fill-rule="nonzero" fill-opacity="1" /><path clip-path="url(#clip240)" d="M1451.67 1864.01 L1451.67 1866.88 L1424.74 1866.88 Q1425.12 1872.92 1428.37 1876.11 Q1431.65 1879.26 1437.47 1879.26 Q1440.85 1879.26 1444 1878.43 Q1447.18 1877.6 1450.3 1875.95 L1450.3 1881.49 Q1447.15 1882.82 1443.84 1883.52 Q1440.53 1884.22 1437.12 1884.22 Q1428.59 1884.22 1423.6 1879.26 Q1418.63 1874.29 1418.63 1865.83 Q1418.63 1857.07 1423.34 1851.95 Q1428.08 1846.79 1436.1 1846.79 Q1443.3 1846.79 1447.47 1851.44 Q1451.67 1856.06 1451.67 1864.01 M1445.81 1862.29 Q1445.75 1857.49 1443.11 1854.62 Q1440.5 1851.76 1436.17 1851.76 Q1431.27 1851.76 1428.31 1854.53 Q1425.38 1857.3 1424.93 1862.33 L1445.81 1862.29 Z" fill="#000000" fill-rule="nonzero" fill-opacity="1" /><path clip-path="url(#clip240)" d="M1490.91 1861.78 L1490.91 1883.3 L1485.06 1883.3 L1485.06 1861.98 Q1485.06 1856.92 1483.08 1854.4 Q1481.11 1851.89 1477.16 1851.89 Q1472.42 1851.89 1469.68 1854.91 Q1466.95 1857.93 1466.95 1863.15 L1466.95 1883.3 L1461.06 1883.3 L1461.06 1847.65 L1466.95 1847.65 L1466.95 1853.19 Q1469.05 1849.98 1471.88 1848.39 Q1474.74 1846.79 1478.47 1846.79 Q1484.61 1846.79 1487.76 1850.61 Q1490.91 1854.4 1490.91 1861.78 Z" fill="#000000" fill-rule="nonzero" fill-opacity="1" /><path clip-path="url(#clip240)" d="M1528.25 1849.02 L1528.25 1854.5 Q1525.77 1853.13 1523.25 1852.46 Q1520.77 1851.76 1518.22 1851.76 Q1512.52 1851.76 1509.37 1855.39 Q1506.22 1858.98 1506.22 1865.51 Q1506.22 1872.03 1509.37 1875.66 Q1512.52 1879.26 1518.22 1879.26 Q1520.77 1879.26 1523.25 1878.59 Q1525.77 1877.89 1528.25 1876.52 L1528.25 1881.93 Q1525.8 1883.08 1523.16 1883.65 Q1520.55 1884.22 1517.59 1884.22 Q1509.53 1884.22 1504.79 1879.16 Q1500.05 1874.1 1500.05 1865.51 Q1500.05 1856.79 1504.82 1851.79 Q1509.63 1846.79 1517.97 1846.79 Q1520.67 1846.79 1523.25 1847.37 Q1525.83 1847.91 1528.25 1849.02 Z" fill="#000000" fill-rule="nonzero" fill-opacity="1" /><path clip-path="url(#clip240)" d="M1568.92 1864.01 L1568.92 1866.88 L1542 1866.88 Q1542.38 1872.92 1545.63 1876.11 Q1548.9 1879.26 1554.73 1879.26 Q1558.1 1879.26 1561.25 1878.43 Q1564.44 1877.6 1567.56 1875.95 L1567.56 1881.49 Q1564.41 1882.82 1561.1 1883.52 Q1557.78 1884.22 1554.38 1884.22 Q1545.85 1884.22 1540.85 1879.26 Q1535.89 1874.29 1535.89 1865.83 Q1535.89 1857.07 1540.6 1851.95 Q1545.34 1846.79 1553.36 1846.79 Q1560.55 1846.79 1564.72 1851.44 Q1568.92 1856.06 1568.92 1864.01 M1563.07 1862.29 Q1563 1857.49 1560.36 1854.62 Q1557.75 1851.76 1553.42 1851.76 Q1548.52 1851.76 1545.56 1854.53 Q1542.63 1857.3 1542.19 1862.33 L1563.07 1862.29 Z" fill="#000000" fill-rule="nonzero" fill-opacity="1" /><path clip-path="url(#clip240)" d="M1613.33 1833.84 Q1609.06 1841.16 1606.99 1848.32 Q1604.92 1855.48 1604.92 1862.84 Q1604.92 1870.19 1606.99 1877.41 Q1609.09 1884.61 1613.33 1891.89 L1608.23 1891.89 Q1603.46 1884.41 1601.07 1877.19 Q1598.72 1869.96 1598.72 1862.84 Q1598.72 1855.74 1601.07 1848.54 Q1603.43 1841.35 1608.23 1833.84 L1613.33 1833.84 Z" fill="#000000" fill-rule="nonzero" fill-opacity="1" /><path clip-path="url(#clip240)" d="M1624.94 1835.78 L1631.37 1835.78 L1631.37 1883.3 L1624.94 1883.3 L1624.94 1835.78 Z" fill="#000000" fill-rule="nonzero" fill-opacity="1" /><path clip-path="url(#clip240)" d="M1654.32 1835.78 L1659.73 1835.78 L1643.18 1889.35 L1637.77 1889.35 L1654.32 1835.78 Z" fill="#000000" fill-rule="nonzero" fill-opacity="1" /><path clip-path="url(#clip240)" d="M1666.13 1835.78 L1674.79 1835.78 L1695.86 1875.53 L1695.86 1835.78 L1702.1 1835.78 L1702.1 1883.3 L1693.44 1883.3 L1672.37 1843.55 L1672.37 1883.3 L1666.13 1883.3 L1666.13 1835.78 Z" fill="#000000" fill-rule="nonzero" fill-opacity="1" /><path clip-path="url(#clip240)" d="M1713.71 1833.84 L1718.81 1833.84 Q1723.58 1841.35 1725.94 1848.54 Q1728.32 1855.74 1728.32 1862.84 Q1728.32 1869.96 1725.94 1877.19 Q1723.58 1884.41 1718.81 1891.89 L1713.71 1891.89 Q1717.95 1884.61 1720.01 1877.41 Q1722.12 1870.19 1722.12 1862.84 Q1722.12 1855.48 1720.01 1848.32 Q1717.95 1841.16 1713.71 1833.84 Z" fill="#000000" fill-rule="nonzero" fill-opacity="1" /><polyline clip-path="url(#clip240)" style="stroke:#000000; stroke-linecap:round; stroke-linejoin:round; stroke-width:4; stroke-opacity:1; fill:none" points="308.733,1734.12 308.733,127.792 "/>
<polyline clip-path="url(#clip240)" style="stroke:#000000; stroke-linecap:round; stroke-linejoin:round; stroke-width:4; stroke-opacity:1; fill:none" points="308.733,1534.48 327.63,1534.48 "/>
<polyline clip-path="url(#clip240)" style="stroke:#000000; stroke-linecap:round; stroke-linejoin:round; stroke-width:4; stroke-opacity:1; fill:none" points="308.733,1303.05 327.63,1303.05 "/>
<polyline clip-path="url(#clip240)" style="stroke:#000000; stroke-linecap:round; stroke-linejoin:round; stroke-width:4; stroke-opacity:1; fill:none" points="308.733,1071.62 327.63,1071.62 "/>
<polyline clip-path="url(#clip240)" style="stroke:#000000; stroke-linecap:round; stroke-linejoin:round; stroke-width:4; stroke-opacity:1; fill:none" points="308.733,840.196 327.63,840.196 "/>
<polyline clip-path="url(#clip240)" style="stroke:#000000; stroke-linecap:round; stroke-linejoin:round; stroke-width:4; stroke-opacity:1; fill:none" points="308.733,608.769 327.63,608.769 "/>
<polyline clip-path="url(#clip240)" style="stroke:#000000; stroke-linecap:round; stroke-linejoin:round; stroke-width:4; stroke-opacity:1; fill:none" points="308.733,377.342 327.63,377.342 "/>
<polyline clip-path="url(#clip240)" style="stroke:#000000; stroke-linecap:round; stroke-linejoin:round; stroke-width:4; stroke-opacity:1; fill:none" points="308.733,145.914 327.63,145.914 "/>
<path clip-path="url(#clip240)" d="M116.214 1534.93 L145.89 1534.93 L145.89 1538.87 L116.214 1538.87 L116.214 1534.93 Z" fill="#000000" fill-rule="nonzero" fill-opacity="1" /><path clip-path="url(#clip240)" d="M160.011 1547.82 L176.33 1547.82 L176.33 1551.76 L154.386 1551.76 L154.386 1547.82 Q157.048 1545.07 161.631 1540.44 Q166.237 1535.79 167.418 1534.44 Q169.663 1531.92 170.543 1530.18 Q171.446 1528.43 171.446 1526.74 Q171.446 1523.98 169.501 1522.24 Q167.58 1520.51 164.478 1520.51 Q162.279 1520.51 159.825 1521.27 Q157.395 1522.04 154.617 1523.59 L154.617 1518.87 Q157.441 1517.73 159.895 1517.15 Q162.348 1516.57 164.385 1516.57 Q169.756 1516.57 172.95 1519.26 Q176.145 1521.94 176.145 1526.43 Q176.145 1528.56 175.334 1530.49 Q174.547 1532.38 172.441 1534.98 Q171.862 1535.65 168.76 1538.87 Q165.659 1542.06 160.011 1547.82 Z" fill="#000000" fill-rule="nonzero" fill-opacity="1" /><path clip-path="url(#clip240)" d="M196.145 1520.28 Q192.533 1520.28 190.705 1523.84 Q188.899 1527.38 188.899 1534.51 Q188.899 1541.62 190.705 1545.18 Q192.533 1548.73 196.145 1548.73 Q199.779 1548.73 201.584 1545.18 Q203.413 1541.62 203.413 1534.51 Q203.413 1527.38 201.584 1523.84 Q199.779 1520.28 196.145 1520.28 M196.145 1516.57 Q201.955 1516.57 205.01 1521.18 Q208.089 1525.76 208.089 1534.51 Q208.089 1543.24 205.01 1547.85 Q201.955 1552.43 196.145 1552.43 Q190.334 1552.43 187.256 1547.85 Q184.2 1543.24 184.2 1534.51 Q184.2 1525.76 187.256 1521.18 Q190.334 1516.57 196.145 1516.57 Z" fill="#000000" fill-rule="nonzero" fill-opacity="1" /><path clip-path="url(#clip240)" d="M226.306 1520.28 Q222.695 1520.28 220.867 1523.84 Q219.061 1527.38 219.061 1534.51 Q219.061 1541.62 220.867 1545.18 Q222.695 1548.73 226.306 1548.73 Q229.941 1548.73 231.746 1545.18 Q233.575 1541.62 233.575 1534.51 Q233.575 1527.38 231.746 1523.84 Q229.941 1520.28 226.306 1520.28 M226.306 1516.57 Q232.117 1516.57 235.172 1521.18 Q238.251 1525.76 238.251 1534.51 Q238.251 1543.24 235.172 1547.85 Q232.117 1552.43 226.306 1552.43 Q220.496 1552.43 217.418 1547.85 Q214.362 1543.24 214.362 1534.51 Q214.362 1525.76 217.418 1521.18 Q220.496 1516.57 226.306 1516.57 Z" fill="#000000" fill-rule="nonzero" fill-opacity="1" /><path clip-path="url(#clip240)" d="M256.468 1520.28 Q252.857 1520.28 251.029 1523.84 Q249.223 1527.38 249.223 1534.51 Q249.223 1541.62 251.029 1545.18 Q252.857 1548.73 256.468 1548.73 Q260.103 1548.73 261.908 1545.18 Q263.737 1541.62 263.737 1534.51 Q263.737 1527.38 261.908 1523.84 Q260.103 1520.28 256.468 1520.28 M256.468 1516.57 Q262.278 1516.57 265.334 1521.18 Q268.413 1525.76 268.413 1534.51 Q268.413 1543.24 265.334 1547.85 Q262.278 1552.43 256.468 1552.43 Q250.658 1552.43 247.579 1547.85 Q244.524 1543.24 244.524 1534.51 Q244.524 1525.76 247.579 1521.18 Q250.658 1516.57 256.468 1516.57 Z" fill="#000000" fill-rule="nonzero" fill-opacity="1" /><path clip-path="url(#clip240)" d="M116.214 1303.5 L145.89 1303.5 L145.89 1307.44 L116.214 1307.44 L116.214 1303.5 Z" fill="#000000" fill-rule="nonzero" fill-opacity="1" /><path clip-path="url(#clip240)" d="M156.793 1316.4 L164.432 1316.4 L164.432 1290.03 L156.122 1291.7 L156.122 1287.44 L164.385 1285.77 L169.061 1285.77 L169.061 1316.4 L176.7 1316.4 L176.7 1320.33 L156.793 1320.33 L156.793 1316.4 Z" fill="#000000" fill-rule="nonzero" fill-opacity="1" /><path clip-path="url(#clip240)" d="M196.145 1288.85 Q192.533 1288.85 190.705 1292.41 Q188.899 1295.96 188.899 1303.09 Q188.899 1310.19 190.705 1313.76 Q192.533 1317.3 196.145 1317.3 Q199.779 1317.3 201.584 1313.76 Q203.413 1310.19 203.413 1303.09 Q203.413 1295.96 201.584 1292.41 Q199.779 1288.85 196.145 1288.85 M196.145 1285.15 Q201.955 1285.15 205.01 1289.75 Q208.089 1294.34 208.089 1303.09 Q208.089 1311.81 205.01 1316.42 Q201.955 1321 196.145 1321 Q190.334 1321 187.256 1316.42 Q184.2 1311.81 184.2 1303.09 Q184.2 1294.34 187.256 1289.75 Q190.334 1285.15 196.145 1285.15 Z" fill="#000000" fill-rule="nonzero" fill-opacity="1" /><path clip-path="url(#clip240)" d="M226.306 1288.85 Q222.695 1288.85 220.867 1292.41 Q219.061 1295.96 219.061 1303.09 Q219.061 1310.19 220.867 1313.76 Q222.695 1317.3 226.306 1317.3 Q229.941 1317.3 231.746 1313.76 Q233.575 1310.19 233.575 1303.09 Q233.575 1295.96 231.746 1292.41 Q229.941 1288.85 226.306 1288.85 M226.306 1285.15 Q232.117 1285.15 235.172 1289.75 Q238.251 1294.34 238.251 1303.09 Q238.251 1311.81 235.172 1316.42 Q232.117 1321 226.306 1321 Q220.496 1321 217.418 1316.42 Q214.362 1311.81 214.362 1303.09 Q214.362 1294.34 217.418 1289.75 Q220.496 1285.15 226.306 1285.15 Z" fill="#000000" fill-rule="nonzero" fill-opacity="1" /><path clip-path="url(#clip240)" d="M256.468 1288.85 Q252.857 1288.85 251.029 1292.41 Q249.223 1295.96 249.223 1303.09 Q249.223 1310.19 251.029 1313.76 Q252.857 1317.3 256.468 1317.3 Q260.103 1317.3 261.908 1313.76 Q263.737 1310.19 263.737 1303.09 Q263.737 1295.96 261.908 1292.41 Q260.103 1288.85 256.468 1288.85 M256.468 1285.15 Q262.278 1285.15 265.334 1289.75 Q268.413 1294.34 268.413 1303.09 Q268.413 1311.81 265.334 1316.42 Q262.278 1321 256.468 1321 Q250.658 1321 247.579 1316.42 Q244.524 1311.81 244.524 1303.09 Q244.524 1294.34 247.579 1289.75 Q250.658 1285.15 256.468 1285.15 Z" fill="#000000" fill-rule="nonzero" fill-opacity="1" /><path clip-path="url(#clip240)" d="M256.468 1057.42 Q252.857 1057.42 251.029 1060.99 Q249.223 1064.53 249.223 1071.66 Q249.223 1078.77 251.029 1082.33 Q252.857 1085.87 256.468 1085.87 Q260.103 1085.87 261.908 1082.33 Q263.737 1078.77 263.737 1071.66 Q263.737 1064.53 261.908 1060.99 Q260.103 1057.42 256.468 1057.42 M256.468 1053.72 Q262.278 1053.72 265.334 1058.33 Q268.413 1062.91 268.413 1071.66 Q268.413 1080.39 265.334 1084.99 Q262.278 1089.58 256.468 1089.58 Q250.658 1089.58 247.579 1084.99 Q244.524 1080.39 244.524 1071.66 Q244.524 1062.91 247.579 1058.33 Q250.658 1053.72 256.468 1053.72 Z" fill="#000000" fill-rule="nonzero" fill-opacity="1" /><path clip-path="url(#clip240)" d="M156.793 853.541 L164.432 853.541 L164.432 827.176 L156.122 828.842 L156.122 824.583 L164.385 822.916 L169.061 822.916 L169.061 853.541 L176.7 853.541 L176.7 857.476 L156.793 857.476 L156.793 853.541 Z" fill="#000000" fill-rule="nonzero" fill-opacity="1" /><path clip-path="url(#clip240)" d="M196.145 825.995 Q192.533 825.995 190.705 829.56 Q188.899 833.102 188.899 840.231 Q188.899 847.338 190.705 850.902 Q192.533 854.444 196.145 854.444 Q199.779 854.444 201.584 850.902 Q203.413 847.338 203.413 840.231 Q203.413 833.102 201.584 829.56 Q199.779 825.995 196.145 825.995 M196.145 822.291 Q201.955 822.291 205.01 826.898 Q208.089 831.481 208.089 840.231 Q208.089 848.958 205.01 853.564 Q201.955 858.148 196.145 858.148 Q190.334 858.148 187.256 853.564 Q184.2 848.958 184.2 840.231 Q184.2 831.481 187.256 826.898 Q190.334 822.291 196.145 822.291 Z" fill="#000000" fill-rule="nonzero" fill-opacity="1" /><path clip-path="url(#clip240)" d="M226.306 825.995 Q222.695 825.995 220.867 829.56 Q219.061 833.102 219.061 840.231 Q219.061 847.338 220.867 850.902 Q222.695 854.444 226.306 854.444 Q229.941 854.444 231.746 850.902 Q233.575 847.338 233.575 840.231 Q233.575 833.102 231.746 829.56 Q229.941 825.995 226.306 825.995 M226.306 822.291 Q232.117 822.291 235.172 826.898 Q238.251 831.481 238.251 840.231 Q238.251 848.958 235.172 853.564 Q232.117 858.148 226.306 858.148 Q220.496 858.148 217.418 853.564 Q214.362 848.958 214.362 840.231 Q214.362 831.481 217.418 826.898 Q220.496 822.291 226.306 822.291 Z" fill="#000000" fill-rule="nonzero" fill-opacity="1" /><path clip-path="url(#clip240)" d="M256.468 825.995 Q252.857 825.995 251.029 829.56 Q249.223 833.102 249.223 840.231 Q249.223 847.338 251.029 850.902 Q252.857 854.444 256.468 854.444 Q260.103 854.444 261.908 850.902 Q263.737 847.338 263.737 840.231 Q263.737 833.102 261.908 829.56 Q260.103 825.995 256.468 825.995 M256.468 822.291 Q262.278 822.291 265.334 826.898 Q268.413 831.481 268.413 840.231 Q268.413 848.958 265.334 853.564 Q262.278 858.148 256.468 858.148 Q250.658 858.148 247.579 853.564 Q244.524 848.958 244.524 840.231 Q244.524 831.481 247.579 826.898 Q250.658 822.291 256.468 822.291 Z" fill="#000000" fill-rule="nonzero" fill-opacity="1" /><path clip-path="url(#clip240)" d="M160.011 622.114 L176.33 622.114 L176.33 626.049 L154.386 626.049 L154.386 622.114 Q157.048 619.359 161.631 614.73 Q166.237 610.077 167.418 608.734 Q169.663 606.211 170.543 604.475 Q171.446 602.716 171.446 601.026 Q171.446 598.271 169.501 596.535 Q167.58 594.799 164.478 594.799 Q162.279 594.799 159.825 595.563 Q157.395 596.327 154.617 597.878 L154.617 593.156 Q157.441 592.021 159.895 591.443 Q162.348 590.864 164.385 590.864 Q169.756 590.864 172.95 593.549 Q176.145 596.234 176.145 600.725 Q176.145 602.855 175.334 604.776 Q174.547 606.674 172.441 609.267 Q171.862 609.938 168.76 613.156 Q165.659 616.35 160.011 622.114 Z" fill="#000000" fill-rule="nonzero" fill-opacity="1" /><path clip-path="url(#clip240)" d="M196.145 594.568 Q192.533 594.568 190.705 598.133 Q188.899 601.674 188.899 608.804 Q188.899 615.91 190.705 619.475 Q192.533 623.017 196.145 623.017 Q199.779 623.017 201.584 619.475 Q203.413 615.91 203.413 608.804 Q203.413 601.674 201.584 598.133 Q199.779 594.568 196.145 594.568 M196.145 590.864 Q201.955 590.864 205.01 595.471 Q208.089 600.054 208.089 608.804 Q208.089 617.531 205.01 622.137 Q201.955 626.72 196.145 626.72 Q190.334 626.72 187.256 622.137 Q184.2 617.531 184.2 608.804 Q184.2 600.054 187.256 595.471 Q190.334 590.864 196.145 590.864 Z" fill="#000000" fill-rule="nonzero" fill-opacity="1" /><path clip-path="url(#clip240)" d="M226.306 594.568 Q222.695 594.568 220.867 598.133 Q219.061 601.674 219.061 608.804 Q219.061 615.91 220.867 619.475 Q222.695 623.017 226.306 623.017 Q229.941 623.017 231.746 619.475 Q233.575 615.91 233.575 608.804 Q233.575 601.674 231.746 598.133 Q229.941 594.568 226.306 594.568 M226.306 590.864 Q232.117 590.864 235.172 595.471 Q238.251 600.054 238.251 608.804 Q238.251 617.531 235.172 622.137 Q232.117 626.72 226.306 626.72 Q220.496 626.72 217.418 622.137 Q214.362 617.531 214.362 608.804 Q214.362 600.054 217.418 595.471 Q220.496 590.864 226.306 590.864 Z" fill="#000000" fill-rule="nonzero" fill-opacity="1" /><path clip-path="url(#clip240)" d="M256.468 594.568 Q252.857 594.568 251.029 598.133 Q249.223 601.674 249.223 608.804 Q249.223 615.91 251.029 619.475 Q252.857 623.017 256.468 623.017 Q260.103 623.017 261.908 619.475 Q263.737 615.91 263.737 608.804 Q263.737 601.674 261.908 598.133 Q260.103 594.568 256.468 594.568 M256.468 590.864 Q262.278 590.864 265.334 595.471 Q268.413 600.054 268.413 608.804 Q268.413 617.531 265.334 622.137 Q262.278 626.72 256.468 626.72 Q250.658 626.72 247.579 622.137 Q244.524 617.531 244.524 608.804 Q244.524 600.054 247.579 595.471 Q250.658 590.864 256.468 590.864 Z" fill="#000000" fill-rule="nonzero" fill-opacity="1" /><path clip-path="url(#clip240)" d="M170.149 375.988 Q173.506 376.705 175.381 378.974 Q177.279 381.242 177.279 384.575 Q177.279 389.691 173.76 392.492 Q170.242 395.293 163.76 395.293 Q161.585 395.293 159.27 394.853 Q156.978 394.437 154.524 393.58 L154.524 389.066 Q156.469 390.2 158.784 390.779 Q161.098 391.358 163.622 391.358 Q168.02 391.358 170.311 389.622 Q172.626 387.886 172.626 384.575 Q172.626 381.52 170.473 379.807 Q168.344 378.071 164.524 378.071 L160.497 378.071 L160.497 374.228 L164.71 374.228 Q168.159 374.228 169.987 372.863 Q171.816 371.474 171.816 368.881 Q171.816 366.219 169.918 364.807 Q168.043 363.372 164.524 363.372 Q162.603 363.372 160.404 363.789 Q158.205 364.205 155.566 365.085 L155.566 360.918 Q158.228 360.177 160.543 359.807 Q162.881 359.437 164.941 359.437 Q170.265 359.437 173.367 361.867 Q176.469 364.275 176.469 368.395 Q176.469 371.265 174.825 373.256 Q173.182 375.224 170.149 375.988 Z" fill="#000000" fill-rule="nonzero" fill-opacity="1" /><path clip-path="url(#clip240)" d="M196.145 363.14 Q192.533 363.14 190.705 366.705 Q188.899 370.247 188.899 377.376 Q188.899 384.483 190.705 388.048 Q192.533 391.589 196.145 391.589 Q199.779 391.589 201.584 388.048 Q203.413 384.483 203.413 377.376 Q203.413 370.247 201.584 366.705 Q199.779 363.14 196.145 363.14 M196.145 359.437 Q201.955 359.437 205.01 364.043 Q208.089 368.626 208.089 377.376 Q208.089 386.103 205.01 390.71 Q201.955 395.293 196.145 395.293 Q190.334 395.293 187.256 390.71 Q184.2 386.103 184.2 377.376 Q184.2 368.626 187.256 364.043 Q190.334 359.437 196.145 359.437 Z" fill="#000000" fill-rule="nonzero" fill-opacity="1" /><path clip-path="url(#clip240)" d="M226.306 363.14 Q222.695 363.14 220.867 366.705 Q219.061 370.247 219.061 377.376 Q219.061 384.483 220.867 388.048 Q222.695 391.589 226.306 391.589 Q229.941 391.589 231.746 388.048 Q233.575 384.483 233.575 377.376 Q233.575 370.247 231.746 366.705 Q229.941 363.14 226.306 363.14 M226.306 359.437 Q232.117 359.437 235.172 364.043 Q238.251 368.626 238.251 377.376 Q238.251 386.103 235.172 390.71 Q232.117 395.293 226.306 395.293 Q220.496 395.293 217.418 390.71 Q214.362 386.103 214.362 377.376 Q214.362 368.626 217.418 364.043 Q220.496 359.437 226.306 359.437 Z" fill="#000000" fill-rule="nonzero" fill-opacity="1" /><path clip-path="url(#clip240)" d="M256.468 363.14 Q252.857 363.14 251.029 366.705 Q249.223 370.247 249.223 377.376 Q249.223 384.483 251.029 388.048 Q252.857 391.589 256.468 391.589 Q260.103 391.589 261.908 388.048 Q263.737 384.483 263.737 377.376 Q263.737 370.247 261.908 366.705 Q260.103 363.14 256.468 363.14 M256.468 359.437 Q262.278 359.437 265.334 364.043 Q268.413 368.626 268.413 377.376 Q268.413 386.103 265.334 390.71 Q262.278 395.293 256.468 395.293 Q250.658 395.293 247.579 390.71 Q244.524 386.103 244.524 377.376 Q244.524 368.626 247.579 364.043 Q250.658 359.437 256.468 359.437 Z" fill="#000000" fill-rule="nonzero" fill-opacity="1" /><path clip-path="url(#clip240)" d="M168.83 132.708 L157.024 151.157 L168.83 151.157 L168.83 132.708 M167.603 128.634 L173.483 128.634 L173.483 151.157 L178.413 151.157 L178.413 155.046 L173.483 155.046 L173.483 163.194 L168.83 163.194 L168.83 155.046 L153.228 155.046 L153.228 150.532 L167.603 128.634 Z" fill="#000000" fill-rule="nonzero" fill-opacity="1" /><path clip-path="url(#clip240)" d="M196.145 131.713 Q192.533 131.713 190.705 135.278 Q188.899 138.819 188.899 145.949 Q188.899 153.055 190.705 156.62 Q192.533 160.162 196.145 160.162 Q199.779 160.162 201.584 156.62 Q203.413 153.055 203.413 145.949 Q203.413 138.819 201.584 135.278 Q199.779 131.713 196.145 131.713 M196.145 128.009 Q201.955 128.009 205.01 132.616 Q208.089 137.199 208.089 145.949 Q208.089 154.676 205.01 159.282 Q201.955 163.866 196.145 163.866 Q190.334 163.866 187.256 159.282 Q184.2 154.676 184.2 145.949 Q184.2 137.199 187.256 132.616 Q190.334 128.009 196.145 128.009 Z" fill="#000000" fill-rule="nonzero" fill-opacity="1" /><path clip-path="url(#clip240)" d="M226.306 131.713 Q222.695 131.713 220.867 135.278 Q219.061 138.819 219.061 145.949 Q219.061 153.055 220.867 156.62 Q222.695 160.162 226.306 160.162 Q229.941 160.162 231.746 156.62 Q233.575 153.055 233.575 145.949 Q233.575 138.819 231.746 135.278 Q229.941 131.713 226.306 131.713 M226.306 128.009 Q232.117 128.009 235.172 132.616 Q238.251 137.199 238.251 145.949 Q238.251 154.676 235.172 159.282 Q232.117 163.866 226.306 163.866 Q220.496 163.866 217.418 159.282 Q214.362 154.676 214.362 145.949 Q214.362 137.199 217.418 132.616 Q220.496 128.009 226.306 128.009 Z" fill="#000000" fill-rule="nonzero" fill-opacity="1" /><path clip-path="url(#clip240)" d="M256.468 131.713 Q252.857 131.713 251.029 135.278 Q249.223 138.819 249.223 145.949 Q249.223 153.055 251.029 156.62 Q252.857 160.162 256.468 160.162 Q260.103 160.162 261.908 156.62 Q263.737 153.055 263.737 145.949 Q263.737 138.819 261.908 135.278 Q260.103 131.713 256.468 131.713 M256.468 128.009 Q262.278 128.009 265.334 132.616 Q268.413 137.199 268.413 145.949 Q268.413 154.676 265.334 159.282 Q262.278 163.866 256.468 163.866 Q250.658 163.866 247.579 159.282 Q244.524 154.676 244.524 145.949 Q244.524 137.199 247.579 132.616 Q250.658 128.009 256.468 128.009 Z" fill="#000000" fill-rule="nonzero" fill-opacity="1" /><path clip-path="url(#clip240)" d="M14.1184 1238.34 L14.1184 1211.03 L19.5293 1211.03 L19.5293 1231.91 L33.5338 1231.91 L33.5338 1213.07 L38.9447 1213.07 L38.9447 1231.91 L61.6384 1231.91 L61.6384 1238.34 L14.1184 1238.34 Z" fill="#000000" fill-rule="nonzero" fill-opacity="1" /><path clip-path="url(#clip240)" d="M30.0964 1189.61 Q30.0964 1194.32 33.7885 1197.06 Q37.4488 1199.79 43.8463 1199.79 Q50.2438 1199.79 53.9359 1197.09 Q57.5962 1194.35 57.5962 1189.61 Q57.5962 1184.93 53.9041 1182.19 Q50.212 1179.46 43.8463 1179.46 Q37.5124 1179.46 33.8203 1182.19 Q30.0964 1184.93 30.0964 1189.61 M25.1311 1189.61 Q25.1311 1181.97 30.0964 1177.61 Q35.0616 1173.25 43.8463 1173.25 Q52.5991 1173.25 57.5962 1177.61 Q62.5615 1181.97 62.5615 1189.61 Q62.5615 1197.28 57.5962 1201.64 Q52.5991 1205.97 43.8463 1205.97 Q35.0616 1205.97 30.0964 1201.64 Q25.1311 1197.28 25.1311 1189.61 Z" fill="#000000" fill-rule="nonzero" fill-opacity="1" /><path clip-path="url(#clip240)" d="M31.465 1142.88 Q30.8921 1143.87 30.6375 1145.05 Q30.351 1146.2 30.351 1147.6 Q30.351 1152.56 33.5975 1155.23 Q36.8122 1157.88 42.8596 1157.88 L61.6384 1157.88 L61.6384 1163.76 L25.9905 1163.76 L25.9905 1157.88 L31.5287 1157.88 Q28.2821 1156.03 26.7225 1153.07 Q25.1311 1150.11 25.1311 1145.88 Q25.1311 1145.27 25.2266 1144.54 Q25.2903 1143.81 25.4494 1142.92 L31.465 1142.88 Z" fill="#000000" fill-rule="nonzero" fill-opacity="1" /><path clip-path="url(#clip240)" d="M27.3591 1112.52 L32.8336 1112.52 Q31.465 1115 30.7966 1117.52 Q30.0964 1120 30.0964 1122.55 Q30.0964 1128.24 33.7248 1131.39 Q37.3214 1134.55 43.8463 1134.55 Q50.3711 1134.55 53.9996 1131.39 Q57.5962 1128.24 57.5962 1122.55 Q57.5962 1120 56.9278 1117.52 Q56.2276 1115 54.859 1112.52 L60.2698 1112.52 Q61.4156 1114.97 61.9886 1117.61 Q62.5615 1120.22 62.5615 1123.18 Q62.5615 1131.24 57.5007 1135.98 Q52.44 1140.72 43.8463 1140.72 Q35.1253 1140.72 30.1282 1135.95 Q25.1311 1131.14 25.1311 1122.8 Q25.1311 1120.1 25.704 1117.52 Q26.2451 1114.94 27.3591 1112.52 Z" fill="#000000" fill-rule="nonzero" fill-opacity="1" /><path clip-path="url(#clip240)" d="M42.3504 1071.84 L45.2149 1071.84 L45.2149 1098.77 Q51.2623 1098.39 54.4452 1095.14 Q57.5962 1091.86 57.5962 1086.04 Q57.5962 1082.67 56.7687 1079.51 Q55.9411 1076.33 54.2861 1073.21 L59.8242 1073.21 Q61.161 1076.36 61.8612 1079.67 Q62.5615 1082.98 62.5615 1086.39 Q62.5615 1094.92 57.5962 1099.92 Q52.631 1104.88 44.1646 1104.88 Q35.4117 1104.88 30.2873 1100.17 Q25.1311 1095.43 25.1311 1087.41 Q25.1311 1080.21 29.7781 1076.04 Q34.3932 1071.84 42.3504 1071.84 M40.6316 1077.7 Q35.8255 1077.76 32.9609 1080.41 Q30.0964 1083.02 30.0964 1087.34 Q30.0964 1092.25 32.8654 1095.21 Q35.6345 1098.13 40.6634 1098.58 L40.6316 1077.7 Z" fill="#000000" fill-rule="nonzero" fill-opacity="1" /><path clip-path="url(#clip240)" d="M30.0964 1027.7 Q30.0964 1032.41 33.7885 1035.15 Q37.4488 1037.88 43.8463 1037.88 Q50.2438 1037.88 53.9359 1035.18 Q57.5962 1032.44 57.5962 1027.7 Q57.5962 1023.02 53.9041 1020.28 Q50.212 1017.54 43.8463 1017.54 Q37.5124 1017.54 33.8203 1020.28 Q30.0964 1023.02 30.0964 1027.7 M25.1311 1027.7 Q25.1311 1020.06 30.0964 1015.7 Q35.0616 1011.34 43.8463 1011.34 Q52.5991 1011.34 57.5962 1015.7 Q62.5615 1020.06 62.5615 1027.7 Q62.5615 1035.37 57.5962 1039.73 Q52.5991 1044.06 43.8463 1044.06 Q35.0616 1044.06 30.0964 1039.73 Q25.1311 1035.37 25.1311 1027.7 Z" fill="#000000" fill-rule="nonzero" fill-opacity="1" /><path clip-path="url(#clip240)" d="M12.1132 983.583 L16.983 983.583 L16.983 989.185 Q16.983 992.336 18.2562 993.577 Q19.5293 994.787 22.8395 994.787 L25.9905 994.787 L25.9905 985.143 L30.542 985.143 L30.542 994.787 L61.6384 994.787 L61.6384 1000.67 L30.542 1000.67 L30.542 1006.28 L25.9905 1006.28 L25.9905 1000.67 L23.5079 1000.67 Q17.5559 1000.67 14.8505 997.906 Q12.1132 995.137 12.1132 989.121 L12.1132 983.583 Z" fill="#000000" fill-rule="nonzero" fill-opacity="1" /><path clip-path="url(#clip240)" d="M25.9905 957.961 L25.9905 952.105 L61.6384 952.105 L61.6384 957.961 L25.9905 957.961 M12.1132 957.961 L12.1132 952.105 L19.5293 952.105 L19.5293 957.961 L12.1132 957.961 Z" fill="#000000" fill-rule="nonzero" fill-opacity="1" /><path clip-path="url(#clip240)" d="M40.1224 910.218 L61.6384 910.218 L61.6384 916.075 L40.3133 916.075 Q35.2526 916.075 32.7381 918.048 Q30.2237 920.021 30.2237 923.968 Q30.2237 928.711 33.2474 931.448 Q36.2711 934.185 41.491 934.185 L61.6384 934.185 L61.6384 940.073 L25.9905 940.073 L25.9905 934.185 L31.5287 934.185 Q28.314 932.084 26.7225 929.252 Q25.1311 926.387 25.1311 922.663 Q25.1311 916.52 28.9505 913.369 Q32.7381 910.218 40.1224 910.218 Z" fill="#000000" fill-rule="nonzero" fill-opacity="1" /><path clip-path="url(#clip240)" d="M12.1132 880.49 L16.983 880.49 L16.983 886.092 Q16.983 889.243 18.2562 890.485 Q19.5293 891.694 22.8395 891.694 L25.9905 891.694 L25.9905 882.05 L30.542 882.05 L30.542 891.694 L61.6384 891.694 L61.6384 897.582 L30.542 897.582 L30.542 903.184 L25.9905 903.184 L25.9905 897.582 L23.5079 897.582 Q17.5559 897.582 14.8505 894.813 Q12.1132 892.044 12.1132 886.029 L12.1132 880.49 Z" fill="#000000" fill-rule="nonzero" fill-opacity="1" /><path clip-path="url(#clip240)" d="M42.3504 845.097 L45.2149 845.097 L45.2149 872.024 Q51.2623 871.642 54.4452 868.396 Q57.5962 865.117 57.5962 859.293 Q57.5962 855.919 56.7687 852.768 Q55.9411 849.585 54.2861 846.466 L59.8242 846.466 Q61.161 849.617 61.8612 852.927 Q62.5615 856.237 62.5615 859.643 Q62.5615 868.173 57.5962 873.17 Q52.631 878.135 44.1646 878.135 Q35.4117 878.135 30.2873 873.424 Q25.1311 868.682 25.1311 860.661 Q25.1311 853.468 29.7781 849.298 Q34.3932 845.097 42.3504 845.097 M40.6316 850.954 Q35.8255 851.017 32.9609 853.659 Q30.0964 856.269 30.0964 860.598 Q30.0964 865.499 32.8654 868.459 Q35.6345 871.387 40.6634 871.833 L40.6316 850.954 Z" fill="#000000" fill-rule="nonzero" fill-opacity="1" /><path clip-path="url(#clip240)" d="M27.3591 809.831 L32.8336 809.831 Q31.465 812.314 30.7966 814.828 Q30.0964 817.311 30.0964 819.857 Q30.0964 825.554 33.7248 828.705 Q37.3214 831.856 43.8463 831.856 Q50.3711 831.856 53.9996 828.705 Q57.5962 825.554 57.5962 819.857 Q57.5962 817.311 56.9278 814.828 Q56.2276 812.314 54.859 809.831 L60.2698 809.831 Q61.4156 812.282 61.9886 814.924 Q62.5615 817.534 62.5615 820.494 Q62.5615 828.546 57.5007 833.289 Q52.44 838.031 43.8463 838.031 Q35.1253 838.031 30.1282 833.257 Q25.1311 828.451 25.1311 820.112 Q25.1311 817.406 25.704 814.828 Q26.2451 812.25 27.3591 809.831 Z" fill="#000000" fill-rule="nonzero" fill-opacity="1" /><path clip-path="url(#clip240)" d="M15.869 793.853 L25.9905 793.853 L25.9905 781.79 L30.542 781.79 L30.542 793.853 L49.8937 793.853 Q54.2542 793.853 55.4955 792.675 Q56.7368 791.466 56.7368 787.806 L56.7368 781.79 L61.6384 781.79 L61.6384 787.806 Q61.6384 794.585 59.124 797.163 Q56.5777 799.741 49.8937 799.741 L30.542 799.741 L30.542 804.038 L25.9905 804.038 L25.9905 799.741 L15.869 799.741 L15.869 793.853 Z" fill="#000000" fill-rule="nonzero" fill-opacity="1" /><path clip-path="url(#clip240)" d="M25.9905 774.088 L25.9905 768.231 L61.6384 768.231 L61.6384 774.088 L25.9905 774.088 M12.1132 774.088 L12.1132 768.231 L19.5293 768.231 L19.5293 774.088 L12.1132 774.088 Z" fill="#000000" fill-rule="nonzero" fill-opacity="1" /><path clip-path="url(#clip240)" d="M30.0964 742.164 Q30.0964 746.874 33.7885 749.611 Q37.4488 752.349 43.8463 752.349 Q50.2438 752.349 53.9359 749.643 Q57.5962 746.906 57.5962 742.164 Q57.5962 737.485 53.9041 734.748 Q50.212 732.01 43.8463 732.01 Q37.5124 732.01 33.8203 734.748 Q30.0964 737.485 30.0964 742.164 M25.1311 742.164 Q25.1311 734.525 30.0964 730.164 Q35.0616 725.804 43.8463 725.804 Q52.5991 725.804 57.5962 730.164 Q62.5615 734.525 62.5615 742.164 Q62.5615 749.834 57.5962 754.195 Q52.5991 758.523 43.8463 758.523 Q35.0616 758.523 30.0964 754.195 Q25.1311 749.834 25.1311 742.164 Z" fill="#000000" fill-rule="nonzero" fill-opacity="1" /><path clip-path="url(#clip240)" d="M40.1224 686.464 L61.6384 686.464 L61.6384 692.32 L40.3133 692.32 Q35.2526 692.32 32.7381 694.293 Q30.2237 696.267 30.2237 700.214 Q30.2237 704.956 33.2474 707.693 Q36.2711 710.431 41.491 710.431 L61.6384 710.431 L61.6384 716.319 L25.9905 716.319 L25.9905 710.431 L31.5287 710.431 Q28.314 708.33 26.7225 705.497 Q25.1311 702.633 25.1311 698.909 Q25.1311 692.766 28.9505 689.615 Q32.7381 686.464 40.1224 686.464 Z" fill="#000000" fill-rule="nonzero" fill-opacity="1" /><path clip-path="url(#clip240)" d="M17.6832 640.026 L61.6384 623.57 L61.6384 629.777 L35.2844 639.771 L61.6384 652.057 L61.6384 658.264 L27.4546 642.636 L21.1525 644.991 Q17.1422 646.487 17.1422 649.893 L17.1422 652.948 L12.1132 652.948 L12.1769 649.224 Q12.2724 642.031 17.6832 640.026 Z" fill="#000000" fill-rule="nonzero" fill-opacity="1" /><path clip-path="url(#clip240)" d="M762.514 16.7545 L762.514 25.383 Q758.382 21.5346 753.683 19.6307 Q749.025 17.7268 743.759 17.7268 Q733.388 17.7268 727.879 24.0867 Q722.37 30.4061 722.37 42.3968 Q722.37 54.3469 727.879 60.7069 Q733.388 67.0263 743.759 67.0263 Q749.025 67.0263 753.683 65.1223 Q758.382 63.2184 762.514 59.3701 L762.514 67.9175 Q758.22 70.8341 753.4 72.2924 Q748.62 73.7508 743.273 73.7508 Q729.54 73.7508 721.641 65.3654 Q713.741 56.9395 713.741 42.3968 Q713.741 27.8135 721.641 19.4281 Q729.54 11.0023 743.273 11.0023 Q748.701 11.0023 753.481 12.4606 Q758.301 13.8784 762.514 16.7545 Z" fill="#000000" fill-rule="nonzero" fill-opacity="1" /><path clip-path="url(#clip240)" d="M795.448 49.7694 Q786.415 49.7694 782.931 51.8354 Q779.447 53.9013 779.447 58.8839 Q779.447 62.8538 782.04 65.2034 Q784.673 67.5124 789.169 67.5124 Q795.367 67.5124 799.094 63.1374 Q802.861 58.7219 802.861 51.4303 L802.861 49.7694 L795.448 49.7694 M810.315 46.6907 L810.315 72.576 L802.861 72.576 L802.861 65.6895 Q800.309 69.8214 796.501 71.8063 Q792.694 73.7508 787.184 73.7508 Q780.217 73.7508 776.085 69.8619 Q771.993 65.9325 771.993 59.3701 Q771.993 51.7138 777.098 47.825 Q782.242 43.9361 792.41 43.9361 L802.861 43.9361 L802.861 43.2069 Q802.861 38.0623 799.459 35.2672 Q796.096 32.4315 789.979 32.4315 Q786.091 32.4315 782.404 33.3632 Q778.718 34.295 775.315 36.1584 L775.315 29.2718 Q779.407 27.692 783.255 26.9223 Q787.103 26.1121 790.749 26.1121 Q800.593 26.1121 805.454 31.2163 Q810.315 36.3204 810.315 46.6907 Z" fill="#000000" fill-rule="nonzero" fill-opacity="1" /><path clip-path="url(#clip240)" d="M854.591 28.5427 L854.591 35.5912 Q851.432 33.9709 848.029 33.1607 Q844.626 32.3505 840.98 32.3505 Q835.431 32.3505 832.635 34.0519 Q829.881 35.7533 829.881 39.156 Q829.881 41.7486 831.866 43.2475 Q833.851 44.7058 839.846 46.0426 L842.398 46.6097 Q850.338 48.3111 853.66 51.4303 Q857.022 54.509 857.022 60.0587 Q857.022 66.3781 851.999 70.0644 Q847.016 73.7508 838.266 73.7508 Q834.62 73.7508 830.651 73.0216 Q826.721 72.3329 822.346 70.9151 L822.346 63.2184 Q826.478 65.3654 830.488 66.4591 Q834.499 67.5124 838.428 67.5124 Q843.694 67.5124 846.53 65.73 Q849.366 63.9071 849.366 60.6258 Q849.366 57.5877 847.3 55.9673 Q845.274 54.3469 838.347 52.8481 L835.755 52.2405 Q828.828 50.7821 825.749 47.7845 Q822.67 44.7463 822.67 39.4801 Q822.67 33.0797 827.207 29.5959 Q831.744 26.1121 840.089 26.1121 Q844.221 26.1121 847.867 26.7198 Q851.513 27.3274 854.591 28.5427 Z" fill="#000000" fill-rule="nonzero" fill-opacity="1" /><path clip-path="url(#clip240)" d="M907.699 48.0275 L907.699 51.6733 L873.428 51.6733 Q873.914 59.3701 878.046 63.421 Q882.219 67.4314 889.632 67.4314 Q893.926 67.4314 897.936 66.3781 Q901.987 65.3249 905.957 63.2184 L905.957 70.267 Q901.946 71.9684 897.734 72.8596 Q893.521 73.7508 889.186 73.7508 Q878.33 73.7508 871.97 67.4314 Q865.65 61.1119 865.65 50.3365 Q865.65 39.1965 871.646 32.6746 Q877.682 26.1121 887.89 26.1121 Q897.045 26.1121 902.352 32.0264 Q907.699 37.9003 907.699 48.0275 M900.245 45.84 Q900.164 39.7232 896.802 36.0774 Q893.48 32.4315 887.971 32.4315 Q881.732 32.4315 877.965 35.9558 Q874.238 39.4801 873.671 45.8805 L900.245 45.84 Z" fill="#000000" fill-rule="nonzero" fill-opacity="1" /><path clip-path="url(#clip240)" d="M978.873 49.9314 Q978.873 41.7081 975.47 37.0496 Q972.108 32.3505 966.194 32.3505 Q960.279 32.3505 956.877 37.0496 Q953.514 41.7081 953.514 49.9314 Q953.514 58.1548 956.877 62.8538 Q960.279 67.5124 966.194 67.5124 Q972.108 67.5124 975.47 62.8538 Q978.873 58.1548 978.873 49.9314 M953.514 34.0924 Q955.864 30.0415 959.429 28.0971 Q963.034 26.1121 968.017 26.1121 Q976.281 26.1121 981.425 32.6746 Q986.61 39.2371 986.61 49.9314 Q986.61 60.6258 981.425 67.1883 Q976.281 73.7508 968.017 73.7508 Q963.034 73.7508 959.429 71.8063 Q955.864 69.8214 953.514 65.7705 L953.514 72.576 L946.02 72.576 L946.02 9.54393 L953.514 9.54393 L953.514 34.0924 Z" fill="#000000" fill-rule="nonzero" fill-opacity="1" /><path clip-path="url(#clip240)" d="M1016.55 32.4315 Q1010.55 32.4315 1007.07 37.1306 Q1003.58 41.7891 1003.58 49.9314 Q1003.58 58.0738 1007.03 62.7728 Q1010.51 67.4314 1016.55 67.4314 Q1022.5 67.4314 1025.99 62.7323 Q1029.47 58.0333 1029.47 49.9314 Q1029.47 41.8701 1025.99 37.1711 Q1022.5 32.4315 1016.55 32.4315 M1016.55 26.1121 Q1026.27 26.1121 1031.82 32.4315 Q1037.37 38.7509 1037.37 49.9314 Q1037.37 61.0714 1031.82 67.4314 Q1026.27 73.7508 1016.55 73.7508 Q1006.78 73.7508 1001.23 67.4314 Q995.725 61.0714 995.725 49.9314 Q995.725 38.7509 1001.23 32.4315 Q1006.78 26.1121 1016.55 26.1121 Z" fill="#000000" fill-rule="nonzero" fill-opacity="1" /><path clip-path="url(#clip240)" d="M1067.3 32.4315 Q1061.31 32.4315 1057.83 37.1306 Q1054.34 41.7891 1054.34 49.9314 Q1054.34 58.0738 1057.78 62.7728 Q1061.27 67.4314 1067.3 67.4314 Q1073.26 67.4314 1076.74 62.7323 Q1080.23 58.0333 1080.23 49.9314 Q1080.23 41.8701 1076.74 37.1711 Q1073.26 32.4315 1067.3 32.4315 M1067.3 26.1121 Q1077.03 26.1121 1082.58 32.4315 Q1088.13 38.7509 1088.13 49.9314 Q1088.13 61.0714 1082.58 67.4314 Q1077.03 73.7508 1067.3 73.7508 Q1057.54 73.7508 1051.99 67.4314 Q1046.48 61.0714 1046.48 49.9314 Q1046.48 38.7509 1051.99 32.4315 Q1057.54 26.1121 1067.3 26.1121 Z" fill="#000000" fill-rule="nonzero" fill-opacity="1" /><path clip-path="url(#clip240)" d="M1107.85 14.324 L1107.85 27.2059 L1123.21 27.2059 L1123.21 32.9987 L1107.85 32.9987 L1107.85 57.6282 Q1107.85 63.1779 1109.35 64.7578 Q1110.89 66.3376 1115.55 66.3376 L1123.21 66.3376 L1123.21 72.576 L1115.55 72.576 Q1106.92 72.576 1103.64 69.3758 Q1100.36 66.1351 1100.36 57.6282 L1100.36 32.9987 L1094.89 32.9987 L1094.89 27.2059 L1100.36 27.2059 L1100.36 14.324 L1107.85 14.324 Z" fill="#000000" fill-rule="nonzero" fill-opacity="1" /><path clip-path="url(#clip240)" d="M1161.93 28.5427 L1161.93 35.5912 Q1158.77 33.9709 1155.37 33.1607 Q1151.97 32.3505 1148.32 32.3505 Q1142.77 32.3505 1139.98 34.0519 Q1137.22 35.7533 1137.22 39.156 Q1137.22 41.7486 1139.21 43.2475 Q1141.19 44.7058 1147.19 46.0426 L1149.74 46.6097 Q1157.68 48.3111 1161 51.4303 Q1164.36 54.509 1164.36 60.0587 Q1164.36 66.3781 1159.34 70.0644 Q1154.36 73.7508 1145.61 73.7508 Q1141.96 73.7508 1137.99 73.0216 Q1134.06 72.3329 1129.69 70.9151 L1129.69 63.2184 Q1133.82 65.3654 1137.83 66.4591 Q1141.84 67.5124 1145.77 67.5124 Q1151.04 67.5124 1153.87 65.73 Q1156.71 63.9071 1156.71 60.6258 Q1156.71 57.5877 1154.64 55.9673 Q1152.62 54.3469 1145.69 52.8481 L1143.1 52.2405 Q1136.17 50.7821 1133.09 47.7845 Q1130.01 44.7463 1130.01 39.4801 Q1130.01 33.0797 1134.55 29.5959 Q1139.09 26.1121 1147.43 26.1121 Q1151.56 26.1121 1155.21 26.7198 Q1158.85 27.3274 1161.93 28.5427 Z" fill="#000000" fill-rule="nonzero" fill-opacity="1" /><path clip-path="url(#clip240)" d="M1183.61 14.324 L1183.61 27.2059 L1198.96 27.2059 L1198.96 32.9987 L1183.61 32.9987 L1183.61 57.6282 Q1183.61 63.1779 1185.1 64.7578 Q1186.64 66.3376 1191.3 66.3376 L1198.96 66.3376 L1198.96 72.576 L1191.3 72.576 Q1182.67 72.576 1179.39 69.3758 Q1176.11 66.1351 1176.11 57.6282 L1176.11 32.9987 L1170.64 32.9987 L1170.64 27.2059 L1176.11 27.2059 L1176.11 14.324 L1183.61 14.324 Z" fill="#000000" fill-rule="nonzero" fill-opacity="1" /><path clip-path="url(#clip240)" d="M1235.05 34.1734 Q1233.8 33.4443 1232.3 33.1202 Q1230.84 32.7556 1229.06 32.7556 Q1222.74 32.7556 1219.33 36.8875 Q1215.97 40.9789 1215.97 48.6757 L1215.97 72.576 L1208.48 72.576 L1208.48 27.2059 L1215.97 27.2059 L1215.97 34.2544 Q1218.32 30.1225 1222.09 28.1376 Q1225.86 26.1121 1231.24 26.1121 Q1232.01 26.1121 1232.95 26.2337 Q1233.88 26.3147 1235.01 26.5172 L1235.05 34.1734 Z" fill="#000000" fill-rule="nonzero" fill-opacity="1" /><path clip-path="url(#clip240)" d="M1263.49 49.7694 Q1254.46 49.7694 1250.97 51.8354 Q1247.49 53.9013 1247.49 58.8839 Q1247.49 62.8538 1250.08 65.2034 Q1252.71 67.5124 1257.21 67.5124 Q1263.41 67.5124 1267.14 63.1374 Q1270.9 58.7219 1270.9 51.4303 L1270.9 49.7694 L1263.49 49.7694 M1278.36 46.6907 L1278.36 72.576 L1270.9 72.576 L1270.9 65.6895 Q1268.35 69.8214 1264.54 71.8063 Q1260.74 73.7508 1255.23 73.7508 Q1248.26 73.7508 1244.13 69.8619 Q1240.03 65.9325 1240.03 59.3701 Q1240.03 51.7138 1245.14 47.825 Q1250.28 43.9361 1260.45 43.9361 L1270.9 43.9361 L1270.9 43.2069 Q1270.9 38.0623 1267.5 35.2672 Q1264.14 32.4315 1258.02 32.4315 Q1254.13 32.4315 1250.45 33.3632 Q1246.76 34.295 1243.36 36.1584 L1243.36 29.2718 Q1247.45 27.692 1251.3 26.9223 Q1255.14 26.1121 1258.79 26.1121 Q1268.63 26.1121 1273.5 31.2163 Q1278.36 36.3204 1278.36 46.6907 Z" fill="#000000" fill-rule="nonzero" fill-opacity="1" /><path clip-path="url(#clip240)" d="M1300.92 65.7705 L1300.92 89.8329 L1293.43 89.8329 L1293.43 27.2059 L1300.92 27.2059 L1300.92 34.0924 Q1303.27 30.0415 1306.83 28.0971 Q1310.44 26.1121 1315.42 26.1121 Q1323.69 26.1121 1328.83 32.6746 Q1334.02 39.2371 1334.02 49.9314 Q1334.02 60.6258 1328.83 67.1883 Q1323.69 73.7508 1315.42 73.7508 Q1310.44 73.7508 1306.83 71.8063 Q1303.27 69.8214 1300.92 65.7705 M1326.28 49.9314 Q1326.28 41.7081 1322.88 37.0496 Q1319.51 32.3505 1313.6 32.3505 Q1307.69 32.3505 1304.28 37.0496 Q1300.92 41.7081 1300.92 49.9314 Q1300.92 58.1548 1304.28 62.8538 Q1307.69 67.5124 1313.6 67.5124 Q1319.51 67.5124 1322.88 62.8538 Q1326.28 58.1548 1326.28 49.9314 Z" fill="#000000" fill-rule="nonzero" fill-opacity="1" /><path clip-path="url(#clip240)" d="M1348.28 62.2867 L1356.82 62.2867 L1356.82 72.576 L1348.28 72.576 L1348.28 62.2867 M1348.28 29.6769 L1356.82 29.6769 L1356.82 39.9662 L1348.28 39.9662 L1348.28 29.6769 Z" fill="#000000" fill-rule="nonzero" fill-opacity="1" /><path clip-path="url(#clip240)" d="M1399.92 54.671 L1399.92 27.2059 L1407.38 27.2059 L1407.38 54.3874 Q1407.38 60.8284 1409.89 64.0691 Q1412.4 67.2693 1417.42 67.2693 Q1423.46 67.2693 1426.94 63.421 Q1430.47 59.5726 1430.47 52.9291 L1430.47 27.2059 L1437.92 27.2059 L1437.92 72.576 L1430.47 72.576 L1430.47 65.6084 Q1427.75 69.7404 1424.15 71.7658 Q1420.58 73.7508 1415.84 73.7508 Q1408.03 73.7508 1403.98 68.8897 Q1399.92 64.0286 1399.92 54.671 M1418.68 26.1121 L1418.68 26.1121 Z" fill="#000000" fill-rule="nonzero" fill-opacity="1" /><path clip-path="url(#clip240)" d="M1490.99 45.1919 L1490.99 72.576 L1483.53 72.576 L1483.53 45.4349 Q1483.53 38.994 1481.02 35.7938 Q1478.51 32.5936 1473.49 32.5936 Q1467.45 32.5936 1463.97 36.4419 Q1460.49 40.2903 1460.49 46.9338 L1460.49 72.576 L1452.99 72.576 L1452.99 27.2059 L1460.49 27.2059 L1460.49 34.2544 Q1463.16 30.163 1466.76 28.1376 Q1470.41 26.1121 1475.15 26.1121 Q1482.97 26.1121 1486.98 30.9732 Q1490.99 35.7938 1490.99 45.1919 Z" fill="#000000" fill-rule="nonzero" fill-opacity="1" /><path clip-path="url(#clip240)" d="M1505.57 9.54393 L1513.07 9.54393 L1513.07 46.7717 L1535.31 27.2059 L1544.82 27.2059 L1520.76 48.4326 L1545.84 72.576 L1536.12 72.576 L1513.07 50.4176 L1513.07 72.576 L1505.57 72.576 L1505.57 9.54393 Z" fill="#000000" fill-rule="nonzero" fill-opacity="1" /><path clip-path="url(#clip240)" d="M1591.61 45.1919 L1591.61 72.576 L1584.16 72.576 L1584.16 45.4349 Q1584.16 38.994 1581.65 35.7938 Q1579.14 32.5936 1574.11 32.5936 Q1568.08 32.5936 1564.59 36.4419 Q1561.11 40.2903 1561.11 46.9338 L1561.11 72.576 L1553.62 72.576 L1553.62 27.2059 L1561.11 27.2059 L1561.11 34.2544 Q1563.78 30.163 1567.39 28.1376 Q1571.03 26.1121 1575.77 26.1121 Q1583.59 26.1121 1587.6 30.9732 Q1591.61 35.7938 1591.61 45.1919 Z" fill="#000000" fill-rule="nonzero" fill-opacity="1" /><path clip-path="url(#clip240)" d="M1624.06 32.4315 Q1618.07 32.4315 1614.58 37.1306 Q1611.1 41.7891 1611.1 49.9314 Q1611.1 58.0738 1614.54 62.7728 Q1618.02 67.4314 1624.06 67.4314 Q1630.02 67.4314 1633.5 62.7323 Q1636.98 58.0333 1636.98 49.9314 Q1636.98 41.8701 1633.5 37.1711 Q1630.02 32.4315 1624.06 32.4315 M1624.06 26.1121 Q1633.78 26.1121 1639.33 32.4315 Q1644.88 38.7509 1644.88 49.9314 Q1644.88 61.0714 1639.33 67.4314 Q1633.78 73.7508 1624.06 73.7508 Q1614.3 73.7508 1608.75 67.4314 Q1603.24 61.0714 1603.24 49.9314 Q1603.24 38.7509 1608.75 32.4315 Q1614.3 26.1121 1624.06 26.1121 Z" fill="#000000" fill-rule="nonzero" fill-opacity="1" /><path clip-path="url(#clip240)" d="M1652.9 27.2059 L1660.36 27.2059 L1669.67 62.6108 L1678.95 27.2059 L1687.74 27.2059 L1697.06 62.6108 L1706.33 27.2059 L1713.79 27.2059 L1701.92 72.576 L1693.13 72.576 L1683.37 35.3887 L1673.56 72.576 L1664.77 72.576 L1652.9 27.2059 Z" fill="#000000" fill-rule="nonzero" fill-opacity="1" /><path clip-path="url(#clip240)" d="M1762.8 45.1919 L1762.8 72.576 L1755.35 72.576 L1755.35 45.4349 Q1755.35 38.994 1752.84 35.7938 Q1750.33 32.5936 1745.3 32.5936 Q1739.27 32.5936 1735.78 36.4419 Q1732.3 40.2903 1732.3 46.9338 L1732.3 72.576 L1724.81 72.576 L1724.81 27.2059 L1732.3 27.2059 L1732.3 34.2544 Q1734.97 30.163 1738.58 28.1376 Q1742.23 26.1121 1746.97 26.1121 Q1754.78 26.1121 1758.79 30.9732 Q1762.8 35.7938 1762.8 45.1919 Z" fill="#000000" fill-rule="nonzero" fill-opacity="1" /><path clip-path="url(#clip240)" d="M1827.01 9.54393 L1827.01 15.7418 L1819.88 15.7418 Q1815.87 15.7418 1814.29 17.3622 Q1812.75 18.9825 1812.75 23.1955 L1812.75 27.2059 L1825.03 27.2059 L1825.03 32.9987 L1812.75 32.9987 L1812.75 72.576 L1805.26 72.576 L1805.26 32.9987 L1798.13 32.9987 L1798.13 27.2059 L1805.26 27.2059 L1805.26 24.0462 Q1805.26 16.471 1808.78 13.0277 Q1812.31 9.54393 1819.96 9.54393 L1827.01 9.54393 Z" fill="#000000" fill-rule="nonzero" fill-opacity="1" /><path clip-path="url(#clip240)" d="M1832.48 54.671 L1832.48 27.2059 L1839.93 27.2059 L1839.93 54.3874 Q1839.93 60.8284 1842.44 64.0691 Q1844.96 67.2693 1849.98 67.2693 Q1856.02 67.2693 1859.5 63.421 Q1863.02 59.5726 1863.02 52.9291 L1863.02 27.2059 L1870.48 27.2059 L1870.48 72.576 L1863.02 72.576 L1863.02 65.6084 Q1860.31 69.7404 1856.7 71.7658 Q1853.14 73.7508 1848.4 73.7508 Q1840.58 73.7508 1836.53 68.8897 Q1832.48 64.0286 1832.48 54.671 M1851.24 26.1121 L1851.24 26.1121 Z" fill="#000000" fill-rule="nonzero" fill-opacity="1" /><path clip-path="url(#clip240)" d="M1923.54 45.1919 L1923.54 72.576 L1916.09 72.576 L1916.09 45.4349 Q1916.09 38.994 1913.58 35.7938 Q1911.07 32.5936 1906.04 32.5936 Q1900.01 32.5936 1896.52 36.4419 Q1893.04 40.2903 1893.04 46.9338 L1893.04 72.576 L1885.55 72.576 L1885.55 27.2059 L1893.04 27.2059 L1893.04 34.2544 Q1895.71 30.163 1899.32 28.1376 Q1902.97 26.1121 1907.7 26.1121 Q1915.52 26.1121 1919.53 30.9732 Q1923.54 35.7938 1923.54 45.1919 Z" fill="#000000" fill-rule="nonzero" fill-opacity="1" /><path clip-path="url(#clip240)" d="M1971.06 28.9478 L1971.06 35.9153 Q1967.9 34.1734 1964.7 33.3227 Q1961.54 32.4315 1958.3 32.4315 Q1951.05 32.4315 1947.04 37.0496 Q1943.03 41.6271 1943.03 49.9314 Q1943.03 58.2358 1947.04 62.8538 Q1951.05 67.4314 1958.3 67.4314 Q1961.54 67.4314 1964.7 66.5807 Q1967.9 65.6895 1971.06 63.9476 L1971.06 70.8341 Q1967.94 72.2924 1964.58 73.0216 Q1961.26 73.7508 1957.49 73.7508 Q1947.24 73.7508 1941.21 67.3098 Q1935.17 60.8689 1935.17 49.9314 Q1935.17 38.832 1941.25 32.472 Q1947.36 26.1121 1957.98 26.1121 Q1961.42 26.1121 1964.7 26.8413 Q1967.98 27.5299 1971.06 28.9478 Z" fill="#000000" fill-rule="nonzero" fill-opacity="1" /><path clip-path="url(#clip240)" d="M1991.4 14.324 L1991.4 27.2059 L2006.75 27.2059 L2006.75 32.9987 L1991.4 32.9987 L1991.4 57.6282 Q1991.4 63.1779 1992.9 64.7578 Q1994.43 66.3376 1999.09 66.3376 L2006.75 66.3376 L2006.75 72.576 L1999.09 72.576 Q1990.46 72.576 1987.18 69.3758 Q1983.9 66.1351 1983.9 57.6282 L1983.9 32.9987 L1978.43 32.9987 L1978.43 27.2059 L1983.9 27.2059 L1983.9 14.324 L1991.4 14.324 Z" fill="#000000" fill-rule="nonzero" fill-opacity="1" /><path clip-path="url(#clip240)" d="M2016.55 27.2059 L2024.01 27.2059 L2024.01 72.576 L2016.55 72.576 L2016.55 27.2059 M2016.55 9.54393 L2024.01 9.54393 L2024.01 18.9825 L2016.55 18.9825 L2016.55 9.54393 Z" fill="#000000" fill-rule="nonzero" fill-opacity="1" /><path clip-path="url(#clip240)" d="M2057.18 32.4315 Q2051.19 32.4315 2047.7 37.1306 Q2044.22 41.7891 2044.22 49.9314 Q2044.22 58.0738 2047.66 62.7728 Q2051.15 67.4314 2057.18 67.4314 Q2063.14 67.4314 2066.62 62.7323 Q2070.11 58.0333 2070.11 49.9314 Q2070.11 41.8701 2066.62 37.1711 Q2063.14 32.4315 2057.18 32.4315 M2057.18 26.1121 Q2066.91 26.1121 2072.46 32.4315 Q2078 38.7509 2078 49.9314 Q2078 61.0714 2072.46 67.4314 Q2066.91 73.7508 2057.18 73.7508 Q2047.42 73.7508 2041.87 67.4314 Q2036.36 61.0714 2036.36 49.9314 Q2036.36 38.7509 2041.87 32.4315 Q2047.42 26.1121 2057.18 26.1121 Z" fill="#000000" fill-rule="nonzero" fill-opacity="1" /><path clip-path="url(#clip240)" d="M2128.07 45.1919 L2128.07 72.576 L2120.62 72.576 L2120.62 45.4349 Q2120.62 38.994 2118.11 35.7938 Q2115.6 32.5936 2110.57 32.5936 Q2104.54 32.5936 2101.05 36.4419 Q2097.57 40.2903 2097.57 46.9338 L2097.57 72.576 L2090.08 72.576 L2090.08 27.2059 L2097.57 27.2059 L2097.57 34.2544 Q2100.24 30.163 2103.85 28.1376 Q2107.5 26.1121 2112.24 26.1121 Q2120.05 26.1121 2124.06 30.9732 Q2128.07 35.7938 2128.07 45.1919 Z" fill="#000000" fill-rule="nonzero" fill-opacity="1" /><path clip-path="url(#clip240)" d="M2214.93 16.7545 L2214.93 25.383 Q2210.79 21.5346 2206.09 19.6307 Q2201.44 17.7268 2196.17 17.7268 Q2185.8 17.7268 2180.29 24.0867 Q2174.78 30.4061 2174.78 42.3968 Q2174.78 54.3469 2180.29 60.7069 Q2185.8 67.0263 2196.17 67.0263 Q2201.44 67.0263 2206.09 65.1223 Q2210.79 63.2184 2214.93 59.3701 L2214.93 67.9175 Q2210.63 70.8341 2205.81 72.2924 Q2201.03 73.7508 2195.68 73.7508 Q2181.95 73.7508 2174.05 65.3654 Q2166.15 56.9395 2166.15 42.3968 Q2166.15 27.8135 2174.05 19.4281 Q2181.95 11.0023 2195.68 11.0023 Q2201.11 11.0023 2205.89 12.4606 Q2210.71 13.8784 2214.93 16.7545 Z" fill="#000000" fill-rule="nonzero" fill-opacity="1" /><path clip-path="url(#clip240)" d="M2227.56 12.096 L2235.75 12.096 L2235.75 72.576 L2227.56 72.576 L2227.56 12.096 Z" fill="#000000" fill-rule="nonzero" fill-opacity="1" /><polyline clip-path="url(#clip241)" style="stroke:#000000; stroke-linecap:round; stroke-linejoin:round; stroke-width:8; stroke-opacity:1; fill:none" stroke-dasharray="32, 20" points="374.733,1071.62 395.423,1071.62 416.113,1071.62 436.803,1071.62 457.493,1071.62 478.183,1071.62 498.873,1071.62 519.562,1071.62 540.252,1071.62 560.942,1071.62 581.632,1071.62 602.322,1071.62 623.012,1071.62 643.702,1071.62 664.391,1071.62 685.081,1071.62 705.771,1071.62 726.461,1071.62 747.151,1071.62 767.841,1071.62 788.531,1071.62 809.22,1071.62 829.91,1071.62 850.6,1071.62 871.29,1071.62 891.98,1071.62 912.67,1071.62 933.36,1071.62 954.049,1071.62 974.739,1071.62 995.429,1071.62 1016.12,1071.62 1036.81,1071.62 1057.5,1071.62 1078.19,1071.62 1098.88,1071.62 1119.57,1071.62 1140.26,1071.62 1160.95,1071.62 1181.64,1071.61 1202.33,1071.61 1223.02,1071.61 1243.71,1071.61 1264.4,1071.61 1285.09,1071.61 1305.78,1071.61 1326.47,1071.61 1347.16,1071.61 1367.85,1071.61 1388.54,1071.61 1409.23,1071.61 1429.92,1071.61 1450.61,1071.61 1471.3,1071.61 1491.99,1071.61 1512.68,1071.61 1533.37,1071.61 1554.06,1071.61 1574.75,1071.61 1595.44,1071.61 1616.13,1071.61 1636.81,1071.61 1657.5,1071.61 1678.19,1071.61 1698.88,1071.61 1719.57,1071.61 1740.26,1071.61 1760.95,1071.61 1781.64,1071.61 1802.33,1071.61 1823.02,1071.61 1843.71,1071.61 1864.4,1071.61 1885.09,1071.61 1905.78,1071.61 1926.47,1071.61 1947.16,1071.61 1967.85,1071.61 1988.54,1071.61 2009.23,1071.61 2029.92,1071.61 2050.61,1071.61 2071.3,1071.61 2091.99,1071.61 2112.68,1071.61 2133.37,1071.61 2154.06,1071.61 2174.75,1071.61 2195.44,1071.61 2216.13,1071.61 2236.82,1071.61 2257.51,1071.61 2278.2,1071.61 2298.89,1071.61 2319.58,1071.61 2340.27,1071.6 2360.96,1071.6 2381.65,1071.6 2402.34,1071.6 2423.03,1071.6 "/>
<path clip-path="url(#clip241)" d="M374.733 1071.63 L396.956 1071.63 L419.178 1071.62 L441.401 1071.62 L463.623 1071.62 L485.846 1071.62 L508.068 1071.62 L530.29 1071.62 L552.513 1071.62 L574.735 1071.62 L596.958 1071.62 L619.18 1071.62 L641.403 1071.62 L663.625 1071.62 L685.848 1071.62 L708.07 1071.62 L730.292 1071.62 L752.515 1071.62 L774.737 1071.62 L796.96 1071.62 L819.182 1071.62 L841.405 1071.62 L863.627 1071.62 L885.85 1071.62 L908.072 1071.62 L930.294 1071.62 L952.517 1071.62 L974.739 1071.62 L996.962 1071.62 L1019.18 1071.62 L1041.41 1071.62 L1063.63 1071.62 L1085.85 1071.62 L1108.07 1071.62 L1130.3 1071.62 L1152.52 1071.62 L1174.74 1071.62 L1196.96 1071.62 L1219.19 1071.62 L1241.41 1071.62 L1263.63 1071.62 L1285.85 1071.62 L1308.08 1071.62 L1330.3 1071.62 L1352.52 1071.62 L1374.74 1071.63 L1396.97 1071.64 L1419.19 1071.65 L1441.41 1071.65 L1463.63 1071.66 L1485.86 1071.67 L1508.08 1071.68 L1530.3 1071.7 L1552.52 1071.71 L1574.75 1071.73 L1596.97 1073.21 L1619.19 1081.89 L1641.41 1100.97 L1663.64 1120.53 L1685.86 1140.09 L1708.08 1150.7 L1730.3 1158.69 L1752.52 1166.68 L1774.75 1174.67 L1796.97 1182.66 L1819.19 1191.04 L1841.41 1199.41 L1863.64 1207.79 L1885.86 1216.16 L1908.08 1230.76 L1930.3 1245.75 L1952.53 1260.74 L1974.75 1275.73 L1996.97 1290.73 L2019.19 1306.02 L2041.42 1321.33 L2063.64 1336.63 L2085.86 1351.94 L2108.08 1367.25 L2130.31 1382.55 L2152.53 1397.86 L2174.75 1413.16 L2196.97 1428.47 L2219.2 1443.77 L2241.42 1459.08 L2263.64 1474.38 L2285.86 1489.69 L2308.09 1504.99 L2330.31 1520.3 L2352.53 1535.6 L2374.75 1550.91 L2396.98 1566.21 L2419.2 1581.52 L2441.42 1596.82 L2463.64 1612.13 L2485.87 1627.43 L2508.09 1642.74 L2530.31 1658.04 L2552.53 1673.35 L2574.76 1688.65 L2574.76 1068.44 L2552.53 1068.63 L2530.31 1068.82 L2508.09 1069.01 L2485.87 1069.22 L2463.64 1069.5 L2441.42 1069.77 L2419.2 1070.03 L2396.98 1070.28 L2374.75 1070.51 L2352.53 1070.78 L2330.31 1070.93 L2308.09 1071.1 L2285.86 1071.16 L2263.64 1071.16 L2241.42 1071.16 L2219.2 1071.16 L2196.97 1071.17 L2174.75 1071.18 L2152.53 1071.2 L2130.31 1071.23 L2108.08 1071.25 L2085.86 1071.29 L2063.64 1071.33 L2041.42 1071.38 L2019.19 1071.43 L1996.97 1071.46 L1974.75 1071.48 L1952.53 1071.5 L1930.3 1071.51 L1908.08 1071.53 L1885.86 1071.55 L1863.64 1071.56 L1841.41 1071.56 L1819.19 1071.57 L1796.97 1071.58 L1774.75 1071.59 L1752.52 1071.6 L1730.3 1071.59 L1708.08 1071.6 L1685.86 1071.6 L1663.64 1071.6 L1641.41 1071.6 L1619.19 1071.6 L1596.97 1071.59 L1574.75 1066.77 L1552.52 1060.46 L1530.3 1054.14 L1508.08 1047.82 L1485.86 1041.5 L1463.63 1035.18 L1441.41 1028.86 L1419.19 1022.54 L1396.97 1016.22 L1374.74 1009.91 L1352.52 989.289 L1330.3 964.786 L1308.08 940.284 L1285.85 915.781 L1263.63 890.984 L1241.41 865.168 L1219.19 839.352 L1196.96 813.536 L1174.74 787.72 L1152.52 761.904 L1130.3 736.088 L1108.07 710.272 L1085.85 684.456 L1063.63 658.64 L1041.41 632.824 L1019.18 617.189 L996.962 601.881 L974.739 586.573 L952.517 571.264 L930.294 555.956 L908.072 540.648 L885.85 525.34 L863.627 510.031 L841.405 494.723 L819.182 479.415 L796.96 464.107 L774.737 448.799 L752.515 433.491 L730.292 418.182 L708.07 402.874 L685.848 387.566 L663.625 372.258 L641.403 356.95 L619.18 341.642 L596.958 326.334 L574.735 311.026 L552.513 295.718 L530.29 280.41 L508.068 265.102 L485.846 249.794 L463.623 234.486 L441.401 219.178 L419.178 203.87 L396.956 188.562 L374.733 173.254  Z" fill="#008000" fill-rule="evenodd" fill-opacity="0.2"/>
<polyline clip-path="url(#clip241)" style="stroke:#008000; stroke-linecap:round; stroke-linejoin:round; stroke-width:0; stroke-opacity:1; fill:none" stroke-dasharray="1, 2" points="374.733,1071.63 396.956,1071.63 419.178,1071.62 441.401,1071.62 463.623,1071.62 485.846,1071.62 508.068,1071.62 530.29,1071.62 552.513,1071.62 574.735,1071.62 596.958,1071.62 619.18,1071.62 641.403,1071.62 663.625,1071.62 685.848,1071.62 708.07,1071.62 730.292,1071.62 752.515,1071.62 774.737,1071.62 796.96,1071.62 819.182,1071.62 841.405,1071.62 863.627,1071.62 885.85,1071.62 908.072,1071.62 930.294,1071.62 952.517,1071.62 974.739,1071.62 996.962,1071.62 1019.18,1071.62 1041.41,1071.62 1063.63,1071.62 1085.85,1071.62 1108.07,1071.62 1130.3,1071.62 1152.52,1071.62 1174.74,1071.62 1196.96,1071.62 1219.19,1071.62 1241.41,1071.62 1263.63,1071.62 1285.85,1071.62 1308.08,1071.62 1330.3,1071.62 1352.52,1071.62 1374.74,1071.63 1396.97,1071.64 1419.19,1071.65 1441.41,1071.65 1463.63,1071.66 1485.86,1071.67 1508.08,1071.68 1530.3,1071.7 1552.52,1071.71 1574.75,1071.73 1596.97,1073.21 1619.19,1081.89 1641.41,1100.97 1663.64,1120.53 1685.86,1140.09 1708.08,1150.7 1730.3,1158.69 1752.52,1166.68 1774.75,1174.67 1796.97,1182.66 1819.19,1191.04 1841.41,1199.41 1863.64,1207.79 1885.86,1216.16 1908.08,1230.76 1930.3,1245.75 1952.53,1260.74 1974.75,1275.73 1996.97,1290.73 2019.19,1306.02 2041.42,1321.33 2063.64,1336.63 2085.86,1351.94 2108.08,1367.25 2130.31,1382.55 2152.53,1397.86 2174.75,1413.16 2196.97,1428.47 2219.2,1443.77 2241.42,1459.08 2263.64,1474.38 2285.86,1489.69 2308.09,1504.99 2330.31,1520.3 2352.53,1535.6 2374.75,1550.91 2396.98,1566.21 2419.2,1581.52 2441.42,1596.82 2463.64,1612.13 2485.87,1627.43 2508.09,1642.74 2530.31,1658.04 2552.53,1673.35 2574.76,1688.65 "/>
<polyline clip-path="url(#clip241)" style="stroke:#ff0000; stroke-linecap:round; stroke-linejoin:round; stroke-width:8; stroke-opacity:1; fill:none" points="374.733,1071.6 395.423,1071.6 416.113,1071.61 436.803,1071.61 457.493,1071.61 478.183,1071.61 498.873,1071.61 519.562,1071.62 540.252,1071.62 560.942,1071.62 581.632,1071.62 602.322,1071.62 623.012,1071.62 643.702,1071.62 664.391,1071.62 685.081,1071.62 705.771,1071.62 726.461,1071.62 747.151,1071.62 767.841,1071.62 788.531,1071.62 809.22,1071.61 829.91,1071.61 850.6,1071.61 871.29,1071.61 891.98,1071.61 912.67,1071.61 933.36,1071.6 954.049,1071.6 974.739,1071.6 995.429,1071.6 1016.12,1071.6 1036.81,1071.61 1057.5,1071.61 1078.19,1071.61 1098.88,1071.61 1119.57,1071.61 1140.26,1071.62 1160.95,1071.62 1181.64,1071.62 1202.33,1071.62 1223.02,1071.62 1243.71,1071.62 1264.4,1071.62 1285.09,1071.61 1305.78,1071.61 1326.47,1071.61 1347.16,1071.6 1367.85,1071.59 1388.54,1071.58 1409.23,1071.56 1429.92,1071.54 1450.61,1071.51 1471.3,1071.48 1491.99,1071.44 1512.68,1071.39 1533.37,1071.33 1554.06,1071.26 1574.75,1071.18 1595.44,1071.08 1616.13,1070.98 1636.81,1070.86 1657.5,1070.73 1678.19,1070.57 1698.88,1070.4 1719.57,1070.21 1740.26,1069.98 1760.95,1069.73 1781.64,1069.45 1802.33,1069.13 1823.02,1068.77 1843.71,1068.37 1864.4,1067.92 1885.09,1067.43 1905.78,1066.89 1926.47,1066.3 1947.16,1065.64 1967.85,1064.94 1988.54,1064.17 2009.23,1063.35 2029.92,1062.48 2050.61,1061.56 2071.3,1060.59 2091.99,1059.58 2112.68,1058.52 2133.37,1057.42 2154.06,1056.29 2174.75,1055.12 2195.44,1053.92 2216.13,1052.69 2236.82,1051.43 2257.51,1050.14 2278.2,1048.83 2298.89,1047.5 2319.58,1046.15 2340.27,1044.77 2360.96,1043.38 2381.65,1041.98 2402.34,1040.56 2423.03,1039.13 "/>
<path clip-path="url(#clip240)" d="M1953.53 388.696 L2563.02 388.696 L2563.02 181.336 L1953.53 181.336  Z" fill="#ffffff" fill-rule="evenodd" fill-opacity="1"/>
<polyline clip-path="url(#clip240)" style="stroke:#000000; stroke-linecap:round; stroke-linejoin:round; stroke-width:4; stroke-opacity:1; fill:none" points="1953.53,388.696 2563.02,388.696 2563.02,181.336 1953.53,181.336 1953.53,388.696 "/>
<polyline clip-path="url(#clip240)" style="stroke:#000000; stroke-linecap:round; stroke-linejoin:round; stroke-width:8; stroke-opacity:1; fill:none" stroke-dasharray="32, 20" points="1979.44,233.176 2134.9,233.176 "/>
<path clip-path="url(#clip240)" d="M2160.82 215.896 L2190.05 215.896 L2190.05 219.831 L2177.78 219.831 L2177.78 250.456 L2173.08 250.456 L2173.08 219.831 L2160.82 219.831 L2160.82 215.896 Z" fill="#000000" fill-rule="nonzero" fill-opacity="1" /><path clip-path="url(#clip240)" d="M2202.44 228.512 Q2201.72 228.095 2200.86 227.91 Q2200.03 227.702 2199.01 227.702 Q2195.4 227.702 2193.45 230.063 Q2191.53 232.401 2191.53 236.799 L2191.53 250.456 L2187.25 250.456 L2187.25 224.531 L2191.53 224.531 L2191.53 228.558 Q2192.88 226.197 2195.03 225.063 Q2197.18 223.906 2200.26 223.906 Q2200.7 223.906 2201.23 223.975 Q2201.77 224.021 2202.41 224.137 L2202.44 228.512 Z" fill="#000000" fill-rule="nonzero" fill-opacity="1" /><path clip-path="url(#clip240)" d="M2206.46 240.225 L2206.46 224.531 L2210.72 224.531 L2210.72 240.063 Q2210.72 243.743 2212.16 245.595 Q2213.59 247.424 2216.46 247.424 Q2219.91 247.424 2221.9 245.225 Q2223.92 243.026 2223.92 239.229 L2223.92 224.531 L2228.18 224.531 L2228.18 250.456 L2223.92 250.456 L2223.92 246.475 Q2222.37 248.836 2220.31 249.993 Q2218.27 251.128 2215.56 251.128 Q2211.09 251.128 2208.78 248.35 Q2206.46 245.572 2206.46 240.225 M2217.18 223.906 L2217.18 223.906 Z" fill="#000000" fill-rule="nonzero" fill-opacity="1" /><path clip-path="url(#clip240)" d="M2259.13 236.429 L2259.13 238.512 L2239.54 238.512 Q2239.82 242.91 2242.18 245.225 Q2244.57 247.516 2248.8 247.516 Q2251.26 247.516 2253.55 246.915 Q2255.86 246.313 2258.13 245.109 L2258.13 249.137 Q2255.84 250.109 2253.43 250.618 Q2251.02 251.128 2248.55 251.128 Q2242.34 251.128 2238.71 247.516 Q2235.1 243.905 2235.1 237.748 Q2235.1 231.382 2238.52 227.655 Q2241.97 223.906 2247.81 223.906 Q2253.04 223.906 2256.07 227.285 Q2259.13 230.642 2259.13 236.429 M2254.87 235.179 Q2254.82 231.683 2252.9 229.6 Q2251 227.517 2247.85 227.517 Q2244.29 227.517 2242.14 229.53 Q2240.01 231.544 2239.68 235.202 L2254.87 235.179 Z" fill="#000000" fill-rule="nonzero" fill-opacity="1" /><path clip-path="url(#clip240)" d="M2291.39 218.489 L2303.36 250.456 L2298.85 250.456 L2291.58 231.29 L2282.64 250.456 L2278.13 250.456 L2289.5 225.595 L2287.78 221.012 Q2286.7 218.095 2284.22 218.095 L2282 218.095 L2282 214.438 L2284.7 214.484 Q2289.94 214.554 2291.39 218.489 Z" fill="#000000" fill-rule="nonzero" fill-opacity="1" /><path clip-path="url(#clip240)" d="M2319.47 214.484 Q2316.37 219.808 2314.87 225.017 Q2313.36 230.225 2313.36 235.572 Q2313.36 240.919 2314.87 246.174 Q2316.39 251.405 2319.47 256.706 L2315.77 256.706 Q2312.3 251.266 2310.56 246.012 Q2308.85 240.757 2308.85 235.572 Q2308.85 230.41 2310.56 225.179 Q2312.27 219.947 2315.77 214.484 L2319.47 214.484 Z" fill="#000000" fill-rule="nonzero" fill-opacity="1" /><path clip-path="url(#clip240)" d="M2327.92 215.896 L2332.6 215.896 L2332.6 250.456 L2327.92 250.456 L2327.92 215.896 Z" fill="#000000" fill-rule="nonzero" fill-opacity="1" /><path clip-path="url(#clip240)" d="M2349.29 215.896 L2353.22 215.896 L2341.19 254.854 L2337.25 254.854 L2349.29 215.896 Z" fill="#000000" fill-rule="nonzero" fill-opacity="1" /><path clip-path="url(#clip240)" d="M2357.88 215.896 L2364.17 215.896 L2379.5 244.808 L2379.5 215.896 L2384.03 215.896 L2384.03 250.456 L2377.74 250.456 L2362.41 221.544 L2362.41 250.456 L2357.88 250.456 L2357.88 215.896 Z" fill="#000000" fill-rule="nonzero" fill-opacity="1" /><path clip-path="url(#clip240)" d="M2392.48 214.484 L2396.19 214.484 Q2399.66 219.947 2401.37 225.179 Q2403.11 230.41 2403.11 235.572 Q2403.11 240.757 2401.37 246.012 Q2399.66 251.266 2396.19 256.706 L2392.48 256.706 Q2395.56 251.405 2397.06 246.174 Q2398.59 240.919 2398.59 235.572 Q2398.59 230.225 2397.06 225.017 Q2395.56 219.808 2392.48 214.484 Z" fill="#000000" fill-rule="nonzero" fill-opacity="1" /><path clip-path="url(#clip240)" d="M1979.44 305.752 L2134.9 305.752 L2134.9 264.28 L1979.44 264.28 L1979.44 305.752  Z" fill="#008000" fill-rule="evenodd" fill-opacity="0.2"/>
<polyline clip-path="url(#clip240)" style="stroke:#008000; stroke-linecap:round; stroke-linejoin:round; stroke-width:0.8; stroke-opacity:1; fill:none" stroke-dasharray="1, 2" points="1979.44,264.28 2134.9,264.28 "/>
<path clip-path="url(#clip240)" d="M2163.04 301.579 L2163.04 297.319 Q2164.8 298.153 2166.6 298.593 Q2168.41 299.032 2170.14 299.032 Q2174.77 299.032 2177.2 295.931 Q2179.66 292.806 2180.01 286.463 Q2178.66 288.454 2176.6 289.519 Q2174.54 290.583 2172.04 290.583 Q2166.86 290.583 2163.83 287.458 Q2160.82 284.31 2160.82 278.87 Q2160.82 273.546 2163.96 270.329 Q2167.11 267.111 2172.34 267.111 Q2178.34 267.111 2181.49 271.718 Q2184.66 276.301 2184.66 285.051 Q2184.66 293.222 2180.77 298.106 Q2176.9 302.968 2170.35 302.968 Q2168.59 302.968 2166.79 302.62 Q2164.98 302.273 2163.04 301.579 M2172.34 286.926 Q2175.49 286.926 2177.32 284.773 Q2179.17 282.62 2179.17 278.87 Q2179.17 275.144 2177.32 272.991 Q2175.49 270.815 2172.34 270.815 Q2169.2 270.815 2167.34 272.991 Q2165.52 275.144 2165.52 278.87 Q2165.52 282.62 2167.34 284.773 Q2169.2 286.926 2172.34 286.926 Z" fill="#000000" fill-rule="nonzero" fill-opacity="1" /><path clip-path="url(#clip240)" d="M2193.11 267.736 L2211.46 267.736 L2211.46 271.671 L2197.39 271.671 L2197.39 280.144 Q2198.41 279.796 2199.43 279.634 Q2200.45 279.449 2201.46 279.449 Q2207.25 279.449 2210.63 282.62 Q2214.01 285.792 2214.01 291.208 Q2214.01 296.787 2210.54 299.889 Q2207.07 302.968 2200.75 302.968 Q2198.57 302.968 2196.3 302.597 Q2194.06 302.227 2191.65 301.486 L2191.65 296.787 Q2193.73 297.921 2195.95 298.477 Q2198.18 299.032 2200.65 299.032 Q2204.66 299.032 2207 296.926 Q2209.33 294.819 2209.33 291.208 Q2209.33 287.597 2207 285.491 Q2204.66 283.384 2200.65 283.384 Q2198.78 283.384 2196.9 283.801 Q2195.05 284.218 2193.11 285.097 L2193.11 267.736 Z" fill="#000000" fill-rule="nonzero" fill-opacity="1" /><path clip-path="url(#clip240)" d="M2252.62 287.088 Q2250.61 287.088 2249.45 288.801 Q2248.32 290.514 2248.32 293.569 Q2248.32 296.579 2249.45 298.315 Q2250.61 300.028 2252.62 300.028 Q2254.59 300.028 2255.72 298.315 Q2256.88 296.579 2256.88 293.569 Q2256.88 290.537 2255.72 288.824 Q2254.59 287.088 2252.62 287.088 M2252.62 284.148 Q2256.28 284.148 2258.43 286.695 Q2260.58 289.241 2260.58 293.569 Q2260.58 297.898 2258.41 300.444 Q2256.26 302.968 2252.62 302.968 Q2248.92 302.968 2246.76 300.444 Q2244.61 297.898 2244.61 293.569 Q2244.61 289.218 2246.76 286.695 Q2248.94 284.148 2252.62 284.148 M2228.73 270.051 Q2226.74 270.051 2225.58 271.787 Q2224.45 273.5 2224.45 276.509 Q2224.45 279.565 2225.58 281.278 Q2226.72 282.991 2228.73 282.991 Q2230.75 282.991 2231.88 281.278 Q2233.04 279.565 2233.04 276.509 Q2233.04 273.523 2231.88 271.787 Q2230.72 270.051 2228.73 270.051 M2249.64 267.111 L2253.34 267.111 L2231.72 302.968 L2228.01 302.968 L2249.64 267.111 M2228.73 267.111 Q2232.39 267.111 2234.57 269.658 Q2236.74 272.181 2236.74 276.509 Q2236.74 280.884 2234.57 283.408 Q2232.41 285.931 2228.73 285.931 Q2225.05 285.931 2222.9 283.408 Q2220.77 280.861 2220.77 276.509 Q2220.77 272.204 2222.92 269.658 Q2225.08 267.111 2228.73 267.111 Z" fill="#000000" fill-rule="nonzero" fill-opacity="1" /><path clip-path="url(#clip240)" d="M2308.8 270.398 L2308.8 275.329 Q2306.44 273.13 2303.76 272.042 Q2301.09 270.954 2298.08 270.954 Q2292.16 270.954 2289.01 274.588 Q2285.86 278.199 2285.86 285.051 Q2285.86 291.88 2289.01 295.514 Q2292.16 299.125 2298.08 299.125 Q2301.09 299.125 2303.76 298.037 Q2306.44 296.949 2308.8 294.75 L2308.8 299.634 Q2306.35 301.301 2303.59 302.134 Q2300.86 302.968 2297.81 302.968 Q2289.96 302.968 2285.45 298.176 Q2280.93 293.361 2280.93 285.051 Q2280.93 276.718 2285.45 271.926 Q2289.96 267.111 2297.81 267.111 Q2300.91 267.111 2303.64 267.945 Q2306.39 268.755 2308.8 270.398 Z" fill="#000000" fill-rule="nonzero" fill-opacity="1" /><path clip-path="url(#clip240)" d="M2316.02 267.736 L2320.7 267.736 L2320.7 302.296 L2316.02 302.296 L2316.02 267.736 Z" fill="#000000" fill-rule="nonzero" fill-opacity="1" /><polyline clip-path="url(#clip240)" style="stroke:#ff0000; stroke-linecap:round; stroke-linejoin:round; stroke-width:8; stroke-opacity:1; fill:none" points="1979.44,336.856 2134.9,336.856 "/>
<path clip-path="url(#clip240)" d="M2160.82 319.576 L2182.67 319.576 L2182.67 323.511 L2165.49 323.511 L2165.49 333.743 L2181.95 333.743 L2181.95 337.678 L2165.49 337.678 L2165.49 350.201 L2183.08 350.201 L2183.08 354.136 L2160.82 354.136 L2160.82 319.576 Z" fill="#000000" fill-rule="nonzero" fill-opacity="1" /><path clip-path="url(#clip240)" d="M2207.11 328.974 L2207.11 333.002 Q2205.31 332.076 2203.36 331.613 Q2201.42 331.15 2199.33 331.15 Q2196.16 331.15 2194.57 332.123 Q2192.99 333.095 2192.99 335.039 Q2192.99 336.521 2194.13 337.377 Q2195.26 338.21 2198.69 338.974 L2200.14 339.298 Q2204.68 340.271 2206.58 342.053 Q2208.5 343.812 2208.5 346.984 Q2208.5 350.595 2205.63 352.701 Q2202.78 354.808 2197.78 354.808 Q2195.7 354.808 2193.43 354.391 Q2191.19 353.997 2188.69 353.187 L2188.69 348.789 Q2191.05 350.016 2193.34 350.641 Q2195.63 351.243 2197.88 351.243 Q2200.89 351.243 2202.51 350.224 Q2204.13 349.183 2204.13 347.308 Q2204.13 345.572 2202.95 344.646 Q2201.79 343.72 2197.83 342.863 L2196.35 342.516 Q2192.39 341.683 2190.63 339.97 Q2188.87 338.234 2188.87 335.224 Q2188.87 331.567 2191.46 329.576 Q2194.06 327.586 2198.83 327.586 Q2201.19 327.586 2203.27 327.933 Q2205.35 328.28 2207.11 328.974 Z" fill="#000000" fill-rule="nonzero" fill-opacity="1" /><path clip-path="url(#clip240)" d="M2219.5 320.849 L2219.5 328.211 L2228.27 328.211 L2228.27 331.521 L2219.5 331.521 L2219.5 345.595 Q2219.5 348.766 2220.35 349.669 Q2221.23 350.571 2223.89 350.571 L2228.27 350.571 L2228.27 354.136 L2223.89 354.136 Q2218.96 354.136 2217.09 352.308 Q2215.21 350.456 2215.21 345.595 L2215.21 331.521 L2212.09 331.521 L2212.09 328.211 L2215.21 328.211 L2215.21 320.849 L2219.5 320.849 Z" fill="#000000" fill-rule="nonzero" fill-opacity="1" /><path clip-path="url(#clip240)" d="M2233.87 328.211 L2238.13 328.211 L2238.13 354.136 L2233.87 354.136 L2233.87 328.211 M2233.87 318.118 L2238.13 318.118 L2238.13 323.511 L2233.87 323.511 L2233.87 318.118 Z" fill="#000000" fill-rule="nonzero" fill-opacity="1" /><path clip-path="url(#clip240)" d="M2267.23 333.187 Q2268.82 330.317 2271.05 328.951 Q2273.27 327.586 2276.28 327.586 Q2280.33 327.586 2282.53 330.433 Q2284.73 333.257 2284.73 338.488 L2284.73 354.136 L2280.45 354.136 L2280.45 338.627 Q2280.45 334.9 2279.13 333.095 Q2277.81 331.289 2275.1 331.289 Q2271.79 331.289 2269.87 333.488 Q2267.95 335.687 2267.95 339.484 L2267.95 354.136 L2263.66 354.136 L2263.66 338.627 Q2263.66 334.877 2262.34 333.095 Q2261.02 331.289 2258.27 331.289 Q2255.01 331.289 2253.08 333.511 Q2251.16 335.71 2251.16 339.484 L2251.16 354.136 L2246.88 354.136 L2246.88 328.211 L2251.16 328.211 L2251.16 332.238 Q2252.62 329.854 2254.66 328.72 Q2256.7 327.586 2259.5 327.586 Q2262.32 327.586 2264.29 329.021 Q2266.28 330.456 2267.23 333.187 Z" fill="#000000" fill-rule="nonzero" fill-opacity="1" /><path clip-path="url(#clip240)" d="M2305.01 341.104 Q2299.84 341.104 2297.85 342.284 Q2295.86 343.465 2295.86 346.312 Q2295.86 348.581 2297.34 349.923 Q2298.85 351.243 2301.42 351.243 Q2304.96 351.243 2307.09 348.743 Q2309.24 346.22 2309.24 342.053 L2309.24 341.104 L2305.01 341.104 M2313.5 339.345 L2313.5 354.136 L2309.24 354.136 L2309.24 350.201 Q2307.78 352.562 2305.61 353.696 Q2303.43 354.808 2300.28 354.808 Q2296.3 354.808 2293.94 352.585 Q2291.6 350.34 2291.6 346.59 Q2291.6 342.215 2294.52 339.993 Q2297.46 337.771 2303.27 337.771 L2309.24 337.771 L2309.24 337.354 Q2309.24 334.414 2307.3 332.817 Q2305.38 331.197 2301.88 331.197 Q2299.66 331.197 2297.55 331.729 Q2295.45 332.261 2293.5 333.326 L2293.5 329.391 Q2295.84 328.488 2298.04 328.048 Q2300.24 327.586 2302.32 327.586 Q2307.94 327.586 2310.72 330.502 Q2313.5 333.419 2313.5 339.345 Z" fill="#000000" fill-rule="nonzero" fill-opacity="1" /><path clip-path="url(#clip240)" d="M2326.49 320.849 L2326.49 328.211 L2335.26 328.211 L2335.26 331.521 L2326.49 331.521 L2326.49 345.595 Q2326.49 348.766 2327.34 349.669 Q2328.22 350.571 2330.88 350.571 L2335.26 350.571 L2335.26 354.136 L2330.88 354.136 Q2325.95 354.136 2324.08 352.308 Q2322.2 350.456 2322.2 345.595 L2322.2 331.521 L2319.08 331.521 L2319.08 328.211 L2322.2 328.211 L2322.2 320.849 L2326.49 320.849 Z" fill="#000000" fill-rule="nonzero" fill-opacity="1" /><path clip-path="url(#clip240)" d="M2363.04 340.109 L2363.04 342.192 L2343.45 342.192 Q2343.73 346.59 2346.09 348.905 Q2348.48 351.196 2352.71 351.196 Q2355.17 351.196 2357.46 350.595 Q2359.77 349.993 2362.04 348.789 L2362.04 352.817 Q2359.75 353.789 2357.34 354.298 Q2354.94 354.808 2352.46 354.808 Q2346.25 354.808 2342.62 351.196 Q2339.01 347.585 2339.01 341.428 Q2339.01 335.062 2342.44 331.335 Q2345.88 327.586 2351.72 327.586 Q2356.95 327.586 2359.98 330.965 Q2363.04 334.322 2363.04 340.109 M2358.78 338.859 Q2358.73 335.363 2356.81 333.28 Q2354.91 331.197 2351.76 331.197 Q2348.2 331.197 2346.05 333.21 Q2343.92 335.224 2343.59 338.882 L2358.78 338.859 Z" fill="#000000" fill-rule="nonzero" fill-opacity="1" /><path clip-path="url(#clip240)" d="M2387.09 332.146 L2387.09 318.118 L2391.35 318.118 L2391.35 354.136 L2387.09 354.136 L2387.09 350.247 Q2385.75 352.562 2383.69 353.696 Q2381.65 354.808 2378.78 354.808 Q2374.08 354.808 2371.12 351.058 Q2368.18 347.308 2368.18 341.197 Q2368.18 335.085 2371.12 331.335 Q2374.08 327.586 2378.78 327.586 Q2381.65 327.586 2383.69 328.72 Q2385.75 329.831 2387.09 332.146 M2372.57 341.197 Q2372.57 345.896 2374.5 348.581 Q2376.44 351.243 2379.82 351.243 Q2383.2 351.243 2385.14 348.581 Q2387.09 345.896 2387.09 341.197 Q2387.09 336.497 2385.14 333.835 Q2383.2 331.15 2379.82 331.15 Q2376.44 331.15 2374.5 333.835 Q2372.57 336.497 2372.57 341.197 Z" fill="#000000" fill-rule="nonzero" fill-opacity="1" /><path clip-path="url(#clip240)" d="M2425.4 322.169 L2437.37 354.136 L2432.85 354.136 L2425.58 334.97 L2416.65 354.136 L2412.13 354.136 L2423.5 329.275 L2421.79 324.692 Q2420.7 321.775 2418.22 321.775 L2416 321.775 L2416 318.118 L2418.71 318.164 Q2423.94 318.234 2425.4 322.169 Z" fill="#000000" fill-rule="nonzero" fill-opacity="1" /><path clip-path="url(#clip240)" d="M2453.48 318.164 Q2450.37 323.488 2448.87 328.697 Q2447.37 333.905 2447.37 339.252 Q2447.37 344.599 2448.87 349.854 Q2450.4 355.085 2453.48 360.386 L2449.77 360.386 Q2446.3 354.946 2444.56 349.692 Q2442.85 344.437 2442.85 339.252 Q2442.85 334.09 2444.56 328.859 Q2446.28 323.627 2449.77 318.164 L2453.48 318.164 Z" fill="#000000" fill-rule="nonzero" fill-opacity="1" /><path clip-path="url(#clip240)" d="M2461.93 319.576 L2466.6 319.576 L2466.6 354.136 L2461.93 354.136 L2461.93 319.576 Z" fill="#000000" fill-rule="nonzero" fill-opacity="1" /><path clip-path="url(#clip240)" d="M2483.29 319.576 L2487.23 319.576 L2475.19 358.534 L2471.25 358.534 L2483.29 319.576 Z" fill="#000000" fill-rule="nonzero" fill-opacity="1" /><path clip-path="url(#clip240)" d="M2491.88 319.576 L2498.18 319.576 L2513.5 348.488 L2513.5 319.576 L2518.04 319.576 L2518.04 354.136 L2511.74 354.136 L2496.42 325.224 L2496.42 354.136 L2491.88 354.136 L2491.88 319.576 Z" fill="#000000" fill-rule="nonzero" fill-opacity="1" /><path clip-path="url(#clip240)" d="M2526.49 318.164 L2530.19 318.164 Q2533.66 323.627 2535.37 328.859 Q2537.11 334.09 2537.11 339.252 Q2537.11 344.437 2535.37 349.692 Q2533.66 354.946 2530.19 360.386 L2526.49 360.386 Q2529.56 355.085 2531.07 349.854 Q2532.6 344.599 2532.6 339.252 Q2532.6 333.905 2531.07 328.697 Q2529.56 323.488 2526.49 318.164 Z" fill="#000000" fill-rule="nonzero" fill-opacity="1" /></svg>
