<?xml version="1.0" encoding="utf-8"?>
<svg xmlns="http://www.w3.org/2000/svg" xmlns:xlink="http://www.w3.org/1999/xlink" width="672" height="480" viewBox="0 0 2688 1920">
<defs>
  <clipPath id="clip150">
    <rect x="0" y="0" width="2688" height="1920"/>
  </clipPath>
</defs>
<path clip-path="url(#clip150)" d="M0 1920 L2688 1920 L2688 -4.26326e-14 L0 -4.26326e-14  Z" fill="#ffffff" fill-rule="evenodd" fill-opacity="1"/>
<defs>
  <clipPath id="clip151">
    <rect x="240" y="127" width="2401" height="1607"/>
  </clipPath>
</defs>
<path clip-path="url(#clip150)" d="M240.4 1734.12 L2640.76 1734.12 L2640.76 127.792 L240.4 127.792  Z" fill="#ffffff" fill-rule="evenodd" fill-opacity="1"/>
<polyline clip-path="url(#clip151)" style="stroke:#000000; stroke-linecap:round; stroke-linejoin:round; stroke-width:2; stroke-opacity:0.1; fill:none" points="308.334,1734.12 308.334,127.792 "/>
<polyline clip-path="url(#clip151)" style="stroke:#000000; stroke-linecap:round; stroke-linejoin:round; stroke-width:2; stroke-opacity:0.1; fill:none" points="874.456,1734.12 874.456,127.792 "/>
<polyline clip-path="url(#clip151)" style="stroke:#000000; stroke-linecap:round; stroke-linejoin:round; stroke-width:2; stroke-opacity:0.1; fill:none" points="1440.58,1734.12 1440.58,127.792 "/>
<polyline clip-path="url(#clip151)" style="stroke:#000000; stroke-linecap:round; stroke-linejoin:round; stroke-width:2; stroke-opacity:0.1; fill:none" points="2006.7,1734.12 2006.7,127.792 "/>
<polyline clip-path="url(#clip151)" style="stroke:#000000; stroke-linecap:round; stroke-linejoin:round; stroke-width:2; stroke-opacity:0.1; fill:none" points="2572.82,1734.12 2572.82,127.792 "/>
<polyline clip-path="url(#clip151)" style="stroke:#000000; stroke-linecap:round; stroke-linejoin:round; stroke-width:2; stroke-opacity:0.1; fill:none" points="240.4,1713.08 2640.76,1713.08 "/>
<polyline clip-path="url(#clip151)" style="stroke:#000000; stroke-linecap:round; stroke-linejoin:round; stroke-width:2; stroke-opacity:0.1; fill:none" points="240.4,1380.31 2640.76,1380.31 "/>
<polyline clip-path="url(#clip151)" style="stroke:#000000; stroke-linecap:round; stroke-linejoin:round; stroke-width:2; stroke-opacity:0.1; fill:none" points="240.4,1047.55 2640.76,1047.55 "/>
<polyline clip-path="url(#clip151)" style="stroke:#000000; stroke-linecap:round; stroke-linejoin:round; stroke-width:2; stroke-opacity:0.1; fill:none" points="240.4,714.79 2640.76,714.79 "/>
<polyline clip-path="url(#clip151)" style="stroke:#000000; stroke-linecap:round; stroke-linejoin:round; stroke-width:2; stroke-opacity:0.1; fill:none" points="240.4,382.028 2640.76,382.028 "/>
<polyline clip-path="url(#clip150)" style="stroke:#000000; stroke-linecap:round; stroke-linejoin:round; stroke-width:4; stroke-opacity:1; fill:none" points="240.4,1734.12 2640.76,1734.12 "/>
<polyline clip-path="url(#clip150)" style="stroke:#000000; stroke-linecap:round; stroke-linejoin:round; stroke-width:4; stroke-opacity:1; fill:none" points="308.334,1734.12 308.334,1715.22 "/>
<polyline clip-path="url(#clip150)" style="stroke:#000000; stroke-linecap:round; stroke-linejoin:round; stroke-width:4; stroke-opacity:1; fill:none" points="874.456,1734.12 874.456,1715.22 "/>
<polyline clip-path="url(#clip150)" style="stroke:#000000; stroke-linecap:round; stroke-linejoin:round; stroke-width:4; stroke-opacity:1; fill:none" points="1440.58,1734.12 1440.58,1715.22 "/>
<polyline clip-path="url(#clip150)" style="stroke:#000000; stroke-linecap:round; stroke-linejoin:round; stroke-width:4; stroke-opacity:1; fill:none" points="2006.7,1734.12 2006.7,1715.22 "/>
<polyline clip-path="url(#clip150)" style="stroke:#000000; stroke-linecap:round; stroke-linejoin:round; stroke-width:4; stroke-opacity:1; fill:none" points="2572.82,1734.12 2572.82,1715.22 "/>
<path clip-path="url(#clip150)" d="M308.334 1767.34 Q304.723 1767.34 302.895 1770.9 Q301.089 1774.45 301.089 1781.58 Q301.089 1788.68 302.895 1792.25 Q304.723 1795.79 308.334 1795.79 Q311.969 1795.79 313.774 1792.25 Q315.603 1788.68 315.603 1781.58 Q315.603 1774.45 313.774 1770.9 Q311.969 1767.34 308.334 1767.34 M308.334 1763.64 Q314.144 1763.64 317.2 1768.24 Q320.279 1772.83 320.279 1781.58 Q320.279 1790.3 317.2 1794.91 Q314.144 1799.49 308.334 1799.49 Q302.524 1799.49 299.446 1794.91 Q296.39 1790.3 296.39 1781.58 Q296.39 1772.83 299.446 1768.24 Q302.524 1763.64 308.334 1763.64 Z" fill="#000000" fill-rule="nonzero" fill-opacity="1" /><path clip-path="url(#clip150)" d="M849.144 1794.89 L856.783 1794.89 L856.783 1768.52 L848.472 1770.19 L848.472 1765.93 L856.736 1764.26 L861.412 1764.26 L861.412 1794.89 L869.051 1794.89 L869.051 1798.82 L849.144 1798.82 L849.144 1794.89 Z" fill="#000000" fill-rule="nonzero" fill-opacity="1" /><path clip-path="url(#clip150)" d="M888.495 1767.34 Q884.884 1767.34 883.056 1770.9 Q881.25 1774.45 881.25 1781.58 Q881.25 1788.68 883.056 1792.25 Q884.884 1795.79 888.495 1795.79 Q892.13 1795.79 893.935 1792.25 Q895.764 1788.68 895.764 1781.58 Q895.764 1774.45 893.935 1770.9 Q892.13 1767.34 888.495 1767.34 M888.495 1763.64 Q894.306 1763.64 897.361 1768.24 Q900.44 1772.83 900.44 1781.58 Q900.44 1790.3 897.361 1794.91 Q894.306 1799.49 888.495 1799.49 Q882.685 1799.49 879.607 1794.91 Q876.551 1790.3 876.551 1781.58 Q876.551 1772.83 879.607 1768.24 Q882.685 1763.64 888.495 1763.64 Z" fill="#000000" fill-rule="nonzero" fill-opacity="1" /><path clip-path="url(#clip150)" d="M1419.35 1794.89 L1435.67 1794.89 L1435.67 1798.82 L1413.73 1798.82 L1413.73 1794.89 Q1416.39 1792.13 1420.97 1787.5 Q1425.58 1782.85 1426.76 1781.51 Q1429 1778.98 1429.88 1777.25 Q1430.79 1775.49 1430.79 1773.8 Q1430.79 1771.04 1428.84 1769.31 Q1426.92 1767.57 1423.82 1767.57 Q1421.62 1767.57 1419.17 1768.34 Q1416.74 1769.1 1413.96 1770.65 L1413.96 1765.93 Q1416.78 1764.79 1419.24 1764.21 Q1421.69 1763.64 1423.73 1763.64 Q1429.1 1763.64 1432.29 1766.32 Q1435.49 1769.01 1435.49 1773.5 Q1435.49 1775.63 1434.68 1777.55 Q1433.89 1779.45 1431.78 1782.04 Q1431.2 1782.71 1428.1 1785.93 Q1425 1789.12 1419.35 1794.89 Z" fill="#000000" fill-rule="nonzero" fill-opacity="1" /><path clip-path="url(#clip150)" d="M1455.49 1767.34 Q1451.87 1767.34 1450.05 1770.9 Q1448.24 1774.45 1448.24 1781.58 Q1448.24 1788.68 1450.05 1792.25 Q1451.87 1795.79 1455.49 1795.79 Q1459.12 1795.79 1460.92 1792.25 Q1462.75 1788.68 1462.75 1781.58 Q1462.75 1774.45 1460.92 1770.9 Q1459.12 1767.34 1455.49 1767.34 M1455.49 1763.64 Q1461.3 1763.64 1464.35 1768.24 Q1467.43 1772.83 1467.43 1781.58 Q1467.43 1790.3 1464.35 1794.91 Q1461.3 1799.49 1455.49 1799.49 Q1449.67 1799.49 1446.6 1794.91 Q1443.54 1790.3 1443.54 1781.58 Q1443.54 1772.83 1446.6 1768.24 Q1449.67 1763.64 1455.49 1763.64 Z" fill="#000000" fill-rule="nonzero" fill-opacity="1" /><path clip-path="url(#clip150)" d="M1995.54 1780.19 Q1998.9 1780.9 2000.77 1783.17 Q2002.67 1785.44 2002.67 1788.77 Q2002.67 1793.89 1999.15 1796.69 Q1995.63 1799.49 1989.15 1799.49 Q1986.98 1799.49 1984.66 1799.05 Q1982.37 1798.64 1979.92 1797.78 L1979.92 1793.27 Q1981.86 1794.4 1984.18 1794.98 Q1986.49 1795.56 1989.01 1795.56 Q1993.41 1795.56 1995.7 1793.82 Q1998.02 1792.08 1998.02 1788.77 Q1998.02 1785.72 1995.87 1784.01 Q1993.74 1782.27 1989.92 1782.27 L1985.89 1782.27 L1985.89 1778.43 L1990.1 1778.43 Q1993.55 1778.43 1995.38 1777.06 Q1997.21 1775.67 1997.21 1773.08 Q1997.21 1770.42 1995.31 1769.01 Q1993.44 1767.57 1989.92 1767.57 Q1988 1767.57 1985.8 1767.99 Q1983.6 1768.4 1980.96 1769.28 L1980.96 1765.12 Q1983.62 1764.38 1985.94 1764.01 Q1988.27 1763.64 1990.33 1763.64 Q1995.66 1763.64 1998.76 1766.07 Q2001.86 1768.47 2001.86 1772.59 Q2001.86 1775.46 2000.22 1777.46 Q1998.57 1779.42 1995.54 1780.19 Z" fill="#000000" fill-rule="nonzero" fill-opacity="1" /><path clip-path="url(#clip150)" d="M2021.54 1767.34 Q2017.93 1767.34 2016.1 1770.9 Q2014.29 1774.45 2014.29 1781.58 Q2014.29 1788.68 2016.1 1792.25 Q2017.93 1795.79 2021.54 1795.79 Q2025.17 1795.79 2026.98 1792.25 Q2028.81 1788.68 2028.81 1781.58 Q2028.81 1774.45 2026.98 1770.9 Q2025.17 1767.34 2021.54 1767.34 M2021.54 1763.64 Q2027.35 1763.64 2030.4 1768.24 Q2033.48 1772.83 2033.48 1781.58 Q2033.48 1790.3 2030.4 1794.91 Q2027.35 1799.49 2021.54 1799.49 Q2015.73 1799.49 2012.65 1794.91 Q2009.59 1790.3 2009.59 1781.58 Q2009.59 1772.83 2012.65 1768.24 Q2015.73 1763.64 2021.54 1763.64 Z" fill="#000000" fill-rule="nonzero" fill-opacity="1" /><path clip-path="url(#clip150)" d="M2560.99 1768.34 L2549.19 1786.78 L2560.99 1786.78 L2560.99 1768.34 M2559.77 1764.26 L2565.65 1764.26 L2565.65 1786.78 L2570.58 1786.78 L2570.58 1790.67 L2565.65 1790.67 L2565.65 1798.82 L2560.99 1798.82 L2560.99 1790.67 L2545.39 1790.67 L2545.39 1786.16 L2559.77 1764.26 Z" fill="#000000" fill-rule="nonzero" fill-opacity="1" /><path clip-path="url(#clip150)" d="M2588.31 1767.34 Q2584.7 1767.34 2582.87 1770.9 Q2581.06 1774.45 2581.06 1781.58 Q2581.06 1788.68 2582.87 1792.25 Q2584.7 1795.79 2588.31 1795.79 Q2591.94 1795.79 2593.75 1792.25 Q2595.58 1788.68 2595.58 1781.58 Q2595.58 1774.45 2593.75 1770.9 Q2591.94 1767.34 2588.31 1767.34 M2588.31 1763.64 Q2594.12 1763.64 2597.17 1768.24 Q2600.25 1772.83 2600.25 1781.58 Q2600.25 1790.3 2597.17 1794.91 Q2594.12 1799.49 2588.31 1799.49 Q2582.5 1799.49 2579.42 1794.91 Q2576.36 1790.3 2576.36 1781.58 Q2576.36 1772.83 2579.42 1768.24 Q2582.5 1763.64 2588.31 1763.64 Z" fill="#000000" fill-rule="nonzero" fill-opacity="1" /><path clip-path="url(#clip150)" d="M1250.8 1835.78 L1291 1835.78 L1291 1841.19 L1274.13 1841.19 L1274.13 1883.3 L1267.67 1883.3 L1267.67 1841.19 L1250.8 1841.19 L1250.8 1835.78 Z" fill="#000000" fill-rule="nonzero" fill-opacity="1" /><path clip-path="url(#clip150)" d="M1294.95 1847.65 L1300.8 1847.65 L1300.8 1883.3 L1294.95 1883.3 L1294.95 1847.65 M1294.95 1833.78 L1300.8 1833.78 L1300.8 1841.19 L1294.95 1841.19 L1294.95 1833.78 Z" fill="#000000" fill-rule="nonzero" fill-opacity="1" /><path clip-path="url(#clip150)" d="M1340.81 1854.5 Q1343.01 1850.55 1346.06 1848.67 Q1349.12 1846.79 1353.26 1846.79 Q1358.83 1846.79 1361.85 1850.71 Q1364.87 1854.59 1364.87 1861.78 L1364.87 1883.3 L1358.99 1883.3 L1358.99 1861.98 Q1358.99 1856.85 1357.17 1854.37 Q1355.36 1851.89 1351.63 1851.89 Q1347.08 1851.89 1344.44 1854.91 Q1341.8 1857.93 1341.8 1863.15 L1341.8 1883.3 L1335.91 1883.3 L1335.91 1861.98 Q1335.91 1856.82 1334.1 1854.37 Q1332.28 1851.89 1328.49 1851.89 Q1324.01 1851.89 1321.36 1854.94 Q1318.72 1857.97 1318.72 1863.15 L1318.72 1883.3 L1312.83 1883.3 L1312.83 1847.65 L1318.72 1847.65 L1318.72 1853.19 Q1320.73 1849.91 1323.53 1848.35 Q1326.33 1846.79 1330.18 1846.79 Q1334.06 1846.79 1336.77 1848.77 Q1339.51 1850.74 1340.81 1854.5 Z" fill="#000000" fill-rule="nonzero" fill-opacity="1" /><path clip-path="url(#clip150)" d="M1407.05 1864.01 L1407.05 1866.88 L1380.12 1866.88 Q1380.5 1872.92 1383.75 1876.11 Q1387.03 1879.26 1392.85 1879.26 Q1396.22 1879.26 1399.38 1878.43 Q1402.56 1877.6 1405.68 1875.95 L1405.68 1881.49 Q1402.53 1882.82 1399.22 1883.52 Q1395.91 1884.22 1392.5 1884.22 Q1383.97 1884.22 1378.97 1879.26 Q1374.01 1874.29 1374.01 1865.83 Q1374.01 1857.07 1378.72 1851.95 Q1383.46 1846.79 1391.48 1846.79 Q1398.68 1846.79 1402.85 1851.44 Q1407.05 1856.06 1407.05 1864.01 M1401.19 1862.29 Q1401.13 1857.49 1398.48 1854.62 Q1395.87 1851.76 1391.55 1851.76 Q1386.64 1851.76 1383.68 1854.53 Q1380.76 1857.3 1380.31 1862.33 L1401.19 1862.29 Z" fill="#000000" fill-rule="nonzero" fill-opacity="1" /><path clip-path="url(#clip150)" d="M1451.45 1833.84 Q1447.18 1841.16 1445.11 1848.32 Q1443.04 1855.48 1443.04 1862.84 Q1443.04 1870.19 1445.11 1877.41 Q1447.21 1884.61 1451.45 1891.89 L1446.35 1891.89 Q1441.58 1884.41 1439.19 1877.19 Q1436.84 1869.96 1436.84 1862.84 Q1436.84 1855.74 1439.19 1848.54 Q1441.55 1841.35 1446.35 1833.84 L1451.45 1833.84 Z" fill="#000000" fill-rule="nonzero" fill-opacity="1" /><path clip-path="url(#clip150)" d="M1486.27 1853.06 L1486.27 1833.78 L1492.12 1833.78 L1492.12 1883.3 L1486.27 1883.3 L1486.27 1877.95 Q1484.42 1881.14 1481.59 1882.7 Q1478.79 1884.22 1474.84 1884.22 Q1468.38 1884.22 1464.31 1879.07 Q1460.26 1873.91 1460.26 1865.51 Q1460.26 1857.11 1464.31 1851.95 Q1468.38 1846.79 1474.84 1846.79 Q1478.79 1846.79 1481.59 1848.35 Q1484.42 1849.88 1486.27 1853.06 M1466.31 1865.51 Q1466.31 1871.97 1468.95 1875.66 Q1471.63 1879.32 1476.27 1879.32 Q1480.92 1879.32 1483.59 1875.66 Q1486.27 1871.97 1486.27 1865.51 Q1486.27 1859.05 1483.59 1855.39 Q1480.92 1851.7 1476.27 1851.7 Q1471.63 1851.7 1468.95 1855.39 Q1466.31 1859.05 1466.31 1865.51 Z" fill="#000000" fill-rule="nonzero" fill-opacity="1" /><path clip-path="url(#clip150)" d="M1520.39 1865.38 Q1513.29 1865.38 1510.55 1867 Q1507.82 1868.63 1507.82 1872.54 Q1507.82 1875.66 1509.85 1877.51 Q1511.92 1879.32 1515.45 1879.32 Q1520.32 1879.32 1523.25 1875.88 Q1526.21 1872.42 1526.21 1866.69 L1526.21 1865.38 L1520.39 1865.38 M1532.07 1862.96 L1532.07 1883.3 L1526.21 1883.3 L1526.21 1877.89 Q1524.21 1881.14 1521.22 1882.7 Q1518.22 1884.22 1513.89 1884.22 Q1508.42 1884.22 1505.17 1881.17 Q1501.96 1878.08 1501.96 1872.92 Q1501.96 1866.91 1505.97 1863.85 Q1510.01 1860.8 1518 1860.8 L1526.21 1860.8 L1526.21 1860.23 Q1526.21 1856.18 1523.54 1853.99 Q1520.9 1851.76 1516.09 1851.76 Q1513.04 1851.76 1510.14 1852.49 Q1507.24 1853.22 1504.57 1854.69 L1504.57 1849.28 Q1507.78 1848.03 1510.81 1847.43 Q1513.83 1846.79 1516.7 1846.79 Q1524.43 1846.79 1528.25 1850.8 Q1532.07 1854.81 1532.07 1862.96 Z" fill="#000000" fill-rule="nonzero" fill-opacity="1" /><path clip-path="url(#clip150)" d="M1558.96 1886.61 Q1556.48 1892.98 1554.13 1894.92 Q1551.77 1896.86 1547.82 1896.86 L1543.15 1896.86 L1543.15 1891.96 L1546.58 1891.96 Q1549 1891.96 1550.34 1890.81 Q1551.68 1889.67 1553.3 1885.4 L1554.35 1882.73 L1539.93 1847.65 L1546.14 1847.65 L1557.28 1875.53 L1568.42 1847.65 L1574.62 1847.65 L1558.96 1886.61 Z" fill="#000000" fill-rule="nonzero" fill-opacity="1" /><path clip-path="url(#clip150)" d="M1605.43 1848.7 L1605.43 1854.24 Q1602.95 1852.97 1600.28 1852.33 Q1597.6 1851.7 1594.74 1851.7 Q1590.38 1851.7 1588.18 1853.03 Q1586.02 1854.37 1586.02 1857.04 Q1586.02 1859.08 1587.58 1860.26 Q1589.14 1861.4 1593.85 1862.45 L1595.85 1862.9 Q1602.09 1864.24 1604.7 1866.69 Q1607.34 1869.11 1607.34 1873.47 Q1607.34 1878.43 1603.4 1881.33 Q1599.48 1884.22 1592.61 1884.22 Q1589.74 1884.22 1586.62 1883.65 Q1583.54 1883.11 1580.1 1882 L1580.1 1875.95 Q1583.34 1877.64 1586.5 1878.49 Q1589.65 1879.32 1592.73 1879.32 Q1596.87 1879.32 1599.1 1877.92 Q1601.33 1876.49 1601.33 1873.91 Q1601.33 1871.52 1599.7 1870.25 Q1598.11 1868.98 1592.67 1867.8 L1590.63 1867.32 Q1585.19 1866.18 1582.77 1863.82 Q1580.35 1861.43 1580.35 1857.3 Q1580.35 1852.27 1583.92 1849.53 Q1587.48 1846.79 1594.04 1846.79 Q1597.29 1846.79 1600.15 1847.27 Q1603.01 1847.75 1605.43 1848.7 Z" fill="#000000" fill-rule="nonzero" fill-opacity="1" /><path clip-path="url(#clip150)" d="M1615.75 1833.84 L1620.84 1833.84 Q1625.61 1841.35 1627.97 1848.54 Q1630.36 1855.74 1630.36 1862.84 Q1630.36 1869.96 1627.97 1877.19 Q1625.61 1884.41 1620.84 1891.89 L1615.75 1891.89 Q1619.98 1884.61 1622.05 1877.41 Q1624.15 1870.19 1624.15 1862.84 Q1624.15 1855.48 1622.05 1848.32 Q1619.98 1841.16 1615.75 1833.84 Z" fill="#000000" fill-rule="nonzero" fill-opacity="1" /><polyline clip-path="url(#clip150)" style="stroke:#000000; stroke-linecap:round; stroke-linejoin:round; stroke-width:4; stroke-opacity:1; fill:none" points="240.4,1734.12 240.4,127.792 "/>
<polyline clip-path="url(#clip150)" style="stroke:#000000; stroke-linecap:round; stroke-linejoin:round; stroke-width:4; stroke-opacity:1; fill:none" points="240.4,1713.08 259.297,1713.08 "/>
<polyline clip-path="url(#clip150)" style="stroke:#000000; stroke-linecap:round; stroke-linejoin:round; stroke-width:4; stroke-opacity:1; fill:none" points="240.4,1380.31 259.297,1380.31 "/>
<polyline clip-path="url(#clip150)" style="stroke:#000000; stroke-linecap:round; stroke-linejoin:round; stroke-width:4; stroke-opacity:1; fill:none" points="240.4,1047.55 259.297,1047.55 "/>
<polyline clip-path="url(#clip150)" style="stroke:#000000; stroke-linecap:round; stroke-linejoin:round; stroke-width:4; stroke-opacity:1; fill:none" points="240.4,714.79 259.297,714.79 "/>
<polyline clip-path="url(#clip150)" style="stroke:#000000; stroke-linecap:round; stroke-linejoin:round; stroke-width:4; stroke-opacity:1; fill:none" points="240.4,382.028 259.297,382.028 "/>
<path clip-path="url(#clip150)" d="M188.135 1698.88 Q184.524 1698.88 182.696 1702.44 Q180.89 1705.98 180.89 1713.11 Q180.89 1720.22 182.696 1723.78 Q184.524 1727.32 188.135 1727.32 Q191.77 1727.32 193.575 1723.78 Q195.404 1720.22 195.404 1713.11 Q195.404 1705.98 193.575 1702.44 Q191.77 1698.88 188.135 1698.88 M188.135 1695.17 Q193.946 1695.17 197.001 1699.78 Q200.08 1704.36 200.08 1713.11 Q200.08 1721.84 197.001 1726.45 Q193.946 1731.03 188.135 1731.03 Q182.325 1731.03 179.247 1726.45 Q176.191 1721.84 176.191 1713.11 Q176.191 1704.36 179.247 1699.78 Q182.325 1695.17 188.135 1695.17 Z" fill="#000000" fill-rule="nonzero" fill-opacity="1" /><path clip-path="url(#clip150)" d="M148.02 1363.03 L166.376 1363.03 L166.376 1366.97 L152.302 1366.97 L152.302 1375.44 Q153.321 1375.1 154.339 1374.93 Q155.358 1374.75 156.376 1374.75 Q162.163 1374.75 165.543 1377.92 Q168.922 1381.09 168.922 1386.51 Q168.922 1392.09 165.45 1395.19 Q161.978 1398.27 155.659 1398.27 Q153.483 1398.27 151.214 1397.9 Q148.969 1397.53 146.562 1396.78 L146.562 1392.09 Q148.645 1393.22 150.867 1393.78 Q153.089 1394.33 155.566 1394.33 Q159.571 1394.33 161.909 1392.22 Q164.247 1390.12 164.247 1386.51 Q164.247 1382.9 161.909 1380.79 Q159.571 1378.68 155.566 1378.68 Q153.691 1378.68 151.816 1379.1 Q149.964 1379.52 148.02 1380.4 L148.02 1363.03 Z" fill="#000000" fill-rule="nonzero" fill-opacity="1" /><path clip-path="url(#clip150)" d="M188.135 1366.11 Q184.524 1366.11 182.696 1369.68 Q180.89 1373.22 180.89 1380.35 Q180.89 1387.46 182.696 1391.02 Q184.524 1394.56 188.135 1394.56 Q191.77 1394.56 193.575 1391.02 Q195.404 1387.46 195.404 1380.35 Q195.404 1373.22 193.575 1369.68 Q191.77 1366.11 188.135 1366.11 M188.135 1362.41 Q193.946 1362.41 197.001 1367.02 Q200.08 1371.6 200.08 1380.35 Q200.08 1389.08 197.001 1393.68 Q193.946 1398.27 188.135 1398.27 Q182.325 1398.27 179.247 1393.68 Q176.191 1389.08 176.191 1380.35 Q176.191 1371.6 179.247 1367.02 Q182.325 1362.41 188.135 1362.41 Z" fill="#000000" fill-rule="nonzero" fill-opacity="1" /><path clip-path="url(#clip150)" d="M118.622 1060.9 L126.261 1060.9 L126.261 1034.53 L117.951 1036.2 L117.951 1031.94 L126.214 1030.27 L130.89 1030.27 L130.89 1060.9 L138.529 1060.9 L138.529 1064.83 L118.622 1064.83 L118.622 1060.9 Z" fill="#000000" fill-rule="nonzero" fill-opacity="1" /><path clip-path="url(#clip150)" d="M157.973 1033.35 Q154.362 1033.35 152.534 1036.92 Q150.728 1040.46 150.728 1047.59 Q150.728 1054.69 152.534 1058.26 Q154.362 1061.8 157.973 1061.8 Q161.608 1061.8 163.413 1058.26 Q165.242 1054.69 165.242 1047.59 Q165.242 1040.46 163.413 1036.92 Q161.608 1033.35 157.973 1033.35 M157.973 1029.65 Q163.784 1029.65 166.839 1034.25 Q169.918 1038.84 169.918 1047.59 Q169.918 1056.31 166.839 1060.92 Q163.784 1065.5 157.973 1065.5 Q152.163 1065.5 149.085 1060.92 Q146.029 1056.31 146.029 1047.59 Q146.029 1038.84 149.085 1034.25 Q152.163 1029.65 157.973 1029.65 Z" fill="#000000" fill-rule="nonzero" fill-opacity="1" /><path clip-path="url(#clip150)" d="M188.135 1033.35 Q184.524 1033.35 182.696 1036.92 Q180.89 1040.46 180.89 1047.59 Q180.89 1054.69 182.696 1058.26 Q184.524 1061.8 188.135 1061.8 Q191.77 1061.8 193.575 1058.26 Q195.404 1054.69 195.404 1047.59 Q195.404 1040.46 193.575 1036.92 Q191.77 1033.35 188.135 1033.35 M188.135 1029.65 Q193.946 1029.65 197.001 1034.25 Q200.08 1038.84 200.08 1047.59 Q200.08 1056.31 197.001 1060.92 Q193.946 1065.5 188.135 1065.5 Q182.325 1065.5 179.247 1060.92 Q176.191 1056.31 176.191 1047.59 Q176.191 1038.84 179.247 1034.25 Q182.325 1029.65 188.135 1029.65 Z" fill="#000000" fill-rule="nonzero" fill-opacity="1" /><path clip-path="url(#clip150)" d="M118.622 728.135 L126.261 728.135 L126.261 701.769 L117.951 703.436 L117.951 699.177 L126.214 697.51 L130.89 697.51 L130.89 728.135 L138.529 728.135 L138.529 732.07 L118.622 732.07 L118.622 728.135 Z" fill="#000000" fill-rule="nonzero" fill-opacity="1" /><path clip-path="url(#clip150)" d="M148.02 697.51 L166.376 697.51 L166.376 701.445 L152.302 701.445 L152.302 709.917 Q153.321 709.57 154.339 709.408 Q155.358 709.223 156.376 709.223 Q162.163 709.223 165.543 712.394 Q168.922 715.565 168.922 720.982 Q168.922 726.561 165.45 729.663 Q161.978 732.741 155.659 732.741 Q153.483 732.741 151.214 732.371 Q148.969 732.001 146.562 731.26 L146.562 726.561 Q148.645 727.695 150.867 728.251 Q153.089 728.806 155.566 728.806 Q159.571 728.806 161.909 726.7 Q164.247 724.593 164.247 720.982 Q164.247 717.371 161.909 715.265 Q159.571 713.158 155.566 713.158 Q153.691 713.158 151.816 713.575 Q149.964 713.991 148.02 714.871 L148.02 697.51 Z" fill="#000000" fill-rule="nonzero" fill-opacity="1" /><path clip-path="url(#clip150)" d="M188.135 700.589 Q184.524 700.589 182.696 704.154 Q180.89 707.695 180.89 714.825 Q180.89 721.931 182.696 725.496 Q184.524 729.038 188.135 729.038 Q191.77 729.038 193.575 725.496 Q195.404 721.931 195.404 714.825 Q195.404 707.695 193.575 704.154 Q191.77 700.589 188.135 700.589 M188.135 696.885 Q193.946 696.885 197.001 701.491 Q200.08 706.075 200.08 714.825 Q200.08 723.552 197.001 728.158 Q193.946 732.741 188.135 732.741 Q182.325 732.741 179.247 728.158 Q176.191 723.552 176.191 714.825 Q176.191 706.075 179.247 701.491 Q182.325 696.885 188.135 696.885 Z" fill="#000000" fill-rule="nonzero" fill-opacity="1" /><path clip-path="url(#clip150)" d="M121.839 395.372 L138.159 395.372 L138.159 399.308 L116.214 399.308 L116.214 395.372 Q118.876 392.618 123.46 387.988 Q128.066 383.335 129.247 381.993 Q131.492 379.47 132.372 377.734 Q133.275 375.974 133.275 374.285 Q133.275 371.53 131.33 369.794 Q129.409 368.058 126.307 368.058 Q124.108 368.058 121.654 368.822 Q119.224 369.586 116.446 371.136 L116.446 366.414 Q119.27 365.28 121.724 364.701 Q124.177 364.123 126.214 364.123 Q131.585 364.123 134.779 366.808 Q137.974 369.493 137.974 373.984 Q137.974 376.113 137.163 378.035 Q136.376 379.933 134.27 382.525 Q133.691 383.197 130.589 386.414 Q127.488 389.609 121.839 395.372 Z" fill="#000000" fill-rule="nonzero" fill-opacity="1" /><path clip-path="url(#clip150)" d="M157.973 367.826 Q154.362 367.826 152.534 371.391 Q150.728 374.933 150.728 382.062 Q150.728 389.169 152.534 392.734 Q154.362 396.275 157.973 396.275 Q161.608 396.275 163.413 392.734 Q165.242 389.169 165.242 382.062 Q165.242 374.933 163.413 371.391 Q161.608 367.826 157.973 367.826 M157.973 364.123 Q163.784 364.123 166.839 368.729 Q169.918 373.312 169.918 382.062 Q169.918 390.789 166.839 395.396 Q163.784 399.979 157.973 399.979 Q152.163 399.979 149.085 395.396 Q146.029 390.789 146.029 382.062 Q146.029 373.312 149.085 368.729 Q152.163 364.123 157.973 364.123 Z" fill="#000000" fill-rule="nonzero" fill-opacity="1" /><path clip-path="url(#clip150)" d="M188.135 367.826 Q184.524 367.826 182.696 371.391 Q180.89 374.933 180.89 382.062 Q180.89 389.169 182.696 392.734 Q184.524 396.275 188.135 396.275 Q191.77 396.275 193.575 392.734 Q195.404 389.169 195.404 382.062 Q195.404 374.933 193.575 371.391 Q191.77 367.826 188.135 367.826 M188.135 364.123 Q193.946 364.123 197.001 368.729 Q200.08 373.312 200.08 382.062 Q200.08 390.789 197.001 395.396 Q193.946 399.979 188.135 399.979 Q182.325 399.979 179.247 395.396 Q176.191 390.789 176.191 382.062 Q176.191 373.312 179.247 368.729 Q182.325 364.123 188.135 364.123 Z" fill="#000000" fill-rule="nonzero" fill-opacity="1" /><path clip-path="url(#clip150)" d="M14.1184 1058.03 L14.1184 1051.6 L61.6384 1051.6 L61.6384 1058.03 L14.1184 1058.03 Z" fill="#000000" fill-rule="nonzero" fill-opacity="1" /><path clip-path="url(#clip150)" d="M40.1224 1009.43 L61.6384 1009.43 L61.6384 1015.28 L40.3133 1015.28 Q35.2526 1015.28 32.7381 1017.26 Q30.2237 1019.23 30.2237 1023.18 Q30.2237 1027.92 33.2474 1030.66 Q36.2711 1033.39 41.491 1033.39 L61.6384 1033.39 L61.6384 1039.28 L25.9905 1039.28 L25.9905 1033.39 L31.5287 1033.39 Q28.314 1031.29 26.7225 1028.46 Q25.1311 1025.6 25.1311 1021.87 Q25.1311 1015.73 28.9505 1012.58 Q32.7381 1009.43 40.1224 1009.43 Z" fill="#000000" fill-rule="nonzero" fill-opacity="1" /><path clip-path="url(#clip150)" d="M12.1132 979.7 L16.983 979.7 L16.983 985.302 Q16.983 988.453 18.2562 989.694 Q19.5293 990.904 22.8395 990.904 L25.9905 990.904 L25.9905 981.26 L30.542 981.26 L30.542 990.904 L61.6384 990.904 L61.6384 996.792 L30.542 996.792 L30.542 1002.39 L25.9905 1002.39 L25.9905 996.792 L23.5079 996.792 Q17.5559 996.792 14.8505 994.023 Q12.1132 991.254 12.1132 985.238 L12.1132 979.7 Z" fill="#000000" fill-rule="nonzero" fill-opacity="1" /><path clip-path="url(#clip150)" d="M42.3504 944.307 L45.2149 944.307 L45.2149 971.234 Q51.2623 970.852 54.4452 967.605 Q57.5962 964.327 57.5962 958.502 Q57.5962 955.128 56.7687 951.977 Q55.9411 948.794 54.2861 945.675 L59.8242 945.675 Q61.161 948.826 61.8612 952.136 Q62.5615 955.447 62.5615 958.852 Q62.5615 967.382 57.5962 972.379 Q52.631 977.345 44.1646 977.345 Q35.4117 977.345 30.2873 972.634 Q25.1311 967.892 25.1311 959.871 Q25.1311 952.678 29.7781 948.508 Q34.3932 944.307 42.3504 944.307 M40.6316 950.163 Q35.8255 950.227 32.9609 952.869 Q30.0964 955.478 30.0964 959.807 Q30.0964 964.709 32.8654 967.669 Q35.6345 970.597 40.6634 971.043 L40.6316 950.163 Z" fill="#000000" fill-rule="nonzero" fill-opacity="1" /><path clip-path="url(#clip150)" d="M27.3591 909.041 L32.8336 909.041 Q31.465 911.523 30.7966 914.038 Q30.0964 916.52 30.0964 919.067 Q30.0964 924.764 33.7248 927.915 Q37.3214 931.066 43.8463 931.066 Q50.3711 931.066 53.9996 927.915 Q57.5962 924.764 57.5962 919.067 Q57.5962 916.52 56.9278 914.038 Q56.2276 911.523 54.859 909.041 L60.2698 909.041 Q61.4156 911.491 61.9886 914.133 Q62.5615 916.743 62.5615 919.703 Q62.5615 927.756 57.5007 932.498 Q52.44 937.241 43.8463 937.241 Q35.1253 937.241 30.1282 932.466 Q25.1311 927.66 25.1311 919.321 Q25.1311 916.616 25.704 914.038 Q26.2451 911.46 27.3591 909.041 Z" fill="#000000" fill-rule="nonzero" fill-opacity="1" /><path clip-path="url(#clip150)" d="M15.869 893.063 L25.9905 893.063 L25.9905 881 L30.542 881 L30.542 893.063 L49.8937 893.063 Q54.2542 893.063 55.4955 891.885 Q56.7368 890.676 56.7368 887.015 L56.7368 881 L61.6384 881 L61.6384 887.015 Q61.6384 893.795 59.124 896.373 Q56.5777 898.951 49.8937 898.951 L30.542 898.951 L30.542 903.248 L25.9905 903.248 L25.9905 898.951 L15.869 898.951 L15.869 893.063 Z" fill="#000000" fill-rule="nonzero" fill-opacity="1" /><path clip-path="url(#clip150)" d="M42.3504 842.805 L45.2149 842.805 L45.2149 869.732 Q51.2623 869.35 54.4452 866.104 Q57.5962 862.826 57.5962 857.001 Q57.5962 853.627 56.7687 850.476 Q55.9411 847.293 54.2861 844.174 L59.8242 844.174 Q61.161 847.325 61.8612 850.635 Q62.5615 853.945 62.5615 857.351 Q62.5615 865.881 57.5962 870.878 Q52.631 875.843 44.1646 875.843 Q35.4117 875.843 30.2873 871.133 Q25.1311 866.39 25.1311 858.37 Q25.1311 851.176 29.7781 847.007 Q34.3932 842.805 42.3504 842.805 M40.6316 848.662 Q35.8255 848.726 32.9609 851.367 Q30.0964 853.977 30.0964 858.306 Q30.0964 863.208 32.8654 866.168 Q35.6345 869.096 40.6634 869.541 L40.6316 848.662 Z" fill="#000000" fill-rule="nonzero" fill-opacity="1" /><path clip-path="url(#clip150)" d="M31.4013 809.736 L12.1132 809.736 L12.1132 803.879 L61.6384 803.879 L61.6384 809.736 L56.2912 809.736 Q59.4741 811.582 61.0337 814.414 Q62.5615 817.215 62.5615 821.162 Q62.5615 827.623 57.4052 831.697 Q52.249 835.739 43.8463 835.739 Q35.4436 835.739 30.2873 831.697 Q25.1311 827.623 25.1311 821.162 Q25.1311 817.215 26.6907 814.414 Q28.2185 811.582 31.4013 809.736 M43.8463 829.692 Q50.3075 829.692 53.9996 827.05 Q57.6599 824.377 57.6599 819.73 Q57.6599 815.083 53.9996 812.409 Q50.3075 809.736 43.8463 809.736 Q37.3851 809.736 33.7248 812.409 Q30.0327 815.083 30.0327 819.73 Q30.0327 824.377 33.7248 827.05 Q37.3851 829.692 43.8463 829.692 Z" fill="#000000" fill-rule="nonzero" fill-opacity="1" /><path clip-path="url(#clip150)" d="M929.394 12.096 L980.557 12.096 L980.557 18.9825 L959.087 18.9825 L959.087 72.576 L950.864 72.576 L950.864 18.9825 L929.394 18.9825 L929.394 12.096 Z" fill="#000000" fill-rule="nonzero" fill-opacity="1" /><path clip-path="url(#clip150)" d="M1002.23 34.1734 Q1000.97 33.4443 999.475 33.1202 Q998.017 32.7556 996.234 32.7556 Q989.915 32.7556 986.512 36.8875 Q983.15 40.9789 983.15 48.6757 L983.15 72.576 L975.656 72.576 L975.656 27.2059 L983.15 27.2059 L983.15 34.2544 Q985.499 30.1225 989.267 28.1376 Q993.034 26.1121 998.422 26.1121 Q999.191 26.1121 1000.12 26.2337 Q1001.05 26.3147 1002.19 26.5172 L1002.23 34.1734 Z" fill="#000000" fill-rule="nonzero" fill-opacity="1" /><path clip-path="url(#clip150)" d="M1030.67 49.7694 Q1021.63 49.7694 1018.15 51.8354 Q1014.67 53.9013 1014.67 58.8839 Q1014.67 62.8538 1017.26 65.2034 Q1019.89 67.5124 1024.39 67.5124 Q1030.59 67.5124 1034.31 63.1374 Q1038.08 58.7219 1038.08 51.4303 L1038.08 49.7694 L1030.67 49.7694 M1045.53 46.6907 L1045.53 72.576 L1038.08 72.576 L1038.08 65.6895 Q1035.53 69.8214 1031.72 71.8063 Q1027.91 73.7508 1022.4 73.7508 Q1015.44 73.7508 1011.3 69.8619 Q1007.21 65.9325 1007.21 59.3701 Q1007.21 51.7138 1012.32 47.825 Q1017.46 43.9361 1027.63 43.9361 L1038.08 43.9361 L1038.08 43.2069 Q1038.08 38.0623 1034.68 35.2672 Q1031.31 32.4315 1025.2 32.4315 Q1021.31 32.4315 1017.62 33.3632 Q1013.94 34.295 1010.53 36.1584 L1010.53 29.2718 Q1014.63 27.692 1018.47 26.9223 Q1022.32 26.1121 1025.97 26.1121 Q1035.81 26.1121 1040.67 31.2163 Q1045.53 36.3204 1045.53 46.6907 Z" fill="#000000" fill-rule="nonzero" fill-opacity="1" /><path clip-path="url(#clip150)" d="M1060.89 27.2059 L1068.34 27.2059 L1068.34 73.3862 Q1068.34 82.0551 1065.02 85.944 Q1061.74 89.8329 1054.41 89.8329 L1051.57 89.8329 L1051.57 83.5134 L1053.55 83.5134 Q1057.81 83.5134 1059.35 81.5285 Q1060.89 79.5841 1060.89 73.3862 L1060.89 27.2059 M1060.89 9.54393 L1068.34 9.54393 L1068.34 18.9825 L1060.89 18.9825 L1060.89 9.54393 Z" fill="#000000" fill-rule="nonzero" fill-opacity="1" /><path clip-path="url(#clip150)" d="M1122.74 48.0275 L1122.74 51.6733 L1088.47 51.6733 Q1088.96 59.3701 1093.09 63.421 Q1097.26 67.4314 1104.68 67.4314 Q1108.97 67.4314 1112.98 66.3781 Q1117.03 65.3249 1121 63.2184 L1121 70.267 Q1116.99 71.9684 1112.78 72.8596 Q1108.57 73.7508 1104.23 73.7508 Q1093.37 73.7508 1087.01 67.4314 Q1080.7 61.1119 1080.7 50.3365 Q1080.7 39.1965 1086.69 32.6746 Q1092.73 26.1121 1102.93 26.1121 Q1112.09 26.1121 1117.4 32.0264 Q1122.74 37.9003 1122.74 48.0275 M1115.29 45.84 Q1115.21 39.7232 1111.85 36.0774 Q1108.53 32.4315 1103.02 32.4315 Q1096.78 32.4315 1093.01 35.9558 Q1089.28 39.4801 1088.72 45.8805 L1115.29 45.84 Z" fill="#000000" fill-rule="nonzero" fill-opacity="1" /><path clip-path="url(#clip150)" d="M1167.63 28.9478 L1167.63 35.9153 Q1164.47 34.1734 1161.27 33.3227 Q1158.11 32.4315 1154.87 32.4315 Q1147.62 32.4315 1143.61 37.0496 Q1139.6 41.6271 1139.6 49.9314 Q1139.6 58.2358 1143.61 62.8538 Q1147.62 67.4314 1154.87 67.4314 Q1158.11 67.4314 1161.27 66.5807 Q1164.47 65.6895 1167.63 63.9476 L1167.63 70.8341 Q1164.51 72.2924 1161.15 73.0216 Q1157.82 73.7508 1154.06 73.7508 Q1143.81 73.7508 1137.77 67.3098 Q1131.74 60.8689 1131.74 49.9314 Q1131.74 38.832 1137.81 32.472 Q1143.93 26.1121 1154.54 26.1121 Q1157.99 26.1121 1161.27 26.8413 Q1164.55 27.5299 1167.63 28.9478 Z" fill="#000000" fill-rule="nonzero" fill-opacity="1" /><path clip-path="url(#clip150)" d="M1187.96 14.324 L1187.96 27.2059 L1203.32 27.2059 L1203.32 32.9987 L1187.96 32.9987 L1187.96 57.6282 Q1187.96 63.1779 1189.46 64.7578 Q1191 66.3376 1195.66 66.3376 L1203.32 66.3376 L1203.32 72.576 L1195.66 72.576 Q1187.03 72.576 1183.75 69.3758 Q1180.47 66.1351 1180.47 57.6282 L1180.47 32.9987 L1175 32.9987 L1175 27.2059 L1180.47 27.2059 L1180.47 14.324 L1187.96 14.324 Z" fill="#000000" fill-rule="nonzero" fill-opacity="1" /><path clip-path="url(#clip150)" d="M1230.7 32.4315 Q1224.71 32.4315 1221.22 37.1306 Q1217.74 41.7891 1217.74 49.9314 Q1217.74 58.0738 1221.18 62.7728 Q1224.66 67.4314 1230.7 67.4314 Q1236.66 67.4314 1240.14 62.7323 Q1243.62 58.0333 1243.62 49.9314 Q1243.62 41.8701 1240.14 37.1711 Q1236.66 32.4315 1230.7 32.4315 M1230.7 26.1121 Q1240.42 26.1121 1245.97 32.4315 Q1251.52 38.7509 1251.52 49.9314 Q1251.52 61.0714 1245.97 67.4314 Q1240.42 73.7508 1230.7 73.7508 Q1220.94 73.7508 1215.39 67.4314 Q1209.88 61.0714 1209.88 49.9314 Q1209.88 38.7509 1215.39 32.4315 Q1220.94 26.1121 1230.7 26.1121 Z" fill="#000000" fill-rule="nonzero" fill-opacity="1" /><path clip-path="url(#clip150)" d="M1290.17 34.1734 Q1288.91 33.4443 1287.41 33.1202 Q1285.95 32.7556 1284.17 32.7556 Q1277.85 32.7556 1274.45 36.8875 Q1271.09 40.9789 1271.09 48.6757 L1271.09 72.576 L1263.59 72.576 L1263.59 27.2059 L1271.09 27.2059 L1271.09 34.2544 Q1273.44 30.1225 1277.2 28.1376 Q1280.97 26.1121 1286.36 26.1121 Q1287.13 26.1121 1288.06 26.2337 Q1288.99 26.3147 1290.13 26.5172 L1290.17 34.1734 Z" fill="#000000" fill-rule="nonzero" fill-opacity="1" /><path clip-path="url(#clip150)" d="M1316.86 76.7889 Q1313.7 84.8907 1310.71 87.3618 Q1307.71 89.8329 1302.69 89.8329 L1296.73 89.8329 L1296.73 83.5945 L1301.11 83.5945 Q1304.18 83.5945 1305.89 82.1361 Q1307.59 80.6778 1309.65 75.2496 L1310.99 71.8468 L1292.64 27.2059 L1300.54 27.2059 L1314.72 62.6918 L1328.89 27.2059 L1336.79 27.2059 L1316.86 76.7889 Z" fill="#000000" fill-rule="nonzero" fill-opacity="1" /><path clip-path="url(#clip150)" d="M1419.07 16.7545 L1419.07 25.383 Q1414.94 21.5346 1410.24 19.6307 Q1405.58 17.7268 1400.31 17.7268 Q1389.94 17.7268 1384.43 24.0867 Q1378.92 30.4061 1378.92 42.3968 Q1378.92 54.3469 1384.43 60.7069 Q1389.94 67.0263 1400.31 67.0263 Q1405.58 67.0263 1410.24 65.1223 Q1414.94 63.2184 1419.07 59.3701 L1419.07 67.9175 Q1414.77 70.8341 1409.95 72.2924 Q1405.17 73.7508 1399.83 73.7508 Q1386.09 73.7508 1378.19 65.3654 Q1370.29 56.9395 1370.29 42.3968 Q1370.29 27.8135 1378.19 19.4281 Q1386.09 11.0023 1399.83 11.0023 Q1405.25 11.0023 1410.03 12.4606 Q1414.85 13.8784 1419.07 16.7545 Z" fill="#000000" fill-rule="nonzero" fill-opacity="1" /><path clip-path="url(#clip150)" d="M1431.71 12.096 L1439.89 12.096 L1439.89 72.576 L1431.71 72.576 L1431.71 12.096 Z" fill="#000000" fill-rule="nonzero" fill-opacity="1" /><path clip-path="url(#clip150)" d="M1514.87 28.9478 L1514.87 35.9153 Q1511.71 34.1734 1508.51 33.3227 Q1505.35 32.4315 1502.11 32.4315 Q1494.86 32.4315 1490.85 37.0496 Q1486.84 41.6271 1486.84 49.9314 Q1486.84 58.2358 1490.85 62.8538 Q1494.86 67.4314 1502.11 67.4314 Q1505.35 67.4314 1508.51 66.5807 Q1511.71 65.6895 1514.87 63.9476 L1514.87 70.8341 Q1511.75 72.2924 1508.39 73.0216 Q1505.07 73.7508 1501.3 73.7508 Q1491.05 73.7508 1485.02 67.3098 Q1478.98 60.8689 1478.98 49.9314 Q1478.98 38.832 1485.06 32.472 Q1491.17 26.1121 1501.79 26.1121 Q1505.23 26.1121 1508.51 26.8413 Q1511.79 27.5299 1514.87 28.9478 Z" fill="#000000" fill-rule="nonzero" fill-opacity="1" /><path clip-path="url(#clip150)" d="M1545.42 32.4315 Q1539.42 32.4315 1535.94 37.1306 Q1532.45 41.7891 1532.45 49.9314 Q1532.45 58.0738 1535.9 62.7728 Q1539.38 67.4314 1545.42 67.4314 Q1551.37 67.4314 1554.85 62.7323 Q1558.34 58.0333 1558.34 49.9314 Q1558.34 41.8701 1554.85 37.1711 Q1551.37 32.4315 1545.42 32.4315 M1545.42 26.1121 Q1555.14 26.1121 1560.69 32.4315 Q1566.24 38.7509 1566.24 49.9314 Q1566.24 61.0714 1560.69 67.4314 Q1555.14 73.7508 1545.42 73.7508 Q1535.65 73.7508 1530.1 67.4314 Q1524.59 61.0714 1524.59 49.9314 Q1524.59 38.7509 1530.1 32.4315 Q1535.65 26.1121 1545.42 26.1121 Z" fill="#000000" fill-rule="nonzero" fill-opacity="1" /><path clip-path="url(#clip150)" d="M1613.92 35.9153 Q1616.71 30.8922 1620.6 28.5022 Q1624.49 26.1121 1629.76 26.1121 Q1636.84 26.1121 1640.69 31.0947 Q1644.54 36.0368 1644.54 45.1919 L1644.54 72.576 L1637.05 72.576 L1637.05 45.4349 Q1637.05 38.913 1634.74 35.7533 Q1632.43 32.5936 1627.69 32.5936 Q1621.9 32.5936 1618.53 36.4419 Q1615.17 40.2903 1615.17 46.9338 L1615.17 72.576 L1607.68 72.576 L1607.68 45.4349 Q1607.68 38.8725 1605.37 35.7533 Q1603.06 32.5936 1598.24 32.5936 Q1592.53 32.5936 1589.16 36.4824 Q1585.8 40.3308 1585.8 46.9338 L1585.8 72.576 L1578.31 72.576 L1578.31 27.2059 L1585.8 27.2059 L1585.8 34.2544 Q1588.35 30.082 1591.92 28.0971 Q1595.48 26.1121 1600.39 26.1121 Q1605.33 26.1121 1608.77 28.6237 Q1612.26 31.1352 1613.92 35.9153 Z" fill="#000000" fill-rule="nonzero" fill-opacity="1" /><path clip-path="url(#clip150)" d="M1666.62 65.7705 L1666.62 89.8329 L1659.12 89.8329 L1659.12 27.2059 L1666.62 27.2059 L1666.62 34.0924 Q1668.97 30.0415 1672.53 28.0971 Q1676.14 26.1121 1681.12 26.1121 Q1689.38 26.1121 1694.53 32.6746 Q1699.71 39.2371 1699.71 49.9314 Q1699.71 60.6258 1694.53 67.1883 Q1689.38 73.7508 1681.12 73.7508 Q1676.14 73.7508 1672.53 71.8063 Q1668.97 69.8214 1666.62 65.7705 M1691.98 49.9314 Q1691.98 41.7081 1688.57 37.0496 Q1685.21 32.3505 1679.3 32.3505 Q1673.38 32.3505 1669.98 37.0496 Q1666.62 41.7081 1666.62 49.9314 Q1666.62 58.1548 1669.98 62.8538 Q1673.38 67.5124 1679.3 67.5124 Q1685.21 67.5124 1688.57 62.8538 Q1691.98 58.1548 1691.98 49.9314 Z" fill="#000000" fill-rule="nonzero" fill-opacity="1" /><path clip-path="url(#clip150)" d="M1732.69 49.7694 Q1723.66 49.7694 1720.17 51.8354 Q1716.69 53.9013 1716.69 58.8839 Q1716.69 62.8538 1719.28 65.2034 Q1721.91 67.5124 1726.41 67.5124 Q1732.61 67.5124 1736.33 63.1374 Q1740.1 58.7219 1740.1 51.4303 L1740.1 49.7694 L1732.69 49.7694 M1747.56 46.6907 L1747.56 72.576 L1740.1 72.576 L1740.1 65.6895 Q1737.55 69.8214 1733.74 71.8063 Q1729.93 73.7508 1724.42 73.7508 Q1717.46 73.7508 1713.33 69.8619 Q1709.23 65.9325 1709.23 59.3701 Q1709.23 51.7138 1714.34 47.825 Q1719.48 43.9361 1729.65 43.9361 L1740.1 43.9361 L1740.1 43.2069 Q1740.1 38.0623 1736.7 35.2672 Q1733.34 32.4315 1727.22 32.4315 Q1723.33 32.4315 1719.64 33.3632 Q1715.96 34.295 1712.56 36.1584 L1712.56 29.2718 Q1716.65 27.692 1720.5 26.9223 Q1724.34 26.1121 1727.99 26.1121 Q1737.83 26.1121 1742.69 31.2163 Q1747.56 36.3204 1747.56 46.6907 Z" fill="#000000" fill-rule="nonzero" fill-opacity="1" /><path clip-path="url(#clip150)" d="M1789.2 34.1734 Q1787.94 33.4443 1786.44 33.1202 Q1784.99 32.7556 1783.2 32.7556 Q1776.88 32.7556 1773.48 36.8875 Q1770.12 40.9789 1770.12 48.6757 L1770.12 72.576 L1762.62 72.576 L1762.62 27.2059 L1770.12 27.2059 L1770.12 34.2544 Q1772.47 30.1225 1776.24 28.1376 Q1780 26.1121 1785.39 26.1121 Q1786.16 26.1121 1787.09 26.2337 Q1788.02 26.3147 1789.16 26.5172 L1789.2 34.1734 Z" fill="#000000" fill-rule="nonzero" fill-opacity="1" /><path clip-path="url(#clip150)" d="M1797.02 27.2059 L1804.47 27.2059 L1804.47 72.576 L1797.02 72.576 L1797.02 27.2059 M1797.02 9.54393 L1804.47 9.54393 L1804.47 18.9825 L1797.02 18.9825 L1797.02 9.54393 Z" fill="#000000" fill-rule="nonzero" fill-opacity="1" /><path clip-path="url(#clip150)" d="M1848.99 28.5427 L1848.99 35.5912 Q1845.83 33.9709 1842.43 33.1607 Q1839.02 32.3505 1835.38 32.3505 Q1829.83 32.3505 1827.03 34.0519 Q1824.28 35.7533 1824.28 39.156 Q1824.28 41.7486 1826.26 43.2475 Q1828.25 44.7058 1834.24 46.0426 L1836.8 46.6097 Q1844.74 48.3111 1848.06 51.4303 Q1851.42 54.509 1851.42 60.0587 Q1851.42 66.3781 1846.4 70.0644 Q1841.41 73.7508 1832.66 73.7508 Q1829.02 73.7508 1825.05 73.0216 Q1821.12 72.3329 1816.74 70.9151 L1816.74 63.2184 Q1820.88 65.3654 1824.89 66.4591 Q1828.9 67.5124 1832.83 67.5124 Q1838.09 67.5124 1840.93 65.73 Q1843.76 63.9071 1843.76 60.6258 Q1843.76 57.5877 1841.7 55.9673 Q1839.67 54.3469 1832.75 52.8481 L1830.15 52.2405 Q1823.23 50.7821 1820.15 47.7845 Q1817.07 44.7463 1817.07 39.4801 Q1817.07 33.0797 1821.61 29.5959 Q1826.14 26.1121 1834.49 26.1121 Q1838.62 26.1121 1842.27 26.7198 Q1845.91 27.3274 1848.99 28.5427 Z" fill="#000000" fill-rule="nonzero" fill-opacity="1" /><path clip-path="url(#clip150)" d="M1880.87 32.4315 Q1874.88 32.4315 1871.39 37.1306 Q1867.91 41.7891 1867.91 49.9314 Q1867.91 58.0738 1871.35 62.7728 Q1874.83 67.4314 1880.87 67.4314 Q1886.83 67.4314 1890.31 62.7323 Q1893.79 58.0333 1893.79 49.9314 Q1893.79 41.8701 1890.31 37.1711 Q1886.83 32.4315 1880.87 32.4315 M1880.87 26.1121 Q1890.59 26.1121 1896.14 32.4315 Q1901.69 38.7509 1901.69 49.9314 Q1901.69 61.0714 1896.14 67.4314 Q1890.59 73.7508 1880.87 73.7508 Q1871.11 73.7508 1865.56 67.4314 Q1860.05 61.0714 1860.05 49.9314 Q1860.05 38.7509 1865.56 32.4315 Q1871.11 26.1121 1880.87 26.1121 Z" fill="#000000" fill-rule="nonzero" fill-opacity="1" /><path clip-path="url(#clip150)" d="M1951.76 45.1919 L1951.76 72.576 L1944.31 72.576 L1944.31 45.4349 Q1944.31 38.994 1941.8 35.7938 Q1939.28 32.5936 1934.26 32.5936 Q1928.23 32.5936 1924.74 36.4419 Q1921.26 40.2903 1921.26 46.9338 L1921.26 72.576 L1913.76 72.576 L1913.76 27.2059 L1921.26 27.2059 L1921.26 34.2544 Q1923.93 30.163 1927.54 28.1376 Q1931.18 26.1121 1935.92 26.1121 Q1943.74 26.1121 1947.75 30.9732 Q1951.76 35.7938 1951.76 45.1919 Z" fill="#000000" fill-rule="nonzero" fill-opacity="1" /><polyline clip-path="url(#clip151)" style="stroke:#000000; stroke-linecap:round; stroke-linejoin:round; stroke-width:8; stroke-opacity:1; fill:none" stroke-dasharray="32, 20" points="308.334,1646.52 364.947,1602.14 421.559,1536.35 478.171,1443.71 534.783,1320.23 591.395,1165.47 648.007,984.644 704.62,789.719 761.232,598.413 817.844,430.654 874.456,303.768 931.068,228.249 987.68,206.239 1044.29,232.814 1100.9,298.323 1157.52,391.385 1214.13,501.352 1270.74,619.001 1327.35,737.425 1383.97,851.73 1440.58,958.746 1497.19,1056.74 1553.8,1145 1610.41,1223.4 1667.03,1292.37 1723.64,1352.57 1780.25,1404.77 1836.86,1449.77 1893.48,1488.42 1950.09,1521.55 2006.7,1549.88 2063.31,1574.03 2119.92,1594.59 2176.54,1612.09 2233.15,1626.98 2289.76,1639.63 2346.37,1650.38 2402.98,1659.51 2459.6,1667.27 2516.21,1673.88 2572.82,1679.5 "/>
<circle clip-path="url(#clip151)" cx="308.334" cy="1688.65" r="7.2" fill="#808080" fill-rule="evenodd" fill-opacity="0.3" stroke="#000000" stroke-opacity="0.3" stroke-width="3.84"/>
<circle clip-path="url(#clip151)" cx="364.947" cy="1583.76" r="7.2" fill="#808080" fill-rule="evenodd" fill-opacity="0.3" stroke="#000000" stroke-opacity="0.3" stroke-width="3.84"/>
<circle clip-path="url(#clip151)" cx="421.559" cy="1526.01" r="7.2" fill="#808080" fill-rule="evenodd" fill-opacity="0.3" stroke="#000000" stroke-opacity="0.3" stroke-width="3.84"/>
<circle clip-path="url(#clip151)" cx="478.171" cy="1437.19" r="7.2" fill="#808080" fill-rule="evenodd" fill-opacity="0.3" stroke="#000000" stroke-opacity="0.3" stroke-width="3.84"/>
<circle clip-path="url(#clip151)" cx="534.783" cy="1359.79" r="7.2" fill="#808080" fill-rule="evenodd" fill-opacity="0.3" stroke="#000000" stroke-opacity="0.3" stroke-width="3.84"/>
<circle clip-path="url(#clip151)" cx="591.395" cy="1136.79" r="7.2" fill="#808080" fill-rule="evenodd" fill-opacity="0.3" stroke="#000000" stroke-opacity="0.3" stroke-width="3.84"/>
<circle clip-path="url(#clip151)" cx="648.007" cy="906.012" r="7.2" fill="#808080" fill-rule="evenodd" fill-opacity="0.3" stroke="#000000" stroke-opacity="0.3" stroke-width="3.84"/>
<circle clip-path="url(#clip151)" cx="704.62" cy="802.834" r="7.2" fill="#808080" fill-rule="evenodd" fill-opacity="0.3" stroke="#000000" stroke-opacity="0.3" stroke-width="3.84"/>
<circle clip-path="url(#clip151)" cx="761.232" cy="652.091" r="7.2" fill="#808080" fill-rule="evenodd" fill-opacity="0.3" stroke="#000000" stroke-opacity="0.3" stroke-width="3.84"/>
<circle clip-path="url(#clip151)" cx="817.844" cy="484.302" r="7.2" fill="#808080" fill-rule="evenodd" fill-opacity="0.3" stroke="#000000" stroke-opacity="0.3" stroke-width="3.84"/>
<circle clip-path="url(#clip151)" cx="874.456" cy="296.572" r="7.2" fill="#808080" fill-rule="evenodd" fill-opacity="0.3" stroke="#000000" stroke-opacity="0.3" stroke-width="3.84"/>
<circle clip-path="url(#clip151)" cx="931.068" cy="274.118" r="7.2" fill="#808080" fill-rule="evenodd" fill-opacity="0.3" stroke="#000000" stroke-opacity="0.3" stroke-width="3.84"/>
<circle clip-path="url(#clip151)" cx="987.68" cy="214.337" r="7.2" fill="#808080" fill-rule="evenodd" fill-opacity="0.3" stroke="#000000" stroke-opacity="0.3" stroke-width="3.84"/>
<circle clip-path="url(#clip151)" cx="1044.29" cy="173.254" r="7.2" fill="#808080" fill-rule="evenodd" fill-opacity="0.3" stroke="#000000" stroke-opacity="0.3" stroke-width="3.84"/>
<circle clip-path="url(#clip151)" cx="1100.9" cy="324.631" r="7.2" fill="#808080" fill-rule="evenodd" fill-opacity="0.3" stroke="#000000" stroke-opacity="0.3" stroke-width="3.84"/>
<circle clip-path="url(#clip151)" cx="1157.52" cy="447.426" r="7.2" fill="#808080" fill-rule="evenodd" fill-opacity="0.3" stroke="#000000" stroke-opacity="0.3" stroke-width="3.84"/>
<circle clip-path="url(#clip151)" cx="1214.13" cy="471.512" r="7.2" fill="#808080" fill-rule="evenodd" fill-opacity="0.3" stroke="#000000" stroke-opacity="0.3" stroke-width="3.84"/>
<circle clip-path="url(#clip151)" cx="1270.74" cy="677.885" r="7.2" fill="#808080" fill-rule="evenodd" fill-opacity="0.3" stroke="#000000" stroke-opacity="0.3" stroke-width="3.84"/>
<circle clip-path="url(#clip151)" cx="1327.35" cy="810.815" r="7.2" fill="#808080" fill-rule="evenodd" fill-opacity="0.3" stroke="#000000" stroke-opacity="0.3" stroke-width="3.84"/>
<circle clip-path="url(#clip151)" cx="1383.97" cy="831.412" r="7.2" fill="#808080" fill-rule="evenodd" fill-opacity="0.3" stroke="#000000" stroke-opacity="0.3" stroke-width="3.84"/>
<circle clip-path="url(#clip151)" cx="1440.58" cy="941.649" r="7.2" fill="#808080" fill-rule="evenodd" fill-opacity="0.3" stroke="#000000" stroke-opacity="0.3" stroke-width="3.84"/>
<circle clip-path="url(#clip151)" cx="1497.19" cy="1040.43" r="7.2" fill="#808080" fill-rule="evenodd" fill-opacity="0.3" stroke="#000000" stroke-opacity="0.3" stroke-width="3.84"/>
<circle clip-path="url(#clip151)" cx="1553.8" cy="1116.42" r="7.2" fill="#808080" fill-rule="evenodd" fill-opacity="0.3" stroke="#000000" stroke-opacity="0.3" stroke-width="3.84"/>
<circle clip-path="url(#clip151)" cx="1610.41" cy="1254.12" r="7.2" fill="#808080" fill-rule="evenodd" fill-opacity="0.3" stroke="#000000" stroke-opacity="0.3" stroke-width="3.84"/>
<circle clip-path="url(#clip151)" cx="1667.03" cy="1290.75" r="7.2" fill="#808080" fill-rule="evenodd" fill-opacity="0.3" stroke="#000000" stroke-opacity="0.3" stroke-width="3.84"/>
<circle clip-path="url(#clip151)" cx="1723.64" cy="1307.74" r="7.2" fill="#808080" fill-rule="evenodd" fill-opacity="0.3" stroke="#000000" stroke-opacity="0.3" stroke-width="3.84"/>
<circle clip-path="url(#clip151)" cx="1780.25" cy="1415.05" r="7.2" fill="#808080" fill-rule="evenodd" fill-opacity="0.3" stroke="#000000" stroke-opacity="0.3" stroke-width="3.84"/>
<circle clip-path="url(#clip151)" cx="1836.86" cy="1472.35" r="7.2" fill="#808080" fill-rule="evenodd" fill-opacity="0.3" stroke="#000000" stroke-opacity="0.3" stroke-width="3.84"/>
<circle clip-path="url(#clip151)" cx="1893.48" cy="1516.38" r="7.2" fill="#808080" fill-rule="evenodd" fill-opacity="0.3" stroke="#000000" stroke-opacity="0.3" stroke-width="3.84"/>
<circle clip-path="url(#clip151)" cx="1950.09" cy="1500.23" r="7.2" fill="#808080" fill-rule="evenodd" fill-opacity="0.3" stroke="#000000" stroke-opacity="0.3" stroke-width="3.84"/>
<circle clip-path="url(#clip151)" cx="2006.7" cy="1575.87" r="7.2" fill="#808080" fill-rule="evenodd" fill-opacity="0.3" stroke="#000000" stroke-opacity="0.3" stroke-width="3.84"/>
<circle clip-path="url(#clip151)" cx="2063.31" cy="1583.67" r="7.2" fill="#808080" fill-rule="evenodd" fill-opacity="0.3" stroke="#000000" stroke-opacity="0.3" stroke-width="3.84"/>
<circle clip-path="url(#clip151)" cx="2119.92" cy="1620.88" r="7.2" fill="#808080" fill-rule="evenodd" fill-opacity="0.3" stroke="#000000" stroke-opacity="0.3" stroke-width="3.84"/>
<circle clip-path="url(#clip151)" cx="2176.54" cy="1681.92" r="7.2" fill="#808080" fill-rule="evenodd" fill-opacity="0.3" stroke="#000000" stroke-opacity="0.3" stroke-width="3.84"/>
<circle clip-path="url(#clip151)" cx="2233.15" cy="1620.23" r="7.2" fill="#808080" fill-rule="evenodd" fill-opacity="0.3" stroke="#000000" stroke-opacity="0.3" stroke-width="3.84"/>
<circle clip-path="url(#clip151)" cx="2289.76" cy="1619.67" r="7.2" fill="#808080" fill-rule="evenodd" fill-opacity="0.3" stroke="#000000" stroke-opacity="0.3" stroke-width="3.84"/>
<circle clip-path="url(#clip151)" cx="2346.37" cy="1680.52" r="7.2" fill="#808080" fill-rule="evenodd" fill-opacity="0.3" stroke="#000000" stroke-opacity="0.3" stroke-width="3.84"/>
<circle clip-path="url(#clip151)" cx="2402.98" cy="1646.05" r="7.2" fill="#808080" fill-rule="evenodd" fill-opacity="0.3" stroke="#000000" stroke-opacity="0.3" stroke-width="3.84"/>
<circle clip-path="url(#clip151)" cx="2459.6" cy="1679.33" r="7.2" fill="#808080" fill-rule="evenodd" fill-opacity="0.3" stroke="#000000" stroke-opacity="0.3" stroke-width="3.84"/>
<circle clip-path="url(#clip151)" cx="2516.21" cy="1677.16" r="7.2" fill="#808080" fill-rule="evenodd" fill-opacity="0.3" stroke="#000000" stroke-opacity="0.3" stroke-width="3.84"/>
<circle clip-path="url(#clip151)" cx="2572.82" cy="1643.21" r="7.2" fill="#808080" fill-rule="evenodd" fill-opacity="0.3" stroke="#000000" stroke-opacity="0.3" stroke-width="3.84"/>
<path clip-path="url(#clip151)" d="M308.334 1646.52 L364.947 1579.7 L421.559 1506.69 L478.171 1422.07 L534.783 1316.9 L591.395 1178.35 L648.007 1024.18 L704.62 840.204 L761.232 666.174 L817.844 512.088 L874.456 387.002 L931.068 301.194 L987.68 262.415 L1044.29 278.419 L1100.9 340.595 L1157.52 427.871 L1214.13 530.417 L1270.74 641.093 L1327.35 760.017 L1383.97 875.171 L1440.58 983.363 L1497.19 1082.52 L1553.8 1172.21 L1610.41 1251.41 L1667.03 1320.7 L1723.64 1380.32 L1780.25 1429.92 L1836.86 1472.79 L1893.48 1508.49 L1950.09 1538.11 L2006.7 1562.6 L2063.31 1582.98 L2119.92 1600.15 L2176.54 1614.6 L2233.15 1626.7 L2289.76 1636.24 L2346.37 1644.26 L2402.98 1650.94 L2459.6 1656.66 L2516.21 1661.38 L2572.82 1665.28 L2572.82 1652.14 L2516.21 1648.09 L2459.6 1643.28 L2402.98 1637.57 L2346.37 1630.75 L2289.76 1622.59 L2233.15 1612.8 L2176.54 1601.03 L2119.92 1586.85 L2063.31 1569.76 L2006.7 1549.76 L1950.09 1524.05 L1893.48 1492.54 L1836.86 1453.73 L1780.25 1407.05 L1723.64 1352.35 L1667.03 1289.5 L1610.41 1218.44 L1553.8 1138.95 L1497.19 1048.25 L1440.58 943.649 L1383.97 834.973 L1327.35 718.306 L1270.74 596.534 L1214.13 475.08 L1157.52 362.287 L1100.9 268.686 L1044.29 204.439 L987.68 185.913 L931.068 215.337 L874.456 292.763 L817.844 421.506 L761.232 588.253 L704.62 767.666 L648.007 954.806 L591.395 1110.94 L534.783 1244.47 L478.171 1360.74 L421.559 1463.99 L364.947 1558.68 L308.334 1646.52  Z" fill="#ff0000" fill-rule="evenodd" fill-opacity="0.2"/>
<polyline clip-path="url(#clip151)" style="stroke:#ff0000; stroke-linecap:round; stroke-linejoin:round; stroke-width:0; stroke-opacity:1; fill:none" stroke-dasharray="1, 2" points="308.334,1646.52 364.947,1579.7 421.559,1506.69 478.171,1422.07 534.783,1316.9 591.395,1178.35 648.007,1024.18 704.62,840.204 761.232,666.174 817.844,512.088 874.456,387.002 931.068,301.194 987.68,262.415 1044.29,278.419 1100.9,340.595 1157.52,427.871 1214.13,530.417 1270.74,641.093 1327.35,760.017 1383.97,875.171 1440.58,983.363 1497.19,1082.52 1553.8,1172.21 1610.41,1251.41 1667.03,1320.7 1723.64,1380.32 1780.25,1429.92 1836.86,1472.79 1893.48,1508.49 1950.09,1538.11 2006.7,1562.6 2063.31,1582.98 2119.92,1600.15 2176.54,1614.6 2233.15,1626.7 2289.76,1636.24 2346.37,1644.26 2402.98,1650.94 2459.6,1656.66 2516.21,1661.38 2572.82,1665.28 "/>
<path clip-path="url(#clip151)" d="M308.334 1646.52 L364.947 1578.4 L421.559 1503.59 L478.171 1417.09 L534.783 1311.9 L591.395 1175.29 L648.007 1026.79 L704.62 866.509 L761.232 695.832 L817.844 536.489 L874.456 402.259 L931.068 308.108 L987.68 265.857 L1044.29 285.739 L1100.9 342.129 L1157.52 429.899 L1214.13 532.269 L1270.74 640.669 L1327.35 757.584 L1383.97 871.182 L1440.58 978.803 L1497.19 1077.88 L1553.8 1169.3 L1610.41 1250.15 L1667.03 1319.55 L1723.64 1378.16 L1780.25 1427.35 L1836.86 1468.87 L1893.48 1504.51 L1950.09 1534.32 L2006.7 1559.76 L2063.31 1581.21 L2119.92 1599.17 L2176.54 1613.67 L2233.15 1625.56 L2289.76 1635.35 L2346.37 1643.96 L2402.98 1651.13 L2459.6 1656.8 L2516.21 1661.39 L2572.82 1665.18 L2572.82 1650.3 L2516.21 1646.42 L2459.6 1641.85 L2402.98 1636.43 L2346.37 1629.96 L2289.76 1622.23 L2233.15 1612.95 L2176.54 1601.51 L2119.92 1587.27 L2063.31 1569.91 L2006.7 1548.78 L1950.09 1522.15 L1893.48 1489.2 L1836.86 1449.88 L1780.25 1403.98 L1723.64 1350.21 L1667.03 1288.24 L1610.41 1217.24 L1553.8 1135.56 L1497.19 1044.15 L1440.58 943.936 L1383.97 835.308 L1327.35 720.913 L1270.74 598.187 L1214.13 477.446 L1157.52 365.833 L1100.9 274.897 L1044.29 216.638 L987.68 199.771 L931.068 225.461 L874.456 302.173 L817.844 427.171 L761.232 587.668 L704.62 773.541 L648.007 962.236 L591.395 1117.25 L534.783 1241.72 L478.171 1354.95 L421.559 1459.16 L364.947 1555.95 L308.334 1646.52  Z" fill="#0000ff" fill-rule="evenodd" fill-opacity="0.2"/>
<polyline clip-path="url(#clip151)" style="stroke:#0000ff; stroke-linecap:round; stroke-linejoin:round; stroke-width:0; stroke-opacity:1; fill:none" stroke-dasharray="1, 2" points="308.334,1646.52 364.947,1578.4 421.559,1503.59 478.171,1417.09 534.783,1311.9 591.395,1175.29 648.007,1026.79 704.62,866.509 761.232,695.832 817.844,536.489 874.456,402.259 931.068,308.108 987.68,265.857 1044.29,285.739 1100.9,342.129 1157.52,429.899 1214.13,532.269 1270.74,640.669 1327.35,757.584 1383.97,871.182 1440.58,978.803 1497.19,1077.88 1553.8,1169.3 1610.41,1250.15 1667.03,1319.55 1723.64,1378.16 1780.25,1427.35 1836.86,1468.87 1893.48,1504.51 1950.09,1534.32 2006.7,1559.76 2063.31,1581.21 2119.92,1599.17 2176.54,1613.67 2233.15,1625.56 2289.76,1635.35 2346.37,1643.96 2402.98,1651.13 2459.6,1656.8 2516.21,1661.39 2572.82,1665.18 "/>
<polyline clip-path="url(#clip151)" style="stroke:#ff0000; stroke-linecap:round; stroke-linejoin:round; stroke-width:8; stroke-opacity:1; fill:none" points="308.334,1646.52 364.947,1579.47 421.559,1505.18 478.171,1417.42 534.783,1305.35 591.395,1158.26 648.007,980.376 704.62,791.407 761.232,610.988 817.844,452.344 874.456,327.809 931.068,248.374 987.68,219.733 1044.29,240.269 1100.9,302.249 1157.52,394.609 1214.13,505.641 1270.74,624.923 1327.35,744.358 1383.97,858.516 1440.58,964.55 1497.19,1061.36 1553.8,1148.74 1610.41,1226.99 1667.03,1296.54 1723.64,1357.77 1780.25,1411.01 1836.86,1456.73 1893.48,1495.5 1950.09,1528.07 2006.7,1555.21 2063.31,1577.72 2119.92,1596.32 2176.54,1611.64 2233.15,1624.25 2289.76,1634.61 2346.37,1643.13 2402.98,1650.13 2459.6,1655.9 2516.21,1660.65 2572.82,1664.58 "/>
<path clip-path="url(#clip150)" d="M1973.44 492.376 L2560.74 492.376 L2560.74 181.336 L1973.44 181.336  Z" fill="#ffffff" fill-rule="evenodd" fill-opacity="1"/>
<polyline clip-path="url(#clip150)" style="stroke:#000000; stroke-linecap:round; stroke-linejoin:round; stroke-width:4; stroke-opacity:1; fill:none" points="1973.44,492.376 2560.74,492.376 2560.74,181.336 1973.44,181.336 1973.44,492.376 "/>
<polyline clip-path="url(#clip150)" style="stroke:#000000; stroke-linecap:round; stroke-linejoin:round; stroke-width:8; stroke-opacity:1; fill:none" stroke-dasharray="32, 20" points="2000.11,233.176 2160.14,233.176 "/>
<path clip-path="url(#clip150)" d="M2186.81 215.896 L2216.04 215.896 L2216.04 219.831 L2203.77 219.831 L2203.77 250.456 L2199.08 250.456 L2199.08 219.831 L2186.81 219.831 L2186.81 215.896 Z" fill="#000000" fill-rule="nonzero" fill-opacity="1" /><path clip-path="url(#clip150)" d="M2228.43 228.512 Q2227.71 228.095 2226.85 227.91 Q2226.02 227.702 2225 227.702 Q2221.39 227.702 2219.45 230.063 Q2217.52 232.401 2217.52 236.799 L2217.52 250.456 L2213.24 250.456 L2213.24 224.531 L2217.52 224.531 L2217.52 228.558 Q2218.87 226.197 2221.02 225.063 Q2223.17 223.906 2226.25 223.906 Q2226.69 223.906 2227.22 223.975 Q2227.76 224.021 2228.4 224.137 L2228.43 228.512 Z" fill="#000000" fill-rule="nonzero" fill-opacity="1" /><path clip-path="url(#clip150)" d="M2232.45 240.225 L2232.45 224.531 L2236.71 224.531 L2236.71 240.063 Q2236.71 243.743 2238.15 245.595 Q2239.58 247.424 2242.45 247.424 Q2245.9 247.424 2247.89 245.225 Q2249.91 243.026 2249.91 239.229 L2249.91 224.531 L2254.17 224.531 L2254.17 250.456 L2249.91 250.456 L2249.91 246.475 Q2248.36 248.836 2246.3 249.993 Q2244.26 251.128 2241.55 251.128 Q2237.08 251.128 2234.77 248.35 Q2232.45 245.572 2232.45 240.225 M2243.17 223.906 L2243.17 223.906 Z" fill="#000000" fill-rule="nonzero" fill-opacity="1" /><path clip-path="url(#clip150)" d="M2285.12 236.429 L2285.12 238.512 L2265.53 238.512 Q2265.81 242.91 2268.17 245.225 Q2270.56 247.516 2274.79 247.516 Q2277.25 247.516 2279.54 246.915 Q2281.85 246.313 2284.12 245.109 L2284.12 249.137 Q2281.83 250.109 2279.42 250.618 Q2277.01 251.128 2274.54 251.128 Q2268.33 251.128 2264.7 247.516 Q2261.09 243.905 2261.09 237.748 Q2261.09 231.382 2264.51 227.655 Q2267.96 223.906 2273.8 223.906 Q2279.03 223.906 2282.06 227.285 Q2285.12 230.642 2285.12 236.429 M2280.86 235.179 Q2280.81 231.683 2278.89 229.6 Q2276.99 227.517 2273.84 227.517 Q2270.28 227.517 2268.13 229.53 Q2266 231.544 2265.67 235.202 L2280.86 235.179 Z" fill="#000000" fill-rule="nonzero" fill-opacity="1" /><circle clip-path="url(#clip150)" cx="2080.12" cy="285.016" r="18.432" fill="#808080" fill-rule="evenodd" fill-opacity="0.3" stroke="#000000" stroke-opacity="0.3" stroke-width="9.8304"/>
<path clip-path="url(#clip150)" d="M2191.48 271.579 L2191.48 298.454 L2197.13 298.454 Q2204.28 298.454 2207.59 295.213 Q2210.93 291.972 2210.93 284.982 Q2210.93 278.037 2207.59 274.82 Q2204.28 271.579 2197.13 271.579 L2191.48 271.579 M2186.81 267.736 L2196.41 267.736 Q2206.46 267.736 2211.16 271.926 Q2215.86 276.093 2215.86 284.982 Q2215.86 293.917 2211.14 298.106 Q2206.41 302.296 2196.41 302.296 L2186.81 302.296 L2186.81 267.736 Z" fill="#000000" fill-rule="nonzero" fill-opacity="1" /><path clip-path="url(#clip150)" d="M2234.91 289.264 Q2229.75 289.264 2227.76 290.444 Q2225.76 291.625 2225.76 294.472 Q2225.76 296.741 2227.25 298.083 Q2228.75 299.403 2231.32 299.403 Q2234.86 299.403 2236.99 296.903 Q2239.14 294.38 2239.14 290.213 L2239.14 289.264 L2234.91 289.264 M2243.4 287.505 L2243.4 302.296 L2239.14 302.296 L2239.14 298.361 Q2237.69 300.722 2235.51 301.856 Q2233.33 302.968 2230.19 302.968 Q2226.2 302.968 2223.84 300.745 Q2221.51 298.5 2221.51 294.75 Q2221.51 290.375 2224.42 288.153 Q2227.36 285.931 2233.17 285.931 L2239.14 285.931 L2239.14 285.514 Q2239.14 282.574 2237.2 280.977 Q2235.28 279.357 2231.78 279.357 Q2229.56 279.357 2227.45 279.889 Q2225.35 280.421 2223.4 281.486 L2223.4 277.551 Q2225.74 276.648 2227.94 276.208 Q2230.14 275.746 2232.22 275.746 Q2237.85 275.746 2240.63 278.662 Q2243.4 281.579 2243.4 287.505 Z" fill="#000000" fill-rule="nonzero" fill-opacity="1" /><path clip-path="url(#clip150)" d="M2256.39 269.009 L2256.39 276.371 L2265.16 276.371 L2265.16 279.681 L2256.39 279.681 L2256.39 293.755 Q2256.39 296.926 2257.25 297.829 Q2258.13 298.731 2260.79 298.731 L2265.16 298.731 L2265.16 302.296 L2260.79 302.296 Q2255.86 302.296 2253.98 300.468 Q2252.11 298.616 2252.11 293.755 L2252.11 279.681 L2248.98 279.681 L2248.98 276.371 L2252.11 276.371 L2252.11 269.009 L2256.39 269.009 Z" fill="#000000" fill-rule="nonzero" fill-opacity="1" /><path clip-path="url(#clip150)" d="M2282.55 289.264 Q2277.38 289.264 2275.39 290.444 Q2273.4 291.625 2273.4 294.472 Q2273.4 296.741 2274.88 298.083 Q2276.39 299.403 2278.96 299.403 Q2282.5 299.403 2284.63 296.903 Q2286.78 294.38 2286.78 290.213 L2286.78 289.264 L2282.55 289.264 M2291.04 287.505 L2291.04 302.296 L2286.78 302.296 L2286.78 298.361 Q2285.32 300.722 2283.15 301.856 Q2280.97 302.968 2277.82 302.968 Q2273.84 302.968 2271.48 300.745 Q2269.14 298.5 2269.14 294.75 Q2269.14 290.375 2272.06 288.153 Q2275 285.931 2280.81 285.931 L2286.78 285.931 L2286.78 285.514 Q2286.78 282.574 2284.84 280.977 Q2282.92 279.357 2279.42 279.357 Q2277.2 279.357 2275.09 279.889 Q2272.99 280.421 2271.04 281.486 L2271.04 277.551 Q2273.38 276.648 2275.58 276.208 Q2277.78 275.746 2279.86 275.746 Q2285.49 275.746 2288.26 278.662 Q2291.04 281.579 2291.04 287.505 Z" fill="#000000" fill-rule="nonzero" fill-opacity="1" /><path clip-path="url(#clip150)" d="M2000.11 357.592 L2160.14 357.592 L2160.14 316.12 L2000.11 316.12 L2000.11 357.592  Z" fill="#ff0000" fill-rule="evenodd" fill-opacity="0.2"/>
<polyline clip-path="url(#clip150)" style="stroke:#ff0000; stroke-linecap:round; stroke-linejoin:round; stroke-width:0.8; stroke-opacity:1; fill:none" stroke-dasharray="1, 2" points="2000.11,316.12 2160.14,316.12 "/>
<path clip-path="url(#clip150)" d="M2191.48 323.419 L2191.48 336.405 L2197.36 336.405 Q2200.63 336.405 2202.41 334.715 Q2204.19 333.025 2204.19 329.9 Q2204.19 326.798 2202.41 325.109 Q2200.63 323.419 2197.36 323.419 L2191.48 323.419 M2186.81 319.576 L2197.36 319.576 Q2203.17 319.576 2206.14 322.215 Q2209.12 324.831 2209.12 329.9 Q2209.12 335.016 2206.14 337.632 Q2203.17 340.247 2197.36 340.247 L2191.48 340.247 L2191.48 354.136 L2186.81 354.136 L2186.81 319.576 Z" fill="#000000" fill-rule="nonzero" fill-opacity="1" /><path clip-path="url(#clip150)" d="M2224.86 341.104 Q2219.7 341.104 2217.71 342.284 Q2215.72 343.465 2215.72 346.312 Q2215.72 348.581 2217.2 349.923 Q2218.7 351.243 2221.27 351.243 Q2224.82 351.243 2226.95 348.743 Q2229.1 346.22 2229.1 342.053 L2229.1 341.104 L2224.86 341.104 M2233.36 339.345 L2233.36 354.136 L2229.1 354.136 L2229.1 350.201 Q2227.64 352.562 2225.46 353.696 Q2223.29 354.808 2220.14 354.808 Q2216.16 354.808 2213.8 352.585 Q2211.46 350.34 2211.46 346.59 Q2211.46 342.215 2214.38 339.993 Q2217.32 337.771 2223.13 337.771 L2229.1 337.771 L2229.1 337.354 Q2229.1 334.414 2227.15 332.817 Q2225.23 331.197 2221.74 331.197 Q2219.51 331.197 2217.41 331.729 Q2215.3 332.261 2213.36 333.326 L2213.36 329.391 Q2215.7 328.488 2217.89 328.048 Q2220.09 327.586 2222.18 327.586 Q2227.8 327.586 2230.58 330.502 Q2233.36 333.419 2233.36 339.345 Z" fill="#000000" fill-rule="nonzero" fill-opacity="1" /><path clip-path="url(#clip150)" d="M2257.15 332.192 Q2256.44 331.775 2255.58 331.59 Q2254.75 331.382 2253.73 331.382 Q2250.12 331.382 2248.17 333.743 Q2246.25 336.081 2246.25 340.479 L2246.25 354.136 L2241.97 354.136 L2241.97 328.211 L2246.25 328.211 L2246.25 332.238 Q2247.59 329.877 2249.75 328.743 Q2251.9 327.586 2254.98 327.586 Q2255.42 327.586 2255.95 327.655 Q2256.48 327.701 2257.13 327.817 L2257.15 332.192 Z" fill="#000000" fill-rule="nonzero" fill-opacity="1" /><path clip-path="url(#clip150)" d="M2273.4 341.104 Q2268.24 341.104 2266.25 342.284 Q2264.26 343.465 2264.26 346.312 Q2264.26 348.581 2265.74 349.923 Q2267.25 351.243 2269.82 351.243 Q2273.36 351.243 2275.49 348.743 Q2277.64 346.22 2277.64 342.053 L2277.64 341.104 L2273.4 341.104 M2281.9 339.345 L2281.9 354.136 L2277.64 354.136 L2277.64 350.201 Q2276.18 352.562 2274.01 353.696 Q2271.83 354.808 2268.68 354.808 Q2264.7 354.808 2262.34 352.585 Q2260 350.34 2260 346.59 Q2260 342.215 2262.92 339.993 Q2265.86 337.771 2271.67 337.771 L2277.64 337.771 L2277.64 337.354 Q2277.64 334.414 2275.7 332.817 Q2273.77 331.197 2270.28 331.197 Q2268.06 331.197 2265.95 331.729 Q2263.84 332.261 2261.9 333.326 L2261.9 329.391 Q2264.24 328.488 2266.44 328.048 Q2268.64 327.586 2270.72 327.586 Q2276.34 327.586 2279.12 330.502 Q2281.9 333.419 2281.9 339.345 Z" fill="#000000" fill-rule="nonzero" fill-opacity="1" /><path clip-path="url(#clip150)" d="M2310.86 333.187 Q2312.45 330.317 2314.68 328.951 Q2316.9 327.586 2319.91 327.586 Q2323.96 327.586 2326.16 330.433 Q2328.36 333.257 2328.36 338.488 L2328.36 354.136 L2324.07 354.136 L2324.07 338.627 Q2324.07 334.9 2322.76 333.095 Q2321.44 331.289 2318.73 331.289 Q2315.42 331.289 2313.5 333.488 Q2311.57 335.687 2311.57 339.484 L2311.57 354.136 L2307.29 354.136 L2307.29 338.627 Q2307.29 334.877 2305.97 333.095 Q2304.65 331.289 2301.9 331.289 Q2298.63 331.289 2296.71 333.511 Q2294.79 335.71 2294.79 339.484 L2294.79 354.136 L2290.51 354.136 L2290.51 328.211 L2294.79 328.211 L2294.79 332.238 Q2296.25 329.854 2298.29 328.72 Q2300.32 327.586 2303.13 327.586 Q2305.95 327.586 2307.92 329.021 Q2309.91 330.456 2310.86 333.187 Z" fill="#000000" fill-rule="nonzero" fill-opacity="1" /><path clip-path="url(#clip150)" d="M2359.03 340.109 L2359.03 342.192 L2339.44 342.192 Q2339.72 346.59 2342.08 348.905 Q2344.47 351.196 2348.7 351.196 Q2351.16 351.196 2353.45 350.595 Q2355.76 349.993 2358.03 348.789 L2358.03 352.817 Q2355.74 353.789 2353.33 354.298 Q2350.93 354.808 2348.45 354.808 Q2342.25 354.808 2338.61 351.196 Q2335 347.585 2335 341.428 Q2335 335.062 2338.43 331.335 Q2341.88 327.586 2347.71 327.586 Q2352.94 327.586 2355.97 330.965 Q2359.03 334.322 2359.03 340.109 M2354.77 338.859 Q2354.72 335.363 2352.8 333.28 Q2350.9 331.197 2347.75 331.197 Q2344.19 331.197 2342.04 333.21 Q2339.91 335.224 2339.58 338.882 L2354.77 338.859 Z" fill="#000000" fill-rule="nonzero" fill-opacity="1" /><path clip-path="url(#clip150)" d="M2370.23 320.849 L2370.23 328.211 L2379 328.211 L2379 331.521 L2370.23 331.521 L2370.23 345.595 Q2370.23 348.766 2371.09 349.669 Q2371.97 350.571 2374.63 350.571 L2379 350.571 L2379 354.136 L2374.63 354.136 Q2369.7 354.136 2367.82 352.308 Q2365.95 350.456 2365.95 345.595 L2365.95 331.521 L2362.82 331.521 L2362.82 328.211 L2365.95 328.211 L2365.95 320.849 L2370.23 320.849 Z" fill="#000000" fill-rule="nonzero" fill-opacity="1" /><path clip-path="url(#clip150)" d="M2399.63 332.192 Q2398.91 331.775 2398.06 331.59 Q2397.22 331.382 2396.2 331.382 Q2392.59 331.382 2390.65 333.743 Q2388.73 336.081 2388.73 340.479 L2388.73 354.136 L2384.44 354.136 L2384.44 328.211 L2388.73 328.211 L2388.73 332.238 Q2390.07 329.877 2392.22 328.743 Q2394.38 327.586 2397.45 327.586 Q2397.89 327.586 2398.43 327.655 Q2398.96 327.701 2399.61 327.817 L2399.63 332.192 Z" fill="#000000" fill-rule="nonzero" fill-opacity="1" /><path clip-path="url(#clip150)" d="M2404.1 328.211 L2408.36 328.211 L2408.36 354.136 L2404.1 354.136 L2404.1 328.211 M2404.1 318.118 L2408.36 318.118 L2408.36 323.511 L2404.1 323.511 L2404.1 318.118 Z" fill="#000000" fill-rule="nonzero" fill-opacity="1" /><path clip-path="url(#clip150)" d="M2435.93 329.206 L2435.93 333.187 Q2434.12 332.192 2432.29 331.706 Q2430.49 331.197 2428.63 331.197 Q2424.49 331.197 2422.2 333.835 Q2419.91 336.451 2419.91 341.197 Q2419.91 345.942 2422.2 348.581 Q2424.49 351.196 2428.63 351.196 Q2430.49 351.196 2432.29 350.71 Q2434.12 350.201 2435.93 349.206 L2435.93 353.141 Q2434.14 353.974 2432.22 354.391 Q2430.32 354.808 2428.17 354.808 Q2422.31 354.808 2418.87 351.127 Q2415.42 347.447 2415.42 341.197 Q2415.42 334.854 2418.89 331.22 Q2422.38 327.586 2428.45 327.586 Q2430.42 327.586 2432.29 328.002 Q2434.17 328.396 2435.93 329.206 Z" fill="#000000" fill-rule="nonzero" fill-opacity="1" /><path clip-path="url(#clip150)" d="M2000.11 409.432 L2160.14 409.432 L2160.14 367.96 L2000.11 367.96 L2000.11 409.432  Z" fill="#0000ff" fill-rule="evenodd" fill-opacity="0.2"/>
<polyline clip-path="url(#clip150)" style="stroke:#0000ff; stroke-linecap:round; stroke-linejoin:round; stroke-width:0.8; stroke-opacity:1; fill:none" stroke-dasharray="1, 2" points="2000.11,367.96 2160.14,367.96 "/>
<path clip-path="url(#clip150)" d="M2186.81 371.416 L2193.1 371.416 L2208.43 400.328 L2208.43 371.416 L2212.96 371.416 L2212.96 405.976 L2206.67 405.976 L2191.34 377.064 L2191.34 405.976 L2186.81 405.976 L2186.81 371.416 Z" fill="#000000" fill-rule="nonzero" fill-opacity="1" /><path clip-path="url(#clip150)" d="M2232.13 383.037 Q2228.7 383.037 2226.71 385.722 Q2224.72 388.384 2224.72 393.037 Q2224.72 397.689 2226.69 400.374 Q2228.68 403.036 2232.13 403.036 Q2235.53 403.036 2237.52 400.351 Q2239.51 397.666 2239.51 393.037 Q2239.51 388.43 2237.52 385.745 Q2235.53 383.037 2232.13 383.037 M2232.13 379.426 Q2237.69 379.426 2240.86 383.037 Q2244.03 386.648 2244.03 393.037 Q2244.03 399.402 2240.86 403.036 Q2237.69 406.648 2232.13 406.648 Q2226.55 406.648 2223.38 403.036 Q2220.23 399.402 2220.23 393.037 Q2220.23 386.648 2223.38 383.037 Q2226.55 379.426 2232.13 379.426 Z" fill="#000000" fill-rule="nonzero" fill-opacity="1" /><path clip-path="url(#clip150)" d="M2272.64 390.328 L2272.64 405.976 L2268.38 405.976 L2268.38 390.467 Q2268.38 386.787 2266.95 384.958 Q2265.51 383.129 2262.64 383.129 Q2259.19 383.129 2257.2 385.328 Q2255.21 387.527 2255.21 391.324 L2255.21 405.976 L2250.93 405.976 L2250.93 380.051 L2255.21 380.051 L2255.21 384.078 Q2256.74 381.74 2258.8 380.583 Q2260.88 379.426 2263.59 379.426 Q2268.06 379.426 2270.35 382.203 Q2272.64 384.958 2272.64 390.328 Z" fill="#000000" fill-rule="nonzero" fill-opacity="1" /><path clip-path="url(#clip150)" d="M2285.26 402.087 L2285.26 415.837 L2280.97 415.837 L2280.97 380.051 L2285.26 380.051 L2285.26 383.986 Q2286.6 381.671 2288.63 380.56 Q2290.7 379.426 2293.54 379.426 Q2298.26 379.426 2301.2 383.175 Q2304.17 386.925 2304.17 393.037 Q2304.17 399.148 2301.2 402.898 Q2298.26 406.648 2293.54 406.648 Q2290.7 406.648 2288.63 405.536 Q2286.6 404.402 2285.26 402.087 M2299.75 393.037 Q2299.75 388.337 2297.8 385.675 Q2295.88 382.99 2292.5 382.99 Q2289.12 382.99 2287.18 385.675 Q2285.26 388.337 2285.26 393.037 Q2285.26 397.736 2287.18 400.421 Q2289.12 403.083 2292.5 403.083 Q2295.88 403.083 2297.8 400.421 Q2299.75 397.736 2299.75 393.037 Z" fill="#000000" fill-rule="nonzero" fill-opacity="1" /><path clip-path="url(#clip150)" d="M2323.01 392.944 Q2317.85 392.944 2315.86 394.124 Q2313.87 395.305 2313.87 398.152 Q2313.87 400.421 2315.35 401.763 Q2316.85 403.083 2319.42 403.083 Q2322.96 403.083 2325.09 400.583 Q2327.25 398.06 2327.25 393.893 L2327.25 392.944 L2323.01 392.944 M2331.51 391.185 L2331.51 405.976 L2327.25 405.976 L2327.25 402.041 Q2325.79 404.402 2323.61 405.536 Q2321.44 406.648 2318.29 406.648 Q2314.31 406.648 2311.94 404.425 Q2309.61 402.18 2309.61 398.43 Q2309.61 394.055 2312.52 391.833 Q2315.46 389.611 2321.27 389.611 L2327.25 389.611 L2327.25 389.194 Q2327.25 386.254 2325.3 384.657 Q2323.38 383.037 2319.88 383.037 Q2317.66 383.037 2315.56 383.569 Q2313.45 384.101 2311.51 385.166 L2311.51 381.231 Q2313.84 380.328 2316.04 379.888 Q2318.24 379.426 2320.32 379.426 Q2325.95 379.426 2328.73 382.342 Q2331.51 385.259 2331.51 391.185 Z" fill="#000000" fill-rule="nonzero" fill-opacity="1" /><path clip-path="url(#clip150)" d="M2355.3 384.032 Q2354.58 383.615 2353.73 383.43 Q2352.89 383.222 2351.88 383.222 Q2348.26 383.222 2346.32 385.583 Q2344.4 387.921 2344.4 392.319 L2344.4 405.976 L2340.12 405.976 L2340.12 380.051 L2344.4 380.051 L2344.4 384.078 Q2345.74 381.717 2347.89 380.583 Q2350.05 379.426 2353.13 379.426 Q2353.57 379.426 2354.1 379.495 Q2354.63 379.541 2355.28 379.657 L2355.3 384.032 Z" fill="#000000" fill-rule="nonzero" fill-opacity="1" /><path clip-path="url(#clip150)" d="M2371.55 392.944 Q2366.39 392.944 2364.4 394.124 Q2362.41 395.305 2362.41 398.152 Q2362.41 400.421 2363.89 401.763 Q2365.39 403.083 2367.96 403.083 Q2371.5 403.083 2373.63 400.583 Q2375.79 398.06 2375.79 393.893 L2375.79 392.944 L2371.55 392.944 M2380.05 391.185 L2380.05 405.976 L2375.79 405.976 L2375.79 402.041 Q2374.33 404.402 2372.15 405.536 Q2369.98 406.648 2366.83 406.648 Q2362.85 406.648 2360.49 404.425 Q2358.15 402.18 2358.15 398.43 Q2358.15 394.055 2361.07 391.833 Q2364 389.611 2369.82 389.611 L2375.79 389.611 L2375.79 389.194 Q2375.79 386.254 2373.84 384.657 Q2371.92 383.037 2368.43 383.037 Q2366.2 383.037 2364.1 383.569 Q2361.99 384.101 2360.05 385.166 L2360.05 381.231 Q2362.38 380.328 2364.58 379.888 Q2366.78 379.426 2368.87 379.426 Q2374.49 379.426 2377.27 382.342 Q2380.05 385.259 2380.05 391.185 Z" fill="#000000" fill-rule="nonzero" fill-opacity="1" /><path clip-path="url(#clip150)" d="M2409 385.027 Q2410.6 382.157 2412.82 380.791 Q2415.05 379.426 2418.06 379.426 Q2422.11 379.426 2424.31 382.273 Q2426.5 385.097 2426.5 390.328 L2426.5 405.976 L2422.22 405.976 L2422.22 390.467 Q2422.22 386.74 2420.9 384.935 Q2419.58 383.129 2416.87 383.129 Q2413.56 383.129 2411.64 385.328 Q2409.72 387.527 2409.72 391.324 L2409.72 405.976 L2405.44 405.976 L2405.44 390.467 Q2405.44 386.717 2404.12 384.935 Q2402.8 383.129 2400.05 383.129 Q2396.78 383.129 2394.86 385.351 Q2392.94 387.55 2392.94 391.324 L2392.94 405.976 L2388.66 405.976 L2388.66 380.051 L2392.94 380.051 L2392.94 384.078 Q2394.4 381.694 2396.44 380.56 Q2398.47 379.426 2401.27 379.426 Q2404.1 379.426 2406.06 380.861 Q2408.06 382.296 2409 385.027 Z" fill="#000000" fill-rule="nonzero" fill-opacity="1" /><path clip-path="url(#clip150)" d="M2457.18 391.949 L2457.18 394.032 L2437.59 394.032 Q2437.87 398.43 2440.23 400.745 Q2442.62 403.036 2446.85 403.036 Q2449.31 403.036 2451.6 402.435 Q2453.91 401.833 2456.18 400.629 L2456.18 404.657 Q2453.89 405.629 2451.48 406.138 Q2449.07 406.648 2446.6 406.648 Q2440.39 406.648 2436.76 403.036 Q2433.15 399.425 2433.15 393.268 Q2433.15 386.902 2436.57 383.175 Q2440.02 379.426 2445.86 379.426 Q2451.09 379.426 2454.12 382.805 Q2457.18 386.162 2457.18 391.949 M2452.92 390.699 Q2452.87 387.203 2450.95 385.12 Q2449.05 383.037 2445.9 383.037 Q2442.34 383.037 2440.19 385.05 Q2438.06 387.064 2437.73 390.722 L2452.92 390.699 Z" fill="#000000" fill-rule="nonzero" fill-opacity="1" /><path clip-path="url(#clip150)" d="M2468.38 372.689 L2468.38 380.051 L2477.15 380.051 L2477.15 383.361 L2468.38 383.361 L2468.38 397.435 Q2468.38 400.606 2469.24 401.509 Q2470.12 402.411 2472.78 402.411 L2477.15 402.411 L2477.15 405.976 L2472.78 405.976 Q2467.85 405.976 2465.97 404.148 Q2464.1 402.296 2464.1 397.435 L2464.1 383.361 L2460.97 383.361 L2460.97 380.051 L2464.1 380.051 L2464.1 372.689 L2468.38 372.689 Z" fill="#000000" fill-rule="nonzero" fill-opacity="1" /><path clip-path="url(#clip150)" d="M2497.78 384.032 Q2497.06 383.615 2496.2 383.43 Q2495.37 383.222 2494.35 383.222 Q2490.74 383.222 2488.8 385.583 Q2486.87 387.921 2486.87 392.319 L2486.87 405.976 L2482.59 405.976 L2482.59 380.051 L2486.87 380.051 L2486.87 384.078 Q2488.22 381.717 2490.37 380.583 Q2492.52 379.426 2495.6 379.426 Q2496.04 379.426 2496.57 379.495 Q2497.11 379.541 2497.75 379.657 L2497.78 384.032 Z" fill="#000000" fill-rule="nonzero" fill-opacity="1" /><path clip-path="url(#clip150)" d="M2502.24 380.051 L2506.5 380.051 L2506.5 405.976 L2502.24 405.976 L2502.24 380.051 M2502.24 369.958 L2506.5 369.958 L2506.5 375.351 L2502.24 375.351 L2502.24 369.958 Z" fill="#000000" fill-rule="nonzero" fill-opacity="1" /><path clip-path="url(#clip150)" d="M2534.07 381.046 L2534.07 385.027 Q2532.27 384.032 2530.44 383.546 Q2528.63 383.037 2526.78 383.037 Q2522.64 383.037 2520.35 385.675 Q2518.05 388.291 2518.05 393.037 Q2518.05 397.782 2520.35 400.421 Q2522.64 403.036 2526.78 403.036 Q2528.63 403.036 2530.44 402.55 Q2532.27 402.041 2534.07 401.046 L2534.07 404.981 Q2532.29 405.814 2530.37 406.231 Q2528.47 406.648 2526.32 406.648 Q2520.46 406.648 2517.01 402.967 Q2513.56 399.287 2513.56 393.037 Q2513.56 386.694 2517.04 383.06 Q2520.53 379.426 2526.6 379.426 Q2528.56 379.426 2530.44 379.842 Q2532.31 380.236 2534.07 381.046 Z" fill="#000000" fill-rule="nonzero" fill-opacity="1" /><polyline clip-path="url(#clip150)" style="stroke:#ff0000; stroke-linecap:round; stroke-linejoin:round; stroke-width:8; stroke-opacity:1; fill:none" points="2000.11,440.536 2160.14,440.536 "/>
<path clip-path="url(#clip150)" d="M2186.81 423.256 L2206.67 423.256 L2206.67 427.191 L2191.48 427.191 L2191.48 437.377 L2205.19 437.377 L2205.19 441.312 L2191.48 441.312 L2191.48 457.816 L2186.81 457.816 L2186.81 423.256 Z" fill="#000000" fill-rule="nonzero" fill-opacity="1" /><path clip-path="url(#clip150)" d="M2210.44 431.891 L2214.7 431.891 L2214.7 457.816 L2210.44 457.816 L2210.44 431.891 M2210.44 421.798 L2214.7 421.798 L2214.7 427.191 L2210.44 427.191 L2210.44 421.798 Z" fill="#000000" fill-rule="nonzero" fill-opacity="1" /><path clip-path="url(#clip150)" d="M2227.83 424.529 L2227.83 431.891 L2236.6 431.891 L2236.6 435.201 L2227.83 435.201 L2227.83 449.275 Q2227.83 452.446 2228.68 453.349 Q2229.56 454.251 2232.22 454.251 L2236.6 454.251 L2236.6 457.816 L2232.22 457.816 Q2227.29 457.816 2225.42 455.988 Q2223.54 454.136 2223.54 449.275 L2223.54 435.201 L2220.42 435.201 L2220.42 431.891 L2223.54 431.891 L2223.54 424.529 L2227.83 424.529 Z" fill="#000000" fill-rule="nonzero" fill-opacity="1" /></svg>
