<?xml version="1.0" encoding="utf-8"?>
<svg xmlns="http://www.w3.org/2000/svg" xmlns:xlink="http://www.w3.org/1999/xlink" width="672" height="480" viewBox="0 0 2688 1920">
<defs>
  <clipPath id="clip210">
    <rect x="0" y="0" width="2688" height="1920"/>
  </clipPath>
</defs>
<path clip-path="url(#clip210)" d="M0 1920 L2688 1920 L2688 -4.26326e-14 L0 -4.26326e-14  Z" fill="#ffffff" fill-rule="evenodd" fill-opacity="1"/>
<defs>
  <clipPath id="clip211">
    <rect x="240" y="127" width="2401" height="1607"/>
  </clipPath>
</defs>
<path clip-path="url(#clip210)" d="M240.4 1734.12 L2640.76 1734.12 L2640.76 127.792 L240.4 127.792  Z" fill="#ffffff" fill-rule="evenodd" fill-opacity="1"/>
<polyline clip-path="url(#clip211)" style="stroke:#000000; stroke-linecap:round; stroke-linejoin:round; stroke-width:2; stroke-opacity:0.1; fill:none" points="308.334,1734.12 308.334,127.792 "/>
<polyline clip-path="url(#clip211)" style="stroke:#000000; stroke-linecap:round; stroke-linejoin:round; stroke-width:2; stroke-opacity:0.1; fill:none" points="874.456,1734.12 874.456,127.792 "/>
<polyline clip-path="url(#clip211)" style="stroke:#000000; stroke-linecap:round; stroke-linejoin:round; stroke-width:2; stroke-opacity:0.1; fill:none" points="1440.58,1734.12 1440.58,127.792 "/>
<polyline clip-path="url(#clip211)" style="stroke:#000000; stroke-linecap:round; stroke-linejoin:round; stroke-width:2; stroke-opacity:0.1; fill:none" points="2006.7,1734.12 2006.7,127.792 "/>
<polyline clip-path="url(#clip211)" style="stroke:#000000; stroke-linecap:round; stroke-linejoin:round; stroke-width:2; stroke-opacity:0.1; fill:none" points="2572.82,1734.12 2572.82,127.792 "/>
<polyline clip-path="url(#clip211)" style="stroke:#000000; stroke-linecap:round; stroke-linejoin:round; stroke-width:2; stroke-opacity:0.1; fill:none" points="240.4,1694.52 2640.76,1694.52 "/>
<polyline clip-path="url(#clip211)" style="stroke:#000000; stroke-linecap:round; stroke-linejoin:round; stroke-width:2; stroke-opacity:0.1; fill:none" points="240.4,1412.5 2640.76,1412.5 "/>
<polyline clip-path="url(#clip211)" style="stroke:#000000; stroke-linecap:round; stroke-linejoin:round; stroke-width:2; stroke-opacity:0.1; fill:none" points="240.4,1130.48 2640.76,1130.48 "/>
<polyline clip-path="url(#clip211)" style="stroke:#000000; stroke-linecap:round; stroke-linejoin:round; stroke-width:2; stroke-opacity:0.1; fill:none" points="240.4,848.463 2640.76,848.463 "/>
<polyline clip-path="url(#clip211)" style="stroke:#000000; stroke-linecap:round; stroke-linejoin:round; stroke-width:2; stroke-opacity:0.1; fill:none" points="240.4,566.445 2640.76,566.445 "/>
<polyline clip-path="url(#clip211)" style="stroke:#000000; stroke-linecap:round; stroke-linejoin:round; stroke-width:2; stroke-opacity:0.1; fill:none" points="240.4,284.427 2640.76,284.427 "/>
<polyline clip-path="url(#clip210)" style="stroke:#000000; stroke-linecap:round; stroke-linejoin:round; stroke-width:4; stroke-opacity:1; fill:none" points="240.4,1734.12 2640.76,1734.12 "/>
<polyline clip-path="url(#clip210)" style="stroke:#000000; stroke-linecap:round; stroke-linejoin:round; stroke-width:4; stroke-opacity:1; fill:none" points="308.334,1734.12 308.334,1715.22 "/>
<polyline clip-path="url(#clip210)" style="stroke:#000000; stroke-linecap:round; stroke-linejoin:round; stroke-width:4; stroke-opacity:1; fill:none" points="874.456,1734.12 874.456,1715.22 "/>
<polyline clip-path="url(#clip210)" style="stroke:#000000; stroke-linecap:round; stroke-linejoin:round; stroke-width:4; stroke-opacity:1; fill:none" points="1440.58,1734.12 1440.58,1715.22 "/>
<polyline clip-path="url(#clip210)" style="stroke:#000000; stroke-linecap:round; stroke-linejoin:round; stroke-width:4; stroke-opacity:1; fill:none" points="2006.7,1734.12 2006.7,1715.22 "/>
<polyline clip-path="url(#clip210)" style="stroke:#000000; stroke-linecap:round; stroke-linejoin:round; stroke-width:4; stroke-opacity:1; fill:none" points="2572.82,1734.12 2572.82,1715.22 "/>
<path clip-path="url(#clip210)" d="M308.334 1767.34 Q304.723 1767.34 302.895 1770.9 Q301.089 1774.45 301.089 1781.58 Q301.089 1788.68 302.895 1792.25 Q304.723 1795.79 308.334 1795.79 Q311.969 1795.79 313.774 1792.25 Q315.603 1788.68 315.603 1781.58 Q315.603 1774.45 313.774 1770.9 Q311.969 1767.34 308.334 1767.34 M308.334 1763.64 Q314.144 1763.64 317.2 1768.24 Q320.279 1772.83 320.279 1781.58 Q320.279 1790.3 317.2 1794.91 Q314.144 1799.49 308.334 1799.49 Q302.524 1799.49 299.446 1794.91 Q296.39 1790.3 296.39 1781.58 Q296.39 1772.83 299.446 1768.24 Q302.524 1763.64 308.334 1763.64 Z" fill="#000000" fill-rule="nonzero" fill-opacity="1" /><path clip-path="url(#clip210)" d="M849.144 1794.89 L856.783 1794.89 L856.783 1768.52 L848.472 1770.19 L848.472 1765.93 L856.736 1764.26 L861.412 1764.26 L861.412 1794.89 L869.051 1794.89 L869.051 1798.82 L849.144 1798.82 L849.144 1794.89 Z" fill="#000000" fill-rule="nonzero" fill-opacity="1" /><path clip-path="url(#clip210)" d="M888.495 1767.34 Q884.884 1767.34 883.056 1770.9 Q881.25 1774.45 881.25 1781.58 Q881.25 1788.68 883.056 1792.25 Q884.884 1795.79 888.495 1795.79 Q892.13 1795.79 893.935 1792.25 Q895.764 1788.68 895.764 1781.58 Q895.764 1774.45 893.935 1770.9 Q892.13 1767.34 888.495 1767.34 M888.495 1763.64 Q894.306 1763.64 897.361 1768.24 Q900.44 1772.83 900.44 1781.58 Q900.44 1790.3 897.361 1794.91 Q894.306 1799.49 888.495 1799.49 Q882.685 1799.49 879.607 1794.91 Q876.551 1790.3 876.551 1781.58 Q876.551 1772.83 879.607 1768.24 Q882.685 1763.64 888.495 1763.64 Z" fill="#000000" fill-rule="nonzero" fill-opacity="1" /><path clip-path="url(#clip210)" d="M1419.35 1794.89 L1435.67 1794.89 L1435.67 1798.82 L1413.73 1798.82 L1413.73 1794.89 Q1416.39 1792.13 1420.97 1787.5 Q1425.58 1782.85 1426.76 1781.51 Q1429 1778.98 1429.88 1777.25 Q1430.79 1775.49 1430.79 1773.8 Q1430.79 1771.04 1428.84 1769.31 Q1426.92 1767.57 1423.82 1767.57 Q1421.62 1767.57 1419.17 1768.34 Q1416.74 1769.1 1413.96 1770.65 L1413.96 1765.93 Q1416.78 1764.79 1419.24 1764.21 Q1421.69 1763.64 1423.73 1763.64 Q1429.1 1763.64 1432.29 1766.32 Q1435.49 1769.01 1435.49 1773.5 Q1435.49 1775.63 1434.68 1777.55 Q1433.89 1779.45 1431.78 1782.04 Q1431.2 1782.71 1428.1 1785.93 Q1425 1789.12 1419.35 1794.89 Z" fill="#000000" fill-rule="nonzero" fill-opacity="1" /><path clip-path="url(#clip210)" d="M1455.49 1767.34 Q1451.87 1767.34 1450.05 1770.9 Q1448.24 1774.45 1448.24 1781.58 Q1448.24 1788.68 1450.05 1792.25 Q1451.87 1795.79 1455.49 1795.79 Q1459.12 1795.79 1460.92 1792.25 Q1462.75 1788.68 1462.75 1781.58 Q1462.75 1774.45 1460.92 1770.9 Q1459.12 1767.34 1455.49 1767.34 M1455.49 1763.64 Q1461.3 1763.64 1464.35 1768.24 Q1467.43 1772.83 1467.43 1781.58 Q1467.43 1790.3 1464.35 1794.91 Q1461.3 1799.49 1455.49 1799.49 Q1449.67 1799.49 1446.6 1794.91 Q1443.54 1790.3 1443.54 1781.58 Q1443.54 1772.83 1446.6 1768.24 Q1449.67 1763.64 1455.49 1763.64 Z" fill="#000000" fill-rule="nonzero" fill-opacity="1" /><path clip-path="url(#clip210)" d="M1995.54 1780.19 Q1998.9 1780.9 2000.77 1783.17 Q2002.67 1785.44 2002.67 1788.77 Q2002.67 1793.89 1999.15 1796.69 Q1995.63 1799.49 1989.15 1799.49 Q1986.98 1799.49 1984.66 1799.05 Q1982.37 1798.64 1979.92 1797.78 L1979.92 1793.27 Q1981.86 1794.4 1984.18 1794.98 Q1986.49 1795.56 1989.01 1795.56 Q1993.41 1795.56 1995.7 1793.82 Q1998.02 1792.08 1998.02 1788.77 Q1998.02 1785.72 1995.87 1784.01 Q1993.74 1782.27 1989.92 1782.27 L1985.89 1782.27 L1985.89 1778.43 L1990.1 1778.43 Q1993.55 1778.43 1995.38 1777.06 Q1997.21 1775.67 1997.21 1773.08 Q1997.21 1770.42 1995.31 1769.01 Q1993.44 1767.57 1989.92 1767.57 Q1988 1767.57 1985.8 1767.99 Q1983.6 1768.4 1980.96 1769.28 L1980.96 1765.12 Q1983.62 1764.38 1985.94 1764.01 Q1988.27 1763.64 1990.33 1763.64 Q1995.66 1763.64 1998.76 1766.07 Q2001.86 1768.47 2001.86 1772.59 Q2001.86 1775.46 2000.22 1777.46 Q1998.57 1779.42 1995.54 1780.19 Z" fill="#000000" fill-rule="nonzero" fill-opacity="1" /><path clip-path="url(#clip210)" d="M2021.54 1767.34 Q2017.93 1767.34 2016.1 1770.9 Q2014.29 1774.45 2014.29 1781.58 Q2014.29 1788.68 2016.1 1792.25 Q2017.93 1795.79 2021.54 1795.79 Q2025.17 1795.79 2026.98 1792.25 Q2028.81 1788.68 2028.81 1781.58 Q2028.81 1774.45 2026.98 1770.9 Q2025.17 1767.34 2021.54 1767.34 M2021.54 1763.64 Q2027.35 1763.64 2030.4 1768.24 Q2033.48 1772.83 2033.48 1781.58 Q2033.48 1790.3 2030.4 1794.91 Q2027.35 1799.49 2021.54 1799.49 Q2015.73 1799.49 2012.65 1794.91 Q2009.59 1790.3 2009.59 1781.58 Q2009.59 1772.83 2012.65 1768.24 Q2015.73 1763.64 2021.54 1763.64 Z" fill="#000000" fill-rule="nonzero" fill-opacity="1" /><path clip-path="url(#clip210)" d="M2560.99 1768.34 L2549.19 1786.78 L2560.99 1786.78 L2560.99 1768.34 M2559.77 1764.26 L2565.65 1764.26 L2565.65 1786.78 L2570.58 1786.78 L2570.58 1790.67 L2565.65 1790.67 L2565.65 1798.82 L2560.99 1798.82 L2560.99 1790.67 L2545.39 1790.67 L2545.39 1786.16 L2559.77 1764.26 Z" fill="#000000" fill-rule="nonzero" fill-opacity="1" /><path clip-path="url(#clip210)" d="M2588.31 1767.34 Q2584.7 1767.34 2582.87 1770.9 Q2581.06 1774.45 2581.06 1781.58 Q2581.06 1788.68 2582.87 1792.25 Q2584.7 1795.79 2588.31 1795.79 Q2591.94 1795.79 2593.75 1792.25 Q2595.58 1788.68 2595.58 1781.58 Q2595.58 1774.45 2593.75 1770.9 Q2591.94 1767.34 2588.31 1767.34 M2588.31 1763.64 Q2594.12 1763.64 2597.17 1768.24 Q2600.25 1772.83 2600.25 1781.58 Q2600.25 1790.3 2597.17 1794.91 Q2594.12 1799.49 2588.31 1799.49 Q2582.5 1799.49 2579.42 1794.91 Q2576.36 1790.3 2576.36 1781.58 Q2576.36 1772.83 2579.42 1768.24 Q2582.5 1763.64 2588.31 1763.64 Z" fill="#000000" fill-rule="nonzero" fill-opacity="1" /><path clip-path="url(#clip210)" d="M1250.8 1835.78 L1291 1835.78 L1291 1841.19 L1274.13 1841.19 L1274.13 1883.3 L1267.67 1883.3 L1267.67 1841.19 L1250.8 1841.19 L1250.8 1835.78 Z" fill="#000000" fill-rule="nonzero" fill-opacity="1" /><path clip-path="url(#clip210)" d="M1294.95 1847.65 L1300.8 1847.65 L1300.8 1883.3 L1294.95 1883.3 L1294.95 1847.65 M1294.95 1833.78 L1300.8 1833.78 L1300.8 1841.19 L1294.95 1841.19 L1294.95 1833.78 Z" fill="#000000" fill-rule="nonzero" fill-opacity="1" /><path clip-path="url(#clip210)" d="M1340.81 1854.5 Q1343.01 1850.55 1346.06 1848.67 Q1349.12 1846.79 1353.26 1846.79 Q1358.83 1846.79 1361.85 1850.71 Q1364.87 1854.59 1364.87 1861.78 L1364.87 1883.3 L1358.99 1883.3 L1358.99 1861.98 Q1358.99 1856.85 1357.17 1854.37 Q1355.36 1851.89 1351.63 1851.89 Q1347.08 1851.89 1344.44 1854.91 Q1341.8 1857.93 1341.8 1863.15 L1341.8 1883.3 L1335.91 1883.3 L1335.91 1861.98 Q1335.91 1856.82 1334.1 1854.37 Q1332.28 1851.89 1328.49 1851.89 Q1324.01 1851.89 1321.36 1854.94 Q1318.72 1857.97 1318.72 1863.15 L1318.72 1883.3 L1312.83 1883.3 L1312.83 1847.65 L1318.72 1847.65 L1318.72 1853.19 Q1320.73 1849.91 1323.53 1848.35 Q1326.33 1846.79 1330.18 1846.79 Q1334.06 1846.79 1336.77 1848.77 Q1339.51 1850.74 1340.81 1854.5 Z" fill="#000000" fill-rule="nonzero" fill-opacity="1" /><path clip-path="url(#clip210)" d="M1407.05 1864.01 L1407.05 1866.88 L1380.12 1866.88 Q1380.5 1872.92 1383.75 1876.11 Q1387.03 1879.26 1392.85 1879.26 Q1396.22 1879.26 1399.38 1878.43 Q1402.56 1877.6 1405.68 1875.95 L1405.68 1881.49 Q1402.53 1882.82 1399.22 1883.52 Q1395.91 1884.22 1392.5 1884.22 Q1383.97 1884.22 1378.97 1879.26 Q1374.01 1874.29 1374.01 1865.83 Q1374.01 1857.07 1378.72 1851.95 Q1383.46 1846.79 1391.48 1846.79 Q1398.68 1846.79 1402.85 1851.44 Q1407.05 1856.06 1407.05 1864.01 M1401.19 1862.29 Q1401.13 1857.49 1398.48 1854.62 Q1395.87 1851.76 1391.55 1851.76 Q1386.64 1851.76 1383.68 1854.53 Q1380.76 1857.3 1380.31 1862.33 L1401.19 1862.29 Z" fill="#000000" fill-rule="nonzero" fill-opacity="1" /><path clip-path="url(#clip210)" d="M1451.45 1833.84 Q1447.18 1841.16 1445.11 1848.32 Q1443.04 1855.48 1443.04 1862.84 Q1443.04 1870.19 1445.11 1877.41 Q1447.21 1884.61 1451.45 1891.89 L1446.35 1891.89 Q1441.58 1884.41 1439.19 1877.19 Q1436.84 1869.96 1436.84 1862.84 Q1436.84 1855.74 1439.19 1848.54 Q1441.55 1841.35 1446.35 1833.84 L1451.45 1833.84 Z" fill="#000000" fill-rule="nonzero" fill-opacity="1" /><path clip-path="url(#clip210)" d="M1486.27 1853.06 L1486.27 1833.78 L1492.12 1833.78 L1492.12 1883.3 L1486.27 1883.3 L1486.27 1877.95 Q1484.42 1881.14 1481.59 1882.7 Q1478.79 1884.22 1474.84 1884.22 Q1468.38 1884.22 1464.31 1879.07 Q1460.26 1873.91 1460.26 1865.51 Q1460.26 1857.11 1464.31 1851.95 Q1468.38 1846.79 1474.84 1846.79 Q1478.79 1846.79 1481.59 1848.35 Q1484.42 1849.88 1486.27 1853.06 M1466.31 1865.51 Q1466.31 1871.97 1468.95 1875.66 Q1471.63 1879.32 1476.27 1879.32 Q1480.92 1879.32 1483.59 1875.66 Q1486.27 1871.97 1486.27 1865.51 Q1486.27 1859.05 1483.59 1855.39 Q1480.92 1851.7 1476.27 1851.7 Q1471.63 1851.7 1468.95 1855.39 Q1466.31 1859.05 1466.31 1865.51 Z" fill="#000000" fill-rule="nonzero" fill-opacity="1" /><path clip-path="url(#clip210)" d="M1520.39 1865.38 Q1513.29 1865.38 1510.55 1867 Q1507.82 1868.63 1507.82 1872.54 Q1507.82 1875.66 1509.85 1877.51 Q1511.92 1879.32 1515.45 1879.32 Q1520.32 1879.32 1523.25 1875.88 Q1526.21 1872.42 1526.21 1866.69 L1526.21 1865.38 L1520.39 1865.38 M1532.07 1862.96 L1532.07 1883.3 L1526.21 1883.3 L1526.21 1877.89 Q1524.21 1881.14 1521.22 1882.7 Q1518.22 1884.22 1513.89 1884.22 Q1508.42 1884.22 1505.17 1881.17 Q1501.96 1878.08 1501.96 1872.92 Q1501.96 1866.91 1505.97 1863.85 Q1510.01 1860.8 1518 1860.8 L1526.21 1860.8 L1526.21 1860.23 Q1526.21 1856.18 1523.54 1853.99 Q1520.9 1851.76 1516.09 1851.76 Q1513.04 1851.76 1510.14 1852.49 Q1507.24 1853.22 1504.57 1854.69 L1504.57 1849.28 Q1507.78 1848.03 1510.81 1847.43 Q1513.83 1846.79 1516.7 1846.79 Q1524.43 1846.79 1528.25 1850.8 Q1532.07 1854.81 1532.07 1862.96 Z" fill="#000000" fill-rule="nonzero" fill-opacity="1" /><path clip-path="url(#clip210)" d="M1558.96 1886.61 Q1556.48 1892.98 1554.13 1894.92 Q1551.77 1896.86 1547.82 1896.86 L1543.15 1896.86 L1543.15 1891.96 L1546.58 1891.96 Q1549 1891.96 1550.34 1890.81 Q1551.68 1889.67 1553.3 1885.4 L1554.35 1882.73 L1539.93 1847.65 L1546.14 1847.65 L1557.28 1875.53 L1568.42 1847.65 L1574.62 1847.65 L1558.96 1886.61 Z" fill="#000000" fill-rule="nonzero" fill-opacity="1" /><path clip-path="url(#clip210)" d="M1605.43 1848.7 L1605.43 1854.24 Q1602.95 1852.97 1600.28 1852.33 Q1597.6 1851.7 1594.74 1851.7 Q1590.38 1851.7 1588.18 1853.03 Q1586.02 1854.37 1586.02 1857.04 Q1586.02 1859.08 1587.58 1860.26 Q1589.14 1861.4 1593.85 1862.45 L1595.85 1862.9 Q1602.09 1864.24 1604.7 1866.69 Q1607.34 1869.11 1607.34 1873.47 Q1607.34 1878.43 1603.4 1881.33 Q1599.48 1884.22 1592.61 1884.22 Q1589.74 1884.22 1586.62 1883.65 Q1583.54 1883.11 1580.1 1882 L1580.1 1875.95 Q1583.34 1877.64 1586.5 1878.49 Q1589.65 1879.32 1592.73 1879.32 Q1596.87 1879.32 1599.1 1877.92 Q1601.33 1876.49 1601.33 1873.91 Q1601.33 1871.52 1599.7 1870.25 Q1598.11 1868.98 1592.67 1867.8 L1590.63 1867.32 Q1585.19 1866.18 1582.77 1863.82 Q1580.35 1861.43 1580.35 1857.3 Q1580.35 1852.27 1583.92 1849.53 Q1587.48 1846.79 1594.04 1846.79 Q1597.29 1846.79 1600.15 1847.27 Q1603.01 1847.75 1605.43 1848.7 Z" fill="#000000" fill-rule="nonzero" fill-opacity="1" /><path clip-path="url(#clip210)" d="M1615.75 1833.84 L1620.84 1833.84 Q1625.61 1841.35 1627.97 1848.54 Q1630.36 1855.74 1630.36 1862.84 Q1630.36 1869.96 1627.97 1877.19 Q1625.61 1884.41 1620.84 1891.89 L1615.75 1891.89 Q1619.98 1884.61 1622.05 1877.41 Q1624.15 1870.19 1624.15 1862.84 Q1624.15 1855.48 1622.05 1848.32 Q1619.98 1841.16 1615.75 1833.84 Z" fill="#000000" fill-rule="nonzero" fill-opacity="1" /><polyline clip-path="url(#clip210)" style="stroke:#000000; stroke-linecap:round; stroke-linejoin:round; stroke-width:4; stroke-opacity:1; fill:none" points="240.4,1734.12 240.4,127.792 "/>
<polyline clip-path="url(#clip210)" style="stroke:#000000; stroke-linecap:round; stroke-linejoin:round; stroke-width:4; stroke-opacity:1; fill:none" points="240.4,1694.52 259.297,1694.52 "/>
<polyline clip-path="url(#clip210)" style="stroke:#000000; stroke-linecap:round; stroke-linejoin:round; stroke-width:4; stroke-opacity:1; fill:none" points="240.4,1412.5 259.297,1412.5 "/>
<polyline clip-path="url(#clip210)" style="stroke:#000000; stroke-linecap:round; stroke-linejoin:round; stroke-width:4; stroke-opacity:1; fill:none" points="240.4,1130.48 259.297,1130.48 "/>
<polyline clip-path="url(#clip210)" style="stroke:#000000; stroke-linecap:round; stroke-linejoin:round; stroke-width:4; stroke-opacity:1; fill:none" points="240.4,848.463 259.297,848.463 "/>
<polyline clip-path="url(#clip210)" style="stroke:#000000; stroke-linecap:round; stroke-linejoin:round; stroke-width:4; stroke-opacity:1; fill:none" points="240.4,566.445 259.297,566.445 "/>
<polyline clip-path="url(#clip210)" style="stroke:#000000; stroke-linecap:round; stroke-linejoin:round; stroke-width:4; stroke-opacity:1; fill:none" points="240.4,284.427 259.297,284.427 "/>
<path clip-path="url(#clip210)" d="M188.135 1680.31 Q184.524 1680.31 182.696 1683.88 Q180.89 1687.42 180.89 1694.55 Q180.89 1701.66 182.696 1705.22 Q184.524 1708.76 188.135 1708.76 Q191.77 1708.76 193.575 1705.22 Q195.404 1701.66 195.404 1694.55 Q195.404 1687.42 193.575 1683.88 Q191.77 1680.31 188.135 1680.31 M188.135 1676.61 Q193.946 1676.61 197.001 1681.22 Q200.08 1685.8 200.08 1694.55 Q200.08 1703.28 197.001 1707.88 Q193.946 1712.47 188.135 1712.47 Q182.325 1712.47 179.247 1707.88 Q176.191 1703.28 176.191 1694.55 Q176.191 1685.8 179.247 1681.22 Q182.325 1676.61 188.135 1676.61 Z" fill="#000000" fill-rule="nonzero" fill-opacity="1" /><path clip-path="url(#clip210)" d="M148.02 1395.22 L166.376 1395.22 L166.376 1399.15 L152.302 1399.15 L152.302 1407.63 Q153.321 1407.28 154.339 1407.12 Q155.358 1406.93 156.376 1406.93 Q162.163 1406.93 165.543 1410.1 Q168.922 1413.27 168.922 1418.69 Q168.922 1424.27 165.45 1427.37 Q161.978 1430.45 155.659 1430.45 Q153.483 1430.45 151.214 1430.08 Q148.969 1429.71 146.562 1428.97 L146.562 1424.27 Q148.645 1425.4 150.867 1425.96 Q153.089 1426.51 155.566 1426.51 Q159.571 1426.51 161.909 1424.41 Q164.247 1422.3 164.247 1418.69 Q164.247 1415.08 161.909 1412.97 Q159.571 1410.87 155.566 1410.87 Q153.691 1410.87 151.816 1411.28 Q149.964 1411.7 148.02 1412.58 L148.02 1395.22 Z" fill="#000000" fill-rule="nonzero" fill-opacity="1" /><path clip-path="url(#clip210)" d="M188.135 1398.3 Q184.524 1398.3 182.696 1401.86 Q180.89 1405.4 180.89 1412.53 Q180.89 1419.64 182.696 1423.2 Q184.524 1426.75 188.135 1426.75 Q191.77 1426.75 193.575 1423.2 Q195.404 1419.64 195.404 1412.53 Q195.404 1405.4 193.575 1401.86 Q191.77 1398.3 188.135 1398.3 M188.135 1394.59 Q193.946 1394.59 197.001 1399.2 Q200.08 1403.78 200.08 1412.53 Q200.08 1421.26 197.001 1425.87 Q193.946 1430.45 188.135 1430.45 Q182.325 1430.45 179.247 1425.87 Q176.191 1421.26 176.191 1412.53 Q176.191 1403.78 179.247 1399.2 Q182.325 1394.59 188.135 1394.59 Z" fill="#000000" fill-rule="nonzero" fill-opacity="1" /><path clip-path="url(#clip210)" d="M118.622 1143.83 L126.261 1143.83 L126.261 1117.46 L117.951 1119.13 L117.951 1114.87 L126.214 1113.2 L130.89 1113.2 L130.89 1143.83 L138.529 1143.83 L138.529 1147.76 L118.622 1147.76 L118.622 1143.83 Z" fill="#000000" fill-rule="nonzero" fill-opacity="1" /><path clip-path="url(#clip210)" d="M157.973 1116.28 Q154.362 1116.28 152.534 1119.84 Q150.728 1123.39 150.728 1130.52 Q150.728 1137.62 152.534 1141.19 Q154.362 1144.73 157.973 1144.73 Q161.608 1144.73 163.413 1141.19 Q165.242 1137.62 165.242 1130.52 Q165.242 1123.39 163.413 1119.84 Q161.608 1116.28 157.973 1116.28 M157.973 1112.58 Q163.784 1112.58 166.839 1117.18 Q169.918 1121.77 169.918 1130.52 Q169.918 1139.24 166.839 1143.85 Q163.784 1148.43 157.973 1148.43 Q152.163 1148.43 149.085 1143.85 Q146.029 1139.24 146.029 1130.52 Q146.029 1121.77 149.085 1117.18 Q152.163 1112.58 157.973 1112.58 Z" fill="#000000" fill-rule="nonzero" fill-opacity="1" /><path clip-path="url(#clip210)" d="M188.135 1116.28 Q184.524 1116.28 182.696 1119.84 Q180.89 1123.39 180.89 1130.52 Q180.89 1137.62 182.696 1141.19 Q184.524 1144.73 188.135 1144.73 Q191.77 1144.73 193.575 1141.19 Q195.404 1137.62 195.404 1130.52 Q195.404 1123.39 193.575 1119.84 Q191.77 1116.28 188.135 1116.28 M188.135 1112.58 Q193.946 1112.58 197.001 1117.18 Q200.08 1121.77 200.08 1130.52 Q200.08 1139.24 197.001 1143.85 Q193.946 1148.43 188.135 1148.43 Q182.325 1148.43 179.247 1143.85 Q176.191 1139.24 176.191 1130.52 Q176.191 1121.77 179.247 1117.18 Q182.325 1112.58 188.135 1112.58 Z" fill="#000000" fill-rule="nonzero" fill-opacity="1" /><path clip-path="url(#clip210)" d="M118.622 861.808 L126.261 861.808 L126.261 835.442 L117.951 837.109 L117.951 832.849 L126.214 831.183 L130.89 831.183 L130.89 861.808 L138.529 861.808 L138.529 865.743 L118.622 865.743 L118.622 861.808 Z" fill="#000000" fill-rule="nonzero" fill-opacity="1" /><path clip-path="url(#clip210)" d="M148.02 831.183 L166.376 831.183 L166.376 835.118 L152.302 835.118 L152.302 843.59 Q153.321 843.243 154.339 843.081 Q155.358 842.896 156.376 842.896 Q162.163 842.896 165.543 846.067 Q168.922 849.238 168.922 854.655 Q168.922 860.234 165.45 863.335 Q161.978 866.414 155.659 866.414 Q153.483 866.414 151.214 866.044 Q148.969 865.673 146.562 864.933 L146.562 860.234 Q148.645 861.368 150.867 861.923 Q153.089 862.479 155.566 862.479 Q159.571 862.479 161.909 860.372 Q164.247 858.266 164.247 854.655 Q164.247 851.044 161.909 848.937 Q159.571 846.831 155.566 846.831 Q153.691 846.831 151.816 847.248 Q149.964 847.664 148.02 848.544 L148.02 831.183 Z" fill="#000000" fill-rule="nonzero" fill-opacity="1" /><path clip-path="url(#clip210)" d="M188.135 834.262 Q184.524 834.262 182.696 837.826 Q180.89 841.368 180.89 848.498 Q180.89 855.604 182.696 859.169 Q184.524 862.71 188.135 862.71 Q191.77 862.71 193.575 859.169 Q195.404 855.604 195.404 848.498 Q195.404 841.368 193.575 837.826 Q191.77 834.262 188.135 834.262 M188.135 830.558 Q193.946 830.558 197.001 835.164 Q200.08 839.748 200.08 848.498 Q200.08 857.224 197.001 861.831 Q193.946 866.414 188.135 866.414 Q182.325 866.414 179.247 861.831 Q176.191 857.224 176.191 848.498 Q176.191 839.748 179.247 835.164 Q182.325 830.558 188.135 830.558 Z" fill="#000000" fill-rule="nonzero" fill-opacity="1" /><path clip-path="url(#clip210)" d="M121.839 579.79 L138.159 579.79 L138.159 583.725 L116.214 583.725 L116.214 579.79 Q118.876 577.035 123.46 572.406 Q128.066 567.753 129.247 566.41 Q131.492 563.887 132.372 562.151 Q133.275 560.392 133.275 558.702 Q133.275 555.947 131.33 554.211 Q129.409 552.475 126.307 552.475 Q124.108 552.475 121.654 553.239 Q119.224 554.003 116.446 555.554 L116.446 550.832 Q119.27 549.697 121.724 549.119 Q124.177 548.54 126.214 548.54 Q131.585 548.54 134.779 551.225 Q137.974 553.91 137.974 558.401 Q137.974 560.531 137.163 562.452 Q136.376 564.35 134.27 566.943 Q133.691 567.614 130.589 570.832 Q127.488 574.026 121.839 579.79 Z" fill="#000000" fill-rule="nonzero" fill-opacity="1" /><path clip-path="url(#clip210)" d="M157.973 552.244 Q154.362 552.244 152.534 555.809 Q150.728 559.35 150.728 566.48 Q150.728 573.586 152.534 577.151 Q154.362 580.693 157.973 580.693 Q161.608 580.693 163.413 577.151 Q165.242 573.586 165.242 566.48 Q165.242 559.35 163.413 555.809 Q161.608 552.244 157.973 552.244 M157.973 548.54 Q163.784 548.54 166.839 553.147 Q169.918 557.73 169.918 566.48 Q169.918 575.207 166.839 579.813 Q163.784 584.396 157.973 584.396 Q152.163 584.396 149.085 579.813 Q146.029 575.207 146.029 566.48 Q146.029 557.73 149.085 553.147 Q152.163 548.54 157.973 548.54 Z" fill="#000000" fill-rule="nonzero" fill-opacity="1" /><path clip-path="url(#clip210)" d="M188.135 552.244 Q184.524 552.244 182.696 555.809 Q180.89 559.35 180.89 566.48 Q180.89 573.586 182.696 577.151 Q184.524 580.693 188.135 580.693 Q191.77 580.693 193.575 577.151 Q195.404 573.586 195.404 566.48 Q195.404 559.35 193.575 555.809 Q191.77 552.244 188.135 552.244 M188.135 548.54 Q193.946 548.54 197.001 553.147 Q200.08 557.73 200.08 566.48 Q200.08 575.207 197.001 579.813 Q193.946 584.396 188.135 584.396 Q182.325 584.396 179.247 579.813 Q176.191 575.207 176.191 566.48 Q176.191 557.73 179.247 553.147 Q182.325 548.54 188.135 548.54 Z" fill="#000000" fill-rule="nonzero" fill-opacity="1" /><path clip-path="url(#clip210)" d="M121.839 297.772 L138.159 297.772 L138.159 301.707 L116.214 301.707 L116.214 297.772 Q118.876 295.018 123.46 290.388 Q128.066 285.735 129.247 284.393 Q131.492 281.869 132.372 280.133 Q133.275 278.374 133.275 276.684 Q133.275 273.93 131.33 272.194 Q129.409 270.457 126.307 270.457 Q124.108 270.457 121.654 271.221 Q119.224 271.985 116.446 273.536 L116.446 268.814 Q119.27 267.68 121.724 267.101 Q124.177 266.522 126.214 266.522 Q131.585 266.522 134.779 269.207 Q137.974 271.893 137.974 276.383 Q137.974 278.513 137.163 280.434 Q136.376 282.332 134.27 284.925 Q133.691 285.596 130.589 288.814 Q127.488 292.008 121.839 297.772 Z" fill="#000000" fill-rule="nonzero" fill-opacity="1" /><path clip-path="url(#clip210)" d="M148.02 267.147 L166.376 267.147 L166.376 271.082 L152.302 271.082 L152.302 279.555 Q153.321 279.207 154.339 279.045 Q155.358 278.86 156.376 278.86 Q162.163 278.86 165.543 282.031 Q168.922 285.203 168.922 290.619 Q168.922 296.198 165.45 299.3 Q161.978 302.379 155.659 302.379 Q153.483 302.379 151.214 302.008 Q148.969 301.638 146.562 300.897 L146.562 296.198 Q148.645 297.332 150.867 297.888 Q153.089 298.443 155.566 298.443 Q159.571 298.443 161.909 296.337 Q164.247 294.23 164.247 290.619 Q164.247 287.008 161.909 284.902 Q159.571 282.795 155.566 282.795 Q153.691 282.795 151.816 283.212 Q149.964 283.629 148.02 284.508 L148.02 267.147 Z" fill="#000000" fill-rule="nonzero" fill-opacity="1" /><path clip-path="url(#clip210)" d="M188.135 270.226 Q184.524 270.226 182.696 273.791 Q180.89 277.332 180.89 284.462 Q180.89 291.568 182.696 295.133 Q184.524 298.675 188.135 298.675 Q191.77 298.675 193.575 295.133 Q195.404 291.568 195.404 284.462 Q195.404 277.332 193.575 273.791 Q191.77 270.226 188.135 270.226 M188.135 266.522 Q193.946 266.522 197.001 271.129 Q200.08 275.712 200.08 284.462 Q200.08 293.189 197.001 297.795 Q193.946 302.379 188.135 302.379 Q182.325 302.379 179.247 297.795 Q176.191 293.189 176.191 284.462 Q176.191 275.712 179.247 271.129 Q182.325 266.522 188.135 266.522 Z" fill="#000000" fill-rule="nonzero" fill-opacity="1" /><path clip-path="url(#clip210)" d="M14.1184 1058.03 L14.1184 1051.6 L61.6384 1051.6 L61.6384 1058.03 L14.1184 1058.03 Z" fill="#000000" fill-rule="nonzero" fill-opacity="1" /><path clip-path="url(#clip210)" d="M40.1224 1009.43 L61.6384 1009.43 L61.6384 1015.28 L40.3133 1015.28 Q35.2526 1015.28 32.7381 1017.26 Q30.2237 1019.23 30.2237 1023.18 Q30.2237 1027.92 33.2474 1030.66 Q36.2711 1033.39 41.491 1033.39 L61.6384 1033.39 L61.6384 1039.28 L25.9905 1039.28 L25.9905 1033.39 L31.5287 1033.39 Q28.314 1031.29 26.7225 1028.46 Q25.1311 1025.6 25.1311 1021.87 Q25.1311 1015.73 28.9505 1012.58 Q32.7381 1009.43 40.1224 1009.43 Z" fill="#000000" fill-rule="nonzero" fill-opacity="1" /><path clip-path="url(#clip210)" d="M12.1132 979.7 L16.983 979.7 L16.983 985.302 Q16.983 988.453 18.2562 989.694 Q19.5293 990.904 22.8395 990.904 L25.9905 990.904 L25.9905 981.26 L30.542 981.26 L30.542 990.904 L61.6384 990.904 L61.6384 996.792 L30.542 996.792 L30.542 1002.39 L25.9905 1002.39 L25.9905 996.792 L23.5079 996.792 Q17.5559 996.792 14.8505 994.023 Q12.1132 991.254 12.1132 985.238 L12.1132 979.7 Z" fill="#000000" fill-rule="nonzero" fill-opacity="1" /><path clip-path="url(#clip210)" d="M42.3504 944.307 L45.2149 944.307 L45.2149 971.234 Q51.2623 970.852 54.4452 967.605 Q57.5962 964.327 57.5962 958.502 Q57.5962 955.128 56.7687 951.977 Q55.9411 948.794 54.2861 945.675 L59.8242 945.675 Q61.161 948.826 61.8612 952.136 Q62.5615 955.447 62.5615 958.852 Q62.5615 967.382 57.5962 972.379 Q52.631 977.345 44.1646 977.345 Q35.4117 977.345 30.2873 972.634 Q25.1311 967.892 25.1311 959.871 Q25.1311 952.678 29.7781 948.508 Q34.3932 944.307 42.3504 944.307 M40.6316 950.163 Q35.8255 950.227 32.9609 952.869 Q30.0964 955.478 30.0964 959.807 Q30.0964 964.709 32.8654 967.669 Q35.6345 970.597 40.6634 971.043 L40.6316 950.163 Z" fill="#000000" fill-rule="nonzero" fill-opacity="1" /><path clip-path="url(#clip210)" d="M27.3591 909.041 L32.8336 909.041 Q31.465 911.523 30.7966 914.038 Q30.0964 916.52 30.0964 919.067 Q30.0964 924.764 33.7248 927.915 Q37.3214 931.066 43.8463 931.066 Q50.3711 931.066 53.9996 927.915 Q57.5962 924.764 57.5962 919.067 Q57.5962 916.52 56.9278 914.038 Q56.2276 911.523 54.859 909.041 L60.2698 909.041 Q61.4156 911.491 61.9886 914.133 Q62.5615 916.743 62.5615 919.703 Q62.5615 927.756 57.5007 932.498 Q52.44 937.241 43.8463 937.241 Q35.1253 937.241 30.1282 932.466 Q25.1311 927.66 25.1311 919.321 Q25.1311 916.616 25.704 914.038 Q26.2451 911.46 27.3591 909.041 Z" fill="#000000" fill-rule="nonzero" fill-opacity="1" /><path clip-path="url(#clip210)" d="M15.869 893.063 L25.9905 893.063 L25.9905 881 L30.542 881 L30.542 893.063 L49.8937 893.063 Q54.2542 893.063 55.4955 891.885 Q56.7368 890.676 56.7368 887.015 L56.7368 881 L61.6384 881 L61.6384 887.015 Q61.6384 893.795 59.124 896.373 Q56.5777 898.951 49.8937 898.951 L30.542 898.951 L30.542 903.248 L25.9905 903.248 L25.9905 898.951 L15.869 898.951 L15.869 893.063 Z" fill="#000000" fill-rule="nonzero" fill-opacity="1" /><path clip-path="url(#clip210)" d="M42.3504 842.805 L45.2149 842.805 L45.2149 869.732 Q51.2623 869.35 54.4452 866.104 Q57.5962 862.826 57.5962 857.001 Q57.5962 853.627 56.7687 850.476 Q55.9411 847.293 54.2861 844.174 L59.8242 844.174 Q61.161 847.325 61.8612 850.635 Q62.5615 853.945 62.5615 857.351 Q62.5615 865.881 57.5962 870.878 Q52.631 875.843 44.1646 875.843 Q35.4117 875.843 30.2873 871.133 Q25.1311 866.39 25.1311 858.37 Q25.1311 851.176 29.7781 847.007 Q34.3932 842.805 42.3504 842.805 M40.6316 848.662 Q35.8255 848.726 32.9609 851.367 Q30.0964 853.977 30.0964 858.306 Q30.0964 863.208 32.8654 866.168 Q35.6345 869.096 40.6634 869.541 L40.6316 848.662 Z" fill="#000000" fill-rule="nonzero" fill-opacity="1" /><path clip-path="url(#clip210)" d="M31.4013 809.736 L12.1132 809.736 L12.1132 803.879 L61.6384 803.879 L61.6384 809.736 L56.2912 809.736 Q59.4741 811.582 61.0337 814.414 Q62.5615 817.215 62.5615 821.162 Q62.5615 827.623 57.4052 831.697 Q52.249 835.739 43.8463 835.739 Q35.4436 835.739 30.2873 831.697 Q25.1311 827.623 25.1311 821.162 Q25.1311 817.215 26.6907 814.414 Q28.2185 811.582 31.4013 809.736 M43.8463 829.692 Q50.3075 829.692 53.9996 827.05 Q57.6599 824.377 57.6599 819.73 Q57.6599 815.083 53.9996 812.409 Q50.3075 809.736 43.8463 809.736 Q37.3851 809.736 33.7248 812.409 Q30.0327 815.083 30.0327 819.73 Q30.0327 824.377 33.7248 827.05 Q37.3851 829.692 43.8463 829.692 Z" fill="#000000" fill-rule="nonzero" fill-opacity="1" /><path clip-path="url(#clip210)" d="M897.635 16.7545 L897.635 25.383 Q893.503 21.5346 888.804 19.6307 Q884.146 17.7268 878.879 17.7268 Q868.509 17.7268 863 24.0867 Q857.491 30.4061 857.491 42.3968 Q857.491 54.3469 863 60.7069 Q868.509 67.0263 878.879 67.0263 Q884.146 67.0263 888.804 65.1223 Q893.503 63.2184 897.635 59.3701 L897.635 67.9175 Q893.341 70.8341 888.521 72.2924 Q883.741 73.7508 878.393 73.7508 Q864.661 73.7508 856.762 65.3654 Q848.862 56.9395 848.862 42.3968 Q848.862 27.8135 856.762 19.4281 Q864.661 11.0023 878.393 11.0023 Q883.822 11.0023 888.602 12.4606 Q893.422 13.8784 897.635 16.7545 Z" fill="#000000" fill-rule="nonzero" fill-opacity="1" /><path clip-path="url(#clip210)" d="M930.569 49.7694 Q921.535 49.7694 918.052 51.8354 Q914.568 53.9013 914.568 58.8839 Q914.568 62.8538 917.16 65.2034 Q919.794 67.5124 924.29 67.5124 Q930.488 67.5124 934.215 63.1374 Q937.982 58.7219 937.982 51.4303 L937.982 49.7694 L930.569 49.7694 M945.436 46.6907 L945.436 72.576 L937.982 72.576 L937.982 65.6895 Q935.43 69.8214 931.622 71.8063 Q927.814 73.7508 922.305 73.7508 Q915.338 73.7508 911.206 69.8619 Q907.114 65.9325 907.114 59.3701 Q907.114 51.7138 912.218 47.825 Q917.363 43.9361 927.531 43.9361 L937.982 43.9361 L937.982 43.2069 Q937.982 38.0623 934.579 35.2672 Q931.217 32.4315 925.1 32.4315 Q921.211 32.4315 917.525 33.3632 Q913.839 34.295 910.436 36.1584 L910.436 29.2718 Q914.527 27.692 918.376 26.9223 Q922.224 26.1121 925.87 26.1121 Q935.714 26.1121 940.575 31.2163 Q945.436 36.3204 945.436 46.6907 Z" fill="#000000" fill-rule="nonzero" fill-opacity="1" /><path clip-path="url(#clip210)" d="M989.712 28.5427 L989.712 35.5912 Q986.552 33.9709 983.15 33.1607 Q979.747 32.3505 976.101 32.3505 Q970.551 32.3505 967.756 34.0519 Q965.002 35.7533 965.002 39.156 Q965.002 41.7486 966.987 43.2475 Q968.972 44.7058 974.967 46.0426 L977.519 46.6097 Q985.459 48.3111 988.78 51.4303 Q992.143 54.509 992.143 60.0587 Q992.143 66.3781 987.12 70.0644 Q982.137 73.7508 973.387 73.7508 Q969.741 73.7508 965.771 73.0216 Q961.842 72.3329 957.467 70.9151 L957.467 63.2184 Q961.599 65.3654 965.609 66.4591 Q969.62 67.5124 973.549 67.5124 Q978.815 67.5124 981.651 65.73 Q984.487 63.9071 984.487 60.6258 Q984.487 57.5877 982.421 55.9673 Q980.395 54.3469 973.468 52.8481 L970.875 52.2405 Q963.948 50.7821 960.87 47.7845 Q957.791 44.7463 957.791 39.4801 Q957.791 33.0797 962.328 29.5959 Q966.865 26.1121 975.21 26.1121 Q979.342 26.1121 982.988 26.7198 Q986.633 27.3274 989.712 28.5427 Z" fill="#000000" fill-rule="nonzero" fill-opacity="1" /><path clip-path="url(#clip210)" d="M1042.82 48.0275 L1042.82 51.6733 L1008.55 51.6733 Q1009.03 59.3701 1013.17 63.421 Q1017.34 67.4314 1024.75 67.4314 Q1029.05 67.4314 1033.06 66.3781 Q1037.11 65.3249 1041.08 63.2184 L1041.08 70.267 Q1037.07 71.9684 1032.85 72.8596 Q1028.64 73.7508 1024.31 73.7508 Q1013.45 73.7508 1007.09 67.4314 Q1000.77 61.1119 1000.77 50.3365 Q1000.77 39.1965 1006.77 32.6746 Q1012.8 26.1121 1023.01 26.1121 Q1032.17 26.1121 1037.47 32.0264 Q1042.82 37.9003 1042.82 48.0275 M1035.37 45.84 Q1035.28 39.7232 1031.92 36.0774 Q1028.6 32.4315 1023.09 32.4315 Q1016.85 32.4315 1013.09 35.9558 Q1009.36 39.4801 1008.79 45.8805 L1035.37 45.84 Z" fill="#000000" fill-rule="nonzero" fill-opacity="1" /><path clip-path="url(#clip210)" d="M1113.99 49.9314 Q1113.99 41.7081 1110.59 37.0496 Q1107.23 32.3505 1101.31 32.3505 Q1095.4 32.3505 1092 37.0496 Q1088.64 41.7081 1088.64 49.9314 Q1088.64 58.1548 1092 62.8538 Q1095.4 67.5124 1101.31 67.5124 Q1107.23 67.5124 1110.59 62.8538 Q1113.99 58.1548 1113.99 49.9314 M1088.64 34.0924 Q1090.98 30.0415 1094.55 28.0971 Q1098.15 26.1121 1103.14 26.1121 Q1111.4 26.1121 1116.55 32.6746 Q1121.73 39.2371 1121.73 49.9314 Q1121.73 60.6258 1116.55 67.1883 Q1111.4 73.7508 1103.14 73.7508 Q1098.15 73.7508 1094.55 71.8063 Q1090.98 69.8214 1088.64 65.7705 L1088.64 72.576 L1081.14 72.576 L1081.14 9.54393 L1088.64 9.54393 L1088.64 34.0924 Z" fill="#000000" fill-rule="nonzero" fill-opacity="1" /><path clip-path="url(#clip210)" d="M1151.67 32.4315 Q1145.67 32.4315 1142.19 37.1306 Q1138.7 41.7891 1138.7 49.9314 Q1138.7 58.0738 1142.15 62.7728 Q1145.63 67.4314 1151.67 67.4314 Q1157.62 67.4314 1161.11 62.7323 Q1164.59 58.0333 1164.59 49.9314 Q1164.59 41.8701 1161.11 37.1711 Q1157.62 32.4315 1151.67 32.4315 M1151.67 26.1121 Q1161.39 26.1121 1166.94 32.4315 Q1172.49 38.7509 1172.49 49.9314 Q1172.49 61.0714 1166.94 67.4314 Q1161.39 73.7508 1151.67 73.7508 Q1141.9 73.7508 1136.35 67.4314 Q1130.85 61.0714 1130.85 49.9314 Q1130.85 38.7509 1136.35 32.4315 Q1141.9 26.1121 1151.67 26.1121 Z" fill="#000000" fill-rule="nonzero" fill-opacity="1" /><path clip-path="url(#clip210)" d="M1202.43 32.4315 Q1196.43 32.4315 1192.95 37.1306 Q1189.46 41.7891 1189.46 49.9314 Q1189.46 58.0738 1192.91 62.7728 Q1196.39 67.4314 1202.43 67.4314 Q1208.38 67.4314 1211.86 62.7323 Q1215.35 58.0333 1215.35 49.9314 Q1215.35 41.8701 1211.86 37.1711 Q1208.38 32.4315 1202.43 32.4315 M1202.43 26.1121 Q1212.15 26.1121 1217.7 32.4315 Q1223.25 38.7509 1223.25 49.9314 Q1223.25 61.0714 1217.7 67.4314 Q1212.15 73.7508 1202.43 73.7508 Q1192.66 73.7508 1187.11 67.4314 Q1181.6 61.0714 1181.6 49.9314 Q1181.6 38.7509 1187.11 32.4315 Q1192.66 26.1121 1202.43 26.1121 Z" fill="#000000" fill-rule="nonzero" fill-opacity="1" /><path clip-path="url(#clip210)" d="M1242.97 14.324 L1242.97 27.2059 L1258.33 27.2059 L1258.33 32.9987 L1242.97 32.9987 L1242.97 57.6282 Q1242.97 63.1779 1244.47 64.7578 Q1246.01 66.3376 1250.67 66.3376 L1258.33 66.3376 L1258.33 72.576 L1250.67 72.576 Q1242.04 72.576 1238.76 69.3758 Q1235.48 66.1351 1235.48 57.6282 L1235.48 32.9987 L1230.01 32.9987 L1230.01 27.2059 L1235.48 27.2059 L1235.48 14.324 L1242.97 14.324 Z" fill="#000000" fill-rule="nonzero" fill-opacity="1" /><path clip-path="url(#clip210)" d="M1297.05 28.5427 L1297.05 35.5912 Q1293.89 33.9709 1290.49 33.1607 Q1287.09 32.3505 1283.44 32.3505 Q1277.89 32.3505 1275.1 34.0519 Q1272.34 35.7533 1272.34 39.156 Q1272.34 41.7486 1274.33 43.2475 Q1276.31 44.7058 1282.31 46.0426 L1284.86 46.6097 Q1292.8 48.3111 1296.12 51.4303 Q1299.48 54.509 1299.48 60.0587 Q1299.48 66.3781 1294.46 70.0644 Q1289.48 73.7508 1280.73 73.7508 Q1277.08 73.7508 1273.11 73.0216 Q1269.18 72.3329 1264.81 70.9151 L1264.81 63.2184 Q1268.94 65.3654 1272.95 66.4591 Q1276.96 67.5124 1280.89 67.5124 Q1286.16 67.5124 1288.99 65.73 Q1291.83 63.9071 1291.83 60.6258 Q1291.83 57.5877 1289.76 55.9673 Q1287.74 54.3469 1280.81 52.8481 L1278.22 52.2405 Q1271.29 50.7821 1268.21 47.7845 Q1265.13 44.7463 1265.13 39.4801 Q1265.13 33.0797 1269.67 29.5959 Q1274.21 26.1121 1282.55 26.1121 Q1286.68 26.1121 1290.33 26.7198 Q1293.98 27.3274 1297.05 28.5427 Z" fill="#000000" fill-rule="nonzero" fill-opacity="1" /><path clip-path="url(#clip210)" d="M1318.73 14.324 L1318.73 27.2059 L1334.08 27.2059 L1334.08 32.9987 L1318.73 32.9987 L1318.73 57.6282 Q1318.73 63.1779 1320.23 64.7578 Q1321.76 66.3376 1326.42 66.3376 L1334.08 66.3376 L1334.08 72.576 L1326.42 72.576 Q1317.79 72.576 1314.51 69.3758 Q1311.23 66.1351 1311.23 57.6282 L1311.23 32.9987 L1305.76 32.9987 L1305.76 27.2059 L1311.23 27.2059 L1311.23 14.324 L1318.73 14.324 Z" fill="#000000" fill-rule="nonzero" fill-opacity="1" /><path clip-path="url(#clip210)" d="M1370.17 34.1734 Q1368.92 33.4443 1367.42 33.1202 Q1365.96 32.7556 1364.18 32.7556 Q1357.86 32.7556 1354.46 36.8875 Q1351.09 40.9789 1351.09 48.6757 L1351.09 72.576 L1343.6 72.576 L1343.6 27.2059 L1351.09 27.2059 L1351.09 34.2544 Q1353.44 30.1225 1357.21 28.1376 Q1360.98 26.1121 1366.37 26.1121 Q1367.13 26.1121 1368.07 26.2337 Q1369 26.3147 1370.13 26.5172 L1370.17 34.1734 Z" fill="#000000" fill-rule="nonzero" fill-opacity="1" /><path clip-path="url(#clip210)" d="M1398.61 49.7694 Q1389.58 49.7694 1386.09 51.8354 Q1382.61 53.9013 1382.61 58.8839 Q1382.61 62.8538 1385.2 65.2034 Q1387.84 67.5124 1392.33 67.5124 Q1398.53 67.5124 1402.26 63.1374 Q1406.02 58.7219 1406.02 51.4303 L1406.02 49.7694 L1398.61 49.7694 M1413.48 46.6907 L1413.48 72.576 L1406.02 72.576 L1406.02 65.6895 Q1403.47 69.8214 1399.66 71.8063 Q1395.86 73.7508 1390.35 73.7508 Q1383.38 73.7508 1379.25 69.8619 Q1375.16 65.9325 1375.16 59.3701 Q1375.16 51.7138 1380.26 47.825 Q1385.4 43.9361 1395.57 43.9361 L1406.02 43.9361 L1406.02 43.2069 Q1406.02 38.0623 1402.62 35.2672 Q1399.26 32.4315 1393.14 32.4315 Q1389.25 32.4315 1385.57 33.3632 Q1381.88 34.295 1378.48 36.1584 L1378.48 29.2718 Q1382.57 27.692 1386.42 26.9223 Q1390.27 26.1121 1393.91 26.1121 Q1403.76 26.1121 1408.62 31.2163 Q1413.48 36.3204 1413.48 46.6907 Z" fill="#000000" fill-rule="nonzero" fill-opacity="1" /><path clip-path="url(#clip210)" d="M1436.04 65.7705 L1436.04 89.8329 L1428.55 89.8329 L1428.55 27.2059 L1436.04 27.2059 L1436.04 34.0924 Q1438.39 30.0415 1441.96 28.0971 Q1445.56 26.1121 1450.54 26.1121 Q1458.81 26.1121 1463.95 32.6746 Q1469.14 39.2371 1469.14 49.9314 Q1469.14 60.6258 1463.95 67.1883 Q1458.81 73.7508 1450.54 73.7508 Q1445.56 73.7508 1441.96 71.8063 Q1438.39 69.8214 1436.04 65.7705 M1461.4 49.9314 Q1461.4 41.7081 1458 37.0496 Q1454.63 32.3505 1448.72 32.3505 Q1442.81 32.3505 1439.4 37.0496 Q1436.04 41.7081 1436.04 49.9314 Q1436.04 58.1548 1439.4 62.8538 Q1442.81 67.5124 1448.72 67.5124 Q1454.63 67.5124 1458 62.8538 Q1461.4 58.1548 1461.4 49.9314 Z" fill="#000000" fill-rule="nonzero" fill-opacity="1" /><path clip-path="url(#clip210)" d="M1483.4 62.2867 L1491.94 62.2867 L1491.94 72.576 L1483.4 72.576 L1483.4 62.2867 M1483.4 29.6769 L1491.94 29.6769 L1491.94 39.9662 L1483.4 39.9662 L1483.4 29.6769 Z" fill="#000000" fill-rule="nonzero" fill-opacity="1" /><path clip-path="url(#clip210)" d="M1543.19 14.324 L1543.19 27.2059 L1558.54 27.2059 L1558.54 32.9987 L1543.19 32.9987 L1543.19 57.6282 Q1543.19 63.1779 1544.69 64.7578 Q1546.23 66.3376 1550.88 66.3376 L1558.54 66.3376 L1558.54 72.576 L1550.88 72.576 Q1542.26 72.576 1538.97 69.3758 Q1535.69 66.1351 1535.69 57.6282 L1535.69 32.9987 L1530.22 32.9987 L1530.22 27.2059 L1535.69 27.2059 L1535.69 14.324 L1543.19 14.324 Z" fill="#000000" fill-rule="nonzero" fill-opacity="1" /><path clip-path="url(#clip210)" d="M1594.63 34.1734 Q1593.38 33.4443 1591.88 33.1202 Q1590.42 32.7556 1588.64 32.7556 Q1582.32 32.7556 1578.92 36.8875 Q1575.55 40.9789 1575.55 48.6757 L1575.55 72.576 L1568.06 72.576 L1568.06 27.2059 L1575.55 27.2059 L1575.55 34.2544 Q1577.9 30.1225 1581.67 28.1376 Q1585.44 26.1121 1590.83 26.1121 Q1591.6 26.1121 1592.53 26.2337 Q1593.46 26.3147 1594.59 26.5172 L1594.63 34.1734 Z" fill="#000000" fill-rule="nonzero" fill-opacity="1" /><path clip-path="url(#clip210)" d="M1623.07 49.7694 Q1614.04 49.7694 1610.55 51.8354 Q1607.07 53.9013 1607.07 58.8839 Q1607.07 62.8538 1609.66 65.2034 Q1612.3 67.5124 1616.79 67.5124 Q1622.99 67.5124 1626.72 63.1374 Q1630.48 58.7219 1630.48 51.4303 L1630.48 49.7694 L1623.07 49.7694 M1637.94 46.6907 L1637.94 72.576 L1630.48 72.576 L1630.48 65.6895 Q1627.93 69.8214 1624.12 71.8063 Q1620.32 73.7508 1614.81 73.7508 Q1607.84 73.7508 1603.71 69.8619 Q1599.62 65.9325 1599.62 59.3701 Q1599.62 51.7138 1604.72 47.825 Q1609.87 43.9361 1620.03 43.9361 L1630.48 43.9361 L1630.48 43.2069 Q1630.48 38.0623 1627.08 35.2672 Q1623.72 32.4315 1617.6 32.4315 Q1613.71 32.4315 1610.03 33.3632 Q1606.34 34.295 1602.94 36.1584 L1602.94 29.2718 Q1607.03 27.692 1610.88 26.9223 Q1614.73 26.1121 1618.37 26.1121 Q1628.22 26.1121 1633.08 31.2163 Q1637.94 36.3204 1637.94 46.6907 Z" fill="#000000" fill-rule="nonzero" fill-opacity="1" /><path clip-path="url(#clip210)" d="M1653.29 27.2059 L1660.74 27.2059 L1660.74 73.3862 Q1660.74 82.0551 1657.42 85.944 Q1654.14 89.8329 1646.81 89.8329 L1643.97 89.8329 L1643.97 83.5134 L1645.96 83.5134 Q1650.21 83.5134 1651.75 81.5285 Q1653.29 79.5841 1653.29 73.3862 L1653.29 27.2059 M1653.29 9.54393 L1660.74 9.54393 L1660.74 18.9825 L1653.29 18.9825 L1653.29 9.54393 Z" fill="#000000" fill-rule="nonzero" fill-opacity="1" /><path clip-path="url(#clip210)" d="M1715.15 48.0275 L1715.15 51.6733 L1680.88 51.6733 Q1681.36 59.3701 1685.5 63.421 Q1689.67 67.4314 1697.08 67.4314 Q1701.38 67.4314 1705.39 66.3781 Q1709.44 65.3249 1713.41 63.2184 L1713.41 70.267 Q1709.4 71.9684 1705.18 72.8596 Q1700.97 73.7508 1696.64 73.7508 Q1685.78 73.7508 1679.42 67.4314 Q1673.1 61.1119 1673.1 50.3365 Q1673.1 39.1965 1679.1 32.6746 Q1685.13 26.1121 1695.34 26.1121 Q1704.49 26.1121 1709.8 32.0264 Q1715.15 37.9003 1715.15 48.0275 M1707.69 45.84 Q1707.61 39.7232 1704.25 36.0774 Q1700.93 32.4315 1695.42 32.4315 Q1689.18 32.4315 1685.41 35.9558 Q1681.69 39.4801 1681.12 45.8805 L1707.69 45.84 Z" fill="#000000" fill-rule="nonzero" fill-opacity="1" /><path clip-path="url(#clip210)" d="M1760.03 28.9478 L1760.03 35.9153 Q1756.87 34.1734 1753.67 33.3227 Q1750.51 32.4315 1747.27 32.4315 Q1740.02 32.4315 1736.01 37.0496 Q1732 41.6271 1732 49.9314 Q1732 58.2358 1736.01 62.8538 Q1740.02 67.4314 1747.27 67.4314 Q1750.51 67.4314 1753.67 66.5807 Q1756.87 65.6895 1760.03 63.9476 L1760.03 70.8341 Q1756.91 72.2924 1753.55 73.0216 Q1750.23 73.7508 1746.46 73.7508 Q1736.21 73.7508 1730.18 67.3098 Q1724.14 60.8689 1724.14 49.9314 Q1724.14 38.832 1730.22 32.472 Q1736.33 26.1121 1746.95 26.1121 Q1750.39 26.1121 1753.67 26.8413 Q1756.95 27.5299 1760.03 28.9478 Z" fill="#000000" fill-rule="nonzero" fill-opacity="1" /><path clip-path="url(#clip210)" d="M1780.37 14.324 L1780.37 27.2059 L1795.72 27.2059 L1795.72 32.9987 L1780.37 32.9987 L1780.37 57.6282 Q1780.37 63.1779 1781.87 64.7578 Q1783.41 66.3376 1788.06 66.3376 L1795.72 66.3376 L1795.72 72.576 L1788.06 72.576 Q1779.44 72.576 1776.15 69.3758 Q1772.87 66.1351 1772.87 57.6282 L1772.87 32.9987 L1767.4 32.9987 L1767.4 27.2059 L1772.87 27.2059 L1772.87 14.324 L1780.37 14.324 Z" fill="#000000" fill-rule="nonzero" fill-opacity="1" /><path clip-path="url(#clip210)" d="M1823.1 32.4315 Q1817.11 32.4315 1813.63 37.1306 Q1810.14 41.7891 1810.14 49.9314 Q1810.14 58.0738 1813.59 62.7728 Q1817.07 67.4314 1823.1 67.4314 Q1829.06 67.4314 1832.54 62.7323 Q1836.03 58.0333 1836.03 49.9314 Q1836.03 41.8701 1832.54 37.1711 Q1829.06 32.4315 1823.1 32.4315 M1823.1 26.1121 Q1832.83 26.1121 1838.38 32.4315 Q1843.93 38.7509 1843.93 49.9314 Q1843.93 61.0714 1838.38 67.4314 Q1832.83 73.7508 1823.1 73.7508 Q1813.34 73.7508 1807.79 67.4314 Q1802.28 61.0714 1802.28 49.9314 Q1802.28 38.7509 1807.79 32.4315 Q1813.34 26.1121 1823.1 26.1121 Z" fill="#000000" fill-rule="nonzero" fill-opacity="1" /><path clip-path="url(#clip210)" d="M1882.57 34.1734 Q1881.32 33.4443 1879.82 33.1202 Q1878.36 32.7556 1876.58 32.7556 Q1870.26 32.7556 1866.85 36.8875 Q1863.49 40.9789 1863.49 48.6757 L1863.49 72.576 L1856 72.576 L1856 27.2059 L1863.49 27.2059 L1863.49 34.2544 Q1865.84 30.1225 1869.61 28.1376 Q1873.38 26.1121 1878.76 26.1121 Q1879.53 26.1121 1880.47 26.2337 Q1881.4 26.3147 1882.53 26.5172 L1882.57 34.1734 Z" fill="#000000" fill-rule="nonzero" fill-opacity="1" /><path clip-path="url(#clip210)" d="M1909.27 76.7889 Q1906.11 84.8907 1903.11 87.3618 Q1900.11 89.8329 1895.09 89.8329 L1889.13 89.8329 L1889.13 83.5945 L1893.51 83.5945 Q1896.59 83.5945 1898.29 82.1361 Q1899.99 80.6778 1902.06 75.2496 L1903.39 71.8468 L1885.04 27.2059 L1892.94 27.2059 L1907.12 62.6918 L1921.3 27.2059 L1929.2 27.2059 L1909.27 76.7889 Z" fill="#000000" fill-rule="nonzero" fill-opacity="1" /><path clip-path="url(#clip210)" d="M2011.47 16.7545 L2011.47 25.383 Q2007.34 21.5346 2002.64 19.6307 Q1997.98 17.7268 1992.72 17.7268 Q1982.35 17.7268 1976.84 24.0867 Q1971.33 30.4061 1971.33 42.3968 Q1971.33 54.3469 1976.84 60.7069 Q1982.35 67.0263 1992.72 67.0263 Q1997.98 67.0263 2002.64 65.1223 Q2007.34 63.2184 2011.47 59.3701 L2011.47 67.9175 Q2007.18 70.8341 2002.36 72.2924 Q1997.58 73.7508 1992.23 73.7508 Q1978.5 73.7508 1970.6 65.3654 Q1962.7 56.9395 1962.7 42.3968 Q1962.7 27.8135 1970.6 19.4281 Q1978.5 11.0023 1992.23 11.0023 Q1997.66 11.0023 2002.44 12.4606 Q2007.26 13.8784 2011.47 16.7545 Z" fill="#000000" fill-rule="nonzero" fill-opacity="1" /><path clip-path="url(#clip210)" d="M2024.11 12.096 L2032.29 12.096 L2032.29 72.576 L2024.11 72.576 L2024.11 12.096 Z" fill="#000000" fill-rule="nonzero" fill-opacity="1" /><polyline clip-path="url(#clip211)" style="stroke:#000000; stroke-linecap:round; stroke-linejoin:round; stroke-width:8; stroke-opacity:1; fill:none" stroke-dasharray="32, 20" points="308.334,1638.11 364.947,1600.49 421.559,1544.74 478.171,1466.23 534.783,1361.58 591.395,1230.42 648.007,1077.17 704.62,911.966 761.232,749.832 817.844,607.656 874.456,500.12 931.068,436.117 987.68,417.463 1044.29,439.986 1100.9,495.505 1157.52,574.376 1214.13,667.573 1270.74,767.281 1327.35,867.646 1383.97,964.52 1440.58,1055.22 1497.19,1138.27 1553.8,1213.07 1610.41,1279.51 1667.03,1337.96 1723.64,1388.98 1780.25,1433.22 1836.86,1471.36 1893.48,1504.12 1950.09,1532.2 2006.7,1556.2 2063.31,1576.67 2119.92,1594.09 2176.54,1608.93 2233.15,1621.55 2289.76,1632.27 2346.37,1641.38 2402.98,1649.12 2459.6,1655.7 2516.21,1661.3 2572.82,1666.06 "/>
<circle clip-path="url(#clip211)" cx="308.334" cy="1648.36" r="10.8" fill="#4682b4" fill-rule="evenodd" fill-opacity="0.4" stroke="#000000" stroke-opacity="0.4" stroke-width="3.84"/>
<circle clip-path="url(#clip211)" cx="364.947" cy="1593.39" r="10.8" fill="#4682b4" fill-rule="evenodd" fill-opacity="0.4" stroke="#000000" stroke-opacity="0.4" stroke-width="3.84"/>
<circle clip-path="url(#clip211)" cx="421.559" cy="1553.63" r="10.8" fill="#4682b4" fill-rule="evenodd" fill-opacity="0.4" stroke="#000000" stroke-opacity="0.4" stroke-width="3.84"/>
<circle clip-path="url(#clip211)" cx="478.171" cy="1475" r="10.8" fill="#4682b4" fill-rule="evenodd" fill-opacity="0.4" stroke="#000000" stroke-opacity="0.4" stroke-width="3.84"/>
<circle clip-path="url(#clip211)" cx="534.783" cy="1338.56" r="10.8" fill="#4682b4" fill-rule="evenodd" fill-opacity="0.4" stroke="#000000" stroke-opacity="0.4" stroke-width="3.84"/>
<circle clip-path="url(#clip211)" cx="591.395" cy="1216.98" r="10.8" fill="#4682b4" fill-rule="evenodd" fill-opacity="0.4" stroke="#000000" stroke-opacity="0.4" stroke-width="3.84"/>
<circle clip-path="url(#clip211)" cx="648.007" cy="1101.41" r="10.8" fill="#4682b4" fill-rule="evenodd" fill-opacity="0.4" stroke="#000000" stroke-opacity="0.4" stroke-width="3.84"/>
<circle clip-path="url(#clip211)" cx="704.62" cy="953.402" r="10.8" fill="#4682b4" fill-rule="evenodd" fill-opacity="0.4" stroke="#000000" stroke-opacity="0.4" stroke-width="3.84"/>
<circle clip-path="url(#clip211)" cx="761.232" cy="809.46" r="10.8" fill="#4682b4" fill-rule="evenodd" fill-opacity="0.4" stroke="#000000" stroke-opacity="0.4" stroke-width="3.84"/>
<circle clip-path="url(#clip211)" cx="817.844" cy="606.421" r="10.8" fill="#4682b4" fill-rule="evenodd" fill-opacity="0.4" stroke="#000000" stroke-opacity="0.4" stroke-width="3.84"/>
<circle clip-path="url(#clip211)" cx="874.456" cy="523.396" r="10.8" fill="#4682b4" fill-rule="evenodd" fill-opacity="0.4" stroke="#000000" stroke-opacity="0.4" stroke-width="3.84"/>
<circle clip-path="url(#clip211)" cx="931.068" cy="412.419" r="10.8" fill="#4682b4" fill-rule="evenodd" fill-opacity="0.4" stroke="#000000" stroke-opacity="0.4" stroke-width="3.84"/>
<circle clip-path="url(#clip211)" cx="987.68" cy="405.227" r="10.8" fill="#4682b4" fill-rule="evenodd" fill-opacity="0.4" stroke="#000000" stroke-opacity="0.4" stroke-width="3.84"/>
<circle clip-path="url(#clip211)" cx="1044.29" cy="451.138" r="10.8" fill="#4682b4" fill-rule="evenodd" fill-opacity="0.4" stroke="#000000" stroke-opacity="0.4" stroke-width="3.84"/>
<circle clip-path="url(#clip211)" cx="1100.9" cy="480.921" r="10.8" fill="#4682b4" fill-rule="evenodd" fill-opacity="0.4" stroke="#000000" stroke-opacity="0.4" stroke-width="3.84"/>
<circle clip-path="url(#clip211)" cx="1157.52" cy="533.562" r="10.8" fill="#4682b4" fill-rule="evenodd" fill-opacity="0.4" stroke="#000000" stroke-opacity="0.4" stroke-width="3.84"/>
<circle clip-path="url(#clip211)" cx="1214.13" cy="670.198" r="10.8" fill="#4682b4" fill-rule="evenodd" fill-opacity="0.4" stroke="#000000" stroke-opacity="0.4" stroke-width="3.84"/>
<circle clip-path="url(#clip211)" cx="1270.74" cy="803.17" r="10.8" fill="#4682b4" fill-rule="evenodd" fill-opacity="0.4" stroke="#000000" stroke-opacity="0.4" stroke-width="3.84"/>
<circle clip-path="url(#clip211)" cx="1327.35" cy="868.787" r="10.8" fill="#4682b4" fill-rule="evenodd" fill-opacity="0.4" stroke="#000000" stroke-opacity="0.4" stroke-width="3.84"/>
<circle clip-path="url(#clip211)" cx="1383.97" cy="967.244" r="10.8" fill="#4682b4" fill-rule="evenodd" fill-opacity="0.4" stroke="#000000" stroke-opacity="0.4" stroke-width="3.84"/>
<circle clip-path="url(#clip211)" cx="1440.58" cy="1094.21" r="10.8" fill="#4682b4" fill-rule="evenodd" fill-opacity="0.4" stroke="#000000" stroke-opacity="0.4" stroke-width="3.84"/>
<circle clip-path="url(#clip211)" cx="1497.19" cy="1179.51" r="10.8" fill="#4682b4" fill-rule="evenodd" fill-opacity="0.4" stroke="#000000" stroke-opacity="0.4" stroke-width="3.84"/>
<circle clip-path="url(#clip211)" cx="1553.8" cy="1176.38" r="10.8" fill="#4682b4" fill-rule="evenodd" fill-opacity="0.4" stroke="#000000" stroke-opacity="0.4" stroke-width="3.84"/>
<circle clip-path="url(#clip211)" cx="1610.41" cy="1215.6" r="10.8" fill="#4682b4" fill-rule="evenodd" fill-opacity="0.4" stroke="#000000" stroke-opacity="0.4" stroke-width="3.84"/>
<circle clip-path="url(#clip211)" cx="1667.03" cy="1295.31" r="10.8" fill="#4682b4" fill-rule="evenodd" fill-opacity="0.4" stroke="#000000" stroke-opacity="0.4" stroke-width="3.84"/>
<circle clip-path="url(#clip211)" cx="1723.64" cy="1370.68" r="10.8" fill="#4682b4" fill-rule="evenodd" fill-opacity="0.4" stroke="#000000" stroke-opacity="0.4" stroke-width="3.84"/>
<circle clip-path="url(#clip211)" cx="1780.25" cy="1407.84" r="10.8" fill="#4682b4" fill-rule="evenodd" fill-opacity="0.4" stroke="#000000" stroke-opacity="0.4" stroke-width="3.84"/>
<circle clip-path="url(#clip211)" cx="1836.86" cy="1463.35" r="10.8" fill="#4682b4" fill-rule="evenodd" fill-opacity="0.4" stroke="#000000" stroke-opacity="0.4" stroke-width="3.84"/>
<circle clip-path="url(#clip211)" cx="1893.48" cy="1472.99" r="10.8" fill="#4682b4" fill-rule="evenodd" fill-opacity="0.4" stroke="#000000" stroke-opacity="0.4" stroke-width="3.84"/>
<circle clip-path="url(#clip211)" cx="1950.09" cy="1513.48" r="10.8" fill="#4682b4" fill-rule="evenodd" fill-opacity="0.4" stroke="#000000" stroke-opacity="0.4" stroke-width="3.84"/>
<circle clip-path="url(#clip211)" cx="2006.7" cy="1551.37" r="10.8" fill="#4682b4" fill-rule="evenodd" fill-opacity="0.4" stroke="#000000" stroke-opacity="0.4" stroke-width="3.84"/>
<circle clip-path="url(#clip211)" cx="2063.31" cy="1545.09" r="10.8" fill="#4682b4" fill-rule="evenodd" fill-opacity="0.4" stroke="#000000" stroke-opacity="0.4" stroke-width="3.84"/>
<circle clip-path="url(#clip211)" cx="2119.92" cy="1539.93" r="10.8" fill="#4682b4" fill-rule="evenodd" fill-opacity="0.4" stroke="#000000" stroke-opacity="0.4" stroke-width="3.84"/>
<circle clip-path="url(#clip211)" cx="2176.54" cy="1586.35" r="10.8" fill="#4682b4" fill-rule="evenodd" fill-opacity="0.4" stroke="#000000" stroke-opacity="0.4" stroke-width="3.84"/>
<circle clip-path="url(#clip211)" cx="2233.15" cy="1632.42" r="10.8" fill="#4682b4" fill-rule="evenodd" fill-opacity="0.4" stroke="#000000" stroke-opacity="0.4" stroke-width="3.84"/>
<circle clip-path="url(#clip211)" cx="2289.76" cy="1644.67" r="10.8" fill="#4682b4" fill-rule="evenodd" fill-opacity="0.4" stroke="#000000" stroke-opacity="0.4" stroke-width="3.84"/>
<circle clip-path="url(#clip211)" cx="2346.37" cy="1623.61" r="10.8" fill="#4682b4" fill-rule="evenodd" fill-opacity="0.4" stroke="#000000" stroke-opacity="0.4" stroke-width="3.84"/>
<circle clip-path="url(#clip211)" cx="2402.98" cy="1651.08" r="10.8" fill="#4682b4" fill-rule="evenodd" fill-opacity="0.4" stroke="#000000" stroke-opacity="0.4" stroke-width="3.84"/>
<circle clip-path="url(#clip211)" cx="2459.6" cy="1677.66" r="10.8" fill="#4682b4" fill-rule="evenodd" fill-opacity="0.4" stroke="#000000" stroke-opacity="0.4" stroke-width="3.84"/>
<circle clip-path="url(#clip211)" cx="2516.21" cy="1686.08" r="10.8" fill="#4682b4" fill-rule="evenodd" fill-opacity="0.4" stroke="#000000" stroke-opacity="0.4" stroke-width="3.84"/>
<circle clip-path="url(#clip211)" cx="2572.82" cy="1671.88" r="10.8" fill="#4682b4" fill-rule="evenodd" fill-opacity="0.4" stroke="#000000" stroke-opacity="0.4" stroke-width="3.84"/>
<polyline clip-path="url(#clip211)" style="stroke:#ff0000; stroke-linecap:round; stroke-linejoin:round; stroke-width:8; stroke-opacity:1; fill:none" points="308.334,1638.11 364.947,1571.24 421.559,1563 478.171,1557.63 534.783,1549.4 591.395,1467.42 648.007,1357.94 704.62,1349 761.232,1301.62 817.844,173.254 874.456,173.26 931.068,173.268 987.68,173.278 1044.29,173.293 1100.9,173.315 1157.52,173.354 1214.13,173.436 1270.74,173.733 1327.35,260.338 1383.97,577.577 1440.58,824.643 1497.19,1017.06 1553.8,1166.91 1610.41,1283.62 1667.03,1374.51 1723.64,1445.29 1780.25,1500.42 1836.86,1543.35 1893.48,1576.79 1950.09,1602.83 2006.7,1623.11 2063.31,1638.91 2119.92,1651.21 2176.54,1660.79 2233.15,1668.25 2289.76,1674.06 2346.37,1678.58 2402.98,1682.11 2459.6,1684.85 2516.21,1686.99 2572.82,1688.65 "/>
<path clip-path="url(#clip211)" d="M308.334 1638.11 L364.947 1637.66 L421.559 1634.78 L478.171 1614.69 L534.783 1592.34 L591.395 1579.83 L648.007 1566.46 L704.62 1550.93 L761.232 1538.02 L817.844 1530.07 L874.456 1526.43 L931.068 1519.13 L987.68 1511.35 L1044.29 1504.38 L1100.9 1501.41 L1157.52 1498.16 L1214.13 1494.49 L1270.74 1490.19 L1327.35 1484.94 L1383.97 1476.62 L1440.58 1469.77 L1497.19 1459.27 L1553.8 1445.66 L1610.41 1429.86 L1667.03 1412.76 L1723.64 1397 L1780.25 1389.38 L1836.86 1383.07 L1893.48 1374.8 L1950.09 1368.58 L2006.7 1354.56 L2063.31 1371.68 L2119.92 1387.07 L2176.54 1399.63 L2233.15 1412.82 L2289.76 1422.24 L2346.37 1437.57 L2402.98 1456.26 L2459.6 1472.79 L2516.21 1491.44 L2572.82 1509.4 L2572.82 1074.37 L2516.21 1011.87 L2459.6 981.873 L2402.98 969.742 L2346.37 965.786 L2289.76 962.901 L2233.15 960.7 L2176.54 958.965 L2119.92 957.56 L2063.31 956.4 L2006.7 955.425 L1950.09 954.823 L1893.48 1026.26 L1836.86 1102.43 L1780.25 1098.18 L1723.64 1102.96 L1667.03 1091.38 L1610.41 1089.33 L1553.8 1103.8 L1497.19 1100.5 L1440.58 1099.34 L1383.97 1106.73 L1327.35 1098.5 L1270.74 1084.36 L1214.13 1071.61 L1157.52 1067.06 L1100.9 1078.42 L1044.29 1090.88 L987.68 1082.4 L931.068 1071.32 L874.456 1062.14 L817.844 1062.01 L761.232 1072.5 L704.62 1075.22 L648.007 1082.98 L591.395 1094.54 L534.783 1113.02 L478.171 1172.29 L421.559 1182.7 L364.947 1209.39 L308.334 1638.11  Z" fill="#008000" fill-rule="evenodd" fill-opacity="0.2"/>
<polyline clip-path="url(#clip211)" style="stroke:#008000; stroke-linecap:round; stroke-linejoin:round; stroke-width:0; stroke-opacity:1; fill:none" stroke-dasharray="1, 2" points="308.334,1638.11 364.947,1637.66 421.559,1634.78 478.171,1614.69 534.783,1592.34 591.395,1579.83 648.007,1566.46 704.62,1550.93 761.232,1538.02 817.844,1530.07 874.456,1526.43 931.068,1519.13 987.68,1511.35 1044.29,1504.38 1100.9,1501.41 1157.52,1498.16 1214.13,1494.49 1270.74,1490.19 1327.35,1484.94 1383.97,1476.62 1440.58,1469.77 1497.19,1459.27 1553.8,1445.66 1610.41,1429.86 1667.03,1412.76 1723.64,1397 1780.25,1389.38 1836.86,1383.07 1893.48,1374.8 1950.09,1368.58 2006.7,1354.56 2063.31,1371.68 2119.92,1387.07 2176.54,1399.63 2233.15,1412.82 2289.76,1422.24 2346.37,1437.57 2402.98,1456.26 2459.6,1472.79 2516.21,1491.44 2572.82,1509.4 "/>
<path clip-path="url(#clip210)" d="M2099.6 440.536 L2560.74 440.536 L2560.74 181.336 L2099.6 181.336  Z" fill="#ffffff" fill-rule="evenodd" fill-opacity="1"/>
<polyline clip-path="url(#clip210)" style="stroke:#000000; stroke-linecap:round; stroke-linejoin:round; stroke-width:4; stroke-opacity:1; fill:none" points="2099.6,440.536 2560.74,440.536 2560.74,181.336 2099.6,181.336 2099.6,440.536 "/>
<polyline clip-path="url(#clip210)" style="stroke:#000000; stroke-linecap:round; stroke-linejoin:round; stroke-width:8; stroke-opacity:1; fill:none" stroke-dasharray="32, 20" points="2126.27,233.176 2286.29,233.176 "/>
<path clip-path="url(#clip210)" d="M2312.96 215.896 L2342.2 215.896 L2342.2 219.831 L2329.93 219.831 L2329.93 250.456 L2325.23 250.456 L2325.23 219.831 L2312.96 219.831 L2312.96 215.896 Z" fill="#000000" fill-rule="nonzero" fill-opacity="1" /><path clip-path="url(#clip210)" d="M2354.58 228.512 Q2353.87 228.095 2353.01 227.91 Q2352.18 227.702 2351.16 227.702 Q2347.55 227.702 2345.6 230.063 Q2343.68 232.401 2343.68 236.799 L2343.68 250.456 L2339.4 250.456 L2339.4 224.531 L2343.68 224.531 L2343.68 228.558 Q2345.02 226.197 2347.18 225.063 Q2349.33 223.906 2352.41 223.906 Q2352.85 223.906 2353.38 223.975 Q2353.91 224.021 2354.56 224.137 L2354.58 228.512 Z" fill="#000000" fill-rule="nonzero" fill-opacity="1" /><path clip-path="url(#clip210)" d="M2358.61 240.225 L2358.61 224.531 L2362.87 224.531 L2362.87 240.063 Q2362.87 243.743 2364.31 245.595 Q2365.74 247.424 2368.61 247.424 Q2372.06 247.424 2374.05 245.225 Q2376.06 243.026 2376.06 239.229 L2376.06 224.531 L2380.32 224.531 L2380.32 250.456 L2376.06 250.456 L2376.06 246.475 Q2374.51 248.836 2372.45 249.993 Q2370.42 251.128 2367.71 251.128 Q2363.24 251.128 2360.93 248.35 Q2358.61 245.572 2358.61 240.225 M2369.33 223.906 L2369.33 223.906 Z" fill="#000000" fill-rule="nonzero" fill-opacity="1" /><path clip-path="url(#clip210)" d="M2411.27 236.429 L2411.27 238.512 L2391.69 238.512 Q2391.97 242.91 2394.33 245.225 Q2396.71 247.516 2400.95 247.516 Q2403.4 247.516 2405.69 246.915 Q2408.01 246.313 2410.28 245.109 L2410.28 249.137 Q2407.99 250.109 2405.58 250.618 Q2403.17 251.128 2400.69 251.128 Q2394.49 251.128 2390.86 247.516 Q2387.25 243.905 2387.25 237.748 Q2387.25 231.382 2390.67 227.655 Q2394.12 223.906 2399.95 223.906 Q2405.19 223.906 2408.22 227.285 Q2411.27 230.642 2411.27 236.429 M2407.01 235.179 Q2406.97 231.683 2405.05 229.6 Q2403.15 227.517 2400 227.517 Q2396.44 227.517 2394.28 229.53 Q2392.15 231.544 2391.83 235.202 L2407.01 235.179 Z" fill="#000000" fill-rule="nonzero" fill-opacity="1" /><path clip-path="url(#clip210)" d="M2433.52 215.896 L2438.19 215.896 L2438.19 250.456 L2433.52 250.456 L2433.52 215.896 Z" fill="#000000" fill-rule="nonzero" fill-opacity="1" /><path clip-path="url(#clip210)" d="M2457.55 214.484 Q2454.44 219.808 2452.94 225.017 Q2451.43 230.225 2451.43 235.572 Q2451.43 240.919 2452.94 246.174 Q2454.47 251.405 2457.55 256.706 L2453.84 256.706 Q2450.37 251.266 2448.63 246.012 Q2446.92 240.757 2446.92 235.572 Q2446.92 230.41 2448.63 225.179 Q2450.35 219.947 2453.84 214.484 L2457.55 214.484 Z" fill="#000000" fill-rule="nonzero" fill-opacity="1" /><path clip-path="url(#clip210)" d="M2470.02 217.169 L2470.02 224.531 L2478.8 224.531 L2478.8 227.841 L2470.02 227.841 L2470.02 241.915 Q2470.02 245.086 2470.88 245.989 Q2471.76 246.891 2474.42 246.891 L2478.8 246.891 L2478.8 250.456 L2474.42 250.456 Q2469.49 250.456 2467.62 248.628 Q2465.74 246.776 2465.74 241.915 L2465.74 227.841 L2462.62 227.841 L2462.62 224.531 L2465.74 224.531 L2465.74 217.169 L2470.02 217.169 Z" fill="#000000" fill-rule="nonzero" fill-opacity="1" /><path clip-path="url(#clip210)" d="M2483.73 214.484 L2487.43 214.484 Q2490.9 219.947 2492.62 225.179 Q2494.35 230.41 2494.35 235.572 Q2494.35 240.757 2492.62 246.012 Q2490.9 251.266 2487.43 256.706 L2483.73 256.706 Q2486.81 251.405 2488.31 246.174 Q2489.84 240.919 2489.84 235.572 Q2489.84 230.225 2488.31 225.017 Q2486.81 219.808 2483.73 214.484 Z" fill="#000000" fill-rule="nonzero" fill-opacity="1" /><circle clip-path="url(#clip210)" cx="2206.28" cy="285.016" r="19.7486" fill="#4682b4" fill-rule="evenodd" fill-opacity="0.4" stroke="#000000" stroke-opacity="0.4" stroke-width="7.02171"/>
<path clip-path="url(#clip210)" d="M2328.98 270.908 Q2323.89 270.908 2320.88 274.704 Q2317.89 278.5 2317.89 285.051 Q2317.89 291.579 2320.88 295.375 Q2323.89 299.171 2328.98 299.171 Q2334.07 299.171 2337.04 295.375 Q2340.02 291.579 2340.02 285.051 Q2340.02 278.5 2337.04 274.704 Q2334.07 270.908 2328.98 270.908 M2328.98 267.111 Q2336.25 267.111 2340.6 271.996 Q2344.95 276.857 2344.95 285.051 Q2344.95 293.222 2340.6 298.106 Q2336.25 302.968 2328.98 302.968 Q2321.69 302.968 2317.32 298.106 Q2312.96 293.245 2312.96 285.051 Q2312.96 276.857 2317.32 271.996 Q2321.69 267.111 2328.98 267.111 Z" fill="#000000" fill-rule="nonzero" fill-opacity="1" /><path clip-path="url(#clip210)" d="M2370.69 289.357 Q2370.69 284.657 2368.75 281.995 Q2366.83 279.31 2363.45 279.31 Q2360.07 279.31 2358.13 281.995 Q2356.2 284.657 2356.2 289.357 Q2356.2 294.056 2358.13 296.741 Q2360.07 299.403 2363.45 299.403 Q2366.83 299.403 2368.75 296.741 Q2370.69 294.056 2370.69 289.357 M2356.2 280.306 Q2357.55 277.991 2359.58 276.88 Q2361.64 275.746 2364.49 275.746 Q2369.21 275.746 2372.15 279.495 Q2375.12 283.245 2375.12 289.357 Q2375.12 295.468 2372.15 299.218 Q2369.21 302.968 2364.49 302.968 Q2361.64 302.968 2359.58 301.856 Q2357.55 300.722 2356.2 298.407 L2356.2 302.296 L2351.92 302.296 L2351.92 266.278 L2356.2 266.278 L2356.2 280.306 Z" fill="#000000" fill-rule="nonzero" fill-opacity="1" /><path clip-path="url(#clip210)" d="M2398.7 277.134 L2398.7 281.162 Q2396.9 280.236 2394.95 279.773 Q2393.01 279.31 2390.93 279.31 Q2387.75 279.31 2386.16 280.283 Q2384.58 281.255 2384.58 283.199 Q2384.58 284.681 2385.72 285.537 Q2386.85 286.37 2390.28 287.134 L2391.74 287.458 Q2396.27 288.431 2398.17 290.213 Q2400.09 291.972 2400.09 295.144 Q2400.09 298.755 2397.22 300.861 Q2394.38 302.968 2389.38 302.968 Q2387.29 302.968 2385.02 302.551 Q2382.78 302.157 2380.28 301.347 L2380.28 296.949 Q2382.64 298.176 2384.93 298.801 Q2387.22 299.403 2389.47 299.403 Q2392.48 299.403 2394.1 298.384 Q2395.72 297.343 2395.72 295.468 Q2395.72 293.732 2394.54 292.806 Q2393.38 291.88 2389.42 291.023 L2387.94 290.676 Q2383.98 289.843 2382.22 288.13 Q2380.46 286.394 2380.46 283.384 Q2380.46 279.727 2383.06 277.736 Q2385.65 275.746 2390.42 275.746 Q2392.78 275.746 2394.86 276.093 Q2396.94 276.44 2398.7 277.134 Z" fill="#000000" fill-rule="nonzero" fill-opacity="1" /><path clip-path="url(#clip210)" d="M2429.05 288.269 L2429.05 290.352 L2409.47 290.352 Q2409.75 294.75 2412.11 297.065 Q2414.49 299.356 2418.73 299.356 Q2421.18 299.356 2423.47 298.755 Q2425.79 298.153 2428.06 296.949 L2428.06 300.977 Q2425.76 301.949 2423.36 302.458 Q2420.95 302.968 2418.47 302.968 Q2412.27 302.968 2408.63 299.356 Q2405.02 295.745 2405.02 289.588 Q2405.02 283.222 2408.45 279.495 Q2411.9 275.746 2417.73 275.746 Q2422.96 275.746 2426 279.125 Q2429.05 282.482 2429.05 288.269 M2424.79 287.019 Q2424.75 283.523 2422.82 281.44 Q2420.93 279.357 2417.78 279.357 Q2414.21 279.357 2412.06 281.37 Q2409.93 283.384 2409.61 287.042 L2424.79 287.019 Z" fill="#000000" fill-rule="nonzero" fill-opacity="1" /><path clip-path="url(#clip210)" d="M2451.06 280.352 Q2450.35 279.935 2449.49 279.75 Q2448.66 279.542 2447.64 279.542 Q2444.03 279.542 2442.08 281.903 Q2440.16 284.241 2440.16 288.639 L2440.16 302.296 L2435.88 302.296 L2435.88 276.371 L2440.16 276.371 L2440.16 280.398 Q2441.5 278.037 2443.66 276.903 Q2445.81 275.746 2448.89 275.746 Q2449.33 275.746 2449.86 275.815 Q2450.39 275.861 2451.04 275.977 L2451.06 280.352 Z" fill="#000000" fill-rule="nonzero" fill-opacity="1" /><path clip-path="url(#clip210)" d="M2452.48 276.371 L2456.99 276.371 L2465.09 298.13 L2473.19 276.371 L2477.71 276.371 L2467.99 302.296 L2462.2 302.296 L2452.48 276.371 Z" fill="#000000" fill-rule="nonzero" fill-opacity="1" /><path clip-path="url(#clip210)" d="M2505.76 288.269 L2505.76 290.352 L2486.18 290.352 Q2486.46 294.75 2488.82 297.065 Q2491.2 299.356 2495.44 299.356 Q2497.89 299.356 2500.18 298.755 Q2502.5 298.153 2504.77 296.949 L2504.77 300.977 Q2502.48 301.949 2500.07 302.458 Q2497.66 302.968 2495.18 302.968 Q2488.98 302.968 2485.35 299.356 Q2481.74 295.745 2481.74 289.588 Q2481.74 283.222 2485.16 279.495 Q2488.61 275.746 2494.44 275.746 Q2499.68 275.746 2502.71 279.125 Q2505.76 282.482 2505.76 288.269 M2501.5 287.019 Q2501.46 283.523 2499.54 281.44 Q2497.64 279.357 2494.49 279.357 Q2490.93 279.357 2488.77 281.37 Q2486.64 283.384 2486.32 287.042 L2501.5 287.019 Z" fill="#000000" fill-rule="nonzero" fill-opacity="1" /><path clip-path="url(#clip210)" d="M2529.81 280.306 L2529.81 266.278 L2534.07 266.278 L2534.07 302.296 L2529.81 302.296 L2529.81 298.407 Q2528.47 300.722 2526.41 301.856 Q2524.37 302.968 2521.5 302.968 Q2516.8 302.968 2513.84 299.218 Q2510.9 295.468 2510.9 289.357 Q2510.9 283.245 2513.84 279.495 Q2516.8 275.746 2521.5 275.746 Q2524.37 275.746 2526.41 276.88 Q2528.47 277.991 2529.81 280.306 M2515.3 289.357 Q2515.3 294.056 2517.22 296.741 Q2519.17 299.403 2522.55 299.403 Q2525.93 299.403 2527.87 296.741 Q2529.81 294.056 2529.81 289.357 Q2529.81 284.657 2527.87 281.995 Q2525.93 279.31 2522.55 279.31 Q2519.17 279.31 2517.22 281.995 Q2515.3 284.657 2515.3 289.357 Z" fill="#000000" fill-rule="nonzero" fill-opacity="1" /><polyline clip-path="url(#clip210)" style="stroke:#ff0000; stroke-linecap:round; stroke-linejoin:round; stroke-width:8; stroke-opacity:1; fill:none" points="2126.27,336.856 2286.29,336.856 "/>
<path clip-path="url(#clip210)" d="M2317.64 323.419 L2317.64 336.405 L2323.52 336.405 Q2326.78 336.405 2328.57 334.715 Q2330.35 333.025 2330.35 329.9 Q2330.35 326.798 2328.57 325.109 Q2326.78 323.419 2323.52 323.419 L2317.64 323.419 M2312.96 319.576 L2323.52 319.576 Q2329.33 319.576 2332.29 322.215 Q2335.28 324.831 2335.28 329.9 Q2335.28 335.016 2332.29 337.632 Q2329.33 340.247 2323.52 340.247 L2317.64 340.247 L2317.64 354.136 L2312.96 354.136 L2312.96 319.576 Z" fill="#000000" fill-rule="nonzero" fill-opacity="1" /><path clip-path="url(#clip210)" d="M2362.27 320.711 L2362.27 325.271 Q2359.61 323.998 2357.25 323.373 Q2354.88 322.748 2352.69 322.748 Q2348.87 322.748 2346.78 324.229 Q2344.72 325.711 2344.72 328.442 Q2344.72 330.734 2346.09 331.914 Q2347.48 333.072 2351.32 333.789 L2354.14 334.368 Q2359.38 335.363 2361.85 337.886 Q2364.35 340.386 2364.35 344.599 Q2364.35 349.622 2360.97 352.215 Q2357.62 354.808 2351.11 354.808 Q2348.66 354.808 2345.88 354.252 Q2343.13 353.696 2340.16 352.609 L2340.16 347.794 Q2343.01 349.391 2345.74 350.201 Q2348.47 351.011 2351.11 351.011 Q2355.12 351.011 2357.29 349.437 Q2359.47 347.863 2359.47 344.947 Q2359.47 342.4 2357.89 340.965 Q2356.34 339.53 2352.78 338.812 L2349.93 338.257 Q2344.7 337.215 2342.36 334.993 Q2340.02 332.771 2340.02 328.812 Q2340.02 324.229 2343.24 321.59 Q2346.48 318.951 2352.15 318.951 Q2354.58 318.951 2357.11 319.391 Q2359.63 319.831 2362.27 320.711 Z" fill="#000000" fill-rule="nonzero" fill-opacity="1" /><path clip-path="url(#clip210)" d="M2371.64 319.576 L2378.61 319.576 L2387.43 343.095 L2396.3 319.576 L2403.26 319.576 L2403.26 354.136 L2398.7 354.136 L2398.7 323.789 L2389.79 347.493 L2385.09 347.493 L2376.18 323.789 L2376.18 354.136 L2371.64 354.136 L2371.64 319.576 Z" fill="#000000" fill-rule="nonzero" fill-opacity="1" /><path clip-path="url(#clip210)" d="M2440.56 318.118 L2440.56 321.66 L2436.48 321.66 Q2434.19 321.66 2433.29 322.586 Q2432.41 323.511 2432.41 325.919 L2432.41 328.211 L2439.42 328.211 L2439.42 331.521 L2432.41 331.521 L2432.41 354.136 L2428.12 354.136 L2428.12 331.521 L2424.05 331.521 L2424.05 328.211 L2428.12 328.211 L2428.12 326.405 Q2428.12 322.076 2430.14 320.109 Q2432.15 318.118 2436.53 318.118 L2440.56 318.118 Z" fill="#000000" fill-rule="nonzero" fill-opacity="1" /><path clip-path="url(#clip210)" d="M2444.12 328.211 L2448.38 328.211 L2448.38 354.136 L2444.12 354.136 L2444.12 328.211 M2444.12 318.118 L2448.38 318.118 L2448.38 323.511 L2444.12 323.511 L2444.12 318.118 Z" fill="#000000" fill-rule="nonzero" fill-opacity="1" /><path clip-path="url(#clip210)" d="M2461.5 320.849 L2461.5 328.211 L2470.28 328.211 L2470.28 331.521 L2461.5 331.521 L2461.5 345.595 Q2461.5 348.766 2462.36 349.669 Q2463.24 350.571 2465.9 350.571 L2470.28 350.571 L2470.28 354.136 L2465.9 354.136 Q2460.97 354.136 2459.1 352.308 Q2457.22 350.456 2457.22 345.595 L2457.22 331.521 L2454.1 331.521 L2454.1 328.211 L2457.22 328.211 L2457.22 320.849 L2461.5 320.849 Z" fill="#000000" fill-rule="nonzero" fill-opacity="1" /><path clip-path="url(#clip210)" d="M2126.27 409.432 L2286.29 409.432 L2286.29 367.96 L2126.27 367.96 L2126.27 409.432  Z" fill="#008000" fill-rule="evenodd" fill-opacity="0.2"/>
<polyline clip-path="url(#clip210)" style="stroke:#008000; stroke-linecap:round; stroke-linejoin:round; stroke-width:0.8; stroke-opacity:1; fill:none" stroke-dasharray="1, 2" points="2126.27,367.96 2286.29,367.96 "/>
<path clip-path="url(#clip210)" d="M2315.19 405.259 L2315.19 400.999 Q2316.94 401.833 2318.75 402.273 Q2320.56 402.712 2322.29 402.712 Q2326.92 402.712 2329.35 399.611 Q2331.81 396.486 2332.15 390.143 Q2330.81 392.134 2328.75 393.199 Q2326.69 394.263 2324.19 394.263 Q2319.01 394.263 2315.97 391.138 Q2312.96 387.99 2312.96 382.55 Q2312.96 377.226 2316.11 374.009 Q2319.26 370.791 2324.49 370.791 Q2330.49 370.791 2333.63 375.398 Q2336.81 379.981 2336.81 388.731 Q2336.81 396.902 2332.92 401.786 Q2329.05 406.648 2322.5 406.648 Q2320.74 406.648 2318.94 406.3 Q2317.13 405.953 2315.19 405.259 M2324.49 390.606 Q2327.64 390.606 2329.47 388.453 Q2331.32 386.3 2331.32 382.55 Q2331.32 378.824 2329.47 376.671 Q2327.64 374.495 2324.49 374.495 Q2321.34 374.495 2319.49 376.671 Q2317.66 378.824 2317.66 382.55 Q2317.66 386.3 2319.49 388.453 Q2321.34 390.606 2324.49 390.606 Z" fill="#000000" fill-rule="nonzero" fill-opacity="1" /><path clip-path="url(#clip210)" d="M2345.25 371.416 L2363.61 371.416 L2363.61 375.351 L2349.54 375.351 L2349.54 383.824 Q2350.56 383.476 2351.57 383.314 Q2352.59 383.129 2353.61 383.129 Q2359.4 383.129 2362.78 386.3 Q2366.16 389.472 2366.16 394.888 Q2366.16 400.467 2362.69 403.569 Q2359.21 406.648 2352.89 406.648 Q2350.72 406.648 2348.45 406.277 Q2346.2 405.907 2343.8 405.166 L2343.8 400.467 Q2345.88 401.601 2348.1 402.157 Q2350.32 402.712 2352.8 402.712 Q2356.81 402.712 2359.14 400.606 Q2361.48 398.499 2361.48 394.888 Q2361.48 391.277 2359.14 389.171 Q2356.81 387.064 2352.8 387.064 Q2350.93 387.064 2349.05 387.481 Q2347.2 387.898 2345.25 388.777 L2345.25 371.416 Z" fill="#000000" fill-rule="nonzero" fill-opacity="1" /><path clip-path="url(#clip210)" d="M2404.77 390.768 Q2402.75 390.768 2401.6 392.481 Q2400.46 394.194 2400.46 397.249 Q2400.46 400.259 2401.6 401.995 Q2402.75 403.708 2404.77 403.708 Q2406.74 403.708 2407.87 401.995 Q2409.03 400.259 2409.03 397.249 Q2409.03 394.217 2407.87 392.504 Q2406.74 390.768 2404.77 390.768 M2404.77 387.828 Q2408.43 387.828 2410.58 390.375 Q2412.73 392.921 2412.73 397.249 Q2412.73 401.578 2410.56 404.124 Q2408.4 406.648 2404.77 406.648 Q2401.06 406.648 2398.91 404.124 Q2396.76 401.578 2396.76 397.249 Q2396.76 392.898 2398.91 390.375 Q2401.09 387.828 2404.77 387.828 M2380.88 373.731 Q2378.89 373.731 2377.73 375.467 Q2376.6 377.18 2376.6 380.189 Q2376.6 383.245 2377.73 384.958 Q2378.87 386.671 2380.88 386.671 Q2382.89 386.671 2384.03 384.958 Q2385.19 383.245 2385.19 380.189 Q2385.19 377.203 2384.03 375.467 Q2382.87 373.731 2380.88 373.731 M2401.78 370.791 L2405.49 370.791 L2383.87 406.648 L2380.16 406.648 L2401.78 370.791 M2380.88 370.791 Q2384.54 370.791 2386.71 373.338 Q2388.89 375.861 2388.89 380.189 Q2388.89 384.564 2386.71 387.088 Q2384.56 389.611 2380.88 389.611 Q2377.2 389.611 2375.05 387.088 Q2372.92 384.541 2372.92 380.189 Q2372.92 375.884 2375.07 373.338 Q2377.22 370.791 2380.88 370.791 Z" fill="#000000" fill-rule="nonzero" fill-opacity="1" /><path clip-path="url(#clip210)" d="M2460.95 374.078 L2460.95 379.009 Q2458.59 376.81 2455.9 375.722 Q2453.24 374.634 2450.23 374.634 Q2444.31 374.634 2441.16 378.268 Q2438.01 381.879 2438.01 388.731 Q2438.01 395.56 2441.16 399.194 Q2444.31 402.805 2450.23 402.805 Q2453.24 402.805 2455.9 401.717 Q2458.59 400.629 2460.95 398.43 L2460.95 403.314 Q2458.5 404.981 2455.74 405.814 Q2453.01 406.648 2449.95 406.648 Q2442.11 406.648 2437.59 401.856 Q2433.08 397.041 2433.08 388.731 Q2433.08 380.398 2437.59 375.606 Q2442.11 370.791 2449.95 370.791 Q2453.06 370.791 2455.79 371.625 Q2458.54 372.435 2460.95 374.078 Z" fill="#000000" fill-rule="nonzero" fill-opacity="1" /><path clip-path="url(#clip210)" d="M2468.17 371.416 L2472.85 371.416 L2472.85 405.976 L2468.17 405.976 L2468.17 371.416 Z" fill="#000000" fill-rule="nonzero" fill-opacity="1" /></svg>
