<?xml version="1.0" encoding="utf-8"?>
<svg xmlns="http://www.w3.org/2000/svg" xmlns:xlink="http://www.w3.org/1999/xlink" width="672" height="480" viewBox="0 0 2688 1920">
<defs>
  <clipPath id="clip960">
    <rect x="0" y="0" width="2688" height="1920"/>
  </clipPath>
</defs>
<path clip-path="url(#clip960)" d="M0 1920 L2688 1920 L2688 -4.26326e-14 L0 -4.26326e-14  Z" fill="#ffffff" fill-rule="evenodd" fill-opacity="1"/>
<defs>
  <clipPath id="clip961">
    <rect x="255" y="127" width="2386" height="1607"/>
  </clipPath>
</defs>
<path clip-path="url(#clip960)" d="M255.816 1734.12 L2640.76 1734.12 L2640.76 127.792 L255.816 127.792  Z" fill="#ffffff" fill-rule="evenodd" fill-opacity="1"/>
<polyline clip-path="url(#clip961)" style="stroke:#000000; stroke-linecap:round; stroke-linejoin:round; stroke-width:2; stroke-opacity:0.1; fill:none" points="323.315,1734.12 323.315,127.792 "/>
<polyline clip-path="url(#clip961)" style="stroke:#000000; stroke-linecap:round; stroke-linejoin:round; stroke-width:2; stroke-opacity:0.1; fill:none" points="736.907,1734.12 736.907,127.792 "/>
<polyline clip-path="url(#clip961)" style="stroke:#000000; stroke-linecap:round; stroke-linejoin:round; stroke-width:2; stroke-opacity:0.1; fill:none" points="1150.5,1734.12 1150.5,127.792 "/>
<polyline clip-path="url(#clip961)" style="stroke:#000000; stroke-linecap:round; stroke-linejoin:round; stroke-width:2; stroke-opacity:0.1; fill:none" points="1564.09,1734.12 1564.09,127.792 "/>
<polyline clip-path="url(#clip961)" style="stroke:#000000; stroke-linecap:round; stroke-linejoin:round; stroke-width:2; stroke-opacity:0.1; fill:none" points="1977.68,1734.12 1977.68,127.792 "/>
<polyline clip-path="url(#clip961)" style="stroke:#000000; stroke-linecap:round; stroke-linejoin:round; stroke-width:2; stroke-opacity:0.1; fill:none" points="2391.28,1734.12 2391.28,127.792 "/>
<polyline clip-path="url(#clip961)" style="stroke:#000000; stroke-linecap:round; stroke-linejoin:round; stroke-width:2; stroke-opacity:0.1; fill:none" points="255.816,1727.58 2640.76,1727.58 "/>
<polyline clip-path="url(#clip961)" style="stroke:#000000; stroke-linecap:round; stroke-linejoin:round; stroke-width:2; stroke-opacity:0.1; fill:none" points="255.816,1269.29 2640.76,1269.29 "/>
<polyline clip-path="url(#clip961)" style="stroke:#000000; stroke-linecap:round; stroke-linejoin:round; stroke-width:2; stroke-opacity:0.1; fill:none" points="255.816,811.007 2640.76,811.007 "/>
<polyline clip-path="url(#clip961)" style="stroke:#000000; stroke-linecap:round; stroke-linejoin:round; stroke-width:2; stroke-opacity:0.1; fill:none" points="255.816,352.721 2640.76,352.721 "/>
<polyline clip-path="url(#clip960)" style="stroke:#000000; stroke-linecap:round; stroke-linejoin:round; stroke-width:4; stroke-opacity:1; fill:none" points="255.816,1734.12 2640.76,1734.12 "/>
<polyline clip-path="url(#clip960)" style="stroke:#000000; stroke-linecap:round; stroke-linejoin:round; stroke-width:4; stroke-opacity:1; fill:none" points="323.315,1734.12 323.315,1715.22 "/>
<polyline clip-path="url(#clip960)" style="stroke:#000000; stroke-linecap:round; stroke-linejoin:round; stroke-width:4; stroke-opacity:1; fill:none" points="736.907,1734.12 736.907,1715.22 "/>
<polyline clip-path="url(#clip960)" style="stroke:#000000; stroke-linecap:round; stroke-linejoin:round; stroke-width:4; stroke-opacity:1; fill:none" points="1150.5,1734.12 1150.5,1715.22 "/>
<polyline clip-path="url(#clip960)" style="stroke:#000000; stroke-linecap:round; stroke-linejoin:round; stroke-width:4; stroke-opacity:1; fill:none" points="1564.09,1734.12 1564.09,1715.22 "/>
<polyline clip-path="url(#clip960)" style="stroke:#000000; stroke-linecap:round; stroke-linejoin:round; stroke-width:4; stroke-opacity:1; fill:none" points="1977.68,1734.12 1977.68,1715.22 "/>
<polyline clip-path="url(#clip960)" style="stroke:#000000; stroke-linecap:round; stroke-linejoin:round; stroke-width:4; stroke-opacity:1; fill:none" points="2391.28,1734.12 2391.28,1715.22 "/>
<path clip-path="url(#clip960)" d="M285.618 1767.34 Q282.007 1767.34 280.178 1770.9 Q278.373 1774.45 278.373 1781.58 Q278.373 1788.68 280.178 1792.25 Q282.007 1795.79 285.618 1795.79 Q289.252 1795.79 291.058 1792.25 Q292.887 1788.68 292.887 1781.58 Q292.887 1774.45 291.058 1770.9 Q289.252 1767.34 285.618 1767.34 M285.618 1763.64 Q291.428 1763.64 294.484 1768.24 Q297.562 1772.83 297.562 1781.58 Q297.562 1790.3 294.484 1794.91 Q291.428 1799.49 285.618 1799.49 Q279.808 1799.49 276.729 1794.91 Q273.674 1790.3 273.674 1781.58 Q273.674 1772.83 276.729 1768.24 Q279.808 1763.64 285.618 1763.64 Z" fill="#000000" fill-rule="nonzero" fill-opacity="1" /><path clip-path="url(#clip960)" d="M305.78 1792.94 L310.664 1792.94 L310.664 1798.82 L305.78 1798.82 L305.78 1792.94 Z" fill="#000000" fill-rule="nonzero" fill-opacity="1" /><path clip-path="url(#clip960)" d="M330.849 1767.34 Q327.238 1767.34 325.41 1770.9 Q323.604 1774.45 323.604 1781.58 Q323.604 1788.68 325.41 1792.25 Q327.238 1795.79 330.849 1795.79 Q334.484 1795.79 336.289 1792.25 Q338.118 1788.68 338.118 1781.58 Q338.118 1774.45 336.289 1770.9 Q334.484 1767.34 330.849 1767.34 M330.849 1763.64 Q336.659 1763.64 339.715 1768.24 Q342.794 1772.83 342.794 1781.58 Q342.794 1790.3 339.715 1794.91 Q336.659 1799.49 330.849 1799.49 Q325.039 1799.49 321.96 1794.91 Q318.905 1790.3 318.905 1781.58 Q318.905 1772.83 321.96 1768.24 Q325.039 1763.64 330.849 1763.64 Z" fill="#000000" fill-rule="nonzero" fill-opacity="1" /><path clip-path="url(#clip960)" d="M361.011 1767.34 Q357.4 1767.34 355.571 1770.9 Q353.766 1774.45 353.766 1781.58 Q353.766 1788.68 355.571 1792.25 Q357.4 1795.79 361.011 1795.79 Q364.645 1795.79 366.451 1792.25 Q368.28 1788.68 368.28 1781.58 Q368.28 1774.45 366.451 1770.9 Q364.645 1767.34 361.011 1767.34 M361.011 1763.64 Q366.821 1763.64 369.877 1768.24 Q372.956 1772.83 372.956 1781.58 Q372.956 1790.3 369.877 1794.91 Q366.821 1799.49 361.011 1799.49 Q355.201 1799.49 352.122 1794.91 Q349.067 1790.3 349.067 1781.58 Q349.067 1772.83 352.122 1768.24 Q355.201 1763.64 361.011 1763.64 Z" fill="#000000" fill-rule="nonzero" fill-opacity="1" /><path clip-path="url(#clip960)" d="M699.708 1767.34 Q696.097 1767.34 694.268 1770.9 Q692.463 1774.45 692.463 1781.58 Q692.463 1788.68 694.268 1792.25 Q696.097 1795.79 699.708 1795.79 Q703.342 1795.79 705.148 1792.25 Q706.977 1788.68 706.977 1781.58 Q706.977 1774.45 705.148 1770.9 Q703.342 1767.34 699.708 1767.34 M699.708 1763.64 Q705.518 1763.64 708.574 1768.24 Q711.653 1772.83 711.653 1781.58 Q711.653 1790.3 708.574 1794.91 Q705.518 1799.49 699.708 1799.49 Q693.898 1799.49 690.819 1794.91 Q687.764 1790.3 687.764 1781.58 Q687.764 1772.83 690.819 1768.24 Q693.898 1763.64 699.708 1763.64 Z" fill="#000000" fill-rule="nonzero" fill-opacity="1" /><path clip-path="url(#clip960)" d="M719.87 1792.94 L724.754 1792.94 L724.754 1798.82 L719.87 1798.82 L719.87 1792.94 Z" fill="#000000" fill-rule="nonzero" fill-opacity="1" /><path clip-path="url(#clip960)" d="M744.939 1767.34 Q741.328 1767.34 739.5 1770.9 Q737.694 1774.45 737.694 1781.58 Q737.694 1788.68 739.5 1792.25 Q741.328 1795.79 744.939 1795.79 Q748.574 1795.79 750.379 1792.25 Q752.208 1788.68 752.208 1781.58 Q752.208 1774.45 750.379 1770.9 Q748.574 1767.34 744.939 1767.34 M744.939 1763.64 Q750.75 1763.64 753.805 1768.24 Q756.884 1772.83 756.884 1781.58 Q756.884 1790.3 753.805 1794.91 Q750.75 1799.49 744.939 1799.49 Q739.129 1799.49 736.051 1794.91 Q732.995 1790.3 732.995 1781.58 Q732.995 1772.83 736.051 1768.24 Q739.129 1763.64 744.939 1763.64 Z" fill="#000000" fill-rule="nonzero" fill-opacity="1" /><path clip-path="url(#clip960)" d="M765.148 1764.26 L783.504 1764.26 L783.504 1768.2 L769.43 1768.2 L769.43 1776.67 Q770.449 1776.32 771.467 1776.16 Q772.486 1775.97 773.504 1775.97 Q779.291 1775.97 782.671 1779.15 Q786.05 1782.32 786.05 1787.73 Q786.05 1793.31 782.578 1796.41 Q779.106 1799.49 772.787 1799.49 Q770.611 1799.49 768.342 1799.12 Q766.097 1798.75 763.689 1798.01 L763.689 1793.31 Q765.773 1794.45 767.995 1795 Q770.217 1795.56 772.694 1795.56 Q776.699 1795.56 779.036 1793.45 Q781.374 1791.34 781.374 1787.73 Q781.374 1784.12 779.036 1782.02 Q776.699 1779.91 772.694 1779.91 Q770.819 1779.91 768.944 1780.33 Q767.092 1780.74 765.148 1781.62 L765.148 1764.26 Z" fill="#000000" fill-rule="nonzero" fill-opacity="1" /><path clip-path="url(#clip960)" d="M1112.8 1767.34 Q1109.19 1767.34 1107.36 1770.9 Q1105.56 1774.45 1105.56 1781.58 Q1105.56 1788.68 1107.36 1792.25 Q1109.19 1795.79 1112.8 1795.79 Q1116.44 1795.79 1118.24 1792.25 Q1120.07 1788.68 1120.07 1781.58 Q1120.07 1774.45 1118.24 1770.9 Q1116.44 1767.34 1112.8 1767.34 M1112.8 1763.64 Q1118.61 1763.64 1121.67 1768.24 Q1124.75 1772.83 1124.75 1781.58 Q1124.75 1790.3 1121.67 1794.91 Q1118.61 1799.49 1112.8 1799.49 Q1106.99 1799.49 1103.91 1794.91 Q1100.86 1790.3 1100.86 1781.58 Q1100.86 1772.83 1103.91 1768.24 Q1106.99 1763.64 1112.8 1763.64 Z" fill="#000000" fill-rule="nonzero" fill-opacity="1" /><path clip-path="url(#clip960)" d="M1132.96 1792.94 L1137.85 1792.94 L1137.85 1798.82 L1132.96 1798.82 L1132.96 1792.94 Z" fill="#000000" fill-rule="nonzero" fill-opacity="1" /><path clip-path="url(#clip960)" d="M1148.84 1794.89 L1156.48 1794.89 L1156.48 1768.52 L1148.17 1770.19 L1148.17 1765.93 L1156.44 1764.26 L1161.11 1764.26 L1161.11 1794.89 L1168.75 1794.89 L1168.75 1798.82 L1148.84 1798.82 L1148.84 1794.89 Z" fill="#000000" fill-rule="nonzero" fill-opacity="1" /><path clip-path="url(#clip960)" d="M1188.2 1767.34 Q1184.59 1767.34 1182.76 1770.9 Q1180.95 1774.45 1180.95 1781.58 Q1180.95 1788.68 1182.76 1792.25 Q1184.59 1795.79 1188.2 1795.79 Q1191.83 1795.79 1193.64 1792.25 Q1195.46 1788.68 1195.46 1781.58 Q1195.46 1774.45 1193.64 1770.9 Q1191.83 1767.34 1188.2 1767.34 M1188.2 1763.64 Q1194.01 1763.64 1197.06 1768.24 Q1200.14 1772.83 1200.14 1781.58 Q1200.14 1790.3 1197.06 1794.91 Q1194.01 1799.49 1188.2 1799.49 Q1182.39 1799.49 1179.31 1794.91 Q1176.25 1790.3 1176.25 1781.58 Q1176.25 1772.83 1179.31 1768.24 Q1182.39 1763.64 1188.2 1763.64 Z" fill="#000000" fill-rule="nonzero" fill-opacity="1" /><path clip-path="url(#clip960)" d="M1526.89 1767.34 Q1523.28 1767.34 1521.45 1770.9 Q1519.65 1774.45 1519.65 1781.58 Q1519.65 1788.68 1521.45 1792.25 Q1523.28 1795.79 1526.89 1795.79 Q1530.53 1795.79 1532.33 1792.25 Q1534.16 1788.68 1534.16 1781.58 Q1534.16 1774.45 1532.33 1770.9 Q1530.53 1767.34 1526.89 1767.34 M1526.89 1763.64 Q1532.7 1763.64 1535.76 1768.24 Q1538.84 1772.83 1538.84 1781.58 Q1538.84 1790.3 1535.76 1794.91 Q1532.7 1799.49 1526.89 1799.49 Q1521.08 1799.49 1518 1794.91 Q1514.95 1790.3 1514.95 1781.58 Q1514.95 1772.83 1518 1768.24 Q1521.08 1763.64 1526.89 1763.64 Z" fill="#000000" fill-rule="nonzero" fill-opacity="1" /><path clip-path="url(#clip960)" d="M1547.06 1792.94 L1551.94 1792.94 L1551.94 1798.82 L1547.06 1798.82 L1547.06 1792.94 Z" fill="#000000" fill-rule="nonzero" fill-opacity="1" /><path clip-path="url(#clip960)" d="M1562.93 1794.89 L1570.57 1794.89 L1570.57 1768.52 L1562.26 1770.19 L1562.26 1765.93 L1570.53 1764.26 L1575.2 1764.26 L1575.2 1794.89 L1582.84 1794.89 L1582.84 1798.82 L1562.93 1798.82 L1562.93 1794.89 Z" fill="#000000" fill-rule="nonzero" fill-opacity="1" /><path clip-path="url(#clip960)" d="M1592.33 1764.26 L1610.69 1764.26 L1610.69 1768.2 L1596.61 1768.2 L1596.61 1776.67 Q1597.63 1776.32 1598.65 1776.16 Q1599.67 1775.97 1600.69 1775.97 Q1606.48 1775.97 1609.86 1779.15 Q1613.24 1782.32 1613.24 1787.73 Q1613.24 1793.31 1609.76 1796.41 Q1606.29 1799.49 1599.97 1799.49 Q1597.8 1799.49 1595.53 1799.12 Q1593.28 1798.75 1590.87 1798.01 L1590.87 1793.31 Q1592.96 1794.45 1595.18 1795 Q1597.4 1795.56 1599.88 1795.56 Q1603.88 1795.56 1606.22 1793.45 Q1608.56 1791.34 1608.56 1787.73 Q1608.56 1784.12 1606.22 1782.02 Q1603.88 1779.91 1599.88 1779.91 Q1598 1779.91 1596.13 1780.33 Q1594.28 1780.74 1592.33 1781.62 L1592.33 1764.26 Z" fill="#000000" fill-rule="nonzero" fill-opacity="1" /><path clip-path="url(#clip960)" d="M1939.99 1767.34 Q1936.38 1767.34 1934.55 1770.9 Q1932.74 1774.45 1932.74 1781.58 Q1932.74 1788.68 1934.55 1792.25 Q1936.38 1795.79 1939.99 1795.79 Q1943.62 1795.79 1945.43 1792.25 Q1947.26 1788.68 1947.26 1781.58 Q1947.26 1774.45 1945.43 1770.9 Q1943.62 1767.34 1939.99 1767.34 M1939.99 1763.64 Q1945.8 1763.64 1948.85 1768.24 Q1951.93 1772.83 1951.93 1781.58 Q1951.93 1790.3 1948.85 1794.91 Q1945.8 1799.49 1939.99 1799.49 Q1934.18 1799.49 1931.1 1794.91 Q1928.04 1790.3 1928.04 1781.58 Q1928.04 1772.83 1931.1 1768.24 Q1934.18 1763.64 1939.99 1763.64 Z" fill="#000000" fill-rule="nonzero" fill-opacity="1" /><path clip-path="url(#clip960)" d="M1960.15 1792.94 L1965.03 1792.94 L1965.03 1798.82 L1960.15 1798.82 L1960.15 1792.94 Z" fill="#000000" fill-rule="nonzero" fill-opacity="1" /><path clip-path="url(#clip960)" d="M1979.25 1794.89 L1995.57 1794.89 L1995.57 1798.82 L1973.62 1798.82 L1973.62 1794.89 Q1976.28 1792.13 1980.87 1787.5 Q1985.47 1782.85 1986.65 1781.51 Q1988.9 1778.98 1989.78 1777.25 Q1990.68 1775.49 1990.68 1773.8 Q1990.68 1771.04 1988.74 1769.31 Q1986.82 1767.57 1983.71 1767.57 Q1981.52 1767.57 1979.06 1768.34 Q1976.63 1769.1 1973.85 1770.65 L1973.85 1765.93 Q1976.68 1764.79 1979.13 1764.21 Q1981.58 1763.64 1983.62 1763.64 Q1988.99 1763.64 1992.19 1766.32 Q1995.38 1769.01 1995.38 1773.5 Q1995.38 1775.63 1994.57 1777.55 Q1993.78 1779.45 1991.68 1782.04 Q1991.1 1782.71 1988 1785.93 Q1984.9 1789.12 1979.25 1794.89 Z" fill="#000000" fill-rule="nonzero" fill-opacity="1" /><path clip-path="url(#clip960)" d="M2015.38 1767.34 Q2011.77 1767.34 2009.94 1770.9 Q2008.14 1774.45 2008.14 1781.58 Q2008.14 1788.68 2009.94 1792.25 Q2011.77 1795.79 2015.38 1795.79 Q2019.02 1795.79 2020.82 1792.25 Q2022.65 1788.68 2022.65 1781.58 Q2022.65 1774.45 2020.82 1770.9 Q2019.02 1767.34 2015.38 1767.34 M2015.38 1763.64 Q2021.19 1763.64 2024.25 1768.24 Q2027.33 1772.83 2027.33 1781.58 Q2027.33 1790.3 2024.25 1794.91 Q2021.19 1799.49 2015.38 1799.49 Q2009.57 1799.49 2006.49 1794.91 Q2003.44 1790.3 2003.44 1781.58 Q2003.44 1772.83 2006.49 1768.24 Q2009.57 1763.64 2015.38 1763.64 Z" fill="#000000" fill-rule="nonzero" fill-opacity="1" /><path clip-path="url(#clip960)" d="M2354.08 1767.34 Q2350.47 1767.34 2348.64 1770.9 Q2346.83 1774.45 2346.83 1781.58 Q2346.83 1788.68 2348.64 1792.25 Q2350.47 1795.79 2354.08 1795.79 Q2357.71 1795.79 2359.52 1792.25 Q2361.35 1788.68 2361.35 1781.58 Q2361.35 1774.45 2359.52 1770.9 Q2357.71 1767.34 2354.08 1767.34 M2354.08 1763.64 Q2359.89 1763.64 2362.94 1768.24 Q2366.02 1772.83 2366.02 1781.58 Q2366.02 1790.3 2362.94 1794.91 Q2359.89 1799.49 2354.08 1799.49 Q2348.27 1799.49 2345.19 1794.91 Q2342.13 1790.3 2342.13 1781.58 Q2342.13 1772.83 2345.19 1768.24 Q2348.27 1763.64 2354.08 1763.64 Z" fill="#000000" fill-rule="nonzero" fill-opacity="1" /><path clip-path="url(#clip960)" d="M2374.24 1792.94 L2379.12 1792.94 L2379.12 1798.82 L2374.24 1798.82 L2374.24 1792.94 Z" fill="#000000" fill-rule="nonzero" fill-opacity="1" /><path clip-path="url(#clip960)" d="M2393.34 1794.89 L2409.66 1794.89 L2409.66 1798.82 L2387.71 1798.82 L2387.71 1794.89 Q2390.37 1792.13 2394.96 1787.5 Q2399.56 1782.85 2400.74 1781.51 Q2402.99 1778.98 2403.87 1777.25 Q2404.77 1775.49 2404.77 1773.8 Q2404.77 1771.04 2402.83 1769.31 Q2400.91 1767.57 2397.8 1767.57 Q2395.61 1767.57 2393.15 1768.34 Q2390.72 1769.1 2387.94 1770.65 L2387.94 1765.93 Q2390.77 1764.79 2393.22 1764.21 Q2395.68 1763.64 2397.71 1763.64 Q2403.08 1763.64 2406.28 1766.32 Q2409.47 1769.01 2409.47 1773.5 Q2409.47 1775.63 2408.66 1777.55 Q2407.87 1779.45 2405.77 1782.04 Q2405.19 1782.71 2402.09 1785.93 Q2398.99 1789.12 2393.34 1794.89 Z" fill="#000000" fill-rule="nonzero" fill-opacity="1" /><path clip-path="url(#clip960)" d="M2419.52 1764.26 L2437.87 1764.26 L2437.87 1768.2 L2423.8 1768.2 L2423.8 1776.67 Q2424.82 1776.32 2425.84 1776.16 Q2426.86 1775.97 2427.87 1775.97 Q2433.66 1775.97 2437.04 1779.15 Q2440.42 1782.32 2440.42 1787.73 Q2440.42 1793.31 2436.95 1796.41 Q2433.48 1799.49 2427.16 1799.49 Q2424.98 1799.49 2422.71 1799.12 Q2420.47 1798.75 2418.06 1798.01 L2418.06 1793.31 Q2420.14 1794.45 2422.36 1795 Q2424.59 1795.56 2427.06 1795.56 Q2431.07 1795.56 2433.41 1793.45 Q2435.74 1791.34 2435.74 1787.73 Q2435.74 1784.12 2433.41 1782.02 Q2431.07 1779.91 2427.06 1779.91 Q2425.19 1779.91 2423.31 1780.33 Q2421.46 1780.74 2419.52 1781.62 L2419.52 1764.26 Z" fill="#000000" fill-rule="nonzero" fill-opacity="1" /><path clip-path="url(#clip960)" d="M1201.14 1841.06 L1201.14 1858.92 L1209.22 1858.92 Q1213.71 1858.92 1216.16 1856.6 Q1218.61 1854.27 1218.61 1849.98 Q1218.61 1845.71 1216.16 1843.39 Q1213.71 1841.06 1209.22 1841.06 L1201.14 1841.06 M1194.71 1835.78 L1209.22 1835.78 Q1217.21 1835.78 1221.29 1839.41 Q1225.39 1843.01 1225.39 1849.98 Q1225.39 1857.01 1221.29 1860.61 Q1217.21 1864.2 1209.22 1864.2 L1201.14 1864.2 L1201.14 1883.3 L1194.71 1883.3 L1194.71 1835.78 Z" fill="#000000" fill-rule="nonzero" fill-opacity="1" /><path clip-path="url(#clip960)" d="M1253.27 1853.13 Q1252.29 1852.55 1251.11 1852.3 Q1249.96 1852.01 1248.56 1852.01 Q1243.6 1852.01 1240.92 1855.26 Q1238.28 1858.47 1238.28 1864.52 L1238.28 1883.3 L1232.39 1883.3 L1232.39 1847.65 L1238.28 1847.65 L1238.28 1853.19 Q1240.13 1849.94 1243.09 1848.39 Q1246.05 1846.79 1250.28 1846.79 Q1250.89 1846.79 1251.62 1846.89 Q1252.35 1846.95 1253.24 1847.11 L1253.27 1853.13 Z" fill="#000000" fill-rule="nonzero" fill-opacity="1" /><path clip-path="url(#clip960)" d="M1288.48 1864.01 L1288.48 1866.88 L1261.55 1866.88 Q1261.93 1872.92 1265.18 1876.11 Q1268.45 1879.26 1274.28 1879.26 Q1277.65 1879.26 1280.8 1878.43 Q1283.99 1877.6 1287.11 1875.95 L1287.11 1881.49 Q1283.96 1882.82 1280.65 1883.52 Q1277.34 1884.22 1273.93 1884.22 Q1265.4 1884.22 1260.4 1879.26 Q1255.44 1874.29 1255.44 1865.83 Q1255.44 1857.07 1260.15 1851.95 Q1264.89 1846.79 1272.91 1846.79 Q1280.1 1846.79 1284.27 1851.44 Q1288.48 1856.06 1288.48 1864.01 M1282.62 1862.29 Q1282.55 1857.49 1279.91 1854.62 Q1277.3 1851.76 1272.97 1851.76 Q1268.07 1851.76 1265.11 1854.53 Q1262.18 1857.3 1261.74 1862.33 L1282.62 1862.29 Z" fill="#000000" fill-rule="nonzero" fill-opacity="1" /><path clip-path="url(#clip960)" d="M1293.89 1847.65 L1300.09 1847.65 L1311.23 1877.57 L1322.37 1847.65 L1328.58 1847.65 L1315.21 1883.3 L1307.25 1883.3 L1293.89 1847.65 Z" fill="#000000" fill-rule="nonzero" fill-opacity="1" /><path clip-path="url(#clip960)" d="M1352.86 1865.38 Q1345.77 1865.38 1343.03 1867 Q1340.29 1868.63 1340.29 1872.54 Q1340.29 1875.66 1342.33 1877.51 Q1344.4 1879.32 1347.93 1879.32 Q1352.8 1879.32 1355.73 1875.88 Q1358.69 1872.42 1358.69 1866.69 L1358.69 1865.38 L1352.86 1865.38 M1364.55 1862.96 L1364.55 1883.3 L1358.69 1883.3 L1358.69 1877.89 Q1356.68 1881.14 1353.69 1882.7 Q1350.7 1884.22 1346.37 1884.22 Q1340.9 1884.22 1337.65 1881.17 Q1334.44 1878.08 1334.44 1872.92 Q1334.44 1866.91 1338.45 1863.85 Q1342.49 1860.8 1350.48 1860.8 L1358.69 1860.8 L1358.69 1860.23 Q1358.69 1856.18 1356.02 1853.99 Q1353.37 1851.76 1348.57 1851.76 Q1345.51 1851.76 1342.62 1852.49 Q1339.72 1853.22 1337.05 1854.69 L1337.05 1849.28 Q1340.26 1848.03 1343.28 1847.43 Q1346.31 1846.79 1349.17 1846.79 Q1356.91 1846.79 1360.73 1850.8 Q1364.55 1854.81 1364.55 1862.96 Z" fill="#000000" fill-rule="nonzero" fill-opacity="1" /><path clip-path="url(#clip960)" d="M1376.61 1833.78 L1382.46 1833.78 L1382.46 1883.3 L1376.61 1883.3 L1376.61 1833.78 Z" fill="#000000" fill-rule="nonzero" fill-opacity="1" /><path clip-path="url(#clip960)" d="M1425.21 1864.01 L1425.21 1866.88 L1398.28 1866.88 Q1398.67 1872.92 1401.91 1876.11 Q1405.19 1879.26 1411.01 1879.26 Q1414.39 1879.26 1417.54 1878.43 Q1420.72 1877.6 1423.84 1875.95 L1423.84 1881.49 Q1420.69 1882.82 1417.38 1883.52 Q1414.07 1884.22 1410.66 1884.22 Q1402.13 1884.22 1397.14 1879.26 Q1392.17 1874.29 1392.17 1865.83 Q1392.17 1857.07 1396.88 1851.95 Q1401.63 1846.79 1409.65 1846.79 Q1416.84 1846.79 1421.01 1851.44 Q1425.21 1856.06 1425.21 1864.01 M1419.35 1862.29 Q1419.29 1857.49 1416.65 1854.62 Q1414.04 1851.76 1409.71 1851.76 Q1404.81 1851.76 1401.85 1854.53 Q1398.92 1857.3 1398.47 1862.33 L1419.35 1862.29 Z" fill="#000000" fill-rule="nonzero" fill-opacity="1" /><path clip-path="url(#clip960)" d="M1464.46 1861.78 L1464.46 1883.3 L1458.6 1883.3 L1458.6 1861.98 Q1458.6 1856.92 1456.63 1854.4 Q1454.65 1851.89 1450.71 1851.89 Q1445.96 1851.89 1443.23 1854.91 Q1440.49 1857.93 1440.49 1863.15 L1440.49 1883.3 L1434.6 1883.3 L1434.6 1847.65 L1440.49 1847.65 L1440.49 1853.19 Q1442.59 1849.98 1445.42 1848.39 Q1448.29 1846.79 1452.01 1846.79 Q1458.15 1846.79 1461.3 1850.61 Q1464.46 1854.4 1464.46 1861.78 Z" fill="#000000" fill-rule="nonzero" fill-opacity="1" /><path clip-path="url(#clip960)" d="M1501.79 1849.02 L1501.79 1854.5 Q1499.31 1853.13 1496.79 1852.46 Q1494.31 1851.76 1491.76 1851.76 Q1486.07 1851.76 1482.92 1855.39 Q1479.76 1858.98 1479.76 1865.51 Q1479.76 1872.03 1482.92 1875.66 Q1486.07 1879.26 1491.76 1879.26 Q1494.31 1879.26 1496.79 1878.59 Q1499.31 1877.89 1501.79 1876.52 L1501.79 1881.93 Q1499.34 1883.08 1496.7 1883.65 Q1494.09 1884.22 1491.13 1884.22 Q1483.07 1884.22 1478.33 1879.16 Q1473.59 1874.1 1473.59 1865.51 Q1473.59 1856.79 1478.36 1851.79 Q1483.17 1846.79 1491.51 1846.79 Q1494.21 1846.79 1496.79 1847.37 Q1499.37 1847.91 1501.79 1849.02 Z" fill="#000000" fill-rule="nonzero" fill-opacity="1" /><path clip-path="url(#clip960)" d="M1542.47 1864.01 L1542.47 1866.88 L1515.54 1866.88 Q1515.92 1872.92 1519.17 1876.11 Q1522.45 1879.26 1528.27 1879.26 Q1531.65 1879.26 1534.8 1878.43 Q1537.98 1877.6 1541.1 1875.95 L1541.1 1881.49 Q1537.95 1882.82 1534.64 1883.52 Q1531.33 1884.22 1527.92 1884.22 Q1519.39 1884.22 1514.39 1879.26 Q1509.43 1874.29 1509.43 1865.83 Q1509.43 1857.07 1514.14 1851.95 Q1518.88 1846.79 1526.9 1846.79 Q1534.1 1846.79 1538.27 1851.44 Q1542.47 1856.06 1542.47 1864.01 M1536.61 1862.29 Q1536.55 1857.49 1533.9 1854.62 Q1531.29 1851.76 1526.97 1851.76 Q1522.06 1851.76 1519.1 1854.53 Q1516.18 1857.3 1515.73 1862.33 L1536.61 1862.29 Z" fill="#000000" fill-rule="nonzero" fill-opacity="1" /><path clip-path="url(#clip960)" d="M1586.87 1833.84 Q1582.6 1841.16 1580.53 1848.32 Q1578.46 1855.48 1578.46 1862.84 Q1578.46 1870.19 1580.53 1877.41 Q1582.63 1884.61 1586.87 1891.89 L1581.77 1891.89 Q1577 1884.41 1574.61 1877.19 Q1572.26 1869.96 1572.26 1862.84 Q1572.26 1855.74 1574.61 1848.54 Q1576.97 1841.35 1581.77 1833.84 L1586.87 1833.84 Z" fill="#000000" fill-rule="nonzero" fill-opacity="1" /><path clip-path="url(#clip960)" d="M1598.48 1835.78 L1604.91 1835.78 L1604.91 1883.3 L1598.48 1883.3 L1598.48 1835.78 Z" fill="#000000" fill-rule="nonzero" fill-opacity="1" /><path clip-path="url(#clip960)" d="M1627.86 1835.78 L1633.27 1835.78 L1616.72 1889.35 L1611.31 1889.35 L1627.86 1835.78 Z" fill="#000000" fill-rule="nonzero" fill-opacity="1" /><path clip-path="url(#clip960)" d="M1639.67 1835.78 L1648.33 1835.78 L1669.4 1875.53 L1669.4 1835.78 L1675.64 1835.78 L1675.64 1883.3 L1666.98 1883.3 L1645.91 1843.55 L1645.91 1883.3 L1639.67 1883.3 L1639.67 1835.78 Z" fill="#000000" fill-rule="nonzero" fill-opacity="1" /><path clip-path="url(#clip960)" d="M1687.25 1833.84 L1692.35 1833.84 Q1697.12 1841.35 1699.48 1848.54 Q1701.86 1855.74 1701.86 1862.84 Q1701.86 1869.96 1699.48 1877.19 Q1697.12 1884.41 1692.35 1891.89 L1687.25 1891.89 Q1691.49 1884.61 1693.56 1877.41 Q1695.66 1870.19 1695.66 1862.84 Q1695.66 1855.48 1693.56 1848.32 Q1691.49 1841.16 1687.25 1833.84 Z" fill="#000000" fill-rule="nonzero" fill-opacity="1" /><polyline clip-path="url(#clip960)" style="stroke:#000000; stroke-linecap:round; stroke-linejoin:round; stroke-width:4; stroke-opacity:1; fill:none" points="255.816,1734.12 255.816,127.792 "/>
<polyline clip-path="url(#clip960)" style="stroke:#000000; stroke-linecap:round; stroke-linejoin:round; stroke-width:4; stroke-opacity:1; fill:none" points="255.816,1727.58 274.714,1727.58 "/>
<polyline clip-path="url(#clip960)" style="stroke:#000000; stroke-linecap:round; stroke-linejoin:round; stroke-width:4; stroke-opacity:1; fill:none" points="255.816,1269.29 274.714,1269.29 "/>
<polyline clip-path="url(#clip960)" style="stroke:#000000; stroke-linecap:round; stroke-linejoin:round; stroke-width:4; stroke-opacity:1; fill:none" points="255.816,811.007 274.714,811.007 "/>
<polyline clip-path="url(#clip960)" style="stroke:#000000; stroke-linecap:round; stroke-linejoin:round; stroke-width:4; stroke-opacity:1; fill:none" points="255.816,352.721 274.714,352.721 "/>
<path clip-path="url(#clip960)" d="M128.159 1713.38 Q124.548 1713.38 122.719 1716.94 Q120.913 1720.48 120.913 1727.61 Q120.913 1734.72 122.719 1738.28 Q124.548 1741.83 128.159 1741.83 Q131.793 1741.83 133.599 1738.28 Q135.427 1734.72 135.427 1727.61 Q135.427 1720.48 133.599 1716.94 Q131.793 1713.38 128.159 1713.38 M128.159 1709.67 Q133.969 1709.67 137.025 1714.28 Q140.103 1718.86 140.103 1727.61 Q140.103 1736.34 137.025 1740.95 Q133.969 1745.53 128.159 1745.53 Q122.349 1745.53 119.27 1740.95 Q116.214 1736.34 116.214 1727.61 Q116.214 1718.86 119.27 1714.28 Q122.349 1709.67 128.159 1709.67 Z" fill="#000000" fill-rule="nonzero" fill-opacity="1" /><path clip-path="url(#clip960)" d="M148.321 1738.98 L153.205 1738.98 L153.205 1744.86 L148.321 1744.86 L148.321 1738.98 Z" fill="#000000" fill-rule="nonzero" fill-opacity="1" /><path clip-path="url(#clip960)" d="M173.39 1713.38 Q169.779 1713.38 167.95 1716.94 Q166.145 1720.48 166.145 1727.61 Q166.145 1734.72 167.95 1738.28 Q169.779 1741.83 173.39 1741.83 Q177.024 1741.83 178.83 1738.28 Q180.659 1734.72 180.659 1727.61 Q180.659 1720.48 178.83 1716.94 Q177.024 1713.38 173.39 1713.38 M173.39 1709.67 Q179.2 1709.67 182.256 1714.28 Q185.334 1718.86 185.334 1727.61 Q185.334 1736.34 182.256 1740.95 Q179.2 1745.53 173.39 1745.53 Q167.58 1745.53 164.501 1740.95 Q161.446 1736.34 161.446 1727.61 Q161.446 1718.86 164.501 1714.28 Q167.58 1709.67 173.39 1709.67 Z" fill="#000000" fill-rule="nonzero" fill-opacity="1" /><path clip-path="url(#clip960)" d="M203.552 1713.38 Q199.941 1713.38 198.112 1716.94 Q196.307 1720.48 196.307 1727.61 Q196.307 1734.72 198.112 1738.28 Q199.941 1741.83 203.552 1741.83 Q207.186 1741.83 208.992 1738.28 Q210.82 1734.72 210.82 1727.61 Q210.82 1720.48 208.992 1716.94 Q207.186 1713.38 203.552 1713.38 M203.552 1709.67 Q209.362 1709.67 212.418 1714.28 Q215.496 1718.86 215.496 1727.61 Q215.496 1736.34 212.418 1740.95 Q209.362 1745.53 203.552 1745.53 Q197.742 1745.53 194.663 1740.95 Q191.608 1736.34 191.608 1727.61 Q191.608 1718.86 194.663 1714.28 Q197.742 1709.67 203.552 1709.67 Z" fill="#000000" fill-rule="nonzero" fill-opacity="1" /><path clip-path="url(#clip960)" d="M129.154 1255.09 Q125.543 1255.09 123.714 1258.66 Q121.909 1262.2 121.909 1269.33 Q121.909 1276.43 123.714 1280 Q125.543 1283.54 129.154 1283.54 Q132.788 1283.54 134.594 1280 Q136.423 1276.43 136.423 1269.33 Q136.423 1262.2 134.594 1258.66 Q132.788 1255.09 129.154 1255.09 M129.154 1251.39 Q134.964 1251.39 138.02 1255.99 Q141.099 1260.58 141.099 1269.33 Q141.099 1278.05 138.02 1282.66 Q134.964 1287.24 129.154 1287.24 Q123.344 1287.24 120.265 1282.66 Q117.21 1278.05 117.21 1269.33 Q117.21 1260.58 120.265 1255.99 Q123.344 1251.39 129.154 1251.39 Z" fill="#000000" fill-rule="nonzero" fill-opacity="1" /><path clip-path="url(#clip960)" d="M149.316 1280.69 L154.2 1280.69 L154.2 1286.57 L149.316 1286.57 L149.316 1280.69 Z" fill="#000000" fill-rule="nonzero" fill-opacity="1" /><path clip-path="url(#clip960)" d="M174.385 1255.09 Q170.774 1255.09 168.946 1258.66 Q167.14 1262.2 167.14 1269.33 Q167.14 1276.43 168.946 1280 Q170.774 1283.54 174.385 1283.54 Q178.02 1283.54 179.825 1280 Q181.654 1276.43 181.654 1269.33 Q181.654 1262.2 179.825 1258.66 Q178.02 1255.09 174.385 1255.09 M174.385 1251.39 Q180.196 1251.39 183.251 1255.99 Q186.33 1260.58 186.33 1269.33 Q186.33 1278.05 183.251 1282.66 Q180.196 1287.24 174.385 1287.24 Q168.575 1287.24 165.497 1282.66 Q162.441 1278.05 162.441 1269.33 Q162.441 1260.58 165.497 1255.99 Q168.575 1251.39 174.385 1251.39 Z" fill="#000000" fill-rule="nonzero" fill-opacity="1" /><path clip-path="url(#clip960)" d="M194.594 1252.01 L212.95 1252.01 L212.95 1255.95 L198.876 1255.95 L198.876 1264.42 Q199.895 1264.07 200.913 1263.91 Q201.932 1263.73 202.95 1263.73 Q208.737 1263.73 212.117 1266.9 Q215.496 1270.07 215.496 1275.48 Q215.496 1281.06 212.024 1284.17 Q208.552 1287.24 202.233 1287.24 Q200.057 1287.24 197.788 1286.87 Q195.543 1286.5 193.135 1285.76 L193.135 1281.06 Q195.219 1282.2 197.441 1282.75 Q199.663 1283.31 202.14 1283.31 Q206.145 1283.31 208.482 1281.2 Q210.82 1279.1 210.82 1275.48 Q210.82 1271.87 208.482 1269.77 Q206.145 1267.66 202.14 1267.66 Q200.265 1267.66 198.39 1268.08 Q196.538 1268.49 194.594 1269.37 L194.594 1252.01 Z" fill="#000000" fill-rule="nonzero" fill-opacity="1" /><path clip-path="url(#clip960)" d="M128.159 796.805 Q124.548 796.805 122.719 800.37 Q120.913 803.912 120.913 811.041 Q120.913 818.148 122.719 821.713 Q124.548 825.254 128.159 825.254 Q131.793 825.254 133.599 821.713 Q135.427 818.148 135.427 811.041 Q135.427 803.912 133.599 800.37 Q131.793 796.805 128.159 796.805 M128.159 793.102 Q133.969 793.102 137.025 797.708 Q140.103 802.291 140.103 811.041 Q140.103 819.768 137.025 824.375 Q133.969 828.958 128.159 828.958 Q122.349 828.958 119.27 824.375 Q116.214 819.768 116.214 811.041 Q116.214 802.291 119.27 797.708 Q122.349 793.102 128.159 793.102 Z" fill="#000000" fill-rule="nonzero" fill-opacity="1" /><path clip-path="url(#clip960)" d="M148.321 822.407 L153.205 822.407 L153.205 828.287 L148.321 828.287 L148.321 822.407 Z" fill="#000000" fill-rule="nonzero" fill-opacity="1" /><path clip-path="url(#clip960)" d="M164.2 824.352 L171.839 824.352 L171.839 797.986 L163.529 799.653 L163.529 795.393 L171.793 793.727 L176.469 793.727 L176.469 824.352 L184.108 824.352 L184.108 828.287 L164.2 828.287 L164.2 824.352 Z" fill="#000000" fill-rule="nonzero" fill-opacity="1" /><path clip-path="url(#clip960)" d="M203.552 796.805 Q199.941 796.805 198.112 800.37 Q196.307 803.912 196.307 811.041 Q196.307 818.148 198.112 821.713 Q199.941 825.254 203.552 825.254 Q207.186 825.254 208.992 821.713 Q210.82 818.148 210.82 811.041 Q210.82 803.912 208.992 800.37 Q207.186 796.805 203.552 796.805 M203.552 793.102 Q209.362 793.102 212.418 797.708 Q215.496 802.291 215.496 811.041 Q215.496 819.768 212.418 824.375 Q209.362 828.958 203.552 828.958 Q197.742 828.958 194.663 824.375 Q191.608 819.768 191.608 811.041 Q191.608 802.291 194.663 797.708 Q197.742 793.102 203.552 793.102 Z" fill="#000000" fill-rule="nonzero" fill-opacity="1" /><path clip-path="url(#clip960)" d="M129.154 338.52 Q125.543 338.52 123.714 342.084 Q121.909 345.626 121.909 352.756 Q121.909 359.862 123.714 363.427 Q125.543 366.969 129.154 366.969 Q132.788 366.969 134.594 363.427 Q136.423 359.862 136.423 352.756 Q136.423 345.626 134.594 342.084 Q132.788 338.52 129.154 338.52 M129.154 334.816 Q134.964 334.816 138.02 339.422 Q141.099 344.006 141.099 352.756 Q141.099 361.482 138.02 366.089 Q134.964 370.672 129.154 370.672 Q123.344 370.672 120.265 366.089 Q117.21 361.482 117.21 352.756 Q117.21 344.006 120.265 339.422 Q123.344 334.816 129.154 334.816 Z" fill="#000000" fill-rule="nonzero" fill-opacity="1" /><path clip-path="url(#clip960)" d="M149.316 364.121 L154.2 364.121 L154.2 370.001 L149.316 370.001 L149.316 364.121 Z" fill="#000000" fill-rule="nonzero" fill-opacity="1" /><path clip-path="url(#clip960)" d="M165.196 366.066 L172.835 366.066 L172.835 339.7 L164.524 341.367 L164.524 337.108 L172.788 335.441 L177.464 335.441 L177.464 366.066 L185.103 366.066 L185.103 370.001 L165.196 370.001 L165.196 366.066 Z" fill="#000000" fill-rule="nonzero" fill-opacity="1" /><path clip-path="url(#clip960)" d="M194.594 335.441 L212.95 335.441 L212.95 339.376 L198.876 339.376 L198.876 347.848 Q199.895 347.501 200.913 347.339 Q201.932 347.154 202.95 347.154 Q208.737 347.154 212.117 350.325 Q215.496 353.496 215.496 358.913 Q215.496 364.492 212.024 367.594 Q208.552 370.672 202.233 370.672 Q200.057 370.672 197.788 370.302 Q195.543 369.931 193.135 369.191 L193.135 364.492 Q195.219 365.626 197.441 366.182 Q199.663 366.737 202.14 366.737 Q206.145 366.737 208.482 364.631 Q210.82 362.524 210.82 358.913 Q210.82 355.302 208.482 353.195 Q206.145 351.089 202.14 351.089 Q200.265 351.089 198.39 351.506 Q196.538 351.922 194.594 352.802 L194.594 335.441 Z" fill="#000000" fill-rule="nonzero" fill-opacity="1" /><path clip-path="url(#clip960)" d="M17.6832 998.638 L61.6384 982.183 L61.6384 988.389 L35.2844 998.383 L61.6384 1010.67 L61.6384 1016.88 L27.4546 1001.25 L21.1525 1003.6 Q17.1422 1005.1 17.1422 1008.5 L17.1422 1011.56 L12.1132 1011.56 L12.1769 1007.84 Q12.2724 1000.64 17.6832 998.638 Z" fill="#000000" fill-rule="nonzero" fill-opacity="1" /><path clip-path="url(#clip960)" d="M12.1769 960.03 Q19.4975 964.295 26.6589 966.364 Q33.8203 968.433 41.1727 968.433 Q48.5251 968.433 55.7502 966.364 Q62.9434 964.263 70.2321 960.03 L70.2321 965.122 Q62.7524 969.897 55.5274 972.284 Q48.3023 974.639 41.1727 974.639 Q34.0749 974.639 26.8817 972.284 Q19.6884 969.929 12.1769 965.122 L12.1769 960.03 Z" fill="#000000" fill-rule="nonzero" fill-opacity="1" /><path clip-path="url(#clip960)" d="M14.1184 948.413 L14.1184 941.983 L61.6384 941.983 L61.6384 948.413 L14.1184 948.413 Z" fill="#000000" fill-rule="nonzero" fill-opacity="1" /><path clip-path="url(#clip960)" d="M14.1184 919.035 L14.1184 913.624 L67.6859 930.175 L67.6859 935.586 L14.1184 919.035 Z" fill="#000000" fill-rule="nonzero" fill-opacity="1" /><path clip-path="url(#clip960)" d="M14.1184 907.226 L14.1184 898.569 L53.8723 877.499 L14.1184 877.499 L14.1184 871.26 L61.6384 871.26 L61.6384 879.918 L21.8846 900.988 L61.6384 900.988 L61.6384 907.226 L14.1184 907.226 Z" fill="#000000" fill-rule="nonzero" fill-opacity="1" /><path clip-path="url(#clip960)" d="M12.1769 859.643 L12.1769 854.55 Q19.6884 849.776 26.8817 847.421 Q34.0749 845.033 41.1727 845.033 Q48.3023 845.033 55.5274 847.421 Q62.7524 849.776 70.2321 854.55 L70.2321 859.643 Q62.9434 855.41 55.7502 853.341 Q48.5251 851.24 41.1727 851.24 Q33.8203 851.24 26.6589 853.341 Q19.4975 855.41 12.1769 859.643 Z" fill="#000000" fill-rule="nonzero" fill-opacity="1" /><path clip-path="url(#clip960)" d="M770.448 12.096 L778.672 12.096 L778.672 48.8377 Q778.672 58.5599 782.196 62.8538 Q785.72 67.1073 793.619 67.1073 Q801.478 67.1073 805.003 62.8538 Q808.527 58.5599 808.527 48.8377 L808.527 12.096 L816.75 12.096 L816.75 49.8504 Q816.75 61.6791 810.876 67.7149 Q805.043 73.7508 793.619 73.7508 Q782.155 73.7508 776.282 67.7149 Q770.448 61.6791 770.448 49.8504 L770.448 12.096 Z" fill="#000000" fill-rule="nonzero" fill-opacity="1" /><path clip-path="url(#clip960)" d="M869.493 45.1919 L869.493 72.576 L862.039 72.576 L862.039 45.4349 Q862.039 38.994 859.528 35.7938 Q857.016 32.5936 851.993 32.5936 Q845.957 32.5936 842.473 36.4419 Q838.99 40.2903 838.99 46.9338 L838.99 72.576 L831.495 72.576 L831.495 27.2059 L838.99 27.2059 L838.99 34.2544 Q841.663 30.163 845.269 28.1376 Q848.914 26.1121 853.654 26.1121 Q861.472 26.1121 865.483 30.9732 Q869.493 35.7938 869.493 45.1919 Z" fill="#000000" fill-rule="nonzero" fill-opacity="1" /><path clip-path="url(#clip960)" d="M884.076 9.54393 L891.57 9.54393 L891.57 46.7717 L913.81 27.2059 L923.329 27.2059 L899.267 48.4326 L924.342 72.576 L914.62 72.576 L891.57 50.4176 L891.57 72.576 L884.076 72.576 L884.076 9.54393 Z" fill="#000000" fill-rule="nonzero" fill-opacity="1" /><path clip-path="url(#clip960)" d="M970.117 45.1919 L970.117 72.576 L962.664 72.576 L962.664 45.4349 Q962.664 38.994 960.152 35.7938 Q957.641 32.5936 952.617 32.5936 Q946.582 32.5936 943.098 36.4419 Q939.614 40.2903 939.614 46.9338 L939.614 72.576 L932.12 72.576 L932.12 27.2059 L939.614 27.2059 L939.614 34.2544 Q942.288 30.163 945.893 28.1376 Q949.539 26.1121 954.278 26.1121 Q962.097 26.1121 966.107 30.9732 Q970.117 35.7938 970.117 45.1919 Z" fill="#000000" fill-rule="nonzero" fill-opacity="1" /><path clip-path="url(#clip960)" d="M1002.57 32.4315 Q996.57 32.4315 993.086 37.1306 Q989.602 41.7891 989.602 49.9314 Q989.602 58.0738 993.045 62.7728 Q996.529 67.4314 1002.57 67.4314 Q1008.52 67.4314 1012 62.7323 Q1015.49 58.0333 1015.49 49.9314 Q1015.49 41.8701 1012 37.1711 Q1008.52 32.4315 1002.57 32.4315 M1002.57 26.1121 Q1012.29 26.1121 1017.84 32.4315 Q1023.39 38.7509 1023.39 49.9314 Q1023.39 61.0714 1017.84 67.4314 Q1012.29 73.7508 1002.57 73.7508 Q992.802 73.7508 987.253 67.4314 Q981.743 61.0714 981.743 49.9314 Q981.743 38.7509 987.253 32.4315 Q992.802 26.1121 1002.57 26.1121 Z" fill="#000000" fill-rule="nonzero" fill-opacity="1" /><path clip-path="url(#clip960)" d="M1031.41 27.2059 L1038.86 27.2059 L1048.18 62.6108 L1057.45 27.2059 L1066.25 27.2059 L1075.56 62.6108 L1084.84 27.2059 L1092.29 27.2059 L1080.42 72.576 L1071.63 72.576 L1061.87 35.3887 L1052.07 72.576 L1043.28 72.576 L1031.41 27.2059 Z" fill="#000000" fill-rule="nonzero" fill-opacity="1" /><path clip-path="url(#clip960)" d="M1141.31 45.1919 L1141.31 72.576 L1133.85 72.576 L1133.85 45.4349 Q1133.85 38.994 1131.34 35.7938 Q1128.83 32.5936 1123.81 32.5936 Q1117.77 32.5936 1114.29 36.4419 Q1110.81 40.2903 1110.81 46.9338 L1110.81 72.576 L1103.31 72.576 L1103.31 27.2059 L1110.81 27.2059 L1110.81 34.2544 Q1113.48 30.163 1117.08 28.1376 Q1120.73 26.1121 1125.47 26.1121 Q1133.29 26.1121 1137.3 30.9732 Q1141.31 35.7938 1141.31 45.1919 Z" fill="#000000" fill-rule="nonzero" fill-opacity="1" /><path clip-path="url(#clip960)" d="M1205.52 9.54393 L1205.52 15.7418 L1198.39 15.7418 Q1194.38 15.7418 1192.8 17.3622 Q1191.26 18.9825 1191.26 23.1955 L1191.26 27.2059 L1203.53 27.2059 L1203.53 32.9987 L1191.26 32.9987 L1191.26 72.576 L1183.76 72.576 L1183.76 32.9987 L1176.63 32.9987 L1176.63 27.2059 L1183.76 27.2059 L1183.76 24.0462 Q1183.76 16.471 1187.29 13.0277 Q1190.81 9.54393 1198.47 9.54393 L1205.52 9.54393 Z" fill="#000000" fill-rule="nonzero" fill-opacity="1" /><path clip-path="url(#clip960)" d="M1210.98 54.671 L1210.98 27.2059 L1218.44 27.2059 L1218.44 54.3874 Q1218.44 60.8284 1220.95 64.0691 Q1223.46 67.2693 1228.48 67.2693 Q1234.52 67.2693 1238 63.421 Q1241.53 59.5726 1241.53 52.9291 L1241.53 27.2059 L1248.98 27.2059 L1248.98 72.576 L1241.53 72.576 L1241.53 65.6084 Q1238.81 69.7404 1235.21 71.7658 Q1231.64 73.7508 1226.9 73.7508 Q1219.09 73.7508 1215.04 68.8897 Q1210.98 64.0286 1210.98 54.671 M1229.74 26.1121 L1229.74 26.1121 Z" fill="#000000" fill-rule="nonzero" fill-opacity="1" /><path clip-path="url(#clip960)" d="M1302.05 45.1919 L1302.05 72.576 L1294.59 72.576 L1294.59 45.4349 Q1294.59 38.994 1292.08 35.7938 Q1289.57 32.5936 1284.55 32.5936 Q1278.51 32.5936 1275.03 36.4419 Q1271.55 40.2903 1271.55 46.9338 L1271.55 72.576 L1264.05 72.576 L1264.05 27.2059 L1271.55 27.2059 L1271.55 34.2544 Q1274.22 30.163 1277.82 28.1376 Q1281.47 26.1121 1286.21 26.1121 Q1294.03 26.1121 1298.04 30.9732 Q1302.05 35.7938 1302.05 45.1919 Z" fill="#000000" fill-rule="nonzero" fill-opacity="1" /><path clip-path="url(#clip960)" d="M1349.57 28.9478 L1349.57 35.9153 Q1346.41 34.1734 1343.21 33.3227 Q1340.05 32.4315 1336.81 32.4315 Q1329.55 32.4315 1325.54 37.0496 Q1321.53 41.6271 1321.53 49.9314 Q1321.53 58.2358 1325.54 62.8538 Q1329.55 67.4314 1336.81 67.4314 Q1340.05 67.4314 1343.21 66.5807 Q1346.41 65.6895 1349.57 63.9476 L1349.57 70.8341 Q1346.45 72.2924 1343.08 73.0216 Q1339.76 73.7508 1336 73.7508 Q1325.75 73.7508 1319.71 67.3098 Q1313.67 60.8689 1313.67 49.9314 Q1313.67 38.832 1319.75 32.472 Q1325.87 26.1121 1336.48 26.1121 Q1339.92 26.1121 1343.21 26.8413 Q1346.49 27.5299 1349.57 28.9478 Z" fill="#000000" fill-rule="nonzero" fill-opacity="1" /><path clip-path="url(#clip960)" d="M1369.9 14.324 L1369.9 27.2059 L1385.25 27.2059 L1385.25 32.9987 L1369.9 32.9987 L1369.9 57.6282 Q1369.9 63.1779 1371.4 64.7578 Q1372.94 66.3376 1377.6 66.3376 L1385.25 66.3376 L1385.25 72.576 L1377.6 72.576 Q1368.97 72.576 1365.69 69.3758 Q1362.41 66.1351 1362.41 57.6282 L1362.41 32.9987 L1356.94 32.9987 L1356.94 27.2059 L1362.41 27.2059 L1362.41 14.324 L1369.9 14.324 Z" fill="#000000" fill-rule="nonzero" fill-opacity="1" /><path clip-path="url(#clip960)" d="M1395.06 27.2059 L1402.51 27.2059 L1402.51 72.576 L1395.06 72.576 L1395.06 27.2059 M1395.06 9.54393 L1402.51 9.54393 L1402.51 18.9825 L1395.06 18.9825 L1395.06 9.54393 Z" fill="#000000" fill-rule="nonzero" fill-opacity="1" /><path clip-path="url(#clip960)" d="M1435.69 32.4315 Q1429.69 32.4315 1426.21 37.1306 Q1422.72 41.7891 1422.72 49.9314 Q1422.72 58.0738 1426.17 62.7728 Q1429.65 67.4314 1435.69 67.4314 Q1441.64 67.4314 1445.13 62.7323 Q1448.61 58.0333 1448.61 49.9314 Q1448.61 41.8701 1445.13 37.1711 Q1441.64 32.4315 1435.69 32.4315 M1435.69 26.1121 Q1445.41 26.1121 1450.96 32.4315 Q1456.51 38.7509 1456.51 49.9314 Q1456.51 61.0714 1450.96 67.4314 Q1445.41 73.7508 1435.69 73.7508 Q1425.93 73.7508 1420.38 67.4314 Q1414.87 61.0714 1414.87 49.9314 Q1414.87 38.7509 1420.38 32.4315 Q1425.93 26.1121 1435.69 26.1121 Z" fill="#000000" fill-rule="nonzero" fill-opacity="1" /><path clip-path="url(#clip960)" d="M1506.58 45.1919 L1506.58 72.576 L1499.12 72.576 L1499.12 45.4349 Q1499.12 38.994 1496.61 35.7938 Q1494.1 32.5936 1489.08 32.5936 Q1483.04 32.5936 1479.56 36.4419 Q1476.08 40.2903 1476.08 46.9338 L1476.08 72.576 L1468.58 72.576 L1468.58 27.2059 L1476.08 27.2059 L1476.08 34.2544 Q1478.75 30.163 1482.35 28.1376 Q1486 26.1121 1490.74 26.1121 Q1498.56 26.1121 1502.57 30.9732 Q1506.58 35.7938 1506.58 45.1919 Z" fill="#000000" fill-rule="nonzero" fill-opacity="1" /><path clip-path="url(#clip960)" d="M1593.43 16.7545 L1593.43 25.383 Q1589.3 21.5346 1584.6 19.6307 Q1579.94 17.7268 1574.67 17.7268 Q1564.3 17.7268 1558.79 24.0867 Q1553.29 30.4061 1553.29 42.3968 Q1553.29 54.3469 1558.79 60.7069 Q1564.3 67.0263 1574.67 67.0263 Q1579.94 67.0263 1584.6 65.1223 Q1589.3 63.2184 1593.43 59.3701 L1593.43 67.9175 Q1589.14 70.8341 1584.32 72.2924 Q1579.54 73.7508 1574.19 73.7508 Q1560.46 73.7508 1552.56 65.3654 Q1544.66 56.9395 1544.66 42.3968 Q1544.66 27.8135 1552.56 19.4281 Q1560.46 11.0023 1574.19 11.0023 Q1579.62 11.0023 1584.4 12.4606 Q1589.22 13.8784 1593.43 16.7545 Z" fill="#000000" fill-rule="nonzero" fill-opacity="1" /><path clip-path="url(#clip960)" d="M1606.07 12.096 L1614.25 12.096 L1614.25 72.576 L1606.07 72.576 L1606.07 12.096 Z" fill="#000000" fill-rule="nonzero" fill-opacity="1" /><path clip-path="url(#clip960)" d="M1689.23 28.9478 L1689.23 35.9153 Q1686.07 34.1734 1682.87 33.3227 Q1679.71 32.4315 1676.47 32.4315 Q1669.22 32.4315 1665.21 37.0496 Q1661.2 41.6271 1661.2 49.9314 Q1661.2 58.2358 1665.21 62.8538 Q1669.22 67.4314 1676.47 67.4314 Q1679.71 67.4314 1682.87 66.5807 Q1686.07 65.6895 1689.23 63.9476 L1689.23 70.8341 Q1686.11 72.2924 1682.75 73.0216 Q1679.43 73.7508 1675.66 73.7508 Q1665.41 73.7508 1659.38 67.3098 Q1653.34 60.8689 1653.34 49.9314 Q1653.34 38.832 1659.42 32.472 Q1665.54 26.1121 1676.15 26.1121 Q1679.59 26.1121 1682.87 26.8413 Q1686.16 27.5299 1689.23 28.9478 Z" fill="#000000" fill-rule="nonzero" fill-opacity="1" /><path clip-path="url(#clip960)" d="M1719.78 32.4315 Q1713.78 32.4315 1710.3 37.1306 Q1706.81 41.7891 1706.81 49.9314 Q1706.81 58.0738 1710.26 62.7728 Q1713.74 67.4314 1719.78 67.4314 Q1725.73 67.4314 1729.22 62.7323 Q1732.7 58.0333 1732.7 49.9314 Q1732.7 41.8701 1729.22 37.1711 Q1725.73 32.4315 1719.78 32.4315 M1719.78 26.1121 Q1729.5 26.1121 1735.05 32.4315 Q1740.6 38.7509 1740.6 49.9314 Q1740.6 61.0714 1735.05 67.4314 Q1729.5 73.7508 1719.78 73.7508 Q1710.02 73.7508 1704.47 67.4314 Q1698.96 61.0714 1698.96 49.9314 Q1698.96 38.7509 1704.47 32.4315 Q1710.02 26.1121 1719.78 26.1121 Z" fill="#000000" fill-rule="nonzero" fill-opacity="1" /><path clip-path="url(#clip960)" d="M1788.28 35.9153 Q1791.07 30.8922 1794.96 28.5022 Q1798.85 26.1121 1804.12 26.1121 Q1811.21 26.1121 1815.05 31.0947 Q1818.9 36.0368 1818.9 45.1919 L1818.9 72.576 L1811.41 72.576 L1811.41 45.4349 Q1811.41 38.913 1809.1 35.7533 Q1806.79 32.5936 1802.05 32.5936 Q1796.26 32.5936 1792.9 36.4419 Q1789.53 40.2903 1789.53 46.9338 L1789.53 72.576 L1782.04 72.576 L1782.04 45.4349 Q1782.04 38.8725 1779.73 35.7533 Q1777.42 32.5936 1772.6 32.5936 Q1766.89 32.5936 1763.53 36.4824 Q1760.17 40.3308 1760.17 46.9338 L1760.17 72.576 L1752.67 72.576 L1752.67 27.2059 L1760.17 27.2059 L1760.17 34.2544 Q1762.72 30.082 1766.28 28.0971 Q1769.85 26.1121 1774.75 26.1121 Q1779.69 26.1121 1783.13 28.6237 Q1786.62 31.1352 1788.28 35.9153 Z" fill="#000000" fill-rule="nonzero" fill-opacity="1" /><path clip-path="url(#clip960)" d="M1840.98 65.7705 L1840.98 89.8329 L1833.49 89.8329 L1833.49 27.2059 L1840.98 27.2059 L1840.98 34.0924 Q1843.33 30.0415 1846.9 28.0971 Q1850.5 26.1121 1855.48 26.1121 Q1863.75 26.1121 1868.89 32.6746 Q1874.08 39.2371 1874.08 49.9314 Q1874.08 60.6258 1868.89 67.1883 Q1863.75 73.7508 1855.48 73.7508 Q1850.5 73.7508 1846.9 71.8063 Q1843.33 69.8214 1840.98 65.7705 M1866.34 49.9314 Q1866.34 41.7081 1862.94 37.0496 Q1859.57 32.3505 1853.66 32.3505 Q1847.75 32.3505 1844.34 37.0496 Q1840.98 41.7081 1840.98 49.9314 Q1840.98 58.1548 1844.34 62.8538 Q1847.75 67.5124 1853.66 67.5124 Q1859.57 67.5124 1862.94 62.8538 Q1866.34 58.1548 1866.34 49.9314 Z" fill="#000000" fill-rule="nonzero" fill-opacity="1" /><path clip-path="url(#clip960)" d="M1907.05 49.7694 Q1898.02 49.7694 1894.53 51.8354 Q1891.05 53.9013 1891.05 58.8839 Q1891.05 62.8538 1893.64 65.2034 Q1896.28 67.5124 1900.77 67.5124 Q1906.97 67.5124 1910.7 63.1374 Q1914.46 58.7219 1914.46 51.4303 L1914.46 49.7694 L1907.05 49.7694 M1921.92 46.6907 L1921.92 72.576 L1914.46 72.576 L1914.46 65.6895 Q1911.91 69.8214 1908.1 71.8063 Q1904.3 73.7508 1898.79 73.7508 Q1891.82 73.7508 1887.69 69.8619 Q1883.6 65.9325 1883.6 59.3701 Q1883.6 51.7138 1888.7 47.825 Q1893.85 43.9361 1904.01 43.9361 L1914.46 43.9361 L1914.46 43.2069 Q1914.46 38.0623 1911.06 35.2672 Q1907.7 32.4315 1901.58 32.4315 Q1897.69 32.4315 1894.01 33.3632 Q1890.32 34.295 1886.92 36.1584 L1886.92 29.2718 Q1891.01 27.692 1894.86 26.9223 Q1898.71 26.1121 1902.35 26.1121 Q1912.2 26.1121 1917.06 31.2163 Q1921.92 36.3204 1921.92 46.6907 Z" fill="#000000" fill-rule="nonzero" fill-opacity="1" /><path clip-path="url(#clip960)" d="M1963.56 34.1734 Q1962.31 33.4443 1960.81 33.1202 Q1959.35 32.7556 1957.57 32.7556 Q1951.25 32.7556 1947.84 36.8875 Q1944.48 40.9789 1944.48 48.6757 L1944.48 72.576 L1936.99 72.576 L1936.99 27.2059 L1944.48 27.2059 L1944.48 34.2544 Q1946.83 30.1225 1950.6 28.1376 Q1954.37 26.1121 1959.75 26.1121 Q1960.52 26.1121 1961.45 26.2337 Q1962.39 26.3147 1963.52 26.5172 L1963.56 34.1734 Z" fill="#000000" fill-rule="nonzero" fill-opacity="1" /><path clip-path="url(#clip960)" d="M1971.38 27.2059 L1978.83 27.2059 L1978.83 72.576 L1971.38 72.576 L1971.38 27.2059 M1971.38 9.54393 L1978.83 9.54393 L1978.83 18.9825 L1971.38 18.9825 L1971.38 9.54393 Z" fill="#000000" fill-rule="nonzero" fill-opacity="1" /><path clip-path="url(#clip960)" d="M2023.35 28.5427 L2023.35 35.5912 Q2020.19 33.9709 2016.79 33.1607 Q2013.39 32.3505 2009.74 32.3505 Q2004.19 32.3505 2001.4 34.0519 Q1998.64 35.7533 1998.64 39.156 Q1998.64 41.7486 2000.63 43.2475 Q2002.61 44.7058 2008.61 46.0426 L2011.16 46.6097 Q2019.1 48.3111 2022.42 51.4303 Q2025.78 54.509 2025.78 60.0587 Q2025.78 66.3781 2020.76 70.0644 Q2015.78 73.7508 2007.03 73.7508 Q2003.38 73.7508 1999.41 73.0216 Q1995.48 72.3329 1991.11 70.9151 L1991.11 63.2184 Q1995.24 65.3654 1999.25 66.4591 Q2003.26 67.5124 2007.19 67.5124 Q2012.46 67.5124 2015.29 65.73 Q2018.13 63.9071 2018.13 60.6258 Q2018.13 57.5877 2016.06 55.9673 Q2014.04 54.3469 2007.11 52.8481 L2004.52 52.2405 Q1997.59 50.7821 1994.51 47.7845 Q1991.43 44.7463 1991.43 39.4801 Q1991.43 33.0797 1995.97 29.5959 Q2000.51 26.1121 2008.85 26.1121 Q2012.98 26.1121 2016.63 26.7198 Q2020.27 27.3274 2023.35 28.5427 Z" fill="#000000" fill-rule="nonzero" fill-opacity="1" /><path clip-path="url(#clip960)" d="M2055.23 32.4315 Q2049.24 32.4315 2045.75 37.1306 Q2042.27 41.7891 2042.27 49.9314 Q2042.27 58.0738 2045.71 62.7728 Q2049.2 67.4314 2055.23 67.4314 Q2061.19 67.4314 2064.67 62.7323 Q2068.16 58.0333 2068.16 49.9314 Q2068.16 41.8701 2064.67 37.1711 Q2061.19 32.4315 2055.23 32.4315 M2055.23 26.1121 Q2064.96 26.1121 2070.51 32.4315 Q2076.05 38.7509 2076.05 49.9314 Q2076.05 61.0714 2070.51 67.4314 Q2064.96 73.7508 2055.23 73.7508 Q2045.47 73.7508 2039.92 67.4314 Q2034.41 61.0714 2034.41 49.9314 Q2034.41 38.7509 2039.92 32.4315 Q2045.47 26.1121 2055.23 26.1121 Z" fill="#000000" fill-rule="nonzero" fill-opacity="1" /><path clip-path="url(#clip960)" d="M2126.12 45.1919 L2126.12 72.576 L2118.67 72.576 L2118.67 45.4349 Q2118.67 38.994 2116.16 35.7938 Q2113.65 32.5936 2108.62 32.5936 Q2102.59 32.5936 2099.1 36.4419 Q2095.62 40.2903 2095.62 46.9338 L2095.62 72.576 L2088.13 72.576 L2088.13 27.2059 L2095.62 27.2059 L2095.62 34.2544 Q2098.29 30.163 2101.9 28.1376 Q2105.55 26.1121 2110.28 26.1121 Q2118.1 26.1121 2122.11 30.9732 Q2126.12 35.7938 2126.12 45.1919 Z" fill="#000000" fill-rule="nonzero" fill-opacity="1" /><polyline clip-path="url(#clip961)" style="stroke:#000000; stroke-linecap:round; stroke-linejoin:round; stroke-width:8; stroke-opacity:1; fill:none" stroke-dasharray="32, 20" points="364.674,1688.65 375.954,1679.22 387.233,1669.99 398.513,1660.92 409.793,1651.98 421.073,1643.16 432.353,1634.44 443.632,1625.81 454.912,1617.27 466.192,1608.79 477.472,1600.39 488.752,1592.04 500.031,1583.75 511.311,1575.51 522.591,1567.33 533.871,1559.18 545.151,1551.09 556.43,1543.03 567.71,1535.01 578.99,1527.03 590.27,1519.09 601.55,1511.17 612.829,1503.29 624.109,1495.45 635.389,1487.63 646.669,1479.83 657.949,1472.07 669.228,1464.33 680.508,1456.62 691.788,1448.93 703.068,1441.26 714.347,1433.62 725.627,1426 736.907,1418.4 748.187,1410.82 759.467,1403.26 770.746,1395.72 782.026,1388.2 793.306,1380.7 804.586,1373.22 815.866,1365.75 827.145,1358.3 838.425,1350.87 849.705,1343.45 860.985,1336.05 872.265,1328.67 883.544,1321.3 894.824,1313.95 906.104,1306.6 917.384,1299.28 928.664,1291.97 939.943,1284.67 951.223,1277.38 962.503,1270.11 973.783,1262.85 985.063,1255.61 996.342,1248.37 1007.62,1241.15 1018.9,1233.94 1030.18,1226.74 1041.46,1219.55 1052.74,1212.38 1064.02,1205.21 1075.3,1198.06 1086.58,1190.91 1097.86,1183.78 1109.14,1176.66 1120.42,1169.55 1131.7,1162.45 1142.98,1155.35 1154.26,1148.27 1165.54,1141.2 1176.82,1134.13 1188.1,1127.08 1199.38,1120.04 1210.66,1113 1221.94,1105.97 1233.22,1098.96 1244.5,1091.95 1255.78,1084.95 1267.06,1077.95 1278.34,1070.97 1289.62,1063.99 1300.9,1057.03 1312.18,1050.07 1323.46,1043.12 1334.74,1036.17 1346.02,1029.24 1357.3,1022.31 1368.58,1015.39 1379.86,1008.47 1391.14,1001.57 1402.41,994.67 1413.69,987.779 1424.97,980.894 1436.25,974.017 1447.53,967.147 1458.81,960.284 1470.09,953.427 1481.37,946.577 "/>
<path clip-path="url(#clip961)" d="M323.315 1643.4 L346.041 1635.72 L368.768 1627.77 L391.495 1619.67 L414.221 1611.56 L436.948 1603.1 L459.675 1594.49 L482.401 1585.53 L505.128 1576.16 L527.855 1566.33 L550.582 1556.02 L573.308 1544.86 L596.035 1533.46 L618.762 1521.47 L641.488 1508.83 L664.215 1495.82 L686.942 1483.89 L709.668 1471.67 L732.395 1459.18 L755.122 1447.88 L777.849 1436.64 L800.575 1425.3 L823.302 1413.68 L846.029 1401.73 L868.755 1389.39 L891.482 1376.6 L914.209 1363.35 L936.935 1349.67 L959.662 1335.63 L982.389 1321.06 L1005.12 1306.23 L1027.84 1292.21 L1050.57 1278.3 L1073.3 1264.6 L1096.02 1250.71 L1118.75 1236.63 L1141.48 1222.38 L1164.2 1207.96 L1186.93 1193.33 L1209.66 1177.61 L1232.38 1162.65 L1255.11 1147.55 L1277.84 1132.34 L1300.56 1117.01 L1323.29 1101.49 L1346.02 1085.8 L1368.74 1070.04 L1391.47 1054.21 L1414.2 1038.59 L1436.92 1023.09 L1459.65 1007.63 L1482.38 992.263 L1505.1 976.849 L1527.83 961.389 L1550.56 945.884 L1573.28 930.335 L1596.01 915.456 L1618.74 900.754 L1641.46 885.31 L1664.19 869.563 L1686.92 853.819 L1709.64 838.078 L1732.37 822.868 L1755.1 807.765 L1777.82 793.247 L1800.55 779.066 L1823.28 764.703 L1846 750.287 L1868.73 735.781 L1891.46 721.721 L1914.18 706.435 L1936.91 690.877 L1959.64 675.048 L1982.36 658.984 L2005.09 643.008 L2027.82 627.496 L2050.54 615.547 L2073.27 603.87 L2096 592.349 L2118.72 580.863 L2141.45 569.407 L2164.18 557.977 L2186.9 546.568 L2209.63 535.176 L2232.36 523.796 L2255.08 512.425 L2277.81 501.06 L2300.54 489.699 L2323.26 478.342 L2345.99 466.988 L2368.72 455.638 L2391.44 444.291 L2414.17 432.947 L2436.9 421.605 L2459.62 410.265 L2482.35 398.927 L2505.08 387.591 L2527.8 376.255 L2550.53 364.92 L2573.26 353.585 L2573.26 189.463 L2550.53 205.865 L2527.8 222.265 L2505.08 238.663 L2482.35 255.056 L2459.62 271.444 L2436.9 287.824 L2414.17 304.196 L2391.44 320.559 L2368.72 336.91 L2345.99 353.248 L2323.26 369.572 L2300.54 385.88 L2277.81 401.706 L2255.08 417.36 L2232.36 433.162 L2209.63 449.775 L2186.9 466.377 L2164.18 482.963 L2141.45 499.53 L2118.72 515.914 L2096 530.984 L2073.27 546.077 L2050.54 560.79 L2027.82 575.508 L2005.09 590.282 L1982.36 605.859 L1959.64 621.427 L1936.91 636.675 L1914.18 651.725 L1891.46 665.918 L1868.73 679.66 L1846 694.821 L1823.28 709.678 L1800.55 724.318 L1777.82 737.869 L1755.1 751.222 L1732.37 764.667 L1709.64 778.291 L1686.92 792.103 L1664.19 806.109 L1641.46 820.316 L1618.74 834.68 L1596.01 849.206 L1573.28 863.948 L1550.56 878.903 L1527.83 894.064 L1505.1 909.178 L1482.38 924.212 L1459.65 939.353 L1436.92 954.664 L1414.2 969.902 L1391.47 984.851 L1368.74 999.535 L1346.02 1013.87 L1323.29 1028.06 L1300.56 1042.62 L1277.84 1057.56 L1255.11 1072.67 L1232.38 1087.82 L1209.66 1103.25 L1186.93 1118.96 L1164.2 1134.91 L1141.48 1151.08 L1118.75 1167.47 L1096.02 1184.04 L1073.3 1200.93 L1050.57 1217.47 L1027.84 1234.12 L1005.12 1250.84 L982.389 1267.63 L959.662 1284.41 L936.935 1301.25 L914.209 1318.56 L891.482 1335.83 L868.755 1352.92 L846.029 1369.8 L823.302 1386.49 L800.575 1402.94 L777.849 1416.32 L755.122 1427.87 L732.395 1442.47 L709.668 1456.27 L686.942 1467.84 L664.215 1479.05 L641.488 1489.76 L618.762 1500.27 L596.035 1510.41 L573.308 1520.09 L550.582 1529.57 L527.855 1538.86 L505.128 1548.02 L482.401 1557.05 L459.675 1565.95 L436.948 1574.73 L414.221 1583.38 L391.495 1591.87 L368.768 1600.27 L346.041 1608.57 L323.315 1616.79  Z" fill="#ff0000" fill-rule="evenodd" fill-opacity="0.15"/>
<polyline clip-path="url(#clip961)" style="stroke:#ff0000; stroke-linecap:round; stroke-linejoin:round; stroke-width:0; stroke-opacity:1; fill:none" stroke-dasharray="1, 2" points="323.315,1643.4 346.041,1635.72 368.768,1627.77 391.495,1619.67 414.221,1611.56 436.948,1603.1 459.675,1594.49 482.401,1585.53 505.128,1576.16 527.855,1566.33 550.582,1556.02 573.308,1544.86 596.035,1533.46 618.762,1521.47 641.488,1508.83 664.215,1495.82 686.942,1483.89 709.668,1471.67 732.395,1459.18 755.122,1447.88 777.849,1436.64 800.575,1425.3 823.302,1413.68 846.029,1401.73 868.755,1389.39 891.482,1376.6 914.209,1363.35 936.935,1349.67 959.662,1335.63 982.389,1321.06 1005.12,1306.23 1027.84,1292.21 1050.57,1278.3 1073.3,1264.6 1096.02,1250.71 1118.75,1236.63 1141.48,1222.38 1164.2,1207.96 1186.93,1193.33 1209.66,1177.61 1232.38,1162.65 1255.11,1147.55 1277.84,1132.34 1300.56,1117.01 1323.29,1101.49 1346.02,1085.8 1368.74,1070.04 1391.47,1054.21 1414.2,1038.59 1436.92,1023.09 1459.65,1007.63 1482.38,992.263 1505.1,976.849 1527.83,961.389 1550.56,945.884 1573.28,930.335 1596.01,915.456 1618.74,900.754 1641.46,885.31 1664.19,869.563 1686.92,853.819 1709.64,838.078 1732.37,822.868 1755.1,807.765 1777.82,793.247 1800.55,779.066 1823.28,764.703 1846,750.287 1868.73,735.781 1891.46,721.721 1914.18,706.435 1936.91,690.877 1959.64,675.048 1982.36,658.984 2005.09,643.008 2027.82,627.496 2050.54,615.547 2073.27,603.87 2096,592.349 2118.72,580.863 2141.45,569.407 2164.18,557.977 2186.9,546.568 2209.63,535.176 2232.36,523.796 2255.08,512.425 2277.81,501.06 2300.54,489.699 2323.26,478.342 2345.99,466.988 2368.72,455.638 2391.44,444.291 2414.17,432.947 2436.9,421.605 2459.62,410.265 2482.35,398.927 2505.08,387.591 2527.8,376.255 2550.53,364.92 2573.26,353.585 "/>
<path clip-path="url(#clip961)" d="M323.315 1640.59 L346.041 1633.28 L368.768 1625.73 L391.495 1617.91 L414.221 1609.81 L436.948 1601.39 L459.675 1592.63 L482.401 1583.52 L505.128 1574.03 L527.855 1564.13 L550.582 1553.81 L573.308 1543.03 L596.035 1532.01 L618.762 1520.04 L641.488 1509.46 L664.215 1499.31 L686.942 1487.44 L709.668 1475.11 L732.395 1462.37 L755.122 1449.66 L777.849 1436.88 L800.575 1425.25 L823.302 1414.97 L846.029 1403.17 L868.755 1389.54 L891.482 1375.92 L914.209 1363.79 L936.935 1351.42 L959.662 1338.89 L982.389 1326.27 L1005.12 1313.52 L1027.84 1299.7 L1050.57 1284.19 L1073.3 1269.71 L1096.02 1255.93 L1118.75 1241.95 L1141.48 1227.78 L1164.2 1213.43 L1186.93 1198.9 L1209.66 1184.19 L1232.38 1169.32 L1255.11 1154.29 L1277.84 1139.1 L1300.56 1123.76 L1323.29 1108.27 L1346.02 1092.65 L1368.74 1076.89 L1391.47 1061.01 L1414.2 1045.01 L1436.92 1028.89 L1459.65 1012.66 L1482.38 996.324 L1505.1 979.892 L1527.83 963.369 L1550.56 946.759 L1573.28 930.068 L1596.01 913.303 L1618.74 896.587 L1641.46 879.958 L1664.19 863.297 L1686.92 848.889 L1709.64 836.289 L1732.37 823.539 L1755.1 810.602 L1777.82 796.397 L1800.55 782.446 L1823.28 768.42 L1846 754.222 L1868.73 740.003 L1891.46 726.2 L1914.18 712.122 L1936.91 699.592 L1959.64 684.651 L1982.36 669.438 L2005.09 654.874 L2027.82 640.175 L2050.54 626.688 L2073.27 613.512 L2096 601.124 L2118.72 588.744 L2141.45 576.498 L2164.18 564.636 L2186.9 553.538 L2209.63 543.244 L2232.36 532.999 L2255.08 522.794 L2277.81 512.623 L2300.54 502.483 L2323.26 492.371 L2345.99 482.285 L2368.72 472.223 L2391.44 462.183 L2414.17 452.168 L2436.9 442.502 L2459.62 432.855 L2482.35 423.221 L2505.08 413.598 L2527.8 403.983 L2550.53 394.374 L2573.26 384.768 L2573.26 173.254 L2550.53 191.025 L2527.8 208.758 L2505.08 226.324 L2482.35 243.69 L2459.62 261.054 L2436.9 278.417 L2414.17 295.777 L2391.44 312.715 L2368.72 329.115 L2345.99 345.514 L2323.26 361.911 L2300.54 378.306 L2277.81 394.698 L2255.08 411.088 L2232.36 427.476 L2209.63 443.859 L2186.9 460.567 L2164.18 478.382 L2141.45 496.186 L2118.72 513.852 L2096 531.355 L2073.27 548.842 L2050.54 566.311 L2027.82 583.76 L2005.09 601.123 L1982.36 618.433 L1959.64 635.728 L1936.91 652.873 L1914.18 668.13 L1891.46 682.418 L1868.73 695.647 L1846 708.694 L1823.28 721.691 L1800.55 734.555 L1777.82 747.571 L1755.1 760.745 L1732.37 776.044 L1709.64 790.114 L1686.92 804.069 L1664.19 817.962 L1641.46 831.87 L1618.74 845.034 L1596.01 858.162 L1573.28 872.311 L1550.56 886.79 L1527.83 901.422 L1505.1 916.213 L1482.38 930.897 L1459.65 944.649 L1436.92 958.445 L1414.2 972.402 L1391.47 986.606 L1368.74 1001.07 L1346.02 1015.8 L1323.29 1030.63 L1300.56 1045.24 L1277.84 1059.67 L1255.11 1075.66 L1232.38 1092.52 L1209.66 1109.29 L1186.93 1126.23 L1164.2 1143.35 L1141.48 1160.62 L1118.75 1177.76 L1096.02 1194.9 L1073.3 1212.09 L1050.57 1229.27 L1027.84 1246.07 L1005.12 1262.65 L982.389 1279.17 L959.662 1295.5 L936.935 1311.86 L914.209 1328.19 L891.482 1344.43 L868.755 1360.46 L846.029 1376.15 L823.302 1391.46 L800.575 1406.37 L777.849 1420.87 L755.122 1435.04 L732.395 1447.86 L709.668 1458.63 L686.942 1469.58 L664.215 1479.16 L641.488 1488.91 L618.762 1498.52 L596.035 1507.99 L573.308 1517.34 L550.582 1526.56 L527.855 1535.67 L505.128 1544.67 L482.401 1553.51 L459.675 1562.22 L436.948 1570.78 L414.221 1578.81 L391.495 1586.77 L368.768 1593.96 L346.041 1600.92 L323.315 1607.96  Z" fill="#0000ff" fill-rule="evenodd" fill-opacity="0.15"/>
<polyline clip-path="url(#clip961)" style="stroke:#0000ff; stroke-linecap:round; stroke-linejoin:round; stroke-width:0; stroke-opacity:1; fill:none" stroke-dasharray="1, 2" points="323.315,1640.59 346.041,1633.28 368.768,1625.73 391.495,1617.91 414.221,1609.81 436.948,1601.39 459.675,1592.63 482.401,1583.52 505.128,1574.03 527.855,1564.13 550.582,1553.81 573.308,1543.03 596.035,1532.01 618.762,1520.04 641.488,1509.46 664.215,1499.31 686.942,1487.44 709.668,1475.11 732.395,1462.37 755.122,1449.66 777.849,1436.88 800.575,1425.25 823.302,1414.97 846.029,1403.17 868.755,1389.54 891.482,1375.92 914.209,1363.79 936.935,1351.42 959.662,1338.89 982.389,1326.27 1005.12,1313.52 1027.84,1299.7 1050.57,1284.19 1073.3,1269.71 1096.02,1255.93 1118.75,1241.95 1141.48,1227.78 1164.2,1213.43 1186.93,1198.9 1209.66,1184.19 1232.38,1169.32 1255.11,1154.29 1277.84,1139.1 1300.56,1123.76 1323.29,1108.27 1346.02,1092.65 1368.74,1076.89 1391.47,1061.01 1414.2,1045.01 1436.92,1028.89 1459.65,1012.66 1482.38,996.324 1505.1,979.892 1527.83,963.369 1550.56,946.759 1573.28,930.068 1596.01,913.303 1618.74,896.587 1641.46,879.958 1664.19,863.297 1686.92,848.889 1709.64,836.289 1732.37,823.539 1755.1,810.602 1777.82,796.397 1800.55,782.446 1823.28,768.42 1846,754.222 1868.73,740.003 1891.46,726.2 1914.18,712.122 1936.91,699.592 1959.64,684.651 1982.36,669.438 2005.09,654.874 2027.82,640.175 2050.54,626.688 2073.27,613.512 2096,601.124 2118.72,588.744 2141.45,576.498 2164.18,564.636 2186.9,553.538 2209.63,543.244 2232.36,532.999 2255.08,522.794 2277.81,512.623 2300.54,502.483 2323.26,492.371 2345.99,482.285 2368.72,472.223 2391.44,462.183 2414.17,452.168 2436.9,442.502 2459.62,432.855 2482.35,423.221 2505.08,413.598 2527.8,403.983 2550.53,394.374 2573.26,384.768 "/>
<path clip-path="url(#clip961)" d="M323.315 1641.64 L346.041 1635.54 L368.768 1629.45 L391.495 1623.35 L414.221 1617.24 L436.948 1611.14 L459.675 1605.02 L482.401 1598.9 L505.128 1592.77 L527.855 1586.64 L550.582 1580.5 L573.308 1574.35 L596.035 1568.2 L618.762 1561.67 L641.488 1554.06 L664.215 1547.61 L686.942 1541 L709.668 1536.83 L732.395 1533.59 L755.122 1526.86 L777.849 1520.09 L800.575 1513.67 L823.302 1508.93 L846.029 1504.17 L868.755 1499.42 L891.482 1498.87 L914.209 1498.86 L936.935 1498.86 L959.662 1498.86 L982.389 1498.86 L1005.12 1498.86 L1027.84 1498.86 L1050.57 1498.86 L1073.3 1498.86 L1096.02 1498.86 L1118.75 1498.86 L1141.48 1498.86 L1164.2 1498.86 L1186.93 1498.86 L1209.66 1498.85 L1232.38 1498.85 L1255.11 1498.85 L1277.84 1498.85 L1300.56 1498.85 L1323.29 1498.85 L1346.02 1498.85 L1368.74 1498.85 L1391.47 1498.85 L1414.2 1498.85 L1436.92 1498.85 L1459.65 1498.85 L1482.38 1498.85 L1505.1 1498.85 L1527.83 1498.85 L1550.56 1498.84 L1573.28 1498.84 L1596.01 1498.84 L1618.74 1498.84 L1641.46 1498.84 L1664.19 1498.84 L1686.92 1498.84 L1709.64 1498.84 L1732.37 1498.84 L1755.1 1498.84 L1777.82 1498.84 L1800.55 1498.84 L1823.28 1498.84 L1846 1498.84 L1868.73 1498.84 L1891.46 1498.83 L1914.18 1498.83 L1936.91 1498.83 L1959.64 1498.83 L1982.36 1498.83 L2005.09 1498.83 L2027.82 1498.83 L2050.54 1498.83 L2073.27 1498.83 L2096 1498.83 L2118.72 1498.83 L2141.45 1498.83 L2164.18 1498.83 L2186.9 1498.83 L2209.63 1498.83 L2232.36 1498.82 L2255.08 1498.82 L2277.81 1498.82 L2300.54 1498.82 L2323.26 1498.82 L2345.99 1498.82 L2368.72 1498.82 L2391.44 1498.82 L2414.17 1498.82 L2436.9 1498.82 L2459.62 1498.82 L2482.35 1498.82 L2505.08 1498.82 L2527.8 1498.82 L2550.53 1498.82 L2573.26 1498.81 L2573.26 839.583 L2550.53 847.427 L2527.8 855.27 L2505.08 863.113 L2482.35 870.956 L2459.62 878.799 L2436.9 886.642 L2414.17 894.486 L2391.44 902.329 L2368.72 910.172 L2345.99 918.015 L2323.26 925.858 L2300.54 933.702 L2277.81 941.545 L2255.08 949.388 L2232.36 957.231 L2209.63 965.074 L2186.9 972.918 L2164.18 980.761 L2141.45 988.604 L2118.72 996.447 L2096 1004.29 L2073.27 1012.13 L2050.54 1019.98 L2027.82 1027.82 L2005.09 1035.66 L1982.36 1043.51 L1959.64 1051.35 L1936.91 1059.19 L1914.18 1067.04 L1891.46 1074.88 L1868.73 1082.72 L1846 1090.57 L1823.28 1098.41 L1800.55 1106.25 L1777.82 1114.1 L1755.1 1121.94 L1732.37 1129.78 L1709.64 1137.53 L1686.92 1145.16 L1664.19 1152.8 L1641.46 1160.43 L1618.74 1168.07 L1596.01 1175.7 L1573.28 1183.34 L1550.56 1192.36 L1527.83 1201.41 L1505.1 1209.66 L1482.38 1217.75 L1459.65 1225.83 L1436.92 1233.93 L1414.2 1242.02 L1391.47 1250.12 L1368.74 1258.22 L1346.02 1266.33 L1323.29 1274.44 L1300.56 1282.56 L1277.84 1290.69 L1255.11 1294.59 L1232.38 1298.02 L1209.66 1301.47 L1186.93 1304.52 L1164.2 1310.9 L1141.48 1317.27 L1118.75 1322.24 L1096.02 1322.28 L1073.3 1322.33 L1050.57 1322.37 L1027.84 1322.42 L1005.12 1322.47 L982.389 1322.52 L959.662 1322.58 L936.935 1322.64 L914.209 1322.7 L891.482 1323.49 L868.755 1323.52 L846.029 1323.54 L823.302 1323.58 L800.575 1323.67 L777.849 1323.87 L755.122 1324.11 L732.395 1324.38 L709.668 1324.69 L686.942 1325.04 L664.215 1325.43 L641.488 1325.88 L618.762 1326.41 L596.035 1327.14 L573.308 1328.21 L550.582 1329.73 L527.855 1331.85 L505.128 1334.7 L482.401 1338.4 L459.675 1343.08 L436.948 1348.88 L414.221 1355.93 L391.495 1364.33 L368.768 1374.19 L346.041 1385.7 L323.315 1399  Z" fill="#008000" fill-rule="evenodd" fill-opacity="0.15"/>
<polyline clip-path="url(#clip961)" style="stroke:#008000; stroke-linecap:round; stroke-linejoin:round; stroke-width:0; stroke-opacity:1; fill:none" stroke-dasharray="1, 2" points="323.315,1641.64 346.041,1635.54 368.768,1629.45 391.495,1623.35 414.221,1617.24 436.948,1611.14 459.675,1605.02 482.401,1598.9 505.128,1592.77 527.855,1586.64 550.582,1580.5 573.308,1574.35 596.035,1568.2 618.762,1561.67 641.488,1554.06 664.215,1547.61 686.942,1541 709.668,1536.83 732.395,1533.59 755.122,1526.86 777.849,1520.09 800.575,1513.67 823.302,1508.93 846.029,1504.17 868.755,1499.42 891.482,1498.87 914.209,1498.86 936.935,1498.86 959.662,1498.86 982.389,1498.86 1005.12,1498.86 1027.84,1498.86 1050.57,1498.86 1073.3,1498.86 1096.02,1498.86 1118.75,1498.86 1141.48,1498.86 1164.2,1498.86 1186.93,1498.86 1209.66,1498.85 1232.38,1498.85 1255.11,1498.85 1277.84,1498.85 1300.56,1498.85 1323.29,1498.85 1346.02,1498.85 1368.74,1498.85 1391.47,1498.85 1414.2,1498.85 1436.92,1498.85 1459.65,1498.85 1482.38,1498.85 1505.1,1498.85 1527.83,1498.85 1550.56,1498.84 1573.28,1498.84 1596.01,1498.84 1618.74,1498.84 1641.46,1498.84 1664.19,1498.84 1686.92,1498.84 1709.64,1498.84 1732.37,1498.84 1755.1,1498.84 1777.82,1498.84 1800.55,1498.84 1823.28,1498.84 1846,1498.84 1868.73,1498.84 1891.46,1498.83 1914.18,1498.83 1936.91,1498.83 1959.64,1498.83 1982.36,1498.83 2005.09,1498.83 2027.82,1498.83 2050.54,1498.83 2073.27,1498.83 2096,1498.83 2118.72,1498.83 2141.45,1498.83 2164.18,1498.83 2186.9,1498.83 2209.63,1498.83 2232.36,1498.82 2255.08,1498.82 2277.81,1498.82 2300.54,1498.82 2323.26,1498.82 2345.99,1498.82 2368.72,1498.82 2391.44,1498.82 2414.17,1498.82 2436.9,1498.82 2459.62,1498.82 2482.35,1498.82 2505.08,1498.82 2527.8,1498.82 2550.53,1498.82 2573.26,1498.81 "/>
<polyline clip-path="url(#clip961)" style="stroke:#ff0000; stroke-linecap:round; stroke-linejoin:round; stroke-width:8; stroke-opacity:1; fill:none" points="364.674,1628.7 375.954,1624.89 387.233,1621.01 398.513,1617.04 409.793,1613 421.073,1608.87 432.353,1604.64 443.632,1600.33 454.912,1595.92 466.192,1591.41 477.472,1586.79 488.752,1582.06 500.031,1577.23 511.311,1572.27 522.591,1567.2 533.871,1562 545.151,1556.68 556.43,1551.22 567.71,1545.64 578.99,1539.91 590.27,1534.04 601.55,1528.02 612.829,1521.85 624.109,1515.53 635.389,1509.06 646.669,1502.42 657.949,1495.62 669.228,1488.66 680.508,1481.56 691.788,1474.32 703.068,1466.95 714.347,1459.46 725.627,1451.85 736.907,1444.14 748.187,1436.33 759.467,1428.43 770.746,1420.44 782.026,1412.39 793.306,1404.27 804.586,1396.09 815.866,1387.86 827.145,1379.59 838.425,1371.28 849.705,1362.96 860.985,1354.61 872.265,1346.26 883.544,1337.9 894.824,1329.55 906.104,1321.22 917.384,1312.91 928.664,1304.64 939.943,1296.4 951.223,1288.21 962.503,1280.08 973.783,1272.01 985.063,1264 996.342,1256.06 1007.62,1248.19 1018.9,1240.38 1030.18,1232.63 1041.46,1224.93 1052.74,1217.3 1064.02,1209.73 1075.3,1202.21 1086.58,1194.75 1097.86,1187.35 1109.14,1180 1120.42,1172.7 1131.7,1165.45 1142.98,1158.25 1154.26,1151.11 1165.54,1144.01 1176.82,1136.95 1188.1,1129.95 1199.38,1122.99 1210.66,1116.07 1221.94,1109.19 1233.22,1102.36 1244.5,1095.56 1255.78,1088.81 1267.06,1082.09 1278.34,1075.42 1289.62,1068.77 1300.9,1062.16 1312.18,1055.59 1323.46,1049.04 1334.74,1042.52 1346.02,1036.03 1357.3,1029.56 1368.58,1023.11 1379.86,1016.67 1391.14,1010.26 1402.41,1003.85 1413.69,997.462 1424.97,991.078 1436.25,984.7 1447.53,978.326 1458.81,971.953 1470.09,965.579 1481.37,959.202 "/>
<path clip-path="url(#clip960)" d="M335.314 492.376 L921.075 492.376 L921.075 181.336 L335.314 181.336  Z" fill="#ffffff" fill-rule="evenodd" fill-opacity="1"/>
<polyline clip-path="url(#clip960)" style="stroke:#000000; stroke-linecap:round; stroke-linejoin:round; stroke-width:4; stroke-opacity:1; fill:none" points="335.314,492.376 921.075,492.376 921.075,181.336 335.314,181.336 335.314,492.376 "/>
<polyline clip-path="url(#clip960)" style="stroke:#000000; stroke-linecap:round; stroke-linejoin:round; stroke-width:8; stroke-opacity:1; fill:none" stroke-dasharray="32, 20" points="361.814,233.176 520.81,233.176 "/>
<path clip-path="url(#clip960)" d="M547.309 215.896 L576.545 215.896 L576.545 219.831 L564.276 219.831 L564.276 250.456 L559.577 250.456 L559.577 219.831 L547.309 219.831 L547.309 215.896 Z" fill="#000000" fill-rule="nonzero" fill-opacity="1" /><path clip-path="url(#clip960)" d="M588.929 228.512 Q588.211 228.095 587.355 227.91 Q586.522 227.702 585.503 227.702 Q581.892 227.702 579.948 230.063 Q578.026 232.401 578.026 236.799 L578.026 250.456 L573.744 250.456 L573.744 224.531 L578.026 224.531 L578.026 228.558 Q579.369 226.197 581.522 225.063 Q583.674 223.906 586.753 223.906 Q587.193 223.906 587.725 223.975 Q588.258 224.021 588.906 224.137 L588.929 228.512 Z" fill="#000000" fill-rule="nonzero" fill-opacity="1" /><path clip-path="url(#clip960)" d="M592.957 240.225 L592.957 224.531 L597.216 224.531 L597.216 240.063 Q597.216 243.743 598.651 245.595 Q600.086 247.424 602.957 247.424 Q606.406 247.424 608.397 245.225 Q610.41 243.026 610.41 239.229 L610.41 224.531 L614.67 224.531 L614.67 250.456 L610.41 250.456 L610.41 246.475 Q608.86 248.836 606.799 249.993 Q604.762 251.128 602.054 251.128 Q597.586 251.128 595.272 248.35 Q592.957 245.572 592.957 240.225 M603.674 223.906 L603.674 223.906 Z" fill="#000000" fill-rule="nonzero" fill-opacity="1" /><path clip-path="url(#clip960)" d="M645.619 236.429 L645.619 238.512 L626.035 238.512 Q626.313 242.91 628.674 245.225 Q631.058 247.516 635.295 247.516 Q637.748 247.516 640.04 246.915 Q642.355 246.313 644.623 245.109 L644.623 249.137 Q642.332 250.109 639.924 250.618 Q637.517 251.128 635.04 251.128 Q628.836 251.128 625.202 247.516 Q621.591 243.905 621.591 237.748 Q621.591 231.382 625.017 227.655 Q628.466 223.906 634.299 223.906 Q639.531 223.906 642.563 227.285 Q645.619 230.642 645.619 236.429 M641.359 235.179 Q641.313 231.683 639.392 229.6 Q637.494 227.517 634.346 227.517 Q630.781 227.517 628.628 229.53 Q626.498 231.544 626.174 235.202 L641.359 235.179 Z" fill="#000000" fill-rule="nonzero" fill-opacity="1" /><path clip-path="url(#clip960)" d="M677.887 218.489 L689.854 250.456 L685.341 250.456 L678.072 231.29 L669.137 250.456 L664.623 250.456 L675.989 225.595 L674.276 221.012 Q673.188 218.095 670.711 218.095 L668.489 218.095 L668.489 214.438 L671.197 214.484 Q676.429 214.554 677.887 218.489 Z" fill="#000000" fill-rule="nonzero" fill-opacity="1" /><path clip-path="url(#clip960)" d="M361.814 305.752 L520.81 305.752 L520.81 264.28 L361.814 264.28 L361.814 305.752  Z" fill="#ff0000" fill-rule="evenodd" fill-opacity="0.15"/>
<polyline clip-path="url(#clip960)" style="stroke:#ff0000; stroke-linecap:round; stroke-linejoin:round; stroke-width:0.8; stroke-opacity:1; fill:none" stroke-dasharray="1, 2" points="361.814,264.28 520.81,264.28 "/>
<path clip-path="url(#clip960)" d="M551.985 271.579 L551.985 284.565 L557.864 284.565 Q561.128 284.565 562.911 282.875 Q564.693 281.185 564.693 278.06 Q564.693 274.958 562.911 273.269 Q561.128 271.579 557.864 271.579 L551.985 271.579 M547.309 267.736 L557.864 267.736 Q563.675 267.736 566.638 270.375 Q569.624 272.991 569.624 278.06 Q569.624 283.176 566.638 285.792 Q563.675 288.407 557.864 288.407 L551.985 288.407 L551.985 302.296 L547.309 302.296 L547.309 267.736 Z" fill="#000000" fill-rule="nonzero" fill-opacity="1" /><path clip-path="url(#clip960)" d="M585.364 289.264 Q580.202 289.264 578.212 290.444 Q576.221 291.625 576.221 294.472 Q576.221 296.741 577.702 298.083 Q579.207 299.403 581.776 299.403 Q585.318 299.403 587.448 296.903 Q589.6 294.38 589.6 290.213 L589.6 289.264 L585.364 289.264 M593.86 287.505 L593.86 302.296 L589.6 302.296 L589.6 298.361 Q588.142 300.722 585.966 301.856 Q583.79 302.968 580.642 302.968 Q576.661 302.968 574.3 300.745 Q571.962 298.5 571.962 294.75 Q571.962 290.375 574.878 288.153 Q577.818 285.931 583.628 285.931 L589.6 285.931 L589.6 285.514 Q589.6 282.574 587.656 280.977 Q585.735 279.357 582.239 279.357 Q580.017 279.357 577.911 279.889 Q575.804 280.421 573.86 281.486 L573.86 277.551 Q576.198 276.648 578.397 276.208 Q580.596 275.746 582.679 275.746 Q588.304 275.746 591.082 278.662 Q593.86 281.579 593.86 287.505 Z" fill="#000000" fill-rule="nonzero" fill-opacity="1" /><path clip-path="url(#clip960)" d="M617.656 280.352 Q616.938 279.935 616.082 279.75 Q615.248 279.542 614.23 279.542 Q610.619 279.542 608.674 281.903 Q606.753 284.241 606.753 288.639 L606.753 302.296 L602.471 302.296 L602.471 276.371 L606.753 276.371 L606.753 280.398 Q608.096 278.037 610.248 276.903 Q612.401 275.746 615.48 275.746 Q615.92 275.746 616.452 275.815 Q616.984 275.861 617.633 275.977 L617.656 280.352 Z" fill="#000000" fill-rule="nonzero" fill-opacity="1" /><path clip-path="url(#clip960)" d="M633.906 289.264 Q628.744 289.264 626.753 290.444 Q624.762 291.625 624.762 294.472 Q624.762 296.741 626.244 298.083 Q627.748 299.403 630.318 299.403 Q633.859 299.403 635.989 296.903 Q638.142 294.38 638.142 290.213 L638.142 289.264 L633.906 289.264 M642.401 287.505 L642.401 302.296 L638.142 302.296 L638.142 298.361 Q636.683 300.722 634.508 301.856 Q632.332 302.968 629.183 302.968 Q625.202 302.968 622.841 300.745 Q620.503 298.5 620.503 294.75 Q620.503 290.375 623.42 288.153 Q626.359 285.931 632.17 285.931 L638.142 285.931 L638.142 285.514 Q638.142 282.574 636.197 280.977 Q634.276 279.357 630.781 279.357 Q628.558 279.357 626.452 279.889 Q624.346 280.421 622.401 281.486 L622.401 277.551 Q624.739 276.648 626.938 276.208 Q629.137 275.746 631.221 275.746 Q636.845 275.746 639.623 278.662 Q642.401 281.579 642.401 287.505 Z" fill="#000000" fill-rule="nonzero" fill-opacity="1" /><path clip-path="url(#clip960)" d="M671.359 281.347 Q672.956 278.477 675.179 277.111 Q677.401 275.746 680.41 275.746 Q684.461 275.746 686.66 278.593 Q688.859 281.417 688.859 286.648 L688.859 302.296 L684.577 302.296 L684.577 286.787 Q684.577 283.06 683.257 281.255 Q681.938 279.449 679.23 279.449 Q675.919 279.449 673.998 281.648 Q672.077 283.847 672.077 287.644 L672.077 302.296 L667.794 302.296 L667.794 286.787 Q667.794 283.037 666.475 281.255 Q665.156 279.449 662.401 279.449 Q659.137 279.449 657.216 281.671 Q655.294 283.87 655.294 287.644 L655.294 302.296 L651.012 302.296 L651.012 276.371 L655.294 276.371 L655.294 280.398 Q656.753 278.014 658.79 276.88 Q660.827 275.746 663.628 275.746 Q666.452 275.746 668.419 277.181 Q670.41 278.616 671.359 281.347 Z" fill="#000000" fill-rule="nonzero" fill-opacity="1" /><path clip-path="url(#clip960)" d="M719.53 288.269 L719.53 290.352 L699.947 290.352 Q700.225 294.75 702.586 297.065 Q704.97 299.356 709.206 299.356 Q711.66 299.356 713.952 298.755 Q716.266 298.153 718.535 296.949 L718.535 300.977 Q716.243 301.949 713.836 302.458 Q711.428 302.968 708.952 302.968 Q702.748 302.968 699.114 299.356 Q695.503 295.745 695.503 289.588 Q695.503 283.222 698.928 279.495 Q702.378 275.746 708.211 275.746 Q713.442 275.746 716.475 279.125 Q719.53 282.482 719.53 288.269 M715.271 287.019 Q715.225 283.523 713.303 281.44 Q711.405 279.357 708.257 279.357 Q704.692 279.357 702.54 281.37 Q700.41 283.384 700.086 287.042 L715.271 287.019 Z" fill="#000000" fill-rule="nonzero" fill-opacity="1" /><path clip-path="url(#clip960)" d="M730.734 269.009 L730.734 276.371 L739.507 276.371 L739.507 279.681 L730.734 279.681 L730.734 293.755 Q730.734 296.926 731.59 297.829 Q732.47 298.731 735.132 298.731 L739.507 298.731 L739.507 302.296 L735.132 302.296 Q730.201 302.296 728.326 300.468 Q726.451 298.616 726.451 293.755 L726.451 279.681 L723.327 279.681 L723.327 276.371 L726.451 276.371 L726.451 269.009 L730.734 269.009 Z" fill="#000000" fill-rule="nonzero" fill-opacity="1" /><path clip-path="url(#clip960)" d="M760.132 280.352 Q759.414 279.935 758.558 279.75 Q757.724 279.542 756.706 279.542 Q753.095 279.542 751.15 281.903 Q749.229 284.241 749.229 288.639 L749.229 302.296 L744.947 302.296 L744.947 276.371 L749.229 276.371 L749.229 280.398 Q750.572 278.037 752.725 276.903 Q754.877 275.746 757.956 275.746 Q758.396 275.746 758.928 275.815 Q759.461 275.861 760.109 275.977 L760.132 280.352 Z" fill="#000000" fill-rule="nonzero" fill-opacity="1" /><path clip-path="url(#clip960)" d="M764.599 276.371 L768.859 276.371 L768.859 302.296 L764.599 302.296 L764.599 276.371 M764.599 266.278 L768.859 266.278 L768.859 271.671 L764.599 271.671 L764.599 266.278 Z" fill="#000000" fill-rule="nonzero" fill-opacity="1" /><path clip-path="url(#clip960)" d="M796.428 277.366 L796.428 281.347 Q794.622 280.352 792.794 279.866 Q790.988 279.357 789.136 279.357 Q784.993 279.357 782.701 281.995 Q780.41 284.611 780.41 289.357 Q780.41 294.102 782.701 296.741 Q784.993 299.356 789.136 299.356 Q790.988 299.356 792.794 298.87 Q794.622 298.361 796.428 297.366 L796.428 301.301 Q794.646 302.134 792.724 302.551 Q790.826 302.968 788.673 302.968 Q782.817 302.968 779.368 299.287 Q775.919 295.607 775.919 289.357 Q775.919 283.014 779.391 279.38 Q782.886 275.746 788.951 275.746 Q790.919 275.746 792.794 276.162 Q794.669 276.556 796.428 277.366 Z" fill="#000000" fill-rule="nonzero" fill-opacity="1" /><path clip-path="url(#clip960)" d="M361.814 357.592 L520.81 357.592 L520.81 316.12 L361.814 316.12 L361.814 357.592  Z" fill="#0000ff" fill-rule="evenodd" fill-opacity="0.15"/>
<polyline clip-path="url(#clip960)" style="stroke:#0000ff; stroke-linecap:round; stroke-linejoin:round; stroke-width:0.8; stroke-opacity:1; fill:none" stroke-dasharray="1, 2" points="361.814,316.12 520.81,316.12 "/>
<path clip-path="url(#clip960)" d="M547.309 319.576 L553.605 319.576 L568.929 348.488 L568.929 319.576 L573.466 319.576 L573.466 354.136 L567.17 354.136 L551.846 325.224 L551.846 354.136 L547.309 354.136 L547.309 319.576 Z" fill="#000000" fill-rule="nonzero" fill-opacity="1" /><path clip-path="url(#clip960)" d="M592.633 331.197 Q589.207 331.197 587.216 333.882 Q585.225 336.544 585.225 341.197 Q585.225 345.849 587.193 348.534 Q589.184 351.196 592.633 351.196 Q596.036 351.196 598.026 348.511 Q600.017 345.826 600.017 341.197 Q600.017 336.59 598.026 333.905 Q596.036 331.197 592.633 331.197 M592.633 327.586 Q598.188 327.586 601.36 331.197 Q604.531 334.808 604.531 341.197 Q604.531 347.562 601.36 351.196 Q598.188 354.808 592.633 354.808 Q587.054 354.808 583.883 351.196 Q580.735 347.562 580.735 341.197 Q580.735 334.808 583.883 331.197 Q587.054 327.586 592.633 327.586 Z" fill="#000000" fill-rule="nonzero" fill-opacity="1" /><path clip-path="url(#clip960)" d="M633.142 338.488 L633.142 354.136 L628.883 354.136 L628.883 338.627 Q628.883 334.947 627.447 333.118 Q626.012 331.289 623.142 331.289 Q619.693 331.289 617.702 333.488 Q615.711 335.687 615.711 339.484 L615.711 354.136 L611.429 354.136 L611.429 328.211 L615.711 328.211 L615.711 332.238 Q617.239 329.9 619.299 328.743 Q621.383 327.586 624.091 327.586 Q628.558 327.586 630.85 330.363 Q633.142 333.118 633.142 338.488 Z" fill="#000000" fill-rule="nonzero" fill-opacity="1" /><path clip-path="url(#clip960)" d="M645.757 350.247 L645.757 363.997 L641.475 363.997 L641.475 328.211 L645.757 328.211 L645.757 332.146 Q647.1 329.831 649.137 328.72 Q651.197 327.586 654.044 327.586 Q658.767 327.586 661.706 331.335 Q664.669 335.085 664.669 341.197 Q664.669 347.308 661.706 351.058 Q658.767 354.808 654.044 354.808 Q651.197 354.808 649.137 353.696 Q647.1 352.562 645.757 350.247 M660.248 341.197 Q660.248 336.497 658.304 333.835 Q656.382 331.15 653.003 331.15 Q649.623 331.15 647.679 333.835 Q645.757 336.497 645.757 341.197 Q645.757 345.896 647.679 348.581 Q649.623 351.243 653.003 351.243 Q656.382 351.243 658.304 348.581 Q660.248 345.896 660.248 341.197 Z" fill="#000000" fill-rule="nonzero" fill-opacity="1" /><path clip-path="url(#clip960)" d="M683.512 341.104 Q678.35 341.104 676.359 342.284 Q674.368 343.465 674.368 346.312 Q674.368 348.581 675.85 349.923 Q677.355 351.243 679.924 351.243 Q683.466 351.243 685.595 348.743 Q687.748 346.22 687.748 342.053 L687.748 341.104 L683.512 341.104 M692.007 339.345 L692.007 354.136 L687.748 354.136 L687.748 350.201 Q686.29 352.562 684.114 353.696 Q681.938 354.808 678.79 354.808 Q674.808 354.808 672.447 352.585 Q670.109 350.34 670.109 346.59 Q670.109 342.215 673.026 339.993 Q675.966 337.771 681.776 337.771 L687.748 337.771 L687.748 337.354 Q687.748 334.414 685.804 332.817 Q683.882 331.197 680.387 331.197 Q678.165 331.197 676.058 331.729 Q673.952 332.261 672.007 333.326 L672.007 329.391 Q674.345 328.488 676.544 328.048 Q678.743 327.586 680.827 327.586 Q686.452 327.586 689.229 330.502 Q692.007 333.419 692.007 339.345 Z" fill="#000000" fill-rule="nonzero" fill-opacity="1" /><path clip-path="url(#clip960)" d="M715.803 332.192 Q715.086 331.775 714.229 331.59 Q713.396 331.382 712.377 331.382 Q708.766 331.382 706.822 333.743 Q704.901 336.081 704.901 340.479 L704.901 354.136 L700.618 354.136 L700.618 328.211 L704.901 328.211 L704.901 332.238 Q706.243 329.877 708.396 328.743 Q710.549 327.586 713.627 327.586 Q714.067 327.586 714.6 327.655 Q715.132 327.701 715.78 327.817 L715.803 332.192 Z" fill="#000000" fill-rule="nonzero" fill-opacity="1" /><path clip-path="url(#clip960)" d="M732.053 341.104 Q726.891 341.104 724.901 342.284 Q722.91 343.465 722.91 346.312 Q722.91 348.581 724.391 349.923 Q725.896 351.243 728.465 351.243 Q732.007 351.243 734.137 348.743 Q736.289 346.22 736.289 342.053 L736.289 341.104 L732.053 341.104 M740.549 339.345 L740.549 354.136 L736.289 354.136 L736.289 350.201 Q734.831 352.562 732.655 353.696 Q730.479 354.808 727.331 354.808 Q723.35 354.808 720.989 352.585 Q718.651 350.34 718.651 346.59 Q718.651 342.215 721.567 339.993 Q724.507 337.771 730.317 337.771 L736.289 337.771 L736.289 337.354 Q736.289 334.414 734.345 332.817 Q732.424 331.197 728.928 331.197 Q726.706 331.197 724.6 331.729 Q722.493 332.261 720.549 333.326 L720.549 329.391 Q722.887 328.488 725.086 328.048 Q727.285 327.586 729.368 327.586 Q734.993 327.586 737.771 330.502 Q740.549 333.419 740.549 339.345 Z" fill="#000000" fill-rule="nonzero" fill-opacity="1" /><path clip-path="url(#clip960)" d="M769.507 333.187 Q771.104 330.317 773.326 328.951 Q775.548 327.586 778.558 327.586 Q782.609 327.586 784.808 330.433 Q787.007 333.257 787.007 338.488 L787.007 354.136 L782.724 354.136 L782.724 338.627 Q782.724 334.9 781.405 333.095 Q780.085 331.289 777.377 331.289 Q774.067 331.289 772.146 333.488 Q770.224 335.687 770.224 339.484 L770.224 354.136 L765.942 354.136 L765.942 338.627 Q765.942 334.877 764.623 333.095 Q763.303 331.289 760.549 331.289 Q757.285 331.289 755.363 333.511 Q753.442 335.71 753.442 339.484 L753.442 354.136 L749.16 354.136 L749.16 328.211 L753.442 328.211 L753.442 332.238 Q754.9 329.854 756.937 328.72 Q758.974 327.586 761.775 327.586 Q764.599 327.586 766.567 329.021 Q768.558 330.456 769.507 333.187 Z" fill="#000000" fill-rule="nonzero" fill-opacity="1" /><path clip-path="url(#clip960)" d="M817.678 340.109 L817.678 342.192 L798.095 342.192 Q798.372 346.59 800.734 348.905 Q803.118 351.196 807.354 351.196 Q809.808 351.196 812.099 350.595 Q814.414 349.993 816.682 348.789 L816.682 352.817 Q814.391 353.789 811.983 354.298 Q809.576 354.808 807.099 354.808 Q800.896 354.808 797.261 351.196 Q793.65 347.585 793.65 341.428 Q793.65 335.062 797.076 331.335 Q800.525 327.586 806.358 327.586 Q811.59 327.586 814.622 330.965 Q817.678 334.322 817.678 340.109 M813.419 338.859 Q813.372 335.363 811.451 333.28 Q809.553 331.197 806.405 331.197 Q802.84 331.197 800.687 333.21 Q798.558 335.224 798.234 338.882 L813.419 338.859 Z" fill="#000000" fill-rule="nonzero" fill-opacity="1" /><path clip-path="url(#clip960)" d="M828.882 320.849 L828.882 328.211 L837.655 328.211 L837.655 331.521 L828.882 331.521 L828.882 345.595 Q828.882 348.766 829.738 349.669 Q830.618 350.571 833.28 350.571 L837.655 350.571 L837.655 354.136 L833.28 354.136 Q828.349 354.136 826.474 352.308 Q824.599 350.456 824.599 345.595 L824.599 331.521 L821.474 331.521 L821.474 328.211 L824.599 328.211 L824.599 320.849 L828.882 320.849 Z" fill="#000000" fill-rule="nonzero" fill-opacity="1" /><path clip-path="url(#clip960)" d="M858.279 332.192 Q857.562 331.775 856.705 331.59 Q855.872 331.382 854.854 331.382 Q851.242 331.382 849.298 333.743 Q847.377 336.081 847.377 340.479 L847.377 354.136 L843.094 354.136 L843.094 328.211 L847.377 328.211 L847.377 332.238 Q848.719 329.877 850.872 328.743 Q853.025 327.586 856.104 327.586 Q856.543 327.586 857.076 327.655 Q857.608 327.701 858.256 327.817 L858.279 332.192 Z" fill="#000000" fill-rule="nonzero" fill-opacity="1" /><path clip-path="url(#clip960)" d="M862.747 328.211 L867.006 328.211 L867.006 354.136 L862.747 354.136 L862.747 328.211 M862.747 318.118 L867.006 318.118 L867.006 323.511 L862.747 323.511 L862.747 318.118 Z" fill="#000000" fill-rule="nonzero" fill-opacity="1" /><path clip-path="url(#clip960)" d="M894.576 329.206 L894.576 333.187 Q892.77 332.192 890.941 331.706 Q889.136 331.197 887.284 331.197 Q883.14 331.197 880.849 333.835 Q878.557 336.451 878.557 341.197 Q878.557 345.942 880.849 348.581 Q883.14 351.196 887.284 351.196 Q889.136 351.196 890.941 350.71 Q892.77 350.201 894.576 349.206 L894.576 353.141 Q892.793 353.974 890.872 354.391 Q888.974 354.808 886.821 354.808 Q880.965 354.808 877.515 351.127 Q874.066 347.447 874.066 341.197 Q874.066 334.854 877.539 331.22 Q881.034 327.586 887.099 327.586 Q889.066 327.586 890.941 328.002 Q892.816 328.396 894.576 329.206 Z" fill="#000000" fill-rule="nonzero" fill-opacity="1" /><path clip-path="url(#clip960)" d="M361.814 409.432 L520.81 409.432 L520.81 367.96 L361.814 367.96 L361.814 409.432  Z" fill="#008000" fill-rule="evenodd" fill-opacity="0.15"/>
<polyline clip-path="url(#clip960)" style="stroke:#008000; stroke-linecap:round; stroke-linejoin:round; stroke-width:0.8; stroke-opacity:1; fill:none" stroke-dasharray="1, 2" points="361.814,367.96 520.81,367.96 "/>
<path clip-path="url(#clip960)" d="M575.179 374.078 L575.179 379.009 Q572.818 376.81 570.133 375.722 Q567.471 374.634 564.462 374.634 Q558.536 374.634 555.388 378.268 Q552.239 381.879 552.239 388.731 Q552.239 395.56 555.388 399.194 Q558.536 402.805 564.462 402.805 Q567.471 402.805 570.133 401.717 Q572.818 400.629 575.179 398.43 L575.179 403.314 Q572.725 404.981 569.971 405.814 Q567.239 406.648 564.184 406.648 Q556.337 406.648 551.823 401.856 Q547.309 397.041 547.309 388.731 Q547.309 380.398 551.823 375.606 Q556.337 370.791 564.184 370.791 Q567.286 370.791 570.017 371.625 Q572.772 372.435 575.179 374.078 Z" fill="#000000" fill-rule="nonzero" fill-opacity="1" /><path clip-path="url(#clip960)" d="M593.998 392.944 Q588.836 392.944 586.846 394.124 Q584.855 395.305 584.855 398.152 Q584.855 400.421 586.337 401.763 Q587.841 403.083 590.411 403.083 Q593.952 403.083 596.082 400.583 Q598.235 398.06 598.235 393.893 L598.235 392.944 L593.998 392.944 M602.494 391.185 L602.494 405.976 L598.235 405.976 L598.235 402.041 Q596.776 404.402 594.6 405.536 Q592.424 406.648 589.276 406.648 Q585.295 406.648 582.934 404.425 Q580.596 402.18 580.596 398.43 Q580.596 394.055 583.512 391.833 Q586.452 389.611 592.262 389.611 L598.235 389.611 L598.235 389.194 Q598.235 386.254 596.29 384.657 Q594.369 383.037 590.874 383.037 Q588.651 383.037 586.545 383.569 Q584.438 384.101 582.494 385.166 L582.494 381.231 Q584.832 380.328 587.031 379.888 Q589.23 379.426 591.313 379.426 Q596.938 379.426 599.716 382.342 Q602.494 385.259 602.494 391.185 Z" fill="#000000" fill-rule="nonzero" fill-opacity="1" /><path clip-path="url(#clip960)" d="M627.795 380.814 L627.795 384.842 Q625.989 383.916 624.045 383.453 Q622.1 382.99 620.017 382.99 Q616.846 382.99 615.248 383.963 Q613.674 384.935 613.674 386.879 Q613.674 388.361 614.809 389.217 Q615.943 390.05 619.369 390.814 L620.827 391.138 Q625.364 392.111 627.262 393.893 Q629.183 395.652 629.183 398.824 Q629.183 402.435 626.313 404.541 Q623.466 406.648 618.466 406.648 Q616.383 406.648 614.114 406.231 Q611.869 405.837 609.369 405.027 L609.369 400.629 Q611.73 401.856 614.022 402.481 Q616.313 403.083 618.559 403.083 Q621.568 403.083 623.188 402.064 Q624.809 401.023 624.809 399.148 Q624.809 397.412 623.628 396.486 Q622.471 395.56 618.512 394.703 L617.031 394.356 Q613.072 393.523 611.313 391.81 Q609.554 390.074 609.554 387.064 Q609.554 383.407 612.147 381.416 Q614.739 379.426 619.508 379.426 Q621.869 379.426 623.952 379.773 Q626.035 380.12 627.795 380.814 Z" fill="#000000" fill-rule="nonzero" fill-opacity="1" /><path clip-path="url(#clip960)" d="M658.142 391.949 L658.142 394.032 L638.558 394.032 Q638.836 398.43 641.197 400.745 Q643.582 403.036 647.818 403.036 Q650.271 403.036 652.563 402.435 Q654.878 401.833 657.146 400.629 L657.146 404.657 Q654.855 405.629 652.447 406.138 Q650.04 406.648 647.563 406.648 Q641.359 406.648 637.725 403.036 Q634.114 399.425 634.114 393.268 Q634.114 386.902 637.54 383.175 Q640.989 379.426 646.822 379.426 Q652.054 379.426 655.086 382.805 Q658.142 386.162 658.142 391.949 M653.882 390.699 Q653.836 387.203 651.915 385.12 Q650.017 383.037 646.869 383.037 Q643.304 383.037 641.151 385.05 Q639.021 387.064 638.697 390.722 L653.882 390.699 Z" fill="#000000" fill-rule="nonzero" fill-opacity="1" /><polyline clip-path="url(#clip960)" style="stroke:#ff0000; stroke-linecap:round; stroke-linejoin:round; stroke-width:8; stroke-opacity:1; fill:none" points="361.814,440.536 520.81,440.536 "/>
<path clip-path="url(#clip960)" d="M547.309 423.256 L567.17 423.256 L567.17 427.191 L551.985 427.191 L551.985 437.377 L565.688 437.377 L565.688 441.312 L551.985 441.312 L551.985 457.816 L547.309 457.816 L547.309 423.256 Z" fill="#000000" fill-rule="nonzero" fill-opacity="1" /><path clip-path="url(#clip960)" d="M570.943 431.891 L575.202 431.891 L575.202 457.816 L570.943 457.816 L570.943 431.891 M570.943 421.798 L575.202 421.798 L575.202 427.191 L570.943 427.191 L570.943 421.798 Z" fill="#000000" fill-rule="nonzero" fill-opacity="1" /><path clip-path="url(#clip960)" d="M588.327 424.529 L588.327 431.891 L597.1 431.891 L597.1 435.201 L588.327 435.201 L588.327 449.275 Q588.327 452.446 589.184 453.349 Q590.063 454.251 592.725 454.251 L597.1 454.251 L597.1 457.816 L592.725 457.816 Q587.795 457.816 585.92 455.988 Q584.045 454.136 584.045 449.275 L584.045 435.201 L580.92 435.201 L580.92 431.891 L584.045 431.891 L584.045 424.529 L588.327 424.529 Z" fill="#000000" fill-rule="nonzero" fill-opacity="1" /></svg>
