<?xml version="1.0" encoding="utf-8"?>
<svg xmlns="http://www.w3.org/2000/svg" xmlns:xlink="http://www.w3.org/1999/xlink" width="672" height="480" viewBox="0 0 2688 1920">
<defs>
  <clipPath id="clip650">
    <rect x="0" y="0" width="2688" height="1920"/>
  </clipPath>
</defs>
<path clip-path="url(#clip650)" d="M0 1920 L2688 1920 L2688 -4.26326e-14 L0 -4.26326e-14  Z" fill="#ffffff" fill-rule="evenodd" fill-opacity="1"/>
<defs>
  <clipPath id="clip651">
    <rect x="226" y="127" width="2416" height="1607"/>
  </clipPath>
</defs>
<path clip-path="url(#clip650)" d="M226.141 1734.12 L2640.76 1734.12 L2640.76 127.792 L226.141 127.792  Z" fill="#ffffff" fill-rule="evenodd" fill-opacity="1"/>
<polyline clip-path="url(#clip651)" style="stroke:#000000; stroke-linecap:round; stroke-linejoin:round; stroke-width:2; stroke-opacity:0.1; fill:none" points="294.479,1734.12 294.479,127.792 "/>
<polyline clip-path="url(#clip651)" style="stroke:#000000; stroke-linecap:round; stroke-linejoin:round; stroke-width:2; stroke-opacity:0.1; fill:none" points="714.535,1734.12 714.535,127.792 "/>
<polyline clip-path="url(#clip651)" style="stroke:#000000; stroke-linecap:round; stroke-linejoin:round; stroke-width:2; stroke-opacity:0.1; fill:none" points="1134.59,1734.12 1134.59,127.792 "/>
<polyline clip-path="url(#clip651)" style="stroke:#000000; stroke-linecap:round; stroke-linejoin:round; stroke-width:2; stroke-opacity:0.1; fill:none" points="1554.65,1734.12 1554.65,127.792 "/>
<polyline clip-path="url(#clip651)" style="stroke:#000000; stroke-linecap:round; stroke-linejoin:round; stroke-width:2; stroke-opacity:0.1; fill:none" points="1974.71,1734.12 1974.71,127.792 "/>
<polyline clip-path="url(#clip651)" style="stroke:#000000; stroke-linecap:round; stroke-linejoin:round; stroke-width:2; stroke-opacity:0.1; fill:none" points="2394.76,1734.12 2394.76,127.792 "/>
<polyline clip-path="url(#clip651)" style="stroke:#000000; stroke-linecap:round; stroke-linejoin:round; stroke-width:2; stroke-opacity:0.1; fill:none" points="226.141,1688.65 2640.76,1688.65 "/>
<polyline clip-path="url(#clip651)" style="stroke:#000000; stroke-linecap:round; stroke-linejoin:round; stroke-width:2; stroke-opacity:0.1; fill:none" points="226.141,1357.63 2640.76,1357.63 "/>
<polyline clip-path="url(#clip651)" style="stroke:#000000; stroke-linecap:round; stroke-linejoin:round; stroke-width:2; stroke-opacity:0.1; fill:none" points="226.141,1026.61 2640.76,1026.61 "/>
<polyline clip-path="url(#clip651)" style="stroke:#000000; stroke-linecap:round; stroke-linejoin:round; stroke-width:2; stroke-opacity:0.1; fill:none" points="226.141,695.582 2640.76,695.582 "/>
<polyline clip-path="url(#clip651)" style="stroke:#000000; stroke-linecap:round; stroke-linejoin:round; stroke-width:2; stroke-opacity:0.1; fill:none" points="226.141,364.557 2640.76,364.557 "/>
<polyline clip-path="url(#clip650)" style="stroke:#000000; stroke-linecap:round; stroke-linejoin:round; stroke-width:4; stroke-opacity:1; fill:none" points="226.141,1734.12 2640.76,1734.12 "/>
<polyline clip-path="url(#clip650)" style="stroke:#000000; stroke-linecap:round; stroke-linejoin:round; stroke-width:4; stroke-opacity:1; fill:none" points="294.479,1734.12 294.479,1715.22 "/>
<polyline clip-path="url(#clip650)" style="stroke:#000000; stroke-linecap:round; stroke-linejoin:round; stroke-width:4; stroke-opacity:1; fill:none" points="714.535,1734.12 714.535,1715.22 "/>
<polyline clip-path="url(#clip650)" style="stroke:#000000; stroke-linecap:round; stroke-linejoin:round; stroke-width:4; stroke-opacity:1; fill:none" points="1134.59,1734.12 1134.59,1715.22 "/>
<polyline clip-path="url(#clip650)" style="stroke:#000000; stroke-linecap:round; stroke-linejoin:round; stroke-width:4; stroke-opacity:1; fill:none" points="1554.65,1734.12 1554.65,1715.22 "/>
<polyline clip-path="url(#clip650)" style="stroke:#000000; stroke-linecap:round; stroke-linejoin:round; stroke-width:4; stroke-opacity:1; fill:none" points="1974.71,1734.12 1974.71,1715.22 "/>
<polyline clip-path="url(#clip650)" style="stroke:#000000; stroke-linecap:round; stroke-linejoin:round; stroke-width:4; stroke-opacity:1; fill:none" points="2394.76,1734.12 2394.76,1715.22 "/>
<path clip-path="url(#clip650)" d="M294.479 1767.34 Q290.868 1767.34 289.039 1770.9 Q287.233 1774.45 287.233 1781.58 Q287.233 1788.68 289.039 1792.25 Q290.868 1795.79 294.479 1795.79 Q298.113 1795.79 299.919 1792.25 Q301.747 1788.68 301.747 1781.58 Q301.747 1774.45 299.919 1770.9 Q298.113 1767.34 294.479 1767.34 M294.479 1763.64 Q300.289 1763.64 303.344 1768.24 Q306.423 1772.83 306.423 1781.58 Q306.423 1790.3 303.344 1794.91 Q300.289 1799.49 294.479 1799.49 Q288.669 1799.49 285.59 1794.91 Q282.534 1790.3 282.534 1781.58 Q282.534 1772.83 285.59 1768.24 Q288.669 1763.64 294.479 1763.64 Z" fill="#000000" fill-rule="nonzero" fill-opacity="1" /><path clip-path="url(#clip650)" d="M689.223 1794.89 L696.862 1794.89 L696.862 1768.52 L688.552 1770.19 L688.552 1765.93 L696.816 1764.26 L701.491 1764.26 L701.491 1794.89 L709.13 1794.89 L709.13 1798.82 L689.223 1798.82 L689.223 1794.89 Z" fill="#000000" fill-rule="nonzero" fill-opacity="1" /><path clip-path="url(#clip650)" d="M728.575 1767.34 Q724.964 1767.34 723.135 1770.9 Q721.329 1774.45 721.329 1781.58 Q721.329 1788.68 723.135 1792.25 Q724.964 1795.79 728.575 1795.79 Q732.209 1795.79 734.014 1792.25 Q735.843 1788.68 735.843 1781.58 Q735.843 1774.45 734.014 1770.9 Q732.209 1767.34 728.575 1767.34 M728.575 1763.64 Q734.385 1763.64 737.44 1768.24 Q740.519 1772.83 740.519 1781.58 Q740.519 1790.3 737.44 1794.91 Q734.385 1799.49 728.575 1799.49 Q722.765 1799.49 719.686 1794.91 Q716.63 1790.3 716.63 1781.58 Q716.63 1772.83 719.686 1768.24 Q722.765 1763.64 728.575 1763.64 Z" fill="#000000" fill-rule="nonzero" fill-opacity="1" /><path clip-path="url(#clip650)" d="M1113.37 1794.89 L1129.68 1794.89 L1129.68 1798.82 L1107.74 1798.82 L1107.74 1794.89 Q1110.4 1792.13 1114.99 1787.5 Q1119.59 1782.85 1120.77 1781.51 Q1123.02 1778.98 1123.9 1777.25 Q1124.8 1775.49 1124.8 1773.8 Q1124.8 1771.04 1122.86 1769.31 Q1120.93 1767.57 1117.83 1767.57 Q1115.63 1767.57 1113.18 1768.34 Q1110.75 1769.1 1107.97 1770.65 L1107.97 1765.93 Q1110.8 1764.79 1113.25 1764.21 Q1115.7 1763.64 1117.74 1763.64 Q1123.11 1763.64 1126.31 1766.32 Q1129.5 1769.01 1129.5 1773.5 Q1129.5 1775.63 1128.69 1777.55 Q1127.9 1779.45 1125.8 1782.04 Q1125.22 1782.71 1122.12 1785.93 Q1119.01 1789.12 1113.37 1794.89 Z" fill="#000000" fill-rule="nonzero" fill-opacity="1" /><path clip-path="url(#clip650)" d="M1149.5 1767.34 Q1145.89 1767.34 1144.06 1770.9 Q1142.25 1774.45 1142.25 1781.58 Q1142.25 1788.68 1144.06 1792.25 Q1145.89 1795.79 1149.5 1795.79 Q1153.13 1795.79 1154.94 1792.25 Q1156.77 1788.68 1156.77 1781.58 Q1156.77 1774.45 1154.94 1770.9 Q1153.13 1767.34 1149.5 1767.34 M1149.5 1763.64 Q1155.31 1763.64 1158.37 1768.24 Q1161.44 1772.83 1161.44 1781.58 Q1161.44 1790.3 1158.37 1794.91 Q1155.31 1799.49 1149.5 1799.49 Q1143.69 1799.49 1140.61 1794.91 Q1137.55 1790.3 1137.55 1781.58 Q1137.55 1772.83 1140.61 1768.24 Q1143.69 1763.64 1149.5 1763.64 Z" fill="#000000" fill-rule="nonzero" fill-opacity="1" /><path clip-path="url(#clip650)" d="M1543.49 1780.19 Q1546.85 1780.9 1548.72 1783.17 Q1550.62 1785.44 1550.62 1788.77 Q1550.62 1793.89 1547.1 1796.69 Q1543.58 1799.49 1537.1 1799.49 Q1534.93 1799.49 1532.61 1799.05 Q1530.32 1798.64 1527.87 1797.78 L1527.87 1793.27 Q1529.81 1794.4 1532.13 1794.98 Q1534.44 1795.56 1536.96 1795.56 Q1541.36 1795.56 1543.65 1793.82 Q1545.97 1792.08 1545.97 1788.77 Q1545.97 1785.72 1543.82 1784.01 Q1541.69 1782.27 1537.87 1782.27 L1533.84 1782.27 L1533.84 1778.43 L1538.05 1778.43 Q1541.5 1778.43 1543.33 1777.06 Q1545.16 1775.67 1545.16 1773.08 Q1545.16 1770.42 1543.26 1769.01 Q1541.38 1767.57 1537.87 1767.57 Q1535.95 1767.57 1533.75 1767.99 Q1531.55 1768.4 1528.91 1769.28 L1528.91 1765.12 Q1531.57 1764.38 1533.88 1764.01 Q1536.22 1763.64 1538.28 1763.64 Q1543.61 1763.64 1546.71 1766.07 Q1549.81 1768.47 1549.81 1772.59 Q1549.81 1775.46 1548.17 1777.46 Q1546.52 1779.42 1543.49 1780.19 Z" fill="#000000" fill-rule="nonzero" fill-opacity="1" /><path clip-path="url(#clip650)" d="M1569.49 1767.34 Q1565.88 1767.34 1564.05 1770.9 Q1562.24 1774.45 1562.24 1781.58 Q1562.24 1788.68 1564.05 1792.25 Q1565.88 1795.79 1569.49 1795.79 Q1573.12 1795.79 1574.93 1792.25 Q1576.76 1788.68 1576.76 1781.58 Q1576.76 1774.45 1574.93 1770.9 Q1573.12 1767.34 1569.49 1767.34 M1569.49 1763.64 Q1575.3 1763.64 1578.35 1768.24 Q1581.43 1772.83 1581.43 1781.58 Q1581.43 1790.3 1578.35 1794.91 Q1575.3 1799.49 1569.49 1799.49 Q1563.68 1799.49 1560.6 1794.91 Q1557.54 1790.3 1557.54 1781.58 Q1557.54 1772.83 1560.6 1768.24 Q1563.68 1763.64 1569.49 1763.64 Z" fill="#000000" fill-rule="nonzero" fill-opacity="1" /><path clip-path="url(#clip650)" d="M1962.88 1768.34 L1951.07 1786.78 L1962.88 1786.78 L1962.88 1768.34 M1961.65 1764.26 L1967.53 1764.26 L1967.53 1786.78 L1972.46 1786.78 L1972.46 1790.67 L1967.53 1790.67 L1967.53 1798.82 L1962.88 1798.82 L1962.88 1790.67 L1947.27 1790.67 L1947.27 1786.16 L1961.65 1764.26 Z" fill="#000000" fill-rule="nonzero" fill-opacity="1" /><path clip-path="url(#clip650)" d="M1990.19 1767.34 Q1986.58 1767.34 1984.75 1770.9 Q1982.95 1774.45 1982.95 1781.58 Q1982.95 1788.68 1984.75 1792.25 Q1986.58 1795.79 1990.19 1795.79 Q1993.83 1795.79 1995.63 1792.25 Q1997.46 1788.68 1997.46 1781.58 Q1997.46 1774.45 1995.63 1770.9 Q1993.83 1767.34 1990.19 1767.34 M1990.19 1763.64 Q1996 1763.64 1999.06 1768.24 Q2002.14 1772.83 2002.14 1781.58 Q2002.14 1790.3 1999.06 1794.91 Q1996 1799.49 1990.19 1799.49 Q1984.38 1799.49 1981.3 1794.91 Q1978.25 1790.3 1978.25 1781.58 Q1978.25 1772.83 1981.3 1768.24 Q1984.38 1763.64 1990.19 1763.64 Z" fill="#000000" fill-rule="nonzero" fill-opacity="1" /><path clip-path="url(#clip650)" d="M2369.46 1764.26 L2387.82 1764.26 L2387.82 1768.2 L2373.74 1768.2 L2373.74 1776.67 Q2374.76 1776.32 2375.78 1776.16 Q2376.8 1775.97 2377.82 1775.97 Q2383.6 1775.97 2386.98 1779.15 Q2390.36 1782.32 2390.36 1787.73 Q2390.36 1793.31 2386.89 1796.41 Q2383.42 1799.49 2377.1 1799.49 Q2374.92 1799.49 2372.66 1799.12 Q2370.41 1798.75 2368 1798.01 L2368 1793.31 Q2370.09 1794.45 2372.31 1795 Q2374.53 1795.56 2377.01 1795.56 Q2381.01 1795.56 2383.35 1793.45 Q2385.69 1791.34 2385.69 1787.73 Q2385.69 1784.12 2383.35 1782.02 Q2381.01 1779.91 2377.01 1779.91 Q2375.13 1779.91 2373.26 1780.33 Q2371.41 1780.74 2369.46 1781.62 L2369.46 1764.26 Z" fill="#000000" fill-rule="nonzero" fill-opacity="1" /><path clip-path="url(#clip650)" d="M2409.58 1767.34 Q2405.97 1767.34 2404.14 1770.9 Q2402.33 1774.45 2402.33 1781.58 Q2402.33 1788.68 2404.14 1792.25 Q2405.97 1795.79 2409.58 1795.79 Q2413.21 1795.79 2415.02 1792.25 Q2416.85 1788.68 2416.85 1781.58 Q2416.85 1774.45 2415.02 1770.9 Q2413.21 1767.34 2409.58 1767.34 M2409.58 1763.64 Q2415.39 1763.64 2418.44 1768.24 Q2421.52 1772.83 2421.52 1781.58 Q2421.52 1790.3 2418.44 1794.91 Q2415.39 1799.49 2409.58 1799.49 Q2403.77 1799.49 2400.69 1794.91 Q2397.63 1790.3 2397.63 1781.58 Q2397.63 1772.83 2400.69 1768.24 Q2403.77 1763.64 2409.58 1763.64 Z" fill="#000000" fill-rule="nonzero" fill-opacity="1" /><path clip-path="url(#clip650)" d="M1210.44 1841.06 L1210.44 1858.92 L1218.53 1858.92 Q1223.01 1858.92 1225.46 1856.6 Q1227.92 1854.27 1227.92 1849.98 Q1227.92 1845.71 1225.46 1843.39 Q1223.01 1841.06 1218.53 1841.06 L1210.44 1841.06 M1204.01 1835.78 L1218.53 1835.78 Q1226.52 1835.78 1230.59 1839.41 Q1234.69 1843.01 1234.69 1849.98 Q1234.69 1857.01 1230.59 1860.61 Q1226.52 1864.2 1218.53 1864.2 L1210.44 1864.2 L1210.44 1883.3 L1204.01 1883.3 L1204.01 1835.78 Z" fill="#000000" fill-rule="nonzero" fill-opacity="1" /><path clip-path="url(#clip650)" d="M1262.58 1853.13 Q1261.59 1852.55 1260.41 1852.3 Q1259.27 1852.01 1257.87 1852.01 Q1252.9 1852.01 1250.23 1855.26 Q1247.59 1858.47 1247.59 1864.52 L1247.59 1883.3 L1241.7 1883.3 L1241.7 1847.65 L1247.59 1847.65 L1247.59 1853.19 Q1249.43 1849.94 1252.39 1848.39 Q1255.35 1846.79 1259.58 1846.79 Q1260.19 1846.79 1260.92 1846.89 Q1261.65 1846.95 1262.54 1847.11 L1262.58 1853.13 Z" fill="#000000" fill-rule="nonzero" fill-opacity="1" /><path clip-path="url(#clip650)" d="M1297.78 1864.01 L1297.78 1866.88 L1270.85 1866.88 Q1271.23 1872.92 1274.48 1876.11 Q1277.76 1879.26 1283.58 1879.26 Q1286.96 1879.26 1290.11 1878.43 Q1293.29 1877.6 1296.41 1875.95 L1296.41 1881.49 Q1293.26 1882.82 1289.95 1883.52 Q1286.64 1884.22 1283.23 1884.22 Q1274.7 1884.22 1269.71 1879.26 Q1264.74 1874.29 1264.74 1865.83 Q1264.74 1857.07 1269.45 1851.95 Q1274.19 1846.79 1282.21 1846.79 Q1289.41 1846.79 1293.58 1851.44 Q1297.78 1856.06 1297.78 1864.01 M1291.92 1862.29 Q1291.86 1857.49 1289.22 1854.62 Q1286.61 1851.76 1282.28 1851.76 Q1277.38 1851.76 1274.42 1854.53 Q1271.49 1857.3 1271.04 1862.33 L1291.92 1862.29 Z" fill="#000000" fill-rule="nonzero" fill-opacity="1" /><path clip-path="url(#clip650)" d="M1322.22 1886.61 Q1319.74 1892.98 1317.39 1894.92 Q1315.03 1896.86 1311.08 1896.86 L1306.4 1896.86 L1306.4 1891.96 L1309.84 1891.96 Q1312.26 1891.96 1313.6 1890.81 Q1314.93 1889.67 1316.56 1885.4 L1317.61 1882.73 L1303.19 1847.65 L1309.4 1847.65 L1320.54 1875.53 L1331.68 1847.65 L1337.88 1847.65 L1322.22 1886.61 Z" fill="#000000" fill-rule="nonzero" fill-opacity="1" /><path clip-path="url(#clip650)" d="M1390.15 1853.06 L1390.15 1833.78 L1396 1833.78 L1396 1883.3 L1390.15 1883.3 L1390.15 1877.95 Q1388.3 1881.14 1385.47 1882.7 Q1382.67 1884.22 1378.72 1884.22 Q1372.26 1884.22 1368.18 1879.07 Q1364.14 1873.91 1364.14 1865.51 Q1364.14 1857.11 1368.18 1851.95 Q1372.26 1846.79 1378.72 1846.79 Q1382.67 1846.79 1385.47 1848.35 Q1388.3 1849.88 1390.15 1853.06 M1370.19 1865.51 Q1370.19 1871.97 1372.83 1875.66 Q1375.5 1879.32 1380.15 1879.32 Q1384.8 1879.32 1387.47 1875.66 Q1390.15 1871.97 1390.15 1865.51 Q1390.15 1859.05 1387.47 1855.39 Q1384.8 1851.7 1380.15 1851.7 Q1375.5 1851.7 1372.83 1855.39 Q1370.19 1859.05 1370.19 1865.51 Z" fill="#000000" fill-rule="nonzero" fill-opacity="1" /><path clip-path="url(#clip650)" d="M1438.56 1864.01 L1438.56 1866.88 L1411.63 1866.88 Q1412.01 1872.92 1415.26 1876.11 Q1418.54 1879.26 1424.36 1879.26 Q1427.74 1879.26 1430.89 1878.43 Q1434.07 1877.6 1437.19 1875.95 L1437.19 1881.49 Q1434.04 1882.82 1430.73 1883.52 Q1427.42 1884.22 1424.01 1884.22 Q1415.48 1884.22 1410.48 1879.26 Q1405.52 1874.29 1405.52 1865.83 Q1405.52 1857.07 1410.23 1851.95 Q1414.97 1846.79 1422.99 1846.79 Q1430.19 1846.79 1434.36 1851.44 Q1438.56 1856.06 1438.56 1864.01 M1432.7 1862.29 Q1432.64 1857.49 1429.99 1854.62 Q1427.38 1851.76 1423.06 1851.76 Q1418.15 1851.76 1415.19 1854.53 Q1412.27 1857.3 1411.82 1862.33 L1432.7 1862.29 Z" fill="#000000" fill-rule="nonzero" fill-opacity="1" /><path clip-path="url(#clip650)" d="M1477.8 1861.78 L1477.8 1883.3 L1471.94 1883.3 L1471.94 1861.98 Q1471.94 1856.92 1469.97 1854.4 Q1468 1851.89 1464.05 1851.89 Q1459.31 1851.89 1456.57 1854.91 Q1453.83 1857.93 1453.83 1863.15 L1453.83 1883.3 L1447.95 1883.3 L1447.95 1847.65 L1453.83 1847.65 L1453.83 1853.19 Q1455.94 1849.98 1458.77 1848.39 Q1461.63 1846.79 1465.36 1846.79 Q1471.5 1846.79 1474.65 1850.61 Q1477.8 1854.4 1477.8 1861.78 Z" fill="#000000" fill-rule="nonzero" fill-opacity="1" /><path clip-path="url(#clip650)" d="M1512.21 1848.7 L1512.21 1854.24 Q1509.73 1852.97 1507.05 1852.33 Q1504.38 1851.7 1501.51 1851.7 Q1497.15 1851.7 1494.96 1853.03 Q1492.79 1854.37 1492.79 1857.04 Q1492.79 1859.08 1494.35 1860.26 Q1495.91 1861.4 1500.62 1862.45 L1502.63 1862.9 Q1508.87 1864.24 1511.48 1866.69 Q1514.12 1869.11 1514.12 1873.47 Q1514.12 1878.43 1510.17 1881.33 Q1506.26 1884.22 1499.38 1884.22 Q1496.52 1884.22 1493.4 1883.65 Q1490.31 1883.11 1486.87 1882 L1486.87 1875.95 Q1490.12 1877.64 1493.27 1878.49 Q1496.42 1879.32 1499.51 1879.32 Q1503.65 1879.32 1505.87 1877.92 Q1508.1 1876.49 1508.1 1873.91 Q1508.1 1871.52 1506.48 1870.25 Q1504.89 1868.98 1499.44 1867.8 L1497.41 1867.32 Q1491.96 1866.18 1489.55 1863.82 Q1487.13 1861.43 1487.13 1857.3 Q1487.13 1852.27 1490.69 1849.53 Q1494.26 1846.79 1500.81 1846.79 Q1504.06 1846.79 1506.92 1847.27 Q1509.79 1847.75 1512.21 1848.7 Z" fill="#000000" fill-rule="nonzero" fill-opacity="1" /><path clip-path="url(#clip650)" d="M1523.44 1847.65 L1529.3 1847.65 L1529.3 1883.3 L1523.44 1883.3 L1523.44 1847.65 M1523.44 1833.78 L1529.3 1833.78 L1529.3 1841.19 L1523.44 1841.19 L1523.44 1833.78 Z" fill="#000000" fill-rule="nonzero" fill-opacity="1" /><path clip-path="url(#clip650)" d="M1547.35 1837.53 L1547.35 1847.65 L1559.41 1847.65 L1559.41 1852.2 L1547.35 1852.2 L1547.35 1871.56 Q1547.35 1875.92 1548.52 1877.16 Q1549.73 1878.4 1553.39 1878.4 L1559.41 1878.4 L1559.41 1883.3 L1553.39 1883.3 Q1546.61 1883.3 1544.04 1880.79 Q1541.46 1878.24 1541.46 1871.56 L1541.46 1852.2 L1537.16 1852.2 L1537.16 1847.65 L1541.46 1847.65 L1541.46 1837.53 L1547.35 1837.53 Z" fill="#000000" fill-rule="nonzero" fill-opacity="1" /><path clip-path="url(#clip650)" d="M1581.94 1886.61 Q1579.46 1892.98 1577.11 1894.92 Q1574.75 1896.86 1570.8 1896.86 L1566.13 1896.86 L1566.13 1891.96 L1569.56 1891.96 Q1571.98 1891.96 1573.32 1890.81 Q1574.66 1889.67 1576.28 1885.4 L1577.33 1882.73 L1562.91 1847.65 L1569.12 1847.65 L1580.26 1875.53 L1591.4 1847.65 L1597.6 1847.65 L1581.94 1886.61 Z" fill="#000000" fill-rule="nonzero" fill-opacity="1" /><path clip-path="url(#clip650)" d="M1626.66 1835.78 L1633.09 1835.78 L1633.09 1855.26 L1656.45 1855.26 L1656.45 1835.78 L1662.88 1835.78 L1662.88 1883.3 L1656.45 1883.3 L1656.45 1860.67 L1633.09 1860.67 L1633.09 1883.3 L1626.66 1883.3 L1626.66 1835.78 Z" fill="#000000" fill-rule="nonzero" fill-opacity="1" /><polyline clip-path="url(#clip650)" style="stroke:#000000; stroke-linecap:round; stroke-linejoin:round; stroke-width:4; stroke-opacity:1; fill:none" points="226.141,1734.12 226.141,127.792 "/>
<polyline clip-path="url(#clip650)" style="stroke:#000000; stroke-linecap:round; stroke-linejoin:round; stroke-width:4; stroke-opacity:1; fill:none" points="226.141,1688.65 245.038,1688.65 "/>
<polyline clip-path="url(#clip650)" style="stroke:#000000; stroke-linecap:round; stroke-linejoin:round; stroke-width:4; stroke-opacity:1; fill:none" points="226.141,1357.63 245.038,1357.63 "/>
<polyline clip-path="url(#clip650)" style="stroke:#000000; stroke-linecap:round; stroke-linejoin:round; stroke-width:4; stroke-opacity:1; fill:none" points="226.141,1026.61 245.038,1026.61 "/>
<polyline clip-path="url(#clip650)" style="stroke:#000000; stroke-linecap:round; stroke-linejoin:round; stroke-width:4; stroke-opacity:1; fill:none" points="226.141,695.582 245.038,695.582 "/>
<polyline clip-path="url(#clip650)" style="stroke:#000000; stroke-linecap:round; stroke-linejoin:round; stroke-width:4; stroke-opacity:1; fill:none" points="226.141,364.557 245.038,364.557 "/>
<path clip-path="url(#clip650)" d="M128.645 1674.45 Q125.034 1674.45 123.205 1678.02 Q121.4 1681.56 121.4 1688.69 Q121.4 1695.8 123.205 1699.36 Q125.034 1702.9 128.645 1702.9 Q132.279 1702.9 134.085 1699.36 Q135.913 1695.8 135.913 1688.69 Q135.913 1681.56 134.085 1678.02 Q132.279 1674.45 128.645 1674.45 M128.645 1670.75 Q134.455 1670.75 137.511 1675.36 Q140.589 1679.94 140.589 1688.69 Q140.589 1697.42 137.511 1702.02 Q134.455 1706.61 128.645 1706.61 Q122.835 1706.61 119.756 1702.02 Q116.701 1697.42 116.701 1688.69 Q116.701 1679.94 119.756 1675.36 Q122.835 1670.75 128.645 1670.75 Z" fill="#000000" fill-rule="nonzero" fill-opacity="1" /><path clip-path="url(#clip650)" d="M148.807 1700.06 L153.691 1700.06 L153.691 1705.93 L148.807 1705.93 L148.807 1700.06 Z" fill="#000000" fill-rule="nonzero" fill-opacity="1" /><path clip-path="url(#clip650)" d="M173.876 1674.45 Q170.265 1674.45 168.436 1678.02 Q166.631 1681.56 166.631 1688.69 Q166.631 1695.8 168.436 1699.36 Q170.265 1702.9 173.876 1702.9 Q177.51 1702.9 179.316 1699.36 Q181.145 1695.8 181.145 1688.69 Q181.145 1681.56 179.316 1678.02 Q177.51 1674.45 173.876 1674.45 M173.876 1670.75 Q179.686 1670.75 182.742 1675.36 Q185.821 1679.94 185.821 1688.69 Q185.821 1697.42 182.742 1702.02 Q179.686 1706.61 173.876 1706.61 Q168.066 1706.61 164.987 1702.02 Q161.932 1697.42 161.932 1688.69 Q161.932 1679.94 164.987 1675.36 Q168.066 1670.75 173.876 1670.75 Z" fill="#000000" fill-rule="nonzero" fill-opacity="1" /><path clip-path="url(#clip650)" d="M130.242 1343.43 Q126.631 1343.43 124.802 1346.99 Q122.997 1350.54 122.997 1357.67 Q122.997 1364.77 124.802 1368.34 Q126.631 1371.88 130.242 1371.88 Q133.876 1371.88 135.682 1368.34 Q137.511 1364.77 137.511 1357.67 Q137.511 1350.54 135.682 1346.99 Q133.876 1343.43 130.242 1343.43 M130.242 1339.73 Q136.052 1339.73 139.108 1344.33 Q142.187 1348.92 142.187 1357.67 Q142.187 1366.39 139.108 1371 Q136.052 1375.58 130.242 1375.58 Q124.432 1375.58 121.353 1371 Q118.298 1366.39 118.298 1357.67 Q118.298 1348.92 121.353 1344.33 Q124.432 1339.73 130.242 1339.73 Z" fill="#000000" fill-rule="nonzero" fill-opacity="1" /><path clip-path="url(#clip650)" d="M150.404 1369.03 L155.288 1369.03 L155.288 1374.91 L150.404 1374.91 L150.404 1369.03 Z" fill="#000000" fill-rule="nonzero" fill-opacity="1" /><path clip-path="url(#clip650)" d="M169.501 1370.98 L185.821 1370.98 L185.821 1374.91 L163.876 1374.91 L163.876 1370.98 Q166.538 1368.22 171.122 1363.59 Q175.728 1358.94 176.909 1357.6 Q179.154 1355.07 180.034 1353.34 Q180.936 1351.58 180.936 1349.89 Q180.936 1347.13 178.992 1345.4 Q177.071 1343.66 173.969 1343.66 Q171.77 1343.66 169.316 1344.42 Q166.885 1345.19 164.108 1346.74 L164.108 1342.02 Q166.932 1340.88 169.385 1340.3 Q171.839 1339.73 173.876 1339.73 Q179.247 1339.73 182.441 1342.41 Q185.635 1345.1 185.635 1349.59 Q185.635 1351.72 184.825 1353.64 Q184.038 1355.54 181.932 1358.13 Q181.353 1358.8 178.251 1362.02 Q175.149 1365.21 169.501 1370.98 Z" fill="#000000" fill-rule="nonzero" fill-opacity="1" /><path clip-path="url(#clip650)" d="M128.159 1012.4 Q124.548 1012.4 122.719 1015.97 Q120.913 1019.51 120.913 1026.64 Q120.913 1033.75 122.719 1037.31 Q124.548 1040.85 128.159 1040.85 Q131.793 1040.85 133.599 1037.31 Q135.427 1033.75 135.427 1026.64 Q135.427 1019.51 133.599 1015.97 Q131.793 1012.4 128.159 1012.4 M128.159 1008.7 Q133.969 1008.7 137.025 1013.31 Q140.103 1017.89 140.103 1026.64 Q140.103 1035.37 137.025 1039.97 Q133.969 1044.56 128.159 1044.56 Q122.349 1044.56 119.27 1039.97 Q116.214 1035.37 116.214 1026.64 Q116.214 1017.89 119.27 1013.31 Q122.349 1008.7 128.159 1008.7 Z" fill="#000000" fill-rule="nonzero" fill-opacity="1" /><path clip-path="url(#clip650)" d="M148.321 1038.01 L153.205 1038.01 L153.205 1043.89 L148.321 1043.89 L148.321 1038.01 Z" fill="#000000" fill-rule="nonzero" fill-opacity="1" /><path clip-path="url(#clip650)" d="M176.237 1013.4 L164.432 1031.85 L176.237 1031.85 L176.237 1013.4 M175.01 1009.33 L180.89 1009.33 L180.89 1031.85 L185.821 1031.85 L185.821 1035.74 L180.89 1035.74 L180.89 1043.89 L176.237 1043.89 L176.237 1035.74 L160.636 1035.74 L160.636 1031.22 L175.01 1009.33 Z" fill="#000000" fill-rule="nonzero" fill-opacity="1" /><path clip-path="url(#clip650)" d="M128.483 681.38 Q124.872 681.38 123.043 684.945 Q121.238 688.487 121.238 695.616 Q121.238 702.723 123.043 706.288 Q124.872 709.829 128.483 709.829 Q132.117 709.829 133.923 706.288 Q135.751 702.723 135.751 695.616 Q135.751 688.487 133.923 684.945 Q132.117 681.38 128.483 681.38 M128.483 677.677 Q134.293 677.677 137.349 682.283 Q140.427 686.866 140.427 695.616 Q140.427 704.343 137.349 708.95 Q134.293 713.533 128.483 713.533 Q122.673 713.533 119.594 708.95 Q116.539 704.343 116.539 695.616 Q116.539 686.866 119.594 682.283 Q122.673 677.677 128.483 677.677 Z" fill="#000000" fill-rule="nonzero" fill-opacity="1" /><path clip-path="url(#clip650)" d="M148.645 706.982 L153.529 706.982 L153.529 712.862 L148.645 712.862 L148.645 706.982 Z" fill="#000000" fill-rule="nonzero" fill-opacity="1" /><path clip-path="url(#clip650)" d="M174.293 693.718 Q171.145 693.718 169.293 695.871 Q167.464 698.024 167.464 701.774 Q167.464 705.5 169.293 707.676 Q171.145 709.829 174.293 709.829 Q177.441 709.829 179.27 707.676 Q181.122 705.5 181.122 701.774 Q181.122 698.024 179.27 695.871 Q177.441 693.718 174.293 693.718 M183.575 679.065 L183.575 683.325 Q181.816 682.491 180.01 682.052 Q178.228 681.612 176.469 681.612 Q171.839 681.612 169.385 684.737 Q166.955 687.862 166.608 694.181 Q167.973 692.167 170.034 691.102 Q172.094 690.014 174.571 690.014 Q179.779 690.014 182.788 693.186 Q185.821 696.334 185.821 701.774 Q185.821 707.098 182.672 710.315 Q179.524 713.533 174.293 713.533 Q168.297 713.533 165.126 708.95 Q161.955 704.343 161.955 695.616 Q161.955 687.422 165.844 682.561 Q169.733 677.677 176.284 677.677 Q178.043 677.677 179.825 678.024 Q181.631 678.371 183.575 679.065 Z" fill="#000000" fill-rule="nonzero" fill-opacity="1" /><path clip-path="url(#clip650)" d="M128.738 350.356 Q125.126 350.356 123.298 353.921 Q121.492 357.462 121.492 364.592 Q121.492 371.698 123.298 375.263 Q125.126 378.805 128.738 378.805 Q132.372 378.805 134.177 375.263 Q136.006 371.698 136.006 364.592 Q136.006 357.462 134.177 353.921 Q132.372 350.356 128.738 350.356 M128.738 346.652 Q134.548 346.652 137.603 351.259 Q140.682 355.842 140.682 364.592 Q140.682 373.319 137.603 377.925 Q134.548 382.508 128.738 382.508 Q122.927 382.508 119.849 377.925 Q116.793 373.319 116.793 364.592 Q116.793 355.842 119.849 351.259 Q122.927 346.652 128.738 346.652 Z" fill="#000000" fill-rule="nonzero" fill-opacity="1" /><path clip-path="url(#clip650)" d="M148.899 375.957 L153.784 375.957 L153.784 381.837 L148.899 381.837 L148.899 375.957 Z" fill="#000000" fill-rule="nonzero" fill-opacity="1" /><path clip-path="url(#clip650)" d="M173.969 365.425 Q170.635 365.425 168.714 367.208 Q166.816 368.99 166.816 372.115 Q166.816 375.24 168.714 377.022 Q170.635 378.805 173.969 378.805 Q177.302 378.805 179.223 377.022 Q181.145 375.217 181.145 372.115 Q181.145 368.99 179.223 367.208 Q177.325 365.425 173.969 365.425 M169.293 363.434 Q166.284 362.694 164.594 360.634 Q162.927 358.573 162.927 355.61 Q162.927 351.467 165.867 349.059 Q168.83 346.652 173.969 346.652 Q179.131 346.652 182.071 349.059 Q185.01 351.467 185.01 355.61 Q185.01 358.573 183.321 360.634 Q181.654 362.694 178.668 363.434 Q182.047 364.221 183.922 366.513 Q185.821 368.805 185.821 372.115 Q185.821 377.138 182.742 379.823 Q179.686 382.508 173.969 382.508 Q168.251 382.508 165.173 379.823 Q162.117 377.138 162.117 372.115 Q162.117 368.805 164.015 366.513 Q165.913 364.221 169.293 363.434 M167.58 356.05 Q167.58 358.735 169.247 360.24 Q170.936 361.745 173.969 361.745 Q176.978 361.745 178.668 360.24 Q180.381 358.735 180.381 356.05 Q180.381 353.365 178.668 351.86 Q176.978 350.356 173.969 350.356 Q170.936 350.356 169.247 351.86 Q167.58 353.365 167.58 356.05 Z" fill="#000000" fill-rule="nonzero" fill-opacity="1" /><path clip-path="url(#clip650)" d="M12.1132 966.125 L16.983 966.125 L16.983 971.727 Q16.983 974.878 18.2562 976.119 Q19.5293 977.329 22.8395 977.329 L25.9905 977.329 L25.9905 967.685 L30.542 967.685 L30.542 977.329 L61.6384 977.329 L61.6384 983.217 L30.542 983.217 L30.542 988.819 L25.9905 988.819 L25.9905 983.217 L23.5079 983.217 Q17.5559 983.217 14.8505 980.448 Q12.1132 977.679 12.1132 971.663 L12.1132 966.125 Z" fill="#000000" fill-rule="nonzero" fill-opacity="1" /><path clip-path="url(#clip650)" d="M12.1769 947.155 Q19.4975 951.42 26.6589 953.489 Q33.8203 955.558 41.1727 955.558 Q48.5251 955.558 55.7502 953.489 Q62.9434 951.388 70.2321 947.155 L70.2321 952.248 Q62.7524 957.022 55.5274 959.409 Q48.3023 961.765 41.1727 961.765 Q34.0749 961.765 26.8817 959.409 Q19.6884 957.054 12.1769 952.248 L12.1769 947.155 Z" fill="#000000" fill-rule="nonzero" fill-opacity="1" /><path clip-path="url(#clip650)" d="M14.1184 935.538 L14.1184 929.109 L33.5975 929.109 L33.5975 905.746 L14.1184 905.746 L14.1184 899.317 L61.6384 899.317 L61.6384 905.746 L39.0084 905.746 L39.0084 929.109 L61.6384 929.109 L61.6384 935.538 L14.1184 935.538 Z" fill="#000000" fill-rule="nonzero" fill-opacity="1" /><path clip-path="url(#clip650)" d="M12.1769 887.7 L12.1769 882.607 Q19.6884 877.833 26.8817 875.477 Q34.0749 873.09 41.1727 873.09 Q48.3023 873.09 55.5274 875.477 Q62.7524 877.833 70.2321 882.607 L70.2321 887.7 Q62.9434 883.466 55.7502 881.398 Q48.5251 879.297 41.1727 879.297 Q33.8203 879.297 26.6589 881.398 Q19.4975 883.466 12.1769 887.7 Z" fill="#000000" fill-rule="nonzero" fill-opacity="1" /><path clip-path="url(#clip650)" d="M828.506 44.2197 Q831.14 45.1109 833.611 48.0275 Q836.122 50.9442 838.634 56.0483 L846.938 72.576 L838.148 72.576 L830.41 57.061 Q827.413 50.9847 824.577 48.9997 Q821.782 47.0148 816.921 47.0148 L808.009 47.0148 L808.009 72.576 L799.826 72.576 L799.826 12.096 L818.298 12.096 Q828.668 12.096 833.773 16.4305 Q838.877 20.7649 838.877 29.5149 Q838.877 35.2267 836.203 38.994 Q833.57 42.7613 828.506 44.2197 M808.009 18.8205 L808.009 40.2903 L818.298 40.2903 Q824.212 40.2903 827.21 37.5762 Q830.248 34.8216 830.248 29.5149 Q830.248 24.2082 827.21 21.5346 Q824.212 18.8205 818.298 18.8205 L808.009 18.8205 Z" fill="#000000" fill-rule="nonzero" fill-opacity="1" /><path clip-path="url(#clip650)" d="M892.227 48.0275 L892.227 51.6733 L857.957 51.6733 Q858.443 59.3701 862.575 63.421 Q866.747 67.4314 874.16 67.4314 Q878.454 67.4314 882.464 66.3781 Q886.515 65.3249 890.485 63.2184 L890.485 70.267 Q886.475 71.9684 882.262 72.8596 Q878.049 73.7508 873.715 73.7508 Q862.858 73.7508 856.498 67.4314 Q850.179 61.1119 850.179 50.3365 Q850.179 39.1965 856.174 32.6746 Q862.21 26.1121 872.418 26.1121 Q881.573 26.1121 886.88 32.0264 Q892.227 37.9003 892.227 48.0275 M884.774 45.84 Q884.692 39.7232 881.33 36.0774 Q878.008 32.4315 872.499 32.4315 Q866.261 32.4315 862.494 35.9558 Q858.767 39.4801 858.2 45.8805 L884.774 45.84 Z" fill="#000000" fill-rule="nonzero" fill-opacity="1" /><path clip-path="url(#clip650)" d="M937.111 28.9478 L937.111 35.9153 Q933.951 34.1734 930.751 33.3227 Q927.592 32.4315 924.351 32.4315 Q917.1 32.4315 913.089 37.0496 Q909.079 41.6271 909.079 49.9314 Q909.079 58.2358 913.089 62.8538 Q917.1 67.4314 924.351 67.4314 Q927.592 67.4314 930.751 66.5807 Q933.951 65.6895 937.111 63.9476 L937.111 70.8341 Q933.992 72.2924 930.63 73.0216 Q927.308 73.7508 923.541 73.7508 Q913.292 73.7508 907.256 67.3098 Q901.22 60.8689 901.22 49.9314 Q901.22 38.832 907.297 32.472 Q913.413 26.1121 924.027 26.1121 Q927.47 26.1121 930.751 26.8413 Q934.033 27.5299 937.111 28.9478 Z" fill="#000000" fill-rule="nonzero" fill-opacity="1" /><path clip-path="url(#clip650)" d="M967.655 32.4315 Q961.66 32.4315 958.176 37.1306 Q954.692 41.7891 954.692 49.9314 Q954.692 58.0738 958.135 62.7728 Q961.619 67.4314 967.655 67.4314 Q973.61 67.4314 977.094 62.7323 Q980.577 58.0333 980.577 49.9314 Q980.577 41.8701 977.094 37.1711 Q973.61 32.4315 967.655 32.4315 M967.655 26.1121 Q977.377 26.1121 982.927 32.4315 Q988.477 38.7509 988.477 49.9314 Q988.477 61.0714 982.927 67.4314 Q977.377 73.7508 967.655 73.7508 Q957.892 73.7508 952.343 67.4314 Q946.833 61.0714 946.833 49.9314 Q946.833 38.7509 952.343 32.4315 Q957.892 26.1121 967.655 26.1121 Z" fill="#000000" fill-rule="nonzero" fill-opacity="1" /><path clip-path="url(#clip650)" d="M995.485 27.2059 L1003.38 27.2059 L1017.56 65.2844 L1031.74 27.2059 L1039.64 27.2059 L1022.63 72.576 L1012.5 72.576 L995.485 27.2059 Z" fill="#000000" fill-rule="nonzero" fill-opacity="1" /><path clip-path="url(#clip650)" d="M1088.74 48.0275 L1088.74 51.6733 L1054.47 51.6733 Q1054.95 59.3701 1059.08 63.421 Q1063.26 67.4314 1070.67 67.4314 Q1074.96 67.4314 1078.97 66.3781 Q1083.02 65.3249 1086.99 63.2184 L1086.99 70.267 Q1082.98 71.9684 1078.77 72.8596 Q1074.56 73.7508 1070.22 73.7508 Q1059.37 73.7508 1053.01 67.4314 Q1046.69 61.1119 1046.69 50.3365 Q1046.69 39.1965 1052.68 32.6746 Q1058.72 26.1121 1068.93 26.1121 Q1078.08 26.1121 1083.39 32.0264 Q1088.74 37.9003 1088.74 48.0275 M1081.28 45.84 Q1081.2 39.7232 1077.84 36.0774 Q1074.52 32.4315 1069.01 32.4315 Q1062.77 32.4315 1059 35.9558 Q1055.28 39.4801 1054.71 45.8805 L1081.28 45.84 Z" fill="#000000" fill-rule="nonzero" fill-opacity="1" /><path clip-path="url(#clip650)" d="M1127.26 34.1734 Q1126 33.4443 1124.51 33.1202 Q1123.05 32.7556 1121.27 32.7556 Q1114.95 32.7556 1111.54 36.8875 Q1108.18 40.9789 1108.18 48.6757 L1108.18 72.576 L1100.69 72.576 L1100.69 27.2059 L1108.18 27.2059 L1108.18 34.2544 Q1110.53 30.1225 1114.3 28.1376 Q1118.07 26.1121 1123.45 26.1121 Q1124.22 26.1121 1125.15 26.2337 Q1126.09 26.3147 1127.22 26.5172 L1127.26 34.1734 Z" fill="#000000" fill-rule="nonzero" fill-opacity="1" /><path clip-path="url(#clip650)" d="M1172.06 48.0275 L1172.06 51.6733 L1137.79 51.6733 Q1138.28 59.3701 1142.41 63.421 Q1146.58 67.4314 1154 67.4314 Q1158.29 67.4314 1162.3 66.3781 Q1166.35 65.3249 1170.32 63.2184 L1170.32 70.267 Q1166.31 71.9684 1162.1 72.8596 Q1157.89 73.7508 1153.55 73.7508 Q1142.69 73.7508 1136.33 67.4314 Q1130.02 61.1119 1130.02 50.3365 Q1130.02 39.1965 1136.01 32.6746 Q1142.05 26.1121 1152.25 26.1121 Q1161.41 26.1121 1166.72 32.0264 Q1172.06 37.9003 1172.06 48.0275 M1164.61 45.84 Q1164.53 39.7232 1161.17 36.0774 Q1157.84 32.4315 1152.34 32.4315 Q1146.1 32.4315 1142.33 35.9558 Q1138.6 39.4801 1138.04 45.8805 L1164.61 45.84 Z" fill="#000000" fill-rule="nonzero" fill-opacity="1" /><path clip-path="url(#clip650)" d="M1214.15 34.0924 L1214.15 9.54393 L1221.61 9.54393 L1221.61 72.576 L1214.15 72.576 L1214.15 65.7705 Q1211.8 69.8214 1208.2 71.8063 Q1204.63 73.7508 1199.61 73.7508 Q1191.39 73.7508 1186.2 67.1883 Q1181.06 60.6258 1181.06 49.9314 Q1181.06 39.2371 1186.2 32.6746 Q1191.39 26.1121 1199.61 26.1121 Q1204.63 26.1121 1208.2 28.0971 Q1211.8 30.0415 1214.15 34.0924 M1188.75 49.9314 Q1188.75 58.1548 1192.12 62.8538 Q1195.52 67.5124 1201.43 67.5124 Q1207.35 67.5124 1210.75 62.8538 Q1214.15 58.1548 1214.15 49.9314 Q1214.15 41.7081 1210.75 37.0496 Q1207.35 32.3505 1201.43 32.3505 Q1195.52 32.3505 1192.12 37.0496 Q1188.75 41.7081 1188.75 49.9314 Z" fill="#000000" fill-rule="nonzero" fill-opacity="1" /><path clip-path="url(#clip650)" d="M1286.3 9.54393 L1286.3 15.7418 L1279.17 15.7418 Q1275.16 15.7418 1273.58 17.3622 Q1272.04 18.9825 1272.04 23.1955 L1272.04 27.2059 L1284.31 27.2059 L1284.31 32.9987 L1272.04 32.9987 L1272.04 72.576 L1264.55 72.576 L1264.55 32.9987 L1257.42 32.9987 L1257.42 27.2059 L1264.55 27.2059 L1264.55 24.0462 Q1264.55 16.471 1268.07 13.0277 Q1271.59 9.54393 1279.25 9.54393 L1286.3 9.54393 Z" fill="#000000" fill-rule="nonzero" fill-opacity="1" /><path clip-path="url(#clip650)" d="M1291.77 54.671 L1291.77 27.2059 L1299.22 27.2059 L1299.22 54.3874 Q1299.22 60.8284 1301.73 64.0691 Q1304.24 67.2693 1309.27 67.2693 Q1315.3 67.2693 1318.79 63.421 Q1322.31 59.5726 1322.31 52.9291 L1322.31 27.2059 L1329.77 27.2059 L1329.77 72.576 L1322.31 72.576 L1322.31 65.6084 Q1319.6 69.7404 1315.99 71.7658 Q1312.43 73.7508 1307.69 73.7508 Q1299.87 73.7508 1295.82 68.8897 Q1291.77 64.0286 1291.77 54.671 M1310.52 26.1121 L1310.52 26.1121 Z" fill="#000000" fill-rule="nonzero" fill-opacity="1" /><path clip-path="url(#clip650)" d="M1382.83 45.1919 L1382.83 72.576 L1375.38 72.576 L1375.38 45.4349 Q1375.38 38.994 1372.87 35.7938 Q1370.36 32.5936 1365.33 32.5936 Q1359.3 32.5936 1355.81 36.4419 Q1352.33 40.2903 1352.33 46.9338 L1352.33 72.576 L1344.83 72.576 L1344.83 27.2059 L1352.33 27.2059 L1352.33 34.2544 Q1355 30.163 1358.61 28.1376 Q1362.25 26.1121 1366.99 26.1121 Q1374.81 26.1121 1378.82 30.9732 Q1382.83 35.7938 1382.83 45.1919 Z" fill="#000000" fill-rule="nonzero" fill-opacity="1" /><path clip-path="url(#clip650)" d="M1430.35 28.9478 L1430.35 35.9153 Q1427.19 34.1734 1423.99 33.3227 Q1420.83 32.4315 1417.59 32.4315 Q1410.34 32.4315 1406.33 37.0496 Q1402.32 41.6271 1402.32 49.9314 Q1402.32 58.2358 1406.33 62.8538 Q1410.34 67.4314 1417.59 67.4314 Q1420.83 67.4314 1423.99 66.5807 Q1427.19 65.6895 1430.35 63.9476 L1430.35 70.8341 Q1427.23 72.2924 1423.87 73.0216 Q1420.55 73.7508 1416.78 73.7508 Q1406.53 73.7508 1400.49 67.3098 Q1394.46 60.8689 1394.46 49.9314 Q1394.46 38.832 1400.53 32.472 Q1406.65 26.1121 1417.26 26.1121 Q1420.71 26.1121 1423.99 26.8413 Q1427.27 27.5299 1430.35 28.9478 Z" fill="#000000" fill-rule="nonzero" fill-opacity="1" /><path clip-path="url(#clip650)" d="M1450.68 14.324 L1450.68 27.2059 L1466.04 27.2059 L1466.04 32.9987 L1450.68 32.9987 L1450.68 57.6282 Q1450.68 63.1779 1452.18 64.7578 Q1453.72 66.3376 1458.38 66.3376 L1466.04 66.3376 L1466.04 72.576 L1458.38 72.576 Q1449.75 72.576 1446.47 69.3758 Q1443.19 66.1351 1443.19 57.6282 L1443.19 32.9987 L1437.72 32.9987 L1437.72 27.2059 L1443.19 27.2059 L1443.19 14.324 L1450.68 14.324 Z" fill="#000000" fill-rule="nonzero" fill-opacity="1" /><path clip-path="url(#clip650)" d="M1475.84 27.2059 L1483.29 27.2059 L1483.29 72.576 L1475.84 72.576 L1475.84 27.2059 M1475.84 9.54393 L1483.29 9.54393 L1483.29 18.9825 L1475.84 18.9825 L1475.84 9.54393 Z" fill="#000000" fill-rule="nonzero" fill-opacity="1" /><path clip-path="url(#clip650)" d="M1516.47 32.4315 Q1510.48 32.4315 1506.99 37.1306 Q1503.51 41.7891 1503.51 49.9314 Q1503.51 58.0738 1506.95 62.7728 Q1510.44 67.4314 1516.47 67.4314 Q1522.43 67.4314 1525.91 62.7323 Q1529.39 58.0333 1529.39 49.9314 Q1529.39 41.8701 1525.91 37.1711 Q1522.43 32.4315 1516.47 32.4315 M1516.47 26.1121 Q1526.19 26.1121 1531.74 32.4315 Q1537.29 38.7509 1537.29 49.9314 Q1537.29 61.0714 1531.74 67.4314 Q1526.19 73.7508 1516.47 73.7508 Q1506.71 73.7508 1501.16 67.4314 Q1495.65 61.0714 1495.65 49.9314 Q1495.65 38.7509 1501.16 32.4315 Q1506.71 26.1121 1516.47 26.1121 Z" fill="#000000" fill-rule="nonzero" fill-opacity="1" /><path clip-path="url(#clip650)" d="M1587.36 45.1919 L1587.36 72.576 L1579.91 72.576 L1579.91 45.4349 Q1579.91 38.994 1577.4 35.7938 Q1574.89 32.5936 1569.86 32.5936 Q1563.83 32.5936 1560.34 36.4419 Q1556.86 40.2903 1556.86 46.9338 L1556.86 72.576 L1549.36 72.576 L1549.36 27.2059 L1556.86 27.2059 L1556.86 34.2544 Q1559.53 30.163 1563.14 28.1376 Q1566.78 26.1121 1571.52 26.1121 Q1579.34 26.1121 1583.35 30.9732 Q1587.36 35.7938 1587.36 45.1919 Z" fill="#000000" fill-rule="nonzero" fill-opacity="1" /><path clip-path="url(#clip650)" d="M1622.85 49.7694 Q1613.81 49.7694 1610.33 51.8354 Q1606.85 53.9013 1606.85 58.8839 Q1606.85 62.8538 1609.44 65.2034 Q1612.07 67.5124 1616.57 67.5124 Q1622.77 67.5124 1626.49 63.1374 Q1630.26 58.7219 1630.26 51.4303 L1630.26 49.7694 L1622.85 49.7694 M1637.72 46.6907 L1637.72 72.576 L1630.26 72.576 L1630.26 65.6895 Q1627.71 69.8214 1623.9 71.8063 Q1620.09 73.7508 1614.58 73.7508 Q1607.62 73.7508 1603.48 69.8619 Q1599.39 65.9325 1599.39 59.3701 Q1599.39 51.7138 1604.5 47.825 Q1609.64 43.9361 1619.81 43.9361 L1630.26 43.9361 L1630.26 43.2069 Q1630.26 38.0623 1626.86 35.2672 Q1623.5 32.4315 1617.38 32.4315 Q1613.49 32.4315 1609.8 33.3632 Q1606.12 34.295 1602.72 36.1584 L1602.72 29.2718 Q1606.81 27.692 1610.66 26.9223 Q1614.5 26.1121 1618.15 26.1121 Q1627.99 26.1121 1632.85 31.2163 Q1637.72 36.3204 1637.72 46.6907 Z" fill="#000000" fill-rule="nonzero" fill-opacity="1" /><path clip-path="url(#clip650)" d="M1653.07 9.54393 L1660.52 9.54393 L1660.52 72.576 L1653.07 72.576 L1653.07 9.54393 Z" fill="#000000" fill-rule="nonzero" fill-opacity="1" /><path clip-path="url(#clip650)" d="M1728.78 34.1734 Q1727.52 33.4443 1726.02 33.1202 Q1724.57 32.7556 1722.78 32.7556 Q1716.46 32.7556 1713.06 36.8875 Q1709.7 40.9789 1709.7 48.6757 L1709.7 72.576 L1702.21 72.576 L1702.21 27.2059 L1709.7 27.2059 L1709.7 34.2544 Q1712.05 30.1225 1715.82 28.1376 Q1719.58 26.1121 1724.97 26.1121 Q1725.74 26.1121 1726.67 26.2337 Q1727.6 26.3147 1728.74 26.5172 L1728.78 34.1734 Z" fill="#000000" fill-rule="nonzero" fill-opacity="1" /><path clip-path="url(#clip650)" d="M1773.58 48.0275 L1773.58 51.6733 L1739.31 51.6733 Q1739.8 59.3701 1743.93 63.421 Q1748.1 67.4314 1755.52 67.4314 Q1759.81 67.4314 1763.82 66.3781 Q1767.87 65.3249 1771.84 63.2184 L1771.84 70.267 Q1767.83 71.9684 1763.62 72.8596 Q1759.4 73.7508 1755.07 73.7508 Q1744.21 73.7508 1737.85 67.4314 Q1731.53 61.1119 1731.53 50.3365 Q1731.53 39.1965 1737.53 32.6746 Q1743.57 26.1121 1753.77 26.1121 Q1762.93 26.1121 1768.24 32.0264 Q1773.58 37.9003 1773.58 48.0275 M1766.13 45.84 Q1766.05 39.7232 1762.69 36.0774 Q1759.36 32.4315 1753.85 32.4315 Q1747.62 32.4315 1743.85 35.9558 Q1740.12 39.4801 1739.55 45.8805 L1766.13 45.84 Z" fill="#000000" fill-rule="nonzero" fill-opacity="1" /><path clip-path="url(#clip650)" d="M1814.74 28.5427 L1814.74 35.5912 Q1811.58 33.9709 1808.18 33.1607 Q1804.77 32.3505 1801.13 32.3505 Q1795.58 32.3505 1792.78 34.0519 Q1790.03 35.7533 1790.03 39.156 Q1790.03 41.7486 1792.01 43.2475 Q1794 44.7058 1799.99 46.0426 L1802.55 46.6097 Q1810.49 48.3111 1813.81 51.4303 Q1817.17 54.509 1817.17 60.0587 Q1817.17 66.3781 1812.15 70.0644 Q1807.16 73.7508 1798.41 73.7508 Q1794.77 73.7508 1790.8 73.0216 Q1786.87 72.3329 1782.49 70.9151 L1782.49 63.2184 Q1786.63 65.3654 1790.64 66.4591 Q1794.65 67.5124 1798.58 67.5124 Q1803.84 67.5124 1806.68 65.73 Q1809.51 63.9071 1809.51 60.6258 Q1809.51 57.5877 1807.45 55.9673 Q1805.42 54.3469 1798.5 52.8481 L1795.9 52.2405 Q1788.98 50.7821 1785.9 47.7845 Q1782.82 44.7463 1782.82 39.4801 Q1782.82 33.0797 1787.36 29.5959 Q1791.89 26.1121 1800.24 26.1121 Q1804.37 26.1121 1808.02 26.7198 Q1811.66 27.3274 1814.74 28.5427 Z" fill="#000000" fill-rule="nonzero" fill-opacity="1" /><path clip-path="url(#clip650)" d="M1836.25 65.7705 L1836.25 89.8329 L1828.76 89.8329 L1828.76 27.2059 L1836.25 27.2059 L1836.25 34.0924 Q1838.6 30.0415 1842.16 28.0971 Q1845.77 26.1121 1850.75 26.1121 Q1859.02 26.1121 1864.16 32.6746 Q1869.35 39.2371 1869.35 49.9314 Q1869.35 60.6258 1864.16 67.1883 Q1859.02 73.7508 1850.75 73.7508 Q1845.77 73.7508 1842.16 71.8063 Q1838.6 69.8214 1836.25 65.7705 M1861.61 49.9314 Q1861.61 41.7081 1858.21 37.0496 Q1854.84 32.3505 1848.93 32.3505 Q1843.01 32.3505 1839.61 37.0496 Q1836.25 41.7081 1836.25 49.9314 Q1836.25 58.1548 1839.61 62.8538 Q1843.01 67.5124 1848.93 67.5124 Q1854.84 67.5124 1858.21 62.8538 Q1861.61 58.1548 1861.61 49.9314 Z" fill="#000000" fill-rule="nonzero" fill-opacity="1" /><path clip-path="url(#clip650)" d="M1899.28 32.4315 Q1893.29 32.4315 1889.8 37.1306 Q1886.32 41.7891 1886.32 49.9314 Q1886.32 58.0738 1889.76 62.7728 Q1893.25 67.4314 1899.28 67.4314 Q1905.24 67.4314 1908.72 62.7323 Q1912.2 58.0333 1912.2 49.9314 Q1912.2 41.8701 1908.72 37.1711 Q1905.24 32.4315 1899.28 32.4315 M1899.28 26.1121 Q1909 26.1121 1914.55 32.4315 Q1920.1 38.7509 1920.1 49.9314 Q1920.1 61.0714 1914.55 67.4314 Q1909 73.7508 1899.28 73.7508 Q1889.52 73.7508 1883.97 67.4314 Q1878.46 61.0714 1878.46 49.9314 Q1878.46 38.7509 1883.97 32.4315 Q1889.52 26.1121 1899.28 26.1121 Z" fill="#000000" fill-rule="nonzero" fill-opacity="1" /><path clip-path="url(#clip650)" d="M1970.17 45.1919 L1970.17 72.576 L1962.72 72.576 L1962.72 45.4349 Q1962.72 38.994 1960.21 35.7938 Q1957.7 32.5936 1952.67 32.5936 Q1946.64 32.5936 1943.15 36.4419 Q1939.67 40.2903 1939.67 46.9338 L1939.67 72.576 L1932.18 72.576 L1932.18 27.2059 L1939.67 27.2059 L1939.67 34.2544 Q1942.34 30.163 1945.95 28.1376 Q1949.59 26.1121 1954.33 26.1121 Q1962.15 26.1121 1966.16 30.9732 Q1970.17 35.7938 1970.17 45.1919 Z" fill="#000000" fill-rule="nonzero" fill-opacity="1" /><path clip-path="url(#clip650)" d="M2013.96 28.5427 L2013.96 35.5912 Q2010.8 33.9709 2007.4 33.1607 Q2004 32.3505 2000.35 32.3505 Q1994.8 32.3505 1992.01 34.0519 Q1989.25 35.7533 1989.25 39.156 Q1989.25 41.7486 1991.24 43.2475 Q1993.22 44.7058 1999.22 46.0426 L2001.77 46.6097 Q2009.71 48.3111 2013.03 51.4303 Q2016.39 54.509 2016.39 60.0587 Q2016.39 66.3781 2011.37 70.0644 Q2006.39 73.7508 1997.64 73.7508 Q1993.99 73.7508 1990.02 73.0216 Q1986.09 72.3329 1981.72 70.9151 L1981.72 63.2184 Q1985.85 65.3654 1989.86 66.4591 Q1993.87 67.5124 1997.8 67.5124 Q2003.07 67.5124 2005.9 65.73 Q2008.74 63.9071 2008.74 60.6258 Q2008.74 57.5877 2006.67 55.9673 Q2004.65 54.3469 1997.72 52.8481 L1995.13 52.2405 Q1988.2 50.7821 1985.12 47.7845 Q1982.04 44.7463 1982.04 39.4801 Q1982.04 33.0797 1986.58 29.5959 Q1991.12 26.1121 1999.46 26.1121 Q2003.59 26.1121 2007.24 26.7198 Q2010.88 27.3274 2013.96 28.5427 Z" fill="#000000" fill-rule="nonzero" fill-opacity="1" /><path clip-path="url(#clip650)" d="M2067.07 48.0275 L2067.07 51.6733 L2032.8 51.6733 Q2033.29 59.3701 2037.42 63.421 Q2041.59 67.4314 2049 67.4314 Q2053.3 67.4314 2057.31 66.3781 Q2061.36 65.3249 2065.33 63.2184 L2065.33 70.267 Q2061.32 71.9684 2057.11 72.8596 Q2052.89 73.7508 2048.56 73.7508 Q2037.7 73.7508 2031.34 67.4314 Q2025.02 61.1119 2025.02 50.3365 Q2025.02 39.1965 2031.02 32.6746 Q2037.05 26.1121 2047.26 26.1121 Q2056.42 26.1121 2061.72 32.0264 Q2067.07 37.9003 2067.07 48.0275 M2059.62 45.84 Q2059.54 39.7232 2056.17 36.0774 Q2052.85 32.4315 2047.34 32.4315 Q2041.1 32.4315 2037.34 35.9558 Q2033.61 39.4801 2033.04 45.8805 L2059.62 45.84 Z" fill="#000000" fill-rule="nonzero" fill-opacity="1" /><polyline clip-path="url(#clip651)" style="stroke:#000000; stroke-linecap:round; stroke-linejoin:round; stroke-width:12; stroke-opacity:1; fill:none" stroke-dasharray="48, 30" points="294.479,1688.65 317.488,1525.23 340.498,1391.18 363.507,1279.24 386.517,1184.35 409.526,1102.89 432.536,1032.2 455.545,970.282 478.555,915.59 501.564,866.933 524.574,823.363 547.583,784.122 570.593,748.596 593.602,716.281 616.612,686.761 639.621,659.687 662.63,634.768 685.64,611.757 708.649,590.442 731.659,570.643 754.668,552.204 777.678,534.988 800.687,518.878 823.697,503.772 846.706,489.577 869.716,476.214 892.725,463.612 915.735,451.708 938.744,440.445 961.754,429.772 984.763,419.646 1007.77,410.024 1030.78,400.87 1053.79,392.15 1076.8,383.835 1099.81,375.896 1122.82,368.31 1145.83,361.052 1168.84,354.103 1191.85,347.442 1214.86,341.052 1237.87,334.918 1260.88,329.023 1283.89,323.354 1306.9,317.899 1329.91,312.646 1352.92,307.583 1375.92,302.7 1398.93,297.988 1421.94,293.439 1444.95,289.043 1467.96,284.794 1490.97,280.683 1513.98,276.705 1536.99,272.853 1560,269.121 1583.01,265.504 1606.02,261.996 1629.03,258.592 1652.04,255.289 1675.05,252.081 1698.06,248.965 1721.07,245.936 1744.08,242.991 1767.09,240.127 1790.1,237.34 1813.1,234.627 1836.11,231.985 1859.12,229.412 1882.13,226.905 1905.14,224.461 1928.15,222.079 1951.16,219.755 1974.17,217.487 1997.18,215.274 2020.19,213.114 2043.2,211.004 2066.21,208.944 2089.22,206.931 2112.23,204.963 2135.24,203.04 2158.25,201.159 2181.26,199.319 2204.27,197.52 2227.28,195.759 2250.28,194.035 2273.29,192.348 2296.3,190.696 2319.31,189.078 2342.32,187.493 2365.33,185.94 2388.34,184.418 2411.35,182.926 2434.36,181.463 2457.37,180.028 2480.38,178.621 2503.39,177.241 2526.4,175.887 2549.41,174.558 2572.42,173.254 "/>
<polyline clip-path="url(#clip651)" style="stroke:#0000ff; stroke-linecap:round; stroke-linejoin:round; stroke-width:8; stroke-opacity:1; fill:none" points="294.479,1497.69 317.488,1455.05 340.498,1412.46 363.507,1369.98 386.517,1327.66 409.526,1285.54 432.536,1243.68 455.545,1202.13 478.555,1160.95 501.564,1120.18 524.574,1079.87 547.583,1040.09 570.593,1000.87 593.602,962.273 616.612,924.341 639.621,887.124 662.63,850.67 685.64,815.026 708.649,780.242 731.659,746.364 754.668,713.441 777.678,681.522 800.687,650.653 823.697,620.875 846.706,592.189 869.716,564.587 892.725,538.062 915.735,512.606 938.744,488.21 961.754,464.869 984.763,442.574 1007.77,421.317 1030.78,401.091 1053.79,381.889 1076.8,363.704 1099.81,346.543 1122.82,330.414 1145.83,315.324 1168.84,301.282 1191.85,288.294 1214.86,276.37 1237.87,265.517 1260.88,255.743 1283.89,247.056 1306.9,239.464 1329.91,232.971 1352.92,227.565 1375.92,223.233 1398.93,219.958 1421.94,217.726 1444.95,216.523 1467.96,216.332 1490.97,217.139 1513.98,218.929 1536.99,221.687 1560,225.398 1583.01,230.043 1606.02,235.583 1629.03,241.978 1652.04,249.186 1675.05,257.163 1698.06,265.869 1721.07,275.262 1744.08,285.299 1767.09,295.939 1790.1,307.139 1813.1,318.859 1836.11,331.058 1859.12,343.713 1882.13,356.802 1905.14,370.302 1928.15,384.192 1951.16,398.45 1974.17,413.055 1997.18,427.985 2020.19,443.217 2043.2,458.731 2066.21,474.505 2089.22,490.518 2112.23,506.752 2135.24,523.193 2158.25,539.823 2181.26,556.628 2204.27,573.591 2227.28,590.696 2250.28,607.927 2273.29,625.269 2296.3,642.706 2319.31,660.22 2342.32,677.799 2365.33,695.435 2388.34,713.123 2411.35,730.855 2434.36,748.628 2457.37,766.435 2480.38,784.27 2503.39,802.127 2526.4,820.002 2549.41,837.889 2572.42,855.781 "/>
<polyline clip-path="url(#clip651)" style="stroke:#008000; stroke-linecap:round; stroke-linejoin:round; stroke-width:8; stroke-opacity:1; fill:none" points="294.479,1635.91 317.488,1557.55 340.498,1479.78 363.507,1403.16 386.517,1328.29 409.526,1255.73 432.536,1186.08 455.545,1119.9 478.555,1057.79 501.564,1000.31 524.574,948.059 547.583,901.604 570.593,861.304 593.602,826.608 616.612,796.742 639.621,770.93 662.63,748.397 685.64,728.369 708.649,710.069 731.659,692.724 754.668,675.556 777.678,657.792 800.687,638.656 823.697,617.575 846.706,594.786 869.716,570.728 892.725,545.838 915.735,520.557 938.744,495.322 961.754,470.573 984.763,446.747 1007.77,424.285 1030.78,403.625 1053.79,385.205 1076.8,369.343 1099.81,355.863 1122.82,344.47 1145.83,334.868 1168.84,326.761 1191.85,319.853 1214.86,313.847 1237.87,308.448 1260.88,303.358 1283.89,298.283 1306.9,292.926 1329.91,287.097 1352.92,281.029 1375.92,275.064 1398.93,269.541 1421.94,264.8 1444.95,261.181 1467.96,259.024 1490.97,258.67 1513.98,260.458 1536.99,264.729 1560,271.822 1583.01,281.943 1606.02,294.757 1629.03,309.796 1652.04,326.589 1675.05,344.667 1698.06,363.562 1721.07,382.804 1744.08,401.923 1767.09,420.45 1790.1,437.917 1813.1,453.853 1836.11,467.827 1859.12,479.555 1882.13,488.792 1905.14,495.291 1928.15,498.808 1951.16,499.095 1974.17,495.907 1997.18,488.997 2020.19,478.121 2043.2,463.033 2066.21,443.485 2089.22,419.564 2112.23,392.683 2135.24,364.584 2158.25,337.012 2181.26,311.711 2204.27,290.424 2227.28,274.895 2250.28,266.868 2273.29,268.087 2296.3,280.296 2319.31,305.238 2342.32,344.147 2365.33,396.217 2388.34,460.132 2411.35,534.575 2434.36,618.232 2457.37,709.785 2480.38,807.919 2503.39,911.317 2526.4,1018.66 2549.41,1128.64 2572.42,1239.94 "/>
<path clip-path="url(#clip650)" d="M1749.09 1680.57 L2560.27 1680.57 L2560.27 1473.21 L1749.09 1473.21  Z" fill="#ffffff" fill-rule="evenodd" fill-opacity="1"/>
<polyline clip-path="url(#clip650)" style="stroke:#000000; stroke-linecap:round; stroke-linejoin:round; stroke-width:4; stroke-opacity:1; fill:none" points="1749.09,1680.57 2560.27,1680.57 2560.27,1473.21 1749.09,1473.21 1749.09,1680.57 "/>
<polyline clip-path="url(#clip650)" style="stroke:#000000; stroke-linecap:round; stroke-linejoin:round; stroke-width:12; stroke-opacity:1; fill:none" stroke-dasharray="48, 30" points="1775.92,1525.05 1936.89,1525.05 "/>
<path clip-path="url(#clip650)" d="M1963.72 1507.77 L1992.96 1507.77 L1992.96 1511.71 L1980.69 1511.71 L1980.69 1542.33 L1975.99 1542.33 L1975.99 1511.71 L1963.72 1511.71 L1963.72 1507.77 Z" fill="#000000" fill-rule="nonzero" fill-opacity="1" /><path clip-path="url(#clip650)" d="M2005.34 1520.39 Q2004.62 1519.97 2003.77 1519.79 Q2002.93 1519.58 2001.91 1519.58 Q1998.3 1519.58 1996.36 1521.94 Q1994.44 1524.28 1994.44 1528.68 L1994.44 1542.33 L1990.16 1542.33 L1990.16 1516.41 L1994.44 1516.41 L1994.44 1520.43 Q1995.78 1518.07 1997.93 1516.94 Q2000.09 1515.78 2003.16 1515.78 Q2003.6 1515.78 2004.14 1515.85 Q2004.67 1515.9 2005.32 1516.01 L2005.34 1520.39 Z" fill="#000000" fill-rule="nonzero" fill-opacity="1" /><path clip-path="url(#clip650)" d="M2009.37 1532.1 L2009.37 1516.41 L2013.63 1516.41 L2013.63 1531.94 Q2013.63 1535.62 2015.06 1537.47 Q2016.5 1539.3 2019.37 1539.3 Q2022.82 1539.3 2024.81 1537.1 Q2026.82 1534.9 2026.82 1531.11 L2026.82 1516.41 L2031.08 1516.41 L2031.08 1542.33 L2026.82 1542.33 L2026.82 1538.35 Q2025.27 1540.71 2023.21 1541.87 Q2021.17 1543 2018.47 1543 Q2014 1543 2011.68 1540.23 Q2009.37 1537.45 2009.37 1532.1 M2020.09 1515.78 L2020.09 1515.78 Z" fill="#000000" fill-rule="nonzero" fill-opacity="1" /><path clip-path="url(#clip650)" d="M2062.03 1528.31 L2062.03 1530.39 L2042.45 1530.39 Q2042.72 1534.79 2045.09 1537.1 Q2047.47 1539.39 2051.71 1539.39 Q2054.16 1539.39 2056.45 1538.79 Q2058.77 1538.19 2061.03 1536.99 L2061.03 1541.01 Q2058.74 1541.99 2056.34 1542.49 Q2053.93 1543 2051.45 1543 Q2045.25 1543 2041.61 1539.39 Q2038 1535.78 2038 1529.62 Q2038 1523.26 2041.43 1519.53 Q2044.88 1515.78 2050.71 1515.78 Q2055.94 1515.78 2058.97 1519.16 Q2062.03 1522.52 2062.03 1528.31 M2057.77 1527.06 Q2057.72 1523.56 2055.8 1521.48 Q2053.91 1519.39 2050.76 1519.39 Q2047.19 1519.39 2045.04 1521.41 Q2042.91 1523.42 2042.59 1527.08 L2057.77 1527.06 Z" fill="#000000" fill-rule="nonzero" fill-opacity="1" /><path clip-path="url(#clip650)" d="M2097.22 1506.31 L2097.22 1509.86 L2093.14 1509.86 Q2090.85 1509.86 2089.95 1510.78 Q2089.07 1511.71 2089.07 1514.12 L2089.07 1516.41 L2096.08 1516.41 L2096.08 1519.72 L2089.07 1519.72 L2089.07 1542.33 L2084.78 1542.33 L2084.78 1519.72 L2080.71 1519.72 L2080.71 1516.41 L2084.78 1516.41 L2084.78 1514.6 Q2084.78 1510.27 2086.8 1508.31 Q2088.81 1506.31 2093.19 1506.31 L2097.22 1506.31 Z" fill="#000000" fill-rule="nonzero" fill-opacity="1" /><path clip-path="url(#clip650)" d="M2111.01 1506.36 Q2107.91 1511.68 2106.4 1516.89 Q2104.9 1522.1 2104.9 1527.45 Q2104.9 1532.8 2106.4 1538.05 Q2107.93 1543.28 2111.01 1548.58 L2107.31 1548.58 Q2103.84 1543.14 2102.1 1537.89 Q2100.39 1532.63 2100.39 1527.45 Q2100.39 1522.29 2102.1 1517.06 Q2103.81 1511.82 2107.31 1506.36 L2111.01 1506.36 Z" fill="#000000" fill-rule="nonzero" fill-opacity="1" /><path clip-path="url(#clip650)" d="M2119.46 1507.77 L2124.14 1507.77 L2124.14 1521.94 L2141.13 1521.94 L2141.13 1507.77 L2145.8 1507.77 L2145.8 1542.33 L2141.13 1542.33 L2141.13 1525.87 L2124.14 1525.87 L2124.14 1542.33 L2119.46 1542.33 L2119.46 1507.77 Z" fill="#000000" fill-rule="nonzero" fill-opacity="1" /><path clip-path="url(#clip650)" d="M2154.25 1506.36 L2157.96 1506.36 Q2161.43 1511.82 2163.14 1517.06 Q2164.88 1522.29 2164.88 1527.45 Q2164.88 1532.63 2163.14 1537.89 Q2161.43 1543.14 2157.96 1548.58 L2154.25 1548.58 Q2157.33 1543.28 2158.84 1538.05 Q2160.36 1532.8 2160.36 1527.45 Q2160.36 1522.1 2158.84 1516.89 Q2157.33 1511.68 2154.25 1506.36 Z" fill="#000000" fill-rule="nonzero" fill-opacity="1" /><polyline clip-path="url(#clip650)" style="stroke:#0000ff; stroke-linecap:round; stroke-linejoin:round; stroke-width:8; stroke-opacity:1; fill:none" points="1775.92,1576.89 1936.89,1576.89 "/>
<path clip-path="url(#clip650)" d="M1963.72 1559.61 L1968.4 1559.61 L1968.4 1594.17 L1963.72 1594.17 L1963.72 1559.61 Z" fill="#000000" fill-rule="nonzero" fill-opacity="1" /><path clip-path="url(#clip650)" d="M1999.07 1578.52 L1999.07 1594.17 L1994.81 1594.17 L1994.81 1578.66 Q1994.81 1574.98 1993.37 1573.15 Q1991.94 1571.33 1989.07 1571.33 Q1985.62 1571.33 1983.63 1573.52 Q1981.64 1575.72 1981.64 1579.52 L1981.64 1594.17 L1977.35 1594.17 L1977.35 1568.25 L1981.64 1568.25 L1981.64 1572.27 Q1983.16 1569.94 1985.23 1568.78 Q1987.31 1567.62 1990.02 1567.62 Q1994.48 1567.62 1996.78 1570.4 Q1999.07 1573.15 1999.07 1578.52 Z" fill="#000000" fill-rule="nonzero" fill-opacity="1" /><path clip-path="url(#clip650)" d="M2011.78 1560.89 L2011.78 1568.25 L2020.55 1568.25 L2020.55 1571.56 L2011.78 1571.56 L2011.78 1585.63 Q2011.78 1588.8 2012.63 1589.71 Q2013.51 1590.61 2016.17 1590.61 L2020.55 1590.61 L2020.55 1594.17 L2016.17 1594.17 Q2011.24 1594.17 2009.37 1592.34 Q2007.49 1590.49 2007.49 1585.63 L2007.49 1571.56 L2004.37 1571.56 L2004.37 1568.25 L2007.49 1568.25 L2007.49 1560.89 L2011.78 1560.89 Z" fill="#000000" fill-rule="nonzero" fill-opacity="1" /><path clip-path="url(#clip650)" d="M2048.33 1580.15 L2048.33 1582.23 L2028.74 1582.23 Q2029.02 1586.63 2031.38 1588.94 Q2033.77 1591.23 2038 1591.23 Q2040.46 1591.23 2042.75 1590.63 Q2045.06 1590.03 2047.33 1588.83 L2047.33 1592.85 Q2045.04 1593.83 2042.63 1594.33 Q2040.22 1594.84 2037.75 1594.84 Q2031.54 1594.84 2027.91 1591.23 Q2024.3 1587.62 2024.3 1581.46 Q2024.3 1575.1 2027.72 1571.37 Q2031.17 1567.62 2037.01 1567.62 Q2042.24 1567.62 2045.27 1571 Q2048.33 1574.36 2048.33 1580.15 M2044.07 1578.9 Q2044.02 1575.4 2042.1 1573.32 Q2040.2 1571.23 2037.05 1571.23 Q2033.49 1571.23 2031.34 1573.25 Q2029.21 1575.26 2028.88 1578.92 L2044.07 1578.9 Z" fill="#000000" fill-rule="nonzero" fill-opacity="1" /><path clip-path="url(#clip650)" d="M2072.38 1580.91 Q2072.38 1576.28 2070.46 1573.73 Q2068.56 1571.19 2065.11 1571.19 Q2061.68 1571.19 2059.76 1573.73 Q2057.86 1576.28 2057.86 1580.91 Q2057.86 1585.52 2059.76 1588.06 Q2061.68 1590.61 2065.11 1590.61 Q2068.56 1590.61 2070.46 1588.06 Q2072.38 1585.52 2072.38 1580.91 M2076.64 1590.96 Q2076.64 1597.58 2073.7 1600.79 Q2070.76 1604.03 2064.69 1604.03 Q2062.45 1604.03 2060.46 1603.69 Q2058.47 1603.36 2056.59 1602.67 L2056.59 1598.52 Q2058.47 1599.54 2060.29 1600.03 Q2062.12 1600.52 2064.02 1600.52 Q2068.21 1600.52 2070.29 1598.32 Q2072.38 1596.14 2072.38 1591.72 L2072.38 1589.61 Q2071.06 1591.9 2069 1593.04 Q2066.94 1594.17 2064.07 1594.17 Q2059.3 1594.17 2056.38 1590.54 Q2053.47 1586.9 2053.47 1580.91 Q2053.47 1574.89 2056.38 1571.26 Q2059.3 1567.62 2064.07 1567.62 Q2066.94 1567.62 2069 1568.76 Q2071.06 1569.89 2072.38 1572.18 L2072.38 1568.25 L2076.64 1568.25 L2076.64 1590.96 Z" fill="#000000" fill-rule="nonzero" fill-opacity="1" /><path clip-path="url(#clip650)" d="M2100.43 1572.23 Q2099.72 1571.81 2098.86 1571.63 Q2098.03 1571.42 2097.01 1571.42 Q2093.4 1571.42 2091.45 1573.78 Q2089.53 1576.12 2089.53 1580.52 L2089.53 1594.17 L2085.25 1594.17 L2085.25 1568.25 L2089.53 1568.25 L2089.53 1572.27 Q2090.87 1569.91 2093.03 1568.78 Q2095.18 1567.62 2098.26 1567.62 Q2098.7 1567.62 2099.23 1567.69 Q2099.76 1567.74 2100.41 1567.85 L2100.43 1572.23 Z" fill="#000000" fill-rule="nonzero" fill-opacity="1" /><path clip-path="url(#clip650)" d="M2116.68 1581.14 Q2111.52 1581.14 2109.53 1582.32 Q2107.54 1583.5 2107.54 1586.35 Q2107.54 1588.62 2109.02 1589.96 Q2110.53 1591.28 2113.09 1591.28 Q2116.64 1591.28 2118.77 1588.78 Q2120.92 1586.26 2120.92 1582.09 L2120.92 1581.14 L2116.68 1581.14 M2125.18 1579.38 L2125.18 1594.17 L2120.92 1594.17 L2120.92 1590.24 Q2119.46 1592.6 2117.28 1593.73 Q2115.11 1594.84 2111.96 1594.84 Q2107.98 1594.84 2105.62 1592.62 Q2103.28 1590.38 2103.28 1586.63 Q2103.28 1582.25 2106.2 1580.03 Q2109.14 1577.81 2114.95 1577.81 L2120.92 1577.81 L2120.92 1577.39 Q2120.92 1574.45 2118.97 1572.85 Q2117.05 1571.23 2113.56 1571.23 Q2111.34 1571.23 2109.23 1571.77 Q2107.12 1572.3 2105.18 1573.36 L2105.18 1569.43 Q2107.52 1568.52 2109.72 1568.09 Q2111.91 1567.62 2114 1567.62 Q2119.62 1567.62 2122.4 1570.54 Q2125.18 1573.46 2125.18 1579.38 Z" fill="#000000" fill-rule="nonzero" fill-opacity="1" /><path clip-path="url(#clip650)" d="M2133.95 1558.15 L2138.21 1558.15 L2138.21 1594.17 L2133.95 1594.17 L2133.95 1558.15 Z" fill="#000000" fill-rule="nonzero" fill-opacity="1" /><path clip-path="url(#clip650)" d="M2147.31 1559.61 L2154.28 1559.61 L2163.09 1583.13 L2171.96 1559.61 L2178.93 1559.61 L2178.93 1594.17 L2174.37 1594.17 L2174.37 1563.83 L2165.46 1587.53 L2160.76 1587.53 L2151.84 1563.83 L2151.84 1594.17 L2147.31 1594.17 L2147.31 1559.61 Z" fill="#000000" fill-rule="nonzero" fill-opacity="1" /><path clip-path="url(#clip650)" d="M2199.81 1581.14 Q2194.65 1581.14 2192.65 1582.32 Q2190.66 1583.5 2190.66 1586.35 Q2190.66 1588.62 2192.15 1589.96 Q2193.65 1591.28 2196.22 1591.28 Q2199.76 1591.28 2201.89 1588.78 Q2204.04 1586.26 2204.04 1582.09 L2204.04 1581.14 L2199.81 1581.14 M2208.3 1579.38 L2208.3 1594.17 L2204.04 1594.17 L2204.04 1590.24 Q2202.58 1592.6 2200.41 1593.73 Q2198.23 1594.84 2195.08 1594.84 Q2191.1 1594.84 2188.74 1592.62 Q2186.4 1590.38 2186.4 1586.63 Q2186.4 1582.25 2189.32 1580.03 Q2192.26 1577.81 2198.07 1577.81 L2204.04 1577.81 L2204.04 1577.39 Q2204.04 1574.45 2202.1 1572.85 Q2200.18 1571.23 2196.68 1571.23 Q2194.46 1571.23 2192.35 1571.77 Q2190.25 1572.3 2188.3 1573.36 L2188.3 1569.43 Q2190.64 1568.52 2192.84 1568.09 Q2195.04 1567.62 2197.12 1567.62 Q2202.75 1567.62 2205.52 1570.54 Q2208.3 1573.46 2208.3 1579.38 Z" fill="#000000" fill-rule="nonzero" fill-opacity="1" /><path clip-path="url(#clip650)" d="M2221.29 1560.89 L2221.29 1568.25 L2230.06 1568.25 L2230.06 1571.56 L2221.29 1571.56 L2221.29 1585.63 Q2221.29 1588.8 2222.15 1589.71 Q2223.02 1590.61 2225.69 1590.61 L2230.06 1590.61 L2230.06 1594.17 L2225.69 1594.17 Q2220.76 1594.17 2218.88 1592.34 Q2217.01 1590.49 2217.01 1585.63 L2217.01 1571.56 L2213.88 1571.56 L2213.88 1568.25 L2217.01 1568.25 L2217.01 1560.89 L2221.29 1560.89 Z" fill="#000000" fill-rule="nonzero" fill-opacity="1" /><path clip-path="url(#clip650)" d="M2254.32 1569.24 L2254.32 1573.22 Q2252.52 1572.23 2250.69 1571.74 Q2248.88 1571.23 2247.03 1571.23 Q2242.89 1571.23 2240.59 1573.87 Q2238.3 1576.49 2238.3 1581.23 Q2238.3 1585.98 2240.59 1588.62 Q2242.89 1591.23 2247.03 1591.23 Q2248.88 1591.23 2250.69 1590.75 Q2252.52 1590.24 2254.32 1589.24 L2254.32 1593.18 Q2252.54 1594.01 2250.62 1594.43 Q2248.72 1594.84 2246.57 1594.84 Q2240.71 1594.84 2237.26 1591.16 Q2233.81 1587.48 2233.81 1581.23 Q2233.81 1574.89 2237.28 1571.26 Q2240.78 1567.62 2246.84 1567.62 Q2248.81 1567.62 2250.69 1568.04 Q2252.56 1568.43 2254.32 1569.24 Z" fill="#000000" fill-rule="nonzero" fill-opacity="1" /><path clip-path="url(#clip650)" d="M2283.28 1578.52 L2283.28 1594.17 L2279.02 1594.17 L2279.02 1578.66 Q2279.02 1574.98 2277.58 1573.15 Q2276.15 1571.33 2273.28 1571.33 Q2269.83 1571.33 2267.84 1573.52 Q2265.85 1575.72 2265.85 1579.52 L2265.85 1594.17 L2261.57 1594.17 L2261.57 1558.15 L2265.85 1558.15 L2265.85 1572.27 Q2267.38 1569.94 2269.44 1568.78 Q2271.52 1567.62 2274.23 1567.62 Q2278.7 1567.62 2280.99 1570.4 Q2283.28 1573.15 2283.28 1578.52 Z" fill="#000000" fill-rule="nonzero" fill-opacity="1" /><path clip-path="url(#clip650)" d="M2291.77 1568.25 L2296.03 1568.25 L2296.03 1594.17 L2291.77 1594.17 L2291.77 1568.25 M2291.77 1558.15 L2296.03 1558.15 L2296.03 1563.55 L2291.77 1563.55 L2291.77 1558.15 Z" fill="#000000" fill-rule="nonzero" fill-opacity="1" /><path clip-path="url(#clip650)" d="M2326.5 1578.52 L2326.5 1594.17 L2322.24 1594.17 L2322.24 1578.66 Q2322.24 1574.98 2320.8 1573.15 Q2319.37 1571.33 2316.5 1571.33 Q2313.05 1571.33 2311.06 1573.52 Q2309.07 1575.72 2309.07 1579.52 L2309.07 1594.17 L2304.78 1594.17 L2304.78 1568.25 L2309.07 1568.25 L2309.07 1572.27 Q2310.59 1569.94 2312.65 1568.78 Q2314.74 1567.62 2317.45 1567.62 Q2321.91 1567.62 2324.2 1570.4 Q2326.5 1573.15 2326.5 1578.52 Z" fill="#000000" fill-rule="nonzero" fill-opacity="1" /><path clip-path="url(#clip650)" d="M2352.05 1580.91 Q2352.05 1576.28 2350.13 1573.73 Q2348.23 1571.19 2344.78 1571.19 Q2341.36 1571.19 2339.44 1573.73 Q2337.54 1576.28 2337.54 1580.91 Q2337.54 1585.52 2339.44 1588.06 Q2341.36 1590.61 2344.78 1590.61 Q2348.23 1590.61 2350.13 1588.06 Q2352.05 1585.52 2352.05 1580.91 M2356.31 1590.96 Q2356.31 1597.58 2353.37 1600.79 Q2350.43 1604.03 2344.37 1604.03 Q2342.12 1604.03 2340.13 1603.69 Q2338.14 1603.36 2336.26 1602.67 L2336.26 1598.52 Q2338.14 1599.54 2339.97 1600.03 Q2341.8 1600.52 2343.7 1600.52 Q2347.89 1600.52 2349.97 1598.32 Q2352.05 1596.14 2352.05 1591.72 L2352.05 1589.61 Q2350.73 1591.9 2348.67 1593.04 Q2346.61 1594.17 2343.74 1594.17 Q2338.97 1594.17 2336.06 1590.54 Q2333.14 1586.9 2333.14 1580.91 Q2333.14 1574.89 2336.06 1571.26 Q2338.97 1567.62 2343.74 1567.62 Q2346.61 1567.62 2348.67 1568.76 Q2350.73 1569.89 2352.05 1572.18 L2352.05 1568.25 L2356.31 1568.25 L2356.31 1590.96 Z" fill="#000000" fill-rule="nonzero" fill-opacity="1" /><path clip-path="url(#clip650)" d="M2390.38 1558.2 Q2387.28 1563.52 2385.78 1568.73 Q2384.27 1573.94 2384.27 1579.29 Q2384.27 1584.64 2385.78 1589.89 Q2387.31 1595.12 2390.38 1600.42 L2386.68 1600.42 Q2383.21 1594.98 2381.47 1589.73 Q2379.76 1584.47 2379.76 1579.29 Q2379.76 1574.13 2381.47 1568.9 Q2383.19 1563.66 2386.68 1558.2 L2390.38 1558.2 Z" fill="#000000" fill-rule="nonzero" fill-opacity="1" /><path clip-path="url(#clip650)" d="M2403.28 1590.24 L2419.6 1590.24 L2419.6 1594.17 L2397.65 1594.17 L2397.65 1590.24 Q2400.32 1587.48 2404.9 1582.85 Q2409.51 1578.2 2410.69 1576.86 Q2412.93 1574.33 2413.81 1572.6 Q2414.71 1570.84 2414.71 1569.15 Q2414.71 1566.4 2412.77 1564.66 Q2410.85 1562.92 2407.75 1562.92 Q2405.55 1562.92 2403.09 1563.69 Q2400.66 1564.45 2397.88 1566 L2397.88 1561.28 Q2400.71 1560.15 2403.16 1559.57 Q2405.62 1558.99 2407.65 1558.99 Q2413.02 1558.99 2416.22 1561.67 Q2419.41 1564.36 2419.41 1568.85 Q2419.41 1570.98 2418.6 1572.9 Q2417.82 1574.8 2415.71 1577.39 Q2415.13 1578.06 2412.03 1581.28 Q2408.93 1584.47 2403.28 1590.24 Z" fill="#000000" fill-rule="nonzero" fill-opacity="1" /><path clip-path="url(#clip650)" d="M2429.41 1588.29 L2434.3 1588.29 L2434.3 1594.17 L2429.41 1594.17 L2429.41 1588.29 Z" fill="#000000" fill-rule="nonzero" fill-opacity="1" /><path clip-path="url(#clip650)" d="M2458.65 1575.54 Q2462 1576.26 2463.88 1578.52 Q2465.78 1580.79 2465.78 1584.13 Q2465.78 1589.24 2462.26 1592.04 Q2458.74 1594.84 2452.26 1594.84 Q2450.08 1594.84 2447.77 1594.4 Q2445.48 1593.99 2443.02 1593.13 L2443.02 1588.62 Q2444.97 1589.75 2447.28 1590.33 Q2449.6 1590.91 2452.12 1590.91 Q2456.52 1590.91 2458.81 1589.17 Q2461.13 1587.44 2461.13 1584.13 Q2461.13 1581.07 2458.97 1579.36 Q2456.84 1577.62 2453.02 1577.62 L2449 1577.62 L2449 1573.78 L2453.21 1573.78 Q2456.66 1573.78 2458.49 1572.41 Q2460.32 1571.02 2460.32 1568.43 Q2460.32 1565.77 2458.42 1564.36 Q2456.54 1562.92 2453.02 1562.92 Q2451.1 1562.92 2448.9 1563.34 Q2446.7 1563.76 2444.07 1564.64 L2444.07 1560.47 Q2446.73 1559.73 2449.04 1559.36 Q2451.38 1558.99 2453.44 1558.99 Q2458.76 1558.99 2461.87 1561.42 Q2464.97 1563.83 2464.97 1567.95 Q2464.97 1570.82 2463.32 1572.81 Q2461.68 1574.77 2458.65 1575.54 Z" fill="#000000" fill-rule="nonzero" fill-opacity="1" /><path clip-path="url(#clip650)" d="M2490.57 1569.01 L2490.57 1573.04 Q2488.76 1572.11 2486.82 1571.65 Q2484.88 1571.19 2482.79 1571.19 Q2479.62 1571.19 2478.02 1572.16 Q2476.45 1573.13 2476.45 1575.08 Q2476.45 1576.56 2477.58 1577.41 Q2478.72 1578.25 2482.14 1579.01 L2483.6 1579.33 Q2488.14 1580.31 2490.04 1582.09 Q2491.96 1583.85 2491.96 1587.02 Q2491.96 1590.63 2489.09 1592.74 Q2486.24 1594.84 2481.24 1594.84 Q2479.16 1594.84 2476.89 1594.43 Q2474.64 1594.03 2472.14 1593.22 L2472.14 1588.83 Q2474.5 1590.05 2476.8 1590.68 Q2479.09 1591.28 2481.33 1591.28 Q2484.34 1591.28 2485.96 1590.26 Q2487.58 1589.22 2487.58 1587.34 Q2487.58 1585.61 2486.4 1584.68 Q2485.25 1583.76 2481.29 1582.9 L2479.81 1582.55 Q2475.85 1581.72 2474.09 1580.01 Q2472.33 1578.27 2472.33 1575.26 Q2472.33 1571.6 2474.92 1569.61 Q2477.51 1567.62 2482.28 1567.62 Q2484.64 1567.62 2486.73 1567.97 Q2488.81 1568.32 2490.57 1569.01 Z" fill="#000000" fill-rule="nonzero" fill-opacity="1" /><path clip-path="url(#clip650)" d="M2498.07 1558.2 L2501.77 1558.2 Q2505.25 1563.66 2506.96 1568.9 Q2508.69 1574.13 2508.69 1579.29 Q2508.69 1584.47 2506.96 1589.73 Q2505.25 1594.98 2501.77 1600.42 L2498.07 1600.42 Q2501.15 1595.12 2502.65 1589.89 Q2504.18 1584.64 2504.18 1579.29 Q2504.18 1573.94 2502.65 1568.73 Q2501.15 1563.52 2498.07 1558.2 Z" fill="#000000" fill-rule="nonzero" fill-opacity="1" /><polyline clip-path="url(#clip650)" style="stroke:#008000; stroke-linecap:round; stroke-linejoin:round; stroke-width:8; stroke-opacity:1; fill:none" points="1775.92,1628.73 1936.89,1628.73 "/>
<path clip-path="url(#clip650)" d="M1989.28 1641.08 L1989.28 1631.8 L1981.64 1631.8 L1981.64 1627.96 L1993.91 1627.96 L1993.91 1642.8 Q1991.2 1644.72 1987.93 1645.71 Q1984.67 1646.68 1980.97 1646.68 Q1972.86 1646.68 1968.28 1641.96 Q1963.72 1637.22 1963.72 1628.77 Q1963.72 1620.3 1968.28 1615.57 Q1972.86 1610.83 1980.97 1610.83 Q1984.35 1610.83 1987.38 1611.66 Q1990.43 1612.49 1993 1614.11 L1993 1619.09 Q1990.41 1616.89 1987.49 1615.78 Q1984.58 1614.67 1981.36 1614.67 Q1975.02 1614.67 1971.82 1618.21 Q1968.65 1621.75 1968.65 1628.77 Q1968.65 1635.76 1971.82 1639.3 Q1975.02 1642.84 1981.36 1642.84 Q1983.84 1642.84 1985.78 1642.42 Q1987.72 1641.99 1989.28 1641.08 Z" fill="#000000" fill-rule="nonzero" fill-opacity="1" /><path clip-path="url(#clip650)" d="M2017.29 1624.07 Q2016.57 1623.65 2015.71 1623.47 Q2014.88 1623.26 2013.86 1623.26 Q2010.25 1623.26 2008.3 1625.62 Q2006.38 1627.96 2006.38 1632.36 L2006.38 1646.01 L2002.1 1646.01 L2002.1 1620.09 L2006.38 1620.09 L2006.38 1624.11 Q2007.72 1621.75 2009.88 1620.62 Q2012.03 1619.46 2015.11 1619.46 Q2015.55 1619.46 2016.08 1619.53 Q2016.61 1619.58 2017.26 1619.69 L2017.29 1624.07 Z" fill="#000000" fill-rule="nonzero" fill-opacity="1" /><path clip-path="url(#clip650)" d="M2033.53 1632.98 Q2028.37 1632.98 2026.38 1634.16 Q2024.39 1635.34 2024.39 1638.19 Q2024.39 1640.46 2025.87 1641.8 Q2027.38 1643.12 2029.95 1643.12 Q2033.49 1643.12 2035.62 1640.62 Q2037.77 1638.1 2037.77 1633.93 L2037.77 1632.98 L2033.53 1632.98 M2042.03 1631.22 L2042.03 1646.01 L2037.77 1646.01 L2037.77 1642.08 Q2036.31 1644.44 2034.14 1645.57 Q2031.96 1646.68 2028.81 1646.68 Q2024.83 1646.68 2022.47 1644.46 Q2020.13 1642.22 2020.13 1638.47 Q2020.13 1634.09 2023.05 1631.87 Q2025.99 1629.65 2031.8 1629.65 L2037.77 1629.65 L2037.77 1629.23 Q2037.77 1626.29 2035.83 1624.69 Q2033.91 1623.07 2030.41 1623.07 Q2028.19 1623.07 2026.08 1623.61 Q2023.97 1624.14 2022.03 1625.2 L2022.03 1621.27 Q2024.37 1620.36 2026.57 1619.93 Q2028.77 1619.46 2030.85 1619.46 Q2036.47 1619.46 2039.25 1622.38 Q2042.03 1625.3 2042.03 1631.22 Z" fill="#000000" fill-rule="nonzero" fill-opacity="1" /><path clip-path="url(#clip650)" d="M2067.86 1624.02 L2067.86 1609.99 L2072.12 1609.99 L2072.12 1646.01 L2067.86 1646.01 L2067.86 1642.12 Q2066.52 1644.44 2064.46 1645.57 Q2062.42 1646.68 2059.55 1646.68 Q2054.85 1646.68 2051.89 1642.93 Q2048.95 1639.18 2048.95 1633.07 Q2048.95 1626.96 2051.89 1623.21 Q2054.85 1619.46 2059.55 1619.46 Q2062.42 1619.46 2064.46 1620.6 Q2066.52 1621.71 2067.86 1624.02 M2053.35 1633.07 Q2053.35 1637.77 2055.27 1640.46 Q2057.22 1643.12 2060.59 1643.12 Q2063.97 1643.12 2065.92 1640.46 Q2067.86 1637.77 2067.86 1633.07 Q2067.86 1628.37 2065.92 1625.71 Q2063.97 1623.03 2060.59 1623.03 Q2057.22 1623.03 2055.27 1625.71 Q2053.35 1628.37 2053.35 1633.07 Z" fill="#000000" fill-rule="nonzero" fill-opacity="1" /><path clip-path="url(#clip650)" d="M2080.9 1620.09 L2085.16 1620.09 L2085.16 1646.01 L2080.9 1646.01 L2080.9 1620.09 M2080.9 1609.99 L2085.16 1609.99 L2085.16 1615.39 L2080.9 1615.39 L2080.9 1609.99 Z" fill="#000000" fill-rule="nonzero" fill-opacity="1" /><path clip-path="url(#clip650)" d="M2116.24 1631.99 L2116.24 1634.07 L2096.66 1634.07 Q2096.94 1638.47 2099.3 1640.78 Q2101.68 1643.07 2105.92 1643.07 Q2108.37 1643.07 2110.66 1642.47 Q2112.98 1641.87 2115.25 1640.67 L2115.25 1644.69 Q2112.96 1645.67 2110.55 1646.17 Q2108.14 1646.68 2105.66 1646.68 Q2099.46 1646.68 2095.83 1643.07 Q2092.22 1639.46 2092.22 1633.3 Q2092.22 1626.94 2095.64 1623.21 Q2099.09 1619.46 2104.92 1619.46 Q2110.15 1619.46 2113.19 1622.84 Q2116.24 1626.2 2116.24 1631.99 M2111.98 1630.74 Q2111.94 1627.24 2110.02 1625.16 Q2108.12 1623.07 2104.97 1623.07 Q2101.4 1623.07 2099.25 1625.09 Q2097.12 1627.1 2096.8 1630.76 L2111.98 1630.74 Z" fill="#000000" fill-rule="nonzero" fill-opacity="1" /><path clip-path="url(#clip650)" d="M2144.78 1630.36 L2144.78 1646.01 L2140.53 1646.01 L2140.53 1630.5 Q2140.53 1626.82 2139.09 1624.99 Q2137.65 1623.17 2134.78 1623.17 Q2131.34 1623.17 2129.34 1625.36 Q2127.35 1627.56 2127.35 1631.36 L2127.35 1646.01 L2123.07 1646.01 L2123.07 1620.09 L2127.35 1620.09 L2127.35 1624.11 Q2128.88 1621.78 2130.94 1620.62 Q2133.03 1619.46 2135.73 1619.46 Q2140.2 1619.46 2142.49 1622.24 Q2144.78 1624.99 2144.78 1630.36 Z" fill="#000000" fill-rule="nonzero" fill-opacity="1" /><path clip-path="url(#clip650)" d="M2157.49 1612.73 L2157.49 1620.09 L2166.27 1620.09 L2166.27 1623.4 L2157.49 1623.4 L2157.49 1637.47 Q2157.49 1640.64 2158.35 1641.55 Q2159.23 1642.45 2161.89 1642.45 L2166.27 1642.45 L2166.27 1646.01 L2161.89 1646.01 Q2156.96 1646.01 2155.09 1644.18 Q2153.21 1642.33 2153.21 1637.47 L2153.21 1623.4 L2150.09 1623.4 L2150.09 1620.09 L2153.21 1620.09 L2153.21 1612.73 L2157.49 1612.73 Z" fill="#000000" fill-rule="nonzero" fill-opacity="1" /><path clip-path="url(#clip650)" d="M2172.05 1611.45 L2179.02 1611.45 L2187.84 1634.97 L2196.71 1611.45 L2203.67 1611.45 L2203.67 1646.01 L2199.11 1646.01 L2199.11 1615.67 L2190.2 1639.37 L2185.5 1639.37 L2176.59 1615.67 L2176.59 1646.01 L2172.05 1646.01 L2172.05 1611.45 Z" fill="#000000" fill-rule="nonzero" fill-opacity="1" /><path clip-path="url(#clip650)" d="M2224.55 1632.98 Q2219.39 1632.98 2217.4 1634.16 Q2215.41 1635.34 2215.41 1638.19 Q2215.41 1640.46 2216.89 1641.8 Q2218.4 1643.12 2220.96 1643.12 Q2224.51 1643.12 2226.64 1640.62 Q2228.79 1638.1 2228.79 1633.93 L2228.79 1632.98 L2224.55 1632.98 M2233.05 1631.22 L2233.05 1646.01 L2228.79 1646.01 L2228.79 1642.08 Q2227.33 1644.44 2225.15 1645.57 Q2222.98 1646.68 2219.83 1646.68 Q2215.85 1646.68 2213.49 1644.46 Q2211.15 1642.22 2211.15 1638.47 Q2211.15 1634.09 2214.07 1631.87 Q2217.01 1629.65 2222.82 1629.65 L2228.79 1629.65 L2228.79 1629.23 Q2228.79 1626.29 2226.84 1624.69 Q2224.92 1623.07 2221.43 1623.07 Q2219.21 1623.07 2217.1 1623.61 Q2214.99 1624.14 2213.05 1625.2 L2213.05 1621.27 Q2215.39 1620.36 2217.58 1619.93 Q2219.78 1619.46 2221.87 1619.46 Q2227.49 1619.46 2230.27 1622.38 Q2233.05 1625.3 2233.05 1631.22 Z" fill="#000000" fill-rule="nonzero" fill-opacity="1" /><path clip-path="url(#clip650)" d="M2246.03 1612.73 L2246.03 1620.09 L2254.81 1620.09 L2254.81 1623.4 L2246.03 1623.4 L2246.03 1637.47 Q2246.03 1640.64 2246.89 1641.55 Q2247.77 1642.45 2250.43 1642.45 L2254.81 1642.45 L2254.81 1646.01 L2250.43 1646.01 Q2245.5 1646.01 2243.63 1644.18 Q2241.75 1642.33 2241.75 1637.47 L2241.75 1623.4 L2238.63 1623.4 L2238.63 1620.09 L2241.75 1620.09 L2241.75 1612.73 L2246.03 1612.73 Z" fill="#000000" fill-rule="nonzero" fill-opacity="1" /><path clip-path="url(#clip650)" d="M2279.07 1621.08 L2279.07 1625.06 Q2277.26 1624.07 2275.43 1623.58 Q2273.63 1623.07 2271.77 1623.07 Q2267.63 1623.07 2265.34 1625.71 Q2263.05 1628.33 2263.05 1633.07 Q2263.05 1637.82 2265.34 1640.46 Q2267.63 1643.07 2271.77 1643.07 Q2273.63 1643.07 2275.43 1642.59 Q2277.26 1642.08 2279.07 1641.08 L2279.07 1645.02 Q2277.28 1645.85 2275.36 1646.27 Q2273.46 1646.68 2271.31 1646.68 Q2265.45 1646.68 2262.01 1643 Q2258.56 1639.32 2258.56 1633.07 Q2258.56 1626.73 2262.03 1623.1 Q2265.52 1619.46 2271.59 1619.46 Q2273.56 1619.46 2275.43 1619.88 Q2277.31 1620.27 2279.07 1621.08 Z" fill="#000000" fill-rule="nonzero" fill-opacity="1" /><path clip-path="url(#clip650)" d="M2308.02 1630.36 L2308.02 1646.01 L2303.76 1646.01 L2303.76 1630.5 Q2303.76 1626.82 2302.33 1624.99 Q2300.89 1623.17 2298.02 1623.17 Q2294.58 1623.17 2292.58 1625.36 Q2290.59 1627.56 2290.59 1631.36 L2290.59 1646.01 L2286.31 1646.01 L2286.31 1609.99 L2290.59 1609.99 L2290.59 1624.11 Q2292.12 1621.78 2294.18 1620.62 Q2296.27 1619.46 2298.97 1619.46 Q2303.44 1619.46 2305.73 1622.24 Q2308.02 1624.99 2308.02 1630.36 Z" fill="#000000" fill-rule="nonzero" fill-opacity="1" /><path clip-path="url(#clip650)" d="M2316.52 1620.09 L2320.78 1620.09 L2320.78 1646.01 L2316.52 1646.01 L2316.52 1620.09 M2316.52 1609.99 L2320.78 1609.99 L2320.78 1615.39 L2316.52 1615.39 L2316.52 1609.99 Z" fill="#000000" fill-rule="nonzero" fill-opacity="1" /><path clip-path="url(#clip650)" d="M2351.24 1630.36 L2351.24 1646.01 L2346.98 1646.01 L2346.98 1630.5 Q2346.98 1626.82 2345.55 1624.99 Q2344.11 1623.17 2341.24 1623.17 Q2337.79 1623.17 2335.8 1625.36 Q2333.81 1627.56 2333.81 1631.36 L2333.81 1646.01 L2329.53 1646.01 L2329.53 1620.09 L2333.81 1620.09 L2333.81 1624.11 Q2335.34 1621.78 2337.4 1620.62 Q2339.48 1619.46 2342.19 1619.46 Q2346.66 1619.46 2348.95 1622.24 Q2351.24 1624.99 2351.24 1630.36 Z" fill="#000000" fill-rule="nonzero" fill-opacity="1" /><path clip-path="url(#clip650)" d="M2376.8 1632.75 Q2376.8 1628.12 2374.88 1625.57 Q2372.98 1623.03 2369.53 1623.03 Q2366.1 1623.03 2364.18 1625.57 Q2362.28 1628.12 2362.28 1632.75 Q2362.28 1637.36 2364.18 1639.9 Q2366.1 1642.45 2369.53 1642.45 Q2372.98 1642.45 2374.88 1639.9 Q2376.8 1637.36 2376.8 1632.75 M2381.06 1642.8 Q2381.06 1649.42 2378.12 1652.63 Q2375.18 1655.87 2369.11 1655.87 Q2366.87 1655.87 2364.88 1655.53 Q2362.89 1655.2 2361.01 1654.51 L2361.01 1650.36 Q2362.89 1651.38 2364.71 1651.87 Q2366.54 1652.36 2368.44 1652.36 Q2372.63 1652.36 2374.71 1650.16 Q2376.8 1647.98 2376.8 1643.56 L2376.8 1641.45 Q2375.48 1643.74 2373.42 1644.88 Q2371.36 1646.01 2368.49 1646.01 Q2363.72 1646.01 2360.8 1642.38 Q2357.89 1638.74 2357.89 1632.75 Q2357.89 1626.73 2360.8 1623.1 Q2363.72 1619.46 2368.49 1619.46 Q2371.36 1619.46 2373.42 1620.6 Q2375.48 1621.73 2376.8 1624.02 L2376.8 1620.09 L2381.06 1620.09 L2381.06 1642.8 Z" fill="#000000" fill-rule="nonzero" fill-opacity="1" /><path clip-path="url(#clip650)" d="M2415.13 1610.04 Q2412.03 1615.36 2410.52 1620.57 Q2409.02 1625.78 2409.02 1631.13 Q2409.02 1636.48 2410.52 1641.73 Q2412.05 1646.96 2415.13 1652.26 L2411.43 1652.26 Q2407.95 1646.82 2406.22 1641.57 Q2404.51 1636.31 2404.51 1631.13 Q2404.51 1625.97 2406.22 1620.74 Q2407.93 1615.5 2411.43 1610.04 L2415.13 1610.04 Z" fill="#000000" fill-rule="nonzero" fill-opacity="1" /><path clip-path="url(#clip650)" d="M2424.81 1642.08 L2432.44 1642.08 L2432.44 1615.71 L2424.13 1617.38 L2424.13 1613.12 L2432.4 1611.45 L2437.07 1611.45 L2437.07 1642.08 L2444.71 1642.08 L2444.71 1646.01 L2424.81 1646.01 L2424.81 1642.08 Z" fill="#000000" fill-rule="nonzero" fill-opacity="1" /><path clip-path="url(#clip650)" d="M2454.16 1640.13 L2459.04 1640.13 L2459.04 1646.01 L2454.16 1646.01 L2454.16 1640.13 Z" fill="#000000" fill-rule="nonzero" fill-opacity="1" /><path clip-path="url(#clip650)" d="M2469.27 1611.45 L2487.63 1611.45 L2487.63 1615.39 L2473.56 1615.39 L2473.56 1623.86 Q2474.57 1623.51 2475.59 1623.35 Q2476.61 1623.17 2477.63 1623.17 Q2483.42 1623.17 2486.8 1626.34 Q2490.18 1629.51 2490.18 1634.92 Q2490.18 1640.5 2486.7 1643.61 Q2483.23 1646.68 2476.91 1646.68 Q2474.74 1646.68 2472.47 1646.31 Q2470.22 1645.94 2467.82 1645.2 L2467.82 1640.5 Q2469.9 1641.64 2472.12 1642.19 Q2474.34 1642.75 2476.82 1642.75 Q2480.82 1642.75 2483.16 1640.64 Q2485.5 1638.54 2485.5 1634.92 Q2485.5 1631.31 2483.16 1629.21 Q2480.82 1627.1 2476.82 1627.1 Q2474.94 1627.1 2473.07 1627.52 Q2471.22 1627.93 2469.27 1628.81 L2469.27 1611.45 Z" fill="#000000" fill-rule="nonzero" fill-opacity="1" /><path clip-path="url(#clip650)" d="M2515.31 1620.85 L2515.31 1624.88 Q2513.51 1623.95 2511.56 1623.49 Q2509.62 1623.03 2507.54 1623.03 Q2504.37 1623.03 2502.77 1624 Q2501.19 1624.97 2501.19 1626.92 Q2501.19 1628.4 2502.33 1629.25 Q2503.46 1630.09 2506.89 1630.85 L2508.35 1631.17 Q2512.88 1632.15 2514.78 1633.93 Q2516.7 1635.69 2516.7 1638.86 Q2516.7 1642.47 2513.83 1644.58 Q2510.99 1646.68 2505.99 1646.68 Q2503.9 1646.68 2501.63 1646.27 Q2499.39 1645.87 2496.89 1645.06 L2496.89 1640.67 Q2499.25 1641.89 2501.54 1642.52 Q2503.83 1643.12 2506.08 1643.12 Q2509.09 1643.12 2510.71 1642.1 Q2512.33 1641.06 2512.33 1639.18 Q2512.33 1637.45 2511.15 1636.52 Q2509.99 1635.6 2506.03 1634.74 L2504.55 1634.39 Q2500.59 1633.56 2498.83 1631.85 Q2497.07 1630.11 2497.07 1627.1 Q2497.07 1623.44 2499.67 1621.45 Q2502.26 1619.46 2507.03 1619.46 Q2509.39 1619.46 2511.47 1619.81 Q2513.56 1620.16 2515.31 1620.85 Z" fill="#000000" fill-rule="nonzero" fill-opacity="1" /><path clip-path="url(#clip650)" d="M2522.81 1610.04 L2526.52 1610.04 Q2529.99 1615.5 2531.7 1620.74 Q2533.44 1625.97 2533.44 1631.13 Q2533.44 1636.31 2531.7 1641.57 Q2529.99 1646.82 2526.52 1652.26 L2522.81 1652.26 Q2525.89 1646.96 2527.4 1641.73 Q2528.93 1636.48 2528.93 1631.13 Q2528.93 1625.78 2527.4 1620.57 Q2525.89 1615.36 2522.81 1610.04 Z" fill="#000000" fill-rule="nonzero" fill-opacity="1" /></svg>
