<?xml version="1.0" encoding="utf-8"?>
<svg xmlns="http://www.w3.org/2000/svg" xmlns:xlink="http://www.w3.org/1999/xlink" width="672" height="480" viewBox="0 0 2688 1920">
<defs>
  <clipPath id="clip360">
    <rect x="0" y="0" width="2688" height="1920"/>
  </clipPath>
</defs>
<path clip-path="url(#clip360)" d="M0 1920 L2688 1920 L2688 -4.26326e-14 L0 -4.26326e-14  Z" fill="#ffffff" fill-rule="evenodd" fill-opacity="1"/>
<defs>
  <clipPath id="clip361">
    <rect x="180" y="127" width="2461" height="1607"/>
  </clipPath>
</defs>
<path clip-path="url(#clip360)" d="M180.423 1734.12 L2640.76 1734.12 L2640.76 127.792 L180.423 127.792  Z" fill="#ffffff" fill-rule="evenodd" fill-opacity="1"/>
<polyline clip-path="url(#clip361)" style="stroke:#000000; stroke-linecap:round; stroke-linejoin:round; stroke-width:2; stroke-opacity:0.1; fill:none" points="250.055,1734.12 250.055,127.792 "/>
<polyline clip-path="url(#clip361)" style="stroke:#000000; stroke-linecap:round; stroke-linejoin:round; stroke-width:2; stroke-opacity:0.1; fill:none" points="777.571,1734.12 777.571,127.792 "/>
<polyline clip-path="url(#clip361)" style="stroke:#000000; stroke-linecap:round; stroke-linejoin:round; stroke-width:2; stroke-opacity:0.1; fill:none" points="1305.09,1734.12 1305.09,127.792 "/>
<polyline clip-path="url(#clip361)" style="stroke:#000000; stroke-linecap:round; stroke-linejoin:round; stroke-width:2; stroke-opacity:0.1; fill:none" points="1832.6,1734.12 1832.6,127.792 "/>
<polyline clip-path="url(#clip361)" style="stroke:#000000; stroke-linecap:round; stroke-linejoin:round; stroke-width:2; stroke-opacity:0.1; fill:none" points="2360.12,1734.12 2360.12,127.792 "/>
<polyline clip-path="url(#clip361)" style="stroke:#000000; stroke-linecap:round; stroke-linejoin:round; stroke-width:2; stroke-opacity:0.1; fill:none" points="180.423,1654.58 2640.76,1654.58 "/>
<polyline clip-path="url(#clip361)" style="stroke:#000000; stroke-linecap:round; stroke-linejoin:round; stroke-width:2; stroke-opacity:0.1; fill:none" points="180.423,1256.67 2640.76,1256.67 "/>
<polyline clip-path="url(#clip361)" style="stroke:#000000; stroke-linecap:round; stroke-linejoin:round; stroke-width:2; stroke-opacity:0.1; fill:none" points="180.423,858.765 2640.76,858.765 "/>
<polyline clip-path="url(#clip361)" style="stroke:#000000; stroke-linecap:round; stroke-linejoin:round; stroke-width:2; stroke-opacity:0.1; fill:none" points="180.423,460.858 2640.76,460.858 "/>
<polyline clip-path="url(#clip360)" style="stroke:#000000; stroke-linecap:round; stroke-linejoin:round; stroke-width:4; stroke-opacity:1; fill:none" points="180.423,1734.12 2640.76,1734.12 "/>
<polyline clip-path="url(#clip360)" style="stroke:#000000; stroke-linecap:round; stroke-linejoin:round; stroke-width:4; stroke-opacity:1; fill:none" points="250.055,1734.12 250.055,1715.22 "/>
<polyline clip-path="url(#clip360)" style="stroke:#000000; stroke-linecap:round; stroke-linejoin:round; stroke-width:4; stroke-opacity:1; fill:none" points="777.571,1734.12 777.571,1715.22 "/>
<polyline clip-path="url(#clip360)" style="stroke:#000000; stroke-linecap:round; stroke-linejoin:round; stroke-width:4; stroke-opacity:1; fill:none" points="1305.09,1734.12 1305.09,1715.22 "/>
<polyline clip-path="url(#clip360)" style="stroke:#000000; stroke-linecap:round; stroke-linejoin:round; stroke-width:4; stroke-opacity:1; fill:none" points="1832.6,1734.12 1832.6,1715.22 "/>
<polyline clip-path="url(#clip360)" style="stroke:#000000; stroke-linecap:round; stroke-linejoin:round; stroke-width:4; stroke-opacity:1; fill:none" points="2360.12,1734.12 2360.12,1715.22 "/>
<path clip-path="url(#clip360)" d="M227.44 1767.34 Q223.829 1767.34 222 1770.9 Q220.194 1774.45 220.194 1781.58 Q220.194 1788.68 222 1792.25 Q223.829 1795.79 227.44 1795.79 Q231.074 1795.79 232.879 1792.25 Q234.708 1788.68 234.708 1781.58 Q234.708 1774.45 232.879 1770.9 Q231.074 1767.34 227.44 1767.34 M227.44 1763.64 Q233.25 1763.64 236.305 1768.24 Q239.384 1772.83 239.384 1781.58 Q239.384 1790.3 236.305 1794.91 Q233.25 1799.49 227.44 1799.49 Q221.629 1799.49 218.551 1794.91 Q215.495 1790.3 215.495 1781.58 Q215.495 1772.83 218.551 1768.24 Q221.629 1763.64 227.44 1763.64 Z" fill="#000000" fill-rule="nonzero" fill-opacity="1" /><path clip-path="url(#clip360)" d="M247.602 1792.94 L252.486 1792.94 L252.486 1798.82 L247.602 1798.82 L247.602 1792.94 Z" fill="#000000" fill-rule="nonzero" fill-opacity="1" /><path clip-path="url(#clip360)" d="M272.671 1767.34 Q269.06 1767.34 267.231 1770.9 Q265.426 1774.45 265.426 1781.58 Q265.426 1788.68 267.231 1792.25 Q269.06 1795.79 272.671 1795.79 Q276.305 1795.79 278.111 1792.25 Q279.939 1788.68 279.939 1781.58 Q279.939 1774.45 278.111 1770.9 Q276.305 1767.34 272.671 1767.34 M272.671 1763.64 Q278.481 1763.64 281.537 1768.24 Q284.615 1772.83 284.615 1781.58 Q284.615 1790.3 281.537 1794.91 Q278.481 1799.49 272.671 1799.49 Q266.861 1799.49 263.782 1794.91 Q260.727 1790.3 260.727 1781.58 Q260.727 1772.83 263.782 1768.24 Q266.861 1763.64 272.671 1763.64 Z" fill="#000000" fill-rule="nonzero" fill-opacity="1" /><path clip-path="url(#clip360)" d="M749.307 1794.89 L765.626 1794.89 L765.626 1798.82 L743.682 1798.82 L743.682 1794.89 Q746.344 1792.13 750.927 1787.5 Q755.534 1782.85 756.714 1781.51 Q758.96 1778.98 759.839 1777.25 Q760.742 1775.49 760.742 1773.8 Q760.742 1771.04 758.798 1769.31 Q756.877 1767.57 753.775 1767.57 Q751.576 1767.57 749.122 1768.34 Q746.691 1769.1 743.914 1770.65 L743.914 1765.93 Q746.738 1764.79 749.191 1764.21 Q751.645 1763.64 753.682 1763.64 Q759.052 1763.64 762.247 1766.32 Q765.441 1769.01 765.441 1773.5 Q765.441 1775.63 764.631 1777.55 Q763.844 1779.45 761.738 1782.04 Q761.159 1782.71 758.057 1785.93 Q754.955 1789.12 749.307 1794.89 Z" fill="#000000" fill-rule="nonzero" fill-opacity="1" /><path clip-path="url(#clip360)" d="M775.441 1792.94 L780.325 1792.94 L780.325 1798.82 L775.441 1798.82 L775.441 1792.94 Z" fill="#000000" fill-rule="nonzero" fill-opacity="1" /><path clip-path="url(#clip360)" d="M790.557 1764.26 L808.913 1764.26 L808.913 1768.2 L794.839 1768.2 L794.839 1776.67 Q795.858 1776.32 796.876 1776.16 Q797.895 1775.97 798.913 1775.97 Q804.7 1775.97 808.08 1779.15 Q811.46 1782.32 811.46 1787.73 Q811.46 1793.31 807.987 1796.41 Q804.515 1799.49 798.196 1799.49 Q796.02 1799.49 793.751 1799.12 Q791.506 1798.75 789.099 1798.01 L789.099 1793.31 Q791.182 1794.45 793.404 1795 Q795.626 1795.56 798.103 1795.56 Q802.108 1795.56 804.446 1793.45 Q806.784 1791.34 806.784 1787.73 Q806.784 1784.12 804.446 1782.02 Q802.108 1779.91 798.103 1779.91 Q796.228 1779.91 794.353 1780.33 Q792.501 1780.74 790.557 1781.62 L790.557 1764.26 Z" fill="#000000" fill-rule="nonzero" fill-opacity="1" /><path clip-path="url(#clip360)" d="M1272.25 1764.26 L1290.61 1764.26 L1290.61 1768.2 L1276.53 1768.2 L1276.53 1776.67 Q1277.55 1776.32 1278.57 1776.16 Q1279.59 1775.97 1280.61 1775.97 Q1286.39 1775.97 1289.77 1779.15 Q1293.15 1782.32 1293.15 1787.73 Q1293.15 1793.31 1289.68 1796.41 Q1286.21 1799.49 1279.89 1799.49 Q1277.71 1799.49 1275.45 1799.12 Q1273.2 1798.75 1270.79 1798.01 L1270.79 1793.31 Q1272.88 1794.45 1275.1 1795 Q1277.32 1795.56 1279.8 1795.56 Q1283.8 1795.56 1286.14 1793.45 Q1288.48 1791.34 1288.48 1787.73 Q1288.48 1784.12 1286.14 1782.02 Q1283.8 1779.91 1279.8 1779.91 Q1277.92 1779.91 1276.05 1780.33 Q1274.2 1780.74 1272.25 1781.62 L1272.25 1764.26 Z" fill="#000000" fill-rule="nonzero" fill-opacity="1" /><path clip-path="url(#clip360)" d="M1302.37 1792.94 L1307.25 1792.94 L1307.25 1798.82 L1302.37 1798.82 L1302.37 1792.94 Z" fill="#000000" fill-rule="nonzero" fill-opacity="1" /><path clip-path="url(#clip360)" d="M1327.44 1767.34 Q1323.82 1767.34 1322 1770.9 Q1320.19 1774.45 1320.19 1781.58 Q1320.19 1788.68 1322 1792.25 Q1323.82 1795.79 1327.44 1795.79 Q1331.07 1795.79 1332.88 1792.25 Q1334.7 1788.68 1334.7 1781.58 Q1334.7 1774.45 1332.88 1770.9 Q1331.07 1767.34 1327.44 1767.34 M1327.44 1763.64 Q1333.25 1763.64 1336.3 1768.24 Q1339.38 1772.83 1339.38 1781.58 Q1339.38 1790.3 1336.3 1794.91 Q1333.25 1799.49 1327.44 1799.49 Q1321.63 1799.49 1318.55 1794.91 Q1315.49 1790.3 1315.49 1781.58 Q1315.49 1772.83 1318.55 1768.24 Q1321.63 1763.64 1327.44 1763.64 Z" fill="#000000" fill-rule="nonzero" fill-opacity="1" /><path clip-path="url(#clip360)" d="M1798.92 1764.26 L1821.14 1764.26 L1821.14 1766.25 L1808.6 1798.82 L1803.71 1798.82 L1815.52 1768.2 L1798.92 1768.2 L1798.92 1764.26 Z" fill="#000000" fill-rule="nonzero" fill-opacity="1" /><path clip-path="url(#clip360)" d="M1830.26 1792.94 L1835.15 1792.94 L1835.15 1798.82 L1830.26 1798.82 L1830.26 1792.94 Z" fill="#000000" fill-rule="nonzero" fill-opacity="1" /><path clip-path="url(#clip360)" d="M1845.38 1764.26 L1863.74 1764.26 L1863.74 1768.2 L1849.66 1768.2 L1849.66 1776.67 Q1850.68 1776.32 1851.7 1776.16 Q1852.72 1775.97 1853.74 1775.97 Q1859.52 1775.97 1862.9 1779.15 Q1866.28 1782.32 1866.28 1787.73 Q1866.28 1793.31 1862.81 1796.41 Q1859.34 1799.49 1853.02 1799.49 Q1850.84 1799.49 1848.57 1799.12 Q1846.33 1798.75 1843.92 1798.01 L1843.92 1793.31 Q1846 1794.45 1848.23 1795 Q1850.45 1795.56 1852.93 1795.56 Q1856.93 1795.56 1859.27 1793.45 Q1861.61 1791.34 1861.61 1787.73 Q1861.61 1784.12 1859.27 1782.02 Q1856.93 1779.91 1852.93 1779.91 Q1851.05 1779.91 1849.18 1780.33 Q1847.32 1780.74 1845.38 1781.62 L1845.38 1764.26 Z" fill="#000000" fill-rule="nonzero" fill-opacity="1" /><path clip-path="url(#clip360)" d="M2312.19 1794.89 L2319.83 1794.89 L2319.83 1768.52 L2311.52 1770.19 L2311.52 1765.93 L2319.78 1764.26 L2324.46 1764.26 L2324.46 1794.89 L2332.1 1794.89 L2332.1 1798.82 L2312.19 1798.82 L2312.19 1794.89 Z" fill="#000000" fill-rule="nonzero" fill-opacity="1" /><path clip-path="url(#clip360)" d="M2351.54 1767.34 Q2347.93 1767.34 2346.1 1770.9 Q2344.3 1774.45 2344.3 1781.58 Q2344.3 1788.68 2346.1 1792.25 Q2347.93 1795.79 2351.54 1795.79 Q2355.18 1795.79 2356.98 1792.25 Q2358.81 1788.68 2358.81 1781.58 Q2358.81 1774.45 2356.98 1770.9 Q2355.18 1767.34 2351.54 1767.34 M2351.54 1763.64 Q2357.35 1763.64 2360.41 1768.24 Q2363.49 1772.83 2363.49 1781.58 Q2363.49 1790.3 2360.41 1794.91 Q2357.35 1799.49 2351.54 1799.49 Q2345.73 1799.49 2342.65 1794.91 Q2339.6 1790.3 2339.6 1781.58 Q2339.6 1772.83 2342.65 1768.24 Q2345.73 1763.64 2351.54 1763.64 Z" fill="#000000" fill-rule="nonzero" fill-opacity="1" /><path clip-path="url(#clip360)" d="M2371.7 1792.94 L2376.59 1792.94 L2376.59 1798.82 L2371.7 1798.82 L2371.7 1792.94 Z" fill="#000000" fill-rule="nonzero" fill-opacity="1" /><path clip-path="url(#clip360)" d="M2396.77 1767.34 Q2393.16 1767.34 2391.33 1770.9 Q2389.53 1774.45 2389.53 1781.58 Q2389.53 1788.68 2391.33 1792.25 Q2393.16 1795.79 2396.77 1795.79 Q2400.41 1795.79 2402.21 1792.25 Q2404.04 1788.68 2404.04 1781.58 Q2404.04 1774.45 2402.21 1770.9 Q2400.41 1767.34 2396.77 1767.34 M2396.77 1763.64 Q2402.58 1763.64 2405.64 1768.24 Q2408.72 1772.83 2408.72 1781.58 Q2408.72 1790.3 2405.64 1794.91 Q2402.58 1799.49 2396.77 1799.49 Q2390.96 1799.49 2387.88 1794.91 Q2384.83 1790.3 2384.83 1781.58 Q2384.83 1772.83 2387.88 1768.24 Q2390.96 1763.64 2396.77 1763.64 Z" fill="#000000" fill-rule="nonzero" fill-opacity="1" /><path clip-path="url(#clip360)" d="M1392.61 1835.78 L1401.26 1835.78 L1422.33 1875.53 L1422.33 1835.78 L1428.57 1835.78 L1428.57 1883.3 L1419.92 1883.3 L1398.84 1843.55 L1398.84 1883.3 L1392.61 1883.3 L1392.61 1835.78 Z" fill="#000000" fill-rule="nonzero" fill-opacity="1" /><polyline clip-path="url(#clip360)" style="stroke:#000000; stroke-linecap:round; stroke-linejoin:round; stroke-width:4; stroke-opacity:1; fill:none" points="180.423,1734.12 180.423,127.792 "/>
<polyline clip-path="url(#clip360)" style="stroke:#000000; stroke-linecap:round; stroke-linejoin:round; stroke-width:4; stroke-opacity:1; fill:none" points="180.423,1654.58 199.321,1654.58 "/>
<polyline clip-path="url(#clip360)" style="stroke:#000000; stroke-linecap:round; stroke-linejoin:round; stroke-width:4; stroke-opacity:1; fill:none" points="180.423,1256.67 199.321,1256.67 "/>
<polyline clip-path="url(#clip360)" style="stroke:#000000; stroke-linecap:round; stroke-linejoin:round; stroke-width:4; stroke-opacity:1; fill:none" points="180.423,858.765 199.321,858.765 "/>
<polyline clip-path="url(#clip360)" style="stroke:#000000; stroke-linecap:round; stroke-linejoin:round; stroke-width:4; stroke-opacity:1; fill:none" points="180.423,460.858 199.321,460.858 "/>
<path clip-path="url(#clip360)" d="M128.159 1640.38 Q124.548 1640.38 122.719 1643.94 Q120.913 1647.48 120.913 1654.61 Q120.913 1661.72 122.719 1665.29 Q124.548 1668.83 128.159 1668.83 Q131.793 1668.83 133.599 1665.29 Q135.427 1661.72 135.427 1654.61 Q135.427 1647.48 133.599 1643.94 Q131.793 1640.38 128.159 1640.38 M128.159 1636.67 Q133.969 1636.67 137.025 1641.28 Q140.103 1645.86 140.103 1654.61 Q140.103 1663.34 137.025 1667.95 Q133.969 1672.53 128.159 1672.53 Q122.349 1672.53 119.27 1667.95 Q116.214 1663.34 116.214 1654.61 Q116.214 1645.86 119.27 1641.28 Q122.349 1636.67 128.159 1636.67 Z" fill="#000000" fill-rule="nonzero" fill-opacity="1" /><path clip-path="url(#clip360)" d="M120.196 1270.02 L127.835 1270.02 L127.835 1243.65 L119.525 1245.32 L119.525 1241.06 L127.788 1239.39 L132.464 1239.39 L132.464 1270.02 L140.103 1270.02 L140.103 1273.95 L120.196 1273.95 L120.196 1270.02 Z" fill="#000000" fill-rule="nonzero" fill-opacity="1" /><path clip-path="url(#clip360)" d="M123.784 872.11 L140.103 872.11 L140.103 876.045 L118.159 876.045 L118.159 872.11 Q120.821 869.355 125.404 864.726 Q130.011 860.073 131.191 858.73 Q133.437 856.207 134.316 854.471 Q135.219 852.712 135.219 851.022 Q135.219 848.268 133.275 846.531 Q131.353 844.795 128.251 844.795 Q126.052 844.795 123.599 845.559 Q121.168 846.323 118.39 847.874 L118.39 843.152 Q121.214 842.018 123.668 841.439 Q126.122 840.86 128.159 840.86 Q133.529 840.86 136.724 843.545 Q139.918 846.23 139.918 850.721 Q139.918 852.851 139.108 854.772 Q138.321 856.67 136.214 859.263 Q135.636 859.934 132.534 863.152 Q129.432 866.346 123.784 872.11 Z" fill="#000000" fill-rule="nonzero" fill-opacity="1" /><path clip-path="url(#clip360)" d="M132.974 459.504 Q136.33 460.222 138.205 462.49 Q140.103 464.759 140.103 468.092 Q140.103 473.208 136.585 476.009 Q133.066 478.809 126.585 478.809 Q124.409 478.809 122.094 478.37 Q119.802 477.953 117.349 477.096 L117.349 472.583 Q119.293 473.717 121.608 474.296 Q123.923 474.874 126.446 474.874 Q130.844 474.874 133.136 473.138 Q135.45 471.402 135.45 468.092 Q135.45 465.036 133.298 463.323 Q131.168 461.587 127.349 461.587 L123.321 461.587 L123.321 457.745 L127.534 457.745 Q130.983 457.745 132.812 456.379 Q134.64 454.99 134.64 452.398 Q134.64 449.736 132.742 448.323 Q130.867 446.888 127.349 446.888 Q125.427 446.888 123.228 447.305 Q121.029 447.722 118.39 448.601 L118.39 444.435 Q121.052 443.694 123.367 443.323 Q125.705 442.953 127.765 442.953 Q133.089 442.953 136.191 445.384 Q139.293 447.791 139.293 451.911 Q139.293 454.782 137.65 456.772 Q136.006 458.74 132.974 459.504 Z" fill="#000000" fill-rule="nonzero" fill-opacity="1" /><path clip-path="url(#clip360)" d="M31.465 967.526 Q30.8921 968.512 30.6375 969.69 Q30.351 970.836 30.351 972.236 Q30.351 977.201 33.5975 979.875 Q36.8122 982.517 42.8596 982.517 L61.6384 982.517 L61.6384 988.405 L25.9905 988.405 L25.9905 982.517 L31.5287 982.517 Q28.2821 980.671 26.7225 977.711 Q25.1311 974.751 25.1311 970.517 Q25.1311 969.913 25.2266 969.181 Q25.2903 968.449 25.4494 967.557 L31.465 967.526 Z" fill="#000000" fill-rule="nonzero" fill-opacity="1" /><path clip-path="url(#clip360)" d="M12.1769 947.314 Q19.4975 951.579 26.6589 953.648 Q33.8203 955.717 41.1727 955.717 Q48.5251 955.717 55.7502 953.648 Q62.9434 951.548 70.2321 947.314 L70.2321 952.407 Q62.7524 957.181 55.5274 959.568 Q48.3023 961.924 41.1727 961.924 Q34.0749 961.924 26.8817 959.568 Q19.6884 957.213 12.1769 952.407 L12.1769 947.314 Z" fill="#000000" fill-rule="nonzero" fill-opacity="1" /><path clip-path="url(#clip360)" d="M14.1184 935.697 L14.1184 927.04 L53.8723 905.969 L14.1184 905.969 L14.1184 899.731 L61.6384 899.731 L61.6384 908.388 L21.8846 929.459 L61.6384 929.459 L61.6384 935.697 L14.1184 935.697 Z" fill="#000000" fill-rule="nonzero" fill-opacity="1" /><path clip-path="url(#clip360)" d="M12.1769 888.113 L12.1769 883.021 Q19.6884 878.247 26.8817 875.891 Q34.0749 873.504 41.1727 873.504 Q48.3023 873.504 55.5274 875.891 Q62.7524 878.247 70.2321 883.021 L70.2321 888.113 Q62.9434 883.88 55.7502 881.811 Q48.5251 879.711 41.1727 879.711 Q33.8203 879.711 26.6589 881.811 Q19.4975 883.88 12.1769 888.113 Z" fill="#000000" fill-rule="nonzero" fill-opacity="1" /><path clip-path="url(#clip360)" d="M328.634 44.2197 Q331.267 45.1109 333.738 48.0275 Q336.249 50.9442 338.761 56.0483 L347.065 72.576 L338.275 72.576 L330.537 57.061 Q327.54 50.9847 324.704 48.9997 Q321.909 47.0148 317.048 47.0148 L308.136 47.0148 L308.136 72.576 L299.953 72.576 L299.953 12.096 L318.425 12.096 Q328.796 12.096 333.9 16.4305 Q339.004 20.7649 339.004 29.5149 Q339.004 35.2267 336.33 38.994 Q333.697 42.7613 328.634 44.2197 M308.136 18.8205 L308.136 40.2903 L318.425 40.2903 Q324.34 40.2903 327.337 37.5762 Q330.375 34.8216 330.375 29.5149 Q330.375 24.2082 327.337 21.5346 Q324.34 18.8205 318.425 18.8205 L308.136 18.8205 Z" fill="#000000" fill-rule="nonzero" fill-opacity="1" /><path clip-path="url(#clip360)" d="M392.354 48.0275 L392.354 51.6733 L358.084 51.6733 Q358.57 59.3701 362.702 63.421 Q366.874 67.4314 374.287 67.4314 Q378.581 67.4314 382.592 66.3781 Q386.642 65.3249 390.612 63.2184 L390.612 70.267 Q386.602 71.9684 382.389 72.8596 Q378.176 73.7508 373.842 73.7508 Q362.985 73.7508 356.625 67.4314 Q350.306 61.1119 350.306 50.3365 Q350.306 39.1965 356.301 32.6746 Q362.337 26.1121 372.545 26.1121 Q381.7 26.1121 387.007 32.0264 Q392.354 37.9003 392.354 48.0275 M384.901 45.84 Q384.82 39.7232 381.457 36.0774 Q378.136 32.4315 372.626 32.4315 Q366.388 32.4315 362.621 35.9558 Q358.894 39.4801 358.327 45.8805 L384.901 45.84 Z" fill="#000000" fill-rule="nonzero" fill-opacity="1" /><path clip-path="url(#clip360)" d="M437.238 28.9478 L437.238 35.9153 Q434.079 34.1734 430.878 33.3227 Q427.719 32.4315 424.478 32.4315 Q417.227 32.4315 413.216 37.0496 Q409.206 41.6271 409.206 49.9314 Q409.206 58.2358 413.216 62.8538 Q417.227 67.4314 424.478 67.4314 Q427.719 67.4314 430.878 66.5807 Q434.079 65.6895 437.238 63.9476 L437.238 70.8341 Q434.119 72.2924 430.757 73.0216 Q427.435 73.7508 423.668 73.7508 Q413.419 73.7508 407.383 67.3098 Q401.347 60.8689 401.347 49.9314 Q401.347 38.832 407.424 32.472 Q413.54 26.1121 424.154 26.1121 Q427.597 26.1121 430.878 26.8413 Q434.16 27.5299 437.238 28.9478 Z" fill="#000000" fill-rule="nonzero" fill-opacity="1" /><path clip-path="url(#clip360)" d="M467.782 32.4315 Q461.787 32.4315 458.303 37.1306 Q454.819 41.7891 454.819 49.9314 Q454.819 58.0738 458.262 62.7728 Q461.746 67.4314 467.782 67.4314 Q473.737 67.4314 477.221 62.7323 Q480.704 58.0333 480.704 49.9314 Q480.704 41.8701 477.221 37.1711 Q473.737 32.4315 467.782 32.4315 M467.782 26.1121 Q477.504 26.1121 483.054 32.4315 Q488.604 38.7509 488.604 49.9314 Q488.604 61.0714 483.054 67.4314 Q477.504 73.7508 467.782 73.7508 Q458.019 73.7508 452.47 67.4314 Q446.96 61.0714 446.96 49.9314 Q446.96 38.7509 452.47 32.4315 Q458.019 26.1121 467.782 26.1121 Z" fill="#000000" fill-rule="nonzero" fill-opacity="1" /><path clip-path="url(#clip360)" d="M495.612 27.2059 L503.511 27.2059 L517.689 65.2844 L531.867 27.2059 L539.767 27.2059 L522.753 72.576 L512.626 72.576 L495.612 27.2059 Z" fill="#000000" fill-rule="nonzero" fill-opacity="1" /><path clip-path="url(#clip360)" d="M588.864 48.0275 L588.864 51.6733 L554.593 51.6733 Q555.079 59.3701 559.211 63.421 Q563.383 67.4314 570.797 67.4314 Q575.091 67.4314 579.101 66.3781 Q583.152 65.3249 587.122 63.2184 L587.122 70.267 Q583.111 71.9684 578.898 72.8596 Q574.685 73.7508 570.351 73.7508 Q559.495 73.7508 553.135 67.4314 Q546.815 61.1119 546.815 50.3365 Q546.815 39.1965 552.811 32.6746 Q558.846 26.1121 569.055 26.1121 Q578.21 26.1121 583.516 32.0264 Q588.864 37.9003 588.864 48.0275 M581.41 45.84 Q581.329 39.7232 577.967 36.0774 Q574.645 32.4315 569.136 32.4315 Q562.897 32.4315 559.13 35.9558 Q555.403 39.4801 554.836 45.8805 L581.41 45.84 Z" fill="#000000" fill-rule="nonzero" fill-opacity="1" /><path clip-path="url(#clip360)" d="M627.388 34.1734 Q626.132 33.4443 624.633 33.1202 Q623.175 32.7556 621.392 32.7556 Q615.073 32.7556 611.67 36.8875 Q608.308 40.9789 608.308 48.6757 L608.308 72.576 L600.814 72.576 L600.814 27.2059 L608.308 27.2059 L608.308 34.2544 Q610.657 30.1225 614.425 28.1376 Q618.192 26.1121 623.58 26.1121 Q624.35 26.1121 625.281 26.2337 Q626.213 26.3147 627.347 26.5172 L627.388 34.1734 Z" fill="#000000" fill-rule="nonzero" fill-opacity="1" /><path clip-path="url(#clip360)" d="M672.191 48.0275 L672.191 51.6733 L637.92 51.6733 Q638.406 59.3701 642.538 63.421 Q646.711 67.4314 654.124 67.4314 Q658.418 67.4314 662.428 66.3781 Q666.479 65.3249 670.449 63.2184 L670.449 70.267 Q666.438 71.9684 662.226 72.8596 Q658.013 73.7508 653.678 73.7508 Q642.822 73.7508 636.462 67.4314 Q630.142 61.1119 630.142 50.3365 Q630.142 39.1965 636.138 32.6746 Q642.174 26.1121 652.382 26.1121 Q661.537 26.1121 666.844 32.0264 Q672.191 37.9003 672.191 48.0275 M664.737 45.84 Q664.656 39.7232 661.294 36.0774 Q657.972 32.4315 652.463 32.4315 Q646.224 32.4315 642.457 35.9558 Q638.73 39.4801 638.163 45.8805 L664.737 45.84 Z" fill="#000000" fill-rule="nonzero" fill-opacity="1" /><path clip-path="url(#clip360)" d="M714.28 34.0924 L714.28 9.54393 L721.733 9.54393 L721.733 72.576 L714.28 72.576 L714.28 65.7705 Q711.93 69.8214 708.325 71.8063 Q704.76 73.7508 699.737 73.7508 Q691.514 73.7508 686.328 67.1883 Q681.184 60.6258 681.184 49.9314 Q681.184 39.2371 686.328 32.6746 Q691.514 26.1121 699.737 26.1121 Q704.76 26.1121 708.325 28.0971 Q711.93 30.0415 714.28 34.0924 M688.88 49.9314 Q688.88 58.1548 692.243 62.8538 Q695.645 67.5124 701.56 67.5124 Q707.474 67.5124 710.877 62.8538 Q714.28 58.1548 714.28 49.9314 Q714.28 41.7081 710.877 37.0496 Q707.474 32.3505 701.56 32.3505 Q695.645 32.3505 692.243 37.0496 Q688.88 41.7081 688.88 49.9314 Z" fill="#000000" fill-rule="nonzero" fill-opacity="1" /><path clip-path="url(#clip360)" d="M793.313 49.3643 Q793.313 41.2625 789.951 36.8065 Q786.629 32.3505 780.593 32.3505 Q774.598 32.3505 771.235 36.8065 Q767.914 41.2625 767.914 49.3643 Q767.914 57.4256 771.235 61.8816 Q774.598 66.3376 780.593 66.3376 Q786.629 66.3376 789.951 61.8816 Q793.313 57.4256 793.313 49.3643 M800.766 66.9452 Q800.766 78.5308 795.622 84.1616 Q790.477 89.8329 779.864 89.8329 Q775.934 89.8329 772.451 89.2252 Q768.967 88.6581 765.686 87.4428 L765.686 80.1917 Q768.967 81.9741 772.167 82.8248 Q775.367 83.6755 778.689 83.6755 Q786.021 83.6755 789.667 79.8271 Q793.313 76.0193 793.313 68.282 L793.313 64.5957 Q791.004 68.6061 787.398 70.5911 Q783.793 72.576 778.77 72.576 Q770.425 72.576 765.321 66.2161 Q760.217 59.8562 760.217 49.3643 Q760.217 38.832 765.321 32.472 Q770.425 26.1121 778.77 26.1121 Q783.793 26.1121 787.398 28.0971 Q791.004 30.082 793.313 34.0924 L793.313 27.2059 L800.766 27.2059 L800.766 66.9452 Z" fill="#000000" fill-rule="nonzero" fill-opacity="1" /><path clip-path="url(#clip360)" d="M842.41 34.1734 Q841.154 33.4443 839.655 33.1202 Q838.197 32.7556 836.414 32.7556 Q830.095 32.7556 826.692 36.8875 Q823.33 40.9789 823.33 48.6757 L823.33 72.576 L815.836 72.576 L815.836 27.2059 L823.33 27.2059 L823.33 34.2544 Q825.679 30.1225 829.447 28.1376 Q833.214 26.1121 838.602 26.1121 Q839.372 26.1121 840.303 26.2337 Q841.235 26.3147 842.369 26.5172 L842.41 34.1734 Z" fill="#000000" fill-rule="nonzero" fill-opacity="1" /><path clip-path="url(#clip360)" d="M865.986 32.4315 Q859.991 32.4315 856.507 37.1306 Q853.023 41.7891 853.023 49.9314 Q853.023 58.0738 856.466 62.7728 Q859.95 67.4314 865.986 67.4314 Q871.941 67.4314 875.425 62.7323 Q878.908 58.0333 878.908 49.9314 Q878.908 41.8701 875.425 37.1711 Q871.941 32.4315 865.986 32.4315 M865.986 26.1121 Q875.708 26.1121 881.258 32.4315 Q886.808 38.7509 886.808 49.9314 Q886.808 61.0714 881.258 67.4314 Q875.708 73.7508 865.986 73.7508 Q856.223 73.7508 850.674 67.4314 Q845.164 61.0714 845.164 49.9314 Q845.164 38.7509 850.674 32.4315 Q856.223 26.1121 865.986 26.1121 Z" fill="#000000" fill-rule="nonzero" fill-opacity="1" /><path clip-path="url(#clip360)" d="M894.828 27.2059 L902.282 27.2059 L911.599 62.6108 L920.876 27.2059 L929.666 27.2059 L938.983 62.6108 L948.26 27.2059 L955.714 27.2059 L943.844 72.576 L935.054 72.576 L925.291 35.3887 L915.488 72.576 L906.698 72.576 L894.828 27.2059 Z" fill="#000000" fill-rule="nonzero" fill-opacity="1" /><path clip-path="url(#clip360)" d="M974.388 14.324 L974.388 27.2059 L989.741 27.2059 L989.741 32.9987 L974.388 32.9987 L974.388 57.6282 Q974.388 63.1779 975.887 64.7578 Q977.426 66.3376 982.085 66.3376 L989.741 66.3376 L989.741 72.576 L982.085 72.576 Q973.456 72.576 970.175 69.3758 Q966.894 66.1351 966.894 57.6282 L966.894 32.9987 L961.425 32.9987 L961.425 27.2059 L966.894 27.2059 L966.894 14.324 L974.388 14.324 Z" fill="#000000" fill-rule="nonzero" fill-opacity="1" /><path clip-path="url(#clip360)" d="M1037.26 45.1919 L1037.26 72.576 L1029.8 72.576 L1029.8 45.4349 Q1029.8 38.994 1027.29 35.7938 Q1024.78 32.5936 1019.76 32.5936 Q1013.72 32.5936 1010.24 36.4419 Q1006.75 40.2903 1006.75 46.9338 L1006.75 72.576 L999.261 72.576 L999.261 9.54393 L1006.75 9.54393 L1006.75 34.2544 Q1009.43 30.163 1013.03 28.1376 Q1016.68 26.1121 1021.42 26.1121 Q1029.24 26.1121 1033.25 30.9732 Q1037.26 35.7938 1037.26 45.1919 Z" fill="#000000" fill-rule="nonzero" fill-opacity="1" /><path clip-path="url(#clip360)" d="M1104.79 34.1734 Q1103.53 33.4443 1102.03 33.1202 Q1100.57 32.7556 1098.79 32.7556 Q1092.47 32.7556 1089.07 36.8875 Q1085.71 40.9789 1085.71 48.6757 L1085.71 72.576 L1078.21 72.576 L1078.21 27.2059 L1085.71 27.2059 L1085.71 34.2544 Q1088.06 30.1225 1091.82 28.1376 Q1095.59 26.1121 1100.98 26.1121 Q1101.75 26.1121 1102.68 26.2337 Q1103.61 26.3147 1104.75 26.5172 L1104.79 34.1734 Z" fill="#000000" fill-rule="nonzero" fill-opacity="1" /><path clip-path="url(#clip360)" d="M1133.22 49.7694 Q1124.19 49.7694 1120.71 51.8354 Q1117.22 53.9013 1117.22 58.8839 Q1117.22 62.8538 1119.82 65.2034 Q1122.45 67.5124 1126.95 67.5124 Q1133.14 67.5124 1136.87 63.1374 Q1140.64 58.7219 1140.64 51.4303 L1140.64 49.7694 L1133.22 49.7694 M1148.09 46.6907 L1148.09 72.576 L1140.64 72.576 L1140.64 65.6895 Q1138.09 69.8214 1134.28 71.8063 Q1130.47 73.7508 1124.96 73.7508 Q1117.99 73.7508 1113.86 69.8619 Q1109.77 65.9325 1109.77 59.3701 Q1109.77 51.7138 1114.87 47.825 Q1120.02 43.9361 1130.19 43.9361 L1140.64 43.9361 L1140.64 43.2069 Q1140.64 38.0623 1137.23 35.2672 Q1133.87 32.4315 1127.76 32.4315 Q1123.87 32.4315 1120.18 33.3632 Q1116.49 34.295 1113.09 36.1584 L1113.09 29.2718 Q1117.18 27.692 1121.03 26.9223 Q1124.88 26.1121 1128.53 26.1121 Q1138.37 26.1121 1143.23 31.2163 Q1148.09 36.3204 1148.09 46.6907 Z" fill="#000000" fill-rule="nonzero" fill-opacity="1" /><path clip-path="url(#clip360)" d="M1170.82 14.324 L1170.82 27.2059 L1186.17 27.2059 L1186.17 32.9987 L1170.82 32.9987 L1170.82 57.6282 Q1170.82 63.1779 1172.32 64.7578 Q1173.85 66.3376 1178.51 66.3376 L1186.17 66.3376 L1186.17 72.576 L1178.51 72.576 Q1169.88 72.576 1166.6 69.3758 Q1163.32 66.1351 1163.32 57.6282 L1163.32 32.9987 L1157.85 32.9987 L1157.85 27.2059 L1163.32 27.2059 L1163.32 14.324 L1170.82 14.324 Z" fill="#000000" fill-rule="nonzero" fill-opacity="1" /><path clip-path="url(#clip360)" d="M1234.78 48.0275 L1234.78 51.6733 L1200.51 51.6733 Q1201 59.3701 1205.13 63.421 Q1209.3 67.4314 1216.71 67.4314 Q1221.01 67.4314 1225.02 66.3781 Q1229.07 65.3249 1233.04 63.2184 L1233.04 70.267 Q1229.03 71.9684 1224.82 72.8596 Q1220.6 73.7508 1216.27 73.7508 Q1205.41 73.7508 1199.05 67.4314 Q1192.73 61.1119 1192.73 50.3365 Q1192.73 39.1965 1198.73 32.6746 Q1204.76 26.1121 1214.97 26.1121 Q1224.13 26.1121 1229.43 32.0264 Q1234.78 37.9003 1234.78 48.0275 M1227.33 45.84 Q1227.25 39.7232 1223.88 36.0774 Q1220.56 32.4315 1215.05 32.4315 Q1208.81 32.4315 1205.05 35.9558 Q1201.32 39.4801 1200.75 45.8805 L1227.33 45.84 Z" fill="#000000" fill-rule="nonzero" fill-opacity="1" /><path clip-path="url(#clip360)" d="M1248.92 62.2867 L1257.47 62.2867 L1257.47 72.576 L1248.92 72.576 L1248.92 62.2867 M1248.92 29.6769 L1257.47 29.6769 L1257.47 39.9662 L1248.92 39.9662 L1248.92 29.6769 Z" fill="#000000" fill-rule="nonzero" fill-opacity="1" /><path clip-path="url(#clip360)" d="M1301.66 12.096 L1309.84 12.096 L1309.84 72.576 L1301.66 72.576 L1301.66 12.096 Z" fill="#000000" fill-rule="nonzero" fill-opacity="1" /><path clip-path="url(#clip360)" d="M1363.52 45.1919 L1363.52 72.576 L1356.06 72.576 L1356.06 45.4349 Q1356.06 38.994 1353.55 35.7938 Q1351.04 32.5936 1346.02 32.5936 Q1339.98 32.5936 1336.5 36.4419 Q1333.01 40.2903 1333.01 46.9338 L1333.01 72.576 L1325.52 72.576 L1325.52 27.2059 L1333.01 27.2059 L1333.01 34.2544 Q1335.69 30.163 1339.29 28.1376 Q1342.94 26.1121 1347.68 26.1121 Q1355.5 26.1121 1359.51 30.9732 Q1363.52 35.7938 1363.52 45.1919 Z" fill="#000000" fill-rule="nonzero" fill-opacity="1" /><path clip-path="url(#clip360)" d="M1385.76 14.324 L1385.76 27.2059 L1401.11 27.2059 L1401.11 32.9987 L1385.76 32.9987 L1385.76 57.6282 Q1385.76 63.1779 1387.26 64.7578 Q1388.8 66.3376 1393.45 66.3376 L1401.11 66.3376 L1401.11 72.576 L1393.45 72.576 Q1384.83 72.576 1381.54 69.3758 Q1378.26 66.1351 1378.26 57.6282 L1378.26 32.9987 L1372.79 32.9987 L1372.79 27.2059 L1378.26 27.2059 L1378.26 14.324 L1385.76 14.324 Z" fill="#000000" fill-rule="nonzero" fill-opacity="1" /><path clip-path="url(#clip360)" d="M1449.72 48.0275 L1449.72 51.6733 L1415.45 51.6733 Q1415.94 59.3701 1420.07 63.421 Q1424.24 67.4314 1431.65 67.4314 Q1435.95 67.4314 1439.96 66.3781 Q1444.01 65.3249 1447.98 63.2184 L1447.98 70.267 Q1443.97 71.9684 1439.76 72.8596 Q1435.54 73.7508 1431.21 73.7508 Q1420.35 73.7508 1413.99 67.4314 Q1407.67 61.1119 1407.67 50.3365 Q1407.67 39.1965 1413.67 32.6746 Q1419.7 26.1121 1429.91 26.1121 Q1439.07 26.1121 1444.37 32.0264 Q1449.72 37.9003 1449.72 48.0275 M1442.27 45.84 Q1442.19 39.7232 1438.82 36.0774 Q1435.5 32.4315 1429.99 32.4315 Q1423.75 32.4315 1419.99 35.9558 Q1416.26 39.4801 1415.69 45.8805 L1442.27 45.84 Z" fill="#000000" fill-rule="nonzero" fill-opacity="1" /><path clip-path="url(#clip360)" d="M1491.81 49.3643 Q1491.81 41.2625 1488.45 36.8065 Q1485.13 32.3505 1479.09 32.3505 Q1473.1 32.3505 1469.73 36.8065 Q1466.41 41.2625 1466.41 49.3643 Q1466.41 57.4256 1469.73 61.8816 Q1473.1 66.3376 1479.09 66.3376 Q1485.13 66.3376 1488.45 61.8816 Q1491.81 57.4256 1491.81 49.3643 M1499.26 66.9452 Q1499.26 78.5308 1494.12 84.1616 Q1488.97 89.8329 1478.36 89.8329 Q1474.43 89.8329 1470.95 89.2252 Q1467.46 88.6581 1464.18 87.4428 L1464.18 80.1917 Q1467.46 81.9741 1470.66 82.8248 Q1473.86 83.6755 1477.19 83.6755 Q1484.52 83.6755 1488.16 79.8271 Q1491.81 76.0193 1491.81 68.282 L1491.81 64.5957 Q1489.5 68.6061 1485.9 70.5911 Q1482.29 72.576 1477.27 72.576 Q1468.92 72.576 1463.82 66.2161 Q1458.71 59.8562 1458.71 49.3643 Q1458.71 38.832 1463.82 32.472 Q1468.92 26.1121 1477.27 26.1121 Q1482.29 26.1121 1485.9 28.0971 Q1489.5 30.082 1491.81 34.0924 L1491.81 27.2059 L1499.26 27.2059 L1499.26 66.9452 Z" fill="#000000" fill-rule="nonzero" fill-opacity="1" /><path clip-path="url(#clip360)" d="M1540.91 34.1734 Q1539.65 33.4443 1538.15 33.1202 Q1536.69 32.7556 1534.91 32.7556 Q1528.59 32.7556 1525.19 36.8875 Q1521.83 40.9789 1521.83 48.6757 L1521.83 72.576 L1514.33 72.576 L1514.33 27.2059 L1521.83 27.2059 L1521.83 34.2544 Q1524.18 30.1225 1527.94 28.1376 Q1531.71 26.1121 1537.1 26.1121 Q1537.87 26.1121 1538.8 26.2337 Q1539.73 26.3147 1540.87 26.5172 L1540.91 34.1734 Z" fill="#000000" fill-rule="nonzero" fill-opacity="1" /><path clip-path="url(#clip360)" d="M1569.34 49.7694 Q1560.31 49.7694 1556.83 51.8354 Q1553.34 53.9013 1553.34 58.8839 Q1553.34 62.8538 1555.94 65.2034 Q1558.57 67.5124 1563.07 67.5124 Q1569.26 67.5124 1572.99 63.1374 Q1576.76 58.7219 1576.76 51.4303 L1576.76 49.7694 L1569.34 49.7694 M1584.21 46.6907 L1584.21 72.576 L1576.76 72.576 L1576.76 65.6895 Q1574.21 69.8214 1570.4 71.8063 Q1566.59 73.7508 1561.08 73.7508 Q1554.11 73.7508 1549.98 69.8619 Q1545.89 65.9325 1545.89 59.3701 Q1545.89 51.7138 1550.99 47.825 Q1556.14 43.9361 1566.31 43.9361 L1576.76 43.9361 L1576.76 43.2069 Q1576.76 38.0623 1573.35 35.2672 Q1569.99 32.4315 1563.88 32.4315 Q1559.99 32.4315 1556.3 33.3632 Q1552.61 34.295 1549.21 36.1584 L1549.21 29.2718 Q1553.3 27.692 1557.15 26.9223 Q1561 26.1121 1564.65 26.1121 Q1574.49 26.1121 1579.35 31.2163 Q1584.21 36.3204 1584.21 46.6907 Z" fill="#000000" fill-rule="nonzero" fill-opacity="1" /><path clip-path="url(#clip360)" d="M1599.56 9.54393 L1607.02 9.54393 L1607.02 72.576 L1599.56 72.576 L1599.56 9.54393 Z" fill="#000000" fill-rule="nonzero" fill-opacity="1" /><path clip-path="url(#clip360)" d="M1643.64 27.2059 L1651.54 27.2059 L1665.72 65.2844 L1679.89 27.2059 L1687.79 27.2059 L1670.78 72.576 L1660.65 72.576 L1643.64 27.2059 Z" fill="#000000" fill-rule="nonzero" fill-opacity="1" /><path clip-path="url(#clip360)" d="M1727.01 28.5427 L1727.01 35.5912 Q1723.85 33.9709 1720.44 33.1607 Q1717.04 32.3505 1713.39 32.3505 Q1707.84 32.3505 1705.05 34.0519 Q1702.3 35.7533 1702.3 39.156 Q1702.3 41.7486 1704.28 43.2475 Q1706.27 44.7058 1712.26 46.0426 L1714.81 46.6097 Q1722.75 48.3111 1726.07 51.4303 Q1729.44 54.509 1729.44 60.0587 Q1729.44 66.3781 1724.41 70.0644 Q1719.43 73.7508 1710.68 73.7508 Q1707.03 73.7508 1703.06 73.0216 Q1699.14 72.3329 1694.76 70.9151 L1694.76 63.2184 Q1698.89 65.3654 1702.9 66.4591 Q1706.91 67.5124 1710.84 67.5124 Q1716.11 67.5124 1718.94 65.73 Q1721.78 63.9071 1721.78 60.6258 Q1721.78 57.5877 1719.71 55.9673 Q1717.69 54.3469 1710.76 52.8481 L1708.17 52.2405 Q1701.24 50.7821 1698.16 47.7845 Q1695.08 44.7463 1695.08 39.4801 Q1695.08 33.0797 1699.62 29.5959 Q1704.16 26.1121 1712.5 26.1121 Q1716.64 26.1121 1720.28 26.7198 Q1723.93 27.3274 1727.01 28.5427 Z" fill="#000000" fill-rule="nonzero" fill-opacity="1" /><path clip-path="url(#clip360)" d="M1809.24 63.9476 L1809.24 47.7034 L1795.87 47.7034 L1795.87 40.9789 L1817.34 40.9789 L1817.34 66.9452 Q1812.6 70.3075 1806.89 72.0494 Q1801.18 73.7508 1794.7 73.7508 Q1780.52 73.7508 1772.5 65.4869 Q1764.52 57.1826 1764.52 42.3968 Q1764.52 27.5705 1772.5 19.3066 Q1780.52 11.0023 1794.7 11.0023 Q1800.61 11.0023 1805.92 12.4606 Q1811.26 13.9189 1815.76 16.7545 L1815.76 25.464 Q1811.22 21.6156 1806.12 19.6712 Q1801.02 17.7268 1795.38 17.7268 Q1784.29 17.7268 1778.7 23.9246 Q1773.15 30.1225 1773.15 42.3968 Q1773.15 54.6305 1778.7 60.8284 Q1784.29 67.0263 1795.38 67.0263 Q1799.72 67.0263 1803.12 66.2971 Q1806.52 65.5274 1809.24 63.9476 Z" fill="#000000" fill-rule="nonzero" fill-opacity="1" /><path clip-path="url(#clip360)" d="M1858.25 34.1734 Q1857 33.4443 1855.5 33.1202 Q1854.04 32.7556 1852.26 32.7556 Q1845.94 32.7556 1842.54 36.8875 Q1839.18 40.9789 1839.18 48.6757 L1839.18 72.576 L1831.68 72.576 L1831.68 27.2059 L1839.18 27.2059 L1839.18 34.2544 Q1841.52 30.1225 1845.29 28.1376 Q1849.06 26.1121 1854.45 26.1121 Q1855.22 26.1121 1856.15 26.2337 Q1857.08 26.3147 1858.21 26.5172 L1858.25 34.1734 Z" fill="#000000" fill-rule="nonzero" fill-opacity="1" /><path clip-path="url(#clip360)" d="M1886.69 49.7694 Q1877.66 49.7694 1874.18 51.8354 Q1870.69 53.9013 1870.69 58.8839 Q1870.69 62.8538 1873.28 65.2034 Q1875.92 67.5124 1880.41 67.5124 Q1886.61 67.5124 1890.34 63.1374 Q1894.11 58.7219 1894.11 51.4303 L1894.11 49.7694 L1886.69 49.7694 M1901.56 46.6907 L1901.56 72.576 L1894.11 72.576 L1894.11 65.6895 Q1891.55 69.8214 1887.75 71.8063 Q1883.94 73.7508 1878.43 73.7508 Q1871.46 73.7508 1867.33 69.8619 Q1863.24 65.9325 1863.24 59.3701 Q1863.24 51.7138 1868.34 47.825 Q1873.49 43.9361 1883.65 43.9361 L1894.11 43.9361 L1894.11 43.2069 Q1894.11 38.0623 1890.7 35.2672 Q1887.34 32.4315 1881.22 32.4315 Q1877.33 32.4315 1873.65 33.3632 Q1869.96 34.295 1866.56 36.1584 L1866.56 29.2718 Q1870.65 27.692 1874.5 26.9223 Q1878.35 26.1121 1881.99 26.1121 Q1891.84 26.1121 1896.7 31.2163 Q1901.56 36.3204 1901.56 46.6907 Z" fill="#000000" fill-rule="nonzero" fill-opacity="1" /><path clip-path="url(#clip360)" d="M1946.77 34.0924 L1946.77 9.54393 L1954.22 9.54393 L1954.22 72.576 L1946.77 72.576 L1946.77 65.7705 Q1944.42 69.8214 1940.81 71.8063 Q1937.25 73.7508 1932.22 73.7508 Q1924 73.7508 1918.82 67.1883 Q1913.67 60.6258 1913.67 49.9314 Q1913.67 39.2371 1918.82 32.6746 Q1924 26.1121 1932.22 26.1121 Q1937.25 26.1121 1940.81 28.0971 Q1944.42 30.0415 1946.77 34.0924 M1921.37 49.9314 Q1921.37 58.1548 1924.73 62.8538 Q1928.13 67.5124 1934.05 67.5124 Q1939.96 67.5124 1943.36 62.8538 Q1946.77 58.1548 1946.77 49.9314 Q1946.77 41.7081 1943.36 37.0496 Q1939.96 32.3505 1934.05 32.3505 Q1928.13 32.3505 1924.73 37.0496 Q1921.37 41.7081 1921.37 49.9314 Z" fill="#000000" fill-rule="nonzero" fill-opacity="1" /><path clip-path="url(#clip360)" d="M1969.57 27.2059 L1977.03 27.2059 L1977.03 72.576 L1969.57 72.576 L1969.57 27.2059 M1969.57 9.54393 L1977.03 9.54393 L1977.03 18.9825 L1969.57 18.9825 L1969.57 9.54393 Z" fill="#000000" fill-rule="nonzero" fill-opacity="1" /><path clip-path="url(#clip360)" d="M2031.43 48.0275 L2031.43 51.6733 L1997.16 51.6733 Q1997.65 59.3701 2001.78 63.421 Q2005.95 67.4314 2013.36 67.4314 Q2017.66 67.4314 2021.67 66.3781 Q2025.72 65.3249 2029.69 63.2184 L2029.69 70.267 Q2025.68 71.9684 2021.47 72.8596 Q2017.25 73.7508 2012.92 73.7508 Q2002.06 73.7508 1995.7 67.4314 Q1989.38 61.1119 1989.38 50.3365 Q1989.38 39.1965 1995.38 32.6746 Q2001.41 26.1121 2011.62 26.1121 Q2020.78 26.1121 2026.08 32.0264 Q2031.43 37.9003 2031.43 48.0275 M2023.98 45.84 Q2023.9 39.7232 2020.53 36.0774 Q2017.21 32.4315 2011.7 32.4315 Q2005.46 32.4315 2001.7 35.9558 Q1997.97 39.4801 1997.4 45.8805 L2023.98 45.84 Z" fill="#000000" fill-rule="nonzero" fill-opacity="1" /><path clip-path="url(#clip360)" d="M2081.38 45.1919 L2081.38 72.576 L2073.93 72.576 L2073.93 45.4349 Q2073.93 38.994 2071.41 35.7938 Q2068.9 32.5936 2063.88 32.5936 Q2057.84 32.5936 2054.36 36.4419 Q2050.88 40.2903 2050.88 46.9338 L2050.88 72.576 L2043.38 72.576 L2043.38 27.2059 L2050.88 27.2059 L2050.88 34.2544 Q2053.55 30.163 2057.15 28.1376 Q2060.8 26.1121 2065.54 26.1121 Q2073.36 26.1121 2077.37 30.9732 Q2081.38 35.7938 2081.38 45.1919 Z" fill="#000000" fill-rule="nonzero" fill-opacity="1" /><path clip-path="url(#clip360)" d="M2103.62 14.324 L2103.62 27.2059 L2118.97 27.2059 L2118.97 32.9987 L2103.62 32.9987 L2103.62 57.6282 Q2103.62 63.1779 2105.12 64.7578 Q2106.66 66.3376 2111.31 66.3376 L2118.97 66.3376 L2118.97 72.576 L2111.31 72.576 Q2102.69 72.576 2099.41 69.3758 Q2096.12 66.1351 2096.12 57.6282 L2096.12 32.9987 L2090.66 32.9987 L2090.66 27.2059 L2096.12 27.2059 L2096.12 14.324 L2103.62 14.324 Z" fill="#000000" fill-rule="nonzero" fill-opacity="1" /><path clip-path="url(#clip360)" d="M2155.47 12.096 L2167.66 12.096 L2183.1 53.2532 L2198.61 12.096 L2210.81 12.096 L2210.81 72.576 L2202.82 72.576 L2202.82 19.4686 L2187.23 60.9499 L2179.01 60.9499 L2163.41 19.4686 L2163.41 72.576 L2155.47 72.576 L2155.47 12.096 Z" fill="#000000" fill-rule="nonzero" fill-opacity="1" /><path clip-path="url(#clip360)" d="M2247.34 49.7694 Q2238.31 49.7694 2234.83 51.8354 Q2231.34 53.9013 2231.34 58.8839 Q2231.34 62.8538 2233.94 65.2034 Q2236.57 67.5124 2241.07 67.5124 Q2247.26 67.5124 2250.99 63.1374 Q2254.76 58.7219 2254.76 51.4303 L2254.76 49.7694 L2247.34 49.7694 M2262.21 46.6907 L2262.21 72.576 L2254.76 72.576 L2254.76 65.6895 Q2252.21 69.8214 2248.4 71.8063 Q2244.59 73.7508 2239.08 73.7508 Q2232.11 73.7508 2227.98 69.8619 Q2223.89 65.9325 2223.89 59.3701 Q2223.89 51.7138 2228.99 47.825 Q2234.14 43.9361 2244.31 43.9361 L2254.76 43.9361 L2254.76 43.2069 Q2254.76 38.0623 2251.35 35.2672 Q2247.99 32.4315 2241.88 32.4315 Q2237.99 32.4315 2234.3 33.3632 Q2230.61 34.295 2227.21 36.1584 L2227.21 29.2718 Q2231.3 27.692 2235.15 26.9223 Q2239 26.1121 2242.65 26.1121 Q2252.49 26.1121 2257.35 31.2163 Q2262.21 36.3204 2262.21 46.6907 Z" fill="#000000" fill-rule="nonzero" fill-opacity="1" /><path clip-path="url(#clip360)" d="M2284.94 14.324 L2284.94 27.2059 L2300.29 27.2059 L2300.29 32.9987 L2284.94 32.9987 L2284.94 57.6282 Q2284.94 63.1779 2286.44 64.7578 Q2287.97 66.3376 2292.63 66.3376 L2300.29 66.3376 L2300.29 72.576 L2292.63 72.576 Q2284.01 72.576 2280.72 69.3758 Q2277.44 66.1351 2277.44 57.6282 L2277.44 32.9987 L2271.97 32.9987 L2271.97 27.2059 L2277.44 27.2059 L2277.44 14.324 L2284.94 14.324 Z" fill="#000000" fill-rule="nonzero" fill-opacity="1" /><path clip-path="url(#clip360)" d="M2342.74 28.9478 L2342.74 35.9153 Q2339.58 34.1734 2336.38 33.3227 Q2333.22 32.4315 2329.98 32.4315 Q2322.73 32.4315 2318.72 37.0496 Q2314.71 41.6271 2314.71 49.9314 Q2314.71 58.2358 2318.72 62.8538 Q2322.73 67.4314 2329.98 67.4314 Q2333.22 67.4314 2336.38 66.5807 Q2339.58 65.6895 2342.74 63.9476 L2342.74 70.8341 Q2339.62 72.2924 2336.26 73.0216 Q2332.94 73.7508 2329.17 73.7508 Q2318.92 73.7508 2312.89 67.3098 Q2306.85 60.8689 2306.85 49.9314 Q2306.85 38.832 2312.93 32.472 Q2319.05 26.1121 2329.66 26.1121 Q2333.1 26.1121 2336.38 26.8413 Q2339.66 27.5299 2342.74 28.9478 Z" fill="#000000" fill-rule="nonzero" fill-opacity="1" /><path clip-path="url(#clip360)" d="M2393.42 45.1919 L2393.42 72.576 L2385.97 72.576 L2385.97 45.4349 Q2385.97 38.994 2383.45 35.7938 Q2380.94 32.5936 2375.92 32.5936 Q2369.88 32.5936 2366.4 36.4419 Q2362.92 40.2903 2362.92 46.9338 L2362.92 72.576 L2355.42 72.576 L2355.42 9.54393 L2362.92 9.54393 L2362.92 34.2544 Q2365.59 30.163 2369.2 28.1376 Q2372.84 26.1121 2377.58 26.1121 Q2385.4 26.1121 2389.41 30.9732 Q2393.42 35.7938 2393.42 45.1919 Z" fill="#000000" fill-rule="nonzero" fill-opacity="1" /><path clip-path="url(#clip360)" d="M2408.29 27.2059 L2415.74 27.2059 L2415.74 72.576 L2408.29 72.576 L2408.29 27.2059 M2408.29 9.54393 L2415.74 9.54393 L2415.74 18.9825 L2408.29 18.9825 L2408.29 9.54393 Z" fill="#000000" fill-rule="nonzero" fill-opacity="1" /><path clip-path="url(#clip360)" d="M2469.05 45.1919 L2469.05 72.576 L2461.6 72.576 L2461.6 45.4349 Q2461.6 38.994 2459.09 35.7938 Q2456.57 32.5936 2451.55 32.5936 Q2445.51 32.5936 2442.03 36.4419 Q2438.55 40.2903 2438.55 46.9338 L2438.55 72.576 L2431.05 72.576 L2431.05 27.2059 L2438.55 27.2059 L2438.55 34.2544 Q2441.22 30.163 2444.83 28.1376 Q2448.47 26.1121 2453.21 26.1121 Q2461.03 26.1121 2465.04 30.9732 Q2469.05 35.7938 2469.05 45.1919 Z" fill="#000000" fill-rule="nonzero" fill-opacity="1" /><path clip-path="url(#clip360)" d="M2513.77 49.3643 Q2513.77 41.2625 2510.41 36.8065 Q2507.09 32.3505 2501.05 32.3505 Q2495.06 32.3505 2491.69 36.8065 Q2488.37 41.2625 2488.37 49.3643 Q2488.37 57.4256 2491.69 61.8816 Q2495.06 66.3376 2501.05 66.3376 Q2507.09 66.3376 2510.41 61.8816 Q2513.77 57.4256 2513.77 49.3643 M2521.23 66.9452 Q2521.23 78.5308 2516.08 84.1616 Q2510.94 89.8329 2500.32 89.8329 Q2496.39 89.8329 2492.91 89.2252 Q2489.43 88.6581 2486.15 87.4428 L2486.15 80.1917 Q2489.43 81.9741 2492.63 82.8248 Q2495.83 83.6755 2499.15 83.6755 Q2506.48 83.6755 2510.13 79.8271 Q2513.77 76.0193 2513.77 68.282 L2513.77 64.5957 Q2511.46 68.6061 2507.86 70.5911 Q2504.25 72.576 2499.23 72.576 Q2490.88 72.576 2485.78 66.2161 Q2480.68 59.8562 2480.68 49.3643 Q2480.68 38.832 2485.78 32.472 Q2490.88 26.1121 2499.23 26.1121 Q2504.25 26.1121 2507.86 28.0971 Q2511.46 30.082 2513.77 34.0924 L2513.77 27.2059 L2521.23 27.2059 L2521.23 66.9452 Z" fill="#000000" fill-rule="nonzero" fill-opacity="1" /><polyline clip-path="url(#clip361)" style="stroke:#000000; stroke-linecap:round; stroke-linejoin:round; stroke-width:12; stroke-opacity:1; fill:none" stroke-dasharray="48, 30" points="250.055,1455.63 273.5,1457.84 296.946,1460.05 320.391,1462.26 343.836,1464.47 367.281,1466.68 390.726,1468.89 414.171,1471.1 437.616,1473.31 461.061,1475.52 484.507,1477.73 507.952,1479.94 531.397,1482.15 554.842,1484.36 578.287,1486.57 601.732,1488.78 625.177,1491 648.623,1493.21 672.068,1495.42 695.513,1497.63 718.958,1499.84 742.403,1502.05 765.848,1504.26 789.293,1506.47 812.739,1508.68 836.184,1510.89 859.629,1513.1 883.074,1515.31 906.519,1517.52 929.964,1519.73 953.409,1521.94 976.855,1524.15 1000.3,1526.36 1023.74,1528.58 1047.19,1530.79 1070.64,1533 1094.08,1535.21 1117.53,1537.42 1140.97,1539.63 1164.42,1541.84 1187.86,1544.05 1211.31,1546.26 1234.75,1548.47 1258.2,1550.68 1281.64,1552.89 1305.09,1555.1 1328.53,1557.31 1351.98,1559.52 1375.42,1561.73 1398.87,1563.94 1422.31,1566.16 1445.76,1568.37 1469.2,1570.58 1492.65,1572.79 1516.09,1575 1539.54,1577.21 1562.98,1579.42 1586.43,1581.63 1609.87,1583.84 1633.32,1586.05 1656.76,1588.26 1680.21,1590.47 1703.65,1592.68 1727.1,1594.89 1750.54,1597.1 1773.99,1599.31 1797.43,1601.52 1820.88,1603.74 1844.32,1605.95 1867.77,1608.16 1891.21,1610.37 1914.66,1612.58 1938.11,1614.79 1961.55,1617 1985,1619.21 2008.44,1621.42 2031.89,1623.63 2055.33,1625.84 2078.78,1628.05 2102.22,1630.26 2125.67,1632.47 2149.11,1634.68 2172.56,1636.89 2196,1639.11 2219.45,1641.32 2242.89,1643.53 2266.34,1645.74 2289.78,1647.95 2313.23,1650.16 2336.67,1652.37 2360.12,1654.58 2383.56,1656.79 2407.01,1659 2430.45,1661.21 2453.9,1663.42 2477.34,1665.63 2500.79,1667.84 2524.23,1670.05 2547.68,1672.26 2571.12,1674.47 "/>
<polyline clip-path="url(#clip361)" style="stroke:#0000ff; stroke-linecap:round; stroke-linejoin:round; stroke-width:8; stroke-opacity:1; fill:none" points="250.055,1457.03 273.5,1459.18 296.946,1461.33 320.391,1463.48 343.836,1465.63 367.281,1467.78 390.726,1469.93 414.171,1472.08 437.616,1474.23 461.061,1476.38 484.507,1478.53 507.952,1480.68 531.397,1482.83 554.842,1484.98 578.287,1487.13 601.732,1489.28 625.177,1491.43 648.623,1493.59 672.068,1495.74 695.513,1497.89 718.958,1500.04 742.403,1502.19 765.848,1504.34 789.293,1506.49 812.739,1508.64 836.184,1510.79 859.629,1512.93 883.074,1515.08 906.519,1517.23 929.964,1519.38 953.409,1521.53 976.855,1523.69 1000.3,1525.84 1023.74,1527.99 1047.19,1530.14 1070.64,1532.3 1094.08,1534.45 1117.53,1536.61 1140.97,1538.77 1164.42,1540.93 1187.86,1543.09 1211.31,1545.26 1234.75,1547.42 1258.2,1549.59 1281.64,1551.77 1305.09,1553.94 1328.53,1556.12 1351.98,1558.31 1375.42,1560.5 1398.87,1562.69 1422.31,1564.88 1445.76,1567.08 1469.2,1569.28 1492.65,1571.48 1516.09,1573.69 1539.54,1575.9 1562.98,1578.11 1586.43,1580.33 1609.87,1582.55 1633.32,1584.77 1656.76,1587 1680.21,1589.22 1703.65,1591.45 1727.1,1593.68 1750.54,1595.91 1773.99,1598.14 1797.43,1600.37 1820.88,1602.6 1844.32,1604.83 1867.77,1607.06 1891.21,1609.29 1914.66,1611.52 1938.11,1613.75 1961.55,1615.98 1985,1618.2 2008.44,1620.43 2031.89,1622.65 2055.33,1624.87 2078.78,1627.09 2102.22,1629.31 2125.67,1631.52 2149.11,1633.74 2172.56,1635.96 2196,1638.17 2219.45,1640.39 2242.89,1642.6 2266.34,1644.82 2289.78,1647.04 2313.23,1649.27 2336.67,1651.49 2360.12,1653.72 2383.56,1655.95 2407.01,1658.18 2430.45,1660.41 2453.9,1662.64 2477.34,1664.88 2500.79,1667.11 2524.23,1669.35 2547.68,1671.59 2571.12,1673.83 "/>
<polyline clip-path="url(#clip361)" style="stroke:#add8e6; stroke-linecap:round; stroke-linejoin:round; stroke-width:4; stroke-opacity:1; fill:none" stroke-dasharray="2, 4" points="250.055,1353.75 273.5,1363.2 296.946,1372.61 320.391,1381.96 343.836,1391.21 367.281,1400.33 390.726,1409.28 414.171,1418.03 437.616,1426.54 461.061,1434.79 484.507,1442.75 507.952,1450.36 531.397,1457.63 554.842,1464.54 578.287,1471.11 601.732,1477.36 625.177,1483.3 648.623,1488.94 672.068,1494.3 695.513,1499.4 718.958,1504.25 742.403,1508.86 765.848,1513.24 789.293,1517.41 812.739,1521.33 836.184,1524.98 859.629,1528.33 883.074,1531.35 906.519,1533.99 929.964,1536.24 953.409,1538.06 976.855,1539.41 1000.3,1540.28 1023.74,1540.61 1047.19,1540.42 1070.64,1539.8 1094.08,1538.88 1117.53,1537.79 1140.97,1536.65 1164.42,1535.59 1187.86,1534.74 1211.31,1534.22 1234.75,1534.17 1258.2,1534.71 1281.64,1535.98 1305.09,1538.04 1328.53,1540.82 1351.98,1544.2 1375.42,1548.04 1398.87,1552.21 1422.31,1556.6 1445.76,1561.06 1469.2,1565.49 1492.65,1569.74 1516.09,1573.69 1539.54,1577.21 1562.98,1580.21 1586.43,1582.74 1609.87,1584.88 1633.32,1586.72 1656.76,1588.33 1680.21,1589.8 1703.65,1591.22 1727.1,1592.65 1750.54,1594.2 1773.99,1595.94 1797.43,1597.94 1820.88,1600.29 1844.32,1602.92 1867.77,1605.78 1891.21,1608.81 1914.66,1611.95 1938.11,1615.12 1961.55,1618.28 1985,1621.35 2008.44,1624.27 2031.89,1626.99 2055.33,1629.43 2078.78,1631.56 2102.22,1633.41 2125.67,1635.05 2149.11,1636.55 2172.56,1637.96 2196,1639.35 2219.45,1640.78 2242.89,1642.31 2266.34,1644.01 2289.78,1645.94 2313.23,1648.16 2336.67,1650.71 2360.12,1653.59 2383.56,1656.76 2407.01,1660.18 2430.45,1663.83 2453.9,1667.67 2477.34,1671.68 2500.79,1675.81 2524.23,1680.04 2547.68,1684.33 2571.12,1688.65 "/>
<polyline clip-path="url(#clip361)" style="stroke:#ff0000; stroke-linecap:round; stroke-linejoin:round; stroke-width:8; stroke-opacity:1; fill:none" points="250.055,1457.03 273.5,1459.04 296.946,1461.04 320.391,1463.04 343.836,1465.05 367.281,1467.05 390.726,1469.05 414.171,1471.06 437.616,1473.06 461.061,1475.06 484.507,1477.07 507.952,1479.07 531.397,1481.08 554.842,1483.08 578.287,1485.08 601.732,1487.09 625.177,1489.09 648.623,1491.09 672.068,1493.09 695.513,1495.09 718.958,1497.09 742.403,1499.09 765.848,1501.08 789.293,1503.07 812.739,1505.06 836.184,1507.05 859.629,1509.04 883.074,1511.03 906.519,1513.01 929.964,1515 953.409,1517 976.855,1518.99 1000.3,1520.99 1023.74,1522.99 1047.19,1524.99 1070.64,1527 1094.08,1529.02 1117.53,1531.04 1140.97,1533.08 1164.42,1535.12 1187.86,1537.17 1211.31,1539.24 1234.75,1541.32 1258.2,1543.42 1281.64,1545.53 1305.09,1547.66 1328.53,1549.8 1351.98,1551.97 1375.42,1554.15 1398.87,1556.34 1422.31,1558.56 1445.76,1560.79 1469.2,1563.03 1492.65,1565.3 1516.09,1567.58 1539.54,1569.87 1562.98,1572.19 1586.43,1574.51 1609.87,1576.86 1633.32,1579.21 1656.76,1581.58 1680.21,1583.96 1703.65,1586.34 1727.1,1588.74 1750.54,1591.14 1773.99,1593.55 1797.43,1595.96 1820.88,1598.38 1844.32,1600.8 1867.77,1603.22 1891.21,1605.64 1914.66,1608.05 1938.11,1610.46 1961.55,1612.86 1985,1615.25 2008.44,1617.63 2031.89,1619.99 2055.33,1622.34 2078.78,1624.67 2102.22,1626.99 2125.67,1629.27 2149.11,1631.53 2172.56,1633.77 2196,1635.97 2219.45,1638.13 2242.89,1640.26 2266.34,1642.35 2289.78,1644.39 2313.23,1646.39 2336.67,1648.34 2360.12,1650.24 2383.56,1652.11 2407.01,1653.94 2430.45,1655.73 2453.9,1657.5 2477.34,1659.25 2500.79,1660.98 2524.23,1662.69 2547.68,1664.4 2571.12,1666.1 "/>
<polyline clip-path="url(#clip361)" style="stroke:#fa8072; stroke-linecap:round; stroke-linejoin:round; stroke-width:4; stroke-opacity:1; fill:none" stroke-dasharray="2, 4" points="250.055,884.697 273.5,927.631 296.946,970.483 320.391,1013.17 343.836,1055.62 367.281,1097.74 390.726,1139.46 414.171,1180.69 437.616,1221.35 461.061,1261.37 484.507,1300.65 507.952,1339.13 531.397,1376.65 554.842,1412.83 578.287,1447.23 601.732,1479.39 625.177,1508.87 648.623,1535.22 672.068,1557.99 695.513,1576.75 718.958,1591.02 742.403,1600.39 765.848,1604.38 789.293,1602.79 812.739,1596.29 836.184,1585.78 859.629,1572.18 883.074,1556.4 906.519,1539.32 929.964,1521.87 953.409,1504.95 976.855,1489.46 1000.3,1476.32 1023.74,1466.41 1047.19,1460.43 1070.64,1458.07 1094.08,1458.83 1117.53,1462.18 1140.97,1467.6 1164.42,1474.58 1187.86,1482.59 1211.31,1491.12 1234.75,1499.64 1258.2,1507.64 1281.64,1514.6 1305.09,1520.12 1328.53,1524.3 1351.98,1527.38 1375.42,1529.6 1398.87,1531.17 1422.31,1532.34 1445.76,1533.33 1469.2,1534.38 1492.65,1535.71 1516.09,1537.55 1539.54,1540.15 1562.98,1543.66 1586.43,1548 1609.87,1553.04 1633.32,1558.62 1656.76,1564.61 1680.21,1570.86 1703.65,1577.23 1727.1,1583.57 1750.54,1589.75 1773.99,1595.61 1797.43,1601.02 1820.88,1605.85 1844.32,1610.15 1867.77,1613.95 1891.21,1617.32 1914.66,1620.31 1938.11,1622.97 1961.55,1625.36 1985,1627.54 2008.44,1629.55 2031.89,1631.45 2055.33,1633.3 2078.78,1635.14 2102.22,1636.97 2125.67,1638.77 2149.11,1640.52 2172.56,1642.21 2196,1643.82 2219.45,1645.34 2242.89,1646.75 2266.34,1648.04 2289.78,1649.19 2313.23,1650.18 2336.67,1651.01 2360.12,1651.68 2383.56,1652.21 2407.01,1652.62 2430.45,1652.92 2453.9,1653.13 2477.34,1653.25 2500.79,1653.32 2524.23,1653.34 2547.68,1653.32 2571.12,1653.3 "/>
<polyline clip-path="url(#clip361)" style="stroke:#008000; stroke-linecap:round; stroke-linejoin:round; stroke-width:8; stroke-opacity:1; fill:none" points="250.055,1452.69 273.5,1454.42 296.946,1456.14 320.391,1457.87 343.836,1459.59 367.281,1461.32 390.726,1463.04 414.171,1464.77 437.616,1466.5 461.061,1468.22 484.507,1469.95 507.952,1471.68 531.397,1473.4 554.842,1475.13 578.287,1476.86 601.732,1478.58 625.177,1480.31 648.623,1482.04 672.068,1483.76 695.513,1485.49 718.958,1487.21 742.403,1488.94 765.848,1490.66 789.293,1492.39 812.739,1494.11 836.184,1495.84 859.629,1497.57 883.074,1499.3 906.519,1501.04 929.964,1502.79 953.409,1504.55 976.855,1506.32 1000.3,1508.1 1023.74,1509.89 1047.19,1511.7 1070.64,1513.53 1094.08,1515.37 1117.53,1517.25 1140.97,1519.14 1164.42,1521.07 1187.86,1523.03 1211.31,1525.03 1234.75,1527.07 1258.2,1529.14 1281.64,1531.27 1305.09,1533.44 1328.53,1535.65 1351.98,1537.92 1375.42,1540.22 1398.87,1542.58 1422.31,1544.98 1445.76,1547.43 1469.2,1549.92 1492.65,1552.45 1516.09,1555.03 1539.54,1557.65 1562.98,1560.31 1586.43,1563.01 1609.87,1565.76 1633.32,1568.54 1656.76,1571.37 1680.21,1574.24 1703.65,1577.15 1727.1,1580.1 1750.54,1583.09 1773.99,1586.13 1797.43,1589.2 1820.88,1592.31 1844.32,1595.45 1867.77,1598.61 1891.21,1601.78 1914.66,1604.95 1938.11,1608.12 1961.55,1611.27 1985,1614.39 2008.44,1617.48 2031.89,1620.52 2055.33,1623.5 2078.78,1626.42 2102.22,1629.26 2125.67,1632.02 2149.11,1634.67 2172.56,1637.21 2196,1639.62 2219.45,1641.9 2242.89,1644.02 2266.34,1645.98 2289.78,1647.77 2313.23,1649.37 2336.67,1650.77 2360.12,1651.99 2383.56,1653.05 2407.01,1653.97 2430.45,1654.75 2453.9,1655.43 2477.34,1656.02 2500.79,1656.54 2524.23,1657 2547.68,1657.42 2571.12,1657.83 "/>
<polyline clip-path="url(#clip361)" style="stroke:#90ee90; stroke-linecap:round; stroke-linejoin:round; stroke-width:4; stroke-opacity:1; fill:none" stroke-dasharray="2, 4" points="250.055,173.254 273.5,297.57 296.946,420.767 320.391,541.725 343.836,659.324 367.281,772.446 390.726,879.97 414.171,980.777 437.616,1073.75 461.061,1157.76 484.507,1231.7 507.952,1294.45 531.397,1345.31 554.842,1385.36 578.287,1416.07 601.732,1438.94 625.177,1455.47 648.623,1467.14 672.068,1475.44 695.513,1481.87 718.958,1487.93 742.403,1495.09 765.848,1504.85 789.293,1518.31 812.739,1534.97 836.184,1553.93 859.629,1574.3 883.074,1595.19 906.519,1615.69 929.964,1634.93 953.409,1651.99 976.855,1665.99 1000.3,1676.03 1023.74,1681.22 1047.19,1680.93 1070.64,1675.61 1094.08,1665.99 1117.53,1652.78 1140.97,1636.71 1164.42,1618.5 1187.86,1598.86 1211.31,1578.53 1234.75,1558.21 1258.2,1538.64 1281.64,1520.52 1305.09,1504.47 1328.53,1490.61 1351.98,1478.95 1375.42,1469.48 1398.87,1462.22 1422.31,1457.17 1445.76,1454.35 1469.2,1453.74 1492.65,1455.37 1516.09,1459.23 1539.54,1465.34 1562.98,1473.63 1586.43,1483.79 1609.87,1495.47 1633.32,1508.27 1656.76,1521.83 1680.21,1535.78 1703.65,1549.74 1727.1,1563.34 1750.54,1576.22 1773.99,1587.99 1797.43,1598.29 1820.88,1606.83 1844.32,1613.73 1867.77,1619.17 1891.21,1623.37 1914.66,1626.51 1938.11,1628.8 1961.55,1630.43 1985,1631.6 2008.44,1632.51 2031.89,1633.36 2055.33,1634.35 2078.78,1635.63 2102.22,1637.19 2125.67,1638.95 2149.11,1640.87 2172.56,1642.88 2196,1644.91 2219.45,1646.91 2242.89,1648.81 2266.34,1650.56 2289.78,1652.08 2313.23,1653.33 2336.67,1654.25 2360.12,1654.85 2383.56,1655.18 2407.01,1655.25 2430.45,1655.11 2453.9,1654.78 2477.34,1654.29 2500.79,1653.68 2524.23,1652.98 2547.68,1652.21 2571.12,1651.41 "/>
<path clip-path="url(#clip360)" d="M2080.65 596.056 L2558.74 596.056 L2558.74 181.336 L2080.65 181.336  Z" fill="#ffffff" fill-rule="evenodd" fill-opacity="1"/>
<polyline clip-path="url(#clip360)" style="stroke:#000000; stroke-linecap:round; stroke-linejoin:round; stroke-width:4; stroke-opacity:1; fill:none" points="2080.65,596.056 2558.74,596.056 2558.74,181.336 2080.65,181.336 2080.65,596.056 "/>
<polyline clip-path="url(#clip360)" style="stroke:#000000; stroke-linecap:round; stroke-linejoin:round; stroke-width:12; stroke-opacity:1; fill:none" stroke-dasharray="48, 30" points="2107.99,233.176 2272.01,233.176 "/>
<path clip-path="url(#clip360)" d="M2299.35 215.896 L2328.58 215.896 L2328.58 219.831 L2316.32 219.831 L2316.32 250.456 L2311.62 250.456 L2311.62 219.831 L2299.35 219.831 L2299.35 215.896 Z" fill="#000000" fill-rule="nonzero" fill-opacity="1" /><path clip-path="url(#clip360)" d="M2340.97 228.512 Q2340.25 228.095 2339.39 227.91 Q2338.56 227.702 2337.54 227.702 Q2333.93 227.702 2331.99 230.063 Q2330.07 232.401 2330.07 236.799 L2330.07 250.456 L2325.78 250.456 L2325.78 224.531 L2330.07 224.531 L2330.07 228.558 Q2331.41 226.197 2333.56 225.063 Q2335.71 223.906 2338.79 223.906 Q2339.23 223.906 2339.77 223.975 Q2340.3 224.021 2340.95 224.137 L2340.97 228.512 Z" fill="#000000" fill-rule="nonzero" fill-opacity="1" /><path clip-path="url(#clip360)" d="M2345 240.225 L2345 224.531 L2349.26 224.531 L2349.26 240.063 Q2349.26 243.743 2350.69 245.595 Q2352.13 247.424 2355 247.424 Q2358.45 247.424 2360.44 245.225 Q2362.45 243.026 2362.45 239.229 L2362.45 224.531 L2366.71 224.531 L2366.71 250.456 L2362.45 250.456 L2362.45 246.475 Q2360.9 248.836 2358.84 249.993 Q2356.8 251.128 2354.09 251.128 Q2349.63 251.128 2347.31 248.35 Q2345 245.572 2345 240.225 M2355.71 223.906 L2355.71 223.906 Z" fill="#000000" fill-rule="nonzero" fill-opacity="1" /><path clip-path="url(#clip360)" d="M2397.66 236.429 L2397.66 238.512 L2378.08 238.512 Q2378.35 242.91 2380.71 245.225 Q2383.1 247.516 2387.33 247.516 Q2389.79 247.516 2392.08 246.915 Q2394.39 246.313 2396.66 245.109 L2396.66 249.137 Q2394.37 250.109 2391.96 250.618 Q2389.56 251.128 2387.08 251.128 Q2380.88 251.128 2377.24 247.516 Q2373.63 243.905 2373.63 237.748 Q2373.63 231.382 2377.06 227.655 Q2380.51 223.906 2386.34 223.906 Q2391.57 223.906 2394.6 227.285 Q2397.66 230.642 2397.66 236.429 M2393.4 235.179 Q2393.35 231.683 2391.43 229.6 Q2389.53 227.517 2386.39 227.517 Q2382.82 227.517 2380.67 229.53 Q2378.54 231.544 2378.21 235.202 L2393.4 235.179 Z" fill="#000000" fill-rule="nonzero" fill-opacity="1" /><path clip-path="url(#clip360)" d="M2434.74 228.512 Q2434.02 228.095 2433.17 227.91 Q2432.33 227.702 2431.32 227.702 Q2427.7 227.702 2425.76 230.063 Q2423.84 232.401 2423.84 236.799 L2423.84 250.456 L2419.56 250.456 L2419.56 224.531 L2423.84 224.531 L2423.84 228.558 Q2425.18 226.197 2427.33 225.063 Q2429.49 223.906 2432.57 223.906 Q2433.01 223.906 2433.54 223.975 Q2434.07 224.021 2434.72 224.137 L2434.74 228.512 Z" fill="#000000" fill-rule="nonzero" fill-opacity="1" /><path clip-path="url(#clip360)" d="M2449.44 214.484 Q2446.34 219.808 2444.83 225.017 Q2443.33 230.225 2443.33 235.572 Q2443.33 240.919 2444.83 246.174 Q2446.36 251.405 2449.44 256.706 L2445.74 256.706 Q2442.26 251.266 2440.53 246.012 Q2438.82 240.757 2438.82 235.572 Q2438.82 230.41 2440.53 225.179 Q2442.24 219.947 2445.74 214.484 L2449.44 214.484 Z" fill="#000000" fill-rule="nonzero" fill-opacity="1" /><path clip-path="url(#clip360)" d="M2457.89 215.896 L2464.19 215.896 L2479.51 244.808 L2479.51 215.896 L2484.05 215.896 L2484.05 250.456 L2477.75 250.456 L2462.43 221.544 L2462.43 250.456 L2457.89 250.456 L2457.89 215.896 Z" fill="#000000" fill-rule="nonzero" fill-opacity="1" /><path clip-path="url(#clip360)" d="M2492.5 214.484 L2496.2 214.484 Q2499.67 219.947 2501.38 225.179 Q2503.12 230.41 2503.12 235.572 Q2503.12 240.757 2501.38 246.012 Q2499.67 251.266 2496.2 256.706 L2492.5 256.706 Q2495.57 251.405 2497.08 246.174 Q2498.61 240.919 2498.61 235.572 Q2498.61 230.225 2497.08 225.017 Q2495.57 219.808 2492.5 214.484 Z" fill="#000000" fill-rule="nonzero" fill-opacity="1" /><polyline clip-path="url(#clip360)" style="stroke:#0000ff; stroke-linecap:round; stroke-linejoin:round; stroke-width:8; stroke-opacity:1; fill:none" points="2107.99,285.016 2272.01,285.016 "/>
<path clip-path="url(#clip360)" d="M2299.35 267.736 L2304.02 267.736 L2304.02 302.296 L2299.35 302.296 L2299.35 267.736 Z" fill="#000000" fill-rule="nonzero" fill-opacity="1" /><path clip-path="url(#clip360)" d="M2313.33 267.736 L2320.3 267.736 L2329.12 291.255 L2337.98 267.736 L2344.95 267.736 L2344.95 302.296 L2340.39 302.296 L2340.39 271.949 L2331.48 295.653 L2326.78 295.653 L2317.87 271.949 L2317.87 302.296 L2313.33 302.296 L2313.33 267.736 Z" fill="#000000" fill-rule="nonzero" fill-opacity="1" /><path clip-path="url(#clip360)" d="M2379.16 279.75 Q2375.64 279.75 2373.75 282.296 Q2371.76 284.958 2371.76 289.357 Q2371.76 294.009 2373.72 296.694 Q2375.71 299.356 2379.16 299.356 Q2382.57 299.356 2384.56 296.671 Q2386.55 293.986 2386.55 289.357 Q2386.55 285.12 2384.56 282.296 Q2382.73 279.75 2379.16 279.75 M2379.16 276.371 L2393.31 276.371 L2393.31 280.63 L2388.54 280.63 Q2391.06 284.241 2391.06 289.357 Q2391.06 295.722 2387.89 299.333 Q2384.72 302.968 2379.16 302.968 Q2373.58 302.968 2370.44 299.333 Q2367.27 295.722 2367.27 289.357 Q2367.27 282.945 2370.44 279.357 Q2373.05 276.371 2379.16 276.371 Z" fill="#000000" fill-rule="nonzero" fill-opacity="1" /><path clip-path="url(#clip360)" d="M2399.72 280.769 L2429.39 280.769 L2429.39 284.657 L2399.72 284.657 L2399.72 280.769 M2399.72 290.213 L2429.39 290.213 L2429.39 294.148 L2399.72 294.148 L2399.72 290.213 Z" fill="#000000" fill-rule="nonzero" fill-opacity="1" /><path clip-path="url(#clip360)" d="M2449.49 270.815 Q2445.88 270.815 2444.05 274.38 Q2442.24 277.921 2442.24 285.051 Q2442.24 292.157 2444.05 295.722 Q2445.88 299.264 2449.49 299.264 Q2453.12 299.264 2454.93 295.722 Q2456.76 292.157 2456.76 285.051 Q2456.76 277.921 2454.93 274.38 Q2453.12 270.815 2449.49 270.815 M2449.49 267.111 Q2455.3 267.111 2458.35 271.718 Q2461.43 276.301 2461.43 285.051 Q2461.43 293.778 2458.35 298.384 Q2455.3 302.968 2449.49 302.968 Q2443.68 302.968 2440.6 298.384 Q2437.54 293.778 2437.54 285.051 Q2437.54 276.301 2440.6 271.718 Q2443.68 267.111 2449.49 267.111 Z" fill="#000000" fill-rule="nonzero" fill-opacity="1" /><path clip-path="url(#clip360)" d="M2469.65 296.417 L2474.53 296.417 L2474.53 302.296 L2469.65 302.296 L2469.65 296.417 Z" fill="#000000" fill-rule="nonzero" fill-opacity="1" /><path clip-path="url(#clip360)" d="M2485.53 298.361 L2493.17 298.361 L2493.17 271.996 L2484.86 273.662 L2484.86 269.403 L2493.12 267.736 L2497.8 267.736 L2497.8 298.361 L2505.44 298.361 L2505.44 302.296 L2485.53 302.296 L2485.53 298.361 Z" fill="#000000" fill-rule="nonzero" fill-opacity="1" /><polyline clip-path="url(#clip360)" style="stroke:#add8e6; stroke-linecap:round; stroke-linejoin:round; stroke-width:4; stroke-opacity:1; fill:none" stroke-dasharray="2, 4" points="2107.99,336.856 2272.01,336.856 "/>
<path clip-path="url(#clip360)" d="M2324.9 349.206 L2324.9 339.923 L2317.27 339.923 L2317.27 336.081 L2329.53 336.081 L2329.53 350.919 Q2326.83 352.84 2323.56 353.835 Q2320.3 354.808 2316.59 354.808 Q2308.49 354.808 2303.91 350.085 Q2299.35 345.34 2299.35 336.891 Q2299.35 328.419 2303.91 323.697 Q2308.49 318.951 2316.59 318.951 Q2319.97 318.951 2323.01 319.785 Q2326.06 320.618 2328.63 322.238 L2328.63 327.215 Q2326.04 325.016 2323.12 323.905 Q2320.21 322.794 2316.99 322.794 Q2310.65 322.794 2307.45 326.336 Q2304.28 329.877 2304.28 336.891 Q2304.28 343.882 2307.45 347.423 Q2310.65 350.965 2316.99 350.965 Q2319.46 350.965 2321.41 350.548 Q2323.35 350.109 2324.9 349.206 Z" fill="#000000" fill-rule="nonzero" fill-opacity="1" /><path clip-path="url(#clip360)" d="M2338.08 319.576 L2345.04 319.576 L2353.86 343.095 L2362.73 319.576 L2369.7 319.576 L2369.7 354.136 L2365.14 354.136 L2365.14 323.789 L2356.22 347.493 L2351.52 347.493 L2342.61 323.789 L2342.61 354.136 L2338.08 354.136 L2338.08 319.576 Z" fill="#000000" fill-rule="nonzero" fill-opacity="1" /><path clip-path="url(#clip360)" d="M2403.91 331.59 Q2400.39 331.59 2398.49 334.136 Q2396.5 336.798 2396.5 341.197 Q2396.5 345.849 2398.47 348.534 Q2400.46 351.196 2403.91 351.196 Q2407.31 351.196 2409.3 348.511 Q2411.29 345.826 2411.29 341.197 Q2411.29 336.96 2409.3 334.136 Q2407.47 331.59 2403.91 331.59 M2403.91 328.211 L2418.05 328.211 L2418.05 332.47 L2413.28 332.47 Q2415.81 336.081 2415.81 341.197 Q2415.81 347.562 2412.64 351.173 Q2409.46 354.808 2403.91 354.808 Q2398.33 354.808 2395.18 351.173 Q2392.01 347.562 2392.01 341.197 Q2392.01 334.785 2395.18 331.197 Q2397.8 328.211 2403.91 328.211 Z" fill="#000000" fill-rule="nonzero" fill-opacity="1" /><path clip-path="url(#clip360)" d="M2424.46 332.609 L2454.14 332.609 L2454.14 336.497 L2424.46 336.497 L2424.46 332.609 M2424.46 342.053 L2454.14 342.053 L2454.14 345.988 L2424.46 345.988 L2424.46 342.053 Z" fill="#000000" fill-rule="nonzero" fill-opacity="1" /><path clip-path="url(#clip360)" d="M2474.23 322.655 Q2470.62 322.655 2468.79 326.22 Q2466.99 329.761 2466.99 336.891 Q2466.99 343.997 2468.79 347.562 Q2470.62 351.104 2474.23 351.104 Q2477.87 351.104 2479.67 347.562 Q2481.5 343.997 2481.5 336.891 Q2481.5 329.761 2479.67 326.22 Q2477.87 322.655 2474.23 322.655 M2474.23 318.951 Q2480.04 318.951 2483.1 323.558 Q2486.18 328.141 2486.18 336.891 Q2486.18 345.618 2483.1 350.224 Q2480.04 354.808 2474.23 354.808 Q2468.42 354.808 2465.34 350.224 Q2462.29 345.618 2462.29 336.891 Q2462.29 328.141 2465.34 323.558 Q2468.42 318.951 2474.23 318.951 Z" fill="#000000" fill-rule="nonzero" fill-opacity="1" /><path clip-path="url(#clip360)" d="M2494.39 348.257 L2499.28 348.257 L2499.28 354.136 L2494.39 354.136 L2494.39 348.257 Z" fill="#000000" fill-rule="nonzero" fill-opacity="1" /><path clip-path="url(#clip360)" d="M2510.27 350.201 L2517.91 350.201 L2517.91 323.836 L2509.6 325.502 L2509.6 321.243 L2517.87 319.576 L2522.54 319.576 L2522.54 350.201 L2530.18 350.201 L2530.18 354.136 L2510.27 354.136 L2510.27 350.201 Z" fill="#000000" fill-rule="nonzero" fill-opacity="1" /><polyline clip-path="url(#clip360)" style="stroke:#ff0000; stroke-linecap:round; stroke-linejoin:round; stroke-width:8; stroke-opacity:1; fill:none" points="2107.99,388.696 2272.01,388.696 "/>
<path clip-path="url(#clip360)" d="M2299.35 371.416 L2304.02 371.416 L2304.02 405.976 L2299.35 405.976 L2299.35 371.416 Z" fill="#000000" fill-rule="nonzero" fill-opacity="1" /><path clip-path="url(#clip360)" d="M2313.33 371.416 L2320.3 371.416 L2329.12 394.935 L2337.98 371.416 L2344.95 371.416 L2344.95 405.976 L2340.39 405.976 L2340.39 375.629 L2331.48 399.333 L2326.78 399.333 L2317.87 375.629 L2317.87 405.976 L2313.33 405.976 L2313.33 371.416 Z" fill="#000000" fill-rule="nonzero" fill-opacity="1" /><path clip-path="url(#clip360)" d="M2379.16 383.43 Q2375.64 383.43 2373.75 385.976 Q2371.76 388.638 2371.76 393.037 Q2371.76 397.689 2373.72 400.374 Q2375.71 403.036 2379.16 403.036 Q2382.57 403.036 2384.56 400.351 Q2386.55 397.666 2386.55 393.037 Q2386.55 388.8 2384.56 385.976 Q2382.73 383.43 2379.16 383.43 M2379.16 380.051 L2393.31 380.051 L2393.31 384.31 L2388.54 384.31 Q2391.06 387.921 2391.06 393.037 Q2391.06 399.402 2387.89 403.013 Q2384.72 406.648 2379.16 406.648 Q2373.58 406.648 2370.44 403.013 Q2367.27 399.402 2367.27 393.037 Q2367.27 386.625 2370.44 383.037 Q2373.05 380.051 2379.16 380.051 Z" fill="#000000" fill-rule="nonzero" fill-opacity="1" /><path clip-path="url(#clip360)" d="M2399.72 384.449 L2429.39 384.449 L2429.39 388.337 L2399.72 388.337 L2399.72 384.449 M2399.72 393.893 L2429.39 393.893 L2429.39 397.828 L2399.72 397.828 L2399.72 393.893 Z" fill="#000000" fill-rule="nonzero" fill-opacity="1" /><path clip-path="url(#clip360)" d="M2449.49 374.495 Q2445.88 374.495 2444.05 378.06 Q2442.24 381.601 2442.24 388.731 Q2442.24 395.837 2444.05 399.402 Q2445.88 402.944 2449.49 402.944 Q2453.12 402.944 2454.93 399.402 Q2456.76 395.837 2456.76 388.731 Q2456.76 381.601 2454.93 378.06 Q2453.12 374.495 2449.49 374.495 M2449.49 370.791 Q2455.3 370.791 2458.35 375.398 Q2461.43 379.981 2461.43 388.731 Q2461.43 397.458 2458.35 402.064 Q2455.3 406.648 2449.49 406.648 Q2443.68 406.648 2440.6 402.064 Q2437.54 397.458 2437.54 388.731 Q2437.54 379.981 2440.6 375.398 Q2443.68 370.791 2449.49 370.791 Z" fill="#000000" fill-rule="nonzero" fill-opacity="1" /><path clip-path="url(#clip360)" d="M2469.65 400.097 L2474.53 400.097 L2474.53 405.976 L2469.65 405.976 L2469.65 400.097 Z" fill="#000000" fill-rule="nonzero" fill-opacity="1" /><path clip-path="url(#clip360)" d="M2484.76 371.416 L2503.12 371.416 L2503.12 375.351 L2489.05 375.351 L2489.05 383.824 Q2490.07 383.476 2491.08 383.314 Q2492.1 383.129 2493.12 383.129 Q2498.91 383.129 2502.29 386.3 Q2505.67 389.472 2505.67 394.888 Q2505.67 400.467 2502.19 403.569 Q2498.72 406.648 2492.4 406.648 Q2490.23 406.648 2487.96 406.277 Q2485.71 405.907 2483.31 405.166 L2483.31 400.467 Q2485.39 401.601 2487.61 402.157 Q2489.83 402.712 2492.31 402.712 Q2496.32 402.712 2498.65 400.606 Q2500.99 398.499 2500.99 394.888 Q2500.99 391.277 2498.65 389.171 Q2496.32 387.064 2492.31 387.064 Q2490.44 387.064 2488.56 387.481 Q2486.71 387.898 2484.76 388.777 L2484.76 371.416 Z" fill="#000000" fill-rule="nonzero" fill-opacity="1" /><polyline clip-path="url(#clip360)" style="stroke:#fa8072; stroke-linecap:round; stroke-linejoin:round; stroke-width:4; stroke-opacity:1; fill:none" stroke-dasharray="2, 4" points="2107.99,440.536 2272.01,440.536 "/>
<path clip-path="url(#clip360)" d="M2324.9 452.886 L2324.9 443.603 L2317.27 443.603 L2317.27 439.761 L2329.53 439.761 L2329.53 454.599 Q2326.83 456.52 2323.56 457.515 Q2320.3 458.488 2316.59 458.488 Q2308.49 458.488 2303.91 453.765 Q2299.35 449.02 2299.35 440.571 Q2299.35 432.099 2303.91 427.377 Q2308.49 422.631 2316.59 422.631 Q2319.97 422.631 2323.01 423.465 Q2326.06 424.298 2328.63 425.918 L2328.63 430.895 Q2326.04 428.696 2323.12 427.585 Q2320.21 426.474 2316.99 426.474 Q2310.65 426.474 2307.45 430.016 Q2304.28 433.557 2304.28 440.571 Q2304.28 447.562 2307.45 451.103 Q2310.65 454.645 2316.99 454.645 Q2319.46 454.645 2321.41 454.228 Q2323.35 453.789 2324.9 452.886 Z" fill="#000000" fill-rule="nonzero" fill-opacity="1" /><path clip-path="url(#clip360)" d="M2338.08 423.256 L2345.04 423.256 L2353.86 446.775 L2362.73 423.256 L2369.7 423.256 L2369.7 457.816 L2365.14 457.816 L2365.14 427.469 L2356.22 451.173 L2351.52 451.173 L2342.61 427.469 L2342.61 457.816 L2338.08 457.816 L2338.08 423.256 Z" fill="#000000" fill-rule="nonzero" fill-opacity="1" /><path clip-path="url(#clip360)" d="M2403.91 435.27 Q2400.39 435.27 2398.49 437.816 Q2396.5 440.478 2396.5 444.877 Q2396.5 449.529 2398.47 452.214 Q2400.46 454.876 2403.91 454.876 Q2407.31 454.876 2409.3 452.191 Q2411.29 449.506 2411.29 444.877 Q2411.29 440.64 2409.3 437.816 Q2407.47 435.27 2403.91 435.27 M2403.91 431.891 L2418.05 431.891 L2418.05 436.15 L2413.28 436.15 Q2415.81 439.761 2415.81 444.877 Q2415.81 451.242 2412.64 454.853 Q2409.46 458.488 2403.91 458.488 Q2398.33 458.488 2395.18 454.853 Q2392.01 451.242 2392.01 444.877 Q2392.01 438.465 2395.18 434.877 Q2397.8 431.891 2403.91 431.891 Z" fill="#000000" fill-rule="nonzero" fill-opacity="1" /><path clip-path="url(#clip360)" d="M2424.46 436.289 L2454.14 436.289 L2454.14 440.177 L2424.46 440.177 L2424.46 436.289 M2424.46 445.733 L2454.14 445.733 L2454.14 449.668 L2424.46 449.668 L2424.46 445.733 Z" fill="#000000" fill-rule="nonzero" fill-opacity="1" /><path clip-path="url(#clip360)" d="M2474.23 426.335 Q2470.62 426.335 2468.79 429.9 Q2466.99 433.441 2466.99 440.571 Q2466.99 447.677 2468.79 451.242 Q2470.62 454.784 2474.23 454.784 Q2477.87 454.784 2479.67 451.242 Q2481.5 447.677 2481.5 440.571 Q2481.5 433.441 2479.67 429.9 Q2477.87 426.335 2474.23 426.335 M2474.23 422.631 Q2480.04 422.631 2483.1 427.238 Q2486.18 431.821 2486.18 440.571 Q2486.18 449.298 2483.1 453.904 Q2480.04 458.488 2474.23 458.488 Q2468.42 458.488 2465.34 453.904 Q2462.29 449.298 2462.29 440.571 Q2462.29 431.821 2465.34 427.238 Q2468.42 422.631 2474.23 422.631 Z" fill="#000000" fill-rule="nonzero" fill-opacity="1" /><path clip-path="url(#clip360)" d="M2494.39 451.937 L2499.28 451.937 L2499.28 457.816 L2494.39 457.816 L2494.39 451.937 Z" fill="#000000" fill-rule="nonzero" fill-opacity="1" /><path clip-path="url(#clip360)" d="M2509.51 423.256 L2527.87 423.256 L2527.87 427.191 L2513.79 427.191 L2513.79 435.664 Q2514.81 435.316 2515.83 435.154 Q2516.85 434.969 2517.87 434.969 Q2523.65 434.969 2527.03 438.14 Q2530.41 441.312 2530.41 446.728 Q2530.41 452.307 2526.94 455.409 Q2523.47 458.488 2517.15 458.488 Q2514.97 458.488 2512.7 458.117 Q2510.46 457.747 2508.05 457.006 L2508.05 452.307 Q2510.13 453.441 2512.36 453.997 Q2514.58 454.552 2517.06 454.552 Q2521.06 454.552 2523.4 452.446 Q2525.74 450.339 2525.74 446.728 Q2525.74 443.117 2523.4 441.011 Q2521.06 438.904 2517.06 438.904 Q2515.18 438.904 2513.31 439.321 Q2511.45 439.738 2509.51 440.617 L2509.51 423.256 Z" fill="#000000" fill-rule="nonzero" fill-opacity="1" /><polyline clip-path="url(#clip360)" style="stroke:#008000; stroke-linecap:round; stroke-linejoin:round; stroke-width:8; stroke-opacity:1; fill:none" points="2107.99,492.376 2272.01,492.376 "/>
<path clip-path="url(#clip360)" d="M2299.35 475.096 L2304.02 475.096 L2304.02 509.656 L2299.35 509.656 L2299.35 475.096 Z" fill="#000000" fill-rule="nonzero" fill-opacity="1" /><path clip-path="url(#clip360)" d="M2313.33 475.096 L2320.3 475.096 L2329.12 498.615 L2337.98 475.096 L2344.95 475.096 L2344.95 509.656 L2340.39 509.656 L2340.39 479.309 L2331.48 503.013 L2326.78 503.013 L2317.87 479.309 L2317.87 509.656 L2313.33 509.656 L2313.33 475.096 Z" fill="#000000" fill-rule="nonzero" fill-opacity="1" /><path clip-path="url(#clip360)" d="M2379.16 487.11 Q2375.64 487.11 2373.75 489.656 Q2371.76 492.318 2371.76 496.717 Q2371.76 501.369 2373.72 504.054 Q2375.71 506.716 2379.16 506.716 Q2382.57 506.716 2384.56 504.031 Q2386.55 501.346 2386.55 496.717 Q2386.55 492.48 2384.56 489.656 Q2382.73 487.11 2379.16 487.11 M2379.16 483.731 L2393.31 483.731 L2393.31 487.99 L2388.54 487.99 Q2391.06 491.601 2391.06 496.717 Q2391.06 503.082 2387.89 506.693 Q2384.72 510.328 2379.16 510.328 Q2373.58 510.328 2370.44 506.693 Q2367.27 503.082 2367.27 496.717 Q2367.27 490.305 2370.44 486.717 Q2373.05 483.731 2379.16 483.731 Z" fill="#000000" fill-rule="nonzero" fill-opacity="1" /><path clip-path="url(#clip360)" d="M2399.72 488.129 L2429.39 488.129 L2429.39 492.017 L2399.72 492.017 L2399.72 488.129 M2399.72 497.573 L2429.39 497.573 L2429.39 501.508 L2399.72 501.508 L2399.72 497.573 Z" fill="#000000" fill-rule="nonzero" fill-opacity="1" /><path clip-path="url(#clip360)" d="M2440.3 505.721 L2447.94 505.721 L2447.94 479.356 L2439.63 481.022 L2439.63 476.763 L2447.89 475.096 L2452.57 475.096 L2452.57 505.721 L2460.2 505.721 L2460.2 509.656 L2440.3 509.656 L2440.3 505.721 Z" fill="#000000" fill-rule="nonzero" fill-opacity="1" /><path clip-path="url(#clip360)" d="M2469.65 503.777 L2474.53 503.777 L2474.53 509.656 L2469.65 509.656 L2469.65 503.777 Z" fill="#000000" fill-rule="nonzero" fill-opacity="1" /><path clip-path="url(#clip360)" d="M2494.72 478.175 Q2491.11 478.175 2489.28 481.74 Q2487.47 485.281 2487.47 492.411 Q2487.47 499.517 2489.28 503.082 Q2491.11 506.624 2494.72 506.624 Q2498.35 506.624 2500.16 503.082 Q2501.99 499.517 2501.99 492.411 Q2501.99 485.281 2500.16 481.74 Q2498.35 478.175 2494.72 478.175 M2494.72 474.471 Q2500.53 474.471 2503.58 479.078 Q2506.66 483.661 2506.66 492.411 Q2506.66 501.138 2503.58 505.744 Q2500.53 510.328 2494.72 510.328 Q2488.91 510.328 2485.83 505.744 Q2482.77 501.138 2482.77 492.411 Q2482.77 483.661 2485.83 479.078 Q2488.91 474.471 2494.72 474.471 Z" fill="#000000" fill-rule="nonzero" fill-opacity="1" /><polyline clip-path="url(#clip360)" style="stroke:#90ee90; stroke-linecap:round; stroke-linejoin:round; stroke-width:4; stroke-opacity:1; fill:none" stroke-dasharray="2, 4" points="2107.99,544.216 2272.01,544.216 "/>
<path clip-path="url(#clip360)" d="M2324.9 556.566 L2324.9 547.283 L2317.27 547.283 L2317.27 543.441 L2329.53 543.441 L2329.53 558.279 Q2326.83 560.2 2323.56 561.195 Q2320.3 562.168 2316.59 562.168 Q2308.49 562.168 2303.91 557.445 Q2299.35 552.7 2299.35 544.251 Q2299.35 535.779 2303.91 531.057 Q2308.49 526.311 2316.59 526.311 Q2319.97 526.311 2323.01 527.145 Q2326.06 527.978 2328.63 529.598 L2328.63 534.575 Q2326.04 532.376 2323.12 531.265 Q2320.21 530.154 2316.99 530.154 Q2310.65 530.154 2307.45 533.696 Q2304.28 537.237 2304.28 544.251 Q2304.28 551.242 2307.45 554.783 Q2310.65 558.325 2316.99 558.325 Q2319.46 558.325 2321.41 557.908 Q2323.35 557.469 2324.9 556.566 Z" fill="#000000" fill-rule="nonzero" fill-opacity="1" /><path clip-path="url(#clip360)" d="M2338.08 526.936 L2345.04 526.936 L2353.86 550.455 L2362.73 526.936 L2369.7 526.936 L2369.7 561.496 L2365.14 561.496 L2365.14 531.149 L2356.22 554.853 L2351.52 554.853 L2342.61 531.149 L2342.61 561.496 L2338.08 561.496 L2338.08 526.936 Z" fill="#000000" fill-rule="nonzero" fill-opacity="1" /><path clip-path="url(#clip360)" d="M2403.91 538.95 Q2400.39 538.95 2398.49 541.496 Q2396.5 544.158 2396.5 548.557 Q2396.5 553.209 2398.47 555.894 Q2400.46 558.556 2403.91 558.556 Q2407.31 558.556 2409.3 555.871 Q2411.29 553.186 2411.29 548.557 Q2411.29 544.32 2409.3 541.496 Q2407.47 538.95 2403.91 538.95 M2403.91 535.571 L2418.05 535.571 L2418.05 539.83 L2413.28 539.83 Q2415.81 543.441 2415.81 548.557 Q2415.81 554.922 2412.64 558.533 Q2409.46 562.168 2403.91 562.168 Q2398.33 562.168 2395.18 558.533 Q2392.01 554.922 2392.01 548.557 Q2392.01 542.145 2395.18 538.557 Q2397.8 535.571 2403.91 535.571 Z" fill="#000000" fill-rule="nonzero" fill-opacity="1" /><path clip-path="url(#clip360)" d="M2424.46 539.969 L2454.14 539.969 L2454.14 543.857 L2424.46 543.857 L2424.46 539.969 M2424.46 549.413 L2454.14 549.413 L2454.14 553.348 L2424.46 553.348 L2424.46 549.413 Z" fill="#000000" fill-rule="nonzero" fill-opacity="1" /><path clip-path="url(#clip360)" d="M2465.04 557.561 L2472.68 557.561 L2472.68 531.196 L2464.37 532.862 L2464.37 528.603 L2472.63 526.936 L2477.31 526.936 L2477.31 557.561 L2484.95 557.561 L2484.95 561.496 L2465.04 561.496 L2465.04 557.561 Z" fill="#000000" fill-rule="nonzero" fill-opacity="1" /><path clip-path="url(#clip360)" d="M2494.39 555.617 L2499.28 555.617 L2499.28 561.496 L2494.39 561.496 L2494.39 555.617 Z" fill="#000000" fill-rule="nonzero" fill-opacity="1" /><path clip-path="url(#clip360)" d="M2519.46 530.015 Q2515.85 530.015 2514.02 533.58 Q2512.22 537.121 2512.22 544.251 Q2512.22 551.357 2514.02 554.922 Q2515.85 558.464 2519.46 558.464 Q2523.1 558.464 2524.9 554.922 Q2526.73 551.357 2526.73 544.251 Q2526.73 537.121 2524.9 533.58 Q2523.1 530.015 2519.46 530.015 M2519.46 526.311 Q2525.27 526.311 2528.33 530.918 Q2531.41 535.501 2531.41 544.251 Q2531.41 552.978 2528.33 557.584 Q2525.27 562.168 2519.46 562.168 Q2513.65 562.168 2510.57 557.584 Q2507.52 552.978 2507.52 544.251 Q2507.52 535.501 2510.57 530.918 Q2513.65 526.311 2519.46 526.311 Z" fill="#000000" fill-rule="nonzero" fill-opacity="1" /></svg>
