<?xml version="1.0" encoding="utf-8"?>
<svg xmlns="http://www.w3.org/2000/svg" xmlns:xlink="http://www.w3.org/1999/xlink" width="672" height="480" viewBox="0 0 2688 1920">
<defs>
  <clipPath id="clip030">
    <rect x="0" y="0" width="2688" height="1920"/>
  </clipPath>
</defs>
<path clip-path="url(#clip030)" d="M0 1920 L2688 1920 L2688 -4.26326e-14 L0 -4.26326e-14  Z" fill="#ffffff" fill-rule="evenodd" fill-opacity="1"/>
<defs>
  <clipPath id="clip031">
    <rect x="256" y="127" width="2385" height="1607"/>
  </clipPath>
</defs>
<path clip-path="url(#clip030)" d="M256.302 1734.12 L2640.76 1734.12 L2640.76 127.792 L256.302 127.792  Z" fill="#ffffff" fill-rule="evenodd" fill-opacity="1"/>
<polyline clip-path="url(#clip031)" style="stroke:#000000; stroke-linecap:round; stroke-linejoin:round; stroke-width:2; stroke-opacity:0.1; fill:none" points="323.787,1734.12 323.787,127.792 "/>
<polyline clip-path="url(#clip031)" style="stroke:#000000; stroke-linecap:round; stroke-linejoin:round; stroke-width:2; stroke-opacity:0.1; fill:none" points="886.158,1734.12 886.158,127.792 "/>
<polyline clip-path="url(#clip031)" style="stroke:#000000; stroke-linecap:round; stroke-linejoin:round; stroke-width:2; stroke-opacity:0.1; fill:none" points="1448.53,1734.12 1448.53,127.792 "/>
<polyline clip-path="url(#clip031)" style="stroke:#000000; stroke-linecap:round; stroke-linejoin:round; stroke-width:2; stroke-opacity:0.1; fill:none" points="2010.9,1734.12 2010.9,127.792 "/>
<polyline clip-path="url(#clip031)" style="stroke:#000000; stroke-linecap:round; stroke-linejoin:round; stroke-width:2; stroke-opacity:0.1; fill:none" points="2573.27,1734.12 2573.27,127.792 "/>
<polyline clip-path="url(#clip031)" style="stroke:#000000; stroke-linecap:round; stroke-linejoin:round; stroke-width:2; stroke-opacity:0.1; fill:none" points="256.302,1523.41 2640.76,1523.41 "/>
<polyline clip-path="url(#clip031)" style="stroke:#000000; stroke-linecap:round; stroke-linejoin:round; stroke-width:2; stroke-opacity:0.1; fill:none" points="256.302,1241.43 2640.76,1241.43 "/>
<polyline clip-path="url(#clip031)" style="stroke:#000000; stroke-linecap:round; stroke-linejoin:round; stroke-width:2; stroke-opacity:0.1; fill:none" points="256.302,959.445 2640.76,959.445 "/>
<polyline clip-path="url(#clip031)" style="stroke:#000000; stroke-linecap:round; stroke-linejoin:round; stroke-width:2; stroke-opacity:0.1; fill:none" points="256.302,677.462 2640.76,677.462 "/>
<polyline clip-path="url(#clip031)" style="stroke:#000000; stroke-linecap:round; stroke-linejoin:round; stroke-width:2; stroke-opacity:0.1; fill:none" points="256.302,395.48 2640.76,395.48 "/>
<polyline clip-path="url(#clip030)" style="stroke:#000000; stroke-linecap:round; stroke-linejoin:round; stroke-width:4; stroke-opacity:1; fill:none" points="256.302,1734.12 2640.76,1734.12 "/>
<polyline clip-path="url(#clip030)" style="stroke:#000000; stroke-linecap:round; stroke-linejoin:round; stroke-width:4; stroke-opacity:1; fill:none" points="323.787,1734.12 323.787,1715.22 "/>
<polyline clip-path="url(#clip030)" style="stroke:#000000; stroke-linecap:round; stroke-linejoin:round; stroke-width:4; stroke-opacity:1; fill:none" points="886.158,1734.12 886.158,1715.22 "/>
<polyline clip-path="url(#clip030)" style="stroke:#000000; stroke-linecap:round; stroke-linejoin:round; stroke-width:4; stroke-opacity:1; fill:none" points="1448.53,1734.12 1448.53,1715.22 "/>
<polyline clip-path="url(#clip030)" style="stroke:#000000; stroke-linecap:round; stroke-linejoin:round; stroke-width:4; stroke-opacity:1; fill:none" points="2010.9,1734.12 2010.9,1715.22 "/>
<polyline clip-path="url(#clip030)" style="stroke:#000000; stroke-linecap:round; stroke-linejoin:round; stroke-width:4; stroke-opacity:1; fill:none" points="2573.27,1734.12 2573.27,1715.22 "/>
<path clip-path="url(#clip030)" d="M271.009 1767.34 Q267.398 1767.34 265.57 1770.9 Q263.764 1774.45 263.764 1781.58 Q263.764 1788.68 265.57 1792.25 Q267.398 1795.79 271.009 1795.79 Q274.644 1795.79 276.449 1792.25 Q278.278 1788.68 278.278 1781.58 Q278.278 1774.45 276.449 1770.9 Q274.644 1767.34 271.009 1767.34 M271.009 1763.64 Q276.82 1763.64 279.875 1768.24 Q282.954 1772.83 282.954 1781.58 Q282.954 1790.3 279.875 1794.91 Q276.82 1799.49 271.009 1799.49 Q265.199 1799.49 262.121 1794.91 Q259.065 1790.3 259.065 1781.58 Q259.065 1772.83 262.121 1768.24 Q265.199 1763.64 271.009 1763.64 Z" fill="#000000" fill-rule="nonzero" fill-opacity="1" /><path clip-path="url(#clip030)" d="M291.171 1792.94 L296.056 1792.94 L296.056 1798.82 L291.171 1798.82 L291.171 1792.94 Z" fill="#000000" fill-rule="nonzero" fill-opacity="1" /><path clip-path="url(#clip030)" d="M316.241 1767.34 Q312.63 1767.34 310.801 1770.9 Q308.995 1774.45 308.995 1781.58 Q308.995 1788.68 310.801 1792.25 Q312.63 1795.79 316.241 1795.79 Q319.875 1795.79 321.68 1792.25 Q323.509 1788.68 323.509 1781.58 Q323.509 1774.45 321.68 1770.9 Q319.875 1767.34 316.241 1767.34 M316.241 1763.64 Q322.051 1763.64 325.106 1768.24 Q328.185 1772.83 328.185 1781.58 Q328.185 1790.3 325.106 1794.91 Q322.051 1799.49 316.241 1799.49 Q310.431 1799.49 307.352 1794.91 Q304.296 1790.3 304.296 1781.58 Q304.296 1772.83 307.352 1768.24 Q310.431 1763.64 316.241 1763.64 Z" fill="#000000" fill-rule="nonzero" fill-opacity="1" /><path clip-path="url(#clip030)" d="M346.403 1767.34 Q342.791 1767.34 340.963 1770.9 Q339.157 1774.45 339.157 1781.58 Q339.157 1788.68 340.963 1792.25 Q342.791 1795.79 346.403 1795.79 Q350.037 1795.79 351.842 1792.25 Q353.671 1788.68 353.671 1781.58 Q353.671 1774.45 351.842 1770.9 Q350.037 1767.34 346.403 1767.34 M346.403 1763.64 Q352.213 1763.64 355.268 1768.24 Q358.347 1772.83 358.347 1781.58 Q358.347 1790.3 355.268 1794.91 Q352.213 1799.49 346.403 1799.49 Q340.592 1799.49 337.514 1794.91 Q334.458 1790.3 334.458 1781.58 Q334.458 1772.83 337.514 1768.24 Q340.592 1763.64 346.403 1763.64 Z" fill="#000000" fill-rule="nonzero" fill-opacity="1" /><path clip-path="url(#clip030)" d="M376.564 1767.34 Q372.953 1767.34 371.125 1770.9 Q369.319 1774.45 369.319 1781.58 Q369.319 1788.68 371.125 1792.25 Q372.953 1795.79 376.564 1795.79 Q380.199 1795.79 382.004 1792.25 Q383.833 1788.68 383.833 1781.58 Q383.833 1774.45 382.004 1770.9 Q380.199 1767.34 376.564 1767.34 M376.564 1763.64 Q382.375 1763.64 385.43 1768.24 Q388.509 1772.83 388.509 1781.58 Q388.509 1790.3 385.43 1794.91 Q382.375 1799.49 376.564 1799.49 Q370.754 1799.49 367.676 1794.91 Q364.62 1790.3 364.62 1781.58 Q364.62 1772.83 367.676 1768.24 Q370.754 1763.64 376.564 1763.64 Z" fill="#000000" fill-rule="nonzero" fill-opacity="1" /><path clip-path="url(#clip030)" d="M833.878 1767.34 Q830.267 1767.34 828.438 1770.9 Q826.633 1774.45 826.633 1781.58 Q826.633 1788.68 828.438 1792.25 Q830.267 1795.79 833.878 1795.79 Q837.512 1795.79 839.318 1792.25 Q841.147 1788.68 841.147 1781.58 Q841.147 1774.45 839.318 1770.9 Q837.512 1767.34 833.878 1767.34 M833.878 1763.64 Q839.688 1763.64 842.744 1768.24 Q845.823 1772.83 845.823 1781.58 Q845.823 1790.3 842.744 1794.91 Q839.688 1799.49 833.878 1799.49 Q828.068 1799.49 824.989 1794.91 Q821.934 1790.3 821.934 1781.58 Q821.934 1772.83 824.989 1768.24 Q828.068 1763.64 833.878 1763.64 Z" fill="#000000" fill-rule="nonzero" fill-opacity="1" /><path clip-path="url(#clip030)" d="M854.04 1792.94 L858.924 1792.94 L858.924 1798.82 L854.04 1798.82 L854.04 1792.94 Z" fill="#000000" fill-rule="nonzero" fill-opacity="1" /><path clip-path="url(#clip030)" d="M879.109 1767.34 Q875.498 1767.34 873.67 1770.9 Q871.864 1774.45 871.864 1781.58 Q871.864 1788.68 873.67 1792.25 Q875.498 1795.79 879.109 1795.79 Q882.744 1795.79 884.549 1792.25 Q886.378 1788.68 886.378 1781.58 Q886.378 1774.45 884.549 1770.9 Q882.744 1767.34 879.109 1767.34 M879.109 1763.64 Q884.92 1763.64 887.975 1768.24 Q891.054 1772.83 891.054 1781.58 Q891.054 1790.3 887.975 1794.91 Q884.92 1799.49 879.109 1799.49 Q873.299 1799.49 870.221 1794.91 Q867.165 1790.3 867.165 1781.58 Q867.165 1772.83 870.221 1768.24 Q873.299 1763.64 879.109 1763.64 Z" fill="#000000" fill-rule="nonzero" fill-opacity="1" /><path clip-path="url(#clip030)" d="M903.299 1794.89 L919.619 1794.89 L919.619 1798.82 L897.674 1798.82 L897.674 1794.89 Q900.336 1792.13 904.92 1787.5 Q909.526 1782.85 910.707 1781.51 Q912.952 1778.98 913.832 1777.25 Q914.734 1775.49 914.734 1773.8 Q914.734 1771.04 912.79 1769.31 Q910.869 1767.57 907.767 1767.57 Q905.568 1767.57 903.114 1768.34 Q900.683 1769.1 897.906 1770.65 L897.906 1765.93 Q900.73 1764.79 903.183 1764.21 Q905.637 1763.64 907.674 1763.64 Q913.044 1763.64 916.239 1766.32 Q919.433 1769.01 919.433 1773.5 Q919.433 1775.63 918.623 1777.55 Q917.836 1779.45 915.73 1782.04 Q915.151 1782.71 912.049 1785.93 Q908.947 1789.12 903.299 1794.89 Z" fill="#000000" fill-rule="nonzero" fill-opacity="1" /><path clip-path="url(#clip030)" d="M929.48 1764.26 L947.836 1764.26 L947.836 1768.2 L933.762 1768.2 L933.762 1776.67 Q934.78 1776.32 935.799 1776.16 Q936.818 1775.97 937.836 1775.97 Q943.623 1775.97 947.003 1779.15 Q950.382 1782.32 950.382 1787.73 Q950.382 1793.31 946.91 1796.41 Q943.438 1799.49 937.118 1799.49 Q934.943 1799.49 932.674 1799.12 Q930.429 1798.75 928.021 1798.01 L928.021 1793.31 Q930.105 1794.45 932.327 1795 Q934.549 1795.56 937.026 1795.56 Q941.03 1795.56 943.368 1793.45 Q945.706 1791.34 945.706 1787.73 Q945.706 1784.12 943.368 1782.02 Q941.03 1779.91 937.026 1779.91 Q935.151 1779.91 933.276 1780.33 Q931.424 1780.74 929.48 1781.62 L929.48 1764.26 Z" fill="#000000" fill-rule="nonzero" fill-opacity="1" /><path clip-path="url(#clip030)" d="M1395.75 1767.34 Q1392.14 1767.34 1390.31 1770.9 Q1388.51 1774.45 1388.51 1781.58 Q1388.51 1788.68 1390.31 1792.25 Q1392.14 1795.79 1395.75 1795.79 Q1399.39 1795.79 1401.19 1792.25 Q1403.02 1788.68 1403.02 1781.58 Q1403.02 1774.45 1401.19 1770.9 Q1399.39 1767.34 1395.75 1767.34 M1395.75 1763.64 Q1401.56 1763.64 1404.62 1768.24 Q1407.7 1772.83 1407.7 1781.58 Q1407.7 1790.3 1404.62 1794.91 Q1401.56 1799.49 1395.75 1799.49 Q1389.94 1799.49 1386.86 1794.91 Q1383.81 1790.3 1383.81 1781.58 Q1383.81 1772.83 1386.86 1768.24 Q1389.94 1763.64 1395.75 1763.64 Z" fill="#000000" fill-rule="nonzero" fill-opacity="1" /><path clip-path="url(#clip030)" d="M1415.91 1792.94 L1420.8 1792.94 L1420.8 1798.82 L1415.91 1798.82 L1415.91 1792.94 Z" fill="#000000" fill-rule="nonzero" fill-opacity="1" /><path clip-path="url(#clip030)" d="M1440.98 1767.34 Q1437.37 1767.34 1435.54 1770.9 Q1433.74 1774.45 1433.74 1781.58 Q1433.74 1788.68 1435.54 1792.25 Q1437.37 1795.79 1440.98 1795.79 Q1444.62 1795.79 1446.42 1792.25 Q1448.25 1788.68 1448.25 1781.58 Q1448.25 1774.45 1446.42 1770.9 Q1444.62 1767.34 1440.98 1767.34 M1440.98 1763.64 Q1446.79 1763.64 1449.85 1768.24 Q1452.93 1772.83 1452.93 1781.58 Q1452.93 1790.3 1449.85 1794.91 Q1446.79 1799.49 1440.98 1799.49 Q1435.17 1799.49 1432.09 1794.91 Q1429.04 1790.3 1429.04 1781.58 Q1429.04 1772.83 1432.09 1768.24 Q1435.17 1763.64 1440.98 1763.64 Z" fill="#000000" fill-rule="nonzero" fill-opacity="1" /><path clip-path="url(#clip030)" d="M1461.19 1764.26 L1479.55 1764.26 L1479.55 1768.2 L1465.47 1768.2 L1465.47 1776.67 Q1466.49 1776.32 1467.51 1776.16 Q1468.53 1775.97 1469.55 1775.97 Q1475.33 1775.97 1478.71 1779.15 Q1482.09 1782.32 1482.09 1787.73 Q1482.09 1793.31 1478.62 1796.41 Q1475.15 1799.49 1468.83 1799.49 Q1466.65 1799.49 1464.39 1799.12 Q1462.14 1798.75 1459.73 1798.01 L1459.73 1793.31 Q1461.82 1794.45 1464.04 1795 Q1466.26 1795.56 1468.74 1795.56 Q1472.74 1795.56 1475.08 1793.45 Q1477.42 1791.34 1477.42 1787.73 Q1477.42 1784.12 1475.08 1782.02 Q1472.74 1779.91 1468.74 1779.91 Q1466.86 1779.91 1464.99 1780.33 Q1463.14 1780.74 1461.19 1781.62 L1461.19 1764.26 Z" fill="#000000" fill-rule="nonzero" fill-opacity="1" /><path clip-path="url(#clip030)" d="M1501.31 1767.34 Q1497.7 1767.34 1495.87 1770.9 Q1494.06 1774.45 1494.06 1781.58 Q1494.06 1788.68 1495.87 1792.25 Q1497.7 1795.79 1501.31 1795.79 Q1504.94 1795.79 1506.75 1792.25 Q1508.58 1788.68 1508.58 1781.58 Q1508.58 1774.45 1506.75 1770.9 Q1504.94 1767.34 1501.31 1767.34 M1501.31 1763.64 Q1507.12 1763.64 1510.17 1768.24 Q1513.25 1772.83 1513.25 1781.58 Q1513.25 1790.3 1510.17 1794.91 Q1507.12 1799.49 1501.31 1799.49 Q1495.5 1799.49 1492.42 1794.91 Q1489.36 1790.3 1489.36 1781.58 Q1489.36 1772.83 1492.42 1768.24 Q1495.5 1763.64 1501.31 1763.64 Z" fill="#000000" fill-rule="nonzero" fill-opacity="1" /><path clip-path="url(#clip030)" d="M1958.62 1767.34 Q1955.01 1767.34 1953.18 1770.9 Q1951.38 1774.45 1951.38 1781.58 Q1951.38 1788.68 1953.18 1792.25 Q1955.01 1795.79 1958.62 1795.79 Q1962.25 1795.79 1964.06 1792.25 Q1965.89 1788.68 1965.89 1781.58 Q1965.89 1774.45 1964.06 1770.9 Q1962.25 1767.34 1958.62 1767.34 M1958.62 1763.64 Q1964.43 1763.64 1967.49 1768.24 Q1970.56 1772.83 1970.56 1781.58 Q1970.56 1790.3 1967.49 1794.91 Q1964.43 1799.49 1958.62 1799.49 Q1952.81 1799.49 1949.73 1794.91 Q1946.68 1790.3 1946.68 1781.58 Q1946.68 1772.83 1949.73 1768.24 Q1952.81 1763.64 1958.62 1763.64 Z" fill="#000000" fill-rule="nonzero" fill-opacity="1" /><path clip-path="url(#clip030)" d="M1978.78 1792.94 L1983.67 1792.94 L1983.67 1798.82 L1978.78 1798.82 L1978.78 1792.94 Z" fill="#000000" fill-rule="nonzero" fill-opacity="1" /><path clip-path="url(#clip030)" d="M2003.85 1767.34 Q2000.24 1767.34 1998.41 1770.9 Q1996.61 1774.45 1996.61 1781.58 Q1996.61 1788.68 1998.41 1792.25 Q2000.24 1795.79 2003.85 1795.79 Q2007.49 1795.79 2009.29 1792.25 Q2011.12 1788.68 2011.12 1781.58 Q2011.12 1774.45 2009.29 1770.9 Q2007.49 1767.34 2003.85 1767.34 M2003.85 1763.64 Q2009.66 1763.64 2012.72 1768.24 Q2015.8 1772.83 2015.8 1781.58 Q2015.8 1790.3 2012.72 1794.91 Q2009.66 1799.49 2003.85 1799.49 Q1998.04 1799.49 1994.96 1794.91 Q1991.91 1790.3 1991.91 1781.58 Q1991.91 1772.83 1994.96 1768.24 Q1998.04 1763.64 2003.85 1763.64 Z" fill="#000000" fill-rule="nonzero" fill-opacity="1" /><path clip-path="url(#clip030)" d="M2022.83 1764.26 L2045.06 1764.26 L2045.06 1766.25 L2032.51 1798.82 L2027.62 1798.82 L2039.43 1768.2 L2022.83 1768.2 L2022.83 1764.26 Z" fill="#000000" fill-rule="nonzero" fill-opacity="1" /><path clip-path="url(#clip030)" d="M2054.22 1764.26 L2072.58 1764.26 L2072.58 1768.2 L2058.5 1768.2 L2058.5 1776.67 Q2059.52 1776.32 2060.54 1776.16 Q2061.56 1775.97 2062.58 1775.97 Q2068.37 1775.97 2071.74 1779.15 Q2075.12 1782.32 2075.12 1787.73 Q2075.12 1793.31 2071.65 1796.41 Q2068.18 1799.49 2061.86 1799.49 Q2059.68 1799.49 2057.42 1799.12 Q2055.17 1798.75 2052.76 1798.01 L2052.76 1793.31 Q2054.85 1794.45 2057.07 1795 Q2059.29 1795.56 2061.77 1795.56 Q2065.77 1795.56 2068.11 1793.45 Q2070.45 1791.34 2070.45 1787.73 Q2070.45 1784.12 2068.11 1782.02 Q2065.77 1779.91 2061.77 1779.91 Q2059.89 1779.91 2058.02 1780.33 Q2056.17 1780.74 2054.22 1781.62 L2054.22 1764.26 Z" fill="#000000" fill-rule="nonzero" fill-opacity="1" /><path clip-path="url(#clip030)" d="M2520.49 1767.34 Q2516.88 1767.34 2515.05 1770.9 Q2513.25 1774.45 2513.25 1781.58 Q2513.25 1788.68 2515.05 1792.25 Q2516.88 1795.79 2520.49 1795.79 Q2524.13 1795.79 2525.93 1792.25 Q2527.76 1788.68 2527.76 1781.58 Q2527.76 1774.45 2525.93 1770.9 Q2524.13 1767.34 2520.49 1767.34 M2520.49 1763.64 Q2526.3 1763.64 2529.36 1768.24 Q2532.44 1772.83 2532.44 1781.58 Q2532.44 1790.3 2529.36 1794.91 Q2526.3 1799.49 2520.49 1799.49 Q2514.68 1799.49 2511.61 1794.91 Q2508.55 1790.3 2508.55 1781.58 Q2508.55 1772.83 2511.61 1768.24 Q2514.68 1763.64 2520.49 1763.64 Z" fill="#000000" fill-rule="nonzero" fill-opacity="1" /><path clip-path="url(#clip030)" d="M2540.66 1792.94 L2545.54 1792.94 L2545.54 1798.82 L2540.66 1798.82 L2540.66 1792.94 Z" fill="#000000" fill-rule="nonzero" fill-opacity="1" /><path clip-path="url(#clip030)" d="M2556.54 1794.89 L2564.17 1794.89 L2564.17 1768.52 L2555.86 1770.19 L2555.86 1765.93 L2564.13 1764.26 L2568.8 1764.26 L2568.8 1794.89 L2576.44 1794.89 L2576.44 1798.82 L2556.54 1798.82 L2556.54 1794.89 Z" fill="#000000" fill-rule="nonzero" fill-opacity="1" /><path clip-path="url(#clip030)" d="M2595.89 1767.34 Q2592.28 1767.34 2590.45 1770.9 Q2588.64 1774.45 2588.64 1781.58 Q2588.64 1788.68 2590.45 1792.25 Q2592.28 1795.79 2595.89 1795.79 Q2599.52 1795.79 2601.33 1792.25 Q2603.16 1788.68 2603.16 1781.58 Q2603.16 1774.45 2601.33 1770.9 Q2599.52 1767.34 2595.89 1767.34 M2595.89 1763.64 Q2601.7 1763.64 2604.75 1768.24 Q2607.83 1772.83 2607.83 1781.58 Q2607.83 1790.3 2604.75 1794.91 Q2601.7 1799.49 2595.89 1799.49 Q2590.08 1799.49 2587 1794.91 Q2583.94 1790.3 2583.94 1781.58 Q2583.94 1772.83 2587 1768.24 Q2590.08 1763.64 2595.89 1763.64 Z" fill="#000000" fill-rule="nonzero" fill-opacity="1" /><path clip-path="url(#clip030)" d="M2626.05 1767.34 Q2622.44 1767.34 2620.61 1770.9 Q2618.8 1774.45 2618.8 1781.58 Q2618.8 1788.68 2620.61 1792.25 Q2622.44 1795.79 2626.05 1795.79 Q2629.68 1795.79 2631.49 1792.25 Q2633.32 1788.68 2633.32 1781.58 Q2633.32 1774.45 2631.49 1770.9 Q2629.68 1767.34 2626.05 1767.34 M2626.05 1763.64 Q2631.86 1763.64 2634.91 1768.24 Q2637.99 1772.83 2637.99 1781.58 Q2637.99 1790.3 2634.91 1794.91 Q2631.86 1799.49 2626.05 1799.49 Q2620.24 1799.49 2617.16 1794.91 Q2614.1 1790.3 2614.1 1781.58 Q2614.1 1772.83 2617.16 1768.24 Q2620.24 1763.64 2626.05 1763.64 Z" fill="#000000" fill-rule="nonzero" fill-opacity="1" /><path clip-path="url(#clip030)" d="M1281.08 1841.06 L1281.08 1858.92 L1289.16 1858.92 Q1293.65 1858.92 1296.1 1856.6 Q1298.55 1854.27 1298.55 1849.98 Q1298.55 1845.71 1296.1 1843.39 Q1293.65 1841.06 1289.16 1841.06 L1281.08 1841.06 M1274.65 1835.78 L1289.16 1835.78 Q1297.15 1835.78 1301.23 1839.41 Q1305.33 1843.01 1305.33 1849.98 Q1305.33 1857.01 1301.23 1860.61 Q1297.15 1864.2 1289.16 1864.2 L1281.08 1864.2 L1281.08 1883.3 L1274.65 1883.3 L1274.65 1835.78 Z" fill="#000000" fill-rule="nonzero" fill-opacity="1" /><path clip-path="url(#clip030)" d="M1333.21 1853.13 Q1332.23 1852.55 1331.05 1852.3 Q1329.9 1852.01 1328.5 1852.01 Q1323.54 1852.01 1320.86 1855.26 Q1318.22 1858.47 1318.22 1864.52 L1318.22 1883.3 L1312.33 1883.3 L1312.33 1847.65 L1318.22 1847.65 L1318.22 1853.19 Q1320.07 1849.94 1323.03 1848.39 Q1325.99 1846.79 1330.22 1846.79 Q1330.83 1846.79 1331.56 1846.89 Q1332.29 1846.95 1333.18 1847.11 L1333.21 1853.13 Z" fill="#000000" fill-rule="nonzero" fill-opacity="1" /><path clip-path="url(#clip030)" d="M1368.42 1864.01 L1368.42 1866.88 L1341.49 1866.88 Q1341.87 1872.92 1345.12 1876.11 Q1348.4 1879.26 1354.22 1879.26 Q1357.6 1879.26 1360.75 1878.43 Q1363.93 1877.6 1367.05 1875.95 L1367.05 1881.49 Q1363.9 1882.82 1360.59 1883.52 Q1357.28 1884.22 1353.87 1884.22 Q1345.34 1884.22 1340.34 1879.26 Q1335.38 1874.29 1335.38 1865.83 Q1335.38 1857.07 1340.09 1851.95 Q1344.83 1846.79 1352.85 1846.79 Q1360.05 1846.79 1364.22 1851.44 Q1368.42 1856.06 1368.42 1864.01 M1362.56 1862.29 Q1362.5 1857.49 1359.85 1854.62 Q1357.24 1851.76 1352.92 1851.76 Q1348.01 1851.76 1345.05 1854.53 Q1342.13 1857.3 1341.68 1862.33 L1362.56 1862.29 Z" fill="#000000" fill-rule="nonzero" fill-opacity="1" /><path clip-path="url(#clip030)" d="M1373.83 1847.65 L1380.03 1847.65 L1391.17 1877.57 L1402.31 1847.65 L1408.52 1847.65 L1395.15 1883.3 L1387.2 1883.3 L1373.83 1847.65 Z" fill="#000000" fill-rule="nonzero" fill-opacity="1" /><path clip-path="url(#clip030)" d="M1432.81 1865.38 Q1425.71 1865.38 1422.97 1867 Q1420.23 1868.63 1420.23 1872.54 Q1420.23 1875.66 1422.27 1877.51 Q1424.34 1879.32 1427.87 1879.32 Q1432.74 1879.32 1435.67 1875.88 Q1438.63 1872.42 1438.63 1866.69 L1438.63 1865.38 L1432.81 1865.38 M1444.49 1862.96 L1444.49 1883.3 L1438.63 1883.3 L1438.63 1877.89 Q1436.63 1881.14 1433.63 1882.7 Q1430.64 1884.22 1426.31 1884.22 Q1420.84 1884.22 1417.59 1881.17 Q1414.38 1878.08 1414.38 1872.92 Q1414.38 1866.91 1418.39 1863.85 Q1422.43 1860.8 1430.42 1860.8 L1438.63 1860.8 L1438.63 1860.23 Q1438.63 1856.18 1435.96 1853.99 Q1433.32 1851.76 1428.51 1851.76 Q1425.45 1851.76 1422.56 1852.49 Q1419.66 1853.22 1416.99 1854.69 L1416.99 1849.28 Q1420.2 1848.03 1423.23 1847.43 Q1426.25 1846.79 1429.11 1846.79 Q1436.85 1846.79 1440.67 1850.8 Q1444.49 1854.81 1444.49 1862.96 Z" fill="#000000" fill-rule="nonzero" fill-opacity="1" /><path clip-path="url(#clip030)" d="M1456.55 1833.78 L1462.41 1833.78 L1462.41 1883.3 L1456.55 1883.3 L1456.55 1833.78 Z" fill="#000000" fill-rule="nonzero" fill-opacity="1" /><path clip-path="url(#clip030)" d="M1505.15 1864.01 L1505.15 1866.88 L1478.23 1866.88 Q1478.61 1872.92 1481.85 1876.11 Q1485.13 1879.26 1490.96 1879.26 Q1494.33 1879.26 1497.48 1878.43 Q1500.66 1877.6 1503.78 1875.95 L1503.78 1881.49 Q1500.63 1882.82 1497.32 1883.52 Q1494.01 1884.22 1490.61 1884.22 Q1482.08 1884.22 1477.08 1879.26 Q1472.11 1874.29 1472.11 1865.83 Q1472.11 1857.07 1476.82 1851.95 Q1481.57 1846.79 1489.59 1846.79 Q1496.78 1846.79 1500.95 1851.44 Q1505.15 1856.06 1505.15 1864.01 M1499.3 1862.29 Q1499.23 1857.49 1496.59 1854.62 Q1493.98 1851.76 1489.65 1851.76 Q1484.75 1851.76 1481.79 1854.53 Q1478.86 1857.3 1478.42 1862.33 L1499.3 1862.29 Z" fill="#000000" fill-rule="nonzero" fill-opacity="1" /><path clip-path="url(#clip030)" d="M1544.4 1861.78 L1544.4 1883.3 L1538.54 1883.3 L1538.54 1861.98 Q1538.54 1856.92 1536.57 1854.4 Q1534.59 1851.89 1530.65 1851.89 Q1525.9 1851.89 1523.17 1854.91 Q1520.43 1857.93 1520.43 1863.15 L1520.43 1883.3 L1514.54 1883.3 L1514.54 1847.65 L1520.43 1847.65 L1520.43 1853.19 Q1522.53 1849.98 1525.36 1848.39 Q1528.23 1846.79 1531.95 1846.79 Q1538.09 1846.79 1541.25 1850.61 Q1544.4 1854.4 1544.4 1861.78 Z" fill="#000000" fill-rule="nonzero" fill-opacity="1" /><path clip-path="url(#clip030)" d="M1581.73 1849.02 L1581.73 1854.5 Q1579.25 1853.13 1576.73 1852.46 Q1574.25 1851.76 1571.71 1851.76 Q1566.01 1851.76 1562.86 1855.39 Q1559.71 1858.98 1559.71 1865.51 Q1559.71 1872.03 1562.86 1875.66 Q1566.01 1879.26 1571.71 1879.26 Q1574.25 1879.26 1576.73 1878.59 Q1579.25 1877.89 1581.73 1876.52 L1581.73 1881.93 Q1579.28 1883.08 1576.64 1883.65 Q1574.03 1884.22 1571.07 1884.22 Q1563.02 1884.22 1558.27 1879.16 Q1553.53 1874.1 1553.53 1865.51 Q1553.53 1856.79 1558.31 1851.79 Q1563.11 1846.79 1571.45 1846.79 Q1574.16 1846.79 1576.73 1847.37 Q1579.31 1847.91 1581.73 1849.02 Z" fill="#000000" fill-rule="nonzero" fill-opacity="1" /><path clip-path="url(#clip030)" d="M1622.41 1864.01 L1622.41 1866.88 L1595.48 1866.88 Q1595.86 1872.92 1599.11 1876.11 Q1602.39 1879.26 1608.21 1879.26 Q1611.59 1879.26 1614.74 1878.43 Q1617.92 1877.6 1621.04 1875.95 L1621.04 1881.49 Q1617.89 1882.82 1614.58 1883.52 Q1611.27 1884.22 1607.86 1884.22 Q1599.33 1884.22 1594.34 1879.26 Q1589.37 1874.29 1589.37 1865.83 Q1589.37 1857.07 1594.08 1851.95 Q1598.82 1846.79 1606.84 1846.79 Q1614.04 1846.79 1618.21 1851.44 Q1622.41 1856.06 1622.41 1864.01 M1616.55 1862.29 Q1616.49 1857.49 1613.85 1854.62 Q1611.24 1851.76 1606.91 1851.76 Q1602.01 1851.76 1599.05 1854.53 Q1596.12 1857.3 1595.67 1862.33 L1616.55 1862.29 Z" fill="#000000" fill-rule="nonzero" fill-opacity="1" /><polyline clip-path="url(#clip030)" style="stroke:#000000; stroke-linecap:round; stroke-linejoin:round; stroke-width:4; stroke-opacity:1; fill:none" points="256.302,1734.12 256.302,127.792 "/>
<polyline clip-path="url(#clip030)" style="stroke:#000000; stroke-linecap:round; stroke-linejoin:round; stroke-width:4; stroke-opacity:1; fill:none" points="256.302,1523.41 275.2,1523.41 "/>
<polyline clip-path="url(#clip030)" style="stroke:#000000; stroke-linecap:round; stroke-linejoin:round; stroke-width:4; stroke-opacity:1; fill:none" points="256.302,1241.43 275.2,1241.43 "/>
<polyline clip-path="url(#clip030)" style="stroke:#000000; stroke-linecap:round; stroke-linejoin:round; stroke-width:4; stroke-opacity:1; fill:none" points="256.302,959.445 275.2,959.445 "/>
<polyline clip-path="url(#clip030)" style="stroke:#000000; stroke-linecap:round; stroke-linejoin:round; stroke-width:4; stroke-opacity:1; fill:none" points="256.302,677.462 275.2,677.462 "/>
<polyline clip-path="url(#clip030)" style="stroke:#000000; stroke-linecap:round; stroke-linejoin:round; stroke-width:4; stroke-opacity:1; fill:none" points="256.302,395.48 275.2,395.48 "/>
<path clip-path="url(#clip030)" d="M130.242 1509.21 Q126.631 1509.21 124.802 1512.77 Q122.997 1516.32 122.997 1523.45 Q122.997 1530.55 124.802 1534.12 Q126.631 1537.66 130.242 1537.66 Q133.876 1537.66 135.682 1534.12 Q137.511 1530.55 137.511 1523.45 Q137.511 1516.32 135.682 1512.77 Q133.876 1509.21 130.242 1509.21 M130.242 1505.51 Q136.052 1505.51 139.108 1510.11 Q142.187 1514.7 142.187 1523.45 Q142.187 1532.17 139.108 1536.78 Q136.052 1541.36 130.242 1541.36 Q124.432 1541.36 121.353 1536.78 Q118.298 1532.17 118.298 1523.45 Q118.298 1514.7 121.353 1510.11 Q124.432 1505.51 130.242 1505.51 Z" fill="#000000" fill-rule="nonzero" fill-opacity="1" /><path clip-path="url(#clip030)" d="M150.404 1534.81 L155.288 1534.81 L155.288 1540.69 L150.404 1540.69 L150.404 1534.81 Z" fill="#000000" fill-rule="nonzero" fill-opacity="1" /><path clip-path="url(#clip030)" d="M178.321 1510.21 L166.515 1528.65 L178.321 1528.65 L178.321 1510.21 M177.094 1506.13 L182.973 1506.13 L182.973 1528.65 L187.904 1528.65 L187.904 1532.54 L182.973 1532.54 L182.973 1540.69 L178.321 1540.69 L178.321 1532.54 L162.719 1532.54 L162.719 1528.03 L177.094 1506.13 Z" fill="#000000" fill-rule="nonzero" fill-opacity="1" /><path clip-path="url(#clip030)" d="M199.663 1536.76 L215.982 1536.76 L215.982 1540.69 L194.038 1540.69 L194.038 1536.76 Q196.7 1534 201.283 1529.37 Q205.89 1524.72 207.07 1523.38 Q209.316 1520.85 210.195 1519.12 Q211.098 1517.36 211.098 1515.67 Q211.098 1512.91 209.154 1511.18 Q207.232 1509.44 204.131 1509.44 Q201.932 1509.44 199.478 1510.21 Q197.047 1510.97 194.27 1512.52 L194.27 1507.8 Q197.094 1506.66 199.547 1506.08 Q202.001 1505.51 204.038 1505.51 Q209.408 1505.51 212.603 1508.19 Q215.797 1510.88 215.797 1515.37 Q215.797 1517.5 214.987 1519.42 Q214.2 1521.32 212.094 1523.91 Q211.515 1524.58 208.413 1527.8 Q205.311 1530.99 199.663 1536.76 Z" fill="#000000" fill-rule="nonzero" fill-opacity="1" /><path clip-path="url(#clip030)" d="M128.159 1227.23 Q124.548 1227.23 122.719 1230.79 Q120.913 1234.33 120.913 1241.46 Q120.913 1248.57 122.719 1252.13 Q124.548 1255.68 128.159 1255.68 Q131.793 1255.68 133.599 1252.13 Q135.427 1248.57 135.427 1241.46 Q135.427 1234.33 133.599 1230.79 Q131.793 1227.23 128.159 1227.23 M128.159 1223.52 Q133.969 1223.52 137.025 1228.13 Q140.103 1232.71 140.103 1241.46 Q140.103 1250.19 137.025 1254.8 Q133.969 1259.38 128.159 1259.38 Q122.349 1259.38 119.27 1254.8 Q116.214 1250.19 116.214 1241.46 Q116.214 1232.71 119.27 1228.13 Q122.349 1223.52 128.159 1223.52 Z" fill="#000000" fill-rule="nonzero" fill-opacity="1" /><path clip-path="url(#clip030)" d="M148.321 1252.83 L153.205 1252.83 L153.205 1258.71 L148.321 1258.71 L148.321 1252.83 Z" fill="#000000" fill-rule="nonzero" fill-opacity="1" /><path clip-path="url(#clip030)" d="M176.237 1228.22 L164.432 1246.67 L176.237 1246.67 L176.237 1228.22 M175.01 1224.15 L180.89 1224.15 L180.89 1246.67 L185.821 1246.67 L185.821 1250.56 L180.89 1250.56 L180.89 1258.71 L176.237 1258.71 L176.237 1250.56 L160.636 1250.56 L160.636 1246.05 L175.01 1224.15 Z" fill="#000000" fill-rule="nonzero" fill-opacity="1" /><path clip-path="url(#clip030)" d="M206.399 1228.22 L194.594 1246.67 L206.399 1246.67 L206.399 1228.22 M205.172 1224.15 L211.052 1224.15 L211.052 1246.67 L215.982 1246.67 L215.982 1250.56 L211.052 1250.56 L211.052 1258.71 L206.399 1258.71 L206.399 1250.56 L190.797 1250.56 L190.797 1246.05 L205.172 1224.15 Z" fill="#000000" fill-rule="nonzero" fill-opacity="1" /><path clip-path="url(#clip030)" d="M128.483 945.244 Q124.872 945.244 123.043 948.809 Q121.238 952.351 121.238 959.48 Q121.238 966.587 123.043 970.151 Q124.872 973.693 128.483 973.693 Q132.117 973.693 133.923 970.151 Q135.751 966.587 135.751 959.48 Q135.751 952.351 133.923 948.809 Q132.117 945.244 128.483 945.244 M128.483 941.54 Q134.293 941.54 137.349 946.147 Q140.427 950.73 140.427 959.48 Q140.427 968.207 137.349 972.813 Q134.293 977.397 128.483 977.397 Q122.673 977.397 119.594 972.813 Q116.539 968.207 116.539 959.48 Q116.539 950.73 119.594 946.147 Q122.673 941.54 128.483 941.54 Z" fill="#000000" fill-rule="nonzero" fill-opacity="1" /><path clip-path="url(#clip030)" d="M148.645 970.846 L153.529 970.846 L153.529 976.725 L148.645 976.725 L148.645 970.846 Z" fill="#000000" fill-rule="nonzero" fill-opacity="1" /><path clip-path="url(#clip030)" d="M176.561 946.239 L164.756 964.688 L176.561 964.688 L176.561 946.239 M175.334 942.165 L181.214 942.165 L181.214 964.688 L186.145 964.688 L186.145 968.577 L181.214 968.577 L181.214 976.725 L176.561 976.725 L176.561 968.577 L160.96 968.577 L160.96 964.063 L175.334 942.165 Z" fill="#000000" fill-rule="nonzero" fill-opacity="1" /><path clip-path="url(#clip030)" d="M204.455 957.582 Q201.307 957.582 199.455 959.735 Q197.626 961.888 197.626 965.638 Q197.626 969.364 199.455 971.54 Q201.307 973.693 204.455 973.693 Q207.603 973.693 209.432 971.54 Q211.283 969.364 211.283 965.638 Q211.283 961.888 209.432 959.735 Q207.603 957.582 204.455 957.582 M213.737 942.929 L213.737 947.189 Q211.978 946.355 210.172 945.915 Q208.39 945.476 206.631 945.476 Q202.001 945.476 199.547 948.601 Q197.117 951.726 196.77 958.045 Q198.135 956.031 200.195 954.966 Q202.256 953.878 204.732 953.878 Q209.941 953.878 212.95 957.05 Q215.982 960.198 215.982 965.638 Q215.982 970.962 212.834 974.179 Q209.686 977.397 204.455 977.397 Q198.459 977.397 195.288 972.813 Q192.117 968.207 192.117 959.48 Q192.117 951.286 196.006 946.425 Q199.895 941.54 206.445 941.54 Q208.205 941.54 209.987 941.888 Q211.793 942.235 213.737 942.929 Z" fill="#000000" fill-rule="nonzero" fill-opacity="1" /><path clip-path="url(#clip030)" d="M128.738 663.261 Q125.126 663.261 123.298 666.826 Q121.492 670.368 121.492 677.497 Q121.492 684.604 123.298 688.168 Q125.126 691.71 128.738 691.71 Q132.372 691.71 134.177 688.168 Q136.006 684.604 136.006 677.497 Q136.006 670.368 134.177 666.826 Q132.372 663.261 128.738 663.261 M128.738 659.557 Q134.548 659.557 137.603 664.164 Q140.682 668.747 140.682 677.497 Q140.682 686.224 137.603 690.83 Q134.548 695.414 128.738 695.414 Q122.927 695.414 119.849 690.83 Q116.793 686.224 116.793 677.497 Q116.793 668.747 119.849 664.164 Q122.927 659.557 128.738 659.557 Z" fill="#000000" fill-rule="nonzero" fill-opacity="1" /><path clip-path="url(#clip030)" d="M148.899 688.863 L153.784 688.863 L153.784 694.742 L148.899 694.742 L148.899 688.863 Z" fill="#000000" fill-rule="nonzero" fill-opacity="1" /><path clip-path="url(#clip030)" d="M176.816 664.257 L165.01 682.706 L176.816 682.706 L176.816 664.257 M175.589 660.182 L181.469 660.182 L181.469 682.706 L186.399 682.706 L186.399 686.594 L181.469 686.594 L181.469 694.742 L176.816 694.742 L176.816 686.594 L161.214 686.594 L161.214 682.081 L175.589 660.182 Z" fill="#000000" fill-rule="nonzero" fill-opacity="1" /><path clip-path="url(#clip030)" d="M204.131 678.331 Q200.797 678.331 198.876 680.113 Q196.978 681.895 196.978 685.02 Q196.978 688.145 198.876 689.928 Q200.797 691.71 204.131 691.71 Q207.464 691.71 209.385 689.928 Q211.307 688.122 211.307 685.02 Q211.307 681.895 209.385 680.113 Q207.487 678.331 204.131 678.331 M199.455 676.34 Q196.445 675.599 194.756 673.539 Q193.089 671.479 193.089 668.516 Q193.089 664.372 196.029 661.965 Q198.992 659.557 204.131 659.557 Q209.293 659.557 212.232 661.965 Q215.172 664.372 215.172 668.516 Q215.172 671.479 213.482 673.539 Q211.816 675.599 208.83 676.34 Q212.209 677.127 214.084 679.418 Q215.982 681.71 215.982 685.02 Q215.982 690.043 212.904 692.729 Q209.848 695.414 204.131 695.414 Q198.413 695.414 195.334 692.729 Q192.279 690.043 192.279 685.02 Q192.279 681.71 194.177 679.418 Q196.075 677.127 199.455 676.34 M197.742 668.956 Q197.742 671.641 199.408 673.145 Q201.098 674.65 204.131 674.65 Q207.14 674.65 208.83 673.145 Q210.543 671.641 210.543 668.956 Q210.543 666.27 208.83 664.766 Q207.14 663.261 204.131 663.261 Q201.098 663.261 199.408 664.766 Q197.742 666.27 197.742 668.956 Z" fill="#000000" fill-rule="nonzero" fill-opacity="1" /><path clip-path="url(#clip030)" d="M128.645 381.278 Q125.034 381.278 123.205 384.843 Q121.4 388.385 121.4 395.514 Q121.4 402.621 123.205 406.186 Q125.034 409.727 128.645 409.727 Q132.279 409.727 134.085 406.186 Q135.913 402.621 135.913 395.514 Q135.913 388.385 134.085 384.843 Q132.279 381.278 128.645 381.278 M128.645 377.575 Q134.455 377.575 137.511 382.181 Q140.589 386.764 140.589 395.514 Q140.589 404.241 137.511 408.848 Q134.455 413.431 128.645 413.431 Q122.835 413.431 119.756 408.848 Q116.701 404.241 116.701 395.514 Q116.701 386.764 119.756 382.181 Q122.835 377.575 128.645 377.575 Z" fill="#000000" fill-rule="nonzero" fill-opacity="1" /><path clip-path="url(#clip030)" d="M148.807 406.88 L153.691 406.88 L153.691 412.76 L148.807 412.76 L148.807 406.88 Z" fill="#000000" fill-rule="nonzero" fill-opacity="1" /><path clip-path="url(#clip030)" d="M163.923 378.2 L182.279 378.2 L182.279 382.135 L168.205 382.135 L168.205 390.607 Q169.223 390.26 170.242 390.098 Q171.26 389.912 172.279 389.912 Q178.066 389.912 181.446 393.084 Q184.825 396.255 184.825 401.672 Q184.825 407.25 181.353 410.352 Q177.881 413.431 171.561 413.431 Q169.385 413.431 167.117 413.06 Q164.872 412.69 162.464 411.949 L162.464 407.25 Q164.548 408.385 166.77 408.94 Q168.992 409.496 171.469 409.496 Q175.473 409.496 177.811 407.389 Q180.149 405.283 180.149 401.672 Q180.149 398.061 177.811 395.954 Q175.473 393.848 171.469 393.848 Q169.594 393.848 167.719 394.264 Q165.867 394.681 163.923 395.561 L163.923 378.2 Z" fill="#000000" fill-rule="nonzero" fill-opacity="1" /><path clip-path="url(#clip030)" d="M204.038 381.278 Q200.427 381.278 198.598 384.843 Q196.793 388.385 196.793 395.514 Q196.793 402.621 198.598 406.186 Q200.427 409.727 204.038 409.727 Q207.672 409.727 209.478 406.186 Q211.307 402.621 211.307 395.514 Q211.307 388.385 209.478 384.843 Q207.672 381.278 204.038 381.278 M204.038 377.575 Q209.848 377.575 212.904 382.181 Q215.982 386.764 215.982 395.514 Q215.982 404.241 212.904 408.848 Q209.848 413.431 204.038 413.431 Q198.228 413.431 195.149 408.848 Q192.094 404.241 192.094 395.514 Q192.094 386.764 195.149 382.181 Q198.228 377.575 204.038 377.575 Z" fill="#000000" fill-rule="nonzero" fill-opacity="1" /><path clip-path="url(#clip030)" d="M59.4423 940.471 L75.1974 940.471 L75.1974 946.36 L26.2133 946.36 Q11.6995 946.36 11.6995 932.801 Q11.6995 918.987 23.9535 918.987 Q32.6745 918.987 35.8573 924.462 Q38.7219 915.55 47.2201 915.55 Q62.3068 915.55 62.3068 930.891 Q62.3068 937.639 59.4423 940.471 M51.8034 940.471 Q57.3098 936.938 57.3098 930.668 Q57.3098 921.501 47.3156 921.501 Q38.34 921.501 39.0402 936.27 L33.6293 936.27 Q33.6293 924.716 23.4442 924.716 Q16.4738 924.716 16.4738 932.164 Q16.4738 940.471 26.4043 940.471 L51.8034 940.471 Z" fill="#000000" fill-rule="nonzero" fill-opacity="1" /><path clip-path="url(#clip030)" d="M710.677 12.096 L718.86 12.096 L718.86 65.6895 L748.31 65.6895 L748.31 72.576 L710.677 72.576 L710.677 12.096 Z" fill="#000000" fill-rule="nonzero" fill-opacity="1" /><path clip-path="url(#clip030)" d="M772.697 32.4315 Q766.701 32.4315 763.217 37.1306 Q759.734 41.7891 759.734 49.9314 Q759.734 58.0738 763.177 62.7728 Q766.661 67.4314 772.697 67.4314 Q778.651 67.4314 782.135 62.7323 Q785.619 58.0333 785.619 49.9314 Q785.619 41.8701 782.135 37.1711 Q778.651 32.4315 772.697 32.4315 M772.697 26.1121 Q782.419 26.1121 787.968 32.4315 Q793.518 38.7509 793.518 49.9314 Q793.518 61.0714 787.968 67.4314 Q782.419 73.7508 772.697 73.7508 Q762.934 73.7508 757.384 67.4314 Q751.875 61.0714 751.875 49.9314 Q751.875 38.7509 757.384 32.4315 Q762.934 26.1121 772.697 26.1121 Z" fill="#000000" fill-rule="nonzero" fill-opacity="1" /><path clip-path="url(#clip030)" d="M835.729 49.3643 Q835.729 41.2625 832.366 36.8065 Q829.045 32.3505 823.009 32.3505 Q817.013 32.3505 813.651 36.8065 Q810.329 41.2625 810.329 49.3643 Q810.329 57.4256 813.651 61.8816 Q817.013 66.3376 823.009 66.3376 Q829.045 66.3376 832.366 61.8816 Q835.729 57.4256 835.729 49.3643 M843.182 66.9452 Q843.182 78.5308 838.038 84.1616 Q832.893 89.8329 822.28 89.8329 Q818.35 89.8329 814.866 89.2252 Q811.383 88.6581 808.101 87.4428 L808.101 80.1917 Q811.383 81.9741 814.583 82.8248 Q817.783 83.6755 821.105 83.6755 Q828.437 83.6755 832.083 79.8271 Q835.729 76.0193 835.729 68.282 L835.729 64.5957 Q833.42 68.6061 829.814 70.5911 Q826.209 72.576 821.186 72.576 Q812.841 72.576 807.737 66.2161 Q802.633 59.8562 802.633 49.3643 Q802.633 38.832 807.737 32.472 Q812.841 26.1121 821.186 26.1121 Q826.209 26.1121 829.814 28.0971 Q833.42 30.082 835.729 34.0924 L835.729 27.2059 L843.182 27.2059 L843.182 66.9452 Z" fill="#000000" fill-rule="nonzero" fill-opacity="1" /><path clip-path="url(#clip030)" d="M854.768 46.5287 L876.602 46.5287 L876.602 53.1722 L854.768 53.1722 L854.768 46.5287 Z" fill="#000000" fill-rule="nonzero" fill-opacity="1" /><path clip-path="url(#clip030)" d="M888.471 9.54393 L895.925 9.54393 L895.925 72.576 L888.471 72.576 L888.471 9.54393 Z" fill="#000000" fill-rule="nonzero" fill-opacity="1" /><path clip-path="url(#clip030)" d="M911.521 27.2059 L918.975 27.2059 L918.975 72.576 L911.521 72.576 L911.521 27.2059 M911.521 9.54393 L918.975 9.54393 L918.975 18.9825 L911.521 18.9825 L911.521 9.54393 Z" fill="#000000" fill-rule="nonzero" fill-opacity="1" /><path clip-path="url(#clip030)" d="M972.285 45.1919 L972.285 72.576 L964.831 72.576 L964.831 45.4349 Q964.831 38.994 962.319 35.7938 Q959.808 32.5936 954.785 32.5936 Q948.749 32.5936 945.265 36.4419 Q941.781 40.2903 941.781 46.9338 L941.781 72.576 L934.287 72.576 L934.287 27.2059 L941.781 27.2059 L941.781 34.2544 Q944.455 30.163 948.06 28.1376 Q951.706 26.1121 956.446 26.1121 Q964.264 26.1121 968.274 30.9732 Q972.285 35.7938 972.285 45.1919 Z" fill="#000000" fill-rule="nonzero" fill-opacity="1" /><path clip-path="url(#clip030)" d="M986.868 9.54393 L994.362 9.54393 L994.362 46.7717 L1016.6 27.2059 L1026.12 27.2059 L1002.06 48.4326 L1027.13 72.576 L1017.41 72.576 L994.362 50.4176 L994.362 72.576 L986.868 72.576 L986.868 9.54393 Z" fill="#000000" fill-rule="nonzero" fill-opacity="1" /><path clip-path="url(#clip030)" d="M1037.1 62.2867 L1045.65 62.2867 L1045.65 72.576 L1037.1 72.576 L1037.1 62.2867 M1037.1 29.6769 L1045.65 29.6769 L1045.65 39.9662 L1037.1 39.9662 L1037.1 29.6769 Z" fill="#000000" fill-rule="nonzero" fill-opacity="1" /><path clip-path="url(#clip030)" d="M1096.97 69.7809 L1096.97 89.8329 L1089.48 89.8329 L1089.48 27.4894 Q1089.48 9.01731 1106.73 9.01731 Q1124.32 9.01731 1124.32 24.6133 Q1124.32 35.7128 1117.35 39.7637 Q1128.69 43.4095 1128.69 54.2254 Q1128.69 73.4267 1109.16 73.4267 Q1100.58 73.4267 1096.97 69.7809 M1096.97 60.0587 Q1101.47 67.0668 1109.45 67.0668 Q1121.11 67.0668 1121.11 54.3469 Q1121.11 42.9234 1102.32 43.8146 L1102.32 36.928 Q1117.02 36.928 1117.02 23.9651 Q1117.02 15.0937 1107.54 15.0937 Q1096.97 15.0937 1096.97 27.7325 L1096.97 60.0587 Z" fill="#000000" fill-rule="nonzero" fill-opacity="1" /><path clip-path="url(#clip030)" d="M1160.37 9.62495 Q1154.94 18.942 1152.31 28.0566 Q1149.67 37.1711 1149.67 46.5287 Q1149.67 55.8863 1152.31 65.0818 Q1154.98 74.2369 1160.37 83.5134 L1153.89 83.5134 Q1147.81 73.9938 1144.77 64.7983 Q1141.77 55.6027 1141.77 46.5287 Q1141.77 37.4952 1144.77 28.3401 Q1147.77 19.1851 1153.89 9.62495 L1160.37 9.62495 Z" fill="#000000" fill-rule="nonzero" fill-opacity="1" /><path clip-path="url(#clip030)" d="M1182.04 65.7705 L1182.04 89.8329 L1174.55 89.8329 L1174.55 27.2059 L1182.04 27.2059 L1182.04 34.0924 Q1184.39 30.0415 1187.95 28.0971 Q1191.56 26.1121 1196.54 26.1121 Q1204.81 26.1121 1209.95 32.6746 Q1215.14 39.2371 1215.14 49.9314 Q1215.14 60.6258 1209.95 67.1883 Q1204.81 73.7508 1196.54 73.7508 Q1191.56 73.7508 1187.95 71.8063 Q1184.39 69.8214 1182.04 65.7705 M1207.4 49.9314 Q1207.4 41.7081 1204 37.0496 Q1200.63 32.3505 1194.72 32.3505 Q1188.81 32.3505 1185.4 37.0496 Q1182.04 41.7081 1182.04 49.9314 Q1182.04 58.1548 1185.4 62.8538 Q1188.81 67.5124 1194.72 67.5124 Q1200.63 67.5124 1204 62.8538 Q1207.4 58.1548 1207.4 49.9314 Z" fill="#000000" fill-rule="nonzero" fill-opacity="1" /><path clip-path="url(#clip030)" d="M1253.78 34.1734 Q1252.53 33.4443 1251.03 33.1202 Q1249.57 32.7556 1247.79 32.7556 Q1241.47 32.7556 1238.06 36.8875 Q1234.7 40.9789 1234.7 48.6757 L1234.7 72.576 L1227.21 72.576 L1227.21 27.2059 L1234.7 27.2059 L1234.7 34.2544 Q1237.05 30.1225 1240.82 28.1376 Q1244.59 26.1121 1249.97 26.1121 Q1250.74 26.1121 1251.68 26.2337 Q1252.61 26.3147 1253.74 26.5172 L1253.78 34.1734 Z" fill="#000000" fill-rule="nonzero" fill-opacity="1" /><path clip-path="url(#clip030)" d="M1298.58 48.0275 L1298.58 51.6733 L1264.31 51.6733 Q1264.8 59.3701 1268.93 63.421 Q1273.1 67.4314 1280.52 67.4314 Q1284.81 67.4314 1288.82 66.3781 Q1292.87 65.3249 1296.84 63.2184 L1296.84 70.267 Q1292.83 71.9684 1288.62 72.8596 Q1284.41 73.7508 1280.07 73.7508 Q1269.22 73.7508 1262.86 67.4314 Q1256.54 61.1119 1256.54 50.3365 Q1256.54 39.1965 1262.53 32.6746 Q1268.57 26.1121 1278.78 26.1121 Q1287.93 26.1121 1293.24 32.0264 Q1298.58 37.9003 1298.58 48.0275 M1291.13 45.84 Q1291.05 39.7232 1287.69 36.0774 Q1284.37 32.4315 1278.86 32.4315 Q1272.62 32.4315 1268.85 35.9558 Q1265.12 39.4801 1264.56 45.8805 L1291.13 45.84 Z" fill="#000000" fill-rule="nonzero" fill-opacity="1" /><path clip-path="url(#clip030)" d="M1305.47 27.2059 L1313.37 27.2059 L1327.55 65.2844 L1341.73 27.2059 L1349.63 27.2059 L1332.61 72.576 L1322.49 72.576 L1305.47 27.2059 Z" fill="#000000" fill-rule="nonzero" fill-opacity="1" /><path clip-path="url(#clip030)" d="M1358.74 9.62495 L1365.22 9.62495 Q1371.3 19.1851 1374.3 28.3401 Q1377.33 37.4952 1377.33 46.5287 Q1377.33 55.6027 1374.3 64.7983 Q1371.3 73.9938 1365.22 83.5134 L1358.74 83.5134 Q1364.13 74.2369 1366.76 65.0818 Q1369.44 55.8863 1369.44 46.5287 Q1369.44 37.1711 1366.76 28.0566 Q1364.13 18.942 1358.74 9.62495 Z" fill="#000000" fill-rule="nonzero" fill-opacity="1" /><path clip-path="url(#clip030)" d="M1419.63 34.9026 L1471.56 34.9026 L1471.56 41.7081 L1419.63 41.7081 L1419.63 34.9026 M1419.63 51.4303 L1471.56 51.4303 L1471.56 58.3168 L1419.63 58.3168 L1419.63 51.4303 Z" fill="#000000" fill-rule="nonzero" fill-opacity="1" /><path clip-path="url(#clip030)" d="M1553.35 48.0275 L1553.35 51.6733 L1519.08 51.6733 Q1519.56 59.3701 1523.69 63.421 Q1527.87 67.4314 1535.28 67.4314 Q1539.57 67.4314 1543.58 66.3781 Q1547.63 65.3249 1551.6 63.2184 L1551.6 70.267 Q1547.59 71.9684 1543.38 72.8596 Q1539.17 73.7508 1534.83 73.7508 Q1523.98 73.7508 1517.62 67.4314 Q1511.3 61.1119 1511.3 50.3365 Q1511.3 39.1965 1517.29 32.6746 Q1523.33 26.1121 1533.54 26.1121 Q1542.69 26.1121 1548 32.0264 Q1553.35 37.9003 1553.35 48.0275 M1545.89 45.84 Q1545.81 39.7232 1542.45 36.0774 Q1539.13 32.4315 1533.62 32.4315 Q1527.38 32.4315 1523.61 35.9558 Q1519.89 39.4801 1519.32 45.8805 L1545.89 45.84 Z" fill="#000000" fill-rule="nonzero" fill-opacity="1" /><path clip-path="url(#clip030)" d="M1601.84 27.2059 L1585.43 49.2833 L1602.69 72.576 L1593.9 72.576 L1580.69 54.752 L1567.48 72.576 L1558.69 72.576 L1576.31 48.8377 L1560.19 27.2059 L1568.98 27.2059 L1581.01 43.369 L1593.05 27.2059 L1601.84 27.2059 Z" fill="#000000" fill-rule="nonzero" fill-opacity="1" /><path clip-path="url(#clip030)" d="M1620.43 65.7705 L1620.43 89.8329 L1612.94 89.8329 L1612.94 27.2059 L1620.43 27.2059 L1620.43 34.0924 Q1622.78 30.0415 1626.34 28.0971 Q1629.95 26.1121 1634.93 26.1121 Q1643.2 26.1121 1648.34 32.6746 Q1653.53 39.2371 1653.53 49.9314 Q1653.53 60.6258 1648.34 67.1883 Q1643.2 73.7508 1634.93 73.7508 Q1629.95 73.7508 1626.34 71.8063 Q1622.78 69.8214 1620.43 65.7705 M1645.79 49.9314 Q1645.79 41.7081 1642.39 37.0496 Q1639.02 32.3505 1633.11 32.3505 Q1627.19 32.3505 1623.79 37.0496 Q1620.43 41.7081 1620.43 49.9314 Q1620.43 58.1548 1623.79 62.8538 Q1627.19 67.5124 1633.11 67.5124 Q1639.02 67.5124 1642.39 62.8538 Q1645.79 58.1548 1645.79 49.9314 Z" fill="#000000" fill-rule="nonzero" fill-opacity="1" /><path clip-path="url(#clip030)" d="M1683.79 9.62495 Q1678.36 18.942 1675.72 28.0566 Q1673.09 37.1711 1673.09 46.5287 Q1673.09 55.8863 1675.72 65.0818 Q1678.4 74.2369 1683.79 83.5134 L1677.3 83.5134 Q1671.23 73.9938 1668.19 64.7983 Q1665.19 55.6027 1665.19 46.5287 Q1665.19 37.4952 1668.19 28.3401 Q1671.19 19.1851 1677.3 9.62495 L1683.79 9.62495 Z" fill="#000000" fill-rule="nonzero" fill-opacity="1" /><path clip-path="url(#clip030)" d="M1698.25 9.54393 L1705.7 9.54393 L1705.7 72.576 L1698.25 72.576 L1698.25 9.54393 Z" fill="#000000" fill-rule="nonzero" fill-opacity="1" /><path clip-path="url(#clip030)" d="M1738.88 32.4315 Q1732.88 32.4315 1729.4 37.1306 Q1725.91 41.7891 1725.91 49.9314 Q1725.91 58.0738 1729.36 62.7728 Q1732.84 67.4314 1738.88 67.4314 Q1744.83 67.4314 1748.32 62.7323 Q1751.8 58.0333 1751.8 49.9314 Q1751.8 41.8701 1748.32 37.1711 Q1744.83 32.4315 1738.88 32.4315 M1738.88 26.1121 Q1748.6 26.1121 1754.15 32.4315 Q1759.7 38.7509 1759.7 49.9314 Q1759.7 61.0714 1754.15 67.4314 Q1748.6 73.7508 1738.88 73.7508 Q1729.12 73.7508 1723.57 67.4314 Q1718.06 61.0714 1718.06 49.9314 Q1718.06 38.7509 1723.57 32.4315 Q1729.12 26.1121 1738.88 26.1121 Z" fill="#000000" fill-rule="nonzero" fill-opacity="1" /><path clip-path="url(#clip030)" d="M1801.91 49.3643 Q1801.91 41.2625 1798.55 36.8065 Q1795.23 32.3505 1789.19 32.3505 Q1783.19 32.3505 1779.83 36.8065 Q1776.51 41.2625 1776.51 49.3643 Q1776.51 57.4256 1779.83 61.8816 Q1783.19 66.3376 1789.19 66.3376 Q1795.23 66.3376 1798.55 61.8816 Q1801.91 57.4256 1801.91 49.3643 M1809.36 66.9452 Q1809.36 78.5308 1804.22 84.1616 Q1799.07 89.8329 1788.46 89.8329 Q1784.53 89.8329 1781.05 89.2252 Q1777.56 88.6581 1774.28 87.4428 L1774.28 80.1917 Q1777.56 81.9741 1780.76 82.8248 Q1783.96 83.6755 1787.29 83.6755 Q1794.62 83.6755 1798.26 79.8271 Q1801.91 76.0193 1801.91 68.282 L1801.91 64.5957 Q1799.6 68.6061 1796 70.5911 Q1792.39 72.576 1787.37 72.576 Q1779.02 72.576 1773.92 66.2161 Q1768.81 59.8562 1768.81 49.3643 Q1768.81 38.832 1773.92 32.472 Q1779.02 26.1121 1787.37 26.1121 Q1792.39 26.1121 1796 28.0971 Q1799.6 30.082 1801.91 34.0924 L1801.91 27.2059 L1809.36 27.2059 L1809.36 66.9452 Z" fill="#000000" fill-rule="nonzero" fill-opacity="1" /><path clip-path="url(#clip030)" d="M1859.19 86.3491 L1859.19 92.1419 L1816.09 92.1419 L1816.09 86.3491 L1859.19 86.3491 Z" fill="#000000" fill-rule="nonzero" fill-opacity="1" /><path clip-path="url(#clip030)" d="M1873.65 69.7809 L1873.65 89.8329 L1866.16 89.8329 L1866.16 27.4894 Q1866.16 9.01731 1883.41 9.01731 Q1900.99 9.01731 1900.99 24.6133 Q1900.99 35.7128 1894.03 39.7637 Q1905.37 43.4095 1905.37 54.2254 Q1905.37 73.4267 1885.84 73.4267 Q1877.26 73.4267 1873.65 69.7809 M1873.65 60.0587 Q1878.15 67.0668 1886.13 67.0668 Q1897.79 67.0668 1897.79 54.3469 Q1897.79 42.9234 1879 43.8146 L1879 36.928 Q1893.7 36.928 1893.7 23.9651 Q1893.7 15.0937 1884.22 15.0937 Q1873.65 15.0937 1873.65 27.7325 L1873.65 60.0587 Z" fill="#000000" fill-rule="nonzero" fill-opacity="1" /><path clip-path="url(#clip030)" d="M1937.05 9.62495 Q1931.62 18.942 1928.99 28.0566 Q1926.35 37.1711 1926.35 46.5287 Q1926.35 55.8863 1928.99 65.0818 Q1931.66 74.2369 1937.05 83.5134 L1930.57 83.5134 Q1924.49 73.9938 1921.45 64.7983 Q1918.45 55.6027 1918.45 46.5287 Q1918.45 37.4952 1921.45 28.3401 Q1924.45 19.1851 1930.57 9.62495 L1937.05 9.62495 Z" fill="#000000" fill-rule="nonzero" fill-opacity="1" /><path clip-path="url(#clip030)" d="M1958.72 65.7705 L1958.72 89.8329 L1951.23 89.8329 L1951.23 27.2059 L1958.72 27.2059 L1958.72 34.0924 Q1961.07 30.0415 1964.63 28.0971 Q1968.24 26.1121 1973.22 26.1121 Q1981.49 26.1121 1986.63 32.6746 Q1991.82 39.2371 1991.82 49.9314 Q1991.82 60.6258 1986.63 67.1883 Q1981.49 73.7508 1973.22 73.7508 Q1968.24 73.7508 1964.63 71.8063 Q1961.07 69.8214 1958.72 65.7705 M1984.08 49.9314 Q1984.08 41.7081 1980.68 37.0496 Q1977.31 32.3505 1971.4 32.3505 Q1965.49 32.3505 1962.08 37.0496 Q1958.72 41.7081 1958.72 49.9314 Q1958.72 58.1548 1962.08 62.8538 Q1965.49 67.5124 1971.4 67.5124 Q1977.31 67.5124 1980.68 62.8538 Q1984.08 58.1548 1984.08 49.9314 Z" fill="#000000" fill-rule="nonzero" fill-opacity="1" /><path clip-path="url(#clip030)" d="M2030.46 34.1734 Q2029.21 33.4443 2027.71 33.1202 Q2026.25 32.7556 2024.47 32.7556 Q2018.15 32.7556 2014.74 36.8875 Q2011.38 40.9789 2011.38 48.6757 L2011.38 72.576 L2003.89 72.576 L2003.89 27.2059 L2011.38 27.2059 L2011.38 34.2544 Q2013.73 30.1225 2017.5 28.1376 Q2021.27 26.1121 2026.65 26.1121 Q2027.42 26.1121 2028.36 26.2337 Q2029.29 26.3147 2030.42 26.5172 L2030.46 34.1734 Z" fill="#000000" fill-rule="nonzero" fill-opacity="1" /><path clip-path="url(#clip030)" d="M2075.26 48.0275 L2075.26 51.6733 L2040.99 51.6733 Q2041.48 59.3701 2045.61 63.421 Q2049.78 67.4314 2057.2 67.4314 Q2061.49 67.4314 2065.5 66.3781 Q2069.55 65.3249 2073.52 63.2184 L2073.52 70.267 Q2069.51 71.9684 2065.3 72.8596 Q2061.09 73.7508 2056.75 73.7508 Q2045.9 73.7508 2039.54 67.4314 Q2033.22 61.1119 2033.22 50.3365 Q2033.22 39.1965 2039.21 32.6746 Q2045.25 26.1121 2055.46 26.1121 Q2064.61 26.1121 2069.92 32.0264 Q2075.26 37.9003 2075.26 48.0275 M2067.81 45.84 Q2067.73 39.7232 2064.37 36.0774 Q2061.05 32.4315 2055.54 32.4315 Q2049.3 32.4315 2045.53 35.9558 Q2041.8 39.4801 2041.24 45.8805 L2067.81 45.84 Z" fill="#000000" fill-rule="nonzero" fill-opacity="1" /><path clip-path="url(#clip030)" d="M2082.15 27.2059 L2090.05 27.2059 L2104.23 65.2844 L2118.41 27.2059 L2126.31 27.2059 L2109.29 72.576 L2099.17 72.576 L2082.15 27.2059 Z" fill="#000000" fill-rule="nonzero" fill-opacity="1" /><path clip-path="url(#clip030)" d="M2135.42 9.62495 L2141.9 9.62495 Q2147.98 19.1851 2150.98 28.3401 Q2154.01 37.4952 2154.01 46.5287 Q2154.01 55.6027 2150.98 64.7983 Q2147.98 73.9938 2141.9 83.5134 L2135.42 83.5134 Q2140.81 74.2369 2143.44 65.0818 Q2146.12 55.8863 2146.12 46.5287 Q2146.12 37.1711 2143.44 28.0566 Q2140.81 18.942 2135.42 9.62495 Z" fill="#000000" fill-rule="nonzero" fill-opacity="1" /><path clip-path="url(#clip030)" d="M2167.79 9.62495 L2174.27 9.62495 Q2180.35 19.1851 2183.34 28.3401 Q2186.38 37.4952 2186.38 46.5287 Q2186.38 55.6027 2183.34 64.7983 Q2180.35 73.9938 2174.27 83.5134 L2167.79 83.5134 Q2173.18 74.2369 2175.81 65.0818 Q2178.48 55.8863 2178.48 46.5287 Q2178.48 37.1711 2175.81 28.0566 Q2173.18 18.942 2167.79 9.62495 Z" fill="#000000" fill-rule="nonzero" fill-opacity="1" /><polyline clip-path="url(#clip031)" style="stroke:#000000; stroke-linecap:round; stroke-linejoin:round; stroke-width:12; stroke-opacity:1; fill:none" stroke-dasharray="48, 30" points="323.787,395.48 346.509,409.707 369.231,423.905 391.953,438.075 414.675,452.216 437.397,466.329 460.119,480.413 482.841,494.469 505.563,508.496 528.286,522.495 551.008,536.466 573.73,550.409 596.452,564.323 619.174,578.21 641.896,592.068 664.618,605.899 687.34,619.701 710.062,633.476 732.784,647.223 755.506,660.942 778.228,674.633 800.95,688.297 823.672,701.933 846.394,715.542 869.117,729.123 891.839,742.677 914.561,756.204 937.283,769.703 960.005,783.175 982.727,796.62 1005.45,810.037 1028.17,823.428 1050.89,836.791 1073.62,850.128 1096.34,863.437 1119.06,876.72 1141.78,889.976 1164.5,903.205 1187.23,916.408 1209.95,929.584 1232.67,942.733 1255.39,955.856 1278.11,968.952 1300.84,982.022 1323.56,995.065 1346.28,1008.08 1369,1021.07 1391.72,1034.04 1414.45,1046.98 1437.17,1059.89 1459.89,1072.78 1482.61,1085.64 1505.33,1098.47 1528.06,1111.28 1550.78,1124.06 1573.5,1136.82 1596.22,1149.55 1618.94,1162.25 1641.67,1174.93 1664.39,1187.59 1687.11,1200.22 1709.83,1212.82 1732.55,1225.4 1755.28,1237.95 1778,1250.48 1800.72,1262.98 1823.44,1275.45 1846.17,1287.91 1868.89,1300.33 1891.61,1312.73 1914.33,1325.11 1937.05,1337.46 1959.78,1349.79 1982.5,1362.09 2005.22,1374.36 2027.94,1386.62 2050.66,1398.84 2073.39,1411.04 2096.11,1423.22 2118.83,1435.38 2141.55,1447.5 2164.27,1459.61 2187,1471.69 2209.72,1483.74 2232.44,1495.77 2255.16,1507.78 2277.88,1519.76 2300.61,1531.72 2323.33,1543.65 2346.05,1555.56 2368.77,1567.45 2391.49,1579.31 2414.22,1591.15 2436.94,1602.96 2459.66,1614.75 2482.38,1626.52 2505.11,1638.26 2527.83,1649.98 2550.55,1661.68 2573.27,1673.35 "/>
<polyline clip-path="url(#clip031)" style="stroke:#006400; stroke-linecap:round; stroke-linejoin:round; stroke-width:8; stroke-opacity:1; fill:none" points="323.787,173.254 346.509,189.31 369.231,205.329 391.953,221.311 414.675,237.257 437.397,253.167 460.119,269.042 482.841,284.883 505.563,300.689 528.286,316.462 551.008,332.202 573.73,347.91 596.452,363.586 619.174,379.23 641.896,394.844 664.618,410.427 687.34,425.98 710.062,441.504 732.784,457 755.506,472.466 778.228,487.905 800.95,503.317 823.672,518.704 846.394,534.066 869.117,549.406 891.839,564.725 914.561,580.025 937.283,595.307 960.005,610.573 982.727,625.824 1005.45,641.062 1028.17,656.288 1050.89,671.504 1073.62,686.711 1096.34,701.911 1119.06,717.105 1141.78,732.294 1164.5,747.479 1187.23,762.66 1209.95,777.84 1232.67,793.017 1255.39,808.194 1278.11,823.37 1300.84,838.546 1323.56,853.724 1346.28,868.904 1369,884.087 1391.72,899.272 1414.45,914.462 1437.17,929.657 1459.89,944.856 1482.61,960.062 1505.33,975.273 1528.06,990.489 1550.78,1005.71 1573.5,1020.94 1596.22,1036.17 1618.94,1051.4 1641.67,1066.64 1664.39,1081.89 1687.11,1097.14 1709.83,1112.39 1732.55,1127.64 1755.28,1142.9 1778,1158.17 1800.72,1173.43 1823.44,1188.7 1846.17,1203.98 1868.89,1219.25 1891.61,1234.52 1914.33,1249.79 1937.05,1265.07 1959.78,1280.34 1982.5,1295.6 2005.22,1310.87 2027.94,1326.12 2050.66,1341.38 2073.39,1356.63 2096.11,1371.87 2118.83,1387.11 2141.55,1402.33 2164.27,1417.55 2187,1432.76 2209.72,1447.96 2232.44,1463.14 2255.16,1478.31 2277.88,1493.47 2300.61,1508.61 2323.33,1523.73 2346.05,1538.84 2368.77,1553.92 2391.49,1568.99 2414.22,1584.03 2436.94,1599.05 2459.66,1614.05 2482.38,1629.02 2505.11,1643.97 2527.83,1658.89 2550.55,1673.79 2573.27,1688.65 "/>
<path clip-path="url(#clip030)" d="M1960.35 336.856 L2561.27 336.856 L2561.27 181.336 L1960.35 181.336  Z" fill="#ffffff" fill-rule="evenodd" fill-opacity="1"/>
<polyline clip-path="url(#clip030)" style="stroke:#000000; stroke-linecap:round; stroke-linejoin:round; stroke-width:4; stroke-opacity:1; fill:none" points="1960.35,336.856 2561.27,336.856 2561.27,181.336 1960.35,181.336 1960.35,336.856 "/>
<polyline clip-path="url(#clip030)" style="stroke:#000000; stroke-linecap:round; stroke-linejoin:round; stroke-width:12; stroke-opacity:1; fill:none" stroke-dasharray="48, 30" points="1986.85,233.176 2145.81,233.176 "/>
<path clip-path="url(#clip030)" d="M2172.31 215.896 L2201.54 215.896 L2201.54 219.831 L2189.27 219.831 L2189.27 250.456 L2184.57 250.456 L2184.57 219.831 L2172.31 219.831 L2172.31 215.896 Z" fill="#000000" fill-rule="nonzero" fill-opacity="1" /><path clip-path="url(#clip030)" d="M2213.93 228.512 Q2213.21 228.095 2212.35 227.91 Q2211.52 227.702 2210.5 227.702 Q2206.89 227.702 2204.94 230.063 Q2203.02 232.401 2203.02 236.799 L2203.02 250.456 L2198.74 250.456 L2198.74 224.531 L2203.02 224.531 L2203.02 228.558 Q2204.37 226.197 2206.52 225.063 Q2208.67 223.906 2211.75 223.906 Q2212.19 223.906 2212.72 223.975 Q2213.25 224.021 2213.9 224.137 L2213.93 228.512 Z" fill="#000000" fill-rule="nonzero" fill-opacity="1" /><path clip-path="url(#clip030)" d="M2217.95 240.225 L2217.95 224.531 L2222.21 224.531 L2222.21 240.063 Q2222.21 243.743 2223.65 245.595 Q2225.08 247.424 2227.95 247.424 Q2231.4 247.424 2233.39 245.225 Q2235.41 243.026 2235.41 239.229 L2235.41 224.531 L2239.67 224.531 L2239.67 250.456 L2235.41 250.456 L2235.41 246.475 Q2233.86 248.836 2231.8 249.993 Q2229.76 251.128 2227.05 251.128 Q2222.58 251.128 2220.27 248.35 Q2217.95 245.572 2217.95 240.225 M2228.67 223.906 L2228.67 223.906 Z" fill="#000000" fill-rule="nonzero" fill-opacity="1" /><path clip-path="url(#clip030)" d="M2270.61 236.429 L2270.61 238.512 L2251.03 238.512 Q2251.31 242.91 2253.67 245.225 Q2256.05 247.516 2260.29 247.516 Q2262.74 247.516 2265.04 246.915 Q2267.35 246.313 2269.62 245.109 L2269.62 249.137 Q2267.33 250.109 2264.92 250.618 Q2262.51 251.128 2260.04 251.128 Q2253.83 251.128 2250.2 247.516 Q2246.59 243.905 2246.59 237.748 Q2246.59 231.382 2250.01 227.655 Q2253.46 223.906 2259.3 223.906 Q2264.53 223.906 2267.56 227.285 Q2270.61 230.642 2270.61 236.429 M2266.36 235.179 Q2266.31 231.683 2264.39 229.6 Q2262.49 227.517 2259.34 227.517 Q2255.78 227.517 2253.62 229.53 Q2251.49 231.544 2251.17 235.202 L2266.36 235.179 Z" fill="#000000" fill-rule="nonzero" fill-opacity="1" /><polyline clip-path="url(#clip030)" style="stroke:#006400; stroke-linecap:round; stroke-linejoin:round; stroke-width:8; stroke-opacity:1; fill:none" points="1986.85,285.016 2145.81,285.016 "/>
<path clip-path="url(#clip030)" d="M2172.31 267.736 L2176.98 267.736 L2176.98 298.361 L2193.81 298.361 L2193.81 302.296 L2172.31 302.296 L2172.31 267.736 Z" fill="#000000" fill-rule="nonzero" fill-opacity="1" /><path clip-path="url(#clip030)" d="M2207.74 279.357 Q2204.32 279.357 2202.33 282.042 Q2200.34 284.704 2200.34 289.357 Q2200.34 294.009 2202.31 296.694 Q2204.3 299.356 2207.74 299.356 Q2211.15 299.356 2213.14 296.671 Q2215.13 293.986 2215.13 289.357 Q2215.13 284.75 2213.14 282.065 Q2211.15 279.357 2207.74 279.357 M2207.74 275.746 Q2213.3 275.746 2216.47 279.357 Q2219.64 282.968 2219.64 289.357 Q2219.64 295.722 2216.47 299.356 Q2213.3 302.968 2207.74 302.968 Q2202.17 302.968 2198.99 299.356 Q2195.85 295.722 2195.85 289.357 Q2195.85 282.968 2198.99 279.357 Q2202.17 275.746 2207.74 275.746 Z" fill="#000000" fill-rule="nonzero" fill-opacity="1" /><path clip-path="url(#clip030)" d="M2243.76 289.032 Q2243.76 284.403 2241.84 281.857 Q2239.94 279.31 2236.49 279.31 Q2233.07 279.31 2231.15 281.857 Q2229.25 284.403 2229.25 289.032 Q2229.25 293.639 2231.15 296.185 Q2233.07 298.731 2236.49 298.731 Q2239.94 298.731 2241.84 296.185 Q2243.76 293.639 2243.76 289.032 M2248.02 299.079 Q2248.02 305.699 2245.08 308.917 Q2242.14 312.157 2236.08 312.157 Q2233.83 312.157 2231.84 311.81 Q2229.85 311.486 2227.98 310.792 L2227.98 306.648 Q2229.85 307.667 2231.68 308.153 Q2233.51 308.639 2235.41 308.639 Q2239.6 308.639 2241.68 306.44 Q2243.76 304.264 2243.76 299.843 L2243.76 297.736 Q2242.44 300.028 2240.38 301.162 Q2238.32 302.296 2235.45 302.296 Q2230.68 302.296 2227.77 298.662 Q2224.85 295.028 2224.85 289.032 Q2224.85 283.014 2227.77 279.38 Q2230.68 275.746 2235.45 275.746 Q2238.32 275.746 2240.38 276.88 Q2242.44 278.014 2243.76 280.306 L2243.76 276.371 L2248.02 276.371 L2248.02 299.079 Z" fill="#000000" fill-rule="nonzero" fill-opacity="1" /><path clip-path="url(#clip030)" d="M2254.64 287.412 L2267.12 287.412 L2267.12 291.208 L2254.64 291.208 L2254.64 287.412 Z" fill="#000000" fill-rule="nonzero" fill-opacity="1" /><path clip-path="url(#clip030)" d="M2273.9 266.278 L2278.16 266.278 L2278.16 302.296 L2273.9 302.296 L2273.9 266.278 Z" fill="#000000" fill-rule="nonzero" fill-opacity="1" /><path clip-path="url(#clip030)" d="M2287.07 276.371 L2291.33 276.371 L2291.33 302.296 L2287.07 302.296 L2287.07 276.371 M2287.07 266.278 L2291.33 266.278 L2291.33 271.671 L2287.07 271.671 L2287.07 266.278 Z" fill="#000000" fill-rule="nonzero" fill-opacity="1" /><path clip-path="url(#clip030)" d="M2321.8 286.648 L2321.8 302.296 L2317.54 302.296 L2317.54 286.787 Q2317.54 283.107 2316.1 281.278 Q2314.67 279.449 2311.8 279.449 Q2308.35 279.449 2306.36 281.648 Q2304.36 283.847 2304.36 287.644 L2304.36 302.296 L2300.08 302.296 L2300.08 276.371 L2304.36 276.371 L2304.36 280.398 Q2305.89 278.06 2307.95 276.903 Q2310.04 275.746 2312.74 275.746 Q2317.21 275.746 2319.5 278.523 Q2321.8 281.278 2321.8 286.648 Z" fill="#000000" fill-rule="nonzero" fill-opacity="1" /><path clip-path="url(#clip030)" d="M2330.13 266.278 L2334.41 266.278 L2334.41 287.551 L2347.12 276.371 L2352.56 276.371 L2338.81 288.5 L2353.14 302.296 L2347.58 302.296 L2334.41 289.634 L2334.41 302.296 L2330.13 302.296 L2330.13 266.278 Z" fill="#000000" fill-rule="nonzero" fill-opacity="1" /><path clip-path="url(#clip030)" d="M2373 267.736 L2379.29 267.736 L2394.62 296.648 L2394.62 267.736 L2399.16 267.736 L2399.16 302.296 L2392.86 302.296 L2377.54 273.384 L2377.54 302.296 L2373 302.296 L2373 267.736 Z" fill="#000000" fill-rule="nonzero" fill-opacity="1" /><path clip-path="url(#clip030)" d="M2430.45 288.269 L2430.45 290.352 L2410.87 290.352 Q2411.15 294.75 2413.51 297.065 Q2415.89 299.356 2420.13 299.356 Q2422.58 299.356 2424.87 298.755 Q2427.19 298.153 2429.46 296.949 L2429.46 300.977 Q2427.17 301.949 2424.76 302.458 Q2422.35 302.968 2419.87 302.968 Q2413.67 302.968 2410.04 299.356 Q2406.42 295.745 2406.42 289.588 Q2406.42 283.222 2409.85 279.495 Q2413.3 275.746 2419.13 275.746 Q2424.36 275.746 2427.4 279.125 Q2430.45 282.482 2430.45 288.269 M2426.19 287.019 Q2426.15 283.523 2424.23 281.44 Q2422.33 279.357 2419.18 279.357 Q2415.61 279.357 2413.46 281.37 Q2411.33 283.384 2411.01 287.042 L2426.19 287.019 Z" fill="#000000" fill-rule="nonzero" fill-opacity="1" /><path clip-path="url(#clip030)" d="M2454.5 289.032 Q2454.5 284.403 2452.58 281.857 Q2450.68 279.31 2447.23 279.31 Q2443.81 279.31 2441.89 281.857 Q2439.99 284.403 2439.99 289.032 Q2439.99 293.639 2441.89 296.185 Q2443.81 298.731 2447.23 298.731 Q2450.68 298.731 2452.58 296.185 Q2454.5 293.639 2454.5 289.032 M2458.76 299.079 Q2458.76 305.699 2455.82 308.917 Q2452.88 312.157 2446.82 312.157 Q2444.57 312.157 2442.58 311.81 Q2440.59 311.486 2438.72 310.792 L2438.72 306.648 Q2440.59 307.667 2442.42 308.153 Q2444.25 308.639 2446.15 308.639 Q2450.34 308.639 2452.42 306.44 Q2454.5 304.264 2454.5 299.843 L2454.5 297.736 Q2453.18 300.028 2451.12 301.162 Q2449.06 302.296 2446.19 302.296 Q2441.42 302.296 2438.51 298.662 Q2435.59 295.028 2435.59 289.032 Q2435.59 283.014 2438.51 279.38 Q2441.42 275.746 2446.19 275.746 Q2449.06 275.746 2451.12 276.88 Q2453.18 278.014 2454.5 280.306 L2454.5 276.371 L2458.76 276.371 L2458.76 299.079 Z" fill="#000000" fill-rule="nonzero" fill-opacity="1" /><path clip-path="url(#clip030)" d="M2472.4 285.792 L2472.4 298.454 L2479.9 298.454 Q2483.67 298.454 2485.47 296.903 Q2487.3 295.329 2487.3 292.111 Q2487.3 288.87 2485.47 287.343 Q2483.67 285.792 2479.9 285.792 L2472.4 285.792 M2472.4 271.579 L2472.4 281.995 L2479.32 281.995 Q2482.74 281.995 2484.41 280.722 Q2486.1 279.426 2486.1 276.787 Q2486.1 274.171 2484.41 272.875 Q2482.74 271.579 2479.32 271.579 L2472.4 271.579 M2467.72 267.736 L2479.66 267.736 Q2485.01 267.736 2487.91 269.958 Q2490.8 272.181 2490.8 276.278 Q2490.8 279.449 2489.32 281.324 Q2487.84 283.199 2484.97 283.662 Q2488.41 284.403 2490.31 286.764 Q2492.23 289.102 2492.23 292.62 Q2492.23 297.25 2489.09 299.773 Q2485.94 302.296 2480.13 302.296 L2467.72 302.296 L2467.72 267.736 Z" fill="#000000" fill-rule="nonzero" fill-opacity="1" /><path clip-path="url(#clip030)" d="M2500.06 276.371 L2504.32 276.371 L2504.32 302.296 L2500.06 302.296 L2500.06 276.371 M2500.06 266.278 L2504.32 266.278 L2504.32 271.671 L2500.06 271.671 L2500.06 266.278 Z" fill="#000000" fill-rule="nonzero" fill-opacity="1" /><path clip-path="url(#clip030)" d="M2534.78 286.648 L2534.78 302.296 L2530.52 302.296 L2530.52 286.787 Q2530.52 283.107 2529.09 281.278 Q2527.65 279.449 2524.78 279.449 Q2521.33 279.449 2519.34 281.648 Q2517.35 283.847 2517.35 287.644 L2517.35 302.296 L2513.07 302.296 L2513.07 276.371 L2517.35 276.371 L2517.35 280.398 Q2518.88 278.06 2520.94 276.903 Q2523.02 275.746 2525.73 275.746 Q2530.2 275.746 2532.49 278.523 Q2534.78 281.278 2534.78 286.648 Z" fill="#000000" fill-rule="nonzero" fill-opacity="1" /></svg>
