<?xml version="1.0" encoding="utf-8"?>
<svg xmlns="http://www.w3.org/2000/svg" xmlns:xlink="http://www.w3.org/1999/xlink" width="672" height="480" viewBox="0 0 2688 1920">
<defs>
  <clipPath id="clip480">
    <rect x="0" y="0" width="2688" height="1920"/>
  </clipPath>
</defs>
<path clip-path="url(#clip480)" d="M0 1920 L2688 1920 L2688 -4.26326e-14 L0 -4.26326e-14  Z" fill="#ffffff" fill-rule="evenodd" fill-opacity="1"/>
<defs>
  <clipPath id="clip481">
    <rect x="262" y="127" width="2380" height="1607"/>
  </clipPath>
</defs>
<path clip-path="url(#clip480)" d="M262.251 1734.12 L2640.76 1734.12 L2640.76 127.792 L262.251 127.792  Z" fill="#ffffff" fill-rule="evenodd" fill-opacity="1"/>
<polyline clip-path="url(#clip481)" style="stroke:#000000; stroke-linecap:round; stroke-linejoin:round; stroke-width:2; stroke-opacity:0.1; fill:none" points="329.568,1734.12 329.568,127.792 "/>
<polyline clip-path="url(#clip481)" style="stroke:#000000; stroke-linecap:round; stroke-linejoin:round; stroke-width:2; stroke-opacity:0.1; fill:none" points="797.041,1734.12 797.041,127.792 "/>
<polyline clip-path="url(#clip481)" style="stroke:#000000; stroke-linecap:round; stroke-linejoin:round; stroke-width:2; stroke-opacity:0.1; fill:none" points="1264.51,1734.12 1264.51,127.792 "/>
<polyline clip-path="url(#clip481)" style="stroke:#000000; stroke-linecap:round; stroke-linejoin:round; stroke-width:2; stroke-opacity:0.1; fill:none" points="1731.99,1734.12 1731.99,127.792 "/>
<polyline clip-path="url(#clip481)" style="stroke:#000000; stroke-linecap:round; stroke-linejoin:round; stroke-width:2; stroke-opacity:0.1; fill:none" points="2199.46,1734.12 2199.46,127.792 "/>
<polyline clip-path="url(#clip481)" style="stroke:#000000; stroke-linecap:round; stroke-linejoin:round; stroke-width:2; stroke-opacity:0.1; fill:none" points="262.251,1688.65 2640.76,1688.65 "/>
<polyline clip-path="url(#clip481)" style="stroke:#000000; stroke-linecap:round; stroke-linejoin:round; stroke-width:2; stroke-opacity:0.1; fill:none" points="262.251,1436.24 2640.76,1436.24 "/>
<polyline clip-path="url(#clip481)" style="stroke:#000000; stroke-linecap:round; stroke-linejoin:round; stroke-width:2; stroke-opacity:0.1; fill:none" points="262.251,1183.82 2640.76,1183.82 "/>
<polyline clip-path="url(#clip481)" style="stroke:#000000; stroke-linecap:round; stroke-linejoin:round; stroke-width:2; stroke-opacity:0.1; fill:none" points="262.251,931.405 2640.76,931.405 "/>
<polyline clip-path="url(#clip481)" style="stroke:#000000; stroke-linecap:round; stroke-linejoin:round; stroke-width:2; stroke-opacity:0.1; fill:none" points="262.251,678.988 2640.76,678.988 "/>
<polyline clip-path="url(#clip481)" style="stroke:#000000; stroke-linecap:round; stroke-linejoin:round; stroke-width:2; stroke-opacity:0.1; fill:none" points="262.251,426.571 2640.76,426.571 "/>
<polyline clip-path="url(#clip481)" style="stroke:#000000; stroke-linecap:round; stroke-linejoin:round; stroke-width:2; stroke-opacity:0.1; fill:none" points="262.251,174.154 2640.76,174.154 "/>
<polyline clip-path="url(#clip480)" style="stroke:#000000; stroke-linecap:round; stroke-linejoin:round; stroke-width:4; stroke-opacity:1; fill:none" points="262.251,1734.12 2640.76,1734.12 "/>
<polyline clip-path="url(#clip480)" style="stroke:#000000; stroke-linecap:round; stroke-linejoin:round; stroke-width:4; stroke-opacity:1; fill:none" points="329.568,1734.12 329.568,1715.22 "/>
<polyline clip-path="url(#clip480)" style="stroke:#000000; stroke-linecap:round; stroke-linejoin:round; stroke-width:4; stroke-opacity:1; fill:none" points="797.041,1734.12 797.041,1715.22 "/>
<polyline clip-path="url(#clip480)" style="stroke:#000000; stroke-linecap:round; stroke-linejoin:round; stroke-width:4; stroke-opacity:1; fill:none" points="1264.51,1734.12 1264.51,1715.22 "/>
<polyline clip-path="url(#clip480)" style="stroke:#000000; stroke-linecap:round; stroke-linejoin:round; stroke-width:4; stroke-opacity:1; fill:none" points="1731.99,1734.12 1731.99,1715.22 "/>
<polyline clip-path="url(#clip480)" style="stroke:#000000; stroke-linecap:round; stroke-linejoin:round; stroke-width:4; stroke-opacity:1; fill:none" points="2199.46,1734.12 2199.46,1715.22 "/>
<path clip-path="url(#clip480)" d="M306.952 1767.34 Q303.341 1767.34 301.512 1770.9 Q299.707 1774.45 299.707 1781.58 Q299.707 1788.68 301.512 1792.25 Q303.341 1795.79 306.952 1795.79 Q310.586 1795.79 312.392 1792.25 Q314.22 1788.68 314.22 1781.58 Q314.22 1774.45 312.392 1770.9 Q310.586 1767.34 306.952 1767.34 M306.952 1763.64 Q312.762 1763.64 315.818 1768.24 Q318.896 1772.83 318.896 1781.58 Q318.896 1790.3 315.818 1794.91 Q312.762 1799.49 306.952 1799.49 Q301.142 1799.49 298.063 1794.91 Q295.008 1790.3 295.008 1781.58 Q295.008 1772.83 298.063 1768.24 Q301.142 1763.64 306.952 1763.64 Z" fill="#000000" fill-rule="nonzero" fill-opacity="1" /><path clip-path="url(#clip480)" d="M327.114 1792.94 L331.998 1792.94 L331.998 1798.82 L327.114 1798.82 L327.114 1792.94 Z" fill="#000000" fill-rule="nonzero" fill-opacity="1" /><path clip-path="url(#clip480)" d="M352.183 1767.34 Q348.572 1767.34 346.743 1770.9 Q344.938 1774.45 344.938 1781.58 Q344.938 1788.68 346.743 1792.25 Q348.572 1795.79 352.183 1795.79 Q355.817 1795.79 357.623 1792.25 Q359.452 1788.68 359.452 1781.58 Q359.452 1774.45 357.623 1770.9 Q355.817 1767.34 352.183 1767.34 M352.183 1763.64 Q357.993 1763.64 361.049 1768.24 Q364.128 1772.83 364.128 1781.58 Q364.128 1790.3 361.049 1794.91 Q357.993 1799.49 352.183 1799.49 Q346.373 1799.49 343.294 1794.91 Q340.239 1790.3 340.239 1781.58 Q340.239 1772.83 343.294 1768.24 Q346.373 1763.64 352.183 1763.64 Z" fill="#000000" fill-rule="nonzero" fill-opacity="1" /><path clip-path="url(#clip480)" d="M768.777 1794.89 L785.097 1794.89 L785.097 1798.82 L763.152 1798.82 L763.152 1794.89 Q765.814 1792.13 770.398 1787.5 Q775.004 1782.85 776.185 1781.51 Q778.43 1778.98 779.31 1777.25 Q780.212 1775.49 780.212 1773.8 Q780.212 1771.04 778.268 1769.31 Q776.347 1767.57 773.245 1767.57 Q771.046 1767.57 768.592 1768.34 Q766.162 1769.1 763.384 1770.65 L763.384 1765.93 Q766.208 1764.79 768.662 1764.21 Q771.115 1763.64 773.152 1763.64 Q778.523 1763.64 781.717 1766.32 Q784.911 1769.01 784.911 1773.5 Q784.911 1775.63 784.101 1777.55 Q783.314 1779.45 781.208 1782.04 Q780.629 1782.71 777.527 1785.93 Q774.425 1789.12 768.777 1794.89 Z" fill="#000000" fill-rule="nonzero" fill-opacity="1" /><path clip-path="url(#clip480)" d="M794.911 1792.94 L799.796 1792.94 L799.796 1798.82 L794.911 1798.82 L794.911 1792.94 Z" fill="#000000" fill-rule="nonzero" fill-opacity="1" /><path clip-path="url(#clip480)" d="M810.027 1764.26 L828.383 1764.26 L828.383 1768.2 L814.309 1768.2 L814.309 1776.67 Q815.328 1776.32 816.346 1776.16 Q817.365 1775.97 818.383 1775.97 Q824.17 1775.97 827.55 1779.15 Q830.93 1782.32 830.93 1787.73 Q830.93 1793.31 827.457 1796.41 Q823.985 1799.49 817.666 1799.49 Q815.49 1799.49 813.221 1799.12 Q810.976 1798.75 808.569 1798.01 L808.569 1793.31 Q810.652 1794.45 812.874 1795 Q815.096 1795.56 817.573 1795.56 Q821.578 1795.56 823.916 1793.45 Q826.254 1791.34 826.254 1787.73 Q826.254 1784.12 823.916 1782.02 Q821.578 1779.91 817.573 1779.91 Q815.698 1779.91 813.823 1780.33 Q811.971 1780.74 810.027 1781.62 L810.027 1764.26 Z" fill="#000000" fill-rule="nonzero" fill-opacity="1" /><path clip-path="url(#clip480)" d="M1231.68 1764.26 L1250.04 1764.26 L1250.04 1768.2 L1235.96 1768.2 L1235.96 1776.67 Q1236.98 1776.32 1238 1776.16 Q1239.02 1775.97 1240.04 1775.97 Q1245.82 1775.97 1249.2 1779.15 Q1252.58 1782.32 1252.58 1787.73 Q1252.58 1793.31 1249.11 1796.41 Q1245.64 1799.49 1239.32 1799.49 Q1237.14 1799.49 1234.87 1799.12 Q1232.63 1798.75 1230.22 1798.01 L1230.22 1793.31 Q1232.3 1794.45 1234.53 1795 Q1236.75 1795.56 1239.23 1795.56 Q1243.23 1795.56 1245.57 1793.45 Q1247.91 1791.34 1247.91 1787.73 Q1247.91 1784.12 1245.57 1782.02 Q1243.23 1779.91 1239.23 1779.91 Q1237.35 1779.91 1235.48 1780.33 Q1233.62 1780.74 1231.68 1781.62 L1231.68 1764.26 Z" fill="#000000" fill-rule="nonzero" fill-opacity="1" /><path clip-path="url(#clip480)" d="M1261.79 1792.94 L1266.68 1792.94 L1266.68 1798.82 L1261.79 1798.82 L1261.79 1792.94 Z" fill="#000000" fill-rule="nonzero" fill-opacity="1" /><path clip-path="url(#clip480)" d="M1286.86 1767.34 Q1283.25 1767.34 1281.42 1770.9 Q1279.62 1774.45 1279.62 1781.58 Q1279.62 1788.68 1281.42 1792.25 Q1283.25 1795.79 1286.86 1795.79 Q1290.5 1795.79 1292.3 1792.25 Q1294.13 1788.68 1294.13 1781.58 Q1294.13 1774.45 1292.3 1770.9 Q1290.5 1767.34 1286.86 1767.34 M1286.86 1763.64 Q1292.67 1763.64 1295.73 1768.24 Q1298.81 1772.83 1298.81 1781.58 Q1298.81 1790.3 1295.73 1794.91 Q1292.67 1799.49 1286.86 1799.49 Q1281.05 1799.49 1277.97 1794.91 Q1274.92 1790.3 1274.92 1781.58 Q1274.92 1772.83 1277.97 1768.24 Q1281.05 1763.64 1286.86 1763.64 Z" fill="#000000" fill-rule="nonzero" fill-opacity="1" /><path clip-path="url(#clip480)" d="M1698.31 1764.26 L1720.53 1764.26 L1720.53 1766.25 L1707.98 1798.82 L1703.1 1798.82 L1714.9 1768.2 L1698.31 1768.2 L1698.31 1764.26 Z" fill="#000000" fill-rule="nonzero" fill-opacity="1" /><path clip-path="url(#clip480)" d="M1729.65 1792.94 L1734.53 1792.94 L1734.53 1798.82 L1729.65 1798.82 L1729.65 1792.94 Z" fill="#000000" fill-rule="nonzero" fill-opacity="1" /><path clip-path="url(#clip480)" d="M1744.77 1764.26 L1763.12 1764.26 L1763.12 1768.2 L1749.05 1768.2 L1749.05 1776.67 Q1750.07 1776.32 1751.08 1776.16 Q1752.1 1775.97 1753.12 1775.97 Q1758.91 1775.97 1762.29 1779.15 Q1765.67 1782.32 1765.67 1787.73 Q1765.67 1793.31 1762.2 1796.41 Q1758.72 1799.49 1752.4 1799.49 Q1750.23 1799.49 1747.96 1799.12 Q1745.71 1798.75 1743.31 1798.01 L1743.31 1793.31 Q1745.39 1794.45 1747.61 1795 Q1749.83 1795.56 1752.31 1795.56 Q1756.32 1795.56 1758.65 1793.45 Q1760.99 1791.34 1760.99 1787.73 Q1760.99 1784.12 1758.65 1782.02 Q1756.32 1779.91 1752.31 1779.91 Q1750.44 1779.91 1748.56 1780.33 Q1746.71 1780.74 1744.77 1781.62 L1744.77 1764.26 Z" fill="#000000" fill-rule="nonzero" fill-opacity="1" /><path clip-path="url(#clip480)" d="M2151.53 1794.89 L2159.17 1794.89 L2159.17 1768.52 L2150.86 1770.19 L2150.86 1765.93 L2159.13 1764.26 L2163.8 1764.26 L2163.8 1794.89 L2171.44 1794.89 L2171.44 1798.82 L2151.53 1798.82 L2151.53 1794.89 Z" fill="#000000" fill-rule="nonzero" fill-opacity="1" /><path clip-path="url(#clip480)" d="M2190.88 1767.34 Q2187.27 1767.34 2185.44 1770.9 Q2183.64 1774.45 2183.64 1781.58 Q2183.64 1788.68 2185.44 1792.25 Q2187.27 1795.79 2190.88 1795.79 Q2194.52 1795.79 2196.32 1792.25 Q2198.15 1788.68 2198.15 1781.58 Q2198.15 1774.45 2196.32 1770.9 Q2194.52 1767.34 2190.88 1767.34 M2190.88 1763.64 Q2196.69 1763.64 2199.75 1768.24 Q2202.83 1772.83 2202.83 1781.58 Q2202.83 1790.3 2199.75 1794.91 Q2196.69 1799.49 2190.88 1799.49 Q2185.07 1799.49 2182 1794.91 Q2178.94 1790.3 2178.94 1781.58 Q2178.94 1772.83 2182 1768.24 Q2185.07 1763.64 2190.88 1763.64 Z" fill="#000000" fill-rule="nonzero" fill-opacity="1" /><path clip-path="url(#clip480)" d="M2211.05 1792.94 L2215.93 1792.94 L2215.93 1798.82 L2211.05 1798.82 L2211.05 1792.94 Z" fill="#000000" fill-rule="nonzero" fill-opacity="1" /><path clip-path="url(#clip480)" d="M2236.12 1767.34 Q2232.5 1767.34 2230.68 1770.9 Q2228.87 1774.45 2228.87 1781.58 Q2228.87 1788.68 2230.68 1792.25 Q2232.5 1795.79 2236.12 1795.79 Q2239.75 1795.79 2241.56 1792.25 Q2243.38 1788.68 2243.38 1781.58 Q2243.38 1774.45 2241.56 1770.9 Q2239.75 1767.34 2236.12 1767.34 M2236.12 1763.64 Q2241.93 1763.64 2244.98 1768.24 Q2248.06 1772.83 2248.06 1781.58 Q2248.06 1790.3 2244.98 1794.91 Q2241.93 1799.49 2236.12 1799.49 Q2230.31 1799.49 2227.23 1794.91 Q2224.17 1790.3 2224.17 1781.58 Q2224.17 1772.83 2227.23 1768.24 Q2230.31 1763.64 2236.12 1763.64 Z" fill="#000000" fill-rule="nonzero" fill-opacity="1" /><path clip-path="url(#clip480)" d="M1433.52 1835.78 L1442.18 1835.78 L1463.25 1875.53 L1463.25 1835.78 L1469.49 1835.78 L1469.49 1883.3 L1460.83 1883.3 L1439.76 1843.55 L1439.76 1883.3 L1433.52 1883.3 L1433.52 1835.78 Z" fill="#000000" fill-rule="nonzero" fill-opacity="1" /><polyline clip-path="url(#clip480)" style="stroke:#000000; stroke-linecap:round; stroke-linejoin:round; stroke-width:4; stroke-opacity:1; fill:none" points="262.251,1734.12 262.251,127.792 "/>
<polyline clip-path="url(#clip480)" style="stroke:#000000; stroke-linecap:round; stroke-linejoin:round; stroke-width:4; stroke-opacity:1; fill:none" points="262.251,1688.65 281.149,1688.65 "/>
<polyline clip-path="url(#clip480)" style="stroke:#000000; stroke-linecap:round; stroke-linejoin:round; stroke-width:4; stroke-opacity:1; fill:none" points="262.251,1436.24 281.149,1436.24 "/>
<polyline clip-path="url(#clip480)" style="stroke:#000000; stroke-linecap:round; stroke-linejoin:round; stroke-width:4; stroke-opacity:1; fill:none" points="262.251,1183.82 281.149,1183.82 "/>
<polyline clip-path="url(#clip480)" style="stroke:#000000; stroke-linecap:round; stroke-linejoin:round; stroke-width:4; stroke-opacity:1; fill:none" points="262.251,931.405 281.149,931.405 "/>
<polyline clip-path="url(#clip480)" style="stroke:#000000; stroke-linecap:round; stroke-linejoin:round; stroke-width:4; stroke-opacity:1; fill:none" points="262.251,678.988 281.149,678.988 "/>
<polyline clip-path="url(#clip480)" style="stroke:#000000; stroke-linecap:round; stroke-linejoin:round; stroke-width:4; stroke-opacity:1; fill:none" points="262.251,426.571 281.149,426.571 "/>
<polyline clip-path="url(#clip480)" style="stroke:#000000; stroke-linecap:round; stroke-linejoin:round; stroke-width:4; stroke-opacity:1; fill:none" points="262.251,174.154 281.149,174.154 "/>
<path clip-path="url(#clip480)" d="M116.214 1689.11 L145.89 1689.11 L145.89 1693.04 L116.214 1693.04 L116.214 1689.11 Z" fill="#000000" fill-rule="nonzero" fill-opacity="1" /><path clip-path="url(#clip480)" d="M165.983 1674.45 Q162.372 1674.45 160.543 1678.02 Q158.737 1681.56 158.737 1688.69 Q158.737 1695.8 160.543 1699.36 Q162.372 1702.9 165.983 1702.9 Q169.617 1702.9 171.422 1699.36 Q173.251 1695.8 173.251 1688.69 Q173.251 1681.56 171.422 1678.02 Q169.617 1674.45 165.983 1674.45 M165.983 1670.75 Q171.793 1670.75 174.848 1675.36 Q177.927 1679.94 177.927 1688.69 Q177.927 1697.42 174.848 1702.02 Q171.793 1706.61 165.983 1706.61 Q160.173 1706.61 157.094 1702.02 Q154.038 1697.42 154.038 1688.69 Q154.038 1679.94 157.094 1675.36 Q160.173 1670.75 165.983 1670.75 Z" fill="#000000" fill-rule="nonzero" fill-opacity="1" /><path clip-path="url(#clip480)" d="M186.145 1700.06 L191.029 1700.06 L191.029 1705.93 L186.145 1705.93 L186.145 1700.06 Z" fill="#000000" fill-rule="nonzero" fill-opacity="1" /><path clip-path="url(#clip480)" d="M202.024 1702 L209.663 1702 L209.663 1675.63 L201.353 1677.3 L201.353 1673.04 L209.617 1671.37 L214.293 1671.37 L214.293 1702 L221.931 1702 L221.931 1705.93 L202.024 1705.93 L202.024 1702 Z" fill="#000000" fill-rule="nonzero" fill-opacity="1" /><path clip-path="url(#clip480)" d="M164.756 1422.04 Q161.145 1422.04 159.316 1425.6 Q157.511 1429.14 157.511 1436.27 Q157.511 1443.38 159.316 1446.94 Q161.145 1450.49 164.756 1450.49 Q168.39 1450.49 170.196 1446.94 Q172.024 1443.38 172.024 1436.27 Q172.024 1429.14 170.196 1425.6 Q168.39 1422.04 164.756 1422.04 M164.756 1418.33 Q170.566 1418.33 173.622 1422.94 Q176.7 1427.52 176.7 1436.27 Q176.7 1445 173.622 1449.61 Q170.566 1454.19 164.756 1454.19 Q158.946 1454.19 155.867 1449.61 Q152.811 1445 152.811 1436.27 Q152.811 1427.52 155.867 1422.94 Q158.946 1418.33 164.756 1418.33 Z" fill="#000000" fill-rule="nonzero" fill-opacity="1" /><path clip-path="url(#clip480)" d="M184.918 1447.64 L189.802 1447.64 L189.802 1453.52 L184.918 1453.52 L184.918 1447.64 Z" fill="#000000" fill-rule="nonzero" fill-opacity="1" /><path clip-path="url(#clip480)" d="M209.987 1422.04 Q206.376 1422.04 204.547 1425.6 Q202.742 1429.14 202.742 1436.27 Q202.742 1443.38 204.547 1446.94 Q206.376 1450.49 209.987 1450.49 Q213.621 1450.49 215.427 1446.94 Q217.256 1443.38 217.256 1436.27 Q217.256 1429.14 215.427 1425.6 Q213.621 1422.04 209.987 1422.04 M209.987 1418.33 Q215.797 1418.33 218.853 1422.94 Q221.931 1427.52 221.931 1436.27 Q221.931 1445 218.853 1449.61 Q215.797 1454.19 209.987 1454.19 Q204.177 1454.19 201.098 1449.61 Q198.043 1445 198.043 1436.27 Q198.043 1427.52 201.098 1422.94 Q204.177 1418.33 209.987 1418.33 Z" fill="#000000" fill-rule="nonzero" fill-opacity="1" /><path clip-path="url(#clip480)" d="M165.983 1169.62 Q162.372 1169.62 160.543 1173.18 Q158.737 1176.73 158.737 1183.86 Q158.737 1190.96 160.543 1194.53 Q162.372 1198.07 165.983 1198.07 Q169.617 1198.07 171.422 1194.53 Q173.251 1190.96 173.251 1183.86 Q173.251 1176.73 171.422 1173.18 Q169.617 1169.62 165.983 1169.62 M165.983 1165.92 Q171.793 1165.92 174.848 1170.52 Q177.927 1175.11 177.927 1183.86 Q177.927 1192.58 174.848 1197.19 Q171.793 1201.77 165.983 1201.77 Q160.173 1201.77 157.094 1197.19 Q154.038 1192.58 154.038 1183.86 Q154.038 1175.11 157.094 1170.52 Q160.173 1165.92 165.983 1165.92 Z" fill="#000000" fill-rule="nonzero" fill-opacity="1" /><path clip-path="url(#clip480)" d="M186.145 1195.22 L191.029 1195.22 L191.029 1201.1 L186.145 1201.1 L186.145 1195.22 Z" fill="#000000" fill-rule="nonzero" fill-opacity="1" /><path clip-path="url(#clip480)" d="M202.024 1197.17 L209.663 1197.17 L209.663 1170.8 L201.353 1172.47 L201.353 1168.21 L209.617 1166.54 L214.293 1166.54 L214.293 1197.17 L221.931 1197.17 L221.931 1201.1 L202.024 1201.1 L202.024 1197.17 Z" fill="#000000" fill-rule="nonzero" fill-opacity="1" /><path clip-path="url(#clip480)" d="M166.353 917.203 Q162.742 917.203 160.913 920.768 Q159.108 924.31 159.108 931.439 Q159.108 938.546 160.913 942.111 Q162.742 945.652 166.353 945.652 Q169.987 945.652 171.793 942.111 Q173.622 938.546 173.622 931.439 Q173.622 924.31 171.793 920.768 Q169.987 917.203 166.353 917.203 M166.353 913.5 Q172.163 913.5 175.219 918.106 Q178.297 922.689 178.297 931.439 Q178.297 940.166 175.219 944.773 Q172.163 949.356 166.353 949.356 Q160.543 949.356 157.464 944.773 Q154.409 940.166 154.409 931.439 Q154.409 922.689 157.464 918.106 Q160.543 913.5 166.353 913.5 Z" fill="#000000" fill-rule="nonzero" fill-opacity="1" /><path clip-path="url(#clip480)" d="M186.515 942.805 L191.399 942.805 L191.399 948.685 L186.515 948.685 L186.515 942.805 Z" fill="#000000" fill-rule="nonzero" fill-opacity="1" /><path clip-path="url(#clip480)" d="M205.612 944.75 L221.931 944.75 L221.931 948.685 L199.987 948.685 L199.987 944.75 Q202.649 941.995 207.232 937.365 Q211.839 932.713 213.019 931.37 Q215.265 928.847 216.144 927.111 Q217.047 925.351 217.047 923.662 Q217.047 920.907 215.103 919.171 Q213.182 917.435 210.08 917.435 Q207.881 917.435 205.427 918.199 Q202.996 918.963 200.219 920.514 L200.219 915.791 Q203.043 914.657 205.496 914.078 Q207.95 913.5 209.987 913.5 Q215.357 913.5 218.552 916.185 Q221.746 918.87 221.746 923.361 Q221.746 925.49 220.936 927.412 Q220.149 929.31 218.043 931.902 Q217.464 932.574 214.362 935.791 Q211.26 938.986 205.612 944.75 Z" fill="#000000" fill-rule="nonzero" fill-opacity="1" /><path clip-path="url(#clip480)" d="M165.404 664.787 Q161.793 664.787 159.964 668.351 Q158.159 671.893 158.159 679.023 Q158.159 686.129 159.964 689.694 Q161.793 693.236 165.404 693.236 Q169.038 693.236 170.844 689.694 Q172.672 686.129 172.672 679.023 Q172.672 671.893 170.844 668.351 Q169.038 664.787 165.404 664.787 M165.404 661.083 Q171.214 661.083 174.27 665.689 Q177.348 670.273 177.348 679.023 Q177.348 687.749 174.27 692.356 Q171.214 696.939 165.404 696.939 Q159.594 696.939 156.515 692.356 Q153.46 687.749 153.46 679.023 Q153.46 670.273 156.515 665.689 Q159.594 661.083 165.404 661.083 Z" fill="#000000" fill-rule="nonzero" fill-opacity="1" /><path clip-path="url(#clip480)" d="M185.566 690.388 L190.45 690.388 L190.45 696.268 L185.566 696.268 L185.566 690.388 Z" fill="#000000" fill-rule="nonzero" fill-opacity="1" /><path clip-path="url(#clip480)" d="M214.802 677.634 Q218.158 678.351 220.033 680.62 Q221.931 682.888 221.931 686.222 Q221.931 691.337 218.413 694.138 Q214.894 696.939 208.413 696.939 Q206.237 696.939 203.922 696.499 Q201.631 696.083 199.177 695.226 L199.177 690.712 Q201.121 691.847 203.436 692.425 Q205.751 693.004 208.274 693.004 Q212.672 693.004 214.964 691.268 Q217.279 689.532 217.279 686.222 Q217.279 683.166 215.126 681.453 Q212.996 679.717 209.177 679.717 L205.149 679.717 L205.149 675.875 L209.362 675.875 Q212.811 675.875 214.64 674.509 Q216.469 673.12 216.469 670.527 Q216.469 667.865 214.57 666.453 Q212.695 665.018 209.177 665.018 Q207.256 665.018 205.057 665.435 Q202.857 665.851 200.219 666.731 L200.219 662.564 Q202.881 661.824 205.195 661.453 Q207.533 661.083 209.594 661.083 Q214.918 661.083 218.019 663.513 Q221.121 665.921 221.121 670.041 Q221.121 672.912 219.478 674.902 Q217.834 676.87 214.802 677.634 Z" fill="#000000" fill-rule="nonzero" fill-opacity="1" /><path clip-path="url(#clip480)" d="M164.27 412.37 Q160.659 412.37 158.83 415.935 Q157.024 419.476 157.024 426.606 Q157.024 433.712 158.83 437.277 Q160.659 440.819 164.27 440.819 Q167.904 440.819 169.71 437.277 Q171.538 433.712 171.538 426.606 Q171.538 419.476 169.71 415.935 Q167.904 412.37 164.27 412.37 M164.27 408.666 Q170.08 408.666 173.135 413.273 Q176.214 417.856 176.214 426.606 Q176.214 435.333 173.135 439.939 Q170.08 444.522 164.27 444.522 Q158.46 444.522 155.381 439.939 Q152.325 435.333 152.325 426.606 Q152.325 417.856 155.381 413.273 Q158.46 408.666 164.27 408.666 Z" fill="#000000" fill-rule="nonzero" fill-opacity="1" /><path clip-path="url(#clip480)" d="M184.432 437.972 L189.316 437.972 L189.316 443.851 L184.432 443.851 L184.432 437.972 Z" fill="#000000" fill-rule="nonzero" fill-opacity="1" /><path clip-path="url(#clip480)" d="M212.348 413.365 L200.543 431.814 L212.348 431.814 L212.348 413.365 M211.121 409.291 L217.001 409.291 L217.001 431.814 L221.931 431.814 L221.931 435.703 L217.001 435.703 L217.001 443.851 L212.348 443.851 L212.348 435.703 L196.746 435.703 L196.746 431.189 L211.121 409.291 Z" fill="#000000" fill-rule="nonzero" fill-opacity="1" /><path clip-path="url(#clip480)" d="M165.751 159.953 Q162.14 159.953 160.311 163.518 Q158.506 167.06 158.506 174.189 Q158.506 181.296 160.311 184.86 Q162.14 188.402 165.751 188.402 Q169.385 188.402 171.191 184.86 Q173.02 181.296 173.02 174.189 Q173.02 167.06 171.191 163.518 Q169.385 159.953 165.751 159.953 M165.751 156.249 Q171.561 156.249 174.617 160.856 Q177.696 165.439 177.696 174.189 Q177.696 182.916 174.617 187.522 Q171.561 192.106 165.751 192.106 Q159.941 192.106 156.862 187.522 Q153.807 182.916 153.807 174.189 Q153.807 165.439 156.862 160.856 Q159.941 156.249 165.751 156.249 Z" fill="#000000" fill-rule="nonzero" fill-opacity="1" /><path clip-path="url(#clip480)" d="M185.913 185.555 L190.797 185.555 L190.797 191.434 L185.913 191.434 L185.913 185.555 Z" fill="#000000" fill-rule="nonzero" fill-opacity="1" /><path clip-path="url(#clip480)" d="M201.029 156.874 L219.385 156.874 L219.385 160.81 L205.311 160.81 L205.311 169.282 Q206.33 168.935 207.348 168.773 Q208.367 168.587 209.385 168.587 Q215.172 168.587 218.552 171.759 Q221.931 174.93 221.931 180.347 Q221.931 185.925 218.459 189.027 Q214.987 192.106 208.668 192.106 Q206.492 192.106 204.223 191.735 Q201.978 191.365 199.57 190.624 L199.57 185.925 Q201.654 187.059 203.876 187.615 Q206.098 188.171 208.575 188.171 Q212.58 188.171 214.918 186.064 Q217.256 183.958 217.256 180.347 Q217.256 176.735 214.918 174.629 Q212.58 172.522 208.575 172.522 Q206.7 172.522 204.825 172.939 Q202.973 173.356 201.029 174.235 L201.029 156.874 Z" fill="#000000" fill-rule="nonzero" fill-opacity="1" /><path clip-path="url(#clip480)" d="M31.465 967.526 Q30.8921 968.512 30.6375 969.69 Q30.351 970.836 30.351 972.236 Q30.351 977.201 33.5975 979.875 Q36.8122 982.517 42.8596 982.517 L61.6384 982.517 L61.6384 988.405 L25.9905 988.405 L25.9905 982.517 L31.5287 982.517 Q28.2821 980.671 26.7225 977.711 Q25.1311 974.751 25.1311 970.517 Q25.1311 969.913 25.2266 969.181 Q25.2903 968.449 25.4494 967.557 L31.465 967.526 Z" fill="#000000" fill-rule="nonzero" fill-opacity="1" /><path clip-path="url(#clip480)" d="M12.1769 947.314 Q19.4975 951.579 26.6589 953.648 Q33.8203 955.717 41.1727 955.717 Q48.5251 955.717 55.7502 953.648 Q62.9434 951.548 70.2321 947.314 L70.2321 952.407 Q62.7524 957.181 55.5274 959.568 Q48.3023 961.924 41.1727 961.924 Q34.0749 961.924 26.8817 959.568 Q19.6884 957.213 12.1769 952.407 L12.1769 947.314 Z" fill="#000000" fill-rule="nonzero" fill-opacity="1" /><path clip-path="url(#clip480)" d="M14.1184 935.697 L14.1184 927.04 L53.8723 905.969 L14.1184 905.969 L14.1184 899.731 L61.6384 899.731 L61.6384 908.388 L21.8846 929.459 L61.6384 929.459 L61.6384 935.697 L14.1184 935.697 Z" fill="#000000" fill-rule="nonzero" fill-opacity="1" /><path clip-path="url(#clip480)" d="M12.1769 888.113 L12.1769 883.021 Q19.6884 878.247 26.8817 875.891 Q34.0749 873.504 41.1727 873.504 Q48.3023 873.504 55.5274 875.891 Q62.7524 878.247 70.2321 883.021 L70.2321 888.113 Q62.9434 883.88 55.7502 881.811 Q48.5251 879.711 41.1727 879.711 Q33.8203 879.711 26.6589 881.811 Q19.4975 883.88 12.1769 888.113 Z" fill="#000000" fill-rule="nonzero" fill-opacity="1" /><path clip-path="url(#clip480)" d="M946.194 12.096 L984.434 12.096 L984.434 18.9825 L954.377 18.9825 L954.377 36.8875 L983.179 36.8875 L983.179 43.7741 L954.377 43.7741 L954.377 65.6895 L985.164 65.6895 L985.164 72.576 L946.194 72.576 L946.194 12.096 Z" fill="#000000" fill-rule="nonzero" fill-opacity="1" /><path clip-path="url(#clip480)" d="M1021.26 9.54393 L1021.26 15.7418 L1014.13 15.7418 Q1010.12 15.7418 1008.54 17.3622 Q1007 18.9825 1007 23.1955 L1007 27.2059 L1019.27 27.2059 L1019.27 32.9987 L1007 32.9987 L1007 72.576 L999.504 72.576 L999.504 32.9987 L992.374 32.9987 L992.374 27.2059 L999.504 27.2059 L999.504 24.0462 Q999.504 16.471 1003.03 13.0277 Q1006.55 9.54393 1014.21 9.54393 L1021.26 9.54393 Z" fill="#000000" fill-rule="nonzero" fill-opacity="1" /><path clip-path="url(#clip480)" d="M1050.46 9.54393 L1050.46 15.7418 L1043.33 15.7418 Q1039.32 15.7418 1037.74 17.3622 Q1036.2 18.9825 1036.2 23.1955 L1036.2 27.2059 L1048.48 27.2059 L1048.48 32.9987 L1036.2 32.9987 L1036.2 72.576 L1028.71 72.576 L1028.71 32.9987 L1021.58 32.9987 L1021.58 27.2059 L1028.71 27.2059 L1028.71 24.0462 Q1028.71 16.471 1032.24 13.0277 Q1035.76 9.54393 1043.42 9.54393 L1050.46 9.54393 Z" fill="#000000" fill-rule="nonzero" fill-opacity="1" /><path clip-path="url(#clip480)" d="M1095.51 48.0275 L1095.51 51.6733 L1061.24 51.6733 Q1061.73 59.3701 1065.86 63.421 Q1070.03 67.4314 1077.44 67.4314 Q1081.74 67.4314 1085.75 66.3781 Q1089.8 65.3249 1093.77 63.2184 L1093.77 70.267 Q1089.76 71.9684 1085.55 72.8596 Q1081.33 73.7508 1077 73.7508 Q1066.14 73.7508 1059.78 67.4314 Q1053.46 61.1119 1053.46 50.3365 Q1053.46 39.1965 1059.46 32.6746 Q1065.49 26.1121 1075.7 26.1121 Q1084.86 26.1121 1090.16 32.0264 Q1095.51 37.9003 1095.51 48.0275 M1088.06 45.84 Q1087.98 39.7232 1084.61 36.0774 Q1081.29 32.4315 1075.78 32.4315 Q1069.54 32.4315 1065.78 35.9558 Q1062.05 39.4801 1061.48 45.8805 L1088.06 45.84 Z" fill="#000000" fill-rule="nonzero" fill-opacity="1" /><path clip-path="url(#clip480)" d="M1140.39 28.9478 L1140.39 35.9153 Q1137.23 34.1734 1134.03 33.3227 Q1130.87 32.4315 1127.63 32.4315 Q1120.38 32.4315 1116.37 37.0496 Q1112.36 41.6271 1112.36 49.9314 Q1112.36 58.2358 1116.37 62.8538 Q1120.38 67.4314 1127.63 67.4314 Q1130.87 67.4314 1134.03 66.5807 Q1137.23 65.6895 1140.39 63.9476 L1140.39 70.8341 Q1137.28 72.2924 1133.91 73.0216 Q1130.59 73.7508 1126.82 73.7508 Q1116.57 73.7508 1110.54 67.3098 Q1104.5 60.8689 1104.5 49.9314 Q1104.5 38.832 1110.58 32.472 Q1116.7 26.1121 1127.31 26.1121 Q1130.75 26.1121 1134.03 26.8413 Q1137.32 27.5299 1140.39 28.9478 Z" fill="#000000" fill-rule="nonzero" fill-opacity="1" /><path clip-path="url(#clip480)" d="M1160.73 14.324 L1160.73 27.2059 L1176.08 27.2059 L1176.08 32.9987 L1160.73 32.9987 L1160.73 57.6282 Q1160.73 63.1779 1162.23 64.7578 Q1163.77 66.3376 1168.43 66.3376 L1176.08 66.3376 L1176.08 72.576 L1168.43 72.576 Q1159.8 72.576 1156.52 69.3758 Q1153.24 66.1351 1153.24 57.6282 L1153.24 32.9987 L1147.77 32.9987 L1147.77 27.2059 L1153.24 27.2059 L1153.24 14.324 L1160.73 14.324 Z" fill="#000000" fill-rule="nonzero" fill-opacity="1" /><path clip-path="url(#clip480)" d="M1229.84 32.4315 Q1223.84 32.4315 1220.36 37.1306 Q1216.88 41.7891 1216.88 49.9314 Q1216.88 58.0738 1220.32 62.7728 Q1223.8 67.4314 1229.84 67.4314 Q1235.79 67.4314 1239.28 62.7323 Q1242.76 58.0333 1242.76 49.9314 Q1242.76 41.8701 1239.28 37.1711 Q1235.79 32.4315 1229.84 32.4315 M1229.84 26.1121 Q1239.56 26.1121 1245.11 32.4315 Q1250.66 38.7509 1250.66 49.9314 Q1250.66 61.0714 1245.11 67.4314 Q1239.56 73.7508 1229.84 73.7508 Q1220.08 73.7508 1214.53 67.4314 Q1209.02 61.0714 1209.02 49.9314 Q1209.02 38.7509 1214.53 32.4315 Q1220.08 26.1121 1229.84 26.1121 Z" fill="#000000" fill-rule="nonzero" fill-opacity="1" /><path clip-path="url(#clip480)" d="M1285.98 9.54393 L1285.98 15.7418 L1278.85 15.7418 Q1274.84 15.7418 1273.26 17.3622 Q1271.72 18.9825 1271.72 23.1955 L1271.72 27.2059 L1284 27.2059 L1284 32.9987 L1271.72 32.9987 L1271.72 72.576 L1264.23 72.576 L1264.23 32.9987 L1257.1 32.9987 L1257.1 27.2059 L1264.23 27.2059 L1264.23 24.0462 Q1264.23 16.471 1267.75 13.0277 Q1271.28 9.54393 1278.94 9.54393 L1285.98 9.54393 Z" fill="#000000" fill-rule="nonzero" fill-opacity="1" /><path clip-path="url(#clip480)" d="M1325.4 34.3355 L1335.32 62.3677 L1349.5 27.2059 L1357.4 27.2059 L1339.05 72.576 L1339.05 89.8329 L1331.6 89.8329 L1331.6 72.576 L1319.69 38.7104 Q1317.9 33.6063 1314.06 33.6063 L1312.07 33.6063 L1312.07 27.2059 L1314.91 27.2059 Q1322.89 27.2059 1325.4 34.3355 Z" fill="#000000" fill-rule="nonzero" fill-opacity="1" /><path clip-path="url(#clip480)" d="M1411.64 32.4315 Q1405.65 32.4315 1402.16 37.1306 Q1398.68 41.7891 1398.68 49.9314 Q1398.68 58.0738 1402.12 62.7728 Q1405.61 67.4314 1411.64 67.4314 Q1417.6 67.4314 1421.08 62.7323 Q1424.57 58.0333 1424.57 49.9314 Q1424.57 41.8701 1421.08 37.1711 Q1417.6 32.4315 1411.64 32.4315 M1411.64 26.1121 Q1421.36 26.1121 1426.91 32.4315 Q1432.46 38.7509 1432.46 49.9314 Q1432.46 61.0714 1426.91 67.4314 Q1421.36 73.7508 1411.64 73.7508 Q1401.88 73.7508 1396.33 67.4314 Q1390.82 61.0714 1390.82 49.9314 Q1390.82 38.7509 1396.33 32.4315 Q1401.88 26.1121 1411.64 26.1121 Z" fill="#000000" fill-rule="nonzero" fill-opacity="1" /><path clip-path="url(#clip480)" d="M1482.53 45.1919 L1482.53 72.576 L1475.08 72.576 L1475.08 45.4349 Q1475.08 38.994 1472.57 35.7938 Q1470.06 32.5936 1465.03 32.5936 Q1459 32.5936 1455.51 36.4419 Q1452.03 40.2903 1452.03 46.9338 L1452.03 72.576 L1444.54 72.576 L1444.54 27.2059 L1452.03 27.2059 L1452.03 34.2544 Q1454.7 30.163 1458.31 28.1376 Q1461.96 26.1121 1466.69 26.1121 Q1474.51 26.1121 1478.52 30.9732 Q1482.53 35.7938 1482.53 45.1919 Z" fill="#000000" fill-rule="nonzero" fill-opacity="1" /><path clip-path="url(#clip480)" d="M1560.35 14.0809 L1560.35 22.0612 Q1555.69 19.8332 1551.56 18.7395 Q1547.43 17.6457 1543.58 17.6457 Q1536.9 17.6457 1533.25 20.2383 Q1529.65 22.8309 1529.65 27.611 Q1529.65 31.6214 1532.04 33.6873 Q1534.47 35.7128 1541.19 36.9686 L1546.13 37.9813 Q1555.29 39.7232 1559.62 44.1387 Q1564 48.5136 1564 55.8863 Q1564 64.6767 1558.08 69.2137 Q1552.21 73.7508 1540.83 73.7508 Q1536.53 73.7508 1531.67 72.7785 Q1526.85 71.8063 1521.67 69.9024 L1521.67 61.4765 Q1526.65 64.2716 1531.43 65.6895 Q1536.21 67.1073 1540.83 67.1073 Q1547.83 67.1073 1551.64 64.3527 Q1555.45 61.598 1555.45 56.4939 Q1555.45 52.0379 1552.7 49.5264 Q1549.98 47.0148 1543.74 45.759 L1538.76 44.7868 Q1529.61 42.9639 1525.51 39.075 Q1521.42 35.1862 1521.42 28.2591 Q1521.42 20.2383 1527.05 15.6203 Q1532.72 11.0023 1542.65 11.0023 Q1546.9 11.0023 1551.32 11.7719 Q1555.73 12.5416 1560.35 14.0809 Z" fill="#000000" fill-rule="nonzero" fill-opacity="1" /><path clip-path="url(#clip480)" d="M1611.76 35.9153 Q1614.55 30.8922 1618.44 28.5022 Q1622.33 26.1121 1627.6 26.1121 Q1634.69 26.1121 1638.53 31.0947 Q1642.38 36.0368 1642.38 45.1919 L1642.38 72.576 L1634.89 72.576 L1634.89 45.4349 Q1634.89 38.913 1632.58 35.7533 Q1630.27 32.5936 1625.53 32.5936 Q1619.74 32.5936 1616.38 36.4419 Q1613.01 40.2903 1613.01 46.9338 L1613.01 72.576 L1605.52 72.576 L1605.52 45.4349 Q1605.52 38.8725 1603.21 35.7533 Q1600.9 32.5936 1596.08 32.5936 Q1590.37 32.5936 1587.01 36.4824 Q1583.64 40.3308 1583.64 46.9338 L1583.64 72.576 L1576.15 72.576 L1576.15 27.2059 L1583.64 27.2059 L1583.64 34.2544 Q1586.2 30.082 1589.76 28.0971 Q1593.33 26.1121 1598.23 26.1121 Q1603.17 26.1121 1606.61 28.6237 Q1610.1 31.1352 1611.76 35.9153 Z" fill="#000000" fill-rule="nonzero" fill-opacity="1" /><path clip-path="url(#clip480)" d="M1674.83 32.4315 Q1668.83 32.4315 1665.35 37.1306 Q1661.87 41.7891 1661.87 49.9314 Q1661.87 58.0738 1665.31 62.7728 Q1668.79 67.4314 1674.83 67.4314 Q1680.78 67.4314 1684.27 62.7323 Q1687.75 58.0333 1687.75 49.9314 Q1687.75 41.8701 1684.27 37.1711 Q1680.78 32.4315 1674.83 32.4315 M1674.83 26.1121 Q1684.55 26.1121 1690.1 32.4315 Q1695.65 38.7509 1695.65 49.9314 Q1695.65 61.0714 1690.1 67.4314 Q1684.55 73.7508 1674.83 73.7508 Q1665.07 73.7508 1659.52 67.4314 Q1654.01 61.0714 1654.01 49.9314 Q1654.01 38.7509 1659.52 32.4315 Q1665.07 26.1121 1674.83 26.1121 Z" fill="#000000" fill-rule="nonzero" fill-opacity="1" /><path clip-path="url(#clip480)" d="M1725.59 32.4315 Q1719.59 32.4315 1716.11 37.1306 Q1712.62 41.7891 1712.62 49.9314 Q1712.62 58.0738 1716.07 62.7728 Q1719.55 67.4314 1725.59 67.4314 Q1731.54 67.4314 1735.03 62.7323 Q1738.51 58.0333 1738.51 49.9314 Q1738.51 41.8701 1735.03 37.1711 Q1731.54 32.4315 1725.59 32.4315 M1725.59 26.1121 Q1735.31 26.1121 1740.86 32.4315 Q1746.41 38.7509 1746.41 49.9314 Q1746.41 61.0714 1740.86 67.4314 Q1735.31 73.7508 1725.59 73.7508 Q1715.83 73.7508 1710.28 67.4314 Q1704.77 61.0714 1704.77 49.9314 Q1704.77 38.7509 1710.28 32.4315 Q1715.83 26.1121 1725.59 26.1121 Z" fill="#000000" fill-rule="nonzero" fill-opacity="1" /><path clip-path="url(#clip480)" d="M1766.14 14.324 L1766.14 27.2059 L1781.49 27.2059 L1781.49 32.9987 L1766.14 32.9987 L1766.14 57.6282 Q1766.14 63.1779 1767.64 64.7578 Q1769.18 66.3376 1773.83 66.3376 L1781.49 66.3376 L1781.49 72.576 L1773.83 72.576 Q1765.21 72.576 1761.92 69.3758 Q1758.64 66.1351 1758.64 57.6282 L1758.64 32.9987 L1753.17 32.9987 L1753.17 27.2059 L1758.64 27.2059 L1758.64 14.324 L1766.14 14.324 Z" fill="#000000" fill-rule="nonzero" fill-opacity="1" /><path clip-path="url(#clip480)" d="M1829.01 45.1919 L1829.01 72.576 L1821.55 72.576 L1821.55 45.4349 Q1821.55 38.994 1819.04 35.7938 Q1816.53 32.5936 1811.51 32.5936 Q1805.47 32.5936 1801.99 36.4419 Q1798.5 40.2903 1798.5 46.9338 L1798.5 72.576 L1791.01 72.576 L1791.01 9.54393 L1798.5 9.54393 L1798.5 34.2544 Q1801.18 30.163 1804.78 28.1376 Q1808.43 26.1121 1813.17 26.1121 Q1820.99 26.1121 1825 30.9732 Q1829.01 35.7938 1829.01 45.1919 Z" fill="#000000" fill-rule="nonzero" fill-opacity="1" /><path clip-path="url(#clip480)" d="M1843.87 27.2059 L1851.33 27.2059 L1851.33 72.576 L1843.87 72.576 L1843.87 27.2059 M1843.87 9.54393 L1851.33 9.54393 L1851.33 18.9825 L1843.87 18.9825 L1843.87 9.54393 Z" fill="#000000" fill-rule="nonzero" fill-opacity="1" /><path clip-path="url(#clip480)" d="M1904.64 45.1919 L1904.64 72.576 L1897.18 72.576 L1897.18 45.4349 Q1897.18 38.994 1894.67 35.7938 Q1892.16 32.5936 1887.14 32.5936 Q1881.1 32.5936 1877.62 36.4419 Q1874.13 40.2903 1874.13 46.9338 L1874.13 72.576 L1866.64 72.576 L1866.64 27.2059 L1874.13 27.2059 L1874.13 34.2544 Q1876.81 30.163 1880.41 28.1376 Q1884.06 26.1121 1888.8 26.1121 Q1896.62 26.1121 1900.63 30.9732 Q1904.64 35.7938 1904.64 45.1919 Z" fill="#000000" fill-rule="nonzero" fill-opacity="1" /><path clip-path="url(#clip480)" d="M1949.36 49.3643 Q1949.36 41.2625 1946 36.8065 Q1942.68 32.3505 1936.64 32.3505 Q1930.64 32.3505 1927.28 36.8065 Q1923.96 41.2625 1923.96 49.3643 Q1923.96 57.4256 1927.28 61.8816 Q1930.64 66.3376 1936.64 66.3376 Q1942.68 66.3376 1946 61.8816 Q1949.36 57.4256 1949.36 49.3643 M1956.81 66.9452 Q1956.81 78.5308 1951.67 84.1616 Q1946.52 89.8329 1935.91 89.8329 Q1931.98 89.8329 1928.5 89.2252 Q1925.01 88.6581 1921.73 87.4428 L1921.73 80.1917 Q1925.01 81.9741 1928.21 82.8248 Q1931.41 83.6755 1934.74 83.6755 Q1942.07 83.6755 1945.71 79.8271 Q1949.36 76.0193 1949.36 68.282 L1949.36 64.5957 Q1947.05 68.6061 1943.45 70.5911 Q1939.84 72.576 1934.82 72.576 Q1926.47 72.576 1921.37 66.2161 Q1916.26 59.8562 1916.26 49.3643 Q1916.26 38.832 1921.37 32.472 Q1926.47 26.1121 1934.82 26.1121 Q1939.84 26.1121 1943.45 28.0971 Q1947.05 30.082 1949.36 34.0924 L1949.36 27.2059 L1956.81 27.2059 L1956.81 66.9452 Z" fill="#000000" fill-rule="nonzero" fill-opacity="1" /><polyline clip-path="url(#clip481)" style="stroke:#000000; stroke-linecap:round; stroke-linejoin:round; stroke-width:8; stroke-opacity:1; fill:none" points="329.568,174.154 352.233,189.452 374.898,204.75 397.564,220.048 420.229,235.346 442.895,250.644 465.56,265.942 488.225,281.24 510.891,296.538 533.556,311.836 556.221,327.134 578.887,342.432 601.552,357.73 624.218,373.028 646.883,388.326 669.548,403.624 692.214,418.922 714.879,434.22 737.544,449.518 760.21,464.816 782.875,480.114 805.541,495.412 828.206,510.71 850.871,526.008 873.537,541.306 896.202,556.604 918.867,571.902 941.533,587.2 964.198,602.498 986.864,617.796 1009.53,633.094 1032.19,648.392 1054.86,663.69 1077.53,678.988 1100.19,694.286 1122.86,709.584 1145.52,724.882 1168.19,740.18 1190.85,755.478 1213.52,770.776 1236.18,786.074 1258.85,801.372 1281.51,816.67 1304.18,831.968 1326.84,847.266 1349.51,862.564 1372.17,877.862 1394.84,893.16 1417.51,908.458 1440.17,923.756 1462.84,939.054 1485.5,954.352 1508.17,969.65 1530.83,984.948 1553.5,1000.25 1576.16,1015.54 1598.83,1030.84 1621.49,1046.14 1644.16,1061.44 1666.82,1076.74 1689.49,1092.03 1712.16,1107.33 1734.82,1122.63 1757.49,1137.93 1780.15,1153.23 1802.82,1168.52 1825.48,1183.82 1848.15,1199.12 1870.81,1214.42 1893.48,1229.72 1916.14,1245.01 1938.81,1260.31 1961.47,1275.61 1984.14,1290.91 2006.81,1306.21 2029.47,1321.5 2052.14,1336.8 2074.8,1352.1 2097.47,1367.4 2120.13,1382.7 2142.8,1397.99 2165.46,1413.29 2188.13,1428.59 2210.79,1443.89 2233.46,1459.19 2256.12,1474.48 2278.79,1489.78 2301.46,1505.08 2324.12,1520.38 2346.79,1535.68 2369.45,1550.97 2392.12,1566.27 2414.78,1581.57 2437.45,1596.87 2460.11,1612.17 2482.78,1627.46 2505.44,1642.76 2528.11,1658.06 2550.77,1673.36 2573.44,1688.65 "/>
<polyline clip-path="url(#clip481)" style="stroke:#e26f46; stroke-linecap:round; stroke-linejoin:round; stroke-width:8; stroke-opacity:1; fill:none" points="329.568,378.73 352.233,381.485 374.898,384.236 397.564,386.979 420.229,389.709 442.895,392.422 465.56,395.115 488.225,397.783 510.891,400.422 533.556,403.027 556.221,405.596 578.887,408.123 601.552,410.604 624.218,413.036 646.883,415.414 669.548,417.752 692.214,420.18 714.879,422.87 737.544,425.996 760.21,429.73 782.875,434.245 805.541,439.715 828.206,446.311 850.871,454.208 873.537,463.577 896.202,474.592 918.867,487.426 941.533,502.251 964.198,519.241 986.864,538.537 1009.53,559.981 1032.19,583.244 1054.86,607.994 1077.53,633.898 1100.19,660.626 1122.86,687.845 1145.52,715.225 1168.19,742.433 1190.85,769.138 1213.52,795.009 1236.18,819.713 1258.85,842.919 1281.51,864.295 1304.18,883.528 1326.84,900.601 1349.51,915.744 1372.17,929.197 1394.84,941.196 1417.51,951.98 1440.17,961.787 1462.84,970.855 1485.5,979.422 1508.17,987.726 1530.83,996.006 1553.5,1004.5 1576.16,1013.44 1598.83,1023.08 1621.49,1033.63 1644.16,1045.21 1666.82,1057.74 1689.49,1071.15 1712.16,1085.37 1734.82,1100.31 1757.49,1115.9 1780.15,1132.06 1802.82,1148.73 1825.48,1165.81 1848.15,1183.25 1870.81,1200.95 1893.48,1218.84 1916.14,1236.86 1938.81,1254.91 1961.47,1272.92 1984.14,1290.73 2006.81,1308.23 2029.47,1325.27 2052.14,1341.72 2074.8,1357.45 2097.47,1372.32 2120.13,1386.19 2142.8,1398.94 2165.46,1410.43 2188.13,1420.52 2210.79,1429.08 2233.46,1435.97 2256.12,1441.06 2278.79,1444.28 2301.46,1445.74 2324.12,1445.58 2346.79,1443.92 2369.45,1440.92 2392.12,1436.69 2414.78,1431.37 2437.45,1425.11 2460.11,1418.04 2482.78,1410.29 2505.44,1401.99 2528.11,1393.3 2550.77,1384.32 2573.44,1375.22 "/>
<polyline clip-path="url(#clip481)" style="stroke:#3da44d; stroke-linecap:round; stroke-linejoin:round; stroke-width:8; stroke-opacity:1; fill:none" points="329.568,173.256 352.233,188.547 374.898,203.838 397.564,219.129 420.229,234.421 442.895,249.712 465.56,265.003 488.225,280.295 510.891,295.586 533.556,310.877 556.221,326.168 578.887,341.46 601.552,356.751 624.218,372.042 646.883,387.334 669.548,402.625 692.214,417.916 714.879,433.207 737.544,448.499 760.21,463.79 782.875,479.081 805.541,494.373 828.206,509.664 850.871,524.955 873.537,540.246 896.202,555.538 918.867,570.829 941.533,586.12 964.198,601.412 986.864,616.703 1009.53,631.994 1032.19,647.285 1054.86,662.577 1077.53,677.868 1100.19,693.159 1122.86,708.45 1145.52,723.742 1168.19,739.033 1190.85,754.324 1213.52,769.616 1236.18,784.907 1258.85,800.198 1281.51,815.489 1304.18,830.781 1326.84,846.072 1349.51,861.363 1372.17,876.655 1394.84,891.946 1417.51,907.237 1440.17,922.528 1462.84,937.82 1485.5,953.111 1508.17,968.402 1530.83,983.694 1553.5,998.985 1576.16,1014.28 1598.83,1029.57 1621.49,1044.86 1644.16,1060.15 1666.82,1075.44 1689.49,1090.73 1712.16,1106.02 1734.82,1121.32 1757.49,1136.61 1780.15,1151.9 1802.82,1167.19 1825.48,1182.48 1848.15,1197.77 1870.81,1213.06 1893.48,1228.35 1916.14,1243.65 1938.81,1258.94 1961.47,1274.23 1984.14,1289.52 2006.81,1304.81 2029.47,1320.1 2052.14,1335.39 2074.8,1350.68 2097.47,1365.98 2120.13,1381.27 2142.8,1396.56 2165.46,1411.85 2188.13,1427.14 2210.79,1442.43 2233.46,1457.72 2256.12,1473.01 2278.79,1488.31 2301.46,1503.6 2324.12,1518.89 2346.79,1534.18 2369.45,1549.47 2392.12,1564.76 2414.78,1580.05 2437.45,1595.34 2460.11,1610.64 2482.78,1625.93 2505.44,1641.22 2528.11,1656.51 2550.77,1671.8 2573.44,1687.09 "/>
<polyline clip-path="url(#clip481)" style="stroke:#c271d2; stroke-linecap:round; stroke-linejoin:round; stroke-width:8; stroke-opacity:1; fill:none" points="329.568,173.254 352.233,188.545 374.898,203.837 397.564,219.128 420.229,234.419 442.895,249.71 465.56,265.002 488.225,280.293 510.891,295.584 533.556,310.875 556.221,326.167 578.887,341.458 601.552,356.749 624.218,372.04 646.883,387.332 669.548,402.623 692.214,417.914 714.879,433.206 737.544,448.497 760.21,463.788 782.875,479.079 805.541,494.371 828.206,509.662 850.871,524.953 873.537,540.244 896.202,555.536 918.867,570.827 941.533,586.118 964.198,601.409 986.864,616.701 1009.53,631.992 1032.19,647.283 1054.86,662.574 1077.53,677.866 1100.19,693.157 1122.86,708.448 1145.52,723.739 1168.19,739.031 1190.85,754.322 1213.52,769.613 1236.18,784.904 1258.85,800.196 1281.51,815.487 1304.18,830.778 1326.84,846.069 1349.51,861.361 1372.17,876.652 1394.84,891.943 1417.51,907.234 1440.17,922.526 1462.84,937.817 1485.5,953.108 1508.17,968.399 1530.83,983.691 1553.5,998.982 1576.16,1014.27 1598.83,1029.56 1621.49,1044.86 1644.16,1060.15 1666.82,1075.44 1689.49,1090.73 1712.16,1106.02 1734.82,1121.31 1757.49,1136.6 1780.15,1151.89 1802.82,1167.19 1825.48,1182.48 1848.15,1197.77 1870.81,1213.06 1893.48,1228.35 1916.14,1243.64 1938.81,1258.93 1961.47,1274.22 1984.14,1289.52 2006.81,1304.81 2029.47,1320.1 2052.14,1335.39 2074.8,1350.68 2097.47,1365.97 2120.13,1381.26 2142.8,1396.55 2165.46,1411.85 2188.13,1427.14 2210.79,1442.43 2233.46,1457.72 2256.12,1473.01 2278.79,1488.3 2301.46,1503.59 2324.12,1518.88 2346.79,1534.18 2369.45,1549.47 2392.12,1564.76 2414.78,1580.05 2437.45,1595.34 2460.11,1610.63 2482.78,1625.92 2505.44,1641.21 2528.11,1656.51 2550.77,1671.8 2573.44,1687.09 "/>
<path clip-path="url(#clip480)" d="M1942.14 440.536 L2561.47 440.536 L2561.47 181.336 L1942.14 181.336  Z" fill="#ffffff" fill-rule="evenodd" fill-opacity="1"/>
<polyline clip-path="url(#clip480)" style="stroke:#000000; stroke-linecap:round; stroke-linejoin:round; stroke-width:4; stroke-opacity:1; fill:none" points="1942.14,440.536 2561.47,440.536 2561.47,181.336 1942.14,181.336 1942.14,440.536 "/>
<polyline clip-path="url(#clip480)" style="stroke:#000000; stroke-linecap:round; stroke-linejoin:round; stroke-width:8; stroke-opacity:1; fill:none" points="1968.57,233.176 2127.14,233.176 "/>
<path clip-path="url(#clip480)" d="M2153.57 215.896 L2182.8 215.896 L2182.8 219.831 L2170.53 219.831 L2170.53 250.456 L2165.83 250.456 L2165.83 219.831 L2153.57 219.831 L2153.57 215.896 Z" fill="#000000" fill-rule="nonzero" fill-opacity="1" /><path clip-path="url(#clip480)" d="M2195.19 228.512 Q2194.47 228.095 2193.61 227.91 Q2192.78 227.702 2191.76 227.702 Q2188.15 227.702 2186.2 230.063 Q2184.28 232.401 2184.28 236.799 L2184.28 250.456 L2180 250.456 L2180 224.531 L2184.28 224.531 L2184.28 228.558 Q2185.63 226.197 2187.78 225.063 Q2189.93 223.906 2193.01 223.906 Q2193.45 223.906 2193.98 223.975 Q2194.51 224.021 2195.16 224.137 L2195.19 228.512 Z" fill="#000000" fill-rule="nonzero" fill-opacity="1" /><path clip-path="url(#clip480)" d="M2199.21 240.225 L2199.21 224.531 L2203.47 224.531 L2203.47 240.063 Q2203.47 243.743 2204.91 245.595 Q2206.34 247.424 2209.21 247.424 Q2212.66 247.424 2214.65 245.225 Q2216.67 243.026 2216.67 239.229 L2216.67 224.531 L2220.93 224.531 L2220.93 250.456 L2216.67 250.456 L2216.67 246.475 Q2215.12 248.836 2213.06 249.993 Q2211.02 251.128 2208.31 251.128 Q2203.84 251.128 2201.53 248.35 Q2199.21 245.572 2199.21 240.225 M2209.93 223.906 L2209.93 223.906 Z" fill="#000000" fill-rule="nonzero" fill-opacity="1" /><path clip-path="url(#clip480)" d="M2251.87 236.429 L2251.87 238.512 L2232.29 238.512 Q2232.57 242.91 2234.93 245.225 Q2237.31 247.516 2241.55 247.516 Q2244 247.516 2246.3 246.915 Q2248.61 246.313 2250.88 245.109 L2250.88 249.137 Q2248.59 250.109 2246.18 250.618 Q2243.77 251.128 2241.3 251.128 Q2235.09 251.128 2231.46 247.516 Q2227.85 243.905 2227.85 237.748 Q2227.85 231.382 2231.27 227.655 Q2234.72 223.906 2240.56 223.906 Q2245.79 223.906 2248.82 227.285 Q2251.87 230.642 2251.87 236.429 M2247.62 235.179 Q2247.57 231.683 2245.65 229.6 Q2243.75 227.517 2240.6 227.517 Q2237.04 227.517 2234.88 229.53 Q2232.75 231.544 2232.43 235.202 L2247.62 235.179 Z" fill="#000000" fill-rule="nonzero" fill-opacity="1" /><polyline clip-path="url(#clip480)" style="stroke:#e26f46; stroke-linecap:round; stroke-linejoin:round; stroke-width:8; stroke-opacity:1; fill:none" points="1968.57,285.016 2127.14,285.016 "/>
<path clip-path="url(#clip480)" d="M2161.18 280.445 L2166.85 296.463 L2174.95 276.371 L2179.47 276.371 L2168.98 302.296 L2168.98 312.157 L2164.72 312.157 L2164.72 302.296 L2157.92 282.945 Q2156.9 280.028 2154.7 280.028 L2153.57 280.028 L2153.57 276.371 L2155.19 276.371 Q2159.75 276.371 2161.18 280.445 Z" fill="#000000" fill-rule="nonzero" fill-opacity="1" /><path clip-path="url(#clip480)" d="M2185.9 280.769 L2215.58 280.769 L2215.58 284.657 L2185.9 284.657 L2185.9 280.769 M2185.9 290.213 L2215.58 290.213 L2215.58 294.148 L2185.9 294.148 L2185.9 290.213 Z" fill="#000000" fill-rule="nonzero" fill-opacity="1" /><path clip-path="url(#clip480)" d="M2226.48 298.361 L2234.12 298.361 L2234.12 271.996 L2225.81 273.662 L2225.81 269.403 L2234.07 267.736 L2238.75 267.736 L2238.75 298.361 L2246.39 298.361 L2246.39 302.296 L2226.48 302.296 L2226.48 298.361 Z" fill="#000000" fill-rule="nonzero" fill-opacity="1" /><path clip-path="url(#clip480)" d="M2255.83 296.417 L2260.72 296.417 L2260.72 302.296 L2255.83 302.296 L2255.83 296.417 Z" fill="#000000" fill-rule="nonzero" fill-opacity="1" /><path clip-path="url(#clip480)" d="M2280.9 270.815 Q2277.29 270.815 2275.46 274.38 Q2273.66 277.921 2273.66 285.051 Q2273.66 292.157 2275.46 295.722 Q2277.29 299.264 2280.9 299.264 Q2284.54 299.264 2286.34 295.722 Q2288.17 292.157 2288.17 285.051 Q2288.17 277.921 2286.34 274.38 Q2284.54 270.815 2280.9 270.815 M2280.9 267.111 Q2286.71 267.111 2289.77 271.718 Q2292.85 276.301 2292.85 285.051 Q2292.85 293.778 2289.77 298.384 Q2286.71 302.968 2280.9 302.968 Q2275.09 302.968 2272.01 298.384 Q2268.96 293.778 2268.96 285.051 Q2268.96 276.301 2272.01 271.718 Q2275.09 267.111 2280.9 267.111 Z" fill="#000000" fill-rule="nonzero" fill-opacity="1" /><path clip-path="url(#clip480)" d="M2325.76 266.324 Q2322.66 271.648 2321.16 276.857 Q2319.65 282.065 2319.65 287.412 Q2319.65 292.759 2321.16 298.014 Q2322.68 303.245 2325.76 308.546 L2322.06 308.546 Q2318.59 303.106 2316.85 297.852 Q2315.14 292.597 2315.14 287.412 Q2315.14 282.25 2316.85 277.019 Q2318.56 271.787 2322.06 266.324 L2325.76 266.324 Z" fill="#000000" fill-rule="nonzero" fill-opacity="1" /><path clip-path="url(#clip480)" d="M2356.2 288.269 L2356.2 290.352 L2336.62 290.352 Q2336.9 294.75 2339.26 297.065 Q2341.64 299.356 2345.88 299.356 Q2348.33 299.356 2350.62 298.755 Q2352.94 298.153 2355.21 296.949 L2355.21 300.977 Q2352.92 301.949 2350.51 302.458 Q2348.1 302.968 2345.62 302.968 Q2339.42 302.968 2335.79 299.356 Q2332.18 295.745 2332.18 289.588 Q2332.18 283.222 2335.6 279.495 Q2339.05 275.746 2344.88 275.746 Q2350.12 275.746 2353.15 279.125 Q2356.2 282.482 2356.2 288.269 M2351.94 287.019 Q2351.9 283.523 2349.98 281.44 Q2348.08 279.357 2344.93 279.357 Q2341.37 279.357 2339.21 281.37 Q2337.08 283.384 2336.76 287.042 L2351.94 287.019 Z" fill="#000000" fill-rule="nonzero" fill-opacity="1" /><path clip-path="url(#clip480)" d="M2380.25 280.306 L2380.25 266.278 L2384.51 266.278 L2384.51 302.296 L2380.25 302.296 L2380.25 298.407 Q2378.91 300.722 2376.85 301.856 Q2374.81 302.968 2371.94 302.968 Q2367.24 302.968 2364.28 299.218 Q2361.34 295.468 2361.34 289.357 Q2361.34 283.245 2364.28 279.495 Q2367.24 275.746 2371.94 275.746 Q2374.81 275.746 2376.85 276.88 Q2378.91 277.991 2380.25 280.306 M2365.74 289.357 Q2365.74 294.056 2367.66 296.741 Q2369.61 299.403 2372.99 299.403 Q2376.36 299.403 2378.31 296.741 Q2380.25 294.056 2380.25 289.357 Q2380.25 284.657 2378.31 281.995 Q2376.36 279.31 2372.99 279.31 Q2369.61 279.31 2367.66 281.995 Q2365.74 284.657 2365.74 289.357 Z" fill="#000000" fill-rule="nonzero" fill-opacity="1" /><path clip-path="url(#clip480)" d="M2406.41 266.278 L2406.41 269.82 L2402.34 269.82 Q2400.05 269.82 2399.14 270.746 Q2398.26 271.671 2398.26 274.079 L2398.26 276.371 L2405.28 276.371 L2405.28 279.681 L2398.26 279.681 L2398.26 302.296 L2393.98 302.296 L2393.98 279.681 L2389.91 279.681 L2389.91 276.371 L2393.98 276.371 L2393.98 274.565 Q2393.98 270.236 2395.99 268.269 Q2398.01 266.278 2402.38 266.278 L2406.41 266.278 Z" fill="#000000" fill-rule="nonzero" fill-opacity="1" /><path clip-path="url(#clip480)" d="M2410.53 280.769 L2440.21 280.769 L2440.21 284.657 L2410.53 284.657 L2410.53 280.769 M2410.53 290.213 L2440.21 290.213 L2440.21 294.148 L2410.53 294.148 L2410.53 290.213 Z" fill="#000000" fill-rule="nonzero" fill-opacity="1" /><path clip-path="url(#clip480)" d="M2460.88 283.153 Q2457.73 283.153 2455.88 285.306 Q2454.05 287.458 2454.05 291.208 Q2454.05 294.935 2455.88 297.111 Q2457.73 299.264 2460.88 299.264 Q2464.03 299.264 2465.86 297.111 Q2467.71 294.935 2467.71 291.208 Q2467.71 287.458 2465.86 285.306 Q2464.03 283.153 2460.88 283.153 M2470.16 268.5 L2470.16 272.759 Q2468.4 271.926 2466.6 271.486 Q2464.81 271.046 2463.05 271.046 Q2458.42 271.046 2455.97 274.171 Q2453.54 277.296 2453.19 283.616 Q2454.56 281.602 2456.62 280.537 Q2458.68 279.449 2461.16 279.449 Q2466.36 279.449 2469.37 282.62 Q2472.41 285.769 2472.41 291.208 Q2472.41 296.532 2469.26 299.75 Q2466.11 302.968 2460.88 302.968 Q2454.88 302.968 2451.71 298.384 Q2448.54 293.778 2448.54 285.051 Q2448.54 276.857 2452.43 271.996 Q2456.32 267.111 2462.87 267.111 Q2464.63 267.111 2466.41 267.459 Q2468.22 267.806 2470.16 268.5 Z" fill="#000000" fill-rule="nonzero" fill-opacity="1" /><path clip-path="url(#clip480)" d="M2480.46 296.417 L2485.35 296.417 L2485.35 302.296 L2480.46 302.296 L2480.46 296.417 Z" fill="#000000" fill-rule="nonzero" fill-opacity="1" /><path clip-path="url(#clip480)" d="M2499.56 298.361 L2515.88 298.361 L2515.88 302.296 L2493.93 302.296 L2493.93 298.361 Q2496.6 295.607 2501.18 290.977 Q2505.79 286.324 2506.97 284.982 Q2509.21 282.458 2510.09 280.722 Q2510.99 278.963 2510.99 277.273 Q2510.99 274.519 2509.05 272.783 Q2507.13 271.046 2504.03 271.046 Q2501.83 271.046 2499.37 271.81 Q2496.94 272.574 2494.17 274.125 L2494.17 269.403 Q2496.99 268.269 2499.44 267.69 Q2501.9 267.111 2503.93 267.111 Q2509.3 267.111 2512.5 269.796 Q2515.69 272.482 2515.69 276.972 Q2515.69 279.102 2514.88 281.023 Q2514.1 282.921 2511.99 285.514 Q2511.41 286.185 2508.31 289.403 Q2505.21 292.597 2499.56 298.361 Z" fill="#000000" fill-rule="nonzero" fill-opacity="1" /><path clip-path="url(#clip480)" d="M2524.42 266.324 L2528.12 266.324 Q2531.6 271.787 2533.31 277.019 Q2535.04 282.25 2535.04 287.412 Q2535.04 292.597 2533.31 297.852 Q2531.6 303.106 2528.12 308.546 L2524.42 308.546 Q2527.5 303.245 2529 298.014 Q2530.53 292.759 2530.53 287.412 Q2530.53 282.065 2529 276.857 Q2527.5 271.648 2524.42 266.324 Z" fill="#000000" fill-rule="nonzero" fill-opacity="1" /><polyline clip-path="url(#clip480)" style="stroke:#3da44d; stroke-linecap:round; stroke-linejoin:round; stroke-width:8; stroke-opacity:1; fill:none" points="1968.57,336.856 2127.14,336.856 "/>
<path clip-path="url(#clip480)" d="M2161.18 332.285 L2166.85 348.303 L2174.95 328.211 L2179.47 328.211 L2168.98 354.136 L2168.98 363.997 L2164.72 363.997 L2164.72 354.136 L2157.92 334.785 Q2156.9 331.868 2154.7 331.868 L2153.57 331.868 L2153.57 328.211 L2155.19 328.211 Q2159.75 328.211 2161.18 332.285 Z" fill="#000000" fill-rule="nonzero" fill-opacity="1" /><path clip-path="url(#clip480)" d="M2185.9 332.609 L2215.58 332.609 L2215.58 336.497 L2185.9 336.497 L2185.9 332.609 M2185.9 342.053 L2215.58 342.053 L2215.58 345.988 L2185.9 345.988 L2185.9 342.053 Z" fill="#000000" fill-rule="nonzero" fill-opacity="1" /><path clip-path="url(#clip480)" d="M2226.48 350.201 L2234.12 350.201 L2234.12 323.836 L2225.81 325.502 L2225.81 321.243 L2234.07 319.576 L2238.75 319.576 L2238.75 350.201 L2246.39 350.201 L2246.39 354.136 L2226.48 354.136 L2226.48 350.201 Z" fill="#000000" fill-rule="nonzero" fill-opacity="1" /><path clip-path="url(#clip480)" d="M2255.83 348.257 L2260.72 348.257 L2260.72 354.136 L2255.83 354.136 L2255.83 348.257 Z" fill="#000000" fill-rule="nonzero" fill-opacity="1" /><path clip-path="url(#clip480)" d="M2283.75 323.65 L2271.94 342.099 L2283.75 342.099 L2283.75 323.65 M2282.52 319.576 L2288.4 319.576 L2288.4 342.099 L2293.33 342.099 L2293.33 345.988 L2288.4 345.988 L2288.4 354.136 L2283.75 354.136 L2283.75 345.988 L2268.15 345.988 L2268.15 341.474 L2282.52 319.576 Z" fill="#000000" fill-rule="nonzero" fill-opacity="1" /><path clip-path="url(#clip480)" d="M2325.76 318.164 Q2322.66 323.488 2321.16 328.697 Q2319.65 333.905 2319.65 339.252 Q2319.65 344.599 2321.16 349.854 Q2322.68 355.085 2325.76 360.386 L2322.06 360.386 Q2318.59 354.946 2316.85 349.692 Q2315.14 344.437 2315.14 339.252 Q2315.14 334.09 2316.85 328.859 Q2318.56 323.627 2322.06 318.164 L2325.76 318.164 Z" fill="#000000" fill-rule="nonzero" fill-opacity="1" /><path clip-path="url(#clip480)" d="M2356.2 340.109 L2356.2 342.192 L2336.62 342.192 Q2336.9 346.59 2339.26 348.905 Q2341.64 351.196 2345.88 351.196 Q2348.33 351.196 2350.62 350.595 Q2352.94 349.993 2355.21 348.789 L2355.21 352.817 Q2352.92 353.789 2350.51 354.298 Q2348.1 354.808 2345.62 354.808 Q2339.42 354.808 2335.79 351.196 Q2332.18 347.585 2332.18 341.428 Q2332.18 335.062 2335.6 331.335 Q2339.05 327.586 2344.88 327.586 Q2350.12 327.586 2353.15 330.965 Q2356.2 334.322 2356.2 340.109 M2351.94 338.859 Q2351.9 335.363 2349.98 333.28 Q2348.08 331.197 2344.93 331.197 Q2341.37 331.197 2339.21 333.21 Q2337.08 335.224 2336.76 338.882 L2351.94 338.859 Z" fill="#000000" fill-rule="nonzero" fill-opacity="1" /><path clip-path="url(#clip480)" d="M2380.25 332.146 L2380.25 318.118 L2384.51 318.118 L2384.51 354.136 L2380.25 354.136 L2380.25 350.247 Q2378.91 352.562 2376.85 353.696 Q2374.81 354.808 2371.94 354.808 Q2367.24 354.808 2364.28 351.058 Q2361.34 347.308 2361.34 341.197 Q2361.34 335.085 2364.28 331.335 Q2367.24 327.586 2371.94 327.586 Q2374.81 327.586 2376.85 328.72 Q2378.91 329.831 2380.25 332.146 M2365.74 341.197 Q2365.74 345.896 2367.66 348.581 Q2369.61 351.243 2372.99 351.243 Q2376.36 351.243 2378.31 348.581 Q2380.25 345.896 2380.25 341.197 Q2380.25 336.497 2378.31 333.835 Q2376.36 331.15 2372.99 331.15 Q2369.61 331.15 2367.66 333.835 Q2365.74 336.497 2365.74 341.197 Z" fill="#000000" fill-rule="nonzero" fill-opacity="1" /><path clip-path="url(#clip480)" d="M2406.41 318.118 L2406.41 321.66 L2402.34 321.66 Q2400.05 321.66 2399.14 322.586 Q2398.26 323.511 2398.26 325.919 L2398.26 328.211 L2405.28 328.211 L2405.28 331.521 L2398.26 331.521 L2398.26 354.136 L2393.98 354.136 L2393.98 331.521 L2389.91 331.521 L2389.91 328.211 L2393.98 328.211 L2393.98 326.405 Q2393.98 322.076 2395.99 320.109 Q2398.01 318.118 2402.38 318.118 L2406.41 318.118 Z" fill="#000000" fill-rule="nonzero" fill-opacity="1" /><path clip-path="url(#clip480)" d="M2410.53 332.609 L2440.21 332.609 L2440.21 336.497 L2410.53 336.497 L2410.53 332.609 M2410.53 342.053 L2440.21 342.053 L2440.21 345.988 L2410.53 345.988 L2410.53 342.053 Z" fill="#000000" fill-rule="nonzero" fill-opacity="1" /><path clip-path="url(#clip480)" d="M2454.33 350.201 L2470.65 350.201 L2470.65 354.136 L2448.7 354.136 L2448.7 350.201 Q2451.36 347.447 2455.95 342.817 Q2460.55 338.164 2461.73 336.822 Q2463.98 334.298 2464.86 332.562 Q2465.76 330.803 2465.76 329.113 Q2465.76 326.359 2463.82 324.623 Q2461.9 322.886 2458.8 322.886 Q2456.6 322.886 2454.14 323.65 Q2451.71 324.414 2448.93 325.965 L2448.93 321.243 Q2451.76 320.109 2454.21 319.53 Q2456.67 318.951 2458.7 318.951 Q2464.07 318.951 2467.27 321.636 Q2470.46 324.322 2470.46 328.812 Q2470.46 330.942 2469.65 332.863 Q2468.86 334.761 2466.76 337.354 Q2466.18 338.025 2463.08 341.243 Q2459.98 344.437 2454.33 350.201 Z" fill="#000000" fill-rule="nonzero" fill-opacity="1" /><path clip-path="url(#clip480)" d="M2480.46 348.257 L2485.35 348.257 L2485.35 354.136 L2480.46 354.136 L2480.46 348.257 Z" fill="#000000" fill-rule="nonzero" fill-opacity="1" /><path clip-path="url(#clip480)" d="M2505.53 322.655 Q2501.92 322.655 2500.09 326.22 Q2498.29 329.761 2498.29 336.891 Q2498.29 343.997 2500.09 347.562 Q2501.92 351.104 2505.53 351.104 Q2509.17 351.104 2510.97 347.562 Q2512.8 343.997 2512.8 336.891 Q2512.8 329.761 2510.97 326.22 Q2509.17 322.655 2505.53 322.655 M2505.53 318.951 Q2511.34 318.951 2514.4 323.558 Q2517.48 328.141 2517.48 336.891 Q2517.48 345.618 2514.4 350.224 Q2511.34 354.808 2505.53 354.808 Q2499.72 354.808 2496.64 350.224 Q2493.59 345.618 2493.59 336.891 Q2493.59 328.141 2496.64 323.558 Q2499.72 318.951 2505.53 318.951 Z" fill="#000000" fill-rule="nonzero" fill-opacity="1" /><path clip-path="url(#clip480)" d="M2524.42 318.164 L2528.12 318.164 Q2531.6 323.627 2533.31 328.859 Q2535.04 334.09 2535.04 339.252 Q2535.04 344.437 2533.31 349.692 Q2531.6 354.946 2528.12 360.386 L2524.42 360.386 Q2527.5 355.085 2529 349.854 Q2530.53 344.599 2530.53 339.252 Q2530.53 333.905 2529 328.697 Q2527.5 323.488 2524.42 318.164 Z" fill="#000000" fill-rule="nonzero" fill-opacity="1" /><polyline clip-path="url(#clip480)" style="stroke:#c271d2; stroke-linecap:round; stroke-linejoin:round; stroke-width:8; stroke-opacity:1; fill:none" points="1968.57,388.696 2127.14,388.696 "/>
<path clip-path="url(#clip480)" d="M2161.18 384.125 L2166.85 400.143 L2174.95 380.051 L2179.47 380.051 L2168.98 405.976 L2168.98 415.837 L2164.72 415.837 L2164.72 405.976 L2157.92 386.625 Q2156.9 383.708 2154.7 383.708 L2153.57 383.708 L2153.57 380.051 L2155.19 380.051 Q2159.75 380.051 2161.18 384.125 Z" fill="#000000" fill-rule="nonzero" fill-opacity="1" /><path clip-path="url(#clip480)" d="M2185.9 384.449 L2215.58 384.449 L2215.58 388.337 L2185.9 388.337 L2185.9 384.449 M2185.9 393.893 L2215.58 393.893 L2215.58 397.828 L2185.9 397.828 L2185.9 393.893 Z" fill="#000000" fill-rule="nonzero" fill-opacity="1" /><path clip-path="url(#clip480)" d="M2229.7 402.041 L2246.02 402.041 L2246.02 405.976 L2224.07 405.976 L2224.07 402.041 Q2226.74 399.287 2231.32 394.657 Q2235.93 390.004 2237.11 388.662 Q2239.35 386.138 2240.23 384.402 Q2241.13 382.643 2241.13 380.953 Q2241.13 378.199 2239.19 376.463 Q2237.27 374.726 2234.17 374.726 Q2231.97 374.726 2229.51 375.49 Q2227.08 376.254 2224.31 377.805 L2224.31 373.083 Q2227.13 371.949 2229.58 371.37 Q2232.04 370.791 2234.07 370.791 Q2239.44 370.791 2242.64 373.476 Q2245.83 376.162 2245.83 380.652 Q2245.83 382.782 2245.02 384.703 Q2244.24 386.601 2242.13 389.194 Q2241.55 389.865 2238.45 393.083 Q2235.35 396.277 2229.7 402.041 Z" fill="#000000" fill-rule="nonzero" fill-opacity="1" /><path clip-path="url(#clip480)" d="M2255.83 400.097 L2260.72 400.097 L2260.72 405.976 L2255.83 405.976 L2255.83 400.097 Z" fill="#000000" fill-rule="nonzero" fill-opacity="1" /><path clip-path="url(#clip480)" d="M2280.9 374.495 Q2277.29 374.495 2275.46 378.06 Q2273.66 381.601 2273.66 388.731 Q2273.66 395.837 2275.46 399.402 Q2277.29 402.944 2280.9 402.944 Q2284.54 402.944 2286.34 399.402 Q2288.17 395.837 2288.17 388.731 Q2288.17 381.601 2286.34 378.06 Q2284.54 374.495 2280.9 374.495 M2280.9 370.791 Q2286.71 370.791 2289.77 375.398 Q2292.85 379.981 2292.85 388.731 Q2292.85 397.458 2289.77 402.064 Q2286.71 406.648 2280.9 406.648 Q2275.09 406.648 2272.01 402.064 Q2268.96 397.458 2268.96 388.731 Q2268.96 379.981 2272.01 375.398 Q2275.09 370.791 2280.9 370.791 Z" fill="#000000" fill-rule="nonzero" fill-opacity="1" /><path clip-path="url(#clip480)" d="M2325.76 370.004 Q2322.66 375.328 2321.16 380.537 Q2319.65 385.745 2319.65 391.092 Q2319.65 396.439 2321.16 401.694 Q2322.68 406.925 2325.76 412.226 L2322.06 412.226 Q2318.59 406.786 2316.85 401.532 Q2315.14 396.277 2315.14 391.092 Q2315.14 385.93 2316.85 380.699 Q2318.56 375.467 2322.06 370.004 L2325.76 370.004 Z" fill="#000000" fill-rule="nonzero" fill-opacity="1" /><path clip-path="url(#clip480)" d="M2356.2 391.949 L2356.2 394.032 L2336.62 394.032 Q2336.9 398.43 2339.26 400.745 Q2341.64 403.036 2345.88 403.036 Q2348.33 403.036 2350.62 402.435 Q2352.94 401.833 2355.21 400.629 L2355.21 404.657 Q2352.92 405.629 2350.51 406.138 Q2348.1 406.648 2345.62 406.648 Q2339.42 406.648 2335.79 403.036 Q2332.18 399.425 2332.18 393.268 Q2332.18 386.902 2335.6 383.175 Q2339.05 379.426 2344.88 379.426 Q2350.12 379.426 2353.15 382.805 Q2356.2 386.162 2356.2 391.949 M2351.94 390.699 Q2351.9 387.203 2349.98 385.12 Q2348.08 383.037 2344.93 383.037 Q2341.37 383.037 2339.21 385.05 Q2337.08 387.064 2336.76 390.722 L2351.94 390.699 Z" fill="#000000" fill-rule="nonzero" fill-opacity="1" /><path clip-path="url(#clip480)" d="M2380.25 383.986 L2380.25 369.958 L2384.51 369.958 L2384.51 405.976 L2380.25 405.976 L2380.25 402.087 Q2378.91 404.402 2376.85 405.536 Q2374.81 406.648 2371.94 406.648 Q2367.24 406.648 2364.28 402.898 Q2361.34 399.148 2361.34 393.037 Q2361.34 386.925 2364.28 383.175 Q2367.24 379.426 2371.94 379.426 Q2374.81 379.426 2376.85 380.56 Q2378.91 381.671 2380.25 383.986 M2365.74 393.037 Q2365.74 397.736 2367.66 400.421 Q2369.61 403.083 2372.99 403.083 Q2376.36 403.083 2378.31 400.421 Q2380.25 397.736 2380.25 393.037 Q2380.25 388.337 2378.31 385.675 Q2376.36 382.99 2372.99 382.99 Q2369.61 382.99 2367.66 385.675 Q2365.74 388.337 2365.74 393.037 Z" fill="#000000" fill-rule="nonzero" fill-opacity="1" /><path clip-path="url(#clip480)" d="M2406.41 369.958 L2406.41 373.5 L2402.34 373.5 Q2400.05 373.5 2399.14 374.426 Q2398.26 375.351 2398.26 377.759 L2398.26 380.051 L2405.28 380.051 L2405.28 383.361 L2398.26 383.361 L2398.26 405.976 L2393.98 405.976 L2393.98 383.361 L2389.91 383.361 L2389.91 380.051 L2393.98 380.051 L2393.98 378.245 Q2393.98 373.916 2395.99 371.949 Q2398.01 369.958 2402.38 369.958 L2406.41 369.958 Z" fill="#000000" fill-rule="nonzero" fill-opacity="1" /><path clip-path="url(#clip480)" d="M2410.53 384.449 L2440.21 384.449 L2440.21 388.337 L2410.53 388.337 L2410.53 384.449 M2410.53 393.893 L2440.21 393.893 L2440.21 397.828 L2410.53 397.828 L2410.53 393.893 Z" fill="#000000" fill-rule="nonzero" fill-opacity="1" /><path clip-path="url(#clip480)" d="M2454.33 402.041 L2470.65 402.041 L2470.65 405.976 L2448.7 405.976 L2448.7 402.041 Q2451.36 399.287 2455.95 394.657 Q2460.55 390.004 2461.73 388.662 Q2463.98 386.138 2464.86 384.402 Q2465.76 382.643 2465.76 380.953 Q2465.76 378.199 2463.82 376.463 Q2461.9 374.726 2458.8 374.726 Q2456.6 374.726 2454.14 375.49 Q2451.71 376.254 2448.93 377.805 L2448.93 373.083 Q2451.76 371.949 2454.21 371.37 Q2456.67 370.791 2458.7 370.791 Q2464.07 370.791 2467.27 373.476 Q2470.46 376.162 2470.46 380.652 Q2470.46 382.782 2469.65 384.703 Q2468.86 386.601 2466.76 389.194 Q2466.18 389.865 2463.08 393.083 Q2459.98 396.277 2454.33 402.041 Z" fill="#000000" fill-rule="nonzero" fill-opacity="1" /><path clip-path="url(#clip480)" d="M2480.46 400.097 L2485.35 400.097 L2485.35 405.976 L2480.46 405.976 L2480.46 400.097 Z" fill="#000000" fill-rule="nonzero" fill-opacity="1" /><path clip-path="url(#clip480)" d="M2505.53 374.495 Q2501.92 374.495 2500.09 378.06 Q2498.29 381.601 2498.29 388.731 Q2498.29 395.837 2500.09 399.402 Q2501.92 402.944 2505.53 402.944 Q2509.17 402.944 2510.97 399.402 Q2512.8 395.837 2512.8 388.731 Q2512.8 381.601 2510.97 378.06 Q2509.17 374.495 2505.53 374.495 M2505.53 370.791 Q2511.34 370.791 2514.4 375.398 Q2517.48 379.981 2517.48 388.731 Q2517.48 397.458 2514.4 402.064 Q2511.34 406.648 2505.53 406.648 Q2499.72 406.648 2496.64 402.064 Q2493.59 397.458 2493.59 388.731 Q2493.59 379.981 2496.64 375.398 Q2499.72 370.791 2505.53 370.791 Z" fill="#000000" fill-rule="nonzero" fill-opacity="1" /><path clip-path="url(#clip480)" d="M2524.42 370.004 L2528.12 370.004 Q2531.6 375.467 2533.31 380.699 Q2535.04 385.93 2535.04 391.092 Q2535.04 396.277 2533.31 401.532 Q2531.6 406.786 2528.12 412.226 L2524.42 412.226 Q2527.5 406.925 2529 401.694 Q2530.53 396.439 2530.53 391.092 Q2530.53 385.745 2529 380.537 Q2527.5 375.328 2524.42 370.004 Z" fill="#000000" fill-rule="nonzero" fill-opacity="1" /></svg>
