<?xml version="1.0" encoding="utf-8"?>
<svg xmlns="http://www.w3.org/2000/svg" xmlns:xlink="http://www.w3.org/1999/xlink" width="672" height="480" viewBox="0 0 2688 1920">
<defs>
  <clipPath id="clip770">
    <rect x="0" y="0" width="2688" height="1920"/>
  </clipPath>
</defs>
<path clip-path="url(#clip770)" d="M0 1920 L2688 1920 L2688 -4.26326e-14 L0 -4.26326e-14  Z" fill="#ffffff" fill-rule="evenodd" fill-opacity="1"/>
<defs>
  <clipPath id="clip771">
    <rect x="208" y="127" width="2433" height="1607"/>
  </clipPath>
</defs>
<path clip-path="url(#clip770)" d="M208.502 1734.12 L2640.76 1734.12 L2640.76 127.792 L208.502 127.792  Z" fill="#ffffff" fill-rule="evenodd" fill-opacity="1"/>
<polyline clip-path="url(#clip771)" style="stroke:#000000; stroke-linecap:round; stroke-linejoin:round; stroke-width:2; stroke-opacity:0.1; fill:none" points="277.339,1734.12 277.339,127.792 "/>
<polyline clip-path="url(#clip771)" style="stroke:#000000; stroke-linecap:round; stroke-linejoin:round; stroke-width:2; stroke-opacity:0.1; fill:none" points="1042.2,1734.12 1042.2,127.792 "/>
<polyline clip-path="url(#clip771)" style="stroke:#000000; stroke-linecap:round; stroke-linejoin:round; stroke-width:2; stroke-opacity:0.1; fill:none" points="1807.06,1734.12 1807.06,127.792 "/>
<polyline clip-path="url(#clip771)" style="stroke:#000000; stroke-linecap:round; stroke-linejoin:round; stroke-width:2; stroke-opacity:0.1; fill:none" points="2571.92,1734.12 2571.92,127.792 "/>
<polyline clip-path="url(#clip771)" style="stroke:#000000; stroke-linecap:round; stroke-linejoin:round; stroke-width:2; stroke-opacity:0.1; fill:none" points="208.502,1512.92 2640.76,1512.92 "/>
<polyline clip-path="url(#clip771)" style="stroke:#000000; stroke-linecap:round; stroke-linejoin:round; stroke-width:2; stroke-opacity:0.1; fill:none" points="208.502,1182.78 2640.76,1182.78 "/>
<polyline clip-path="url(#clip771)" style="stroke:#000000; stroke-linecap:round; stroke-linejoin:round; stroke-width:2; stroke-opacity:0.1; fill:none" points="208.502,852.638 2640.76,852.638 "/>
<polyline clip-path="url(#clip771)" style="stroke:#000000; stroke-linecap:round; stroke-linejoin:round; stroke-width:2; stroke-opacity:0.1; fill:none" points="208.502,522.495 2640.76,522.495 "/>
<polyline clip-path="url(#clip771)" style="stroke:#000000; stroke-linecap:round; stroke-linejoin:round; stroke-width:2; stroke-opacity:0.1; fill:none" points="208.502,192.352 2640.76,192.352 "/>
<polyline clip-path="url(#clip770)" style="stroke:#000000; stroke-linecap:round; stroke-linejoin:round; stroke-width:4; stroke-opacity:1; fill:none" points="208.502,1734.12 2640.76,1734.12 "/>
<polyline clip-path="url(#clip770)" style="stroke:#000000; stroke-linecap:round; stroke-linejoin:round; stroke-width:4; stroke-opacity:1; fill:none" points="277.339,1734.12 277.339,1715.22 "/>
<polyline clip-path="url(#clip770)" style="stroke:#000000; stroke-linecap:round; stroke-linejoin:round; stroke-width:4; stroke-opacity:1; fill:none" points="1042.2,1734.12 1042.2,1715.22 "/>
<polyline clip-path="url(#clip770)" style="stroke:#000000; stroke-linecap:round; stroke-linejoin:round; stroke-width:4; stroke-opacity:1; fill:none" points="1807.06,1734.12 1807.06,1715.22 "/>
<polyline clip-path="url(#clip770)" style="stroke:#000000; stroke-linecap:round; stroke-linejoin:round; stroke-width:4; stroke-opacity:1; fill:none" points="2571.92,1734.12 2571.92,1715.22 "/>
<path clip-path="url(#clip770)" d="M277.339 1767.34 Q273.728 1767.34 271.899 1770.9 Q270.094 1774.45 270.094 1781.58 Q270.094 1788.68 271.899 1792.25 Q273.728 1795.79 277.339 1795.79 Q280.973 1795.79 282.779 1792.25 Q284.608 1788.68 284.608 1781.58 Q284.608 1774.45 282.779 1770.9 Q280.973 1767.34 277.339 1767.34 M277.339 1763.64 Q283.149 1763.64 286.205 1768.24 Q289.284 1772.83 289.284 1781.58 Q289.284 1790.3 286.205 1794.91 Q283.149 1799.49 277.339 1799.49 Q271.529 1799.49 268.45 1794.91 Q265.395 1790.3 265.395 1781.58 Q265.395 1772.83 268.45 1768.24 Q271.529 1763.64 277.339 1763.64 Z" fill="#000000" fill-rule="nonzero" fill-opacity="1" /><path clip-path="url(#clip770)" d="M1032.48 1764.26 L1050.83 1764.26 L1050.83 1768.2 L1036.76 1768.2 L1036.76 1776.67 Q1037.78 1776.32 1038.8 1776.16 Q1039.81 1775.97 1040.83 1775.97 Q1046.62 1775.97 1050 1779.15 Q1053.38 1782.32 1053.38 1787.73 Q1053.38 1793.31 1049.91 1796.41 Q1046.44 1799.49 1040.12 1799.49 Q1037.94 1799.49 1035.67 1799.12 Q1033.43 1798.75 1031.02 1798.01 L1031.02 1793.31 Q1033.1 1794.45 1035.32 1795 Q1037.55 1795.56 1040.02 1795.56 Q1044.03 1795.56 1046.37 1793.45 Q1048.7 1791.34 1048.7 1787.73 Q1048.7 1784.12 1046.37 1782.02 Q1044.03 1779.91 1040.02 1779.91 Q1038.15 1779.91 1036.27 1780.33 Q1034.42 1780.74 1032.48 1781.62 L1032.48 1764.26 Z" fill="#000000" fill-rule="nonzero" fill-opacity="1" /><path clip-path="url(#clip770)" d="M1781.75 1794.89 L1789.39 1794.89 L1789.39 1768.52 L1781.08 1770.19 L1781.08 1765.93 L1789.34 1764.26 L1794.01 1764.26 L1794.01 1794.89 L1801.65 1794.89 L1801.65 1798.82 L1781.75 1798.82 L1781.75 1794.89 Z" fill="#000000" fill-rule="nonzero" fill-opacity="1" /><path clip-path="url(#clip770)" d="M1821.1 1767.34 Q1817.49 1767.34 1815.66 1770.9 Q1813.85 1774.45 1813.85 1781.58 Q1813.85 1788.68 1815.66 1792.25 Q1817.49 1795.79 1821.1 1795.79 Q1824.73 1795.79 1826.54 1792.25 Q1828.37 1788.68 1828.37 1781.58 Q1828.37 1774.45 1826.54 1770.9 Q1824.73 1767.34 1821.1 1767.34 M1821.1 1763.64 Q1826.91 1763.64 1829.96 1768.24 Q1833.04 1772.83 1833.04 1781.58 Q1833.04 1790.3 1829.96 1794.91 Q1826.91 1799.49 1821.1 1799.49 Q1815.29 1799.49 1812.21 1794.91 Q1809.15 1790.3 1809.15 1781.58 Q1809.15 1772.83 1812.21 1768.24 Q1815.29 1763.64 1821.1 1763.64 Z" fill="#000000" fill-rule="nonzero" fill-opacity="1" /><path clip-path="url(#clip770)" d="M2547.1 1794.89 L2554.74 1794.89 L2554.74 1768.52 L2546.43 1770.19 L2546.43 1765.93 L2554.7 1764.26 L2559.37 1764.26 L2559.37 1794.89 L2567.01 1794.89 L2567.01 1798.82 L2547.1 1798.82 L2547.1 1794.89 Z" fill="#000000" fill-rule="nonzero" fill-opacity="1" /><path clip-path="url(#clip770)" d="M2576.5 1764.26 L2594.86 1764.26 L2594.86 1768.2 L2580.78 1768.2 L2580.78 1776.67 Q2581.8 1776.32 2582.82 1776.16 Q2583.84 1775.97 2584.86 1775.97 Q2590.65 1775.97 2594.02 1779.15 Q2597.4 1782.32 2597.4 1787.73 Q2597.4 1793.31 2593.93 1796.41 Q2590.46 1799.49 2584.14 1799.49 Q2581.96 1799.49 2579.7 1799.12 Q2577.45 1798.75 2575.04 1798.01 L2575.04 1793.31 Q2577.13 1794.45 2579.35 1795 Q2581.57 1795.56 2584.05 1795.56 Q2588.05 1795.56 2590.39 1793.45 Q2592.73 1791.34 2592.73 1787.73 Q2592.73 1784.12 2590.39 1782.02 Q2588.05 1779.91 2584.05 1779.91 Q2582.17 1779.91 2580.3 1780.33 Q2578.45 1780.74 2576.5 1781.62 L2576.5 1764.26 Z" fill="#000000" fill-rule="nonzero" fill-opacity="1" /><path clip-path="url(#clip770)" d="M1346.51 1835.78 L1386.71 1835.78 L1386.71 1841.19 L1369.84 1841.19 L1369.84 1883.3 L1363.37 1883.3 L1363.37 1841.19 L1346.51 1841.19 L1346.51 1835.78 Z" fill="#000000" fill-rule="nonzero" fill-opacity="1" /><path clip-path="url(#clip770)" d="M1390.65 1847.65 L1396.51 1847.65 L1396.51 1883.3 L1390.65 1883.3 L1390.65 1847.65 M1390.65 1833.78 L1396.51 1833.78 L1396.51 1841.19 L1390.65 1841.19 L1390.65 1833.78 Z" fill="#000000" fill-rule="nonzero" fill-opacity="1" /><path clip-path="url(#clip770)" d="M1436.52 1854.5 Q1438.71 1850.55 1441.77 1848.67 Q1444.82 1846.79 1448.96 1846.79 Q1454.53 1846.79 1457.56 1850.71 Q1460.58 1854.59 1460.58 1861.78 L1460.58 1883.3 L1454.69 1883.3 L1454.69 1861.98 Q1454.69 1856.85 1452.88 1854.37 Q1451.06 1851.89 1447.34 1851.89 Q1442.79 1851.89 1440.15 1854.91 Q1437.5 1857.93 1437.5 1863.15 L1437.5 1883.3 L1431.62 1883.3 L1431.62 1861.98 Q1431.62 1856.82 1429.8 1854.37 Q1427.99 1851.89 1424.2 1851.89 Q1419.71 1851.89 1417.07 1854.94 Q1414.43 1857.97 1414.43 1863.15 L1414.43 1883.3 L1408.54 1883.3 L1408.54 1847.65 L1414.43 1847.65 L1414.43 1853.19 Q1416.43 1849.91 1419.23 1848.35 Q1422.03 1846.79 1425.89 1846.79 Q1429.77 1846.79 1432.47 1848.77 Q1435.21 1850.74 1436.52 1854.5 Z" fill="#000000" fill-rule="nonzero" fill-opacity="1" /><path clip-path="url(#clip770)" d="M1502.75 1864.01 L1502.75 1866.88 L1475.83 1866.88 Q1476.21 1872.92 1479.45 1876.11 Q1482.73 1879.26 1488.56 1879.26 Q1491.93 1879.26 1495.08 1878.43 Q1498.26 1877.6 1501.38 1875.95 L1501.38 1881.49 Q1498.23 1882.82 1494.92 1883.52 Q1491.61 1884.22 1488.21 1884.22 Q1479.68 1884.22 1474.68 1879.26 Q1469.71 1874.29 1469.71 1865.83 Q1469.71 1857.07 1474.42 1851.95 Q1479.17 1846.79 1487.19 1846.79 Q1494.38 1846.79 1498.55 1851.44 Q1502.75 1856.06 1502.75 1864.01 M1496.9 1862.29 Q1496.83 1857.49 1494.19 1854.62 Q1491.58 1851.76 1487.25 1851.76 Q1482.35 1851.76 1479.39 1854.53 Q1476.46 1857.3 1476.02 1862.33 L1496.9 1862.29 Z" fill="#000000" fill-rule="nonzero" fill-opacity="1" /><polyline clip-path="url(#clip770)" style="stroke:#000000; stroke-linecap:round; stroke-linejoin:round; stroke-width:4; stroke-opacity:1; fill:none" points="208.502,1734.12 208.502,127.792 "/>
<polyline clip-path="url(#clip770)" style="stroke:#000000; stroke-linecap:round; stroke-linejoin:round; stroke-width:4; stroke-opacity:1; fill:none" points="208.502,1512.92 227.399,1512.92 "/>
<polyline clip-path="url(#clip770)" style="stroke:#000000; stroke-linecap:round; stroke-linejoin:round; stroke-width:4; stroke-opacity:1; fill:none" points="208.502,1182.78 227.399,1182.78 "/>
<polyline clip-path="url(#clip770)" style="stroke:#000000; stroke-linecap:round; stroke-linejoin:round; stroke-width:4; stroke-opacity:1; fill:none" points="208.502,852.638 227.399,852.638 "/>
<polyline clip-path="url(#clip770)" style="stroke:#000000; stroke-linecap:round; stroke-linejoin:round; stroke-width:4; stroke-opacity:1; fill:none" points="208.502,522.495 227.399,522.495 "/>
<polyline clip-path="url(#clip770)" style="stroke:#000000; stroke-linecap:round; stroke-linejoin:round; stroke-width:4; stroke-opacity:1; fill:none" points="208.502,192.352 227.399,192.352 "/>
<path clip-path="url(#clip770)" d="M151.862 1526.27 L168.182 1526.27 L168.182 1530.2 L146.237 1530.2 L146.237 1526.27 Q148.899 1523.51 153.483 1518.88 Q158.089 1514.23 159.27 1512.89 Q161.515 1510.37 162.395 1508.63 Q163.298 1506.87 163.298 1505.18 Q163.298 1502.43 161.353 1500.69 Q159.432 1498.95 156.33 1498.95 Q154.131 1498.95 151.677 1499.72 Q149.247 1500.48 146.469 1502.03 L146.469 1497.31 Q149.293 1496.18 151.747 1495.6 Q154.2 1495.02 156.237 1495.02 Q161.608 1495.02 164.802 1497.7 Q167.997 1500.39 167.997 1504.88 Q167.997 1507.01 167.186 1508.93 Q166.399 1510.83 164.293 1513.42 Q163.714 1514.09 160.612 1517.31 Q157.511 1520.51 151.862 1526.27 Z" fill="#000000" fill-rule="nonzero" fill-opacity="1" /><path clip-path="url(#clip770)" d="M158.598 1169.58 L146.793 1188.02 L158.598 1188.02 L158.598 1169.58 M157.372 1165.5 L163.251 1165.5 L163.251 1188.02 L168.182 1188.02 L168.182 1191.91 L163.251 1191.91 L163.251 1200.06 L158.598 1200.06 L158.598 1191.91 L142.997 1191.91 L142.997 1187.4 L157.372 1165.5 Z" fill="#000000" fill-rule="nonzero" fill-opacity="1" /><path clip-path="url(#clip770)" d="M156.654 850.775 Q153.506 850.775 151.654 852.927 Q149.825 855.08 149.825 858.83 Q149.825 862.557 151.654 864.733 Q153.506 866.886 156.654 866.886 Q159.802 866.886 161.631 864.733 Q163.483 862.557 163.483 858.83 Q163.483 855.08 161.631 852.927 Q159.802 850.775 156.654 850.775 M165.936 836.122 L165.936 840.381 Q164.177 839.548 162.372 839.108 Q160.589 838.668 158.83 838.668 Q154.2 838.668 151.747 841.793 Q149.316 844.918 148.969 851.238 Q150.335 849.224 152.395 848.159 Q154.455 847.071 156.932 847.071 Q162.14 847.071 165.149 850.242 Q168.182 853.39 168.182 858.83 Q168.182 864.154 165.034 867.372 Q161.885 870.589 156.654 870.589 Q150.659 870.589 147.487 866.006 Q144.316 861.4 144.316 852.673 Q144.316 844.478 148.205 839.617 Q152.094 834.733 158.645 834.733 Q160.404 834.733 162.186 835.08 Q163.992 835.427 165.936 836.122 Z" fill="#000000" fill-rule="nonzero" fill-opacity="1" /><path clip-path="url(#clip770)" d="M156.33 523.363 Q152.997 523.363 151.075 525.145 Q149.177 526.928 149.177 530.053 Q149.177 533.178 151.075 534.96 Q152.997 536.742 156.33 536.742 Q159.663 536.742 161.585 534.96 Q163.506 533.155 163.506 530.053 Q163.506 526.928 161.585 525.145 Q159.686 523.363 156.33 523.363 M151.654 521.372 Q148.645 520.631 146.955 518.571 Q145.288 516.511 145.288 513.548 Q145.288 509.405 148.228 506.997 Q151.191 504.59 156.33 504.59 Q161.492 504.59 164.432 506.997 Q167.372 509.405 167.372 513.548 Q167.372 516.511 165.682 518.571 Q164.015 520.631 161.029 521.372 Q164.409 522.159 166.284 524.451 Q168.182 526.743 168.182 530.053 Q168.182 535.076 165.103 537.761 Q162.048 540.446 156.33 540.446 Q150.612 540.446 147.534 537.761 Q144.478 535.076 144.478 530.053 Q144.478 526.743 146.376 524.451 Q148.274 522.159 151.654 521.372 M149.941 513.988 Q149.941 516.673 151.608 518.178 Q153.298 519.682 156.33 519.682 Q159.339 519.682 161.029 518.178 Q162.742 516.673 162.742 513.988 Q162.742 511.303 161.029 509.798 Q159.339 508.294 156.33 508.294 Q153.298 508.294 151.608 509.798 Q149.941 511.303 149.941 513.988 Z" fill="#000000" fill-rule="nonzero" fill-opacity="1" /><path clip-path="url(#clip770)" d="M116.886 205.697 L124.525 205.697 L124.525 179.331 L116.214 180.998 L116.214 176.738 L124.478 175.072 L129.154 175.072 L129.154 205.697 L136.793 205.697 L136.793 209.632 L116.886 209.632 L116.886 205.697 Z" fill="#000000" fill-rule="nonzero" fill-opacity="1" /><path clip-path="url(#clip770)" d="M156.237 178.15 Q152.626 178.15 150.798 181.715 Q148.992 185.257 148.992 192.386 Q148.992 199.493 150.798 203.058 Q152.626 206.599 156.237 206.599 Q159.872 206.599 161.677 203.058 Q163.506 199.493 163.506 192.386 Q163.506 185.257 161.677 181.715 Q159.872 178.15 156.237 178.15 M156.237 174.447 Q162.048 174.447 165.103 179.053 Q168.182 183.636 168.182 192.386 Q168.182 201.113 165.103 205.72 Q162.048 210.303 156.237 210.303 Q150.427 210.303 147.349 205.72 Q144.293 201.113 144.293 192.386 Q144.293 183.636 147.349 179.053 Q150.427 174.447 156.237 174.447 Z" fill="#000000" fill-rule="nonzero" fill-opacity="1" /><path clip-path="url(#clip770)" d="M14.1184 948.938 L14.1184 940.28 L53.8723 919.21 L14.1184 919.21 L14.1184 912.971 L61.6384 912.971 L61.6384 921.629 L21.8846 942.699 L61.6384 942.699 L61.6384 948.938 L14.1184 948.938 Z" fill="#000000" fill-rule="nonzero" fill-opacity="1" /><path clip-path="url(#clip770)" d="M961.671 12.096 L1012.83 12.096 L1012.83 18.9825 L991.364 18.9825 L991.364 72.576 L983.141 72.576 L983.141 18.9825 L961.671 18.9825 L961.671 12.096 Z" fill="#000000" fill-rule="nonzero" fill-opacity="1" /><path clip-path="url(#clip770)" d="M1034.51 34.1734 Q1033.25 33.4443 1031.75 33.1202 Q1030.29 32.7556 1028.51 32.7556 Q1022.19 32.7556 1018.79 36.8875 Q1015.43 40.9789 1015.43 48.6757 L1015.43 72.576 L1007.93 72.576 L1007.93 27.2059 L1015.43 27.2059 L1015.43 34.2544 Q1017.78 30.1225 1021.54 28.1376 Q1025.31 26.1121 1030.7 26.1121 Q1031.47 26.1121 1032.4 26.2337 Q1033.33 26.3147 1034.47 26.5172 L1034.51 34.1734 Z" fill="#000000" fill-rule="nonzero" fill-opacity="1" /><path clip-path="url(#clip770)" d="M1062.94 49.7694 Q1053.91 49.7694 1050.43 51.8354 Q1046.94 53.9013 1046.94 58.8839 Q1046.94 62.8538 1049.54 65.2034 Q1052.17 67.5124 1056.66 67.5124 Q1062.86 67.5124 1066.59 63.1374 Q1070.36 58.7219 1070.36 51.4303 L1070.36 49.7694 L1062.94 49.7694 M1077.81 46.6907 L1077.81 72.576 L1070.36 72.576 L1070.36 65.6895 Q1067.8 69.8214 1064 71.8063 Q1060.19 73.7508 1054.68 73.7508 Q1047.71 73.7508 1043.58 69.8619 Q1039.49 65.9325 1039.49 59.3701 Q1039.49 51.7138 1044.59 47.825 Q1049.74 43.9361 1059.91 43.9361 L1070.36 43.9361 L1070.36 43.2069 Q1070.36 38.0623 1066.95 35.2672 Q1063.59 32.4315 1057.48 32.4315 Q1053.59 32.4315 1049.9 33.3632 Q1046.21 34.295 1042.81 36.1584 L1042.81 29.2718 Q1046.9 27.692 1050.75 26.9223 Q1054.6 26.1121 1058.24 26.1121 Q1068.09 26.1121 1072.95 31.2163 Q1077.81 36.3204 1077.81 46.6907 Z" fill="#000000" fill-rule="nonzero" fill-opacity="1" /><path clip-path="url(#clip770)" d="M1093.16 27.2059 L1100.62 27.2059 L1100.62 73.3862 Q1100.62 82.0551 1097.3 85.944 Q1094.01 89.8329 1086.68 89.8329 L1083.85 89.8329 L1083.85 83.5134 L1085.83 83.5134 Q1090.08 83.5134 1091.62 81.5285 Q1093.16 79.5841 1093.16 73.3862 L1093.16 27.2059 M1093.16 9.54393 L1100.62 9.54393 L1100.62 18.9825 L1093.16 18.9825 L1093.16 9.54393 Z" fill="#000000" fill-rule="nonzero" fill-opacity="1" /><path clip-path="url(#clip770)" d="M1155.02 48.0275 L1155.02 51.6733 L1120.75 51.6733 Q1121.24 59.3701 1125.37 63.421 Q1129.54 67.4314 1136.95 67.4314 Q1141.25 67.4314 1145.26 66.3781 Q1149.31 65.3249 1153.28 63.2184 L1153.28 70.267 Q1149.27 71.9684 1145.06 72.8596 Q1140.84 73.7508 1136.51 73.7508 Q1125.65 73.7508 1119.29 67.4314 Q1112.97 61.1119 1112.97 50.3365 Q1112.97 39.1965 1118.97 32.6746 Q1125 26.1121 1135.21 26.1121 Q1144.37 26.1121 1149.67 32.0264 Q1155.02 37.9003 1155.02 48.0275 M1147.57 45.84 Q1147.49 39.7232 1144.12 36.0774 Q1140.8 32.4315 1135.29 32.4315 Q1129.05 32.4315 1125.29 35.9558 Q1121.56 39.4801 1120.99 45.8805 L1147.57 45.84 Z" fill="#000000" fill-rule="nonzero" fill-opacity="1" /><path clip-path="url(#clip770)" d="M1199.9 28.9478 L1199.9 35.9153 Q1196.75 34.1734 1193.55 33.3227 Q1190.39 32.4315 1187.14 32.4315 Q1179.89 32.4315 1175.88 37.0496 Q1171.87 41.6271 1171.87 49.9314 Q1171.87 58.2358 1175.88 62.8538 Q1179.89 67.4314 1187.14 67.4314 Q1190.39 67.4314 1193.55 66.5807 Q1196.75 65.6895 1199.9 63.9476 L1199.9 70.8341 Q1196.79 72.2924 1193.42 73.0216 Q1190.1 73.7508 1186.33 73.7508 Q1176.09 73.7508 1170.05 67.3098 Q1164.01 60.8689 1164.01 49.9314 Q1164.01 38.832 1170.09 32.472 Q1176.21 26.1121 1186.82 26.1121 Q1190.26 26.1121 1193.55 26.8413 Q1196.83 27.5299 1199.9 28.9478 Z" fill="#000000" fill-rule="nonzero" fill-opacity="1" /><path clip-path="url(#clip770)" d="M1220.24 14.324 L1220.24 27.2059 L1235.59 27.2059 L1235.59 32.9987 L1220.24 32.9987 L1220.24 57.6282 Q1220.24 63.1779 1221.74 64.7578 Q1223.28 66.3376 1227.94 66.3376 L1235.59 66.3376 L1235.59 72.576 L1227.94 72.576 Q1219.31 72.576 1216.03 69.3758 Q1212.75 66.1351 1212.75 57.6282 L1212.75 32.9987 L1207.28 32.9987 L1207.28 27.2059 L1212.75 27.2059 L1212.75 14.324 L1220.24 14.324 Z" fill="#000000" fill-rule="nonzero" fill-opacity="1" /><path clip-path="url(#clip770)" d="M1262.98 32.4315 Q1256.98 32.4315 1253.5 37.1306 Q1250.01 41.7891 1250.01 49.9314 Q1250.01 58.0738 1253.46 62.7728 Q1256.94 67.4314 1262.98 67.4314 Q1268.93 67.4314 1272.42 62.7323 Q1275.9 58.0333 1275.9 49.9314 Q1275.9 41.8701 1272.42 37.1711 Q1268.93 32.4315 1262.98 32.4315 M1262.98 26.1121 Q1272.7 26.1121 1278.25 32.4315 Q1283.8 38.7509 1283.8 49.9314 Q1283.8 61.0714 1278.25 67.4314 Q1272.7 73.7508 1262.98 73.7508 Q1253.21 73.7508 1247.67 67.4314 Q1242.16 61.0714 1242.16 49.9314 Q1242.16 38.7509 1247.67 32.4315 Q1253.21 26.1121 1262.98 26.1121 Z" fill="#000000" fill-rule="nonzero" fill-opacity="1" /><path clip-path="url(#clip770)" d="M1322.44 34.1734 Q1321.19 33.4443 1319.69 33.1202 Q1318.23 32.7556 1316.45 32.7556 Q1310.13 32.7556 1306.73 36.8875 Q1303.37 40.9789 1303.37 48.6757 L1303.37 72.576 L1295.87 72.576 L1295.87 27.2059 L1303.37 27.2059 L1303.37 34.2544 Q1305.71 30.1225 1309.48 28.1376 Q1313.25 26.1121 1318.64 26.1121 Q1319.41 26.1121 1320.34 26.2337 Q1321.27 26.3147 1322.4 26.5172 L1322.44 34.1734 Z" fill="#000000" fill-rule="nonzero" fill-opacity="1" /><path clip-path="url(#clip770)" d="M1349.14 76.7889 Q1345.98 84.8907 1342.98 87.3618 Q1339.99 89.8329 1334.96 89.8329 L1329.01 89.8329 L1329.01 83.5945 L1333.38 83.5945 Q1336.46 83.5945 1338.16 82.1361 Q1339.86 80.6778 1341.93 75.2496 L1343.27 71.8468 L1324.92 27.2059 L1332.82 27.2059 L1346.99 62.6918 L1361.17 27.2059 L1369.07 27.2059 L1349.14 76.7889 Z" fill="#000000" fill-rule="nonzero" fill-opacity="1" /><path clip-path="url(#clip770)" d="M1451.34 16.7545 L1451.34 25.383 Q1447.21 21.5346 1442.51 19.6307 Q1437.86 17.7268 1432.59 17.7268 Q1422.22 17.7268 1416.71 24.0867 Q1411.2 30.4061 1411.2 42.3968 Q1411.2 54.3469 1416.71 60.7069 Q1422.22 67.0263 1432.59 67.0263 Q1437.86 67.0263 1442.51 65.1223 Q1447.21 63.2184 1451.34 59.3701 L1451.34 67.9175 Q1447.05 70.8341 1442.23 72.2924 Q1437.45 73.7508 1432.1 73.7508 Q1418.37 73.7508 1410.47 65.3654 Q1402.57 56.9395 1402.57 42.3968 Q1402.57 27.8135 1410.47 19.4281 Q1418.37 11.0023 1432.1 11.0023 Q1437.53 11.0023 1442.31 12.4606 Q1447.13 13.8784 1451.34 16.7545 Z" fill="#000000" fill-rule="nonzero" fill-opacity="1" /><path clip-path="url(#clip770)" d="M1481.24 32.4315 Q1475.24 32.4315 1471.76 37.1306 Q1468.28 41.7891 1468.28 49.9314 Q1468.28 58.0738 1471.72 62.7728 Q1475.2 67.4314 1481.24 67.4314 Q1487.2 67.4314 1490.68 62.7323 Q1494.16 58.0333 1494.16 49.9314 Q1494.16 41.8701 1490.68 37.1711 Q1487.2 32.4315 1481.24 32.4315 M1481.24 26.1121 Q1490.96 26.1121 1496.51 32.4315 Q1502.06 38.7509 1502.06 49.9314 Q1502.06 61.0714 1496.51 67.4314 Q1490.96 73.7508 1481.24 73.7508 Q1471.48 73.7508 1465.93 67.4314 Q1460.42 61.0714 1460.42 49.9314 Q1460.42 38.7509 1465.93 32.4315 Q1471.48 26.1121 1481.24 26.1121 Z" fill="#000000" fill-rule="nonzero" fill-opacity="1" /><path clip-path="url(#clip770)" d="M1549.74 35.9153 Q1552.54 30.8922 1556.43 28.5022 Q1560.31 26.1121 1565.58 26.1121 Q1572.67 26.1121 1576.52 31.0947 Q1580.37 36.0368 1580.37 45.1919 L1580.37 72.576 L1572.87 72.576 L1572.87 45.4349 Q1572.87 38.913 1570.56 35.7533 Q1568.25 32.5936 1563.51 32.5936 Q1557.72 32.5936 1554.36 36.4419 Q1551 40.2903 1551 46.9338 L1551 72.576 L1543.5 72.576 L1543.5 45.4349 Q1543.5 38.8725 1541.19 35.7533 Q1538.88 32.5936 1534.06 32.5936 Q1528.35 32.5936 1524.99 36.4824 Q1521.63 40.3308 1521.63 46.9338 L1521.63 72.576 L1514.13 72.576 L1514.13 27.2059 L1521.63 27.2059 L1521.63 34.2544 Q1524.18 30.082 1527.74 28.0971 Q1531.31 26.1121 1536.21 26.1121 Q1541.15 26.1121 1544.6 28.6237 Q1548.08 31.1352 1549.74 35.9153 Z" fill="#000000" fill-rule="nonzero" fill-opacity="1" /><path clip-path="url(#clip770)" d="M1602.44 65.7705 L1602.44 89.8329 L1594.95 89.8329 L1594.95 27.2059 L1602.44 27.2059 L1602.44 34.0924 Q1604.79 30.0415 1608.36 28.0971 Q1611.96 26.1121 1616.95 26.1121 Q1625.21 26.1121 1630.35 32.6746 Q1635.54 39.2371 1635.54 49.9314 Q1635.54 60.6258 1630.35 67.1883 Q1625.21 73.7508 1616.95 73.7508 Q1611.96 73.7508 1608.36 71.8063 Q1604.79 69.8214 1602.44 65.7705 M1627.8 49.9314 Q1627.8 41.7081 1624.4 37.0496 Q1621.04 32.3505 1615.12 32.3505 Q1609.21 32.3505 1605.81 37.0496 Q1602.44 41.7081 1602.44 49.9314 Q1602.44 58.1548 1605.81 62.8538 Q1609.21 67.5124 1615.12 67.5124 Q1621.04 67.5124 1624.4 62.8538 Q1627.8 58.1548 1627.8 49.9314 Z" fill="#000000" fill-rule="nonzero" fill-opacity="1" /><path clip-path="url(#clip770)" d="M1668.51 49.7694 Q1659.48 49.7694 1656 51.8354 Q1652.51 53.9013 1652.51 58.8839 Q1652.51 62.8538 1655.11 65.2034 Q1657.74 67.5124 1662.23 67.5124 Q1668.43 67.5124 1672.16 63.1374 Q1675.93 58.7219 1675.93 51.4303 L1675.93 49.7694 L1668.51 49.7694 M1683.38 46.6907 L1683.38 72.576 L1675.93 72.576 L1675.93 65.6895 Q1673.37 69.8214 1669.57 71.8063 Q1665.76 73.7508 1660.25 73.7508 Q1653.28 73.7508 1649.15 69.8619 Q1645.06 65.9325 1645.06 59.3701 Q1645.06 51.7138 1650.16 47.825 Q1655.31 43.9361 1665.48 43.9361 L1675.93 43.9361 L1675.93 43.2069 Q1675.93 38.0623 1672.52 35.2672 Q1669.16 32.4315 1663.04 32.4315 Q1659.16 32.4315 1655.47 33.3632 Q1651.78 34.295 1648.38 36.1584 L1648.38 29.2718 Q1652.47 27.692 1656.32 26.9223 Q1660.17 26.1121 1663.81 26.1121 Q1673.66 26.1121 1678.52 31.2163 Q1683.38 36.3204 1683.38 46.6907 Z" fill="#000000" fill-rule="nonzero" fill-opacity="1" /><path clip-path="url(#clip770)" d="M1725.02 34.1734 Q1723.77 33.4443 1722.27 33.1202 Q1720.81 32.7556 1719.03 32.7556 Q1712.71 32.7556 1709.31 36.8875 Q1705.94 40.9789 1705.94 48.6757 L1705.94 72.576 L1698.45 72.576 L1698.45 27.2059 L1705.94 27.2059 L1705.94 34.2544 Q1708.29 30.1225 1712.06 28.1376 Q1715.83 26.1121 1721.22 26.1121 Q1721.99 26.1121 1722.92 26.2337 Q1723.85 26.3147 1724.98 26.5172 L1725.02 34.1734 Z" fill="#000000" fill-rule="nonzero" fill-opacity="1" /><path clip-path="url(#clip770)" d="M1732.84 27.2059 L1740.3 27.2059 L1740.3 72.576 L1732.84 72.576 L1732.84 27.2059 M1732.84 9.54393 L1740.3 9.54393 L1740.3 18.9825 L1732.84 18.9825 L1732.84 9.54393 Z" fill="#000000" fill-rule="nonzero" fill-opacity="1" /><path clip-path="url(#clip770)" d="M1784.81 28.5427 L1784.81 35.5912 Q1781.66 33.9709 1778.25 33.1607 Q1774.85 32.3505 1771.2 32.3505 Q1765.65 32.3505 1762.86 34.0519 Q1760.1 35.7533 1760.1 39.156 Q1760.1 41.7486 1762.09 43.2475 Q1764.07 44.7058 1770.07 46.0426 L1772.62 46.6097 Q1780.56 48.3111 1783.88 51.4303 Q1787.25 54.509 1787.25 60.0587 Q1787.25 66.3781 1782.22 70.0644 Q1777.24 73.7508 1768.49 73.7508 Q1764.84 73.7508 1760.87 73.0216 Q1756.94 72.3329 1752.57 70.9151 L1752.57 63.2184 Q1756.7 65.3654 1760.71 66.4591 Q1764.72 67.5124 1768.65 67.5124 Q1773.92 67.5124 1776.75 65.73 Q1779.59 63.9071 1779.59 60.6258 Q1779.59 57.5877 1777.52 55.9673 Q1775.5 54.3469 1768.57 52.8481 L1765.98 52.2405 Q1759.05 50.7821 1755.97 47.7845 Q1752.89 44.7463 1752.89 39.4801 Q1752.89 33.0797 1757.43 29.5959 Q1761.97 26.1121 1770.31 26.1121 Q1774.44 26.1121 1778.09 26.7198 Q1781.74 27.3274 1784.81 28.5427 Z" fill="#000000" fill-rule="nonzero" fill-opacity="1" /><path clip-path="url(#clip770)" d="M1816.7 32.4315 Q1810.7 32.4315 1807.22 37.1306 Q1803.73 41.7891 1803.73 49.9314 Q1803.73 58.0738 1807.18 62.7728 Q1810.66 67.4314 1816.7 67.4314 Q1822.65 67.4314 1826.13 62.7323 Q1829.62 58.0333 1829.62 49.9314 Q1829.62 41.8701 1826.13 37.1711 Q1822.65 32.4315 1816.7 32.4315 M1816.7 26.1121 Q1826.42 26.1121 1831.97 32.4315 Q1837.52 38.7509 1837.52 49.9314 Q1837.52 61.0714 1831.97 67.4314 Q1826.42 73.7508 1816.7 73.7508 Q1806.93 73.7508 1801.38 67.4314 Q1795.87 61.0714 1795.87 49.9314 Q1795.87 38.7509 1801.38 32.4315 Q1806.93 26.1121 1816.7 26.1121 Z" fill="#000000" fill-rule="nonzero" fill-opacity="1" /><path clip-path="url(#clip770)" d="M1887.59 45.1919 L1887.59 72.576 L1880.13 72.576 L1880.13 45.4349 Q1880.13 38.994 1877.62 35.7938 Q1875.11 32.5936 1870.09 32.5936 Q1864.05 32.5936 1860.57 36.4419 Q1857.08 40.2903 1857.08 46.9338 L1857.08 72.576 L1849.59 72.576 L1849.59 27.2059 L1857.08 27.2059 L1857.08 34.2544 Q1859.76 30.163 1863.36 28.1376 Q1867.01 26.1121 1871.75 26.1121 Q1879.57 26.1121 1883.58 30.9732 Q1887.59 35.7938 1887.59 45.1919 Z" fill="#000000" fill-rule="nonzero" fill-opacity="1" /><circle clip-path="url(#clip771)" cx="277.339" cy="1688.65" r="10.8" fill="#009af9" fill-rule="evenodd" fill-opacity="0.6" stroke="#000000" stroke-opacity="0.6" stroke-width="3.84"/>
<circle clip-path="url(#clip771)" cx="353.825" cy="1661.12" r="10.8" fill="#009af9" fill-rule="evenodd" fill-opacity="0.6" stroke="#000000" stroke-opacity="0.6" stroke-width="3.84"/>
<circle clip-path="url(#clip771)" cx="430.311" cy="1614.29" r="10.8" fill="#009af9" fill-rule="evenodd" fill-opacity="0.6" stroke="#000000" stroke-opacity="0.6" stroke-width="3.84"/>
<circle clip-path="url(#clip771)" cx="506.797" cy="1532.32" r="10.8" fill="#009af9" fill-rule="evenodd" fill-opacity="0.6" stroke="#000000" stroke-opacity="0.6" stroke-width="3.84"/>
<circle clip-path="url(#clip771)" cx="583.283" cy="1452.03" r="10.8" fill="#009af9" fill-rule="evenodd" fill-opacity="0.6" stroke="#000000" stroke-opacity="0.6" stroke-width="3.84"/>
<circle clip-path="url(#clip771)" cx="659.769" cy="1365.59" r="10.8" fill="#009af9" fill-rule="evenodd" fill-opacity="0.6" stroke="#000000" stroke-opacity="0.6" stroke-width="3.84"/>
<circle clip-path="url(#clip771)" cx="736.255" cy="1293" r="10.8" fill="#009af9" fill-rule="evenodd" fill-opacity="0.6" stroke="#000000" stroke-opacity="0.6" stroke-width="3.84"/>
<circle clip-path="url(#clip771)" cx="812.741" cy="1173.68" r="10.8" fill="#009af9" fill-rule="evenodd" fill-opacity="0.6" stroke="#000000" stroke-opacity="0.6" stroke-width="3.84"/>
<circle clip-path="url(#clip771)" cx="889.227" cy="1120.98" r="10.8" fill="#009af9" fill-rule="evenodd" fill-opacity="0.6" stroke="#000000" stroke-opacity="0.6" stroke-width="3.84"/>
<circle clip-path="url(#clip771)" cx="965.713" cy="989.137" r="10.8" fill="#009af9" fill-rule="evenodd" fill-opacity="0.6" stroke="#000000" stroke-opacity="0.6" stroke-width="3.84"/>
<circle clip-path="url(#clip771)" cx="1042.2" cy="883.912" r="10.8" fill="#009af9" fill-rule="evenodd" fill-opacity="0.6" stroke="#000000" stroke-opacity="0.6" stroke-width="3.84"/>
<circle clip-path="url(#clip771)" cx="1118.68" cy="807.912" r="10.8" fill="#009af9" fill-rule="evenodd" fill-opacity="0.6" stroke="#000000" stroke-opacity="0.6" stroke-width="3.84"/>
<circle clip-path="url(#clip771)" cx="1195.17" cy="704.399" r="10.8" fill="#009af9" fill-rule="evenodd" fill-opacity="0.6" stroke="#000000" stroke-opacity="0.6" stroke-width="3.84"/>
<circle clip-path="url(#clip771)" cx="1271.66" cy="630.186" r="10.8" fill="#009af9" fill-rule="evenodd" fill-opacity="0.6" stroke="#000000" stroke-opacity="0.6" stroke-width="3.84"/>
<circle clip-path="url(#clip771)" cx="1348.14" cy="533.767" r="10.8" fill="#009af9" fill-rule="evenodd" fill-opacity="0.6" stroke="#000000" stroke-opacity="0.6" stroke-width="3.84"/>
<circle clip-path="url(#clip771)" cx="1424.63" cy="482.669" r="10.8" fill="#009af9" fill-rule="evenodd" fill-opacity="0.6" stroke="#000000" stroke-opacity="0.6" stroke-width="3.84"/>
<circle clip-path="url(#clip771)" cx="1501.11" cy="422.536" r="10.8" fill="#009af9" fill-rule="evenodd" fill-opacity="0.6" stroke="#000000" stroke-opacity="0.6" stroke-width="3.84"/>
<circle clip-path="url(#clip771)" cx="1577.6" cy="396.972" r="10.8" fill="#009af9" fill-rule="evenodd" fill-opacity="0.6" stroke="#000000" stroke-opacity="0.6" stroke-width="3.84"/>
<circle clip-path="url(#clip771)" cx="1654.09" cy="333.963" r="10.8" fill="#009af9" fill-rule="evenodd" fill-opacity="0.6" stroke="#000000" stroke-opacity="0.6" stroke-width="3.84"/>
<circle clip-path="url(#clip771)" cx="1730.57" cy="320.343" r="10.8" fill="#009af9" fill-rule="evenodd" fill-opacity="0.6" stroke="#000000" stroke-opacity="0.6" stroke-width="3.84"/>
<circle clip-path="url(#clip771)" cx="1807.06" cy="282.329" r="10.8" fill="#009af9" fill-rule="evenodd" fill-opacity="0.6" stroke="#000000" stroke-opacity="0.6" stroke-width="3.84"/>
<circle clip-path="url(#clip771)" cx="1883.54" cy="288.474" r="10.8" fill="#009af9" fill-rule="evenodd" fill-opacity="0.6" stroke="#000000" stroke-opacity="0.6" stroke-width="3.84"/>
<circle clip-path="url(#clip771)" cx="1960.03" cy="271.983" r="10.8" fill="#009af9" fill-rule="evenodd" fill-opacity="0.6" stroke="#000000" stroke-opacity="0.6" stroke-width="3.84"/>
<circle clip-path="url(#clip771)" cx="2036.52" cy="231.901" r="10.8" fill="#009af9" fill-rule="evenodd" fill-opacity="0.6" stroke="#000000" stroke-opacity="0.6" stroke-width="3.84"/>
<circle clip-path="url(#clip771)" cx="2113" cy="226.574" r="10.8" fill="#009af9" fill-rule="evenodd" fill-opacity="0.6" stroke="#000000" stroke-opacity="0.6" stroke-width="3.84"/>
<circle clip-path="url(#clip771)" cx="2189.49" cy="216.046" r="10.8" fill="#009af9" fill-rule="evenodd" fill-opacity="0.6" stroke="#000000" stroke-opacity="0.6" stroke-width="3.84"/>
<circle clip-path="url(#clip771)" cx="2265.97" cy="213.45" r="10.8" fill="#009af9" fill-rule="evenodd" fill-opacity="0.6" stroke="#000000" stroke-opacity="0.6" stroke-width="3.84"/>
<circle clip-path="url(#clip771)" cx="2342.46" cy="202.952" r="10.8" fill="#009af9" fill-rule="evenodd" fill-opacity="0.6" stroke="#000000" stroke-opacity="0.6" stroke-width="3.84"/>
<circle clip-path="url(#clip771)" cx="2418.95" cy="208.335" r="10.8" fill="#009af9" fill-rule="evenodd" fill-opacity="0.6" stroke="#000000" stroke-opacity="0.6" stroke-width="3.84"/>
<circle clip-path="url(#clip771)" cx="2495.43" cy="173.254" r="10.8" fill="#009af9" fill-rule="evenodd" fill-opacity="0.6" stroke="#000000" stroke-opacity="0.6" stroke-width="3.84"/>
<circle clip-path="url(#clip771)" cx="2571.92" cy="192.556" r="10.8" fill="#009af9" fill-rule="evenodd" fill-opacity="0.6" stroke="#000000" stroke-opacity="0.6" stroke-width="3.84"/>
<polyline clip-path="url(#clip771)" style="stroke:#e26f46; stroke-linecap:round; stroke-linejoin:round; stroke-width:8; stroke-opacity:1; fill:none" points="277.339,1678 353.825,1644.54 430.311,1615 506.797,1595.1 583.283,1582.6 659.769,1573.91 736.255,1566.85 812.741,1559.96 889.227,1551.46 965.713,1535.94 1042.2,765.846 1118.68,188.89 1195.17,188.89 1271.66,188.89 1348.14,188.89 1424.63,188.89 1501.11,188.89 1577.6,188.89 1654.09,188.89 1730.57,188.89 1807.06,188.89 1883.54,188.89 1960.03,188.89 2036.52,188.89 2113,188.89 2189.49,188.89 2265.97,188.89 2342.46,188.89 2418.95,188.89 2495.43,188.89 2571.92,188.89 "/>
<polyline clip-path="url(#clip771)" style="stroke:#3da44d; stroke-linecap:round; stroke-linejoin:round; stroke-width:8; stroke-opacity:1; fill:none" stroke-dasharray="32, 20" points="277.339,1678 353.825,1636.64 430.311,1586.74 506.797,1527.48 583.283,1458.38 659.769,1379.53 736.255,1291.74 812.741,1196.61 889.227,1096.5 965.713,994.302 1042.2,893.127 1118.68,795.92 1195.17,705.142 1271.66,622.553 1348.14,549.15 1424.63,485.229 1501.11,430.531 1577.6,384.417 1654.09,346.021 1730.57,314.382 1807.06,288.53 1883.54,267.553 1960.03,250.629 2036.52,237.037 2113,226.162 2189.49,217.486 2265.97,210.582 2342.46,205.098 2418.95,200.749 2495.43,197.304 2571.92,194.578 "/>
<path clip-path="url(#clip770)" d="M289.577 388.696 L947.407 388.696 L947.407 181.336 L289.577 181.336  Z" fill="#ffffff" fill-rule="evenodd" fill-opacity="1"/>
<polyline clip-path="url(#clip770)" style="stroke:#000000; stroke-linecap:round; stroke-linejoin:round; stroke-width:4; stroke-opacity:1; fill:none" points="289.577,388.696 947.407,388.696 947.407,181.336 289.577,181.336 289.577,388.696 "/>
<circle clip-path="url(#clip770)" cx="397.677" cy="233.176" r="19.7486" fill="#009af9" fill-rule="evenodd" fill-opacity="0.6" stroke="#000000" stroke-opacity="0.6" stroke-width="7.02171"/>
<path clip-path="url(#clip770)" d="M510.453 219.739 L510.453 246.614 L516.101 246.614 Q523.254 246.614 526.564 243.373 Q529.898 240.132 529.898 233.142 Q529.898 226.197 526.564 222.98 Q523.254 219.739 516.101 219.739 L510.453 219.739 M505.777 215.896 L515.384 215.896 Q525.43 215.896 530.129 220.086 Q534.828 224.253 534.828 233.142 Q534.828 242.077 530.106 246.266 Q525.384 250.456 515.384 250.456 L505.777 250.456 L505.777 215.896 Z" fill="#000000" fill-rule="nonzero" fill-opacity="1" /><path clip-path="url(#clip770)" d="M553.879 237.424 Q548.717 237.424 546.726 238.604 Q544.735 239.785 544.735 242.632 Q544.735 244.901 546.217 246.243 Q547.721 247.563 550.291 247.563 Q553.833 247.563 555.962 245.063 Q558.115 242.54 558.115 238.373 L558.115 237.424 L553.879 237.424 M562.374 235.665 L562.374 250.456 L558.115 250.456 L558.115 246.521 Q556.657 248.882 554.481 250.016 Q552.305 251.128 549.157 251.128 Q545.175 251.128 542.814 248.905 Q540.476 246.66 540.476 242.91 Q540.476 238.535 543.393 236.313 Q546.333 234.091 552.143 234.091 L558.115 234.091 L558.115 233.674 Q558.115 230.734 556.171 229.137 Q554.249 227.517 550.754 227.517 Q548.532 227.517 546.425 228.049 Q544.319 228.581 542.374 229.646 L542.374 225.711 Q544.712 224.808 546.911 224.368 Q549.11 223.906 551.194 223.906 Q556.819 223.906 559.596 226.822 Q562.374 229.739 562.374 235.665 Z" fill="#000000" fill-rule="nonzero" fill-opacity="1" /><path clip-path="url(#clip770)" d="M575.36 217.169 L575.36 224.531 L584.133 224.531 L584.133 227.841 L575.36 227.841 L575.36 241.915 Q575.36 245.086 576.217 245.989 Q577.096 246.891 579.758 246.891 L584.133 246.891 L584.133 250.456 L579.758 250.456 Q574.828 250.456 572.953 248.628 Q571.078 246.776 571.078 241.915 L571.078 227.841 L567.953 227.841 L567.953 224.531 L571.078 224.531 L571.078 217.169 L575.36 217.169 Z" fill="#000000" fill-rule="nonzero" fill-opacity="1" /><path clip-path="url(#clip770)" d="M601.517 237.424 Q596.355 237.424 594.365 238.604 Q592.374 239.785 592.374 242.632 Q592.374 244.901 593.855 246.243 Q595.36 247.563 597.93 247.563 Q601.471 247.563 603.601 245.063 Q605.754 242.54 605.754 238.373 L605.754 237.424 L601.517 237.424 M610.013 235.665 L610.013 250.456 L605.754 250.456 L605.754 246.521 Q604.295 248.882 602.119 250.016 Q599.943 251.128 596.795 251.128 Q592.814 251.128 590.453 248.905 Q588.115 246.66 588.115 242.91 Q588.115 238.535 591.031 236.313 Q593.971 234.091 599.781 234.091 L605.754 234.091 L605.754 233.674 Q605.754 230.734 603.809 229.137 Q601.888 227.517 598.393 227.517 Q596.17 227.517 594.064 228.049 Q591.957 228.581 590.013 229.646 L590.013 225.711 Q592.351 224.808 594.55 224.368 Q596.749 223.906 598.832 223.906 Q604.457 223.906 607.235 226.822 Q610.013 229.739 610.013 235.665 Z" fill="#000000" fill-rule="nonzero" fill-opacity="1" /><polyline clip-path="url(#clip770)" style="stroke:#e26f46; stroke-linecap:round; stroke-linejoin:round; stroke-width:8; stroke-opacity:1; fill:none" points="316.602,285.016 478.752,285.016 "/>
<path clip-path="url(#clip770)" d="M531.333 297.366 L531.333 288.083 L523.694 288.083 L523.694 284.241 L535.962 284.241 L535.962 299.079 Q533.254 301 529.99 301.995 Q526.726 302.968 523.023 302.968 Q514.921 302.968 510.337 298.245 Q505.777 293.5 505.777 285.051 Q505.777 276.579 510.337 271.857 Q514.921 267.111 523.023 267.111 Q526.402 267.111 529.435 267.945 Q532.49 268.778 535.06 270.398 L535.06 275.375 Q532.467 273.176 529.55 272.065 Q526.634 270.954 523.416 270.954 Q517.074 270.954 513.879 274.496 Q510.708 278.037 510.708 285.051 Q510.708 292.042 513.879 295.583 Q517.074 299.125 523.416 299.125 Q525.893 299.125 527.837 298.708 Q529.782 298.269 531.333 297.366 Z" fill="#000000" fill-rule="nonzero" fill-opacity="1" /><path clip-path="url(#clip770)" d="M570.383 270.398 L570.383 275.329 Q568.022 273.13 565.337 272.042 Q562.675 270.954 559.666 270.954 Q553.74 270.954 550.592 274.588 Q547.444 278.199 547.444 285.051 Q547.444 291.88 550.592 295.514 Q553.74 299.125 559.666 299.125 Q562.675 299.125 565.337 298.037 Q568.022 296.949 570.383 294.75 L570.383 299.634 Q567.93 301.301 565.175 302.134 Q562.444 302.968 559.388 302.968 Q551.541 302.968 547.027 298.176 Q542.513 293.361 542.513 285.051 Q542.513 276.718 547.027 271.926 Q551.541 267.111 559.388 267.111 Q562.49 267.111 565.221 267.945 Q567.976 268.755 570.383 270.398 Z" fill="#000000" fill-rule="nonzero" fill-opacity="1" /><path clip-path="url(#clip770)" d="M586.518 302.296 L573.323 267.736 L578.207 267.736 L589.156 296.833 L600.129 267.736 L604.99 267.736 L591.818 302.296 L586.518 302.296 Z" fill="#000000" fill-rule="nonzero" fill-opacity="1" /><path clip-path="url(#clip770)" d="M635.152 266.324 Q632.05 271.648 630.545 276.857 Q629.04 282.065 629.04 287.412 Q629.04 292.759 630.545 298.014 Q632.073 303.245 635.152 308.546 L631.448 308.546 Q627.976 303.106 626.24 297.852 Q624.527 292.597 624.527 287.412 Q624.527 282.25 626.24 277.019 Q627.953 271.787 631.448 266.324 L635.152 266.324 Z" fill="#000000" fill-rule="nonzero" fill-opacity="1" /><path clip-path="url(#clip770)" d="M643.415 266.278 L647.675 266.278 L647.675 302.296 L643.415 302.296 L643.415 266.278 Z" fill="#000000" fill-rule="nonzero" fill-opacity="1" /><path clip-path="url(#clip770)" d="M666.633 279.357 Q663.207 279.357 661.216 282.042 Q659.226 284.704 659.226 289.357 Q659.226 294.009 661.193 296.694 Q663.184 299.356 666.633 299.356 Q670.036 299.356 672.026 296.671 Q674.017 293.986 674.017 289.357 Q674.017 284.75 672.026 282.065 Q670.036 279.357 666.633 279.357 M666.633 275.746 Q672.188 275.746 675.36 279.357 Q678.531 282.968 678.531 289.357 Q678.531 295.722 675.36 299.356 Q672.188 302.968 666.633 302.968 Q661.054 302.968 657.883 299.356 Q654.735 295.722 654.735 289.357 Q654.735 282.968 657.883 279.357 Q661.054 275.746 666.633 275.746 Z" fill="#000000" fill-rule="nonzero" fill-opacity="1" /><path clip-path="url(#clip770)" d="M702.119 277.134 L702.119 281.162 Q700.313 280.236 698.369 279.773 Q696.424 279.31 694.341 279.31 Q691.17 279.31 689.573 280.283 Q687.999 281.255 687.999 283.199 Q687.999 284.681 689.133 285.537 Q690.267 286.37 693.693 287.134 L695.151 287.458 Q699.688 288.431 701.586 290.213 Q703.508 291.972 703.508 295.144 Q703.508 298.755 700.637 300.861 Q697.79 302.968 692.79 302.968 Q690.707 302.968 688.438 302.551 Q686.193 302.157 683.693 301.347 L683.693 296.949 Q686.054 298.176 688.346 298.801 Q690.637 299.403 692.883 299.403 Q695.892 299.403 697.512 298.384 Q699.133 297.343 699.133 295.468 Q699.133 293.732 697.952 292.806 Q696.795 291.88 692.836 291.023 L691.355 290.676 Q687.397 289.843 685.637 288.13 Q683.878 286.394 683.878 283.384 Q683.878 279.727 686.471 277.736 Q689.063 275.746 693.832 275.746 Q696.193 275.746 698.276 276.093 Q700.36 276.44 702.119 277.134 Z" fill="#000000" fill-rule="nonzero" fill-opacity="1" /><path clip-path="url(#clip770)" d="M726.818 277.134 L726.818 281.162 Q725.012 280.236 723.068 279.773 Q721.123 279.31 719.04 279.31 Q715.869 279.31 714.272 280.283 Q712.697 281.255 712.697 283.199 Q712.697 284.681 713.832 285.537 Q714.966 286.37 718.392 287.134 L719.85 287.458 Q724.387 288.431 726.285 290.213 Q728.207 291.972 728.207 295.144 Q728.207 298.755 725.336 300.861 Q722.489 302.968 717.489 302.968 Q715.406 302.968 713.137 302.551 Q710.892 302.157 708.392 301.347 L708.392 296.949 Q710.753 298.176 713.045 298.801 Q715.336 299.403 717.582 299.403 Q720.591 299.403 722.211 298.384 Q723.832 297.343 723.832 295.468 Q723.832 293.732 722.651 292.806 Q721.494 291.88 717.535 291.023 L716.054 290.676 Q712.096 289.843 710.336 288.13 Q708.577 286.394 708.577 283.384 Q708.577 279.727 711.17 277.736 Q713.762 275.746 718.531 275.746 Q720.892 275.746 722.975 276.093 Q725.058 276.44 726.818 277.134 Z" fill="#000000" fill-rule="nonzero" fill-opacity="1" /><path clip-path="url(#clip770)" d="M735.545 280.769 L765.22 280.769 L765.22 284.657 L735.545 284.657 L735.545 280.769 M735.545 290.213 L765.22 290.213 L765.22 294.148 L735.545 294.148 L735.545 290.213 Z" fill="#000000" fill-rule="nonzero" fill-opacity="1" /><path clip-path="url(#clip770)" d="M774.132 267.736 L796.354 267.736 L796.354 269.727 L783.808 302.296 L778.924 302.296 L790.729 271.671 L774.132 271.671 L774.132 267.736 Z" fill="#000000" fill-rule="nonzero" fill-opacity="1" /><path clip-path="url(#clip770)" d="M819.641 283.662 Q822.998 284.38 824.873 286.648 Q826.771 288.917 826.771 292.25 Q826.771 297.366 823.252 300.167 Q819.734 302.968 813.252 302.968 Q811.077 302.968 808.762 302.528 Q806.47 302.111 804.016 301.255 L804.016 296.741 Q805.961 297.875 808.276 298.454 Q810.59 299.032 813.114 299.032 Q817.512 299.032 819.803 297.296 Q822.118 295.56 822.118 292.25 Q822.118 289.195 819.965 287.482 Q817.836 285.745 814.016 285.745 L809.989 285.745 L809.989 281.903 L814.202 281.903 Q817.651 281.903 819.479 280.537 Q821.308 279.148 821.308 276.556 Q821.308 273.894 819.41 272.482 Q817.535 271.046 814.016 271.046 Q812.095 271.046 809.896 271.463 Q807.697 271.88 805.058 272.759 L805.058 268.593 Q807.72 267.852 810.035 267.482 Q812.373 267.111 814.433 267.111 Q819.757 267.111 822.859 269.542 Q825.961 271.949 825.961 276.07 Q825.961 278.94 824.317 280.931 Q822.674 282.898 819.641 283.662 Z" fill="#000000" fill-rule="nonzero" fill-opacity="1" /><path clip-path="url(#clip770)" d="M835.637 296.417 L840.521 296.417 L840.521 302.296 L835.637 302.296 L835.637 296.417 Z" fill="#000000" fill-rule="nonzero" fill-opacity="1" /><path clip-path="url(#clip770)" d="M850.752 267.736 L869.109 267.736 L869.109 271.671 L855.035 271.671 L855.035 280.144 Q856.053 279.796 857.072 279.634 Q858.09 279.449 859.109 279.449 Q864.896 279.449 868.275 282.62 Q871.655 285.792 871.655 291.208 Q871.655 296.787 868.183 299.889 Q864.711 302.968 858.391 302.968 Q856.215 302.968 853.947 302.597 Q851.701 302.227 849.294 301.486 L849.294 296.787 Q851.377 297.921 853.599 298.477 Q855.822 299.032 858.299 299.032 Q862.303 299.032 864.641 296.926 Q866.979 294.819 866.979 291.208 Q866.979 287.597 864.641 285.491 Q862.303 283.384 858.299 283.384 Q856.424 283.384 854.549 283.801 Q852.697 284.218 850.752 285.097 L850.752 267.736 Z" fill="#000000" fill-rule="nonzero" fill-opacity="1" /><path clip-path="url(#clip770)" d="M884.896 298.361 L901.215 298.361 L901.215 302.296 L879.271 302.296 L879.271 298.361 Q881.933 295.607 886.516 290.977 Q891.122 286.324 892.303 284.982 Q894.548 282.458 895.428 280.722 Q896.331 278.963 896.331 277.273 Q896.331 274.519 894.386 272.783 Q892.465 271.046 889.363 271.046 Q887.164 271.046 884.71 271.81 Q882.28 272.574 879.502 274.125 L879.502 269.403 Q882.326 268.269 884.78 267.69 Q887.234 267.111 889.271 267.111 Q894.641 267.111 897.835 269.796 Q901.03 272.482 901.03 276.972 Q901.03 279.102 900.22 281.023 Q899.433 282.921 897.326 285.514 Q896.747 286.185 893.646 289.403 Q890.544 292.597 884.896 298.361 Z" fill="#000000" fill-rule="nonzero" fill-opacity="1" /><path clip-path="url(#clip770)" d="M909.757 266.324 L913.46 266.324 Q916.932 271.787 918.645 277.019 Q920.382 282.25 920.382 287.412 Q920.382 292.597 918.645 297.852 Q916.932 303.106 913.46 308.546 L909.757 308.546 Q912.835 303.245 914.34 298.014 Q915.868 292.759 915.868 287.412 Q915.868 282.065 914.34 276.857 Q912.835 271.648 909.757 266.324 Z" fill="#000000" fill-rule="nonzero" fill-opacity="1" /><polyline clip-path="url(#clip770)" style="stroke:#3da44d; stroke-linecap:round; stroke-linejoin:round; stroke-width:8; stroke-opacity:1; fill:none" stroke-dasharray="32, 20" points="316.602,336.856 478.752,336.856 "/>
<path clip-path="url(#clip770)" d="M505.777 319.576 L510.453 319.576 L510.453 350.201 L527.282 350.201 L527.282 354.136 L505.777 354.136 L505.777 319.576 Z" fill="#000000" fill-rule="nonzero" fill-opacity="1" /><path clip-path="url(#clip770)" d="M544.828 324.183 L538.485 341.382 L551.194 341.382 L544.828 324.183 M542.189 319.576 L547.49 319.576 L560.661 354.136 L555.8 354.136 L552.652 345.271 L537.073 345.271 L533.925 354.136 L528.995 354.136 L542.189 319.576 Z" fill="#000000" fill-rule="nonzero" fill-opacity="1" /><path clip-path="url(#clip770)" d="M565.707 319.576 L572.675 319.576 L581.494 343.095 L590.36 319.576 L597.328 319.576 L597.328 354.136 L592.768 354.136 L592.768 323.789 L583.856 347.493 L579.157 347.493 L570.245 323.789 L570.245 354.136 L565.707 354.136 L565.707 319.576 Z" fill="#000000" fill-rule="nonzero" fill-opacity="1" /><path clip-path="url(#clip770)" d="M606.61 319.576 L611.286 319.576 L611.286 350.201 L628.115 350.201 L628.115 354.136 L606.61 354.136 L606.61 319.576 Z" fill="#000000" fill-rule="nonzero" fill-opacity="1" /><path clip-path="url(#clip770)" d="M658.138 318.164 Q655.036 323.488 653.531 328.697 Q652.026 333.905 652.026 339.252 Q652.026 344.599 653.531 349.854 Q655.059 355.085 658.138 360.386 L654.434 360.386 Q650.962 354.946 649.226 349.692 Q647.513 344.437 647.513 339.252 Q647.513 334.09 649.226 328.859 Q650.939 323.627 654.434 318.164 L658.138 318.164 Z" fill="#000000" fill-rule="nonzero" fill-opacity="1" /><path clip-path="url(#clip770)" d="M666.401 318.118 L670.661 318.118 L670.661 354.136 L666.401 354.136 L666.401 318.118 Z" fill="#000000" fill-rule="nonzero" fill-opacity="1" /><path clip-path="url(#clip770)" d="M689.619 331.197 Q686.193 331.197 684.202 333.882 Q682.212 336.544 682.212 341.197 Q682.212 345.849 684.179 348.534 Q686.17 351.196 689.619 351.196 Q693.022 351.196 695.012 348.511 Q697.003 345.826 697.003 341.197 Q697.003 336.59 695.012 333.905 Q693.022 331.197 689.619 331.197 M689.619 327.586 Q695.174 327.586 698.346 331.197 Q701.517 334.808 701.517 341.197 Q701.517 347.562 698.346 351.196 Q695.174 354.808 689.619 354.808 Q684.04 354.808 680.869 351.196 Q677.721 347.562 677.721 341.197 Q677.721 334.808 680.869 331.197 Q684.04 327.586 689.619 327.586 Z" fill="#000000" fill-rule="nonzero" fill-opacity="1" /><path clip-path="url(#clip770)" d="M725.105 328.974 L725.105 333.002 Q723.299 332.076 721.355 331.613 Q719.41 331.15 717.327 331.15 Q714.156 331.15 712.559 332.123 Q710.984 333.095 710.984 335.039 Q710.984 336.521 712.119 337.377 Q713.253 338.21 716.679 338.974 L718.137 339.298 Q722.674 340.271 724.572 342.053 Q726.494 343.812 726.494 346.984 Q726.494 350.595 723.623 352.701 Q720.776 354.808 715.776 354.808 Q713.693 354.808 711.424 354.391 Q709.179 353.997 706.679 353.187 L706.679 348.789 Q709.04 350.016 711.332 350.641 Q713.623 351.243 715.869 351.243 Q718.878 351.243 720.498 350.224 Q722.119 349.183 722.119 347.308 Q722.119 345.572 720.938 344.646 Q719.781 343.72 715.822 342.863 L714.341 342.516 Q710.383 341.683 708.623 339.97 Q706.864 338.234 706.864 335.224 Q706.864 331.567 709.457 329.576 Q712.049 327.586 716.818 327.586 Q719.179 327.586 721.262 327.933 Q723.346 328.28 725.105 328.974 Z" fill="#000000" fill-rule="nonzero" fill-opacity="1" /><path clip-path="url(#clip770)" d="M749.804 328.974 L749.804 333.002 Q747.998 332.076 746.054 331.613 Q744.109 331.15 742.026 331.15 Q738.855 331.15 737.258 332.123 Q735.683 333.095 735.683 335.039 Q735.683 336.521 736.818 337.377 Q737.952 338.21 741.378 338.974 L742.836 339.298 Q747.373 340.271 749.271 342.053 Q751.193 343.812 751.193 346.984 Q751.193 350.595 748.322 352.701 Q745.475 354.808 740.475 354.808 Q738.392 354.808 736.123 354.391 Q733.878 353.997 731.378 353.187 L731.378 348.789 Q733.739 350.016 736.031 350.641 Q738.322 351.243 740.568 351.243 Q743.577 351.243 745.197 350.224 Q746.818 349.183 746.818 347.308 Q746.818 345.572 745.637 344.646 Q744.48 343.72 740.521 342.863 L739.04 342.516 Q735.082 341.683 733.322 339.97 Q731.563 338.234 731.563 335.224 Q731.563 331.567 734.156 329.576 Q736.748 327.586 741.517 327.586 Q743.878 327.586 745.961 327.933 Q748.044 328.28 749.804 328.974 Z" fill="#000000" fill-rule="nonzero" fill-opacity="1" /><path clip-path="url(#clip770)" d="M758.531 332.609 L788.206 332.609 L788.206 336.497 L758.531 336.497 L758.531 332.609 M758.531 342.053 L788.206 342.053 L788.206 345.988 L758.531 345.988 L758.531 342.053 Z" fill="#000000" fill-rule="nonzero" fill-opacity="1" /><path clip-path="url(#clip770)" d="M808.299 322.655 Q804.688 322.655 802.859 326.22 Q801.053 329.761 801.053 336.891 Q801.053 343.997 802.859 347.562 Q804.688 351.104 808.299 351.104 Q811.933 351.104 813.739 347.562 Q815.567 343.997 815.567 336.891 Q815.567 329.761 813.739 326.22 Q811.933 322.655 808.299 322.655 M808.299 318.951 Q814.109 318.951 817.164 323.558 Q820.243 328.141 820.243 336.891 Q820.243 345.618 817.164 350.224 Q814.109 354.808 808.299 354.808 Q802.489 354.808 799.41 350.224 Q796.354 345.618 796.354 336.891 Q796.354 328.141 799.41 323.558 Q802.489 318.951 808.299 318.951 Z" fill="#000000" fill-rule="nonzero" fill-opacity="1" /><path clip-path="url(#clip770)" d="M828.461 348.257 L833.345 348.257 L833.345 354.136 L828.461 354.136 L828.461 348.257 Z" fill="#000000" fill-rule="nonzero" fill-opacity="1" /><path clip-path="url(#clip770)" d="M847.558 350.201 L863.877 350.201 L863.877 354.136 L841.933 354.136 L841.933 350.201 Q844.595 347.447 849.178 342.817 Q853.785 338.164 854.965 336.822 Q857.211 334.298 858.09 332.562 Q858.993 330.803 858.993 329.113 Q858.993 326.359 857.049 324.623 Q855.127 322.886 852.025 322.886 Q849.826 322.886 847.373 323.65 Q844.942 324.414 842.164 325.965 L842.164 321.243 Q844.988 320.109 847.442 319.53 Q849.896 318.951 851.933 318.951 Q857.303 318.951 860.498 321.636 Q863.692 324.322 863.692 328.812 Q863.692 330.942 862.882 332.863 Q862.095 334.761 859.988 337.354 Q859.41 338.025 856.308 341.243 Q853.206 344.437 847.558 350.201 Z" fill="#000000" fill-rule="nonzero" fill-opacity="1" /><path clip-path="url(#clip770)" d="M872.419 318.164 L876.123 318.164 Q879.595 323.627 881.308 328.859 Q883.044 334.09 883.044 339.252 Q883.044 344.437 881.308 349.692 Q879.595 354.946 876.123 360.386 L872.419 360.386 Q875.498 355.085 877.002 349.854 Q878.53 344.599 878.53 339.252 Q878.53 333.905 877.002 328.697 Q875.498 323.488 872.419 318.164 Z" fill="#000000" fill-rule="nonzero" fill-opacity="1" /></svg>
