<?xml version="1.0" encoding="utf-8"?>
<svg xmlns="http://www.w3.org/2000/svg" xmlns:xlink="http://www.w3.org/1999/xlink" width="672" height="480" viewBox="0 0 2688 1920">
<defs>
  <clipPath id="clip040">
    <rect x="0" y="0" width="2688" height="1920"/>
  </clipPath>
</defs>
<path clip-path="url(#clip040)" d="M0 1920 L2688 1920 L2688 -4.26326e-14 L0 -4.26326e-14  Z" fill="#ffffff" fill-rule="evenodd" fill-opacity="1"/>
<defs>
  <clipPath id="clip041">
    <rect x="226" y="127" width="2416" height="1607"/>
  </clipPath>
</defs>
<path clip-path="url(#clip040)" d="M226.141 1734.12 L2640.76 1734.12 L2640.76 127.792 L226.141 127.792  Z" fill="#ffffff" fill-rule="evenodd" fill-opacity="1"/>
<polyline clip-path="url(#clip041)" style="stroke:#000000; stroke-linecap:round; stroke-linejoin:round; stroke-width:2; stroke-opacity:0.1; fill:none" points="636.17,1734.12 636.17,127.792 "/>
<polyline clip-path="url(#clip041)" style="stroke:#000000; stroke-linecap:round; stroke-linejoin:round; stroke-width:2; stroke-opacity:0.1; fill:none" points="1091.76,1734.12 1091.76,127.792 "/>
<polyline clip-path="url(#clip041)" style="stroke:#000000; stroke-linecap:round; stroke-linejoin:round; stroke-width:2; stroke-opacity:0.1; fill:none" points="1547.35,1734.12 1547.35,127.792 "/>
<polyline clip-path="url(#clip041)" style="stroke:#000000; stroke-linecap:round; stroke-linejoin:round; stroke-width:2; stroke-opacity:0.1; fill:none" points="2002.93,1734.12 2002.93,127.792 "/>
<polyline clip-path="url(#clip041)" style="stroke:#000000; stroke-linecap:round; stroke-linejoin:round; stroke-width:2; stroke-opacity:0.1; fill:none" points="2458.52,1734.12 2458.52,127.792 "/>
<polyline clip-path="url(#clip041)" style="stroke:#000000; stroke-linecap:round; stroke-linejoin:round; stroke-width:2; stroke-opacity:0.1; fill:none" points="226.141,1607.09 2640.76,1607.09 "/>
<polyline clip-path="url(#clip041)" style="stroke:#000000; stroke-linecap:round; stroke-linejoin:round; stroke-width:2; stroke-opacity:0.1; fill:none" points="226.141,1352 2640.76,1352 "/>
<polyline clip-path="url(#clip041)" style="stroke:#000000; stroke-linecap:round; stroke-linejoin:round; stroke-width:2; stroke-opacity:0.1; fill:none" points="226.141,1096.91 2640.76,1096.91 "/>
<polyline clip-path="url(#clip041)" style="stroke:#000000; stroke-linecap:round; stroke-linejoin:round; stroke-width:2; stroke-opacity:0.1; fill:none" points="226.141,841.826 2640.76,841.826 "/>
<polyline clip-path="url(#clip041)" style="stroke:#000000; stroke-linecap:round; stroke-linejoin:round; stroke-width:2; stroke-opacity:0.1; fill:none" points="226.141,586.739 2640.76,586.739 "/>
<polyline clip-path="url(#clip041)" style="stroke:#000000; stroke-linecap:round; stroke-linejoin:round; stroke-width:2; stroke-opacity:0.1; fill:none" points="226.141,331.652 2640.76,331.652 "/>
<polyline clip-path="url(#clip040)" style="stroke:#000000; stroke-linecap:round; stroke-linejoin:round; stroke-width:4; stroke-opacity:1; fill:none" points="226.141,1734.12 2640.76,1734.12 "/>
<polyline clip-path="url(#clip040)" style="stroke:#000000; stroke-linecap:round; stroke-linejoin:round; stroke-width:4; stroke-opacity:1; fill:none" points="636.17,1734.12 636.17,1715.22 "/>
<polyline clip-path="url(#clip040)" style="stroke:#000000; stroke-linecap:round; stroke-linejoin:round; stroke-width:4; stroke-opacity:1; fill:none" points="1091.76,1734.12 1091.76,1715.22 "/>
<polyline clip-path="url(#clip040)" style="stroke:#000000; stroke-linecap:round; stroke-linejoin:round; stroke-width:4; stroke-opacity:1; fill:none" points="1547.35,1734.12 1547.35,1715.22 "/>
<polyline clip-path="url(#clip040)" style="stroke:#000000; stroke-linecap:round; stroke-linejoin:round; stroke-width:4; stroke-opacity:1; fill:none" points="2002.93,1734.12 2002.93,1715.22 "/>
<polyline clip-path="url(#clip040)" style="stroke:#000000; stroke-linecap:round; stroke-linejoin:round; stroke-width:4; stroke-opacity:1; fill:none" points="2458.52,1734.12 2458.52,1715.22 "/>
<path clip-path="url(#clip040)" d="M630.822 1794.89 L647.142 1794.89 L647.142 1798.82 L625.197 1798.82 L625.197 1794.89 Q627.859 1792.13 632.443 1787.5 Q637.049 1782.85 638.23 1781.51 Q640.475 1778.98 641.355 1777.25 Q642.258 1775.49 642.258 1773.8 Q642.258 1771.04 640.313 1769.31 Q638.392 1767.57 635.29 1767.57 Q633.091 1767.57 630.637 1768.34 Q628.207 1769.1 625.429 1770.65 L625.429 1765.93 Q628.253 1764.79 630.707 1764.21 Q633.16 1763.64 635.197 1763.64 Q640.568 1763.64 643.762 1766.32 Q646.957 1769.01 646.957 1773.5 Q646.957 1775.63 646.146 1777.55 Q645.359 1779.45 643.253 1782.04 Q642.674 1782.71 639.572 1785.93 Q636.47 1789.12 630.822 1794.89 Z" fill="#000000" fill-rule="nonzero" fill-opacity="1" /><path clip-path="url(#clip040)" d="M1094.77 1768.34 L1082.96 1786.78 L1094.77 1786.78 L1094.77 1768.34 M1093.54 1764.26 L1099.42 1764.26 L1099.42 1786.78 L1104.35 1786.78 L1104.35 1790.67 L1099.42 1790.67 L1099.42 1798.82 L1094.77 1798.82 L1094.77 1790.67 L1079.16 1790.67 L1079.16 1786.16 L1093.54 1764.26 Z" fill="#000000" fill-rule="nonzero" fill-opacity="1" /><path clip-path="url(#clip040)" d="M1547.75 1779.68 Q1544.6 1779.68 1542.75 1781.83 Q1540.92 1783.98 1540.92 1787.73 Q1540.92 1791.46 1542.75 1793.64 Q1544.6 1795.79 1547.75 1795.79 Q1550.9 1795.79 1552.73 1793.64 Q1554.58 1791.46 1554.58 1787.73 Q1554.58 1783.98 1552.73 1781.83 Q1550.9 1779.68 1547.75 1779.68 M1557.03 1765.02 L1557.03 1769.28 Q1555.27 1768.45 1553.47 1768.01 Q1551.69 1767.57 1549.93 1767.57 Q1545.3 1767.57 1542.84 1770.7 Q1540.41 1773.82 1540.07 1780.14 Q1541.43 1778.13 1543.49 1777.06 Q1545.55 1775.97 1548.03 1775.97 Q1553.24 1775.97 1556.25 1779.15 Q1559.28 1782.29 1559.28 1787.73 Q1559.28 1793.06 1556.13 1796.27 Q1552.98 1799.49 1547.75 1799.49 Q1541.75 1799.49 1538.58 1794.91 Q1535.41 1790.3 1535.41 1781.58 Q1535.41 1773.38 1539.3 1768.52 Q1543.19 1763.64 1549.74 1763.64 Q1551.5 1763.64 1553.28 1763.98 Q1555.09 1764.33 1557.03 1765.02 Z" fill="#000000" fill-rule="nonzero" fill-opacity="1" /><path clip-path="url(#clip040)" d="M2002.93 1782.41 Q1999.6 1782.41 1997.68 1784.19 Q1995.78 1785.97 1995.78 1789.1 Q1995.78 1792.22 1997.68 1794.01 Q1999.6 1795.79 2002.93 1795.79 Q2006.27 1795.79 2008.19 1794.01 Q2010.11 1792.2 2010.11 1789.1 Q2010.11 1785.97 2008.19 1784.19 Q2006.29 1782.41 2002.93 1782.41 M1998.26 1780.42 Q1995.25 1779.68 1993.56 1777.62 Q1991.89 1775.56 1991.89 1772.59 Q1991.89 1768.45 1994.83 1766.04 Q1997.79 1763.64 2002.93 1763.64 Q2008.09 1763.64 2011.03 1766.04 Q2013.97 1768.45 2013.97 1772.59 Q2013.97 1775.56 2012.28 1777.62 Q2010.62 1779.68 2007.63 1780.42 Q2011.01 1781.21 2012.89 1783.5 Q2014.78 1785.79 2014.78 1789.1 Q2014.78 1794.12 2011.71 1796.81 Q2008.65 1799.49 2002.93 1799.49 Q1997.22 1799.49 1994.14 1796.81 Q1991.08 1794.12 1991.08 1789.1 Q1991.08 1785.79 1992.98 1783.5 Q1994.88 1781.21 1998.26 1780.42 M1996.54 1773.03 Q1996.54 1775.72 1998.21 1777.22 Q1999.9 1778.73 2002.93 1778.73 Q2005.94 1778.73 2007.63 1777.22 Q2009.34 1775.72 2009.34 1773.03 Q2009.34 1770.35 2007.63 1768.84 Q2005.94 1767.34 2002.93 1767.34 Q1999.9 1767.34 1998.21 1768.84 Q1996.54 1770.35 1996.54 1773.03 Z" fill="#000000" fill-rule="nonzero" fill-opacity="1" /><path clip-path="url(#clip040)" d="M2433.21 1794.89 L2440.85 1794.89 L2440.85 1768.52 L2432.54 1770.19 L2432.54 1765.93 L2440.8 1764.26 L2445.48 1764.26 L2445.48 1794.89 L2453.12 1794.89 L2453.12 1798.82 L2433.21 1798.82 L2433.21 1794.89 Z" fill="#000000" fill-rule="nonzero" fill-opacity="1" /><path clip-path="url(#clip040)" d="M2472.56 1767.34 Q2468.95 1767.34 2467.12 1770.9 Q2465.31 1774.45 2465.31 1781.58 Q2465.31 1788.68 2467.12 1792.25 Q2468.95 1795.79 2472.56 1795.79 Q2476.19 1795.79 2478 1792.25 Q2479.83 1788.68 2479.83 1781.58 Q2479.83 1774.45 2478 1770.9 Q2476.19 1767.34 2472.56 1767.34 M2472.56 1763.64 Q2478.37 1763.64 2481.43 1768.24 Q2484.5 1772.83 2484.5 1781.58 Q2484.5 1790.3 2481.43 1794.91 Q2478.37 1799.49 2472.56 1799.49 Q2466.75 1799.49 2463.67 1794.91 Q2460.62 1790.3 2460.62 1781.58 Q2460.62 1772.83 2463.67 1768.24 Q2466.75 1763.64 2472.56 1763.64 Z" fill="#000000" fill-rule="nonzero" fill-opacity="1" /><path clip-path="url(#clip040)" d="M1240.3 1841.06 L1240.3 1858.92 L1248.38 1858.92 Q1252.87 1858.92 1255.32 1856.6 Q1257.77 1854.27 1257.77 1849.98 Q1257.77 1845.71 1255.32 1843.39 Q1252.87 1841.06 1248.38 1841.06 L1240.3 1841.06 M1233.87 1835.78 L1248.38 1835.78 Q1256.37 1835.78 1260.44 1839.41 Q1264.55 1843.01 1264.55 1849.98 Q1264.55 1857.01 1260.44 1860.61 Q1256.37 1864.2 1248.38 1864.2 L1240.3 1864.2 L1240.3 1883.3 L1233.87 1883.3 L1233.87 1835.78 Z" fill="#000000" fill-rule="nonzero" fill-opacity="1" /><path clip-path="url(#clip040)" d="M1284.41 1851.76 Q1279.7 1851.76 1276.96 1855.45 Q1274.23 1859.11 1274.23 1865.51 Q1274.23 1871.91 1276.93 1875.6 Q1279.67 1879.26 1284.41 1879.26 Q1289.09 1879.26 1291.83 1875.57 Q1294.56 1871.87 1294.56 1865.51 Q1294.56 1859.17 1291.83 1855.48 Q1289.09 1851.76 1284.41 1851.76 M1284.41 1846.79 Q1292.05 1846.79 1296.41 1851.76 Q1300.77 1856.72 1300.77 1865.51 Q1300.77 1874.26 1296.41 1879.26 Q1292.05 1884.22 1284.41 1884.22 Q1276.74 1884.22 1272.38 1879.26 Q1268.05 1874.26 1268.05 1865.51 Q1268.05 1856.72 1272.38 1851.76 Q1276.74 1846.79 1284.41 1846.79 Z" fill="#000000" fill-rule="nonzero" fill-opacity="1" /><path clip-path="url(#clip040)" d="M1316.14 1877.95 L1316.14 1896.86 L1310.26 1896.86 L1310.26 1847.65 L1316.14 1847.65 L1316.14 1853.06 Q1317.99 1849.88 1320.79 1848.35 Q1323.62 1846.79 1327.54 1846.79 Q1334.03 1846.79 1338.07 1851.95 Q1342.15 1857.11 1342.15 1865.51 Q1342.15 1873.91 1338.07 1879.07 Q1334.03 1884.22 1327.54 1884.22 Q1323.62 1884.22 1320.79 1882.7 Q1317.99 1881.14 1316.14 1877.95 M1336.07 1865.51 Q1336.07 1859.05 1333.4 1855.39 Q1330.75 1851.7 1326.11 1851.7 Q1321.46 1851.7 1318.79 1855.39 Q1316.14 1859.05 1316.14 1865.51 Q1316.14 1871.97 1318.79 1875.66 Q1321.46 1879.32 1326.11 1879.32 Q1330.75 1879.32 1333.4 1875.66 Q1336.07 1871.97 1336.07 1865.51 Z" fill="#000000" fill-rule="nonzero" fill-opacity="1" /><path clip-path="url(#clip040)" d="M1351.25 1869.23 L1351.25 1847.65 L1357.11 1847.65 L1357.11 1869.01 Q1357.11 1874.07 1359.08 1876.62 Q1361.05 1879.13 1365 1879.13 Q1369.74 1879.13 1372.48 1876.11 Q1375.25 1873.08 1375.25 1867.86 L1375.25 1847.65 L1381.11 1847.65 L1381.11 1883.3 L1375.25 1883.3 L1375.25 1877.83 Q1373.12 1881.07 1370.28 1882.66 Q1367.48 1884.22 1363.76 1884.22 Q1357.62 1884.22 1354.43 1880.4 Q1351.25 1876.59 1351.25 1869.23 M1365.99 1846.79 L1365.99 1846.79 Z" fill="#000000" fill-rule="nonzero" fill-opacity="1" /><path clip-path="url(#clip040)" d="M1393.17 1833.78 L1399.03 1833.78 L1399.03 1883.3 L1393.17 1883.3 L1393.17 1833.78 Z" fill="#000000" fill-rule="nonzero" fill-opacity="1" /><path clip-path="url(#clip040)" d="M1427.48 1865.38 Q1420.38 1865.38 1417.65 1867 Q1414.91 1868.63 1414.91 1872.54 Q1414.91 1875.66 1416.95 1877.51 Q1419.01 1879.32 1422.55 1879.32 Q1427.42 1879.32 1430.34 1875.88 Q1433.31 1872.42 1433.31 1866.69 L1433.31 1865.38 L1427.48 1865.38 M1439.16 1862.96 L1439.16 1883.3 L1433.31 1883.3 L1433.31 1877.89 Q1431.3 1881.14 1428.31 1882.7 Q1425.32 1884.22 1420.99 1884.22 Q1415.51 1884.22 1412.27 1881.17 Q1409.05 1878.08 1409.05 1872.92 Q1409.05 1866.91 1413.06 1863.85 Q1417.1 1860.8 1425.09 1860.8 L1433.31 1860.8 L1433.31 1860.23 Q1433.31 1856.18 1430.63 1853.99 Q1427.99 1851.76 1423.18 1851.76 Q1420.13 1851.76 1417.23 1852.49 Q1414.34 1853.22 1411.66 1854.69 L1411.66 1849.28 Q1414.88 1848.03 1417.9 1847.43 Q1420.92 1846.79 1423.79 1846.79 Q1431.52 1846.79 1435.34 1850.8 Q1439.16 1854.81 1439.16 1862.96 Z" fill="#000000" fill-rule="nonzero" fill-opacity="1" /><path clip-path="url(#clip040)" d="M1457.02 1837.53 L1457.02 1847.65 L1469.08 1847.65 L1469.08 1852.2 L1457.02 1852.2 L1457.02 1871.56 Q1457.02 1875.92 1458.19 1877.16 Q1459.4 1878.4 1463.06 1878.4 L1469.08 1878.4 L1469.08 1883.3 L1463.06 1883.3 Q1456.29 1883.3 1453.71 1880.79 Q1451.13 1878.24 1451.13 1871.56 L1451.13 1852.2 L1446.83 1852.2 L1446.83 1847.65 L1451.13 1847.65 L1451.13 1837.53 L1457.02 1837.53 Z" fill="#000000" fill-rule="nonzero" fill-opacity="1" /><path clip-path="url(#clip040)" d="M1476.78 1847.65 L1482.64 1847.65 L1482.64 1883.3 L1476.78 1883.3 L1476.78 1847.65 M1476.78 1833.78 L1482.64 1833.78 L1482.64 1841.19 L1476.78 1841.19 L1476.78 1833.78 Z" fill="#000000" fill-rule="nonzero" fill-opacity="1" /><path clip-path="url(#clip040)" d="M1508.71 1851.76 Q1504 1851.76 1501.26 1855.45 Q1498.52 1859.11 1498.52 1865.51 Q1498.52 1871.91 1501.23 1875.6 Q1503.96 1879.26 1508.71 1879.26 Q1513.39 1879.26 1516.12 1875.57 Q1518.86 1871.87 1518.86 1865.51 Q1518.86 1859.17 1516.12 1855.48 Q1513.39 1851.76 1508.71 1851.76 M1508.71 1846.79 Q1516.35 1846.79 1520.71 1851.76 Q1525.07 1856.72 1525.07 1865.51 Q1525.07 1874.26 1520.71 1879.26 Q1516.35 1884.22 1508.71 1884.22 Q1501.04 1884.22 1496.68 1879.26 Q1492.35 1874.26 1492.35 1865.51 Q1492.35 1856.72 1496.68 1851.76 Q1501.04 1846.79 1508.71 1846.79 Z" fill="#000000" fill-rule="nonzero" fill-opacity="1" /><path clip-path="url(#clip040)" d="M1564.41 1861.78 L1564.41 1883.3 L1558.55 1883.3 L1558.55 1861.98 Q1558.55 1856.92 1556.58 1854.4 Q1554.6 1851.89 1550.66 1851.89 Q1545.91 1851.89 1543.18 1854.91 Q1540.44 1857.93 1540.44 1863.15 L1540.44 1883.3 L1534.55 1883.3 L1534.55 1847.65 L1540.44 1847.65 L1540.44 1853.19 Q1542.54 1849.98 1545.37 1848.39 Q1548.24 1846.79 1551.96 1846.79 Q1558.1 1846.79 1561.26 1850.61 Q1564.41 1854.4 1564.41 1861.78 Z" fill="#000000" fill-rule="nonzero" fill-opacity="1" /><path clip-path="url(#clip040)" d="M1597.06 1835.78 L1605.72 1835.78 L1626.79 1875.53 L1626.79 1835.78 L1633.03 1835.78 L1633.03 1883.3 L1624.37 1883.3 L1603.3 1843.55 L1603.3 1883.3 L1597.06 1883.3 L1597.06 1835.78 Z" fill="#000000" fill-rule="nonzero" fill-opacity="1" /><polyline clip-path="url(#clip040)" style="stroke:#000000; stroke-linecap:round; stroke-linejoin:round; stroke-width:4; stroke-opacity:1; fill:none" points="226.141,1734.12 226.141,127.792 "/>
<polyline clip-path="url(#clip040)" style="stroke:#000000; stroke-linecap:round; stroke-linejoin:round; stroke-width:4; stroke-opacity:1; fill:none" points="226.141,1607.09 245.038,1607.09 "/>
<polyline clip-path="url(#clip040)" style="stroke:#000000; stroke-linecap:round; stroke-linejoin:round; stroke-width:4; stroke-opacity:1; fill:none" points="226.141,1352 245.038,1352 "/>
<polyline clip-path="url(#clip040)" style="stroke:#000000; stroke-linecap:round; stroke-linejoin:round; stroke-width:4; stroke-opacity:1; fill:none" points="226.141,1096.91 245.038,1096.91 "/>
<polyline clip-path="url(#clip040)" style="stroke:#000000; stroke-linecap:round; stroke-linejoin:round; stroke-width:4; stroke-opacity:1; fill:none" points="226.141,841.826 245.038,841.826 "/>
<polyline clip-path="url(#clip040)" style="stroke:#000000; stroke-linecap:round; stroke-linejoin:round; stroke-width:4; stroke-opacity:1; fill:none" points="226.141,586.739 245.038,586.739 "/>
<polyline clip-path="url(#clip040)" style="stroke:#000000; stroke-linecap:round; stroke-linejoin:round; stroke-width:4; stroke-opacity:1; fill:none" points="226.141,331.652 245.038,331.652 "/>
<path clip-path="url(#clip040)" d="M128.645 1592.89 Q125.034 1592.89 123.205 1596.45 Q121.4 1599.99 121.4 1607.12 Q121.4 1614.23 123.205 1617.79 Q125.034 1621.34 128.645 1621.34 Q132.279 1621.34 134.085 1617.79 Q135.913 1614.23 135.913 1607.12 Q135.913 1599.99 134.085 1596.45 Q132.279 1592.89 128.645 1592.89 M128.645 1589.18 Q134.455 1589.18 137.511 1593.79 Q140.589 1598.37 140.589 1607.12 Q140.589 1615.85 137.511 1620.46 Q134.455 1625.04 128.645 1625.04 Q122.835 1625.04 119.756 1620.46 Q116.701 1615.85 116.701 1607.12 Q116.701 1598.37 119.756 1593.79 Q122.835 1589.18 128.645 1589.18 Z" fill="#000000" fill-rule="nonzero" fill-opacity="1" /><path clip-path="url(#clip040)" d="M148.807 1618.49 L153.691 1618.49 L153.691 1624.37 L148.807 1624.37 L148.807 1618.49 Z" fill="#000000" fill-rule="nonzero" fill-opacity="1" /><path clip-path="url(#clip040)" d="M173.876 1592.89 Q170.265 1592.89 168.436 1596.45 Q166.631 1599.99 166.631 1607.12 Q166.631 1614.23 168.436 1617.79 Q170.265 1621.34 173.876 1621.34 Q177.51 1621.34 179.316 1617.79 Q181.145 1614.23 181.145 1607.12 Q181.145 1599.99 179.316 1596.45 Q177.51 1592.89 173.876 1592.89 M173.876 1589.18 Q179.686 1589.18 182.742 1593.79 Q185.821 1598.37 185.821 1607.12 Q185.821 1615.85 182.742 1620.46 Q179.686 1625.04 173.876 1625.04 Q168.066 1625.04 164.987 1620.46 Q161.932 1615.85 161.932 1607.12 Q161.932 1598.37 164.987 1593.79 Q168.066 1589.18 173.876 1589.18 Z" fill="#000000" fill-rule="nonzero" fill-opacity="1" /><path clip-path="url(#clip040)" d="M129.872 1337.8 Q126.261 1337.8 124.432 1341.36 Q122.626 1344.91 122.626 1352.04 Q122.626 1359.14 124.432 1362.71 Q126.261 1366.25 129.872 1366.25 Q133.506 1366.25 135.312 1362.71 Q137.14 1359.14 137.14 1352.04 Q137.14 1344.91 135.312 1341.36 Q133.506 1337.8 129.872 1337.8 M129.872 1334.1 Q135.682 1334.1 138.737 1338.7 Q141.816 1343.29 141.816 1352.04 Q141.816 1360.76 138.737 1365.37 Q135.682 1369.95 129.872 1369.95 Q124.062 1369.95 120.983 1365.37 Q117.927 1360.76 117.927 1352.04 Q117.927 1343.29 120.983 1338.7 Q124.062 1334.1 129.872 1334.1 Z" fill="#000000" fill-rule="nonzero" fill-opacity="1" /><path clip-path="url(#clip040)" d="M150.034 1363.4 L154.918 1363.4 L154.918 1369.28 L150.034 1369.28 L150.034 1363.4 Z" fill="#000000" fill-rule="nonzero" fill-opacity="1" /><path clip-path="url(#clip040)" d="M165.913 1365.35 L173.552 1365.35 L173.552 1338.98 L165.242 1340.65 L165.242 1336.39 L173.506 1334.72 L178.182 1334.72 L178.182 1365.35 L185.821 1365.35 L185.821 1369.28 L165.913 1369.28 L165.913 1365.35 Z" fill="#000000" fill-rule="nonzero" fill-opacity="1" /><path clip-path="url(#clip040)" d="M130.242 1082.71 Q126.631 1082.71 124.802 1086.28 Q122.997 1089.82 122.997 1096.95 Q122.997 1104.05 124.802 1107.62 Q126.631 1111.16 130.242 1111.16 Q133.876 1111.16 135.682 1107.62 Q137.511 1104.05 137.511 1096.95 Q137.511 1089.82 135.682 1086.28 Q133.876 1082.71 130.242 1082.71 M130.242 1079.01 Q136.052 1079.01 139.108 1083.61 Q142.187 1088.2 142.187 1096.95 Q142.187 1105.67 139.108 1110.28 Q136.052 1114.86 130.242 1114.86 Q124.432 1114.86 121.353 1110.28 Q118.298 1105.67 118.298 1096.95 Q118.298 1088.2 121.353 1083.61 Q124.432 1079.01 130.242 1079.01 Z" fill="#000000" fill-rule="nonzero" fill-opacity="1" /><path clip-path="url(#clip040)" d="M150.404 1108.31 L155.288 1108.31 L155.288 1114.19 L150.404 1114.19 L150.404 1108.31 Z" fill="#000000" fill-rule="nonzero" fill-opacity="1" /><path clip-path="url(#clip040)" d="M169.501 1110.26 L185.821 1110.26 L185.821 1114.19 L163.876 1114.19 L163.876 1110.26 Q166.538 1107.5 171.122 1102.87 Q175.728 1098.22 176.909 1096.88 Q179.154 1094.36 180.034 1092.62 Q180.936 1090.86 180.936 1089.17 Q180.936 1086.42 178.992 1084.68 Q177.071 1082.94 173.969 1082.94 Q171.77 1082.94 169.316 1083.71 Q166.885 1084.47 164.108 1086.02 L164.108 1081.3 Q166.932 1080.17 169.385 1079.59 Q171.839 1079.01 173.876 1079.01 Q179.247 1079.01 182.441 1081.69 Q185.635 1084.38 185.635 1088.87 Q185.635 1091 184.825 1092.92 Q184.038 1094.82 181.932 1097.41 Q181.353 1098.08 178.251 1101.3 Q175.149 1104.49 169.501 1110.26 Z" fill="#000000" fill-rule="nonzero" fill-opacity="1" /><path clip-path="url(#clip040)" d="M129.293 827.625 Q125.682 827.625 123.853 831.189 Q122.048 834.731 122.048 841.861 Q122.048 848.967 123.853 852.532 Q125.682 856.074 129.293 856.074 Q132.927 856.074 134.733 852.532 Q136.562 848.967 136.562 841.861 Q136.562 834.731 134.733 831.189 Q132.927 827.625 129.293 827.625 M129.293 823.921 Q135.103 823.921 138.159 828.527 Q141.237 833.111 141.237 841.861 Q141.237 850.588 138.159 855.194 Q135.103 859.777 129.293 859.777 Q123.483 859.777 120.404 855.194 Q117.349 850.588 117.349 841.861 Q117.349 833.111 120.404 828.527 Q123.483 823.921 129.293 823.921 Z" fill="#000000" fill-rule="nonzero" fill-opacity="1" /><path clip-path="url(#clip040)" d="M149.455 853.226 L154.339 853.226 L154.339 859.106 L149.455 859.106 L149.455 853.226 Z" fill="#000000" fill-rule="nonzero" fill-opacity="1" /><path clip-path="url(#clip040)" d="M178.691 840.472 Q182.047 841.189 183.922 843.458 Q185.821 845.726 185.821 849.06 Q185.821 854.175 182.302 856.976 Q178.784 859.777 172.302 859.777 Q170.126 859.777 167.811 859.337 Q165.52 858.921 163.066 858.064 L163.066 853.55 Q165.01 854.685 167.325 855.263 Q169.64 855.842 172.163 855.842 Q176.561 855.842 178.853 854.106 Q181.168 852.37 181.168 849.06 Q181.168 846.004 179.015 844.291 Q176.885 842.555 173.066 842.555 L169.038 842.555 L169.038 838.713 L173.251 838.713 Q176.7 838.713 178.529 837.347 Q180.358 835.958 180.358 833.365 Q180.358 830.703 178.459 829.291 Q176.584 827.856 173.066 827.856 Q171.145 827.856 168.946 828.273 Q166.747 828.689 164.108 829.569 L164.108 825.402 Q166.77 824.662 169.085 824.291 Q171.422 823.921 173.483 823.921 Q178.807 823.921 181.909 826.352 Q185.01 828.759 185.01 832.879 Q185.01 835.75 183.367 837.74 Q181.723 839.708 178.691 840.472 Z" fill="#000000" fill-rule="nonzero" fill-opacity="1" /><path clip-path="url(#clip040)" d="M128.159 572.537 Q124.548 572.537 122.719 576.102 Q120.913 579.644 120.913 586.773 Q120.913 593.88 122.719 597.445 Q124.548 600.986 128.159 600.986 Q131.793 600.986 133.599 597.445 Q135.427 593.88 135.427 586.773 Q135.427 579.644 133.599 576.102 Q131.793 572.537 128.159 572.537 M128.159 568.834 Q133.969 568.834 137.025 573.44 Q140.103 578.024 140.103 586.773 Q140.103 595.5 137.025 600.107 Q133.969 604.69 128.159 604.69 Q122.349 604.69 119.27 600.107 Q116.214 595.5 116.214 586.773 Q116.214 578.024 119.27 573.44 Q122.349 568.834 128.159 568.834 Z" fill="#000000" fill-rule="nonzero" fill-opacity="1" /><path clip-path="url(#clip040)" d="M148.321 598.139 L153.205 598.139 L153.205 604.019 L148.321 604.019 L148.321 598.139 Z" fill="#000000" fill-rule="nonzero" fill-opacity="1" /><path clip-path="url(#clip040)" d="M176.237 573.533 L164.432 591.982 L176.237 591.982 L176.237 573.533 M175.01 569.459 L180.89 569.459 L180.89 591.982 L185.821 591.982 L185.821 595.871 L180.89 595.871 L180.89 604.019 L176.237 604.019 L176.237 595.871 L160.636 595.871 L160.636 591.357 L175.01 569.459 Z" fill="#000000" fill-rule="nonzero" fill-opacity="1" /><path clip-path="url(#clip040)" d="M129.64 317.45 Q126.029 317.45 124.201 321.015 Q122.395 324.557 122.395 331.686 Q122.395 338.793 124.201 342.357 Q126.029 345.899 129.64 345.899 Q133.275 345.899 135.08 342.357 Q136.909 338.793 136.909 331.686 Q136.909 324.557 135.08 321.015 Q133.275 317.45 129.64 317.45 M129.64 313.747 Q135.45 313.747 138.506 318.353 Q141.585 322.936 141.585 331.686 Q141.585 340.413 138.506 345.019 Q135.45 349.603 129.64 349.603 Q123.83 349.603 120.751 345.019 Q117.696 340.413 117.696 331.686 Q117.696 322.936 120.751 318.353 Q123.83 313.747 129.64 313.747 Z" fill="#000000" fill-rule="nonzero" fill-opacity="1" /><path clip-path="url(#clip040)" d="M149.802 343.052 L154.686 343.052 L154.686 348.932 L149.802 348.932 L149.802 343.052 Z" fill="#000000" fill-rule="nonzero" fill-opacity="1" /><path clip-path="url(#clip040)" d="M164.918 314.372 L183.274 314.372 L183.274 318.307 L169.2 318.307 L169.2 326.779 Q170.219 326.432 171.237 326.27 Q172.256 326.084 173.274 326.084 Q179.061 326.084 182.441 329.256 Q185.821 332.427 185.821 337.844 Q185.821 343.422 182.348 346.524 Q178.876 349.603 172.557 349.603 Q170.381 349.603 168.112 349.232 Q165.867 348.862 163.46 348.121 L163.46 343.422 Q165.543 344.557 167.765 345.112 Q169.987 345.668 172.464 345.668 Q176.469 345.668 178.807 343.561 Q181.145 341.455 181.145 337.844 Q181.145 334.233 178.807 332.126 Q176.469 330.02 172.464 330.02 Q170.589 330.02 168.714 330.436 Q166.862 330.853 164.918 331.733 L164.918 314.372 Z" fill="#000000" fill-rule="nonzero" fill-opacity="1" /><path clip-path="url(#clip040)" d="M31.465 967.526 Q30.8921 968.512 30.6375 969.69 Q30.351 970.836 30.351 972.236 Q30.351 977.201 33.5975 979.875 Q36.8122 982.517 42.8596 982.517 L61.6384 982.517 L61.6384 988.405 L25.9905 988.405 L25.9905 982.517 L31.5287 982.517 Q28.2821 980.671 26.7225 977.711 Q25.1311 974.751 25.1311 970.517 Q25.1311 969.913 25.2266 969.181 Q25.2903 968.449 25.4494 967.557 L31.465 967.526 Z" fill="#000000" fill-rule="nonzero" fill-opacity="1" /><path clip-path="url(#clip040)" d="M12.1769 947.314 Q19.4975 951.579 26.6589 953.648 Q33.8203 955.717 41.1727 955.717 Q48.5251 955.717 55.7502 953.648 Q62.9434 951.548 70.2321 947.314 L70.2321 952.407 Q62.7524 957.181 55.5274 959.568 Q48.3023 961.924 41.1727 961.924 Q34.0749 961.924 26.8817 959.568 Q19.6884 957.213 12.1769 952.407 L12.1769 947.314 Z" fill="#000000" fill-rule="nonzero" fill-opacity="1" /><path clip-path="url(#clip040)" d="M14.1184 935.697 L14.1184 927.04 L53.8723 905.969 L14.1184 905.969 L14.1184 899.731 L61.6384 899.731 L61.6384 908.388 L21.8846 929.459 L61.6384 929.459 L61.6384 935.697 L14.1184 935.697 Z" fill="#000000" fill-rule="nonzero" fill-opacity="1" /><path clip-path="url(#clip040)" d="M12.1769 888.113 L12.1769 883.021 Q19.6884 878.247 26.8817 875.891 Q34.0749 873.504 41.1727 873.504 Q48.3023 873.504 55.5274 875.891 Q62.7524 878.247 70.2321 883.021 L70.2321 888.113 Q62.9434 883.88 55.7502 881.811 Q48.5251 879.711 41.1727 879.711 Q33.8203 879.711 26.6589 881.811 Q19.4975 883.88 12.1769 888.113 Z" fill="#000000" fill-rule="nonzero" fill-opacity="1" /><path clip-path="url(#clip040)" d="M648.545 12.096 L656.768 12.096 L656.768 48.8377 Q656.768 58.5599 660.293 62.8538 Q663.817 67.1073 671.716 67.1073 Q679.575 67.1073 683.099 62.8538 Q686.624 58.5599 686.624 48.8377 L686.624 12.096 L694.847 12.096 L694.847 49.8504 Q694.847 61.6791 688.973 67.7149 Q683.14 73.7508 671.716 73.7508 Q660.252 73.7508 654.378 67.7149 Q648.545 61.6791 648.545 49.8504 L648.545 12.096 Z" fill="#000000" fill-rule="nonzero" fill-opacity="1" /><path clip-path="url(#clip040)" d="M747.59 45.1919 L747.59 72.576 L740.136 72.576 L740.136 45.4349 Q740.136 38.994 737.624 35.7938 Q735.113 32.5936 730.09 32.5936 Q724.054 32.5936 720.57 36.4419 Q717.086 40.2903 717.086 46.9338 L717.086 72.576 L709.592 72.576 L709.592 27.2059 L717.086 27.2059 L717.086 34.2544 Q719.76 30.163 723.365 28.1376 Q727.011 26.1121 731.751 26.1121 Q739.569 26.1121 743.579 30.9732 Q747.59 35.7938 747.59 45.1919 Z" fill="#000000" fill-rule="nonzero" fill-opacity="1" /><path clip-path="url(#clip040)" d="M762.173 9.54393 L769.667 9.54393 L769.667 46.7717 L791.907 27.2059 L801.426 27.2059 L777.364 48.4326 L802.439 72.576 L792.717 72.576 L769.667 50.4176 L769.667 72.576 L762.173 72.576 L762.173 9.54393 Z" fill="#000000" fill-rule="nonzero" fill-opacity="1" /><path clip-path="url(#clip040)" d="M848.214 45.1919 L848.214 72.576 L840.76 72.576 L840.76 45.4349 Q840.76 38.994 838.249 35.7938 Q835.737 32.5936 830.714 32.5936 Q824.678 32.5936 821.195 36.4419 Q817.711 40.2903 817.711 46.9338 L817.711 72.576 L810.217 72.576 L810.217 27.2059 L817.711 27.2059 L817.711 34.2544 Q820.384 30.163 823.99 28.1376 Q827.636 26.1121 832.375 26.1121 Q840.193 26.1121 844.204 30.9732 Q848.214 35.7938 848.214 45.1919 Z" fill="#000000" fill-rule="nonzero" fill-opacity="1" /><path clip-path="url(#clip040)" d="M880.662 32.4315 Q874.667 32.4315 871.183 37.1306 Q867.699 41.7891 867.699 49.9314 Q867.699 58.0738 871.142 62.7728 Q874.626 67.4314 880.662 67.4314 Q886.617 67.4314 890.1 62.7323 Q893.584 58.0333 893.584 49.9314 Q893.584 41.8701 890.1 37.1711 Q886.617 32.4315 880.662 32.4315 M880.662 26.1121 Q890.384 26.1121 895.934 32.4315 Q901.483 38.7509 901.483 49.9314 Q901.483 61.0714 895.934 67.4314 Q890.384 73.7508 880.662 73.7508 Q870.899 73.7508 865.349 67.4314 Q859.84 61.0714 859.84 49.9314 Q859.84 38.7509 865.349 32.4315 Q870.899 26.1121 880.662 26.1121 Z" fill="#000000" fill-rule="nonzero" fill-opacity="1" /><path clip-path="url(#clip040)" d="M909.504 27.2059 L916.958 27.2059 L926.275 62.6108 L935.552 27.2059 L944.342 27.2059 L953.659 62.6108 L962.936 27.2059 L970.389 27.2059 L958.52 72.576 L949.73 72.576 L939.967 35.3887 L930.164 72.576 L921.373 72.576 L909.504 27.2059 Z" fill="#000000" fill-rule="nonzero" fill-opacity="1" /><path clip-path="url(#clip040)" d="M1019.41 45.1919 L1019.41 72.576 L1011.95 72.576 L1011.95 45.4349 Q1011.95 38.994 1009.44 35.7938 Q1006.93 32.5936 1001.91 32.5936 Q995.87 32.5936 992.386 36.4419 Q988.902 40.2903 988.902 46.9338 L988.902 72.576 L981.408 72.576 L981.408 27.2059 L988.902 27.2059 L988.902 34.2544 Q991.576 30.163 995.181 28.1376 Q998.827 26.1121 1003.57 26.1121 Q1011.38 26.1121 1015.39 30.9732 Q1019.41 35.7938 1019.41 45.1919 Z" fill="#000000" fill-rule="nonzero" fill-opacity="1" /><path clip-path="url(#clip040)" d="M1060.97 12.096 L1095.72 12.096 L1095.72 18.9825 L1069.15 18.9825 L1069.15 36.8065 L1093.13 36.8065 L1093.13 43.6931 L1069.15 43.6931 L1069.15 72.576 L1060.97 72.576 L1060.97 12.096 Z" fill="#000000" fill-rule="nonzero" fill-opacity="1" /><path clip-path="url(#clip040)" d="M1103.06 54.671 L1103.06 27.2059 L1110.51 27.2059 L1110.51 54.3874 Q1110.51 60.8284 1113.02 64.0691 Q1115.53 67.2693 1120.56 67.2693 Q1126.59 67.2693 1130.08 63.421 Q1133.6 59.5726 1133.6 52.9291 L1133.6 27.2059 L1141.05 27.2059 L1141.05 72.576 L1133.6 72.576 L1133.6 65.6084 Q1130.89 69.7404 1127.28 71.7658 Q1123.72 73.7508 1118.98 73.7508 Q1111.16 73.7508 1107.11 68.8897 Q1103.06 64.0286 1103.06 54.671 M1121.81 26.1121 L1121.81 26.1121 Z" fill="#000000" fill-rule="nonzero" fill-opacity="1" /><path clip-path="url(#clip040)" d="M1194.12 45.1919 L1194.12 72.576 L1186.67 72.576 L1186.67 45.4349 Q1186.67 38.994 1184.16 35.7938 Q1181.64 32.5936 1176.62 32.5936 Q1170.59 32.5936 1167.1 36.4419 Q1163.62 40.2903 1163.62 46.9338 L1163.62 72.576 L1156.12 72.576 L1156.12 27.2059 L1163.62 27.2059 L1163.62 34.2544 Q1166.29 30.163 1169.9 28.1376 Q1173.54 26.1121 1178.28 26.1121 Q1186.1 26.1121 1190.11 30.9732 Q1194.12 35.7938 1194.12 45.1919 Z" fill="#000000" fill-rule="nonzero" fill-opacity="1" /><path clip-path="url(#clip040)" d="M1241.64 28.9478 L1241.64 35.9153 Q1238.48 34.1734 1235.28 33.3227 Q1232.12 32.4315 1228.88 32.4315 Q1221.63 32.4315 1217.62 37.0496 Q1213.61 41.6271 1213.61 49.9314 Q1213.61 58.2358 1217.62 62.8538 Q1221.63 67.4314 1228.88 67.4314 Q1232.12 67.4314 1235.28 66.5807 Q1238.48 65.6895 1241.64 63.9476 L1241.64 70.8341 Q1238.52 72.2924 1235.16 73.0216 Q1231.83 73.7508 1228.07 73.7508 Q1217.82 73.7508 1211.78 67.3098 Q1205.75 60.8689 1205.75 49.9314 Q1205.75 38.832 1211.82 32.472 Q1217.94 26.1121 1228.55 26.1121 Q1232 26.1121 1235.28 26.8413 Q1238.56 27.5299 1241.64 28.9478 Z" fill="#000000" fill-rule="nonzero" fill-opacity="1" /><path clip-path="url(#clip040)" d="M1261.97 14.324 L1261.97 27.2059 L1277.33 27.2059 L1277.33 32.9987 L1261.97 32.9987 L1261.97 57.6282 Q1261.97 63.1779 1263.47 64.7578 Q1265.01 66.3376 1269.67 66.3376 L1277.33 66.3376 L1277.33 72.576 L1269.67 72.576 Q1261.04 72.576 1257.76 69.3758 Q1254.48 66.1351 1254.48 57.6282 L1254.48 32.9987 L1249.01 32.9987 L1249.01 27.2059 L1254.48 27.2059 L1254.48 14.324 L1261.97 14.324 Z" fill="#000000" fill-rule="nonzero" fill-opacity="1" /><path clip-path="url(#clip040)" d="M1287.13 27.2059 L1294.58 27.2059 L1294.58 72.576 L1287.13 72.576 L1287.13 27.2059 M1287.13 9.54393 L1294.58 9.54393 L1294.58 18.9825 L1287.13 18.9825 L1287.13 9.54393 Z" fill="#000000" fill-rule="nonzero" fill-opacity="1" /><path clip-path="url(#clip040)" d="M1327.76 32.4315 Q1321.76 32.4315 1318.28 37.1306 Q1314.8 41.7891 1314.8 49.9314 Q1314.8 58.0738 1318.24 62.7728 Q1321.72 67.4314 1327.76 67.4314 Q1333.71 67.4314 1337.2 62.7323 Q1340.68 58.0333 1340.68 49.9314 Q1340.68 41.8701 1337.2 37.1711 Q1333.71 32.4315 1327.76 32.4315 M1327.76 26.1121 Q1337.48 26.1121 1343.03 32.4315 Q1348.58 38.7509 1348.58 49.9314 Q1348.58 61.0714 1343.03 67.4314 Q1337.48 73.7508 1327.76 73.7508 Q1318 73.7508 1312.45 67.4314 Q1306.94 61.0714 1306.94 49.9314 Q1306.94 38.7509 1312.45 32.4315 Q1318 26.1121 1327.76 26.1121 Z" fill="#000000" fill-rule="nonzero" fill-opacity="1" /><path clip-path="url(#clip040)" d="M1398.65 45.1919 L1398.65 72.576 L1391.2 72.576 L1391.2 45.4349 Q1391.2 38.994 1388.69 35.7938 Q1386.17 32.5936 1381.15 32.5936 Q1375.12 32.5936 1371.63 36.4419 Q1368.15 40.2903 1368.15 46.9338 L1368.15 72.576 L1360.65 72.576 L1360.65 27.2059 L1368.15 27.2059 L1368.15 34.2544 Q1370.82 30.163 1374.43 28.1376 Q1378.07 26.1121 1382.81 26.1121 Q1390.63 26.1121 1394.64 30.9732 Q1398.65 35.7938 1398.65 45.1919 Z" fill="#000000" fill-rule="nonzero" fill-opacity="1" /><path clip-path="url(#clip040)" d="M1466.18 34.1734 Q1464.92 33.4443 1463.42 33.1202 Q1461.97 32.7556 1460.18 32.7556 Q1453.86 32.7556 1450.46 36.8875 Q1447.1 40.9789 1447.1 48.6757 L1447.1 72.576 L1439.61 72.576 L1439.61 27.2059 L1447.1 27.2059 L1447.1 34.2544 Q1449.45 30.1225 1453.22 28.1376 Q1456.98 26.1121 1462.37 26.1121 Q1463.14 26.1121 1464.07 26.2337 Q1465 26.3147 1466.14 26.5172 L1466.18 34.1734 Z" fill="#000000" fill-rule="nonzero" fill-opacity="1" /><path clip-path="url(#clip040)" d="M1491.9 9.62495 Q1486.47 18.942 1483.84 28.0566 Q1481.21 37.1711 1481.21 46.5287 Q1481.21 55.8863 1483.84 65.0818 Q1486.52 74.2369 1491.9 83.5134 L1485.42 83.5134 Q1479.34 73.9938 1476.31 64.7983 Q1473.31 55.6027 1473.31 46.5287 Q1473.31 37.4952 1476.31 28.3401 Q1479.3 19.1851 1485.42 9.62495 L1491.9 9.62495 Z" fill="#000000" fill-rule="nonzero" fill-opacity="1" /><path clip-path="url(#clip040)" d="M1506.69 12.096 L1517.71 12.096 L1544.52 62.6918 L1544.52 12.096 L1552.46 12.096 L1552.46 72.576 L1541.45 72.576 L1514.63 21.9802 L1514.63 72.576 L1506.69 72.576 L1506.69 12.096 Z" fill="#000000" fill-rule="nonzero" fill-opacity="1" /><path clip-path="url(#clip040)" d="M1567.25 9.62495 L1573.73 9.62495 Q1579.81 19.1851 1582.81 28.3401 Q1585.84 37.4952 1585.84 46.5287 Q1585.84 55.6027 1582.81 64.7983 Q1579.81 73.9938 1573.73 83.5134 L1567.25 83.5134 Q1572.64 74.2369 1575.27 65.0818 Q1577.94 55.8863 1577.94 46.5287 Q1577.94 37.1711 1575.27 28.0566 Q1572.64 18.942 1567.25 9.62495 Z" fill="#000000" fill-rule="nonzero" fill-opacity="1" /><path clip-path="url(#clip040)" d="M1623.4 46.9338 L1698.26 46.9338 L1698.26 52.7671 L1623.4 52.7671 L1623.4 46.9338 Z" fill="#000000" fill-rule="nonzero" fill-opacity="1" /><path clip-path="url(#clip040)" d="M1782.11 16.7545 L1782.11 25.383 Q1777.98 21.5346 1773.28 19.6307 Q1768.62 17.7268 1763.35 17.7268 Q1752.98 17.7268 1747.47 24.0867 Q1741.97 30.4061 1741.97 42.3968 Q1741.97 54.3469 1747.47 60.7069 Q1752.98 67.0263 1763.35 67.0263 Q1768.62 67.0263 1773.28 65.1223 Q1777.98 63.2184 1782.11 59.3701 L1782.11 67.9175 Q1777.82 70.8341 1773 72.2924 Q1768.21 73.7508 1762.87 73.7508 Q1749.14 73.7508 1741.24 65.3654 Q1733.34 56.9395 1733.34 42.3968 Q1733.34 27.8135 1741.24 19.4281 Q1749.14 11.0023 1762.87 11.0023 Q1768.3 11.0023 1773.08 12.4606 Q1777.9 13.8784 1782.11 16.7545 Z" fill="#000000" fill-rule="nonzero" fill-opacity="1" /><path clip-path="url(#clip040)" d="M1812.01 32.4315 Q1806.01 32.4315 1802.53 37.1306 Q1799.04 41.7891 1799.04 49.9314 Q1799.04 58.0738 1802.49 62.7728 Q1805.97 67.4314 1812.01 67.4314 Q1817.96 67.4314 1821.44 62.7323 Q1824.93 58.0333 1824.93 49.9314 Q1824.93 41.8701 1821.44 37.1711 Q1817.96 32.4315 1812.01 32.4315 M1812.01 26.1121 Q1821.73 26.1121 1827.28 32.4315 Q1832.83 38.7509 1832.83 49.9314 Q1832.83 61.0714 1827.28 67.4314 Q1821.73 73.7508 1812.01 73.7508 Q1802.24 73.7508 1796.69 67.4314 Q1791.18 61.0714 1791.18 49.9314 Q1791.18 38.7509 1796.69 32.4315 Q1802.24 26.1121 1812.01 26.1121 Z" fill="#000000" fill-rule="nonzero" fill-opacity="1" /><path clip-path="url(#clip040)" d="M1880.51 35.9153 Q1883.3 30.8922 1887.19 28.5022 Q1891.08 26.1121 1896.35 26.1121 Q1903.43 26.1121 1907.28 31.0947 Q1911.13 36.0368 1911.13 45.1919 L1911.13 72.576 L1903.64 72.576 L1903.64 45.4349 Q1903.64 38.913 1901.33 35.7533 Q1899.02 32.5936 1894.28 32.5936 Q1888.49 32.5936 1885.12 36.4419 Q1881.76 40.2903 1881.76 46.9338 L1881.76 72.576 L1874.27 72.576 L1874.27 45.4349 Q1874.27 38.8725 1871.96 35.7533 Q1869.65 32.5936 1864.83 32.5936 Q1859.12 32.5936 1855.75 36.4824 Q1852.39 40.3308 1852.39 46.9338 L1852.39 72.576 L1844.9 72.576 L1844.9 27.2059 L1852.39 27.2059 L1852.39 34.2544 Q1854.94 30.082 1858.51 28.0971 Q1862.07 26.1121 1866.98 26.1121 Q1871.92 26.1121 1875.36 28.6237 Q1878.85 31.1352 1880.51 35.9153 Z" fill="#000000" fill-rule="nonzero" fill-opacity="1" /><path clip-path="url(#clip040)" d="M1933.21 65.7705 L1933.21 89.8329 L1925.71 89.8329 L1925.71 27.2059 L1933.21 27.2059 L1933.21 34.0924 Q1935.56 30.0415 1939.12 28.0971 Q1942.73 26.1121 1947.71 26.1121 Q1955.97 26.1121 1961.12 32.6746 Q1966.3 39.2371 1966.3 49.9314 Q1966.3 60.6258 1961.12 67.1883 Q1955.97 73.7508 1947.71 73.7508 Q1942.73 73.7508 1939.12 71.8063 Q1935.56 69.8214 1933.21 65.7705 M1958.57 49.9314 Q1958.57 41.7081 1955.16 37.0496 Q1951.8 32.3505 1945.89 32.3505 Q1939.97 32.3505 1936.57 37.0496 Q1933.21 41.7081 1933.21 49.9314 Q1933.21 58.1548 1936.57 62.8538 Q1939.97 67.5124 1945.89 67.5124 Q1951.8 67.5124 1955.16 62.8538 Q1958.57 58.1548 1958.57 49.9314 Z" fill="#000000" fill-rule="nonzero" fill-opacity="1" /><path clip-path="url(#clip040)" d="M1999.28 49.7694 Q1990.25 49.7694 1986.76 51.8354 Q1983.28 53.9013 1983.28 58.8839 Q1983.28 62.8538 1985.87 65.2034 Q1988.5 67.5124 1993 67.5124 Q1999.2 67.5124 2002.92 63.1374 Q2006.69 58.7219 2006.69 51.4303 L2006.69 49.7694 L1999.28 49.7694 M2014.15 46.6907 L2014.15 72.576 L2006.69 72.576 L2006.69 65.6895 Q2004.14 69.8214 2000.33 71.8063 Q1996.52 73.7508 1991.01 73.7508 Q1984.05 73.7508 1979.92 69.8619 Q1975.82 65.9325 1975.82 59.3701 Q1975.82 51.7138 1980.93 47.825 Q1986.07 43.9361 1996.24 43.9361 L2006.69 43.9361 L2006.69 43.2069 Q2006.69 38.0623 2003.29 35.2672 Q1999.93 32.4315 1993.81 32.4315 Q1989.92 32.4315 1986.23 33.3632 Q1982.55 34.295 1979.15 36.1584 L1979.15 29.2718 Q1983.24 27.692 1987.09 26.9223 Q1990.93 26.1121 1994.58 26.1121 Q2004.42 26.1121 2009.28 31.2163 Q2014.15 36.3204 2014.15 46.6907 Z" fill="#000000" fill-rule="nonzero" fill-opacity="1" /><path clip-path="url(#clip040)" d="M2055.79 34.1734 Q2054.53 33.4443 2053.03 33.1202 Q2051.58 32.7556 2049.79 32.7556 Q2043.47 32.7556 2040.07 36.8875 Q2036.71 40.9789 2036.71 48.6757 L2036.71 72.576 L2029.21 72.576 L2029.21 27.2059 L2036.71 27.2059 L2036.71 34.2544 Q2039.06 30.1225 2042.83 28.1376 Q2046.59 26.1121 2051.98 26.1121 Q2052.75 26.1121 2053.68 26.2337 Q2054.61 26.3147 2055.75 26.5172 L2055.79 34.1734 Z" fill="#000000" fill-rule="nonzero" fill-opacity="1" /><path clip-path="url(#clip040)" d="M2063.61 27.2059 L2071.06 27.2059 L2071.06 72.576 L2063.61 72.576 L2063.61 27.2059 M2063.61 9.54393 L2071.06 9.54393 L2071.06 18.9825 L2063.61 18.9825 L2063.61 9.54393 Z" fill="#000000" fill-rule="nonzero" fill-opacity="1" /><path clip-path="url(#clip040)" d="M2115.58 28.5427 L2115.58 35.5912 Q2112.42 33.9709 2109.02 33.1607 Q2105.61 32.3505 2101.97 32.3505 Q2096.42 32.3505 2093.62 34.0519 Q2090.87 35.7533 2090.87 39.156 Q2090.87 41.7486 2092.85 43.2475 Q2094.84 44.7058 2100.83 46.0426 L2103.39 46.6097 Q2111.33 48.3111 2114.65 51.4303 Q2118.01 54.509 2118.01 60.0587 Q2118.01 66.3781 2112.99 70.0644 Q2108 73.7508 2099.25 73.7508 Q2095.61 73.7508 2091.64 73.0216 Q2087.71 72.3329 2083.33 70.9151 L2083.33 63.2184 Q2087.47 65.3654 2091.48 66.4591 Q2095.49 67.5124 2099.42 67.5124 Q2104.68 67.5124 2107.52 65.73 Q2110.35 63.9071 2110.35 60.6258 Q2110.35 57.5877 2108.29 55.9673 Q2106.26 54.3469 2099.34 52.8481 L2096.74 52.2405 Q2089.82 50.7821 2086.74 47.7845 Q2083.66 44.7463 2083.66 39.4801 Q2083.66 33.0797 2088.2 29.5959 Q2092.73 26.1121 2101.08 26.1121 Q2105.21 26.1121 2108.86 26.7198 Q2112.5 27.3274 2115.58 28.5427 Z" fill="#000000" fill-rule="nonzero" fill-opacity="1" /><path clip-path="url(#clip040)" d="M2147.46 32.4315 Q2141.47 32.4315 2137.98 37.1306 Q2134.5 41.7891 2134.5 49.9314 Q2134.5 58.0738 2137.94 62.7728 Q2141.42 67.4314 2147.46 67.4314 Q2153.42 67.4314 2156.9 62.7323 Q2160.38 58.0333 2160.38 49.9314 Q2160.38 41.8701 2156.9 37.1711 Q2153.42 32.4315 2147.46 32.4315 M2147.46 26.1121 Q2157.18 26.1121 2162.73 32.4315 Q2168.28 38.7509 2168.28 49.9314 Q2168.28 61.0714 2162.73 67.4314 Q2157.18 73.7508 2147.46 73.7508 Q2137.7 73.7508 2132.15 67.4314 Q2126.64 61.0714 2126.64 49.9314 Q2126.64 38.7509 2132.15 32.4315 Q2137.7 26.1121 2147.46 26.1121 Z" fill="#000000" fill-rule="nonzero" fill-opacity="1" /><path clip-path="url(#clip040)" d="M2218.35 45.1919 L2218.35 72.576 L2210.9 72.576 L2210.9 45.4349 Q2210.9 38.994 2208.39 35.7938 Q2205.87 32.5936 2200.85 32.5936 Q2194.82 32.5936 2191.33 36.4419 Q2187.85 40.2903 2187.85 46.9338 L2187.85 72.576 L2180.35 72.576 L2180.35 27.2059 L2187.85 27.2059 L2187.85 34.2544 Q2190.52 30.163 2194.13 28.1376 Q2197.77 26.1121 2202.51 26.1121 Q2210.33 26.1121 2214.34 30.9732 Q2218.35 35.7938 2218.35 45.1919 Z" fill="#000000" fill-rule="nonzero" fill-opacity="1" /><polyline clip-path="url(#clip041)" style="stroke:#000000; stroke-linecap:round; stroke-linejoin:round; stroke-width:8; stroke-opacity:1; fill:none" stroke-dasharray="32, 20" points="294.479,395.423 317.488,408.307 340.498,421.19 363.507,434.073 386.517,446.956 409.526,459.839 432.536,472.722 455.545,485.606 478.555,498.489 501.564,511.372 524.574,524.255 547.583,537.138 570.593,550.022 593.602,562.905 616.612,575.788 639.621,588.671 662.63,601.554 685.64,614.438 708.649,627.321 731.659,640.204 754.668,653.087 777.678,665.97 800.687,678.854 823.697,691.737 846.706,704.62 869.716,717.503 892.725,730.386 915.735,743.27 938.744,756.153 961.754,769.036 984.763,781.919 1007.77,794.802 1030.78,807.686 1053.79,820.569 1076.8,833.452 1099.81,846.335 1122.82,859.218 1145.83,872.101 1168.84,884.985 1191.85,897.868 1214.86,910.751 1237.87,923.634 1260.88,936.517 1283.89,949.401 1306.9,962.284 1329.91,975.167 1352.92,988.05 1375.92,1000.93 1398.93,1013.82 1421.94,1026.7 1444.95,1039.58 1467.96,1052.47 1490.97,1065.35 1513.98,1078.23 1536.99,1091.12 1560,1104 1583.01,1116.88 1606.02,1129.77 1629.03,1142.65 1652.04,1155.53 1675.05,1168.41 1698.06,1181.3 1721.07,1194.18 1744.08,1207.06 1767.09,1219.95 1790.1,1232.83 1813.1,1245.71 1836.11,1258.6 1859.12,1271.48 1882.13,1284.36 1905.14,1297.25 1928.15,1310.13 1951.16,1323.01 1974.17,1335.9 1997.18,1348.78 2020.19,1361.66 2043.2,1374.55 2066.21,1387.43 2089.22,1400.31 2112.23,1413.2 2135.24,1426.08 2158.25,1438.96 2181.26,1451.85 2204.27,1464.73 2227.28,1477.61 2250.28,1490.49 2273.29,1503.38 2296.3,1516.26 2319.31,1529.14 2342.32,1542.03 2365.33,1554.91 2388.34,1567.79 2411.35,1580.68 2434.36,1593.56 2457.37,1606.44 2480.38,1619.33 2503.39,1632.21 2526.4,1645.09 2549.41,1657.98 2572.42,1670.86 "/>
<polyline clip-path="url(#clip041)" style="stroke:#4682b4; stroke-linecap:round; stroke-linejoin:round; stroke-width:8; stroke-opacity:1; fill:none" points="294.479,401.994 317.488,414.738 340.498,427.482 363.507,440.226 386.517,452.971 409.526,465.715 432.536,478.459 455.545,491.203 478.555,503.948 501.564,516.692 524.574,529.436 547.583,542.181 570.593,554.925 593.602,567.669 616.612,580.414 639.621,593.158 662.63,605.903 685.64,618.647 708.649,631.392 731.659,644.136 754.668,656.881 777.678,669.626 800.687,682.37 823.697,695.115 846.706,707.86 869.716,720.605 892.725,733.35 915.735,746.095 938.744,758.84 961.754,771.586 984.763,784.331 1007.77,797.076 1030.78,809.822 1053.79,822.567 1076.8,835.313 1099.81,848.059 1122.82,860.805 1145.83,873.551 1168.84,886.297 1191.85,899.043 1214.86,911.789 1237.87,924.536 1260.88,937.282 1283.89,950.029 1306.9,962.775 1329.91,975.522 1352.92,988.269 1375.92,1001.02 1398.93,1013.76 1421.94,1026.51 1444.95,1039.26 1467.96,1052 1490.97,1064.75 1513.98,1077.5 1536.99,1090.24 1560,1102.99 1583.01,1115.73 1606.02,1128.48 1629.03,1141.23 1652.04,1153.97 1675.05,1166.72 1698.06,1179.46 1721.07,1192.21 1744.08,1204.95 1767.09,1217.7 1790.1,1230.44 1813.1,1243.19 1836.11,1255.93 1859.12,1268.67 1882.13,1281.42 1905.14,1294.16 1928.15,1306.9 1951.16,1319.65 1974.17,1332.39 1997.18,1345.13 2020.19,1357.88 2043.2,1370.62 2066.21,1383.36 2089.22,1396.11 2112.23,1408.85 2135.24,1421.59 2158.25,1434.34 2181.26,1447.08 2204.27,1459.83 2227.28,1472.57 2250.28,1485.31 2273.29,1498.06 2296.3,1510.8 2319.31,1523.55 2342.32,1536.29 2365.33,1549.04 2388.34,1561.78 2411.35,1574.53 2434.36,1587.27 2457.37,1600.02 2480.38,1612.77 2503.39,1625.51 2526.4,1638.26 2549.41,1651 2572.42,1663.75 "/>
<polyline clip-path="url(#clip041)" style="stroke:#b22222; stroke-linecap:round; stroke-linejoin:round; stroke-width:8; stroke-opacity:1; fill:none" points="294.479,325.847 317.488,352.491 340.498,377.652 363.507,401.411 386.517,423.85 409.526,445.049 432.536,465.089 455.545,484.052 478.555,502.019 501.564,519.071 524.574,535.289 547.583,550.754 570.593,565.547 593.602,579.749 616.612,593.443 639.621,606.702 662.63,619.574 685.64,632.09 708.649,644.283 731.659,656.187 754.668,667.835 777.678,679.259 800.687,690.493 823.697,701.57 846.706,712.522 869.716,723.384 892.725,734.186 915.735,744.964 938.744,755.749 961.754,766.575 984.763,777.464 1007.77,788.436 1030.78,799.512 1053.79,810.709 1076.8,822.048 1099.81,833.548 1122.82,845.228 1145.83,857.108 1168.84,869.206 1191.85,881.543 1214.86,894.137 1237.87,907.008 1260.88,920.176 1283.89,933.657 1306.9,947.439 1329.91,961.483 1352.92,975.747 1375.92,990.194 1398.93,1004.78 1421.94,1019.47 1444.95,1034.22 1467.96,1049 1490.97,1063.75 1513.98,1078.45 1536.99,1093.05 1560,1107.51 1583.01,1121.8 1606.02,1135.87 1629.03,1149.7 1652.04,1163.31 1675.05,1176.7 1698.06,1189.88 1721.07,1202.86 1744.08,1215.66 1767.09,1228.27 1790.1,1240.7 1813.1,1252.98 1836.11,1265.1 1859.12,1277.07 1882.13,1288.91 1905.14,1300.62 1928.15,1312.22 1951.16,1323.71 1974.17,1335.14 1997.18,1346.53 2020.19,1357.91 2043.2,1369.32 2066.21,1380.8 2089.22,1392.37 2112.23,1404.06 2135.24,1415.91 2158.25,1427.95 2181.26,1440.22 2204.27,1452.74 2227.28,1465.55 2250.28,1478.69 2273.29,1492.16 2296.3,1505.96 2319.31,1520.05 2342.32,1534.43 2365.33,1549.06 2388.34,1563.93 2411.35,1579.01 2434.36,1594.29 2457.37,1609.72 2480.38,1625.31 2503.39,1641.02 2526.4,1656.82 2549.41,1672.71 2572.42,1688.65 "/>
<polyline clip-path="url(#clip041)" style="stroke:#800080; stroke-linecap:round; stroke-linejoin:round; stroke-width:8; stroke-opacity:1; fill:none" points="294.479,173.254 317.488,226.407 340.498,279.559 363.507,332.712 386.517,385.864 409.526,437.849 432.536,467.648 455.545,492.335 478.555,505.065 501.564,517.796 524.574,530.526 547.583,543.257 570.593,555.987 593.602,568.718 616.612,581.448 639.621,594.178 662.63,606.909 685.64,619.639 708.649,632.37 731.659,645.1 754.668,657.83 777.678,670.561 800.687,683.291 823.697,696.022 846.706,708.752 869.716,721.483 892.725,734.213 915.735,746.943 938.744,759.674 961.754,772.404 984.763,785.135 1007.77,797.865 1030.78,810.595 1053.79,823.326 1076.8,836.056 1099.81,848.787 1122.82,861.517 1145.83,874.248 1168.84,886.978 1191.85,899.708 1214.86,912.439 1237.87,925.169 1260.88,937.9 1283.89,950.63 1306.9,963.36 1329.91,976.091 1352.92,988.821 1375.92,1001.55 1398.93,1014.28 1421.94,1027.01 1444.95,1039.74 1467.96,1052.47 1490.97,1065.2 1513.98,1077.93 1536.99,1090.66 1560,1103.4 1583.01,1116.13 1606.02,1128.86 1629.03,1141.59 1652.04,1154.32 1675.05,1167.05 1698.06,1179.78 1721.07,1192.51 1744.08,1205.24 1767.09,1217.97 1790.1,1230.7 1813.1,1243.43 1836.11,1256.16 1859.12,1268.89 1882.13,1281.62 1905.14,1294.35 1928.15,1307.08 1951.16,1319.81 1974.17,1332.54 1997.18,1345.27 2020.19,1358 2043.2,1370.73 2066.21,1383.46 2089.22,1396.19 2112.23,1408.93 2135.24,1421.66 2158.25,1434.39 2181.26,1447.12 2204.27,1459.85 2227.28,1472.58 2250.28,1485.31 2273.29,1498.04 2296.3,1510.77 2319.31,1523.5 2342.32,1536.23 2365.33,1548.96 2388.34,1561.69 2411.35,1574.42 2434.36,1587.15 2457.37,1599.88 2480.38,1600.46 2503.39,1600.46 2526.4,1600.46 2549.41,1600.46 2572.42,1600.46 "/>
<polyline clip-path="url(#clip041)" style="stroke:#808080; stroke-linecap:round; stroke-linejoin:round; stroke-width:4; stroke-opacity:1; fill:none" stroke-dasharray="2, 4" points="-2188.47,1607.09 5055.37,1607.09 "/>
<path clip-path="url(#clip041)" d="M2463.01 3340.44 L2463.01 -1478.53 L2572.42 -1478.53 L2572.42 3340.44 L2463.01 3340.44  Z" fill="#ffa500" fill-rule="evenodd" fill-opacity="0.08"/>
<polyline clip-path="url(#clip041)" style="stroke:#000000; stroke-linecap:round; stroke-linejoin:round; stroke-width:0; stroke-opacity:0.08; fill:none" points="2463.01,3340.44 2463.01,-1478.53 2572.42,-1478.53 2572.42,3340.44 2463.01,3340.44 "/>
<path clip-path="url(#clip040)" d="M1758.53 492.376 L2560.27 492.376 L2560.27 181.336 L1758.53 181.336  Z" fill="#ffffff" fill-rule="evenodd" fill-opacity="1"/>
<polyline clip-path="url(#clip040)" style="stroke:#000000; stroke-linecap:round; stroke-linejoin:round; stroke-width:4; stroke-opacity:1; fill:none" points="1758.53,492.376 2560.27,492.376 2560.27,181.336 1758.53,181.336 1758.53,492.376 "/>
<polyline clip-path="url(#clip040)" style="stroke:#000000; stroke-linecap:round; stroke-linejoin:round; stroke-width:8; stroke-opacity:1; fill:none" stroke-dasharray="32, 20" points="1785.36,233.176 1946.34,233.176 "/>
<path clip-path="url(#clip040)" d="M1973.16 215.896 L2002.4 215.896 L2002.4 219.831 L1990.13 219.831 L1990.13 250.456 L1985.43 250.456 L1985.43 219.831 L1973.16 219.831 L1973.16 215.896 Z" fill="#000000" fill-rule="nonzero" fill-opacity="1" /><path clip-path="url(#clip040)" d="M2014.79 228.512 Q2014.07 228.095 2013.21 227.91 Q2012.38 227.702 2011.36 227.702 Q2007.75 227.702 2005.8 230.063 Q2003.88 232.401 2003.88 236.799 L2003.88 250.456 L1999.6 250.456 L1999.6 224.531 L2003.88 224.531 L2003.88 228.558 Q2005.22 226.197 2007.38 225.063 Q2009.53 223.906 2012.61 223.906 Q2013.05 223.906 2013.58 223.975 Q2014.11 224.021 2014.76 224.137 L2014.79 228.512 Z" fill="#000000" fill-rule="nonzero" fill-opacity="1" /><path clip-path="url(#clip040)" d="M2018.81 240.225 L2018.81 224.531 L2023.07 224.531 L2023.07 240.063 Q2023.07 243.743 2024.51 245.595 Q2025.94 247.424 2028.81 247.424 Q2032.26 247.424 2034.25 245.225 Q2036.27 243.026 2036.27 239.229 L2036.27 224.531 L2040.53 224.531 L2040.53 250.456 L2036.27 250.456 L2036.27 246.475 Q2034.72 248.836 2032.66 249.993 Q2030.62 251.128 2027.91 251.128 Q2023.44 251.128 2021.13 248.35 Q2018.81 245.572 2018.81 240.225 M2029.53 223.906 L2029.53 223.906 Z" fill="#000000" fill-rule="nonzero" fill-opacity="1" /><path clip-path="url(#clip040)" d="M2071.47 236.429 L2071.47 238.512 L2051.89 238.512 Q2052.17 242.91 2054.53 245.225 Q2056.91 247.516 2061.15 247.516 Q2063.6 247.516 2065.9 246.915 Q2068.21 246.313 2070.48 245.109 L2070.48 249.137 Q2068.19 250.109 2065.78 250.618 Q2063.37 251.128 2060.9 251.128 Q2054.69 251.128 2051.06 247.516 Q2047.45 243.905 2047.45 237.748 Q2047.45 231.382 2050.87 227.655 Q2054.32 223.906 2060.16 223.906 Q2065.39 223.906 2068.42 227.285 Q2071.47 230.642 2071.47 236.429 M2067.22 235.179 Q2067.17 231.683 2065.25 229.6 Q2063.35 227.517 2060.2 227.517 Q2056.64 227.517 2054.48 229.53 Q2052.35 231.544 2052.03 235.202 L2067.22 235.179 Z" fill="#000000" fill-rule="nonzero" fill-opacity="1" /><path clip-path="url(#clip040)" d="M2108.56 228.512 Q2107.84 228.095 2106.98 227.91 Q2106.15 227.702 2105.13 227.702 Q2101.52 227.702 2099.58 230.063 Q2097.65 232.401 2097.65 236.799 L2097.65 250.456 L2093.37 250.456 L2093.37 224.531 L2097.65 224.531 L2097.65 228.558 Q2099 226.197 2101.15 225.063 Q2103.3 223.906 2106.38 223.906 Q2106.82 223.906 2107.35 223.975 Q2107.89 224.021 2108.53 224.137 L2108.56 228.512 Z" fill="#000000" fill-rule="nonzero" fill-opacity="1" /><path clip-path="url(#clip040)" d="M2123.26 214.484 Q2120.15 219.808 2118.65 225.017 Q2117.15 230.225 2117.15 235.572 Q2117.15 240.919 2118.65 246.174 Q2120.18 251.405 2123.26 256.706 L2119.55 256.706 Q2116.08 251.266 2114.34 246.012 Q2112.63 240.757 2112.63 235.572 Q2112.63 230.41 2114.34 225.179 Q2116.06 219.947 2119.55 214.484 L2123.26 214.484 Z" fill="#000000" fill-rule="nonzero" fill-opacity="1" /><path clip-path="url(#clip040)" d="M2131.71 215.896 L2138 215.896 L2153.33 244.808 L2153.33 215.896 L2157.86 215.896 L2157.86 250.456 L2151.57 250.456 L2136.24 221.544 L2136.24 250.456 L2131.71 250.456 L2131.71 215.896 Z" fill="#000000" fill-rule="nonzero" fill-opacity="1" /><path clip-path="url(#clip040)" d="M2166.31 214.484 L2170.02 214.484 Q2173.49 219.947 2175.2 225.179 Q2176.94 230.41 2176.94 235.572 Q2176.94 240.757 2175.2 246.012 Q2173.49 251.266 2170.02 256.706 L2166.31 256.706 Q2169.39 251.405 2170.9 246.174 Q2172.42 240.919 2172.42 235.572 Q2172.42 230.225 2170.9 225.017 Q2169.39 219.808 2166.31 214.484 Z" fill="#000000" fill-rule="nonzero" fill-opacity="1" /><polyline clip-path="url(#clip040)" style="stroke:#4682b4; stroke-linecap:round; stroke-linejoin:round; stroke-width:8; stroke-opacity:1; fill:none" points="1785.36,285.016 1946.34,285.016 "/>
<path clip-path="url(#clip040)" d="M1977.84 285.792 L1977.84 298.454 L1985.34 298.454 Q1989.11 298.454 1990.92 296.903 Q1992.75 295.329 1992.75 292.111 Q1992.75 288.87 1990.92 287.343 Q1989.11 285.792 1985.34 285.792 L1977.84 285.792 M1977.84 271.579 L1977.84 281.995 L1984.76 281.995 Q1988.19 281.995 1989.85 280.722 Q1991.54 279.426 1991.54 276.787 Q1991.54 274.171 1989.85 272.875 Q1988.19 271.579 1984.76 271.579 L1977.84 271.579 M1973.16 267.736 L1985.11 267.736 Q1990.46 267.736 1993.35 269.958 Q1996.24 272.181 1996.24 276.278 Q1996.24 279.449 1994.76 281.324 Q1993.28 283.199 1990.41 283.662 Q1993.86 284.403 1995.76 286.764 Q1997.68 289.102 1997.68 292.62 Q1997.68 297.25 1994.53 299.773 Q1991.38 302.296 1985.57 302.296 L1973.16 302.296 L1973.16 267.736 Z" fill="#000000" fill-rule="nonzero" fill-opacity="1" /><path clip-path="url(#clip040)" d="M2025.57 268.871 L2025.57 273.431 Q2022.91 272.158 2020.55 271.533 Q2018.19 270.908 2015.99 270.908 Q2012.17 270.908 2010.09 272.389 Q2008.03 273.871 2008.03 276.602 Q2008.03 278.894 2009.39 280.074 Q2010.78 281.232 2014.62 281.949 L2017.45 282.528 Q2022.68 283.523 2025.16 286.046 Q2027.66 288.546 2027.66 292.759 Q2027.66 297.782 2024.28 300.375 Q2020.92 302.968 2014.41 302.968 Q2011.96 302.968 2009.18 302.412 Q2006.43 301.856 2003.47 300.769 L2003.47 295.954 Q2006.31 297.551 2009.04 298.361 Q2011.78 299.171 2014.41 299.171 Q2018.42 299.171 2020.6 297.597 Q2022.77 296.023 2022.77 293.107 Q2022.77 290.56 2021.2 289.125 Q2019.65 287.69 2016.08 286.972 L2013.23 286.417 Q2008 285.375 2005.66 283.153 Q2003.33 280.931 2003.33 276.972 Q2003.33 272.389 2006.54 269.75 Q2009.79 267.111 2015.46 267.111 Q2017.89 267.111 2020.41 267.551 Q2022.93 267.991 2025.57 268.871 Z" fill="#000000" fill-rule="nonzero" fill-opacity="1" /><path clip-path="url(#clip040)" d="M2038.88 298.407 L2038.88 312.157 L2034.6 312.157 L2034.6 276.371 L2038.88 276.371 L2038.88 280.306 Q2040.22 277.991 2042.26 276.88 Q2044.32 275.746 2047.17 275.746 Q2051.89 275.746 2054.83 279.495 Q2057.79 283.245 2057.79 289.357 Q2057.79 295.468 2054.83 299.218 Q2051.89 302.968 2047.17 302.968 Q2044.32 302.968 2042.26 301.856 Q2040.22 300.722 2038.88 298.407 M2053.37 289.357 Q2053.37 284.657 2051.43 281.995 Q2049.51 279.31 2046.13 279.31 Q2042.75 279.31 2040.8 281.995 Q2038.88 284.657 2038.88 289.357 Q2038.88 294.056 2040.8 296.741 Q2042.75 299.403 2046.13 299.403 Q2049.51 299.403 2051.43 296.741 Q2053.37 294.056 2053.37 289.357 Z" fill="#000000" fill-rule="nonzero" fill-opacity="1" /><path clip-path="url(#clip040)" d="M2064.85 266.278 L2069.11 266.278 L2069.11 302.296 L2064.85 302.296 L2064.85 266.278 Z" fill="#000000" fill-rule="nonzero" fill-opacity="1" /><path clip-path="url(#clip040)" d="M2078.03 276.371 L2082.28 276.371 L2082.28 302.296 L2078.03 302.296 L2078.03 276.371 M2078.03 266.278 L2082.28 266.278 L2082.28 271.671 L2078.03 271.671 L2078.03 266.278 Z" fill="#000000" fill-rule="nonzero" fill-opacity="1" /><path clip-path="url(#clip040)" d="M2112.75 286.648 L2112.75 302.296 L2108.49 302.296 L2108.49 286.787 Q2108.49 283.107 2107.05 281.278 Q2105.62 279.449 2102.75 279.449 Q2099.3 279.449 2097.31 281.648 Q2095.32 283.847 2095.32 287.644 L2095.32 302.296 L2091.03 302.296 L2091.03 276.371 L2095.32 276.371 L2095.32 280.398 Q2096.84 278.06 2098.9 276.903 Q2100.99 275.746 2103.7 275.746 Q2108.16 275.746 2110.46 278.523 Q2112.75 281.278 2112.75 286.648 Z" fill="#000000" fill-rule="nonzero" fill-opacity="1" /><path clip-path="url(#clip040)" d="M2143.42 288.269 L2143.42 290.352 L2123.84 290.352 Q2124.11 294.75 2126.47 297.065 Q2128.86 299.356 2133.09 299.356 Q2135.55 299.356 2137.84 298.755 Q2140.15 298.153 2142.42 296.949 L2142.42 300.977 Q2140.13 301.949 2137.72 302.458 Q2135.32 302.968 2132.84 302.968 Q2126.64 302.968 2123 299.356 Q2119.39 295.745 2119.39 289.588 Q2119.39 283.222 2122.82 279.495 Q2126.27 275.746 2132.1 275.746 Q2137.33 275.746 2140.36 279.125 Q2143.42 282.482 2143.42 288.269 M2139.16 287.019 Q2139.11 283.523 2137.19 281.44 Q2135.29 279.357 2132.15 279.357 Q2128.58 279.357 2126.43 281.37 Q2124.3 283.384 2123.97 287.042 L2139.16 287.019 Z" fill="#000000" fill-rule="nonzero" fill-opacity="1" /><path clip-path="url(#clip040)" d="M2175.71 266.324 Q2172.61 271.648 2171.1 276.857 Q2169.6 282.065 2169.6 287.412 Q2169.6 292.759 2171.1 298.014 Q2172.63 303.245 2175.71 308.546 L2172.01 308.546 Q2168.53 303.106 2166.8 297.852 Q2165.09 292.597 2165.09 287.412 Q2165.09 282.25 2166.8 277.019 Q2168.51 271.787 2172.01 266.324 L2175.71 266.324 Z" fill="#000000" fill-rule="nonzero" fill-opacity="1" /><path clip-path="url(#clip040)" d="M2183.53 292.065 L2183.53 276.371 L2187.79 276.371 L2187.79 291.903 Q2187.79 295.583 2189.23 297.435 Q2190.66 299.264 2193.53 299.264 Q2196.98 299.264 2198.97 297.065 Q2200.99 294.866 2200.99 291.069 L2200.99 276.371 L2205.25 276.371 L2205.25 302.296 L2200.99 302.296 L2200.99 298.315 Q2199.44 300.676 2197.38 301.833 Q2195.34 302.968 2192.63 302.968 Q2188.16 302.968 2185.85 300.19 Q2183.53 297.412 2183.53 292.065 M2194.25 275.746 L2194.25 275.746 Z" fill="#000000" fill-rule="nonzero" fill-opacity="1" /><path clip-path="url(#clip040)" d="M2235.57 286.648 L2235.57 302.296 L2231.31 302.296 L2231.31 286.787 Q2231.31 283.107 2229.88 281.278 Q2228.44 279.449 2225.57 279.449 Q2222.12 279.449 2220.13 281.648 Q2218.14 283.847 2218.14 287.644 L2218.14 302.296 L2213.86 302.296 L2213.86 276.371 L2218.14 276.371 L2218.14 280.398 Q2219.67 278.06 2221.73 276.903 Q2223.81 275.746 2226.52 275.746 Q2230.99 275.746 2233.28 278.523 Q2235.57 281.278 2235.57 286.648 Z" fill="#000000" fill-rule="nonzero" fill-opacity="1" /><path clip-path="url(#clip040)" d="M2262.72 277.366 L2262.72 281.347 Q2260.92 280.352 2259.09 279.866 Q2257.28 279.357 2255.43 279.357 Q2251.29 279.357 2249 281.995 Q2246.71 284.611 2246.71 289.357 Q2246.71 294.102 2249 296.741 Q2251.29 299.356 2255.43 299.356 Q2257.28 299.356 2259.09 298.87 Q2260.92 298.361 2262.72 297.366 L2262.72 301.301 Q2260.94 302.134 2259.02 302.551 Q2257.12 302.968 2254.97 302.968 Q2249.11 302.968 2245.66 299.287 Q2242.21 295.607 2242.21 289.357 Q2242.21 283.014 2245.69 279.38 Q2249.18 275.746 2255.25 275.746 Q2257.21 275.746 2259.09 276.162 Q2260.96 276.556 2262.72 277.366 Z" fill="#000000" fill-rule="nonzero" fill-opacity="1" /><path clip-path="url(#clip040)" d="M2280.18 279.357 Q2276.75 279.357 2274.76 282.042 Q2272.77 284.704 2272.77 289.357 Q2272.77 294.009 2274.74 296.694 Q2276.73 299.356 2280.18 299.356 Q2283.58 299.356 2285.57 296.671 Q2287.56 293.986 2287.56 289.357 Q2287.56 284.75 2285.57 282.065 Q2283.58 279.357 2280.18 279.357 M2280.18 275.746 Q2285.73 275.746 2288.9 279.357 Q2292.08 282.968 2292.08 289.357 Q2292.08 295.722 2288.9 299.356 Q2285.73 302.968 2280.18 302.968 Q2274.6 302.968 2271.43 299.356 Q2268.28 295.722 2268.28 289.357 Q2268.28 282.968 2271.43 279.357 Q2274.6 275.746 2280.18 275.746 Z" fill="#000000" fill-rule="nonzero" fill-opacity="1" /><path clip-path="url(#clip040)" d="M2320.69 286.648 L2320.69 302.296 L2316.43 302.296 L2316.43 286.787 Q2316.43 283.107 2314.99 281.278 Q2313.56 279.449 2310.69 279.449 Q2307.24 279.449 2305.25 281.648 Q2303.26 283.847 2303.26 287.644 L2303.26 302.296 L2298.97 302.296 L2298.97 276.371 L2303.26 276.371 L2303.26 280.398 Q2304.78 278.06 2306.84 276.903 Q2308.93 275.746 2311.64 275.746 Q2316.1 275.746 2318.39 278.523 Q2320.69 281.278 2320.69 286.648 Z" fill="#000000" fill-rule="nonzero" fill-opacity="1" /><path clip-path="url(#clip040)" d="M2345.71 277.134 L2345.71 281.162 Q2343.9 280.236 2341.96 279.773 Q2340.01 279.31 2337.93 279.31 Q2334.76 279.31 2333.16 280.283 Q2331.59 281.255 2331.59 283.199 Q2331.59 284.681 2332.72 285.537 Q2333.86 286.37 2337.28 287.134 L2338.74 287.458 Q2343.28 288.431 2345.18 290.213 Q2347.1 291.972 2347.1 295.144 Q2347.1 298.755 2344.23 300.861 Q2341.38 302.968 2336.38 302.968 Q2334.3 302.968 2332.03 302.551 Q2329.78 302.157 2327.28 301.347 L2327.28 296.949 Q2329.64 298.176 2331.94 298.801 Q2334.23 299.403 2336.47 299.403 Q2339.48 299.403 2341.1 298.384 Q2342.72 297.343 2342.72 295.468 Q2342.72 293.732 2341.54 292.806 Q2340.39 291.88 2336.43 291.023 L2334.95 290.676 Q2330.99 289.843 2329.23 288.13 Q2327.47 286.394 2327.47 283.384 Q2327.47 279.727 2330.06 277.736 Q2332.65 275.746 2337.42 275.746 Q2339.78 275.746 2341.87 276.093 Q2343.95 276.44 2345.71 277.134 Z" fill="#000000" fill-rule="nonzero" fill-opacity="1" /><path clip-path="url(#clip040)" d="M2358.09 269.009 L2358.09 276.371 L2366.87 276.371 L2366.87 279.681 L2358.09 279.681 L2358.09 293.755 Q2358.09 296.926 2358.95 297.829 Q2359.83 298.731 2362.49 298.731 L2366.87 298.731 L2366.87 302.296 L2362.49 302.296 Q2357.56 302.296 2355.69 300.468 Q2353.81 298.616 2353.81 293.755 L2353.81 279.681 L2350.69 279.681 L2350.69 276.371 L2353.81 276.371 L2353.81 269.009 L2358.09 269.009 Z" fill="#000000" fill-rule="nonzero" fill-opacity="1" /><path clip-path="url(#clip040)" d="M2387.49 280.352 Q2386.77 279.935 2385.92 279.75 Q2385.08 279.542 2384.07 279.542 Q2380.45 279.542 2378.51 281.903 Q2376.59 284.241 2376.59 288.639 L2376.59 302.296 L2372.31 302.296 L2372.31 276.371 L2376.59 276.371 L2376.59 280.398 Q2377.93 278.037 2380.08 276.903 Q2382.24 275.746 2385.32 275.746 Q2385.76 275.746 2386.29 275.815 Q2386.82 275.861 2387.47 275.977 L2387.49 280.352 Z" fill="#000000" fill-rule="nonzero" fill-opacity="1" /><path clip-path="url(#clip040)" d="M2403.74 289.264 Q2398.58 289.264 2396.59 290.444 Q2394.6 291.625 2394.6 294.472 Q2394.6 296.741 2396.08 298.083 Q2397.58 299.403 2400.15 299.403 Q2403.69 299.403 2405.82 296.903 Q2407.98 294.38 2407.98 290.213 L2407.98 289.264 L2403.74 289.264 M2412.24 287.505 L2412.24 302.296 L2407.98 302.296 L2407.98 298.361 Q2406.52 300.722 2404.34 301.856 Q2402.17 302.968 2399.02 302.968 Q2395.04 302.968 2392.68 300.745 Q2390.34 298.5 2390.34 294.75 Q2390.34 290.375 2393.26 288.153 Q2396.2 285.931 2402.01 285.931 L2407.98 285.931 L2407.98 285.514 Q2407.98 282.574 2406.03 280.977 Q2404.11 279.357 2400.62 279.357 Q2398.39 279.357 2396.29 279.889 Q2394.18 280.421 2392.24 281.486 L2392.24 277.551 Q2394.57 276.648 2396.77 276.208 Q2398.97 275.746 2401.06 275.746 Q2406.68 275.746 2409.46 278.662 Q2412.24 281.579 2412.24 287.505 Z" fill="#000000" fill-rule="nonzero" fill-opacity="1" /><path clip-path="url(#clip040)" d="M2421.01 276.371 L2425.27 276.371 L2425.27 302.296 L2421.01 302.296 L2421.01 276.371 M2421.01 266.278 L2425.27 266.278 L2425.27 271.671 L2421.01 271.671 L2421.01 266.278 Z" fill="#000000" fill-rule="nonzero" fill-opacity="1" /><path clip-path="url(#clip040)" d="M2455.73 286.648 L2455.73 302.296 L2451.47 302.296 L2451.47 286.787 Q2451.47 283.107 2450.04 281.278 Q2448.6 279.449 2445.73 279.449 Q2442.28 279.449 2440.29 281.648 Q2438.3 283.847 2438.3 287.644 L2438.3 302.296 L2434.02 302.296 L2434.02 276.371 L2438.3 276.371 L2438.3 280.398 Q2439.83 278.06 2441.89 276.903 Q2443.97 275.746 2446.68 275.746 Q2451.15 275.746 2453.44 278.523 Q2455.73 281.278 2455.73 286.648 Z" fill="#000000" fill-rule="nonzero" fill-opacity="1" /><path clip-path="url(#clip040)" d="M2486.4 288.269 L2486.4 290.352 L2466.82 290.352 Q2467.1 294.75 2469.46 297.065 Q2471.84 299.356 2476.08 299.356 Q2478.53 299.356 2480.82 298.755 Q2483.14 298.153 2485.41 296.949 L2485.41 300.977 Q2483.12 301.949 2480.71 302.458 Q2478.3 302.968 2475.82 302.968 Q2469.62 302.968 2465.99 299.356 Q2462.38 295.745 2462.38 289.588 Q2462.38 283.222 2465.8 279.495 Q2469.25 275.746 2475.08 275.746 Q2480.31 275.746 2483.35 279.125 Q2486.4 282.482 2486.4 288.269 M2482.14 287.019 Q2482.1 283.523 2480.18 281.44 Q2478.28 279.357 2475.13 279.357 Q2471.56 279.357 2469.41 281.37 Q2467.28 283.384 2466.96 287.042 L2482.14 287.019 Z" fill="#000000" fill-rule="nonzero" fill-opacity="1" /><path clip-path="url(#clip040)" d="M2510.45 280.306 L2510.45 266.278 L2514.71 266.278 L2514.71 302.296 L2510.45 302.296 L2510.45 298.407 Q2509.11 300.722 2507.05 301.856 Q2505.01 302.968 2502.14 302.968 Q2497.44 302.968 2494.48 299.218 Q2491.54 295.468 2491.54 289.357 Q2491.54 283.245 2494.48 279.495 Q2497.44 275.746 2502.14 275.746 Q2505.01 275.746 2507.05 276.88 Q2509.11 277.991 2510.45 280.306 M2495.94 289.357 Q2495.94 294.056 2497.86 296.741 Q2499.81 299.403 2503.19 299.403 Q2506.56 299.403 2508.51 296.741 Q2510.45 294.056 2510.45 289.357 Q2510.45 284.657 2508.51 281.995 Q2506.56 279.31 2503.19 279.31 Q2499.81 279.31 2497.86 281.995 Q2495.94 284.657 2495.94 289.357 Z" fill="#000000" fill-rule="nonzero" fill-opacity="1" /><path clip-path="url(#clip040)" d="M2522.81 266.324 L2526.52 266.324 Q2529.99 271.787 2531.7 277.019 Q2533.44 282.25 2533.44 287.412 Q2533.44 292.597 2531.7 297.852 Q2529.99 303.106 2526.52 308.546 L2522.81 308.546 Q2525.89 303.245 2527.4 298.014 Q2528.93 292.759 2528.93 287.412 Q2528.93 282.065 2527.4 276.857 Q2525.89 271.648 2522.81 266.324 Z" fill="#000000" fill-rule="nonzero" fill-opacity="1" /><polyline clip-path="url(#clip040)" style="stroke:#b22222; stroke-linecap:round; stroke-linejoin:round; stroke-width:8; stroke-opacity:1; fill:none" points="1785.36,336.856 1946.34,336.856 "/>
<path clip-path="url(#clip040)" d="M1995.41 320.711 L1995.41 325.271 Q1992.75 323.998 1990.39 323.373 Q1988.03 322.748 1985.83 322.748 Q1982.01 322.748 1979.92 324.229 Q1977.86 325.711 1977.86 328.442 Q1977.86 330.734 1979.23 331.914 Q1980.62 333.072 1984.46 333.789 L1987.29 334.368 Q1992.52 335.363 1994.99 337.886 Q1997.49 340.386 1997.49 344.599 Q1997.49 349.622 1994.11 352.215 Q1990.76 354.808 1984.25 354.808 Q1981.8 354.808 1979.02 354.252 Q1976.27 353.696 1973.3 352.609 L1973.3 347.794 Q1976.15 349.391 1978.88 350.201 Q1981.61 351.011 1984.25 351.011 Q1988.26 351.011 1990.43 349.437 Q1992.61 347.863 1992.61 344.947 Q1992.61 342.4 1991.04 340.965 Q1989.48 339.53 1985.92 338.812 L1983.07 338.257 Q1977.84 337.215 1975.5 334.993 Q1973.16 332.771 1973.16 328.812 Q1973.16 324.229 1976.38 321.59 Q1979.62 318.951 1985.29 318.951 Q1987.72 318.951 1990.25 319.391 Q1992.77 319.831 1995.41 320.711 Z" fill="#000000" fill-rule="nonzero" fill-opacity="1" /><path clip-path="url(#clip040)" d="M2030.66 322.238 L2030.66 327.169 Q2028.3 324.97 2025.62 323.882 Q2022.96 322.794 2019.95 322.794 Q2014.02 322.794 2010.87 326.428 Q2007.72 330.039 2007.72 336.891 Q2007.72 343.72 2010.87 347.354 Q2014.02 350.965 2019.95 350.965 Q2022.96 350.965 2025.62 349.877 Q2028.3 348.789 2030.66 346.59 L2030.66 351.474 Q2028.21 353.141 2025.46 353.974 Q2022.72 354.808 2019.67 354.808 Q2011.82 354.808 2007.31 350.016 Q2002.79 345.201 2002.79 336.891 Q2002.79 328.558 2007.31 323.766 Q2011.82 318.951 2019.67 318.951 Q2022.77 318.951 2025.5 319.785 Q2028.26 320.595 2030.66 322.238 Z" fill="#000000" fill-rule="nonzero" fill-opacity="1" /><path clip-path="url(#clip040)" d="M2042.56 337.632 L2042.56 350.294 L2050.06 350.294 Q2053.84 350.294 2055.64 348.743 Q2057.47 347.169 2057.47 343.951 Q2057.47 340.71 2055.64 339.183 Q2053.84 337.632 2050.06 337.632 L2042.56 337.632 M2042.56 323.419 L2042.56 333.835 L2049.48 333.835 Q2052.91 333.835 2054.58 332.562 Q2056.27 331.266 2056.27 328.627 Q2056.27 326.011 2054.58 324.715 Q2052.91 323.419 2049.48 323.419 L2042.56 323.419 M2037.89 319.576 L2049.83 319.576 Q2055.18 319.576 2058.07 321.798 Q2060.97 324.021 2060.97 328.118 Q2060.97 331.289 2059.48 333.164 Q2058 335.039 2055.13 335.502 Q2058.58 336.243 2060.48 338.604 Q2062.4 340.942 2062.4 344.46 Q2062.4 349.09 2059.25 351.613 Q2056.1 354.136 2050.29 354.136 L2037.89 354.136 L2037.89 319.576 Z" fill="#000000" fill-rule="nonzero" fill-opacity="1" /><path clip-path="url(#clip040)" d="M2090.29 320.711 L2090.29 325.271 Q2087.63 323.998 2085.27 323.373 Q2082.91 322.748 2080.71 322.748 Q2076.89 322.748 2074.81 324.229 Q2072.75 325.711 2072.75 328.442 Q2072.75 330.734 2074.11 331.914 Q2075.5 333.072 2079.34 333.789 L2082.17 334.368 Q2087.4 335.363 2089.88 337.886 Q2092.38 340.386 2092.38 344.599 Q2092.38 349.622 2089 352.215 Q2085.64 354.808 2079.14 354.808 Q2076.68 354.808 2073.91 354.252 Q2071.15 353.696 2068.19 352.609 L2068.19 347.794 Q2071.03 349.391 2073.77 350.201 Q2076.5 351.011 2079.14 351.011 Q2083.14 351.011 2085.32 349.437 Q2087.49 347.863 2087.49 344.947 Q2087.49 342.4 2085.92 340.965 Q2084.37 339.53 2080.8 338.812 L2077.96 338.257 Q2072.72 337.215 2070.39 334.993 Q2068.05 332.771 2068.05 328.812 Q2068.05 324.229 2071.27 321.59 Q2074.51 318.951 2080.18 318.951 Q2082.61 318.951 2085.13 319.391 Q2087.66 319.831 2090.29 320.711 Z" fill="#000000" fill-rule="nonzero" fill-opacity="1" /><path clip-path="url(#clip040)" d="M2124.78 318.164 Q2121.68 323.488 2120.18 328.697 Q2118.67 333.905 2118.67 339.252 Q2118.67 344.599 2120.18 349.854 Q2121.71 355.085 2124.78 360.386 L2121.08 360.386 Q2117.61 354.946 2115.87 349.692 Q2114.16 344.437 2114.16 339.252 Q2114.16 334.09 2115.87 328.859 Q2117.59 323.627 2121.08 318.164 L2124.78 318.164 Z" fill="#000000" fill-rule="nonzero" fill-opacity="1" /><path clip-path="url(#clip040)" d="M2150.11 332.146 L2150.11 318.118 L2154.37 318.118 L2154.37 354.136 L2150.11 354.136 L2150.11 350.247 Q2148.77 352.562 2146.71 353.696 Q2144.67 354.808 2141.8 354.808 Q2137.1 354.808 2134.14 351.058 Q2131.2 347.308 2131.2 341.197 Q2131.2 335.085 2134.14 331.335 Q2137.1 327.586 2141.8 327.586 Q2144.67 327.586 2146.71 328.72 Q2148.77 329.831 2150.11 332.146 M2135.59 341.197 Q2135.59 345.896 2137.52 348.581 Q2139.46 351.243 2142.84 351.243 Q2146.22 351.243 2148.16 348.581 Q2150.11 345.896 2150.11 341.197 Q2150.11 336.497 2148.16 333.835 Q2146.22 331.15 2142.84 331.15 Q2139.46 331.15 2137.52 333.835 Q2135.59 336.497 2135.59 341.197 Z" fill="#000000" fill-rule="nonzero" fill-opacity="1" /><path clip-path="url(#clip040)" d="M2185.32 340.109 L2185.32 342.192 L2165.73 342.192 Q2166.01 346.59 2168.37 348.905 Q2170.76 351.196 2174.99 351.196 Q2177.45 351.196 2179.74 350.595 Q2182.05 349.993 2184.32 348.789 L2184.32 352.817 Q2182.03 353.789 2179.62 354.298 Q2177.21 354.808 2174.74 354.808 Q2168.53 354.808 2164.9 351.196 Q2161.29 347.585 2161.29 341.428 Q2161.29 335.062 2164.71 331.335 Q2168.16 327.586 2174 327.586 Q2179.23 327.586 2182.26 330.965 Q2185.32 334.322 2185.32 340.109 M2181.06 338.859 Q2181.01 335.363 2179.09 333.28 Q2177.19 331.197 2174.04 331.197 Q2170.48 331.197 2168.33 333.21 Q2166.2 335.224 2165.87 338.882 L2181.06 338.859 Z" fill="#000000" fill-rule="nonzero" fill-opacity="1" /><path clip-path="url(#clip040)" d="M2210.96 329.206 L2210.96 333.187 Q2209.16 332.192 2207.33 331.706 Q2205.52 331.197 2203.67 331.197 Q2199.53 331.197 2197.24 333.835 Q2194.95 336.451 2194.95 341.197 Q2194.95 345.942 2197.24 348.581 Q2199.53 351.196 2203.67 351.196 Q2205.52 351.196 2207.33 350.71 Q2209.16 350.201 2210.96 349.206 L2210.96 353.141 Q2209.18 353.974 2207.26 354.391 Q2205.36 354.808 2203.21 354.808 Q2197.35 354.808 2193.9 351.127 Q2190.46 347.447 2190.46 341.197 Q2190.46 334.854 2193.93 331.22 Q2197.42 327.586 2203.49 327.586 Q2205.46 327.586 2207.33 328.002 Q2209.21 328.396 2210.96 329.206 Z" fill="#000000" fill-rule="nonzero" fill-opacity="1" /><path clip-path="url(#clip040)" d="M2233.39 332.192 Q2232.68 331.775 2231.82 331.59 Q2230.99 331.382 2229.97 331.382 Q2226.36 331.382 2224.41 333.743 Q2222.49 336.081 2222.49 340.479 L2222.49 354.136 L2218.21 354.136 L2218.21 328.211 L2222.49 328.211 L2222.49 332.238 Q2223.83 329.877 2225.99 328.743 Q2228.14 327.586 2231.22 327.586 Q2231.66 327.586 2232.19 327.655 Q2232.72 327.701 2233.37 327.817 L2233.39 332.192 Z" fill="#000000" fill-rule="nonzero" fill-opacity="1" /><path clip-path="url(#clip040)" d="M2259 340.109 L2259 342.192 L2239.41 342.192 Q2239.69 346.59 2242.05 348.905 Q2244.44 351.196 2248.67 351.196 Q2251.13 351.196 2253.42 350.595 Q2255.73 349.993 2258 348.789 L2258 352.817 Q2255.71 353.789 2253.3 354.298 Q2250.89 354.808 2248.42 354.808 Q2242.21 354.808 2238.58 351.196 Q2234.97 347.585 2234.97 341.428 Q2234.97 335.062 2238.39 331.335 Q2241.84 327.586 2247.68 327.586 Q2252.91 327.586 2255.94 330.965 Q2259 334.322 2259 340.109 M2254.74 338.859 Q2254.69 335.363 2252.77 333.28 Q2250.87 331.197 2247.72 331.197 Q2244.16 331.197 2242.01 333.21 Q2239.88 335.224 2239.55 338.882 L2254.74 338.859 Z" fill="#000000" fill-rule="nonzero" fill-opacity="1" /><path clip-path="url(#clip040)" d="M2277.77 341.104 Q2272.61 341.104 2270.62 342.284 Q2268.63 343.465 2268.63 346.312 Q2268.63 348.581 2270.11 349.923 Q2271.61 351.243 2274.18 351.243 Q2277.72 351.243 2279.85 348.743 Q2282.01 346.22 2282.01 342.053 L2282.01 341.104 L2277.77 341.104 M2286.27 339.345 L2286.27 354.136 L2282.01 354.136 L2282.01 350.201 Q2280.55 352.562 2278.37 353.696 Q2276.2 354.808 2273.05 354.808 Q2269.07 354.808 2266.7 352.585 Q2264.37 350.34 2264.37 346.59 Q2264.37 342.215 2267.28 339.993 Q2270.22 337.771 2276.03 337.771 L2282.01 337.771 L2282.01 337.354 Q2282.01 334.414 2280.06 332.817 Q2278.14 331.197 2274.64 331.197 Q2272.42 331.197 2270.32 331.729 Q2268.21 332.261 2266.27 333.326 L2266.27 329.391 Q2268.6 328.488 2270.8 328.048 Q2273 327.586 2275.08 327.586 Q2280.71 327.586 2283.49 330.502 Q2286.27 333.419 2286.27 339.345 Z" fill="#000000" fill-rule="nonzero" fill-opacity="1" /><path clip-path="url(#clip040)" d="M2311.57 328.974 L2311.57 333.002 Q2309.76 332.076 2307.82 331.613 Q2305.87 331.15 2303.79 331.15 Q2300.62 331.15 2299.02 332.123 Q2297.45 333.095 2297.45 335.039 Q2297.45 336.521 2298.58 337.377 Q2299.71 338.21 2303.14 338.974 L2304.6 339.298 Q2309.14 340.271 2311.03 342.053 Q2312.95 343.812 2312.95 346.984 Q2312.95 350.595 2310.08 352.701 Q2307.24 354.808 2302.24 354.808 Q2300.15 354.808 2297.89 354.391 Q2295.64 353.997 2293.14 353.187 L2293.14 348.789 Q2295.5 350.016 2297.79 350.641 Q2300.08 351.243 2302.33 351.243 Q2305.34 351.243 2306.96 350.224 Q2308.58 349.183 2308.58 347.308 Q2308.58 345.572 2307.4 344.646 Q2306.24 343.72 2302.28 342.863 L2300.8 342.516 Q2296.84 341.683 2295.08 339.97 Q2293.33 338.234 2293.33 335.224 Q2293.33 331.567 2295.92 329.576 Q2298.51 327.586 2303.28 327.586 Q2305.64 327.586 2307.72 327.933 Q2309.81 328.28 2311.57 328.974 Z" fill="#000000" fill-rule="nonzero" fill-opacity="1" /><path clip-path="url(#clip040)" d="M2319.74 328.211 L2324 328.211 L2324 354.136 L2319.74 354.136 L2319.74 328.211 M2319.74 318.118 L2324 318.118 L2324 323.511 L2319.74 323.511 L2319.74 318.118 Z" fill="#000000" fill-rule="nonzero" fill-opacity="1" /><path clip-path="url(#clip040)" d="M2354.46 338.488 L2354.46 354.136 L2350.2 354.136 L2350.2 338.627 Q2350.2 334.947 2348.76 333.118 Q2347.33 331.289 2344.46 331.289 Q2341.01 331.289 2339.02 333.488 Q2337.03 335.687 2337.03 339.484 L2337.03 354.136 L2332.75 354.136 L2332.75 328.211 L2337.03 328.211 L2337.03 332.238 Q2338.56 329.9 2340.62 328.743 Q2342.7 327.586 2345.41 327.586 Q2349.88 327.586 2352.17 330.363 Q2354.46 333.118 2354.46 338.488 Z" fill="#000000" fill-rule="nonzero" fill-opacity="1" /><path clip-path="url(#clip040)" d="M2380.01 340.872 Q2380.01 336.243 2378.09 333.697 Q2376.2 331.15 2372.75 331.15 Q2369.32 331.15 2367.4 333.697 Q2365.5 336.243 2365.5 340.872 Q2365.5 345.479 2367.4 348.025 Q2369.32 350.571 2372.75 350.571 Q2376.2 350.571 2378.09 348.025 Q2380.01 345.479 2380.01 340.872 M2384.27 350.919 Q2384.27 357.539 2381.33 360.757 Q2378.39 363.997 2372.33 363.997 Q2370.08 363.997 2368.09 363.65 Q2366.1 363.326 2364.23 362.632 L2364.23 358.488 Q2366.1 359.507 2367.93 359.993 Q2369.76 360.479 2371.66 360.479 Q2375.85 360.479 2377.93 358.28 Q2380.01 356.104 2380.01 351.683 L2380.01 349.576 Q2378.7 351.868 2376.63 353.002 Q2374.57 354.136 2371.7 354.136 Q2366.94 354.136 2364.02 350.502 Q2361.1 346.868 2361.1 340.872 Q2361.1 334.854 2364.02 331.22 Q2366.94 327.586 2371.7 327.586 Q2374.57 327.586 2376.63 328.72 Q2378.7 329.854 2380.01 332.146 L2380.01 328.211 L2384.27 328.211 L2384.27 350.919 Z" fill="#000000" fill-rule="nonzero" fill-opacity="1" /><path clip-path="url(#clip040)" d="M2392.38 318.164 L2396.08 318.164 Q2399.55 323.627 2401.26 328.859 Q2403 334.09 2403 339.252 Q2403 344.437 2401.26 349.692 Q2399.55 354.946 2396.08 360.386 L2392.38 360.386 Q2395.45 355.085 2396.96 349.854 Q2398.49 344.599 2398.49 339.252 Q2398.49 333.905 2396.96 328.697 Q2395.45 323.488 2392.38 318.164 Z" fill="#000000" fill-rule="nonzero" fill-opacity="1" /><polyline clip-path="url(#clip040)" style="stroke:#800080; stroke-linecap:round; stroke-linejoin:round; stroke-width:8; stroke-opacity:1; fill:none" points="1785.36,388.696 1946.34,388.696 "/>
<path clip-path="url(#clip040)" d="M2001.04 374.078 L2001.04 379.009 Q1998.67 376.81 1995.99 375.722 Q1993.33 374.634 1990.32 374.634 Q1984.39 374.634 1981.24 378.268 Q1978.1 381.879 1978.1 388.731 Q1978.1 395.56 1981.24 399.194 Q1984.39 402.805 1990.32 402.805 Q1993.33 402.805 1995.99 401.717 Q1998.67 400.629 2001.04 398.43 L2001.04 403.314 Q1998.58 404.981 1995.83 405.814 Q1993.1 406.648 1990.04 406.648 Q1982.19 406.648 1977.68 401.856 Q1973.16 397.041 1973.16 388.731 Q1973.16 380.398 1977.68 375.606 Q1982.19 370.791 1990.04 370.791 Q1993.14 370.791 1995.87 371.625 Q1998.63 372.435 2001.04 374.078 Z" fill="#000000" fill-rule="nonzero" fill-opacity="1" /><path clip-path="url(#clip040)" d="M2022.28 374.588 Q2017.19 374.588 2014.18 378.384 Q2011.2 382.18 2011.2 388.731 Q2011.2 395.259 2014.18 399.055 Q2017.19 402.851 2022.28 402.851 Q2027.38 402.851 2030.34 399.055 Q2033.33 395.259 2033.33 388.731 Q2033.33 382.18 2030.34 378.384 Q2027.38 374.588 2022.28 374.588 M2022.28 370.791 Q2029.55 370.791 2033.91 375.676 Q2038.26 380.537 2038.26 388.731 Q2038.26 396.902 2033.91 401.786 Q2029.55 406.648 2022.28 406.648 Q2014.99 406.648 2010.62 401.786 Q2006.27 396.925 2006.27 388.731 Q2006.27 380.537 2010.62 375.676 Q2014.99 370.791 2022.28 370.791 Z" fill="#000000" fill-rule="nonzero" fill-opacity="1" /><path clip-path="url(#clip040)" d="M2045.57 371.416 L2052.54 371.416 L2061.36 394.935 L2070.22 371.416 L2077.19 371.416 L2077.19 405.976 L2072.63 405.976 L2072.63 375.629 L2063.72 399.333 L2059.02 399.333 L2050.11 375.629 L2050.11 405.976 L2045.57 405.976 L2045.57 371.416 Z" fill="#000000" fill-rule="nonzero" fill-opacity="1" /><path clip-path="url(#clip040)" d="M2100.5 374.588 Q2095.41 374.588 2092.4 378.384 Q2089.41 382.18 2089.41 388.731 Q2089.41 395.259 2092.4 399.055 Q2095.41 402.851 2100.5 402.851 Q2105.59 402.851 2108.56 399.055 Q2111.54 395.259 2111.54 388.731 Q2111.54 382.18 2108.56 378.384 Q2105.59 374.588 2100.5 374.588 M2100.5 370.791 Q2107.77 370.791 2112.12 375.676 Q2116.47 380.537 2116.47 388.731 Q2116.47 396.902 2112.12 401.786 Q2107.77 406.648 2100.5 406.648 Q2093.21 406.648 2088.84 401.786 Q2084.48 396.925 2084.48 388.731 Q2084.48 380.537 2088.84 375.676 Q2093.21 370.791 2100.5 370.791 Z" fill="#000000" fill-rule="nonzero" fill-opacity="1" /><path clip-path="url(#clip040)" d="M2123.79 371.416 L2130.09 371.416 L2145.41 400.328 L2145.41 371.416 L2149.95 371.416 L2149.95 405.976 L2143.65 405.976 L2128.33 377.064 L2128.33 405.976 L2123.79 405.976 L2123.79 371.416 Z" fill="#000000" fill-rule="nonzero" fill-opacity="1" /><path clip-path="url(#clip040)" d="M2181.24 391.949 L2181.24 394.032 L2161.66 394.032 Q2161.94 398.43 2164.3 400.745 Q2166.68 403.036 2170.92 403.036 Q2173.37 403.036 2175.66 402.435 Q2177.98 401.833 2180.25 400.629 L2180.25 404.657 Q2177.96 405.629 2175.55 406.138 Q2173.14 406.648 2170.66 406.648 Q2164.46 406.648 2160.83 403.036 Q2157.21 399.425 2157.21 393.268 Q2157.21 386.902 2160.64 383.175 Q2164.09 379.426 2169.92 379.426 Q2175.15 379.426 2178.19 382.805 Q2181.24 386.162 2181.24 391.949 M2176.98 390.699 Q2176.94 387.203 2175.02 385.12 Q2173.12 383.037 2169.97 383.037 Q2166.4 383.037 2164.25 385.05 Q2162.12 387.064 2161.8 390.722 L2176.98 390.699 Z" fill="#000000" fill-rule="nonzero" fill-opacity="1" /><path clip-path="url(#clip040)" d="M2192.45 372.689 L2192.45 380.051 L2201.22 380.051 L2201.22 383.361 L2192.45 383.361 L2192.45 397.435 Q2192.45 400.606 2193.3 401.509 Q2194.18 402.411 2196.84 402.411 L2201.22 402.411 L2201.22 405.976 L2196.84 405.976 Q2191.91 405.976 2190.04 404.148 Q2188.16 402.296 2188.16 397.435 L2188.16 383.361 L2185.04 383.361 L2185.04 380.051 L2188.16 380.051 L2188.16 372.689 L2192.45 372.689 Z" fill="#000000" fill-rule="nonzero" fill-opacity="1" /><path clip-path="url(#clip040)" d="M2232.12 370.004 Q2229.02 375.328 2227.52 380.537 Q2226.01 385.745 2226.01 391.092 Q2226.01 396.439 2227.52 401.694 Q2229.04 406.925 2232.12 412.226 L2228.42 412.226 Q2224.95 406.786 2223.21 401.532 Q2221.5 396.277 2221.5 391.092 Q2221.5 385.93 2223.21 380.699 Q2224.92 375.467 2228.42 370.004 L2232.12 370.004 Z" fill="#000000" fill-rule="nonzero" fill-opacity="1" /><path clip-path="url(#clip040)" d="M2257.45 383.986 L2257.45 369.958 L2261.71 369.958 L2261.71 405.976 L2257.45 405.976 L2257.45 402.087 Q2256.1 404.402 2254.04 405.536 Q2252.01 406.648 2249.14 406.648 Q2244.44 406.648 2241.47 402.898 Q2238.53 399.148 2238.53 393.037 Q2238.53 386.925 2241.47 383.175 Q2244.44 379.426 2249.14 379.426 Q2252.01 379.426 2254.04 380.56 Q2256.1 381.671 2257.45 383.986 M2242.93 393.037 Q2242.93 397.736 2244.85 400.421 Q2246.8 403.083 2250.18 403.083 Q2253.56 403.083 2255.5 400.421 Q2257.45 397.736 2257.45 393.037 Q2257.45 388.337 2255.5 385.675 Q2253.56 382.99 2250.18 382.99 Q2246.8 382.99 2244.85 385.675 Q2242.93 388.337 2242.93 393.037 Z" fill="#000000" fill-rule="nonzero" fill-opacity="1" /><path clip-path="url(#clip040)" d="M2292.65 391.949 L2292.65 394.032 L2273.07 394.032 Q2273.35 398.43 2275.71 400.745 Q2278.09 403.036 2282.33 403.036 Q2284.78 403.036 2287.08 402.435 Q2289.39 401.833 2291.66 400.629 L2291.66 404.657 Q2289.37 405.629 2286.96 406.138 Q2284.55 406.648 2282.08 406.648 Q2275.87 406.648 2272.24 403.036 Q2268.63 399.425 2268.63 393.268 Q2268.63 386.902 2272.05 383.175 Q2275.5 379.426 2281.33 379.426 Q2286.57 379.426 2289.6 382.805 Q2292.65 386.162 2292.65 391.949 M2288.39 390.699 Q2288.35 387.203 2286.43 385.12 Q2284.53 383.037 2281.38 383.037 Q2277.82 383.037 2275.66 385.05 Q2273.53 387.064 2273.21 390.722 L2288.39 390.699 Z" fill="#000000" fill-rule="nonzero" fill-opacity="1" /><path clip-path="url(#clip040)" d="M2318.3 381.046 L2318.3 385.027 Q2316.5 384.032 2314.67 383.546 Q2312.86 383.037 2311.01 383.037 Q2306.87 383.037 2304.58 385.675 Q2302.28 388.291 2302.28 393.037 Q2302.28 397.782 2304.58 400.421 Q2306.87 403.036 2311.01 403.036 Q2312.86 403.036 2314.67 402.55 Q2316.5 402.041 2318.3 401.046 L2318.3 404.981 Q2316.52 405.814 2314.6 406.231 Q2312.7 406.648 2310.55 406.648 Q2304.69 406.648 2301.24 402.967 Q2297.79 399.287 2297.79 393.037 Q2297.79 386.694 2301.26 383.06 Q2304.76 379.426 2310.83 379.426 Q2312.79 379.426 2314.67 379.842 Q2316.54 380.236 2318.3 381.046 Z" fill="#000000" fill-rule="nonzero" fill-opacity="1" /><path clip-path="url(#clip040)" d="M2340.73 384.032 Q2340.01 383.615 2339.16 383.43 Q2338.32 383.222 2337.31 383.222 Q2333.7 383.222 2331.75 385.583 Q2329.83 387.921 2329.83 392.319 L2329.83 405.976 L2325.55 405.976 L2325.55 380.051 L2329.83 380.051 L2329.83 384.078 Q2331.17 381.717 2333.32 380.583 Q2335.48 379.426 2338.56 379.426 Q2339 379.426 2339.53 379.495 Q2340.06 379.541 2340.71 379.657 L2340.73 384.032 Z" fill="#000000" fill-rule="nonzero" fill-opacity="1" /><path clip-path="url(#clip040)" d="M2366.33 391.949 L2366.33 394.032 L2346.75 394.032 Q2347.03 398.43 2349.39 400.745 Q2351.77 403.036 2356.01 403.036 Q2358.46 403.036 2360.76 402.435 Q2363.07 401.833 2365.34 400.629 L2365.34 404.657 Q2363.05 405.629 2360.64 406.138 Q2358.23 406.648 2355.76 406.648 Q2349.55 406.648 2345.92 403.036 Q2342.31 399.425 2342.31 393.268 Q2342.31 386.902 2345.73 383.175 Q2349.18 379.426 2355.01 379.426 Q2360.25 379.426 2363.28 382.805 Q2366.33 386.162 2366.33 391.949 M2362.07 390.699 Q2362.03 387.203 2360.11 385.12 Q2358.21 383.037 2355.06 383.037 Q2351.5 383.037 2349.34 385.05 Q2347.21 387.064 2346.89 390.722 L2362.07 390.699 Z" fill="#000000" fill-rule="nonzero" fill-opacity="1" /><path clip-path="url(#clip040)" d="M2385.11 392.944 Q2379.95 392.944 2377.95 394.124 Q2375.96 395.305 2375.96 398.152 Q2375.96 400.421 2377.45 401.763 Q2378.95 403.083 2381.52 403.083 Q2385.06 403.083 2387.19 400.583 Q2389.34 398.06 2389.34 393.893 L2389.34 392.944 L2385.11 392.944 M2393.6 391.185 L2393.6 405.976 L2389.34 405.976 L2389.34 402.041 Q2387.88 404.402 2385.71 405.536 Q2383.53 406.648 2380.38 406.648 Q2376.4 406.648 2374.04 404.425 Q2371.7 402.18 2371.7 398.43 Q2371.7 394.055 2374.62 391.833 Q2377.56 389.611 2383.37 389.611 L2389.34 389.611 L2389.34 389.194 Q2389.34 386.254 2387.4 384.657 Q2385.48 383.037 2381.98 383.037 Q2379.76 383.037 2377.65 383.569 Q2375.55 384.101 2373.6 385.166 L2373.6 381.231 Q2375.94 380.328 2378.14 379.888 Q2380.34 379.426 2382.42 379.426 Q2388.05 379.426 2390.82 382.342 Q2393.6 385.259 2393.6 391.185 Z" fill="#000000" fill-rule="nonzero" fill-opacity="1" /><path clip-path="url(#clip040)" d="M2418.9 380.814 L2418.9 384.842 Q2417.1 383.916 2415.15 383.453 Q2413.21 382.99 2411.13 382.99 Q2407.95 382.99 2406.36 383.963 Q2404.78 384.935 2404.78 386.879 Q2404.78 388.361 2405.92 389.217 Q2407.05 390.05 2410.48 390.814 L2411.94 391.138 Q2416.47 392.111 2418.37 393.893 Q2420.29 395.652 2420.29 398.824 Q2420.29 402.435 2417.42 404.541 Q2414.57 406.648 2409.57 406.648 Q2407.49 406.648 2405.22 406.231 Q2402.98 405.837 2400.48 405.027 L2400.48 400.629 Q2402.84 401.856 2405.13 402.481 Q2407.42 403.083 2409.67 403.083 Q2412.68 403.083 2414.3 402.064 Q2415.92 401.023 2415.92 399.148 Q2415.92 397.412 2414.74 396.486 Q2413.58 395.56 2409.62 394.703 L2408.14 394.356 Q2404.18 393.523 2402.42 391.81 Q2400.66 390.074 2400.66 387.064 Q2400.66 383.407 2403.26 381.416 Q2405.85 379.426 2410.62 379.426 Q2412.98 379.426 2415.06 379.773 Q2417.14 380.12 2418.9 380.814 Z" fill="#000000" fill-rule="nonzero" fill-opacity="1" /><path clip-path="url(#clip040)" d="M2427.07 380.051 L2431.33 380.051 L2431.33 405.976 L2427.07 405.976 L2427.07 380.051 M2427.07 369.958 L2431.33 369.958 L2431.33 375.351 L2427.07 375.351 L2427.07 369.958 Z" fill="#000000" fill-rule="nonzero" fill-opacity="1" /><path clip-path="url(#clip040)" d="M2461.8 390.328 L2461.8 405.976 L2457.54 405.976 L2457.54 390.467 Q2457.54 386.787 2456.1 384.958 Q2454.67 383.129 2451.8 383.129 Q2448.35 383.129 2446.36 385.328 Q2444.37 387.527 2444.37 391.324 L2444.37 405.976 L2440.08 405.976 L2440.08 380.051 L2444.37 380.051 L2444.37 384.078 Q2445.89 381.74 2447.95 380.583 Q2450.04 379.426 2452.75 379.426 Q2457.21 379.426 2459.5 382.203 Q2461.8 384.958 2461.8 390.328 Z" fill="#000000" fill-rule="nonzero" fill-opacity="1" /><path clip-path="url(#clip040)" d="M2487.35 392.712 Q2487.35 388.083 2485.43 385.537 Q2483.53 382.99 2480.08 382.99 Q2476.66 382.99 2474.74 385.537 Q2472.84 388.083 2472.84 392.712 Q2472.84 397.319 2474.74 399.865 Q2476.66 402.411 2480.08 402.411 Q2483.53 402.411 2485.43 399.865 Q2487.35 397.319 2487.35 392.712 M2491.61 402.759 Q2491.61 409.379 2488.67 412.597 Q2485.73 415.837 2479.67 415.837 Q2477.42 415.837 2475.43 415.49 Q2473.44 415.166 2471.56 414.472 L2471.56 410.328 Q2473.44 411.347 2475.27 411.833 Q2477.1 412.319 2479 412.319 Q2483.19 412.319 2485.27 410.12 Q2487.35 407.944 2487.35 403.523 L2487.35 401.416 Q2486.03 403.708 2483.97 404.842 Q2481.91 405.976 2479.04 405.976 Q2474.27 405.976 2471.36 402.342 Q2468.44 398.708 2468.44 392.712 Q2468.44 386.694 2471.36 383.06 Q2474.27 379.426 2479.04 379.426 Q2481.91 379.426 2483.97 380.56 Q2486.03 381.694 2487.35 383.986 L2487.35 380.051 L2491.61 380.051 L2491.61 402.759 Z" fill="#000000" fill-rule="nonzero" fill-opacity="1" /><path clip-path="url(#clip040)" d="M2499.71 370.004 L2503.42 370.004 Q2506.89 375.467 2508.6 380.699 Q2510.34 385.93 2510.34 391.092 Q2510.34 396.277 2508.6 401.532 Q2506.89 406.786 2503.42 412.226 L2499.71 412.226 Q2502.79 406.925 2504.3 401.694 Q2505.82 396.439 2505.82 391.092 Q2505.82 385.745 2504.3 380.537 Q2502.79 375.328 2499.71 370.004 Z" fill="#000000" fill-rule="nonzero" fill-opacity="1" /><path clip-path="url(#clip040)" d="M1785.36 461.272 L1946.34 461.272 L1946.34 419.8 L1785.36 419.8 L1785.36 461.272  Z" fill="#ffa500" fill-rule="evenodd" fill-opacity="0.08"/>
<polyline clip-path="url(#clip040)" style="stroke:#000000; stroke-linecap:round; stroke-linejoin:round; stroke-width:0.8; stroke-opacity:1; fill:none" points="1785.36,461.272 1946.34,461.272 1946.34,419.8 1785.36,419.8 1785.36,461.272 "/>
<path clip-path="url(#clip040)" d="M1977.84 441.312 L1977.84 453.974 L1985.34 453.974 Q1989.11 453.974 1990.92 452.423 Q1992.75 450.849 1992.75 447.631 Q1992.75 444.39 1990.92 442.863 Q1989.11 441.312 1985.34 441.312 L1977.84 441.312 M1977.84 427.099 L1977.84 437.515 L1984.76 437.515 Q1988.19 437.515 1989.85 436.242 Q1991.54 434.946 1991.54 432.307 Q1991.54 429.691 1989.85 428.395 Q1988.19 427.099 1984.76 427.099 L1977.84 427.099 M1973.16 423.256 L1985.11 423.256 Q1990.46 423.256 1993.35 425.478 Q1996.24 427.701 1996.24 431.798 Q1996.24 434.969 1994.76 436.844 Q1993.28 438.719 1990.41 439.182 Q1993.86 439.923 1995.76 442.284 Q1997.68 444.622 1997.68 448.14 Q1997.68 452.77 1994.53 455.293 Q1991.38 457.816 1985.57 457.816 L1973.16 457.816 L1973.16 423.256 Z" fill="#000000" fill-rule="nonzero" fill-opacity="1" /><path clip-path="url(#clip040)" d="M2027.68 443.789 L2027.68 445.872 L2008.1 445.872 Q2008.37 450.27 2010.73 452.585 Q2013.12 454.876 2017.35 454.876 Q2019.81 454.876 2022.1 454.275 Q2024.41 453.673 2026.68 452.469 L2026.68 456.497 Q2024.39 457.469 2021.98 457.978 Q2019.58 458.488 2017.1 458.488 Q2010.9 458.488 2007.26 454.876 Q2003.65 451.265 2003.65 445.108 Q2003.65 438.742 2007.08 435.015 Q2010.53 431.266 2016.36 431.266 Q2021.59 431.266 2024.62 434.645 Q2027.68 438.002 2027.68 443.789 M2023.42 442.539 Q2023.37 439.043 2021.45 436.96 Q2019.55 434.877 2016.41 434.877 Q2012.84 434.877 2010.69 436.89 Q2008.56 438.904 2008.23 442.562 L2023.42 442.539 Z" fill="#000000" fill-rule="nonzero" fill-opacity="1" /><path clip-path="url(#clip040)" d="M2045.46 460.224 Q2043.65 464.853 2041.94 466.265 Q2040.22 467.677 2037.35 467.677 L2033.95 467.677 L2033.95 464.113 L2036.45 464.113 Q2038.21 464.113 2039.18 463.279 Q2040.16 462.446 2041.34 459.344 L2042.1 457.4 L2031.61 431.891 L2036.13 431.891 L2044.23 452.168 L2052.33 431.891 L2056.84 431.891 L2045.46 460.224 Z" fill="#000000" fill-rule="nonzero" fill-opacity="1" /><path clip-path="url(#clip040)" d="M2072.77 434.877 Q2069.34 434.877 2067.35 437.562 Q2065.36 440.224 2065.36 444.877 Q2065.36 449.529 2067.33 452.214 Q2069.32 454.876 2072.77 454.876 Q2076.17 454.876 2078.16 452.191 Q2080.16 449.506 2080.16 444.877 Q2080.16 440.27 2078.16 437.585 Q2076.17 434.877 2072.77 434.877 M2072.77 431.266 Q2078.33 431.266 2081.5 434.877 Q2084.67 438.488 2084.67 444.877 Q2084.67 451.242 2081.5 454.876 Q2078.33 458.488 2072.77 458.488 Q2067.19 458.488 2064.02 454.876 Q2060.87 451.242 2060.87 444.877 Q2060.87 438.488 2064.02 434.877 Q2067.19 431.266 2072.77 431.266 Z" fill="#000000" fill-rule="nonzero" fill-opacity="1" /><path clip-path="url(#clip040)" d="M2113.28 442.168 L2113.28 457.816 L2109.02 457.816 L2109.02 442.307 Q2109.02 438.627 2107.59 436.798 Q2106.15 434.969 2103.28 434.969 Q2099.83 434.969 2097.84 437.168 Q2095.85 439.367 2095.85 443.164 L2095.85 457.816 L2091.57 457.816 L2091.57 431.891 L2095.85 431.891 L2095.85 435.918 Q2097.38 433.58 2099.44 432.423 Q2101.52 431.266 2104.23 431.266 Q2108.7 431.266 2110.99 434.043 Q2113.28 436.798 2113.28 442.168 Z" fill="#000000" fill-rule="nonzero" fill-opacity="1" /><path clip-path="url(#clip040)" d="M2138.84 435.826 L2138.84 421.798 L2143.09 421.798 L2143.09 457.816 L2138.84 457.816 L2138.84 453.927 Q2137.49 456.242 2135.43 457.376 Q2133.4 458.488 2130.53 458.488 Q2125.83 458.488 2122.86 454.738 Q2119.92 450.988 2119.92 444.877 Q2119.92 438.765 2122.86 435.015 Q2125.83 431.266 2130.53 431.266 Q2133.4 431.266 2135.43 432.4 Q2137.49 433.511 2138.84 435.826 M2124.32 444.877 Q2124.32 449.576 2126.24 452.261 Q2128.19 454.923 2131.57 454.923 Q2134.95 454.923 2136.89 452.261 Q2138.84 449.576 2138.84 444.877 Q2138.84 440.177 2136.89 437.515 Q2134.95 434.83 2131.57 434.83 Q2128.19 434.83 2126.24 437.515 Q2124.32 440.177 2124.32 444.877 Z" fill="#000000" fill-rule="nonzero" fill-opacity="1" /><path clip-path="url(#clip040)" d="M2184 435.826 L2184 421.798 L2188.26 421.798 L2188.26 457.816 L2184 457.816 L2184 453.927 Q2182.65 456.242 2180.59 457.376 Q2178.56 458.488 2175.69 458.488 Q2170.99 458.488 2168.02 454.738 Q2165.09 450.988 2165.09 444.877 Q2165.09 438.765 2168.02 435.015 Q2170.99 431.266 2175.69 431.266 Q2178.56 431.266 2180.59 432.4 Q2182.65 433.511 2184 435.826 M2169.48 444.877 Q2169.48 449.576 2171.4 452.261 Q2173.35 454.923 2176.73 454.923 Q2180.11 454.923 2182.05 452.261 Q2184 449.576 2184 444.877 Q2184 440.177 2182.05 437.515 Q2180.11 434.83 2176.73 434.83 Q2173.35 434.83 2171.4 437.515 Q2169.48 440.177 2169.48 444.877 Z" fill="#000000" fill-rule="nonzero" fill-opacity="1" /><path clip-path="url(#clip040)" d="M2208.81 444.784 Q2203.65 444.784 2201.66 445.964 Q2199.67 447.145 2199.67 449.992 Q2199.67 452.261 2201.15 453.603 Q2202.65 454.923 2205.22 454.923 Q2208.77 454.923 2210.9 452.423 Q2213.05 449.9 2213.05 445.733 L2213.05 444.784 L2208.81 444.784 M2217.31 443.025 L2217.31 457.816 L2213.05 457.816 L2213.05 453.881 Q2211.59 456.242 2209.41 457.376 Q2207.24 458.488 2204.09 458.488 Q2200.11 458.488 2197.75 456.265 Q2195.41 454.02 2195.41 450.27 Q2195.41 445.895 2198.33 443.673 Q2201.27 441.451 2207.08 441.451 L2213.05 441.451 L2213.05 441.034 Q2213.05 438.094 2211.1 436.497 Q2209.18 434.877 2205.69 434.877 Q2203.46 434.877 2201.36 435.409 Q2199.25 435.941 2197.31 437.006 L2197.31 433.071 Q2199.65 432.168 2201.84 431.728 Q2204.04 431.266 2206.13 431.266 Q2211.75 431.266 2214.53 434.182 Q2217.31 437.099 2217.31 443.025 Z" fill="#000000" fill-rule="nonzero" fill-opacity="1" /><path clip-path="url(#clip040)" d="M2230.29 424.529 L2230.29 431.891 L2239.07 431.891 L2239.07 435.201 L2230.29 435.201 L2230.29 449.275 Q2230.29 452.446 2231.15 453.349 Q2232.03 454.251 2234.69 454.251 L2239.07 454.251 L2239.07 457.816 L2234.69 457.816 Q2229.76 457.816 2227.89 455.988 Q2226.01 454.136 2226.01 449.275 L2226.01 435.201 L2222.89 435.201 L2222.89 431.891 L2226.01 431.891 L2226.01 424.529 L2230.29 424.529 Z" fill="#000000" fill-rule="nonzero" fill-opacity="1" /><path clip-path="url(#clip040)" d="M2256.45 444.784 Q2251.29 444.784 2249.3 445.964 Q2247.31 447.145 2247.31 449.992 Q2247.31 452.261 2248.79 453.603 Q2250.29 454.923 2252.86 454.923 Q2256.4 454.923 2258.53 452.423 Q2260.69 449.9 2260.69 445.733 L2260.69 444.784 L2256.45 444.784 M2264.95 443.025 L2264.95 457.816 L2260.69 457.816 L2260.69 453.881 Q2259.23 456.242 2257.05 457.376 Q2254.88 458.488 2251.73 458.488 Q2247.75 458.488 2245.39 456.265 Q2243.05 454.02 2243.05 450.27 Q2243.05 445.895 2245.96 443.673 Q2248.9 441.451 2254.71 441.451 L2260.69 441.451 L2260.69 441.034 Q2260.69 438.094 2258.74 436.497 Q2256.82 434.877 2253.33 434.877 Q2251.1 434.877 2249 435.409 Q2246.89 435.941 2244.95 437.006 L2244.95 433.071 Q2247.28 432.168 2249.48 431.728 Q2251.68 431.266 2253.77 431.266 Q2259.39 431.266 2262.17 434.182 Q2264.95 437.099 2264.95 443.025 Z" fill="#000000" fill-rule="nonzero" fill-opacity="1" /><path clip-path="url(#clip040)" d="M2303.81 435.872 Q2303.09 435.455 2302.24 435.27 Q2301.4 435.062 2300.39 435.062 Q2296.77 435.062 2294.83 437.423 Q2292.91 439.761 2292.91 444.159 L2292.91 457.816 L2288.63 457.816 L2288.63 431.891 L2292.91 431.891 L2292.91 435.918 Q2294.25 433.557 2296.4 432.423 Q2298.56 431.266 2301.64 431.266 Q2302.08 431.266 2302.61 431.335 Q2303.14 431.381 2303.79 431.497 L2303.81 435.872 Z" fill="#000000" fill-rule="nonzero" fill-opacity="1" /><path clip-path="url(#clip040)" d="M2320.06 444.784 Q2314.9 444.784 2312.91 445.964 Q2310.92 447.145 2310.92 449.992 Q2310.92 452.261 2312.4 453.603 Q2313.9 454.923 2316.47 454.923 Q2320.01 454.923 2322.14 452.423 Q2324.3 449.9 2324.3 445.733 L2324.3 444.784 L2320.06 444.784 M2328.56 443.025 L2328.56 457.816 L2324.3 457.816 L2324.3 453.881 Q2322.84 456.242 2320.66 457.376 Q2318.49 458.488 2315.34 458.488 Q2311.36 458.488 2309 456.265 Q2306.66 454.02 2306.66 450.27 Q2306.66 445.895 2309.58 443.673 Q2312.51 441.451 2318.33 441.451 L2324.3 441.451 L2324.3 441.034 Q2324.3 438.094 2322.35 436.497 Q2320.43 434.877 2316.94 434.877 Q2314.71 434.877 2312.61 435.409 Q2310.5 435.941 2308.56 437.006 L2308.56 433.071 Q2310.89 432.168 2313.09 431.728 Q2315.29 431.266 2317.38 431.266 Q2323 431.266 2325.78 434.182 Q2328.56 437.099 2328.56 443.025 Z" fill="#000000" fill-rule="nonzero" fill-opacity="1" /><path clip-path="url(#clip040)" d="M2358.88 442.168 L2358.88 457.816 L2354.62 457.816 L2354.62 442.307 Q2354.62 438.627 2353.19 436.798 Q2351.75 434.969 2348.88 434.969 Q2345.43 434.969 2343.44 437.168 Q2341.45 439.367 2341.45 443.164 L2341.45 457.816 L2337.17 457.816 L2337.17 431.891 L2341.45 431.891 L2341.45 435.918 Q2342.98 433.58 2345.04 432.423 Q2347.12 431.266 2349.83 431.266 Q2354.3 431.266 2356.59 434.043 Q2358.88 436.798 2358.88 442.168 Z" fill="#000000" fill-rule="nonzero" fill-opacity="1" /><path clip-path="url(#clip040)" d="M2384.44 444.552 Q2384.44 439.923 2382.51 437.377 Q2380.62 434.83 2377.17 434.83 Q2373.74 434.83 2371.82 437.377 Q2369.92 439.923 2369.92 444.552 Q2369.92 449.159 2371.82 451.705 Q2373.74 454.251 2377.17 454.251 Q2380.62 454.251 2382.51 451.705 Q2384.44 449.159 2384.44 444.552 M2388.7 454.599 Q2388.7 461.219 2385.76 464.437 Q2382.82 467.677 2376.75 467.677 Q2374.51 467.677 2372.51 467.33 Q2370.52 467.006 2368.65 466.312 L2368.65 462.168 Q2370.52 463.187 2372.35 463.673 Q2374.18 464.159 2376.08 464.159 Q2380.27 464.159 2382.35 461.96 Q2384.44 459.784 2384.44 455.363 L2384.44 453.256 Q2383.12 455.548 2381.06 456.682 Q2379 457.816 2376.13 457.816 Q2371.36 457.816 2368.44 454.182 Q2365.52 450.548 2365.52 444.552 Q2365.52 438.534 2368.44 434.9 Q2371.36 431.266 2376.13 431.266 Q2379 431.266 2381.06 432.4 Q2383.12 433.534 2384.44 435.826 L2384.44 431.891 L2388.7 431.891 L2388.7 454.599 Z" fill="#000000" fill-rule="nonzero" fill-opacity="1" /><path clip-path="url(#clip040)" d="M2419.64 443.789 L2419.64 445.872 L2400.06 445.872 Q2400.34 450.27 2402.7 452.585 Q2405.08 454.876 2409.32 454.876 Q2411.77 454.876 2414.07 454.275 Q2416.38 453.673 2418.65 452.469 L2418.65 456.497 Q2416.36 457.469 2413.95 457.978 Q2411.54 458.488 2409.07 458.488 Q2402.86 458.488 2399.23 454.876 Q2395.62 451.265 2395.62 445.108 Q2395.62 438.742 2399.04 435.015 Q2402.49 431.266 2408.32 431.266 Q2413.56 431.266 2416.59 434.645 Q2419.64 438.002 2419.64 443.789 M2415.38 442.539 Q2415.34 439.043 2413.42 436.96 Q2411.52 434.877 2408.37 434.877 Q2404.81 434.877 2402.65 436.89 Q2400.52 438.904 2400.2 442.562 L2415.38 442.539 Z" fill="#000000" fill-rule="nonzero" fill-opacity="1" /></svg>
