<?xml version="1.0" encoding="utf-8"?>
<svg xmlns="http://www.w3.org/2000/svg" xmlns:xlink="http://www.w3.org/1999/xlink" width="672" height="480" viewBox="0 0 2688 1920">
<defs>
  <clipPath id="clip350">
    <rect x="0" y="0" width="2688" height="1920"/>
  </clipPath>
</defs>
<path clip-path="url(#clip350)" d="M0 1920 L2688 1920 L2688 -4.26326e-14 L0 -4.26326e-14  Z" fill="#ffffff" fill-rule="evenodd" fill-opacity="1"/>
<defs>
  <clipPath id="clip351">
    <rect x="208" y="127" width="2433" height="1607"/>
  </clipPath>
</defs>
<path clip-path="url(#clip350)" d="M208.502 1734.12 L2640.76 1734.12 L2640.76 127.792 L208.502 127.792  Z" fill="#ffffff" fill-rule="evenodd" fill-opacity="1"/>
<polyline clip-path="url(#clip351)" style="stroke:#000000; stroke-linecap:round; stroke-linejoin:round; stroke-width:2; stroke-opacity:0.1; fill:none" points="554.8,1734.12 554.8,127.792 "/>
<polyline clip-path="url(#clip351)" style="stroke:#000000; stroke-linecap:round; stroke-linejoin:round; stroke-width:2; stroke-opacity:0.1; fill:none" points="1227.17,1734.12 1227.17,127.792 "/>
<polyline clip-path="url(#clip351)" style="stroke:#000000; stroke-linecap:round; stroke-linejoin:round; stroke-width:2; stroke-opacity:0.1; fill:none" points="1899.55,1734.12 1899.55,127.792 "/>
<polyline clip-path="url(#clip351)" style="stroke:#000000; stroke-linecap:round; stroke-linejoin:round; stroke-width:2; stroke-opacity:0.1; fill:none" points="2571.92,1734.12 2571.92,127.792 "/>
<polyline clip-path="url(#clip351)" style="stroke:#000000; stroke-linecap:round; stroke-linejoin:round; stroke-width:2; stroke-opacity:0.1; fill:none" points="208.502,1688.65 2640.76,1688.65 "/>
<polyline clip-path="url(#clip351)" style="stroke:#000000; stroke-linecap:round; stroke-linejoin:round; stroke-width:2; stroke-opacity:0.1; fill:none" points="208.502,1365.22 2640.76,1365.22 "/>
<polyline clip-path="url(#clip351)" style="stroke:#000000; stroke-linecap:round; stroke-linejoin:round; stroke-width:2; stroke-opacity:0.1; fill:none" points="208.502,1041.78 2640.76,1041.78 "/>
<polyline clip-path="url(#clip351)" style="stroke:#000000; stroke-linecap:round; stroke-linejoin:round; stroke-width:2; stroke-opacity:0.1; fill:none" points="208.502,718.342 2640.76,718.342 "/>
<polyline clip-path="url(#clip351)" style="stroke:#000000; stroke-linecap:round; stroke-linejoin:round; stroke-width:2; stroke-opacity:0.1; fill:none" points="208.502,394.905 2640.76,394.905 "/>
<polyline clip-path="url(#clip350)" style="stroke:#000000; stroke-linecap:round; stroke-linejoin:round; stroke-width:4; stroke-opacity:1; fill:none" points="208.502,1734.12 2640.76,1734.12 "/>
<polyline clip-path="url(#clip350)" style="stroke:#000000; stroke-linecap:round; stroke-linejoin:round; stroke-width:4; stroke-opacity:1; fill:none" points="554.8,1734.12 554.8,1715.22 "/>
<polyline clip-path="url(#clip350)" style="stroke:#000000; stroke-linecap:round; stroke-linejoin:round; stroke-width:4; stroke-opacity:1; fill:none" points="1227.17,1734.12 1227.17,1715.22 "/>
<polyline clip-path="url(#clip350)" style="stroke:#000000; stroke-linecap:round; stroke-linejoin:round; stroke-width:4; stroke-opacity:1; fill:none" points="1899.55,1734.12 1899.55,1715.22 "/>
<polyline clip-path="url(#clip350)" style="stroke:#000000; stroke-linecap:round; stroke-linejoin:round; stroke-width:4; stroke-opacity:1; fill:none" points="2571.92,1734.12 2571.92,1715.22 "/>
<path clip-path="url(#clip350)" d="M545.078 1764.26 L563.434 1764.26 L563.434 1768.2 L549.36 1768.2 L549.36 1776.67 Q550.378 1776.32 551.397 1776.16 Q552.415 1775.97 553.434 1775.97 Q559.221 1775.97 562.601 1779.15 Q565.98 1782.32 565.98 1787.73 Q565.98 1793.31 562.508 1796.41 Q559.036 1799.49 552.716 1799.49 Q550.54 1799.49 548.272 1799.12 Q546.027 1798.75 543.619 1798.01 L543.619 1793.31 Q545.703 1794.45 547.925 1795 Q550.147 1795.56 552.624 1795.56 Q556.628 1795.56 558.966 1793.45 Q561.304 1791.34 561.304 1787.73 Q561.304 1784.12 558.966 1782.02 Q556.628 1779.91 552.624 1779.91 Q550.749 1779.91 548.874 1780.33 Q547.022 1780.74 545.078 1781.62 L545.078 1764.26 Z" fill="#000000" fill-rule="nonzero" fill-opacity="1" /><path clip-path="url(#clip350)" d="M1201.86 1794.89 L1209.5 1794.89 L1209.5 1768.52 L1201.19 1770.19 L1201.19 1765.93 L1209.45 1764.26 L1214.13 1764.26 L1214.13 1794.89 L1221.77 1794.89 L1221.77 1798.82 L1201.86 1798.82 L1201.86 1794.89 Z" fill="#000000" fill-rule="nonzero" fill-opacity="1" /><path clip-path="url(#clip350)" d="M1241.21 1767.34 Q1237.6 1767.34 1235.77 1770.9 Q1233.97 1774.45 1233.97 1781.58 Q1233.97 1788.68 1235.77 1792.25 Q1237.6 1795.79 1241.21 1795.79 Q1244.85 1795.79 1246.65 1792.25 Q1248.48 1788.68 1248.48 1781.58 Q1248.48 1774.45 1246.65 1770.9 Q1244.85 1767.34 1241.21 1767.34 M1241.21 1763.64 Q1247.02 1763.64 1250.08 1768.24 Q1253.16 1772.83 1253.16 1781.58 Q1253.16 1790.3 1250.08 1794.91 Q1247.02 1799.49 1241.21 1799.49 Q1235.4 1799.49 1232.32 1794.91 Q1229.27 1790.3 1229.27 1781.58 Q1229.27 1772.83 1232.32 1768.24 Q1235.4 1763.64 1241.21 1763.64 Z" fill="#000000" fill-rule="nonzero" fill-opacity="1" /><path clip-path="url(#clip350)" d="M1874.73 1794.89 L1882.37 1794.89 L1882.37 1768.52 L1874.06 1770.19 L1874.06 1765.93 L1882.32 1764.26 L1887 1764.26 L1887 1794.89 L1894.64 1794.89 L1894.64 1798.82 L1874.73 1798.82 L1874.73 1794.89 Z" fill="#000000" fill-rule="nonzero" fill-opacity="1" /><path clip-path="url(#clip350)" d="M1904.13 1764.26 L1922.49 1764.26 L1922.49 1768.2 L1908.41 1768.2 L1908.41 1776.67 Q1909.43 1776.32 1910.45 1776.16 Q1911.47 1775.97 1912.49 1775.97 Q1918.27 1775.97 1921.65 1779.15 Q1925.03 1782.32 1925.03 1787.73 Q1925.03 1793.31 1921.56 1796.41 Q1918.09 1799.49 1911.77 1799.49 Q1909.59 1799.49 1907.32 1799.12 Q1905.08 1798.75 1902.67 1798.01 L1902.67 1793.31 Q1904.75 1794.45 1906.98 1795 Q1909.2 1795.56 1911.68 1795.56 Q1915.68 1795.56 1918.02 1793.45 Q1920.36 1791.34 1920.36 1787.73 Q1920.36 1784.12 1918.02 1782.02 Q1915.68 1779.91 1911.68 1779.91 Q1909.8 1779.91 1907.93 1780.33 Q1906.07 1780.74 1904.13 1781.62 L1904.13 1764.26 Z" fill="#000000" fill-rule="nonzero" fill-opacity="1" /><path clip-path="url(#clip350)" d="M2550.69 1794.89 L2567.01 1794.89 L2567.01 1798.82 L2545.07 1798.82 L2545.07 1794.89 Q2547.73 1792.13 2552.31 1787.5 Q2556.92 1782.85 2558.1 1781.51 Q2560.34 1778.98 2561.22 1777.25 Q2562.13 1775.49 2562.13 1773.8 Q2562.13 1771.04 2560.18 1769.31 Q2558.26 1767.57 2555.16 1767.57 Q2552.96 1767.57 2550.51 1768.34 Q2548.08 1769.1 2545.3 1770.65 L2545.3 1765.93 Q2548.12 1764.79 2550.58 1764.21 Q2553.03 1763.64 2555.07 1763.64 Q2560.44 1763.64 2563.63 1766.32 Q2566.83 1769.01 2566.83 1773.5 Q2566.83 1775.63 2566.02 1777.55 Q2565.23 1779.45 2563.12 1782.04 Q2562.54 1782.71 2559.44 1785.93 Q2556.34 1789.12 2550.69 1794.89 Z" fill="#000000" fill-rule="nonzero" fill-opacity="1" /><path clip-path="url(#clip350)" d="M2586.83 1767.34 Q2583.21 1767.34 2581.39 1770.9 Q2579.58 1774.45 2579.58 1781.58 Q2579.58 1788.68 2581.39 1792.25 Q2583.21 1795.79 2586.83 1795.79 Q2590.46 1795.79 2592.27 1792.25 Q2594.09 1788.68 2594.09 1781.58 Q2594.09 1774.45 2592.27 1770.9 Q2590.46 1767.34 2586.83 1767.34 M2586.83 1763.64 Q2592.64 1763.64 2595.69 1768.24 Q2598.77 1772.83 2598.77 1781.58 Q2598.77 1790.3 2595.69 1794.91 Q2592.64 1799.49 2586.83 1799.49 Q2581.02 1799.49 2577.94 1794.91 Q2574.88 1790.3 2574.88 1781.58 Q2574.88 1772.83 2577.94 1768.24 Q2581.02 1763.64 2586.83 1763.64 Z" fill="#000000" fill-rule="nonzero" fill-opacity="1" /><path clip-path="url(#clip350)" d="M1268.83 1861.02 Q1270.9 1861.72 1272.84 1864.01 Q1274.81 1866.3 1276.79 1870.31 L1283.31 1883.3 L1276.4 1883.3 L1270.32 1871.11 Q1267.97 1866.34 1265.74 1864.78 Q1263.54 1863.22 1259.73 1863.22 L1252.72 1863.22 L1252.72 1883.3 L1246.29 1883.3 L1246.29 1835.78 L1260.81 1835.78 Q1268.96 1835.78 1272.97 1839.19 Q1276.98 1842.59 1276.98 1849.47 Q1276.98 1853.96 1274.88 1856.92 Q1272.81 1859.88 1268.83 1861.02 M1252.72 1841.06 L1252.72 1857.93 L1260.81 1857.93 Q1265.45 1857.93 1267.81 1855.8 Q1270.2 1853.64 1270.2 1849.47 Q1270.2 1845.3 1267.81 1843.2 Q1265.45 1841.06 1260.81 1841.06 L1252.72 1841.06 Z" fill="#000000" fill-rule="nonzero" fill-opacity="1" /><path clip-path="url(#clip350)" d="M1318.89 1864.01 L1318.89 1866.88 L1291.97 1866.88 Q1292.35 1872.92 1295.6 1876.11 Q1298.87 1879.26 1304.7 1879.26 Q1308.07 1879.26 1311.22 1878.43 Q1314.41 1877.6 1317.53 1875.95 L1317.53 1881.49 Q1314.37 1882.82 1311.06 1883.52 Q1307.75 1884.22 1304.35 1884.22 Q1295.82 1884.22 1290.82 1879.26 Q1285.86 1874.29 1285.86 1865.83 Q1285.86 1857.07 1290.57 1851.95 Q1295.31 1846.79 1303.33 1846.79 Q1310.52 1846.79 1314.69 1851.44 Q1318.89 1856.06 1318.89 1864.01 M1313.04 1862.29 Q1312.97 1857.49 1310.33 1854.62 Q1307.72 1851.76 1303.39 1851.76 Q1298.49 1851.76 1295.53 1854.53 Q1292.6 1857.3 1292.16 1862.33 L1313.04 1862.29 Z" fill="#000000" fill-rule="nonzero" fill-opacity="1" /><path clip-path="url(#clip350)" d="M1351.23 1848.7 L1351.23 1854.24 Q1348.75 1852.97 1346.08 1852.33 Q1343.4 1851.7 1340.54 1851.7 Q1336.18 1851.7 1333.98 1853.03 Q1331.82 1854.37 1331.82 1857.04 Q1331.82 1859.08 1333.38 1860.26 Q1334.94 1861.4 1339.65 1862.45 L1341.65 1862.9 Q1347.89 1864.24 1350.5 1866.69 Q1353.14 1869.11 1353.14 1873.47 Q1353.14 1878.43 1349.2 1881.33 Q1345.28 1884.22 1338.41 1884.22 Q1335.54 1884.22 1332.42 1883.65 Q1329.33 1883.11 1325.9 1882 L1325.9 1875.95 Q1329.14 1877.64 1332.29 1878.49 Q1335.45 1879.32 1338.53 1879.32 Q1342.67 1879.32 1344.9 1877.92 Q1347.13 1876.49 1347.13 1873.91 Q1347.13 1871.52 1345.5 1870.25 Q1343.91 1868.98 1338.47 1867.8 L1336.43 1867.32 Q1330.99 1866.18 1328.57 1863.82 Q1326.15 1861.43 1326.15 1857.3 Q1326.15 1852.27 1329.72 1849.53 Q1333.28 1846.79 1339.84 1846.79 Q1343.08 1846.79 1345.95 1847.27 Q1348.81 1847.75 1351.23 1848.7 Z" fill="#000000" fill-rule="nonzero" fill-opacity="1" /><path clip-path="url(#clip350)" d="M1376.28 1851.76 Q1371.57 1851.76 1368.83 1855.45 Q1366.1 1859.11 1366.1 1865.51 Q1366.1 1871.91 1368.8 1875.6 Q1371.54 1879.26 1376.28 1879.26 Q1380.96 1879.26 1383.7 1875.57 Q1386.43 1871.87 1386.43 1865.51 Q1386.43 1859.17 1383.7 1855.48 Q1380.96 1851.76 1376.28 1851.76 M1376.28 1846.79 Q1383.92 1846.79 1388.28 1851.76 Q1392.64 1856.72 1392.64 1865.51 Q1392.64 1874.26 1388.28 1879.26 Q1383.92 1884.22 1376.28 1884.22 Q1368.61 1884.22 1364.25 1879.26 Q1359.92 1874.26 1359.92 1865.51 Q1359.92 1856.72 1364.25 1851.76 Q1368.61 1846.79 1376.28 1846.79 Z" fill="#000000" fill-rule="nonzero" fill-opacity="1" /><path clip-path="url(#clip350)" d="M1401.74 1869.23 L1401.74 1847.65 L1407.6 1847.65 L1407.6 1869.01 Q1407.6 1874.07 1409.57 1876.62 Q1411.55 1879.13 1415.49 1879.13 Q1420.24 1879.13 1422.97 1876.11 Q1425.74 1873.08 1425.74 1867.86 L1425.74 1847.65 L1431.6 1847.65 L1431.6 1883.3 L1425.74 1883.3 L1425.74 1877.83 Q1423.61 1881.07 1420.78 1882.66 Q1417.98 1884.22 1414.25 1884.22 Q1408.11 1884.22 1404.93 1880.4 Q1401.74 1876.59 1401.74 1869.23 M1416.48 1846.79 L1416.48 1846.79 Z" fill="#000000" fill-rule="nonzero" fill-opacity="1" /><path clip-path="url(#clip350)" d="M1464.32 1853.13 Q1463.33 1852.55 1462.15 1852.3 Q1461.01 1852.01 1459.61 1852.01 Q1454.64 1852.01 1451.97 1855.26 Q1449.33 1858.47 1449.33 1864.52 L1449.33 1883.3 L1443.44 1883.3 L1443.44 1847.65 L1449.33 1847.65 L1449.33 1853.19 Q1451.17 1849.94 1454.13 1848.39 Q1457.09 1846.79 1461.33 1846.79 Q1461.93 1846.79 1462.66 1846.89 Q1463.4 1846.95 1464.29 1847.11 L1464.32 1853.13 Z" fill="#000000" fill-rule="nonzero" fill-opacity="1" /><path clip-path="url(#clip350)" d="M1494.68 1849.02 L1494.68 1854.5 Q1492.2 1853.13 1489.69 1852.46 Q1487.2 1851.76 1484.66 1851.76 Q1478.96 1851.76 1475.81 1855.39 Q1472.66 1858.98 1472.66 1865.51 Q1472.66 1872.03 1475.81 1875.66 Q1478.96 1879.26 1484.66 1879.26 Q1487.2 1879.26 1489.69 1878.59 Q1492.2 1877.89 1494.68 1876.52 L1494.68 1881.93 Q1492.23 1883.08 1489.59 1883.65 Q1486.98 1884.22 1484.02 1884.22 Q1475.97 1884.22 1471.23 1879.16 Q1466.48 1874.1 1466.48 1865.51 Q1466.48 1856.79 1471.26 1851.79 Q1476.06 1846.79 1484.4 1846.79 Q1487.11 1846.79 1489.69 1847.37 Q1492.26 1847.91 1494.68 1849.02 Z" fill="#000000" fill-rule="nonzero" fill-opacity="1" /><path clip-path="url(#clip350)" d="M1535.36 1864.01 L1535.36 1866.88 L1508.43 1866.88 Q1508.82 1872.92 1512.06 1876.11 Q1515.34 1879.26 1521.16 1879.26 Q1524.54 1879.26 1527.69 1878.43 Q1530.87 1877.6 1533.99 1875.95 L1533.99 1881.49 Q1530.84 1882.82 1527.53 1883.52 Q1524.22 1884.22 1520.81 1884.22 Q1512.28 1884.22 1507.29 1879.26 Q1502.32 1874.29 1502.32 1865.83 Q1502.32 1857.07 1507.03 1851.95 Q1511.78 1846.79 1519.8 1846.79 Q1526.99 1846.79 1531.16 1851.44 Q1535.36 1856.06 1535.36 1864.01 M1529.5 1862.29 Q1529.44 1857.49 1526.8 1854.62 Q1524.19 1851.76 1519.86 1851.76 Q1514.96 1851.76 1512 1854.53 Q1509.07 1857.3 1508.62 1862.33 L1529.5 1862.29 Z" fill="#000000" fill-rule="nonzero" fill-opacity="1" /><path clip-path="url(#clip350)" d="M1588.48 1861.02 Q1590.55 1861.72 1592.49 1864.01 Q1594.47 1866.3 1596.44 1870.31 L1602.96 1883.3 L1596.06 1883.3 L1589.98 1871.11 Q1587.62 1866.34 1585.39 1864.78 Q1583.2 1863.22 1579.38 1863.22 L1572.38 1863.22 L1572.38 1883.3 L1565.95 1883.3 L1565.95 1835.78 L1580.46 1835.78 Q1588.61 1835.78 1592.62 1839.19 Q1596.63 1842.59 1596.63 1849.47 Q1596.63 1853.96 1594.53 1856.92 Q1592.46 1859.88 1588.48 1861.02 M1572.38 1841.06 L1572.38 1857.93 L1580.46 1857.93 Q1585.11 1857.93 1587.46 1855.8 Q1589.85 1853.64 1589.85 1849.47 Q1589.85 1845.3 1587.46 1843.2 Q1585.11 1841.06 1580.46 1841.06 L1572.38 1841.06 Z" fill="#000000" fill-rule="nonzero" fill-opacity="1" /><polyline clip-path="url(#clip350)" style="stroke:#000000; stroke-linecap:round; stroke-linejoin:round; stroke-width:4; stroke-opacity:1; fill:none" points="208.502,1734.12 208.502,127.792 "/>
<polyline clip-path="url(#clip350)" style="stroke:#000000; stroke-linecap:round; stroke-linejoin:round; stroke-width:4; stroke-opacity:1; fill:none" points="208.502,1688.65 227.399,1688.65 "/>
<polyline clip-path="url(#clip350)" style="stroke:#000000; stroke-linecap:round; stroke-linejoin:round; stroke-width:4; stroke-opacity:1; fill:none" points="208.502,1365.22 227.399,1365.22 "/>
<polyline clip-path="url(#clip350)" style="stroke:#000000; stroke-linecap:round; stroke-linejoin:round; stroke-width:4; stroke-opacity:1; fill:none" points="208.502,1041.78 227.399,1041.78 "/>
<polyline clip-path="url(#clip350)" style="stroke:#000000; stroke-linecap:round; stroke-linejoin:round; stroke-width:4; stroke-opacity:1; fill:none" points="208.502,718.342 227.399,718.342 "/>
<polyline clip-path="url(#clip350)" style="stroke:#000000; stroke-linecap:round; stroke-linejoin:round; stroke-width:4; stroke-opacity:1; fill:none" points="208.502,394.905 227.399,394.905 "/>
<path clip-path="url(#clip350)" d="M151.862 1702 L168.182 1702 L168.182 1705.93 L146.237 1705.93 L146.237 1702 Q148.899 1699.25 153.483 1694.62 Q158.089 1689.96 159.27 1688.62 Q161.515 1686.1 162.395 1684.36 Q163.298 1682.6 163.298 1680.91 Q163.298 1678.16 161.353 1676.42 Q159.432 1674.69 156.33 1674.69 Q154.131 1674.69 151.677 1675.45 Q149.247 1676.21 146.469 1677.76 L146.469 1673.04 Q149.293 1671.91 151.747 1671.33 Q154.2 1670.75 156.237 1670.75 Q161.608 1670.75 164.802 1673.44 Q167.997 1676.12 167.997 1680.61 Q167.997 1682.74 167.186 1684.66 Q166.399 1686.56 164.293 1689.15 Q163.714 1689.82 160.612 1693.04 Q157.511 1696.24 151.862 1702 Z" fill="#000000" fill-rule="nonzero" fill-opacity="1" /><path clip-path="url(#clip350)" d="M158.598 1352.01 L146.793 1370.46 L158.598 1370.46 L158.598 1352.01 M157.372 1347.94 L163.251 1347.94 L163.251 1370.46 L168.182 1370.46 L168.182 1374.35 L163.251 1374.35 L163.251 1382.5 L158.598 1382.5 L158.598 1374.35 L142.997 1374.35 L142.997 1369.84 L157.372 1347.94 Z" fill="#000000" fill-rule="nonzero" fill-opacity="1" /><path clip-path="url(#clip350)" d="M156.654 1039.92 Q153.506 1039.92 151.654 1042.07 Q149.825 1044.22 149.825 1047.97 Q149.825 1051.7 151.654 1053.87 Q153.506 1056.03 156.654 1056.03 Q159.802 1056.03 161.631 1053.87 Q163.483 1051.7 163.483 1047.97 Q163.483 1044.22 161.631 1042.07 Q159.802 1039.92 156.654 1039.92 M165.936 1025.26 L165.936 1029.52 Q164.177 1028.69 162.372 1028.25 Q160.589 1027.81 158.83 1027.81 Q154.2 1027.81 151.747 1030.93 Q149.316 1034.06 148.969 1040.38 Q150.335 1038.37 152.395 1037.3 Q154.455 1036.21 156.932 1036.21 Q162.14 1036.21 165.149 1039.38 Q168.182 1042.53 168.182 1047.97 Q168.182 1053.3 165.034 1056.51 Q161.885 1059.73 156.654 1059.73 Q150.659 1059.73 147.487 1055.15 Q144.316 1050.54 144.316 1041.81 Q144.316 1033.62 148.205 1028.76 Q152.094 1023.87 158.645 1023.87 Q160.404 1023.87 162.186 1024.22 Q163.992 1024.57 165.936 1025.26 Z" fill="#000000" fill-rule="nonzero" fill-opacity="1" /><path clip-path="url(#clip350)" d="M156.33 719.21 Q152.997 719.21 151.075 720.993 Q149.177 722.775 149.177 725.9 Q149.177 729.025 151.075 730.807 Q152.997 732.59 156.33 732.59 Q159.663 732.59 161.585 730.807 Q163.506 729.002 163.506 725.9 Q163.506 722.775 161.585 720.993 Q159.686 719.21 156.33 719.21 M151.654 717.219 Q148.645 716.479 146.955 714.419 Q145.288 712.358 145.288 709.395 Q145.288 705.252 148.228 702.845 Q151.191 700.437 156.33 700.437 Q161.492 700.437 164.432 702.845 Q167.372 705.252 167.372 709.395 Q167.372 712.358 165.682 714.419 Q164.015 716.479 161.029 717.219 Q164.409 718.006 166.284 720.298 Q168.182 722.59 168.182 725.9 Q168.182 730.923 165.103 733.608 Q162.048 736.293 156.33 736.293 Q150.612 736.293 147.534 733.608 Q144.478 730.923 144.478 725.9 Q144.478 722.59 146.376 720.298 Q148.274 718.006 151.654 717.219 M149.941 709.835 Q149.941 712.52 151.608 714.025 Q153.298 715.53 156.33 715.53 Q159.339 715.53 161.029 714.025 Q162.742 712.52 162.742 709.835 Q162.742 707.15 161.029 705.645 Q159.339 704.141 156.33 704.141 Q153.298 704.141 151.608 705.645 Q149.941 707.15 149.941 709.835 Z" fill="#000000" fill-rule="nonzero" fill-opacity="1" /><path clip-path="url(#clip350)" d="M116.886 408.249 L124.525 408.249 L124.525 381.884 L116.214 383.55 L116.214 379.291 L124.478 377.625 L129.154 377.625 L129.154 408.249 L136.793 408.249 L136.793 412.185 L116.886 412.185 L116.886 408.249 Z" fill="#000000" fill-rule="nonzero" fill-opacity="1" /><path clip-path="url(#clip350)" d="M156.237 380.703 Q152.626 380.703 150.798 384.268 Q148.992 387.81 148.992 394.939 Q148.992 402.046 150.798 405.61 Q152.626 409.152 156.237 409.152 Q159.872 409.152 161.677 405.61 Q163.506 402.046 163.506 394.939 Q163.506 387.81 161.677 384.268 Q159.872 380.703 156.237 380.703 M156.237 377 Q162.048 377 165.103 381.606 Q168.182 386.189 168.182 394.939 Q168.182 403.666 165.103 408.273 Q162.048 412.856 156.237 412.856 Q150.427 412.856 147.349 408.273 Q144.293 403.666 144.293 394.939 Q144.293 386.189 147.349 381.606 Q150.427 377 156.237 377 Z" fill="#000000" fill-rule="nonzero" fill-opacity="1" /><path clip-path="url(#clip350)" d="M17.7787 1088.35 L24.5582 1088.35 Q21.5345 1091.59 20.0386 1095.29 Q18.5426 1098.95 18.5426 1103.08 Q18.5426 1111.23 23.5397 1115.56 Q28.5049 1119.89 37.9262 1119.89 Q47.3156 1119.89 52.3127 1115.56 Q57.2779 1111.23 57.2779 1103.08 Q57.2779 1098.95 55.782 1095.29 Q54.2861 1091.59 51.2623 1088.35 L57.9782 1088.35 Q60.2698 1091.72 61.4156 1095.51 Q62.5615 1099.26 62.5615 1103.47 Q62.5615 1114.26 55.973 1120.46 Q49.3526 1126.67 37.9262 1126.67 Q26.4679 1126.67 19.8794 1120.46 Q13.2591 1114.26 13.2591 1103.47 Q13.2591 1099.2 14.4049 1095.44 Q15.5189 1091.66 17.7787 1088.35 Z" fill="#000000" fill-rule="nonzero" fill-opacity="1" /><path clip-path="url(#clip350)" d="M30.0964 1064.86 Q30.0964 1069.57 33.7885 1072.31 Q37.4488 1075.04 43.8463 1075.04 Q50.2438 1075.04 53.9359 1072.34 Q57.5962 1069.6 57.5962 1064.86 Q57.5962 1060.18 53.9041 1057.44 Q50.212 1054.7 43.8463 1054.7 Q37.5124 1054.7 33.8203 1057.44 Q30.0964 1060.18 30.0964 1064.86 M25.1311 1064.86 Q25.1311 1057.22 30.0964 1052.86 Q35.0616 1048.5 43.8463 1048.5 Q52.5991 1048.5 57.5962 1052.86 Q62.5615 1057.22 62.5615 1064.86 Q62.5615 1072.53 57.5962 1076.89 Q52.5991 1081.22 43.8463 1081.22 Q35.0616 1081.22 30.0964 1076.89 Q25.1311 1072.53 25.1311 1064.86 Z" fill="#000000" fill-rule="nonzero" fill-opacity="1" /><path clip-path="url(#clip350)" d="M40.1224 1009.16 L61.6384 1009.16 L61.6384 1015.01 L40.3133 1015.01 Q35.2526 1015.01 32.7381 1016.99 Q30.2237 1018.96 30.2237 1022.91 Q30.2237 1027.65 33.2474 1030.39 Q36.2711 1033.12 41.491 1033.12 L61.6384 1033.12 L61.6384 1039.01 L25.9905 1039.01 L25.9905 1033.12 L31.5287 1033.12 Q28.314 1031.02 26.7225 1028.19 Q25.1311 1025.33 25.1311 1021.6 Q25.1311 1015.46 28.9505 1012.31 Q32.7381 1009.16 40.1224 1009.16 Z" fill="#000000" fill-rule="nonzero" fill-opacity="1" /><path clip-path="url(#clip350)" d="M27.0408 974.751 L32.579 974.751 Q31.3059 977.233 30.6693 979.907 Q30.0327 982.58 30.0327 985.445 Q30.0327 989.806 31.3695 992.002 Q32.7063 994.166 35.3799 994.166 Q37.4169 994.166 38.5946 992.606 Q39.7404 991.047 40.7908 986.336 L41.2364 984.331 Q42.5732 978.093 45.0239 975.483 Q47.4429 972.841 51.8034 972.841 Q56.7687 972.841 59.6651 976.788 Q62.5615 980.703 62.5615 987.578 Q62.5615 990.442 61.9886 993.561 Q61.4475 996.649 60.3335 1000.09 L54.2861 1000.09 Q55.973 996.84 56.8323 993.689 Q57.6599 990.538 57.6599 987.45 Q57.6599 983.312 56.2594 981.084 Q54.8271 978.856 52.249 978.856 Q49.8619 978.856 48.5887 980.48 Q47.3156 982.071 46.1379 987.514 L45.6605 989.551 Q44.5147 994.994 42.1594 997.413 Q39.7722 999.832 35.6345 999.832 Q30.6056 999.832 27.8684 996.267 Q25.1311 992.702 25.1311 986.145 Q25.1311 982.899 25.6085 980.034 Q26.086 977.17 27.0408 974.751 Z" fill="#000000" fill-rule="nonzero" fill-opacity="1" /><path clip-path="url(#clip350)" d="M47.5702 964.12 L25.9905 964.12 L25.9905 958.263 L47.3474 958.263 Q52.4082 958.263 54.9545 956.29 Q57.4689 954.317 57.4689 950.37 Q57.4689 945.628 54.4452 942.89 Q51.4215 940.121 46.2016 940.121 L25.9905 940.121 L25.9905 934.265 L61.6384 934.265 L61.6384 940.121 L56.1639 940.121 Q59.4104 942.254 61.0019 945.086 Q62.5615 947.887 62.5615 951.611 Q62.5615 957.754 58.742 960.937 Q54.9226 964.12 47.5702 964.12 M25.1311 949.383 L25.1311 949.383 Z" fill="#000000" fill-rule="nonzero" fill-opacity="1" /><path clip-path="url(#clip350)" d="M32.8336 894.447 Q28.8869 892.251 27.009 889.196 Q25.1311 886.14 25.1311 882.002 Q25.1311 876.432 29.046 873.409 Q32.9291 870.385 40.1224 870.385 L61.6384 870.385 L61.6384 876.273 L40.3133 876.273 Q35.1889 876.273 32.7063 878.087 Q30.2237 879.902 30.2237 883.626 Q30.2237 888.177 33.2474 890.819 Q36.2711 893.461 41.491 893.461 L61.6384 893.461 L61.6384 899.349 L40.3133 899.349 Q35.1571 899.349 32.7063 901.163 Q30.2237 902.977 30.2237 906.765 Q30.2237 911.253 33.2792 913.894 Q36.3029 916.536 41.491 916.536 L61.6384 916.536 L61.6384 922.425 L25.9905 922.425 L25.9905 916.536 L31.5287 916.536 Q28.2503 914.531 26.6907 911.73 Q25.1311 908.929 25.1311 905.078 Q25.1311 901.195 27.1045 898.489 Q29.0779 895.752 32.8336 894.447 Z" fill="#000000" fill-rule="nonzero" fill-opacity="1" /><path clip-path="url(#clip350)" d="M42.3504 828.212 L45.2149 828.212 L45.2149 855.139 Q51.2623 854.757 54.4452 851.511 Q57.5962 848.232 57.5962 842.408 Q57.5962 839.034 56.7687 835.883 Q55.9411 832.7 54.2861 829.581 L59.8242 829.581 Q61.161 832.732 61.8612 836.042 Q62.5615 839.352 62.5615 842.758 Q62.5615 851.288 57.5962 856.285 Q52.631 861.25 44.1646 861.25 Q35.4117 861.25 30.2873 856.539 Q25.1311 851.797 25.1311 843.776 Q25.1311 836.583 29.7781 832.413 Q34.3932 828.212 42.3504 828.212 M40.6316 834.069 Q35.8255 834.132 32.9609 836.774 Q30.0964 839.384 30.0964 843.713 Q30.0964 848.614 32.8654 851.574 Q35.6345 854.502 40.6634 854.948 L40.6316 834.069 Z" fill="#000000" fill-rule="nonzero" fill-opacity="1" /><path clip-path="url(#clip350)" d="M31.465 797.943 Q30.8921 798.93 30.6375 800.107 Q30.351 801.253 30.351 802.654 Q30.351 807.619 33.5975 810.293 Q36.8122 812.934 42.8596 812.934 L61.6384 812.934 L61.6384 818.823 L25.9905 818.823 L25.9905 812.934 L31.5287 812.934 Q28.2821 811.088 26.7225 808.128 Q25.1311 805.168 25.1311 800.935 Q25.1311 800.33 25.2266 799.598 Q25.2903 798.866 25.4494 797.975 L31.465 797.943 Z" fill="#000000" fill-rule="nonzero" fill-opacity="1" /><path clip-path="url(#clip350)" d="M17.7787 735.241 L24.5582 735.241 Q21.5345 738.487 20.0386 742.18 Q18.5426 745.84 18.5426 749.978 Q18.5426 758.126 23.5397 762.454 Q28.5049 766.783 37.9262 766.783 Q47.3156 766.783 52.3127 762.454 Q57.2779 758.126 57.2779 749.978 Q57.2779 745.84 55.782 742.18 Q54.2861 738.487 51.2623 735.241 L57.9782 735.241 Q60.2698 738.615 61.4156 742.402 Q62.5615 746.158 62.5615 750.359 Q62.5615 761.149 55.973 767.356 Q49.3526 773.562 37.9262 773.562 Q26.4679 773.562 19.8794 767.356 Q13.2591 761.149 13.2591 750.359 Q13.2591 746.094 14.4049 742.339 Q15.5189 738.551 17.7787 735.241 Z" fill="#000000" fill-rule="nonzero" fill-opacity="1" /><path clip-path="url(#clip350)" d="M1145.54 18.8205 L1145.54 41.5461 L1155.83 41.5461 Q1161.54 41.5461 1164.66 38.5889 Q1167.78 35.6318 1167.78 30.163 Q1167.78 24.7348 1164.66 21.7777 Q1161.54 18.8205 1155.83 18.8205 L1145.54 18.8205 M1137.36 12.096 L1155.83 12.096 Q1166 12.096 1171.18 16.714 Q1176.41 21.2916 1176.41 30.163 Q1176.41 39.1155 1171.18 43.6931 Q1166 48.2706 1155.83 48.2706 L1145.54 48.2706 L1145.54 72.576 L1137.36 72.576 L1137.36 12.096 Z" fill="#000000" fill-rule="nonzero" fill-opacity="1" /><path clip-path="url(#clip350)" d="M1224.78 45.1919 L1224.78 72.576 L1217.32 72.576 L1217.32 45.4349 Q1217.32 38.994 1214.81 35.7938 Q1212.3 32.5936 1207.28 32.5936 Q1201.24 32.5936 1197.76 36.4419 Q1194.27 40.2903 1194.27 46.9338 L1194.27 72.576 L1186.78 72.576 L1186.78 9.54393 L1194.27 9.54393 L1194.27 34.2544 Q1196.95 30.163 1200.55 28.1376 Q1204.2 26.1121 1208.94 26.1121 Q1216.76 26.1121 1220.77 30.9732 Q1224.78 35.7938 1224.78 45.1919 Z" fill="#000000" fill-rule="nonzero" fill-opacity="1" /><path clip-path="url(#clip350)" d="M1260.26 49.7694 Q1251.23 49.7694 1247.75 51.8354 Q1244.26 53.9013 1244.26 58.8839 Q1244.26 62.8538 1246.85 65.2034 Q1249.49 67.5124 1253.98 67.5124 Q1260.18 67.5124 1263.91 63.1374 Q1267.68 58.7219 1267.68 51.4303 L1267.68 49.7694 L1260.26 49.7694 M1275.13 46.6907 L1275.13 72.576 L1267.68 72.576 L1267.68 65.6895 Q1265.12 69.8214 1261.32 71.8063 Q1257.51 73.7508 1252 73.7508 Q1245.03 73.7508 1240.9 69.8619 Q1236.81 65.9325 1236.81 59.3701 Q1236.81 51.7138 1241.91 47.825 Q1247.06 43.9361 1257.23 43.9361 L1267.68 43.9361 L1267.68 43.2069 Q1267.68 38.0623 1264.27 35.2672 Q1260.91 32.4315 1254.79 32.4315 Q1250.91 32.4315 1247.22 33.3632 Q1243.53 34.295 1240.13 36.1584 L1240.13 29.2718 Q1244.22 27.692 1248.07 26.9223 Q1251.92 26.1121 1255.56 26.1121 Q1265.41 26.1121 1270.27 31.2163 Q1275.13 36.3204 1275.13 46.6907 Z" fill="#000000" fill-rule="nonzero" fill-opacity="1" /><path clip-path="url(#clip350)" d="M1319.41 28.5427 L1319.41 35.5912 Q1316.25 33.9709 1312.84 33.1607 Q1309.44 32.3505 1305.8 32.3505 Q1300.25 32.3505 1297.45 34.0519 Q1294.7 35.7533 1294.7 39.156 Q1294.7 41.7486 1296.68 43.2475 Q1298.67 44.7058 1304.66 46.0426 L1307.21 46.6097 Q1315.15 48.3111 1318.47 51.4303 Q1321.84 54.509 1321.84 60.0587 Q1321.84 66.3781 1316.81 70.0644 Q1311.83 73.7508 1303.08 73.7508 Q1299.44 73.7508 1295.47 73.0216 Q1291.54 72.3329 1287.16 70.9151 L1287.16 63.2184 Q1291.29 65.3654 1295.3 66.4591 Q1299.31 67.5124 1303.24 67.5124 Q1308.51 67.5124 1311.35 65.73 Q1314.18 63.9071 1314.18 60.6258 Q1314.18 57.5877 1312.11 55.9673 Q1310.09 54.3469 1303.16 52.8481 L1300.57 52.2405 Q1293.64 50.7821 1290.56 47.7845 Q1287.49 44.7463 1287.49 39.4801 Q1287.49 33.0797 1292.02 29.5959 Q1296.56 26.1121 1304.9 26.1121 Q1309.04 26.1121 1312.68 26.7198 Q1316.33 27.3274 1319.41 28.5427 Z" fill="#000000" fill-rule="nonzero" fill-opacity="1" /><path clip-path="url(#clip350)" d="M1372.51 48.0275 L1372.51 51.6733 L1338.24 51.6733 Q1338.73 59.3701 1342.86 63.421 Q1347.03 67.4314 1354.45 67.4314 Q1358.74 67.4314 1362.75 66.3781 Q1366.8 65.3249 1370.77 63.2184 L1370.77 70.267 Q1366.76 71.9684 1362.55 72.8596 Q1358.34 73.7508 1354 73.7508 Q1343.14 73.7508 1336.78 67.4314 Q1330.47 61.1119 1330.47 50.3365 Q1330.47 39.1965 1336.46 32.6746 Q1342.5 26.1121 1352.71 26.1121 Q1361.86 26.1121 1367.17 32.0264 Q1372.51 37.9003 1372.51 48.0275 M1365.06 45.84 Q1364.98 39.7232 1361.62 36.0774 Q1358.3 32.4315 1352.79 32.4315 Q1346.55 32.4315 1342.78 35.9558 Q1339.05 39.4801 1338.49 45.8805 L1365.06 45.84 Z" fill="#000000" fill-rule="nonzero" fill-opacity="1" /><path clip-path="url(#clip350)" d="M1418.33 65.7705 L1418.33 89.8329 L1410.84 89.8329 L1410.84 27.2059 L1418.33 27.2059 L1418.33 34.0924 Q1420.68 30.0415 1424.24 28.0971 Q1427.85 26.1121 1432.83 26.1121 Q1441.1 26.1121 1446.24 32.6746 Q1451.43 39.2371 1451.43 49.9314 Q1451.43 60.6258 1446.24 67.1883 Q1441.1 73.7508 1432.83 73.7508 Q1427.85 73.7508 1424.24 71.8063 Q1420.68 69.8214 1418.33 65.7705 M1443.69 49.9314 Q1443.69 41.7081 1440.29 37.0496 Q1436.92 32.3505 1431.01 32.3505 Q1425.09 32.3505 1421.69 37.0496 Q1418.33 41.7081 1418.33 49.9314 Q1418.33 58.1548 1421.69 62.8538 Q1425.09 67.5124 1431.01 67.5124 Q1436.92 67.5124 1440.29 62.8538 Q1443.69 58.1548 1443.69 49.9314 Z" fill="#000000" fill-rule="nonzero" fill-opacity="1" /><path clip-path="url(#clip350)" d="M1481.36 32.4315 Q1475.37 32.4315 1471.88 37.1306 Q1468.4 41.7891 1468.4 49.9314 Q1468.4 58.0738 1471.84 62.7728 Q1475.33 67.4314 1481.36 67.4314 Q1487.32 67.4314 1490.8 62.7323 Q1494.28 58.0333 1494.28 49.9314 Q1494.28 41.8701 1490.8 37.1711 Q1487.32 32.4315 1481.36 32.4315 M1481.36 26.1121 Q1491.08 26.1121 1496.63 32.4315 Q1502.18 38.7509 1502.18 49.9314 Q1502.18 61.0714 1496.63 67.4314 Q1491.08 73.7508 1481.36 73.7508 Q1471.6 73.7508 1466.05 67.4314 Q1460.54 61.0714 1460.54 49.9314 Q1460.54 38.7509 1466.05 32.4315 Q1471.6 26.1121 1481.36 26.1121 Z" fill="#000000" fill-rule="nonzero" fill-opacity="1" /><path clip-path="url(#clip350)" d="M1540.83 34.1734 Q1539.57 33.4443 1538.07 33.1202 Q1536.62 32.7556 1534.83 32.7556 Q1528.51 32.7556 1525.11 36.8875 Q1521.75 40.9789 1521.75 48.6757 L1521.75 72.576 L1514.26 72.576 L1514.26 27.2059 L1521.75 27.2059 L1521.75 34.2544 Q1524.1 30.1225 1527.87 28.1376 Q1531.63 26.1121 1537.02 26.1121 Q1537.79 26.1121 1538.72 26.2337 Q1539.65 26.3147 1540.79 26.5172 L1540.83 34.1734 Z" fill="#000000" fill-rule="nonzero" fill-opacity="1" /><path clip-path="url(#clip350)" d="M1556.02 14.324 L1556.02 27.2059 L1571.37 27.2059 L1571.37 32.9987 L1556.02 32.9987 L1556.02 57.6282 Q1556.02 63.1779 1557.52 64.7578 Q1559.06 66.3376 1563.72 66.3376 L1571.37 66.3376 L1571.37 72.576 L1563.72 72.576 Q1555.09 72.576 1551.81 69.3758 Q1548.53 66.1351 1548.53 57.6282 L1548.53 32.9987 L1543.06 32.9987 L1543.06 27.2059 L1548.53 27.2059 L1548.53 14.324 L1556.02 14.324 Z" fill="#000000" fill-rule="nonzero" fill-opacity="1" /><path clip-path="url(#clip350)" d="M1607.47 34.1734 Q1606.21 33.4443 1604.71 33.1202 Q1603.25 32.7556 1601.47 32.7556 Q1595.15 32.7556 1591.75 36.8875 Q1588.39 40.9789 1588.39 48.6757 L1588.39 72.576 L1580.89 72.576 L1580.89 27.2059 L1588.39 27.2059 L1588.39 34.2544 Q1590.74 30.1225 1594.5 28.1376 Q1598.27 26.1121 1603.66 26.1121 Q1604.43 26.1121 1605.36 26.2337 Q1606.29 26.3147 1607.43 26.5172 L1607.47 34.1734 Z" fill="#000000" fill-rule="nonzero" fill-opacity="1" /><path clip-path="url(#clip350)" d="M1635.9 49.7694 Q1626.87 49.7694 1623.39 51.8354 Q1619.9 53.9013 1619.9 58.8839 Q1619.9 62.8538 1622.5 65.2034 Q1625.13 67.5124 1629.62 67.5124 Q1635.82 67.5124 1639.55 63.1374 Q1643.32 58.7219 1643.32 51.4303 L1643.32 49.7694 L1635.9 49.7694 M1650.77 46.6907 L1650.77 72.576 L1643.32 72.576 L1643.32 65.6895 Q1640.76 69.8214 1636.96 71.8063 Q1633.15 73.7508 1627.64 73.7508 Q1620.67 73.7508 1616.54 69.8619 Q1612.45 65.9325 1612.45 59.3701 Q1612.45 51.7138 1617.55 47.825 Q1622.7 43.9361 1632.87 43.9361 L1643.32 43.9361 L1643.32 43.2069 Q1643.32 38.0623 1639.91 35.2672 Q1636.55 32.4315 1630.44 32.4315 Q1626.55 32.4315 1622.86 33.3632 Q1619.17 34.295 1615.77 36.1584 L1615.77 29.2718 Q1619.86 27.692 1623.71 26.9223 Q1627.56 26.1121 1631.2 26.1121 Q1641.05 26.1121 1645.91 31.2163 Q1650.77 36.3204 1650.77 46.6907 Z" fill="#000000" fill-rule="nonzero" fill-opacity="1" /><path clip-path="url(#clip350)" d="M1666.12 27.2059 L1673.58 27.2059 L1673.58 72.576 L1666.12 72.576 L1666.12 27.2059 M1666.12 9.54393 L1673.58 9.54393 L1673.58 18.9825 L1666.12 18.9825 L1666.12 9.54393 Z" fill="#000000" fill-rule="nonzero" fill-opacity="1" /><path clip-path="url(#clip350)" d="M1696.55 14.324 L1696.55 27.2059 L1711.9 27.2059 L1711.9 32.9987 L1696.55 32.9987 L1696.55 57.6282 Q1696.55 63.1779 1698.04 64.7578 Q1699.58 66.3376 1704.24 66.3376 L1711.9 66.3376 L1711.9 72.576 L1704.24 72.576 Q1695.61 72.576 1692.33 69.3758 Q1689.05 66.1351 1689.05 57.6282 L1689.05 32.9987 L1683.58 32.9987 L1683.58 27.2059 L1689.05 27.2059 L1689.05 14.324 L1696.55 14.324 Z" fill="#000000" fill-rule="nonzero" fill-opacity="1" /><polyline clip-path="url(#clip351)" style="stroke:#000000; stroke-linecap:round; stroke-linejoin:round; stroke-width:8; stroke-opacity:1; fill:none" stroke-dasharray="32, 20" points="2571.92,1688.65 2365.68,1629.71 2172.29,1562.46 1985.75,1486.44 1801.86,1401.52 1618.35,1308.1 1435.01,1207.28 1253.88,1101.13 1079.19,992.762 917.053,886.277 773.782,786.02 654.906,695.999 562.222,618.419 493.009,553.199 444.839,499.867 410.263,455.503 385.863,418.586 367.825,387.318 354.345,360.684 343.728,337.704 335.152,317.773 328.142,300.448 322.204,285.3 317.304,272.116 313.037,260.546 309.42,250.438 306.361,241.612 303.636,233.848 301.336,227.073 299.386,221.159 297.603,215.94 296.089,211.384 294.843,207.424 293.68,203.922 292.634,200.84 291.819,198.182 291.13,195.864 290.376,193.767 289.762,191.95 289.375,190.422 288.983,189.061 288.424,187.776 288.086,186.715 287.998,185.874 287.71,185.047 287.253,184.236 287.155,183.654 287.247,183.22 286.883,182.65 286.59,182.162 286.725,181.901 286.722,181.621 286.338,181.213 286.312,180.988 286.521,180.889 286.257,180.613 286.075,180.392 286.256,180.343 286.252,180.23 286.131,180.082 286.092,179.981 "/>
<polyline clip-path="url(#clip351)" style="stroke:#0000ff; stroke-linecap:round; stroke-linejoin:round; stroke-width:8; stroke-opacity:1; fill:none" points="2571.92,1688.65 2366.76,1630.26 2173.66,1563.2 1985.46,1486.4 1795.7,1398.53 1600.75,1299.08 1403.88,1190.73 1214.12,1079.03 1039.47,969.286 885.372,865.663 756.334,771.88 654.391,690.405 577.43,621.498 520.316,563.618 477.698,514.745 445.285,473.077 420.01,437.199 399.787,406.048 383.233,378.831 369.422,354.941 357.729,333.907 347.721,315.346 339.085,298.946 331.589,284.441 325.053,271.604 319.337,260.238 314.326,250.173 309.924,241.258 306.052,233.36 302.642,226.363 299.637,220.164 296.986,214.672 294.647,209.806 292.581,205.494 290.756,201.674 289.144,198.289 287.718,195.29 286.458,192.633 285.343,190.278 284.357,188.192 283.485,186.344 282.713,184.706 282.029,183.255 281.425,181.97 280.889,180.831 280.415,179.821 279.995,178.927 279.624,178.135 279.295,177.433 279.003,176.811 278.745,176.26 278.517,175.772 278.314,175.339 278.135,174.956 277.976,174.617 277.835,174.316 277.711,174.049 277.6,173.813 277.503,173.604 277.416,173.418 277.339,173.254 "/>
<path clip-path="url(#clip351)" d="M2571.92 1656.65 L2564.4 1678.29 L2541.49 1678.77 L2559.76 1692.62 L2553.1 1714.54 L2571.92 1701.45 L2590.73 1714.54 L2584.08 1692.62 L2602.35 1678.77 L2579.44 1678.29 L2571.92 1656.65 Z" fill="#ff0000" fill-rule="evenodd" fill-opacity="1" stroke="#000000" stroke-opacity="1" stroke-width="3.84"/>
<path clip-path="url(#clip350)" d="M1971.3 388.696 L2559.68 388.696 L2559.68 181.336 L1971.3 181.336  Z" fill="#ffffff" fill-rule="evenodd" fill-opacity="1"/>
<polyline clip-path="url(#clip350)" style="stroke:#000000; stroke-linecap:round; stroke-linejoin:round; stroke-width:4; stroke-opacity:1; fill:none" points="1971.3,388.696 2559.68,388.696 2559.68,181.336 1971.3,181.336 1971.3,388.696 "/>
<polyline clip-path="url(#clip350)" style="stroke:#000000; stroke-linecap:round; stroke-linejoin:round; stroke-width:8; stroke-opacity:1; fill:none" stroke-dasharray="32, 20" points="1998.32,233.176 2160.47,233.176 "/>
<path clip-path="url(#clip350)" d="M2187.5 215.896 L2216.73 215.896 L2216.73 219.831 L2204.46 219.831 L2204.46 250.456 L2199.76 250.456 L2199.76 219.831 L2187.5 219.831 L2187.5 215.896 Z" fill="#000000" fill-rule="nonzero" fill-opacity="1" /><path clip-path="url(#clip350)" d="M2229.12 228.512 Q2228.4 228.095 2227.54 227.91 Q2226.71 227.702 2225.69 227.702 Q2222.08 227.702 2220.13 230.063 Q2218.21 232.401 2218.21 236.799 L2218.21 250.456 L2213.93 250.456 L2213.93 224.531 L2218.21 224.531 L2218.21 228.558 Q2219.56 226.197 2221.71 225.063 Q2223.86 223.906 2226.94 223.906 Q2227.38 223.906 2227.91 223.975 Q2228.44 224.021 2229.09 224.137 L2229.12 228.512 Z" fill="#000000" fill-rule="nonzero" fill-opacity="1" /><path clip-path="url(#clip350)" d="M2233.14 240.225 L2233.14 224.531 L2237.4 224.531 L2237.4 240.063 Q2237.4 243.743 2238.84 245.595 Q2240.27 247.424 2243.14 247.424 Q2246.59 247.424 2248.58 245.225 Q2250.6 243.026 2250.6 239.229 L2250.6 224.531 L2254.86 224.531 L2254.86 250.456 L2250.6 250.456 L2250.6 246.475 Q2249.05 248.836 2246.99 249.993 Q2244.95 251.128 2242.24 251.128 Q2237.77 251.128 2235.46 248.35 Q2233.14 245.572 2233.14 240.225 M2243.86 223.906 L2243.86 223.906 Z" fill="#000000" fill-rule="nonzero" fill-opacity="1" /><path clip-path="url(#clip350)" d="M2285.81 236.429 L2285.81 238.512 L2266.22 238.512 Q2266.5 242.91 2268.86 245.225 Q2271.25 247.516 2275.48 247.516 Q2277.93 247.516 2280.23 246.915 Q2282.54 246.313 2284.81 245.109 L2284.81 249.137 Q2282.52 250.109 2280.11 250.618 Q2277.7 251.128 2275.23 251.128 Q2269.02 251.128 2265.39 247.516 Q2261.78 243.905 2261.78 237.748 Q2261.78 231.382 2265.2 227.655 Q2268.65 223.906 2274.49 223.906 Q2279.72 223.906 2282.75 227.285 Q2285.81 230.642 2285.81 236.429 M2281.55 235.179 Q2281.5 231.683 2279.58 229.6 Q2277.68 227.517 2274.53 227.517 Q2270.97 227.517 2268.81 229.53 Q2266.68 231.544 2266.36 235.202 L2281.55 235.179 Z" fill="#000000" fill-rule="nonzero" fill-opacity="1" /><path clip-path="url(#clip350)" d="M2312.08 217.169 L2312.08 224.531 L2320.85 224.531 L2320.85 227.841 L2312.08 227.841 L2312.08 241.915 Q2312.08 245.086 2312.93 245.989 Q2313.81 246.891 2316.48 246.891 L2320.85 246.891 L2320.85 250.456 L2316.48 250.456 Q2311.55 250.456 2309.67 248.628 Q2307.8 246.776 2307.8 241.915 L2307.8 227.841 L2304.67 227.841 L2304.67 224.531 L2307.8 224.531 L2307.8 217.169 L2312.08 217.169 Z" fill="#000000" fill-rule="nonzero" fill-opacity="1" /><path clip-path="url(#clip350)" d="M2341.48 228.512 Q2340.76 228.095 2339.9 227.91 Q2339.07 227.702 2338.05 227.702 Q2334.44 227.702 2332.49 230.063 Q2330.57 232.401 2330.57 236.799 L2330.57 250.456 L2326.29 250.456 L2326.29 224.531 L2330.57 224.531 L2330.57 228.558 Q2331.92 226.197 2334.07 225.063 Q2336.22 223.906 2339.3 223.906 Q2339.74 223.906 2340.27 223.975 Q2340.8 224.021 2341.45 224.137 L2341.48 228.512 Z" fill="#000000" fill-rule="nonzero" fill-opacity="1" /><path clip-path="url(#clip350)" d="M2357.73 237.424 Q2352.56 237.424 2350.57 238.604 Q2348.58 239.785 2348.58 242.632 Q2348.58 244.901 2350.06 246.243 Q2351.57 247.563 2354.14 247.563 Q2357.68 247.563 2359.81 245.063 Q2361.96 242.54 2361.96 238.373 L2361.96 237.424 L2357.73 237.424 M2366.22 235.665 L2366.22 250.456 L2361.96 250.456 L2361.96 246.521 Q2360.5 248.882 2358.33 250.016 Q2356.15 251.128 2353 251.128 Q2349.02 251.128 2346.66 248.905 Q2344.32 246.66 2344.32 242.91 Q2344.32 238.535 2347.24 236.313 Q2350.18 234.091 2355.99 234.091 L2361.96 234.091 L2361.96 233.674 Q2361.96 230.734 2360.02 229.137 Q2358.1 227.517 2354.6 227.517 Q2352.38 227.517 2350.27 228.049 Q2348.17 228.581 2346.22 229.646 L2346.22 225.711 Q2348.56 224.808 2350.76 224.368 Q2352.96 223.906 2355.04 223.906 Q2360.67 223.906 2363.44 226.822 Q2366.22 229.739 2366.22 235.665 Z" fill="#000000" fill-rule="nonzero" fill-opacity="1" /><path clip-path="url(#clip350)" d="M2374.99 224.531 L2379.25 224.531 L2379.25 250.919 Q2379.25 255.873 2377.36 258.095 Q2375.48 260.317 2371.29 260.317 L2369.67 260.317 L2369.67 256.706 L2370.8 256.706 Q2373.24 256.706 2374.11 255.572 Q2374.99 254.461 2374.99 250.919 L2374.99 224.531 M2374.99 214.438 L2379.25 214.438 L2379.25 219.831 L2374.99 219.831 L2374.99 214.438 Z" fill="#000000" fill-rule="nonzero" fill-opacity="1" /><path clip-path="url(#clip350)" d="M2410.34 236.429 L2410.34 238.512 L2390.76 238.512 Q2391.04 242.91 2393.4 245.225 Q2395.78 247.516 2400.02 247.516 Q2402.47 247.516 2404.76 246.915 Q2407.08 246.313 2409.35 245.109 L2409.35 249.137 Q2407.05 250.109 2404.65 250.618 Q2402.24 251.128 2399.76 251.128 Q2393.56 251.128 2389.93 247.516 Q2386.31 243.905 2386.31 237.748 Q2386.31 231.382 2389.74 227.655 Q2393.19 223.906 2399.02 223.906 Q2404.25 223.906 2407.29 227.285 Q2410.34 230.642 2410.34 236.429 M2406.08 235.179 Q2406.04 231.683 2404.11 229.6 Q2402.22 227.517 2399.07 227.517 Q2395.5 227.517 2393.35 229.53 Q2391.22 231.544 2390.9 235.202 L2406.08 235.179 Z" fill="#000000" fill-rule="nonzero" fill-opacity="1" /><path clip-path="url(#clip350)" d="M2435.99 225.526 L2435.99 229.507 Q2434.18 228.512 2432.36 228.026 Q2430.55 227.517 2428.7 227.517 Q2424.55 227.517 2422.26 230.155 Q2419.97 232.771 2419.97 237.517 Q2419.97 242.262 2422.26 244.901 Q2424.55 247.516 2428.7 247.516 Q2430.55 247.516 2432.36 247.03 Q2434.18 246.521 2435.99 245.526 L2435.99 249.461 Q2434.21 250.294 2432.29 250.711 Q2430.39 251.128 2428.23 251.128 Q2422.38 251.128 2418.93 247.447 Q2415.48 243.767 2415.48 237.517 Q2415.48 231.174 2418.95 227.54 Q2422.45 223.906 2428.51 223.906 Q2430.48 223.906 2432.36 224.322 Q2434.23 224.716 2435.99 225.526 Z" fill="#000000" fill-rule="nonzero" fill-opacity="1" /><path clip-path="url(#clip350)" d="M2447.61 217.169 L2447.61 224.531 L2456.38 224.531 L2456.38 227.841 L2447.61 227.841 L2447.61 241.915 Q2447.61 245.086 2448.47 245.989 Q2449.35 246.891 2452.01 246.891 L2456.38 246.891 L2456.38 250.456 L2452.01 250.456 Q2447.08 250.456 2445.2 248.628 Q2443.33 246.776 2443.33 241.915 L2443.33 227.841 L2440.2 227.841 L2440.2 224.531 L2443.33 224.531 L2443.33 217.169 L2447.61 217.169 Z" fill="#000000" fill-rule="nonzero" fill-opacity="1" /><path clip-path="url(#clip350)" d="M2472.03 227.517 Q2468.61 227.517 2466.61 230.202 Q2464.62 232.864 2464.62 237.517 Q2464.62 242.169 2466.59 244.854 Q2468.58 247.516 2472.03 247.516 Q2475.43 247.516 2477.42 244.831 Q2479.42 242.146 2479.42 237.517 Q2479.42 232.91 2477.42 230.225 Q2475.43 227.517 2472.03 227.517 M2472.03 223.906 Q2477.59 223.906 2480.76 227.517 Q2483.93 231.128 2483.93 237.517 Q2483.93 243.882 2480.76 247.516 Q2477.59 251.128 2472.03 251.128 Q2466.45 251.128 2463.28 247.516 Q2460.13 243.882 2460.13 237.517 Q2460.13 231.128 2463.28 227.517 Q2466.45 223.906 2472.03 223.906 Z" fill="#000000" fill-rule="nonzero" fill-opacity="1" /><path clip-path="url(#clip350)" d="M2506.01 228.512 Q2505.29 228.095 2504.44 227.91 Q2503.6 227.702 2502.59 227.702 Q2498.98 227.702 2497.03 230.063 Q2495.11 232.401 2495.11 236.799 L2495.11 250.456 L2490.83 250.456 L2490.83 224.531 L2495.11 224.531 L2495.11 228.558 Q2496.45 226.197 2498.6 225.063 Q2500.76 223.906 2503.84 223.906 Q2504.28 223.906 2504.81 223.975 Q2505.34 224.021 2505.99 224.137 L2506.01 228.512 Z" fill="#000000" fill-rule="nonzero" fill-opacity="1" /><path clip-path="url(#clip350)" d="M2521.27 252.864 Q2519.46 257.493 2517.75 258.905 Q2516.04 260.317 2513.17 260.317 L2509.76 260.317 L2509.76 256.753 L2512.26 256.753 Q2514.02 256.753 2514.99 255.919 Q2515.97 255.086 2517.15 251.984 L2517.91 250.04 L2507.42 224.531 L2511.94 224.531 L2520.04 244.808 L2528.14 224.531 L2532.66 224.531 L2521.27 252.864 Z" fill="#000000" fill-rule="nonzero" fill-opacity="1" /><polyline clip-path="url(#clip350)" style="stroke:#0000ff; stroke-linecap:round; stroke-linejoin:round; stroke-width:8; stroke-opacity:1; fill:none" points="1998.32,285.016 2160.47,285.016 "/>
<path clip-path="url(#clip350)" d="M2192.17 271.579 L2192.17 284.565 L2198.05 284.565 Q2201.31 284.565 2203.1 282.875 Q2204.88 281.185 2204.88 278.06 Q2204.88 274.958 2203.1 273.269 Q2201.31 271.579 2198.05 271.579 L2192.17 271.579 M2187.5 267.736 L2198.05 267.736 Q2203.86 267.736 2206.82 270.375 Q2209.81 272.991 2209.81 278.06 Q2209.81 283.176 2206.82 285.792 Q2203.86 288.407 2198.05 288.407 L2192.17 288.407 L2192.17 302.296 L2187.5 302.296 L2187.5 267.736 Z" fill="#000000" fill-rule="nonzero" fill-opacity="1" /><path clip-path="url(#clip350)" d="M2236.8 268.871 L2236.8 273.431 Q2234.14 272.158 2231.78 271.533 Q2229.42 270.908 2227.22 270.908 Q2223.4 270.908 2221.31 272.389 Q2219.25 273.871 2219.25 276.602 Q2219.25 278.894 2220.62 280.074 Q2222.01 281.232 2225.85 281.949 L2228.68 282.528 Q2233.91 283.523 2236.38 286.046 Q2238.88 288.546 2238.88 292.759 Q2238.88 297.782 2235.5 300.375 Q2232.15 302.968 2225.64 302.968 Q2223.19 302.968 2220.41 302.412 Q2217.66 301.856 2214.69 300.769 L2214.69 295.954 Q2217.54 297.551 2220.27 298.361 Q2223 299.171 2225.64 299.171 Q2229.65 299.171 2231.82 297.597 Q2234 296.023 2234 293.107 Q2234 290.56 2232.43 289.125 Q2230.87 287.69 2227.31 286.972 L2224.46 286.417 Q2219.23 285.375 2216.89 283.153 Q2214.56 280.931 2214.56 276.972 Q2214.56 272.389 2217.77 269.75 Q2221.01 267.111 2226.69 267.111 Q2229.12 267.111 2231.64 267.551 Q2234.16 267.991 2236.8 268.871 Z" fill="#000000" fill-rule="nonzero" fill-opacity="1" /><path clip-path="url(#clip350)" d="M2246.18 267.736 L2253.14 267.736 L2261.96 291.255 L2270.83 267.736 L2277.8 267.736 L2277.8 302.296 L2273.24 302.296 L2273.24 271.949 L2264.32 295.653 L2259.62 295.653 L2250.71 271.949 L2250.71 302.296 L2246.18 302.296 L2246.18 267.736 Z" fill="#000000" fill-rule="nonzero" fill-opacity="1" /><path clip-path="url(#clip350)" d="M2315.09 266.278 L2315.09 269.82 L2311.01 269.82 Q2308.72 269.82 2307.82 270.746 Q2306.94 271.671 2306.94 274.079 L2306.94 276.371 L2313.95 276.371 L2313.95 279.681 L2306.94 279.681 L2306.94 302.296 L2302.66 302.296 L2302.66 279.681 L2298.58 279.681 L2298.58 276.371 L2302.66 276.371 L2302.66 274.565 Q2302.66 270.236 2304.67 268.269 Q2306.68 266.278 2311.06 266.278 L2315.09 266.278 Z" fill="#000000" fill-rule="nonzero" fill-opacity="1" /><path clip-path="url(#clip350)" d="M2318.65 276.371 L2322.91 276.371 L2322.91 302.296 L2318.65 302.296 L2318.65 276.371 M2318.65 266.278 L2322.91 266.278 L2322.91 271.671 L2318.65 271.671 L2318.65 266.278 Z" fill="#000000" fill-rule="nonzero" fill-opacity="1" /><path clip-path="url(#clip350)" d="M2336.04 269.009 L2336.04 276.371 L2344.81 276.371 L2344.81 279.681 L2336.04 279.681 L2336.04 293.755 Q2336.04 296.926 2336.89 297.829 Q2337.77 298.731 2340.43 298.731 L2344.81 298.731 L2344.81 302.296 L2340.43 302.296 Q2335.5 302.296 2333.63 300.468 Q2331.75 298.616 2331.75 293.755 L2331.75 279.681 L2328.63 279.681 L2328.63 276.371 L2331.75 276.371 L2331.75 269.009 L2336.04 269.009 Z" fill="#000000" fill-rule="nonzero" fill-opacity="1" /><path clip-path="url(#clip350)" d="M2079.4 312.762 L2073.73 329.05 L2056.48 329.411 L2070.24 339.844 L2065.23 356.348 L2079.4 346.494 L2093.56 356.348 L2088.55 339.844 L2102.31 329.411 L2085.06 329.05 L2079.4 312.762 Z" fill="#ff0000" fill-rule="evenodd" fill-opacity="1" stroke="#000000" stroke-opacity="1" stroke-width="2.89129"/>
<path clip-path="url(#clip350)" d="M2209.74 320.711 L2209.74 325.271 Q2207.08 323.998 2204.72 323.373 Q2202.36 322.748 2200.16 322.748 Q2196.34 322.748 2194.25 324.229 Q2192.19 325.711 2192.19 328.442 Q2192.19 330.734 2193.56 331.914 Q2194.95 333.072 2198.79 333.789 L2201.62 334.368 Q2206.85 335.363 2209.32 337.886 Q2211.82 340.386 2211.82 344.599 Q2211.82 349.622 2208.44 352.215 Q2205.09 354.808 2198.58 354.808 Q2196.13 354.808 2193.35 354.252 Q2190.6 353.696 2187.63 352.609 L2187.63 347.794 Q2190.48 349.391 2193.21 350.201 Q2195.94 351.011 2198.58 351.011 Q2202.59 351.011 2204.76 349.437 Q2206.94 347.863 2206.94 344.947 Q2206.94 342.4 2205.37 340.965 Q2203.81 339.53 2200.25 338.812 L2197.4 338.257 Q2192.17 337.215 2189.83 334.993 Q2187.5 332.771 2187.5 328.812 Q2187.5 324.229 2190.71 321.59 Q2193.95 318.951 2199.63 318.951 Q2202.06 318.951 2204.58 319.391 Q2207.1 319.831 2209.74 320.711 Z" fill="#000000" fill-rule="nonzero" fill-opacity="1" /><path clip-path="url(#clip350)" d="M2223.14 320.849 L2223.14 328.211 L2231.92 328.211 L2231.92 331.521 L2223.14 331.521 L2223.14 345.595 Q2223.14 348.766 2224 349.669 Q2224.88 350.571 2227.54 350.571 L2231.92 350.571 L2231.92 354.136 L2227.54 354.136 Q2222.61 354.136 2220.74 352.308 Q2218.86 350.456 2218.86 345.595 L2218.86 331.521 L2215.74 331.521 L2215.74 328.211 L2218.86 328.211 L2218.86 320.849 L2223.14 320.849 Z" fill="#000000" fill-rule="nonzero" fill-opacity="1" /><path clip-path="url(#clip350)" d="M2249.3 341.104 Q2244.14 341.104 2242.15 342.284 Q2240.16 343.465 2240.16 346.312 Q2240.16 348.581 2241.64 349.923 Q2243.14 351.243 2245.71 351.243 Q2249.25 351.243 2251.38 348.743 Q2253.54 346.22 2253.54 342.053 L2253.54 341.104 L2249.3 341.104 M2257.8 339.345 L2257.8 354.136 L2253.54 354.136 L2253.54 350.201 Q2252.08 352.562 2249.9 353.696 Q2247.73 354.808 2244.58 354.808 Q2240.6 354.808 2238.24 352.585 Q2235.9 350.34 2235.9 346.59 Q2235.9 342.215 2238.81 339.993 Q2241.75 337.771 2247.56 337.771 L2253.54 337.771 L2253.54 337.354 Q2253.54 334.414 2251.59 332.817 Q2249.67 331.197 2246.18 331.197 Q2243.95 331.197 2241.85 331.729 Q2239.74 332.261 2237.8 333.326 L2237.8 329.391 Q2240.13 328.488 2242.33 328.048 Q2244.53 327.586 2246.62 327.586 Q2252.24 327.586 2255.02 330.502 Q2257.8 333.419 2257.8 339.345 Z" fill="#000000" fill-rule="nonzero" fill-opacity="1" /><path clip-path="url(#clip350)" d="M2281.59 332.192 Q2280.87 331.775 2280.02 331.59 Q2279.18 331.382 2278.17 331.382 Q2274.56 331.382 2272.61 333.743 Q2270.69 336.081 2270.69 340.479 L2270.69 354.136 L2266.41 354.136 L2266.41 328.211 L2270.69 328.211 L2270.69 332.238 Q2272.03 329.877 2274.18 328.743 Q2276.34 327.586 2279.42 327.586 Q2279.86 327.586 2280.39 327.655 Q2280.92 327.701 2281.57 327.817 L2281.59 332.192 Z" fill="#000000" fill-rule="nonzero" fill-opacity="1" /><path clip-path="url(#clip350)" d="M2290.27 320.849 L2290.27 328.211 L2299.05 328.211 L2299.05 331.521 L2290.27 331.521 L2290.27 345.595 Q2290.27 348.766 2291.13 349.669 Q2292.01 350.571 2294.67 350.571 L2299.05 350.571 L2299.05 354.136 L2294.67 354.136 Q2289.74 354.136 2287.87 352.308 Q2285.99 350.456 2285.99 345.595 L2285.99 331.521 L2282.87 331.521 L2282.87 328.211 L2285.99 328.211 L2285.99 320.849 L2290.27 320.849 Z" fill="#000000" fill-rule="nonzero" fill-opacity="1" /></svg>
