<?xml version="1.0" encoding="utf-8"?>
<svg xmlns="http://www.w3.org/2000/svg" xmlns:xlink="http://www.w3.org/1999/xlink" width="672" height="480" viewBox="0 0 2688 1920">
<defs>
  <clipPath id="clip760">
    <rect x="0" y="0" width="2688" height="1920"/>
  </clipPath>
</defs>
<path clip-path="url(#clip760)" d="M0 1920 L2688 1920 L2688 -4.26326e-14 L0 -4.26326e-14  Z" fill="#ffffff" fill-rule="evenodd" fill-opacity="1"/>
<defs>
  <clipPath id="clip761">
    <rect x="225" y="127" width="2416" height="1607"/>
  </clipPath>
</defs>
<path clip-path="url(#clip760)" d="M225.654 1734.12 L2640.76 1734.12 L2640.76 127.792 L225.654 127.792  Z" fill="#ffffff" fill-rule="evenodd" fill-opacity="1"/>
<polyline clip-path="url(#clip761)" style="stroke:#000000; stroke-linecap:round; stroke-linejoin:round; stroke-width:2; stroke-opacity:0.1; fill:none" points="294.006,1734.12 294.006,127.792 "/>
<polyline clip-path="url(#clip761)" style="stroke:#000000; stroke-linecap:round; stroke-linejoin:round; stroke-width:2; stroke-opacity:0.1; fill:none" points="749.686,1734.12 749.686,127.792 "/>
<polyline clip-path="url(#clip761)" style="stroke:#000000; stroke-linecap:round; stroke-linejoin:round; stroke-width:2; stroke-opacity:0.1; fill:none" points="1205.37,1734.12 1205.37,127.792 "/>
<polyline clip-path="url(#clip761)" style="stroke:#000000; stroke-linecap:round; stroke-linejoin:round; stroke-width:2; stroke-opacity:0.1; fill:none" points="1661.04,1734.12 1661.04,127.792 "/>
<polyline clip-path="url(#clip761)" style="stroke:#000000; stroke-linecap:round; stroke-linejoin:round; stroke-width:2; stroke-opacity:0.1; fill:none" points="2116.72,1734.12 2116.72,127.792 "/>
<polyline clip-path="url(#clip761)" style="stroke:#000000; stroke-linecap:round; stroke-linejoin:round; stroke-width:2; stroke-opacity:0.1; fill:none" points="2572.4,1734.12 2572.4,127.792 "/>
<polyline clip-path="url(#clip761)" style="stroke:#000000; stroke-linecap:round; stroke-linejoin:round; stroke-width:2; stroke-opacity:0.1; fill:none" points="225.654,1688.65 2640.76,1688.65 "/>
<polyline clip-path="url(#clip761)" style="stroke:#000000; stroke-linecap:round; stroke-linejoin:round; stroke-width:2; stroke-opacity:0.1; fill:none" points="225.654,1309.8 2640.76,1309.8 "/>
<polyline clip-path="url(#clip761)" style="stroke:#000000; stroke-linecap:round; stroke-linejoin:round; stroke-width:2; stroke-opacity:0.1; fill:none" points="225.654,930.955 2640.76,930.955 "/>
<polyline clip-path="url(#clip761)" style="stroke:#000000; stroke-linecap:round; stroke-linejoin:round; stroke-width:2; stroke-opacity:0.1; fill:none" points="225.654,552.104 2640.76,552.104 "/>
<polyline clip-path="url(#clip761)" style="stroke:#000000; stroke-linecap:round; stroke-linejoin:round; stroke-width:2; stroke-opacity:0.1; fill:none" points="225.654,173.254 2640.76,173.254 "/>
<polyline clip-path="url(#clip760)" style="stroke:#000000; stroke-linecap:round; stroke-linejoin:round; stroke-width:4; stroke-opacity:1; fill:none" points="225.654,1734.12 2640.76,1734.12 "/>
<polyline clip-path="url(#clip760)" style="stroke:#000000; stroke-linecap:round; stroke-linejoin:round; stroke-width:4; stroke-opacity:1; fill:none" points="294.006,1734.12 294.006,1715.22 "/>
<polyline clip-path="url(#clip760)" style="stroke:#000000; stroke-linecap:round; stroke-linejoin:round; stroke-width:4; stroke-opacity:1; fill:none" points="749.686,1734.12 749.686,1715.22 "/>
<polyline clip-path="url(#clip760)" style="stroke:#000000; stroke-linecap:round; stroke-linejoin:round; stroke-width:4; stroke-opacity:1; fill:none" points="1205.37,1734.12 1205.37,1715.22 "/>
<polyline clip-path="url(#clip760)" style="stroke:#000000; stroke-linecap:round; stroke-linejoin:round; stroke-width:4; stroke-opacity:1; fill:none" points="1661.04,1734.12 1661.04,1715.22 "/>
<polyline clip-path="url(#clip760)" style="stroke:#000000; stroke-linecap:round; stroke-linejoin:round; stroke-width:4; stroke-opacity:1; fill:none" points="2116.72,1734.12 2116.72,1715.22 "/>
<polyline clip-path="url(#clip760)" style="stroke:#000000; stroke-linecap:round; stroke-linejoin:round; stroke-width:4; stroke-opacity:1; fill:none" points="2572.4,1734.12 2572.4,1715.22 "/>
<path clip-path="url(#clip760)" d="M294.006 1767.34 Q290.395 1767.34 288.567 1770.9 Q286.761 1774.45 286.761 1781.58 Q286.761 1788.68 288.567 1792.25 Q290.395 1795.79 294.006 1795.79 Q297.641 1795.79 299.446 1792.25 Q301.275 1788.68 301.275 1781.58 Q301.275 1774.45 299.446 1770.9 Q297.641 1767.34 294.006 1767.34 M294.006 1763.64 Q299.817 1763.64 302.872 1768.24 Q305.951 1772.83 305.951 1781.58 Q305.951 1790.3 302.872 1794.91 Q299.817 1799.49 294.006 1799.49 Q288.196 1799.49 285.118 1794.91 Q282.062 1790.3 282.062 1781.58 Q282.062 1772.83 285.118 1768.24 Q288.196 1763.64 294.006 1763.64 Z" fill="#000000" fill-rule="nonzero" fill-opacity="1" /><path clip-path="url(#clip760)" d="M739.964 1764.26 L758.32 1764.26 L758.32 1768.2 L744.246 1768.2 L744.246 1776.67 Q745.265 1776.32 746.283 1776.16 Q747.302 1775.97 748.32 1775.97 Q754.107 1775.97 757.487 1779.15 Q760.866 1782.32 760.866 1787.73 Q760.866 1793.31 757.394 1796.41 Q753.922 1799.49 747.603 1799.49 Q745.427 1799.49 743.158 1799.12 Q740.913 1798.75 738.505 1798.01 L738.505 1793.31 Q740.589 1794.45 742.811 1795 Q745.033 1795.56 747.51 1795.56 Q751.515 1795.56 753.853 1793.45 Q756.19 1791.34 756.19 1787.73 Q756.19 1784.12 753.853 1782.02 Q751.515 1779.91 747.51 1779.91 Q745.635 1779.91 743.76 1780.33 Q741.908 1780.74 739.964 1781.62 L739.964 1764.26 Z" fill="#000000" fill-rule="nonzero" fill-opacity="1" /><path clip-path="url(#clip760)" d="M1180.05 1794.89 L1187.69 1794.89 L1187.69 1768.52 L1179.38 1770.19 L1179.38 1765.93 L1187.65 1764.26 L1192.32 1764.26 L1192.32 1794.89 L1199.96 1794.89 L1199.96 1798.82 L1180.05 1798.82 L1180.05 1794.89 Z" fill="#000000" fill-rule="nonzero" fill-opacity="1" /><path clip-path="url(#clip760)" d="M1219.4 1767.34 Q1215.79 1767.34 1213.96 1770.9 Q1212.16 1774.45 1212.16 1781.58 Q1212.16 1788.68 1213.96 1792.25 Q1215.79 1795.79 1219.4 1795.79 Q1223.04 1795.79 1224.84 1792.25 Q1226.67 1788.68 1226.67 1781.58 Q1226.67 1774.45 1224.84 1770.9 Q1223.04 1767.34 1219.4 1767.34 M1219.4 1763.64 Q1225.21 1763.64 1228.27 1768.24 Q1231.35 1772.83 1231.35 1781.58 Q1231.35 1790.3 1228.27 1794.91 Q1225.21 1799.49 1219.4 1799.49 Q1213.59 1799.49 1210.52 1794.91 Q1207.46 1790.3 1207.46 1781.58 Q1207.46 1772.83 1210.52 1768.24 Q1213.59 1763.64 1219.4 1763.64 Z" fill="#000000" fill-rule="nonzero" fill-opacity="1" /><path clip-path="url(#clip760)" d="M1636.23 1794.89 L1643.87 1794.89 L1643.87 1768.52 L1635.56 1770.19 L1635.56 1765.93 L1643.82 1764.26 L1648.5 1764.26 L1648.5 1794.89 L1656.14 1794.89 L1656.14 1798.82 L1636.23 1798.82 L1636.23 1794.89 Z" fill="#000000" fill-rule="nonzero" fill-opacity="1" /><path clip-path="url(#clip760)" d="M1665.63 1764.26 L1683.98 1764.26 L1683.98 1768.2 L1669.91 1768.2 L1669.91 1776.67 Q1670.93 1776.32 1671.95 1776.16 Q1672.97 1775.97 1673.98 1775.97 Q1679.77 1775.97 1683.15 1779.15 Q1686.53 1782.32 1686.53 1787.73 Q1686.53 1793.31 1683.06 1796.41 Q1679.59 1799.49 1673.27 1799.49 Q1671.09 1799.49 1668.82 1799.12 Q1666.58 1798.75 1664.17 1798.01 L1664.17 1793.31 Q1666.25 1794.45 1668.48 1795 Q1670.7 1795.56 1673.17 1795.56 Q1677.18 1795.56 1679.52 1793.45 Q1681.86 1791.34 1681.86 1787.73 Q1681.86 1784.12 1679.52 1782.02 Q1677.18 1779.91 1673.17 1779.91 Q1671.3 1779.91 1669.42 1780.33 Q1667.57 1780.74 1665.63 1781.62 L1665.63 1764.26 Z" fill="#000000" fill-rule="nonzero" fill-opacity="1" /><path clip-path="url(#clip760)" d="M2095.5 1794.89 L2111.82 1794.89 L2111.82 1798.82 L2089.87 1798.82 L2089.87 1794.89 Q2092.53 1792.13 2097.12 1787.5 Q2101.72 1782.85 2102.91 1781.51 Q2105.15 1778.98 2106.03 1777.25 Q2106.93 1775.49 2106.93 1773.8 Q2106.93 1771.04 2104.99 1769.31 Q2103.07 1767.57 2099.97 1767.57 Q2097.77 1767.57 2095.31 1768.34 Q2092.88 1769.1 2090.1 1770.65 L2090.1 1765.93 Q2092.93 1764.79 2095.38 1764.21 Q2097.84 1763.64 2099.87 1763.64 Q2105.24 1763.64 2108.44 1766.32 Q2111.63 1769.01 2111.63 1773.5 Q2111.63 1775.63 2110.82 1777.55 Q2110.03 1779.45 2107.93 1782.04 Q2107.35 1782.71 2104.25 1785.93 Q2101.15 1789.12 2095.5 1794.89 Z" fill="#000000" fill-rule="nonzero" fill-opacity="1" /><path clip-path="url(#clip760)" d="M2131.63 1767.34 Q2128.02 1767.34 2126.19 1770.9 Q2124.39 1774.45 2124.39 1781.58 Q2124.39 1788.68 2126.19 1792.25 Q2128.02 1795.79 2131.63 1795.79 Q2135.27 1795.79 2137.07 1792.25 Q2138.9 1788.68 2138.9 1781.58 Q2138.9 1774.45 2137.07 1770.9 Q2135.27 1767.34 2131.63 1767.34 M2131.63 1763.64 Q2137.44 1763.64 2140.5 1768.24 Q2143.58 1772.83 2143.58 1781.58 Q2143.58 1790.3 2140.5 1794.91 Q2137.44 1799.49 2131.63 1799.49 Q2125.82 1799.49 2122.74 1794.91 Q2119.69 1790.3 2119.69 1781.58 Q2119.69 1772.83 2122.74 1768.24 Q2125.82 1763.64 2131.63 1763.64 Z" fill="#000000" fill-rule="nonzero" fill-opacity="1" /><path clip-path="url(#clip760)" d="M2551.67 1794.89 L2567.99 1794.89 L2567.99 1798.82 L2546.05 1798.82 L2546.05 1794.89 Q2548.71 1792.13 2553.3 1787.5 Q2557.9 1782.85 2559.08 1781.51 Q2561.33 1778.98 2562.21 1777.25 Q2563.11 1775.49 2563.11 1773.8 Q2563.11 1771.04 2561.17 1769.31 Q2559.24 1767.57 2556.14 1767.57 Q2553.94 1767.57 2551.49 1768.34 Q2549.06 1769.1 2546.28 1770.65 L2546.28 1765.93 Q2549.11 1764.79 2551.56 1764.21 Q2554.01 1763.64 2556.05 1763.64 Q2561.42 1763.64 2564.61 1766.32 Q2567.81 1769.01 2567.81 1773.5 Q2567.81 1775.63 2567 1777.55 Q2566.21 1779.45 2564.11 1782.04 Q2563.53 1782.71 2560.42 1785.93 Q2557.32 1789.12 2551.67 1794.89 Z" fill="#000000" fill-rule="nonzero" fill-opacity="1" /><path clip-path="url(#clip760)" d="M2577.86 1764.26 L2596.21 1764.26 L2596.21 1768.2 L2582.14 1768.2 L2582.14 1776.67 Q2583.16 1776.32 2584.17 1776.16 Q2585.19 1775.97 2586.21 1775.97 Q2592 1775.97 2595.38 1779.15 Q2598.76 1782.32 2598.76 1787.73 Q2598.76 1793.31 2595.29 1796.41 Q2591.81 1799.49 2585.49 1799.49 Q2583.32 1799.49 2581.05 1799.12 Q2578.8 1798.75 2576.4 1798.01 L2576.4 1793.31 Q2578.48 1794.45 2580.7 1795 Q2582.92 1795.56 2585.4 1795.56 Q2589.41 1795.56 2591.74 1793.45 Q2594.08 1791.34 2594.08 1787.73 Q2594.08 1784.12 2591.74 1782.02 Q2589.41 1779.91 2585.4 1779.91 Q2583.53 1779.91 2581.65 1780.33 Q2579.8 1780.74 2577.86 1781.62 L2577.86 1764.26 Z" fill="#000000" fill-rule="nonzero" fill-opacity="1" /><path clip-path="url(#clip760)" d="M1147.54 1861.02 Q1149.61 1861.72 1151.55 1864.01 Q1153.53 1866.3 1155.5 1870.31 L1162.03 1883.3 L1155.12 1883.3 L1149.04 1871.11 Q1146.68 1866.34 1144.46 1864.78 Q1142.26 1863.22 1138.44 1863.22 L1131.44 1863.22 L1131.44 1883.3 L1125.01 1883.3 L1125.01 1835.78 L1139.52 1835.78 Q1147.67 1835.78 1151.68 1839.19 Q1155.69 1842.59 1155.69 1849.47 Q1155.69 1853.96 1153.59 1856.92 Q1151.52 1859.88 1147.54 1861.02 M1131.44 1841.06 L1131.44 1857.93 L1139.52 1857.93 Q1144.17 1857.93 1146.53 1855.8 Q1148.91 1853.64 1148.91 1849.47 Q1148.91 1845.3 1146.53 1843.2 Q1144.17 1841.06 1139.52 1841.06 L1131.44 1841.06 Z" fill="#000000" fill-rule="nonzero" fill-opacity="1" /><path clip-path="url(#clip760)" d="M1197.61 1864.01 L1197.61 1866.88 L1170.68 1866.88 Q1171.07 1872.92 1174.31 1876.11 Q1177.59 1879.26 1183.41 1879.26 Q1186.79 1879.26 1189.94 1878.43 Q1193.12 1877.6 1196.24 1875.95 L1196.24 1881.49 Q1193.09 1882.82 1189.78 1883.52 Q1186.47 1884.22 1183.06 1884.22 Q1174.53 1884.22 1169.54 1879.26 Q1164.57 1874.29 1164.57 1865.83 Q1164.57 1857.07 1169.28 1851.95 Q1174.03 1846.79 1182.05 1846.79 Q1189.24 1846.79 1193.41 1851.44 Q1197.61 1856.06 1197.61 1864.01 M1191.75 1862.29 Q1191.69 1857.49 1189.05 1854.62 Q1186.44 1851.76 1182.11 1851.76 Q1177.21 1851.76 1174.25 1854.53 Q1171.32 1857.3 1170.87 1862.33 L1191.75 1862.29 Z" fill="#000000" fill-rule="nonzero" fill-opacity="1" /><path clip-path="url(#clip760)" d="M1229.95 1848.7 L1229.95 1854.24 Q1227.47 1852.97 1224.79 1852.33 Q1222.12 1851.7 1219.25 1851.7 Q1214.89 1851.7 1212.7 1853.03 Q1210.53 1854.37 1210.53 1857.04 Q1210.53 1859.08 1212.09 1860.26 Q1213.65 1861.4 1218.36 1862.45 L1220.37 1862.9 Q1226.61 1864.24 1229.22 1866.69 Q1231.86 1869.11 1231.86 1873.47 Q1231.86 1878.43 1227.91 1881.33 Q1224 1884.22 1217.12 1884.22 Q1214.26 1884.22 1211.14 1883.65 Q1208.05 1883.11 1204.61 1882 L1204.61 1875.95 Q1207.86 1877.64 1211.01 1878.49 Q1214.16 1879.32 1217.25 1879.32 Q1221.39 1879.32 1223.61 1877.92 Q1225.84 1876.49 1225.84 1873.91 Q1225.84 1871.52 1224.22 1870.25 Q1222.63 1868.98 1217.18 1867.8 L1215.15 1867.32 Q1209.71 1866.18 1207.29 1863.82 Q1204.87 1861.43 1204.87 1857.3 Q1204.87 1852.27 1208.43 1849.53 Q1212 1846.79 1218.55 1846.79 Q1221.8 1846.79 1224.66 1847.27 Q1227.53 1847.75 1229.95 1848.7 Z" fill="#000000" fill-rule="nonzero" fill-opacity="1" /><path clip-path="url(#clip760)" d="M1255 1851.76 Q1250.29 1851.76 1247.55 1855.45 Q1244.81 1859.11 1244.81 1865.51 Q1244.81 1871.91 1247.52 1875.6 Q1250.25 1879.26 1255 1879.26 Q1259.68 1879.26 1262.41 1875.57 Q1265.15 1871.87 1265.15 1865.51 Q1265.15 1859.17 1262.41 1855.48 Q1259.68 1851.76 1255 1851.76 M1255 1846.79 Q1262.64 1846.79 1267 1851.76 Q1271.36 1856.72 1271.36 1865.51 Q1271.36 1874.26 1267 1879.26 Q1262.64 1884.22 1255 1884.22 Q1247.33 1884.22 1242.97 1879.26 Q1238.64 1874.26 1238.64 1865.51 Q1238.64 1856.72 1242.97 1851.76 Q1247.33 1846.79 1255 1846.79 Z" fill="#000000" fill-rule="nonzero" fill-opacity="1" /><path clip-path="url(#clip760)" d="M1280.46 1869.23 L1280.46 1847.65 L1286.32 1847.65 L1286.32 1869.01 Q1286.32 1874.07 1288.29 1876.62 Q1290.26 1879.13 1294.21 1879.13 Q1298.95 1879.13 1301.69 1876.11 Q1304.46 1873.08 1304.46 1867.86 L1304.46 1847.65 L1310.32 1847.65 L1310.32 1883.3 L1304.46 1883.3 L1304.46 1877.83 Q1302.33 1881.07 1299.49 1882.66 Q1296.69 1884.22 1292.97 1884.22 Q1286.83 1884.22 1283.64 1880.4 Q1280.46 1876.59 1280.46 1869.23 M1295.2 1846.79 L1295.2 1846.79 Z" fill="#000000" fill-rule="nonzero" fill-opacity="1" /><path clip-path="url(#clip760)" d="M1343.03 1853.13 Q1342.05 1852.55 1340.87 1852.3 Q1339.72 1852.01 1338.32 1852.01 Q1333.36 1852.01 1330.69 1855.26 Q1328.04 1858.47 1328.04 1864.52 L1328.04 1883.3 L1322.16 1883.3 L1322.16 1847.65 L1328.04 1847.65 L1328.04 1853.19 Q1329.89 1849.94 1332.85 1848.39 Q1335.81 1846.79 1340.04 1846.79 Q1340.65 1846.79 1341.38 1846.89 Q1342.11 1846.95 1343 1847.11 L1343.03 1853.13 Z" fill="#000000" fill-rule="nonzero" fill-opacity="1" /><path clip-path="url(#clip760)" d="M1373.4 1849.02 L1373.4 1854.5 Q1370.92 1853.13 1368.4 1852.46 Q1365.92 1851.76 1363.37 1851.76 Q1357.68 1851.76 1354.53 1855.39 Q1351.37 1858.98 1351.37 1865.51 Q1351.37 1872.03 1354.53 1875.66 Q1357.68 1879.26 1363.37 1879.26 Q1365.92 1879.26 1368.4 1878.59 Q1370.92 1877.89 1373.4 1876.52 L1373.4 1881.93 Q1370.95 1883.08 1368.31 1883.65 Q1365.7 1884.22 1362.74 1884.22 Q1354.68 1884.22 1349.94 1879.16 Q1345.2 1874.1 1345.2 1865.51 Q1345.2 1856.79 1349.97 1851.79 Q1354.78 1846.79 1363.12 1846.79 Q1365.82 1846.79 1368.4 1847.37 Q1370.98 1847.91 1373.4 1849.02 Z" fill="#000000" fill-rule="nonzero" fill-opacity="1" /><path clip-path="url(#clip760)" d="M1414.08 1864.01 L1414.08 1866.88 L1387.15 1866.88 Q1387.53 1872.92 1390.78 1876.11 Q1394.06 1879.26 1399.88 1879.26 Q1403.25 1879.26 1406.41 1878.43 Q1409.59 1877.6 1412.71 1875.95 L1412.71 1881.49 Q1409.56 1882.82 1406.25 1883.52 Q1402.94 1884.22 1399.53 1884.22 Q1391 1884.22 1386 1879.26 Q1381.04 1874.29 1381.04 1865.83 Q1381.04 1857.07 1385.75 1851.95 Q1390.49 1846.79 1398.51 1846.79 Q1405.71 1846.79 1409.87 1851.44 Q1414.08 1856.06 1414.08 1864.01 M1408.22 1862.29 Q1408.16 1857.49 1405.51 1854.62 Q1402.9 1851.76 1398.58 1851.76 Q1393.67 1851.76 1390.71 1854.53 Q1387.79 1857.3 1387.34 1862.33 L1408.22 1862.29 Z" fill="#000000" fill-rule="nonzero" fill-opacity="1" /><path clip-path="url(#clip760)" d="M1467.87 1853.06 L1467.87 1833.78 L1473.72 1833.78 L1473.72 1883.3 L1467.87 1883.3 L1467.87 1877.95 Q1466.02 1881.14 1463.19 1882.7 Q1460.39 1884.22 1456.44 1884.22 Q1449.98 1884.22 1445.9 1879.07 Q1441.86 1873.91 1441.86 1865.51 Q1441.86 1857.11 1445.9 1851.95 Q1449.98 1846.79 1456.44 1846.79 Q1460.39 1846.79 1463.19 1848.35 Q1466.02 1849.88 1467.87 1853.06 M1447.91 1865.51 Q1447.91 1871.97 1450.55 1875.66 Q1453.23 1879.32 1457.87 1879.32 Q1462.52 1879.32 1465.19 1875.66 Q1467.87 1871.97 1467.87 1865.51 Q1467.87 1859.05 1465.19 1855.39 Q1462.52 1851.7 1457.87 1851.7 Q1453.23 1851.7 1450.55 1855.39 Q1447.91 1859.05 1447.91 1865.51 Z" fill="#000000" fill-rule="nonzero" fill-opacity="1" /><path clip-path="url(#clip760)" d="M1516.28 1864.01 L1516.28 1866.88 L1489.35 1866.88 Q1489.73 1872.92 1492.98 1876.11 Q1496.26 1879.26 1502.08 1879.26 Q1505.46 1879.26 1508.61 1878.43 Q1511.79 1877.6 1514.91 1875.95 L1514.91 1881.49 Q1511.76 1882.82 1508.45 1883.52 Q1505.14 1884.22 1501.73 1884.22 Q1493.2 1884.22 1488.2 1879.26 Q1483.24 1874.29 1483.24 1865.83 Q1483.24 1857.07 1487.95 1851.95 Q1492.69 1846.79 1500.71 1846.79 Q1507.91 1846.79 1512.08 1851.44 Q1516.28 1856.06 1516.28 1864.01 M1510.42 1862.29 Q1510.36 1857.49 1507.72 1854.62 Q1505.11 1851.76 1500.78 1851.76 Q1495.88 1851.76 1492.92 1854.53 Q1489.99 1857.3 1489.54 1862.33 L1510.42 1862.29 Z" fill="#000000" fill-rule="nonzero" fill-opacity="1" /><path clip-path="url(#clip760)" d="M1555.52 1861.78 L1555.52 1883.3 L1549.67 1883.3 L1549.67 1861.98 Q1549.67 1856.92 1547.69 1854.4 Q1545.72 1851.89 1541.77 1851.89 Q1537.03 1851.89 1534.29 1854.91 Q1531.56 1857.93 1531.56 1863.15 L1531.56 1883.3 L1525.67 1883.3 L1525.67 1847.65 L1531.56 1847.65 L1531.56 1853.19 Q1533.66 1849.98 1536.49 1848.39 Q1539.35 1846.79 1543.08 1846.79 Q1549.22 1846.79 1552.37 1850.61 Q1555.52 1854.4 1555.52 1861.78 Z" fill="#000000" fill-rule="nonzero" fill-opacity="1" /><path clip-path="url(#clip760)" d="M1589.93 1848.7 L1589.93 1854.24 Q1587.45 1852.97 1584.77 1852.33 Q1582.1 1851.7 1579.23 1851.7 Q1574.87 1851.7 1572.68 1853.03 Q1570.51 1854.37 1570.51 1857.04 Q1570.51 1859.08 1572.07 1860.26 Q1573.63 1861.4 1578.34 1862.45 L1580.35 1862.9 Q1586.59 1864.24 1589.2 1866.69 Q1591.84 1869.11 1591.84 1873.47 Q1591.84 1878.43 1587.89 1881.33 Q1583.98 1884.22 1577.1 1884.22 Q1574.24 1884.22 1571.12 1883.65 Q1568.03 1883.11 1564.59 1882 L1564.59 1875.95 Q1567.84 1877.64 1570.99 1878.49 Q1574.14 1879.32 1577.23 1879.32 Q1581.37 1879.32 1583.59 1877.92 Q1585.82 1876.49 1585.82 1873.91 Q1585.82 1871.52 1584.2 1870.25 Q1582.61 1868.98 1577.17 1867.8 L1575.13 1867.32 Q1569.69 1866.18 1567.27 1863.82 Q1564.85 1861.43 1564.85 1857.3 Q1564.85 1852.27 1568.41 1849.53 Q1571.98 1846.79 1578.53 1846.79 Q1581.78 1846.79 1584.65 1847.27 Q1587.51 1847.75 1589.93 1848.7 Z" fill="#000000" fill-rule="nonzero" fill-opacity="1" /><path clip-path="url(#clip760)" d="M1601.16 1847.65 L1607.02 1847.65 L1607.02 1883.3 L1601.16 1883.3 L1601.16 1847.65 M1601.16 1833.78 L1607.02 1833.78 L1607.02 1841.19 L1601.16 1841.19 L1601.16 1833.78 Z" fill="#000000" fill-rule="nonzero" fill-opacity="1" /><path clip-path="url(#clip760)" d="M1625.07 1837.53 L1625.07 1847.65 L1637.13 1847.65 L1637.13 1852.2 L1625.07 1852.2 L1625.07 1871.56 Q1625.07 1875.92 1626.25 1877.16 Q1627.45 1878.4 1631.11 1878.4 L1637.13 1878.4 L1637.13 1883.3 L1631.11 1883.3 Q1624.34 1883.3 1621.76 1880.79 Q1619.18 1878.24 1619.18 1871.56 L1619.18 1852.2 L1614.88 1852.2 L1614.88 1847.65 L1619.18 1847.65 L1619.18 1837.53 L1625.07 1837.53 Z" fill="#000000" fill-rule="nonzero" fill-opacity="1" /><path clip-path="url(#clip760)" d="M1659.67 1886.61 Q1657.18 1892.98 1654.83 1894.92 Q1652.47 1896.86 1648.53 1896.86 L1643.85 1896.86 L1643.85 1891.96 L1647.28 1891.96 Q1649.7 1891.96 1651.04 1890.81 Q1652.38 1889.67 1654 1885.4 L1655.05 1882.73 L1640.63 1847.65 L1646.84 1847.65 L1657.98 1875.53 L1669.12 1847.65 L1675.32 1847.65 L1659.67 1886.61 Z" fill="#000000" fill-rule="nonzero" fill-opacity="1" /><path clip-path="url(#clip760)" d="M1726.92 1861.02 Q1728.99 1861.72 1730.93 1864.01 Q1732.9 1866.3 1734.88 1870.31 L1741.4 1883.3 L1734.49 1883.3 L1728.41 1871.11 Q1726.06 1866.34 1723.83 1864.78 Q1721.64 1863.22 1717.82 1863.22 L1710.81 1863.22 L1710.81 1883.3 L1704.38 1883.3 L1704.38 1835.78 L1718.9 1835.78 Q1727.05 1835.78 1731.06 1839.19 Q1735.07 1842.59 1735.07 1849.47 Q1735.07 1853.96 1732.97 1856.92 Q1730.9 1859.88 1726.92 1861.02 M1710.81 1841.06 L1710.81 1857.93 L1718.9 1857.93 Q1723.55 1857.93 1725.9 1855.8 Q1728.29 1853.64 1728.29 1849.47 Q1728.29 1845.3 1725.9 1843.2 Q1723.55 1841.06 1718.9 1841.06 L1710.81 1841.06 Z" fill="#000000" fill-rule="nonzero" fill-opacity="1" /><polyline clip-path="url(#clip760)" style="stroke:#000000; stroke-linecap:round; stroke-linejoin:round; stroke-width:4; stroke-opacity:1; fill:none" points="225.654,1734.12 225.654,127.792 "/>
<polyline clip-path="url(#clip760)" style="stroke:#000000; stroke-linecap:round; stroke-linejoin:round; stroke-width:4; stroke-opacity:1; fill:none" points="225.654,1688.65 244.552,1688.65 "/>
<polyline clip-path="url(#clip760)" style="stroke:#000000; stroke-linecap:round; stroke-linejoin:round; stroke-width:4; stroke-opacity:1; fill:none" points="225.654,1309.8 244.552,1309.8 "/>
<polyline clip-path="url(#clip760)" style="stroke:#000000; stroke-linecap:round; stroke-linejoin:round; stroke-width:4; stroke-opacity:1; fill:none" points="225.654,930.955 244.552,930.955 "/>
<polyline clip-path="url(#clip760)" style="stroke:#000000; stroke-linecap:round; stroke-linejoin:round; stroke-width:4; stroke-opacity:1; fill:none" points="225.654,552.104 244.552,552.104 "/>
<polyline clip-path="url(#clip760)" style="stroke:#000000; stroke-linecap:round; stroke-linejoin:round; stroke-width:4; stroke-opacity:1; fill:none" points="225.654,173.254 244.552,173.254 "/>
<path clip-path="url(#clip760)" d="M128.159 1674.45 Q124.548 1674.45 122.719 1678.02 Q120.913 1681.56 120.913 1688.69 Q120.913 1695.8 122.719 1699.36 Q124.548 1702.9 128.159 1702.9 Q131.793 1702.9 133.599 1699.36 Q135.427 1695.8 135.427 1688.69 Q135.427 1681.56 133.599 1678.02 Q131.793 1674.45 128.159 1674.45 M128.159 1670.75 Q133.969 1670.75 137.025 1675.36 Q140.103 1679.94 140.103 1688.69 Q140.103 1697.42 137.025 1702.02 Q133.969 1706.61 128.159 1706.61 Q122.349 1706.61 119.27 1702.02 Q116.214 1697.42 116.214 1688.69 Q116.214 1679.94 119.27 1675.36 Q122.349 1670.75 128.159 1670.75 Z" fill="#000000" fill-rule="nonzero" fill-opacity="1" /><path clip-path="url(#clip760)" d="M148.321 1700.06 L153.205 1700.06 L153.205 1705.93 L148.321 1705.93 L148.321 1700.06 Z" fill="#000000" fill-rule="nonzero" fill-opacity="1" /><path clip-path="url(#clip760)" d="M173.39 1674.45 Q169.779 1674.45 167.95 1678.02 Q166.145 1681.56 166.145 1688.69 Q166.145 1695.8 167.95 1699.36 Q169.779 1702.9 173.39 1702.9 Q177.024 1702.9 178.83 1699.36 Q180.659 1695.8 180.659 1688.69 Q180.659 1681.56 178.83 1678.02 Q177.024 1674.45 173.39 1674.45 M173.39 1670.75 Q179.2 1670.75 182.256 1675.36 Q185.334 1679.94 185.334 1688.69 Q185.334 1697.42 182.256 1702.02 Q179.2 1706.61 173.39 1706.61 Q167.58 1706.61 164.501 1702.02 Q161.446 1697.42 161.446 1688.69 Q161.446 1679.94 164.501 1675.36 Q167.58 1670.75 173.39 1670.75 Z" fill="#000000" fill-rule="nonzero" fill-opacity="1" /><path clip-path="url(#clip760)" d="M129.154 1295.6 Q125.543 1295.6 123.714 1299.17 Q121.909 1302.71 121.909 1309.84 Q121.909 1316.95 123.714 1320.51 Q125.543 1324.05 129.154 1324.05 Q132.788 1324.05 134.594 1320.51 Q136.423 1316.95 136.423 1309.84 Q136.423 1302.71 134.594 1299.17 Q132.788 1295.6 129.154 1295.6 M129.154 1291.9 Q134.964 1291.9 138.02 1296.51 Q141.099 1301.09 141.099 1309.84 Q141.099 1318.57 138.02 1323.17 Q134.964 1327.76 129.154 1327.76 Q123.344 1327.76 120.265 1323.17 Q117.21 1318.57 117.21 1309.84 Q117.21 1301.09 120.265 1296.51 Q123.344 1291.9 129.154 1291.9 Z" fill="#000000" fill-rule="nonzero" fill-opacity="1" /><path clip-path="url(#clip760)" d="M149.316 1321.21 L154.2 1321.21 L154.2 1327.08 L149.316 1327.08 L149.316 1321.21 Z" fill="#000000" fill-rule="nonzero" fill-opacity="1" /><path clip-path="url(#clip760)" d="M164.432 1292.52 L182.788 1292.52 L182.788 1296.46 L168.714 1296.46 L168.714 1304.93 Q169.733 1304.58 170.751 1304.42 Q171.77 1304.24 172.788 1304.24 Q178.575 1304.24 181.955 1307.41 Q185.334 1310.58 185.334 1316 Q185.334 1321.58 181.862 1324.68 Q178.39 1327.76 172.071 1327.76 Q169.895 1327.76 167.626 1327.39 Q165.381 1327.02 162.973 1326.27 L162.973 1321.58 Q165.057 1322.71 167.279 1323.27 Q169.501 1323.82 171.978 1323.82 Q175.983 1323.82 178.321 1321.71 Q180.659 1319.61 180.659 1316 Q180.659 1312.39 178.321 1310.28 Q175.983 1308.17 171.978 1308.17 Q170.103 1308.17 168.228 1308.59 Q166.376 1309.01 164.432 1309.89 L164.432 1292.52 Z" fill="#000000" fill-rule="nonzero" fill-opacity="1" /><path clip-path="url(#clip760)" d="M118.969 944.299 L126.608 944.299 L126.608 917.934 L118.298 919.6 L118.298 915.341 L126.562 913.675 L131.238 913.675 L131.238 944.299 L138.876 944.299 L138.876 948.235 L118.969 948.235 L118.969 944.299 Z" fill="#000000" fill-rule="nonzero" fill-opacity="1" /><path clip-path="url(#clip760)" d="M148.321 942.355 L153.205 942.355 L153.205 948.235 L148.321 948.235 L148.321 942.355 Z" fill="#000000" fill-rule="nonzero" fill-opacity="1" /><path clip-path="url(#clip760)" d="M173.39 916.753 Q169.779 916.753 167.95 920.318 Q166.145 923.86 166.145 930.989 Q166.145 938.096 167.95 941.661 Q169.779 945.202 173.39 945.202 Q177.024 945.202 178.83 941.661 Q180.659 938.096 180.659 930.989 Q180.659 923.86 178.83 920.318 Q177.024 916.753 173.39 916.753 M173.39 913.05 Q179.2 913.05 182.256 917.656 Q185.334 922.239 185.334 930.989 Q185.334 939.716 182.256 944.323 Q179.2 948.906 173.39 948.906 Q167.58 948.906 164.501 944.323 Q161.446 939.716 161.446 930.989 Q161.446 922.239 164.501 917.656 Q167.58 913.05 173.39 913.05 Z" fill="#000000" fill-rule="nonzero" fill-opacity="1" /><path clip-path="url(#clip760)" d="M119.964 565.449 L127.603 565.449 L127.603 539.084 L119.293 540.75 L119.293 536.491 L127.557 534.824 L132.233 534.824 L132.233 565.449 L139.872 565.449 L139.872 569.384 L119.964 569.384 L119.964 565.449 Z" fill="#000000" fill-rule="nonzero" fill-opacity="1" /><path clip-path="url(#clip760)" d="M149.316 563.505 L154.2 563.505 L154.2 569.384 L149.316 569.384 L149.316 563.505 Z" fill="#000000" fill-rule="nonzero" fill-opacity="1" /><path clip-path="url(#clip760)" d="M164.432 534.824 L182.788 534.824 L182.788 538.76 L168.714 538.76 L168.714 547.232 Q169.733 546.884 170.751 546.722 Q171.77 546.537 172.788 546.537 Q178.575 546.537 181.955 549.709 Q185.334 552.88 185.334 558.296 Q185.334 563.875 181.862 566.977 Q178.39 570.056 172.071 570.056 Q169.895 570.056 167.626 569.685 Q165.381 569.315 162.973 568.574 L162.973 563.875 Q165.057 565.009 167.279 565.565 Q169.501 566.12 171.978 566.12 Q175.983 566.12 178.321 564.014 Q180.659 561.908 180.659 558.296 Q180.659 554.685 178.321 552.579 Q175.983 550.472 171.978 550.472 Q170.103 550.472 168.228 550.889 Q166.376 551.306 164.432 552.185 L164.432 534.824 Z" fill="#000000" fill-rule="nonzero" fill-opacity="1" /><path clip-path="url(#clip760)" d="M122.187 186.599 L138.506 186.599 L138.506 190.534 L116.562 190.534 L116.562 186.599 Q119.224 183.844 123.807 179.215 Q128.413 174.562 129.594 173.219 Q131.839 170.696 132.719 168.96 Q133.622 167.201 133.622 165.511 Q133.622 162.757 131.677 161.02 Q129.756 159.284 126.654 159.284 Q124.455 159.284 122.001 160.048 Q119.571 160.812 116.793 162.363 L116.793 157.641 Q119.617 156.507 122.071 155.928 Q124.525 155.349 126.562 155.349 Q131.932 155.349 135.126 158.034 Q138.321 160.719 138.321 165.21 Q138.321 167.34 137.511 169.261 Q136.724 171.159 134.617 173.752 Q134.038 174.423 130.937 177.641 Q127.835 180.835 122.187 186.599 Z" fill="#000000" fill-rule="nonzero" fill-opacity="1" /><path clip-path="url(#clip760)" d="M148.321 184.655 L153.205 184.655 L153.205 190.534 L148.321 190.534 L148.321 184.655 Z" fill="#000000" fill-rule="nonzero" fill-opacity="1" /><path clip-path="url(#clip760)" d="M173.39 159.053 Q169.779 159.053 167.95 162.618 Q166.145 166.159 166.145 173.289 Q166.145 180.395 167.95 183.96 Q169.779 187.502 173.39 187.502 Q177.024 187.502 178.83 183.96 Q180.659 180.395 180.659 173.289 Q180.659 166.159 178.83 162.618 Q177.024 159.053 173.39 159.053 M173.39 155.349 Q179.2 155.349 182.256 159.956 Q185.334 164.539 185.334 173.289 Q185.334 182.016 182.256 186.622 Q179.2 191.205 173.39 191.205 Q167.58 191.205 164.501 186.622 Q161.446 182.016 161.446 173.289 Q161.446 164.539 164.501 159.956 Q167.58 155.349 173.39 155.349 Z" fill="#000000" fill-rule="nonzero" fill-opacity="1" /><path clip-path="url(#clip760)" d="M19.402 1371.83 L37.2578 1371.83 L37.2578 1363.74 Q37.2578 1359.26 34.9343 1356.8 Q32.6108 1354.35 28.314 1354.35 Q24.0489 1354.35 21.7255 1356.8 Q19.402 1359.26 19.402 1363.74 L19.402 1371.83 M14.1184 1378.26 L14.1184 1363.74 Q14.1184 1355.75 17.7469 1351.68 Q21.3435 1347.57 28.314 1347.57 Q35.3481 1347.57 38.9447 1351.68 Q42.5413 1355.75 42.5413 1363.74 L42.5413 1371.83 L61.6384 1371.83 L61.6384 1378.26 L14.1184 1378.26 Z" fill="#000000" fill-rule="nonzero" fill-opacity="1" /><path clip-path="url(#clip760)" d="M42.3504 1311.03 L45.2149 1311.03 L45.2149 1337.96 Q51.2623 1337.58 54.4452 1334.33 Q57.5962 1331.06 57.5962 1325.23 Q57.5962 1321.86 56.7687 1318.71 Q55.9411 1315.52 54.2861 1312.4 L59.8242 1312.4 Q61.161 1315.55 61.8612 1318.86 Q62.5615 1322.17 62.5615 1325.58 Q62.5615 1334.11 57.5962 1339.11 Q52.631 1344.07 44.1646 1344.07 Q35.4117 1344.07 30.2873 1339.36 Q25.1311 1334.62 25.1311 1326.6 Q25.1311 1319.41 29.7781 1315.24 Q34.3932 1311.03 42.3504 1311.03 M40.6316 1316.89 Q35.8255 1316.96 32.9609 1319.6 Q30.0964 1322.21 30.0964 1326.54 Q30.0964 1331.44 32.8654 1334.4 Q35.6345 1337.33 40.6634 1337.77 L40.6316 1316.89 Z" fill="#000000" fill-rule="nonzero" fill-opacity="1" /><path clip-path="url(#clip760)" d="M31.465 1280.77 Q30.8921 1281.75 30.6375 1282.93 Q30.351 1284.08 30.351 1285.48 Q30.351 1290.44 33.5975 1293.12 Q36.8122 1295.76 42.8596 1295.76 L61.6384 1295.76 L61.6384 1301.65 L25.9905 1301.65 L25.9905 1295.76 L31.5287 1295.76 Q28.2821 1293.91 26.7225 1290.95 Q25.1311 1287.99 25.1311 1283.76 Q25.1311 1283.15 25.2266 1282.42 Q25.2903 1281.69 25.4494 1280.8 L31.465 1280.77 Z" fill="#000000" fill-rule="nonzero" fill-opacity="1" /><path clip-path="url(#clip760)" d="M41.1727 1281.75 L41.1727 1264.6 L46.3926 1264.6 L46.3926 1281.75 L41.1727 1281.75 Z" fill="#000000" fill-rule="nonzero" fill-opacity="1" /><path clip-path="url(#clip760)" d="M27.3591 1229.62 L32.8336 1229.62 Q31.465 1232.1 30.7966 1234.61 Q30.0964 1237.1 30.0964 1239.64 Q30.0964 1245.34 33.7248 1248.49 Q37.3214 1251.64 43.8463 1251.64 Q50.3711 1251.64 53.9996 1248.49 Q57.5962 1245.34 57.5962 1239.64 Q57.5962 1237.1 56.9278 1234.61 Q56.2276 1232.1 54.859 1229.62 L60.2698 1229.62 Q61.4156 1232.07 61.9886 1234.71 Q62.5615 1237.32 62.5615 1240.28 Q62.5615 1248.33 57.5007 1253.08 Q52.44 1257.82 43.8463 1257.82 Q35.1253 1257.82 30.1282 1253.04 Q25.1311 1248.24 25.1311 1239.9 Q25.1311 1237.19 25.704 1234.61 Q26.2451 1232.04 27.3591 1229.62 Z" fill="#000000" fill-rule="nonzero" fill-opacity="1" /><path clip-path="url(#clip760)" d="M43.719 1203.23 Q43.719 1210.33 45.3422 1213.07 Q46.9655 1215.8 50.8804 1215.8 Q53.9996 1215.8 55.8457 1213.77 Q57.6599 1211.7 57.6599 1208.17 Q57.6599 1203.3 54.2224 1200.37 Q50.7531 1197.41 45.0239 1197.41 L43.719 1197.41 L43.719 1203.23 M41.3 1191.55 L61.6384 1191.55 L61.6384 1197.41 L56.2276 1197.41 Q59.4741 1199.41 61.0337 1202.4 Q62.5615 1205.4 62.5615 1209.72 Q62.5615 1215.2 59.5059 1218.45 Q56.4186 1221.66 51.2623 1221.66 Q45.2467 1221.66 42.1912 1217.65 Q39.1357 1213.61 39.1357 1205.62 L39.1357 1197.41 L38.5628 1197.41 Q34.5205 1197.41 32.3244 1200.08 Q30.0964 1202.72 30.0964 1207.53 Q30.0964 1210.58 30.8284 1213.48 Q31.5605 1216.38 33.0246 1219.05 L27.6137 1219.05 Q26.3724 1215.84 25.7677 1212.81 Q25.1311 1209.79 25.1311 1206.92 Q25.1311 1199.19 29.1415 1195.37 Q33.1519 1191.55 41.3 1191.55 Z" fill="#000000" fill-rule="nonzero" fill-opacity="1" /><path clip-path="url(#clip760)" d="M56.2912 1173.82 L75.1974 1173.82 L75.1974 1179.71 L25.9905 1179.71 L25.9905 1173.82 L31.4013 1173.82 Q28.2185 1171.98 26.6907 1169.18 Q25.1311 1166.34 25.1311 1162.43 Q25.1311 1155.93 30.2873 1151.89 Q35.4436 1147.82 43.8463 1147.82 Q52.249 1147.82 57.4052 1151.89 Q62.5615 1155.93 62.5615 1162.43 Q62.5615 1166.34 61.0337 1169.18 Q59.4741 1171.98 56.2912 1173.82 M43.8463 1153.9 Q37.3851 1153.9 33.7248 1156.57 Q30.0327 1159.21 30.0327 1163.86 Q30.0327 1168.51 33.7248 1171.18 Q37.3851 1173.82 43.8463 1173.82 Q50.3075 1173.82 53.9996 1171.18 Q57.6599 1168.51 57.6599 1163.86 Q57.6599 1159.21 53.9996 1156.57 Q50.3075 1153.9 43.8463 1153.9 Z" fill="#000000" fill-rule="nonzero" fill-opacity="1" /><path clip-path="url(#clip760)" d="M25.9905 1138.11 L25.9905 1132.25 L61.6384 1132.25 L61.6384 1138.11 L25.9905 1138.11 M12.1132 1138.11 L12.1132 1132.25 L19.5293 1132.25 L19.5293 1138.11 L12.1132 1138.11 Z" fill="#000000" fill-rule="nonzero" fill-opacity="1" /><path clip-path="url(#clip760)" d="M15.869 1114.21 L25.9905 1114.21 L25.9905 1102.14 L30.542 1102.14 L30.542 1114.21 L49.8937 1114.21 Q54.2542 1114.21 55.4955 1113.03 Q56.7368 1111.82 56.7368 1108.16 L56.7368 1102.14 L61.6384 1102.14 L61.6384 1108.16 Q61.6384 1114.94 59.124 1117.52 Q56.5777 1120.1 49.8937 1120.1 L30.542 1120.1 L30.542 1124.39 L25.9905 1124.39 L25.9905 1120.1 L15.869 1120.1 L15.869 1114.21 Z" fill="#000000" fill-rule="nonzero" fill-opacity="1" /><path clip-path="url(#clip760)" d="M43.719 1078.24 Q43.719 1085.34 45.3422 1088.08 Q46.9655 1090.81 50.8804 1090.81 Q53.9996 1090.81 55.8457 1088.78 Q57.6599 1086.71 57.6599 1083.17 Q57.6599 1078.3 54.2224 1075.38 Q50.7531 1072.42 45.0239 1072.42 L43.719 1072.42 L43.719 1078.24 M41.3 1066.56 L61.6384 1066.56 L61.6384 1072.42 L56.2276 1072.42 Q59.4741 1074.42 61.0337 1077.41 Q62.5615 1080.41 62.5615 1084.73 Q62.5615 1090.21 59.5059 1093.46 Q56.4186 1096.67 51.2623 1096.67 Q45.2467 1096.67 42.1912 1092.66 Q39.1357 1088.62 39.1357 1080.63 L39.1357 1072.42 L38.5628 1072.42 Q34.5205 1072.42 32.3244 1075.09 Q30.0964 1077.73 30.0964 1082.54 Q30.0964 1085.59 30.8284 1088.49 Q31.5605 1091.39 33.0246 1094.06 L27.6137 1094.06 Q26.3724 1090.85 25.7677 1087.82 Q25.1311 1084.8 25.1311 1081.93 Q25.1311 1074.2 29.1415 1070.38 Q33.1519 1066.56 41.3 1066.56 Z" fill="#000000" fill-rule="nonzero" fill-opacity="1" /><path clip-path="url(#clip760)" d="M27.3591 1008.12 L32.8336 1008.12 Q31.465 1010.61 30.7966 1013.12 Q30.0964 1015.6 30.0964 1018.15 Q30.0964 1023.85 33.7248 1027 Q37.3214 1030.15 43.8463 1030.15 Q50.3711 1030.15 53.9996 1027 Q57.5962 1023.85 57.5962 1018.15 Q57.5962 1015.6 56.9278 1013.12 Q56.2276 1010.61 54.859 1008.12 L60.2698 1008.12 Q61.4156 1010.57 61.9886 1013.22 Q62.5615 1015.83 62.5615 1018.79 Q62.5615 1026.84 57.5007 1031.58 Q52.44 1036.32 43.8463 1036.32 Q35.1253 1036.32 30.1282 1031.55 Q25.1311 1026.74 25.1311 1018.4 Q25.1311 1015.7 25.704 1013.12 Q26.2451 1010.54 27.3591 1008.12 Z" fill="#000000" fill-rule="nonzero" fill-opacity="1" /><path clip-path="url(#clip760)" d="M30.0964 984.124 Q30.0964 988.835 33.7885 991.572 Q37.4488 994.309 43.8463 994.309 Q50.2438 994.309 53.9359 991.604 Q57.5962 988.867 57.5962 984.124 Q57.5962 979.445 53.9041 976.708 Q50.212 973.971 43.8463 973.971 Q37.5124 973.971 33.8203 976.708 Q30.0964 979.445 30.0964 984.124 M25.1311 984.124 Q25.1311 976.485 30.0964 972.125 Q35.0616 967.764 43.8463 967.764 Q52.5991 967.764 57.5962 972.125 Q62.5615 976.485 62.5615 984.124 Q62.5615 991.795 57.5962 996.155 Q52.5991 1000.48 43.8463 1000.48 Q35.0616 1000.48 30.0964 996.155 Q25.1311 991.795 25.1311 984.124 Z" fill="#000000" fill-rule="nonzero" fill-opacity="1" /><path clip-path="url(#clip760)" d="M40.1224 928.424 L61.6384 928.424 L61.6384 934.281 L40.3133 934.281 Q35.2526 934.281 32.7381 936.254 Q30.2237 938.227 30.2237 942.174 Q30.2237 946.917 33.2474 949.654 Q36.2711 952.391 41.491 952.391 L61.6384 952.391 L61.6384 958.279 L25.9905 958.279 L25.9905 952.391 L31.5287 952.391 Q28.314 950.29 26.7225 947.458 Q25.1311 944.593 25.1311 940.869 Q25.1311 934.726 28.9505 931.575 Q32.7381 928.424 40.1224 928.424 Z" fill="#000000" fill-rule="nonzero" fill-opacity="1" /><path clip-path="url(#clip760)" d="M27.0408 894.018 L32.579 894.018 Q31.3059 896.5 30.6693 899.174 Q30.0327 901.847 30.0327 904.712 Q30.0327 909.072 31.3695 911.269 Q32.7063 913.433 35.3799 913.433 Q37.4169 913.433 38.5946 911.873 Q39.7404 910.314 40.7908 905.603 L41.2364 903.598 Q42.5732 897.36 45.0239 894.75 Q47.4429 892.108 51.8034 892.108 Q56.7687 892.108 59.6651 896.055 Q62.5615 899.969 62.5615 906.844 Q62.5615 909.709 61.9886 912.828 Q61.4475 915.916 60.3335 919.353 L54.2861 919.353 Q55.973 916.107 56.8323 912.956 Q57.6599 909.804 57.6599 906.717 Q57.6599 902.579 56.2594 900.351 Q54.8271 898.123 52.249 898.123 Q49.8619 898.123 48.5887 899.747 Q47.3156 901.338 46.1379 906.781 L45.6605 908.818 Q44.5147 914.26 42.1594 916.679 Q39.7722 919.098 35.6345 919.098 Q30.6056 919.098 27.8684 915.534 Q25.1311 911.969 25.1311 905.412 Q25.1311 902.166 25.6085 899.301 Q26.086 896.437 27.0408 894.018 Z" fill="#000000" fill-rule="nonzero" fill-opacity="1" /><path clip-path="url(#clip760)" d="M47.5702 883.387 L25.9905 883.387 L25.9905 877.53 L47.3474 877.53 Q52.4082 877.53 54.9545 875.557 Q57.4689 873.584 57.4689 869.637 Q57.4689 864.894 54.4452 862.157 Q51.4215 859.388 46.2016 859.388 L25.9905 859.388 L25.9905 853.532 L61.6384 853.532 L61.6384 859.388 L56.1639 859.388 Q59.4104 861.521 61.0019 864.353 Q62.5615 867.154 62.5615 870.878 Q62.5615 877.021 58.742 880.204 Q54.9226 883.387 47.5702 883.387 M25.1311 868.65 L25.1311 868.65 Z" fill="#000000" fill-rule="nonzero" fill-opacity="1" /><path clip-path="url(#clip760)" d="M32.8336 813.714 Q28.8869 811.518 27.009 808.462 Q25.1311 805.407 25.1311 801.269 Q25.1311 795.699 29.046 792.675 Q32.9291 789.652 40.1224 789.652 L61.6384 789.652 L61.6384 795.54 L40.3133 795.54 Q35.1889 795.54 32.7063 797.354 Q30.2237 799.169 30.2237 802.892 Q30.2237 807.444 33.2474 810.086 Q36.2711 812.727 41.491 812.727 L61.6384 812.727 L61.6384 818.616 L40.3133 818.616 Q35.1571 818.616 32.7063 820.43 Q30.2237 822.244 30.2237 826.032 Q30.2237 830.52 33.2792 833.161 Q36.3029 835.803 41.491 835.803 L61.6384 835.803 L61.6384 841.691 L25.9905 841.691 L25.9905 835.803 L31.5287 835.803 Q28.2503 833.798 26.6907 830.997 Q25.1311 828.196 25.1311 824.345 Q25.1311 820.462 27.1045 817.756 Q29.0779 815.019 32.8336 813.714 Z" fill="#000000" fill-rule="nonzero" fill-opacity="1" /><path clip-path="url(#clip760)" d="M56.2912 772.305 L75.1974 772.305 L75.1974 778.194 L25.9905 778.194 L25.9905 772.305 L31.4013 772.305 Q28.2185 770.459 26.6907 767.658 Q25.1311 764.826 25.1311 760.911 Q25.1311 754.418 30.2873 750.375 Q35.4436 746.301 43.8463 746.301 Q52.249 746.301 57.4052 750.375 Q62.5615 754.418 62.5615 760.911 Q62.5615 764.826 61.0337 767.658 Q59.4741 770.459 56.2912 772.305 M43.8463 752.381 Q37.3851 752.381 33.7248 755.054 Q30.0327 757.696 30.0327 762.343 Q30.0327 766.99 33.7248 769.663 Q37.3851 772.305 43.8463 772.305 Q50.3075 772.305 53.9996 769.663 Q57.6599 766.99 57.6599 762.343 Q57.6599 757.696 53.9996 755.054 Q50.3075 752.381 43.8463 752.381 Z" fill="#000000" fill-rule="nonzero" fill-opacity="1" /><path clip-path="url(#clip760)" d="M15.869 730.801 L25.9905 730.801 L25.9905 718.738 L30.542 718.738 L30.542 730.801 L49.8937 730.801 Q54.2542 730.801 55.4955 729.623 Q56.7368 728.414 56.7368 724.753 L56.7368 718.738 L61.6384 718.738 L61.6384 724.753 Q61.6384 731.533 59.124 734.111 Q56.5777 736.689 49.8937 736.689 L30.542 736.689 L30.542 740.986 L25.9905 740.986 L25.9905 736.689 L15.869 736.689 L15.869 730.801 Z" fill="#000000" fill-rule="nonzero" fill-opacity="1" /><path clip-path="url(#clip760)" d="M25.9905 711.035 L25.9905 705.179 L61.6384 705.179 L61.6384 711.035 L25.9905 711.035 M12.1132 711.035 L12.1132 705.179 L19.5293 705.179 L19.5293 711.035 L12.1132 711.035 Z" fill="#000000" fill-rule="nonzero" fill-opacity="1" /><path clip-path="url(#clip760)" d="M30.0964 679.111 Q30.0964 683.822 33.7885 686.559 Q37.4488 689.296 43.8463 689.296 Q50.2438 689.296 53.9359 686.591 Q57.5962 683.854 57.5962 679.111 Q57.5962 674.432 53.9041 671.695 Q50.212 668.958 43.8463 668.958 Q37.5124 668.958 33.8203 671.695 Q30.0964 674.432 30.0964 679.111 M25.1311 679.111 Q25.1311 671.472 30.0964 667.112 Q35.0616 662.751 43.8463 662.751 Q52.5991 662.751 57.5962 667.112 Q62.5615 671.472 62.5615 679.111 Q62.5615 686.782 57.5962 691.142 Q52.5991 695.471 43.8463 695.471 Q35.0616 695.471 30.0964 691.142 Q25.1311 686.782 25.1311 679.111 Z" fill="#000000" fill-rule="nonzero" fill-opacity="1" /><path clip-path="url(#clip760)" d="M40.1224 623.411 L61.6384 623.411 L61.6384 629.268 L40.3133 629.268 Q35.2526 629.268 32.7381 631.241 Q30.2237 633.215 30.2237 637.161 Q30.2237 641.904 33.2474 644.641 Q36.2711 647.378 41.491 647.378 L61.6384 647.378 L61.6384 653.267 L25.9905 653.267 L25.9905 647.378 L31.5287 647.378 Q28.314 645.278 26.7225 642.445 Q25.1311 639.58 25.1311 635.856 Q25.1311 629.713 28.9505 626.562 Q32.7381 623.411 40.1224 623.411 Z" fill="#000000" fill-rule="nonzero" fill-opacity="1" /><path clip-path="url(#clip760)" d="M12.1132 572.963 L16.983 572.963 L16.983 578.565 Q16.983 581.716 18.2562 582.957 Q19.5293 584.167 22.8395 584.167 L25.9905 584.167 L25.9905 574.523 L30.542 574.523 L30.542 584.167 L61.6384 584.167 L61.6384 590.055 L30.542 590.055 L30.542 595.657 L25.9905 595.657 L25.9905 590.055 L23.5079 590.055 Q17.5559 590.055 14.8505 587.286 Q12.1132 584.517 12.1132 578.501 L12.1132 572.963 Z" fill="#000000" fill-rule="nonzero" fill-opacity="1" /><path clip-path="url(#clip760)" d="M12.1769 553.993 Q19.4975 558.258 26.6589 560.327 Q33.8203 562.396 41.1727 562.396 Q48.5251 562.396 55.7502 560.327 Q62.9434 558.227 70.2321 553.993 L70.2321 559.086 Q62.7524 563.86 55.5274 566.247 Q48.3023 568.603 41.1727 568.603 Q34.0749 568.603 26.8817 566.247 Q19.6884 563.892 12.1769 559.086 L12.1769 553.993 Z" fill="#000000" fill-rule="nonzero" fill-opacity="1" /><path clip-path="url(#clip760)" d="M39.3585 519.841 Q40.0587 517.772 42.3504 515.831 Q44.642 513.858 48.6524 511.884 L61.6384 505.359 L61.6384 512.266 L49.4481 518.345 Q44.6738 520.701 43.1142 522.929 Q41.5546 525.125 41.5546 528.944 L41.5546 535.947 L61.6384 535.947 L61.6384 542.376 L14.1184 542.376 L14.1184 527.862 Q14.1184 519.714 17.5241 515.704 Q20.9297 511.693 27.8047 511.693 Q32.2925 511.693 35.2526 513.794 Q38.2126 515.863 39.3585 519.841 M19.402 535.947 L36.2711 535.947 L36.2711 527.862 Q36.2711 523.215 34.1386 520.86 Q31.9743 518.473 27.8047 518.473 Q23.6352 518.473 21.5345 520.86 Q19.402 523.215 19.402 527.862 L19.402 535.947 Z" fill="#000000" fill-rule="nonzero" fill-opacity="1" /><path clip-path="url(#clip760)" d="M12.1769 498.262 L12.1769 493.169 Q19.6884 488.395 26.8817 486.039 Q34.0749 483.652 41.1727 483.652 Q48.3023 483.652 55.5274 486.039 Q62.7524 488.395 70.2321 493.169 L70.2321 498.262 Q62.9434 494.028 55.7502 491.96 Q48.5251 489.859 41.1727 489.859 Q33.8203 489.859 26.6589 491.96 Q19.4975 494.028 12.1769 498.262 Z" fill="#000000" fill-rule="nonzero" fill-opacity="1" /><path clip-path="url(#clip760)" d="M591.934 12.096 L643.097 12.096 L643.097 18.9825 L621.627 18.9825 L621.627 72.576 L613.403 72.576 L613.403 18.9825 L591.934 18.9825 L591.934 12.096 Z" fill="#000000" fill-rule="nonzero" fill-opacity="1" /><path clip-path="url(#clip760)" d="M664.769 34.1734 Q663.513 33.4443 662.014 33.1202 Q660.556 32.7556 658.774 32.7556 Q652.454 32.7556 649.051 36.8875 Q645.689 40.9789 645.689 48.6757 L645.689 72.576 L638.195 72.576 L638.195 27.2059 L645.689 27.2059 L645.689 34.2544 Q648.039 30.1225 651.806 28.1376 Q655.573 26.1121 660.961 26.1121 Q661.731 26.1121 662.662 26.2337 Q663.594 26.3147 664.728 26.5172 L664.769 34.1734 Z" fill="#000000" fill-rule="nonzero" fill-opacity="1" /><path clip-path="url(#clip760)" d="M671.817 54.671 L671.817 27.2059 L679.271 27.2059 L679.271 54.3874 Q679.271 60.8284 681.783 64.0691 Q684.294 67.2693 689.317 67.2693 Q695.353 67.2693 698.837 63.421 Q702.361 59.5726 702.361 52.9291 L702.361 27.2059 L709.815 27.2059 L709.815 72.576 L702.361 72.576 L702.361 65.6084 Q699.647 69.7404 696.042 71.7658 Q692.477 73.7508 687.738 73.7508 Q679.919 73.7508 675.868 68.8897 Q671.817 64.0286 671.817 54.671 M690.573 26.1121 L690.573 26.1121 Z" fill="#000000" fill-rule="nonzero" fill-opacity="1" /><path clip-path="url(#clip760)" d="M763.976 48.0275 L763.976 51.6733 L729.705 51.6733 Q730.191 59.3701 734.323 63.421 Q738.495 67.4314 745.909 67.4314 Q750.202 67.4314 754.213 66.3781 Q758.264 65.3249 762.234 63.2184 L762.234 70.267 Q758.223 71.9684 754.01 72.8596 Q749.797 73.7508 745.463 73.7508 Q734.606 73.7508 728.247 67.4314 Q721.927 61.1119 721.927 50.3365 Q721.927 39.1965 727.922 32.6746 Q733.958 26.1121 744.167 26.1121 Q753.322 26.1121 758.628 32.0264 Q763.976 37.9003 763.976 48.0275 M756.522 45.84 Q756.441 39.7232 753.079 36.0774 Q749.757 32.4315 744.248 32.4315 Q738.009 32.4315 734.242 35.9558 Q730.515 39.4801 729.948 45.8805 L756.522 45.84 Z" fill="#000000" fill-rule="nonzero" fill-opacity="1" /><path clip-path="url(#clip760)" d="M825.549 9.54393 L825.549 15.7418 L818.42 15.7418 Q814.409 15.7418 812.829 17.3622 Q811.29 18.9825 811.29 23.1955 L811.29 27.2059 L823.564 27.2059 L823.564 32.9987 L811.29 32.9987 L811.29 72.576 L803.796 72.576 L803.796 32.9987 L796.666 32.9987 L796.666 27.2059 L803.796 27.2059 L803.796 24.0462 Q803.796 16.471 807.32 13.0277 Q810.845 9.54393 818.501 9.54393 L825.549 9.54393 Z" fill="#000000" fill-rule="nonzero" fill-opacity="1" /><path clip-path="url(#clip760)" d="M831.018 54.671 L831.018 27.2059 L838.472 27.2059 L838.472 54.3874 Q838.472 60.8284 840.983 64.0691 Q843.495 67.2693 848.518 67.2693 Q854.554 67.2693 858.038 63.421 Q861.562 59.5726 861.562 52.9291 L861.562 27.2059 L869.015 27.2059 L869.015 72.576 L861.562 72.576 L861.562 65.6084 Q858.848 69.7404 855.242 71.7658 Q851.678 73.7508 846.938 73.7508 Q839.12 73.7508 835.069 68.8897 Q831.018 64.0286 831.018 54.671 M849.774 26.1121 L849.774 26.1121 Z" fill="#000000" fill-rule="nonzero" fill-opacity="1" /><path clip-path="url(#clip760)" d="M922.082 45.1919 L922.082 72.576 L914.629 72.576 L914.629 45.4349 Q914.629 38.994 912.117 35.7938 Q909.606 32.5936 904.582 32.5936 Q898.547 32.5936 895.063 36.4419 Q891.579 40.2903 891.579 46.9338 L891.579 72.576 L884.085 72.576 L884.085 27.2059 L891.579 27.2059 L891.579 34.2544 Q894.253 30.163 897.858 28.1376 Q901.504 26.1121 906.243 26.1121 Q914.062 26.1121 918.072 30.9732 Q922.082 35.7938 922.082 45.1919 Z" fill="#000000" fill-rule="nonzero" fill-opacity="1" /><path clip-path="url(#clip760)" d="M969.599 28.9478 L969.599 35.9153 Q966.44 34.1734 963.24 33.3227 Q960.08 32.4315 956.839 32.4315 Q949.588 32.4315 945.578 37.0496 Q941.567 41.6271 941.567 49.9314 Q941.567 58.2358 945.578 62.8538 Q949.588 67.4314 956.839 67.4314 Q960.08 67.4314 963.24 66.5807 Q966.44 65.6895 969.599 63.9476 L969.599 70.8341 Q966.48 72.2924 963.118 73.0216 Q959.796 73.7508 956.029 73.7508 Q945.78 73.7508 939.744 67.3098 Q933.708 60.8689 933.708 49.9314 Q933.708 38.832 939.785 32.472 Q945.902 26.1121 956.515 26.1121 Q959.958 26.1121 963.24 26.8413 Q966.521 27.5299 969.599 28.9478 Z" fill="#000000" fill-rule="nonzero" fill-opacity="1" /><path clip-path="url(#clip760)" d="M989.935 14.324 L989.935 27.2059 L1005.29 27.2059 L1005.29 32.9987 L989.935 32.9987 L989.935 57.6282 Q989.935 63.1779 991.434 64.7578 Q992.973 66.3376 997.632 66.3376 L1005.29 66.3376 L1005.29 72.576 L997.632 72.576 Q989.003 72.576 985.722 69.3758 Q982.441 66.1351 982.441 57.6282 L982.441 32.9987 L976.972 32.9987 L976.972 27.2059 L982.441 27.2059 L982.441 14.324 L989.935 14.324 Z" fill="#000000" fill-rule="nonzero" fill-opacity="1" /><path clip-path="url(#clip760)" d="M1015.09 27.2059 L1022.54 27.2059 L1022.54 72.576 L1015.09 72.576 L1015.09 27.2059 M1015.09 9.54393 L1022.54 9.54393 L1022.54 18.9825 L1015.09 18.9825 L1015.09 9.54393 Z" fill="#000000" fill-rule="nonzero" fill-opacity="1" /><path clip-path="url(#clip760)" d="M1055.72 32.4315 Q1049.73 32.4315 1046.24 37.1306 Q1042.76 41.7891 1042.76 49.9314 Q1042.76 58.0738 1046.2 62.7728 Q1049.69 67.4314 1055.72 67.4314 Q1061.68 67.4314 1065.16 62.7323 Q1068.64 58.0333 1068.64 49.9314 Q1068.64 41.8701 1065.16 37.1711 Q1061.68 32.4315 1055.72 32.4315 M1055.72 26.1121 Q1065.44 26.1121 1070.99 32.4315 Q1076.54 38.7509 1076.54 49.9314 Q1076.54 61.0714 1070.99 67.4314 Q1065.44 73.7508 1055.72 73.7508 Q1045.96 73.7508 1040.41 67.4314 Q1034.9 61.0714 1034.9 49.9314 Q1034.9 38.7509 1040.41 32.4315 Q1045.96 26.1121 1055.72 26.1121 Z" fill="#000000" fill-rule="nonzero" fill-opacity="1" /><path clip-path="url(#clip760)" d="M1126.61 45.1919 L1126.61 72.576 L1119.16 72.576 L1119.16 45.4349 Q1119.16 38.994 1116.65 35.7938 Q1114.14 32.5936 1109.11 32.5936 Q1103.08 32.5936 1099.59 36.4419 Q1096.11 40.2903 1096.11 46.9338 L1096.11 72.576 L1088.62 72.576 L1088.62 27.2059 L1096.11 27.2059 L1096.11 34.2544 Q1098.78 30.163 1102.39 28.1376 Q1106.03 26.1121 1110.77 26.1121 Q1118.59 26.1121 1122.6 30.9732 Q1126.61 35.7938 1126.61 45.1919 Z" fill="#000000" fill-rule="nonzero" fill-opacity="1" /><path clip-path="url(#clip760)" d="M1162.1 49.7694 Q1153.06 49.7694 1149.58 51.8354 Q1146.1 53.9013 1146.1 58.8839 Q1146.1 62.8538 1148.69 65.2034 Q1151.32 67.5124 1155.82 67.5124 Q1162.02 67.5124 1165.74 63.1374 Q1169.51 58.7219 1169.51 51.4303 L1169.51 49.7694 L1162.1 49.7694 M1176.97 46.6907 L1176.97 72.576 L1169.51 72.576 L1169.51 65.6895 Q1166.96 69.8214 1163.15 71.8063 Q1159.34 73.7508 1153.83 73.7508 Q1146.87 73.7508 1142.74 69.8619 Q1138.64 65.9325 1138.64 59.3701 Q1138.64 51.7138 1143.75 47.825 Q1148.89 43.9361 1159.06 43.9361 L1169.51 43.9361 L1169.51 43.2069 Q1169.51 38.0623 1166.11 35.2672 Q1162.75 32.4315 1156.63 32.4315 Q1152.74 32.4315 1149.05 33.3632 Q1145.37 34.295 1141.97 36.1584 L1141.97 29.2718 Q1146.06 27.692 1149.91 26.9223 Q1153.75 26.1121 1157.4 26.1121 Q1167.24 26.1121 1172.1 31.2163 Q1176.97 36.3204 1176.97 46.6907 Z" fill="#000000" fill-rule="nonzero" fill-opacity="1" /><path clip-path="url(#clip760)" d="M1192.32 9.54393 L1199.77 9.54393 L1199.77 72.576 L1192.32 72.576 L1192.32 9.54393 Z" fill="#000000" fill-rule="nonzero" fill-opacity="1" /><path clip-path="url(#clip760)" d="M1268.03 34.1734 Q1266.77 33.4443 1265.27 33.1202 Q1263.82 32.7556 1262.03 32.7556 Q1255.71 32.7556 1252.31 36.8875 Q1248.95 40.9789 1248.95 48.6757 L1248.95 72.576 L1241.46 72.576 L1241.46 27.2059 L1248.95 27.2059 L1248.95 34.2544 Q1251.3 30.1225 1255.07 28.1376 Q1258.83 26.1121 1264.22 26.1121 Q1264.99 26.1121 1265.92 26.2337 Q1266.85 26.3147 1267.99 26.5172 L1268.03 34.1734 Z" fill="#000000" fill-rule="nonzero" fill-opacity="1" /><path clip-path="url(#clip760)" d="M1312.83 48.0275 L1312.83 51.6733 L1278.56 51.6733 Q1279.05 59.3701 1283.18 63.421 Q1287.35 67.4314 1294.77 67.4314 Q1299.06 67.4314 1303.07 66.3781 Q1307.12 65.3249 1311.09 63.2184 L1311.09 70.267 Q1307.08 71.9684 1302.87 72.8596 Q1298.65 73.7508 1294.32 73.7508 Q1283.46 73.7508 1277.1 67.4314 Q1270.78 61.1119 1270.78 50.3365 Q1270.78 39.1965 1276.78 32.6746 Q1282.82 26.1121 1293.02 26.1121 Q1302.18 26.1121 1307.49 32.0264 Q1312.83 37.9003 1312.83 48.0275 M1305.38 45.84 Q1305.3 39.7232 1301.94 36.0774 Q1298.61 32.4315 1293.1 32.4315 Q1286.87 32.4315 1283.1 35.9558 Q1279.37 39.4801 1278.8 45.8805 L1305.38 45.84 Z" fill="#000000" fill-rule="nonzero" fill-opacity="1" /><path clip-path="url(#clip760)" d="M1353.99 28.5427 L1353.99 35.5912 Q1350.83 33.9709 1347.43 33.1607 Q1344.02 32.3505 1340.38 32.3505 Q1334.83 32.3505 1332.03 34.0519 Q1329.28 35.7533 1329.28 39.156 Q1329.28 41.7486 1331.26 43.2475 Q1333.25 44.7058 1339.24 46.0426 L1341.8 46.6097 Q1349.74 48.3111 1353.06 51.4303 Q1356.42 54.509 1356.42 60.0587 Q1356.42 66.3781 1351.4 70.0644 Q1346.41 73.7508 1337.66 73.7508 Q1334.02 73.7508 1330.05 73.0216 Q1326.12 72.3329 1321.74 70.9151 L1321.74 63.2184 Q1325.88 65.3654 1329.89 66.4591 Q1333.9 67.5124 1337.83 67.5124 Q1343.09 67.5124 1345.93 65.73 Q1348.76 63.9071 1348.76 60.6258 Q1348.76 57.5877 1346.7 55.9673 Q1344.67 54.3469 1337.75 52.8481 L1335.15 52.2405 Q1328.23 50.7821 1325.15 47.7845 Q1322.07 44.7463 1322.07 39.4801 Q1322.07 33.0797 1326.61 29.5959 Q1331.14 26.1121 1339.49 26.1121 Q1343.62 26.1121 1347.27 26.7198 Q1350.91 27.3274 1353.99 28.5427 Z" fill="#000000" fill-rule="nonzero" fill-opacity="1" /><path clip-path="url(#clip760)" d="M1375.5 65.7705 L1375.5 89.8329 L1368.01 89.8329 L1368.01 27.2059 L1375.5 27.2059 L1375.5 34.0924 Q1377.85 30.0415 1381.41 28.0971 Q1385.02 26.1121 1390 26.1121 Q1398.27 26.1121 1403.41 32.6746 Q1408.6 39.2371 1408.6 49.9314 Q1408.6 60.6258 1403.41 67.1883 Q1398.27 73.7508 1390 73.7508 Q1385.02 73.7508 1381.41 71.8063 Q1377.85 69.8214 1375.5 65.7705 M1400.86 49.9314 Q1400.86 41.7081 1397.46 37.0496 Q1394.09 32.3505 1388.18 32.3505 Q1382.27 32.3505 1378.86 37.0496 Q1375.5 41.7081 1375.5 49.9314 Q1375.5 58.1548 1378.86 62.8538 Q1382.27 67.5124 1388.18 67.5124 Q1394.09 67.5124 1397.46 62.8538 Q1400.86 58.1548 1400.86 49.9314 Z" fill="#000000" fill-rule="nonzero" fill-opacity="1" /><path clip-path="url(#clip760)" d="M1438.53 32.4315 Q1432.54 32.4315 1429.05 37.1306 Q1425.57 41.7891 1425.57 49.9314 Q1425.57 58.0738 1429.01 62.7728 Q1432.5 67.4314 1438.53 67.4314 Q1444.49 67.4314 1447.97 62.7323 Q1451.45 58.0333 1451.45 49.9314 Q1451.45 41.8701 1447.97 37.1711 Q1444.49 32.4315 1438.53 32.4315 M1438.53 26.1121 Q1448.25 26.1121 1453.8 32.4315 Q1459.35 38.7509 1459.35 49.9314 Q1459.35 61.0714 1453.8 67.4314 Q1448.25 73.7508 1438.53 73.7508 Q1428.77 73.7508 1423.22 67.4314 Q1417.71 61.0714 1417.71 49.9314 Q1417.71 38.7509 1423.22 32.4315 Q1428.77 26.1121 1438.53 26.1121 Z" fill="#000000" fill-rule="nonzero" fill-opacity="1" /><path clip-path="url(#clip760)" d="M1509.42 45.1919 L1509.42 72.576 L1501.97 72.576 L1501.97 45.4349 Q1501.97 38.994 1499.46 35.7938 Q1496.95 32.5936 1491.92 32.5936 Q1485.89 32.5936 1482.4 36.4419 Q1478.92 40.2903 1478.92 46.9338 L1478.92 72.576 L1471.43 72.576 L1471.43 27.2059 L1478.92 27.2059 L1478.92 34.2544 Q1481.59 30.163 1485.2 28.1376 Q1488.84 26.1121 1493.58 26.1121 Q1501.4 26.1121 1505.41 30.9732 Q1509.42 35.7938 1509.42 45.1919 Z" fill="#000000" fill-rule="nonzero" fill-opacity="1" /><path clip-path="url(#clip760)" d="M1553.21 28.5427 L1553.21 35.5912 Q1550.05 33.9709 1546.65 33.1607 Q1543.25 32.3505 1539.6 32.3505 Q1534.05 32.3505 1531.26 34.0519 Q1528.5 35.7533 1528.5 39.156 Q1528.5 41.7486 1530.49 43.2475 Q1532.47 44.7058 1538.47 46.0426 L1541.02 46.6097 Q1548.96 48.3111 1552.28 51.4303 Q1555.64 54.509 1555.64 60.0587 Q1555.64 66.3781 1550.62 70.0644 Q1545.64 73.7508 1536.89 73.7508 Q1533.24 73.7508 1529.27 73.0216 Q1525.34 72.3329 1520.97 70.9151 L1520.97 63.2184 Q1525.1 65.3654 1529.11 66.4591 Q1533.12 67.5124 1537.05 67.5124 Q1542.32 67.5124 1545.15 65.73 Q1547.99 63.9071 1547.99 60.6258 Q1547.99 57.5877 1545.92 55.9673 Q1543.9 54.3469 1536.97 52.8481 L1534.38 52.2405 Q1527.45 50.7821 1524.37 47.7845 Q1521.29 44.7463 1521.29 39.4801 Q1521.29 33.0797 1525.83 29.5959 Q1530.37 26.1121 1538.71 26.1121 Q1542.84 26.1121 1546.49 26.7198 Q1550.13 27.3274 1553.21 28.5427 Z" fill="#000000" fill-rule="nonzero" fill-opacity="1" /><path clip-path="url(#clip760)" d="M1606.32 48.0275 L1606.32 51.6733 L1572.05 51.6733 Q1572.54 59.3701 1576.67 63.421 Q1580.84 67.4314 1588.25 67.4314 Q1592.55 67.4314 1596.56 66.3781 Q1600.61 65.3249 1604.58 63.2184 L1604.58 70.267 Q1600.57 71.9684 1596.36 72.8596 Q1592.14 73.7508 1587.81 73.7508 Q1576.95 73.7508 1570.59 67.4314 Q1564.27 61.1119 1564.27 50.3365 Q1564.27 39.1965 1570.27 32.6746 Q1576.3 26.1121 1586.51 26.1121 Q1595.67 26.1121 1600.97 32.0264 Q1606.32 37.9003 1606.32 48.0275 M1598.87 45.84 Q1598.79 39.7232 1595.42 36.0774 Q1592.1 32.4315 1586.59 32.4315 Q1580.35 32.4315 1576.59 35.9558 Q1572.86 39.4801 1572.29 45.8805 L1598.87 45.84 Z" fill="#000000" fill-rule="nonzero" fill-opacity="1" /><path clip-path="url(#clip760)" d="M1662.83 9.62495 Q1657.4 18.942 1654.77 28.0566 Q1652.14 37.1711 1652.14 46.5287 Q1652.14 55.8863 1654.77 65.0818 Q1657.44 74.2369 1662.83 83.5134 L1656.35 83.5134 Q1650.27 73.9938 1647.23 64.7983 Q1644.24 55.6027 1644.24 46.5287 Q1644.24 37.4952 1647.23 28.3401 Q1650.23 19.1851 1656.35 9.62495 L1662.83 9.62495 Z" fill="#000000" fill-rule="nonzero" fill-opacity="1" /><path clip-path="url(#clip760)" d="M1677.62 12.096 L1685.8 12.096 L1685.8 36.8875 L1715.53 36.8875 L1715.53 12.096 L1723.72 12.096 L1723.72 72.576 L1715.53 72.576 L1715.53 43.7741 L1685.8 43.7741 L1685.8 72.576 L1677.62 72.576 L1677.62 12.096 Z" fill="#000000" fill-rule="nonzero" fill-opacity="1" /><path clip-path="url(#clip760)" d="M1757.26 32.4315 Q1751.26 32.4315 1747.78 37.1306 Q1744.29 41.7891 1744.29 49.9314 Q1744.29 58.0738 1747.74 62.7728 Q1751.22 67.4314 1757.26 67.4314 Q1763.21 67.4314 1766.7 62.7323 Q1770.18 58.0333 1770.18 49.9314 Q1770.18 41.8701 1766.7 37.1711 Q1763.21 32.4315 1757.26 32.4315 M1757.26 26.1121 Q1766.98 26.1121 1772.53 32.4315 Q1778.08 38.7509 1778.08 49.9314 Q1778.08 61.0714 1772.53 67.4314 Q1766.98 73.7508 1757.26 73.7508 Q1747.49 73.7508 1741.94 67.4314 Q1736.44 61.0714 1736.44 49.9314 Q1736.44 38.7509 1741.94 32.4315 Q1747.49 26.1121 1757.26 26.1121 Z" fill="#000000" fill-rule="nonzero" fill-opacity="1" /><path clip-path="url(#clip760)" d="M1790.43 9.54393 L1797.89 9.54393 L1797.89 72.576 L1790.43 72.576 L1790.43 9.54393 Z" fill="#000000" fill-rule="nonzero" fill-opacity="1" /><path clip-path="url(#clip760)" d="M1813.48 9.54393 L1820.94 9.54393 L1820.94 72.576 L1813.48 72.576 L1813.48 9.54393 Z" fill="#000000" fill-rule="nonzero" fill-opacity="1" /><path clip-path="url(#clip760)" d="M1836.53 27.2059 L1843.99 27.2059 L1843.99 72.576 L1836.53 72.576 L1836.53 27.2059 M1836.53 9.54393 L1843.99 9.54393 L1843.99 18.9825 L1836.53 18.9825 L1836.53 9.54393 Z" fill="#000000" fill-rule="nonzero" fill-opacity="1" /><path clip-path="url(#clip760)" d="M1897.3 45.1919 L1897.3 72.576 L1889.84 72.576 L1889.84 45.4349 Q1889.84 38.994 1887.33 35.7938 Q1884.82 32.5936 1879.8 32.5936 Q1873.76 32.5936 1870.28 36.4419 Q1866.79 40.2903 1866.79 46.9338 L1866.79 72.576 L1859.3 72.576 L1859.3 27.2059 L1866.79 27.2059 L1866.79 34.2544 Q1869.47 30.163 1873.07 28.1376 Q1876.72 26.1121 1881.46 26.1121 Q1889.28 26.1121 1893.29 30.9732 Q1897.3 35.7938 1897.3 45.1919 Z" fill="#000000" fill-rule="nonzero" fill-opacity="1" /><path clip-path="url(#clip760)" d="M1942.02 49.3643 Q1942.02 41.2625 1938.66 36.8065 Q1935.34 32.3505 1929.3 32.3505 Q1923.3 32.3505 1919.94 36.8065 Q1916.62 41.2625 1916.62 49.3643 Q1916.62 57.4256 1919.94 61.8816 Q1923.3 66.3376 1929.3 66.3376 Q1935.34 66.3376 1938.66 61.8816 Q1942.02 57.4256 1942.02 49.3643 M1949.47 66.9452 Q1949.47 78.5308 1944.33 84.1616 Q1939.18 89.8329 1928.57 89.8329 Q1924.64 89.8329 1921.16 89.2252 Q1917.67 88.6581 1914.39 87.4428 L1914.39 80.1917 Q1917.67 81.9741 1920.87 82.8248 Q1924.07 83.6755 1927.4 83.6755 Q1934.73 83.6755 1938.37 79.8271 Q1942.02 76.0193 1942.02 68.282 L1942.02 64.5957 Q1939.71 68.6061 1936.1 70.5911 Q1932.5 72.576 1927.48 72.576 Q1919.13 72.576 1914.03 66.2161 Q1908.92 59.8562 1908.92 49.3643 Q1908.92 38.832 1914.03 32.472 Q1919.13 26.1121 1927.48 26.1121 Q1932.5 26.1121 1936.1 28.0971 Q1939.71 30.082 1942.02 34.0924 L1942.02 27.2059 L1949.47 27.2059 L1949.47 66.9452 Z" fill="#000000" fill-rule="nonzero" fill-opacity="1" /><path clip-path="url(#clip760)" d="M1983.14 12.096 L2034.3 12.096 L2034.3 18.9825 L2012.83 18.9825 L2012.83 72.576 L2004.61 72.576 L2004.61 18.9825 L1983.14 18.9825 L1983.14 12.096 Z" fill="#000000" fill-rule="nonzero" fill-opacity="1" /><path clip-path="url(#clip760)" d="M2047.83 76.7889 Q2044.67 84.8907 2041.67 87.3618 Q2038.67 89.8329 2033.65 89.8329 L2027.7 89.8329 L2027.7 83.5945 L2032.07 83.5945 Q2035.15 83.5945 2036.85 82.1361 Q2038.55 80.6778 2040.62 75.2496 L2041.95 71.8468 L2023.6 27.2059 L2031.5 27.2059 L2045.68 62.6918 L2059.86 27.2059 L2067.76 27.2059 L2047.83 76.7889 Z" fill="#000000" fill-rule="nonzero" fill-opacity="1" /><path clip-path="url(#clip760)" d="M2085.26 65.7705 L2085.26 89.8329 L2077.76 89.8329 L2077.76 27.2059 L2085.26 27.2059 L2085.26 34.0924 Q2087.61 30.0415 2091.17 28.0971 Q2094.78 26.1121 2099.76 26.1121 Q2108.03 26.1121 2113.17 32.6746 Q2118.35 39.2371 2118.35 49.9314 Q2118.35 60.6258 2113.17 67.1883 Q2108.03 73.7508 2099.76 73.7508 Q2094.78 73.7508 2091.17 71.8063 Q2087.61 69.8214 2085.26 65.7705 M2110.62 49.9314 Q2110.62 41.7081 2107.21 37.0496 Q2103.85 32.3505 2097.94 32.3505 Q2092.02 32.3505 2088.62 37.0496 Q2085.26 41.7081 2085.26 49.9314 Q2085.26 58.1548 2088.62 62.8538 Q2092.02 67.5124 2097.94 67.5124 Q2103.85 67.5124 2107.21 62.8538 Q2110.62 58.1548 2110.62 49.9314 Z" fill="#000000" fill-rule="nonzero" fill-opacity="1" /><path clip-path="url(#clip760)" d="M2169.52 48.0275 L2169.52 51.6733 L2135.25 51.6733 Q2135.73 59.3701 2139.87 63.421 Q2144.04 67.4314 2151.45 67.4314 Q2155.74 67.4314 2159.76 66.3781 Q2163.81 65.3249 2167.78 63.2184 L2167.78 70.267 Q2163.77 71.9684 2159.55 72.8596 Q2155.34 73.7508 2151.01 73.7508 Q2140.15 73.7508 2133.79 67.4314 Q2127.47 61.1119 2127.47 50.3365 Q2127.47 39.1965 2133.46 32.6746 Q2139.5 26.1121 2149.71 26.1121 Q2158.86 26.1121 2164.17 32.0264 Q2169.52 37.9003 2169.52 48.0275 M2162.06 45.84 Q2161.98 39.7232 2158.62 36.0774 Q2155.3 32.4315 2149.79 32.4315 Q2143.55 32.4315 2139.78 35.9558 Q2136.06 39.4801 2135.49 45.8805 L2162.06 45.84 Z" fill="#000000" fill-rule="nonzero" fill-opacity="1" /><path clip-path="url(#clip760)" d="M2208.45 12.096 L2216.63 12.096 L2216.63 72.576 L2208.45 72.576 L2208.45 12.096 Z" fill="#000000" fill-rule="nonzero" fill-opacity="1" /><path clip-path="url(#clip760)" d="M2232.91 12.096 L2241.1 12.096 L2241.1 72.576 L2232.91 72.576 L2232.91 12.096 Z" fill="#000000" fill-rule="nonzero" fill-opacity="1" /><path clip-path="url(#clip760)" d="M2255.88 9.62495 L2262.36 9.62495 Q2268.44 19.1851 2271.44 28.3401 Q2274.48 37.4952 2274.48 46.5287 Q2274.48 55.6027 2271.44 64.7983 Q2268.44 73.9938 2262.36 83.5134 L2255.88 83.5134 Q2261.27 74.2369 2263.9 65.0818 Q2266.58 55.8863 2266.58 46.5287 Q2266.58 37.1711 2263.9 28.0566 Q2261.27 18.942 2255.88 9.62495 Z" fill="#000000" fill-rule="nonzero" fill-opacity="1" /><polyline clip-path="url(#clip761)" style="stroke:#000000; stroke-linecap:round; stroke-linejoin:round; stroke-width:12; stroke-opacity:1; fill:none" points="294.006,1688.65 305.456,1651.51 316.905,1616.15 328.354,1582.44 339.803,1550.26 351.253,1519.53 362.702,1490.13 374.151,1461.99 385.6,1435.03 397.049,1409.18 408.499,1384.36 419.948,1360.52 431.397,1337.6 442.846,1315.54 454.296,1294.31 465.745,1273.86 477.194,1254.13 488.643,1235.1 500.093,1216.73 511.542,1198.98 522.991,1181.83 534.44,1165.24 545.89,1149.19 557.339,1133.65 568.788,1118.6 580.237,1104.01 591.686,1089.86 603.136,1076.14 614.585,1062.83 626.034,1049.9 637.483,1037.34 648.933,1025.13 660.382,1013.27 671.831,1001.73 683.28,990.503 694.73,979.577 706.179,968.94 717.628,958.579 729.077,948.485 740.527,938.647 751.976,929.056 763.425,919.702 774.874,910.576 786.323,901.671 797.773,892.979 809.222,884.492 820.671,876.202 832.12,868.104 843.57,860.19 855.019,852.454 866.468,844.891 877.917,837.494 889.367,830.258 900.816,823.178 912.265,816.249 923.714,809.467 935.163,802.826 946.613,796.322 958.062,789.951 969.511,783.709 980.96,777.592 992.41,771.597 1003.86,765.719 1015.31,759.956 1026.76,754.304 1038.21,748.759 1049.66,743.32 1061.11,737.982 1072.55,732.744 1084,727.601 1095.45,722.552 1106.9,717.595 1118.35,712.726 1129.8,707.943 1141.25,703.245 1152.7,698.628 1164.15,694.091 1175.6,689.632 1187.05,685.249 1198.5,680.939 1209.95,676.701 1221.39,672.534 1232.84,668.434 1244.29,664.402 1255.74,660.435 1267.19,656.531 1278.64,652.689 1290.09,648.908 1301.54,645.186 1312.99,641.522 1324.44,637.915 1335.89,634.362 1347.34,630.864 1358.79,627.418 1370.23,624.024 1381.68,620.68 1393.13,617.385 1404.58,614.138 1416.03,610.939 1427.48,607.786 1438.93,604.677 1450.38,601.613 1461.83,598.592 1473.28,595.614 1484.73,592.677 1496.18,589.78 1507.63,586.923 1519.07,584.105 1530.52,581.326 1541.97,578.583 1553.42,575.877 1564.87,573.207 1576.32,570.573 1587.77,567.972 1599.22,565.406 1610.67,562.873 1622.12,560.372 1633.57,557.903 1645.02,555.466 1656.47,553.059 1667.91,550.682 1679.36,548.335 1690.81,546.017 1702.26,543.727 1713.71,541.465 1725.16,539.231 1736.61,537.023 1748.06,534.843 1759.51,532.688 1770.96,530.558 1782.41,528.454 1793.86,526.374 1805.31,524.319 1816.75,522.287 1828.2,520.279 1839.65,518.294 1851.1,516.331 1862.55,514.391 1874,512.472 1885.45,510.575 1896.9,508.699 1908.35,506.843 1919.8,505.009 1931.25,503.194 1942.7,501.399 1954.15,499.623 1965.59,497.866 1977.04,496.129 1988.49,494.409 1999.94,492.708 2011.39,491.025 2022.84,489.36 2034.29,487.712 2045.74,486.081 2057.19,484.466 2068.64,482.869 2080.09,481.288 2091.54,479.722 2102.99,478.173 2114.43,476.639 2125.88,475.121 2137.33,473.617 2148.78,472.129 2160.23,470.655 2171.68,469.196 2183.13,467.751 2194.58,466.32 2206.03,464.903 2217.48,463.499 2228.93,462.109 2240.38,460.732 2251.83,459.369 2263.27,458.018 2274.72,456.68 2286.17,455.354 2297.62,454.041 2309.07,452.74 2320.52,451.45 2331.97,450.173 2343.42,448.907 2354.87,447.653 2366.32,446.411 2377.77,445.179 2389.22,443.959 2400.67,442.749 2412.11,441.55 2423.56,440.362 2435.01,439.184 2446.46,438.017 2457.91,436.86 2469.36,435.713 2480.81,434.575 2492.26,433.448 2503.71,432.33 2515.16,431.222 2526.61,430.124 2538.06,429.034 2549.51,427.954 2560.95,426.883 2572.4,425.821 "/>
<polyline clip-path="url(#clip761)" style="stroke:#808080; stroke-linecap:round; stroke-linejoin:round; stroke-width:4; stroke-opacity:1; fill:none" stroke-dasharray="2, 4" points="-2189.45,173.254 5055.86,173.254 "/>
<polyline clip-path="url(#clip761)" style="stroke:#808080; stroke-linecap:round; stroke-linejoin:round; stroke-width:4; stroke-opacity:1; fill:none" stroke-dasharray="2, 4" points="749.686,3340.44 749.686,-1478.53 "/>
<path clip-path="url(#clip760)" d="M1948.54 1680.57 L2560.25 1680.57 L2560.25 1473.21 L1948.54 1473.21  Z" fill="#ffffff" fill-rule="evenodd" fill-opacity="1"/>
<polyline clip-path="url(#clip760)" style="stroke:#000000; stroke-linecap:round; stroke-linejoin:round; stroke-width:4; stroke-opacity:1; fill:none" points="1948.54,1680.57 2560.25,1680.57 2560.25,1473.21 1948.54,1473.21 1948.54,1680.57 "/>
<polyline clip-path="url(#clip760)" style="stroke:#000000; stroke-linecap:round; stroke-linejoin:round; stroke-width:12; stroke-opacity:1; fill:none" points="1975.37,1525.05 2136.38,1525.05 "/>
<path clip-path="url(#clip760)" d="M2179.72 1506.31 L2179.72 1509.86 L2175.64 1509.86 Q2173.35 1509.86 2172.45 1510.78 Q2171.57 1511.71 2171.57 1514.12 L2171.57 1516.41 L2178.58 1516.41 L2178.58 1519.72 L2171.57 1519.72 L2171.57 1542.33 L2167.29 1542.33 L2167.29 1519.72 L2163.21 1519.72 L2163.21 1516.41 L2167.29 1516.41 L2167.29 1514.6 Q2167.29 1510.27 2169.3 1508.31 Q2171.31 1506.31 2175.69 1506.31 L2179.72 1506.31 Z" fill="#000000" fill-rule="nonzero" fill-opacity="1" /><path clip-path="url(#clip760)" d="M2193.51 1506.36 Q2190.41 1511.68 2188.91 1516.89 Q2187.4 1522.1 2187.4 1527.45 Q2187.4 1532.8 2188.91 1538.05 Q2190.43 1543.28 2193.51 1548.58 L2189.81 1548.58 Q2186.34 1543.14 2184.6 1537.89 Q2182.89 1532.63 2182.89 1527.45 Q2182.89 1522.29 2184.6 1517.06 Q2186.31 1511.82 2189.81 1506.36 L2193.51 1506.36 Z" fill="#000000" fill-rule="nonzero" fill-opacity="1" /><path clip-path="url(#clip760)" d="M2218.35 1526.13 Q2219.85 1526.64 2221.27 1528.31 Q2222.7 1529.97 2224.14 1532.89 L2228.88 1542.33 L2223.86 1542.33 L2219.44 1533.47 Q2217.73 1529.99 2216.1 1528.86 Q2214.51 1527.73 2211.73 1527.73 L2206.64 1527.73 L2206.64 1542.33 L2201.96 1542.33 L2201.96 1507.77 L2212.52 1507.77 Q2218.44 1507.77 2221.36 1510.25 Q2224.28 1512.73 2224.28 1517.73 Q2224.28 1520.99 2222.75 1523.14 Q2221.24 1525.3 2218.35 1526.13 M2206.64 1511.62 L2206.64 1523.88 L2212.52 1523.88 Q2215.9 1523.88 2217.61 1522.33 Q2219.35 1520.76 2219.35 1517.73 Q2219.35 1514.69 2217.61 1513.17 Q2215.9 1511.62 2212.52 1511.62 L2206.64 1511.62 Z" fill="#000000" fill-rule="nonzero" fill-opacity="1" /><path clip-path="url(#clip760)" d="M2234.04 1506.36 L2237.75 1506.36 Q2241.22 1511.82 2242.93 1517.06 Q2244.67 1522.29 2244.67 1527.45 Q2244.67 1532.63 2242.93 1537.89 Q2241.22 1543.14 2237.75 1548.58 L2234.04 1548.58 Q2237.12 1543.28 2238.63 1538.05 Q2240.16 1532.8 2240.16 1527.45 Q2240.16 1522.1 2238.63 1516.89 Q2237.12 1511.68 2234.04 1506.36 Z" fill="#000000" fill-rule="nonzero" fill-opacity="1" /><path clip-path="url(#clip760)" d="M2268.84 1520.81 L2298.51 1520.81 L2298.51 1524.69 L2268.84 1524.69 L2268.84 1520.81 M2268.84 1530.25 L2298.51 1530.25 L2298.51 1534.18 L2268.84 1534.18 L2268.84 1530.25 Z" fill="#000000" fill-rule="nonzero" fill-opacity="1" /><path clip-path="url(#clip760)" d="M2327.7 1538.4 L2344.02 1538.4 L2344.02 1542.33 L2322.08 1542.33 L2322.08 1538.4 Q2324.74 1535.64 2329.32 1531.01 Q2333.93 1526.36 2335.11 1525.02 Q2337.35 1522.49 2338.23 1520.76 Q2339.14 1519 2339.14 1517.31 Q2339.14 1514.56 2337.19 1512.82 Q2335.27 1511.08 2332.17 1511.08 Q2329.97 1511.08 2327.52 1511.85 Q2325.09 1512.61 2322.31 1514.16 L2322.31 1509.44 Q2325.13 1508.31 2327.59 1507.73 Q2330.04 1507.15 2332.08 1507.15 Q2337.45 1507.15 2340.64 1509.83 Q2343.84 1512.52 2343.84 1517.01 Q2343.84 1519.14 2343.03 1521.06 Q2342.24 1522.96 2340.13 1525.55 Q2339.55 1526.22 2336.45 1529.44 Q2333.35 1532.63 2327.7 1538.4 Z" fill="#000000" fill-rule="nonzero" fill-opacity="1" /><path clip-path="url(#clip760)" d="M2369.81 1526.13 Q2371.31 1526.64 2372.72 1528.31 Q2374.16 1529.97 2375.59 1532.89 L2380.34 1542.33 L2375.32 1542.33 L2370.9 1533.47 Q2369.18 1529.99 2367.56 1528.86 Q2365.97 1527.73 2363.19 1527.73 L2358.09 1527.73 L2358.09 1542.33 L2353.42 1542.33 L2353.42 1507.77 L2363.97 1507.77 Q2369.9 1507.77 2372.82 1510.25 Q2375.73 1512.73 2375.73 1517.73 Q2375.73 1520.99 2374.21 1523.14 Q2372.7 1525.3 2369.81 1526.13 M2358.09 1511.62 L2358.09 1523.88 L2363.97 1523.88 Q2367.35 1523.88 2369.07 1522.33 Q2370.8 1520.76 2370.8 1517.73 Q2370.8 1514.69 2369.07 1513.17 Q2367.35 1511.62 2363.97 1511.62 L2358.09 1511.62 Z" fill="#000000" fill-rule="nonzero" fill-opacity="1" /><path clip-path="url(#clip760)" d="M2393.74 1507.77 L2397.68 1507.77 L2385.64 1546.73 L2381.71 1546.73 L2393.74 1507.77 Z" fill="#000000" fill-rule="nonzero" fill-opacity="1" /><path clip-path="url(#clip760)" d="M2412.38 1506.36 Q2409.28 1511.68 2407.77 1516.89 Q2406.27 1522.1 2406.27 1527.45 Q2406.27 1532.8 2407.77 1538.05 Q2409.3 1543.28 2412.38 1548.58 L2408.67 1548.58 Q2405.2 1543.14 2403.47 1537.89 Q2401.75 1532.63 2401.75 1527.45 Q2401.75 1522.29 2403.47 1517.06 Q2405.18 1511.82 2408.67 1506.36 L2412.38 1506.36 Z" fill="#000000" fill-rule="nonzero" fill-opacity="1" /><path clip-path="url(#clip760)" d="M2421.29 1507.77 L2439.65 1507.77 L2439.65 1511.71 L2425.57 1511.71 L2425.57 1520.18 Q2426.59 1519.83 2427.61 1519.67 Q2428.63 1519.49 2429.65 1519.49 Q2435.43 1519.49 2438.81 1522.66 Q2442.19 1525.83 2442.19 1531.24 Q2442.19 1536.82 2438.72 1539.93 Q2435.25 1543 2428.93 1543 Q2426.75 1543 2424.48 1542.63 Q2422.24 1542.26 2419.83 1541.52 L2419.83 1536.82 Q2421.91 1537.96 2424.14 1538.51 Q2426.36 1539.07 2428.84 1539.07 Q2432.84 1539.07 2435.18 1536.96 Q2437.52 1534.86 2437.52 1531.24 Q2437.52 1527.63 2435.18 1525.53 Q2432.84 1523.42 2428.84 1523.42 Q2426.96 1523.42 2425.09 1523.84 Q2423.23 1524.25 2421.29 1525.13 L2421.29 1507.77 Z" fill="#000000" fill-rule="nonzero" fill-opacity="1" /><path clip-path="url(#clip760)" d="M2468.14 1512.61 L2468.14 1525.5 L2481.03 1525.5 L2481.03 1529.44 L2468.14 1529.44 L2468.14 1542.33 L2464.25 1542.33 L2464.25 1529.44 L2451.36 1529.44 L2451.36 1525.5 L2464.25 1525.5 L2464.25 1512.61 L2468.14 1512.61 Z" fill="#000000" fill-rule="nonzero" fill-opacity="1" /><path clip-path="url(#clip760)" d="M2507.1 1526.13 Q2508.6 1526.64 2510.02 1528.31 Q2511.45 1529.97 2512.89 1532.89 L2517.63 1542.33 L2512.61 1542.33 L2508.19 1533.47 Q2506.47 1529.99 2504.85 1528.86 Q2503.26 1527.73 2500.48 1527.73 L2495.39 1527.73 L2495.39 1542.33 L2490.71 1542.33 L2490.71 1507.77 L2501.27 1507.77 Q2507.19 1507.77 2510.11 1510.25 Q2513.02 1512.73 2513.02 1517.73 Q2513.02 1520.99 2511.5 1523.14 Q2509.99 1525.3 2507.1 1526.13 M2495.39 1511.62 L2495.39 1523.88 L2501.27 1523.88 Q2504.65 1523.88 2506.36 1522.33 Q2508.09 1520.76 2508.09 1517.73 Q2508.09 1514.69 2506.36 1513.17 Q2504.65 1511.62 2501.27 1511.62 L2495.39 1511.62 Z" fill="#000000" fill-rule="nonzero" fill-opacity="1" /><path clip-path="url(#clip760)" d="M2522.79 1506.36 L2526.5 1506.36 Q2529.97 1511.82 2531.68 1517.06 Q2533.42 1522.29 2533.42 1527.45 Q2533.42 1532.63 2531.68 1537.89 Q2529.97 1543.14 2526.5 1548.58 L2522.79 1548.58 Q2525.87 1543.28 2527.38 1538.05 Q2528.9 1532.8 2528.9 1527.45 Q2528.9 1522.1 2527.38 1516.89 Q2525.87 1511.68 2522.79 1506.36 Z" fill="#000000" fill-rule="nonzero" fill-opacity="1" /><polyline clip-path="url(#clip760)" style="stroke:#808080; stroke-linecap:round; stroke-linejoin:round; stroke-width:4; stroke-opacity:1; fill:none" stroke-dasharray="2, 4" points="1975.37,1576.89 2136.38,1576.89 "/>
<path clip-path="url(#clip760)" d="M2163.21 1568.25 L2167.73 1568.25 L2175.83 1590.01 L2183.93 1568.25 L2188.44 1568.25 L2178.72 1594.17 L2172.93 1594.17 L2163.21 1568.25 Z" fill="#000000" fill-rule="nonzero" fill-opacity="1" /><path clip-path="url(#clip760)" d="M2214.51 1573.22 Q2216.1 1570.35 2218.33 1568.99 Q2220.55 1567.62 2223.56 1567.62 Q2227.61 1567.62 2229.81 1570.47 Q2232.01 1573.29 2232.01 1578.52 L2232.01 1594.17 L2227.73 1594.17 L2227.73 1578.66 Q2227.73 1574.94 2226.41 1573.13 Q2225.09 1571.33 2222.38 1571.33 Q2219.07 1571.33 2217.15 1573.52 Q2215.23 1575.72 2215.23 1579.52 L2215.23 1594.17 L2210.94 1594.17 L2210.94 1578.66 Q2210.94 1574.91 2209.62 1573.13 Q2208.3 1571.33 2205.55 1571.33 Q2202.29 1571.33 2200.36 1573.55 Q2198.44 1575.75 2198.44 1579.52 L2198.44 1594.17 L2194.16 1594.17 L2194.16 1568.25 L2198.44 1568.25 L2198.44 1572.27 Q2199.9 1569.89 2201.94 1568.76 Q2203.98 1567.62 2206.78 1567.62 Q2209.6 1567.62 2211.57 1569.06 Q2213.56 1570.49 2214.51 1573.22 Z" fill="#000000" fill-rule="nonzero" fill-opacity="1" /><path clip-path="url(#clip760)" d="M2252.29 1581.14 Q2247.12 1581.14 2245.13 1582.32 Q2243.14 1583.5 2243.14 1586.35 Q2243.14 1588.62 2244.62 1589.96 Q2246.13 1591.28 2248.7 1591.28 Q2252.24 1591.28 2254.37 1588.78 Q2256.52 1586.26 2256.52 1582.09 L2256.52 1581.14 L2252.29 1581.14 M2260.78 1579.38 L2260.78 1594.17 L2256.52 1594.17 L2256.52 1590.24 Q2255.06 1592.6 2252.89 1593.73 Q2250.71 1594.84 2247.56 1594.84 Q2243.58 1594.84 2241.22 1592.62 Q2238.88 1590.38 2238.88 1586.63 Q2238.88 1582.25 2241.8 1580.03 Q2244.74 1577.81 2250.55 1577.81 L2256.52 1577.81 L2256.52 1577.39 Q2256.52 1574.45 2254.58 1572.85 Q2252.66 1571.23 2249.16 1571.23 Q2246.94 1571.23 2244.83 1571.77 Q2242.73 1572.3 2240.78 1573.36 L2240.78 1569.43 Q2243.12 1568.52 2245.32 1568.09 Q2247.52 1567.62 2249.6 1567.62 Q2255.23 1567.62 2258 1570.54 Q2260.78 1573.46 2260.78 1579.38 Z" fill="#000000" fill-rule="nonzero" fill-opacity="1" /><path clip-path="url(#clip760)" d="M2291.1 1568.25 L2281.73 1580.86 L2291.59 1594.17 L2286.57 1594.17 L2279.02 1583.99 L2271.48 1594.17 L2266.45 1594.17 L2276.52 1580.61 L2267.31 1568.25 L2272.33 1568.25 L2279.21 1577.48 L2286.08 1568.25 L2291.1 1568.25 Z" fill="#000000" fill-rule="nonzero" fill-opacity="1" /><path clip-path="url(#clip760)" d="M2313.23 1572.65 L2342.91 1572.65 L2342.91 1576.53 L2313.23 1576.53 L2313.23 1572.65 M2313.23 1582.09 L2342.91 1582.09 L2342.91 1586.02 L2313.23 1586.02 L2313.23 1582.09 Z" fill="#000000" fill-rule="nonzero" fill-opacity="1" /><path clip-path="url(#clip760)" d="M2372.1 1590.24 L2388.42 1590.24 L2388.42 1594.17 L2366.47 1594.17 L2366.47 1590.24 Q2369.14 1587.48 2373.72 1582.85 Q2378.33 1578.2 2379.51 1576.86 Q2381.75 1574.33 2382.63 1572.6 Q2383.53 1570.84 2383.53 1569.15 Q2383.53 1566.4 2381.59 1564.66 Q2379.67 1562.92 2376.57 1562.92 Q2374.37 1562.92 2371.91 1563.69 Q2369.48 1564.45 2366.71 1566 L2366.71 1561.28 Q2369.53 1560.15 2371.98 1559.57 Q2374.44 1558.99 2376.47 1558.99 Q2381.84 1558.99 2385.04 1561.67 Q2388.23 1564.36 2388.23 1568.85 Q2388.23 1570.98 2387.42 1572.9 Q2386.64 1574.8 2384.53 1577.39 Q2383.95 1578.06 2380.85 1581.28 Q2377.75 1584.47 2372.1 1590.24 Z" fill="#000000" fill-rule="nonzero" fill-opacity="1" /><path clip-path="url(#clip760)" d="M2398.23 1588.29 L2403.12 1588.29 L2403.12 1594.17 L2398.23 1594.17 L2398.23 1588.29 Z" fill="#000000" fill-rule="nonzero" fill-opacity="1" /><path clip-path="url(#clip760)" d="M2423.3 1562.69 Q2419.69 1562.69 2417.86 1566.26 Q2416.06 1569.8 2416.06 1576.93 Q2416.06 1584.03 2417.86 1587.6 Q2419.69 1591.14 2423.3 1591.14 Q2426.94 1591.14 2428.74 1587.6 Q2430.57 1584.03 2430.57 1576.93 Q2430.57 1569.8 2428.74 1566.26 Q2426.94 1562.69 2423.3 1562.69 M2423.3 1558.99 Q2429.11 1558.99 2432.17 1563.59 Q2435.25 1568.18 2435.25 1576.93 Q2435.25 1585.65 2432.17 1590.26 Q2429.11 1594.84 2423.3 1594.84 Q2417.49 1594.84 2414.41 1590.26 Q2411.36 1585.65 2411.36 1576.93 Q2411.36 1568.18 2414.41 1563.59 Q2417.49 1558.99 2423.3 1558.99 Z" fill="#000000" fill-rule="nonzero" fill-opacity="1" /><polyline clip-path="url(#clip760)" style="stroke:#808080; stroke-linecap:round; stroke-linejoin:round; stroke-width:4; stroke-opacity:1; fill:none" stroke-dasharray="2, 4" points="1975.37,1628.73 2136.38,1628.73 "/>
<path clip-path="url(#clip760)" d="M2163.21 1611.45 L2167.89 1611.45 L2167.89 1626.06 L2183.4 1611.45 L2189.42 1611.45 L2172.26 1627.56 L2190.64 1646.01 L2184.48 1646.01 L2167.89 1629.37 L2167.89 1646.01 L2163.21 1646.01 L2163.21 1611.45 Z" fill="#000000" fill-rule="nonzero" fill-opacity="1" /><path clip-path="url(#clip760)" d="M2214.3 1625.06 Q2215.9 1622.19 2218.12 1620.83 Q2220.34 1619.46 2223.35 1619.46 Q2227.4 1619.46 2229.6 1622.31 Q2231.8 1625.13 2231.8 1630.36 L2231.8 1646.01 L2227.52 1646.01 L2227.52 1630.5 Q2227.52 1626.78 2226.2 1624.97 Q2224.88 1623.17 2222.17 1623.17 Q2218.86 1623.17 2216.94 1625.36 Q2215.02 1627.56 2215.02 1631.36 L2215.02 1646.01 L2210.73 1646.01 L2210.73 1630.5 Q2210.73 1626.75 2209.42 1624.97 Q2208.1 1623.17 2205.34 1623.17 Q2202.08 1623.17 2200.16 1625.39 Q2198.23 1627.59 2198.23 1631.36 L2198.23 1646.01 L2193.95 1646.01 L2193.95 1620.09 L2198.23 1620.09 L2198.23 1624.11 Q2199.69 1621.73 2201.73 1620.6 Q2203.77 1619.46 2206.57 1619.46 Q2209.39 1619.46 2211.36 1620.9 Q2213.35 1622.33 2214.3 1625.06 Z" fill="#000000" fill-rule="nonzero" fill-opacity="1" /><path clip-path="url(#clip760)" d="M2255.92 1624.49 L2285.6 1624.49 L2285.6 1628.37 L2255.92 1628.37 L2255.92 1624.49 M2255.92 1633.93 L2285.6 1633.93 L2285.6 1637.86 L2255.92 1637.86 L2255.92 1633.93 Z" fill="#000000" fill-rule="nonzero" fill-opacity="1" /><path clip-path="url(#clip760)" d="M2310.8 1611.45 L2329.16 1611.45 L2329.16 1615.39 L2315.09 1615.39 L2315.09 1623.86 Q2316.1 1623.51 2317.12 1623.35 Q2318.14 1623.17 2319.16 1623.17 Q2324.95 1623.17 2328.33 1626.34 Q2331.71 1629.51 2331.71 1634.92 Q2331.71 1640.5 2328.23 1643.61 Q2324.76 1646.68 2318.44 1646.68 Q2316.27 1646.68 2314 1646.31 Q2311.75 1645.94 2309.35 1645.2 L2309.35 1640.5 Q2311.43 1641.64 2313.65 1642.19 Q2315.87 1642.75 2318.35 1642.75 Q2322.35 1642.75 2324.69 1640.64 Q2327.03 1638.54 2327.03 1634.92 Q2327.03 1631.31 2324.69 1629.21 Q2322.35 1627.1 2318.35 1627.1 Q2316.47 1627.1 2314.6 1627.52 Q2312.75 1627.93 2310.8 1628.81 L2310.8 1611.45 Z" fill="#000000" fill-rule="nonzero" fill-opacity="1" /><path clip-path="url(#clip760)" d="M2340.92 1640.13 L2345.8 1640.13 L2345.8 1646.01 L2340.92 1646.01 L2340.92 1640.13 Z" fill="#000000" fill-rule="nonzero" fill-opacity="1" /><path clip-path="url(#clip760)" d="M2365.99 1614.53 Q2362.38 1614.53 2360.55 1618.1 Q2358.74 1621.64 2358.74 1628.77 Q2358.74 1635.87 2360.55 1639.44 Q2362.38 1642.98 2365.99 1642.98 Q2369.62 1642.98 2371.43 1639.44 Q2373.26 1635.87 2373.26 1628.77 Q2373.26 1621.64 2371.43 1618.1 Q2369.62 1614.53 2365.99 1614.53 M2365.99 1610.83 Q2371.8 1610.83 2374.85 1615.43 Q2377.93 1620.02 2377.93 1628.77 Q2377.93 1637.49 2374.85 1642.1 Q2371.8 1646.68 2365.99 1646.68 Q2360.18 1646.68 2357.1 1642.1 Q2354.04 1637.49 2354.04 1628.77 Q2354.04 1620.02 2357.1 1615.43 Q2360.18 1610.83 2365.99 1610.83 Z" fill="#000000" fill-rule="nonzero" fill-opacity="1" /></svg>
