<?xml version="1.0" encoding="utf-8"?>
<svg xmlns="http://www.w3.org/2000/svg" xmlns:xlink="http://www.w3.org/1999/xlink" width="672" height="480" viewBox="0 0 2688 1920">
<defs>
  <clipPath id="clip610">
    <rect x="0" y="0" width="2688" height="1920"/>
  </clipPath>
</defs>
<path clip-path="url(#clip610)" d="M0 1920 L2688 1920 L2688 -4.26326e-14 L0 -4.26326e-14  Z" fill="#ffffff" fill-rule="evenodd" fill-opacity="1"/>
<defs>
  <clipPath id="clip611">
    <rect x="225" y="127" width="2416" height="1607"/>
  </clipPath>
</defs>
<path clip-path="url(#clip610)" d="M225.307 1734.12 L2640.76 1734.12 L2640.76 127.792 L225.307 127.792  Z" fill="#ffffff" fill-rule="evenodd" fill-opacity="1"/>
<polyline clip-path="url(#clip611)" style="stroke:#000000; stroke-linecap:round; stroke-linejoin:round; stroke-width:2; stroke-opacity:0.1; fill:none" points="773.401,1734.12 773.401,127.792 "/>
<polyline clip-path="url(#clip611)" style="stroke:#000000; stroke-linecap:round; stroke-linejoin:round; stroke-width:2; stroke-opacity:0.1; fill:none" points="1373.07,1734.12 1373.07,127.792 "/>
<polyline clip-path="url(#clip611)" style="stroke:#000000; stroke-linecap:round; stroke-linejoin:round; stroke-width:2; stroke-opacity:0.1; fill:none" points="1972.73,1734.12 1972.73,127.792 "/>
<polyline clip-path="url(#clip611)" style="stroke:#000000; stroke-linecap:round; stroke-linejoin:round; stroke-width:2; stroke-opacity:0.1; fill:none" points="2572.39,1734.12 2572.39,127.792 "/>
<polyline clip-path="url(#clip611)" style="stroke:#000000; stroke-linecap:round; stroke-linejoin:round; stroke-width:2; stroke-opacity:0.1; fill:none" points="225.307,1490.79 2640.76,1490.79 "/>
<polyline clip-path="url(#clip611)" style="stroke:#000000; stroke-linecap:round; stroke-linejoin:round; stroke-width:2; stroke-opacity:0.1; fill:none" points="225.307,1051.61 2640.76,1051.61 "/>
<polyline clip-path="url(#clip611)" style="stroke:#000000; stroke-linecap:round; stroke-linejoin:round; stroke-width:2; stroke-opacity:0.1; fill:none" points="225.307,612.432 2640.76,612.432 "/>
<polyline clip-path="url(#clip611)" style="stroke:#000000; stroke-linecap:round; stroke-linejoin:round; stroke-width:2; stroke-opacity:0.1; fill:none" points="225.307,173.254 2640.76,173.254 "/>
<polyline clip-path="url(#clip610)" style="stroke:#000000; stroke-linecap:round; stroke-linejoin:round; stroke-width:4; stroke-opacity:1; fill:none" points="225.307,1734.12 2640.76,1734.12 "/>
<polyline clip-path="url(#clip610)" style="stroke:#000000; stroke-linecap:round; stroke-linejoin:round; stroke-width:4; stroke-opacity:1; fill:none" points="773.401,1734.12 773.401,1715.22 "/>
<polyline clip-path="url(#clip610)" style="stroke:#000000; stroke-linecap:round; stroke-linejoin:round; stroke-width:4; stroke-opacity:1; fill:none" points="1373.07,1734.12 1373.07,1715.22 "/>
<polyline clip-path="url(#clip610)" style="stroke:#000000; stroke-linecap:round; stroke-linejoin:round; stroke-width:4; stroke-opacity:1; fill:none" points="1972.73,1734.12 1972.73,1715.22 "/>
<polyline clip-path="url(#clip610)" style="stroke:#000000; stroke-linecap:round; stroke-linejoin:round; stroke-width:4; stroke-opacity:1; fill:none" points="2572.39,1734.12 2572.39,1715.22 "/>
<path clip-path="url(#clip610)" d="M763.678 1764.26 L782.035 1764.26 L782.035 1768.2 L767.961 1768.2 L767.961 1776.67 Q768.979 1776.32 769.998 1776.16 Q771.016 1775.97 772.035 1775.97 Q777.822 1775.97 781.201 1779.15 Q784.581 1782.32 784.581 1787.73 Q784.581 1793.31 781.109 1796.41 Q777.637 1799.49 771.317 1799.49 Q769.141 1799.49 766.873 1799.12 Q764.627 1798.75 762.22 1798.01 L762.22 1793.31 Q764.303 1794.45 766.526 1795 Q768.748 1795.56 771.225 1795.56 Q775.229 1795.56 777.567 1793.45 Q779.905 1791.34 779.905 1787.73 Q779.905 1784.12 777.567 1782.02 Q775.229 1779.91 771.225 1779.91 Q769.35 1779.91 767.475 1780.33 Q765.623 1780.74 763.678 1781.62 L763.678 1764.26 Z" fill="#000000" fill-rule="nonzero" fill-opacity="1" /><path clip-path="url(#clip610)" d="M1347.75 1794.89 L1355.39 1794.89 L1355.39 1768.52 L1347.08 1770.19 L1347.08 1765.93 L1355.35 1764.26 L1360.02 1764.26 L1360.02 1794.89 L1367.66 1794.89 L1367.66 1798.82 L1347.75 1798.82 L1347.75 1794.89 Z" fill="#000000" fill-rule="nonzero" fill-opacity="1" /><path clip-path="url(#clip610)" d="M1387.1 1767.34 Q1383.49 1767.34 1381.66 1770.9 Q1379.86 1774.45 1379.86 1781.58 Q1379.86 1788.68 1381.66 1792.25 Q1383.49 1795.79 1387.1 1795.79 Q1390.74 1795.79 1392.54 1792.25 Q1394.37 1788.68 1394.37 1781.58 Q1394.37 1774.45 1392.54 1770.9 Q1390.74 1767.34 1387.1 1767.34 M1387.1 1763.64 Q1392.91 1763.64 1395.97 1768.24 Q1399.05 1772.83 1399.05 1781.58 Q1399.05 1790.3 1395.97 1794.91 Q1392.91 1799.49 1387.1 1799.49 Q1381.29 1799.49 1378.22 1794.91 Q1375.16 1790.3 1375.16 1781.58 Q1375.16 1772.83 1378.22 1768.24 Q1381.29 1763.64 1387.1 1763.64 Z" fill="#000000" fill-rule="nonzero" fill-opacity="1" /><path clip-path="url(#clip610)" d="M1947.91 1794.89 L1955.55 1794.89 L1955.55 1768.52 L1947.24 1770.19 L1947.24 1765.93 L1955.51 1764.26 L1960.18 1764.26 L1960.18 1794.89 L1967.82 1794.89 L1967.82 1798.82 L1947.91 1798.82 L1947.91 1794.89 Z" fill="#000000" fill-rule="nonzero" fill-opacity="1" /><path clip-path="url(#clip610)" d="M1977.31 1764.26 L1995.67 1764.26 L1995.67 1768.2 L1981.6 1768.2 L1981.6 1776.67 Q1982.61 1776.32 1983.63 1776.16 Q1984.65 1775.97 1985.67 1775.97 Q1991.46 1775.97 1994.84 1779.15 Q1998.22 1782.32 1998.22 1787.73 Q1998.22 1793.31 1994.74 1796.41 Q1991.27 1799.49 1984.95 1799.49 Q1982.78 1799.49 1980.51 1799.12 Q1978.26 1798.75 1975.85 1798.01 L1975.85 1793.31 Q1977.94 1794.45 1980.16 1795 Q1982.38 1795.56 1984.86 1795.56 Q1988.86 1795.56 1991.2 1793.45 Q1993.54 1791.34 1993.54 1787.73 Q1993.54 1784.12 1991.2 1782.02 Q1988.86 1779.91 1984.86 1779.91 Q1982.98 1779.91 1981.11 1780.33 Q1979.26 1780.74 1977.31 1781.62 L1977.31 1764.26 Z" fill="#000000" fill-rule="nonzero" fill-opacity="1" /><path clip-path="url(#clip610)" d="M2551.17 1794.89 L2567.49 1794.89 L2567.49 1798.82 L2545.54 1798.82 L2545.54 1794.89 Q2548.2 1792.13 2552.79 1787.5 Q2557.39 1782.85 2558.57 1781.51 Q2560.82 1778.98 2561.7 1777.25 Q2562.6 1775.49 2562.6 1773.8 Q2562.6 1771.04 2560.66 1769.31 Q2558.74 1767.57 2555.63 1767.57 Q2553.44 1767.57 2550.98 1768.34 Q2548.55 1769.1 2545.77 1770.65 L2545.77 1765.93 Q2548.6 1764.79 2551.05 1764.21 Q2553.51 1763.64 2555.54 1763.64 Q2560.91 1763.64 2564.11 1766.32 Q2567.3 1769.01 2567.3 1773.5 Q2567.3 1775.63 2566.49 1777.55 Q2565.7 1779.45 2563.6 1782.04 Q2563.02 1782.71 2559.92 1785.93 Q2556.82 1789.12 2551.17 1794.89 Z" fill="#000000" fill-rule="nonzero" fill-opacity="1" /><path clip-path="url(#clip610)" d="M2587.3 1767.34 Q2583.69 1767.34 2581.86 1770.9 Q2580.06 1774.45 2580.06 1781.58 Q2580.06 1788.68 2581.86 1792.25 Q2583.69 1795.79 2587.3 1795.79 Q2590.94 1795.79 2592.74 1792.25 Q2594.57 1788.68 2594.57 1781.58 Q2594.57 1774.45 2592.74 1770.9 Q2590.94 1767.34 2587.3 1767.34 M2587.3 1763.64 Q2593.11 1763.64 2596.17 1768.24 Q2599.25 1772.83 2599.25 1781.58 Q2599.25 1790.3 2596.17 1794.91 Q2593.11 1799.49 2587.3 1799.49 Q2581.49 1799.49 2578.41 1794.91 Q2575.36 1790.3 2575.36 1781.58 Q2575.36 1772.83 2578.41 1768.24 Q2581.49 1763.64 2587.3 1763.64 Z" fill="#000000" fill-rule="nonzero" fill-opacity="1" /><path clip-path="url(#clip610)" d="M1147.37 1861.02 Q1149.44 1861.72 1151.38 1864.01 Q1153.35 1866.3 1155.33 1870.31 L1161.85 1883.3 L1154.95 1883.3 L1148.87 1871.11 Q1146.51 1866.34 1144.28 1864.78 Q1142.09 1863.22 1138.27 1863.22 L1131.27 1863.22 L1131.27 1883.3 L1124.84 1883.3 L1124.84 1835.78 L1139.35 1835.78 Q1147.5 1835.78 1151.51 1839.19 Q1155.52 1842.59 1155.52 1849.47 Q1155.52 1853.96 1153.42 1856.92 Q1151.35 1859.88 1147.37 1861.02 M1131.27 1841.06 L1131.27 1857.93 L1139.35 1857.93 Q1144 1857.93 1146.35 1855.8 Q1148.74 1853.64 1148.74 1849.47 Q1148.74 1845.3 1146.35 1843.2 Q1144 1841.06 1139.35 1841.06 L1131.27 1841.06 Z" fill="#000000" fill-rule="nonzero" fill-opacity="1" /><path clip-path="url(#clip610)" d="M1197.44 1864.01 L1197.44 1866.88 L1170.51 1866.88 Q1170.89 1872.92 1174.14 1876.11 Q1177.42 1879.26 1183.24 1879.26 Q1186.62 1879.26 1189.77 1878.43 Q1192.95 1877.6 1196.07 1875.95 L1196.07 1881.49 Q1192.92 1882.82 1189.61 1883.52 Q1186.3 1884.22 1182.89 1884.22 Q1174.36 1884.22 1169.36 1879.26 Q1164.4 1874.29 1164.4 1865.83 Q1164.4 1857.07 1169.11 1851.95 Q1173.85 1846.79 1181.87 1846.79 Q1189.07 1846.79 1193.24 1851.44 Q1197.44 1856.06 1197.44 1864.01 M1191.58 1862.29 Q1191.52 1857.49 1188.87 1854.62 Q1186.26 1851.76 1181.94 1851.76 Q1177.03 1851.76 1174.07 1854.53 Q1171.15 1857.3 1170.7 1862.33 L1191.58 1862.29 Z" fill="#000000" fill-rule="nonzero" fill-opacity="1" /><path clip-path="url(#clip610)" d="M1229.77 1848.7 L1229.77 1854.24 Q1227.29 1852.97 1224.62 1852.33 Q1221.94 1851.7 1219.08 1851.7 Q1214.72 1851.7 1212.52 1853.03 Q1210.36 1854.37 1210.36 1857.04 Q1210.36 1859.08 1211.92 1860.26 Q1213.48 1861.4 1218.19 1862.45 L1220.19 1862.9 Q1226.43 1864.24 1229.04 1866.69 Q1231.68 1869.11 1231.68 1873.47 Q1231.68 1878.43 1227.74 1881.33 Q1223.82 1884.22 1216.95 1884.22 Q1214.08 1884.22 1210.96 1883.65 Q1207.88 1883.11 1204.44 1882 L1204.44 1875.95 Q1207.69 1877.64 1210.84 1878.49 Q1213.99 1879.32 1217.07 1879.32 Q1221.21 1879.32 1223.44 1877.92 Q1225.67 1876.49 1225.67 1873.91 Q1225.67 1871.52 1224.05 1870.25 Q1222.45 1868.98 1217.01 1867.8 L1214.97 1867.32 Q1209.53 1866.18 1207.11 1863.82 Q1204.69 1861.43 1204.69 1857.3 Q1204.69 1852.27 1208.26 1849.53 Q1211.82 1846.79 1218.38 1846.79 Q1221.63 1846.79 1224.49 1847.27 Q1227.36 1847.75 1229.77 1848.7 Z" fill="#000000" fill-rule="nonzero" fill-opacity="1" /><path clip-path="url(#clip610)" d="M1254.82 1851.76 Q1250.11 1851.76 1247.38 1855.45 Q1244.64 1859.11 1244.64 1865.51 Q1244.64 1871.91 1247.34 1875.6 Q1250.08 1879.26 1254.82 1879.26 Q1259.5 1879.26 1262.24 1875.57 Q1264.98 1871.87 1264.98 1865.51 Q1264.98 1859.17 1262.24 1855.48 Q1259.5 1851.76 1254.82 1851.76 M1254.82 1846.79 Q1262.46 1846.79 1266.82 1851.76 Q1271.18 1856.72 1271.18 1865.51 Q1271.18 1874.26 1266.82 1879.26 Q1262.46 1884.22 1254.82 1884.22 Q1247.15 1884.22 1242.79 1879.26 Q1238.46 1874.26 1238.46 1865.51 Q1238.46 1856.72 1242.79 1851.76 Q1247.15 1846.79 1254.82 1846.79 Z" fill="#000000" fill-rule="nonzero" fill-opacity="1" /><path clip-path="url(#clip610)" d="M1280.29 1869.23 L1280.29 1847.65 L1286.14 1847.65 L1286.14 1869.01 Q1286.14 1874.07 1288.12 1876.62 Q1290.09 1879.13 1294.04 1879.13 Q1298.78 1879.13 1301.52 1876.11 Q1304.29 1873.08 1304.29 1867.86 L1304.29 1847.65 L1310.14 1847.65 L1310.14 1883.3 L1304.29 1883.3 L1304.29 1877.83 Q1302.15 1881.07 1299.32 1882.66 Q1296.52 1884.22 1292.8 1884.22 Q1286.65 1884.22 1283.47 1880.4 Q1280.29 1876.59 1280.29 1869.23 M1295.02 1846.79 L1295.02 1846.79 Z" fill="#000000" fill-rule="nonzero" fill-opacity="1" /><path clip-path="url(#clip610)" d="M1342.86 1853.13 Q1341.87 1852.55 1340.7 1852.3 Q1339.55 1852.01 1338.15 1852.01 Q1333.19 1852.01 1330.51 1855.26 Q1327.87 1858.47 1327.87 1864.52 L1327.87 1883.3 L1321.98 1883.3 L1321.98 1847.65 L1327.87 1847.65 L1327.87 1853.19 Q1329.72 1849.94 1332.68 1848.39 Q1335.64 1846.79 1339.87 1846.79 Q1340.47 1846.79 1341.21 1846.89 Q1341.94 1846.95 1342.83 1847.11 L1342.86 1853.13 Z" fill="#000000" fill-rule="nonzero" fill-opacity="1" /><path clip-path="url(#clip610)" d="M1373.23 1849.02 L1373.23 1854.5 Q1370.74 1853.13 1368.23 1852.46 Q1365.75 1851.76 1363.2 1851.76 Q1357.5 1851.76 1354.35 1855.39 Q1351.2 1858.98 1351.2 1865.51 Q1351.2 1872.03 1354.35 1875.66 Q1357.5 1879.26 1363.2 1879.26 Q1365.75 1879.26 1368.23 1878.59 Q1370.74 1877.89 1373.23 1876.52 L1373.23 1881.93 Q1370.77 1883.08 1368.13 1883.65 Q1365.52 1884.22 1362.56 1884.22 Q1354.51 1884.22 1349.77 1879.16 Q1345.03 1874.1 1345.03 1865.51 Q1345.03 1856.79 1349.8 1851.79 Q1354.61 1846.79 1362.95 1846.79 Q1365.65 1846.79 1368.23 1847.37 Q1370.81 1847.91 1373.23 1849.02 Z" fill="#000000" fill-rule="nonzero" fill-opacity="1" /><path clip-path="url(#clip610)" d="M1413.9 1864.01 L1413.9 1866.88 L1386.98 1866.88 Q1387.36 1872.92 1390.6 1876.11 Q1393.88 1879.26 1399.71 1879.26 Q1403.08 1879.26 1406.23 1878.43 Q1409.41 1877.6 1412.53 1875.95 L1412.53 1881.49 Q1409.38 1882.82 1406.07 1883.52 Q1402.76 1884.22 1399.36 1884.22 Q1390.83 1884.22 1385.83 1879.26 Q1380.86 1874.29 1380.86 1865.83 Q1380.86 1857.07 1385.58 1851.95 Q1390.32 1846.79 1398.34 1846.79 Q1405.53 1846.79 1409.7 1851.44 Q1413.9 1856.06 1413.9 1864.01 M1408.05 1862.29 Q1407.98 1857.49 1405.34 1854.62 Q1402.73 1851.76 1398.4 1851.76 Q1393.5 1851.76 1390.54 1854.53 Q1387.61 1857.3 1387.17 1862.33 L1408.05 1862.29 Z" fill="#000000" fill-rule="nonzero" fill-opacity="1" /><path clip-path="url(#clip610)" d="M1467.69 1853.06 L1467.69 1833.78 L1473.55 1833.78 L1473.55 1883.3 L1467.69 1883.3 L1467.69 1877.95 Q1465.85 1881.14 1463.01 1882.7 Q1460.21 1884.22 1456.27 1884.22 Q1449.81 1884.22 1445.73 1879.07 Q1441.69 1873.91 1441.69 1865.51 Q1441.69 1857.11 1445.73 1851.95 Q1449.81 1846.79 1456.27 1846.79 Q1460.21 1846.79 1463.01 1848.35 Q1465.85 1849.88 1467.69 1853.06 M1447.74 1865.51 Q1447.74 1871.97 1450.38 1875.66 Q1453.05 1879.32 1457.7 1879.32 Q1462.35 1879.32 1465.02 1875.66 Q1467.69 1871.97 1467.69 1865.51 Q1467.69 1859.05 1465.02 1855.39 Q1462.35 1851.7 1457.7 1851.7 Q1453.05 1851.7 1450.38 1855.39 Q1447.74 1859.05 1447.74 1865.51 Z" fill="#000000" fill-rule="nonzero" fill-opacity="1" /><path clip-path="url(#clip610)" d="M1516.1 1864.01 L1516.1 1866.88 L1489.18 1866.88 Q1489.56 1872.92 1492.81 1876.11 Q1496.08 1879.26 1501.91 1879.26 Q1505.28 1879.26 1508.43 1878.43 Q1511.62 1877.6 1514.74 1875.95 L1514.74 1881.49 Q1511.58 1882.82 1508.27 1883.52 Q1504.96 1884.22 1501.56 1884.22 Q1493.03 1884.22 1488.03 1879.26 Q1483.07 1874.29 1483.07 1865.83 Q1483.07 1857.07 1487.78 1851.95 Q1492.52 1846.79 1500.54 1846.79 Q1507.73 1846.79 1511.9 1851.44 Q1516.1 1856.06 1516.1 1864.01 M1510.25 1862.29 Q1510.18 1857.49 1507.54 1854.62 Q1504.93 1851.76 1500.6 1851.76 Q1495.7 1851.76 1492.74 1854.53 Q1489.81 1857.3 1489.37 1862.33 L1510.25 1862.29 Z" fill="#000000" fill-rule="nonzero" fill-opacity="1" /><path clip-path="url(#clip610)" d="M1555.35 1861.78 L1555.35 1883.3 L1549.49 1883.3 L1549.49 1861.98 Q1549.49 1856.92 1547.52 1854.4 Q1545.55 1851.89 1541.6 1851.89 Q1536.86 1851.89 1534.12 1854.91 Q1531.38 1857.93 1531.38 1863.15 L1531.38 1883.3 L1525.49 1883.3 L1525.49 1847.65 L1531.38 1847.65 L1531.38 1853.19 Q1533.48 1849.98 1536.32 1848.39 Q1539.18 1846.79 1542.9 1846.79 Q1549.05 1846.79 1552.2 1850.61 Q1555.35 1854.4 1555.35 1861.78 Z" fill="#000000" fill-rule="nonzero" fill-opacity="1" /><path clip-path="url(#clip610)" d="M1589.76 1848.7 L1589.76 1854.24 Q1587.27 1852.97 1584.6 1852.33 Q1581.93 1851.7 1579.06 1851.7 Q1574.7 1851.7 1572.5 1853.03 Q1570.34 1854.37 1570.34 1857.04 Q1570.34 1859.08 1571.9 1860.26 Q1573.46 1861.4 1578.17 1862.45 L1580.17 1862.9 Q1586.41 1864.24 1589.02 1866.69 Q1591.66 1869.11 1591.66 1873.47 Q1591.66 1878.43 1587.72 1881.33 Q1583.8 1884.22 1576.93 1884.22 Q1574.06 1884.22 1570.94 1883.65 Q1567.86 1883.11 1564.42 1882 L1564.42 1875.95 Q1567.67 1877.64 1570.82 1878.49 Q1573.97 1879.32 1577.06 1879.32 Q1581.19 1879.32 1583.42 1877.92 Q1585.65 1876.49 1585.65 1873.91 Q1585.65 1871.52 1584.03 1870.25 Q1582.43 1868.98 1576.99 1867.8 L1574.95 1867.32 Q1569.51 1866.18 1567.09 1863.82 Q1564.67 1861.43 1564.67 1857.3 Q1564.67 1852.27 1568.24 1849.53 Q1571.8 1846.79 1578.36 1846.79 Q1581.61 1846.79 1584.47 1847.27 Q1587.34 1847.75 1589.76 1848.7 Z" fill="#000000" fill-rule="nonzero" fill-opacity="1" /><path clip-path="url(#clip610)" d="M1600.99 1847.65 L1606.85 1847.65 L1606.85 1883.3 L1600.99 1883.3 L1600.99 1847.65 M1600.99 1833.78 L1606.85 1833.78 L1606.85 1841.19 L1600.99 1841.19 L1600.99 1833.78 Z" fill="#000000" fill-rule="nonzero" fill-opacity="1" /><path clip-path="url(#clip610)" d="M1624.89 1837.53 L1624.89 1847.65 L1636.96 1847.65 L1636.96 1852.2 L1624.89 1852.2 L1624.89 1871.56 Q1624.89 1875.92 1626.07 1877.16 Q1627.28 1878.4 1630.94 1878.4 L1636.96 1878.4 L1636.96 1883.3 L1630.94 1883.3 Q1624.16 1883.3 1621.58 1880.79 Q1619.01 1878.24 1619.01 1871.56 L1619.01 1852.2 L1614.71 1852.2 L1614.71 1847.65 L1619.01 1847.65 L1619.01 1837.53 L1624.89 1837.53 Z" fill="#000000" fill-rule="nonzero" fill-opacity="1" /><path clip-path="url(#clip610)" d="M1659.49 1886.61 Q1657.01 1892.98 1654.65 1894.92 Q1652.3 1896.86 1648.35 1896.86 L1643.67 1896.86 L1643.67 1891.96 L1647.11 1891.96 Q1649.53 1891.96 1650.87 1890.81 Q1652.2 1889.67 1653.83 1885.4 L1654.88 1882.73 L1640.46 1847.65 L1646.66 1847.65 L1657.8 1875.53 L1668.94 1847.65 L1675.15 1847.65 L1659.49 1886.61 Z" fill="#000000" fill-rule="nonzero" fill-opacity="1" /><path clip-path="url(#clip610)" d="M1726.75 1861.02 Q1728.81 1861.72 1730.76 1864.01 Q1732.73 1866.3 1734.7 1870.31 L1741.23 1883.3 L1734.32 1883.3 L1728.24 1871.11 Q1725.89 1866.34 1723.66 1864.78 Q1721.46 1863.22 1717.64 1863.22 L1710.64 1863.22 L1710.64 1883.3 L1704.21 1883.3 L1704.21 1835.78 L1718.72 1835.78 Q1726.87 1835.78 1730.88 1839.19 Q1734.89 1842.59 1734.89 1849.47 Q1734.89 1853.96 1732.79 1856.92 Q1730.72 1859.88 1726.75 1861.02 M1710.64 1841.06 L1710.64 1857.93 L1718.72 1857.93 Q1723.37 1857.93 1725.73 1855.8 Q1728.11 1853.64 1728.11 1849.47 Q1728.11 1845.3 1725.73 1843.2 Q1723.37 1841.06 1718.72 1841.06 L1710.64 1841.06 Z" fill="#000000" fill-rule="nonzero" fill-opacity="1" /><polyline clip-path="url(#clip610)" style="stroke:#000000; stroke-linecap:round; stroke-linejoin:round; stroke-width:4; stroke-opacity:1; fill:none" points="225.307,1734.12 225.307,127.792 "/>
<polyline clip-path="url(#clip610)" style="stroke:#000000; stroke-linecap:round; stroke-linejoin:round; stroke-width:4; stroke-opacity:1; fill:none" points="225.307,1490.79 244.205,1490.79 "/>
<polyline clip-path="url(#clip610)" style="stroke:#000000; stroke-linecap:round; stroke-linejoin:round; stroke-width:4; stroke-opacity:1; fill:none" points="225.307,1051.61 244.205,1051.61 "/>
<polyline clip-path="url(#clip610)" style="stroke:#000000; stroke-linecap:round; stroke-linejoin:round; stroke-width:4; stroke-opacity:1; fill:none" points="225.307,612.432 244.205,612.432 "/>
<polyline clip-path="url(#clip610)" style="stroke:#000000; stroke-linecap:round; stroke-linejoin:round; stroke-width:4; stroke-opacity:1; fill:none" points="225.307,173.254 244.205,173.254 "/>
<path clip-path="url(#clip610)" d="M128.807 1476.59 Q125.196 1476.59 123.367 1480.15 Q121.562 1483.69 121.562 1490.82 Q121.562 1497.93 123.367 1501.49 Q125.196 1505.04 128.807 1505.04 Q132.441 1505.04 134.247 1501.49 Q136.075 1497.93 136.075 1490.82 Q136.075 1483.69 134.247 1480.15 Q132.441 1476.59 128.807 1476.59 M128.807 1472.88 Q134.617 1472.88 137.673 1477.49 Q140.751 1482.07 140.751 1490.82 Q140.751 1499.55 137.673 1504.16 Q134.617 1508.74 128.807 1508.74 Q122.997 1508.74 119.918 1504.16 Q116.863 1499.55 116.863 1490.82 Q116.863 1482.07 119.918 1477.49 Q122.997 1472.88 128.807 1472.88 Z" fill="#000000" fill-rule="nonzero" fill-opacity="1" /><path clip-path="url(#clip610)" d="M148.969 1502.19 L153.853 1502.19 L153.853 1508.07 L148.969 1508.07 L148.969 1502.19 Z" fill="#000000" fill-rule="nonzero" fill-opacity="1" /><path clip-path="url(#clip610)" d="M164.085 1473.51 L182.441 1473.51 L182.441 1477.44 L168.367 1477.44 L168.367 1485.92 Q169.385 1485.57 170.404 1485.41 Q171.422 1485.22 172.441 1485.22 Q178.228 1485.22 181.608 1488.39 Q184.987 1491.56 184.987 1496.98 Q184.987 1502.56 181.515 1505.66 Q178.043 1508.74 171.723 1508.74 Q169.547 1508.74 167.279 1508.37 Q165.034 1508 162.626 1507.26 L162.626 1502.56 Q164.71 1503.69 166.932 1504.25 Q169.154 1504.8 171.631 1504.8 Q175.635 1504.8 177.973 1502.7 Q180.311 1500.59 180.311 1496.98 Q180.311 1493.37 177.973 1491.26 Q175.635 1489.16 171.631 1489.16 Q169.756 1489.16 167.881 1489.57 Q166.029 1489.99 164.085 1490.87 L164.085 1473.51 Z" fill="#000000" fill-rule="nonzero" fill-opacity="1" /><path clip-path="url(#clip610)" d="M118.622 1064.96 L126.261 1064.96 L126.261 1038.59 L117.951 1040.26 L117.951 1036 L126.214 1034.33 L130.89 1034.33 L130.89 1064.96 L138.529 1064.96 L138.529 1068.89 L118.622 1068.89 L118.622 1064.96 Z" fill="#000000" fill-rule="nonzero" fill-opacity="1" /><path clip-path="url(#clip610)" d="M147.974 1063.01 L152.858 1063.01 L152.858 1068.89 L147.974 1068.89 L147.974 1063.01 Z" fill="#000000" fill-rule="nonzero" fill-opacity="1" /><path clip-path="url(#clip610)" d="M173.043 1037.41 Q169.432 1037.41 167.603 1040.97 Q165.798 1044.52 165.798 1051.64 Q165.798 1058.75 167.603 1062.32 Q169.432 1065.86 173.043 1065.86 Q176.677 1065.86 178.483 1062.32 Q180.311 1058.75 180.311 1051.64 Q180.311 1044.52 178.483 1040.97 Q176.677 1037.41 173.043 1037.41 M173.043 1033.71 Q178.853 1033.71 181.909 1038.31 Q184.987 1042.9 184.987 1051.64 Q184.987 1060.37 181.909 1064.98 Q178.853 1069.56 173.043 1069.56 Q167.233 1069.56 164.154 1064.98 Q161.098 1060.37 161.098 1051.64 Q161.098 1042.9 164.154 1038.31 Q167.233 1033.71 173.043 1033.71 Z" fill="#000000" fill-rule="nonzero" fill-opacity="1" /><path clip-path="url(#clip610)" d="M119.617 625.777 L127.256 625.777 L127.256 599.411 L118.946 601.078 L118.946 596.819 L127.21 595.152 L131.886 595.152 L131.886 625.777 L139.525 625.777 L139.525 629.712 L119.617 629.712 L119.617 625.777 Z" fill="#000000" fill-rule="nonzero" fill-opacity="1" /><path clip-path="url(#clip610)" d="M148.969 623.833 L153.853 623.833 L153.853 629.712 L148.969 629.712 L148.969 623.833 Z" fill="#000000" fill-rule="nonzero" fill-opacity="1" /><path clip-path="url(#clip610)" d="M164.085 595.152 L182.441 595.152 L182.441 599.087 L168.367 599.087 L168.367 607.56 Q169.385 607.212 170.404 607.05 Q171.422 606.865 172.441 606.865 Q178.228 606.865 181.608 610.036 Q184.987 613.208 184.987 618.624 Q184.987 624.203 181.515 627.305 Q178.043 630.384 171.723 630.384 Q169.547 630.384 167.279 630.013 Q165.034 629.643 162.626 628.902 L162.626 624.203 Q164.71 625.337 166.932 625.893 Q169.154 626.448 171.631 626.448 Q175.635 626.448 177.973 624.342 Q180.311 622.235 180.311 618.624 Q180.311 615.013 177.973 612.907 Q175.635 610.8 171.631 610.8 Q169.756 610.8 167.881 611.217 Q166.029 611.634 164.085 612.513 L164.085 595.152 Z" fill="#000000" fill-rule="nonzero" fill-opacity="1" /><path clip-path="url(#clip610)" d="M121.839 186.599 L138.159 186.599 L138.159 190.534 L116.214 190.534 L116.214 186.599 Q118.876 183.844 123.46 179.215 Q128.066 174.562 129.247 173.219 Q131.492 170.696 132.372 168.96 Q133.275 167.201 133.275 165.511 Q133.275 162.757 131.33 161.02 Q129.409 159.284 126.307 159.284 Q124.108 159.284 121.654 160.048 Q119.224 160.812 116.446 162.363 L116.446 157.641 Q119.27 156.507 121.724 155.928 Q124.177 155.349 126.214 155.349 Q131.585 155.349 134.779 158.034 Q137.974 160.719 137.974 165.21 Q137.974 167.34 137.163 169.261 Q136.376 171.159 134.27 173.752 Q133.691 174.423 130.589 177.641 Q127.488 180.835 121.839 186.599 Z" fill="#000000" fill-rule="nonzero" fill-opacity="1" /><path clip-path="url(#clip610)" d="M147.974 184.655 L152.858 184.655 L152.858 190.534 L147.974 190.534 L147.974 184.655 Z" fill="#000000" fill-rule="nonzero" fill-opacity="1" /><path clip-path="url(#clip610)" d="M173.043 159.053 Q169.432 159.053 167.603 162.618 Q165.798 166.159 165.798 173.289 Q165.798 180.395 167.603 183.96 Q169.432 187.502 173.043 187.502 Q176.677 187.502 178.483 183.96 Q180.311 180.395 180.311 173.289 Q180.311 166.159 178.483 162.618 Q176.677 159.053 173.043 159.053 M173.043 155.349 Q178.853 155.349 181.909 159.956 Q184.987 164.539 184.987 173.289 Q184.987 182.016 181.909 186.622 Q178.853 191.205 173.043 191.205 Q167.233 191.205 164.154 186.622 Q161.098 182.016 161.098 173.289 Q161.098 164.539 164.154 159.956 Q167.233 155.349 173.043 155.349 Z" fill="#000000" fill-rule="nonzero" fill-opacity="1" /><path clip-path="url(#clip610)" d="M14.1184 1320.92 L14.1184 1293.61 L19.5293 1293.61 L19.5293 1314.49 L33.5338 1314.49 L33.5338 1295.65 L38.9447 1295.65 L38.9447 1314.49 L61.6384 1314.49 L61.6384 1320.92 L14.1184 1320.92 Z" fill="#000000" fill-rule="nonzero" fill-opacity="1" /><path clip-path="url(#clip610)" d="M47.5702 1287.85 L25.9905 1287.85 L25.9905 1281.99 L47.3474 1281.99 Q52.4082 1281.99 54.9545 1280.02 Q57.4689 1278.04 57.4689 1274.1 Q57.4689 1269.36 54.4452 1266.62 Q51.4215 1263.85 46.2016 1263.85 L25.9905 1263.85 L25.9905 1257.99 L61.6384 1257.99 L61.6384 1263.85 L56.1639 1263.85 Q59.4104 1265.98 61.0019 1268.81 Q62.5615 1271.62 62.5615 1275.34 Q62.5615 1281.48 58.742 1284.67 Q54.9226 1287.85 47.5702 1287.85 M25.1311 1273.11 L25.1311 1273.11 Z" fill="#000000" fill-rule="nonzero" fill-opacity="1" /><path clip-path="url(#clip610)" d="M40.1224 1216.3 L61.6384 1216.3 L61.6384 1222.15 L40.3133 1222.15 Q35.2526 1222.15 32.7381 1224.13 Q30.2237 1226.1 30.2237 1230.05 Q30.2237 1234.79 33.2474 1237.53 Q36.2711 1240.26 41.491 1240.26 L61.6384 1240.26 L61.6384 1246.15 L25.9905 1246.15 L25.9905 1240.26 L31.5287 1240.26 Q28.314 1238.16 26.7225 1235.33 Q25.1311 1232.47 25.1311 1228.74 Q25.1311 1222.6 28.9505 1219.45 Q32.7381 1216.3 40.1224 1216.3 Z" fill="#000000" fill-rule="nonzero" fill-opacity="1" /><path clip-path="url(#clip610)" d="M27.3591 1178.96 L32.8336 1178.96 Q31.465 1181.45 30.7966 1183.96 Q30.0964 1186.44 30.0964 1188.99 Q30.0964 1194.69 33.7248 1197.84 Q37.3214 1200.99 43.8463 1200.99 Q50.3711 1200.99 53.9996 1197.84 Q57.5962 1194.69 57.5962 1188.99 Q57.5962 1186.44 56.9278 1183.96 Q56.2276 1181.45 54.859 1178.96 L60.2698 1178.96 Q61.4156 1181.41 61.9886 1184.06 Q62.5615 1186.66 62.5615 1189.63 Q62.5615 1197.68 57.5007 1202.42 Q52.44 1207.16 43.8463 1207.16 Q35.1253 1207.16 30.1282 1202.39 Q25.1311 1197.58 25.1311 1189.24 Q25.1311 1186.54 25.704 1183.96 Q26.2451 1181.38 27.3591 1178.96 Z" fill="#000000" fill-rule="nonzero" fill-opacity="1" /><path clip-path="url(#clip610)" d="M15.869 1162.98 L25.9905 1162.98 L25.9905 1150.92 L30.542 1150.92 L30.542 1162.98 L49.8937 1162.98 Q54.2542 1162.98 55.4955 1161.81 Q56.7368 1160.6 56.7368 1156.94 L56.7368 1150.92 L61.6384 1150.92 L61.6384 1156.94 Q61.6384 1163.72 59.124 1166.29 Q56.5777 1168.87 49.8937 1168.87 L30.542 1168.87 L30.542 1173.17 L25.9905 1173.17 L25.9905 1168.87 L15.869 1168.87 L15.869 1162.98 Z" fill="#000000" fill-rule="nonzero" fill-opacity="1" /><path clip-path="url(#clip610)" d="M25.9905 1143.22 L25.9905 1137.36 L61.6384 1137.36 L61.6384 1143.22 L25.9905 1143.22 M12.1132 1143.22 L12.1132 1137.36 L19.5293 1137.36 L19.5293 1143.22 L12.1132 1143.22 Z" fill="#000000" fill-rule="nonzero" fill-opacity="1" /><path clip-path="url(#clip610)" d="M30.0964 1111.3 Q30.0964 1116.01 33.7885 1118.74 Q37.4488 1121.48 43.8463 1121.48 Q50.2438 1121.48 53.9359 1118.77 Q57.5962 1116.04 57.5962 1111.3 Q57.5962 1106.62 53.9041 1103.88 Q50.212 1101.14 43.8463 1101.14 Q37.5124 1101.14 33.8203 1103.88 Q30.0964 1106.62 30.0964 1111.3 M25.1311 1111.3 Q25.1311 1103.66 30.0964 1099.3 Q35.0616 1094.94 43.8463 1094.94 Q52.5991 1094.94 57.5962 1099.3 Q62.5615 1103.66 62.5615 1111.3 Q62.5615 1118.97 57.5962 1123.33 Q52.5991 1127.65 43.8463 1127.65 Q35.0616 1127.65 30.0964 1123.33 Q25.1311 1118.97 25.1311 1111.3 Z" fill="#000000" fill-rule="nonzero" fill-opacity="1" /><path clip-path="url(#clip610)" d="M40.1224 1055.6 L61.6384 1055.6 L61.6384 1061.45 L40.3133 1061.45 Q35.2526 1061.45 32.7381 1063.42 Q30.2237 1065.4 30.2237 1069.35 Q30.2237 1074.09 33.2474 1076.82 Q36.2711 1079.56 41.491 1079.56 L61.6384 1079.56 L61.6384 1085.45 L25.9905 1085.45 L25.9905 1079.56 L31.5287 1079.56 Q28.314 1077.46 26.7225 1074.63 Q25.1311 1071.76 25.1311 1068.04 Q25.1311 1061.9 28.9505 1058.75 Q32.7381 1055.6 40.1224 1055.6 Z" fill="#000000" fill-rule="nonzero" fill-opacity="1" /><path clip-path="url(#clip610)" d="M43.719 1027.71 Q43.719 1034.81 45.3422 1037.55 Q46.9655 1040.29 50.8804 1040.29 Q53.9996 1040.29 55.8457 1038.25 Q57.6599 1036.18 57.6599 1032.65 Q57.6599 1027.78 54.2224 1024.85 Q50.7531 1021.89 45.0239 1021.89 L43.719 1021.89 L43.719 1027.71 M41.3 1016.03 L61.6384 1016.03 L61.6384 1021.89 L56.2276 1021.89 Q59.4741 1023.89 61.0337 1026.89 Q62.5615 1029.88 62.5615 1034.21 Q62.5615 1039.68 59.5059 1042.93 Q56.4186 1046.14 51.2623 1046.14 Q45.2467 1046.14 42.1912 1042.13 Q39.1357 1038.09 39.1357 1030.1 L39.1357 1021.89 L38.5628 1021.89 Q34.5205 1021.89 32.3244 1024.56 Q30.0964 1027.2 30.0964 1032.01 Q30.0964 1035.07 30.8284 1037.96 Q31.5605 1040.86 33.0246 1043.53 L27.6137 1043.53 Q26.3724 1040.32 25.7677 1037.29 Q25.1311 1034.27 25.1311 1031.41 Q25.1311 1023.67 29.1415 1019.85 Q33.1519 1016.03 41.3 1016.03 Z" fill="#000000" fill-rule="nonzero" fill-opacity="1" /><path clip-path="url(#clip610)" d="M12.1132 1003.97 L12.1132 998.113 L61.6384 998.113 L61.6384 1003.97 L12.1132 1003.97 Z" fill="#000000" fill-rule="nonzero" fill-opacity="1" /><path clip-path="url(#clip610)" d="M31.465 944.482 Q30.8921 945.468 30.6375 946.646 Q30.351 947.792 30.351 949.192 Q30.351 954.158 33.5975 956.831 Q36.8122 959.473 42.8596 959.473 L61.6384 959.473 L61.6384 965.361 L25.9905 965.361 L25.9905 959.473 L31.5287 959.473 Q28.2821 957.627 26.7225 954.667 Q25.1311 951.707 25.1311 947.474 Q25.1311 946.869 25.2266 946.137 Q25.2903 945.405 25.4494 944.514 L31.465 944.482 Z" fill="#000000" fill-rule="nonzero" fill-opacity="1" /><path clip-path="url(#clip610)" d="M42.3504 909.279 L45.2149 909.279 L45.2149 936.206 Q51.2623 935.824 54.4452 932.578 Q57.5962 929.299 57.5962 923.475 Q57.5962 920.101 56.7687 916.95 Q55.9411 913.767 54.2861 910.648 L59.8242 910.648 Q61.161 913.799 61.8612 917.109 Q62.5615 920.419 62.5615 923.825 Q62.5615 932.355 57.5962 937.352 Q52.631 942.317 44.1646 942.317 Q35.4117 942.317 30.2873 937.607 Q25.1311 932.864 25.1311 924.843 Q25.1311 917.65 29.7781 913.481 Q34.3932 909.279 42.3504 909.279 M40.6316 915.136 Q35.8255 915.199 32.9609 917.841 Q30.0964 920.451 30.0964 924.78 Q30.0964 929.681 32.8654 932.641 Q35.6345 935.57 40.6634 936.015 L40.6316 915.136 Z" fill="#000000" fill-rule="nonzero" fill-opacity="1" /><path clip-path="url(#clip610)" d="M27.0408 876.942 L32.579 876.942 Q31.3059 879.424 30.6693 882.098 Q30.0327 884.771 30.0327 887.636 Q30.0327 891.996 31.3695 894.193 Q32.7063 896.357 35.3799 896.357 Q37.4169 896.357 38.5946 894.797 Q39.7404 893.238 40.7908 888.527 L41.2364 886.522 Q42.5732 880.284 45.0239 877.674 Q47.4429 875.032 51.8034 875.032 Q56.7687 875.032 59.6651 878.979 Q62.5615 882.893 62.5615 889.768 Q62.5615 892.633 61.9886 895.752 Q61.4475 898.84 60.3335 902.277 L54.2861 902.277 Q55.973 899.031 56.8323 895.88 Q57.6599 892.728 57.6599 889.641 Q57.6599 885.503 56.2594 883.275 Q54.8271 881.047 52.249 881.047 Q49.8619 881.047 48.5887 882.671 Q47.3156 884.262 46.1379 889.705 L45.6605 891.742 Q44.5147 897.184 42.1594 899.603 Q39.7722 902.022 35.6345 902.022 Q30.6056 902.022 27.8684 898.458 Q25.1311 894.893 25.1311 888.336 Q25.1311 885.09 25.6085 882.225 Q26.086 879.361 27.0408 876.942 Z" fill="#000000" fill-rule="nonzero" fill-opacity="1" /><path clip-path="url(#clip610)" d="M56.2912 860.041 L75.1974 860.041 L75.1974 865.929 L25.9905 865.929 L25.9905 860.041 L31.4013 860.041 Q28.2185 858.195 26.6907 855.394 Q25.1311 852.561 25.1311 848.646 Q25.1311 842.153 30.2873 838.111 Q35.4436 834.037 43.8463 834.037 Q52.249 834.037 57.4052 838.111 Q62.5615 842.153 62.5615 848.646 Q62.5615 852.561 61.0337 855.394 Q59.4741 858.195 56.2912 860.041 M43.8463 840.116 Q37.3851 840.116 33.7248 842.79 Q30.0327 845.431 30.0327 850.078 Q30.0327 854.725 33.7248 857.399 Q37.3851 860.041 43.8463 860.041 Q50.3075 860.041 53.9996 857.399 Q57.6599 854.725 57.6599 850.078 Q57.6599 845.431 53.9996 842.79 Q50.3075 840.116 43.8463 840.116 Z" fill="#000000" fill-rule="nonzero" fill-opacity="1" /><path clip-path="url(#clip610)" d="M30.0964 810.515 Q30.0964 815.226 33.7885 817.963 Q37.4488 820.701 43.8463 820.701 Q50.2438 820.701 53.9359 817.995 Q57.5962 815.258 57.5962 810.515 Q57.5962 805.837 53.9041 803.099 Q50.212 800.362 43.8463 800.362 Q37.5124 800.362 33.8203 803.099 Q30.0964 805.837 30.0964 810.515 M25.1311 810.515 Q25.1311 802.877 30.0964 798.516 Q35.0616 794.156 43.8463 794.156 Q52.5991 794.156 57.5962 798.516 Q62.5615 802.877 62.5615 810.515 Q62.5615 818.186 57.5962 822.547 Q52.5991 826.875 43.8463 826.875 Q35.0616 826.875 30.0964 822.547 Q25.1311 818.186 25.1311 810.515 Z" fill="#000000" fill-rule="nonzero" fill-opacity="1" /><path clip-path="url(#clip610)" d="M40.1224 754.815 L61.6384 754.815 L61.6384 760.672 L40.3133 760.672 Q35.2526 760.672 32.7381 762.645 Q30.2237 764.619 30.2237 768.565 Q30.2237 773.308 33.2474 776.045 Q36.2711 778.782 41.491 778.782 L61.6384 778.782 L61.6384 784.671 L25.9905 784.671 L25.9905 778.782 L31.5287 778.782 Q28.314 776.682 26.7225 773.849 Q25.1311 770.984 25.1311 767.26 Q25.1311 761.118 28.9505 757.966 Q32.7381 754.815 40.1224 754.815 Z" fill="#000000" fill-rule="nonzero" fill-opacity="1" /><path clip-path="url(#clip610)" d="M27.0408 720.409 L32.579 720.409 Q31.3059 722.891 30.6693 725.565 Q30.0327 728.239 30.0327 731.103 Q30.0327 735.464 31.3695 737.66 Q32.7063 739.824 35.3799 739.824 Q37.4169 739.824 38.5946 738.265 Q39.7404 736.705 40.7908 731.994 L41.2364 729.989 Q42.5732 723.751 45.0239 721.141 Q47.4429 718.499 51.8034 718.499 Q56.7687 718.499 59.6651 722.446 Q62.5615 726.361 62.5615 733.236 Q62.5615 736.1 61.9886 739.219 Q61.4475 742.307 60.3335 745.744 L54.2861 745.744 Q55.973 742.498 56.8323 739.347 Q57.6599 736.196 57.6599 733.108 Q57.6599 728.971 56.2594 726.743 Q54.8271 724.515 52.249 724.515 Q49.8619 724.515 48.5887 726.138 Q47.3156 727.729 46.1379 733.172 L45.6605 735.209 Q44.5147 740.652 42.1594 743.071 Q39.7722 745.49 35.6345 745.49 Q30.6056 745.49 27.8684 741.925 Q25.1311 738.36 25.1311 731.803 Q25.1311 728.557 25.6085 725.692 Q26.086 722.828 27.0408 720.409 Z" fill="#000000" fill-rule="nonzero" fill-opacity="1" /><path clip-path="url(#clip610)" d="M42.3504 678.682 L45.2149 678.682 L45.2149 705.609 Q51.2623 705.227 54.4452 701.98 Q57.5962 698.702 57.5962 692.877 Q57.5962 689.503 56.7687 686.352 Q55.9411 683.169 54.2861 680.05 L59.8242 680.05 Q61.161 683.201 61.8612 686.511 Q62.5615 689.822 62.5615 693.227 Q62.5615 701.757 57.5962 706.754 Q52.631 711.72 44.1646 711.72 Q35.4117 711.72 30.2873 707.009 Q25.1311 702.267 25.1311 694.246 Q25.1311 687.053 29.7781 682.883 Q34.3932 678.682 42.3504 678.682 M40.6316 684.538 Q35.8255 684.602 32.9609 687.243 Q30.0964 689.853 30.0964 694.182 Q30.0964 699.084 32.8654 702.044 Q35.6345 704.972 40.6634 705.418 L40.6316 684.538 Z" fill="#000000" fill-rule="nonzero" fill-opacity="1" /><path clip-path="url(#clip610)" d="M12.1132 630.302 L16.983 630.302 L16.983 635.904 Q16.983 639.055 18.2562 640.296 Q19.5293 641.506 22.8395 641.506 L25.9905 641.506 L25.9905 631.862 L30.542 631.862 L30.542 641.506 L61.6384 641.506 L61.6384 647.394 L30.542 647.394 L30.542 652.996 L25.9905 652.996 L25.9905 647.394 L23.5079 647.394 Q17.5559 647.394 14.8505 644.625 Q12.1132 641.856 12.1132 635.84 L12.1132 630.302 Z" fill="#000000" fill-rule="nonzero" fill-opacity="1" /><path clip-path="url(#clip610)" d="M12.1769 611.332 Q19.4975 615.597 26.6589 617.666 Q33.8203 619.735 41.1727 619.735 Q48.5251 619.735 55.7502 617.666 Q62.9434 615.566 70.2321 611.332 L70.2321 616.425 Q62.7524 621.199 55.5274 623.586 Q48.3023 625.942 41.1727 625.942 Q34.0749 625.942 26.8817 623.586 Q19.6884 621.231 12.1769 616.425 L12.1769 611.332 Z" fill="#000000" fill-rule="nonzero" fill-opacity="1" /><path clip-path="url(#clip610)" d="M39.3585 577.18 Q40.0587 575.112 42.3504 573.17 Q44.642 571.197 48.6524 569.223 L61.6384 562.698 L61.6384 569.605 L49.4481 575.684 Q44.6738 578.04 43.1142 580.268 Q41.5546 582.464 41.5546 586.283 L41.5546 593.286 L61.6384 593.286 L61.6384 599.715 L14.1184 599.715 L14.1184 585.201 Q14.1184 577.053 17.5241 573.043 Q20.9297 569.032 27.8047 569.032 Q32.2925 569.032 35.2526 571.133 Q38.2126 573.202 39.3585 577.18 M19.402 593.286 L36.2711 593.286 L36.2711 585.201 Q36.2711 580.554 34.1386 578.199 Q31.9743 575.812 27.8047 575.812 Q23.6352 575.812 21.5345 578.199 Q19.402 580.554 19.402 585.201 L19.402 593.286 Z" fill="#000000" fill-rule="nonzero" fill-opacity="1" /><path clip-path="url(#clip610)" d="M12.1769 555.601 L12.1769 550.508 Q19.6884 545.734 26.8817 543.379 Q34.0749 540.991 41.1727 540.991 Q48.3023 540.991 55.5274 543.379 Q62.7524 545.734 70.2321 550.508 L70.2321 555.601 Q62.9434 551.367 55.7502 549.299 Q48.5251 547.198 41.1727 547.198 Q33.8203 547.198 26.6589 549.299 Q19.4975 551.367 12.1769 555.601 Z" fill="#000000" fill-rule="nonzero" fill-opacity="1" /><path clip-path="url(#clip610)" d="M828.09 44.2197 Q830.723 45.1109 833.194 48.0275 Q835.705 50.9442 838.217 56.0483 L846.521 72.576 L837.731 72.576 L829.994 57.061 Q826.996 50.9847 824.16 48.9997 Q821.365 47.0148 816.504 47.0148 L807.592 47.0148 L807.592 72.576 L799.409 72.576 L799.409 12.096 L817.882 12.096 Q828.252 12.096 833.356 16.4305 Q838.46 20.7649 838.46 29.5149 Q838.46 35.2267 835.787 38.994 Q833.153 42.7613 828.09 44.2197 M807.592 18.8205 L807.592 40.2903 L817.882 40.2903 Q823.796 40.2903 826.793 37.5762 Q829.832 34.8216 829.832 29.5149 Q829.832 24.2082 826.793 21.5346 Q823.796 18.8205 817.882 18.8205 L807.592 18.8205 Z" fill="#000000" fill-rule="nonzero" fill-opacity="1" /><path clip-path="url(#clip610)" d="M891.811 48.0275 L891.811 51.6733 L857.54 51.6733 Q858.026 59.3701 862.158 63.421 Q866.33 67.4314 873.743 67.4314 Q878.037 67.4314 882.048 66.3781 Q886.099 65.3249 890.069 63.2184 L890.069 70.267 Q886.058 71.9684 881.845 72.8596 Q877.632 73.7508 873.298 73.7508 Q862.441 73.7508 856.082 67.4314 Q849.762 61.1119 849.762 50.3365 Q849.762 39.1965 855.757 32.6746 Q861.793 26.1121 872.002 26.1121 Q881.157 26.1121 886.463 32.0264 Q891.811 37.9003 891.811 48.0275 M884.357 45.84 Q884.276 39.7232 880.914 36.0774 Q877.592 32.4315 872.083 32.4315 Q865.844 32.4315 862.077 35.9558 Q858.35 39.4801 857.783 45.8805 L884.357 45.84 Z" fill="#000000" fill-rule="nonzero" fill-opacity="1" /><path clip-path="url(#clip610)" d="M936.695 28.9478 L936.695 35.9153 Q933.535 34.1734 930.335 33.3227 Q927.175 32.4315 923.934 32.4315 Q916.683 32.4315 912.673 37.0496 Q908.662 41.6271 908.662 49.9314 Q908.662 58.2358 912.673 62.8538 Q916.683 67.4314 923.934 67.4314 Q927.175 67.4314 930.335 66.5807 Q933.535 65.6895 936.695 63.9476 L936.695 70.8341 Q933.575 72.2924 930.213 73.0216 Q926.891 73.7508 923.124 73.7508 Q912.875 73.7508 906.839 67.3098 Q900.804 60.8689 900.804 49.9314 Q900.804 38.832 906.88 32.472 Q912.997 26.1121 923.61 26.1121 Q927.053 26.1121 930.335 26.8413 Q933.616 27.5299 936.695 28.9478 Z" fill="#000000" fill-rule="nonzero" fill-opacity="1" /><path clip-path="url(#clip610)" d="M967.238 32.4315 Q961.243 32.4315 957.759 37.1306 Q954.275 41.7891 954.275 49.9314 Q954.275 58.0738 957.719 62.7728 Q961.202 67.4314 967.238 67.4314 Q973.193 67.4314 976.677 62.7323 Q980.161 58.0333 980.161 49.9314 Q980.161 41.8701 976.677 37.1711 Q973.193 32.4315 967.238 32.4315 M967.238 26.1121 Q976.961 26.1121 982.51 32.4315 Q988.06 38.7509 988.06 49.9314 Q988.06 61.0714 982.51 67.4314 Q976.961 73.7508 967.238 73.7508 Q957.476 73.7508 951.926 67.4314 Q946.417 61.0714 946.417 49.9314 Q946.417 38.7509 951.926 32.4315 Q957.476 26.1121 967.238 26.1121 Z" fill="#000000" fill-rule="nonzero" fill-opacity="1" /><path clip-path="url(#clip610)" d="M995.068 27.2059 L1002.97 27.2059 L1017.15 65.2844 L1031.32 27.2059 L1039.22 27.2059 L1022.21 72.576 L1012.08 72.576 L995.068 27.2059 Z" fill="#000000" fill-rule="nonzero" fill-opacity="1" /><path clip-path="url(#clip610)" d="M1088.32 48.0275 L1088.32 51.6733 L1054.05 51.6733 Q1054.54 59.3701 1058.67 63.421 Q1062.84 67.4314 1070.25 67.4314 Q1074.55 67.4314 1078.56 66.3781 Q1082.61 65.3249 1086.58 63.2184 L1086.58 70.267 Q1082.57 71.9684 1078.35 72.8596 Q1074.14 73.7508 1069.81 73.7508 Q1058.95 73.7508 1052.59 67.4314 Q1046.27 61.1119 1046.27 50.3365 Q1046.27 39.1965 1052.27 32.6746 Q1058.3 26.1121 1068.51 26.1121 Q1077.67 26.1121 1082.97 32.0264 Q1088.32 37.9003 1088.32 48.0275 M1080.87 45.84 Q1080.79 39.7232 1077.42 36.0774 Q1074.1 32.4315 1068.59 32.4315 Q1062.35 32.4315 1058.59 35.9558 Q1054.86 39.4801 1054.29 45.8805 L1080.87 45.84 Z" fill="#000000" fill-rule="nonzero" fill-opacity="1" /><path clip-path="url(#clip610)" d="M1126.84 34.1734 Q1125.59 33.4443 1124.09 33.1202 Q1122.63 32.7556 1120.85 32.7556 Q1114.53 32.7556 1111.13 36.8875 Q1107.76 40.9789 1107.76 48.6757 L1107.76 72.576 L1100.27 72.576 L1100.27 27.2059 L1107.76 27.2059 L1107.76 34.2544 Q1110.11 30.1225 1113.88 28.1376 Q1117.65 26.1121 1123.04 26.1121 Q1123.81 26.1121 1124.74 26.2337 Q1125.67 26.3147 1126.8 26.5172 L1126.84 34.1734 Z" fill="#000000" fill-rule="nonzero" fill-opacity="1" /><path clip-path="url(#clip610)" d="M1171.65 48.0275 L1171.65 51.6733 L1137.38 51.6733 Q1137.86 59.3701 1141.99 63.421 Q1146.17 67.4314 1153.58 67.4314 Q1157.87 67.4314 1161.88 66.3781 Q1165.94 65.3249 1169.91 63.2184 L1169.91 70.267 Q1165.89 71.9684 1161.68 72.8596 Q1157.47 73.7508 1153.13 73.7508 Q1142.28 73.7508 1135.92 67.4314 Q1129.6 61.1119 1129.6 50.3365 Q1129.6 39.1965 1135.59 32.6746 Q1141.63 26.1121 1151.84 26.1121 Q1160.99 26.1121 1166.3 32.0264 Q1171.65 37.9003 1171.65 48.0275 M1164.19 45.84 Q1164.11 39.7232 1160.75 36.0774 Q1157.43 32.4315 1151.92 32.4315 Q1145.68 32.4315 1141.91 35.9558 Q1138.19 39.4801 1137.62 45.8805 L1164.19 45.84 Z" fill="#000000" fill-rule="nonzero" fill-opacity="1" /><path clip-path="url(#clip610)" d="M1213.74 34.0924 L1213.74 9.54393 L1221.19 9.54393 L1221.19 72.576 L1213.74 72.576 L1213.74 65.7705 Q1211.39 69.8214 1207.78 71.8063 Q1204.22 73.7508 1199.19 73.7508 Q1190.97 73.7508 1185.78 67.1883 Q1180.64 60.6258 1180.64 49.9314 Q1180.64 39.2371 1185.78 32.6746 Q1190.97 26.1121 1199.19 26.1121 Q1204.22 26.1121 1207.78 28.0971 Q1211.39 30.0415 1213.74 34.0924 M1188.34 49.9314 Q1188.34 58.1548 1191.7 62.8538 Q1195.1 67.5124 1201.02 67.5124 Q1206.93 67.5124 1210.33 62.8538 Q1213.74 58.1548 1213.74 49.9314 Q1213.74 41.7081 1210.33 37.0496 Q1206.93 32.3505 1201.02 32.3505 Q1195.1 32.3505 1191.7 37.0496 Q1188.34 41.7081 1188.34 49.9314 Z" fill="#000000" fill-rule="nonzero" fill-opacity="1" /><path clip-path="url(#clip610)" d="M1285.88 9.54393 L1285.88 15.7418 L1278.75 15.7418 Q1274.74 15.7418 1273.16 17.3622 Q1271.62 18.9825 1271.62 23.1955 L1271.62 27.2059 L1283.9 27.2059 L1283.9 32.9987 L1271.62 32.9987 L1271.62 72.576 L1264.13 72.576 L1264.13 32.9987 L1257 32.9987 L1257 27.2059 L1264.13 27.2059 L1264.13 24.0462 Q1264.13 16.471 1267.65 13.0277 Q1271.18 9.54393 1278.83 9.54393 L1285.88 9.54393 Z" fill="#000000" fill-rule="nonzero" fill-opacity="1" /><path clip-path="url(#clip610)" d="M1291.35 54.671 L1291.35 27.2059 L1298.8 27.2059 L1298.8 54.3874 Q1298.8 60.8284 1301.32 64.0691 Q1303.83 67.2693 1308.85 67.2693 Q1314.89 67.2693 1318.37 63.421 Q1321.9 59.5726 1321.9 52.9291 L1321.9 27.2059 L1329.35 27.2059 L1329.35 72.576 L1321.9 72.576 L1321.9 65.6084 Q1319.18 69.7404 1315.58 71.7658 Q1312.01 73.7508 1307.27 73.7508 Q1299.45 73.7508 1295.4 68.8897 Q1291.35 64.0286 1291.35 54.671 M1310.11 26.1121 L1310.11 26.1121 Z" fill="#000000" fill-rule="nonzero" fill-opacity="1" /><path clip-path="url(#clip610)" d="M1382.42 45.1919 L1382.42 72.576 L1374.96 72.576 L1374.96 45.4349 Q1374.96 38.994 1372.45 35.7938 Q1369.94 32.5936 1364.92 32.5936 Q1358.88 32.5936 1355.4 36.4419 Q1351.91 40.2903 1351.91 46.9338 L1351.91 72.576 L1344.42 72.576 L1344.42 27.2059 L1351.91 27.2059 L1351.91 34.2544 Q1354.59 30.163 1358.19 28.1376 Q1361.84 26.1121 1366.58 26.1121 Q1374.39 26.1121 1378.41 30.9732 Q1382.42 35.7938 1382.42 45.1919 Z" fill="#000000" fill-rule="nonzero" fill-opacity="1" /><path clip-path="url(#clip610)" d="M1429.93 28.9478 L1429.93 35.9153 Q1426.77 34.1734 1423.57 33.3227 Q1420.41 32.4315 1417.17 32.4315 Q1409.92 32.4315 1405.91 37.0496 Q1401.9 41.6271 1401.9 49.9314 Q1401.9 58.2358 1405.91 62.8538 Q1409.92 67.4314 1417.17 67.4314 Q1420.41 67.4314 1423.57 66.5807 Q1426.77 65.6895 1429.93 63.9476 L1429.93 70.8341 Q1426.81 72.2924 1423.45 73.0216 Q1420.13 73.7508 1416.36 73.7508 Q1406.11 73.7508 1400.08 67.3098 Q1394.04 60.8689 1394.04 49.9314 Q1394.04 38.832 1400.12 32.472 Q1406.23 26.1121 1416.85 26.1121 Q1420.29 26.1121 1423.57 26.8413 Q1426.85 27.5299 1429.93 28.9478 Z" fill="#000000" fill-rule="nonzero" fill-opacity="1" /><path clip-path="url(#clip610)" d="M1450.27 14.324 L1450.27 27.2059 L1465.62 27.2059 L1465.62 32.9987 L1450.27 32.9987 L1450.27 57.6282 Q1450.27 63.1779 1451.77 64.7578 Q1453.31 66.3376 1457.96 66.3376 L1465.62 66.3376 L1465.62 72.576 L1457.96 72.576 Q1449.34 72.576 1446.06 69.3758 Q1442.77 66.1351 1442.77 57.6282 L1442.77 32.9987 L1437.31 32.9987 L1437.31 27.2059 L1442.77 27.2059 L1442.77 14.324 L1450.27 14.324 Z" fill="#000000" fill-rule="nonzero" fill-opacity="1" /><path clip-path="url(#clip610)" d="M1475.42 27.2059 L1482.88 27.2059 L1482.88 72.576 L1475.42 72.576 L1475.42 27.2059 M1475.42 9.54393 L1482.88 9.54393 L1482.88 18.9825 L1475.42 18.9825 L1475.42 9.54393 Z" fill="#000000" fill-rule="nonzero" fill-opacity="1" /><path clip-path="url(#clip610)" d="M1516.05 32.4315 Q1510.06 32.4315 1506.58 37.1306 Q1503.09 41.7891 1503.09 49.9314 Q1503.09 58.0738 1506.54 62.7728 Q1510.02 67.4314 1516.05 67.4314 Q1522.01 67.4314 1525.49 62.7323 Q1528.98 58.0333 1528.98 49.9314 Q1528.98 41.8701 1525.49 37.1711 Q1522.01 32.4315 1516.05 32.4315 M1516.05 26.1121 Q1525.78 26.1121 1531.33 32.4315 Q1536.88 38.7509 1536.88 49.9314 Q1536.88 61.0714 1531.33 67.4314 Q1525.78 73.7508 1516.05 73.7508 Q1506.29 73.7508 1500.74 67.4314 Q1495.23 61.0714 1495.23 49.9314 Q1495.23 38.7509 1500.74 32.4315 Q1506.29 26.1121 1516.05 26.1121 Z" fill="#000000" fill-rule="nonzero" fill-opacity="1" /><path clip-path="url(#clip610)" d="M1586.95 45.1919 L1586.95 72.576 L1579.49 72.576 L1579.49 45.4349 Q1579.49 38.994 1576.98 35.7938 Q1574.47 32.5936 1569.45 32.5936 Q1563.41 32.5936 1559.93 36.4419 Q1556.44 40.2903 1556.44 46.9338 L1556.44 72.576 L1548.95 72.576 L1548.95 27.2059 L1556.44 27.2059 L1556.44 34.2544 Q1559.12 30.163 1562.72 28.1376 Q1566.37 26.1121 1571.11 26.1121 Q1578.92 26.1121 1582.94 30.9732 Q1586.95 35.7938 1586.95 45.1919 Z" fill="#000000" fill-rule="nonzero" fill-opacity="1" /><path clip-path="url(#clip610)" d="M1622.43 49.7694 Q1613.4 49.7694 1609.91 51.8354 Q1606.43 53.9013 1606.43 58.8839 Q1606.43 62.8538 1609.02 65.2034 Q1611.66 67.5124 1616.15 67.5124 Q1622.35 67.5124 1626.08 63.1374 Q1629.84 58.7219 1629.84 51.4303 L1629.84 49.7694 L1622.43 49.7694 M1637.3 46.6907 L1637.3 72.576 L1629.84 72.576 L1629.84 65.6895 Q1627.29 69.8214 1623.48 71.8063 Q1619.68 73.7508 1614.17 73.7508 Q1607.2 73.7508 1603.07 69.8619 Q1598.98 65.9325 1598.98 59.3701 Q1598.98 51.7138 1604.08 47.825 Q1609.23 43.9361 1619.39 43.9361 L1629.84 43.9361 L1629.84 43.2069 Q1629.84 38.0623 1626.44 35.2672 Q1623.08 32.4315 1616.96 32.4315 Q1613.07 32.4315 1609.39 33.3632 Q1605.7 34.295 1602.3 36.1584 L1602.3 29.2718 Q1606.39 27.692 1610.24 26.9223 Q1614.09 26.1121 1617.73 26.1121 Q1627.58 26.1121 1632.44 31.2163 Q1637.3 36.3204 1637.3 46.6907 Z" fill="#000000" fill-rule="nonzero" fill-opacity="1" /><path clip-path="url(#clip610)" d="M1652.65 9.54393 L1660.11 9.54393 L1660.11 72.576 L1652.65 72.576 L1652.65 9.54393 Z" fill="#000000" fill-rule="nonzero" fill-opacity="1" /><path clip-path="url(#clip610)" d="M1728.36 34.1734 Q1727.11 33.4443 1725.61 33.1202 Q1724.15 32.7556 1722.37 32.7556 Q1716.05 32.7556 1712.65 36.8875 Q1709.28 40.9789 1709.28 48.6757 L1709.28 72.576 L1701.79 72.576 L1701.79 27.2059 L1709.28 27.2059 L1709.28 34.2544 Q1711.63 30.1225 1715.4 28.1376 Q1719.17 26.1121 1724.55 26.1121 Q1725.32 26.1121 1726.26 26.2337 Q1727.19 26.3147 1728.32 26.5172 L1728.36 34.1734 Z" fill="#000000" fill-rule="nonzero" fill-opacity="1" /><path clip-path="url(#clip610)" d="M1773.17 48.0275 L1773.17 51.6733 L1738.9 51.6733 Q1739.38 59.3701 1743.51 63.421 Q1747.69 67.4314 1755.1 67.4314 Q1759.39 67.4314 1763.4 66.3781 Q1767.45 65.3249 1771.42 63.2184 L1771.42 70.267 Q1767.41 71.9684 1763.2 72.8596 Q1758.99 73.7508 1754.65 73.7508 Q1743.8 73.7508 1737.44 67.4314 Q1731.12 61.1119 1731.12 50.3365 Q1731.12 39.1965 1737.11 32.6746 Q1743.15 26.1121 1753.36 26.1121 Q1762.51 26.1121 1767.82 32.0264 Q1773.17 37.9003 1773.17 48.0275 M1765.71 45.84 Q1765.63 39.7232 1762.27 36.0774 Q1758.95 32.4315 1753.44 32.4315 Q1747.2 32.4315 1743.43 35.9558 Q1739.71 39.4801 1739.14 45.8805 L1765.71 45.84 Z" fill="#000000" fill-rule="nonzero" fill-opacity="1" /><path clip-path="url(#clip610)" d="M1814.32 28.5427 L1814.32 35.5912 Q1811.16 33.9709 1807.76 33.1607 Q1804.36 32.3505 1800.71 32.3505 Q1795.16 32.3505 1792.37 34.0519 Q1789.61 35.7533 1789.61 39.156 Q1789.61 41.7486 1791.6 43.2475 Q1793.58 44.7058 1799.58 46.0426 L1802.13 46.6097 Q1810.07 48.3111 1813.39 51.4303 Q1816.75 54.509 1816.75 60.0587 Q1816.75 66.3781 1811.73 70.0644 Q1806.75 73.7508 1798 73.7508 Q1794.35 73.7508 1790.38 73.0216 Q1786.45 72.3329 1782.08 70.9151 L1782.08 63.2184 Q1786.21 65.3654 1790.22 66.4591 Q1794.23 67.5124 1798.16 67.5124 Q1803.43 67.5124 1806.26 65.73 Q1809.1 63.9071 1809.1 60.6258 Q1809.1 57.5877 1807.03 55.9673 Q1805.01 54.3469 1798.08 52.8481 L1795.49 52.2405 Q1788.56 50.7821 1785.48 47.7845 Q1782.4 44.7463 1782.4 39.4801 Q1782.4 33.0797 1786.94 29.5959 Q1791.48 26.1121 1799.82 26.1121 Q1803.95 26.1121 1807.6 26.7198 Q1811.24 27.3274 1814.32 28.5427 Z" fill="#000000" fill-rule="nonzero" fill-opacity="1" /><path clip-path="url(#clip610)" d="M1835.83 65.7705 L1835.83 89.8329 L1828.34 89.8329 L1828.34 27.2059 L1835.83 27.2059 L1835.83 34.0924 Q1838.18 30.0415 1841.75 28.0971 Q1845.35 26.1121 1850.34 26.1121 Q1858.6 26.1121 1863.74 32.6746 Q1868.93 39.2371 1868.93 49.9314 Q1868.93 60.6258 1863.74 67.1883 Q1858.6 73.7508 1850.34 73.7508 Q1845.35 73.7508 1841.75 71.8063 Q1838.18 69.8214 1835.83 65.7705 M1861.19 49.9314 Q1861.19 41.7081 1857.79 37.0496 Q1854.43 32.3505 1848.51 32.3505 Q1842.6 32.3505 1839.2 37.0496 Q1835.83 41.7081 1835.83 49.9314 Q1835.83 58.1548 1839.2 62.8538 Q1842.6 67.5124 1848.51 67.5124 Q1854.43 67.5124 1857.79 62.8538 Q1861.19 58.1548 1861.19 49.9314 Z" fill="#000000" fill-rule="nonzero" fill-opacity="1" /><path clip-path="url(#clip610)" d="M1898.87 32.4315 Q1892.87 32.4315 1889.39 37.1306 Q1885.9 41.7891 1885.9 49.9314 Q1885.9 58.0738 1889.35 62.7728 Q1892.83 67.4314 1898.87 67.4314 Q1904.82 67.4314 1908.3 62.7323 Q1911.79 58.0333 1911.79 49.9314 Q1911.79 41.8701 1908.3 37.1711 Q1904.82 32.4315 1898.87 32.4315 M1898.87 26.1121 Q1908.59 26.1121 1914.14 32.4315 Q1919.69 38.7509 1919.69 49.9314 Q1919.69 61.0714 1914.14 67.4314 Q1908.59 73.7508 1898.87 73.7508 Q1889.1 73.7508 1883.55 67.4314 Q1878.04 61.0714 1878.04 49.9314 Q1878.04 38.7509 1883.55 32.4315 Q1889.1 26.1121 1898.87 26.1121 Z" fill="#000000" fill-rule="nonzero" fill-opacity="1" /><path clip-path="url(#clip610)" d="M1969.76 45.1919 L1969.76 72.576 L1962.3 72.576 L1962.3 45.4349 Q1962.3 38.994 1959.79 35.7938 Q1957.28 32.5936 1952.26 32.5936 Q1946.22 32.5936 1942.74 36.4419 Q1939.25 40.2903 1939.25 46.9338 L1939.25 72.576 L1931.76 72.576 L1931.76 27.2059 L1939.25 27.2059 L1939.25 34.2544 Q1941.93 30.163 1945.53 28.1376 Q1949.18 26.1121 1953.92 26.1121 Q1961.74 26.1121 1965.75 30.9732 Q1969.76 35.7938 1969.76 45.1919 Z" fill="#000000" fill-rule="nonzero" fill-opacity="1" /><path clip-path="url(#clip610)" d="M2013.55 28.5427 L2013.55 35.5912 Q2010.39 33.9709 2006.98 33.1607 Q2003.58 32.3505 1999.94 32.3505 Q1994.39 32.3505 1991.59 34.0519 Q1988.84 35.7533 1988.84 39.156 Q1988.84 41.7486 1990.82 43.2475 Q1992.81 44.7058 1998.8 46.0426 L2001.35 46.6097 Q2009.29 48.3111 2012.61 51.4303 Q2015.98 54.509 2015.98 60.0587 Q2015.98 66.3781 2010.95 70.0644 Q2005.97 73.7508 1997.22 73.7508 Q1993.58 73.7508 1989.61 73.0216 Q1985.68 72.3329 1981.3 70.9151 L1981.3 63.2184 Q1985.43 65.3654 1989.44 66.4591 Q1993.45 67.5124 1997.38 67.5124 Q2002.65 67.5124 2005.49 65.73 Q2008.32 63.9071 2008.32 60.6258 Q2008.32 57.5877 2006.25 55.9673 Q2004.23 54.3469 1997.3 52.8481 L1994.71 52.2405 Q1987.78 50.7821 1984.7 47.7845 Q1981.63 44.7463 1981.63 39.4801 Q1981.63 33.0797 1986.16 29.5959 Q1990.7 26.1121 1999.04 26.1121 Q2003.18 26.1121 2006.82 26.7198 Q2010.47 27.3274 2013.55 28.5427 Z" fill="#000000" fill-rule="nonzero" fill-opacity="1" /><path clip-path="url(#clip610)" d="M2066.65 48.0275 L2066.65 51.6733 L2032.38 51.6733 Q2032.87 59.3701 2037 63.421 Q2041.17 67.4314 2048.59 67.4314 Q2052.88 67.4314 2056.89 66.3781 Q2060.94 65.3249 2064.91 63.2184 L2064.91 70.267 Q2060.9 71.9684 2056.69 72.8596 Q2052.48 73.7508 2048.14 73.7508 Q2037.28 73.7508 2030.92 67.4314 Q2024.61 61.1119 2024.61 50.3365 Q2024.61 39.1965 2030.6 32.6746 Q2036.64 26.1121 2046.84 26.1121 Q2056 26.1121 2061.31 32.0264 Q2066.65 37.9003 2066.65 48.0275 M2059.2 45.84 Q2059.12 39.7232 2055.76 36.0774 Q2052.44 32.4315 2046.93 32.4315 Q2040.69 32.4315 2036.92 35.9558 Q2033.19 39.4801 2032.63 45.8805 L2059.2 45.84 Z" fill="#000000" fill-rule="nonzero" fill-opacity="1" /><polyline clip-path="url(#clip611)" style="stroke:#000000; stroke-linecap:round; stroke-linejoin:round; stroke-width:12; stroke-opacity:1; fill:none" stroke-dasharray="48, 30" points="293.669,1637.18 316.686,1591.81 339.704,1549.16 362.721,1509 385.739,1471.12 408.756,1435.33 431.774,1401.46 454.791,1369.36 477.808,1338.9 500.826,1309.95 523.843,1282.4 546.861,1256.16 569.878,1231.13 592.896,1207.23 615.913,1184.39 638.93,1162.53 661.948,1141.6 684.965,1121.53 707.983,1102.28 731,1083.8 754.017,1066.04 777.035,1048.96 800.052,1032.52 823.07,1016.68 846.087,1001.42 869.105,986.699 892.122,972.494 915.139,958.776 938.157,945.521 961.174,932.706 984.192,920.31 1007.21,908.311 1030.23,896.692 1053.24,885.435 1076.26,874.522 1099.28,863.939 1122.3,853.671 1145.31,843.703 1168.33,834.024 1191.35,824.619 1214.37,815.479 1237.38,806.592 1260.4,797.947 1283.42,789.535 1306.44,781.347 1329.45,773.373 1352.47,765.606 1375.49,758.037 1398.51,750.66 1421.52,743.466 1444.54,736.449 1467.56,729.603 1490.58,722.921 1513.59,716.398 1536.61,710.027 1559.63,703.805 1582.64,697.725 1605.66,691.783 1628.68,685.974 1651.7,680.294 1674.71,674.738 1697.73,669.302 1720.75,663.984 1743.77,658.778 1766.78,653.681 1789.8,648.69 1812.82,643.802 1835.84,639.013 1858.85,634.321 1881.87,629.723 1904.89,625.215 1927.91,620.795 1950.92,616.461 1973.94,612.211 1996.96,608.04 2019.98,603.949 2042.99,599.934 2066.01,595.992 2089.03,592.123 2112.05,588.325 2135.06,584.594 2158.08,580.93 2181.1,577.331 2204.12,573.794 2227.13,570.319 2250.15,566.904 2273.17,563.547 2296.19,560.247 2319.2,557.002 2342.22,553.811 2365.24,550.673 2388.25,547.586 2411.27,544.549 2434.29,541.561 2457.31,538.621 2480.32,535.727 2503.34,532.879 2526.36,530.075 2549.38,527.315 2572.39,524.597 "/>
<polyline clip-path="url(#clip611)" style="stroke:#0000ff; stroke-linecap:round; stroke-linejoin:round; stroke-width:8; stroke-opacity:1; fill:none" points="293.669,1688.65 316.686,1642.88 339.704,1598.03 362.721,1554.26 385.739,1511.72 408.756,1470.55 431.774,1430.9 454.791,1392.94 477.808,1356.79 500.826,1322.62 523.843,1290.57 546.861,1260.79 569.878,1233.41 592.896,1208.32 615.913,1185.36 638.93,1164.35 661.948,1145.12 684.965,1127.49 707.983,1111.29 731,1096.35 754.017,1082.48 777.035,1069.52 800.052,1057.28 823.07,1045.61 846.087,1034.31 869.105,1023.22 892.122,1012.16 915.139,1000.96 938.157,989.45 961.174,977.551 984.192,965.303 1007.21,952.749 1030.23,939.932 1053.24,926.895 1076.26,913.681 1099.28,900.332 1122.3,886.892 1145.31,873.404 1168.33,859.909 1191.35,846.452 1214.37,833.074 1237.38,819.82 1260.4,806.731 1283.42,793.851 1306.44,781.223 1329.45,768.884 1352.47,756.857 1375.49,745.163 1398.51,733.82 1421.52,722.848 1444.54,712.268 1467.56,702.098 1490.58,692.359 1513.59,683.071 1536.61,674.253 1559.63,665.924 1582.64,658.105 1605.66,650.815 1628.68,644.074 1651.7,637.902 1674.71,632.319 1697.73,627.339 1720.75,622.939 1743.77,619.068 1766.78,615.679 1789.8,612.721 1812.82,610.146 1835.84,607.904 1858.85,605.947 1881.87,604.224 1904.89,602.688 1927.91,601.288 1950.92,599.976 1973.94,598.702 1996.96,597.417 2019.98,596.073 2042.99,594.619 2066.01,593.008 2089.03,591.212 2112.05,589.242 2135.06,587.11 2158.08,584.829 2181.1,582.41 2204.12,579.867 2227.13,577.212 2250.15,574.458 2273.17,571.617 2296.19,568.701 2319.2,565.723 2342.22,562.696 2365.24,559.632 2388.25,556.544 2411.27,553.443 2434.29,550.344 2457.31,547.255 2480.32,544.18 2503.34,541.116 2526.36,538.064 2549.38,535.022 2572.39,531.989 "/>
<polyline clip-path="url(#clip611)" style="stroke:#808080; stroke-linecap:round; stroke-linejoin:round; stroke-width:4; stroke-opacity:0.5; fill:none" stroke-dasharray="2, 4" points="-2190.14,173.254 5056.2,173.254 "/>
<path clip-path="url(#clip610)" d="M1831.5 1680.57 L2560.24 1680.57 L2560.24 1473.21 L1831.5 1473.21  Z" fill="#ffffff" fill-rule="evenodd" fill-opacity="1"/>
<polyline clip-path="url(#clip610)" style="stroke:#000000; stroke-linecap:round; stroke-linejoin:round; stroke-width:4; stroke-opacity:1; fill:none" points="1831.5,1680.57 2560.24,1680.57 2560.24,1473.21 1831.5,1473.21 1831.5,1680.57 "/>
<polyline clip-path="url(#clip610)" style="stroke:#000000; stroke-linecap:round; stroke-linejoin:round; stroke-width:12; stroke-opacity:1; fill:none" stroke-dasharray="48, 30" points="1858.34,1525.05 2019.37,1525.05 "/>
<path clip-path="url(#clip610)" d="M2046.21 1507.77 L2075.44 1507.77 L2075.44 1511.71 L2063.17 1511.71 L2063.17 1542.33 L2058.47 1542.33 L2058.47 1511.71 L2046.21 1511.71 L2046.21 1507.77 Z" fill="#000000" fill-rule="nonzero" fill-opacity="1" /><path clip-path="url(#clip610)" d="M2087.83 1520.39 Q2087.11 1519.97 2086.25 1519.79 Q2085.42 1519.58 2084.4 1519.58 Q2080.79 1519.58 2078.84 1521.94 Q2076.92 1524.28 2076.92 1528.68 L2076.92 1542.33 L2072.64 1542.33 L2072.64 1516.41 L2076.92 1516.41 L2076.92 1520.43 Q2078.27 1518.07 2080.42 1516.94 Q2082.57 1515.78 2085.65 1515.78 Q2086.09 1515.78 2086.62 1515.85 Q2087.16 1515.9 2087.8 1516.01 L2087.83 1520.39 Z" fill="#000000" fill-rule="nonzero" fill-opacity="1" /><path clip-path="url(#clip610)" d="M2091.85 1532.1 L2091.85 1516.41 L2096.11 1516.41 L2096.11 1531.94 Q2096.11 1535.62 2097.55 1537.47 Q2098.98 1539.3 2101.85 1539.3 Q2105.3 1539.3 2107.29 1537.1 Q2109.31 1534.9 2109.31 1531.11 L2109.31 1516.41 L2113.57 1516.41 L2113.57 1542.33 L2109.31 1542.33 L2109.31 1538.35 Q2107.76 1540.71 2105.7 1541.87 Q2103.66 1543 2100.95 1543 Q2096.48 1543 2094.17 1540.23 Q2091.85 1537.45 2091.85 1532.1 M2102.57 1515.78 L2102.57 1515.78 Z" fill="#000000" fill-rule="nonzero" fill-opacity="1" /><path clip-path="url(#clip610)" d="M2144.52 1528.31 L2144.52 1530.39 L2124.93 1530.39 Q2125.21 1534.79 2127.57 1537.1 Q2129.96 1539.39 2134.19 1539.39 Q2136.65 1539.39 2138.94 1538.79 Q2141.25 1538.19 2143.52 1536.99 L2143.52 1541.01 Q2141.23 1541.99 2138.82 1542.49 Q2136.41 1543 2133.94 1543 Q2127.73 1543 2124.1 1539.39 Q2120.49 1535.78 2120.49 1529.62 Q2120.49 1523.26 2123.91 1519.53 Q2127.36 1515.78 2133.2 1515.78 Q2138.43 1515.78 2141.46 1519.16 Q2144.52 1522.52 2144.52 1528.31 M2140.26 1527.06 Q2140.21 1523.56 2138.29 1521.48 Q2136.39 1519.39 2133.24 1519.39 Q2129.68 1519.39 2127.53 1521.41 Q2125.4 1523.42 2125.07 1527.08 L2140.26 1527.06 Z" fill="#000000" fill-rule="nonzero" fill-opacity="1" /><path clip-path="url(#clip610)" d="M2179.7 1506.31 L2179.7 1509.86 L2175.63 1509.86 Q2173.34 1509.86 2172.43 1510.78 Q2171.55 1511.71 2171.55 1514.12 L2171.55 1516.41 L2178.57 1516.41 L2178.57 1519.72 L2171.55 1519.72 L2171.55 1542.33 L2167.27 1542.33 L2167.27 1519.72 L2163.2 1519.72 L2163.2 1516.41 L2167.27 1516.41 L2167.27 1514.6 Q2167.27 1510.27 2169.28 1508.31 Q2171.3 1506.31 2175.67 1506.31 L2179.7 1506.31 Z" fill="#000000" fill-rule="nonzero" fill-opacity="1" /><path clip-path="url(#clip610)" d="M2193.5 1506.36 Q2190.4 1511.68 2188.89 1516.89 Q2187.39 1522.1 2187.39 1527.45 Q2187.39 1532.8 2188.89 1538.05 Q2190.42 1543.28 2193.5 1548.58 L2189.79 1548.58 Q2186.32 1543.14 2184.59 1537.89 Q2182.87 1532.63 2182.87 1527.45 Q2182.87 1522.29 2184.59 1517.06 Q2186.3 1511.82 2189.79 1506.36 L2193.5 1506.36 Z" fill="#000000" fill-rule="nonzero" fill-opacity="1" /><path clip-path="url(#clip610)" d="M2218.33 1526.13 Q2219.84 1526.64 2221.25 1528.31 Q2222.69 1529.97 2224.12 1532.89 L2228.87 1542.33 L2223.84 1542.33 L2219.42 1533.47 Q2217.71 1529.99 2216.09 1528.86 Q2214.49 1527.73 2211.71 1527.73 L2206.62 1527.73 L2206.62 1542.33 L2201.95 1542.33 L2201.95 1507.77 L2212.5 1507.77 Q2218.43 1507.77 2221.34 1510.25 Q2224.26 1512.73 2224.26 1517.73 Q2224.26 1520.99 2222.73 1523.14 Q2221.23 1525.3 2218.33 1526.13 M2206.62 1511.62 L2206.62 1523.88 L2212.5 1523.88 Q2215.88 1523.88 2217.59 1522.33 Q2219.33 1520.76 2219.33 1517.73 Q2219.33 1514.69 2217.59 1513.17 Q2215.88 1511.62 2212.5 1511.62 L2206.62 1511.62 Z" fill="#000000" fill-rule="nonzero" fill-opacity="1" /><path clip-path="url(#clip610)" d="M2234.03 1506.36 L2237.73 1506.36 Q2241.21 1511.82 2242.92 1517.06 Q2244.65 1522.29 2244.65 1527.45 Q2244.65 1532.63 2242.92 1537.89 Q2241.21 1543.14 2237.73 1548.58 L2234.03 1548.58 Q2237.11 1543.28 2238.61 1538.05 Q2240.14 1532.8 2240.14 1527.45 Q2240.14 1522.1 2238.61 1516.89 Q2237.11 1511.68 2234.03 1506.36 Z" fill="#000000" fill-rule="nonzero" fill-opacity="1" /><path clip-path="url(#clip610)" d="M2268.82 1520.81 L2298.5 1520.81 L2298.5 1524.69 L2268.82 1524.69 L2268.82 1520.81 M2268.82 1530.25 L2298.5 1530.25 L2298.5 1534.18 L2268.82 1534.18 L2268.82 1530.25 Z" fill="#000000" fill-rule="nonzero" fill-opacity="1" /><path clip-path="url(#clip610)" d="M2327.69 1538.4 L2344.01 1538.4 L2344.01 1542.33 L2322.06 1542.33 L2322.06 1538.4 Q2324.72 1535.64 2329.31 1531.01 Q2333.91 1526.36 2335.09 1525.02 Q2337.34 1522.49 2338.22 1520.76 Q2339.12 1519 2339.12 1517.31 Q2339.12 1514.56 2337.18 1512.82 Q2335.26 1511.08 2332.15 1511.08 Q2329.95 1511.08 2327.5 1511.85 Q2325.07 1512.61 2322.29 1514.16 L2322.29 1509.44 Q2325.12 1508.31 2327.57 1507.73 Q2330.02 1507.15 2332.06 1507.15 Q2337.43 1507.15 2340.63 1509.83 Q2343.82 1512.52 2343.82 1517.01 Q2343.82 1519.14 2343.01 1521.06 Q2342.22 1522.96 2340.12 1525.55 Q2339.54 1526.22 2336.44 1529.44 Q2333.33 1532.63 2327.69 1538.4 Z" fill="#000000" fill-rule="nonzero" fill-opacity="1" /><path clip-path="url(#clip610)" d="M2369.79 1526.13 Q2371.3 1526.64 2372.71 1528.31 Q2374.14 1529.97 2375.58 1532.89 L2380.32 1542.33 L2375.3 1542.33 L2370.88 1533.47 Q2369.17 1529.99 2367.55 1528.86 Q2365.95 1527.73 2363.17 1527.73 L2358.08 1527.73 L2358.08 1542.33 L2353.4 1542.33 L2353.4 1507.77 L2363.96 1507.77 Q2369.88 1507.77 2372.8 1510.25 Q2375.72 1512.73 2375.72 1517.73 Q2375.72 1520.99 2374.19 1523.14 Q2372.69 1525.3 2369.79 1526.13 M2358.08 1511.62 L2358.08 1523.88 L2363.96 1523.88 Q2367.34 1523.88 2369.05 1522.33 Q2370.79 1520.76 2370.79 1517.73 Q2370.79 1514.69 2369.05 1513.17 Q2367.34 1511.62 2363.96 1511.62 L2358.08 1511.62 Z" fill="#000000" fill-rule="nonzero" fill-opacity="1" /><path clip-path="url(#clip610)" d="M2393.73 1507.77 L2397.66 1507.77 L2385.63 1546.73 L2381.69 1546.73 L2393.73 1507.77 Z" fill="#000000" fill-rule="nonzero" fill-opacity="1" /><path clip-path="url(#clip610)" d="M2412.36 1506.36 Q2409.26 1511.68 2407.76 1516.89 Q2406.25 1522.1 2406.25 1527.45 Q2406.25 1532.8 2407.76 1538.05 Q2409.28 1543.28 2412.36 1548.58 L2408.66 1548.58 Q2405.19 1543.14 2403.45 1537.89 Q2401.74 1532.63 2401.74 1527.45 Q2401.74 1522.29 2403.45 1517.06 Q2405.16 1511.82 2408.66 1506.36 L2412.36 1506.36 Z" fill="#000000" fill-rule="nonzero" fill-opacity="1" /><path clip-path="url(#clip610)" d="M2421.27 1507.77 L2439.63 1507.77 L2439.63 1511.71 L2425.56 1511.71 L2425.56 1520.18 Q2426.57 1519.83 2427.59 1519.67 Q2428.61 1519.49 2429.63 1519.49 Q2435.42 1519.49 2438.8 1522.66 Q2442.18 1525.83 2442.18 1531.24 Q2442.18 1536.82 2438.7 1539.93 Q2435.23 1543 2428.91 1543 Q2426.74 1543 2424.47 1542.63 Q2422.22 1542.26 2419.82 1541.52 L2419.82 1536.82 Q2421.9 1537.96 2424.12 1538.51 Q2426.34 1539.07 2428.82 1539.07 Q2432.82 1539.07 2435.16 1536.96 Q2437.5 1534.86 2437.5 1531.24 Q2437.5 1527.63 2435.16 1525.53 Q2432.82 1523.42 2428.82 1523.42 Q2426.94 1523.42 2425.07 1523.84 Q2423.22 1524.25 2421.27 1525.13 L2421.27 1507.77 Z" fill="#000000" fill-rule="nonzero" fill-opacity="1" /><path clip-path="url(#clip610)" d="M2468.13 1512.61 L2468.13 1525.5 L2481.02 1525.5 L2481.02 1529.44 L2468.13 1529.44 L2468.13 1542.33 L2464.24 1542.33 L2464.24 1529.44 L2451.34 1529.44 L2451.34 1525.5 L2464.24 1525.5 L2464.24 1512.61 L2468.13 1512.61 Z" fill="#000000" fill-rule="nonzero" fill-opacity="1" /><path clip-path="url(#clip610)" d="M2507.08 1526.13 Q2508.59 1526.64 2510 1528.31 Q2511.44 1529.97 2512.87 1532.89 L2517.62 1542.33 L2512.59 1542.33 L2508.17 1533.47 Q2506.46 1529.99 2504.84 1528.86 Q2503.24 1527.73 2500.46 1527.73 L2495.37 1527.73 L2495.37 1542.33 L2490.69 1542.33 L2490.69 1507.77 L2501.25 1507.77 Q2507.18 1507.77 2510.09 1510.25 Q2513.01 1512.73 2513.01 1517.73 Q2513.01 1520.99 2511.48 1523.14 Q2509.98 1525.3 2507.08 1526.13 M2495.37 1511.62 L2495.37 1523.88 L2501.25 1523.88 Q2504.63 1523.88 2506.34 1522.33 Q2508.08 1520.76 2508.08 1517.73 Q2508.08 1514.69 2506.34 1513.17 Q2504.63 1511.62 2501.25 1511.62 L2495.37 1511.62 Z" fill="#000000" fill-rule="nonzero" fill-opacity="1" /><path clip-path="url(#clip610)" d="M2522.78 1506.36 L2526.48 1506.36 Q2529.95 1511.82 2531.67 1517.06 Q2533.4 1522.29 2533.4 1527.45 Q2533.4 1532.63 2531.67 1537.89 Q2529.95 1543.14 2526.48 1548.58 L2522.78 1548.58 Q2525.86 1543.28 2527.36 1538.05 Q2528.89 1532.8 2528.89 1527.45 Q2528.89 1522.1 2527.36 1516.89 Q2525.86 1511.68 2522.78 1506.36 Z" fill="#000000" fill-rule="nonzero" fill-opacity="1" /><polyline clip-path="url(#clip610)" style="stroke:#0000ff; stroke-linecap:round; stroke-linejoin:round; stroke-width:8; stroke-opacity:1; fill:none" points="1858.34,1576.89 2019.37,1576.89 "/>
<path clip-path="url(#clip610)" d="M2050.88 1563.46 L2050.88 1576.44 L2056.76 1576.44 Q2060.03 1576.44 2061.81 1574.75 Q2063.59 1573.06 2063.59 1569.94 Q2063.59 1566.84 2061.81 1565.15 Q2060.03 1563.46 2056.76 1563.46 L2050.88 1563.46 M2046.21 1559.61 L2056.76 1559.61 Q2062.57 1559.61 2065.53 1562.25 Q2068.52 1564.87 2068.52 1569.94 Q2068.52 1575.05 2065.53 1577.67 Q2062.57 1580.28 2056.76 1580.28 L2050.88 1580.28 L2050.88 1594.17 L2046.21 1594.17 L2046.21 1559.61 Z" fill="#000000" fill-rule="nonzero" fill-opacity="1" /><path clip-path="url(#clip610)" d="M2095.51 1560.75 L2095.51 1565.31 Q2092.85 1564.03 2090.49 1563.41 Q2088.13 1562.78 2085.93 1562.78 Q2082.11 1562.78 2080.03 1564.27 Q2077.97 1565.75 2077.97 1568.48 Q2077.97 1570.77 2079.33 1571.95 Q2080.72 1573.11 2084.56 1573.83 L2087.39 1574.4 Q2092.62 1575.4 2095.09 1577.92 Q2097.59 1580.42 2097.59 1584.64 Q2097.59 1589.66 2094.22 1592.25 Q2090.86 1594.84 2084.35 1594.84 Q2081.9 1594.84 2079.12 1594.29 Q2076.37 1593.73 2073.41 1592.65 L2073.41 1587.83 Q2076.25 1589.43 2078.98 1590.24 Q2081.72 1591.05 2084.35 1591.05 Q2088.36 1591.05 2090.53 1589.47 Q2092.71 1587.9 2092.71 1584.98 Q2092.71 1582.44 2091.14 1581 Q2089.59 1579.57 2086.02 1578.85 L2083.17 1578.29 Q2077.94 1577.25 2075.6 1575.03 Q2073.27 1572.81 2073.27 1568.85 Q2073.27 1564.27 2076.48 1561.63 Q2079.72 1558.99 2085.4 1558.99 Q2087.83 1558.99 2090.35 1559.43 Q2092.87 1559.87 2095.51 1560.75 Z" fill="#000000" fill-rule="nonzero" fill-opacity="1" /><path clip-path="url(#clip610)" d="M2104.89 1559.61 L2111.85 1559.61 L2120.67 1583.13 L2129.54 1559.61 L2136.51 1559.61 L2136.51 1594.17 L2131.95 1594.17 L2131.95 1563.83 L2123.03 1587.53 L2118.34 1587.53 L2109.42 1563.83 L2109.42 1594.17 L2104.89 1594.17 L2104.89 1559.61 Z" fill="#000000" fill-rule="nonzero" fill-opacity="1" /><path clip-path="url(#clip610)" d="M2182.85 1580.15 L2182.85 1582.23 L2163.27 1582.23 Q2163.54 1586.63 2165.9 1588.94 Q2168.29 1591.23 2172.52 1591.23 Q2174.98 1591.23 2177.27 1590.63 Q2179.59 1590.03 2181.85 1588.83 L2181.85 1592.85 Q2179.56 1593.83 2177.15 1594.33 Q2174.75 1594.84 2172.27 1594.84 Q2166.07 1594.84 2162.43 1591.23 Q2158.82 1587.62 2158.82 1581.46 Q2158.82 1575.1 2162.25 1571.37 Q2165.7 1567.62 2171.53 1567.62 Q2176.76 1567.62 2179.79 1571 Q2182.85 1574.36 2182.85 1580.15 M2178.59 1578.9 Q2178.54 1575.4 2176.62 1573.32 Q2174.72 1571.23 2171.58 1571.23 Q2168.01 1571.23 2165.86 1573.25 Q2163.73 1575.26 2163.4 1578.92 L2178.59 1578.9 Z" fill="#000000" fill-rule="nonzero" fill-opacity="1" /><path clip-path="url(#clip610)" d="M2206.37 1569.01 L2206.37 1573.04 Q2204.56 1572.11 2202.62 1571.65 Q2200.67 1571.19 2198.59 1571.19 Q2195.42 1571.19 2193.82 1572.16 Q2192.25 1573.13 2192.25 1575.08 Q2192.25 1576.56 2193.38 1577.41 Q2194.52 1578.25 2197.94 1579.01 L2199.4 1579.33 Q2203.94 1580.31 2205.83 1582.09 Q2207.76 1583.85 2207.76 1587.02 Q2207.76 1590.63 2204.89 1592.74 Q2202.04 1594.84 2197.04 1594.84 Q2194.96 1594.84 2192.69 1594.43 Q2190.44 1594.03 2187.94 1593.22 L2187.94 1588.83 Q2190.3 1590.05 2192.59 1590.68 Q2194.89 1591.28 2197.13 1591.28 Q2200.14 1591.28 2201.76 1590.26 Q2203.38 1589.22 2203.38 1587.34 Q2203.38 1585.61 2202.2 1584.68 Q2201.04 1583.76 2197.08 1582.9 L2195.6 1582.55 Q2191.65 1581.72 2189.89 1580.01 Q2188.13 1578.27 2188.13 1575.26 Q2188.13 1571.6 2190.72 1569.61 Q2193.31 1567.62 2198.08 1567.62 Q2200.44 1567.62 2202.52 1567.97 Q2204.61 1568.32 2206.37 1569.01 Z" fill="#000000" fill-rule="nonzero" fill-opacity="1" /><path clip-path="url(#clip610)" d="M2218.75 1560.89 L2218.75 1568.25 L2227.52 1568.25 L2227.52 1571.56 L2218.75 1571.56 L2218.75 1585.63 Q2218.75 1588.8 2219.61 1589.71 Q2220.49 1590.61 2223.15 1590.61 L2227.52 1590.61 L2227.52 1594.17 L2223.15 1594.17 Q2218.22 1594.17 2216.34 1592.34 Q2214.47 1590.49 2214.47 1585.63 L2214.47 1571.56 L2211.34 1571.56 L2211.34 1568.25 L2214.47 1568.25 L2214.47 1560.89 L2218.75 1560.89 Z" fill="#000000" fill-rule="nonzero" fill-opacity="1" /><path clip-path="url(#clip610)" d="M2233.13 1568.25 L2237.39 1568.25 L2237.39 1594.17 L2233.13 1594.17 L2233.13 1568.25 M2233.13 1558.15 L2237.39 1558.15 L2237.39 1563.55 L2233.13 1563.55 L2233.13 1558.15 Z" fill="#000000" fill-rule="nonzero" fill-opacity="1" /><path clip-path="url(#clip610)" d="M2266.48 1573.22 Q2268.08 1570.35 2270.3 1568.99 Q2272.52 1567.62 2275.53 1567.62 Q2279.58 1567.62 2281.78 1570.47 Q2283.98 1573.29 2283.98 1578.52 L2283.98 1594.17 L2279.7 1594.17 L2279.7 1578.66 Q2279.7 1574.94 2278.38 1573.13 Q2277.06 1571.33 2274.35 1571.33 Q2271.04 1571.33 2269.12 1573.52 Q2267.2 1575.72 2267.2 1579.52 L2267.2 1594.17 L2262.92 1594.17 L2262.92 1578.66 Q2262.92 1574.91 2261.6 1573.13 Q2260.28 1571.33 2257.52 1571.33 Q2254.26 1571.33 2252.34 1573.55 Q2250.42 1575.75 2250.42 1579.52 L2250.42 1594.17 L2246.14 1594.17 L2246.14 1568.25 L2250.42 1568.25 L2250.42 1572.27 Q2251.88 1569.89 2253.91 1568.76 Q2255.95 1567.62 2258.75 1567.62 Q2261.58 1567.62 2263.54 1569.06 Q2265.53 1570.49 2266.48 1573.22 Z" fill="#000000" fill-rule="nonzero" fill-opacity="1" /><path clip-path="url(#clip610)" d="M2304.26 1581.14 Q2299.1 1581.14 2297.11 1582.32 Q2295.12 1583.5 2295.12 1586.35 Q2295.12 1588.62 2296.6 1589.96 Q2298.1 1591.28 2300.67 1591.28 Q2304.21 1591.28 2306.34 1588.78 Q2308.5 1586.26 2308.5 1582.09 L2308.5 1581.14 L2304.26 1581.14 M2312.76 1579.38 L2312.76 1594.17 L2308.5 1594.17 L2308.5 1590.24 Q2307.04 1592.6 2304.86 1593.73 Q2302.69 1594.84 2299.54 1594.84 Q2295.56 1594.84 2293.2 1592.62 Q2290.86 1590.38 2290.86 1586.63 Q2290.86 1582.25 2293.77 1580.03 Q2296.71 1577.81 2302.52 1577.81 L2308.5 1577.81 L2308.5 1577.39 Q2308.5 1574.45 2306.55 1572.85 Q2304.63 1571.23 2301.14 1571.23 Q2298.91 1571.23 2296.81 1571.77 Q2294.7 1572.3 2292.76 1573.36 L2292.76 1569.43 Q2295.09 1568.52 2297.29 1568.09 Q2299.49 1567.62 2301.58 1567.62 Q2307.2 1567.62 2309.98 1570.54 Q2312.76 1573.46 2312.76 1579.38 Z" fill="#000000" fill-rule="nonzero" fill-opacity="1" /><path clip-path="url(#clip610)" d="M2325.74 1560.89 L2325.74 1568.25 L2334.51 1568.25 L2334.51 1571.56 L2325.74 1571.56 L2325.74 1585.63 Q2325.74 1588.8 2326.6 1589.71 Q2327.48 1590.61 2330.14 1590.61 L2334.51 1590.61 L2334.51 1594.17 L2330.14 1594.17 Q2325.21 1594.17 2323.33 1592.34 Q2321.46 1590.49 2321.46 1585.63 L2321.46 1571.56 L2318.33 1571.56 L2318.33 1568.25 L2321.46 1568.25 L2321.46 1560.89 L2325.74 1560.89 Z" fill="#000000" fill-rule="nonzero" fill-opacity="1" /><path clip-path="url(#clip610)" d="M2362.29 1580.15 L2362.29 1582.23 L2342.71 1582.23 Q2342.99 1586.63 2345.35 1588.94 Q2347.73 1591.23 2351.97 1591.23 Q2354.42 1591.23 2356.71 1590.63 Q2359.03 1590.03 2361.3 1588.83 L2361.3 1592.85 Q2359.01 1593.83 2356.6 1594.33 Q2354.19 1594.84 2351.71 1594.84 Q2345.51 1594.84 2341.88 1591.23 Q2338.26 1587.62 2338.26 1581.46 Q2338.26 1575.1 2341.69 1571.37 Q2345.14 1567.62 2350.97 1567.62 Q2356.2 1567.62 2359.24 1571 Q2362.29 1574.36 2362.29 1580.15 M2358.03 1578.9 Q2357.99 1575.4 2356.07 1573.32 Q2354.17 1571.23 2351.02 1571.23 Q2347.45 1571.23 2345.3 1573.25 Q2343.17 1575.26 2342.85 1578.92 L2358.03 1578.9 Z" fill="#000000" fill-rule="nonzero" fill-opacity="1" /><polyline clip-path="url(#clip610)" style="stroke:#808080; stroke-linecap:round; stroke-linejoin:round; stroke-width:4; stroke-opacity:0.5; fill:none" stroke-dasharray="2, 4" points="1858.34,1628.73 2019.37,1628.73 "/>
<path clip-path="url(#clip610)" d="M2062.04 1616.06 L2055.7 1633.26 L2068.41 1633.26 L2062.04 1616.06 M2059.4 1611.45 L2064.7 1611.45 L2077.87 1646.01 L2073.01 1646.01 L2069.86 1637.15 L2054.28 1637.15 L2051.14 1646.01 L2046.21 1646.01 L2059.4 1611.45 Z" fill="#000000" fill-rule="nonzero" fill-opacity="1" /><path clip-path="url(#clip610)" d="M2099.26 1620.85 L2099.26 1624.88 Q2097.46 1623.95 2095.51 1623.49 Q2093.57 1623.03 2091.48 1623.03 Q2088.31 1623.03 2086.72 1624 Q2085.14 1624.97 2085.14 1626.92 Q2085.14 1628.4 2086.28 1629.25 Q2087.41 1630.09 2090.84 1630.85 L2092.29 1631.17 Q2096.83 1632.15 2098.73 1633.93 Q2100.65 1635.69 2100.65 1638.86 Q2100.65 1642.47 2097.78 1644.58 Q2094.93 1646.68 2089.93 1646.68 Q2087.85 1646.68 2085.58 1646.27 Q2083.34 1645.87 2080.84 1645.06 L2080.84 1640.67 Q2083.2 1641.89 2085.49 1642.52 Q2087.78 1643.12 2090.03 1643.12 Q2093.03 1643.12 2094.65 1642.1 Q2096.28 1641.06 2096.28 1639.18 Q2096.28 1637.45 2095.09 1636.52 Q2093.94 1635.6 2089.98 1634.74 L2088.5 1634.39 Q2084.54 1633.56 2082.78 1631.85 Q2081.02 1630.11 2081.02 1627.1 Q2081.02 1623.44 2083.61 1621.45 Q2086.21 1619.46 2090.97 1619.46 Q2093.34 1619.46 2095.42 1619.81 Q2097.5 1620.16 2099.26 1620.85 Z" fill="#000000" fill-rule="nonzero" fill-opacity="1" /><path clip-path="url(#clip610)" d="M2118.22 1648.42 Q2116.41 1653.05 2114.7 1654.46 Q2112.99 1655.87 2110.12 1655.87 L2106.72 1655.87 L2106.72 1652.31 L2109.22 1652.31 Q2110.97 1652.31 2111.95 1651.48 Q2112.92 1650.64 2114.1 1647.54 L2114.86 1645.6 L2104.38 1620.09 L2108.89 1620.09 L2116.99 1640.36 L2125.09 1620.09 L2129.61 1620.09 L2118.22 1648.42 Z" fill="#000000" fill-rule="nonzero" fill-opacity="1" /><path clip-path="url(#clip610)" d="M2155.67 1625.06 Q2157.27 1622.19 2159.49 1620.83 Q2161.71 1619.46 2164.72 1619.46 Q2168.77 1619.46 2170.97 1622.31 Q2173.17 1625.13 2173.17 1630.36 L2173.17 1646.01 L2168.89 1646.01 L2168.89 1630.5 Q2168.89 1626.78 2167.57 1624.97 Q2166.25 1623.17 2163.54 1623.17 Q2160.23 1623.17 2158.31 1625.36 Q2156.39 1627.56 2156.39 1631.36 L2156.39 1646.01 L2152.11 1646.01 L2152.11 1630.5 Q2152.11 1626.75 2150.79 1624.97 Q2149.47 1623.17 2146.71 1623.17 Q2143.45 1623.17 2141.53 1625.39 Q2139.61 1627.59 2139.61 1631.36 L2139.61 1646.01 L2135.33 1646.01 L2135.33 1620.09 L2139.61 1620.09 L2139.61 1624.11 Q2141.07 1621.73 2143.1 1620.6 Q2145.14 1619.46 2147.94 1619.46 Q2150.77 1619.46 2152.73 1620.9 Q2154.72 1622.33 2155.67 1625.06 Z" fill="#000000" fill-rule="nonzero" fill-opacity="1" /><path clip-path="url(#clip610)" d="M2185.79 1642.12 L2185.79 1655.87 L2181.51 1655.87 L2181.51 1620.09 L2185.79 1620.09 L2185.79 1624.02 Q2187.13 1621.71 2189.17 1620.6 Q2191.23 1619.46 2194.08 1619.46 Q2198.8 1619.46 2201.74 1623.21 Q2204.7 1626.96 2204.7 1633.07 Q2204.7 1639.18 2201.74 1642.93 Q2198.8 1646.68 2194.08 1646.68 Q2191.23 1646.68 2189.17 1645.57 Q2187.13 1644.44 2185.79 1642.12 M2200.28 1633.07 Q2200.28 1628.37 2198.33 1625.71 Q2196.41 1623.03 2193.03 1623.03 Q2189.65 1623.03 2187.71 1625.71 Q2185.79 1628.37 2185.79 1633.07 Q2185.79 1637.77 2187.71 1640.46 Q2189.65 1643.12 2193.03 1643.12 Q2196.41 1643.12 2198.33 1640.46 Q2200.28 1637.77 2200.28 1633.07 Z" fill="#000000" fill-rule="nonzero" fill-opacity="1" /><path clip-path="url(#clip610)" d="M2215.97 1612.73 L2215.97 1620.09 L2224.75 1620.09 L2224.75 1623.4 L2215.97 1623.4 L2215.97 1637.47 Q2215.97 1640.64 2216.83 1641.55 Q2217.71 1642.45 2220.37 1642.45 L2224.75 1642.45 L2224.75 1646.01 L2220.37 1646.01 Q2215.44 1646.01 2213.57 1644.18 Q2211.69 1642.33 2211.69 1637.47 L2211.69 1623.4 L2208.57 1623.4 L2208.57 1620.09 L2211.69 1620.09 L2211.69 1612.73 L2215.97 1612.73 Z" fill="#000000" fill-rule="nonzero" fill-opacity="1" /><path clip-path="url(#clip610)" d="M2240.39 1623.07 Q2236.97 1623.07 2234.98 1625.76 Q2232.99 1628.42 2232.99 1633.07 Q2232.99 1637.73 2234.96 1640.41 Q2236.95 1643.07 2240.39 1643.07 Q2243.8 1643.07 2245.79 1640.39 Q2247.78 1637.7 2247.78 1633.07 Q2247.78 1628.47 2245.79 1625.78 Q2243.8 1623.07 2240.39 1623.07 M2240.39 1619.46 Q2245.95 1619.46 2249.12 1623.07 Q2252.29 1626.68 2252.29 1633.07 Q2252.29 1639.44 2249.12 1643.07 Q2245.95 1646.68 2240.39 1646.68 Q2234.82 1646.68 2231.64 1643.07 Q2228.5 1639.44 2228.5 1633.07 Q2228.5 1626.68 2231.64 1623.07 Q2234.82 1619.46 2240.39 1619.46 Z" fill="#000000" fill-rule="nonzero" fill-opacity="1" /><path clip-path="url(#clip610)" d="M2263.57 1612.73 L2263.57 1620.09 L2272.34 1620.09 L2272.34 1623.4 L2263.57 1623.4 L2263.57 1637.47 Q2263.57 1640.64 2264.42 1641.55 Q2265.3 1642.45 2267.96 1642.45 L2272.34 1642.45 L2272.34 1646.01 L2267.96 1646.01 Q2263.03 1646.01 2261.16 1644.18 Q2259.28 1642.33 2259.28 1637.47 L2259.28 1623.4 L2256.16 1623.4 L2256.16 1620.09 L2259.28 1620.09 L2259.28 1612.73 L2263.57 1612.73 Z" fill="#000000" fill-rule="nonzero" fill-opacity="1" /><path clip-path="url(#clip610)" d="M2300.12 1631.99 L2300.12 1634.07 L2280.53 1634.07 Q2280.81 1638.47 2283.17 1640.78 Q2285.56 1643.07 2289.79 1643.07 Q2292.25 1643.07 2294.54 1642.47 Q2296.85 1641.87 2299.12 1640.67 L2299.12 1644.69 Q2296.83 1645.67 2294.42 1646.17 Q2292.02 1646.68 2289.54 1646.68 Q2283.33 1646.68 2279.7 1643.07 Q2276.09 1639.46 2276.09 1633.3 Q2276.09 1626.94 2279.52 1623.21 Q2282.96 1619.46 2288.8 1619.46 Q2294.03 1619.46 2297.06 1622.84 Q2300.12 1626.2 2300.12 1631.99 M2295.86 1630.74 Q2295.81 1627.24 2293.89 1625.16 Q2291.99 1623.07 2288.84 1623.07 Q2285.28 1623.07 2283.13 1625.09 Q2281 1627.1 2280.67 1630.76 L2295.86 1630.74 Z" fill="#000000" fill-rule="nonzero" fill-opacity="1" /><path clip-path="url(#clip610)" d="M2332.41 1610.04 Q2329.31 1615.36 2327.8 1620.57 Q2326.3 1625.78 2326.3 1631.13 Q2326.3 1636.48 2327.8 1641.73 Q2329.33 1646.96 2332.41 1652.26 L2328.7 1652.26 Q2325.23 1646.82 2323.5 1641.57 Q2321.78 1636.31 2321.78 1631.13 Q2321.78 1625.97 2323.5 1620.74 Q2325.21 1615.5 2328.7 1610.04 L2332.41 1610.04 Z" fill="#000000" fill-rule="nonzero" fill-opacity="1" /><path clip-path="url(#clip610)" d="M2337.62 1620.09 L2342.13 1620.09 L2350.23 1641.85 L2358.33 1620.09 L2362.85 1620.09 L2353.13 1646.01 L2347.34 1646.01 L2337.62 1620.09 Z" fill="#000000" fill-rule="nonzero" fill-opacity="1" /><path clip-path="url(#clip610)" d="M2388.91 1625.06 Q2390.51 1622.19 2392.73 1620.83 Q2394.95 1619.46 2397.96 1619.46 Q2402.01 1619.46 2404.21 1622.31 Q2406.41 1625.13 2406.41 1630.36 L2406.41 1646.01 L2402.13 1646.01 L2402.13 1630.5 Q2402.13 1626.78 2400.81 1624.97 Q2399.49 1623.17 2396.78 1623.17 Q2393.47 1623.17 2391.55 1625.36 Q2389.63 1627.56 2389.63 1631.36 L2389.63 1646.01 L2385.35 1646.01 L2385.35 1630.5 Q2385.35 1626.75 2384.03 1624.97 Q2382.71 1623.17 2379.95 1623.17 Q2376.69 1623.17 2374.77 1625.39 Q2372.85 1627.59 2372.85 1631.36 L2372.85 1646.01 L2368.57 1646.01 L2368.57 1620.09 L2372.85 1620.09 L2372.85 1624.11 Q2374.31 1621.73 2376.34 1620.6 Q2378.38 1619.46 2381.18 1619.46 Q2384.01 1619.46 2385.97 1620.9 Q2387.96 1622.33 2388.91 1625.06 Z" fill="#000000" fill-rule="nonzero" fill-opacity="1" /><path clip-path="url(#clip610)" d="M2426.69 1632.98 Q2421.53 1632.98 2419.54 1634.16 Q2417.55 1635.34 2417.55 1638.19 Q2417.55 1640.46 2419.03 1641.8 Q2420.53 1643.12 2423.1 1643.12 Q2426.64 1643.12 2428.77 1640.62 Q2430.93 1638.1 2430.93 1633.93 L2430.93 1632.98 L2426.69 1632.98 M2435.19 1631.22 L2435.19 1646.01 L2430.93 1646.01 L2430.93 1642.08 Q2429.47 1644.44 2427.29 1645.57 Q2425.12 1646.68 2421.97 1646.68 Q2417.99 1646.68 2415.63 1644.46 Q2413.29 1642.22 2413.29 1638.47 Q2413.29 1634.09 2416.2 1631.87 Q2419.14 1629.65 2424.95 1629.65 L2430.93 1629.65 L2430.93 1629.23 Q2430.93 1626.29 2428.98 1624.69 Q2427.06 1623.07 2423.57 1623.07 Q2421.34 1623.07 2419.24 1623.61 Q2417.13 1624.14 2415.19 1625.2 L2415.19 1621.27 Q2417.52 1620.36 2419.72 1619.93 Q2421.92 1619.46 2424.01 1619.46 Q2429.63 1619.46 2432.41 1622.38 Q2435.19 1625.3 2435.19 1631.22 Z" fill="#000000" fill-rule="nonzero" fill-opacity="1" /><path clip-path="url(#clip610)" d="M2465.51 1620.09 L2456.13 1632.7 L2466 1646.01 L2460.97 1646.01 L2453.43 1635.83 L2445.88 1646.01 L2440.86 1646.01 L2450.93 1632.45 L2441.71 1620.09 L2446.74 1620.09 L2453.61 1629.32 L2460.49 1620.09 L2465.51 1620.09 Z" fill="#000000" fill-rule="nonzero" fill-opacity="1" /><path clip-path="url(#clip610)" d="M2471.34 1610.04 L2475.05 1610.04 Q2478.52 1615.5 2480.23 1620.74 Q2481.97 1625.97 2481.97 1631.13 Q2481.97 1636.31 2480.23 1641.57 Q2478.52 1646.82 2475.05 1652.26 L2471.34 1652.26 Q2474.42 1646.96 2475.93 1641.73 Q2477.45 1636.48 2477.45 1631.13 Q2477.45 1625.78 2475.93 1620.57 Q2474.42 1615.36 2471.34 1610.04 Z" fill="#000000" fill-rule="nonzero" fill-opacity="1" /></svg>
