<?xml version="1.0" encoding="utf-8"?>
<svg xmlns="http://www.w3.org/2000/svg" xmlns:xlink="http://www.w3.org/1999/xlink" width="672" height="480" viewBox="0 0 2688 1920">
<defs>
  <clipPath id="clip370">
    <rect x="0" y="0" width="2688" height="1920"/>
  </clipPath>
</defs>
<path clip-path="url(#clip370)" d="M0 1920 L2688 1920 L2688 -4.26326e-14 L0 -4.26326e-14  Z" fill="#ffffff" fill-rule="evenodd" fill-opacity="1"/>
<defs>
  <clipPath id="clip371">
    <rect x="208" y="127" width="2433" height="1607"/>
  </clipPath>
</defs>
<path clip-path="url(#clip370)" d="M208.502 1734.12 L2640.76 1734.12 L2640.76 127.792 L208.502 127.792  Z" fill="#ffffff" fill-rule="evenodd" fill-opacity="1"/>
<polyline clip-path="url(#clip371)" style="stroke:#000000; stroke-linecap:round; stroke-linejoin:round; stroke-width:2; stroke-opacity:0.1; fill:none" points="277.339,1734.12 277.339,127.792 "/>
<polyline clip-path="url(#clip371)" style="stroke:#000000; stroke-linecap:round; stroke-linejoin:round; stroke-width:2; stroke-opacity:0.1; fill:none" points="1042.2,1734.12 1042.2,127.792 "/>
<polyline clip-path="url(#clip371)" style="stroke:#000000; stroke-linecap:round; stroke-linejoin:round; stroke-width:2; stroke-opacity:0.1; fill:none" points="1807.06,1734.12 1807.06,127.792 "/>
<polyline clip-path="url(#clip371)" style="stroke:#000000; stroke-linecap:round; stroke-linejoin:round; stroke-width:2; stroke-opacity:0.1; fill:none" points="2571.92,1734.12 2571.92,127.792 "/>
<polyline clip-path="url(#clip371)" style="stroke:#000000; stroke-linecap:round; stroke-linejoin:round; stroke-width:2; stroke-opacity:0.1; fill:none" points="208.502,1520.54 2640.76,1520.54 "/>
<polyline clip-path="url(#clip371)" style="stroke:#000000; stroke-linecap:round; stroke-linejoin:round; stroke-width:2; stroke-opacity:0.1; fill:none" points="208.502,1184.3 2640.76,1184.3 "/>
<polyline clip-path="url(#clip371)" style="stroke:#000000; stroke-linecap:round; stroke-linejoin:round; stroke-width:2; stroke-opacity:0.1; fill:none" points="208.502,848.071 2640.76,848.071 "/>
<polyline clip-path="url(#clip371)" style="stroke:#000000; stroke-linecap:round; stroke-linejoin:round; stroke-width:2; stroke-opacity:0.1; fill:none" points="208.502,511.837 2640.76,511.837 "/>
<polyline clip-path="url(#clip371)" style="stroke:#000000; stroke-linecap:round; stroke-linejoin:round; stroke-width:2; stroke-opacity:0.1; fill:none" points="208.502,175.603 2640.76,175.603 "/>
<polyline clip-path="url(#clip370)" style="stroke:#000000; stroke-linecap:round; stroke-linejoin:round; stroke-width:4; stroke-opacity:1; fill:none" points="208.502,1734.12 2640.76,1734.12 "/>
<polyline clip-path="url(#clip370)" style="stroke:#000000; stroke-linecap:round; stroke-linejoin:round; stroke-width:4; stroke-opacity:1; fill:none" points="277.339,1734.12 277.339,1715.22 "/>
<polyline clip-path="url(#clip370)" style="stroke:#000000; stroke-linecap:round; stroke-linejoin:round; stroke-width:4; stroke-opacity:1; fill:none" points="1042.2,1734.12 1042.2,1715.22 "/>
<polyline clip-path="url(#clip370)" style="stroke:#000000; stroke-linecap:round; stroke-linejoin:round; stroke-width:4; stroke-opacity:1; fill:none" points="1807.06,1734.12 1807.06,1715.22 "/>
<polyline clip-path="url(#clip370)" style="stroke:#000000; stroke-linecap:round; stroke-linejoin:round; stroke-width:4; stroke-opacity:1; fill:none" points="2571.92,1734.12 2571.92,1715.22 "/>
<path clip-path="url(#clip370)" d="M277.339 1767.34 Q273.728 1767.34 271.899 1770.9 Q270.094 1774.45 270.094 1781.58 Q270.094 1788.68 271.899 1792.25 Q273.728 1795.79 277.339 1795.79 Q280.973 1795.79 282.779 1792.25 Q284.608 1788.68 284.608 1781.58 Q284.608 1774.45 282.779 1770.9 Q280.973 1767.34 277.339 1767.34 M277.339 1763.64 Q283.149 1763.64 286.205 1768.24 Q289.284 1772.83 289.284 1781.58 Q289.284 1790.3 286.205 1794.91 Q283.149 1799.49 277.339 1799.49 Q271.529 1799.49 268.45 1794.91 Q265.395 1790.3 265.395 1781.58 Q265.395 1772.83 268.45 1768.24 Q271.529 1763.64 277.339 1763.64 Z" fill="#000000" fill-rule="nonzero" fill-opacity="1" /><path clip-path="url(#clip370)" d="M1032.48 1764.26 L1050.83 1764.26 L1050.83 1768.2 L1036.76 1768.2 L1036.76 1776.67 Q1037.78 1776.32 1038.8 1776.16 Q1039.81 1775.97 1040.83 1775.97 Q1046.62 1775.97 1050 1779.15 Q1053.38 1782.32 1053.38 1787.73 Q1053.38 1793.31 1049.91 1796.41 Q1046.44 1799.49 1040.12 1799.49 Q1037.94 1799.49 1035.67 1799.12 Q1033.43 1798.75 1031.02 1798.01 L1031.02 1793.31 Q1033.1 1794.45 1035.32 1795 Q1037.55 1795.56 1040.02 1795.56 Q1044.03 1795.56 1046.37 1793.45 Q1048.7 1791.34 1048.7 1787.73 Q1048.7 1784.12 1046.37 1782.02 Q1044.03 1779.91 1040.02 1779.91 Q1038.15 1779.91 1036.27 1780.33 Q1034.42 1780.74 1032.48 1781.62 L1032.48 1764.26 Z" fill="#000000" fill-rule="nonzero" fill-opacity="1" /><path clip-path="url(#clip370)" d="M1781.75 1794.89 L1789.39 1794.89 L1789.39 1768.52 L1781.08 1770.19 L1781.08 1765.93 L1789.34 1764.26 L1794.01 1764.26 L1794.01 1794.89 L1801.65 1794.89 L1801.65 1798.82 L1781.75 1798.82 L1781.75 1794.89 Z" fill="#000000" fill-rule="nonzero" fill-opacity="1" /><path clip-path="url(#clip370)" d="M1821.1 1767.34 Q1817.49 1767.34 1815.66 1770.9 Q1813.85 1774.45 1813.85 1781.58 Q1813.85 1788.68 1815.66 1792.25 Q1817.49 1795.79 1821.1 1795.79 Q1824.73 1795.79 1826.54 1792.25 Q1828.37 1788.68 1828.37 1781.58 Q1828.37 1774.45 1826.54 1770.9 Q1824.73 1767.34 1821.1 1767.34 M1821.1 1763.64 Q1826.91 1763.64 1829.96 1768.24 Q1833.04 1772.83 1833.04 1781.58 Q1833.04 1790.3 1829.96 1794.91 Q1826.91 1799.49 1821.1 1799.49 Q1815.29 1799.49 1812.21 1794.91 Q1809.15 1790.3 1809.15 1781.58 Q1809.15 1772.83 1812.21 1768.24 Q1815.29 1763.64 1821.1 1763.64 Z" fill="#000000" fill-rule="nonzero" fill-opacity="1" /><path clip-path="url(#clip370)" d="M2547.1 1794.89 L2554.74 1794.89 L2554.74 1768.52 L2546.43 1770.19 L2546.43 1765.93 L2554.7 1764.26 L2559.37 1764.26 L2559.37 1794.89 L2567.01 1794.89 L2567.01 1798.82 L2547.1 1798.82 L2547.1 1794.89 Z" fill="#000000" fill-rule="nonzero" fill-opacity="1" /><path clip-path="url(#clip370)" d="M2576.5 1764.26 L2594.86 1764.26 L2594.86 1768.2 L2580.78 1768.2 L2580.78 1776.67 Q2581.8 1776.32 2582.82 1776.16 Q2583.84 1775.97 2584.86 1775.97 Q2590.65 1775.97 2594.02 1779.15 Q2597.4 1782.32 2597.4 1787.73 Q2597.4 1793.31 2593.93 1796.41 Q2590.46 1799.49 2584.14 1799.49 Q2581.96 1799.49 2579.7 1799.12 Q2577.45 1798.75 2575.04 1798.01 L2575.04 1793.31 Q2577.13 1794.45 2579.35 1795 Q2581.57 1795.56 2584.05 1795.56 Q2588.05 1795.56 2590.39 1793.45 Q2592.73 1791.34 2592.73 1787.73 Q2592.73 1784.12 2590.39 1782.02 Q2588.05 1779.91 2584.05 1779.91 Q2582.17 1779.91 2580.3 1780.33 Q2578.45 1780.74 2576.5 1781.62 L2576.5 1764.26 Z" fill="#000000" fill-rule="nonzero" fill-opacity="1" /><path clip-path="url(#clip370)" d="M1346.51 1835.78 L1386.71 1835.78 L1386.71 1841.19 L1369.84 1841.19 L1369.84 1883.3 L1363.37 1883.3 L1363.37 1841.19 L1346.51 1841.19 L1346.51 1835.78 Z" fill="#000000" fill-rule="nonzero" fill-opacity="1" /><path clip-path="url(#clip370)" d="M1390.65 1847.65 L1396.51 1847.65 L1396.51 1883.3 L1390.65 1883.3 L1390.65 1847.65 M1390.65 1833.78 L1396.51 1833.78 L1396.51 1841.19 L1390.65 1841.19 L1390.65 1833.78 Z" fill="#000000" fill-rule="nonzero" fill-opacity="1" /><path clip-path="url(#clip370)" d="M1436.52 1854.5 Q1438.71 1850.55 1441.77 1848.67 Q1444.82 1846.79 1448.96 1846.79 Q1454.53 1846.79 1457.56 1850.71 Q1460.58 1854.59 1460.58 1861.78 L1460.58 1883.3 L1454.69 1883.3 L1454.69 1861.98 Q1454.69 1856.85 1452.88 1854.37 Q1451.06 1851.89 1447.34 1851.89 Q1442.79 1851.89 1440.15 1854.91 Q1437.5 1857.93 1437.5 1863.15 L1437.5 1883.3 L1431.62 1883.3 L1431.62 1861.98 Q1431.62 1856.82 1429.8 1854.37 Q1427.99 1851.89 1424.2 1851.89 Q1419.71 1851.89 1417.07 1854.94 Q1414.43 1857.97 1414.43 1863.15 L1414.43 1883.3 L1408.54 1883.3 L1408.54 1847.65 L1414.43 1847.65 L1414.43 1853.19 Q1416.43 1849.91 1419.23 1848.35 Q1422.03 1846.79 1425.89 1846.79 Q1429.77 1846.79 1432.47 1848.77 Q1435.21 1850.74 1436.52 1854.5 Z" fill="#000000" fill-rule="nonzero" fill-opacity="1" /><path clip-path="url(#clip370)" d="M1502.75 1864.01 L1502.75 1866.88 L1475.83 1866.88 Q1476.21 1872.92 1479.45 1876.11 Q1482.73 1879.26 1488.56 1879.26 Q1491.93 1879.26 1495.08 1878.43 Q1498.26 1877.6 1501.38 1875.95 L1501.38 1881.49 Q1498.23 1882.82 1494.92 1883.52 Q1491.61 1884.22 1488.21 1884.22 Q1479.68 1884.22 1474.68 1879.26 Q1469.71 1874.29 1469.71 1865.83 Q1469.71 1857.07 1474.42 1851.95 Q1479.17 1846.79 1487.19 1846.79 Q1494.38 1846.79 1498.55 1851.44 Q1502.75 1856.06 1502.75 1864.01 M1496.9 1862.29 Q1496.83 1857.49 1494.19 1854.62 Q1491.58 1851.76 1487.25 1851.76 Q1482.35 1851.76 1479.39 1854.53 Q1476.46 1857.3 1476.02 1862.33 L1496.9 1862.29 Z" fill="#000000" fill-rule="nonzero" fill-opacity="1" /><polyline clip-path="url(#clip370)" style="stroke:#000000; stroke-linecap:round; stroke-linejoin:round; stroke-width:4; stroke-opacity:1; fill:none" points="208.502,1734.12 208.502,127.792 "/>
<polyline clip-path="url(#clip370)" style="stroke:#000000; stroke-linecap:round; stroke-linejoin:round; stroke-width:4; stroke-opacity:1; fill:none" points="208.502,1520.54 227.399,1520.54 "/>
<polyline clip-path="url(#clip370)" style="stroke:#000000; stroke-linecap:round; stroke-linejoin:round; stroke-width:4; stroke-opacity:1; fill:none" points="208.502,1184.3 227.399,1184.3 "/>
<polyline clip-path="url(#clip370)" style="stroke:#000000; stroke-linecap:round; stroke-linejoin:round; stroke-width:4; stroke-opacity:1; fill:none" points="208.502,848.071 227.399,848.071 "/>
<polyline clip-path="url(#clip370)" style="stroke:#000000; stroke-linecap:round; stroke-linejoin:round; stroke-width:4; stroke-opacity:1; fill:none" points="208.502,511.837 227.399,511.837 "/>
<polyline clip-path="url(#clip370)" style="stroke:#000000; stroke-linecap:round; stroke-linejoin:round; stroke-width:4; stroke-opacity:1; fill:none" points="208.502,175.603 227.399,175.603 "/>
<path clip-path="url(#clip370)" d="M151.862 1533.88 L168.182 1533.88 L168.182 1537.82 L146.237 1537.82 L146.237 1533.88 Q148.899 1531.13 153.483 1526.5 Q158.089 1521.85 159.27 1520.5 Q161.515 1517.98 162.395 1516.24 Q163.298 1514.48 163.298 1512.8 Q163.298 1510.04 161.353 1508.3 Q159.432 1506.57 156.33 1506.57 Q154.131 1506.57 151.677 1507.33 Q149.247 1508.1 146.469 1509.65 L146.469 1504.92 Q149.293 1503.79 151.747 1503.21 Q154.2 1502.63 156.237 1502.63 Q161.608 1502.63 164.802 1505.32 Q167.997 1508 167.997 1512.49 Q167.997 1514.62 167.186 1516.55 Q166.399 1518.44 164.293 1521.04 Q163.714 1521.71 160.612 1524.92 Q157.511 1528.12 151.862 1533.88 Z" fill="#000000" fill-rule="nonzero" fill-opacity="1" /><path clip-path="url(#clip370)" d="M158.598 1171.1 L146.793 1189.55 L158.598 1189.55 L158.598 1171.1 M157.372 1167.02 L163.251 1167.02 L163.251 1189.55 L168.182 1189.55 L168.182 1193.44 L163.251 1193.44 L163.251 1201.58 L158.598 1201.58 L158.598 1193.44 L142.997 1193.44 L142.997 1188.92 L157.372 1167.02 Z" fill="#000000" fill-rule="nonzero" fill-opacity="1" /><path clip-path="url(#clip370)" d="M156.654 846.207 Q153.506 846.207 151.654 848.36 Q149.825 850.513 149.825 854.263 Q149.825 857.99 151.654 860.165 Q153.506 862.318 156.654 862.318 Q159.802 862.318 161.631 860.165 Q163.483 857.99 163.483 854.263 Q163.483 850.513 161.631 848.36 Q159.802 846.207 156.654 846.207 M165.936 831.554 L165.936 835.814 Q164.177 834.98 162.372 834.541 Q160.589 834.101 158.83 834.101 Q154.2 834.101 151.747 837.226 Q149.316 840.351 148.969 846.67 Q150.335 844.656 152.395 843.591 Q154.455 842.503 156.932 842.503 Q162.14 842.503 165.149 845.675 Q168.182 848.823 168.182 854.263 Q168.182 859.587 165.034 862.804 Q161.885 866.022 156.654 866.022 Q150.659 866.022 147.487 861.439 Q144.316 856.832 144.316 848.105 Q144.316 839.911 148.205 835.05 Q152.094 830.166 158.645 830.166 Q160.404 830.166 162.186 830.513 Q163.992 830.86 165.936 831.554 Z" fill="#000000" fill-rule="nonzero" fill-opacity="1" /><path clip-path="url(#clip370)" d="M156.33 512.705 Q152.997 512.705 151.075 514.487 Q149.177 516.27 149.177 519.395 Q149.177 522.52 151.075 524.302 Q152.997 526.084 156.33 526.084 Q159.663 526.084 161.585 524.302 Q163.506 522.497 163.506 519.395 Q163.506 516.27 161.585 514.487 Q159.686 512.705 156.33 512.705 M151.654 510.714 Q148.645 509.973 146.955 507.913 Q145.288 505.853 145.288 502.89 Q145.288 498.747 148.228 496.339 Q151.191 493.932 156.33 493.932 Q161.492 493.932 164.432 496.339 Q167.372 498.747 167.372 502.89 Q167.372 505.853 165.682 507.913 Q164.015 509.973 161.029 510.714 Q164.409 511.501 166.284 513.793 Q168.182 516.084 168.182 519.395 Q168.182 524.418 165.103 527.103 Q162.048 529.788 156.33 529.788 Q150.612 529.788 147.534 527.103 Q144.478 524.418 144.478 519.395 Q144.478 516.084 146.376 513.793 Q148.274 511.501 151.654 510.714 M149.941 503.33 Q149.941 506.015 151.608 507.52 Q153.298 509.024 156.33 509.024 Q159.339 509.024 161.029 507.52 Q162.742 506.015 162.742 503.33 Q162.742 500.645 161.029 499.14 Q159.339 497.636 156.33 497.636 Q153.298 497.636 151.608 499.14 Q149.941 500.645 149.941 503.33 Z" fill="#000000" fill-rule="nonzero" fill-opacity="1" /><path clip-path="url(#clip370)" d="M116.886 188.948 L124.525 188.948 L124.525 162.582 L116.214 164.249 L116.214 159.99 L124.478 158.323 L129.154 158.323 L129.154 188.948 L136.793 188.948 L136.793 192.883 L116.886 192.883 L116.886 188.948 Z" fill="#000000" fill-rule="nonzero" fill-opacity="1" /><path clip-path="url(#clip370)" d="M156.237 161.402 Q152.626 161.402 150.798 164.967 Q148.992 168.508 148.992 175.638 Q148.992 182.744 150.798 186.309 Q152.626 189.851 156.237 189.851 Q159.872 189.851 161.677 186.309 Q163.506 182.744 163.506 175.638 Q163.506 168.508 161.677 164.967 Q159.872 161.402 156.237 161.402 M156.237 157.698 Q162.048 157.698 165.103 162.305 Q168.182 166.888 168.182 175.638 Q168.182 184.365 165.103 188.971 Q162.048 193.554 156.237 193.554 Q150.427 193.554 147.349 188.971 Q144.293 184.365 144.293 175.638 Q144.293 166.888 147.349 162.305 Q150.427 157.698 156.237 157.698 Z" fill="#000000" fill-rule="nonzero" fill-opacity="1" /><path clip-path="url(#clip370)" d="M19.402 1124.11 L37.2578 1124.11 L37.2578 1116.02 Q37.2578 1111.53 34.9343 1109.08 Q32.6108 1106.63 28.314 1106.63 Q24.0489 1106.63 21.7255 1109.08 Q19.402 1111.53 19.402 1116.02 L19.402 1124.11 M14.1184 1130.54 L14.1184 1116.02 Q14.1184 1108.03 17.7469 1103.96 Q21.3435 1099.85 28.314 1099.85 Q35.3481 1099.85 38.9447 1103.96 Q42.5413 1108.03 42.5413 1116.02 L42.5413 1124.11 L61.6384 1124.11 L61.6384 1130.54 L14.1184 1130.54 Z" fill="#000000" fill-rule="nonzero" fill-opacity="1" /><path clip-path="url(#clip370)" d="M30.0964 1079.99 Q30.0964 1084.7 33.7885 1087.44 Q37.4488 1090.18 43.8463 1090.18 Q50.2438 1090.18 53.9359 1087.47 Q57.5962 1084.73 57.5962 1079.99 Q57.5962 1075.31 53.9041 1072.58 Q50.212 1069.84 43.8463 1069.84 Q37.5124 1069.84 33.8203 1072.58 Q30.0964 1075.31 30.0964 1079.99 M25.1311 1079.99 Q25.1311 1072.35 30.0964 1067.99 Q35.0616 1063.63 43.8463 1063.63 Q52.5991 1063.63 57.5962 1067.99 Q62.5615 1072.35 62.5615 1079.99 Q62.5615 1087.66 57.5962 1092.02 Q52.5991 1096.35 43.8463 1096.35 Q35.0616 1096.35 30.0964 1092.02 Q25.1311 1087.66 25.1311 1079.99 Z" fill="#000000" fill-rule="nonzero" fill-opacity="1" /><path clip-path="url(#clip370)" d="M56.2912 1048.26 L75.1974 1048.26 L75.1974 1054.15 L25.9905 1054.15 L25.9905 1048.26 L31.4013 1048.26 Q28.2185 1046.41 26.6907 1043.61 Q25.1311 1040.78 25.1311 1036.86 Q25.1311 1030.37 30.2873 1026.33 Q35.4436 1022.25 43.8463 1022.25 Q52.249 1022.25 57.4052 1026.33 Q62.5615 1030.37 62.5615 1036.86 Q62.5615 1040.78 61.0337 1043.61 Q59.4741 1046.41 56.2912 1048.26 M43.8463 1028.33 Q37.3851 1028.33 33.7248 1031.01 Q30.0327 1033.65 30.0327 1038.3 Q30.0327 1042.94 33.7248 1045.62 Q37.3851 1048.26 43.8463 1048.26 Q50.3075 1048.26 53.9996 1045.62 Q57.6599 1042.94 57.6599 1038.3 Q57.6599 1033.65 53.9996 1031.01 Q50.3075 1028.33 43.8463 1028.33 Z" fill="#000000" fill-rule="nonzero" fill-opacity="1" /><path clip-path="url(#clip370)" d="M47.5702 1013.15 L25.9905 1013.15 L25.9905 1007.3 L47.3474 1007.3 Q52.4082 1007.3 54.9545 1005.32 Q57.4689 1003.35 57.4689 999.402 Q57.4689 994.659 54.4452 991.922 Q51.4215 989.153 46.2016 989.153 L25.9905 989.153 L25.9905 983.297 L61.6384 983.297 L61.6384 989.153 L56.1639 989.153 Q59.4104 991.286 61.0019 994.118 Q62.5615 996.919 62.5615 1000.64 Q62.5615 1006.79 58.742 1009.97 Q54.9226 1013.15 47.5702 1013.15 M25.1311 998.415 L25.1311 998.415 Z" fill="#000000" fill-rule="nonzero" fill-opacity="1" /><path clip-path="url(#clip370)" d="M12.1132 971.234 L12.1132 965.377 L61.6384 965.377 L61.6384 971.234 L12.1132 971.234 Z" fill="#000000" fill-rule="nonzero" fill-opacity="1" /><path clip-path="url(#clip370)" d="M43.719 936.922 Q43.719 944.02 45.3422 946.757 Q46.9655 949.495 50.8804 949.495 Q53.9996 949.495 55.8457 947.458 Q57.6599 945.389 57.6599 941.856 Q57.6599 936.986 54.2224 934.058 Q50.7531 931.098 45.0239 931.098 L43.719 931.098 L43.719 936.922 M41.3 925.241 L61.6384 925.241 L61.6384 931.098 L56.2276 931.098 Q59.4741 933.103 61.0337 936.095 Q62.5615 939.087 62.5615 943.415 Q62.5615 948.89 59.5059 952.136 Q56.4186 955.351 51.2623 955.351 Q45.2467 955.351 42.1912 951.341 Q39.1357 947.299 39.1357 939.31 L39.1357 931.098 L38.5628 931.098 Q34.5205 931.098 32.3244 933.771 Q30.0964 936.413 30.0964 941.219 Q30.0964 944.275 30.8284 947.171 Q31.5605 950.068 33.0246 952.741 L27.6137 952.741 Q26.3724 949.527 25.7677 946.503 Q25.1311 943.479 25.1311 940.615 Q25.1311 932.88 29.1415 929.061 Q33.1519 925.241 41.3 925.241 Z" fill="#000000" fill-rule="nonzero" fill-opacity="1" /><path clip-path="url(#clip370)" d="M15.869 907.386 L25.9905 907.386 L25.9905 895.323 L30.542 895.323 L30.542 907.386 L49.8937 907.386 Q54.2542 907.386 55.4955 906.208 Q56.7368 904.998 56.7368 901.338 L56.7368 895.323 L61.6384 895.323 L61.6384 901.338 Q61.6384 908.118 59.124 910.696 Q56.5777 913.274 49.8937 913.274 L30.542 913.274 L30.542 917.571 L25.9905 917.571 L25.9905 913.274 L15.869 913.274 L15.869 907.386 Z" fill="#000000" fill-rule="nonzero" fill-opacity="1" /><path clip-path="url(#clip370)" d="M25.9905 887.62 L25.9905 881.764 L61.6384 881.764 L61.6384 887.62 L25.9905 887.62 M12.1132 887.62 L12.1132 881.764 L19.5293 881.764 L19.5293 887.62 L12.1132 887.62 Z" fill="#000000" fill-rule="nonzero" fill-opacity="1" /><path clip-path="url(#clip370)" d="M30.0964 855.696 Q30.0964 860.407 33.7885 863.144 Q37.4488 865.881 43.8463 865.881 Q50.2438 865.881 53.9359 863.176 Q57.5962 860.438 57.5962 855.696 Q57.5962 851.017 53.9041 848.28 Q50.212 845.543 43.8463 845.543 Q37.5124 845.543 33.8203 848.28 Q30.0964 851.017 30.0964 855.696 M25.1311 855.696 Q25.1311 848.057 30.0964 843.697 Q35.0616 839.336 43.8463 839.336 Q52.5991 839.336 57.5962 843.697 Q62.5615 848.057 62.5615 855.696 Q62.5615 863.367 57.5962 867.727 Q52.5991 872.056 43.8463 872.056 Q35.0616 872.056 30.0964 867.727 Q25.1311 863.367 25.1311 855.696 Z" fill="#000000" fill-rule="nonzero" fill-opacity="1" /><path clip-path="url(#clip370)" d="M40.1224 799.996 L61.6384 799.996 L61.6384 805.853 L40.3133 805.853 Q35.2526 805.853 32.7381 807.826 Q30.2237 809.799 30.2237 813.746 Q30.2237 818.488 33.2474 821.226 Q36.2711 823.963 41.491 823.963 L61.6384 823.963 L61.6384 829.851 L25.9905 829.851 L25.9905 823.963 L31.5287 823.963 Q28.314 821.862 26.7225 819.03 Q25.1311 816.165 25.1311 812.441 Q25.1311 806.298 28.9505 803.147 Q32.7381 799.996 40.1224 799.996 Z" fill="#000000" fill-rule="nonzero" fill-opacity="1" /><path clip-path="url(#clip370)" d="M14.1184 767.34 L14.1184 758.683 L53.8723 737.612 L14.1184 737.612 L14.1184 731.374 L61.6384 731.374 L61.6384 740.031 L21.8846 761.102 L61.6384 761.102 L61.6384 767.34 L14.1184 767.34 Z" fill="#000000" fill-rule="nonzero" fill-opacity="1" /><path clip-path="url(#clip370)" d="M999.081 12.096 L1007.26 12.096 L1007.26 65.6895 L1036.71 65.6895 L1036.71 72.576 L999.081 72.576 L999.081 12.096 Z" fill="#000000" fill-rule="nonzero" fill-opacity="1" /><path clip-path="url(#clip370)" d="M1061.1 32.4315 Q1055.11 32.4315 1051.62 37.1306 Q1048.14 41.7891 1048.14 49.9314 Q1048.14 58.0738 1051.58 62.7728 Q1055.06 67.4314 1061.1 67.4314 Q1067.06 67.4314 1070.54 62.7323 Q1074.02 58.0333 1074.02 49.9314 Q1074.02 41.8701 1070.54 37.1711 Q1067.06 32.4315 1061.1 32.4315 M1061.1 26.1121 Q1070.82 26.1121 1076.37 32.4315 Q1081.92 38.7509 1081.92 49.9314 Q1081.92 61.0714 1076.37 67.4314 Q1070.82 73.7508 1061.1 73.7508 Q1051.34 73.7508 1045.79 67.4314 Q1040.28 61.0714 1040.28 49.9314 Q1040.28 38.7509 1045.79 32.4315 Q1051.34 26.1121 1061.1 26.1121 Z" fill="#000000" fill-rule="nonzero" fill-opacity="1" /><path clip-path="url(#clip370)" d="M1124.13 49.3643 Q1124.13 41.2625 1120.77 36.8065 Q1117.45 32.3505 1111.41 32.3505 Q1105.42 32.3505 1102.06 36.8065 Q1098.73 41.2625 1098.73 49.3643 Q1098.73 57.4256 1102.06 61.8816 Q1105.42 66.3376 1111.41 66.3376 Q1117.45 66.3376 1120.77 61.8816 Q1124.13 57.4256 1124.13 49.3643 M1131.59 66.9452 Q1131.59 78.5308 1126.44 84.1616 Q1121.3 89.8329 1110.68 89.8329 Q1106.75 89.8329 1103.27 89.2252 Q1099.79 88.6581 1096.51 87.4428 L1096.51 80.1917 Q1099.79 81.9741 1102.99 82.8248 Q1106.19 83.6755 1109.51 83.6755 Q1116.84 83.6755 1120.49 79.8271 Q1124.13 76.0193 1124.13 68.282 L1124.13 64.5957 Q1121.82 68.6061 1118.22 70.5911 Q1114.61 72.576 1109.59 72.576 Q1101.25 72.576 1096.14 66.2161 Q1091.04 59.8562 1091.04 49.3643 Q1091.04 38.832 1096.14 32.472 Q1101.25 26.1121 1109.59 26.1121 Q1114.61 26.1121 1118.22 28.0971 Q1121.82 30.082 1124.13 34.0924 L1124.13 27.2059 L1131.59 27.2059 L1131.59 66.9452 Z" fill="#000000" fill-rule="nonzero" fill-opacity="1" /><path clip-path="url(#clip370)" d="M1146.94 27.2059 L1154.39 27.2059 L1154.39 72.576 L1146.94 72.576 L1146.94 27.2059 M1146.94 9.54393 L1154.39 9.54393 L1154.39 18.9825 L1146.94 18.9825 L1146.94 9.54393 Z" fill="#000000" fill-rule="nonzero" fill-opacity="1" /><path clip-path="url(#clip370)" d="M1198.91 28.5427 L1198.91 35.5912 Q1195.75 33.9709 1192.35 33.1607 Q1188.95 32.3505 1185.3 32.3505 Q1179.75 32.3505 1176.96 34.0519 Q1174.2 35.7533 1174.2 39.156 Q1174.2 41.7486 1176.19 43.2475 Q1178.17 44.7058 1184.17 46.0426 L1186.72 46.6097 Q1194.66 48.3111 1197.98 51.4303 Q1201.34 54.509 1201.34 60.0587 Q1201.34 66.3781 1196.32 70.0644 Q1191.34 73.7508 1182.59 73.7508 Q1178.94 73.7508 1174.97 73.0216 Q1171.04 72.3329 1166.67 70.9151 L1166.67 63.2184 Q1170.8 65.3654 1174.81 66.4591 Q1178.82 67.5124 1182.75 67.5124 Q1188.02 67.5124 1190.85 65.73 Q1193.69 63.9071 1193.69 60.6258 Q1193.69 57.5877 1191.62 55.9673 Q1189.6 54.3469 1182.67 52.8481 L1180.08 52.2405 Q1173.15 50.7821 1170.07 47.7845 Q1166.99 44.7463 1166.99 39.4801 Q1166.99 33.0797 1171.53 29.5959 Q1176.07 26.1121 1184.41 26.1121 Q1188.54 26.1121 1192.19 26.7198 Q1195.83 27.3274 1198.91 28.5427 Z" fill="#000000" fill-rule="nonzero" fill-opacity="1" /><path clip-path="url(#clip370)" d="M1220.58 14.324 L1220.58 27.2059 L1235.94 27.2059 L1235.94 32.9987 L1220.58 32.9987 L1220.58 57.6282 Q1220.58 63.1779 1222.08 64.7578 Q1223.62 66.3376 1228.28 66.3376 L1235.94 66.3376 L1235.94 72.576 L1228.28 72.576 Q1219.65 72.576 1216.37 69.3758 Q1213.09 66.1351 1213.09 57.6282 L1213.09 32.9987 L1207.62 32.9987 L1207.62 27.2059 L1213.09 27.2059 L1213.09 14.324 L1220.58 14.324 Z" fill="#000000" fill-rule="nonzero" fill-opacity="1" /><path clip-path="url(#clip370)" d="M1245.74 27.2059 L1253.19 27.2059 L1253.19 72.576 L1245.74 72.576 L1245.74 27.2059 M1245.74 9.54393 L1253.19 9.54393 L1253.19 18.9825 L1245.74 18.9825 L1245.74 9.54393 Z" fill="#000000" fill-rule="nonzero" fill-opacity="1" /><path clip-path="url(#clip370)" d="M1301.44 28.9478 L1301.44 35.9153 Q1298.28 34.1734 1295.08 33.3227 Q1291.92 32.4315 1288.68 32.4315 Q1281.43 32.4315 1277.42 37.0496 Q1273.41 41.6271 1273.41 49.9314 Q1273.41 58.2358 1277.42 62.8538 Q1281.43 67.4314 1288.68 67.4314 Q1291.92 67.4314 1295.08 66.5807 Q1298.28 65.6895 1301.44 63.9476 L1301.44 70.8341 Q1298.32 72.2924 1294.96 73.0216 Q1291.64 73.7508 1287.87 73.7508 Q1277.62 73.7508 1271.59 67.3098 Q1265.55 60.8689 1265.55 49.9314 Q1265.55 38.832 1271.63 32.472 Q1277.74 26.1121 1288.36 26.1121 Q1291.8 26.1121 1295.08 26.8413 Q1298.36 27.5299 1301.44 28.9478 Z" fill="#000000" fill-rule="nonzero" fill-opacity="1" /><path clip-path="url(#clip370)" d="M1382.34 63.9476 L1382.34 47.7034 L1368.97 47.7034 L1368.97 40.9789 L1390.44 40.9789 L1390.44 66.9452 Q1385.7 70.3075 1379.99 72.0494 Q1374.28 73.7508 1367.79 73.7508 Q1353.62 73.7508 1345.6 65.4869 Q1337.62 57.1826 1337.62 42.3968 Q1337.62 27.5705 1345.6 19.3066 Q1353.62 11.0023 1367.79 11.0023 Q1373.71 11.0023 1379.02 12.4606 Q1384.36 13.9189 1388.86 16.7545 L1388.86 25.464 Q1384.32 21.6156 1379.22 19.6712 Q1374.11 17.7268 1368.48 17.7268 Q1357.38 17.7268 1351.79 23.9246 Q1346.24 30.1225 1346.24 42.3968 Q1346.24 54.6305 1351.79 60.8284 Q1357.38 67.0263 1368.48 67.0263 Q1372.82 67.0263 1376.22 66.2971 Q1379.62 65.5274 1382.34 63.9476 Z" fill="#000000" fill-rule="nonzero" fill-opacity="1" /><path clip-path="url(#clip370)" d="M1431.35 34.1734 Q1430.1 33.4443 1428.6 33.1202 Q1427.14 32.7556 1425.36 32.7556 Q1419.04 32.7556 1415.64 36.8875 Q1412.27 40.9789 1412.27 48.6757 L1412.27 72.576 L1404.78 72.576 L1404.78 27.2059 L1412.27 27.2059 L1412.27 34.2544 Q1414.62 30.1225 1418.39 28.1376 Q1422.16 26.1121 1427.55 26.1121 Q1428.32 26.1121 1429.25 26.2337 Q1430.18 26.3147 1431.31 26.5172 L1431.35 34.1734 Z" fill="#000000" fill-rule="nonzero" fill-opacity="1" /><path clip-path="url(#clip370)" d="M1454.93 32.4315 Q1448.93 32.4315 1445.45 37.1306 Q1441.97 41.7891 1441.97 49.9314 Q1441.97 58.0738 1445.41 62.7728 Q1448.89 67.4314 1454.93 67.4314 Q1460.88 67.4314 1464.37 62.7323 Q1467.85 58.0333 1467.85 49.9314 Q1467.85 41.8701 1464.37 37.1711 Q1460.88 32.4315 1454.93 32.4315 M1454.93 26.1121 Q1464.65 26.1121 1470.2 32.4315 Q1475.75 38.7509 1475.75 49.9314 Q1475.75 61.0714 1470.2 67.4314 Q1464.65 73.7508 1454.93 73.7508 Q1445.17 73.7508 1439.62 67.4314 Q1434.11 61.0714 1434.11 49.9314 Q1434.11 38.7509 1439.62 32.4315 Q1445.17 26.1121 1454.93 26.1121 Z" fill="#000000" fill-rule="nonzero" fill-opacity="1" /><path clip-path="url(#clip370)" d="M1483.77 27.2059 L1491.23 27.2059 L1500.54 62.6108 L1509.82 27.2059 L1518.61 27.2059 L1527.93 62.6108 L1537.2 27.2059 L1544.66 27.2059 L1532.79 72.576 L1524 72.576 L1514.23 35.3887 L1504.43 72.576 L1495.64 72.576 L1483.77 27.2059 Z" fill="#000000" fill-rule="nonzero" fill-opacity="1" /><path clip-path="url(#clip370)" d="M1563.33 14.324 L1563.33 27.2059 L1578.68 27.2059 L1578.68 32.9987 L1563.33 32.9987 L1563.33 57.6282 Q1563.33 63.1779 1564.83 64.7578 Q1566.37 66.3376 1571.03 66.3376 L1578.68 66.3376 L1578.68 72.576 L1571.03 72.576 Q1562.4 72.576 1559.12 69.3758 Q1555.84 66.1351 1555.84 57.6282 L1555.84 32.9987 L1550.37 32.9987 L1550.37 27.2059 L1555.84 27.2059 L1555.84 14.324 L1563.33 14.324 Z" fill="#000000" fill-rule="nonzero" fill-opacity="1" /><path clip-path="url(#clip370)" d="M1626.2 45.1919 L1626.2 72.576 L1618.75 72.576 L1618.75 45.4349 Q1618.75 38.994 1616.24 35.7938 Q1613.73 32.5936 1608.7 32.5936 Q1602.67 32.5936 1599.18 36.4419 Q1595.7 40.2903 1595.7 46.9338 L1595.7 72.576 L1588.2 72.576 L1588.2 9.54393 L1595.7 9.54393 L1595.7 34.2544 Q1598.37 30.163 1601.98 28.1376 Q1605.62 26.1121 1610.36 26.1121 Q1618.18 26.1121 1622.19 30.9732 Q1626.2 35.7938 1626.2 45.1919 Z" fill="#000000" fill-rule="nonzero" fill-opacity="1" /><path clip-path="url(#clip370)" d="M1675.95 18.8205 L1675.95 65.8515 L1685.83 65.8515 Q1698.35 65.8515 1704.14 60.1802 Q1709.97 54.509 1709.97 42.2752 Q1709.97 30.1225 1704.14 24.4918 Q1698.35 18.8205 1685.83 18.8205 L1675.95 18.8205 M1667.76 12.096 L1684.58 12.096 Q1702.16 12.096 1710.38 19.4281 Q1718.6 26.7198 1718.6 42.2752 Q1718.6 57.9117 1710.34 65.2439 Q1702.08 72.576 1684.58 72.576 L1667.76 72.576 L1667.76 12.096 Z" fill="#000000" fill-rule="nonzero" fill-opacity="1" /><path clip-path="url(#clip370)" d="M1751.94 49.7694 Q1742.91 49.7694 1739.42 51.8354 Q1735.94 53.9013 1735.94 58.8839 Q1735.94 62.8538 1738.53 65.2034 Q1741.17 67.5124 1745.66 67.5124 Q1751.86 67.5124 1755.59 63.1374 Q1759.36 58.7219 1759.36 51.4303 L1759.36 49.7694 L1751.94 49.7694 M1766.81 46.6907 L1766.81 72.576 L1759.36 72.576 L1759.36 65.6895 Q1756.8 69.8214 1753 71.8063 Q1749.19 73.7508 1743.68 73.7508 Q1736.71 73.7508 1732.58 69.8619 Q1728.49 65.9325 1728.49 59.3701 Q1728.49 51.7138 1733.59 47.825 Q1738.74 43.9361 1748.9 43.9361 L1759.36 43.9361 L1759.36 43.2069 Q1759.36 38.0623 1755.95 35.2672 Q1752.59 32.4315 1746.47 32.4315 Q1742.58 32.4315 1738.9 33.3632 Q1735.21 34.295 1731.81 36.1584 L1731.81 29.2718 Q1735.9 27.692 1739.75 26.9223 Q1743.6 26.1121 1747.24 26.1121 Q1757.09 26.1121 1761.95 31.2163 Q1766.81 36.3204 1766.81 46.6907 Z" fill="#000000" fill-rule="nonzero" fill-opacity="1" /><path clip-path="url(#clip370)" d="M1789.53 14.324 L1789.53 27.2059 L1804.89 27.2059 L1804.89 32.9987 L1789.53 32.9987 L1789.53 57.6282 Q1789.53 63.1779 1791.03 64.7578 Q1792.57 66.3376 1797.23 66.3376 L1804.89 66.3376 L1804.89 72.576 L1797.23 72.576 Q1788.6 72.576 1785.32 69.3758 Q1782.04 66.1351 1782.04 57.6282 L1782.04 32.9987 L1776.57 32.9987 L1776.57 27.2059 L1782.04 27.2059 L1782.04 14.324 L1789.53 14.324 Z" fill="#000000" fill-rule="nonzero" fill-opacity="1" /><path clip-path="url(#clip370)" d="M1835.31 49.7694 Q1826.28 49.7694 1822.79 51.8354 Q1819.31 53.9013 1819.31 58.8839 Q1819.31 62.8538 1821.9 65.2034 Q1824.53 67.5124 1829.03 67.5124 Q1835.23 67.5124 1838.96 63.1374 Q1842.72 58.7219 1842.72 51.4303 L1842.72 49.7694 L1835.31 49.7694 M1850.18 46.6907 L1850.18 72.576 L1842.72 72.576 L1842.72 65.6895 Q1840.17 69.8214 1836.36 71.8063 Q1832.55 73.7508 1827.05 73.7508 Q1820.08 73.7508 1815.95 69.8619 Q1811.85 65.9325 1811.85 59.3701 Q1811.85 51.7138 1816.96 47.825 Q1822.1 43.9361 1832.27 43.9361 L1842.72 43.9361 L1842.72 43.2069 Q1842.72 38.0623 1839.32 35.2672 Q1835.96 32.4315 1829.84 32.4315 Q1825.95 32.4315 1822.27 33.3632 Q1818.58 34.295 1815.18 36.1584 L1815.18 29.2718 Q1819.27 27.692 1823.12 26.9223 Q1826.96 26.1121 1830.61 26.1121 Q1840.45 26.1121 1845.32 31.2163 Q1850.18 36.3204 1850.18 46.6907 Z" fill="#000000" fill-rule="nonzero" fill-opacity="1" /><circle clip-path="url(#clip371)" cx="277.339" cy="1675.4" r="18" fill="#4682b4" fill-rule="evenodd" fill-opacity="0.7" stroke="#000000" stroke-opacity="0.7" stroke-width="3.84"/>
<circle clip-path="url(#clip371)" cx="430.311" cy="1611.27" r="18" fill="#4682b4" fill-rule="evenodd" fill-opacity="0.7" stroke="#000000" stroke-opacity="0.7" stroke-width="3.84"/>
<circle clip-path="url(#clip371)" cx="583.283" cy="1481.48" r="18" fill="#4682b4" fill-rule="evenodd" fill-opacity="0.7" stroke="#000000" stroke-opacity="0.7" stroke-width="3.84"/>
<circle clip-path="url(#clip371)" cx="736.255" cy="1310.23" r="18" fill="#4682b4" fill-rule="evenodd" fill-opacity="0.7" stroke="#000000" stroke-opacity="0.7" stroke-width="3.84"/>
<circle clip-path="url(#clip371)" cx="889.227" cy="1110.61" r="18" fill="#4682b4" fill-rule="evenodd" fill-opacity="0.7" stroke="#000000" stroke-opacity="0.7" stroke-width="3.84"/>
<circle clip-path="url(#clip371)" cx="1042.2" cy="891.115" r="18" fill="#4682b4" fill-rule="evenodd" fill-opacity="0.7" stroke="#000000" stroke-opacity="0.7" stroke-width="3.84"/>
<circle clip-path="url(#clip371)" cx="1195.17" cy="711.164" r="18" fill="#4682b4" fill-rule="evenodd" fill-opacity="0.7" stroke="#000000" stroke-opacity="0.7" stroke-width="3.84"/>
<circle clip-path="url(#clip371)" cx="1348.14" cy="524.249" r="18" fill="#4682b4" fill-rule="evenodd" fill-opacity="0.7" stroke="#000000" stroke-opacity="0.7" stroke-width="3.84"/>
<circle clip-path="url(#clip371)" cx="1501.11" cy="389.311" r="18" fill="#4682b4" fill-rule="evenodd" fill-opacity="0.7" stroke="#000000" stroke-opacity="0.7" stroke-width="3.84"/>
<circle clip-path="url(#clip371)" cx="1654.09" cy="334.276" r="18" fill="#4682b4" fill-rule="evenodd" fill-opacity="0.7" stroke="#000000" stroke-opacity="0.7" stroke-width="3.84"/>
<circle clip-path="url(#clip371)" cx="1807.06" cy="258.251" r="18" fill="#4682b4" fill-rule="evenodd" fill-opacity="0.7" stroke="#000000" stroke-opacity="0.7" stroke-width="3.84"/>
<circle clip-path="url(#clip371)" cx="1960.03" cy="255.021" r="18" fill="#4682b4" fill-rule="evenodd" fill-opacity="0.7" stroke="#000000" stroke-opacity="0.7" stroke-width="3.84"/>
<circle clip-path="url(#clip371)" cx="2113" cy="222.265" r="18" fill="#4682b4" fill-rule="evenodd" fill-opacity="0.7" stroke="#000000" stroke-opacity="0.7" stroke-width="3.84"/>
<circle clip-path="url(#clip371)" cx="2265.97" cy="190.828" r="18" fill="#4682b4" fill-rule="evenodd" fill-opacity="0.7" stroke="#000000" stroke-opacity="0.7" stroke-width="3.84"/>
<circle clip-path="url(#clip371)" cx="2418.95" cy="173.254" r="18" fill="#4682b4" fill-rule="evenodd" fill-opacity="0.7" stroke="#000000" stroke-opacity="0.7" stroke-width="3.84"/>
<circle clip-path="url(#clip371)" cx="2571.92" cy="181.783" r="18" fill="#4682b4" fill-rule="evenodd" fill-opacity="0.7" stroke="#000000" stroke-opacity="0.7" stroke-width="3.84"/>
<polyline clip-path="url(#clip371)" style="stroke:#000000; stroke-linecap:round; stroke-linejoin:round; stroke-width:8; stroke-opacity:1; fill:none" stroke-dasharray="32, 20" points="277.339,1688.65 430.311,1596.48 583.283,1466.79 736.255,1297.9 889.227,1098.81 1042.2,889.895 1195.17,695.816 1348.14,534.867 1501.11,413.498 1654.09,328.321 1807.06,271.635 1960.03,235.261 2113,212.289 2265.97,198.05 2418.95,189.264 2571.92,183.954 "/>
<path clip-path="url(#clip370)" d="M289.577 336.856 L753.912 336.856 L753.912 181.336 L289.577 181.336  Z" fill="#ffffff" fill-rule="evenodd" fill-opacity="1"/>
<polyline clip-path="url(#clip370)" style="stroke:#000000; stroke-linecap:round; stroke-linejoin:round; stroke-width:4; stroke-opacity:1; fill:none" points="289.577,336.856 753.912,336.856 753.912,181.336 289.577,181.336 289.577,336.856 "/>
<circle clip-path="url(#clip370)" cx="397.677" cy="233.176" r="20.9455" fill="#4682b4" fill-rule="evenodd" fill-opacity="0.7" stroke="#000000" stroke-opacity="0.7" stroke-width="4.46836"/>
<path clip-path="url(#clip370)" d="M521.796 219.068 Q516.703 219.068 513.694 222.864 Q510.708 226.66 510.708 233.211 Q510.708 239.739 513.694 243.535 Q516.703 247.331 521.796 247.331 Q526.888 247.331 529.851 243.535 Q532.837 239.739 532.837 233.211 Q532.837 226.66 529.851 222.864 Q526.888 219.068 521.796 219.068 M521.796 215.271 Q529.064 215.271 533.416 220.156 Q537.768 225.017 537.768 233.211 Q537.768 241.382 533.416 246.266 Q529.064 251.128 521.796 251.128 Q514.504 251.128 510.129 246.266 Q505.777 241.405 505.777 233.211 Q505.777 225.017 510.129 220.156 Q514.504 215.271 521.796 215.271 Z" fill="#000000" fill-rule="nonzero" fill-opacity="1" /><path clip-path="url(#clip370)" d="M563.508 237.517 Q563.508 232.817 561.564 230.155 Q559.643 227.47 556.263 227.47 Q552.883 227.47 550.939 230.155 Q549.018 232.817 549.018 237.517 Q549.018 242.216 550.939 244.901 Q552.883 247.563 556.263 247.563 Q559.643 247.563 561.564 244.901 Q563.508 242.216 563.508 237.517 M549.018 228.466 Q550.36 226.151 552.397 225.04 Q554.458 223.906 557.305 223.906 Q562.027 223.906 564.967 227.655 Q567.93 231.405 567.93 237.517 Q567.93 243.628 564.967 247.378 Q562.027 251.128 557.305 251.128 Q554.458 251.128 552.397 250.016 Q550.36 248.882 549.018 246.567 L549.018 250.456 L544.735 250.456 L544.735 214.438 L549.018 214.438 L549.018 228.466 Z" fill="#000000" fill-rule="nonzero" fill-opacity="1" /><path clip-path="url(#clip370)" d="M591.518 225.294 L591.518 229.322 Q589.712 228.396 587.768 227.933 Q585.823 227.47 583.74 227.47 Q580.569 227.47 578.971 228.443 Q577.397 229.415 577.397 231.359 Q577.397 232.841 578.532 233.697 Q579.666 234.53 583.092 235.294 L584.55 235.618 Q589.087 236.591 590.985 238.373 Q592.906 240.132 592.906 243.304 Q592.906 246.915 590.036 249.021 Q587.189 251.128 582.189 251.128 Q580.106 251.128 577.837 250.711 Q575.592 250.317 573.092 249.507 L573.092 245.109 Q575.453 246.336 577.744 246.961 Q580.036 247.563 582.281 247.563 Q585.291 247.563 586.911 246.544 Q588.531 245.503 588.531 243.628 Q588.531 241.892 587.351 240.966 Q586.194 240.04 582.235 239.183 L580.754 238.836 Q576.795 238.003 575.036 236.29 Q573.277 234.554 573.277 231.544 Q573.277 227.887 575.869 225.896 Q578.462 223.906 583.231 223.906 Q585.592 223.906 587.675 224.253 Q589.758 224.6 591.518 225.294 Z" fill="#000000" fill-rule="nonzero" fill-opacity="1" /><path clip-path="url(#clip370)" d="M621.865 236.429 L621.865 238.512 L602.281 238.512 Q602.559 242.91 604.92 245.225 Q607.304 247.516 611.541 247.516 Q613.994 247.516 616.286 246.915 Q618.601 246.313 620.869 245.109 L620.869 249.137 Q618.578 250.109 616.17 250.618 Q613.763 251.128 611.286 251.128 Q605.082 251.128 601.448 247.516 Q597.837 243.905 597.837 237.748 Q597.837 231.382 601.263 227.655 Q604.712 223.906 610.545 223.906 Q615.777 223.906 618.809 227.285 Q621.865 230.642 621.865 236.429 M617.605 235.179 Q617.559 231.683 615.638 229.6 Q613.74 227.517 610.592 227.517 Q607.027 227.517 604.874 229.53 Q602.744 231.544 602.42 235.202 L617.605 235.179 Z" fill="#000000" fill-rule="nonzero" fill-opacity="1" /><path clip-path="url(#clip370)" d="M643.878 228.512 Q643.161 228.095 642.304 227.91 Q641.471 227.702 640.452 227.702 Q636.841 227.702 634.897 230.063 Q632.976 232.401 632.976 236.799 L632.976 250.456 L628.693 250.456 L628.693 224.531 L632.976 224.531 L632.976 228.558 Q634.318 226.197 636.471 225.063 Q638.624 223.906 641.702 223.906 Q642.142 223.906 642.675 223.975 Q643.207 224.021 643.855 224.137 L643.878 228.512 Z" fill="#000000" fill-rule="nonzero" fill-opacity="1" /><path clip-path="url(#clip370)" d="M645.29 224.531 L649.804 224.531 L657.906 246.29 L666.008 224.531 L670.522 224.531 L660.8 250.456 L655.013 250.456 L645.29 224.531 Z" fill="#000000" fill-rule="nonzero" fill-opacity="1" /><path clip-path="url(#clip370)" d="M698.577 236.429 L698.577 238.512 L678.994 238.512 Q679.272 242.91 681.633 245.225 Q684.017 247.516 688.253 247.516 Q690.707 247.516 692.998 246.915 Q695.313 246.313 697.582 245.109 L697.582 249.137 Q695.29 250.109 692.883 250.618 Q690.475 251.128 687.999 251.128 Q681.795 251.128 678.161 247.516 Q674.55 243.905 674.55 237.748 Q674.55 231.382 677.975 227.655 Q681.424 223.906 687.258 223.906 Q692.489 223.906 695.522 227.285 Q698.577 230.642 698.577 236.429 M694.318 235.179 Q694.272 231.683 692.35 229.6 Q690.452 227.517 687.304 227.517 Q683.739 227.517 681.587 229.53 Q679.457 231.544 679.133 235.202 L694.318 235.179 Z" fill="#000000" fill-rule="nonzero" fill-opacity="1" /><path clip-path="url(#clip370)" d="M722.628 228.466 L722.628 214.438 L726.887 214.438 L726.887 250.456 L722.628 250.456 L722.628 246.567 Q721.285 248.882 719.225 250.016 Q717.188 251.128 714.318 251.128 Q709.619 251.128 706.656 247.378 Q703.716 243.628 703.716 237.517 Q703.716 231.405 706.656 227.655 Q709.619 223.906 714.318 223.906 Q717.188 223.906 719.225 225.04 Q721.285 226.151 722.628 228.466 M708.114 237.517 Q708.114 242.216 710.035 244.901 Q711.98 247.563 715.359 247.563 Q718.739 247.563 720.684 244.901 Q722.628 242.216 722.628 237.517 Q722.628 232.817 720.684 230.155 Q718.739 227.47 715.359 227.47 Q711.98 227.47 710.035 230.155 Q708.114 232.817 708.114 237.517 Z" fill="#000000" fill-rule="nonzero" fill-opacity="1" /><polyline clip-path="url(#clip370)" style="stroke:#000000; stroke-linecap:round; stroke-linejoin:round; stroke-width:8; stroke-opacity:1; fill:none" stroke-dasharray="32, 20" points="316.602,285.016 478.752,285.016 "/>
<path clip-path="url(#clip370)" d="M505.777 267.736 L535.013 267.736 L535.013 271.671 L522.745 271.671 L522.745 302.296 L518.046 302.296 L518.046 271.671 L505.777 271.671 L505.777 267.736 Z" fill="#000000" fill-rule="nonzero" fill-opacity="1" /><path clip-path="url(#clip370)" d="M547.397 280.352 Q546.68 279.935 545.823 279.75 Q544.99 279.542 543.972 279.542 Q540.36 279.542 538.416 281.903 Q536.495 284.241 536.495 288.639 L536.495 302.296 L532.212 302.296 L532.212 276.371 L536.495 276.371 L536.495 280.398 Q537.837 278.037 539.99 276.903 Q542.143 275.746 545.221 275.746 Q545.661 275.746 546.194 275.815 Q546.726 275.861 547.374 275.977 L547.397 280.352 Z" fill="#000000" fill-rule="nonzero" fill-opacity="1" /><path clip-path="url(#clip370)" d="M551.425 292.065 L551.425 276.371 L555.684 276.371 L555.684 291.903 Q555.684 295.583 557.12 297.435 Q558.555 299.264 561.425 299.264 Q564.874 299.264 566.865 297.065 Q568.879 294.866 568.879 291.069 L568.879 276.371 L573.138 276.371 L573.138 302.296 L568.879 302.296 L568.879 298.315 Q567.328 300.676 565.268 301.833 Q563.231 302.968 560.522 302.968 Q556.055 302.968 553.74 300.19 Q551.425 297.412 551.425 292.065 M562.143 275.746 L562.143 275.746 Z" fill="#000000" fill-rule="nonzero" fill-opacity="1" /><path clip-path="url(#clip370)" d="M604.087 288.269 L604.087 290.352 L584.504 290.352 Q584.781 294.75 587.143 297.065 Q589.527 299.356 593.763 299.356 Q596.217 299.356 598.508 298.755 Q600.823 298.153 603.092 296.949 L603.092 300.977 Q600.8 301.949 598.393 302.458 Q595.985 302.968 593.508 302.968 Q587.305 302.968 583.67 299.356 Q580.059 295.745 580.059 289.588 Q580.059 283.222 583.485 279.495 Q586.934 275.746 592.768 275.746 Q597.999 275.746 601.031 279.125 Q604.087 282.482 604.087 288.269 M599.828 287.019 Q599.781 283.523 597.86 281.44 Q595.962 279.357 592.814 279.357 Q589.249 279.357 587.096 281.37 Q584.967 283.384 584.643 287.042 L599.828 287.019 Z" fill="#000000" fill-rule="nonzero" fill-opacity="1" /></svg>
