<?xml version="1.0" encoding="utf-8"?>
<svg xmlns="http://www.w3.org/2000/svg" xmlns:xlink="http://www.w3.org/1999/xlink" width="672" height="480" viewBox="0 0 2688 1920">
<defs>
  <clipPath id="clip460">
    <rect x="0" y="0" width="2688" height="1920"/>
  </clipPath>
</defs>
<path clip-path="url(#clip460)" d="M0 1920 L2688 1920 L2688 -4.26326e-14 L0 -4.26326e-14  Z" fill="#ffffff" fill-rule="evenodd" fill-opacity="1"/>
<defs>
  <clipPath id="clip461">
    <rect x="181" y="127" width="2460" height="1607"/>
  </clipPath>
</defs>
<path clip-path="url(#clip460)" d="M181.719 1734.12 L2640.76 1734.12 L2640.76 127.792 L181.719 127.792  Z" fill="#ffffff" fill-rule="evenodd" fill-opacity="1"/>
<polyline clip-path="url(#clip461)" style="stroke:#000000; stroke-linecap:round; stroke-linejoin:round; stroke-width:2; stroke-opacity:0.1; fill:none" points="251.315,1734.12 251.315,127.792 "/>
<polyline clip-path="url(#clip461)" style="stroke:#000000; stroke-linecap:round; stroke-linejoin:round; stroke-width:2; stroke-opacity:0.1; fill:none" points="1024.6,1734.12 1024.6,127.792 "/>
<polyline clip-path="url(#clip461)" style="stroke:#000000; stroke-linecap:round; stroke-linejoin:round; stroke-width:2; stroke-opacity:0.1; fill:none" points="1797.88,1734.12 1797.88,127.792 "/>
<polyline clip-path="url(#clip461)" style="stroke:#000000; stroke-linecap:round; stroke-linejoin:round; stroke-width:2; stroke-opacity:0.1; fill:none" points="2571.16,1734.12 2571.16,127.792 "/>
<polyline clip-path="url(#clip461)" style="stroke:#000000; stroke-linecap:round; stroke-linejoin:round; stroke-width:2; stroke-opacity:0.1; fill:none" points="181.719,1691.65 2640.76,1691.65 "/>
<polyline clip-path="url(#clip461)" style="stroke:#000000; stroke-linecap:round; stroke-linejoin:round; stroke-width:2; stroke-opacity:0.1; fill:none" points="181.719,1392.46 2640.76,1392.46 "/>
<polyline clip-path="url(#clip461)" style="stroke:#000000; stroke-linecap:round; stroke-linejoin:round; stroke-width:2; stroke-opacity:0.1; fill:none" points="181.719,1093.28 2640.76,1093.28 "/>
<polyline clip-path="url(#clip461)" style="stroke:#000000; stroke-linecap:round; stroke-linejoin:round; stroke-width:2; stroke-opacity:0.1; fill:none" points="181.719,794.095 2640.76,794.095 "/>
<polyline clip-path="url(#clip461)" style="stroke:#000000; stroke-linecap:round; stroke-linejoin:round; stroke-width:2; stroke-opacity:0.1; fill:none" points="181.719,494.911 2640.76,494.911 "/>
<polyline clip-path="url(#clip461)" style="stroke:#000000; stroke-linecap:round; stroke-linejoin:round; stroke-width:2; stroke-opacity:0.1; fill:none" points="181.719,195.728 2640.76,195.728 "/>
<polyline clip-path="url(#clip460)" style="stroke:#000000; stroke-linecap:round; stroke-linejoin:round; stroke-width:4; stroke-opacity:1; fill:none" points="181.719,1734.12 2640.76,1734.12 "/>
<polyline clip-path="url(#clip460)" style="stroke:#000000; stroke-linecap:round; stroke-linejoin:round; stroke-width:4; stroke-opacity:1; fill:none" points="251.315,1734.12 251.315,1715.22 "/>
<polyline clip-path="url(#clip460)" style="stroke:#000000; stroke-linecap:round; stroke-linejoin:round; stroke-width:4; stroke-opacity:1; fill:none" points="1024.6,1734.12 1024.6,1715.22 "/>
<polyline clip-path="url(#clip460)" style="stroke:#000000; stroke-linecap:round; stroke-linejoin:round; stroke-width:4; stroke-opacity:1; fill:none" points="1797.88,1734.12 1797.88,1715.22 "/>
<polyline clip-path="url(#clip460)" style="stroke:#000000; stroke-linecap:round; stroke-linejoin:round; stroke-width:4; stroke-opacity:1; fill:none" points="2571.16,1734.12 2571.16,1715.22 "/>
<path clip-path="url(#clip460)" d="M251.315 1767.34 Q247.704 1767.34 245.875 1770.9 Q244.07 1774.45 244.07 1781.58 Q244.07 1788.68 245.875 1792.25 Q247.704 1795.79 251.315 1795.79 Q254.949 1795.79 256.755 1792.25 Q258.583 1788.68 258.583 1781.58 Q258.583 1774.45 256.755 1770.9 Q254.949 1767.34 251.315 1767.34 M251.315 1763.64 Q257.125 1763.64 260.181 1768.24 Q263.259 1772.83 263.259 1781.58 Q263.259 1790.3 260.181 1794.91 Q257.125 1799.49 251.315 1799.49 Q245.505 1799.49 242.426 1794.91 Q239.37 1790.3 239.37 1781.58 Q239.37 1772.83 242.426 1768.24 Q245.505 1763.64 251.315 1763.64 Z" fill="#000000" fill-rule="nonzero" fill-opacity="1" /><path clip-path="url(#clip460)" d="M999.284 1794.89 L1006.92 1794.89 L1006.92 1768.52 L998.613 1770.19 L998.613 1765.93 L1006.88 1764.26 L1011.55 1764.26 L1011.55 1794.89 L1019.19 1794.89 L1019.19 1798.82 L999.284 1798.82 L999.284 1794.89 Z" fill="#000000" fill-rule="nonzero" fill-opacity="1" /><path clip-path="url(#clip460)" d="M1038.64 1767.34 Q1035.02 1767.34 1033.2 1770.9 Q1031.39 1774.45 1031.39 1781.58 Q1031.39 1788.68 1033.2 1792.25 Q1035.02 1795.79 1038.64 1795.79 Q1042.27 1795.79 1044.08 1792.25 Q1045.9 1788.68 1045.9 1781.58 Q1045.9 1774.45 1044.08 1770.9 Q1042.27 1767.34 1038.64 1767.34 M1038.64 1763.64 Q1044.45 1763.64 1047.5 1768.24 Q1050.58 1772.83 1050.58 1781.58 Q1050.58 1790.3 1047.5 1794.91 Q1044.45 1799.49 1038.64 1799.49 Q1032.83 1799.49 1029.75 1794.91 Q1026.69 1790.3 1026.69 1781.58 Q1026.69 1772.83 1029.75 1768.24 Q1032.83 1763.64 1038.64 1763.64 Z" fill="#000000" fill-rule="nonzero" fill-opacity="1" /><path clip-path="url(#clip460)" d="M1776.65 1794.89 L1792.97 1794.89 L1792.97 1798.82 L1771.03 1798.82 L1771.03 1794.89 Q1773.69 1792.13 1778.27 1787.5 Q1782.88 1782.85 1784.06 1781.51 Q1786.3 1778.98 1787.18 1777.25 Q1788.09 1775.49 1788.09 1773.8 Q1788.09 1771.04 1786.14 1769.31 Q1784.22 1767.57 1781.12 1767.57 Q1778.92 1767.57 1776.47 1768.34 Q1774.04 1769.1 1771.26 1770.65 L1771.26 1765.93 Q1774.08 1764.79 1776.54 1764.21 Q1778.99 1763.64 1781.03 1763.64 Q1786.4 1763.64 1789.59 1766.32 Q1792.79 1769.01 1792.79 1773.5 Q1792.79 1775.63 1791.98 1777.55 Q1791.19 1779.45 1789.08 1782.04 Q1788.5 1782.71 1785.4 1785.93 Q1782.3 1789.12 1776.65 1794.89 Z" fill="#000000" fill-rule="nonzero" fill-opacity="1" /><path clip-path="url(#clip460)" d="M1812.79 1767.34 Q1809.17 1767.34 1807.35 1770.9 Q1805.54 1774.45 1805.54 1781.58 Q1805.54 1788.68 1807.35 1792.25 Q1809.17 1795.79 1812.79 1795.79 Q1816.42 1795.79 1818.23 1792.25 Q1820.05 1788.68 1820.05 1781.58 Q1820.05 1774.45 1818.23 1770.9 Q1816.42 1767.34 1812.79 1767.34 M1812.79 1763.64 Q1818.6 1763.64 1821.65 1768.24 Q1824.73 1772.83 1824.73 1781.58 Q1824.73 1790.3 1821.65 1794.91 Q1818.6 1799.49 1812.79 1799.49 Q1806.98 1799.49 1803.9 1794.91 Q1800.84 1790.3 1800.84 1781.58 Q1800.84 1772.83 1803.9 1768.24 Q1806.98 1763.64 1812.79 1763.64 Z" fill="#000000" fill-rule="nonzero" fill-opacity="1" /><path clip-path="url(#clip460)" d="M2560 1780.19 Q2563.36 1780.9 2565.23 1783.17 Q2567.13 1785.44 2567.13 1788.77 Q2567.13 1793.89 2563.61 1796.69 Q2560.1 1799.49 2553.61 1799.49 Q2551.44 1799.49 2549.12 1799.05 Q2546.83 1798.64 2544.38 1797.78 L2544.38 1793.27 Q2546.32 1794.4 2548.64 1794.98 Q2550.95 1795.56 2553.48 1795.56 Q2557.87 1795.56 2560.17 1793.82 Q2562.48 1792.08 2562.48 1788.77 Q2562.48 1785.72 2560.33 1784.01 Q2558.2 1782.27 2554.38 1782.27 L2550.35 1782.27 L2550.35 1778.43 L2554.56 1778.43 Q2558.01 1778.43 2559.84 1777.06 Q2561.67 1775.67 2561.67 1773.08 Q2561.67 1770.42 2559.77 1769.01 Q2557.9 1767.57 2554.38 1767.57 Q2552.46 1767.57 2550.26 1767.99 Q2548.06 1768.4 2545.42 1769.28 L2545.42 1765.12 Q2548.08 1764.38 2550.4 1764.01 Q2552.73 1763.64 2554.79 1763.64 Q2560.12 1763.64 2563.22 1766.07 Q2566.32 1768.47 2566.32 1772.59 Q2566.32 1775.46 2564.68 1777.46 Q2563.04 1779.42 2560 1780.19 Z" fill="#000000" fill-rule="nonzero" fill-opacity="1" /><path clip-path="url(#clip460)" d="M2586 1767.34 Q2582.39 1767.34 2580.56 1770.9 Q2578.75 1774.45 2578.75 1781.58 Q2578.75 1788.68 2580.56 1792.25 Q2582.39 1795.79 2586 1795.79 Q2589.63 1795.79 2591.44 1792.25 Q2593.27 1788.68 2593.27 1781.58 Q2593.27 1774.45 2591.44 1770.9 Q2589.63 1767.34 2586 1767.34 M2586 1763.64 Q2591.81 1763.64 2594.86 1768.24 Q2597.94 1772.83 2597.94 1781.58 Q2597.94 1790.3 2594.86 1794.91 Q2591.81 1799.49 2586 1799.49 Q2580.19 1799.49 2577.11 1794.91 Q2574.05 1790.3 2574.05 1781.58 Q2574.05 1772.83 2577.11 1768.24 Q2580.19 1763.64 2586 1763.64 Z" fill="#000000" fill-rule="nonzero" fill-opacity="1" /><path clip-path="url(#clip460)" d="M1333.11 1835.78 L1373.31 1835.78 L1373.31 1841.19 L1356.44 1841.19 L1356.44 1883.3 L1349.98 1883.3 L1349.98 1841.19 L1333.11 1841.19 L1333.11 1835.78 Z" fill="#000000" fill-rule="nonzero" fill-opacity="1" /><path clip-path="url(#clip460)" d="M1377.26 1847.65 L1383.12 1847.65 L1383.12 1883.3 L1377.26 1883.3 L1377.26 1847.65 M1377.26 1833.78 L1383.12 1833.78 L1383.12 1841.19 L1377.26 1841.19 L1377.26 1833.78 Z" fill="#000000" fill-rule="nonzero" fill-opacity="1" /><path clip-path="url(#clip460)" d="M1423.13 1854.5 Q1425.32 1850.55 1428.38 1848.67 Q1431.43 1846.79 1435.57 1846.79 Q1441.14 1846.79 1444.16 1850.71 Q1447.19 1854.59 1447.19 1861.78 L1447.19 1883.3 L1441.3 1883.3 L1441.3 1861.98 Q1441.3 1856.85 1439.49 1854.37 Q1437.67 1851.89 1433.95 1851.89 Q1429.4 1851.89 1426.75 1854.91 Q1424.11 1857.93 1424.11 1863.15 L1424.11 1883.3 L1418.22 1883.3 L1418.22 1861.98 Q1418.22 1856.82 1416.41 1854.37 Q1414.6 1851.89 1410.81 1851.89 Q1406.32 1851.89 1403.68 1854.94 Q1401.04 1857.97 1401.04 1863.15 L1401.04 1883.3 L1395.15 1883.3 L1395.15 1847.65 L1401.04 1847.65 L1401.04 1853.19 Q1403.04 1849.91 1405.84 1848.35 Q1408.64 1846.79 1412.49 1846.79 Q1416.38 1846.79 1419.08 1848.77 Q1421.82 1850.74 1423.13 1854.5 Z" fill="#000000" fill-rule="nonzero" fill-opacity="1" /><path clip-path="url(#clip460)" d="M1489.36 1864.01 L1489.36 1866.88 L1462.43 1866.88 Q1462.82 1872.92 1466.06 1876.11 Q1469.34 1879.26 1475.17 1879.26 Q1478.54 1879.26 1481.69 1878.43 Q1484.87 1877.6 1487.99 1875.95 L1487.99 1881.49 Q1484.84 1882.82 1481.53 1883.52 Q1478.22 1884.22 1474.82 1884.22 Q1466.29 1884.22 1461.29 1879.26 Q1456.32 1874.29 1456.32 1865.83 Q1456.32 1857.07 1461.03 1851.95 Q1465.78 1846.79 1473.8 1846.79 Q1480.99 1846.79 1485.16 1851.44 Q1489.36 1856.06 1489.36 1864.01 M1483.5 1862.29 Q1483.44 1857.49 1480.8 1854.62 Q1478.19 1851.76 1473.86 1851.76 Q1468.96 1851.76 1466 1854.53 Q1463.07 1857.3 1462.62 1862.33 L1483.5 1862.29 Z" fill="#000000" fill-rule="nonzero" fill-opacity="1" /><polyline clip-path="url(#clip460)" style="stroke:#000000; stroke-linecap:round; stroke-linejoin:round; stroke-width:4; stroke-opacity:1; fill:none" points="181.719,1734.12 181.719,127.792 "/>
<polyline clip-path="url(#clip460)" style="stroke:#000000; stroke-linecap:round; stroke-linejoin:round; stroke-width:4; stroke-opacity:1; fill:none" points="181.719,1691.65 200.617,1691.65 "/>
<polyline clip-path="url(#clip460)" style="stroke:#000000; stroke-linecap:round; stroke-linejoin:round; stroke-width:4; stroke-opacity:1; fill:none" points="181.719,1392.46 200.617,1392.46 "/>
<polyline clip-path="url(#clip460)" style="stroke:#000000; stroke-linecap:round; stroke-linejoin:round; stroke-width:4; stroke-opacity:1; fill:none" points="181.719,1093.28 200.617,1093.28 "/>
<polyline clip-path="url(#clip460)" style="stroke:#000000; stroke-linecap:round; stroke-linejoin:round; stroke-width:4; stroke-opacity:1; fill:none" points="181.719,794.095 200.617,794.095 "/>
<polyline clip-path="url(#clip460)" style="stroke:#000000; stroke-linecap:round; stroke-linejoin:round; stroke-width:4; stroke-opacity:1; fill:none" points="181.719,494.911 200.617,494.911 "/>
<polyline clip-path="url(#clip460)" style="stroke:#000000; stroke-linecap:round; stroke-linejoin:round; stroke-width:4; stroke-opacity:1; fill:none" points="181.719,195.728 200.617,195.728 "/>
<path clip-path="url(#clip460)" d="M129.455 1677.45 Q125.844 1677.45 124.015 1681.01 Q122.21 1684.55 122.21 1691.68 Q122.21 1698.79 124.015 1702.35 Q125.844 1705.89 129.455 1705.89 Q133.089 1705.89 134.895 1702.35 Q136.724 1698.79 136.724 1691.68 Q136.724 1684.55 134.895 1681.01 Q133.089 1677.45 129.455 1677.45 M129.455 1673.74 Q135.265 1673.74 138.321 1678.35 Q141.399 1682.93 141.399 1691.68 Q141.399 1700.41 138.321 1705.01 Q135.265 1709.6 129.455 1709.6 Q123.645 1709.6 120.566 1705.01 Q117.511 1700.41 117.511 1691.68 Q117.511 1682.93 120.566 1678.35 Q123.645 1673.74 129.455 1673.74 Z" fill="#000000" fill-rule="nonzero" fill-opacity="1" /><path clip-path="url(#clip460)" d="M121.492 1405.81 L129.131 1405.81 L129.131 1379.44 L120.821 1381.11 L120.821 1376.85 L129.085 1375.18 L133.761 1375.18 L133.761 1405.81 L141.399 1405.81 L141.399 1409.74 L121.492 1409.74 L121.492 1405.81 Z" fill="#000000" fill-rule="nonzero" fill-opacity="1" /><path clip-path="url(#clip460)" d="M125.08 1106.62 L141.399 1106.62 L141.399 1110.56 L119.455 1110.56 L119.455 1106.62 Q122.117 1103.87 126.7 1099.24 Q131.307 1094.59 132.488 1093.24 Q134.733 1090.72 135.612 1088.99 Q136.515 1087.23 136.515 1085.54 Q136.515 1082.78 134.571 1081.05 Q132.65 1079.31 129.548 1079.31 Q127.349 1079.31 124.895 1080.07 Q122.464 1080.84 119.687 1082.39 L119.687 1077.67 Q122.511 1076.53 124.964 1075.95 Q127.418 1075.37 129.455 1075.37 Q134.825 1075.37 138.02 1078.06 Q141.214 1080.74 141.214 1085.24 Q141.214 1087.36 140.404 1089.29 Q139.617 1091.18 137.511 1093.78 Q136.932 1094.45 133.83 1097.67 Q130.728 1100.86 125.08 1106.62 Z" fill="#000000" fill-rule="nonzero" fill-opacity="1" /><path clip-path="url(#clip460)" d="M134.27 792.741 Q137.626 793.459 139.501 795.727 Q141.399 797.996 141.399 801.329 Q141.399 806.445 137.881 809.246 Q134.362 812.047 127.881 812.047 Q125.705 812.047 123.39 811.607 Q121.099 811.19 118.645 810.334 L118.645 805.82 Q120.589 806.954 122.904 807.533 Q125.219 808.111 127.742 808.111 Q132.14 808.111 134.432 806.375 Q136.747 804.639 136.747 801.329 Q136.747 798.273 134.594 796.561 Q132.464 794.824 128.645 794.824 L124.617 794.824 L124.617 790.982 L128.83 790.982 Q132.279 790.982 134.108 789.616 Q135.937 788.227 135.937 785.635 Q135.937 782.973 134.038 781.561 Q132.163 780.125 128.645 780.125 Q126.724 780.125 124.525 780.542 Q122.326 780.959 119.687 781.838 L119.687 777.672 Q122.349 776.931 124.663 776.561 Q127.001 776.19 129.062 776.19 Q134.386 776.19 137.487 778.621 Q140.589 781.028 140.589 785.149 Q140.589 788.019 138.946 790.01 Q137.302 791.977 134.27 792.741 Z" fill="#000000" fill-rule="nonzero" fill-opacity="1" /><path clip-path="url(#clip460)" d="M131.816 481.705 L120.011 500.154 L131.816 500.154 L131.816 481.705 M130.589 477.631 L136.469 477.631 L136.469 500.154 L141.399 500.154 L141.399 504.043 L136.469 504.043 L136.469 512.191 L131.816 512.191 L131.816 504.043 L116.214 504.043 L116.214 499.529 L130.589 477.631 Z" fill="#000000" fill-rule="nonzero" fill-opacity="1" /><path clip-path="url(#clip460)" d="M120.497 178.448 L138.853 178.448 L138.853 182.383 L124.779 182.383 L124.779 190.855 Q125.798 190.508 126.816 190.346 Q127.835 190.16 128.853 190.16 Q134.64 190.16 138.02 193.332 Q141.399 196.503 141.399 201.92 Q141.399 207.498 137.927 210.6 Q134.455 213.679 128.136 213.679 Q125.96 213.679 123.691 213.308 Q121.446 212.938 119.039 212.197 L119.039 207.498 Q121.122 208.633 123.344 209.188 Q125.566 209.744 128.043 209.744 Q132.048 209.744 134.386 207.637 Q136.724 205.531 136.724 201.92 Q136.724 198.309 134.386 196.202 Q132.048 194.096 128.043 194.096 Q126.168 194.096 124.293 194.512 Q122.441 194.929 120.497 195.809 L120.497 178.448 Z" fill="#000000" fill-rule="nonzero" fill-opacity="1" /><path clip-path="url(#clip460)" d="M19.402 1089.79 L37.2578 1089.79 L37.2578 1081.71 Q37.2578 1077.22 34.9343 1074.77 Q32.6108 1072.32 28.314 1072.32 Q24.0489 1072.32 21.7255 1074.77 Q19.402 1077.22 19.402 1081.71 L19.402 1089.79 M14.1184 1096.22 L14.1184 1081.71 Q14.1184 1073.72 17.7469 1069.65 Q21.3435 1065.54 28.314 1065.54 Q35.3481 1065.54 38.9447 1069.65 Q42.5413 1073.72 42.5413 1081.71 L42.5413 1089.79 L61.6384 1089.79 L61.6384 1096.22 L14.1184 1096.22 Z" fill="#000000" fill-rule="nonzero" fill-opacity="1" /><path clip-path="url(#clip460)" d="M30.0964 1045.68 Q30.0964 1050.39 33.7885 1053.13 Q37.4488 1055.87 43.8463 1055.87 Q50.2438 1055.87 53.9359 1053.16 Q57.5962 1050.42 57.5962 1045.68 Q57.5962 1041 53.9041 1038.26 Q50.212 1035.53 43.8463 1035.53 Q37.5124 1035.53 33.8203 1038.26 Q30.0964 1041 30.0964 1045.68 M25.1311 1045.68 Q25.1311 1038.04 30.0964 1033.68 Q35.0616 1029.32 43.8463 1029.32 Q52.5991 1029.32 57.5962 1033.68 Q62.5615 1038.04 62.5615 1045.68 Q62.5615 1053.35 57.5962 1057.71 Q52.5991 1062.04 43.8463 1062.04 Q35.0616 1062.04 30.0964 1057.71 Q25.1311 1053.35 25.1311 1045.68 Z" fill="#000000" fill-rule="nonzero" fill-opacity="1" /><path clip-path="url(#clip460)" d="M56.2912 1013.95 L75.1974 1013.95 L75.1974 1019.84 L25.9905 1019.84 L25.9905 1013.95 L31.4013 1013.95 Q28.2185 1012.1 26.6907 1009.3 Q25.1311 1006.47 25.1311 1002.55 Q25.1311 996.06 30.2873 992.018 Q35.4436 987.944 43.8463 987.944 Q52.249 987.944 57.4052 992.018 Q62.5615 996.06 62.5615 1002.55 Q62.5615 1006.47 61.0337 1009.3 Q59.4741 1012.1 56.2912 1013.95 M43.8463 994.023 Q37.3851 994.023 33.7248 996.696 Q30.0327 999.338 30.0327 1003.99 Q30.0327 1008.63 33.7248 1011.31 Q37.3851 1013.95 43.8463 1013.95 Q50.3075 1013.95 53.9996 1011.31 Q57.6599 1008.63 57.6599 1003.99 Q57.6599 999.338 53.9996 996.696 Q50.3075 994.023 43.8463 994.023 Z" fill="#000000" fill-rule="nonzero" fill-opacity="1" /><path clip-path="url(#clip460)" d="M47.5702 978.841 L25.9905 978.841 L25.9905 972.984 L47.3474 972.984 Q52.4082 972.984 54.9545 971.011 Q57.4689 969.037 57.4689 965.091 Q57.4689 960.348 54.4452 957.611 Q51.4215 954.842 46.2016 954.842 L25.9905 954.842 L25.9905 948.985 L61.6384 948.985 L61.6384 954.842 L56.1639 954.842 Q59.4104 956.974 61.0019 959.807 Q62.5615 962.608 62.5615 966.332 Q62.5615 972.475 58.742 975.658 Q54.9226 978.841 47.5702 978.841 M25.1311 964.104 L25.1311 964.104 Z" fill="#000000" fill-rule="nonzero" fill-opacity="1" /><path clip-path="url(#clip460)" d="M12.1132 936.922 L12.1132 931.066 L61.6384 931.066 L61.6384 936.922 L12.1132 936.922 Z" fill="#000000" fill-rule="nonzero" fill-opacity="1" /><path clip-path="url(#clip460)" d="M43.719 902.611 Q43.719 909.709 45.3422 912.446 Q46.9655 915.184 50.8804 915.184 Q53.9996 915.184 55.8457 913.146 Q57.6599 911.078 57.6599 907.545 Q57.6599 902.675 54.2224 899.747 Q50.7531 896.787 45.0239 896.787 L43.719 896.787 L43.719 902.611 M41.3 890.93 L61.6384 890.93 L61.6384 896.787 L56.2276 896.787 Q59.4741 898.792 61.0337 901.784 Q62.5615 904.776 62.5615 909.104 Q62.5615 914.579 59.5059 917.825 Q56.4186 921.04 51.2623 921.04 Q45.2467 921.04 42.1912 917.03 Q39.1357 912.987 39.1357 904.998 L39.1357 896.787 L38.5628 896.787 Q34.5205 896.787 32.3244 899.46 Q30.0964 902.102 30.0964 906.908 Q30.0964 909.964 30.8284 912.86 Q31.5605 915.756 33.0246 918.43 L27.6137 918.43 Q26.3724 915.215 25.7677 912.192 Q25.1311 909.168 25.1311 906.303 Q25.1311 898.569 29.1415 894.75 Q33.1519 890.93 41.3 890.93 Z" fill="#000000" fill-rule="nonzero" fill-opacity="1" /><path clip-path="url(#clip460)" d="M15.869 873.074 L25.9905 873.074 L25.9905 861.011 L30.542 861.011 L30.542 873.074 L49.8937 873.074 Q54.2542 873.074 55.4955 871.897 Q56.7368 870.687 56.7368 867.027 L56.7368 861.011 L61.6384 861.011 L61.6384 867.027 Q61.6384 873.806 59.124 876.385 Q56.5777 878.963 49.8937 878.963 L30.542 878.963 L30.542 883.259 L25.9905 883.259 L25.9905 878.963 L15.869 878.963 L15.869 873.074 Z" fill="#000000" fill-rule="nonzero" fill-opacity="1" /><path clip-path="url(#clip460)" d="M25.9905 853.309 L25.9905 847.452 L61.6384 847.452 L61.6384 853.309 L25.9905 853.309 M12.1132 853.309 L12.1132 847.452 L19.5293 847.452 L19.5293 853.309 L12.1132 853.309 Z" fill="#000000" fill-rule="nonzero" fill-opacity="1" /><path clip-path="url(#clip460)" d="M30.0964 821.385 Q30.0964 826.095 33.7885 828.833 Q37.4488 831.57 43.8463 831.57 Q50.2438 831.57 53.9359 828.865 Q57.5962 826.127 57.5962 821.385 Q57.5962 816.706 53.9041 813.969 Q50.212 811.232 43.8463 811.232 Q37.5124 811.232 33.8203 813.969 Q30.0964 816.706 30.0964 821.385 M25.1311 821.385 Q25.1311 813.746 30.0964 809.385 Q35.0616 805.025 43.8463 805.025 Q52.5991 805.025 57.5962 809.385 Q62.5615 813.746 62.5615 821.385 Q62.5615 829.056 57.5962 833.416 Q52.5991 837.745 43.8463 837.745 Q35.0616 837.745 30.0964 833.416 Q25.1311 829.056 25.1311 821.385 Z" fill="#000000" fill-rule="nonzero" fill-opacity="1" /><path clip-path="url(#clip460)" d="M40.1224 765.685 L61.6384 765.685 L61.6384 771.541 L40.3133 771.541 Q35.2526 771.541 32.7381 773.515 Q30.2237 775.488 30.2237 779.435 Q30.2237 784.177 33.2474 786.915 Q36.2711 789.652 41.491 789.652 L61.6384 789.652 L61.6384 795.54 L25.9905 795.54 L25.9905 789.652 L31.5287 789.652 Q28.314 787.551 26.7225 784.718 Q25.1311 781.854 25.1311 778.13 Q25.1311 771.987 28.9505 768.836 Q32.7381 765.685 40.1224 765.685 Z" fill="#000000" fill-rule="nonzero" fill-opacity="1" /><path clip-path="url(#clip460)" d="M753.452 17.6457 Q744.54 17.6457 739.274 24.2892 Q734.048 30.9327 734.048 42.3968 Q734.048 53.8203 739.274 60.4638 Q744.54 67.1073 753.452 67.1073 Q762.364 67.1073 767.549 60.4638 Q772.775 53.8203 772.775 42.3968 Q772.775 30.9327 767.549 24.2892 Q762.364 17.6457 753.452 17.6457 M753.452 11.0023 Q766.172 11.0023 773.787 19.5497 Q781.403 28.0566 781.403 42.3968 Q781.403 56.6965 773.787 65.2439 Q766.172 73.7508 753.452 73.7508 Q740.692 73.7508 733.035 65.2439 Q725.42 56.737 725.42 42.3968 Q725.42 28.0566 733.035 19.5497 Q740.692 11.0023 753.452 11.0023 Z" fill="#000000" fill-rule="nonzero" fill-opacity="1" /><path clip-path="url(#clip460)" d="M826.449 49.9314 Q826.449 41.7081 823.046 37.0496 Q819.684 32.3505 813.77 32.3505 Q807.856 32.3505 804.453 37.0496 Q801.091 41.7081 801.091 49.9314 Q801.091 58.1548 804.453 62.8538 Q807.856 67.5124 813.77 67.5124 Q819.684 67.5124 823.046 62.8538 Q826.449 58.1548 826.449 49.9314 M801.091 34.0924 Q803.44 30.0415 807.005 28.0971 Q810.61 26.1121 815.593 26.1121 Q823.857 26.1121 829.001 32.6746 Q834.186 39.2371 834.186 49.9314 Q834.186 60.6258 829.001 67.1883 Q823.857 73.7508 815.593 73.7508 Q810.61 73.7508 807.005 71.8063 Q803.44 69.8214 801.091 65.7705 L801.091 72.576 L793.596 72.576 L793.596 9.54393 L801.091 9.54393 L801.091 34.0924 Z" fill="#000000" fill-rule="nonzero" fill-opacity="1" /><path clip-path="url(#clip460)" d="M875.465 28.5427 L875.465 35.5912 Q872.305 33.9709 868.903 33.1607 Q865.5 32.3505 861.854 32.3505 Q856.304 32.3505 853.509 34.0519 Q850.755 35.7533 850.755 39.156 Q850.755 41.7486 852.74 43.2475 Q854.724 44.7058 860.72 46.0426 L863.272 46.6097 Q871.212 48.3111 874.533 51.4303 Q877.896 54.509 877.896 60.0587 Q877.896 66.3781 872.873 70.0644 Q867.89 73.7508 859.14 73.7508 Q855.494 73.7508 851.524 73.0216 Q847.595 72.3329 843.22 70.9151 L843.22 63.2184 Q847.352 65.3654 851.362 66.4591 Q855.373 67.5124 859.302 67.5124 Q864.568 67.5124 867.404 65.73 Q870.239 63.9071 870.239 60.6258 Q870.239 57.5877 868.173 55.9673 Q866.148 54.3469 859.221 52.8481 L856.628 52.2405 Q849.701 50.7821 846.623 47.7845 Q843.544 44.7463 843.544 39.4801 Q843.544 33.0797 848.081 29.5959 Q852.618 26.1121 860.963 26.1121 Q865.095 26.1121 868.741 26.7198 Q872.386 27.3274 875.465 28.5427 Z" fill="#000000" fill-rule="nonzero" fill-opacity="1" /><path clip-path="url(#clip460)" d="M928.572 48.0275 L928.572 51.6733 L894.302 51.6733 Q894.788 59.3701 898.92 63.421 Q903.092 67.4314 910.505 67.4314 Q914.799 67.4314 918.81 66.3781 Q922.861 65.3249 926.831 63.2184 L926.831 70.267 Q922.82 71.9684 918.607 72.8596 Q914.394 73.7508 910.06 73.7508 Q899.203 73.7508 892.843 67.4314 Q886.524 61.1119 886.524 50.3365 Q886.524 39.1965 892.519 32.6746 Q898.555 26.1121 908.764 26.1121 Q917.919 26.1121 923.225 32.0264 Q928.572 37.9003 928.572 48.0275 M921.119 45.84 Q921.038 39.7232 917.676 36.0774 Q914.354 32.4315 908.845 32.4315 Q902.606 32.4315 898.839 35.9558 Q895.112 39.4801 894.545 45.8805 L921.119 45.84 Z" fill="#000000" fill-rule="nonzero" fill-opacity="1" /><path clip-path="url(#clip460)" d="M967.097 34.1734 Q965.841 33.4443 964.342 33.1202 Q962.884 32.7556 961.101 32.7556 Q954.782 32.7556 951.379 36.8875 Q948.017 40.9789 948.017 48.6757 L948.017 72.576 L940.523 72.576 L940.523 27.2059 L948.017 27.2059 L948.017 34.2544 Q950.366 30.1225 954.134 28.1376 Q957.901 26.1121 963.289 26.1121 Q964.058 26.1121 964.99 26.2337 Q965.922 26.3147 967.056 26.5172 L967.097 34.1734 Z" fill="#000000" fill-rule="nonzero" fill-opacity="1" /><path clip-path="url(#clip460)" d="M969.568 27.2059 L977.467 27.2059 L991.645 65.2844 L1005.82 27.2059 L1013.72 27.2059 L996.709 72.576 L986.581 72.576 L969.568 27.2059 Z" fill="#000000" fill-rule="nonzero" fill-opacity="1" /><path clip-path="url(#clip460)" d="M1062.82 48.0275 L1062.82 51.6733 L1028.55 51.6733 Q1029.03 59.3701 1033.17 63.421 Q1037.34 67.4314 1044.75 67.4314 Q1049.05 67.4314 1053.06 66.3781 Q1057.11 65.3249 1061.08 63.2184 L1061.08 70.267 Q1057.07 71.9684 1052.85 72.8596 Q1048.64 73.7508 1044.31 73.7508 Q1033.45 73.7508 1027.09 67.4314 Q1020.77 61.1119 1020.77 50.3365 Q1020.77 39.1965 1026.77 32.6746 Q1032.8 26.1121 1043.01 26.1121 Q1052.17 26.1121 1057.47 32.0264 Q1062.82 37.9003 1062.82 48.0275 M1055.37 45.84 Q1055.28 39.7232 1051.92 36.0774 Q1048.6 32.4315 1043.09 32.4315 Q1036.85 32.4315 1033.09 35.9558 Q1029.36 39.4801 1028.79 45.8805 L1055.37 45.84 Z" fill="#000000" fill-rule="nonzero" fill-opacity="1" /><path clip-path="url(#clip460)" d="M1104.91 34.0924 L1104.91 9.54393 L1112.36 9.54393 L1112.36 72.576 L1104.91 72.576 L1104.91 65.7705 Q1102.56 69.8214 1098.95 71.8063 Q1095.39 73.7508 1090.37 73.7508 Q1082.14 73.7508 1076.96 67.1883 Q1071.81 60.6258 1071.81 49.9314 Q1071.81 39.2371 1076.96 32.6746 Q1082.14 26.1121 1090.37 26.1121 Q1095.39 26.1121 1098.95 28.0971 Q1102.56 30.0415 1104.91 34.0924 M1079.51 49.9314 Q1079.51 58.1548 1082.87 62.8538 Q1086.27 67.5124 1092.19 67.5124 Q1098.1 67.5124 1101.51 62.8538 Q1104.91 58.1548 1104.91 49.9314 Q1104.91 41.7081 1101.51 37.0496 Q1098.1 32.3505 1092.19 32.3505 Q1086.27 32.3505 1082.87 37.0496 Q1079.51 41.7081 1079.51 49.9314 Z" fill="#000000" fill-rule="nonzero" fill-opacity="1" /><path clip-path="url(#clip460)" d="M1162.59 18.8205 L1162.59 65.8515 L1172.48 65.8515 Q1184.99 65.8515 1190.79 60.1802 Q1196.62 54.509 1196.62 42.2752 Q1196.62 30.1225 1190.79 24.4918 Q1184.99 18.8205 1172.48 18.8205 L1162.59 18.8205 M1154.41 12.096 L1171.22 12.096 Q1188.8 12.096 1197.03 19.4281 Q1205.25 26.7198 1205.25 42.2752 Q1205.25 57.9117 1196.99 65.2439 Q1188.72 72.576 1171.22 72.576 L1154.41 72.576 L1154.41 12.096 Z" fill="#000000" fill-rule="nonzero" fill-opacity="1" /><path clip-path="url(#clip460)" d="M1238.59 49.7694 Q1229.55 49.7694 1226.07 51.8354 Q1222.59 53.9013 1222.59 58.8839 Q1222.59 62.8538 1225.18 65.2034 Q1227.81 67.5124 1232.31 67.5124 Q1238.51 67.5124 1242.23 63.1374 Q1246 58.7219 1246 51.4303 L1246 49.7694 L1238.59 49.7694 M1253.45 46.6907 L1253.45 72.576 L1246 72.576 L1246 65.6895 Q1243.45 69.8214 1239.64 71.8063 Q1235.83 73.7508 1230.32 73.7508 Q1223.36 73.7508 1219.22 69.8619 Q1215.13 65.9325 1215.13 59.3701 Q1215.13 51.7138 1220.24 47.825 Q1225.38 43.9361 1235.55 43.9361 L1246 43.9361 L1246 43.2069 Q1246 38.0623 1242.6 35.2672 Q1239.24 32.4315 1233.12 32.4315 Q1229.23 32.4315 1225.54 33.3632 Q1221.86 34.295 1218.46 36.1584 L1218.46 29.2718 Q1222.55 27.692 1226.39 26.9223 Q1230.24 26.1121 1233.89 26.1121 Q1243.73 26.1121 1248.59 31.2163 Q1253.45 36.3204 1253.45 46.6907 Z" fill="#000000" fill-rule="nonzero" fill-opacity="1" /><path clip-path="url(#clip460)" d="M1276.18 14.324 L1276.18 27.2059 L1291.53 27.2059 L1291.53 32.9987 L1276.18 32.9987 L1276.18 57.6282 Q1276.18 63.1779 1277.68 64.7578 Q1279.22 66.3376 1283.88 66.3376 L1291.53 66.3376 L1291.53 72.576 L1283.88 72.576 Q1275.25 72.576 1271.97 69.3758 Q1268.69 66.1351 1268.69 57.6282 L1268.69 32.9987 L1263.22 32.9987 L1263.22 27.2059 L1268.69 27.2059 L1268.69 14.324 L1276.18 14.324 Z" fill="#000000" fill-rule="nonzero" fill-opacity="1" /><path clip-path="url(#clip460)" d="M1321.96 49.7694 Q1312.92 49.7694 1309.44 51.8354 Q1305.95 53.9013 1305.95 58.8839 Q1305.95 62.8538 1308.55 65.2034 Q1311.18 67.5124 1315.68 67.5124 Q1321.87 67.5124 1325.6 63.1374 Q1329.37 58.7219 1329.37 51.4303 L1329.37 49.7694 L1321.96 49.7694 M1336.82 46.6907 L1336.82 72.576 L1329.37 72.576 L1329.37 65.6895 Q1326.82 69.8214 1323.01 71.8063 Q1319.2 73.7508 1313.69 73.7508 Q1306.72 73.7508 1302.59 69.8619 Q1298.5 65.9325 1298.5 59.3701 Q1298.5 51.7138 1303.61 47.825 Q1308.75 43.9361 1318.92 43.9361 L1329.37 43.9361 L1329.37 43.2069 Q1329.37 38.0623 1325.97 35.2672 Q1322.6 32.4315 1316.49 32.4315 Q1312.6 32.4315 1308.91 33.3632 Q1305.23 34.295 1301.82 36.1584 L1301.82 29.2718 Q1305.91 27.692 1309.76 26.9223 Q1313.61 26.1121 1317.26 26.1121 Q1327.1 26.1121 1331.96 31.2163 Q1336.82 36.3204 1336.82 46.6907 Z" fill="#000000" fill-rule="nonzero" fill-opacity="1" /><path clip-path="url(#clip460)" d="M1373.2 27.2059 L1381.1 27.2059 L1395.28 65.2844 L1409.46 27.2059 L1417.35 27.2059 L1400.34 72.576 L1390.21 72.576 L1373.2 27.2059 Z" fill="#000000" fill-rule="nonzero" fill-opacity="1" /><path clip-path="url(#clip460)" d="M1456.57 28.5427 L1456.57 35.5912 Q1453.41 33.9709 1450 33.1607 Q1446.6 32.3505 1442.96 32.3505 Q1437.41 32.3505 1434.61 34.0519 Q1431.86 35.7533 1431.86 39.156 Q1431.86 41.7486 1433.84 43.2475 Q1435.83 44.7058 1441.82 46.0426 L1444.37 46.6097 Q1452.31 48.3111 1455.64 51.4303 Q1459 54.509 1459 60.0587 Q1459 66.3781 1453.97 70.0644 Q1448.99 73.7508 1440.24 73.7508 Q1436.6 73.7508 1432.63 73.0216 Q1428.7 72.3329 1424.32 70.9151 L1424.32 63.2184 Q1428.45 65.3654 1432.46 66.4591 Q1436.47 67.5124 1440.4 67.5124 Q1445.67 67.5124 1448.51 65.73 Q1451.34 63.9071 1451.34 60.6258 Q1451.34 57.5877 1449.28 55.9673 Q1447.25 54.3469 1440.32 52.8481 L1437.73 52.2405 Q1430.8 50.7821 1427.72 47.7845 Q1424.65 44.7463 1424.65 39.4801 Q1424.65 33.0797 1429.18 29.5959 Q1433.72 26.1121 1442.07 26.1121 Q1446.2 26.1121 1449.84 26.7198 Q1453.49 27.3274 1456.57 28.5427 Z" fill="#000000" fill-rule="nonzero" fill-opacity="1" /><path clip-path="url(#clip460)" d="M1489.18 12.096 L1540.34 12.096 L1540.34 18.9825 L1518.87 18.9825 L1518.87 72.576 L1510.65 72.576 L1510.65 18.9825 L1489.18 18.9825 L1489.18 12.096 Z" fill="#000000" fill-rule="nonzero" fill-opacity="1" /><path clip-path="url(#clip460)" d="M1562.01 34.1734 Q1560.76 33.4443 1559.26 33.1202 Q1557.8 32.7556 1556.02 32.7556 Q1549.7 32.7556 1546.29 36.8875 Q1542.93 40.9789 1542.93 48.6757 L1542.93 72.576 L1535.44 72.576 L1535.44 27.2059 L1542.93 27.2059 L1542.93 34.2544 Q1545.28 30.1225 1549.05 28.1376 Q1552.82 26.1121 1558.2 26.1121 Q1558.97 26.1121 1559.91 26.2337 Q1560.84 26.3147 1561.97 26.5172 L1562.01 34.1734 Z" fill="#000000" fill-rule="nonzero" fill-opacity="1" /><path clip-path="url(#clip460)" d="M1569.06 54.671 L1569.06 27.2059 L1576.51 27.2059 L1576.51 54.3874 Q1576.51 60.8284 1579.03 64.0691 Q1581.54 67.2693 1586.56 67.2693 Q1592.6 67.2693 1596.08 63.421 Q1599.6 59.5726 1599.6 52.9291 L1599.6 27.2059 L1607.06 27.2059 L1607.06 72.576 L1599.6 72.576 L1599.6 65.6084 Q1596.89 69.7404 1593.29 71.7658 Q1589.72 73.7508 1584.98 73.7508 Q1577.16 73.7508 1573.11 68.8897 Q1569.06 64.0286 1569.06 54.671 M1587.82 26.1121 L1587.82 26.1121 Z" fill="#000000" fill-rule="nonzero" fill-opacity="1" /><path clip-path="url(#clip460)" d="M1661.22 48.0275 L1661.22 51.6733 L1626.95 51.6733 Q1627.43 59.3701 1631.57 63.421 Q1635.74 67.4314 1643.15 67.4314 Q1647.45 67.4314 1651.46 66.3781 Q1655.51 65.3249 1659.48 63.2184 L1659.48 70.267 Q1655.47 71.9684 1651.25 72.8596 Q1647.04 73.7508 1642.71 73.7508 Q1631.85 73.7508 1625.49 67.4314 Q1619.17 61.1119 1619.17 50.3365 Q1619.17 39.1965 1625.17 32.6746 Q1631.2 26.1121 1641.41 26.1121 Q1650.57 26.1121 1655.87 32.0264 Q1661.22 37.9003 1661.22 48.0275 M1653.77 45.84 Q1653.68 39.7232 1650.32 36.0774 Q1647 32.4315 1641.49 32.4315 Q1635.25 32.4315 1631.49 35.9558 Q1627.76 39.4801 1627.19 45.8805 L1653.77 45.84 Z" fill="#000000" fill-rule="nonzero" fill-opacity="1" /><path clip-path="url(#clip460)" d="M1708.33 18.8205 L1708.33 65.8515 L1718.22 65.8515 Q1730.73 65.8515 1736.53 60.1802 Q1742.36 54.509 1742.36 42.2752 Q1742.36 30.1225 1736.53 24.4918 Q1730.73 18.8205 1718.22 18.8205 L1708.33 18.8205 M1700.15 12.096 L1716.96 12.096 Q1734.54 12.096 1742.76 19.4281 Q1750.99 26.7198 1750.99 42.2752 Q1750.99 57.9117 1742.72 65.2439 Q1734.46 72.576 1716.96 72.576 L1700.15 72.576 L1700.15 12.096 Z" fill="#000000" fill-rule="nonzero" fill-opacity="1" /><path clip-path="url(#clip460)" d="M1782.58 76.7889 Q1779.42 84.8907 1776.43 87.3618 Q1773.43 89.8329 1768.41 89.8329 L1762.45 89.8329 L1762.45 83.5945 L1766.83 83.5945 Q1769.9 83.5945 1771.61 82.1361 Q1773.31 80.6778 1775.37 75.2496 L1776.71 71.8468 L1758.36 27.2059 L1766.26 27.2059 L1780.44 62.6918 L1794.62 27.2059 L1802.51 27.2059 L1782.58 76.7889 Z" fill="#000000" fill-rule="nonzero" fill-opacity="1" /><path clip-path="url(#clip460)" d="M1850.52 45.1919 L1850.52 72.576 L1843.06 72.576 L1843.06 45.4349 Q1843.06 38.994 1840.55 35.7938 Q1838.04 32.5936 1833.02 32.5936 Q1826.98 32.5936 1823.5 36.4419 Q1820.01 40.2903 1820.01 46.9338 L1820.01 72.576 L1812.52 72.576 L1812.52 27.2059 L1820.01 27.2059 L1820.01 34.2544 Q1822.69 30.163 1826.29 28.1376 Q1829.94 26.1121 1834.68 26.1121 Q1842.5 26.1121 1846.51 30.9732 Q1850.52 35.7938 1850.52 45.1919 Z" fill="#000000" fill-rule="nonzero" fill-opacity="1" /><path clip-path="url(#clip460)" d="M1886 49.7694 Q1876.97 49.7694 1873.49 51.8354 Q1870 53.9013 1870 58.8839 Q1870 62.8538 1872.6 65.2034 Q1875.23 67.5124 1879.72 67.5124 Q1885.92 67.5124 1889.65 63.1374 Q1893.42 58.7219 1893.42 51.4303 L1893.42 49.7694 L1886 49.7694 M1900.87 46.6907 L1900.87 72.576 L1893.42 72.576 L1893.42 65.6895 Q1890.86 69.8214 1887.06 71.8063 Q1883.25 73.7508 1877.74 73.7508 Q1870.77 73.7508 1866.64 69.8619 Q1862.55 65.9325 1862.55 59.3701 Q1862.55 51.7138 1867.65 47.825 Q1872.8 43.9361 1882.97 43.9361 L1893.42 43.9361 L1893.42 43.2069 Q1893.42 38.0623 1890.01 35.2672 Q1886.65 32.4315 1880.53 32.4315 Q1876.65 32.4315 1872.96 33.3632 Q1869.27 34.295 1865.87 36.1584 L1865.87 29.2718 Q1869.96 27.692 1873.81 26.9223 Q1877.66 26.1121 1881.3 26.1121 Q1891.15 26.1121 1896.01 31.2163 Q1900.87 36.3204 1900.87 46.6907 Z" fill="#000000" fill-rule="nonzero" fill-opacity="1" /><path clip-path="url(#clip460)" d="M1951.55 35.9153 Q1954.34 30.8922 1958.23 28.5022 Q1962.12 26.1121 1967.39 26.1121 Q1974.48 26.1121 1978.32 31.0947 Q1982.17 36.0368 1982.17 45.1919 L1982.17 72.576 L1974.68 72.576 L1974.68 45.4349 Q1974.68 38.913 1972.37 35.7533 Q1970.06 32.5936 1965.32 32.5936 Q1959.53 32.5936 1956.17 36.4419 Q1952.8 40.2903 1952.8 46.9338 L1952.8 72.576 L1945.31 72.576 L1945.31 45.4349 Q1945.31 38.8725 1943 35.7533 Q1940.69 32.5936 1935.87 32.5936 Q1930.16 32.5936 1926.8 36.4824 Q1923.43 40.3308 1923.43 46.9338 L1923.43 72.576 L1915.94 72.576 L1915.94 27.2059 L1923.43 27.2059 L1923.43 34.2544 Q1925.99 30.082 1929.55 28.0971 Q1933.12 26.1121 1938.02 26.1121 Q1942.96 26.1121 1946.4 28.6237 Q1949.89 31.1352 1951.55 35.9153 Z" fill="#000000" fill-rule="nonzero" fill-opacity="1" /><path clip-path="url(#clip460)" d="M1997.04 27.2059 L2004.49 27.2059 L2004.49 72.576 L1997.04 72.576 L1997.04 27.2059 M1997.04 9.54393 L2004.49 9.54393 L2004.49 18.9825 L1997.04 18.9825 L1997.04 9.54393 Z" fill="#000000" fill-rule="nonzero" fill-opacity="1" /><path clip-path="url(#clip460)" d="M2052.74 28.9478 L2052.74 35.9153 Q2049.58 34.1734 2046.38 33.3227 Q2043.22 32.4315 2039.98 32.4315 Q2032.73 32.4315 2028.72 37.0496 Q2024.71 41.6271 2024.71 49.9314 Q2024.71 58.2358 2028.72 62.8538 Q2032.73 67.4314 2039.98 67.4314 Q2043.22 67.4314 2046.38 66.5807 Q2049.58 65.6895 2052.74 63.9476 L2052.74 70.8341 Q2049.62 72.2924 2046.26 73.0216 Q2042.94 73.7508 2039.17 73.7508 Q2028.92 73.7508 2022.88 67.3098 Q2016.85 60.8689 2016.85 49.9314 Q2016.85 38.832 2022.92 32.472 Q2029.04 26.1121 2039.65 26.1121 Q2043.1 26.1121 2046.38 26.8413 Q2049.66 27.5299 2052.74 28.9478 Z" fill="#000000" fill-rule="nonzero" fill-opacity="1" /><path clip-path="url(#clip460)" d="M2094.63 28.5427 L2094.63 35.5912 Q2091.47 33.9709 2088.06 33.1607 Q2084.66 32.3505 2081.01 32.3505 Q2075.46 32.3505 2072.67 34.0519 Q2069.91 35.7533 2069.91 39.156 Q2069.91 41.7486 2071.9 43.2475 Q2073.88 44.7058 2079.88 46.0426 L2082.43 46.6097 Q2090.37 48.3111 2093.69 51.4303 Q2097.06 54.509 2097.06 60.0587 Q2097.06 66.3781 2092.03 70.0644 Q2087.05 73.7508 2078.3 73.7508 Q2074.65 73.7508 2070.68 73.0216 Q2066.76 72.3329 2062.38 70.9151 L2062.38 63.2184 Q2066.51 65.3654 2070.52 66.4591 Q2074.53 67.5124 2078.46 67.5124 Q2083.73 67.5124 2086.56 65.73 Q2089.4 63.9071 2089.4 60.6258 Q2089.4 57.5877 2087.33 55.9673 Q2085.31 54.3469 2078.38 52.8481 L2075.79 52.2405 Q2068.86 50.7821 2065.78 47.7845 Q2062.7 44.7463 2062.7 39.4801 Q2062.7 33.0797 2067.24 29.5959 Q2071.78 26.1121 2080.12 26.1121 Q2084.25 26.1121 2087.9 26.7198 Q2091.55 27.3274 2094.63 28.5427 Z" fill="#000000" fill-rule="nonzero" fill-opacity="1" /><circle clip-path="url(#clip461)" cx="251.315" cy="1102.94" r="10.8" fill="#4682b4" fill-rule="evenodd" fill-opacity="0.6" stroke="#000000" stroke-opacity="0.6" stroke-width="3.84"/>
<circle clip-path="url(#clip461)" cx="289.979" cy="1091.47" r="10.8" fill="#4682b4" fill-rule="evenodd" fill-opacity="0.6" stroke="#000000" stroke-opacity="0.6" stroke-width="3.84"/>
<circle clip-path="url(#clip461)" cx="328.643" cy="1066.85" r="10.8" fill="#4682b4" fill-rule="evenodd" fill-opacity="0.6" stroke="#000000" stroke-opacity="0.6" stroke-width="3.84"/>
<circle clip-path="url(#clip461)" cx="367.307" cy="1015.78" r="10.8" fill="#4682b4" fill-rule="evenodd" fill-opacity="0.6" stroke="#000000" stroke-opacity="0.6" stroke-width="3.84"/>
<circle clip-path="url(#clip461)" cx="405.971" cy="972.449" r="10.8" fill="#4682b4" fill-rule="evenodd" fill-opacity="0.6" stroke="#000000" stroke-opacity="0.6" stroke-width="3.84"/>
<circle clip-path="url(#clip461)" cx="444.635" cy="930.152" r="10.8" fill="#4682b4" fill-rule="evenodd" fill-opacity="0.6" stroke="#000000" stroke-opacity="0.6" stroke-width="3.84"/>
<circle clip-path="url(#clip461)" cx="483.299" cy="906.813" r="10.8" fill="#4682b4" fill-rule="evenodd" fill-opacity="0.6" stroke="#000000" stroke-opacity="0.6" stroke-width="3.84"/>
<circle clip-path="url(#clip461)" cx="521.964" cy="846.664" r="10.8" fill="#4682b4" fill-rule="evenodd" fill-opacity="0.6" stroke="#000000" stroke-opacity="0.6" stroke-width="3.84"/>
<circle clip-path="url(#clip461)" cx="560.628" cy="850.881" r="10.8" fill="#4682b4" fill-rule="evenodd" fill-opacity="0.6" stroke="#000000" stroke-opacity="0.6" stroke-width="3.84"/>
<circle clip-path="url(#clip461)" cx="599.292" cy="785.266" r="10.8" fill="#4682b4" fill-rule="evenodd" fill-opacity="0.6" stroke="#000000" stroke-opacity="0.6" stroke-width="3.84"/>
<circle clip-path="url(#clip461)" cx="637.956" cy="743.315" r="10.8" fill="#4682b4" fill-rule="evenodd" fill-opacity="0.6" stroke="#000000" stroke-opacity="0.6" stroke-width="3.84"/>
<circle clip-path="url(#clip461)" cx="676.62" cy="725.043" r="10.8" fill="#4682b4" fill-rule="evenodd" fill-opacity="0.6" stroke="#000000" stroke-opacity="0.6" stroke-width="3.84"/>
<circle clip-path="url(#clip461)" cx="715.284" cy="677.062" r="10.8" fill="#4682b4" fill-rule="evenodd" fill-opacity="0.6" stroke="#000000" stroke-opacity="0.6" stroke-width="3.84"/>
<circle clip-path="url(#clip461)" cx="753.948" cy="649.46" r="10.8" fill="#4682b4" fill-rule="evenodd" fill-opacity="0.6" stroke="#000000" stroke-opacity="0.6" stroke-width="3.84"/>
<circle clip-path="url(#clip461)" cx="792.612" cy="594.781" r="10.8" fill="#4682b4" fill-rule="evenodd" fill-opacity="0.6" stroke="#000000" stroke-opacity="0.6" stroke-width="3.84"/>
<circle clip-path="url(#clip461)" cx="831.276" cy="574.123" r="10.8" fill="#4682b4" fill-rule="evenodd" fill-opacity="0.6" stroke="#000000" stroke-opacity="0.6" stroke-width="3.84"/>
<circle clip-path="url(#clip461)" cx="869.94" cy="538.562" r="10.8" fill="#4682b4" fill-rule="evenodd" fill-opacity="0.6" stroke="#000000" stroke-opacity="0.6" stroke-width="3.84"/>
<circle clip-path="url(#clip461)" cx="908.604" cy="528.303" r="10.8" fill="#4682b4" fill-rule="evenodd" fill-opacity="0.6" stroke="#000000" stroke-opacity="0.6" stroke-width="3.84"/>
<circle clip-path="url(#clip461)" cx="947.269" cy="479.052" r="10.8" fill="#4682b4" fill-rule="evenodd" fill-opacity="0.6" stroke="#000000" stroke-opacity="0.6" stroke-width="3.84"/>
<circle clip-path="url(#clip461)" cx="985.933" cy="470.336" r="10.8" fill="#4682b4" fill-rule="evenodd" fill-opacity="0.6" stroke="#000000" stroke-opacity="0.6" stroke-width="3.84"/>
<circle clip-path="url(#clip461)" cx="1024.6" cy="436.104" r="10.8" fill="#4682b4" fill-rule="evenodd" fill-opacity="0.6" stroke="#000000" stroke-opacity="0.6" stroke-width="3.84"/>
<circle clip-path="url(#clip461)" cx="1063.26" cy="439.296" r="10.8" fill="#4682b4" fill-rule="evenodd" fill-opacity="0.6" stroke="#000000" stroke-opacity="0.6" stroke-width="3.84"/>
<circle clip-path="url(#clip461)" cx="1101.92" cy="420.22" r="10.8" fill="#4682b4" fill-rule="evenodd" fill-opacity="0.6" stroke="#000000" stroke-opacity="0.6" stroke-width="3.84"/>
<circle clip-path="url(#clip461)" cx="1140.59" cy="378.537" r="10.8" fill="#4682b4" fill-rule="evenodd" fill-opacity="0.6" stroke="#000000" stroke-opacity="0.6" stroke-width="3.84"/>
<circle clip-path="url(#clip461)" cx="1179.25" cy="367.559" r="10.8" fill="#4682b4" fill-rule="evenodd" fill-opacity="0.6" stroke="#000000" stroke-opacity="0.6" stroke-width="3.84"/>
<circle clip-path="url(#clip461)" cx="1217.92" cy="351.457" r="10.8" fill="#4682b4" fill-rule="evenodd" fill-opacity="0.6" stroke="#000000" stroke-opacity="0.6" stroke-width="3.84"/>
<circle clip-path="url(#clip461)" cx="1256.58" cy="342.429" r="10.8" fill="#4682b4" fill-rule="evenodd" fill-opacity="0.6" stroke="#000000" stroke-opacity="0.6" stroke-width="3.84"/>
<circle clip-path="url(#clip461)" cx="1295.25" cy="326.259" r="10.8" fill="#4682b4" fill-rule="evenodd" fill-opacity="0.6" stroke="#000000" stroke-opacity="0.6" stroke-width="3.84"/>
<circle clip-path="url(#clip461)" cx="1333.91" cy="324.536" r="10.8" fill="#4682b4" fill-rule="evenodd" fill-opacity="0.6" stroke="#000000" stroke-opacity="0.6" stroke-width="3.84"/>
<circle clip-path="url(#clip461)" cx="1372.57" cy="286.267" r="10.8" fill="#4682b4" fill-rule="evenodd" fill-opacity="0.6" stroke="#000000" stroke-opacity="0.6" stroke-width="3.84"/>
<circle clip-path="url(#clip461)" cx="1411.24" cy="297.563" r="10.8" fill="#4682b4" fill-rule="evenodd" fill-opacity="0.6" stroke="#000000" stroke-opacity="0.6" stroke-width="3.84"/>
<circle clip-path="url(#clip461)" cx="1449.9" cy="300.345" r="10.8" fill="#4682b4" fill-rule="evenodd" fill-opacity="0.6" stroke="#000000" stroke-opacity="0.6" stroke-width="3.84"/>
<circle clip-path="url(#clip461)" cx="1488.57" cy="306.802" r="10.8" fill="#4682b4" fill-rule="evenodd" fill-opacity="0.6" stroke="#000000" stroke-opacity="0.6" stroke-width="3.84"/>
<circle clip-path="url(#clip461)" cx="1527.23" cy="273.821" r="10.8" fill="#4682b4" fill-rule="evenodd" fill-opacity="0.6" stroke="#000000" stroke-opacity="0.6" stroke-width="3.84"/>
<circle clip-path="url(#clip461)" cx="1565.89" cy="276.571" r="10.8" fill="#4682b4" fill-rule="evenodd" fill-opacity="0.6" stroke="#000000" stroke-opacity="0.6" stroke-width="3.84"/>
<circle clip-path="url(#clip461)" cx="1604.56" cy="271.324" r="10.8" fill="#4682b4" fill-rule="evenodd" fill-opacity="0.6" stroke="#000000" stroke-opacity="0.6" stroke-width="3.84"/>
<circle clip-path="url(#clip461)" cx="1643.22" cy="253.681" r="10.8" fill="#4682b4" fill-rule="evenodd" fill-opacity="0.6" stroke="#000000" stroke-opacity="0.6" stroke-width="3.84"/>
<circle clip-path="url(#clip461)" cx="1681.89" cy="263.982" r="10.8" fill="#4682b4" fill-rule="evenodd" fill-opacity="0.6" stroke="#000000" stroke-opacity="0.6" stroke-width="3.84"/>
<circle clip-path="url(#clip461)" cx="1720.55" cy="257.846" r="10.8" fill="#4682b4" fill-rule="evenodd" fill-opacity="0.6" stroke="#000000" stroke-opacity="0.6" stroke-width="3.84"/>
<circle clip-path="url(#clip461)" cx="1759.21" cy="282.408" r="10.8" fill="#4682b4" fill-rule="evenodd" fill-opacity="0.6" stroke="#000000" stroke-opacity="0.6" stroke-width="3.84"/>
<circle clip-path="url(#clip461)" cx="1797.88" cy="236.78" r="10.8" fill="#4682b4" fill-rule="evenodd" fill-opacity="0.6" stroke="#000000" stroke-opacity="0.6" stroke-width="3.84"/>
<circle clip-path="url(#clip461)" cx="1836.54" cy="233.026" r="10.8" fill="#4682b4" fill-rule="evenodd" fill-opacity="0.6" stroke="#000000" stroke-opacity="0.6" stroke-width="3.84"/>
<circle clip-path="url(#clip461)" cx="1875.21" cy="238.086" r="10.8" fill="#4682b4" fill-rule="evenodd" fill-opacity="0.6" stroke="#000000" stroke-opacity="0.6" stroke-width="3.84"/>
<circle clip-path="url(#clip461)" cx="1913.87" cy="269.262" r="10.8" fill="#4682b4" fill-rule="evenodd" fill-opacity="0.6" stroke="#000000" stroke-opacity="0.6" stroke-width="3.84"/>
<circle clip-path="url(#clip461)" cx="1952.54" cy="238.716" r="10.8" fill="#4682b4" fill-rule="evenodd" fill-opacity="0.6" stroke="#000000" stroke-opacity="0.6" stroke-width="3.84"/>
<circle clip-path="url(#clip461)" cx="1991.2" cy="216.401" r="10.8" fill="#4682b4" fill-rule="evenodd" fill-opacity="0.6" stroke="#000000" stroke-opacity="0.6" stroke-width="3.84"/>
<circle clip-path="url(#clip461)" cx="2029.86" cy="266.382" r="10.8" fill="#4682b4" fill-rule="evenodd" fill-opacity="0.6" stroke="#000000" stroke-opacity="0.6" stroke-width="3.84"/>
<circle clip-path="url(#clip461)" cx="2068.53" cy="261.28" r="10.8" fill="#4682b4" fill-rule="evenodd" fill-opacity="0.6" stroke="#000000" stroke-opacity="0.6" stroke-width="3.84"/>
<circle clip-path="url(#clip461)" cx="2107.19" cy="229.811" r="10.8" fill="#4682b4" fill-rule="evenodd" fill-opacity="0.6" stroke="#000000" stroke-opacity="0.6" stroke-width="3.84"/>
<circle clip-path="url(#clip461)" cx="2145.86" cy="222.482" r="10.8" fill="#4682b4" fill-rule="evenodd" fill-opacity="0.6" stroke="#000000" stroke-opacity="0.6" stroke-width="3.84"/>
<circle clip-path="url(#clip461)" cx="2184.52" cy="215.558" r="10.8" fill="#4682b4" fill-rule="evenodd" fill-opacity="0.6" stroke="#000000" stroke-opacity="0.6" stroke-width="3.84"/>
<circle clip-path="url(#clip461)" cx="2223.18" cy="232.956" r="10.8" fill="#4682b4" fill-rule="evenodd" fill-opacity="0.6" stroke="#000000" stroke-opacity="0.6" stroke-width="3.84"/>
<circle clip-path="url(#clip461)" cx="2261.85" cy="240.094" r="10.8" fill="#4682b4" fill-rule="evenodd" fill-opacity="0.6" stroke="#000000" stroke-opacity="0.6" stroke-width="3.84"/>
<circle clip-path="url(#clip461)" cx="2300.51" cy="228.551" r="10.8" fill="#4682b4" fill-rule="evenodd" fill-opacity="0.6" stroke="#000000" stroke-opacity="0.6" stroke-width="3.84"/>
<circle clip-path="url(#clip461)" cx="2339.18" cy="205.221" r="10.8" fill="#4682b4" fill-rule="evenodd" fill-opacity="0.6" stroke="#000000" stroke-opacity="0.6" stroke-width="3.84"/>
<circle clip-path="url(#clip461)" cx="2377.84" cy="267.923" r="10.8" fill="#4682b4" fill-rule="evenodd" fill-opacity="0.6" stroke="#000000" stroke-opacity="0.6" stroke-width="3.84"/>
<circle clip-path="url(#clip461)" cx="2416.5" cy="210.939" r="10.8" fill="#4682b4" fill-rule="evenodd" fill-opacity="0.6" stroke="#000000" stroke-opacity="0.6" stroke-width="3.84"/>
<circle clip-path="url(#clip461)" cx="2455.17" cy="241.023" r="10.8" fill="#4682b4" fill-rule="evenodd" fill-opacity="0.6" stroke="#000000" stroke-opacity="0.6" stroke-width="3.84"/>
<circle clip-path="url(#clip461)" cx="2493.83" cy="173.254" r="10.8" fill="#4682b4" fill-rule="evenodd" fill-opacity="0.6" stroke="#000000" stroke-opacity="0.6" stroke-width="3.84"/>
<circle clip-path="url(#clip461)" cx="2532.5" cy="222.988" r="10.8" fill="#4682b4" fill-rule="evenodd" fill-opacity="0.6" stroke="#000000" stroke-opacity="0.6" stroke-width="3.84"/>
<circle clip-path="url(#clip461)" cx="2571.16" cy="226.72" r="10.8" fill="#4682b4" fill-rule="evenodd" fill-opacity="0.6" stroke="#000000" stroke-opacity="0.6" stroke-width="3.84"/>
<circle clip-path="url(#clip461)" cx="251.315" cy="1386.02" r="10.8" fill="#ff7f50" fill-rule="evenodd" fill-opacity="0.6" stroke="#000000" stroke-opacity="0.6" stroke-width="3.84"/>
<circle clip-path="url(#clip461)" cx="289.979" cy="1422.21" r="10.8" fill="#ff7f50" fill-rule="evenodd" fill-opacity="0.6" stroke="#000000" stroke-opacity="0.6" stroke-width="3.84"/>
<circle clip-path="url(#clip461)" cx="328.643" cy="1406.21" r="10.8" fill="#ff7f50" fill-rule="evenodd" fill-opacity="0.6" stroke="#000000" stroke-opacity="0.6" stroke-width="3.84"/>
<circle clip-path="url(#clip461)" cx="367.307" cy="1452.98" r="10.8" fill="#ff7f50" fill-rule="evenodd" fill-opacity="0.6" stroke="#000000" stroke-opacity="0.6" stroke-width="3.84"/>
<circle clip-path="url(#clip461)" cx="405.971" cy="1467.62" r="10.8" fill="#ff7f50" fill-rule="evenodd" fill-opacity="0.6" stroke="#000000" stroke-opacity="0.6" stroke-width="3.84"/>
<circle clip-path="url(#clip461)" cx="444.635" cy="1458.64" r="10.8" fill="#ff7f50" fill-rule="evenodd" fill-opacity="0.6" stroke="#000000" stroke-opacity="0.6" stroke-width="3.84"/>
<circle clip-path="url(#clip461)" cx="483.299" cy="1495.14" r="10.8" fill="#ff7f50" fill-rule="evenodd" fill-opacity="0.6" stroke="#000000" stroke-opacity="0.6" stroke-width="3.84"/>
<circle clip-path="url(#clip461)" cx="521.964" cy="1516.52" r="10.8" fill="#ff7f50" fill-rule="evenodd" fill-opacity="0.6" stroke="#000000" stroke-opacity="0.6" stroke-width="3.84"/>
<circle clip-path="url(#clip461)" cx="560.628" cy="1482.12" r="10.8" fill="#ff7f50" fill-rule="evenodd" fill-opacity="0.6" stroke="#000000" stroke-opacity="0.6" stroke-width="3.84"/>
<circle clip-path="url(#clip461)" cx="599.292" cy="1517.37" r="10.8" fill="#ff7f50" fill-rule="evenodd" fill-opacity="0.6" stroke="#000000" stroke-opacity="0.6" stroke-width="3.84"/>
<circle clip-path="url(#clip461)" cx="637.956" cy="1507" r="10.8" fill="#ff7f50" fill-rule="evenodd" fill-opacity="0.6" stroke="#000000" stroke-opacity="0.6" stroke-width="3.84"/>
<circle clip-path="url(#clip461)" cx="676.62" cy="1529.71" r="10.8" fill="#ff7f50" fill-rule="evenodd" fill-opacity="0.6" stroke="#000000" stroke-opacity="0.6" stroke-width="3.84"/>
<circle clip-path="url(#clip461)" cx="715.284" cy="1553.42" r="10.8" fill="#ff7f50" fill-rule="evenodd" fill-opacity="0.6" stroke="#000000" stroke-opacity="0.6" stroke-width="3.84"/>
<circle clip-path="url(#clip461)" cx="753.948" cy="1538.14" r="10.8" fill="#ff7f50" fill-rule="evenodd" fill-opacity="0.6" stroke="#000000" stroke-opacity="0.6" stroke-width="3.84"/>
<circle clip-path="url(#clip461)" cx="792.612" cy="1578.8" r="10.8" fill="#ff7f50" fill-rule="evenodd" fill-opacity="0.6" stroke="#000000" stroke-opacity="0.6" stroke-width="3.84"/>
<circle clip-path="url(#clip461)" cx="831.276" cy="1557.62" r="10.8" fill="#ff7f50" fill-rule="evenodd" fill-opacity="0.6" stroke="#000000" stroke-opacity="0.6" stroke-width="3.84"/>
<circle clip-path="url(#clip461)" cx="869.94" cy="1575.04" r="10.8" fill="#ff7f50" fill-rule="evenodd" fill-opacity="0.6" stroke="#000000" stroke-opacity="0.6" stroke-width="3.84"/>
<circle clip-path="url(#clip461)" cx="908.604" cy="1564.7" r="10.8" fill="#ff7f50" fill-rule="evenodd" fill-opacity="0.6" stroke="#000000" stroke-opacity="0.6" stroke-width="3.84"/>
<circle clip-path="url(#clip461)" cx="947.269" cy="1560.84" r="10.8" fill="#ff7f50" fill-rule="evenodd" fill-opacity="0.6" stroke="#000000" stroke-opacity="0.6" stroke-width="3.84"/>
<circle clip-path="url(#clip461)" cx="985.933" cy="1613.49" r="10.8" fill="#ff7f50" fill-rule="evenodd" fill-opacity="0.6" stroke="#000000" stroke-opacity="0.6" stroke-width="3.84"/>
<circle clip-path="url(#clip461)" cx="1024.6" cy="1600.16" r="10.8" fill="#ff7f50" fill-rule="evenodd" fill-opacity="0.6" stroke="#000000" stroke-opacity="0.6" stroke-width="3.84"/>
<circle clip-path="url(#clip461)" cx="1063.26" cy="1602.38" r="10.8" fill="#ff7f50" fill-rule="evenodd" fill-opacity="0.6" stroke="#000000" stroke-opacity="0.6" stroke-width="3.84"/>
<circle clip-path="url(#clip461)" cx="1101.92" cy="1602.1" r="10.8" fill="#ff7f50" fill-rule="evenodd" fill-opacity="0.6" stroke="#000000" stroke-opacity="0.6" stroke-width="3.84"/>
<circle clip-path="url(#clip461)" cx="1140.59" cy="1608.51" r="10.8" fill="#ff7f50" fill-rule="evenodd" fill-opacity="0.6" stroke="#000000" stroke-opacity="0.6" stroke-width="3.84"/>
<circle clip-path="url(#clip461)" cx="1179.25" cy="1620.48" r="10.8" fill="#ff7f50" fill-rule="evenodd" fill-opacity="0.6" stroke="#000000" stroke-opacity="0.6" stroke-width="3.84"/>
<circle clip-path="url(#clip461)" cx="1217.92" cy="1603.82" r="10.8" fill="#ff7f50" fill-rule="evenodd" fill-opacity="0.6" stroke="#000000" stroke-opacity="0.6" stroke-width="3.84"/>
<circle clip-path="url(#clip461)" cx="1256.58" cy="1612.8" r="10.8" fill="#ff7f50" fill-rule="evenodd" fill-opacity="0.6" stroke="#000000" stroke-opacity="0.6" stroke-width="3.84"/>
<circle clip-path="url(#clip461)" cx="1295.25" cy="1604.63" r="10.8" fill="#ff7f50" fill-rule="evenodd" fill-opacity="0.6" stroke="#000000" stroke-opacity="0.6" stroke-width="3.84"/>
<circle clip-path="url(#clip461)" cx="1333.91" cy="1629.59" r="10.8" fill="#ff7f50" fill-rule="evenodd" fill-opacity="0.6" stroke="#000000" stroke-opacity="0.6" stroke-width="3.84"/>
<circle clip-path="url(#clip461)" cx="1372.57" cy="1606.19" r="10.8" fill="#ff7f50" fill-rule="evenodd" fill-opacity="0.6" stroke="#000000" stroke-opacity="0.6" stroke-width="3.84"/>
<circle clip-path="url(#clip461)" cx="1411.24" cy="1604.78" r="10.8" fill="#ff7f50" fill-rule="evenodd" fill-opacity="0.6" stroke="#000000" stroke-opacity="0.6" stroke-width="3.84"/>
<circle clip-path="url(#clip461)" cx="1449.9" cy="1672.22" r="10.8" fill="#ff7f50" fill-rule="evenodd" fill-opacity="0.6" stroke="#000000" stroke-opacity="0.6" stroke-width="3.84"/>
<circle clip-path="url(#clip461)" cx="1488.57" cy="1640.05" r="10.8" fill="#ff7f50" fill-rule="evenodd" fill-opacity="0.6" stroke="#000000" stroke-opacity="0.6" stroke-width="3.84"/>
<circle clip-path="url(#clip461)" cx="1527.23" cy="1635.5" r="10.8" fill="#ff7f50" fill-rule="evenodd" fill-opacity="0.6" stroke="#000000" stroke-opacity="0.6" stroke-width="3.84"/>
<circle clip-path="url(#clip461)" cx="1565.89" cy="1635.37" r="10.8" fill="#ff7f50" fill-rule="evenodd" fill-opacity="0.6" stroke="#000000" stroke-opacity="0.6" stroke-width="3.84"/>
<circle clip-path="url(#clip461)" cx="1604.56" cy="1648.48" r="10.8" fill="#ff7f50" fill-rule="evenodd" fill-opacity="0.6" stroke="#000000" stroke-opacity="0.6" stroke-width="3.84"/>
<circle clip-path="url(#clip461)" cx="1643.22" cy="1633.02" r="10.8" fill="#ff7f50" fill-rule="evenodd" fill-opacity="0.6" stroke="#000000" stroke-opacity="0.6" stroke-width="3.84"/>
<circle clip-path="url(#clip461)" cx="1681.89" cy="1650.39" r="10.8" fill="#ff7f50" fill-rule="evenodd" fill-opacity="0.6" stroke="#000000" stroke-opacity="0.6" stroke-width="3.84"/>
<circle clip-path="url(#clip461)" cx="1720.55" cy="1660.29" r="10.8" fill="#ff7f50" fill-rule="evenodd" fill-opacity="0.6" stroke="#000000" stroke-opacity="0.6" stroke-width="3.84"/>
<circle clip-path="url(#clip461)" cx="1759.21" cy="1639.99" r="10.8" fill="#ff7f50" fill-rule="evenodd" fill-opacity="0.6" stroke="#000000" stroke-opacity="0.6" stroke-width="3.84"/>
<circle clip-path="url(#clip461)" cx="1797.88" cy="1652.5" r="10.8" fill="#ff7f50" fill-rule="evenodd" fill-opacity="0.6" stroke="#000000" stroke-opacity="0.6" stroke-width="3.84"/>
<circle clip-path="url(#clip461)" cx="1836.54" cy="1640.08" r="10.8" fill="#ff7f50" fill-rule="evenodd" fill-opacity="0.6" stroke="#000000" stroke-opacity="0.6" stroke-width="3.84"/>
<circle clip-path="url(#clip461)" cx="1875.21" cy="1662.59" r="10.8" fill="#ff7f50" fill-rule="evenodd" fill-opacity="0.6" stroke="#000000" stroke-opacity="0.6" stroke-width="3.84"/>
<circle clip-path="url(#clip461)" cx="1913.87" cy="1668.37" r="10.8" fill="#ff7f50" fill-rule="evenodd" fill-opacity="0.6" stroke="#000000" stroke-opacity="0.6" stroke-width="3.84"/>
<circle clip-path="url(#clip461)" cx="1952.54" cy="1677.25" r="10.8" fill="#ff7f50" fill-rule="evenodd" fill-opacity="0.6" stroke="#000000" stroke-opacity="0.6" stroke-width="3.84"/>
<circle clip-path="url(#clip461)" cx="1991.2" cy="1655.25" r="10.8" fill="#ff7f50" fill-rule="evenodd" fill-opacity="0.6" stroke="#000000" stroke-opacity="0.6" stroke-width="3.84"/>
<circle clip-path="url(#clip461)" cx="2029.86" cy="1630.34" r="10.8" fill="#ff7f50" fill-rule="evenodd" fill-opacity="0.6" stroke="#000000" stroke-opacity="0.6" stroke-width="3.84"/>
<circle clip-path="url(#clip461)" cx="2068.53" cy="1641.85" r="10.8" fill="#ff7f50" fill-rule="evenodd" fill-opacity="0.6" stroke="#000000" stroke-opacity="0.6" stroke-width="3.84"/>
<circle clip-path="url(#clip461)" cx="2107.19" cy="1676.3" r="10.8" fill="#ff7f50" fill-rule="evenodd" fill-opacity="0.6" stroke="#000000" stroke-opacity="0.6" stroke-width="3.84"/>
<circle clip-path="url(#clip461)" cx="2145.86" cy="1656.13" r="10.8" fill="#ff7f50" fill-rule="evenodd" fill-opacity="0.6" stroke="#000000" stroke-opacity="0.6" stroke-width="3.84"/>
<circle clip-path="url(#clip461)" cx="2184.52" cy="1662.29" r="10.8" fill="#ff7f50" fill-rule="evenodd" fill-opacity="0.6" stroke="#000000" stroke-opacity="0.6" stroke-width="3.84"/>
<circle clip-path="url(#clip461)" cx="2223.18" cy="1679.86" r="10.8" fill="#ff7f50" fill-rule="evenodd" fill-opacity="0.6" stroke="#000000" stroke-opacity="0.6" stroke-width="3.84"/>
<circle clip-path="url(#clip461)" cx="2261.85" cy="1682.93" r="10.8" fill="#ff7f50" fill-rule="evenodd" fill-opacity="0.6" stroke="#000000" stroke-opacity="0.6" stroke-width="3.84"/>
<circle clip-path="url(#clip461)" cx="2300.51" cy="1688.65" r="10.8" fill="#ff7f50" fill-rule="evenodd" fill-opacity="0.6" stroke="#000000" stroke-opacity="0.6" stroke-width="3.84"/>
<circle clip-path="url(#clip461)" cx="2339.18" cy="1671.86" r="10.8" fill="#ff7f50" fill-rule="evenodd" fill-opacity="0.6" stroke="#000000" stroke-opacity="0.6" stroke-width="3.84"/>
<circle clip-path="url(#clip461)" cx="2377.84" cy="1680.68" r="10.8" fill="#ff7f50" fill-rule="evenodd" fill-opacity="0.6" stroke="#000000" stroke-opacity="0.6" stroke-width="3.84"/>
<circle clip-path="url(#clip461)" cx="2416.5" cy="1673.49" r="10.8" fill="#ff7f50" fill-rule="evenodd" fill-opacity="0.6" stroke="#000000" stroke-opacity="0.6" stroke-width="3.84"/>
<circle clip-path="url(#clip461)" cx="2455.17" cy="1676.35" r="10.8" fill="#ff7f50" fill-rule="evenodd" fill-opacity="0.6" stroke="#000000" stroke-opacity="0.6" stroke-width="3.84"/>
<circle clip-path="url(#clip461)" cx="2493.83" cy="1674.86" r="10.8" fill="#ff7f50" fill-rule="evenodd" fill-opacity="0.6" stroke="#000000" stroke-opacity="0.6" stroke-width="3.84"/>
<circle clip-path="url(#clip461)" cx="2532.5" cy="1628.98" r="10.8" fill="#ff7f50" fill-rule="evenodd" fill-opacity="0.6" stroke="#000000" stroke-opacity="0.6" stroke-width="3.84"/>
<circle clip-path="url(#clip461)" cx="2571.16" cy="1688.65" r="10.8" fill="#ff7f50" fill-rule="evenodd" fill-opacity="0.6" stroke="#000000" stroke-opacity="0.6" stroke-width="3.84"/>
<polyline clip-path="url(#clip461)" style="stroke:#4682b4; stroke-linecap:round; stroke-linejoin:round; stroke-width:8; stroke-opacity:1; fill:none" stroke-dasharray="32, 20" points="251.315,1093.28 289.979,1069.59 328.643,1042.57 367.307,1012.52 405.971,979.812 444.635,944.827 483.299,908.009 521.964,869.838 560.628,830.812 599.292,791.431 637.956,752.188 676.62,713.548 715.284,675.923 753.948,639.663 792.612,605.059 831.276,572.336 869.94,541.644 908.604,513.06 947.269,486.611 985.933,462.283 1024.6,440.014 1063.26,419.669 1101.92,401.14 1140.59,384.347 1179.25,369.19 1217.92,355.549 1256.58,343.283 1295.25,332.23 1333.91,322.208 1372.57,313.078 1411.24,304.809 1449.9,297.317 1488.57,290.524 1527.23,284.349 1565.89,278.715 1604.56,273.544 1643.22,268.784 1681.89,264.412 1720.55,260.401 1759.21,256.721 1797.88,253.336 1836.54,250.209 1875.21,247.297 1913.87,244.555 1952.54,241.979 1991.2,239.567 2029.86,237.312 2068.53,235.201 2107.19,233.225 2145.86,231.371 2184.52,229.625 2223.18,227.973 2261.85,226.404 2300.51,224.919 2339.18,223.513 2377.84,222.184 2416.5,220.927 2455.17,219.736 2493.83,218.608 2532.5,217.537 2571.16,216.517 "/>
<polyline clip-path="url(#clip461)" style="stroke:#ff7f50; stroke-linecap:round; stroke-linejoin:round; stroke-width:8; stroke-opacity:1; fill:none" stroke-dasharray="32, 20" points="251.315,1392.46 289.979,1411.61 328.643,1429.24 367.307,1445.47 405.971,1460.41 444.635,1474.17 483.299,1486.87 521.964,1498.59 560.628,1509.43 599.292,1519.48 637.956,1528.8 676.62,1537.47 715.284,1545.56 753.948,1553.1 792.612,1560.17 831.276,1566.79 869.94,1573.01 908.604,1578.86 947.269,1584.36 985.933,1589.56 1024.6,1594.47 1063.26,1599.11 1101.92,1603.51 1140.59,1607.68 1179.25,1611.62 1217.92,1615.37 1256.58,1618.93 1295.25,1622.31 1333.91,1625.53 1372.57,1628.58 1411.24,1631.49 1449.9,1634.26 1488.57,1636.9 1527.23,1639.41 1565.89,1641.8 1604.56,1644.08 1643.22,1646.25 1681.89,1648.33 1720.55,1650.3 1759.21,1652.18 1797.88,1653.98 1836.54,1655.69 1875.21,1657.32 1913.87,1658.88 1952.54,1660.36 1991.2,1661.78 2029.86,1663.13 2068.53,1664.42 2107.19,1665.66 2145.86,1666.83 2184.52,1667.95 2223.18,1669.02 2261.85,1670.04 2300.51,1671.02 2339.18,1671.95 2377.84,1672.84 2416.5,1673.69 2455.17,1674.5 2493.83,1675.27 2532.5,1676.01 2571.16,1676.71 "/>
<path clip-path="url(#clip460)" d="M263.687 440.536 L783.108 440.536 L783.108 181.336 L263.687 181.336  Z" fill="#ffffff" fill-rule="evenodd" fill-opacity="1"/>
<polyline clip-path="url(#clip460)" style="stroke:#000000; stroke-linecap:round; stroke-linejoin:round; stroke-width:4; stroke-opacity:1; fill:none" points="263.687,440.536 783.108,440.536 783.108,181.336 263.687,181.336 263.687,440.536 "/>
<circle clip-path="url(#clip460)" cx="372.978" cy="233.176" r="19.7486" fill="#4682b4" fill-rule="evenodd" fill-opacity="0.6" stroke="#000000" stroke-opacity="0.6" stroke-width="7.02171"/>
<path clip-path="url(#clip460)" d="M486.944 219.739 L486.944 232.725 L492.824 232.725 Q496.088 232.725 497.87 231.035 Q499.653 229.345 499.653 226.22 Q499.653 223.118 497.87 221.429 Q496.088 219.739 492.824 219.739 L486.944 219.739 M482.268 215.896 L492.824 215.896 Q498.634 215.896 501.597 218.535 Q504.583 221.151 504.583 226.22 Q504.583 231.336 501.597 233.952 Q498.634 236.567 492.824 236.567 L486.944 236.567 L486.944 250.456 L482.268 250.456 L482.268 215.896 Z" fill="#000000" fill-rule="nonzero" fill-opacity="1" /><path clip-path="url(#clip460)" d="M524.861 228.512 Q524.143 228.095 523.287 227.91 Q522.453 227.702 521.435 227.702 Q517.824 227.702 515.879 230.063 Q513.958 232.401 513.958 236.799 L513.958 250.456 L509.676 250.456 L509.676 224.531 L513.958 224.531 L513.958 228.558 Q515.301 226.197 517.453 225.063 Q519.606 223.906 522.685 223.906 Q523.125 223.906 523.657 223.975 Q524.189 224.021 524.838 224.137 L524.861 228.512 Z" fill="#000000" fill-rule="nonzero" fill-opacity="1" /><path clip-path="url(#clip460)" d="M550.462 236.429 L550.462 238.512 L530.879 238.512 Q531.157 242.91 533.518 245.225 Q535.902 247.516 540.138 247.516 Q542.592 247.516 544.884 246.915 Q547.199 246.313 549.467 245.109 L549.467 249.137 Q547.175 250.109 544.768 250.618 Q542.361 251.128 539.884 251.128 Q533.68 251.128 530.046 247.516 Q526.435 243.905 526.435 237.748 Q526.435 231.382 529.861 227.655 Q533.31 223.906 539.143 223.906 Q544.375 223.906 547.407 227.285 Q550.462 230.642 550.462 236.429 M546.203 235.179 Q546.157 231.683 544.236 229.6 Q542.338 227.517 539.189 227.517 Q535.625 227.517 533.472 229.53 Q531.342 231.544 531.018 235.202 L546.203 235.179 Z" fill="#000000" fill-rule="nonzero" fill-opacity="1" /><path clip-path="url(#clip460)" d="M568.24 252.864 Q566.435 257.493 564.722 258.905 Q563.009 260.317 560.138 260.317 L556.736 260.317 L556.736 256.753 L559.236 256.753 Q560.995 256.753 561.967 255.919 Q562.939 255.086 564.12 251.984 L564.884 250.04 L554.398 224.531 L558.911 224.531 L567.013 244.808 L575.115 224.531 L579.629 224.531 L568.24 252.864 Z" fill="#000000" fill-rule="nonzero" fill-opacity="1" /><path clip-path="url(#clip460)" d="M610.809 214.484 Q607.708 219.808 606.203 225.017 Q604.698 230.225 604.698 235.572 Q604.698 240.919 606.203 246.174 Q607.731 251.405 610.809 256.706 L607.106 256.706 Q603.633 251.266 601.897 246.012 Q600.184 240.757 600.184 235.572 Q600.184 230.41 601.897 225.179 Q603.61 219.947 607.106 214.484 L610.809 214.484 Z" fill="#000000" fill-rule="nonzero" fill-opacity="1" /><path clip-path="url(#clip460)" d="M619.258 215.896 L623.934 215.896 L623.934 230.063 L640.925 230.063 L640.925 215.896 L645.601 215.896 L645.601 250.456 L640.925 250.456 L640.925 233.998 L623.934 233.998 L623.934 250.456 L619.258 250.456 L619.258 215.896 Z" fill="#000000" fill-rule="nonzero" fill-opacity="1" /><path clip-path="url(#clip460)" d="M654.05 214.484 L657.754 214.484 Q661.226 219.947 662.939 225.179 Q664.675 230.41 664.675 235.572 Q664.675 240.757 662.939 246.012 Q661.226 251.266 657.754 256.706 L654.05 256.706 Q657.129 251.405 658.633 246.174 Q660.161 240.919 660.161 235.572 Q660.161 230.225 658.633 225.017 Q657.129 219.808 654.05 214.484 Z" fill="#000000" fill-rule="nonzero" fill-opacity="1" /><circle clip-path="url(#clip460)" cx="372.978" cy="285.016" r="19.7486" fill="#ff7f50" fill-rule="evenodd" fill-opacity="0.6" stroke="#000000" stroke-opacity="0.6" stroke-width="7.02171"/>
<path clip-path="url(#clip460)" d="M486.944 271.579 L486.944 284.565 L492.824 284.565 Q496.088 284.565 497.87 282.875 Q499.653 281.185 499.653 278.06 Q499.653 274.958 497.87 273.269 Q496.088 271.579 492.824 271.579 L486.944 271.579 M482.268 267.736 L492.824 267.736 Q498.634 267.736 501.597 270.375 Q504.583 272.991 504.583 278.06 Q504.583 283.176 501.597 285.792 Q498.634 288.407 492.824 288.407 L486.944 288.407 L486.944 302.296 L482.268 302.296 L482.268 267.736 Z" fill="#000000" fill-rule="nonzero" fill-opacity="1" /><path clip-path="url(#clip460)" d="M524.861 280.352 Q524.143 279.935 523.287 279.75 Q522.453 279.542 521.435 279.542 Q517.824 279.542 515.879 281.903 Q513.958 284.241 513.958 288.639 L513.958 302.296 L509.676 302.296 L509.676 276.371 L513.958 276.371 L513.958 280.398 Q515.301 278.037 517.453 276.903 Q519.606 275.746 522.685 275.746 Q523.125 275.746 523.657 275.815 Q524.189 275.861 524.838 275.977 L524.861 280.352 Z" fill="#000000" fill-rule="nonzero" fill-opacity="1" /><path clip-path="url(#clip460)" d="M550.462 288.269 L550.462 290.352 L530.879 290.352 Q531.157 294.75 533.518 297.065 Q535.902 299.356 540.138 299.356 Q542.592 299.356 544.884 298.755 Q547.199 298.153 549.467 296.949 L549.467 300.977 Q547.175 301.949 544.768 302.458 Q542.361 302.968 539.884 302.968 Q533.68 302.968 530.046 299.356 Q526.435 295.745 526.435 289.588 Q526.435 283.222 529.861 279.495 Q533.31 275.746 539.143 275.746 Q544.375 275.746 547.407 279.125 Q550.462 282.482 550.462 288.269 M546.203 287.019 Q546.157 283.523 544.236 281.44 Q542.338 279.357 539.189 279.357 Q535.625 279.357 533.472 281.37 Q531.342 283.384 531.018 287.042 L546.203 287.019 Z" fill="#000000" fill-rule="nonzero" fill-opacity="1" /><path clip-path="url(#clip460)" d="M574.513 280.306 L574.513 266.278 L578.773 266.278 L578.773 302.296 L574.513 302.296 L574.513 298.407 Q573.171 300.722 571.111 301.856 Q569.073 302.968 566.203 302.968 Q561.504 302.968 558.541 299.218 Q555.601 295.468 555.601 289.357 Q555.601 283.245 558.541 279.495 Q561.504 275.746 566.203 275.746 Q569.073 275.746 571.111 276.88 Q573.171 277.991 574.513 280.306 M559.999 289.357 Q559.999 294.056 561.921 296.741 Q563.865 299.403 567.245 299.403 Q570.624 299.403 572.569 296.741 Q574.513 294.056 574.513 289.357 Q574.513 284.657 572.569 281.995 Q570.624 279.31 567.245 279.31 Q563.865 279.31 561.921 281.995 Q559.999 284.657 559.999 289.357 Z" fill="#000000" fill-rule="nonzero" fill-opacity="1" /><path clip-path="url(#clip460)" d="M599.328 289.264 Q594.166 289.264 592.175 290.444 Q590.184 291.625 590.184 294.472 Q590.184 296.741 591.666 298.083 Q593.171 299.403 595.74 299.403 Q599.282 299.403 601.411 296.903 Q603.564 294.38 603.564 290.213 L603.564 289.264 L599.328 289.264 M607.823 287.505 L607.823 302.296 L603.564 302.296 L603.564 298.361 Q602.106 300.722 599.93 301.856 Q597.754 302.968 594.606 302.968 Q590.624 302.968 588.263 300.745 Q585.925 298.5 585.925 294.75 Q585.925 290.375 588.842 288.153 Q591.782 285.931 597.592 285.931 L603.564 285.931 L603.564 285.514 Q603.564 282.574 601.62 280.977 Q599.698 279.357 596.203 279.357 Q593.981 279.357 591.874 279.889 Q589.768 280.421 587.823 281.486 L587.823 277.551 Q590.161 276.648 592.36 276.208 Q594.559 275.746 596.643 275.746 Q602.268 275.746 605.046 278.662 Q607.823 281.579 607.823 287.505 Z" fill="#000000" fill-rule="nonzero" fill-opacity="1" /><path clip-path="url(#clip460)" d="M620.809 269.009 L620.809 276.371 L629.582 276.371 L629.582 279.681 L620.809 279.681 L620.809 293.755 Q620.809 296.926 621.666 297.829 Q622.545 298.731 625.207 298.731 L629.582 298.731 L629.582 302.296 L625.207 302.296 Q620.277 302.296 618.402 300.468 Q616.527 298.616 616.527 293.755 L616.527 279.681 L613.402 279.681 L613.402 276.371 L616.527 276.371 L616.527 269.009 L620.809 269.009 Z" fill="#000000" fill-rule="nonzero" fill-opacity="1" /><path clip-path="url(#clip460)" d="M645.23 279.357 Q641.805 279.357 639.814 282.042 Q637.823 284.704 637.823 289.357 Q637.823 294.009 639.791 296.694 Q641.781 299.356 645.23 299.356 Q648.633 299.356 650.624 296.671 Q652.615 293.986 652.615 289.357 Q652.615 284.75 650.624 282.065 Q648.633 279.357 645.23 279.357 M645.23 275.746 Q650.786 275.746 653.957 279.357 Q657.129 282.968 657.129 289.357 Q657.129 295.722 653.957 299.356 Q650.786 302.968 645.23 302.968 Q639.652 302.968 636.481 299.356 Q633.332 295.722 633.332 289.357 Q633.332 282.968 636.481 279.357 Q639.652 275.746 645.23 275.746 Z" fill="#000000" fill-rule="nonzero" fill-opacity="1" /><path clip-path="url(#clip460)" d="M679.212 280.352 Q678.494 279.935 677.638 279.75 Q676.804 279.542 675.786 279.542 Q672.175 279.542 670.23 281.903 Q668.309 284.241 668.309 288.639 L668.309 302.296 L664.027 302.296 L664.027 276.371 L668.309 276.371 L668.309 280.398 Q669.652 278.037 671.804 276.903 Q673.957 275.746 677.036 275.746 Q677.476 275.746 678.008 275.815 Q678.54 275.861 679.189 275.977 L679.212 280.352 Z" fill="#000000" fill-rule="nonzero" fill-opacity="1" /><path clip-path="url(#clip460)" d="M708.98 266.324 Q705.878 271.648 704.374 276.857 Q702.869 282.065 702.869 287.412 Q702.869 292.759 704.374 298.014 Q705.901 303.245 708.98 308.546 L705.276 308.546 Q701.804 303.106 700.068 297.852 Q698.355 292.597 698.355 287.412 Q698.355 282.25 700.068 277.019 Q701.781 271.787 705.276 266.324 L708.98 266.324 Z" fill="#000000" fill-rule="nonzero" fill-opacity="1" /><path clip-path="url(#clip460)" d="M722.105 271.579 L722.105 284.565 L727.985 284.565 Q731.249 284.565 733.031 282.875 Q734.813 281.185 734.813 278.06 Q734.813 274.958 733.031 273.269 Q731.249 271.579 727.985 271.579 L722.105 271.579 M717.429 267.736 L727.985 267.736 Q733.795 267.736 736.758 270.375 Q739.744 272.991 739.744 278.06 Q739.744 283.176 736.758 285.792 Q733.795 288.407 727.985 288.407 L722.105 288.407 L722.105 302.296 L717.429 302.296 L717.429 267.736 Z" fill="#000000" fill-rule="nonzero" fill-opacity="1" /><path clip-path="url(#clip460)" d="M745.16 266.324 L748.864 266.324 Q752.336 271.787 754.049 277.019 Q755.785 282.25 755.785 287.412 Q755.785 292.597 754.049 297.852 Q752.336 303.106 748.864 308.546 L745.16 308.546 Q748.239 303.245 749.744 298.014 Q751.272 292.759 751.272 287.412 Q751.272 282.065 749.744 276.857 Q748.239 271.648 745.16 266.324 Z" fill="#000000" fill-rule="nonzero" fill-opacity="1" /><polyline clip-path="url(#clip460)" style="stroke:#4682b4; stroke-linecap:round; stroke-linejoin:round; stroke-width:8; stroke-opacity:1; fill:none" stroke-dasharray="32, 20" points="291.01,336.856 454.946,336.856 "/>
<path clip-path="url(#clip460)" d="M482.268 319.576 L511.504 319.576 L511.504 323.511 L499.236 323.511 L499.236 354.136 L494.537 354.136 L494.537 323.511 L482.268 323.511 L482.268 319.576 Z" fill="#000000" fill-rule="nonzero" fill-opacity="1" /><path clip-path="url(#clip460)" d="M523.889 332.192 Q523.171 331.775 522.314 331.59 Q521.481 331.382 520.463 331.382 Q516.852 331.382 514.907 333.743 Q512.986 336.081 512.986 340.479 L512.986 354.136 L508.703 354.136 L508.703 328.211 L512.986 328.211 L512.986 332.238 Q514.328 329.877 516.481 328.743 Q518.634 327.586 521.713 327.586 Q522.152 327.586 522.685 327.655 Q523.217 327.701 523.865 327.817 L523.889 332.192 Z" fill="#000000" fill-rule="nonzero" fill-opacity="1" /><path clip-path="url(#clip460)" d="M527.916 343.905 L527.916 328.211 L532.176 328.211 L532.176 343.743 Q532.176 347.423 533.611 349.275 Q535.046 351.104 537.916 351.104 Q541.365 351.104 543.356 348.905 Q545.37 346.706 545.37 342.909 L545.37 328.211 L549.629 328.211 L549.629 354.136 L545.37 354.136 L545.37 350.155 Q543.819 352.516 541.759 353.673 Q539.722 354.808 537.013 354.808 Q532.546 354.808 530.231 352.03 Q527.916 349.252 527.916 343.905 M538.634 327.586 L538.634 327.586 Z" fill="#000000" fill-rule="nonzero" fill-opacity="1" /><path clip-path="url(#clip460)" d="M580.578 340.109 L580.578 342.192 L560.995 342.192 Q561.273 346.59 563.634 348.905 Q566.018 351.196 570.254 351.196 Q572.708 351.196 574.999 350.595 Q577.314 349.993 579.583 348.789 L579.583 352.817 Q577.291 353.789 574.884 354.298 Q572.476 354.808 569.999 354.808 Q563.796 354.808 560.161 351.196 Q556.55 347.585 556.55 341.428 Q556.55 335.062 559.976 331.335 Q563.425 327.586 569.259 327.586 Q574.49 327.586 577.523 330.965 Q580.578 334.322 580.578 340.109 M576.319 338.859 Q576.273 335.363 574.351 333.28 Q572.453 331.197 569.305 331.197 Q565.74 331.197 563.587 333.21 Q561.458 335.224 561.134 338.882 L576.319 338.859 Z" fill="#000000" fill-rule="nonzero" fill-opacity="1" /><path clip-path="url(#clip460)" d="M602.823 319.576 L607.499 319.576 L607.499 333.743 L624.49 333.743 L624.49 319.576 L629.166 319.576 L629.166 354.136 L624.49 354.136 L624.49 337.678 L607.499 337.678 L607.499 354.136 L602.823 354.136 L602.823 319.576 Z" fill="#000000" fill-rule="nonzero" fill-opacity="1" /><polyline clip-path="url(#clip460)" style="stroke:#ff7f50; stroke-linecap:round; stroke-linejoin:round; stroke-width:8; stroke-opacity:1; fill:none" stroke-dasharray="32, 20" points="291.01,388.696 454.946,388.696 "/>
<path clip-path="url(#clip460)" d="M482.268 371.416 L511.504 371.416 L511.504 375.351 L499.236 375.351 L499.236 405.976 L494.537 405.976 L494.537 375.351 L482.268 375.351 L482.268 371.416 Z" fill="#000000" fill-rule="nonzero" fill-opacity="1" /><path clip-path="url(#clip460)" d="M523.889 384.032 Q523.171 383.615 522.314 383.43 Q521.481 383.222 520.463 383.222 Q516.852 383.222 514.907 385.583 Q512.986 387.921 512.986 392.319 L512.986 405.976 L508.703 405.976 L508.703 380.051 L512.986 380.051 L512.986 384.078 Q514.328 381.717 516.481 380.583 Q518.634 379.426 521.713 379.426 Q522.152 379.426 522.685 379.495 Q523.217 379.541 523.865 379.657 L523.889 384.032 Z" fill="#000000" fill-rule="nonzero" fill-opacity="1" /><path clip-path="url(#clip460)" d="M527.916 395.745 L527.916 380.051 L532.176 380.051 L532.176 395.583 Q532.176 399.263 533.611 401.115 Q535.046 402.944 537.916 402.944 Q541.365 402.944 543.356 400.745 Q545.37 398.546 545.37 394.749 L545.37 380.051 L549.629 380.051 L549.629 405.976 L545.37 405.976 L545.37 401.995 Q543.819 404.356 541.759 405.513 Q539.722 406.648 537.013 406.648 Q532.546 406.648 530.231 403.87 Q527.916 401.092 527.916 395.745 M538.634 379.426 L538.634 379.426 Z" fill="#000000" fill-rule="nonzero" fill-opacity="1" /><path clip-path="url(#clip460)" d="M580.578 391.949 L580.578 394.032 L560.995 394.032 Q561.273 398.43 563.634 400.745 Q566.018 403.036 570.254 403.036 Q572.708 403.036 574.999 402.435 Q577.314 401.833 579.583 400.629 L579.583 404.657 Q577.291 405.629 574.884 406.138 Q572.476 406.648 569.999 406.648 Q563.796 406.648 560.161 403.036 Q556.55 399.425 556.55 393.268 Q556.55 386.902 559.976 383.175 Q563.425 379.426 569.259 379.426 Q574.49 379.426 577.523 382.805 Q580.578 386.162 580.578 391.949 M576.319 390.699 Q576.273 387.203 574.351 385.12 Q572.453 383.037 569.305 383.037 Q565.74 383.037 563.587 385.05 Q561.458 387.064 561.134 390.722 L576.319 390.699 Z" fill="#000000" fill-rule="nonzero" fill-opacity="1" /><path clip-path="url(#clip460)" d="M607.499 375.259 L607.499 388.245 L613.379 388.245 Q616.643 388.245 618.425 386.555 Q620.207 384.865 620.207 381.74 Q620.207 378.638 618.425 376.949 Q616.643 375.259 613.379 375.259 L607.499 375.259 M602.823 371.416 L613.379 371.416 Q619.189 371.416 622.152 374.055 Q625.138 376.671 625.138 381.74 Q625.138 386.856 622.152 389.472 Q619.189 392.087 613.379 392.087 L607.499 392.087 L607.499 405.976 L602.823 405.976 L602.823 371.416 Z" fill="#000000" fill-rule="nonzero" fill-opacity="1" /></svg>
