<?xml version="1.0" encoding="utf-8"?>
<svg xmlns="http://www.w3.org/2000/svg" xmlns:xlink="http://www.w3.org/1999/xlink" width="672" height="480" viewBox="0 0 2688 1920">
<defs>
  <clipPath id="clip830">
    <rect x="0" y="0" width="2688" height="1920"/>
  </clipPath>
</defs>
<path clip-path="url(#clip830)" d="M0 1920 L2688 1920 L2688 -4.26326e-14 L0 -4.26326e-14  Z" fill="#ffffff" fill-rule="evenodd" fill-opacity="1"/>
<defs>
  <clipPath id="clip831">
    <rect x="225" y="127" width="2416" height="1607"/>
  </clipPath>
</defs>
<path clip-path="url(#clip830)" d="M225.816 1734.12 L2640.76 1734.12 L2640.76 127.792 L225.816 127.792  Z" fill="#ffffff" fill-rule="evenodd" fill-opacity="1"/>
<polyline clip-path="url(#clip831)" style="stroke:#000000; stroke-linecap:round; stroke-linejoin:round; stroke-width:2; stroke-opacity:0.1; fill:none" points="293.883,1734.12 293.883,127.792 "/>
<polyline clip-path="url(#clip831)" style="stroke:#000000; stroke-linecap:round; stroke-linejoin:round; stroke-width:2; stroke-opacity:0.1; fill:none" points="856.482,1734.12 856.482,127.792 "/>
<polyline clip-path="url(#clip831)" style="stroke:#000000; stroke-linecap:round; stroke-linejoin:round; stroke-width:2; stroke-opacity:0.1; fill:none" points="1419.08,1734.12 1419.08,127.792 "/>
<polyline clip-path="url(#clip831)" style="stroke:#000000; stroke-linecap:round; stroke-linejoin:round; stroke-width:2; stroke-opacity:0.1; fill:none" points="1981.68,1734.12 1981.68,127.792 "/>
<polyline clip-path="url(#clip831)" style="stroke:#000000; stroke-linecap:round; stroke-linejoin:round; stroke-width:2; stroke-opacity:0.1; fill:none" points="2544.28,1734.12 2544.28,127.792 "/>
<polyline clip-path="url(#clip831)" style="stroke:#000000; stroke-linecap:round; stroke-linejoin:round; stroke-width:2; stroke-opacity:0.1; fill:none" points="225.816,1416.7 2640.76,1416.7 "/>
<polyline clip-path="url(#clip831)" style="stroke:#000000; stroke-linecap:round; stroke-linejoin:round; stroke-width:2; stroke-opacity:0.1; fill:none" points="225.816,1050.13 2640.76,1050.13 "/>
<polyline clip-path="url(#clip831)" style="stroke:#000000; stroke-linecap:round; stroke-linejoin:round; stroke-width:2; stroke-opacity:0.1; fill:none" points="225.816,683.562 2640.76,683.562 "/>
<polyline clip-path="url(#clip831)" style="stroke:#000000; stroke-linecap:round; stroke-linejoin:round; stroke-width:2; stroke-opacity:0.1; fill:none" points="225.816,316.992 2640.76,316.992 "/>
<polyline clip-path="url(#clip830)" style="stroke:#000000; stroke-linecap:round; stroke-linejoin:round; stroke-width:4; stroke-opacity:1; fill:none" points="225.816,1734.12 2640.76,1734.12 "/>
<polyline clip-path="url(#clip830)" style="stroke:#000000; stroke-linecap:round; stroke-linejoin:round; stroke-width:4; stroke-opacity:1; fill:none" points="293.883,1734.12 293.883,1715.22 "/>
<polyline clip-path="url(#clip830)" style="stroke:#000000; stroke-linecap:round; stroke-linejoin:round; stroke-width:4; stroke-opacity:1; fill:none" points="856.482,1734.12 856.482,1715.22 "/>
<polyline clip-path="url(#clip830)" style="stroke:#000000; stroke-linecap:round; stroke-linejoin:round; stroke-width:4; stroke-opacity:1; fill:none" points="1419.08,1734.12 1419.08,1715.22 "/>
<polyline clip-path="url(#clip830)" style="stroke:#000000; stroke-linecap:round; stroke-linejoin:round; stroke-width:4; stroke-opacity:1; fill:none" points="1981.68,1734.12 1981.68,1715.22 "/>
<polyline clip-path="url(#clip830)" style="stroke:#000000; stroke-linecap:round; stroke-linejoin:round; stroke-width:4; stroke-opacity:1; fill:none" points="2544.28,1734.12 2544.28,1715.22 "/>
<path clip-path="url(#clip830)" d="M293.883 1767.34 Q290.271 1767.34 288.443 1770.9 Q286.637 1774.45 286.637 1781.58 Q286.637 1788.68 288.443 1792.25 Q290.271 1795.79 293.883 1795.79 Q297.517 1795.79 299.322 1792.25 Q301.151 1788.68 301.151 1781.58 Q301.151 1774.45 299.322 1770.9 Q297.517 1767.34 293.883 1767.34 M293.883 1763.64 Q299.693 1763.64 302.748 1768.24 Q305.827 1772.83 305.827 1781.58 Q305.827 1790.3 302.748 1794.91 Q299.693 1799.49 293.883 1799.49 Q288.072 1799.49 284.994 1794.91 Q281.938 1790.3 281.938 1781.58 Q281.938 1772.83 284.994 1768.24 Q288.072 1763.64 293.883 1763.64 Z" fill="#000000" fill-rule="nonzero" fill-opacity="1" /><path clip-path="url(#clip830)" d="M835.255 1794.89 L851.574 1794.89 L851.574 1798.82 L829.63 1798.82 L829.63 1794.89 Q832.292 1792.13 836.875 1787.5 Q841.482 1782.85 842.662 1781.51 Q844.908 1778.98 845.787 1777.25 Q846.69 1775.49 846.69 1773.8 Q846.69 1771.04 844.745 1769.31 Q842.824 1767.57 839.722 1767.57 Q837.523 1767.57 835.07 1768.34 Q832.639 1769.1 829.861 1770.65 L829.861 1765.93 Q832.685 1764.79 835.139 1764.21 Q837.593 1763.64 839.63 1763.64 Q845 1763.64 848.195 1766.32 Q851.389 1769.01 851.389 1773.5 Q851.389 1775.63 850.579 1777.55 Q849.792 1779.45 847.685 1782.04 Q847.107 1782.71 844.005 1785.93 Q840.903 1789.12 835.255 1794.89 Z" fill="#000000" fill-rule="nonzero" fill-opacity="1" /><path clip-path="url(#clip830)" d="M871.389 1767.34 Q867.778 1767.34 865.949 1770.9 Q864.144 1774.45 864.144 1781.58 Q864.144 1788.68 865.949 1792.25 Q867.778 1795.79 871.389 1795.79 Q875.023 1795.79 876.829 1792.25 Q878.657 1788.68 878.657 1781.58 Q878.657 1774.45 876.829 1770.9 Q875.023 1767.34 871.389 1767.34 M871.389 1763.64 Q877.199 1763.64 880.255 1768.24 Q883.333 1772.83 883.333 1781.58 Q883.333 1790.3 880.255 1794.91 Q877.199 1799.49 871.389 1799.49 Q865.579 1799.49 862.5 1794.91 Q859.444 1790.3 859.444 1781.58 Q859.444 1772.83 862.5 1768.24 Q865.579 1763.64 871.389 1763.64 Z" fill="#000000" fill-rule="nonzero" fill-opacity="1" /><path clip-path="url(#clip830)" d="M1407.25 1768.34 L1395.45 1786.78 L1407.25 1786.78 L1407.25 1768.34 M1406.03 1764.26 L1411.9 1764.26 L1411.9 1786.78 L1416.84 1786.78 L1416.84 1790.67 L1411.9 1790.67 L1411.9 1798.82 L1407.25 1798.82 L1407.25 1790.67 L1391.65 1790.67 L1391.65 1786.16 L1406.03 1764.26 Z" fill="#000000" fill-rule="nonzero" fill-opacity="1" /><path clip-path="url(#clip830)" d="M1434.57 1767.34 Q1430.96 1767.34 1429.13 1770.9 Q1427.32 1774.45 1427.32 1781.58 Q1427.32 1788.68 1429.13 1792.25 Q1430.96 1795.79 1434.57 1795.79 Q1438.2 1795.79 1440.01 1792.25 Q1441.84 1788.68 1441.84 1781.58 Q1441.84 1774.45 1440.01 1770.9 Q1438.2 1767.34 1434.57 1767.34 M1434.57 1763.64 Q1440.38 1763.64 1443.43 1768.24 Q1446.51 1772.83 1446.51 1781.58 Q1446.51 1790.3 1443.43 1794.91 Q1440.38 1799.49 1434.57 1799.49 Q1428.76 1799.49 1425.68 1794.91 Q1422.62 1790.3 1422.62 1781.58 Q1422.62 1772.83 1425.68 1768.24 Q1428.76 1763.64 1434.57 1763.64 Z" fill="#000000" fill-rule="nonzero" fill-opacity="1" /><path clip-path="url(#clip830)" d="M1967.08 1779.68 Q1963.94 1779.68 1962.08 1781.83 Q1960.26 1783.98 1960.26 1787.73 Q1960.26 1791.46 1962.08 1793.64 Q1963.94 1795.79 1967.08 1795.79 Q1970.23 1795.79 1972.06 1793.64 Q1973.91 1791.46 1973.91 1787.73 Q1973.91 1783.98 1972.06 1781.83 Q1970.23 1779.68 1967.08 1779.68 M1976.37 1765.02 L1976.37 1769.28 Q1974.61 1768.45 1972.8 1768.01 Q1971.02 1767.57 1969.26 1767.57 Q1964.63 1767.57 1962.18 1770.7 Q1959.75 1773.82 1959.4 1780.14 Q1960.77 1778.13 1962.83 1777.06 Q1964.89 1775.97 1967.36 1775.97 Q1972.57 1775.97 1975.58 1779.15 Q1978.61 1782.29 1978.61 1787.73 Q1978.61 1793.06 1975.46 1796.27 Q1972.32 1799.49 1967.08 1799.49 Q1961.09 1799.49 1957.92 1794.91 Q1954.75 1790.3 1954.75 1781.58 Q1954.75 1773.38 1958.64 1768.52 Q1962.52 1763.64 1969.08 1763.64 Q1970.83 1763.64 1972.62 1763.98 Q1974.42 1764.33 1976.37 1765.02 Z" fill="#000000" fill-rule="nonzero" fill-opacity="1" /><path clip-path="url(#clip830)" d="M1996.67 1767.34 Q1993.06 1767.34 1991.23 1770.9 Q1989.42 1774.45 1989.42 1781.58 Q1989.42 1788.68 1991.23 1792.25 Q1993.06 1795.79 1996.67 1795.79 Q2000.3 1795.79 2002.11 1792.25 Q2003.94 1788.68 2003.94 1781.58 Q2003.94 1774.45 2002.11 1770.9 Q2000.3 1767.34 1996.67 1767.34 M1996.67 1763.64 Q2002.48 1763.64 2005.53 1768.24 Q2008.61 1772.83 2008.61 1781.58 Q2008.61 1790.3 2005.53 1794.91 Q2002.48 1799.49 1996.67 1799.49 Q1990.86 1799.49 1987.78 1794.91 Q1984.72 1790.3 1984.72 1781.58 Q1984.72 1772.83 1987.78 1768.24 Q1990.86 1763.64 1996.67 1763.64 Z" fill="#000000" fill-rule="nonzero" fill-opacity="1" /><path clip-path="url(#clip830)" d="M2529.15 1782.41 Q2525.82 1782.41 2523.9 1784.19 Q2522 1785.97 2522 1789.1 Q2522 1792.22 2523.9 1794.01 Q2525.82 1795.79 2529.15 1795.79 Q2532.48 1795.79 2534.41 1794.01 Q2536.33 1792.2 2536.33 1789.1 Q2536.33 1785.97 2534.41 1784.19 Q2532.51 1782.41 2529.15 1782.41 M2524.48 1780.42 Q2521.47 1779.68 2519.78 1777.62 Q2518.11 1775.56 2518.11 1772.59 Q2518.11 1768.45 2521.05 1766.04 Q2524.01 1763.64 2529.15 1763.64 Q2534.31 1763.64 2537.25 1766.04 Q2540.19 1768.45 2540.19 1772.59 Q2540.19 1775.56 2538.5 1777.62 Q2536.84 1779.68 2533.85 1780.42 Q2537.23 1781.21 2539.11 1783.5 Q2541 1785.79 2541 1789.1 Q2541 1794.12 2537.92 1796.81 Q2534.87 1799.49 2529.15 1799.49 Q2523.43 1799.49 2520.36 1796.81 Q2517.3 1794.12 2517.3 1789.1 Q2517.3 1785.79 2519.2 1783.5 Q2521.1 1781.21 2524.48 1780.42 M2522.76 1773.03 Q2522.76 1775.72 2524.43 1777.22 Q2526.12 1778.73 2529.15 1778.73 Q2532.16 1778.73 2533.85 1777.22 Q2535.56 1775.72 2535.56 1773.03 Q2535.56 1770.35 2533.85 1768.84 Q2532.16 1767.34 2529.15 1767.34 Q2526.12 1767.34 2524.43 1768.84 Q2522.76 1770.35 2522.76 1773.03 Z" fill="#000000" fill-rule="nonzero" fill-opacity="1" /><path clip-path="url(#clip830)" d="M2559.31 1767.34 Q2555.7 1767.34 2553.87 1770.9 Q2552.07 1774.45 2552.07 1781.58 Q2552.07 1788.68 2553.87 1792.25 Q2555.7 1795.79 2559.31 1795.79 Q2562.95 1795.79 2564.75 1792.25 Q2566.58 1788.68 2566.58 1781.58 Q2566.58 1774.45 2564.75 1770.9 Q2562.95 1767.34 2559.31 1767.34 M2559.31 1763.64 Q2565.12 1763.64 2568.18 1768.24 Q2571.26 1772.83 2571.26 1781.58 Q2571.26 1790.3 2568.18 1794.91 Q2565.12 1799.49 2559.31 1799.49 Q2553.5 1799.49 2550.42 1794.91 Q2547.37 1790.3 2547.37 1781.58 Q2547.37 1772.83 2550.42 1768.24 Q2553.5 1763.64 2559.31 1763.64 Z" fill="#000000" fill-rule="nonzero" fill-opacity="1" /><path clip-path="url(#clip830)" d="M1260.65 1835.78 L1267.08 1835.78 L1267.08 1883.3 L1260.65 1883.3 L1260.65 1835.78 Z" fill="#000000" fill-rule="nonzero" fill-opacity="1" /><path clip-path="url(#clip830)" d="M1309.25 1861.78 L1309.25 1883.3 L1303.39 1883.3 L1303.39 1861.98 Q1303.39 1856.92 1301.42 1854.4 Q1299.45 1851.89 1295.5 1851.89 Q1290.76 1851.89 1288.02 1854.91 Q1285.28 1857.93 1285.28 1863.15 L1285.28 1883.3 L1279.4 1883.3 L1279.4 1847.65 L1285.28 1847.65 L1285.28 1853.19 Q1287.38 1849.98 1290.22 1848.39 Q1293.08 1846.79 1296.81 1846.79 Q1302.95 1846.79 1306.1 1850.61 Q1309.25 1854.4 1309.25 1861.78 Z" fill="#000000" fill-rule="nonzero" fill-opacity="1" /><path clip-path="url(#clip830)" d="M1338.98 1833.78 L1338.98 1838.65 L1333.38 1838.65 Q1330.23 1838.65 1328.98 1839.92 Q1327.77 1841.19 1327.77 1844.5 L1327.77 1847.65 L1337.42 1847.65 L1337.42 1852.2 L1327.77 1852.2 L1327.77 1883.3 L1321.89 1883.3 L1321.89 1852.2 L1316.28 1852.2 L1316.28 1847.65 L1321.89 1847.65 L1321.89 1845.17 Q1321.89 1839.22 1324.66 1836.51 Q1327.42 1833.78 1333.44 1833.78 L1338.98 1833.78 Z" fill="#000000" fill-rule="nonzero" fill-opacity="1" /><path clip-path="url(#clip830)" d="M1374.37 1864.01 L1374.37 1866.88 L1347.44 1866.88 Q1347.83 1872.92 1351.07 1876.11 Q1354.35 1879.26 1360.18 1879.26 Q1363.55 1879.26 1366.7 1878.43 Q1369.88 1877.6 1373 1875.95 L1373 1881.49 Q1369.85 1882.82 1366.54 1883.52 Q1363.23 1884.22 1359.83 1884.22 Q1351.3 1884.22 1346.3 1879.26 Q1341.33 1874.29 1341.33 1865.83 Q1341.33 1857.07 1346.04 1851.95 Q1350.79 1846.79 1358.81 1846.79 Q1366 1846.79 1370.17 1851.44 Q1374.37 1856.06 1374.37 1864.01 M1368.52 1862.29 Q1368.45 1857.49 1365.81 1854.62 Q1363.2 1851.76 1358.87 1851.76 Q1353.97 1851.76 1351.01 1854.53 Q1348.08 1857.3 1347.64 1862.33 L1368.52 1862.29 Z" fill="#000000" fill-rule="nonzero" fill-opacity="1" /><path clip-path="url(#clip830)" d="M1409.64 1849.02 L1409.64 1854.5 Q1407.15 1853.13 1404.64 1852.46 Q1402.16 1851.76 1399.61 1851.76 Q1393.91 1851.76 1390.76 1855.39 Q1387.61 1858.98 1387.61 1865.51 Q1387.61 1872.03 1390.76 1875.66 Q1393.91 1879.26 1399.61 1879.26 Q1402.16 1879.26 1404.64 1878.59 Q1407.15 1877.89 1409.64 1876.52 L1409.64 1881.93 Q1407.19 1883.08 1404.55 1883.65 Q1401.94 1884.22 1398.98 1884.22 Q1390.92 1884.22 1386.18 1879.16 Q1381.44 1874.1 1381.44 1865.51 Q1381.44 1856.79 1386.21 1851.79 Q1391.02 1846.79 1399.36 1846.79 Q1402.06 1846.79 1404.64 1847.37 Q1407.22 1847.91 1409.64 1849.02 Z" fill="#000000" fill-rule="nonzero" fill-opacity="1" /><path clip-path="url(#clip830)" d="M1425.62 1837.53 L1425.62 1847.65 L1437.68 1847.65 L1437.68 1852.2 L1425.62 1852.2 L1425.62 1871.56 Q1425.62 1875.92 1426.79 1877.16 Q1428 1878.4 1431.66 1878.4 L1437.68 1878.4 L1437.68 1883.3 L1431.66 1883.3 Q1424.88 1883.3 1422.31 1880.79 Q1419.73 1878.24 1419.73 1871.56 L1419.73 1852.2 L1415.43 1852.2 L1415.43 1847.65 L1419.73 1847.65 L1419.73 1837.53 L1425.62 1837.53 Z" fill="#000000" fill-rule="nonzero" fill-opacity="1" /><path clip-path="url(#clip830)" d="M1475.87 1864.01 L1475.87 1866.88 L1448.95 1866.88 Q1449.33 1872.92 1452.57 1876.11 Q1455.85 1879.26 1461.68 1879.26 Q1465.05 1879.26 1468.2 1878.43 Q1471.38 1877.6 1474.5 1875.95 L1474.5 1881.49 Q1471.35 1882.82 1468.04 1883.52 Q1464.73 1884.22 1461.33 1884.22 Q1452.8 1884.22 1447.8 1879.26 Q1442.83 1874.29 1442.83 1865.83 Q1442.83 1857.07 1447.55 1851.95 Q1452.29 1846.79 1460.31 1846.79 Q1467.5 1846.79 1471.67 1851.44 Q1475.87 1856.06 1475.87 1864.01 M1470.02 1862.29 Q1469.95 1857.49 1467.31 1854.62 Q1464.7 1851.76 1460.37 1851.76 Q1455.47 1851.76 1452.51 1854.53 Q1449.58 1857.3 1449.14 1862.33 L1470.02 1862.29 Z" fill="#000000" fill-rule="nonzero" fill-opacity="1" /><path clip-path="url(#clip830)" d="M1508.94 1853.06 L1508.94 1833.78 L1514.8 1833.78 L1514.8 1883.3 L1508.94 1883.3 L1508.94 1877.95 Q1507.1 1881.14 1504.26 1882.7 Q1501.46 1884.22 1497.52 1884.22 Q1491.05 1884.22 1486.98 1879.07 Q1482.94 1873.91 1482.94 1865.51 Q1482.94 1857.11 1486.98 1851.95 Q1491.05 1846.79 1497.52 1846.79 Q1501.46 1846.79 1504.26 1848.35 Q1507.1 1849.88 1508.94 1853.06 M1488.99 1865.51 Q1488.99 1871.97 1491.63 1875.66 Q1494.3 1879.32 1498.95 1879.32 Q1503.6 1879.32 1506.27 1875.66 Q1508.94 1871.97 1508.94 1865.51 Q1508.94 1859.05 1506.27 1855.39 Q1503.6 1851.7 1498.95 1851.7 Q1494.3 1851.7 1491.63 1855.39 Q1488.99 1859.05 1488.99 1865.51 Z" fill="#000000" fill-rule="nonzero" fill-opacity="1" /><path clip-path="url(#clip830)" d="M1561.65 1833.84 Q1557.39 1841.16 1555.32 1848.32 Q1553.25 1855.48 1553.25 1862.84 Q1553.25 1870.19 1555.32 1877.41 Q1557.42 1884.61 1561.65 1891.89 L1556.56 1891.89 Q1551.78 1884.41 1549.4 1877.19 Q1547.04 1869.96 1547.04 1862.84 Q1547.04 1855.74 1549.4 1848.54 Q1551.75 1841.35 1556.56 1833.84 L1561.65 1833.84 Z" fill="#000000" fill-rule="nonzero" fill-opacity="1" /><path clip-path="url(#clip830)" d="M1573.27 1835.78 L1579.7 1835.78 L1579.7 1883.3 L1573.27 1883.3 L1573.27 1835.78 Z" fill="#000000" fill-rule="nonzero" fill-opacity="1" /><path clip-path="url(#clip830)" d="M1591.31 1833.84 L1596.41 1833.84 Q1601.18 1841.35 1603.54 1848.54 Q1605.92 1855.74 1605.92 1862.84 Q1605.92 1869.96 1603.54 1877.19 Q1601.18 1884.41 1596.41 1891.89 L1591.31 1891.89 Q1595.55 1884.61 1597.62 1877.41 Q1599.72 1870.19 1599.72 1862.84 Q1599.72 1855.48 1597.62 1848.32 Q1595.55 1841.16 1591.31 1833.84 Z" fill="#000000" fill-rule="nonzero" fill-opacity="1" /><polyline clip-path="url(#clip830)" style="stroke:#000000; stroke-linecap:round; stroke-linejoin:round; stroke-width:4; stroke-opacity:1; fill:none" points="225.816,1734.12 225.816,127.792 "/>
<polyline clip-path="url(#clip830)" style="stroke:#000000; stroke-linecap:round; stroke-linejoin:round; stroke-width:4; stroke-opacity:1; fill:none" points="225.816,1416.7 244.714,1416.7 "/>
<polyline clip-path="url(#clip830)" style="stroke:#000000; stroke-linecap:round; stroke-linejoin:round; stroke-width:4; stroke-opacity:1; fill:none" points="225.816,1050.13 244.714,1050.13 "/>
<polyline clip-path="url(#clip830)" style="stroke:#000000; stroke-linecap:round; stroke-linejoin:round; stroke-width:4; stroke-opacity:1; fill:none" points="225.816,683.562 244.714,683.562 "/>
<polyline clip-path="url(#clip830)" style="stroke:#000000; stroke-linecap:round; stroke-linejoin:round; stroke-width:4; stroke-opacity:1; fill:none" points="225.816,316.992 244.714,316.992 "/>
<path clip-path="url(#clip830)" d="M128.321 1402.5 Q124.71 1402.5 122.881 1406.07 Q121.076 1409.61 121.076 1416.74 Q121.076 1423.84 122.881 1427.41 Q124.71 1430.95 128.321 1430.95 Q131.955 1430.95 133.761 1427.41 Q135.589 1423.84 135.589 1416.74 Q135.589 1409.61 133.761 1406.07 Q131.955 1402.5 128.321 1402.5 M128.321 1398.8 Q134.131 1398.8 137.187 1403.4 Q140.265 1407.99 140.265 1416.74 Q140.265 1425.46 137.187 1430.07 Q134.131 1434.65 128.321 1434.65 Q122.511 1434.65 119.432 1430.07 Q116.376 1425.46 116.376 1416.74 Q116.376 1407.99 119.432 1403.4 Q122.511 1398.8 128.321 1398.8 Z" fill="#000000" fill-rule="nonzero" fill-opacity="1" /><path clip-path="url(#clip830)" d="M148.483 1428.1 L153.367 1428.1 L153.367 1433.98 L148.483 1433.98 L148.483 1428.1 Z" fill="#000000" fill-rule="nonzero" fill-opacity="1" /><path clip-path="url(#clip830)" d="M173.552 1402.5 Q169.941 1402.5 168.112 1406.07 Q166.307 1409.61 166.307 1416.74 Q166.307 1423.84 168.112 1427.41 Q169.941 1430.95 173.552 1430.95 Q177.186 1430.95 178.992 1427.41 Q180.821 1423.84 180.821 1416.74 Q180.821 1409.61 178.992 1406.07 Q177.186 1402.5 173.552 1402.5 M173.552 1398.8 Q179.362 1398.8 182.418 1403.4 Q185.496 1407.99 185.496 1416.74 Q185.496 1425.46 182.418 1430.07 Q179.362 1434.65 173.552 1434.65 Q167.742 1434.65 164.663 1430.07 Q161.608 1425.46 161.608 1416.74 Q161.608 1407.99 164.663 1403.4 Q167.742 1398.8 173.552 1398.8 Z" fill="#000000" fill-rule="nonzero" fill-opacity="1" /><path clip-path="url(#clip830)" d="M128.969 1035.93 Q125.358 1035.93 123.529 1039.5 Q121.724 1043.04 121.724 1050.17 Q121.724 1057.27 123.529 1060.84 Q125.358 1064.38 128.969 1064.38 Q132.603 1064.38 134.409 1060.84 Q136.237 1057.27 136.237 1050.17 Q136.237 1043.04 134.409 1039.5 Q132.603 1035.93 128.969 1035.93 M128.969 1032.23 Q134.779 1032.23 137.835 1036.83 Q140.913 1041.42 140.913 1050.17 Q140.913 1058.89 137.835 1063.5 Q134.779 1068.08 128.969 1068.08 Q123.159 1068.08 120.08 1063.5 Q117.025 1058.89 117.025 1050.17 Q117.025 1041.42 120.08 1036.83 Q123.159 1032.23 128.969 1032.23 Z" fill="#000000" fill-rule="nonzero" fill-opacity="1" /><path clip-path="url(#clip830)" d="M149.131 1061.53 L154.015 1061.53 L154.015 1067.41 L149.131 1067.41 L149.131 1061.53 Z" fill="#000000" fill-rule="nonzero" fill-opacity="1" /><path clip-path="url(#clip830)" d="M178.367 1048.78 Q181.723 1049.5 183.598 1051.76 Q185.496 1054.03 185.496 1057.37 Q185.496 1062.48 181.978 1065.28 Q178.459 1068.08 171.978 1068.08 Q169.802 1068.08 167.487 1067.64 Q165.196 1067.23 162.742 1066.37 L162.742 1061.86 Q164.686 1062.99 167.001 1063.57 Q169.316 1064.15 171.839 1064.15 Q176.237 1064.15 178.529 1062.41 Q180.844 1060.68 180.844 1057.37 Q180.844 1054.31 178.691 1052.6 Q176.561 1050.86 172.742 1050.86 L168.714 1050.86 L168.714 1047.02 L172.927 1047.02 Q176.376 1047.02 178.205 1045.65 Q180.034 1044.26 180.034 1041.67 Q180.034 1039.01 178.135 1037.6 Q176.26 1036.16 172.742 1036.16 Q170.821 1036.16 168.622 1036.58 Q166.423 1037 163.784 1037.88 L163.784 1033.71 Q166.446 1032.97 168.76 1032.6 Q171.098 1032.23 173.159 1032.23 Q178.483 1032.23 181.584 1034.66 Q184.686 1037.07 184.686 1041.19 Q184.686 1044.06 183.043 1046.05 Q181.399 1048.01 178.367 1048.78 Z" fill="#000000" fill-rule="nonzero" fill-opacity="1" /><path clip-path="url(#clip830)" d="M128.159 669.361 Q124.548 669.361 122.719 672.926 Q120.913 676.467 120.913 683.597 Q120.913 690.703 122.719 694.268 Q124.548 697.81 128.159 697.81 Q131.793 697.81 133.599 694.268 Q135.427 690.703 135.427 683.597 Q135.427 676.467 133.599 672.926 Q131.793 669.361 128.159 669.361 M128.159 665.657 Q133.969 665.657 137.025 670.264 Q140.103 674.847 140.103 683.597 Q140.103 692.324 137.025 696.93 Q133.969 701.513 128.159 701.513 Q122.349 701.513 119.27 696.93 Q116.214 692.324 116.214 683.597 Q116.214 674.847 119.27 670.264 Q122.349 665.657 128.159 665.657 Z" fill="#000000" fill-rule="nonzero" fill-opacity="1" /><path clip-path="url(#clip830)" d="M148.321 694.963 L153.205 694.963 L153.205 700.842 L148.321 700.842 L148.321 694.963 Z" fill="#000000" fill-rule="nonzero" fill-opacity="1" /><path clip-path="url(#clip830)" d="M173.969 681.699 Q170.821 681.699 168.969 683.852 Q167.14 686.004 167.14 689.754 Q167.14 693.481 168.969 695.657 Q170.821 697.81 173.969 697.81 Q177.117 697.81 178.946 695.657 Q180.797 693.481 180.797 689.754 Q180.797 686.004 178.946 683.852 Q177.117 681.699 173.969 681.699 M183.251 667.046 L183.251 671.305 Q181.492 670.472 179.686 670.032 Q177.904 669.592 176.145 669.592 Q171.515 669.592 169.061 672.717 Q166.631 675.842 166.284 682.162 Q167.649 680.148 169.71 679.083 Q171.77 677.995 174.247 677.995 Q179.455 677.995 182.464 681.166 Q185.496 684.314 185.496 689.754 Q185.496 695.078 182.348 698.296 Q179.2 701.513 173.969 701.513 Q167.973 701.513 164.802 696.93 Q161.631 692.324 161.631 683.597 Q161.631 675.402 165.52 670.541 Q169.409 665.657 175.959 665.657 Q177.719 665.657 179.501 666.004 Q181.307 666.352 183.251 667.046 Z" fill="#000000" fill-rule="nonzero" fill-opacity="1" /><path clip-path="url(#clip830)" d="M128.506 302.79 Q124.895 302.79 123.066 306.355 Q121.261 309.897 121.261 317.026 Q121.261 324.133 123.066 327.698 Q124.895 331.239 128.506 331.239 Q132.14 331.239 133.946 327.698 Q135.775 324.133 135.775 317.026 Q135.775 309.897 133.946 306.355 Q132.14 302.79 128.506 302.79 M128.506 299.087 Q134.316 299.087 137.372 303.693 Q140.45 308.276 140.45 317.026 Q140.45 325.753 137.372 330.36 Q134.316 334.943 128.506 334.943 Q122.696 334.943 119.617 330.36 Q116.562 325.753 116.562 317.026 Q116.562 308.276 119.617 303.693 Q122.696 299.087 128.506 299.087 Z" fill="#000000" fill-rule="nonzero" fill-opacity="1" /><path clip-path="url(#clip830)" d="M148.668 328.392 L153.552 328.392 L153.552 334.272 L148.668 334.272 L148.668 328.392 Z" fill="#000000" fill-rule="nonzero" fill-opacity="1" /><path clip-path="url(#clip830)" d="M163.876 333.554 L163.876 329.295 Q165.635 330.128 167.441 330.568 Q169.247 331.008 170.983 331.008 Q175.612 331.008 178.043 327.906 Q180.497 324.781 180.844 318.438 Q179.501 320.429 177.441 321.494 Q175.381 322.559 172.881 322.559 Q167.696 322.559 164.663 319.434 Q161.654 316.286 161.654 310.846 Q161.654 305.522 164.802 302.304 Q167.95 299.087 173.182 299.087 Q179.177 299.087 182.325 303.693 Q185.496 308.276 185.496 317.026 Q185.496 325.198 181.608 330.082 Q177.742 334.943 171.191 334.943 Q169.432 334.943 167.626 334.596 Q165.821 334.249 163.876 333.554 M173.182 318.901 Q176.33 318.901 178.159 316.749 Q180.01 314.596 180.01 310.846 Q180.01 307.119 178.159 304.966 Q176.33 302.79 173.182 302.79 Q170.034 302.79 168.182 304.966 Q166.353 307.119 166.353 310.846 Q166.353 314.596 168.182 316.749 Q170.034 318.901 173.182 318.901 Z" fill="#000000" fill-rule="nonzero" fill-opacity="1" /><path clip-path="url(#clip830)" d="M59.4423 975.053 L75.1974 975.053 L75.1974 980.941 L26.2133 980.941 Q11.6995 980.941 11.6995 967.382 Q11.6995 953.569 23.9535 953.569 Q32.6745 953.569 35.8573 959.043 Q38.7219 950.131 47.2201 950.131 Q62.3068 950.131 62.3068 965.473 Q62.3068 972.22 59.4423 975.053 M51.8034 975.053 Q57.3098 971.52 57.3098 965.25 Q57.3098 956.083 47.3156 956.083 Q38.34 956.083 39.0402 970.852 L33.6293 970.852 Q33.6293 959.298 23.4442 959.298 Q16.4738 959.298 16.4738 966.746 Q16.4738 975.053 26.4043 975.053 L51.8034 975.053 Z" fill="#000000" fill-rule="nonzero" fill-opacity="1" /><path clip-path="url(#clip830)" d="M12.1769 925.241 Q19.4975 929.506 26.6589 931.575 Q33.8203 933.644 41.1727 933.644 Q48.5251 933.644 55.7502 931.575 Q62.9434 929.475 70.2321 925.241 L70.2321 930.334 Q62.7524 935.108 55.5274 937.495 Q48.3023 939.851 41.1727 939.851 Q34.0749 939.851 26.8817 937.495 Q19.6884 935.14 12.1769 930.334 L12.1769 925.241 Z" fill="#000000" fill-rule="nonzero" fill-opacity="1" /><path clip-path="url(#clip830)" d="M14.1184 913.624 L14.1184 907.195 L61.6384 907.195 L61.6384 913.624 L14.1184 913.624 Z" fill="#000000" fill-rule="nonzero" fill-opacity="1" /><path clip-path="url(#clip830)" d="M12.1769 895.577 L12.1769 890.485 Q19.6884 885.71 26.8817 883.355 Q34.0749 880.968 41.1727 880.968 Q48.3023 880.968 55.5274 883.355 Q62.7524 885.71 70.2321 890.485 L70.2321 895.577 Q62.9434 891.344 55.7502 889.275 Q48.5251 887.174 41.1727 887.174 Q33.8203 887.174 26.6589 889.275 Q19.4975 891.344 12.1769 895.577 Z" fill="#000000" fill-rule="nonzero" fill-opacity="1" /><path clip-path="url(#clip830)" d="M860.063 44.2197 Q862.696 45.1109 865.167 48.0275 Q867.679 50.9442 870.19 56.0483 L878.495 72.576 L869.704 72.576 L861.967 57.061 Q858.969 50.9847 856.134 48.9997 Q853.338 47.0148 848.477 47.0148 L839.565 47.0148 L839.565 72.576 L831.383 72.576 L831.383 12.096 L849.855 12.096 Q860.225 12.096 865.329 16.4305 Q870.433 20.7649 870.433 29.5149 Q870.433 35.2267 867.76 38.994 Q865.127 42.7613 860.063 44.2197 M839.565 18.8205 L839.565 40.2903 L849.855 40.2903 Q855.769 40.2903 858.767 37.5762 Q861.805 34.8216 861.805 29.5149 Q861.805 24.2082 858.767 21.5346 Q855.769 18.8205 849.855 18.8205 L839.565 18.8205 Z" fill="#000000" fill-rule="nonzero" fill-opacity="1" /><path clip-path="url(#clip830)" d="M923.784 48.0275 L923.784 51.6733 L889.513 51.6733 Q889.999 59.3701 894.131 63.421 Q898.304 67.4314 905.717 67.4314 Q910.011 67.4314 914.021 66.3781 Q918.072 65.3249 922.042 63.2184 L922.042 70.267 Q918.031 71.9684 913.818 72.8596 Q909.606 73.7508 905.271 73.7508 Q894.415 73.7508 888.055 67.4314 Q881.735 61.1119 881.735 50.3365 Q881.735 39.1965 887.731 32.6746 Q893.767 26.1121 903.975 26.1121 Q913.13 26.1121 918.437 32.0264 Q923.784 37.9003 923.784 48.0275 M916.33 45.84 Q916.249 39.7232 912.887 36.0774 Q909.565 32.4315 904.056 32.4315 Q897.817 32.4315 894.05 35.9558 Q890.323 39.4801 889.756 45.8805 L916.33 45.84 Z" fill="#000000" fill-rule="nonzero" fill-opacity="1" /><path clip-path="url(#clip830)" d="M968.668 28.9478 L968.668 35.9153 Q965.508 34.1734 962.308 33.3227 Q959.148 32.4315 955.907 32.4315 Q948.656 32.4315 944.646 37.0496 Q940.635 41.6271 940.635 49.9314 Q940.635 58.2358 944.646 62.8538 Q948.656 67.4314 955.907 67.4314 Q959.148 67.4314 962.308 66.5807 Q965.508 65.6895 968.668 63.9476 L968.668 70.8341 Q965.549 72.2924 962.186 73.0216 Q958.865 73.7508 955.097 73.7508 Q944.848 73.7508 938.813 67.3098 Q932.777 60.8689 932.777 49.9314 Q932.777 38.832 938.853 32.472 Q944.97 26.1121 955.583 26.1121 Q959.027 26.1121 962.308 26.8413 Q965.589 27.5299 968.668 28.9478 Z" fill="#000000" fill-rule="nonzero" fill-opacity="1" /><path clip-path="url(#clip830)" d="M999.212 32.4315 Q993.216 32.4315 989.732 37.1306 Q986.249 41.7891 986.249 49.9314 Q986.249 58.0738 989.692 62.7728 Q993.176 67.4314 999.212 67.4314 Q1005.17 67.4314 1008.65 62.7323 Q1012.13 58.0333 1012.13 49.9314 Q1012.13 41.8701 1008.65 37.1711 Q1005.17 32.4315 999.212 32.4315 M999.212 26.1121 Q1008.93 26.1121 1014.48 32.4315 Q1020.03 38.7509 1020.03 49.9314 Q1020.03 61.0714 1014.48 67.4314 Q1008.93 73.7508 999.212 73.7508 Q989.449 73.7508 983.899 67.4314 Q978.39 61.0714 978.39 49.9314 Q978.39 38.7509 983.899 32.4315 Q989.449 26.1121 999.212 26.1121 Z" fill="#000000" fill-rule="nonzero" fill-opacity="1" /><path clip-path="url(#clip830)" d="M1027.04 27.2059 L1034.94 27.2059 L1049.12 65.2844 L1063.3 27.2059 L1071.2 27.2059 L1054.18 72.576 L1044.06 72.576 L1027.04 27.2059 Z" fill="#000000" fill-rule="nonzero" fill-opacity="1" /><path clip-path="url(#clip830)" d="M1120.29 48.0275 L1120.29 51.6733 L1086.02 51.6733 Q1086.51 59.3701 1090.64 63.421 Q1094.81 67.4314 1102.23 67.4314 Q1106.52 67.4314 1110.53 66.3781 Q1114.58 65.3249 1118.55 63.2184 L1118.55 70.267 Q1114.54 71.9684 1110.33 72.8596 Q1106.11 73.7508 1101.78 73.7508 Q1090.92 73.7508 1084.56 67.4314 Q1078.24 61.1119 1078.24 50.3365 Q1078.24 39.1965 1084.24 32.6746 Q1090.28 26.1121 1100.48 26.1121 Q1109.64 26.1121 1114.95 32.0264 Q1120.29 37.9003 1120.29 48.0275 M1112.84 45.84 Q1112.76 39.7232 1109.4 36.0774 Q1106.07 32.4315 1100.57 32.4315 Q1094.33 32.4315 1090.56 35.9558 Q1086.83 39.4801 1086.27 45.8805 L1112.84 45.84 Z" fill="#000000" fill-rule="nonzero" fill-opacity="1" /><path clip-path="url(#clip830)" d="M1158.82 34.1734 Q1157.56 33.4443 1156.06 33.1202 Q1154.6 32.7556 1152.82 32.7556 Q1146.5 32.7556 1143.1 36.8875 Q1139.74 40.9789 1139.74 48.6757 L1139.74 72.576 L1132.24 72.576 L1132.24 27.2059 L1139.74 27.2059 L1139.74 34.2544 Q1142.09 30.1225 1145.85 28.1376 Q1149.62 26.1121 1155.01 26.1121 Q1155.78 26.1121 1156.71 26.2337 Q1157.64 26.3147 1158.78 26.5172 L1158.82 34.1734 Z" fill="#000000" fill-rule="nonzero" fill-opacity="1" /><path clip-path="url(#clip830)" d="M1203.62 48.0275 L1203.62 51.6733 L1169.35 51.6733 Q1169.84 59.3701 1173.97 63.421 Q1178.14 67.4314 1185.55 67.4314 Q1189.85 67.4314 1193.86 66.3781 Q1197.91 65.3249 1201.88 63.2184 L1201.88 70.267 Q1197.87 71.9684 1193.65 72.8596 Q1189.44 73.7508 1185.11 73.7508 Q1174.25 73.7508 1167.89 67.4314 Q1161.57 61.1119 1161.57 50.3365 Q1161.57 39.1965 1167.57 32.6746 Q1173.6 26.1121 1183.81 26.1121 Q1192.97 26.1121 1198.27 32.0264 Q1203.62 37.9003 1203.62 48.0275 M1196.17 45.84 Q1196.09 39.7232 1192.72 36.0774 Q1189.4 32.4315 1183.89 32.4315 Q1177.65 32.4315 1173.89 35.9558 Q1170.16 39.4801 1169.59 45.8805 L1196.17 45.84 Z" fill="#000000" fill-rule="nonzero" fill-opacity="1" /><path clip-path="url(#clip830)" d="M1245.71 34.0924 L1245.71 9.54393 L1253.16 9.54393 L1253.16 72.576 L1245.71 72.576 L1245.71 65.7705 Q1243.36 69.8214 1239.75 71.8063 Q1236.19 73.7508 1231.17 73.7508 Q1222.94 73.7508 1217.76 67.1883 Q1212.61 60.6258 1212.61 49.9314 Q1212.61 39.2371 1217.76 32.6746 Q1222.94 26.1121 1231.17 26.1121 Q1236.19 26.1121 1239.75 28.0971 Q1243.36 30.0415 1245.71 34.0924 M1220.31 49.9314 Q1220.31 58.1548 1223.67 62.8538 Q1227.07 67.5124 1232.99 67.5124 Q1238.9 67.5124 1242.31 62.8538 Q1245.71 58.1548 1245.71 49.9314 Q1245.71 41.7081 1242.31 37.0496 Q1238.9 32.3505 1232.99 32.3505 Q1227.07 32.3505 1223.67 37.0496 Q1220.31 41.7081 1220.31 49.9314 Z" fill="#000000" fill-rule="nonzero" fill-opacity="1" /><path clip-path="url(#clip830)" d="M1286.83 12.096 L1337.99 12.096 L1337.99 18.9825 L1316.52 18.9825 L1316.52 72.576 L1308.3 72.576 L1308.3 18.9825 L1286.83 18.9825 L1286.83 12.096 Z" fill="#000000" fill-rule="nonzero" fill-opacity="1" /><path clip-path="url(#clip830)" d="M1359.66 34.1734 Q1358.41 33.4443 1356.91 33.1202 Q1355.45 32.7556 1353.67 32.7556 Q1347.35 32.7556 1343.94 36.8875 Q1340.58 40.9789 1340.58 48.6757 L1340.58 72.576 L1333.09 72.576 L1333.09 27.2059 L1340.58 27.2059 L1340.58 34.2544 Q1342.93 30.1225 1346.7 28.1376 Q1350.47 26.1121 1355.85 26.1121 Q1356.62 26.1121 1357.55 26.2337 Q1358.49 26.3147 1359.62 26.5172 L1359.66 34.1734 Z" fill="#000000" fill-rule="nonzero" fill-opacity="1" /><path clip-path="url(#clip830)" d="M1388.1 49.7694 Q1379.06 49.7694 1375.58 51.8354 Q1372.1 53.9013 1372.1 58.8839 Q1372.1 62.8538 1374.69 65.2034 Q1377.32 67.5124 1381.82 67.5124 Q1388.02 67.5124 1391.74 63.1374 Q1395.51 58.7219 1395.51 51.4303 L1395.51 49.7694 L1388.1 49.7694 M1402.97 46.6907 L1402.97 72.576 L1395.51 72.576 L1395.51 65.6895 Q1392.96 69.8214 1389.15 71.8063 Q1385.34 73.7508 1379.83 73.7508 Q1372.87 73.7508 1368.74 69.8619 Q1364.64 65.9325 1364.64 59.3701 Q1364.64 51.7138 1369.75 47.825 Q1374.89 43.9361 1385.06 43.9361 L1395.51 43.9361 L1395.51 43.2069 Q1395.51 38.0623 1392.11 35.2672 Q1388.75 32.4315 1382.63 32.4315 Q1378.74 32.4315 1375.05 33.3632 Q1371.37 34.295 1367.97 36.1584 L1367.97 29.2718 Q1372.06 27.692 1375.91 26.9223 Q1379.75 26.1121 1383.4 26.1121 Q1393.24 26.1121 1398.1 31.2163 Q1402.97 36.3204 1402.97 46.6907 Z" fill="#000000" fill-rule="nonzero" fill-opacity="1" /><path clip-path="url(#clip830)" d="M1456.03 45.1919 L1456.03 72.576 L1448.58 72.576 L1448.58 45.4349 Q1448.58 38.994 1446.07 35.7938 Q1443.56 32.5936 1438.53 32.5936 Q1432.5 32.5936 1429.01 36.4419 Q1425.53 40.2903 1425.53 46.9338 L1425.53 72.576 L1418.03 72.576 L1418.03 27.2059 L1425.53 27.2059 L1425.53 34.2544 Q1428.2 30.163 1431.81 28.1376 Q1435.45 26.1121 1440.19 26.1121 Q1448.01 26.1121 1452.02 30.9732 Q1456.03 35.7938 1456.03 45.1919 Z" fill="#000000" fill-rule="nonzero" fill-opacity="1" /><path clip-path="url(#clip830)" d="M1499.82 28.5427 L1499.82 35.5912 Q1496.66 33.9709 1493.26 33.1607 Q1489.86 32.3505 1486.21 32.3505 Q1480.66 32.3505 1477.87 34.0519 Q1475.11 35.7533 1475.11 39.156 Q1475.11 41.7486 1477.1 43.2475 Q1479.08 44.7058 1485.08 46.0426 L1487.63 46.6097 Q1495.57 48.3111 1498.89 51.4303 Q1502.25 54.509 1502.25 60.0587 Q1502.25 66.3781 1497.23 70.0644 Q1492.25 73.7508 1483.5 73.7508 Q1479.85 73.7508 1475.88 73.0216 Q1471.95 72.3329 1467.58 70.9151 L1467.58 63.2184 Q1471.71 65.3654 1475.72 66.4591 Q1479.73 67.5124 1483.66 67.5124 Q1488.93 67.5124 1491.76 65.73 Q1494.6 63.9071 1494.6 60.6258 Q1494.6 57.5877 1492.53 55.9673 Q1490.51 54.3469 1483.58 52.8481 L1480.99 52.2405 Q1474.06 50.7821 1470.98 47.7845 Q1467.9 44.7463 1467.9 39.4801 Q1467.9 33.0797 1472.44 29.5959 Q1476.98 26.1121 1485.32 26.1121 Q1489.45 26.1121 1493.1 26.7198 Q1496.74 27.3274 1499.82 28.5427 Z" fill="#000000" fill-rule="nonzero" fill-opacity="1" /><path clip-path="url(#clip830)" d="M1549.45 35.9153 Q1552.24 30.8922 1556.13 28.5022 Q1560.02 26.1121 1565.28 26.1121 Q1572.37 26.1121 1576.22 31.0947 Q1580.07 36.0368 1580.07 45.1919 L1580.07 72.576 L1572.58 72.576 L1572.58 45.4349 Q1572.58 38.913 1570.27 35.7533 Q1567.96 32.5936 1563.22 32.5936 Q1557.43 32.5936 1554.06 36.4419 Q1550.7 40.2903 1550.7 46.9338 L1550.7 72.576 L1543.21 72.576 L1543.21 45.4349 Q1543.21 38.8725 1540.9 35.7533 Q1538.59 32.5936 1533.77 32.5936 Q1528.06 32.5936 1524.69 36.4824 Q1521.33 40.3308 1521.33 46.9338 L1521.33 72.576 L1513.84 72.576 L1513.84 27.2059 L1521.33 27.2059 L1521.33 34.2544 Q1523.88 30.082 1527.45 28.0971 Q1531.01 26.1121 1535.92 26.1121 Q1540.86 26.1121 1544.3 28.6237 Q1547.79 31.1352 1549.45 35.9153 Z" fill="#000000" fill-rule="nonzero" fill-opacity="1" /><path clip-path="url(#clip830)" d="M1594.94 27.2059 L1602.39 27.2059 L1602.39 72.576 L1594.94 72.576 L1594.94 27.2059 M1594.94 9.54393 L1602.39 9.54393 L1602.39 18.9825 L1594.94 18.9825 L1594.94 9.54393 Z" fill="#000000" fill-rule="nonzero" fill-opacity="1" /><path clip-path="url(#clip830)" d="M1646.91 28.5427 L1646.91 35.5912 Q1643.75 33.9709 1640.35 33.1607 Q1636.95 32.3505 1633.3 32.3505 Q1627.75 32.3505 1624.95 34.0519 Q1622.2 35.7533 1622.2 39.156 Q1622.2 41.7486 1624.19 43.2475 Q1626.17 44.7058 1632.17 46.0426 L1634.72 46.6097 Q1642.66 48.3111 1645.98 51.4303 Q1649.34 54.509 1649.34 60.0587 Q1649.34 66.3781 1644.32 70.0644 Q1639.34 73.7508 1630.59 73.7508 Q1626.94 73.7508 1622.97 73.0216 Q1619.04 72.3329 1614.67 70.9151 L1614.67 63.2184 Q1618.8 65.3654 1622.81 66.4591 Q1626.82 67.5124 1630.75 67.5124 Q1636.01 67.5124 1638.85 65.73 Q1641.68 63.9071 1641.68 60.6258 Q1641.68 57.5877 1639.62 55.9673 Q1637.59 54.3469 1630.67 52.8481 L1628.07 52.2405 Q1621.15 50.7821 1618.07 47.7845 Q1614.99 44.7463 1614.99 39.4801 Q1614.99 33.0797 1619.53 29.5959 Q1624.06 26.1121 1632.41 26.1121 Q1636.54 26.1121 1640.19 26.7198 Q1643.83 27.3274 1646.91 28.5427 Z" fill="#000000" fill-rule="nonzero" fill-opacity="1" /><path clip-path="url(#clip830)" d="M1690.13 28.5427 L1690.13 35.5912 Q1686.97 33.9709 1683.57 33.1607 Q1680.17 32.3505 1676.52 32.3505 Q1670.97 32.3505 1668.18 34.0519 Q1665.42 35.7533 1665.42 39.156 Q1665.42 41.7486 1667.41 43.2475 Q1669.39 44.7058 1675.39 46.0426 L1677.94 46.6097 Q1685.88 48.3111 1689.2 51.4303 Q1692.56 54.509 1692.56 60.0587 Q1692.56 66.3781 1687.54 70.0644 Q1682.56 73.7508 1673.81 73.7508 Q1670.16 73.7508 1666.19 73.0216 Q1662.26 72.3329 1657.89 70.9151 L1657.89 63.2184 Q1662.02 65.3654 1666.03 66.4591 Q1670.04 67.5124 1673.97 67.5124 Q1679.24 67.5124 1682.07 65.73 Q1684.91 63.9071 1684.91 60.6258 Q1684.91 57.5877 1682.84 55.9673 Q1680.82 54.3469 1673.89 52.8481 L1671.3 52.2405 Q1664.37 50.7821 1661.29 47.7845 Q1658.21 44.7463 1658.21 39.4801 Q1658.21 33.0797 1662.75 29.5959 Q1667.29 26.1121 1675.63 26.1121 Q1679.76 26.1121 1683.41 26.7198 Q1687.06 27.3274 1690.13 28.5427 Z" fill="#000000" fill-rule="nonzero" fill-opacity="1" /><path clip-path="url(#clip830)" d="M1704.43 27.2059 L1711.89 27.2059 L1711.89 72.576 L1704.43 72.576 L1704.43 27.2059 M1704.43 9.54393 L1711.89 9.54393 L1711.89 18.9825 L1704.43 18.9825 L1704.43 9.54393 Z" fill="#000000" fill-rule="nonzero" fill-opacity="1" /><path clip-path="url(#clip830)" d="M1745.06 32.4315 Q1739.07 32.4315 1735.58 37.1306 Q1732.1 41.7891 1732.1 49.9314 Q1732.1 58.0738 1735.54 62.7728 Q1739.03 67.4314 1745.06 67.4314 Q1751.02 67.4314 1754.5 62.7323 Q1757.99 58.0333 1757.99 49.9314 Q1757.99 41.8701 1754.5 37.1711 Q1751.02 32.4315 1745.06 32.4315 M1745.06 26.1121 Q1754.79 26.1121 1760.34 32.4315 Q1765.89 38.7509 1765.89 49.9314 Q1765.89 61.0714 1760.34 67.4314 Q1754.79 73.7508 1745.06 73.7508 Q1735.3 73.7508 1729.75 67.4314 Q1724.24 61.0714 1724.24 49.9314 Q1724.24 38.7509 1729.75 32.4315 Q1735.3 26.1121 1745.06 26.1121 Z" fill="#000000" fill-rule="nonzero" fill-opacity="1" /><path clip-path="url(#clip830)" d="M1815.95 45.1919 L1815.95 72.576 L1808.5 72.576 L1808.5 45.4349 Q1808.5 38.994 1805.99 35.7938 Q1803.48 32.5936 1798.45 32.5936 Q1792.42 32.5936 1788.94 36.4419 Q1785.45 40.2903 1785.45 46.9338 L1785.45 72.576 L1777.96 72.576 L1777.96 27.2059 L1785.45 27.2059 L1785.45 34.2544 Q1788.13 30.163 1791.73 28.1376 Q1795.38 26.1121 1800.12 26.1121 Q1807.93 26.1121 1811.94 30.9732 Q1815.95 35.7938 1815.95 45.1919 Z" fill="#000000" fill-rule="nonzero" fill-opacity="1" /><path clip-path="url(#clip830)" d="M1886.2 44.2197 Q1888.83 45.1109 1891.3 48.0275 Q1893.81 50.9442 1896.32 56.0483 L1904.63 72.576 L1895.84 72.576 L1888.1 57.061 Q1885.1 50.9847 1882.27 48.9997 Q1879.47 47.0148 1874.61 47.0148 L1865.7 47.0148 L1865.7 72.576 L1857.52 72.576 L1857.52 12.096 L1875.99 12.096 Q1886.36 12.096 1891.46 16.4305 Q1896.57 20.7649 1896.57 29.5149 Q1896.57 35.2267 1893.89 38.994 Q1891.26 42.7613 1886.2 44.2197 M1865.7 18.8205 L1865.7 40.2903 L1875.99 40.2903 Q1881.9 40.2903 1884.9 37.5762 Q1887.94 34.8216 1887.94 29.5149 Q1887.94 24.2082 1884.9 21.5346 Q1881.9 18.8205 1875.99 18.8205 L1865.7 18.8205 Z" fill="#000000" fill-rule="nonzero" fill-opacity="1" /><path clip-path="url(#clip830)" d="M1933.63 49.7694 Q1924.6 49.7694 1921.12 51.8354 Q1917.63 53.9013 1917.63 58.8839 Q1917.63 62.8538 1920.23 65.2034 Q1922.86 67.5124 1927.35 67.5124 Q1933.55 67.5124 1937.28 63.1374 Q1941.05 58.7219 1941.05 51.4303 L1941.05 49.7694 L1933.63 49.7694 M1948.5 46.6907 L1948.5 72.576 L1941.05 72.576 L1941.05 65.6895 Q1938.49 69.8214 1934.69 71.8063 Q1930.88 73.7508 1925.37 73.7508 Q1918.4 73.7508 1914.27 69.8619 Q1910.18 65.9325 1910.18 59.3701 Q1910.18 51.7138 1915.28 47.825 Q1920.43 43.9361 1930.6 43.9361 L1941.05 43.9361 L1941.05 43.2069 Q1941.05 38.0623 1937.64 35.2672 Q1934.28 32.4315 1928.16 32.4315 Q1924.28 32.4315 1920.59 33.3632 Q1916.9 34.295 1913.5 36.1584 L1913.5 29.2718 Q1917.59 27.692 1921.44 26.9223 Q1925.29 26.1121 1928.93 26.1121 Q1938.78 26.1121 1943.64 31.2163 Q1948.5 36.3204 1948.5 46.6907 Z" fill="#000000" fill-rule="nonzero" fill-opacity="1" /><path clip-path="url(#clip830)" d="M1971.23 14.324 L1971.23 27.2059 L1986.58 27.2059 L1986.58 32.9987 L1971.23 32.9987 L1971.23 57.6282 Q1971.23 63.1779 1972.72 64.7578 Q1974.26 66.3376 1978.92 66.3376 L1986.58 66.3376 L1986.58 72.576 L1978.92 72.576 Q1970.29 72.576 1967.01 69.3758 Q1963.73 66.1351 1963.73 57.6282 L1963.73 32.9987 L1958.26 32.9987 L1958.26 27.2059 L1963.73 27.2059 L1963.73 14.324 L1971.23 14.324 Z" fill="#000000" fill-rule="nonzero" fill-opacity="1" /><path clip-path="url(#clip830)" d="M2035.19 48.0275 L2035.19 51.6733 L2000.92 51.6733 Q2001.41 59.3701 2005.54 63.421 Q2009.71 67.4314 2017.12 67.4314 Q2021.42 67.4314 2025.43 66.3781 Q2029.48 65.3249 2033.45 63.2184 L2033.45 70.267 Q2029.44 71.9684 2025.22 72.8596 Q2021.01 73.7508 2016.68 73.7508 Q2005.82 73.7508 1999.46 67.4314 Q1993.14 61.1119 1993.14 50.3365 Q1993.14 39.1965 1999.14 32.6746 Q2005.17 26.1121 2015.38 26.1121 Q2024.54 26.1121 2029.84 32.0264 Q2035.19 37.9003 2035.19 48.0275 M2027.74 45.84 Q2027.66 39.7232 2024.29 36.0774 Q2020.97 32.4315 2015.46 32.4315 Q2009.22 32.4315 2005.46 35.9558 Q2001.73 39.4801 2001.16 45.8805 L2027.74 45.84 Z" fill="#000000" fill-rule="nonzero" fill-opacity="1" /><polyline clip-path="url(#clip831)" style="stroke:#000000; stroke-linecap:round; stroke-linejoin:round; stroke-width:12; stroke-opacity:1; fill:none" stroke-dasharray="48, 30" points="294.164,805.783 305.612,807.025 317.061,808.264 328.509,809.501 339.958,810.735 351.406,811.967 362.855,813.197 374.303,814.423 385.752,815.648 397.2,816.87 408.648,818.089 420.097,819.306 431.545,820.52 442.994,821.732 454.442,822.942 465.891,824.149 477.339,825.353 488.788,826.555 500.236,827.755 511.685,828.952 523.133,830.147 534.582,831.34 546.03,832.53 557.479,833.717 568.927,834.902 580.375,836.085 591.824,837.265 603.272,838.443 614.721,839.619 626.169,840.792 637.618,841.963 649.066,843.131 660.515,844.297 671.963,845.461 683.412,846.622 694.86,847.781 706.309,848.937 717.757,850.091 729.206,851.243 740.654,852.393 752.102,853.54 763.551,854.685 774.999,855.827 786.448,856.967 797.896,858.105 809.345,859.241 820.793,860.374 832.242,861.505 843.69,862.634 855.139,863.76 866.587,864.884 878.036,866.006 889.484,867.125 900.933,868.243 912.381,869.357 923.829,870.47 935.278,871.581 946.726,872.689 958.175,873.795 969.623,874.898 981.072,876 992.52,877.099 1003.97,878.196 1015.42,879.29 1026.87,880.383 1038.31,881.473 1049.76,882.561 1061.21,883.647 1072.66,884.731 1084.11,885.812 1095.56,886.891 1107,887.968 1118.45,889.043 1129.9,890.116 1141.35,891.186 1152.8,892.255 1164.25,893.321 1175.7,894.385 1187.14,895.447 1198.59,896.506 1210.04,897.564 1221.49,898.619 1232.94,899.672 1244.39,900.723 1255.83,901.772 1267.28,902.819 1278.73,903.864 1290.18,904.906 1301.63,905.947 1313.08,906.985 1324.53,908.021 1335.97,909.055 1347.42,910.087 1358.87,911.117 1370.32,912.145 1381.77,913.17 1393.22,914.194 1404.67,915.216 1416.11,916.235 1427.56,917.252 1439.01,918.268 1450.46,919.281 1461.91,920.292 1473.36,921.301 1484.8,922.308 1496.25,923.313 1507.7,924.316 1519.15,925.317 1530.6,926.316 1542.05,927.313 1553.5,928.308 1564.94,929.301 1576.39,930.292 1587.84,931.28 1599.29,932.267 1610.74,933.252 1622.19,934.235 1633.63,935.216 1645.08,936.194 1656.53,937.171 1667.98,938.146 1679.43,939.119 1690.88,940.09 1702.33,941.059 1713.77,942.026 1725.22,942.99 1736.67,943.953 1748.12,944.914 1759.57,945.874 1771.02,946.831 1782.46,947.786 1793.91,948.739 1805.36,949.69 1816.81,950.64 1828.26,951.587 1839.71,952.533 1851.16,953.476 1862.6,954.418 1874.05,955.358 1885.5,956.296 1896.95,957.232 1908.4,958.166 1919.85,959.098 1931.29,960.028 1942.74,960.956 1954.19,961.883 1965.64,962.807 1977.09,963.73 1988.54,964.651 1999.99,965.57 2011.43,966.487 2022.88,967.402 2034.33,968.316 2045.78,969.227 2057.23,970.137 2068.68,971.045 2080.12,971.95 2091.57,972.855 2103.02,973.757 2114.47,974.657 2125.92,975.556 2137.37,976.453 2148.82,977.348 2160.26,978.241 2171.71,979.132 2183.16,980.022 2194.61,980.909 2206.06,981.795 2217.51,982.679 2228.95,983.562 2240.4,984.442 2251.85,985.321 2263.3,986.198 2274.75,987.073 2286.2,987.946 2297.65,988.818 2309.09,989.688 2320.54,990.556 2331.99,991.422 2343.44,992.287 2354.89,993.15 2366.34,994.011 2377.78,994.87 2389.23,995.727 2400.68,996.583 2412.13,997.437 2423.58,998.289 2435.03,999.14 2446.48,999.989 2457.92,1000.84 2469.37,1001.68 2480.82,1002.53 2492.27,1003.37 2503.72,1004.21 2515.17,1005.05 2526.61,1005.88 2538.06,1006.72 2549.51,1007.55 2560.96,1008.38 2572.41,1009.21 "/>
<polyline clip-path="url(#clip831)" style="stroke:#0000ff; stroke-linecap:round; stroke-linejoin:round; stroke-width:8; stroke-opacity:1; fill:none" points="294.164,872.043 305.612,864.435 317.061,856.865 328.509,849.369 339.958,841.984 351.406,834.748 362.855,827.697 374.303,820.867 385.752,814.296 397.2,808.02 408.648,802.076 420.097,796.501 431.545,791.332 442.994,786.605 454.442,782.358 465.891,778.627 477.339,775.449 488.788,772.86 500.236,770.898 511.685,769.599 523.133,769 534.582,769.138 546.03,770.05 557.479,771.773 568.927,774.342 580.375,777.794 591.824,782.111 603.272,787.216 614.721,793.028 626.169,799.467 637.618,806.454 649.066,813.908 660.515,821.749 671.963,829.897 683.412,838.271 694.86,846.793 706.309,855.381 717.757,863.955 729.206,872.435 740.654,880.742 752.102,888.794 763.551,896.512 774.999,903.816 786.448,910.626 797.896,916.861 809.345,922.441 820.793,927.286 832.242,931.317 843.69,934.452 855.139,936.612 866.587,937.734 878.036,937.853 889.484,937.042 900.933,935.371 912.381,932.91 923.829,929.732 935.278,925.907 946.726,921.505 958.175,916.599 969.623,911.259 981.072,905.556 992.52,899.561 1003.97,893.346 1015.42,886.98 1026.87,880.536 1038.31,874.084 1049.76,867.696 1061.21,861.441 1072.66,855.393 1084.11,849.62 1095.56,844.195 1107,839.188 1118.45,834.671 1129.9,830.714 1141.35,827.389 1152.8,824.732 1164.25,822.728 1175.7,821.357 1187.14,820.598 1198.59,820.429 1210.04,820.829 1221.49,821.78 1232.94,823.258 1244.39,825.244 1255.83,827.717 1267.28,830.655 1278.73,834.039 1290.18,837.847 1301.63,842.059 1313.08,846.654 1324.53,851.61 1335.97,856.908 1347.42,862.526 1358.87,868.444 1370.32,874.64 1381.77,881.095 1393.22,887.786 1404.67,894.694 1416.11,901.798 1427.56,909.075 1439.01,916.49 1450.46,924.001 1461.91,931.567 1473.36,939.145 1484.8,946.692 1496.25,954.168 1507.7,961.53 1519.15,968.735 1530.6,975.742 1542.05,982.509 1553.5,988.994 1564.94,995.155 1576.39,1000.95 1587.84,1006.33 1599.29,1011.27 1610.74,1015.71 1622.19,1019.62 1633.63,1022.95 1645.08,1025.66 1656.53,1027.72 1667.98,1029.06 1679.43,1029.67 1690.88,1029.49 1702.33,1028.47 1713.77,1026.59 1725.22,1023.82 1736.67,1020.12 1748.12,1015.47 1759.57,1009.83 1771.02,1003.19 1782.46,995.513 1793.91,986.772 1805.36,976.938 1816.81,965.984 1828.26,953.882 1839.71,940.605 1851.16,926.123 1862.6,910.41 1874.05,893.438 1885.5,875.177 1896.95,855.601 1908.4,834.682 1919.85,812.392 1931.29,788.702 1942.74,763.585 1954.19,737.012 1965.64,708.957 1977.09,679.391 1988.54,648.298 1999.99,615.855 2011.43,582.385 2022.88,548.216 2034.33,513.673 2045.78,479.085 2057.23,444.778 2068.68,411.08 2080.12,378.318 2091.57,346.818 2103.02,316.909 2114.47,288.917 2125.92,263.169 2137.37,239.992 2148.82,219.714 2160.26,202.662 2171.71,189.163 2183.16,179.544 2194.61,174.132 2206.06,173.254 2217.51,177.238 2228.95,186.41 2240.4,201.098 2251.85,221.629 2263.3,248.329 2274.75,281.372 2286.2,320.362 2297.65,364.771 2309.09,414.073 2320.54,467.74 2331.99,525.247 2343.44,586.066 2354.89,649.67 2366.34,715.533 2377.78,783.127 2389.23,851.927 2400.68,921.404 2412.13,991.033 2423.58,1060.29 2435.03,1128.64 2446.48,1195.56 2457.92,1260.53 2469.37,1323.01 2480.82,1382.48 2492.27,1438.42 2503.72,1490.29 2515.17,1537.58 2526.61,1579.74 2538.06,1616.27 2549.51,1646.63 2560.96,1670.68 2572.41,1688.65 "/>
<polyline clip-path="url(#clip831)" style="stroke:#ff0000; stroke-linecap:round; stroke-linejoin:round; stroke-width:8; stroke-opacity:1; fill:none" points="294.164,800.632 305.612,802.547 317.061,804.42 328.509,806.254 339.958,808.049 351.406,809.807 362.855,811.528 374.303,813.213 385.752,814.864 397.2,816.482 408.648,818.068 420.097,819.622 431.545,821.146 442.994,822.641 454.442,824.108 465.891,825.548 477.339,826.961 488.788,828.35 500.236,829.716 511.685,831.058 523.133,832.378 534.582,833.678 546.03,834.959 557.479,836.22 568.927,837.465 580.375,838.692 591.824,839.905 603.272,841.103 614.721,842.288 626.169,843.46 637.618,844.622 649.066,845.773 660.515,846.916 671.963,848.05 683.412,849.176 694.86,850.294 706.309,851.405 717.757,852.509 729.206,853.606 740.654,854.697 752.102,855.783 763.551,856.862 774.999,857.936 786.448,859.005 797.896,860.069 809.345,861.129 820.793,862.185 832.242,863.237 843.69,864.286 855.139,865.332 866.587,866.374 878.036,867.415 889.484,868.453 900.933,869.49 912.381,870.525 923.829,871.56 935.278,872.593 946.726,873.626 958.175,874.659 969.623,875.692 981.072,876.725 992.52,877.76 1003.97,878.795 1015.42,879.832 1026.87,880.871 1038.31,881.912 1049.76,882.954 1061.21,883.997 1072.66,885.042 1084.11,886.087 1095.56,887.133 1107,888.18 1118.45,889.227 1129.9,890.274 1141.35,891.321 1152.8,892.368 1164.25,893.414 1175.7,894.459 1187.14,895.504 1198.59,896.547 1210.04,897.589 1221.49,898.63 1232.94,899.668 1244.39,900.705 1255.83,901.74 1267.28,902.772 1278.73,903.802 1290.18,904.829 1301.63,905.854 1313.08,906.875 1324.53,907.892 1335.97,908.906 1347.42,909.917 1358.87,910.923 1370.32,911.925 1381.77,912.923 1393.22,913.917 1404.67,914.906 1416.11,915.891 1427.56,916.872 1439.01,917.85 1450.46,918.824 1461.91,919.794 1473.36,920.762 1484.8,921.726 1496.25,922.688 1507.7,923.647 1519.15,924.604 1530.6,925.558 1542.05,926.511 1553.5,927.461 1564.94,928.41 1576.39,929.358 1587.84,930.304 1599.29,931.249 1610.74,932.193 1622.19,933.137 1633.63,934.08 1645.08,935.022 1656.53,935.965 1667.98,936.907 1679.43,937.85 1690.88,938.793 1702.33,939.737 1713.77,940.681 1725.22,941.627 1736.67,942.573 1748.12,943.521 1759.57,944.47 1771.02,945.421 1782.46,946.372 1793.91,947.324 1805.36,948.277 1816.81,949.23 1828.26,950.183 1839.71,951.137 1851.16,952.09 1862.6,953.043 1874.05,953.995 1885.5,954.947 1896.95,955.898 1908.4,956.849 1919.85,957.798 1931.29,958.745 1942.74,959.692 1954.19,960.636 1965.64,961.579 1977.09,962.519 1988.54,963.458 1999.99,964.394 2011.43,965.327 2022.88,966.258 2034.33,967.186 2045.78,968.111 2057.23,969.033 2068.68,969.951 2080.12,970.866 2091.57,971.777 2103.02,972.683 2114.47,973.586 2125.92,974.485 2137.37,975.38 2148.82,976.272 2160.26,977.159 2171.71,978.043 2183.16,978.924 2194.61,979.801 2206.06,980.675 2217.51,981.546 2228.95,982.414 2240.4,983.279 2251.85,984.141 2263.3,985.001 2274.75,985.858 2286.2,986.712 2297.65,987.564 2309.09,988.414 2320.54,989.262 2331.99,990.107 2343.44,990.951 2354.89,991.793 2366.34,992.633 2377.78,993.472 2389.23,994.309 2400.68,995.144 2412.13,995.979 2423.58,996.812 2435.03,997.644 2446.48,998.475 2457.92,999.305 2469.37,1000.13 2480.82,1000.96 2492.27,1001.79 2503.72,1002.62 2515.17,1003.45 2526.61,1004.27 2538.06,1005.1 2549.51,1005.92 2560.96,1006.75 2572.41,1007.57 "/>
<polyline clip-path="url(#clip831)" style="stroke:#008000; stroke-linecap:round; stroke-linejoin:round; stroke-width:8; stroke-opacity:1; fill:none" points="294.164,806.81 305.612,807.416 317.061,808.038 328.509,808.677 339.958,809.334 351.406,810.009 362.855,810.702 374.303,811.415 385.752,812.147 397.2,812.899 408.648,813.671 420.097,814.465 431.545,815.28 442.994,816.117 454.442,816.977 465.891,817.86 477.339,818.767 488.788,819.698 500.236,820.653 511.685,821.634 523.133,822.64 534.582,823.672 546.03,824.731 557.479,825.818 568.927,826.932 580.375,828.074 591.824,829.245 603.272,830.445 614.721,831.675 626.169,832.935 637.618,834.226 649.066,835.548 660.515,836.902 671.963,838.287 683.412,839.702 694.86,841.145 706.309,842.615 717.757,844.109 729.206,845.626 740.654,847.164 752.102,848.723 763.551,850.299 774.999,851.892 786.448,853.499 797.896,855.12 809.345,856.752 820.793,858.394 832.242,860.044 843.69,861.701 855.139,863.363 866.587,865.027 878.036,866.693 889.484,868.359 900.933,870.024 912.381,871.685 923.829,873.34 935.278,874.989 946.726,876.63 958.175,878.26 969.623,879.879 981.072,881.484 992.52,883.075 1003.97,884.648 1015.42,886.204 1026.87,887.739 1038.31,889.254 1049.76,890.749 1061.21,892.223 1072.66,893.677 1084.11,895.11 1095.56,896.523 1107,897.915 1118.45,899.286 1129.9,900.637 1141.35,901.967 1152.8,903.276 1164.25,904.564 1175.7,905.831 1187.14,907.078 1198.59,908.303 1210.04,909.507 1221.49,910.69 1232.94,911.852 1244.39,912.993 1255.83,914.112 1267.28,915.21 1278.73,916.287 1290.18,917.342 1301.63,918.376 1313.08,919.388 1324.53,920.379 1335.97,921.348 1347.42,922.295 1358.87,923.22 1370.32,924.124 1381.77,925.006 1393.22,925.866 1404.67,926.706 1416.11,927.526 1427.56,928.327 1439.01,929.109 1450.46,929.875 1461.91,930.624 1473.36,931.359 1484.8,932.078 1496.25,932.785 1507.7,933.478 1519.15,934.16 1530.6,934.832 1542.05,935.493 1553.5,936.146 1564.94,936.79 1576.39,937.427 1587.84,938.058 1599.29,938.684 1610.74,939.305 1622.19,939.923 1633.63,940.538 1645.08,941.152 1656.53,941.764 1667.98,942.377 1679.43,942.991 1690.88,943.606 1702.33,944.225 1713.77,944.847 1725.22,945.474 1736.67,946.106 1748.12,946.745 1759.57,947.391 1771.02,948.043 1782.46,948.702 1793.91,949.368 1805.36,950.04 1816.81,950.719 1828.26,951.405 1839.71,952.097 1851.16,952.796 1862.6,953.501 1874.05,954.213 1885.5,954.931 1896.95,955.656 1908.4,956.387 1919.85,957.125 1931.29,957.869 1942.74,958.619 1954.19,959.376 1965.64,960.139 1977.09,960.908 1988.54,961.684 1999.99,962.466 2011.43,963.254 2022.88,964.048 2034.33,964.849 2045.78,965.656 2057.23,966.469 2068.68,967.287 2080.12,968.112 2091.57,968.944 2103.02,969.781 2114.47,970.624 2125.92,971.473 2137.37,972.328 2148.82,973.188 2160.26,974.055 2171.71,974.926 2183.16,975.803 2194.61,976.686 2206.06,977.574 2217.51,978.466 2228.95,979.364 2240.4,980.267 2251.85,981.175 2263.3,982.087 2274.75,983.004 2286.2,983.925 2297.65,984.851 2309.09,985.782 2320.54,986.716 2331.99,987.655 2343.44,988.597 2354.89,989.544 2366.34,990.495 2377.78,991.449 2389.23,992.407 2400.68,993.368 2412.13,994.333 2423.58,995.301 2435.03,996.273 2446.48,997.247 2457.92,998.225 2469.37,999.206 2480.82,1000.19 2492.27,1001.18 2503.72,1002.17 2515.17,1003.16 2526.61,1004.16 2538.06,1005.17 2549.51,1006.18 2560.96,1007.19 2572.41,1008.21 "/>
<polyline clip-path="url(#clip831)" style="stroke:#808080; stroke-linecap:round; stroke-linejoin:round; stroke-width:4; stroke-opacity:0.5; fill:none" stroke-dasharray="2, 4" points="-2189.12,1416.7 5055.7,1416.7 "/>
<path clip-path="url(#clip830)" d="M306.314 440.536 L1147.87 440.536 L1147.87 181.336 L306.314 181.336  Z" fill="#ffffff" fill-rule="evenodd" fill-opacity="1"/>
<polyline clip-path="url(#clip830)" style="stroke:#000000; stroke-linecap:round; stroke-linejoin:round; stroke-width:4; stroke-opacity:1; fill:none" points="306.314,440.536 1147.87,440.536 1147.87,181.336 306.314,181.336 306.314,440.536 "/>
<polyline clip-path="url(#clip830)" style="stroke:#000000; stroke-linecap:round; stroke-linejoin:round; stroke-width:12; stroke-opacity:1; fill:none" stroke-dasharray="48, 30" points="333.147,233.176 494.143,233.176 "/>
<path clip-path="url(#clip830)" d="M520.976 215.896 L550.212 215.896 L550.212 219.831 L537.943 219.831 L537.943 250.456 L533.244 250.456 L533.244 219.831 L520.976 219.831 L520.976 215.896 Z" fill="#000000" fill-rule="nonzero" fill-opacity="1" /><path clip-path="url(#clip830)" d="M562.596 228.512 Q561.878 228.095 561.022 227.91 Q560.188 227.702 559.17 227.702 Q555.559 227.702 553.614 230.063 Q551.693 232.401 551.693 236.799 L551.693 250.456 L547.411 250.456 L547.411 224.531 L551.693 224.531 L551.693 228.558 Q553.036 226.197 555.189 225.063 Q557.341 223.906 560.42 223.906 Q560.86 223.906 561.392 223.975 Q561.925 224.021 562.573 224.137 L562.596 228.512 Z" fill="#000000" fill-rule="nonzero" fill-opacity="1" /><path clip-path="url(#clip830)" d="M566.624 240.225 L566.624 224.531 L570.883 224.531 L570.883 240.063 Q570.883 243.743 572.318 245.595 Q573.753 247.424 576.624 247.424 Q580.073 247.424 582.063 245.225 Q584.077 243.026 584.077 239.229 L584.077 224.531 L588.336 224.531 L588.336 250.456 L584.077 250.456 L584.077 246.475 Q582.526 248.836 580.466 249.993 Q578.429 251.128 575.721 251.128 Q571.253 251.128 568.938 248.35 Q566.624 245.572 566.624 240.225 M577.341 223.906 L577.341 223.906 Z" fill="#000000" fill-rule="nonzero" fill-opacity="1" /><path clip-path="url(#clip830)" d="M619.285 236.429 L619.285 238.512 L599.702 238.512 Q599.98 242.91 602.341 245.225 Q604.725 247.516 608.961 247.516 Q611.415 247.516 613.707 246.915 Q616.022 246.313 618.29 245.109 L618.29 249.137 Q615.998 250.109 613.591 250.618 Q611.184 251.128 608.707 251.128 Q602.503 251.128 598.869 247.516 Q595.258 243.905 595.258 237.748 Q595.258 231.382 598.684 227.655 Q602.133 223.906 607.966 223.906 Q613.197 223.906 616.23 227.285 Q619.285 230.642 619.285 236.429 M615.026 235.179 Q614.98 231.683 613.059 229.6 Q611.16 227.517 608.012 227.517 Q604.448 227.517 602.295 229.53 Q600.165 231.544 599.841 235.202 L615.026 235.179 Z" fill="#000000" fill-rule="nonzero" fill-opacity="1" /><path clip-path="url(#clip830)" d="M645.605 248.859 L645.605 260.317 L641.322 260.317 L641.322 224.693 Q641.322 214.137 651.183 214.137 Q661.23 214.137 661.23 223.049 Q661.23 229.392 657.248 231.706 Q663.73 233.79 663.73 239.97 Q663.73 250.942 652.572 250.942 Q647.665 250.942 645.605 248.859 M645.605 243.304 Q648.174 247.308 652.734 247.308 Q659.401 247.308 659.401 240.04 Q659.401 233.512 648.66 234.021 L648.66 230.086 Q657.063 230.086 657.063 222.679 Q657.063 217.609 651.646 217.609 Q645.605 217.609 645.605 224.831 L645.605 243.304 Z" fill="#000000" fill-rule="nonzero" fill-opacity="1" /><path clip-path="url(#clip830)" d="M681.831 214.484 Q678.73 219.808 677.225 225.017 Q675.72 230.225 675.72 235.572 Q675.72 240.919 677.225 246.174 Q678.753 251.405 681.831 256.706 L678.128 256.706 Q674.655 251.266 672.919 246.012 Q671.206 240.757 671.206 235.572 Q671.206 230.41 672.919 225.179 Q674.632 219.947 678.128 214.484 L681.831 214.484 Z" fill="#000000" fill-rule="nonzero" fill-opacity="1" /><path clip-path="url(#clip830)" d="M690.28 215.896 L694.956 215.896 L694.956 250.456 L690.28 250.456 L690.28 215.896 Z" fill="#000000" fill-rule="nonzero" fill-opacity="1" /><path clip-path="url(#clip830)" d="M703.405 214.484 L707.109 214.484 Q710.581 219.947 712.294 225.179 Q714.03 230.41 714.03 235.572 Q714.03 240.757 712.294 246.012 Q710.581 251.266 707.109 256.706 L703.405 256.706 Q706.484 251.405 707.989 246.174 Q709.516 240.919 709.516 235.572 Q709.516 230.225 707.989 225.017 Q706.484 219.808 703.405 214.484 Z" fill="#000000" fill-rule="nonzero" fill-opacity="1" /><polyline clip-path="url(#clip830)" style="stroke:#0000ff; stroke-linecap:round; stroke-linejoin:round; stroke-width:8; stroke-opacity:1; fill:none" points="333.147,285.016 494.143,285.016 "/>
<path clip-path="url(#clip830)" d="M520.976 267.736 L525.675 267.736 L525.675 288.732 Q525.675 294.287 527.689 296.741 Q529.703 299.171 534.216 299.171 Q538.707 299.171 540.721 296.741 Q542.735 294.287 542.735 288.732 L542.735 267.736 L547.434 267.736 L547.434 289.31 Q547.434 296.069 544.077 299.519 Q540.744 302.968 534.216 302.968 Q527.666 302.968 524.309 299.519 Q520.976 296.069 520.976 289.31 L520.976 267.736 Z" fill="#000000" fill-rule="nonzero" fill-opacity="1" /><path clip-path="url(#clip830)" d="M577.573 286.648 L577.573 302.296 L573.313 302.296 L573.313 286.787 Q573.313 283.107 571.878 281.278 Q570.443 279.449 567.573 279.449 Q564.124 279.449 562.133 281.648 Q560.142 283.847 560.142 287.644 L560.142 302.296 L555.86 302.296 L555.86 276.371 L560.142 276.371 L560.142 280.398 Q561.67 278.06 563.73 276.903 Q565.813 275.746 568.522 275.746 Q572.989 275.746 575.281 278.523 Q577.573 281.278 577.573 286.648 Z" fill="#000000" fill-rule="nonzero" fill-opacity="1" /><path clip-path="url(#clip830)" d="M604.725 277.366 L604.725 281.347 Q602.92 280.352 601.091 279.866 Q599.286 279.357 597.434 279.357 Q593.29 279.357 590.999 281.995 Q588.707 284.611 588.707 289.357 Q588.707 294.102 590.999 296.741 Q593.29 299.356 597.434 299.356 Q599.286 299.356 601.091 298.87 Q602.92 298.361 604.725 297.366 L604.725 301.301 Q602.943 302.134 601.022 302.551 Q599.123 302.968 596.971 302.968 Q591.114 302.968 587.665 299.287 Q584.216 295.607 584.216 289.357 Q584.216 283.014 587.688 279.38 Q591.184 275.746 597.248 275.746 Q599.216 275.746 601.091 276.162 Q602.966 276.556 604.725 277.366 Z" fill="#000000" fill-rule="nonzero" fill-opacity="1" /><path clip-path="url(#clip830)" d="M622.179 279.357 Q618.753 279.357 616.762 282.042 Q614.772 284.704 614.772 289.357 Q614.772 294.009 616.739 296.694 Q618.73 299.356 622.179 299.356 Q625.582 299.356 627.572 296.671 Q629.563 293.986 629.563 289.357 Q629.563 284.75 627.572 282.065 Q625.582 279.357 622.179 279.357 M622.179 275.746 Q627.734 275.746 630.906 279.357 Q634.077 282.968 634.077 289.357 Q634.077 295.722 630.906 299.356 Q627.734 302.968 622.179 302.968 Q616.6 302.968 613.429 299.356 Q610.281 295.722 610.281 289.357 Q610.281 282.968 613.429 279.357 Q616.6 275.746 622.179 275.746 Z" fill="#000000" fill-rule="nonzero" fill-opacity="1" /><path clip-path="url(#clip830)" d="M662.688 286.648 L662.688 302.296 L658.429 302.296 L658.429 286.787 Q658.429 283.107 656.994 281.278 Q655.558 279.449 652.688 279.449 Q649.239 279.449 647.248 281.648 Q645.257 283.847 645.257 287.644 L645.257 302.296 L640.975 302.296 L640.975 276.371 L645.257 276.371 L645.257 280.398 Q646.785 278.06 648.845 276.903 Q650.929 275.746 653.637 275.746 Q658.105 275.746 660.396 278.523 Q662.688 281.278 662.688 286.648 Z" fill="#000000" fill-rule="nonzero" fill-opacity="1" /><path clip-path="url(#clip830)" d="M687.711 277.134 L687.711 281.162 Q685.905 280.236 683.961 279.773 Q682.017 279.31 679.933 279.31 Q676.762 279.31 675.165 280.283 Q673.591 281.255 673.591 283.199 Q673.591 284.681 674.725 285.537 Q675.859 286.37 679.285 287.134 L680.743 287.458 Q685.28 288.431 687.179 290.213 Q689.1 291.972 689.1 295.144 Q689.1 298.755 686.229 300.861 Q683.382 302.968 678.382 302.968 Q676.299 302.968 674.03 302.551 Q671.785 302.157 669.285 301.347 L669.285 296.949 Q671.646 298.176 673.938 298.801 Q676.23 299.403 678.475 299.403 Q681.484 299.403 683.105 298.384 Q684.725 297.343 684.725 295.468 Q684.725 293.732 683.544 292.806 Q682.387 291.88 678.429 291.023 L676.947 290.676 Q672.989 289.843 671.23 288.13 Q669.47 286.394 669.47 283.384 Q669.47 279.727 672.063 277.736 Q674.655 275.746 679.424 275.746 Q681.785 275.746 683.868 276.093 Q685.952 276.44 687.711 277.134 Z" fill="#000000" fill-rule="nonzero" fill-opacity="1" /><path clip-path="url(#clip830)" d="M700.095 269.009 L700.095 276.371 L708.868 276.371 L708.868 279.681 L700.095 279.681 L700.095 293.755 Q700.095 296.926 700.952 297.829 Q701.831 298.731 704.493 298.731 L708.868 298.731 L708.868 302.296 L704.493 302.296 Q699.563 302.296 697.688 300.468 Q695.813 298.616 695.813 293.755 L695.813 279.681 L692.688 279.681 L692.688 276.371 L695.813 276.371 L695.813 269.009 L700.095 269.009 Z" fill="#000000" fill-rule="nonzero" fill-opacity="1" /><path clip-path="url(#clip830)" d="M729.493 280.352 Q728.776 279.935 727.919 279.75 Q727.086 279.542 726.067 279.542 Q722.456 279.542 720.512 281.903 Q718.59 284.241 718.59 288.639 L718.59 302.296 L714.308 302.296 L714.308 276.371 L718.59 276.371 L718.59 280.398 Q719.933 278.037 722.086 276.903 Q724.239 275.746 727.317 275.746 Q727.757 275.746 728.289 275.815 Q728.822 275.861 729.47 275.977 L729.493 280.352 Z" fill="#000000" fill-rule="nonzero" fill-opacity="1" /><path clip-path="url(#clip830)" d="M745.743 289.264 Q740.581 289.264 738.59 290.444 Q736.6 291.625 736.6 294.472 Q736.6 296.741 738.081 298.083 Q739.586 299.403 742.155 299.403 Q745.697 299.403 747.826 296.903 Q749.979 294.38 749.979 290.213 L749.979 289.264 L745.743 289.264 M754.238 287.505 L754.238 302.296 L749.979 302.296 L749.979 298.361 Q748.521 300.722 746.345 301.856 Q744.169 302.968 741.021 302.968 Q737.039 302.968 734.678 300.745 Q732.34 298.5 732.34 294.75 Q732.34 290.375 735.257 288.153 Q738.197 285.931 744.007 285.931 L749.979 285.931 L749.979 285.514 Q749.979 282.574 748.035 280.977 Q746.113 279.357 742.618 279.357 Q740.396 279.357 738.289 279.889 Q736.183 280.421 734.238 281.486 L734.238 277.551 Q736.576 276.648 738.776 276.208 Q740.975 275.746 743.058 275.746 Q748.683 275.746 751.461 278.662 Q754.238 281.579 754.238 287.505 Z" fill="#000000" fill-rule="nonzero" fill-opacity="1" /><path clip-path="url(#clip830)" d="M763.011 276.371 L767.271 276.371 L767.271 302.296 L763.011 302.296 L763.011 276.371 M763.011 266.278 L767.271 266.278 L767.271 271.671 L763.011 271.671 L763.011 266.278 Z" fill="#000000" fill-rule="nonzero" fill-opacity="1" /><path clip-path="url(#clip830)" d="M797.734 286.648 L797.734 302.296 L793.474 302.296 L793.474 286.787 Q793.474 283.107 792.039 281.278 Q790.604 279.449 787.734 279.449 Q784.285 279.449 782.294 281.648 Q780.303 283.847 780.303 287.644 L780.303 302.296 L776.021 302.296 L776.021 276.371 L780.303 276.371 L780.303 280.398 Q781.831 278.06 783.891 276.903 Q785.974 275.746 788.683 275.746 Q793.15 275.746 795.442 278.523 Q797.734 281.278 797.734 286.648 Z" fill="#000000" fill-rule="nonzero" fill-opacity="1" /><path clip-path="url(#clip830)" d="M828.405 288.269 L828.405 290.352 L808.821 290.352 Q809.099 294.75 811.46 297.065 Q813.845 299.356 818.081 299.356 Q820.534 299.356 822.826 298.755 Q825.141 298.153 827.409 296.949 L827.409 300.977 Q825.118 301.949 822.71 302.458 Q820.303 302.968 817.826 302.968 Q811.622 302.968 807.988 299.356 Q804.377 295.745 804.377 289.588 Q804.377 283.222 807.803 279.495 Q811.252 275.746 817.085 275.746 Q822.317 275.746 825.349 279.125 Q828.405 282.482 828.405 288.269 M824.145 287.019 Q824.099 283.523 822.178 281.44 Q820.28 279.357 817.132 279.357 Q813.567 279.357 811.414 281.37 Q809.284 283.384 808.96 287.042 L824.145 287.019 Z" fill="#000000" fill-rule="nonzero" fill-opacity="1" /><path clip-path="url(#clip830)" d="M852.455 280.306 L852.455 266.278 L856.715 266.278 L856.715 302.296 L852.455 302.296 L852.455 298.407 Q851.113 300.722 849.053 301.856 Q847.016 302.968 844.145 302.968 Q839.446 302.968 836.483 299.218 Q833.544 295.468 833.544 289.357 Q833.544 283.245 836.483 279.495 Q839.446 275.746 844.145 275.746 Q847.016 275.746 849.053 276.88 Q851.113 277.991 852.455 280.306 M837.942 289.357 Q837.942 294.056 839.863 296.741 Q841.807 299.403 845.187 299.403 Q848.567 299.403 850.511 296.741 Q852.455 294.056 852.455 289.357 Q852.455 284.657 850.511 281.995 Q848.567 279.31 845.187 279.31 Q841.807 279.31 839.863 281.995 Q837.942 284.657 837.942 289.357 Z" fill="#000000" fill-rule="nonzero" fill-opacity="1" /><path clip-path="url(#clip830)" d="M890.789 266.324 Q887.687 271.648 886.182 276.857 Q884.677 282.065 884.677 287.412 Q884.677 292.759 886.182 298.014 Q887.71 303.245 890.789 308.546 L887.085 308.546 Q883.613 303.106 881.877 297.852 Q880.164 292.597 880.164 287.412 Q880.164 282.25 881.877 277.019 Q883.59 271.787 887.085 266.324 L890.789 266.324 Z" fill="#000000" fill-rule="nonzero" fill-opacity="1" /><path clip-path="url(#clip830)" d="M914.075 280.352 Q913.358 279.935 912.501 279.75 Q911.668 279.542 910.65 279.542 Q907.038 279.542 905.094 281.903 Q903.173 284.241 903.173 288.639 L903.173 302.296 L898.89 302.296 L898.89 276.371 L903.173 276.371 L903.173 280.398 Q904.515 278.037 906.668 276.903 Q908.821 275.746 911.9 275.746 Q912.339 275.746 912.872 275.815 Q913.404 275.861 914.052 275.977 L914.075 280.352 Z" fill="#000000" fill-rule="nonzero" fill-opacity="1" /><path clip-path="url(#clip830)" d="M919.099 280.769 L948.774 280.769 L948.774 284.657 L919.099 284.657 L919.099 280.769 M919.099 290.213 L948.774 290.213 L948.774 294.148 L919.099 294.148 L919.099 290.213 Z" fill="#000000" fill-rule="nonzero" fill-opacity="1" /><path clip-path="url(#clip830)" d="M956.112 287.412 L968.589 287.412 L968.589 291.208 L956.112 291.208 L956.112 287.412 Z" fill="#000000" fill-rule="nonzero" fill-opacity="1" /><path clip-path="url(#clip830)" d="M985.973 270.815 Q982.362 270.815 980.533 274.38 Q978.728 277.921 978.728 285.051 Q978.728 292.157 980.533 295.722 Q982.362 299.264 985.973 299.264 Q989.607 299.264 991.413 295.722 Q993.242 292.157 993.242 285.051 Q993.242 277.921 991.413 274.38 Q989.607 270.815 985.973 270.815 M985.973 267.111 Q991.783 267.111 994.839 271.718 Q997.918 276.301 997.918 285.051 Q997.918 293.778 994.839 298.384 Q991.783 302.968 985.973 302.968 Q980.163 302.968 977.084 298.384 Q974.029 293.778 974.029 285.051 Q974.029 276.301 977.084 271.718 Q980.163 267.111 985.973 267.111 Z" fill="#000000" fill-rule="nonzero" fill-opacity="1" /><path clip-path="url(#clip830)" d="M1006.14 296.417 L1011.02 296.417 L1011.02 302.296 L1006.14 302.296 L1006.14 296.417 Z" fill="#000000" fill-rule="nonzero" fill-opacity="1" /><path clip-path="url(#clip830)" d="M1031.2 270.815 Q1027.59 270.815 1025.76 274.38 Q1023.96 277.921 1023.96 285.051 Q1023.96 292.157 1025.76 295.722 Q1027.59 299.264 1031.2 299.264 Q1034.84 299.264 1036.64 295.722 Q1038.47 292.157 1038.47 285.051 Q1038.47 277.921 1036.64 274.38 Q1034.84 270.815 1031.2 270.815 M1031.2 267.111 Q1037.01 267.111 1040.07 271.718 Q1043.15 276.301 1043.15 285.051 Q1043.15 293.778 1040.07 298.384 Q1037.01 302.968 1031.2 302.968 Q1025.39 302.968 1022.32 298.384 Q1019.26 293.778 1019.26 285.051 Q1019.26 276.301 1022.32 271.718 Q1025.39 267.111 1031.2 267.111 Z" fill="#000000" fill-rule="nonzero" fill-opacity="1" /><path clip-path="url(#clip830)" d="M1051.41 267.736 L1069.77 267.736 L1069.77 271.671 L1055.7 271.671 L1055.7 280.144 Q1056.71 279.796 1057.73 279.634 Q1058.75 279.449 1059.77 279.449 Q1065.56 279.449 1068.94 282.62 Q1072.32 285.792 1072.32 291.208 Q1072.32 296.787 1068.84 299.889 Q1065.37 302.968 1059.05 302.968 Q1056.88 302.968 1054.61 302.597 Q1052.36 302.227 1049.95 301.486 L1049.95 296.787 Q1052.04 297.921 1054.26 298.477 Q1056.48 299.032 1058.96 299.032 Q1062.96 299.032 1065.3 296.926 Q1067.64 294.819 1067.64 291.208 Q1067.64 287.597 1065.3 285.491 Q1062.96 283.384 1058.96 283.384 Q1057.08 283.384 1055.21 283.801 Q1053.36 284.218 1051.41 285.097 L1051.41 267.736 Z" fill="#000000" fill-rule="nonzero" fill-opacity="1" /><path clip-path="url(#clip830)" d="M1095.69 283.662 Q1099.05 284.38 1100.93 286.648 Q1102.82 288.917 1102.82 292.25 Q1102.82 297.366 1099.31 300.167 Q1095.79 302.968 1089.31 302.968 Q1087.13 302.968 1084.82 302.528 Q1082.52 302.111 1080.07 301.255 L1080.07 296.741 Q1082.01 297.875 1084.33 298.454 Q1086.64 299.032 1089.17 299.032 Q1093.57 299.032 1095.86 297.296 Q1098.17 295.56 1098.17 292.25 Q1098.17 289.195 1096.02 287.482 Q1093.89 285.745 1090.07 285.745 L1086.04 285.745 L1086.04 281.903 L1090.26 281.903 Q1093.7 281.903 1095.53 280.537 Q1097.36 279.148 1097.36 276.556 Q1097.36 273.894 1095.46 272.482 Q1093.59 271.046 1090.07 271.046 Q1088.15 271.046 1085.95 271.463 Q1083.75 271.88 1081.11 272.759 L1081.11 268.593 Q1083.77 267.852 1086.09 267.482 Q1088.43 267.111 1090.49 267.111 Q1095.81 267.111 1098.91 269.542 Q1102.01 271.949 1102.01 276.07 Q1102.01 278.94 1100.37 280.931 Q1098.73 282.898 1095.69 283.662 Z" fill="#000000" fill-rule="nonzero" fill-opacity="1" /><path clip-path="url(#clip830)" d="M1110.42 266.324 L1114.12 266.324 Q1117.59 271.787 1119.31 277.019 Q1121.04 282.25 1121.04 287.412 Q1121.04 292.597 1119.31 297.852 Q1117.59 303.106 1114.12 308.546 L1110.42 308.546 Q1113.5 303.245 1115 298.014 Q1116.53 292.759 1116.53 287.412 Q1116.53 282.065 1115 276.857 Q1113.5 271.648 1110.42 266.324 Z" fill="#000000" fill-rule="nonzero" fill-opacity="1" /><polyline clip-path="url(#clip830)" style="stroke:#ff0000; stroke-linecap:round; stroke-linejoin:round; stroke-width:8; stroke-opacity:1; fill:none" points="333.147,336.856 494.143,336.856 "/>
<path clip-path="url(#clip830)" d="M525.652 323.419 L525.652 350.294 L531.3 350.294 Q538.453 350.294 541.763 347.053 Q545.096 343.812 545.096 336.822 Q545.096 329.877 541.763 326.66 Q538.453 323.419 531.3 323.419 L525.652 323.419 M520.976 319.576 L530.582 319.576 Q540.628 319.576 545.327 323.766 Q550.027 327.933 550.027 336.822 Q550.027 345.757 545.304 349.946 Q540.582 354.136 530.582 354.136 L520.976 354.136 L520.976 319.576 Z" fill="#000000" fill-rule="nonzero" fill-opacity="1" /><path clip-path="url(#clip830)" d="M579.471 340.109 L579.471 342.192 L559.888 342.192 Q560.165 346.59 562.526 348.905 Q564.911 351.196 569.147 351.196 Q571.6 351.196 573.892 350.595 Q576.207 349.993 578.475 348.789 L578.475 352.817 Q576.184 353.789 573.776 354.298 Q571.369 354.808 568.892 354.808 Q562.688 354.808 559.054 351.196 Q555.443 347.585 555.443 341.428 Q555.443 335.062 558.869 331.335 Q562.318 327.586 568.151 327.586 Q573.383 327.586 576.415 330.965 Q579.471 334.322 579.471 340.109 M575.212 338.859 Q575.165 335.363 573.244 333.28 Q571.346 331.197 568.198 331.197 Q564.633 331.197 562.48 333.21 Q560.351 335.224 560.026 338.882 L575.212 338.859 Z" fill="#000000" fill-rule="nonzero" fill-opacity="1" /><path clip-path="url(#clip830)" d="M605.119 329.206 L605.119 333.187 Q603.313 332.192 601.485 331.706 Q599.679 331.197 597.827 331.197 Q593.684 331.197 591.392 333.835 Q589.1 336.451 589.1 341.197 Q589.1 345.942 591.392 348.581 Q593.684 351.196 597.827 351.196 Q599.679 351.196 601.485 350.71 Q603.313 350.201 605.119 349.206 L605.119 353.141 Q603.336 353.974 601.415 354.391 Q599.517 354.808 597.364 354.808 Q591.508 354.808 588.059 351.127 Q584.61 347.447 584.61 341.197 Q584.61 334.854 588.082 331.22 Q591.577 327.586 597.642 327.586 Q599.61 327.586 601.485 328.002 Q603.36 328.396 605.119 329.206 Z" fill="#000000" fill-rule="nonzero" fill-opacity="1" /><path clip-path="url(#clip830)" d="M627.549 332.192 Q626.832 331.775 625.975 331.59 Q625.142 331.382 624.123 331.382 Q620.512 331.382 618.568 333.743 Q616.647 336.081 616.647 340.479 L616.647 354.136 L612.364 354.136 L612.364 328.211 L616.647 328.211 L616.647 332.238 Q617.989 329.877 620.142 328.743 Q622.295 327.586 625.373 327.586 Q625.813 327.586 626.346 327.655 Q626.878 327.701 627.526 327.817 L627.549 332.192 Z" fill="#000000" fill-rule="nonzero" fill-opacity="1" /><path clip-path="url(#clip830)" d="M653.151 340.109 L653.151 342.192 L633.568 342.192 Q633.846 346.59 636.207 348.905 Q638.591 351.196 642.827 351.196 Q645.281 351.196 647.572 350.595 Q649.887 349.993 652.156 348.789 L652.156 352.817 Q649.864 353.789 647.457 354.298 Q645.049 354.808 642.572 354.808 Q636.369 354.808 632.734 351.196 Q629.123 347.585 629.123 341.428 Q629.123 335.062 632.549 331.335 Q635.998 327.586 641.832 327.586 Q647.063 327.586 650.095 330.965 Q653.151 334.322 653.151 340.109 M648.892 338.859 Q648.845 335.363 646.924 333.28 Q645.026 331.197 641.878 331.197 Q638.313 331.197 636.16 333.21 Q634.031 335.224 633.707 338.882 L648.892 338.859 Z" fill="#000000" fill-rule="nonzero" fill-opacity="1" /><path clip-path="url(#clip830)" d="M671.924 341.104 Q666.762 341.104 664.771 342.284 Q662.781 343.465 662.781 346.312 Q662.781 348.581 664.262 349.923 Q665.767 351.243 668.336 351.243 Q671.878 351.243 674.007 348.743 Q676.16 346.22 676.16 342.053 L676.16 341.104 L671.924 341.104 M680.419 339.345 L680.419 354.136 L676.16 354.136 L676.16 350.201 Q674.702 352.562 672.526 353.696 Q670.35 354.808 667.202 354.808 Q663.22 354.808 660.859 352.585 Q658.521 350.34 658.521 346.59 Q658.521 342.215 661.438 339.993 Q664.378 337.771 670.188 337.771 L676.16 337.771 L676.16 337.354 Q676.16 334.414 674.216 332.817 Q672.294 331.197 668.799 331.197 Q666.577 331.197 664.47 331.729 Q662.364 332.261 660.419 333.326 L660.419 329.391 Q662.757 328.488 664.956 328.048 Q667.156 327.586 669.239 327.586 Q674.864 327.586 677.642 330.502 Q680.419 333.419 680.419 339.345 Z" fill="#000000" fill-rule="nonzero" fill-opacity="1" /><path clip-path="url(#clip830)" d="M705.72 328.974 L705.72 333.002 Q703.915 332.076 701.97 331.613 Q700.026 331.15 697.942 331.15 Q694.771 331.15 693.174 332.123 Q691.6 333.095 691.6 335.039 Q691.6 336.521 692.734 337.377 Q693.868 338.21 697.294 338.974 L698.753 339.298 Q703.29 340.271 705.188 342.053 Q707.109 343.812 707.109 346.984 Q707.109 350.595 704.239 352.701 Q701.391 354.808 696.391 354.808 Q694.308 354.808 692.04 354.391 Q689.794 353.997 687.294 353.187 L687.294 348.789 Q689.655 350.016 691.947 350.641 Q694.239 351.243 696.484 351.243 Q699.493 351.243 701.114 350.224 Q702.734 349.183 702.734 347.308 Q702.734 345.572 701.553 344.646 Q700.396 343.72 696.438 342.863 L694.956 342.516 Q690.998 341.683 689.239 339.97 Q687.479 338.234 687.479 335.224 Q687.479 331.567 690.072 329.576 Q692.665 327.586 697.433 327.586 Q699.794 327.586 701.878 327.933 Q703.961 328.28 705.72 328.974 Z" fill="#000000" fill-rule="nonzero" fill-opacity="1" /><path clip-path="url(#clip830)" d="M713.891 328.211 L718.151 328.211 L718.151 354.136 L713.891 354.136 L713.891 328.211 M713.891 318.118 L718.151 318.118 L718.151 323.511 L713.891 323.511 L713.891 318.118 Z" fill="#000000" fill-rule="nonzero" fill-opacity="1" /><path clip-path="url(#clip830)" d="M748.613 338.488 L748.613 354.136 L744.354 354.136 L744.354 338.627 Q744.354 334.947 742.919 333.118 Q741.484 331.289 738.613 331.289 Q735.164 331.289 733.174 333.488 Q731.183 335.687 731.183 339.484 L731.183 354.136 L726.901 354.136 L726.901 328.211 L731.183 328.211 L731.183 332.238 Q732.711 329.9 734.771 328.743 Q736.854 327.586 739.563 327.586 Q744.03 327.586 746.322 330.363 Q748.613 333.118 748.613 338.488 Z" fill="#000000" fill-rule="nonzero" fill-opacity="1" /><path clip-path="url(#clip830)" d="M774.169 340.872 Q774.169 336.243 772.248 333.697 Q770.349 331.15 766.9 331.15 Q763.474 331.15 761.553 333.697 Q759.655 336.243 759.655 340.872 Q759.655 345.479 761.553 348.025 Q763.474 350.571 766.9 350.571 Q770.349 350.571 772.248 348.025 Q774.169 345.479 774.169 340.872 M778.428 350.919 Q778.428 357.539 775.488 360.757 Q772.548 363.997 766.484 363.997 Q764.238 363.997 762.248 363.65 Q760.257 363.326 758.382 362.632 L758.382 358.488 Q760.257 359.507 762.086 359.993 Q763.914 360.479 765.812 360.479 Q770.002 360.479 772.086 358.28 Q774.169 356.104 774.169 351.683 L774.169 349.576 Q772.849 351.868 770.789 353.002 Q768.729 354.136 765.859 354.136 Q761.09 354.136 758.174 350.502 Q755.257 346.868 755.257 340.872 Q755.257 334.854 758.174 331.22 Q761.09 327.586 765.859 327.586 Q768.729 327.586 770.789 328.72 Q772.849 329.854 774.169 332.146 L774.169 328.211 L778.428 328.211 L778.428 350.919 Z" fill="#000000" fill-rule="nonzero" fill-opacity="1" /><path clip-path="url(#clip830)" d="M812.502 318.164 Q809.4 323.488 807.896 328.697 Q806.391 333.905 806.391 339.252 Q806.391 344.599 807.896 349.854 Q809.423 355.085 812.502 360.386 L808.798 360.386 Q805.326 354.946 803.59 349.692 Q801.877 344.437 801.877 339.252 Q801.877 334.09 803.59 328.859 Q805.303 323.627 808.798 318.164 L812.502 318.164 Z" fill="#000000" fill-rule="nonzero" fill-opacity="1" /><path clip-path="url(#clip830)" d="M835.789 332.192 Q835.071 331.775 834.215 331.59 Q833.381 331.382 832.363 331.382 Q828.752 331.382 826.807 333.743 Q824.886 336.081 824.886 340.479 L824.886 354.136 L820.604 354.136 L820.604 328.211 L824.886 328.211 L824.886 332.238 Q826.229 329.877 828.382 328.743 Q830.534 327.586 833.613 327.586 Q834.053 327.586 834.585 327.655 Q835.118 327.701 835.766 327.817 L835.789 332.192 Z" fill="#000000" fill-rule="nonzero" fill-opacity="1" /><path clip-path="url(#clip830)" d="M840.812 332.609 L870.488 332.609 L870.488 336.497 L840.812 336.497 L840.812 332.609 M840.812 342.053 L870.488 342.053 L870.488 345.988 L840.812 345.988 L840.812 342.053 Z" fill="#000000" fill-rule="nonzero" fill-opacity="1" /><path clip-path="url(#clip830)" d="M881.39 350.201 L889.029 350.201 L889.029 323.836 L880.719 325.502 L880.719 321.243 L888.983 319.576 L893.659 319.576 L893.659 350.201 L901.298 350.201 L901.298 354.136 L881.39 354.136 L881.39 350.201 Z" fill="#000000" fill-rule="nonzero" fill-opacity="1" /><path clip-path="url(#clip830)" d="M910.742 348.257 L915.626 348.257 L915.626 354.136 L910.742 354.136 L910.742 348.257 Z" fill="#000000" fill-rule="nonzero" fill-opacity="1" /><path clip-path="url(#clip830)" d="M935.811 322.655 Q932.2 322.655 930.372 326.22 Q928.566 329.761 928.566 336.891 Q928.566 343.997 930.372 347.562 Q932.2 351.104 935.811 351.104 Q939.446 351.104 941.251 347.562 Q943.08 343.997 943.08 336.891 Q943.08 329.761 941.251 326.22 Q939.446 322.655 935.811 322.655 M935.811 318.951 Q941.622 318.951 944.677 323.558 Q947.756 328.141 947.756 336.891 Q947.756 345.618 944.677 350.224 Q941.622 354.808 935.811 354.808 Q930.001 354.808 926.923 350.224 Q923.867 345.618 923.867 336.891 Q923.867 328.141 926.923 323.558 Q930.001 318.951 935.811 318.951 Z" fill="#000000" fill-rule="nonzero" fill-opacity="1" /><path clip-path="url(#clip830)" d="M954.7 318.164 L958.404 318.164 Q961.876 323.627 963.589 328.859 Q965.325 334.09 965.325 339.252 Q965.325 344.437 963.589 349.692 Q961.876 354.946 958.404 360.386 L954.7 360.386 Q957.779 355.085 959.284 349.854 Q960.811 344.599 960.811 339.252 Q960.811 333.905 959.284 328.697 Q957.779 323.488 954.7 318.164 Z" fill="#000000" fill-rule="nonzero" fill-opacity="1" /><polyline clip-path="url(#clip830)" style="stroke:#008000; stroke-linecap:round; stroke-linejoin:round; stroke-width:8; stroke-opacity:1; fill:none" points="333.147,388.696 494.143,388.696 "/>
<path clip-path="url(#clip830)" d="M525.652 375.259 L525.652 402.134 L531.3 402.134 Q538.453 402.134 541.763 398.893 Q545.096 395.652 545.096 388.662 Q545.096 381.717 541.763 378.5 Q538.453 375.259 531.3 375.259 L525.652 375.259 M520.976 371.416 L530.582 371.416 Q540.628 371.416 545.327 375.606 Q550.027 379.773 550.027 388.662 Q550.027 397.597 545.304 401.786 Q540.582 405.976 530.582 405.976 L520.976 405.976 L520.976 371.416 Z" fill="#000000" fill-rule="nonzero" fill-opacity="1" /><path clip-path="url(#clip830)" d="M579.471 391.949 L579.471 394.032 L559.888 394.032 Q560.165 398.43 562.526 400.745 Q564.911 403.036 569.147 403.036 Q571.6 403.036 573.892 402.435 Q576.207 401.833 578.475 400.629 L578.475 404.657 Q576.184 405.629 573.776 406.138 Q571.369 406.648 568.892 406.648 Q562.688 406.648 559.054 403.036 Q555.443 399.425 555.443 393.268 Q555.443 386.902 558.869 383.175 Q562.318 379.426 568.151 379.426 Q573.383 379.426 576.415 382.805 Q579.471 386.162 579.471 391.949 M575.212 390.699 Q575.165 387.203 573.244 385.12 Q571.346 383.037 568.198 383.037 Q564.633 383.037 562.48 385.05 Q560.351 387.064 560.026 390.722 L575.212 390.699 Z" fill="#000000" fill-rule="nonzero" fill-opacity="1" /><path clip-path="url(#clip830)" d="M605.119 381.046 L605.119 385.027 Q603.313 384.032 601.485 383.546 Q599.679 383.037 597.827 383.037 Q593.684 383.037 591.392 385.675 Q589.1 388.291 589.1 393.037 Q589.1 397.782 591.392 400.421 Q593.684 403.036 597.827 403.036 Q599.679 403.036 601.485 402.55 Q603.313 402.041 605.119 401.046 L605.119 404.981 Q603.336 405.814 601.415 406.231 Q599.517 406.648 597.364 406.648 Q591.508 406.648 588.059 402.967 Q584.61 399.287 584.61 393.037 Q584.61 386.694 588.082 383.06 Q591.577 379.426 597.642 379.426 Q599.61 379.426 601.485 379.842 Q603.36 380.236 605.119 381.046 Z" fill="#000000" fill-rule="nonzero" fill-opacity="1" /><path clip-path="url(#clip830)" d="M629.864 376.254 L629.864 389.148 L642.757 389.148 L642.757 393.083 L629.864 393.083 L629.864 405.976 L625.975 405.976 L625.975 393.083 L613.082 393.083 L613.082 389.148 L625.975 389.148 L625.975 376.254 L629.864 376.254 Z" fill="#000000" fill-rule="nonzero" fill-opacity="1" /><path clip-path="url(#clip830)" d="M657.109 375.259 L657.109 388.245 L662.989 388.245 Q666.253 388.245 668.035 386.555 Q669.818 384.865 669.818 381.74 Q669.818 378.638 668.035 376.949 Q666.253 375.259 662.989 375.259 L657.109 375.259 M652.433 371.416 L662.989 371.416 Q668.799 371.416 671.762 374.055 Q674.748 376.671 674.748 381.74 Q674.748 386.856 671.762 389.472 Q668.799 392.087 662.989 392.087 L657.109 392.087 L657.109 405.976 L652.433 405.976 L652.433 371.416 Z" fill="#000000" fill-rule="nonzero" fill-opacity="1" /><path clip-path="url(#clip830)" d="M689.192 383.037 Q685.767 383.037 683.776 385.722 Q681.785 388.384 681.785 393.037 Q681.785 397.689 683.753 400.374 Q685.743 403.036 689.192 403.036 Q692.595 403.036 694.586 400.351 Q696.577 397.666 696.577 393.037 Q696.577 388.43 694.586 385.745 Q692.595 383.037 689.192 383.037 M689.192 379.426 Q694.748 379.426 697.919 383.037 Q701.091 386.648 701.091 393.037 Q701.091 399.402 697.919 403.036 Q694.748 406.648 689.192 406.648 Q683.614 406.648 680.442 403.036 Q677.294 399.402 677.294 393.037 Q677.294 386.648 680.442 383.037 Q683.614 379.426 689.192 379.426 Z" fill="#000000" fill-rule="nonzero" fill-opacity="1" /><path clip-path="url(#clip830)" d="M724.678 380.814 L724.678 384.842 Q722.873 383.916 720.928 383.453 Q718.984 382.99 716.901 382.99 Q713.729 382.99 712.132 383.963 Q710.558 384.935 710.558 386.879 Q710.558 388.361 711.692 389.217 Q712.827 390.05 716.252 390.814 L717.711 391.138 Q722.248 392.111 724.146 393.893 Q726.067 395.652 726.067 398.824 Q726.067 402.435 723.197 404.541 Q720.35 406.648 715.35 406.648 Q713.266 406.648 710.998 406.231 Q708.753 405.837 706.253 405.027 L706.253 400.629 Q708.614 401.856 710.905 402.481 Q713.197 403.083 715.442 403.083 Q718.452 403.083 720.072 402.064 Q721.692 401.023 721.692 399.148 Q721.692 397.412 720.512 396.486 Q719.354 395.56 715.396 394.703 L713.915 394.356 Q709.956 393.523 708.197 391.81 Q706.438 390.074 706.438 387.064 Q706.438 383.407 709.03 381.416 Q711.623 379.426 716.391 379.426 Q718.752 379.426 720.836 379.773 Q722.919 380.12 724.678 380.814 Z" fill="#000000" fill-rule="nonzero" fill-opacity="1" /><path clip-path="url(#clip830)" d="M732.85 380.051 L737.109 380.051 L737.109 405.976 L732.85 405.976 L732.85 380.051 M732.85 369.958 L737.109 369.958 L737.109 375.351 L732.85 375.351 L732.85 369.958 Z" fill="#000000" fill-rule="nonzero" fill-opacity="1" /><path clip-path="url(#clip830)" d="M750.234 372.689 L750.234 380.051 L759.007 380.051 L759.007 383.361 L750.234 383.361 L750.234 397.435 Q750.234 400.606 751.09 401.509 Q751.97 402.411 754.632 402.411 L759.007 402.411 L759.007 405.976 L754.632 405.976 Q749.701 405.976 747.826 404.148 Q745.951 402.296 745.951 397.435 L745.951 383.361 L742.826 383.361 L742.826 380.051 L745.951 380.051 L745.951 372.689 L750.234 372.689 Z" fill="#000000" fill-rule="nonzero" fill-opacity="1" /><path clip-path="url(#clip830)" d="M764.609 380.051 L768.868 380.051 L768.868 405.976 L764.609 405.976 L764.609 380.051 M764.609 369.958 L768.868 369.958 L768.868 375.351 L764.609 375.351 L764.609 369.958 Z" fill="#000000" fill-rule="nonzero" fill-opacity="1" /><path clip-path="url(#clip830)" d="M774.724 380.051 L779.238 380.051 L787.34 401.81 L795.442 380.051 L799.956 380.051 L790.234 405.976 L784.447 405.976 L774.724 380.051 Z" fill="#000000" fill-rule="nonzero" fill-opacity="1" /><path clip-path="url(#clip830)" d="M828.011 391.949 L828.011 394.032 L808.428 394.032 Q808.706 398.43 811.067 400.745 Q813.451 403.036 817.687 403.036 Q820.141 403.036 822.432 402.435 Q824.747 401.833 827.016 400.629 L827.016 404.657 Q824.724 405.629 822.317 406.138 Q819.909 406.648 817.432 406.648 Q811.229 406.648 807.595 403.036 Q803.983 399.425 803.983 393.268 Q803.983 386.902 807.409 383.175 Q810.858 379.426 816.692 379.426 Q821.923 379.426 824.956 382.805 Q828.011 386.162 828.011 391.949 M823.752 390.699 Q823.706 387.203 821.784 385.12 Q819.886 383.037 816.738 383.037 Q813.173 383.037 811.02 385.05 Q808.891 387.064 808.567 390.722 L823.752 390.699 Z" fill="#000000" fill-rule="nonzero" fill-opacity="1" /><path clip-path="url(#clip830)" d="M860.303 370.004 Q857.201 375.328 855.696 380.537 Q854.192 385.745 854.192 391.092 Q854.192 396.439 855.696 401.694 Q857.224 406.925 860.303 412.226 L856.599 412.226 Q853.127 406.786 851.391 401.532 Q849.678 396.277 849.678 391.092 Q849.678 385.93 851.391 380.699 Q853.104 375.467 856.599 370.004 L860.303 370.004 Z" fill="#000000" fill-rule="nonzero" fill-opacity="1" /><path clip-path="url(#clip830)" d="M883.59 384.032 Q882.872 383.615 882.015 383.43 Q881.182 383.222 880.164 383.222 Q876.553 383.222 874.608 385.583 Q872.687 387.921 872.687 392.319 L872.687 405.976 L868.404 405.976 L868.404 380.051 L872.687 380.051 L872.687 384.078 Q874.029 381.717 876.182 380.583 Q878.335 379.426 881.414 379.426 Q881.853 379.426 882.386 379.495 Q882.918 379.541 883.566 379.657 L883.59 384.032 Z" fill="#000000" fill-rule="nonzero" fill-opacity="1" /><path clip-path="url(#clip830)" d="M888.613 384.449 L918.288 384.449 L918.288 388.337 L888.613 388.337 L888.613 384.449 M888.613 393.893 L918.288 393.893 L918.288 397.828 L888.613 397.828 L888.613 393.893 Z" fill="#000000" fill-rule="nonzero" fill-opacity="1" /><path clip-path="url(#clip830)" d="M938.381 374.495 Q934.77 374.495 932.941 378.06 Q931.136 381.601 931.136 388.731 Q931.136 395.837 932.941 399.402 Q934.77 402.944 938.381 402.944 Q942.015 402.944 943.821 399.402 Q945.649 395.837 945.649 388.731 Q945.649 381.601 943.821 378.06 Q942.015 374.495 938.381 374.495 M938.381 370.791 Q944.191 370.791 947.247 375.398 Q950.325 379.981 950.325 388.731 Q950.325 397.458 947.247 402.064 Q944.191 406.648 938.381 406.648 Q932.571 406.648 929.492 402.064 Q926.437 397.458 926.437 388.731 Q926.437 379.981 929.492 375.398 Q932.571 370.791 938.381 370.791 Z" fill="#000000" fill-rule="nonzero" fill-opacity="1" /><path clip-path="url(#clip830)" d="M958.543 400.097 L963.427 400.097 L963.427 405.976 L958.543 405.976 L958.543 400.097 Z" fill="#000000" fill-rule="nonzero" fill-opacity="1" /><path clip-path="url(#clip830)" d="M973.751 405.259 L973.751 400.999 Q975.51 401.833 977.316 402.273 Q979.121 402.712 980.858 402.712 Q985.487 402.712 987.918 399.611 Q990.371 396.486 990.719 390.143 Q989.376 392.134 987.316 393.199 Q985.256 394.263 982.756 394.263 Q977.571 394.263 974.538 391.138 Q971.529 387.99 971.529 382.55 Q971.529 377.226 974.677 374.009 Q977.825 370.791 983.057 370.791 Q989.052 370.791 992.2 375.398 Q995.371 379.981 995.371 388.731 Q995.371 396.902 991.482 401.786 Q987.617 406.648 981.066 406.648 Q979.307 406.648 977.501 406.3 Q975.696 405.953 973.751 405.259 M983.057 390.606 Q986.205 390.606 988.033 388.453 Q989.885 386.3 989.885 382.55 Q989.885 378.824 988.033 376.671 Q986.205 374.495 983.057 374.495 Q979.908 374.495 978.057 376.671 Q976.228 378.824 976.228 382.55 Q976.228 386.3 978.057 388.453 Q979.908 390.606 983.057 390.606 Z" fill="#000000" fill-rule="nonzero" fill-opacity="1" /><path clip-path="url(#clip830)" d="M1003.91 405.259 L1003.91 400.999 Q1005.67 401.833 1007.48 402.273 Q1009.28 402.712 1011.02 402.712 Q1015.65 402.712 1018.08 399.611 Q1020.53 396.486 1020.88 390.143 Q1019.54 392.134 1017.48 393.199 Q1015.42 394.263 1012.92 394.263 Q1007.73 394.263 1004.7 391.138 Q1001.69 387.99 1001.69 382.55 Q1001.69 377.226 1004.84 374.009 Q1007.99 370.791 1013.22 370.791 Q1019.21 370.791 1022.36 375.398 Q1025.53 379.981 1025.53 388.731 Q1025.53 396.902 1021.64 401.786 Q1017.78 406.648 1011.23 406.648 Q1009.47 406.648 1007.66 406.3 Q1005.86 405.953 1003.91 405.259 M1013.22 390.606 Q1016.37 390.606 1018.2 388.453 Q1020.05 386.3 1020.05 382.55 Q1020.05 378.824 1018.2 376.671 Q1016.37 374.495 1013.22 374.495 Q1010.07 374.495 1008.22 376.671 Q1006.39 378.824 1006.39 382.55 Q1006.39 386.3 1008.22 388.453 Q1010.07 390.606 1013.22 390.606 Z" fill="#000000" fill-rule="nonzero" fill-opacity="1" /><path clip-path="url(#clip830)" d="M1046.78 375.49 L1034.98 393.939 L1046.78 393.939 L1046.78 375.49 M1045.56 371.416 L1051.44 371.416 L1051.44 393.939 L1056.37 393.939 L1056.37 397.828 L1051.44 397.828 L1051.44 405.976 L1046.78 405.976 L1046.78 397.828 L1031.18 397.828 L1031.18 393.314 L1045.56 371.416 Z" fill="#000000" fill-rule="nonzero" fill-opacity="1" /><path clip-path="url(#clip830)" d="M1062.82 370.004 L1066.53 370.004 Q1070 375.467 1071.71 380.699 Q1073.45 385.93 1073.45 391.092 Q1073.45 396.277 1071.71 401.532 Q1070 406.786 1066.53 412.226 L1062.82 412.226 Q1065.9 406.925 1067.41 401.694 Q1068.94 396.439 1068.94 391.092 Q1068.94 385.745 1067.41 380.537 Q1065.9 375.328 1062.82 370.004 Z" fill="#000000" fill-rule="nonzero" fill-opacity="1" /></svg>
