<?xml version="1.0" encoding="utf-8"?>
<svg xmlns="http://www.w3.org/2000/svg" xmlns:xlink="http://www.w3.org/1999/xlink" width="672" height="480" viewBox="0 0 2688 1920">
<defs>
  <clipPath id="clip100">
    <rect x="0" y="0" width="2688" height="1920"/>
  </clipPath>
</defs>
<path clip-path="url(#clip100)" d="M0 1920 L2688 1920 L2688 -4.26326e-14 L0 -4.26326e-14  Z" fill="#ffffff" fill-rule="evenodd" fill-opacity="1"/>
<defs>
  <clipPath id="clip101">
    <rect x="217" y="127" width="2425" height="1607"/>
  </clipPath>
</defs>
<path clip-path="url(#clip100)" d="M217.02 1734.12 L2640.76 1734.12 L2640.76 127.792 L217.02 127.792  Z" fill="#ffffff" fill-rule="evenodd" fill-opacity="1"/>
<polyline clip-path="url(#clip101)" style="stroke:#000000; stroke-linecap:round; stroke-linejoin:round; stroke-width:2; stroke-opacity:0.1; fill:none" points="268.553,1734.12 268.553,127.792 "/>
<polyline clip-path="url(#clip101)" style="stroke:#000000; stroke-linecap:round; stroke-linejoin:round; stroke-width:2; stroke-opacity:0.1; fill:none" points="609.828,1734.12 609.828,127.792 "/>
<polyline clip-path="url(#clip101)" style="stroke:#000000; stroke-linecap:round; stroke-linejoin:round; stroke-width:2; stroke-opacity:0.1; fill:none" points="951.103,1734.12 951.103,127.792 "/>
<polyline clip-path="url(#clip101)" style="stroke:#000000; stroke-linecap:round; stroke-linejoin:round; stroke-width:2; stroke-opacity:0.1; fill:none" points="1292.38,1734.12 1292.38,127.792 "/>
<polyline clip-path="url(#clip101)" style="stroke:#000000; stroke-linecap:round; stroke-linejoin:round; stroke-width:2; stroke-opacity:0.1; fill:none" points="1633.65,1734.12 1633.65,127.792 "/>
<polyline clip-path="url(#clip101)" style="stroke:#000000; stroke-linecap:round; stroke-linejoin:round; stroke-width:2; stroke-opacity:0.1; fill:none" points="1974.93,1734.12 1974.93,127.792 "/>
<polyline clip-path="url(#clip101)" style="stroke:#000000; stroke-linecap:round; stroke-linejoin:round; stroke-width:2; stroke-opacity:0.1; fill:none" points="2316.2,1734.12 2316.2,127.792 "/>
<polyline clip-path="url(#clip101)" style="stroke:#000000; stroke-linecap:round; stroke-linejoin:round; stroke-width:2; stroke-opacity:0.1; fill:none" points="217.02,1423.7 2640.76,1423.7 "/>
<polyline clip-path="url(#clip101)" style="stroke:#000000; stroke-linecap:round; stroke-linejoin:round; stroke-width:2; stroke-opacity:0.1; fill:none" points="217.02,1038.58 2640.76,1038.58 "/>
<polyline clip-path="url(#clip101)" style="stroke:#000000; stroke-linecap:round; stroke-linejoin:round; stroke-width:2; stroke-opacity:0.1; fill:none" points="217.02,653.455 2640.76,653.455 "/>
<polyline clip-path="url(#clip101)" style="stroke:#000000; stroke-linecap:round; stroke-linejoin:round; stroke-width:2; stroke-opacity:0.1; fill:none" points="217.02,268.33 2640.76,268.33 "/>
<polyline clip-path="url(#clip100)" style="stroke:#000000; stroke-linecap:round; stroke-linejoin:round; stroke-width:4; stroke-opacity:1; fill:none" points="217.02,1734.12 2640.76,1734.12 "/>
<polyline clip-path="url(#clip100)" style="stroke:#000000; stroke-linecap:round; stroke-linejoin:round; stroke-width:4; stroke-opacity:1; fill:none" points="268.553,1734.12 268.553,1715.22 "/>
<polyline clip-path="url(#clip100)" style="stroke:#000000; stroke-linecap:round; stroke-linejoin:round; stroke-width:4; stroke-opacity:1; fill:none" points="609.828,1734.12 609.828,1715.22 "/>
<polyline clip-path="url(#clip100)" style="stroke:#000000; stroke-linecap:round; stroke-linejoin:round; stroke-width:4; stroke-opacity:1; fill:none" points="951.103,1734.12 951.103,1715.22 "/>
<polyline clip-path="url(#clip100)" style="stroke:#000000; stroke-linecap:round; stroke-linejoin:round; stroke-width:4; stroke-opacity:1; fill:none" points="1292.38,1734.12 1292.38,1715.22 "/>
<polyline clip-path="url(#clip100)" style="stroke:#000000; stroke-linecap:round; stroke-linejoin:round; stroke-width:4; stroke-opacity:1; fill:none" points="1633.65,1734.12 1633.65,1715.22 "/>
<polyline clip-path="url(#clip100)" style="stroke:#000000; stroke-linecap:round; stroke-linejoin:round; stroke-width:4; stroke-opacity:1; fill:none" points="1974.93,1734.12 1974.93,1715.22 "/>
<polyline clip-path="url(#clip100)" style="stroke:#000000; stroke-linecap:round; stroke-linejoin:round; stroke-width:4; stroke-opacity:1; fill:none" points="2316.2,1734.12 2316.2,1715.22 "/>
<path clip-path="url(#clip100)" d="M268.553 1767.34 Q264.942 1767.34 263.113 1770.9 Q261.307 1774.45 261.307 1781.58 Q261.307 1788.68 263.113 1792.25 Q264.942 1795.79 268.553 1795.79 Q272.187 1795.79 273.993 1792.25 Q275.821 1788.68 275.821 1781.58 Q275.821 1774.45 273.993 1770.9 Q272.187 1767.34 268.553 1767.34 M268.553 1763.64 Q274.363 1763.64 277.418 1768.24 Q280.497 1772.83 280.497 1781.58 Q280.497 1790.3 277.418 1794.91 Q274.363 1799.49 268.553 1799.49 Q262.743 1799.49 259.664 1794.91 Q256.608 1790.3 256.608 1781.58 Q256.608 1772.83 259.664 1768.24 Q262.743 1763.64 268.553 1763.64 Z" fill="#000000" fill-rule="nonzero" fill-opacity="1" /><path clip-path="url(#clip100)" d="M588.601 1794.89 L604.92 1794.89 L604.92 1798.82 L582.976 1798.82 L582.976 1794.89 Q585.638 1792.13 590.221 1787.5 Q594.828 1782.85 596.008 1781.51 Q598.254 1778.98 599.133 1777.25 Q600.036 1775.49 600.036 1773.8 Q600.036 1771.04 598.092 1769.31 Q596.171 1767.57 593.069 1767.57 Q590.87 1767.57 588.416 1768.34 Q585.985 1769.1 583.208 1770.65 L583.208 1765.93 Q586.032 1764.79 588.485 1764.21 Q590.939 1763.64 592.976 1763.64 Q598.346 1763.64 601.541 1766.32 Q604.735 1769.01 604.735 1773.5 Q604.735 1775.63 603.925 1777.55 Q603.138 1779.45 601.032 1782.04 Q600.453 1782.71 597.351 1785.93 Q594.249 1789.12 588.601 1794.89 Z" fill="#000000" fill-rule="nonzero" fill-opacity="1" /><path clip-path="url(#clip100)" d="M624.735 1767.34 Q621.124 1767.34 619.295 1770.9 Q617.49 1774.45 617.49 1781.58 Q617.49 1788.68 619.295 1792.25 Q621.124 1795.79 624.735 1795.79 Q628.369 1795.79 630.175 1792.25 Q632.004 1788.68 632.004 1781.58 Q632.004 1774.45 630.175 1770.9 Q628.369 1767.34 624.735 1767.34 M624.735 1763.64 Q630.545 1763.64 633.601 1768.24 Q636.68 1772.83 636.68 1781.58 Q636.68 1790.3 633.601 1794.91 Q630.545 1799.49 624.735 1799.49 Q618.925 1799.49 615.846 1794.91 Q612.791 1790.3 612.791 1781.58 Q612.791 1772.83 615.846 1768.24 Q618.925 1763.64 624.735 1763.64 Z" fill="#000000" fill-rule="nonzero" fill-opacity="1" /><path clip-path="url(#clip100)" d="M939.274 1768.34 L927.469 1786.78 L939.274 1786.78 L939.274 1768.34 M938.047 1764.26 L943.927 1764.26 L943.927 1786.78 L948.858 1786.78 L948.858 1790.67 L943.927 1790.67 L943.927 1798.82 L939.274 1798.82 L939.274 1790.67 L923.673 1790.67 L923.673 1786.16 L938.047 1764.26 Z" fill="#000000" fill-rule="nonzero" fill-opacity="1" /><path clip-path="url(#clip100)" d="M966.589 1767.34 Q962.978 1767.34 961.149 1770.9 Q959.344 1774.45 959.344 1781.58 Q959.344 1788.68 961.149 1792.25 Q962.978 1795.79 966.589 1795.79 Q970.223 1795.79 972.029 1792.25 Q973.857 1788.68 973.857 1781.58 Q973.857 1774.45 972.029 1770.9 Q970.223 1767.34 966.589 1767.34 M966.589 1763.64 Q972.399 1763.64 975.455 1768.24 Q978.533 1772.83 978.533 1781.58 Q978.533 1790.3 975.455 1794.91 Q972.399 1799.49 966.589 1799.49 Q960.779 1799.49 957.7 1794.91 Q954.645 1790.3 954.645 1781.58 Q954.645 1772.83 957.7 1768.24 Q960.779 1763.64 966.589 1763.64 Z" fill="#000000" fill-rule="nonzero" fill-opacity="1" /><path clip-path="url(#clip100)" d="M1277.78 1779.68 Q1274.64 1779.68 1272.78 1781.83 Q1270.95 1783.98 1270.95 1787.73 Q1270.95 1791.46 1272.78 1793.64 Q1274.64 1795.79 1277.78 1795.79 Q1280.93 1795.79 1282.76 1793.64 Q1284.61 1791.46 1284.61 1787.73 Q1284.61 1783.98 1282.76 1781.83 Q1280.93 1779.68 1277.78 1779.68 M1287.07 1765.02 L1287.07 1769.28 Q1285.31 1768.45 1283.5 1768.01 Q1281.72 1767.57 1279.96 1767.57 Q1275.33 1767.57 1272.88 1770.7 Q1270.45 1773.82 1270.1 1780.14 Q1271.46 1778.13 1273.52 1777.06 Q1275.58 1775.97 1278.06 1775.97 Q1283.27 1775.97 1286.28 1779.15 Q1289.31 1782.29 1289.31 1787.73 Q1289.31 1793.06 1286.16 1796.27 Q1283.01 1799.49 1277.78 1799.49 Q1271.79 1799.49 1268.62 1794.91 Q1265.45 1790.3 1265.45 1781.58 Q1265.45 1773.38 1269.33 1768.52 Q1273.22 1763.64 1279.77 1763.64 Q1281.53 1763.64 1283.32 1763.98 Q1285.12 1764.33 1287.07 1765.02 Z" fill="#000000" fill-rule="nonzero" fill-opacity="1" /><path clip-path="url(#clip100)" d="M1307.37 1767.34 Q1303.76 1767.34 1301.93 1770.9 Q1300.12 1774.45 1300.12 1781.58 Q1300.12 1788.68 1301.93 1792.25 Q1303.76 1795.79 1307.37 1795.79 Q1311 1795.79 1312.81 1792.25 Q1314.63 1788.68 1314.63 1781.58 Q1314.63 1774.45 1312.81 1770.9 Q1311 1767.34 1307.37 1767.34 M1307.37 1763.64 Q1313.18 1763.64 1316.23 1768.24 Q1319.31 1772.83 1319.31 1781.58 Q1319.31 1790.3 1316.23 1794.91 Q1313.18 1799.49 1307.37 1799.49 Q1301.56 1799.49 1298.48 1794.91 Q1295.42 1790.3 1295.42 1781.58 Q1295.42 1772.83 1298.48 1768.24 Q1301.56 1763.64 1307.37 1763.64 Z" fill="#000000" fill-rule="nonzero" fill-opacity="1" /><path clip-path="url(#clip100)" d="M1618.53 1782.41 Q1615.19 1782.41 1613.27 1784.19 Q1611.37 1785.97 1611.37 1789.1 Q1611.37 1792.22 1613.27 1794.01 Q1615.19 1795.79 1618.53 1795.79 Q1621.86 1795.79 1623.78 1794.01 Q1625.7 1792.2 1625.7 1789.1 Q1625.7 1785.97 1623.78 1784.19 Q1621.88 1782.41 1618.53 1782.41 M1613.85 1780.42 Q1610.84 1779.68 1609.15 1777.62 Q1607.48 1775.56 1607.48 1772.59 Q1607.48 1768.45 1610.42 1766.04 Q1613.39 1763.64 1618.53 1763.64 Q1623.69 1763.64 1626.63 1766.04 Q1629.57 1768.45 1629.57 1772.59 Q1629.57 1775.56 1627.88 1777.62 Q1626.21 1779.68 1623.22 1780.42 Q1626.6 1781.21 1628.48 1783.5 Q1630.38 1785.79 1630.38 1789.1 Q1630.38 1794.12 1627.3 1796.81 Q1624.24 1799.49 1618.53 1799.49 Q1612.81 1799.49 1609.73 1796.81 Q1606.67 1794.12 1606.67 1789.1 Q1606.67 1785.79 1608.57 1783.5 Q1610.47 1781.21 1613.85 1780.42 M1612.14 1773.03 Q1612.14 1775.72 1613.8 1777.22 Q1615.49 1778.73 1618.53 1778.73 Q1621.54 1778.73 1623.22 1777.22 Q1624.94 1775.72 1624.94 1773.03 Q1624.94 1770.35 1623.22 1768.84 Q1621.54 1767.34 1618.53 1767.34 Q1615.49 1767.34 1613.8 1768.84 Q1612.14 1770.35 1612.14 1773.03 Z" fill="#000000" fill-rule="nonzero" fill-opacity="1" /><path clip-path="url(#clip100)" d="M1648.69 1767.34 Q1645.08 1767.34 1643.25 1770.9 Q1641.44 1774.45 1641.44 1781.58 Q1641.44 1788.68 1643.25 1792.25 Q1645.08 1795.79 1648.69 1795.79 Q1652.32 1795.79 1654.13 1792.25 Q1655.96 1788.68 1655.96 1781.58 Q1655.96 1774.45 1654.13 1770.9 Q1652.32 1767.34 1648.69 1767.34 M1648.69 1763.64 Q1654.5 1763.64 1657.55 1768.24 Q1660.63 1772.83 1660.63 1781.58 Q1660.63 1790.3 1657.55 1794.91 Q1654.5 1799.49 1648.69 1799.49 Q1642.88 1799.49 1639.8 1794.91 Q1636.74 1790.3 1636.74 1781.58 Q1636.74 1772.83 1639.8 1768.24 Q1642.88 1763.64 1648.69 1763.64 Z" fill="#000000" fill-rule="nonzero" fill-opacity="1" /><path clip-path="url(#clip100)" d="M1934.53 1794.89 L1942.17 1794.89 L1942.17 1768.52 L1933.86 1770.19 L1933.86 1765.93 L1942.13 1764.26 L1946.8 1764.26 L1946.8 1794.89 L1954.44 1794.89 L1954.44 1798.82 L1934.53 1798.82 L1934.53 1794.89 Z" fill="#000000" fill-rule="nonzero" fill-opacity="1" /><path clip-path="url(#clip100)" d="M1973.89 1767.34 Q1970.28 1767.34 1968.45 1770.9 Q1966.64 1774.45 1966.64 1781.58 Q1966.64 1788.68 1968.45 1792.25 Q1970.28 1795.79 1973.89 1795.79 Q1977.52 1795.79 1979.33 1792.25 Q1981.16 1788.68 1981.16 1781.58 Q1981.16 1774.45 1979.33 1770.9 Q1977.52 1767.34 1973.89 1767.34 M1973.89 1763.64 Q1979.7 1763.64 1982.75 1768.24 Q1985.83 1772.83 1985.83 1781.58 Q1985.83 1790.3 1982.75 1794.91 Q1979.7 1799.49 1973.89 1799.49 Q1968.08 1799.49 1965 1794.91 Q1961.94 1790.3 1961.94 1781.58 Q1961.94 1772.83 1965 1768.24 Q1968.08 1763.64 1973.89 1763.64 Z" fill="#000000" fill-rule="nonzero" fill-opacity="1" /><path clip-path="url(#clip100)" d="M2004.05 1767.34 Q2000.44 1767.34 1998.61 1770.9 Q1996.8 1774.45 1996.8 1781.58 Q1996.8 1788.68 1998.61 1792.25 Q2000.44 1795.79 2004.05 1795.79 Q2007.68 1795.79 2009.49 1792.25 Q2011.32 1788.68 2011.32 1781.58 Q2011.32 1774.45 2009.49 1770.9 Q2007.68 1767.34 2004.05 1767.34 M2004.05 1763.64 Q2009.86 1763.64 2012.91 1768.24 Q2015.99 1772.83 2015.99 1781.58 Q2015.99 1790.3 2012.91 1794.91 Q2009.86 1799.49 2004.05 1799.49 Q1998.24 1799.49 1995.16 1794.91 Q1992.1 1790.3 1992.1 1781.58 Q1992.1 1772.83 1995.16 1768.24 Q1998.24 1763.64 2004.05 1763.64 Z" fill="#000000" fill-rule="nonzero" fill-opacity="1" /><path clip-path="url(#clip100)" d="M2275.81 1794.89 L2283.45 1794.89 L2283.45 1768.52 L2275.14 1770.19 L2275.14 1765.93 L2283.4 1764.26 L2288.08 1764.26 L2288.08 1794.89 L2295.72 1794.89 L2295.72 1798.82 L2275.81 1798.82 L2275.81 1794.89 Z" fill="#000000" fill-rule="nonzero" fill-opacity="1" /><path clip-path="url(#clip100)" d="M2309.19 1794.89 L2325.51 1794.89 L2325.51 1798.82 L2303.56 1798.82 L2303.56 1794.89 Q2306.23 1792.13 2310.81 1787.5 Q2315.42 1782.85 2316.6 1781.51 Q2318.84 1778.98 2319.72 1777.25 Q2320.62 1775.49 2320.62 1773.8 Q2320.62 1771.04 2318.68 1769.31 Q2316.76 1767.57 2313.66 1767.57 Q2311.46 1767.57 2309 1768.34 Q2306.57 1769.1 2303.8 1770.65 L2303.8 1765.93 Q2306.62 1764.79 2309.07 1764.21 Q2311.53 1763.64 2313.56 1763.64 Q2318.93 1763.64 2322.13 1766.32 Q2325.32 1769.01 2325.32 1773.5 Q2325.32 1775.63 2324.51 1777.55 Q2323.73 1779.45 2321.62 1782.04 Q2321.04 1782.71 2317.94 1785.93 Q2314.84 1789.12 2309.19 1794.89 Z" fill="#000000" fill-rule="nonzero" fill-opacity="1" /><path clip-path="url(#clip100)" d="M2345.32 1767.34 Q2341.71 1767.34 2339.88 1770.9 Q2338.08 1774.45 2338.08 1781.58 Q2338.08 1788.68 2339.88 1792.25 Q2341.71 1795.79 2345.32 1795.79 Q2348.96 1795.79 2350.76 1792.25 Q2352.59 1788.68 2352.59 1781.58 Q2352.59 1774.45 2350.76 1770.9 Q2348.96 1767.34 2345.32 1767.34 M2345.32 1763.64 Q2351.13 1763.64 2354.19 1768.24 Q2357.27 1772.83 2357.27 1781.58 Q2357.27 1790.3 2354.19 1794.91 Q2351.13 1799.49 2345.32 1799.49 Q2339.51 1799.49 2336.43 1794.91 Q2333.38 1790.3 2333.38 1781.58 Q2333.38 1772.83 2336.43 1768.24 Q2339.51 1763.64 2345.32 1763.64 Z" fill="#000000" fill-rule="nonzero" fill-opacity="1" /><path clip-path="url(#clip100)" d="M1309.91 1841.06 L1309.91 1858.92 L1318 1858.92 Q1322.49 1858.92 1324.94 1856.6 Q1327.39 1854.27 1327.39 1849.98 Q1327.39 1845.71 1324.94 1843.39 Q1322.49 1841.06 1318 1841.06 L1309.91 1841.06 M1303.48 1835.78 L1318 1835.78 Q1325.99 1835.78 1330.06 1839.41 Q1334.17 1843.01 1334.17 1849.98 Q1334.17 1857.01 1330.06 1860.61 Q1325.99 1864.2 1318 1864.2 L1309.91 1864.2 L1309.91 1883.3 L1303.48 1883.3 L1303.48 1835.78 Z" fill="#000000" fill-rule="nonzero" fill-opacity="1" /><path clip-path="url(#clip100)" d="M1362.05 1853.13 Q1361.06 1852.55 1359.88 1852.3 Q1358.74 1852.01 1357.34 1852.01 Q1352.37 1852.01 1349.7 1855.26 Q1347.06 1858.47 1347.06 1864.52 L1347.06 1883.3 L1341.17 1883.3 L1341.17 1847.65 L1347.06 1847.65 L1347.06 1853.19 Q1348.9 1849.94 1351.86 1848.39 Q1354.82 1846.79 1359.06 1846.79 Q1359.66 1846.79 1360.39 1846.89 Q1361.13 1846.95 1362.02 1847.11 L1362.05 1853.13 Z" fill="#000000" fill-rule="nonzero" fill-opacity="1" /><path clip-path="url(#clip100)" d="M1397.25 1864.01 L1397.25 1866.88 L1370.32 1866.88 Q1370.71 1872.92 1373.95 1876.11 Q1377.23 1879.26 1383.05 1879.26 Q1386.43 1879.26 1389.58 1878.43 Q1392.76 1877.6 1395.88 1875.95 L1395.88 1881.49 Q1392.73 1882.82 1389.42 1883.52 Q1386.11 1884.22 1382.7 1884.22 Q1374.17 1884.22 1369.18 1879.26 Q1364.21 1874.29 1364.21 1865.83 Q1364.21 1857.07 1368.92 1851.95 Q1373.67 1846.79 1381.69 1846.79 Q1388.88 1846.79 1393.05 1851.44 Q1397.25 1856.06 1397.25 1864.01 M1391.39 1862.29 Q1391.33 1857.49 1388.69 1854.62 Q1386.08 1851.76 1381.75 1851.76 Q1376.85 1851.76 1373.89 1854.53 Q1370.96 1857.3 1370.51 1862.33 L1391.39 1862.29 Z" fill="#000000" fill-rule="nonzero" fill-opacity="1" /><path clip-path="url(#clip100)" d="M1421.69 1886.61 Q1419.21 1892.98 1416.86 1894.92 Q1414.5 1896.86 1410.55 1896.86 L1405.88 1896.86 L1405.88 1891.96 L1409.31 1891.96 Q1411.73 1891.96 1413.07 1890.81 Q1414.41 1889.67 1416.03 1885.4 L1417.08 1882.73 L1402.66 1847.65 L1408.87 1847.65 L1420.01 1875.53 L1431.15 1847.65 L1437.35 1847.65 L1421.69 1886.61 Z" fill="#000000" fill-rule="nonzero" fill-opacity="1" /><path clip-path="url(#clip100)" d="M1480.23 1833.84 Q1475.96 1841.16 1473.89 1848.32 Q1471.82 1855.48 1471.82 1862.84 Q1471.82 1870.19 1473.89 1877.41 Q1475.99 1884.61 1480.23 1891.89 L1475.13 1891.89 Q1470.36 1884.41 1467.97 1877.19 Q1465.62 1869.96 1465.62 1862.84 Q1465.62 1855.74 1467.97 1848.54 Q1470.33 1841.35 1475.13 1833.84 L1480.23 1833.84 Z" fill="#000000" fill-rule="nonzero" fill-opacity="1" /><path clip-path="url(#clip100)" d="M1491.84 1835.78 L1498.27 1835.78 L1498.27 1855.26 L1521.64 1855.26 L1521.64 1835.78 L1528.07 1835.78 L1528.07 1883.3 L1521.64 1883.3 L1521.64 1860.67 L1498.27 1860.67 L1498.27 1883.3 L1491.84 1883.3 L1491.84 1835.78 Z" fill="#000000" fill-rule="nonzero" fill-opacity="1" /><path clip-path="url(#clip100)" d="M1539.68 1833.84 L1544.78 1833.84 Q1549.55 1841.35 1551.91 1848.54 Q1554.29 1855.74 1554.29 1862.84 Q1554.29 1869.96 1551.91 1877.19 Q1549.55 1884.41 1544.78 1891.89 L1539.68 1891.89 Q1543.92 1884.61 1545.99 1877.41 Q1548.09 1870.19 1548.09 1862.84 Q1548.09 1855.48 1545.99 1848.32 Q1543.92 1841.16 1539.68 1833.84 Z" fill="#000000" fill-rule="nonzero" fill-opacity="1" /><polyline clip-path="url(#clip100)" style="stroke:#000000; stroke-linecap:round; stroke-linejoin:round; stroke-width:4; stroke-opacity:1; fill:none" points="217.02,1734.12 217.02,127.792 "/>
<polyline clip-path="url(#clip100)" style="stroke:#000000; stroke-linecap:round; stroke-linejoin:round; stroke-width:4; stroke-opacity:1; fill:none" points="217.02,1423.7 235.918,1423.7 "/>
<polyline clip-path="url(#clip100)" style="stroke:#000000; stroke-linecap:round; stroke-linejoin:round; stroke-width:4; stroke-opacity:1; fill:none" points="217.02,1038.58 235.918,1038.58 "/>
<polyline clip-path="url(#clip100)" style="stroke:#000000; stroke-linecap:round; stroke-linejoin:round; stroke-width:4; stroke-opacity:1; fill:none" points="217.02,653.455 235.918,653.455 "/>
<polyline clip-path="url(#clip100)" style="stroke:#000000; stroke-linecap:round; stroke-linejoin:round; stroke-width:4; stroke-opacity:1; fill:none" points="217.02,268.33 235.918,268.33 "/>
<path clip-path="url(#clip100)" d="M116.214 1424.16 L145.89 1424.16 L145.89 1428.09 L116.214 1428.09 L116.214 1424.16 Z" fill="#000000" fill-rule="nonzero" fill-opacity="1" /><path clip-path="url(#clip100)" d="M156.793 1437.05 L164.432 1437.05 L164.432 1410.68 L156.122 1412.35 L156.122 1408.09 L164.385 1406.42 L169.061 1406.42 L169.061 1437.05 L176.7 1437.05 L176.7 1440.98 L156.793 1440.98 L156.793 1437.05 Z" fill="#000000" fill-rule="nonzero" fill-opacity="1" /><path clip-path="url(#clip100)" d="M164.756 1024.38 Q161.145 1024.38 159.316 1027.94 Q157.511 1031.48 157.511 1038.61 Q157.511 1045.72 159.316 1049.29 Q161.145 1052.83 164.756 1052.83 Q168.39 1052.83 170.196 1049.29 Q172.024 1045.72 172.024 1038.61 Q172.024 1031.48 170.196 1027.94 Q168.39 1024.38 164.756 1024.38 M164.756 1020.67 Q170.566 1020.67 173.622 1025.28 Q176.7 1029.86 176.7 1038.61 Q176.7 1047.34 173.622 1051.95 Q170.566 1056.53 164.756 1056.53 Q158.946 1056.53 155.867 1051.95 Q152.811 1047.34 152.811 1038.61 Q152.811 1029.86 155.867 1025.28 Q158.946 1020.67 164.756 1020.67 Z" fill="#000000" fill-rule="nonzero" fill-opacity="1" /><path clip-path="url(#clip100)" d="M156.793 666.8 L164.432 666.8 L164.432 640.434 L156.122 642.101 L156.122 637.842 L164.385 636.175 L169.061 636.175 L169.061 666.8 L176.7 666.8 L176.7 670.735 L156.793 670.735 L156.793 666.8 Z" fill="#000000" fill-rule="nonzero" fill-opacity="1" /><path clip-path="url(#clip100)" d="M160.381 281.675 L176.7 281.675 L176.7 285.61 L154.756 285.61 L154.756 281.675 Q157.418 278.92 162.001 274.291 Q166.608 269.638 167.788 268.295 Q170.034 265.772 170.913 264.036 Q171.816 262.277 171.816 260.587 Q171.816 257.832 169.872 256.096 Q167.95 254.36 164.848 254.36 Q162.649 254.36 160.196 255.124 Q157.765 255.888 154.987 257.439 L154.987 252.717 Q157.811 251.582 160.265 251.004 Q162.719 250.425 164.756 250.425 Q170.126 250.425 173.321 253.11 Q176.515 255.795 176.515 260.286 Q176.515 262.416 175.705 264.337 Q174.918 266.235 172.811 268.828 Q172.233 269.499 169.131 272.717 Q166.029 275.911 160.381 281.675 Z" fill="#000000" fill-rule="nonzero" fill-opacity="1" /><path clip-path="url(#clip100)" d="M12.1132 966.125 L16.983 966.125 L16.983 971.727 Q16.983 974.878 18.2562 976.119 Q19.5293 977.329 22.8395 977.329 L25.9905 977.329 L25.9905 967.685 L30.542 967.685 L30.542 977.329 L61.6384 977.329 L61.6384 983.217 L30.542 983.217 L30.542 988.819 L25.9905 988.819 L25.9905 983.217 L23.5079 983.217 Q17.5559 983.217 14.8505 980.448 Q12.1132 977.679 12.1132 971.663 L12.1132 966.125 Z" fill="#000000" fill-rule="nonzero" fill-opacity="1" /><path clip-path="url(#clip100)" d="M12.1769 947.155 Q19.4975 951.42 26.6589 953.489 Q33.8203 955.558 41.1727 955.558 Q48.5251 955.558 55.7502 953.489 Q62.9434 951.388 70.2321 947.155 L70.2321 952.248 Q62.7524 957.022 55.5274 959.409 Q48.3023 961.765 41.1727 961.765 Q34.0749 961.765 26.8817 959.409 Q19.6884 957.054 12.1769 952.248 L12.1769 947.155 Z" fill="#000000" fill-rule="nonzero" fill-opacity="1" /><path clip-path="url(#clip100)" d="M14.1184 935.538 L14.1184 929.109 L33.5975 929.109 L33.5975 905.746 L14.1184 905.746 L14.1184 899.317 L61.6384 899.317 L61.6384 905.746 L39.0084 905.746 L39.0084 929.109 L61.6384 929.109 L61.6384 935.538 L14.1184 935.538 Z" fill="#000000" fill-rule="nonzero" fill-opacity="1" /><path clip-path="url(#clip100)" d="M12.1769 887.7 L12.1769 882.607 Q19.6884 877.833 26.8817 875.477 Q34.0749 873.09 41.1727 873.09 Q48.3023 873.09 55.5274 875.477 Q62.7524 877.833 70.2321 882.607 L70.2321 887.7 Q62.9434 883.466 55.7502 881.398 Q48.5251 879.297 41.1727 879.297 Q33.8203 879.297 26.6589 881.398 Q19.4975 883.466 12.1769 887.7 Z" fill="#000000" fill-rule="nonzero" fill-opacity="1" /><path clip-path="url(#clip100)" d="M1009.38 12.096 L1044.13 12.096 L1044.13 18.9825 L1017.56 18.9825 L1017.56 36.8065 L1041.54 36.8065 L1041.54 43.6931 L1017.56 43.6931 L1017.56 72.576 L1009.38 72.576 L1009.38 12.096 Z" fill="#000000" fill-rule="nonzero" fill-opacity="1" /><path clip-path="url(#clip100)" d="M1051.47 54.671 L1051.47 27.2059 L1058.92 27.2059 L1058.92 54.3874 Q1058.92 60.8284 1061.43 64.0691 Q1063.94 67.2693 1068.97 67.2693 Q1075 67.2693 1078.48 63.421 Q1082.01 59.5726 1082.01 52.9291 L1082.01 27.2059 L1089.46 27.2059 L1089.46 72.576 L1082.01 72.576 L1082.01 65.6084 Q1079.3 69.7404 1075.69 71.7658 Q1072.12 73.7508 1067.39 73.7508 Q1059.57 73.7508 1055.52 68.8897 Q1051.47 64.0286 1051.47 54.671 M1070.22 26.1121 L1070.22 26.1121 Z" fill="#000000" fill-rule="nonzero" fill-opacity="1" /><path clip-path="url(#clip100)" d="M1142.53 45.1919 L1142.53 72.576 L1135.08 72.576 L1135.08 45.4349 Q1135.08 38.994 1132.56 35.7938 Q1130.05 32.5936 1125.03 32.5936 Q1118.99 32.5936 1115.51 36.4419 Q1112.03 40.2903 1112.03 46.9338 L1112.03 72.576 L1104.53 72.576 L1104.53 27.2059 L1112.03 27.2059 L1112.03 34.2544 Q1114.7 30.163 1118.31 28.1376 Q1121.95 26.1121 1126.69 26.1121 Q1134.51 26.1121 1138.52 30.9732 Q1142.53 35.7938 1142.53 45.1919 Z" fill="#000000" fill-rule="nonzero" fill-opacity="1" /><path clip-path="url(#clip100)" d="M1190.05 28.9478 L1190.05 35.9153 Q1186.89 34.1734 1183.69 33.3227 Q1180.53 32.4315 1177.29 32.4315 Q1170.04 32.4315 1166.02 37.0496 Q1162.01 41.6271 1162.01 49.9314 Q1162.01 58.2358 1166.02 62.8538 Q1170.04 67.4314 1177.29 67.4314 Q1180.53 67.4314 1183.69 66.5807 Q1186.89 65.6895 1190.05 63.9476 L1190.05 70.8341 Q1186.93 72.2924 1183.57 73.0216 Q1180.24 73.7508 1176.48 73.7508 Q1166.23 73.7508 1160.19 67.3098 Q1154.16 60.8689 1154.16 49.9314 Q1154.16 38.832 1160.23 32.472 Q1166.35 26.1121 1176.96 26.1121 Q1180.41 26.1121 1183.69 26.8413 Q1186.97 27.5299 1190.05 28.9478 Z" fill="#000000" fill-rule="nonzero" fill-opacity="1" /><path clip-path="url(#clip100)" d="M1210.38 14.324 L1210.38 27.2059 L1225.74 27.2059 L1225.74 32.9987 L1210.38 32.9987 L1210.38 57.6282 Q1210.38 63.1779 1211.88 64.7578 Q1213.42 66.3376 1218.08 66.3376 L1225.74 66.3376 L1225.74 72.576 L1218.08 72.576 Q1209.45 72.576 1206.17 69.3758 Q1202.89 66.1351 1202.89 57.6282 L1202.89 32.9987 L1197.42 32.9987 L1197.42 27.2059 L1202.89 27.2059 L1202.89 14.324 L1210.38 14.324 Z" fill="#000000" fill-rule="nonzero" fill-opacity="1" /><path clip-path="url(#clip100)" d="M1235.54 27.2059 L1242.99 27.2059 L1242.99 72.576 L1235.54 72.576 L1235.54 27.2059 M1235.54 9.54393 L1242.99 9.54393 L1242.99 18.9825 L1235.54 18.9825 L1235.54 9.54393 Z" fill="#000000" fill-rule="nonzero" fill-opacity="1" /><path clip-path="url(#clip100)" d="M1276.17 32.4315 Q1270.17 32.4315 1266.69 37.1306 Q1263.21 41.7891 1263.21 49.9314 Q1263.21 58.0738 1266.65 62.7728 Q1270.13 67.4314 1276.17 67.4314 Q1282.12 67.4314 1285.61 62.7323 Q1289.09 58.0333 1289.09 49.9314 Q1289.09 41.8701 1285.61 37.1711 Q1282.12 32.4315 1276.17 32.4315 M1276.17 26.1121 Q1285.89 26.1121 1291.44 32.4315 Q1296.99 38.7509 1296.99 49.9314 Q1296.99 61.0714 1291.44 67.4314 Q1285.89 73.7508 1276.17 73.7508 Q1266.41 73.7508 1260.86 67.4314 Q1255.35 61.0714 1255.35 49.9314 Q1255.35 38.7509 1260.86 32.4315 Q1266.41 26.1121 1276.17 26.1121 Z" fill="#000000" fill-rule="nonzero" fill-opacity="1" /><path clip-path="url(#clip100)" d="M1347.06 45.1919 L1347.06 72.576 L1339.61 72.576 L1339.61 45.4349 Q1339.61 38.994 1337.09 35.7938 Q1334.58 32.5936 1329.56 32.5936 Q1323.52 32.5936 1320.04 36.4419 Q1316.56 40.2903 1316.56 46.9338 L1316.56 72.576 L1309.06 72.576 L1309.06 27.2059 L1316.56 27.2059 L1316.56 34.2544 Q1319.23 30.163 1322.84 28.1376 Q1326.48 26.1121 1331.22 26.1121 Q1339.04 26.1121 1343.05 30.9732 Q1347.06 35.7938 1347.06 45.1919 Z" fill="#000000" fill-rule="nonzero" fill-opacity="1" /><path clip-path="url(#clip100)" d="M1382.55 49.7694 Q1373.51 49.7694 1370.03 51.8354 Q1366.54 53.9013 1366.54 58.8839 Q1366.54 62.8538 1369.14 65.2034 Q1371.77 67.5124 1376.27 67.5124 Q1382.46 67.5124 1386.19 63.1374 Q1389.96 58.7219 1389.96 51.4303 L1389.96 49.7694 L1382.55 49.7694 M1397.41 46.6907 L1397.41 72.576 L1389.96 72.576 L1389.96 65.6895 Q1387.41 69.8214 1383.6 71.8063 Q1379.79 73.7508 1374.28 73.7508 Q1367.31 73.7508 1363.18 69.8619 Q1359.09 65.9325 1359.09 59.3701 Q1359.09 51.7138 1364.2 47.825 Q1369.34 43.9361 1379.51 43.9361 L1389.96 43.9361 L1389.96 43.2069 Q1389.96 38.0623 1386.56 35.2672 Q1383.19 32.4315 1377.08 32.4315 Q1373.19 32.4315 1369.5 33.3632 Q1365.82 34.295 1362.41 36.1584 L1362.41 29.2718 Q1366.5 27.692 1370.35 26.9223 Q1374.2 26.1121 1377.85 26.1121 Q1387.69 26.1121 1392.55 31.2163 Q1397.41 36.3204 1397.41 46.6907 Z" fill="#000000" fill-rule="nonzero" fill-opacity="1" /><path clip-path="url(#clip100)" d="M1412.77 9.54393 L1420.22 9.54393 L1420.22 72.576 L1412.77 72.576 L1412.77 9.54393 Z" fill="#000000" fill-rule="nonzero" fill-opacity="1" /><path clip-path="url(#clip100)" d="M1491.19 44.2197 Q1493.82 45.1109 1496.3 48.0275 Q1498.81 50.9442 1501.32 56.0483 L1509.62 72.576 L1500.83 72.576 L1493.09 57.061 Q1490.1 50.9847 1487.26 48.9997 Q1484.47 47.0148 1479.61 47.0148 L1470.69 47.0148 L1470.69 72.576 L1462.51 72.576 L1462.51 12.096 L1480.98 12.096 Q1491.35 12.096 1496.46 16.4305 Q1501.56 20.7649 1501.56 29.5149 Q1501.56 35.2267 1498.89 38.994 Q1496.25 42.7613 1491.19 44.2197 M1470.69 18.8205 L1470.69 40.2903 L1480.98 40.2903 Q1486.9 40.2903 1489.89 37.5762 Q1492.93 34.8216 1492.93 29.5149 Q1492.93 24.2082 1489.89 21.5346 Q1486.9 18.8205 1480.98 18.8205 L1470.69 18.8205 Z" fill="#000000" fill-rule="nonzero" fill-opacity="1" /><path clip-path="url(#clip100)" d="M1554.91 48.0275 L1554.91 51.6733 L1520.64 51.6733 Q1521.13 59.3701 1525.26 63.421 Q1529.43 67.4314 1536.84 67.4314 Q1541.14 67.4314 1545.15 66.3781 Q1549.2 65.3249 1553.17 63.2184 L1553.17 70.267 Q1549.16 71.9684 1544.95 72.8596 Q1540.73 73.7508 1536.4 73.7508 Q1525.54 73.7508 1519.18 67.4314 Q1512.86 61.1119 1512.86 50.3365 Q1512.86 39.1965 1518.86 32.6746 Q1524.89 26.1121 1535.1 26.1121 Q1544.26 26.1121 1549.56 32.0264 Q1554.91 37.9003 1554.91 48.0275 M1547.46 45.84 Q1547.38 39.7232 1544.01 36.0774 Q1540.69 32.4315 1535.18 32.4315 Q1528.95 32.4315 1525.18 35.9558 Q1521.45 39.4801 1520.88 45.8805 L1547.46 45.84 Z" fill="#000000" fill-rule="nonzero" fill-opacity="1" /><path clip-path="url(#clip100)" d="M1596.07 28.5427 L1596.07 35.5912 Q1592.91 33.9709 1589.51 33.1607 Q1586.1 32.3505 1582.46 32.3505 Q1576.91 32.3505 1574.11 34.0519 Q1571.36 35.7533 1571.36 39.156 Q1571.36 41.7486 1573.34 43.2475 Q1575.33 44.7058 1581.32 46.0426 L1583.88 46.6097 Q1591.82 48.3111 1595.14 51.4303 Q1598.5 54.509 1598.5 60.0587 Q1598.5 66.3781 1593.48 70.0644 Q1588.49 73.7508 1579.74 73.7508 Q1576.1 73.7508 1572.13 73.0216 Q1568.2 72.3329 1563.82 70.9151 L1563.82 63.2184 Q1567.96 65.3654 1571.97 66.4591 Q1575.98 67.5124 1579.91 67.5124 Q1585.17 67.5124 1588.01 65.73 Q1590.84 63.9071 1590.84 60.6258 Q1590.84 57.5877 1588.78 55.9673 Q1586.75 54.3469 1579.82 52.8481 L1577.23 52.2405 Q1570.31 50.7821 1567.23 47.7845 Q1564.15 44.7463 1564.15 39.4801 Q1564.15 33.0797 1568.68 29.5959 Q1573.22 26.1121 1581.57 26.1121 Q1585.7 26.1121 1589.34 26.7198 Q1592.99 27.3274 1596.07 28.5427 Z" fill="#000000" fill-rule="nonzero" fill-opacity="1" /><path clip-path="url(#clip100)" d="M1617.58 65.7705 L1617.58 89.8329 L1610.09 89.8329 L1610.09 27.2059 L1617.58 27.2059 L1617.58 34.0924 Q1619.93 30.0415 1623.49 28.0971 Q1627.1 26.1121 1632.08 26.1121 Q1640.35 26.1121 1645.49 32.6746 Q1650.68 39.2371 1650.68 49.9314 Q1650.68 60.6258 1645.49 67.1883 Q1640.35 73.7508 1632.08 73.7508 Q1627.1 73.7508 1623.49 71.8063 Q1619.93 69.8214 1617.58 65.7705 M1642.94 49.9314 Q1642.94 41.7081 1639.54 37.0496 Q1636.17 32.3505 1630.26 32.3505 Q1624.34 32.3505 1620.94 37.0496 Q1617.58 41.7081 1617.58 49.9314 Q1617.58 58.1548 1620.94 62.8538 Q1624.34 67.5124 1630.26 67.5124 Q1636.17 67.5124 1639.54 62.8538 Q1642.94 58.1548 1642.94 49.9314 Z" fill="#000000" fill-rule="nonzero" fill-opacity="1" /><path clip-path="url(#clip100)" d="M1680.61 32.4315 Q1674.62 32.4315 1671.13 37.1306 Q1667.65 41.7891 1667.65 49.9314 Q1667.65 58.0738 1671.09 62.7728 Q1674.58 67.4314 1680.61 67.4314 Q1686.57 67.4314 1690.05 62.7323 Q1693.53 58.0333 1693.53 49.9314 Q1693.53 41.8701 1690.05 37.1711 Q1686.57 32.4315 1680.61 32.4315 M1680.61 26.1121 Q1690.33 26.1121 1695.88 32.4315 Q1701.43 38.7509 1701.43 49.9314 Q1701.43 61.0714 1695.88 67.4314 Q1690.33 73.7508 1680.61 73.7508 Q1670.85 73.7508 1665.3 67.4314 Q1659.79 61.0714 1659.79 49.9314 Q1659.79 38.7509 1665.3 32.4315 Q1670.85 26.1121 1680.61 26.1121 Z" fill="#000000" fill-rule="nonzero" fill-opacity="1" /><path clip-path="url(#clip100)" d="M1751.5 45.1919 L1751.5 72.576 L1744.05 72.576 L1744.05 45.4349 Q1744.05 38.994 1741.54 35.7938 Q1739.03 32.5936 1734 32.5936 Q1727.97 32.5936 1724.48 36.4419 Q1721 40.2903 1721 46.9338 L1721 72.576 L1713.5 72.576 L1713.5 27.2059 L1721 27.2059 L1721 34.2544 Q1723.67 30.163 1727.28 28.1376 Q1730.92 26.1121 1735.66 26.1121 Q1743.48 26.1121 1747.49 30.9732 Q1751.5 35.7938 1751.5 45.1919 Z" fill="#000000" fill-rule="nonzero" fill-opacity="1" /><path clip-path="url(#clip100)" d="M1795.29 28.5427 L1795.29 35.5912 Q1792.13 33.9709 1788.73 33.1607 Q1785.33 32.3505 1781.68 32.3505 Q1776.13 32.3505 1773.34 34.0519 Q1770.58 35.7533 1770.58 39.156 Q1770.58 41.7486 1772.57 43.2475 Q1774.55 44.7058 1780.55 46.0426 L1783.1 46.6097 Q1791.04 48.3111 1794.36 51.4303 Q1797.72 54.509 1797.72 60.0587 Q1797.72 66.3781 1792.7 70.0644 Q1787.72 73.7508 1778.97 73.7508 Q1775.32 73.7508 1771.35 73.0216 Q1767.42 72.3329 1763.05 70.9151 L1763.05 63.2184 Q1767.18 65.3654 1771.19 66.4591 Q1775.2 67.5124 1779.13 67.5124 Q1784.4 67.5124 1787.23 65.73 Q1790.07 63.9071 1790.07 60.6258 Q1790.07 57.5877 1788 55.9673 Q1785.98 54.3469 1779.05 52.8481 L1776.46 52.2405 Q1769.53 50.7821 1766.45 47.7845 Q1763.37 44.7463 1763.37 39.4801 Q1763.37 33.0797 1767.91 29.5959 Q1772.45 26.1121 1780.79 26.1121 Q1784.92 26.1121 1788.57 26.7198 Q1792.21 27.3274 1795.29 28.5427 Z" fill="#000000" fill-rule="nonzero" fill-opacity="1" /><path clip-path="url(#clip100)" d="M1848.4 48.0275 L1848.4 51.6733 L1814.13 51.6733 Q1814.62 59.3701 1818.75 63.421 Q1822.92 67.4314 1830.33 67.4314 Q1834.63 67.4314 1838.64 66.3781 Q1842.69 65.3249 1846.66 63.2184 L1846.66 70.267 Q1842.65 71.9684 1838.43 72.8596 Q1834.22 73.7508 1829.89 73.7508 Q1819.03 73.7508 1812.67 67.4314 Q1806.35 61.1119 1806.35 50.3365 Q1806.35 39.1965 1812.35 32.6746 Q1818.38 26.1121 1828.59 26.1121 Q1837.75 26.1121 1843.05 32.0264 Q1848.4 37.9003 1848.4 48.0275 M1840.95 45.84 Q1840.87 39.7232 1837.5 36.0774 Q1834.18 32.4315 1828.67 32.4315 Q1822.43 32.4315 1818.67 35.9558 Q1814.94 39.4801 1814.37 45.8805 L1840.95 45.84 Z" fill="#000000" fill-rule="nonzero" fill-opacity="1" /><polyline clip-path="url(#clip101)" style="stroke:#000000; stroke-linecap:round; stroke-linejoin:round; stroke-width:12; stroke-opacity:1; fill:none" stroke-dasharray="48, 30" points="285.617,1032.54 297.107,1028.6 308.597,1024.77 320.087,1021.03 331.577,1017.39 343.067,1013.83 354.558,1010.37 366.048,1006.98 377.538,1003.68 389.028,1000.46 400.518,997.309 412.008,994.232 423.499,991.226 434.989,988.288 446.479,985.415 457.969,982.605 469.459,979.857 480.949,977.168 492.44,974.536 503.93,971.96 515.42,969.438 526.91,966.968 538.4,964.548 549.89,962.178 561.381,959.855 572.871,957.578 584.361,955.346 595.851,953.157 607.341,951.01 618.831,948.905 630.322,946.839 641.812,944.812 653.302,942.823 664.792,940.87 676.282,938.953 687.772,937.07 699.263,935.221 710.753,933.405 722.243,931.621 733.733,929.868 745.223,928.145 756.713,926.452 768.204,924.788 779.694,923.151 791.184,921.542 802.674,919.96 814.164,918.403 825.654,916.872 837.145,915.366 848.635,913.884 860.125,912.425 871.615,910.989 883.105,909.576 894.595,908.185 906.086,906.815 917.576,905.467 929.066,904.138 940.556,902.83 952.046,901.541 963.536,900.272 975.026,899.021 986.517,897.788 998.007,896.574 1009.5,895.377 1020.99,894.197 1032.48,893.033 1043.97,891.886 1055.46,890.756 1066.95,889.641 1078.44,888.541 1089.93,887.456 1101.42,886.387 1112.91,885.331 1124.4,884.29 1135.89,883.263 1147.38,882.249 1158.87,881.249 1170.36,880.262 1181.85,879.288 1193.34,878.326 1204.83,877.377 1216.32,876.44 1227.81,875.514 1239.3,874.601 1250.79,873.698 1262.28,872.807 1273.77,871.928 1285.26,871.058 1296.75,870.2 1308.24,869.352 1319.73,868.514 1331.22,867.686 1342.71,866.868 1354.2,866.06 1365.69,865.261 1377.18,864.472 1388.67,863.691 1400.16,862.92 1411.65,862.158 1423.14,861.404 1434.63,860.659 1446.12,859.923 1457.61,859.194 1469.1,858.474 1480.59,857.762 1492.08,857.058 1503.57,856.361 1515.06,855.673 1526.55,854.991 1538.04,854.317 1549.53,853.651 1561.02,852.991 1572.52,852.338 1584.01,851.693 1595.5,851.054 1606.99,850.422 1618.48,849.796 1629.97,849.177 1641.46,848.564 1652.95,847.958 1664.44,847.358 1675.93,846.764 1687.42,846.176 1698.91,845.594 1710.4,845.017 1721.89,844.447 1733.38,843.882 1744.87,843.322 1756.36,842.769 1767.85,842.22 1779.34,841.677 1790.83,841.139 1802.32,840.606 1813.81,840.079 1825.3,839.556 1836.79,839.039 1848.28,838.526 1859.77,838.018 1871.26,837.515 1882.75,837.017 1894.24,836.523 1905.73,836.034 1917.22,835.549 1928.71,835.068 1940.2,834.592 1951.69,834.121 1963.18,833.653 1974.67,833.19 1986.16,832.731 1997.65,832.276 2009.14,831.825 2020.63,831.378 2032.12,830.935 2043.61,830.496 2055.1,830.061 2066.59,829.629 2078.08,829.201 2089.57,828.777 2101.06,828.357 2112.55,827.94 2124.04,827.526 2135.53,827.116 2147.02,826.71 2158.51,826.307 2170,825.907 2181.49,825.511 2192.98,825.117 2204.47,824.728 2215.96,824.341 2227.45,823.957 2238.94,823.577 2250.43,823.2 2261.93,822.825 2273.42,822.454 2284.91,822.086 2296.4,821.721 2307.89,821.358 2319.38,820.999 2330.87,820.642 2342.36,820.288 2353.85,819.937 2365.34,819.588 2376.83,819.243 2388.32,818.899 2399.81,818.559 2411.3,818.221 2422.79,817.886 2434.28,817.553 2445.77,817.223 2457.26,816.896 2468.75,816.57 2480.24,816.248 2491.73,815.927 2503.22,815.609 2514.71,815.294 2526.2,814.98 2537.69,814.669 2549.18,814.361 2560.67,814.054 2572.16,813.75 "/>
<polyline clip-path="url(#clip101)" style="stroke:#0000ff; stroke-linecap:round; stroke-linejoin:round; stroke-width:8; stroke-opacity:0.7; fill:none" points="285.617,1688.65 297.107,1681.17 308.597,1673.69 320.087,1666.21 331.577,1658.74 343.067,1651.28 354.558,1643.82 366.048,1636.37 377.538,1628.92 389.028,1621.49 400.518,1614.07 412.008,1606.66 423.499,1599.27 434.989,1591.89 446.479,1584.53 457.969,1577.18 469.459,1569.85 480.949,1562.54 492.44,1555.25 503.93,1547.98 515.42,1540.73 526.91,1533.5 538.4,1526.3 549.89,1519.13 561.381,1511.98 572.871,1504.86 584.361,1497.76 595.851,1490.7 607.341,1483.67 618.831,1476.67 630.322,1469.7 641.812,1462.76 653.302,1455.86 664.792,1449 676.282,1442.18 687.772,1435.39 699.263,1428.65 710.753,1421.95 722.243,1415.29 733.733,1408.68 745.223,1402.11 756.713,1395.59 768.204,1389.13 779.694,1382.71 791.184,1376.34 802.674,1370.03 814.164,1363.77 825.654,1357.57 837.145,1351.43 848.635,1345.35 860.125,1339.33 871.615,1333.37 883.105,1327.47 894.595,1321.64 906.086,1315.87 917.576,1310.18 929.066,1304.55 940.556,1298.99 952.046,1293.51 963.536,1288.09 975.026,1282.76 986.517,1277.5 998.007,1272.31 1009.5,1267.21 1020.99,1262.18 1032.48,1257.22 1043.97,1252.33 1055.46,1247.49 1066.95,1242.71 1078.44,1237.98 1089.93,1233.3 1101.42,1228.65 1112.91,1224.04 1124.4,1219.46 1135.89,1214.9 1147.38,1210.36 1158.87,1205.83 1170.36,1201.32 1181.85,1196.8 1193.34,1192.28 1204.83,1187.76 1216.32,1183.23 1227.81,1178.68 1239.3,1174.1 1250.79,1169.5 1262.28,1164.87 1273.77,1160.2 1285.26,1155.49 1296.75,1150.73 1308.24,1145.91 1319.73,1141.04 1331.22,1136.11 1342.71,1131.1 1354.2,1126.03 1365.69,1120.88 1377.18,1115.64 1388.67,1110.32 1400.16,1104.93 1411.65,1099.46 1423.14,1093.92 1434.63,1088.32 1446.12,1082.65 1457.61,1076.92 1469.1,1071.13 1480.59,1065.28 1492.08,1059.38 1503.57,1053.44 1515.06,1047.44 1526.55,1041.41 1538.04,1035.33 1549.53,1029.22 1561.02,1023.08 1572.52,1016.9 1584.01,1010.7 1595.5,1004.47 1606.99,998.223 1618.48,991.958 1629.97,985.678 1641.46,979.386 1652.95,973.086 1664.44,966.781 1675.93,960.473 1687.42,954.166 1698.91,947.863 1710.4,941.567 1721.89,935.282 1733.38,929.01 1744.87,922.752 1756.36,916.502 1767.85,910.254 1779.34,904.001 1790.83,897.738 1802.32,891.458 1813.81,885.154 1825.3,878.82 1836.79,872.45 1848.28,866.037 1859.77,859.575 1871.26,853.058 1882.75,846.479 1894.24,839.833 1905.73,833.111 1917.22,826.309 1928.71,819.42 1940.2,812.437 1951.69,805.355 1963.18,798.166 1974.67,790.864 1986.16,783.443 1997.65,775.898 2009.14,768.22 2020.63,760.404 2032.12,752.444 2043.61,744.333 2055.1,736.065 2066.59,727.633 2078.08,719.031 2089.57,710.254 2101.06,701.293 2112.55,692.146 2124.04,682.813 2135.53,673.292 2147.02,663.585 2158.51,653.691 2170,643.609 2181.49,633.341 2192.98,622.885 2204.47,612.242 2215.96,601.412 2227.45,590.395 2238.94,579.19 2250.43,567.797 2261.93,556.217 2273.42,544.449 2284.91,532.494 2296.4,520.351 2307.89,508.019 2319.38,495.5 2330.87,482.793 2342.36,469.898 2353.85,456.814 2365.34,443.543 2376.83,430.083 2388.32,416.434 2399.81,402.597 2411.3,388.572 2422.79,374.358 2434.28,359.956 2445.77,345.364 2457.26,330.584 2468.75,315.615 2480.24,300.461 2491.73,285.127 2503.22,269.619 2514.71,253.943 2526.2,238.105 2537.69,222.112 2549.18,205.968 2560.67,189.68 2572.16,173.254 "/>
<polyline clip-path="url(#clip101)" style="stroke:#ff0000; stroke-linecap:round; stroke-linejoin:round; stroke-width:8; stroke-opacity:0.7; fill:none" points="285.617,984.777 297.107,983.317 308.597,981.856 320.087,980.397 331.577,978.939 343.067,977.483 354.558,976.028 366.048,974.575 377.538,973.124 389.028,971.675 400.518,970.23 412.008,968.787 423.499,967.347 434.989,965.911 446.479,964.479 457.969,963.05 469.459,961.626 480.949,960.206 492.44,958.791 503.93,957.381 515.42,955.976 526.91,954.577 538.4,953.183 549.89,951.796 561.381,950.415 572.871,949.04 584.361,947.672 595.851,946.311 607.341,944.957 618.831,943.611 630.322,942.273 641.812,940.943 653.302,939.62 664.792,938.306 676.282,937 687.772,935.702 699.263,934.411 710.753,933.129 722.243,931.854 733.733,930.586 745.223,929.327 756.713,928.074 768.204,926.83 779.694,925.592 791.184,924.362 802.674,923.139 814.164,921.923 825.654,920.714 837.145,919.512 848.635,918.317 860.125,917.129 871.615,915.948 883.105,914.774 894.595,913.606 906.086,912.445 917.576,911.29 929.066,910.142 940.556,909 952.046,907.865 963.536,906.735 975.026,905.612 986.517,904.496 998.007,903.385 1009.5,902.28 1020.99,901.181 1032.48,900.088 1043.97,899.001 1055.46,897.921 1066.95,896.846 1078.44,895.777 1089.93,894.715 1101.42,893.658 1112.91,892.608 1124.4,891.564 1135.89,890.526 1147.38,889.494 1158.87,888.468 1170.36,887.449 1181.85,886.435 1193.34,885.428 1204.83,884.427 1216.32,883.433 1227.81,882.445 1239.3,881.463 1250.79,880.487 1262.28,879.517 1273.77,878.554 1285.26,877.598 1296.75,876.648 1308.24,875.704 1319.73,874.766 1331.22,873.835 1342.71,872.91 1354.2,871.992 1365.69,871.08 1377.18,870.175 1388.67,869.277 1400.16,868.384 1411.65,867.498 1423.14,866.619 1434.63,865.746 1446.12,864.88 1457.61,864.02 1469.1,863.167 1480.59,862.32 1492.08,861.479 1503.57,860.645 1515.06,859.818 1526.55,858.997 1538.04,858.182 1549.53,857.374 1561.02,856.572 1572.52,855.777 1584.01,854.989 1595.5,854.206 1606.99,853.431 1618.48,852.661 1629.97,851.898 1641.46,851.142 1652.95,850.392 1664.44,849.649 1675.93,848.912 1687.42,848.181 1698.91,847.457 1710.4,846.739 1721.89,846.028 1733.38,845.323 1744.87,844.625 1756.36,843.933 1767.85,843.248 1779.34,842.568 1790.83,841.896 1802.32,841.229 1813.81,840.569 1825.3,839.916 1836.79,839.268 1848.28,838.627 1859.77,837.992 1871.26,837.364 1882.75,836.741 1894.24,836.125 1905.73,835.515 1917.22,834.912 1928.71,834.314 1940.2,833.723 1951.69,833.137 1963.18,832.558 1974.67,831.985 1986.16,831.418 1997.65,830.857 2009.14,830.302 2020.63,829.753 2032.12,829.21 2043.61,828.673 2055.1,828.142 2066.59,827.617 2078.08,827.098 2089.57,826.585 2101.06,826.078 2112.55,825.576 2124.04,825.081 2135.53,824.592 2147.02,824.109 2158.51,823.632 2170,823.161 2181.49,822.696 2192.98,822.238 2204.47,821.787 2215.96,821.341 2227.45,820.903 2238.94,820.471 2250.43,820.046 2261.93,819.627 2273.42,819.216 2284.91,818.811 2296.4,818.413 2307.89,818.023 2319.38,817.639 2330.87,817.263 2342.36,816.894 2353.85,816.532 2365.34,816.177 2376.83,815.83 2388.32,815.491 2399.81,815.159 2411.3,814.835 2422.79,814.518 2434.28,814.209 2445.77,813.908 2457.26,813.615 2468.75,813.33 2480.24,813.053 2491.73,812.783 2503.22,812.521 2514.71,812.265 2526.2,812.017 2537.69,811.775 2549.18,811.54 2560.67,811.311 2572.16,811.087 "/>
<polyline clip-path="url(#clip101)" style="stroke:#00ffff; stroke-linecap:round; stroke-linejoin:round; stroke-width:8; stroke-opacity:1; fill:none" stroke-dasharray="4, 8" points="285.617,1073.7 297.107,1069.22 308.597,1064.75 320.087,1060.29 331.577,1055.84 343.067,1051.41 354.558,1047 366.048,1042.6 377.538,1038.24 389.028,1033.9 400.518,1029.59 412.008,1025.31 423.499,1021.06 434.989,1016.86 446.479,1012.7 457.969,1008.58 469.459,1004.51 480.949,1000.49 492.44,996.521 503.93,992.609 515.42,988.755 526.91,984.963 538.4,981.235 549.89,977.574 561.381,973.983 572.871,970.465 584.361,967.023 595.851,963.659 607.341,960.377 618.831,957.179 630.322,954.068 641.812,951.047 653.302,948.116 664.792,945.273 676.282,942.516 687.772,939.843 699.263,937.254 710.753,934.745 722.243,932.315 733.733,929.962 745.223,927.684 756.713,925.481 768.204,923.349 779.694,921.287 791.184,919.294 802.674,917.366 814.164,915.504 825.654,913.704 837.145,911.966 848.635,910.287 860.125,908.665 871.615,907.099 883.105,905.587 894.595,904.127 906.086,902.717 917.576,901.356 929.066,900.041 940.556,898.772 952.046,897.545 963.536,896.36 975.026,895.214 986.517,894.106 998.007,893.034 1009.5,891.996 1020.99,890.991 1032.48,890.018 1043.97,889.075 1055.46,888.162 1066.95,887.276 1078.44,886.417 1089.93,885.584 1101.42,884.776 1112.91,883.991 1124.4,883.228 1135.89,882.486 1147.38,881.763 1158.87,881.059 1170.36,880.373 1181.85,879.703 1193.34,879.047 1204.83,878.406 1216.32,877.777 1227.81,877.159 1239.3,876.552 1250.79,875.953 1262.28,875.363 1273.77,874.779 1285.26,874.2 1296.75,873.626 1308.24,873.054 1319.73,872.485 1331.22,871.916 1342.71,871.347 1354.2,870.776 1365.69,870.202 1377.18,869.624 1388.67,869.041 1400.16,868.454 1411.65,867.86 1423.14,867.261 1434.63,866.656 1446.12,866.043 1457.61,865.423 1469.1,864.795 1480.59,864.159 1492.08,863.514 1503.57,862.86 1515.06,862.195 1526.55,861.521 1538.04,860.835 1549.53,860.139 1561.02,859.431 1572.52,858.71 1584.01,857.977 1595.5,857.231 1606.99,856.471 1618.48,855.697 1629.97,854.909 1641.46,854.105 1652.95,853.286 1664.44,852.451 1675.93,851.6 1687.42,850.732 1698.91,849.846 1710.4,848.942 1721.89,848.02 1733.38,847.079 1744.87,846.12 1756.36,845.143 1767.85,844.153 1779.34,843.15 1790.83,842.137 1802.32,841.115 1813.81,840.088 1825.3,839.058 1836.79,838.025 1848.28,836.993 1859.77,835.964 1871.26,834.94 1882.75,833.923 1894.24,832.915 1905.73,831.919 1917.22,830.936 1928.71,829.968 1940.2,829.019 1951.69,828.089 1963.18,827.182 1974.67,826.298 1986.16,825.442 1997.65,824.614 2009.14,823.816 2020.63,823.052 2032.12,822.322 2043.61,821.63 2055.1,820.977 2066.59,820.366 2078.08,819.798 2089.57,819.277 2101.06,818.803 2112.55,818.375 2124.04,817.988 2135.53,817.635 2147.02,817.308 2158.51,817.002 2170,816.709 2181.49,816.423 2192.98,816.138 2204.47,815.846 2215.96,815.541 2227.45,815.217 2238.94,814.866 2250.43,814.482 2261.93,814.059 2273.42,813.59 2284.91,813.067 2296.4,812.485 2307.89,811.837 2319.38,811.116 2330.87,810.315 2342.36,809.428 2353.85,808.448 2365.34,807.369 2376.83,806.184 2388.32,804.886 2399.81,803.468 2411.3,801.924 2422.79,800.248 2434.28,798.432 2445.77,796.47 2457.26,794.355 2468.75,792.082 2480.24,789.648 2491.73,787.061 2503.22,784.324 2514.71,781.443 2526.2,778.422 2537.69,775.268 2549.18,771.984 2560.67,768.577 2572.16,765.05 "/>
<polyline clip-path="url(#clip101)" style="stroke:#ffa500; stroke-linecap:round; stroke-linejoin:round; stroke-width:8; stroke-opacity:1; fill:none" stroke-dasharray="4, 8" points="285.617,1030.13 297.107,1028.05 308.597,1025.98 320.087,1023.91 331.577,1021.84 343.067,1019.78 354.558,1017.73 366.048,1015.69 377.538,1013.66 389.028,1011.63 400.518,1009.62 412.008,1007.62 423.499,1005.64 434.989,1003.67 446.479,1001.71 457.969,999.777 469.459,997.858 480.949,995.958 492.44,994.079 503.93,992.222 515.42,990.387 526.91,988.576 538.4,986.789 549.89,985.029 561.381,983.295 572.871,981.59 584.361,979.914 595.851,978.268 607.341,976.654 618.831,975.073 630.322,973.525 641.812,972.011 653.302,970.533 664.792,969.088 676.282,967.676 687.772,966.297 699.263,964.949 710.753,963.632 722.243,962.345 733.733,961.087 745.223,959.857 756.713,958.656 768.204,957.481 779.694,956.332 791.184,955.208 802.674,954.109 814.164,953.034 825.654,951.982 837.145,950.952 848.635,949.944 860.125,948.956 871.615,947.988 883.105,947.039 894.595,946.109 906.086,945.196 917.576,944.3 929.066,943.42 940.556,942.556 952.046,941.706 963.536,940.869 975.026,940.045 986.517,939.234 998.007,938.434 1009.5,937.645 1020.99,936.866 1032.48,936.096 1043.97,935.337 1055.46,934.588 1066.95,933.847 1078.44,933.116 1089.93,932.394 1101.42,931.68 1112.91,930.975 1124.4,930.278 1135.89,929.589 1147.38,928.908 1158.87,928.234 1170.36,927.567 1181.85,926.908 1193.34,926.255 1204.83,925.609 1216.32,924.969 1227.81,924.335 1239.3,923.707 1250.79,923.085 1262.28,922.468 1273.77,921.856 1285.26,921.249 1296.75,920.647 1308.24,920.049 1319.73,919.456 1331.22,918.866 1342.71,918.28 1354.2,917.698 1365.69,917.119 1377.18,916.543 1388.67,915.971 1400.16,915.401 1411.65,914.835 1423.14,914.273 1434.63,913.714 1446.12,913.159 1457.61,912.608 1469.1,912.06 1480.59,911.517 1492.08,910.978 1503.57,910.443 1515.06,909.913 1526.55,909.387 1538.04,908.866 1549.53,908.35 1561.02,907.838 1572.52,907.331 1584.01,906.83 1595.5,906.333 1606.99,905.842 1618.48,905.357 1629.97,904.876 1641.46,904.402 1652.95,903.933 1664.44,903.47 1675.93,903.013 1687.42,902.562 1698.91,902.118 1710.4,901.679 1721.89,901.247 1733.38,900.822 1744.87,900.403 1756.36,899.99 1767.85,899.584 1779.34,899.183 1790.83,898.789 1802.32,898.399 1813.81,898.015 1825.3,897.636 1836.79,897.262 1848.28,896.892 1859.77,896.527 1871.26,896.166 1882.75,895.809 1894.24,895.456 1905.73,895.106 1917.22,894.76 1928.71,894.416 1940.2,894.076 1951.69,893.738 1963.18,893.403 1974.67,893.07 1986.16,892.738 1997.65,892.409 2009.14,892.081 2020.63,891.755 2032.12,891.43 2043.61,891.105 2055.1,890.781 2066.59,890.458 2078.08,890.135 2089.57,889.812 2101.06,889.489 2112.55,889.166 2124.04,888.843 2135.53,888.519 2147.02,888.195 2158.51,887.871 2170,887.547 2181.49,887.223 2192.98,886.899 2204.47,886.574 2215.96,886.251 2227.45,885.927 2238.94,885.603 2250.43,885.28 2261.93,884.957 2273.42,884.634 2284.91,884.312 2296.4,883.99 2307.89,883.668 2319.38,883.348 2330.87,883.027 2342.36,882.707 2353.85,882.388 2365.34,882.07 2376.83,881.752 2388.32,881.435 2399.81,881.119 2411.3,880.804 2422.79,880.489 2434.28,880.176 2445.77,879.863 2457.26,879.552 2468.75,879.242 2480.24,878.933 2491.73,878.624 2503.22,878.317 2514.71,878.011 2526.2,877.706 2537.69,877.402 2549.18,877.098 2560.67,876.796 2572.16,876.494 "/>
<path clip-path="url(#clip100)" d="M297.811 492.376 L1035.88 492.376 L1035.88 181.336 L297.811 181.336  Z" fill="#ffffff" fill-rule="evenodd" fill-opacity="1"/>
<polyline clip-path="url(#clip100)" style="stroke:#000000; stroke-linecap:round; stroke-linejoin:round; stroke-width:4; stroke-opacity:1; fill:none" points="297.811,492.376 1035.88,492.376 1035.88,181.336 297.811,181.336 297.811,492.376 "/>
<polyline clip-path="url(#clip100)" style="stroke:#000000; stroke-linecap:round; stroke-linejoin:round; stroke-width:12; stroke-opacity:1; fill:none" stroke-dasharray="48, 30" points="324.742,233.176 486.324,233.176 "/>
<path clip-path="url(#clip100)" d="M513.255 215.896 L542.491 215.896 L542.491 219.831 L530.222 219.831 L530.222 250.456 L525.523 250.456 L525.523 219.831 L513.255 219.831 L513.255 215.896 Z" fill="#000000" fill-rule="nonzero" fill-opacity="1" /><path clip-path="url(#clip100)" d="M554.875 228.512 Q554.157 228.095 553.301 227.91 Q552.467 227.702 551.449 227.702 Q547.838 227.702 545.893 230.063 Q543.972 232.401 543.972 236.799 L543.972 250.456 L539.69 250.456 L539.69 224.531 L543.972 224.531 L543.972 228.558 Q545.315 226.197 547.467 225.063 Q549.62 223.906 552.699 223.906 Q553.139 223.906 553.671 223.975 Q554.203 224.021 554.852 224.137 L554.875 228.512 Z" fill="#000000" fill-rule="nonzero" fill-opacity="1" /><path clip-path="url(#clip100)" d="M558.902 240.225 L558.902 224.531 L563.162 224.531 L563.162 240.063 Q563.162 243.743 564.597 245.595 Q566.032 247.424 568.902 247.424 Q572.351 247.424 574.342 245.225 Q576.356 243.026 576.356 239.229 L576.356 224.531 L580.615 224.531 L580.615 250.456 L576.356 250.456 L576.356 246.475 Q574.805 248.836 572.745 249.993 Q570.708 251.128 568 251.128 Q563.532 251.128 561.217 248.35 Q558.902 245.572 558.902 240.225 M569.62 223.906 L569.62 223.906 Z" fill="#000000" fill-rule="nonzero" fill-opacity="1" /><path clip-path="url(#clip100)" d="M611.564 236.429 L611.564 238.512 L591.981 238.512 Q592.259 242.91 594.62 245.225 Q597.004 247.516 601.24 247.516 Q603.694 247.516 605.986 246.915 Q608.3 246.313 610.569 245.109 L610.569 249.137 Q608.277 250.109 605.87 250.618 Q603.462 251.128 600.986 251.128 Q594.782 251.128 591.148 247.516 Q587.537 243.905 587.537 237.748 Q587.537 231.382 590.963 227.655 Q594.412 223.906 600.245 223.906 Q605.476 223.906 608.509 227.285 Q611.564 230.642 611.564 236.429 M607.305 235.179 Q607.259 231.683 605.337 229.6 Q603.439 227.517 600.291 227.517 Q596.726 227.517 594.574 229.53 Q592.444 231.544 592.12 235.202 L607.305 235.179 Z" fill="#000000" fill-rule="nonzero" fill-opacity="1" /><path clip-path="url(#clip100)" d="M646.749 214.438 L646.749 217.98 L642.675 217.98 Q640.384 217.98 639.481 218.906 Q638.601 219.831 638.601 222.239 L638.601 224.531 L645.615 224.531 L645.615 227.841 L638.601 227.841 L638.601 250.456 L634.319 250.456 L634.319 227.841 L630.245 227.841 L630.245 224.531 L634.319 224.531 L634.319 222.725 Q634.319 218.396 636.333 216.429 Q638.347 214.438 642.721 214.438 L646.749 214.438 Z" fill="#000000" fill-rule="nonzero" fill-opacity="1" /><path clip-path="url(#clip100)" d="M660.545 214.484 Q657.444 219.808 655.939 225.017 Q654.434 230.225 654.434 235.572 Q654.434 240.919 655.939 246.174 Q657.467 251.405 660.545 256.706 L656.842 256.706 Q653.37 251.266 651.633 246.012 Q649.921 240.757 649.921 235.572 Q649.921 230.41 651.633 225.179 Q653.346 219.947 656.842 214.484 L660.545 214.484 Z" fill="#000000" fill-rule="nonzero" fill-opacity="1" /><path clip-path="url(#clip100)" d="M668.994 215.896 L673.67 215.896 L673.67 230.063 L690.661 230.063 L690.661 215.896 L695.337 215.896 L695.337 250.456 L690.661 250.456 L690.661 233.998 L673.67 233.998 L673.67 250.456 L668.994 250.456 L668.994 215.896 Z" fill="#000000" fill-rule="nonzero" fill-opacity="1" /><path clip-path="url(#clip100)" d="M703.786 214.484 L707.49 214.484 Q710.962 219.947 712.675 225.179 Q714.411 230.41 714.411 235.572 Q714.411 240.757 712.675 246.012 Q710.962 251.266 707.49 256.706 L703.786 256.706 Q706.865 251.405 708.369 246.174 Q709.897 240.919 709.897 235.572 Q709.897 230.225 708.369 225.017 Q706.865 219.808 703.786 214.484 Z" fill="#000000" fill-rule="nonzero" fill-opacity="1" /><polyline clip-path="url(#clip100)" style="stroke:#0000ff; stroke-linecap:round; stroke-linejoin:round; stroke-width:8; stroke-opacity:0.7; fill:none" points="324.742,285.016 486.324,285.016 "/>
<path clip-path="url(#clip100)" d="M528.856 271.81 L517.051 290.259 L528.856 290.259 L528.856 271.81 M527.63 267.736 L533.509 267.736 L533.509 290.259 L538.44 290.259 L538.44 294.148 L533.509 294.148 L533.509 302.296 L528.856 302.296 L528.856 294.148 L513.255 294.148 L513.255 289.634 L527.63 267.736 Z" fill="#000000" fill-rule="nonzero" fill-opacity="1" /><path clip-path="url(#clip100)" d="M545.222 267.736 L549.921 267.736 L549.921 288.732 Q549.921 294.287 551.935 296.741 Q553.949 299.171 558.463 299.171 Q562.953 299.171 564.967 296.741 Q566.981 294.287 566.981 288.732 L566.981 267.736 L571.68 267.736 L571.68 289.31 Q571.68 296.069 568.324 299.519 Q564.99 302.968 558.463 302.968 Q551.912 302.968 548.555 299.519 Q545.222 296.069 545.222 289.31 L545.222 267.736 Z" fill="#000000" fill-rule="nonzero" fill-opacity="1" /><path clip-path="url(#clip100)" d="M580.453 267.736 L600.314 267.736 L600.314 271.671 L585.129 271.671 L585.129 281.857 L598.833 281.857 L598.833 285.792 L585.129 285.792 L585.129 302.296 L580.453 302.296 L580.453 267.736 Z" fill="#000000" fill-rule="nonzero" fill-opacity="1" /><path clip-path="url(#clip100)" d="M622.166 292.065 L622.166 276.371 L626.425 276.371 L626.425 291.903 Q626.425 295.583 627.86 297.435 Q629.296 299.264 632.166 299.264 Q635.615 299.264 637.606 297.065 Q639.62 294.866 639.62 291.069 L639.62 276.371 L643.879 276.371 L643.879 302.296 L639.62 302.296 L639.62 298.315 Q638.069 300.676 636.009 301.833 Q633.972 302.968 631.263 302.968 Q626.796 302.968 624.481 300.19 Q622.166 297.412 622.166 292.065 M632.884 275.746 L632.884 275.746 Z" fill="#000000" fill-rule="nonzero" fill-opacity="1" /><path clip-path="url(#clip100)" d="M674.203 286.648 L674.203 302.296 L669.944 302.296 L669.944 286.787 Q669.944 283.107 668.508 281.278 Q667.073 279.449 664.203 279.449 Q660.754 279.449 658.763 281.648 Q656.772 283.847 656.772 287.644 L656.772 302.296 L652.49 302.296 L652.49 276.371 L656.772 276.371 L656.772 280.398 Q658.3 278.06 660.36 276.903 Q662.444 275.746 665.152 275.746 Q669.619 275.746 671.911 278.523 Q674.203 281.278 674.203 286.648 Z" fill="#000000" fill-rule="nonzero" fill-opacity="1" /><path clip-path="url(#clip100)" d="M701.355 277.366 L701.355 281.347 Q699.55 280.352 697.721 279.866 Q695.916 279.357 694.064 279.357 Q689.92 279.357 687.629 281.995 Q685.337 284.611 685.337 289.357 Q685.337 294.102 687.629 296.741 Q689.92 299.356 694.064 299.356 Q695.916 299.356 697.721 298.87 Q699.55 298.361 701.355 297.366 L701.355 301.301 Q699.573 302.134 697.652 302.551 Q695.754 302.968 693.601 302.968 Q687.744 302.968 684.295 299.287 Q680.846 295.607 680.846 289.357 Q680.846 283.014 684.318 279.38 Q687.814 275.746 693.879 275.746 Q695.846 275.746 697.721 276.162 Q699.596 276.556 701.355 277.366 Z" fill="#000000" fill-rule="nonzero" fill-opacity="1" /><path clip-path="url(#clip100)" d="M718.809 279.357 Q715.383 279.357 713.392 282.042 Q711.402 284.704 711.402 289.357 Q711.402 294.009 713.369 296.694 Q715.36 299.356 718.809 299.356 Q722.212 299.356 724.203 296.671 Q726.193 293.986 726.193 289.357 Q726.193 284.75 724.203 282.065 Q722.212 279.357 718.809 279.357 M718.809 275.746 Q724.365 275.746 727.536 279.357 Q730.707 282.968 730.707 289.357 Q730.707 295.722 727.536 299.356 Q724.365 302.968 718.809 302.968 Q713.23 302.968 710.059 299.356 Q706.911 295.722 706.911 289.357 Q706.911 282.968 710.059 279.357 Q713.23 275.746 718.809 275.746 Z" fill="#000000" fill-rule="nonzero" fill-opacity="1" /><path clip-path="url(#clip100)" d="M759.318 286.648 L759.318 302.296 L755.059 302.296 L755.059 286.787 Q755.059 283.107 753.624 281.278 Q752.188 279.449 749.318 279.449 Q745.869 279.449 743.878 281.648 Q741.888 283.847 741.888 287.644 L741.888 302.296 L737.605 302.296 L737.605 276.371 L741.888 276.371 L741.888 280.398 Q743.415 278.06 745.476 276.903 Q747.559 275.746 750.267 275.746 Q754.735 275.746 757.026 278.523 Q759.318 281.278 759.318 286.648 Z" fill="#000000" fill-rule="nonzero" fill-opacity="1" /><path clip-path="url(#clip100)" d="M793.114 266.324 Q790.012 271.648 788.508 276.857 Q787.003 282.065 787.003 287.412 Q787.003 292.759 788.508 298.014 Q790.036 303.245 793.114 308.546 L789.411 308.546 Q785.938 303.106 784.202 297.852 Q782.489 292.597 782.489 287.412 Q782.489 282.25 784.202 277.019 Q785.915 271.787 789.411 266.324 L793.114 266.324 Z" fill="#000000" fill-rule="nonzero" fill-opacity="1" /><path clip-path="url(#clip100)" d="M816.401 280.352 Q815.684 279.935 814.827 279.75 Q813.994 279.542 812.975 279.542 Q809.364 279.542 807.42 281.903 Q805.498 284.241 805.498 288.639 L805.498 302.296 L801.216 302.296 L801.216 276.371 L805.498 276.371 L805.498 280.398 Q806.841 278.037 808.994 276.903 Q811.147 275.746 814.225 275.746 Q814.665 275.746 815.197 275.815 Q815.73 275.861 816.378 275.977 L816.401 280.352 Z" fill="#000000" fill-rule="nonzero" fill-opacity="1" /><path clip-path="url(#clip100)" d="M821.424 280.769 L851.1 280.769 L851.1 284.657 L821.424 284.657 L821.424 280.769 M821.424 290.213 L851.1 290.213 L851.1 294.148 L821.424 294.148 L821.424 290.213 Z" fill="#000000" fill-rule="nonzero" fill-opacity="1" /><path clip-path="url(#clip100)" d="M871.192 270.815 Q867.581 270.815 865.753 274.38 Q863.947 277.921 863.947 285.051 Q863.947 292.157 865.753 295.722 Q867.581 299.264 871.192 299.264 Q874.827 299.264 876.632 295.722 Q878.461 292.157 878.461 285.051 Q878.461 277.921 876.632 274.38 Q874.827 270.815 871.192 270.815 M871.192 267.111 Q877.003 267.111 880.058 271.718 Q883.137 276.301 883.137 285.051 Q883.137 293.778 880.058 298.384 Q877.003 302.968 871.192 302.968 Q865.382 302.968 862.304 298.384 Q859.248 293.778 859.248 285.051 Q859.248 276.301 862.304 271.718 Q865.382 267.111 871.192 267.111 Z" fill="#000000" fill-rule="nonzero" fill-opacity="1" /><path clip-path="url(#clip100)" d="M891.354 296.417 L896.239 296.417 L896.239 302.296 L891.354 302.296 L891.354 296.417 Z" fill="#000000" fill-rule="nonzero" fill-opacity="1" /><path clip-path="url(#clip100)" d="M906.563 301.579 L906.563 297.319 Q908.322 298.153 910.127 298.593 Q911.933 299.032 913.669 299.032 Q918.299 299.032 920.729 295.931 Q923.183 292.806 923.53 286.463 Q922.188 288.454 920.127 289.519 Q918.067 290.583 915.567 290.583 Q910.382 290.583 907.35 287.458 Q904.34 284.31 904.34 278.87 Q904.34 273.546 907.489 270.329 Q910.637 267.111 915.868 267.111 Q921.864 267.111 925.012 271.718 Q928.183 276.301 928.183 285.051 Q928.183 293.222 924.294 298.106 Q920.428 302.968 913.877 302.968 Q912.118 302.968 910.313 302.62 Q908.507 302.273 906.563 301.579 M915.868 286.926 Q919.016 286.926 920.845 284.773 Q922.697 282.62 922.697 278.87 Q922.697 275.144 920.845 272.991 Q919.016 270.815 915.868 270.815 Q912.72 270.815 910.868 272.991 Q909.04 275.144 909.04 278.87 Q909.04 282.62 910.868 284.773 Q912.72 286.926 915.868 286.926 Z" fill="#000000" fill-rule="nonzero" fill-opacity="1" /><path clip-path="url(#clip100)" d="M937.396 298.361 L945.035 298.361 L945.035 271.996 L936.725 273.662 L936.725 269.403 L944.988 267.736 L949.664 267.736 L949.664 298.361 L957.303 298.361 L957.303 302.296 L937.396 302.296 L937.396 298.361 Z" fill="#000000" fill-rule="nonzero" fill-opacity="1" /><path clip-path="url(#clip100)" d="M967.558 298.361 L975.197 298.361 L975.197 271.996 L966.886 273.662 L966.886 269.403 L975.15 267.736 L979.826 267.736 L979.826 298.361 L987.465 298.361 L987.465 302.296 L967.558 302.296 L967.558 298.361 Z" fill="#000000" fill-rule="nonzero" fill-opacity="1" /><path clip-path="url(#clip100)" d="M995.636 266.324 L999.34 266.324 Q1002.81 271.787 1004.53 277.019 Q1006.26 282.25 1006.26 287.412 Q1006.26 292.597 1004.53 297.852 Q1002.81 303.106 999.34 308.546 L995.636 308.546 Q998.715 303.245 1000.22 298.014 Q1001.75 292.759 1001.75 287.412 Q1001.75 282.065 1000.22 276.857 Q998.715 271.648 995.636 266.324 Z" fill="#000000" fill-rule="nonzero" fill-opacity="1" /><polyline clip-path="url(#clip100)" style="stroke:#ff0000; stroke-linecap:round; stroke-linejoin:round; stroke-width:8; stroke-opacity:0.7; fill:none" points="324.742,336.856 486.324,336.856 "/>
<path clip-path="url(#clip100)" d="M528.856 323.65 L517.051 342.099 L528.856 342.099 L528.856 323.65 M527.63 319.576 L533.509 319.576 L533.509 342.099 L538.44 342.099 L538.44 345.988 L533.509 345.988 L533.509 354.136 L528.856 354.136 L528.856 345.988 L513.255 345.988 L513.255 341.474 L527.63 319.576 Z" fill="#000000" fill-rule="nonzero" fill-opacity="1" /><path clip-path="url(#clip100)" d="M545.222 319.576 L549.921 319.576 L549.921 340.572 Q549.921 346.127 551.935 348.581 Q553.949 351.011 558.463 351.011 Q562.953 351.011 564.967 348.581 Q566.981 346.127 566.981 340.572 L566.981 319.576 L571.68 319.576 L571.68 341.15 Q571.68 347.909 568.324 351.359 Q564.99 354.808 558.463 354.808 Q551.912 354.808 548.555 351.359 Q545.222 347.909 545.222 341.15 L545.222 319.576 Z" fill="#000000" fill-rule="nonzero" fill-opacity="1" /><path clip-path="url(#clip100)" d="M580.453 319.576 L600.314 319.576 L600.314 323.511 L585.129 323.511 L585.129 333.697 L598.833 333.697 L598.833 337.632 L585.129 337.632 L585.129 354.136 L580.453 354.136 L580.453 319.576 Z" fill="#000000" fill-rule="nonzero" fill-opacity="1" /><path clip-path="url(#clip100)" d="M641.263 329.206 L641.263 333.187 Q639.458 332.192 637.629 331.706 Q635.823 331.197 633.972 331.197 Q629.828 331.197 627.536 333.835 Q625.245 336.451 625.245 341.197 Q625.245 345.942 627.536 348.581 Q629.828 351.196 633.972 351.196 Q635.823 351.196 637.629 350.71 Q639.458 350.201 641.263 349.206 L641.263 353.141 Q639.481 353.974 637.559 354.391 Q635.661 354.808 633.509 354.808 Q627.652 354.808 624.203 351.127 Q620.754 347.447 620.754 341.197 Q620.754 334.854 624.226 331.22 Q627.722 327.586 633.786 327.586 Q635.754 327.586 637.629 328.002 Q639.504 328.396 641.263 329.206 Z" fill="#000000" fill-rule="nonzero" fill-opacity="1" /><path clip-path="url(#clip100)" d="M658.717 331.197 Q655.291 331.197 653.3 333.882 Q651.309 336.544 651.309 341.197 Q651.309 345.849 653.277 348.534 Q655.268 351.196 658.717 351.196 Q662.12 351.196 664.11 348.511 Q666.101 345.826 666.101 341.197 Q666.101 336.59 664.11 333.905 Q662.12 331.197 658.717 331.197 M658.717 327.586 Q664.272 327.586 667.444 331.197 Q670.615 334.808 670.615 341.197 Q670.615 347.562 667.444 351.196 Q664.272 354.808 658.717 354.808 Q653.138 354.808 649.967 351.196 Q646.819 347.562 646.819 341.197 Q646.819 334.808 649.967 331.197 Q653.138 327.586 658.717 327.586 Z" fill="#000000" fill-rule="nonzero" fill-opacity="1" /><path clip-path="url(#clip100)" d="M699.226 338.488 L699.226 354.136 L694.967 354.136 L694.967 338.627 Q694.967 334.947 693.531 333.118 Q692.096 331.289 689.226 331.289 Q685.777 331.289 683.786 333.488 Q681.795 335.687 681.795 339.484 L681.795 354.136 L677.513 354.136 L677.513 328.211 L681.795 328.211 L681.795 332.238 Q683.323 329.9 685.383 328.743 Q687.467 327.586 690.175 327.586 Q694.643 327.586 696.934 330.363 Q699.226 333.118 699.226 338.488 Z" fill="#000000" fill-rule="nonzero" fill-opacity="1" /><path clip-path="url(#clip100)" d="M724.249 328.974 L724.249 333.002 Q722.443 332.076 720.499 331.613 Q718.554 331.15 716.471 331.15 Q713.3 331.15 711.703 332.123 Q710.129 333.095 710.129 335.039 Q710.129 336.521 711.263 337.377 Q712.397 338.21 715.823 338.974 L717.281 339.298 Q721.818 340.271 723.716 342.053 Q725.638 343.812 725.638 346.984 Q725.638 350.595 722.767 352.701 Q719.92 354.808 714.92 354.808 Q712.837 354.808 710.568 354.391 Q708.323 353.997 705.823 353.187 L705.823 348.789 Q708.184 350.016 710.476 350.641 Q712.767 351.243 715.013 351.243 Q718.022 351.243 719.642 350.224 Q721.263 349.183 721.263 347.308 Q721.263 345.572 720.082 344.646 Q718.925 343.72 714.966 342.863 L713.485 342.516 Q709.527 341.683 707.767 339.97 Q706.008 338.234 706.008 335.224 Q706.008 331.567 708.601 329.576 Q711.193 327.586 715.962 327.586 Q718.323 327.586 720.406 327.933 Q722.49 328.28 724.249 328.974 Z" fill="#000000" fill-rule="nonzero" fill-opacity="1" /><path clip-path="url(#clip100)" d="M736.633 320.849 L736.633 328.211 L745.406 328.211 L745.406 331.521 L736.633 331.521 L736.633 345.595 Q736.633 348.766 737.49 349.669 Q738.369 350.571 741.031 350.571 L745.406 350.571 L745.406 354.136 L741.031 354.136 Q736.101 354.136 734.226 352.308 Q732.351 350.456 732.351 345.595 L732.351 331.521 L729.226 331.521 L729.226 328.211 L732.351 328.211 L732.351 320.849 L736.633 320.849 Z" fill="#000000" fill-rule="nonzero" fill-opacity="1" /><path clip-path="url(#clip100)" d="M766.031 332.192 Q765.313 331.775 764.457 331.59 Q763.624 331.382 762.605 331.382 Q758.994 331.382 757.05 333.743 Q755.128 336.081 755.128 340.479 L755.128 354.136 L750.846 354.136 L750.846 328.211 L755.128 328.211 L755.128 332.238 Q756.471 329.877 758.624 328.743 Q760.776 327.586 763.855 327.586 Q764.295 327.586 764.827 327.655 Q765.36 327.701 766.008 327.817 L766.031 332.192 Z" fill="#000000" fill-rule="nonzero" fill-opacity="1" /><path clip-path="url(#clip100)" d="M795.799 318.164 Q792.698 323.488 791.193 328.697 Q789.688 333.905 789.688 339.252 Q789.688 344.599 791.193 349.854 Q792.721 355.085 795.799 360.386 L792.096 360.386 Q788.623 354.946 786.887 349.692 Q785.174 344.437 785.174 339.252 Q785.174 334.09 786.887 328.859 Q788.6 323.627 792.096 318.164 L795.799 318.164 Z" fill="#000000" fill-rule="nonzero" fill-opacity="1" /><path clip-path="url(#clip100)" d="M819.086 332.192 Q818.369 331.775 817.512 331.59 Q816.679 331.382 815.66 331.382 Q812.049 331.382 810.105 333.743 Q808.184 336.081 808.184 340.479 L808.184 354.136 L803.901 354.136 L803.901 328.211 L808.184 328.211 L808.184 332.238 Q809.526 329.877 811.679 328.743 Q813.832 327.586 816.91 327.586 Q817.35 327.586 817.883 327.655 Q818.415 327.701 819.063 327.817 L819.086 332.192 Z" fill="#000000" fill-rule="nonzero" fill-opacity="1" /><path clip-path="url(#clip100)" d="M824.109 332.609 L853.785 332.609 L853.785 336.497 L824.109 336.497 L824.109 332.609 M824.109 342.053 L853.785 342.053 L853.785 345.988 L824.109 345.988 L824.109 342.053 Z" fill="#000000" fill-rule="nonzero" fill-opacity="1" /><path clip-path="url(#clip100)" d="M873.878 322.655 Q870.267 322.655 868.438 326.22 Q866.632 329.761 866.632 336.891 Q866.632 343.997 868.438 347.562 Q870.267 351.104 873.878 351.104 Q877.512 351.104 879.317 347.562 Q881.146 343.997 881.146 336.891 Q881.146 329.761 879.317 326.22 Q877.512 322.655 873.878 322.655 M873.878 318.951 Q879.688 318.951 882.743 323.558 Q885.822 328.141 885.822 336.891 Q885.822 345.618 882.743 350.224 Q879.688 354.808 873.878 354.808 Q868.068 354.808 864.989 350.224 Q861.933 345.618 861.933 336.891 Q861.933 328.141 864.989 323.558 Q868.068 318.951 873.878 318.951 Z" fill="#000000" fill-rule="nonzero" fill-opacity="1" /><path clip-path="url(#clip100)" d="M894.04 348.257 L898.924 348.257 L898.924 354.136 L894.04 354.136 L894.04 348.257 Z" fill="#000000" fill-rule="nonzero" fill-opacity="1" /><path clip-path="url(#clip100)" d="M909.248 353.419 L909.248 349.159 Q911.007 349.993 912.813 350.433 Q914.618 350.872 916.354 350.872 Q920.984 350.872 923.414 347.771 Q925.868 344.646 926.215 338.303 Q924.873 340.294 922.813 341.359 Q920.752 342.423 918.252 342.423 Q913.067 342.423 910.035 339.298 Q907.026 336.15 907.026 330.71 Q907.026 325.386 910.174 322.169 Q913.322 318.951 918.553 318.951 Q924.549 318.951 927.697 323.558 Q930.868 328.141 930.868 336.891 Q930.868 345.062 926.979 349.946 Q923.114 354.808 916.563 354.808 Q914.803 354.808 912.998 354.46 Q911.192 354.113 909.248 353.419 M918.553 338.766 Q921.701 338.766 923.53 336.613 Q925.382 334.46 925.382 330.71 Q925.382 326.984 923.53 324.831 Q921.701 322.655 918.553 322.655 Q915.405 322.655 913.553 324.831 Q911.725 326.984 911.725 330.71 Q911.725 334.46 913.553 336.613 Q915.405 338.766 918.553 338.766 Z" fill="#000000" fill-rule="nonzero" fill-opacity="1" /><path clip-path="url(#clip100)" d="M949.271 337.724 Q945.937 337.724 944.016 339.507 Q942.118 341.289 942.118 344.414 Q942.118 347.539 944.016 349.321 Q945.937 351.104 949.271 351.104 Q952.604 351.104 954.525 349.321 Q956.447 347.516 956.447 344.414 Q956.447 341.289 954.525 339.507 Q952.627 337.724 949.271 337.724 M944.595 335.734 Q941.586 334.993 939.896 332.933 Q938.229 330.873 938.229 327.91 Q938.229 323.766 941.169 321.359 Q944.132 318.951 949.271 318.951 Q954.433 318.951 957.373 321.359 Q960.312 323.766 960.312 327.91 Q960.312 330.873 958.623 332.933 Q956.956 334.993 953.97 335.734 Q957.349 336.521 959.224 338.812 Q961.123 341.104 961.123 344.414 Q961.123 349.437 958.044 352.122 Q954.988 354.808 949.271 354.808 Q943.553 354.808 940.475 352.122 Q937.419 349.437 937.419 344.414 Q937.419 341.104 939.317 338.812 Q941.215 336.521 944.595 335.734 M942.882 328.349 Q942.882 331.035 944.549 332.539 Q946.238 334.044 949.271 334.044 Q952.28 334.044 953.97 332.539 Q955.683 331.035 955.683 328.349 Q955.683 325.664 953.97 324.16 Q952.28 322.655 949.271 322.655 Q946.238 322.655 944.549 324.16 Q942.882 325.664 942.882 328.349 Z" fill="#000000" fill-rule="nonzero" fill-opacity="1" /><path clip-path="url(#clip100)" d="M968.252 319.576 L990.474 319.576 L990.474 321.567 L977.928 354.136 L973.044 354.136 L984.849 323.511 L968.252 323.511 L968.252 319.576 Z" fill="#000000" fill-rule="nonzero" fill-opacity="1" /><path clip-path="url(#clip100)" d="M998.321 318.164 L1002.03 318.164 Q1005.5 323.627 1007.21 328.859 Q1008.95 334.09 1008.95 339.252 Q1008.95 344.437 1007.21 349.692 Q1005.5 354.946 1002.03 360.386 L998.321 360.386 Q1001.4 355.085 1002.9 349.854 Q1004.43 344.599 1004.43 339.252 Q1004.43 333.905 1002.9 328.697 Q1001.4 323.488 998.321 318.164 Z" fill="#000000" fill-rule="nonzero" fill-opacity="1" /><polyline clip-path="url(#clip100)" style="stroke:#00ffff; stroke-linecap:round; stroke-linejoin:round; stroke-width:8; stroke-opacity:1; fill:none" stroke-dasharray="4, 8" points="324.742,388.696 486.324,388.696 "/>
<path clip-path="url(#clip100)" d="M518.88 402.041 L535.199 402.041 L535.199 405.976 L513.255 405.976 L513.255 402.041 Q515.917 399.287 520.5 394.657 Q525.106 390.004 526.287 388.662 Q528.532 386.138 529.412 384.402 Q530.315 382.643 530.315 380.953 Q530.315 378.199 528.37 376.463 Q526.449 374.726 523.347 374.726 Q521.148 374.726 518.694 375.49 Q516.264 376.254 513.486 377.805 L513.486 373.083 Q516.31 371.949 518.764 371.37 Q521.218 370.791 523.255 370.791 Q528.625 370.791 531.819 373.476 Q535.014 376.162 535.014 380.652 Q535.014 382.782 534.204 384.703 Q533.417 386.601 531.31 389.194 Q530.731 389.865 527.63 393.083 Q524.528 396.277 518.88 402.041 Z" fill="#000000" fill-rule="nonzero" fill-opacity="1" /><path clip-path="url(#clip100)" d="M544.065 371.416 L548.764 371.416 L548.764 392.412 Q548.764 397.967 550.778 400.421 Q552.791 402.851 557.305 402.851 Q561.796 402.851 563.81 400.421 Q565.824 397.967 565.824 392.412 L565.824 371.416 L570.523 371.416 L570.523 392.99 Q570.523 399.749 567.166 403.199 Q563.833 406.648 557.305 406.648 Q550.754 406.648 547.398 403.199 Q544.065 399.749 544.065 392.99 L544.065 371.416 Z" fill="#000000" fill-rule="nonzero" fill-opacity="1" /><path clip-path="url(#clip100)" d="M579.296 371.416 L599.157 371.416 L599.157 375.351 L583.972 375.351 L583.972 385.537 L597.675 385.537 L597.675 389.472 L583.972 389.472 L583.972 405.976 L579.296 405.976 L579.296 371.416 Z" fill="#000000" fill-rule="nonzero" fill-opacity="1" /><path clip-path="url(#clip100)" d="M621.009 395.745 L621.009 380.051 L625.268 380.051 L625.268 395.583 Q625.268 399.263 626.703 401.115 Q628.138 402.944 631.009 402.944 Q634.458 402.944 636.448 400.745 Q638.462 398.546 638.462 394.749 L638.462 380.051 L642.721 380.051 L642.721 405.976 L638.462 405.976 L638.462 401.995 Q636.911 404.356 634.851 405.513 Q632.814 406.648 630.106 406.648 Q625.638 406.648 623.323 403.87 Q621.009 401.092 621.009 395.745 M631.726 379.426 L631.726 379.426 Z" fill="#000000" fill-rule="nonzero" fill-opacity="1" /><path clip-path="url(#clip100)" d="M673.045 390.328 L673.045 405.976 L668.786 405.976 L668.786 390.467 Q668.786 386.787 667.351 384.958 Q665.916 383.129 663.045 383.129 Q659.596 383.129 657.606 385.328 Q655.615 387.527 655.615 391.324 L655.615 405.976 L651.333 405.976 L651.333 380.051 L655.615 380.051 L655.615 384.078 Q657.143 381.74 659.203 380.583 Q661.286 379.426 663.995 379.426 Q668.462 379.426 670.754 382.203 Q673.045 384.958 673.045 390.328 Z" fill="#000000" fill-rule="nonzero" fill-opacity="1" /><path clip-path="url(#clip100)" d="M700.198 381.046 L700.198 385.027 Q698.392 384.032 696.564 383.546 Q694.758 383.037 692.906 383.037 Q688.763 383.037 686.471 385.675 Q684.18 388.291 684.18 393.037 Q684.18 397.782 686.471 400.421 Q688.763 403.036 692.906 403.036 Q694.758 403.036 696.564 402.55 Q698.392 402.041 700.198 401.046 L700.198 404.981 Q698.416 405.814 696.494 406.231 Q694.596 406.648 692.443 406.648 Q686.587 406.648 683.138 402.967 Q679.689 399.287 679.689 393.037 Q679.689 386.694 683.161 383.06 Q686.656 379.426 692.721 379.426 Q694.689 379.426 696.564 379.842 Q698.439 380.236 700.198 381.046 Z" fill="#000000" fill-rule="nonzero" fill-opacity="1" /><path clip-path="url(#clip100)" d="M717.652 383.037 Q714.226 383.037 712.235 385.722 Q710.244 388.384 710.244 393.037 Q710.244 397.689 712.212 400.374 Q714.203 403.036 717.652 403.036 Q721.054 403.036 723.045 400.351 Q725.036 397.666 725.036 393.037 Q725.036 388.43 723.045 385.745 Q721.054 383.037 717.652 383.037 M717.652 379.426 Q723.207 379.426 726.378 383.037 Q729.55 386.648 729.55 393.037 Q729.55 399.402 726.378 403.036 Q723.207 406.648 717.652 406.648 Q712.073 406.648 708.902 403.036 Q705.754 399.402 705.754 393.037 Q705.754 386.648 708.902 383.037 Q712.073 379.426 717.652 379.426 Z" fill="#000000" fill-rule="nonzero" fill-opacity="1" /><path clip-path="url(#clip100)" d="M758.161 390.328 L758.161 405.976 L753.901 405.976 L753.901 390.467 Q753.901 386.787 752.466 384.958 Q751.031 383.129 748.161 383.129 Q744.712 383.129 742.721 385.328 Q740.73 387.527 740.73 391.324 L740.73 405.976 L736.448 405.976 L736.448 380.051 L740.73 380.051 L740.73 384.078 Q742.258 381.74 744.318 380.583 Q746.401 379.426 749.11 379.426 Q753.577 379.426 755.869 382.203 Q758.161 384.958 758.161 390.328 Z" fill="#000000" fill-rule="nonzero" fill-opacity="1" /><path clip-path="url(#clip100)" d="M791.957 370.004 Q788.855 375.328 787.35 380.537 Q785.846 385.745 785.846 391.092 Q785.846 396.439 787.35 401.694 Q788.878 406.925 791.957 412.226 L788.253 412.226 Q784.781 406.786 783.045 401.532 Q781.332 396.277 781.332 391.092 Q781.332 385.93 783.045 380.699 Q784.758 375.467 788.253 370.004 L791.957 370.004 Z" fill="#000000" fill-rule="nonzero" fill-opacity="1" /><path clip-path="url(#clip100)" d="M815.244 384.032 Q814.526 383.615 813.67 383.43 Q812.836 383.222 811.818 383.222 Q808.207 383.222 806.262 385.583 Q804.341 387.921 804.341 392.319 L804.341 405.976 L800.059 405.976 L800.059 380.051 L804.341 380.051 L804.341 384.078 Q805.684 381.717 807.836 380.583 Q809.989 379.426 813.068 379.426 Q813.508 379.426 814.04 379.495 Q814.572 379.541 815.221 379.657 L815.244 384.032 Z" fill="#000000" fill-rule="nonzero" fill-opacity="1" /><path clip-path="url(#clip100)" d="M820.267 384.449 L849.943 384.449 L849.943 388.337 L820.267 388.337 L820.267 384.449 M820.267 393.893 L849.943 393.893 L849.943 397.828 L820.267 397.828 L820.267 393.893 Z" fill="#000000" fill-rule="nonzero" fill-opacity="1" /><path clip-path="url(#clip100)" d="M870.035 374.495 Q866.424 374.495 864.595 378.06 Q862.79 381.601 862.79 388.731 Q862.79 395.837 864.595 399.402 Q866.424 402.944 870.035 402.944 Q873.669 402.944 875.475 399.402 Q877.304 395.837 877.304 388.731 Q877.304 381.601 875.475 378.06 Q873.669 374.495 870.035 374.495 M870.035 370.791 Q875.845 370.791 878.901 375.398 Q881.979 379.981 881.979 388.731 Q881.979 397.458 878.901 402.064 Q875.845 406.648 870.035 406.648 Q864.225 406.648 861.146 402.064 Q858.091 397.458 858.091 388.731 Q858.091 379.981 861.146 375.398 Q864.225 370.791 870.035 370.791 Z" fill="#000000" fill-rule="nonzero" fill-opacity="1" /><path clip-path="url(#clip100)" d="M890.197 400.097 L895.081 400.097 L895.081 405.976 L890.197 405.976 L890.197 400.097 Z" fill="#000000" fill-rule="nonzero" fill-opacity="1" /><path clip-path="url(#clip100)" d="M905.405 405.259 L905.405 400.999 Q907.165 401.833 908.97 402.273 Q910.776 402.712 912.512 402.712 Q917.141 402.712 919.572 399.611 Q922.026 396.486 922.373 390.143 Q921.03 392.134 918.97 393.199 Q916.91 394.263 914.41 394.263 Q909.225 394.263 906.192 391.138 Q903.183 387.99 903.183 382.55 Q903.183 377.226 906.331 374.009 Q909.479 370.791 914.711 370.791 Q920.706 370.791 923.854 375.398 Q927.026 379.981 927.026 388.731 Q927.026 396.902 923.137 401.786 Q919.271 406.648 912.72 406.648 Q910.961 406.648 909.155 406.3 Q907.35 405.953 905.405 405.259 M914.711 390.606 Q917.859 390.606 919.688 388.453 Q921.539 386.3 921.539 382.55 Q921.539 378.824 919.688 376.671 Q917.859 374.495 914.711 374.495 Q911.563 374.495 909.711 376.671 Q907.882 378.824 907.882 382.55 Q907.882 386.3 909.711 388.453 Q911.563 390.606 914.711 390.606 Z" fill="#000000" fill-rule="nonzero" fill-opacity="1" /><path clip-path="url(#clip100)" d="M935.567 405.259 L935.567 400.999 Q937.326 401.833 939.132 402.273 Q940.937 402.712 942.674 402.712 Q947.303 402.712 949.734 399.611 Q952.187 396.486 952.535 390.143 Q951.192 392.134 949.132 393.199 Q947.072 394.263 944.572 394.263 Q939.387 394.263 936.354 391.138 Q933.345 387.99 933.345 382.55 Q933.345 377.226 936.493 374.009 Q939.641 370.791 944.873 370.791 Q950.868 370.791 954.016 375.398 Q957.187 379.981 957.187 388.731 Q957.187 396.902 953.299 401.786 Q949.433 406.648 942.882 406.648 Q941.123 406.648 939.317 406.3 Q937.512 405.953 935.567 405.259 M944.873 390.606 Q948.021 390.606 949.849 388.453 Q951.701 386.3 951.701 382.55 Q951.701 378.824 949.849 376.671 Q948.021 374.495 944.873 374.495 Q941.725 374.495 939.873 376.671 Q938.044 378.824 938.044 382.55 Q938.044 386.3 939.873 388.453 Q941.725 390.606 944.873 390.606 Z" fill="#000000" fill-rule="nonzero" fill-opacity="1" /><path clip-path="url(#clip100)" d="M969.618 402.041 L985.937 402.041 L985.937 405.976 L963.993 405.976 L963.993 402.041 Q966.655 399.287 971.238 394.657 Q975.845 390.004 977.025 388.662 Q979.271 386.138 980.15 384.402 Q981.053 382.643 981.053 380.953 Q981.053 378.199 979.109 376.463 Q977.187 374.726 974.085 374.726 Q971.886 374.726 969.433 375.49 Q967.002 376.254 964.224 377.805 L964.224 373.083 Q967.048 371.949 969.502 371.37 Q971.956 370.791 973.993 370.791 Q979.363 370.791 982.558 373.476 Q985.752 376.162 985.752 380.652 Q985.752 382.782 984.942 384.703 Q984.155 386.601 982.048 389.194 Q981.47 389.865 978.368 393.083 Q975.266 396.277 969.618 402.041 Z" fill="#000000" fill-rule="nonzero" fill-opacity="1" /><path clip-path="url(#clip100)" d="M994.479 370.004 L998.183 370.004 Q1001.65 375.467 1003.37 380.699 Q1005.1 385.93 1005.1 391.092 Q1005.1 396.277 1003.37 401.532 Q1001.65 406.786 998.183 412.226 L994.479 412.226 Q997.558 406.925 999.062 401.694 Q1000.59 396.439 1000.59 391.092 Q1000.59 385.745 999.062 380.537 Q997.558 375.328 994.479 370.004 Z" fill="#000000" fill-rule="nonzero" fill-opacity="1" /><polyline clip-path="url(#clip100)" style="stroke:#ffa500; stroke-linecap:round; stroke-linejoin:round; stroke-width:8; stroke-opacity:1; fill:none" stroke-dasharray="4, 8" points="324.742,440.536 486.324,440.536 "/>
<path clip-path="url(#clip100)" d="M518.88 453.881 L535.199 453.881 L535.199 457.816 L513.255 457.816 L513.255 453.881 Q515.917 451.127 520.5 446.497 Q525.106 441.844 526.287 440.502 Q528.532 437.978 529.412 436.242 Q530.315 434.483 530.315 432.793 Q530.315 430.039 528.37 428.303 Q526.449 426.566 523.347 426.566 Q521.148 426.566 518.694 427.33 Q516.264 428.094 513.486 429.645 L513.486 424.923 Q516.31 423.789 518.764 423.21 Q521.218 422.631 523.255 422.631 Q528.625 422.631 531.819 425.316 Q535.014 428.002 535.014 432.492 Q535.014 434.622 534.204 436.543 Q533.417 438.441 531.31 441.034 Q530.731 441.705 527.63 444.923 Q524.528 448.117 518.88 453.881 Z" fill="#000000" fill-rule="nonzero" fill-opacity="1" /><path clip-path="url(#clip100)" d="M544.065 423.256 L548.764 423.256 L548.764 444.252 Q548.764 449.807 550.778 452.261 Q552.791 454.691 557.305 454.691 Q561.796 454.691 563.81 452.261 Q565.824 449.807 565.824 444.252 L565.824 423.256 L570.523 423.256 L570.523 444.83 Q570.523 451.589 567.166 455.039 Q563.833 458.488 557.305 458.488 Q550.754 458.488 547.398 455.039 Q544.065 451.589 544.065 444.83 L544.065 423.256 Z" fill="#000000" fill-rule="nonzero" fill-opacity="1" /><path clip-path="url(#clip100)" d="M579.296 423.256 L599.157 423.256 L599.157 427.191 L583.972 427.191 L583.972 437.377 L597.675 437.377 L597.675 441.312 L583.972 441.312 L583.972 457.816 L579.296 457.816 L579.296 423.256 Z" fill="#000000" fill-rule="nonzero" fill-opacity="1" /><path clip-path="url(#clip100)" d="M621.448 431.891 L625.708 431.891 L625.708 457.816 L621.448 457.816 L621.448 431.891 M621.448 421.798 L625.708 421.798 L625.708 427.191 L621.448 427.191 L621.448 421.798 Z" fill="#000000" fill-rule="nonzero" fill-opacity="1" /><path clip-path="url(#clip100)" d="M656.17 442.168 L656.17 457.816 L651.911 457.816 L651.911 442.307 Q651.911 438.627 650.476 436.798 Q649.041 434.969 646.171 434.969 Q642.721 434.969 640.731 437.168 Q638.74 439.367 638.74 443.164 L638.74 457.816 L634.458 457.816 L634.458 431.891 L638.74 431.891 L638.74 435.918 Q640.268 433.58 642.328 432.423 Q644.411 431.266 647.12 431.266 Q651.587 431.266 653.879 434.043 Q656.17 436.798 656.17 442.168 Z" fill="#000000" fill-rule="nonzero" fill-opacity="1" /><path clip-path="url(#clip100)" d="M683.323 432.886 L683.323 436.867 Q681.518 435.872 679.689 435.386 Q677.883 434.877 676.031 434.877 Q671.888 434.877 669.596 437.515 Q667.305 440.131 667.305 444.877 Q667.305 449.622 669.596 452.261 Q671.888 454.876 676.031 454.876 Q677.883 454.876 679.689 454.39 Q681.518 453.881 683.323 452.886 L683.323 456.821 Q681.541 457.654 679.619 458.071 Q677.721 458.488 675.569 458.488 Q669.712 458.488 666.263 454.807 Q662.814 451.127 662.814 444.877 Q662.814 438.534 666.286 434.9 Q669.782 431.266 675.846 431.266 Q677.814 431.266 679.689 431.682 Q681.564 432.076 683.323 432.886 Z" fill="#000000" fill-rule="nonzero" fill-opacity="1" /><path clip-path="url(#clip100)" d="M705.754 435.872 Q705.036 435.455 704.179 435.27 Q703.346 435.062 702.328 435.062 Q698.717 435.062 696.772 437.423 Q694.851 439.761 694.851 444.159 L694.851 457.816 L690.568 457.816 L690.568 431.891 L694.851 431.891 L694.851 435.918 Q696.193 433.557 698.346 432.423 Q700.499 431.266 703.578 431.266 Q704.017 431.266 704.55 431.335 Q705.082 431.381 705.73 431.497 L705.754 435.872 Z" fill="#000000" fill-rule="nonzero" fill-opacity="1" /><path clip-path="url(#clip100)" d="M735.522 421.844 Q732.42 427.168 730.915 432.377 Q729.411 437.585 729.411 442.932 Q729.411 448.279 730.915 453.534 Q732.443 458.765 735.522 464.066 L731.818 464.066 Q728.346 458.626 726.61 453.372 Q724.897 448.117 724.897 442.932 Q724.897 437.77 726.61 432.539 Q728.323 427.307 731.818 421.844 L735.522 421.844 Z" fill="#000000" fill-rule="nonzero" fill-opacity="1" /><path clip-path="url(#clip100)" d="M758.809 435.872 Q758.091 435.455 757.235 435.27 Q756.401 435.062 755.383 435.062 Q751.772 435.062 749.827 437.423 Q747.906 439.761 747.906 444.159 L747.906 457.816 L743.624 457.816 L743.624 431.891 L747.906 431.891 L747.906 435.918 Q749.249 433.557 751.401 432.423 Q753.554 431.266 756.633 431.266 Q757.073 431.266 757.605 431.335 Q758.138 431.381 758.786 431.497 L758.809 435.872 Z" fill="#000000" fill-rule="nonzero" fill-opacity="1" /><path clip-path="url(#clip100)" d="M763.832 436.289 L793.508 436.289 L793.508 440.177 L763.832 440.177 L763.832 436.289 M763.832 445.733 L793.508 445.733 L793.508 449.668 L763.832 449.668 L763.832 445.733 Z" fill="#000000" fill-rule="nonzero" fill-opacity="1" /><path clip-path="url(#clip100)" d="M804.41 453.881 L812.049 453.881 L812.049 427.516 L803.739 429.182 L803.739 424.923 L812.003 423.256 L816.679 423.256 L816.679 453.881 L824.318 453.881 L824.318 457.816 L804.41 457.816 L804.41 453.881 Z" fill="#000000" fill-rule="nonzero" fill-opacity="1" /><path clip-path="url(#clip100)" d="M833.762 451.937 L838.646 451.937 L838.646 457.816 L833.762 457.816 L833.762 451.937 Z" fill="#000000" fill-rule="nonzero" fill-opacity="1" /><path clip-path="url(#clip100)" d="M858.831 426.335 Q855.22 426.335 853.392 429.9 Q851.586 433.441 851.586 440.571 Q851.586 447.677 853.392 451.242 Q855.22 454.784 858.831 454.784 Q862.466 454.784 864.271 451.242 Q866.1 447.677 866.1 440.571 Q866.1 433.441 864.271 429.9 Q862.466 426.335 858.831 426.335 M858.831 422.631 Q864.642 422.631 867.697 427.238 Q870.776 431.821 870.776 440.571 Q870.776 449.298 867.697 453.904 Q864.642 458.488 858.831 458.488 Q853.021 458.488 849.943 453.904 Q846.887 449.298 846.887 440.571 Q846.887 431.821 849.943 427.238 Q853.021 422.631 858.831 422.631 Z" fill="#000000" fill-rule="nonzero" fill-opacity="1" /><path clip-path="url(#clip100)" d="M877.72 421.844 L881.424 421.844 Q884.896 427.307 886.609 432.539 Q888.345 437.77 888.345 442.932 Q888.345 448.117 886.609 453.372 Q884.896 458.626 881.424 464.066 L877.72 464.066 Q880.799 458.765 882.304 453.534 Q883.831 448.279 883.831 442.932 Q883.831 437.585 882.304 432.377 Q880.799 427.168 877.72 421.844 Z" fill="#000000" fill-rule="nonzero" fill-opacity="1" /></svg>
