<?xml version="1.0" encoding="utf-8"?>
<svg xmlns="http://www.w3.org/2000/svg" xmlns:xlink="http://www.w3.org/1999/xlink" width="672" height="480" viewBox="0 0 2688 1920">
<defs>
  <clipPath id="clip860">
    <rect x="0" y="0" width="2688" height="1920"/>
  </clipPath>
</defs>
<path clip-path="url(#clip860)" d="M0 1920 L2688 1920 L2688 -4.26326e-14 L0 -4.26326e-14  Z" fill="#ffffff" fill-rule="evenodd" fill-opacity="1"/>
<defs>
  <clipPath id="clip861">
    <rect x="292" y="127" width="2349" height="1607"/>
  </clipPath>
</defs>
<path clip-path="url(#clip860)" d="M292.645 1734.12 L2640.76 1734.12 L2640.76 127.792 L292.645 127.792  Z" fill="#ffffff" fill-rule="evenodd" fill-opacity="1"/>
<polyline clip-path="url(#clip861)" style="stroke:#000000; stroke-linecap:round; stroke-linejoin:round; stroke-width:2; stroke-opacity:0.1; fill:none" points="336.725,1734.12 336.725,127.792 "/>
<polyline clip-path="url(#clip861)" style="stroke:#000000; stroke-linecap:round; stroke-linejoin:round; stroke-width:2; stroke-opacity:0.1; fill:none" points="896.119,1734.12 896.119,127.792 "/>
<polyline clip-path="url(#clip861)" style="stroke:#000000; stroke-linecap:round; stroke-linejoin:round; stroke-width:2; stroke-opacity:0.1; fill:none" points="1455.51,1734.12 1455.51,127.792 "/>
<polyline clip-path="url(#clip861)" style="stroke:#000000; stroke-linecap:round; stroke-linejoin:round; stroke-width:2; stroke-opacity:0.1; fill:none" points="2014.91,1734.12 2014.91,127.792 "/>
<polyline clip-path="url(#clip861)" style="stroke:#000000; stroke-linecap:round; stroke-linejoin:round; stroke-width:2; stroke-opacity:0.1; fill:none" points="2574.3,1734.12 2574.3,127.792 "/>
<polyline clip-path="url(#clip861)" style="stroke:#000000; stroke-linecap:round; stroke-linejoin:round; stroke-width:2; stroke-opacity:0.1; fill:none" points="292.645,1441.46 2640.76,1441.46 "/>
<polyline clip-path="url(#clip861)" style="stroke:#000000; stroke-linecap:round; stroke-linejoin:round; stroke-width:2; stroke-opacity:0.1; fill:none" points="292.645,1090.6 2640.76,1090.6 "/>
<polyline clip-path="url(#clip861)" style="stroke:#000000; stroke-linecap:round; stroke-linejoin:round; stroke-width:2; stroke-opacity:0.1; fill:none" points="292.645,739.748 2640.76,739.748 "/>
<polyline clip-path="url(#clip861)" style="stroke:#000000; stroke-linecap:round; stroke-linejoin:round; stroke-width:2; stroke-opacity:0.1; fill:none" points="292.645,388.892 2640.76,388.892 "/>
<polyline clip-path="url(#clip860)" style="stroke:#000000; stroke-linecap:round; stroke-linejoin:round; stroke-width:4; stroke-opacity:1; fill:none" points="292.645,1734.12 2640.76,1734.12 "/>
<polyline clip-path="url(#clip860)" style="stroke:#000000; stroke-linecap:round; stroke-linejoin:round; stroke-width:4; stroke-opacity:1; fill:none" points="336.725,1734.12 336.725,1715.22 "/>
<polyline clip-path="url(#clip860)" style="stroke:#000000; stroke-linecap:round; stroke-linejoin:round; stroke-width:4; stroke-opacity:1; fill:none" points="896.119,1734.12 896.119,1715.22 "/>
<polyline clip-path="url(#clip860)" style="stroke:#000000; stroke-linecap:round; stroke-linejoin:round; stroke-width:4; stroke-opacity:1; fill:none" points="1455.51,1734.12 1455.51,1715.22 "/>
<polyline clip-path="url(#clip860)" style="stroke:#000000; stroke-linecap:round; stroke-linejoin:round; stroke-width:4; stroke-opacity:1; fill:none" points="2014.91,1734.12 2014.91,1715.22 "/>
<polyline clip-path="url(#clip860)" style="stroke:#000000; stroke-linecap:round; stroke-linejoin:round; stroke-width:4; stroke-opacity:1; fill:none" points="2574.3,1734.12 2574.3,1715.22 "/>
<path clip-path="url(#clip860)" d="M314.109 1767.34 Q310.498 1767.34 308.67 1770.9 Q306.864 1774.45 306.864 1781.58 Q306.864 1788.68 308.67 1792.25 Q310.498 1795.79 314.109 1795.79 Q317.744 1795.79 319.549 1792.25 Q321.378 1788.68 321.378 1781.58 Q321.378 1774.45 319.549 1770.9 Q317.744 1767.34 314.109 1767.34 M314.109 1763.64 Q319.92 1763.64 322.975 1768.24 Q326.054 1772.83 326.054 1781.58 Q326.054 1790.3 322.975 1794.91 Q319.92 1799.49 314.109 1799.49 Q308.299 1799.49 305.221 1794.91 Q302.165 1790.3 302.165 1781.58 Q302.165 1772.83 305.221 1768.24 Q308.299 1763.64 314.109 1763.64 Z" fill="#000000" fill-rule="nonzero" fill-opacity="1" /><path clip-path="url(#clip860)" d="M334.271 1792.94 L339.156 1792.94 L339.156 1798.82 L334.271 1798.82 L334.271 1792.94 Z" fill="#000000" fill-rule="nonzero" fill-opacity="1" /><path clip-path="url(#clip860)" d="M359.341 1767.34 Q355.73 1767.34 353.901 1770.9 Q352.095 1774.45 352.095 1781.58 Q352.095 1788.68 353.901 1792.25 Q355.73 1795.79 359.341 1795.79 Q362.975 1795.79 364.78 1792.25 Q366.609 1788.68 366.609 1781.58 Q366.609 1774.45 364.78 1770.9 Q362.975 1767.34 359.341 1767.34 M359.341 1763.64 Q365.151 1763.64 368.206 1768.24 Q371.285 1772.83 371.285 1781.58 Q371.285 1790.3 368.206 1794.91 Q365.151 1799.49 359.341 1799.49 Q353.531 1799.49 350.452 1794.91 Q347.396 1790.3 347.396 1781.58 Q347.396 1772.83 350.452 1768.24 Q353.531 1763.64 359.341 1763.64 Z" fill="#000000" fill-rule="nonzero" fill-opacity="1" /><path clip-path="url(#clip860)" d="M867.855 1794.89 L884.174 1794.89 L884.174 1798.82 L862.23 1798.82 L862.23 1794.89 Q864.892 1792.13 869.475 1787.5 Q874.082 1782.85 875.262 1781.51 Q877.508 1778.98 878.387 1777.25 Q879.29 1775.49 879.29 1773.8 Q879.29 1771.04 877.346 1769.31 Q875.424 1767.57 872.323 1767.57 Q870.124 1767.57 867.67 1768.34 Q865.239 1769.1 862.462 1770.65 L862.462 1765.93 Q865.286 1764.79 867.739 1764.21 Q870.193 1763.64 872.23 1763.64 Q877.6 1763.64 880.795 1766.32 Q883.989 1769.01 883.989 1773.5 Q883.989 1775.63 883.179 1777.55 Q882.392 1779.45 880.286 1782.04 Q879.707 1782.71 876.605 1785.93 Q873.503 1789.12 867.855 1794.89 Z" fill="#000000" fill-rule="nonzero" fill-opacity="1" /><path clip-path="url(#clip860)" d="M893.989 1792.94 L898.873 1792.94 L898.873 1798.82 L893.989 1798.82 L893.989 1792.94 Z" fill="#000000" fill-rule="nonzero" fill-opacity="1" /><path clip-path="url(#clip860)" d="M909.105 1764.26 L927.461 1764.26 L927.461 1768.2 L913.387 1768.2 L913.387 1776.67 Q914.406 1776.32 915.424 1776.16 Q916.443 1775.97 917.461 1775.97 Q923.248 1775.97 926.628 1779.15 Q930.007 1782.32 930.007 1787.73 Q930.007 1793.31 926.535 1796.41 Q923.063 1799.49 916.744 1799.49 Q914.568 1799.49 912.299 1799.12 Q910.054 1798.75 907.646 1798.01 L907.646 1793.31 Q909.73 1794.45 911.952 1795 Q914.174 1795.56 916.651 1795.56 Q920.656 1795.56 922.994 1793.45 Q925.332 1791.34 925.332 1787.73 Q925.332 1784.12 922.994 1782.02 Q920.656 1779.91 916.651 1779.91 Q914.776 1779.91 912.901 1780.33 Q911.049 1780.74 909.105 1781.62 L909.105 1764.26 Z" fill="#000000" fill-rule="nonzero" fill-opacity="1" /><path clip-path="url(#clip860)" d="M1422.68 1764.26 L1441.03 1764.26 L1441.03 1768.2 L1426.96 1768.2 L1426.96 1776.67 Q1427.98 1776.32 1429 1776.16 Q1430.01 1775.97 1431.03 1775.97 Q1436.82 1775.97 1440.2 1779.15 Q1443.58 1782.32 1443.58 1787.73 Q1443.58 1793.31 1440.11 1796.41 Q1436.64 1799.49 1430.32 1799.49 Q1428.14 1799.49 1425.87 1799.12 Q1423.63 1798.75 1421.22 1798.01 L1421.22 1793.31 Q1423.3 1794.45 1425.52 1795 Q1427.75 1795.56 1430.22 1795.56 Q1434.23 1795.56 1436.57 1793.45 Q1438.9 1791.34 1438.9 1787.73 Q1438.9 1784.12 1436.57 1782.02 Q1434.23 1779.91 1430.22 1779.91 Q1428.35 1779.91 1426.47 1780.33 Q1424.62 1780.74 1422.68 1781.62 L1422.68 1764.26 Z" fill="#000000" fill-rule="nonzero" fill-opacity="1" /><path clip-path="url(#clip860)" d="M1452.79 1792.94 L1457.68 1792.94 L1457.68 1798.82 L1452.79 1798.82 L1452.79 1792.94 Z" fill="#000000" fill-rule="nonzero" fill-opacity="1" /><path clip-path="url(#clip860)" d="M1477.86 1767.34 Q1474.25 1767.34 1472.42 1770.9 Q1470.62 1774.45 1470.62 1781.58 Q1470.62 1788.68 1472.42 1792.25 Q1474.25 1795.79 1477.86 1795.79 Q1481.5 1795.79 1483.3 1792.25 Q1485.13 1788.68 1485.13 1781.58 Q1485.13 1774.45 1483.3 1770.9 Q1481.5 1767.34 1477.86 1767.34 M1477.86 1763.64 Q1483.67 1763.64 1486.73 1768.24 Q1489.81 1772.83 1489.81 1781.58 Q1489.81 1790.3 1486.73 1794.91 Q1483.67 1799.49 1477.86 1799.49 Q1472.05 1799.49 1468.97 1794.91 Q1465.92 1790.3 1465.92 1781.58 Q1465.92 1772.83 1468.97 1768.24 Q1472.05 1763.64 1477.86 1763.64 Z" fill="#000000" fill-rule="nonzero" fill-opacity="1" /><path clip-path="url(#clip860)" d="M1981.23 1764.26 L2003.45 1764.26 L2003.45 1766.25 L1990.9 1798.82 L1986.02 1798.82 L1997.82 1768.2 L1981.23 1768.2 L1981.23 1764.26 Z" fill="#000000" fill-rule="nonzero" fill-opacity="1" /><path clip-path="url(#clip860)" d="M2012.57 1792.94 L2017.45 1792.94 L2017.45 1798.82 L2012.57 1798.82 L2012.57 1792.94 Z" fill="#000000" fill-rule="nonzero" fill-opacity="1" /><path clip-path="url(#clip860)" d="M2027.68 1764.26 L2046.04 1764.26 L2046.04 1768.2 L2031.97 1768.2 L2031.97 1776.67 Q2032.98 1776.32 2034 1776.16 Q2035.02 1775.97 2036.04 1775.97 Q2041.83 1775.97 2045.21 1779.15 Q2048.59 1782.32 2048.59 1787.73 Q2048.59 1793.31 2045.11 1796.41 Q2041.64 1799.49 2035.32 1799.49 Q2033.15 1799.49 2030.88 1799.12 Q2028.63 1798.75 2026.23 1798.01 L2026.23 1793.31 Q2028.31 1794.45 2030.53 1795 Q2032.75 1795.56 2035.23 1795.56 Q2039.23 1795.56 2041.57 1793.45 Q2043.91 1791.34 2043.91 1787.73 Q2043.91 1784.12 2041.57 1782.02 Q2039.23 1779.91 2035.23 1779.91 Q2033.36 1779.91 2031.48 1780.33 Q2029.63 1780.74 2027.68 1781.62 L2027.68 1764.26 Z" fill="#000000" fill-rule="nonzero" fill-opacity="1" /><path clip-path="url(#clip860)" d="M2526.37 1794.89 L2534.01 1794.89 L2534.01 1768.52 L2525.7 1770.19 L2525.7 1765.93 L2533.96 1764.26 L2538.64 1764.26 L2538.64 1794.89 L2546.28 1794.89 L2546.28 1798.82 L2526.37 1798.82 L2526.37 1794.89 Z" fill="#000000" fill-rule="nonzero" fill-opacity="1" /><path clip-path="url(#clip860)" d="M2565.72 1767.34 Q2562.11 1767.34 2560.28 1770.9 Q2558.48 1774.45 2558.48 1781.58 Q2558.48 1788.68 2560.28 1792.25 Q2562.11 1795.79 2565.72 1795.79 Q2569.36 1795.79 2571.16 1792.25 Q2572.99 1788.68 2572.99 1781.58 Q2572.99 1774.45 2571.16 1770.9 Q2569.36 1767.34 2565.72 1767.34 M2565.72 1763.64 Q2571.53 1763.64 2574.59 1768.24 Q2577.67 1772.83 2577.67 1781.58 Q2577.67 1790.3 2574.59 1794.91 Q2571.53 1799.49 2565.72 1799.49 Q2559.91 1799.49 2556.83 1794.91 Q2553.78 1790.3 2553.78 1781.58 Q2553.78 1772.83 2556.83 1768.24 Q2559.91 1763.64 2565.72 1763.64 Z" fill="#000000" fill-rule="nonzero" fill-opacity="1" /><path clip-path="url(#clip860)" d="M2585.89 1792.94 L2590.77 1792.94 L2590.77 1798.82 L2585.89 1798.82 L2585.89 1792.94 Z" fill="#000000" fill-rule="nonzero" fill-opacity="1" /><path clip-path="url(#clip860)" d="M2610.95 1767.34 Q2607.34 1767.34 2605.52 1770.9 Q2603.71 1774.45 2603.71 1781.58 Q2603.71 1788.68 2605.52 1792.25 Q2607.34 1795.79 2610.95 1795.79 Q2614.59 1795.79 2616.39 1792.25 Q2618.22 1788.68 2618.22 1781.58 Q2618.22 1774.45 2616.39 1770.9 Q2614.59 1767.34 2610.95 1767.34 M2610.95 1763.64 Q2616.76 1763.64 2619.82 1768.24 Q2622.9 1772.83 2622.9 1781.58 Q2622.9 1790.3 2619.82 1794.91 Q2616.76 1799.49 2610.95 1799.49 Q2605.14 1799.49 2602.07 1794.91 Q2599.01 1790.3 2599.01 1781.58 Q2599.01 1772.83 2602.07 1768.24 Q2605.14 1763.64 2610.95 1763.64 Z" fill="#000000" fill-rule="nonzero" fill-opacity="1" /><path clip-path="url(#clip860)" d="M1247.72 1841.06 L1247.72 1858.92 L1255.8 1858.92 Q1260.29 1858.92 1262.74 1856.6 Q1265.19 1854.27 1265.19 1849.98 Q1265.19 1845.71 1262.74 1843.39 Q1260.29 1841.06 1255.8 1841.06 L1247.72 1841.06 M1241.29 1835.78 L1255.8 1835.78 Q1263.79 1835.78 1267.87 1839.41 Q1271.97 1843.01 1271.97 1849.98 Q1271.97 1857.01 1267.87 1860.61 Q1263.79 1864.2 1255.8 1864.2 L1247.72 1864.2 L1247.72 1883.3 L1241.29 1883.3 L1241.29 1835.78 Z" fill="#000000" fill-rule="nonzero" fill-opacity="1" /><path clip-path="url(#clip860)" d="M1291.83 1851.76 Q1287.12 1851.76 1284.39 1855.45 Q1281.65 1859.11 1281.65 1865.51 Q1281.65 1871.91 1284.35 1875.6 Q1287.09 1879.26 1291.83 1879.26 Q1296.51 1879.26 1299.25 1875.57 Q1301.99 1871.87 1301.99 1865.51 Q1301.99 1859.17 1299.25 1855.48 Q1296.51 1851.76 1291.83 1851.76 M1291.83 1846.79 Q1299.47 1846.79 1303.83 1851.76 Q1308.19 1856.72 1308.19 1865.51 Q1308.19 1874.26 1303.83 1879.26 Q1299.47 1884.22 1291.83 1884.22 Q1284.16 1884.22 1279.8 1879.26 Q1275.47 1874.26 1275.47 1865.51 Q1275.47 1856.72 1279.8 1851.76 Q1284.16 1846.79 1291.83 1846.79 Z" fill="#000000" fill-rule="nonzero" fill-opacity="1" /><path clip-path="url(#clip860)" d="M1323.57 1877.95 L1323.57 1896.86 L1317.68 1896.86 L1317.68 1847.65 L1323.57 1847.65 L1323.57 1853.06 Q1325.41 1849.88 1328.21 1848.35 Q1331.05 1846.79 1334.96 1846.79 Q1341.46 1846.79 1345.5 1851.95 Q1349.57 1857.11 1349.57 1865.51 Q1349.57 1873.91 1345.5 1879.07 Q1341.46 1884.22 1334.96 1884.22 Q1331.05 1884.22 1328.21 1882.7 Q1325.41 1881.14 1323.57 1877.95 M1343.49 1865.51 Q1343.49 1859.05 1340.82 1855.39 Q1338.18 1851.7 1333.53 1851.7 Q1328.88 1851.7 1326.21 1855.39 Q1323.57 1859.05 1323.57 1865.51 Q1323.57 1871.97 1326.21 1875.66 Q1328.88 1879.32 1333.53 1879.32 Q1338.18 1879.32 1340.82 1875.66 Q1343.49 1871.97 1343.49 1865.51 Z" fill="#000000" fill-rule="nonzero" fill-opacity="1" /><path clip-path="url(#clip860)" d="M1358.67 1869.23 L1358.67 1847.65 L1364.53 1847.65 L1364.53 1869.01 Q1364.53 1874.07 1366.5 1876.62 Q1368.48 1879.13 1372.42 1879.13 Q1377.17 1879.13 1379.9 1876.11 Q1382.67 1873.08 1382.67 1867.86 L1382.67 1847.65 L1388.53 1847.65 L1388.53 1883.3 L1382.67 1883.3 L1382.67 1877.83 Q1380.54 1881.07 1377.71 1882.66 Q1374.91 1884.22 1371.18 1884.22 Q1365.04 1884.22 1361.86 1880.4 Q1358.67 1876.59 1358.67 1869.23 M1373.41 1846.79 L1373.41 1846.79 Z" fill="#000000" fill-rule="nonzero" fill-opacity="1" /><path clip-path="url(#clip860)" d="M1400.59 1833.78 L1406.45 1833.78 L1406.45 1883.3 L1400.59 1883.3 L1400.59 1833.78 Z" fill="#000000" fill-rule="nonzero" fill-opacity="1" /><path clip-path="url(#clip860)" d="M1434.9 1865.38 Q1427.81 1865.38 1425.07 1867 Q1422.33 1868.63 1422.33 1872.54 Q1422.33 1875.66 1424.37 1877.51 Q1426.44 1879.32 1429.97 1879.32 Q1434.84 1879.32 1437.77 1875.88 Q1440.73 1872.42 1440.73 1866.69 L1440.73 1865.38 L1434.9 1865.38 M1446.58 1862.96 L1446.58 1883.3 L1440.73 1883.3 L1440.73 1877.89 Q1438.72 1881.14 1435.73 1882.7 Q1432.74 1884.22 1428.41 1884.22 Q1422.94 1884.22 1419.69 1881.17 Q1416.47 1878.08 1416.47 1872.92 Q1416.47 1866.91 1420.49 1863.85 Q1424.53 1860.8 1432.52 1860.8 L1440.73 1860.8 L1440.73 1860.23 Q1440.73 1856.18 1438.05 1853.99 Q1435.41 1851.76 1430.61 1851.76 Q1427.55 1851.76 1424.65 1852.49 Q1421.76 1853.22 1419.08 1854.69 L1419.08 1849.28 Q1422.3 1848.03 1425.32 1847.43 Q1428.35 1846.79 1431.21 1846.79 Q1438.95 1846.79 1442.77 1850.8 Q1446.58 1854.81 1446.58 1862.96 Z" fill="#000000" fill-rule="nonzero" fill-opacity="1" /><path clip-path="url(#clip860)" d="M1464.44 1837.53 L1464.44 1847.65 L1476.5 1847.65 L1476.5 1852.2 L1464.44 1852.2 L1464.44 1871.56 Q1464.44 1875.92 1465.62 1877.16 Q1466.83 1878.4 1470.49 1878.4 L1476.5 1878.4 L1476.5 1883.3 L1470.49 1883.3 Q1463.71 1883.3 1461.13 1880.79 Q1458.55 1878.24 1458.55 1871.56 L1458.55 1852.2 L1454.26 1852.2 L1454.26 1847.65 L1458.55 1847.65 L1458.55 1837.53 L1464.44 1837.53 Z" fill="#000000" fill-rule="nonzero" fill-opacity="1" /><path clip-path="url(#clip860)" d="M1484.21 1847.65 L1490.06 1847.65 L1490.06 1883.3 L1484.21 1883.3 L1484.21 1847.65 M1484.21 1833.78 L1490.06 1833.78 L1490.06 1841.19 L1484.21 1841.19 L1484.21 1833.78 Z" fill="#000000" fill-rule="nonzero" fill-opacity="1" /><path clip-path="url(#clip860)" d="M1516.13 1851.76 Q1511.42 1851.76 1508.68 1855.45 Q1505.94 1859.11 1505.94 1865.51 Q1505.94 1871.91 1508.65 1875.6 Q1511.39 1879.26 1516.13 1879.26 Q1520.81 1879.26 1523.55 1875.57 Q1526.28 1871.87 1526.28 1865.51 Q1526.28 1859.17 1523.55 1855.48 Q1520.81 1851.76 1516.13 1851.76 M1516.13 1846.79 Q1523.77 1846.79 1528.13 1851.76 Q1532.49 1856.72 1532.49 1865.51 Q1532.49 1874.26 1528.13 1879.26 Q1523.77 1884.22 1516.13 1884.22 Q1508.46 1884.22 1504.1 1879.26 Q1499.77 1874.26 1499.77 1865.51 Q1499.77 1856.72 1504.1 1851.76 Q1508.46 1846.79 1516.13 1846.79 Z" fill="#000000" fill-rule="nonzero" fill-opacity="1" /><path clip-path="url(#clip860)" d="M1571.83 1861.78 L1571.83 1883.3 L1565.97 1883.3 L1565.97 1861.98 Q1565.97 1856.92 1564 1854.4 Q1562.03 1851.89 1558.08 1851.89 Q1553.34 1851.89 1550.6 1854.91 Q1547.86 1857.93 1547.86 1863.15 L1547.86 1883.3 L1541.97 1883.3 L1541.97 1847.65 L1547.86 1847.65 L1547.86 1853.19 Q1549.96 1849.98 1552.8 1848.39 Q1555.66 1846.79 1559.39 1846.79 Q1565.53 1846.79 1568.68 1850.61 Q1571.83 1854.4 1571.83 1861.78 Z" fill="#000000" fill-rule="nonzero" fill-opacity="1" /><path clip-path="url(#clip860)" d="M1618.3 1833.84 Q1614.03 1841.16 1611.97 1848.32 Q1609.9 1855.48 1609.9 1862.84 Q1609.9 1870.19 1611.97 1877.41 Q1614.07 1884.61 1618.3 1891.89 L1613.21 1891.89 Q1608.43 1884.41 1606.05 1877.19 Q1603.69 1869.96 1603.69 1862.84 Q1603.69 1855.74 1606.05 1848.54 Q1608.4 1841.35 1613.21 1833.84 L1618.3 1833.84 Z" fill="#000000" fill-rule="nonzero" fill-opacity="1" /><path clip-path="url(#clip860)" d="M1629.92 1835.78 L1638.57 1835.78 L1659.64 1875.53 L1659.64 1835.78 L1665.88 1835.78 L1665.88 1883.3 L1657.23 1883.3 L1636.16 1843.55 L1636.16 1883.3 L1629.92 1883.3 L1629.92 1835.78 Z" fill="#000000" fill-rule="nonzero" fill-opacity="1" /><path clip-path="url(#clip860)" d="M1677.5 1833.84 L1682.59 1833.84 Q1687.37 1841.35 1689.72 1848.54 Q1692.11 1855.74 1692.11 1862.84 Q1692.11 1869.96 1689.72 1877.19 Q1687.37 1884.41 1682.59 1891.89 L1677.5 1891.89 Q1681.73 1884.61 1683.8 1877.41 Q1685.9 1870.19 1685.9 1862.84 Q1685.9 1855.48 1683.8 1848.32 Q1681.73 1841.16 1677.5 1833.84 Z" fill="#000000" fill-rule="nonzero" fill-opacity="1" /><polyline clip-path="url(#clip860)" style="stroke:#000000; stroke-linecap:round; stroke-linejoin:round; stroke-width:4; stroke-opacity:1; fill:none" points="292.645,1734.12 292.645,127.792 "/>
<polyline clip-path="url(#clip860)" style="stroke:#000000; stroke-linecap:round; stroke-linejoin:round; stroke-width:4; stroke-opacity:1; fill:none" points="292.645,1441.46 311.542,1441.46 "/>
<polyline clip-path="url(#clip860)" style="stroke:#000000; stroke-linecap:round; stroke-linejoin:round; stroke-width:4; stroke-opacity:1; fill:none" points="292.645,1090.6 311.542,1090.6 "/>
<polyline clip-path="url(#clip860)" style="stroke:#000000; stroke-linecap:round; stroke-linejoin:round; stroke-width:4; stroke-opacity:1; fill:none" points="292.645,739.748 311.542,739.748 "/>
<polyline clip-path="url(#clip860)" style="stroke:#000000; stroke-linecap:round; stroke-linejoin:round; stroke-width:4; stroke-opacity:1; fill:none" points="292.645,388.892 311.542,388.892 "/>
<path clip-path="url(#clip860)" d="M116.214 1441.91 L145.89 1441.91 L145.89 1445.85 L116.214 1445.85 L116.214 1441.91 Z" fill="#000000" fill-rule="nonzero" fill-opacity="1" /><path clip-path="url(#clip860)" d="M165.983 1427.26 Q162.372 1427.26 160.543 1430.82 Q158.737 1434.37 158.737 1441.5 Q158.737 1448.6 160.543 1452.17 Q162.372 1455.71 165.983 1455.71 Q169.617 1455.71 171.422 1452.17 Q173.251 1448.6 173.251 1441.5 Q173.251 1434.37 171.422 1430.82 Q169.617 1427.26 165.983 1427.26 M165.983 1423.56 Q171.793 1423.56 174.848 1428.16 Q177.927 1432.75 177.927 1441.5 Q177.927 1450.22 174.848 1454.83 Q171.793 1459.41 165.983 1459.41 Q160.173 1459.41 157.094 1454.83 Q154.038 1450.22 154.038 1441.5 Q154.038 1432.75 157.094 1428.16 Q160.173 1423.56 165.983 1423.56 Z" fill="#000000" fill-rule="nonzero" fill-opacity="1" /><path clip-path="url(#clip860)" d="M186.145 1452.86 L191.029 1452.86 L191.029 1458.74 L186.145 1458.74 L186.145 1452.86 Z" fill="#000000" fill-rule="nonzero" fill-opacity="1" /><path clip-path="url(#clip860)" d="M205.242 1454.81 L221.561 1454.81 L221.561 1458.74 L199.617 1458.74 L199.617 1454.81 Q202.279 1452.05 206.862 1447.42 Q211.469 1442.77 212.649 1441.43 Q214.894 1438.9 215.774 1437.17 Q216.677 1435.41 216.677 1433.72 Q216.677 1430.96 214.732 1429.23 Q212.811 1427.49 209.709 1427.49 Q207.51 1427.49 205.057 1428.25 Q202.626 1429.02 199.848 1430.57 L199.848 1425.85 Q202.672 1424.71 205.126 1424.13 Q207.58 1423.56 209.617 1423.56 Q214.987 1423.56 218.181 1426.24 Q221.376 1428.93 221.376 1433.42 Q221.376 1435.55 220.566 1437.47 Q219.779 1439.37 217.672 1441.96 Q217.094 1442.63 213.992 1445.85 Q210.89 1449.04 205.242 1454.81 Z" fill="#000000" fill-rule="nonzero" fill-opacity="1" /><path clip-path="url(#clip860)" d="M231.422 1424.18 L249.779 1424.18 L249.779 1428.12 L235.705 1428.12 L235.705 1436.59 Q236.723 1436.24 237.742 1436.08 Q238.76 1435.89 239.779 1435.89 Q245.566 1435.89 248.945 1439.06 Q252.325 1442.24 252.325 1447.65 Q252.325 1453.23 248.853 1456.33 Q245.38 1459.41 239.061 1459.41 Q236.885 1459.41 234.617 1459.04 Q232.371 1458.67 229.964 1457.93 L229.964 1453.23 Q232.047 1454.37 234.269 1454.92 Q236.492 1455.48 238.968 1455.48 Q242.973 1455.48 245.311 1453.37 Q247.649 1451.26 247.649 1447.65 Q247.649 1444.04 245.311 1441.94 Q242.973 1439.83 238.968 1439.83 Q237.093 1439.83 235.218 1440.25 Q233.367 1440.66 231.422 1441.54 L231.422 1424.18 Z" fill="#000000" fill-rule="nonzero" fill-opacity="1" /><path clip-path="url(#clip860)" d="M164.987 1076.4 Q161.376 1076.4 159.548 1079.97 Q157.742 1083.51 157.742 1090.64 Q157.742 1097.75 159.548 1101.31 Q161.376 1104.85 164.987 1104.85 Q168.622 1104.85 170.427 1101.31 Q172.256 1097.75 172.256 1090.64 Q172.256 1083.51 170.427 1079.97 Q168.622 1076.4 164.987 1076.4 M164.987 1072.7 Q170.797 1072.7 173.853 1077.31 Q176.932 1081.89 176.932 1090.64 Q176.932 1099.37 173.853 1103.97 Q170.797 1108.56 164.987 1108.56 Q159.177 1108.56 156.098 1103.97 Q153.043 1099.37 153.043 1090.64 Q153.043 1081.89 156.098 1077.31 Q159.177 1072.7 164.987 1072.7 Z" fill="#000000" fill-rule="nonzero" fill-opacity="1" /><path clip-path="url(#clip860)" d="M185.149 1102 L190.033 1102 L190.033 1107.88 L185.149 1107.88 L185.149 1102 Z" fill="#000000" fill-rule="nonzero" fill-opacity="1" /><path clip-path="url(#clip860)" d="M210.219 1076.4 Q206.607 1076.4 204.779 1079.97 Q202.973 1083.51 202.973 1090.64 Q202.973 1097.75 204.779 1101.31 Q206.607 1104.85 210.219 1104.85 Q213.853 1104.85 215.658 1101.31 Q217.487 1097.75 217.487 1090.64 Q217.487 1083.51 215.658 1079.97 Q213.853 1076.4 210.219 1076.4 M210.219 1072.7 Q216.029 1072.7 219.084 1077.31 Q222.163 1081.89 222.163 1090.64 Q222.163 1099.37 219.084 1103.97 Q216.029 1108.56 210.219 1108.56 Q204.408 1108.56 201.33 1103.97 Q198.274 1099.37 198.274 1090.64 Q198.274 1081.89 201.33 1077.31 Q204.408 1072.7 210.219 1072.7 Z" fill="#000000" fill-rule="nonzero" fill-opacity="1" /><path clip-path="url(#clip860)" d="M240.38 1076.4 Q236.769 1076.4 234.941 1079.97 Q233.135 1083.51 233.135 1090.64 Q233.135 1097.75 234.941 1101.31 Q236.769 1104.85 240.38 1104.85 Q244.015 1104.85 245.82 1101.31 Q247.649 1097.75 247.649 1090.64 Q247.649 1083.51 245.82 1079.97 Q244.015 1076.4 240.38 1076.4 M240.38 1072.7 Q246.191 1072.7 249.246 1077.31 Q252.325 1081.89 252.325 1090.64 Q252.325 1099.37 249.246 1103.97 Q246.191 1108.56 240.38 1108.56 Q234.57 1108.56 231.492 1103.97 Q228.436 1099.37 228.436 1090.64 Q228.436 1081.89 231.492 1077.31 Q234.57 1072.7 240.38 1072.7 Z" fill="#000000" fill-rule="nonzero" fill-opacity="1" /><path clip-path="url(#clip860)" d="M165.983 725.547 Q162.372 725.547 160.543 729.111 Q158.737 732.653 158.737 739.783 Q158.737 746.889 160.543 750.454 Q162.372 753.996 165.983 753.996 Q169.617 753.996 171.422 750.454 Q173.251 746.889 173.251 739.783 Q173.251 732.653 171.422 729.111 Q169.617 725.547 165.983 725.547 M165.983 721.843 Q171.793 721.843 174.848 726.449 Q177.927 731.033 177.927 739.783 Q177.927 748.509 174.848 753.116 Q171.793 757.699 165.983 757.699 Q160.173 757.699 157.094 753.116 Q154.038 748.509 154.038 739.783 Q154.038 731.033 157.094 726.449 Q160.173 721.843 165.983 721.843 Z" fill="#000000" fill-rule="nonzero" fill-opacity="1" /><path clip-path="url(#clip860)" d="M186.145 751.148 L191.029 751.148 L191.029 757.028 L186.145 757.028 L186.145 751.148 Z" fill="#000000" fill-rule="nonzero" fill-opacity="1" /><path clip-path="url(#clip860)" d="M205.242 753.093 L221.561 753.093 L221.561 757.028 L199.617 757.028 L199.617 753.093 Q202.279 750.338 206.862 745.709 Q211.469 741.056 212.649 739.713 Q214.894 737.19 215.774 735.454 Q216.677 733.695 216.677 732.005 Q216.677 729.25 214.732 727.514 Q212.811 725.778 209.709 725.778 Q207.51 725.778 205.057 726.542 Q202.626 727.306 199.848 728.857 L199.848 724.135 Q202.672 723 205.126 722.422 Q207.58 721.843 209.617 721.843 Q214.987 721.843 218.181 724.528 Q221.376 727.213 221.376 731.704 Q221.376 733.834 220.566 735.755 Q219.779 737.653 217.672 740.246 Q217.094 740.917 213.992 744.135 Q210.89 747.329 205.242 753.093 Z" fill="#000000" fill-rule="nonzero" fill-opacity="1" /><path clip-path="url(#clip860)" d="M231.422 722.468 L249.779 722.468 L249.779 726.403 L235.705 726.403 L235.705 734.875 Q236.723 734.528 237.742 734.366 Q238.76 734.181 239.779 734.181 Q245.566 734.181 248.945 737.352 Q252.325 740.523 252.325 745.94 Q252.325 751.519 248.853 754.621 Q245.38 757.699 239.061 757.699 Q236.885 757.699 234.617 757.329 Q232.371 756.959 229.964 756.218 L229.964 751.519 Q232.047 752.653 234.269 753.209 Q236.492 753.764 238.968 753.764 Q242.973 753.764 245.311 751.658 Q247.649 749.551 247.649 745.94 Q247.649 742.329 245.311 740.222 Q242.973 738.116 238.968 738.116 Q237.093 738.116 235.218 738.533 Q233.367 738.949 231.422 739.829 L231.422 722.468 Z" fill="#000000" fill-rule="nonzero" fill-opacity="1" /><path clip-path="url(#clip860)" d="M164.987 374.69 Q161.376 374.69 159.548 378.255 Q157.742 381.797 157.742 388.926 Q157.742 396.033 159.548 399.598 Q161.376 403.139 164.987 403.139 Q168.622 403.139 170.427 399.598 Q172.256 396.033 172.256 388.926 Q172.256 381.797 170.427 378.255 Q168.622 374.69 164.987 374.69 M164.987 370.987 Q170.797 370.987 173.853 375.593 Q176.932 380.176 176.932 388.926 Q176.932 397.653 173.853 402.26 Q170.797 406.843 164.987 406.843 Q159.177 406.843 156.098 402.26 Q153.043 397.653 153.043 388.926 Q153.043 380.176 156.098 375.593 Q159.177 370.987 164.987 370.987 Z" fill="#000000" fill-rule="nonzero" fill-opacity="1" /><path clip-path="url(#clip860)" d="M185.149 400.292 L190.033 400.292 L190.033 406.172 L185.149 406.172 L185.149 400.292 Z" fill="#000000" fill-rule="nonzero" fill-opacity="1" /><path clip-path="url(#clip860)" d="M200.265 371.612 L218.621 371.612 L218.621 375.547 L204.547 375.547 L204.547 384.019 Q205.566 383.672 206.584 383.51 Q207.603 383.325 208.621 383.325 Q214.408 383.325 217.788 386.496 Q221.168 389.667 221.168 395.084 Q221.168 400.662 217.695 403.764 Q214.223 406.843 207.904 406.843 Q205.728 406.843 203.459 406.473 Q201.214 406.102 198.807 405.361 L198.807 400.662 Q200.89 401.797 203.112 402.352 Q205.334 402.908 207.811 402.908 Q211.816 402.908 214.154 400.801 Q216.492 398.695 216.492 395.084 Q216.492 391.473 214.154 389.366 Q211.816 387.26 207.811 387.26 Q205.936 387.26 204.061 387.676 Q202.209 388.093 200.265 388.973 L200.265 371.612 Z" fill="#000000" fill-rule="nonzero" fill-opacity="1" /><path clip-path="url(#clip860)" d="M240.38 374.69 Q236.769 374.69 234.941 378.255 Q233.135 381.797 233.135 388.926 Q233.135 396.033 234.941 399.598 Q236.769 403.139 240.38 403.139 Q244.015 403.139 245.82 399.598 Q247.649 396.033 247.649 388.926 Q247.649 381.797 245.82 378.255 Q244.015 374.69 240.38 374.69 M240.38 370.987 Q246.191 370.987 249.246 375.593 Q252.325 380.176 252.325 388.926 Q252.325 397.653 249.246 402.26 Q246.191 406.843 240.38 406.843 Q234.57 406.843 231.492 402.26 Q228.436 397.653 228.436 388.926 Q228.436 380.176 231.492 375.593 Q234.57 370.987 240.38 370.987 Z" fill="#000000" fill-rule="nonzero" fill-opacity="1" /><path clip-path="url(#clip860)" d="M31.465 967.526 Q30.8921 968.512 30.6375 969.69 Q30.351 970.836 30.351 972.236 Q30.351 977.201 33.5975 979.875 Q36.8122 982.517 42.8596 982.517 L61.6384 982.517 L61.6384 988.405 L25.9905 988.405 L25.9905 982.517 L31.5287 982.517 Q28.2821 980.671 26.7225 977.711 Q25.1311 974.751 25.1311 970.517 Q25.1311 969.913 25.2266 969.181 Q25.2903 968.449 25.4494 967.557 L31.465 967.526 Z" fill="#000000" fill-rule="nonzero" fill-opacity="1" /><path clip-path="url(#clip860)" d="M12.1769 947.314 Q19.4975 951.579 26.6589 953.648 Q33.8203 955.717 41.1727 955.717 Q48.5251 955.717 55.7502 953.648 Q62.9434 951.548 70.2321 947.314 L70.2321 952.407 Q62.7524 957.181 55.5274 959.568 Q48.3023 961.924 41.1727 961.924 Q34.0749 961.924 26.8817 959.568 Q19.6884 957.213 12.1769 952.407 L12.1769 947.314 Z" fill="#000000" fill-rule="nonzero" fill-opacity="1" /><path clip-path="url(#clip860)" d="M14.1184 935.697 L14.1184 927.04 L53.8723 905.969 L14.1184 905.969 L14.1184 899.731 L61.6384 899.731 L61.6384 908.388 L21.8846 929.459 L61.6384 929.459 L61.6384 935.697 L14.1184 935.697 Z" fill="#000000" fill-rule="nonzero" fill-opacity="1" /><path clip-path="url(#clip860)" d="M12.1769 888.113 L12.1769 883.021 Q19.6884 878.247 26.8817 875.891 Q34.0749 873.504 41.1727 873.504 Q48.3023 873.504 55.5274 875.891 Q62.7524 878.247 70.2321 883.021 L70.2321 888.113 Q62.9434 883.88 55.7502 881.811 Q48.5251 879.711 41.1727 879.711 Q33.8203 879.711 26.6589 881.811 Q19.4975 883.88 12.1769 888.113 Z" fill="#000000" fill-rule="nonzero" fill-opacity="1" /><path clip-path="url(#clip860)" d="M997.18 18.8205 L997.18 41.5461 L1007.47 41.5461 Q1013.18 41.5461 1016.3 38.5889 Q1019.42 35.6318 1019.42 30.163 Q1019.42 24.7348 1016.3 21.7777 Q1013.18 18.8205 1007.47 18.8205 L997.18 18.8205 M988.997 12.096 L1007.47 12.096 Q1017.64 12.096 1022.82 16.714 Q1028.05 21.2916 1028.05 30.163 Q1028.05 39.1155 1022.82 43.6931 Q1017.64 48.2706 1007.47 48.2706 L997.18 48.2706 L997.18 72.576 L988.997 72.576 L988.997 12.096 Z" fill="#000000" fill-rule="nonzero" fill-opacity="1" /><path clip-path="url(#clip860)" d="M1074.55 48.0275 L1074.55 51.6733 L1040.28 51.6733 Q1040.77 59.3701 1044.9 63.421 Q1049.07 67.4314 1056.49 67.4314 Q1060.78 67.4314 1064.79 66.3781 Q1068.84 65.3249 1072.81 63.2184 L1072.81 70.267 Q1068.8 71.9684 1064.59 72.8596 Q1060.37 73.7508 1056.04 73.7508 Q1045.18 73.7508 1038.82 67.4314 Q1032.5 61.1119 1032.5 50.3365 Q1032.5 39.1965 1038.5 32.6746 Q1044.54 26.1121 1054.74 26.1121 Q1063.9 26.1121 1069.21 32.0264 Q1074.55 37.9003 1074.55 48.0275 M1067.1 45.84 Q1067.02 39.7232 1063.66 36.0774 Q1060.33 32.4315 1054.82 32.4315 Q1048.59 32.4315 1044.82 35.9558 Q1041.09 39.4801 1040.52 45.8805 L1067.1 45.84 Z" fill="#000000" fill-rule="nonzero" fill-opacity="1" /><path clip-path="url(#clip860)" d="M1113.08 34.1734 Q1111.82 33.4443 1110.32 33.1202 Q1108.86 32.7556 1107.08 32.7556 Q1100.76 32.7556 1097.36 36.8875 Q1094 40.9789 1094 48.6757 L1094 72.576 L1086.5 72.576 L1086.5 27.2059 L1094 27.2059 L1094 34.2544 Q1096.35 30.1225 1100.11 28.1376 Q1103.88 26.1121 1109.27 26.1121 Q1110.04 26.1121 1110.97 26.2337 Q1111.9 26.3147 1113.04 26.5172 L1113.08 34.1734 Z" fill="#000000" fill-rule="nonzero" fill-opacity="1" /><path clip-path="url(#clip860)" d="M1111.82 46.5287 L1133.66 46.5287 L1133.66 53.1722 L1111.82 53.1722 L1111.82 46.5287 Z" fill="#000000" fill-rule="nonzero" fill-opacity="1" /><path clip-path="url(#clip860)" d="M1191.14 16.7545 L1191.14 25.383 Q1187.01 21.5346 1182.31 19.6307 Q1177.65 17.7268 1172.38 17.7268 Q1162.01 17.7268 1156.5 24.0867 Q1150.99 30.4061 1150.99 42.3968 Q1150.99 54.3469 1156.5 60.7069 Q1162.01 67.0263 1172.38 67.0263 Q1177.65 67.0263 1182.31 65.1223 Q1187.01 63.2184 1191.14 59.3701 L1191.14 67.9175 Q1186.84 70.8341 1182.02 72.2924 Q1177.24 73.7508 1171.9 73.7508 Q1158.16 73.7508 1150.26 65.3654 Q1142.36 56.9395 1142.36 42.3968 Q1142.36 27.8135 1150.26 19.4281 Q1158.16 11.0023 1171.9 11.0023 Q1177.32 11.0023 1182.1 12.4606 Q1186.92 13.8784 1191.14 16.7545 Z" fill="#000000" fill-rule="nonzero" fill-opacity="1" /><path clip-path="url(#clip860)" d="M1224.07 49.7694 Q1215.04 49.7694 1211.55 51.8354 Q1208.07 53.9013 1208.07 58.8839 Q1208.07 62.8538 1210.66 65.2034 Q1213.3 67.5124 1217.79 67.5124 Q1223.99 67.5124 1227.72 63.1374 Q1231.48 58.7219 1231.48 51.4303 L1231.48 49.7694 L1224.07 49.7694 M1238.94 46.6907 L1238.94 72.576 L1231.48 72.576 L1231.48 65.6895 Q1228.93 69.8214 1225.12 71.8063 Q1221.32 73.7508 1215.81 73.7508 Q1208.84 73.7508 1204.71 69.8619 Q1200.62 65.9325 1200.62 59.3701 Q1200.62 51.7138 1205.72 47.825 Q1210.87 43.9361 1221.03 43.9361 L1231.48 43.9361 L1231.48 43.2069 Q1231.48 38.0623 1228.08 35.2672 Q1224.72 32.4315 1218.6 32.4315 Q1214.71 32.4315 1211.03 33.3632 Q1207.34 34.295 1203.94 36.1584 L1203.94 29.2718 Q1208.03 27.692 1211.88 26.9223 Q1215.73 26.1121 1219.37 26.1121 Q1229.22 26.1121 1234.08 31.2163 Q1238.94 36.3204 1238.94 46.6907 Z" fill="#000000" fill-rule="nonzero" fill-opacity="1" /><path clip-path="url(#clip860)" d="M1261.5 65.7705 L1261.5 89.8329 L1254.01 89.8329 L1254.01 27.2059 L1261.5 27.2059 L1261.5 34.0924 Q1263.85 30.0415 1267.42 28.0971 Q1271.02 26.1121 1276 26.1121 Q1284.27 26.1121 1289.41 32.6746 Q1294.6 39.2371 1294.6 49.9314 Q1294.6 60.6258 1289.41 67.1883 Q1284.27 73.7508 1276 73.7508 Q1271.02 73.7508 1267.42 71.8063 Q1263.85 69.8214 1261.5 65.7705 M1286.86 49.9314 Q1286.86 41.7081 1283.46 37.0496 Q1280.1 32.3505 1274.18 32.3505 Q1268.27 32.3505 1264.86 37.0496 Q1261.5 41.7081 1261.5 49.9314 Q1261.5 58.1548 1264.86 62.8538 Q1268.27 67.5124 1274.18 67.5124 Q1280.1 67.5124 1283.46 62.8538 Q1286.86 58.1548 1286.86 49.9314 Z" fill="#000000" fill-rule="nonzero" fill-opacity="1" /><path clip-path="url(#clip860)" d="M1306.95 27.2059 L1314.41 27.2059 L1314.41 72.576 L1306.95 72.576 L1306.95 27.2059 M1306.95 9.54393 L1314.41 9.54393 L1314.41 18.9825 L1306.95 18.9825 L1306.95 9.54393 Z" fill="#000000" fill-rule="nonzero" fill-opacity="1" /><path clip-path="url(#clip860)" d="M1337.38 14.324 L1337.38 27.2059 L1352.73 27.2059 L1352.73 32.9987 L1337.38 32.9987 L1337.38 57.6282 Q1337.38 63.1779 1338.87 64.7578 Q1340.41 66.3376 1345.07 66.3376 L1352.73 66.3376 L1352.73 72.576 L1345.07 72.576 Q1336.44 72.576 1333.16 69.3758 Q1329.88 66.1351 1329.88 57.6282 L1329.88 32.9987 L1324.41 32.9987 L1324.41 27.2059 L1329.88 27.2059 L1329.88 14.324 L1337.38 14.324 Z" fill="#000000" fill-rule="nonzero" fill-opacity="1" /><path clip-path="url(#clip860)" d="M1383.15 49.7694 Q1374.12 49.7694 1370.63 51.8354 Q1367.15 53.9013 1367.15 58.8839 Q1367.15 62.8538 1369.74 65.2034 Q1372.38 67.5124 1376.87 67.5124 Q1383.07 67.5124 1386.8 63.1374 Q1390.56 58.7219 1390.56 51.4303 L1390.56 49.7694 L1383.15 49.7694 M1398.02 46.6907 L1398.02 72.576 L1390.56 72.576 L1390.56 65.6895 Q1388.01 69.8214 1384.2 71.8063 Q1380.4 73.7508 1374.89 73.7508 Q1367.92 73.7508 1363.79 69.8619 Q1359.7 65.9325 1359.7 59.3701 Q1359.7 51.7138 1364.8 47.825 Q1369.94 43.9361 1380.11 43.9361 L1390.56 43.9361 L1390.56 43.2069 Q1390.56 38.0623 1387.16 35.2672 Q1383.8 32.4315 1377.68 32.4315 Q1373.79 32.4315 1370.11 33.3632 Q1366.42 34.295 1363.02 36.1584 L1363.02 29.2718 Q1367.11 27.692 1370.96 26.9223 Q1374.81 26.1121 1378.45 26.1121 Q1388.3 26.1121 1393.16 31.2163 Q1398.02 36.3204 1398.02 46.6907 Z" fill="#000000" fill-rule="nonzero" fill-opacity="1" /><path clip-path="url(#clip860)" d="M1481.3 63.9476 L1481.3 47.7034 L1467.94 47.7034 L1467.94 40.9789 L1489.41 40.9789 L1489.41 66.9452 Q1484.67 70.3075 1478.95 72.0494 Q1473.24 73.7508 1466.76 73.7508 Q1452.58 73.7508 1444.56 65.4869 Q1436.58 57.1826 1436.58 42.3968 Q1436.58 27.5705 1444.56 19.3066 Q1452.58 11.0023 1466.76 11.0023 Q1472.68 11.0023 1477.98 12.4606 Q1483.33 13.9189 1487.83 16.7545 L1487.83 25.464 Q1483.29 21.6156 1478.18 19.6712 Q1473.08 17.7268 1467.45 17.7268 Q1456.35 17.7268 1450.76 23.9246 Q1445.21 30.1225 1445.21 42.3968 Q1445.21 54.6305 1450.76 60.8284 Q1456.35 67.0263 1467.45 67.0263 Q1471.78 67.0263 1475.19 66.2971 Q1478.59 65.5274 1481.3 63.9476 Z" fill="#000000" fill-rule="nonzero" fill-opacity="1" /><path clip-path="url(#clip860)" d="M1530.32 34.1734 Q1529.06 33.4443 1527.57 33.1202 Q1526.11 32.7556 1524.32 32.7556 Q1518.01 32.7556 1514.6 36.8875 Q1511.24 40.9789 1511.24 48.6757 L1511.24 72.576 L1503.75 72.576 L1503.75 27.2059 L1511.24 27.2059 L1511.24 34.2544 Q1513.59 30.1225 1517.36 28.1376 Q1521.12 26.1121 1526.51 26.1121 Q1527.28 26.1121 1528.21 26.2337 Q1529.15 26.3147 1530.28 26.5172 L1530.32 34.1734 Z" fill="#000000" fill-rule="nonzero" fill-opacity="1" /><path clip-path="url(#clip860)" d="M1553.9 32.4315 Q1547.9 32.4315 1544.42 37.1306 Q1540.93 41.7891 1540.93 49.9314 Q1540.93 58.0738 1544.38 62.7728 Q1547.86 67.4314 1553.9 67.4314 Q1559.85 67.4314 1563.33 62.7323 Q1566.82 58.0333 1566.82 49.9314 Q1566.82 41.8701 1563.33 37.1711 Q1559.85 32.4315 1553.9 32.4315 M1553.9 26.1121 Q1563.62 26.1121 1569.17 32.4315 Q1574.72 38.7509 1574.72 49.9314 Q1574.72 61.0714 1569.17 67.4314 Q1563.62 73.7508 1553.9 73.7508 Q1544.13 73.7508 1538.58 67.4314 Q1533.07 61.0714 1533.07 49.9314 Q1533.07 38.7509 1538.58 32.4315 Q1544.13 26.1121 1553.9 26.1121 Z" fill="#000000" fill-rule="nonzero" fill-opacity="1" /><path clip-path="url(#clip860)" d="M1582.74 27.2059 L1590.19 27.2059 L1599.51 62.6108 L1608.79 27.2059 L1617.58 27.2059 L1626.89 62.6108 L1636.17 27.2059 L1643.62 27.2059 L1631.75 72.576 L1622.96 72.576 L1613.2 35.3887 L1603.4 72.576 L1594.61 72.576 L1582.74 27.2059 Z" fill="#000000" fill-rule="nonzero" fill-opacity="1" /><path clip-path="url(#clip860)" d="M1662.3 14.324 L1662.3 27.2059 L1677.65 27.2059 L1677.65 32.9987 L1662.3 32.9987 L1662.3 57.6282 Q1662.3 63.1779 1663.8 64.7578 Q1665.34 66.3376 1669.99 66.3376 L1677.65 66.3376 L1677.65 72.576 L1669.99 72.576 Q1661.37 72.576 1658.09 69.3758 Q1654.8 66.1351 1654.8 57.6282 L1654.8 32.9987 L1649.34 32.9987 L1649.34 27.2059 L1654.8 27.2059 L1654.8 14.324 L1662.3 14.324 Z" fill="#000000" fill-rule="nonzero" fill-opacity="1" /><path clip-path="url(#clip860)" d="M1725.17 45.1919 L1725.17 72.576 L1717.71 72.576 L1717.71 45.4349 Q1717.71 38.994 1715.2 35.7938 Q1712.69 32.5936 1707.67 32.5936 Q1701.63 32.5936 1698.15 36.4419 Q1694.67 40.2903 1694.67 46.9338 L1694.67 72.576 L1687.17 72.576 L1687.17 9.54393 L1694.67 9.54393 L1694.67 34.2544 Q1697.34 30.163 1700.94 28.1376 Q1704.59 26.1121 1709.33 26.1121 Q1717.15 26.1121 1721.16 30.9732 Q1725.17 35.7938 1725.17 45.1919 Z" fill="#000000" fill-rule="nonzero" fill-opacity="1" /><path clip-path="url(#clip860)" d="M1795.41 44.2197 Q1798.04 45.1109 1800.52 48.0275 Q1803.03 50.9442 1805.54 56.0483 L1813.84 72.576 L1805.05 72.576 L1797.31 57.061 Q1794.32 50.9847 1791.48 48.9997 Q1788.69 47.0148 1783.83 47.0148 L1774.91 47.0148 L1774.91 72.576 L1766.73 72.576 L1766.73 12.096 L1785.2 12.096 Q1795.57 12.096 1800.68 16.4305 Q1805.78 20.7649 1805.78 29.5149 Q1805.78 35.2267 1803.11 38.994 Q1800.47 42.7613 1795.41 44.2197 M1774.91 18.8205 L1774.91 40.2903 L1785.2 40.2903 Q1791.12 40.2903 1794.11 37.5762 Q1797.15 34.8216 1797.15 29.5149 Q1797.15 24.2082 1794.11 21.5346 Q1791.12 18.8205 1785.2 18.8205 L1774.91 18.8205 Z" fill="#000000" fill-rule="nonzero" fill-opacity="1" /><path clip-path="url(#clip860)" d="M1842.85 49.7694 Q1833.81 49.7694 1830.33 51.8354 Q1826.85 53.9013 1826.85 58.8839 Q1826.85 62.8538 1829.44 65.2034 Q1832.07 67.5124 1836.57 67.5124 Q1842.77 67.5124 1846.49 63.1374 Q1850.26 58.7219 1850.26 51.4303 L1850.26 49.7694 L1842.85 49.7694 M1857.71 46.6907 L1857.71 72.576 L1850.26 72.576 L1850.26 65.6895 Q1847.71 69.8214 1843.9 71.8063 Q1840.09 73.7508 1834.58 73.7508 Q1827.62 73.7508 1823.48 69.8619 Q1819.39 65.9325 1819.39 59.3701 Q1819.39 51.7138 1824.5 47.825 Q1829.64 43.9361 1839.81 43.9361 L1850.26 43.9361 L1850.26 43.2069 Q1850.26 38.0623 1846.86 35.2672 Q1843.5 32.4315 1837.38 32.4315 Q1833.49 32.4315 1829.8 33.3632 Q1826.12 34.295 1822.71 36.1584 L1822.71 29.2718 Q1826.81 27.692 1830.65 26.9223 Q1834.5 26.1121 1838.15 26.1121 Q1847.99 26.1121 1852.85 31.2163 Q1857.71 36.3204 1857.71 46.6907 Z" fill="#000000" fill-rule="nonzero" fill-opacity="1" /><path clip-path="url(#clip860)" d="M1880.44 14.324 L1880.44 27.2059 L1895.79 27.2059 L1895.79 32.9987 L1880.44 32.9987 L1880.44 57.6282 Q1880.44 63.1779 1881.94 64.7578 Q1883.48 66.3376 1888.14 66.3376 L1895.79 66.3376 L1895.79 72.576 L1888.14 72.576 Q1879.51 72.576 1876.23 69.3758 Q1872.95 66.1351 1872.95 57.6282 L1872.95 32.9987 L1867.48 32.9987 L1867.48 27.2059 L1872.95 27.2059 L1872.95 14.324 L1880.44 14.324 Z" fill="#000000" fill-rule="nonzero" fill-opacity="1" /><path clip-path="url(#clip860)" d="M1944.4 48.0275 L1944.4 51.6733 L1910.13 51.6733 Q1910.62 59.3701 1914.75 63.421 Q1918.92 67.4314 1926.34 67.4314 Q1930.63 67.4314 1934.64 66.3781 Q1938.69 65.3249 1942.66 63.2184 L1942.66 70.267 Q1938.65 71.9684 1934.44 72.8596 Q1930.23 73.7508 1925.89 73.7508 Q1915.03 73.7508 1908.67 67.4314 Q1902.35 61.1119 1902.35 50.3365 Q1902.35 39.1965 1908.35 32.6746 Q1914.39 26.1121 1924.59 26.1121 Q1933.75 26.1121 1939.06 32.0264 Q1944.4 37.9003 1944.4 48.0275 M1936.95 45.84 Q1936.87 39.7232 1933.51 36.0774 Q1930.18 32.4315 1924.68 32.4315 Q1918.44 32.4315 1914.67 35.9558 Q1910.94 39.4801 1910.38 45.8805 L1936.95 45.84 Z" fill="#000000" fill-rule="nonzero" fill-opacity="1" /><polyline clip-path="url(#clip861)" style="stroke:#000000; stroke-linecap:round; stroke-linejoin:round; stroke-width:12; stroke-opacity:1; fill:none" stroke-dasharray="48, 30" points="359.101,395.909 370.12,399.364 381.139,402.82 392.158,406.276 403.178,409.731 414.197,413.187 425.216,416.643 436.235,420.098 447.255,423.554 458.274,427.01 469.293,430.465 480.312,433.921 491.331,437.377 502.351,440.832 513.37,444.288 524.389,447.744 535.408,451.199 546.427,454.655 557.447,458.111 568.466,461.567 579.485,465.022 590.504,468.478 601.523,471.934 612.543,475.389 623.562,478.845 634.581,482.301 645.6,485.756 656.62,489.212 667.639,492.668 678.658,496.123 689.677,499.579 700.696,503.035 711.716,506.49 722.735,509.946 733.754,513.402 744.773,516.857 755.792,520.313 766.812,523.769 777.831,527.224 788.85,530.68 799.869,534.136 810.889,537.591 821.908,541.047 832.927,544.503 843.946,547.958 854.965,551.414 865.985,554.87 877.004,558.325 888.023,561.781 899.042,565.237 910.061,568.692 921.081,572.148 932.1,575.604 943.119,579.059 954.138,582.515 965.158,585.971 976.177,589.426 987.196,592.882 998.215,596.338 1009.23,599.793 1020.25,603.249 1031.27,606.705 1042.29,610.16 1053.31,613.616 1064.33,617.072 1075.35,620.527 1086.37,623.983 1097.39,627.439 1108.41,630.894 1119.43,634.35 1130.45,637.806 1141.46,641.261 1152.48,644.717 1163.5,648.173 1174.52,651.628 1185.54,655.084 1196.56,658.54 1207.58,661.995 1218.6,665.451 1229.62,668.907 1240.64,672.362 1251.66,675.818 1262.68,679.274 1273.7,682.729 1284.71,686.185 1295.73,689.641 1306.75,693.096 1317.77,696.552 1328.79,700.008 1339.81,703.463 1350.83,706.919 1361.85,710.375 1372.87,713.83 1383.89,717.286 1394.91,720.742 1405.93,724.197 1416.95,727.653 1427.96,731.109 1438.98,734.564 1450,738.02 1461.02,741.476 1472.04,744.931 1483.06,748.387 1494.08,751.843 1505.1,755.298 1516.12,758.754 1527.14,762.21 1538.16,765.665 1549.18,769.121 1560.2,772.577 1571.21,776.032 1582.23,779.488 1593.25,782.944 1604.27,786.4 1615.29,789.855 1626.31,793.311 1637.33,796.767 1648.35,800.222 1659.37,803.678 1670.39,807.134 1681.41,810.589 1692.43,814.045 1703.44,817.501 1714.46,820.956 1725.48,824.412 1736.5,827.868 1747.52,831.323 1758.54,834.779 1769.56,838.235 1780.58,841.69 1791.6,845.146 1802.62,848.602 1813.64,852.057 1824.66,855.513 1835.68,858.969 1846.69,862.424 1857.71,865.88 1868.73,869.336 1879.75,872.791 1890.77,876.247 1901.79,879.703 1912.81,883.158 1923.83,886.614 1934.85,890.07 1945.87,893.525 1956.89,896.981 1967.91,900.437 1978.93,903.892 1989.94,907.348 2000.96,910.804 2011.98,914.259 2023,917.715 2034.02,921.171 2045.04,924.626 2056.06,928.082 2067.08,931.538 2078.1,934.993 2089.12,938.449 2100.14,941.905 2111.16,945.36 2122.17,948.816 2133.19,952.272 2144.21,955.727 2155.23,959.183 2166.25,962.639 2177.27,966.094 2188.29,969.55 2199.31,973.006 2210.33,976.461 2221.35,979.917 2232.37,983.373 2243.39,986.828 2254.41,990.284 2265.42,993.74 2276.44,997.195 2287.46,1000.65 2298.48,1004.11 2309.5,1007.56 2320.52,1011.02 2331.54,1014.47 2342.56,1017.93 2353.58,1021.39 2364.6,1024.84 2375.62,1028.3 2386.64,1031.75 2397.66,1035.21 2408.67,1038.66 2419.69,1042.12 2430.71,1045.57 2441.73,1049.03 2452.75,1052.49 2463.77,1055.94 2474.79,1059.4 2485.81,1062.85 2496.83,1066.31 2507.85,1069.76 2518.87,1073.22 2529.89,1076.68 2540.9,1080.13 2551.92,1083.59 "/>
<polyline clip-path="url(#clip861)" style="stroke:#0000ff; stroke-linecap:round; stroke-linejoin:round; stroke-width:8; stroke-opacity:1; fill:none" points="359.101,1267.37 370.12,1209.59 381.139,1152.16 392.158,1095.21 403.178,1038.86 414.197,983.234 425.216,928.443 436.235,874.609 447.255,821.852 458.274,770.29 469.293,720.043 480.312,671.231 491.331,623.971 502.351,578.383 513.37,534.588 524.389,492.702 535.408,452.847 546.427,415.141 557.447,379.704 568.466,346.653 579.485,316.11 590.504,288.192 601.523,263.02 612.543,240.712 623.562,221.387 634.581,205.165 645.6,192.165 656.62,182.506 667.639,176.251 678.658,173.254 689.677,173.32 700.696,176.252 711.716,181.855 722.735,189.935 733.754,200.294 744.773,212.739 755.792,227.072 766.812,243.099 777.831,260.625 788.85,279.453 799.869,299.388 810.889,320.235 821.908,341.798 832.927,363.881 843.946,386.29 854.965,408.828 865.985,431.3 877.004,453.51 888.023,475.264 899.042,496.365 910.061,516.618 921.081,535.827 932.1,553.797 943.119,570.333 954.138,585.238 965.158,598.318 976.177,609.376 987.196,618.275 998.215,625.089 1009.23,629.949 1020.25,632.984 1031.27,634.323 1042.29,634.094 1053.31,632.428 1064.33,629.451 1075.35,625.295 1086.37,620.088 1097.39,613.958 1108.41,607.036 1119.43,599.449 1130.45,591.327 1141.46,582.8 1152.48,573.995 1163.5,565.043 1174.52,556.071 1185.54,547.21 1196.56,538.588 1207.58,530.335 1218.6,522.578 1229.62,515.448 1240.64,509.073 1251.66,503.583 1262.68,499.106 1273.7,495.772 1284.71,493.709 1295.73,493.046 1306.75,493.878 1317.77,496.16 1328.79,499.813 1339.81,504.758 1350.83,510.916 1361.85,518.209 1372.87,526.557 1383.89,535.883 1394.91,546.106 1405.93,557.149 1416.95,568.932 1427.96,581.377 1438.98,594.405 1450,607.936 1461.02,621.893 1472.04,636.196 1483.06,650.766 1494.08,665.525 1505.1,680.394 1516.12,695.294 1527.14,710.146 1538.16,724.872 1549.18,739.392 1560.2,753.628 1571.21,767.5 1582.23,780.931 1593.25,793.841 1604.27,806.151 1615.29,817.784 1626.31,828.671 1637.33,838.796 1648.35,848.156 1659.37,856.745 1670.39,864.56 1681.41,871.596 1692.43,877.85 1703.44,883.317 1714.46,887.992 1725.48,891.873 1736.5,894.953 1747.52,897.23 1758.54,898.699 1769.56,899.356 1780.58,899.197 1791.6,898.217 1802.62,896.412 1813.64,893.778 1824.66,890.311 1835.68,886.007 1846.69,880.861 1857.71,874.87 1868.73,868.028 1879.75,860.332 1890.77,851.778 1901.79,842.362 1912.81,832.078 1923.83,820.924 1934.85,808.894 1945.87,796.006 1956.89,782.363 1967.91,768.09 1978.93,753.314 1989.94,738.16 2000.96,722.755 2011.98,707.224 2023,691.692 2034.02,676.287 2045.04,661.133 2056.06,646.357 2067.08,632.085 2078.1,618.442 2089.12,605.554 2100.14,593.547 2111.16,582.548 2122.17,572.681 2133.19,564.072 2144.21,556.849 2155.23,551.136 2166.25,547.059 2177.27,544.744 2188.29,544.318 2199.31,545.905 2210.33,549.633 2221.35,555.625 2232.37,564.01 2243.39,574.912 2254.41,588.457 2265.42,604.737 2276.44,623.695 2287.46,645.237 2298.48,669.265 2309.5,695.686 2320.52,724.402 2331.54,755.319 2342.56,788.342 2353.58,823.374 2364.6,860.32 2375.62,899.084 2386.64,939.572 2397.66,981.687 2408.67,1025.33 2419.69,1070.42 2430.71,1116.84 2441.73,1164.51 2452.75,1213.33 2463.77,1263.2 2474.79,1314.03 2485.81,1365.72 2496.83,1418.18 2507.85,1471.32 2518.87,1525.03 2529.89,1579.22 2540.9,1633.79 2551.92,1688.65 "/>
<polyline clip-path="url(#clip861)" style="stroke:#ff0000; stroke-linecap:round; stroke-linejoin:round; stroke-width:8; stroke-opacity:1; fill:none" points="359.101,406.707 370.12,410.005 381.139,413.267 392.158,416.496 403.178,419.693 414.197,422.859 425.216,425.996 436.235,429.105 447.255,432.187 458.274,435.244 469.293,438.277 480.312,441.288 491.331,444.278 502.351,447.249 513.37,450.201 524.389,453.137 535.408,456.057 546.427,458.964 557.447,461.857 568.466,464.74 579.485,467.613 590.504,470.478 601.523,473.336 612.543,476.188 623.562,479.036 634.581,481.881 645.6,484.725 656.62,487.57 667.639,490.415 678.658,493.264 689.677,496.117 700.696,498.975 711.716,501.841 722.735,504.715 733.754,507.599 744.773,510.495 755.792,513.403 766.812,516.325 777.831,519.263 788.85,522.218 799.869,525.191 810.889,528.181 821.908,531.19 832.927,534.218 843.946,537.264 854.965,540.33 865.985,543.415 877.004,546.52 888.023,549.644 899.042,552.789 910.061,555.953 921.081,559.139 932.1,562.345 943.119,565.573 954.138,568.822 965.158,572.092 976.177,575.385 987.196,578.699 998.215,582.036 1009.23,585.396 1020.25,588.778 1031.27,592.184 1042.29,595.613 1053.31,599.066 1064.33,602.542 1075.35,606.043 1086.37,609.568 1097.39,613.118 1108.41,616.693 1119.43,620.292 1130.45,623.918 1141.46,627.569 1152.48,631.245 1163.5,634.948 1174.52,638.678 1185.54,642.434 1196.56,646.217 1207.58,650.027 1218.6,653.865 1229.62,657.73 1240.64,661.623 1251.66,665.543 1262.68,669.488 1273.7,673.456 1284.71,677.447 1295.73,681.458 1306.75,685.488 1317.77,689.536 1328.79,693.6 1339.81,697.678 1350.83,701.768 1361.85,705.871 1372.87,709.982 1383.89,714.102 1394.91,718.229 1405.93,722.361 1416.95,726.496 1427.96,730.634 1438.98,734.771 1450,738.908 1461.02,743.042 1472.04,747.172 1483.06,751.297 1494.08,755.414 1505.1,759.522 1516.12,763.62 1527.14,767.706 1538.16,771.778 1549.18,775.836 1560.2,779.877 1571.21,783.9 1582.23,787.903 1593.25,791.885 1604.27,795.845 1615.29,799.78 1626.31,803.689 1637.33,807.572 1648.35,811.425 1659.37,815.248 1670.39,819.038 1681.41,822.796 1692.43,826.519 1703.44,830.208 1714.46,833.865 1725.48,837.49 1736.5,841.085 1747.52,844.65 1758.54,848.187 1769.56,851.696 1780.58,855.179 1791.6,858.637 1802.62,862.069 1813.64,865.479 1824.66,868.866 1835.68,872.231 1846.69,875.576 1857.71,878.902 1868.73,882.209 1879.75,885.499 1890.77,888.773 1901.79,892.031 1912.81,895.275 1923.83,898.505 1934.85,901.723 1945.87,904.93 1956.89,908.126 1967.91,911.313 1978.93,914.492 1989.94,917.664 2000.96,920.829 2011.98,923.989 2023,927.145 2034.02,930.297 2045.04,933.447 2056.06,936.596 2067.08,939.745 2078.1,942.895 2089.12,946.046 2100.14,949.2 2111.16,952.358 2122.17,955.521 2133.19,958.69 2144.21,961.865 2155.23,965.047 2166.25,968.237 2177.27,971.434 2188.29,974.641 2199.31,977.856 2210.33,981.081 2221.35,984.316 2232.37,987.561 2243.39,990.818 2254.41,994.086 2265.42,997.365 2276.44,1000.66 2287.46,1003.96 2298.48,1007.28 2309.5,1010.61 2320.52,1013.96 2331.54,1017.32 2342.56,1020.7 2353.58,1024.1 2364.6,1027.51 2375.62,1030.93 2386.64,1034.38 2397.66,1037.84 2408.67,1041.32 2419.69,1044.82 2430.71,1048.34 2441.73,1051.88 2452.75,1055.44 2463.77,1059.02 2474.79,1062.62 2485.81,1066.24 2496.83,1069.89 2507.85,1073.56 2518.87,1077.25 2529.89,1080.96 2540.9,1084.71 2551.92,1088.47 "/>
<polyline clip-path="url(#clip861)" style="stroke:#008000; stroke-linecap:round; stroke-linejoin:round; stroke-width:8; stroke-opacity:1; fill:none" points="359.101,425.316 370.12,427.619 381.139,429.92 392.158,432.219 403.178,434.515 414.197,436.81 425.216,439.104 436.235,441.398 447.255,443.693 458.274,445.988 469.293,448.285 480.312,450.584 491.331,452.885 502.351,455.19 513.37,457.499 524.389,459.812 535.408,462.13 546.427,464.454 557.447,466.783 568.466,469.12 579.485,471.463 590.504,473.815 601.523,476.174 612.543,478.543 623.562,480.921 634.581,483.31 645.6,485.709 656.62,488.119 667.639,490.542 678.658,492.976 689.677,495.424 700.696,497.885 711.716,500.361 722.735,502.851 733.754,505.356 744.773,507.877 755.792,510.415 766.812,512.97 777.831,515.542 788.85,518.133 799.869,520.742 810.889,523.37 821.908,526.018 832.927,528.686 843.946,531.375 854.965,534.085 865.985,536.816 877.004,539.57 888.023,542.346 899.042,545.145 910.061,547.968 921.081,550.815 932.1,553.686 943.119,556.583 954.138,559.504 965.158,562.452 976.177,565.426 987.196,568.428 998.215,571.456 1009.23,574.513 1020.25,577.598 1031.27,580.712 1042.29,583.855 1053.31,587.028 1064.33,590.231 1075.35,593.465 1086.37,596.731 1097.39,600.028 1108.41,603.358 1119.43,606.72 1130.45,610.116 1141.46,613.545 1152.48,617.009 1163.5,620.507 1174.52,624.04 1185.54,627.61 1196.56,631.215 1207.58,634.857 1218.6,638.536 1229.62,642.253 1240.64,646.007 1251.66,649.799 1262.68,653.627 1273.7,657.491 1284.71,661.388 1295.73,665.318 1306.75,669.28 1317.77,673.273 1328.79,677.296 1339.81,681.347 1350.83,685.425 1361.85,689.53 1372.87,693.66 1383.89,697.814 1394.91,701.991 1405.93,706.19 1416.95,710.41 1427.96,714.65 1438.98,718.909 1450,723.185 1461.02,727.477 1472.04,731.785 1483.06,736.107 1494.08,740.442 1505.1,744.79 1516.12,749.148 1527.14,753.516 1538.16,757.894 1549.18,762.278 1560.2,766.67 1571.21,771.067 1582.23,775.468 1593.25,779.872 1604.27,784.279 1615.29,788.687 1626.31,793.095 1637.33,797.502 1648.35,801.907 1659.37,806.308 1670.39,810.705 1681.41,815.097 1692.43,819.481 1703.44,823.859 1714.46,828.227 1725.48,832.584 1736.5,836.93 1747.52,841.264 1758.54,845.583 1769.56,849.887 1780.58,854.174 1791.6,858.443 1802.62,862.694 1813.64,866.924 1824.66,871.132 1835.68,875.318 1846.69,879.48 1857.71,883.616 1868.73,887.726 1879.75,891.808 1890.77,895.861 1901.79,899.884 1912.81,903.875 1923.83,907.833 1934.85,911.757 1945.87,915.646 1956.89,919.499 1967.91,923.313 1978.93,927.089 1989.94,930.824 2000.96,934.518 2011.98,938.169 2023,941.776 2034.02,945.338 2045.04,948.854 2056.06,952.321 2067.08,955.74 2078.1,959.108 2089.12,962.425 2100.14,965.689 2111.16,968.899 2122.17,972.054 2133.19,975.152 2144.21,978.194 2155.23,981.179 2166.25,984.109 2177.27,986.984 2188.29,989.805 2199.31,992.572 2210.33,995.285 2221.35,997.946 2232.37,1000.55 2243.39,1003.11 2254.41,1005.62 2265.42,1008.07 2276.44,1010.48 2287.46,1012.83 2298.48,1015.14 2309.5,1017.4 2320.52,1019.61 2331.54,1021.77 2342.56,1023.89 2353.58,1025.96 2364.6,1027.99 2375.62,1029.97 2386.64,1031.91 2397.66,1033.8 2408.67,1035.65 2419.69,1037.46 2430.71,1039.22 2441.73,1040.94 2452.75,1042.63 2463.77,1044.27 2474.79,1045.87 2485.81,1047.43 2496.83,1048.96 2507.85,1050.44 2518.87,1051.89 2529.89,1053.3 2540.9,1054.68 2551.92,1056.02 "/>
<polyline clip-path="url(#clip861)" style="stroke:#808080; stroke-linecap:round; stroke-linejoin:round; stroke-width:4; stroke-opacity:0.5; fill:none" stroke-dasharray="2, 4" points="-2055.47,1090.6 4988.87,1090.6 "/>
<polyline clip-path="url(#clip861)" style="stroke:#808080; stroke-linecap:round; stroke-linejoin:round; stroke-width:4; stroke-opacity:0.5; fill:none" stroke-dasharray="2, 4" points="2574.3,3340.44 2574.3,-1478.53 "/>
<path clip-path="url(#clip860)" d="M370.915 1680.57 L1188.69 1680.57 L1188.69 1369.53 L370.915 1369.53  Z" fill="#ffffff" fill-rule="evenodd" fill-opacity="1"/>
<polyline clip-path="url(#clip860)" style="stroke:#000000; stroke-linecap:round; stroke-linejoin:round; stroke-width:4; stroke-opacity:1; fill:none" points="370.915,1680.57 1188.69,1680.57 1188.69,1369.53 370.915,1369.53 370.915,1680.57 "/>
<polyline clip-path="url(#clip860)" style="stroke:#000000; stroke-linecap:round; stroke-linejoin:round; stroke-width:12; stroke-opacity:1; fill:none" stroke-dasharray="48, 30" points="397.005,1421.37 553.546,1421.37 "/>
<path clip-path="url(#clip860)" d="M579.636 1404.09 L608.872 1404.09 L608.872 1408.03 L596.604 1408.03 L596.604 1438.65 L591.905 1438.65 L591.905 1408.03 L579.636 1408.03 L579.636 1404.09 Z" fill="#000000" fill-rule="nonzero" fill-opacity="1" /><path clip-path="url(#clip860)" d="M621.256 1416.71 Q620.539 1416.29 619.682 1416.11 Q618.849 1415.9 617.83 1415.9 Q614.219 1415.9 612.275 1418.26 Q610.354 1420.6 610.354 1425 L610.354 1438.65 L606.071 1438.65 L606.071 1412.73 L610.354 1412.73 L610.354 1416.75 Q611.696 1414.39 613.849 1413.26 Q616.002 1412.1 619.08 1412.1 Q619.52 1412.1 620.053 1412.17 Q620.585 1412.22 621.233 1412.33 L621.256 1416.71 Z" fill="#000000" fill-rule="nonzero" fill-opacity="1" /><path clip-path="url(#clip860)" d="M625.284 1428.42 L625.284 1412.73 L629.543 1412.73 L629.543 1428.26 Q629.543 1431.94 630.978 1433.79 Q632.414 1435.62 635.284 1435.62 Q638.733 1435.62 640.724 1433.42 Q642.738 1431.22 642.738 1427.43 L642.738 1412.73 L646.997 1412.73 L646.997 1438.65 L642.738 1438.65 L642.738 1434.67 Q641.187 1437.03 639.127 1438.19 Q637.09 1439.32 634.381 1439.32 Q629.914 1439.32 627.599 1436.55 Q625.284 1433.77 625.284 1428.42 M636.002 1412.1 L636.002 1412.1 Z" fill="#000000" fill-rule="nonzero" fill-opacity="1" /><path clip-path="url(#clip860)" d="M677.946 1424.63 L677.946 1426.71 L658.363 1426.71 Q658.64 1431.11 661.001 1433.42 Q663.386 1435.71 667.622 1435.71 Q670.076 1435.71 672.367 1435.11 Q674.682 1434.51 676.95 1433.31 L676.95 1437.33 Q674.659 1438.31 672.251 1438.81 Q669.844 1439.32 667.367 1439.32 Q661.164 1439.32 657.529 1435.71 Q653.918 1432.1 653.918 1425.94 Q653.918 1419.58 657.344 1415.85 Q660.793 1412.1 666.626 1412.1 Q671.858 1412.1 674.89 1415.48 Q677.946 1418.84 677.946 1424.63 M673.687 1423.38 Q673.64 1419.88 671.719 1417.8 Q669.821 1415.71 666.673 1415.71 Q663.108 1415.71 660.955 1417.73 Q658.826 1419.74 658.501 1423.4 L673.687 1423.38 Z" fill="#000000" fill-rule="nonzero" fill-opacity="1" /><path clip-path="url(#clip860)" d="M715.029 1416.71 Q714.311 1416.29 713.455 1416.11 Q712.622 1415.9 711.603 1415.9 Q707.992 1415.9 706.048 1418.26 Q704.126 1420.6 704.126 1425 L704.126 1438.65 L699.844 1438.65 L699.844 1412.73 L704.126 1412.73 L704.126 1416.75 Q705.469 1414.39 707.622 1413.26 Q709.774 1412.1 712.853 1412.1 Q713.293 1412.1 713.825 1412.17 Q714.358 1412.22 715.006 1412.33 L715.029 1416.71 Z" fill="#000000" fill-rule="nonzero" fill-opacity="1" /><path clip-path="url(#clip860)" d="M729.728 1402.68 Q726.626 1408 725.122 1413.21 Q723.617 1418.42 723.617 1423.77 Q723.617 1429.12 725.122 1434.37 Q726.649 1439.6 729.728 1444.9 L726.024 1444.9 Q722.552 1439.46 720.816 1434.21 Q719.103 1428.95 719.103 1423.77 Q719.103 1418.61 720.816 1413.38 Q722.529 1408.14 726.024 1402.68 L729.728 1402.68 Z" fill="#000000" fill-rule="nonzero" fill-opacity="1" /><path clip-path="url(#clip860)" d="M738.177 1404.09 L744.473 1404.09 L759.797 1433 L759.797 1404.09 L764.334 1404.09 L764.334 1438.65 L758.038 1438.65 L742.714 1409.74 L742.714 1438.65 L738.177 1438.65 L738.177 1404.09 Z" fill="#000000" fill-rule="nonzero" fill-opacity="1" /><path clip-path="url(#clip860)" d="M772.783 1402.68 L776.487 1402.68 Q779.959 1408.14 781.672 1413.38 Q783.408 1418.61 783.408 1423.77 Q783.408 1428.95 781.672 1434.21 Q779.959 1439.46 776.487 1444.9 L772.783 1444.9 Q775.862 1439.6 777.367 1434.37 Q778.894 1429.12 778.894 1423.77 Q778.894 1418.42 777.367 1413.21 Q775.862 1408 772.783 1402.68 Z" fill="#000000" fill-rule="nonzero" fill-opacity="1" /><polyline clip-path="url(#clip860)" style="stroke:#0000ff; stroke-linecap:round; stroke-linejoin:round; stroke-width:8; stroke-opacity:1; fill:none" points="397.005,1473.21 553.546,1473.21 "/>
<path clip-path="url(#clip860)" d="M579.636 1455.93 L584.335 1455.93 L584.335 1476.93 Q584.335 1482.48 586.349 1484.94 Q588.363 1487.37 592.877 1487.37 Q597.368 1487.37 599.381 1484.94 Q601.395 1482.48 601.395 1476.93 L601.395 1455.93 L606.094 1455.93 L606.094 1477.51 Q606.094 1484.27 602.738 1487.72 Q599.405 1491.16 592.877 1491.16 Q586.326 1491.16 582.969 1487.72 Q579.636 1484.27 579.636 1477.51 L579.636 1455.93 Z" fill="#000000" fill-rule="nonzero" fill-opacity="1" /><path clip-path="url(#clip860)" d="M636.233 1474.84 L636.233 1490.49 L631.974 1490.49 L631.974 1474.98 Q631.974 1471.3 630.539 1469.47 Q629.104 1467.65 626.233 1467.65 Q622.784 1467.65 620.793 1469.84 Q618.803 1472.04 618.803 1475.84 L618.803 1490.49 L614.52 1490.49 L614.52 1464.57 L618.803 1464.57 L618.803 1468.59 Q620.33 1466.26 622.391 1465.1 Q624.474 1463.94 627.182 1463.94 Q631.65 1463.94 633.941 1466.72 Q636.233 1469.47 636.233 1474.84 Z" fill="#000000" fill-rule="nonzero" fill-opacity="1" /><path clip-path="url(#clip860)" d="M663.386 1465.56 L663.386 1469.54 Q661.58 1468.55 659.751 1468.06 Q657.946 1467.55 656.094 1467.55 Q651.951 1467.55 649.659 1470.19 Q647.367 1472.81 647.367 1477.55 Q647.367 1482.3 649.659 1484.94 Q651.951 1487.55 656.094 1487.55 Q657.946 1487.55 659.751 1487.07 Q661.58 1486.56 663.386 1485.56 L663.386 1489.5 Q661.603 1490.33 659.682 1490.75 Q657.784 1491.16 655.631 1491.16 Q649.775 1491.16 646.326 1487.48 Q642.877 1483.8 642.877 1477.55 Q642.877 1471.21 646.349 1467.58 Q649.844 1463.94 655.909 1463.94 Q657.877 1463.94 659.751 1464.36 Q661.626 1464.75 663.386 1465.56 Z" fill="#000000" fill-rule="nonzero" fill-opacity="1" /><path clip-path="url(#clip860)" d="M680.839 1467.55 Q677.413 1467.55 675.423 1470.24 Q673.432 1472.9 673.432 1477.55 Q673.432 1482.21 675.4 1484.89 Q677.39 1487.55 680.839 1487.55 Q684.242 1487.55 686.233 1484.87 Q688.224 1482.18 688.224 1477.55 Q688.224 1472.95 686.233 1470.26 Q684.242 1467.55 680.839 1467.55 M680.839 1463.94 Q686.395 1463.94 689.566 1467.55 Q692.737 1471.16 692.737 1477.55 Q692.737 1483.92 689.566 1487.55 Q686.395 1491.16 680.839 1491.16 Q675.261 1491.16 672.089 1487.55 Q668.941 1483.92 668.941 1477.55 Q668.941 1471.16 672.089 1467.55 Q675.261 1463.94 680.839 1463.94 Z" fill="#000000" fill-rule="nonzero" fill-opacity="1" /><path clip-path="url(#clip860)" d="M721.348 1474.84 L721.348 1490.49 L717.089 1490.49 L717.089 1474.98 Q717.089 1471.3 715.654 1469.47 Q714.219 1467.65 711.348 1467.65 Q707.899 1467.65 705.909 1469.84 Q703.918 1472.04 703.918 1475.84 L703.918 1490.49 L699.636 1490.49 L699.636 1464.57 L703.918 1464.57 L703.918 1468.59 Q705.446 1466.26 707.506 1465.1 Q709.589 1463.94 712.298 1463.94 Q716.765 1463.94 719.057 1466.72 Q721.348 1469.47 721.348 1474.84 Z" fill="#000000" fill-rule="nonzero" fill-opacity="1" /><path clip-path="url(#clip860)" d="M746.371 1465.33 L746.371 1469.36 Q744.566 1468.43 742.621 1467.97 Q740.677 1467.51 738.594 1467.51 Q735.422 1467.51 733.825 1468.48 Q732.251 1469.45 732.251 1471.4 Q732.251 1472.88 733.385 1473.73 Q734.52 1474.57 737.946 1475.33 L739.404 1475.65 Q743.941 1476.63 745.839 1478.41 Q747.76 1480.17 747.76 1483.34 Q747.76 1486.95 744.89 1489.06 Q742.043 1491.16 737.043 1491.16 Q734.959 1491.16 732.691 1490.75 Q730.446 1490.35 727.946 1489.54 L727.946 1485.15 Q730.307 1486.37 732.598 1487 Q734.89 1487.6 737.135 1487.6 Q740.145 1487.6 741.765 1486.58 Q743.385 1485.54 743.385 1483.66 Q743.385 1481.93 742.205 1481 Q741.047 1480.08 737.089 1479.22 L735.608 1478.87 Q731.649 1478.04 729.89 1476.33 Q728.131 1474.59 728.131 1471.58 Q728.131 1467.92 730.723 1465.93 Q733.316 1463.94 738.084 1463.94 Q740.446 1463.94 742.529 1464.29 Q744.612 1464.64 746.371 1465.33 Z" fill="#000000" fill-rule="nonzero" fill-opacity="1" /><path clip-path="url(#clip860)" d="M758.756 1457.21 L758.756 1464.57 L767.529 1464.57 L767.529 1467.88 L758.756 1467.88 L758.756 1481.95 Q758.756 1485.12 759.612 1486.03 Q760.492 1486.93 763.154 1486.93 L767.529 1486.93 L767.529 1490.49 L763.154 1490.49 Q758.223 1490.49 756.348 1488.66 Q754.473 1486.81 754.473 1481.95 L754.473 1467.88 L751.348 1467.88 L751.348 1464.57 L754.473 1464.57 L754.473 1457.21 L758.756 1457.21 Z" fill="#000000" fill-rule="nonzero" fill-opacity="1" /><path clip-path="url(#clip860)" d="M788.154 1468.55 Q787.436 1468.13 786.58 1467.95 Q785.746 1467.74 784.728 1467.74 Q781.117 1467.74 779.172 1470.1 Q777.251 1472.44 777.251 1476.84 L777.251 1490.49 L772.968 1490.49 L772.968 1464.57 L777.251 1464.57 L777.251 1468.59 Q778.593 1466.23 780.746 1465.1 Q782.899 1463.94 785.978 1463.94 Q786.417 1463.94 786.95 1464.01 Q787.482 1464.06 788.13 1464.17 L788.154 1468.55 Z" fill="#000000" fill-rule="nonzero" fill-opacity="1" /><path clip-path="url(#clip860)" d="M804.403 1477.46 Q799.241 1477.46 797.251 1478.64 Q795.26 1479.82 795.26 1482.67 Q795.26 1484.94 796.741 1486.28 Q798.246 1487.6 800.816 1487.6 Q804.357 1487.6 806.487 1485.1 Q808.64 1482.58 808.64 1478.41 L808.64 1477.46 L804.403 1477.46 M812.899 1475.7 L812.899 1490.49 L808.64 1490.49 L808.64 1486.56 Q807.181 1488.92 805.005 1490.05 Q802.829 1491.16 799.681 1491.16 Q795.7 1491.16 793.339 1488.94 Q791.001 1486.7 791.001 1482.95 Q791.001 1478.57 793.917 1476.35 Q796.857 1474.13 802.667 1474.13 L808.64 1474.13 L808.64 1473.71 Q808.64 1470.77 806.695 1469.17 Q804.774 1467.55 801.279 1467.55 Q799.056 1467.55 796.95 1468.09 Q794.843 1468.62 792.899 1469.68 L792.899 1465.75 Q795.237 1464.84 797.436 1464.41 Q799.635 1463.94 801.718 1463.94 Q807.343 1463.94 810.121 1466.86 Q812.899 1469.78 812.899 1475.7 Z" fill="#000000" fill-rule="nonzero" fill-opacity="1" /><path clip-path="url(#clip860)" d="M821.672 1464.57 L825.931 1464.57 L825.931 1490.49 L821.672 1490.49 L821.672 1464.57 M821.672 1454.47 L825.931 1454.47 L825.931 1459.87 L821.672 1459.87 L821.672 1454.47 Z" fill="#000000" fill-rule="nonzero" fill-opacity="1" /><path clip-path="url(#clip860)" d="M856.394 1474.84 L856.394 1490.49 L852.135 1490.49 L852.135 1474.98 Q852.135 1471.3 850.7 1469.47 Q849.264 1467.65 846.394 1467.65 Q842.945 1467.65 840.954 1469.84 Q838.963 1472.04 838.963 1475.84 L838.963 1490.49 L834.681 1490.49 L834.681 1464.57 L838.963 1464.57 L838.963 1468.59 Q840.491 1466.26 842.551 1465.1 Q844.635 1463.94 847.343 1463.94 Q851.811 1463.94 854.102 1466.72 Q856.394 1469.47 856.394 1474.84 Z" fill="#000000" fill-rule="nonzero" fill-opacity="1" /><path clip-path="url(#clip860)" d="M887.065 1476.47 L887.065 1478.55 L867.482 1478.55 Q867.76 1482.95 870.121 1485.26 Q872.505 1487.55 876.741 1487.55 Q879.195 1487.55 881.486 1486.95 Q883.801 1486.35 886.07 1485.15 L886.07 1489.17 Q883.778 1490.15 881.371 1490.65 Q878.963 1491.16 876.486 1491.16 Q870.283 1491.16 866.649 1487.55 Q863.037 1483.94 863.037 1477.78 Q863.037 1471.42 866.463 1467.69 Q869.912 1463.94 875.746 1463.94 Q880.977 1463.94 884.01 1467.32 Q887.065 1470.68 887.065 1476.47 M882.806 1475.22 Q882.76 1471.72 880.838 1469.64 Q878.94 1467.55 875.792 1467.55 Q872.227 1467.55 870.074 1469.57 Q867.945 1471.58 867.621 1475.24 L882.806 1475.22 Z" fill="#000000" fill-rule="nonzero" fill-opacity="1" /><path clip-path="url(#clip860)" d="M911.116 1468.5 L911.116 1454.47 L915.375 1454.47 L915.375 1490.49 L911.116 1490.49 L911.116 1486.6 Q909.773 1488.92 907.713 1490.05 Q905.676 1491.16 902.806 1491.16 Q898.107 1491.16 895.144 1487.41 Q892.204 1483.66 892.204 1477.55 Q892.204 1471.44 895.144 1467.69 Q898.107 1463.94 902.806 1463.94 Q905.676 1463.94 907.713 1465.08 Q909.773 1466.19 911.116 1468.5 M896.602 1477.55 Q896.602 1482.25 898.523 1484.94 Q900.468 1487.6 903.847 1487.6 Q907.227 1487.6 909.171 1484.94 Q911.116 1482.25 911.116 1477.55 Q911.116 1472.85 909.171 1470.19 Q907.227 1467.51 903.847 1467.51 Q900.468 1467.51 898.523 1470.19 Q896.602 1472.85 896.602 1477.55 Z" fill="#000000" fill-rule="nonzero" fill-opacity="1" /><path clip-path="url(#clip860)" d="M949.449 1454.52 Q946.347 1459.84 944.843 1465.05 Q943.338 1470.26 943.338 1475.61 Q943.338 1480.96 944.843 1486.21 Q946.37 1491.44 949.449 1496.74 L945.745 1496.74 Q942.273 1491.3 940.537 1486.05 Q938.824 1480.79 938.824 1475.61 Q938.824 1470.45 940.537 1465.22 Q942.25 1459.98 945.745 1454.52 L949.449 1454.52 Z" fill="#000000" fill-rule="nonzero" fill-opacity="1" /><path clip-path="url(#clip860)" d="M972.736 1468.55 Q972.018 1468.13 971.162 1467.95 Q970.329 1467.74 969.31 1467.74 Q965.699 1467.74 963.754 1470.1 Q961.833 1472.44 961.833 1476.84 L961.833 1490.49 L957.551 1490.49 L957.551 1464.57 L961.833 1464.57 L961.833 1468.59 Q963.176 1466.23 965.329 1465.1 Q967.481 1463.94 970.56 1463.94 Q971 1463.94 971.532 1464.01 Q972.065 1464.06 972.713 1464.17 L972.736 1468.55 Z" fill="#000000" fill-rule="nonzero" fill-opacity="1" /><path clip-path="url(#clip860)" d="M977.759 1468.97 L1007.43 1468.97 L1007.43 1472.85 L977.759 1472.85 L977.759 1468.97 M977.759 1478.41 L1007.43 1478.41 L1007.43 1482.34 L977.759 1482.34 L977.759 1478.41 Z" fill="#000000" fill-rule="nonzero" fill-opacity="1" /><path clip-path="url(#clip860)" d="M1027.53 1459.01 Q1023.92 1459.01 1022.09 1462.58 Q1020.28 1466.12 1020.28 1473.25 Q1020.28 1480.35 1022.09 1483.92 Q1023.92 1487.46 1027.53 1487.46 Q1031.16 1487.46 1032.97 1483.92 Q1034.8 1480.35 1034.8 1473.25 Q1034.8 1466.12 1032.97 1462.58 Q1031.16 1459.01 1027.53 1459.01 M1027.53 1455.31 Q1033.34 1455.31 1036.39 1459.91 Q1039.47 1464.5 1039.47 1473.25 Q1039.47 1481.97 1036.39 1486.58 Q1033.34 1491.16 1027.53 1491.16 Q1021.72 1491.16 1018.64 1486.58 Q1015.58 1481.97 1015.58 1473.25 Q1015.58 1464.5 1018.64 1459.91 Q1021.72 1455.31 1027.53 1455.31 Z" fill="#000000" fill-rule="nonzero" fill-opacity="1" /><path clip-path="url(#clip860)" d="M1047.69 1484.61 L1052.57 1484.61 L1052.57 1490.49 L1047.69 1490.49 L1047.69 1484.61 Z" fill="#000000" fill-rule="nonzero" fill-opacity="1" /><path clip-path="url(#clip860)" d="M1062.8 1455.93 L1081.16 1455.93 L1081.16 1459.87 L1067.09 1459.87 L1067.09 1468.34 Q1068.11 1467.99 1069.12 1467.83 Q1070.14 1467.65 1071.16 1467.65 Q1076.95 1467.65 1080.33 1470.82 Q1083.71 1473.99 1083.71 1479.4 Q1083.71 1484.98 1080.24 1488.09 Q1076.76 1491.16 1070.44 1491.16 Q1068.27 1491.16 1066 1490.79 Q1063.75 1490.42 1061.35 1489.68 L1061.35 1484.98 Q1063.43 1486.12 1065.65 1486.67 Q1067.87 1487.23 1070.35 1487.23 Q1074.36 1487.23 1076.69 1485.12 Q1079.03 1483.02 1079.03 1479.4 Q1079.03 1475.79 1076.69 1473.69 Q1074.36 1471.58 1070.35 1471.58 Q1068.48 1471.58 1066.6 1472 Q1064.75 1472.41 1062.8 1473.29 L1062.8 1455.93 Z" fill="#000000" fill-rule="nonzero" fill-opacity="1" /><path clip-path="url(#clip860)" d="M1105.77 1460.01 L1093.96 1478.46 L1105.77 1478.46 L1105.77 1460.01 M1104.54 1455.93 L1110.42 1455.93 L1110.42 1478.46 L1115.35 1478.46 L1115.35 1482.34 L1110.42 1482.34 L1110.42 1490.49 L1105.77 1490.49 L1105.77 1482.34 L1090.17 1482.34 L1090.17 1477.83 L1104.54 1455.93 Z" fill="#000000" fill-rule="nonzero" fill-opacity="1" /><path clip-path="url(#clip860)" d="M1127.11 1486.56 L1143.43 1486.56 L1143.43 1490.49 L1121.49 1490.49 L1121.49 1486.56 Q1124.15 1483.8 1128.73 1479.17 Q1133.34 1474.52 1134.52 1473.18 Q1136.76 1470.65 1137.64 1468.92 Q1138.55 1467.16 1138.55 1465.47 Q1138.55 1462.72 1136.6 1460.98 Q1134.68 1459.24 1131.58 1459.24 Q1129.38 1459.24 1126.92 1460.01 Q1124.49 1460.77 1121.72 1462.32 L1121.72 1457.6 Q1124.54 1456.47 1126.99 1455.89 Q1129.45 1455.31 1131.49 1455.31 Q1136.86 1455.31 1140.05 1457.99 Q1143.24 1460.68 1143.24 1465.17 Q1143.24 1467.3 1142.43 1469.22 Q1141.65 1471.12 1139.54 1473.71 Q1138.96 1474.38 1135.86 1477.6 Q1132.76 1480.79 1127.11 1486.56 Z" fill="#000000" fill-rule="nonzero" fill-opacity="1" /><path clip-path="url(#clip860)" d="M1151.97 1454.52 L1155.67 1454.52 Q1159.15 1459.98 1160.86 1465.22 Q1162.6 1470.45 1162.6 1475.61 Q1162.6 1480.79 1160.86 1486.05 Q1159.15 1491.3 1155.67 1496.74 L1151.97 1496.74 Q1155.05 1491.44 1156.55 1486.21 Q1158.08 1480.96 1158.08 1475.61 Q1158.08 1470.26 1156.55 1465.05 Q1155.05 1459.84 1151.97 1454.52 Z" fill="#000000" fill-rule="nonzero" fill-opacity="1" /><polyline clip-path="url(#clip860)" style="stroke:#ff0000; stroke-linecap:round; stroke-linejoin:round; stroke-width:8; stroke-opacity:1; fill:none" points="397.005,1525.05 553.546,1525.05 "/>
<path clip-path="url(#clip860)" d="M584.312 1511.62 L584.312 1538.49 L589.96 1538.49 Q597.113 1538.49 600.423 1535.25 Q603.756 1532.01 603.756 1525.02 Q603.756 1518.07 600.423 1514.86 Q597.113 1511.62 589.96 1511.62 L584.312 1511.62 M579.636 1507.77 L589.243 1507.77 Q599.289 1507.77 603.988 1511.96 Q608.687 1516.13 608.687 1525.02 Q608.687 1533.95 603.965 1538.14 Q599.243 1542.33 589.243 1542.33 L579.636 1542.33 L579.636 1507.77 Z" fill="#000000" fill-rule="nonzero" fill-opacity="1" /><path clip-path="url(#clip860)" d="M638.131 1528.31 L638.131 1530.39 L618.548 1530.39 Q618.826 1534.79 621.187 1537.1 Q623.571 1539.39 627.807 1539.39 Q630.261 1539.39 632.553 1538.79 Q634.867 1538.19 637.136 1536.99 L637.136 1541.01 Q634.844 1541.99 632.437 1542.49 Q630.029 1543 627.553 1543 Q621.349 1543 617.715 1539.39 Q614.104 1535.78 614.104 1529.62 Q614.104 1523.26 617.529 1519.53 Q620.979 1515.78 626.812 1515.78 Q632.043 1515.78 635.076 1519.16 Q638.131 1522.52 638.131 1528.31 M633.872 1527.06 Q633.826 1523.56 631.904 1521.48 Q630.006 1519.39 626.858 1519.39 Q623.293 1519.39 621.141 1521.41 Q619.011 1523.42 618.687 1527.08 L633.872 1527.06 Z" fill="#000000" fill-rule="nonzero" fill-opacity="1" /><path clip-path="url(#clip860)" d="M663.779 1517.4 L663.779 1521.38 Q661.974 1520.39 660.145 1519.9 Q658.339 1519.39 656.488 1519.39 Q652.344 1519.39 650.052 1522.03 Q647.761 1524.65 647.761 1529.39 Q647.761 1534.14 650.052 1536.78 Q652.344 1539.39 656.488 1539.39 Q658.339 1539.39 660.145 1538.91 Q661.974 1538.4 663.779 1537.4 L663.779 1541.34 Q661.997 1542.17 660.076 1542.59 Q658.177 1543 656.025 1543 Q650.168 1543 646.719 1539.32 Q643.27 1535.64 643.27 1529.39 Q643.27 1523.05 646.742 1519.42 Q650.238 1515.78 656.302 1515.78 Q658.27 1515.78 660.145 1516.2 Q662.02 1516.59 663.779 1517.4 Z" fill="#000000" fill-rule="nonzero" fill-opacity="1" /><path clip-path="url(#clip860)" d="M686.21 1520.39 Q685.492 1519.97 684.636 1519.79 Q683.802 1519.58 682.784 1519.58 Q679.173 1519.58 677.228 1521.94 Q675.307 1524.28 675.307 1528.68 L675.307 1542.33 L671.025 1542.33 L671.025 1516.41 L675.307 1516.41 L675.307 1520.43 Q676.65 1518.07 678.802 1516.94 Q680.955 1515.78 684.034 1515.78 Q684.474 1515.78 685.006 1515.85 Q685.538 1515.9 686.187 1516.01 L686.21 1520.39 Z" fill="#000000" fill-rule="nonzero" fill-opacity="1" /><path clip-path="url(#clip860)" d="M711.811 1528.31 L711.811 1530.39 L692.228 1530.39 Q692.506 1534.79 694.867 1537.1 Q697.251 1539.39 701.487 1539.39 Q703.941 1539.39 706.233 1538.79 Q708.548 1538.19 710.816 1536.99 L710.816 1541.01 Q708.524 1541.99 706.117 1542.49 Q703.71 1543 701.233 1543 Q695.029 1543 691.395 1539.39 Q687.784 1535.78 687.784 1529.62 Q687.784 1523.26 691.21 1519.53 Q694.659 1515.78 700.492 1515.78 Q705.723 1515.78 708.756 1519.16 Q711.811 1522.52 711.811 1528.31 M707.552 1527.06 Q707.506 1523.56 705.585 1521.48 Q703.686 1519.39 700.538 1519.39 Q696.974 1519.39 694.821 1521.41 Q692.691 1523.42 692.367 1527.08 L707.552 1527.06 Z" fill="#000000" fill-rule="nonzero" fill-opacity="1" /><path clip-path="url(#clip860)" d="M730.584 1529.3 Q725.422 1529.3 723.432 1530.48 Q721.441 1531.66 721.441 1534.51 Q721.441 1536.78 722.922 1538.12 Q724.427 1539.44 726.997 1539.44 Q730.538 1539.44 732.668 1536.94 Q734.821 1534.42 734.821 1530.25 L734.821 1529.3 L730.584 1529.3 M739.08 1527.54 L739.08 1542.33 L734.821 1542.33 L734.821 1538.4 Q733.362 1540.76 731.186 1541.89 Q729.01 1543 725.862 1543 Q721.881 1543 719.52 1540.78 Q717.182 1538.54 717.182 1534.79 Q717.182 1530.41 720.098 1528.19 Q723.038 1525.97 728.848 1525.97 L734.821 1525.97 L734.821 1525.55 Q734.821 1522.61 732.876 1521.01 Q730.955 1519.39 727.459 1519.39 Q725.237 1519.39 723.131 1519.93 Q721.024 1520.46 719.08 1521.52 L719.08 1517.59 Q721.418 1516.68 723.617 1516.25 Q725.816 1515.78 727.899 1515.78 Q733.524 1515.78 736.302 1518.7 Q739.08 1521.62 739.08 1527.54 Z" fill="#000000" fill-rule="nonzero" fill-opacity="1" /><path clip-path="url(#clip860)" d="M764.381 1517.17 L764.381 1521.2 Q762.575 1520.27 760.631 1519.81 Q758.686 1519.35 756.603 1519.35 Q753.432 1519.35 751.834 1520.32 Q750.26 1521.29 750.26 1523.24 Q750.26 1524.72 751.395 1525.57 Q752.529 1526.41 755.955 1527.17 L757.413 1527.49 Q761.95 1528.47 763.848 1530.25 Q765.769 1532.01 765.769 1535.18 Q765.769 1538.79 762.899 1540.9 Q760.052 1543 755.052 1543 Q752.969 1543 750.7 1542.59 Q748.455 1542.19 745.955 1541.38 L745.955 1536.99 Q748.316 1538.21 750.607 1538.84 Q752.899 1539.44 755.144 1539.44 Q758.154 1539.44 759.774 1538.42 Q761.394 1537.38 761.394 1535.5 Q761.394 1533.77 760.214 1532.84 Q759.057 1531.92 755.098 1531.06 L753.617 1530.71 Q749.658 1529.88 747.899 1528.17 Q746.14 1526.43 746.14 1523.42 Q746.14 1519.76 748.732 1517.77 Q751.325 1515.78 756.094 1515.78 Q758.455 1515.78 760.538 1516.13 Q762.621 1516.48 764.381 1517.17 Z" fill="#000000" fill-rule="nonzero" fill-opacity="1" /><path clip-path="url(#clip860)" d="M772.552 1516.41 L776.811 1516.41 L776.811 1542.33 L772.552 1542.33 L772.552 1516.41 M772.552 1506.31 L776.811 1506.31 L776.811 1511.71 L772.552 1511.71 L772.552 1506.31 Z" fill="#000000" fill-rule="nonzero" fill-opacity="1" /><path clip-path="url(#clip860)" d="M807.274 1526.68 L807.274 1542.33 L803.015 1542.33 L803.015 1526.82 Q803.015 1523.14 801.579 1521.31 Q800.144 1519.49 797.274 1519.49 Q793.825 1519.49 791.834 1521.68 Q789.843 1523.88 789.843 1527.68 L789.843 1542.33 L785.561 1542.33 L785.561 1516.41 L789.843 1516.41 L789.843 1520.43 Q791.371 1518.1 793.431 1516.94 Q795.515 1515.78 798.223 1515.78 Q802.691 1515.78 804.982 1518.56 Q807.274 1521.31 807.274 1526.68 Z" fill="#000000" fill-rule="nonzero" fill-opacity="1" /><path clip-path="url(#clip860)" d="M832.829 1529.07 Q832.829 1524.44 830.908 1521.89 Q829.01 1519.35 825.561 1519.35 Q822.135 1519.35 820.214 1521.89 Q818.315 1524.44 818.315 1529.07 Q818.315 1533.68 820.214 1536.22 Q822.135 1538.77 825.561 1538.77 Q829.01 1538.77 830.908 1536.22 Q832.829 1533.68 832.829 1529.07 M837.089 1539.12 Q837.089 1545.74 834.149 1548.95 Q831.209 1552.19 825.144 1552.19 Q822.899 1552.19 820.908 1551.85 Q818.917 1551.52 817.042 1550.83 L817.042 1546.68 Q818.917 1547.7 820.746 1548.19 Q822.575 1548.68 824.473 1548.68 Q828.663 1548.68 830.746 1546.48 Q832.829 1544.3 832.829 1539.88 L832.829 1537.77 Q831.51 1540.06 829.45 1541.2 Q827.389 1542.33 824.519 1542.33 Q819.751 1542.33 816.834 1538.7 Q813.917 1535.06 813.917 1529.07 Q813.917 1523.05 816.834 1519.42 Q819.751 1515.78 824.519 1515.78 Q827.389 1515.78 829.45 1516.92 Q831.51 1518.05 832.829 1520.34 L832.829 1516.41 L837.089 1516.41 L837.089 1539.12 Z" fill="#000000" fill-rule="nonzero" fill-opacity="1" /><path clip-path="url(#clip860)" d="M871.162 1506.36 Q868.061 1511.68 866.556 1516.89 Q865.051 1522.1 865.051 1527.45 Q865.051 1532.8 866.556 1538.05 Q868.084 1543.28 871.162 1548.58 L867.459 1548.58 Q863.987 1543.14 862.25 1537.89 Q860.537 1532.63 860.537 1527.45 Q860.537 1522.29 862.25 1517.06 Q863.963 1511.82 867.459 1506.36 L871.162 1506.36 Z" fill="#000000" fill-rule="nonzero" fill-opacity="1" /><path clip-path="url(#clip860)" d="M894.449 1520.39 Q893.732 1519.97 892.875 1519.79 Q892.042 1519.58 891.023 1519.58 Q887.412 1519.58 885.468 1521.94 Q883.547 1524.28 883.547 1528.68 L883.547 1542.33 L879.264 1542.33 L879.264 1516.41 L883.547 1516.41 L883.547 1520.43 Q884.889 1518.07 887.042 1516.94 Q889.195 1515.78 892.273 1515.78 Q892.713 1515.78 893.246 1515.85 Q893.778 1515.9 894.426 1516.01 L894.449 1520.39 Z" fill="#000000" fill-rule="nonzero" fill-opacity="1" /><path clip-path="url(#clip860)" d="M899.472 1520.81 L929.148 1520.81 L929.148 1524.69 L899.472 1524.69 L899.472 1520.81 M899.472 1530.25 L929.148 1530.25 L929.148 1534.18 L899.472 1534.18 L899.472 1530.25 Z" fill="#000000" fill-rule="nonzero" fill-opacity="1" /><path clip-path="url(#clip860)" d="M949.241 1510.85 Q945.63 1510.85 943.801 1514.42 Q941.995 1517.96 941.995 1525.09 Q941.995 1532.19 943.801 1535.76 Q945.63 1539.3 949.241 1539.3 Q952.875 1539.3 954.68 1535.76 Q956.509 1532.19 956.509 1525.09 Q956.509 1517.96 954.68 1514.42 Q952.875 1510.85 949.241 1510.85 M949.241 1507.15 Q955.051 1507.15 958.106 1511.75 Q961.185 1516.34 961.185 1525.09 Q961.185 1533.81 958.106 1538.42 Q955.051 1543 949.241 1543 Q943.431 1543 940.352 1538.42 Q937.296 1533.81 937.296 1525.09 Q937.296 1516.34 940.352 1511.75 Q943.431 1507.15 949.241 1507.15 Z" fill="#000000" fill-rule="nonzero" fill-opacity="1" /><path clip-path="url(#clip860)" d="M969.403 1536.45 L974.287 1536.45 L974.287 1542.33 L969.403 1542.33 L969.403 1536.45 Z" fill="#000000" fill-rule="nonzero" fill-opacity="1" /><path clip-path="url(#clip860)" d="M984.611 1541.62 L984.611 1537.36 Q986.37 1538.19 988.176 1538.63 Q989.981 1539.07 991.717 1539.07 Q996.347 1539.07 998.777 1535.97 Q1001.23 1532.84 1001.58 1526.5 Q1000.24 1528.49 998.176 1529.56 Q996.115 1530.62 993.615 1530.62 Q988.43 1530.62 985.398 1527.49 Q982.389 1524.35 982.389 1518.91 Q982.389 1513.58 985.537 1510.37 Q988.685 1507.15 993.916 1507.15 Q999.912 1507.15 1003.06 1511.75 Q1006.23 1516.34 1006.23 1525.09 Q1006.23 1533.26 1002.34 1538.14 Q998.477 1543 991.926 1543 Q990.166 1543 988.361 1542.66 Q986.555 1542.31 984.611 1541.62 M993.916 1526.96 Q997.064 1526.96 998.893 1524.81 Q1000.75 1522.66 1000.75 1518.91 Q1000.75 1515.18 998.893 1513.03 Q997.064 1510.85 993.916 1510.85 Q990.768 1510.85 988.916 1513.03 Q987.088 1515.18 987.088 1518.91 Q987.088 1522.66 988.916 1524.81 Q990.768 1526.96 993.916 1526.96 Z" fill="#000000" fill-rule="nonzero" fill-opacity="1" /><path clip-path="url(#clip860)" d="M1014.77 1541.62 L1014.77 1537.36 Q1016.53 1538.19 1018.34 1538.63 Q1020.14 1539.07 1021.88 1539.07 Q1026.51 1539.07 1028.94 1535.97 Q1031.39 1532.84 1031.74 1526.5 Q1030.4 1528.49 1028.34 1529.56 Q1026.28 1530.62 1023.78 1530.62 Q1018.59 1530.62 1015.56 1527.49 Q1012.55 1524.35 1012.55 1518.91 Q1012.55 1513.58 1015.7 1510.37 Q1018.85 1507.15 1024.08 1507.15 Q1030.07 1507.15 1033.22 1511.75 Q1036.39 1516.34 1036.39 1525.09 Q1036.39 1533.26 1032.5 1538.14 Q1028.64 1543 1022.09 1543 Q1020.33 1543 1018.52 1542.66 Q1016.72 1542.31 1014.77 1541.62 M1024.08 1526.96 Q1027.23 1526.96 1029.06 1524.81 Q1030.91 1522.66 1030.91 1518.91 Q1030.91 1515.18 1029.06 1513.03 Q1027.23 1510.85 1024.08 1510.85 Q1020.93 1510.85 1019.08 1513.03 Q1017.25 1515.18 1017.25 1518.91 Q1017.25 1522.66 1019.08 1524.81 Q1020.93 1526.96 1024.08 1526.96 Z" fill="#000000" fill-rule="nonzero" fill-opacity="1" /><path clip-path="url(#clip860)" d="M1044.93 1541.62 L1044.93 1537.36 Q1046.69 1538.19 1048.5 1538.63 Q1050.3 1539.07 1052.04 1539.07 Q1056.67 1539.07 1059.1 1535.97 Q1061.55 1532.84 1061.9 1526.5 Q1060.56 1528.49 1058.5 1529.56 Q1056.44 1530.62 1053.94 1530.62 Q1048.75 1530.62 1045.72 1527.49 Q1042.71 1524.35 1042.71 1518.91 Q1042.71 1513.58 1045.86 1510.37 Q1049.01 1507.15 1054.24 1507.15 Q1060.24 1507.15 1063.38 1511.75 Q1066.55 1516.34 1066.55 1525.09 Q1066.55 1533.26 1062.67 1538.14 Q1058.8 1543 1052.25 1543 Q1050.49 1543 1048.68 1542.66 Q1046.88 1542.31 1044.93 1541.62 M1054.24 1526.96 Q1057.39 1526.96 1059.22 1524.81 Q1061.07 1522.66 1061.07 1518.91 Q1061.07 1515.18 1059.22 1513.03 Q1057.39 1510.85 1054.24 1510.85 Q1051.09 1510.85 1049.24 1513.03 Q1047.41 1515.18 1047.41 1518.91 Q1047.41 1522.66 1049.24 1524.81 Q1051.09 1526.96 1054.24 1526.96 Z" fill="#000000" fill-rule="nonzero" fill-opacity="1" /><path clip-path="url(#clip860)" d="M1073.68 1506.36 L1077.39 1506.36 Q1080.86 1511.82 1082.57 1517.06 Q1084.31 1522.29 1084.31 1527.45 Q1084.31 1532.63 1082.57 1537.89 Q1080.86 1543.14 1077.39 1548.58 L1073.68 1548.58 Q1076.76 1543.28 1078.27 1538.05 Q1079.8 1532.8 1079.8 1527.45 Q1079.8 1522.1 1078.27 1516.89 Q1076.76 1511.68 1073.68 1506.36 Z" fill="#000000" fill-rule="nonzero" fill-opacity="1" /><polyline clip-path="url(#clip860)" style="stroke:#008000; stroke-linecap:round; stroke-linejoin:round; stroke-width:8; stroke-opacity:1; fill:none" points="397.005,1576.89 553.546,1576.89 "/>
<path clip-path="url(#clip860)" d="M584.312 1563.46 L584.312 1590.33 L589.96 1590.33 Q597.113 1590.33 600.423 1587.09 Q603.756 1583.85 603.756 1576.86 Q603.756 1569.91 600.423 1566.7 Q597.113 1563.46 589.96 1563.46 L584.312 1563.46 M579.636 1559.61 L589.243 1559.61 Q599.289 1559.61 603.988 1563.8 Q608.687 1567.97 608.687 1576.86 Q608.687 1585.79 603.965 1589.98 Q599.243 1594.17 589.243 1594.17 L579.636 1594.17 L579.636 1559.61 Z" fill="#000000" fill-rule="nonzero" fill-opacity="1" /><path clip-path="url(#clip860)" d="M638.131 1580.15 L638.131 1582.23 L618.548 1582.23 Q618.826 1586.63 621.187 1588.94 Q623.571 1591.23 627.807 1591.23 Q630.261 1591.23 632.553 1590.63 Q634.867 1590.03 637.136 1588.83 L637.136 1592.85 Q634.844 1593.83 632.437 1594.33 Q630.029 1594.84 627.553 1594.84 Q621.349 1594.84 617.715 1591.23 Q614.104 1587.62 614.104 1581.46 Q614.104 1575.1 617.529 1571.37 Q620.979 1567.62 626.812 1567.62 Q632.043 1567.62 635.076 1571 Q638.131 1574.36 638.131 1580.15 M633.872 1578.9 Q633.826 1575.4 631.904 1573.32 Q630.006 1571.23 626.858 1571.23 Q623.293 1571.23 621.141 1573.25 Q619.011 1575.26 618.687 1578.92 L633.872 1578.9 Z" fill="#000000" fill-rule="nonzero" fill-opacity="1" /><path clip-path="url(#clip860)" d="M663.779 1569.24 L663.779 1573.22 Q661.974 1572.23 660.145 1571.74 Q658.339 1571.23 656.488 1571.23 Q652.344 1571.23 650.052 1573.87 Q647.761 1576.49 647.761 1581.23 Q647.761 1585.98 650.052 1588.62 Q652.344 1591.23 656.488 1591.23 Q658.339 1591.23 660.145 1590.75 Q661.974 1590.24 663.779 1589.24 L663.779 1593.18 Q661.997 1594.01 660.076 1594.43 Q658.177 1594.84 656.025 1594.84 Q650.168 1594.84 646.719 1591.16 Q643.27 1587.48 643.27 1581.23 Q643.27 1574.89 646.742 1571.26 Q650.238 1567.62 656.302 1567.62 Q658.27 1567.62 660.145 1568.04 Q662.02 1568.43 663.779 1569.24 Z" fill="#000000" fill-rule="nonzero" fill-opacity="1" /><path clip-path="url(#clip860)" d="M688.524 1564.45 L688.524 1577.34 L701.418 1577.34 L701.418 1581.28 L688.524 1581.28 L688.524 1594.17 L684.636 1594.17 L684.636 1581.28 L671.742 1581.28 L671.742 1577.34 L684.636 1577.34 L684.636 1564.45 L688.524 1564.45 Z" fill="#000000" fill-rule="nonzero" fill-opacity="1" /><path clip-path="url(#clip860)" d="M709.103 1559.61 L736.256 1559.61 L736.256 1563.18 L714.404 1590.24 L736.788 1590.24 L736.788 1594.17 L708.571 1594.17 L708.571 1590.61 L730.422 1563.55 L709.103 1563.55 L709.103 1559.61 Z" fill="#000000" fill-rule="nonzero" fill-opacity="1" /><path clip-path="url(#clip860)" d="M765.561 1580.15 L765.561 1582.23 L745.978 1582.23 Q746.256 1586.63 748.617 1588.94 Q751.001 1591.23 755.237 1591.23 Q757.691 1591.23 759.982 1590.63 Q762.297 1590.03 764.566 1588.83 L764.566 1592.85 Q762.274 1593.83 759.867 1594.33 Q757.459 1594.84 754.982 1594.84 Q748.779 1594.84 745.145 1591.23 Q741.533 1587.62 741.533 1581.46 Q741.533 1575.1 744.959 1571.37 Q748.408 1567.62 754.242 1567.62 Q759.473 1567.62 762.506 1571 Q765.561 1574.36 765.561 1580.15 M761.302 1578.9 Q761.256 1575.4 759.334 1573.32 Q757.436 1571.23 754.288 1571.23 Q750.723 1571.23 748.57 1573.25 Q746.441 1575.26 746.117 1578.92 L761.302 1578.9 Z" fill="#000000" fill-rule="nonzero" fill-opacity="1" /><path clip-path="url(#clip860)" d="M787.575 1572.23 Q786.857 1571.81 786.001 1571.63 Q785.167 1571.42 784.149 1571.42 Q780.538 1571.42 778.593 1573.78 Q776.672 1576.12 776.672 1580.52 L776.672 1594.17 L772.39 1594.17 L772.39 1568.25 L776.672 1568.25 L776.672 1572.27 Q778.015 1569.91 780.168 1568.78 Q782.32 1567.62 785.399 1567.62 Q785.839 1567.62 786.371 1567.69 Q786.904 1567.74 787.552 1567.85 L787.575 1572.23 Z" fill="#000000" fill-rule="nonzero" fill-opacity="1" /><path clip-path="url(#clip860)" d="M801.047 1571.23 Q797.621 1571.23 795.63 1573.92 Q793.64 1576.58 793.64 1581.23 Q793.64 1585.89 795.607 1588.57 Q797.598 1591.23 801.047 1591.23 Q804.45 1591.23 806.441 1588.55 Q808.431 1585.86 808.431 1581.23 Q808.431 1576.63 806.441 1573.94 Q804.45 1571.23 801.047 1571.23 M801.047 1567.62 Q806.603 1567.62 809.774 1571.23 Q812.945 1574.84 812.945 1581.23 Q812.945 1587.6 809.774 1591.23 Q806.603 1594.84 801.047 1594.84 Q795.468 1594.84 792.297 1591.23 Q789.149 1587.6 789.149 1581.23 Q789.149 1574.84 792.297 1571.23 Q795.468 1567.62 801.047 1567.62 Z" fill="#000000" fill-rule="nonzero" fill-opacity="1" /><path clip-path="url(#clip860)" d="M833.176 1581.74 Q833.176 1585.05 834.82 1586.95 Q836.464 1588.83 839.334 1588.83 Q842.181 1588.83 843.801 1586.93 Q845.445 1585.03 845.445 1581.74 Q845.445 1578.5 843.778 1576.6 Q842.112 1574.68 839.288 1574.68 Q836.487 1574.68 834.82 1576.58 Q833.176 1578.48 833.176 1581.74 M845.792 1588.66 Q844.403 1590.45 842.598 1591.3 Q840.815 1592.14 838.431 1592.14 Q834.45 1592.14 831.95 1589.27 Q829.473 1586.37 829.473 1581.74 Q829.473 1577.11 831.973 1574.22 Q834.473 1571.33 838.431 1571.33 Q840.815 1571.33 842.621 1572.21 Q844.426 1573.06 845.792 1574.82 L845.792 1571.79 L849.102 1571.79 L849.102 1588.83 Q852.482 1588.32 854.38 1585.75 Q856.301 1583.15 856.301 1579.06 Q856.301 1576.58 855.561 1574.4 Q854.843 1572.23 853.362 1570.38 Q850.954 1567.34 847.482 1565.75 Q844.033 1564.13 839.959 1564.13 Q837.112 1564.13 834.496 1564.89 Q831.88 1565.63 829.658 1567.11 Q826.024 1569.47 823.964 1573.32 Q821.927 1577.14 821.927 1581.6 Q821.927 1585.28 823.246 1588.5 Q824.589 1591.72 827.112 1594.17 Q829.542 1596.58 832.737 1597.83 Q835.931 1599.1 839.565 1599.1 Q842.551 1599.1 845.422 1598.08 Q848.315 1597.09 850.723 1595.21 L852.806 1597.78 Q849.913 1600.03 846.487 1601.21 Q843.084 1602.41 839.565 1602.41 Q835.283 1602.41 831.487 1600.89 Q827.69 1599.38 824.727 1596.49 Q821.765 1593.59 820.214 1589.8 Q818.663 1585.98 818.663 1581.6 Q818.663 1577.39 820.237 1573.57 Q821.811 1569.75 824.727 1566.86 Q827.714 1563.92 831.626 1562.37 Q835.538 1560.79 839.913 1560.79 Q844.82 1560.79 849.01 1562.81 Q853.223 1564.82 856.07 1568.52 Q857.806 1570.79 858.709 1573.46 Q859.635 1576.12 859.635 1578.96 Q859.635 1585.05 855.954 1588.57 Q852.274 1592.09 845.792 1592.23 L845.792 1588.66 Z" fill="#000000" fill-rule="nonzero" fill-opacity="1" /><path clip-path="url(#clip860)" d="M867.598 1559.61 L872.274 1559.61 L872.274 1574.22 L887.783 1559.61 L893.801 1559.61 L876.648 1575.72 L895.028 1594.17 L888.871 1594.17 L872.274 1577.53 L872.274 1594.17 L867.598 1594.17 L867.598 1559.61 Z" fill="#000000" fill-rule="nonzero" fill-opacity="1" /><path clip-path="url(#clip860)" d="M923.801 1558.2 Q920.699 1563.52 919.195 1568.73 Q917.69 1573.94 917.69 1579.29 Q917.69 1584.64 919.195 1589.89 Q920.722 1595.12 923.801 1600.42 L920.097 1600.42 Q916.625 1594.98 914.889 1589.73 Q913.176 1584.47 913.176 1579.29 Q913.176 1574.13 914.889 1568.9 Q916.602 1563.66 920.097 1558.2 L923.801 1558.2 Z" fill="#000000" fill-rule="nonzero" fill-opacity="1" /><path clip-path="url(#clip860)" d="M947.088 1572.23 Q946.37 1571.81 945.514 1571.63 Q944.681 1571.42 943.662 1571.42 Q940.051 1571.42 938.106 1573.78 Q936.185 1576.12 936.185 1580.52 L936.185 1594.17 L931.903 1594.17 L931.903 1568.25 L936.185 1568.25 L936.185 1572.27 Q937.528 1569.91 939.681 1568.78 Q941.833 1567.62 944.912 1567.62 Q945.352 1567.62 945.884 1567.69 Q946.417 1567.74 947.065 1567.85 L947.088 1572.23 Z" fill="#000000" fill-rule="nonzero" fill-opacity="1" /><path clip-path="url(#clip860)" d="M952.111 1572.65 L981.787 1572.65 L981.787 1576.53 L952.111 1576.53 L952.111 1572.65 M952.111 1582.09 L981.787 1582.09 L981.787 1586.02 L952.111 1586.02 L952.111 1582.09 Z" fill="#000000" fill-rule="nonzero" fill-opacity="1" /><path clip-path="url(#clip860)" d="M1001.88 1562.69 Q998.268 1562.69 996.44 1566.26 Q994.634 1569.8 994.634 1576.93 Q994.634 1584.03 996.44 1587.6 Q998.268 1591.14 1001.88 1591.14 Q1005.51 1591.14 1007.32 1587.6 Q1009.15 1584.03 1009.15 1576.93 Q1009.15 1569.8 1007.32 1566.26 Q1005.51 1562.69 1001.88 1562.69 M1001.88 1558.99 Q1007.69 1558.99 1010.74 1563.59 Q1013.82 1568.18 1013.82 1576.93 Q1013.82 1585.65 1010.74 1590.26 Q1007.69 1594.84 1001.88 1594.84 Q996.069 1594.84 992.99 1590.26 Q989.935 1585.65 989.935 1576.93 Q989.935 1568.18 992.99 1563.59 Q996.069 1558.99 1001.88 1558.99 Z" fill="#000000" fill-rule="nonzero" fill-opacity="1" /><path clip-path="url(#clip860)" d="M1022.04 1588.29 L1026.93 1588.29 L1026.93 1594.17 L1022.04 1594.17 L1022.04 1588.29 Z" fill="#000000" fill-rule="nonzero" fill-opacity="1" /><path clip-path="url(#clip860)" d="M1037.25 1593.46 L1037.25 1589.2 Q1039.01 1590.03 1040.81 1590.47 Q1042.62 1590.91 1044.36 1590.91 Q1048.99 1590.91 1051.42 1587.81 Q1053.87 1584.68 1054.22 1578.34 Q1052.87 1580.33 1050.81 1581.4 Q1048.75 1582.46 1046.25 1582.46 Q1041.07 1582.46 1038.04 1579.33 Q1035.03 1576.19 1035.03 1570.75 Q1035.03 1565.42 1038.18 1562.21 Q1041.32 1558.99 1046.55 1558.99 Q1052.55 1558.99 1055.7 1563.59 Q1058.87 1568.18 1058.87 1576.93 Q1058.87 1585.1 1054.98 1589.98 Q1051.12 1594.84 1044.56 1594.84 Q1042.8 1594.84 1041 1594.5 Q1039.19 1594.15 1037.25 1593.46 M1046.55 1578.8 Q1049.7 1578.8 1051.53 1576.65 Q1053.38 1574.5 1053.38 1570.75 Q1053.38 1567.02 1051.53 1564.87 Q1049.7 1562.69 1046.55 1562.69 Q1043.41 1562.69 1041.56 1564.87 Q1039.73 1567.02 1039.73 1570.75 Q1039.73 1574.5 1041.56 1576.65 Q1043.41 1578.8 1046.55 1578.8 Z" fill="#000000" fill-rule="nonzero" fill-opacity="1" /><path clip-path="url(#clip860)" d="M1067.41 1593.46 L1067.41 1589.2 Q1069.17 1590.03 1070.98 1590.47 Q1072.78 1590.91 1074.52 1590.91 Q1079.15 1590.91 1081.58 1587.81 Q1084.03 1584.68 1084.38 1578.34 Q1083.04 1580.33 1080.98 1581.4 Q1078.92 1582.46 1076.42 1582.46 Q1071.23 1582.46 1068.2 1579.33 Q1065.19 1576.19 1065.19 1570.75 Q1065.19 1565.42 1068.34 1562.21 Q1071.49 1558.99 1076.72 1558.99 Q1082.71 1558.99 1085.86 1563.59 Q1089.03 1568.18 1089.03 1576.93 Q1089.03 1585.1 1085.14 1589.98 Q1081.28 1594.84 1074.73 1594.84 Q1072.97 1594.84 1071.16 1594.5 Q1069.36 1594.15 1067.41 1593.46 M1076.72 1578.8 Q1079.86 1578.8 1081.69 1576.65 Q1083.55 1574.5 1083.55 1570.75 Q1083.55 1567.02 1081.69 1564.87 Q1079.86 1562.69 1076.72 1562.69 Q1073.57 1562.69 1071.72 1564.87 Q1069.89 1567.02 1069.89 1570.75 Q1069.89 1574.5 1071.72 1576.65 Q1073.57 1578.8 1076.72 1578.8 Z" fill="#000000" fill-rule="nonzero" fill-opacity="1" /><path clip-path="url(#clip860)" d="M1108.01 1575.03 Q1104.86 1575.03 1103.01 1577.18 Q1101.18 1579.33 1101.18 1583.08 Q1101.18 1586.81 1103.01 1588.99 Q1104.86 1591.14 1108.01 1591.14 Q1111.16 1591.14 1112.99 1588.99 Q1114.84 1586.81 1114.84 1583.08 Q1114.84 1579.33 1112.99 1577.18 Q1111.16 1575.03 1108.01 1575.03 M1117.3 1560.38 L1117.3 1564.64 Q1115.54 1563.8 1113.73 1563.36 Q1111.95 1562.92 1110.19 1562.92 Q1105.56 1562.92 1103.11 1566.05 Q1100.68 1569.17 1100.33 1575.49 Q1101.69 1573.48 1103.75 1572.41 Q1105.81 1571.33 1108.29 1571.33 Q1113.5 1571.33 1116.51 1574.5 Q1119.54 1577.65 1119.54 1583.08 Q1119.54 1588.41 1116.39 1591.63 Q1113.24 1594.84 1108.01 1594.84 Q1102.02 1594.84 1098.85 1590.26 Q1095.68 1585.65 1095.68 1576.93 Q1095.68 1568.73 1099.56 1563.87 Q1103.45 1558.99 1110 1558.99 Q1111.76 1558.99 1113.55 1559.34 Q1115.35 1559.68 1117.3 1560.38 Z" fill="#000000" fill-rule="nonzero" fill-opacity="1" /><path clip-path="url(#clip860)" d="M1126.32 1558.2 L1130.03 1558.2 Q1133.5 1563.66 1135.21 1568.9 Q1136.95 1574.13 1136.95 1579.29 Q1136.95 1584.47 1135.21 1589.73 Q1133.5 1594.98 1130.03 1600.42 L1126.32 1600.42 Q1129.4 1595.12 1130.91 1589.89 Q1132.43 1584.64 1132.43 1579.29 Q1132.43 1573.94 1130.91 1568.73 Q1129.4 1563.52 1126.32 1558.2 Z" fill="#000000" fill-rule="nonzero" fill-opacity="1" /><polyline clip-path="url(#clip860)" style="stroke:#808080; stroke-linecap:round; stroke-linejoin:round; stroke-width:4; stroke-opacity:0.5; fill:none" stroke-dasharray="2, 4" points="397.005,1628.73 553.546,1628.73 "/>
<path clip-path="url(#clip860)" d="M579.636 1611.45 L584.312 1611.45 L584.312 1626.06 L599.821 1611.45 L605.84 1611.45 L588.687 1627.56 L607.067 1646.01 L600.909 1646.01 L584.312 1629.37 L584.312 1646.01 L579.636 1646.01 L579.636 1611.45 Z" fill="#000000" fill-rule="nonzero" fill-opacity="1" /><path clip-path="url(#clip860)" d="M611.094 1624.49 L640.77 1624.49 L640.77 1628.37 L611.094 1628.37 L611.094 1624.49 M611.094 1633.93 L640.77 1633.93 L640.77 1637.86 L611.094 1637.86 L611.094 1633.93 Z" fill="#000000" fill-rule="nonzero" fill-opacity="1" /><path clip-path="url(#clip860)" d="M651.673 1642.08 L659.312 1642.08 L659.312 1615.71 L651.002 1617.38 L651.002 1613.12 L659.265 1611.45 L663.941 1611.45 L663.941 1642.08 L671.58 1642.08 L671.58 1646.01 L651.673 1646.01 L651.673 1642.08 Z" fill="#000000" fill-rule="nonzero" fill-opacity="1" /><path clip-path="url(#clip860)" d="M691.024 1614.53 Q687.413 1614.53 685.585 1618.1 Q683.779 1621.64 683.779 1628.77 Q683.779 1635.87 685.585 1639.44 Q687.413 1642.98 691.024 1642.98 Q694.659 1642.98 696.464 1639.44 Q698.293 1635.87 698.293 1628.77 Q698.293 1621.64 696.464 1618.1 Q694.659 1614.53 691.024 1614.53 M691.024 1610.83 Q696.835 1610.83 699.89 1615.43 Q702.969 1620.02 702.969 1628.77 Q702.969 1637.49 699.89 1642.1 Q696.835 1646.68 691.024 1646.68 Q685.214 1646.68 682.136 1642.1 Q679.08 1637.49 679.08 1628.77 Q679.08 1620.02 682.136 1615.43 Q685.214 1610.83 691.024 1610.83 Z" fill="#000000" fill-rule="nonzero" fill-opacity="1" /><path clip-path="url(#clip860)" d="M711.186 1640.13 L716.071 1640.13 L716.071 1646.01 L711.186 1646.01 L711.186 1640.13 Z" fill="#000000" fill-rule="nonzero" fill-opacity="1" /><path clip-path="url(#clip860)" d="M736.256 1614.53 Q732.645 1614.53 730.816 1618.1 Q729.01 1621.64 729.01 1628.77 Q729.01 1635.87 730.816 1639.44 Q732.645 1642.98 736.256 1642.98 Q739.89 1642.98 741.695 1639.44 Q743.524 1635.87 743.524 1628.77 Q743.524 1621.64 741.695 1618.1 Q739.89 1614.53 736.256 1614.53 M736.256 1610.83 Q742.066 1610.83 745.121 1615.43 Q748.2 1620.02 748.2 1628.77 Q748.2 1637.49 745.121 1642.1 Q742.066 1646.68 736.256 1646.68 Q730.446 1646.68 727.367 1642.1 Q724.311 1637.49 724.311 1628.77 Q724.311 1620.02 727.367 1615.43 Q730.446 1610.83 736.256 1610.83 Z" fill="#000000" fill-rule="nonzero" fill-opacity="1" /></svg>
