<?xml version="1.0" encoding="utf-8"?>
<svg xmlns="http://www.w3.org/2000/svg" xmlns:xlink="http://www.w3.org/1999/xlink" width="700" height="600" viewBox="0 0 2800 2400">
<defs>
  <clipPath id="clip820">
    <rect x="0" y="0" width="2800" height="2400"/>
  </clipPath>
</defs>
<path clip-path="url(#clip820)" d="M0 2400 L2800 2400 L2800 1.33227e-13 L0 1.33227e-13  Z" fill="#ffffff" fill-rule="evenodd" fill-opacity="1"/>
<defs>
  <clipPath id="clip821">
    <rect x="236" y="1883" width="2517" height="310"/>
  </clipPath>
</defs>
<path clip-path="url(#clip820)" d="M236.61 449.362 L2752.76 449.362 L2752.76 140.752 L236.61 140.752  Z" fill="#ffffff" fill-rule="evenodd" fill-opacity="1"/>
<defs>
  <clipPath id="clip822">
    <rect x="236" y="140" width="2517" height="310"/>
  </clipPath>
</defs>
<polyline clip-path="url(#clip822)" style="stroke:#000000; stroke-linecap:round; stroke-linejoin:round; stroke-width:2; stroke-opacity:0.1; fill:none" points="291.891,449.362 291.891,140.752 "/>
<polyline clip-path="url(#clip822)" style="stroke:#000000; stroke-linecap:round; stroke-linejoin:round; stroke-width:2; stroke-opacity:0.1; fill:none" points="1088.44,449.362 1088.44,140.752 "/>
<polyline clip-path="url(#clip822)" style="stroke:#000000; stroke-linecap:round; stroke-linejoin:round; stroke-width:2; stroke-opacity:0.1; fill:none" points="1884.99,449.362 1884.99,140.752 "/>
<polyline clip-path="url(#clip822)" style="stroke:#000000; stroke-linecap:round; stroke-linejoin:round; stroke-width:2; stroke-opacity:0.1; fill:none" points="2681.54,449.362 2681.54,140.752 "/>
<polyline clip-path="url(#clip822)" style="stroke:#000000; stroke-linecap:round; stroke-linejoin:round; stroke-width:2; stroke-opacity:0.1; fill:none" points="236.61,425.029 2752.76,425.029 "/>
<polyline clip-path="url(#clip822)" style="stroke:#000000; stroke-linecap:round; stroke-linejoin:round; stroke-width:2; stroke-opacity:0.1; fill:none" points="236.61,372.723 2752.76,372.723 "/>
<polyline clip-path="url(#clip822)" style="stroke:#000000; stroke-linecap:round; stroke-linejoin:round; stroke-width:2; stroke-opacity:0.1; fill:none" points="236.61,320.417 2752.76,320.417 "/>
<polyline clip-path="url(#clip822)" style="stroke:#000000; stroke-linecap:round; stroke-linejoin:round; stroke-width:2; stroke-opacity:0.1; fill:none" points="236.61,268.112 2752.76,268.112 "/>
<polyline clip-path="url(#clip822)" style="stroke:#000000; stroke-linecap:round; stroke-linejoin:round; stroke-width:2; stroke-opacity:0.1; fill:none" points="236.61,215.806 2752.76,215.806 "/>
<polyline clip-path="url(#clip822)" style="stroke:#000000; stroke-linecap:round; stroke-linejoin:round; stroke-width:2; stroke-opacity:0.1; fill:none" points="236.61,163.5 2752.76,163.5 "/>
<polyline clip-path="url(#clip820)" style="stroke:#000000; stroke-linecap:round; stroke-linejoin:round; stroke-width:4; stroke-opacity:1; fill:none" points="236.61,449.362 2752.76,449.362 "/>
<polyline clip-path="url(#clip820)" style="stroke:#000000; stroke-linecap:round; stroke-linejoin:round; stroke-width:4; stroke-opacity:1; fill:none" points="291.891,449.362 291.891,430.465 "/>
<polyline clip-path="url(#clip820)" style="stroke:#000000; stroke-linecap:round; stroke-linejoin:round; stroke-width:4; stroke-opacity:1; fill:none" points="1088.44,449.362 1088.44,430.465 "/>
<polyline clip-path="url(#clip820)" style="stroke:#000000; stroke-linecap:round; stroke-linejoin:round; stroke-width:4; stroke-opacity:1; fill:none" points="1884.99,449.362 1884.99,430.465 "/>
<polyline clip-path="url(#clip820)" style="stroke:#000000; stroke-linecap:round; stroke-linejoin:round; stroke-width:4; stroke-opacity:1; fill:none" points="2681.54,449.362 2681.54,430.465 "/>
<path clip-path="url(#clip820)" d="M291.891 483.481 Q288.28 483.481 286.451 487.046 Q284.645 490.587 284.645 497.717 Q284.645 504.823 286.451 508.388 Q288.28 511.93 291.891 511.93 Q295.525 511.93 297.331 508.388 Q299.159 504.823 299.159 497.717 Q299.159 490.587 297.331 487.046 Q295.525 483.481 291.891 483.481 M291.891 479.777 Q297.701 479.777 300.756 484.384 Q303.835 488.967 303.835 497.717 Q303.835 506.444 300.756 511.05 Q297.701 515.634 291.891 515.634 Q286.081 515.634 283.002 511.05 Q279.946 506.444 279.946 497.717 Q279.946 488.967 283.002 484.384 Q286.081 479.777 291.891 479.777 Z" fill="#000000" fill-rule="nonzero" fill-opacity="1" /><path clip-path="url(#clip820)" d="M1063.14 480.402 L1081.5 480.402 L1081.5 484.337 L1067.42 484.337 L1067.42 492.81 Q1068.44 492.462 1069.46 492.3 Q1070.48 492.115 1071.5 492.115 Q1077.28 492.115 1080.66 495.286 Q1084.04 498.458 1084.04 503.874 Q1084.04 509.453 1080.57 512.555 Q1077.1 515.634 1070.78 515.634 Q1068.6 515.634 1066.34 515.263 Q1064.09 514.893 1061.68 514.152 L1061.68 509.453 Q1063.77 510.587 1065.99 511.143 Q1068.21 511.698 1070.69 511.698 Q1074.69 511.698 1077.03 509.592 Q1079.37 507.485 1079.37 503.874 Q1079.37 500.263 1077.03 498.157 Q1074.69 496.05 1070.69 496.05 Q1068.81 496.05 1066.94 496.467 Q1065.09 496.884 1063.14 497.763 L1063.14 480.402 Z" fill="#000000" fill-rule="nonzero" fill-opacity="1" /><path clip-path="url(#clip820)" d="M1103.26 483.481 Q1099.65 483.481 1097.82 487.046 Q1096.01 490.587 1096.01 497.717 Q1096.01 504.823 1097.82 508.388 Q1099.65 511.93 1103.26 511.93 Q1106.89 511.93 1108.7 508.388 Q1110.53 504.823 1110.53 497.717 Q1110.53 490.587 1108.7 487.046 Q1106.89 483.481 1103.26 483.481 M1103.26 479.777 Q1109.07 479.777 1112.12 484.384 Q1115.2 488.967 1115.2 497.717 Q1115.2 506.444 1112.12 511.05 Q1109.07 515.634 1103.26 515.634 Q1097.45 515.634 1094.37 511.05 Q1091.31 506.444 1091.31 497.717 Q1091.31 488.967 1094.37 484.384 Q1097.45 479.777 1103.26 479.777 Z" fill="#000000" fill-rule="nonzero" fill-opacity="1" /><path clip-path="url(#clip820)" d="M1844.6 511.027 L1852.24 511.027 L1852.24 484.662 L1843.93 486.328 L1843.93 482.069 L1852.19 480.402 L1856.87 480.402 L1856.87 511.027 L1864.51 511.027 L1864.51 514.962 L1844.6 514.962 L1844.6 511.027 Z" fill="#000000" fill-rule="nonzero" fill-opacity="1" /><path clip-path="url(#clip820)" d="M1883.95 483.481 Q1880.34 483.481 1878.51 487.046 Q1876.71 490.587 1876.71 497.717 Q1876.71 504.823 1878.51 508.388 Q1880.34 511.93 1883.95 511.93 Q1887.59 511.93 1889.39 508.388 Q1891.22 504.823 1891.22 497.717 Q1891.22 490.587 1889.39 487.046 Q1887.59 483.481 1883.95 483.481 M1883.95 479.777 Q1889.76 479.777 1892.82 484.384 Q1895.9 488.967 1895.9 497.717 Q1895.9 506.444 1892.82 511.05 Q1889.76 515.634 1883.95 515.634 Q1878.14 515.634 1875.06 511.05 Q1872.01 506.444 1872.01 497.717 Q1872.01 488.967 1875.06 484.384 Q1878.14 479.777 1883.95 479.777 Z" fill="#000000" fill-rule="nonzero" fill-opacity="1" /><path clip-path="url(#clip820)" d="M1914.11 483.481 Q1910.5 483.481 1908.67 487.046 Q1906.87 490.587 1906.87 497.717 Q1906.87 504.823 1908.67 508.388 Q1910.5 511.93 1914.11 511.93 Q1917.75 511.93 1919.55 508.388 Q1921.38 504.823 1921.38 497.717 Q1921.38 490.587 1919.55 487.046 Q1917.75 483.481 1914.11 483.481 M1914.11 479.777 Q1919.92 479.777 1922.98 484.384 Q1926.06 488.967 1926.06 497.717 Q1926.06 506.444 1922.98 511.05 Q1919.92 515.634 1914.11 515.634 Q1908.3 515.634 1905.22 511.05 Q1902.17 506.444 1902.17 497.717 Q1902.17 488.967 1905.22 484.384 Q1908.3 479.777 1914.11 479.777 Z" fill="#000000" fill-rule="nonzero" fill-opacity="1" /><path clip-path="url(#clip820)" d="M2641.15 511.027 L2648.79 511.027 L2648.79 484.662 L2640.48 486.328 L2640.48 482.069 L2648.74 480.402 L2653.42 480.402 L2653.42 511.027 L2661.06 511.027 L2661.06 514.962 L2641.15 514.962 L2641.15 511.027 Z" fill="#000000" fill-rule="nonzero" fill-opacity="1" /><path clip-path="url(#clip820)" d="M2670.55 480.402 L2688.91 480.402 L2688.91 484.337 L2674.83 484.337 L2674.83 492.81 Q2675.85 492.462 2676.87 492.3 Q2677.89 492.115 2678.91 492.115 Q2684.69 492.115 2688.07 495.286 Q2691.45 498.458 2691.45 503.874 Q2691.45 509.453 2687.98 512.555 Q2684.51 515.634 2678.19 515.634 Q2676.01 515.634 2673.74 515.263 Q2671.5 514.893 2669.09 514.152 L2669.09 509.453 Q2671.17 510.587 2673.4 511.143 Q2675.62 511.698 2678.1 511.698 Q2682.1 511.698 2684.44 509.592 Q2686.78 507.485 2686.78 503.874 Q2686.78 500.263 2684.44 498.157 Q2682.1 496.05 2678.1 496.05 Q2676.22 496.05 2674.35 496.467 Q2672.49 496.884 2670.55 497.763 L2670.55 480.402 Z" fill="#000000" fill-rule="nonzero" fill-opacity="1" /><path clip-path="url(#clip820)" d="M2710.66 483.481 Q2707.05 483.481 2705.22 487.046 Q2703.42 490.587 2703.42 497.717 Q2703.42 504.823 2705.22 508.388 Q2707.05 511.93 2710.66 511.93 Q2714.3 511.93 2716.1 508.388 Q2717.93 504.823 2717.93 497.717 Q2717.93 490.587 2716.1 487.046 Q2714.3 483.481 2710.66 483.481 M2710.66 479.777 Q2716.47 479.777 2719.53 484.384 Q2722.61 488.967 2722.61 497.717 Q2722.61 506.444 2719.53 511.05 Q2716.47 515.634 2710.66 515.634 Q2704.85 515.634 2701.78 511.05 Q2698.72 506.444 2698.72 497.717 Q2698.72 488.967 2701.78 484.384 Q2704.85 479.777 2710.66 479.777 Z" fill="#000000" fill-rule="nonzero" fill-opacity="1" /><polyline clip-path="url(#clip820)" style="stroke:#000000; stroke-linecap:round; stroke-linejoin:round; stroke-width:4; stroke-opacity:1; fill:none" points="236.61,449.362 236.61,140.752 "/>
<polyline clip-path="url(#clip820)" style="stroke:#000000; stroke-linecap:round; stroke-linejoin:round; stroke-width:4; stroke-opacity:1; fill:none" points="236.61,425.029 255.508,425.029 "/>
<polyline clip-path="url(#clip820)" style="stroke:#000000; stroke-linecap:round; stroke-linejoin:round; stroke-width:4; stroke-opacity:1; fill:none" points="236.61,372.723 255.508,372.723 "/>
<polyline clip-path="url(#clip820)" style="stroke:#000000; stroke-linecap:round; stroke-linejoin:round; stroke-width:4; stroke-opacity:1; fill:none" points="236.61,320.417 255.508,320.417 "/>
<polyline clip-path="url(#clip820)" style="stroke:#000000; stroke-linecap:round; stroke-linejoin:round; stroke-width:4; stroke-opacity:1; fill:none" points="236.61,268.112 255.508,268.112 "/>
<polyline clip-path="url(#clip820)" style="stroke:#000000; stroke-linecap:round; stroke-linejoin:round; stroke-width:4; stroke-opacity:1; fill:none" points="236.61,215.806 255.508,215.806 "/>
<polyline clip-path="url(#clip820)" style="stroke:#000000; stroke-linecap:round; stroke-linejoin:round; stroke-width:4; stroke-opacity:1; fill:none" points="236.61,163.5 255.508,163.5 "/>
<path clip-path="url(#clip820)" d="M182.666 410.828 Q179.055 410.828 177.226 414.393 Q175.42 417.935 175.42 425.064 Q175.42 432.171 177.226 435.735 Q179.055 439.277 182.666 439.277 Q186.3 439.277 188.105 435.735 Q189.934 432.171 189.934 425.064 Q189.934 417.935 188.105 414.393 Q186.3 410.828 182.666 410.828 M182.666 407.124 Q188.476 407.124 191.531 411.731 Q194.61 416.314 194.61 425.064 Q194.61 433.791 191.531 438.397 Q188.476 442.981 182.666 442.981 Q176.856 442.981 173.777 438.397 Q170.721 433.791 170.721 425.064 Q170.721 416.314 173.777 411.731 Q176.856 407.124 182.666 407.124 Z" fill="#000000" fill-rule="nonzero" fill-opacity="1" /><path clip-path="url(#clip820)" d="M174.703 386.068 L182.342 386.068 L182.342 359.703 L174.031 361.369 L174.031 357.11 L182.295 355.443 L186.971 355.443 L186.971 386.068 L194.61 386.068 L194.61 390.003 L174.703 390.003 L174.703 386.068 Z" fill="#000000" fill-rule="nonzero" fill-opacity="1" /><path clip-path="url(#clip820)" d="M178.291 333.762 L194.61 333.762 L194.61 337.697 L172.666 337.697 L172.666 333.762 Q175.328 331.008 179.911 326.378 Q184.518 321.725 185.698 320.383 Q187.943 317.86 188.823 316.124 Q189.726 314.364 189.726 312.674 Q189.726 309.92 187.781 308.184 Q185.86 306.448 182.758 306.448 Q180.559 306.448 178.106 307.212 Q175.675 307.975 172.897 309.526 L172.897 304.804 Q175.721 303.67 178.175 303.091 Q180.629 302.512 182.666 302.512 Q188.036 302.512 191.23 305.198 Q194.425 307.883 194.425 312.374 Q194.425 314.503 193.615 316.424 Q192.828 318.323 190.721 320.915 Q190.143 321.586 187.041 324.804 Q183.939 327.998 178.291 333.762 Z" fill="#000000" fill-rule="nonzero" fill-opacity="1" /><path clip-path="url(#clip820)" d="M187.48 266.757 Q190.837 267.475 192.712 269.743 Q194.61 272.012 194.61 275.345 Q194.61 280.461 191.092 283.262 Q187.573 286.063 181.092 286.063 Q178.916 286.063 176.601 285.623 Q174.309 285.206 171.856 284.35 L171.856 279.836 Q173.8 280.97 176.115 281.549 Q178.43 282.128 180.953 282.128 Q185.351 282.128 187.643 280.392 Q189.957 278.655 189.957 275.345 Q189.957 272.29 187.805 270.577 Q185.675 268.841 181.856 268.841 L177.828 268.841 L177.828 264.998 L182.041 264.998 Q185.49 264.998 187.318 263.632 Q189.147 262.243 189.147 259.651 Q189.147 256.989 187.249 255.577 Q185.374 254.142 181.856 254.142 Q179.934 254.142 177.735 254.558 Q175.536 254.975 172.897 255.855 L172.897 251.688 Q175.559 250.947 177.874 250.577 Q180.212 250.207 182.272 250.207 Q187.596 250.207 190.698 252.637 Q193.8 255.044 193.8 259.165 Q193.8 262.035 192.156 264.026 Q190.513 265.993 187.48 266.757 Z" fill="#000000" fill-rule="nonzero" fill-opacity="1" /><path clip-path="url(#clip820)" d="M185.027 202.6 L173.221 221.049 L185.027 221.049 L185.027 202.6 M183.8 198.526 L189.68 198.526 L189.68 221.049 L194.61 221.049 L194.61 224.937 L189.68 224.937 L189.68 233.086 L185.027 233.086 L185.027 224.937 L169.425 224.937 L169.425 220.424 L183.8 198.526 Z" fill="#000000" fill-rule="nonzero" fill-opacity="1" /><path clip-path="url(#clip820)" d="M173.707 146.22 L192.064 146.22 L192.064 150.155 L177.99 150.155 L177.99 158.627 Q179.008 158.28 180.027 158.118 Q181.045 157.933 182.064 157.933 Q187.851 157.933 191.23 161.104 Q194.61 164.275 194.61 169.692 Q194.61 175.27 191.138 178.372 Q187.666 181.451 181.346 181.451 Q179.17 181.451 176.902 181.081 Q174.656 180.71 172.249 179.969 L172.249 175.27 Q174.332 176.405 176.555 176.96 Q178.777 177.516 181.254 177.516 Q185.258 177.516 187.596 175.409 Q189.934 173.303 189.934 169.692 Q189.934 166.081 187.596 163.974 Q185.258 161.868 181.254 161.868 Q179.379 161.868 177.504 162.284 Q175.652 162.701 173.707 163.581 L173.707 146.22 Z" fill="#000000" fill-rule="nonzero" fill-opacity="1" /><path clip-path="url(#clip820)" d="M113.169 364.427 L65.649 382.57 L65.649 375.854 L105.657 360.799 L65.649 345.712 L65.649 339.028 L113.169 357.139 L113.169 364.427 Z" fill="#000000" fill-rule="nonzero" fill-opacity="1" /><path clip-path="url(#clip820)" d="M95.2496 321.204 Q95.2496 328.302 96.8728 331.039 Q98.4961 333.777 102.411 333.777 Q105.53 333.777 107.376 331.74 Q109.19 329.671 109.19 326.138 Q109.19 321.268 105.753 318.34 Q102.284 315.38 96.5545 315.38 L95.2496 315.38 L95.2496 321.204 M92.8306 309.523 L113.169 309.523 L113.169 315.38 L107.758 315.38 Q111.005 317.385 112.564 320.377 Q114.092 323.369 114.092 327.697 Q114.092 333.172 111.037 336.418 Q107.949 339.633 102.793 339.633 Q96.7773 339.633 93.7218 335.623 Q90.6663 331.58 90.6663 323.591 L90.6663 315.38 L90.0933 315.38 Q86.0511 315.38 83.855 318.053 Q81.627 320.695 81.627 325.501 Q81.627 328.557 82.359 331.453 Q83.0911 334.35 84.5552 337.023 L79.1443 337.023 Q77.903 333.808 77.2983 330.785 Q76.6617 327.761 76.6617 324.896 Q76.6617 317.162 80.6721 313.343 Q84.6825 309.523 92.8306 309.523 Z" fill="#000000" fill-rule="nonzero" fill-opacity="1" /><path clip-path="url(#clip820)" d="M63.6438 297.46 L63.6438 291.604 L113.169 291.604 L113.169 297.46 L63.6438 297.46 Z" fill="#000000" fill-rule="nonzero" fill-opacity="1" /><path clip-path="url(#clip820)" d="M99.1008 279.955 L77.5211 279.955 L77.5211 274.098 L98.878 274.098 Q103.939 274.098 106.485 272.125 Q108.999 270.151 108.999 266.205 Q108.999 261.462 105.976 258.725 Q102.952 255.956 97.7322 255.956 L77.5211 255.956 L77.5211 250.099 L113.169 250.099 L113.169 255.956 L107.695 255.956 Q110.941 258.088 112.532 260.921 Q114.092 263.722 114.092 267.446 Q114.092 273.589 110.273 276.772 Q106.453 279.955 99.1008 279.955 M76.6617 265.218 L76.6617 265.218 Z" fill="#000000" fill-rule="nonzero" fill-opacity="1" /><path clip-path="url(#clip820)" d="M93.8809 207.545 L96.7455 207.545 L96.7455 234.472 Q102.793 234.09 105.976 230.843 Q109.127 227.565 109.127 221.74 Q109.127 218.366 108.299 215.215 Q107.472 212.032 105.817 208.913 L111.355 208.913 Q112.692 212.064 113.392 215.374 Q114.092 218.685 114.092 222.09 Q114.092 230.62 109.127 235.617 Q104.162 240.583 95.6952 240.583 Q86.9423 240.583 81.8179 235.872 Q76.6617 231.13 76.6617 223.109 Q76.6617 215.916 81.3087 211.746 Q85.9238 207.545 93.8809 207.545 M92.1622 213.401 Q87.3561 213.465 84.4915 216.107 Q81.627 218.716 81.627 223.045 Q81.627 227.947 84.396 230.907 Q87.1651 233.835 92.194 234.281 L92.1622 213.401 Z" fill="#000000" fill-rule="nonzero" fill-opacity="1" /><path clip-path="url(#clip820)" d="M1448.54 49.3643 Q1448.54 41.2625 1445.18 36.8065 Q1441.86 32.3505 1435.82 32.3505 Q1429.83 32.3505 1426.47 36.8065 Q1423.14 41.2625 1423.14 49.3643 Q1423.14 57.4256 1426.47 61.8816 Q1429.83 66.3376 1435.82 66.3376 Q1441.86 66.3376 1445.18 61.8816 Q1448.54 57.4256 1448.54 49.3643 M1456 66.9452 Q1456 78.5308 1450.85 84.1616 Q1445.71 89.8329 1435.09 89.8329 Q1431.16 89.8329 1427.68 89.2252 Q1424.2 88.6581 1420.92 87.4428 L1420.92 80.1917 Q1424.2 81.9741 1427.4 82.8248 Q1430.6 83.6755 1433.92 83.6755 Q1441.25 83.6755 1444.9 79.8271 Q1448.54 76.0193 1448.54 68.282 L1448.54 64.5957 Q1446.23 68.6061 1442.63 70.5911 Q1439.02 72.576 1434 72.576 Q1425.66 72.576 1420.55 66.2161 Q1415.45 59.8562 1415.45 49.3643 Q1415.45 38.832 1420.55 32.472 Q1425.66 26.1121 1434 26.1121 Q1439.02 26.1121 1442.63 28.0971 Q1446.23 30.082 1448.54 34.0924 L1448.54 27.2059 L1456 27.2059 L1456 66.9452 Z" fill="#000000" fill-rule="nonzero" fill-opacity="1" /><path clip-path="url(#clip820)" d="M1470.66 9.54393 L1487.84 9.54393 L1487.84 15.3367 L1478.11 15.3367 L1478.11 77.7206 L1487.84 77.7206 L1487.84 83.5134 L1470.66 83.5134 L1470.66 9.54393 Z" fill="#000000" fill-rule="nonzero" fill-opacity="1" /><path clip-path="url(#clip820)" d="M1506.19 65.6895 L1519.56 65.6895 L1519.56 19.5497 L1505.01 22.4663 L1505.01 15.0127 L1519.47 12.096 L1527.66 12.096 L1527.66 65.6895 L1541.03 65.6895 L1541.03 72.576 L1506.19 72.576 L1506.19 65.6895 Z" fill="#000000" fill-rule="nonzero" fill-opacity="1" /><path clip-path="url(#clip820)" d="M1573.92 9.54393 L1573.92 83.5134 L1556.74 83.5134 L1556.74 77.7206 L1566.42 77.7206 L1566.42 15.3367 L1556.74 15.3367 L1556.74 9.54393 L1573.92 9.54393 Z" fill="#000000" fill-rule="nonzero" fill-opacity="1" /><polyline clip-path="url(#clip822)" style="stroke:#ff8c00; stroke-linecap:round; stroke-linejoin:round; stroke-width:4; stroke-opacity:0.7; fill:none" points="307.822,385.696 323.753,367.083 339.684,379.849 355.615,386.871 371.546,380.96 387.477,382.861 403.408,378.932 419.339,378.534 435.27,362.97 451.201,354.858 467.132,293.081 483.063,295.398 498.994,283.693 514.925,292.445 530.856,283.01 546.787,288.42 562.718,336.538 578.649,335.938 594.58,337.134 610.511,397.264 626.442,422.912 642.373,428.621 658.304,415.479 674.235,419.008 690.166,424.545 706.097,418.929 722.028,433.381 737.959,419.197 753.89,416.072 769.821,433.36 785.752,274.633 801.683,291.015 817.615,282.429 833.546,216.372 849.477,222.701 865.408,221.54 881.339,244.591 897.27,232.629 913.201,362.697 929.132,339.625 945.063,340.1 960.994,341.299 976.925,344.356 992.856,343.487 1008.79,351.022 1024.72,331.272 1040.65,329.607 1056.58,316.399 1072.51,366.511 1088.44,369.004 1104.37,368.99 1120.3,373.498 1136.23,430.659 1152.17,424.575 1168.1,422.481 1184.03,408.297 1199.96,377.983 1215.89,380.592 1231.82,337.248 1247.75,325.148 1263.68,332.027 1279.61,334.106 1295.55,325.213 1311.48,335.207 1327.41,348.978 1343.34,422.046 1359.27,425.686 1375.2,373.73 1391.13,401.454 1407.06,397.261 1422.99,397.164 1438.92,411.106 1454.86,408.464 1470.79,410.344 1486.72,415.677 1502.65,404.658 1518.58,411.562 1534.51,421.458 1550.44,440.628 1566.37,435.121 1582.3,432.176 1598.23,424.363 1614.17,411.531 1630.1,392.53 1646.03,393.435 1661.96,401.123 1677.89,400.112 1693.82,394.358 1709.75,405.387 1725.68,404.602 1741.61,373.57 1757.54,374.799 1773.48,373.897 1789.41,377.99 1805.34,395.018 1821.27,399.699 1837.2,391.223 1853.13,432.526 1869.06,350.165 1884.99,351.012 1900.92,344.013 1916.86,346.867 1932.79,382.072 1948.72,380.751 1964.65,379.827 1980.58,408.078 1996.51,408.55 2012.44,412.253 2028.37,413.775 2044.3,417.056 2060.23,369.576 2076.17,399.612 2092.1,400.634 2108.03,434.529 2123.96,404.811 2139.89,407.028 2155.82,341.69 2171.75,340.915 2187.68,339.65 2203.61,313.567 2219.54,320.267 2235.48,324.512 2251.41,320.402 2267.34,319.508 2283.27,316.332 2299.2,318.329 2315.13,299.156 2331.06,317.521 2346.99,313.56 2362.92,312.983 2378.85,312.025 2394.79,159.475 2410.72,218.198 2426.65,201.431 2442.58,186.562 2458.51,191.494 2474.44,179.318 2490.37,175.283 2506.3,188.661 2522.23,149.486 2538.17,164.781 2554.1,170.607 2570.03,177.014 2585.96,176.699 2601.89,182.916 2617.82,177.559 2633.75,182.395 2649.68,183.955 2665.61,196.559 2681.54,200.763 "/>
<path clip-path="url(#clip820)" d="M236.61 1030.15 L2752.76 1030.15 L2752.76 721.541 L236.61 721.541  Z" fill="#ffffff" fill-rule="evenodd" fill-opacity="1"/>
<defs>
  <clipPath id="clip823">
    <rect x="236" y="721" width="2517" height="310"/>
  </clipPath>
</defs>
<polyline clip-path="url(#clip823)" style="stroke:#000000; stroke-linecap:round; stroke-linejoin:round; stroke-width:2; stroke-opacity:0.1; fill:none" points="291.891,1030.15 291.891,721.541 "/>
<polyline clip-path="url(#clip823)" style="stroke:#000000; stroke-linecap:round; stroke-linejoin:round; stroke-width:2; stroke-opacity:0.1; fill:none" points="1088.44,1030.15 1088.44,721.541 "/>
<polyline clip-path="url(#clip823)" style="stroke:#000000; stroke-linecap:round; stroke-linejoin:round; stroke-width:2; stroke-opacity:0.1; fill:none" points="1884.99,1030.15 1884.99,721.541 "/>
<polyline clip-path="url(#clip823)" style="stroke:#000000; stroke-linecap:round; stroke-linejoin:round; stroke-width:2; stroke-opacity:0.1; fill:none" points="2681.54,1030.15 2681.54,721.541 "/>
<polyline clip-path="url(#clip823)" style="stroke:#000000; stroke-linecap:round; stroke-linejoin:round; stroke-width:2; stroke-opacity:0.1; fill:none" points="236.61,1020.05 2752.76,1020.05 "/>
<polyline clip-path="url(#clip823)" style="stroke:#000000; stroke-linecap:round; stroke-linejoin:round; stroke-width:2; stroke-opacity:0.1; fill:none" points="236.61,955.203 2752.76,955.203 "/>
<polyline clip-path="url(#clip823)" style="stroke:#000000; stroke-linecap:round; stroke-linejoin:round; stroke-width:2; stroke-opacity:0.1; fill:none" points="236.61,890.353 2752.76,890.353 "/>
<polyline clip-path="url(#clip823)" style="stroke:#000000; stroke-linecap:round; stroke-linejoin:round; stroke-width:2; stroke-opacity:0.1; fill:none" points="236.61,825.504 2752.76,825.504 "/>
<polyline clip-path="url(#clip823)" style="stroke:#000000; stroke-linecap:round; stroke-linejoin:round; stroke-width:2; stroke-opacity:0.1; fill:none" points="236.61,760.654 2752.76,760.654 "/>
<polyline clip-path="url(#clip820)" style="stroke:#000000; stroke-linecap:round; stroke-linejoin:round; stroke-width:4; stroke-opacity:1; fill:none" points="236.61,1030.15 2752.76,1030.15 "/>
<polyline clip-path="url(#clip820)" style="stroke:#000000; stroke-linecap:round; stroke-linejoin:round; stroke-width:4; stroke-opacity:1; fill:none" points="291.891,1030.15 291.891,1011.25 "/>
<polyline clip-path="url(#clip820)" style="stroke:#000000; stroke-linecap:round; stroke-linejoin:round; stroke-width:4; stroke-opacity:1; fill:none" points="1088.44,1030.15 1088.44,1011.25 "/>
<polyline clip-path="url(#clip820)" style="stroke:#000000; stroke-linecap:round; stroke-linejoin:round; stroke-width:4; stroke-opacity:1; fill:none" points="1884.99,1030.15 1884.99,1011.25 "/>
<polyline clip-path="url(#clip820)" style="stroke:#000000; stroke-linecap:round; stroke-linejoin:round; stroke-width:4; stroke-opacity:1; fill:none" points="2681.54,1030.15 2681.54,1011.25 "/>
<path clip-path="url(#clip820)" d="M291.891 1064.27 Q288.28 1064.27 286.451 1067.83 Q284.645 1071.38 284.645 1078.51 Q284.645 1085.61 286.451 1089.18 Q288.28 1092.72 291.891 1092.72 Q295.525 1092.72 297.331 1089.18 Q299.159 1085.61 299.159 1078.51 Q299.159 1071.38 297.331 1067.83 Q295.525 1064.27 291.891 1064.27 M291.891 1060.57 Q297.701 1060.57 300.756 1065.17 Q303.835 1069.76 303.835 1078.51 Q303.835 1087.23 300.756 1091.84 Q297.701 1096.42 291.891 1096.42 Q286.081 1096.42 283.002 1091.84 Q279.946 1087.23 279.946 1078.51 Q279.946 1069.76 283.002 1065.17 Q286.081 1060.57 291.891 1060.57 Z" fill="#000000" fill-rule="nonzero" fill-opacity="1" /><path clip-path="url(#clip820)" d="M1063.14 1061.19 L1081.5 1061.19 L1081.5 1065.13 L1067.42 1065.13 L1067.42 1073.6 Q1068.44 1073.25 1069.46 1073.09 Q1070.48 1072.9 1071.5 1072.9 Q1077.28 1072.9 1080.66 1076.08 Q1084.04 1079.25 1084.04 1084.66 Q1084.04 1090.24 1080.57 1093.34 Q1077.1 1096.42 1070.78 1096.42 Q1068.6 1096.42 1066.34 1096.05 Q1064.09 1095.68 1061.68 1094.94 L1061.68 1090.24 Q1063.77 1091.38 1065.99 1091.93 Q1068.21 1092.49 1070.69 1092.49 Q1074.69 1092.49 1077.03 1090.38 Q1079.37 1088.27 1079.37 1084.66 Q1079.37 1081.05 1077.03 1078.95 Q1074.69 1076.84 1070.69 1076.84 Q1068.81 1076.84 1066.94 1077.26 Q1065.09 1077.67 1063.14 1078.55 L1063.14 1061.19 Z" fill="#000000" fill-rule="nonzero" fill-opacity="1" /><path clip-path="url(#clip820)" d="M1103.26 1064.27 Q1099.65 1064.27 1097.82 1067.83 Q1096.01 1071.38 1096.01 1078.51 Q1096.01 1085.61 1097.82 1089.18 Q1099.65 1092.72 1103.26 1092.72 Q1106.89 1092.72 1108.7 1089.18 Q1110.53 1085.61 1110.53 1078.51 Q1110.53 1071.38 1108.7 1067.83 Q1106.89 1064.27 1103.26 1064.27 M1103.26 1060.57 Q1109.07 1060.57 1112.12 1065.17 Q1115.2 1069.76 1115.2 1078.51 Q1115.2 1087.23 1112.12 1091.84 Q1109.07 1096.42 1103.26 1096.42 Q1097.45 1096.42 1094.37 1091.84 Q1091.31 1087.23 1091.31 1078.51 Q1091.31 1069.76 1094.37 1065.17 Q1097.45 1060.57 1103.26 1060.57 Z" fill="#000000" fill-rule="nonzero" fill-opacity="1" /><path clip-path="url(#clip820)" d="M1844.6 1091.82 L1852.24 1091.82 L1852.24 1065.45 L1843.93 1067.12 L1843.93 1062.86 L1852.19 1061.19 L1856.87 1061.19 L1856.87 1091.82 L1864.51 1091.82 L1864.51 1095.75 L1844.6 1095.75 L1844.6 1091.82 Z" fill="#000000" fill-rule="nonzero" fill-opacity="1" /><path clip-path="url(#clip820)" d="M1883.95 1064.27 Q1880.34 1064.27 1878.51 1067.83 Q1876.71 1071.38 1876.71 1078.51 Q1876.71 1085.61 1878.51 1089.18 Q1880.34 1092.72 1883.95 1092.72 Q1887.59 1092.72 1889.39 1089.18 Q1891.22 1085.61 1891.22 1078.51 Q1891.22 1071.38 1889.39 1067.83 Q1887.59 1064.27 1883.95 1064.27 M1883.95 1060.57 Q1889.76 1060.57 1892.82 1065.17 Q1895.9 1069.76 1895.9 1078.51 Q1895.9 1087.23 1892.82 1091.84 Q1889.76 1096.42 1883.95 1096.42 Q1878.14 1096.42 1875.06 1091.84 Q1872.01 1087.23 1872.01 1078.51 Q1872.01 1069.76 1875.06 1065.17 Q1878.14 1060.57 1883.95 1060.57 Z" fill="#000000" fill-rule="nonzero" fill-opacity="1" /><path clip-path="url(#clip820)" d="M1914.11 1064.27 Q1910.5 1064.27 1908.67 1067.83 Q1906.87 1071.38 1906.87 1078.51 Q1906.87 1085.61 1908.67 1089.18 Q1910.5 1092.72 1914.11 1092.72 Q1917.75 1092.72 1919.55 1089.18 Q1921.38 1085.61 1921.38 1078.51 Q1921.38 1071.38 1919.55 1067.83 Q1917.75 1064.27 1914.11 1064.27 M1914.11 1060.57 Q1919.92 1060.57 1922.98 1065.17 Q1926.06 1069.76 1926.06 1078.51 Q1926.06 1087.23 1922.98 1091.84 Q1919.92 1096.42 1914.11 1096.42 Q1908.3 1096.42 1905.22 1091.84 Q1902.17 1087.23 1902.17 1078.51 Q1902.17 1069.76 1905.22 1065.17 Q1908.3 1060.57 1914.11 1060.57 Z" fill="#000000" fill-rule="nonzero" fill-opacity="1" /><path clip-path="url(#clip820)" d="M2641.15 1091.82 L2648.79 1091.82 L2648.79 1065.45 L2640.48 1067.12 L2640.48 1062.86 L2648.74 1061.19 L2653.42 1061.19 L2653.42 1091.82 L2661.06 1091.82 L2661.06 1095.75 L2641.15 1095.75 L2641.15 1091.82 Z" fill="#000000" fill-rule="nonzero" fill-opacity="1" /><path clip-path="url(#clip820)" d="M2670.55 1061.19 L2688.91 1061.19 L2688.91 1065.13 L2674.83 1065.13 L2674.83 1073.6 Q2675.85 1073.25 2676.87 1073.09 Q2677.89 1072.9 2678.91 1072.9 Q2684.69 1072.9 2688.07 1076.08 Q2691.45 1079.25 2691.45 1084.66 Q2691.45 1090.24 2687.98 1093.34 Q2684.51 1096.42 2678.19 1096.42 Q2676.01 1096.42 2673.74 1096.05 Q2671.5 1095.68 2669.09 1094.94 L2669.09 1090.24 Q2671.17 1091.38 2673.4 1091.93 Q2675.62 1092.49 2678.1 1092.49 Q2682.1 1092.49 2684.44 1090.38 Q2686.78 1088.27 2686.78 1084.66 Q2686.78 1081.05 2684.44 1078.95 Q2682.1 1076.84 2678.1 1076.84 Q2676.22 1076.84 2674.35 1077.26 Q2672.49 1077.67 2670.55 1078.55 L2670.55 1061.19 Z" fill="#000000" fill-rule="nonzero" fill-opacity="1" /><path clip-path="url(#clip820)" d="M2710.66 1064.27 Q2707.05 1064.27 2705.22 1067.83 Q2703.42 1071.38 2703.42 1078.51 Q2703.42 1085.61 2705.22 1089.18 Q2707.05 1092.72 2710.66 1092.72 Q2714.3 1092.72 2716.1 1089.18 Q2717.93 1085.61 2717.93 1078.51 Q2717.93 1071.38 2716.1 1067.83 Q2714.3 1064.27 2710.66 1064.27 M2710.66 1060.57 Q2716.47 1060.57 2719.53 1065.17 Q2722.61 1069.76 2722.61 1078.51 Q2722.61 1087.23 2719.53 1091.84 Q2716.47 1096.42 2710.66 1096.42 Q2704.85 1096.42 2701.78 1091.84 Q2698.72 1087.23 2698.72 1078.51 Q2698.72 1069.76 2701.78 1065.17 Q2704.85 1060.57 2710.66 1060.57 Z" fill="#000000" fill-rule="nonzero" fill-opacity="1" /><polyline clip-path="url(#clip820)" style="stroke:#000000; stroke-linecap:round; stroke-linejoin:round; stroke-width:4; stroke-opacity:1; fill:none" points="236.61,1030.15 236.61,721.541 "/>
<polyline clip-path="url(#clip820)" style="stroke:#000000; stroke-linecap:round; stroke-linejoin:round; stroke-width:4; stroke-opacity:1; fill:none" points="236.61,1020.05 255.508,1020.05 "/>
<polyline clip-path="url(#clip820)" style="stroke:#000000; stroke-linecap:round; stroke-linejoin:round; stroke-width:4; stroke-opacity:1; fill:none" points="236.61,955.203 255.508,955.203 "/>
<polyline clip-path="url(#clip820)" style="stroke:#000000; stroke-linecap:round; stroke-linejoin:round; stroke-width:4; stroke-opacity:1; fill:none" points="236.61,890.353 255.508,890.353 "/>
<polyline clip-path="url(#clip820)" style="stroke:#000000; stroke-linecap:round; stroke-linejoin:round; stroke-width:4; stroke-opacity:1; fill:none" points="236.61,825.504 255.508,825.504 "/>
<polyline clip-path="url(#clip820)" style="stroke:#000000; stroke-linecap:round; stroke-linejoin:round; stroke-width:4; stroke-opacity:1; fill:none" points="236.61,760.654 255.508,760.654 "/>
<path clip-path="url(#clip820)" d="M182.666 1005.85 Q179.055 1005.85 177.226 1009.42 Q175.42 1012.96 175.42 1020.09 Q175.42 1027.19 177.226 1030.76 Q179.055 1034.3 182.666 1034.3 Q186.3 1034.3 188.105 1030.76 Q189.934 1027.19 189.934 1020.09 Q189.934 1012.96 188.105 1009.42 Q186.3 1005.85 182.666 1005.85 M182.666 1002.15 Q188.476 1002.15 191.531 1006.75 Q194.61 1011.34 194.61 1020.09 Q194.61 1028.81 191.531 1033.42 Q188.476 1038 182.666 1038 Q176.856 1038 173.777 1033.42 Q170.721 1028.81 170.721 1020.09 Q170.721 1011.34 173.777 1006.75 Q176.856 1002.15 182.666 1002.15 Z" fill="#000000" fill-rule="nonzero" fill-opacity="1" /><path clip-path="url(#clip820)" d="M174.703 968.547 L182.342 968.547 L182.342 942.182 L174.031 943.848 L174.031 939.589 L182.295 937.923 L186.971 937.923 L186.971 968.547 L194.61 968.547 L194.61 972.483 L174.703 972.483 L174.703 968.547 Z" fill="#000000" fill-rule="nonzero" fill-opacity="1" /><path clip-path="url(#clip820)" d="M178.291 903.698 L194.61 903.698 L194.61 907.633 L172.666 907.633 L172.666 903.698 Q175.328 900.943 179.911 896.314 Q184.518 891.661 185.698 890.318 Q187.943 887.795 188.823 886.059 Q189.726 884.3 189.726 882.61 Q189.726 879.855 187.781 878.119 Q185.86 876.383 182.758 876.383 Q180.559 876.383 178.106 877.147 Q175.675 877.911 172.897 879.462 L172.897 874.74 Q175.721 873.605 178.175 873.027 Q180.629 872.448 182.666 872.448 Q188.036 872.448 191.23 875.133 Q194.425 877.818 194.425 882.309 Q194.425 884.439 193.615 886.36 Q192.828 888.258 190.721 890.851 Q190.143 891.522 187.041 894.74 Q183.939 897.934 178.291 903.698 Z" fill="#000000" fill-rule="nonzero" fill-opacity="1" /><path clip-path="url(#clip820)" d="M187.48 824.149 Q190.837 824.867 192.712 827.135 Q194.61 829.404 194.61 832.737 Q194.61 837.853 191.092 840.654 Q187.573 843.455 181.092 843.455 Q178.916 843.455 176.601 843.015 Q174.309 842.598 171.856 841.742 L171.856 837.228 Q173.8 838.362 176.115 838.941 Q178.43 839.52 180.953 839.52 Q185.351 839.52 187.643 837.784 Q189.957 836.047 189.957 832.737 Q189.957 829.682 187.805 827.969 Q185.675 826.233 181.856 826.233 L177.828 826.233 L177.828 822.39 L182.041 822.39 Q185.49 822.39 187.318 821.024 Q189.147 819.635 189.147 817.043 Q189.147 814.381 187.249 812.969 Q185.374 811.534 181.856 811.534 Q179.934 811.534 177.735 811.95 Q175.536 812.367 172.897 813.247 L172.897 809.08 Q175.559 808.339 177.874 807.969 Q180.212 807.599 182.272 807.599 Q187.596 807.599 190.698 810.029 Q193.8 812.436 193.8 816.557 Q193.8 819.427 192.156 821.418 Q190.513 823.385 187.48 824.149 Z" fill="#000000" fill-rule="nonzero" fill-opacity="1" /><path clip-path="url(#clip820)" d="M185.027 747.448 L173.221 765.897 L185.027 765.897 L185.027 747.448 M183.8 743.374 L189.68 743.374 L189.68 765.897 L194.61 765.897 L194.61 769.786 L189.68 769.786 L189.68 777.934 L185.027 777.934 L185.027 769.786 L169.425 769.786 L169.425 765.272 L183.8 743.374 Z" fill="#000000" fill-rule="nonzero" fill-opacity="1" /><path clip-path="url(#clip820)" d="M113.169 945.216 L65.649 963.358 L65.649 956.643 L105.657 941.588 L65.649 926.501 L65.649 919.817 L113.169 937.927 L113.169 945.216 Z" fill="#000000" fill-rule="nonzero" fill-opacity="1" /><path clip-path="url(#clip820)" d="M95.2496 901.993 Q95.2496 909.091 96.8728 911.828 Q98.4961 914.565 102.411 914.565 Q105.53 914.565 107.376 912.528 Q109.19 910.459 109.19 906.926 Q109.19 902.057 105.753 899.128 Q102.284 896.168 96.5545 896.168 L95.2496 896.168 L95.2496 901.993 M92.8306 890.312 L113.169 890.312 L113.169 896.168 L107.758 896.168 Q111.005 898.174 112.564 901.166 Q114.092 904.157 114.092 908.486 Q114.092 913.961 111.037 917.207 Q107.949 920.422 102.793 920.422 Q96.7773 920.422 93.7218 916.411 Q90.6663 912.369 90.6663 904.38 L90.6663 896.168 L90.0933 896.168 Q86.0511 896.168 83.855 898.842 Q81.627 901.484 81.627 906.29 Q81.627 909.345 82.359 912.242 Q83.0911 915.138 84.5552 917.812 L79.1443 917.812 Q77.903 914.597 77.2983 911.573 Q76.6617 908.55 76.6617 905.685 Q76.6617 897.951 80.6721 894.131 Q84.6825 890.312 92.8306 890.312 Z" fill="#000000" fill-rule="nonzero" fill-opacity="1" /><path clip-path="url(#clip820)" d="M63.6438 878.249 L63.6438 872.393 L113.169 872.393 L113.169 878.249 L63.6438 878.249 Z" fill="#000000" fill-rule="nonzero" fill-opacity="1" /><path clip-path="url(#clip820)" d="M99.1008 860.743 L77.5211 860.743 L77.5211 854.887 L98.878 854.887 Q103.939 854.887 106.485 852.913 Q108.999 850.94 108.999 846.993 Q108.999 842.251 105.976 839.514 Q102.952 836.745 97.7322 836.745 L77.5211 836.745 L77.5211 830.888 L113.169 830.888 L113.169 836.745 L107.695 836.745 Q110.941 838.877 112.532 841.71 Q114.092 844.511 114.092 848.235 Q114.092 854.378 110.273 857.56 Q106.453 860.743 99.1008 860.743 M76.6617 846.007 L76.6617 846.007 Z" fill="#000000" fill-rule="nonzero" fill-opacity="1" /><path clip-path="url(#clip820)" d="M93.8809 788.333 L96.7455 788.333 L96.7455 815.26 Q102.793 814.878 105.976 811.632 Q109.127 808.354 109.127 802.529 Q109.127 799.155 108.299 796.004 Q107.472 792.821 105.817 789.702 L111.355 789.702 Q112.692 792.853 113.392 796.163 Q114.092 799.473 114.092 802.879 Q114.092 811.409 109.127 816.406 Q104.162 821.371 95.6952 821.371 Q86.9423 821.371 81.8179 816.661 Q76.6617 811.918 76.6617 803.898 Q76.6617 796.704 81.3087 792.535 Q85.9238 788.333 93.8809 788.333 M92.1622 794.19 Q87.3561 794.253 84.4915 796.895 Q81.627 799.505 81.627 803.834 Q81.627 808.735 84.396 811.696 Q87.1651 814.624 92.194 815.069 L92.1622 794.19 Z" fill="#000000" fill-rule="nonzero" fill-opacity="1" /><path clip-path="url(#clip820)" d="M1448.54 630.153 Q1448.54 622.051 1445.18 617.595 Q1441.86 613.139 1435.82 613.139 Q1429.83 613.139 1426.47 617.595 Q1423.14 622.051 1423.14 630.153 Q1423.14 638.214 1426.47 642.67 Q1429.83 647.126 1435.82 647.126 Q1441.86 647.126 1445.18 642.67 Q1448.54 638.214 1448.54 630.153 M1456 647.734 Q1456 659.32 1450.85 664.95 Q1445.71 670.622 1435.09 670.622 Q1431.16 670.622 1427.68 670.014 Q1424.2 669.447 1420.92 668.232 L1420.92 660.98 Q1424.2 662.763 1427.4 663.613 Q1430.6 664.464 1433.92 664.464 Q1441.25 664.464 1444.9 660.616 Q1448.54 656.808 1448.54 649.071 L1448.54 645.384 Q1446.23 649.395 1442.63 651.38 Q1439.02 653.365 1434 653.365 Q1425.66 653.365 1420.55 647.005 Q1415.45 640.645 1415.45 630.153 Q1415.45 619.621 1420.55 613.261 Q1425.66 606.901 1434 606.901 Q1439.02 606.901 1442.63 608.886 Q1446.23 610.871 1448.54 614.881 L1448.54 607.995 L1456 607.995 L1456 647.734 Z" fill="#000000" fill-rule="nonzero" fill-opacity="1" /><path clip-path="url(#clip820)" d="M1470.66 590.333 L1487.84 590.333 L1487.84 596.125 L1478.11 596.125 L1478.11 658.509 L1487.84 658.509 L1487.84 664.302 L1470.66 664.302 L1470.66 590.333 Z" fill="#000000" fill-rule="nonzero" fill-opacity="1" /><path clip-path="url(#clip820)" d="M1511.82 646.478 L1540.38 646.478 L1540.38 653.365 L1501.97 653.365 L1501.97 646.478 Q1506.63 641.658 1514.65 633.556 Q1522.72 625.413 1524.78 623.064 Q1528.71 618.648 1530.25 615.61 Q1531.83 612.532 1531.83 609.574 Q1531.83 604.754 1528.43 601.716 Q1525.06 598.677 1519.64 598.677 Q1515.79 598.677 1511.49 600.014 Q1507.24 601.351 1502.38 604.065 L1502.38 595.801 Q1507.32 593.816 1511.62 592.804 Q1515.91 591.791 1519.47 591.791 Q1528.87 591.791 1534.46 596.49 Q1540.05 601.189 1540.05 609.048 Q1540.05 612.775 1538.64 616.137 Q1537.26 619.459 1533.57 623.996 Q1532.56 625.17 1527.13 630.801 Q1521.7 636.391 1511.82 646.478 Z" fill="#000000" fill-rule="nonzero" fill-opacity="1" /><path clip-path="url(#clip820)" d="M1573.92 590.333 L1573.92 664.302 L1556.74 664.302 L1556.74 658.509 L1566.42 658.509 L1566.42 596.125 L1556.74 596.125 L1556.74 590.333 L1573.92 590.333 Z" fill="#000000" fill-rule="nonzero" fill-opacity="1" /><polyline clip-path="url(#clip823)" style="stroke:#ff8c00; stroke-linecap:round; stroke-linejoin:round; stroke-width:4; stroke-opacity:0.7; fill:none" points="307.822,969.623 323.753,964.46 339.684,975.497 355.615,968.022 371.546,969.895 387.477,972.719 403.408,969.595 419.339,962.941 435.27,952.888 451.201,946.66 467.132,877.233 483.063,872.957 498.994,873.419 514.925,877.394 530.856,867.597 546.787,870.449 562.718,919.283 578.649,917.491 594.58,914.839 610.511,983.125 626.442,1012.84 642.373,1016.26 658.304,1006.29 674.235,1015.9 690.166,1012.2 706.097,1010.27 722.028,1016 737.959,1012.06 753.89,1009.04 769.821,1013.58 785.752,854.659 801.683,868.966 817.615,868.088 833.546,794.499 849.477,798.735 865.408,796.894 881.339,825.134 897.27,814.166 913.201,944.322 929.132,924.844 945.063,923.191 960.994,929.564 976.925,929.369 992.856,929.023 1008.79,927.567 1024.72,916.388 1040.65,919.591 1056.58,901.681 1072.51,953.872 1088.44,951.397 1104.37,958.106 1120.3,956.386 1136.23,1014.57 1152.17,1009.3 1168.1,1007.71 1184.03,991.626 1199.96,971.198 1215.89,977.611 1231.82,917.786 1247.75,914.359 1263.68,920.653 1279.61,922.498 1295.55,912.71 1311.48,922.617 1327.41,929.418 1343.34,1010.1 1359.27,1012.93 1375.2,965.277 1391.13,983.595 1407.06,978.041 1422.99,993.197 1438.92,996.109 1454.86,999.212 1470.79,1002.37 1486.72,1001.37 1502.65,1000.69 1518.58,997.86 1534.51,1010.54 1550.44,1017.68 1566.37,1014.02 1582.3,1013.05 1598.23,1009.26 1614.17,998.126 1630.1,983.619 1646.03,976.915 1661.96,991.478 1677.89,982.753 1693.82,986.235 1709.75,988.471 1725.68,989.019 1741.61,957.779 1757.54,960.083 1773.48,967.136 1789.41,961.501 1805.34,985.008 1821.27,989.462 1837.2,981.354 1853.13,1016.49 1869.06,938.157 1884.99,936.503 1900.92,933.547 1916.86,934.37 1932.79,972.618 1948.72,968.131 1964.65,967.758 1980.58,993.948 1996.51,998.141 2012.44,997.658 2028.37,1004.69 2044.3,1001.02 2060.23,958.287 2076.17,990.013 2092.1,988.915 2108.03,1021.42 2123.96,999.027 2139.89,1000.55 2155.82,932.673 2171.75,924.989 2187.68,917.639 2203.61,903.038 2219.54,905.974 2235.48,906.48 2251.41,906.574 2267.34,903.766 2283.27,904.058 2299.2,901.831 2315.13,892.688 2331.06,898.001 2346.99,896.671 2362.92,898.717 2378.85,895.907 2394.79,737.749 2410.72,802.529 2426.65,778.718 2442.58,773.131 2458.51,760.786 2474.44,755.633 2490.37,754.926 2506.3,764.012 2522.23,730.275 2538.17,741.893 2554.1,750.326 2570.03,755.626 2585.96,755.958 2601.89,762.179 2617.82,756.031 2633.75,759.284 2649.68,761.599 2665.61,777.629 2681.54,781.572 "/>
<path clip-path="url(#clip820)" d="M236.61 1610.94 L2752.76 1610.94 L2752.76 1302.33 L236.61 1302.33  Z" fill="#ffffff" fill-rule="evenodd" fill-opacity="1"/>
<defs>
  <clipPath id="clip824">
    <rect x="236" y="1302" width="2517" height="310"/>
  </clipPath>
</defs>
<polyline clip-path="url(#clip824)" style="stroke:#000000; stroke-linecap:round; stroke-linejoin:round; stroke-width:2; stroke-opacity:0.1; fill:none" points="291.891,1610.94 291.891,1302.33 "/>
<polyline clip-path="url(#clip824)" style="stroke:#000000; stroke-linecap:round; stroke-linejoin:round; stroke-width:2; stroke-opacity:0.1; fill:none" points="1088.44,1610.94 1088.44,1302.33 "/>
<polyline clip-path="url(#clip824)" style="stroke:#000000; stroke-linecap:round; stroke-linejoin:round; stroke-width:2; stroke-opacity:0.1; fill:none" points="1884.99,1610.94 1884.99,1302.33 "/>
<polyline clip-path="url(#clip824)" style="stroke:#000000; stroke-linecap:round; stroke-linejoin:round; stroke-width:2; stroke-opacity:0.1; fill:none" points="2681.54,1610.94 2681.54,1302.33 "/>
<polyline clip-path="url(#clip824)" style="stroke:#000000; stroke-linecap:round; stroke-linejoin:round; stroke-width:2; stroke-opacity:0.1; fill:none" points="236.61,1571.26 2752.76,1571.26 "/>
<polyline clip-path="url(#clip824)" style="stroke:#000000; stroke-linecap:round; stroke-linejoin:round; stroke-width:2; stroke-opacity:0.1; fill:none" points="236.61,1530.4 2752.76,1530.4 "/>
<polyline clip-path="url(#clip824)" style="stroke:#000000; stroke-linecap:round; stroke-linejoin:round; stroke-width:2; stroke-opacity:0.1; fill:none" points="236.61,1489.54 2752.76,1489.54 "/>
<polyline clip-path="url(#clip824)" style="stroke:#000000; stroke-linecap:round; stroke-linejoin:round; stroke-width:2; stroke-opacity:0.1; fill:none" points="236.61,1448.68 2752.76,1448.68 "/>
<polyline clip-path="url(#clip824)" style="stroke:#000000; stroke-linecap:round; stroke-linejoin:round; stroke-width:2; stroke-opacity:0.1; fill:none" points="236.61,1407.83 2752.76,1407.83 "/>
<polyline clip-path="url(#clip824)" style="stroke:#000000; stroke-linecap:round; stroke-linejoin:round; stroke-width:2; stroke-opacity:0.1; fill:none" points="236.61,1366.97 2752.76,1366.97 "/>
<polyline clip-path="url(#clip824)" style="stroke:#000000; stroke-linecap:round; stroke-linejoin:round; stroke-width:2; stroke-opacity:0.1; fill:none" points="236.61,1326.11 2752.76,1326.11 "/>
<polyline clip-path="url(#clip820)" style="stroke:#000000; stroke-linecap:round; stroke-linejoin:round; stroke-width:4; stroke-opacity:1; fill:none" points="236.61,1610.94 2752.76,1610.94 "/>
<polyline clip-path="url(#clip820)" style="stroke:#000000; stroke-linecap:round; stroke-linejoin:round; stroke-width:4; stroke-opacity:1; fill:none" points="291.891,1610.94 291.891,1592.04 "/>
<polyline clip-path="url(#clip820)" style="stroke:#000000; stroke-linecap:round; stroke-linejoin:round; stroke-width:4; stroke-opacity:1; fill:none" points="1088.44,1610.94 1088.44,1592.04 "/>
<polyline clip-path="url(#clip820)" style="stroke:#000000; stroke-linecap:round; stroke-linejoin:round; stroke-width:4; stroke-opacity:1; fill:none" points="1884.99,1610.94 1884.99,1592.04 "/>
<polyline clip-path="url(#clip820)" style="stroke:#000000; stroke-linecap:round; stroke-linejoin:round; stroke-width:4; stroke-opacity:1; fill:none" points="2681.54,1610.94 2681.54,1592.04 "/>
<path clip-path="url(#clip820)" d="M291.891 1645.06 Q288.28 1645.06 286.451 1648.62 Q284.645 1652.16 284.645 1659.29 Q284.645 1666.4 286.451 1669.97 Q288.28 1673.51 291.891 1673.51 Q295.525 1673.51 297.331 1669.97 Q299.159 1666.4 299.159 1659.29 Q299.159 1652.16 297.331 1648.62 Q295.525 1645.06 291.891 1645.06 M291.891 1641.35 Q297.701 1641.35 300.756 1645.96 Q303.835 1650.54 303.835 1659.29 Q303.835 1668.02 300.756 1672.63 Q297.701 1677.21 291.891 1677.21 Q286.081 1677.21 283.002 1672.63 Q279.946 1668.02 279.946 1659.29 Q279.946 1650.54 283.002 1645.96 Q286.081 1641.35 291.891 1641.35 Z" fill="#000000" fill-rule="nonzero" fill-opacity="1" /><path clip-path="url(#clip820)" d="M1063.14 1641.98 L1081.5 1641.98 L1081.5 1645.91 L1067.42 1645.91 L1067.42 1654.39 Q1068.44 1654.04 1069.46 1653.88 Q1070.48 1653.69 1071.5 1653.69 Q1077.28 1653.69 1080.66 1656.86 Q1084.04 1660.04 1084.04 1665.45 Q1084.04 1671.03 1080.57 1674.13 Q1077.1 1677.21 1070.78 1677.21 Q1068.6 1677.21 1066.34 1676.84 Q1064.09 1676.47 1061.68 1675.73 L1061.68 1671.03 Q1063.77 1672.16 1065.99 1672.72 Q1068.21 1673.28 1070.69 1673.28 Q1074.69 1673.28 1077.03 1671.17 Q1079.37 1669.06 1079.37 1665.45 Q1079.37 1661.84 1077.03 1659.73 Q1074.69 1657.63 1070.69 1657.63 Q1068.81 1657.63 1066.94 1658.04 Q1065.09 1658.46 1063.14 1659.34 L1063.14 1641.98 Z" fill="#000000" fill-rule="nonzero" fill-opacity="1" /><path clip-path="url(#clip820)" d="M1103.26 1645.06 Q1099.65 1645.06 1097.82 1648.62 Q1096.01 1652.16 1096.01 1659.29 Q1096.01 1666.4 1097.82 1669.97 Q1099.65 1673.51 1103.26 1673.51 Q1106.89 1673.51 1108.7 1669.97 Q1110.53 1666.4 1110.53 1659.29 Q1110.53 1652.16 1108.7 1648.62 Q1106.89 1645.06 1103.26 1645.06 M1103.26 1641.35 Q1109.07 1641.35 1112.12 1645.96 Q1115.2 1650.54 1115.2 1659.29 Q1115.2 1668.02 1112.12 1672.63 Q1109.07 1677.21 1103.26 1677.21 Q1097.45 1677.21 1094.37 1672.63 Q1091.31 1668.02 1091.31 1659.29 Q1091.31 1650.54 1094.37 1645.96 Q1097.45 1641.35 1103.26 1641.35 Z" fill="#000000" fill-rule="nonzero" fill-opacity="1" /><path clip-path="url(#clip820)" d="M1844.6 1672.6 L1852.24 1672.6 L1852.24 1646.24 L1843.93 1647.91 L1843.93 1643.65 L1852.19 1641.98 L1856.87 1641.98 L1856.87 1672.6 L1864.51 1672.6 L1864.51 1676.54 L1844.6 1676.54 L1844.6 1672.6 Z" fill="#000000" fill-rule="nonzero" fill-opacity="1" /><path clip-path="url(#clip820)" d="M1883.95 1645.06 Q1880.34 1645.06 1878.51 1648.62 Q1876.71 1652.16 1876.71 1659.29 Q1876.71 1666.4 1878.51 1669.97 Q1880.34 1673.51 1883.95 1673.51 Q1887.59 1673.51 1889.39 1669.97 Q1891.22 1666.4 1891.22 1659.29 Q1891.22 1652.16 1889.39 1648.62 Q1887.59 1645.06 1883.95 1645.06 M1883.95 1641.35 Q1889.76 1641.35 1892.82 1645.96 Q1895.9 1650.54 1895.9 1659.29 Q1895.9 1668.02 1892.82 1672.63 Q1889.76 1677.21 1883.95 1677.21 Q1878.14 1677.21 1875.06 1672.63 Q1872.01 1668.02 1872.01 1659.29 Q1872.01 1650.54 1875.06 1645.96 Q1878.14 1641.35 1883.95 1641.35 Z" fill="#000000" fill-rule="nonzero" fill-opacity="1" /><path clip-path="url(#clip820)" d="M1914.11 1645.06 Q1910.5 1645.06 1908.67 1648.62 Q1906.87 1652.16 1906.87 1659.29 Q1906.87 1666.4 1908.67 1669.97 Q1910.5 1673.51 1914.11 1673.51 Q1917.75 1673.51 1919.55 1669.97 Q1921.38 1666.4 1921.38 1659.29 Q1921.38 1652.16 1919.55 1648.62 Q1917.75 1645.06 1914.11 1645.06 M1914.11 1641.35 Q1919.92 1641.35 1922.98 1645.96 Q1926.06 1650.54 1926.06 1659.29 Q1926.06 1668.02 1922.98 1672.63 Q1919.92 1677.21 1914.11 1677.21 Q1908.3 1677.21 1905.22 1672.63 Q1902.17 1668.02 1902.17 1659.29 Q1902.17 1650.54 1905.22 1645.96 Q1908.3 1641.35 1914.11 1641.35 Z" fill="#000000" fill-rule="nonzero" fill-opacity="1" /><path clip-path="url(#clip820)" d="M2641.15 1672.6 L2648.79 1672.6 L2648.79 1646.24 L2640.48 1647.91 L2640.48 1643.65 L2648.74 1641.98 L2653.42 1641.98 L2653.42 1672.6 L2661.06 1672.6 L2661.06 1676.54 L2641.15 1676.54 L2641.15 1672.6 Z" fill="#000000" fill-rule="nonzero" fill-opacity="1" /><path clip-path="url(#clip820)" d="M2670.55 1641.98 L2688.91 1641.98 L2688.91 1645.91 L2674.83 1645.91 L2674.83 1654.39 Q2675.85 1654.04 2676.87 1653.88 Q2677.89 1653.69 2678.91 1653.69 Q2684.69 1653.69 2688.07 1656.86 Q2691.45 1660.04 2691.45 1665.45 Q2691.45 1671.03 2687.98 1674.13 Q2684.51 1677.21 2678.19 1677.21 Q2676.01 1677.21 2673.74 1676.84 Q2671.5 1676.47 2669.09 1675.73 L2669.09 1671.03 Q2671.17 1672.16 2673.4 1672.72 Q2675.62 1673.28 2678.1 1673.28 Q2682.1 1673.28 2684.44 1671.17 Q2686.78 1669.06 2686.78 1665.45 Q2686.78 1661.84 2684.44 1659.73 Q2682.1 1657.63 2678.1 1657.63 Q2676.22 1657.63 2674.35 1658.04 Q2672.49 1658.46 2670.55 1659.34 L2670.55 1641.98 Z" fill="#000000" fill-rule="nonzero" fill-opacity="1" /><path clip-path="url(#clip820)" d="M2710.66 1645.06 Q2707.05 1645.06 2705.22 1648.62 Q2703.42 1652.16 2703.42 1659.29 Q2703.42 1666.4 2705.22 1669.97 Q2707.05 1673.51 2710.66 1673.51 Q2714.3 1673.51 2716.1 1669.97 Q2717.93 1666.4 2717.93 1659.29 Q2717.93 1652.16 2716.1 1648.62 Q2714.3 1645.06 2710.66 1645.06 M2710.66 1641.35 Q2716.47 1641.35 2719.53 1645.96 Q2722.61 1650.54 2722.61 1659.29 Q2722.61 1668.02 2719.53 1672.63 Q2716.47 1677.21 2710.66 1677.21 Q2704.85 1677.21 2701.78 1672.63 Q2698.72 1668.02 2698.72 1659.29 Q2698.72 1650.54 2701.78 1645.96 Q2704.85 1641.35 2710.66 1641.35 Z" fill="#000000" fill-rule="nonzero" fill-opacity="1" /><polyline clip-path="url(#clip820)" style="stroke:#000000; stroke-linecap:round; stroke-linejoin:round; stroke-width:4; stroke-opacity:1; fill:none" points="236.61,1610.94 236.61,1302.33 "/>
<polyline clip-path="url(#clip820)" style="stroke:#000000; stroke-linecap:round; stroke-linejoin:round; stroke-width:4; stroke-opacity:1; fill:none" points="236.61,1571.26 255.508,1571.26 "/>
<polyline clip-path="url(#clip820)" style="stroke:#000000; stroke-linecap:round; stroke-linejoin:round; stroke-width:4; stroke-opacity:1; fill:none" points="236.61,1530.4 255.508,1530.4 "/>
<polyline clip-path="url(#clip820)" style="stroke:#000000; stroke-linecap:round; stroke-linejoin:round; stroke-width:4; stroke-opacity:1; fill:none" points="236.61,1489.54 255.508,1489.54 "/>
<polyline clip-path="url(#clip820)" style="stroke:#000000; stroke-linecap:round; stroke-linejoin:round; stroke-width:4; stroke-opacity:1; fill:none" points="236.61,1448.68 255.508,1448.68 "/>
<polyline clip-path="url(#clip820)" style="stroke:#000000; stroke-linecap:round; stroke-linejoin:round; stroke-width:4; stroke-opacity:1; fill:none" points="236.61,1407.83 255.508,1407.83 "/>
<polyline clip-path="url(#clip820)" style="stroke:#000000; stroke-linecap:round; stroke-linejoin:round; stroke-width:4; stroke-opacity:1; fill:none" points="236.61,1366.97 255.508,1366.97 "/>
<polyline clip-path="url(#clip820)" style="stroke:#000000; stroke-linecap:round; stroke-linejoin:round; stroke-width:4; stroke-opacity:1; fill:none" points="236.61,1326.11 255.508,1326.11 "/>
<path clip-path="url(#clip820)" d="M138.43 1557.05 Q134.819 1557.05 132.99 1560.62 Q131.184 1564.16 131.184 1571.29 Q131.184 1578.4 132.99 1581.96 Q134.819 1585.5 138.43 1585.5 Q142.064 1585.5 143.87 1581.96 Q145.698 1578.4 145.698 1571.29 Q145.698 1564.16 143.87 1560.62 Q142.064 1557.05 138.43 1557.05 M138.43 1553.35 Q144.24 1553.35 147.296 1557.96 Q150.374 1562.54 150.374 1571.29 Q150.374 1580.02 147.296 1584.62 Q144.24 1589.21 138.43 1589.21 Q132.62 1589.21 129.541 1584.62 Q126.485 1580.02 126.485 1571.29 Q126.485 1562.54 129.541 1557.96 Q132.62 1553.35 138.43 1553.35 Z" fill="#000000" fill-rule="nonzero" fill-opacity="1" /><path clip-path="url(#clip820)" d="M158.592 1582.66 L163.476 1582.66 L163.476 1588.54 L158.592 1588.54 L158.592 1582.66 Z" fill="#000000" fill-rule="nonzero" fill-opacity="1" /><path clip-path="url(#clip820)" d="M173.707 1553.98 L192.064 1553.98 L192.064 1557.91 L177.99 1557.91 L177.99 1566.38 Q179.008 1566.04 180.027 1565.87 Q181.045 1565.69 182.064 1565.69 Q187.851 1565.69 191.23 1568.86 Q194.61 1572.03 194.61 1577.45 Q194.61 1583.03 191.138 1586.13 Q187.666 1589.21 181.346 1589.21 Q179.17 1589.21 176.902 1588.84 Q174.656 1588.47 172.249 1587.73 L172.249 1583.03 Q174.332 1584.16 176.555 1584.72 Q178.777 1585.27 181.254 1585.27 Q185.258 1585.27 187.596 1583.17 Q189.934 1581.06 189.934 1577.45 Q189.934 1573.84 187.596 1571.73 Q185.258 1569.62 181.254 1569.62 Q179.379 1569.62 177.504 1570.04 Q175.652 1570.46 173.707 1571.34 L173.707 1553.98 Z" fill="#000000" fill-rule="nonzero" fill-opacity="1" /><path clip-path="url(#clip820)" d="M128.245 1543.74 L135.884 1543.74 L135.884 1517.38 L127.573 1519.04 L127.573 1514.79 L135.837 1513.12 L140.513 1513.12 L140.513 1543.74 L148.152 1543.74 L148.152 1547.68 L128.245 1547.68 L128.245 1543.74 Z" fill="#000000" fill-rule="nonzero" fill-opacity="1" /><path clip-path="url(#clip820)" d="M157.596 1541.8 L162.481 1541.8 L162.481 1547.68 L157.596 1547.68 L157.596 1541.8 Z" fill="#000000" fill-rule="nonzero" fill-opacity="1" /><path clip-path="url(#clip820)" d="M182.666 1516.2 Q179.055 1516.2 177.226 1519.76 Q175.42 1523.3 175.42 1530.43 Q175.42 1537.54 177.226 1541.1 Q179.055 1544.65 182.666 1544.65 Q186.3 1544.65 188.105 1541.1 Q189.934 1537.54 189.934 1530.43 Q189.934 1523.3 188.105 1519.76 Q186.3 1516.2 182.666 1516.2 M182.666 1512.49 Q188.476 1512.49 191.531 1517.1 Q194.61 1521.68 194.61 1530.43 Q194.61 1539.16 191.531 1543.77 Q188.476 1548.35 182.666 1548.35 Q176.856 1548.35 173.777 1543.77 Q170.721 1539.16 170.721 1530.43 Q170.721 1521.68 173.777 1517.1 Q176.856 1512.49 182.666 1512.49 Z" fill="#000000" fill-rule="nonzero" fill-opacity="1" /><path clip-path="url(#clip820)" d="M129.24 1502.89 L136.879 1502.89 L136.879 1476.52 L128.569 1478.19 L128.569 1473.93 L136.833 1472.26 L141.509 1472.26 L141.509 1502.89 L149.147 1502.89 L149.147 1506.82 L129.24 1506.82 L129.24 1502.89 Z" fill="#000000" fill-rule="nonzero" fill-opacity="1" /><path clip-path="url(#clip820)" d="M158.592 1500.94 L163.476 1500.94 L163.476 1506.82 L158.592 1506.82 L158.592 1500.94 Z" fill="#000000" fill-rule="nonzero" fill-opacity="1" /><path clip-path="url(#clip820)" d="M173.707 1472.26 L192.064 1472.26 L192.064 1476.2 L177.99 1476.2 L177.99 1484.67 Q179.008 1484.32 180.027 1484.16 Q181.045 1483.97 182.064 1483.97 Q187.851 1483.97 191.23 1487.15 Q194.61 1490.32 194.61 1495.73 Q194.61 1501.31 191.138 1504.41 Q187.666 1507.49 181.346 1507.49 Q179.17 1507.49 176.902 1507.12 Q174.656 1506.75 172.249 1506.01 L172.249 1501.31 Q174.332 1502.45 176.555 1503 Q178.777 1503.56 181.254 1503.56 Q185.258 1503.56 187.596 1501.45 Q189.934 1499.34 189.934 1495.73 Q189.934 1492.12 187.596 1490.02 Q185.258 1487.91 181.254 1487.91 Q179.379 1487.91 177.504 1488.33 Q175.652 1488.74 173.707 1489.62 L173.707 1472.26 Z" fill="#000000" fill-rule="nonzero" fill-opacity="1" /><path clip-path="url(#clip820)" d="M131.462 1462.03 L147.782 1462.03 L147.782 1465.96 L125.837 1465.96 L125.837 1462.03 Q128.499 1459.27 133.083 1454.64 Q137.689 1449.99 138.87 1448.65 Q141.115 1446.13 141.995 1444.39 Q142.897 1442.63 142.897 1440.94 Q142.897 1438.19 140.953 1436.45 Q139.032 1434.71 135.93 1434.71 Q133.731 1434.71 131.277 1435.48 Q128.847 1436.24 126.069 1437.79 L126.069 1433.07 Q128.893 1431.94 131.347 1431.36 Q133.8 1430.78 135.837 1430.78 Q141.208 1430.78 144.402 1433.46 Q147.596 1436.15 147.596 1440.64 Q147.596 1442.77 146.786 1444.69 Q145.999 1446.59 143.893 1449.18 Q143.314 1449.85 140.212 1453.07 Q137.11 1456.27 131.462 1462.03 Z" fill="#000000" fill-rule="nonzero" fill-opacity="1" /><path clip-path="url(#clip820)" d="M157.596 1460.08 L162.481 1460.08 L162.481 1465.96 L157.596 1465.96 L157.596 1460.08 Z" fill="#000000" fill-rule="nonzero" fill-opacity="1" /><path clip-path="url(#clip820)" d="M182.666 1434.48 Q179.055 1434.48 177.226 1438.05 Q175.42 1441.59 175.42 1448.72 Q175.42 1455.83 177.226 1459.39 Q179.055 1462.93 182.666 1462.93 Q186.3 1462.93 188.105 1459.39 Q189.934 1455.83 189.934 1448.72 Q189.934 1441.59 188.105 1438.05 Q186.3 1434.48 182.666 1434.48 M182.666 1430.78 Q188.476 1430.78 191.531 1435.39 Q194.61 1439.97 194.61 1448.72 Q194.61 1457.45 191.531 1462.05 Q188.476 1466.64 182.666 1466.64 Q176.856 1466.64 173.777 1462.05 Q170.721 1457.45 170.721 1448.72 Q170.721 1439.97 173.777 1435.39 Q176.856 1430.78 182.666 1430.78 Z" fill="#000000" fill-rule="nonzero" fill-opacity="1" /><path clip-path="url(#clip820)" d="M132.458 1421.17 L148.777 1421.17 L148.777 1425.11 L126.833 1425.11 L126.833 1421.17 Q129.495 1418.42 134.078 1413.79 Q138.684 1409.13 139.865 1407.79 Q142.11 1405.27 142.99 1403.53 Q143.893 1401.77 143.893 1400.08 Q143.893 1397.33 141.948 1395.59 Q140.027 1393.86 136.925 1393.86 Q134.726 1393.86 132.272 1394.62 Q129.842 1395.38 127.064 1396.94 L127.064 1392.21 Q129.888 1391.08 132.342 1390.5 Q134.796 1389.92 136.833 1389.92 Q142.203 1389.92 145.397 1392.61 Q148.592 1395.29 148.592 1399.78 Q148.592 1401.91 147.782 1403.83 Q146.995 1405.73 144.888 1408.32 Q144.309 1409 141.208 1412.21 Q138.106 1415.41 132.458 1421.17 Z" fill="#000000" fill-rule="nonzero" fill-opacity="1" /><path clip-path="url(#clip820)" d="M158.592 1419.23 L163.476 1419.23 L163.476 1425.11 L158.592 1425.11 L158.592 1419.23 Z" fill="#000000" fill-rule="nonzero" fill-opacity="1" /><path clip-path="url(#clip820)" d="M173.707 1390.55 L192.064 1390.55 L192.064 1394.48 L177.99 1394.48 L177.99 1402.95 Q179.008 1402.61 180.027 1402.44 Q181.045 1402.26 182.064 1402.26 Q187.851 1402.26 191.23 1405.43 Q194.61 1408.6 194.61 1414.02 Q194.61 1419.6 191.138 1422.7 Q187.666 1425.78 181.346 1425.78 Q179.17 1425.78 176.902 1425.41 Q174.656 1425.04 172.249 1424.3 L172.249 1419.6 Q174.332 1420.73 176.555 1421.29 Q178.777 1421.84 181.254 1421.84 Q185.258 1421.84 187.596 1419.74 Q189.934 1417.63 189.934 1414.02 Q189.934 1410.41 187.596 1408.3 Q185.258 1406.19 181.254 1406.19 Q179.379 1406.19 177.504 1406.61 Q175.652 1407.03 173.707 1407.91 L173.707 1390.55 Z" fill="#000000" fill-rule="nonzero" fill-opacity="1" /><path clip-path="url(#clip820)" d="M141.601 1365.62 Q144.958 1366.33 146.833 1368.6 Q148.731 1370.87 148.731 1374.2 Q148.731 1379.32 145.212 1382.12 Q141.694 1384.92 135.212 1384.92 Q133.036 1384.92 130.722 1384.48 Q128.43 1384.06 125.976 1383.21 L125.976 1378.69 Q127.921 1379.83 130.235 1380.41 Q132.55 1380.99 135.073 1380.99 Q139.471 1380.99 141.763 1379.25 Q144.078 1377.51 144.078 1374.2 Q144.078 1371.15 141.925 1369.43 Q139.796 1367.7 135.976 1367.7 L131.948 1367.7 L131.948 1363.86 L136.161 1363.86 Q139.61 1363.86 141.439 1362.49 Q143.268 1361.1 143.268 1358.51 Q143.268 1355.85 141.37 1354.43 Q139.495 1353 135.976 1353 Q134.055 1353 131.856 1353.42 Q129.657 1353.83 127.018 1354.71 L127.018 1350.55 Q129.68 1349.81 131.995 1349.43 Q134.333 1349.06 136.393 1349.06 Q141.717 1349.06 144.819 1351.5 Q147.921 1353.9 147.921 1358.02 Q147.921 1360.89 146.277 1362.88 Q144.633 1364.85 141.601 1365.62 Z" fill="#000000" fill-rule="nonzero" fill-opacity="1" /><path clip-path="url(#clip820)" d="M157.596 1378.37 L162.481 1378.37 L162.481 1384.25 L157.596 1384.25 L157.596 1378.37 Z" fill="#000000" fill-rule="nonzero" fill-opacity="1" /><path clip-path="url(#clip820)" d="M182.666 1352.77 Q179.055 1352.77 177.226 1356.33 Q175.42 1359.87 175.42 1367 Q175.42 1374.11 177.226 1377.68 Q179.055 1381.22 182.666 1381.22 Q186.3 1381.22 188.105 1377.68 Q189.934 1374.11 189.934 1367 Q189.934 1359.87 188.105 1356.33 Q186.3 1352.77 182.666 1352.77 M182.666 1349.06 Q188.476 1349.06 191.531 1353.67 Q194.61 1358.25 194.61 1367 Q194.61 1375.73 191.531 1380.34 Q188.476 1384.92 182.666 1384.92 Q176.856 1384.92 173.777 1380.34 Q170.721 1375.73 170.721 1367 Q170.721 1358.25 173.777 1353.67 Q176.856 1349.06 182.666 1349.06 Z" fill="#000000" fill-rule="nonzero" fill-opacity="1" /><path clip-path="url(#clip820)" d="M142.596 1324.76 Q145.953 1325.48 147.828 1327.74 Q149.726 1330.01 149.726 1333.35 Q149.726 1338.46 146.208 1341.26 Q142.689 1344.06 136.208 1344.06 Q134.032 1344.06 131.717 1343.62 Q129.425 1343.21 126.972 1342.35 L126.972 1337.84 Q128.916 1338.97 131.231 1339.55 Q133.546 1340.13 136.069 1340.13 Q140.467 1340.13 142.759 1338.39 Q145.073 1336.66 145.073 1333.35 Q145.073 1330.29 142.921 1328.58 Q140.791 1326.84 136.971 1326.84 L132.944 1326.84 L132.944 1323 L137.157 1323 Q140.606 1323 142.434 1321.63 Q144.263 1320.24 144.263 1317.65 Q144.263 1314.99 142.365 1313.58 Q140.49 1312.14 136.971 1312.14 Q135.05 1312.14 132.851 1312.56 Q130.652 1312.98 128.013 1313.86 L128.013 1309.69 Q130.675 1308.95 132.99 1308.58 Q135.328 1308.21 137.388 1308.21 Q142.712 1308.21 145.814 1310.64 Q148.916 1313.05 148.916 1317.17 Q148.916 1320.04 147.272 1322.03 Q145.629 1323.99 142.596 1324.76 Z" fill="#000000" fill-rule="nonzero" fill-opacity="1" /><path clip-path="url(#clip820)" d="M158.592 1337.51 L163.476 1337.51 L163.476 1343.39 L158.592 1343.39 L158.592 1337.51 Z" fill="#000000" fill-rule="nonzero" fill-opacity="1" /><path clip-path="url(#clip820)" d="M173.707 1308.83 L192.064 1308.83 L192.064 1312.77 L177.99 1312.77 L177.99 1321.24 Q179.008 1320.89 180.027 1320.73 Q181.045 1320.55 182.064 1320.55 Q187.851 1320.55 191.23 1323.72 Q194.61 1326.89 194.61 1332.3 Q194.61 1337.88 191.138 1340.98 Q187.666 1344.06 181.346 1344.06 Q179.17 1344.06 176.902 1343.69 Q174.656 1343.32 172.249 1342.58 L172.249 1337.88 Q174.332 1339.02 176.555 1339.57 Q178.777 1340.13 181.254 1340.13 Q185.258 1340.13 187.596 1338.02 Q189.934 1335.92 189.934 1332.3 Q189.934 1328.69 187.596 1326.59 Q185.258 1324.48 181.254 1324.48 Q179.379 1324.48 177.504 1324.9 Q175.652 1325.31 173.707 1326.19 L173.707 1308.83 Z" fill="#000000" fill-rule="nonzero" fill-opacity="1" /><path clip-path="url(#clip820)" d="M69.5813 1526 L22.0613 1544.15 L22.0613 1537.43 L62.0698 1522.38 L22.0613 1507.29 L22.0613 1500.61 L69.5813 1518.72 L69.5813 1526 Z" fill="#000000" fill-rule="nonzero" fill-opacity="1" /><path clip-path="url(#clip820)" d="M51.6618 1482.78 Q51.6618 1489.88 53.2851 1492.62 Q54.9083 1495.35 58.8233 1495.35 Q61.9425 1495.35 63.7885 1493.32 Q65.6027 1491.25 65.6027 1487.72 Q65.6027 1482.85 62.1653 1479.92 Q58.6959 1476.96 52.9668 1476.96 L51.6618 1476.96 L51.6618 1482.78 M49.2429 1471.1 L69.5813 1471.1 L69.5813 1476.96 L64.1704 1476.96 Q67.417 1478.96 68.9766 1481.95 Q70.5043 1484.95 70.5043 1489.27 Q70.5043 1494.75 67.4488 1498 Q64.3614 1501.21 59.2052 1501.21 Q53.1896 1501.21 50.1341 1497.2 Q47.0785 1493.16 47.0785 1485.17 L47.0785 1476.96 L46.5056 1476.96 Q42.4634 1476.96 40.2672 1479.63 Q38.0392 1482.27 38.0392 1487.08 Q38.0392 1490.13 38.7713 1493.03 Q39.5033 1495.93 40.9674 1498.6 L35.5566 1498.6 Q34.3153 1495.39 33.7105 1492.36 Q33.074 1489.34 33.074 1486.47 Q33.074 1478.74 37.0844 1474.92 Q41.0948 1471.1 49.2429 1471.1 Z" fill="#000000" fill-rule="nonzero" fill-opacity="1" /><path clip-path="url(#clip820)" d="M20.0561 1459.04 L20.0561 1453.18 L69.5813 1453.18 L69.5813 1459.04 L20.0561 1459.04 Z" fill="#000000" fill-rule="nonzero" fill-opacity="1" /><path clip-path="url(#clip820)" d="M55.5131 1441.53 L33.9333 1441.53 L33.9333 1435.68 L55.2903 1435.68 Q60.351 1435.68 62.8973 1433.7 Q65.4118 1431.73 65.4118 1427.78 Q65.4118 1423.04 62.3881 1420.3 Q59.3643 1417.53 54.1445 1417.53 L33.9333 1417.53 L33.9333 1411.68 L69.5813 1411.68 L69.5813 1417.53 L64.1068 1417.53 Q67.3533 1419.67 68.9447 1422.5 Q70.5043 1425.3 70.5043 1429.02 Q70.5043 1435.17 66.6849 1438.35 Q62.8655 1441.53 55.5131 1441.53 M33.074 1426.8 L33.074 1426.8 Z" fill="#000000" fill-rule="nonzero" fill-opacity="1" /><path clip-path="url(#clip820)" d="M50.2932 1369.12 L53.1578 1369.12 L53.1578 1396.05 Q59.2052 1395.67 62.3881 1392.42 Q65.5391 1389.14 65.5391 1383.32 Q65.5391 1379.94 64.7115 1376.79 Q63.884 1373.61 62.2289 1370.49 L67.7671 1370.49 Q69.1039 1373.64 69.8041 1376.95 Q70.5043 1380.26 70.5043 1383.67 Q70.5043 1392.2 65.5391 1397.19 Q60.5738 1402.16 52.1074 1402.16 Q43.3546 1402.16 38.2302 1397.45 Q33.074 1392.71 33.074 1384.69 Q33.074 1377.49 37.7209 1373.32 Q42.3361 1369.12 50.2932 1369.12 M48.5745 1374.98 Q43.7684 1375.04 40.9038 1377.68 Q38.0392 1380.29 38.0392 1384.62 Q38.0392 1389.52 40.8083 1392.48 Q43.5774 1395.41 48.6063 1395.86 L48.5745 1374.98 Z" fill="#000000" fill-rule="nonzero" fill-opacity="1" /><path clip-path="url(#clip820)" d="M1448.54 1210.94 Q1448.54 1202.84 1445.18 1198.38 Q1441.86 1193.93 1435.82 1193.93 Q1429.83 1193.93 1426.47 1198.38 Q1423.14 1202.84 1423.14 1210.94 Q1423.14 1219 1426.47 1223.46 Q1429.83 1227.92 1435.82 1227.92 Q1441.86 1227.92 1445.18 1223.46 Q1448.54 1219 1448.54 1210.94 M1456 1228.52 Q1456 1240.11 1450.85 1245.74 Q1445.71 1251.41 1435.09 1251.41 Q1431.16 1251.41 1427.68 1250.8 Q1424.2 1250.24 1420.92 1249.02 L1420.92 1241.77 Q1424.2 1243.55 1427.4 1244.4 Q1430.6 1245.25 1433.92 1245.25 Q1441.25 1245.25 1444.9 1241.4 Q1448.54 1237.6 1448.54 1229.86 L1448.54 1226.17 Q1446.23 1230.18 1442.63 1232.17 Q1439.02 1234.15 1434 1234.15 Q1425.66 1234.15 1420.55 1227.79 Q1415.45 1221.43 1415.45 1210.94 Q1415.45 1200.41 1420.55 1194.05 Q1425.66 1187.69 1434 1187.69 Q1439.02 1187.69 1442.63 1189.67 Q1446.23 1191.66 1448.54 1195.67 L1448.54 1188.78 L1456 1188.78 L1456 1228.52 Z" fill="#000000" fill-rule="nonzero" fill-opacity="1" /><path clip-path="url(#clip820)" d="M1470.66 1171.12 L1487.84 1171.12 L1487.84 1176.91 L1478.11 1176.91 L1478.11 1239.3 L1487.84 1239.3 L1487.84 1245.09 L1470.66 1245.09 L1470.66 1171.12 Z" fill="#000000" fill-rule="nonzero" fill-opacity="1" /><path clip-path="url(#clip820)" d="M1529.56 1201.54 Q1535.44 1202.8 1538.72 1206.77 Q1542.04 1210.74 1542.04 1216.57 Q1542.04 1225.52 1535.88 1230.43 Q1529.72 1235.33 1518.38 1235.33 Q1514.57 1235.33 1510.52 1234.56 Q1506.51 1233.83 1502.22 1232.33 L1502.22 1224.43 Q1505.62 1226.42 1509.67 1227.43 Q1513.72 1228.44 1518.14 1228.44 Q1525.83 1228.44 1529.84 1225.4 Q1533.9 1222.37 1533.9 1216.57 Q1533.9 1211.23 1530.13 1208.23 Q1526.4 1205.19 1519.72 1205.19 L1512.67 1205.19 L1512.67 1198.46 L1520.04 1198.46 Q1526.08 1198.46 1529.28 1196.07 Q1532.48 1193.64 1532.48 1189.11 Q1532.48 1184.45 1529.16 1181.98 Q1525.87 1179.47 1519.72 1179.47 Q1516.36 1179.47 1512.51 1180.2 Q1508.66 1180.92 1504.04 1182.46 L1504.04 1175.17 Q1508.7 1173.88 1512.75 1173.23 Q1516.84 1172.58 1520.45 1172.58 Q1529.76 1172.58 1535.19 1176.83 Q1540.62 1181.05 1540.62 1188.26 Q1540.62 1193.28 1537.74 1196.76 Q1534.87 1200.21 1529.56 1201.54 Z" fill="#000000" fill-rule="nonzero" fill-opacity="1" /><path clip-path="url(#clip820)" d="M1573.92 1171.12 L1573.92 1245.09 L1556.74 1245.09 L1556.74 1239.3 L1566.42 1239.3 L1566.42 1176.91 L1556.74 1176.91 L1556.74 1171.12 L1573.92 1171.12 Z" fill="#000000" fill-rule="nonzero" fill-opacity="1" /><polyline clip-path="url(#clip824)" style="stroke:#ff8c00; stroke-linecap:round; stroke-linejoin:round; stroke-width:4; stroke-opacity:0.7; fill:none" points="307.822,1551.44 323.753,1562.81 339.684,1565.08 355.615,1547.19 371.546,1547.5 387.477,1553 403.408,1555.51 419.339,1540.7 435.27,1535.82 451.201,1536.72 467.132,1454.22 483.063,1444.87 498.994,1456.68 514.925,1455.59 530.856,1448.75 546.787,1449.76 562.718,1494.71 578.649,1494.49 594.58,1484.81 610.511,1566.98 626.442,1595.6 642.373,1597.41 658.304,1591.09 674.235,1601.23 690.166,1591.73 706.097,1594.95 722.028,1593.54 737.959,1598.16 753.89,1595.07 769.821,1588.14 785.752,1434.26 801.683,1443.54 817.615,1451.11 833.546,1371.87 849.477,1369.32 865.408,1372.12 881.339,1403.05 897.27,1391.46 913.201,1519.96 929.132,1507.17 945.063,1508.43 960.994,1512.97 976.925,1508.89 992.856,1510.15 1008.79,1497.35 1024.72,1498.14 1040.65,1501.28 1056.58,1483.29 1072.51,1536.06 1088.44,1533.81 1104.37,1537.75 1120.3,1532.33 1136.23,1591.11 1152.17,1589.03 1168.1,1587.5 1184.03,1573.46 1199.96,1558.38 1215.89,1564.06 1231.82,1493.48 1247.75,1501.07 1263.68,1507.65 1279.61,1504.76 1295.55,1494.9 1311.48,1507.51 1327.41,1504.63 1343.34,1592.05 1359.27,1596.25 1375.2,1549.29 1391.13,1559.94 1407.06,1553.27 1422.99,1585.5 1438.92,1578.6 1454.86,1581.58 1470.79,1590.81 1486.72,1580.24 1502.65,1590.17 1518.58,1574.93 1534.51,1593.46 1550.44,1586.85 1566.37,1587.97 1582.3,1587.85 1598.23,1586.4 1614.17,1576.75 1630.1,1568.18 1646.03,1559.17 1661.96,1577.56 1677.89,1565.32 1693.82,1570.22 1709.75,1565.67 1725.68,1567.48 1741.61,1541.47 1757.54,1540.75 1773.48,1550.09 1789.41,1539.91 1805.34,1570.54 1821.27,1571.51 1837.2,1570 1853.13,1593.75 1869.06,1522.53 1884.99,1519.84 1900.92,1517.99 1916.86,1518.53 1932.79,1556.13 1948.72,1551.33 1964.65,1552.54 1980.58,1573.81 1996.51,1584.06 2012.44,1577.51 2028.37,1586.68 2044.3,1586.33 2060.23,1542.41 2076.17,1576.51 2092.1,1577.38 2108.03,1602.21 2123.96,1588.09 2139.89,1591.78 2155.82,1520.41 2171.75,1501.29 2187.68,1492.92 2203.61,1487.22 2219.54,1486.76 2235.48,1482.27 2251.41,1489.75 2267.34,1483.21 2283.27,1486.03 2299.2,1481.32 2315.13,1484.75 2331.06,1473.44 2346.99,1476.29 2362.92,1478.6 2378.85,1478.55 2394.79,1311.06 2410.72,1383.74 2426.65,1359.81 2442.58,1356.7 2458.51,1327.78 2474.44,1328.08 2490.37,1330.38 2506.3,1335.43 2522.23,1312.87 2538.17,1318.1 2554.1,1323.23 2570.03,1331.47 2585.96,1335.98 2601.89,1336.91 2617.82,1331.55 2633.75,1334.38 2649.68,1334.82 2665.61,1360.87 2681.54,1360.04 "/>
<path clip-path="url(#clip820)" d="M236.61 2191.73 L2752.76 2191.73 L2752.76 1883.12 L236.61 1883.12  Z" fill="#ffffff" fill-rule="evenodd" fill-opacity="1"/>
<polyline clip-path="url(#clip821)" style="stroke:#000000; stroke-linecap:round; stroke-linejoin:round; stroke-width:2; stroke-opacity:0.1; fill:none" points="291.891,2191.73 291.891,1883.12 "/>
<polyline clip-path="url(#clip821)" style="stroke:#000000; stroke-linecap:round; stroke-linejoin:round; stroke-width:2; stroke-opacity:0.1; fill:none" points="1088.44,2191.73 1088.44,1883.12 "/>
<polyline clip-path="url(#clip821)" style="stroke:#000000; stroke-linecap:round; stroke-linejoin:round; stroke-width:2; stroke-opacity:0.1; fill:none" points="1884.99,2191.73 1884.99,1883.12 "/>
<polyline clip-path="url(#clip821)" style="stroke:#000000; stroke-linecap:round; stroke-linejoin:round; stroke-width:2; stroke-opacity:0.1; fill:none" points="2681.54,2191.73 2681.54,1883.12 "/>
<polyline clip-path="url(#clip821)" style="stroke:#000000; stroke-linecap:round; stroke-linejoin:round; stroke-width:2; stroke-opacity:0.1; fill:none" points="236.61,2152.79 2752.76,2152.79 "/>
<polyline clip-path="url(#clip821)" style="stroke:#000000; stroke-linecap:round; stroke-linejoin:round; stroke-width:2; stroke-opacity:0.1; fill:none" points="236.61,2099.49 2752.76,2099.49 "/>
<polyline clip-path="url(#clip821)" style="stroke:#000000; stroke-linecap:round; stroke-linejoin:round; stroke-width:2; stroke-opacity:0.1; fill:none" points="236.61,2046.19 2752.76,2046.19 "/>
<polyline clip-path="url(#clip821)" style="stroke:#000000; stroke-linecap:round; stroke-linejoin:round; stroke-width:2; stroke-opacity:0.1; fill:none" points="236.61,1992.9 2752.76,1992.9 "/>
<polyline clip-path="url(#clip821)" style="stroke:#000000; stroke-linecap:round; stroke-linejoin:round; stroke-width:2; stroke-opacity:0.1; fill:none" points="236.61,1939.6 2752.76,1939.6 "/>
<polyline clip-path="url(#clip821)" style="stroke:#000000; stroke-linecap:round; stroke-linejoin:round; stroke-width:2; stroke-opacity:0.1; fill:none" points="236.61,1886.3 2752.76,1886.3 "/>
<polyline clip-path="url(#clip820)" style="stroke:#000000; stroke-linecap:round; stroke-linejoin:round; stroke-width:4; stroke-opacity:1; fill:none" points="236.61,2191.73 2752.76,2191.73 "/>
<polyline clip-path="url(#clip820)" style="stroke:#000000; stroke-linecap:round; stroke-linejoin:round; stroke-width:4; stroke-opacity:1; fill:none" points="291.891,2191.73 291.891,2172.83 "/>
<polyline clip-path="url(#clip820)" style="stroke:#000000; stroke-linecap:round; stroke-linejoin:round; stroke-width:4; stroke-opacity:1; fill:none" points="1088.44,2191.73 1088.44,2172.83 "/>
<polyline clip-path="url(#clip820)" style="stroke:#000000; stroke-linecap:round; stroke-linejoin:round; stroke-width:4; stroke-opacity:1; fill:none" points="1884.99,2191.73 1884.99,2172.83 "/>
<polyline clip-path="url(#clip820)" style="stroke:#000000; stroke-linecap:round; stroke-linejoin:round; stroke-width:4; stroke-opacity:1; fill:none" points="2681.54,2191.73 2681.54,2172.83 "/>
<path clip-path="url(#clip820)" d="M291.891 2225.85 Q288.28 2225.85 286.451 2229.41 Q284.645 2232.95 284.645 2240.08 Q284.645 2247.19 286.451 2250.75 Q288.28 2254.3 291.891 2254.3 Q295.525 2254.3 297.331 2250.75 Q299.159 2247.19 299.159 2240.08 Q299.159 2232.95 297.331 2229.41 Q295.525 2225.85 291.891 2225.85 M291.891 2222.14 Q297.701 2222.14 300.756 2226.75 Q303.835 2231.33 303.835 2240.08 Q303.835 2248.81 300.756 2253.42 Q297.701 2258 291.891 2258 Q286.081 2258 283.002 2253.42 Q279.946 2248.81 279.946 2240.08 Q279.946 2231.33 283.002 2226.75 Q286.081 2222.14 291.891 2222.14 Z" fill="#000000" fill-rule="nonzero" fill-opacity="1" /><path clip-path="url(#clip820)" d="M1063.14 2222.77 L1081.5 2222.77 L1081.5 2226.7 L1067.42 2226.7 L1067.42 2235.18 Q1068.44 2234.83 1069.46 2234.67 Q1070.48 2234.48 1071.5 2234.48 Q1077.28 2234.48 1080.66 2237.65 Q1084.04 2240.82 1084.04 2246.24 Q1084.04 2251.82 1080.57 2254.92 Q1077.1 2258 1070.78 2258 Q1068.6 2258 1066.34 2257.63 Q1064.09 2257.26 1061.68 2256.52 L1061.68 2251.82 Q1063.77 2252.95 1065.99 2253.51 Q1068.21 2254.06 1070.69 2254.06 Q1074.69 2254.06 1077.03 2251.96 Q1079.37 2249.85 1079.37 2246.24 Q1079.37 2242.63 1077.03 2240.52 Q1074.69 2238.42 1070.69 2238.42 Q1068.81 2238.42 1066.94 2238.83 Q1065.09 2239.25 1063.14 2240.13 L1063.14 2222.77 Z" fill="#000000" fill-rule="nonzero" fill-opacity="1" /><path clip-path="url(#clip820)" d="M1103.26 2225.85 Q1099.65 2225.85 1097.82 2229.41 Q1096.01 2232.95 1096.01 2240.08 Q1096.01 2247.19 1097.82 2250.75 Q1099.65 2254.3 1103.26 2254.3 Q1106.89 2254.3 1108.7 2250.75 Q1110.53 2247.19 1110.53 2240.08 Q1110.53 2232.95 1108.7 2229.41 Q1106.89 2225.85 1103.26 2225.85 M1103.26 2222.14 Q1109.07 2222.14 1112.12 2226.75 Q1115.2 2231.33 1115.2 2240.08 Q1115.2 2248.81 1112.12 2253.42 Q1109.07 2258 1103.26 2258 Q1097.45 2258 1094.37 2253.42 Q1091.31 2248.81 1091.31 2240.08 Q1091.31 2231.33 1094.37 2226.75 Q1097.45 2222.14 1103.26 2222.14 Z" fill="#000000" fill-rule="nonzero" fill-opacity="1" /><path clip-path="url(#clip820)" d="M1844.6 2253.39 L1852.24 2253.39 L1852.24 2227.03 L1843.93 2228.69 L1843.93 2224.44 L1852.19 2222.77 L1856.87 2222.77 L1856.87 2253.39 L1864.51 2253.39 L1864.51 2257.33 L1844.6 2257.33 L1844.6 2253.39 Z" fill="#000000" fill-rule="nonzero" fill-opacity="1" /><path clip-path="url(#clip820)" d="M1883.95 2225.85 Q1880.34 2225.85 1878.51 2229.41 Q1876.71 2232.95 1876.71 2240.08 Q1876.71 2247.19 1878.51 2250.75 Q1880.34 2254.3 1883.95 2254.3 Q1887.59 2254.3 1889.39 2250.75 Q1891.22 2247.19 1891.22 2240.08 Q1891.22 2232.95 1889.39 2229.41 Q1887.59 2225.85 1883.95 2225.85 M1883.95 2222.14 Q1889.76 2222.14 1892.82 2226.75 Q1895.9 2231.33 1895.9 2240.08 Q1895.9 2248.81 1892.82 2253.42 Q1889.76 2258 1883.95 2258 Q1878.14 2258 1875.06 2253.42 Q1872.01 2248.81 1872.01 2240.08 Q1872.01 2231.33 1875.06 2226.75 Q1878.14 2222.14 1883.95 2222.14 Z" fill="#000000" fill-rule="nonzero" fill-opacity="1" /><path clip-path="url(#clip820)" d="M1914.11 2225.85 Q1910.5 2225.85 1908.67 2229.41 Q1906.87 2232.95 1906.87 2240.08 Q1906.87 2247.19 1908.67 2250.75 Q1910.5 2254.3 1914.11 2254.3 Q1917.75 2254.3 1919.55 2250.75 Q1921.38 2247.19 1921.38 2240.08 Q1921.38 2232.95 1919.55 2229.41 Q1917.75 2225.85 1914.11 2225.85 M1914.11 2222.14 Q1919.92 2222.14 1922.98 2226.75 Q1926.06 2231.33 1926.06 2240.08 Q1926.06 2248.81 1922.98 2253.42 Q1919.92 2258 1914.11 2258 Q1908.3 2258 1905.22 2253.42 Q1902.17 2248.81 1902.17 2240.08 Q1902.17 2231.33 1905.22 2226.75 Q1908.3 2222.14 1914.11 2222.14 Z" fill="#000000" fill-rule="nonzero" fill-opacity="1" /><path clip-path="url(#clip820)" d="M2641.15 2253.39 L2648.79 2253.39 L2648.79 2227.03 L2640.48 2228.69 L2640.48 2224.44 L2648.74 2222.77 L2653.42 2222.77 L2653.42 2253.39 L2661.06 2253.39 L2661.06 2257.33 L2641.15 2257.33 L2641.15 2253.39 Z" fill="#000000" fill-rule="nonzero" fill-opacity="1" /><path clip-path="url(#clip820)" d="M2670.55 2222.77 L2688.91 2222.77 L2688.91 2226.7 L2674.83 2226.7 L2674.83 2235.18 Q2675.85 2234.83 2676.87 2234.67 Q2677.89 2234.48 2678.91 2234.48 Q2684.69 2234.48 2688.07 2237.65 Q2691.45 2240.82 2691.45 2246.24 Q2691.45 2251.82 2687.98 2254.92 Q2684.51 2258 2678.19 2258 Q2676.01 2258 2673.74 2257.63 Q2671.5 2257.26 2669.09 2256.52 L2669.09 2251.82 Q2671.17 2252.95 2673.4 2253.51 Q2675.62 2254.06 2678.1 2254.06 Q2682.1 2254.06 2684.44 2251.96 Q2686.78 2249.85 2686.78 2246.24 Q2686.78 2242.63 2684.44 2240.52 Q2682.1 2238.42 2678.1 2238.42 Q2676.22 2238.42 2674.35 2238.83 Q2672.49 2239.25 2670.55 2240.13 L2670.55 2222.77 Z" fill="#000000" fill-rule="nonzero" fill-opacity="1" /><path clip-path="url(#clip820)" d="M2710.66 2225.85 Q2707.05 2225.85 2705.22 2229.41 Q2703.42 2232.95 2703.42 2240.08 Q2703.42 2247.19 2705.22 2250.75 Q2707.05 2254.3 2710.66 2254.3 Q2714.3 2254.3 2716.1 2250.75 Q2717.93 2247.19 2717.93 2240.08 Q2717.93 2232.95 2716.1 2229.41 Q2714.3 2225.85 2710.66 2225.85 M2710.66 2222.14 Q2716.47 2222.14 2719.53 2226.75 Q2722.61 2231.33 2722.61 2240.08 Q2722.61 2248.81 2719.53 2253.42 Q2716.47 2258 2710.66 2258 Q2704.85 2258 2701.78 2253.42 Q2698.72 2248.81 2698.72 2240.08 Q2698.72 2231.33 2701.78 2226.75 Q2704.85 2222.14 2710.66 2222.14 Z" fill="#000000" fill-rule="nonzero" fill-opacity="1" /><path clip-path="url(#clip820)" d="M1362.4 2295.07 L1368.83 2295.07 L1368.83 2342.59 L1362.4 2342.59 L1362.4 2295.07 Z" fill="#000000" fill-rule="nonzero" fill-opacity="1" /><path clip-path="url(#clip820)" d="M1387.17 2296.82 L1387.17 2306.94 L1399.23 2306.94 L1399.23 2311.5 L1387.17 2311.5 L1387.17 2330.85 Q1387.17 2335.21 1388.34 2336.45 Q1389.55 2337.69 1393.21 2337.69 L1399.23 2337.69 L1399.23 2342.59 L1393.21 2342.59 Q1386.43 2342.59 1383.86 2340.08 Q1381.28 2337.53 1381.28 2330.85 L1381.28 2311.5 L1376.98 2311.5 L1376.98 2306.94 L1381.28 2306.94 L1381.28 2296.82 L1387.17 2296.82 Z" fill="#000000" fill-rule="nonzero" fill-opacity="1" /><path clip-path="url(#clip820)" d="M1437.42 2323.3 L1437.42 2326.17 L1410.5 2326.17 Q1410.88 2332.22 1414.12 2335.4 Q1417.4 2338.55 1423.23 2338.55 Q1426.6 2338.55 1429.75 2337.72 Q1432.94 2336.9 1436.05 2335.24 L1436.05 2340.78 Q1432.9 2342.11 1429.59 2342.82 Q1426.28 2343.52 1422.88 2343.52 Q1414.35 2343.52 1409.35 2338.55 Q1404.39 2333.58 1404.39 2325.12 Q1404.39 2316.37 1409.1 2311.24 Q1413.84 2306.09 1421.86 2306.09 Q1429.05 2306.09 1433.22 2310.73 Q1437.42 2315.35 1437.42 2323.3 M1431.57 2321.59 Q1431.5 2316.78 1428.86 2313.91 Q1426.25 2311.05 1421.92 2311.05 Q1417.02 2311.05 1414.06 2313.82 Q1411.13 2316.59 1410.69 2321.62 L1431.57 2321.59 Z" fill="#000000" fill-rule="nonzero" fill-opacity="1" /><path clip-path="url(#clip820)" d="M1467.69 2312.42 Q1466.71 2311.85 1465.53 2311.59 Q1464.38 2311.3 1462.98 2311.3 Q1458.02 2311.3 1455.34 2314.55 Q1452.7 2317.77 1452.7 2323.81 L1452.7 2342.59 L1446.81 2342.59 L1446.81 2306.94 L1452.7 2306.94 L1452.7 2312.48 Q1454.55 2309.24 1457.51 2307.68 Q1460.47 2306.09 1464.7 2306.09 Q1465.31 2306.09 1466.04 2306.18 Q1466.77 2306.24 1467.66 2306.4 L1467.69 2312.42 Z" fill="#000000" fill-rule="nonzero" fill-opacity="1" /><path clip-path="url(#clip820)" d="M1490.04 2324.67 Q1482.94 2324.67 1480.2 2326.3 Q1477.46 2327.92 1477.46 2331.83 Q1477.46 2334.95 1479.5 2336.8 Q1481.57 2338.61 1485.1 2338.61 Q1489.97 2338.61 1492.9 2335.18 Q1495.86 2331.71 1495.86 2325.98 L1495.86 2324.67 L1490.04 2324.67 M1501.72 2322.25 L1501.72 2342.59 L1495.86 2342.59 L1495.86 2337.18 Q1493.86 2340.43 1490.86 2341.99 Q1487.87 2343.52 1483.54 2343.52 Q1478.07 2343.52 1474.82 2340.46 Q1471.61 2337.37 1471.61 2332.22 Q1471.61 2326.2 1475.62 2323.15 Q1479.66 2320.09 1487.65 2320.09 L1495.86 2320.09 L1495.86 2319.52 Q1495.86 2315.47 1493.19 2313.28 Q1490.55 2311.05 1485.74 2311.05 Q1482.68 2311.05 1479.79 2311.78 Q1476.89 2312.51 1474.22 2313.98 L1474.22 2308.57 Q1477.43 2307.33 1480.46 2306.72 Q1483.48 2306.09 1486.34 2306.09 Q1494.08 2306.09 1497.9 2310.1 Q1501.72 2314.11 1501.72 2322.25 Z" fill="#000000" fill-rule="nonzero" fill-opacity="1" /><path clip-path="url(#clip820)" d="M1519.57 2296.82 L1519.57 2306.94 L1531.64 2306.94 L1531.64 2311.5 L1519.57 2311.5 L1519.57 2330.85 Q1519.57 2335.21 1520.75 2336.45 Q1521.96 2337.69 1525.62 2337.69 L1531.64 2337.69 L1531.64 2342.59 L1525.62 2342.59 Q1518.84 2342.59 1516.26 2340.08 Q1513.68 2337.53 1513.68 2330.85 L1513.68 2311.5 L1509.39 2311.5 L1509.39 2306.94 L1513.68 2306.94 L1513.68 2296.82 L1519.57 2296.82 Z" fill="#000000" fill-rule="nonzero" fill-opacity="1" /><path clip-path="url(#clip820)" d="M1539.34 2306.94 L1545.19 2306.94 L1545.19 2342.59 L1539.34 2342.59 L1539.34 2306.94 M1539.34 2293.07 L1545.19 2293.07 L1545.19 2300.48 L1539.34 2300.48 L1539.34 2293.07 Z" fill="#000000" fill-rule="nonzero" fill-opacity="1" /><path clip-path="url(#clip820)" d="M1571.26 2311.05 Q1566.55 2311.05 1563.81 2314.74 Q1561.08 2318.4 1561.08 2324.8 Q1561.08 2331.2 1563.78 2334.89 Q1566.52 2338.55 1571.26 2338.55 Q1575.94 2338.55 1578.68 2334.86 Q1581.42 2331.17 1581.42 2324.8 Q1581.42 2318.47 1578.68 2314.77 Q1575.94 2311.05 1571.26 2311.05 M1571.26 2306.09 Q1578.9 2306.09 1583.26 2311.05 Q1587.62 2316.02 1587.62 2324.8 Q1587.62 2333.55 1583.26 2338.55 Q1578.9 2343.52 1571.26 2343.52 Q1563.59 2343.52 1559.23 2338.55 Q1554.9 2333.55 1554.9 2324.8 Q1554.9 2316.02 1559.23 2311.05 Q1563.59 2306.09 1571.26 2306.09 Z" fill="#000000" fill-rule="nonzero" fill-opacity="1" /><path clip-path="url(#clip820)" d="M1626.96 2321.08 L1626.96 2342.59 L1621.11 2342.59 L1621.11 2321.27 Q1621.11 2316.21 1619.13 2313.69 Q1617.16 2311.18 1613.21 2311.18 Q1608.47 2311.18 1605.73 2314.2 Q1603 2317.23 1603 2322.44 L1603 2342.59 L1597.11 2342.59 L1597.11 2306.94 L1603 2306.94 L1603 2312.48 Q1605.1 2309.27 1607.93 2307.68 Q1610.79 2306.09 1614.52 2306.09 Q1620.66 2306.09 1623.81 2309.9 Q1626.96 2313.69 1626.96 2321.08 Z" fill="#000000" fill-rule="nonzero" fill-opacity="1" /><polyline clip-path="url(#clip820)" style="stroke:#000000; stroke-linecap:round; stroke-linejoin:round; stroke-width:4; stroke-opacity:1; fill:none" points="236.61,2191.73 236.61,1883.12 "/>
<polyline clip-path="url(#clip820)" style="stroke:#000000; stroke-linecap:round; stroke-linejoin:round; stroke-width:4; stroke-opacity:1; fill:none" points="236.61,2152.79 255.508,2152.79 "/>
<polyline clip-path="url(#clip820)" style="stroke:#000000; stroke-linecap:round; stroke-linejoin:round; stroke-width:4; stroke-opacity:1; fill:none" points="236.61,2099.49 255.508,2099.49 "/>
<polyline clip-path="url(#clip820)" style="stroke:#000000; stroke-linecap:round; stroke-linejoin:round; stroke-width:4; stroke-opacity:1; fill:none" points="236.61,2046.19 255.508,2046.19 "/>
<polyline clip-path="url(#clip820)" style="stroke:#000000; stroke-linecap:round; stroke-linejoin:round; stroke-width:4; stroke-opacity:1; fill:none" points="236.61,1992.9 255.508,1992.9 "/>
<polyline clip-path="url(#clip820)" style="stroke:#000000; stroke-linecap:round; stroke-linejoin:round; stroke-width:4; stroke-opacity:1; fill:none" points="236.61,1939.6 255.508,1939.6 "/>
<polyline clip-path="url(#clip820)" style="stroke:#000000; stroke-linecap:round; stroke-linejoin:round; stroke-width:4; stroke-opacity:1; fill:none" points="236.61,1886.3 255.508,1886.3 "/>
<path clip-path="url(#clip820)" d="M138.43 2138.59 Q134.819 2138.59 132.99 2142.15 Q131.184 2145.69 131.184 2152.82 Q131.184 2159.93 132.99 2163.49 Q134.819 2167.04 138.43 2167.04 Q142.064 2167.04 143.87 2163.49 Q145.698 2159.93 145.698 2152.82 Q145.698 2145.69 143.87 2142.15 Q142.064 2138.59 138.43 2138.59 M138.43 2134.88 Q144.24 2134.88 147.296 2139.49 Q150.374 2144.07 150.374 2152.82 Q150.374 2161.55 147.296 2166.16 Q144.24 2170.74 138.43 2170.74 Q132.62 2170.74 129.541 2166.16 Q126.485 2161.55 126.485 2152.82 Q126.485 2144.07 129.541 2139.49 Q132.62 2134.88 138.43 2134.88 Z" fill="#000000" fill-rule="nonzero" fill-opacity="1" /><path clip-path="url(#clip820)" d="M158.592 2164.19 L163.476 2164.19 L163.476 2170.07 L158.592 2170.07 L158.592 2164.19 Z" fill="#000000" fill-rule="nonzero" fill-opacity="1" /><path clip-path="url(#clip820)" d="M173.707 2135.51 L192.064 2135.51 L192.064 2139.44 L177.99 2139.44 L177.99 2147.92 Q179.008 2147.57 180.027 2147.41 Q181.045 2147.22 182.064 2147.22 Q187.851 2147.22 191.23 2150.39 Q194.61 2153.56 194.61 2158.98 Q194.61 2164.56 191.138 2167.66 Q187.666 2170.74 181.346 2170.74 Q179.17 2170.74 176.902 2170.37 Q174.656 2170 172.249 2169.26 L172.249 2164.56 Q174.332 2165.69 176.555 2166.25 Q178.777 2166.8 181.254 2166.8 Q185.258 2166.8 187.596 2164.7 Q189.934 2162.59 189.934 2158.98 Q189.934 2155.37 187.596 2153.26 Q185.258 2151.16 181.254 2151.16 Q179.379 2151.16 177.504 2151.57 Q175.652 2151.99 173.707 2152.87 L173.707 2135.51 Z" fill="#000000" fill-rule="nonzero" fill-opacity="1" /><path clip-path="url(#clip820)" d="M128.245 2112.84 L135.884 2112.84 L135.884 2086.47 L127.573 2088.14 L127.573 2083.88 L135.837 2082.21 L140.513 2082.21 L140.513 2112.84 L148.152 2112.84 L148.152 2116.77 L128.245 2116.77 L128.245 2112.84 Z" fill="#000000" fill-rule="nonzero" fill-opacity="1" /><path clip-path="url(#clip820)" d="M157.596 2110.89 L162.481 2110.89 L162.481 2116.77 L157.596 2116.77 L157.596 2110.89 Z" fill="#000000" fill-rule="nonzero" fill-opacity="1" /><path clip-path="url(#clip820)" d="M182.666 2085.29 Q179.055 2085.29 177.226 2088.85 Q175.42 2092.4 175.42 2099.53 Q175.42 2106.63 177.226 2110.2 Q179.055 2113.74 182.666 2113.74 Q186.3 2113.74 188.105 2110.2 Q189.934 2106.63 189.934 2099.53 Q189.934 2092.4 188.105 2088.85 Q186.3 2085.29 182.666 2085.29 M182.666 2081.59 Q188.476 2081.59 191.531 2086.19 Q194.61 2090.78 194.61 2099.53 Q194.61 2108.25 191.531 2112.86 Q188.476 2117.44 182.666 2117.44 Q176.856 2117.44 173.777 2112.86 Q170.721 2108.25 170.721 2099.53 Q170.721 2090.78 173.777 2086.19 Q176.856 2081.59 182.666 2081.59 Z" fill="#000000" fill-rule="nonzero" fill-opacity="1" /><path clip-path="url(#clip820)" d="M129.24 2059.54 L136.879 2059.54 L136.879 2033.17 L128.569 2034.84 L128.569 2030.58 L136.833 2028.91 L141.509 2028.91 L141.509 2059.54 L149.147 2059.54 L149.147 2063.47 L129.24 2063.47 L129.24 2059.54 Z" fill="#000000" fill-rule="nonzero" fill-opacity="1" /><path clip-path="url(#clip820)" d="M158.592 2057.59 L163.476 2057.59 L163.476 2063.47 L158.592 2063.47 L158.592 2057.59 Z" fill="#000000" fill-rule="nonzero" fill-opacity="1" /><path clip-path="url(#clip820)" d="M173.707 2028.91 L192.064 2028.91 L192.064 2032.85 L177.99 2032.85 L177.99 2041.32 Q179.008 2040.97 180.027 2040.81 Q181.045 2040.63 182.064 2040.63 Q187.851 2040.63 191.23 2043.8 Q194.61 2046.97 194.61 2052.39 Q194.61 2057.96 191.138 2061.07 Q187.666 2064.14 181.346 2064.14 Q179.17 2064.14 176.902 2063.77 Q174.656 2063.4 172.249 2062.66 L172.249 2057.96 Q174.332 2059.1 176.555 2059.65 Q178.777 2060.21 181.254 2060.21 Q185.258 2060.21 187.596 2058.1 Q189.934 2056 189.934 2052.39 Q189.934 2048.77 187.596 2046.67 Q185.258 2044.56 181.254 2044.56 Q179.379 2044.56 177.504 2044.98 Q175.652 2045.39 173.707 2046.27 L173.707 2028.91 Z" fill="#000000" fill-rule="nonzero" fill-opacity="1" /><path clip-path="url(#clip820)" d="M131.462 2006.24 L147.782 2006.24 L147.782 2010.18 L125.837 2010.18 L125.837 2006.24 Q128.499 2003.49 133.083 1998.86 Q137.689 1994.2 138.87 1992.86 Q141.115 1990.34 141.995 1988.6 Q142.897 1986.84 142.897 1985.15 Q142.897 1982.4 140.953 1980.66 Q139.032 1978.93 135.93 1978.93 Q133.731 1978.93 131.277 1979.69 Q128.847 1980.45 126.069 1982 L126.069 1977.28 Q128.893 1976.15 131.347 1975.57 Q133.8 1974.99 135.837 1974.99 Q141.208 1974.99 144.402 1977.68 Q147.596 1980.36 147.596 1984.85 Q147.596 1986.98 146.786 1988.9 Q145.999 1990.8 143.893 1993.39 Q143.314 1994.06 140.212 1997.28 Q137.11 2000.48 131.462 2006.24 Z" fill="#000000" fill-rule="nonzero" fill-opacity="1" /><path clip-path="url(#clip820)" d="M157.596 2004.3 L162.481 2004.3 L162.481 2010.18 L157.596 2010.18 L157.596 2004.3 Z" fill="#000000" fill-rule="nonzero" fill-opacity="1" /><path clip-path="url(#clip820)" d="M182.666 1978.69 Q179.055 1978.69 177.226 1982.26 Q175.42 1985.8 175.42 1992.93 Q175.42 2000.04 177.226 2003.6 Q179.055 2007.14 182.666 2007.14 Q186.3 2007.14 188.105 2003.6 Q189.934 2000.04 189.934 1992.93 Q189.934 1985.8 188.105 1982.26 Q186.3 1978.69 182.666 1978.69 M182.666 1974.99 Q188.476 1974.99 191.531 1979.6 Q194.61 1984.18 194.61 1992.93 Q194.61 2001.66 191.531 2006.26 Q188.476 2010.85 182.666 2010.85 Q176.856 2010.85 173.777 2006.26 Q170.721 2001.66 170.721 1992.93 Q170.721 1984.18 173.777 1979.6 Q176.856 1974.99 182.666 1974.99 Z" fill="#000000" fill-rule="nonzero" fill-opacity="1" /><path clip-path="url(#clip820)" d="M132.458 1952.94 L148.777 1952.94 L148.777 1956.88 L126.833 1956.88 L126.833 1952.94 Q129.495 1950.19 134.078 1945.56 Q138.684 1940.91 139.865 1939.56 Q142.11 1937.04 142.99 1935.3 Q143.893 1933.54 143.893 1931.85 Q143.893 1929.1 141.948 1927.36 Q140.027 1925.63 136.925 1925.63 Q134.726 1925.63 132.272 1926.39 Q129.842 1927.16 127.064 1928.71 L127.064 1923.98 Q129.888 1922.85 132.342 1922.27 Q134.796 1921.69 136.833 1921.69 Q142.203 1921.69 145.397 1924.38 Q148.592 1927.06 148.592 1931.55 Q148.592 1933.68 147.782 1935.6 Q146.995 1937.5 144.888 1940.09 Q144.309 1940.77 141.208 1943.98 Q138.106 1947.18 132.458 1952.94 Z" fill="#000000" fill-rule="nonzero" fill-opacity="1" /><path clip-path="url(#clip820)" d="M158.592 1951 L163.476 1951 L163.476 1956.88 L158.592 1956.88 L158.592 1951 Z" fill="#000000" fill-rule="nonzero" fill-opacity="1" /><path clip-path="url(#clip820)" d="M173.707 1922.32 L192.064 1922.32 L192.064 1926.25 L177.99 1926.25 L177.99 1934.72 Q179.008 1934.38 180.027 1934.22 Q181.045 1934.03 182.064 1934.03 Q187.851 1934.03 191.23 1937.2 Q194.61 1940.37 194.61 1945.79 Q194.61 1951.37 191.138 1954.47 Q187.666 1957.55 181.346 1957.55 Q179.17 1957.55 176.902 1957.18 Q174.656 1956.81 172.249 1956.07 L172.249 1951.37 Q174.332 1952.5 176.555 1953.06 Q178.777 1953.61 181.254 1953.61 Q185.258 1953.61 187.596 1951.51 Q189.934 1949.4 189.934 1945.79 Q189.934 1942.18 187.596 1940.07 Q185.258 1937.97 181.254 1937.97 Q179.379 1937.97 177.504 1938.38 Q175.652 1938.8 173.707 1939.68 L173.707 1922.32 Z" fill="#000000" fill-rule="nonzero" fill-opacity="1" /><path clip-path="url(#clip820)" d="M141.601 1884.95 Q144.958 1885.66 146.833 1887.93 Q148.731 1890.2 148.731 1893.53 Q148.731 1898.65 145.212 1901.45 Q141.694 1904.25 135.212 1904.25 Q133.036 1904.25 130.722 1903.81 Q128.43 1903.39 125.976 1902.54 L125.976 1898.02 Q127.921 1899.16 130.235 1899.74 Q132.55 1900.32 135.073 1900.32 Q139.471 1900.32 141.763 1898.58 Q144.078 1896.84 144.078 1893.53 Q144.078 1890.48 141.925 1888.76 Q139.796 1887.03 135.976 1887.03 L131.948 1887.03 L131.948 1883.19 L136.161 1883.19 Q139.61 1883.19 141.439 1881.82 Q143.268 1880.43 143.268 1877.84 Q143.268 1875.18 141.37 1873.76 Q139.495 1872.33 135.976 1872.33 Q134.055 1872.33 131.856 1872.75 Q129.657 1873.16 127.018 1874.04 L127.018 1869.88 Q129.68 1869.14 131.995 1868.76 Q134.333 1868.39 136.393 1868.39 Q141.717 1868.39 144.819 1870.83 Q147.921 1873.23 147.921 1877.35 Q147.921 1880.22 146.277 1882.21 Q144.633 1884.18 141.601 1884.95 Z" fill="#000000" fill-rule="nonzero" fill-opacity="1" /><path clip-path="url(#clip820)" d="M157.596 1897.7 L162.481 1897.7 L162.481 1903.58 L157.596 1903.58 L157.596 1897.7 Z" fill="#000000" fill-rule="nonzero" fill-opacity="1" /><path clip-path="url(#clip820)" d="M182.666 1872.1 Q179.055 1872.1 177.226 1875.66 Q175.42 1879.2 175.42 1886.33 Q175.42 1893.44 177.226 1897.01 Q179.055 1900.55 182.666 1900.55 Q186.3 1900.55 188.105 1897.01 Q189.934 1893.44 189.934 1886.33 Q189.934 1879.2 188.105 1875.66 Q186.3 1872.1 182.666 1872.1 M182.666 1868.39 Q188.476 1868.39 191.531 1873 Q194.61 1877.58 194.61 1886.33 Q194.61 1895.06 191.531 1899.67 Q188.476 1904.25 182.666 1904.25 Q176.856 1904.25 173.777 1899.67 Q170.721 1895.06 170.721 1886.33 Q170.721 1877.58 173.777 1873 Q176.856 1868.39 182.666 1868.39 Z" fill="#000000" fill-rule="nonzero" fill-opacity="1" /><path clip-path="url(#clip820)" d="M69.5813 2106.79 L22.0613 2124.94 L22.0613 2118.22 L62.0698 2103.17 L22.0613 2088.08 L22.0613 2081.39 L69.5813 2099.5 L69.5813 2106.79 Z" fill="#000000" fill-rule="nonzero" fill-opacity="1" /><path clip-path="url(#clip820)" d="M51.6618 2063.57 Q51.6618 2070.67 53.2851 2073.41 Q54.9083 2076.14 58.8233 2076.14 Q61.9425 2076.14 63.7885 2074.11 Q65.6027 2072.04 65.6027 2068.5 Q65.6027 2063.63 62.1653 2060.71 Q58.6959 2057.75 52.9668 2057.75 L51.6618 2057.75 L51.6618 2063.57 M49.2429 2051.89 L69.5813 2051.89 L69.5813 2057.75 L64.1704 2057.75 Q67.417 2059.75 68.9766 2062.74 Q70.5043 2065.73 70.5043 2070.06 Q70.5043 2075.54 67.4488 2078.78 Q64.3614 2082 59.2052 2082 Q53.1896 2082 50.1341 2077.99 Q47.0785 2073.95 47.0785 2065.96 L47.0785 2057.75 L46.5056 2057.75 Q42.4634 2057.75 40.2672 2060.42 Q38.0392 2063.06 38.0392 2067.87 Q38.0392 2070.92 38.7713 2073.82 Q39.5033 2076.72 40.9674 2079.39 L35.5566 2079.39 Q34.3153 2076.17 33.7105 2073.15 Q33.074 2070.13 33.074 2067.26 Q33.074 2059.53 37.0844 2055.71 Q41.0948 2051.89 49.2429 2051.89 Z" fill="#000000" fill-rule="nonzero" fill-opacity="1" /><path clip-path="url(#clip820)" d="M20.0561 2039.83 L20.0561 2033.97 L69.5813 2033.97 L69.5813 2039.83 L20.0561 2039.83 Z" fill="#000000" fill-rule="nonzero" fill-opacity="1" /><path clip-path="url(#clip820)" d="M55.5131 2022.32 L33.9333 2022.32 L33.9333 2016.46 L55.2903 2016.46 Q60.351 2016.46 62.8973 2014.49 Q65.4118 2012.52 65.4118 2008.57 Q65.4118 2003.83 62.3881 2001.09 Q59.3643 1998.32 54.1445 1998.32 L33.9333 1998.32 L33.9333 1992.47 L69.5813 1992.47 L69.5813 1998.32 L64.1068 1998.32 Q67.3533 2000.45 68.9447 2003.29 Q70.5043 2006.09 70.5043 2009.81 Q70.5043 2015.95 66.6849 2019.14 Q62.8655 2022.32 55.5131 2022.32 M33.074 2007.58 L33.074 2007.58 Z" fill="#000000" fill-rule="nonzero" fill-opacity="1" /><path clip-path="url(#clip820)" d="M50.2932 1949.91 L53.1578 1949.91 L53.1578 1976.84 Q59.2052 1976.46 62.3881 1973.21 Q65.5391 1969.93 65.5391 1964.11 Q65.5391 1960.73 64.7115 1957.58 Q63.884 1954.4 62.2289 1951.28 L67.7671 1951.28 Q69.1039 1954.43 69.8041 1957.74 Q70.5043 1961.05 70.5043 1964.46 Q70.5043 1972.99 65.5391 1977.98 Q60.5738 1982.95 52.1074 1982.95 Q43.3546 1982.95 38.2302 1978.24 Q33.074 1973.5 33.074 1965.47 Q33.074 1958.28 37.7209 1954.11 Q42.3361 1949.91 50.2932 1949.91 M48.5745 1955.77 Q43.7684 1955.83 40.9038 1958.47 Q38.0392 1961.08 38.0392 1965.41 Q38.0392 1970.31 40.8083 1973.27 Q43.5774 1976.2 48.6063 1976.65 L48.5745 1955.77 Z" fill="#000000" fill-rule="nonzero" fill-opacity="1" /><path clip-path="url(#clip820)" d="M1448.54 1791.73 Q1448.54 1783.63 1445.18 1779.17 Q1441.86 1774.72 1435.82 1774.72 Q1429.83 1774.72 1426.47 1779.17 Q1423.14 1783.63 1423.14 1791.73 Q1423.14 1799.79 1426.47 1804.25 Q1429.83 1808.7 1435.82 1808.7 Q1441.86 1808.7 1445.18 1804.25 Q1448.54 1799.79 1448.54 1791.73 M1456 1809.31 Q1456 1820.9 1450.85 1826.53 Q1445.71 1832.2 1435.09 1832.2 Q1431.16 1832.2 1427.68 1831.59 Q1424.2 1831.02 1420.92 1829.81 L1420.92 1822.56 Q1424.2 1824.34 1427.4 1825.19 Q1430.6 1826.04 1433.92 1826.04 Q1441.25 1826.04 1444.9 1822.19 Q1448.54 1818.39 1448.54 1810.65 L1448.54 1806.96 Q1446.23 1810.97 1442.63 1812.96 Q1439.02 1814.94 1434 1814.94 Q1425.66 1814.94 1420.55 1808.58 Q1415.45 1802.22 1415.45 1791.73 Q1415.45 1781.2 1420.55 1774.84 Q1425.66 1768.48 1434 1768.48 Q1439.02 1768.48 1442.63 1770.46 Q1446.23 1772.45 1448.54 1776.46 L1448.54 1769.57 L1456 1769.57 L1456 1809.31 Z" fill="#000000" fill-rule="nonzero" fill-opacity="1" /><path clip-path="url(#clip820)" d="M1470.66 1751.91 L1487.84 1751.91 L1487.84 1757.7 L1478.11 1757.7 L1478.11 1820.09 L1487.84 1820.09 L1487.84 1825.88 L1470.66 1825.88 L1470.66 1751.91 Z" fill="#000000" fill-rule="nonzero" fill-opacity="1" /><path clip-path="url(#clip820)" d="M1527.25 1761.59 L1506.59 1793.88 L1527.25 1793.88 L1527.25 1761.59 M1525.11 1754.46 L1535.39 1754.46 L1535.39 1793.88 L1544.02 1793.88 L1544.02 1800.68 L1535.39 1800.68 L1535.39 1814.94 L1527.25 1814.94 L1527.25 1800.68 L1499.95 1800.68 L1499.95 1792.78 L1525.11 1754.46 Z" fill="#000000" fill-rule="nonzero" fill-opacity="1" /><path clip-path="url(#clip820)" d="M1573.92 1751.91 L1573.92 1825.88 L1556.74 1825.88 L1556.74 1820.09 L1566.42 1820.09 L1566.42 1757.7 L1556.74 1757.7 L1556.74 1751.91 L1573.92 1751.91 Z" fill="#000000" fill-rule="nonzero" fill-opacity="1" /><polyline clip-path="url(#clip821)" style="stroke:#ff8c00; stroke-linecap:round; stroke-linejoin:round; stroke-width:4; stroke-opacity:0.7; fill:none" points="307.822,2125.82 323.753,2158.27 339.684,2151.54 355.615,2125.3 371.546,2125.8 387.477,2136.35 403.408,2135.64 419.339,2118.9 435.27,2108.52 451.201,2121.06 467.132,2029.19 483.063,2016.41 498.994,2034.45 514.925,2030.28 530.856,2035.09 546.787,2027.36 562.718,2068.27 578.649,2070.09 594.58,2054.29 610.511,2144.52 626.442,2179.5 642.373,2177.11 658.304,2176.75 674.235,2182.02 690.166,2177.06 706.097,2180.46 722.028,2170.95 737.959,2178.8 753.89,2175.49 769.821,2167.13 785.752,2019.47 801.683,2024.49 817.615,2030.59 833.546,1955.27 849.477,1938.76 865.408,1948.67 881.339,1984.89 897.27,1975.47 913.201,2100.08 929.132,2096.52 945.063,2096.18 960.994,2092.76 976.925,2086.47 992.856,2090.34 1008.79,2067.71 1024.72,2080.64 1040.65,2077.06 1056.58,2062.93 1072.51,2112.16 1088.44,2114.29 1104.37,2119 1120.3,2109.61 1136.23,2170.85 1152.17,2170.09 1168.1,2170.42 1184.03,2157.5 1199.96,2144.64 1215.89,2149.44 1231.82,2066.35 1247.75,2087.04 1263.68,2097.47 1279.61,2087.06 1295.55,2073.49 1311.48,2093.77 1327.41,2076.27 1343.34,2171.51 1359.27,2172.87 1375.2,2134.59 1391.13,2132.92 1407.06,2124.56 1422.99,2172.63 1438.92,2165.61 1454.86,2157.41 1470.79,2177.05 1486.72,2155.76 1502.65,2178.38 1518.58,2152.34 1534.51,2169.54 1550.44,2153.64 1566.37,2161.46 1582.3,2162.65 1598.23,2159.79 1614.17,2148.39 1630.1,2150.97 1646.03,2137.38 1661.96,2156.98 1677.89,2150.63 1693.82,2151.6 1709.75,2142.14 1725.68,2140.5 1741.61,2127.44 1757.54,2128.49 1773.48,2127.03 1789.41,2114.31 1805.34,2154.43 1821.27,2152.53 1837.2,2152.13 1853.13,2172.34 1869.06,2100.72 1884.99,2103.1 1900.92,2097.8 1916.86,2100.51 1932.79,2134.62 1948.72,2134.09 1964.65,2134.28 1980.58,2153.72 1996.51,2166.7 2012.44,2155.88 2028.37,2164.83 2044.3,2170.45 2060.23,2120.03 2076.17,2168.48 2092.1,2167.86 2108.03,2182.99 2123.96,2178.12 2139.89,2181.18 2155.82,2104.46 2171.75,2071.75 2187.68,2067.28 2203.61,2069.73 2219.54,2064.49 2235.48,2058.24 2251.41,2070.71 2267.34,2059.96 2283.27,2069.6 2299.2,2058.81 2315.13,2076.87 2331.06,2050.36 2346.99,2051.13 2362.92,2058.45 2378.85,2057.44 2394.79,1892.11 2410.72,1962.43 2426.65,1942.86 2442.58,1946.08 2458.51,1895.69 2474.44,1900.02 2490.37,1907.01 2506.3,1906.24 2522.23,1893.05 2538.17,1891.85 2554.1,1900.12 2570.03,1913.28 2585.96,1915.99 2601.89,1913 2617.82,1910.03 2633.75,1909.67 2649.68,1913.13 2665.61,1948.58 2681.54,1942.59 "/>
</svg>
