<?xml version="1.0" encoding="utf-8"?>
<svg xmlns="http://www.w3.org/2000/svg" xmlns:xlink="http://www.w3.org/1999/xlink" width="672" height="480" viewBox="0 0 2688 1920">
<defs>
  <clipPath id="clip050">
    <rect x="0" y="0" width="2688" height="1920"/>
  </clipPath>
</defs>
<path clip-path="url(#clip050)" d="M0 1920 L2688 1920 L2688 -4.26326e-14 L0 -4.26326e-14  Z" fill="#ffffff" fill-rule="evenodd" fill-opacity="1"/>
<defs>
  <clipPath id="clip051">
    <rect x="255" y="127" width="2386" height="1607"/>
  </clipPath>
</defs>
<path clip-path="url(#clip050)" d="M255.816 1734.12 L2640.76 1734.12 L2640.76 127.792 L255.816 127.792  Z" fill="#ffffff" fill-rule="evenodd" fill-opacity="1"/>
<polyline clip-path="url(#clip051)" style="stroke:#000000; stroke-linecap:round; stroke-linejoin:round; stroke-width:2; stroke-opacity:0.1; fill:none" points="323.315,1734.12 323.315,127.792 "/>
<polyline clip-path="url(#clip051)" style="stroke:#000000; stroke-linecap:round; stroke-linejoin:round; stroke-width:2; stroke-opacity:0.1; fill:none" points="885.8,1734.12 885.8,127.792 "/>
<polyline clip-path="url(#clip051)" style="stroke:#000000; stroke-linecap:round; stroke-linejoin:round; stroke-width:2; stroke-opacity:0.1; fill:none" points="1448.29,1734.12 1448.29,127.792 "/>
<polyline clip-path="url(#clip051)" style="stroke:#000000; stroke-linecap:round; stroke-linejoin:round; stroke-width:2; stroke-opacity:0.1; fill:none" points="2010.77,1734.12 2010.77,127.792 "/>
<polyline clip-path="url(#clip051)" style="stroke:#000000; stroke-linecap:round; stroke-linejoin:round; stroke-width:2; stroke-opacity:0.1; fill:none" points="2573.26,1734.12 2573.26,127.792 "/>
<polyline clip-path="url(#clip051)" style="stroke:#000000; stroke-linecap:round; stroke-linejoin:round; stroke-width:2; stroke-opacity:0.1; fill:none" points="255.816,1692.77 2640.76,1692.77 "/>
<polyline clip-path="url(#clip051)" style="stroke:#000000; stroke-linecap:round; stroke-linejoin:round; stroke-width:2; stroke-opacity:0.1; fill:none" points="255.816,1309.06 2640.76,1309.06 "/>
<polyline clip-path="url(#clip051)" style="stroke:#000000; stroke-linecap:round; stroke-linejoin:round; stroke-width:2; stroke-opacity:0.1; fill:none" points="255.816,925.34 2640.76,925.34 "/>
<polyline clip-path="url(#clip051)" style="stroke:#000000; stroke-linecap:round; stroke-linejoin:round; stroke-width:2; stroke-opacity:0.1; fill:none" points="255.816,541.623 2640.76,541.623 "/>
<polyline clip-path="url(#clip051)" style="stroke:#000000; stroke-linecap:round; stroke-linejoin:round; stroke-width:2; stroke-opacity:0.1; fill:none" points="255.816,157.905 2640.76,157.905 "/>
<polyline clip-path="url(#clip050)" style="stroke:#000000; stroke-linecap:round; stroke-linejoin:round; stroke-width:4; stroke-opacity:1; fill:none" points="255.816,1734.12 2640.76,1734.12 "/>
<polyline clip-path="url(#clip050)" style="stroke:#000000; stroke-linecap:round; stroke-linejoin:round; stroke-width:4; stroke-opacity:1; fill:none" points="323.315,1734.12 323.315,1715.22 "/>
<polyline clip-path="url(#clip050)" style="stroke:#000000; stroke-linecap:round; stroke-linejoin:round; stroke-width:4; stroke-opacity:1; fill:none" points="885.8,1734.12 885.8,1715.22 "/>
<polyline clip-path="url(#clip050)" style="stroke:#000000; stroke-linecap:round; stroke-linejoin:round; stroke-width:4; stroke-opacity:1; fill:none" points="1448.29,1734.12 1448.29,1715.22 "/>
<polyline clip-path="url(#clip050)" style="stroke:#000000; stroke-linecap:round; stroke-linejoin:round; stroke-width:4; stroke-opacity:1; fill:none" points="2010.77,1734.12 2010.77,1715.22 "/>
<polyline clip-path="url(#clip050)" style="stroke:#000000; stroke-linecap:round; stroke-linejoin:round; stroke-width:4; stroke-opacity:1; fill:none" points="2573.26,1734.12 2573.26,1715.22 "/>
<path clip-path="url(#clip050)" d="M323.315 1767.34 Q319.704 1767.34 317.875 1770.9 Q316.069 1774.45 316.069 1781.58 Q316.069 1788.68 317.875 1792.25 Q319.704 1795.79 323.315 1795.79 Q326.949 1795.79 328.754 1792.25 Q330.583 1788.68 330.583 1781.58 Q330.583 1774.45 328.754 1770.9 Q326.949 1767.34 323.315 1767.34 M323.315 1763.64 Q329.125 1763.64 332.18 1768.24 Q335.259 1772.83 335.259 1781.58 Q335.259 1790.3 332.18 1794.91 Q329.125 1799.49 323.315 1799.49 Q317.504 1799.49 314.426 1794.91 Q311.37 1790.3 311.37 1781.58 Q311.37 1772.83 314.426 1768.24 Q317.504 1763.64 323.315 1763.64 Z" fill="#000000" fill-rule="nonzero" fill-opacity="1" /><path clip-path="url(#clip050)" d="M860.488 1794.89 L868.127 1794.89 L868.127 1768.52 L859.817 1770.19 L859.817 1765.93 L868.081 1764.26 L872.756 1764.26 L872.756 1794.89 L880.395 1794.89 L880.395 1798.82 L860.488 1798.82 L860.488 1794.89 Z" fill="#000000" fill-rule="nonzero" fill-opacity="1" /><path clip-path="url(#clip050)" d="M899.84 1767.34 Q896.229 1767.34 894.4 1770.9 Q892.594 1774.45 892.594 1781.58 Q892.594 1788.68 894.4 1792.25 Q896.229 1795.79 899.84 1795.79 Q903.474 1795.79 905.279 1792.25 Q907.108 1788.68 907.108 1781.58 Q907.108 1774.45 905.279 1770.9 Q903.474 1767.34 899.84 1767.34 M899.84 1763.64 Q905.65 1763.64 908.705 1768.24 Q911.784 1772.83 911.784 1781.58 Q911.784 1790.3 908.705 1794.91 Q905.65 1799.49 899.84 1799.49 Q894.029 1799.49 890.951 1794.91 Q887.895 1790.3 887.895 1781.58 Q887.895 1772.83 890.951 1768.24 Q894.029 1763.64 899.84 1763.64 Z" fill="#000000" fill-rule="nonzero" fill-opacity="1" /><path clip-path="url(#clip050)" d="M1427.06 1794.89 L1443.38 1794.89 L1443.38 1798.82 L1421.43 1798.82 L1421.43 1794.89 Q1424.1 1792.13 1428.68 1787.5 Q1433.29 1782.85 1434.47 1781.51 Q1436.71 1778.98 1437.59 1777.25 Q1438.49 1775.49 1438.49 1773.8 Q1438.49 1771.04 1436.55 1769.31 Q1434.63 1767.57 1431.53 1767.57 Q1429.33 1767.57 1426.87 1768.34 Q1424.44 1769.1 1421.67 1770.65 L1421.67 1765.93 Q1424.49 1764.79 1426.94 1764.21 Q1429.4 1763.64 1431.43 1763.64 Q1436.8 1763.64 1440 1766.32 Q1443.19 1769.01 1443.19 1773.5 Q1443.19 1775.63 1442.38 1777.55 Q1441.6 1779.45 1439.49 1782.04 Q1438.91 1782.71 1435.81 1785.93 Q1432.71 1789.12 1427.06 1794.89 Z" fill="#000000" fill-rule="nonzero" fill-opacity="1" /><path clip-path="url(#clip050)" d="M1463.19 1767.34 Q1459.58 1767.34 1457.75 1770.9 Q1455.95 1774.45 1455.95 1781.58 Q1455.95 1788.68 1457.75 1792.25 Q1459.58 1795.79 1463.19 1795.79 Q1466.83 1795.79 1468.63 1792.25 Q1470.46 1788.68 1470.46 1781.58 Q1470.46 1774.45 1468.63 1770.9 Q1466.83 1767.34 1463.19 1767.34 M1463.19 1763.64 Q1469 1763.64 1472.06 1768.24 Q1475.14 1772.83 1475.14 1781.58 Q1475.14 1790.3 1472.06 1794.91 Q1469 1799.49 1463.19 1799.49 Q1457.38 1799.49 1454.3 1794.91 Q1451.25 1790.3 1451.25 1781.58 Q1451.25 1772.83 1454.3 1768.24 Q1457.38 1763.64 1463.19 1763.64 Z" fill="#000000" fill-rule="nonzero" fill-opacity="1" /><path clip-path="url(#clip050)" d="M1999.61 1780.19 Q2002.97 1780.9 2004.85 1783.17 Q2006.74 1785.44 2006.74 1788.77 Q2006.74 1793.89 2003.23 1796.69 Q1999.71 1799.49 1993.23 1799.49 Q1991.05 1799.49 1988.73 1799.05 Q1986.44 1798.64 1983.99 1797.78 L1983.99 1793.27 Q1985.93 1794.4 1988.25 1794.98 Q1990.56 1795.56 1993.09 1795.56 Q1997.48 1795.56 1999.78 1793.82 Q2002.09 1792.08 2002.09 1788.77 Q2002.09 1785.72 1999.94 1784.01 Q1997.81 1782.27 1993.99 1782.27 L1989.96 1782.27 L1989.96 1778.43 L1994.17 1778.43 Q1997.62 1778.43 1999.45 1777.06 Q2001.28 1775.67 2001.28 1773.08 Q2001.28 1770.42 1999.38 1769.01 Q1997.51 1767.57 1993.99 1767.57 Q1992.07 1767.57 1989.87 1767.99 Q1987.67 1768.4 1985.03 1769.28 L1985.03 1765.12 Q1987.69 1764.38 1990.01 1764.01 Q1992.35 1763.64 1994.41 1763.64 Q1999.73 1763.64 2002.83 1766.07 Q2005.93 1768.47 2005.93 1772.59 Q2005.93 1775.46 2004.29 1777.46 Q2002.65 1779.42 1999.61 1780.19 Z" fill="#000000" fill-rule="nonzero" fill-opacity="1" /><path clip-path="url(#clip050)" d="M2025.61 1767.34 Q2022 1767.34 2020.17 1770.9 Q2018.36 1774.45 2018.36 1781.58 Q2018.36 1788.68 2020.17 1792.25 Q2022 1795.79 2025.61 1795.79 Q2029.24 1795.79 2031.05 1792.25 Q2032.88 1788.68 2032.88 1781.58 Q2032.88 1774.45 2031.05 1770.9 Q2029.24 1767.34 2025.61 1767.34 M2025.61 1763.64 Q2031.42 1763.64 2034.48 1768.24 Q2037.55 1772.83 2037.55 1781.58 Q2037.55 1790.3 2034.48 1794.91 Q2031.42 1799.49 2025.61 1799.49 Q2019.8 1799.49 2016.72 1794.91 Q2013.67 1790.3 2013.67 1781.58 Q2013.67 1772.83 2016.72 1768.24 Q2019.8 1763.64 2025.61 1763.64 Z" fill="#000000" fill-rule="nonzero" fill-opacity="1" /><path clip-path="url(#clip050)" d="M2561.43 1768.34 L2549.62 1786.78 L2561.43 1786.78 L2561.43 1768.34 M2560.2 1764.26 L2566.08 1764.26 L2566.08 1786.78 L2571.01 1786.78 L2571.01 1790.67 L2566.08 1790.67 L2566.08 1798.82 L2561.43 1798.82 L2561.43 1790.67 L2545.83 1790.67 L2545.83 1786.16 L2560.2 1764.26 Z" fill="#000000" fill-rule="nonzero" fill-opacity="1" /><path clip-path="url(#clip050)" d="M2588.74 1767.34 Q2585.13 1767.34 2583.3 1770.9 Q2581.5 1774.45 2581.5 1781.58 Q2581.5 1788.68 2583.3 1792.25 Q2585.13 1795.79 2588.74 1795.79 Q2592.38 1795.79 2594.18 1792.25 Q2596.01 1788.68 2596.01 1781.58 Q2596.01 1774.45 2594.18 1770.9 Q2592.38 1767.34 2588.74 1767.34 M2588.74 1763.64 Q2594.55 1763.64 2597.61 1768.24 Q2600.69 1772.83 2600.69 1781.58 Q2600.69 1790.3 2597.61 1794.91 Q2594.55 1799.49 2588.74 1799.49 Q2582.93 1799.49 2579.85 1794.91 Q2576.8 1790.3 2576.8 1781.58 Q2576.8 1772.83 2579.85 1768.24 Q2582.93 1763.64 2588.74 1763.64 Z" fill="#000000" fill-rule="nonzero" fill-opacity="1" /><path clip-path="url(#clip050)" d="M1370.16 1835.78 L1410.36 1835.78 L1410.36 1841.19 L1393.49 1841.19 L1393.49 1883.3 L1387.03 1883.3 L1387.03 1841.19 L1370.16 1841.19 L1370.16 1835.78 Z" fill="#000000" fill-rule="nonzero" fill-opacity="1" /><path clip-path="url(#clip050)" d="M1414.31 1847.65 L1420.17 1847.65 L1420.17 1883.3 L1414.31 1883.3 L1414.31 1847.65 M1414.31 1833.78 L1420.17 1833.78 L1420.17 1841.19 L1414.31 1841.19 L1414.31 1833.78 Z" fill="#000000" fill-rule="nonzero" fill-opacity="1" /><path clip-path="url(#clip050)" d="M1460.17 1854.5 Q1462.37 1850.55 1465.43 1848.67 Q1468.48 1846.79 1472.62 1846.79 Q1478.19 1846.79 1481.21 1850.71 Q1484.24 1854.59 1484.24 1861.78 L1484.24 1883.3 L1478.35 1883.3 L1478.35 1861.98 Q1478.35 1856.85 1476.53 1854.37 Q1474.72 1851.89 1471 1851.89 Q1466.44 1851.89 1463.8 1854.91 Q1461.16 1857.93 1461.16 1863.15 L1461.16 1883.3 L1455.27 1883.3 L1455.27 1861.98 Q1455.27 1856.82 1453.46 1854.37 Q1451.64 1851.89 1447.86 1851.89 Q1443.37 1851.89 1440.73 1854.94 Q1438.09 1857.97 1438.09 1863.15 L1438.09 1883.3 L1432.2 1883.3 L1432.2 1847.65 L1438.09 1847.65 L1438.09 1853.19 Q1440.09 1849.91 1442.89 1848.35 Q1445.69 1846.79 1449.54 1846.79 Q1453.43 1846.79 1456.13 1848.77 Q1458.87 1850.74 1460.17 1854.5 Z" fill="#000000" fill-rule="nonzero" fill-opacity="1" /><path clip-path="url(#clip050)" d="M1526.41 1864.01 L1526.41 1866.88 L1499.48 1866.88 Q1499.86 1872.92 1503.11 1876.11 Q1506.39 1879.26 1512.21 1879.26 Q1515.59 1879.26 1518.74 1878.43 Q1521.92 1877.6 1525.04 1875.95 L1525.04 1881.49 Q1521.89 1882.82 1518.58 1883.52 Q1515.27 1884.22 1511.86 1884.22 Q1503.33 1884.22 1498.34 1879.26 Q1493.37 1874.29 1493.37 1865.83 Q1493.37 1857.07 1498.08 1851.95 Q1502.82 1846.79 1510.85 1846.79 Q1518.04 1846.79 1522.21 1851.44 Q1526.41 1856.06 1526.41 1864.01 M1520.55 1862.29 Q1520.49 1857.49 1517.85 1854.62 Q1515.24 1851.76 1510.91 1851.76 Q1506.01 1851.76 1503.05 1854.53 Q1500.12 1857.3 1499.67 1862.33 L1520.55 1862.29 Z" fill="#000000" fill-rule="nonzero" fill-opacity="1" /><polyline clip-path="url(#clip050)" style="stroke:#000000; stroke-linecap:round; stroke-linejoin:round; stroke-width:4; stroke-opacity:1; fill:none" points="255.816,1734.12 255.816,127.792 "/>
<polyline clip-path="url(#clip050)" style="stroke:#000000; stroke-linecap:round; stroke-linejoin:round; stroke-width:4; stroke-opacity:1; fill:none" points="255.816,1692.77 274.714,1692.77 "/>
<polyline clip-path="url(#clip050)" style="stroke:#000000; stroke-linecap:round; stroke-linejoin:round; stroke-width:4; stroke-opacity:1; fill:none" points="255.816,1309.06 274.714,1309.06 "/>
<polyline clip-path="url(#clip050)" style="stroke:#000000; stroke-linecap:round; stroke-linejoin:round; stroke-width:4; stroke-opacity:1; fill:none" points="255.816,925.34 274.714,925.34 "/>
<polyline clip-path="url(#clip050)" style="stroke:#000000; stroke-linecap:round; stroke-linejoin:round; stroke-width:4; stroke-opacity:1; fill:none" points="255.816,541.623 274.714,541.623 "/>
<polyline clip-path="url(#clip050)" style="stroke:#000000; stroke-linecap:round; stroke-linejoin:round; stroke-width:4; stroke-opacity:1; fill:none" points="255.816,157.905 274.714,157.905 "/>
<path clip-path="url(#clip050)" d="M128.159 1678.57 Q124.548 1678.57 122.719 1682.14 Q120.913 1685.68 120.913 1692.81 Q120.913 1699.92 122.719 1703.48 Q124.548 1707.02 128.159 1707.02 Q131.793 1707.02 133.599 1703.48 Q135.427 1699.92 135.427 1692.81 Q135.427 1685.68 133.599 1682.14 Q131.793 1678.57 128.159 1678.57 M128.159 1674.87 Q133.969 1674.87 137.025 1679.48 Q140.103 1684.06 140.103 1692.81 Q140.103 1701.54 137.025 1706.14 Q133.969 1710.73 128.159 1710.73 Q122.349 1710.73 119.27 1706.14 Q116.214 1701.54 116.214 1692.81 Q116.214 1684.06 119.27 1679.48 Q122.349 1674.87 128.159 1674.87 Z" fill="#000000" fill-rule="nonzero" fill-opacity="1" /><path clip-path="url(#clip050)" d="M148.321 1704.17 L153.205 1704.17 L153.205 1710.05 L148.321 1710.05 L148.321 1704.17 Z" fill="#000000" fill-rule="nonzero" fill-opacity="1" /><path clip-path="url(#clip050)" d="M173.39 1678.57 Q169.779 1678.57 167.95 1682.14 Q166.145 1685.68 166.145 1692.81 Q166.145 1699.92 167.95 1703.48 Q169.779 1707.02 173.39 1707.02 Q177.024 1707.02 178.83 1703.48 Q180.659 1699.92 180.659 1692.81 Q180.659 1685.68 178.83 1682.14 Q177.024 1678.57 173.39 1678.57 M173.39 1674.87 Q179.2 1674.87 182.256 1679.48 Q185.334 1684.06 185.334 1692.81 Q185.334 1701.54 182.256 1706.14 Q179.2 1710.73 173.39 1710.73 Q167.58 1710.73 164.501 1706.14 Q161.446 1701.54 161.446 1692.81 Q161.446 1684.06 164.501 1679.48 Q167.58 1674.87 173.39 1674.87 Z" fill="#000000" fill-rule="nonzero" fill-opacity="1" /><path clip-path="url(#clip050)" d="M203.552 1678.57 Q199.941 1678.57 198.112 1682.14 Q196.307 1685.68 196.307 1692.81 Q196.307 1699.92 198.112 1703.48 Q199.941 1707.02 203.552 1707.02 Q207.186 1707.02 208.992 1703.48 Q210.82 1699.92 210.82 1692.81 Q210.82 1685.68 208.992 1682.14 Q207.186 1678.57 203.552 1678.57 M203.552 1674.87 Q209.362 1674.87 212.418 1679.48 Q215.496 1684.06 215.496 1692.81 Q215.496 1701.54 212.418 1706.14 Q209.362 1710.73 203.552 1710.73 Q197.742 1710.73 194.663 1706.14 Q191.608 1701.54 191.608 1692.81 Q191.608 1684.06 194.663 1679.48 Q197.742 1674.87 203.552 1674.87 Z" fill="#000000" fill-rule="nonzero" fill-opacity="1" /><path clip-path="url(#clip050)" d="M129.154 1294.86 Q125.543 1294.86 123.714 1298.42 Q121.909 1301.96 121.909 1309.09 Q121.909 1316.2 123.714 1319.76 Q125.543 1323.3 129.154 1323.3 Q132.788 1323.3 134.594 1319.76 Q136.423 1316.2 136.423 1309.09 Q136.423 1301.96 134.594 1298.42 Q132.788 1294.86 129.154 1294.86 M129.154 1291.15 Q134.964 1291.15 138.02 1295.76 Q141.099 1300.34 141.099 1309.09 Q141.099 1317.82 138.02 1322.42 Q134.964 1327.01 129.154 1327.01 Q123.344 1327.01 120.265 1322.42 Q117.21 1317.82 117.21 1309.09 Q117.21 1300.34 120.265 1295.76 Q123.344 1291.15 129.154 1291.15 Z" fill="#000000" fill-rule="nonzero" fill-opacity="1" /><path clip-path="url(#clip050)" d="M149.316 1320.46 L154.2 1320.46 L154.2 1326.34 L149.316 1326.34 L149.316 1320.46 Z" fill="#000000" fill-rule="nonzero" fill-opacity="1" /><path clip-path="url(#clip050)" d="M168.413 1322.4 L184.733 1322.4 L184.733 1326.34 L162.788 1326.34 L162.788 1322.4 Q165.45 1319.65 170.034 1315.02 Q174.64 1310.36 175.821 1309.02 Q178.066 1306.5 178.946 1304.76 Q179.848 1303 179.848 1301.31 Q179.848 1298.56 177.904 1296.82 Q175.983 1295.09 172.881 1295.09 Q170.682 1295.09 168.228 1295.85 Q165.798 1296.61 163.02 1298.17 L163.02 1293.44 Q165.844 1292.31 168.297 1291.73 Q170.751 1291.15 172.788 1291.15 Q178.159 1291.15 181.353 1293.84 Q184.547 1296.52 184.547 1301.01 Q184.547 1303.14 183.737 1305.06 Q182.95 1306.96 180.844 1309.55 Q180.265 1310.23 177.163 1313.44 Q174.061 1316.64 168.413 1322.4 Z" fill="#000000" fill-rule="nonzero" fill-opacity="1" /><path clip-path="url(#clip050)" d="M194.594 1291.78 L212.95 1291.78 L212.95 1295.71 L198.876 1295.71 L198.876 1304.18 Q199.895 1303.84 200.913 1303.68 Q201.932 1303.49 202.95 1303.49 Q208.737 1303.49 212.117 1306.66 Q215.496 1309.83 215.496 1315.25 Q215.496 1320.83 212.024 1323.93 Q208.552 1327.01 202.233 1327.01 Q200.057 1327.01 197.788 1326.64 Q195.543 1326.27 193.135 1325.53 L193.135 1320.83 Q195.219 1321.96 197.441 1322.52 Q199.663 1323.07 202.14 1323.07 Q206.145 1323.07 208.482 1320.97 Q210.82 1318.86 210.82 1315.25 Q210.82 1311.64 208.482 1309.53 Q206.145 1307.43 202.14 1307.43 Q200.265 1307.43 198.39 1307.84 Q196.538 1308.26 194.594 1309.14 L194.594 1291.78 Z" fill="#000000" fill-rule="nonzero" fill-opacity="1" /><path clip-path="url(#clip050)" d="M128.159 911.138 Q124.548 911.138 122.719 914.703 Q120.913 918.245 120.913 925.375 Q120.913 932.481 122.719 936.046 Q124.548 939.587 128.159 939.587 Q131.793 939.587 133.599 936.046 Q135.427 932.481 135.427 925.375 Q135.427 918.245 133.599 914.703 Q131.793 911.138 128.159 911.138 M128.159 907.435 Q133.969 907.435 137.025 912.041 Q140.103 916.625 140.103 925.375 Q140.103 934.101 137.025 938.708 Q133.969 943.291 128.159 943.291 Q122.349 943.291 119.27 938.708 Q116.214 934.101 116.214 925.375 Q116.214 916.625 119.27 912.041 Q122.349 907.435 128.159 907.435 Z" fill="#000000" fill-rule="nonzero" fill-opacity="1" /><path clip-path="url(#clip050)" d="M148.321 936.74 L153.205 936.74 L153.205 942.62 L148.321 942.62 L148.321 936.74 Z" fill="#000000" fill-rule="nonzero" fill-opacity="1" /><path clip-path="url(#clip050)" d="M163.436 908.06 L181.793 908.06 L181.793 911.995 L167.719 911.995 L167.719 920.467 Q168.737 920.12 169.756 919.958 Q170.774 919.773 171.793 919.773 Q177.58 919.773 180.959 922.944 Q184.339 926.115 184.339 931.532 Q184.339 937.111 180.867 940.212 Q177.395 943.291 171.075 943.291 Q168.899 943.291 166.631 942.921 Q164.385 942.55 161.978 941.81 L161.978 937.111 Q164.061 938.245 166.284 938.8 Q168.506 939.356 170.983 939.356 Q174.987 939.356 177.325 937.249 Q179.663 935.143 179.663 931.532 Q179.663 927.921 177.325 925.814 Q174.987 923.708 170.983 923.708 Q169.108 923.708 167.233 924.125 Q165.381 924.541 163.436 925.421 L163.436 908.06 Z" fill="#000000" fill-rule="nonzero" fill-opacity="1" /><path clip-path="url(#clip050)" d="M203.552 911.138 Q199.941 911.138 198.112 914.703 Q196.307 918.245 196.307 925.375 Q196.307 932.481 198.112 936.046 Q199.941 939.587 203.552 939.587 Q207.186 939.587 208.992 936.046 Q210.82 932.481 210.82 925.375 Q210.82 918.245 208.992 914.703 Q207.186 911.138 203.552 911.138 M203.552 907.435 Q209.362 907.435 212.418 912.041 Q215.496 916.625 215.496 925.375 Q215.496 934.101 212.418 938.708 Q209.362 943.291 203.552 943.291 Q197.742 943.291 194.663 938.708 Q191.608 934.101 191.608 925.375 Q191.608 916.625 194.663 912.041 Q197.742 907.435 203.552 907.435 Z" fill="#000000" fill-rule="nonzero" fill-opacity="1" /><path clip-path="url(#clip050)" d="M129.154 527.421 Q125.543 527.421 123.714 530.986 Q121.909 534.528 121.909 541.657 Q121.909 548.764 123.714 552.329 Q125.543 555.87 129.154 555.87 Q132.788 555.87 134.594 552.329 Q136.423 548.764 136.423 541.657 Q136.423 534.528 134.594 530.986 Q132.788 527.421 129.154 527.421 M129.154 523.718 Q134.964 523.718 138.02 528.324 Q141.099 532.907 141.099 541.657 Q141.099 550.384 138.02 554.991 Q134.964 559.574 129.154 559.574 Q123.344 559.574 120.265 554.991 Q117.21 550.384 117.21 541.657 Q117.21 532.907 120.265 528.324 Q123.344 523.718 129.154 523.718 Z" fill="#000000" fill-rule="nonzero" fill-opacity="1" /><path clip-path="url(#clip050)" d="M149.316 553.023 L154.2 553.023 L154.2 558.903 L149.316 558.903 L149.316 553.023 Z" fill="#000000" fill-rule="nonzero" fill-opacity="1" /><path clip-path="url(#clip050)" d="M163.205 524.343 L185.427 524.343 L185.427 526.333 L172.881 558.903 L167.997 558.903 L179.802 528.278 L163.205 528.278 L163.205 524.343 Z" fill="#000000" fill-rule="nonzero" fill-opacity="1" /><path clip-path="url(#clip050)" d="M194.594 524.343 L212.95 524.343 L212.95 528.278 L198.876 528.278 L198.876 536.75 Q199.895 536.403 200.913 536.241 Q201.932 536.056 202.95 536.056 Q208.737 536.056 212.117 539.227 Q215.496 542.398 215.496 547.815 Q215.496 553.393 212.024 556.495 Q208.552 559.574 202.233 559.574 Q200.057 559.574 197.788 559.204 Q195.543 558.833 193.135 558.092 L193.135 553.393 Q195.219 554.528 197.441 555.083 Q199.663 555.639 202.14 555.639 Q206.145 555.639 208.482 553.532 Q210.82 551.426 210.82 547.815 Q210.82 544.204 208.482 542.097 Q206.145 539.991 202.14 539.991 Q200.265 539.991 198.39 540.407 Q196.538 540.824 194.594 541.704 L194.594 524.343 Z" fill="#000000" fill-rule="nonzero" fill-opacity="1" /><path clip-path="url(#clip050)" d="M118.969 171.25 L126.608 171.25 L126.608 144.885 L118.298 146.551 L118.298 142.292 L126.562 140.625 L131.238 140.625 L131.238 171.25 L138.876 171.25 L138.876 175.185 L118.969 175.185 L118.969 171.25 Z" fill="#000000" fill-rule="nonzero" fill-opacity="1" /><path clip-path="url(#clip050)" d="M148.321 169.306 L153.205 169.306 L153.205 175.185 L148.321 175.185 L148.321 169.306 Z" fill="#000000" fill-rule="nonzero" fill-opacity="1" /><path clip-path="url(#clip050)" d="M173.39 143.704 Q169.779 143.704 167.95 147.269 Q166.145 150.811 166.145 157.94 Q166.145 165.047 167.95 168.611 Q169.779 172.153 173.39 172.153 Q177.024 172.153 178.83 168.611 Q180.659 165.047 180.659 157.94 Q180.659 150.811 178.83 147.269 Q177.024 143.704 173.39 143.704 M173.39 140 Q179.2 140 182.256 144.607 Q185.334 149.19 185.334 157.94 Q185.334 166.667 182.256 171.273 Q179.2 175.857 173.39 175.857 Q167.58 175.857 164.501 171.273 Q161.446 166.667 161.446 157.94 Q161.446 149.19 164.501 144.607 Q167.58 140 173.39 140 Z" fill="#000000" fill-rule="nonzero" fill-opacity="1" /><path clip-path="url(#clip050)" d="M203.552 143.704 Q199.941 143.704 198.112 147.269 Q196.307 150.811 196.307 157.94 Q196.307 165.047 198.112 168.611 Q199.941 172.153 203.552 172.153 Q207.186 172.153 208.992 168.611 Q210.82 165.047 210.82 157.94 Q210.82 150.811 208.992 147.269 Q207.186 143.704 203.552 143.704 M203.552 140 Q209.362 140 212.418 144.607 Q215.496 149.19 215.496 157.94 Q215.496 166.667 212.418 171.273 Q209.362 175.857 203.552 175.857 Q197.742 175.857 194.663 171.273 Q191.608 166.667 191.608 157.94 Q191.608 149.19 194.663 144.607 Q197.742 140 203.552 140 Z" fill="#000000" fill-rule="nonzero" fill-opacity="1" /><path clip-path="url(#clip050)" d="M19.402 1086.72 L37.2578 1086.72 L37.2578 1078.64 Q37.2578 1074.15 34.9343 1071.7 Q32.6108 1069.25 28.314 1069.25 Q24.0489 1069.25 21.7255 1071.7 Q19.402 1074.15 19.402 1078.64 L19.402 1086.72 M14.1184 1093.15 L14.1184 1078.64 Q14.1184 1070.65 17.7469 1066.58 Q21.3435 1062.47 28.314 1062.47 Q35.3481 1062.47 38.9447 1066.58 Q42.5413 1070.65 42.5413 1078.64 L42.5413 1086.72 L61.6384 1086.72 L61.6384 1093.15 L14.1184 1093.15 Z" fill="#000000" fill-rule="nonzero" fill-opacity="1" /><path clip-path="url(#clip050)" d="M31.465 1034.59 Q30.8921 1035.57 30.6375 1036.75 Q30.351 1037.9 30.351 1039.3 Q30.351 1044.26 33.5975 1046.94 Q36.8122 1049.58 42.8596 1049.58 L61.6384 1049.58 L61.6384 1055.47 L25.9905 1055.47 L25.9905 1049.58 L31.5287 1049.58 Q28.2821 1047.73 26.7225 1044.77 Q25.1311 1041.81 25.1311 1037.58 Q25.1311 1036.98 25.2266 1036.24 Q25.2903 1035.51 25.4494 1034.62 L31.465 1034.59 Z" fill="#000000" fill-rule="nonzero" fill-opacity="1" /><path clip-path="url(#clip050)" d="M30.0964 1016.06 Q30.0964 1020.77 33.7885 1023.51 Q37.4488 1026.25 43.8463 1026.25 Q50.2438 1026.25 53.9359 1023.54 Q57.5962 1020.81 57.5962 1016.06 Q57.5962 1011.39 53.9041 1008.65 Q50.212 1005.91 43.8463 1005.91 Q37.5124 1005.91 33.8203 1008.65 Q30.0964 1011.39 30.0964 1016.06 M25.1311 1016.06 Q25.1311 1008.43 30.0964 1004.06 Q35.0616 999.704 43.8463 999.704 Q52.5991 999.704 57.5962 1004.06 Q62.5615 1008.43 62.5615 1016.06 Q62.5615 1023.73 57.5962 1028.1 Q52.5991 1032.42 43.8463 1032.42 Q35.0616 1032.42 30.0964 1028.1 Q25.1311 1023.73 25.1311 1016.06 Z" fill="#000000" fill-rule="nonzero" fill-opacity="1" /><path clip-path="url(#clip050)" d="M56.2912 984.331 L75.1974 984.331 L75.1974 990.219 L25.9905 990.219 L25.9905 984.331 L31.4013 984.331 Q28.2185 982.485 26.6907 979.684 Q25.1311 976.851 25.1311 972.936 Q25.1311 966.443 30.2873 962.401 Q35.4436 958.327 43.8463 958.327 Q52.249 958.327 57.4052 962.401 Q62.5615 966.443 62.5615 972.936 Q62.5615 976.851 61.0337 979.684 Q59.4741 982.485 56.2912 984.331 M43.8463 964.406 Q37.3851 964.406 33.7248 967.08 Q30.0327 969.722 30.0327 974.369 Q30.0327 979.016 33.7248 981.689 Q37.3851 984.331 43.8463 984.331 Q50.3075 984.331 53.9996 981.689 Q57.6599 979.016 57.6599 974.369 Q57.6599 969.722 53.9996 967.08 Q50.3075 964.406 43.8463 964.406 Z" fill="#000000" fill-rule="nonzero" fill-opacity="1" /><path clip-path="url(#clip050)" d="M30.0964 934.806 Q30.0964 939.516 33.7885 942.254 Q37.4488 944.991 43.8463 944.991 Q50.2438 944.991 53.9359 942.286 Q57.5962 939.548 57.5962 934.806 Q57.5962 930.127 53.9041 927.39 Q50.212 924.653 43.8463 924.653 Q37.5124 924.653 33.8203 927.39 Q30.0964 930.127 30.0964 934.806 M25.1311 934.806 Q25.1311 927.167 30.0964 922.806 Q35.0616 918.446 43.8463 918.446 Q52.5991 918.446 57.5962 922.806 Q62.5615 927.167 62.5615 934.806 Q62.5615 942.476 57.5962 946.837 Q52.5991 951.166 43.8463 951.166 Q35.0616 951.166 30.0964 946.837 Q25.1311 942.476 25.1311 934.806 Z" fill="#000000" fill-rule="nonzero" fill-opacity="1" /><path clip-path="url(#clip050)" d="M31.465 888.082 Q30.8921 889.068 30.6375 890.246 Q30.351 891.392 30.351 892.792 Q30.351 897.757 33.5975 900.431 Q36.8122 903.073 42.8596 903.073 L61.6384 903.073 L61.6384 908.961 L25.9905 908.961 L25.9905 903.073 L31.5287 903.073 Q28.2821 901.227 26.7225 898.267 Q25.1311 895.307 25.1311 891.073 Q25.1311 890.469 25.2266 889.737 Q25.2903 889.005 25.4494 888.113 L31.465 888.082 Z" fill="#000000" fill-rule="nonzero" fill-opacity="1" /><path clip-path="url(#clip050)" d="M15.869 876.146 L25.9905 876.146 L25.9905 864.083 L30.542 864.083 L30.542 876.146 L49.8937 876.146 Q54.2542 876.146 55.4955 874.968 Q56.7368 873.759 56.7368 870.098 L56.7368 864.083 L61.6384 864.083 L61.6384 870.098 Q61.6384 876.878 59.124 879.456 Q56.5777 882.034 49.8937 882.034 L30.542 882.034 L30.542 886.331 L25.9905 886.331 L25.9905 882.034 L15.869 882.034 L15.869 876.146 Z" fill="#000000" fill-rule="nonzero" fill-opacity="1" /><path clip-path="url(#clip050)" d="M25.9905 856.38 L25.9905 850.524 L61.6384 850.524 L61.6384 856.38 L25.9905 856.38 M12.1132 856.38 L12.1132 850.524 L19.5293 850.524 L19.5293 856.38 L12.1132 856.38 Z" fill="#000000" fill-rule="nonzero" fill-opacity="1" /><path clip-path="url(#clip050)" d="M30.0964 824.456 Q30.0964 829.167 33.7885 831.904 Q37.4488 834.641 43.8463 834.641 Q50.2438 834.641 53.9359 831.936 Q57.5962 829.199 57.5962 824.456 Q57.5962 819.777 53.9041 817.04 Q50.212 814.303 43.8463 814.303 Q37.5124 814.303 33.8203 817.04 Q30.0964 819.777 30.0964 824.456 M25.1311 824.456 Q25.1311 816.817 30.0964 812.457 Q35.0616 808.096 43.8463 808.096 Q52.5991 808.096 57.5962 812.457 Q62.5615 816.817 62.5615 824.456 Q62.5615 832.127 57.5962 836.487 Q52.5991 840.816 43.8463 840.816 Q35.0616 840.816 30.0964 836.487 Q25.1311 832.127 25.1311 824.456 Z" fill="#000000" fill-rule="nonzero" fill-opacity="1" /><path clip-path="url(#clip050)" d="M40.1224 768.756 L61.6384 768.756 L61.6384 774.613 L40.3133 774.613 Q35.2526 774.613 32.7381 776.586 Q30.2237 778.56 30.2237 782.506 Q30.2237 787.249 33.2474 789.986 Q36.2711 792.723 41.491 792.723 L61.6384 792.723 L61.6384 798.612 L25.9905 798.612 L25.9905 792.723 L31.5287 792.723 Q28.314 790.623 26.7225 787.79 Q25.1311 784.925 25.1311 781.201 Q25.1311 775.058 28.9505 771.907 Q32.7381 768.756 40.1224 768.756 Z" fill="#000000" fill-rule="nonzero" fill-opacity="1" /><path clip-path="url(#clip050)" d="M989.562 14.0809 L989.562 22.0612 Q984.903 19.8332 980.771 18.7395 Q976.639 17.6457 972.791 17.6457 Q966.107 17.6457 962.461 20.2383 Q958.856 22.8309 958.856 27.611 Q958.856 31.6214 961.246 33.6873 Q963.676 35.7128 970.401 36.9686 L975.343 37.9813 Q984.498 39.7232 988.833 44.1387 Q993.208 48.5136 993.208 55.8863 Q993.208 64.6767 987.293 69.2137 Q981.419 73.7508 970.036 73.7508 Q965.742 73.7508 960.881 72.7785 Q956.061 71.8063 950.876 69.9024 L950.876 61.4765 Q955.858 64.2716 960.638 65.6895 Q965.418 67.1073 970.036 67.1073 Q977.044 67.1073 980.852 64.3527 Q984.66 61.598 984.66 56.4939 Q984.66 52.0379 981.906 49.5264 Q979.191 47.0148 972.953 45.759 L967.97 44.7868 Q958.815 42.9639 954.724 39.075 Q950.633 35.1862 950.633 28.2591 Q950.633 20.2383 956.263 15.6203 Q961.935 11.0023 971.859 11.0023 Q976.113 11.0023 980.528 11.7719 Q984.944 12.5416 989.562 14.0809 Z" fill="#000000" fill-rule="nonzero" fill-opacity="1" /><path clip-path="url(#clip050)" d="M1005.97 12.096 L1014.15 12.096 L1014.15 72.576 L1005.97 72.576 L1005.97 12.096 Z" fill="#000000" fill-rule="nonzero" fill-opacity="1" /><path clip-path="url(#clip050)" d="M1059.12 44.2197 Q1061.75 45.1109 1064.22 48.0275 Q1066.73 50.9442 1069.24 56.0483 L1077.55 72.576 L1068.76 72.576 L1061.02 57.061 Q1058.02 50.9847 1055.19 48.9997 Q1052.39 47.0148 1047.53 47.0148 L1038.62 47.0148 L1038.62 72.576 L1030.44 72.576 L1030.44 12.096 L1048.91 12.096 Q1059.28 12.096 1064.38 16.4305 Q1069.49 20.7649 1069.49 29.5149 Q1069.49 35.2267 1066.81 38.994 Q1064.18 42.7613 1059.12 44.2197 M1038.62 18.8205 L1038.62 40.2903 L1048.91 40.2903 Q1054.82 40.2903 1057.82 37.5762 Q1060.86 34.8216 1060.86 29.5149 Q1060.86 24.2082 1057.82 21.5346 Q1054.82 18.8205 1048.91 18.8205 L1038.62 18.8205 Z" fill="#000000" fill-rule="nonzero" fill-opacity="1" /><path clip-path="url(#clip050)" d="M1110.36 46.9338 L1185.22 46.9338 L1185.22 52.7671 L1110.36 52.7671 L1110.36 46.9338 Z" fill="#000000" fill-rule="nonzero" fill-opacity="1" /><path clip-path="url(#clip050)" d="M1223.79 12.096 L1235.98 12.096 L1251.41 53.2532 L1266.93 12.096 L1279.12 12.096 L1279.12 72.576 L1271.14 72.576 L1271.14 19.4686 L1255.54 60.9499 L1247.32 60.9499 L1231.72 19.4686 L1231.72 72.576 L1223.79 72.576 L1223.79 12.096 Z" fill="#000000" fill-rule="nonzero" fill-opacity="1" /><path clip-path="url(#clip050)" d="M1315.58 20.1573 L1304.48 50.2555 L1326.72 50.2555 L1315.58 20.1573 M1310.96 12.096 L1320.24 12.096 L1343.29 72.576 L1334.78 72.576 L1329.27 57.061 L1302.01 57.061 L1296.5 72.576 L1287.87 72.576 L1310.96 12.096 Z" fill="#000000" fill-rule="nonzero" fill-opacity="1" /><path clip-path="url(#clip050)" d="M1391.9 63.9476 L1391.9 47.7034 L1378.53 47.7034 L1378.53 40.9789 L1400 40.9789 L1400 66.9452 Q1395.26 70.3075 1389.55 72.0494 Q1383.84 73.7508 1377.35 73.7508 Q1363.18 73.7508 1355.16 65.4869 Q1347.18 57.1826 1347.18 42.3968 Q1347.18 27.5705 1355.16 19.3066 Q1363.18 11.0023 1377.35 11.0023 Q1383.27 11.0023 1388.58 12.4606 Q1393.92 13.9189 1398.42 16.7545 L1398.42 25.464 Q1393.88 21.6156 1388.78 19.6712 Q1383.67 17.7268 1378.04 17.7268 Q1366.94 17.7268 1361.35 23.9246 Q1355.8 30.1225 1355.8 42.3968 Q1355.8 54.6305 1361.35 60.8284 Q1366.94 67.0263 1378.04 67.0263 Q1382.38 67.0263 1385.78 66.2971 Q1389.18 65.5274 1391.9 63.9476 Z" fill="#000000" fill-rule="nonzero" fill-opacity="1" /><path clip-path="url(#clip050)" d="M1414.95 12.096 L1423.13 12.096 L1423.13 72.576 L1414.95 72.576 L1414.95 12.096 Z" fill="#000000" fill-rule="nonzero" fill-opacity="1" /><path clip-path="url(#clip050)" d="M1473.97 18.8205 L1473.97 41.5461 L1484.26 41.5461 Q1489.97 41.5461 1493.09 38.5889 Q1496.21 35.6318 1496.21 30.163 Q1496.21 24.7348 1493.09 21.7777 Q1489.97 18.8205 1484.26 18.8205 L1473.97 18.8205 M1465.79 12.096 L1484.26 12.096 Q1494.43 12.096 1499.61 16.714 Q1504.84 21.2916 1504.84 30.163 Q1504.84 39.1155 1499.61 43.6931 Q1494.43 48.2706 1484.26 48.2706 L1473.97 48.2706 L1473.97 72.576 L1465.79 72.576 L1465.79 12.096 Z" fill="#000000" fill-rule="nonzero" fill-opacity="1" /><path clip-path="url(#clip050)" d="M1530.11 32.4315 Q1524.12 32.4315 1520.64 37.1306 Q1517.15 41.7891 1517.15 49.9314 Q1517.15 58.0738 1520.59 62.7728 Q1524.08 67.4314 1530.11 67.4314 Q1536.07 67.4314 1539.55 62.7323 Q1543.04 58.0333 1543.04 49.9314 Q1543.04 41.8701 1539.55 37.1711 Q1536.07 32.4315 1530.11 32.4315 M1530.11 26.1121 Q1539.84 26.1121 1545.39 32.4315 Q1550.94 38.7509 1550.94 49.9314 Q1550.94 61.0714 1545.39 67.4314 Q1539.84 73.7508 1530.11 73.7508 Q1520.35 73.7508 1514.8 67.4314 Q1509.29 61.0714 1509.29 49.9314 Q1509.29 38.7509 1514.8 32.4315 Q1520.35 26.1121 1530.11 26.1121 Z" fill="#000000" fill-rule="nonzero" fill-opacity="1" /><path clip-path="url(#clip050)" d="M1592.21 28.5427 L1592.21 35.5912 Q1589.06 33.9709 1585.65 33.1607 Q1582.25 32.3505 1578.6 32.3505 Q1573.05 32.3505 1570.26 34.0519 Q1567.5 35.7533 1567.5 39.156 Q1567.5 41.7486 1569.49 43.2475 Q1571.47 44.7058 1577.47 46.0426 L1580.02 46.6097 Q1587.96 48.3111 1591.28 51.4303 Q1594.65 54.509 1594.65 60.0587 Q1594.65 66.3781 1589.62 70.0644 Q1584.64 73.7508 1575.89 73.7508 Q1572.24 73.7508 1568.27 73.0216 Q1564.34 72.3329 1559.97 70.9151 L1559.97 63.2184 Q1564.1 65.3654 1568.11 66.4591 Q1572.12 67.5124 1576.05 67.5124 Q1581.32 67.5124 1584.15 65.73 Q1586.99 63.9071 1586.99 60.6258 Q1586.99 57.5877 1584.92 55.9673 Q1582.9 54.3469 1575.97 52.8481 L1573.38 52.2405 Q1566.45 50.7821 1563.37 47.7845 Q1560.29 44.7463 1560.29 39.4801 Q1560.29 33.0797 1564.83 29.5959 Q1569.37 26.1121 1577.71 26.1121 Q1581.84 26.1121 1585.49 26.7198 Q1589.14 27.3274 1592.21 28.5427 Z" fill="#000000" fill-rule="nonzero" fill-opacity="1" /><path clip-path="url(#clip050)" d="M1613.89 14.324 L1613.89 27.2059 L1629.24 27.2059 L1629.24 32.9987 L1613.89 32.9987 L1613.89 57.6282 Q1613.89 63.1779 1615.39 64.7578 Q1616.93 66.3376 1621.58 66.3376 L1629.24 66.3376 L1629.24 72.576 L1621.58 72.576 Q1612.96 72.576 1609.67 69.3758 Q1606.39 66.1351 1606.39 57.6282 L1606.39 32.9987 L1600.92 32.9987 L1600.92 27.2059 L1606.39 27.2059 L1606.39 14.324 L1613.89 14.324 Z" fill="#000000" fill-rule="nonzero" fill-opacity="1" /><path clip-path="url(#clip050)" d="M1677.85 48.0275 L1677.85 51.6733 L1643.58 51.6733 Q1644.07 59.3701 1648.2 63.421 Q1652.37 67.4314 1659.78 67.4314 Q1664.08 67.4314 1668.09 66.3781 Q1672.14 65.3249 1676.11 63.2184 L1676.11 70.267 Q1672.1 71.9684 1667.89 72.8596 Q1663.67 73.7508 1659.34 73.7508 Q1648.48 73.7508 1642.12 67.4314 Q1635.8 61.1119 1635.8 50.3365 Q1635.8 39.1965 1641.8 32.6746 Q1647.83 26.1121 1658.04 26.1121 Q1667.2 26.1121 1672.5 32.0264 Q1677.85 37.9003 1677.85 48.0275 M1670.4 45.84 Q1670.32 39.7232 1666.95 36.0774 Q1663.63 32.4315 1658.12 32.4315 Q1651.88 32.4315 1648.12 35.9558 Q1644.39 39.4801 1643.82 45.8805 L1670.4 45.84 Z" fill="#000000" fill-rule="nonzero" fill-opacity="1" /><path clip-path="url(#clip050)" d="M1716.37 34.1734 Q1715.12 33.4443 1713.62 33.1202 Q1712.16 32.7556 1710.38 32.7556 Q1704.06 32.7556 1700.66 36.8875 Q1697.3 40.9789 1697.3 48.6757 L1697.3 72.576 L1689.8 72.576 L1689.8 27.2059 L1697.3 27.2059 L1697.3 34.2544 Q1699.64 30.1225 1703.41 28.1376 Q1707.18 26.1121 1712.57 26.1121 Q1713.34 26.1121 1714.27 26.2337 Q1715.2 26.3147 1716.33 26.5172 L1716.37 34.1734 Z" fill="#000000" fill-rule="nonzero" fill-opacity="1" /><path clip-path="url(#clip050)" d="M1724.19 27.2059 L1731.65 27.2059 L1731.65 72.576 L1724.19 72.576 L1724.19 27.2059 M1724.19 9.54393 L1731.65 9.54393 L1731.65 18.9825 L1724.19 18.9825 L1724.19 9.54393 Z" fill="#000000" fill-rule="nonzero" fill-opacity="1" /><path clip-path="url(#clip050)" d="M1764.82 32.4315 Q1758.83 32.4315 1755.34 37.1306 Q1751.86 41.7891 1751.86 49.9314 Q1751.86 58.0738 1755.3 62.7728 Q1758.79 67.4314 1764.82 67.4314 Q1770.78 67.4314 1774.26 62.7323 Q1777.75 58.0333 1777.75 49.9314 Q1777.75 41.8701 1774.26 37.1711 Q1770.78 32.4315 1764.82 32.4315 M1764.82 26.1121 Q1774.55 26.1121 1780.1 32.4315 Q1785.65 38.7509 1785.65 49.9314 Q1785.65 61.0714 1780.1 67.4314 Q1774.55 73.7508 1764.82 73.7508 Q1755.06 73.7508 1749.51 67.4314 Q1744 61.0714 1744 49.9314 Q1744 38.7509 1749.51 32.4315 Q1755.06 26.1121 1764.82 26.1121 Z" fill="#000000" fill-rule="nonzero" fill-opacity="1" /><path clip-path="url(#clip050)" d="M1824.29 34.1734 Q1823.04 33.4443 1821.54 33.1202 Q1820.08 32.7556 1818.3 32.7556 Q1811.98 32.7556 1808.57 36.8875 Q1805.21 40.9789 1805.21 48.6757 L1805.21 72.576 L1797.72 72.576 L1797.72 27.2059 L1805.21 27.2059 L1805.21 34.2544 Q1807.56 30.1225 1811.33 28.1376 Q1815.1 26.1121 1820.48 26.1121 Q1821.25 26.1121 1822.18 26.2337 Q1823.12 26.3147 1824.25 26.5172 L1824.29 34.1734 Z" fill="#000000" fill-rule="nonzero" fill-opacity="1" /><path clip-path="url(#clip050)" d="M1858.8 12.096 L1893.56 12.096 L1893.56 18.9825 L1866.99 18.9825 L1866.99 36.8065 L1890.97 36.8065 L1890.97 43.6931 L1866.99 43.6931 L1866.99 72.576 L1858.8 72.576 L1858.8 12.096 Z" fill="#000000" fill-rule="nonzero" fill-opacity="1" /><path clip-path="url(#clip050)" d="M1900.16 27.2059 L1907.62 27.2059 L1907.62 72.576 L1900.16 72.576 L1900.16 27.2059 M1900.16 9.54393 L1907.62 9.54393 L1907.62 18.9825 L1900.16 18.9825 L1900.16 9.54393 Z" fill="#000000" fill-rule="nonzero" fill-opacity="1" /><path clip-path="url(#clip050)" d="M1930.59 14.324 L1930.59 27.2059 L1945.94 27.2059 L1945.94 32.9987 L1930.59 32.9987 L1930.59 57.6282 Q1930.59 63.1779 1932.09 64.7578 Q1933.62 66.3376 1938.28 66.3376 L1945.94 66.3376 L1945.94 72.576 L1938.28 72.576 Q1929.66 72.576 1926.37 69.3758 Q1923.09 66.1351 1923.09 57.6282 L1923.09 32.9987 L1917.62 32.9987 L1917.62 27.2059 L1923.09 27.2059 L1923.09 14.324 L1930.59 14.324 Z" fill="#000000" fill-rule="nonzero" fill-opacity="1" /><path clip-path="url(#clip051)" d="M323.315 173.254 L346.041 175.748 L368.768 178.526 L391.495 181.616 L414.221 185.049 L436.948 188.856 L459.675 193.069 L482.401 197.725 L505.128 202.857 L527.855 208.503 L550.582 214.697 L573.308 221.476 L596.035 228.873 L618.762 236.937 L641.488 245.704 L664.215 255.194 L686.942 265.431 L709.668 276.438 L732.395 288.246 L755.122 300.877 L777.849 313.966 L800.575 327.692 L823.302 342.299 L846.029 357.855 L868.755 374.166 L891.482 391.22 L914.209 409.005 L936.935 427.507 L959.662 446.711 L982.389 466.6 L1005.12 488.132 L1027.84 511.142 L1050.57 535.113 L1073.3 560.022 L1096.02 586.029 L1118.75 612.892 L1141.48 639.221 L1164.2 665.611 L1186.93 692.702 L1209.66 720.455 L1232.38 748.803 L1255.11 776.141 L1277.84 803.057 L1300.56 829.877 L1323.29 856.488 L1346.02 882.778 L1368.74 908.647 L1391.47 934.638 L1414.2 960.982 L1436.92 986.669 L1459.65 1011.67 L1482.38 1035.96 L1505.1 1059.66 L1527.83 1082.72 L1550.56 1105.04 L1573.28 1126.6 L1596.01 1147.42 L1618.74 1168.86 L1641.46 1190.14 L1664.19 1210.58 L1686.92 1230.19 L1709.64 1248.97 L1732.37 1266.93 L1755.1 1284.08 L1777.82 1300.44 L1800.55 1316.04 L1823.28 1330.88 L1846 1345.02 L1868.73 1358.46 L1891.46 1371.23 L1914.18 1383.38 L1936.91 1394.92 L1959.64 1406.08 L1982.36 1416.7 L2005.09 1426.76 L2027.82 1436.29 L2050.54 1445.34 L2073.27 1453.91 L2096 1462.04 L2118.72 1469.75 L2141.45 1477.07 L2164.18 1484.02 L2186.9 1490.61 L2209.63 1496.83 L2232.36 1502.65 L2255.08 1508.18 L2277.81 1513.43 L2300.54 1518.42 L2323.26 1523.15 L2345.99 1527.63 L2368.72 1531.89 L2391.44 1535.93 L2414.17 1539.75 L2436.9 1543.38 L2459.62 1546.82 L2482.35 1550.22 L2505.08 1553.48 L2527.8 1556.57 L2550.53 1559.5 L2573.26 1562.28 L2573.26 1371.15 L2550.53 1359.58 L2527.8 1347.52 L2505.08 1334.93 L2482.35 1321.79 L2459.62 1308.11 L2436.9 1293.84 L2414.17 1278.98 L2391.44 1263.5 L2368.72 1247.39 L2345.99 1230.1 L2323.26 1212.07 L2300.54 1193.33 L2277.81 1173.86 L2255.08 1153.64 L2232.36 1132.66 L2209.63 1110.9 L2186.9 1088.38 L2164.18 1065.09 L2141.45 1041.05 L2118.72 1016.29 L2096 990.847 L2073.27 964.78 L2050.54 938.156 L2027.82 911.061 L2005.09 883.59 L1982.36 855.853 L1959.64 827.966 L1936.91 800.054 L1914.18 772.249 L1891.46 744.681 L1868.73 717.485 L1846 690.788 L1823.28 664.716 L1800.55 639.384 L1777.82 614.894 L1755.1 591.327 L1732.37 568.744 L1709.64 547.187 L1686.92 526.506 L1664.19 506.883 L1641.46 488.322 L1618.74 470.799 L1596.01 454.278 L1573.28 438.72 L1550.56 424.077 L1527.83 410.301 L1505.1 397.341 L1482.38 385.147 L1459.65 373.669 L1436.92 362.859 L1414.2 352.672 L1391.47 343.066 L1368.74 334 L1346.02 325.438 L1323.29 317.346 L1300.56 309.691 L1277.84 302.444 L1255.11 295.578 L1232.38 289.067 L1209.66 282.89 L1186.93 277.023 L1164.2 271.449 L1141.48 266.147 L1118.75 261.102 L1096.02 256.299 L1073.3 251.721 L1050.57 247.357 L1027.84 243.194 L1005.12 239.221 L982.389 235.426 L959.662 231.8 L936.935 228.333 L914.209 225.017 L891.482 221.844 L868.755 218.807 L846.029 215.898 L823.302 213.11 L800.575 210.438 L777.849 207.876 L755.122 205.419 L732.395 203.061 L709.668 200.797 L686.942 198.623 L664.215 196.535 L641.488 194.529 L618.762 192.601 L596.035 190.748 L573.308 188.965 L550.582 187.244 L527.855 185.587 L505.128 183.995 L482.401 182.465 L459.675 180.994 L436.948 179.578 L414.221 178.216 L391.495 176.905 L368.768 175.642 L346.041 174.426 L323.315 173.254  Z" fill="#4682b4" fill-rule="evenodd" fill-opacity="0.2"/>
<polyline clip-path="url(#clip051)" style="stroke:#4682b4; stroke-linecap:round; stroke-linejoin:round; stroke-width:8; stroke-opacity:1; fill:none" points="323.315,173.254 346.041,174.99 368.768,176.847 391.495,178.835 414.221,180.963 436.948,183.238 459.675,185.673 482.401,188.276 505.128,191.059 527.855,194.035 550.582,197.215 573.308,200.612 596.035,204.242 618.762,208.081 641.488,212.162 664.215,216.503 686.942,221.118 709.668,226.067 732.395,231.349 755.122,236.97 777.849,242.92 800.575,249.109 823.302,255.797 846.029,262.891 868.755,270.106 891.482,277.671 914.209,285.944 936.935,295.132 959.662,304.904 982.389,315.288 1005.12,326.317 1027.84,338.023 1050.57,350.435 1073.3,363.587 1096.02,377.617 1118.75,392.517 1141.48,408.44 1164.2,424.988 1186.93,440.825 1209.66,458.122 1232.38,476.472 1255.11,495.767 1277.84,516.707 1300.56,539.809 1323.29,563.899 1346.02,587.991 1368.74,612.324 1391.47,638.291 1414.2,666.27 1436.92,695.275 1459.65,722.048 1482.38,748.64 1505.1,776.188 1527.83,802.968 1550.56,828.536 1573.28,853.96 1596.01,879.164 1618.74,904.081 1641.46,928.647 1664.19,952.81 1686.92,976.54 1709.64,1001.2 1732.37,1025.42 1755.1,1049.05 1777.82,1072.05 1800.55,1094.41 1823.28,1116.09 1846,1137.08 1868.73,1157.37 1891.46,1176.95 1914.18,1195.83 1936.91,1213.71 1959.64,1229.55 1982.36,1245.32 2005.09,1262.11 2027.82,1278.54 2050.54,1294.26 2073.27,1309.1 2096,1322.5 2118.72,1335.33 2141.45,1347.62 2164.18,1359.72 2186.9,1371.03 2209.63,1381.83 2232.36,1392.13 2255.08,1401.96 2277.81,1411.34 2300.54,1420.28 2323.26,1428.91 2345.99,1438 2368.72,1446.56 2391.44,1453.97 2414.17,1460.79 2436.9,1467.09 2459.62,1473.76 2482.35,1480.29 2505.08,1486.06 2527.8,1491.24 2550.53,1496.18 2573.26,1501.59 "/>
<path clip-path="url(#clip051)" d="M323.315 1677.43 L346.041 1676.88 L368.768 1676.32 L391.495 1675.74 L414.221 1675.13 L436.948 1674.49 L459.675 1673.83 L482.401 1673.13 L505.128 1672.41 L527.855 1671.66 L550.582 1670.87 L573.308 1670.05 L596.035 1669.21 L618.762 1668.32 L641.488 1667.4 L664.215 1666.44 L686.942 1665.44 L709.668 1664.39 L732.395 1663.29 L755.122 1662.15 L777.849 1660.95 L800.575 1659.7 L823.302 1658.39 L846.029 1657.02 L868.755 1655.59 L891.482 1654.08 L914.209 1652.5 L936.935 1650.85 L959.662 1649.11 L982.389 1647.28 L1005.12 1645.37 L1027.84 1643.35 L1050.57 1641.22 L1073.3 1638.99 L1096.02 1636.63 L1118.75 1634.15 L1141.48 1631.52 L1164.2 1628.75 L1186.93 1625.82 L1209.66 1622.72 L1232.38 1619.44 L1255.11 1615.96 L1277.84 1612.27 L1300.56 1608.36 L1323.29 1604.2 L1346.02 1599.77 L1368.74 1595.06 L1391.47 1590.04 L1414.2 1584.7 L1436.92 1578.99 L1459.65 1572.9 L1482.38 1566.39 L1505.1 1559.44 L1527.83 1552.02 L1550.56 1544.09 L1573.28 1535.62 L1596.01 1526.6 L1618.74 1516.98 L1641.46 1506.85 L1664.19 1496.16 L1686.92 1484.87 L1709.64 1473 L1732.37 1460.57 L1755.1 1447.63 L1777.82 1434.23 L1800.55 1420.47 L1823.28 1406.42 L1846 1391.24 L1868.73 1375.38 L1891.46 1359.75 L1914.18 1344.57 L1936.91 1330.02 L1959.64 1316.25 L1982.36 1307.51 L2005.09 1304.33 L2027.82 1302.37 L2050.54 1301.36 L2073.27 1308.54 L2096 1315.93 L2118.72 1316.94 L2141.45 1325.06 L2164.18 1333.63 L2186.9 1342.18 L2209.63 1350.7 L2232.36 1359.17 L2255.08 1367.58 L2277.81 1375.92 L2300.54 1383.91 L2323.26 1391.38 L2345.99 1398.8 L2368.72 1406.14 L2391.44 1413.41 L2414.17 1420.59 L2436.9 1427.67 L2459.62 1434.65 L2482.35 1441.53 L2505.08 1448.29 L2527.8 1454.77 L2550.53 1461 L2573.26 1467.11 L2573.26 1266.2 L2550.53 1261.19 L2527.8 1256.51 L2505.08 1252.19 L2482.35 1248.25 L2459.62 1244.74 L2436.9 1241.04 L2414.17 1236.88 L2391.44 1235.46 L2368.72 1231.96 L2345.99 1227.07 L2323.26 1222.77 L2300.54 1219.08 L2277.81 1216.03 L2255.08 1213.69 L2232.36 1212.35 L2209.63 1213.41 L2186.9 1213.2 L2164.18 1209.36 L2141.45 1208.82 L2118.72 1210.14 L2096 1210.73 L2073.27 1210.63 L2050.54 1210.18 L2027.82 1209.61 L2005.09 1208.82 L1982.36 1207.4 L1959.64 1205.12 L1936.91 1202.88 L1914.18 1200.72 L1891.46 1199.06 L1868.73 1198.14 L1846 1198.01 L1823.28 1198.7 L1800.55 1196.5 L1777.82 1192.13 L1755.1 1191.04 L1732.37 1190.47 L1709.64 1188.86 L1686.92 1189.04 L1664.19 1192.13 L1641.46 1194.06 L1618.74 1194.84 L1596.01 1196.44 L1573.28 1198.88 L1550.56 1202.15 L1527.83 1206.55 L1505.1 1212.14 L1482.38 1217.97 L1459.65 1224.77 L1436.92 1232.23 L1414.2 1239.69 L1391.47 1248.12 L1368.74 1257.54 L1346.02 1267.92 L1323.29 1279.23 L1300.56 1291.24 L1277.84 1304.02 L1255.11 1317.53 L1232.38 1331.59 L1209.66 1345.43 L1186.93 1359.43 L1164.2 1373.34 L1141.48 1387.1 L1118.75 1400.7 L1096.02 1414.11 L1073.3 1427.33 L1050.57 1441.45 L1027.84 1455.61 L1005.12 1469.32 L982.389 1482.6 L959.662 1495.46 L936.935 1507.06 L914.209 1518.29 L891.482 1529.25 L868.755 1539.91 L846.029 1550.26 L823.302 1560.26 L800.575 1569.89 L777.849 1579.03 L755.122 1587.62 L732.395 1595.92 L709.668 1604 L686.942 1611.58 L664.215 1618.68 L641.488 1625.31 L618.762 1631.48 L596.035 1637.19 L573.308 1642.45 L550.582 1647.29 L527.855 1651.74 L505.128 1655.81 L482.401 1659.53 L459.675 1662.91 L436.948 1665.98 L414.221 1668.76 L391.495 1671.28 L368.768 1673.54 L346.041 1675.59 L323.315 1677.43  Z" fill="#b22222" fill-rule="evenodd" fill-opacity="0.2"/>
<polyline clip-path="url(#clip051)" style="stroke:#b22222; stroke-linecap:round; stroke-linejoin:round; stroke-width:8; stroke-opacity:1; fill:none" points="323.315,1677.43 346.041,1676.33 368.768,1675.16 391.495,1673.91 414.221,1672.57 436.948,1671.14 459.675,1669.61 482.401,1667.98 505.128,1666.23 527.855,1664.36 550.582,1662.37 573.308,1660.25 596.035,1657.99 618.762,1655.61 641.488,1653.08 664.215,1650.39 686.942,1647.52 709.668,1644.45 732.395,1641.19 755.122,1637.74 777.849,1634.18 800.575,1630.32 823.302,1626.27 846.029,1622.21 868.755,1617.91 891.482,1613.01 914.209,1607.7 936.935,1602.06 959.662,1596.08 982.389,1589.73 1005.12,1583 1027.84,1575.87 1050.57,1568.33 1073.3,1560.27 1096.02,1551.65 1118.75,1543.05 1141.48,1534.58 1164.2,1525.29 1186.93,1515.47 1209.66,1504.86 1232.38,1492.95 1255.11,1480.57 1277.84,1468.81 1300.56,1456.39 1323.29,1443.07 1346.02,1429.51 1368.74,1414.84 1391.47,1401.2 1414.2,1386.36 1436.92,1373.3 1459.65,1361.18 1482.38,1349.32 1505.1,1337.83 1527.83,1324.4 1550.56,1311.02 1573.28,1298.8 1596.01,1289.21 1618.74,1280.69 1641.46,1270.8 1664.19,1262.72 1686.92,1254.57 1709.64,1248.43 1732.37,1243.43 1755.1,1239.71 1777.82,1237.64 1800.55,1236.35 1823.28,1234.74 1846,1235.02 1868.73,1235.5 1891.46,1234.5 1914.18,1234.92 1936.91,1237.7 1959.64,1238.87 1982.36,1240.27 2005.09,1242.31 2027.82,1244.37 2050.54,1247.48 2073.27,1249.63 2096,1251.41 2118.72,1255.55 2141.45,1260.15 2164.18,1264.47 2186.9,1270.14 2209.63,1275.24 2232.36,1282.43 2255.08,1288.68 2277.81,1294.64 2300.54,1301.48 2323.26,1309.1 2345.99,1316.91 2368.72,1324.69 2391.44,1332.19 2414.17,1340.12 2436.9,1347.72 2459.62,1354.96 2482.35,1362.13 2505.08,1369.3 2527.8,1376.47 2550.53,1383.63 2573.26,1391.01 "/>
<polyline clip-path="url(#clip051)" style="stroke:#4682b4; stroke-linecap:round; stroke-linejoin:round; stroke-width:4; stroke-opacity:1; fill:none" stroke-dasharray="16, 10" points="323.315,173.254 334.621,174.189 345.927,175.16 357.233,176.17 368.54,177.22 379.846,178.311 391.152,179.446 402.458,180.625 413.765,181.85 425.071,183.124 436.377,184.447 447.683,185.822 458.99,187.25 470.296,188.734 481.602,190.275 492.908,191.875 504.215,193.538 515.521,195.264 526.827,197.056 538.133,198.916 549.44,200.848 560.746,202.852 572.052,204.932 583.358,207.091 594.665,209.33 605.971,211.653 617.277,214.062 628.583,216.56 639.89,219.151 651.196,221.836 662.502,224.619 673.808,227.503 685.114,230.492 696.421,233.587 707.727,236.794 719.033,240.113 730.339,243.55 741.646,247.108 752.952,250.789 764.258,254.597 775.564,258.536 786.871,262.609 798.177,266.819 809.483,271.17 820.789,275.665 832.096,280.308 843.402,285.102 854.708,290.051 866.014,295.158 877.321,300.426 888.627,305.86 899.933,311.461 911.239,317.233 922.546,323.178 933.852,329.301 945.158,335.602 956.464,342.086 967.771,348.755 979.077,355.61 990.383,362.655 1001.69,369.891 1013,377.32 1024.3,384.944 1035.61,392.763 1046.91,400.78 1058.22,408.996 1069.53,417.409 1080.83,426.022 1092.14,434.833 1103.45,443.842 1114.75,453.048 1126.06,462.451 1137.36,472.048 1148.67,481.838 1159.98,491.818 1171.28,501.986 1182.59,512.34 1193.9,522.877 1205.2,533.592 1216.51,544.483 1227.81,555.544 1239.12,566.77 1250.43,578.155 1261.73,589.693 1273.04,601.377 1284.35,613.202 1295.65,625.161 1306.96,637.245 1318.26,649.449 1329.57,661.765 1340.88,674.184 1352.18,686.699 1363.49,699.302 1374.8,711.984 1386.1,724.736 1397.41,737.55 1408.71,750.415 1420.02,763.322 1431.33,776.263 1442.63,789.225 1453.94,802.201 1465.25,815.184 1476.55,828.162 1487.86,841.127 1499.16,854.067 1510.47,866.974 1521.78,879.839 1533.08,892.651 1544.39,905.403 1555.7,918.087 1567,930.694 1578.31,943.217 1589.61,955.648 1600.92,967.981 1612.23,980.208 1623.53,992.323 1634.84,1004.32 1646.15,1016.19 1657.45,1027.94 1668.76,1039.55 1680.06,1051.02 1691.37,1062.35 1702.68,1073.52 1713.98,1084.55 1725.29,1095.42 1736.6,1106.14 1747.9,1116.69 1759.21,1127.08 1770.51,1137.3 1781.82,1147.35 1793.13,1157.23 1804.43,1166.94 1815.74,1176.48 1827.05,1185.85 1838.35,1195.05 1849.66,1204.08 1860.96,1212.94 1872.27,1221.63 1883.58,1230.14 1894.88,1238.49 1906.19,1246.67 1917.5,1254.68 1928.8,1262.53 1940.11,1270.21 1951.41,1277.72 1962.72,1285.08 1974.03,1292.27 1985.33,1299.31 1996.64,1306.19 2007.95,1312.91 2019.25,1319.49 2030.56,1325.92 2041.86,1332.2 2053.17,1338.33 2064.48,1344.33 2075.78,1350.19 2087.09,1355.91 2098.4,1361.49 2109.7,1366.95 2121.01,1372.27 2132.31,1377.47 2143.62,1382.55 2154.93,1387.51 2166.23,1392.35 2177.54,1397.07 2188.85,1401.68 2200.15,1406.18 2211.46,1410.58 2222.76,1414.87 2234.07,1419.05 2245.38,1423.14 2256.68,1427.12 2267.99,1431.02 2279.3,1434.81 2290.6,1438.52 2301.91,1442.14 2313.21,1445.67 2324.52,1449.11 2335.83,1452.47 2347.13,1455.75 2358.44,1458.95 2369.75,1462.08 2381.05,1465.13 2392.36,1468.1 2403.66,1471 2414.97,1473.84 2426.28,1476.6 2437.58,1479.3 2448.89,1481.93 2460.2,1484.5 2471.5,1487.01 2482.81,1489.46 2494.11,1491.85 2505.42,1494.18 2516.73,1496.46 2528.03,1498.68 2539.34,1500.85 2550.65,1502.97 2561.95,1505.04 2573.26,1507.06 "/>
<polyline clip-path="url(#clip051)" style="stroke:#b22222; stroke-linecap:round; stroke-linejoin:round; stroke-width:4; stroke-opacity:1; fill:none" stroke-dasharray="16, 10" points="323.315,1677.43 334.621,1676.81 345.927,1676.16 357.233,1675.49 368.54,1674.8 379.846,1674.07 391.152,1673.32 402.458,1672.54 413.765,1671.73 425.071,1670.89 436.377,1670.02 447.683,1669.11 458.99,1668.16 470.296,1667.18 481.602,1666.17 492.908,1665.11 504.215,1664.02 515.521,1662.88 526.827,1661.7 538.133,1660.48 549.44,1659.21 560.746,1657.89 572.052,1656.53 583.358,1655.11 594.665,1653.64 605.971,1652.12 617.277,1650.55 628.583,1648.91 639.89,1647.22 651.196,1645.47 662.502,1643.65 673.808,1641.78 685.114,1639.83 696.421,1637.82 707.727,1635.74 719.033,1633.59 730.339,1631.36 741.646,1629.06 752.952,1626.69 764.258,1624.23 775.564,1621.7 786.871,1619.08 798.177,1616.38 809.483,1613.59 820.789,1610.71 832.096,1607.75 843.402,1604.69 854.708,1601.55 866.014,1598.31 877.321,1594.97 888.627,1591.54 899.933,1588.01 911.239,1584.38 922.546,1580.65 933.852,1576.82 945.158,1572.89 956.464,1568.85 967.771,1564.72 979.077,1560.48 990.383,1556.13 1001.69,1551.69 1013,1547.14 1024.3,1542.49 1035.61,1537.74 1046.91,1532.89 1058.22,1527.94 1069.53,1522.89 1080.83,1517.74 1092.14,1512.5 1103.45,1507.17 1114.75,1501.75 1126.06,1496.24 1137.36,1490.65 1148.67,1484.98 1159.98,1479.23 1171.28,1473.42 1182.59,1467.53 1193.9,1461.58 1205.2,1455.57 1216.51,1449.51 1227.81,1443.4 1239.12,1437.25 1250.43,1431.06 1261.73,1424.85 1273.04,1418.61 1284.35,1412.36 1295.65,1406.1 1306.96,1399.84 1318.26,1393.59 1329.57,1387.35 1340.88,1381.13 1352.18,1374.94 1363.49,1368.79 1374.8,1362.68 1386.1,1356.63 1397.41,1350.63 1408.71,1344.7 1420.02,1338.85 1431.33,1333.08 1442.63,1327.41 1453.94,1321.83 1465.25,1316.36 1476.55,1311 1487.86,1305.77 1499.16,1300.66 1510.47,1295.69 1521.78,1290.86 1533.08,1286.17 1544.39,1281.64 1555.7,1277.26 1567,1273.05 1578.31,1269 1589.61,1265.13 1600.92,1261.43 1612.23,1257.9 1623.53,1254.56 1634.84,1251.4 1646.15,1248.43 1657.45,1245.64 1668.76,1243.05 1680.06,1240.64 1691.37,1238.42 1702.68,1236.4 1713.98,1234.56 1725.29,1232.92 1736.6,1231.46 1747.9,1230.2 1759.21,1229.12 1770.51,1228.23 1781.82,1227.52 1793.13,1227 1804.43,1226.65 1815.74,1226.48 1827.05,1226.49 1838.35,1226.66 1849.66,1226.99 1860.96,1227.49 1872.27,1228.15 1883.58,1228.97 1894.88,1229.93 1906.19,1231.04 1917.5,1232.3 1928.8,1233.7 1940.11,1235.23 1951.41,1236.89 1962.72,1238.68 1974.03,1240.6 1985.33,1242.63 1996.64,1244.78 2007.95,1247.04 2019.25,1249.4 2030.56,1251.86 2041.86,1254.42 2053.17,1257.06 2064.48,1259.8 2075.78,1262.61 2087.09,1265.5 2098.4,1268.47 2109.7,1271.51 2121.01,1274.62 2132.31,1277.78 2143.62,1281.01 2154.93,1284.29 2166.23,1287.62 2177.54,1291 2188.85,1294.43 2200.15,1297.9 2211.46,1301.4 2222.76,1304.95 2234.07,1308.52 2245.38,1312.12 2256.68,1315.75 2267.99,1319.4 2279.3,1323.07 2290.6,1326.76 2301.91,1330.47 2313.21,1334.19 2324.52,1337.92 2335.83,1341.66 2347.13,1345.4 2358.44,1349.15 2369.75,1352.9 2381.05,1356.65 2392.36,1360.4 2403.66,1364.14 2414.97,1367.88 2426.28,1371.61 2437.58,1375.33 2448.89,1379.05 2460.2,1382.75 2471.5,1386.43 2482.81,1390.11 2494.11,1393.77 2505.42,1397.41 2516.73,1401.03 2528.03,1404.64 2539.34,1408.22 2550.65,1411.78 2561.95,1415.32 2573.26,1418.84 "/>
<circle clip-path="url(#clip051)" cx="323.315" cy="178.21" r="10.8" fill="#4682b4" fill-rule="evenodd" fill-opacity="0.5" stroke="#000000" stroke-opacity="0.5" stroke-width="3.84"/>
<circle clip-path="url(#clip051)" cx="435.812" cy="196.84" r="10.8" fill="#4682b4" fill-rule="evenodd" fill-opacity="0.5" stroke="#000000" stroke-opacity="0.5" stroke-width="3.84"/>
<circle clip-path="url(#clip051)" cx="548.309" cy="196.874" r="10.8" fill="#4682b4" fill-rule="evenodd" fill-opacity="0.5" stroke="#000000" stroke-opacity="0.5" stroke-width="3.84"/>
<circle clip-path="url(#clip051)" cx="660.806" cy="223.582" r="10.8" fill="#4682b4" fill-rule="evenodd" fill-opacity="0.5" stroke="#000000" stroke-opacity="0.5" stroke-width="3.84"/>
<circle clip-path="url(#clip051)" cx="773.303" cy="268.034" r="10.8" fill="#4682b4" fill-rule="evenodd" fill-opacity="0.5" stroke="#000000" stroke-opacity="0.5" stroke-width="3.84"/>
<circle clip-path="url(#clip051)" cx="885.8" cy="299.933" r="10.8" fill="#4682b4" fill-rule="evenodd" fill-opacity="0.5" stroke="#000000" stroke-opacity="0.5" stroke-width="3.84"/>
<circle clip-path="url(#clip051)" cx="998.298" cy="368.285" r="10.8" fill="#4682b4" fill-rule="evenodd" fill-opacity="0.5" stroke="#000000" stroke-opacity="0.5" stroke-width="3.84"/>
<circle clip-path="url(#clip051)" cx="1110.79" cy="444.531" r="10.8" fill="#4682b4" fill-rule="evenodd" fill-opacity="0.5" stroke="#000000" stroke-opacity="0.5" stroke-width="3.84"/>
<circle clip-path="url(#clip051)" cx="1223.29" cy="549.518" r="10.8" fill="#4682b4" fill-rule="evenodd" fill-opacity="0.5" stroke="#000000" stroke-opacity="0.5" stroke-width="3.84"/>
<circle clip-path="url(#clip051)" cx="1335.79" cy="664.705" r="10.8" fill="#4682b4" fill-rule="evenodd" fill-opacity="0.5" stroke="#000000" stroke-opacity="0.5" stroke-width="3.84"/>
<circle clip-path="url(#clip051)" cx="1448.29" cy="793.706" r="10.8" fill="#4682b4" fill-rule="evenodd" fill-opacity="0.5" stroke="#000000" stroke-opacity="0.5" stroke-width="3.84"/>
<circle clip-path="url(#clip051)" cx="1560.78" cy="933.558" r="10.8" fill="#4682b4" fill-rule="evenodd" fill-opacity="0.5" stroke="#000000" stroke-opacity="0.5" stroke-width="3.84"/>
<circle clip-path="url(#clip051)" cx="1673.28" cy="1043.32" r="10.8" fill="#4682b4" fill-rule="evenodd" fill-opacity="0.5" stroke="#000000" stroke-opacity="0.5" stroke-width="3.84"/>
<circle clip-path="url(#clip051)" cx="1785.78" cy="1150.39" r="10.8" fill="#4682b4" fill-rule="evenodd" fill-opacity="0.5" stroke="#000000" stroke-opacity="0.5" stroke-width="3.84"/>
<circle clip-path="url(#clip051)" cx="1898.27" cy="1242.16" r="10.8" fill="#4682b4" fill-rule="evenodd" fill-opacity="0.5" stroke="#000000" stroke-opacity="0.5" stroke-width="3.84"/>
<circle clip-path="url(#clip051)" cx="2010.77" cy="1310.85" r="10.8" fill="#4682b4" fill-rule="evenodd" fill-opacity="0.5" stroke="#000000" stroke-opacity="0.5" stroke-width="3.84"/>
<circle clip-path="url(#clip051)" cx="2123.27" cy="1381.67" r="10.8" fill="#4682b4" fill-rule="evenodd" fill-opacity="0.5" stroke="#000000" stroke-opacity="0.5" stroke-width="3.84"/>
<circle clip-path="url(#clip051)" cx="2235.77" cy="1418.57" r="10.8" fill="#4682b4" fill-rule="evenodd" fill-opacity="0.5" stroke="#000000" stroke-opacity="0.5" stroke-width="3.84"/>
<circle clip-path="url(#clip051)" cx="2348.26" cy="1448.33" r="10.8" fill="#4682b4" fill-rule="evenodd" fill-opacity="0.5" stroke="#000000" stroke-opacity="0.5" stroke-width="3.84"/>
<circle clip-path="url(#clip051)" cx="2460.76" cy="1483.32" r="10.8" fill="#4682b4" fill-rule="evenodd" fill-opacity="0.5" stroke="#000000" stroke-opacity="0.5" stroke-width="3.84"/>
<circle clip-path="url(#clip051)" cx="2573.26" cy="1498.57" r="10.8" fill="#4682b4" fill-rule="evenodd" fill-opacity="0.5" stroke="#000000" stroke-opacity="0.5" stroke-width="3.84"/>
<circle clip-path="url(#clip051)" cx="323.315" cy="1688.65" r="10.8" fill="#b22222" fill-rule="evenodd" fill-opacity="0.5" stroke="#000000" stroke-opacity="0.5" stroke-width="3.84"/>
<circle clip-path="url(#clip051)" cx="435.812" cy="1671.73" r="10.8" fill="#b22222" fill-rule="evenodd" fill-opacity="0.5" stroke="#000000" stroke-opacity="0.5" stroke-width="3.84"/>
<circle clip-path="url(#clip051)" cx="548.309" cy="1651.81" r="10.8" fill="#b22222" fill-rule="evenodd" fill-opacity="0.5" stroke="#000000" stroke-opacity="0.5" stroke-width="3.84"/>
<circle clip-path="url(#clip051)" cx="660.806" cy="1632.04" r="10.8" fill="#b22222" fill-rule="evenodd" fill-opacity="0.5" stroke="#000000" stroke-opacity="0.5" stroke-width="3.84"/>
<circle clip-path="url(#clip051)" cx="773.303" cy="1619.05" r="10.8" fill="#b22222" fill-rule="evenodd" fill-opacity="0.5" stroke="#000000" stroke-opacity="0.5" stroke-width="3.84"/>
<circle clip-path="url(#clip051)" cx="885.8" cy="1598.3" r="10.8" fill="#b22222" fill-rule="evenodd" fill-opacity="0.5" stroke="#000000" stroke-opacity="0.5" stroke-width="3.84"/>
<circle clip-path="url(#clip051)" cx="998.298" cy="1558.06" r="10.8" fill="#b22222" fill-rule="evenodd" fill-opacity="0.5" stroke="#000000" stroke-opacity="0.5" stroke-width="3.84"/>
<circle clip-path="url(#clip051)" cx="1110.79" cy="1504.57" r="10.8" fill="#b22222" fill-rule="evenodd" fill-opacity="0.5" stroke="#000000" stroke-opacity="0.5" stroke-width="3.84"/>
<circle clip-path="url(#clip051)" cx="1223.29" cy="1453.67" r="10.8" fill="#b22222" fill-rule="evenodd" fill-opacity="0.5" stroke="#000000" stroke-opacity="0.5" stroke-width="3.84"/>
<circle clip-path="url(#clip051)" cx="1335.79" cy="1388.06" r="10.8" fill="#b22222" fill-rule="evenodd" fill-opacity="0.5" stroke="#000000" stroke-opacity="0.5" stroke-width="3.84"/>
<circle clip-path="url(#clip051)" cx="1448.29" cy="1334.67" r="10.8" fill="#b22222" fill-rule="evenodd" fill-opacity="0.5" stroke="#000000" stroke-opacity="0.5" stroke-width="3.84"/>
<circle clip-path="url(#clip051)" cx="1560.78" cy="1272.37" r="10.8" fill="#b22222" fill-rule="evenodd" fill-opacity="0.5" stroke="#000000" stroke-opacity="0.5" stroke-width="3.84"/>
<circle clip-path="url(#clip051)" cx="1673.28" cy="1239.96" r="10.8" fill="#b22222" fill-rule="evenodd" fill-opacity="0.5" stroke="#000000" stroke-opacity="0.5" stroke-width="3.84"/>
<circle clip-path="url(#clip051)" cx="1785.78" cy="1224.26" r="10.8" fill="#b22222" fill-rule="evenodd" fill-opacity="0.5" stroke="#000000" stroke-opacity="0.5" stroke-width="3.84"/>
<circle clip-path="url(#clip051)" cx="1898.27" cy="1216.49" r="10.8" fill="#b22222" fill-rule="evenodd" fill-opacity="0.5" stroke="#000000" stroke-opacity="0.5" stroke-width="3.84"/>
<circle clip-path="url(#clip051)" cx="2010.77" cy="1249.17" r="10.8" fill="#b22222" fill-rule="evenodd" fill-opacity="0.5" stroke="#000000" stroke-opacity="0.5" stroke-width="3.84"/>
<circle clip-path="url(#clip051)" cx="2123.27" cy="1269.84" r="10.8" fill="#b22222" fill-rule="evenodd" fill-opacity="0.5" stroke="#000000" stroke-opacity="0.5" stroke-width="3.84"/>
<circle clip-path="url(#clip051)" cx="2235.77" cy="1307.92" r="10.8" fill="#b22222" fill-rule="evenodd" fill-opacity="0.5" stroke="#000000" stroke-opacity="0.5" stroke-width="3.84"/>
<circle clip-path="url(#clip051)" cx="2348.26" cy="1345.56" r="10.8" fill="#b22222" fill-rule="evenodd" fill-opacity="0.5" stroke="#000000" stroke-opacity="0.5" stroke-width="3.84"/>
<circle clip-path="url(#clip051)" cx="2460.76" cy="1396.11" r="10.8" fill="#b22222" fill-rule="evenodd" fill-opacity="0.5" stroke="#000000" stroke-opacity="0.5" stroke-width="3.84"/>
<circle clip-path="url(#clip051)" cx="2573.26" cy="1410.03" r="10.8" fill="#b22222" fill-rule="evenodd" fill-opacity="0.5" stroke="#000000" stroke-opacity="0.5" stroke-width="3.84"/>
<path clip-path="url(#clip050)" d="M1942 440.536 L2561.26 440.536 L2561.26 181.336 L1942 181.336  Z" fill="#ffffff" fill-rule="evenodd" fill-opacity="1"/>
<polyline clip-path="url(#clip050)" style="stroke:#000000; stroke-linecap:round; stroke-linejoin:round; stroke-width:4; stroke-opacity:1; fill:none" points="1942,440.536 2561.26,440.536 2561.26,181.336 1942,181.336 1942,440.536 "/>
<polyline clip-path="url(#clip050)" style="stroke:#4682b4; stroke-linecap:round; stroke-linejoin:round; stroke-width:8; stroke-opacity:1; fill:none" points="1968.5,233.176 2127.5,233.176 "/>
<path clip-path="url(#clip050)" d="M2176.24 217.031 L2176.24 221.591 Q2173.58 220.318 2171.22 219.693 Q2168.86 219.068 2166.66 219.068 Q2162.84 219.068 2160.76 220.549 Q2158.7 222.031 2158.7 224.762 Q2158.7 227.054 2160.06 228.234 Q2161.45 229.392 2165.29 230.109 L2168.12 230.688 Q2173.35 231.683 2175.83 234.206 Q2178.33 236.706 2178.33 240.919 Q2178.33 245.942 2174.95 248.535 Q2171.59 251.128 2165.08 251.128 Q2162.63 251.128 2159.85 250.572 Q2157.1 250.016 2154.14 248.929 L2154.14 244.114 Q2156.98 245.711 2159.71 246.521 Q2162.45 247.331 2165.08 247.331 Q2169.09 247.331 2171.27 245.757 Q2173.44 244.183 2173.44 241.267 Q2173.44 238.72 2171.87 237.285 Q2170.32 235.85 2166.75 235.132 L2163.9 234.577 Q2158.67 233.535 2156.33 231.313 Q2154 229.091 2154 225.132 Q2154 220.549 2157.21 217.91 Q2160.46 215.271 2166.13 215.271 Q2168.56 215.271 2171.08 215.711 Q2173.6 216.151 2176.24 217.031 Z" fill="#000000" fill-rule="nonzero" fill-opacity="1" /><path clip-path="url(#clip050)" d="M2210.73 214.484 Q2207.63 219.808 2206.13 225.017 Q2204.62 230.225 2204.62 235.572 Q2204.62 240.919 2206.13 246.174 Q2207.65 251.405 2210.73 256.706 L2207.03 256.706 Q2203.56 251.266 2201.82 246.012 Q2200.11 240.757 2200.11 235.572 Q2200.11 230.41 2201.82 225.179 Q2203.53 219.947 2207.03 214.484 L2210.73 214.484 Z" fill="#000000" fill-rule="nonzero" fill-opacity="1" /><path clip-path="url(#clip050)" d="M2219.18 215.896 L2226.15 215.896 L2234.97 239.415 L2243.83 215.896 L2250.8 215.896 L2250.8 250.456 L2246.24 250.456 L2246.24 220.109 L2237.33 243.813 L2232.63 243.813 L2223.72 220.109 L2223.72 250.456 L2219.18 250.456 L2219.18 215.896 Z" fill="#000000" fill-rule="nonzero" fill-opacity="1" /><path clip-path="url(#clip050)" d="M2271.64 220.503 L2265.29 237.702 L2278 237.702 L2271.64 220.503 M2269 215.896 L2274.3 215.896 L2287.47 250.456 L2282.61 250.456 L2279.46 241.591 L2263.88 241.591 L2260.73 250.456 L2255.8 250.456 L2269 215.896 Z" fill="#000000" fill-rule="nonzero" fill-opacity="1" /><path clip-path="url(#clip050)" d="M2315.25 245.526 L2315.25 236.243 L2307.61 236.243 L2307.61 232.401 L2319.88 232.401 L2319.88 247.239 Q2317.17 249.16 2313.9 250.155 Q2310.64 251.128 2306.94 251.128 Q2298.83 251.128 2294.25 246.405 Q2289.69 241.66 2289.69 233.211 Q2289.69 224.739 2294.25 220.017 Q2298.83 215.271 2306.94 215.271 Q2310.32 215.271 2313.35 216.105 Q2316.4 216.938 2318.97 218.558 L2318.97 223.535 Q2316.38 221.336 2313.46 220.225 Q2310.55 219.114 2307.33 219.114 Q2300.99 219.114 2297.79 222.656 Q2294.62 226.197 2294.62 233.211 Q2294.62 240.202 2297.79 243.743 Q2300.99 247.285 2307.33 247.285 Q2309.81 247.285 2311.75 246.868 Q2313.69 246.429 2315.25 245.526 Z" fill="#000000" fill-rule="nonzero" fill-opacity="1" /><path clip-path="url(#clip050)" d="M2328.42 215.896 L2333.09 215.896 L2333.09 250.456 L2328.42 250.456 L2328.42 215.896 Z" fill="#000000" fill-rule="nonzero" fill-opacity="1" /><path clip-path="url(#clip050)" d="M2358.02 249.739 L2358.02 245.479 Q2359.78 246.313 2361.59 246.753 Q2363.39 247.192 2365.13 247.192 Q2369.76 247.192 2372.19 244.091 Q2374.64 240.966 2374.99 234.623 Q2373.65 236.614 2371.59 237.679 Q2369.53 238.743 2367.03 238.743 Q2361.84 238.743 2358.81 235.618 Q2355.8 232.47 2355.8 227.03 Q2355.8 221.706 2358.95 218.489 Q2362.1 215.271 2367.33 215.271 Q2373.32 215.271 2376.47 219.878 Q2379.64 224.461 2379.64 233.211 Q2379.64 241.382 2375.75 246.266 Q2371.89 251.128 2365.34 251.128 Q2363.58 251.128 2361.77 250.78 Q2359.97 250.433 2358.02 249.739 M2367.33 235.086 Q2370.48 235.086 2372.31 232.933 Q2374.16 230.78 2374.16 227.03 Q2374.16 223.304 2372.31 221.151 Q2370.48 218.975 2367.33 218.975 Q2364.18 218.975 2362.33 221.151 Q2360.5 223.304 2360.5 227.03 Q2360.5 230.78 2362.33 232.933 Q2364.18 235.086 2367.33 235.086 Z" fill="#000000" fill-rule="nonzero" fill-opacity="1" /><path clip-path="url(#clip050)" d="M2388.09 215.896 L2406.45 215.896 L2406.45 219.831 L2392.38 219.831 L2392.38 228.304 Q2393.39 227.956 2394.41 227.794 Q2395.43 227.609 2396.45 227.609 Q2402.24 227.609 2405.62 230.78 Q2409 233.952 2409 239.368 Q2409 244.947 2405.52 248.049 Q2402.05 251.128 2395.73 251.128 Q2393.56 251.128 2391.29 250.757 Q2389.04 250.387 2386.63 249.646 L2386.63 244.947 Q2388.72 246.081 2390.94 246.637 Q2393.16 247.192 2395.64 247.192 Q2399.64 247.192 2401.98 245.086 Q2404.32 242.979 2404.32 239.368 Q2404.32 235.757 2401.98 233.651 Q2399.64 231.544 2395.64 231.544 Q2393.76 231.544 2391.89 231.961 Q2390.04 232.378 2388.09 233.257 L2388.09 215.896 Z" fill="#000000" fill-rule="nonzero" fill-opacity="1" /><path clip-path="url(#clip050)" d="M2447.61 235.248 Q2445.59 235.248 2444.44 236.961 Q2443.3 238.674 2443.3 241.729 Q2443.3 244.739 2444.44 246.475 Q2445.59 248.188 2447.61 248.188 Q2449.57 248.188 2450.71 246.475 Q2451.87 244.739 2451.87 241.729 Q2451.87 238.697 2450.71 236.984 Q2449.57 235.248 2447.61 235.248 M2447.61 232.308 Q2451.26 232.308 2453.42 234.855 Q2455.57 237.401 2455.57 241.729 Q2455.57 246.058 2453.39 248.604 Q2451.24 251.128 2447.61 251.128 Q2443.9 251.128 2441.75 248.604 Q2439.6 246.058 2439.6 241.729 Q2439.6 237.378 2441.75 234.855 Q2443.93 232.308 2447.61 232.308 M2423.72 218.211 Q2421.73 218.211 2420.57 219.947 Q2419.44 221.66 2419.44 224.669 Q2419.44 227.725 2420.57 229.438 Q2421.7 231.151 2423.72 231.151 Q2425.73 231.151 2426.87 229.438 Q2428.02 227.725 2428.02 224.669 Q2428.02 221.683 2426.87 219.947 Q2425.71 218.211 2423.72 218.211 M2444.62 215.271 L2448.32 215.271 L2426.7 251.128 L2423 251.128 L2444.62 215.271 M2423.72 215.271 Q2427.37 215.271 2429.55 217.818 Q2431.73 220.341 2431.73 224.669 Q2431.73 229.044 2429.55 231.568 Q2427.4 234.091 2423.72 234.091 Q2420.04 234.091 2417.88 231.568 Q2415.75 229.021 2415.75 224.669 Q2415.75 220.364 2417.91 217.818 Q2420.06 215.271 2423.72 215.271 Z" fill="#000000" fill-rule="nonzero" fill-opacity="1" /><path clip-path="url(#clip050)" d="M2503.79 218.558 L2503.79 223.489 Q2501.43 221.29 2498.74 220.202 Q2496.08 219.114 2493.07 219.114 Q2487.14 219.114 2483.99 222.748 Q2480.85 226.359 2480.85 233.211 Q2480.85 240.04 2483.99 243.674 Q2487.14 247.285 2493.07 247.285 Q2496.08 247.285 2498.74 246.197 Q2501.43 245.109 2503.79 242.91 L2503.79 247.794 Q2501.33 249.461 2498.58 250.294 Q2495.85 251.128 2492.79 251.128 Q2484.94 251.128 2480.43 246.336 Q2475.92 241.521 2475.92 233.211 Q2475.92 224.878 2480.43 220.086 Q2484.94 215.271 2492.79 215.271 Q2495.89 215.271 2498.62 216.105 Q2501.38 216.915 2503.79 218.558 Z" fill="#000000" fill-rule="nonzero" fill-opacity="1" /><path clip-path="url(#clip050)" d="M2511.01 215.896 L2515.68 215.896 L2515.68 250.456 L2511.01 250.456 L2511.01 215.896 Z" fill="#000000" fill-rule="nonzero" fill-opacity="1" /><path clip-path="url(#clip050)" d="M2524.13 214.484 L2527.84 214.484 Q2531.31 219.947 2533.02 225.179 Q2534.76 230.41 2534.76 235.572 Q2534.76 240.757 2533.02 246.012 Q2531.31 251.266 2527.84 256.706 L2524.13 256.706 Q2527.21 251.405 2528.72 246.174 Q2530.24 240.919 2530.24 235.572 Q2530.24 230.225 2528.72 225.017 Q2527.21 219.808 2524.13 214.484 Z" fill="#000000" fill-rule="nonzero" fill-opacity="1" /><polyline clip-path="url(#clip050)" style="stroke:#b22222; stroke-linecap:round; stroke-linejoin:round; stroke-width:8; stroke-opacity:1; fill:none" points="1968.5,285.016 2127.5,285.016 "/>
<path clip-path="url(#clip050)" d="M2154 267.736 L2158.67 267.736 L2158.67 302.296 L2154 302.296 L2154 267.736 Z" fill="#000000" fill-rule="nonzero" fill-opacity="1" /><path clip-path="url(#clip050)" d="M2193.09 266.324 Q2189.99 271.648 2188.49 276.857 Q2186.98 282.065 2186.98 287.412 Q2186.98 292.759 2188.49 298.014 Q2190.02 303.245 2193.09 308.546 L2189.39 308.546 Q2185.92 303.106 2184.18 297.852 Q2182.47 292.597 2182.47 287.412 Q2182.47 282.25 2184.18 277.019 Q2185.89 271.787 2189.39 266.324 L2193.09 266.324 Z" fill="#000000" fill-rule="nonzero" fill-opacity="1" /><path clip-path="url(#clip050)" d="M2201.54 267.736 L2208.51 267.736 L2217.33 291.255 L2226.2 267.736 L2233.16 267.736 L2233.16 302.296 L2228.6 302.296 L2228.6 271.949 L2219.69 295.653 L2214.99 295.653 L2206.08 271.949 L2206.08 302.296 L2201.54 302.296 L2201.54 267.736 Z" fill="#000000" fill-rule="nonzero" fill-opacity="1" /><path clip-path="url(#clip050)" d="M2254 272.343 L2247.65 289.542 L2260.36 289.542 L2254 272.343 M2251.36 267.736 L2256.66 267.736 L2269.83 302.296 L2264.97 302.296 L2261.82 293.431 L2246.24 293.431 L2243.09 302.296 L2238.16 302.296 L2251.36 267.736 Z" fill="#000000" fill-rule="nonzero" fill-opacity="1" /><path clip-path="url(#clip050)" d="M2297.61 297.366 L2297.61 288.083 L2289.97 288.083 L2289.97 284.241 L2302.24 284.241 L2302.24 299.079 Q2299.53 301 2296.26 301.995 Q2293 302.968 2289.3 302.968 Q2281.2 302.968 2276.61 298.245 Q2272.05 293.5 2272.05 285.051 Q2272.05 276.579 2276.61 271.857 Q2281.2 267.111 2289.3 267.111 Q2292.68 267.111 2295.71 267.945 Q2298.76 268.778 2301.33 270.398 L2301.33 275.375 Q2298.74 273.176 2295.82 272.065 Q2292.91 270.954 2289.69 270.954 Q2283.35 270.954 2280.15 274.496 Q2276.98 278.037 2276.98 285.051 Q2276.98 292.042 2280.15 295.583 Q2283.35 299.125 2289.69 299.125 Q2292.17 299.125 2294.11 298.708 Q2296.06 298.269 2297.61 297.366 Z" fill="#000000" fill-rule="nonzero" fill-opacity="1" /><path clip-path="url(#clip050)" d="M2310.78 267.736 L2315.45 267.736 L2315.45 302.296 L2310.78 302.296 L2310.78 267.736 Z" fill="#000000" fill-rule="nonzero" fill-opacity="1" /><path clip-path="url(#clip050)" d="M2340.38 301.579 L2340.38 297.319 Q2342.14 298.153 2343.95 298.593 Q2345.75 299.032 2347.49 299.032 Q2352.12 299.032 2354.55 295.931 Q2357 292.806 2357.35 286.463 Q2356.01 288.454 2353.95 289.519 Q2351.89 290.583 2349.39 290.583 Q2344.2 290.583 2341.17 287.458 Q2338.16 284.31 2338.16 278.87 Q2338.16 273.546 2341.31 270.329 Q2344.46 267.111 2349.69 267.111 Q2355.69 267.111 2358.83 271.718 Q2362 276.301 2362 285.051 Q2362 293.222 2358.12 298.106 Q2354.25 302.968 2347.7 302.968 Q2345.94 302.968 2344.13 302.62 Q2342.33 302.273 2340.38 301.579 M2349.69 286.926 Q2352.84 286.926 2354.67 284.773 Q2356.52 282.62 2356.52 278.87 Q2356.52 275.144 2354.67 272.991 Q2352.84 270.815 2349.69 270.815 Q2346.54 270.815 2344.69 272.991 Q2342.86 275.144 2342.86 278.87 Q2342.86 282.62 2344.69 284.773 Q2346.54 286.926 2349.69 286.926 Z" fill="#000000" fill-rule="nonzero" fill-opacity="1" /><path clip-path="url(#clip050)" d="M2370.45 267.736 L2388.81 267.736 L2388.81 271.671 L2374.74 271.671 L2374.74 280.144 Q2375.75 279.796 2376.77 279.634 Q2377.79 279.449 2378.81 279.449 Q2384.6 279.449 2387.98 282.62 Q2391.36 285.792 2391.36 291.208 Q2391.36 296.787 2387.88 299.889 Q2384.41 302.968 2378.09 302.968 Q2375.92 302.968 2373.65 302.597 Q2371.4 302.227 2369 301.486 L2369 296.787 Q2371.08 297.921 2373.3 298.477 Q2375.52 299.032 2378 299.032 Q2382 299.032 2384.34 296.926 Q2386.68 294.819 2386.68 291.208 Q2386.68 287.597 2384.34 285.491 Q2382 283.384 2378 283.384 Q2376.13 283.384 2374.25 283.801 Q2372.4 284.218 2370.45 285.097 L2370.45 267.736 Z" fill="#000000" fill-rule="nonzero" fill-opacity="1" /><path clip-path="url(#clip050)" d="M2429.97 287.088 Q2427.95 287.088 2426.8 288.801 Q2425.66 290.514 2425.66 293.569 Q2425.66 296.579 2426.8 298.315 Q2427.95 300.028 2429.97 300.028 Q2431.94 300.028 2433.07 298.315 Q2434.23 296.579 2434.23 293.569 Q2434.23 290.537 2433.07 288.824 Q2431.94 287.088 2429.97 287.088 M2429.97 284.148 Q2433.62 284.148 2435.78 286.695 Q2437.93 289.241 2437.93 293.569 Q2437.93 297.898 2435.75 300.444 Q2433.6 302.968 2429.97 302.968 Q2426.26 302.968 2424.11 300.444 Q2421.96 297.898 2421.96 293.569 Q2421.96 289.218 2424.11 286.695 Q2426.29 284.148 2429.97 284.148 M2406.08 270.051 Q2404.09 270.051 2402.93 271.787 Q2401.8 273.5 2401.8 276.509 Q2401.8 279.565 2402.93 281.278 Q2404.06 282.991 2406.08 282.991 Q2408.09 282.991 2409.23 281.278 Q2410.38 279.565 2410.38 276.509 Q2410.38 273.523 2409.23 271.787 Q2408.07 270.051 2406.08 270.051 M2426.98 267.111 L2430.69 267.111 L2409.06 302.968 L2405.36 302.968 L2426.98 267.111 M2406.08 267.111 Q2409.74 267.111 2411.91 269.658 Q2414.09 272.181 2414.09 276.509 Q2414.09 280.884 2411.91 283.408 Q2409.76 285.931 2406.08 285.931 Q2402.4 285.931 2400.25 283.408 Q2398.12 280.861 2398.12 276.509 Q2398.12 272.204 2400.27 269.658 Q2402.42 267.111 2406.08 267.111 Z" fill="#000000" fill-rule="nonzero" fill-opacity="1" /><path clip-path="url(#clip050)" d="M2486.15 270.398 L2486.15 275.329 Q2483.79 273.13 2481.1 272.042 Q2478.44 270.954 2475.43 270.954 Q2469.5 270.954 2466.36 274.588 Q2463.21 278.199 2463.21 285.051 Q2463.21 291.88 2466.36 295.514 Q2469.5 299.125 2475.43 299.125 Q2478.44 299.125 2481.1 298.037 Q2483.79 296.949 2486.15 294.75 L2486.15 299.634 Q2483.69 301.301 2480.94 302.134 Q2478.21 302.968 2475.15 302.968 Q2467.31 302.968 2462.79 298.176 Q2458.28 293.361 2458.28 285.051 Q2458.28 276.718 2462.79 271.926 Q2467.31 267.111 2475.15 267.111 Q2478.25 267.111 2480.99 267.945 Q2483.74 268.755 2486.15 270.398 Z" fill="#000000" fill-rule="nonzero" fill-opacity="1" /><path clip-path="url(#clip050)" d="M2493.37 267.736 L2498.05 267.736 L2498.05 302.296 L2493.37 302.296 L2493.37 267.736 Z" fill="#000000" fill-rule="nonzero" fill-opacity="1" /><path clip-path="url(#clip050)" d="M2506.49 266.324 L2510.2 266.324 Q2513.67 271.787 2515.38 277.019 Q2517.12 282.25 2517.12 287.412 Q2517.12 292.597 2515.38 297.852 Q2513.67 303.106 2510.2 308.546 L2506.49 308.546 Q2509.57 303.245 2511.08 298.014 Q2512.61 292.759 2512.61 287.412 Q2512.61 282.065 2511.08 276.857 Q2509.57 271.648 2506.49 266.324 Z" fill="#000000" fill-rule="nonzero" fill-opacity="1" /><polyline clip-path="url(#clip050)" style="stroke:#4682b4; stroke-linecap:round; stroke-linejoin:round; stroke-width:4; stroke-opacity:1; fill:none" stroke-dasharray="16, 10" points="1968.5,336.856 2127.5,336.856 "/>
<path clip-path="url(#clip050)" d="M2176.24 320.711 L2176.24 325.271 Q2173.58 323.998 2171.22 323.373 Q2168.86 322.748 2166.66 322.748 Q2162.84 322.748 2160.76 324.229 Q2158.7 325.711 2158.7 328.442 Q2158.7 330.734 2160.06 331.914 Q2161.45 333.072 2165.29 333.789 L2168.12 334.368 Q2173.35 335.363 2175.83 337.886 Q2178.33 340.386 2178.33 344.599 Q2178.33 349.622 2174.95 352.215 Q2171.59 354.808 2165.08 354.808 Q2162.63 354.808 2159.85 354.252 Q2157.1 353.696 2154.14 352.609 L2154.14 347.794 Q2156.98 349.391 2159.71 350.201 Q2162.45 351.011 2165.08 351.011 Q2169.09 351.011 2171.27 349.437 Q2173.44 347.863 2173.44 344.947 Q2173.44 342.4 2171.87 340.965 Q2170.32 339.53 2166.75 338.812 L2163.9 338.257 Q2158.67 337.215 2156.33 334.993 Q2154 332.771 2154 328.812 Q2154 324.229 2157.21 321.59 Q2160.46 318.951 2166.13 318.951 Q2168.56 318.951 2171.08 319.391 Q2173.6 319.831 2176.24 320.711 Z" fill="#000000" fill-rule="nonzero" fill-opacity="1" /><path clip-path="url(#clip050)" d="M2210.73 318.164 Q2207.63 323.488 2206.13 328.697 Q2204.62 333.905 2204.62 339.252 Q2204.62 344.599 2206.13 349.854 Q2207.65 355.085 2210.73 360.386 L2207.03 360.386 Q2203.56 354.946 2201.82 349.692 Q2200.11 344.437 2200.11 339.252 Q2200.11 334.09 2201.82 328.859 Q2203.53 323.627 2207.03 318.164 L2210.73 318.164 Z" fill="#000000" fill-rule="nonzero" fill-opacity="1" /><path clip-path="url(#clip050)" d="M2223.21 320.849 L2223.21 328.211 L2231.98 328.211 L2231.98 331.521 L2223.21 331.521 L2223.21 345.595 Q2223.21 348.766 2224.07 349.669 Q2224.95 350.571 2227.61 350.571 L2231.98 350.571 L2231.98 354.136 L2227.61 354.136 Q2222.68 354.136 2220.8 352.308 Q2218.93 350.456 2218.93 345.595 L2218.93 331.521 L2215.8 331.521 L2215.8 328.211 L2218.93 328.211 L2218.93 320.849 L2223.21 320.849 Z" fill="#000000" fill-rule="nonzero" fill-opacity="1" /><path clip-path="url(#clip050)" d="M2252.61 332.192 Q2251.89 331.775 2251.03 331.59 Q2250.2 331.382 2249.18 331.382 Q2245.57 331.382 2243.63 333.743 Q2241.7 336.081 2241.7 340.479 L2241.7 354.136 L2237.42 354.136 L2237.42 328.211 L2241.7 328.211 L2241.7 332.238 Q2243.05 329.877 2245.2 328.743 Q2247.35 327.586 2250.43 327.586 Q2250.87 327.586 2251.4 327.655 Q2251.94 327.701 2252.58 327.817 L2252.61 332.192 Z" fill="#000000" fill-rule="nonzero" fill-opacity="1" /><path clip-path="url(#clip050)" d="M2256.64 343.905 L2256.64 328.211 L2260.89 328.211 L2260.89 343.743 Q2260.89 347.423 2262.33 349.275 Q2263.76 351.104 2266.64 351.104 Q2270.08 351.104 2272.07 348.905 Q2274.09 346.706 2274.09 342.909 L2274.09 328.211 L2278.35 328.211 L2278.35 354.136 L2274.09 354.136 L2274.09 350.155 Q2272.54 352.516 2270.48 353.673 Q2268.44 354.808 2265.73 354.808 Q2261.26 354.808 2258.95 352.03 Q2256.64 349.252 2256.64 343.905 M2267.35 327.586 L2267.35 327.586 Z" fill="#000000" fill-rule="nonzero" fill-opacity="1" /><path clip-path="url(#clip050)" d="M2309.3 340.109 L2309.3 342.192 L2289.71 342.192 Q2289.99 346.59 2292.35 348.905 Q2294.74 351.196 2298.97 351.196 Q2301.43 351.196 2303.72 350.595 Q2306.03 349.993 2308.3 348.789 L2308.3 352.817 Q2306.01 353.789 2303.6 354.298 Q2301.2 354.808 2298.72 354.808 Q2292.51 354.808 2288.88 351.196 Q2285.27 347.585 2285.27 341.428 Q2285.27 335.062 2288.7 331.335 Q2292.14 327.586 2297.98 327.586 Q2303.21 327.586 2306.24 330.965 Q2309.3 334.322 2309.3 340.109 M2305.04 338.859 Q2304.99 335.363 2303.07 333.28 Q2301.17 331.197 2298.02 331.197 Q2294.46 331.197 2292.31 333.21 Q2290.18 335.224 2289.85 338.882 L2305.04 338.859 Z" fill="#000000" fill-rule="nonzero" fill-opacity="1" /><path clip-path="url(#clip050)" d="M2315.62 318.164 L2319.32 318.164 Q2322.79 323.627 2324.51 328.859 Q2326.24 334.09 2326.24 339.252 Q2326.24 344.437 2324.51 349.692 Q2322.79 354.946 2319.32 360.386 L2315.62 360.386 Q2318.69 355.085 2320.2 349.854 Q2321.73 344.599 2321.73 339.252 Q2321.73 333.905 2320.2 328.697 Q2318.69 323.488 2315.62 318.164 Z" fill="#000000" fill-rule="nonzero" fill-opacity="1" /><polyline clip-path="url(#clip050)" style="stroke:#b22222; stroke-linecap:round; stroke-linejoin:round; stroke-width:4; stroke-opacity:1; fill:none" stroke-dasharray="16, 10" points="1968.5,388.696 2127.5,388.696 "/>
<path clip-path="url(#clip050)" d="M2154 371.416 L2158.67 371.416 L2158.67 405.976 L2154 405.976 L2154 371.416 Z" fill="#000000" fill-rule="nonzero" fill-opacity="1" /><path clip-path="url(#clip050)" d="M2193.09 370.004 Q2189.99 375.328 2188.49 380.537 Q2186.98 385.745 2186.98 391.092 Q2186.98 396.439 2188.49 401.694 Q2190.02 406.925 2193.09 412.226 L2189.39 412.226 Q2185.92 406.786 2184.18 401.532 Q2182.47 396.277 2182.47 391.092 Q2182.47 385.93 2184.18 380.699 Q2185.89 375.467 2189.39 370.004 L2193.09 370.004 Z" fill="#000000" fill-rule="nonzero" fill-opacity="1" /><path clip-path="url(#clip050)" d="M2205.57 372.689 L2205.57 380.051 L2214.34 380.051 L2214.34 383.361 L2205.57 383.361 L2205.57 397.435 Q2205.57 400.606 2206.43 401.509 Q2207.31 402.411 2209.97 402.411 L2214.34 402.411 L2214.34 405.976 L2209.97 405.976 Q2205.04 405.976 2203.16 404.148 Q2201.29 402.296 2201.29 397.435 L2201.29 383.361 L2198.16 383.361 L2198.16 380.051 L2201.29 380.051 L2201.29 372.689 L2205.57 372.689 Z" fill="#000000" fill-rule="nonzero" fill-opacity="1" /><path clip-path="url(#clip050)" d="M2234.97 384.032 Q2234.25 383.615 2233.39 383.43 Q2232.56 383.222 2231.54 383.222 Q2227.93 383.222 2225.99 385.583 Q2224.07 387.921 2224.07 392.319 L2224.07 405.976 L2219.78 405.976 L2219.78 380.051 L2224.07 380.051 L2224.07 384.078 Q2225.41 381.717 2227.56 380.583 Q2229.71 379.426 2232.79 379.426 Q2233.23 379.426 2233.76 379.495 Q2234.3 379.541 2234.95 379.657 L2234.97 384.032 Z" fill="#000000" fill-rule="nonzero" fill-opacity="1" /><path clip-path="url(#clip050)" d="M2239 395.745 L2239 380.051 L2243.26 380.051 L2243.26 395.583 Q2243.26 399.263 2244.69 401.115 Q2246.13 402.944 2249 402.944 Q2252.45 402.944 2254.44 400.745 Q2256.45 398.546 2256.45 394.749 L2256.45 380.051 L2260.71 380.051 L2260.71 405.976 L2256.45 405.976 L2256.45 401.995 Q2254.9 404.356 2252.84 405.513 Q2250.8 406.648 2248.09 406.648 Q2243.63 406.648 2241.31 403.87 Q2239 401.092 2239 395.745 M2249.71 379.426 L2249.71 379.426 Z" fill="#000000" fill-rule="nonzero" fill-opacity="1" /><path clip-path="url(#clip050)" d="M2291.66 391.949 L2291.66 394.032 L2272.07 394.032 Q2272.35 398.43 2274.71 400.745 Q2277.1 403.036 2281.33 403.036 Q2283.79 403.036 2286.08 402.435 Q2288.39 401.833 2290.66 400.629 L2290.66 404.657 Q2288.37 405.629 2285.96 406.138 Q2283.56 406.648 2281.08 406.648 Q2274.88 406.648 2271.24 403.036 Q2267.63 399.425 2267.63 393.268 Q2267.63 386.902 2271.06 383.175 Q2274.51 379.426 2280.34 379.426 Q2285.57 379.426 2288.6 382.805 Q2291.66 386.162 2291.66 391.949 M2287.4 390.699 Q2287.35 387.203 2285.43 385.12 Q2283.53 383.037 2280.38 383.037 Q2276.82 383.037 2274.67 385.05 Q2272.54 387.064 2272.21 390.722 L2287.4 390.699 Z" fill="#000000" fill-rule="nonzero" fill-opacity="1" /><path clip-path="url(#clip050)" d="M2297.98 370.004 L2301.68 370.004 Q2305.15 375.467 2306.87 380.699 Q2308.6 385.93 2308.6 391.092 Q2308.6 396.277 2306.87 401.532 Q2305.15 406.786 2301.68 412.226 L2297.98 412.226 Q2301.06 406.925 2302.56 401.694 Q2304.09 396.439 2304.09 391.092 Q2304.09 385.745 2302.56 380.537 Q2301.06 375.328 2297.98 370.004 Z" fill="#000000" fill-rule="nonzero" fill-opacity="1" /></svg>
