<?xml version="1.0" encoding="utf-8"?>
<svg xmlns="http://www.w3.org/2000/svg" xmlns:xlink="http://www.w3.org/1999/xlink" width="672" height="480" viewBox="0 0 2688 1920">
<defs>
  <clipPath id="clip020">
    <rect x="0" y="0" width="2688" height="1920"/>
  </clipPath>
</defs>
<path clip-path="url(#clip020)" d="M0 1920 L2688 1920 L2688 -4.26326e-14 L0 -4.26326e-14  Z" fill="#ffffff" fill-rule="evenodd" fill-opacity="1"/>
<defs>
  <clipPath id="clip021">
    <rect x="255" y="127" width="2386" height="1607"/>
  </clipPath>
</defs>
<path clip-path="url(#clip020)" d="M255.816 1734.12 L2640.76 1734.12 L2640.76 127.792 L255.816 127.792  Z" fill="#ffffff" fill-rule="evenodd" fill-opacity="1"/>
<polyline clip-path="url(#clip021)" style="stroke:#000000; stroke-linecap:round; stroke-linejoin:round; stroke-width:2; stroke-opacity:0.1; fill:none" points="323.315,1734.12 323.315,127.792 "/>
<polyline clip-path="url(#clip021)" style="stroke:#000000; stroke-linecap:round; stroke-linejoin:round; stroke-width:2; stroke-opacity:0.1; fill:none" points="885.8,1734.12 885.8,127.792 "/>
<polyline clip-path="url(#clip021)" style="stroke:#000000; stroke-linecap:round; stroke-linejoin:round; stroke-width:2; stroke-opacity:0.1; fill:none" points="1448.29,1734.12 1448.29,127.792 "/>
<polyline clip-path="url(#clip021)" style="stroke:#000000; stroke-linecap:round; stroke-linejoin:round; stroke-width:2; stroke-opacity:0.1; fill:none" points="2010.77,1734.12 2010.77,127.792 "/>
<polyline clip-path="url(#clip021)" style="stroke:#000000; stroke-linecap:round; stroke-linejoin:round; stroke-width:2; stroke-opacity:0.1; fill:none" points="2573.26,1734.12 2573.26,127.792 "/>
<polyline clip-path="url(#clip021)" style="stroke:#000000; stroke-linecap:round; stroke-linejoin:round; stroke-width:2; stroke-opacity:0.1; fill:none" points="255.816,1692.77 2640.76,1692.77 "/>
<polyline clip-path="url(#clip021)" style="stroke:#000000; stroke-linecap:round; stroke-linejoin:round; stroke-width:2; stroke-opacity:0.1; fill:none" points="255.816,1309.06 2640.76,1309.06 "/>
<polyline clip-path="url(#clip021)" style="stroke:#000000; stroke-linecap:round; stroke-linejoin:round; stroke-width:2; stroke-opacity:0.1; fill:none" points="255.816,925.34 2640.76,925.34 "/>
<polyline clip-path="url(#clip021)" style="stroke:#000000; stroke-linecap:round; stroke-linejoin:round; stroke-width:2; stroke-opacity:0.1; fill:none" points="255.816,541.623 2640.76,541.623 "/>
<polyline clip-path="url(#clip021)" style="stroke:#000000; stroke-linecap:round; stroke-linejoin:round; stroke-width:2; stroke-opacity:0.1; fill:none" points="255.816,157.905 2640.76,157.905 "/>
<polyline clip-path="url(#clip020)" style="stroke:#000000; stroke-linecap:round; stroke-linejoin:round; stroke-width:4; stroke-opacity:1; fill:none" points="255.816,1734.12 2640.76,1734.12 "/>
<polyline clip-path="url(#clip020)" style="stroke:#000000; stroke-linecap:round; stroke-linejoin:round; stroke-width:4; stroke-opacity:1; fill:none" points="323.315,1734.12 323.315,1715.22 "/>
<polyline clip-path="url(#clip020)" style="stroke:#000000; stroke-linecap:round; stroke-linejoin:round; stroke-width:4; stroke-opacity:1; fill:none" points="885.8,1734.12 885.8,1715.22 "/>
<polyline clip-path="url(#clip020)" style="stroke:#000000; stroke-linecap:round; stroke-linejoin:round; stroke-width:4; stroke-opacity:1; fill:none" points="1448.29,1734.12 1448.29,1715.22 "/>
<polyline clip-path="url(#clip020)" style="stroke:#000000; stroke-linecap:round; stroke-linejoin:round; stroke-width:4; stroke-opacity:1; fill:none" points="2010.77,1734.12 2010.77,1715.22 "/>
<polyline clip-path="url(#clip020)" style="stroke:#000000; stroke-linecap:round; stroke-linejoin:round; stroke-width:4; stroke-opacity:1; fill:none" points="2573.26,1734.12 2573.26,1715.22 "/>
<path clip-path="url(#clip020)" d="M323.315 1767.34 Q319.704 1767.34 317.875 1770.9 Q316.069 1774.45 316.069 1781.58 Q316.069 1788.68 317.875 1792.25 Q319.704 1795.79 323.315 1795.79 Q326.949 1795.79 328.754 1792.25 Q330.583 1788.68 330.583 1781.58 Q330.583 1774.45 328.754 1770.9 Q326.949 1767.34 323.315 1767.34 M323.315 1763.64 Q329.125 1763.64 332.18 1768.24 Q335.259 1772.83 335.259 1781.58 Q335.259 1790.3 332.18 1794.91 Q329.125 1799.49 323.315 1799.49 Q317.504 1799.49 314.426 1794.91 Q311.37 1790.3 311.37 1781.58 Q311.37 1772.83 314.426 1768.24 Q317.504 1763.64 323.315 1763.64 Z" fill="#000000" fill-rule="nonzero" fill-opacity="1" /><path clip-path="url(#clip020)" d="M860.488 1794.89 L868.127 1794.89 L868.127 1768.52 L859.817 1770.19 L859.817 1765.93 L868.081 1764.26 L872.756 1764.26 L872.756 1794.89 L880.395 1794.89 L880.395 1798.82 L860.488 1798.82 L860.488 1794.89 Z" fill="#000000" fill-rule="nonzero" fill-opacity="1" /><path clip-path="url(#clip020)" d="M899.84 1767.34 Q896.229 1767.34 894.4 1770.9 Q892.594 1774.45 892.594 1781.58 Q892.594 1788.68 894.4 1792.25 Q896.229 1795.79 899.84 1795.79 Q903.474 1795.79 905.279 1792.25 Q907.108 1788.68 907.108 1781.58 Q907.108 1774.45 905.279 1770.9 Q903.474 1767.34 899.84 1767.34 M899.84 1763.64 Q905.65 1763.64 908.705 1768.24 Q911.784 1772.83 911.784 1781.58 Q911.784 1790.3 908.705 1794.91 Q905.65 1799.49 899.84 1799.49 Q894.029 1799.49 890.951 1794.91 Q887.895 1790.3 887.895 1781.58 Q887.895 1772.83 890.951 1768.24 Q894.029 1763.64 899.84 1763.64 Z" fill="#000000" fill-rule="nonzero" fill-opacity="1" /><path clip-path="url(#clip020)" d="M1427.06 1794.89 L1443.38 1794.89 L1443.38 1798.82 L1421.43 1798.82 L1421.43 1794.89 Q1424.1 1792.13 1428.68 1787.5 Q1433.29 1782.85 1434.47 1781.51 Q1436.71 1778.98 1437.59 1777.25 Q1438.49 1775.49 1438.49 1773.8 Q1438.49 1771.04 1436.55 1769.31 Q1434.63 1767.57 1431.53 1767.57 Q1429.33 1767.57 1426.87 1768.34 Q1424.44 1769.1 1421.67 1770.65 L1421.67 1765.93 Q1424.49 1764.79 1426.94 1764.21 Q1429.4 1763.64 1431.43 1763.64 Q1436.8 1763.64 1440 1766.32 Q1443.19 1769.01 1443.19 1773.5 Q1443.19 1775.63 1442.38 1777.55 Q1441.6 1779.45 1439.49 1782.04 Q1438.91 1782.71 1435.81 1785.93 Q1432.71 1789.12 1427.06 1794.89 Z" fill="#000000" fill-rule="nonzero" fill-opacity="1" /><path clip-path="url(#clip020)" d="M1463.19 1767.34 Q1459.58 1767.34 1457.75 1770.9 Q1455.95 1774.45 1455.95 1781.58 Q1455.95 1788.68 1457.75 1792.25 Q1459.58 1795.79 1463.19 1795.79 Q1466.83 1795.79 1468.63 1792.25 Q1470.46 1788.68 1470.46 1781.58 Q1470.46 1774.45 1468.63 1770.9 Q1466.83 1767.34 1463.19 1767.34 M1463.19 1763.64 Q1469 1763.64 1472.06 1768.24 Q1475.14 1772.83 1475.14 1781.58 Q1475.14 1790.3 1472.06 1794.91 Q1469 1799.49 1463.19 1799.49 Q1457.38 1799.49 1454.3 1794.91 Q1451.25 1790.3 1451.25 1781.58 Q1451.25 1772.83 1454.3 1768.24 Q1457.38 1763.64 1463.19 1763.64 Z" fill="#000000" fill-rule="nonzero" fill-opacity="1" /><path clip-path="url(#clip020)" d="M1999.61 1780.19 Q2002.97 1780.9 2004.85 1783.17 Q2006.74 1785.44 2006.74 1788.77 Q2006.74 1793.89 2003.23 1796.69 Q1999.71 1799.49 1993.23 1799.49 Q1991.05 1799.49 1988.73 1799.05 Q1986.44 1798.64 1983.99 1797.78 L1983.99 1793.27 Q1985.93 1794.4 1988.25 1794.98 Q1990.56 1795.56 1993.09 1795.56 Q1997.48 1795.56 1999.78 1793.82 Q2002.09 1792.08 2002.09 1788.77 Q2002.09 1785.72 1999.94 1784.01 Q1997.81 1782.27 1993.99 1782.27 L1989.96 1782.27 L1989.96 1778.43 L1994.17 1778.43 Q1997.62 1778.43 1999.45 1777.06 Q2001.28 1775.67 2001.28 1773.08 Q2001.28 1770.42 1999.38 1769.01 Q1997.51 1767.57 1993.99 1767.57 Q1992.07 1767.57 1989.87 1767.99 Q1987.67 1768.4 1985.03 1769.28 L1985.03 1765.12 Q1987.69 1764.38 1990.01 1764.01 Q1992.35 1763.64 1994.41 1763.64 Q1999.73 1763.64 2002.83 1766.07 Q2005.93 1768.47 2005.93 1772.59 Q2005.93 1775.46 2004.29 1777.46 Q2002.65 1779.42 1999.61 1780.19 Z" fill="#000000" fill-rule="nonzero" fill-opacity="1" /><path clip-path="url(#clip020)" d="M2025.61 1767.34 Q2022 1767.34 2020.17 1770.9 Q2018.36 1774.45 2018.36 1781.58 Q2018.36 1788.68 2020.17 1792.25 Q2022 1795.79 2025.61 1795.79 Q2029.24 1795.79 2031.05 1792.25 Q2032.88 1788.68 2032.88 1781.58 Q2032.88 1774.45 2031.05 1770.9 Q2029.24 1767.34 2025.61 1767.34 M2025.61 1763.64 Q2031.42 1763.64 2034.48 1768.24 Q2037.55 1772.83 2037.55 1781.58 Q2037.55 1790.3 2034.48 1794.91 Q2031.42 1799.49 2025.61 1799.49 Q2019.8 1799.49 2016.72 1794.91 Q2013.67 1790.3 2013.67 1781.58 Q2013.67 1772.83 2016.72 1768.24 Q2019.8 1763.64 2025.61 1763.64 Z" fill="#000000" fill-rule="nonzero" fill-opacity="1" /><path clip-path="url(#clip020)" d="M2561.43 1768.34 L2549.62 1786.78 L2561.43 1786.78 L2561.43 1768.34 M2560.2 1764.26 L2566.08 1764.26 L2566.08 1786.78 L2571.01 1786.78 L2571.01 1790.67 L2566.08 1790.67 L2566.08 1798.82 L2561.43 1798.82 L2561.43 1790.67 L2545.83 1790.67 L2545.83 1786.16 L2560.2 1764.26 Z" fill="#000000" fill-rule="nonzero" fill-opacity="1" /><path clip-path="url(#clip020)" d="M2588.74 1767.34 Q2585.13 1767.34 2583.3 1770.9 Q2581.5 1774.45 2581.5 1781.58 Q2581.5 1788.68 2583.3 1792.25 Q2585.13 1795.79 2588.74 1795.79 Q2592.38 1795.79 2594.18 1792.25 Q2596.01 1788.68 2596.01 1781.58 Q2596.01 1774.45 2594.18 1770.9 Q2592.38 1767.34 2588.74 1767.34 M2588.74 1763.64 Q2594.55 1763.64 2597.61 1768.24 Q2600.69 1772.83 2600.69 1781.58 Q2600.69 1790.3 2597.61 1794.91 Q2594.55 1799.49 2588.74 1799.49 Q2582.93 1799.49 2579.85 1794.91 Q2576.8 1790.3 2576.8 1781.58 Q2576.8 1772.83 2579.85 1768.24 Q2582.93 1763.64 2588.74 1763.64 Z" fill="#000000" fill-rule="nonzero" fill-opacity="1" /><path clip-path="url(#clip020)" d="M1370.16 1835.78 L1410.36 1835.78 L1410.36 1841.19 L1393.49 1841.19 L1393.49 1883.3 L1387.03 1883.3 L1387.03 1841.19 L1370.16 1841.19 L1370.16 1835.78 Z" fill="#000000" fill-rule="nonzero" fill-opacity="1" /><path clip-path="url(#clip020)" d="M1414.31 1847.65 L1420.17 1847.65 L1420.17 1883.3 L1414.31 1883.3 L1414.31 1847.65 M1414.31 1833.78 L1420.17 1833.78 L1420.17 1841.19 L1414.31 1841.19 L1414.31 1833.78 Z" fill="#000000" fill-rule="nonzero" fill-opacity="1" /><path clip-path="url(#clip020)" d="M1460.17 1854.5 Q1462.37 1850.55 1465.43 1848.67 Q1468.48 1846.79 1472.62 1846.79 Q1478.19 1846.79 1481.21 1850.71 Q1484.24 1854.59 1484.24 1861.78 L1484.24 1883.3 L1478.35 1883.3 L1478.35 1861.98 Q1478.35 1856.85 1476.53 1854.37 Q1474.72 1851.89 1471 1851.89 Q1466.44 1851.89 1463.8 1854.91 Q1461.16 1857.93 1461.16 1863.15 L1461.16 1883.3 L1455.27 1883.3 L1455.27 1861.98 Q1455.27 1856.82 1453.46 1854.37 Q1451.64 1851.89 1447.86 1851.89 Q1443.37 1851.89 1440.73 1854.94 Q1438.09 1857.97 1438.09 1863.15 L1438.09 1883.3 L1432.2 1883.3 L1432.2 1847.65 L1438.09 1847.65 L1438.09 1853.19 Q1440.09 1849.91 1442.89 1848.35 Q1445.69 1846.79 1449.54 1846.79 Q1453.43 1846.79 1456.13 1848.77 Q1458.87 1850.74 1460.17 1854.5 Z" fill="#000000" fill-rule="nonzero" fill-opacity="1" /><path clip-path="url(#clip020)" d="M1526.41 1864.01 L1526.41 1866.88 L1499.48 1866.88 Q1499.86 1872.92 1503.11 1876.11 Q1506.39 1879.26 1512.21 1879.26 Q1515.59 1879.26 1518.74 1878.43 Q1521.92 1877.6 1525.04 1875.95 L1525.04 1881.49 Q1521.89 1882.82 1518.58 1883.52 Q1515.27 1884.22 1511.86 1884.22 Q1503.33 1884.22 1498.34 1879.26 Q1493.37 1874.29 1493.37 1865.83 Q1493.37 1857.07 1498.08 1851.95 Q1502.82 1846.79 1510.85 1846.79 Q1518.04 1846.79 1522.21 1851.44 Q1526.41 1856.06 1526.41 1864.01 M1520.55 1862.29 Q1520.49 1857.49 1517.85 1854.62 Q1515.24 1851.76 1510.91 1851.76 Q1506.01 1851.76 1503.05 1854.53 Q1500.12 1857.3 1499.67 1862.33 L1520.55 1862.29 Z" fill="#000000" fill-rule="nonzero" fill-opacity="1" /><polyline clip-path="url(#clip020)" style="stroke:#000000; stroke-linecap:round; stroke-linejoin:round; stroke-width:4; stroke-opacity:1; fill:none" points="255.816,1734.12 255.816,127.792 "/>
<polyline clip-path="url(#clip020)" style="stroke:#000000; stroke-linecap:round; stroke-linejoin:round; stroke-width:4; stroke-opacity:1; fill:none" points="255.816,1692.77 274.714,1692.77 "/>
<polyline clip-path="url(#clip020)" style="stroke:#000000; stroke-linecap:round; stroke-linejoin:round; stroke-width:4; stroke-opacity:1; fill:none" points="255.816,1309.06 274.714,1309.06 "/>
<polyline clip-path="url(#clip020)" style="stroke:#000000; stroke-linecap:round; stroke-linejoin:round; stroke-width:4; stroke-opacity:1; fill:none" points="255.816,925.34 274.714,925.34 "/>
<polyline clip-path="url(#clip020)" style="stroke:#000000; stroke-linecap:round; stroke-linejoin:round; stroke-width:4; stroke-opacity:1; fill:none" points="255.816,541.623 274.714,541.623 "/>
<polyline clip-path="url(#clip020)" style="stroke:#000000; stroke-linecap:round; stroke-linejoin:round; stroke-width:4; stroke-opacity:1; fill:none" points="255.816,157.905 274.714,157.905 "/>
<path clip-path="url(#clip020)" d="M128.159 1678.57 Q124.548 1678.57 122.719 1682.14 Q120.913 1685.68 120.913 1692.81 Q120.913 1699.92 122.719 1703.48 Q124.548 1707.02 128.159 1707.02 Q131.793 1707.02 133.599 1703.48 Q135.427 1699.92 135.427 1692.81 Q135.427 1685.68 133.599 1682.14 Q131.793 1678.57 128.159 1678.57 M128.159 1674.87 Q133.969 1674.87 137.025 1679.48 Q140.103 1684.06 140.103 1692.81 Q140.103 1701.54 137.025 1706.14 Q133.969 1710.73 128.159 1710.73 Q122.349 1710.73 119.27 1706.14 Q116.214 1701.54 116.214 1692.81 Q116.214 1684.06 119.27 1679.48 Q122.349 1674.87 128.159 1674.87 Z" fill="#000000" fill-rule="nonzero" fill-opacity="1" /><path clip-path="url(#clip020)" d="M148.321 1704.17 L153.205 1704.17 L153.205 1710.05 L148.321 1710.05 L148.321 1704.17 Z" fill="#000000" fill-rule="nonzero" fill-opacity="1" /><path clip-path="url(#clip020)" d="M173.39 1678.57 Q169.779 1678.57 167.95 1682.14 Q166.145 1685.68 166.145 1692.81 Q166.145 1699.92 167.95 1703.48 Q169.779 1707.02 173.39 1707.02 Q177.024 1707.02 178.83 1703.48 Q180.659 1699.92 180.659 1692.81 Q180.659 1685.68 178.83 1682.14 Q177.024 1678.57 173.39 1678.57 M173.39 1674.87 Q179.2 1674.87 182.256 1679.48 Q185.334 1684.06 185.334 1692.81 Q185.334 1701.54 182.256 1706.14 Q179.2 1710.73 173.39 1710.73 Q167.58 1710.73 164.501 1706.14 Q161.446 1701.54 161.446 1692.81 Q161.446 1684.06 164.501 1679.48 Q167.58 1674.87 173.39 1674.87 Z" fill="#000000" fill-rule="nonzero" fill-opacity="1" /><path clip-path="url(#clip020)" d="M203.552 1678.57 Q199.941 1678.57 198.112 1682.14 Q196.307 1685.68 196.307 1692.81 Q196.307 1699.92 198.112 1703.48 Q199.941 1707.02 203.552 1707.02 Q207.186 1707.02 208.992 1703.48 Q210.82 1699.92 210.82 1692.81 Q210.82 1685.68 208.992 1682.14 Q207.186 1678.57 203.552 1678.57 M203.552 1674.87 Q209.362 1674.87 212.418 1679.48 Q215.496 1684.06 215.496 1692.81 Q215.496 1701.54 212.418 1706.14 Q209.362 1710.73 203.552 1710.73 Q197.742 1710.73 194.663 1706.14 Q191.608 1701.54 191.608 1692.81 Q191.608 1684.06 194.663 1679.48 Q197.742 1674.87 203.552 1674.87 Z" fill="#000000" fill-rule="nonzero" fill-opacity="1" /><path clip-path="url(#clip020)" d="M129.154 1294.86 Q125.543 1294.86 123.714 1298.42 Q121.909 1301.96 121.909 1309.09 Q121.909 1316.2 123.714 1319.76 Q125.543 1323.3 129.154 1323.3 Q132.788 1323.3 134.594 1319.76 Q136.423 1316.2 136.423 1309.09 Q136.423 1301.96 134.594 1298.42 Q132.788 1294.86 129.154 1294.86 M129.154 1291.15 Q134.964 1291.15 138.02 1295.76 Q141.099 1300.34 141.099 1309.09 Q141.099 1317.82 138.02 1322.42 Q134.964 1327.01 129.154 1327.01 Q123.344 1327.01 120.265 1322.42 Q117.21 1317.82 117.21 1309.09 Q117.21 1300.34 120.265 1295.76 Q123.344 1291.15 129.154 1291.15 Z" fill="#000000" fill-rule="nonzero" fill-opacity="1" /><path clip-path="url(#clip020)" d="M149.316 1320.46 L154.2 1320.46 L154.2 1326.34 L149.316 1326.34 L149.316 1320.46 Z" fill="#000000" fill-rule="nonzero" fill-opacity="1" /><path clip-path="url(#clip020)" d="M168.413 1322.4 L184.733 1322.4 L184.733 1326.34 L162.788 1326.34 L162.788 1322.4 Q165.45 1319.65 170.034 1315.02 Q174.64 1310.36 175.821 1309.02 Q178.066 1306.5 178.946 1304.76 Q179.848 1303 179.848 1301.31 Q179.848 1298.56 177.904 1296.82 Q175.983 1295.09 172.881 1295.09 Q170.682 1295.09 168.228 1295.85 Q165.798 1296.61 163.02 1298.17 L163.02 1293.44 Q165.844 1292.31 168.297 1291.73 Q170.751 1291.15 172.788 1291.15 Q178.159 1291.15 181.353 1293.84 Q184.547 1296.52 184.547 1301.01 Q184.547 1303.14 183.737 1305.06 Q182.95 1306.96 180.844 1309.55 Q180.265 1310.23 177.163 1313.44 Q174.061 1316.64 168.413 1322.4 Z" fill="#000000" fill-rule="nonzero" fill-opacity="1" /><path clip-path="url(#clip020)" d="M194.594 1291.78 L212.95 1291.78 L212.95 1295.71 L198.876 1295.71 L198.876 1304.18 Q199.895 1303.84 200.913 1303.68 Q201.932 1303.49 202.95 1303.49 Q208.737 1303.49 212.117 1306.66 Q215.496 1309.83 215.496 1315.25 Q215.496 1320.83 212.024 1323.93 Q208.552 1327.01 202.233 1327.01 Q200.057 1327.01 197.788 1326.64 Q195.543 1326.27 193.135 1325.53 L193.135 1320.83 Q195.219 1321.96 197.441 1322.52 Q199.663 1323.07 202.14 1323.07 Q206.145 1323.07 208.482 1320.97 Q210.82 1318.86 210.82 1315.25 Q210.82 1311.64 208.482 1309.53 Q206.145 1307.43 202.14 1307.43 Q200.265 1307.43 198.39 1307.84 Q196.538 1308.26 194.594 1309.14 L194.594 1291.78 Z" fill="#000000" fill-rule="nonzero" fill-opacity="1" /><path clip-path="url(#clip020)" d="M128.159 911.138 Q124.548 911.138 122.719 914.703 Q120.913 918.245 120.913 925.375 Q120.913 932.481 122.719 936.046 Q124.548 939.587 128.159 939.587 Q131.793 939.587 133.599 936.046 Q135.427 932.481 135.427 925.375 Q135.427 918.245 133.599 914.703 Q131.793 911.138 128.159 911.138 M128.159 907.435 Q133.969 907.435 137.025 912.041 Q140.103 916.625 140.103 925.375 Q140.103 934.101 137.025 938.708 Q133.969 943.291 128.159 943.291 Q122.349 943.291 119.27 938.708 Q116.214 934.101 116.214 925.375 Q116.214 916.625 119.27 912.041 Q122.349 907.435 128.159 907.435 Z" fill="#000000" fill-rule="nonzero" fill-opacity="1" /><path clip-path="url(#clip020)" d="M148.321 936.74 L153.205 936.74 L153.205 942.62 L148.321 942.62 L148.321 936.74 Z" fill="#000000" fill-rule="nonzero" fill-opacity="1" /><path clip-path="url(#clip020)" d="M163.436 908.06 L181.793 908.06 L181.793 911.995 L167.719 911.995 L167.719 920.467 Q168.737 920.12 169.756 919.958 Q170.774 919.773 171.793 919.773 Q177.58 919.773 180.959 922.944 Q184.339 926.115 184.339 931.532 Q184.339 937.111 180.867 940.212 Q177.395 943.291 171.075 943.291 Q168.899 943.291 166.631 942.921 Q164.385 942.55 161.978 941.81 L161.978 937.111 Q164.061 938.245 166.284 938.8 Q168.506 939.356 170.983 939.356 Q174.987 939.356 177.325 937.249 Q179.663 935.143 179.663 931.532 Q179.663 927.921 177.325 925.814 Q174.987 923.708 170.983 923.708 Q169.108 923.708 167.233 924.125 Q165.381 924.541 163.436 925.421 L163.436 908.06 Z" fill="#000000" fill-rule="nonzero" fill-opacity="1" /><path clip-path="url(#clip020)" d="M203.552 911.138 Q199.941 911.138 198.112 914.703 Q196.307 918.245 196.307 925.375 Q196.307 932.481 198.112 936.046 Q199.941 939.587 203.552 939.587 Q207.186 939.587 208.992 936.046 Q210.82 932.481 210.82 925.375 Q210.82 918.245 208.992 914.703 Q207.186 911.138 203.552 911.138 M203.552 907.435 Q209.362 907.435 212.418 912.041 Q215.496 916.625 215.496 925.375 Q215.496 934.101 212.418 938.708 Q209.362 943.291 203.552 943.291 Q197.742 943.291 194.663 938.708 Q191.608 934.101 191.608 925.375 Q191.608 916.625 194.663 912.041 Q197.742 907.435 203.552 907.435 Z" fill="#000000" fill-rule="nonzero" fill-opacity="1" /><path clip-path="url(#clip020)" d="M129.154 527.421 Q125.543 527.421 123.714 530.986 Q121.909 534.528 121.909 541.657 Q121.909 548.764 123.714 552.329 Q125.543 555.87 129.154 555.87 Q132.788 555.87 134.594 552.329 Q136.423 548.764 136.423 541.657 Q136.423 534.528 134.594 530.986 Q132.788 527.421 129.154 527.421 M129.154 523.718 Q134.964 523.718 138.02 528.324 Q141.099 532.907 141.099 541.657 Q141.099 550.384 138.02 554.991 Q134.964 559.574 129.154 559.574 Q123.344 559.574 120.265 554.991 Q117.21 550.384 117.21 541.657 Q117.21 532.907 120.265 528.324 Q123.344 523.718 129.154 523.718 Z" fill="#000000" fill-rule="nonzero" fill-opacity="1" /><path clip-path="url(#clip020)" d="M149.316 553.023 L154.2 553.023 L154.2 558.903 L149.316 558.903 L149.316 553.023 Z" fill="#000000" fill-rule="nonzero" fill-opacity="1" /><path clip-path="url(#clip020)" d="M163.205 524.343 L185.427 524.343 L185.427 526.333 L172.881 558.903 L167.997 558.903 L179.802 528.278 L163.205 528.278 L163.205 524.343 Z" fill="#000000" fill-rule="nonzero" fill-opacity="1" /><path clip-path="url(#clip020)" d="M194.594 524.343 L212.95 524.343 L212.95 528.278 L198.876 528.278 L198.876 536.75 Q199.895 536.403 200.913 536.241 Q201.932 536.056 202.95 536.056 Q208.737 536.056 212.117 539.227 Q215.496 542.398 215.496 547.815 Q215.496 553.393 212.024 556.495 Q208.552 559.574 202.233 559.574 Q200.057 559.574 197.788 559.204 Q195.543 558.833 193.135 558.092 L193.135 553.393 Q195.219 554.528 197.441 555.083 Q199.663 555.639 202.14 555.639 Q206.145 555.639 208.482 553.532 Q210.82 551.426 210.82 547.815 Q210.82 544.204 208.482 542.097 Q206.145 539.991 202.14 539.991 Q200.265 539.991 198.39 540.407 Q196.538 540.824 194.594 541.704 L194.594 524.343 Z" fill="#000000" fill-rule="nonzero" fill-opacity="1" /><path clip-path="url(#clip020)" d="M118.969 171.25 L126.608 171.25 L126.608 144.885 L118.298 146.551 L118.298 142.292 L126.562 140.625 L131.238 140.625 L131.238 171.25 L138.876 171.25 L138.876 175.185 L118.969 175.185 L118.969 171.25 Z" fill="#000000" fill-rule="nonzero" fill-opacity="1" /><path clip-path="url(#clip020)" d="M148.321 169.306 L153.205 169.306 L153.205 175.185 L148.321 175.185 L148.321 169.306 Z" fill="#000000" fill-rule="nonzero" fill-opacity="1" /><path clip-path="url(#clip020)" d="M173.39 143.704 Q169.779 143.704 167.95 147.269 Q166.145 150.811 166.145 157.94 Q166.145 165.047 167.95 168.611 Q169.779 172.153 173.39 172.153 Q177.024 172.153 178.83 168.611 Q180.659 165.047 180.659 157.94 Q180.659 150.811 178.83 147.269 Q177.024 143.704 173.39 143.704 M173.39 140 Q179.2 140 182.256 144.607 Q185.334 149.19 185.334 157.94 Q185.334 166.667 182.256 171.273 Q179.2 175.857 173.39 175.857 Q167.58 175.857 164.501 171.273 Q161.446 166.667 161.446 157.94 Q161.446 149.19 164.501 144.607 Q167.58 140 173.39 140 Z" fill="#000000" fill-rule="nonzero" fill-opacity="1" /><path clip-path="url(#clip020)" d="M203.552 143.704 Q199.941 143.704 198.112 147.269 Q196.307 150.811 196.307 157.94 Q196.307 165.047 198.112 168.611 Q199.941 172.153 203.552 172.153 Q207.186 172.153 208.992 168.611 Q210.82 165.047 210.82 157.94 Q210.82 150.811 208.992 147.269 Q207.186 143.704 203.552 143.704 M203.552 140 Q209.362 140 212.418 144.607 Q215.496 149.19 215.496 157.94 Q215.496 166.667 212.418 171.273 Q209.362 175.857 203.552 175.857 Q197.742 175.857 194.663 171.273 Q191.608 166.667 191.608 157.94 Q191.608 149.19 194.663 144.607 Q197.742 140 203.552 140 Z" fill="#000000" fill-rule="nonzero" fill-opacity="1" /><path clip-path="url(#clip020)" d="M19.402 1086.72 L37.2578 1086.72 L37.2578 1078.64 Q37.2578 1074.15 34.9343 1071.7 Q32.6108 1069.25 28.314 1069.25 Q24.0489 1069.25 21.7255 1071.7 Q19.402 1074.15 19.402 1078.64 L19.402 1086.72 M14.1184 1093.15 L14.1184 1078.64 Q14.1184 1070.65 17.7469 1066.58 Q21.3435 1062.47 28.314 1062.47 Q35.3481 1062.47 38.9447 1066.58 Q42.5413 1070.65 42.5413 1078.64 L42.5413 1086.72 L61.6384 1086.72 L61.6384 1093.15 L14.1184 1093.15 Z" fill="#000000" fill-rule="nonzero" fill-opacity="1" /><path clip-path="url(#clip020)" d="M31.465 1034.59 Q30.8921 1035.57 30.6375 1036.75 Q30.351 1037.9 30.351 1039.3 Q30.351 1044.26 33.5975 1046.94 Q36.8122 1049.58 42.8596 1049.58 L61.6384 1049.58 L61.6384 1055.47 L25.9905 1055.47 L25.9905 1049.58 L31.5287 1049.58 Q28.2821 1047.73 26.7225 1044.77 Q25.1311 1041.81 25.1311 1037.58 Q25.1311 1036.98 25.2266 1036.24 Q25.2903 1035.51 25.4494 1034.62 L31.465 1034.59 Z" fill="#000000" fill-rule="nonzero" fill-opacity="1" /><path clip-path="url(#clip020)" d="M30.0964 1016.06 Q30.0964 1020.77 33.7885 1023.51 Q37.4488 1026.25 43.8463 1026.25 Q50.2438 1026.25 53.9359 1023.54 Q57.5962 1020.81 57.5962 1016.06 Q57.5962 1011.39 53.9041 1008.65 Q50.212 1005.91 43.8463 1005.91 Q37.5124 1005.91 33.8203 1008.65 Q30.0964 1011.39 30.0964 1016.06 M25.1311 1016.06 Q25.1311 1008.43 30.0964 1004.06 Q35.0616 999.704 43.8463 999.704 Q52.5991 999.704 57.5962 1004.06 Q62.5615 1008.43 62.5615 1016.06 Q62.5615 1023.73 57.5962 1028.1 Q52.5991 1032.42 43.8463 1032.42 Q35.0616 1032.42 30.0964 1028.1 Q25.1311 1023.73 25.1311 1016.06 Z" fill="#000000" fill-rule="nonzero" fill-opacity="1" /><path clip-path="url(#clip020)" d="M56.2912 984.331 L75.1974 984.331 L75.1974 990.219 L25.9905 990.219 L25.9905 984.331 L31.4013 984.331 Q28.2185 982.485 26.6907 979.684 Q25.1311 976.851 25.1311 972.936 Q25.1311 966.443 30.2873 962.401 Q35.4436 958.327 43.8463 958.327 Q52.249 958.327 57.4052 962.401 Q62.5615 966.443 62.5615 972.936 Q62.5615 976.851 61.0337 979.684 Q59.4741 982.485 56.2912 984.331 M43.8463 964.406 Q37.3851 964.406 33.7248 967.08 Q30.0327 969.722 30.0327 974.369 Q30.0327 979.016 33.7248 981.689 Q37.3851 984.331 43.8463 984.331 Q50.3075 984.331 53.9996 981.689 Q57.6599 979.016 57.6599 974.369 Q57.6599 969.722 53.9996 967.08 Q50.3075 964.406 43.8463 964.406 Z" fill="#000000" fill-rule="nonzero" fill-opacity="1" /><path clip-path="url(#clip020)" d="M30.0964 934.806 Q30.0964 939.516 33.7885 942.254 Q37.4488 944.991 43.8463 944.991 Q50.2438 944.991 53.9359 942.286 Q57.5962 939.548 57.5962 934.806 Q57.5962 930.127 53.9041 927.39 Q50.212 924.653 43.8463 924.653 Q37.5124 924.653 33.8203 927.39 Q30.0964 930.127 30.0964 934.806 M25.1311 934.806 Q25.1311 927.167 30.0964 922.806 Q35.0616 918.446 43.8463 918.446 Q52.5991 918.446 57.5962 922.806 Q62.5615 927.167 62.5615 934.806 Q62.5615 942.476 57.5962 946.837 Q52.5991 951.166 43.8463 951.166 Q35.0616 951.166 30.0964 946.837 Q25.1311 942.476 25.1311 934.806 Z" fill="#000000" fill-rule="nonzero" fill-opacity="1" /><path clip-path="url(#clip020)" d="M31.465 888.082 Q30.8921 889.068 30.6375 890.246 Q30.351 891.392 30.351 892.792 Q30.351 897.757 33.5975 900.431 Q36.8122 903.073 42.8596 903.073 L61.6384 903.073 L61.6384 908.961 L25.9905 908.961 L25.9905 903.073 L31.5287 903.073 Q28.2821 901.227 26.7225 898.267 Q25.1311 895.307 25.1311 891.073 Q25.1311 890.469 25.2266 889.737 Q25.2903 889.005 25.4494 888.113 L31.465 888.082 Z" fill="#000000" fill-rule="nonzero" fill-opacity="1" /><path clip-path="url(#clip020)" d="M15.869 876.146 L25.9905 876.146 L25.9905 864.083 L30.542 864.083 L30.542 876.146 L49.8937 876.146 Q54.2542 876.146 55.4955 874.968 Q56.7368 873.759 56.7368 870.098 L56.7368 864.083 L61.6384 864.083 L61.6384 870.098 Q61.6384 876.878 59.124 879.456 Q56.5777 882.034 49.8937 882.034 L30.542 882.034 L30.542 886.331 L25.9905 886.331 L25.9905 882.034 L15.869 882.034 L15.869 876.146 Z" fill="#000000" fill-rule="nonzero" fill-opacity="1" /><path clip-path="url(#clip020)" d="M25.9905 856.38 L25.9905 850.524 L61.6384 850.524 L61.6384 856.38 L25.9905 856.38 M12.1132 856.38 L12.1132 850.524 L19.5293 850.524 L19.5293 856.38 L12.1132 856.38 Z" fill="#000000" fill-rule="nonzero" fill-opacity="1" /><path clip-path="url(#clip020)" d="M30.0964 824.456 Q30.0964 829.167 33.7885 831.904 Q37.4488 834.641 43.8463 834.641 Q50.2438 834.641 53.9359 831.936 Q57.5962 829.199 57.5962 824.456 Q57.5962 819.777 53.9041 817.04 Q50.212 814.303 43.8463 814.303 Q37.5124 814.303 33.8203 817.04 Q30.0964 819.777 30.0964 824.456 M25.1311 824.456 Q25.1311 816.817 30.0964 812.457 Q35.0616 808.096 43.8463 808.096 Q52.5991 808.096 57.5962 812.457 Q62.5615 816.817 62.5615 824.456 Q62.5615 832.127 57.5962 836.487 Q52.5991 840.816 43.8463 840.816 Q35.0616 840.816 30.0964 836.487 Q25.1311 832.127 25.1311 824.456 Z" fill="#000000" fill-rule="nonzero" fill-opacity="1" /><path clip-path="url(#clip020)" d="M40.1224 768.756 L61.6384 768.756 L61.6384 774.613 L40.3133 774.613 Q35.2526 774.613 32.7381 776.586 Q30.2237 778.56 30.2237 782.506 Q30.2237 787.249 33.2474 789.986 Q36.2711 792.723 41.491 792.723 L61.6384 792.723 L61.6384 798.612 L25.9905 798.612 L25.9905 792.723 L31.5287 792.723 Q28.314 790.623 26.7225 787.79 Q25.1311 784.925 25.1311 781.201 Q25.1311 775.058 28.9505 771.907 Q32.7381 768.756 40.1224 768.756 Z" fill="#000000" fill-rule="nonzero" fill-opacity="1" /><path clip-path="url(#clip020)" d="M1121.7 14.0809 L1121.7 22.0612 Q1117.04 19.8332 1112.91 18.7395 Q1108.78 17.6457 1104.93 17.6457 Q1098.25 17.6457 1094.6 20.2383 Q1091 22.8309 1091 27.611 Q1091 31.6214 1093.39 33.6873 Q1095.82 35.7128 1102.54 36.9686 L1107.48 37.9813 Q1116.64 39.7232 1120.97 44.1387 Q1125.35 48.5136 1125.35 55.8863 Q1125.35 64.6767 1119.43 69.2137 Q1113.56 73.7508 1102.18 73.7508 Q1097.88 73.7508 1093.02 72.7785 Q1088.2 71.8063 1083.02 69.9024 L1083.02 61.4765 Q1088 64.2716 1092.78 65.6895 Q1097.56 67.1073 1102.18 67.1073 Q1109.18 67.1073 1112.99 64.3527 Q1116.8 61.598 1116.8 56.4939 Q1116.8 52.0379 1114.05 49.5264 Q1111.33 47.0148 1105.09 45.759 L1100.11 44.7868 Q1090.96 42.9639 1086.86 39.075 Q1082.77 35.1862 1082.77 28.2591 Q1082.77 20.2383 1088.4 15.6203 Q1094.08 11.0023 1104 11.0023 Q1108.25 11.0023 1112.67 11.7719 Q1117.08 12.5416 1121.7 14.0809 Z" fill="#000000" fill-rule="nonzero" fill-opacity="1" /><path clip-path="url(#clip020)" d="M1138.11 12.096 L1146.29 12.096 L1146.29 72.576 L1138.11 72.576 L1138.11 12.096 Z" fill="#000000" fill-rule="nonzero" fill-opacity="1" /><path clip-path="url(#clip020)" d="M1191.26 44.2197 Q1193.89 45.1109 1196.36 48.0275 Q1198.87 50.9442 1201.38 56.0483 L1209.69 72.576 L1200.9 72.576 L1193.16 57.061 Q1190.16 50.9847 1187.33 48.9997 Q1184.53 47.0148 1179.67 47.0148 L1170.76 47.0148 L1170.76 72.576 L1162.58 72.576 L1162.58 12.096 L1181.05 12.096 Q1191.42 12.096 1196.52 16.4305 Q1201.63 20.7649 1201.63 29.5149 Q1201.63 35.2267 1198.95 38.994 Q1196.32 42.7613 1191.26 44.2197 M1170.76 18.8205 L1170.76 40.2903 L1181.05 40.2903 Q1186.96 40.2903 1189.96 37.5762 Q1193 34.8216 1193 29.5149 Q1193 24.2082 1189.96 21.5346 Q1186.96 18.8205 1181.05 18.8205 L1170.76 18.8205 Z" fill="#000000" fill-rule="nonzero" fill-opacity="1" /><path clip-path="url(#clip020)" d="M1246.59 12.096 L1258.78 12.096 L1274.22 53.2532 L1289.73 12.096 L1301.93 12.096 L1301.93 72.576 L1293.95 72.576 L1293.95 19.4686 L1278.35 60.9499 L1270.13 60.9499 L1254.53 19.4686 L1254.53 72.576 L1246.59 72.576 L1246.59 12.096 Z" fill="#000000" fill-rule="nonzero" fill-opacity="1" /><path clip-path="url(#clip020)" d="M1335.43 32.4315 Q1329.43 32.4315 1325.95 37.1306 Q1322.47 41.7891 1322.47 49.9314 Q1322.47 58.0738 1325.91 62.7728 Q1329.39 67.4314 1335.43 67.4314 Q1341.38 67.4314 1344.87 62.7323 Q1348.35 58.0333 1348.35 49.9314 Q1348.35 41.8701 1344.87 37.1711 Q1341.38 32.4315 1335.43 32.4315 M1335.43 26.1121 Q1345.15 26.1121 1350.7 32.4315 Q1356.25 38.7509 1356.25 49.9314 Q1356.25 61.0714 1350.7 67.4314 Q1345.15 73.7508 1335.43 73.7508 Q1325.67 73.7508 1320.12 67.4314 Q1314.61 61.0714 1314.61 49.9314 Q1314.61 38.7509 1320.12 32.4315 Q1325.67 26.1121 1335.43 26.1121 Z" fill="#000000" fill-rule="nonzero" fill-opacity="1" /><path clip-path="url(#clip020)" d="M1398.46 34.0924 L1398.46 9.54393 L1405.91 9.54393 L1405.91 72.576 L1398.46 72.576 L1398.46 65.7705 Q1396.11 69.8214 1392.51 71.8063 Q1388.94 73.7508 1383.92 73.7508 Q1375.69 73.7508 1370.51 67.1883 Q1365.36 60.6258 1365.36 49.9314 Q1365.36 39.2371 1370.51 32.6746 Q1375.69 26.1121 1383.92 26.1121 Q1388.94 26.1121 1392.51 28.0971 Q1396.11 30.0415 1398.46 34.0924 M1373.06 49.9314 Q1373.06 58.1548 1376.42 62.8538 Q1379.83 67.5124 1385.74 67.5124 Q1391.65 67.5124 1395.06 62.8538 Q1398.46 58.1548 1398.46 49.9314 Q1398.46 41.7081 1395.06 37.0496 Q1391.65 32.3505 1385.74 32.3505 Q1379.83 32.3505 1376.42 37.0496 Q1373.06 41.7081 1373.06 49.9314 Z" fill="#000000" fill-rule="nonzero" fill-opacity="1" /><path clip-path="url(#clip020)" d="M1460.07 48.0275 L1460.07 51.6733 L1425.8 51.6733 Q1426.29 59.3701 1430.42 63.421 Q1434.59 67.4314 1442.01 67.4314 Q1446.3 67.4314 1450.31 66.3781 Q1454.36 65.3249 1458.33 63.2184 L1458.33 70.267 Q1454.32 71.9684 1450.11 72.8596 Q1445.9 73.7508 1441.56 73.7508 Q1430.71 73.7508 1424.35 67.4314 Q1418.03 61.1119 1418.03 50.3365 Q1418.03 39.1965 1424.02 32.6746 Q1430.06 26.1121 1440.27 26.1121 Q1449.42 26.1121 1454.73 32.0264 Q1460.07 37.9003 1460.07 48.0275 M1452.62 45.84 Q1452.54 39.7232 1449.18 36.0774 Q1445.86 32.4315 1440.35 32.4315 Q1434.11 32.4315 1430.34 35.9558 Q1426.61 39.4801 1426.05 45.8805 L1452.62 45.84 Z" fill="#000000" fill-rule="nonzero" fill-opacity="1" /><path clip-path="url(#clip020)" d="M1472.31 9.54393 L1479.76 9.54393 L1479.76 72.576 L1472.31 72.576 L1472.31 9.54393 Z" fill="#000000" fill-rule="nonzero" fill-opacity="1" /><path clip-path="url(#clip020)" d="M1517.96 46.9338 L1592.82 46.9338 L1592.82 52.7671 L1517.96 52.7671 L1517.96 46.9338 Z" fill="#000000" fill-rule="nonzero" fill-opacity="1" /><path clip-path="url(#clip020)" d="M1639.57 18.8205 L1639.57 65.8515 L1649.45 65.8515 Q1661.97 65.8515 1667.76 60.1802 Q1673.6 54.509 1673.6 42.2752 Q1673.6 30.1225 1667.76 24.4918 Q1661.97 18.8205 1649.45 18.8205 L1639.57 18.8205 M1631.39 12.096 L1648.2 12.096 Q1665.78 12.096 1674 19.4281 Q1682.23 26.7198 1682.23 42.2752 Q1682.23 57.9117 1673.96 65.2439 Q1665.7 72.576 1648.2 72.576 L1631.39 72.576 L1631.39 12.096 Z" fill="#000000" fill-rule="nonzero" fill-opacity="1" /><path clip-path="url(#clip020)" d="M1715.56 49.7694 Q1706.53 49.7694 1703.05 51.8354 Q1699.56 53.9013 1699.56 58.8839 Q1699.56 62.8538 1702.16 65.2034 Q1704.79 67.5124 1709.29 67.5124 Q1715.48 67.5124 1719.21 63.1374 Q1722.98 58.7219 1722.98 51.4303 L1722.98 49.7694 L1715.56 49.7694 M1730.43 46.6907 L1730.43 72.576 L1722.98 72.576 L1722.98 65.6895 Q1720.43 69.8214 1716.62 71.8063 Q1712.81 73.7508 1707.3 73.7508 Q1700.33 73.7508 1696.2 69.8619 Q1692.11 65.9325 1692.11 59.3701 Q1692.11 51.7138 1697.21 47.825 Q1702.36 43.9361 1712.53 43.9361 L1722.98 43.9361 L1722.98 43.2069 Q1722.98 38.0623 1719.58 35.2672 Q1716.21 32.4315 1710.1 32.4315 Q1706.21 32.4315 1702.52 33.3632 Q1698.83 34.295 1695.43 36.1584 L1695.43 29.2718 Q1699.52 27.692 1703.37 26.9223 Q1707.22 26.1121 1710.87 26.1121 Q1720.71 26.1121 1725.57 31.2163 Q1730.43 36.3204 1730.43 46.6907 Z" fill="#000000" fill-rule="nonzero" fill-opacity="1" /><path clip-path="url(#clip020)" d="M1753.16 14.324 L1753.16 27.2059 L1768.51 27.2059 L1768.51 32.9987 L1753.16 32.9987 L1753.16 57.6282 Q1753.16 63.1779 1754.66 64.7578 Q1756.2 66.3376 1760.85 66.3376 L1768.51 66.3376 L1768.51 72.576 L1760.85 72.576 Q1752.23 72.576 1748.94 69.3758 Q1745.66 66.1351 1745.66 57.6282 L1745.66 32.9987 L1740.19 32.9987 L1740.19 27.2059 L1745.66 27.2059 L1745.66 14.324 L1753.16 14.324 Z" fill="#000000" fill-rule="nonzero" fill-opacity="1" /><path clip-path="url(#clip020)" d="M1798.93 49.7694 Q1789.9 49.7694 1786.42 51.8354 Q1782.93 53.9013 1782.93 58.8839 Q1782.93 62.8538 1785.52 65.2034 Q1788.16 67.5124 1792.65 67.5124 Q1798.85 67.5124 1802.58 63.1374 Q1806.35 58.7219 1806.35 51.4303 L1806.35 49.7694 L1798.93 49.7694 M1813.8 46.6907 L1813.8 72.576 L1806.35 72.576 L1806.35 65.6895 Q1803.79 69.8214 1799.99 71.8063 Q1796.18 73.7508 1790.67 73.7508 Q1783.7 73.7508 1779.57 69.8619 Q1775.48 65.9325 1775.48 59.3701 Q1775.48 51.7138 1780.58 47.825 Q1785.73 43.9361 1795.89 43.9361 L1806.35 43.9361 L1806.35 43.2069 Q1806.35 38.0623 1802.94 35.2672 Q1799.58 32.4315 1793.46 32.4315 Q1789.57 32.4315 1785.89 33.3632 Q1782.2 34.295 1778.8 36.1584 L1778.8 29.2718 Q1782.89 27.692 1786.74 26.9223 Q1790.59 26.1121 1794.23 26.1121 Q1804.08 26.1121 1808.94 31.2163 Q1813.8 36.3204 1813.8 46.6907 Z" fill="#000000" fill-rule="nonzero" fill-opacity="1" /><polyline clip-path="url(#clip021)" style="stroke:#4682b4; stroke-linecap:round; stroke-linejoin:round; stroke-width:8; stroke-opacity:1; fill:none" points="323.315,173.254 334.621,174.189 345.927,175.16 357.233,176.17 368.54,177.22 379.846,178.311 391.152,179.446 402.458,180.625 413.765,181.85 425.071,183.124 436.377,184.447 447.683,185.822 458.99,187.25 470.296,188.734 481.602,190.275 492.908,191.875 504.215,193.538 515.521,195.264 526.827,197.056 538.133,198.916 549.44,200.848 560.746,202.852 572.052,204.932 583.358,207.091 594.665,209.33 605.971,211.653 617.277,214.062 628.583,216.56 639.89,219.151 651.196,221.836 662.502,224.619 673.808,227.503 685.114,230.492 696.421,233.587 707.727,236.794 719.033,240.113 730.339,243.55 741.646,247.108 752.952,250.789 764.258,254.597 775.564,258.536 786.871,262.609 798.177,266.819 809.483,271.17 820.789,275.665 832.096,280.308 843.402,285.102 854.708,290.051 866.014,295.158 877.321,300.426 888.627,305.86 899.933,311.461 911.239,317.233 922.546,323.178 933.852,329.301 945.158,335.602 956.464,342.086 967.771,348.755 979.077,355.61 990.383,362.655 1001.69,369.891 1013,377.32 1024.3,384.944 1035.61,392.763 1046.91,400.78 1058.22,408.996 1069.53,417.409 1080.83,426.022 1092.14,434.833 1103.45,443.842 1114.75,453.048 1126.06,462.451 1137.36,472.048 1148.67,481.838 1159.98,491.818 1171.28,501.986 1182.59,512.34 1193.9,522.877 1205.2,533.592 1216.51,544.483 1227.81,555.544 1239.12,566.77 1250.43,578.155 1261.73,589.693 1273.04,601.377 1284.35,613.202 1295.65,625.161 1306.96,637.245 1318.26,649.449 1329.57,661.765 1340.88,674.184 1352.18,686.699 1363.49,699.302 1374.8,711.984 1386.1,724.736 1397.41,737.55 1408.71,750.415 1420.02,763.322 1431.33,776.263 1442.63,789.225 1453.94,802.201 1465.25,815.184 1476.55,828.162 1487.86,841.127 1499.16,854.067 1510.47,866.974 1521.78,879.839 1533.08,892.651 1544.39,905.403 1555.7,918.087 1567,930.694 1578.31,943.217 1589.61,955.648 1600.92,967.981 1612.23,980.208 1623.53,992.323 1634.84,1004.32 1646.15,1016.19 1657.45,1027.94 1668.76,1039.55 1680.06,1051.02 1691.37,1062.35 1702.68,1073.52 1713.98,1084.55 1725.29,1095.42 1736.6,1106.14 1747.9,1116.69 1759.21,1127.08 1770.51,1137.3 1781.82,1147.35 1793.13,1157.23 1804.43,1166.94 1815.74,1176.48 1827.05,1185.85 1838.35,1195.05 1849.66,1204.08 1860.96,1212.94 1872.27,1221.63 1883.58,1230.14 1894.88,1238.49 1906.19,1246.67 1917.5,1254.68 1928.8,1262.53 1940.11,1270.21 1951.41,1277.72 1962.72,1285.08 1974.03,1292.27 1985.33,1299.31 1996.64,1306.19 2007.95,1312.91 2019.25,1319.49 2030.56,1325.92 2041.86,1332.2 2053.17,1338.33 2064.48,1344.33 2075.78,1350.19 2087.09,1355.91 2098.4,1361.49 2109.7,1366.95 2121.01,1372.27 2132.31,1377.47 2143.62,1382.55 2154.93,1387.51 2166.23,1392.35 2177.54,1397.07 2188.85,1401.68 2200.15,1406.18 2211.46,1410.58 2222.76,1414.87 2234.07,1419.05 2245.38,1423.14 2256.68,1427.12 2267.99,1431.02 2279.3,1434.81 2290.6,1438.52 2301.91,1442.14 2313.21,1445.67 2324.52,1449.11 2335.83,1452.47 2347.13,1455.75 2358.44,1458.95 2369.75,1462.08 2381.05,1465.13 2392.36,1468.1 2403.66,1471 2414.97,1473.84 2426.28,1476.6 2437.58,1479.3 2448.89,1481.93 2460.2,1484.5 2471.5,1487.01 2482.81,1489.46 2494.11,1491.85 2505.42,1494.18 2516.73,1496.46 2528.03,1498.68 2539.34,1500.85 2550.65,1502.97 2561.95,1505.04 2573.26,1507.06 "/>
<polyline clip-path="url(#clip021)" style="stroke:#b22222; stroke-linecap:round; stroke-linejoin:round; stroke-width:8; stroke-opacity:1; fill:none" points="323.315,1677.43 334.621,1676.81 345.927,1676.16 357.233,1675.49 368.54,1674.8 379.846,1674.07 391.152,1673.32 402.458,1672.54 413.765,1671.73 425.071,1670.89 436.377,1670.02 447.683,1669.11 458.99,1668.16 470.296,1667.18 481.602,1666.17 492.908,1665.11 504.215,1664.02 515.521,1662.88 526.827,1661.7 538.133,1660.48 549.44,1659.21 560.746,1657.89 572.052,1656.53 583.358,1655.11 594.665,1653.64 605.971,1652.12 617.277,1650.55 628.583,1648.91 639.89,1647.22 651.196,1645.47 662.502,1643.65 673.808,1641.78 685.114,1639.83 696.421,1637.82 707.727,1635.74 719.033,1633.59 730.339,1631.36 741.646,1629.06 752.952,1626.69 764.258,1624.23 775.564,1621.7 786.871,1619.08 798.177,1616.38 809.483,1613.59 820.789,1610.71 832.096,1607.75 843.402,1604.69 854.708,1601.55 866.014,1598.31 877.321,1594.97 888.627,1591.54 899.933,1588.01 911.239,1584.38 922.546,1580.65 933.852,1576.82 945.158,1572.89 956.464,1568.85 967.771,1564.72 979.077,1560.48 990.383,1556.13 1001.69,1551.69 1013,1547.14 1024.3,1542.49 1035.61,1537.74 1046.91,1532.89 1058.22,1527.94 1069.53,1522.89 1080.83,1517.74 1092.14,1512.5 1103.45,1507.17 1114.75,1501.75 1126.06,1496.24 1137.36,1490.65 1148.67,1484.98 1159.98,1479.23 1171.28,1473.42 1182.59,1467.53 1193.9,1461.58 1205.2,1455.57 1216.51,1449.51 1227.81,1443.4 1239.12,1437.25 1250.43,1431.06 1261.73,1424.85 1273.04,1418.61 1284.35,1412.36 1295.65,1406.1 1306.96,1399.84 1318.26,1393.59 1329.57,1387.35 1340.88,1381.13 1352.18,1374.94 1363.49,1368.79 1374.8,1362.68 1386.1,1356.63 1397.41,1350.63 1408.71,1344.7 1420.02,1338.85 1431.33,1333.08 1442.63,1327.41 1453.94,1321.83 1465.25,1316.36 1476.55,1311 1487.86,1305.77 1499.16,1300.66 1510.47,1295.69 1521.78,1290.86 1533.08,1286.17 1544.39,1281.64 1555.7,1277.26 1567,1273.05 1578.31,1269 1589.61,1265.13 1600.92,1261.43 1612.23,1257.9 1623.53,1254.56 1634.84,1251.4 1646.15,1248.43 1657.45,1245.64 1668.76,1243.05 1680.06,1240.64 1691.37,1238.42 1702.68,1236.4 1713.98,1234.56 1725.29,1232.92 1736.6,1231.46 1747.9,1230.2 1759.21,1229.12 1770.51,1228.23 1781.82,1227.52 1793.13,1227 1804.43,1226.65 1815.74,1226.48 1827.05,1226.49 1838.35,1226.66 1849.66,1226.99 1860.96,1227.49 1872.27,1228.15 1883.58,1228.97 1894.88,1229.93 1906.19,1231.04 1917.5,1232.3 1928.8,1233.7 1940.11,1235.23 1951.41,1236.89 1962.72,1238.68 1974.03,1240.6 1985.33,1242.63 1996.64,1244.78 2007.95,1247.04 2019.25,1249.4 2030.56,1251.86 2041.86,1254.42 2053.17,1257.06 2064.48,1259.8 2075.78,1262.61 2087.09,1265.5 2098.4,1268.47 2109.7,1271.51 2121.01,1274.62 2132.31,1277.78 2143.62,1281.01 2154.93,1284.29 2166.23,1287.62 2177.54,1291 2188.85,1294.43 2200.15,1297.9 2211.46,1301.4 2222.76,1304.95 2234.07,1308.52 2245.38,1312.12 2256.68,1315.75 2267.99,1319.4 2279.3,1323.07 2290.6,1326.76 2301.91,1330.47 2313.21,1334.19 2324.52,1337.92 2335.83,1341.66 2347.13,1345.4 2358.44,1349.15 2369.75,1352.9 2381.05,1356.65 2392.36,1360.4 2403.66,1364.14 2414.97,1367.88 2426.28,1371.61 2437.58,1375.33 2448.89,1379.05 2460.2,1382.75 2471.5,1386.43 2482.81,1390.11 2494.11,1393.77 2505.42,1397.41 2516.73,1401.03 2528.03,1404.64 2539.34,1408.22 2550.65,1411.78 2561.95,1415.32 2573.26,1418.84 "/>
<circle clip-path="url(#clip021)" cx="323.315" cy="178.21" r="14.4" fill="#4682b4" fill-rule="evenodd" fill-opacity="0.6" stroke="#000000" stroke-opacity="0.6" stroke-width="3.84"/>
<circle clip-path="url(#clip021)" cx="435.812" cy="196.84" r="14.4" fill="#4682b4" fill-rule="evenodd" fill-opacity="0.6" stroke="#000000" stroke-opacity="0.6" stroke-width="3.84"/>
<circle clip-path="url(#clip021)" cx="548.309" cy="196.874" r="14.4" fill="#4682b4" fill-rule="evenodd" fill-opacity="0.6" stroke="#000000" stroke-opacity="0.6" stroke-width="3.84"/>
<circle clip-path="url(#clip021)" cx="660.806" cy="223.582" r="14.4" fill="#4682b4" fill-rule="evenodd" fill-opacity="0.6" stroke="#000000" stroke-opacity="0.6" stroke-width="3.84"/>
<circle clip-path="url(#clip021)" cx="773.303" cy="268.034" r="14.4" fill="#4682b4" fill-rule="evenodd" fill-opacity="0.6" stroke="#000000" stroke-opacity="0.6" stroke-width="3.84"/>
<circle clip-path="url(#clip021)" cx="885.8" cy="299.933" r="14.4" fill="#4682b4" fill-rule="evenodd" fill-opacity="0.6" stroke="#000000" stroke-opacity="0.6" stroke-width="3.84"/>
<circle clip-path="url(#clip021)" cx="998.298" cy="368.285" r="14.4" fill="#4682b4" fill-rule="evenodd" fill-opacity="0.6" stroke="#000000" stroke-opacity="0.6" stroke-width="3.84"/>
<circle clip-path="url(#clip021)" cx="1110.79" cy="444.531" r="14.4" fill="#4682b4" fill-rule="evenodd" fill-opacity="0.6" stroke="#000000" stroke-opacity="0.6" stroke-width="3.84"/>
<circle clip-path="url(#clip021)" cx="1223.29" cy="549.518" r="14.4" fill="#4682b4" fill-rule="evenodd" fill-opacity="0.6" stroke="#000000" stroke-opacity="0.6" stroke-width="3.84"/>
<circle clip-path="url(#clip021)" cx="1335.79" cy="664.705" r="14.4" fill="#4682b4" fill-rule="evenodd" fill-opacity="0.6" stroke="#000000" stroke-opacity="0.6" stroke-width="3.84"/>
<circle clip-path="url(#clip021)" cx="1448.29" cy="793.706" r="14.4" fill="#4682b4" fill-rule="evenodd" fill-opacity="0.6" stroke="#000000" stroke-opacity="0.6" stroke-width="3.84"/>
<circle clip-path="url(#clip021)" cx="1560.78" cy="933.558" r="14.4" fill="#4682b4" fill-rule="evenodd" fill-opacity="0.6" stroke="#000000" stroke-opacity="0.6" stroke-width="3.84"/>
<circle clip-path="url(#clip021)" cx="1673.28" cy="1043.32" r="14.4" fill="#4682b4" fill-rule="evenodd" fill-opacity="0.6" stroke="#000000" stroke-opacity="0.6" stroke-width="3.84"/>
<circle clip-path="url(#clip021)" cx="1785.78" cy="1150.39" r="14.4" fill="#4682b4" fill-rule="evenodd" fill-opacity="0.6" stroke="#000000" stroke-opacity="0.6" stroke-width="3.84"/>
<circle clip-path="url(#clip021)" cx="1898.27" cy="1242.16" r="14.4" fill="#4682b4" fill-rule="evenodd" fill-opacity="0.6" stroke="#000000" stroke-opacity="0.6" stroke-width="3.84"/>
<circle clip-path="url(#clip021)" cx="2010.77" cy="1310.85" r="14.4" fill="#4682b4" fill-rule="evenodd" fill-opacity="0.6" stroke="#000000" stroke-opacity="0.6" stroke-width="3.84"/>
<circle clip-path="url(#clip021)" cx="2123.27" cy="1381.67" r="14.4" fill="#4682b4" fill-rule="evenodd" fill-opacity="0.6" stroke="#000000" stroke-opacity="0.6" stroke-width="3.84"/>
<circle clip-path="url(#clip021)" cx="2235.77" cy="1418.57" r="14.4" fill="#4682b4" fill-rule="evenodd" fill-opacity="0.6" stroke="#000000" stroke-opacity="0.6" stroke-width="3.84"/>
<circle clip-path="url(#clip021)" cx="2348.26" cy="1448.33" r="14.4" fill="#4682b4" fill-rule="evenodd" fill-opacity="0.6" stroke="#000000" stroke-opacity="0.6" stroke-width="3.84"/>
<circle clip-path="url(#clip021)" cx="2460.76" cy="1483.32" r="14.4" fill="#4682b4" fill-rule="evenodd" fill-opacity="0.6" stroke="#000000" stroke-opacity="0.6" stroke-width="3.84"/>
<circle clip-path="url(#clip021)" cx="2573.26" cy="1498.57" r="14.4" fill="#4682b4" fill-rule="evenodd" fill-opacity="0.6" stroke="#000000" stroke-opacity="0.6" stroke-width="3.84"/>
<circle clip-path="url(#clip021)" cx="323.315" cy="1688.65" r="14.4" fill="#b22222" fill-rule="evenodd" fill-opacity="0.6" stroke="#000000" stroke-opacity="0.6" stroke-width="3.84"/>
<circle clip-path="url(#clip021)" cx="435.812" cy="1671.73" r="14.4" fill="#b22222" fill-rule="evenodd" fill-opacity="0.6" stroke="#000000" stroke-opacity="0.6" stroke-width="3.84"/>
<circle clip-path="url(#clip021)" cx="548.309" cy="1651.81" r="14.4" fill="#b22222" fill-rule="evenodd" fill-opacity="0.6" stroke="#000000" stroke-opacity="0.6" stroke-width="3.84"/>
<circle clip-path="url(#clip021)" cx="660.806" cy="1632.04" r="14.4" fill="#b22222" fill-rule="evenodd" fill-opacity="0.6" stroke="#000000" stroke-opacity="0.6" stroke-width="3.84"/>
<circle clip-path="url(#clip021)" cx="773.303" cy="1619.05" r="14.4" fill="#b22222" fill-rule="evenodd" fill-opacity="0.6" stroke="#000000" stroke-opacity="0.6" stroke-width="3.84"/>
<circle clip-path="url(#clip021)" cx="885.8" cy="1598.3" r="14.4" fill="#b22222" fill-rule="evenodd" fill-opacity="0.6" stroke="#000000" stroke-opacity="0.6" stroke-width="3.84"/>
<circle clip-path="url(#clip021)" cx="998.298" cy="1558.06" r="14.4" fill="#b22222" fill-rule="evenodd" fill-opacity="0.6" stroke="#000000" stroke-opacity="0.6" stroke-width="3.84"/>
<circle clip-path="url(#clip021)" cx="1110.79" cy="1504.57" r="14.4" fill="#b22222" fill-rule="evenodd" fill-opacity="0.6" stroke="#000000" stroke-opacity="0.6" stroke-width="3.84"/>
<circle clip-path="url(#clip021)" cx="1223.29" cy="1453.67" r="14.4" fill="#b22222" fill-rule="evenodd" fill-opacity="0.6" stroke="#000000" stroke-opacity="0.6" stroke-width="3.84"/>
<circle clip-path="url(#clip021)" cx="1335.79" cy="1388.06" r="14.4" fill="#b22222" fill-rule="evenodd" fill-opacity="0.6" stroke="#000000" stroke-opacity="0.6" stroke-width="3.84"/>
<circle clip-path="url(#clip021)" cx="1448.29" cy="1334.67" r="14.4" fill="#b22222" fill-rule="evenodd" fill-opacity="0.6" stroke="#000000" stroke-opacity="0.6" stroke-width="3.84"/>
<circle clip-path="url(#clip021)" cx="1560.78" cy="1272.37" r="14.4" fill="#b22222" fill-rule="evenodd" fill-opacity="0.6" stroke="#000000" stroke-opacity="0.6" stroke-width="3.84"/>
<circle clip-path="url(#clip021)" cx="1673.28" cy="1239.96" r="14.4" fill="#b22222" fill-rule="evenodd" fill-opacity="0.6" stroke="#000000" stroke-opacity="0.6" stroke-width="3.84"/>
<circle clip-path="url(#clip021)" cx="1785.78" cy="1224.26" r="14.4" fill="#b22222" fill-rule="evenodd" fill-opacity="0.6" stroke="#000000" stroke-opacity="0.6" stroke-width="3.84"/>
<circle clip-path="url(#clip021)" cx="1898.27" cy="1216.49" r="14.4" fill="#b22222" fill-rule="evenodd" fill-opacity="0.6" stroke="#000000" stroke-opacity="0.6" stroke-width="3.84"/>
<circle clip-path="url(#clip021)" cx="2010.77" cy="1249.17" r="14.4" fill="#b22222" fill-rule="evenodd" fill-opacity="0.6" stroke="#000000" stroke-opacity="0.6" stroke-width="3.84"/>
<circle clip-path="url(#clip021)" cx="2123.27" cy="1269.84" r="14.4" fill="#b22222" fill-rule="evenodd" fill-opacity="0.6" stroke="#000000" stroke-opacity="0.6" stroke-width="3.84"/>
<circle clip-path="url(#clip021)" cx="2235.77" cy="1307.92" r="14.4" fill="#b22222" fill-rule="evenodd" fill-opacity="0.6" stroke="#000000" stroke-opacity="0.6" stroke-width="3.84"/>
<circle clip-path="url(#clip021)" cx="2348.26" cy="1345.56" r="14.4" fill="#b22222" fill-rule="evenodd" fill-opacity="0.6" stroke="#000000" stroke-opacity="0.6" stroke-width="3.84"/>
<circle clip-path="url(#clip021)" cx="2460.76" cy="1396.11" r="14.4" fill="#b22222" fill-rule="evenodd" fill-opacity="0.6" stroke="#000000" stroke-opacity="0.6" stroke-width="3.84"/>
<circle clip-path="url(#clip021)" cx="2573.26" cy="1410.03" r="14.4" fill="#b22222" fill-rule="evenodd" fill-opacity="0.6" stroke="#000000" stroke-opacity="0.6" stroke-width="3.84"/>
<path clip-path="url(#clip020)" d="M2150.52 440.536 L2561.26 440.536 L2561.26 181.336 L2150.52 181.336  Z" fill="#ffffff" fill-rule="evenodd" fill-opacity="1"/>
<polyline clip-path="url(#clip020)" style="stroke:#000000; stroke-linecap:round; stroke-linejoin:round; stroke-width:4; stroke-opacity:1; fill:none" points="2150.52,440.536 2561.26,440.536 2561.26,181.336 2150.52,181.336 2150.52,440.536 "/>
<polyline clip-path="url(#clip020)" style="stroke:#4682b4; stroke-linecap:round; stroke-linejoin:round; stroke-width:8; stroke-opacity:1; fill:none" points="2177.02,233.176 2336.01,233.176 "/>
<path clip-path="url(#clip020)" d="M2384.76 217.031 L2384.76 221.591 Q2382.1 220.318 2379.74 219.693 Q2377.38 219.068 2375.18 219.068 Q2371.36 219.068 2369.27 220.549 Q2367.21 222.031 2367.21 224.762 Q2367.21 227.054 2368.58 228.234 Q2369.97 229.392 2373.81 230.109 L2376.63 230.688 Q2381.87 231.683 2384.34 234.206 Q2386.84 236.706 2386.84 240.919 Q2386.84 245.942 2383.46 248.535 Q2380.11 251.128 2373.6 251.128 Q2371.15 251.128 2368.37 250.572 Q2365.62 250.016 2362.65 248.929 L2362.65 244.114 Q2365.5 245.711 2368.23 246.521 Q2370.96 247.331 2373.6 247.331 Q2377.61 247.331 2379.78 245.757 Q2381.96 244.183 2381.96 241.267 Q2381.96 238.72 2380.38 237.285 Q2378.83 235.85 2375.27 235.132 L2372.42 234.577 Q2367.19 233.535 2364.85 231.313 Q2362.51 229.091 2362.51 225.132 Q2362.51 220.549 2365.73 217.91 Q2368.97 215.271 2374.64 215.271 Q2377.07 215.271 2379.6 215.711 Q2382.12 216.151 2384.76 217.031 Z" fill="#000000" fill-rule="nonzero" fill-opacity="1" /><path clip-path="url(#clip020)" d="M2419.25 214.484 Q2416.15 219.808 2414.64 225.017 Q2413.14 230.225 2413.14 235.572 Q2413.14 240.919 2414.64 246.174 Q2416.17 251.405 2419.25 256.706 L2415.55 256.706 Q2412.07 251.266 2410.34 246.012 Q2408.63 240.757 2408.63 235.572 Q2408.63 230.41 2410.34 225.179 Q2412.05 219.947 2415.55 214.484 L2419.25 214.484 Z" fill="#000000" fill-rule="nonzero" fill-opacity="1" /><path clip-path="url(#clip020)" d="M2431.73 217.169 L2431.73 224.531 L2440.5 224.531 L2440.5 227.841 L2431.73 227.841 L2431.73 241.915 Q2431.73 245.086 2432.58 245.989 Q2433.46 246.891 2436.12 246.891 L2440.5 246.891 L2440.5 250.456 L2436.12 250.456 Q2431.19 250.456 2429.32 248.628 Q2427.44 246.776 2427.44 241.915 L2427.44 227.841 L2424.32 227.841 L2424.32 224.531 L2427.44 224.531 L2427.44 217.169 L2431.73 217.169 Z" fill="#000000" fill-rule="nonzero" fill-opacity="1" /><path clip-path="url(#clip020)" d="M2461.12 228.512 Q2460.41 228.095 2459.55 227.91 Q2458.72 227.702 2457.7 227.702 Q2454.09 227.702 2452.14 230.063 Q2450.22 232.401 2450.22 236.799 L2450.22 250.456 L2445.94 250.456 L2445.94 224.531 L2450.22 224.531 L2450.22 228.558 Q2451.56 226.197 2453.72 225.063 Q2455.87 223.906 2458.95 223.906 Q2459.39 223.906 2459.92 223.975 Q2460.45 224.021 2461.1 224.137 L2461.12 228.512 Z" fill="#000000" fill-rule="nonzero" fill-opacity="1" /><path clip-path="url(#clip020)" d="M2465.15 240.225 L2465.15 224.531 L2469.41 224.531 L2469.41 240.063 Q2469.41 243.743 2470.85 245.595 Q2472.28 247.424 2475.15 247.424 Q2478.6 247.424 2480.59 245.225 Q2482.61 243.026 2482.61 239.229 L2482.61 224.531 L2486.87 224.531 L2486.87 250.456 L2482.61 250.456 L2482.61 246.475 Q2481.06 248.836 2479 249.993 Q2476.96 251.128 2474.25 251.128 Q2469.78 251.128 2467.47 248.35 Q2465.15 245.572 2465.15 240.225 M2475.87 223.906 L2475.87 223.906 Z" fill="#000000" fill-rule="nonzero" fill-opacity="1" /><path clip-path="url(#clip020)" d="M2517.81 236.429 L2517.81 238.512 L2498.23 238.512 Q2498.51 242.91 2500.87 245.225 Q2503.25 247.516 2507.49 247.516 Q2509.94 247.516 2512.24 246.915 Q2514.55 246.313 2516.82 245.109 L2516.82 249.137 Q2514.53 250.109 2512.12 250.618 Q2509.71 251.128 2507.24 251.128 Q2501.03 251.128 2497.4 247.516 Q2493.79 243.905 2493.79 237.748 Q2493.79 231.382 2497.21 227.655 Q2500.66 223.906 2506.49 223.906 Q2511.73 223.906 2514.76 227.285 Q2517.81 230.642 2517.81 236.429 M2513.56 235.179 Q2513.51 231.683 2511.59 229.6 Q2509.69 227.517 2506.54 227.517 Q2502.98 227.517 2500.82 229.53 Q2498.69 231.544 2498.37 235.202 L2513.56 235.179 Z" fill="#000000" fill-rule="nonzero" fill-opacity="1" /><path clip-path="url(#clip020)" d="M2524.13 214.484 L2527.84 214.484 Q2531.31 219.947 2533.02 225.179 Q2534.76 230.41 2534.76 235.572 Q2534.76 240.757 2533.02 246.012 Q2531.31 251.266 2527.84 256.706 L2524.13 256.706 Q2527.21 251.405 2528.72 246.174 Q2530.24 240.919 2530.24 235.572 Q2530.24 230.225 2528.72 225.017 Q2527.21 219.808 2524.13 214.484 Z" fill="#000000" fill-rule="nonzero" fill-opacity="1" /><polyline clip-path="url(#clip020)" style="stroke:#b22222; stroke-linecap:round; stroke-linejoin:round; stroke-width:8; stroke-opacity:1; fill:none" points="2177.02,285.016 2336.01,285.016 "/>
<path clip-path="url(#clip020)" d="M2362.51 267.736 L2367.19 267.736 L2367.19 302.296 L2362.51 302.296 L2362.51 267.736 Z" fill="#000000" fill-rule="nonzero" fill-opacity="1" /><path clip-path="url(#clip020)" d="M2401.61 266.324 Q2398.51 271.648 2397 276.857 Q2395.5 282.065 2395.5 287.412 Q2395.5 292.759 2397 298.014 Q2398.53 303.245 2401.61 308.546 L2397.91 308.546 Q2394.44 303.106 2392.7 297.852 Q2390.99 292.597 2390.99 287.412 Q2390.99 282.25 2392.7 277.019 Q2394.41 271.787 2397.91 266.324 L2401.61 266.324 Z" fill="#000000" fill-rule="nonzero" fill-opacity="1" /><path clip-path="url(#clip020)" d="M2414.09 269.009 L2414.09 276.371 L2422.86 276.371 L2422.86 279.681 L2414.09 279.681 L2414.09 293.755 Q2414.09 296.926 2414.94 297.829 Q2415.82 298.731 2418.49 298.731 L2422.86 298.731 L2422.86 302.296 L2418.49 302.296 Q2413.56 302.296 2411.68 300.468 Q2409.81 298.616 2409.81 293.755 L2409.81 279.681 L2406.68 279.681 L2406.68 276.371 L2409.81 276.371 L2409.81 269.009 L2414.09 269.009 Z" fill="#000000" fill-rule="nonzero" fill-opacity="1" /><path clip-path="url(#clip020)" d="M2443.49 280.352 Q2442.77 279.935 2441.91 279.75 Q2441.08 279.542 2440.06 279.542 Q2436.45 279.542 2434.5 281.903 Q2432.58 284.241 2432.58 288.639 L2432.58 302.296 L2428.3 302.296 L2428.3 276.371 L2432.58 276.371 L2432.58 280.398 Q2433.93 278.037 2436.08 276.903 Q2438.23 275.746 2441.31 275.746 Q2441.75 275.746 2442.28 275.815 Q2442.81 275.861 2443.46 275.977 L2443.49 280.352 Z" fill="#000000" fill-rule="nonzero" fill-opacity="1" /><path clip-path="url(#clip020)" d="M2447.51 292.065 L2447.51 276.371 L2451.77 276.371 L2451.77 291.903 Q2451.77 295.583 2453.21 297.435 Q2454.64 299.264 2457.51 299.264 Q2460.96 299.264 2462.95 297.065 Q2464.97 294.866 2464.97 291.069 L2464.97 276.371 L2469.23 276.371 L2469.23 302.296 L2464.97 302.296 L2464.97 298.315 Q2463.42 300.676 2461.36 301.833 Q2459.32 302.968 2456.61 302.968 Q2452.14 302.968 2449.83 300.19 Q2447.51 297.412 2447.51 292.065 M2458.23 275.746 L2458.23 275.746 Z" fill="#000000" fill-rule="nonzero" fill-opacity="1" /><path clip-path="url(#clip020)" d="M2500.18 288.269 L2500.18 290.352 L2480.59 290.352 Q2480.87 294.75 2483.23 297.065 Q2485.62 299.356 2489.85 299.356 Q2492.31 299.356 2494.6 298.755 Q2496.91 298.153 2499.18 296.949 L2499.18 300.977 Q2496.89 301.949 2494.48 302.458 Q2492.07 302.968 2489.6 302.968 Q2483.39 302.968 2479.76 299.356 Q2476.15 295.745 2476.15 289.588 Q2476.15 283.222 2479.57 279.495 Q2483.02 275.746 2488.86 275.746 Q2494.09 275.746 2497.12 279.125 Q2500.18 282.482 2500.18 288.269 M2495.92 287.019 Q2495.87 283.523 2493.95 281.44 Q2492.05 279.357 2488.9 279.357 Q2485.34 279.357 2483.18 281.37 Q2481.06 283.384 2480.73 287.042 L2495.92 287.019 Z" fill="#000000" fill-rule="nonzero" fill-opacity="1" /><path clip-path="url(#clip020)" d="M2506.49 266.324 L2510.2 266.324 Q2513.67 271.787 2515.38 277.019 Q2517.12 282.25 2517.12 287.412 Q2517.12 292.597 2515.38 297.852 Q2513.67 303.106 2510.2 308.546 L2506.49 308.546 Q2509.57 303.245 2511.08 298.014 Q2512.61 292.759 2512.61 287.412 Q2512.61 282.065 2511.08 276.857 Q2509.57 271.648 2506.49 266.324 Z" fill="#000000" fill-rule="nonzero" fill-opacity="1" /><circle clip-path="url(#clip020)" cx="2256.52" cy="336.856" r="20.48" fill="#4682b4" fill-rule="evenodd" fill-opacity="0.6" stroke="#000000" stroke-opacity="0.6" stroke-width="5.46133"/>
<path clip-path="url(#clip020)" d="M2384.76 320.711 L2384.76 325.271 Q2382.1 323.998 2379.74 323.373 Q2377.38 322.748 2375.18 322.748 Q2371.36 322.748 2369.27 324.229 Q2367.21 325.711 2367.21 328.442 Q2367.21 330.734 2368.58 331.914 Q2369.97 333.072 2373.81 333.789 L2376.63 334.368 Q2381.87 335.363 2384.34 337.886 Q2386.84 340.386 2386.84 344.599 Q2386.84 349.622 2383.46 352.215 Q2380.11 354.808 2373.6 354.808 Q2371.15 354.808 2368.37 354.252 Q2365.62 353.696 2362.65 352.609 L2362.65 347.794 Q2365.5 349.391 2368.23 350.201 Q2370.96 351.011 2373.6 351.011 Q2377.61 351.011 2379.78 349.437 Q2381.96 347.863 2381.96 344.947 Q2381.96 342.4 2380.38 340.965 Q2378.83 339.53 2375.27 338.812 L2372.42 338.257 Q2367.19 337.215 2364.85 334.993 Q2362.51 332.771 2362.51 328.812 Q2362.51 324.229 2365.73 321.59 Q2368.97 318.951 2374.64 318.951 Q2377.07 318.951 2379.6 319.391 Q2382.12 319.831 2384.76 320.711 Z" fill="#000000" fill-rule="nonzero" fill-opacity="1" /><path clip-path="url(#clip020)" d="M2419.25 318.164 Q2416.15 323.488 2414.64 328.697 Q2413.14 333.905 2413.14 339.252 Q2413.14 344.599 2414.64 349.854 Q2416.17 355.085 2419.25 360.386 L2415.55 360.386 Q2412.07 354.946 2410.34 349.692 Q2408.63 344.437 2408.63 339.252 Q2408.63 334.09 2410.34 328.859 Q2412.05 323.627 2415.55 318.164 L2419.25 318.164 Z" fill="#000000" fill-rule="nonzero" fill-opacity="1" /><path clip-path="url(#clip020)" d="M2437.56 331.197 Q2434.13 331.197 2432.14 333.882 Q2430.15 336.544 2430.15 341.197 Q2430.15 345.849 2432.12 348.534 Q2434.11 351.196 2437.56 351.196 Q2440.96 351.196 2442.95 348.511 Q2444.94 345.826 2444.94 341.197 Q2444.94 336.59 2442.95 333.905 Q2440.96 331.197 2437.56 331.197 M2437.56 327.586 Q2443.12 327.586 2446.29 331.197 Q2449.46 334.808 2449.46 341.197 Q2449.46 347.562 2446.29 351.196 Q2443.12 354.808 2437.56 354.808 Q2431.98 354.808 2428.81 351.196 Q2425.66 347.562 2425.66 341.197 Q2425.66 334.808 2428.81 331.197 Q2431.98 327.586 2437.56 327.586 Z" fill="#000000" fill-rule="nonzero" fill-opacity="1" /><path clip-path="url(#clip020)" d="M2475.13 341.197 Q2475.13 336.497 2473.18 333.835 Q2471.26 331.15 2467.88 331.15 Q2464.5 331.15 2462.56 333.835 Q2460.64 336.497 2460.64 341.197 Q2460.64 345.896 2462.56 348.581 Q2464.5 351.243 2467.88 351.243 Q2471.26 351.243 2473.18 348.581 Q2475.13 345.896 2475.13 341.197 M2460.64 332.146 Q2461.98 329.831 2464.02 328.72 Q2466.08 327.586 2468.93 327.586 Q2473.65 327.586 2476.59 331.335 Q2479.55 335.085 2479.55 341.197 Q2479.55 347.308 2476.59 351.058 Q2473.65 354.808 2468.93 354.808 Q2466.08 354.808 2464.02 353.696 Q2461.98 352.562 2460.64 350.247 L2460.64 354.136 L2456.36 354.136 L2456.36 318.118 L2460.64 318.118 L2460.64 332.146 Z" fill="#000000" fill-rule="nonzero" fill-opacity="1" /><path clip-path="url(#clip020)" d="M2503.14 328.974 L2503.14 333.002 Q2501.33 332.076 2499.39 331.613 Q2497.44 331.15 2495.36 331.15 Q2492.19 331.15 2490.59 332.123 Q2489.02 333.095 2489.02 335.039 Q2489.02 336.521 2490.15 337.377 Q2491.29 338.21 2494.71 338.974 L2496.17 339.298 Q2500.71 340.271 2502.61 342.053 Q2504.53 343.812 2504.53 346.984 Q2504.53 350.595 2501.66 352.701 Q2498.81 354.808 2493.81 354.808 Q2491.73 354.808 2489.46 354.391 Q2487.21 353.997 2484.71 353.187 L2484.71 348.789 Q2487.07 350.016 2489.37 350.641 Q2491.66 351.243 2493.9 351.243 Q2496.91 351.243 2498.53 350.224 Q2500.15 349.183 2500.15 347.308 Q2500.15 345.572 2498.97 344.646 Q2497.81 343.72 2493.86 342.863 L2492.37 342.516 Q2488.42 341.683 2486.66 339.97 Q2484.9 338.234 2484.9 335.224 Q2484.9 331.567 2487.49 329.576 Q2490.08 327.586 2494.85 327.586 Q2497.21 327.586 2499.3 327.933 Q2501.38 328.28 2503.14 328.974 Z" fill="#000000" fill-rule="nonzero" fill-opacity="1" /><path clip-path="url(#clip020)" d="M2510.64 318.164 L2514.34 318.164 Q2517.81 323.627 2519.53 328.859 Q2521.26 334.09 2521.26 339.252 Q2521.26 344.437 2519.53 349.692 Q2517.81 354.946 2514.34 360.386 L2510.64 360.386 Q2513.72 355.085 2515.22 349.854 Q2516.75 344.599 2516.75 339.252 Q2516.75 333.905 2515.22 328.697 Q2513.72 323.488 2510.64 318.164 Z" fill="#000000" fill-rule="nonzero" fill-opacity="1" /><circle clip-path="url(#clip020)" cx="2256.52" cy="388.696" r="20.48" fill="#b22222" fill-rule="evenodd" fill-opacity="0.6" stroke="#000000" stroke-opacity="0.6" stroke-width="5.46133"/>
<path clip-path="url(#clip020)" d="M2362.51 371.416 L2367.19 371.416 L2367.19 405.976 L2362.51 405.976 L2362.51 371.416 Z" fill="#000000" fill-rule="nonzero" fill-opacity="1" /><path clip-path="url(#clip020)" d="M2401.61 370.004 Q2398.51 375.328 2397 380.537 Q2395.5 385.745 2395.5 391.092 Q2395.5 396.439 2397 401.694 Q2398.53 406.925 2401.61 412.226 L2397.91 412.226 Q2394.44 406.786 2392.7 401.532 Q2390.99 396.277 2390.99 391.092 Q2390.99 385.93 2392.7 380.699 Q2394.41 375.467 2397.91 370.004 L2401.61 370.004 Z" fill="#000000" fill-rule="nonzero" fill-opacity="1" /><path clip-path="url(#clip020)" d="M2419.92 383.037 Q2416.5 383.037 2414.5 385.722 Q2412.51 388.384 2412.51 393.037 Q2412.51 397.689 2414.48 400.374 Q2416.47 403.036 2419.92 403.036 Q2423.32 403.036 2425.31 400.351 Q2427.31 397.666 2427.31 393.037 Q2427.31 388.43 2425.31 385.745 Q2423.32 383.037 2419.92 383.037 M2419.92 379.426 Q2425.48 379.426 2428.65 383.037 Q2431.82 386.648 2431.82 393.037 Q2431.82 399.402 2428.65 403.036 Q2425.48 406.648 2419.92 406.648 Q2414.34 406.648 2411.17 403.036 Q2408.02 399.402 2408.02 393.037 Q2408.02 386.648 2411.17 383.037 Q2414.34 379.426 2419.92 379.426 Z" fill="#000000" fill-rule="nonzero" fill-opacity="1" /><path clip-path="url(#clip020)" d="M2457.49 393.037 Q2457.49 388.337 2455.55 385.675 Q2453.62 382.99 2450.25 382.99 Q2446.87 382.99 2444.92 385.675 Q2443 388.337 2443 393.037 Q2443 397.736 2444.92 400.421 Q2446.87 403.083 2450.25 403.083 Q2453.62 403.083 2455.55 400.421 Q2457.49 397.736 2457.49 393.037 M2443 383.986 Q2444.34 381.671 2446.38 380.56 Q2448.44 379.426 2451.29 379.426 Q2456.01 379.426 2458.95 383.175 Q2461.91 386.925 2461.91 393.037 Q2461.91 399.148 2458.95 402.898 Q2456.01 406.648 2451.29 406.648 Q2448.44 406.648 2446.38 405.536 Q2444.34 404.402 2443 402.087 L2443 405.976 L2438.72 405.976 L2438.72 369.958 L2443 369.958 L2443 383.986 Z" fill="#000000" fill-rule="nonzero" fill-opacity="1" /><path clip-path="url(#clip020)" d="M2485.5 380.814 L2485.5 384.842 Q2483.69 383.916 2481.75 383.453 Q2479.81 382.99 2477.72 382.99 Q2474.55 382.99 2472.95 383.963 Q2471.38 384.935 2471.38 386.879 Q2471.38 388.361 2472.51 389.217 Q2473.65 390.05 2477.07 390.814 L2478.53 391.138 Q2483.07 392.111 2484.97 393.893 Q2486.89 395.652 2486.89 398.824 Q2486.89 402.435 2484.02 404.541 Q2481.17 406.648 2476.17 406.648 Q2474.09 406.648 2471.82 406.231 Q2469.57 405.837 2467.07 405.027 L2467.07 400.629 Q2469.43 401.856 2471.73 402.481 Q2474.02 403.083 2476.26 403.083 Q2479.27 403.083 2480.89 402.064 Q2482.51 401.023 2482.51 399.148 Q2482.51 397.412 2481.33 396.486 Q2480.18 395.56 2476.22 394.703 L2474.74 394.356 Q2470.78 393.523 2469.02 391.81 Q2467.26 390.074 2467.26 387.064 Q2467.26 383.407 2469.85 381.416 Q2472.44 379.426 2477.21 379.426 Q2479.57 379.426 2481.66 379.773 Q2483.74 380.12 2485.5 380.814 Z" fill="#000000" fill-rule="nonzero" fill-opacity="1" /><path clip-path="url(#clip020)" d="M2493 370.004 L2496.7 370.004 Q2500.18 375.467 2501.89 380.699 Q2503.62 385.93 2503.62 391.092 Q2503.62 396.277 2501.89 401.532 Q2500.18 406.786 2496.7 412.226 L2493 412.226 Q2496.08 406.925 2497.58 401.694 Q2499.11 396.439 2499.11 391.092 Q2499.11 385.745 2497.58 380.537 Q2496.08 375.328 2493 370.004 Z" fill="#000000" fill-rule="nonzero" fill-opacity="1" /></svg>
