<?xml version="1.0" encoding="utf-8"?>
<svg xmlns="http://www.w3.org/2000/svg" xmlns:xlink="http://www.w3.org/1999/xlink" width="672" height="480" viewBox="0 0 2688 1920">
<defs>
  <clipPath id="clip170">
    <rect x="0" y="0" width="2688" height="1920"/>
  </clipPath>
</defs>
<path clip-path="url(#clip170)" d="M0 1920 L2688 1920 L2688 -4.26326e-14 L0 -4.26326e-14  Z" fill="#ffffff" fill-rule="evenodd" fill-opacity="1"/>
<defs>
  <clipPath id="clip171">
    <rect x="181" y="127" width="2460" height="1607"/>
  </clipPath>
</defs>
<path clip-path="url(#clip170)" d="M181.719 1734.12 L2640.76 1734.12 L2640.76 127.792 L181.719 127.792  Z" fill="#ffffff" fill-rule="evenodd" fill-opacity="1"/>
<polyline clip-path="url(#clip171)" style="stroke:#000000; stroke-linecap:round; stroke-linejoin:round; stroke-width:2; stroke-opacity:0.1; fill:none" points="251.315,1734.12 251.315,127.792 "/>
<polyline clip-path="url(#clip171)" style="stroke:#000000; stroke-linecap:round; stroke-linejoin:round; stroke-width:2; stroke-opacity:0.1; fill:none" points="1024.6,1734.12 1024.6,127.792 "/>
<polyline clip-path="url(#clip171)" style="stroke:#000000; stroke-linecap:round; stroke-linejoin:round; stroke-width:2; stroke-opacity:0.1; fill:none" points="1797.88,1734.12 1797.88,127.792 "/>
<polyline clip-path="url(#clip171)" style="stroke:#000000; stroke-linecap:round; stroke-linejoin:round; stroke-width:2; stroke-opacity:0.1; fill:none" points="2571.16,1734.12 2571.16,127.792 "/>
<polyline clip-path="url(#clip171)" style="stroke:#000000; stroke-linecap:round; stroke-linejoin:round; stroke-width:2; stroke-opacity:0.1; fill:none" points="181.719,1699.8 2640.76,1699.8 "/>
<polyline clip-path="url(#clip171)" style="stroke:#000000; stroke-linecap:round; stroke-linejoin:round; stroke-width:2; stroke-opacity:0.1; fill:none" points="181.719,1395.18 2640.76,1395.18 "/>
<polyline clip-path="url(#clip171)" style="stroke:#000000; stroke-linecap:round; stroke-linejoin:round; stroke-width:2; stroke-opacity:0.1; fill:none" points="181.719,1090.55 2640.76,1090.55 "/>
<polyline clip-path="url(#clip171)" style="stroke:#000000; stroke-linecap:round; stroke-linejoin:round; stroke-width:2; stroke-opacity:0.1; fill:none" points="181.719,785.923 2640.76,785.923 "/>
<polyline clip-path="url(#clip171)" style="stroke:#000000; stroke-linecap:round; stroke-linejoin:round; stroke-width:2; stroke-opacity:0.1; fill:none" points="181.719,481.297 2640.76,481.297 "/>
<polyline clip-path="url(#clip171)" style="stroke:#000000; stroke-linecap:round; stroke-linejoin:round; stroke-width:2; stroke-opacity:0.1; fill:none" points="181.719,176.67 2640.76,176.67 "/>
<polyline clip-path="url(#clip170)" style="stroke:#000000; stroke-linecap:round; stroke-linejoin:round; stroke-width:4; stroke-opacity:1; fill:none" points="181.719,1734.12 2640.76,1734.12 "/>
<polyline clip-path="url(#clip170)" style="stroke:#000000; stroke-linecap:round; stroke-linejoin:round; stroke-width:4; stroke-opacity:1; fill:none" points="251.315,1734.12 251.315,1715.22 "/>
<polyline clip-path="url(#clip170)" style="stroke:#000000; stroke-linecap:round; stroke-linejoin:round; stroke-width:4; stroke-opacity:1; fill:none" points="1024.6,1734.12 1024.6,1715.22 "/>
<polyline clip-path="url(#clip170)" style="stroke:#000000; stroke-linecap:round; stroke-linejoin:round; stroke-width:4; stroke-opacity:1; fill:none" points="1797.88,1734.12 1797.88,1715.22 "/>
<polyline clip-path="url(#clip170)" style="stroke:#000000; stroke-linecap:round; stroke-linejoin:round; stroke-width:4; stroke-opacity:1; fill:none" points="2571.16,1734.12 2571.16,1715.22 "/>
<path clip-path="url(#clip170)" d="M251.315 1767.34 Q247.704 1767.34 245.875 1770.9 Q244.07 1774.45 244.07 1781.58 Q244.07 1788.68 245.875 1792.25 Q247.704 1795.79 251.315 1795.79 Q254.949 1795.79 256.755 1792.25 Q258.583 1788.68 258.583 1781.58 Q258.583 1774.45 256.755 1770.9 Q254.949 1767.34 251.315 1767.34 M251.315 1763.64 Q257.125 1763.64 260.181 1768.24 Q263.259 1772.83 263.259 1781.58 Q263.259 1790.3 260.181 1794.91 Q257.125 1799.49 251.315 1799.49 Q245.505 1799.49 242.426 1794.91 Q239.37 1790.3 239.37 1781.58 Q239.37 1772.83 242.426 1768.24 Q245.505 1763.64 251.315 1763.64 Z" fill="#000000" fill-rule="nonzero" fill-opacity="1" /><path clip-path="url(#clip170)" d="M999.284 1794.89 L1006.92 1794.89 L1006.92 1768.52 L998.613 1770.19 L998.613 1765.93 L1006.88 1764.26 L1011.55 1764.26 L1011.55 1794.89 L1019.19 1794.89 L1019.19 1798.82 L999.284 1798.82 L999.284 1794.89 Z" fill="#000000" fill-rule="nonzero" fill-opacity="1" /><path clip-path="url(#clip170)" d="M1038.64 1767.34 Q1035.02 1767.34 1033.2 1770.9 Q1031.39 1774.45 1031.39 1781.58 Q1031.39 1788.68 1033.2 1792.25 Q1035.02 1795.79 1038.64 1795.79 Q1042.27 1795.79 1044.08 1792.25 Q1045.9 1788.68 1045.9 1781.58 Q1045.9 1774.45 1044.08 1770.9 Q1042.27 1767.34 1038.64 1767.34 M1038.64 1763.64 Q1044.45 1763.64 1047.5 1768.24 Q1050.58 1772.83 1050.58 1781.58 Q1050.58 1790.3 1047.5 1794.91 Q1044.45 1799.49 1038.64 1799.49 Q1032.83 1799.49 1029.75 1794.91 Q1026.69 1790.3 1026.69 1781.58 Q1026.69 1772.83 1029.75 1768.24 Q1032.83 1763.64 1038.64 1763.64 Z" fill="#000000" fill-rule="nonzero" fill-opacity="1" /><path clip-path="url(#clip170)" d="M1776.65 1794.89 L1792.97 1794.89 L1792.97 1798.82 L1771.03 1798.82 L1771.03 1794.89 Q1773.69 1792.13 1778.27 1787.5 Q1782.88 1782.85 1784.06 1781.51 Q1786.3 1778.98 1787.18 1777.25 Q1788.09 1775.49 1788.09 1773.8 Q1788.09 1771.04 1786.14 1769.31 Q1784.22 1767.57 1781.12 1767.57 Q1778.92 1767.57 1776.47 1768.34 Q1774.04 1769.1 1771.26 1770.65 L1771.26 1765.93 Q1774.08 1764.79 1776.54 1764.21 Q1778.99 1763.64 1781.03 1763.64 Q1786.4 1763.64 1789.59 1766.32 Q1792.79 1769.01 1792.79 1773.5 Q1792.79 1775.63 1791.98 1777.55 Q1791.19 1779.45 1789.08 1782.04 Q1788.5 1782.71 1785.4 1785.93 Q1782.3 1789.12 1776.65 1794.89 Z" fill="#000000" fill-rule="nonzero" fill-opacity="1" /><path clip-path="url(#clip170)" d="M1812.79 1767.34 Q1809.17 1767.34 1807.35 1770.9 Q1805.54 1774.45 1805.54 1781.58 Q1805.54 1788.68 1807.35 1792.25 Q1809.17 1795.79 1812.79 1795.79 Q1816.42 1795.79 1818.23 1792.25 Q1820.05 1788.68 1820.05 1781.58 Q1820.05 1774.45 1818.23 1770.9 Q1816.42 1767.34 1812.79 1767.34 M1812.79 1763.64 Q1818.6 1763.64 1821.65 1768.24 Q1824.73 1772.83 1824.73 1781.58 Q1824.73 1790.3 1821.65 1794.91 Q1818.6 1799.49 1812.79 1799.49 Q1806.98 1799.49 1803.9 1794.91 Q1800.84 1790.3 1800.84 1781.58 Q1800.84 1772.83 1803.9 1768.24 Q1806.98 1763.64 1812.79 1763.64 Z" fill="#000000" fill-rule="nonzero" fill-opacity="1" /><path clip-path="url(#clip170)" d="M2560 1780.19 Q2563.36 1780.9 2565.23 1783.17 Q2567.13 1785.44 2567.13 1788.77 Q2567.13 1793.89 2563.61 1796.69 Q2560.1 1799.49 2553.61 1799.49 Q2551.44 1799.49 2549.12 1799.05 Q2546.83 1798.64 2544.38 1797.78 L2544.38 1793.27 Q2546.32 1794.4 2548.64 1794.98 Q2550.95 1795.56 2553.48 1795.56 Q2557.87 1795.56 2560.17 1793.82 Q2562.48 1792.08 2562.48 1788.77 Q2562.48 1785.72 2560.33 1784.01 Q2558.2 1782.27 2554.38 1782.27 L2550.35 1782.27 L2550.35 1778.43 L2554.56 1778.43 Q2558.01 1778.43 2559.84 1777.06 Q2561.67 1775.67 2561.67 1773.08 Q2561.67 1770.42 2559.77 1769.01 Q2557.9 1767.57 2554.38 1767.57 Q2552.46 1767.57 2550.26 1767.99 Q2548.06 1768.4 2545.42 1769.28 L2545.42 1765.12 Q2548.08 1764.38 2550.4 1764.01 Q2552.73 1763.64 2554.79 1763.64 Q2560.12 1763.64 2563.22 1766.07 Q2566.32 1768.47 2566.32 1772.59 Q2566.32 1775.46 2564.68 1777.46 Q2563.04 1779.42 2560 1780.19 Z" fill="#000000" fill-rule="nonzero" fill-opacity="1" /><path clip-path="url(#clip170)" d="M2586 1767.34 Q2582.39 1767.34 2580.56 1770.9 Q2578.75 1774.45 2578.75 1781.58 Q2578.75 1788.68 2580.56 1792.25 Q2582.39 1795.79 2586 1795.79 Q2589.63 1795.79 2591.44 1792.25 Q2593.27 1788.68 2593.27 1781.58 Q2593.27 1774.45 2591.44 1770.9 Q2589.63 1767.34 2586 1767.34 M2586 1763.64 Q2591.81 1763.64 2594.86 1768.24 Q2597.94 1772.83 2597.94 1781.58 Q2597.94 1790.3 2594.86 1794.91 Q2591.81 1799.49 2586 1799.49 Q2580.19 1799.49 2577.11 1794.91 Q2574.05 1790.3 2574.05 1781.58 Q2574.05 1772.83 2577.11 1768.24 Q2580.19 1763.64 2586 1763.64 Z" fill="#000000" fill-rule="nonzero" fill-opacity="1" /><path clip-path="url(#clip170)" d="M1333.11 1835.78 L1373.31 1835.78 L1373.31 1841.19 L1356.44 1841.19 L1356.44 1883.3 L1349.98 1883.3 L1349.98 1841.19 L1333.11 1841.19 L1333.11 1835.78 Z" fill="#000000" fill-rule="nonzero" fill-opacity="1" /><path clip-path="url(#clip170)" d="M1377.26 1847.65 L1383.12 1847.65 L1383.12 1883.3 L1377.26 1883.3 L1377.26 1847.65 M1377.26 1833.78 L1383.12 1833.78 L1383.12 1841.19 L1377.26 1841.19 L1377.26 1833.78 Z" fill="#000000" fill-rule="nonzero" fill-opacity="1" /><path clip-path="url(#clip170)" d="M1423.13 1854.5 Q1425.32 1850.55 1428.38 1848.67 Q1431.43 1846.79 1435.57 1846.79 Q1441.14 1846.79 1444.16 1850.71 Q1447.19 1854.59 1447.19 1861.78 L1447.19 1883.3 L1441.3 1883.3 L1441.3 1861.98 Q1441.3 1856.85 1439.49 1854.37 Q1437.67 1851.89 1433.95 1851.89 Q1429.4 1851.89 1426.75 1854.91 Q1424.11 1857.93 1424.11 1863.15 L1424.11 1883.3 L1418.22 1883.3 L1418.22 1861.98 Q1418.22 1856.82 1416.41 1854.37 Q1414.6 1851.89 1410.81 1851.89 Q1406.32 1851.89 1403.68 1854.94 Q1401.04 1857.97 1401.04 1863.15 L1401.04 1883.3 L1395.15 1883.3 L1395.15 1847.65 L1401.04 1847.65 L1401.04 1853.19 Q1403.04 1849.91 1405.84 1848.35 Q1408.64 1846.79 1412.49 1846.79 Q1416.38 1846.79 1419.08 1848.77 Q1421.82 1850.74 1423.13 1854.5 Z" fill="#000000" fill-rule="nonzero" fill-opacity="1" /><path clip-path="url(#clip170)" d="M1489.36 1864.01 L1489.36 1866.88 L1462.43 1866.88 Q1462.82 1872.92 1466.06 1876.11 Q1469.34 1879.26 1475.17 1879.26 Q1478.54 1879.26 1481.69 1878.43 Q1484.87 1877.6 1487.99 1875.95 L1487.99 1881.49 Q1484.84 1882.82 1481.53 1883.52 Q1478.22 1884.22 1474.82 1884.22 Q1466.29 1884.22 1461.29 1879.26 Q1456.32 1874.29 1456.32 1865.83 Q1456.32 1857.07 1461.03 1851.95 Q1465.78 1846.79 1473.8 1846.79 Q1480.99 1846.79 1485.16 1851.44 Q1489.36 1856.06 1489.36 1864.01 M1483.5 1862.29 Q1483.44 1857.49 1480.8 1854.62 Q1478.19 1851.76 1473.86 1851.76 Q1468.96 1851.76 1466 1854.53 Q1463.07 1857.3 1462.62 1862.33 L1483.5 1862.29 Z" fill="#000000" fill-rule="nonzero" fill-opacity="1" /><polyline clip-path="url(#clip170)" style="stroke:#000000; stroke-linecap:round; stroke-linejoin:round; stroke-width:4; stroke-opacity:1; fill:none" points="181.719,1734.12 181.719,127.792 "/>
<polyline clip-path="url(#clip170)" style="stroke:#000000; stroke-linecap:round; stroke-linejoin:round; stroke-width:4; stroke-opacity:1; fill:none" points="181.719,1699.8 200.617,1699.8 "/>
<polyline clip-path="url(#clip170)" style="stroke:#000000; stroke-linecap:round; stroke-linejoin:round; stroke-width:4; stroke-opacity:1; fill:none" points="181.719,1395.18 200.617,1395.18 "/>
<polyline clip-path="url(#clip170)" style="stroke:#000000; stroke-linecap:round; stroke-linejoin:round; stroke-width:4; stroke-opacity:1; fill:none" points="181.719,1090.55 200.617,1090.55 "/>
<polyline clip-path="url(#clip170)" style="stroke:#000000; stroke-linecap:round; stroke-linejoin:round; stroke-width:4; stroke-opacity:1; fill:none" points="181.719,785.923 200.617,785.923 "/>
<polyline clip-path="url(#clip170)" style="stroke:#000000; stroke-linecap:round; stroke-linejoin:round; stroke-width:4; stroke-opacity:1; fill:none" points="181.719,481.297 200.617,481.297 "/>
<polyline clip-path="url(#clip170)" style="stroke:#000000; stroke-linecap:round; stroke-linejoin:round; stroke-width:4; stroke-opacity:1; fill:none" points="181.719,176.67 200.617,176.67 "/>
<path clip-path="url(#clip170)" d="M129.455 1685.6 Q125.844 1685.6 124.015 1689.17 Q122.21 1692.71 122.21 1699.84 Q122.21 1706.94 124.015 1710.51 Q125.844 1714.05 129.455 1714.05 Q133.089 1714.05 134.895 1710.51 Q136.724 1706.94 136.724 1699.84 Q136.724 1692.71 134.895 1689.17 Q133.089 1685.6 129.455 1685.6 M129.455 1681.9 Q135.265 1681.9 138.321 1686.5 Q141.399 1691.09 141.399 1699.84 Q141.399 1708.56 138.321 1713.17 Q135.265 1717.75 129.455 1717.75 Q123.645 1717.75 120.566 1713.17 Q117.511 1708.56 117.511 1699.84 Q117.511 1691.09 120.566 1686.5 Q123.645 1681.9 129.455 1681.9 Z" fill="#000000" fill-rule="nonzero" fill-opacity="1" /><path clip-path="url(#clip170)" d="M121.492 1408.52 L129.131 1408.52 L129.131 1382.15 L120.821 1383.82 L120.821 1379.56 L129.085 1377.9 L133.761 1377.9 L133.761 1408.52 L141.399 1408.52 L141.399 1412.46 L121.492 1412.46 L121.492 1408.52 Z" fill="#000000" fill-rule="nonzero" fill-opacity="1" /><path clip-path="url(#clip170)" d="M125.08 1103.89 L141.399 1103.89 L141.399 1107.83 L119.455 1107.83 L119.455 1103.89 Q122.117 1101.14 126.7 1096.51 Q131.307 1091.86 132.488 1090.51 Q134.733 1087.99 135.612 1086.26 Q136.515 1084.5 136.515 1082.81 Q136.515 1080.05 134.571 1078.32 Q132.65 1076.58 129.548 1076.58 Q127.349 1076.58 124.895 1077.34 Q122.464 1078.11 119.687 1079.66 L119.687 1074.94 Q122.511 1073.8 124.964 1073.22 Q127.418 1072.64 129.455 1072.64 Q134.825 1072.64 138.02 1075.33 Q141.214 1078.01 141.214 1082.51 Q141.214 1084.64 140.404 1086.56 Q139.617 1088.45 137.511 1091.05 Q136.932 1091.72 133.83 1094.94 Q130.728 1098.13 125.08 1103.89 Z" fill="#000000" fill-rule="nonzero" fill-opacity="1" /><path clip-path="url(#clip170)" d="M134.27 784.569 Q137.626 785.286 139.501 787.555 Q141.399 789.823 141.399 793.157 Q141.399 798.272 137.881 801.073 Q134.362 803.874 127.881 803.874 Q125.705 803.874 123.39 803.434 Q121.099 803.018 118.645 802.161 L118.645 797.647 Q120.589 798.782 122.904 799.36 Q125.219 799.939 127.742 799.939 Q132.14 799.939 134.432 798.203 Q136.747 796.467 136.747 793.157 Q136.747 790.101 134.594 788.388 Q132.464 786.652 128.645 786.652 L124.617 786.652 L124.617 782.81 L128.83 782.81 Q132.279 782.81 134.108 781.444 Q135.937 780.055 135.937 777.462 Q135.937 774.8 134.038 773.388 Q132.163 771.953 128.645 771.953 Q126.724 771.953 124.525 772.37 Q122.326 772.787 119.687 773.666 L119.687 769.499 Q122.349 768.759 124.663 768.388 Q127.001 768.018 129.062 768.018 Q134.386 768.018 137.487 770.449 Q140.589 772.856 140.589 776.976 Q140.589 779.847 138.946 781.837 Q137.302 783.805 134.27 784.569 Z" fill="#000000" fill-rule="nonzero" fill-opacity="1" /><path clip-path="url(#clip170)" d="M131.816 468.091 L120.011 486.54 L131.816 486.54 L131.816 468.091 M130.589 464.017 L136.469 464.017 L136.469 486.54 L141.399 486.54 L141.399 490.429 L136.469 490.429 L136.469 498.577 L131.816 498.577 L131.816 490.429 L116.214 490.429 L116.214 485.915 L130.589 464.017 Z" fill="#000000" fill-rule="nonzero" fill-opacity="1" /><path clip-path="url(#clip170)" d="M120.497 159.39 L138.853 159.39 L138.853 163.326 L124.779 163.326 L124.779 171.798 Q125.798 171.45 126.816 171.288 Q127.835 171.103 128.853 171.103 Q134.64 171.103 138.02 174.275 Q141.399 177.446 141.399 182.862 Q141.399 188.441 137.927 191.543 Q134.455 194.622 128.136 194.622 Q125.96 194.622 123.691 194.251 Q121.446 193.881 119.039 193.14 L119.039 188.441 Q121.122 189.575 123.344 190.131 Q125.566 190.686 128.043 190.686 Q132.048 190.686 134.386 188.58 Q136.724 186.474 136.724 182.862 Q136.724 179.251 134.386 177.145 Q132.048 175.038 128.043 175.038 Q126.168 175.038 124.293 175.455 Q122.441 175.872 120.497 176.751 L120.497 159.39 Z" fill="#000000" fill-rule="nonzero" fill-opacity="1" /><path clip-path="url(#clip170)" d="M19.402 1089.79 L37.2578 1089.79 L37.2578 1081.71 Q37.2578 1077.22 34.9343 1074.77 Q32.6108 1072.32 28.314 1072.32 Q24.0489 1072.32 21.7255 1074.77 Q19.402 1077.22 19.402 1081.71 L19.402 1089.79 M14.1184 1096.22 L14.1184 1081.71 Q14.1184 1073.72 17.7469 1069.65 Q21.3435 1065.54 28.314 1065.54 Q35.3481 1065.54 38.9447 1069.65 Q42.5413 1073.72 42.5413 1081.71 L42.5413 1089.79 L61.6384 1089.79 L61.6384 1096.22 L14.1184 1096.22 Z" fill="#000000" fill-rule="nonzero" fill-opacity="1" /><path clip-path="url(#clip170)" d="M30.0964 1045.68 Q30.0964 1050.39 33.7885 1053.13 Q37.4488 1055.87 43.8463 1055.87 Q50.2438 1055.87 53.9359 1053.16 Q57.5962 1050.42 57.5962 1045.68 Q57.5962 1041 53.9041 1038.26 Q50.212 1035.53 43.8463 1035.53 Q37.5124 1035.53 33.8203 1038.26 Q30.0964 1041 30.0964 1045.68 M25.1311 1045.68 Q25.1311 1038.04 30.0964 1033.68 Q35.0616 1029.32 43.8463 1029.32 Q52.5991 1029.32 57.5962 1033.68 Q62.5615 1038.04 62.5615 1045.68 Q62.5615 1053.35 57.5962 1057.71 Q52.5991 1062.04 43.8463 1062.04 Q35.0616 1062.04 30.0964 1057.71 Q25.1311 1053.35 25.1311 1045.68 Z" fill="#000000" fill-rule="nonzero" fill-opacity="1" /><path clip-path="url(#clip170)" d="M56.2912 1013.95 L75.1974 1013.95 L75.1974 1019.84 L25.9905 1019.84 L25.9905 1013.95 L31.4013 1013.95 Q28.2185 1012.1 26.6907 1009.3 Q25.1311 1006.47 25.1311 1002.55 Q25.1311 996.06 30.2873 992.018 Q35.4436 987.944 43.8463 987.944 Q52.249 987.944 57.4052 992.018 Q62.5615 996.06 62.5615 1002.55 Q62.5615 1006.47 61.0337 1009.3 Q59.4741 1012.1 56.2912 1013.95 M43.8463 994.023 Q37.3851 994.023 33.7248 996.696 Q30.0327 999.338 30.0327 1003.99 Q30.0327 1008.63 33.7248 1011.31 Q37.3851 1013.95 43.8463 1013.95 Q50.3075 1013.95 53.9996 1011.31 Q57.6599 1008.63 57.6599 1003.99 Q57.6599 999.338 53.9996 996.696 Q50.3075 994.023 43.8463 994.023 Z" fill="#000000" fill-rule="nonzero" fill-opacity="1" /><path clip-path="url(#clip170)" d="M47.5702 978.841 L25.9905 978.841 L25.9905 972.984 L47.3474 972.984 Q52.4082 972.984 54.9545 971.011 Q57.4689 969.037 57.4689 965.091 Q57.4689 960.348 54.4452 957.611 Q51.4215 954.842 46.2016 954.842 L25.9905 954.842 L25.9905 948.985 L61.6384 948.985 L61.6384 954.842 L56.1639 954.842 Q59.4104 956.974 61.0019 959.807 Q62.5615 962.608 62.5615 966.332 Q62.5615 972.475 58.742 975.658 Q54.9226 978.841 47.5702 978.841 M25.1311 964.104 L25.1311 964.104 Z" fill="#000000" fill-rule="nonzero" fill-opacity="1" /><path clip-path="url(#clip170)" d="M12.1132 936.922 L12.1132 931.066 L61.6384 931.066 L61.6384 936.922 L12.1132 936.922 Z" fill="#000000" fill-rule="nonzero" fill-opacity="1" /><path clip-path="url(#clip170)" d="M43.719 902.611 Q43.719 909.709 45.3422 912.446 Q46.9655 915.184 50.8804 915.184 Q53.9996 915.184 55.8457 913.146 Q57.6599 911.078 57.6599 907.545 Q57.6599 902.675 54.2224 899.747 Q50.7531 896.787 45.0239 896.787 L43.719 896.787 L43.719 902.611 M41.3 890.93 L61.6384 890.93 L61.6384 896.787 L56.2276 896.787 Q59.4741 898.792 61.0337 901.784 Q62.5615 904.776 62.5615 909.104 Q62.5615 914.579 59.5059 917.825 Q56.4186 921.04 51.2623 921.04 Q45.2467 921.04 42.1912 917.03 Q39.1357 912.987 39.1357 904.998 L39.1357 896.787 L38.5628 896.787 Q34.5205 896.787 32.3244 899.46 Q30.0964 902.102 30.0964 906.908 Q30.0964 909.964 30.8284 912.86 Q31.5605 915.756 33.0246 918.43 L27.6137 918.43 Q26.3724 915.215 25.7677 912.192 Q25.1311 909.168 25.1311 906.303 Q25.1311 898.569 29.1415 894.75 Q33.1519 890.93 41.3 890.93 Z" fill="#000000" fill-rule="nonzero" fill-opacity="1" /><path clip-path="url(#clip170)" d="M15.869 873.074 L25.9905 873.074 L25.9905 861.011 L30.542 861.011 L30.542 873.074 L49.8937 873.074 Q54.2542 873.074 55.4955 871.897 Q56.7368 870.687 56.7368 867.027 L56.7368 861.011 L61.6384 861.011 L61.6384 867.027 Q61.6384 873.806 59.124 876.385 Q56.5777 878.963 49.8937 878.963 L30.542 878.963 L30.542 883.259 L25.9905 883.259 L25.9905 878.963 L15.869 878.963 L15.869 873.074 Z" fill="#000000" fill-rule="nonzero" fill-opacity="1" /><path clip-path="url(#clip170)" d="M25.9905 853.309 L25.9905 847.452 L61.6384 847.452 L61.6384 853.309 L25.9905 853.309 M12.1132 853.309 L12.1132 847.452 L19.5293 847.452 L19.5293 853.309 L12.1132 853.309 Z" fill="#000000" fill-rule="nonzero" fill-opacity="1" /><path clip-path="url(#clip170)" d="M30.0964 821.385 Q30.0964 826.095 33.7885 828.833 Q37.4488 831.57 43.8463 831.57 Q50.2438 831.57 53.9359 828.865 Q57.5962 826.127 57.5962 821.385 Q57.5962 816.706 53.9041 813.969 Q50.212 811.232 43.8463 811.232 Q37.5124 811.232 33.8203 813.969 Q30.0964 816.706 30.0964 821.385 M25.1311 821.385 Q25.1311 813.746 30.0964 809.385 Q35.0616 805.025 43.8463 805.025 Q52.5991 805.025 57.5962 809.385 Q62.5615 813.746 62.5615 821.385 Q62.5615 829.056 57.5962 833.416 Q52.5991 837.745 43.8463 837.745 Q35.0616 837.745 30.0964 833.416 Q25.1311 829.056 25.1311 821.385 Z" fill="#000000" fill-rule="nonzero" fill-opacity="1" /><path clip-path="url(#clip170)" d="M40.1224 765.685 L61.6384 765.685 L61.6384 771.541 L40.3133 771.541 Q35.2526 771.541 32.7381 773.515 Q30.2237 775.488 30.2237 779.435 Q30.2237 784.177 33.2474 786.915 Q36.2711 789.652 41.491 789.652 L61.6384 789.652 L61.6384 795.54 L25.9905 795.54 L25.9905 789.652 L31.5287 789.652 Q28.314 787.551 26.7225 784.718 Q25.1311 781.854 25.1311 778.13 Q25.1311 771.987 28.9505 768.836 Q32.7381 765.685 40.1224 765.685 Z" fill="#000000" fill-rule="nonzero" fill-opacity="1" /><path clip-path="url(#clip170)" d="M717.52 12.096 L729.714 12.096 L745.148 53.2532 L760.662 12.096 L772.856 12.096 L772.856 72.576 L764.875 72.576 L764.875 19.4686 L749.279 60.9499 L741.056 60.9499 L725.46 19.4686 L725.46 72.576 L717.52 72.576 L717.52 12.096 Z" fill="#000000" fill-rule="nonzero" fill-opacity="1" /><path clip-path="url(#clip170)" d="M809.314 20.1573 L798.214 50.2555 L820.454 50.2555 L809.314 20.1573 M804.696 12.096 L813.972 12.096 L837.022 72.576 L828.515 72.576 L823.006 57.061 L795.743 57.061 L790.234 72.576 L781.606 72.576 L804.696 12.096 Z" fill="#000000" fill-rule="nonzero" fill-opacity="1" /><path clip-path="url(#clip170)" d="M885.633 63.9476 L885.633 47.7034 L872.265 47.7034 L872.265 40.9789 L893.735 40.9789 L893.735 66.9452 Q888.995 70.3075 883.283 72.0494 Q877.572 73.7508 871.09 73.7508 Q856.912 73.7508 848.891 65.4869 Q840.911 57.1826 840.911 42.3968 Q840.911 27.5705 848.891 19.3066 Q856.912 11.0023 871.09 11.0023 Q877.004 11.0023 882.311 12.4606 Q887.658 13.9189 892.155 16.7545 L892.155 25.464 Q887.618 21.6156 882.514 19.6712 Q877.41 17.7268 871.779 17.7268 Q860.679 17.7268 855.089 23.9246 Q849.539 30.1225 849.539 42.3968 Q849.539 54.6305 855.089 60.8284 Q860.679 67.0263 871.779 67.0263 Q876.113 67.0263 879.516 66.2971 Q882.919 65.5274 885.633 63.9476 Z" fill="#000000" fill-rule="nonzero" fill-opacity="1" /><path clip-path="url(#clip170)" d="M908.683 12.096 L916.865 12.096 L916.865 72.576 L908.683 72.576 L908.683 12.096 Z" fill="#000000" fill-rule="nonzero" fill-opacity="1" /><path clip-path="url(#clip170)" d="M967.704 18.8205 L967.704 41.5461 L977.993 41.5461 Q983.705 41.5461 986.824 38.5889 Q989.944 35.6318 989.944 30.163 Q989.944 24.7348 986.824 21.7777 Q983.705 18.8205 977.993 18.8205 L967.704 18.8205 M959.521 12.096 L977.993 12.096 Q988.161 12.096 993.346 16.714 Q998.572 21.2916 998.572 30.163 Q998.572 39.1155 993.346 43.6931 Q988.161 48.2706 977.993 48.2706 L967.704 48.2706 L967.704 72.576 L959.521 72.576 L959.521 12.096 Z" fill="#000000" fill-rule="nonzero" fill-opacity="1" /><path clip-path="url(#clip170)" d="M1023.85 32.4315 Q1017.85 32.4315 1014.37 37.1306 Q1010.89 41.7891 1010.89 49.9314 Q1010.89 58.0738 1014.33 62.7728 Q1017.81 67.4314 1023.85 67.4314 Q1029.8 67.4314 1033.29 62.7323 Q1036.77 58.0333 1036.77 49.9314 Q1036.77 41.8701 1033.29 37.1711 Q1029.8 32.4315 1023.85 32.4315 M1023.85 26.1121 Q1033.57 26.1121 1039.12 32.4315 Q1044.67 38.7509 1044.67 49.9314 Q1044.67 61.0714 1039.12 67.4314 Q1033.57 73.7508 1023.85 73.7508 Q1014.09 73.7508 1008.54 67.4314 Q1003.03 61.0714 1003.03 49.9314 Q1003.03 38.7509 1008.54 32.4315 Q1014.09 26.1121 1023.85 26.1121 Z" fill="#000000" fill-rule="nonzero" fill-opacity="1" /><path clip-path="url(#clip170)" d="M1085.95 28.5427 L1085.95 35.5912 Q1082.79 33.9709 1079.39 33.1607 Q1075.98 32.3505 1072.34 32.3505 Q1066.79 32.3505 1063.99 34.0519 Q1061.24 35.7533 1061.24 39.156 Q1061.24 41.7486 1063.22 43.2475 Q1065.21 44.7058 1071.2 46.0426 L1073.76 46.6097 Q1081.7 48.3111 1085.02 51.4303 Q1088.38 54.509 1088.38 60.0587 Q1088.38 66.3781 1083.36 70.0644 Q1078.37 73.7508 1069.62 73.7508 Q1065.98 73.7508 1062.01 73.0216 Q1058.08 72.3329 1053.7 70.9151 L1053.7 63.2184 Q1057.84 65.3654 1061.85 66.4591 Q1065.86 67.5124 1069.79 67.5124 Q1075.05 67.5124 1077.89 65.73 Q1080.72 63.9071 1080.72 60.6258 Q1080.72 57.5877 1078.66 55.9673 Q1076.63 54.3469 1069.71 52.8481 L1067.11 52.2405 Q1060.19 50.7821 1057.11 47.7845 Q1054.03 44.7463 1054.03 39.4801 Q1054.03 33.0797 1058.57 29.5959 Q1063.1 26.1121 1071.45 26.1121 Q1075.58 26.1121 1079.23 26.7198 Q1082.87 27.3274 1085.95 28.5427 Z" fill="#000000" fill-rule="nonzero" fill-opacity="1" /><path clip-path="url(#clip170)" d="M1107.62 14.324 L1107.62 27.2059 L1122.98 27.2059 L1122.98 32.9987 L1107.62 32.9987 L1107.62 57.6282 Q1107.62 63.1779 1109.12 64.7578 Q1110.66 66.3376 1115.32 66.3376 L1122.98 66.3376 L1122.98 72.576 L1115.32 72.576 Q1106.69 72.576 1103.41 69.3758 Q1100.13 66.1351 1100.13 57.6282 L1100.13 32.9987 L1094.66 32.9987 L1094.66 27.2059 L1100.13 27.2059 L1100.13 14.324 L1107.62 14.324 Z" fill="#000000" fill-rule="nonzero" fill-opacity="1" /><path clip-path="url(#clip170)" d="M1171.59 48.0275 L1171.59 51.6733 L1137.32 51.6733 Q1137.8 59.3701 1141.93 63.421 Q1146.11 67.4314 1153.52 67.4314 Q1157.81 67.4314 1161.82 66.3781 Q1165.87 65.3249 1169.84 63.2184 L1169.84 70.267 Q1165.83 71.9684 1161.62 72.8596 Q1157.41 73.7508 1153.07 73.7508 Q1142.22 73.7508 1135.86 67.4314 Q1129.54 61.1119 1129.54 50.3365 Q1129.54 39.1965 1135.53 32.6746 Q1141.57 26.1121 1151.78 26.1121 Q1160.93 26.1121 1166.24 32.0264 Q1171.59 37.9003 1171.59 48.0275 M1164.13 45.84 Q1164.05 39.7232 1160.69 36.0774 Q1157.37 32.4315 1151.86 32.4315 Q1145.62 32.4315 1141.85 35.9558 Q1138.13 39.4801 1137.56 45.8805 L1164.13 45.84 Z" fill="#000000" fill-rule="nonzero" fill-opacity="1" /><path clip-path="url(#clip170)" d="M1210.11 34.1734 Q1208.85 33.4443 1207.36 33.1202 Q1205.9 32.7556 1204.11 32.7556 Q1197.8 32.7556 1194.39 36.8875 Q1191.03 40.9789 1191.03 48.6757 L1191.03 72.576 L1183.54 72.576 L1183.54 27.2059 L1191.03 27.2059 L1191.03 34.2544 Q1193.38 30.1225 1197.15 28.1376 Q1200.91 26.1121 1206.3 26.1121 Q1207.07 26.1121 1208 26.2337 Q1208.94 26.3147 1210.07 26.5172 L1210.11 34.1734 Z" fill="#000000" fill-rule="nonzero" fill-opacity="1" /><path clip-path="url(#clip170)" d="M1217.93 27.2059 L1225.38 27.2059 L1225.38 72.576 L1217.93 72.576 L1217.93 27.2059 M1217.93 9.54393 L1225.38 9.54393 L1225.38 18.9825 L1217.93 18.9825 L1217.93 9.54393 Z" fill="#000000" fill-rule="nonzero" fill-opacity="1" /><path clip-path="url(#clip170)" d="M1258.56 32.4315 Q1252.56 32.4315 1249.08 37.1306 Q1245.6 41.7891 1245.6 49.9314 Q1245.6 58.0738 1249.04 62.7728 Q1252.52 67.4314 1258.56 67.4314 Q1264.51 67.4314 1268 62.7323 Q1271.48 58.0333 1271.48 49.9314 Q1271.48 41.8701 1268 37.1711 Q1264.51 32.4315 1258.56 32.4315 M1258.56 26.1121 Q1268.28 26.1121 1273.83 32.4315 Q1279.38 38.7509 1279.38 49.9314 Q1279.38 61.0714 1273.83 67.4314 Q1268.28 73.7508 1258.56 73.7508 Q1248.8 73.7508 1243.25 67.4314 Q1237.74 61.0714 1237.74 49.9314 Q1237.74 38.7509 1243.25 32.4315 Q1248.8 26.1121 1258.56 26.1121 Z" fill="#000000" fill-rule="nonzero" fill-opacity="1" /><path clip-path="url(#clip170)" d="M1318.03 34.1734 Q1316.77 33.4443 1315.27 33.1202 Q1313.81 32.7556 1312.03 32.7556 Q1305.71 32.7556 1302.31 36.8875 Q1298.95 40.9789 1298.95 48.6757 L1298.95 72.576 L1291.45 72.576 L1291.45 27.2059 L1298.95 27.2059 L1298.95 34.2544 Q1301.3 30.1225 1305.06 28.1376 Q1308.83 26.1121 1314.22 26.1121 Q1314.99 26.1121 1315.92 26.2337 Q1316.85 26.3147 1317.99 26.5172 L1318.03 34.1734 Z" fill="#000000" fill-rule="nonzero" fill-opacity="1" /><path clip-path="url(#clip170)" d="M1348.45 46.9338 L1423.31 46.9338 L1423.31 52.7671 L1348.45 52.7671 L1348.45 46.9338 Z" fill="#000000" fill-rule="nonzero" fill-opacity="1" /><path clip-path="url(#clip170)" d="M1470.06 18.8205 L1470.06 41.5461 L1480.35 41.5461 Q1486.06 41.5461 1489.18 38.5889 Q1492.3 35.6318 1492.3 30.163 Q1492.3 24.7348 1489.18 21.7777 Q1486.06 18.8205 1480.35 18.8205 L1470.06 18.8205 M1461.87 12.096 L1480.35 12.096 Q1490.51 12.096 1495.7 16.714 Q1500.92 21.2916 1500.92 30.163 Q1500.92 39.1155 1495.7 43.6931 Q1490.51 48.2706 1480.35 48.2706 L1470.06 48.2706 L1470.06 72.576 L1461.87 72.576 L1461.87 12.096 Z" fill="#000000" fill-rule="nonzero" fill-opacity="1" /><path clip-path="url(#clip170)" d="M1536.41 34.1734 Q1535.15 33.4443 1533.66 33.1202 Q1532.2 32.7556 1530.42 32.7556 Q1524.1 32.7556 1520.69 36.8875 Q1517.33 40.9789 1517.33 48.6757 L1517.33 72.576 L1509.84 72.576 L1509.84 27.2059 L1517.33 27.2059 L1517.33 34.2544 Q1519.68 30.1225 1523.45 28.1376 Q1527.22 26.1121 1532.6 26.1121 Q1533.37 26.1121 1534.3 26.2337 Q1535.24 26.3147 1536.37 26.5172 L1536.41 34.1734 Z" fill="#000000" fill-rule="nonzero" fill-opacity="1" /><path clip-path="url(#clip170)" d="M1581.21 48.0275 L1581.21 51.6733 L1546.94 51.6733 Q1547.43 59.3701 1551.56 63.421 Q1555.73 67.4314 1563.15 67.4314 Q1567.44 67.4314 1571.45 66.3781 Q1575.5 65.3249 1579.47 63.2184 L1579.47 70.267 Q1575.46 71.9684 1571.25 72.8596 Q1567.04 73.7508 1562.7 73.7508 Q1551.84 73.7508 1545.48 67.4314 Q1539.17 61.1119 1539.17 50.3365 Q1539.17 39.1965 1545.16 32.6746 Q1551.2 26.1121 1561.4 26.1121 Q1570.56 26.1121 1575.87 32.0264 Q1581.21 37.9003 1581.21 48.0275 M1573.76 45.84 Q1573.68 39.7232 1570.32 36.0774 Q1566.99 32.4315 1561.49 32.4315 Q1555.25 32.4315 1551.48 35.9558 Q1547.75 39.4801 1547.19 45.8805 L1573.76 45.84 Z" fill="#000000" fill-rule="nonzero" fill-opacity="1" /><path clip-path="url(#clip170)" d="M1612.32 76.7889 Q1609.16 84.8907 1606.17 87.3618 Q1603.17 89.8329 1598.15 89.8329 L1592.19 89.8329 L1592.19 83.5945 L1596.57 83.5945 Q1599.65 83.5945 1601.35 82.1361 Q1603.05 80.6778 1605.11 75.2496 L1606.45 71.8468 L1588.1 27.2059 L1596 27.2059 L1610.18 62.6918 L1624.36 27.2059 L1632.26 27.2059 L1612.32 76.7889 Z" fill="#000000" fill-rule="nonzero" fill-opacity="1" /><path clip-path="url(#clip170)" d="M1681.27 40.0472 Q1677.58 43.3285 1675.84 46.6097 Q1674.14 49.8504 1674.14 53.4152 Q1674.14 59.3295 1678.44 63.2589 Q1682.73 67.1883 1689.21 67.1883 Q1693.06 67.1883 1696.42 65.9325 Q1699.78 64.6362 1702.74 62.0436 L1681.27 40.0472 M1686.98 35.5102 L1707.56 56.5749 Q1709.95 52.9696 1711.29 48.8782 Q1712.62 44.7463 1712.87 40.1283 L1720.4 40.1283 Q1719.92 45.4755 1717.81 50.7011 Q1715.7 55.9268 1711.94 61.0309 L1723.24 72.576 L1713.03 72.576 L1707.24 66.6212 Q1703.02 70.2265 1698.41 72.0089 Q1693.79 73.7508 1688.48 73.7508 Q1678.72 73.7508 1672.52 68.201 Q1666.32 62.6108 1666.32 53.9013 Q1666.32 48.7162 1669.04 44.1792 Q1671.75 39.6016 1677.18 35.5912 Q1675.24 33.0392 1674.22 30.5276 Q1673.21 27.9755 1673.21 25.545 Q1673.21 18.9825 1677.71 15.0127 Q1682.2 11.0023 1689.66 11.0023 Q1693.02 11.0023 1696.34 11.7314 Q1699.7 12.4606 1703.15 13.9189 L1703.15 21.2916 Q1699.62 19.3876 1696.42 18.4154 Q1693.22 17.4027 1690.47 17.4027 Q1686.21 17.4027 1683.54 19.6712 Q1680.91 21.8992 1680.91 25.464 Q1680.91 27.5299 1682.08 29.6364 Q1683.3 31.7024 1686.98 35.5102 Z" fill="#000000" fill-rule="nonzero" fill-opacity="1" /><path clip-path="url(#clip170)" d="M1768.49 18.8205 L1768.49 41.5461 L1778.78 41.5461 Q1784.49 41.5461 1787.61 38.5889 Q1790.73 35.6318 1790.73 30.163 Q1790.73 24.7348 1787.61 21.7777 Q1784.49 18.8205 1778.78 18.8205 L1768.49 18.8205 M1760.3 12.096 L1778.78 12.096 Q1788.94 12.096 1794.13 16.714 Q1799.35 21.2916 1799.35 30.163 Q1799.35 39.1155 1794.13 43.6931 Q1788.94 48.2706 1778.78 48.2706 L1768.49 48.2706 L1768.49 72.576 L1760.3 72.576 L1760.3 12.096 Z" fill="#000000" fill-rule="nonzero" fill-opacity="1" /><path clip-path="url(#clip170)" d="M1834.84 34.1734 Q1833.58 33.4443 1832.09 33.1202 Q1830.63 32.7556 1828.85 32.7556 Q1822.53 32.7556 1819.12 36.8875 Q1815.76 40.9789 1815.76 48.6757 L1815.76 72.576 L1808.27 72.576 L1808.27 27.2059 L1815.76 27.2059 L1815.76 34.2544 Q1818.11 30.1225 1821.88 28.1376 Q1825.65 26.1121 1831.03 26.1121 Q1831.8 26.1121 1832.73 26.2337 Q1833.67 26.3147 1834.8 26.5172 L1834.84 34.1734 Z" fill="#000000" fill-rule="nonzero" fill-opacity="1" /><path clip-path="url(#clip170)" d="M1879.64 48.0275 L1879.64 51.6733 L1845.37 51.6733 Q1845.86 59.3701 1849.99 63.421 Q1854.16 67.4314 1861.58 67.4314 Q1865.87 67.4314 1869.88 66.3781 Q1873.93 65.3249 1877.9 63.2184 L1877.9 70.267 Q1873.89 71.9684 1869.68 72.8596 Q1865.47 73.7508 1861.13 73.7508 Q1850.27 73.7508 1843.91 67.4314 Q1837.6 61.1119 1837.6 50.3365 Q1837.6 39.1965 1843.59 32.6746 Q1849.63 26.1121 1859.83 26.1121 Q1868.99 26.1121 1874.3 32.0264 Q1879.64 37.9003 1879.64 48.0275 M1872.19 45.84 Q1872.11 39.7232 1868.75 36.0774 Q1865.43 32.4315 1859.92 32.4315 Q1853.68 32.4315 1849.91 35.9558 Q1846.18 39.4801 1845.62 45.8805 L1872.19 45.84 Z" fill="#000000" fill-rule="nonzero" fill-opacity="1" /><path clip-path="url(#clip170)" d="M1921.73 34.0924 L1921.73 9.54393 L1929.19 9.54393 L1929.19 72.576 L1921.73 72.576 L1921.73 65.7705 Q1919.38 69.8214 1915.78 71.8063 Q1912.21 73.7508 1907.19 73.7508 Q1898.97 73.7508 1893.78 67.1883 Q1888.64 60.6258 1888.64 49.9314 Q1888.64 39.2371 1893.78 32.6746 Q1898.97 26.1121 1907.19 26.1121 Q1912.21 26.1121 1915.78 28.0971 Q1919.38 30.0415 1921.73 34.0924 M1896.33 49.9314 Q1896.33 58.1548 1899.7 62.8538 Q1903.1 67.5124 1909.01 67.5124 Q1914.93 67.5124 1918.33 62.8538 Q1921.73 58.1548 1921.73 49.9314 Q1921.73 41.7081 1918.33 37.0496 Q1914.93 32.3505 1909.01 32.3505 Q1903.1 32.3505 1899.7 37.0496 Q1896.33 41.7081 1896.33 49.9314 Z" fill="#000000" fill-rule="nonzero" fill-opacity="1" /><path clip-path="url(#clip170)" d="M1965.16 49.7694 Q1956.12 49.7694 1952.64 51.8354 Q1949.16 53.9013 1949.16 58.8839 Q1949.16 62.8538 1951.75 65.2034 Q1954.38 67.5124 1958.88 67.5124 Q1965.08 67.5124 1968.8 63.1374 Q1972.57 58.7219 1972.57 51.4303 L1972.57 49.7694 L1965.16 49.7694 M1980.03 46.6907 L1980.03 72.576 L1972.57 72.576 L1972.57 65.6895 Q1970.02 69.8214 1966.21 71.8063 Q1962.4 73.7508 1956.89 73.7508 Q1949.93 73.7508 1945.8 69.8619 Q1941.7 65.9325 1941.7 59.3701 Q1941.7 51.7138 1946.81 47.825 Q1951.95 43.9361 1962.12 43.9361 L1972.57 43.9361 L1972.57 43.2069 Q1972.57 38.0623 1969.17 35.2672 Q1965.81 32.4315 1959.69 32.4315 Q1955.8 32.4315 1952.11 33.3632 Q1948.43 34.295 1945.03 36.1584 L1945.03 29.2718 Q1949.12 27.692 1952.97 26.9223 Q1956.81 26.1121 1960.46 26.1121 Q1970.3 26.1121 1975.16 31.2163 Q1980.03 36.3204 1980.03 46.6907 Z" fill="#000000" fill-rule="nonzero" fill-opacity="1" /><path clip-path="url(#clip170)" d="M2002.75 14.324 L2002.75 27.2059 L2018.1 27.2059 L2018.1 32.9987 L2002.75 32.9987 L2002.75 57.6282 Q2002.75 63.1779 2004.25 64.7578 Q2005.79 66.3376 2010.45 66.3376 L2018.1 66.3376 L2018.1 72.576 L2010.45 72.576 Q2001.82 72.576 1998.54 69.3758 Q1995.26 66.1351 1995.26 57.6282 L1995.26 32.9987 L1989.79 32.9987 L1989.79 27.2059 L1995.26 27.2059 L1995.26 14.324 L2002.75 14.324 Z" fill="#000000" fill-rule="nonzero" fill-opacity="1" /><path clip-path="url(#clip170)" d="M2045.49 32.4315 Q2039.49 32.4315 2036.01 37.1306 Q2032.52 41.7891 2032.52 49.9314 Q2032.52 58.0738 2035.97 62.7728 Q2039.45 67.4314 2045.49 67.4314 Q2051.44 67.4314 2054.93 62.7323 Q2058.41 58.0333 2058.41 49.9314 Q2058.41 41.8701 2054.93 37.1711 Q2051.44 32.4315 2045.49 32.4315 M2045.49 26.1121 Q2055.21 26.1121 2060.76 32.4315 Q2066.31 38.7509 2066.31 49.9314 Q2066.31 61.0714 2060.76 67.4314 Q2055.21 73.7508 2045.49 73.7508 Q2035.73 73.7508 2030.18 67.4314 Q2024.67 61.0714 2024.67 49.9314 Q2024.67 38.7509 2030.18 32.4315 Q2035.73 26.1121 2045.49 26.1121 Z" fill="#000000" fill-rule="nonzero" fill-opacity="1" /><path clip-path="url(#clip170)" d="M2104.96 34.1734 Q2103.7 33.4443 2102.2 33.1202 Q2100.74 32.7556 2098.96 32.7556 Q2092.64 32.7556 2089.24 36.8875 Q2085.88 40.9789 2085.88 48.6757 L2085.88 72.576 L2078.38 72.576 L2078.38 27.2059 L2085.88 27.2059 L2085.88 34.2544 Q2088.22 30.1225 2091.99 28.1376 Q2095.76 26.1121 2101.15 26.1121 Q2101.92 26.1121 2102.85 26.2337 Q2103.78 26.3147 2104.91 26.5172 L2104.96 34.1734 Z" fill="#000000" fill-rule="nonzero" fill-opacity="1" /><path clip-path="url(#clip171)" d="M251.315 1090.55 L274.748 1005.45 L298.18 918.637 L321.613 834.106 L345.046 754.868 L368.479 682.099 L391.912 616.747 L415.344 559.712 L438.777 510.87 L462.21 468.508 L485.643 432.637 L509.075 402.666 L532.508 379.111 L555.941 358.413 L579.374 340.972 L602.807 326.799 L626.239 315.543 L649.672 306.181 L673.105 298.246 L696.538 291.467 L719.971 285.619 L743.403 280.522 L766.836 276.033 L790.269 272.034 L813.702 268.434 L837.134 265.158 L860.567 262.234 L884 259.62 L907.433 257.175 L930.866 254.873 L954.298 252.66 L977.731 250.313 L1001.16 248.074 L1024.6 245.929 L1048.03 244.128 L1071.46 242.429 L1094.9 240.861 L1118.33 239.473 L1141.76 238.125 L1165.19 236.812 L1188.63 235.534 L1212.06 234.288 L1235.49 233.073 L1258.92 231.887 L1282.36 230.73 L1305.79 229.6 L1329.22 228.47 L1352.66 227.341 L1376.09 226.24 L1399.52 225.155 L1422.95 224.089 L1446.39 223.048 L1469.82 222.031 L1493.25 221.087 L1516.69 220.186 L1540.12 219.304 L1563.55 218.441 L1586.98 217.598 L1610.42 216.772 L1633.85 215.965 L1657.28 215.175 L1680.71 214.403 L1704.15 213.647 L1727.58 212.907 L1751.01 212.183 L1774.45 211.474 L1797.88 210.783 L1821.31 210.09 L1844.74 209.337 L1868.18 208.603 L1891.61 207.886 L1915.04 207.212 L1938.48 206.601 L1961.91 206.003 L1985.34 205.417 L2008.77 204.844 L2032.21 204.292 L2055.64 203.751 L2079.07 203.221 L2102.5 202.702 L2125.94 202.195 L2149.37 201.697 L2172.8 201.211 L2196.24 200.736 L2219.67 200.27 L2243.1 199.814 L2266.53 199.368 L2289.97 198.939 L2313.4 198.52 L2336.83 198.11 L2360.27 197.708 L2383.7 197.313 L2407.13 196.927 L2430.56 196.548 L2454 196.177 L2477.43 195.813 L2500.86 195.457 L2524.29 195.107 L2547.73 194.764 L2571.16 194.428 L2571.16 181.336 L2547.73 181.504 L2524.29 181.678 L2500.86 181.858 L2477.43 182.044 L2454 182.238 L2430.56 182.438 L2407.13 182.645 L2383.7 182.86 L2360.27 183.083 L2336.83 183.314 L2313.4 183.553 L2289.97 183.801 L2266.53 184.057 L2243.1 184.323 L2219.67 184.599 L2196.24 184.885 L2172.8 185.181 L2149.37 185.487 L2125.94 185.805 L2102.5 186.134 L2079.07 186.475 L2055.64 186.829 L2032.21 187.195 L2008.77 187.575 L1985.34 187.968 L1961.91 188.376 L1938.48 188.798 L1915.04 189.236 L1891.61 189.69 L1868.18 190.16 L1844.74 190.647 L1821.31 191.152 L1797.88 191.675 L1774.45 192.218 L1751.01 192.78 L1727.58 193.362 L1704.15 193.966 L1680.71 194.592 L1657.28 195.24 L1633.85 195.912 L1610.42 196.609 L1586.98 197.331 L1563.55 198.08 L1540.12 198.856 L1516.69 199.66 L1493.25 200.494 L1469.82 201.359 L1446.39 202.255 L1422.95 203.184 L1399.52 204.148 L1376.09 205.147 L1352.66 206.166 L1329.22 207.203 L1305.79 208.27 L1282.36 209.35 L1258.92 210.456 L1235.49 211.601 L1212.06 212.788 L1188.63 214.018 L1165.19 215.294 L1141.76 216.619 L1118.33 217.994 L1094.9 219.425 L1071.46 221.049 L1048.03 222.749 L1024.6 224.532 L1001.16 226.404 L977.731 228.378 L954.298 230.467 L930.866 232.686 L907.433 235.057 L884 237.553 L860.567 239.987 L837.134 242.633 L813.702 245.541 L790.269 248.584 L766.836 251.924 L743.403 255.754 L719.971 260.497 L696.538 266.01 L673.105 272.466 L649.672 279.291 L626.239 287.504 L602.807 298.163 L579.374 311.201 L555.941 326.934 L532.508 346.129 L509.075 369.364 L485.643 398.178 L462.21 433.399 L438.777 475.918 L415.344 526.954 L391.912 586.969 L368.479 656.754 L345.046 734.003 L321.613 818.205 L298.18 906.585 L274.748 998.258 L251.315 1090.55  Z" fill="#228b22" fill-rule="evenodd" fill-opacity="0.2"/>
<polyline clip-path="url(#clip171)" style="stroke:#228b22; stroke-linecap:round; stroke-linejoin:round; stroke-width:8; stroke-opacity:1; fill:none" points="251.315,1090.55 274.748,1002.68 298.18,913.946 321.613,827.32 345.046,744.932 368.479,669.087 391.912,601.048 415.344,541.882 438.777,490.525 462.21,448.529 485.643,412.613 509.075,382.601 532.508,357.764 555.941,337.707 579.374,321.708 602.807,309.071 626.239,298.187 649.672,288.899 673.105,281.742 696.538,275.498 719.971,270.439 743.403,266.282 766.836,262.744 790.269,259.318 813.702,255.904 837.134,253.275 860.567,250.803 884,248.405 907.433,246.148 930.866,244.051 954.298,241.945 977.731,240.127 1001.16,238.49 1024.6,236.844 1048.03,235.247 1071.46,233.777 1094.9,232.226 1118.33,230.565 1141.76,229.314 1165.19,227.975 1188.63,226.675 1212.06,225.386 1235.49,224.104 1258.92,222.94 1282.36,221.806 1305.79,220.702 1329.22,219.627 1352.66,218.58 1376.09,217.56 1399.52,216.566 1422.95,215.597 1446.39,214.653 1469.82,213.733 1493.25,212.837 1516.69,211.963 1540.12,211.104 1563.55,210.181 1586.98,209.245 1610.42,208.354 1633.85,207.576 1657.28,206.816 1680.71,206.076 1704.15,205.355 1727.58,204.652 1751.01,203.967 1774.45,203.298 1797.88,202.647 1821.31,202.012 1844.74,201.393 1868.18,200.789 1891.61,200.2 1915.04,199.616 1938.48,199.028 1961.91,198.45 1985.34,197.886 2008.77,197.338 2032.21,196.804 2055.64,196.284 2079.07,195.777 2102.5,195.258 2125.94,194.747 2149.37,194.251 2172.8,193.768 2196.24,193.304 2219.67,192.872 2243.1,192.451 2266.53,192.012 2289.97,191.578 2313.4,191.157 2336.83,190.748 2360.27,190.354 2383.7,189.977 2407.13,189.612 2430.56,189.256 2454,188.91 2477.43,188.574 2500.86,188.246 2524.29,187.943 2547.73,187.65 2571.16,187.364 "/>
<path clip-path="url(#clip171)" d="M251.315 1395.18 L274.748 1411.74 L298.18 1425.5 L321.613 1437.16 L345.046 1447.75 L368.479 1457.42 L391.912 1466.28 L415.344 1474.02 L438.777 1481.09 L462.21 1487.58 L485.643 1493.63 L509.075 1499.46 L532.508 1504.96 L555.941 1510.19 L579.374 1515.34 L602.807 1520.45 L626.239 1525.35 L649.672 1530.3 L673.105 1535.21 L696.538 1539.72 L719.971 1543.9 L743.403 1547.96 L766.836 1552.43 L790.269 1556.89 L813.702 1561.22 L837.134 1565.44 L860.567 1569.35 L884 1573.06 L907.433 1576.66 L930.866 1580.15 L954.298 1583.54 L977.731 1586.96 L1001.16 1590.37 L1024.6 1593.68 L1048.03 1596.89 L1071.46 1600.12 L1094.9 1603.43 L1118.33 1606.64 L1141.76 1609.75 L1165.19 1612.76 L1188.63 1615.67 L1212.06 1618.49 L1235.49 1621.22 L1258.92 1623.87 L1282.36 1626.43 L1305.79 1628.9 L1329.22 1631.24 L1352.66 1633.41 L1376.09 1635.5 L1399.52 1637.53 L1422.95 1639.5 L1446.39 1641.41 L1469.82 1643.25 L1493.25 1645.04 L1516.69 1646.77 L1540.12 1648.46 L1563.55 1650.13 L1586.98 1651.75 L1610.42 1653.33 L1633.85 1654.87 L1657.28 1656.4 L1680.71 1657.87 L1704.15 1659.29 L1727.58 1660.67 L1751.01 1662 L1774.45 1663.28 L1797.88 1664.53 L1821.31 1665.73 L1844.74 1666.89 L1868.18 1668.01 L1891.61 1669.1 L1915.04 1670.15 L1938.48 1671.16 L1961.91 1672.14 L1985.34 1673.08 L2008.77 1674 L2032.21 1674.88 L2055.64 1675.74 L2079.07 1676.56 L2102.5 1677.36 L2125.94 1678.13 L2149.37 1678.87 L2172.8 1679.59 L2196.24 1680.28 L2219.67 1680.95 L2243.1 1681.6 L2266.53 1682.23 L2289.97 1682.83 L2313.4 1683.41 L2336.83 1683.98 L2360.27 1684.52 L2383.7 1685.05 L2407.13 1685.56 L2430.56 1686.05 L2454 1686.52 L2477.43 1686.98 L2500.86 1687.42 L2524.29 1687.85 L2547.73 1688.26 L2571.16 1688.65 L2571.16 1665.29 L2547.73 1664.64 L2524.29 1663.98 L2500.86 1663.3 L2477.43 1662.6 L2454 1661.88 L2430.56 1661.14 L2407.13 1660.39 L2383.7 1659.63 L2360.27 1658.85 L2336.83 1658.05 L2313.4 1657.23 L2289.97 1656.4 L2266.53 1655.55 L2243.1 1654.68 L2219.67 1653.79 L2196.24 1652.88 L2172.8 1651.94 L2149.37 1650.98 L2125.94 1650.01 L2102.5 1648.9 L2079.07 1647.76 L2055.64 1646.6 L2032.21 1645.41 L2008.77 1644.34 L1985.34 1643.24 L1961.91 1642.12 L1938.48 1640.97 L1915.04 1639.8 L1891.61 1638.6 L1868.18 1637.39 L1844.74 1636.14 L1821.31 1634.87 L1797.88 1633.57 L1774.45 1632.25 L1751.01 1630.89 L1727.58 1629.51 L1704.15 1628.1 L1680.71 1626.66 L1657.28 1625.1 L1633.85 1623.49 L1610.42 1621.84 L1586.98 1620.16 L1563.55 1618.44 L1540.12 1616.69 L1516.69 1614.9 L1493.25 1613.14 L1469.82 1611.36 L1446.39 1609.55 L1422.95 1607.69 L1399.52 1605.79 L1376.09 1603.86 L1352.66 1601.88 L1329.22 1599.85 L1305.79 1597.78 L1282.36 1595.67 L1258.92 1593.51 L1235.49 1591.11 L1212.06 1588.57 L1188.63 1585.67 L1165.19 1582.64 L1141.76 1579.53 L1118.33 1576.43 L1094.9 1573.54 L1071.46 1570.57 L1048.03 1567.54 L1024.6 1564.45 L1001.16 1561.3 L977.731 1557.98 L954.298 1554.52 L930.866 1550.99 L907.433 1547.4 L884 1543.74 L860.567 1540.02 L837.134 1536.24 L813.702 1532.41 L790.269 1528.51 L766.836 1524.57 L743.403 1520.57 L719.971 1516.54 L696.538 1512.37 L673.105 1508.11 L649.672 1503.76 L626.239 1499.12 L602.807 1494.39 L579.374 1489.6 L555.941 1484.85 L532.508 1480.79 L509.075 1476.49 L485.643 1471.55 L462.21 1466.62 L438.777 1461.67 L415.344 1456.63 L391.912 1451.56 L368.479 1445.36 L345.046 1438.22 L321.613 1430.08 L298.18 1420.16 L274.748 1408.38 L251.315 1395.18  Z" fill="#ff8c00" fill-rule="evenodd" fill-opacity="0.2"/>
<polyline clip-path="url(#clip171)" style="stroke:#ff8c00; stroke-linecap:round; stroke-linejoin:round; stroke-width:8; stroke-opacity:1; fill:none" points="251.315,1395.18 274.748,1409.67 298.18,1422.23 321.613,1433.13 345.046,1442.78 368.479,1451.39 391.912,1459.04 415.344,1466.07 438.777,1472.79 462.21,1478.27 485.643,1484.18 509.075,1490 532.508,1495.37 555.941,1501.02 579.374,1506.3 602.807,1510.91 626.239,1515.6 649.672,1520.04 673.105,1524.54 696.538,1529.1 719.971,1533.61 743.403,1537.98 766.836,1541.93 790.269,1545.73 813.702,1549.29 837.134,1552.96 860.567,1556.45 884,1559.96 907.433,1563.17 930.866,1566.33 954.298,1569.82 977.731,1573.23 1001.16,1576.26 1024.6,1579.3 1048.03,1582.21 1071.46,1585.37 1094.9,1588.34 1118.33,1591.02 1141.76,1593.71 1165.19,1596.34 1188.63,1598.79 1212.06,1601.16 1235.49,1603.64 1258.92,1605.94 1282.36,1608.19 1305.79,1610.77 1329.22,1612.98 1352.66,1614.9 1376.09,1616.95 1399.52,1618.95 1422.95,1620.97 1446.39,1622.95 1469.82,1624.86 1493.25,1626.63 1516.69,1628.35 1540.12,1630.04 1563.55,1631.68 1586.98,1633.28 1610.42,1634.85 1633.85,1636.38 1657.28,1637.87 1680.71,1639.33 1704.15,1640.75 1727.58,1642.13 1751.01,1643.49 1774.45,1644.86 1797.88,1646.25 1821.31,1647.7 1844.74,1649.09 1868.18,1650.31 1891.61,1651.5 1915.04,1652.65 1938.48,1653.78 1961.91,1654.89 1985.34,1655.96 2008.77,1657.01 2032.21,1658.04 2055.64,1659.04 2079.07,1660.02 2102.5,1660.97 2125.94,1661.9 2149.37,1662.83 2172.8,1663.74 2196.24,1664.65 2219.67,1665.54 2243.1,1666.41 2266.53,1667.26 2289.97,1668.08 2313.4,1668.89 2336.83,1669.68 2360.27,1670.49 2383.7,1671.28 2407.13,1672.05 2430.56,1672.8 2454,1673.5 2477.43,1674.18 2500.86,1674.85 2524.29,1675.54 2547.73,1676.21 2571.16,1676.87 "/>
<polyline clip-path="url(#clip171)" style="stroke:#228b22; stroke-linecap:round; stroke-linejoin:round; stroke-width:4; stroke-opacity:1; fill:none" stroke-dasharray="16, 10" points="251.315,1090.55 262.972,1050.21 274.63,1008.97 286.287,967.14 297.945,925.045 309.602,883.015 321.26,841.386 332.917,800.474 344.575,760.575 356.233,721.959 367.89,684.853 379.548,649.445 391.205,615.88 402.863,584.258 414.52,554.641 426.178,527.046 437.835,501.459 449.493,477.841 461.15,456.133 472.808,436.256 484.465,418.105 496.123,401.565 507.78,386.53 519.438,372.894 531.095,360.554 542.753,349.403 554.41,339.334 566.068,330.237 577.725,322.004 589.383,314.557 601.04,307.825 612.698,301.74 624.355,296.238 636.013,291.255 647.67,286.73 659.328,282.604 670.985,278.826 682.643,275.365 694.3,272.194 705.958,269.285 717.616,266.61 729.273,264.145 740.931,261.862 752.588,259.737 764.246,257.744 775.903,255.867 787.561,254.099 799.218,252.433 810.876,250.861 822.533,249.375 834.191,247.967 845.848,246.628 857.506,245.349 869.163,244.122 880.821,242.937 892.478,241.788 904.136,240.676 915.793,239.6 927.451,238.559 939.108,237.55 950.766,236.574 962.423,235.627 974.081,234.707 985.738,233.812 997.396,232.939 1009.05,232.085 1020.71,231.246 1032.37,230.42 1044.03,229.608 1055.68,228.812 1067.34,228.03 1079,227.264 1090.66,226.513 1102.31,225.778 1113.97,225.057 1125.63,224.351 1137.29,223.658 1148.94,222.978 1160.6,222.311 1172.26,221.654 1183.92,221.006 1195.57,220.368 1207.23,219.736 1218.89,219.112 1230.55,218.497 1242.2,217.891 1253.86,217.295 1265.52,216.708 1277.18,216.131 1288.83,215.564 1300.49,215.007 1312.15,214.459 1323.81,213.922 1335.46,213.393 1347.12,212.873 1358.78,212.362 1370.44,211.858 1382.09,211.363 1393.75,210.874 1405.41,210.391 1417.07,209.913 1428.72,209.439 1440.38,208.971 1452.04,208.508 1463.7,208.05 1475.35,207.599 1487.01,207.155 1498.67,206.718 1510.33,206.288 1521.98,205.866 1533.64,205.451 1545.3,205.044 1556.96,204.644 1568.61,204.252 1580.27,203.867 1591.93,203.489 1603.59,203.117 1615.24,202.752 1626.9,202.393 1638.56,202.038 1650.22,201.689 1661.87,201.343 1673.53,201.001 1685.19,200.661 1696.85,200.322 1708.5,199.984 1720.16,199.647 1731.82,199.312 1743.48,198.98 1755.13,198.651 1766.79,198.328 1778.45,198.011 1790.11,197.699 1801.76,197.394 1813.42,197.097 1825.08,196.806 1836.74,196.524 1848.39,196.248 1860.05,195.98 1871.71,195.719 1883.37,195.465 1895.02,195.217 1906.68,194.975 1918.34,194.739 1930,194.506 1941.65,194.276 1953.31,194.049 1964.97,193.823 1976.63,193.596 1988.28,193.368 1999.94,193.136 2011.6,192.9 2023.26,192.655 2034.91,192.401 2046.57,192.144 2058.23,191.884 2069.89,191.626 2081.54,191.372 2093.2,191.125 2104.86,190.885 2116.52,190.655 2128.17,190.436 2139.83,190.229 2151.49,190.035 2163.15,189.853 2174.8,189.684 2186.46,189.527 2198.12,189.382 2209.78,189.248 2221.44,189.123 2233.09,189.005 2244.75,188.893 2256.41,188.784 2268.07,188.676 2279.72,188.565 2291.38,188.448 2303.04,188.322 2314.7,188.183 2326.35,188.026 2338.01,187.846 2349.67,187.653 2361.33,187.458 2372.98,187.265 2384.64,187.077 2396.3,186.894 2407.96,186.719 2419.61,186.553 2431.27,186.397 2442.93,186.252 2454.59,186.116 2466.24,185.99 2477.9,185.873 2489.56,185.764 2501.22,185.661 2512.87,185.562 2524.53,185.464 2536.19,185.366 2547.85,185.263 2559.5,185.152 2571.16,185.029 "/>
<polyline clip-path="url(#clip171)" style="stroke:#ff8c00; stroke-linecap:round; stroke-linejoin:round; stroke-width:4; stroke-opacity:1; fill:none" stroke-dasharray="16, 10" points="251.315,1395.18 262.972,1401.16 274.63,1406.87 286.287,1412.34 297.945,1417.57 309.602,1422.6 321.26,1427.43 332.917,1432.09 344.575,1436.58 356.233,1440.92 367.89,1445.12 379.548,1449.2 391.205,1453.15 402.863,1457 414.52,1460.74 426.178,1464.39 437.835,1467.95 449.493,1471.43 461.15,1474.83 472.808,1478.16 484.465,1481.42 496.123,1484.61 507.78,1487.74 519.438,1490.82 531.095,1493.84 542.753,1496.8 554.41,1499.71 566.068,1502.58 577.725,1505.39 589.383,1508.16 601.04,1510.89 612.698,1513.57 624.355,1516.21 636.013,1518.8 647.67,1521.36 659.328,1523.88 670.985,1526.36 682.643,1528.8 694.3,1531.21 705.958,1533.58 717.616,1535.91 729.273,1538.22 740.931,1540.48 752.588,1542.72 764.246,1544.92 775.903,1547.09 787.561,1549.23 799.218,1551.33 810.876,1553.41 822.533,1555.46 834.191,1557.47 845.848,1559.46 857.506,1561.42 869.163,1563.36 880.821,1565.26 892.478,1567.14 904.136,1568.99 915.793,1570.81 927.451,1572.61 939.108,1574.38 950.766,1576.13 962.423,1577.86 974.081,1579.55 985.738,1581.23 997.396,1582.88 1009.05,1584.51 1020.71,1586.11 1032.37,1587.69 1044.03,1589.25 1055.68,1590.79 1067.34,1592.31 1079,1593.8 1090.66,1595.27 1102.31,1596.73 1113.97,1598.16 1125.63,1599.57 1137.29,1600.96 1148.94,1602.33 1160.6,1603.69 1172.26,1605.02 1183.92,1606.34 1195.57,1607.63 1207.23,1608.91 1218.89,1610.17 1230.55,1611.42 1242.2,1612.64 1253.86,1613.85 1265.52,1615.04 1277.18,1616.22 1288.83,1617.38 1300.49,1618.52 1312.15,1619.65 1323.81,1620.76 1335.46,1621.85 1347.12,1622.93 1358.78,1623.99 1370.44,1625.04 1382.09,1626.08 1393.75,1627.1 1405.41,1628.11 1417.07,1629.1 1428.72,1630.08 1440.38,1631.04 1452.04,1631.99 1463.7,1632.93 1475.35,1633.86 1487.01,1634.77 1498.67,1635.67 1510.33,1636.55 1521.98,1637.43 1533.64,1638.29 1545.3,1639.14 1556.96,1639.98 1568.61,1640.81 1580.27,1641.62 1591.93,1642.43 1603.59,1643.22 1615.24,1644 1626.9,1644.77 1638.56,1645.53 1650.22,1646.28 1661.87,1647.02 1673.53,1647.75 1685.19,1648.47 1696.85,1649.18 1708.5,1649.87 1720.16,1650.56 1731.82,1651.24 1743.48,1651.91 1755.13,1652.57 1766.79,1653.23 1778.45,1653.87 1790.11,1654.5 1801.76,1655.13 1813.42,1655.74 1825.08,1656.35 1836.74,1656.95 1848.39,1657.54 1860.05,1658.12 1871.71,1658.7 1883.37,1659.27 1895.02,1659.82 1906.68,1660.38 1918.34,1660.92 1930,1661.46 1941.65,1661.98 1953.31,1662.51 1964.97,1663.02 1976.63,1663.53 1988.28,1664.03 1999.94,1664.52 2011.6,1665.01 2023.26,1665.48 2034.91,1665.96 2046.57,1666.42 2058.23,1666.88 2069.89,1667.34 2081.54,1667.78 2093.2,1668.23 2104.86,1668.66 2116.52,1669.09 2128.17,1669.51 2139.83,1669.93 2151.49,1670.34 2163.15,1670.75 2174.8,1671.15 2186.46,1671.54 2198.12,1671.93 2209.78,1672.31 2221.44,1672.69 2233.09,1673.07 2244.75,1673.43 2256.41,1673.8 2268.07,1674.15 2279.72,1674.51 2291.38,1674.86 2303.04,1675.2 2314.7,1675.54 2326.35,1675.87 2338.01,1676.2 2349.67,1676.53 2361.33,1676.85 2372.98,1677.16 2384.64,1677.47 2396.3,1677.78 2407.96,1678.08 2419.61,1678.38 2431.27,1678.68 2442.93,1678.97 2454.59,1679.25 2466.24,1679.54 2477.9,1679.82 2489.56,1680.09 2501.22,1680.36 2512.87,1680.63 2524.53,1680.89 2536.19,1681.15 2547.85,1681.41 2559.5,1681.66 2571.16,1681.91 "/>
<circle clip-path="url(#clip171)" cx="251.315" cy="1104.34" r="10.8" fill="#228b22" fill-rule="evenodd" fill-opacity="0.5" stroke="#000000" stroke-opacity="0.5" stroke-width="3.84"/>
<circle clip-path="url(#clip171)" cx="367.307" cy="653.596" r="10.8" fill="#228b22" fill-rule="evenodd" fill-opacity="0.5" stroke="#000000" stroke-opacity="0.5" stroke-width="3.84"/>
<circle clip-path="url(#clip171)" cx="483.299" cy="408.501" r="10.8" fill="#228b22" fill-rule="evenodd" fill-opacity="0.5" stroke="#000000" stroke-opacity="0.5" stroke-width="3.84"/>
<circle clip-path="url(#clip171)" cx="599.292" cy="312.283" r="10.8" fill="#228b22" fill-rule="evenodd" fill-opacity="0.5" stroke="#000000" stroke-opacity="0.5" stroke-width="3.84"/>
<circle clip-path="url(#clip171)" cx="715.284" cy="275.719" r="10.8" fill="#228b22" fill-rule="evenodd" fill-opacity="0.5" stroke="#000000" stroke-opacity="0.5" stroke-width="3.84"/>
<circle clip-path="url(#clip171)" cx="831.276" cy="235.111" r="10.8" fill="#228b22" fill-rule="evenodd" fill-opacity="0.5" stroke="#000000" stroke-opacity="0.5" stroke-width="3.84"/>
<circle clip-path="url(#clip171)" cx="947.269" cy="252.346" r="10.8" fill="#228b22" fill-rule="evenodd" fill-opacity="0.5" stroke="#000000" stroke-opacity="0.5" stroke-width="3.84"/>
<circle clip-path="url(#clip171)" cx="1063.26" cy="210.511" r="10.8" fill="#228b22" fill-rule="evenodd" fill-opacity="0.5" stroke="#000000" stroke-opacity="0.5" stroke-width="3.84"/>
<circle clip-path="url(#clip171)" cx="1179.25" cy="259.172" r="10.8" fill="#228b22" fill-rule="evenodd" fill-opacity="0.5" stroke="#000000" stroke-opacity="0.5" stroke-width="3.84"/>
<circle clip-path="url(#clip171)" cx="1295.25" cy="215.767" r="10.8" fill="#228b22" fill-rule="evenodd" fill-opacity="0.5" stroke="#000000" stroke-opacity="0.5" stroke-width="3.84"/>
<circle clip-path="url(#clip171)" cx="1411.24" cy="183.376" r="10.8" fill="#228b22" fill-rule="evenodd" fill-opacity="0.5" stroke="#000000" stroke-opacity="0.5" stroke-width="3.84"/>
<circle clip-path="url(#clip171)" cx="1527.23" cy="231.141" r="10.8" fill="#228b22" fill-rule="evenodd" fill-opacity="0.5" stroke="#000000" stroke-opacity="0.5" stroke-width="3.84"/>
<circle clip-path="url(#clip171)" cx="1643.22" cy="192.864" r="10.8" fill="#228b22" fill-rule="evenodd" fill-opacity="0.5" stroke="#000000" stroke-opacity="0.5" stroke-width="3.84"/>
<circle clip-path="url(#clip171)" cx="1759.21" cy="198.167" r="10.8" fill="#228b22" fill-rule="evenodd" fill-opacity="0.5" stroke="#000000" stroke-opacity="0.5" stroke-width="3.84"/>
<circle clip-path="url(#clip171)" cx="1875.21" cy="173.254" r="10.8" fill="#228b22" fill-rule="evenodd" fill-opacity="0.5" stroke="#000000" stroke-opacity="0.5" stroke-width="3.84"/>
<circle clip-path="url(#clip171)" cx="1991.2" cy="208.246" r="10.8" fill="#228b22" fill-rule="evenodd" fill-opacity="0.5" stroke="#000000" stroke-opacity="0.5" stroke-width="3.84"/>
<circle clip-path="url(#clip171)" cx="2107.19" cy="210.295" r="10.8" fill="#228b22" fill-rule="evenodd" fill-opacity="0.5" stroke="#000000" stroke-opacity="0.5" stroke-width="3.84"/>
<circle clip-path="url(#clip171)" cx="2223.18" cy="199.798" r="10.8" fill="#228b22" fill-rule="evenodd" fill-opacity="0.5" stroke="#000000" stroke-opacity="0.5" stroke-width="3.84"/>
<circle clip-path="url(#clip171)" cx="2339.18" cy="204.134" r="10.8" fill="#228b22" fill-rule="evenodd" fill-opacity="0.5" stroke="#000000" stroke-opacity="0.5" stroke-width="3.84"/>
<circle clip-path="url(#clip171)" cx="2455.17" cy="199.368" r="10.8" fill="#228b22" fill-rule="evenodd" fill-opacity="0.5" stroke="#000000" stroke-opacity="0.5" stroke-width="3.84"/>
<circle clip-path="url(#clip171)" cx="2571.16" cy="193.52" r="10.8" fill="#228b22" fill-rule="evenodd" fill-opacity="0.5" stroke="#000000" stroke-opacity="0.5" stroke-width="3.84"/>
<path clip-path="url(#clip170)" d="M263.687 492.376 L1103.99 492.376 L1103.99 181.336 L263.687 181.336  Z" fill="#ffffff" fill-rule="evenodd" fill-opacity="1"/>
<polyline clip-path="url(#clip170)" style="stroke:#000000; stroke-linecap:round; stroke-linejoin:round; stroke-width:4; stroke-opacity:1; fill:none" points="263.687,492.376 1103.99,492.376 1103.99,181.336 263.687,181.336 263.687,492.376 "/>
<polyline clip-path="url(#clip170)" style="stroke:#228b22; stroke-linecap:round; stroke-linejoin:round; stroke-width:8; stroke-opacity:1; fill:none" points="291.01,233.176 454.946,233.176 "/>
<path clip-path="url(#clip170)" d="M486.944 219.739 L486.944 232.725 L492.824 232.725 Q496.088 232.725 497.87 231.035 Q499.653 229.345 499.653 226.22 Q499.653 223.118 497.87 221.429 Q496.088 219.739 492.824 219.739 L486.944 219.739 M482.268 215.896 L492.824 215.896 Q498.634 215.896 501.597 218.535 Q504.583 221.151 504.583 226.22 Q504.583 231.336 501.597 233.952 Q498.634 236.567 492.824 236.567 L486.944 236.567 L486.944 250.456 L482.268 250.456 L482.268 215.896 Z" fill="#000000" fill-rule="nonzero" fill-opacity="1" /><path clip-path="url(#clip170)" d="M524.861 228.512 Q524.143 228.095 523.287 227.91 Q522.453 227.702 521.435 227.702 Q517.824 227.702 515.879 230.063 Q513.958 232.401 513.958 236.799 L513.958 250.456 L509.676 250.456 L509.676 224.531 L513.958 224.531 L513.958 228.558 Q515.301 226.197 517.453 225.063 Q519.606 223.906 522.685 223.906 Q523.125 223.906 523.657 223.975 Q524.189 224.021 524.838 224.137 L524.861 228.512 Z" fill="#000000" fill-rule="nonzero" fill-opacity="1" /><path clip-path="url(#clip170)" d="M550.462 236.429 L550.462 238.512 L530.879 238.512 Q531.157 242.91 533.518 245.225 Q535.902 247.516 540.138 247.516 Q542.592 247.516 544.884 246.915 Q547.199 246.313 549.467 245.109 L549.467 249.137 Q547.175 250.109 544.768 250.618 Q542.361 251.128 539.884 251.128 Q533.68 251.128 530.046 247.516 Q526.435 243.905 526.435 237.748 Q526.435 231.382 529.861 227.655 Q533.31 223.906 539.143 223.906 Q544.375 223.906 547.407 227.285 Q550.462 230.642 550.462 236.429 M546.203 235.179 Q546.157 231.683 544.236 229.6 Q542.338 227.517 539.189 227.517 Q535.625 227.517 533.472 229.53 Q531.342 231.544 531.018 235.202 L546.203 235.179 Z" fill="#000000" fill-rule="nonzero" fill-opacity="1" /><path clip-path="url(#clip170)" d="M568.24 252.864 Q566.435 257.493 564.722 258.905 Q563.009 260.317 560.138 260.317 L556.736 260.317 L556.736 256.753 L559.236 256.753 Q560.995 256.753 561.967 255.919 Q562.939 255.086 564.12 251.984 L564.884 250.04 L554.398 224.531 L558.911 224.531 L567.013 244.808 L575.115 224.531 L579.629 224.531 L568.24 252.864 Z" fill="#000000" fill-rule="nonzero" fill-opacity="1" /><path clip-path="url(#clip170)" d="M600.763 215.896 L605.439 215.896 L605.439 230.063 L622.43 230.063 L622.43 215.896 L627.106 215.896 L627.106 250.456 L622.43 250.456 L622.43 233.998 L605.439 233.998 L605.439 250.456 L600.763 250.456 L600.763 215.896 Z" fill="#000000" fill-rule="nonzero" fill-opacity="1" /><path clip-path="url(#clip170)" d="M661.527 214.484 Q658.425 219.808 656.92 225.017 Q655.416 230.225 655.416 235.572 Q655.416 240.919 656.92 246.174 Q658.448 251.405 661.527 256.706 L657.823 256.706 Q654.351 251.266 652.615 246.012 Q650.902 240.757 650.902 235.572 Q650.902 230.41 652.615 225.179 Q654.328 219.947 657.823 214.484 L661.527 214.484 Z" fill="#000000" fill-rule="nonzero" fill-opacity="1" /><path clip-path="url(#clip170)" d="M669.976 215.896 L676.943 215.896 L685.763 239.415 L694.628 215.896 L701.596 215.896 L701.596 250.456 L697.036 250.456 L697.036 220.109 L688.124 243.813 L683.425 243.813 L674.513 220.109 L674.513 250.456 L669.976 250.456 L669.976 215.896 Z" fill="#000000" fill-rule="nonzero" fill-opacity="1" /><path clip-path="url(#clip170)" d="M722.429 220.503 L716.087 237.702 L728.795 237.702 L722.429 220.503 M719.79 215.896 L725.091 215.896 L738.262 250.456 L733.401 250.456 L730.253 241.591 L714.675 241.591 L711.526 250.456 L706.596 250.456 L719.79 215.896 Z" fill="#000000" fill-rule="nonzero" fill-opacity="1" /><path clip-path="url(#clip170)" d="M766.04 245.526 L766.04 236.243 L758.401 236.243 L758.401 232.401 L770.67 232.401 L770.67 247.239 Q767.961 249.16 764.697 250.155 Q761.434 251.128 757.73 251.128 Q749.628 251.128 745.045 246.405 Q740.485 241.66 740.485 233.211 Q740.485 224.739 745.045 220.017 Q749.628 215.271 757.73 215.271 Q761.109 215.271 764.142 216.105 Q767.197 216.938 769.767 218.558 L769.767 223.535 Q767.174 221.336 764.258 220.225 Q761.341 219.114 758.123 219.114 Q751.781 219.114 748.586 222.656 Q745.415 226.197 745.415 233.211 Q745.415 240.202 748.586 243.743 Q751.781 247.285 758.123 247.285 Q760.6 247.285 762.545 246.868 Q764.489 246.429 766.04 245.526 Z" fill="#000000" fill-rule="nonzero" fill-opacity="1" /><path clip-path="url(#clip170)" d="M779.211 215.896 L783.887 215.896 L783.887 250.456 L779.211 250.456 L779.211 215.896 Z" fill="#000000" fill-rule="nonzero" fill-opacity="1" /><path clip-path="url(#clip170)" d="M808.818 249.739 L808.818 245.479 Q810.577 246.313 812.382 246.753 Q814.188 247.192 815.924 247.192 Q820.554 247.192 822.984 244.091 Q825.438 240.966 825.785 234.623 Q824.442 236.614 822.382 237.679 Q820.322 238.743 817.822 238.743 Q812.637 238.743 809.605 235.618 Q806.595 232.47 806.595 227.03 Q806.595 221.706 809.743 218.489 Q812.892 215.271 818.123 215.271 Q824.118 215.271 827.267 219.878 Q830.438 224.461 830.438 233.211 Q830.438 241.382 826.549 246.266 Q822.683 251.128 816.132 251.128 Q814.373 251.128 812.568 250.78 Q810.762 250.433 808.818 249.739 M818.123 235.086 Q821.271 235.086 823.1 232.933 Q824.952 230.78 824.952 227.03 Q824.952 223.304 823.1 221.151 Q821.271 218.975 818.123 218.975 Q814.975 218.975 813.123 221.151 Q811.294 223.304 811.294 227.03 Q811.294 230.78 813.123 232.933 Q814.975 235.086 818.123 235.086 Z" fill="#000000" fill-rule="nonzero" fill-opacity="1" /><path clip-path="url(#clip170)" d="M838.887 215.896 L857.243 215.896 L857.243 219.831 L843.169 219.831 L843.169 228.304 Q844.188 227.956 845.206 227.794 Q846.225 227.609 847.243 227.609 Q853.03 227.609 856.41 230.78 Q859.79 233.952 859.79 239.368 Q859.79 244.947 856.317 248.049 Q852.845 251.128 846.526 251.128 Q844.35 251.128 842.081 250.757 Q839.836 250.387 837.429 249.646 L837.429 244.947 Q839.512 246.081 841.734 246.637 Q843.956 247.192 846.433 247.192 Q850.438 247.192 852.776 245.086 Q855.114 242.979 855.114 239.368 Q855.114 235.757 852.776 233.651 Q850.438 231.544 846.433 231.544 Q844.558 231.544 842.683 231.961 Q840.831 232.378 838.887 233.257 L838.887 215.896 Z" fill="#000000" fill-rule="nonzero" fill-opacity="1" /><path clip-path="url(#clip170)" d="M898.4 235.248 Q896.387 235.248 895.229 236.961 Q894.095 238.674 894.095 241.729 Q894.095 244.739 895.229 246.475 Q896.387 248.188 898.4 248.188 Q900.368 248.188 901.502 246.475 Q902.66 244.739 902.66 241.729 Q902.66 238.697 901.502 236.984 Q900.368 235.248 898.4 235.248 M898.4 232.308 Q902.058 232.308 904.211 234.855 Q906.363 237.401 906.363 241.729 Q906.363 246.058 904.187 248.604 Q902.035 251.128 898.4 251.128 Q894.697 251.128 892.544 248.604 Q890.391 246.058 890.391 241.729 Q890.391 237.378 892.544 234.855 Q894.72 232.308 898.4 232.308 M874.512 218.211 Q872.521 218.211 871.364 219.947 Q870.229 221.66 870.229 224.669 Q870.229 227.725 871.364 229.438 Q872.498 231.151 874.512 231.151 Q876.526 231.151 877.66 229.438 Q878.817 227.725 878.817 224.669 Q878.817 221.683 877.66 219.947 Q876.502 218.211 874.512 218.211 M895.414 215.271 L899.118 215.271 L877.498 251.128 L873.794 251.128 L895.414 215.271 M874.512 215.271 Q878.169 215.271 880.345 217.818 Q882.521 220.341 882.521 224.669 Q882.521 229.044 880.345 231.568 Q878.192 234.091 874.512 234.091 Q870.831 234.091 868.678 231.568 Q866.549 229.021 866.549 224.669 Q866.549 220.364 868.702 217.818 Q870.854 215.271 874.512 215.271 Z" fill="#000000" fill-rule="nonzero" fill-opacity="1" /><path clip-path="url(#clip170)" d="M954.581 218.558 L954.581 223.489 Q952.22 221.29 949.534 220.202 Q946.872 219.114 943.863 219.114 Q937.937 219.114 934.789 222.748 Q931.641 226.359 931.641 233.211 Q931.641 240.04 934.789 243.674 Q937.937 247.285 943.863 247.285 Q946.872 247.285 949.534 246.197 Q952.22 245.109 954.581 242.91 L954.581 247.794 Q952.127 249.461 949.372 250.294 Q946.641 251.128 943.585 251.128 Q935.738 251.128 931.224 246.336 Q926.71 241.521 926.71 233.211 Q926.71 224.878 931.224 220.086 Q935.738 215.271 943.585 215.271 Q946.687 215.271 949.419 216.105 Q952.173 216.915 954.581 218.558 Z" fill="#000000" fill-rule="nonzero" fill-opacity="1" /><path clip-path="url(#clip170)" d="M961.803 215.896 L966.479 215.896 L966.479 250.456 L961.803 250.456 L961.803 215.896 Z" fill="#000000" fill-rule="nonzero" fill-opacity="1" /><path clip-path="url(#clip170)" d="M974.928 214.484 L978.631 214.484 Q982.104 219.947 983.817 225.179 Q985.553 230.41 985.553 235.572 Q985.553 240.757 983.817 246.012 Q982.104 251.266 978.631 256.706 L974.928 256.706 Q978.006 251.405 979.511 246.174 Q981.039 240.919 981.039 235.572 Q981.039 230.225 979.511 225.017 Q978.006 219.808 974.928 214.484 Z" fill="#000000" fill-rule="nonzero" fill-opacity="1" /><polyline clip-path="url(#clip170)" style="stroke:#ff8c00; stroke-linecap:round; stroke-linejoin:round; stroke-width:8; stroke-opacity:1; fill:none" points="291.01,285.016 454.946,285.016 "/>
<path clip-path="url(#clip170)" d="M486.944 271.579 L486.944 284.565 L492.824 284.565 Q496.088 284.565 497.87 282.875 Q499.653 281.185 499.653 278.06 Q499.653 274.958 497.87 273.269 Q496.088 271.579 492.824 271.579 L486.944 271.579 M482.268 267.736 L492.824 267.736 Q498.634 267.736 501.597 270.375 Q504.583 272.991 504.583 278.06 Q504.583 283.176 501.597 285.792 Q498.634 288.407 492.824 288.407 L486.944 288.407 L486.944 302.296 L482.268 302.296 L482.268 267.736 Z" fill="#000000" fill-rule="nonzero" fill-opacity="1" /><path clip-path="url(#clip170)" d="M524.861 280.352 Q524.143 279.935 523.287 279.75 Q522.453 279.542 521.435 279.542 Q517.824 279.542 515.879 281.903 Q513.958 284.241 513.958 288.639 L513.958 302.296 L509.676 302.296 L509.676 276.371 L513.958 276.371 L513.958 280.398 Q515.301 278.037 517.453 276.903 Q519.606 275.746 522.685 275.746 Q523.125 275.746 523.657 275.815 Q524.189 275.861 524.838 275.977 L524.861 280.352 Z" fill="#000000" fill-rule="nonzero" fill-opacity="1" /><path clip-path="url(#clip170)" d="M550.462 288.269 L550.462 290.352 L530.879 290.352 Q531.157 294.75 533.518 297.065 Q535.902 299.356 540.138 299.356 Q542.592 299.356 544.884 298.755 Q547.199 298.153 549.467 296.949 L549.467 300.977 Q547.175 301.949 544.768 302.458 Q542.361 302.968 539.884 302.968 Q533.68 302.968 530.046 299.356 Q526.435 295.745 526.435 289.588 Q526.435 283.222 529.861 279.495 Q533.31 275.746 539.143 275.746 Q544.375 275.746 547.407 279.125 Q550.462 282.482 550.462 288.269 M546.203 287.019 Q546.157 283.523 544.236 281.44 Q542.338 279.357 539.189 279.357 Q535.625 279.357 533.472 281.37 Q531.342 283.384 531.018 287.042 L546.203 287.019 Z" fill="#000000" fill-rule="nonzero" fill-opacity="1" /><path clip-path="url(#clip170)" d="M574.513 280.306 L574.513 266.278 L578.773 266.278 L578.773 302.296 L574.513 302.296 L574.513 298.407 Q573.171 300.722 571.111 301.856 Q569.073 302.968 566.203 302.968 Q561.504 302.968 558.541 299.218 Q555.601 295.468 555.601 289.357 Q555.601 283.245 558.541 279.495 Q561.504 275.746 566.203 275.746 Q569.073 275.746 571.111 276.88 Q573.171 277.991 574.513 280.306 M559.999 289.357 Q559.999 294.056 561.921 296.741 Q563.865 299.403 567.245 299.403 Q570.624 299.403 572.569 296.741 Q574.513 294.056 574.513 289.357 Q574.513 284.657 572.569 281.995 Q570.624 279.31 567.245 279.31 Q563.865 279.31 561.921 281.995 Q559.999 284.657 559.999 289.357 Z" fill="#000000" fill-rule="nonzero" fill-opacity="1" /><path clip-path="url(#clip170)" d="M599.328 289.264 Q594.166 289.264 592.175 290.444 Q590.184 291.625 590.184 294.472 Q590.184 296.741 591.666 298.083 Q593.171 299.403 595.74 299.403 Q599.282 299.403 601.411 296.903 Q603.564 294.38 603.564 290.213 L603.564 289.264 L599.328 289.264 M607.823 287.505 L607.823 302.296 L603.564 302.296 L603.564 298.361 Q602.106 300.722 599.93 301.856 Q597.754 302.968 594.606 302.968 Q590.624 302.968 588.263 300.745 Q585.925 298.5 585.925 294.75 Q585.925 290.375 588.842 288.153 Q591.782 285.931 597.592 285.931 L603.564 285.931 L603.564 285.514 Q603.564 282.574 601.62 280.977 Q599.698 279.357 596.203 279.357 Q593.981 279.357 591.874 279.889 Q589.768 280.421 587.823 281.486 L587.823 277.551 Q590.161 276.648 592.36 276.208 Q594.559 275.746 596.643 275.746 Q602.268 275.746 605.046 278.662 Q607.823 281.579 607.823 287.505 Z" fill="#000000" fill-rule="nonzero" fill-opacity="1" /><path clip-path="url(#clip170)" d="M620.809 269.009 L620.809 276.371 L629.582 276.371 L629.582 279.681 L620.809 279.681 L620.809 293.755 Q620.809 296.926 621.666 297.829 Q622.545 298.731 625.207 298.731 L629.582 298.731 L629.582 302.296 L625.207 302.296 Q620.277 302.296 618.402 300.468 Q616.527 298.616 616.527 293.755 L616.527 279.681 L613.402 279.681 L613.402 276.371 L616.527 276.371 L616.527 269.009 L620.809 269.009 Z" fill="#000000" fill-rule="nonzero" fill-opacity="1" /><path clip-path="url(#clip170)" d="M645.23 279.357 Q641.805 279.357 639.814 282.042 Q637.823 284.704 637.823 289.357 Q637.823 294.009 639.791 296.694 Q641.781 299.356 645.23 299.356 Q648.633 299.356 650.624 296.671 Q652.615 293.986 652.615 289.357 Q652.615 284.75 650.624 282.065 Q648.633 279.357 645.23 279.357 M645.23 275.746 Q650.786 275.746 653.957 279.357 Q657.129 282.968 657.129 289.357 Q657.129 295.722 653.957 299.356 Q650.786 302.968 645.23 302.968 Q639.652 302.968 636.481 299.356 Q633.332 295.722 633.332 289.357 Q633.332 282.968 636.481 279.357 Q639.652 275.746 645.23 275.746 Z" fill="#000000" fill-rule="nonzero" fill-opacity="1" /><path clip-path="url(#clip170)" d="M679.212 280.352 Q678.494 279.935 677.638 279.75 Q676.804 279.542 675.786 279.542 Q672.175 279.542 670.23 281.903 Q668.309 284.241 668.309 288.639 L668.309 302.296 L664.027 302.296 L664.027 276.371 L668.309 276.371 L668.309 280.398 Q669.652 278.037 671.804 276.903 Q673.957 275.746 677.036 275.746 Q677.476 275.746 678.008 275.815 Q678.54 275.861 679.189 275.977 L679.212 280.352 Z" fill="#000000" fill-rule="nonzero" fill-opacity="1" /><path clip-path="url(#clip170)" d="M703.61 271.579 L703.61 284.565 L709.489 284.565 Q712.753 284.565 714.536 282.875 Q716.318 281.185 716.318 278.06 Q716.318 274.958 714.536 273.269 Q712.753 271.579 709.489 271.579 L703.61 271.579 M698.934 267.736 L709.489 267.736 Q715.3 267.736 718.262 270.375 Q721.249 272.991 721.249 278.06 Q721.249 283.176 718.262 285.792 Q715.3 288.407 709.489 288.407 L703.61 288.407 L703.61 302.296 L698.934 302.296 L698.934 267.736 Z" fill="#000000" fill-rule="nonzero" fill-opacity="1" /><path clip-path="url(#clip170)" d="M752.637 266.324 Q749.535 271.648 748.031 276.857 Q746.526 282.065 746.526 287.412 Q746.526 292.759 748.031 298.014 Q749.559 303.245 752.637 308.546 L748.934 308.546 Q745.461 303.106 743.725 297.852 Q742.012 292.597 742.012 287.412 Q742.012 282.25 743.725 277.019 Q745.438 271.787 748.934 266.324 L752.637 266.324 Z" fill="#000000" fill-rule="nonzero" fill-opacity="1" /><path clip-path="url(#clip170)" d="M761.086 267.736 L768.054 267.736 L776.873 291.255 L785.739 267.736 L792.707 267.736 L792.707 302.296 L788.146 302.296 L788.146 271.949 L779.234 295.653 L774.535 295.653 L765.623 271.949 L765.623 302.296 L761.086 302.296 L761.086 267.736 Z" fill="#000000" fill-rule="nonzero" fill-opacity="1" /><path clip-path="url(#clip170)" d="M813.54 272.343 L807.197 289.542 L819.905 289.542 L813.54 272.343 M810.901 267.736 L816.202 267.736 L829.373 302.296 L824.512 302.296 L821.364 293.431 L805.785 293.431 L802.637 302.296 L797.707 302.296 L810.901 267.736 Z" fill="#000000" fill-rule="nonzero" fill-opacity="1" /><path clip-path="url(#clip170)" d="M857.151 297.366 L857.151 288.083 L849.512 288.083 L849.512 284.241 L861.78 284.241 L861.78 299.079 Q859.072 301 855.808 301.995 Q852.544 302.968 848.84 302.968 Q840.739 302.968 836.155 298.245 Q831.595 293.5 831.595 285.051 Q831.595 276.579 836.155 271.857 Q840.739 267.111 848.84 267.111 Q852.22 267.111 855.253 267.945 Q858.308 268.778 860.877 270.398 L860.877 275.375 Q858.285 273.176 855.368 272.065 Q852.452 270.954 849.234 270.954 Q842.891 270.954 839.697 274.496 Q836.526 278.037 836.526 285.051 Q836.526 292.042 839.697 295.583 Q842.891 299.125 849.234 299.125 Q851.711 299.125 853.655 298.708 Q855.6 298.269 857.151 297.366 Z" fill="#000000" fill-rule="nonzero" fill-opacity="1" /><path clip-path="url(#clip170)" d="M870.322 267.736 L874.998 267.736 L874.998 302.296 L870.322 302.296 L870.322 267.736 Z" fill="#000000" fill-rule="nonzero" fill-opacity="1" /><path clip-path="url(#clip170)" d="M899.928 301.579 L899.928 297.319 Q901.687 298.153 903.493 298.593 Q905.299 299.032 907.035 299.032 Q911.664 299.032 914.095 295.931 Q916.548 292.806 916.896 286.463 Q915.553 288.454 913.493 289.519 Q911.433 290.583 908.933 290.583 Q903.748 290.583 900.715 287.458 Q897.706 284.31 897.706 278.87 Q897.706 273.546 900.854 270.329 Q904.002 267.111 909.234 267.111 Q915.229 267.111 918.377 271.718 Q921.548 276.301 921.548 285.051 Q921.548 293.222 917.66 298.106 Q913.794 302.968 907.243 302.968 Q905.484 302.968 903.678 302.62 Q901.873 302.273 899.928 301.579 M909.234 286.926 Q912.382 286.926 914.211 284.773 Q916.062 282.62 916.062 278.87 Q916.062 275.144 914.211 272.991 Q912.382 270.815 909.234 270.815 Q906.086 270.815 904.234 272.991 Q902.405 275.144 902.405 278.87 Q902.405 282.62 904.234 284.773 Q906.086 286.926 909.234 286.926 Z" fill="#000000" fill-rule="nonzero" fill-opacity="1" /><path clip-path="url(#clip170)" d="M929.997 267.736 L948.354 267.736 L948.354 271.671 L934.28 271.671 L934.28 280.144 Q935.298 279.796 936.317 279.634 Q937.335 279.449 938.354 279.449 Q944.141 279.449 947.521 282.62 Q950.9 285.792 950.9 291.208 Q950.9 296.787 947.428 299.889 Q943.956 302.968 937.636 302.968 Q935.46 302.968 933.192 302.597 Q930.947 302.227 928.539 301.486 L928.539 296.787 Q930.622 297.921 932.845 298.477 Q935.067 299.032 937.544 299.032 Q941.548 299.032 943.886 296.926 Q946.224 294.819 946.224 291.208 Q946.224 287.597 943.886 285.491 Q941.548 283.384 937.544 283.384 Q935.669 283.384 933.794 283.801 Q931.942 284.218 929.997 285.097 L929.997 267.736 Z" fill="#000000" fill-rule="nonzero" fill-opacity="1" /><path clip-path="url(#clip170)" d="M989.511 287.088 Q987.497 287.088 986.34 288.801 Q985.206 290.514 985.206 293.569 Q985.206 296.579 986.34 298.315 Q987.497 300.028 989.511 300.028 Q991.479 300.028 992.613 298.315 Q993.77 296.579 993.77 293.569 Q993.77 290.537 992.613 288.824 Q991.479 287.088 989.511 287.088 M989.511 284.148 Q993.168 284.148 995.321 286.695 Q997.474 289.241 997.474 293.569 Q997.474 297.898 995.298 300.444 Q993.145 302.968 989.511 302.968 Q985.807 302.968 983.655 300.444 Q981.502 297.898 981.502 293.569 Q981.502 289.218 983.655 286.695 Q985.831 284.148 989.511 284.148 M965.622 270.051 Q963.632 270.051 962.474 271.787 Q961.34 273.5 961.34 276.509 Q961.34 279.565 962.474 281.278 Q963.608 282.991 965.622 282.991 Q967.636 282.991 968.77 281.278 Q969.928 279.565 969.928 276.509 Q969.928 273.523 968.77 271.787 Q967.613 270.051 965.622 270.051 M986.525 267.111 L990.229 267.111 L968.608 302.968 L964.905 302.968 L986.525 267.111 M965.622 267.111 Q969.28 267.111 971.456 269.658 Q973.631 272.181 973.631 276.509 Q973.631 280.884 971.456 283.408 Q969.303 285.931 965.622 285.931 Q961.942 285.931 959.789 283.408 Q957.659 280.861 957.659 276.509 Q957.659 272.204 959.812 269.658 Q961.965 267.111 965.622 267.111 Z" fill="#000000" fill-rule="nonzero" fill-opacity="1" /><path clip-path="url(#clip170)" d="M1045.69 270.398 L1045.69 275.329 Q1043.33 273.13 1040.65 272.042 Q1037.98 270.954 1034.97 270.954 Q1029.05 270.954 1025.9 274.588 Q1022.75 278.199 1022.75 285.051 Q1022.75 291.88 1025.9 295.514 Q1029.05 299.125 1034.97 299.125 Q1037.98 299.125 1040.65 298.037 Q1043.33 296.949 1045.69 294.75 L1045.69 299.634 Q1043.24 301.301 1040.48 302.134 Q1037.75 302.968 1034.7 302.968 Q1026.85 302.968 1022.33 298.176 Q1017.82 293.361 1017.82 285.051 Q1017.82 276.718 1022.33 271.926 Q1026.85 267.111 1034.7 267.111 Q1037.8 267.111 1040.53 267.945 Q1043.28 268.755 1045.69 270.398 Z" fill="#000000" fill-rule="nonzero" fill-opacity="1" /><path clip-path="url(#clip170)" d="M1052.91 267.736 L1057.59 267.736 L1057.59 302.296 L1052.91 302.296 L1052.91 267.736 Z" fill="#000000" fill-rule="nonzero" fill-opacity="1" /><path clip-path="url(#clip170)" d="M1066.04 266.324 L1069.74 266.324 Q1073.21 271.787 1074.93 277.019 Q1076.66 282.25 1076.66 287.412 Q1076.66 292.597 1074.93 297.852 Q1073.21 303.106 1069.74 308.546 L1066.04 308.546 Q1069.12 303.245 1070.62 298.014 Q1072.15 292.759 1072.15 287.412 Q1072.15 282.065 1070.62 276.857 Q1069.12 271.648 1066.04 266.324 Z" fill="#000000" fill-rule="nonzero" fill-opacity="1" /><polyline clip-path="url(#clip170)" style="stroke:#228b22; stroke-linecap:round; stroke-linejoin:round; stroke-width:4; stroke-opacity:1; fill:none" stroke-dasharray="16, 10" points="291.01,336.856 454.946,336.856 "/>
<path clip-path="url(#clip170)" d="M482.268 319.576 L486.944 319.576 L486.944 333.743 L503.935 333.743 L503.935 319.576 L508.611 319.576 L508.611 354.136 L503.935 354.136 L503.935 337.678 L486.944 337.678 L486.944 354.136 L482.268 354.136 L482.268 319.576 Z" fill="#000000" fill-rule="nonzero" fill-opacity="1" /><path clip-path="url(#clip170)" d="M543.032 318.164 Q539.93 323.488 538.425 328.697 Q536.921 333.905 536.921 339.252 Q536.921 344.599 538.425 349.854 Q539.953 355.085 543.032 360.386 L539.328 360.386 Q535.856 354.946 534.12 349.692 Q532.407 344.437 532.407 339.252 Q532.407 334.09 534.12 328.859 Q535.833 323.627 539.328 318.164 L543.032 318.164 Z" fill="#000000" fill-rule="nonzero" fill-opacity="1" /><path clip-path="url(#clip170)" d="M555.509 320.849 L555.509 328.211 L564.282 328.211 L564.282 331.521 L555.509 331.521 L555.509 345.595 Q555.509 348.766 556.365 349.669 Q557.245 350.571 559.907 350.571 L564.282 350.571 L564.282 354.136 L559.907 354.136 Q554.976 354.136 553.101 352.308 Q551.226 350.456 551.226 345.595 L551.226 331.521 L548.101 331.521 L548.101 328.211 L551.226 328.211 L551.226 320.849 L555.509 320.849 Z" fill="#000000" fill-rule="nonzero" fill-opacity="1" /><path clip-path="url(#clip170)" d="M584.907 332.192 Q584.189 331.775 583.333 331.59 Q582.499 331.382 581.481 331.382 Q577.87 331.382 575.925 333.743 Q574.004 336.081 574.004 340.479 L574.004 354.136 L569.722 354.136 L569.722 328.211 L574.004 328.211 L574.004 332.238 Q575.347 329.877 577.499 328.743 Q579.652 327.586 582.731 327.586 Q583.171 327.586 583.703 327.655 Q584.235 327.701 584.884 327.817 L584.907 332.192 Z" fill="#000000" fill-rule="nonzero" fill-opacity="1" /><path clip-path="url(#clip170)" d="M588.934 343.905 L588.934 328.211 L593.194 328.211 L593.194 343.743 Q593.194 347.423 594.629 349.275 Q596.064 351.104 598.934 351.104 Q602.383 351.104 604.374 348.905 Q606.388 346.706 606.388 342.909 L606.388 328.211 L610.647 328.211 L610.647 354.136 L606.388 354.136 L606.388 350.155 Q604.837 352.516 602.777 353.673 Q600.74 354.808 598.032 354.808 Q593.564 354.808 591.249 352.03 Q588.934 349.252 588.934 343.905 M599.652 327.586 L599.652 327.586 Z" fill="#000000" fill-rule="nonzero" fill-opacity="1" /><path clip-path="url(#clip170)" d="M641.596 340.109 L641.596 342.192 L622.013 342.192 Q622.291 346.59 624.652 348.905 Q627.036 351.196 631.272 351.196 Q633.726 351.196 636.018 350.595 Q638.332 349.993 640.601 348.789 L640.601 352.817 Q638.309 353.789 635.902 354.298 Q633.494 354.808 631.018 354.808 Q624.814 354.808 621.18 351.196 Q617.569 347.585 617.569 341.428 Q617.569 335.062 620.994 331.335 Q624.444 327.586 630.277 327.586 Q635.508 327.586 638.541 330.965 Q641.596 334.322 641.596 340.109 M637.337 338.859 Q637.291 335.363 635.369 333.28 Q633.471 331.197 630.323 331.197 Q626.758 331.197 624.606 333.21 Q622.476 335.224 622.152 338.882 L637.337 338.859 Z" fill="#000000" fill-rule="nonzero" fill-opacity="1" /><path clip-path="url(#clip170)" d="M647.916 318.164 L651.619 318.164 Q655.092 323.627 656.804 328.859 Q658.541 334.09 658.541 339.252 Q658.541 344.437 656.804 349.692 Q655.092 354.946 651.619 360.386 L647.916 360.386 Q650.994 355.085 652.499 349.854 Q654.027 344.599 654.027 339.252 Q654.027 333.905 652.499 328.697 Q650.994 323.488 647.916 318.164 Z" fill="#000000" fill-rule="nonzero" fill-opacity="1" /><polyline clip-path="url(#clip170)" style="stroke:#ff8c00; stroke-linecap:round; stroke-linejoin:round; stroke-width:4; stroke-opacity:1; fill:none" stroke-dasharray="16, 10" points="291.01,388.696 454.946,388.696 "/>
<path clip-path="url(#clip170)" d="M486.944 375.259 L486.944 388.245 L492.824 388.245 Q496.088 388.245 497.87 386.555 Q499.653 384.865 499.653 381.74 Q499.653 378.638 497.87 376.949 Q496.088 375.259 492.824 375.259 L486.944 375.259 M482.268 371.416 L492.824 371.416 Q498.634 371.416 501.597 374.055 Q504.583 376.671 504.583 381.74 Q504.583 386.856 501.597 389.472 Q498.634 392.087 492.824 392.087 L486.944 392.087 L486.944 405.976 L482.268 405.976 L482.268 371.416 Z" fill="#000000" fill-rule="nonzero" fill-opacity="1" /><path clip-path="url(#clip170)" d="M535.972 370.004 Q532.87 375.328 531.365 380.537 Q529.861 385.745 529.861 391.092 Q529.861 396.439 531.365 401.694 Q532.893 406.925 535.972 412.226 L532.268 412.226 Q528.796 406.786 527.06 401.532 Q525.347 396.277 525.347 391.092 Q525.347 385.93 527.06 380.699 Q528.773 375.467 532.268 370.004 L535.972 370.004 Z" fill="#000000" fill-rule="nonzero" fill-opacity="1" /><path clip-path="url(#clip170)" d="M548.449 372.689 L548.449 380.051 L557.222 380.051 L557.222 383.361 L548.449 383.361 L548.449 397.435 Q548.449 400.606 549.305 401.509 Q550.185 402.411 552.847 402.411 L557.222 402.411 L557.222 405.976 L552.847 405.976 Q547.916 405.976 546.041 404.148 Q544.166 402.296 544.166 397.435 L544.166 383.361 L541.041 383.361 L541.041 380.051 L544.166 380.051 L544.166 372.689 L548.449 372.689 Z" fill="#000000" fill-rule="nonzero" fill-opacity="1" /><path clip-path="url(#clip170)" d="M577.847 384.032 Q577.129 383.615 576.273 383.43 Q575.439 383.222 574.421 383.222 Q570.81 383.222 568.865 385.583 Q566.944 387.921 566.944 392.319 L566.944 405.976 L562.661 405.976 L562.661 380.051 L566.944 380.051 L566.944 384.078 Q568.286 381.717 570.439 380.583 Q572.592 379.426 575.671 379.426 Q576.11 379.426 576.643 379.495 Q577.175 379.541 577.823 379.657 L577.847 384.032 Z" fill="#000000" fill-rule="nonzero" fill-opacity="1" /><path clip-path="url(#clip170)" d="M581.874 395.745 L581.874 380.051 L586.134 380.051 L586.134 395.583 Q586.134 399.263 587.569 401.115 Q589.004 402.944 591.874 402.944 Q595.323 402.944 597.314 400.745 Q599.328 398.546 599.328 394.749 L599.328 380.051 L603.587 380.051 L603.587 405.976 L599.328 405.976 L599.328 401.995 Q597.777 404.356 595.717 405.513 Q593.68 406.648 590.972 406.648 Q586.504 406.648 584.189 403.87 Q581.874 401.092 581.874 395.745 M592.592 379.426 L592.592 379.426 Z" fill="#000000" fill-rule="nonzero" fill-opacity="1" /><path clip-path="url(#clip170)" d="M634.536 391.949 L634.536 394.032 L614.953 394.032 Q615.231 398.43 617.592 400.745 Q619.976 403.036 624.212 403.036 Q626.666 403.036 628.957 402.435 Q631.272 401.833 633.541 400.629 L633.541 404.657 Q631.249 405.629 628.842 406.138 Q626.434 406.648 623.957 406.648 Q617.754 406.648 614.12 403.036 Q610.508 399.425 610.508 393.268 Q610.508 386.902 613.934 383.175 Q617.383 379.426 623.217 379.426 Q628.448 379.426 631.481 382.805 Q634.536 386.162 634.536 391.949 M630.277 390.699 Q630.231 387.203 628.309 385.12 Q626.411 383.037 623.263 383.037 Q619.698 383.037 617.545 385.05 Q615.416 387.064 615.092 390.722 L630.277 390.699 Z" fill="#000000" fill-rule="nonzero" fill-opacity="1" /><path clip-path="url(#clip170)" d="M640.856 370.004 L644.559 370.004 Q648.031 375.467 649.744 380.699 Q651.48 385.93 651.48 391.092 Q651.48 396.277 649.744 401.532 Q648.031 406.786 644.559 412.226 L640.856 412.226 Q643.934 406.925 645.439 401.694 Q646.967 396.439 646.967 391.092 Q646.967 385.745 645.439 380.537 Q643.934 375.328 640.856 370.004 Z" fill="#000000" fill-rule="nonzero" fill-opacity="1" /><circle clip-path="url(#clip170)" cx="372.978" cy="440.536" r="19.7486" fill="#228b22" fill-rule="evenodd" fill-opacity="0.5" stroke="#000000" stroke-opacity="0.5" stroke-width="7.02171"/>
<path clip-path="url(#clip170)" d="M482.268 423.256 L486.944 423.256 L486.944 437.423 L503.935 437.423 L503.935 423.256 L508.611 423.256 L508.611 457.816 L503.935 457.816 L503.935 441.358 L486.944 441.358 L486.944 457.816 L482.268 457.816 L482.268 423.256 Z" fill="#000000" fill-rule="nonzero" fill-opacity="1" /><path clip-path="url(#clip170)" d="M543.032 421.844 Q539.93 427.168 538.425 432.377 Q536.921 437.585 536.921 442.932 Q536.921 448.279 538.425 453.534 Q539.953 458.765 543.032 464.066 L539.328 464.066 Q535.856 458.626 534.12 453.372 Q532.407 448.117 532.407 442.932 Q532.407 437.77 534.12 432.539 Q535.833 427.307 539.328 421.844 L543.032 421.844 Z" fill="#000000" fill-rule="nonzero" fill-opacity="1" /><path clip-path="url(#clip170)" d="M568.356 435.826 L568.356 421.798 L572.615 421.798 L572.615 457.816 L568.356 457.816 L568.356 453.927 Q567.013 456.242 564.953 457.376 Q562.916 458.488 560.046 458.488 Q555.347 458.488 552.384 454.738 Q549.444 450.988 549.444 444.877 Q549.444 438.765 552.384 435.015 Q555.347 431.266 560.046 431.266 Q562.916 431.266 564.953 432.4 Q567.013 433.511 568.356 435.826 M553.842 444.877 Q553.842 449.576 555.763 452.261 Q557.708 454.923 561.087 454.923 Q564.467 454.923 566.411 452.261 Q568.356 449.576 568.356 444.877 Q568.356 440.177 566.411 437.515 Q564.467 434.83 561.087 434.83 Q557.708 434.83 555.763 437.515 Q553.842 440.177 553.842 444.877 Z" fill="#000000" fill-rule="nonzero" fill-opacity="1" /><path clip-path="url(#clip170)" d="M593.171 444.784 Q588.009 444.784 586.018 445.964 Q584.027 447.145 584.027 449.992 Q584.027 452.261 585.509 453.603 Q587.013 454.923 589.583 454.923 Q593.124 454.923 595.254 452.423 Q597.407 449.9 597.407 445.733 L597.407 444.784 L593.171 444.784 M601.666 443.025 L601.666 457.816 L597.407 457.816 L597.407 453.881 Q595.948 456.242 593.772 457.376 Q591.597 458.488 588.448 458.488 Q584.467 458.488 582.106 456.265 Q579.768 454.02 579.768 450.27 Q579.768 445.895 582.685 443.673 Q585.624 441.451 591.434 441.451 L597.407 441.451 L597.407 441.034 Q597.407 438.094 595.462 436.497 Q593.541 434.877 590.046 434.877 Q587.823 434.877 585.717 435.409 Q583.61 435.941 581.666 437.006 L581.666 433.071 Q584.004 432.168 586.203 431.728 Q588.402 431.266 590.485 431.266 Q596.11 431.266 598.888 434.182 Q601.666 437.099 601.666 443.025 Z" fill="#000000" fill-rule="nonzero" fill-opacity="1" /><path clip-path="url(#clip170)" d="M614.652 424.529 L614.652 431.891 L623.425 431.891 L623.425 435.201 L614.652 435.201 L614.652 449.275 Q614.652 452.446 615.508 453.349 Q616.388 454.251 619.05 454.251 L623.425 454.251 L623.425 457.816 L619.05 457.816 Q614.12 457.816 612.245 455.988 Q610.37 454.136 610.37 449.275 L610.37 435.201 L607.245 435.201 L607.245 431.891 L610.37 431.891 L610.37 424.529 L614.652 424.529 Z" fill="#000000" fill-rule="nonzero" fill-opacity="1" /><path clip-path="url(#clip170)" d="M640.809 444.784 Q635.647 444.784 633.656 445.964 Q631.666 447.145 631.666 449.992 Q631.666 452.261 633.147 453.603 Q634.652 454.923 637.221 454.923 Q640.763 454.923 642.893 452.423 Q645.045 449.9 645.045 445.733 L645.045 444.784 L640.809 444.784 M649.305 443.025 L649.305 457.816 L645.045 457.816 L645.045 453.881 Q643.587 456.242 641.411 457.376 Q639.235 458.488 636.087 458.488 Q632.106 458.488 629.744 456.265 Q627.406 454.02 627.406 450.27 Q627.406 445.895 630.323 443.673 Q633.263 441.451 639.073 441.451 L645.045 441.451 L645.045 441.034 Q645.045 438.094 643.101 436.497 Q641.18 434.877 637.684 434.877 Q635.462 434.877 633.356 435.409 Q631.249 435.941 629.305 437.006 L629.305 433.071 Q631.643 432.168 633.842 431.728 Q636.041 431.266 638.124 431.266 Q643.749 431.266 646.527 434.182 Q649.305 437.099 649.305 443.025 Z" fill="#000000" fill-rule="nonzero" fill-opacity="1" /><path clip-path="url(#clip170)" d="M657.406 421.844 L661.11 421.844 Q664.582 427.307 666.295 432.539 Q668.031 437.77 668.031 442.932 Q668.031 448.117 666.295 453.372 Q664.582 458.626 661.11 464.066 L657.406 464.066 Q660.485 458.765 661.99 453.534 Q663.517 448.279 663.517 442.932 Q663.517 437.585 661.99 432.377 Q660.485 427.168 657.406 421.844 Z" fill="#000000" fill-rule="nonzero" fill-opacity="1" /></svg>
