<?xml version="1.0" encoding="utf-8"?>
<svg xmlns="http://www.w3.org/2000/svg" xmlns:xlink="http://www.w3.org/1999/xlink" width="672" height="480" viewBox="0 0 2688 1920">
<defs>
  <clipPath id="clip740">
    <rect x="0" y="0" width="2688" height="1920"/>
  </clipPath>
</defs>
<path clip-path="url(#clip740)" d="M0 1920 L2688 1920 L2688 -4.26326e-14 L0 -4.26326e-14  Z" fill="#ffffff" fill-rule="evenodd" fill-opacity="1"/>
<defs>
  <clipPath id="clip741">
    <rect x="238" y="127" width="2403" height="1607"/>
  </clipPath>
</defs>
<path clip-path="url(#clip740)" d="M238.664 1734.12 L2640.76 1734.12 L2640.76 127.792 L238.664 127.792  Z" fill="#ffffff" fill-rule="evenodd" fill-opacity="1"/>
<polyline clip-path="url(#clip741)" style="stroke:#000000; stroke-linecap:round; stroke-linejoin:round; stroke-width:2; stroke-opacity:0.1; fill:none" points="684.335,1734.12 684.335,127.792 "/>
<polyline clip-path="url(#clip741)" style="stroke:#000000; stroke-linecap:round; stroke-linejoin:round; stroke-width:2; stroke-opacity:0.1; fill:none" points="1187.92,1734.12 1187.92,127.792 "/>
<polyline clip-path="url(#clip741)" style="stroke:#000000; stroke-linecap:round; stroke-linejoin:round; stroke-width:2; stroke-opacity:0.1; fill:none" points="1691.5,1734.12 1691.5,127.792 "/>
<polyline clip-path="url(#clip741)" style="stroke:#000000; stroke-linecap:round; stroke-linejoin:round; stroke-width:2; stroke-opacity:0.1; fill:none" points="2195.08,1734.12 2195.08,127.792 "/>
<polyline clip-path="url(#clip741)" style="stroke:#000000; stroke-linecap:round; stroke-linejoin:round; stroke-width:2; stroke-opacity:0.1; fill:none" points="238.664,1706.74 2640.76,1706.74 "/>
<polyline clip-path="url(#clip741)" style="stroke:#000000; stroke-linecap:round; stroke-linejoin:round; stroke-width:2; stroke-opacity:0.1; fill:none" points="238.664,1204.45 2640.76,1204.45 "/>
<polyline clip-path="url(#clip741)" style="stroke:#000000; stroke-linecap:round; stroke-linejoin:round; stroke-width:2; stroke-opacity:0.1; fill:none" points="238.664,702.163 2640.76,702.163 "/>
<polyline clip-path="url(#clip741)" style="stroke:#000000; stroke-linecap:round; stroke-linejoin:round; stroke-width:2; stroke-opacity:0.1; fill:none" points="238.664,199.875 2640.76,199.875 "/>
<polyline clip-path="url(#clip740)" style="stroke:#000000; stroke-linecap:round; stroke-linejoin:round; stroke-width:4; stroke-opacity:1; fill:none" points="238.664,1734.12 2640.76,1734.12 "/>
<polyline clip-path="url(#clip740)" style="stroke:#000000; stroke-linecap:round; stroke-linejoin:round; stroke-width:4; stroke-opacity:1; fill:none" points="684.335,1734.12 684.335,1715.22 "/>
<polyline clip-path="url(#clip740)" style="stroke:#000000; stroke-linecap:round; stroke-linejoin:round; stroke-width:4; stroke-opacity:1; fill:none" points="1187.92,1734.12 1187.92,1715.22 "/>
<polyline clip-path="url(#clip740)" style="stroke:#000000; stroke-linecap:round; stroke-linejoin:round; stroke-width:4; stroke-opacity:1; fill:none" points="1691.5,1734.12 1691.5,1715.22 "/>
<polyline clip-path="url(#clip740)" style="stroke:#000000; stroke-linecap:round; stroke-linejoin:round; stroke-width:4; stroke-opacity:1; fill:none" points="2195.08,1734.12 2195.08,1715.22 "/>
<path clip-path="url(#clip740)" d="M628.861 1794.89 L636.499 1794.89 L636.499 1768.52 L628.189 1770.19 L628.189 1765.93 L636.453 1764.26 L641.129 1764.26 L641.129 1794.89 L648.768 1794.89 L648.768 1798.82 L628.861 1798.82 L628.861 1794.89 Z" fill="#000000" fill-rule="nonzero" fill-opacity="1" /><path clip-path="url(#clip740)" d="M668.212 1782.41 Q664.879 1782.41 662.958 1784.19 Q661.06 1785.97 661.06 1789.1 Q661.06 1792.22 662.958 1794.01 Q664.879 1795.79 668.212 1795.79 Q671.546 1795.79 673.467 1794.01 Q675.388 1792.2 675.388 1789.1 Q675.388 1785.97 673.467 1784.19 Q671.569 1782.41 668.212 1782.41 M663.536 1780.42 Q660.527 1779.68 658.837 1777.62 Q657.171 1775.56 657.171 1772.59 Q657.171 1768.45 660.11 1766.04 Q663.073 1763.64 668.212 1763.64 Q673.374 1763.64 676.314 1766.04 Q679.254 1768.45 679.254 1772.59 Q679.254 1775.56 677.564 1777.62 Q675.897 1779.68 672.911 1780.42 Q676.291 1781.21 678.166 1783.5 Q680.064 1785.79 680.064 1789.1 Q680.064 1794.12 676.985 1796.81 Q673.93 1799.49 668.212 1799.49 Q662.495 1799.49 659.416 1796.81 Q656.36 1794.12 656.36 1789.1 Q656.36 1785.79 658.259 1783.5 Q660.157 1781.21 663.536 1780.42 M661.823 1773.03 Q661.823 1775.72 663.49 1777.22 Q665.18 1778.73 668.212 1778.73 Q671.221 1778.73 672.911 1777.22 Q674.624 1775.72 674.624 1773.03 Q674.624 1770.35 672.911 1768.84 Q671.221 1767.34 668.212 1767.34 Q665.18 1767.34 663.49 1768.84 Q661.823 1770.35 661.823 1773.03 Z" fill="#000000" fill-rule="nonzero" fill-opacity="1" /><path clip-path="url(#clip740)" d="M698.953 1779.68 Q695.805 1779.68 693.953 1781.83 Q692.124 1783.98 692.124 1787.73 Q692.124 1791.46 693.953 1793.64 Q695.805 1795.79 698.953 1795.79 Q702.101 1795.79 703.93 1793.64 Q705.781 1791.46 705.781 1787.73 Q705.781 1783.98 703.93 1781.83 Q702.101 1779.68 698.953 1779.68 M708.235 1765.02 L708.235 1769.28 Q706.476 1768.45 704.67 1768.01 Q702.888 1767.57 701.129 1767.57 Q696.499 1767.57 694.045 1770.7 Q691.615 1773.82 691.268 1780.14 Q692.633 1778.13 694.694 1777.06 Q696.754 1775.97 699.231 1775.97 Q704.439 1775.97 707.448 1779.15 Q710.481 1782.29 710.481 1787.73 Q710.481 1793.06 707.332 1796.27 Q704.184 1799.49 698.953 1799.49 Q692.957 1799.49 689.786 1794.91 Q686.615 1790.3 686.615 1781.58 Q686.615 1773.38 690.504 1768.52 Q694.393 1763.64 700.944 1763.64 Q702.703 1763.64 704.485 1763.98 Q706.291 1764.33 708.235 1765.02 Z" fill="#000000" fill-rule="nonzero" fill-opacity="1" /><path clip-path="url(#clip740)" d="M728.536 1767.34 Q724.925 1767.34 723.096 1770.9 Q721.291 1774.45 721.291 1781.58 Q721.291 1788.68 723.096 1792.25 Q724.925 1795.79 728.536 1795.79 Q732.17 1795.79 733.976 1792.25 Q735.804 1788.68 735.804 1781.58 Q735.804 1774.45 733.976 1770.9 Q732.17 1767.34 728.536 1767.34 M728.536 1763.64 Q734.346 1763.64 737.402 1768.24 Q740.48 1772.83 740.48 1781.58 Q740.48 1790.3 737.402 1794.91 Q734.346 1799.49 728.536 1799.49 Q722.726 1799.49 719.647 1794.91 Q716.592 1790.3 716.592 1781.58 Q716.592 1772.83 719.647 1768.24 Q722.726 1763.64 728.536 1763.64 Z" fill="#000000" fill-rule="nonzero" fill-opacity="1" /><path clip-path="url(#clip740)" d="M1132.44 1794.89 L1140.08 1794.89 L1140.08 1768.52 L1131.77 1770.19 L1131.77 1765.93 L1140.04 1764.26 L1144.71 1764.26 L1144.71 1794.89 L1152.35 1794.89 L1152.35 1798.82 L1132.44 1798.82 L1132.44 1794.89 Z" fill="#000000" fill-rule="nonzero" fill-opacity="1" /><path clip-path="url(#clip740)" d="M1171.8 1782.41 Q1168.46 1782.41 1166.54 1784.19 Q1164.64 1785.97 1164.64 1789.1 Q1164.64 1792.22 1166.54 1794.01 Q1168.46 1795.79 1171.8 1795.79 Q1175.13 1795.79 1177.05 1794.01 Q1178.97 1792.2 1178.97 1789.1 Q1178.97 1785.97 1177.05 1784.19 Q1175.15 1782.41 1171.8 1782.41 M1167.12 1780.42 Q1164.11 1779.68 1162.42 1777.62 Q1160.75 1775.56 1160.75 1772.59 Q1160.75 1768.45 1163.69 1766.04 Q1166.66 1763.64 1171.8 1763.64 Q1176.96 1763.64 1179.9 1766.04 Q1182.84 1768.45 1182.84 1772.59 Q1182.84 1775.56 1181.15 1777.62 Q1179.48 1779.68 1176.49 1780.42 Q1179.87 1781.21 1181.75 1783.5 Q1183.65 1785.79 1183.65 1789.1 Q1183.65 1794.12 1180.57 1796.81 Q1177.51 1799.49 1171.8 1799.49 Q1166.08 1799.49 1163 1796.81 Q1159.94 1794.12 1159.94 1789.1 Q1159.94 1785.79 1161.84 1783.5 Q1163.74 1781.21 1167.12 1780.42 M1165.41 1773.03 Q1165.41 1775.72 1167.07 1777.22 Q1168.76 1778.73 1171.8 1778.73 Q1174.8 1778.73 1176.49 1777.22 Q1178.21 1775.72 1178.21 1773.03 Q1178.21 1770.35 1176.49 1768.84 Q1174.8 1767.34 1171.8 1767.34 Q1168.76 1767.34 1167.07 1768.84 Q1165.41 1770.35 1165.41 1773.03 Z" fill="#000000" fill-rule="nonzero" fill-opacity="1" /><path clip-path="url(#clip740)" d="M1201.96 1782.41 Q1198.62 1782.41 1196.7 1784.19 Q1194.8 1785.97 1194.8 1789.1 Q1194.8 1792.22 1196.7 1794.01 Q1198.62 1795.79 1201.96 1795.79 Q1205.29 1795.79 1207.21 1794.01 Q1209.13 1792.2 1209.13 1789.1 Q1209.13 1785.97 1207.21 1784.19 Q1205.31 1782.41 1201.96 1782.41 M1197.28 1780.42 Q1194.27 1779.68 1192.58 1777.62 Q1190.92 1775.56 1190.92 1772.59 Q1190.92 1768.45 1193.86 1766.04 Q1196.82 1763.64 1201.96 1763.64 Q1207.12 1763.64 1210.06 1766.04 Q1213 1768.45 1213 1772.59 Q1213 1775.56 1211.31 1777.62 Q1209.64 1779.68 1206.66 1780.42 Q1210.04 1781.21 1211.91 1783.5 Q1213.81 1785.79 1213.81 1789.1 Q1213.81 1794.12 1210.73 1796.81 Q1207.67 1799.49 1201.96 1799.49 Q1196.24 1799.49 1193.16 1796.81 Q1190.11 1794.12 1190.11 1789.1 Q1190.11 1785.79 1192 1783.5 Q1193.9 1781.21 1197.28 1780.42 M1195.57 1773.03 Q1195.57 1775.72 1197.24 1777.22 Q1198.93 1778.73 1201.96 1778.73 Q1204.97 1778.73 1206.66 1777.22 Q1208.37 1775.72 1208.37 1773.03 Q1208.37 1770.35 1206.66 1768.84 Q1204.97 1767.34 1201.96 1767.34 Q1198.93 1767.34 1197.24 1768.84 Q1195.57 1770.35 1195.57 1773.03 Z" fill="#000000" fill-rule="nonzero" fill-opacity="1" /><path clip-path="url(#clip740)" d="M1232.12 1767.34 Q1228.51 1767.34 1226.68 1770.9 Q1224.87 1774.45 1224.87 1781.58 Q1224.87 1788.68 1226.68 1792.25 Q1228.51 1795.79 1232.12 1795.79 Q1235.75 1795.79 1237.56 1792.25 Q1239.39 1788.68 1239.39 1781.58 Q1239.39 1774.45 1237.56 1770.9 Q1235.75 1767.34 1232.12 1767.34 M1232.12 1763.64 Q1237.93 1763.64 1240.98 1768.24 Q1244.06 1772.83 1244.06 1781.58 Q1244.06 1790.3 1240.98 1794.91 Q1237.93 1799.49 1232.12 1799.49 Q1226.31 1799.49 1223.23 1794.91 Q1220.17 1790.3 1220.17 1781.58 Q1220.17 1772.83 1223.23 1768.24 Q1226.31 1763.64 1232.12 1763.64 Z" fill="#000000" fill-rule="nonzero" fill-opacity="1" /><path clip-path="url(#clip740)" d="M1636.03 1794.89 L1643.67 1794.89 L1643.67 1768.52 L1635.36 1770.19 L1635.36 1765.93 L1643.62 1764.26 L1648.3 1764.26 L1648.3 1794.89 L1655.93 1794.89 L1655.93 1798.82 L1636.03 1798.82 L1636.03 1794.89 Z" fill="#000000" fill-rule="nonzero" fill-opacity="1" /><path clip-path="url(#clip740)" d="M1665.52 1798.1 L1665.52 1793.84 Q1667.28 1794.68 1669.08 1795.12 Q1670.89 1795.56 1672.62 1795.56 Q1677.25 1795.56 1679.68 1792.46 Q1682.14 1789.33 1682.49 1782.99 Q1681.14 1784.98 1679.08 1786.04 Q1677.02 1787.11 1674.52 1787.11 Q1669.34 1787.11 1666.3 1783.98 Q1663.3 1780.83 1663.3 1775.4 Q1663.3 1770.07 1666.44 1766.85 Q1669.59 1763.64 1674.82 1763.64 Q1680.82 1763.64 1683.97 1768.24 Q1687.14 1772.83 1687.14 1781.58 Q1687.14 1789.75 1683.25 1794.63 Q1679.38 1799.49 1672.83 1799.49 Q1671.07 1799.49 1669.27 1799.15 Q1667.46 1798.8 1665.52 1798.1 M1674.82 1783.45 Q1677.97 1783.45 1679.8 1781.3 Q1681.65 1779.15 1681.65 1775.4 Q1681.65 1771.67 1679.8 1769.52 Q1677.97 1767.34 1674.82 1767.34 Q1671.68 1767.34 1669.82 1769.52 Q1667.99 1771.67 1667.99 1775.4 Q1667.99 1779.15 1669.82 1781.3 Q1671.68 1783.45 1674.82 1783.45 Z" fill="#000000" fill-rule="nonzero" fill-opacity="1" /><path clip-path="url(#clip740)" d="M1705.54 1767.34 Q1701.93 1767.34 1700.1 1770.9 Q1698.3 1774.45 1698.3 1781.58 Q1698.3 1788.68 1700.1 1792.25 Q1701.93 1795.79 1705.54 1795.79 Q1709.17 1795.79 1710.98 1792.25 Q1712.81 1788.68 1712.81 1781.58 Q1712.81 1774.45 1710.98 1770.9 Q1709.17 1767.34 1705.54 1767.34 M1705.54 1763.64 Q1711.35 1763.64 1714.41 1768.24 Q1717.49 1772.83 1717.49 1781.58 Q1717.49 1790.3 1714.41 1794.91 Q1711.35 1799.49 1705.54 1799.49 Q1699.73 1799.49 1696.65 1794.91 Q1693.6 1790.3 1693.6 1781.58 Q1693.6 1772.83 1696.65 1768.24 Q1699.73 1763.64 1705.54 1763.64 Z" fill="#000000" fill-rule="nonzero" fill-opacity="1" /><path clip-path="url(#clip740)" d="M1735.7 1767.34 Q1732.09 1767.34 1730.26 1770.9 Q1728.46 1774.45 1728.46 1781.58 Q1728.46 1788.68 1730.26 1792.25 Q1732.09 1795.79 1735.7 1795.79 Q1739.34 1795.79 1741.14 1792.25 Q1742.97 1788.68 1742.97 1781.58 Q1742.97 1774.45 1741.14 1770.9 Q1739.34 1767.34 1735.7 1767.34 M1735.7 1763.64 Q1741.51 1763.64 1744.57 1768.24 Q1747.65 1772.83 1747.65 1781.58 Q1747.65 1790.3 1744.57 1794.91 Q1741.51 1799.49 1735.7 1799.49 Q1729.89 1799.49 1726.81 1794.91 Q1723.76 1790.3 1723.76 1781.58 Q1723.76 1772.83 1726.81 1768.24 Q1729.89 1763.64 1735.7 1763.64 Z" fill="#000000" fill-rule="nonzero" fill-opacity="1" /><path clip-path="url(#clip740)" d="M2139.61 1794.89 L2147.25 1794.89 L2147.25 1768.52 L2138.94 1770.19 L2138.94 1765.93 L2147.2 1764.26 L2151.88 1764.26 L2151.88 1794.89 L2159.52 1794.89 L2159.52 1798.82 L2139.61 1798.82 L2139.61 1794.89 Z" fill="#000000" fill-rule="nonzero" fill-opacity="1" /><path clip-path="url(#clip740)" d="M2169.1 1798.1 L2169.1 1793.84 Q2170.86 1794.68 2172.67 1795.12 Q2174.47 1795.56 2176.21 1795.56 Q2180.84 1795.56 2183.27 1792.46 Q2185.72 1789.33 2186.07 1782.99 Q2184.73 1784.98 2182.67 1786.04 Q2180.61 1787.11 2178.11 1787.11 Q2172.92 1787.11 2169.89 1783.98 Q2166.88 1780.83 2166.88 1775.4 Q2166.88 1770.07 2170.03 1766.85 Q2173.18 1763.64 2178.41 1763.64 Q2184.4 1763.64 2187.55 1768.24 Q2190.72 1772.83 2190.72 1781.58 Q2190.72 1789.75 2186.83 1794.63 Q2182.97 1799.49 2176.42 1799.49 Q2174.66 1799.49 2172.85 1799.15 Q2171.05 1798.8 2169.1 1798.1 M2178.41 1783.45 Q2181.55 1783.45 2183.38 1781.3 Q2185.24 1779.15 2185.24 1775.4 Q2185.24 1771.67 2183.38 1769.52 Q2181.55 1767.34 2178.41 1767.34 Q2175.26 1767.34 2173.41 1769.52 Q2171.58 1771.67 2171.58 1775.4 Q2171.58 1779.15 2173.41 1781.3 Q2175.26 1783.45 2178.41 1783.45 Z" fill="#000000" fill-rule="nonzero" fill-opacity="1" /><path clip-path="url(#clip740)" d="M2203.15 1794.89 L2219.47 1794.89 L2219.47 1798.82 L2197.53 1798.82 L2197.53 1794.89 Q2200.19 1792.13 2204.77 1787.5 Q2209.38 1782.85 2210.56 1781.51 Q2212.8 1778.98 2213.68 1777.25 Q2214.59 1775.49 2214.59 1773.8 Q2214.59 1771.04 2212.64 1769.31 Q2210.72 1767.57 2207.62 1767.57 Q2205.42 1767.57 2202.97 1768.34 Q2200.54 1769.1 2197.76 1770.65 L2197.76 1765.93 Q2200.58 1764.79 2203.04 1764.21 Q2205.49 1763.64 2207.53 1763.64 Q2212.9 1763.64 2216.09 1766.32 Q2219.29 1769.01 2219.29 1773.5 Q2219.29 1775.63 2218.48 1777.55 Q2217.69 1779.45 2215.58 1782.04 Q2215 1782.71 2211.9 1785.93 Q2208.8 1789.12 2203.15 1794.89 Z" fill="#000000" fill-rule="nonzero" fill-opacity="1" /><path clip-path="url(#clip740)" d="M2239.29 1767.34 Q2235.67 1767.34 2233.85 1770.9 Q2232.04 1774.45 2232.04 1781.58 Q2232.04 1788.68 2233.85 1792.25 Q2235.67 1795.79 2239.29 1795.79 Q2242.92 1795.79 2244.73 1792.25 Q2246.55 1788.68 2246.55 1781.58 Q2246.55 1774.45 2244.73 1770.9 Q2242.92 1767.34 2239.29 1767.34 M2239.29 1763.64 Q2245.1 1763.64 2248.15 1768.24 Q2251.23 1772.83 2251.23 1781.58 Q2251.23 1790.3 2248.15 1794.91 Q2245.1 1799.49 2239.29 1799.49 Q2233.48 1799.49 2230.4 1794.91 Q2227.34 1790.3 2227.34 1781.58 Q2227.34 1772.83 2230.4 1768.24 Q2233.48 1763.64 2239.29 1763.64 Z" fill="#000000" fill-rule="nonzero" fill-opacity="1" /><path clip-path="url(#clip740)" d="M1370.64 1835.78 L1377.55 1835.78 L1390.73 1855.32 L1403.81 1835.78 L1410.71 1835.78 L1393.91 1860.67 L1393.91 1883.3 L1387.45 1883.3 L1387.45 1860.67 L1370.64 1835.78 Z" fill="#000000" fill-rule="nonzero" fill-opacity="1" /><path clip-path="url(#clip740)" d="M1438.56 1864.01 L1438.56 1866.88 L1411.64 1866.88 Q1412.02 1872.92 1415.27 1876.11 Q1418.54 1879.26 1424.37 1879.26 Q1427.74 1879.26 1430.89 1878.43 Q1434.08 1877.6 1437.2 1875.95 L1437.2 1881.49 Q1434.04 1882.82 1430.73 1883.52 Q1427.42 1884.22 1424.02 1884.22 Q1415.49 1884.22 1410.49 1879.26 Q1405.53 1874.29 1405.53 1865.83 Q1405.53 1857.07 1410.24 1851.95 Q1414.98 1846.79 1423 1846.79 Q1430.19 1846.79 1434.36 1851.44 Q1438.56 1856.06 1438.56 1864.01 M1432.71 1862.29 Q1432.64 1857.49 1430 1854.62 Q1427.39 1851.76 1423.06 1851.76 Q1418.16 1851.76 1415.2 1854.53 Q1412.27 1857.3 1411.83 1862.33 L1432.71 1862.29 Z" fill="#000000" fill-rule="nonzero" fill-opacity="1" /><path clip-path="url(#clip740)" d="M1464.38 1865.38 Q1457.28 1865.38 1454.54 1867 Q1451.8 1868.63 1451.8 1872.54 Q1451.8 1875.66 1453.84 1877.51 Q1455.91 1879.32 1459.44 1879.32 Q1464.31 1879.32 1467.24 1875.88 Q1470.2 1872.42 1470.2 1866.69 L1470.2 1865.38 L1464.38 1865.38 M1476.06 1862.96 L1476.06 1883.3 L1470.2 1883.3 L1470.2 1877.89 Q1468.2 1881.14 1465.2 1882.7 Q1462.21 1884.22 1457.88 1884.22 Q1452.41 1884.22 1449.16 1881.17 Q1445.95 1878.08 1445.95 1872.92 Q1445.95 1866.91 1449.96 1863.85 Q1454 1860.8 1461.99 1860.8 L1470.2 1860.8 L1470.2 1860.23 Q1470.2 1856.18 1467.53 1853.99 Q1464.89 1851.76 1460.08 1851.76 Q1457.02 1851.76 1454.13 1852.49 Q1451.23 1853.22 1448.56 1854.69 L1448.56 1849.28 Q1451.77 1848.03 1454.8 1847.43 Q1457.82 1846.79 1460.68 1846.79 Q1468.42 1846.79 1472.24 1850.8 Q1476.06 1854.81 1476.06 1862.96 Z" fill="#000000" fill-rule="nonzero" fill-opacity="1" /><path clip-path="url(#clip740)" d="M1508.78 1853.13 Q1507.79 1852.55 1506.61 1852.3 Q1505.47 1852.01 1504.07 1852.01 Q1499.1 1852.01 1496.43 1855.26 Q1493.79 1858.47 1493.79 1864.52 L1493.79 1883.3 L1487.9 1883.3 L1487.9 1847.65 L1493.79 1847.65 L1493.79 1853.19 Q1495.63 1849.94 1498.59 1848.39 Q1501.55 1846.79 1505.79 1846.79 Q1506.39 1846.79 1507.12 1846.89 Q1507.85 1846.95 1508.75 1847.11 L1508.78 1853.13 Z" fill="#000000" fill-rule="nonzero" fill-opacity="1" /><polyline clip-path="url(#clip740)" style="stroke:#000000; stroke-linecap:round; stroke-linejoin:round; stroke-width:4; stroke-opacity:1; fill:none" points="238.664,1734.12 238.664,127.792 "/>
<polyline clip-path="url(#clip740)" style="stroke:#000000; stroke-linecap:round; stroke-linejoin:round; stroke-width:4; stroke-opacity:1; fill:none" points="238.664,1706.74 257.561,1706.74 "/>
<polyline clip-path="url(#clip740)" style="stroke:#000000; stroke-linecap:round; stroke-linejoin:round; stroke-width:4; stroke-opacity:1; fill:none" points="238.664,1204.45 257.561,1204.45 "/>
<polyline clip-path="url(#clip740)" style="stroke:#000000; stroke-linecap:round; stroke-linejoin:round; stroke-width:4; stroke-opacity:1; fill:none" points="238.664,702.163 257.561,702.163 "/>
<polyline clip-path="url(#clip740)" style="stroke:#000000; stroke-linecap:round; stroke-linejoin:round; stroke-width:4; stroke-opacity:1; fill:none" points="238.664,199.875 257.561,199.875 "/>
<path clip-path="url(#clip740)" d="M186.399 1692.54 Q182.788 1692.54 180.959 1696.1 Q179.154 1699.64 179.154 1706.77 Q179.154 1713.88 180.959 1717.44 Q182.788 1720.98 186.399 1720.98 Q190.033 1720.98 191.839 1717.44 Q193.668 1713.88 193.668 1706.77 Q193.668 1699.64 191.839 1696.1 Q190.033 1692.54 186.399 1692.54 M186.399 1688.83 Q192.209 1688.83 195.265 1693.44 Q198.344 1698.02 198.344 1706.77 Q198.344 1715.5 195.265 1720.11 Q192.209 1724.69 186.399 1724.69 Q180.589 1724.69 177.51 1720.11 Q174.455 1715.5 174.455 1706.77 Q174.455 1698.02 177.51 1693.44 Q180.589 1688.83 186.399 1688.83 Z" fill="#000000" fill-rule="nonzero" fill-opacity="1" /><path clip-path="url(#clip740)" d="M146.284 1187.17 L164.64 1187.17 L164.64 1191.11 L150.566 1191.11 L150.566 1199.58 Q151.585 1199.23 152.603 1199.07 Q153.622 1198.88 154.64 1198.88 Q160.427 1198.88 163.807 1202.05 Q167.186 1205.23 167.186 1210.64 Q167.186 1216.22 163.714 1219.32 Q160.242 1222.4 153.923 1222.4 Q151.747 1222.4 149.478 1222.03 Q147.233 1221.66 144.825 1220.92 L144.825 1216.22 Q146.909 1217.36 149.131 1217.91 Q151.353 1218.47 153.83 1218.47 Q157.835 1218.47 160.173 1216.36 Q162.51 1214.25 162.51 1210.64 Q162.51 1207.03 160.173 1204.92 Q157.835 1202.82 153.83 1202.82 Q151.955 1202.82 150.08 1203.23 Q148.228 1203.65 146.284 1204.53 L146.284 1187.17 Z" fill="#000000" fill-rule="nonzero" fill-opacity="1" /><path clip-path="url(#clip740)" d="M186.399 1190.25 Q182.788 1190.25 180.959 1193.81 Q179.154 1197.36 179.154 1204.48 Q179.154 1211.59 180.959 1215.16 Q182.788 1218.7 186.399 1218.7 Q190.033 1218.7 191.839 1215.16 Q193.668 1211.59 193.668 1204.48 Q193.668 1197.36 191.839 1193.81 Q190.033 1190.25 186.399 1190.25 M186.399 1186.54 Q192.209 1186.54 195.265 1191.15 Q198.344 1195.73 198.344 1204.48 Q198.344 1213.21 195.265 1217.82 Q192.209 1222.4 186.399 1222.4 Q180.589 1222.4 177.51 1217.82 Q174.455 1213.21 174.455 1204.48 Q174.455 1195.73 177.51 1191.15 Q180.589 1186.54 186.399 1186.54 Z" fill="#000000" fill-rule="nonzero" fill-opacity="1" /><path clip-path="url(#clip740)" d="M116.886 715.508 L124.525 715.508 L124.525 689.142 L116.214 690.809 L116.214 686.549 L124.478 684.883 L129.154 684.883 L129.154 715.508 L136.793 715.508 L136.793 719.443 L116.886 719.443 L116.886 715.508 Z" fill="#000000" fill-rule="nonzero" fill-opacity="1" /><path clip-path="url(#clip740)" d="M156.237 687.961 Q152.626 687.961 150.798 691.526 Q148.992 695.068 148.992 702.197 Q148.992 709.304 150.798 712.869 Q152.626 716.41 156.237 716.41 Q159.872 716.41 161.677 712.869 Q163.506 709.304 163.506 702.197 Q163.506 695.068 161.677 691.526 Q159.872 687.961 156.237 687.961 M156.237 684.258 Q162.048 684.258 165.103 688.864 Q168.182 693.447 168.182 702.197 Q168.182 710.924 165.103 715.531 Q162.048 720.114 156.237 720.114 Q150.427 720.114 147.349 715.531 Q144.293 710.924 144.293 702.197 Q144.293 693.447 147.349 688.864 Q150.427 684.258 156.237 684.258 Z" fill="#000000" fill-rule="nonzero" fill-opacity="1" /><path clip-path="url(#clip740)" d="M186.399 687.961 Q182.788 687.961 180.959 691.526 Q179.154 695.068 179.154 702.197 Q179.154 709.304 180.959 712.869 Q182.788 716.41 186.399 716.41 Q190.033 716.41 191.839 712.869 Q193.668 709.304 193.668 702.197 Q193.668 695.068 191.839 691.526 Q190.033 687.961 186.399 687.961 M186.399 684.258 Q192.209 684.258 195.265 688.864 Q198.344 693.447 198.344 702.197 Q198.344 710.924 195.265 715.531 Q192.209 720.114 186.399 720.114 Q180.589 720.114 177.51 715.531 Q174.455 710.924 174.455 702.197 Q174.455 693.447 177.51 688.864 Q180.589 684.258 186.399 684.258 Z" fill="#000000" fill-rule="nonzero" fill-opacity="1" /><path clip-path="url(#clip740)" d="M116.886 213.22 L124.525 213.22 L124.525 186.855 L116.214 188.521 L116.214 184.262 L124.478 182.595 L129.154 182.595 L129.154 213.22 L136.793 213.22 L136.793 217.155 L116.886 217.155 L116.886 213.22 Z" fill="#000000" fill-rule="nonzero" fill-opacity="1" /><path clip-path="url(#clip740)" d="M146.284 182.595 L164.64 182.595 L164.64 186.531 L150.566 186.531 L150.566 195.003 Q151.585 194.655 152.603 194.493 Q153.622 194.308 154.64 194.308 Q160.427 194.308 163.807 197.48 Q167.186 200.651 167.186 206.067 Q167.186 211.646 163.714 214.748 Q160.242 217.827 153.923 217.827 Q151.747 217.827 149.478 217.456 Q147.233 217.086 144.825 216.345 L144.825 211.646 Q146.909 212.78 149.131 213.336 Q151.353 213.892 153.83 213.892 Q157.835 213.892 160.173 211.785 Q162.51 209.679 162.51 206.067 Q162.51 202.456 160.173 200.35 Q157.835 198.243 153.83 198.243 Q151.955 198.243 150.08 198.66 Q148.228 199.077 146.284 199.956 L146.284 182.595 Z" fill="#000000" fill-rule="nonzero" fill-opacity="1" /><path clip-path="url(#clip740)" d="M186.399 185.674 Q182.788 185.674 180.959 189.239 Q179.154 192.781 179.154 199.91 Q179.154 207.017 180.959 210.581 Q182.788 214.123 186.399 214.123 Q190.033 214.123 191.839 210.581 Q193.668 207.017 193.668 199.91 Q193.668 192.781 191.839 189.239 Q190.033 185.674 186.399 185.674 M186.399 181.97 Q192.209 181.97 195.265 186.577 Q198.344 191.16 198.344 199.91 Q198.344 208.637 195.265 213.243 Q192.209 217.827 186.399 217.827 Q180.589 217.827 177.51 213.243 Q174.455 208.637 174.455 199.91 Q174.455 191.16 177.51 186.577 Q180.589 181.97 186.399 181.97 Z" fill="#000000" fill-rule="nonzero" fill-opacity="1" /><path clip-path="url(#clip740)" d="M19.402 1191.03 L37.2578 1191.03 L37.2578 1182.94 Q37.2578 1178.45 34.9343 1176 Q32.6108 1173.55 28.314 1173.55 Q24.0489 1173.55 21.7255 1176 Q19.402 1178.45 19.402 1182.94 L19.402 1191.03 M14.1184 1197.45 L14.1184 1182.94 Q14.1184 1174.95 17.7469 1170.88 Q21.3435 1166.77 28.314 1166.77 Q35.3481 1166.77 38.9447 1170.88 Q42.5413 1174.95 42.5413 1182.94 L42.5413 1191.03 L61.6384 1191.03 L61.6384 1197.45 L14.1184 1197.45 Z" fill="#000000" fill-rule="nonzero" fill-opacity="1" /><path clip-path="url(#clip740)" d="M30.0964 1146.91 Q30.0964 1151.62 33.7885 1154.36 Q37.4488 1157.1 43.8463 1157.1 Q50.2438 1157.1 53.9359 1154.39 Q57.5962 1151.65 57.5962 1146.91 Q57.5962 1142.23 53.9041 1139.5 Q50.212 1136.76 43.8463 1136.76 Q37.5124 1136.76 33.8203 1139.5 Q30.0964 1142.23 30.0964 1146.91 M25.1311 1146.91 Q25.1311 1139.27 30.0964 1134.91 Q35.0616 1130.55 43.8463 1130.55 Q52.5991 1130.55 57.5962 1134.91 Q62.5615 1139.27 62.5615 1146.91 Q62.5615 1154.58 57.5962 1158.94 Q52.5991 1163.27 43.8463 1163.27 Q35.0616 1163.27 30.0964 1158.94 Q25.1311 1154.58 25.1311 1146.91 Z" fill="#000000" fill-rule="nonzero" fill-opacity="1" /><path clip-path="url(#clip740)" d="M56.2912 1115.18 L75.1974 1115.18 L75.1974 1121.07 L25.9905 1121.07 L25.9905 1115.18 L31.4013 1115.18 Q28.2185 1113.33 26.6907 1110.53 Q25.1311 1107.7 25.1311 1103.78 Q25.1311 1097.29 30.2873 1093.25 Q35.4436 1089.17 43.8463 1089.17 Q52.249 1089.17 57.4052 1093.25 Q62.5615 1097.29 62.5615 1103.78 Q62.5615 1107.7 61.0337 1110.53 Q59.4741 1113.33 56.2912 1115.18 M43.8463 1095.25 Q37.3851 1095.25 33.7248 1097.93 Q30.0327 1100.57 30.0327 1105.22 Q30.0327 1109.86 33.7248 1112.54 Q37.3851 1115.18 43.8463 1115.18 Q50.3075 1115.18 53.9996 1112.54 Q57.6599 1109.86 57.6599 1105.22 Q57.6599 1100.57 53.9996 1097.93 Q50.3075 1095.25 43.8463 1095.25 Z" fill="#000000" fill-rule="nonzero" fill-opacity="1" /><path clip-path="url(#clip740)" d="M47.5702 1080.07 L25.9905 1080.07 L25.9905 1074.21 L47.3474 1074.21 Q52.4082 1074.21 54.9545 1072.24 Q57.4689 1070.27 57.4689 1066.32 Q57.4689 1061.58 54.4452 1058.84 Q51.4215 1056.07 46.2016 1056.07 L25.9905 1056.07 L25.9905 1050.22 L61.6384 1050.22 L61.6384 1056.07 L56.1639 1056.07 Q59.4104 1058.21 61.0019 1061.04 Q62.5615 1063.84 62.5615 1067.56 Q62.5615 1073.71 58.742 1076.89 Q54.9226 1080.07 47.5702 1080.07 M25.1311 1065.33 L25.1311 1065.33 Z" fill="#000000" fill-rule="nonzero" fill-opacity="1" /><path clip-path="url(#clip740)" d="M12.1132 1038.15 L12.1132 1032.3 L61.6384 1032.3 L61.6384 1038.15 L12.1132 1038.15 Z" fill="#000000" fill-rule="nonzero" fill-opacity="1" /><path clip-path="url(#clip740)" d="M43.719 1003.84 Q43.719 1010.94 45.3422 1013.68 Q46.9655 1016.41 50.8804 1016.41 Q53.9996 1016.41 55.8457 1014.38 Q57.6599 1012.31 57.6599 1008.78 Q57.6599 1003.91 54.2224 1000.98 Q50.7531 998.017 45.0239 998.017 L43.719 998.017 L43.719 1003.84 M41.3 992.161 L61.6384 992.161 L61.6384 998.017 L56.2276 998.017 Q59.4741 1000.02 61.0337 1003.01 Q62.5615 1006.01 62.5615 1010.33 Q62.5615 1015.81 59.5059 1019.06 Q56.4186 1022.27 51.2623 1022.27 Q45.2467 1022.27 42.1912 1018.26 Q39.1357 1014.22 39.1357 1006.23 L39.1357 998.017 L38.5628 998.017 Q34.5205 998.017 32.3244 1000.69 Q30.0964 1003.33 30.0964 1008.14 Q30.0964 1011.19 30.8284 1014.09 Q31.5605 1016.99 33.0246 1019.66 L27.6137 1019.66 Q26.3724 1016.45 25.7677 1013.42 Q25.1311 1010.4 25.1311 1007.53 Q25.1311 999.8 29.1415 995.98 Q33.1519 992.161 41.3 992.161 Z" fill="#000000" fill-rule="nonzero" fill-opacity="1" /><path clip-path="url(#clip740)" d="M15.869 974.305 L25.9905 974.305 L25.9905 962.242 L30.542 962.242 L30.542 974.305 L49.8937 974.305 Q54.2542 974.305 55.4955 973.127 Q56.7368 971.918 56.7368 968.258 L56.7368 962.242 L61.6384 962.242 L61.6384 968.258 Q61.6384 975.037 59.124 977.615 Q56.5777 980.193 49.8937 980.193 L30.542 980.193 L30.542 984.49 L25.9905 984.49 L25.9905 980.193 L15.869 980.193 L15.869 974.305 Z" fill="#000000" fill-rule="nonzero" fill-opacity="1" /><path clip-path="url(#clip740)" d="M25.9905 954.539 L25.9905 948.683 L61.6384 948.683 L61.6384 954.539 L25.9905 954.539 M12.1132 954.539 L12.1132 948.683 L19.5293 948.683 L19.5293 954.539 L12.1132 954.539 Z" fill="#000000" fill-rule="nonzero" fill-opacity="1" /><path clip-path="url(#clip740)" d="M30.0964 922.615 Q30.0964 927.326 33.7885 930.063 Q37.4488 932.801 43.8463 932.801 Q50.2438 932.801 53.9359 930.095 Q57.5962 927.358 57.5962 922.615 Q57.5962 917.937 53.9041 915.199 Q50.212 912.462 43.8463 912.462 Q37.5124 912.462 33.8203 915.199 Q30.0964 917.937 30.0964 922.615 M25.1311 922.615 Q25.1311 914.977 30.0964 910.616 Q35.0616 906.256 43.8463 906.256 Q52.5991 906.256 57.5962 910.616 Q62.5615 914.977 62.5615 922.615 Q62.5615 930.286 57.5962 934.647 Q52.5991 938.975 43.8463 938.975 Q35.0616 938.975 30.0964 934.647 Q25.1311 930.286 25.1311 922.615 Z" fill="#000000" fill-rule="nonzero" fill-opacity="1" /><path clip-path="url(#clip740)" d="M40.1224 866.916 L61.6384 866.916 L61.6384 872.772 L40.3133 872.772 Q35.2526 872.772 32.7381 874.745 Q30.2237 876.719 30.2237 880.665 Q30.2237 885.408 33.2474 888.145 Q36.2711 890.882 41.491 890.882 L61.6384 890.882 L61.6384 896.771 L25.9905 896.771 L25.9905 890.882 L31.5287 890.882 Q28.314 888.782 26.7225 885.949 Q25.1311 883.084 25.1311 879.361 Q25.1311 873.218 28.9505 870.067 Q32.7381 866.916 40.1224 866.916 Z" fill="#000000" fill-rule="nonzero" fill-opacity="1" /><path clip-path="url(#clip740)" d="M25.9905 834.514 L25.9905 828.658 L61.6384 828.658 L61.6384 834.514 L25.9905 834.514 M12.1132 834.514 L12.1132 828.658 L19.5293 828.658 L19.5293 834.514 L12.1132 834.514 Z" fill="#000000" fill-rule="nonzero" fill-opacity="1" /><path clip-path="url(#clip740)" d="M40.1224 786.771 L61.6384 786.771 L61.6384 792.628 L40.3133 792.628 Q35.2526 792.628 32.7381 794.601 Q30.2237 796.574 30.2237 800.521 Q30.2237 805.264 33.2474 808.001 Q36.2711 810.738 41.491 810.738 L61.6384 810.738 L61.6384 816.626 L25.9905 816.626 L25.9905 810.738 L31.5287 810.738 Q28.314 808.638 26.7225 805.805 Q25.1311 802.94 25.1311 799.216 Q25.1311 793.073 28.9505 789.922 Q32.7381 786.771 40.1224 786.771 Z" fill="#000000" fill-rule="nonzero" fill-opacity="1" /><path clip-path="url(#clip740)" d="M31.4013 751.633 L12.1132 751.633 L12.1132 745.776 L61.6384 745.776 L61.6384 751.633 L56.2912 751.633 Q59.4741 753.479 61.0337 756.311 Q62.5615 759.112 62.5615 763.059 Q62.5615 769.52 57.4052 773.594 Q52.249 777.637 43.8463 777.637 Q35.4436 777.637 30.2873 773.594 Q25.1311 769.52 25.1311 763.059 Q25.1311 759.112 26.6907 756.311 Q28.2185 753.479 31.4013 751.633 M43.8463 771.589 Q50.3075 771.589 53.9996 768.947 Q57.6599 766.274 57.6599 761.627 Q57.6599 756.98 53.9996 754.306 Q50.3075 751.633 43.8463 751.633 Q37.3851 751.633 33.7248 754.306 Q30.0327 756.98 30.0327 761.627 Q30.0327 766.274 33.7248 768.947 Q37.3851 771.589 43.8463 771.589 Z" fill="#000000" fill-rule="nonzero" fill-opacity="1" /><path clip-path="url(#clip740)" d="M42.3504 703.221 L45.2149 703.221 L45.2149 730.148 Q51.2623 729.766 54.4452 726.52 Q57.5962 723.242 57.5962 717.417 Q57.5962 714.043 56.7687 710.892 Q55.9411 707.709 54.2861 704.59 L59.8242 704.59 Q61.161 707.741 61.8612 711.051 Q62.5615 714.361 62.5615 717.767 Q62.5615 726.297 57.5962 731.294 Q52.631 736.259 44.1646 736.259 Q35.4117 736.259 30.2873 731.549 Q25.1311 726.806 25.1311 718.786 Q25.1311 711.592 29.7781 707.423 Q34.3932 703.221 42.3504 703.221 M40.6316 709.078 Q35.8255 709.142 32.9609 711.783 Q30.0964 714.393 30.0964 718.722 Q30.0964 723.623 32.8654 726.584 Q35.6345 729.512 40.6634 729.957 L40.6316 709.078 Z" fill="#000000" fill-rule="nonzero" fill-opacity="1" /><path clip-path="url(#clip740)" d="M25.9905 665.123 L43.337 678.013 L61.6384 664.454 L61.6384 671.361 L47.6339 681.737 L61.6384 692.113 L61.6384 699.02 L42.9869 685.175 L25.9905 697.842 L25.9905 690.936 L38.6901 681.483 L25.9905 672.029 L25.9905 665.123 Z" fill="#000000" fill-rule="nonzero" fill-opacity="1" /><path clip-path="url(#clip740)" d="M447.096 12.096 L455.279 12.096 L455.279 36.8875 L485.013 36.8875 L485.013 12.096 L493.196 12.096 L493.196 72.576 L485.013 72.576 L485.013 43.7741 L455.279 43.7741 L455.279 72.576 L447.096 72.576 L447.096 12.096 Z" fill="#000000" fill-rule="nonzero" fill-opacity="1" /><path clip-path="url(#clip740)" d="M508.387 54.671 L508.387 27.2059 L515.84 27.2059 L515.84 54.3874 Q515.84 60.8284 518.352 64.0691 Q520.863 67.2693 525.887 67.2693 Q531.922 67.2693 535.406 63.421 Q538.93 59.5726 538.93 52.9291 L538.93 27.2059 L546.384 27.2059 L546.384 72.576 L538.93 72.576 L538.93 65.6084 Q536.216 69.7404 532.611 71.7658 Q529.046 73.7508 524.307 73.7508 Q516.488 73.7508 512.438 68.8897 Q508.387 64.0286 508.387 54.671 M527.142 26.1121 L527.142 26.1121 Z" fill="#000000" fill-rule="nonzero" fill-opacity="1" /><path clip-path="url(#clip740)" d="M591.592 34.0924 L591.592 9.54393 L599.046 9.54393 L599.046 72.576 L591.592 72.576 L591.592 65.7705 Q589.243 69.8214 585.637 71.8063 Q582.073 73.7508 577.049 73.7508 Q568.826 73.7508 563.641 67.1883 Q558.496 60.6258 558.496 49.9314 Q558.496 39.2371 563.641 32.6746 Q568.826 26.1121 577.049 26.1121 Q582.073 26.1121 585.637 28.0971 Q589.243 30.0415 591.592 34.0924 M566.193 49.9314 Q566.193 58.1548 569.555 62.8538 Q572.958 67.5124 578.872 67.5124 Q584.787 67.5124 588.189 62.8538 Q591.592 58.1548 591.592 49.9314 Q591.592 41.7081 588.189 37.0496 Q584.787 32.3505 578.872 32.3505 Q572.958 32.3505 569.555 37.0496 Q566.193 41.7081 566.193 49.9314 Z" fill="#000000" fill-rule="nonzero" fill-opacity="1" /><path clip-path="url(#clip740)" d="M643.322 28.5427 L643.322 35.5912 Q640.163 33.9709 636.76 33.1607 Q633.357 32.3505 629.711 32.3505 Q624.161 32.3505 621.366 34.0519 Q618.612 35.7533 618.612 39.156 Q618.612 41.7486 620.597 43.2475 Q622.582 44.7058 628.577 46.0426 L631.129 46.6097 Q639.069 48.3111 642.391 51.4303 Q645.753 54.509 645.753 60.0587 Q645.753 66.3781 640.73 70.0644 Q635.747 73.7508 626.997 73.7508 Q623.351 73.7508 619.381 73.0216 Q615.452 72.3329 611.077 70.9151 L611.077 63.2184 Q615.209 65.3654 619.219 66.4591 Q623.23 67.5124 627.159 67.5124 Q632.425 67.5124 635.261 65.73 Q638.097 63.9071 638.097 60.6258 Q638.097 57.5877 636.031 55.9673 Q634.005 54.3469 627.078 52.8481 L624.486 52.2405 Q617.559 50.7821 614.48 47.7845 Q611.401 44.7463 611.401 39.4801 Q611.401 33.0797 615.938 29.5959 Q620.475 26.1121 628.82 26.1121 Q632.952 26.1121 636.598 26.7198 Q640.244 27.3274 643.322 28.5427 Z" fill="#000000" fill-rule="nonzero" fill-opacity="1" /><path clip-path="url(#clip740)" d="M675.203 32.4315 Q669.208 32.4315 665.724 37.1306 Q662.24 41.7891 662.24 49.9314 Q662.24 58.0738 665.683 62.7728 Q669.167 67.4314 675.203 67.4314 Q681.158 67.4314 684.641 62.7323 Q688.125 58.0333 688.125 49.9314 Q688.125 41.8701 684.641 37.1711 Q681.158 32.4315 675.203 32.4315 M675.203 26.1121 Q684.925 26.1121 690.475 32.4315 Q696.025 38.7509 696.025 49.9314 Q696.025 61.0714 690.475 67.4314 Q684.925 73.7508 675.203 73.7508 Q665.44 73.7508 659.89 67.4314 Q654.381 61.0714 654.381 49.9314 Q654.381 38.7509 659.89 32.4315 Q665.44 26.1121 675.203 26.1121 Z" fill="#000000" fill-rule="nonzero" fill-opacity="1" /><path clip-path="url(#clip740)" d="M746.094 45.1919 L746.094 72.576 L738.64 72.576 L738.64 45.4349 Q738.64 38.994 736.128 35.7938 Q733.617 32.5936 728.594 32.5936 Q722.558 32.5936 719.074 36.4419 Q715.59 40.2903 715.59 46.9338 L715.59 72.576 L708.096 72.576 L708.096 27.2059 L715.59 27.2059 L715.59 34.2544 Q718.264 30.163 721.869 28.1376 Q725.515 26.1121 730.255 26.1121 Q738.073 26.1121 742.083 30.9732 Q746.094 35.7938 746.094 45.1919 Z" fill="#000000" fill-rule="nonzero" fill-opacity="1" /><path clip-path="url(#clip740)" d="M795.839 43.6931 L795.839 65.8515 L808.964 65.8515 Q815.567 65.8515 818.726 63.1374 Q821.927 60.3828 821.927 54.752 Q821.927 49.0808 818.726 46.4072 Q815.567 43.6931 808.964 43.6931 L795.839 43.6931 M795.839 18.8205 L795.839 37.0496 L807.951 37.0496 Q813.946 37.0496 816.863 34.8216 Q819.82 32.5531 819.82 27.935 Q819.82 23.3575 816.863 21.089 Q813.946 18.8205 807.951 18.8205 L795.839 18.8205 M787.656 12.096 L808.559 12.096 Q817.916 12.096 822.98 15.9849 Q828.043 19.8737 828.043 27.0438 Q828.043 32.5936 825.451 35.8748 Q822.858 39.156 817.835 39.9662 Q823.871 41.2625 827.193 45.3944 Q830.555 49.4858 830.555 55.6432 Q830.555 63.745 825.046 68.1605 Q819.537 72.576 809.369 72.576 L787.656 72.576 L787.656 12.096 Z" fill="#000000" fill-rule="nonzero" fill-opacity="1" /><path clip-path="url(#clip740)" d="M864.866 49.7694 Q855.833 49.7694 852.349 51.8354 Q848.865 53.9013 848.865 58.8839 Q848.865 62.8538 851.458 65.2034 Q854.091 67.5124 858.587 67.5124 Q864.785 67.5124 868.512 63.1374 Q872.279 58.7219 872.279 51.4303 L872.279 49.7694 L864.866 49.7694 M879.733 46.6907 L879.733 72.576 L872.279 72.576 L872.279 65.6895 Q869.727 69.8214 865.919 71.8063 Q862.112 73.7508 856.602 73.7508 Q849.635 73.7508 845.503 69.8619 Q841.411 65.9325 841.411 59.3701 Q841.411 51.7138 846.516 47.825 Q851.66 43.9361 861.828 43.9361 L872.279 43.9361 L872.279 43.2069 Q872.279 38.0623 868.877 35.2672 Q865.514 32.4315 859.397 32.4315 Q855.509 32.4315 851.822 33.3632 Q848.136 34.295 844.733 36.1584 L844.733 29.2718 Q848.825 27.692 852.673 26.9223 Q856.521 26.1121 860.167 26.1121 Q870.011 26.1121 874.872 31.2163 Q879.733 36.3204 879.733 46.6907 Z" fill="#000000" fill-rule="nonzero" fill-opacity="1" /><path clip-path="url(#clip740)" d="M913.963 76.7889 Q910.803 84.8907 907.806 87.3618 Q904.808 89.8329 899.785 89.8329 L893.83 89.8329 L893.83 83.5945 L898.205 83.5945 Q901.284 83.5945 902.985 82.1361 Q904.687 80.6778 906.753 75.2496 L908.089 71.8468 L889.739 27.2059 L897.638 27.2059 L911.816 62.6918 L925.994 27.2059 L933.894 27.2059 L913.963 76.7889 Z" fill="#000000" fill-rule="nonzero" fill-opacity="1" /><path clip-path="url(#clip740)" d="M1016.17 16.7545 L1016.17 25.383 Q1012.04 21.5346 1007.34 19.6307 Q1002.68 17.7268 997.412 17.7268 Q987.041 17.7268 981.532 24.0867 Q976.023 30.4061 976.023 42.3968 Q976.023 54.3469 981.532 60.7069 Q987.041 67.0263 997.412 67.0263 Q1002.68 67.0263 1007.34 65.1223 Q1012.04 63.2184 1016.17 59.3701 L1016.17 67.9175 Q1011.87 70.8341 1007.05 72.2924 Q1002.27 73.7508 996.926 73.7508 Q983.193 73.7508 975.294 65.3654 Q967.395 56.9395 967.395 42.3968 Q967.395 27.8135 975.294 19.4281 Q983.193 11.0023 996.926 11.0023 Q1002.35 11.0023 1007.13 12.4606 Q1011.95 13.8784 1016.17 16.7545 Z" fill="#000000" fill-rule="nonzero" fill-opacity="1" /><path clip-path="url(#clip740)" d="M1046.06 32.4315 Q1040.07 32.4315 1036.58 37.1306 Q1033.1 41.7891 1033.1 49.9314 Q1033.1 58.0738 1036.54 62.7728 Q1040.03 67.4314 1046.06 67.4314 Q1052.02 67.4314 1055.5 62.7323 Q1058.99 58.0333 1058.99 49.9314 Q1058.99 41.8701 1055.5 37.1711 Q1052.02 32.4315 1046.06 32.4315 M1046.06 26.1121 Q1055.79 26.1121 1061.34 32.4315 Q1066.88 38.7509 1066.88 49.9314 Q1066.88 61.0714 1061.34 67.4314 Q1055.79 73.7508 1046.06 73.7508 Q1036.3 73.7508 1030.75 67.4314 Q1025.24 61.0714 1025.24 49.9314 Q1025.24 38.7509 1030.75 32.4315 Q1036.3 26.1121 1046.06 26.1121 Z" fill="#000000" fill-rule="nonzero" fill-opacity="1" /><path clip-path="url(#clip740)" d="M1114.56 35.9153 Q1117.36 30.8922 1121.25 28.5022 Q1125.14 26.1121 1130.4 26.1121 Q1137.49 26.1121 1141.34 31.0947 Q1145.19 36.0368 1145.19 45.1919 L1145.19 72.576 L1137.69 72.576 L1137.69 45.4349 Q1137.69 38.913 1135.39 35.7533 Q1133.08 32.5936 1128.34 32.5936 Q1122.54 32.5936 1119.18 36.4419 Q1115.82 40.2903 1115.82 46.9338 L1115.82 72.576 L1108.33 72.576 L1108.33 45.4349 Q1108.33 38.8725 1106.02 35.7533 Q1103.71 32.5936 1098.89 32.5936 Q1093.18 32.5936 1089.81 36.4824 Q1086.45 40.3308 1086.45 46.9338 L1086.45 72.576 L1078.96 72.576 L1078.96 27.2059 L1086.45 27.2059 L1086.45 34.2544 Q1089 30.082 1092.57 28.0971 Q1096.13 26.1121 1101.03 26.1121 Q1105.98 26.1121 1109.42 28.6237 Q1112.9 31.1352 1114.56 35.9153 Z" fill="#000000" fill-rule="nonzero" fill-opacity="1" /><path clip-path="url(#clip740)" d="M1167.27 65.7705 L1167.27 89.8329 L1159.77 89.8329 L1159.77 27.2059 L1167.27 27.2059 L1167.27 34.0924 Q1169.62 30.0415 1173.18 28.0971 Q1176.79 26.1121 1181.77 26.1121 Q1190.03 26.1121 1195.18 32.6746 Q1200.36 39.2371 1200.36 49.9314 Q1200.36 60.6258 1195.18 67.1883 Q1190.03 73.7508 1181.77 73.7508 Q1176.79 73.7508 1173.18 71.8063 Q1169.62 69.8214 1167.27 65.7705 M1192.62 49.9314 Q1192.62 41.7081 1189.22 37.0496 Q1185.86 32.3505 1179.95 32.3505 Q1174.03 32.3505 1170.63 37.0496 Q1167.27 41.7081 1167.27 49.9314 Q1167.27 58.1548 1170.63 62.8538 Q1174.03 67.5124 1179.95 67.5124 Q1185.86 67.5124 1189.22 62.8538 Q1192.62 58.1548 1192.62 49.9314 Z" fill="#000000" fill-rule="nonzero" fill-opacity="1" /><path clip-path="url(#clip740)" d="M1233.34 49.7694 Q1224.3 49.7694 1220.82 51.8354 Q1217.34 53.9013 1217.34 58.8839 Q1217.34 62.8538 1219.93 65.2034 Q1222.56 67.5124 1227.06 67.5124 Q1233.26 67.5124 1236.98 63.1374 Q1240.75 58.7219 1240.75 51.4303 L1240.75 49.7694 L1233.34 49.7694 M1248.2 46.6907 L1248.2 72.576 L1240.75 72.576 L1240.75 65.6895 Q1238.2 69.8214 1234.39 71.8063 Q1230.58 73.7508 1225.07 73.7508 Q1218.11 73.7508 1213.97 69.8619 Q1209.88 65.9325 1209.88 59.3701 Q1209.88 51.7138 1214.99 47.825 Q1220.13 43.9361 1230.3 43.9361 L1240.75 43.9361 L1240.75 43.2069 Q1240.75 38.0623 1237.35 35.2672 Q1233.98 32.4315 1227.87 32.4315 Q1223.98 32.4315 1220.29 33.3632 Q1216.61 34.295 1213.2 36.1584 L1213.2 29.2718 Q1217.29 27.692 1221.14 26.9223 Q1224.99 26.1121 1228.64 26.1121 Q1238.48 26.1121 1243.34 31.2163 Q1248.2 36.3204 1248.2 46.6907 Z" fill="#000000" fill-rule="nonzero" fill-opacity="1" /><path clip-path="url(#clip740)" d="M1301.27 45.1919 L1301.27 72.576 L1293.82 72.576 L1293.82 45.4349 Q1293.82 38.994 1291.3 35.7938 Q1288.79 32.5936 1283.77 32.5936 Q1277.73 32.5936 1274.25 36.4419 Q1270.77 40.2903 1270.77 46.9338 L1270.77 72.576 L1263.27 72.576 L1263.27 27.2059 L1270.77 27.2059 L1270.77 34.2544 Q1273.44 30.163 1277.05 28.1376 Q1280.69 26.1121 1285.43 26.1121 Q1293.25 26.1121 1297.26 30.9732 Q1301.27 35.7938 1301.27 45.1919 Z" fill="#000000" fill-rule="nonzero" fill-opacity="1" /><path clip-path="url(#clip740)" d="M1335.01 76.7889 Q1331.85 84.8907 1328.86 87.3618 Q1325.86 89.8329 1320.84 89.8329 L1314.88 89.8329 L1314.88 83.5945 L1319.26 83.5945 Q1322.33 83.5945 1324.04 82.1361 Q1325.74 80.6778 1327.8 75.2496 L1329.14 71.8468 L1310.79 27.2059 L1318.69 27.2059 L1332.87 62.6918 L1347.05 27.2059 L1354.94 27.2059 L1335.01 76.7889 Z" fill="#000000" fill-rule="nonzero" fill-opacity="1" /><path clip-path="url(#clip740)" d="M1398.82 65.7705 L1398.82 89.8329 L1391.32 89.8329 L1391.32 27.2059 L1398.82 27.2059 L1398.82 34.0924 Q1401.17 30.0415 1404.73 28.0971 Q1408.34 26.1121 1413.32 26.1121 Q1421.58 26.1121 1426.73 32.6746 Q1431.91 39.2371 1431.91 49.9314 Q1431.91 60.6258 1426.73 67.1883 Q1421.58 73.7508 1413.32 73.7508 Q1408.34 73.7508 1404.73 71.8063 Q1401.17 69.8214 1398.82 65.7705 M1424.17 49.9314 Q1424.17 41.7081 1420.77 37.0496 Q1417.41 32.3505 1411.5 32.3505 Q1405.58 32.3505 1402.18 37.0496 Q1398.82 41.7081 1398.82 49.9314 Q1398.82 58.1548 1402.18 62.8538 Q1405.58 67.5124 1411.5 67.5124 Q1417.41 67.5124 1420.77 62.8538 Q1424.17 58.1548 1424.17 49.9314 Z" fill="#000000" fill-rule="nonzero" fill-opacity="1" /><path clip-path="url(#clip740)" d="M1483.07 48.0275 L1483.07 51.6733 L1448.8 51.6733 Q1449.29 59.3701 1453.42 63.421 Q1457.59 67.4314 1465.01 67.4314 Q1469.3 67.4314 1473.31 66.3781 Q1477.36 65.3249 1481.33 63.2184 L1481.33 70.267 Q1477.32 71.9684 1473.11 72.8596 Q1468.9 73.7508 1464.56 73.7508 Q1453.71 73.7508 1447.35 67.4314 Q1441.03 61.1119 1441.03 50.3365 Q1441.03 39.1965 1447.02 32.6746 Q1453.06 26.1121 1463.27 26.1121 Q1472.42 26.1121 1477.73 32.0264 Q1483.07 37.9003 1483.07 48.0275 M1475.62 45.84 Q1475.54 39.7232 1472.18 36.0774 Q1468.86 32.4315 1463.35 32.4315 Q1457.11 32.4315 1453.34 35.9558 Q1449.61 39.4801 1449.05 45.8805 L1475.62 45.84 Z" fill="#000000" fill-rule="nonzero" fill-opacity="1" /><path clip-path="url(#clip740)" d="M1495.31 9.54393 L1502.76 9.54393 L1502.76 72.576 L1495.31 72.576 L1495.31 9.54393 Z" fill="#000000" fill-rule="nonzero" fill-opacity="1" /><path clip-path="url(#clip740)" d="M1525.73 14.324 L1525.73 27.2059 L1541.08 27.2059 L1541.08 32.9987 L1525.73 32.9987 L1525.73 57.6282 Q1525.73 63.1779 1527.23 64.7578 Q1528.77 66.3376 1533.43 66.3376 L1541.08 66.3376 L1541.08 72.576 L1533.43 72.576 Q1524.8 72.576 1521.52 69.3758 Q1518.24 66.1351 1518.24 57.6282 L1518.24 32.9987 L1512.77 32.9987 L1512.77 27.2059 L1518.24 27.2059 L1518.24 14.324 L1525.73 14.324 Z" fill="#000000" fill-rule="nonzero" fill-opacity="1" /><path clip-path="url(#clip740)" d="M1550.89 27.2059 L1558.34 27.2059 L1558.34 72.576 L1550.89 72.576 L1550.89 27.2059 M1550.89 9.54393 L1558.34 9.54393 L1558.34 18.9825 L1550.89 18.9825 L1550.89 9.54393 Z" fill="#000000" fill-rule="nonzero" fill-opacity="1" /><path clip-path="url(#clip740)" d="M1611.65 45.1919 L1611.65 72.576 L1604.2 72.576 L1604.2 45.4349 Q1604.2 38.994 1601.69 35.7938 Q1599.17 32.5936 1594.15 32.5936 Q1588.11 32.5936 1584.63 36.4419 Q1581.15 40.2903 1581.15 46.9338 L1581.15 72.576 L1573.65 72.576 L1573.65 27.2059 L1581.15 27.2059 L1581.15 34.2544 Q1583.82 30.163 1587.43 28.1376 Q1591.07 26.1121 1595.81 26.1121 Q1603.63 26.1121 1607.64 30.9732 Q1611.65 35.7938 1611.65 45.1919 Z" fill="#000000" fill-rule="nonzero" fill-opacity="1" /><path clip-path="url(#clip740)" d="M1656.37 49.3643 Q1656.37 41.2625 1653.01 36.8065 Q1649.69 32.3505 1643.65 32.3505 Q1637.66 32.3505 1634.29 36.8065 Q1630.97 41.2625 1630.97 49.3643 Q1630.97 57.4256 1634.29 61.8816 Q1637.66 66.3376 1643.65 66.3376 Q1649.69 66.3376 1653.01 61.8816 Q1656.37 57.4256 1656.37 49.3643 M1663.83 66.9452 Q1663.83 78.5308 1658.68 84.1616 Q1653.54 89.8329 1642.92 89.8329 Q1638.99 89.8329 1635.51 89.2252 Q1632.03 88.6581 1628.75 87.4428 L1628.75 80.1917 Q1632.03 81.9741 1635.23 82.8248 Q1638.43 83.6755 1641.75 83.6755 Q1649.08 83.6755 1652.73 79.8271 Q1656.37 76.0193 1656.37 68.282 L1656.37 64.5957 Q1654.06 68.6061 1650.46 70.5911 Q1646.85 72.576 1641.83 72.576 Q1633.48 72.576 1628.38 66.2161 Q1623.28 59.8562 1623.28 49.3643 Q1623.28 38.832 1628.38 32.472 Q1633.48 26.1121 1641.83 26.1121 Q1646.85 26.1121 1650.46 28.0971 Q1654.06 30.082 1656.37 34.0924 L1656.37 27.2059 L1663.83 27.2059 L1663.83 66.9452 Z" fill="#000000" fill-rule="nonzero" fill-opacity="1" /><path clip-path="url(#clip740)" d="M1735.41 34.0924 L1735.41 9.54393 L1742.86 9.54393 L1742.86 72.576 L1735.41 72.576 L1735.41 65.7705 Q1733.06 69.8214 1729.45 71.8063 Q1725.89 73.7508 1720.86 73.7508 Q1712.64 73.7508 1707.45 67.1883 Q1702.31 60.6258 1702.31 49.9314 Q1702.31 39.2371 1707.45 32.6746 Q1712.64 26.1121 1720.86 26.1121 Q1725.89 26.1121 1729.45 28.0971 Q1733.06 30.0415 1735.41 34.0924 M1710.01 49.9314 Q1710.01 58.1548 1713.37 62.8538 Q1716.77 67.5124 1722.69 67.5124 Q1728.6 67.5124 1732 62.8538 Q1735.41 58.1548 1735.41 49.9314 Q1735.41 41.7081 1732 37.0496 Q1728.6 32.3505 1722.69 32.3505 Q1716.77 32.3505 1713.37 37.0496 Q1710.01 41.7081 1710.01 49.9314 Z" fill="#000000" fill-rule="nonzero" fill-opacity="1" /><path clip-path="url(#clip740)" d="M1778.83 49.7694 Q1769.8 49.7694 1766.31 51.8354 Q1762.83 53.9013 1762.83 58.8839 Q1762.83 62.8538 1765.42 65.2034 Q1768.06 67.5124 1772.55 67.5124 Q1778.75 67.5124 1782.48 63.1374 Q1786.24 58.7219 1786.24 51.4303 L1786.24 49.7694 L1778.83 49.7694 M1793.7 46.6907 L1793.7 72.576 L1786.24 72.576 L1786.24 65.6895 Q1783.69 69.8214 1779.88 71.8063 Q1776.08 73.7508 1770.57 73.7508 Q1763.6 73.7508 1759.47 69.8619 Q1755.38 65.9325 1755.38 59.3701 Q1755.38 51.7138 1760.48 47.825 Q1765.63 43.9361 1775.79 43.9361 L1786.24 43.9361 L1786.24 43.2069 Q1786.24 38.0623 1782.84 35.2672 Q1779.48 32.4315 1773.36 32.4315 Q1769.47 32.4315 1765.79 33.3632 Q1762.1 34.295 1758.7 36.1584 L1758.7 29.2718 Q1762.79 27.692 1766.64 26.9223 Q1770.49 26.1121 1774.13 26.1121 Q1783.98 26.1121 1788.84 31.2163 Q1793.7 36.3204 1793.7 46.6907 Z" fill="#000000" fill-rule="nonzero" fill-opacity="1" /><path clip-path="url(#clip740)" d="M1816.42 14.324 L1816.42 27.2059 L1831.78 27.2059 L1831.78 32.9987 L1816.42 32.9987 L1816.42 57.6282 Q1816.42 63.1779 1817.92 64.7578 Q1819.46 66.3376 1824.12 66.3376 L1831.78 66.3376 L1831.78 72.576 L1824.12 72.576 Q1815.49 72.576 1812.21 69.3758 Q1808.93 66.1351 1808.93 57.6282 L1808.93 32.9987 L1803.46 32.9987 L1803.46 27.2059 L1808.93 27.2059 L1808.93 14.324 L1816.42 14.324 Z" fill="#000000" fill-rule="nonzero" fill-opacity="1" /><path clip-path="url(#clip740)" d="M1862.2 49.7694 Q1853.17 49.7694 1849.68 51.8354 Q1846.2 53.9013 1846.2 58.8839 Q1846.2 62.8538 1848.79 65.2034 Q1851.42 67.5124 1855.92 67.5124 Q1862.12 67.5124 1865.84 63.1374 Q1869.61 58.7219 1869.61 51.4303 L1869.61 49.7694 L1862.2 49.7694 M1877.07 46.6907 L1877.07 72.576 L1869.61 72.576 L1869.61 65.6895 Q1867.06 69.8214 1863.25 71.8063 Q1859.44 73.7508 1853.93 73.7508 Q1846.97 73.7508 1842.84 69.8619 Q1838.74 65.9325 1838.74 59.3701 Q1838.74 51.7138 1843.85 47.825 Q1848.99 43.9361 1859.16 43.9361 L1869.61 43.9361 L1869.61 43.2069 Q1869.61 38.0623 1866.21 35.2672 Q1862.85 32.4315 1856.73 32.4315 Q1852.84 32.4315 1849.15 33.3632 Q1845.47 34.295 1842.07 36.1584 L1842.07 29.2718 Q1846.16 27.692 1850.01 26.9223 Q1853.85 26.1121 1857.5 26.1121 Q1867.34 26.1121 1872.2 31.2163 Q1877.07 36.3204 1877.07 46.6907 Z" fill="#000000" fill-rule="nonzero" fill-opacity="1" /><path clip-path="url(#clip740)" d="M1936.69 9.62495 Q1931.27 18.942 1928.63 28.0566 Q1926 37.1711 1926 46.5287 Q1926 55.8863 1928.63 65.0818 Q1931.31 74.2369 1936.69 83.5134 L1930.21 83.5134 Q1924.14 73.9938 1921.1 64.7983 Q1918.1 55.6027 1918.1 46.5287 Q1918.1 37.4952 1921.1 28.3401 Q1924.1 19.1851 1930.21 9.62495 L1936.69 9.62495 Z" fill="#000000" fill-rule="nonzero" fill-opacity="1" /><path clip-path="url(#clip740)" d="M1953.63 65.6895 L1967 65.6895 L1967 19.5497 L1952.45 22.4663 L1952.45 15.0127 L1966.91 12.096 L1975.1 12.096 L1975.1 65.6895 L1988.47 65.6895 L1988.47 72.576 L1953.63 72.576 L1953.63 65.6895 Z" fill="#000000" fill-rule="nonzero" fill-opacity="1" /><path clip-path="url(#clip740)" d="M2022.49 43.8551 Q2016.66 43.8551 2013.3 46.9743 Q2009.98 50.0935 2009.98 55.5622 Q2009.98 61.0309 2013.3 64.1501 Q2016.66 67.2693 2022.49 67.2693 Q2028.33 67.2693 2031.69 64.1501 Q2035.05 60.9904 2035.05 55.5622 Q2035.05 50.0935 2031.69 46.9743 Q2028.37 43.8551 2022.49 43.8551 M2014.31 40.3713 Q2009.04 39.075 2006.09 35.4697 Q2003.17 31.8644 2003.17 26.6793 Q2003.17 19.4281 2008.31 15.2152 Q2013.5 11.0023 2022.49 11.0023 Q2031.53 11.0023 2036.67 15.2152 Q2041.82 19.4281 2041.82 26.6793 Q2041.82 31.8644 2038.86 35.4697 Q2035.94 39.075 2030.72 40.3713 Q2036.63 41.7486 2039.91 45.759 Q2043.23 49.7694 2043.23 55.5622 Q2043.23 64.3527 2037.85 69.0517 Q2032.5 73.7508 2022.49 73.7508 Q2012.49 73.7508 2007.1 69.0517 Q2001.75 64.3527 2001.75 55.5622 Q2001.75 49.7694 2005.07 45.759 Q2008.4 41.7486 2014.31 40.3713 M2011.31 27.4489 Q2011.31 32.148 2014.23 34.7811 Q2017.19 37.4142 2022.49 37.4142 Q2027.76 37.4142 2030.72 34.7811 Q2033.71 32.148 2033.71 27.4489 Q2033.71 22.7499 2030.72 20.1168 Q2027.76 17.4837 2022.49 17.4837 Q2017.19 17.4837 2014.23 20.1168 Q2011.31 22.7499 2011.31 27.4489 Z" fill="#000000" fill-rule="nonzero" fill-opacity="1" /><path clip-path="url(#clip740)" d="M2080.26 19.2256 L2059.6 51.5113 L2080.26 51.5113 L2080.26 19.2256 M2078.11 12.096 L2088.4 12.096 L2088.4 51.5113 L2097.03 51.5113 L2097.03 58.3168 L2088.4 58.3168 L2088.4 72.576 L2080.26 72.576 L2080.26 58.3168 L2052.96 58.3168 L2052.96 50.4176 L2078.11 12.096 Z" fill="#000000" fill-rule="nonzero" fill-opacity="1" /><path clip-path="url(#clip740)" d="M2110.64 12.096 L2142.76 12.096 L2142.76 18.9825 L2118.13 18.9825 L2118.13 33.8088 Q2119.92 33.2012 2121.7 32.9176 Q2123.48 32.5936 2125.26 32.5936 Q2135.39 32.5936 2141.31 38.1433 Q2147.22 43.6931 2147.22 53.1722 Q2147.22 62.9348 2141.14 68.3631 Q2135.07 73.7508 2124.01 73.7508 Q2120.2 73.7508 2116.23 73.1026 Q2112.3 72.4545 2108.09 71.1582 L2108.09 62.9348 Q2111.73 64.9198 2115.62 65.892 Q2119.51 66.8642 2123.85 66.8642 Q2130.85 66.8642 2134.95 63.1779 Q2139.04 59.4916 2139.04 53.1722 Q2139.04 46.8528 2134.95 43.1664 Q2130.85 39.4801 2123.85 39.4801 Q2120.57 39.4801 2117.28 40.2093 Q2114.04 40.9384 2110.64 42.4778 L2110.64 12.096 Z" fill="#000000" fill-rule="nonzero" fill-opacity="1" /><path clip-path="url(#clip740)" d="M2158.52 46.9338 L2191.9 46.9338 L2191.9 52.7671 L2158.52 52.7671 L2158.52 46.9338 Z" fill="#000000" fill-rule="nonzero" fill-opacity="1" /><path clip-path="url(#clip740)" d="M2206.24 65.6895 L2219.61 65.6895 L2219.61 19.5497 L2205.07 22.4663 L2205.07 15.0127 L2219.53 12.096 L2227.71 12.096 L2227.71 65.6895 L2241.08 65.6895 L2241.08 72.576 L2206.24 72.576 L2206.24 65.6895 Z" fill="#000000" fill-rule="nonzero" fill-opacity="1" /><path clip-path="url(#clip740)" d="M2257.85 71.3202 L2257.85 63.8666 Q2260.93 65.3249 2264.09 66.0946 Q2267.25 66.8642 2270.29 66.8642 Q2278.39 66.8642 2282.64 61.436 Q2286.94 55.9673 2287.54 44.8678 Q2285.19 48.3516 2281.59 50.215 Q2277.98 52.0784 2273.61 52.0784 Q2264.53 52.0784 2259.23 46.6097 Q2253.96 41.1005 2253.96 31.5808 Q2253.96 22.2638 2259.47 16.633 Q2264.98 11.0023 2274.14 11.0023 Q2284.63 11.0023 2290.14 19.0636 Q2295.69 27.0843 2295.69 42.3968 Q2295.69 56.6965 2288.88 65.2439 Q2282.12 73.7508 2270.65 73.7508 Q2267.57 73.7508 2264.41 73.1431 Q2261.25 72.5355 2257.85 71.3202 M2274.14 45.678 Q2279.64 45.678 2282.84 41.9107 Q2286.09 38.1433 2286.09 31.5808 Q2286.09 25.0589 2282.84 21.2916 Q2279.64 17.4837 2274.14 17.4837 Q2268.63 17.4837 2265.39 21.2916 Q2262.19 25.0589 2262.19 31.5808 Q2262.19 38.1433 2265.39 41.9107 Q2268.63 45.678 2274.14 45.678 Z" fill="#000000" fill-rule="nonzero" fill-opacity="1" /><path clip-path="url(#clip740)" d="M2335.18 39.9662 Q2341.06 41.222 2344.34 45.1919 Q2347.66 49.1618 2347.66 54.9951 Q2347.66 63.9476 2341.5 68.8492 Q2335.34 73.7508 2324 73.7508 Q2320.19 73.7508 2316.14 72.9811 Q2312.13 72.2519 2307.84 70.7531 L2307.84 62.8538 Q2311.24 64.8388 2315.29 65.8515 Q2319.34 66.8642 2323.76 66.8642 Q2331.46 66.8642 2335.47 63.826 Q2339.52 60.7879 2339.52 54.9951 Q2339.52 49.6479 2335.75 46.6502 Q2332.02 43.612 2325.34 43.612 L2318.29 43.612 L2318.29 36.8875 L2325.66 36.8875 Q2331.7 36.8875 2334.9 34.4975 Q2338.1 32.067 2338.1 27.5299 Q2338.1 22.8714 2334.78 20.4004 Q2331.5 17.8888 2325.34 17.8888 Q2321.98 17.8888 2318.13 18.618 Q2314.28 19.3471 2309.66 20.8865 L2309.66 13.5948 Q2314.32 12.2985 2318.37 11.6504 Q2322.46 11.0023 2326.07 11.0023 Q2335.38 11.0023 2340.81 15.2557 Q2346.24 19.4686 2346.24 26.6793 Q2346.24 31.7024 2343.37 35.1862 Q2340.49 38.6294 2335.18 39.9662 Z" fill="#000000" fill-rule="nonzero" fill-opacity="1" /><path clip-path="url(#clip740)" d="M2363.26 12.096 L2395.38 12.096 L2395.38 18.9825 L2370.75 18.9825 L2370.75 33.8088 Q2372.53 33.2012 2374.31 32.9176 Q2376.1 32.5936 2377.88 32.5936 Q2388.01 32.5936 2393.92 38.1433 Q2399.83 43.6931 2399.83 53.1722 Q2399.83 62.9348 2393.76 68.3631 Q2387.68 73.7508 2376.62 73.7508 Q2372.82 73.7508 2368.85 73.1026 Q2364.92 72.4545 2360.7 71.1582 L2360.7 62.9348 Q2364.35 64.9198 2368.24 65.892 Q2372.13 66.8642 2376.46 66.8642 Q2383.47 66.8642 2387.56 63.1779 Q2391.65 59.4916 2391.65 53.1722 Q2391.65 46.8528 2387.56 43.1664 Q2383.47 39.4801 2376.46 39.4801 Q2373.18 39.4801 2369.9 40.2093 Q2366.66 40.9384 2363.26 42.4778 L2363.26 12.096 Z" fill="#000000" fill-rule="nonzero" fill-opacity="1" /><path clip-path="url(#clip740)" d="M2413.73 9.62495 L2420.21 9.62495 Q2426.29 19.1851 2429.28 28.3401 Q2432.32 37.4952 2432.32 46.5287 Q2432.32 55.6027 2429.28 64.7983 Q2426.29 73.9938 2420.21 83.5134 L2413.73 83.5134 Q2419.12 74.2369 2421.75 65.0818 Q2424.42 55.8863 2424.42 46.5287 Q2424.42 37.1711 2421.75 28.0566 Q2419.12 18.942 2413.73 9.62495 Z" fill="#000000" fill-rule="nonzero" fill-opacity="1" /><polyline clip-path="url(#clip741)" style="stroke:#ffa500; stroke-linecap:round; stroke-linejoin:round; stroke-width:8; stroke-opacity:1; fill:none" points="306.647,1510.04 331.827,1509.84 357.006,1509.74 382.185,1586.29 407.364,1425.05 432.543,1124.08 457.722,957.325 482.902,952.402 508.081,817.89 533.26,1091.13 558.439,956.621 583.618,822.109 608.797,1018.5 633.977,1383.36 659.156,1579.76 684.335,1490.85 709.514,1401.85 734.693,1684.84 759.872,173.254 785.051,216.35 810.231,844.712 835.41,1290.74 860.589,1558.56 885.768,1683.83 910.947,1647.37 936.126,1606.78 961.306,1601.86 986.485,997.106 1011.66,1203.24 1036.84,1203.14 1062.02,689.606 1087.2,731.094 1112.38,837.68 1137.56,981.736 1162.74,1321.78 1187.92,1605.17 1213.1,1628.98 1238.28,1609.59 1263.46,1273.56 1288.63,1182.25 1313.81,352.068 1338.99,351.968 1364.17,664.089 1389.35,1243.63 1414.53,1555.75 1439.71,1463.63 1464.89,1288.33 1490.07,1180.94 1515.25,1166.48 1540.43,999.517 1565.61,844.712 1590.78,1137.24 1615.96,1540.08 1641.14,1644.86 1666.32,1683.63 1691.5,1577.95 1716.68,1659.32 1741.86,1659.22 1767.04,1332.83 1792.22,1006.35 1817.4,1126.29 1842.58,1418.63 1867.76,1471.97 1892.93,1490.35 1918.11,1442.13 1943.29,1173.31 1968.47,1018.8 1993.65,947.48 2018.83,1124.89 2044.01,1295.16 2069.19,1456.1 2094.37,1580.26 2119.55,1656.81 2144.73,1661.53 2169.91,1594.12 2195.08,1138.15 2220.26,1007.25 2245.44,925.781 2270.62,897.753 2295.8,969.58 2320.98,1335.75 2346.16,1660.13 2371.34,1681.22 2396.52,1688.65 2421.7,1682.73 2446.88,1664.24 2472.06,1510.64 2497.23,881.881 2522.41,805.031 2547.59,886.402 2572.77,1548.42 "/>
<polyline clip-path="url(#clip741)" style="stroke:#800080; stroke-linecap:round; stroke-linejoin:round; stroke-width:8; stroke-opacity:1; fill:none" points="306.647,1404.46 331.827,1253.17 357.006,1212.99 382.185,1309.73 407.364,1493.47 432.543,1622.15 457.722,1650.88 482.902,1655.7 508.081,1604.57 533.26,1509.84 558.439,1376.13 583.618,1361.36 608.797,1409.48 633.977,1492.76 659.156,1569.21 684.335,1629.89 709.514,1665.75 734.693,1665.65 759.872,1562.78 785.051,1322.79 810.231,1096.16 835.41,995.8 860.589,975.708 885.768,1277.98 910.947,1542.09 936.126,1607.99 961.306,1648.47 986.485,1653.9 1011.66,1516.77 1036.84,1395.82 1062.02,1393.51 1087.2,1241.22 1112.38,1246.94 1137.56,1263.22 1162.74,1341.78 1187.92,1585.89 1213.1,1580.16 1238.28,1522.5 1263.46,1353.73 1288.63,1267.03 1313.81,1046.83 1338.99,909.607 1364.17,1187.87 1389.35,1379.35 1414.53,1481.21 1439.71,1544.4 1464.89,1564.89 1490.07,1502 1515.25,1371.91 1540.43,1244.63 1565.61,1190.29 1590.78,1240.31 1615.96,1368.4 1641.14,1525.81 1666.32,1617.73 1691.5,1635.11 1716.68,1611.6 1741.86,1557.46 1767.04,1390.6 1792.22,1098.27 1817.4,1068.73 1842.58,1157.23 1867.76,1643.45 1892.93,1672.48 1918.11,1652.09 1943.29,1589.7 1968.47,1502.31 1993.65,1376.43 2018.83,1309.43 2044.01,1271.15 2069.19,1296.57 2094.37,1401.75 2119.55,1534.15 2144.73,1638.23 2169.91,1674.69 2195.08,1671.38 2220.26,1606.88 2245.44,1502.81 2270.62,1385.37 2295.8,1281.2 2320.98,1213.69 2346.16,1164.37 2371.34,1181.85 2396.52,1328.01 2421.7,1514.46 2446.88,1636.62 2472.06,1623.26 2497.23,1545.9 2522.41,1457.4 2547.59,1408.38 2572.77,1351.12 "/>
<path clip-path="url(#clip740)" d="M2215.34 336.856 L2560.69 336.856 L2560.69 181.336 L2215.34 181.336  Z" fill="#ffffff" fill-rule="evenodd" fill-opacity="1"/>
<polyline clip-path="url(#clip740)" style="stroke:#000000; stroke-linecap:round; stroke-linejoin:round; stroke-width:4; stroke-opacity:1; fill:none" points="2215.34,336.856 2560.69,336.856 2560.69,181.336 2215.34,181.336 2215.34,336.856 "/>
<polyline clip-path="url(#clip740)" style="stroke:#ffa500; stroke-linecap:round; stroke-linejoin:round; stroke-width:8; stroke-opacity:1; fill:none" points="2242.03,233.176 2402.17,233.176 "/>
<path clip-path="url(#clip740)" d="M2428.86 215.896 L2433.53 215.896 L2433.53 230.063 L2450.52 230.063 L2450.52 215.896 L2455.2 215.896 L2455.2 250.456 L2450.52 250.456 L2450.52 233.998 L2433.53 233.998 L2433.53 250.456 L2428.86 250.456 L2428.86 215.896 Z" fill="#000000" fill-rule="nonzero" fill-opacity="1" /><path clip-path="url(#clip740)" d="M2476.1 237.424 Q2470.94 237.424 2468.95 238.604 Q2466.96 239.785 2466.96 242.632 Q2466.96 244.901 2468.44 246.243 Q2469.95 247.563 2472.52 247.563 Q2476.06 247.563 2478.19 245.063 Q2480.34 242.54 2480.34 238.373 L2480.34 237.424 L2476.1 237.424 M2484.6 235.665 L2484.6 250.456 L2480.34 250.456 L2480.34 246.521 Q2478.88 248.882 2476.7 250.016 Q2474.53 251.128 2471.38 251.128 Q2467.4 251.128 2465.04 248.905 Q2462.7 246.66 2462.7 242.91 Q2462.7 238.535 2465.62 236.313 Q2468.56 234.091 2474.37 234.091 L2480.34 234.091 L2480.34 233.674 Q2480.34 230.734 2478.39 229.137 Q2476.47 227.517 2472.98 227.517 Q2470.76 227.517 2468.65 228.049 Q2466.54 228.581 2464.6 229.646 L2464.6 225.711 Q2466.94 224.808 2469.14 224.368 Q2471.33 223.906 2473.42 223.906 Q2479.04 223.906 2481.82 226.822 Q2484.6 229.739 2484.6 235.665 Z" fill="#000000" fill-rule="nonzero" fill-opacity="1" /><path clip-path="url(#clip740)" d="M2508.39 228.512 Q2507.68 228.095 2506.82 227.91 Q2505.99 227.702 2504.97 227.702 Q2501.36 227.702 2499.41 230.063 Q2497.49 232.401 2497.49 236.799 L2497.49 250.456 L2493.21 250.456 L2493.21 224.531 L2497.49 224.531 L2497.49 228.558 Q2498.83 226.197 2500.99 225.063 Q2503.14 223.906 2506.22 223.906 Q2506.66 223.906 2507.19 223.975 Q2507.72 224.021 2508.37 224.137 L2508.39 228.512 Z" fill="#000000" fill-rule="nonzero" fill-opacity="1" /><path clip-path="url(#clip740)" d="M2534 236.429 L2534 238.512 L2514.41 238.512 Q2514.69 242.91 2517.05 245.225 Q2519.44 247.516 2523.67 247.516 Q2526.13 247.516 2528.42 246.915 Q2530.73 246.313 2533 245.109 L2533 249.137 Q2530.71 250.109 2528.3 250.618 Q2525.89 251.128 2523.42 251.128 Q2517.21 251.128 2513.58 247.516 Q2509.97 243.905 2509.97 237.748 Q2509.97 231.382 2513.39 227.655 Q2516.84 223.906 2522.68 223.906 Q2527.91 223.906 2530.94 227.285 Q2534 230.642 2534 236.429 M2529.74 235.179 Q2529.69 231.683 2527.77 229.6 Q2525.87 227.517 2522.72 227.517 Q2519.16 227.517 2517.01 229.53 Q2514.88 231.544 2514.55 235.202 L2529.74 235.179 Z" fill="#000000" fill-rule="nonzero" fill-opacity="1" /><polyline clip-path="url(#clip740)" style="stroke:#800080; stroke-linecap:round; stroke-linejoin:round; stroke-width:8; stroke-opacity:1; fill:none" points="2242.03,285.016 2402.17,285.016 "/>
<path clip-path="url(#clip740)" d="M2428.86 267.736 L2433.53 267.736 L2433.53 298.361 L2450.36 298.361 L2450.36 302.296 L2428.86 302.296 L2428.86 267.736 Z" fill="#000000" fill-rule="nonzero" fill-opacity="1" /><path clip-path="url(#clip740)" d="M2461.52 304.704 Q2459.71 309.333 2458 310.745 Q2456.29 312.157 2453.42 312.157 L2450.02 312.157 L2450.02 308.593 L2452.52 308.593 Q2454.27 308.593 2455.25 307.759 Q2456.22 306.926 2457.4 303.824 L2458.16 301.88 L2447.68 276.371 L2452.19 276.371 L2460.29 296.648 L2468.39 276.371 L2472.91 276.371 L2461.52 304.704 Z" fill="#000000" fill-rule="nonzero" fill-opacity="1" /><path clip-path="url(#clip740)" d="M2500.34 286.648 L2500.34 302.296 L2496.08 302.296 L2496.08 286.787 Q2496.08 283.107 2494.64 281.278 Q2493.21 279.449 2490.34 279.449 Q2486.89 279.449 2484.9 281.648 Q2482.91 283.847 2482.91 287.644 L2482.91 302.296 L2478.63 302.296 L2478.63 276.371 L2482.91 276.371 L2482.91 280.398 Q2484.44 278.06 2486.5 276.903 Q2488.58 275.746 2491.29 275.746 Q2495.76 275.746 2498.05 278.523 Q2500.34 281.278 2500.34 286.648 Z" fill="#000000" fill-rule="nonzero" fill-opacity="1" /><path clip-path="url(#clip740)" d="M2530.39 276.371 L2521.01 288.986 L2530.87 302.296 L2525.85 302.296 L2518.3 292.111 L2510.76 302.296 L2505.73 302.296 L2515.8 288.732 L2506.59 276.371 L2511.61 276.371 L2518.49 285.607 L2525.36 276.371 L2530.39 276.371 Z" fill="#000000" fill-rule="nonzero" fill-opacity="1" /></svg>
