<?xml version="1.0" encoding="utf-8"?>
<svg xmlns="http://www.w3.org/2000/svg" xmlns:xlink="http://www.w3.org/1999/xlink" width="800" height="350" viewBox="0 0 3200 1400">
<defs>
  <clipPath id="clip800">
    <rect x="0" y="0" width="3200" height="1400"/>
  </clipPath>
</defs>
<path clip-path="url(#clip800)" d="M0 1400 L3200 1400 L3200 0 L0 0  Z" fill="#ffffff" fill-rule="evenodd" fill-opacity="1"/>
<defs>
  <clipPath id="clip801">
    <rect x="1845" y="102" width="1308" height="1152"/>
  </clipPath>
</defs>
<path clip-path="url(#clip800)" d="M249.355 1253.39 L1556.83 1253.39 L1556.83 102.682 L249.355 102.682  Z" fill="#ffffff" fill-rule="evenodd" fill-opacity="1"/>
<defs>
  <clipPath id="clip802">
    <rect x="249" y="102" width="1308" height="1152"/>
  </clipPath>
</defs>
<polyline clip-path="url(#clip802)" style="stroke:#000000; stroke-linecap:round; stroke-linejoin:round; stroke-width:2; stroke-opacity:0.1; fill:none" points="278.601,1253.39 278.601,102.682 "/>
<polyline clip-path="url(#clip802)" style="stroke:#000000; stroke-linecap:round; stroke-linejoin:round; stroke-width:2; stroke-opacity:0.1; fill:none" points="666.484,1253.39 666.484,102.682 "/>
<polyline clip-path="url(#clip802)" style="stroke:#000000; stroke-linecap:round; stroke-linejoin:round; stroke-width:2; stroke-opacity:0.1; fill:none" points="1054.37,1253.39 1054.37,102.682 "/>
<polyline clip-path="url(#clip802)" style="stroke:#000000; stroke-linecap:round; stroke-linejoin:round; stroke-width:2; stroke-opacity:0.1; fill:none" points="1442.25,1253.39 1442.25,102.682 "/>
<polyline clip-path="url(#clip802)" style="stroke:#000000; stroke-linecap:round; stroke-linejoin:round; stroke-width:2; stroke-opacity:0.1; fill:none" points="249.355,1157.92 1556.83,1157.92 "/>
<polyline clip-path="url(#clip802)" style="stroke:#000000; stroke-linecap:round; stroke-linejoin:round; stroke-width:2; stroke-opacity:0.1; fill:none" points="249.355,1002.55 1556.83,1002.55 "/>
<polyline clip-path="url(#clip802)" style="stroke:#000000; stroke-linecap:round; stroke-linejoin:round; stroke-width:2; stroke-opacity:0.1; fill:none" points="249.355,847.192 1556.83,847.192 "/>
<polyline clip-path="url(#clip802)" style="stroke:#000000; stroke-linecap:round; stroke-linejoin:round; stroke-width:2; stroke-opacity:0.1; fill:none" points="249.355,691.829 1556.83,691.829 "/>
<polyline clip-path="url(#clip802)" style="stroke:#000000; stroke-linecap:round; stroke-linejoin:round; stroke-width:2; stroke-opacity:0.1; fill:none" points="249.355,536.466 1556.83,536.466 "/>
<polyline clip-path="url(#clip802)" style="stroke:#000000; stroke-linecap:round; stroke-linejoin:round; stroke-width:2; stroke-opacity:0.1; fill:none" points="249.355,381.103 1556.83,381.103 "/>
<polyline clip-path="url(#clip802)" style="stroke:#000000; stroke-linecap:round; stroke-linejoin:round; stroke-width:2; stroke-opacity:0.1; fill:none" points="249.355,225.74 1556.83,225.74 "/>
<polyline clip-path="url(#clip800)" style="stroke:#000000; stroke-linecap:round; stroke-linejoin:round; stroke-width:4; stroke-opacity:1; fill:none" points="249.355,1253.39 1556.83,1253.39 "/>
<polyline clip-path="url(#clip800)" style="stroke:#000000; stroke-linecap:round; stroke-linejoin:round; stroke-width:4; stroke-opacity:1; fill:none" points="278.601,1253.39 278.601,1234.5 "/>
<polyline clip-path="url(#clip800)" style="stroke:#000000; stroke-linecap:round; stroke-linejoin:round; stroke-width:4; stroke-opacity:1; fill:none" points="666.484,1253.39 666.484,1234.5 "/>
<polyline clip-path="url(#clip800)" style="stroke:#000000; stroke-linecap:round; stroke-linejoin:round; stroke-width:4; stroke-opacity:1; fill:none" points="1054.37,1253.39 1054.37,1234.5 "/>
<polyline clip-path="url(#clip800)" style="stroke:#000000; stroke-linecap:round; stroke-linejoin:round; stroke-width:4; stroke-opacity:1; fill:none" points="1442.25,1253.39 1442.25,1234.5 "/>
<path clip-path="url(#clip800)" d="M278.601 1290.71 Q274.99 1290.71 273.162 1294.28 Q271.356 1297.82 271.356 1304.95 Q271.356 1312.06 273.162 1315.62 Q274.99 1319.16 278.601 1319.16 Q282.236 1319.16 284.041 1315.62 Q285.87 1312.06 285.87 1304.95 Q285.87 1297.82 284.041 1294.28 Q282.236 1290.71 278.601 1290.71 M278.601 1287.01 Q284.412 1287.01 287.467 1291.62 Q290.546 1296.2 290.546 1304.95 Q290.546 1313.68 287.467 1318.28 Q284.412 1322.87 278.601 1322.87 Q272.791 1322.87 269.713 1318.28 Q266.657 1313.68 266.657 1304.95 Q266.657 1296.2 269.713 1291.62 Q272.791 1287.01 278.601 1287.01 Z" fill="#000000" fill-rule="nonzero" fill-opacity="1" /><path clip-path="url(#clip800)" d="M641.183 1287.63 L659.54 1287.63 L659.54 1291.57 L645.466 1291.57 L645.466 1300.04 Q646.484 1299.69 647.503 1299.53 Q648.521 1299.35 649.54 1299.35 Q655.327 1299.35 658.706 1302.52 Q662.086 1305.69 662.086 1311.11 Q662.086 1316.69 658.614 1319.79 Q655.142 1322.87 648.822 1322.87 Q646.646 1322.87 644.378 1322.5 Q642.132 1322.13 639.725 1321.38 L639.725 1316.69 Q641.808 1317.82 644.031 1318.38 Q646.253 1318.93 648.73 1318.93 Q652.734 1318.93 655.072 1316.82 Q657.41 1314.72 657.41 1311.11 Q657.41 1307.5 655.072 1305.39 Q652.734 1303.28 648.73 1303.28 Q646.855 1303.28 644.98 1303.7 Q643.128 1304.12 641.183 1305 L641.183 1287.63 Z" fill="#000000" fill-rule="nonzero" fill-opacity="1" /><path clip-path="url(#clip800)" d="M681.299 1290.71 Q677.688 1290.71 675.859 1294.28 Q674.054 1297.82 674.054 1304.95 Q674.054 1312.06 675.859 1315.62 Q677.688 1319.16 681.299 1319.16 Q684.933 1319.16 686.739 1315.62 Q688.567 1312.06 688.567 1304.95 Q688.567 1297.82 686.739 1294.28 Q684.933 1290.71 681.299 1290.71 M681.299 1287.01 Q687.109 1287.01 690.165 1291.62 Q693.243 1296.2 693.243 1304.95 Q693.243 1313.68 690.165 1318.28 Q687.109 1322.87 681.299 1322.87 Q675.489 1322.87 672.41 1318.28 Q669.354 1313.68 669.354 1304.95 Q669.354 1296.2 672.41 1291.62 Q675.489 1287.01 681.299 1287.01 Z" fill="#000000" fill-rule="nonzero" fill-opacity="1" /><path clip-path="url(#clip800)" d="M1013.97 1318.26 L1021.61 1318.26 L1021.61 1291.89 L1013.3 1293.56 L1013.3 1289.3 L1021.57 1287.63 L1026.24 1287.63 L1026.24 1318.26 L1033.88 1318.26 L1033.88 1322.19 L1013.97 1322.19 L1013.97 1318.26 Z" fill="#000000" fill-rule="nonzero" fill-opacity="1" /><path clip-path="url(#clip800)" d="M1053.33 1290.71 Q1049.71 1290.71 1047.89 1294.28 Q1046.08 1297.82 1046.08 1304.95 Q1046.08 1312.06 1047.89 1315.62 Q1049.71 1319.16 1053.33 1319.16 Q1056.96 1319.16 1058.76 1315.62 Q1060.59 1312.06 1060.59 1304.95 Q1060.59 1297.82 1058.76 1294.28 Q1056.96 1290.71 1053.33 1290.71 M1053.33 1287.01 Q1059.14 1287.01 1062.19 1291.62 Q1065.27 1296.2 1065.27 1304.95 Q1065.27 1313.68 1062.19 1318.28 Q1059.14 1322.87 1053.33 1322.87 Q1047.51 1322.87 1044.44 1318.28 Q1041.38 1313.68 1041.38 1304.95 Q1041.38 1296.2 1044.44 1291.62 Q1047.51 1287.01 1053.33 1287.01 Z" fill="#000000" fill-rule="nonzero" fill-opacity="1" /><path clip-path="url(#clip800)" d="M1083.49 1290.71 Q1079.88 1290.71 1078.05 1294.28 Q1076.24 1297.82 1076.24 1304.95 Q1076.24 1312.06 1078.05 1315.62 Q1079.88 1319.16 1083.49 1319.16 Q1087.12 1319.16 1088.93 1315.62 Q1090.76 1312.06 1090.76 1304.95 Q1090.76 1297.82 1088.93 1294.28 Q1087.12 1290.71 1083.49 1290.71 M1083.49 1287.01 Q1089.3 1287.01 1092.35 1291.62 Q1095.43 1296.2 1095.43 1304.95 Q1095.43 1313.68 1092.35 1318.28 Q1089.3 1322.87 1083.49 1322.87 Q1077.68 1322.87 1074.6 1318.28 Q1071.54 1313.68 1071.54 1304.95 Q1071.54 1296.2 1074.6 1291.62 Q1077.68 1287.01 1083.49 1287.01 Z" fill="#000000" fill-rule="nonzero" fill-opacity="1" /><path clip-path="url(#clip800)" d="M1401.86 1318.26 L1409.49 1318.26 L1409.49 1291.89 L1401.18 1293.56 L1401.18 1289.3 L1409.45 1287.63 L1414.12 1287.63 L1414.12 1318.26 L1421.76 1318.26 L1421.76 1322.19 L1401.86 1322.19 L1401.86 1318.26 Z" fill="#000000" fill-rule="nonzero" fill-opacity="1" /><path clip-path="url(#clip800)" d="M1431.25 1287.63 L1449.61 1287.63 L1449.61 1291.57 L1435.54 1291.57 L1435.54 1300.04 Q1436.56 1299.69 1437.57 1299.53 Q1438.59 1299.35 1439.61 1299.35 Q1445.4 1299.35 1448.78 1302.52 Q1452.16 1305.69 1452.16 1311.11 Q1452.16 1316.69 1448.68 1319.79 Q1445.21 1322.87 1438.89 1322.87 Q1436.72 1322.87 1434.45 1322.5 Q1432.2 1322.13 1429.8 1321.38 L1429.8 1316.69 Q1431.88 1317.82 1434.1 1318.38 Q1436.32 1318.93 1438.8 1318.93 Q1442.8 1318.93 1445.14 1316.82 Q1447.48 1314.72 1447.48 1311.11 Q1447.48 1307.5 1445.14 1305.39 Q1442.8 1303.28 1438.8 1303.28 Q1436.93 1303.28 1435.05 1303.7 Q1433.2 1304.12 1431.25 1305 L1431.25 1287.63 Z" fill="#000000" fill-rule="nonzero" fill-opacity="1" /><path clip-path="url(#clip800)" d="M1471.37 1290.71 Q1467.76 1290.71 1465.93 1294.28 Q1464.12 1297.82 1464.12 1304.95 Q1464.12 1312.06 1465.93 1315.62 Q1467.76 1319.16 1471.37 1319.16 Q1475 1319.16 1476.81 1315.62 Q1478.64 1312.06 1478.64 1304.95 Q1478.64 1297.82 1476.81 1294.28 Q1475 1290.71 1471.37 1290.71 M1471.37 1287.01 Q1477.18 1287.01 1480.24 1291.62 Q1483.31 1296.2 1483.31 1304.95 Q1483.31 1313.68 1480.24 1318.28 Q1477.18 1322.87 1471.37 1322.87 Q1465.56 1322.87 1462.48 1318.28 Q1459.43 1313.68 1459.43 1304.95 Q1459.43 1296.2 1462.48 1291.62 Q1465.56 1287.01 1471.37 1287.01 Z" fill="#000000" fill-rule="nonzero" fill-opacity="1" /><path clip-path="url(#clip800)" d="M667.545 1362.74 L673.975 1362.74 L673.975 1382.22 L697.337 1382.22 L697.337 1362.74 L703.766 1362.74 L703.766 1410.26 L697.337 1410.26 L697.337 1387.63 L673.975 1387.63 L673.975 1410.26 L667.545 1410.26 L667.545 1362.74 Z" fill="#000000" fill-rule="nonzero" fill-opacity="1" /><path clip-path="url(#clip800)" d="M732.508 1392.34 Q725.41 1392.34 722.673 1393.96 Q719.935 1395.59 719.935 1399.5 Q719.935 1402.62 721.972 1404.47 Q724.041 1406.28 727.574 1406.28 Q732.444 1406.28 735.372 1402.84 Q738.332 1399.37 738.332 1393.64 L738.332 1392.34 L732.508 1392.34 M744.189 1389.92 L744.189 1410.26 L738.332 1410.26 L738.332 1404.85 Q736.327 1408.09 733.335 1409.65 Q730.343 1411.18 726.015 1411.18 Q720.54 1411.18 717.293 1408.13 Q714.079 1405.04 714.079 1399.88 Q714.079 1393.87 718.089 1390.81 Q722.131 1387.76 730.12 1387.76 L738.332 1387.76 L738.332 1387.18 Q738.332 1383.14 735.659 1380.94 Q733.017 1378.72 728.211 1378.72 Q725.155 1378.72 722.259 1379.45 Q719.362 1380.18 716.689 1381.64 L716.689 1376.23 Q719.903 1374.99 722.927 1374.39 Q725.951 1373.75 728.815 1373.75 Q736.55 1373.75 740.369 1377.76 Q744.189 1381.77 744.189 1389.92 Z" fill="#000000" fill-rule="nonzero" fill-opacity="1" /><path clip-path="url(#clip800)" d="M776.908 1380.09 Q775.922 1379.51 774.744 1379.26 Q773.598 1378.97 772.198 1378.97 Q767.232 1378.97 764.559 1382.22 Q761.917 1385.43 761.917 1391.48 L761.917 1410.26 L756.029 1410.26 L756.029 1374.61 L761.917 1374.61 L761.917 1380.15 Q763.763 1376.9 766.723 1375.34 Q769.683 1373.75 773.916 1373.75 Q774.521 1373.75 775.253 1373.85 Q775.985 1373.91 776.876 1374.07 L776.908 1380.09 Z" fill="#000000" fill-rule="nonzero" fill-opacity="1" /><path clip-path="url(#clip800)" d="M812.111 1390.97 L812.111 1393.84 L785.184 1393.84 Q785.566 1399.88 788.812 1403.07 Q792.091 1406.22 797.915 1406.22 Q801.289 1406.22 804.44 1405.39 Q807.623 1404.56 810.742 1402.91 L810.742 1408.44 Q807.591 1409.78 804.281 1410.48 Q800.971 1411.18 797.565 1411.18 Q789.035 1411.18 784.038 1406.22 Q779.073 1401.25 779.073 1392.78 Q779.073 1384.03 783.783 1378.91 Q788.526 1373.75 796.547 1373.75 Q803.74 1373.75 807.909 1378.4 Q812.111 1383.01 812.111 1390.97 M806.254 1389.25 Q806.191 1384.45 803.549 1381.58 Q800.939 1378.72 796.61 1378.72 Q791.709 1378.72 788.749 1381.49 Q785.82 1384.25 785.375 1389.28 L806.254 1389.25 Z" fill="#000000" fill-rule="nonzero" fill-opacity="1" /><path clip-path="url(#clip800)" d="M865.901 1380.02 L865.901 1360.73 L871.757 1360.73 L871.757 1410.26 L865.901 1410.26 L865.901 1404.91 Q864.055 1408.09 861.222 1409.65 Q858.421 1411.18 854.474 1411.18 Q848.013 1411.18 843.939 1406.03 Q839.897 1400.87 839.897 1392.47 Q839.897 1384.06 843.939 1378.91 Q848.013 1373.75 854.474 1373.75 Q858.421 1373.75 861.222 1375.31 Q864.055 1376.84 865.901 1380.02 M845.944 1392.47 Q845.944 1398.93 848.586 1402.62 Q851.26 1406.28 855.907 1406.28 Q860.554 1406.28 863.227 1402.62 Q865.901 1398.93 865.901 1392.47 Q865.901 1386.01 863.227 1382.35 Q860.554 1378.65 855.907 1378.65 Q851.26 1378.65 848.586 1382.35 Q845.944 1386.01 845.944 1392.47 Z" fill="#000000" fill-rule="nonzero" fill-opacity="1" /><path clip-path="url(#clip800)" d="M914.312 1390.97 L914.312 1393.84 L887.385 1393.84 Q887.767 1399.88 891.014 1403.07 Q894.292 1406.22 900.117 1406.22 Q903.49 1406.22 906.641 1405.39 Q909.824 1404.56 912.943 1402.91 L912.943 1408.44 Q909.792 1409.78 906.482 1410.48 Q903.172 1411.18 899.766 1411.18 Q891.236 1411.18 886.239 1406.22 Q881.274 1401.25 881.274 1392.78 Q881.274 1384.03 885.985 1378.91 Q890.727 1373.75 898.748 1373.75 Q905.941 1373.75 910.111 1378.4 Q914.312 1383.01 914.312 1390.97 M908.456 1389.25 Q908.392 1384.45 905.75 1381.58 Q903.14 1378.72 898.812 1378.72 Q893.91 1378.72 890.95 1381.49 Q888.022 1384.25 887.576 1389.28 L908.456 1389.25 Z" fill="#000000" fill-rule="nonzero" fill-opacity="1" /><path clip-path="url(#clip800)" d="M953.557 1388.74 L953.557 1410.26 L947.7 1410.26 L947.7 1388.93 Q947.7 1383.87 945.727 1381.36 Q943.753 1378.84 939.807 1378.84 Q935.064 1378.84 932.327 1381.87 Q929.59 1384.89 929.59 1390.11 L929.59 1410.26 L923.702 1410.26 L923.702 1374.61 L929.59 1374.61 L929.59 1380.15 Q931.69 1376.93 934.523 1375.34 Q937.388 1373.75 941.112 1373.75 Q947.255 1373.75 950.406 1377.57 Q953.557 1381.36 953.557 1388.74 Z" fill="#000000" fill-rule="nonzero" fill-opacity="1" /><path clip-path="url(#clip800)" d="M987.963 1375.66 L987.963 1381.2 Q985.481 1379.93 982.807 1379.29 Q980.134 1378.65 977.269 1378.65 Q972.908 1378.65 970.712 1379.99 Q968.548 1381.33 968.548 1384 Q968.548 1386.04 970.108 1387.21 Q971.667 1388.36 976.378 1389.41 L978.383 1389.86 Q984.621 1391.19 987.231 1393.64 Q989.873 1396.06 989.873 1400.42 Q989.873 1405.39 985.926 1408.29 Q982.011 1411.18 975.136 1411.18 Q972.272 1411.18 969.153 1410.61 Q966.065 1410.07 962.628 1408.95 L962.628 1402.91 Q965.874 1404.59 969.025 1405.45 Q972.176 1406.28 975.264 1406.28 Q979.401 1406.28 981.629 1404.88 Q983.857 1403.45 983.857 1400.87 Q983.857 1398.48 982.234 1397.21 Q980.643 1395.94 975.2 1394.76 L973.163 1394.28 Q967.72 1393.14 965.301 1390.78 Q962.882 1388.39 962.882 1384.25 Q962.882 1379.23 966.447 1376.49 Q970.012 1373.75 976.569 1373.75 Q979.815 1373.75 982.68 1374.23 Q985.544 1374.71 987.963 1375.66 Z" fill="#000000" fill-rule="nonzero" fill-opacity="1" /><path clip-path="url(#clip800)" d="M999.199 1374.61 L1005.06 1374.61 L1005.06 1410.26 L999.199 1410.26 L999.199 1374.61 M999.199 1360.73 L1005.06 1360.73 L1005.06 1368.15 L999.199 1368.15 L999.199 1360.73 Z" fill="#000000" fill-rule="nonzero" fill-opacity="1" /><path clip-path="url(#clip800)" d="M1023.1 1364.49 L1023.1 1374.61 L1035.17 1374.61 L1035.17 1379.16 L1023.1 1379.16 L1023.1 1398.51 Q1023.1 1402.87 1024.28 1404.12 Q1025.49 1405.36 1029.15 1405.36 L1035.17 1405.36 L1035.17 1410.26 L1029.15 1410.26 Q1022.37 1410.26 1019.79 1407.74 Q1017.21 1405.2 1017.21 1398.51 L1017.21 1379.16 L1012.92 1379.16 L1012.92 1374.61 L1017.21 1374.61 L1017.21 1364.49 L1023.1 1364.49 Z" fill="#000000" fill-rule="nonzero" fill-opacity="1" /><path clip-path="url(#clip800)" d="M1057.7 1413.57 Q1055.22 1419.93 1052.86 1421.88 Q1050.51 1423.82 1046.56 1423.82 L1041.88 1423.82 L1041.88 1418.92 L1045.32 1418.92 Q1047.74 1418.92 1049.07 1417.77 Q1050.41 1416.62 1052.03 1412.36 L1053.08 1409.69 L1038.67 1374.61 L1044.87 1374.61 L1056.01 1402.49 L1067.15 1374.61 L1073.36 1374.61 L1057.7 1413.57 Z" fill="#000000" fill-rule="nonzero" fill-opacity="1" /><path clip-path="url(#clip800)" d="M1102.42 1362.74 L1108.85 1362.74 L1108.85 1382.22 L1132.21 1382.22 L1132.21 1362.74 L1138.64 1362.74 L1138.64 1410.26 L1132.21 1410.26 L1132.21 1387.63 L1108.85 1387.63 L1108.85 1410.26 L1102.42 1410.26 L1102.42 1362.74 Z" fill="#000000" fill-rule="nonzero" fill-opacity="1" /><polyline clip-path="url(#clip800)" style="stroke:#000000; stroke-linecap:round; stroke-linejoin:round; stroke-width:4; stroke-opacity:1; fill:none" points="249.355,1253.39 249.355,102.682 "/>
<polyline clip-path="url(#clip800)" style="stroke:#000000; stroke-linecap:round; stroke-linejoin:round; stroke-width:4; stroke-opacity:1; fill:none" points="249.355,1157.92 268.253,1157.92 "/>
<polyline clip-path="url(#clip800)" style="stroke:#000000; stroke-linecap:round; stroke-linejoin:round; stroke-width:4; stroke-opacity:1; fill:none" points="249.355,1002.55 268.253,1002.55 "/>
<polyline clip-path="url(#clip800)" style="stroke:#000000; stroke-linecap:round; stroke-linejoin:round; stroke-width:4; stroke-opacity:1; fill:none" points="249.355,847.192 268.253,847.192 "/>
<polyline clip-path="url(#clip800)" style="stroke:#000000; stroke-linecap:round; stroke-linejoin:round; stroke-width:4; stroke-opacity:1; fill:none" points="249.355,691.829 268.253,691.829 "/>
<polyline clip-path="url(#clip800)" style="stroke:#000000; stroke-linecap:round; stroke-linejoin:round; stroke-width:4; stroke-opacity:1; fill:none" points="249.355,536.466 268.253,536.466 "/>
<polyline clip-path="url(#clip800)" style="stroke:#000000; stroke-linecap:round; stroke-linejoin:round; stroke-width:4; stroke-opacity:1; fill:none" points="249.355,381.103 268.253,381.103 "/>
<polyline clip-path="url(#clip800)" style="stroke:#000000; stroke-linecap:round; stroke-linejoin:round; stroke-width:4; stroke-opacity:1; fill:none" points="249.355,225.74 268.253,225.74 "/>
<path clip-path="url(#clip800)" d="M94.5039 1158.37 L124.18 1158.37 L124.18 1162.3 L94.5039 1162.3 L94.5039 1158.37 Z" fill="#000000" fill-rule="nonzero" fill-opacity="1" /><path clip-path="url(#clip800)" d="M144.272 1143.72 Q140.661 1143.72 138.832 1147.28 Q137.027 1150.82 137.027 1157.95 Q137.027 1165.06 138.832 1168.62 Q140.661 1172.17 144.272 1172.17 Q147.906 1172.17 149.712 1168.62 Q151.541 1165.06 151.541 1157.95 Q151.541 1150.82 149.712 1147.28 Q147.906 1143.72 144.272 1143.72 M144.272 1140.01 Q150.082 1140.01 153.138 1144.62 Q156.216 1149.2 156.216 1157.95 Q156.216 1166.68 153.138 1171.29 Q150.082 1175.87 144.272 1175.87 Q138.462 1175.87 135.383 1171.29 Q132.328 1166.68 132.328 1157.95 Q132.328 1149.2 135.383 1144.62 Q138.462 1140.01 144.272 1140.01 Z" fill="#000000" fill-rule="nonzero" fill-opacity="1" /><path clip-path="url(#clip800)" d="M164.434 1169.32 L169.318 1169.32 L169.318 1175.2 L164.434 1175.2 L164.434 1169.32 Z" fill="#000000" fill-rule="nonzero" fill-opacity="1" /><path clip-path="url(#clip800)" d="M189.503 1158.79 Q186.17 1158.79 184.249 1160.57 Q182.351 1162.35 182.351 1165.48 Q182.351 1168.6 184.249 1170.38 Q186.17 1172.17 189.503 1172.17 Q192.837 1172.17 194.758 1170.38 Q196.679 1168.58 196.679 1165.48 Q196.679 1162.35 194.758 1160.57 Q192.86 1158.79 189.503 1158.79 M184.827 1156.79 Q181.818 1156.05 180.128 1153.99 Q178.462 1151.93 178.462 1148.97 Q178.462 1144.83 181.402 1142.42 Q184.364 1140.01 189.503 1140.01 Q194.665 1140.01 197.605 1142.42 Q200.545 1144.83 200.545 1148.97 Q200.545 1151.93 198.855 1153.99 Q197.188 1156.05 194.202 1156.79 Q197.582 1157.58 199.457 1159.87 Q201.355 1162.17 201.355 1165.48 Q201.355 1170.5 198.276 1173.18 Q195.221 1175.87 189.503 1175.87 Q183.786 1175.87 180.707 1173.18 Q177.652 1170.5 177.652 1165.48 Q177.652 1162.17 179.55 1159.87 Q181.448 1157.58 184.827 1156.79 M183.114 1149.41 Q183.114 1152.1 184.781 1153.6 Q186.471 1155.11 189.503 1155.11 Q192.513 1155.11 194.202 1153.6 Q195.915 1152.1 195.915 1149.41 Q195.915 1146.73 194.202 1145.22 Q192.513 1143.72 189.503 1143.72 Q186.471 1143.72 184.781 1145.22 Q183.114 1146.73 183.114 1149.41 Z" fill="#000000" fill-rule="nonzero" fill-opacity="1" /><path clip-path="url(#clip800)" d="M94.2492 1003.01 L123.925 1003.01 L123.925 1006.94 L94.2492 1006.94 L94.2492 1003.01 Z" fill="#000000" fill-rule="nonzero" fill-opacity="1" /><path clip-path="url(#clip800)" d="M144.017 988.353 Q140.406 988.353 138.578 991.918 Q136.772 995.46 136.772 1002.59 Q136.772 1009.7 138.578 1013.26 Q140.406 1016.8 144.017 1016.8 Q147.652 1016.8 149.457 1013.26 Q151.286 1009.7 151.286 1002.59 Q151.286 995.46 149.457 991.918 Q147.652 988.353 144.017 988.353 M144.017 984.65 Q149.828 984.65 152.883 989.256 Q155.962 993.839 155.962 1002.59 Q155.962 1011.32 152.883 1015.92 Q149.828 1020.51 144.017 1020.51 Q138.207 1020.51 135.129 1015.92 Q132.073 1011.32 132.073 1002.59 Q132.073 993.839 135.129 989.256 Q138.207 984.65 144.017 984.65 Z" fill="#000000" fill-rule="nonzero" fill-opacity="1" /><path clip-path="url(#clip800)" d="M164.179 1013.96 L169.064 1013.96 L169.064 1019.83 L164.179 1019.83 L164.179 1013.96 Z" fill="#000000" fill-rule="nonzero" fill-opacity="1" /><path clip-path="url(#clip800)" d="M189.827 1000.69 Q186.679 1000.69 184.827 1002.84 Q182.999 1005 182.999 1008.75 Q182.999 1012.47 184.827 1014.65 Q186.679 1016.8 189.827 1016.8 Q192.976 1016.8 194.804 1014.65 Q196.656 1012.47 196.656 1008.75 Q196.656 1005 194.804 1002.84 Q192.976 1000.69 189.827 1000.69 M199.11 986.039 L199.11 990.298 Q197.351 989.464 195.545 989.025 Q193.763 988.585 192.003 988.585 Q187.374 988.585 184.92 991.71 Q182.489 994.835 182.142 1001.15 Q183.508 999.14 185.568 998.075 Q187.628 996.988 190.105 996.988 Q195.314 996.988 198.323 1000.16 Q201.355 1003.31 201.355 1008.75 Q201.355 1014.07 198.207 1017.29 Q195.059 1020.51 189.827 1020.51 Q183.832 1020.51 180.661 1015.92 Q177.49 1011.32 177.49 1002.59 Q177.49 994.395 181.378 989.534 Q185.267 984.65 191.818 984.65 Q193.577 984.65 195.36 984.997 Q197.165 985.344 199.11 986.039 Z" fill="#000000" fill-rule="nonzero" fill-opacity="1" /><path clip-path="url(#clip800)" d="M93.9252 847.643 L123.601 847.643 L123.601 851.578 L93.9252 851.578 L93.9252 847.643 Z" fill="#000000" fill-rule="nonzero" fill-opacity="1" /><path clip-path="url(#clip800)" d="M143.693 832.99 Q140.082 832.99 138.254 836.555 Q136.448 840.097 136.448 847.226 Q136.448 854.333 138.254 857.898 Q140.082 861.439 143.693 861.439 Q147.328 861.439 149.133 857.898 Q150.962 854.333 150.962 847.226 Q150.962 840.097 149.133 836.555 Q147.328 832.99 143.693 832.99 M143.693 829.287 Q149.504 829.287 152.559 833.893 Q155.638 838.476 155.638 847.226 Q155.638 855.953 152.559 860.56 Q149.504 865.143 143.693 865.143 Q137.883 865.143 134.805 860.56 Q131.749 855.953 131.749 847.226 Q131.749 838.476 134.805 833.893 Q137.883 829.287 143.693 829.287 Z" fill="#000000" fill-rule="nonzero" fill-opacity="1" /><path clip-path="url(#clip800)" d="M163.855 858.592 L168.74 858.592 L168.74 864.472 L163.855 864.472 L163.855 858.592 Z" fill="#000000" fill-rule="nonzero" fill-opacity="1" /><path clip-path="url(#clip800)" d="M191.772 833.986 L179.966 852.435 L191.772 852.435 L191.772 833.986 M190.545 829.912 L196.425 829.912 L196.425 852.435 L201.355 852.435 L201.355 856.324 L196.425 856.324 L196.425 864.472 L191.772 864.472 L191.772 856.324 L176.17 856.324 L176.17 851.81 L190.545 829.912 Z" fill="#000000" fill-rule="nonzero" fill-opacity="1" /><path clip-path="url(#clip800)" d="M96.0085 692.28 L125.684 692.28 L125.684 696.215 L96.0085 696.215 L96.0085 692.28 Z" fill="#000000" fill-rule="nonzero" fill-opacity="1" /><path clip-path="url(#clip800)" d="M145.777 677.627 Q142.166 677.627 140.337 681.192 Q138.531 684.734 138.531 691.864 Q138.531 698.97 140.337 702.535 Q142.166 706.076 145.777 706.076 Q149.411 706.076 151.217 702.535 Q153.045 698.97 153.045 691.864 Q153.045 684.734 151.217 681.192 Q149.411 677.627 145.777 677.627 M145.777 673.924 Q151.587 673.924 154.642 678.53 Q157.721 683.114 157.721 691.864 Q157.721 700.59 154.642 705.197 Q151.587 709.78 145.777 709.78 Q139.967 709.78 136.888 705.197 Q133.832 700.59 133.832 691.864 Q133.832 683.114 136.888 678.53 Q139.967 673.924 145.777 673.924 Z" fill="#000000" fill-rule="nonzero" fill-opacity="1" /><path clip-path="url(#clip800)" d="M165.939 703.229 L170.823 703.229 L170.823 709.109 L165.939 709.109 L165.939 703.229 Z" fill="#000000" fill-rule="nonzero" fill-opacity="1" /><path clip-path="url(#clip800)" d="M185.036 705.174 L201.355 705.174 L201.355 709.109 L179.411 709.109 L179.411 705.174 Q182.073 702.419 186.656 697.789 Q191.263 693.137 192.443 691.794 Q194.689 689.271 195.568 687.535 Q196.471 685.776 196.471 684.086 Q196.471 681.331 194.526 679.595 Q192.605 677.859 189.503 677.859 Q187.304 677.859 184.851 678.623 Q182.42 679.387 179.642 680.938 L179.642 676.215 Q182.466 675.081 184.92 674.502 Q187.374 673.924 189.411 673.924 Q194.781 673.924 197.976 676.609 Q201.17 679.294 201.17 683.785 Q201.17 685.914 200.36 687.836 Q199.573 689.734 197.466 692.326 Q196.888 692.998 193.786 696.215 Q190.684 699.41 185.036 705.174 Z" fill="#000000" fill-rule="nonzero" fill-opacity="1" /><path clip-path="url(#clip800)" d="M144.18 522.265 Q140.568 522.265 138.74 525.829 Q136.934 529.371 136.934 536.501 Q136.934 543.607 138.74 547.172 Q140.568 550.713 144.18 550.713 Q147.814 550.713 149.619 547.172 Q151.448 543.607 151.448 536.501 Q151.448 529.371 149.619 525.829 Q147.814 522.265 144.18 522.265 M144.18 518.561 Q149.99 518.561 153.045 523.167 Q156.124 527.751 156.124 536.501 Q156.124 545.227 153.045 549.834 Q149.99 554.417 144.18 554.417 Q138.369 554.417 135.291 549.834 Q132.235 545.227 132.235 536.501 Q132.235 527.751 135.291 523.167 Q138.369 518.561 144.18 518.561 Z" fill="#000000" fill-rule="nonzero" fill-opacity="1" /><path clip-path="url(#clip800)" d="M164.341 547.866 L169.226 547.866 L169.226 553.746 L164.341 553.746 L164.341 547.866 Z" fill="#000000" fill-rule="nonzero" fill-opacity="1" /><path clip-path="url(#clip800)" d="M189.411 522.265 Q185.8 522.265 183.971 525.829 Q182.165 529.371 182.165 536.501 Q182.165 543.607 183.971 547.172 Q185.8 550.713 189.411 550.713 Q193.045 550.713 194.851 547.172 Q196.679 543.607 196.679 536.501 Q196.679 529.371 194.851 525.829 Q193.045 522.265 189.411 522.265 M189.411 518.561 Q195.221 518.561 198.276 523.167 Q201.355 527.751 201.355 536.501 Q201.355 545.227 198.276 549.834 Q195.221 554.417 189.411 554.417 Q183.601 554.417 180.522 549.834 Q177.466 545.227 177.466 536.501 Q177.466 527.751 180.522 523.167 Q183.601 518.561 189.411 518.561 Z" fill="#000000" fill-rule="nonzero" fill-opacity="1" /><path clip-path="url(#clip800)" d="M145.777 366.902 Q142.166 366.902 140.337 370.466 Q138.531 374.008 138.531 381.138 Q138.531 388.244 140.337 391.809 Q142.166 395.351 145.777 395.351 Q149.411 395.351 151.217 391.809 Q153.045 388.244 153.045 381.138 Q153.045 374.008 151.217 370.466 Q149.411 366.902 145.777 366.902 M145.777 363.198 Q151.587 363.198 154.642 367.804 Q157.721 372.388 157.721 381.138 Q157.721 389.864 154.642 394.471 Q151.587 399.054 145.777 399.054 Q139.967 399.054 136.888 394.471 Q133.832 389.864 133.832 381.138 Q133.832 372.388 136.888 367.804 Q139.967 363.198 145.777 363.198 Z" fill="#000000" fill-rule="nonzero" fill-opacity="1" /><path clip-path="url(#clip800)" d="M165.939 392.503 L170.823 392.503 L170.823 398.383 L165.939 398.383 L165.939 392.503 Z" fill="#000000" fill-rule="nonzero" fill-opacity="1" /><path clip-path="url(#clip800)" d="M185.036 394.448 L201.355 394.448 L201.355 398.383 L179.411 398.383 L179.411 394.448 Q182.073 391.693 186.656 387.064 Q191.263 382.411 192.443 381.068 Q194.689 378.545 195.568 376.809 Q196.471 375.05 196.471 373.36 Q196.471 370.605 194.526 368.869 Q192.605 367.133 189.503 367.133 Q187.304 367.133 184.851 367.897 Q182.42 368.661 179.642 370.212 L179.642 365.49 Q182.466 364.355 184.92 363.777 Q187.374 363.198 189.411 363.198 Q194.781 363.198 197.976 365.883 Q201.17 368.568 201.17 373.059 Q201.17 375.189 200.36 377.11 Q199.573 379.008 197.466 381.601 Q196.888 382.272 193.786 385.489 Q190.684 388.684 185.036 394.448 Z" fill="#000000" fill-rule="nonzero" fill-opacity="1" /><path clip-path="url(#clip800)" d="M143.693 211.539 Q140.082 211.539 138.254 215.104 Q136.448 218.645 136.448 225.775 Q136.448 232.881 138.254 236.446 Q140.082 239.988 143.693 239.988 Q147.328 239.988 149.133 236.446 Q150.962 232.881 150.962 225.775 Q150.962 218.645 149.133 215.104 Q147.328 211.539 143.693 211.539 M143.693 207.835 Q149.504 207.835 152.559 212.441 Q155.638 217.025 155.638 225.775 Q155.638 234.502 152.559 239.108 Q149.504 243.691 143.693 243.691 Q137.883 243.691 134.805 239.108 Q131.749 234.502 131.749 225.775 Q131.749 217.025 134.805 212.441 Q137.883 207.835 143.693 207.835 Z" fill="#000000" fill-rule="nonzero" fill-opacity="1" /><path clip-path="url(#clip800)" d="M163.855 237.14 L168.74 237.14 L168.74 243.02 L163.855 243.02 L163.855 237.14 Z" fill="#000000" fill-rule="nonzero" fill-opacity="1" /><path clip-path="url(#clip800)" d="M191.772 212.534 L179.966 230.983 L191.772 230.983 L191.772 212.534 M190.545 208.46 L196.425 208.46 L196.425 230.983 L201.355 230.983 L201.355 234.872 L196.425 234.872 L196.425 243.02 L191.772 243.02 L191.772 234.872 L176.17 234.872 L176.17 230.358 L190.545 208.46 Z" fill="#000000" fill-rule="nonzero" fill-opacity="1" /><path clip-path="url(#clip800)" d="M1.49571 714.737 Q0.922794 715.723 0.668166 716.901 Q0.381709 718.047 0.381709 719.447 Q0.381709 724.413 3.62822 727.086 Q6.8429 729.728 12.8903 729.728 L31.6692 729.728 L31.6692 735.616 L-3.9788 735.616 L-3.9788 729.728 L1.55937 729.728 Q-1.68715 727.882 -3.24674 724.922 Q-4.83817 721.962 -4.83817 717.729 Q-4.83817 717.124 -4.74268 716.392 Q-4.67903 715.66 -4.51988 714.769 L1.49571 714.737 Z" fill="#000000" fill-rule="nonzero" fill-opacity="1" /><path clip-path="url(#clip800)" d="M-17.7924 694.526 Q-10.4718 698.791 -3.3104 700.86 Q3.85102 702.928 11.2034 702.928 Q18.5558 702.928 25.7809 700.86 Q32.9741 698.759 40.2629 694.526 L40.2629 699.618 Q32.7832 704.393 25.5581 706.78 Q18.333 709.135 11.2034 709.135 Q4.10565 709.135 -3.0876 706.78 Q-10.2808 704.424 -17.7924 699.618 L-17.7924 694.526 Z" fill="#000000" fill-rule="nonzero" fill-opacity="1" /><path clip-path="url(#clip800)" d="M-15.8508 682.908 L-15.8508 676.479 L3.62822 676.479 L3.62822 653.117 L-15.8508 653.117 L-15.8508 646.687 L31.6692 646.687 L31.6692 653.117 L9.03907 653.117 L9.03907 676.479 L31.6692 676.479 L31.6692 682.908 L-15.8508 682.908 Z" fill="#000000" fill-rule="nonzero" fill-opacity="1" /><path clip-path="url(#clip800)" d="M-17.7924 635.07 L-17.7924 629.977 Q-10.2808 625.203 -3.0876 622.848 Q4.10565 620.461 11.2034 620.461 Q18.333 620.461 25.5581 622.848 Q32.7832 625.203 40.2629 629.977 L40.2629 635.07 Q32.9741 630.837 25.7809 628.768 Q18.5558 626.667 11.2034 626.667 Q3.85102 626.667 -3.3104 628.768 Q-10.4718 630.837 -17.7924 635.07 Z" fill="#000000" fill-rule="nonzero" fill-opacity="1" /><path clip-path="url(#clip800)" d="M349.84 18.8205 L349.84 41.5461 L360.13 41.5461 Q365.841 41.5461 368.961 38.5889 Q372.08 35.6318 372.08 30.163 Q372.08 24.7348 368.961 21.7777 Q365.841 18.8205 360.13 18.8205 L349.84 18.8205 M341.657 12.096 L360.13 12.096 Q370.297 12.096 375.483 16.714 Q380.708 21.2916 380.708 30.163 Q380.708 39.1155 375.483 43.6931 Q370.297 48.2706 360.13 48.2706 L349.84 48.2706 L349.84 72.576 L341.657 72.576 L341.657 12.096 Z" fill="#000000" fill-rule="nonzero" fill-opacity="1" /><path clip-path="url(#clip800)" d="M427.213 48.0275 L427.213 51.6733 L392.942 51.6733 Q393.428 59.3701 397.56 63.421 Q401.732 67.4314 409.146 67.4314 Q413.44 67.4314 417.45 66.3781 Q421.501 65.3249 425.471 63.2184 L425.471 70.267 Q421.46 71.9684 417.247 72.8596 Q413.034 73.7508 408.7 73.7508 Q397.844 73.7508 391.484 67.4314 Q385.164 61.1119 385.164 50.3365 Q385.164 39.1965 391.16 32.6746 Q397.195 26.1121 407.404 26.1121 Q416.559 26.1121 421.865 32.0264 Q427.213 37.9003 427.213 48.0275 M419.759 45.84 Q419.678 39.7232 416.316 36.0774 Q412.994 32.4315 407.485 32.4315 Q401.246 32.4315 397.479 35.9558 Q393.752 39.4801 393.185 45.8805 L419.759 45.84 Z" fill="#000000" fill-rule="nonzero" fill-opacity="1" /><path clip-path="url(#clip800)" d="M465.737 34.1734 Q464.481 33.4443 462.982 33.1202 Q461.524 32.7556 459.741 32.7556 Q453.422 32.7556 450.019 36.8875 Q446.657 40.9789 446.657 48.6757 L446.657 72.576 L439.163 72.576 L439.163 27.2059 L446.657 27.2059 L446.657 34.2544 Q449.006 30.1225 452.774 28.1376 Q456.541 26.1121 461.929 26.1121 Q462.698 26.1121 463.63 26.2337 Q464.562 26.3147 465.696 26.5172 L465.737 34.1734 Z" fill="#000000" fill-rule="nonzero" fill-opacity="1" /><path clip-path="url(#clip800)" d="M464.481 46.5287 L486.315 46.5287 L486.315 53.1722 L464.481 53.1722 L464.481 46.5287 Z" fill="#000000" fill-rule="nonzero" fill-opacity="1" /><path clip-path="url(#clip800)" d="M530.835 28.9478 L530.835 35.9153 Q527.675 34.1734 524.475 33.3227 Q521.315 32.4315 518.074 32.4315 Q510.823 32.4315 506.813 37.0496 Q502.802 41.6271 502.802 49.9314 Q502.802 58.2358 506.813 62.8538 Q510.823 67.4314 518.074 67.4314 Q521.315 67.4314 524.475 66.5807 Q527.675 65.6895 530.835 63.9476 L530.835 70.8341 Q527.716 72.2924 524.353 73.0216 Q521.032 73.7508 517.264 73.7508 Q507.015 73.7508 500.98 67.3098 Q494.944 60.8689 494.944 49.9314 Q494.944 38.832 501.02 32.472 Q507.137 26.1121 517.75 26.1121 Q521.194 26.1121 524.475 26.8413 Q527.756 27.5299 530.835 28.9478 Z" fill="#000000" fill-rule="nonzero" fill-opacity="1" /><path clip-path="url(#clip800)" d="M564.417 49.7694 Q555.383 49.7694 551.899 51.8354 Q548.416 53.9013 548.416 58.8839 Q548.416 62.8538 551.008 65.2034 Q553.641 67.5124 558.138 67.5124 Q564.336 67.5124 568.063 63.1374 Q571.83 58.7219 571.83 51.4303 L571.83 49.7694 L564.417 49.7694 M579.284 46.6907 L579.284 72.576 L571.83 72.576 L571.83 65.6895 Q569.278 69.8214 565.47 71.8063 Q561.662 73.7508 556.153 73.7508 Q549.185 73.7508 545.053 69.8619 Q540.962 65.9325 540.962 59.3701 Q540.962 51.7138 546.066 47.825 Q551.211 43.9361 561.379 43.9361 L571.83 43.9361 L571.83 43.2069 Q571.83 38.0623 568.427 35.2672 Q565.065 32.4315 558.948 32.4315 Q555.059 32.4315 551.373 33.3632 Q547.686 34.295 544.284 36.1584 L544.284 29.2718 Q548.375 27.692 552.223 26.9223 Q556.072 26.1121 559.718 26.1121 Q569.561 26.1121 574.422 31.2163 Q579.284 36.3204 579.284 46.6907 Z" fill="#000000" fill-rule="nonzero" fill-opacity="1" /><path clip-path="url(#clip800)" d="M601.847 65.7705 L601.847 89.8329 L594.353 89.8329 L594.353 27.2059 L601.847 27.2059 L601.847 34.0924 Q604.197 30.0415 607.761 28.0971 Q611.367 26.1121 616.349 26.1121 Q624.613 26.1121 629.758 32.6746 Q634.943 39.2371 634.943 49.9314 Q634.943 60.6258 629.758 67.1883 Q624.613 73.7508 616.349 73.7508 Q611.367 73.7508 607.761 71.8063 Q604.197 69.8214 601.847 65.7705 M627.206 49.9314 Q627.206 41.7081 623.803 37.0496 Q620.441 32.3505 614.526 32.3505 Q608.612 32.3505 605.209 37.0496 Q601.847 41.7081 601.847 49.9314 Q601.847 58.1548 605.209 62.8538 Q608.612 67.5124 614.526 67.5124 Q620.441 67.5124 623.803 62.8538 Q627.206 58.1548 627.206 49.9314 Z" fill="#000000" fill-rule="nonzero" fill-opacity="1" /><path clip-path="url(#clip800)" d="M647.298 27.2059 L654.752 27.2059 L654.752 72.576 L647.298 72.576 L647.298 27.2059 M647.298 9.54393 L654.752 9.54393 L654.752 18.9825 L647.298 18.9825 L647.298 9.54393 Z" fill="#000000" fill-rule="nonzero" fill-opacity="1" /><path clip-path="url(#clip800)" d="M677.72 14.324 L677.72 27.2059 L693.073 27.2059 L693.073 32.9987 L677.72 32.9987 L677.72 57.6282 Q677.72 63.1779 679.219 64.7578 Q680.759 66.3376 685.417 66.3376 L693.073 66.3376 L693.073 72.576 L685.417 72.576 Q676.789 72.576 673.508 69.3758 Q670.226 66.1351 670.226 57.6282 L670.226 32.9987 L664.758 32.9987 L664.758 27.2059 L670.226 27.2059 L670.226 14.324 L677.72 14.324 Z" fill="#000000" fill-rule="nonzero" fill-opacity="1" /><path clip-path="url(#clip800)" d="M723.496 49.7694 Q714.462 49.7694 710.978 51.8354 Q707.495 53.9013 707.495 58.8839 Q707.495 62.8538 710.087 65.2034 Q712.72 67.5124 717.217 67.5124 Q723.415 67.5124 727.142 63.1374 Q730.909 58.7219 730.909 51.4303 L730.909 49.7694 L723.496 49.7694 M738.363 46.6907 L738.363 72.576 L730.909 72.576 L730.909 65.6895 Q728.357 69.8214 724.549 71.8063 Q720.741 73.7508 715.232 73.7508 Q708.264 73.7508 704.132 69.8619 Q700.041 65.9325 700.041 59.3701 Q700.041 51.7138 705.145 47.825 Q710.29 43.9361 720.458 43.9361 L730.909 43.9361 L730.909 43.2069 Q730.909 38.0623 727.506 35.2672 Q724.144 32.4315 718.027 32.4315 Q714.138 32.4315 710.452 33.3632 Q706.765 34.295 703.363 36.1584 L703.363 29.2718 Q707.454 27.692 711.302 26.9223 Q715.151 26.1121 718.797 26.1121 Q728.64 26.1121 733.501 31.2163 Q738.363 36.3204 738.363 46.6907 Z" fill="#000000" fill-rule="nonzero" fill-opacity="1" /><path clip-path="url(#clip800)" d="M817.801 45.1919 L817.801 72.576 L810.347 72.576 L810.347 45.4349 Q810.347 38.994 807.836 35.7938 Q805.324 32.5936 800.301 32.5936 Q794.265 32.5936 790.781 36.4419 Q787.297 40.2903 787.297 46.9338 L787.297 72.576 L779.803 72.576 L779.803 9.54393 L787.297 9.54393 L787.297 34.2544 Q789.971 30.163 793.576 28.1376 Q797.222 26.1121 801.962 26.1121 Q809.78 26.1121 813.79 30.9732 Q817.801 35.7938 817.801 45.1919 Z" fill="#000000" fill-rule="nonzero" fill-opacity="1" /><path clip-path="url(#clip800)" d="M853.287 49.7694 Q844.253 49.7694 840.769 51.8354 Q837.286 53.9013 837.286 58.8839 Q837.286 62.8538 839.878 65.2034 Q842.511 67.5124 847.008 67.5124 Q853.206 67.5124 856.932 63.1374 Q860.7 58.7219 860.7 51.4303 L860.7 49.7694 L853.287 49.7694 M868.153 46.6907 L868.153 72.576 L860.7 72.576 L860.7 65.6895 Q858.148 69.8214 854.34 71.8063 Q850.532 73.7508 845.023 73.7508 Q838.055 73.7508 833.923 69.8619 Q829.832 65.9325 829.832 59.3701 Q829.832 51.7138 834.936 47.825 Q840.081 43.9361 850.249 43.9361 L860.7 43.9361 L860.7 43.2069 Q860.7 38.0623 857.297 35.2672 Q853.935 32.4315 847.818 32.4315 Q843.929 32.4315 840.243 33.3632 Q836.556 34.295 833.154 36.1584 L833.154 29.2718 Q837.245 27.692 841.093 26.9223 Q844.942 26.1121 848.588 26.1121 Q858.431 26.1121 863.292 31.2163 Q868.153 36.3204 868.153 46.6907 Z" fill="#000000" fill-rule="nonzero" fill-opacity="1" /><path clip-path="url(#clip800)" d="M909.797 34.1734 Q908.541 33.4443 907.042 33.1202 Q905.584 32.7556 903.801 32.7556 Q897.482 32.7556 894.079 36.8875 Q890.717 40.9789 890.717 48.6757 L890.717 72.576 L883.223 72.576 L883.223 27.2059 L890.717 27.2059 L890.717 34.2544 Q893.067 30.1225 896.834 28.1376 Q900.601 26.1121 905.989 26.1121 Q906.759 26.1121 907.69 26.2337 Q908.622 26.3147 909.756 26.5172 L909.797 34.1734 Z" fill="#000000" fill-rule="nonzero" fill-opacity="1" /><path clip-path="url(#clip800)" d="M954.6 48.0275 L954.6 51.6733 L920.329 51.6733 Q920.815 59.3701 924.947 63.421 Q929.12 67.4314 936.533 67.4314 Q940.827 67.4314 944.837 66.3781 Q948.888 65.3249 952.858 63.2184 L952.858 70.267 Q948.848 71.9684 944.635 72.8596 Q940.422 73.7508 936.087 73.7508 Q925.231 73.7508 918.871 67.4314 Q912.551 61.1119 912.551 50.3365 Q912.551 39.1965 918.547 32.6746 Q924.583 26.1121 934.791 26.1121 Q943.946 26.1121 949.253 32.0264 Q954.6 37.9003 954.6 48.0275 M947.146 45.84 Q947.065 39.7232 943.703 36.0774 Q940.381 32.4315 934.872 32.4315 Q928.633 32.4315 924.866 35.9558 Q921.139 39.4801 920.572 45.8805 L947.146 45.84 Z" fill="#000000" fill-rule="nonzero" fill-opacity="1" /><path clip-path="url(#clip800)" d="M1023.06 49.3643 Q1023.06 41.2625 1019.7 36.8065 Q1016.38 32.3505 1010.34 32.3505 Q1004.34 32.3505 1000.98 36.8065 Q997.661 41.2625 997.661 49.3643 Q997.661 57.4256 1000.98 61.8816 Q1004.34 66.3376 1010.34 66.3376 Q1016.38 66.3376 1019.7 61.8816 Q1023.06 57.4256 1023.06 49.3643 M1030.51 66.9452 Q1030.51 78.5308 1025.37 84.1616 Q1020.22 89.8329 1009.61 89.8329 Q1005.68 89.8329 1002.2 89.2252 Q998.714 88.6581 995.433 87.4428 L995.433 80.1917 Q998.714 81.9741 1001.91 82.8248 Q1005.11 83.6755 1008.44 83.6755 Q1015.77 83.6755 1019.41 79.8271 Q1023.06 76.0193 1023.06 68.282 L1023.06 64.5957 Q1020.75 68.6061 1017.15 70.5911 Q1013.54 72.576 1008.52 72.576 Q1000.17 72.576 995.068 66.2161 Q989.964 59.8562 989.964 49.3643 Q989.964 38.832 995.068 32.472 Q1000.17 26.1121 1008.52 26.1121 Q1013.54 26.1121 1017.15 28.0971 Q1020.75 30.082 1023.06 34.0924 L1023.06 27.2059 L1030.51 27.2059 L1030.51 66.9452 Z" fill="#000000" fill-rule="nonzero" fill-opacity="1" /><path clip-path="url(#clip800)" d="M1072.16 34.1734 Q1070.9 33.4443 1069.4 33.1202 Q1067.94 32.7556 1066.16 32.7556 Q1059.84 32.7556 1056.44 36.8875 Q1053.08 40.9789 1053.08 48.6757 L1053.08 72.576 L1045.58 72.576 L1045.58 27.2059 L1053.08 27.2059 L1053.08 34.2544 Q1055.43 30.1225 1059.19 28.1376 Q1062.96 26.1121 1068.35 26.1121 Q1069.12 26.1121 1070.05 26.2337 Q1070.98 26.3147 1072.12 26.5172 L1072.16 34.1734 Z" fill="#000000" fill-rule="nonzero" fill-opacity="1" /><path clip-path="url(#clip800)" d="M1095.73 32.4315 Q1089.74 32.4315 1086.25 37.1306 Q1082.77 41.7891 1082.77 49.9314 Q1082.77 58.0738 1086.21 62.7728 Q1089.7 67.4314 1095.73 67.4314 Q1101.69 67.4314 1105.17 62.7323 Q1108.66 58.0333 1108.66 49.9314 Q1108.66 41.8701 1105.17 37.1711 Q1101.69 32.4315 1095.73 32.4315 M1095.73 26.1121 Q1105.46 26.1121 1111.01 32.4315 Q1116.55 38.7509 1116.55 49.9314 Q1116.55 61.0714 1111.01 67.4314 Q1105.46 73.7508 1095.73 73.7508 Q1085.97 73.7508 1080.42 67.4314 Q1074.91 61.0714 1074.91 49.9314 Q1074.91 38.7509 1080.42 32.4315 Q1085.97 26.1121 1095.73 26.1121 Z" fill="#000000" fill-rule="nonzero" fill-opacity="1" /><path clip-path="url(#clip800)" d="M1124.58 27.2059 L1132.03 27.2059 L1141.35 62.6108 L1150.62 27.2059 L1159.41 27.2059 L1168.73 62.6108 L1178.01 27.2059 L1185.46 27.2059 L1173.59 72.576 L1164.8 72.576 L1155.04 35.3887 L1145.24 72.576 L1136.44 72.576 L1124.58 27.2059 Z" fill="#000000" fill-rule="nonzero" fill-opacity="1" /><path clip-path="url(#clip800)" d="M1204.14 14.324 L1204.14 27.2059 L1219.49 27.2059 L1219.49 32.9987 L1204.14 32.9987 L1204.14 57.6282 Q1204.14 63.1779 1205.63 64.7578 Q1207.17 66.3376 1211.83 66.3376 L1219.49 66.3376 L1219.49 72.576 L1211.83 72.576 Q1203.2 72.576 1199.92 69.3758 Q1196.64 66.1351 1196.64 57.6282 L1196.64 32.9987 L1191.17 32.9987 L1191.17 27.2059 L1196.64 27.2059 L1196.64 14.324 L1204.14 14.324 Z" fill="#000000" fill-rule="nonzero" fill-opacity="1" /><path clip-path="url(#clip800)" d="M1267.01 45.1919 L1267.01 72.576 L1259.55 72.576 L1259.55 45.4349 Q1259.55 38.994 1257.04 35.7938 Q1254.53 32.5936 1249.51 32.5936 Q1243.47 32.5936 1239.99 36.4419 Q1236.5 40.2903 1236.5 46.9338 L1236.5 72.576 L1229.01 72.576 L1229.01 9.54393 L1236.5 9.54393 L1236.5 34.2544 Q1239.18 30.163 1242.78 28.1376 Q1246.43 26.1121 1251.17 26.1121 Q1258.98 26.1121 1263 30.9732 Q1267.01 35.7938 1267.01 45.1919 Z" fill="#000000" fill-rule="nonzero" fill-opacity="1" /><path clip-path="url(#clip800)" d="M1334.53 34.1734 Q1333.28 33.4443 1331.78 33.1202 Q1330.32 32.7556 1328.54 32.7556 Q1322.22 32.7556 1318.82 36.8875 Q1315.45 40.9789 1315.45 48.6757 L1315.45 72.576 L1307.96 72.576 L1307.96 27.2059 L1315.45 27.2059 L1315.45 34.2544 Q1317.8 30.1225 1321.57 28.1376 Q1325.34 26.1121 1330.73 26.1121 Q1331.5 26.1121 1332.43 26.2337 Q1333.36 26.3147 1334.49 26.5172 L1334.53 34.1734 Z" fill="#000000" fill-rule="nonzero" fill-opacity="1" /><path clip-path="url(#clip800)" d="M1362.97 49.7694 Q1353.94 49.7694 1350.45 51.8354 Q1346.97 53.9013 1346.97 58.8839 Q1346.97 62.8538 1349.56 65.2034 Q1352.2 67.5124 1356.69 67.5124 Q1362.89 67.5124 1366.62 63.1374 Q1370.38 58.7219 1370.38 51.4303 L1370.38 49.7694 L1362.97 49.7694 M1377.84 46.6907 L1377.84 72.576 L1370.38 72.576 L1370.38 65.6895 Q1367.83 69.8214 1364.02 71.8063 Q1360.22 73.7508 1354.71 73.7508 Q1347.74 73.7508 1343.61 69.8619 Q1339.52 65.9325 1339.52 59.3701 Q1339.52 51.7138 1344.62 47.825 Q1349.77 43.9361 1359.93 43.9361 L1370.38 43.9361 L1370.38 43.2069 Q1370.38 38.0623 1366.98 35.2672 Q1363.62 32.4315 1357.5 32.4315 Q1353.61 32.4315 1349.93 33.3632 Q1346.24 34.295 1342.84 36.1584 L1342.84 29.2718 Q1346.93 27.692 1350.78 26.9223 Q1354.63 26.1121 1358.27 26.1121 Q1368.12 26.1121 1372.98 31.2163 Q1377.84 36.3204 1377.84 46.6907 Z" fill="#000000" fill-rule="nonzero" fill-opacity="1" /><path clip-path="url(#clip800)" d="M1400.56 14.324 L1400.56 27.2059 L1415.92 27.2059 L1415.92 32.9987 L1400.56 32.9987 L1400.56 57.6282 Q1400.56 63.1779 1402.06 64.7578 Q1403.6 66.3376 1408.26 66.3376 L1415.92 66.3376 L1415.92 72.576 L1408.26 72.576 Q1399.63 72.576 1396.35 69.3758 Q1393.07 66.1351 1393.07 57.6282 L1393.07 32.9987 L1387.6 32.9987 L1387.6 27.2059 L1393.07 27.2059 L1393.07 14.324 L1400.56 14.324 Z" fill="#000000" fill-rule="nonzero" fill-opacity="1" /><path clip-path="url(#clip800)" d="M1464.53 48.0275 L1464.53 51.6733 L1430.26 51.6733 Q1430.74 59.3701 1434.87 63.421 Q1439.05 67.4314 1446.46 67.4314 Q1450.75 67.4314 1454.76 66.3781 Q1458.82 65.3249 1462.79 63.2184 L1462.79 70.267 Q1458.78 71.9684 1454.56 72.8596 Q1450.35 73.7508 1446.01 73.7508 Q1435.16 73.7508 1428.8 67.4314 Q1422.48 61.1119 1422.48 50.3365 Q1422.48 39.1965 1428.47 32.6746 Q1434.51 26.1121 1444.72 26.1121 Q1453.87 26.1121 1459.18 32.0264 Q1464.53 37.9003 1464.53 48.0275 M1457.07 45.84 Q1456.99 39.7232 1453.63 36.0774 Q1450.31 32.4315 1444.8 32.4315 Q1438.56 32.4315 1434.79 35.9558 Q1431.07 39.4801 1430.5 45.8805 L1457.07 45.84 Z" fill="#000000" fill-rule="nonzero" fill-opacity="1" /><polyline clip-path="url(#clip802)" style="stroke:#ffa500; stroke-linecap:round; stroke-linejoin:round; stroke-width:8; stroke-opacity:1; fill:none" points="286.359,135.249 298.818,141.297 311.278,147.345 323.737,153.396 336.196,159.449 348.655,165.505 361.115,171.564 373.574,177.629 386.033,183.698 398.492,189.774 410.952,195.856 423.411,201.945 435.87,208.043 448.33,214.15 460.789,220.273 473.248,226.418 485.707,232.591 498.167,238.798 510.626,245.045 523.085,251.338 535.544,257.684 548.004,264.088 560.463,270.557 572.922,277.097 585.381,283.713 597.841,290.415 610.3,297.232 622.759,304.208 635.218,311.385 647.678,318.805 660.137,326.512 672.596,334.548 685.055,342.957 697.515,351.78 709.974,361.061 722.433,370.843 734.893,381.168 747.352,392.078 759.811,403.583 772.27,415.627 784.73,428.148 797.189,441.084 809.648,454.373 822.107,467.952 834.567,481.76 847.026,495.735 859.485,509.815 871.944,523.936 884.404,538.039 896.863,552.059 909.322,565.943 921.781,579.685 934.241,593.299 946.7,606.803 959.159,620.212 971.618,633.541 984.078,646.807 996.537,660.025 1009,673.212 1021.46,686.383 1033.91,699.553 1046.37,712.74 1058.83,725.957 1071.29,739.215 1083.75,752.508 1096.21,765.833 1108.67,779.185 1121.13,792.561 1133.59,805.956 1146.05,819.365 1158.51,832.785 1170.97,846.211 1183.43,859.64 1195.89,873.066 1208.34,886.485 1220.8,899.894 1233.26,913.293 1245.72,926.684 1258.18,940.066 1270.64,953.441 1283.1,966.811 1295.56,980.177 1308.02,993.539 1320.48,1006.9 1332.94,1020.26 1345.4,1033.62 1357.86,1046.98 1370.31,1060.34 1382.77,1073.71 1395.23,1087.07 1407.69,1100.44 1420.15,1113.82 1432.61,1127.19 1445.07,1140.56 1457.53,1153.94 1469.99,1167.32 1482.45,1180.7 1494.91,1194.07 1507.37,1207.45 1519.83,1220.83 "/>
<polyline clip-path="url(#clip802)" style="stroke:#808080; stroke-linecap:round; stroke-linejoin:round; stroke-width:4; stroke-opacity:1; fill:none" stroke-dasharray="2, 4" points="-1058.12,536.466 2864.3,536.466 "/>
<path clip-path="url(#clip800)" d="M1845.28 1253.39 L3152.76 1253.39 L3152.76 102.682 L1845.28 102.682  Z" fill="#ffffff" fill-rule="evenodd" fill-opacity="1"/>
<polyline clip-path="url(#clip801)" style="stroke:#000000; stroke-linecap:round; stroke-linejoin:round; stroke-width:2; stroke-opacity:0.1; fill:none" points="1865.62,1253.39 1865.62,102.682 "/>
<polyline clip-path="url(#clip801)" style="stroke:#000000; stroke-linecap:round; stroke-linejoin:round; stroke-width:2; stroke-opacity:0.1; fill:none" points="2198.99,1253.39 2198.99,102.682 "/>
<polyline clip-path="url(#clip801)" style="stroke:#000000; stroke-linecap:round; stroke-linejoin:round; stroke-width:2; stroke-opacity:0.1; fill:none" points="2532.36,1253.39 2532.36,102.682 "/>
<polyline clip-path="url(#clip801)" style="stroke:#000000; stroke-linecap:round; stroke-linejoin:round; stroke-width:2; stroke-opacity:0.1; fill:none" points="2865.72,1253.39 2865.72,102.682 "/>
<polyline clip-path="url(#clip801)" style="stroke:#000000; stroke-linecap:round; stroke-linejoin:round; stroke-width:2; stroke-opacity:0.1; fill:none" points="1845.28,1156.02 3152.76,1156.02 "/>
<polyline clip-path="url(#clip801)" style="stroke:#000000; stroke-linecap:round; stroke-linejoin:round; stroke-width:2; stroke-opacity:0.1; fill:none" points="1845.28,996.968 3152.76,996.968 "/>
<polyline clip-path="url(#clip801)" style="stroke:#000000; stroke-linecap:round; stroke-linejoin:round; stroke-width:2; stroke-opacity:0.1; fill:none" points="1845.28,837.92 3152.76,837.92 "/>
<polyline clip-path="url(#clip801)" style="stroke:#000000; stroke-linecap:round; stroke-linejoin:round; stroke-width:2; stroke-opacity:0.1; fill:none" points="1845.28,678.871 3152.76,678.871 "/>
<polyline clip-path="url(#clip801)" style="stroke:#000000; stroke-linecap:round; stroke-linejoin:round; stroke-width:2; stroke-opacity:0.1; fill:none" points="1845.28,519.823 3152.76,519.823 "/>
<polyline clip-path="url(#clip801)" style="stroke:#000000; stroke-linecap:round; stroke-linejoin:round; stroke-width:2; stroke-opacity:0.1; fill:none" points="1845.28,360.775 3152.76,360.775 "/>
<polyline clip-path="url(#clip801)" style="stroke:#000000; stroke-linecap:round; stroke-linejoin:round; stroke-width:2; stroke-opacity:0.1; fill:none" points="1845.28,201.727 3152.76,201.727 "/>
<polyline clip-path="url(#clip800)" style="stroke:#000000; stroke-linecap:round; stroke-linejoin:round; stroke-width:4; stroke-opacity:1; fill:none" points="1845.28,1253.39 3152.76,1253.39 "/>
<polyline clip-path="url(#clip800)" style="stroke:#000000; stroke-linecap:round; stroke-linejoin:round; stroke-width:4; stroke-opacity:1; fill:none" points="1865.62,1253.39 1865.62,1234.5 "/>
<polyline clip-path="url(#clip800)" style="stroke:#000000; stroke-linecap:round; stroke-linejoin:round; stroke-width:4; stroke-opacity:1; fill:none" points="2198.99,1253.39 2198.99,1234.5 "/>
<polyline clip-path="url(#clip800)" style="stroke:#000000; stroke-linecap:round; stroke-linejoin:round; stroke-width:4; stroke-opacity:1; fill:none" points="2532.36,1253.39 2532.36,1234.5 "/>
<polyline clip-path="url(#clip800)" style="stroke:#000000; stroke-linecap:round; stroke-linejoin:round; stroke-width:4; stroke-opacity:1; fill:none" points="2865.72,1253.39 2865.72,1234.5 "/>
<path clip-path="url(#clip800)" d="M1865.62 1290.71 Q1862.01 1290.71 1860.18 1294.28 Q1858.37 1297.82 1858.37 1304.95 Q1858.37 1312.06 1860.18 1315.62 Q1862.01 1319.16 1865.62 1319.16 Q1869.25 1319.16 1871.06 1315.62 Q1872.89 1312.06 1872.89 1304.95 Q1872.89 1297.82 1871.06 1294.28 Q1869.25 1290.71 1865.62 1290.71 M1865.62 1287.01 Q1871.43 1287.01 1874.48 1291.62 Q1877.56 1296.2 1877.56 1304.95 Q1877.56 1313.68 1874.48 1318.28 Q1871.43 1322.87 1865.62 1322.87 Q1859.81 1322.87 1856.73 1318.28 Q1853.67 1313.68 1853.67 1304.95 Q1853.67 1296.2 1856.73 1291.62 Q1859.81 1287.01 1865.62 1287.01 Z" fill="#000000" fill-rule="nonzero" fill-opacity="1" /><path clip-path="url(#clip800)" d="M2177.76 1318.26 L2194.08 1318.26 L2194.08 1322.19 L2172.13 1322.19 L2172.13 1318.26 Q2174.8 1315.51 2179.38 1310.88 Q2183.99 1306.22 2185.17 1304.88 Q2187.41 1302.36 2188.29 1300.62 Q2189.19 1298.86 2189.19 1297.17 Q2189.19 1294.42 2187.25 1292.68 Q2185.33 1290.95 2182.23 1290.95 Q2180.03 1290.95 2177.57 1291.71 Q2175.14 1292.47 2172.37 1294.02 L2172.37 1289.3 Q2175.19 1288.17 2177.64 1287.59 Q2180.1 1287.01 2182.13 1287.01 Q2187.5 1287.01 2190.7 1289.7 Q2193.89 1292.38 2193.89 1296.87 Q2193.89 1299 2193.08 1300.92 Q2192.3 1302.82 2190.19 1305.41 Q2189.61 1306.08 2186.51 1309.3 Q2183.41 1312.5 2177.76 1318.26 Z" fill="#000000" fill-rule="nonzero" fill-opacity="1" /><path clip-path="url(#clip800)" d="M2213.89 1290.71 Q2210.28 1290.71 2208.45 1294.28 Q2206.65 1297.82 2206.65 1304.95 Q2206.65 1312.06 2208.45 1315.62 Q2210.28 1319.16 2213.89 1319.16 Q2217.53 1319.16 2219.33 1315.62 Q2221.16 1312.06 2221.16 1304.95 Q2221.16 1297.82 2219.33 1294.28 Q2217.53 1290.71 2213.89 1290.71 M2213.89 1287.01 Q2219.7 1287.01 2222.76 1291.62 Q2225.84 1296.2 2225.84 1304.95 Q2225.84 1313.68 2222.76 1318.28 Q2219.7 1322.87 2213.89 1322.87 Q2208.08 1322.87 2205 1318.28 Q2201.95 1313.68 2201.95 1304.95 Q2201.95 1296.2 2205 1291.62 Q2208.08 1287.01 2213.89 1287.01 Z" fill="#000000" fill-rule="nonzero" fill-opacity="1" /><path clip-path="url(#clip800)" d="M2520.53 1291.71 L2508.72 1310.16 L2520.53 1310.16 L2520.53 1291.71 M2519.3 1287.63 L2525.18 1287.63 L2525.18 1310.16 L2530.11 1310.16 L2530.11 1314.05 L2525.18 1314.05 L2525.18 1322.19 L2520.53 1322.19 L2520.53 1314.05 L2504.93 1314.05 L2504.93 1309.53 L2519.3 1287.63 Z" fill="#000000" fill-rule="nonzero" fill-opacity="1" /><path clip-path="url(#clip800)" d="M2547.84 1290.71 Q2544.23 1290.71 2542.4 1294.28 Q2540.6 1297.82 2540.6 1304.95 Q2540.6 1312.06 2542.4 1315.62 Q2544.23 1319.16 2547.84 1319.16 Q2551.48 1319.16 2553.28 1315.62 Q2555.11 1312.06 2555.11 1304.95 Q2555.11 1297.82 2553.28 1294.28 Q2551.48 1290.71 2547.84 1290.71 M2547.84 1287.01 Q2553.65 1287.01 2556.71 1291.62 Q2559.79 1296.2 2559.79 1304.95 Q2559.79 1313.68 2556.71 1318.28 Q2553.65 1322.87 2547.84 1322.87 Q2542.03 1322.87 2538.95 1318.28 Q2535.9 1313.68 2535.9 1304.95 Q2535.9 1296.2 2538.95 1291.62 Q2542.03 1287.01 2547.84 1287.01 Z" fill="#000000" fill-rule="nonzero" fill-opacity="1" /><path clip-path="url(#clip800)" d="M2851.13 1303.05 Q2847.98 1303.05 2846.13 1305.2 Q2844.3 1307.36 2844.3 1311.11 Q2844.3 1314.83 2846.13 1317.01 Q2847.98 1319.16 2851.13 1319.16 Q2854.28 1319.16 2856.11 1317.01 Q2857.96 1314.83 2857.96 1311.11 Q2857.96 1307.36 2856.11 1305.2 Q2854.28 1303.05 2851.13 1303.05 M2860.41 1288.4 L2860.41 1292.66 Q2858.65 1291.82 2856.85 1291.38 Q2855.07 1290.95 2853.31 1290.95 Q2848.68 1290.95 2846.22 1294.07 Q2843.79 1297.19 2843.44 1303.51 Q2844.81 1301.5 2846.87 1300.44 Q2848.93 1299.35 2851.41 1299.35 Q2856.62 1299.35 2859.63 1302.52 Q2862.66 1305.67 2862.66 1311.11 Q2862.66 1316.43 2859.51 1319.65 Q2856.36 1322.87 2851.13 1322.87 Q2845.13 1322.87 2841.96 1318.28 Q2838.79 1313.68 2838.79 1304.95 Q2838.79 1296.76 2842.68 1291.89 Q2846.57 1287.01 2853.12 1287.01 Q2854.88 1287.01 2856.66 1287.36 Q2858.47 1287.7 2860.41 1288.4 Z" fill="#000000" fill-rule="nonzero" fill-opacity="1" /><path clip-path="url(#clip800)" d="M2880.71 1290.71 Q2877.1 1290.71 2875.27 1294.28 Q2873.47 1297.82 2873.47 1304.95 Q2873.47 1312.06 2875.27 1315.62 Q2877.1 1319.16 2880.71 1319.16 Q2884.35 1319.16 2886.15 1315.62 Q2887.98 1312.06 2887.98 1304.95 Q2887.98 1297.82 2886.15 1294.28 Q2884.35 1290.71 2880.71 1290.71 M2880.71 1287.01 Q2886.52 1287.01 2889.58 1291.62 Q2892.66 1296.2 2892.66 1304.95 Q2892.66 1313.68 2889.58 1318.28 Q2886.52 1322.87 2880.71 1322.87 Q2874.9 1322.87 2871.82 1318.28 Q2868.77 1313.68 2868.77 1304.95 Q2868.77 1296.2 2871.82 1291.62 Q2874.9 1287.01 2880.71 1287.01 Z" fill="#000000" fill-rule="nonzero" fill-opacity="1" /><path clip-path="url(#clip800)" d="M2269.61 1362.74 L2276.04 1362.74 L2276.04 1404.85 L2299.18 1404.85 L2299.18 1410.26 L2269.61 1410.26 L2269.61 1362.74 Z" fill="#000000" fill-rule="nonzero" fill-opacity="1" /><path clip-path="url(#clip800)" d="M2314.52 1413.57 Q2312.04 1419.93 2309.69 1421.88 Q2307.33 1423.82 2303.38 1423.82 L2298.71 1423.82 L2298.71 1418.92 L2302.14 1418.92 Q2304.56 1418.92 2305.9 1417.77 Q2307.24 1416.62 2308.86 1412.36 L2309.91 1409.69 L2295.49 1374.61 L2301.7 1374.61 L2312.84 1402.49 L2323.98 1374.61 L2330.18 1374.61 L2314.52 1413.57 Z" fill="#000000" fill-rule="nonzero" fill-opacity="1" /><path clip-path="url(#clip800)" d="M2367.9 1388.74 L2367.9 1410.26 L2362.04 1410.26 L2362.04 1388.93 Q2362.04 1383.87 2360.07 1381.36 Q2358.1 1378.84 2354.15 1378.84 Q2349.41 1378.84 2346.67 1381.87 Q2343.93 1384.89 2343.93 1390.11 L2343.93 1410.26 L2338.05 1410.26 L2338.05 1374.61 L2343.93 1374.61 L2343.93 1380.15 Q2346.03 1376.93 2348.87 1375.34 Q2351.73 1373.75 2355.46 1373.75 Q2361.6 1373.75 2364.75 1377.57 Q2367.9 1381.36 2367.9 1388.74 Z" fill="#000000" fill-rule="nonzero" fill-opacity="1" /><path clip-path="url(#clip800)" d="M2409.21 1374.61 L2396.32 1391.96 L2409.88 1410.26 L2402.98 1410.26 L2392.6 1396.25 L2382.22 1410.26 L2375.32 1410.26 L2389.16 1391.61 L2376.49 1374.61 L2383.4 1374.61 L2392.85 1387.31 L2402.31 1374.61 L2409.21 1374.61 Z" fill="#000000" fill-rule="nonzero" fill-opacity="1" /><path clip-path="url(#clip800)" d="M2462.34 1380.02 L2462.34 1360.73 L2468.19 1360.73 L2468.19 1410.26 L2462.34 1410.26 L2462.34 1404.91 Q2460.49 1408.09 2457.66 1409.65 Q2454.86 1411.18 2450.91 1411.18 Q2444.45 1411.18 2440.37 1406.03 Q2436.33 1400.87 2436.33 1392.47 Q2436.33 1384.06 2440.37 1378.91 Q2444.45 1373.75 2450.91 1373.75 Q2454.86 1373.75 2457.66 1375.31 Q2460.49 1376.84 2462.34 1380.02 M2442.38 1392.47 Q2442.38 1398.93 2445.02 1402.62 Q2447.69 1406.28 2452.34 1406.28 Q2456.99 1406.28 2459.66 1402.62 Q2462.34 1398.93 2462.34 1392.47 Q2462.34 1386.01 2459.66 1382.35 Q2456.99 1378.65 2452.34 1378.65 Q2447.69 1378.65 2445.02 1382.35 Q2442.38 1386.01 2442.38 1392.47 Z" fill="#000000" fill-rule="nonzero" fill-opacity="1" /><path clip-path="url(#clip800)" d="M2510.75 1390.97 L2510.75 1393.84 L2483.82 1393.84 Q2484.2 1399.88 2487.45 1403.07 Q2490.73 1406.22 2496.55 1406.22 Q2499.93 1406.22 2503.08 1405.39 Q2506.26 1404.56 2509.38 1402.91 L2509.38 1408.44 Q2506.23 1409.78 2502.92 1410.48 Q2499.61 1411.18 2496.2 1411.18 Q2487.67 1411.18 2482.67 1406.22 Q2477.71 1401.25 2477.71 1392.78 Q2477.71 1384.03 2482.42 1378.91 Q2487.16 1373.75 2495.18 1373.75 Q2502.38 1373.75 2506.55 1378.4 Q2510.75 1383.01 2510.75 1390.97 M2504.89 1389.25 Q2504.83 1384.45 2502.19 1381.58 Q2499.58 1378.72 2495.25 1378.72 Q2490.35 1378.72 2487.39 1381.49 Q2484.46 1384.25 2484.01 1389.28 L2504.89 1389.25 Z" fill="#000000" fill-rule="nonzero" fill-opacity="1" /><path clip-path="url(#clip800)" d="M2549.99 1388.74 L2549.99 1410.26 L2544.14 1410.26 L2544.14 1388.93 Q2544.14 1383.87 2542.16 1381.36 Q2540.19 1378.84 2536.24 1378.84 Q2531.5 1378.84 2528.76 1381.87 Q2526.03 1384.89 2526.03 1390.11 L2526.03 1410.26 L2520.14 1410.26 L2520.14 1374.61 L2526.03 1374.61 L2526.03 1380.15 Q2528.13 1376.93 2530.96 1375.34 Q2533.82 1373.75 2537.55 1373.75 Q2543.69 1373.75 2546.84 1377.57 Q2549.99 1381.36 2549.99 1388.74 Z" fill="#000000" fill-rule="nonzero" fill-opacity="1" /><path clip-path="url(#clip800)" d="M2584.4 1375.66 L2584.4 1381.2 Q2581.92 1379.93 2579.24 1379.29 Q2576.57 1378.65 2573.7 1378.65 Q2569.34 1378.65 2567.15 1379.99 Q2564.98 1381.33 2564.98 1384 Q2564.98 1386.04 2566.54 1387.21 Q2568.1 1388.36 2572.81 1389.41 L2574.82 1389.86 Q2581.06 1391.19 2583.67 1393.64 Q2586.31 1396.06 2586.31 1400.42 Q2586.31 1405.39 2582.36 1408.29 Q2578.45 1411.18 2571.57 1411.18 Q2568.71 1411.18 2565.59 1410.61 Q2562.5 1410.07 2559.06 1408.95 L2559.06 1402.91 Q2562.31 1404.59 2565.46 1405.45 Q2568.61 1406.28 2571.7 1406.28 Q2575.84 1406.28 2578.06 1404.88 Q2580.29 1403.45 2580.29 1400.87 Q2580.29 1398.48 2578.67 1397.21 Q2577.08 1395.94 2571.64 1394.76 L2569.6 1394.28 Q2564.16 1393.14 2561.74 1390.78 Q2559.32 1388.39 2559.32 1384.25 Q2559.32 1379.23 2562.88 1376.49 Q2566.45 1373.75 2573 1373.75 Q2576.25 1373.75 2579.11 1374.23 Q2581.98 1374.71 2584.4 1375.66 Z" fill="#000000" fill-rule="nonzero" fill-opacity="1" /><path clip-path="url(#clip800)" d="M2595.63 1374.61 L2601.49 1374.61 L2601.49 1410.26 L2595.63 1410.26 L2595.63 1374.61 M2595.63 1360.73 L2601.49 1360.73 L2601.49 1368.15 L2595.63 1368.15 L2595.63 1360.73 Z" fill="#000000" fill-rule="nonzero" fill-opacity="1" /><path clip-path="url(#clip800)" d="M2619.54 1364.49 L2619.54 1374.61 L2631.6 1374.61 L2631.6 1379.16 L2619.54 1379.16 L2619.54 1398.51 Q2619.54 1402.87 2620.71 1404.12 Q2621.92 1405.36 2625.58 1405.36 L2631.6 1405.36 L2631.6 1410.26 L2625.58 1410.26 Q2618.81 1410.26 2616.23 1407.74 Q2613.65 1405.2 2613.65 1398.51 L2613.65 1379.16 L2609.35 1379.16 L2609.35 1374.61 L2613.65 1374.61 L2613.65 1364.49 L2619.54 1364.49 Z" fill="#000000" fill-rule="nonzero" fill-opacity="1" /><path clip-path="url(#clip800)" d="M2654.13 1413.57 Q2651.65 1419.93 2649.3 1421.88 Q2646.94 1423.82 2642.99 1423.82 L2638.32 1423.82 L2638.32 1418.92 L2641.75 1418.92 Q2644.17 1418.92 2645.51 1417.77 Q2646.85 1416.62 2648.47 1412.36 L2649.52 1409.69 L2635.1 1374.61 L2641.31 1374.61 L2652.45 1402.49 L2663.59 1374.61 L2669.79 1374.61 L2654.13 1413.57 Z" fill="#000000" fill-rule="nonzero" fill-opacity="1" /><path clip-path="url(#clip800)" d="M2698.85 1362.74 L2705.28 1362.74 L2705.28 1404.85 L2728.42 1404.85 L2728.42 1410.26 L2698.85 1410.26 L2698.85 1362.74 Z" fill="#000000" fill-rule="nonzero" fill-opacity="1" /><polyline clip-path="url(#clip800)" style="stroke:#000000; stroke-linecap:round; stroke-linejoin:round; stroke-width:4; stroke-opacity:1; fill:none" points="1845.28,1253.39 1845.28,102.682 "/>
<polyline clip-path="url(#clip800)" style="stroke:#000000; stroke-linecap:round; stroke-linejoin:round; stroke-width:4; stroke-opacity:1; fill:none" points="1845.28,1156.02 1864.18,1156.02 "/>
<polyline clip-path="url(#clip800)" style="stroke:#000000; stroke-linecap:round; stroke-linejoin:round; stroke-width:4; stroke-opacity:1; fill:none" points="1845.28,996.968 1864.18,996.968 "/>
<polyline clip-path="url(#clip800)" style="stroke:#000000; stroke-linecap:round; stroke-linejoin:round; stroke-width:4; stroke-opacity:1; fill:none" points="1845.28,837.92 1864.18,837.92 "/>
<polyline clip-path="url(#clip800)" style="stroke:#000000; stroke-linecap:round; stroke-linejoin:round; stroke-width:4; stroke-opacity:1; fill:none" points="1845.28,678.871 1864.18,678.871 "/>
<polyline clip-path="url(#clip800)" style="stroke:#000000; stroke-linecap:round; stroke-linejoin:round; stroke-width:4; stroke-opacity:1; fill:none" points="1845.28,519.823 1864.18,519.823 "/>
<polyline clip-path="url(#clip800)" style="stroke:#000000; stroke-linecap:round; stroke-linejoin:round; stroke-width:4; stroke-opacity:1; fill:none" points="1845.28,360.775 1864.18,360.775 "/>
<polyline clip-path="url(#clip800)" style="stroke:#000000; stroke-linecap:round; stroke-linejoin:round; stroke-width:4; stroke-opacity:1; fill:none" points="1845.28,201.727 1864.18,201.727 "/>
<path clip-path="url(#clip800)" d="M1710.94 1141.81 Q1707.33 1141.81 1705.5 1145.38 Q1703.69 1148.92 1703.69 1156.05 Q1703.69 1163.16 1705.5 1166.72 Q1707.33 1170.26 1710.94 1170.26 Q1714.57 1170.26 1716.38 1166.72 Q1718.21 1163.16 1718.21 1156.05 Q1718.21 1148.92 1716.38 1145.38 Q1714.57 1141.81 1710.94 1141.81 M1710.94 1138.11 Q1716.75 1138.11 1719.8 1142.72 Q1722.88 1147.3 1722.88 1156.05 Q1722.88 1164.78 1719.8 1169.38 Q1716.75 1173.97 1710.94 1173.97 Q1705.13 1173.97 1702.05 1169.38 Q1698.99 1164.78 1698.99 1156.05 Q1698.99 1147.3 1702.05 1142.72 Q1705.13 1138.11 1710.94 1138.11 Z" fill="#000000" fill-rule="nonzero" fill-opacity="1" /><path clip-path="url(#clip800)" d="M1731.1 1167.42 L1735.99 1167.42 L1735.99 1173.3 L1731.1 1173.3 L1731.1 1167.42 Z" fill="#000000" fill-rule="nonzero" fill-opacity="1" /><path clip-path="url(#clip800)" d="M1760.34 1154.66 Q1763.69 1155.38 1765.57 1157.65 Q1767.47 1159.92 1767.47 1163.25 Q1767.47 1168.37 1763.95 1171.17 Q1760.43 1173.97 1753.95 1173.97 Q1751.77 1173.97 1749.46 1173.53 Q1747.17 1173.11 1744.71 1172.25 L1744.71 1167.74 Q1746.66 1168.87 1748.97 1169.45 Q1751.29 1170.03 1753.81 1170.03 Q1758.21 1170.03 1760.5 1168.3 Q1762.81 1166.56 1762.81 1163.25 Q1762.81 1160.19 1760.66 1158.48 Q1758.53 1156.75 1754.71 1156.75 L1750.68 1156.75 L1750.68 1152.9 L1754.9 1152.9 Q1758.35 1152.9 1760.17 1151.54 Q1762 1150.15 1762 1147.56 Q1762 1144.89 1760.11 1143.48 Q1758.23 1142.05 1754.71 1142.05 Q1752.79 1142.05 1750.59 1142.46 Q1748.39 1142.88 1745.75 1143.76 L1745.75 1139.59 Q1748.42 1138.85 1750.73 1138.48 Q1753.07 1138.11 1755.13 1138.11 Q1760.45 1138.11 1763.55 1140.54 Q1766.66 1142.95 1766.66 1147.07 Q1766.66 1149.94 1765.01 1151.93 Q1763.37 1153.9 1760.34 1154.66 Z" fill="#000000" fill-rule="nonzero" fill-opacity="1" /><path clip-path="url(#clip800)" d="M1776.38 1138.74 L1794.73 1138.74 L1794.73 1142.67 L1780.66 1142.67 L1780.66 1151.14 Q1781.68 1150.8 1782.7 1150.63 Q1783.72 1150.45 1784.73 1150.45 Q1790.52 1150.45 1793.9 1153.62 Q1797.28 1156.79 1797.28 1162.21 Q1797.28 1167.79 1793.81 1170.89 Q1790.34 1173.97 1784.02 1173.97 Q1781.84 1173.97 1779.57 1173.6 Q1777.33 1173.23 1774.92 1172.49 L1774.92 1167.79 Q1777 1168.92 1779.23 1169.48 Q1781.45 1170.03 1783.92 1170.03 Q1787.93 1170.03 1790.27 1167.93 Q1792.61 1165.82 1792.61 1162.21 Q1792.61 1158.6 1790.27 1156.49 Q1787.93 1154.38 1783.92 1154.38 Q1782.05 1154.38 1780.17 1154.8 Q1778.32 1155.22 1776.38 1156.1 L1776.38 1138.74 Z" fill="#000000" fill-rule="nonzero" fill-opacity="1" /><path clip-path="url(#clip800)" d="M1709.94 982.767 Q1706.33 982.767 1704.5 986.331 Q1702.7 989.873 1702.7 997.003 Q1702.7 1004.11 1704.5 1007.67 Q1706.33 1011.22 1709.94 1011.22 Q1713.58 1011.22 1715.38 1007.67 Q1717.21 1004.11 1717.21 997.003 Q1717.21 989.873 1715.38 986.331 Q1713.58 982.767 1709.94 982.767 M1709.94 979.063 Q1715.75 979.063 1718.81 983.669 Q1721.89 988.253 1721.89 997.003 Q1721.89 1005.73 1718.81 1010.34 Q1715.75 1014.92 1709.94 1014.92 Q1704.13 1014.92 1701.05 1010.34 Q1698 1005.73 1698 997.003 Q1698 988.253 1701.05 983.669 Q1704.13 979.063 1709.94 979.063 Z" fill="#000000" fill-rule="nonzero" fill-opacity="1" /><path clip-path="url(#clip800)" d="M1730.11 1008.37 L1734.99 1008.37 L1734.99 1014.25 L1730.11 1014.25 L1730.11 1008.37 Z" fill="#000000" fill-rule="nonzero" fill-opacity="1" /><path clip-path="url(#clip800)" d="M1758.02 983.762 L1746.22 1002.21 L1758.02 1002.21 L1758.02 983.762 M1756.8 979.688 L1762.67 979.688 L1762.67 1002.21 L1767.61 1002.21 L1767.61 1006.1 L1762.67 1006.1 L1762.67 1014.25 L1758.02 1014.25 L1758.02 1006.1 L1742.42 1006.1 L1742.42 1001.59 L1756.8 979.688 Z" fill="#000000" fill-rule="nonzero" fill-opacity="1" /><path clip-path="url(#clip800)" d="M1785.34 982.767 Q1781.73 982.767 1779.9 986.331 Q1778.09 989.873 1778.09 997.003 Q1778.09 1004.11 1779.9 1007.67 Q1781.73 1011.22 1785.34 1011.22 Q1788.97 1011.22 1790.78 1007.67 Q1792.61 1004.11 1792.61 997.003 Q1792.61 989.873 1790.78 986.331 Q1788.97 982.767 1785.34 982.767 M1785.34 979.063 Q1791.15 979.063 1794.2 983.669 Q1797.28 988.253 1797.28 997.003 Q1797.28 1005.73 1794.2 1010.34 Q1791.15 1014.92 1785.34 1014.92 Q1779.53 1014.92 1776.45 1010.34 Q1773.39 1005.73 1773.39 997.003 Q1773.39 988.253 1776.45 983.669 Q1779.53 979.063 1785.34 979.063 Z" fill="#000000" fill-rule="nonzero" fill-opacity="1" /><path clip-path="url(#clip800)" d="M1710.94 823.718 Q1707.33 823.718 1705.5 827.283 Q1703.69 830.825 1703.69 837.954 Q1703.69 845.061 1705.5 848.626 Q1707.33 852.167 1710.94 852.167 Q1714.57 852.167 1716.38 848.626 Q1718.21 845.061 1718.21 837.954 Q1718.21 830.825 1716.38 827.283 Q1714.57 823.718 1710.94 823.718 M1710.94 820.015 Q1716.75 820.015 1719.8 824.621 Q1722.88 829.204 1722.88 837.954 Q1722.88 846.681 1719.8 851.288 Q1716.75 855.871 1710.94 855.871 Q1705.13 855.871 1702.05 851.288 Q1698.99 846.681 1698.99 837.954 Q1698.99 829.204 1702.05 824.621 Q1705.13 820.015 1710.94 820.015 Z" fill="#000000" fill-rule="nonzero" fill-opacity="1" /><path clip-path="url(#clip800)" d="M1731.1 849.32 L1735.99 849.32 L1735.99 855.2 L1731.1 855.2 L1731.1 849.32 Z" fill="#000000" fill-rule="nonzero" fill-opacity="1" /><path clip-path="url(#clip800)" d="M1759.02 824.714 L1747.21 843.163 L1759.02 843.163 L1759.02 824.714 M1757.79 820.64 L1763.67 820.64 L1763.67 843.163 L1768.6 843.163 L1768.6 847.052 L1763.67 847.052 L1763.67 855.2 L1759.02 855.2 L1759.02 847.052 L1743.42 847.052 L1743.42 842.538 L1757.79 820.64 Z" fill="#000000" fill-rule="nonzero" fill-opacity="1" /><path clip-path="url(#clip800)" d="M1776.38 820.64 L1794.73 820.64 L1794.73 824.575 L1780.66 824.575 L1780.66 833.047 Q1781.68 832.7 1782.7 832.538 Q1783.72 832.353 1784.73 832.353 Q1790.52 832.353 1793.9 835.524 Q1797.28 838.695 1797.28 844.112 Q1797.28 849.69 1793.81 852.792 Q1790.34 855.871 1784.02 855.871 Q1781.84 855.871 1779.57 855.501 Q1777.33 855.13 1774.92 854.389 L1774.92 849.69 Q1777 850.825 1779.23 851.38 Q1781.45 851.936 1783.92 851.936 Q1787.93 851.936 1790.27 849.829 Q1792.61 847.723 1792.61 844.112 Q1792.61 840.501 1790.27 838.394 Q1787.93 836.288 1783.92 836.288 Q1782.05 836.288 1780.17 836.704 Q1778.32 837.121 1776.38 838.001 L1776.38 820.64 Z" fill="#000000" fill-rule="nonzero" fill-opacity="1" /><path clip-path="url(#clip800)" d="M1709.94 664.67 Q1706.33 664.67 1704.5 668.235 Q1702.7 671.777 1702.7 678.906 Q1702.7 686.013 1704.5 689.577 Q1706.33 693.119 1709.94 693.119 Q1713.58 693.119 1715.38 689.577 Q1717.21 686.013 1717.21 678.906 Q1717.21 671.777 1715.38 668.235 Q1713.58 664.67 1709.94 664.67 M1709.94 660.966 Q1715.75 660.966 1718.81 665.573 Q1721.89 670.156 1721.89 678.906 Q1721.89 687.633 1718.81 692.239 Q1715.75 696.823 1709.94 696.823 Q1704.13 696.823 1701.05 692.239 Q1698 687.633 1698 678.906 Q1698 670.156 1701.05 665.573 Q1704.13 660.966 1709.94 660.966 Z" fill="#000000" fill-rule="nonzero" fill-opacity="1" /><path clip-path="url(#clip800)" d="M1730.11 690.272 L1734.99 690.272 L1734.99 696.151 L1730.11 696.151 L1730.11 690.272 Z" fill="#000000" fill-rule="nonzero" fill-opacity="1" /><path clip-path="url(#clip800)" d="M1745.22 661.591 L1763.58 661.591 L1763.58 665.527 L1749.5 665.527 L1749.5 673.999 Q1750.52 673.652 1751.54 673.489 Q1752.56 673.304 1753.58 673.304 Q1759.36 673.304 1762.74 676.476 Q1766.12 679.647 1766.12 685.063 Q1766.12 690.642 1762.65 693.744 Q1759.18 696.823 1752.86 696.823 Q1750.68 696.823 1748.42 696.452 Q1746.17 696.082 1743.76 695.341 L1743.76 690.642 Q1745.85 691.776 1748.07 692.332 Q1750.29 692.888 1752.77 692.888 Q1756.77 692.888 1759.11 690.781 Q1761.45 688.675 1761.45 685.063 Q1761.45 681.452 1759.11 679.346 Q1756.77 677.239 1752.77 677.239 Q1750.89 677.239 1749.02 677.656 Q1747.17 678.073 1745.22 678.952 L1745.22 661.591 Z" fill="#000000" fill-rule="nonzero" fill-opacity="1" /><path clip-path="url(#clip800)" d="M1785.34 664.67 Q1781.73 664.67 1779.9 668.235 Q1778.09 671.777 1778.09 678.906 Q1778.09 686.013 1779.9 689.577 Q1781.73 693.119 1785.34 693.119 Q1788.97 693.119 1790.78 689.577 Q1792.61 686.013 1792.61 678.906 Q1792.61 671.777 1790.78 668.235 Q1788.97 664.67 1785.34 664.67 M1785.34 660.966 Q1791.15 660.966 1794.2 665.573 Q1797.28 670.156 1797.28 678.906 Q1797.28 687.633 1794.2 692.239 Q1791.15 696.823 1785.34 696.823 Q1779.53 696.823 1776.45 692.239 Q1773.39 687.633 1773.39 678.906 Q1773.39 670.156 1776.45 665.573 Q1779.53 660.966 1785.34 660.966 Z" fill="#000000" fill-rule="nonzero" fill-opacity="1" /><path clip-path="url(#clip800)" d="M1710.94 505.622 Q1707.33 505.622 1705.5 509.187 Q1703.69 512.728 1703.69 519.858 Q1703.69 526.964 1705.5 530.529 Q1707.33 534.071 1710.94 534.071 Q1714.57 534.071 1716.38 530.529 Q1718.21 526.964 1718.21 519.858 Q1718.21 512.728 1716.38 509.187 Q1714.57 505.622 1710.94 505.622 M1710.94 501.918 Q1716.75 501.918 1719.8 506.525 Q1722.88 511.108 1722.88 519.858 Q1722.88 528.585 1719.8 533.191 Q1716.75 537.774 1710.94 537.774 Q1705.13 537.774 1702.05 533.191 Q1698.99 528.585 1698.99 519.858 Q1698.99 511.108 1702.05 506.525 Q1705.13 501.918 1710.94 501.918 Z" fill="#000000" fill-rule="nonzero" fill-opacity="1" /><path clip-path="url(#clip800)" d="M1731.1 531.224 L1735.99 531.224 L1735.99 537.103 L1731.1 537.103 L1731.1 531.224 Z" fill="#000000" fill-rule="nonzero" fill-opacity="1" /><path clip-path="url(#clip800)" d="M1746.22 502.543 L1764.57 502.543 L1764.57 506.478 L1750.5 506.478 L1750.5 514.95 Q1751.52 514.603 1752.54 514.441 Q1753.55 514.256 1754.57 514.256 Q1760.36 514.256 1763.74 517.427 Q1767.12 520.599 1767.12 526.015 Q1767.12 531.594 1763.65 534.696 Q1760.17 537.774 1753.86 537.774 Q1751.68 537.774 1749.41 537.404 Q1747.17 537.034 1744.76 536.293 L1744.76 531.594 Q1746.84 532.728 1749.06 533.284 Q1751.29 533.839 1753.76 533.839 Q1757.77 533.839 1760.11 531.733 Q1762.44 529.626 1762.44 526.015 Q1762.44 522.404 1760.11 520.298 Q1757.77 518.191 1753.76 518.191 Q1751.89 518.191 1750.01 518.608 Q1748.16 519.025 1746.22 519.904 L1746.22 502.543 Z" fill="#000000" fill-rule="nonzero" fill-opacity="1" /><path clip-path="url(#clip800)" d="M1776.38 502.543 L1794.73 502.543 L1794.73 506.478 L1780.66 506.478 L1780.66 514.95 Q1781.68 514.603 1782.7 514.441 Q1783.72 514.256 1784.73 514.256 Q1790.52 514.256 1793.9 517.427 Q1797.28 520.599 1797.28 526.015 Q1797.28 531.594 1793.81 534.696 Q1790.34 537.774 1784.02 537.774 Q1781.84 537.774 1779.57 537.404 Q1777.33 537.034 1774.92 536.293 L1774.92 531.594 Q1777 532.728 1779.23 533.284 Q1781.45 533.839 1783.92 533.839 Q1787.93 533.839 1790.27 531.733 Q1792.61 529.626 1792.61 526.015 Q1792.61 522.404 1790.27 520.298 Q1787.93 518.191 1783.92 518.191 Q1782.05 518.191 1780.17 518.608 Q1778.32 519.025 1776.38 519.904 L1776.38 502.543 Z" fill="#000000" fill-rule="nonzero" fill-opacity="1" /><path clip-path="url(#clip800)" d="M1709.94 346.574 Q1706.33 346.574 1704.5 350.138 Q1702.7 353.68 1702.7 360.81 Q1702.7 367.916 1704.5 371.481 Q1706.33 375.023 1709.94 375.023 Q1713.58 375.023 1715.38 371.481 Q1717.21 367.916 1717.21 360.81 Q1717.21 353.68 1715.38 350.138 Q1713.58 346.574 1709.94 346.574 M1709.94 342.87 Q1715.75 342.87 1718.81 347.476 Q1721.89 352.06 1721.89 360.81 Q1721.89 369.536 1718.81 374.143 Q1715.75 378.726 1709.94 378.726 Q1704.13 378.726 1701.05 374.143 Q1698 369.536 1698 360.81 Q1698 352.06 1701.05 347.476 Q1704.13 342.87 1709.94 342.87 Z" fill="#000000" fill-rule="nonzero" fill-opacity="1" /><path clip-path="url(#clip800)" d="M1730.11 372.175 L1734.99 372.175 L1734.99 378.055 L1730.11 378.055 L1730.11 372.175 Z" fill="#000000" fill-rule="nonzero" fill-opacity="1" /><path clip-path="url(#clip800)" d="M1755.75 358.912 Q1752.61 358.912 1750.75 361.064 Q1748.92 363.217 1748.92 366.967 Q1748.92 370.694 1750.75 372.87 Q1752.61 375.023 1755.75 375.023 Q1758.9 375.023 1760.73 372.87 Q1762.58 370.694 1762.58 366.967 Q1762.58 363.217 1760.73 361.064 Q1758.9 358.912 1755.75 358.912 M1765.04 344.259 L1765.04 348.518 Q1763.28 347.685 1761.47 347.245 Q1759.69 346.805 1757.93 346.805 Q1753.3 346.805 1750.85 349.93 Q1748.42 353.055 1748.07 359.374 Q1749.43 357.361 1751.49 356.296 Q1753.55 355.208 1756.03 355.208 Q1761.24 355.208 1764.25 358.379 Q1767.28 361.527 1767.28 366.967 Q1767.28 372.291 1764.13 375.509 Q1760.98 378.726 1755.75 378.726 Q1749.76 378.726 1746.59 374.143 Q1743.42 369.536 1743.42 360.81 Q1743.42 352.615 1747.3 347.754 Q1751.19 342.87 1757.74 342.87 Q1759.5 342.87 1761.29 343.217 Q1763.09 343.564 1765.04 344.259 Z" fill="#000000" fill-rule="nonzero" fill-opacity="1" /><path clip-path="url(#clip800)" d="M1785.34 346.574 Q1781.73 346.574 1779.9 350.138 Q1778.09 353.68 1778.09 360.81 Q1778.09 367.916 1779.9 371.481 Q1781.73 375.023 1785.34 375.023 Q1788.97 375.023 1790.78 371.481 Q1792.61 367.916 1792.61 360.81 Q1792.61 353.68 1790.78 350.138 Q1788.97 346.574 1785.34 346.574 M1785.34 342.87 Q1791.15 342.87 1794.2 347.476 Q1797.28 352.06 1797.28 360.81 Q1797.28 369.536 1794.2 374.143 Q1791.15 378.726 1785.34 378.726 Q1779.53 378.726 1776.45 374.143 Q1773.39 369.536 1773.39 360.81 Q1773.39 352.06 1776.45 347.476 Q1779.53 342.87 1785.34 342.87 Z" fill="#000000" fill-rule="nonzero" fill-opacity="1" /><path clip-path="url(#clip800)" d="M1710.94 187.525 Q1707.33 187.525 1705.5 191.09 Q1703.69 194.632 1703.69 201.761 Q1703.69 208.868 1705.5 212.433 Q1707.33 215.974 1710.94 215.974 Q1714.57 215.974 1716.38 212.433 Q1718.21 208.868 1718.21 201.761 Q1718.21 194.632 1716.38 191.09 Q1714.57 187.525 1710.94 187.525 M1710.94 183.822 Q1716.75 183.822 1719.8 188.428 Q1722.88 193.011 1722.88 201.761 Q1722.88 210.488 1719.8 215.095 Q1716.75 219.678 1710.94 219.678 Q1705.13 219.678 1702.05 215.095 Q1698.99 210.488 1698.99 201.761 Q1698.99 193.011 1702.05 188.428 Q1705.13 183.822 1710.94 183.822 Z" fill="#000000" fill-rule="nonzero" fill-opacity="1" /><path clip-path="url(#clip800)" d="M1731.1 213.127 L1735.99 213.127 L1735.99 219.007 L1731.1 219.007 L1731.1 213.127 Z" fill="#000000" fill-rule="nonzero" fill-opacity="1" /><path clip-path="url(#clip800)" d="M1756.75 199.863 Q1753.6 199.863 1751.75 202.016 Q1749.92 204.169 1749.92 207.919 Q1749.92 211.646 1751.75 213.822 Q1753.6 215.974 1756.75 215.974 Q1759.9 215.974 1761.73 213.822 Q1763.58 211.646 1763.58 207.919 Q1763.58 204.169 1761.73 202.016 Q1759.9 199.863 1756.75 199.863 M1766.03 185.211 L1766.03 189.47 Q1764.27 188.636 1762.47 188.197 Q1760.68 187.757 1758.92 187.757 Q1754.3 187.757 1751.84 190.882 Q1749.41 194.007 1749.06 200.326 Q1750.43 198.312 1752.49 197.248 Q1754.55 196.16 1757.03 196.16 Q1762.23 196.16 1765.24 199.331 Q1768.28 202.479 1768.28 207.919 Q1768.28 213.243 1765.13 216.46 Q1761.98 219.678 1756.75 219.678 Q1750.75 219.678 1747.58 215.095 Q1744.41 210.488 1744.41 201.761 Q1744.41 193.567 1748.3 188.706 Q1752.19 183.822 1758.74 183.822 Q1760.5 183.822 1762.28 184.169 Q1764.09 184.516 1766.03 185.211 Z" fill="#000000" fill-rule="nonzero" fill-opacity="1" /><path clip-path="url(#clip800)" d="M1776.38 184.447 L1794.73 184.447 L1794.73 188.382 L1780.66 188.382 L1780.66 196.854 Q1781.68 196.507 1782.7 196.345 Q1783.72 196.16 1784.73 196.16 Q1790.52 196.16 1793.9 199.331 Q1797.28 202.502 1797.28 207.919 Q1797.28 213.497 1793.81 216.599 Q1790.34 219.678 1784.02 219.678 Q1781.84 219.678 1779.57 219.308 Q1777.33 218.937 1774.92 218.196 L1774.92 213.497 Q1777 214.632 1779.23 215.187 Q1781.45 215.743 1783.92 215.743 Q1787.93 215.743 1790.27 213.636 Q1792.61 211.53 1792.61 207.919 Q1792.61 204.308 1790.27 202.201 Q1787.93 200.095 1783.92 200.095 Q1782.05 200.095 1780.17 200.511 Q1778.32 200.928 1776.38 201.808 L1776.38 184.447 Z" fill="#000000" fill-rule="nonzero" fill-opacity="1" /><path clip-path="url(#clip800)" d="M1594.46 708.61 Q1592.23 711.856 1592.23 719.463 Q1592.23 727.516 1595.96 727.516 Q1598.89 727.516 1600.41 719.113 Q1601.59 712.493 1605.16 708.769 Q1609.45 704.249 1618.27 704.249 Q1626.7 704.249 1631.67 708.61 Q1636.67 712.97 1636.67 720.609 Q1636.67 728.216 1631.67 732.609 Q1626.7 736.969 1617.95 736.969 Q1611.46 736.969 1606.21 732.609 Q1604.17 730.922 1603.02 728.534 Q1600.51 733.5 1596.02 733.5 Q1587.36 733.5 1587.36 719.463 Q1587.36 712.429 1589.59 708.61 L1594.46 708.61 M1604.61 724.142 Q1605.54 726.306 1607.86 728.057 Q1611.46 730.794 1617.95 730.794 Q1624.41 730.794 1628.04 728.089 Q1631.7 725.352 1631.7 720.609 Q1631.7 715.93 1628.01 713.193 Q1624.32 710.456 1618.27 710.456 Q1611.94 710.456 1608.88 713.352 Q1605.6 716.44 1605.25 720.45 Q1605.06 722.487 1604.61 724.142 Z" fill="#000000" fill-rule="nonzero" fill-opacity="1" /><path clip-path="url(#clip800)" d="M1586.28 680.473 Q1593.6 684.738 1600.76 686.807 Q1607.93 688.876 1615.28 688.876 Q1622.63 688.876 1629.85 686.807 Q1637.05 684.707 1644.34 680.473 L1644.34 685.566 Q1636.86 690.34 1629.63 692.727 Q1622.41 695.083 1615.28 695.083 Q1608.18 695.083 1600.99 692.727 Q1593.79 690.372 1586.28 685.566 L1586.28 680.473 Z" fill="#000000" fill-rule="nonzero" fill-opacity="1" /><path clip-path="url(#clip800)" d="M1588.22 668.856 L1588.22 662.427 L1630.33 662.427 L1630.33 639.287 L1635.74 639.287 L1635.74 668.856 L1588.22 668.856 Z" fill="#000000" fill-rule="nonzero" fill-opacity="1" /><path clip-path="url(#clip800)" d="M1586.28 633.717 L1586.28 628.625 Q1593.79 623.85 1600.99 621.495 Q1608.18 619.108 1615.28 619.108 Q1622.41 619.108 1629.63 621.495 Q1636.86 623.85 1644.34 628.625 L1644.34 633.717 Q1637.05 629.484 1629.85 627.415 Q1622.63 625.315 1615.28 625.315 Q1607.93 625.315 1600.76 627.415 Q1593.6 629.484 1586.28 633.717 Z" fill="#000000" fill-rule="nonzero" fill-opacity="1" /><path clip-path="url(#clip800)" d="M1976.74 18.8205 L1976.74 41.5461 L1987.02 41.5461 Q1992.74 41.5461 1995.86 38.5889 Q1998.97 35.6318 1998.97 30.163 Q1998.97 24.7348 1995.86 21.7777 Q1992.74 18.8205 1987.02 18.8205 L1976.74 18.8205 M1968.55 12.096 L1987.02 12.096 Q1997.19 12.096 2002.38 16.714 Q2007.6 21.2916 2007.6 30.163 Q2007.6 39.1155 2002.38 43.6931 Q1997.19 48.2706 1987.02 48.2706 L1976.74 48.2706 L1976.74 72.576 L1968.55 72.576 L1968.55 12.096 Z" fill="#000000" fill-rule="nonzero" fill-opacity="1" /><path clip-path="url(#clip800)" d="M2054.11 48.0275 L2054.11 51.6733 L2019.84 51.6733 Q2020.32 59.3701 2024.46 63.421 Q2028.63 67.4314 2036.04 67.4314 Q2040.33 67.4314 2044.35 66.3781 Q2048.4 65.3249 2052.37 63.2184 L2052.37 70.267 Q2048.36 71.9684 2044.14 72.8596 Q2039.93 73.7508 2035.6 73.7508 Q2024.74 73.7508 2018.38 67.4314 Q2012.06 61.1119 2012.06 50.3365 Q2012.06 39.1965 2018.05 32.6746 Q2024.09 26.1121 2034.3 26.1121 Q2043.45 26.1121 2048.76 32.0264 Q2054.11 37.9003 2054.11 48.0275 M2046.65 45.84 Q2046.57 39.7232 2043.21 36.0774 Q2039.89 32.4315 2034.38 32.4315 Q2028.14 32.4315 2024.37 35.9558 Q2020.65 39.4801 2020.08 45.8805 L2046.65 45.84 Z" fill="#000000" fill-rule="nonzero" fill-opacity="1" /><path clip-path="url(#clip800)" d="M2092.63 34.1734 Q2091.38 33.4443 2089.88 33.1202 Q2088.42 32.7556 2086.64 32.7556 Q2080.32 32.7556 2076.91 36.8875 Q2073.55 40.9789 2073.55 48.6757 L2073.55 72.576 L2066.06 72.576 L2066.06 27.2059 L2073.55 27.2059 L2073.55 34.2544 Q2075.9 30.1225 2079.67 28.1376 Q2083.44 26.1121 2088.82 26.1121 Q2089.59 26.1121 2090.53 26.2337 Q2091.46 26.3147 2092.59 26.5172 L2092.63 34.1734 Z" fill="#000000" fill-rule="nonzero" fill-opacity="1" /><path clip-path="url(#clip800)" d="M2091.38 46.5287 L2113.21 46.5287 L2113.21 53.1722 L2091.38 53.1722 L2091.38 46.5287 Z" fill="#000000" fill-rule="nonzero" fill-opacity="1" /><path clip-path="url(#clip800)" d="M2157.73 28.9478 L2157.73 35.9153 Q2154.57 34.1734 2151.37 33.3227 Q2148.21 32.4315 2144.97 32.4315 Q2137.72 32.4315 2133.71 37.0496 Q2129.7 41.6271 2129.7 49.9314 Q2129.7 58.2358 2133.71 62.8538 Q2137.72 67.4314 2144.97 67.4314 Q2148.21 67.4314 2151.37 66.5807 Q2154.57 65.6895 2157.73 63.9476 L2157.73 70.8341 Q2154.61 72.2924 2151.25 73.0216 Q2147.93 73.7508 2144.16 73.7508 Q2133.91 73.7508 2127.87 67.3098 Q2121.84 60.8689 2121.84 49.9314 Q2121.84 38.832 2127.92 32.472 Q2134.03 26.1121 2144.65 26.1121 Q2148.09 26.1121 2151.37 26.8413 Q2154.65 27.5299 2157.73 28.9478 Z" fill="#000000" fill-rule="nonzero" fill-opacity="1" /><path clip-path="url(#clip800)" d="M2191.31 49.7694 Q2182.28 49.7694 2178.79 51.8354 Q2175.31 53.9013 2175.31 58.8839 Q2175.31 62.8538 2177.9 65.2034 Q2180.54 67.5124 2185.03 67.5124 Q2191.23 67.5124 2194.96 63.1374 Q2198.72 58.7219 2198.72 51.4303 L2198.72 49.7694 L2191.31 49.7694 M2206.18 46.6907 L2206.18 72.576 L2198.72 72.576 L2198.72 65.6895 Q2196.17 69.8214 2192.37 71.8063 Q2188.56 73.7508 2183.05 73.7508 Q2176.08 73.7508 2171.95 69.8619 Q2167.86 65.9325 2167.86 59.3701 Q2167.86 51.7138 2172.96 47.825 Q2178.11 43.9361 2188.27 43.9361 L2198.72 43.9361 L2198.72 43.2069 Q2198.72 38.0623 2195.32 35.2672 Q2191.96 32.4315 2185.84 32.4315 Q2181.95 32.4315 2178.27 33.3632 Q2174.58 34.295 2171.18 36.1584 L2171.18 29.2718 Q2175.27 27.692 2179.12 26.9223 Q2182.97 26.1121 2186.61 26.1121 Q2196.46 26.1121 2201.32 31.2163 Q2206.18 36.3204 2206.18 46.6907 Z" fill="#000000" fill-rule="nonzero" fill-opacity="1" /><path clip-path="url(#clip800)" d="M2228.74 65.7705 L2228.74 89.8329 L2221.25 89.8329 L2221.25 27.2059 L2228.74 27.2059 L2228.74 34.0924 Q2231.09 30.0415 2234.66 28.0971 Q2238.26 26.1121 2243.24 26.1121 Q2251.51 26.1121 2256.65 32.6746 Q2261.84 39.2371 2261.84 49.9314 Q2261.84 60.6258 2256.65 67.1883 Q2251.51 73.7508 2243.24 73.7508 Q2238.26 73.7508 2234.66 71.8063 Q2231.09 69.8214 2228.74 65.7705 M2254.1 49.9314 Q2254.1 41.7081 2250.7 37.0496 Q2247.34 32.3505 2241.42 32.3505 Q2235.51 32.3505 2232.1 37.0496 Q2228.74 41.7081 2228.74 49.9314 Q2228.74 58.1548 2232.1 62.8538 Q2235.51 67.5124 2241.42 67.5124 Q2247.34 67.5124 2250.7 62.8538 Q2254.1 58.1548 2254.1 49.9314 Z" fill="#000000" fill-rule="nonzero" fill-opacity="1" /><path clip-path="url(#clip800)" d="M2274.19 27.2059 L2281.65 27.2059 L2281.65 72.576 L2274.19 72.576 L2274.19 27.2059 M2274.19 9.54393 L2281.65 9.54393 L2281.65 18.9825 L2274.19 18.9825 L2274.19 9.54393 Z" fill="#000000" fill-rule="nonzero" fill-opacity="1" /><path clip-path="url(#clip800)" d="M2304.62 14.324 L2304.62 27.2059 L2319.97 27.2059 L2319.97 32.9987 L2304.62 32.9987 L2304.62 57.6282 Q2304.62 63.1779 2306.11 64.7578 Q2307.65 66.3376 2312.31 66.3376 L2319.97 66.3376 L2319.97 72.576 L2312.31 72.576 Q2303.68 72.576 2300.4 69.3758 Q2297.12 66.1351 2297.12 57.6282 L2297.12 32.9987 L2291.65 32.9987 L2291.65 27.2059 L2297.12 27.2059 L2297.12 14.324 L2304.62 14.324 Z" fill="#000000" fill-rule="nonzero" fill-opacity="1" /><path clip-path="url(#clip800)" d="M2350.39 49.7694 Q2341.36 49.7694 2337.87 51.8354 Q2334.39 53.9013 2334.39 58.8839 Q2334.39 62.8538 2336.98 65.2034 Q2339.62 67.5124 2344.11 67.5124 Q2350.31 67.5124 2354.04 63.1374 Q2357.8 58.7219 2357.8 51.4303 L2357.8 49.7694 L2350.39 49.7694 M2365.26 46.6907 L2365.26 72.576 L2357.8 72.576 L2357.8 65.6895 Q2355.25 69.8214 2351.44 71.8063 Q2347.64 73.7508 2342.13 73.7508 Q2335.16 73.7508 2331.03 69.8619 Q2326.94 65.9325 2326.94 59.3701 Q2326.94 51.7138 2332.04 47.825 Q2337.18 43.9361 2347.35 43.9361 L2357.8 43.9361 L2357.8 43.2069 Q2357.8 38.0623 2354.4 35.2672 Q2351.04 32.4315 2344.92 32.4315 Q2341.03 32.4315 2337.35 33.3632 Q2333.66 34.295 2330.26 36.1584 L2330.26 29.2718 Q2334.35 27.692 2338.2 26.9223 Q2342.05 26.1121 2345.69 26.1121 Q2355.54 26.1121 2360.4 31.2163 Q2365.26 36.3204 2365.26 46.6907 Z" fill="#000000" fill-rule="nonzero" fill-opacity="1" /><path clip-path="url(#clip800)" d="M2406.98 9.54393 L2414.44 9.54393 L2414.44 72.576 L2406.98 72.576 L2406.98 9.54393 Z" fill="#000000" fill-rule="nonzero" fill-opacity="1" /><path clip-path="url(#clip800)" d="M2448.91 76.7889 Q2445.75 84.8907 2442.75 87.3618 Q2439.75 89.8329 2434.73 89.8329 L2428.78 89.8329 L2428.78 83.5945 L2433.15 83.5945 Q2436.23 83.5945 2437.93 82.1361 Q2439.63 80.6778 2441.7 75.2496 L2443.03 71.8468 L2424.68 27.2059 L2432.58 27.2059 L2446.76 62.6918 L2460.94 27.2059 L2468.84 27.2059 L2448.91 76.7889 Z" fill="#000000" fill-rule="nonzero" fill-opacity="1" /><path clip-path="url(#clip800)" d="M2516.84 45.1919 L2516.84 72.576 L2509.39 72.576 L2509.39 45.4349 Q2509.39 38.994 2506.88 35.7938 Q2504.37 32.5936 2499.34 32.5936 Q2493.31 32.5936 2489.82 36.4419 Q2486.34 40.2903 2486.34 46.9338 L2486.34 72.576 L2478.84 72.576 L2478.84 27.2059 L2486.34 27.2059 L2486.34 34.2544 Q2489.01 30.163 2492.62 28.1376 Q2496.26 26.1121 2501 26.1121 Q2508.82 26.1121 2512.83 30.9732 Q2516.84 35.7938 2516.84 45.1919 Z" fill="#000000" fill-rule="nonzero" fill-opacity="1" /><path clip-path="url(#clip800)" d="M2569.42 27.2059 L2553.02 49.2833 L2570.27 72.576 L2561.48 72.576 L2548.28 54.752 L2535.07 72.576 L2526.28 72.576 L2543.9 48.8377 L2527.78 27.2059 L2536.57 27.2059 L2548.6 43.369 L2560.63 27.2059 L2569.42 27.2059 Z" fill="#000000" fill-rule="nonzero" fill-opacity="1" /><path clip-path="url(#clip800)" d="M2637.03 34.0924 L2637.03 9.54393 L2644.49 9.54393 L2644.49 72.576 L2637.03 72.576 L2637.03 65.7705 Q2634.68 69.8214 2631.08 71.8063 Q2627.51 73.7508 2622.49 73.7508 Q2614.27 73.7508 2609.08 67.1883 Q2603.94 60.6258 2603.94 49.9314 Q2603.94 39.2371 2609.08 32.6746 Q2614.27 26.1121 2622.49 26.1121 Q2627.51 26.1121 2631.08 28.0971 Q2634.68 30.0415 2637.03 34.0924 M2611.63 49.9314 Q2611.63 58.1548 2615 62.8538 Q2618.4 67.5124 2624.31 67.5124 Q2630.23 67.5124 2633.63 62.8538 Q2637.03 58.1548 2637.03 49.9314 Q2637.03 41.7081 2633.63 37.0496 Q2630.23 32.3505 2624.31 32.3505 Q2618.4 32.3505 2615 37.0496 Q2611.63 41.7081 2611.63 49.9314 Z" fill="#000000" fill-rule="nonzero" fill-opacity="1" /><path clip-path="url(#clip800)" d="M2698.65 48.0275 L2698.65 51.6733 L2664.38 51.6733 Q2664.86 59.3701 2668.99 63.421 Q2673.17 67.4314 2680.58 67.4314 Q2684.87 67.4314 2688.88 66.3781 Q2692.94 65.3249 2696.91 63.2184 L2696.91 70.267 Q2692.89 71.9684 2688.68 72.8596 Q2684.47 73.7508 2680.13 73.7508 Q2669.28 73.7508 2662.92 67.4314 Q2656.6 61.1119 2656.6 50.3365 Q2656.6 39.1965 2662.59 32.6746 Q2668.63 26.1121 2678.84 26.1121 Q2687.99 26.1121 2693.3 32.0264 Q2698.65 37.9003 2698.65 48.0275 M2691.19 45.84 Q2691.11 39.7232 2687.75 36.0774 Q2684.43 32.4315 2678.92 32.4315 Q2672.68 32.4315 2668.91 35.9558 Q2665.19 39.4801 2664.62 45.8805 L2691.19 45.84 Z" fill="#000000" fill-rule="nonzero" fill-opacity="1" /><path clip-path="url(#clip800)" d="M2731.5 49.7694 Q2722.47 49.7694 2718.98 51.8354 Q2715.5 53.9013 2715.5 58.8839 Q2715.5 62.8538 2718.09 65.2034 Q2720.72 67.5124 2725.22 67.5124 Q2731.42 67.5124 2735.15 63.1374 Q2738.91 58.7219 2738.91 51.4303 L2738.91 49.7694 L2731.5 49.7694 M2746.37 46.6907 L2746.37 72.576 L2738.91 72.576 L2738.91 65.6895 Q2736.36 69.8214 2732.55 71.8063 Q2728.75 73.7508 2723.24 73.7508 Q2716.27 73.7508 2712.14 69.8619 Q2708.05 65.9325 2708.05 59.3701 Q2708.05 51.7138 2713.15 47.825 Q2718.29 43.9361 2728.46 43.9361 L2738.91 43.9361 L2738.91 43.2069 Q2738.91 38.0623 2735.51 35.2672 Q2732.15 32.4315 2726.03 32.4315 Q2722.14 32.4315 2718.46 33.3632 Q2714.77 34.295 2711.37 36.1584 L2711.37 29.2718 Q2715.46 27.692 2719.31 26.9223 Q2723.16 26.1121 2726.8 26.1121 Q2736.64 26.1121 2741.51 31.2163 Q2746.37 36.3204 2746.37 46.6907 Z" fill="#000000" fill-rule="nonzero" fill-opacity="1" /><path clip-path="url(#clip800)" d="M2769.09 14.324 L2769.09 27.2059 L2784.45 27.2059 L2784.45 32.9987 L2769.09 32.9987 L2769.09 57.6282 Q2769.09 63.1779 2770.59 64.7578 Q2772.13 66.3376 2776.79 66.3376 L2784.45 66.3376 L2784.45 72.576 L2776.79 72.576 Q2768.16 72.576 2764.88 69.3758 Q2761.6 66.1351 2761.6 57.6282 L2761.6 32.9987 L2756.13 32.9987 L2756.13 27.2059 L2761.6 27.2059 L2761.6 14.324 L2769.09 14.324 Z" fill="#000000" fill-rule="nonzero" fill-opacity="1" /><path clip-path="url(#clip800)" d="M2831.96 45.1919 L2831.96 72.576 L2824.51 72.576 L2824.51 45.4349 Q2824.51 38.994 2822 35.7938 Q2819.49 32.5936 2814.46 32.5936 Q2808.43 32.5936 2804.94 36.4419 Q2801.46 40.2903 2801.46 46.9338 L2801.46 72.576 L2793.96 72.576 L2793.96 9.54393 L2801.46 9.54393 L2801.46 34.2544 Q2804.13 30.163 2807.74 28.1376 Q2811.38 26.1121 2816.12 26.1121 Q2823.94 26.1121 2827.95 30.9732 Q2831.96 35.7938 2831.96 45.1919 Z" fill="#000000" fill-rule="nonzero" fill-opacity="1" /><path clip-path="url(#clip800)" d="M2899.49 34.1734 Q2898.24 33.4443 2896.74 33.1202 Q2895.28 32.7556 2893.5 32.7556 Q2887.18 32.7556 2883.77 36.8875 Q2880.41 40.9789 2880.41 48.6757 L2880.41 72.576 L2872.92 72.576 L2872.92 27.2059 L2880.41 27.2059 L2880.41 34.2544 Q2882.76 30.1225 2886.53 28.1376 Q2890.3 26.1121 2895.68 26.1121 Q2896.45 26.1121 2897.38 26.2337 Q2898.32 26.3147 2899.45 26.5172 L2899.49 34.1734 Z" fill="#000000" fill-rule="nonzero" fill-opacity="1" /><path clip-path="url(#clip800)" d="M2927.93 49.7694 Q2918.89 49.7694 2915.41 51.8354 Q2911.93 53.9013 2911.93 58.8839 Q2911.93 62.8538 2914.52 65.2034 Q2917.15 67.5124 2921.65 67.5124 Q2927.85 67.5124 2931.57 63.1374 Q2935.34 58.7219 2935.34 51.4303 L2935.34 49.7694 L2927.93 49.7694 M2942.8 46.6907 L2942.8 72.576 L2935.34 72.576 L2935.34 65.6895 Q2932.79 69.8214 2928.98 71.8063 Q2925.17 73.7508 2919.66 73.7508 Q2912.7 73.7508 2908.56 69.8619 Q2904.47 65.9325 2904.47 59.3701 Q2904.47 51.7138 2909.58 47.825 Q2914.72 43.9361 2924.89 43.9361 L2935.34 43.9361 L2935.34 43.2069 Q2935.34 38.0623 2931.94 35.2672 Q2928.58 32.4315 2922.46 32.4315 Q2918.57 32.4315 2914.88 33.3632 Q2911.2 34.295 2907.8 36.1584 L2907.8 29.2718 Q2911.89 27.692 2915.74 26.9223 Q2919.58 26.1121 2923.23 26.1121 Q2933.07 26.1121 2937.93 31.2163 Q2942.8 36.3204 2942.8 46.6907 Z" fill="#000000" fill-rule="nonzero" fill-opacity="1" /><path clip-path="url(#clip800)" d="M2965.52 14.324 L2965.52 27.2059 L2980.87 27.2059 L2980.87 32.9987 L2965.52 32.9987 L2965.52 57.6282 Q2965.52 63.1779 2967.02 64.7578 Q2968.56 66.3376 2973.22 66.3376 L2980.87 66.3376 L2980.87 72.576 L2973.22 72.576 Q2964.59 72.576 2961.31 69.3758 Q2958.03 66.1351 2958.03 57.6282 L2958.03 32.9987 L2952.56 32.9987 L2952.56 27.2059 L2958.03 27.2059 L2958.03 14.324 L2965.52 14.324 Z" fill="#000000" fill-rule="nonzero" fill-opacity="1" /><path clip-path="url(#clip800)" d="M3029.48 48.0275 L3029.48 51.6733 L2995.21 51.6733 Q2995.7 59.3701 2999.83 63.421 Q3004 67.4314 3011.42 67.4314 Q3015.71 67.4314 3019.72 66.3781 Q3023.77 65.3249 3027.74 63.2184 L3027.74 70.267 Q3023.73 71.9684 3019.52 72.8596 Q3015.31 73.7508 3010.97 73.7508 Q3000.12 73.7508 2993.76 67.4314 Q2987.44 61.1119 2987.44 50.3365 Q2987.44 39.1965 2993.43 32.6746 Q2999.47 26.1121 3009.68 26.1121 Q3018.83 26.1121 3024.14 32.0264 Q3029.48 37.9003 3029.48 48.0275 M3022.03 45.84 Q3021.95 39.7232 3018.59 36.0774 Q3015.27 32.4315 3009.76 32.4315 Q3003.52 32.4315 2999.75 35.9558 Q2996.02 39.4801 2995.46 45.8805 L3022.03 45.84 Z" fill="#000000" fill-rule="nonzero" fill-opacity="1" /><polyline clip-path="url(#clip801)" style="stroke:#800080; stroke-linecap:round; stroke-linejoin:round; stroke-width:8; stroke-opacity:1; fill:none" points="1882.29,135.249 1894.74,155.867 1907.2,176.482 1919.66,197.093 1932.12,217.701 1944.58,238.304 1957.04,258.901 1969.5,279.492 1981.96,300.074 1994.42,320.648 2006.88,341.213 2019.34,361.767 2031.8,382.313 2044.26,402.856 2056.71,423.404 2069.17,443.962 2081.63,464.536 2094.09,485.132 2106.55,505.757 2119.01,526.417 2131.47,547.117 2143.93,567.864 2156.39,588.663 2168.85,609.519 2181.31,630.371 2193.77,651.108 2206.23,671.615 2218.69,691.778 2231.14,711.483 2243.6,730.617 2256.06,749.065 2268.52,766.712 2280.98,783.445 2293.44,799.15 2305.9,813.713 2318.36,827.029 2330.82,839.124 2343.28,850.104 2355.74,860.076 2368.2,869.15 2380.66,877.433 2393.11,885.033 2405.57,892.06 2418.03,898.619 2430.49,904.821 2442.95,910.774 2455.41,916.584 2467.87,922.353 2480.33,928.113 2492.79,933.867 2505.25,939.615 2517.71,945.357 2530.17,951.095 2542.63,956.83 2555.09,962.562 2567.54,968.293 2580,974.023 2592.46,979.753 2604.92,985.485 2617.38,991.218 2629.84,996.953 2642.3,1002.69 2654.76,1008.43 2667.22,1014.17 2679.68,1019.91 2692.14,1025.65 2704.6,1031.39 2717.06,1037.14 2729.51,1042.88 2741.97,1048.62 2754.43,1054.37 2766.89,1060.11 2779.35,1065.85 2791.81,1071.59 2804.27,1077.33 2816.73,1083.07 2829.19,1088.81 2841.65,1094.55 2854.11,1100.29 2866.57,1106.03 2879.03,1111.77 2891.49,1117.51 2903.94,1123.25 2916.4,1128.99 2928.86,1134.72 2941.32,1140.46 2953.78,1146.2 2966.24,1151.94 2978.7,1157.68 2991.16,1163.43 3003.62,1169.17 3016.08,1174.91 3028.54,1180.65 3041,1186.39 3053.46,1192.13 3065.91,1197.87 3078.37,1203.61 3090.83,1209.35 3103.29,1215.09 3115.75,1220.83 "/>
</svg>
