<?xml version="1.0" encoding="utf-8"?>
<svg xmlns="http://www.w3.org/2000/svg" xmlns:xlink="http://www.w3.org/1999/xlink" width="800" height="350" viewBox="0 0 3200 1400">
<defs>
  <clipPath id="clip740">
    <rect x="0" y="0" width="3200" height="1400"/>
  </clipPath>
</defs>
<path clip-path="url(#clip740)" d="M0 1400 L3200 1400 L3200 0 L0 0  Z" fill="#ffffff" fill-rule="evenodd" fill-opacity="1"/>
<defs>
  <clipPath id="clip741">
    <rect x="1807" y="102" width="1346" height="1152"/>
  </clipPath>
</defs>
<path clip-path="url(#clip740)" d="M167.11 1253.39 L1512.37 1253.39 L1512.37 102.682 L167.11 102.682  Z" fill="#ffffff" fill-rule="evenodd" fill-opacity="1"/>
<defs>
  <clipPath id="clip742">
    <rect x="167" y="102" width="1346" height="1152"/>
  </clipPath>
</defs>
<polyline clip-path="url(#clip742)" style="stroke:#000000; stroke-linecap:round; stroke-linejoin:round; stroke-width:2; stroke-opacity:0.1; fill:none" points="197.202,1253.39 197.202,102.682 "/>
<polyline clip-path="url(#clip742)" style="stroke:#000000; stroke-linecap:round; stroke-linejoin:round; stroke-width:2; stroke-opacity:0.1; fill:none" points="596.295,1253.39 596.295,102.682 "/>
<polyline clip-path="url(#clip742)" style="stroke:#000000; stroke-linecap:round; stroke-linejoin:round; stroke-width:2; stroke-opacity:0.1; fill:none" points="995.389,1253.39 995.389,102.682 "/>
<polyline clip-path="url(#clip742)" style="stroke:#000000; stroke-linecap:round; stroke-linejoin:round; stroke-width:2; stroke-opacity:0.1; fill:none" points="1394.48,1253.39 1394.48,102.682 "/>
<polyline clip-path="url(#clip742)" style="stroke:#000000; stroke-linecap:round; stroke-linejoin:round; stroke-width:2; stroke-opacity:0.1; fill:none" points="167.11,1219.37 1512.37,1219.37 "/>
<polyline clip-path="url(#clip742)" style="stroke:#000000; stroke-linecap:round; stroke-linejoin:round; stroke-width:2; stroke-opacity:0.1; fill:none" points="167.11,1016.46 1512.37,1016.46 "/>
<polyline clip-path="url(#clip742)" style="stroke:#000000; stroke-linecap:round; stroke-linejoin:round; stroke-width:2; stroke-opacity:0.1; fill:none" points="167.11,813.558 1512.37,813.558 "/>
<polyline clip-path="url(#clip742)" style="stroke:#000000; stroke-linecap:round; stroke-linejoin:round; stroke-width:2; stroke-opacity:0.1; fill:none" points="167.11,610.654 1512.37,610.654 "/>
<polyline clip-path="url(#clip742)" style="stroke:#000000; stroke-linecap:round; stroke-linejoin:round; stroke-width:2; stroke-opacity:0.1; fill:none" points="167.11,407.75 1512.37,407.75 "/>
<polyline clip-path="url(#clip742)" style="stroke:#000000; stroke-linecap:round; stroke-linejoin:round; stroke-width:2; stroke-opacity:0.1; fill:none" points="167.11,204.846 1512.37,204.846 "/>
<polyline clip-path="url(#clip740)" style="stroke:#000000; stroke-linecap:round; stroke-linejoin:round; stroke-width:4; stroke-opacity:1; fill:none" points="167.11,1253.39 1512.37,1253.39 "/>
<polyline clip-path="url(#clip740)" style="stroke:#000000; stroke-linecap:round; stroke-linejoin:round; stroke-width:4; stroke-opacity:1; fill:none" points="197.202,1253.39 197.202,1234.5 "/>
<polyline clip-path="url(#clip740)" style="stroke:#000000; stroke-linecap:round; stroke-linejoin:round; stroke-width:4; stroke-opacity:1; fill:none" points="596.295,1253.39 596.295,1234.5 "/>
<polyline clip-path="url(#clip740)" style="stroke:#000000; stroke-linecap:round; stroke-linejoin:round; stroke-width:4; stroke-opacity:1; fill:none" points="995.389,1253.39 995.389,1234.5 "/>
<polyline clip-path="url(#clip740)" style="stroke:#000000; stroke-linecap:round; stroke-linejoin:round; stroke-width:4; stroke-opacity:1; fill:none" points="1394.48,1253.39 1394.48,1234.5 "/>
<path clip-path="url(#clip740)" d="M197.202 1290.71 Q193.591 1290.71 191.762 1294.28 Q189.957 1297.82 189.957 1304.95 Q189.957 1312.06 191.762 1315.62 Q193.591 1319.16 197.202 1319.16 Q200.836 1319.16 202.642 1315.62 Q204.47 1312.06 204.47 1304.95 Q204.47 1297.82 202.642 1294.28 Q200.836 1290.71 197.202 1290.71 M197.202 1287.01 Q203.012 1287.01 206.068 1291.62 Q209.146 1296.2 209.146 1304.95 Q209.146 1313.68 206.068 1318.28 Q203.012 1322.87 197.202 1322.87 Q191.392 1322.87 188.313 1318.28 Q185.257 1313.68 185.257 1304.95 Q185.257 1296.2 188.313 1291.62 Q191.392 1287.01 197.202 1287.01 Z" fill="#000000" fill-rule="nonzero" fill-opacity="1" /><path clip-path="url(#clip740)" d="M570.994 1287.63 L589.351 1287.63 L589.351 1291.57 L575.277 1291.57 L575.277 1300.04 Q576.295 1299.69 577.314 1299.53 Q578.332 1299.35 579.351 1299.35 Q585.138 1299.35 588.517 1302.52 Q591.897 1305.69 591.897 1311.11 Q591.897 1316.69 588.425 1319.79 Q584.953 1322.87 578.633 1322.87 Q576.457 1322.87 574.189 1322.5 Q571.944 1322.13 569.536 1321.38 L569.536 1316.69 Q571.619 1317.82 573.842 1318.38 Q576.064 1318.93 578.541 1318.93 Q582.545 1318.93 584.883 1316.82 Q587.221 1314.72 587.221 1311.11 Q587.221 1307.5 584.883 1305.39 Q582.545 1303.28 578.541 1303.28 Q576.666 1303.28 574.791 1303.7 Q572.939 1304.12 570.994 1305 L570.994 1287.63 Z" fill="#000000" fill-rule="nonzero" fill-opacity="1" /><path clip-path="url(#clip740)" d="M611.11 1290.71 Q607.499 1290.71 605.67 1294.28 Q603.865 1297.82 603.865 1304.95 Q603.865 1312.06 605.67 1315.62 Q607.499 1319.16 611.11 1319.16 Q614.744 1319.16 616.55 1315.62 Q618.378 1312.06 618.378 1304.95 Q618.378 1297.82 616.55 1294.28 Q614.744 1290.71 611.11 1290.71 M611.11 1287.01 Q616.92 1287.01 619.976 1291.62 Q623.054 1296.2 623.054 1304.95 Q623.054 1313.68 619.976 1318.28 Q616.92 1322.87 611.11 1322.87 Q605.3 1322.87 602.221 1318.28 Q599.166 1313.68 599.166 1304.95 Q599.166 1296.2 602.221 1291.62 Q605.3 1287.01 611.11 1287.01 Z" fill="#000000" fill-rule="nonzero" fill-opacity="1" /><path clip-path="url(#clip740)" d="M954.995 1318.26 L962.634 1318.26 L962.634 1291.89 L954.324 1293.56 L954.324 1289.3 L962.588 1287.63 L967.264 1287.63 L967.264 1318.26 L974.903 1318.26 L974.903 1322.19 L954.995 1322.19 L954.995 1318.26 Z" fill="#000000" fill-rule="nonzero" fill-opacity="1" /><path clip-path="url(#clip740)" d="M994.347 1290.71 Q990.736 1290.71 988.907 1294.28 Q987.102 1297.82 987.102 1304.95 Q987.102 1312.06 988.907 1315.62 Q990.736 1319.16 994.347 1319.16 Q997.981 1319.16 999.787 1315.62 Q1001.62 1312.06 1001.62 1304.95 Q1001.62 1297.82 999.787 1294.28 Q997.981 1290.71 994.347 1290.71 M994.347 1287.01 Q1000.16 1287.01 1003.21 1291.62 Q1006.29 1296.2 1006.29 1304.95 Q1006.29 1313.68 1003.21 1318.28 Q1000.16 1322.87 994.347 1322.87 Q988.537 1322.87 985.458 1318.28 Q982.403 1313.68 982.403 1304.95 Q982.403 1296.2 985.458 1291.62 Q988.537 1287.01 994.347 1287.01 Z" fill="#000000" fill-rule="nonzero" fill-opacity="1" /><path clip-path="url(#clip740)" d="M1024.51 1290.71 Q1020.9 1290.71 1019.07 1294.28 Q1017.26 1297.82 1017.26 1304.95 Q1017.26 1312.06 1019.07 1315.62 Q1020.9 1319.16 1024.51 1319.16 Q1028.14 1319.16 1029.95 1315.62 Q1031.78 1312.06 1031.78 1304.95 Q1031.78 1297.82 1029.95 1294.28 Q1028.14 1290.71 1024.51 1290.71 M1024.51 1287.01 Q1030.32 1287.01 1033.37 1291.62 Q1036.45 1296.2 1036.45 1304.95 Q1036.45 1313.68 1033.37 1318.28 Q1030.32 1322.87 1024.51 1322.87 Q1018.7 1322.87 1015.62 1318.28 Q1012.56 1313.68 1012.56 1304.95 Q1012.56 1296.2 1015.62 1291.62 Q1018.7 1287.01 1024.51 1287.01 Z" fill="#000000" fill-rule="nonzero" fill-opacity="1" /><path clip-path="url(#clip740)" d="M1354.09 1318.26 L1361.73 1318.26 L1361.73 1291.89 L1353.42 1293.56 L1353.42 1289.3 L1361.68 1287.63 L1366.36 1287.63 L1366.36 1318.26 L1374 1318.26 L1374 1322.19 L1354.09 1322.19 L1354.09 1318.26 Z" fill="#000000" fill-rule="nonzero" fill-opacity="1" /><path clip-path="url(#clip740)" d="M1383.49 1287.63 L1401.84 1287.63 L1401.84 1291.57 L1387.77 1291.57 L1387.77 1300.04 Q1388.79 1299.69 1389.81 1299.53 Q1390.82 1299.35 1391.84 1299.35 Q1397.63 1299.35 1401.01 1302.52 Q1404.39 1305.69 1404.39 1311.11 Q1404.39 1316.69 1400.92 1319.79 Q1397.44 1322.87 1391.13 1322.87 Q1388.95 1322.87 1386.68 1322.5 Q1384.44 1322.13 1382.03 1321.38 L1382.03 1316.69 Q1384.11 1317.82 1386.33 1318.38 Q1388.56 1318.93 1391.03 1318.93 Q1395.04 1318.93 1397.38 1316.82 Q1399.71 1314.72 1399.71 1311.11 Q1399.71 1307.5 1397.38 1305.39 Q1395.04 1303.28 1391.03 1303.28 Q1389.16 1303.28 1387.28 1303.7 Q1385.43 1304.12 1383.49 1305 L1383.49 1287.63 Z" fill="#000000" fill-rule="nonzero" fill-opacity="1" /><path clip-path="url(#clip740)" d="M1423.6 1290.71 Q1419.99 1290.71 1418.16 1294.28 Q1416.36 1297.82 1416.36 1304.95 Q1416.36 1312.06 1418.16 1315.62 Q1419.99 1319.16 1423.6 1319.16 Q1427.24 1319.16 1429.04 1315.62 Q1430.87 1312.06 1430.87 1304.95 Q1430.87 1297.82 1429.04 1294.28 Q1427.24 1290.71 1423.6 1290.71 M1423.6 1287.01 Q1429.41 1287.01 1432.47 1291.62 Q1435.55 1296.2 1435.55 1304.95 Q1435.55 1313.68 1432.47 1318.28 Q1429.41 1322.87 1423.6 1322.87 Q1417.79 1322.87 1414.71 1318.28 Q1411.66 1313.68 1411.66 1304.95 Q1411.66 1296.2 1414.71 1291.62 Q1417.79 1287.01 1423.6 1287.01 Z" fill="#000000" fill-rule="nonzero" fill-opacity="1" /><path clip-path="url(#clip740)" d="M604.195 1362.74 L610.624 1362.74 L610.624 1382.22 L633.987 1382.22 L633.987 1362.74 L640.416 1362.74 L640.416 1410.26 L633.987 1410.26 L633.987 1387.63 L610.624 1387.63 L610.624 1410.26 L604.195 1410.26 L604.195 1362.74 Z" fill="#000000" fill-rule="nonzero" fill-opacity="1" /><path clip-path="url(#clip740)" d="M669.157 1392.34 Q662.059 1392.34 659.322 1393.96 Q656.585 1395.59 656.585 1399.5 Q656.585 1402.62 658.622 1404.47 Q660.691 1406.28 664.224 1406.28 Q669.094 1406.28 672.022 1402.84 Q674.982 1399.37 674.982 1393.64 L674.982 1392.34 L669.157 1392.34 M680.838 1389.92 L680.838 1410.26 L674.982 1410.26 L674.982 1404.85 Q672.977 1408.09 669.985 1409.65 Q666.993 1411.18 662.664 1411.18 Q657.19 1411.18 653.943 1408.13 Q650.728 1405.04 650.728 1399.88 Q650.728 1393.87 654.739 1390.81 Q658.781 1387.76 666.77 1387.76 L674.982 1387.76 L674.982 1387.18 Q674.982 1383.14 672.308 1380.94 Q669.666 1378.72 664.86 1378.72 Q661.805 1378.72 658.908 1379.45 Q656.012 1380.18 653.338 1381.64 L653.338 1376.23 Q656.553 1374.99 659.577 1374.39 Q662.6 1373.75 665.465 1373.75 Q673.199 1373.75 677.019 1377.76 Q680.838 1381.77 680.838 1389.92 Z" fill="#000000" fill-rule="nonzero" fill-opacity="1" /><path clip-path="url(#clip740)" d="M713.558 1380.09 Q712.571 1379.51 711.394 1379.26 Q710.248 1378.97 708.847 1378.97 Q703.882 1378.97 701.209 1382.22 Q698.567 1385.43 698.567 1391.48 L698.567 1410.26 L692.678 1410.26 L692.678 1374.61 L698.567 1374.61 L698.567 1380.15 Q700.413 1376.9 703.373 1375.34 Q706.333 1373.75 710.566 1373.75 Q711.171 1373.75 711.903 1373.85 Q712.635 1373.91 713.526 1374.07 L713.558 1380.09 Z" fill="#000000" fill-rule="nonzero" fill-opacity="1" /><path clip-path="url(#clip740)" d="M748.76 1390.97 L748.76 1393.84 L721.833 1393.84 Q722.215 1399.88 725.462 1403.07 Q728.74 1406.22 734.565 1406.22 Q737.939 1406.22 741.09 1405.39 Q744.273 1404.56 747.392 1402.91 L747.392 1408.44 Q744.241 1409.78 740.931 1410.48 Q737.62 1411.18 734.215 1411.18 Q725.685 1411.18 720.688 1406.22 Q715.722 1401.25 715.722 1392.78 Q715.722 1384.03 720.433 1378.91 Q725.175 1373.75 733.196 1373.75 Q740.389 1373.75 744.559 1378.4 Q748.76 1383.01 748.76 1390.97 M742.904 1389.25 Q742.84 1384.45 740.198 1381.58 Q737.589 1378.72 733.26 1378.72 Q728.358 1378.72 725.398 1381.49 Q722.47 1384.25 722.024 1389.28 L742.904 1389.25 Z" fill="#000000" fill-rule="nonzero" fill-opacity="1" /><path clip-path="url(#clip740)" d="M802.551 1380.02 L802.551 1360.73 L808.407 1360.73 L808.407 1410.26 L802.551 1410.26 L802.551 1404.91 Q800.704 1408.09 797.872 1409.65 Q795.071 1411.18 791.124 1411.18 Q784.663 1411.18 780.589 1406.03 Q776.547 1400.87 776.547 1392.47 Q776.547 1384.06 780.589 1378.91 Q784.663 1373.75 791.124 1373.75 Q795.071 1373.75 797.872 1375.31 Q800.704 1376.84 802.551 1380.02 M782.594 1392.47 Q782.594 1398.93 785.236 1402.62 Q787.909 1406.28 792.556 1406.28 Q797.203 1406.28 799.877 1402.62 Q802.551 1398.93 802.551 1392.47 Q802.551 1386.01 799.877 1382.35 Q797.203 1378.65 792.556 1378.65 Q787.909 1378.65 785.236 1382.35 Q782.594 1386.01 782.594 1392.47 Z" fill="#000000" fill-rule="nonzero" fill-opacity="1" /><path clip-path="url(#clip740)" d="M850.962 1390.97 L850.962 1393.84 L824.035 1393.84 Q824.417 1399.88 827.663 1403.07 Q830.942 1406.22 836.766 1406.22 Q840.14 1406.22 843.291 1405.39 Q846.474 1404.56 849.593 1402.91 L849.593 1408.44 Q846.442 1409.78 843.132 1410.48 Q839.822 1411.18 836.416 1411.18 Q827.886 1411.18 822.889 1406.22 Q817.924 1401.25 817.924 1392.78 Q817.924 1384.03 822.634 1378.91 Q827.377 1373.75 835.398 1373.75 Q842.591 1373.75 846.76 1378.4 Q850.962 1383.01 850.962 1390.97 M845.105 1389.25 Q845.042 1384.45 842.4 1381.58 Q839.79 1378.72 835.461 1378.72 Q830.56 1378.72 827.6 1381.49 Q824.671 1384.25 824.226 1389.28 L845.105 1389.25 Z" fill="#000000" fill-rule="nonzero" fill-opacity="1" /><path clip-path="url(#clip740)" d="M890.206 1388.74 L890.206 1410.26 L884.35 1410.26 L884.35 1388.93 Q884.35 1383.87 882.377 1381.36 Q880.403 1378.84 876.456 1378.84 Q871.714 1378.84 868.977 1381.87 Q866.239 1384.89 866.239 1390.11 L866.239 1410.26 L860.351 1410.26 L860.351 1374.61 L866.239 1374.61 L866.239 1380.15 Q868.34 1376.93 871.173 1375.34 Q874.037 1373.75 877.761 1373.75 Q883.904 1373.75 887.055 1377.57 Q890.206 1381.36 890.206 1388.74 Z" fill="#000000" fill-rule="nonzero" fill-opacity="1" /><path clip-path="url(#clip740)" d="M924.613 1375.66 L924.613 1381.2 Q922.13 1379.93 919.457 1379.29 Q916.783 1378.65 913.919 1378.65 Q909.558 1378.65 907.362 1379.99 Q905.198 1381.33 905.198 1384 Q905.198 1386.04 906.757 1387.21 Q908.317 1388.36 913.027 1389.41 L915.033 1389.86 Q921.271 1391.19 923.881 1393.64 Q926.523 1396.06 926.523 1400.42 Q926.523 1405.39 922.576 1408.29 Q918.661 1411.18 911.786 1411.18 Q908.922 1411.18 905.802 1410.61 Q902.715 1410.07 899.277 1408.95 L899.277 1402.91 Q902.524 1404.59 905.675 1405.45 Q908.826 1406.28 911.913 1406.28 Q916.051 1406.28 918.279 1404.88 Q920.507 1403.45 920.507 1400.87 Q920.507 1398.48 918.884 1397.21 Q917.292 1395.94 911.85 1394.76 L909.813 1394.28 Q904.37 1393.14 901.951 1390.78 Q899.532 1388.39 899.532 1384.25 Q899.532 1379.23 903.097 1376.49 Q906.662 1373.75 913.218 1373.75 Q916.465 1373.75 919.329 1374.23 Q922.194 1374.71 924.613 1375.66 Z" fill="#000000" fill-rule="nonzero" fill-opacity="1" /><path clip-path="url(#clip740)" d="M935.848 1374.61 L941.705 1374.61 L941.705 1410.26 L935.848 1410.26 L935.848 1374.61 M935.848 1360.73 L941.705 1360.73 L941.705 1368.15 L935.848 1368.15 L935.848 1360.73 Z" fill="#000000" fill-rule="nonzero" fill-opacity="1" /><path clip-path="url(#clip740)" d="M959.752 1364.49 L959.752 1374.61 L971.815 1374.61 L971.815 1379.16 L959.752 1379.16 L959.752 1398.51 Q959.752 1402.87 960.929 1404.12 Q962.139 1405.36 965.799 1405.36 L971.815 1405.36 L971.815 1410.26 L965.799 1410.26 Q959.02 1410.26 956.442 1407.74 Q953.863 1405.2 953.863 1398.51 L953.863 1379.16 L949.567 1379.16 L949.567 1374.61 L953.863 1374.61 L953.863 1364.49 L959.752 1364.49 Z" fill="#000000" fill-rule="nonzero" fill-opacity="1" /><path clip-path="url(#clip740)" d="M994.349 1413.57 Q991.867 1419.93 989.511 1421.88 Q987.156 1423.82 983.209 1423.82 L978.531 1423.82 L978.531 1418.92 L981.968 1418.92 Q984.387 1418.92 985.724 1417.77 Q987.061 1416.62 988.684 1412.36 L989.734 1409.69 L975.316 1374.61 L981.522 1374.61 L992.662 1402.49 L1003.8 1374.61 L1010.01 1374.61 L994.349 1413.57 Z" fill="#000000" fill-rule="nonzero" fill-opacity="1" /><path clip-path="url(#clip740)" d="M1039.07 1362.74 L1045.5 1362.74 L1045.5 1382.22 L1068.86 1382.22 L1068.86 1362.74 L1075.29 1362.74 L1075.29 1410.26 L1068.86 1410.26 L1068.86 1387.63 L1045.5 1387.63 L1045.5 1410.26 L1039.07 1410.26 L1039.07 1362.74 Z" fill="#000000" fill-rule="nonzero" fill-opacity="1" /><polyline clip-path="url(#clip740)" style="stroke:#000000; stroke-linecap:round; stroke-linejoin:round; stroke-width:4; stroke-opacity:1; fill:none" points="167.11,1253.39 167.11,102.682 "/>
<polyline clip-path="url(#clip740)" style="stroke:#000000; stroke-linecap:round; stroke-linejoin:round; stroke-width:4; stroke-opacity:1; fill:none" points="167.11,1219.37 186.008,1219.37 "/>
<polyline clip-path="url(#clip740)" style="stroke:#000000; stroke-linecap:round; stroke-linejoin:round; stroke-width:4; stroke-opacity:1; fill:none" points="167.11,1016.46 186.008,1016.46 "/>
<polyline clip-path="url(#clip740)" style="stroke:#000000; stroke-linecap:round; stroke-linejoin:round; stroke-width:4; stroke-opacity:1; fill:none" points="167.11,813.558 186.008,813.558 "/>
<polyline clip-path="url(#clip740)" style="stroke:#000000; stroke-linecap:round; stroke-linejoin:round; stroke-width:4; stroke-opacity:1; fill:none" points="167.11,610.654 186.008,610.654 "/>
<polyline clip-path="url(#clip740)" style="stroke:#000000; stroke-linecap:round; stroke-linejoin:round; stroke-width:4; stroke-opacity:1; fill:none" points="167.11,407.75 186.008,407.75 "/>
<polyline clip-path="url(#clip740)" style="stroke:#000000; stroke-linecap:round; stroke-linejoin:round; stroke-width:4; stroke-opacity:1; fill:none" points="167.11,204.846 186.008,204.846 "/>
<path clip-path="url(#clip740)" d="M107.166 1205.16 Q103.555 1205.16 101.726 1208.73 Q99.9205 1212.27 99.9205 1219.4 Q99.9205 1226.51 101.726 1230.07 Q103.555 1233.61 107.166 1233.61 Q110.8 1233.61 112.606 1230.07 Q114.434 1226.51 114.434 1219.4 Q114.434 1212.27 112.606 1208.73 Q110.8 1205.16 107.166 1205.16 M107.166 1201.46 Q112.976 1201.46 116.032 1206.07 Q119.11 1210.65 119.11 1219.4 Q119.11 1228.13 116.032 1232.73 Q112.976 1237.32 107.166 1237.32 Q101.356 1237.32 98.277 1232.73 Q95.2214 1228.13 95.2214 1219.4 Q95.2214 1210.65 98.277 1206.07 Q101.356 1201.46 107.166 1201.46 Z" fill="#000000" fill-rule="nonzero" fill-opacity="1" /><path clip-path="url(#clip740)" d="M99.2029 1029.81 L106.842 1029.81 L106.842 1003.44 L98.5316 1005.11 L98.5316 1000.85 L106.795 999.181 L111.471 999.181 L111.471 1029.81 L119.11 1029.81 L119.11 1033.74 L99.2029 1033.74 L99.2029 1029.81 Z" fill="#000000" fill-rule="nonzero" fill-opacity="1" /><path clip-path="url(#clip740)" d="M102.791 826.902 L119.11 826.902 L119.11 830.838 L97.1659 830.838 L97.1659 826.902 Q99.8279 824.148 104.411 819.518 Q109.018 814.865 110.198 813.523 Q112.444 811 113.323 809.264 Q114.226 807.504 114.226 805.815 Q114.226 803.06 112.282 801.324 Q110.36 799.588 107.258 799.588 Q105.059 799.588 102.606 800.352 Q100.175 801.116 97.3974 802.666 L97.3974 797.944 Q100.221 796.81 102.675 796.231 Q105.129 795.653 107.166 795.653 Q112.536 795.653 115.731 798.338 Q118.925 801.023 118.925 805.514 Q118.925 807.643 118.115 809.565 Q117.328 811.463 115.221 814.055 Q114.643 814.727 111.541 817.944 Q108.439 821.139 102.791 826.902 Z" fill="#000000" fill-rule="nonzero" fill-opacity="1" /><path clip-path="url(#clip740)" d="M111.981 609.3 Q115.337 610.017 117.212 612.286 Q119.11 614.554 119.11 617.888 Q119.11 623.003 115.592 625.804 Q112.073 628.605 105.592 628.605 Q103.416 628.605 101.101 628.165 Q98.8094 627.749 96.3557 626.892 L96.3557 622.378 Q98.3001 623.513 100.615 624.091 Q102.93 624.67 105.453 624.67 Q109.851 624.67 112.143 622.934 Q114.457 621.198 114.457 617.888 Q114.457 614.832 112.305 613.119 Q110.175 611.383 106.356 611.383 L102.328 611.383 L102.328 607.54 L106.541 607.54 Q109.99 607.54 111.819 606.175 Q113.647 604.786 113.647 602.193 Q113.647 599.531 111.749 598.119 Q109.874 596.684 106.356 596.684 Q104.434 596.684 102.235 597.101 Q100.036 597.517 97.3974 598.397 L97.3974 594.23 Q100.059 593.49 102.374 593.119 Q104.712 592.749 106.772 592.749 Q112.096 592.749 115.198 595.179 Q118.3 597.587 118.3 601.707 Q118.3 604.578 116.657 606.568 Q115.013 608.536 111.981 609.3 Z" fill="#000000" fill-rule="nonzero" fill-opacity="1" /><path clip-path="url(#clip740)" d="M109.527 394.544 L97.7214 412.993 L109.527 412.993 L109.527 394.544 M108.3 390.47 L114.18 390.47 L114.18 412.993 L119.11 412.993 L119.11 416.882 L114.18 416.882 L114.18 425.03 L109.527 425.03 L109.527 416.882 L93.9252 416.882 L93.9252 412.368 L108.3 390.47 Z" fill="#000000" fill-rule="nonzero" fill-opacity="1" /><path clip-path="url(#clip740)" d="M98.2075 187.566 L116.564 187.566 L116.564 191.502 L102.49 191.502 L102.49 199.974 Q103.508 199.626 104.527 199.464 Q105.545 199.279 106.564 199.279 Q112.351 199.279 115.731 202.451 Q119.11 205.622 119.11 211.038 Q119.11 216.617 115.638 219.719 Q112.166 222.798 105.846 222.798 Q103.67 222.798 101.402 222.427 Q99.1566 222.057 96.7492 221.316 L96.7492 216.617 Q98.8325 217.751 101.055 218.307 Q103.277 218.863 105.754 218.863 Q109.758 218.863 112.096 216.756 Q114.434 214.65 114.434 211.038 Q114.434 207.427 112.096 205.321 Q109.758 203.214 105.754 203.214 Q103.879 203.214 102.004 203.631 Q100.152 204.048 98.2075 204.927 L98.2075 187.566 Z" fill="#000000" fill-rule="nonzero" fill-opacity="1" /><path clip-path="url(#clip740)" d="M1.49571 714.737 Q0.922794 715.723 0.668166 716.901 Q0.381709 718.047 0.381709 719.447 Q0.381709 724.413 3.62822 727.086 Q6.8429 729.728 12.8903 729.728 L31.6692 729.728 L31.6692 735.616 L-3.9788 735.616 L-3.9788 729.728 L1.55937 729.728 Q-1.68715 727.882 -3.24674 724.922 Q-4.83817 721.962 -4.83817 717.729 Q-4.83817 717.124 -4.74268 716.392 Q-4.67903 715.66 -4.51988 714.769 L1.49571 714.737 Z" fill="#000000" fill-rule="nonzero" fill-opacity="1" /><path clip-path="url(#clip740)" d="M-17.7924 694.526 Q-10.4718 698.791 -3.3104 700.86 Q3.85102 702.928 11.2034 702.928 Q18.5558 702.928 25.7809 700.86 Q32.9741 698.759 40.2629 694.526 L40.2629 699.618 Q32.7832 704.393 25.5581 706.78 Q18.333 709.135 11.2034 709.135 Q4.10565 709.135 -3.0876 706.78 Q-10.2808 704.424 -17.7924 699.618 L-17.7924 694.526 Z" fill="#000000" fill-rule="nonzero" fill-opacity="1" /><path clip-path="url(#clip740)" d="M-15.8508 682.908 L-15.8508 676.479 L3.62822 676.479 L3.62822 653.117 L-15.8508 653.117 L-15.8508 646.687 L31.6692 646.687 L31.6692 653.117 L9.03907 653.117 L9.03907 676.479 L31.6692 676.479 L31.6692 682.908 L-15.8508 682.908 Z" fill="#000000" fill-rule="nonzero" fill-opacity="1" /><path clip-path="url(#clip740)" d="M-17.7924 635.07 L-17.7924 629.977 Q-10.2808 625.203 -3.0876 622.848 Q4.10565 620.461 11.2034 620.461 Q18.333 620.461 25.5581 622.848 Q32.7832 625.203 40.2629 629.977 L40.2629 635.07 Q32.9741 630.837 25.7809 628.768 Q18.5558 626.667 11.2034 626.667 Q3.85102 626.667 -3.3104 628.768 Q-10.4718 630.837 -17.7924 635.07 Z" fill="#000000" fill-rule="nonzero" fill-opacity="1" /><path clip-path="url(#clip740)" d="M286.49 18.8205 L286.49 41.5461 L296.779 41.5461 Q302.491 41.5461 305.61 38.5889 Q308.729 35.6318 308.729 30.163 Q308.729 24.7348 305.61 21.7777 Q302.491 18.8205 296.779 18.8205 L286.49 18.8205 M278.307 12.096 L296.779 12.096 Q306.947 12.096 312.132 16.714 Q317.358 21.2916 317.358 30.163 Q317.358 39.1155 312.132 43.6931 Q306.947 48.2706 296.779 48.2706 L286.49 48.2706 L286.49 72.576 L278.307 72.576 L278.307 12.096 Z" fill="#000000" fill-rule="nonzero" fill-opacity="1" /><path clip-path="url(#clip740)" d="M363.862 48.0275 L363.862 51.6733 L329.592 51.6733 Q330.078 59.3701 334.21 63.421 Q338.382 67.4314 345.795 67.4314 Q350.089 67.4314 354.1 66.3781 Q358.15 65.3249 362.12 63.2184 L362.12 70.267 Q358.11 71.9684 353.897 72.8596 Q349.684 73.7508 345.35 73.7508 Q334.493 73.7508 328.133 67.4314 Q321.814 61.1119 321.814 50.3365 Q321.814 39.1965 327.809 32.6746 Q333.845 26.1121 344.053 26.1121 Q353.208 26.1121 358.515 32.0264 Q363.862 37.9003 363.862 48.0275 M356.409 45.84 Q356.328 39.7232 352.965 36.0774 Q349.644 32.4315 344.134 32.4315 Q337.896 32.4315 334.129 35.9558 Q330.402 39.4801 329.835 45.8805 L356.409 45.84 Z" fill="#000000" fill-rule="nonzero" fill-opacity="1" /><path clip-path="url(#clip740)" d="M402.386 34.1734 Q401.131 33.4443 399.632 33.1202 Q398.173 32.7556 396.391 32.7556 Q390.072 32.7556 386.669 36.8875 Q383.307 40.9789 383.307 48.6757 L383.307 72.576 L375.812 72.576 L375.812 27.2059 L383.307 27.2059 L383.307 34.2544 Q385.656 30.1225 389.423 28.1376 Q393.191 26.1121 398.578 26.1121 Q399.348 26.1121 400.28 26.2337 Q401.212 26.3147 402.346 26.5172 L402.386 34.1734 Z" fill="#000000" fill-rule="nonzero" fill-opacity="1" /><path clip-path="url(#clip740)" d="M401.131 46.5287 L422.965 46.5287 L422.965 53.1722 L401.131 53.1722 L401.131 46.5287 Z" fill="#000000" fill-rule="nonzero" fill-opacity="1" /><path clip-path="url(#clip740)" d="M467.484 28.9478 L467.484 35.9153 Q464.325 34.1734 461.124 33.3227 Q457.965 32.4315 454.724 32.4315 Q447.473 32.4315 443.462 37.0496 Q439.452 41.6271 439.452 49.9314 Q439.452 58.2358 443.462 62.8538 Q447.473 67.4314 454.724 67.4314 Q457.965 67.4314 461.124 66.5807 Q464.325 65.6895 467.484 63.9476 L467.484 70.8341 Q464.365 72.2924 461.003 73.0216 Q457.681 73.7508 453.914 73.7508 Q443.665 73.7508 437.629 67.3098 Q431.593 60.8689 431.593 49.9314 Q431.593 38.832 437.67 32.472 Q443.787 26.1121 454.4 26.1121 Q457.843 26.1121 461.124 26.8413 Q464.406 27.5299 467.484 28.9478 Z" fill="#000000" fill-rule="nonzero" fill-opacity="1" /><path clip-path="url(#clip740)" d="M501.066 49.7694 Q492.033 49.7694 488.549 51.8354 Q485.065 53.9013 485.065 58.8839 Q485.065 62.8538 487.658 65.2034 Q490.291 67.5124 494.787 67.5124 Q500.985 67.5124 504.712 63.1374 Q508.48 58.7219 508.48 51.4303 L508.48 49.7694 L501.066 49.7694 M515.933 46.6907 L515.933 72.576 L508.48 72.576 L508.48 65.6895 Q505.927 69.8214 502.12 71.8063 Q498.312 73.7508 492.803 73.7508 Q485.835 73.7508 481.703 69.8619 Q477.612 65.9325 477.612 59.3701 Q477.612 51.7138 482.716 47.825 Q487.86 43.9361 498.028 43.9361 L508.48 43.9361 L508.48 43.2069 Q508.48 38.0623 505.077 35.2672 Q501.714 32.4315 495.598 32.4315 Q491.709 32.4315 488.022 33.3632 Q484.336 34.295 480.933 36.1584 L480.933 29.2718 Q485.025 27.692 488.873 26.9223 Q492.721 26.1121 496.367 26.1121 Q506.211 26.1121 511.072 31.2163 Q515.933 36.3204 515.933 46.6907 Z" fill="#000000" fill-rule="nonzero" fill-opacity="1" /><path clip-path="url(#clip740)" d="M538.497 65.7705 L538.497 89.8329 L531.003 89.8329 L531.003 27.2059 L538.497 27.2059 L538.497 34.0924 Q540.846 30.0415 544.411 28.0971 Q548.016 26.1121 552.999 26.1121 Q561.263 26.1121 566.407 32.6746 Q571.593 39.2371 571.593 49.9314 Q571.593 60.6258 566.407 67.1883 Q561.263 73.7508 552.999 73.7508 Q548.016 73.7508 544.411 71.8063 Q540.846 69.8214 538.497 65.7705 M563.855 49.9314 Q563.855 41.7081 560.453 37.0496 Q557.09 32.3505 551.176 32.3505 Q545.262 32.3505 541.859 37.0496 Q538.497 41.7081 538.497 49.9314 Q538.497 58.1548 541.859 62.8538 Q545.262 67.5124 551.176 67.5124 Q557.09 67.5124 560.453 62.8538 Q563.855 58.1548 563.855 49.9314 Z" fill="#000000" fill-rule="nonzero" fill-opacity="1" /><path clip-path="url(#clip740)" d="M583.948 27.2059 L591.402 27.2059 L591.402 72.576 L583.948 72.576 L583.948 27.2059 M583.948 9.54393 L591.402 9.54393 L591.402 18.9825 L583.948 18.9825 L583.948 9.54393 Z" fill="#000000" fill-rule="nonzero" fill-opacity="1" /><path clip-path="url(#clip740)" d="M614.37 14.324 L614.37 27.2059 L629.723 27.2059 L629.723 32.9987 L614.37 32.9987 L614.37 57.6282 Q614.37 63.1779 615.869 64.7578 Q617.408 66.3376 622.067 66.3376 L629.723 66.3376 L629.723 72.576 L622.067 72.576 Q613.438 72.576 610.157 69.3758 Q606.876 66.1351 606.876 57.6282 L606.876 32.9987 L601.407 32.9987 L601.407 27.2059 L606.876 27.2059 L606.876 14.324 L614.37 14.324 Z" fill="#000000" fill-rule="nonzero" fill-opacity="1" /><path clip-path="url(#clip740)" d="M660.145 49.7694 Q651.112 49.7694 647.628 51.8354 Q644.144 53.9013 644.144 58.8839 Q644.144 62.8538 646.737 65.2034 Q649.37 67.5124 653.866 67.5124 Q660.064 67.5124 663.791 63.1374 Q667.559 58.7219 667.559 51.4303 L667.559 49.7694 L660.145 49.7694 M675.012 46.6907 L675.012 72.576 L667.559 72.576 L667.559 65.6895 Q665.006 69.8214 661.199 71.8063 Q657.391 73.7508 651.882 73.7508 Q644.914 73.7508 640.782 69.8619 Q636.691 65.9325 636.691 59.3701 Q636.691 51.7138 641.795 47.825 Q646.939 43.9361 657.107 43.9361 L667.559 43.9361 L667.559 43.2069 Q667.559 38.0623 664.156 35.2672 Q660.793 32.4315 654.677 32.4315 Q650.788 32.4315 647.101 33.3632 Q643.415 34.295 640.012 36.1584 L640.012 29.2718 Q644.104 27.692 647.952 26.9223 Q651.8 26.1121 655.446 26.1121 Q665.29 26.1121 670.151 31.2163 Q675.012 36.3204 675.012 46.6907 Z" fill="#000000" fill-rule="nonzero" fill-opacity="1" /><path clip-path="url(#clip740)" d="M754.45 45.1919 L754.45 72.576 L746.997 72.576 L746.997 45.4349 Q746.997 38.994 744.485 35.7938 Q741.974 32.5936 736.95 32.5936 Q730.915 32.5936 727.431 36.4419 Q723.947 40.2903 723.947 46.9338 L723.947 72.576 L716.453 72.576 L716.453 9.54393 L723.947 9.54393 L723.947 34.2544 Q726.621 30.163 730.226 28.1376 Q733.872 26.1121 738.611 26.1121 Q746.43 26.1121 750.44 30.9732 Q754.45 35.7938 754.45 45.1919 Z" fill="#000000" fill-rule="nonzero" fill-opacity="1" /><path clip-path="url(#clip740)" d="M789.936 49.7694 Q780.903 49.7694 777.419 51.8354 Q773.935 53.9013 773.935 58.8839 Q773.935 62.8538 776.528 65.2034 Q779.161 67.5124 783.657 67.5124 Q789.855 67.5124 793.582 63.1374 Q797.349 58.7219 797.349 51.4303 L797.349 49.7694 L789.936 49.7694 M804.803 46.6907 L804.803 72.576 L797.349 72.576 L797.349 65.6895 Q794.797 69.8214 790.99 71.8063 Q787.182 73.7508 781.672 73.7508 Q774.705 73.7508 770.573 69.8619 Q766.482 65.9325 766.482 59.3701 Q766.482 51.7138 771.586 47.825 Q776.73 43.9361 786.898 43.9361 L797.349 43.9361 L797.349 43.2069 Q797.349 38.0623 793.947 35.2672 Q790.584 32.4315 784.468 32.4315 Q780.579 32.4315 776.892 33.3632 Q773.206 34.295 769.803 36.1584 L769.803 29.2718 Q773.895 27.692 777.743 26.9223 Q781.591 26.1121 785.237 26.1121 Q795.081 26.1121 799.942 31.2163 Q804.803 36.3204 804.803 46.6907 Z" fill="#000000" fill-rule="nonzero" fill-opacity="1" /><path clip-path="url(#clip740)" d="M846.446 34.1734 Q845.191 33.4443 843.692 33.1202 Q842.233 32.7556 840.451 32.7556 Q834.132 32.7556 830.729 36.8875 Q827.367 40.9789 827.367 48.6757 L827.367 72.576 L819.873 72.576 L819.873 27.2059 L827.367 27.2059 L827.367 34.2544 Q829.716 30.1225 833.484 28.1376 Q837.251 26.1121 842.639 26.1121 Q843.408 26.1121 844.34 26.2337 Q845.272 26.3147 846.406 26.5172 L846.446 34.1734 Z" fill="#000000" fill-rule="nonzero" fill-opacity="1" /><path clip-path="url(#clip740)" d="M891.249 48.0275 L891.249 51.6733 L856.979 51.6733 Q857.465 59.3701 861.597 63.421 Q865.769 67.4314 873.182 67.4314 Q877.476 67.4314 881.487 66.3781 Q885.538 65.3249 889.508 63.2184 L889.508 70.267 Q885.497 71.9684 881.284 72.8596 Q877.071 73.7508 872.737 73.7508 Q861.88 73.7508 855.52 67.4314 Q849.201 61.1119 849.201 50.3365 Q849.201 39.1965 855.196 32.6746 Q861.232 26.1121 871.441 26.1121 Q880.596 26.1121 885.902 32.0264 Q891.249 37.9003 891.249 48.0275 M883.796 45.84 Q883.715 39.7232 880.353 36.0774 Q877.031 32.4315 871.522 32.4315 Q865.283 32.4315 861.516 35.9558 Q857.789 39.4801 857.222 45.8805 L883.796 45.84 Z" fill="#000000" fill-rule="nonzero" fill-opacity="1" /><path clip-path="url(#clip740)" d="M959.71 49.3643 Q959.71 41.2625 956.347 36.8065 Q953.026 32.3505 946.99 32.3505 Q940.995 32.3505 937.632 36.8065 Q934.311 41.2625 934.311 49.3643 Q934.311 57.4256 937.632 61.8816 Q940.995 66.3376 946.99 66.3376 Q953.026 66.3376 956.347 61.8816 Q959.71 57.4256 959.71 49.3643 M967.163 66.9452 Q967.163 78.5308 962.019 84.1616 Q956.874 89.8329 946.261 89.8329 Q942.331 89.8329 938.848 89.2252 Q935.364 88.6581 932.083 87.4428 L932.083 80.1917 Q935.364 81.9741 938.564 82.8248 Q941.764 83.6755 945.086 83.6755 Q952.418 83.6755 956.064 79.8271 Q959.71 76.0193 959.71 68.282 L959.71 64.5957 Q957.401 68.6061 953.795 70.5911 Q950.19 72.576 945.167 72.576 Q936.822 72.576 931.718 66.2161 Q926.614 59.8562 926.614 49.3643 Q926.614 38.832 931.718 32.472 Q936.822 26.1121 945.167 26.1121 Q950.19 26.1121 953.795 28.0971 Q957.401 30.082 959.71 34.0924 L959.71 27.2059 L967.163 27.2059 L967.163 66.9452 Z" fill="#000000" fill-rule="nonzero" fill-opacity="1" /><path clip-path="url(#clip740)" d="M1008.81 34.1734 Q1007.55 33.4443 1006.05 33.1202 Q1004.59 32.7556 1002.81 32.7556 Q996.492 32.7556 993.089 36.8875 Q989.727 40.9789 989.727 48.6757 L989.727 72.576 L982.233 72.576 L982.233 27.2059 L989.727 27.2059 L989.727 34.2544 Q992.076 30.1225 995.844 28.1376 Q999.611 26.1121 1005 26.1121 Q1005.77 26.1121 1006.7 26.2337 Q1007.63 26.3147 1008.77 26.5172 L1008.81 34.1734 Z" fill="#000000" fill-rule="nonzero" fill-opacity="1" /><path clip-path="url(#clip740)" d="M1032.38 32.4315 Q1026.39 32.4315 1022.9 37.1306 Q1019.42 41.7891 1019.42 49.9314 Q1019.42 58.0738 1022.86 62.7728 Q1026.35 67.4314 1032.38 67.4314 Q1038.34 67.4314 1041.82 62.7323 Q1045.31 58.0333 1045.31 49.9314 Q1045.31 41.8701 1041.82 37.1711 Q1038.34 32.4315 1032.38 32.4315 M1032.38 26.1121 Q1042.11 26.1121 1047.65 32.4315 Q1053.2 38.7509 1053.2 49.9314 Q1053.2 61.0714 1047.65 67.4314 Q1042.11 73.7508 1032.38 73.7508 Q1022.62 73.7508 1017.07 67.4314 Q1011.56 61.0714 1011.56 49.9314 Q1011.56 38.7509 1017.07 32.4315 Q1022.62 26.1121 1032.38 26.1121 Z" fill="#000000" fill-rule="nonzero" fill-opacity="1" /><path clip-path="url(#clip740)" d="M1061.23 27.2059 L1068.68 27.2059 L1078 62.6108 L1087.27 27.2059 L1096.06 27.2059 L1105.38 62.6108 L1114.66 27.2059 L1122.11 27.2059 L1110.24 72.576 L1101.45 72.576 L1091.69 35.3887 L1081.88 72.576 L1073.09 72.576 L1061.23 27.2059 Z" fill="#000000" fill-rule="nonzero" fill-opacity="1" /><path clip-path="url(#clip740)" d="M1140.79 14.324 L1140.79 27.2059 L1156.14 27.2059 L1156.14 32.9987 L1140.79 32.9987 L1140.79 57.6282 Q1140.79 63.1779 1142.28 64.7578 Q1143.82 66.3376 1148.48 66.3376 L1156.14 66.3376 L1156.14 72.576 L1148.48 72.576 Q1139.85 72.576 1136.57 69.3758 Q1133.29 66.1351 1133.29 57.6282 L1133.29 32.9987 L1127.82 32.9987 L1127.82 27.2059 L1133.29 27.2059 L1133.29 14.324 L1140.79 14.324 Z" fill="#000000" fill-rule="nonzero" fill-opacity="1" /><path clip-path="url(#clip740)" d="M1203.66 45.1919 L1203.66 72.576 L1196.2 72.576 L1196.2 45.4349 Q1196.2 38.994 1193.69 35.7938 Q1191.18 32.5936 1186.16 32.5936 Q1180.12 32.5936 1176.64 36.4419 Q1173.15 40.2903 1173.15 46.9338 L1173.15 72.576 L1165.66 72.576 L1165.66 9.54393 L1173.15 9.54393 L1173.15 34.2544 Q1175.83 30.163 1179.43 28.1376 Q1183.08 26.1121 1187.82 26.1121 Q1195.63 26.1121 1199.64 30.9732 Q1203.66 35.7938 1203.66 45.1919 Z" fill="#000000" fill-rule="nonzero" fill-opacity="1" /><path clip-path="url(#clip740)" d="M1271.18 34.1734 Q1269.93 33.4443 1268.43 33.1202 Q1266.97 32.7556 1265.19 32.7556 Q1258.87 32.7556 1255.47 36.8875 Q1252.1 40.9789 1252.1 48.6757 L1252.1 72.576 L1244.61 72.576 L1244.61 27.2059 L1252.1 27.2059 L1252.1 34.2544 Q1254.45 30.1225 1258.22 28.1376 Q1261.99 26.1121 1267.38 26.1121 Q1268.15 26.1121 1269.08 26.2337 Q1270.01 26.3147 1271.14 26.5172 L1271.18 34.1734 Z" fill="#000000" fill-rule="nonzero" fill-opacity="1" /><path clip-path="url(#clip740)" d="M1299.62 49.7694 Q1290.59 49.7694 1287.1 51.8354 Q1283.62 53.9013 1283.62 58.8839 Q1283.62 62.8538 1286.21 65.2034 Q1288.85 67.5124 1293.34 67.5124 Q1299.54 67.5124 1303.27 63.1374 Q1307.03 58.7219 1307.03 51.4303 L1307.03 49.7694 L1299.62 49.7694 M1314.49 46.6907 L1314.49 72.576 L1307.03 72.576 L1307.03 65.6895 Q1304.48 69.8214 1300.67 71.8063 Q1296.87 73.7508 1291.36 73.7508 Q1284.39 73.7508 1280.26 69.8619 Q1276.17 65.9325 1276.17 59.3701 Q1276.17 51.7138 1281.27 47.825 Q1286.42 43.9361 1296.58 43.9361 L1307.03 43.9361 L1307.03 43.2069 Q1307.03 38.0623 1303.63 35.2672 Q1300.27 32.4315 1294.15 32.4315 Q1290.26 32.4315 1286.58 33.3632 Q1282.89 34.295 1279.49 36.1584 L1279.49 29.2718 Q1283.58 27.692 1287.43 26.9223 Q1291.28 26.1121 1294.92 26.1121 Q1304.77 26.1121 1309.63 31.2163 Q1314.49 36.3204 1314.49 46.6907 Z" fill="#000000" fill-rule="nonzero" fill-opacity="1" /><path clip-path="url(#clip740)" d="M1337.21 14.324 L1337.21 27.2059 L1352.57 27.2059 L1352.57 32.9987 L1337.21 32.9987 L1337.21 57.6282 Q1337.21 63.1779 1338.71 64.7578 Q1340.25 66.3376 1344.91 66.3376 L1352.57 66.3376 L1352.57 72.576 L1344.91 72.576 Q1336.28 72.576 1333 69.3758 Q1329.72 66.1351 1329.72 57.6282 L1329.72 32.9987 L1324.25 32.9987 L1324.25 27.2059 L1329.72 27.2059 L1329.72 14.324 L1337.21 14.324 Z" fill="#000000" fill-rule="nonzero" fill-opacity="1" /><path clip-path="url(#clip740)" d="M1401.18 48.0275 L1401.18 51.6733 L1366.91 51.6733 Q1367.39 59.3701 1371.52 63.421 Q1375.7 67.4314 1383.11 67.4314 Q1387.4 67.4314 1391.41 66.3781 Q1395.47 65.3249 1399.44 63.2184 L1399.44 70.267 Q1395.42 71.9684 1391.21 72.8596 Q1387 73.7508 1382.66 73.7508 Q1371.81 73.7508 1365.45 67.4314 Q1359.13 61.1119 1359.13 50.3365 Q1359.13 39.1965 1365.12 32.6746 Q1371.16 26.1121 1381.37 26.1121 Q1390.52 26.1121 1395.83 32.0264 Q1401.18 37.9003 1401.18 48.0275 M1393.72 45.84 Q1393.64 39.7232 1390.28 36.0774 Q1386.96 32.4315 1381.45 32.4315 Q1375.21 32.4315 1371.44 35.9558 Q1367.72 39.4801 1367.15 45.8805 L1393.72 45.84 Z" fill="#000000" fill-rule="nonzero" fill-opacity="1" /><polyline clip-path="url(#clip742)" style="stroke:#ffa500; stroke-linecap:round; stroke-linejoin:round; stroke-width:8; stroke-opacity:1; fill:none" points="205.184,1220.83 218.003,1213.66 230.822,1206.54 243.642,1199.49 256.461,1192.54 269.281,1185.7 282.1,1179.01 294.919,1172.5 307.739,1166.18 320.558,1160.1 333.377,1154.26 346.197,1148.7 359.016,1143.45 371.835,1138.55 384.655,1134.06 397.474,1130.06 410.294,1126.63 423.113,1123.86 435.932,1121.8 448.752,1120.55 461.571,1120.18 474.39,1120.76 487.21,1122.37 500.029,1125.1 512.848,1129.01 525.668,1134.16 538.487,1140.42 551.307,1147.51 564.126,1155.19 576.945,1163.19 589.765,1171.26 602.584,1179.14 615.403,1186.57 628.223,1193.3 641.042,1199.05 653.861,1203.59 666.681,1206.64 679.5,1207.95 692.32,1207.39 705.139,1205.05 717.958,1201.05 730.778,1195.51 743.597,1188.53 756.416,1180.25 769.236,1170.78 782.055,1160.24 794.874,1148.75 807.694,1136.42 820.513,1123.37 833.333,1109.73 846.152,1095.59 858.971,1081.01 871.791,1065.99 884.61,1050.55 897.429,1034.7 910.249,1018.45 923.068,1001.81 935.887,984.805 948.707,967.435 961.526,949.718 974.346,931.664 987.165,913.287 999.984,894.6 1012.8,875.617 1025.62,856.361 1038.44,836.852 1051.26,817.113 1064.08,797.164 1076.9,777.027 1089.72,756.724 1102.54,736.276 1115.36,715.704 1128.18,695.03 1141,674.276 1153.82,653.462 1166.64,632.609 1179.46,611.727 1192.27,590.823 1205.09,569.906 1217.91,548.983 1230.73,528.06 1243.55,507.147 1256.37,486.249 1269.19,465.376 1282.01,444.534 1294.83,423.73 1307.65,402.973 1320.47,382.27 1333.29,361.62 1346.11,341.014 1358.93,320.442 1371.75,299.895 1384.57,279.363 1397.38,258.836 1410.2,238.305 1423.02,217.76 1435.84,197.192 1448.66,176.591 1461.48,155.946 1474.3,135.249 "/>
<polyline clip-path="url(#clip742)" style="stroke:#808080; stroke-linecap:round; stroke-linejoin:round; stroke-width:4; stroke-opacity:1; fill:none" stroke-dasharray="2, 4" points="-1178.15,1219.37 2857.64,1219.37 "/>
<path clip-path="url(#clip740)" d="M1807.49 1253.39 L3152.76 1253.39 L3152.76 102.682 L1807.49 102.682  Z" fill="#ffffff" fill-rule="evenodd" fill-opacity="1"/>
<polyline clip-path="url(#clip741)" style="stroke:#000000; stroke-linecap:round; stroke-linejoin:round; stroke-width:2; stroke-opacity:0.1; fill:none" points="1828.42,1253.39 1828.42,102.682 "/>
<polyline clip-path="url(#clip741)" style="stroke:#000000; stroke-linecap:round; stroke-linejoin:round; stroke-width:2; stroke-opacity:0.1; fill:none" points="2171.42,1253.39 2171.42,102.682 "/>
<polyline clip-path="url(#clip741)" style="stroke:#000000; stroke-linecap:round; stroke-linejoin:round; stroke-width:2; stroke-opacity:0.1; fill:none" points="2514.42,1253.39 2514.42,102.682 "/>
<polyline clip-path="url(#clip741)" style="stroke:#000000; stroke-linecap:round; stroke-linejoin:round; stroke-width:2; stroke-opacity:0.1; fill:none" points="2857.43,1253.39 2857.43,102.682 "/>
<polyline clip-path="url(#clip741)" style="stroke:#000000; stroke-linecap:round; stroke-linejoin:round; stroke-width:2; stroke-opacity:0.1; fill:none" points="1807.49,1085.97 3152.76,1085.97 "/>
<polyline clip-path="url(#clip741)" style="stroke:#000000; stroke-linecap:round; stroke-linejoin:round; stroke-width:2; stroke-opacity:0.1; fill:none" points="1807.49,915.83 3152.76,915.83 "/>
<polyline clip-path="url(#clip741)" style="stroke:#000000; stroke-linecap:round; stroke-linejoin:round; stroke-width:2; stroke-opacity:0.1; fill:none" points="1807.49,745.694 3152.76,745.694 "/>
<polyline clip-path="url(#clip741)" style="stroke:#000000; stroke-linecap:round; stroke-linejoin:round; stroke-width:2; stroke-opacity:0.1; fill:none" points="1807.49,575.557 3152.76,575.557 "/>
<polyline clip-path="url(#clip741)" style="stroke:#000000; stroke-linecap:round; stroke-linejoin:round; stroke-width:2; stroke-opacity:0.1; fill:none" points="1807.49,405.42 3152.76,405.42 "/>
<polyline clip-path="url(#clip741)" style="stroke:#000000; stroke-linecap:round; stroke-linejoin:round; stroke-width:2; stroke-opacity:0.1; fill:none" points="1807.49,235.283 3152.76,235.283 "/>
<polyline clip-path="url(#clip740)" style="stroke:#000000; stroke-linecap:round; stroke-linejoin:round; stroke-width:4; stroke-opacity:1; fill:none" points="1807.49,1253.39 3152.76,1253.39 "/>
<polyline clip-path="url(#clip740)" style="stroke:#000000; stroke-linecap:round; stroke-linejoin:round; stroke-width:4; stroke-opacity:1; fill:none" points="1828.42,1253.39 1828.42,1234.5 "/>
<polyline clip-path="url(#clip740)" style="stroke:#000000; stroke-linecap:round; stroke-linejoin:round; stroke-width:4; stroke-opacity:1; fill:none" points="2171.42,1253.39 2171.42,1234.5 "/>
<polyline clip-path="url(#clip740)" style="stroke:#000000; stroke-linecap:round; stroke-linejoin:round; stroke-width:4; stroke-opacity:1; fill:none" points="2514.42,1253.39 2514.42,1234.5 "/>
<polyline clip-path="url(#clip740)" style="stroke:#000000; stroke-linecap:round; stroke-linejoin:round; stroke-width:4; stroke-opacity:1; fill:none" points="2857.43,1253.39 2857.43,1234.5 "/>
<path clip-path="url(#clip740)" d="M1828.42 1290.71 Q1824.8 1290.71 1822.98 1294.28 Q1821.17 1297.82 1821.17 1304.95 Q1821.17 1312.06 1822.98 1315.62 Q1824.8 1319.16 1828.42 1319.16 Q1832.05 1319.16 1833.86 1315.62 Q1835.68 1312.06 1835.68 1304.95 Q1835.68 1297.82 1833.86 1294.28 Q1832.05 1290.71 1828.42 1290.71 M1828.42 1287.01 Q1834.23 1287.01 1837.28 1291.62 Q1840.36 1296.2 1840.36 1304.95 Q1840.36 1313.68 1837.28 1318.28 Q1834.23 1322.87 1828.42 1322.87 Q1822.61 1322.87 1819.53 1318.28 Q1816.47 1313.68 1816.47 1304.95 Q1816.47 1296.2 1819.53 1291.62 Q1822.61 1287.01 1828.42 1287.01 Z" fill="#000000" fill-rule="nonzero" fill-opacity="1" /><path clip-path="url(#clip740)" d="M2150.19 1318.26 L2166.51 1318.26 L2166.51 1322.19 L2144.57 1322.19 L2144.57 1318.26 Q2147.23 1315.51 2151.81 1310.88 Q2156.42 1306.22 2157.6 1304.88 Q2159.85 1302.36 2160.73 1300.62 Q2161.63 1298.86 2161.63 1297.17 Q2161.63 1294.42 2159.68 1292.68 Q2157.76 1290.95 2154.66 1290.95 Q2152.46 1290.95 2150.01 1291.71 Q2147.58 1292.47 2144.8 1294.02 L2144.8 1289.3 Q2147.62 1288.17 2150.08 1287.59 Q2152.53 1287.01 2154.57 1287.01 Q2159.94 1287.01 2163.13 1289.7 Q2166.33 1292.38 2166.33 1296.87 Q2166.33 1299 2165.52 1300.92 Q2164.73 1302.82 2162.62 1305.41 Q2162.04 1306.08 2158.94 1309.3 Q2155.84 1312.5 2150.19 1318.26 Z" fill="#000000" fill-rule="nonzero" fill-opacity="1" /><path clip-path="url(#clip740)" d="M2186.33 1290.71 Q2182.72 1290.71 2180.89 1294.28 Q2179.08 1297.82 2179.08 1304.95 Q2179.08 1312.06 2180.89 1315.62 Q2182.72 1319.16 2186.33 1319.16 Q2189.96 1319.16 2191.77 1315.62 Q2193.6 1312.06 2193.6 1304.95 Q2193.6 1297.82 2191.77 1294.28 Q2189.96 1290.71 2186.33 1290.71 M2186.33 1287.01 Q2192.14 1287.01 2195.19 1291.62 Q2198.27 1296.2 2198.27 1304.95 Q2198.27 1313.68 2195.19 1318.28 Q2192.14 1322.87 2186.33 1322.87 Q2180.52 1322.87 2177.44 1318.28 Q2174.38 1313.68 2174.38 1304.95 Q2174.38 1296.2 2177.44 1291.62 Q2180.52 1287.01 2186.33 1287.01 Z" fill="#000000" fill-rule="nonzero" fill-opacity="1" /><path clip-path="url(#clip740)" d="M2502.6 1291.71 L2490.79 1310.16 L2502.6 1310.16 L2502.6 1291.71 M2501.37 1287.63 L2507.25 1287.63 L2507.25 1310.16 L2512.18 1310.16 L2512.18 1314.05 L2507.25 1314.05 L2507.25 1322.19 L2502.6 1322.19 L2502.6 1314.05 L2486.99 1314.05 L2486.99 1309.53 L2501.37 1287.63 Z" fill="#000000" fill-rule="nonzero" fill-opacity="1" /><path clip-path="url(#clip740)" d="M2529.91 1290.71 Q2526.3 1290.71 2524.47 1294.28 Q2522.67 1297.82 2522.67 1304.95 Q2522.67 1312.06 2524.47 1315.62 Q2526.3 1319.16 2529.91 1319.16 Q2533.54 1319.16 2535.35 1315.62 Q2537.18 1312.06 2537.18 1304.95 Q2537.18 1297.82 2535.35 1294.28 Q2533.54 1290.71 2529.91 1290.71 M2529.91 1287.01 Q2535.72 1287.01 2538.78 1291.62 Q2541.85 1296.2 2541.85 1304.95 Q2541.85 1313.68 2538.78 1318.28 Q2535.72 1322.87 2529.91 1322.87 Q2524.1 1322.87 2521.02 1318.28 Q2517.97 1313.68 2517.97 1304.95 Q2517.97 1296.2 2521.02 1291.62 Q2524.1 1287.01 2529.91 1287.01 Z" fill="#000000" fill-rule="nonzero" fill-opacity="1" /><path clip-path="url(#clip740)" d="M2842.83 1303.05 Q2839.69 1303.05 2837.83 1305.2 Q2836.01 1307.36 2836.01 1311.11 Q2836.01 1314.83 2837.83 1317.01 Q2839.69 1319.16 2842.83 1319.16 Q2845.98 1319.16 2847.81 1317.01 Q2849.66 1314.83 2849.66 1311.11 Q2849.66 1307.36 2847.81 1305.2 Q2845.98 1303.05 2842.83 1303.05 M2852.12 1288.4 L2852.12 1292.66 Q2850.36 1291.82 2848.55 1291.38 Q2846.77 1290.95 2845.01 1290.95 Q2840.38 1290.95 2837.93 1294.07 Q2835.5 1297.19 2835.15 1303.51 Q2836.51 1301.5 2838.57 1300.44 Q2840.64 1299.35 2843.11 1299.35 Q2848.32 1299.35 2851.33 1302.52 Q2854.36 1305.67 2854.36 1311.11 Q2854.36 1316.43 2851.21 1319.65 Q2848.07 1322.87 2842.83 1322.87 Q2836.84 1322.87 2833.67 1318.28 Q2830.5 1313.68 2830.5 1304.95 Q2830.5 1296.76 2834.39 1291.89 Q2838.27 1287.01 2844.82 1287.01 Q2846.58 1287.01 2848.37 1287.36 Q2850.17 1287.7 2852.12 1288.4 Z" fill="#000000" fill-rule="nonzero" fill-opacity="1" /><path clip-path="url(#clip740)" d="M2872.42 1290.71 Q2868.81 1290.71 2866.98 1294.28 Q2865.17 1297.82 2865.17 1304.95 Q2865.17 1312.06 2866.98 1315.62 Q2868.81 1319.16 2872.42 1319.16 Q2876.05 1319.16 2877.86 1315.62 Q2879.69 1312.06 2879.69 1304.95 Q2879.69 1297.82 2877.86 1294.28 Q2876.05 1290.71 2872.42 1290.71 M2872.42 1287.01 Q2878.23 1287.01 2881.28 1291.62 Q2884.36 1296.2 2884.36 1304.95 Q2884.36 1313.68 2881.28 1318.28 Q2878.23 1322.87 2872.42 1322.87 Q2866.61 1322.87 2863.53 1318.28 Q2860.47 1313.68 2860.47 1304.95 Q2860.47 1296.2 2863.53 1291.62 Q2866.61 1287.01 2872.42 1287.01 Z" fill="#000000" fill-rule="nonzero" fill-opacity="1" /><path clip-path="url(#clip740)" d="M2250.72 1362.74 L2257.15 1362.74 L2257.15 1404.85 L2280.29 1404.85 L2280.29 1410.26 L2250.72 1410.26 L2250.72 1362.74 Z" fill="#000000" fill-rule="nonzero" fill-opacity="1" /><path clip-path="url(#clip740)" d="M2295.63 1413.57 Q2293.15 1419.93 2290.79 1421.88 Q2288.44 1423.82 2284.49 1423.82 L2279.81 1423.82 L2279.81 1418.92 L2283.25 1418.92 Q2285.67 1418.92 2287 1417.77 Q2288.34 1416.62 2289.96 1412.36 L2291.01 1409.69 L2276.6 1374.61 L2282.8 1374.61 L2293.94 1402.49 L2305.08 1374.61 L2311.29 1374.61 L2295.63 1413.57 Z" fill="#000000" fill-rule="nonzero" fill-opacity="1" /><path clip-path="url(#clip740)" d="M2349.01 1388.74 L2349.01 1410.26 L2343.15 1410.26 L2343.15 1388.93 Q2343.15 1383.87 2341.18 1381.36 Q2339.2 1378.84 2335.26 1378.84 Q2330.51 1378.84 2327.78 1381.87 Q2325.04 1384.89 2325.04 1390.11 L2325.04 1410.26 L2319.15 1410.26 L2319.15 1374.61 L2325.04 1374.61 L2325.04 1380.15 Q2327.14 1376.93 2329.97 1375.34 Q2332.84 1373.75 2336.56 1373.75 Q2342.7 1373.75 2345.86 1377.57 Q2349.01 1381.36 2349.01 1388.74 Z" fill="#000000" fill-rule="nonzero" fill-opacity="1" /><path clip-path="url(#clip740)" d="M2390.32 1374.61 L2377.43 1391.96 L2390.99 1410.26 L2384.08 1410.26 L2373.71 1396.25 L2363.33 1410.26 L2356.42 1410.26 L2370.27 1391.61 L2357.6 1374.61 L2364.51 1374.61 L2373.96 1387.31 L2383.41 1374.61 L2390.32 1374.61 Z" fill="#000000" fill-rule="nonzero" fill-opacity="1" /><path clip-path="url(#clip740)" d="M2443.44 1380.02 L2443.44 1360.73 L2449.3 1360.73 L2449.3 1410.26 L2443.44 1410.26 L2443.44 1404.91 Q2441.6 1408.09 2438.76 1409.65 Q2435.96 1411.18 2432.02 1411.18 Q2425.55 1411.18 2421.48 1406.03 Q2417.44 1400.87 2417.44 1392.47 Q2417.44 1384.06 2421.48 1378.91 Q2425.55 1373.75 2432.02 1373.75 Q2435.96 1373.75 2438.76 1375.31 Q2441.6 1376.84 2443.44 1380.02 M2423.49 1392.47 Q2423.49 1398.93 2426.13 1402.62 Q2428.8 1406.28 2433.45 1406.28 Q2438.09 1406.28 2440.77 1402.62 Q2443.44 1398.93 2443.44 1392.47 Q2443.44 1386.01 2440.77 1382.35 Q2438.09 1378.65 2433.45 1378.65 Q2428.8 1378.65 2426.13 1382.35 Q2423.49 1386.01 2423.49 1392.47 Z" fill="#000000" fill-rule="nonzero" fill-opacity="1" /><path clip-path="url(#clip740)" d="M2491.85 1390.97 L2491.85 1393.84 L2464.93 1393.84 Q2465.31 1399.88 2468.55 1403.07 Q2471.83 1406.22 2477.66 1406.22 Q2481.03 1406.22 2484.18 1405.39 Q2487.36 1404.56 2490.48 1402.91 L2490.48 1408.44 Q2487.33 1409.78 2484.02 1410.48 Q2480.71 1411.18 2477.31 1411.18 Q2468.78 1411.18 2463.78 1406.22 Q2458.81 1401.25 2458.81 1392.78 Q2458.81 1384.03 2463.53 1378.91 Q2468.27 1373.75 2476.29 1373.75 Q2483.48 1373.75 2487.65 1378.4 Q2491.85 1383.01 2491.85 1390.97 M2486 1389.25 Q2485.93 1384.45 2483.29 1381.58 Q2480.68 1378.72 2476.35 1378.72 Q2471.45 1378.72 2468.49 1381.49 Q2465.56 1384.25 2465.12 1389.28 L2486 1389.25 Z" fill="#000000" fill-rule="nonzero" fill-opacity="1" /><path clip-path="url(#clip740)" d="M2531.1 1388.74 L2531.1 1410.26 L2525.24 1410.26 L2525.24 1388.93 Q2525.24 1383.87 2523.27 1381.36 Q2521.29 1378.84 2517.35 1378.84 Q2512.6 1378.84 2509.87 1381.87 Q2507.13 1384.89 2507.13 1390.11 L2507.13 1410.26 L2501.24 1410.26 L2501.24 1374.61 L2507.13 1374.61 L2507.13 1380.15 Q2509.23 1376.93 2512.06 1375.34 Q2514.93 1373.75 2518.65 1373.75 Q2524.8 1373.75 2527.95 1377.57 Q2531.1 1381.36 2531.1 1388.74 Z" fill="#000000" fill-rule="nonzero" fill-opacity="1" /><path clip-path="url(#clip740)" d="M2565.5 1375.66 L2565.5 1381.2 Q2563.02 1379.93 2560.35 1379.29 Q2557.67 1378.65 2554.81 1378.65 Q2550.45 1378.65 2548.25 1379.99 Q2546.09 1381.33 2546.09 1384 Q2546.09 1386.04 2547.65 1387.21 Q2549.21 1388.36 2553.92 1389.41 L2555.92 1389.86 Q2562.16 1391.19 2564.77 1393.64 Q2567.41 1396.06 2567.41 1400.42 Q2567.41 1405.39 2563.47 1408.29 Q2559.55 1411.18 2552.68 1411.18 Q2549.81 1411.18 2546.69 1410.61 Q2543.61 1410.07 2540.17 1408.95 L2540.17 1402.91 Q2543.41 1404.59 2546.57 1405.45 Q2549.72 1406.28 2552.8 1406.28 Q2556.94 1406.28 2559.17 1404.88 Q2561.4 1403.45 2561.4 1400.87 Q2561.4 1398.48 2559.77 1397.21 Q2558.18 1395.94 2552.74 1394.76 L2550.7 1394.28 Q2545.26 1393.14 2542.84 1390.78 Q2540.42 1388.39 2540.42 1384.25 Q2540.42 1379.23 2543.99 1376.49 Q2547.55 1373.75 2554.11 1373.75 Q2557.36 1373.75 2560.22 1374.23 Q2563.08 1374.71 2565.5 1375.66 Z" fill="#000000" fill-rule="nonzero" fill-opacity="1" /><path clip-path="url(#clip740)" d="M2576.74 1374.61 L2582.6 1374.61 L2582.6 1410.26 L2576.74 1410.26 L2576.74 1374.61 M2576.74 1360.73 L2582.6 1360.73 L2582.6 1368.15 L2576.74 1368.15 L2576.74 1360.73 Z" fill="#000000" fill-rule="nonzero" fill-opacity="1" /><path clip-path="url(#clip740)" d="M2600.64 1364.49 L2600.64 1374.61 L2612.71 1374.61 L2612.71 1379.16 L2600.64 1379.16 L2600.64 1398.51 Q2600.64 1402.87 2601.82 1404.12 Q2603.03 1405.36 2606.69 1405.36 L2612.71 1405.36 L2612.71 1410.26 L2606.69 1410.26 Q2599.91 1410.26 2597.33 1407.74 Q2594.75 1405.2 2594.75 1398.51 L2594.75 1379.16 L2590.46 1379.16 L2590.46 1374.61 L2594.75 1374.61 L2594.75 1364.49 L2600.64 1364.49 Z" fill="#000000" fill-rule="nonzero" fill-opacity="1" /><path clip-path="url(#clip740)" d="M2635.24 1413.57 Q2632.76 1419.93 2630.4 1421.88 Q2628.05 1423.82 2624.1 1423.82 L2619.42 1423.82 L2619.42 1418.92 L2622.86 1418.92 Q2625.28 1418.92 2626.61 1417.77 Q2627.95 1416.62 2629.57 1412.36 L2630.63 1409.69 L2616.21 1374.61 L2622.41 1374.61 L2633.55 1402.49 L2644.69 1374.61 L2650.9 1374.61 L2635.24 1413.57 Z" fill="#000000" fill-rule="nonzero" fill-opacity="1" /><path clip-path="url(#clip740)" d="M2679.96 1362.74 L2686.39 1362.74 L2686.39 1404.85 L2709.53 1404.85 L2709.53 1410.26 L2679.96 1410.26 L2679.96 1362.74 Z" fill="#000000" fill-rule="nonzero" fill-opacity="1" /><polyline clip-path="url(#clip740)" style="stroke:#000000; stroke-linecap:round; stroke-linejoin:round; stroke-width:4; stroke-opacity:1; fill:none" points="1807.49,1253.39 1807.49,102.682 "/>
<polyline clip-path="url(#clip740)" style="stroke:#000000; stroke-linecap:round; stroke-linejoin:round; stroke-width:4; stroke-opacity:1; fill:none" points="1807.49,1085.97 1826.39,1085.97 "/>
<polyline clip-path="url(#clip740)" style="stroke:#000000; stroke-linecap:round; stroke-linejoin:round; stroke-width:4; stroke-opacity:1; fill:none" points="1807.49,915.83 1826.39,915.83 "/>
<polyline clip-path="url(#clip740)" style="stroke:#000000; stroke-linecap:round; stroke-linejoin:round; stroke-width:4; stroke-opacity:1; fill:none" points="1807.49,745.694 1826.39,745.694 "/>
<polyline clip-path="url(#clip740)" style="stroke:#000000; stroke-linecap:round; stroke-linejoin:round; stroke-width:4; stroke-opacity:1; fill:none" points="1807.49,575.557 1826.39,575.557 "/>
<polyline clip-path="url(#clip740)" style="stroke:#000000; stroke-linecap:round; stroke-linejoin:round; stroke-width:4; stroke-opacity:1; fill:none" points="1807.49,405.42 1826.39,405.42 "/>
<polyline clip-path="url(#clip740)" style="stroke:#000000; stroke-linecap:round; stroke-linejoin:round; stroke-width:4; stroke-opacity:1; fill:none" points="1807.49,235.283 1826.39,235.283 "/>
<path clip-path="url(#clip740)" d="M1653.54 1086.42 L1683.22 1086.42 L1683.22 1090.35 L1653.54 1090.35 L1653.54 1086.42 Z" fill="#000000" fill-rule="nonzero" fill-opacity="1" /><path clip-path="url(#clip740)" d="M1703.31 1071.77 Q1699.7 1071.77 1697.87 1075.33 Q1696.07 1078.87 1696.07 1086 Q1696.07 1093.11 1697.87 1096.67 Q1699.7 1100.21 1703.31 1100.21 Q1706.95 1100.21 1708.75 1096.67 Q1710.58 1093.11 1710.58 1086 Q1710.58 1078.87 1708.75 1075.33 Q1706.95 1071.77 1703.31 1071.77 M1703.31 1068.06 Q1709.12 1068.06 1712.18 1072.67 Q1715.26 1077.25 1715.26 1086 Q1715.26 1094.73 1712.18 1099.34 Q1709.12 1103.92 1703.31 1103.92 Q1697.5 1103.92 1694.42 1099.34 Q1691.37 1094.73 1691.37 1086 Q1691.37 1077.25 1694.42 1072.67 Q1697.5 1068.06 1703.31 1068.06 Z" fill="#000000" fill-rule="nonzero" fill-opacity="1" /><path clip-path="url(#clip740)" d="M1723.47 1097.37 L1728.36 1097.37 L1728.36 1103.25 L1723.47 1103.25 L1723.47 1097.37 Z" fill="#000000" fill-rule="nonzero" fill-opacity="1" /><path clip-path="url(#clip740)" d="M1738.59 1068.69 L1756.95 1068.69 L1756.95 1072.62 L1742.87 1072.62 L1742.87 1081.09 Q1743.89 1080.75 1744.91 1080.59 Q1745.93 1080.4 1746.95 1080.4 Q1752.73 1080.4 1756.11 1083.57 Q1759.49 1086.74 1759.49 1092.16 Q1759.49 1097.74 1756.02 1100.84 Q1752.55 1103.92 1746.23 1103.92 Q1744.05 1103.92 1741.78 1103.55 Q1739.54 1103.18 1737.13 1102.44 L1737.13 1097.74 Q1739.21 1098.87 1741.44 1099.43 Q1743.66 1099.98 1746.14 1099.98 Q1750.14 1099.98 1752.48 1097.88 Q1754.82 1095.77 1754.82 1092.16 Q1754.82 1088.55 1752.48 1086.44 Q1750.14 1084.34 1746.14 1084.34 Q1744.26 1084.34 1742.39 1084.75 Q1740.53 1085.17 1738.59 1086.05 L1738.59 1068.69 Z" fill="#000000" fill-rule="nonzero" fill-opacity="1" /><path clip-path="url(#clip740)" d="M1702.32 901.629 Q1698.71 901.629 1696.88 905.194 Q1695.07 908.735 1695.07 915.865 Q1695.07 922.971 1696.88 926.536 Q1698.71 930.078 1702.32 930.078 Q1705.95 930.078 1707.76 926.536 Q1709.58 922.971 1709.58 915.865 Q1709.58 908.735 1707.76 905.194 Q1705.95 901.629 1702.32 901.629 M1702.32 897.925 Q1708.13 897.925 1711.18 902.532 Q1714.26 907.115 1714.26 915.865 Q1714.26 924.592 1711.18 929.198 Q1708.13 933.782 1702.32 933.782 Q1696.51 933.782 1693.43 929.198 Q1690.37 924.592 1690.37 915.865 Q1690.37 907.115 1693.43 902.532 Q1696.51 897.925 1702.32 897.925 Z" fill="#000000" fill-rule="nonzero" fill-opacity="1" /><path clip-path="url(#clip740)" d="M1722.48 927.231 L1727.36 927.231 L1727.36 933.11 L1722.48 933.11 L1722.48 927.231 Z" fill="#000000" fill-rule="nonzero" fill-opacity="1" /><path clip-path="url(#clip740)" d="M1747.55 901.629 Q1743.94 901.629 1742.11 905.194 Q1740.3 908.735 1740.3 915.865 Q1740.3 922.971 1742.11 926.536 Q1743.94 930.078 1747.55 930.078 Q1751.18 930.078 1752.99 926.536 Q1754.82 922.971 1754.82 915.865 Q1754.82 908.735 1752.99 905.194 Q1751.18 901.629 1747.55 901.629 M1747.55 897.925 Q1753.36 897.925 1756.41 902.532 Q1759.49 907.115 1759.49 915.865 Q1759.49 924.592 1756.41 929.198 Q1753.36 933.782 1747.55 933.782 Q1741.74 933.782 1738.66 929.198 Q1735.6 924.592 1735.6 915.865 Q1735.6 907.115 1738.66 902.532 Q1741.74 897.925 1747.55 897.925 Z" fill="#000000" fill-rule="nonzero" fill-opacity="1" /><path clip-path="url(#clip740)" d="M1703.31 731.492 Q1699.7 731.492 1697.87 735.057 Q1696.07 738.599 1696.07 745.728 Q1696.07 752.835 1697.87 756.4 Q1699.7 759.941 1703.31 759.941 Q1706.95 759.941 1708.75 756.4 Q1710.58 752.835 1710.58 745.728 Q1710.58 738.599 1708.75 735.057 Q1706.95 731.492 1703.31 731.492 M1703.31 727.789 Q1709.12 727.789 1712.18 732.395 Q1715.26 736.978 1715.26 745.728 Q1715.26 754.455 1712.18 759.062 Q1709.12 763.645 1703.31 763.645 Q1697.5 763.645 1694.42 759.062 Q1691.37 754.455 1691.37 745.728 Q1691.37 736.978 1694.42 732.395 Q1697.5 727.789 1703.31 727.789 Z" fill="#000000" fill-rule="nonzero" fill-opacity="1" /><path clip-path="url(#clip740)" d="M1723.47 757.094 L1728.36 757.094 L1728.36 762.974 L1723.47 762.974 L1723.47 757.094 Z" fill="#000000" fill-rule="nonzero" fill-opacity="1" /><path clip-path="url(#clip740)" d="M1738.59 728.414 L1756.95 728.414 L1756.95 732.349 L1742.87 732.349 L1742.87 740.821 Q1743.89 740.474 1744.91 740.312 Q1745.93 740.126 1746.95 740.126 Q1752.73 740.126 1756.11 743.298 Q1759.49 746.469 1759.49 751.886 Q1759.49 757.464 1756.02 760.566 Q1752.55 763.645 1746.23 763.645 Q1744.05 763.645 1741.78 763.275 Q1739.54 762.904 1737.13 762.163 L1737.13 757.464 Q1739.21 758.599 1741.44 759.154 Q1743.66 759.71 1746.14 759.71 Q1750.14 759.71 1752.48 757.603 Q1754.82 755.497 1754.82 751.886 Q1754.82 748.275 1752.48 746.168 Q1750.14 744.062 1746.14 744.062 Q1744.26 744.062 1742.39 744.478 Q1740.53 744.895 1738.59 745.775 L1738.59 728.414 Z" fill="#000000" fill-rule="nonzero" fill-opacity="1" /><path clip-path="url(#clip740)" d="M1693.13 588.902 L1700.77 588.902 L1700.77 562.536 L1692.46 564.203 L1692.46 559.944 L1700.72 558.277 L1705.4 558.277 L1705.4 588.902 L1713.03 588.902 L1713.03 592.837 L1693.13 592.837 L1693.13 588.902 Z" fill="#000000" fill-rule="nonzero" fill-opacity="1" /><path clip-path="url(#clip740)" d="M1722.48 586.957 L1727.36 586.957 L1727.36 592.837 L1722.48 592.837 L1722.48 586.957 Z" fill="#000000" fill-rule="nonzero" fill-opacity="1" /><path clip-path="url(#clip740)" d="M1747.55 561.356 Q1743.94 561.356 1742.11 564.92 Q1740.3 568.462 1740.3 575.592 Q1740.3 582.698 1742.11 586.263 Q1743.94 589.804 1747.55 589.804 Q1751.18 589.804 1752.99 586.263 Q1754.82 582.698 1754.82 575.592 Q1754.82 568.462 1752.99 564.92 Q1751.18 561.356 1747.55 561.356 M1747.55 557.652 Q1753.36 557.652 1756.41 562.258 Q1759.49 566.842 1759.49 575.592 Q1759.49 584.318 1756.41 588.925 Q1753.36 593.508 1747.55 593.508 Q1741.74 593.508 1738.66 588.925 Q1735.6 584.318 1735.6 575.592 Q1735.6 566.842 1738.66 562.258 Q1741.74 557.652 1747.55 557.652 Z" fill="#000000" fill-rule="nonzero" fill-opacity="1" /><path clip-path="url(#clip740)" d="M1694.12 418.765 L1701.76 418.765 L1701.76 392.399 L1693.45 394.066 L1693.45 389.807 L1701.71 388.14 L1706.39 388.14 L1706.39 418.765 L1714.03 418.765 L1714.03 422.7 L1694.12 422.7 L1694.12 418.765 Z" fill="#000000" fill-rule="nonzero" fill-opacity="1" /><path clip-path="url(#clip740)" d="M1723.47 416.821 L1728.36 416.821 L1728.36 422.7 L1723.47 422.7 L1723.47 416.821 Z" fill="#000000" fill-rule="nonzero" fill-opacity="1" /><path clip-path="url(#clip740)" d="M1738.59 388.14 L1756.95 388.14 L1756.95 392.075 L1742.87 392.075 L1742.87 400.548 Q1743.89 400.2 1744.91 400.038 Q1745.93 399.853 1746.95 399.853 Q1752.73 399.853 1756.11 403.024 Q1759.49 406.196 1759.49 411.612 Q1759.49 417.191 1756.02 420.293 Q1752.55 423.371 1746.23 423.371 Q1744.05 423.371 1741.78 423.001 Q1739.54 422.631 1737.13 421.89 L1737.13 417.191 Q1739.21 418.325 1741.44 418.881 Q1743.66 419.436 1746.14 419.436 Q1750.14 419.436 1752.48 417.33 Q1754.82 415.223 1754.82 411.612 Q1754.82 408.001 1752.48 405.895 Q1750.14 403.788 1746.14 403.788 Q1744.26 403.788 1742.39 404.205 Q1740.53 404.622 1738.59 405.501 L1738.59 388.14 Z" fill="#000000" fill-rule="nonzero" fill-opacity="1" /><path clip-path="url(#clip740)" d="M1696.34 248.628 L1712.66 248.628 L1712.66 252.563 L1690.72 252.563 L1690.72 248.628 Q1693.38 245.874 1697.96 241.244 Q1702.57 236.591 1703.75 235.249 Q1706 232.726 1706.88 230.99 Q1707.78 229.23 1707.78 227.54 Q1707.78 224.786 1705.83 223.05 Q1703.91 221.314 1700.81 221.314 Q1698.61 221.314 1696.16 222.078 Q1693.73 222.841 1690.95 224.392 L1690.95 219.67 Q1693.77 218.536 1696.23 217.957 Q1698.68 217.378 1700.72 217.378 Q1706.09 217.378 1709.28 220.064 Q1712.48 222.749 1712.48 227.24 Q1712.48 229.369 1711.67 231.29 Q1710.88 233.189 1708.77 235.781 Q1708.2 236.452 1705.09 239.67 Q1701.99 242.864 1696.34 248.628 Z" fill="#000000" fill-rule="nonzero" fill-opacity="1" /><path clip-path="url(#clip740)" d="M1722.48 246.684 L1727.36 246.684 L1727.36 252.563 L1722.48 252.563 L1722.48 246.684 Z" fill="#000000" fill-rule="nonzero" fill-opacity="1" /><path clip-path="url(#clip740)" d="M1747.55 221.082 Q1743.94 221.082 1742.11 224.647 Q1740.3 228.189 1740.3 235.318 Q1740.3 242.425 1742.11 245.989 Q1743.94 249.531 1747.55 249.531 Q1751.18 249.531 1752.99 245.989 Q1754.82 242.425 1754.82 235.318 Q1754.82 228.189 1752.99 224.647 Q1751.18 221.082 1747.55 221.082 M1747.55 217.378 Q1753.36 217.378 1756.41 221.985 Q1759.49 226.568 1759.49 235.318 Q1759.49 244.045 1756.41 248.651 Q1753.36 253.235 1747.55 253.235 Q1741.74 253.235 1738.66 248.651 Q1735.6 244.045 1735.6 235.318 Q1735.6 226.568 1738.66 221.985 Q1741.74 217.378 1747.55 217.378 Z" fill="#000000" fill-rule="nonzero" fill-opacity="1" /><path clip-path="url(#clip740)" d="M1550.01 708.61 Q1547.78 711.856 1547.78 719.463 Q1547.78 727.516 1551.5 727.516 Q1554.43 727.516 1555.96 719.113 Q1557.14 712.493 1560.7 708.769 Q1565 704.249 1573.81 704.249 Q1582.25 704.249 1587.21 708.61 Q1592.21 712.97 1592.21 720.609 Q1592.21 728.216 1587.21 732.609 Q1582.25 736.969 1573.5 736.969 Q1567 736.969 1561.75 732.609 Q1559.71 730.922 1558.57 728.534 Q1556.05 733.5 1551.57 733.5 Q1542.91 733.5 1542.91 719.463 Q1542.91 712.429 1545.14 708.61 L1550.01 708.61 M1560.16 724.142 Q1561.08 726.306 1563.41 728.057 Q1567 730.794 1573.5 730.794 Q1579.96 730.794 1583.58 728.089 Q1587.25 725.352 1587.25 720.609 Q1587.25 715.93 1583.55 713.193 Q1579.86 710.456 1573.81 710.456 Q1567.48 710.456 1564.42 713.352 Q1561.15 716.44 1560.8 720.45 Q1560.6 722.487 1560.16 724.142 Z" fill="#000000" fill-rule="nonzero" fill-opacity="1" /><path clip-path="url(#clip740)" d="M1541.83 680.473 Q1549.15 684.738 1556.31 686.807 Q1563.47 688.876 1570.82 688.876 Q1578.17 688.876 1585.4 686.807 Q1592.59 684.707 1599.88 680.473 L1599.88 685.566 Q1592.4 690.34 1585.18 692.727 Q1577.95 695.083 1570.82 695.083 Q1563.72 695.083 1556.53 692.727 Q1549.34 690.372 1541.83 685.566 L1541.83 680.473 Z" fill="#000000" fill-rule="nonzero" fill-opacity="1" /><path clip-path="url(#clip740)" d="M1543.77 668.856 L1543.77 662.427 L1585.88 662.427 L1585.88 639.287 L1591.29 639.287 L1591.29 668.856 L1543.77 668.856 Z" fill="#000000" fill-rule="nonzero" fill-opacity="1" /><path clip-path="url(#clip740)" d="M1541.83 633.717 L1541.83 628.625 Q1549.34 623.85 1556.53 621.495 Q1563.72 619.108 1570.82 619.108 Q1577.95 619.108 1585.18 621.495 Q1592.4 623.85 1599.88 628.625 L1599.88 633.717 Q1592.59 629.484 1585.4 627.415 Q1578.17 625.315 1570.82 625.315 Q1563.47 625.315 1556.31 627.415 Q1549.15 629.484 1541.83 633.717 Z" fill="#000000" fill-rule="nonzero" fill-opacity="1" /><path clip-path="url(#clip740)" d="M1957.84 18.8205 L1957.84 41.5461 L1968.13 41.5461 Q1973.84 41.5461 1976.96 38.5889 Q1980.08 35.6318 1980.08 30.163 Q1980.08 24.7348 1976.96 21.7777 Q1973.84 18.8205 1968.13 18.8205 L1957.84 18.8205 M1949.66 12.096 L1968.13 12.096 Q1978.3 12.096 1983.48 16.714 Q1988.71 21.2916 1988.71 30.163 Q1988.71 39.1155 1983.48 43.6931 Q1978.3 48.2706 1968.13 48.2706 L1957.84 48.2706 L1957.84 72.576 L1949.66 72.576 L1949.66 12.096 Z" fill="#000000" fill-rule="nonzero" fill-opacity="1" /><path clip-path="url(#clip740)" d="M2035.21 48.0275 L2035.21 51.6733 L2000.94 51.6733 Q2001.43 59.3701 2005.56 63.421 Q2009.73 67.4314 2017.15 67.4314 Q2021.44 67.4314 2025.45 66.3781 Q2029.5 65.3249 2033.47 63.2184 L2033.47 70.267 Q2029.46 71.9684 2025.25 72.8596 Q2021.03 73.7508 2016.7 73.7508 Q2005.84 73.7508 1999.48 67.4314 Q1993.16 61.1119 1993.16 50.3365 Q1993.16 39.1965 1999.16 32.6746 Q2005.2 26.1121 2015.4 26.1121 Q2024.56 26.1121 2029.87 32.0264 Q2035.21 37.9003 2035.21 48.0275 M2027.76 45.84 Q2027.68 39.7232 2024.32 36.0774 Q2020.99 32.4315 2015.49 32.4315 Q2009.25 32.4315 2005.48 35.9558 Q2001.75 39.4801 2001.19 45.8805 L2027.76 45.84 Z" fill="#000000" fill-rule="nonzero" fill-opacity="1" /><path clip-path="url(#clip740)" d="M2073.74 34.1734 Q2072.48 33.4443 2070.98 33.1202 Q2069.52 32.7556 2067.74 32.7556 Q2061.42 32.7556 2058.02 36.8875 Q2054.66 40.9789 2054.66 48.6757 L2054.66 72.576 L2047.16 72.576 L2047.16 27.2059 L2054.66 27.2059 L2054.66 34.2544 Q2057.01 30.1225 2060.77 28.1376 Q2064.54 26.1121 2069.93 26.1121 Q2070.7 26.1121 2071.63 26.2337 Q2072.56 26.3147 2073.7 26.5172 L2073.74 34.1734 Z" fill="#000000" fill-rule="nonzero" fill-opacity="1" /><path clip-path="url(#clip740)" d="M2072.48 46.5287 L2094.32 46.5287 L2094.32 53.1722 L2072.48 53.1722 L2072.48 46.5287 Z" fill="#000000" fill-rule="nonzero" fill-opacity="1" /><path clip-path="url(#clip740)" d="M2138.84 28.9478 L2138.84 35.9153 Q2135.68 34.1734 2132.48 33.3227 Q2129.32 32.4315 2126.07 32.4315 Q2118.82 32.4315 2114.81 37.0496 Q2110.8 41.6271 2110.8 49.9314 Q2110.8 58.2358 2114.81 62.8538 Q2118.82 67.4314 2126.07 67.4314 Q2129.32 67.4314 2132.48 66.5807 Q2135.68 65.6895 2138.84 63.9476 L2138.84 70.8341 Q2135.72 72.2924 2132.35 73.0216 Q2129.03 73.7508 2125.26 73.7508 Q2115.02 73.7508 2108.98 67.3098 Q2102.94 60.8689 2102.94 49.9314 Q2102.94 38.832 2109.02 32.472 Q2115.14 26.1121 2125.75 26.1121 Q2129.19 26.1121 2132.48 26.8413 Q2135.76 27.5299 2138.84 28.9478 Z" fill="#000000" fill-rule="nonzero" fill-opacity="1" /><path clip-path="url(#clip740)" d="M2172.42 49.7694 Q2163.38 49.7694 2159.9 51.8354 Q2156.42 53.9013 2156.42 58.8839 Q2156.42 62.8538 2159.01 65.2034 Q2161.64 67.5124 2166.14 67.5124 Q2172.34 67.5124 2176.06 63.1374 Q2179.83 58.7219 2179.83 51.4303 L2179.83 49.7694 L2172.42 49.7694 M2187.28 46.6907 L2187.28 72.576 L2179.83 72.576 L2179.83 65.6895 Q2177.28 69.8214 2173.47 71.8063 Q2169.66 73.7508 2164.15 73.7508 Q2157.19 73.7508 2153.05 69.8619 Q2148.96 65.9325 2148.96 59.3701 Q2148.96 51.7138 2154.07 47.825 Q2159.21 43.9361 2169.38 43.9361 L2179.83 43.9361 L2179.83 43.2069 Q2179.83 38.0623 2176.43 35.2672 Q2173.07 32.4315 2166.95 32.4315 Q2163.06 32.4315 2159.37 33.3632 Q2155.69 34.295 2152.28 36.1584 L2152.28 29.2718 Q2156.38 27.692 2160.22 26.9223 Q2164.07 26.1121 2167.72 26.1121 Q2177.56 26.1121 2182.42 31.2163 Q2187.28 36.3204 2187.28 46.6907 Z" fill="#000000" fill-rule="nonzero" fill-opacity="1" /><path clip-path="url(#clip740)" d="M2209.85 65.7705 L2209.85 89.8329 L2202.35 89.8329 L2202.35 27.2059 L2209.85 27.2059 L2209.85 34.0924 Q2212.2 30.0415 2215.76 28.0971 Q2219.37 26.1121 2224.35 26.1121 Q2232.61 26.1121 2237.76 32.6746 Q2242.94 39.2371 2242.94 49.9314 Q2242.94 60.6258 2237.76 67.1883 Q2232.61 73.7508 2224.35 73.7508 Q2219.37 73.7508 2215.76 71.8063 Q2212.2 69.8214 2209.85 65.7705 M2235.21 49.9314 Q2235.21 41.7081 2231.8 37.0496 Q2228.44 32.3505 2222.53 32.3505 Q2216.61 32.3505 2213.21 37.0496 Q2209.85 41.7081 2209.85 49.9314 Q2209.85 58.1548 2213.21 62.8538 Q2216.61 67.5124 2222.53 67.5124 Q2228.44 67.5124 2231.8 62.8538 Q2235.21 58.1548 2235.21 49.9314 Z" fill="#000000" fill-rule="nonzero" fill-opacity="1" /><path clip-path="url(#clip740)" d="M2255.3 27.2059 L2262.75 27.2059 L2262.75 72.576 L2255.3 72.576 L2255.3 27.2059 M2255.3 9.54393 L2262.75 9.54393 L2262.75 18.9825 L2255.3 18.9825 L2255.3 9.54393 Z" fill="#000000" fill-rule="nonzero" fill-opacity="1" /><path clip-path="url(#clip740)" d="M2285.72 14.324 L2285.72 27.2059 L2301.07 27.2059 L2301.07 32.9987 L2285.72 32.9987 L2285.72 57.6282 Q2285.72 63.1779 2287.22 64.7578 Q2288.76 66.3376 2293.42 66.3376 L2301.07 66.3376 L2301.07 72.576 L2293.42 72.576 Q2284.79 72.576 2281.51 69.3758 Q2278.23 66.1351 2278.23 57.6282 L2278.23 32.9987 L2272.76 32.9987 L2272.76 27.2059 L2278.23 27.2059 L2278.23 14.324 L2285.72 14.324 Z" fill="#000000" fill-rule="nonzero" fill-opacity="1" /><path clip-path="url(#clip740)" d="M2331.5 49.7694 Q2322.46 49.7694 2318.98 51.8354 Q2315.5 53.9013 2315.5 58.8839 Q2315.5 62.8538 2318.09 65.2034 Q2320.72 67.5124 2325.22 67.5124 Q2331.42 67.5124 2335.14 63.1374 Q2338.91 58.7219 2338.91 51.4303 L2338.91 49.7694 L2331.5 49.7694 M2346.36 46.6907 L2346.36 72.576 L2338.91 72.576 L2338.91 65.6895 Q2336.36 69.8214 2332.55 71.8063 Q2328.74 73.7508 2323.23 73.7508 Q2316.26 73.7508 2312.13 69.8619 Q2308.04 65.9325 2308.04 59.3701 Q2308.04 51.7138 2313.15 47.825 Q2318.29 43.9361 2328.46 43.9361 L2338.91 43.9361 L2338.91 43.2069 Q2338.91 38.0623 2335.51 35.2672 Q2332.14 32.4315 2326.03 32.4315 Q2322.14 32.4315 2318.45 33.3632 Q2314.77 34.295 2311.36 36.1584 L2311.36 29.2718 Q2315.45 27.692 2319.3 26.9223 Q2323.15 26.1121 2326.8 26.1121 Q2336.64 26.1121 2341.5 31.2163 Q2346.36 36.3204 2346.36 46.6907 Z" fill="#000000" fill-rule="nonzero" fill-opacity="1" /><path clip-path="url(#clip740)" d="M2388.09 9.54393 L2395.54 9.54393 L2395.54 72.576 L2388.09 72.576 L2388.09 9.54393 Z" fill="#000000" fill-rule="nonzero" fill-opacity="1" /><path clip-path="url(#clip740)" d="M2430.01 76.7889 Q2426.85 84.8907 2423.86 87.3618 Q2420.86 89.8329 2415.84 89.8329 L2409.88 89.8329 L2409.88 83.5945 L2414.26 83.5945 Q2417.33 83.5945 2419.04 82.1361 Q2420.74 80.6778 2422.8 75.2496 L2424.14 71.8468 L2405.79 27.2059 L2413.69 27.2059 L2427.87 62.6918 L2442.05 27.2059 L2449.94 27.2059 L2430.01 76.7889 Z" fill="#000000" fill-rule="nonzero" fill-opacity="1" /><path clip-path="url(#clip740)" d="M2497.95 45.1919 L2497.95 72.576 L2490.49 72.576 L2490.49 45.4349 Q2490.49 38.994 2487.98 35.7938 Q2485.47 32.5936 2480.45 32.5936 Q2474.41 32.5936 2470.93 36.4419 Q2467.44 40.2903 2467.44 46.9338 L2467.44 72.576 L2459.95 72.576 L2459.95 27.2059 L2467.44 27.2059 L2467.44 34.2544 Q2470.12 30.163 2473.72 28.1376 Q2477.37 26.1121 2482.11 26.1121 Q2489.93 26.1121 2493.94 30.9732 Q2497.95 35.7938 2497.95 45.1919 Z" fill="#000000" fill-rule="nonzero" fill-opacity="1" /><path clip-path="url(#clip740)" d="M2550.53 27.2059 L2534.12 49.2833 L2551.38 72.576 L2542.59 72.576 L2529.38 54.752 L2516.18 72.576 L2507.39 72.576 L2525.01 48.8377 L2508.89 27.2059 L2517.68 27.2059 L2529.71 43.369 L2541.74 27.2059 L2550.53 27.2059 Z" fill="#000000" fill-rule="nonzero" fill-opacity="1" /><path clip-path="url(#clip740)" d="M2618.14 34.0924 L2618.14 9.54393 L2625.59 9.54393 L2625.59 72.576 L2618.14 72.576 L2618.14 65.7705 Q2615.79 69.8214 2612.18 71.8063 Q2608.62 73.7508 2603.6 73.7508 Q2595.37 73.7508 2590.19 67.1883 Q2585.04 60.6258 2585.04 49.9314 Q2585.04 39.2371 2590.19 32.6746 Q2595.37 26.1121 2603.6 26.1121 Q2608.62 26.1121 2612.18 28.0971 Q2615.79 30.0415 2618.14 34.0924 M2592.74 49.9314 Q2592.74 58.1548 2596.1 62.8538 Q2599.5 67.5124 2605.42 67.5124 Q2611.33 67.5124 2614.74 62.8538 Q2618.14 58.1548 2618.14 49.9314 Q2618.14 41.7081 2614.74 37.0496 Q2611.33 32.3505 2605.42 32.3505 Q2599.5 32.3505 2596.1 37.0496 Q2592.74 41.7081 2592.74 49.9314 Z" fill="#000000" fill-rule="nonzero" fill-opacity="1" /><path clip-path="url(#clip740)" d="M2679.75 48.0275 L2679.75 51.6733 L2645.48 51.6733 Q2645.97 59.3701 2650.1 63.421 Q2654.27 67.4314 2661.69 67.4314 Q2665.98 67.4314 2669.99 66.3781 Q2674.04 65.3249 2678.01 63.2184 L2678.01 70.267 Q2674 71.9684 2669.79 72.8596 Q2665.57 73.7508 2661.24 73.7508 Q2650.38 73.7508 2644.02 67.4314 Q2637.7 61.1119 2637.7 50.3365 Q2637.7 39.1965 2643.7 32.6746 Q2649.74 26.1121 2659.94 26.1121 Q2669.1 26.1121 2674.41 32.0264 Q2679.75 37.9003 2679.75 48.0275 M2672.3 45.84 Q2672.22 39.7232 2668.86 36.0774 Q2665.53 32.4315 2660.02 32.4315 Q2653.79 32.4315 2650.02 35.9558 Q2646.29 39.4801 2645.72 45.8805 L2672.3 45.84 Z" fill="#000000" fill-rule="nonzero" fill-opacity="1" /><path clip-path="url(#clip740)" d="M2712.61 49.7694 Q2703.57 49.7694 2700.09 51.8354 Q2696.6 53.9013 2696.6 58.8839 Q2696.6 62.8538 2699.2 65.2034 Q2701.83 67.5124 2706.33 67.5124 Q2712.52 67.5124 2716.25 63.1374 Q2720.02 58.7219 2720.02 51.4303 L2720.02 49.7694 L2712.61 49.7694 M2727.47 46.6907 L2727.47 72.576 L2720.02 72.576 L2720.02 65.6895 Q2717.47 69.8214 2713.66 71.8063 Q2709.85 73.7508 2704.34 73.7508 Q2697.37 73.7508 2693.24 69.8619 Q2689.15 65.9325 2689.15 59.3701 Q2689.15 51.7138 2694.25 47.825 Q2699.4 43.9361 2709.57 43.9361 L2720.02 43.9361 L2720.02 43.2069 Q2720.02 38.0623 2716.62 35.2672 Q2713.25 32.4315 2707.14 32.4315 Q2703.25 32.4315 2699.56 33.3632 Q2695.88 34.295 2692.47 36.1584 L2692.47 29.2718 Q2696.56 27.692 2700.41 26.9223 Q2704.26 26.1121 2707.91 26.1121 Q2717.75 26.1121 2722.61 31.2163 Q2727.47 36.3204 2727.47 46.6907 Z" fill="#000000" fill-rule="nonzero" fill-opacity="1" /><path clip-path="url(#clip740)" d="M2750.2 14.324 L2750.2 27.2059 L2765.55 27.2059 L2765.55 32.9987 L2750.2 32.9987 L2750.2 57.6282 Q2750.2 63.1779 2751.7 64.7578 Q2753.24 66.3376 2757.89 66.3376 L2765.55 66.3376 L2765.55 72.576 L2757.89 72.576 Q2749.27 72.576 2745.98 69.3758 Q2742.7 66.1351 2742.7 57.6282 L2742.7 32.9987 L2737.23 32.9987 L2737.23 27.2059 L2742.7 27.2059 L2742.7 14.324 L2750.2 14.324 Z" fill="#000000" fill-rule="nonzero" fill-opacity="1" /><path clip-path="url(#clip740)" d="M2813.07 45.1919 L2813.07 72.576 L2805.61 72.576 L2805.61 45.4349 Q2805.61 38.994 2803.1 35.7938 Q2800.59 32.5936 2795.57 32.5936 Q2789.53 32.5936 2786.05 36.4419 Q2782.56 40.2903 2782.56 46.9338 L2782.56 72.576 L2775.07 72.576 L2775.07 9.54393 L2782.56 9.54393 L2782.56 34.2544 Q2785.24 30.163 2788.84 28.1376 Q2792.49 26.1121 2797.23 26.1121 Q2805.05 26.1121 2809.06 30.9732 Q2813.07 35.7938 2813.07 45.1919 Z" fill="#000000" fill-rule="nonzero" fill-opacity="1" /><path clip-path="url(#clip740)" d="M2880.6 34.1734 Q2879.34 33.4443 2877.84 33.1202 Q2876.38 32.7556 2874.6 32.7556 Q2868.28 32.7556 2864.88 36.8875 Q2861.52 40.9789 2861.52 48.6757 L2861.52 72.576 L2854.02 72.576 L2854.02 27.2059 L2861.52 27.2059 L2861.52 34.2544 Q2863.87 30.1225 2867.63 28.1376 Q2871.4 26.1121 2876.79 26.1121 Q2877.56 26.1121 2878.49 26.2337 Q2879.42 26.3147 2880.56 26.5172 L2880.6 34.1734 Z" fill="#000000" fill-rule="nonzero" fill-opacity="1" /><path clip-path="url(#clip740)" d="M2909.03 49.7694 Q2900 49.7694 2896.52 51.8354 Q2893.03 53.9013 2893.03 58.8839 Q2893.03 62.8538 2895.63 65.2034 Q2898.26 67.5124 2902.75 67.5124 Q2908.95 67.5124 2912.68 63.1374 Q2916.45 58.7219 2916.45 51.4303 L2916.45 49.7694 L2909.03 49.7694 M2923.9 46.6907 L2923.9 72.576 L2916.45 72.576 L2916.45 65.6895 Q2913.89 69.8214 2910.09 71.8063 Q2906.28 73.7508 2900.77 73.7508 Q2893.8 73.7508 2889.67 69.8619 Q2885.58 65.9325 2885.58 59.3701 Q2885.58 51.7138 2890.68 47.825 Q2895.83 43.9361 2906 43.9361 L2916.45 43.9361 L2916.45 43.2069 Q2916.45 38.0623 2913.04 35.2672 Q2909.68 32.4315 2903.56 32.4315 Q2899.68 32.4315 2895.99 33.3632 Q2892.3 34.295 2888.9 36.1584 L2888.9 29.2718 Q2892.99 27.692 2896.84 26.9223 Q2900.69 26.1121 2904.33 26.1121 Q2914.18 26.1121 2919.04 31.2163 Q2923.9 36.3204 2923.9 46.6907 Z" fill="#000000" fill-rule="nonzero" fill-opacity="1" /><path clip-path="url(#clip740)" d="M2946.63 14.324 L2946.63 27.2059 L2961.98 27.2059 L2961.98 32.9987 L2946.63 32.9987 L2946.63 57.6282 Q2946.63 63.1779 2948.12 64.7578 Q2949.66 66.3376 2954.32 66.3376 L2961.98 66.3376 L2961.98 72.576 L2954.32 72.576 Q2945.69 72.576 2942.41 69.3758 Q2939.13 66.1351 2939.13 57.6282 L2939.13 32.9987 L2933.66 32.9987 L2933.66 27.2059 L2939.13 27.2059 L2939.13 14.324 L2946.63 14.324 Z" fill="#000000" fill-rule="nonzero" fill-opacity="1" /><path clip-path="url(#clip740)" d="M3010.59 48.0275 L3010.59 51.6733 L2976.32 51.6733 Q2976.81 59.3701 2980.94 63.421 Q2985.11 67.4314 2992.52 67.4314 Q2996.82 67.4314 3000.83 66.3781 Q3004.88 65.3249 3008.85 63.2184 L3008.85 70.267 Q3004.84 71.9684 3000.62 72.8596 Q2996.41 73.7508 2992.08 73.7508 Q2981.22 73.7508 2974.86 67.4314 Q2968.54 61.1119 2968.54 50.3365 Q2968.54 39.1965 2974.54 32.6746 Q2980.57 26.1121 2990.78 26.1121 Q2999.94 26.1121 3005.24 32.0264 Q3010.59 37.9003 3010.59 48.0275 M3003.14 45.84 Q3003.06 39.7232 2999.69 36.0774 Q2996.37 32.4315 2990.86 32.4315 Q2984.62 32.4315 2980.86 35.9558 Q2977.13 39.4801 2976.56 45.8805 L3003.14 45.84 Z" fill="#000000" fill-rule="nonzero" fill-opacity="1" /><polyline clip-path="url(#clip741)" style="stroke:#800080; stroke-linecap:round; stroke-linejoin:round; stroke-width:8; stroke-opacity:1; fill:none" points="1845.57,726.013 1858.38,756.371 1871.2,786.627 1884.02,816.736 1896.84,846.654 1909.66,876.338 1922.48,905.743 1935.3,934.826 1948.12,963.543 1960.94,991.849 1973.76,1019.7 1986.58,1047.05 1999.4,1073.7 2012.22,1099.29 2025.04,1123.44 2037.86,1145.78 2050.68,1165.93 2063.49,1183.53 2076.31,1198.19 2089.13,1209.54 2101.95,1217.21 2114.77,1220.83 2127.59,1220.01 2140.41,1214.42 2153.23,1204.04 2166.05,1189.23 2178.87,1170.31 2191.69,1147.62 2204.51,1121.5 2217.33,1092.28 2230.15,1060.32 2242.97,1025.93 2255.79,989.474 2268.6,951.276 2281.42,911.676 2294.24,871.011 2307.06,829.567 2319.88,787.602 2332.7,745.373 2345.52,703.137 2358.34,661.15 2371.16,619.671 2383.98,578.956 2396.8,539.261 2409.62,500.844 2422.44,463.963 2435.26,428.873 2448.08,395.811 2460.89,364.839 2473.71,335.939 2486.53,309.087 2499.35,284.264 2512.17,261.448 2524.99,240.618 2537.81,221.752 2550.63,204.831 2563.45,189.831 2576.27,176.733 2589.09,165.515 2601.91,156.152 2614.73,148.595 2627.55,142.784 2640.37,138.661 2653.19,136.169 2666,135.249 2678.82,135.843 2691.64,137.892 2704.46,141.338 2717.28,146.122 2730.1,152.187 2742.92,159.474 2755.74,167.924 2768.56,177.473 2781.38,188.058 2794.2,199.614 2807.02,212.079 2819.84,225.387 2832.66,239.474 2845.48,254.277 2858.3,269.731 2871.11,285.773 2883.93,302.339 2896.75,319.364 2909.57,336.783 2922.39,354.527 2935.21,372.529 2948.03,390.717 2960.85,409.024 2973.67,427.38 2986.49,445.715 2999.31,463.961 3012.13,482.049 3024.95,499.908 3037.77,517.47 3050.59,534.667 3063.4,551.458 3076.22,567.87 3089.04,583.939 3101.86,599.7 3114.68,615.188 "/>
</svg>
