<?xml version="1.0" encoding="utf-8"?>
<svg xmlns="http://www.w3.org/2000/svg" xmlns:xlink="http://www.w3.org/1999/xlink" width="800" height="350" viewBox="0 0 3200 1400">
<defs>
  <clipPath id="clip840">
    <rect x="0" y="0" width="3200" height="1400"/>
  </clipPath>
</defs>
<path clip-path="url(#clip840)" d="M0 1400 L3200 1400 L3200 0 L0 0  Z" fill="#ffffff" fill-rule="evenodd" fill-opacity="1"/>
<defs>
  <clipPath id="clip841">
    <rect x="1859" y="102" width="1295" height="1152"/>
  </clipPath>
</defs>
<path clip-path="url(#clip840)" d="M254.216 1253.39 L1547.88 1253.39 L1547.88 102.682 L254.216 102.682  Z" fill="#ffffff" fill-rule="evenodd" fill-opacity="1"/>
<defs>
  <clipPath id="clip842">
    <rect x="254" y="102" width="1295" height="1152"/>
  </clipPath>
</defs>
<polyline clip-path="url(#clip842)" style="stroke:#000000; stroke-linecap:round; stroke-linejoin:round; stroke-width:2; stroke-opacity:0.1; fill:none" points="283.154,1253.39 283.154,102.682 "/>
<polyline clip-path="url(#clip842)" style="stroke:#000000; stroke-linecap:round; stroke-linejoin:round; stroke-width:2; stroke-opacity:0.1; fill:none" points="666.94,1253.39 666.94,102.682 "/>
<polyline clip-path="url(#clip842)" style="stroke:#000000; stroke-linecap:round; stroke-linejoin:round; stroke-width:2; stroke-opacity:0.1; fill:none" points="1050.73,1253.39 1050.73,102.682 "/>
<polyline clip-path="url(#clip842)" style="stroke:#000000; stroke-linecap:round; stroke-linejoin:round; stroke-width:2; stroke-opacity:0.1; fill:none" points="1434.51,1253.39 1434.51,102.682 "/>
<polyline clip-path="url(#clip842)" style="stroke:#000000; stroke-linecap:round; stroke-linejoin:round; stroke-width:2; stroke-opacity:0.1; fill:none" points="254.216,1091.72 1547.88,1091.72 "/>
<polyline clip-path="url(#clip842)" style="stroke:#000000; stroke-linecap:round; stroke-linejoin:round; stroke-width:2; stroke-opacity:0.1; fill:none" points="254.216,781.085 1547.88,781.085 "/>
<polyline clip-path="url(#clip842)" style="stroke:#000000; stroke-linecap:round; stroke-linejoin:round; stroke-width:2; stroke-opacity:0.1; fill:none" points="254.216,470.453 1547.88,470.453 "/>
<polyline clip-path="url(#clip842)" style="stroke:#000000; stroke-linecap:round; stroke-linejoin:round; stroke-width:2; stroke-opacity:0.1; fill:none" points="254.216,159.821 1547.88,159.821 "/>
<polyline clip-path="url(#clip840)" style="stroke:#000000; stroke-linecap:round; stroke-linejoin:round; stroke-width:4; stroke-opacity:1; fill:none" points="254.216,1253.39 1547.88,1253.39 "/>
<polyline clip-path="url(#clip840)" style="stroke:#000000; stroke-linecap:round; stroke-linejoin:round; stroke-width:4; stroke-opacity:1; fill:none" points="283.154,1253.39 283.154,1234.5 "/>
<polyline clip-path="url(#clip840)" style="stroke:#000000; stroke-linecap:round; stroke-linejoin:round; stroke-width:4; stroke-opacity:1; fill:none" points="666.94,1253.39 666.94,1234.5 "/>
<polyline clip-path="url(#clip840)" style="stroke:#000000; stroke-linecap:round; stroke-linejoin:round; stroke-width:4; stroke-opacity:1; fill:none" points="1050.73,1253.39 1050.73,1234.5 "/>
<polyline clip-path="url(#clip840)" style="stroke:#000000; stroke-linecap:round; stroke-linejoin:round; stroke-width:4; stroke-opacity:1; fill:none" points="1434.51,1253.39 1434.51,1234.5 "/>
<path clip-path="url(#clip840)" d="M283.154 1290.71 Q279.543 1290.71 277.714 1294.28 Q275.908 1297.82 275.908 1304.95 Q275.908 1312.06 277.714 1315.62 Q279.543 1319.16 283.154 1319.16 Q286.788 1319.16 288.593 1315.62 Q290.422 1312.06 290.422 1304.95 Q290.422 1297.82 288.593 1294.28 Q286.788 1290.71 283.154 1290.71 M283.154 1287.01 Q288.964 1287.01 292.019 1291.62 Q295.098 1296.2 295.098 1304.95 Q295.098 1313.68 292.019 1318.28 Q288.964 1322.87 283.154 1322.87 Q277.344 1322.87 274.265 1318.28 Q271.209 1313.68 271.209 1304.95 Q271.209 1296.2 274.265 1291.62 Q277.344 1287.01 283.154 1287.01 Z" fill="#000000" fill-rule="nonzero" fill-opacity="1" /><path clip-path="url(#clip840)" d="M641.639 1287.63 L659.996 1287.63 L659.996 1291.57 L645.922 1291.57 L645.922 1300.04 Q646.94 1299.69 647.959 1299.53 Q648.977 1299.35 649.996 1299.35 Q655.783 1299.35 659.162 1302.52 Q662.542 1305.69 662.542 1311.11 Q662.542 1316.69 659.07 1319.79 Q655.598 1322.87 649.278 1322.87 Q647.102 1322.87 644.834 1322.5 Q642.588 1322.13 640.181 1321.38 L640.181 1316.69 Q642.264 1317.82 644.486 1318.38 Q646.709 1318.93 649.186 1318.93 Q653.19 1318.93 655.528 1316.82 Q657.866 1314.72 657.866 1311.11 Q657.866 1307.5 655.528 1305.39 Q653.19 1303.28 649.186 1303.28 Q647.311 1303.28 645.436 1303.7 Q643.584 1304.12 641.639 1305 L641.639 1287.63 Z" fill="#000000" fill-rule="nonzero" fill-opacity="1" /><path clip-path="url(#clip840)" d="M681.755 1290.71 Q678.144 1290.71 676.315 1294.28 Q674.509 1297.82 674.509 1304.95 Q674.509 1312.06 676.315 1315.62 Q678.144 1319.16 681.755 1319.16 Q685.389 1319.16 687.195 1315.62 Q689.023 1312.06 689.023 1304.95 Q689.023 1297.82 687.195 1294.28 Q685.389 1290.71 681.755 1290.71 M681.755 1287.01 Q687.565 1287.01 690.62 1291.62 Q693.699 1296.2 693.699 1304.95 Q693.699 1313.68 690.62 1318.28 Q687.565 1322.87 681.755 1322.87 Q675.945 1322.87 672.866 1318.28 Q669.81 1313.68 669.81 1304.95 Q669.81 1296.2 672.866 1291.62 Q675.945 1287.01 681.755 1287.01 Z" fill="#000000" fill-rule="nonzero" fill-opacity="1" /><path clip-path="url(#clip840)" d="M1010.33 1318.26 L1017.97 1318.26 L1017.97 1291.89 L1009.66 1293.56 L1009.66 1289.3 L1017.93 1287.63 L1022.6 1287.63 L1022.6 1318.26 L1030.24 1318.26 L1030.24 1322.19 L1010.33 1322.19 L1010.33 1318.26 Z" fill="#000000" fill-rule="nonzero" fill-opacity="1" /><path clip-path="url(#clip840)" d="M1049.68 1290.71 Q1046.07 1290.71 1044.24 1294.28 Q1042.44 1297.82 1042.44 1304.95 Q1042.44 1312.06 1044.24 1315.62 Q1046.07 1319.16 1049.68 1319.16 Q1053.32 1319.16 1055.12 1315.62 Q1056.95 1312.06 1056.95 1304.95 Q1056.95 1297.82 1055.12 1294.28 Q1053.32 1290.71 1049.68 1290.71 M1049.68 1287.01 Q1055.49 1287.01 1058.55 1291.62 Q1061.63 1296.2 1061.63 1304.95 Q1061.63 1313.68 1058.55 1318.28 Q1055.49 1322.87 1049.68 1322.87 Q1043.87 1322.87 1040.8 1318.28 Q1037.74 1313.68 1037.74 1304.95 Q1037.74 1296.2 1040.8 1291.62 Q1043.87 1287.01 1049.68 1287.01 Z" fill="#000000" fill-rule="nonzero" fill-opacity="1" /><path clip-path="url(#clip840)" d="M1079.85 1290.71 Q1076.24 1290.71 1074.41 1294.28 Q1072.6 1297.82 1072.6 1304.95 Q1072.6 1312.06 1074.41 1315.62 Q1076.24 1319.16 1079.85 1319.16 Q1083.48 1319.16 1085.29 1315.62 Q1087.12 1312.06 1087.12 1304.95 Q1087.12 1297.82 1085.29 1294.28 Q1083.48 1290.71 1079.85 1290.71 M1079.85 1287.01 Q1085.66 1287.01 1088.71 1291.62 Q1091.79 1296.2 1091.79 1304.95 Q1091.79 1313.68 1088.71 1318.28 Q1085.66 1322.87 1079.85 1322.87 Q1074.04 1322.87 1070.96 1318.28 Q1067.9 1313.68 1067.9 1304.95 Q1067.9 1296.2 1070.96 1291.62 Q1074.04 1287.01 1079.85 1287.01 Z" fill="#000000" fill-rule="nonzero" fill-opacity="1" /><path clip-path="url(#clip840)" d="M1394.12 1318.26 L1401.76 1318.26 L1401.76 1291.89 L1393.45 1293.56 L1393.45 1289.3 L1401.71 1287.63 L1406.39 1287.63 L1406.39 1318.26 L1414.03 1318.26 L1414.03 1322.19 L1394.12 1322.19 L1394.12 1318.26 Z" fill="#000000" fill-rule="nonzero" fill-opacity="1" /><path clip-path="url(#clip840)" d="M1423.52 1287.63 L1441.87 1287.63 L1441.87 1291.57 L1427.8 1291.57 L1427.8 1300.04 Q1428.82 1299.69 1429.84 1299.53 Q1430.86 1299.35 1431.87 1299.35 Q1437.66 1299.35 1441.04 1302.52 Q1444.42 1305.69 1444.42 1311.11 Q1444.42 1316.69 1440.95 1319.79 Q1437.48 1322.87 1431.16 1322.87 Q1428.98 1322.87 1426.71 1322.5 Q1424.47 1322.13 1422.06 1321.38 L1422.06 1316.69 Q1424.14 1317.82 1426.36 1318.38 Q1428.59 1318.93 1431.06 1318.93 Q1435.07 1318.93 1437.41 1316.82 Q1439.74 1314.72 1439.74 1311.11 Q1439.74 1307.5 1437.41 1305.39 Q1435.07 1303.28 1431.06 1303.28 Q1429.19 1303.28 1427.31 1303.7 Q1425.46 1304.12 1423.52 1305 L1423.52 1287.63 Z" fill="#000000" fill-rule="nonzero" fill-opacity="1" /><path clip-path="url(#clip840)" d="M1463.63 1290.71 Q1460.02 1290.71 1458.19 1294.28 Q1456.39 1297.82 1456.39 1304.95 Q1456.39 1312.06 1458.19 1315.62 Q1460.02 1319.16 1463.63 1319.16 Q1467.27 1319.16 1469.07 1315.62 Q1470.9 1312.06 1470.9 1304.95 Q1470.9 1297.82 1469.07 1294.28 Q1467.27 1290.71 1463.63 1290.71 M1463.63 1287.01 Q1469.44 1287.01 1472.5 1291.62 Q1475.58 1296.2 1475.58 1304.95 Q1475.58 1313.68 1472.5 1318.28 Q1469.44 1322.87 1463.63 1322.87 Q1457.82 1322.87 1454.74 1318.28 Q1451.69 1313.68 1451.69 1304.95 Q1451.69 1296.2 1454.74 1291.62 Q1457.82 1287.01 1463.63 1287.01 Z" fill="#000000" fill-rule="nonzero" fill-opacity="1" /><path clip-path="url(#clip840)" d="M665.503 1362.74 L671.932 1362.74 L671.932 1382.22 L695.294 1382.22 L695.294 1362.74 L701.724 1362.74 L701.724 1410.26 L695.294 1410.26 L695.294 1387.63 L671.932 1387.63 L671.932 1410.26 L665.503 1410.26 L665.503 1362.74 Z" fill="#000000" fill-rule="nonzero" fill-opacity="1" /><path clip-path="url(#clip840)" d="M730.465 1392.34 Q723.367 1392.34 720.63 1393.96 Q717.892 1395.59 717.892 1399.5 Q717.892 1402.62 719.929 1404.47 Q721.998 1406.28 725.531 1406.28 Q730.401 1406.28 733.329 1402.84 Q736.289 1399.37 736.289 1393.64 L736.289 1392.34 L730.465 1392.34 M742.146 1389.92 L742.146 1410.26 L736.289 1410.26 L736.289 1404.85 Q734.284 1408.09 731.292 1409.65 Q728.3 1411.18 723.972 1411.18 Q718.497 1411.18 715.251 1408.13 Q712.036 1405.04 712.036 1399.88 Q712.036 1393.87 716.046 1390.81 Q720.089 1387.76 728.078 1387.76 L736.289 1387.76 L736.289 1387.18 Q736.289 1383.14 733.616 1380.94 Q730.974 1378.72 726.168 1378.72 Q723.112 1378.72 720.216 1379.45 Q717.32 1380.18 714.646 1381.64 L714.646 1376.23 Q717.861 1374.99 720.884 1374.39 Q723.908 1373.75 726.773 1373.75 Q734.507 1373.75 738.326 1377.76 Q742.146 1381.77 742.146 1389.92 Z" fill="#000000" fill-rule="nonzero" fill-opacity="1" /><path clip-path="url(#clip840)" d="M774.866 1380.09 Q773.879 1379.51 772.701 1379.26 Q771.555 1378.97 770.155 1378.97 Q765.19 1378.97 762.516 1382.22 Q759.874 1385.43 759.874 1391.48 L759.874 1410.26 L753.986 1410.26 L753.986 1374.61 L759.874 1374.61 L759.874 1380.15 Q761.72 1376.9 764.68 1375.34 Q767.64 1373.75 771.874 1373.75 Q772.478 1373.75 773.21 1373.85 Q773.942 1373.91 774.834 1374.07 L774.866 1380.09 Z" fill="#000000" fill-rule="nonzero" fill-opacity="1" /><path clip-path="url(#clip840)" d="M810.068 1390.97 L810.068 1393.84 L783.141 1393.84 Q783.523 1399.88 786.769 1403.07 Q790.048 1406.22 795.872 1406.22 Q799.246 1406.22 802.397 1405.39 Q805.58 1404.56 808.699 1402.91 L808.699 1408.44 Q805.548 1409.78 802.238 1410.48 Q798.928 1411.18 795.522 1411.18 Q786.992 1411.18 781.995 1406.22 Q777.03 1401.25 777.03 1392.78 Q777.03 1384.03 781.74 1378.91 Q786.483 1373.75 794.504 1373.75 Q801.697 1373.75 805.867 1378.4 Q810.068 1383.01 810.068 1390.97 M804.211 1389.25 Q804.148 1384.45 801.506 1381.58 Q798.896 1378.72 794.567 1378.72 Q789.666 1378.72 786.706 1381.49 Q783.778 1384.25 783.332 1389.28 L804.211 1389.25 Z" fill="#000000" fill-rule="nonzero" fill-opacity="1" /><path clip-path="url(#clip840)" d="M863.858 1380.02 L863.858 1360.73 L869.715 1360.73 L869.715 1410.26 L863.858 1410.26 L863.858 1404.91 Q862.012 1408.09 859.179 1409.65 Q856.378 1411.18 852.432 1411.18 Q845.97 1411.18 841.896 1406.03 Q837.854 1400.87 837.854 1392.47 Q837.854 1384.06 841.896 1378.91 Q845.97 1373.75 852.432 1373.75 Q856.378 1373.75 859.179 1375.31 Q862.012 1376.84 863.858 1380.02 M843.902 1392.47 Q843.902 1398.93 846.543 1402.62 Q849.217 1406.28 853.864 1406.28 Q858.511 1406.28 861.184 1402.62 Q863.858 1398.93 863.858 1392.47 Q863.858 1386.01 861.184 1382.35 Q858.511 1378.65 853.864 1378.65 Q849.217 1378.65 846.543 1382.35 Q843.902 1386.01 843.902 1392.47 Z" fill="#000000" fill-rule="nonzero" fill-opacity="1" /><path clip-path="url(#clip840)" d="M912.269 1390.97 L912.269 1393.84 L885.342 1393.84 Q885.724 1399.88 888.971 1403.07 Q892.249 1406.22 898.074 1406.22 Q901.448 1406.22 904.599 1405.39 Q907.781 1404.56 910.901 1402.91 L910.901 1408.44 Q907.75 1409.78 904.439 1410.48 Q901.129 1411.18 897.724 1411.18 Q889.194 1411.18 884.197 1406.22 Q879.231 1401.25 879.231 1392.78 Q879.231 1384.03 883.942 1378.91 Q888.684 1373.75 896.705 1373.75 Q903.898 1373.75 908.068 1378.4 Q912.269 1383.01 912.269 1390.97 M906.413 1389.25 Q906.349 1384.45 903.707 1381.58 Q901.097 1378.72 896.769 1378.72 Q891.867 1378.72 888.907 1381.49 Q885.979 1384.25 885.533 1389.28 L906.413 1389.25 Z" fill="#000000" fill-rule="nonzero" fill-opacity="1" /><path clip-path="url(#clip840)" d="M951.514 1388.74 L951.514 1410.26 L945.657 1410.26 L945.657 1388.93 Q945.657 1383.87 943.684 1381.36 Q941.711 1378.84 937.764 1378.84 Q933.021 1378.84 930.284 1381.87 Q927.547 1384.89 927.547 1390.11 L927.547 1410.26 L921.659 1410.26 L921.659 1374.61 L927.547 1374.61 L927.547 1380.15 Q929.648 1376.93 932.48 1375.34 Q935.345 1373.75 939.069 1373.75 Q945.212 1373.75 948.363 1377.57 Q951.514 1381.36 951.514 1388.74 Z" fill="#000000" fill-rule="nonzero" fill-opacity="1" /><path clip-path="url(#clip840)" d="M985.921 1375.66 L985.921 1381.2 Q983.438 1379.93 980.764 1379.29 Q978.091 1378.65 975.226 1378.65 Q970.866 1378.65 968.669 1379.99 Q966.505 1381.33 966.505 1384 Q966.505 1386.04 968.065 1387.21 Q969.624 1388.36 974.335 1389.41 L976.34 1389.86 Q982.579 1391.19 985.188 1393.64 Q987.83 1396.06 987.83 1400.42 Q987.83 1405.39 983.883 1408.29 Q979.969 1411.18 973.094 1411.18 Q970.229 1411.18 967.11 1410.61 Q964.022 1410.07 960.585 1408.95 L960.585 1402.91 Q963.832 1404.59 966.983 1405.45 Q970.134 1406.28 973.221 1406.28 Q977.359 1406.28 979.587 1404.88 Q981.815 1403.45 981.815 1400.87 Q981.815 1398.48 980.191 1397.21 Q978.6 1395.94 973.157 1394.76 L971.12 1394.28 Q965.678 1393.14 963.259 1390.78 Q960.84 1388.39 960.84 1384.25 Q960.84 1379.23 964.404 1376.49 Q967.969 1373.75 974.526 1373.75 Q977.772 1373.75 980.637 1374.23 Q983.502 1374.71 985.921 1375.66 Z" fill="#000000" fill-rule="nonzero" fill-opacity="1" /><path clip-path="url(#clip840)" d="M997.156 1374.61 L1003.01 1374.61 L1003.01 1410.26 L997.156 1410.26 L997.156 1374.61 M997.156 1360.73 L1003.01 1360.73 L1003.01 1368.15 L997.156 1368.15 L997.156 1360.73 Z" fill="#000000" fill-rule="nonzero" fill-opacity="1" /><path clip-path="url(#clip840)" d="M1021.06 1364.49 L1021.06 1374.61 L1033.12 1374.61 L1033.12 1379.16 L1021.06 1379.16 L1021.06 1398.51 Q1021.06 1402.87 1022.24 1404.12 Q1023.45 1405.36 1027.11 1405.36 L1033.12 1405.36 L1033.12 1410.26 L1027.11 1410.26 Q1020.33 1410.26 1017.75 1407.74 Q1015.17 1405.2 1015.17 1398.51 L1015.17 1379.16 L1010.87 1379.16 L1010.87 1374.61 L1015.17 1374.61 L1015.17 1364.49 L1021.06 1364.49 Z" fill="#000000" fill-rule="nonzero" fill-opacity="1" /><path clip-path="url(#clip840)" d="M1055.66 1413.57 Q1053.17 1419.93 1050.82 1421.88 Q1048.46 1423.82 1044.52 1423.82 L1039.84 1423.82 L1039.84 1418.92 L1043.28 1418.92 Q1045.69 1418.92 1047.03 1417.77 Q1048.37 1416.62 1049.99 1412.36 L1051.04 1409.69 L1036.62 1374.61 L1042.83 1374.61 L1053.97 1402.49 L1065.11 1374.61 L1071.32 1374.61 L1055.66 1413.57 Z" fill="#000000" fill-rule="nonzero" fill-opacity="1" /><path clip-path="url(#clip840)" d="M1100.38 1362.74 L1106.81 1362.74 L1106.81 1382.22 L1130.17 1382.22 L1130.17 1362.74 L1136.6 1362.74 L1136.6 1410.26 L1130.17 1410.26 L1130.17 1387.63 L1106.81 1387.63 L1106.81 1410.26 L1100.38 1410.26 L1100.38 1362.74 Z" fill="#000000" fill-rule="nonzero" fill-opacity="1" /><polyline clip-path="url(#clip840)" style="stroke:#000000; stroke-linecap:round; stroke-linejoin:round; stroke-width:4; stroke-opacity:1; fill:none" points="254.216,1253.39 254.216,102.682 "/>
<polyline clip-path="url(#clip840)" style="stroke:#000000; stroke-linecap:round; stroke-linejoin:round; stroke-width:4; stroke-opacity:1; fill:none" points="254.216,1091.72 273.114,1091.72 "/>
<polyline clip-path="url(#clip840)" style="stroke:#000000; stroke-linecap:round; stroke-linejoin:round; stroke-width:4; stroke-opacity:1; fill:none" points="254.216,781.085 273.114,781.085 "/>
<polyline clip-path="url(#clip840)" style="stroke:#000000; stroke-linecap:round; stroke-linejoin:round; stroke-width:4; stroke-opacity:1; fill:none" points="254.216,470.453 273.114,470.453 "/>
<polyline clip-path="url(#clip840)" style="stroke:#000000; stroke-linecap:round; stroke-linejoin:round; stroke-width:4; stroke-opacity:1; fill:none" points="254.216,159.821 273.114,159.821 "/>
<path clip-path="url(#clip840)" d="M194.272 1077.52 Q190.661 1077.52 188.832 1081.08 Q187.027 1084.62 187.027 1091.75 Q187.027 1098.86 188.832 1102.42 Q190.661 1105.96 194.272 1105.96 Q197.906 1105.96 199.712 1102.42 Q201.54 1098.86 201.54 1091.75 Q201.54 1084.62 199.712 1081.08 Q197.906 1077.52 194.272 1077.52 M194.272 1073.81 Q200.082 1073.81 203.138 1078.42 Q206.216 1083 206.216 1091.75 Q206.216 1100.48 203.138 1105.09 Q200.082 1109.67 194.272 1109.67 Q188.462 1109.67 185.383 1105.09 Q182.327 1100.48 182.327 1091.75 Q182.327 1083 185.383 1078.42 Q188.462 1073.81 194.272 1073.81 Z" fill="#000000" fill-rule="nonzero" fill-opacity="1" /><path clip-path="url(#clip840)" d="M123.994 763.805 L142.351 763.805 L142.351 767.74 L128.277 767.74 L128.277 776.213 Q129.295 775.865 130.314 775.703 Q131.332 775.518 132.351 775.518 Q138.138 775.518 141.517 778.689 Q144.897 781.861 144.897 787.277 Q144.897 792.856 141.425 795.958 Q137.953 799.037 131.633 799.037 Q129.457 799.037 127.189 798.666 Q124.944 798.296 122.536 797.555 L122.536 792.856 Q124.619 793.99 126.842 794.546 Q129.064 795.101 131.541 795.101 Q135.545 795.101 137.883 792.995 Q140.221 790.888 140.221 787.277 Q140.221 783.666 137.883 781.56 Q135.545 779.453 131.541 779.453 Q129.666 779.453 127.791 779.87 Q125.939 780.287 123.994 781.166 L123.994 763.805 Z" fill="#000000" fill-rule="nonzero" fill-opacity="1" /><path clip-path="url(#clip840)" d="M164.11 766.884 Q160.499 766.884 158.67 770.449 Q156.865 773.99 156.865 781.12 Q156.865 788.226 158.67 791.791 Q160.499 795.333 164.11 795.333 Q167.744 795.333 169.55 791.791 Q171.378 788.226 171.378 781.12 Q171.378 773.99 169.55 770.449 Q167.744 766.884 164.11 766.884 M164.11 763.18 Q169.92 763.18 172.976 767.787 Q176.054 772.37 176.054 781.12 Q176.054 789.847 172.976 794.453 Q169.92 799.037 164.11 799.037 Q158.3 799.037 155.221 794.453 Q152.166 789.847 152.166 781.12 Q152.166 772.37 155.221 767.787 Q158.3 763.18 164.11 763.18 Z" fill="#000000" fill-rule="nonzero" fill-opacity="1" /><path clip-path="url(#clip840)" d="M194.272 766.884 Q190.661 766.884 188.832 770.449 Q187.027 773.99 187.027 781.12 Q187.027 788.226 188.832 791.791 Q190.661 795.333 194.272 795.333 Q197.906 795.333 199.712 791.791 Q201.54 788.226 201.54 781.12 Q201.54 773.99 199.712 770.449 Q197.906 766.884 194.272 766.884 M194.272 763.18 Q200.082 763.18 203.138 767.787 Q206.216 772.37 206.216 781.12 Q206.216 789.847 203.138 794.453 Q200.082 799.037 194.272 799.037 Q188.462 799.037 185.383 794.453 Q182.327 789.847 182.327 781.12 Q182.327 772.37 185.383 767.787 Q188.462 763.18 194.272 763.18 Z" fill="#000000" fill-rule="nonzero" fill-opacity="1" /><path clip-path="url(#clip840)" d="M94.5965 483.798 L102.235 483.798 L102.235 457.433 L93.9252 459.099 L93.9252 454.84 L102.189 453.173 L106.865 453.173 L106.865 483.798 L114.504 483.798 L114.504 487.733 L94.5965 487.733 L94.5965 483.798 Z" fill="#000000" fill-rule="nonzero" fill-opacity="1" /><path clip-path="url(#clip840)" d="M133.948 456.252 Q130.337 456.252 128.508 459.817 Q126.703 463.358 126.703 470.488 Q126.703 477.594 128.508 481.159 Q130.337 484.701 133.948 484.701 Q137.582 484.701 139.388 481.159 Q141.217 477.594 141.217 470.488 Q141.217 463.358 139.388 459.817 Q137.582 456.252 133.948 456.252 M133.948 452.548 Q139.758 452.548 142.814 457.155 Q145.892 461.738 145.892 470.488 Q145.892 479.215 142.814 483.821 Q139.758 488.405 133.948 488.405 Q128.138 488.405 125.059 483.821 Q122.004 479.215 122.004 470.488 Q122.004 461.738 125.059 457.155 Q128.138 452.548 133.948 452.548 Z" fill="#000000" fill-rule="nonzero" fill-opacity="1" /><path clip-path="url(#clip840)" d="M164.11 456.252 Q160.499 456.252 158.67 459.817 Q156.865 463.358 156.865 470.488 Q156.865 477.594 158.67 481.159 Q160.499 484.701 164.11 484.701 Q167.744 484.701 169.55 481.159 Q171.378 477.594 171.378 470.488 Q171.378 463.358 169.55 459.817 Q167.744 456.252 164.11 456.252 M164.11 452.548 Q169.92 452.548 172.976 457.155 Q176.054 461.738 176.054 470.488 Q176.054 479.215 172.976 483.821 Q169.92 488.405 164.11 488.405 Q158.3 488.405 155.221 483.821 Q152.166 479.215 152.166 470.488 Q152.166 461.738 155.221 457.155 Q158.3 452.548 164.11 452.548 Z" fill="#000000" fill-rule="nonzero" fill-opacity="1" /><path clip-path="url(#clip840)" d="M194.272 456.252 Q190.661 456.252 188.832 459.817 Q187.027 463.358 187.027 470.488 Q187.027 477.594 188.832 481.159 Q190.661 484.701 194.272 484.701 Q197.906 484.701 199.712 481.159 Q201.54 477.594 201.54 470.488 Q201.54 463.358 199.712 459.817 Q197.906 456.252 194.272 456.252 M194.272 452.548 Q200.082 452.548 203.138 457.155 Q206.216 461.738 206.216 470.488 Q206.216 479.215 203.138 483.821 Q200.082 488.405 194.272 488.405 Q188.462 488.405 185.383 483.821 Q182.327 479.215 182.327 470.488 Q182.327 461.738 185.383 457.155 Q188.462 452.548 194.272 452.548 Z" fill="#000000" fill-rule="nonzero" fill-opacity="1" /><path clip-path="url(#clip840)" d="M94.5965 173.166 L102.235 173.166 L102.235 146.801 L93.9252 148.467 L93.9252 144.208 L102.189 142.541 L106.865 142.541 L106.865 173.166 L114.504 173.166 L114.504 177.101 L94.5965 177.101 L94.5965 173.166 Z" fill="#000000" fill-rule="nonzero" fill-opacity="1" /><path clip-path="url(#clip840)" d="M123.994 142.541 L142.351 142.541 L142.351 146.477 L128.277 146.477 L128.277 154.949 Q129.295 154.601 130.314 154.439 Q131.332 154.254 132.351 154.254 Q138.138 154.254 141.517 157.426 Q144.897 160.597 144.897 166.013 Q144.897 171.592 141.425 174.694 Q137.953 177.773 131.633 177.773 Q129.457 177.773 127.189 177.402 Q124.944 177.032 122.536 176.291 L122.536 171.592 Q124.619 172.726 126.842 173.282 Q129.064 173.837 131.541 173.837 Q135.545 173.837 137.883 171.731 Q140.221 169.625 140.221 166.013 Q140.221 162.402 137.883 160.296 Q135.545 158.189 131.541 158.189 Q129.666 158.189 127.791 158.606 Q125.939 159.023 123.994 159.902 L123.994 142.541 Z" fill="#000000" fill-rule="nonzero" fill-opacity="1" /><path clip-path="url(#clip840)" d="M164.11 145.62 Q160.499 145.62 158.67 149.185 Q156.865 152.726 156.865 159.856 Q156.865 166.963 158.67 170.527 Q160.499 174.069 164.11 174.069 Q167.744 174.069 169.55 170.527 Q171.378 166.963 171.378 159.856 Q171.378 152.726 169.55 149.185 Q167.744 145.62 164.11 145.62 M164.11 141.916 Q169.92 141.916 172.976 146.523 Q176.054 151.106 176.054 159.856 Q176.054 168.583 172.976 173.189 Q169.92 177.773 164.11 177.773 Q158.3 177.773 155.221 173.189 Q152.166 168.583 152.166 159.856 Q152.166 151.106 155.221 146.523 Q158.3 141.916 164.11 141.916 Z" fill="#000000" fill-rule="nonzero" fill-opacity="1" /><path clip-path="url(#clip840)" d="M194.272 145.62 Q190.661 145.62 188.832 149.185 Q187.027 152.726 187.027 159.856 Q187.027 166.963 188.832 170.527 Q190.661 174.069 194.272 174.069 Q197.906 174.069 199.712 170.527 Q201.54 166.963 201.54 159.856 Q201.54 152.726 199.712 149.185 Q197.906 145.62 194.272 145.62 M194.272 141.916 Q200.082 141.916 203.138 146.523 Q206.216 151.106 206.216 159.856 Q206.216 168.583 203.138 173.189 Q200.082 177.773 194.272 177.773 Q188.462 177.773 185.383 173.189 Q182.327 168.583 182.327 159.856 Q182.327 151.106 185.383 146.523 Q188.462 141.916 194.272 141.916 Z" fill="#000000" fill-rule="nonzero" fill-opacity="1" /><path clip-path="url(#clip840)" d="M1.49571 714.737 Q0.922794 715.723 0.668166 716.901 Q0.381709 718.047 0.381709 719.447 Q0.381709 724.413 3.62822 727.086 Q6.8429 729.728 12.8903 729.728 L31.6692 729.728 L31.6692 735.616 L-3.9788 735.616 L-3.9788 729.728 L1.55937 729.728 Q-1.68715 727.882 -3.24674 724.922 Q-4.83817 721.962 -4.83817 717.729 Q-4.83817 717.124 -4.74268 716.392 Q-4.67903 715.66 -4.51988 714.769 L1.49571 714.737 Z" fill="#000000" fill-rule="nonzero" fill-opacity="1" /><path clip-path="url(#clip840)" d="M-17.7924 694.526 Q-10.4718 698.791 -3.3104 700.86 Q3.85102 702.928 11.2034 702.928 Q18.5558 702.928 25.7809 700.86 Q32.9741 698.759 40.2629 694.526 L40.2629 699.618 Q32.7832 704.393 25.5581 706.78 Q18.333 709.135 11.2034 709.135 Q4.10565 709.135 -3.0876 706.78 Q-10.2808 704.424 -17.7924 699.618 L-17.7924 694.526 Z" fill="#000000" fill-rule="nonzero" fill-opacity="1" /><path clip-path="url(#clip840)" d="M-15.8508 682.908 L-15.8508 676.479 L3.62822 676.479 L3.62822 653.117 L-15.8508 653.117 L-15.8508 646.687 L31.6692 646.687 L31.6692 653.117 L9.03907 653.117 L9.03907 676.479 L31.6692 676.479 L31.6692 682.908 L-15.8508 682.908 Z" fill="#000000" fill-rule="nonzero" fill-opacity="1" /><path clip-path="url(#clip840)" d="M-17.7924 635.07 L-17.7924 629.977 Q-10.2808 625.203 -3.0876 622.848 Q4.10565 620.461 11.2034 620.461 Q18.333 620.461 25.5581 622.848 Q32.7832 625.203 40.2629 629.977 L40.2629 635.07 Q32.9741 630.837 25.7809 628.768 Q18.5558 626.667 11.2034 626.667 Q3.85102 626.667 -3.3104 628.768 Q-10.4718 630.837 -17.7924 635.07 Z" fill="#000000" fill-rule="nonzero" fill-opacity="1" /><path clip-path="url(#clip840)" d="M347.797 18.8205 L347.797 41.5461 L358.087 41.5461 Q363.799 41.5461 366.918 38.5889 Q370.037 35.6318 370.037 30.163 Q370.037 24.7348 366.918 21.7777 Q363.799 18.8205 358.087 18.8205 L347.797 18.8205 M339.615 12.096 L358.087 12.096 Q368.255 12.096 373.44 16.714 Q378.665 21.2916 378.665 30.163 Q378.665 39.1155 373.44 43.6931 Q368.255 48.2706 358.087 48.2706 L347.797 48.2706 L347.797 72.576 L339.615 72.576 L339.615 12.096 Z" fill="#000000" fill-rule="nonzero" fill-opacity="1" /><path clip-path="url(#clip840)" d="M425.17 48.0275 L425.17 51.6733 L390.899 51.6733 Q391.385 59.3701 395.517 63.421 Q399.69 67.4314 407.103 67.4314 Q411.397 67.4314 415.407 66.3781 Q419.458 65.3249 423.428 63.2184 L423.428 70.267 Q419.417 71.9684 415.205 72.8596 Q410.992 73.7508 406.657 73.7508 Q395.801 73.7508 389.441 67.4314 Q383.121 61.1119 383.121 50.3365 Q383.121 39.1965 389.117 32.6746 Q395.153 26.1121 405.361 26.1121 Q414.516 26.1121 419.823 32.0264 Q425.17 37.9003 425.17 48.0275 M417.716 45.84 Q417.635 39.7232 414.273 36.0774 Q410.951 32.4315 405.442 32.4315 Q399.203 32.4315 395.436 35.9558 Q391.709 39.4801 391.142 45.8805 L417.716 45.84 Z" fill="#000000" fill-rule="nonzero" fill-opacity="1" /><path clip-path="url(#clip840)" d="M463.694 34.1734 Q462.438 33.4443 460.939 33.1202 Q459.481 32.7556 457.699 32.7556 Q451.379 32.7556 447.976 36.8875 Q444.614 40.9789 444.614 48.6757 L444.614 72.576 L437.12 72.576 L437.12 27.2059 L444.614 27.2059 L444.614 34.2544 Q446.964 30.1225 450.731 28.1376 Q454.498 26.1121 459.886 26.1121 Q460.656 26.1121 461.587 26.2337 Q462.519 26.3147 463.653 26.5172 L463.694 34.1734 Z" fill="#000000" fill-rule="nonzero" fill-opacity="1" /><path clip-path="url(#clip840)" d="M462.438 46.5287 L484.272 46.5287 L484.272 53.1722 L462.438 53.1722 L462.438 46.5287 Z" fill="#000000" fill-rule="nonzero" fill-opacity="1" /><path clip-path="url(#clip840)" d="M528.792 28.9478 L528.792 35.9153 Q525.632 34.1734 522.432 33.3227 Q519.272 32.4315 516.032 32.4315 Q508.78 32.4315 504.77 37.0496 Q500.76 41.6271 500.76 49.9314 Q500.76 58.2358 504.77 62.8538 Q508.78 67.4314 516.032 67.4314 Q519.272 67.4314 522.432 66.5807 Q525.632 65.6895 528.792 63.9476 L528.792 70.8341 Q525.673 72.2924 522.31 73.0216 Q518.989 73.7508 515.221 73.7508 Q504.973 73.7508 498.937 67.3098 Q492.901 60.8689 492.901 49.9314 Q492.901 38.832 498.977 32.472 Q505.094 26.1121 515.707 26.1121 Q519.151 26.1121 522.432 26.8413 Q525.713 27.5299 528.792 28.9478 Z" fill="#000000" fill-rule="nonzero" fill-opacity="1" /><path clip-path="url(#clip840)" d="M562.374 49.7694 Q553.34 49.7694 549.857 51.8354 Q546.373 53.9013 546.373 58.8839 Q546.373 62.8538 548.965 65.2034 Q551.598 67.5124 556.095 67.5124 Q562.293 67.5124 566.02 63.1374 Q569.787 58.7219 569.787 51.4303 L569.787 49.7694 L562.374 49.7694 M577.241 46.6907 L577.241 72.576 L569.787 72.576 L569.787 65.6895 Q567.235 69.8214 563.427 71.8063 Q559.619 73.7508 554.11 73.7508 Q547.142 73.7508 543.011 69.8619 Q538.919 65.9325 538.919 59.3701 Q538.919 51.7138 544.023 47.825 Q549.168 43.9361 559.336 43.9361 L569.787 43.9361 L569.787 43.2069 Q569.787 38.0623 566.384 35.2672 Q563.022 32.4315 556.905 32.4315 Q553.016 32.4315 549.33 33.3632 Q545.644 34.295 542.241 36.1584 L542.241 29.2718 Q546.332 27.692 550.181 26.9223 Q554.029 26.1121 557.675 26.1121 Q567.519 26.1121 572.38 31.2163 Q577.241 36.3204 577.241 46.6907 Z" fill="#000000" fill-rule="nonzero" fill-opacity="1" /><path clip-path="url(#clip840)" d="M599.804 65.7705 L599.804 89.8329 L592.31 89.8329 L592.31 27.2059 L599.804 27.2059 L599.804 34.0924 Q602.154 30.0415 605.719 28.0971 Q609.324 26.1121 614.306 26.1121 Q622.57 26.1121 627.715 32.6746 Q632.9 39.2371 632.9 49.9314 Q632.9 60.6258 627.715 67.1883 Q622.57 73.7508 614.306 73.7508 Q609.324 73.7508 605.719 71.8063 Q602.154 69.8214 599.804 65.7705 M625.163 49.9314 Q625.163 41.7081 621.76 37.0496 Q618.398 32.3505 612.484 32.3505 Q606.569 32.3505 603.166 37.0496 Q599.804 41.7081 599.804 49.9314 Q599.804 58.1548 603.166 62.8538 Q606.569 67.5124 612.484 67.5124 Q618.398 67.5124 621.76 62.8538 Q625.163 58.1548 625.163 49.9314 Z" fill="#000000" fill-rule="nonzero" fill-opacity="1" /><path clip-path="url(#clip840)" d="M645.255 27.2059 L652.709 27.2059 L652.709 72.576 L645.255 72.576 L645.255 27.2059 M645.255 9.54393 L652.709 9.54393 L652.709 18.9825 L645.255 18.9825 L645.255 9.54393 Z" fill="#000000" fill-rule="nonzero" fill-opacity="1" /><path clip-path="url(#clip840)" d="M675.678 14.324 L675.678 27.2059 L691.031 27.2059 L691.031 32.9987 L675.678 32.9987 L675.678 57.6282 Q675.678 63.1779 677.177 64.7578 Q678.716 66.3376 683.374 66.3376 L691.031 66.3376 L691.031 72.576 L683.374 72.576 Q674.746 72.576 671.465 69.3758 Q668.184 66.1351 668.184 57.6282 L668.184 32.9987 L662.715 32.9987 L662.715 27.2059 L668.184 27.2059 L668.184 14.324 L675.678 14.324 Z" fill="#000000" fill-rule="nonzero" fill-opacity="1" /><path clip-path="url(#clip840)" d="M721.453 49.7694 Q712.419 49.7694 708.936 51.8354 Q705.452 53.9013 705.452 58.8839 Q705.452 62.8538 708.044 65.2034 Q710.677 67.5124 715.174 67.5124 Q721.372 67.5124 725.099 63.1374 Q728.866 58.7219 728.866 51.4303 L728.866 49.7694 L721.453 49.7694 M736.32 46.6907 L736.32 72.576 L728.866 72.576 L728.866 65.6895 Q726.314 69.8214 722.506 71.8063 Q718.698 73.7508 713.189 73.7508 Q706.221 73.7508 702.09 69.8619 Q697.998 65.9325 697.998 59.3701 Q697.998 51.7138 703.102 47.825 Q708.247 43.9361 718.415 43.9361 L728.866 43.9361 L728.866 43.2069 Q728.866 38.0623 725.463 35.2672 Q722.101 32.4315 715.984 32.4315 Q712.095 32.4315 708.409 33.3632 Q704.723 34.295 701.32 36.1584 L701.32 29.2718 Q705.411 27.692 709.26 26.9223 Q713.108 26.1121 716.754 26.1121 Q726.598 26.1121 731.459 31.2163 Q736.32 36.3204 736.32 46.6907 Z" fill="#000000" fill-rule="nonzero" fill-opacity="1" /><path clip-path="url(#clip840)" d="M815.758 45.1919 L815.758 72.576 L808.304 72.576 L808.304 45.4349 Q808.304 38.994 805.793 35.7938 Q803.281 32.5936 798.258 32.5936 Q792.222 32.5936 788.738 36.4419 Q785.255 40.2903 785.255 46.9338 L785.255 72.576 L777.76 72.576 L777.76 9.54393 L785.255 9.54393 L785.255 34.2544 Q787.928 30.163 791.534 28.1376 Q795.179 26.1121 799.919 26.1121 Q807.737 26.1121 811.748 30.9732 Q815.758 35.7938 815.758 45.1919 Z" fill="#000000" fill-rule="nonzero" fill-opacity="1" /><path clip-path="url(#clip840)" d="M851.244 49.7694 Q842.21 49.7694 838.727 51.8354 Q835.243 53.9013 835.243 58.8839 Q835.243 62.8538 837.835 65.2034 Q840.468 67.5124 844.965 67.5124 Q851.163 67.5124 854.89 63.1374 Q858.657 58.7219 858.657 51.4303 L858.657 49.7694 L851.244 49.7694 M866.111 46.6907 L866.111 72.576 L858.657 72.576 L858.657 65.6895 Q856.105 69.8214 852.297 71.8063 Q848.489 73.7508 842.98 73.7508 Q836.012 73.7508 831.881 69.8619 Q827.789 65.9325 827.789 59.3701 Q827.789 51.7138 832.893 47.825 Q838.038 43.9361 848.206 43.9361 L858.657 43.9361 L858.657 43.2069 Q858.657 38.0623 855.254 35.2672 Q851.892 32.4315 845.775 32.4315 Q841.886 32.4315 838.2 33.3632 Q834.514 34.295 831.111 36.1584 L831.111 29.2718 Q835.202 27.692 839.051 26.9223 Q842.899 26.1121 846.545 26.1121 Q856.389 26.1121 861.25 31.2163 Q866.111 36.3204 866.111 46.6907 Z" fill="#000000" fill-rule="nonzero" fill-opacity="1" /><path clip-path="url(#clip840)" d="M907.754 34.1734 Q906.498 33.4443 904.999 33.1202 Q903.541 32.7556 901.759 32.7556 Q895.439 32.7556 892.036 36.8875 Q888.674 40.9789 888.674 48.6757 L888.674 72.576 L881.18 72.576 L881.18 27.2059 L888.674 27.2059 L888.674 34.2544 Q891.024 30.1225 894.791 28.1376 Q898.558 26.1121 903.946 26.1121 Q904.716 26.1121 905.648 26.2337 Q906.579 26.3147 907.713 26.5172 L907.754 34.1734 Z" fill="#000000" fill-rule="nonzero" fill-opacity="1" /><path clip-path="url(#clip840)" d="M952.557 48.0275 L952.557 51.6733 L918.286 51.6733 Q918.772 59.3701 922.904 63.421 Q927.077 67.4314 934.49 67.4314 Q938.784 67.4314 942.794 66.3781 Q946.845 65.3249 950.815 63.2184 L950.815 70.267 Q946.805 71.9684 942.592 72.8596 Q938.379 73.7508 934.044 73.7508 Q923.188 73.7508 916.828 67.4314 Q910.509 61.1119 910.509 50.3365 Q910.509 39.1965 916.504 32.6746 Q922.54 26.1121 932.748 26.1121 Q941.903 26.1121 947.21 32.0264 Q952.557 37.9003 952.557 48.0275 M945.103 45.84 Q945.022 39.7232 941.66 36.0774 Q938.338 32.4315 932.829 32.4315 Q926.591 32.4315 922.823 35.9558 Q919.097 39.4801 918.529 45.8805 L945.103 45.84 Z" fill="#000000" fill-rule="nonzero" fill-opacity="1" /><path clip-path="url(#clip840)" d="M1021.02 49.3643 Q1021.02 41.2625 1017.66 36.8065 Q1014.33 32.3505 1008.3 32.3505 Q1002.3 32.3505 998.94 36.8065 Q995.618 41.2625 995.618 49.3643 Q995.618 57.4256 998.94 61.8816 Q1002.3 66.3376 1008.3 66.3376 Q1014.33 66.3376 1017.66 61.8816 Q1021.02 57.4256 1021.02 49.3643 M1028.47 66.9452 Q1028.47 78.5308 1023.33 84.1616 Q1018.18 89.8329 1007.57 89.8329 Q1003.64 89.8329 1000.16 89.2252 Q996.671 88.6581 993.39 87.4428 L993.39 80.1917 Q996.671 81.9741 999.872 82.8248 Q1003.07 83.6755 1006.39 83.6755 Q1013.73 83.6755 1017.37 79.8271 Q1021.02 76.0193 1021.02 68.282 L1021.02 64.5957 Q1018.71 68.6061 1015.1 70.5911 Q1011.5 72.576 1006.47 72.576 Q998.13 72.576 993.026 66.2161 Q987.921 59.8562 987.921 49.3643 Q987.921 38.832 993.026 32.472 Q998.13 26.1121 1006.47 26.1121 Q1011.5 26.1121 1015.1 28.0971 Q1018.71 30.082 1021.02 34.0924 L1021.02 27.2059 L1028.47 27.2059 L1028.47 66.9452 Z" fill="#000000" fill-rule="nonzero" fill-opacity="1" /><path clip-path="url(#clip840)" d="M1070.11 34.1734 Q1068.86 33.4443 1067.36 33.1202 Q1065.9 32.7556 1064.12 32.7556 Q1057.8 32.7556 1054.4 36.8875 Q1051.03 40.9789 1051.03 48.6757 L1051.03 72.576 L1043.54 72.576 L1043.54 27.2059 L1051.03 27.2059 L1051.03 34.2544 Q1053.38 30.1225 1057.15 28.1376 Q1060.92 26.1121 1066.31 26.1121 Q1067.08 26.1121 1068.01 26.2337 Q1068.94 26.3147 1070.07 26.5172 L1070.11 34.1734 Z" fill="#000000" fill-rule="nonzero" fill-opacity="1" /><path clip-path="url(#clip840)" d="M1093.69 32.4315 Q1087.7 32.4315 1084.21 37.1306 Q1080.73 41.7891 1080.73 49.9314 Q1080.73 58.0738 1084.17 62.7728 Q1087.65 67.4314 1093.69 67.4314 Q1099.65 67.4314 1103.13 62.7323 Q1106.61 58.0333 1106.61 49.9314 Q1106.61 41.8701 1103.13 37.1711 Q1099.65 32.4315 1093.69 32.4315 M1093.69 26.1121 Q1103.41 26.1121 1108.96 32.4315 Q1114.51 38.7509 1114.51 49.9314 Q1114.51 61.0714 1108.96 67.4314 Q1103.41 73.7508 1093.69 73.7508 Q1083.93 73.7508 1078.38 67.4314 Q1072.87 61.0714 1072.87 49.9314 Q1072.87 38.7509 1078.38 32.4315 Q1083.93 26.1121 1093.69 26.1121 Z" fill="#000000" fill-rule="nonzero" fill-opacity="1" /><path clip-path="url(#clip840)" d="M1122.53 27.2059 L1129.99 27.2059 L1139.3 62.6108 L1148.58 27.2059 L1157.37 27.2059 L1166.69 62.6108 L1175.96 27.2059 L1183.42 27.2059 L1171.55 72.576 L1162.76 72.576 L1153 35.3887 L1143.19 72.576 L1134.4 72.576 L1122.53 27.2059 Z" fill="#000000" fill-rule="nonzero" fill-opacity="1" /><path clip-path="url(#clip840)" d="M1202.09 14.324 L1202.09 27.2059 L1217.45 27.2059 L1217.45 32.9987 L1202.09 32.9987 L1202.09 57.6282 Q1202.09 63.1779 1203.59 64.7578 Q1205.13 66.3376 1209.79 66.3376 L1217.45 66.3376 L1217.45 72.576 L1209.79 72.576 Q1201.16 72.576 1197.88 69.3758 Q1194.6 66.1351 1194.6 57.6282 L1194.6 32.9987 L1189.13 32.9987 L1189.13 27.2059 L1194.6 27.2059 L1194.6 14.324 L1202.09 14.324 Z" fill="#000000" fill-rule="nonzero" fill-opacity="1" /><path clip-path="url(#clip840)" d="M1264.96 45.1919 L1264.96 72.576 L1257.51 72.576 L1257.51 45.4349 Q1257.51 38.994 1255 35.7938 Q1252.49 32.5936 1247.46 32.5936 Q1241.43 32.5936 1237.94 36.4419 Q1234.46 40.2903 1234.46 46.9338 L1234.46 72.576 L1226.97 72.576 L1226.97 9.54393 L1234.46 9.54393 L1234.46 34.2544 Q1237.13 30.163 1240.74 28.1376 Q1244.38 26.1121 1249.12 26.1121 Q1256.94 26.1121 1260.95 30.9732 Q1264.96 35.7938 1264.96 45.1919 Z" fill="#000000" fill-rule="nonzero" fill-opacity="1" /><path clip-path="url(#clip840)" d="M1332.49 34.1734 Q1331.24 33.4443 1329.74 33.1202 Q1328.28 32.7556 1326.5 32.7556 Q1320.18 32.7556 1316.77 36.8875 Q1313.41 40.9789 1313.41 48.6757 L1313.41 72.576 L1305.92 72.576 L1305.92 27.2059 L1313.41 27.2059 L1313.41 34.2544 Q1315.76 30.1225 1319.53 28.1376 Q1323.3 26.1121 1328.68 26.1121 Q1329.45 26.1121 1330.38 26.2337 Q1331.32 26.3147 1332.45 26.5172 L1332.49 34.1734 Z" fill="#000000" fill-rule="nonzero" fill-opacity="1" /><path clip-path="url(#clip840)" d="M1360.93 49.7694 Q1351.9 49.7694 1348.41 51.8354 Q1344.93 53.9013 1344.93 58.8839 Q1344.93 62.8538 1347.52 65.2034 Q1350.15 67.5124 1354.65 67.5124 Q1360.85 67.5124 1364.57 63.1374 Q1368.34 58.7219 1368.34 51.4303 L1368.34 49.7694 L1360.93 49.7694 M1375.8 46.6907 L1375.8 72.576 L1368.34 72.576 L1368.34 65.6895 Q1365.79 69.8214 1361.98 71.8063 Q1358.17 73.7508 1352.66 73.7508 Q1345.7 73.7508 1341.57 69.8619 Q1337.47 65.9325 1337.47 59.3701 Q1337.47 51.7138 1342.58 47.825 Q1347.72 43.9361 1357.89 43.9361 L1368.34 43.9361 L1368.34 43.2069 Q1368.34 38.0623 1364.94 35.2672 Q1361.58 32.4315 1355.46 32.4315 Q1351.57 32.4315 1347.88 33.3632 Q1344.2 34.295 1340.8 36.1584 L1340.8 29.2718 Q1344.89 27.692 1348.74 26.9223 Q1352.58 26.1121 1356.23 26.1121 Q1366.07 26.1121 1370.93 31.2163 Q1375.8 36.3204 1375.8 46.6907 Z" fill="#000000" fill-rule="nonzero" fill-opacity="1" /><path clip-path="url(#clip840)" d="M1398.52 14.324 L1398.52 27.2059 L1413.87 27.2059 L1413.87 32.9987 L1398.52 32.9987 L1398.52 57.6282 Q1398.52 63.1779 1400.02 64.7578 Q1401.56 66.3376 1406.22 66.3376 L1413.87 66.3376 L1413.87 72.576 L1406.22 72.576 Q1397.59 72.576 1394.31 69.3758 Q1391.03 66.1351 1391.03 57.6282 L1391.03 32.9987 L1385.56 32.9987 L1385.56 27.2059 L1391.03 27.2059 L1391.03 14.324 L1398.52 14.324 Z" fill="#000000" fill-rule="nonzero" fill-opacity="1" /><path clip-path="url(#clip840)" d="M1462.48 48.0275 L1462.48 51.6733 L1428.21 51.6733 Q1428.7 59.3701 1432.83 63.421 Q1437 67.4314 1444.42 67.4314 Q1448.71 67.4314 1452.72 66.3781 Q1456.77 65.3249 1460.74 63.2184 L1460.74 70.267 Q1456.73 71.9684 1452.52 72.8596 Q1448.31 73.7508 1443.97 73.7508 Q1433.12 73.7508 1426.76 67.4314 Q1420.44 61.1119 1420.44 50.3365 Q1420.44 39.1965 1426.43 32.6746 Q1432.47 26.1121 1442.68 26.1121 Q1451.83 26.1121 1457.14 32.0264 Q1462.48 37.9003 1462.48 48.0275 M1455.03 45.84 Q1454.95 39.7232 1451.59 36.0774 Q1448.27 32.4315 1442.76 32.4315 Q1436.52 32.4315 1432.75 35.9558 Q1429.02 39.4801 1428.46 45.8805 L1455.03 45.84 Z" fill="#000000" fill-rule="nonzero" fill-opacity="1" /><polyline clip-path="url(#clip842)" style="stroke:#ffa500; stroke-linecap:round; stroke-linejoin:round; stroke-width:8; stroke-opacity:1; fill:none" points="290.829,1220.83 303.157,1209.86 315.485,1198.9 327.812,1187.93 340.14,1176.97 352.468,1166 364.796,1155.03 377.123,1144.07 389.451,1133.1 401.779,1122.14 414.106,1111.17 426.434,1100.21 438.762,1089.24 451.089,1078.28 463.417,1067.31 475.745,1056.35 488.072,1045.38 500.4,1034.42 512.728,1023.45 525.055,1012.48 537.383,1001.52 549.711,990.553 562.038,979.588 574.366,968.623 586.694,957.657 599.022,946.692 611.349,935.726 623.677,924.761 636.005,913.795 648.332,902.83 660.66,891.864 672.988,880.899 685.315,869.934 697.643,858.968 709.971,848.003 722.298,837.037 734.626,826.072 746.954,815.106 759.281,804.141 771.609,793.176 783.937,782.21 796.264,771.245 808.592,760.279 820.92,749.314 833.247,738.348 845.575,727.383 857.903,716.418 870.231,705.452 882.558,694.487 894.886,683.521 907.214,672.556 919.541,661.59 931.869,650.625 944.197,639.659 956.524,628.694 968.852,617.729 981.18,606.763 993.507,595.798 1005.84,584.832 1018.16,573.867 1030.49,562.901 1042.82,551.936 1055.15,540.971 1067.47,530.005 1079.8,519.04 1092.13,508.074 1104.46,497.109 1116.78,486.143 1129.11,475.178 1141.44,464.213 1153.77,453.247 1166.09,442.282 1178.42,431.316 1190.75,420.351 1203.08,409.385 1215.41,398.42 1227.73,387.454 1240.06,376.489 1252.39,365.524 1264.72,354.558 1277.04,343.593 1289.37,332.627 1301.7,321.662 1314.03,310.696 1326.35,299.731 1338.68,288.766 1351.01,277.8 1363.34,266.835 1375.67,255.869 1387.99,244.904 1400.32,233.938 1412.65,222.973 1424.98,212.008 1437.3,201.042 1449.63,190.077 1461.96,179.111 1474.29,168.146 1486.61,157.18 1498.94,146.215 1511.27,135.249 "/>
<polyline clip-path="url(#clip842)" style="stroke:#808080; stroke-linecap:round; stroke-linejoin:round; stroke-width:4; stroke-opacity:1; fill:none" stroke-dasharray="2, 4" points="-1039.45,1091.72 2841.55,1091.72 "/>
<path clip-path="url(#clip840)" d="M1859.09 1253.39 L3152.76 1253.39 L3152.76 102.682 L1859.09 102.682  Z" fill="#ffffff" fill-rule="evenodd" fill-opacity="1"/>
<polyline clip-path="url(#clip841)" style="stroke:#000000; stroke-linecap:round; stroke-linejoin:round; stroke-width:2; stroke-opacity:0.1; fill:none" points="1879.21,1253.39 1879.21,102.682 "/>
<polyline clip-path="url(#clip841)" style="stroke:#000000; stroke-linecap:round; stroke-linejoin:round; stroke-width:2; stroke-opacity:0.1; fill:none" points="2209.06,1253.39 2209.06,102.682 "/>
<polyline clip-path="url(#clip841)" style="stroke:#000000; stroke-linecap:round; stroke-linejoin:round; stroke-width:2; stroke-opacity:0.1; fill:none" points="2538.91,1253.39 2538.91,102.682 "/>
<polyline clip-path="url(#clip841)" style="stroke:#000000; stroke-linecap:round; stroke-linejoin:round; stroke-width:2; stroke-opacity:0.1; fill:none" points="2868.76,1253.39 2868.76,102.682 "/>
<polyline clip-path="url(#clip841)" style="stroke:#000000; stroke-linecap:round; stroke-linejoin:round; stroke-width:2; stroke-opacity:0.1; fill:none" points="1859.09,1170.23 3152.76,1170.23 "/>
<polyline clip-path="url(#clip841)" style="stroke:#000000; stroke-linecap:round; stroke-linejoin:round; stroke-width:2; stroke-opacity:0.1; fill:none" points="1859.09,995.311 3152.76,995.311 "/>
<polyline clip-path="url(#clip841)" style="stroke:#000000; stroke-linecap:round; stroke-linejoin:round; stroke-width:2; stroke-opacity:0.1; fill:none" points="1859.09,820.388 3152.76,820.388 "/>
<polyline clip-path="url(#clip841)" style="stroke:#000000; stroke-linecap:round; stroke-linejoin:round; stroke-width:2; stroke-opacity:0.1; fill:none" points="1859.09,645.466 3152.76,645.466 "/>
<polyline clip-path="url(#clip841)" style="stroke:#000000; stroke-linecap:round; stroke-linejoin:round; stroke-width:2; stroke-opacity:0.1; fill:none" points="1859.09,470.543 3152.76,470.543 "/>
<polyline clip-path="url(#clip841)" style="stroke:#000000; stroke-linecap:round; stroke-linejoin:round; stroke-width:2; stroke-opacity:0.1; fill:none" points="1859.09,295.62 3152.76,295.62 "/>
<polyline clip-path="url(#clip841)" style="stroke:#000000; stroke-linecap:round; stroke-linejoin:round; stroke-width:2; stroke-opacity:0.1; fill:none" points="1859.09,120.698 3152.76,120.698 "/>
<polyline clip-path="url(#clip840)" style="stroke:#000000; stroke-linecap:round; stroke-linejoin:round; stroke-width:4; stroke-opacity:1; fill:none" points="1859.09,1253.39 3152.76,1253.39 "/>
<polyline clip-path="url(#clip840)" style="stroke:#000000; stroke-linecap:round; stroke-linejoin:round; stroke-width:4; stroke-opacity:1; fill:none" points="1879.21,1253.39 1879.21,1234.5 "/>
<polyline clip-path="url(#clip840)" style="stroke:#000000; stroke-linecap:round; stroke-linejoin:round; stroke-width:4; stroke-opacity:1; fill:none" points="2209.06,1253.39 2209.06,1234.5 "/>
<polyline clip-path="url(#clip840)" style="stroke:#000000; stroke-linecap:round; stroke-linejoin:round; stroke-width:4; stroke-opacity:1; fill:none" points="2538.91,1253.39 2538.91,1234.5 "/>
<polyline clip-path="url(#clip840)" style="stroke:#000000; stroke-linecap:round; stroke-linejoin:round; stroke-width:4; stroke-opacity:1; fill:none" points="2868.76,1253.39 2868.76,1234.5 "/>
<path clip-path="url(#clip840)" d="M1879.21 1290.71 Q1875.6 1290.71 1873.77 1294.28 Q1871.96 1297.82 1871.96 1304.95 Q1871.96 1312.06 1873.77 1315.62 Q1875.6 1319.16 1879.21 1319.16 Q1882.84 1319.16 1884.65 1315.62 Q1886.48 1312.06 1886.48 1304.95 Q1886.48 1297.82 1884.65 1294.28 Q1882.84 1290.71 1879.21 1290.71 M1879.21 1287.01 Q1885.02 1287.01 1888.08 1291.62 Q1891.15 1296.2 1891.15 1304.95 Q1891.15 1313.68 1888.08 1318.28 Q1885.02 1322.87 1879.21 1322.87 Q1873.4 1322.87 1870.32 1318.28 Q1867.27 1313.68 1867.27 1304.95 Q1867.27 1296.2 1870.32 1291.62 Q1873.4 1287.01 1879.21 1287.01 Z" fill="#000000" fill-rule="nonzero" fill-opacity="1" /><path clip-path="url(#clip840)" d="M2187.83 1318.26 L2204.15 1318.26 L2204.15 1322.19 L2182.21 1322.19 L2182.21 1318.26 Q2184.87 1315.51 2189.45 1310.88 Q2194.06 1306.22 2195.24 1304.88 Q2197.48 1302.36 2198.36 1300.62 Q2199.27 1298.86 2199.27 1297.17 Q2199.27 1294.42 2197.32 1292.68 Q2195.4 1290.95 2192.3 1290.95 Q2190.1 1290.95 2187.65 1291.71 Q2185.22 1292.47 2182.44 1294.02 L2182.44 1289.3 Q2185.26 1288.17 2187.72 1287.59 Q2190.17 1287.01 2192.21 1287.01 Q2197.58 1287.01 2200.77 1289.7 Q2203.97 1292.38 2203.97 1296.87 Q2203.97 1299 2203.16 1300.92 Q2202.37 1302.82 2200.26 1305.41 Q2199.68 1306.08 2196.58 1309.3 Q2193.48 1312.5 2187.83 1318.26 Z" fill="#000000" fill-rule="nonzero" fill-opacity="1" /><path clip-path="url(#clip840)" d="M2223.97 1290.71 Q2220.35 1290.71 2218.53 1294.28 Q2216.72 1297.82 2216.72 1304.95 Q2216.72 1312.06 2218.53 1315.62 Q2220.35 1319.16 2223.97 1319.16 Q2227.6 1319.16 2229.41 1315.62 Q2231.23 1312.06 2231.23 1304.95 Q2231.23 1297.82 2229.41 1294.28 Q2227.6 1290.71 2223.97 1290.71 M2223.97 1287.01 Q2229.78 1287.01 2232.83 1291.62 Q2235.91 1296.2 2235.91 1304.95 Q2235.91 1313.68 2232.83 1318.28 Q2229.78 1322.87 2223.97 1322.87 Q2218.16 1322.87 2215.08 1318.28 Q2212.02 1313.68 2212.02 1304.95 Q2212.02 1296.2 2215.08 1291.62 Q2218.16 1287.01 2223.97 1287.01 Z" fill="#000000" fill-rule="nonzero" fill-opacity="1" /><path clip-path="url(#clip840)" d="M2527.08 1291.71 L2515.27 1310.16 L2527.08 1310.16 L2527.08 1291.71 M2525.85 1287.63 L2531.73 1287.63 L2531.73 1310.16 L2536.66 1310.16 L2536.66 1314.05 L2531.73 1314.05 L2531.73 1322.19 L2527.08 1322.19 L2527.08 1314.05 L2511.48 1314.05 L2511.48 1309.53 L2525.85 1287.63 Z" fill="#000000" fill-rule="nonzero" fill-opacity="1" /><path clip-path="url(#clip840)" d="M2554.39 1290.71 Q2550.78 1290.71 2548.95 1294.28 Q2547.15 1297.82 2547.15 1304.95 Q2547.15 1312.06 2548.95 1315.62 Q2550.78 1319.16 2554.39 1319.16 Q2558.03 1319.16 2559.83 1315.62 Q2561.66 1312.06 2561.66 1304.95 Q2561.66 1297.82 2559.83 1294.28 Q2558.03 1290.71 2554.39 1290.71 M2554.39 1287.01 Q2560.2 1287.01 2563.26 1291.62 Q2566.34 1296.2 2566.34 1304.95 Q2566.34 1313.68 2563.26 1318.28 Q2560.2 1322.87 2554.39 1322.87 Q2548.58 1322.87 2545.5 1318.28 Q2542.45 1313.68 2542.45 1304.95 Q2542.45 1296.2 2545.5 1291.62 Q2548.58 1287.01 2554.39 1287.01 Z" fill="#000000" fill-rule="nonzero" fill-opacity="1" /><path clip-path="url(#clip840)" d="M2854.16 1303.05 Q2851.01 1303.05 2849.16 1305.2 Q2847.33 1307.36 2847.33 1311.11 Q2847.33 1314.83 2849.16 1317.01 Q2851.01 1319.16 2854.16 1319.16 Q2857.31 1319.16 2859.14 1317.01 Q2860.99 1314.83 2860.99 1311.11 Q2860.99 1307.36 2859.14 1305.2 Q2857.31 1303.05 2854.16 1303.05 M2863.44 1288.4 L2863.44 1292.66 Q2861.68 1291.82 2859.88 1291.38 Q2858.1 1290.95 2856.34 1290.95 Q2851.71 1290.95 2849.25 1294.07 Q2846.82 1297.19 2846.48 1303.51 Q2847.84 1301.5 2849.9 1300.44 Q2851.96 1299.35 2854.44 1299.35 Q2859.65 1299.35 2862.66 1302.52 Q2865.69 1305.67 2865.69 1311.11 Q2865.69 1316.43 2862.54 1319.65 Q2859.39 1322.87 2854.16 1322.87 Q2848.17 1322.87 2844.99 1318.28 Q2841.82 1313.68 2841.82 1304.95 Q2841.82 1296.76 2845.71 1291.89 Q2849.6 1287.01 2856.15 1287.01 Q2857.91 1287.01 2859.69 1287.36 Q2861.5 1287.7 2863.44 1288.4 Z" fill="#000000" fill-rule="nonzero" fill-opacity="1" /><path clip-path="url(#clip840)" d="M2883.74 1290.71 Q2880.13 1290.71 2878.3 1294.28 Q2876.5 1297.82 2876.5 1304.95 Q2876.5 1312.06 2878.3 1315.62 Q2880.13 1319.16 2883.74 1319.16 Q2887.38 1319.16 2889.18 1315.62 Q2891.01 1312.06 2891.01 1304.95 Q2891.01 1297.82 2889.18 1294.28 Q2887.38 1290.71 2883.74 1290.71 M2883.74 1287.01 Q2889.55 1287.01 2892.61 1291.62 Q2895.69 1296.2 2895.69 1304.95 Q2895.69 1313.68 2892.61 1318.28 Q2889.55 1322.87 2883.74 1322.87 Q2877.93 1322.87 2874.86 1318.28 Q2871.8 1313.68 2871.8 1304.95 Q2871.8 1296.2 2874.86 1291.62 Q2877.93 1287.01 2883.74 1287.01 Z" fill="#000000" fill-rule="nonzero" fill-opacity="1" /><path clip-path="url(#clip840)" d="M2276.52 1362.74 L2282.95 1362.74 L2282.95 1404.85 L2306.09 1404.85 L2306.09 1410.26 L2276.52 1410.26 L2276.52 1362.74 Z" fill="#000000" fill-rule="nonzero" fill-opacity="1" /><path clip-path="url(#clip840)" d="M2321.43 1413.57 Q2318.95 1419.93 2316.59 1421.88 Q2314.24 1423.82 2310.29 1423.82 L2305.61 1423.82 L2305.61 1418.92 L2309.05 1418.92 Q2311.47 1418.92 2312.8 1417.77 Q2314.14 1416.62 2315.76 1412.36 L2316.81 1409.69 L2302.39 1374.61 L2308.6 1374.61 L2319.74 1402.49 L2330.88 1374.61 L2337.09 1374.61 L2321.43 1413.57 Z" fill="#000000" fill-rule="nonzero" fill-opacity="1" /><path clip-path="url(#clip840)" d="M2374.8 1388.74 L2374.8 1410.26 L2368.95 1410.26 L2368.95 1388.93 Q2368.95 1383.87 2366.97 1381.36 Q2365 1378.84 2361.05 1378.84 Q2356.31 1378.84 2353.58 1381.87 Q2350.84 1384.89 2350.84 1390.11 L2350.84 1410.26 L2344.95 1410.26 L2344.95 1374.61 L2350.84 1374.61 L2350.84 1380.15 Q2352.94 1376.93 2355.77 1375.34 Q2358.64 1373.75 2362.36 1373.75 Q2368.5 1373.75 2371.65 1377.57 Q2374.8 1381.36 2374.8 1388.74 Z" fill="#000000" fill-rule="nonzero" fill-opacity="1" /><path clip-path="url(#clip840)" d="M2416.12 1374.61 L2403.23 1391.96 L2416.79 1410.26 L2409.88 1410.26 L2399.5 1396.25 L2389.13 1410.26 L2382.22 1410.26 L2396.07 1391.61 L2383.4 1374.61 L2390.31 1374.61 L2399.76 1387.31 L2409.21 1374.61 L2416.12 1374.61 Z" fill="#000000" fill-rule="nonzero" fill-opacity="1" /><path clip-path="url(#clip840)" d="M2469.24 1380.02 L2469.24 1360.73 L2475.1 1360.73 L2475.1 1410.26 L2469.24 1410.26 L2469.24 1404.91 Q2467.39 1408.09 2464.56 1409.65 Q2461.76 1411.18 2457.81 1411.18 Q2451.35 1411.18 2447.28 1406.03 Q2443.24 1400.87 2443.24 1392.47 Q2443.24 1384.06 2447.28 1378.91 Q2451.35 1373.75 2457.81 1373.75 Q2461.76 1373.75 2464.56 1375.31 Q2467.39 1376.84 2469.24 1380.02 M2449.28 1392.47 Q2449.28 1398.93 2451.93 1402.62 Q2454.6 1406.28 2459.25 1406.28 Q2463.89 1406.28 2466.57 1402.62 Q2469.24 1398.93 2469.24 1392.47 Q2469.24 1386.01 2466.57 1382.35 Q2463.89 1378.65 2459.25 1378.65 Q2454.6 1378.65 2451.93 1382.35 Q2449.28 1386.01 2449.28 1392.47 Z" fill="#000000" fill-rule="nonzero" fill-opacity="1" /><path clip-path="url(#clip840)" d="M2517.65 1390.97 L2517.65 1393.84 L2490.72 1393.84 Q2491.11 1399.88 2494.35 1403.07 Q2497.63 1406.22 2503.46 1406.22 Q2506.83 1406.22 2509.98 1405.39 Q2513.16 1404.56 2516.28 1402.91 L2516.28 1408.44 Q2513.13 1409.78 2509.82 1410.48 Q2506.51 1411.18 2503.11 1411.18 Q2494.58 1411.18 2489.58 1406.22 Q2484.61 1401.25 2484.61 1392.78 Q2484.61 1384.03 2489.32 1378.91 Q2494.07 1373.75 2502.09 1373.75 Q2509.28 1373.75 2513.45 1378.4 Q2517.65 1383.01 2517.65 1390.97 M2511.79 1389.25 Q2511.73 1384.45 2509.09 1381.58 Q2506.48 1378.72 2502.15 1378.72 Q2497.25 1378.72 2494.29 1381.49 Q2491.36 1384.25 2490.92 1389.28 L2511.79 1389.25 Z" fill="#000000" fill-rule="nonzero" fill-opacity="1" /><path clip-path="url(#clip840)" d="M2556.9 1388.74 L2556.9 1410.26 L2551.04 1410.26 L2551.04 1388.93 Q2551.04 1383.87 2549.07 1381.36 Q2547.09 1378.84 2543.15 1378.84 Q2538.4 1378.84 2535.67 1381.87 Q2532.93 1384.89 2532.93 1390.11 L2532.93 1410.26 L2527.04 1410.26 L2527.04 1374.61 L2532.93 1374.61 L2532.93 1380.15 Q2535.03 1376.93 2537.86 1375.34 Q2540.73 1373.75 2544.45 1373.75 Q2550.59 1373.75 2553.74 1377.57 Q2556.9 1381.36 2556.9 1388.74 Z" fill="#000000" fill-rule="nonzero" fill-opacity="1" /><path clip-path="url(#clip840)" d="M2591.3 1375.66 L2591.3 1381.2 Q2588.82 1379.93 2586.15 1379.29 Q2583.47 1378.65 2580.61 1378.65 Q2576.25 1378.65 2574.05 1379.99 Q2571.89 1381.33 2571.89 1384 Q2571.89 1386.04 2573.45 1387.21 Q2575.01 1388.36 2579.72 1389.41 L2581.72 1389.86 Q2587.96 1391.19 2590.57 1393.64 Q2593.21 1396.06 2593.21 1400.42 Q2593.21 1405.39 2589.27 1408.29 Q2585.35 1411.18 2578.48 1411.18 Q2575.61 1411.18 2572.49 1410.61 Q2569.4 1410.07 2565.97 1408.95 L2565.97 1402.91 Q2569.21 1404.59 2572.36 1405.45 Q2575.52 1406.28 2578.6 1406.28 Q2582.74 1406.28 2584.97 1404.88 Q2587.2 1403.45 2587.2 1400.87 Q2587.2 1398.48 2585.57 1397.21 Q2583.98 1395.94 2578.54 1394.76 L2576.5 1394.28 Q2571.06 1393.14 2568.64 1390.78 Q2566.22 1388.39 2566.22 1384.25 Q2566.22 1379.23 2569.79 1376.49 Q2573.35 1373.75 2579.91 1373.75 Q2583.15 1373.75 2586.02 1374.23 Q2588.88 1374.71 2591.3 1375.66 Z" fill="#000000" fill-rule="nonzero" fill-opacity="1" /><path clip-path="url(#clip840)" d="M2602.54 1374.61 L2608.39 1374.61 L2608.39 1410.26 L2602.54 1410.26 L2602.54 1374.61 M2602.54 1360.73 L2608.39 1360.73 L2608.39 1368.15 L2602.54 1368.15 L2602.54 1360.73 Z" fill="#000000" fill-rule="nonzero" fill-opacity="1" /><path clip-path="url(#clip840)" d="M2626.44 1364.49 L2626.44 1374.61 L2638.5 1374.61 L2638.5 1379.16 L2626.44 1379.16 L2626.44 1398.51 Q2626.44 1402.87 2627.62 1404.12 Q2628.83 1405.36 2632.49 1405.36 L2638.5 1405.36 L2638.5 1410.26 L2632.49 1410.26 Q2625.71 1410.26 2623.13 1407.74 Q2620.55 1405.2 2620.55 1398.51 L2620.55 1379.16 L2616.26 1379.16 L2616.26 1374.61 L2620.55 1374.61 L2620.55 1364.49 L2626.44 1364.49 Z" fill="#000000" fill-rule="nonzero" fill-opacity="1" /><path clip-path="url(#clip840)" d="M2661.04 1413.57 Q2658.56 1419.93 2656.2 1421.88 Q2653.85 1423.82 2649.9 1423.82 L2645.22 1423.82 L2645.22 1418.92 L2648.66 1418.92 Q2651.08 1418.92 2652.41 1417.77 Q2653.75 1416.62 2655.37 1412.36 L2656.42 1409.69 L2642.01 1374.61 L2648.21 1374.61 L2659.35 1402.49 L2670.49 1374.61 L2676.7 1374.61 L2661.04 1413.57 Z" fill="#000000" fill-rule="nonzero" fill-opacity="1" /><path clip-path="url(#clip840)" d="M2705.76 1362.74 L2712.19 1362.74 L2712.19 1404.85 L2735.33 1404.85 L2735.33 1410.26 L2705.76 1410.26 L2705.76 1362.74 Z" fill="#000000" fill-rule="nonzero" fill-opacity="1" /><polyline clip-path="url(#clip840)" style="stroke:#000000; stroke-linecap:round; stroke-linejoin:round; stroke-width:4; stroke-opacity:1; fill:none" points="1859.09,1253.39 1859.09,102.682 "/>
<polyline clip-path="url(#clip840)" style="stroke:#000000; stroke-linecap:round; stroke-linejoin:round; stroke-width:4; stroke-opacity:1; fill:none" points="1859.09,1170.23 1877.99,1170.23 "/>
<polyline clip-path="url(#clip840)" style="stroke:#000000; stroke-linecap:round; stroke-linejoin:round; stroke-width:4; stroke-opacity:1; fill:none" points="1859.09,995.311 1877.99,995.311 "/>
<polyline clip-path="url(#clip840)" style="stroke:#000000; stroke-linecap:round; stroke-linejoin:round; stroke-width:4; stroke-opacity:1; fill:none" points="1859.09,820.388 1877.99,820.388 "/>
<polyline clip-path="url(#clip840)" style="stroke:#000000; stroke-linecap:round; stroke-linejoin:round; stroke-width:4; stroke-opacity:1; fill:none" points="1859.09,645.466 1877.99,645.466 "/>
<polyline clip-path="url(#clip840)" style="stroke:#000000; stroke-linecap:round; stroke-linejoin:round; stroke-width:4; stroke-opacity:1; fill:none" points="1859.09,470.543 1877.99,470.543 "/>
<polyline clip-path="url(#clip840)" style="stroke:#000000; stroke-linecap:round; stroke-linejoin:round; stroke-width:4; stroke-opacity:1; fill:none" points="1859.09,295.62 1877.99,295.62 "/>
<polyline clip-path="url(#clip840)" style="stroke:#000000; stroke-linecap:round; stroke-linejoin:round; stroke-width:4; stroke-opacity:1; fill:none" points="1859.09,120.698 1877.99,120.698 "/>
<path clip-path="url(#clip840)" d="M1689.05 1170.68 L1718.73 1170.68 L1718.73 1174.62 L1689.05 1174.62 L1689.05 1170.68 Z" fill="#000000" fill-rule="nonzero" fill-opacity="1" /><path clip-path="url(#clip840)" d="M1732.85 1183.58 L1749.17 1183.58 L1749.17 1187.51 L1727.22 1187.51 L1727.22 1183.58 Q1729.89 1180.82 1734.47 1176.19 Q1739.08 1171.54 1740.26 1170.2 Q1742.5 1167.68 1743.38 1165.94 Q1744.28 1164.18 1744.28 1162.49 Q1744.28 1159.74 1742.34 1158 Q1740.42 1156.26 1737.32 1156.26 Q1735.12 1156.26 1732.66 1157.03 Q1730.23 1157.79 1727.46 1159.34 L1727.46 1154.62 Q1730.28 1153.49 1732.73 1152.91 Q1735.19 1152.33 1737.22 1152.33 Q1742.59 1152.33 1745.79 1155.01 Q1748.98 1157.7 1748.98 1162.19 Q1748.98 1164.32 1748.17 1166.24 Q1747.39 1168.14 1745.28 1170.73 Q1744.7 1171.4 1741.6 1174.62 Q1738.5 1177.81 1732.85 1183.58 Z" fill="#000000" fill-rule="nonzero" fill-opacity="1" /><path clip-path="url(#clip840)" d="M1768.98 1156.03 Q1765.37 1156.03 1763.54 1159.6 Q1761.74 1163.14 1761.74 1170.27 Q1761.74 1177.37 1763.54 1180.94 Q1765.37 1184.48 1768.98 1184.48 Q1772.62 1184.48 1774.42 1180.94 Q1776.25 1177.37 1776.25 1170.27 Q1776.25 1163.14 1774.42 1159.6 Q1772.62 1156.03 1768.98 1156.03 M1768.98 1152.33 Q1774.79 1152.33 1777.85 1156.93 Q1780.93 1161.52 1780.93 1170.27 Q1780.93 1179 1777.85 1183.6 Q1774.79 1188.18 1768.98 1188.18 Q1763.17 1188.18 1760.09 1183.6 Q1757.04 1179 1757.04 1170.27 Q1757.04 1161.52 1760.09 1156.93 Q1763.17 1152.33 1768.98 1152.33 Z" fill="#000000" fill-rule="nonzero" fill-opacity="1" /><path clip-path="url(#clip840)" d="M1799.14 1156.03 Q1795.53 1156.03 1793.7 1159.6 Q1791.9 1163.14 1791.9 1170.27 Q1791.9 1177.37 1793.7 1180.94 Q1795.53 1184.48 1799.14 1184.48 Q1802.78 1184.48 1804.58 1180.94 Q1806.41 1177.37 1806.41 1170.27 Q1806.41 1163.14 1804.58 1159.6 Q1802.78 1156.03 1799.14 1156.03 M1799.14 1152.33 Q1804.95 1152.33 1808.01 1156.93 Q1811.09 1161.52 1811.09 1170.27 Q1811.09 1179 1808.01 1183.6 Q1804.95 1188.18 1799.14 1188.18 Q1793.33 1188.18 1790.26 1183.6 Q1787.2 1179 1787.2 1170.27 Q1787.2 1161.52 1790.26 1156.93 Q1793.33 1152.33 1799.14 1152.33 Z" fill="#000000" fill-rule="nonzero" fill-opacity="1" /><path clip-path="url(#clip840)" d="M1689.05 995.762 L1718.73 995.762 L1718.73 999.697 L1689.05 999.697 L1689.05 995.762 Z" fill="#000000" fill-rule="nonzero" fill-opacity="1" /><path clip-path="url(#clip840)" d="M1729.63 1008.66 L1737.27 1008.66 L1737.27 982.29 L1728.96 983.957 L1728.96 979.697 L1737.22 978.031 L1741.9 978.031 L1741.9 1008.66 L1749.54 1008.66 L1749.54 1012.59 L1729.63 1012.59 L1729.63 1008.66 Z" fill="#000000" fill-rule="nonzero" fill-opacity="1" /><path clip-path="url(#clip840)" d="M1768.98 981.11 Q1765.37 981.11 1763.54 984.674 Q1761.74 988.216 1761.74 995.346 Q1761.74 1002.45 1763.54 1006.02 Q1765.37 1009.56 1768.98 1009.56 Q1772.62 1009.56 1774.42 1006.02 Q1776.25 1002.45 1776.25 995.346 Q1776.25 988.216 1774.42 984.674 Q1772.62 981.11 1768.98 981.11 M1768.98 977.406 Q1774.79 977.406 1777.85 982.012 Q1780.93 986.596 1780.93 995.346 Q1780.93 1004.07 1777.85 1008.68 Q1774.79 1013.26 1768.98 1013.26 Q1763.17 1013.26 1760.09 1008.68 Q1757.04 1004.07 1757.04 995.346 Q1757.04 986.596 1760.09 982.012 Q1763.17 977.406 1768.98 977.406 Z" fill="#000000" fill-rule="nonzero" fill-opacity="1" /><path clip-path="url(#clip840)" d="M1799.14 981.11 Q1795.53 981.11 1793.7 984.674 Q1791.9 988.216 1791.9 995.346 Q1791.9 1002.45 1793.7 1006.02 Q1795.53 1009.56 1799.14 1009.56 Q1802.78 1009.56 1804.58 1006.02 Q1806.41 1002.45 1806.41 995.346 Q1806.41 988.216 1804.58 984.674 Q1802.78 981.11 1799.14 981.11 M1799.14 977.406 Q1804.95 977.406 1808.01 982.012 Q1811.09 986.596 1811.09 995.346 Q1811.09 1004.07 1808.01 1008.68 Q1804.95 1013.26 1799.14 1013.26 Q1793.33 1013.26 1790.26 1008.68 Q1787.2 1004.07 1787.2 995.346 Q1787.2 986.596 1790.26 982.012 Q1793.33 977.406 1799.14 977.406 Z" fill="#000000" fill-rule="nonzero" fill-opacity="1" /><path clip-path="url(#clip840)" d="M1799.14 806.187 Q1795.53 806.187 1793.7 809.752 Q1791.9 813.293 1791.9 820.423 Q1791.9 827.529 1793.7 831.094 Q1795.53 834.636 1799.14 834.636 Q1802.78 834.636 1804.58 831.094 Q1806.41 827.529 1806.41 820.423 Q1806.41 813.293 1804.58 809.752 Q1802.78 806.187 1799.14 806.187 M1799.14 802.483 Q1804.95 802.483 1808.01 807.09 Q1811.09 811.673 1811.09 820.423 Q1811.09 829.15 1808.01 833.756 Q1804.95 838.339 1799.14 838.339 Q1793.33 838.339 1790.26 833.756 Q1787.2 829.15 1787.2 820.423 Q1787.2 811.673 1790.26 807.09 Q1793.33 802.483 1799.14 802.483 Z" fill="#000000" fill-rule="nonzero" fill-opacity="1" /><path clip-path="url(#clip840)" d="M1729.63 658.81 L1737.27 658.81 L1737.27 632.445 L1728.96 634.111 L1728.96 629.852 L1737.22 628.186 L1741.9 628.186 L1741.9 658.81 L1749.54 658.81 L1749.54 662.746 L1729.63 662.746 L1729.63 658.81 Z" fill="#000000" fill-rule="nonzero" fill-opacity="1" /><path clip-path="url(#clip840)" d="M1768.98 631.264 Q1765.37 631.264 1763.54 634.829 Q1761.74 638.371 1761.74 645.5 Q1761.74 652.607 1763.54 656.172 Q1765.37 659.713 1768.98 659.713 Q1772.62 659.713 1774.42 656.172 Q1776.25 652.607 1776.25 645.5 Q1776.25 638.371 1774.42 634.829 Q1772.62 631.264 1768.98 631.264 M1768.98 627.561 Q1774.79 627.561 1777.85 632.167 Q1780.93 636.75 1780.93 645.5 Q1780.93 654.227 1777.85 658.834 Q1774.79 663.417 1768.98 663.417 Q1763.17 663.417 1760.09 658.834 Q1757.04 654.227 1757.04 645.5 Q1757.04 636.75 1760.09 632.167 Q1763.17 627.561 1768.98 627.561 Z" fill="#000000" fill-rule="nonzero" fill-opacity="1" /><path clip-path="url(#clip840)" d="M1799.14 631.264 Q1795.53 631.264 1793.7 634.829 Q1791.9 638.371 1791.9 645.5 Q1791.9 652.607 1793.7 656.172 Q1795.53 659.713 1799.14 659.713 Q1802.78 659.713 1804.58 656.172 Q1806.41 652.607 1806.41 645.5 Q1806.41 638.371 1804.58 634.829 Q1802.78 631.264 1799.14 631.264 M1799.14 627.561 Q1804.95 627.561 1808.01 632.167 Q1811.09 636.75 1811.09 645.5 Q1811.09 654.227 1808.01 658.834 Q1804.95 663.417 1799.14 663.417 Q1793.33 663.417 1790.26 658.834 Q1787.2 654.227 1787.2 645.5 Q1787.2 636.75 1790.26 632.167 Q1793.33 627.561 1799.14 627.561 Z" fill="#000000" fill-rule="nonzero" fill-opacity="1" /><path clip-path="url(#clip840)" d="M1732.85 483.888 L1749.17 483.888 L1749.17 487.823 L1727.22 487.823 L1727.22 483.888 Q1729.89 481.133 1734.47 476.504 Q1739.08 471.851 1740.26 470.508 Q1742.5 467.985 1743.38 466.249 Q1744.28 464.49 1744.28 462.8 Q1744.28 460.045 1742.34 458.309 Q1740.42 456.573 1737.32 456.573 Q1735.12 456.573 1732.66 457.337 Q1730.23 458.101 1727.46 459.652 L1727.46 454.93 Q1730.28 453.795 1732.73 453.217 Q1735.19 452.638 1737.22 452.638 Q1742.59 452.638 1745.79 455.323 Q1748.98 458.008 1748.98 462.499 Q1748.98 464.629 1748.17 466.55 Q1747.39 468.448 1745.28 471.041 Q1744.7 471.712 1741.6 474.929 Q1738.5 478.124 1732.85 483.888 Z" fill="#000000" fill-rule="nonzero" fill-opacity="1" /><path clip-path="url(#clip840)" d="M1768.98 456.342 Q1765.37 456.342 1763.54 459.906 Q1761.74 463.448 1761.74 470.578 Q1761.74 477.684 1763.54 481.249 Q1765.37 484.791 1768.98 484.791 Q1772.62 484.791 1774.42 481.249 Q1776.25 477.684 1776.25 470.578 Q1776.25 463.448 1774.42 459.906 Q1772.62 456.342 1768.98 456.342 M1768.98 452.638 Q1774.79 452.638 1777.85 457.244 Q1780.93 461.828 1780.93 470.578 Q1780.93 479.304 1777.85 483.911 Q1774.79 488.494 1768.98 488.494 Q1763.17 488.494 1760.09 483.911 Q1757.04 479.304 1757.04 470.578 Q1757.04 461.828 1760.09 457.244 Q1763.17 452.638 1768.98 452.638 Z" fill="#000000" fill-rule="nonzero" fill-opacity="1" /><path clip-path="url(#clip840)" d="M1799.14 456.342 Q1795.53 456.342 1793.7 459.906 Q1791.9 463.448 1791.9 470.578 Q1791.9 477.684 1793.7 481.249 Q1795.53 484.791 1799.14 484.791 Q1802.78 484.791 1804.58 481.249 Q1806.41 477.684 1806.41 470.578 Q1806.41 463.448 1804.58 459.906 Q1802.78 456.342 1799.14 456.342 M1799.14 452.638 Q1804.95 452.638 1808.01 457.244 Q1811.09 461.828 1811.09 470.578 Q1811.09 479.304 1808.01 483.911 Q1804.95 488.494 1799.14 488.494 Q1793.33 488.494 1790.26 483.911 Q1787.2 479.304 1787.2 470.578 Q1787.2 461.828 1790.26 457.244 Q1793.33 452.638 1799.14 452.638 Z" fill="#000000" fill-rule="nonzero" fill-opacity="1" /><path clip-path="url(#clip840)" d="M1742.99 294.266 Q1746.34 294.984 1748.22 297.252 Q1750.12 299.521 1750.12 302.854 Q1750.12 307.97 1746.6 310.771 Q1743.08 313.572 1736.6 313.572 Q1734.42 313.572 1732.11 313.132 Q1729.82 312.715 1727.36 311.859 L1727.36 307.345 Q1729.31 308.479 1731.62 309.058 Q1733.94 309.636 1736.46 309.636 Q1740.86 309.636 1743.15 307.9 Q1745.46 306.164 1745.46 302.854 Q1745.46 299.798 1743.31 298.086 Q1741.18 296.349 1737.36 296.349 L1733.33 296.349 L1733.33 292.507 L1737.55 292.507 Q1741 292.507 1742.83 291.141 Q1744.65 289.752 1744.65 287.16 Q1744.65 284.498 1742.76 283.086 Q1740.88 281.65 1737.36 281.65 Q1735.44 281.65 1733.24 282.067 Q1731.04 282.484 1728.4 283.363 L1728.4 279.197 Q1731.07 278.456 1733.38 278.086 Q1735.72 277.715 1737.78 277.715 Q1743.1 277.715 1746.2 280.146 Q1749.31 282.553 1749.31 286.674 Q1749.31 289.544 1747.66 291.535 Q1746.02 293.502 1742.99 294.266 Z" fill="#000000" fill-rule="nonzero" fill-opacity="1" /><path clip-path="url(#clip840)" d="M1768.98 281.419 Q1765.37 281.419 1763.54 284.984 Q1761.74 288.525 1761.74 295.655 Q1761.74 302.761 1763.54 306.326 Q1765.37 309.868 1768.98 309.868 Q1772.62 309.868 1774.42 306.326 Q1776.25 302.761 1776.25 295.655 Q1776.25 288.525 1774.42 284.984 Q1772.62 281.419 1768.98 281.419 M1768.98 277.715 Q1774.79 277.715 1777.85 282.322 Q1780.93 286.905 1780.93 295.655 Q1780.93 304.382 1777.85 308.988 Q1774.79 313.572 1768.98 313.572 Q1763.17 313.572 1760.09 308.988 Q1757.04 304.382 1757.04 295.655 Q1757.04 286.905 1760.09 282.322 Q1763.17 277.715 1768.98 277.715 Z" fill="#000000" fill-rule="nonzero" fill-opacity="1" /><path clip-path="url(#clip840)" d="M1799.14 281.419 Q1795.53 281.419 1793.7 284.984 Q1791.9 288.525 1791.9 295.655 Q1791.9 302.761 1793.7 306.326 Q1795.53 309.868 1799.14 309.868 Q1802.78 309.868 1804.58 306.326 Q1806.41 302.761 1806.41 295.655 Q1806.41 288.525 1804.58 284.984 Q1802.78 281.419 1799.14 281.419 M1799.14 277.715 Q1804.95 277.715 1808.01 282.322 Q1811.09 286.905 1811.09 295.655 Q1811.09 304.382 1808.01 308.988 Q1804.95 313.572 1799.14 313.572 Q1793.33 313.572 1790.26 308.988 Q1787.2 304.382 1787.2 295.655 Q1787.2 286.905 1790.26 282.322 Q1793.33 277.715 1799.14 277.715 Z" fill="#000000" fill-rule="nonzero" fill-opacity="1" /><path clip-path="url(#clip840)" d="M1741.67 107.492 L1729.86 125.941 L1741.67 125.941 L1741.67 107.492 M1740.44 103.418 L1746.32 103.418 L1746.32 125.941 L1751.25 125.941 L1751.25 129.83 L1746.32 129.83 L1746.32 137.978 L1741.67 137.978 L1741.67 129.83 L1726.07 129.83 L1726.07 125.316 L1740.44 103.418 Z" fill="#000000" fill-rule="nonzero" fill-opacity="1" /><path clip-path="url(#clip840)" d="M1768.98 106.496 Q1765.37 106.496 1763.54 110.061 Q1761.74 113.603 1761.74 120.732 Q1761.74 127.839 1763.54 131.404 Q1765.37 134.945 1768.98 134.945 Q1772.62 134.945 1774.42 131.404 Q1776.25 127.839 1776.25 120.732 Q1776.25 113.603 1774.42 110.061 Q1772.62 106.496 1768.98 106.496 M1768.98 102.793 Q1774.79 102.793 1777.85 107.399 Q1780.93 111.982 1780.93 120.732 Q1780.93 129.459 1777.85 134.066 Q1774.79 138.649 1768.98 138.649 Q1763.17 138.649 1760.09 134.066 Q1757.04 129.459 1757.04 120.732 Q1757.04 111.982 1760.09 107.399 Q1763.17 102.793 1768.98 102.793 Z" fill="#000000" fill-rule="nonzero" fill-opacity="1" /><path clip-path="url(#clip840)" d="M1799.14 106.496 Q1795.53 106.496 1793.7 110.061 Q1791.9 113.603 1791.9 120.732 Q1791.9 127.839 1793.7 131.404 Q1795.53 134.945 1799.14 134.945 Q1802.78 134.945 1804.58 131.404 Q1806.41 127.839 1806.41 120.732 Q1806.41 113.603 1804.58 110.061 Q1802.78 106.496 1799.14 106.496 M1799.14 102.793 Q1804.95 102.793 1808.01 107.399 Q1811.09 111.982 1811.09 120.732 Q1811.09 129.459 1808.01 134.066 Q1804.95 138.649 1799.14 138.649 Q1793.33 138.649 1790.26 134.066 Q1787.2 129.459 1787.2 120.732 Q1787.2 111.982 1790.26 107.399 Q1793.33 102.793 1799.14 102.793 Z" fill="#000000" fill-rule="nonzero" fill-opacity="1" /><path clip-path="url(#clip840)" d="M1585.51 708.61 Q1583.29 711.856 1583.29 719.463 Q1583.29 727.516 1587.01 727.516 Q1589.94 727.516 1591.47 719.113 Q1592.64 712.493 1596.21 708.769 Q1600.51 704.249 1609.32 704.249 Q1617.76 704.249 1622.72 708.61 Q1627.72 712.97 1627.72 720.609 Q1627.72 728.216 1622.72 732.609 Q1617.76 736.969 1609 736.969 Q1602.51 736.969 1597.26 732.609 Q1595.22 730.922 1594.08 728.534 Q1591.56 733.5 1587.07 733.5 Q1578.42 733.5 1578.42 719.463 Q1578.42 712.429 1580.65 708.61 L1585.51 708.61 M1595.67 724.142 Q1596.59 726.306 1598.91 728.057 Q1602.51 730.794 1609 730.794 Q1615.47 730.794 1619.09 728.089 Q1622.75 725.352 1622.75 720.609 Q1622.75 715.93 1619.06 713.193 Q1615.37 710.456 1609.32 710.456 Q1602.99 710.456 1599.93 713.352 Q1596.65 716.44 1596.3 720.45 Q1596.11 722.487 1595.67 724.142 Z" fill="#000000" fill-rule="nonzero" fill-opacity="1" /><path clip-path="url(#clip840)" d="M1577.33 680.473 Q1584.66 684.738 1591.82 686.807 Q1598.98 688.876 1606.33 688.876 Q1613.68 688.876 1620.91 686.807 Q1628.1 684.707 1635.39 680.473 L1635.39 685.566 Q1627.91 690.34 1620.69 692.727 Q1613.46 695.083 1606.33 695.083 Q1599.23 695.083 1592.04 692.727 Q1584.85 690.372 1577.33 685.566 L1577.33 680.473 Z" fill="#000000" fill-rule="nonzero" fill-opacity="1" /><path clip-path="url(#clip840)" d="M1579.28 668.856 L1579.28 662.427 L1621.39 662.427 L1621.39 639.287 L1626.8 639.287 L1626.8 668.856 L1579.28 668.856 Z" fill="#000000" fill-rule="nonzero" fill-opacity="1" /><path clip-path="url(#clip840)" d="M1577.33 633.717 L1577.33 628.625 Q1584.85 623.85 1592.04 621.495 Q1599.23 619.108 1606.33 619.108 Q1613.46 619.108 1620.69 621.495 Q1627.91 623.85 1635.39 628.625 L1635.39 633.717 Q1628.1 629.484 1620.91 627.415 Q1613.68 625.315 1606.33 625.315 Q1598.98 625.315 1591.82 627.415 Q1584.66 629.484 1577.33 633.717 Z" fill="#000000" fill-rule="nonzero" fill-opacity="1" /><path clip-path="url(#clip840)" d="M1983.64 18.8205 L1983.64 41.5461 L1993.93 41.5461 Q1999.64 41.5461 2002.76 38.5889 Q2005.88 35.6318 2005.88 30.163 Q2005.88 24.7348 2002.76 21.7777 Q1999.64 18.8205 1993.93 18.8205 L1983.64 18.8205 M1975.46 12.096 L1993.93 12.096 Q2004.1 12.096 2009.28 16.714 Q2014.51 21.2916 2014.51 30.163 Q2014.51 39.1155 2009.28 43.6931 Q2004.1 48.2706 1993.93 48.2706 L1983.64 48.2706 L1983.64 72.576 L1975.46 72.576 L1975.46 12.096 Z" fill="#000000" fill-rule="nonzero" fill-opacity="1" /><path clip-path="url(#clip840)" d="M2061.01 48.0275 L2061.01 51.6733 L2026.74 51.6733 Q2027.23 59.3701 2031.36 63.421 Q2035.53 67.4314 2042.94 67.4314 Q2047.24 67.4314 2051.25 66.3781 Q2055.3 65.3249 2059.27 63.2184 L2059.27 70.267 Q2055.26 71.9684 2051.05 72.8596 Q2046.83 73.7508 2042.5 73.7508 Q2031.64 73.7508 2025.28 67.4314 Q2018.96 61.1119 2018.96 50.3365 Q2018.96 39.1965 2024.96 32.6746 Q2030.99 26.1121 2041.2 26.1121 Q2050.36 26.1121 2055.66 32.0264 Q2061.01 37.9003 2061.01 48.0275 M2053.56 45.84 Q2053.48 39.7232 2050.11 36.0774 Q2046.79 32.4315 2041.28 32.4315 Q2035.05 32.4315 2031.28 35.9558 Q2027.55 39.4801 2026.98 45.8805 L2053.56 45.84 Z" fill="#000000" fill-rule="nonzero" fill-opacity="1" /><path clip-path="url(#clip840)" d="M2099.54 34.1734 Q2098.28 33.4443 2096.78 33.1202 Q2095.32 32.7556 2093.54 32.7556 Q2087.22 32.7556 2083.82 36.8875 Q2080.46 40.9789 2080.46 48.6757 L2080.46 72.576 L2072.96 72.576 L2072.96 27.2059 L2080.46 27.2059 L2080.46 34.2544 Q2082.81 30.1225 2086.57 28.1376 Q2090.34 26.1121 2095.73 26.1121 Q2096.5 26.1121 2097.43 26.2337 Q2098.36 26.3147 2099.5 26.5172 L2099.54 34.1734 Z" fill="#000000" fill-rule="nonzero" fill-opacity="1" /><path clip-path="url(#clip840)" d="M2098.28 46.5287 L2120.11 46.5287 L2120.11 53.1722 L2098.28 53.1722 L2098.28 46.5287 Z" fill="#000000" fill-rule="nonzero" fill-opacity="1" /><path clip-path="url(#clip840)" d="M2164.63 28.9478 L2164.63 35.9153 Q2161.47 34.1734 2158.27 33.3227 Q2155.11 32.4315 2151.87 32.4315 Q2144.62 32.4315 2140.61 37.0496 Q2136.6 41.6271 2136.6 49.9314 Q2136.6 58.2358 2140.61 62.8538 Q2144.62 67.4314 2151.87 67.4314 Q2155.11 67.4314 2158.27 66.5807 Q2161.47 65.6895 2164.63 63.9476 L2164.63 70.8341 Q2161.51 72.2924 2158.15 73.0216 Q2154.83 73.7508 2151.06 73.7508 Q2140.81 73.7508 2134.78 67.3098 Q2128.74 60.8689 2128.74 49.9314 Q2128.74 38.832 2134.82 32.472 Q2140.94 26.1121 2151.55 26.1121 Q2154.99 26.1121 2158.27 26.8413 Q2161.56 27.5299 2164.63 28.9478 Z" fill="#000000" fill-rule="nonzero" fill-opacity="1" /><path clip-path="url(#clip840)" d="M2198.22 49.7694 Q2189.18 49.7694 2185.7 51.8354 Q2182.21 53.9013 2182.21 58.8839 Q2182.21 62.8538 2184.81 65.2034 Q2187.44 67.5124 2191.94 67.5124 Q2198.13 67.5124 2201.86 63.1374 Q2205.63 58.7219 2205.63 51.4303 L2205.63 49.7694 L2198.22 49.7694 M2213.08 46.6907 L2213.08 72.576 L2205.63 72.576 L2205.63 65.6895 Q2203.08 69.8214 2199.27 71.8063 Q2195.46 73.7508 2189.95 73.7508 Q2182.98 73.7508 2178.85 69.8619 Q2174.76 65.9325 2174.76 59.3701 Q2174.76 51.7138 2179.87 47.825 Q2185.01 43.9361 2195.18 43.9361 L2205.63 43.9361 L2205.63 43.2069 Q2205.63 38.0623 2202.23 35.2672 Q2198.86 32.4315 2192.75 32.4315 Q2188.86 32.4315 2185.17 33.3632 Q2181.49 34.295 2178.08 36.1584 L2178.08 29.2718 Q2182.17 27.692 2186.02 26.9223 Q2189.87 26.1121 2193.52 26.1121 Q2203.36 26.1121 2208.22 31.2163 Q2213.08 36.3204 2213.08 46.6907 Z" fill="#000000" fill-rule="nonzero" fill-opacity="1" /><path clip-path="url(#clip840)" d="M2235.65 65.7705 L2235.65 89.8329 L2228.15 89.8329 L2228.15 27.2059 L2235.65 27.2059 L2235.65 34.0924 Q2238 30.0415 2241.56 28.0971 Q2245.17 26.1121 2250.15 26.1121 Q2258.41 26.1121 2263.56 32.6746 Q2268.74 39.2371 2268.74 49.9314 Q2268.74 60.6258 2263.56 67.1883 Q2258.41 73.7508 2250.15 73.7508 Q2245.17 73.7508 2241.56 71.8063 Q2238 69.8214 2235.65 65.7705 M2261 49.9314 Q2261 41.7081 2257.6 37.0496 Q2254.24 32.3505 2248.33 32.3505 Q2242.41 32.3505 2239.01 37.0496 Q2235.65 41.7081 2235.65 49.9314 Q2235.65 58.1548 2239.01 62.8538 Q2242.41 67.5124 2248.33 67.5124 Q2254.24 67.5124 2257.6 62.8538 Q2261 58.1548 2261 49.9314 Z" fill="#000000" fill-rule="nonzero" fill-opacity="1" /><path clip-path="url(#clip840)" d="M2281.1 27.2059 L2288.55 27.2059 L2288.55 72.576 L2281.1 72.576 L2281.1 27.2059 M2281.1 9.54393 L2288.55 9.54393 L2288.55 18.9825 L2281.1 18.9825 L2281.1 9.54393 Z" fill="#000000" fill-rule="nonzero" fill-opacity="1" /><path clip-path="url(#clip840)" d="M2311.52 14.324 L2311.52 27.2059 L2326.87 27.2059 L2326.87 32.9987 L2311.52 32.9987 L2311.52 57.6282 Q2311.52 63.1779 2313.02 64.7578 Q2314.56 66.3376 2319.22 66.3376 L2326.87 66.3376 L2326.87 72.576 L2319.22 72.576 Q2310.59 72.576 2307.31 69.3758 Q2304.03 66.1351 2304.03 57.6282 L2304.03 32.9987 L2298.56 32.9987 L2298.56 27.2059 L2304.03 27.2059 L2304.03 14.324 L2311.52 14.324 Z" fill="#000000" fill-rule="nonzero" fill-opacity="1" /><path clip-path="url(#clip840)" d="M2357.29 49.7694 Q2348.26 49.7694 2344.78 51.8354 Q2341.29 53.9013 2341.29 58.8839 Q2341.29 62.8538 2343.89 65.2034 Q2346.52 67.5124 2351.02 67.5124 Q2357.21 67.5124 2360.94 63.1374 Q2364.71 58.7219 2364.71 51.4303 L2364.71 49.7694 L2357.29 49.7694 M2372.16 46.6907 L2372.16 72.576 L2364.71 72.576 L2364.71 65.6895 Q2362.16 69.8214 2358.35 71.8063 Q2354.54 73.7508 2349.03 73.7508 Q2342.06 73.7508 2337.93 69.8619 Q2333.84 65.9325 2333.84 59.3701 Q2333.84 51.7138 2338.94 47.825 Q2344.09 43.9361 2354.26 43.9361 L2364.71 43.9361 L2364.71 43.2069 Q2364.71 38.0623 2361.31 35.2672 Q2357.94 32.4315 2351.83 32.4315 Q2347.94 32.4315 2344.25 33.3632 Q2340.56 34.295 2337.16 36.1584 L2337.16 29.2718 Q2341.25 27.692 2345.1 26.9223 Q2348.95 26.1121 2352.6 26.1121 Q2362.44 26.1121 2367.3 31.2163 Q2372.16 36.3204 2372.16 46.6907 Z" fill="#000000" fill-rule="nonzero" fill-opacity="1" /><path clip-path="url(#clip840)" d="M2413.89 9.54393 L2421.34 9.54393 L2421.34 72.576 L2413.89 72.576 L2413.89 9.54393 Z" fill="#000000" fill-rule="nonzero" fill-opacity="1" /><path clip-path="url(#clip840)" d="M2455.81 76.7889 Q2452.65 84.8907 2449.66 87.3618 Q2446.66 89.8329 2441.63 89.8329 L2435.68 89.8329 L2435.68 83.5945 L2440.05 83.5945 Q2443.13 83.5945 2444.83 82.1361 Q2446.54 80.6778 2448.6 75.2496 L2449.94 71.8468 L2431.59 27.2059 L2439.49 27.2059 L2453.67 62.6918 L2467.84 27.2059 L2475.74 27.2059 L2455.81 76.7889 Z" fill="#000000" fill-rule="nonzero" fill-opacity="1" /><path clip-path="url(#clip840)" d="M2523.75 45.1919 L2523.75 72.576 L2516.29 72.576 L2516.29 45.4349 Q2516.29 38.994 2513.78 35.7938 Q2511.27 32.5936 2506.25 32.5936 Q2500.21 32.5936 2496.73 36.4419 Q2493.24 40.2903 2493.24 46.9338 L2493.24 72.576 L2485.75 72.576 L2485.75 27.2059 L2493.24 27.2059 L2493.24 34.2544 Q2495.92 30.163 2499.52 28.1376 Q2503.17 26.1121 2507.91 26.1121 Q2515.73 26.1121 2519.74 30.9732 Q2523.75 35.7938 2523.75 45.1919 Z" fill="#000000" fill-rule="nonzero" fill-opacity="1" /><path clip-path="url(#clip840)" d="M2576.33 27.2059 L2559.92 49.2833 L2577.18 72.576 L2568.39 72.576 L2555.18 54.752 L2541.98 72.576 L2533.18 72.576 L2550.81 48.8377 L2534.68 27.2059 L2543.47 27.2059 L2555.51 43.369 L2567.54 27.2059 L2576.33 27.2059 Z" fill="#000000" fill-rule="nonzero" fill-opacity="1" /><path clip-path="url(#clip840)" d="M2643.94 34.0924 L2643.94 9.54393 L2651.39 9.54393 L2651.39 72.576 L2643.94 72.576 L2643.94 65.7705 Q2641.59 69.8214 2637.98 71.8063 Q2634.42 73.7508 2629.39 73.7508 Q2621.17 73.7508 2615.99 67.1883 Q2610.84 60.6258 2610.84 49.9314 Q2610.84 39.2371 2615.99 32.6746 Q2621.17 26.1121 2629.39 26.1121 Q2634.42 26.1121 2637.98 28.0971 Q2641.59 30.0415 2643.94 34.0924 M2618.54 49.9314 Q2618.54 58.1548 2621.9 62.8538 Q2625.3 67.5124 2631.22 67.5124 Q2637.13 67.5124 2640.53 62.8538 Q2643.94 58.1548 2643.94 49.9314 Q2643.94 41.7081 2640.53 37.0496 Q2637.13 32.3505 2631.22 32.3505 Q2625.3 32.3505 2621.9 37.0496 Q2618.54 41.7081 2618.54 49.9314 Z" fill="#000000" fill-rule="nonzero" fill-opacity="1" /><path clip-path="url(#clip840)" d="M2705.55 48.0275 L2705.55 51.6733 L2671.28 51.6733 Q2671.77 59.3701 2675.9 63.421 Q2680.07 67.4314 2687.48 67.4314 Q2691.78 67.4314 2695.79 66.3781 Q2699.84 65.3249 2703.81 63.2184 L2703.81 70.267 Q2699.8 71.9684 2695.59 72.8596 Q2691.37 73.7508 2687.04 73.7508 Q2676.18 73.7508 2669.82 67.4314 Q2663.5 61.1119 2663.5 50.3365 Q2663.5 39.1965 2669.5 32.6746 Q2675.53 26.1121 2685.74 26.1121 Q2694.9 26.1121 2700.2 32.0264 Q2705.55 37.9003 2705.55 48.0275 M2698.1 45.84 Q2698.02 39.7232 2694.65 36.0774 Q2691.33 32.4315 2685.82 32.4315 Q2679.58 32.4315 2675.82 35.9558 Q2672.09 39.4801 2671.52 45.8805 L2698.1 45.84 Z" fill="#000000" fill-rule="nonzero" fill-opacity="1" /><path clip-path="url(#clip840)" d="M2738.4 49.7694 Q2729.37 49.7694 2725.89 51.8354 Q2722.4 53.9013 2722.4 58.8839 Q2722.4 62.8538 2725 65.2034 Q2727.63 67.5124 2732.12 67.5124 Q2738.32 67.5124 2742.05 63.1374 Q2745.82 58.7219 2745.82 51.4303 L2745.82 49.7694 L2738.4 49.7694 M2753.27 46.6907 L2753.27 72.576 L2745.82 72.576 L2745.82 65.6895 Q2743.26 69.8214 2739.46 71.8063 Q2735.65 73.7508 2730.14 73.7508 Q2723.17 73.7508 2719.04 69.8619 Q2714.95 65.9325 2714.95 59.3701 Q2714.95 51.7138 2720.05 47.825 Q2725.2 43.9361 2735.37 43.9361 L2745.82 43.9361 L2745.82 43.2069 Q2745.82 38.0623 2742.41 35.2672 Q2739.05 32.4315 2732.94 32.4315 Q2729.05 32.4315 2725.36 33.3632 Q2721.67 34.295 2718.27 36.1584 L2718.27 29.2718 Q2722.36 27.692 2726.21 26.9223 Q2730.06 26.1121 2733.7 26.1121 Q2743.55 26.1121 2748.41 31.2163 Q2753.27 36.3204 2753.27 46.6907 Z" fill="#000000" fill-rule="nonzero" fill-opacity="1" /><path clip-path="url(#clip840)" d="M2776 14.324 L2776 27.2059 L2791.35 27.2059 L2791.35 32.9987 L2776 32.9987 L2776 57.6282 Q2776 63.1779 2777.5 64.7578 Q2779.03 66.3376 2783.69 66.3376 L2791.35 66.3376 L2791.35 72.576 L2783.69 72.576 Q2775.06 72.576 2771.78 69.3758 Q2768.5 66.1351 2768.5 57.6282 L2768.5 32.9987 L2763.03 32.9987 L2763.03 27.2059 L2768.5 27.2059 L2768.5 14.324 L2776 14.324 Z" fill="#000000" fill-rule="nonzero" fill-opacity="1" /><path clip-path="url(#clip840)" d="M2838.87 45.1919 L2838.87 72.576 L2831.41 72.576 L2831.41 45.4349 Q2831.41 38.994 2828.9 35.7938 Q2826.39 32.5936 2821.37 32.5936 Q2815.33 32.5936 2811.85 36.4419 Q2808.36 40.2903 2808.36 46.9338 L2808.36 72.576 L2800.87 72.576 L2800.87 9.54393 L2808.36 9.54393 L2808.36 34.2544 Q2811.04 30.163 2814.64 28.1376 Q2818.29 26.1121 2823.03 26.1121 Q2830.85 26.1121 2834.86 30.9732 Q2838.87 35.7938 2838.87 45.1919 Z" fill="#000000" fill-rule="nonzero" fill-opacity="1" /><path clip-path="url(#clip840)" d="M2906.39 34.1734 Q2905.14 33.4443 2903.64 33.1202 Q2902.18 32.7556 2900.4 32.7556 Q2894.08 32.7556 2890.68 36.8875 Q2887.32 40.9789 2887.32 48.6757 L2887.32 72.576 L2879.82 72.576 L2879.82 27.2059 L2887.32 27.2059 L2887.32 34.2544 Q2889.66 30.1225 2893.43 28.1376 Q2897.2 26.1121 2902.59 26.1121 Q2903.36 26.1121 2904.29 26.2337 Q2905.22 26.3147 2906.35 26.5172 L2906.39 34.1734 Z" fill="#000000" fill-rule="nonzero" fill-opacity="1" /><path clip-path="url(#clip840)" d="M2934.83 49.7694 Q2925.8 49.7694 2922.31 51.8354 Q2918.83 53.9013 2918.83 58.8839 Q2918.83 62.8538 2921.42 65.2034 Q2924.06 67.5124 2928.55 67.5124 Q2934.75 67.5124 2938.48 63.1374 Q2942.25 58.7219 2942.25 51.4303 L2942.25 49.7694 L2934.83 49.7694 M2949.7 46.6907 L2949.7 72.576 L2942.25 72.576 L2942.25 65.6895 Q2939.69 69.8214 2935.89 71.8063 Q2932.08 73.7508 2926.57 73.7508 Q2919.6 73.7508 2915.47 69.8619 Q2911.38 65.9325 2911.38 59.3701 Q2911.38 51.7138 2916.48 47.825 Q2921.63 43.9361 2931.79 43.9361 L2942.25 43.9361 L2942.25 43.2069 Q2942.25 38.0623 2938.84 35.2672 Q2935.48 32.4315 2929.36 32.4315 Q2925.47 32.4315 2921.79 33.3632 Q2918.1 34.295 2914.7 36.1584 L2914.7 29.2718 Q2918.79 27.692 2922.64 26.9223 Q2926.49 26.1121 2930.13 26.1121 Q2939.98 26.1121 2944.84 31.2163 Q2949.7 36.3204 2949.7 46.6907 Z" fill="#000000" fill-rule="nonzero" fill-opacity="1" /><path clip-path="url(#clip840)" d="M2972.42 14.324 L2972.42 27.2059 L2987.78 27.2059 L2987.78 32.9987 L2972.42 32.9987 L2972.42 57.6282 Q2972.42 63.1779 2973.92 64.7578 Q2975.46 66.3376 2980.12 66.3376 L2987.78 66.3376 L2987.78 72.576 L2980.12 72.576 Q2971.49 72.576 2968.21 69.3758 Q2964.93 66.1351 2964.93 57.6282 L2964.93 32.9987 L2959.46 32.9987 L2959.46 27.2059 L2964.93 27.2059 L2964.93 14.324 L2972.42 14.324 Z" fill="#000000" fill-rule="nonzero" fill-opacity="1" /><path clip-path="url(#clip840)" d="M3036.39 48.0275 L3036.39 51.6733 L3002.12 51.6733 Q3002.6 59.3701 3006.74 63.421 Q3010.91 67.4314 3018.32 67.4314 Q3022.62 67.4314 3026.63 66.3781 Q3030.68 65.3249 3034.65 63.2184 L3034.65 70.267 Q3030.64 71.9684 3026.42 72.8596 Q3022.21 73.7508 3017.88 73.7508 Q3007.02 73.7508 3000.66 67.4314 Q2994.34 61.1119 2994.34 50.3365 Q2994.34 39.1965 3000.34 32.6746 Q3006.37 26.1121 3016.58 26.1121 Q3025.73 26.1121 3031.04 32.0264 Q3036.39 37.9003 3036.39 48.0275 M3028.93 45.84 Q3028.85 39.7232 3025.49 36.0774 Q3022.17 32.4315 3016.66 32.4315 Q3010.42 32.4315 3006.65 35.9558 Q3002.93 39.4801 3002.36 45.8805 L3028.93 45.84 Z" fill="#000000" fill-rule="nonzero" fill-opacity="1" /><polyline clip-path="url(#clip841)" style="stroke:#800080; stroke-linecap:round; stroke-linejoin:round; stroke-width:8; stroke-opacity:1; fill:none" points="1895.7,1220.83 1908.03,1209.86 1920.36,1198.9 1932.69,1187.93 1945.01,1176.97 1957.34,1166 1969.67,1155.03 1982,1144.07 1994.32,1133.1 2006.65,1122.14 2018.98,1111.17 2031.31,1100.21 2043.63,1089.24 2055.96,1078.28 2068.29,1067.31 2080.62,1056.35 2092.95,1045.38 2105.27,1034.42 2117.6,1023.45 2129.93,1012.48 2142.26,1001.52 2154.58,990.553 2166.91,979.588 2179.24,968.623 2191.57,957.657 2203.89,946.692 2216.22,935.726 2228.55,924.761 2240.88,913.795 2253.2,902.83 2265.53,891.864 2277.86,880.899 2290.19,869.934 2302.52,858.968 2314.84,848.003 2327.17,837.037 2339.5,826.072 2351.83,815.106 2364.15,804.141 2376.48,793.176 2388.81,782.21 2401.14,771.245 2413.46,760.279 2425.79,749.314 2438.12,738.348 2450.45,727.383 2462.78,716.418 2475.1,705.452 2487.43,694.487 2499.76,683.521 2512.09,672.556 2524.41,661.59 2536.74,650.625 2549.07,639.659 2561.4,628.694 2573.72,617.729 2586.05,606.763 2598.38,595.798 2610.71,584.832 2623.04,573.867 2635.36,562.901 2647.69,551.936 2660.02,540.971 2672.35,530.005 2684.67,519.04 2697,508.074 2709.33,497.109 2721.66,486.143 2733.98,475.178 2746.31,464.213 2758.64,453.247 2770.97,442.282 2783.3,431.316 2795.62,420.351 2807.95,409.385 2820.28,398.42 2832.61,387.454 2844.93,376.489 2857.26,365.524 2869.59,354.558 2881.92,343.593 2894.24,332.627 2906.57,321.662 2918.9,310.696 2931.23,299.731 2943.56,288.766 2955.88,277.8 2968.21,266.835 2980.54,255.869 2992.87,244.904 3005.19,233.938 3017.52,222.973 3029.85,212.008 3042.18,201.042 3054.5,190.077 3066.83,179.111 3079.16,168.146 3091.49,157.18 3103.82,146.215 3116.14,135.249 "/>
</svg>
