<?xml version="1.0" encoding="utf-8"?>
<svg xmlns="http://www.w3.org/2000/svg" xmlns:xlink="http://www.w3.org/1999/xlink" width="700" height="300" viewBox="0 0 2800 1200">
<defs>
  <clipPath id="clip600">
    <rect x="0" y="0" width="2800" height="1200"/>
  </clipPath>
</defs>
<path clip-path="url(#clip600)" d="M0 1200 L2800 1200 L2800 6.66134e-14 L0 6.66134e-14  Z" fill="#ffffff" fill-rule="evenodd" fill-opacity="1"/>
<defs>
  <clipPath id="clip601">
    <rect x="1644" y="101" width="1110" height="956"/>
  </clipPath>
</defs>
<path clip-path="url(#clip600)" d="M244.233 1056.49 L1352.76 1056.49 L1352.76 101.872 L244.233 101.872  Z" fill="#ffffff" fill-rule="evenodd" fill-opacity="1"/>
<defs>
  <clipPath id="clip602">
    <rect x="244" y="101" width="1110" height="956"/>
  </clipPath>
</defs>
<polyline clip-path="url(#clip602)" style="stroke:#000000; stroke-linecap:round; stroke-linejoin:round; stroke-width:2; stroke-opacity:0.1; fill:none" points="379.866,1056.49 379.866,101.872 "/>
<polyline clip-path="url(#clip602)" style="stroke:#000000; stroke-linecap:round; stroke-linejoin:round; stroke-width:2; stroke-opacity:0.1; fill:none" points="519.858,1056.49 519.858,101.872 "/>
<polyline clip-path="url(#clip602)" style="stroke:#000000; stroke-linecap:round; stroke-linejoin:round; stroke-width:2; stroke-opacity:0.1; fill:none" points="659.851,1056.49 659.851,101.872 "/>
<polyline clip-path="url(#clip602)" style="stroke:#000000; stroke-linecap:round; stroke-linejoin:round; stroke-width:2; stroke-opacity:0.1; fill:none" points="799.844,1056.49 799.844,101.872 "/>
<polyline clip-path="url(#clip602)" style="stroke:#000000; stroke-linecap:round; stroke-linejoin:round; stroke-width:2; stroke-opacity:0.1; fill:none" points="939.837,1056.49 939.837,101.872 "/>
<polyline clip-path="url(#clip602)" style="stroke:#000000; stroke-linecap:round; stroke-linejoin:round; stroke-width:2; stroke-opacity:0.1; fill:none" points="1079.83,1056.49 1079.83,101.872 "/>
<polyline clip-path="url(#clip602)" style="stroke:#000000; stroke-linecap:round; stroke-linejoin:round; stroke-width:2; stroke-opacity:0.1; fill:none" points="1219.82,1056.49 1219.82,101.872 "/>
<polyline clip-path="url(#clip602)" style="stroke:#000000; stroke-linecap:round; stroke-linejoin:round; stroke-width:2; stroke-opacity:0.1; fill:none" points="244.233,939.692 1352.76,939.692 "/>
<polyline clip-path="url(#clip602)" style="stroke:#000000; stroke-linecap:round; stroke-linejoin:round; stroke-width:2; stroke-opacity:0.1; fill:none" points="244.233,819.135 1352.76,819.135 "/>
<polyline clip-path="url(#clip602)" style="stroke:#000000; stroke-linecap:round; stroke-linejoin:round; stroke-width:2; stroke-opacity:0.1; fill:none" points="244.233,698.578 1352.76,698.578 "/>
<polyline clip-path="url(#clip602)" style="stroke:#000000; stroke-linecap:round; stroke-linejoin:round; stroke-width:2; stroke-opacity:0.1; fill:none" points="244.233,578.021 1352.76,578.021 "/>
<polyline clip-path="url(#clip602)" style="stroke:#000000; stroke-linecap:round; stroke-linejoin:round; stroke-width:2; stroke-opacity:0.1; fill:none" points="244.233,457.464 1352.76,457.464 "/>
<polyline clip-path="url(#clip602)" style="stroke:#000000; stroke-linecap:round; stroke-linejoin:round; stroke-width:2; stroke-opacity:0.1; fill:none" points="244.233,336.907 1352.76,336.907 "/>
<polyline clip-path="url(#clip602)" style="stroke:#000000; stroke-linecap:round; stroke-linejoin:round; stroke-width:2; stroke-opacity:0.1; fill:none" points="244.233,216.349 1352.76,216.349 "/>
<polyline clip-path="url(#clip600)" style="stroke:#000000; stroke-linecap:round; stroke-linejoin:round; stroke-width:4; stroke-opacity:1; fill:none" points="244.233,1056.49 1352.76,1056.49 "/>
<polyline clip-path="url(#clip600)" style="stroke:#000000; stroke-linecap:round; stroke-linejoin:round; stroke-width:4; stroke-opacity:1; fill:none" points="379.866,1056.49 379.866,1037.6 "/>
<polyline clip-path="url(#clip600)" style="stroke:#000000; stroke-linecap:round; stroke-linejoin:round; stroke-width:4; stroke-opacity:1; fill:none" points="519.858,1056.49 519.858,1037.6 "/>
<polyline clip-path="url(#clip600)" style="stroke:#000000; stroke-linecap:round; stroke-linejoin:round; stroke-width:4; stroke-opacity:1; fill:none" points="659.851,1056.49 659.851,1037.6 "/>
<polyline clip-path="url(#clip600)" style="stroke:#000000; stroke-linecap:round; stroke-linejoin:round; stroke-width:4; stroke-opacity:1; fill:none" points="799.844,1056.49 799.844,1037.6 "/>
<polyline clip-path="url(#clip600)" style="stroke:#000000; stroke-linecap:round; stroke-linejoin:round; stroke-width:4; stroke-opacity:1; fill:none" points="939.837,1056.49 939.837,1037.6 "/>
<polyline clip-path="url(#clip600)" style="stroke:#000000; stroke-linecap:round; stroke-linejoin:round; stroke-width:4; stroke-opacity:1; fill:none" points="1079.83,1056.49 1079.83,1037.6 "/>
<polyline clip-path="url(#clip600)" style="stroke:#000000; stroke-linecap:round; stroke-linejoin:round; stroke-width:4; stroke-opacity:1; fill:none" points="1219.82,1056.49 1219.82,1037.6 "/>
<path clip-path="url(#clip600)" d="M326.891 1105.27 L356.567 1105.27 L356.567 1109.2 L326.891 1109.2 L326.891 1105.27 Z" fill="#000000" fill-rule="nonzero" fill-opacity="1" /><path clip-path="url(#clip600)" d="M367.47 1118.16 L375.109 1118.16 L375.109 1091.79 L366.799 1093.46 L366.799 1089.2 L375.062 1087.53 L379.738 1087.53 L379.738 1118.16 L387.377 1118.16 L387.377 1122.09 L367.47 1122.09 L367.47 1118.16 Z" fill="#000000" fill-rule="nonzero" fill-opacity="1" /><path clip-path="url(#clip600)" d="M396.822 1116.21 L401.706 1116.21 L401.706 1122.09 L396.822 1122.09 L396.822 1116.21 Z" fill="#000000" fill-rule="nonzero" fill-opacity="1" /><path clip-path="url(#clip600)" d="M411.937 1087.53 L430.294 1087.53 L430.294 1091.47 L416.22 1091.47 L416.22 1099.94 Q417.238 1099.59 418.257 1099.43 Q419.275 1099.25 420.294 1099.25 Q426.081 1099.25 429.46 1102.42 Q432.84 1105.59 432.84 1111.01 Q432.84 1116.58 429.368 1119.69 Q425.895 1122.77 419.576 1122.77 Q417.4 1122.77 415.132 1122.4 Q412.886 1122.02 410.479 1121.28 L410.479 1116.58 Q412.562 1117.72 414.784 1118.27 Q417.007 1118.83 419.483 1118.83 Q423.488 1118.83 425.826 1116.72 Q428.164 1114.62 428.164 1111.01 Q428.164 1107.4 425.826 1105.29 Q423.488 1103.18 419.483 1103.18 Q417.608 1103.18 415.733 1103.6 Q413.882 1104.02 411.937 1104.9 L411.937 1087.53 Z" fill="#000000" fill-rule="nonzero" fill-opacity="1" /><path clip-path="url(#clip600)" d="M466.387 1105.27 L496.062 1105.27 L496.062 1109.2 L466.387 1109.2 L466.387 1105.27 Z" fill="#000000" fill-rule="nonzero" fill-opacity="1" /><path clip-path="url(#clip600)" d="M506.965 1118.16 L514.604 1118.16 L514.604 1091.79 L506.294 1093.46 L506.294 1089.2 L514.558 1087.53 L519.233 1087.53 L519.233 1118.16 L526.872 1118.16 L526.872 1122.09 L506.965 1122.09 L506.965 1118.16 Z" fill="#000000" fill-rule="nonzero" fill-opacity="1" /><path clip-path="url(#clip600)" d="M536.317 1116.21 L541.201 1116.21 L541.201 1122.09 L536.317 1122.09 L536.317 1116.21 Z" fill="#000000" fill-rule="nonzero" fill-opacity="1" /><path clip-path="url(#clip600)" d="M561.386 1090.61 Q557.775 1090.61 555.946 1094.18 Q554.141 1097.72 554.141 1104.85 Q554.141 1111.96 555.946 1115.52 Q557.775 1119.06 561.386 1119.06 Q565.02 1119.06 566.826 1115.52 Q568.654 1111.96 568.654 1104.85 Q568.654 1097.72 566.826 1094.18 Q565.02 1090.61 561.386 1090.61 M561.386 1086.91 Q567.196 1086.91 570.252 1091.52 Q573.33 1096.1 573.33 1104.85 Q573.33 1113.58 570.252 1118.18 Q567.196 1122.77 561.386 1122.77 Q555.576 1122.77 552.497 1118.18 Q549.442 1113.58 549.442 1104.85 Q549.442 1096.1 552.497 1091.52 Q555.576 1086.91 561.386 1086.91 Z" fill="#000000" fill-rule="nonzero" fill-opacity="1" /><path clip-path="url(#clip600)" d="M606.877 1105.27 L636.553 1105.27 L636.553 1109.2 L606.877 1109.2 L606.877 1105.27 Z" fill="#000000" fill-rule="nonzero" fill-opacity="1" /><path clip-path="url(#clip600)" d="M656.645 1090.61 Q653.034 1090.61 651.206 1094.18 Q649.4 1097.72 649.4 1104.85 Q649.4 1111.96 651.206 1115.52 Q653.034 1119.06 656.645 1119.06 Q660.28 1119.06 662.085 1115.52 Q663.914 1111.96 663.914 1104.85 Q663.914 1097.72 662.085 1094.18 Q660.28 1090.61 656.645 1090.61 M656.645 1086.91 Q662.455 1086.91 665.511 1091.52 Q668.59 1096.1 668.59 1104.85 Q668.59 1113.58 665.511 1118.18 Q662.455 1122.77 656.645 1122.77 Q650.835 1122.77 647.756 1118.18 Q644.701 1113.58 644.701 1104.85 Q644.701 1096.1 647.756 1091.52 Q650.835 1086.91 656.645 1086.91 Z" fill="#000000" fill-rule="nonzero" fill-opacity="1" /><path clip-path="url(#clip600)" d="M676.807 1116.21 L681.691 1116.21 L681.691 1122.09 L676.807 1122.09 L676.807 1116.21 Z" fill="#000000" fill-rule="nonzero" fill-opacity="1" /><path clip-path="url(#clip600)" d="M691.923 1087.53 L710.279 1087.53 L710.279 1091.47 L696.205 1091.47 L696.205 1099.94 Q697.224 1099.59 698.242 1099.43 Q699.261 1099.25 700.279 1099.25 Q706.066 1099.25 709.446 1102.42 Q712.826 1105.59 712.826 1111.01 Q712.826 1116.58 709.353 1119.69 Q705.881 1122.77 699.562 1122.77 Q697.386 1122.77 695.117 1122.4 Q692.872 1122.02 690.465 1121.28 L690.465 1116.58 Q692.548 1117.72 694.77 1118.27 Q696.992 1118.83 699.469 1118.83 Q703.474 1118.83 705.812 1116.72 Q708.15 1114.62 708.15 1111.01 Q708.15 1107.4 705.812 1105.29 Q703.474 1103.18 699.469 1103.18 Q697.594 1103.18 695.719 1103.6 Q693.867 1104.02 691.923 1104.9 L691.923 1087.53 Z" fill="#000000" fill-rule="nonzero" fill-opacity="1" /><path clip-path="url(#clip600)" d="M777.229 1090.61 Q773.618 1090.61 771.789 1094.18 Q769.983 1097.72 769.983 1104.85 Q769.983 1111.96 771.789 1115.52 Q773.618 1119.06 777.229 1119.06 Q780.863 1119.06 782.668 1115.52 Q784.497 1111.96 784.497 1104.85 Q784.497 1097.72 782.668 1094.18 Q780.863 1090.61 777.229 1090.61 M777.229 1086.91 Q783.039 1086.91 786.094 1091.52 Q789.173 1096.1 789.173 1104.85 Q789.173 1113.58 786.094 1118.18 Q783.039 1122.77 777.229 1122.77 Q771.418 1122.77 768.34 1118.18 Q765.284 1113.58 765.284 1104.85 Q765.284 1096.1 768.34 1091.52 Q771.418 1086.91 777.229 1086.91 Z" fill="#000000" fill-rule="nonzero" fill-opacity="1" /><path clip-path="url(#clip600)" d="M797.391 1116.21 L802.275 1116.21 L802.275 1122.09 L797.391 1122.09 L797.391 1116.21 Z" fill="#000000" fill-rule="nonzero" fill-opacity="1" /><path clip-path="url(#clip600)" d="M822.46 1090.61 Q818.849 1090.61 817.02 1094.18 Q815.215 1097.72 815.215 1104.85 Q815.215 1111.96 817.02 1115.52 Q818.849 1119.06 822.46 1119.06 Q826.094 1119.06 827.9 1115.52 Q829.728 1111.96 829.728 1104.85 Q829.728 1097.72 827.9 1094.18 Q826.094 1090.61 822.46 1090.61 M822.46 1086.91 Q828.27 1086.91 831.326 1091.52 Q834.404 1096.1 834.404 1104.85 Q834.404 1113.58 831.326 1118.18 Q828.27 1122.77 822.46 1122.77 Q816.65 1122.77 813.571 1118.18 Q810.515 1113.58 810.515 1104.85 Q810.515 1096.1 813.571 1091.52 Q816.65 1086.91 822.46 1086.91 Z" fill="#000000" fill-rule="nonzero" fill-opacity="1" /><path clip-path="url(#clip600)" d="M917.719 1090.61 Q914.108 1090.61 912.279 1094.18 Q910.474 1097.72 910.474 1104.85 Q910.474 1111.96 912.279 1115.52 Q914.108 1119.06 917.719 1119.06 Q921.353 1119.06 923.159 1115.52 Q924.988 1111.96 924.988 1104.85 Q924.988 1097.72 923.159 1094.18 Q921.353 1090.61 917.719 1090.61 M917.719 1086.91 Q923.529 1086.91 926.585 1091.52 Q929.664 1096.1 929.664 1104.85 Q929.664 1113.58 926.585 1118.18 Q923.529 1122.77 917.719 1122.77 Q911.909 1122.77 908.83 1118.18 Q905.775 1113.58 905.775 1104.85 Q905.775 1096.1 908.83 1091.52 Q911.909 1086.91 917.719 1086.91 Z" fill="#000000" fill-rule="nonzero" fill-opacity="1" /><path clip-path="url(#clip600)" d="M937.881 1116.21 L942.765 1116.21 L942.765 1122.09 L937.881 1122.09 L937.881 1116.21 Z" fill="#000000" fill-rule="nonzero" fill-opacity="1" /><path clip-path="url(#clip600)" d="M952.997 1087.53 L971.353 1087.53 L971.353 1091.47 L957.279 1091.47 L957.279 1099.94 Q958.298 1099.59 959.316 1099.43 Q960.335 1099.25 961.353 1099.25 Q967.14 1099.25 970.52 1102.42 Q973.899 1105.59 973.899 1111.01 Q973.899 1116.58 970.427 1119.69 Q966.955 1122.77 960.636 1122.77 Q958.46 1122.77 956.191 1122.4 Q953.946 1122.02 951.538 1121.28 L951.538 1116.58 Q953.622 1117.72 955.844 1118.27 Q958.066 1118.83 960.543 1118.83 Q964.548 1118.83 966.886 1116.72 Q969.224 1114.62 969.224 1111.01 Q969.224 1107.4 966.886 1105.29 Q964.548 1103.18 960.543 1103.18 Q958.668 1103.18 956.793 1103.6 Q954.941 1104.02 952.997 1104.9 L952.997 1087.53 Z" fill="#000000" fill-rule="nonzero" fill-opacity="1" /><path clip-path="url(#clip600)" d="M1046.98 1118.16 L1054.62 1118.16 L1054.62 1091.79 L1046.31 1093.46 L1046.31 1089.2 L1054.58 1087.53 L1059.25 1087.53 L1059.25 1118.16 L1066.89 1118.16 L1066.89 1122.09 L1046.98 1122.09 L1046.98 1118.16 Z" fill="#000000" fill-rule="nonzero" fill-opacity="1" /><path clip-path="url(#clip600)" d="M1076.33 1116.21 L1081.22 1116.21 L1081.22 1122.09 L1076.33 1122.09 L1076.33 1116.21 Z" fill="#000000" fill-rule="nonzero" fill-opacity="1" /><path clip-path="url(#clip600)" d="M1101.4 1090.61 Q1097.79 1090.61 1095.96 1094.18 Q1094.16 1097.72 1094.16 1104.85 Q1094.16 1111.96 1095.96 1115.52 Q1097.79 1119.06 1101.4 1119.06 Q1105.04 1119.06 1106.84 1115.52 Q1108.67 1111.96 1108.67 1104.85 Q1108.67 1097.72 1106.84 1094.18 Q1105.04 1090.61 1101.4 1090.61 M1101.4 1086.91 Q1107.21 1086.91 1110.27 1091.52 Q1113.35 1096.1 1113.35 1104.85 Q1113.35 1113.58 1110.27 1118.18 Q1107.21 1122.77 1101.4 1122.77 Q1095.59 1122.77 1092.52 1118.18 Q1089.46 1113.58 1089.46 1104.85 Q1089.46 1096.1 1092.52 1091.52 Q1095.59 1086.91 1101.4 1086.91 Z" fill="#000000" fill-rule="nonzero" fill-opacity="1" /><path clip-path="url(#clip600)" d="M1187.47 1118.16 L1195.11 1118.16 L1195.11 1091.79 L1186.8 1093.46 L1186.8 1089.2 L1195.07 1087.53 L1199.74 1087.53 L1199.74 1118.16 L1207.38 1118.16 L1207.38 1122.09 L1187.47 1122.09 L1187.47 1118.16 Z" fill="#000000" fill-rule="nonzero" fill-opacity="1" /><path clip-path="url(#clip600)" d="M1216.83 1116.21 L1221.71 1116.21 L1221.71 1122.09 L1216.83 1122.09 L1216.83 1116.21 Z" fill="#000000" fill-rule="nonzero" fill-opacity="1" /><path clip-path="url(#clip600)" d="M1231.94 1087.53 L1250.3 1087.53 L1250.3 1091.47 L1236.22 1091.47 L1236.22 1099.94 Q1237.24 1099.59 1238.26 1099.43 Q1239.28 1099.25 1240.3 1099.25 Q1246.08 1099.25 1249.46 1102.42 Q1252.84 1105.59 1252.84 1111.01 Q1252.84 1116.58 1249.37 1119.69 Q1245.9 1122.77 1239.58 1122.77 Q1237.4 1122.77 1235.14 1122.4 Q1232.89 1122.02 1230.48 1121.28 L1230.48 1116.58 Q1232.57 1117.72 1234.79 1118.27 Q1237.01 1118.83 1239.49 1118.83 Q1243.49 1118.83 1245.83 1116.72 Q1248.17 1114.62 1248.17 1111.01 Q1248.17 1107.4 1245.83 1105.29 Q1243.49 1103.18 1239.49 1103.18 Q1237.61 1103.18 1235.74 1103.6 Q1233.89 1104.02 1231.94 1104.9 L1231.94 1087.53 Z" fill="#000000" fill-rule="nonzero" fill-opacity="1" /><path clip-path="url(#clip600)" d="M457.658 1159.84 L497.858 1159.84 L497.858 1165.25 L480.989 1165.25 L480.989 1207.36 L474.528 1207.36 L474.528 1165.25 L457.658 1165.25 L457.658 1159.84 Z" fill="#000000" fill-rule="nonzero" fill-opacity="1" /><path clip-path="url(#clip600)" d="M533.442 1185.84 L533.442 1207.36 L527.586 1207.36 L527.586 1186.03 Q527.586 1180.97 525.612 1178.46 Q523.639 1175.94 519.692 1175.94 Q514.95 1175.94 512.213 1178.97 Q509.475 1181.99 509.475 1187.21 L509.475 1207.36 L503.587 1207.36 L503.587 1157.83 L509.475 1157.83 L509.475 1177.25 Q511.576 1174.03 514.409 1172.44 Q517.273 1170.85 520.997 1170.85 Q527.14 1170.85 530.291 1174.67 Q533.442 1178.46 533.442 1185.84 Z" fill="#000000" fill-rule="nonzero" fill-opacity="1" /><path clip-path="url(#clip600)" d="M575.615 1188.07 L575.615 1190.93 L548.688 1190.93 Q549.07 1196.98 552.316 1200.16 Q555.595 1203.32 561.419 1203.32 Q564.793 1203.32 567.944 1202.49 Q571.127 1201.66 574.246 1200.01 L574.246 1205.54 Q571.095 1206.88 567.785 1207.58 Q564.475 1208.28 561.069 1208.28 Q552.539 1208.28 547.542 1203.32 Q542.577 1198.35 542.577 1189.88 Q542.577 1181.13 547.288 1176.01 Q552.03 1170.85 560.051 1170.85 Q567.244 1170.85 571.414 1175.5 Q575.615 1180.11 575.615 1188.07 M569.758 1186.35 Q569.695 1181.55 567.053 1178.68 Q564.443 1175.82 560.114 1175.82 Q555.213 1175.82 552.253 1178.59 Q549.325 1181.35 548.879 1186.38 L569.758 1186.35 Z" fill="#000000" fill-rule="nonzero" fill-opacity="1" /><path clip-path="url(#clip600)" d="M599.041 1175.82 Q594.33 1175.82 591.593 1179.51 Q588.856 1183.17 588.856 1189.57 Q588.856 1195.96 591.561 1199.66 Q594.298 1203.32 599.041 1203.32 Q603.72 1203.32 606.457 1199.62 Q609.194 1195.93 609.194 1189.57 Q609.194 1183.23 606.457 1179.54 Q603.72 1175.82 599.041 1175.82 M599.041 1170.85 Q606.68 1170.85 611.04 1175.82 Q615.401 1180.78 615.401 1189.57 Q615.401 1198.32 611.04 1203.32 Q606.68 1208.28 599.041 1208.28 Q591.37 1208.28 587.01 1203.32 Q582.681 1198.32 582.681 1189.57 Q582.681 1180.78 587.01 1175.82 Q591.37 1170.85 599.041 1170.85 Z" fill="#000000" fill-rule="nonzero" fill-opacity="1" /><path clip-path="url(#clip600)" d="M645.765 1177.18 Q644.778 1176.61 643.601 1176.36 Q642.455 1176.07 641.054 1176.07 Q636.089 1176.07 633.416 1179.32 Q630.774 1182.53 630.774 1188.58 L630.774 1207.36 L624.886 1207.36 L624.886 1171.71 L630.774 1171.71 L630.774 1177.25 Q632.62 1174 635.58 1172.44 Q638.54 1170.85 642.773 1170.85 Q643.378 1170.85 644.11 1170.95 Q644.842 1171.01 645.733 1171.17 L645.765 1177.18 Z" fill="#000000" fill-rule="nonzero" fill-opacity="1" /><path clip-path="url(#clip600)" d="M680.967 1188.07 L680.967 1190.93 L654.04 1190.93 Q654.422 1196.98 657.669 1200.16 Q660.947 1203.32 666.772 1203.32 Q670.146 1203.32 673.297 1202.49 Q676.48 1201.66 679.599 1200.01 L679.599 1205.54 Q676.448 1206.88 673.138 1207.58 Q669.827 1208.28 666.422 1208.28 Q657.892 1208.28 652.895 1203.32 Q647.929 1198.35 647.929 1189.88 Q647.929 1181.13 652.64 1176.01 Q657.382 1170.85 665.403 1170.85 Q672.596 1170.85 676.766 1175.5 Q680.967 1180.11 680.967 1188.07 M675.111 1186.35 Q675.047 1181.55 672.406 1178.68 Q669.796 1175.82 665.467 1175.82 Q660.565 1175.82 657.605 1178.59 Q654.677 1181.35 654.231 1186.38 L675.111 1186.35 Z" fill="#000000" fill-rule="nonzero" fill-opacity="1" /><path clip-path="url(#clip600)" d="M696.372 1161.59 L696.372 1171.71 L708.435 1171.71 L708.435 1176.26 L696.372 1176.26 L696.372 1195.61 Q696.372 1199.97 697.55 1201.22 Q698.76 1202.46 702.42 1202.46 L708.435 1202.46 L708.435 1207.36 L702.42 1207.36 Q695.64 1207.36 693.062 1204.84 Q690.484 1202.3 690.484 1195.61 L690.484 1176.26 L686.187 1176.26 L686.187 1171.71 L690.484 1171.71 L690.484 1161.59 L696.372 1161.59 Z" fill="#000000" fill-rule="nonzero" fill-opacity="1" /><path clip-path="url(#clip600)" d="M716.138 1171.71 L721.994 1171.71 L721.994 1207.36 L716.138 1207.36 L716.138 1171.71 M716.138 1157.83 L721.994 1157.83 L721.994 1165.25 L716.138 1165.25 L716.138 1157.83 Z" fill="#000000" fill-rule="nonzero" fill-opacity="1" /><path clip-path="url(#clip600)" d="M759.902 1173.08 L759.902 1178.55 Q757.42 1177.18 754.905 1176.52 Q752.422 1175.82 749.876 1175.82 Q744.179 1175.82 741.028 1179.44 Q737.877 1183.04 737.877 1189.57 Q737.877 1196.09 741.028 1199.72 Q744.179 1203.32 749.876 1203.32 Q752.422 1203.32 754.905 1202.65 Q757.42 1201.95 759.902 1200.58 L759.902 1205.99 Q757.451 1207.14 754.81 1207.71 Q752.2 1208.28 749.24 1208.28 Q741.187 1208.28 736.445 1203.22 Q731.702 1198.16 731.702 1189.57 Q731.702 1180.84 736.476 1175.85 Q741.282 1170.85 749.622 1170.85 Q752.327 1170.85 754.905 1171.42 Q757.483 1171.96 759.902 1173.08 Z" fill="#000000" fill-rule="nonzero" fill-opacity="1" /><path clip-path="url(#clip600)" d="M786.288 1189.44 Q779.19 1189.44 776.453 1191.06 Q773.716 1192.69 773.716 1196.6 Q773.716 1199.72 775.753 1201.57 Q777.822 1203.38 781.355 1203.38 Q786.224 1203.38 789.153 1199.94 Q792.113 1196.47 792.113 1190.74 L792.113 1189.44 L786.288 1189.44 M797.969 1187.02 L797.969 1207.36 L792.113 1207.36 L792.113 1201.95 Q790.107 1205.19 787.116 1206.75 Q784.124 1208.28 779.795 1208.28 Q774.32 1208.28 771.074 1205.23 Q767.859 1202.14 767.859 1196.98 Q767.859 1190.97 771.87 1187.91 Q775.912 1184.86 783.901 1184.86 L792.113 1184.86 L792.113 1184.28 Q792.113 1180.24 789.439 1178.04 Q786.797 1175.82 781.991 1175.82 Q778.936 1175.82 776.039 1176.55 Q773.143 1177.28 770.469 1178.74 L770.469 1173.33 Q773.684 1172.09 776.708 1171.49 Q779.731 1170.85 782.596 1170.85 Q790.33 1170.85 794.15 1174.86 Q797.969 1178.87 797.969 1187.02 Z" fill="#000000" fill-rule="nonzero" fill-opacity="1" /><path clip-path="url(#clip600)" d="M810.032 1157.83 L815.889 1157.83 L815.889 1207.36 L810.032 1207.36 L810.032 1157.83 Z" fill="#000000" fill-rule="nonzero" fill-opacity="1" /><path clip-path="url(#clip600)" d="M852.364 1189.57 Q852.364 1196.03 855.006 1199.72 Q857.679 1203.38 862.326 1203.38 Q866.973 1203.38 869.647 1199.72 Q872.321 1196.03 872.321 1189.57 Q872.321 1183.1 869.647 1179.44 Q866.973 1175.75 862.326 1175.75 Q857.679 1175.75 855.006 1179.44 Q852.364 1183.1 852.364 1189.57 M872.321 1202.01 Q870.474 1205.19 867.642 1206.75 Q864.841 1208.28 860.894 1208.28 Q854.433 1208.28 850.359 1203.12 Q846.317 1197.97 846.317 1189.57 Q846.317 1181.16 850.359 1176.01 Q854.433 1170.85 860.894 1170.85 Q864.841 1170.85 867.642 1172.41 Q870.474 1173.94 872.321 1177.12 L872.321 1171.71 L878.177 1171.71 L878.177 1220.92 L872.321 1220.92 L872.321 1202.01 Z" fill="#000000" fill-rule="nonzero" fill-opacity="1" /><path clip-path="url(#clip600)" d="M889.635 1193.29 L889.635 1171.71 L895.492 1171.71 L895.492 1193.07 Q895.492 1198.13 897.465 1200.67 Q899.438 1203.19 903.385 1203.19 Q908.128 1203.19 910.865 1200.16 Q913.634 1197.14 913.634 1191.92 L913.634 1171.71 L919.49 1171.71 L919.49 1207.36 L913.634 1207.36 L913.634 1201.88 Q911.501 1205.13 908.669 1206.72 Q905.868 1208.28 902.144 1208.28 Q896.001 1208.28 892.818 1204.46 Q889.635 1200.64 889.635 1193.29 M904.372 1170.85 L904.372 1170.85 Z" fill="#000000" fill-rule="nonzero" fill-opacity="1" /><path clip-path="url(#clip600)" d="M947.754 1189.44 Q940.656 1189.44 937.919 1191.06 Q935.182 1192.69 935.182 1196.6 Q935.182 1199.72 937.219 1201.57 Q939.288 1203.38 942.821 1203.38 Q947.691 1203.38 950.619 1199.94 Q953.579 1196.47 953.579 1190.74 L953.579 1189.44 L947.754 1189.44 M959.435 1187.02 L959.435 1207.36 L953.579 1207.36 L953.579 1201.95 Q951.574 1205.19 948.582 1206.75 Q945.59 1208.28 941.261 1208.28 Q935.787 1208.28 932.54 1205.23 Q929.325 1202.14 929.325 1196.98 Q929.325 1190.97 933.336 1187.91 Q937.378 1184.86 945.367 1184.86 L953.579 1184.86 L953.579 1184.28 Q953.579 1180.24 950.905 1178.04 Q948.263 1175.82 943.457 1175.82 Q940.402 1175.82 937.505 1176.55 Q934.609 1177.28 931.935 1178.74 L931.935 1173.33 Q935.15 1172.09 938.174 1171.49 Q941.197 1170.85 944.062 1170.85 Q951.796 1170.85 955.616 1174.86 Q959.435 1178.87 959.435 1187.02 Z" fill="#000000" fill-rule="nonzero" fill-opacity="1" /><path clip-path="url(#clip600)" d="M1001.13 1185.84 L1001.13 1207.36 L995.274 1207.36 L995.274 1186.03 Q995.274 1180.97 993.301 1178.46 Q991.327 1175.94 987.381 1175.94 Q982.638 1175.94 979.901 1178.97 Q977.164 1181.99 977.164 1187.21 L977.164 1207.36 L971.275 1207.36 L971.275 1171.71 L977.164 1171.71 L977.164 1177.25 Q979.264 1174.03 982.097 1172.44 Q984.962 1170.85 988.686 1170.85 Q994.829 1170.85 997.98 1174.67 Q1001.13 1178.46 1001.13 1185.84 Z" fill="#000000" fill-rule="nonzero" fill-opacity="1" /><path clip-path="url(#clip600)" d="M1018.6 1161.59 L1018.6 1171.71 L1030.67 1171.71 L1030.67 1176.26 L1018.6 1176.26 L1018.6 1195.61 Q1018.6 1199.97 1019.78 1201.22 Q1020.99 1202.46 1024.65 1202.46 L1030.67 1202.46 L1030.67 1207.36 L1024.65 1207.36 Q1017.87 1207.36 1015.29 1204.84 Q1012.72 1202.3 1012.72 1195.61 L1012.72 1176.26 L1008.42 1176.26 L1008.42 1171.71 L1012.72 1171.71 L1012.72 1161.59 L1018.6 1161.59 Z" fill="#000000" fill-rule="nonzero" fill-opacity="1" /><path clip-path="url(#clip600)" d="M1038.37 1171.71 L1044.23 1171.71 L1044.23 1207.36 L1038.37 1207.36 L1038.37 1171.71 M1038.37 1157.83 L1044.23 1157.83 L1044.23 1165.25 L1038.37 1165.25 L1038.37 1157.83 Z" fill="#000000" fill-rule="nonzero" fill-opacity="1" /><path clip-path="url(#clip600)" d="M1056.48 1157.83 L1062.34 1157.83 L1062.34 1207.36 L1056.48 1207.36 L1056.48 1157.83 Z" fill="#000000" fill-rule="nonzero" fill-opacity="1" /><path clip-path="url(#clip600)" d="M1105.08 1188.07 L1105.08 1190.93 L1078.16 1190.93 Q1078.54 1196.98 1081.78 1200.16 Q1085.06 1203.32 1090.89 1203.32 Q1094.26 1203.32 1097.41 1202.49 Q1100.59 1201.66 1103.71 1200.01 L1103.71 1205.54 Q1100.56 1206.88 1097.25 1207.58 Q1093.94 1208.28 1090.54 1208.28 Q1082.01 1208.28 1077.01 1203.32 Q1072.04 1198.35 1072.04 1189.88 Q1072.04 1181.13 1076.76 1176.01 Q1081.5 1170.85 1089.52 1170.85 Q1096.71 1170.85 1100.88 1175.5 Q1105.08 1180.11 1105.08 1188.07 M1099.23 1186.35 Q1099.16 1181.55 1096.52 1178.68 Q1093.91 1175.82 1089.58 1175.82 Q1084.68 1175.82 1081.72 1178.59 Q1078.79 1181.35 1078.35 1186.38 L1099.23 1186.35 Z" fill="#000000" fill-rule="nonzero" fill-opacity="1" /><path clip-path="url(#clip600)" d="M1137.42 1172.76 L1137.42 1178.3 Q1134.94 1177.03 1132.26 1176.39 Q1129.59 1175.75 1126.73 1175.75 Q1122.37 1175.75 1120.17 1177.09 Q1118 1178.43 1118 1181.1 Q1118 1183.14 1119.56 1184.31 Q1121.12 1185.46 1125.83 1186.51 L1127.84 1186.96 Q1134.08 1188.29 1136.69 1190.74 Q1139.33 1193.16 1139.33 1197.52 Q1139.33 1202.49 1135.38 1205.38 Q1131.47 1208.28 1124.59 1208.28 Q1121.73 1208.28 1118.61 1207.71 Q1115.52 1207.17 1112.08 1206.05 L1112.08 1200.01 Q1115.33 1201.69 1118.48 1202.55 Q1121.63 1203.38 1124.72 1203.38 Q1128.86 1203.38 1131.09 1201.98 Q1133.31 1200.55 1133.31 1197.97 Q1133.31 1195.58 1131.69 1194.31 Q1130.1 1193.04 1124.66 1191.86 L1122.62 1191.38 Q1117.18 1190.23 1114.76 1187.88 Q1112.34 1185.49 1112.34 1181.35 Q1112.34 1176.33 1115.9 1173.59 Q1119.47 1170.85 1126.03 1170.85 Q1129.27 1170.85 1132.14 1171.33 Q1135 1171.81 1137.42 1172.76 Z" fill="#000000" fill-rule="nonzero" fill-opacity="1" /><polyline clip-path="url(#clip600)" style="stroke:#000000; stroke-linecap:round; stroke-linejoin:round; stroke-width:4; stroke-opacity:1; fill:none" points="244.233,1056.49 244.233,101.872 "/>
<polyline clip-path="url(#clip600)" style="stroke:#000000; stroke-linecap:round; stroke-linejoin:round; stroke-width:4; stroke-opacity:1; fill:none" points="244.233,939.692 263.13,939.692 "/>
<polyline clip-path="url(#clip600)" style="stroke:#000000; stroke-linecap:round; stroke-linejoin:round; stroke-width:4; stroke-opacity:1; fill:none" points="244.233,819.135 263.13,819.135 "/>
<polyline clip-path="url(#clip600)" style="stroke:#000000; stroke-linecap:round; stroke-linejoin:round; stroke-width:4; stroke-opacity:1; fill:none" points="244.233,698.578 263.13,698.578 "/>
<polyline clip-path="url(#clip600)" style="stroke:#000000; stroke-linecap:round; stroke-linejoin:round; stroke-width:4; stroke-opacity:1; fill:none" points="244.233,578.021 263.13,578.021 "/>
<polyline clip-path="url(#clip600)" style="stroke:#000000; stroke-linecap:round; stroke-linejoin:round; stroke-width:4; stroke-opacity:1; fill:none" points="244.233,457.464 263.13,457.464 "/>
<polyline clip-path="url(#clip600)" style="stroke:#000000; stroke-linecap:round; stroke-linejoin:round; stroke-width:4; stroke-opacity:1; fill:none" points="244.233,336.907 263.13,336.907 "/>
<polyline clip-path="url(#clip600)" style="stroke:#000000; stroke-linecap:round; stroke-linejoin:round; stroke-width:4; stroke-opacity:1; fill:none" points="244.233,216.349 263.13,216.349 "/>
<path clip-path="url(#clip600)" d="M96.2841 940.143 L125.96 940.143 L125.96 944.078 L96.2841 944.078 L96.2841 940.143 Z" fill="#000000" fill-rule="nonzero" fill-opacity="1" /><path clip-path="url(#clip600)" d="M136.863 953.037 L144.501 953.037 L144.501 926.671 L136.191 928.338 L136.191 924.078 L144.455 922.412 L149.131 922.412 L149.131 953.037 L156.77 953.037 L156.77 956.972 L136.863 956.972 L136.863 953.037 Z" fill="#000000" fill-rule="nonzero" fill-opacity="1" /><path clip-path="url(#clip600)" d="M166.214 951.092 L171.099 951.092 L171.099 956.972 L166.214 956.972 L166.214 951.092 Z" fill="#000000" fill-rule="nonzero" fill-opacity="1" /><path clip-path="url(#clip600)" d="M181.33 922.412 L199.686 922.412 L199.686 926.347 L185.612 926.347 L185.612 934.819 Q186.631 934.472 187.649 934.31 Q188.668 934.125 189.686 934.125 Q195.473 934.125 198.853 937.296 Q202.233 940.467 202.233 945.884 Q202.233 951.462 198.76 954.564 Q195.288 957.643 188.969 957.643 Q186.793 957.643 184.524 957.273 Q182.279 956.902 179.872 956.162 L179.872 951.462 Q181.955 952.597 184.177 953.152 Q186.399 953.708 188.876 953.708 Q192.881 953.708 195.219 951.601 Q197.557 949.495 197.557 945.884 Q197.557 942.273 195.219 940.166 Q192.881 938.06 188.876 938.06 Q187.001 938.06 185.126 938.476 Q183.274 938.893 181.33 939.773 L181.33 922.412 Z" fill="#000000" fill-rule="nonzero" fill-opacity="1" /><path clip-path="url(#clip600)" d="M95.2887 819.586 L124.964 819.586 L124.964 823.521 L95.2887 823.521 L95.2887 819.586 Z" fill="#000000" fill-rule="nonzero" fill-opacity="1" /><path clip-path="url(#clip600)" d="M135.867 832.479 L143.506 832.479 L143.506 806.114 L135.196 807.781 L135.196 803.521 L143.46 801.855 L148.136 801.855 L148.136 832.479 L155.775 832.479 L155.775 836.415 L135.867 836.415 L135.867 832.479 Z" fill="#000000" fill-rule="nonzero" fill-opacity="1" /><path clip-path="url(#clip600)" d="M165.219 830.535 L170.103 830.535 L170.103 836.415 L165.219 836.415 L165.219 830.535 Z" fill="#000000" fill-rule="nonzero" fill-opacity="1" /><path clip-path="url(#clip600)" d="M190.288 804.933 Q186.677 804.933 184.848 808.498 Q183.043 812.04 183.043 819.169 Q183.043 826.276 184.848 829.841 Q186.677 833.382 190.288 833.382 Q193.922 833.382 195.728 829.841 Q197.557 826.276 197.557 819.169 Q197.557 812.04 195.728 808.498 Q193.922 804.933 190.288 804.933 M190.288 801.23 Q196.098 801.23 199.154 805.836 Q202.233 810.419 202.233 819.169 Q202.233 827.896 199.154 832.503 Q196.098 837.086 190.288 837.086 Q184.478 837.086 181.399 832.503 Q178.344 827.896 178.344 819.169 Q178.344 810.419 181.399 805.836 Q184.478 801.23 190.288 801.23 Z" fill="#000000" fill-rule="nonzero" fill-opacity="1" /><path clip-path="url(#clip600)" d="M96.2841 699.029 L125.96 699.029 L125.96 702.964 L96.2841 702.964 L96.2841 699.029 Z" fill="#000000" fill-rule="nonzero" fill-opacity="1" /><path clip-path="url(#clip600)" d="M146.052 684.376 Q142.441 684.376 140.613 687.941 Q138.807 691.483 138.807 698.612 Q138.807 705.719 140.613 709.284 Q142.441 712.825 146.052 712.825 Q149.687 712.825 151.492 709.284 Q153.321 705.719 153.321 698.612 Q153.321 691.483 151.492 687.941 Q149.687 684.376 146.052 684.376 M146.052 680.673 Q151.862 680.673 154.918 685.279 Q157.997 689.862 157.997 698.612 Q157.997 707.339 154.918 711.946 Q151.862 716.529 146.052 716.529 Q140.242 716.529 137.164 711.946 Q134.108 707.339 134.108 698.612 Q134.108 689.862 137.164 685.279 Q140.242 680.673 146.052 680.673 Z" fill="#000000" fill-rule="nonzero" fill-opacity="1" /><path clip-path="url(#clip600)" d="M166.214 709.978 L171.099 709.978 L171.099 715.858 L166.214 715.858 L166.214 709.978 Z" fill="#000000" fill-rule="nonzero" fill-opacity="1" /><path clip-path="url(#clip600)" d="M181.33 681.298 L199.686 681.298 L199.686 685.233 L185.612 685.233 L185.612 693.705 Q186.631 693.358 187.649 693.196 Q188.668 693.011 189.686 693.011 Q195.473 693.011 198.853 696.182 Q202.233 699.353 202.233 704.77 Q202.233 710.348 198.76 713.45 Q195.288 716.529 188.969 716.529 Q186.793 716.529 184.524 716.159 Q182.279 715.788 179.872 715.047 L179.872 710.348 Q181.955 711.483 184.177 712.038 Q186.399 712.594 188.876 712.594 Q192.881 712.594 195.219 710.487 Q197.557 708.381 197.557 704.77 Q197.557 701.159 195.219 699.052 Q192.881 696.946 188.876 696.946 Q187.001 696.946 185.126 697.362 Q183.274 697.779 181.33 698.659 L181.33 681.298 Z" fill="#000000" fill-rule="nonzero" fill-opacity="1" /><path clip-path="url(#clip600)" d="M145.057 563.819 Q141.446 563.819 139.617 567.384 Q137.812 570.926 137.812 578.055 Q137.812 585.162 139.617 588.727 Q141.446 592.268 145.057 592.268 Q148.691 592.268 150.497 588.727 Q152.325 585.162 152.325 578.055 Q152.325 570.926 150.497 567.384 Q148.691 563.819 145.057 563.819 M145.057 560.116 Q150.867 560.116 153.923 564.722 Q157.001 569.305 157.001 578.055 Q157.001 586.782 153.923 591.389 Q150.867 595.972 145.057 595.972 Q139.247 595.972 136.168 591.389 Q133.113 586.782 133.113 578.055 Q133.113 569.305 136.168 564.722 Q139.247 560.116 145.057 560.116 Z" fill="#000000" fill-rule="nonzero" fill-opacity="1" /><path clip-path="url(#clip600)" d="M165.219 589.421 L170.103 589.421 L170.103 595.301 L165.219 595.301 L165.219 589.421 Z" fill="#000000" fill-rule="nonzero" fill-opacity="1" /><path clip-path="url(#clip600)" d="M190.288 563.819 Q186.677 563.819 184.848 567.384 Q183.043 570.926 183.043 578.055 Q183.043 585.162 184.848 588.727 Q186.677 592.268 190.288 592.268 Q193.922 592.268 195.728 588.727 Q197.557 585.162 197.557 578.055 Q197.557 570.926 195.728 567.384 Q193.922 563.819 190.288 563.819 M190.288 560.116 Q196.098 560.116 199.154 564.722 Q202.233 569.305 202.233 578.055 Q202.233 586.782 199.154 591.389 Q196.098 595.972 190.288 595.972 Q184.478 595.972 181.399 591.389 Q178.344 586.782 178.344 578.055 Q178.344 569.305 181.399 564.722 Q184.478 560.116 190.288 560.116 Z" fill="#000000" fill-rule="nonzero" fill-opacity="1" /><path clip-path="url(#clip600)" d="M146.052 443.262 Q142.441 443.262 140.613 446.827 Q138.807 450.369 138.807 457.498 Q138.807 464.605 140.613 468.17 Q142.441 471.711 146.052 471.711 Q149.687 471.711 151.492 468.17 Q153.321 464.605 153.321 457.498 Q153.321 450.369 151.492 446.827 Q149.687 443.262 146.052 443.262 M146.052 439.559 Q151.862 439.559 154.918 444.165 Q157.997 448.748 157.997 457.498 Q157.997 466.225 154.918 470.832 Q151.862 475.415 146.052 475.415 Q140.242 475.415 137.164 470.832 Q134.108 466.225 134.108 457.498 Q134.108 448.748 137.164 444.165 Q140.242 439.559 146.052 439.559 Z" fill="#000000" fill-rule="nonzero" fill-opacity="1" /><path clip-path="url(#clip600)" d="M166.214 468.864 L171.099 468.864 L171.099 474.744 L166.214 474.744 L166.214 468.864 Z" fill="#000000" fill-rule="nonzero" fill-opacity="1" /><path clip-path="url(#clip600)" d="M181.33 440.184 L199.686 440.184 L199.686 444.119 L185.612 444.119 L185.612 452.591 Q186.631 452.244 187.649 452.082 Q188.668 451.896 189.686 451.896 Q195.473 451.896 198.853 455.068 Q202.233 458.239 202.233 463.656 Q202.233 469.234 198.76 472.336 Q195.288 475.415 188.969 475.415 Q186.793 475.415 184.524 475.044 Q182.279 474.674 179.872 473.933 L179.872 469.234 Q181.955 470.369 184.177 470.924 Q186.399 471.48 188.876 471.48 Q192.881 471.48 195.219 469.373 Q197.557 467.267 197.557 463.656 Q197.557 460.045 195.219 457.938 Q192.881 455.832 188.876 455.832 Q187.001 455.832 185.126 456.248 Q183.274 456.665 181.33 457.545 L181.33 440.184 Z" fill="#000000" fill-rule="nonzero" fill-opacity="1" /><path clip-path="url(#clip600)" d="M135.867 350.251 L143.506 350.251 L143.506 323.886 L135.196 325.552 L135.196 321.293 L143.46 319.627 L148.136 319.627 L148.136 350.251 L155.775 350.251 L155.775 354.187 L135.867 354.187 L135.867 350.251 Z" fill="#000000" fill-rule="nonzero" fill-opacity="1" /><path clip-path="url(#clip600)" d="M165.219 348.307 L170.103 348.307 L170.103 354.187 L165.219 354.187 L165.219 348.307 Z" fill="#000000" fill-rule="nonzero" fill-opacity="1" /><path clip-path="url(#clip600)" d="M190.288 322.705 Q186.677 322.705 184.848 326.27 Q183.043 329.812 183.043 336.941 Q183.043 344.048 184.848 347.612 Q186.677 351.154 190.288 351.154 Q193.922 351.154 195.728 347.612 Q197.557 344.048 197.557 336.941 Q197.557 329.812 195.728 326.27 Q193.922 322.705 190.288 322.705 M190.288 319.002 Q196.098 319.002 199.154 323.608 Q202.233 328.191 202.233 336.941 Q202.233 345.668 199.154 350.275 Q196.098 354.858 190.288 354.858 Q184.478 354.858 181.399 350.275 Q178.344 345.668 178.344 336.941 Q178.344 328.191 181.399 323.608 Q184.478 319.002 190.288 319.002 Z" fill="#000000" fill-rule="nonzero" fill-opacity="1" /><path clip-path="url(#clip600)" d="M136.863 229.694 L144.501 229.694 L144.501 203.329 L136.191 204.995 L136.191 200.736 L144.455 199.069 L149.131 199.069 L149.131 229.694 L156.77 229.694 L156.77 233.629 L136.863 233.629 L136.863 229.694 Z" fill="#000000" fill-rule="nonzero" fill-opacity="1" /><path clip-path="url(#clip600)" d="M166.214 227.75 L171.099 227.75 L171.099 233.629 L166.214 233.629 L166.214 227.75 Z" fill="#000000" fill-rule="nonzero" fill-opacity="1" /><path clip-path="url(#clip600)" d="M181.33 199.069 L199.686 199.069 L199.686 203.005 L185.612 203.005 L185.612 211.477 Q186.631 211.13 187.649 210.968 Q188.668 210.782 189.686 210.782 Q195.473 210.782 198.853 213.954 Q202.233 217.125 202.233 222.542 Q202.233 228.12 198.76 231.222 Q195.288 234.301 188.969 234.301 Q186.793 234.301 184.524 233.93 Q182.279 233.56 179.872 232.819 L179.872 228.12 Q181.955 229.255 184.177 229.81 Q186.399 230.366 188.876 230.366 Q192.881 230.366 195.219 228.259 Q197.557 226.153 197.557 222.542 Q197.557 218.93 195.219 216.824 Q192.881 214.718 188.876 214.718 Q187.001 214.718 185.126 215.134 Q183.274 215.551 181.33 216.431 L181.33 199.069 Z" fill="#000000" fill-rule="nonzero" fill-opacity="1" /><path clip-path="url(#clip600)" d="M-6.92767 827.318 L-0.657452 827.318 Q-2.40802 830.979 -3.26739 834.225 Q-4.12676 837.472 -4.12676 840.495 Q-4.12676 845.747 -2.08974 848.612 Q-0.0527098 851.444 3.70306 851.444 Q6.85408 851.444 8.47734 849.567 Q10.0688 847.657 11.0554 842.373 L11.8512 838.49 Q13.2198 831.297 16.6891 827.891 Q20.1266 824.454 25.9194 824.454 Q32.8262 824.454 36.391 829.101 Q39.9558 833.716 39.9558 842.66 Q39.9558 846.034 39.1919 849.853 Q38.428 853.641 36.932 857.715 L30.3117 857.715 Q32.5079 853.8 33.6219 850.044 Q34.7359 846.288 34.7359 842.66 Q34.7359 837.153 32.5715 834.162 Q30.4072 831.17 26.3968 831.17 Q22.8957 831.17 20.9223 833.334 Q18.9489 835.466 17.9622 840.368 L17.1984 844.283 Q15.7661 851.476 12.7105 854.691 Q9.65499 857.906 4.21231 857.906 Q-2.08974 857.906 -5.71819 853.481 Q-9.34664 849.025 -9.34664 841.227 Q-9.34664 837.885 -8.7419 834.416 Q-8.13716 830.947 -6.92767 827.318 Z" fill="#000000" fill-rule="nonzero" fill-opacity="1" /><path clip-path="url(#clip600)" d="M21.1133 798.482 Q21.1133 805.579 22.7365 808.317 Q24.3598 811.054 28.2747 811.054 Q31.3939 811.054 33.2399 809.017 Q35.0542 806.948 35.0542 803.415 Q35.0542 798.545 31.6167 795.617 Q28.1474 792.657 22.4182 792.657 L21.1133 792.657 L21.1133 798.482 M18.6943 786.801 L39.0327 786.801 L39.0327 792.657 L33.6219 792.657 Q36.8684 794.662 38.428 797.654 Q39.9558 800.646 39.9558 804.975 Q39.9558 810.449 36.9002 813.696 Q33.8128 816.91 28.6566 816.91 Q22.641 816.91 19.5855 812.9 Q16.53 808.858 16.53 800.869 L16.53 792.657 L15.957 792.657 Q11.9148 792.657 9.71865 795.331 Q7.49065 797.972 7.49065 802.779 Q7.49065 805.834 8.22271 808.731 Q8.95477 811.627 10.4189 814.301 L5.00803 814.301 Q3.76671 811.086 3.16197 808.062 Q2.5254 805.038 2.5254 802.174 Q2.5254 794.439 6.5358 790.62 Q10.5462 786.801 18.6943 786.801 Z" fill="#000000" fill-rule="nonzero" fill-opacity="1" /><path clip-path="url(#clip600)" d="M10.2279 746.983 Q6.28117 744.787 4.40328 741.731 Q2.5254 738.676 2.5254 734.538 Q2.5254 728.968 6.44031 725.944 Q10.3234 722.921 17.5166 722.921 L39.0327 722.921 L39.0327 728.809 L17.7076 728.809 Q12.5832 728.809 10.1006 730.623 Q7.61797 732.438 7.61797 736.161 Q7.61797 740.713 10.6417 743.355 Q13.6654 745.996 18.8853 745.996 L39.0327 745.996 L39.0327 751.885 L17.7076 751.885 Q12.5514 751.885 10.1006 753.699 Q7.61797 755.513 7.61797 759.301 Q7.61797 763.789 10.6735 766.43 Q13.6972 769.072 18.8853 769.072 L39.0327 769.072 L39.0327 774.96 L3.38477 774.96 L3.38477 769.072 L8.92294 769.072 Q5.6446 767.067 4.085 764.266 Q2.5254 761.465 2.5254 757.614 Q2.5254 753.731 4.49877 751.025 Q6.47214 748.288 10.2279 746.983 Z" fill="#000000" fill-rule="nonzero" fill-opacity="1" /><path clip-path="url(#clip600)" d="M33.6855 705.574 L52.5917 705.574 L52.5917 711.463 L3.38477 711.463 L3.38477 705.574 L8.79562 705.574 Q5.61277 703.728 4.085 700.927 Q2.5254 698.095 2.5254 694.18 Q2.5254 687.687 7.68162 683.644 Q12.8378 679.57 21.2406 679.57 Q29.6433 679.57 34.7995 683.644 Q39.9558 687.687 39.9558 694.18 Q39.9558 698.095 38.428 700.927 Q36.8684 703.728 33.6855 705.574 M21.2406 685.65 Q14.7794 685.65 11.1191 688.323 Q7.427 690.965 7.427 695.612 Q7.427 700.259 11.1191 702.932 Q14.7794 705.574 21.2406 705.574 Q27.7018 705.574 31.3939 702.932 Q35.0542 700.259 35.0542 695.612 Q35.0542 690.965 31.3939 688.323 Q27.7018 685.65 21.2406 685.65 Z" fill="#000000" fill-rule="nonzero" fill-opacity="1" /><path clip-path="url(#clip600)" d="M-10.4925 669.863 L-10.4925 664.006 L39.0327 664.006 L39.0327 669.863 L-10.4925 669.863 Z" fill="#000000" fill-rule="nonzero" fill-opacity="1" /><path clip-path="url(#clip600)" d="M19.7446 621.26 L22.6092 621.26 L22.6092 648.187 Q28.6566 647.805 31.8395 644.559 Q34.9905 641.281 34.9905 635.456 Q34.9905 632.082 34.163 628.931 Q33.3354 625.748 31.6803 622.629 L37.2185 622.629 Q38.5553 625.78 39.2555 629.09 Q39.9558 632.4 39.9558 635.806 Q39.9558 644.336 34.9905 649.333 Q30.0253 654.298 21.5589 654.298 Q12.806 654.298 7.68162 649.588 Q2.5254 644.845 2.5254 636.825 Q2.5254 629.631 7.17237 625.462 Q11.7875 621.26 19.7446 621.26 M18.0259 627.117 Q13.2198 627.181 10.3552 629.822 Q7.49065 632.432 7.49065 636.761 Q7.49065 641.663 10.2597 644.623 Q13.0288 647.551 18.0577 647.996 L18.0259 627.117 Z" fill="#000000" fill-rule="nonzero" fill-opacity="1" /><path clip-path="url(#clip600)" d="M21.2406 587.427 Q27.7018 587.427 31.3939 584.785 Q35.0542 582.111 35.0542 577.464 Q35.0542 572.817 31.3939 570.144 Q27.7018 567.47 21.2406 567.47 Q14.7794 567.47 11.1191 570.144 Q7.427 572.817 7.427 577.464 Q7.427 582.111 11.1191 584.785 Q14.7794 587.427 21.2406 587.427 M33.6855 567.47 Q36.8684 569.316 38.428 572.149 Q39.9558 574.95 39.9558 578.897 Q39.9558 585.358 34.7995 589.432 Q29.6433 593.474 21.2406 593.474 Q12.8378 593.474 7.68162 589.432 Q2.5254 585.358 2.5254 578.897 Q2.5254 574.95 4.085 572.149 Q5.61277 569.316 8.79562 567.47 L3.38477 567.47 L3.38477 561.614 L52.5917 561.614 L52.5917 567.47 L33.6855 567.47 Z" fill="#000000" fill-rule="nonzero" fill-opacity="1" /><path clip-path="url(#clip600)" d="M24.9645 550.156 L3.38477 550.156 L3.38477 544.299 L24.7417 544.299 Q29.8025 544.299 32.3487 542.326 Q34.8632 540.352 34.8632 536.406 Q34.8632 531.663 31.8395 528.926 Q28.8158 526.157 23.5959 526.157 L3.38477 526.157 L3.38477 520.3 L39.0327 520.3 L39.0327 526.157 L33.5582 526.157 Q36.8047 528.289 38.3962 531.122 Q39.9558 533.923 39.9558 537.647 Q39.9558 543.79 36.1363 546.973 Q32.3169 550.156 24.9645 550.156 M2.5254 535.419 L2.5254 535.419 Z" fill="#000000" fill-rule="nonzero" fill-opacity="1" /><path clip-path="url(#clip600)" d="M21.1133 492.037 Q21.1133 499.134 22.7365 501.872 Q24.3598 504.609 28.2747 504.609 Q31.3939 504.609 33.2399 502.572 Q35.0542 500.503 35.0542 496.97 Q35.0542 492.1 31.6167 489.172 Q28.1474 486.212 22.4182 486.212 L21.1133 486.212 L21.1133 492.037 M18.6943 480.356 L39.0327 480.356 L39.0327 486.212 L33.6219 486.212 Q36.8684 488.217 38.428 491.209 Q39.9558 494.201 39.9558 498.53 Q39.9558 504.004 36.9002 507.251 Q33.8128 510.465 28.6566 510.465 Q22.641 510.465 19.5855 506.455 Q16.53 502.413 16.53 494.424 L16.53 486.212 L15.957 486.212 Q11.9148 486.212 9.71865 488.886 Q7.49065 491.527 7.49065 496.333 Q7.49065 499.389 8.22271 502.285 Q8.95477 505.182 10.4189 507.855 L5.00803 507.855 Q3.76671 504.641 3.16197 501.617 Q2.5254 498.593 2.5254 495.729 Q2.5254 487.994 6.5358 484.175 Q10.5462 480.356 18.6943 480.356 Z" fill="#000000" fill-rule="nonzero" fill-opacity="1" /><path clip-path="url(#clip600)" d="M17.5166 438.66 L39.0327 438.66 L39.0327 444.517 L17.7076 444.517 Q12.6469 444.517 10.1324 446.49 Q7.61797 448.463 7.61797 452.41 Q7.61797 457.153 10.6417 459.89 Q13.6654 462.627 18.8853 462.627 L39.0327 462.627 L39.0327 468.515 L3.38477 468.515 L3.38477 462.627 L8.92294 462.627 Q5.70825 460.526 4.11683 457.694 Q2.5254 454.829 2.5254 451.105 Q2.5254 444.962 6.34483 441.811 Q10.1324 438.66 17.5166 438.66 Z" fill="#000000" fill-rule="nonzero" fill-opacity="1" /><path clip-path="url(#clip600)" d="M-6.7367 421.186 L3.38477 421.186 L3.38477 409.123 L7.93625 409.123 L7.93625 421.186 L27.288 421.186 Q31.6485 421.186 32.8898 420.009 Q34.1311 418.799 34.1311 415.139 L34.1311 409.123 L39.0327 409.123 L39.0327 415.139 Q39.0327 421.918 36.5183 424.496 Q33.972 427.075 27.288 427.075 L7.93625 427.075 L7.93625 431.371 L3.38477 431.371 L3.38477 427.075 L-6.7367 427.075 L-6.7367 421.186 Z" fill="#000000" fill-rule="nonzero" fill-opacity="1" /><path clip-path="url(#clip600)" d="M3.38477 401.421 L3.38477 395.564 L39.0327 395.564 L39.0327 401.421 L3.38477 401.421 M-10.4925 401.421 L-10.4925 395.564 L-3.07642 395.564 L-3.07642 401.421 L-10.4925 401.421 Z" fill="#000000" fill-rule="nonzero" fill-opacity="1" /><path clip-path="url(#clip600)" d="M-10.4925 383.31 L-10.4925 377.454 L39.0327 377.454 L39.0327 383.31 L-10.4925 383.31 Z" fill="#000000" fill-rule="nonzero" fill-opacity="1" /><path clip-path="url(#clip600)" d="M19.7446 334.708 L22.6092 334.708 L22.6092 361.635 Q28.6566 361.253 31.8395 358.007 Q34.9905 354.728 34.9905 348.904 Q34.9905 345.53 34.163 342.379 Q33.3354 339.196 31.6803 336.077 L37.2185 336.077 Q38.5553 339.228 39.2555 342.538 Q39.9558 345.848 39.9558 349.254 Q39.9558 357.784 34.9905 362.781 Q30.0253 367.746 21.5589 367.746 Q12.806 367.746 7.68162 363.036 Q2.5254 358.293 2.5254 350.272 Q2.5254 343.079 7.17237 338.91 Q11.7875 334.708 19.7446 334.708 M18.0259 340.565 Q13.2198 340.628 10.3552 343.27 Q7.49065 345.88 7.49065 350.209 Q7.49065 355.11 10.2597 358.07 Q13.0288 360.999 18.0577 361.444 L18.0259 340.565 Z" fill="#000000" fill-rule="nonzero" fill-opacity="1" /><path clip-path="url(#clip600)" d="M4.43511 302.37 L9.97328 302.37 Q8.70014 304.853 8.06357 307.527 Q7.427 310.2 7.427 313.065 Q7.427 317.425 8.76379 319.621 Q10.1006 321.786 12.7742 321.786 Q14.8112 321.786 15.9889 320.226 Q17.1347 318.667 18.185 313.956 L18.6306 311.951 Q19.9674 305.712 22.4182 303.102 Q24.8372 300.461 29.1977 300.461 Q34.163 300.461 37.0594 304.407 Q39.9558 308.322 39.9558 315.197 Q39.9558 318.062 39.3828 321.181 Q38.8418 324.268 37.7278 327.706 L31.6803 327.706 Q33.3673 324.459 34.2266 321.308 Q35.0542 318.157 35.0542 315.07 Q35.0542 310.932 33.6537 308.704 Q32.2214 306.476 29.6433 306.476 Q27.2562 306.476 25.983 308.1 Q24.7099 309.691 23.5322 315.134 L23.0548 317.171 Q21.909 322.613 19.5537 325.032 Q17.1665 327.451 13.0288 327.451 Q7.99991 327.451 5.26266 323.886 Q2.5254 320.322 2.5254 313.765 Q2.5254 310.518 3.00283 307.654 Q3.48026 304.789 4.43511 302.37 Z" fill="#000000" fill-rule="nonzero" fill-opacity="1" /><path clip-path="url(#clip600)" d="M673.18 17.6457 Q664.268 17.6457 659.001 24.2892 Q653.776 30.9327 653.776 42.3968 Q653.776 53.8203 659.001 60.4638 Q664.268 67.1073 673.18 67.1073 Q682.092 67.1073 687.277 60.4638 Q692.502 53.8203 692.502 42.3968 Q692.502 30.9327 687.277 24.2892 Q682.092 17.6457 673.18 17.6457 M684.644 71.4823 L695.419 83.2704 L685.535 83.2704 L676.582 73.5887 Q675.245 73.6697 674.516 73.7103 Q673.828 73.7508 673.18 73.7508 Q660.419 73.7508 652.763 65.2439 Q645.147 56.6965 645.147 42.3968 Q645.147 28.0566 652.763 19.5497 Q660.419 11.0023 673.18 11.0023 Q685.899 11.0023 693.515 19.5497 Q701.131 28.0566 701.131 42.3968 Q701.131 52.9291 696.877 60.4233 Q692.664 67.9175 684.644 71.4823 Z" fill="#000000" fill-rule="nonzero" fill-opacity="1" /><path clip-path="url(#clip600)" d="M738.48 17.6457 Q729.568 17.6457 724.302 24.2892 Q719.076 30.9327 719.076 42.3968 Q719.076 53.8203 724.302 60.4638 Q729.568 67.1073 738.48 67.1073 Q747.392 67.1073 752.577 60.4638 Q757.803 53.8203 757.803 42.3968 Q757.803 30.9327 752.577 24.2892 Q747.392 17.6457 738.48 17.6457 M749.944 71.4823 L760.72 83.2704 L750.835 83.2704 L741.883 73.5887 Q740.546 73.6697 739.817 73.7103 Q739.128 73.7508 738.48 73.7508 Q725.72 73.7508 718.064 65.2439 Q710.448 56.6965 710.448 42.3968 Q710.448 28.0566 718.064 19.5497 Q725.72 11.0023 738.48 11.0023 Q751.2 11.0023 758.816 19.5497 Q766.431 28.0566 766.431 42.3968 Q766.431 52.9291 762.178 60.4233 Q757.965 67.9175 749.944 71.4823 Z" fill="#000000" fill-rule="nonzero" fill-opacity="1" /><path clip-path="url(#clip600)" d="M813.786 18.8205 L813.786 41.5461 L824.076 41.5461 Q829.787 41.5461 832.907 38.5889 Q836.026 35.6318 836.026 30.163 Q836.026 24.7348 832.907 21.7777 Q829.787 18.8205 824.076 18.8205 L813.786 18.8205 M805.604 12.096 L824.076 12.096 Q834.243 12.096 839.429 16.714 Q844.654 21.2916 844.654 30.163 Q844.654 39.1155 839.429 43.6931 Q834.243 48.2706 824.076 48.2706 L813.786 48.2706 L813.786 72.576 L805.604 72.576 L805.604 12.096 Z" fill="#000000" fill-rule="nonzero" fill-opacity="1" /><path clip-path="url(#clip600)" d="M855.308 9.54393 L862.762 9.54393 L862.762 72.576 L855.308 72.576 L855.308 9.54393 Z" fill="#000000" fill-rule="nonzero" fill-opacity="1" /><path clip-path="url(#clip600)" d="M895.939 32.4315 Q889.943 32.4315 886.46 37.1306 Q882.976 41.7891 882.976 49.9314 Q882.976 58.0738 886.419 62.7728 Q889.903 67.4314 895.939 67.4314 Q901.894 67.4314 905.377 62.7323 Q908.861 58.0333 908.861 49.9314 Q908.861 41.8701 905.377 37.1711 Q901.894 32.4315 895.939 32.4315 M895.939 26.1121 Q905.661 26.1121 911.211 32.4315 Q916.76 38.7509 916.76 49.9314 Q916.76 61.0714 911.211 67.4314 Q905.661 73.7508 895.939 73.7508 Q886.176 73.7508 880.626 67.4314 Q875.117 61.0714 875.117 49.9314 Q875.117 38.7509 880.626 32.4315 Q886.176 26.1121 895.939 26.1121 Z" fill="#000000" fill-rule="nonzero" fill-opacity="1" /><path clip-path="url(#clip600)" d="M936.488 14.324 L936.488 27.2059 L951.841 27.2059 L951.841 32.9987 L936.488 32.9987 L936.488 57.6282 Q936.488 63.1779 937.987 64.7578 Q939.526 66.3376 944.185 66.3376 L951.841 66.3376 L951.841 72.576 L944.185 72.576 Q935.557 72.576 932.275 69.3758 Q928.994 66.1351 928.994 57.6282 L928.994 32.9987 L923.525 32.9987 L923.525 27.2059 L928.994 27.2059 L928.994 14.324 L936.488 14.324 Z" fill="#000000" fill-rule="nonzero" fill-opacity="1" /><circle clip-path="url(#clip602)" cx="278.306" cy="1029.48" r="10.8" fill="#4682b4" fill-rule="evenodd" fill-opacity="1" stroke="#000000" stroke-opacity="1" stroke-width="2.4"/>
<circle clip-path="url(#clip602)" cx="430.82" cy="819.502" r="10.8" fill="#4682b4" fill-rule="evenodd" fill-opacity="1" stroke="#000000" stroke-opacity="1" stroke-width="2.4"/>
<circle clip-path="url(#clip602)" cx="517.061" cy="816.742" r="10.8" fill="#4682b4" fill-rule="evenodd" fill-opacity="1" stroke="#000000" stroke-opacity="1" stroke-width="2.4"/>
<circle clip-path="url(#clip602)" cx="582.457" cy="804.17" r="10.8" fill="#4682b4" fill-rule="evenodd" fill-opacity="1" stroke="#000000" stroke-opacity="1" stroke-width="2.4"/>
<circle clip-path="url(#clip602)" cx="637.695" cy="785.657" r="10.8" fill="#4682b4" fill-rule="evenodd" fill-opacity="1" stroke="#000000" stroke-opacity="1" stroke-width="2.4"/>
<circle clip-path="url(#clip602)" cx="687.22" cy="744.511" r="10.8" fill="#4682b4" fill-rule="evenodd" fill-opacity="1" stroke="#000000" stroke-opacity="1" stroke-width="2.4"/>
<circle clip-path="url(#clip602)" cx="733.431" cy="624.77" r="10.8" fill="#4682b4" fill-rule="evenodd" fill-opacity="1" stroke="#000000" stroke-opacity="1" stroke-width="2.4"/>
<circle clip-path="url(#clip602)" cx="777.89" cy="585.071" r="10.8" fill="#4682b4" fill-rule="evenodd" fill-opacity="1" stroke="#000000" stroke-opacity="1" stroke-width="2.4"/>
<circle clip-path="url(#clip602)" cx="821.799" cy="539.294" r="10.8" fill="#4682b4" fill-rule="evenodd" fill-opacity="1" stroke="#000000" stroke-opacity="1" stroke-width="2.4"/>
<circle clip-path="url(#clip602)" cx="866.257" cy="460.999" r="10.8" fill="#4682b4" fill-rule="evenodd" fill-opacity="1" stroke="#000000" stroke-opacity="1" stroke-width="2.4"/>
<circle clip-path="url(#clip602)" cx="912.469" cy="423.196" r="10.8" fill="#4682b4" fill-rule="evenodd" fill-opacity="1" stroke="#000000" stroke-opacity="1" stroke-width="2.4"/>
<circle clip-path="url(#clip602)" cx="961.993" cy="393.51" r="10.8" fill="#4682b4" fill-rule="evenodd" fill-opacity="1" stroke="#000000" stroke-opacity="1" stroke-width="2.4"/>
<circle clip-path="url(#clip602)" cx="1017.23" cy="390.227" r="10.8" fill="#4682b4" fill-rule="evenodd" fill-opacity="1" stroke="#000000" stroke-opacity="1" stroke-width="2.4"/>
<circle clip-path="url(#clip602)" cx="1082.63" cy="316.443" r="10.8" fill="#4682b4" fill-rule="evenodd" fill-opacity="1" stroke="#000000" stroke-opacity="1" stroke-width="2.4"/>
<circle clip-path="url(#clip602)" cx="1168.87" cy="274.776" r="10.8" fill="#4682b4" fill-rule="evenodd" fill-opacity="1" stroke="#000000" stroke-opacity="1" stroke-width="2.4"/>
<circle clip-path="url(#clip602)" cx="1321.38" cy="177.894" r="10.8" fill="#4682b4" fill-rule="evenodd" fill-opacity="1" stroke="#000000" stroke-opacity="1" stroke-width="2.4"/>
<polyline clip-path="url(#clip602)" style="stroke:#ff0000; stroke-linecap:round; stroke-linejoin:round; stroke-width:4; stroke-opacity:1; fill:none" stroke-dasharray="16, 10" points="275.606,1029.48 1321.38,128.89 "/>
<path clip-path="url(#clip600)" d="M1644.23 1056.49 L2752.76 1056.49 L2752.76 101.872 L1644.23 101.872  Z" fill="#ffffff" fill-rule="evenodd" fill-opacity="1"/>
<polyline clip-path="url(#clip601)" style="stroke:#000000; stroke-linecap:round; stroke-linejoin:round; stroke-width:2; stroke-opacity:0.1; fill:none" points="1792.42,1056.49 1792.42,101.872 "/>
<polyline clip-path="url(#clip601)" style="stroke:#000000; stroke-linecap:round; stroke-linejoin:round; stroke-width:2; stroke-opacity:0.1; fill:none" points="2026.04,1056.49 2026.04,101.872 "/>
<polyline clip-path="url(#clip601)" style="stroke:#000000; stroke-linecap:round; stroke-linejoin:round; stroke-width:2; stroke-opacity:0.1; fill:none" points="2259.66,1056.49 2259.66,101.872 "/>
<polyline clip-path="url(#clip601)" style="stroke:#000000; stroke-linecap:round; stroke-linejoin:round; stroke-width:2; stroke-opacity:0.1; fill:none" points="2493.27,1056.49 2493.27,101.872 "/>
<polyline clip-path="url(#clip601)" style="stroke:#000000; stroke-linecap:round; stroke-linejoin:round; stroke-width:2; stroke-opacity:0.1; fill:none" points="2726.89,1056.49 2726.89,101.872 "/>
<polyline clip-path="url(#clip601)" style="stroke:#000000; stroke-linecap:round; stroke-linejoin:round; stroke-width:2; stroke-opacity:0.1; fill:none" points="1644.23,934.525 2752.76,934.525 "/>
<polyline clip-path="url(#clip601)" style="stroke:#000000; stroke-linecap:round; stroke-linejoin:round; stroke-width:2; stroke-opacity:0.1; fill:none" points="1644.23,807.031 2752.76,807.031 "/>
<polyline clip-path="url(#clip601)" style="stroke:#000000; stroke-linecap:round; stroke-linejoin:round; stroke-width:2; stroke-opacity:0.1; fill:none" points="1644.23,679.536 2752.76,679.536 "/>
<polyline clip-path="url(#clip601)" style="stroke:#000000; stroke-linecap:round; stroke-linejoin:round; stroke-width:2; stroke-opacity:0.1; fill:none" points="1644.23,552.042 2752.76,552.042 "/>
<polyline clip-path="url(#clip601)" style="stroke:#000000; stroke-linecap:round; stroke-linejoin:round; stroke-width:2; stroke-opacity:0.1; fill:none" points="1644.23,424.547 2752.76,424.547 "/>
<polyline clip-path="url(#clip601)" style="stroke:#000000; stroke-linecap:round; stroke-linejoin:round; stroke-width:2; stroke-opacity:0.1; fill:none" points="1644.23,297.053 2752.76,297.053 "/>
<polyline clip-path="url(#clip601)" style="stroke:#000000; stroke-linecap:round; stroke-linejoin:round; stroke-width:2; stroke-opacity:0.1; fill:none" points="1644.23,169.559 2752.76,169.559 "/>
<polyline clip-path="url(#clip600)" style="stroke:#000000; stroke-linecap:round; stroke-linejoin:round; stroke-width:4; stroke-opacity:1; fill:none" points="1644.23,1056.49 2752.76,1056.49 "/>
<polyline clip-path="url(#clip600)" style="stroke:#000000; stroke-linecap:round; stroke-linejoin:round; stroke-width:4; stroke-opacity:1; fill:none" points="1792.42,1056.49 1792.42,1037.6 "/>
<polyline clip-path="url(#clip600)" style="stroke:#000000; stroke-linecap:round; stroke-linejoin:round; stroke-width:4; stroke-opacity:1; fill:none" points="2026.04,1056.49 2026.04,1037.6 "/>
<polyline clip-path="url(#clip600)" style="stroke:#000000; stroke-linecap:round; stroke-linejoin:round; stroke-width:4; stroke-opacity:1; fill:none" points="2259.66,1056.49 2259.66,1037.6 "/>
<polyline clip-path="url(#clip600)" style="stroke:#000000; stroke-linecap:round; stroke-linejoin:round; stroke-width:4; stroke-opacity:1; fill:none" points="2493.27,1056.49 2493.27,1037.6 "/>
<polyline clip-path="url(#clip600)" style="stroke:#000000; stroke-linecap:round; stroke-linejoin:round; stroke-width:4; stroke-opacity:1; fill:none" points="2726.89,1056.49 2726.89,1037.6 "/>
<path clip-path="url(#clip600)" d="M1787.07 1118.16 L1803.39 1118.16 L1803.39 1122.09 L1781.44 1122.09 L1781.44 1118.16 Q1784.11 1115.4 1788.69 1110.77 Q1793.3 1106.12 1794.48 1104.78 Q1796.72 1102.26 1797.6 1100.52 Q1798.5 1098.76 1798.5 1097.07 Q1798.5 1094.32 1796.56 1092.58 Q1794.64 1090.84 1791.54 1090.84 Q1789.34 1090.84 1786.88 1091.61 Q1784.45 1092.37 1781.68 1093.92 L1781.68 1089.2 Q1784.5 1088.07 1786.95 1087.49 Q1789.41 1086.91 1791.44 1086.91 Q1796.81 1086.91 1800.01 1089.59 Q1803.2 1092.28 1803.2 1096.77 Q1803.2 1098.9 1802.39 1100.82 Q1801.61 1102.72 1799.5 1105.31 Q1798.92 1105.98 1795.82 1109.2 Q1792.72 1112.4 1787.07 1118.16 Z" fill="#000000" fill-rule="nonzero" fill-opacity="1" /><path clip-path="url(#clip600)" d="M2029.04 1091.61 L2017.24 1110.06 L2029.04 1110.06 L2029.04 1091.61 M2027.82 1087.53 L2033.7 1087.53 L2033.7 1110.06 L2038.63 1110.06 L2038.63 1113.95 L2033.7 1113.95 L2033.7 1122.09 L2029.04 1122.09 L2029.04 1113.95 L2013.44 1113.95 L2013.44 1109.43 L2027.82 1087.53 Z" fill="#000000" fill-rule="nonzero" fill-opacity="1" /><path clip-path="url(#clip600)" d="M2260.06 1102.95 Q2256.91 1102.95 2255.06 1105.1 Q2253.23 1107.26 2253.23 1111.01 Q2253.23 1114.73 2255.06 1116.91 Q2256.91 1119.06 2260.06 1119.06 Q2263.21 1119.06 2265.04 1116.91 Q2266.89 1114.73 2266.89 1111.01 Q2266.89 1107.26 2265.04 1105.1 Q2263.21 1102.95 2260.06 1102.95 M2269.34 1088.3 L2269.34 1092.56 Q2267.58 1091.72 2265.78 1091.28 Q2264 1090.84 2262.24 1090.84 Q2257.61 1090.84 2255.15 1093.97 Q2252.72 1097.09 2252.38 1103.41 Q2253.74 1101.4 2255.8 1100.33 Q2257.86 1099.25 2260.34 1099.25 Q2265.55 1099.25 2268.56 1102.42 Q2271.59 1105.57 2271.59 1111.01 Q2271.59 1116.33 2268.44 1119.55 Q2265.29 1122.77 2260.06 1122.77 Q2254.06 1122.77 2250.89 1118.18 Q2247.72 1113.58 2247.72 1104.85 Q2247.72 1096.65 2251.61 1091.79 Q2255.5 1086.91 2262.05 1086.91 Q2263.81 1086.91 2265.59 1087.26 Q2267.4 1087.6 2269.34 1088.3 Z" fill="#000000" fill-rule="nonzero" fill-opacity="1" /><path clip-path="url(#clip600)" d="M2493.27 1105.68 Q2489.94 1105.68 2488.02 1107.46 Q2486.12 1109.25 2486.12 1112.37 Q2486.12 1115.5 2488.02 1117.28 Q2489.94 1119.06 2493.27 1119.06 Q2496.61 1119.06 2498.53 1117.28 Q2500.45 1115.47 2500.45 1112.37 Q2500.45 1109.25 2498.53 1107.46 Q2496.63 1105.68 2493.27 1105.68 M2488.6 1103.69 Q2485.59 1102.95 2483.9 1100.89 Q2482.23 1098.83 2482.23 1095.87 Q2482.23 1091.72 2485.17 1089.32 Q2488.14 1086.91 2493.27 1086.91 Q2498.44 1086.91 2501.38 1089.32 Q2504.32 1091.72 2504.32 1095.87 Q2504.32 1098.83 2502.63 1100.89 Q2500.96 1102.95 2497.97 1103.69 Q2501.35 1104.48 2503.23 1106.77 Q2505.13 1109.06 2505.13 1112.37 Q2505.13 1117.4 2502.05 1120.08 Q2498.99 1122.77 2493.27 1122.77 Q2487.56 1122.77 2484.48 1120.08 Q2481.42 1117.4 2481.42 1112.37 Q2481.42 1109.06 2483.32 1106.77 Q2485.22 1104.48 2488.6 1103.69 M2486.89 1096.31 Q2486.89 1098.99 2488.55 1100.5 Q2490.24 1102 2493.27 1102 Q2496.28 1102 2497.97 1100.5 Q2499.69 1098.99 2499.69 1096.31 Q2499.69 1093.62 2497.97 1092.12 Q2496.28 1090.61 2493.27 1090.61 Q2490.24 1090.61 2488.55 1092.12 Q2486.89 1093.62 2486.89 1096.31 Z" fill="#000000" fill-rule="nonzero" fill-opacity="1" /><path clip-path="url(#clip600)" d="M2701.58 1118.16 L2709.22 1118.16 L2709.22 1091.79 L2700.91 1093.46 L2700.91 1089.2 L2709.17 1087.53 L2713.85 1087.53 L2713.85 1118.16 L2721.49 1118.16 L2721.49 1122.09 L2701.58 1122.09 L2701.58 1118.16 Z" fill="#000000" fill-rule="nonzero" fill-opacity="1" /><path clip-path="url(#clip600)" d="M2740.93 1090.61 Q2737.32 1090.61 2735.49 1094.18 Q2733.69 1097.72 2733.69 1104.85 Q2733.69 1111.96 2735.49 1115.52 Q2737.32 1119.06 2740.93 1119.06 Q2744.57 1119.06 2746.37 1115.52 Q2748.2 1111.96 2748.2 1104.85 Q2748.2 1097.72 2746.37 1094.18 Q2744.57 1090.61 2740.93 1090.61 M2740.93 1086.91 Q2746.74 1086.91 2749.8 1091.52 Q2752.88 1096.1 2752.88 1104.85 Q2752.88 1113.58 2749.8 1118.18 Q2746.74 1122.77 2740.93 1122.77 Q2735.12 1122.77 2732.04 1118.18 Q2728.99 1113.58 2728.99 1104.85 Q2728.99 1096.1 2732.04 1091.52 Q2735.12 1086.91 2740.93 1086.91 Z" fill="#000000" fill-rule="nonzero" fill-opacity="1" /><path clip-path="url(#clip600)" d="M1995.19 1159.84 L2022.5 1159.84 L2022.5 1165.25 L2001.62 1165.25 L2001.62 1179.25 L2020.46 1179.25 L2020.46 1184.66 L2001.62 1184.66 L2001.62 1207.36 L1995.19 1207.36 L1995.19 1159.84 Z" fill="#000000" fill-rule="nonzero" fill-opacity="1" /><path clip-path="url(#clip600)" d="M2027.69 1171.71 L2033.54 1171.71 L2033.54 1207.36 L2027.69 1207.36 L2027.69 1171.71 M2027.69 1157.83 L2033.54 1157.83 L2033.54 1165.25 L2027.69 1165.25 L2027.69 1157.83 Z" fill="#000000" fill-rule="nonzero" fill-opacity="1" /><path clip-path="url(#clip600)" d="M2051.59 1161.59 L2051.59 1171.71 L2063.65 1171.71 L2063.65 1176.26 L2051.59 1176.26 L2051.59 1195.61 Q2051.59 1199.97 2052.77 1201.22 Q2053.98 1202.46 2057.64 1202.46 L2063.65 1202.46 L2063.65 1207.36 L2057.64 1207.36 Q2050.86 1207.36 2048.28 1204.84 Q2045.7 1202.3 2045.7 1195.61 L2045.7 1176.26 L2041.4 1176.26 L2041.4 1171.71 L2045.7 1171.71 L2045.7 1161.59 L2051.59 1161.59 Z" fill="#000000" fill-rule="nonzero" fill-opacity="1" /><path clip-path="url(#clip600)" d="M2077.15 1161.59 L2077.15 1171.71 L2089.21 1171.71 L2089.21 1176.26 L2077.15 1176.26 L2077.15 1195.61 Q2077.15 1199.97 2078.33 1201.22 Q2079.54 1202.46 2083.2 1202.46 L2089.21 1202.46 L2089.21 1207.36 L2083.2 1207.36 Q2076.42 1207.36 2073.84 1204.84 Q2071.26 1202.3 2071.26 1195.61 L2071.26 1176.26 L2066.96 1176.26 L2066.96 1171.71 L2071.26 1171.71 L2071.26 1161.59 L2077.15 1161.59 Z" fill="#000000" fill-rule="nonzero" fill-opacity="1" /><path clip-path="url(#clip600)" d="M2127.41 1188.07 L2127.41 1190.93 L2100.48 1190.93 Q2100.86 1196.98 2104.11 1200.16 Q2107.39 1203.32 2113.21 1203.32 Q2116.58 1203.32 2119.73 1202.49 Q2122.92 1201.66 2126.04 1200.01 L2126.04 1205.54 Q2122.89 1206.88 2119.58 1207.58 Q2116.27 1208.28 2112.86 1208.28 Q2104.33 1208.28 2099.33 1203.32 Q2094.37 1198.35 2094.37 1189.88 Q2094.37 1181.13 2099.08 1176.01 Q2103.82 1170.85 2111.84 1170.85 Q2119.03 1170.85 2123.2 1175.5 Q2127.41 1180.11 2127.41 1188.07 M2121.55 1186.35 Q2121.49 1181.55 2118.84 1178.68 Q2116.23 1175.82 2111.9 1175.82 Q2107 1175.82 2104.04 1178.59 Q2101.11 1181.35 2100.67 1186.38 L2121.55 1186.35 Z" fill="#000000" fill-rule="nonzero" fill-opacity="1" /><path clip-path="url(#clip600)" d="M2160.48 1177.12 L2160.48 1157.83 L2166.33 1157.83 L2166.33 1207.36 L2160.48 1207.36 L2160.48 1202.01 Q2158.63 1205.19 2155.8 1206.75 Q2153 1208.28 2149.05 1208.28 Q2142.59 1208.28 2138.51 1203.12 Q2134.47 1197.97 2134.47 1189.57 Q2134.47 1181.16 2138.51 1176.01 Q2142.59 1170.85 2149.05 1170.85 Q2153 1170.85 2155.8 1172.41 Q2158.63 1173.94 2160.48 1177.12 M2140.52 1189.57 Q2140.52 1196.03 2143.16 1199.72 Q2145.83 1203.38 2150.48 1203.38 Q2155.13 1203.38 2157.8 1199.72 Q2160.48 1196.03 2160.48 1189.57 Q2160.48 1183.1 2157.8 1179.44 Q2155.13 1175.75 2150.48 1175.75 Q2145.83 1175.75 2143.16 1179.44 Q2140.52 1183.1 2140.52 1189.57 Z" fill="#000000" fill-rule="nonzero" fill-opacity="1" /><path clip-path="url(#clip600)" d="M2194.91 1171.71 L2201.12 1171.71 L2212.26 1201.63 L2223.4 1171.71 L2229.61 1171.71 L2216.24 1207.36 L2208.28 1207.36 L2194.91 1171.71 Z" fill="#000000" fill-rule="nonzero" fill-opacity="1" /><path clip-path="url(#clip600)" d="M2253.89 1189.44 Q2246.79 1189.44 2244.06 1191.06 Q2241.32 1192.69 2241.32 1196.6 Q2241.32 1199.72 2243.36 1201.57 Q2245.43 1203.38 2248.96 1203.38 Q2253.83 1203.38 2256.76 1199.94 Q2259.72 1196.47 2259.72 1190.74 L2259.72 1189.44 L2253.89 1189.44 M2265.57 1187.02 L2265.57 1207.36 L2259.72 1207.36 L2259.72 1201.95 Q2257.71 1205.19 2254.72 1206.75 Q2251.73 1208.28 2247.4 1208.28 Q2241.92 1208.28 2238.68 1205.23 Q2235.46 1202.14 2235.46 1196.98 Q2235.46 1190.97 2239.47 1187.91 Q2243.52 1184.86 2251.5 1184.86 L2259.72 1184.86 L2259.72 1184.28 Q2259.72 1180.24 2257.04 1178.04 Q2254.4 1175.82 2249.59 1175.82 Q2246.54 1175.82 2243.64 1176.55 Q2240.75 1177.28 2238.07 1178.74 L2238.07 1173.33 Q2241.29 1172.09 2244.31 1171.49 Q2247.34 1170.85 2250.2 1170.85 Q2257.93 1170.85 2261.75 1174.86 Q2265.57 1178.87 2265.57 1187.02 Z" fill="#000000" fill-rule="nonzero" fill-opacity="1" /><path clip-path="url(#clip600)" d="M2277.64 1157.83 L2283.49 1157.83 L2283.49 1207.36 L2277.64 1207.36 L2277.64 1157.83 Z" fill="#000000" fill-rule="nonzero" fill-opacity="1" /><path clip-path="url(#clip600)" d="M2295.14 1193.29 L2295.14 1171.71 L2301 1171.71 L2301 1193.07 Q2301 1198.13 2302.97 1200.67 Q2304.94 1203.19 2308.89 1203.19 Q2313.63 1203.19 2316.37 1200.16 Q2319.14 1197.14 2319.14 1191.92 L2319.14 1171.71 L2325 1171.71 L2325 1207.36 L2319.14 1207.36 L2319.14 1201.88 Q2317.01 1205.13 2314.18 1206.72 Q2311.37 1208.28 2307.65 1208.28 Q2301.51 1208.28 2298.32 1204.46 Q2295.14 1200.64 2295.14 1193.29 M2309.88 1170.85 L2309.88 1170.85 Z" fill="#000000" fill-rule="nonzero" fill-opacity="1" /><path clip-path="url(#clip600)" d="M2367.55 1188.07 L2367.55 1190.93 L2340.62 1190.93 Q2341.01 1196.98 2344.25 1200.16 Q2347.53 1203.32 2353.36 1203.32 Q2356.73 1203.32 2359.88 1202.49 Q2363.06 1201.66 2366.18 1200.01 L2366.18 1205.54 Q2363.03 1206.88 2359.72 1207.58 Q2356.41 1208.28 2353.01 1208.28 Q2344.48 1208.28 2339.48 1203.32 Q2334.51 1198.35 2334.51 1189.88 Q2334.51 1181.13 2339.22 1176.01 Q2343.97 1170.85 2351.99 1170.85 Q2359.18 1170.85 2363.35 1175.5 Q2367.55 1180.11 2367.55 1188.07 M2361.7 1186.35 Q2361.63 1181.55 2358.99 1178.68 Q2356.38 1175.82 2352.05 1175.82 Q2347.15 1175.82 2344.19 1178.59 Q2341.26 1181.35 2340.82 1186.38 L2361.7 1186.35 Z" fill="#000000" fill-rule="nonzero" fill-opacity="1" /><path clip-path="url(#clip600)" d="M2399.89 1172.76 L2399.89 1178.3 Q2397.41 1177.03 2394.73 1176.39 Q2392.06 1175.75 2389.19 1175.75 Q2384.83 1175.75 2382.64 1177.09 Q2380.47 1178.43 2380.47 1181.1 Q2380.47 1183.14 2382.03 1184.31 Q2383.59 1185.46 2388.3 1186.51 L2390.31 1186.96 Q2396.55 1188.29 2399.16 1190.74 Q2401.8 1193.16 2401.8 1197.52 Q2401.8 1202.49 2397.85 1205.38 Q2393.94 1208.28 2387.06 1208.28 Q2384.2 1208.28 2381.08 1207.71 Q2377.99 1207.17 2374.55 1206.05 L2374.55 1200.01 Q2377.8 1201.69 2380.95 1202.55 Q2384.1 1203.38 2387.19 1203.38 Q2391.33 1203.38 2393.56 1201.98 Q2395.78 1200.55 2395.78 1197.97 Q2395.78 1195.58 2394.16 1194.31 Q2392.57 1193.04 2387.13 1191.86 L2385.09 1191.38 Q2379.65 1190.23 2377.23 1187.88 Q2374.81 1185.49 2374.81 1181.35 Q2374.81 1176.33 2378.37 1173.59 Q2381.94 1170.85 2388.49 1170.85 Q2391.74 1170.85 2394.61 1171.33 Q2397.47 1171.81 2399.89 1172.76 Z" fill="#000000" fill-rule="nonzero" fill-opacity="1" /><polyline clip-path="url(#clip600)" style="stroke:#000000; stroke-linecap:round; stroke-linejoin:round; stroke-width:4; stroke-opacity:1; fill:none" points="1644.23,1056.49 1644.23,101.872 "/>
<polyline clip-path="url(#clip600)" style="stroke:#000000; stroke-linecap:round; stroke-linejoin:round; stroke-width:4; stroke-opacity:1; fill:none" points="1644.23,934.525 1663.13,934.525 "/>
<polyline clip-path="url(#clip600)" style="stroke:#000000; stroke-linecap:round; stroke-linejoin:round; stroke-width:4; stroke-opacity:1; fill:none" points="1644.23,807.031 1663.13,807.031 "/>
<polyline clip-path="url(#clip600)" style="stroke:#000000; stroke-linecap:round; stroke-linejoin:round; stroke-width:4; stroke-opacity:1; fill:none" points="1644.23,679.536 1663.13,679.536 "/>
<polyline clip-path="url(#clip600)" style="stroke:#000000; stroke-linecap:round; stroke-linejoin:round; stroke-width:4; stroke-opacity:1; fill:none" points="1644.23,552.042 1663.13,552.042 "/>
<polyline clip-path="url(#clip600)" style="stroke:#000000; stroke-linecap:round; stroke-linejoin:round; stroke-width:4; stroke-opacity:1; fill:none" points="1644.23,424.547 1663.13,424.547 "/>
<polyline clip-path="url(#clip600)" style="stroke:#000000; stroke-linecap:round; stroke-linejoin:round; stroke-width:4; stroke-opacity:1; fill:none" points="1644.23,297.053 1663.13,297.053 "/>
<polyline clip-path="url(#clip600)" style="stroke:#000000; stroke-linecap:round; stroke-linejoin:round; stroke-width:4; stroke-opacity:1; fill:none" points="1644.23,169.559 1663.13,169.559 "/>
<path clip-path="url(#clip600)" d="M1496.28 934.976 L1525.96 934.976 L1525.96 938.912 L1496.28 938.912 L1496.28 934.976 Z" fill="#000000" fill-rule="nonzero" fill-opacity="1" /><path clip-path="url(#clip600)" d="M1536.86 947.87 L1544.5 947.87 L1544.5 921.504 L1536.19 923.171 L1536.19 918.912 L1544.46 917.245 L1549.13 917.245 L1549.13 947.87 L1556.77 947.87 L1556.77 951.805 L1536.86 951.805 L1536.86 947.87 Z" fill="#000000" fill-rule="nonzero" fill-opacity="1" /><path clip-path="url(#clip600)" d="M1566.21 945.925 L1571.1 945.925 L1571.1 951.805 L1566.21 951.805 L1566.21 945.925 Z" fill="#000000" fill-rule="nonzero" fill-opacity="1" /><path clip-path="url(#clip600)" d="M1581.33 917.245 L1599.69 917.245 L1599.69 921.18 L1585.61 921.18 L1585.61 929.652 Q1586.63 929.305 1587.65 929.143 Q1588.67 928.958 1589.69 928.958 Q1595.47 928.958 1598.85 932.129 Q1602.23 935.301 1602.23 940.717 Q1602.23 946.296 1598.76 949.398 Q1595.29 952.476 1588.97 952.476 Q1586.79 952.476 1584.52 952.106 Q1582.28 951.736 1579.87 950.995 L1579.87 946.296 Q1581.95 947.43 1584.18 947.986 Q1586.4 948.541 1588.88 948.541 Q1592.88 948.541 1595.22 946.435 Q1597.56 944.328 1597.56 940.717 Q1597.56 937.106 1595.22 935 Q1592.88 932.893 1588.88 932.893 Q1587 932.893 1585.13 933.31 Q1583.27 933.726 1581.33 934.606 L1581.33 917.245 Z" fill="#000000" fill-rule="nonzero" fill-opacity="1" /><path clip-path="url(#clip600)" d="M1495.29 807.482 L1524.96 807.482 L1524.96 811.417 L1495.29 811.417 L1495.29 807.482 Z" fill="#000000" fill-rule="nonzero" fill-opacity="1" /><path clip-path="url(#clip600)" d="M1535.87 820.375 L1543.51 820.375 L1543.51 794.01 L1535.2 795.677 L1535.2 791.417 L1543.46 789.751 L1548.14 789.751 L1548.14 820.375 L1555.77 820.375 L1555.77 824.311 L1535.87 824.311 L1535.87 820.375 Z" fill="#000000" fill-rule="nonzero" fill-opacity="1" /><path clip-path="url(#clip600)" d="M1565.22 818.431 L1570.1 818.431 L1570.1 824.311 L1565.22 824.311 L1565.22 818.431 Z" fill="#000000" fill-rule="nonzero" fill-opacity="1" /><path clip-path="url(#clip600)" d="M1590.29 792.829 Q1586.68 792.829 1584.85 796.394 Q1583.04 799.936 1583.04 807.065 Q1583.04 814.172 1584.85 817.737 Q1586.68 821.278 1590.29 821.278 Q1593.92 821.278 1595.73 817.737 Q1597.56 814.172 1597.56 807.065 Q1597.56 799.936 1595.73 796.394 Q1593.92 792.829 1590.29 792.829 M1590.29 789.126 Q1596.1 789.126 1599.15 793.732 Q1602.23 798.315 1602.23 807.065 Q1602.23 815.792 1599.15 820.399 Q1596.1 824.982 1590.29 824.982 Q1584.48 824.982 1581.4 820.399 Q1578.34 815.792 1578.34 807.065 Q1578.34 798.315 1581.4 793.732 Q1584.48 789.126 1590.29 789.126 Z" fill="#000000" fill-rule="nonzero" fill-opacity="1" /><path clip-path="url(#clip600)" d="M1496.28 679.988 L1525.96 679.988 L1525.96 683.923 L1496.28 683.923 L1496.28 679.988 Z" fill="#000000" fill-rule="nonzero" fill-opacity="1" /><path clip-path="url(#clip600)" d="M1546.05 665.335 Q1542.44 665.335 1540.61 668.9 Q1538.81 672.441 1538.81 679.571 Q1538.81 686.677 1540.61 690.242 Q1542.44 693.784 1546.05 693.784 Q1549.69 693.784 1551.49 690.242 Q1553.32 686.677 1553.32 679.571 Q1553.32 672.441 1551.49 668.9 Q1549.69 665.335 1546.05 665.335 M1546.05 661.631 Q1551.86 661.631 1554.92 666.238 Q1558 670.821 1558 679.571 Q1558 688.298 1554.92 692.904 Q1551.86 697.488 1546.05 697.488 Q1540.24 697.488 1537.16 692.904 Q1534.11 688.298 1534.11 679.571 Q1534.11 670.821 1537.16 666.238 Q1540.24 661.631 1546.05 661.631 Z" fill="#000000" fill-rule="nonzero" fill-opacity="1" /><path clip-path="url(#clip600)" d="M1566.21 690.937 L1571.1 690.937 L1571.1 696.816 L1566.21 696.816 L1566.21 690.937 Z" fill="#000000" fill-rule="nonzero" fill-opacity="1" /><path clip-path="url(#clip600)" d="M1581.33 662.256 L1599.69 662.256 L1599.69 666.191 L1585.61 666.191 L1585.61 674.664 Q1586.63 674.316 1587.65 674.154 Q1588.67 673.969 1589.69 673.969 Q1595.47 673.969 1598.85 677.14 Q1602.23 680.312 1602.23 685.728 Q1602.23 691.307 1598.76 694.409 Q1595.29 697.488 1588.97 697.488 Q1586.79 697.488 1584.52 697.117 Q1582.28 696.747 1579.87 696.006 L1579.87 691.307 Q1581.95 692.441 1584.18 692.997 Q1586.4 693.552 1588.88 693.552 Q1592.88 693.552 1595.22 691.446 Q1597.56 689.339 1597.56 685.728 Q1597.56 682.117 1595.22 680.011 Q1592.88 677.904 1588.88 677.904 Q1587 677.904 1585.13 678.321 Q1583.27 678.738 1581.33 679.617 L1581.33 662.256 Z" fill="#000000" fill-rule="nonzero" fill-opacity="1" /><path clip-path="url(#clip600)" d="M1545.06 537.841 Q1541.45 537.841 1539.62 541.405 Q1537.81 544.947 1537.81 552.077 Q1537.81 559.183 1539.62 562.748 Q1541.45 566.289 1545.06 566.289 Q1548.69 566.289 1550.5 562.748 Q1552.33 559.183 1552.33 552.077 Q1552.33 544.947 1550.5 541.405 Q1548.69 537.841 1545.06 537.841 M1545.06 534.137 Q1550.87 534.137 1553.92 538.743 Q1557 543.327 1557 552.077 Q1557 560.803 1553.92 565.41 Q1550.87 569.993 1545.06 569.993 Q1539.25 569.993 1536.17 565.41 Q1533.11 560.803 1533.11 552.077 Q1533.11 543.327 1536.17 538.743 Q1539.25 534.137 1545.06 534.137 Z" fill="#000000" fill-rule="nonzero" fill-opacity="1" /><path clip-path="url(#clip600)" d="M1565.22 563.442 L1570.1 563.442 L1570.1 569.322 L1565.22 569.322 L1565.22 563.442 Z" fill="#000000" fill-rule="nonzero" fill-opacity="1" /><path clip-path="url(#clip600)" d="M1590.29 537.841 Q1586.68 537.841 1584.85 541.405 Q1583.04 544.947 1583.04 552.077 Q1583.04 559.183 1584.85 562.748 Q1586.68 566.289 1590.29 566.289 Q1593.92 566.289 1595.73 562.748 Q1597.56 559.183 1597.56 552.077 Q1597.56 544.947 1595.73 541.405 Q1593.92 537.841 1590.29 537.841 M1590.29 534.137 Q1596.1 534.137 1599.15 538.743 Q1602.23 543.327 1602.23 552.077 Q1602.23 560.803 1599.15 565.41 Q1596.1 569.993 1590.29 569.993 Q1584.48 569.993 1581.4 565.41 Q1578.34 560.803 1578.34 552.077 Q1578.34 543.327 1581.4 538.743 Q1584.48 534.137 1590.29 534.137 Z" fill="#000000" fill-rule="nonzero" fill-opacity="1" /><path clip-path="url(#clip600)" d="M1546.05 410.346 Q1542.44 410.346 1540.61 413.911 Q1538.81 417.453 1538.81 424.582 Q1538.81 431.689 1540.61 435.253 Q1542.44 438.795 1546.05 438.795 Q1549.69 438.795 1551.49 435.253 Q1553.32 431.689 1553.32 424.582 Q1553.32 417.453 1551.49 413.911 Q1549.69 410.346 1546.05 410.346 M1546.05 406.642 Q1551.86 406.642 1554.92 411.249 Q1558 415.832 1558 424.582 Q1558 433.309 1554.92 437.915 Q1551.86 442.499 1546.05 442.499 Q1540.24 442.499 1537.16 437.915 Q1534.11 433.309 1534.11 424.582 Q1534.11 415.832 1537.16 411.249 Q1540.24 406.642 1546.05 406.642 Z" fill="#000000" fill-rule="nonzero" fill-opacity="1" /><path clip-path="url(#clip600)" d="M1566.21 435.948 L1571.1 435.948 L1571.1 441.827 L1566.21 441.827 L1566.21 435.948 Z" fill="#000000" fill-rule="nonzero" fill-opacity="1" /><path clip-path="url(#clip600)" d="M1581.33 407.267 L1599.69 407.267 L1599.69 411.203 L1585.61 411.203 L1585.61 419.675 Q1586.63 419.328 1587.65 419.166 Q1588.67 418.98 1589.69 418.98 Q1595.47 418.98 1598.85 422.152 Q1602.23 425.323 1602.23 430.74 Q1602.23 436.318 1598.76 439.42 Q1595.29 442.499 1588.97 442.499 Q1586.79 442.499 1584.52 442.128 Q1582.28 441.758 1579.87 441.017 L1579.87 436.318 Q1581.95 437.452 1584.18 438.008 Q1586.4 438.564 1588.88 438.564 Q1592.88 438.564 1595.22 436.457 Q1597.56 434.351 1597.56 430.74 Q1597.56 427.128 1595.22 425.022 Q1592.88 422.915 1588.88 422.915 Q1587 422.915 1585.13 423.332 Q1583.27 423.749 1581.33 424.628 L1581.33 407.267 Z" fill="#000000" fill-rule="nonzero" fill-opacity="1" /><path clip-path="url(#clip600)" d="M1535.87 310.398 L1543.51 310.398 L1543.51 284.032 L1535.2 285.699 L1535.2 281.44 L1543.46 279.773 L1548.14 279.773 L1548.14 310.398 L1555.77 310.398 L1555.77 314.333 L1535.87 314.333 L1535.87 310.398 Z" fill="#000000" fill-rule="nonzero" fill-opacity="1" /><path clip-path="url(#clip600)" d="M1565.22 308.453 L1570.1 308.453 L1570.1 314.333 L1565.22 314.333 L1565.22 308.453 Z" fill="#000000" fill-rule="nonzero" fill-opacity="1" /><path clip-path="url(#clip600)" d="M1590.29 282.852 Q1586.68 282.852 1584.85 286.416 Q1583.04 289.958 1583.04 297.088 Q1583.04 304.194 1584.85 307.759 Q1586.68 311.301 1590.29 311.301 Q1593.92 311.301 1595.73 307.759 Q1597.56 304.194 1597.56 297.088 Q1597.56 289.958 1595.73 286.416 Q1593.92 282.852 1590.29 282.852 M1590.29 279.148 Q1596.1 279.148 1599.15 283.754 Q1602.23 288.338 1602.23 297.088 Q1602.23 305.815 1599.15 310.421 Q1596.1 315.004 1590.29 315.004 Q1584.48 315.004 1581.4 310.421 Q1578.34 305.815 1578.34 297.088 Q1578.34 288.338 1581.4 283.754 Q1584.48 279.148 1590.29 279.148 Z" fill="#000000" fill-rule="nonzero" fill-opacity="1" /><path clip-path="url(#clip600)" d="M1536.86 182.903 L1544.5 182.903 L1544.5 156.538 L1536.19 158.204 L1536.19 153.945 L1544.46 152.279 L1549.13 152.279 L1549.13 182.903 L1556.77 182.903 L1556.77 186.839 L1536.86 186.839 L1536.86 182.903 Z" fill="#000000" fill-rule="nonzero" fill-opacity="1" /><path clip-path="url(#clip600)" d="M1566.21 180.959 L1571.1 180.959 L1571.1 186.839 L1566.21 186.839 L1566.21 180.959 Z" fill="#000000" fill-rule="nonzero" fill-opacity="1" /><path clip-path="url(#clip600)" d="M1581.33 152.279 L1599.69 152.279 L1599.69 156.214 L1585.61 156.214 L1585.61 164.686 Q1586.63 164.339 1587.65 164.177 Q1588.67 163.991 1589.69 163.991 Q1595.47 163.991 1598.85 167.163 Q1602.23 170.334 1602.23 175.751 Q1602.23 181.329 1598.76 184.431 Q1595.29 187.51 1588.97 187.51 Q1586.79 187.51 1584.52 187.14 Q1582.28 186.769 1579.87 186.028 L1579.87 181.329 Q1581.95 182.464 1584.18 183.019 Q1586.4 183.575 1588.88 183.575 Q1592.88 183.575 1595.22 181.468 Q1597.56 179.362 1597.56 175.751 Q1597.56 172.14 1595.22 170.033 Q1592.88 167.927 1588.88 167.927 Q1587 167.927 1585.13 168.343 Q1583.27 168.76 1581.33 169.64 L1581.33 152.279 Z" fill="#000000" fill-rule="nonzero" fill-opacity="1" /><path clip-path="url(#clip600)" d="M1416.75 706.481 Q1417.45 704.412 1419.74 702.471 Q1422.04 700.498 1426.05 698.524 L1439.03 691.999 L1439.03 698.906 L1426.84 704.985 Q1422.07 707.341 1420.51 709.569 Q1418.95 711.765 1418.95 715.584 L1418.95 722.587 L1439.03 722.587 L1439.03 729.016 L1391.51 729.016 L1391.51 714.502 Q1391.51 706.354 1394.92 702.344 Q1398.32 698.333 1405.2 698.333 Q1409.69 698.333 1412.65 700.434 Q1415.61 702.503 1416.75 706.481 M1396.8 722.587 L1413.67 722.587 L1413.67 714.502 Q1413.67 709.855 1411.53 707.5 Q1409.37 705.113 1405.2 705.113 Q1401.03 705.113 1398.93 707.5 Q1396.8 709.855 1396.8 714.502 L1396.8 722.587 Z" fill="#000000" fill-rule="nonzero" fill-opacity="1" /><path clip-path="url(#clip600)" d="M1419.74 656.415 L1422.61 656.415 L1422.61 683.342 Q1428.66 682.96 1431.84 679.714 Q1434.99 676.435 1434.99 670.611 Q1434.99 667.237 1434.16 664.086 Q1433.34 660.903 1431.68 657.784 L1437.22 657.784 Q1438.56 660.935 1439.26 664.245 Q1439.96 667.555 1439.96 670.961 Q1439.96 679.491 1434.99 684.488 Q1430.03 689.453 1421.56 689.453 Q1412.81 689.453 1407.68 684.742 Q1402.53 680 1402.53 671.979 Q1402.53 664.786 1407.17 660.616 Q1411.79 656.415 1419.74 656.415 M1418.03 662.272 Q1413.22 662.335 1410.36 664.977 Q1407.49 667.587 1407.49 671.916 Q1407.49 676.817 1410.26 679.777 Q1413.03 682.705 1418.06 683.151 L1418.03 662.272 Z" fill="#000000" fill-rule="nonzero" fill-opacity="1" /><path clip-path="url(#clip600)" d="M1404.44 624.077 L1409.97 624.077 Q1408.7 626.56 1408.06 629.233 Q1407.43 631.907 1407.43 634.772 Q1407.43 639.132 1408.76 641.328 Q1410.1 643.493 1412.77 643.493 Q1414.81 643.493 1415.99 641.933 Q1417.13 640.373 1418.19 635.663 L1418.63 633.658 Q1419.97 627.419 1422.42 624.809 Q1424.84 622.168 1429.2 622.168 Q1434.16 622.168 1437.06 626.114 Q1439.96 630.029 1439.96 636.904 Q1439.96 639.769 1439.38 642.888 Q1438.84 645.975 1437.73 649.413 L1431.68 649.413 Q1433.37 646.166 1434.23 643.015 Q1435.05 639.864 1435.05 636.777 Q1435.05 632.639 1433.65 630.411 Q1432.22 628.183 1429.64 628.183 Q1427.26 628.183 1425.98 629.806 Q1424.71 631.398 1423.53 636.841 L1423.05 638.878 Q1421.91 644.32 1419.55 646.739 Q1417.17 649.158 1413.03 649.158 Q1408 649.158 1405.26 645.593 Q1402.53 642.029 1402.53 635.472 Q1402.53 632.225 1403 629.361 Q1403.48 626.496 1404.44 624.077 Z" fill="#000000" fill-rule="nonzero" fill-opacity="1" /><path clip-path="url(#clip600)" d="M1403.38 612.842 L1403.38 606.985 L1439.03 606.985 L1439.03 612.842 L1403.38 612.842 M1389.51 612.842 L1389.51 606.985 L1396.92 606.985 L1396.92 612.842 L1389.51 612.842 Z" fill="#000000" fill-rule="nonzero" fill-opacity="1" /><path clip-path="url(#clip600)" d="M1408.8 571.274 L1389.51 571.274 L1389.51 565.417 L1439.03 565.417 L1439.03 571.274 L1433.69 571.274 Q1436.87 573.12 1438.43 575.953 Q1439.96 578.753 1439.96 582.7 Q1439.96 589.161 1434.8 593.235 Q1429.64 597.278 1421.24 597.278 Q1412.84 597.278 1407.68 593.235 Q1402.53 589.161 1402.53 582.7 Q1402.53 578.753 1404.08 575.953 Q1405.61 573.12 1408.8 571.274 M1421.24 591.23 Q1427.7 591.23 1431.39 588.588 Q1435.05 585.915 1435.05 581.268 Q1435.05 576.621 1431.39 573.947 Q1427.7 571.274 1421.24 571.274 Q1414.78 571.274 1411.12 573.947 Q1407.43 576.621 1407.43 581.268 Q1407.43 585.915 1411.12 588.588 Q1414.78 591.23 1421.24 591.23 Z" fill="#000000" fill-rule="nonzero" fill-opacity="1" /><path clip-path="url(#clip600)" d="M1424.96 553.959 L1403.38 553.959 L1403.38 548.103 L1424.74 548.103 Q1429.8 548.103 1432.35 546.129 Q1434.86 544.156 1434.86 540.209 Q1434.86 535.467 1431.84 532.729 Q1428.82 529.96 1423.6 529.96 L1403.38 529.96 L1403.38 524.104 L1439.03 524.104 L1439.03 529.96 L1433.56 529.96 Q1436.8 532.093 1438.4 534.926 Q1439.96 537.726 1439.96 541.45 Q1439.96 547.593 1436.14 550.776 Q1432.32 553.959 1424.96 553.959 M1402.53 539.222 L1402.53 539.222 Z" fill="#000000" fill-rule="nonzero" fill-opacity="1" /><path clip-path="url(#clip600)" d="M1421.11 495.84 Q1421.11 502.938 1422.74 505.675 Q1424.36 508.412 1428.27 508.412 Q1431.39 508.412 1433.24 506.375 Q1435.05 504.307 1435.05 500.774 Q1435.05 495.904 1431.62 492.976 Q1428.15 490.015 1422.42 490.015 L1421.11 490.015 L1421.11 495.84 M1418.69 484.159 L1439.03 484.159 L1439.03 490.015 L1433.62 490.015 Q1436.87 492.021 1438.43 495.013 Q1439.96 498.004 1439.96 502.333 Q1439.96 507.808 1436.9 511.054 Q1433.81 514.269 1428.66 514.269 Q1422.64 514.269 1419.59 510.258 Q1416.53 506.216 1416.53 498.227 L1416.53 490.015 L1415.96 490.015 Q1411.91 490.015 1409.72 492.689 Q1407.49 495.331 1407.49 500.137 Q1407.49 503.193 1408.22 506.089 Q1408.95 508.985 1410.42 511.659 L1405.01 511.659 Q1403.77 508.444 1403.16 505.421 Q1402.53 502.397 1402.53 499.532 Q1402.53 491.798 1406.54 487.978 Q1410.55 484.159 1418.69 484.159 Z" fill="#000000" fill-rule="nonzero" fill-opacity="1" /><path clip-path="url(#clip600)" d="M1389.51 472.096 L1389.51 466.24 L1439.03 466.24 L1439.03 472.096 L1389.51 472.096 Z" fill="#000000" fill-rule="nonzero" fill-opacity="1" /><path clip-path="url(#clip600)" d="M1404.44 431.26 L1409.97 431.26 Q1408.7 433.743 1408.06 436.416 Q1407.43 439.09 1407.43 441.954 Q1407.43 446.315 1408.76 448.511 Q1410.1 450.675 1412.77 450.675 Q1414.81 450.675 1415.99 449.116 Q1417.13 447.556 1418.19 442.846 L1418.63 440.84 Q1419.97 434.602 1422.42 431.992 Q1424.84 429.35 1429.2 429.35 Q1434.16 429.35 1437.06 433.297 Q1439.96 437.212 1439.96 444.087 Q1439.96 446.951 1439.38 450.071 Q1438.84 453.158 1437.73 456.596 L1431.68 456.596 Q1433.37 453.349 1434.23 450.198 Q1435.05 447.047 1435.05 443.96 Q1435.05 439.822 1433.65 437.594 Q1432.22 435.366 1429.64 435.366 Q1427.26 435.366 1425.98 436.989 Q1424.71 438.581 1423.53 444.023 L1423.05 446.06 Q1421.91 451.503 1419.55 453.922 Q1417.17 456.341 1413.03 456.341 Q1408 456.341 1405.26 452.776 Q1402.53 449.211 1402.53 442.655 Q1402.53 439.408 1403 436.544 Q1403.48 433.679 1404.44 431.26 Z" fill="#000000" fill-rule="nonzero" fill-opacity="1" /><path clip-path="url(#clip600)" d="M1848.94 44.2197 Q1851.57 45.1109 1854.05 48.0275 Q1856.56 50.9442 1859.07 56.0483 L1867.37 72.576 L1858.58 72.576 L1850.85 57.061 Q1847.85 50.9847 1845.01 48.9997 Q1842.22 47.0148 1837.36 47.0148 L1828.44 47.0148 L1828.44 72.576 L1820.26 72.576 L1820.26 12.096 L1838.73 12.096 Q1849.1 12.096 1854.21 16.4305 Q1859.31 20.7649 1859.31 29.5149 Q1859.31 35.2267 1856.64 38.994 Q1854.01 42.7613 1848.94 44.2197 M1828.44 18.8205 L1828.44 40.2903 L1838.73 40.2903 Q1844.65 40.2903 1847.65 37.5762 Q1850.68 34.8216 1850.68 29.5149 Q1850.68 24.2082 1847.65 21.5346 Q1844.65 18.8205 1838.73 18.8205 L1828.44 18.8205 Z" fill="#000000" fill-rule="nonzero" fill-opacity="1" /><path clip-path="url(#clip600)" d="M1912.66 48.0275 L1912.66 51.6733 L1878.39 51.6733 Q1878.88 59.3701 1883.01 63.421 Q1887.18 67.4314 1894.6 67.4314 Q1898.89 67.4314 1902.9 66.3781 Q1906.95 65.3249 1910.92 63.2184 L1910.92 70.267 Q1906.91 71.9684 1902.7 72.8596 Q1898.48 73.7508 1894.15 73.7508 Q1883.29 73.7508 1876.93 67.4314 Q1870.61 61.1119 1870.61 50.3365 Q1870.61 39.1965 1876.61 32.6746 Q1882.65 26.1121 1892.85 26.1121 Q1902.01 26.1121 1907.32 32.0264 Q1912.66 37.9003 1912.66 48.0275 M1905.21 45.84 Q1905.13 39.7232 1901.77 36.0774 Q1898.44 32.4315 1892.93 32.4315 Q1886.7 32.4315 1882.93 35.9558 Q1879.2 39.4801 1878.63 45.8805 L1905.21 45.84 Z" fill="#000000" fill-rule="nonzero" fill-opacity="1" /><path clip-path="url(#clip600)" d="M1953.82 28.5427 L1953.82 35.5912 Q1950.66 33.9709 1947.26 33.1607 Q1943.85 32.3505 1940.21 32.3505 Q1934.66 32.3505 1931.86 34.0519 Q1929.11 35.7533 1929.11 39.156 Q1929.11 41.7486 1931.09 43.2475 Q1933.08 44.7058 1939.07 46.0426 L1941.63 46.6097 Q1949.57 48.3111 1952.89 51.4303 Q1956.25 54.509 1956.25 60.0587 Q1956.25 66.3781 1951.23 70.0644 Q1946.24 73.7508 1937.49 73.7508 Q1933.85 73.7508 1929.88 73.0216 Q1925.95 72.3329 1921.57 70.9151 L1921.57 63.2184 Q1925.71 65.3654 1929.72 66.4591 Q1933.73 67.5124 1937.66 67.5124 Q1942.92 67.5124 1945.76 65.73 Q1948.59 63.9071 1948.59 60.6258 Q1948.59 57.5877 1946.53 55.9673 Q1944.5 54.3469 1937.58 52.8481 L1934.98 52.2405 Q1928.06 50.7821 1924.98 47.7845 Q1921.9 44.7463 1921.9 39.4801 Q1921.9 33.0797 1926.44 29.5959 Q1930.97 26.1121 1939.32 26.1121 Q1943.45 26.1121 1947.1 26.7198 Q1950.74 27.3274 1953.82 28.5427 Z" fill="#000000" fill-rule="nonzero" fill-opacity="1" /><path clip-path="url(#clip600)" d="M1968.12 27.2059 L1975.57 27.2059 L1975.57 72.576 L1968.12 72.576 L1968.12 27.2059 M1968.12 9.54393 L1975.57 9.54393 L1975.57 18.9825 L1968.12 18.9825 L1968.12 9.54393 Z" fill="#000000" fill-rule="nonzero" fill-opacity="1" /><path clip-path="url(#clip600)" d="M2021.02 34.0924 L2021.02 9.54393 L2028.48 9.54393 L2028.48 72.576 L2021.02 72.576 L2021.02 65.7705 Q2018.67 69.8214 2015.07 71.8063 Q2011.5 73.7508 2006.48 73.7508 Q1998.26 73.7508 1993.07 67.1883 Q1987.93 60.6258 1987.93 49.9314 Q1987.93 39.2371 1993.07 32.6746 Q1998.26 26.1121 2006.48 26.1121 Q2011.5 26.1121 2015.07 28.0971 Q2018.67 30.0415 2021.02 34.0924 M1995.62 49.9314 Q1995.62 58.1548 1998.99 62.8538 Q2002.39 67.5124 2008.3 67.5124 Q2014.22 67.5124 2017.62 62.8538 Q2021.02 58.1548 2021.02 49.9314 Q2021.02 41.7081 2017.62 37.0496 Q2014.22 32.3505 2008.3 32.3505 Q2002.39 32.3505 1998.99 37.0496 Q1995.62 41.7081 1995.62 49.9314 Z" fill="#000000" fill-rule="nonzero" fill-opacity="1" /><path clip-path="url(#clip600)" d="M2043.06 54.671 L2043.06 27.2059 L2050.51 27.2059 L2050.51 54.3874 Q2050.51 60.8284 2053.03 64.0691 Q2055.54 67.2693 2060.56 67.2693 Q2066.6 67.2693 2070.08 63.421 Q2073.6 59.5726 2073.6 52.9291 L2073.6 27.2059 L2081.06 27.2059 L2081.06 72.576 L2073.6 72.576 L2073.6 65.6084 Q2070.89 69.7404 2067.29 71.7658 Q2063.72 73.7508 2058.98 73.7508 Q2051.16 73.7508 2047.11 68.8897 Q2043.06 64.0286 2043.06 54.671 M2061.82 26.1121 L2061.82 26.1121 Z" fill="#000000" fill-rule="nonzero" fill-opacity="1" /><path clip-path="url(#clip600)" d="M2117.03 49.7694 Q2108 49.7694 2104.51 51.8354 Q2101.03 53.9013 2101.03 58.8839 Q2101.03 62.8538 2103.62 65.2034 Q2106.26 67.5124 2110.75 67.5124 Q2116.95 67.5124 2120.68 63.1374 Q2124.44 58.7219 2124.44 51.4303 L2124.44 49.7694 L2117.03 49.7694 M2131.9 46.6907 L2131.9 72.576 L2124.44 72.576 L2124.44 65.6895 Q2121.89 69.8214 2118.08 71.8063 Q2114.28 73.7508 2108.77 73.7508 Q2101.8 73.7508 2097.67 69.8619 Q2093.58 65.9325 2093.58 59.3701 Q2093.58 51.7138 2098.68 47.825 Q2103.82 43.9361 2113.99 43.9361 L2124.44 43.9361 L2124.44 43.2069 Q2124.44 38.0623 2121.04 35.2672 Q2117.68 32.4315 2111.56 32.4315 Q2107.67 32.4315 2103.99 33.3632 Q2100.3 34.295 2096.9 36.1584 L2096.9 29.2718 Q2100.99 27.692 2104.84 26.9223 Q2108.69 26.1121 2112.33 26.1121 Q2122.18 26.1121 2127.04 31.2163 Q2131.9 36.3204 2131.9 46.6907 Z" fill="#000000" fill-rule="nonzero" fill-opacity="1" /><path clip-path="url(#clip600)" d="M2147.25 9.54393 L2154.7 9.54393 L2154.7 72.576 L2147.25 72.576 L2147.25 9.54393 Z" fill="#000000" fill-rule="nonzero" fill-opacity="1" /><path clip-path="url(#clip600)" d="M2199.22 28.5427 L2199.22 35.5912 Q2196.06 33.9709 2192.66 33.1607 Q2189.26 32.3505 2185.61 32.3505 Q2180.06 32.3505 2177.27 34.0519 Q2174.51 35.7533 2174.51 39.156 Q2174.51 41.7486 2176.5 43.2475 Q2178.48 44.7058 2184.48 46.0426 L2187.03 46.6097 Q2194.97 48.3111 2198.29 51.4303 Q2201.65 54.509 2201.65 60.0587 Q2201.65 66.3781 2196.63 70.0644 Q2191.65 73.7508 2182.9 73.7508 Q2179.25 73.7508 2175.28 73.0216 Q2171.35 72.3329 2166.98 70.9151 L2166.98 63.2184 Q2171.11 65.3654 2175.12 66.4591 Q2179.13 67.5124 2183.06 67.5124 Q2188.33 67.5124 2191.16 65.73 Q2194 63.9071 2194 60.6258 Q2194 57.5877 2191.93 55.9673 Q2189.91 54.3469 2182.98 52.8481 L2180.39 52.2405 Q2173.46 50.7821 2170.38 47.7845 Q2167.3 44.7463 2167.3 39.4801 Q2167.3 33.0797 2171.84 29.5959 Q2176.38 26.1121 2184.72 26.1121 Q2188.85 26.1121 2192.5 26.7198 Q2196.14 27.3274 2199.22 28.5427 Z" fill="#000000" fill-rule="nonzero" fill-opacity="1" /><path clip-path="url(#clip600)" d="M2234.55 27.2059 L2242.45 27.2059 L2256.62 65.2844 L2270.8 27.2059 L2278.7 27.2059 L2261.69 72.576 L2251.56 72.576 L2234.55 27.2059 Z" fill="#000000" fill-rule="nonzero" fill-opacity="1" /><path clip-path="url(#clip600)" d="M2317.91 28.5427 L2317.91 35.5912 Q2314.76 33.9709 2311.35 33.1607 Q2307.95 32.3505 2304.3 32.3505 Q2298.75 32.3505 2295.96 34.0519 Q2293.2 35.7533 2293.2 39.156 Q2293.2 41.7486 2295.19 43.2475 Q2297.17 44.7058 2303.17 46.0426 L2305.72 46.6097 Q2313.66 48.3111 2316.98 51.4303 Q2320.35 54.509 2320.35 60.0587 Q2320.35 66.3781 2315.32 70.0644 Q2310.34 73.7508 2301.59 73.7508 Q2297.94 73.7508 2293.97 73.0216 Q2290.04 72.3329 2285.67 70.9151 L2285.67 63.2184 Q2289.8 65.3654 2293.81 66.4591 Q2297.82 67.5124 2301.75 67.5124 Q2307.02 67.5124 2309.85 65.73 Q2312.69 63.9071 2312.69 60.6258 Q2312.69 57.5877 2310.62 55.9673 Q2308.6 54.3469 2301.67 52.8481 L2299.08 52.2405 Q2292.15 50.7821 2289.07 47.7845 Q2285.99 44.7463 2285.99 39.4801 Q2285.99 33.0797 2290.53 29.5959 Q2295.07 26.1121 2303.41 26.1121 Q2307.54 26.1121 2311.19 26.7198 Q2314.84 27.3274 2317.91 28.5427 Z" fill="#000000" fill-rule="nonzero" fill-opacity="1" /><path clip-path="url(#clip600)" d="M2358.91 12.096 L2393.67 12.096 L2393.67 18.9825 L2367.09 18.9825 L2367.09 36.8065 L2391.07 36.8065 L2391.07 43.6931 L2367.09 43.6931 L2367.09 72.576 L2358.91 72.576 L2358.91 12.096 Z" fill="#000000" fill-rule="nonzero" fill-opacity="1" /><path clip-path="url(#clip600)" d="M2400.27 27.2059 L2407.72 27.2059 L2407.72 72.576 L2400.27 72.576 L2400.27 27.2059 M2400.27 9.54393 L2407.72 9.54393 L2407.72 18.9825 L2400.27 18.9825 L2400.27 9.54393 Z" fill="#000000" fill-rule="nonzero" fill-opacity="1" /><path clip-path="url(#clip600)" d="M2430.69 14.324 L2430.69 27.2059 L2446.05 27.2059 L2446.05 32.9987 L2430.69 32.9987 L2430.69 57.6282 Q2430.69 63.1779 2432.19 64.7578 Q2433.73 66.3376 2438.39 66.3376 L2446.05 66.3376 L2446.05 72.576 L2438.39 72.576 Q2429.76 72.576 2426.48 69.3758 Q2423.2 66.1351 2423.2 57.6282 L2423.2 32.9987 L2417.73 32.9987 L2417.73 27.2059 L2423.2 27.2059 L2423.2 14.324 L2430.69 14.324 Z" fill="#000000" fill-rule="nonzero" fill-opacity="1" /><path clip-path="url(#clip600)" d="M2463.22 14.324 L2463.22 27.2059 L2478.57 27.2059 L2478.57 32.9987 L2463.22 32.9987 L2463.22 57.6282 Q2463.22 63.1779 2464.72 64.7578 Q2466.26 66.3376 2470.92 66.3376 L2478.57 66.3376 L2478.57 72.576 L2470.92 72.576 Q2462.29 72.576 2459.01 69.3758 Q2455.73 66.1351 2455.73 57.6282 L2455.73 32.9987 L2450.26 32.9987 L2450.26 27.2059 L2455.73 27.2059 L2455.73 14.324 L2463.22 14.324 Z" fill="#000000" fill-rule="nonzero" fill-opacity="1" /><path clip-path="url(#clip600)" d="M2527.18 48.0275 L2527.18 51.6733 L2492.91 51.6733 Q2493.4 59.3701 2497.53 63.421 Q2501.7 67.4314 2509.12 67.4314 Q2513.41 67.4314 2517.42 66.3781 Q2521.47 65.3249 2525.44 63.2184 L2525.44 70.267 Q2521.43 71.9684 2517.22 72.8596 Q2513.01 73.7508 2508.67 73.7508 Q2497.82 73.7508 2491.46 67.4314 Q2485.14 61.1119 2485.14 50.3365 Q2485.14 39.1965 2491.13 32.6746 Q2497.17 26.1121 2507.38 26.1121 Q2516.53 26.1121 2521.84 32.0264 Q2527.18 37.9003 2527.18 48.0275 M2519.73 45.84 Q2519.65 39.7232 2516.29 36.0774 Q2512.97 32.4315 2507.46 32.4315 Q2501.22 32.4315 2497.45 35.9558 Q2493.72 39.4801 2493.16 45.8805 L2519.73 45.84 Z" fill="#000000" fill-rule="nonzero" fill-opacity="1" /><path clip-path="url(#clip600)" d="M2569.27 34.0924 L2569.27 9.54393 L2576.73 9.54393 L2576.73 72.576 L2569.27 72.576 L2569.27 65.7705 Q2566.92 69.8214 2563.32 71.8063 Q2559.75 73.7508 2554.73 73.7508 Q2546.51 73.7508 2541.32 67.1883 Q2536.18 60.6258 2536.18 49.9314 Q2536.18 39.2371 2541.32 32.6746 Q2546.51 26.1121 2554.73 26.1121 Q2559.75 26.1121 2563.32 28.0971 Q2566.92 30.0415 2569.27 34.0924 M2543.87 49.9314 Q2543.87 58.1548 2547.24 62.8538 Q2550.64 67.5124 2556.55 67.5124 Q2562.47 67.5124 2565.87 62.8538 Q2569.27 58.1548 2569.27 49.9314 Q2569.27 41.7081 2565.87 37.0496 Q2562.47 32.3505 2556.55 32.3505 Q2550.64 32.3505 2547.24 37.0496 Q2543.87 41.7081 2543.87 49.9314 Z" fill="#000000" fill-rule="nonzero" fill-opacity="1" /><circle clip-path="url(#clip601)" cx="1675.61" cy="275.412" r="10.8" fill="#4682b4" fill-rule="evenodd" fill-opacity="1" stroke="#000000" stroke-opacity="1" stroke-width="2.4"/>
<circle clip-path="url(#clip601)" cx="1736.1" cy="807.419" r="10.8" fill="#4682b4" fill-rule="evenodd" fill-opacity="1" stroke="#000000" stroke-opacity="1" stroke-width="2.4"/>
<circle clip-path="url(#clip601)" cx="1821.07" cy="728.113" r="10.8" fill="#4682b4" fill-rule="evenodd" fill-opacity="1" stroke="#000000" stroke-opacity="1" stroke-width="2.4"/>
<circle clip-path="url(#clip601)" cx="1933.27" cy="601.481" r="10.8" fill="#4682b4" fill-rule="evenodd" fill-opacity="1" stroke="#000000" stroke-opacity="1" stroke-width="2.4"/>
<circle clip-path="url(#clip601)" cx="2069.53" cy="559.498" r="10.8" fill="#4682b4" fill-rule="evenodd" fill-opacity="1" stroke="#000000" stroke-opacity="1" stroke-width="2.4"/>
<circle clip-path="url(#clip601)" cx="2218" cy="388.308" r="10.8" fill="#4682b4" fill-rule="evenodd" fill-opacity="1" stroke="#000000" stroke-opacity="1" stroke-width="2.4"/>
<circle clip-path="url(#clip601)" cx="2360.04" cy="791.205" r="10.8" fill="#4682b4" fill-rule="evenodd" fill-opacity="1" stroke="#000000" stroke-opacity="1" stroke-width="2.4"/>
<circle clip-path="url(#clip601)" cx="2478.81" cy="353.442" r="10.8" fill="#4682b4" fill-rule="evenodd" fill-opacity="1" stroke="#000000" stroke-opacity="1" stroke-width="2.4"/>
<circle clip-path="url(#clip601)" cx="2567.04" cy="128.89" r="10.8" fill="#4682b4" fill-rule="evenodd" fill-opacity="1" stroke="#000000" stroke-opacity="1" stroke-width="2.4"/>
<circle clip-path="url(#clip601)" cx="2627.13" cy="771.626" r="10.8" fill="#4682b4" fill-rule="evenodd" fill-opacity="1" stroke="#000000" stroke-opacity="1" stroke-width="2.4"/>
<circle clip-path="url(#clip601)" cx="2665.78" cy="356.914" r="10.8" fill="#4682b4" fill-rule="evenodd" fill-opacity="1" stroke="#000000" stroke-opacity="1" stroke-width="2.4"/>
<circle clip-path="url(#clip601)" cx="2689.77" cy="1029.48" r="10.8" fill="#4682b4" fill-rule="evenodd" fill-opacity="1" stroke="#000000" stroke-opacity="1" stroke-width="2.4"/>
<circle clip-path="url(#clip601)" cx="2704.35" cy="804.501" r="10.8" fill="#4682b4" fill-rule="evenodd" fill-opacity="1" stroke="#000000" stroke-opacity="1" stroke-width="2.4"/>
<circle clip-path="url(#clip601)" cx="2713.09" cy="428.286" r="10.8" fill="#4682b4" fill-rule="evenodd" fill-opacity="1" stroke="#000000" stroke-opacity="1" stroke-width="2.4"/>
<circle clip-path="url(#clip601)" cx="2718.3" cy="231.347" r="10.8" fill="#4682b4" fill-rule="evenodd" fill-opacity="1" stroke="#000000" stroke-opacity="1" stroke-width="2.4"/>
<circle clip-path="url(#clip601)" cx="2721.38" cy="511.087" r="10.8" fill="#4682b4" fill-rule="evenodd" fill-opacity="1" stroke="#000000" stroke-opacity="1" stroke-width="2.4"/>
<polyline clip-path="url(#clip601)" style="stroke:#808080; stroke-linecap:round; stroke-linejoin:round; stroke-width:4; stroke-opacity:1; fill:none" stroke-dasharray="2, 4" points="535.709,552.042 3861.28,552.042 "/>
</svg>
