<?xml version="1.0" encoding="utf-8"?>
<svg xmlns="http://www.w3.org/2000/svg" xmlns:xlink="http://www.w3.org/1999/xlink" width="700" height="300" viewBox="0 0 2800 1200">
<defs>
  <clipPath id="clip930">
    <rect x="0" y="0" width="2800" height="1200"/>
  </clipPath>
</defs>
<path clip-path="url(#clip930)" d="M0 1200 L2800 1200 L2800 6.66134e-14 L0 6.66134e-14  Z" fill="#ffffff" fill-rule="evenodd" fill-opacity="1"/>
<defs>
  <clipPath id="clip931">
    <rect x="1644" y="101" width="1110" height="956"/>
  </clipPath>
</defs>
<path clip-path="url(#clip930)" d="M244.233 1056.49 L1352.76 1056.49 L1352.76 101.872 L244.233 101.872  Z" fill="#ffffff" fill-rule="evenodd" fill-opacity="1"/>
<defs>
  <clipPath id="clip932">
    <rect x="244" y="101" width="1110" height="956"/>
  </clipPath>
</defs>
<polyline clip-path="url(#clip932)" style="stroke:#000000; stroke-linecap:round; stroke-linejoin:round; stroke-width:2; stroke-opacity:0.1; fill:none" points="377.429,1056.49 377.429,101.872 "/>
<polyline clip-path="url(#clip932)" style="stroke:#000000; stroke-linecap:round; stroke-linejoin:round; stroke-width:2; stroke-opacity:0.1; fill:none" points="517.784,1056.49 517.784,101.872 "/>
<polyline clip-path="url(#clip932)" style="stroke:#000000; stroke-linecap:round; stroke-linejoin:round; stroke-width:2; stroke-opacity:0.1; fill:none" points="658.139,1056.49 658.139,101.872 "/>
<polyline clip-path="url(#clip932)" style="stroke:#000000; stroke-linecap:round; stroke-linejoin:round; stroke-width:2; stroke-opacity:0.1; fill:none" points="798.494,1056.49 798.494,101.872 "/>
<polyline clip-path="url(#clip932)" style="stroke:#000000; stroke-linecap:round; stroke-linejoin:round; stroke-width:2; stroke-opacity:0.1; fill:none" points="938.849,1056.49 938.849,101.872 "/>
<polyline clip-path="url(#clip932)" style="stroke:#000000; stroke-linecap:round; stroke-linejoin:round; stroke-width:2; stroke-opacity:0.1; fill:none" points="1079.2,1056.49 1079.2,101.872 "/>
<polyline clip-path="url(#clip932)" style="stroke:#000000; stroke-linecap:round; stroke-linejoin:round; stroke-width:2; stroke-opacity:0.1; fill:none" points="1219.56,1056.49 1219.56,101.872 "/>
<polyline clip-path="url(#clip932)" style="stroke:#000000; stroke-linecap:round; stroke-linejoin:round; stroke-width:2; stroke-opacity:0.1; fill:none" points="244.233,941.79 1352.76,941.79 "/>
<polyline clip-path="url(#clip932)" style="stroke:#000000; stroke-linecap:round; stroke-linejoin:round; stroke-width:2; stroke-opacity:0.1; fill:none" points="244.233,820.921 1352.76,820.921 "/>
<polyline clip-path="url(#clip932)" style="stroke:#000000; stroke-linecap:round; stroke-linejoin:round; stroke-width:2; stroke-opacity:0.1; fill:none" points="244.233,700.052 1352.76,700.052 "/>
<polyline clip-path="url(#clip932)" style="stroke:#000000; stroke-linecap:round; stroke-linejoin:round; stroke-width:2; stroke-opacity:0.1; fill:none" points="244.233,579.183 1352.76,579.183 "/>
<polyline clip-path="url(#clip932)" style="stroke:#000000; stroke-linecap:round; stroke-linejoin:round; stroke-width:2; stroke-opacity:0.1; fill:none" points="244.233,458.314 1352.76,458.314 "/>
<polyline clip-path="url(#clip932)" style="stroke:#000000; stroke-linecap:round; stroke-linejoin:round; stroke-width:2; stroke-opacity:0.1; fill:none" points="244.233,337.445 1352.76,337.445 "/>
<polyline clip-path="url(#clip932)" style="stroke:#000000; stroke-linecap:round; stroke-linejoin:round; stroke-width:2; stroke-opacity:0.1; fill:none" points="244.233,216.576 1352.76,216.576 "/>
<polyline clip-path="url(#clip930)" style="stroke:#000000; stroke-linecap:round; stroke-linejoin:round; stroke-width:4; stroke-opacity:1; fill:none" points="244.233,1056.49 1352.76,1056.49 "/>
<polyline clip-path="url(#clip930)" style="stroke:#000000; stroke-linecap:round; stroke-linejoin:round; stroke-width:4; stroke-opacity:1; fill:none" points="377.429,1056.49 377.429,1037.6 "/>
<polyline clip-path="url(#clip930)" style="stroke:#000000; stroke-linecap:round; stroke-linejoin:round; stroke-width:4; stroke-opacity:1; fill:none" points="517.784,1056.49 517.784,1037.6 "/>
<polyline clip-path="url(#clip930)" style="stroke:#000000; stroke-linecap:round; stroke-linejoin:round; stroke-width:4; stroke-opacity:1; fill:none" points="658.139,1056.49 658.139,1037.6 "/>
<polyline clip-path="url(#clip930)" style="stroke:#000000; stroke-linecap:round; stroke-linejoin:round; stroke-width:4; stroke-opacity:1; fill:none" points="798.494,1056.49 798.494,1037.6 "/>
<polyline clip-path="url(#clip930)" style="stroke:#000000; stroke-linecap:round; stroke-linejoin:round; stroke-width:4; stroke-opacity:1; fill:none" points="938.849,1056.49 938.849,1037.6 "/>
<polyline clip-path="url(#clip930)" style="stroke:#000000; stroke-linecap:round; stroke-linejoin:round; stroke-width:4; stroke-opacity:1; fill:none" points="1079.2,1056.49 1079.2,1037.6 "/>
<polyline clip-path="url(#clip930)" style="stroke:#000000; stroke-linecap:round; stroke-linejoin:round; stroke-width:4; stroke-opacity:1; fill:none" points="1219.56,1056.49 1219.56,1037.6 "/>
<path clip-path="url(#clip930)" d="M324.454 1105.27 L354.13 1105.27 L354.13 1109.2 L324.454 1109.2 L324.454 1105.27 Z" fill="#000000" fill-rule="nonzero" fill-opacity="1" /><path clip-path="url(#clip930)" d="M365.033 1118.16 L372.672 1118.16 L372.672 1091.79 L364.361 1093.46 L364.361 1089.2 L372.625 1087.53 L377.301 1087.53 L377.301 1118.16 L384.94 1118.16 L384.94 1122.09 L365.033 1122.09 L365.033 1118.16 Z" fill="#000000" fill-rule="nonzero" fill-opacity="1" /><path clip-path="url(#clip930)" d="M394.384 1116.21 L399.269 1116.21 L399.269 1122.09 L394.384 1122.09 L394.384 1116.21 Z" fill="#000000" fill-rule="nonzero" fill-opacity="1" /><path clip-path="url(#clip930)" d="M409.5 1087.53 L427.857 1087.53 L427.857 1091.47 L413.783 1091.47 L413.783 1099.94 Q414.801 1099.59 415.82 1099.43 Q416.838 1099.25 417.857 1099.25 Q423.644 1099.25 427.023 1102.42 Q430.403 1105.59 430.403 1111.01 Q430.403 1116.58 426.931 1119.69 Q423.458 1122.77 417.139 1122.77 Q414.963 1122.77 412.695 1122.4 Q410.449 1122.02 408.042 1121.28 L408.042 1116.58 Q410.125 1117.72 412.347 1118.27 Q414.57 1118.83 417.046 1118.83 Q421.051 1118.83 423.389 1116.72 Q425.727 1114.62 425.727 1111.01 Q425.727 1107.4 423.389 1105.29 Q421.051 1103.18 417.046 1103.18 Q415.171 1103.18 413.296 1103.6 Q411.445 1104.02 409.5 1104.9 L409.5 1087.53 Z" fill="#000000" fill-rule="nonzero" fill-opacity="1" /><path clip-path="url(#clip930)" d="M464.312 1105.27 L493.988 1105.27 L493.988 1109.2 L464.312 1109.2 L464.312 1105.27 Z" fill="#000000" fill-rule="nonzero" fill-opacity="1" /><path clip-path="url(#clip930)" d="M504.89 1118.16 L512.529 1118.16 L512.529 1091.79 L504.219 1093.46 L504.219 1089.2 L512.483 1087.53 L517.159 1087.53 L517.159 1118.16 L524.798 1118.16 L524.798 1122.09 L504.89 1122.09 L504.89 1118.16 Z" fill="#000000" fill-rule="nonzero" fill-opacity="1" /><path clip-path="url(#clip930)" d="M534.242 1116.21 L539.126 1116.21 L539.126 1122.09 L534.242 1122.09 L534.242 1116.21 Z" fill="#000000" fill-rule="nonzero" fill-opacity="1" /><path clip-path="url(#clip930)" d="M559.311 1090.61 Q555.7 1090.61 553.872 1094.18 Q552.066 1097.72 552.066 1104.85 Q552.066 1111.96 553.872 1115.52 Q555.7 1119.06 559.311 1119.06 Q562.946 1119.06 564.751 1115.52 Q566.58 1111.96 566.58 1104.85 Q566.58 1097.72 564.751 1094.18 Q562.946 1090.61 559.311 1090.61 M559.311 1086.91 Q565.121 1086.91 568.177 1091.52 Q571.256 1096.1 571.256 1104.85 Q571.256 1113.58 568.177 1118.18 Q565.121 1122.77 559.311 1122.77 Q553.501 1122.77 550.422 1118.18 Q547.367 1113.58 547.367 1104.85 Q547.367 1096.1 550.422 1091.52 Q553.501 1086.91 559.311 1086.91 Z" fill="#000000" fill-rule="nonzero" fill-opacity="1" /><path clip-path="url(#clip930)" d="M605.165 1105.27 L634.841 1105.27 L634.841 1109.2 L605.165 1109.2 L605.165 1105.27 Z" fill="#000000" fill-rule="nonzero" fill-opacity="1" /><path clip-path="url(#clip930)" d="M654.933 1090.61 Q651.322 1090.61 649.493 1094.18 Q647.688 1097.72 647.688 1104.85 Q647.688 1111.96 649.493 1115.52 Q651.322 1119.06 654.933 1119.06 Q658.567 1119.06 660.373 1115.52 Q662.201 1111.96 662.201 1104.85 Q662.201 1097.72 660.373 1094.18 Q658.567 1090.61 654.933 1090.61 M654.933 1086.91 Q660.743 1086.91 663.799 1091.52 Q666.877 1096.1 666.877 1104.85 Q666.877 1113.58 663.799 1118.18 Q660.743 1122.77 654.933 1122.77 Q649.123 1122.77 646.044 1118.18 Q642.989 1113.58 642.989 1104.85 Q642.989 1096.1 646.044 1091.52 Q649.123 1086.91 654.933 1086.91 Z" fill="#000000" fill-rule="nonzero" fill-opacity="1" /><path clip-path="url(#clip930)" d="M675.095 1116.21 L679.979 1116.21 L679.979 1122.09 L675.095 1122.09 L675.095 1116.21 Z" fill="#000000" fill-rule="nonzero" fill-opacity="1" /><path clip-path="url(#clip930)" d="M690.211 1087.53 L708.567 1087.53 L708.567 1091.47 L694.493 1091.47 L694.493 1099.94 Q695.511 1099.59 696.53 1099.43 Q697.549 1099.25 698.567 1099.25 Q704.354 1099.25 707.734 1102.42 Q711.113 1105.59 711.113 1111.01 Q711.113 1116.58 707.641 1119.69 Q704.169 1122.77 697.849 1122.77 Q695.674 1122.77 693.405 1122.4 Q691.16 1122.02 688.752 1121.28 L688.752 1116.58 Q690.836 1117.72 693.058 1118.27 Q695.28 1118.83 697.757 1118.83 Q701.761 1118.83 704.099 1116.72 Q706.437 1114.62 706.437 1111.01 Q706.437 1107.4 704.099 1105.29 Q701.761 1103.18 697.757 1103.18 Q695.882 1103.18 694.007 1103.6 Q692.155 1104.02 690.211 1104.9 L690.211 1087.53 Z" fill="#000000" fill-rule="nonzero" fill-opacity="1" /><path clip-path="url(#clip930)" d="M775.879 1090.61 Q772.268 1090.61 770.439 1094.18 Q768.633 1097.72 768.633 1104.85 Q768.633 1111.96 770.439 1115.52 Q772.268 1119.06 775.879 1119.06 Q779.513 1119.06 781.318 1115.52 Q783.147 1111.96 783.147 1104.85 Q783.147 1097.72 781.318 1094.18 Q779.513 1090.61 775.879 1090.61 M775.879 1086.91 Q781.689 1086.91 784.744 1091.52 Q787.823 1096.1 787.823 1104.85 Q787.823 1113.58 784.744 1118.18 Q781.689 1122.77 775.879 1122.77 Q770.068 1122.77 766.99 1118.18 Q763.934 1113.58 763.934 1104.85 Q763.934 1096.1 766.99 1091.52 Q770.068 1086.91 775.879 1086.91 Z" fill="#000000" fill-rule="nonzero" fill-opacity="1" /><path clip-path="url(#clip930)" d="M796.041 1116.21 L800.925 1116.21 L800.925 1122.09 L796.041 1122.09 L796.041 1116.21 Z" fill="#000000" fill-rule="nonzero" fill-opacity="1" /><path clip-path="url(#clip930)" d="M821.11 1090.61 Q817.499 1090.61 815.67 1094.18 Q813.865 1097.72 813.865 1104.85 Q813.865 1111.96 815.67 1115.52 Q817.499 1119.06 821.11 1119.06 Q824.744 1119.06 826.55 1115.52 Q828.378 1111.96 828.378 1104.85 Q828.378 1097.72 826.55 1094.18 Q824.744 1090.61 821.11 1090.61 M821.11 1086.91 Q826.92 1086.91 829.976 1091.52 Q833.054 1096.1 833.054 1104.85 Q833.054 1113.58 829.976 1118.18 Q826.92 1122.77 821.11 1122.77 Q815.3 1122.77 812.221 1118.18 Q809.165 1113.58 809.165 1104.85 Q809.165 1096.1 812.221 1091.52 Q815.3 1086.91 821.11 1086.91 Z" fill="#000000" fill-rule="nonzero" fill-opacity="1" /><path clip-path="url(#clip930)" d="M916.732 1090.61 Q913.12 1090.61 911.292 1094.18 Q909.486 1097.72 909.486 1104.85 Q909.486 1111.96 911.292 1115.52 Q913.12 1119.06 916.732 1119.06 Q920.366 1119.06 922.171 1115.52 Q924 1111.96 924 1104.85 Q924 1097.72 922.171 1094.18 Q920.366 1090.61 916.732 1090.61 M916.732 1086.91 Q922.542 1086.91 925.597 1091.52 Q928.676 1096.1 928.676 1104.85 Q928.676 1113.58 925.597 1118.18 Q922.542 1122.77 916.732 1122.77 Q910.921 1122.77 907.843 1118.18 Q904.787 1113.58 904.787 1104.85 Q904.787 1096.1 907.843 1091.52 Q910.921 1086.91 916.732 1086.91 Z" fill="#000000" fill-rule="nonzero" fill-opacity="1" /><path clip-path="url(#clip930)" d="M936.893 1116.21 L941.778 1116.21 L941.778 1122.09 L936.893 1122.09 L936.893 1116.21 Z" fill="#000000" fill-rule="nonzero" fill-opacity="1" /><path clip-path="url(#clip930)" d="M952.009 1087.53 L970.366 1087.53 L970.366 1091.47 L956.292 1091.47 L956.292 1099.94 Q957.31 1099.59 958.329 1099.43 Q959.347 1099.25 960.366 1099.25 Q966.153 1099.25 969.532 1102.42 Q972.912 1105.59 972.912 1111.01 Q972.912 1116.58 969.44 1119.69 Q965.967 1122.77 959.648 1122.77 Q957.472 1122.77 955.204 1122.4 Q952.958 1122.02 950.551 1121.28 L950.551 1116.58 Q952.634 1117.72 954.856 1118.27 Q957.079 1118.83 959.555 1118.83 Q963.56 1118.83 965.898 1116.72 Q968.236 1114.62 968.236 1111.01 Q968.236 1107.4 965.898 1105.29 Q963.56 1103.18 959.555 1103.18 Q957.68 1103.18 955.805 1103.6 Q953.954 1104.02 952.009 1104.9 L952.009 1087.53 Z" fill="#000000" fill-rule="nonzero" fill-opacity="1" /><path clip-path="url(#clip930)" d="M1046.36 1118.16 L1054 1118.16 L1054 1091.79 L1045.69 1093.46 L1045.69 1089.2 L1053.95 1087.53 L1058.63 1087.53 L1058.63 1118.16 L1066.26 1118.16 L1066.26 1122.09 L1046.36 1122.09 L1046.36 1118.16 Z" fill="#000000" fill-rule="nonzero" fill-opacity="1" /><path clip-path="url(#clip930)" d="M1075.71 1116.21 L1080.59 1116.21 L1080.59 1122.09 L1075.71 1122.09 L1075.71 1116.21 Z" fill="#000000" fill-rule="nonzero" fill-opacity="1" /><path clip-path="url(#clip930)" d="M1100.78 1090.61 Q1097.17 1090.61 1095.34 1094.18 Q1093.53 1097.72 1093.53 1104.85 Q1093.53 1111.96 1095.34 1115.52 Q1097.17 1119.06 1100.78 1119.06 Q1104.41 1119.06 1106.22 1115.52 Q1108.05 1111.96 1108.05 1104.85 Q1108.05 1097.72 1106.22 1094.18 Q1104.41 1090.61 1100.78 1090.61 M1100.78 1086.91 Q1106.59 1086.91 1109.64 1091.52 Q1112.72 1096.1 1112.72 1104.85 Q1112.72 1113.58 1109.64 1118.18 Q1106.59 1122.77 1100.78 1122.77 Q1094.97 1122.77 1091.89 1118.18 Q1088.83 1113.58 1088.83 1104.85 Q1088.83 1096.1 1091.89 1091.52 Q1094.97 1086.91 1100.78 1086.91 Z" fill="#000000" fill-rule="nonzero" fill-opacity="1" /><path clip-path="url(#clip930)" d="M1187.21 1118.16 L1194.85 1118.16 L1194.85 1091.79 L1186.54 1093.46 L1186.54 1089.2 L1194.8 1087.53 L1199.48 1087.53 L1199.48 1118.16 L1207.12 1118.16 L1207.12 1122.09 L1187.21 1122.09 L1187.21 1118.16 Z" fill="#000000" fill-rule="nonzero" fill-opacity="1" /><path clip-path="url(#clip930)" d="M1216.56 1116.21 L1221.45 1116.21 L1221.45 1122.09 L1216.56 1122.09 L1216.56 1116.21 Z" fill="#000000" fill-rule="nonzero" fill-opacity="1" /><path clip-path="url(#clip930)" d="M1231.68 1087.53 L1250.03 1087.53 L1250.03 1091.47 L1235.96 1091.47 L1235.96 1099.94 Q1236.98 1099.59 1238 1099.43 Q1239.02 1099.25 1240.03 1099.25 Q1245.82 1099.25 1249.2 1102.42 Q1252.58 1105.59 1252.58 1111.01 Q1252.58 1116.58 1249.11 1119.69 Q1245.64 1122.77 1239.32 1122.77 Q1237.14 1122.77 1234.87 1122.4 Q1232.63 1122.02 1230.22 1121.28 L1230.22 1116.58 Q1232.3 1117.72 1234.53 1118.27 Q1236.75 1118.83 1239.22 1118.83 Q1243.23 1118.83 1245.57 1116.72 Q1247.9 1114.62 1247.9 1111.01 Q1247.9 1107.4 1245.57 1105.29 Q1243.23 1103.18 1239.22 1103.18 Q1237.35 1103.18 1235.47 1103.6 Q1233.62 1104.02 1231.68 1104.9 L1231.68 1087.53 Z" fill="#000000" fill-rule="nonzero" fill-opacity="1" /><path clip-path="url(#clip930)" d="M457.658 1159.84 L497.858 1159.84 L497.858 1165.25 L480.989 1165.25 L480.989 1207.36 L474.528 1207.36 L474.528 1165.25 L457.658 1165.25 L457.658 1159.84 Z" fill="#000000" fill-rule="nonzero" fill-opacity="1" /><path clip-path="url(#clip930)" d="M533.442 1185.84 L533.442 1207.36 L527.586 1207.36 L527.586 1186.03 Q527.586 1180.97 525.612 1178.46 Q523.639 1175.94 519.692 1175.94 Q514.95 1175.94 512.213 1178.97 Q509.475 1181.99 509.475 1187.21 L509.475 1207.36 L503.587 1207.36 L503.587 1157.83 L509.475 1157.83 L509.475 1177.25 Q511.576 1174.03 514.409 1172.44 Q517.273 1170.85 520.997 1170.85 Q527.14 1170.85 530.291 1174.67 Q533.442 1178.46 533.442 1185.84 Z" fill="#000000" fill-rule="nonzero" fill-opacity="1" /><path clip-path="url(#clip930)" d="M575.615 1188.07 L575.615 1190.93 L548.688 1190.93 Q549.07 1196.98 552.316 1200.16 Q555.595 1203.32 561.419 1203.32 Q564.793 1203.32 567.944 1202.49 Q571.127 1201.66 574.246 1200.01 L574.246 1205.54 Q571.095 1206.88 567.785 1207.58 Q564.475 1208.28 561.069 1208.28 Q552.539 1208.28 547.542 1203.32 Q542.577 1198.35 542.577 1189.88 Q542.577 1181.13 547.288 1176.01 Q552.03 1170.85 560.051 1170.85 Q567.244 1170.85 571.414 1175.5 Q575.615 1180.11 575.615 1188.07 M569.758 1186.35 Q569.695 1181.55 567.053 1178.68 Q564.443 1175.82 560.114 1175.82 Q555.213 1175.82 552.253 1178.59 Q549.325 1181.35 548.879 1186.38 L569.758 1186.35 Z" fill="#000000" fill-rule="nonzero" fill-opacity="1" /><path clip-path="url(#clip930)" d="M599.041 1175.82 Q594.33 1175.82 591.593 1179.51 Q588.856 1183.17 588.856 1189.57 Q588.856 1195.96 591.561 1199.66 Q594.298 1203.32 599.041 1203.32 Q603.72 1203.32 606.457 1199.62 Q609.194 1195.93 609.194 1189.57 Q609.194 1183.23 606.457 1179.54 Q603.72 1175.82 599.041 1175.82 M599.041 1170.85 Q606.68 1170.85 611.04 1175.82 Q615.401 1180.78 615.401 1189.57 Q615.401 1198.32 611.04 1203.32 Q606.68 1208.28 599.041 1208.28 Q591.37 1208.28 587.01 1203.32 Q582.681 1198.32 582.681 1189.57 Q582.681 1180.78 587.01 1175.82 Q591.37 1170.85 599.041 1170.85 Z" fill="#000000" fill-rule="nonzero" fill-opacity="1" /><path clip-path="url(#clip930)" d="M645.765 1177.18 Q644.778 1176.61 643.601 1176.36 Q642.455 1176.07 641.054 1176.07 Q636.089 1176.07 633.416 1179.32 Q630.774 1182.53 630.774 1188.58 L630.774 1207.36 L624.886 1207.36 L624.886 1171.71 L630.774 1171.71 L630.774 1177.25 Q632.62 1174 635.58 1172.44 Q638.54 1170.85 642.773 1170.85 Q643.378 1170.85 644.11 1170.95 Q644.842 1171.01 645.733 1171.17 L645.765 1177.18 Z" fill="#000000" fill-rule="nonzero" fill-opacity="1" /><path clip-path="url(#clip930)" d="M680.967 1188.07 L680.967 1190.93 L654.04 1190.93 Q654.422 1196.98 657.669 1200.16 Q660.947 1203.32 666.772 1203.32 Q670.146 1203.32 673.297 1202.49 Q676.48 1201.66 679.599 1200.01 L679.599 1205.54 Q676.448 1206.88 673.138 1207.58 Q669.827 1208.28 666.422 1208.28 Q657.892 1208.28 652.895 1203.32 Q647.929 1198.35 647.929 1189.88 Q647.929 1181.13 652.64 1176.01 Q657.382 1170.85 665.403 1170.85 Q672.596 1170.85 676.766 1175.5 Q680.967 1180.11 680.967 1188.07 M675.111 1186.35 Q675.047 1181.55 672.406 1178.68 Q669.796 1175.82 665.467 1175.82 Q660.565 1175.82 657.605 1178.59 Q654.677 1181.35 654.231 1186.38 L675.111 1186.35 Z" fill="#000000" fill-rule="nonzero" fill-opacity="1" /><path clip-path="url(#clip930)" d="M696.372 1161.59 L696.372 1171.71 L708.435 1171.71 L708.435 1176.26 L696.372 1176.26 L696.372 1195.61 Q696.372 1199.97 697.55 1201.22 Q698.76 1202.46 702.42 1202.46 L708.435 1202.46 L708.435 1207.36 L702.42 1207.36 Q695.64 1207.36 693.062 1204.84 Q690.484 1202.3 690.484 1195.61 L690.484 1176.26 L686.187 1176.26 L686.187 1171.71 L690.484 1171.71 L690.484 1161.59 L696.372 1161.59 Z" fill="#000000" fill-rule="nonzero" fill-opacity="1" /><path clip-path="url(#clip930)" d="M716.138 1171.71 L721.994 1171.71 L721.994 1207.36 L716.138 1207.36 L716.138 1171.71 M716.138 1157.83 L721.994 1157.83 L721.994 1165.25 L716.138 1165.25 L716.138 1157.83 Z" fill="#000000" fill-rule="nonzero" fill-opacity="1" /><path clip-path="url(#clip930)" d="M759.902 1173.08 L759.902 1178.55 Q757.42 1177.18 754.905 1176.52 Q752.422 1175.82 749.876 1175.82 Q744.179 1175.82 741.028 1179.44 Q737.877 1183.04 737.877 1189.57 Q737.877 1196.09 741.028 1199.72 Q744.179 1203.32 749.876 1203.32 Q752.422 1203.32 754.905 1202.65 Q757.42 1201.95 759.902 1200.58 L759.902 1205.99 Q757.451 1207.14 754.81 1207.71 Q752.2 1208.28 749.24 1208.28 Q741.187 1208.28 736.445 1203.22 Q731.702 1198.16 731.702 1189.57 Q731.702 1180.84 736.476 1175.85 Q741.282 1170.85 749.622 1170.85 Q752.327 1170.85 754.905 1171.42 Q757.483 1171.96 759.902 1173.08 Z" fill="#000000" fill-rule="nonzero" fill-opacity="1" /><path clip-path="url(#clip930)" d="M786.288 1189.44 Q779.19 1189.44 776.453 1191.06 Q773.716 1192.69 773.716 1196.6 Q773.716 1199.72 775.753 1201.57 Q777.822 1203.38 781.355 1203.38 Q786.224 1203.38 789.153 1199.94 Q792.113 1196.47 792.113 1190.74 L792.113 1189.44 L786.288 1189.44 M797.969 1187.02 L797.969 1207.36 L792.113 1207.36 L792.113 1201.95 Q790.107 1205.19 787.116 1206.75 Q784.124 1208.28 779.795 1208.28 Q774.32 1208.28 771.074 1205.23 Q767.859 1202.14 767.859 1196.98 Q767.859 1190.97 771.87 1187.91 Q775.912 1184.86 783.901 1184.86 L792.113 1184.86 L792.113 1184.28 Q792.113 1180.24 789.439 1178.04 Q786.797 1175.82 781.991 1175.82 Q778.936 1175.82 776.039 1176.55 Q773.143 1177.28 770.469 1178.74 L770.469 1173.33 Q773.684 1172.09 776.708 1171.49 Q779.731 1170.85 782.596 1170.85 Q790.33 1170.85 794.15 1174.86 Q797.969 1178.87 797.969 1187.02 Z" fill="#000000" fill-rule="nonzero" fill-opacity="1" /><path clip-path="url(#clip930)" d="M810.032 1157.83 L815.889 1157.83 L815.889 1207.36 L810.032 1207.36 L810.032 1157.83 Z" fill="#000000" fill-rule="nonzero" fill-opacity="1" /><path clip-path="url(#clip930)" d="M852.364 1189.57 Q852.364 1196.03 855.006 1199.72 Q857.679 1203.38 862.326 1203.38 Q866.973 1203.38 869.647 1199.72 Q872.321 1196.03 872.321 1189.57 Q872.321 1183.1 869.647 1179.44 Q866.973 1175.75 862.326 1175.75 Q857.679 1175.75 855.006 1179.44 Q852.364 1183.1 852.364 1189.57 M872.321 1202.01 Q870.474 1205.19 867.642 1206.75 Q864.841 1208.28 860.894 1208.28 Q854.433 1208.28 850.359 1203.12 Q846.317 1197.97 846.317 1189.57 Q846.317 1181.16 850.359 1176.01 Q854.433 1170.85 860.894 1170.85 Q864.841 1170.85 867.642 1172.41 Q870.474 1173.94 872.321 1177.12 L872.321 1171.71 L878.177 1171.71 L878.177 1220.92 L872.321 1220.92 L872.321 1202.01 Z" fill="#000000" fill-rule="nonzero" fill-opacity="1" /><path clip-path="url(#clip930)" d="M889.635 1193.29 L889.635 1171.71 L895.492 1171.71 L895.492 1193.07 Q895.492 1198.13 897.465 1200.67 Q899.438 1203.19 903.385 1203.19 Q908.128 1203.19 910.865 1200.16 Q913.634 1197.14 913.634 1191.92 L913.634 1171.71 L919.49 1171.71 L919.49 1207.36 L913.634 1207.36 L913.634 1201.88 Q911.501 1205.13 908.669 1206.72 Q905.868 1208.28 902.144 1208.28 Q896.001 1208.28 892.818 1204.46 Q889.635 1200.64 889.635 1193.29 M904.372 1170.85 L904.372 1170.85 Z" fill="#000000" fill-rule="nonzero" fill-opacity="1" /><path clip-path="url(#clip930)" d="M947.754 1189.44 Q940.656 1189.44 937.919 1191.06 Q935.182 1192.69 935.182 1196.6 Q935.182 1199.72 937.219 1201.57 Q939.288 1203.38 942.821 1203.38 Q947.691 1203.38 950.619 1199.94 Q953.579 1196.47 953.579 1190.74 L953.579 1189.44 L947.754 1189.44 M959.435 1187.02 L959.435 1207.36 L953.579 1207.36 L953.579 1201.95 Q951.574 1205.19 948.582 1206.75 Q945.59 1208.28 941.261 1208.28 Q935.787 1208.28 932.54 1205.23 Q929.325 1202.14 929.325 1196.98 Q929.325 1190.97 933.336 1187.91 Q937.378 1184.86 945.367 1184.86 L953.579 1184.86 L953.579 1184.28 Q953.579 1180.24 950.905 1178.04 Q948.263 1175.82 943.457 1175.82 Q940.402 1175.82 937.505 1176.55 Q934.609 1177.28 931.935 1178.74 L931.935 1173.33 Q935.15 1172.09 938.174 1171.49 Q941.197 1170.85 944.062 1170.85 Q951.796 1170.85 955.616 1174.86 Q959.435 1178.87 959.435 1187.02 Z" fill="#000000" fill-rule="nonzero" fill-opacity="1" /><path clip-path="url(#clip930)" d="M1001.13 1185.84 L1001.13 1207.36 L995.274 1207.36 L995.274 1186.03 Q995.274 1180.97 993.301 1178.46 Q991.327 1175.94 987.381 1175.94 Q982.638 1175.94 979.901 1178.97 Q977.164 1181.99 977.164 1187.21 L977.164 1207.36 L971.275 1207.36 L971.275 1171.71 L977.164 1171.71 L977.164 1177.25 Q979.264 1174.03 982.097 1172.44 Q984.962 1170.85 988.686 1170.85 Q994.829 1170.85 997.98 1174.67 Q1001.13 1178.46 1001.13 1185.84 Z" fill="#000000" fill-rule="nonzero" fill-opacity="1" /><path clip-path="url(#clip930)" d="M1018.6 1161.59 L1018.6 1171.71 L1030.67 1171.71 L1030.67 1176.26 L1018.6 1176.26 L1018.6 1195.61 Q1018.6 1199.97 1019.78 1201.22 Q1020.99 1202.46 1024.65 1202.46 L1030.67 1202.46 L1030.67 1207.36 L1024.65 1207.36 Q1017.87 1207.36 1015.29 1204.84 Q1012.72 1202.3 1012.72 1195.61 L1012.72 1176.26 L1008.42 1176.26 L1008.42 1171.71 L1012.72 1171.71 L1012.72 1161.59 L1018.6 1161.59 Z" fill="#000000" fill-rule="nonzero" fill-opacity="1" /><path clip-path="url(#clip930)" d="M1038.37 1171.71 L1044.23 1171.71 L1044.23 1207.36 L1038.37 1207.36 L1038.37 1171.71 M1038.37 1157.83 L1044.23 1157.83 L1044.23 1165.25 L1038.37 1165.25 L1038.37 1157.83 Z" fill="#000000" fill-rule="nonzero" fill-opacity="1" /><path clip-path="url(#clip930)" d="M1056.48 1157.83 L1062.34 1157.83 L1062.34 1207.36 L1056.48 1207.36 L1056.48 1157.83 Z" fill="#000000" fill-rule="nonzero" fill-opacity="1" /><path clip-path="url(#clip930)" d="M1105.08 1188.07 L1105.08 1190.93 L1078.16 1190.93 Q1078.54 1196.98 1081.78 1200.16 Q1085.06 1203.32 1090.89 1203.32 Q1094.26 1203.32 1097.41 1202.49 Q1100.59 1201.66 1103.71 1200.01 L1103.71 1205.54 Q1100.56 1206.88 1097.25 1207.58 Q1093.94 1208.28 1090.54 1208.28 Q1082.01 1208.28 1077.01 1203.32 Q1072.04 1198.35 1072.04 1189.88 Q1072.04 1181.13 1076.76 1176.01 Q1081.5 1170.85 1089.52 1170.85 Q1096.71 1170.85 1100.88 1175.5 Q1105.08 1180.11 1105.08 1188.07 M1099.23 1186.35 Q1099.16 1181.55 1096.52 1178.68 Q1093.91 1175.82 1089.58 1175.82 Q1084.68 1175.82 1081.72 1178.59 Q1078.79 1181.35 1078.35 1186.38 L1099.23 1186.35 Z" fill="#000000" fill-rule="nonzero" fill-opacity="1" /><path clip-path="url(#clip930)" d="M1137.42 1172.76 L1137.42 1178.3 Q1134.94 1177.03 1132.26 1176.39 Q1129.59 1175.75 1126.73 1175.75 Q1122.37 1175.75 1120.17 1177.09 Q1118 1178.43 1118 1181.1 Q1118 1183.14 1119.56 1184.31 Q1121.12 1185.46 1125.83 1186.51 L1127.84 1186.96 Q1134.08 1188.29 1136.69 1190.74 Q1139.33 1193.16 1139.33 1197.52 Q1139.33 1202.49 1135.38 1205.38 Q1131.47 1208.28 1124.59 1208.28 Q1121.73 1208.28 1118.61 1207.71 Q1115.52 1207.17 1112.08 1206.05 L1112.08 1200.01 Q1115.33 1201.69 1118.48 1202.55 Q1121.63 1203.38 1124.72 1203.38 Q1128.86 1203.38 1131.09 1201.98 Q1133.31 1200.55 1133.31 1197.97 Q1133.31 1195.58 1131.69 1194.31 Q1130.1 1193.04 1124.66 1191.86 L1122.62 1191.38 Q1117.18 1190.23 1114.76 1187.88 Q1112.34 1185.49 1112.34 1181.35 Q1112.34 1176.33 1115.9 1173.59 Q1119.47 1170.85 1126.03 1170.85 Q1129.27 1170.85 1132.14 1171.33 Q1135 1171.81 1137.42 1172.76 Z" fill="#000000" fill-rule="nonzero" fill-opacity="1" /><polyline clip-path="url(#clip930)" style="stroke:#000000; stroke-linecap:round; stroke-linejoin:round; stroke-width:4; stroke-opacity:1; fill:none" points="244.233,1056.49 244.233,101.872 "/>
<polyline clip-path="url(#clip930)" style="stroke:#000000; stroke-linecap:round; stroke-linejoin:round; stroke-width:4; stroke-opacity:1; fill:none" points="244.233,941.79 263.13,941.79 "/>
<polyline clip-path="url(#clip930)" style="stroke:#000000; stroke-linecap:round; stroke-linejoin:round; stroke-width:4; stroke-opacity:1; fill:none" points="244.233,820.921 263.13,820.921 "/>
<polyline clip-path="url(#clip930)" style="stroke:#000000; stroke-linecap:round; stroke-linejoin:round; stroke-width:4; stroke-opacity:1; fill:none" points="244.233,700.052 263.13,700.052 "/>
<polyline clip-path="url(#clip930)" style="stroke:#000000; stroke-linecap:round; stroke-linejoin:round; stroke-width:4; stroke-opacity:1; fill:none" points="244.233,579.183 263.13,579.183 "/>
<polyline clip-path="url(#clip930)" style="stroke:#000000; stroke-linecap:round; stroke-linejoin:round; stroke-width:4; stroke-opacity:1; fill:none" points="244.233,458.314 263.13,458.314 "/>
<polyline clip-path="url(#clip930)" style="stroke:#000000; stroke-linecap:round; stroke-linejoin:round; stroke-width:4; stroke-opacity:1; fill:none" points="244.233,337.445 263.13,337.445 "/>
<polyline clip-path="url(#clip930)" style="stroke:#000000; stroke-linecap:round; stroke-linejoin:round; stroke-width:4; stroke-opacity:1; fill:none" points="244.233,216.576 263.13,216.576 "/>
<path clip-path="url(#clip930)" d="M96.2841 942.242 L125.96 942.242 L125.96 946.177 L96.2841 946.177 L96.2841 942.242 Z" fill="#000000" fill-rule="nonzero" fill-opacity="1" /><path clip-path="url(#clip930)" d="M136.863 955.135 L144.501 955.135 L144.501 928.77 L136.191 930.436 L136.191 926.177 L144.455 924.51 L149.131 924.51 L149.131 955.135 L156.77 955.135 L156.77 959.07 L136.863 959.07 L136.863 955.135 Z" fill="#000000" fill-rule="nonzero" fill-opacity="1" /><path clip-path="url(#clip930)" d="M166.214 953.191 L171.099 953.191 L171.099 959.07 L166.214 959.07 L166.214 953.191 Z" fill="#000000" fill-rule="nonzero" fill-opacity="1" /><path clip-path="url(#clip930)" d="M181.33 924.51 L199.686 924.51 L199.686 928.446 L185.612 928.446 L185.612 936.918 Q186.631 936.571 187.649 936.408 Q188.668 936.223 189.686 936.223 Q195.473 936.223 198.853 939.395 Q202.233 942.566 202.233 947.982 Q202.233 953.561 198.76 956.663 Q195.288 959.742 188.969 959.742 Q186.793 959.742 184.524 959.371 Q182.279 959.001 179.872 958.26 L179.872 953.561 Q181.955 954.695 184.177 955.251 Q186.399 955.807 188.876 955.807 Q192.881 955.807 195.219 953.7 Q197.557 951.594 197.557 947.982 Q197.557 944.371 195.219 942.265 Q192.881 940.158 188.876 940.158 Q187.001 940.158 185.126 940.575 Q183.274 940.992 181.33 941.871 L181.33 924.51 Z" fill="#000000" fill-rule="nonzero" fill-opacity="1" /><path clip-path="url(#clip930)" d="M95.2887 821.373 L124.964 821.373 L124.964 825.308 L95.2887 825.308 L95.2887 821.373 Z" fill="#000000" fill-rule="nonzero" fill-opacity="1" /><path clip-path="url(#clip930)" d="M135.867 834.266 L143.506 834.266 L143.506 807.901 L135.196 809.567 L135.196 805.308 L143.46 803.641 L148.136 803.641 L148.136 834.266 L155.775 834.266 L155.775 838.201 L135.867 838.201 L135.867 834.266 Z" fill="#000000" fill-rule="nonzero" fill-opacity="1" /><path clip-path="url(#clip930)" d="M165.219 832.322 L170.103 832.322 L170.103 838.201 L165.219 838.201 L165.219 832.322 Z" fill="#000000" fill-rule="nonzero" fill-opacity="1" /><path clip-path="url(#clip930)" d="M190.288 806.72 Q186.677 806.72 184.848 810.285 Q183.043 813.826 183.043 820.956 Q183.043 828.062 184.848 831.627 Q186.677 835.169 190.288 835.169 Q193.922 835.169 195.728 831.627 Q197.557 828.062 197.557 820.956 Q197.557 813.826 195.728 810.285 Q193.922 806.72 190.288 806.72 M190.288 803.016 Q196.098 803.016 199.154 807.623 Q202.233 812.206 202.233 820.956 Q202.233 829.683 199.154 834.289 Q196.098 838.873 190.288 838.873 Q184.478 838.873 181.399 834.289 Q178.344 829.683 178.344 820.956 Q178.344 812.206 181.399 807.623 Q184.478 803.016 190.288 803.016 Z" fill="#000000" fill-rule="nonzero" fill-opacity="1" /><path clip-path="url(#clip930)" d="M96.2841 700.504 L125.96 700.504 L125.96 704.439 L96.2841 704.439 L96.2841 700.504 Z" fill="#000000" fill-rule="nonzero" fill-opacity="1" /><path clip-path="url(#clip930)" d="M146.052 685.851 Q142.441 685.851 140.613 689.416 Q138.807 692.957 138.807 700.087 Q138.807 707.193 140.613 710.758 Q142.441 714.3 146.052 714.3 Q149.687 714.3 151.492 710.758 Q153.321 707.193 153.321 700.087 Q153.321 692.957 151.492 689.416 Q149.687 685.851 146.052 685.851 M146.052 682.147 Q151.862 682.147 154.918 686.754 Q157.997 691.337 157.997 700.087 Q157.997 708.814 154.918 713.42 Q151.862 718.004 146.052 718.004 Q140.242 718.004 137.164 713.42 Q134.108 708.814 134.108 700.087 Q134.108 691.337 137.164 686.754 Q140.242 682.147 146.052 682.147 Z" fill="#000000" fill-rule="nonzero" fill-opacity="1" /><path clip-path="url(#clip930)" d="M166.214 711.453 L171.099 711.453 L171.099 717.332 L166.214 717.332 L166.214 711.453 Z" fill="#000000" fill-rule="nonzero" fill-opacity="1" /><path clip-path="url(#clip930)" d="M181.33 682.772 L199.686 682.772 L199.686 686.707 L185.612 686.707 L185.612 695.18 Q186.631 694.832 187.649 694.67 Q188.668 694.485 189.686 694.485 Q195.473 694.485 198.853 697.656 Q202.233 700.828 202.233 706.244 Q202.233 711.823 198.76 714.925 Q195.288 718.004 188.969 718.004 Q186.793 718.004 184.524 717.633 Q182.279 717.263 179.872 716.522 L179.872 711.823 Q181.955 712.957 184.177 713.513 Q186.399 714.068 188.876 714.068 Q192.881 714.068 195.219 711.962 Q197.557 709.855 197.557 706.244 Q197.557 702.633 195.219 700.527 Q192.881 698.42 188.876 698.42 Q187.001 698.42 185.126 698.837 Q183.274 699.254 181.33 700.133 L181.33 682.772 Z" fill="#000000" fill-rule="nonzero" fill-opacity="1" /><path clip-path="url(#clip930)" d="M145.057 564.982 Q141.446 564.982 139.617 568.547 Q137.812 572.088 137.812 579.218 Q137.812 586.324 139.617 589.889 Q141.446 593.431 145.057 593.431 Q148.691 593.431 150.497 589.889 Q152.325 586.324 152.325 579.218 Q152.325 572.088 150.497 568.547 Q148.691 564.982 145.057 564.982 M145.057 561.278 Q150.867 561.278 153.923 565.885 Q157.001 570.468 157.001 579.218 Q157.001 587.945 153.923 592.551 Q150.867 597.134 145.057 597.134 Q139.247 597.134 136.168 592.551 Q133.113 587.945 133.113 579.218 Q133.113 570.468 136.168 565.885 Q139.247 561.278 145.057 561.278 Z" fill="#000000" fill-rule="nonzero" fill-opacity="1" /><path clip-path="url(#clip930)" d="M165.219 590.584 L170.103 590.584 L170.103 596.463 L165.219 596.463 L165.219 590.584 Z" fill="#000000" fill-rule="nonzero" fill-opacity="1" /><path clip-path="url(#clip930)" d="M190.288 564.982 Q186.677 564.982 184.848 568.547 Q183.043 572.088 183.043 579.218 Q183.043 586.324 184.848 589.889 Q186.677 593.431 190.288 593.431 Q193.922 593.431 195.728 589.889 Q197.557 586.324 197.557 579.218 Q197.557 572.088 195.728 568.547 Q193.922 564.982 190.288 564.982 M190.288 561.278 Q196.098 561.278 199.154 565.885 Q202.233 570.468 202.233 579.218 Q202.233 587.945 199.154 592.551 Q196.098 597.134 190.288 597.134 Q184.478 597.134 181.399 592.551 Q178.344 587.945 178.344 579.218 Q178.344 570.468 181.399 565.885 Q184.478 561.278 190.288 561.278 Z" fill="#000000" fill-rule="nonzero" fill-opacity="1" /><path clip-path="url(#clip930)" d="M146.052 444.113 Q142.441 444.113 140.613 447.678 Q138.807 451.219 138.807 458.349 Q138.807 465.455 140.613 469.02 Q142.441 472.562 146.052 472.562 Q149.687 472.562 151.492 469.02 Q153.321 465.455 153.321 458.349 Q153.321 451.219 151.492 447.678 Q149.687 444.113 146.052 444.113 M146.052 440.409 Q151.862 440.409 154.918 445.016 Q157.997 449.599 157.997 458.349 Q157.997 467.076 154.918 471.682 Q151.862 476.265 146.052 476.265 Q140.242 476.265 137.164 471.682 Q134.108 467.076 134.108 458.349 Q134.108 449.599 137.164 445.016 Q140.242 440.409 146.052 440.409 Z" fill="#000000" fill-rule="nonzero" fill-opacity="1" /><path clip-path="url(#clip930)" d="M166.214 469.714 L171.099 469.714 L171.099 475.594 L166.214 475.594 L166.214 469.714 Z" fill="#000000" fill-rule="nonzero" fill-opacity="1" /><path clip-path="url(#clip930)" d="M181.33 441.034 L199.686 441.034 L199.686 444.969 L185.612 444.969 L185.612 453.441 Q186.631 453.094 187.649 452.932 Q188.668 452.747 189.686 452.747 Q195.473 452.747 198.853 455.918 Q202.233 459.089 202.233 464.506 Q202.233 470.085 198.76 473.187 Q195.288 476.265 188.969 476.265 Q186.793 476.265 184.524 475.895 Q182.279 475.525 179.872 474.784 L179.872 470.085 Q181.955 471.219 184.177 471.775 Q186.399 472.33 188.876 472.33 Q192.881 472.33 195.219 470.224 Q197.557 468.117 197.557 464.506 Q197.557 460.895 195.219 458.789 Q192.881 456.682 188.876 456.682 Q187.001 456.682 185.126 457.099 Q183.274 457.515 181.33 458.395 L181.33 441.034 Z" fill="#000000" fill-rule="nonzero" fill-opacity="1" /><path clip-path="url(#clip930)" d="M135.867 350.79 L143.506 350.79 L143.506 324.424 L135.196 326.091 L135.196 321.832 L143.46 320.165 L148.136 320.165 L148.136 350.79 L155.775 350.79 L155.775 354.725 L135.867 354.725 L135.867 350.79 Z" fill="#000000" fill-rule="nonzero" fill-opacity="1" /><path clip-path="url(#clip930)" d="M165.219 348.845 L170.103 348.845 L170.103 354.725 L165.219 354.725 L165.219 348.845 Z" fill="#000000" fill-rule="nonzero" fill-opacity="1" /><path clip-path="url(#clip930)" d="M190.288 323.244 Q186.677 323.244 184.848 326.808 Q183.043 330.35 183.043 337.48 Q183.043 344.586 184.848 348.151 Q186.677 351.693 190.288 351.693 Q193.922 351.693 195.728 348.151 Q197.557 344.586 197.557 337.48 Q197.557 330.35 195.728 326.808 Q193.922 323.244 190.288 323.244 M190.288 319.54 Q196.098 319.54 199.154 324.146 Q202.233 328.73 202.233 337.48 Q202.233 346.206 199.154 350.813 Q196.098 355.396 190.288 355.396 Q184.478 355.396 181.399 350.813 Q178.344 346.206 178.344 337.48 Q178.344 328.73 181.399 324.146 Q184.478 319.54 190.288 319.54 Z" fill="#000000" fill-rule="nonzero" fill-opacity="1" /><path clip-path="url(#clip930)" d="M136.863 229.921 L144.501 229.921 L144.501 203.555 L136.191 205.222 L136.191 200.963 L144.455 199.296 L149.131 199.296 L149.131 229.921 L156.77 229.921 L156.77 233.856 L136.863 233.856 L136.863 229.921 Z" fill="#000000" fill-rule="nonzero" fill-opacity="1" /><path clip-path="url(#clip930)" d="M166.214 227.976 L171.099 227.976 L171.099 233.856 L166.214 233.856 L166.214 227.976 Z" fill="#000000" fill-rule="nonzero" fill-opacity="1" /><path clip-path="url(#clip930)" d="M181.33 199.296 L199.686 199.296 L199.686 203.231 L185.612 203.231 L185.612 211.703 Q186.631 211.356 187.649 211.194 Q188.668 211.009 189.686 211.009 Q195.473 211.009 198.853 214.18 Q202.233 217.351 202.233 222.768 Q202.233 228.347 198.76 231.448 Q195.288 234.527 188.969 234.527 Q186.793 234.527 184.524 234.157 Q182.279 233.786 179.872 233.046 L179.872 228.347 Q181.955 229.481 184.177 230.036 Q186.399 230.592 188.876 230.592 Q192.881 230.592 195.219 228.486 Q197.557 226.379 197.557 222.768 Q197.557 219.157 195.219 217.05 Q192.881 214.944 188.876 214.944 Q187.001 214.944 185.126 215.361 Q183.274 215.777 181.33 216.657 L181.33 199.296 Z" fill="#000000" fill-rule="nonzero" fill-opacity="1" /><path clip-path="url(#clip930)" d="M-6.92767 827.318 L-0.657452 827.318 Q-2.40802 830.979 -3.26739 834.225 Q-4.12676 837.472 -4.12676 840.495 Q-4.12676 845.747 -2.08974 848.612 Q-0.0527098 851.444 3.70306 851.444 Q6.85408 851.444 8.47734 849.567 Q10.0688 847.657 11.0554 842.373 L11.8512 838.49 Q13.2198 831.297 16.6891 827.891 Q20.1266 824.454 25.9194 824.454 Q32.8262 824.454 36.391 829.101 Q39.9558 833.716 39.9558 842.66 Q39.9558 846.034 39.1919 849.853 Q38.428 853.641 36.932 857.715 L30.3117 857.715 Q32.5079 853.8 33.6219 850.044 Q34.7359 846.288 34.7359 842.66 Q34.7359 837.153 32.5715 834.162 Q30.4072 831.17 26.3968 831.17 Q22.8957 831.17 20.9223 833.334 Q18.9489 835.466 17.9622 840.368 L17.1984 844.283 Q15.7661 851.476 12.7105 854.691 Q9.65499 857.906 4.21231 857.906 Q-2.08974 857.906 -5.71819 853.481 Q-9.34664 849.025 -9.34664 841.227 Q-9.34664 837.885 -8.7419 834.416 Q-8.13716 830.947 -6.92767 827.318 Z" fill="#000000" fill-rule="nonzero" fill-opacity="1" /><path clip-path="url(#clip930)" d="M21.1133 798.482 Q21.1133 805.579 22.7365 808.317 Q24.3598 811.054 28.2747 811.054 Q31.3939 811.054 33.2399 809.017 Q35.0542 806.948 35.0542 803.415 Q35.0542 798.545 31.6167 795.617 Q28.1474 792.657 22.4182 792.657 L21.1133 792.657 L21.1133 798.482 M18.6943 786.801 L39.0327 786.801 L39.0327 792.657 L33.6219 792.657 Q36.8684 794.662 38.428 797.654 Q39.9558 800.646 39.9558 804.975 Q39.9558 810.449 36.9002 813.696 Q33.8128 816.91 28.6566 816.91 Q22.641 816.91 19.5855 812.9 Q16.53 808.858 16.53 800.869 L16.53 792.657 L15.957 792.657 Q11.9148 792.657 9.71865 795.331 Q7.49065 797.972 7.49065 802.779 Q7.49065 805.834 8.22271 808.731 Q8.95477 811.627 10.4189 814.301 L5.00803 814.301 Q3.76671 811.086 3.16197 808.062 Q2.5254 805.038 2.5254 802.174 Q2.5254 794.439 6.5358 790.62 Q10.5462 786.801 18.6943 786.801 Z" fill="#000000" fill-rule="nonzero" fill-opacity="1" /><path clip-path="url(#clip930)" d="M10.2279 746.983 Q6.28117 744.787 4.40328 741.731 Q2.5254 738.676 2.5254 734.538 Q2.5254 728.968 6.44031 725.944 Q10.3234 722.921 17.5166 722.921 L39.0327 722.921 L39.0327 728.809 L17.7076 728.809 Q12.5832 728.809 10.1006 730.623 Q7.61797 732.438 7.61797 736.161 Q7.61797 740.713 10.6417 743.355 Q13.6654 745.996 18.8853 745.996 L39.0327 745.996 L39.0327 751.885 L17.7076 751.885 Q12.5514 751.885 10.1006 753.699 Q7.61797 755.513 7.61797 759.301 Q7.61797 763.789 10.6735 766.43 Q13.6972 769.072 18.8853 769.072 L39.0327 769.072 L39.0327 774.96 L3.38477 774.96 L3.38477 769.072 L8.92294 769.072 Q5.6446 767.067 4.085 764.266 Q2.5254 761.465 2.5254 757.614 Q2.5254 753.731 4.49877 751.025 Q6.47214 748.288 10.2279 746.983 Z" fill="#000000" fill-rule="nonzero" fill-opacity="1" /><path clip-path="url(#clip930)" d="M33.6855 705.574 L52.5917 705.574 L52.5917 711.463 L3.38477 711.463 L3.38477 705.574 L8.79562 705.574 Q5.61277 703.728 4.085 700.927 Q2.5254 698.095 2.5254 694.18 Q2.5254 687.687 7.68162 683.644 Q12.8378 679.57 21.2406 679.57 Q29.6433 679.57 34.7995 683.644 Q39.9558 687.687 39.9558 694.18 Q39.9558 698.095 38.428 700.927 Q36.8684 703.728 33.6855 705.574 M21.2406 685.65 Q14.7794 685.65 11.1191 688.323 Q7.427 690.965 7.427 695.612 Q7.427 700.259 11.1191 702.932 Q14.7794 705.574 21.2406 705.574 Q27.7018 705.574 31.3939 702.932 Q35.0542 700.259 35.0542 695.612 Q35.0542 690.965 31.3939 688.323 Q27.7018 685.65 21.2406 685.65 Z" fill="#000000" fill-rule="nonzero" fill-opacity="1" /><path clip-path="url(#clip930)" d="M-10.4925 669.863 L-10.4925 664.006 L39.0327 664.006 L39.0327 669.863 L-10.4925 669.863 Z" fill="#000000" fill-rule="nonzero" fill-opacity="1" /><path clip-path="url(#clip930)" d="M19.7446 621.26 L22.6092 621.26 L22.6092 648.187 Q28.6566 647.805 31.8395 644.559 Q34.9905 641.281 34.9905 635.456 Q34.9905 632.082 34.163 628.931 Q33.3354 625.748 31.6803 622.629 L37.2185 622.629 Q38.5553 625.78 39.2555 629.09 Q39.9558 632.4 39.9558 635.806 Q39.9558 644.336 34.9905 649.333 Q30.0253 654.298 21.5589 654.298 Q12.806 654.298 7.68162 649.588 Q2.5254 644.845 2.5254 636.825 Q2.5254 629.631 7.17237 625.462 Q11.7875 621.26 19.7446 621.26 M18.0259 627.117 Q13.2198 627.181 10.3552 629.822 Q7.49065 632.432 7.49065 636.761 Q7.49065 641.663 10.2597 644.623 Q13.0288 647.551 18.0577 647.996 L18.0259 627.117 Z" fill="#000000" fill-rule="nonzero" fill-opacity="1" /><path clip-path="url(#clip930)" d="M21.2406 587.427 Q27.7018 587.427 31.3939 584.785 Q35.0542 582.111 35.0542 577.464 Q35.0542 572.817 31.3939 570.144 Q27.7018 567.47 21.2406 567.47 Q14.7794 567.47 11.1191 570.144 Q7.427 572.817 7.427 577.464 Q7.427 582.111 11.1191 584.785 Q14.7794 587.427 21.2406 587.427 M33.6855 567.47 Q36.8684 569.316 38.428 572.149 Q39.9558 574.95 39.9558 578.897 Q39.9558 585.358 34.7995 589.432 Q29.6433 593.474 21.2406 593.474 Q12.8378 593.474 7.68162 589.432 Q2.5254 585.358 2.5254 578.897 Q2.5254 574.95 4.085 572.149 Q5.61277 569.316 8.79562 567.47 L3.38477 567.47 L3.38477 561.614 L52.5917 561.614 L52.5917 567.47 L33.6855 567.47 Z" fill="#000000" fill-rule="nonzero" fill-opacity="1" /><path clip-path="url(#clip930)" d="M24.9645 550.156 L3.38477 550.156 L3.38477 544.299 L24.7417 544.299 Q29.8025 544.299 32.3487 542.326 Q34.8632 540.352 34.8632 536.406 Q34.8632 531.663 31.8395 528.926 Q28.8158 526.157 23.5959 526.157 L3.38477 526.157 L3.38477 520.3 L39.0327 520.3 L39.0327 526.157 L33.5582 526.157 Q36.8047 528.289 38.3962 531.122 Q39.9558 533.923 39.9558 537.647 Q39.9558 543.79 36.1363 546.973 Q32.3169 550.156 24.9645 550.156 M2.5254 535.419 L2.5254 535.419 Z" fill="#000000" fill-rule="nonzero" fill-opacity="1" /><path clip-path="url(#clip930)" d="M21.1133 492.037 Q21.1133 499.134 22.7365 501.872 Q24.3598 504.609 28.2747 504.609 Q31.3939 504.609 33.2399 502.572 Q35.0542 500.503 35.0542 496.97 Q35.0542 492.1 31.6167 489.172 Q28.1474 486.212 22.4182 486.212 L21.1133 486.212 L21.1133 492.037 M18.6943 480.356 L39.0327 480.356 L39.0327 486.212 L33.6219 486.212 Q36.8684 488.217 38.428 491.209 Q39.9558 494.201 39.9558 498.53 Q39.9558 504.004 36.9002 507.251 Q33.8128 510.465 28.6566 510.465 Q22.641 510.465 19.5855 506.455 Q16.53 502.413 16.53 494.424 L16.53 486.212 L15.957 486.212 Q11.9148 486.212 9.71865 488.886 Q7.49065 491.527 7.49065 496.333 Q7.49065 499.389 8.22271 502.285 Q8.95477 505.182 10.4189 507.855 L5.00803 507.855 Q3.76671 504.641 3.16197 501.617 Q2.5254 498.593 2.5254 495.729 Q2.5254 487.994 6.5358 484.175 Q10.5462 480.356 18.6943 480.356 Z" fill="#000000" fill-rule="nonzero" fill-opacity="1" /><path clip-path="url(#clip930)" d="M17.5166 438.66 L39.0327 438.66 L39.0327 444.517 L17.7076 444.517 Q12.6469 444.517 10.1324 446.49 Q7.61797 448.463 7.61797 452.41 Q7.61797 457.153 10.6417 459.89 Q13.6654 462.627 18.8853 462.627 L39.0327 462.627 L39.0327 468.515 L3.38477 468.515 L3.38477 462.627 L8.92294 462.627 Q5.70825 460.526 4.11683 457.694 Q2.5254 454.829 2.5254 451.105 Q2.5254 444.962 6.34483 441.811 Q10.1324 438.66 17.5166 438.66 Z" fill="#000000" fill-rule="nonzero" fill-opacity="1" /><path clip-path="url(#clip930)" d="M-6.7367 421.186 L3.38477 421.186 L3.38477 409.123 L7.93625 409.123 L7.93625 421.186 L27.288 421.186 Q31.6485 421.186 32.8898 420.009 Q34.1311 418.799 34.1311 415.139 L34.1311 409.123 L39.0327 409.123 L39.0327 415.139 Q39.0327 421.918 36.5183 424.496 Q33.972 427.075 27.288 427.075 L7.93625 427.075 L7.93625 431.371 L3.38477 431.371 L3.38477 427.075 L-6.7367 427.075 L-6.7367 421.186 Z" fill="#000000" fill-rule="nonzero" fill-opacity="1" /><path clip-path="url(#clip930)" d="M3.38477 401.421 L3.38477 395.564 L39.0327 395.564 L39.0327 401.421 L3.38477 401.421 M-10.4925 401.421 L-10.4925 395.564 L-3.07642 395.564 L-3.07642 401.421 L-10.4925 401.421 Z" fill="#000000" fill-rule="nonzero" fill-opacity="1" /><path clip-path="url(#clip930)" d="M-10.4925 383.31 L-10.4925 377.454 L39.0327 377.454 L39.0327 383.31 L-10.4925 383.31 Z" fill="#000000" fill-rule="nonzero" fill-opacity="1" /><path clip-path="url(#clip930)" d="M19.7446 334.708 L22.6092 334.708 L22.6092 361.635 Q28.6566 361.253 31.8395 358.007 Q34.9905 354.728 34.9905 348.904 Q34.9905 345.53 34.163 342.379 Q33.3354 339.196 31.6803 336.077 L37.2185 336.077 Q38.5553 339.228 39.2555 342.538 Q39.9558 345.848 39.9558 349.254 Q39.9558 357.784 34.9905 362.781 Q30.0253 367.746 21.5589 367.746 Q12.806 367.746 7.68162 363.036 Q2.5254 358.293 2.5254 350.272 Q2.5254 343.079 7.17237 338.91 Q11.7875 334.708 19.7446 334.708 M18.0259 340.565 Q13.2198 340.628 10.3552 343.27 Q7.49065 345.88 7.49065 350.209 Q7.49065 355.11 10.2597 358.07 Q13.0288 360.999 18.0577 361.444 L18.0259 340.565 Z" fill="#000000" fill-rule="nonzero" fill-opacity="1" /><path clip-path="url(#clip930)" d="M4.43511 302.37 L9.97328 302.37 Q8.70014 304.853 8.06357 307.527 Q7.427 310.2 7.427 313.065 Q7.427 317.425 8.76379 319.621 Q10.1006 321.786 12.7742 321.786 Q14.8112 321.786 15.9889 320.226 Q17.1347 318.667 18.185 313.956 L18.6306 311.951 Q19.9674 305.712 22.4182 303.102 Q24.8372 300.461 29.1977 300.461 Q34.163 300.461 37.0594 304.407 Q39.9558 308.322 39.9558 315.197 Q39.9558 318.062 39.3828 321.181 Q38.8418 324.268 37.7278 327.706 L31.6803 327.706 Q33.3673 324.459 34.2266 321.308 Q35.0542 318.157 35.0542 315.07 Q35.0542 310.932 33.6537 308.704 Q32.2214 306.476 29.6433 306.476 Q27.2562 306.476 25.983 308.1 Q24.7099 309.691 23.5322 315.134 L23.0548 317.171 Q21.909 322.613 19.5537 325.032 Q17.1665 327.451 13.0288 327.451 Q7.99991 327.451 5.26266 323.886 Q2.5254 320.322 2.5254 313.765 Q2.5254 310.518 3.00283 307.654 Q3.48026 304.789 4.43511 302.37 Z" fill="#000000" fill-rule="nonzero" fill-opacity="1" /><path clip-path="url(#clip930)" d="M673.18 17.6457 Q664.268 17.6457 659.001 24.2892 Q653.776 30.9327 653.776 42.3968 Q653.776 53.8203 659.001 60.4638 Q664.268 67.1073 673.18 67.1073 Q682.092 67.1073 687.277 60.4638 Q692.502 53.8203 692.502 42.3968 Q692.502 30.9327 687.277 24.2892 Q682.092 17.6457 673.18 17.6457 M684.644 71.4823 L695.419 83.2704 L685.535 83.2704 L676.582 73.5887 Q675.245 73.6697 674.516 73.7103 Q673.828 73.7508 673.18 73.7508 Q660.419 73.7508 652.763 65.2439 Q645.147 56.6965 645.147 42.3968 Q645.147 28.0566 652.763 19.5497 Q660.419 11.0023 673.18 11.0023 Q685.899 11.0023 693.515 19.5497 Q701.131 28.0566 701.131 42.3968 Q701.131 52.9291 696.877 60.4233 Q692.664 67.9175 684.644 71.4823 Z" fill="#000000" fill-rule="nonzero" fill-opacity="1" /><path clip-path="url(#clip930)" d="M738.48 17.6457 Q729.568 17.6457 724.302 24.2892 Q719.076 30.9327 719.076 42.3968 Q719.076 53.8203 724.302 60.4638 Q729.568 67.1073 738.48 67.1073 Q747.392 67.1073 752.577 60.4638 Q757.803 53.8203 757.803 42.3968 Q757.803 30.9327 752.577 24.2892 Q747.392 17.6457 738.48 17.6457 M749.944 71.4823 L760.72 83.2704 L750.835 83.2704 L741.883 73.5887 Q740.546 73.6697 739.817 73.7103 Q739.128 73.7508 738.48 73.7508 Q725.72 73.7508 718.064 65.2439 Q710.448 56.6965 710.448 42.3968 Q710.448 28.0566 718.064 19.5497 Q725.72 11.0023 738.48 11.0023 Q751.2 11.0023 758.816 19.5497 Q766.431 28.0566 766.431 42.3968 Q766.431 52.9291 762.178 60.4233 Q757.965 67.9175 749.944 71.4823 Z" fill="#000000" fill-rule="nonzero" fill-opacity="1" /><path clip-path="url(#clip930)" d="M813.786 18.8205 L813.786 41.5461 L824.076 41.5461 Q829.787 41.5461 832.907 38.5889 Q836.026 35.6318 836.026 30.163 Q836.026 24.7348 832.907 21.7777 Q829.787 18.8205 824.076 18.8205 L813.786 18.8205 M805.604 12.096 L824.076 12.096 Q834.243 12.096 839.429 16.714 Q844.654 21.2916 844.654 30.163 Q844.654 39.1155 839.429 43.6931 Q834.243 48.2706 824.076 48.2706 L813.786 48.2706 L813.786 72.576 L805.604 72.576 L805.604 12.096 Z" fill="#000000" fill-rule="nonzero" fill-opacity="1" /><path clip-path="url(#clip930)" d="M855.308 9.54393 L862.762 9.54393 L862.762 72.576 L855.308 72.576 L855.308 9.54393 Z" fill="#000000" fill-rule="nonzero" fill-opacity="1" /><path clip-path="url(#clip930)" d="M895.939 32.4315 Q889.943 32.4315 886.46 37.1306 Q882.976 41.7891 882.976 49.9314 Q882.976 58.0738 886.419 62.7728 Q889.903 67.4314 895.939 67.4314 Q901.894 67.4314 905.377 62.7323 Q908.861 58.0333 908.861 49.9314 Q908.861 41.8701 905.377 37.1711 Q901.894 32.4315 895.939 32.4315 M895.939 26.1121 Q905.661 26.1121 911.211 32.4315 Q916.76 38.7509 916.76 49.9314 Q916.76 61.0714 911.211 67.4314 Q905.661 73.7508 895.939 73.7508 Q886.176 73.7508 880.626 67.4314 Q875.117 61.0714 875.117 49.9314 Q875.117 38.7509 880.626 32.4315 Q886.176 26.1121 895.939 26.1121 Z" fill="#000000" fill-rule="nonzero" fill-opacity="1" /><path clip-path="url(#clip930)" d="M936.488 14.324 L936.488 27.2059 L951.841 27.2059 L951.841 32.9987 L936.488 32.9987 L936.488 57.6282 Q936.488 63.1779 937.987 64.7578 Q939.526 66.3376 944.185 66.3376 L951.841 66.3376 L951.841 72.576 L944.185 72.576 Q935.557 72.576 932.275 69.3758 Q928.994 66.1351 928.994 57.6282 L928.994 32.9987 L923.525 32.9987 L923.525 27.2059 L928.994 27.2059 L928.994 14.324 L936.488 14.324 Z" fill="#000000" fill-rule="nonzero" fill-opacity="1" /><circle clip-path="url(#clip932)" cx="275.606" cy="963.327" r="10.8" fill="#4682b4" fill-rule="evenodd" fill-opacity="1" stroke="#000000" stroke-opacity="1" stroke-width="2.4"/>
<circle clip-path="url(#clip932)" cx="428.515" cy="951.775" r="10.8" fill="#4682b4" fill-rule="evenodd" fill-opacity="1" stroke="#000000" stroke-opacity="1" stroke-width="2.4"/>
<circle clip-path="url(#clip932)" cx="514.979" cy="806.453" r="10.8" fill="#4682b4" fill-rule="evenodd" fill-opacity="1" stroke="#000000" stroke-opacity="1" stroke-width="2.4"/>
<circle clip-path="url(#clip932)" cx="580.545" cy="777.718" r="10.8" fill="#4682b4" fill-rule="evenodd" fill-opacity="1" stroke="#000000" stroke-opacity="1" stroke-width="2.4"/>
<circle clip-path="url(#clip932)" cx="635.926" cy="751.417" r="10.8" fill="#4682b4" fill-rule="evenodd" fill-opacity="1" stroke="#000000" stroke-opacity="1" stroke-width="2.4"/>
<circle clip-path="url(#clip932)" cx="685.578" cy="718.775" r="10.8" fill="#4682b4" fill-rule="evenodd" fill-opacity="1" stroke="#000000" stroke-opacity="1" stroke-width="2.4"/>
<circle clip-path="url(#clip932)" cx="731.909" cy="685.357" r="10.8" fill="#4682b4" fill-rule="evenodd" fill-opacity="1" stroke="#000000" stroke-opacity="1" stroke-width="2.4"/>
<circle clip-path="url(#clip932)" cx="776.483" cy="540.673" r="10.8" fill="#4682b4" fill-rule="evenodd" fill-opacity="1" stroke="#000000" stroke-opacity="1" stroke-width="2.4"/>
<circle clip-path="url(#clip932)" cx="820.505" cy="531.94" r="10.8" fill="#4682b4" fill-rule="evenodd" fill-opacity="1" stroke="#000000" stroke-opacity="1" stroke-width="2.4"/>
<circle clip-path="url(#clip932)" cx="865.079" cy="521.001" r="10.8" fill="#4682b4" fill-rule="evenodd" fill-opacity="1" stroke="#000000" stroke-opacity="1" stroke-width="2.4"/>
<circle clip-path="url(#clip932)" cx="911.41" cy="459.998" r="10.8" fill="#4682b4" fill-rule="evenodd" fill-opacity="1" stroke="#000000" stroke-opacity="1" stroke-width="2.4"/>
<circle clip-path="url(#clip932)" cx="961.063" cy="411.723" r="10.8" fill="#4682b4" fill-rule="evenodd" fill-opacity="1" stroke="#000000" stroke-opacity="1" stroke-width="2.4"/>
<circle clip-path="url(#clip932)" cx="1016.44" cy="340.001" r="10.8" fill="#4682b4" fill-rule="evenodd" fill-opacity="1" stroke="#000000" stroke-opacity="1" stroke-width="2.4"/>
<circle clip-path="url(#clip932)" cx="1082.01" cy="290.333" r="10.8" fill="#4682b4" fill-rule="evenodd" fill-opacity="1" stroke="#000000" stroke-opacity="1" stroke-width="2.4"/>
<circle clip-path="url(#clip932)" cx="1168.47" cy="257.791" r="10.8" fill="#4682b4" fill-rule="evenodd" fill-opacity="1" stroke="#000000" stroke-opacity="1" stroke-width="2.4"/>
<circle clip-path="url(#clip932)" cx="1321.38" cy="197.572" r="10.8" fill="#4682b4" fill-rule="evenodd" fill-opacity="1" stroke="#000000" stroke-opacity="1" stroke-width="2.4"/>
<polyline clip-path="url(#clip932)" style="stroke:#ff0000; stroke-linecap:round; stroke-linejoin:round; stroke-width:4; stroke-opacity:1; fill:none" stroke-dasharray="16, 10" points="275.606,1029.48 1321.38,128.89 "/>
<path clip-path="url(#clip930)" d="M1644.23 1056.49 L2752.76 1056.49 L2752.76 101.872 L1644.23 101.872  Z" fill="#ffffff" fill-rule="evenodd" fill-opacity="1"/>
<polyline clip-path="url(#clip931)" style="stroke:#000000; stroke-linecap:round; stroke-linejoin:round; stroke-width:2; stroke-opacity:0.1; fill:none" points="1791.13,1056.49 1791.13,101.872 "/>
<polyline clip-path="url(#clip931)" style="stroke:#000000; stroke-linecap:round; stroke-linejoin:round; stroke-width:2; stroke-opacity:0.1; fill:none" points="2022.18,1056.49 2022.18,101.872 "/>
<polyline clip-path="url(#clip931)" style="stroke:#000000; stroke-linecap:round; stroke-linejoin:round; stroke-width:2; stroke-opacity:0.1; fill:none" points="2253.23,1056.49 2253.23,101.872 "/>
<polyline clip-path="url(#clip931)" style="stroke:#000000; stroke-linecap:round; stroke-linejoin:round; stroke-width:2; stroke-opacity:0.1; fill:none" points="2484.28,1056.49 2484.28,101.872 "/>
<polyline clip-path="url(#clip931)" style="stroke:#000000; stroke-linecap:round; stroke-linejoin:round; stroke-width:2; stroke-opacity:0.1; fill:none" points="2715.33,1056.49 2715.33,101.872 "/>
<polyline clip-path="url(#clip931)" style="stroke:#000000; stroke-linecap:round; stroke-linejoin:round; stroke-width:2; stroke-opacity:0.1; fill:none" points="1644.23,1004.15 2752.76,1004.15 "/>
<polyline clip-path="url(#clip931)" style="stroke:#000000; stroke-linecap:round; stroke-linejoin:round; stroke-width:2; stroke-opacity:0.1; fill:none" points="1644.23,861.997 2752.76,861.997 "/>
<polyline clip-path="url(#clip931)" style="stroke:#000000; stroke-linecap:round; stroke-linejoin:round; stroke-width:2; stroke-opacity:0.1; fill:none" points="1644.23,719.845 2752.76,719.845 "/>
<polyline clip-path="url(#clip931)" style="stroke:#000000; stroke-linecap:round; stroke-linejoin:round; stroke-width:2; stroke-opacity:0.1; fill:none" points="1644.23,577.694 2752.76,577.694 "/>
<polyline clip-path="url(#clip931)" style="stroke:#000000; stroke-linecap:round; stroke-linejoin:round; stroke-width:2; stroke-opacity:0.1; fill:none" points="1644.23,435.543 2752.76,435.543 "/>
<polyline clip-path="url(#clip931)" style="stroke:#000000; stroke-linecap:round; stroke-linejoin:round; stroke-width:2; stroke-opacity:0.1; fill:none" points="1644.23,293.391 2752.76,293.391 "/>
<polyline clip-path="url(#clip931)" style="stroke:#000000; stroke-linecap:round; stroke-linejoin:round; stroke-width:2; stroke-opacity:0.1; fill:none" points="1644.23,151.24 2752.76,151.24 "/>
<polyline clip-path="url(#clip930)" style="stroke:#000000; stroke-linecap:round; stroke-linejoin:round; stroke-width:4; stroke-opacity:1; fill:none" points="1644.23,1056.49 2752.76,1056.49 "/>
<polyline clip-path="url(#clip930)" style="stroke:#000000; stroke-linecap:round; stroke-linejoin:round; stroke-width:4; stroke-opacity:1; fill:none" points="1791.13,1056.49 1791.13,1037.6 "/>
<polyline clip-path="url(#clip930)" style="stroke:#000000; stroke-linecap:round; stroke-linejoin:round; stroke-width:4; stroke-opacity:1; fill:none" points="2022.18,1056.49 2022.18,1037.6 "/>
<polyline clip-path="url(#clip930)" style="stroke:#000000; stroke-linecap:round; stroke-linejoin:round; stroke-width:4; stroke-opacity:1; fill:none" points="2253.23,1056.49 2253.23,1037.6 "/>
<polyline clip-path="url(#clip930)" style="stroke:#000000; stroke-linecap:round; stroke-linejoin:round; stroke-width:4; stroke-opacity:1; fill:none" points="2484.28,1056.49 2484.28,1037.6 "/>
<polyline clip-path="url(#clip930)" style="stroke:#000000; stroke-linecap:round; stroke-linejoin:round; stroke-width:4; stroke-opacity:1; fill:none" points="2715.33,1056.49 2715.33,1037.6 "/>
<path clip-path="url(#clip930)" d="M1785.78 1118.16 L1802.1 1118.16 L1802.1 1122.09 L1780.16 1122.09 L1780.16 1118.16 Q1782.82 1115.4 1787.4 1110.77 Q1792.01 1106.12 1793.19 1104.78 Q1795.44 1102.26 1796.32 1100.52 Q1797.22 1098.76 1797.22 1097.07 Q1797.22 1094.32 1795.27 1092.58 Q1793.35 1090.84 1790.25 1090.84 Q1788.05 1090.84 1785.6 1091.61 Q1783.17 1092.37 1780.39 1093.92 L1780.39 1089.2 Q1783.21 1088.07 1785.67 1087.49 Q1788.12 1086.91 1790.16 1086.91 Q1795.53 1086.91 1798.72 1089.59 Q1801.92 1092.28 1801.92 1096.77 Q1801.92 1098.9 1801.11 1100.82 Q1800.32 1102.72 1798.21 1105.31 Q1797.64 1105.98 1794.53 1109.2 Q1791.43 1112.4 1785.78 1118.16 Z" fill="#000000" fill-rule="nonzero" fill-opacity="1" /><path clip-path="url(#clip930)" d="M2025.19 1091.61 L2013.39 1110.06 L2025.19 1110.06 L2025.19 1091.61 M2023.96 1087.53 L2029.84 1087.53 L2029.84 1110.06 L2034.77 1110.06 L2034.77 1113.95 L2029.84 1113.95 L2029.84 1122.09 L2025.19 1122.09 L2025.19 1113.95 L2009.59 1113.95 L2009.59 1109.43 L2023.96 1087.53 Z" fill="#000000" fill-rule="nonzero" fill-opacity="1" /><path clip-path="url(#clip930)" d="M2253.64 1102.95 Q2250.49 1102.95 2248.64 1105.1 Q2246.81 1107.26 2246.81 1111.01 Q2246.81 1114.73 2248.64 1116.91 Q2250.49 1119.06 2253.64 1119.06 Q2256.79 1119.06 2258.61 1116.91 Q2260.47 1114.73 2260.47 1111.01 Q2260.47 1107.26 2258.61 1105.1 Q2256.79 1102.95 2253.64 1102.95 M2262.92 1088.3 L2262.92 1092.56 Q2261.16 1091.72 2259.36 1091.28 Q2257.57 1090.84 2255.81 1090.84 Q2251.18 1090.84 2248.73 1093.97 Q2246.3 1097.09 2245.95 1103.41 Q2247.32 1101.4 2249.38 1100.33 Q2251.44 1099.25 2253.92 1099.25 Q2259.12 1099.25 2262.13 1102.42 Q2265.17 1105.57 2265.17 1111.01 Q2265.17 1116.33 2262.02 1119.55 Q2258.87 1122.77 2253.64 1122.77 Q2247.64 1122.77 2244.47 1118.18 Q2241.3 1113.58 2241.3 1104.85 Q2241.3 1096.65 2245.19 1091.79 Q2249.08 1086.91 2255.63 1086.91 Q2257.39 1086.91 2259.17 1087.26 Q2260.98 1087.6 2262.92 1088.3 Z" fill="#000000" fill-rule="nonzero" fill-opacity="1" /><path clip-path="url(#clip930)" d="M2484.28 1105.68 Q2480.95 1105.68 2479.03 1107.46 Q2477.13 1109.25 2477.13 1112.37 Q2477.13 1115.5 2479.03 1117.28 Q2480.95 1119.06 2484.28 1119.06 Q2487.62 1119.06 2489.54 1117.28 Q2491.46 1115.47 2491.46 1112.37 Q2491.46 1109.25 2489.54 1107.46 Q2487.64 1105.68 2484.28 1105.68 M2479.61 1103.69 Q2476.6 1102.95 2474.91 1100.89 Q2473.24 1098.83 2473.24 1095.87 Q2473.24 1091.72 2476.18 1089.32 Q2479.14 1086.91 2484.28 1086.91 Q2489.45 1086.91 2492.39 1089.32 Q2495.33 1091.72 2495.33 1095.87 Q2495.33 1098.83 2493.64 1100.89 Q2491.97 1102.95 2488.98 1103.69 Q2492.36 1104.48 2494.24 1106.77 Q2496.14 1109.06 2496.14 1112.37 Q2496.14 1117.4 2493.06 1120.08 Q2490 1122.77 2484.28 1122.77 Q2478.57 1122.77 2475.49 1120.08 Q2472.43 1117.4 2472.43 1112.37 Q2472.43 1109.06 2474.33 1106.77 Q2476.23 1104.48 2479.61 1103.69 M2477.89 1096.31 Q2477.89 1098.99 2479.56 1100.5 Q2481.25 1102 2484.28 1102 Q2487.29 1102 2488.98 1100.5 Q2490.7 1098.99 2490.7 1096.31 Q2490.7 1093.62 2488.98 1092.12 Q2487.29 1090.61 2484.28 1090.61 Q2481.25 1090.61 2479.56 1092.12 Q2477.89 1093.62 2477.89 1096.31 Z" fill="#000000" fill-rule="nonzero" fill-opacity="1" /><path clip-path="url(#clip930)" d="M2690.02 1118.16 L2697.66 1118.16 L2697.66 1091.79 L2689.35 1093.46 L2689.35 1089.2 L2697.61 1087.53 L2702.29 1087.53 L2702.29 1118.16 L2709.93 1118.16 L2709.93 1122.09 L2690.02 1122.09 L2690.02 1118.16 Z" fill="#000000" fill-rule="nonzero" fill-opacity="1" /><path clip-path="url(#clip930)" d="M2729.37 1090.61 Q2725.76 1090.61 2723.93 1094.18 Q2722.13 1097.72 2722.13 1104.85 Q2722.13 1111.96 2723.93 1115.52 Q2725.76 1119.06 2729.37 1119.06 Q2733.01 1119.06 2734.81 1115.52 Q2736.64 1111.96 2736.64 1104.85 Q2736.64 1097.72 2734.81 1094.18 Q2733.01 1090.61 2729.37 1090.61 M2729.37 1086.91 Q2735.18 1086.91 2738.24 1091.52 Q2741.32 1096.1 2741.32 1104.85 Q2741.32 1113.58 2738.24 1118.18 Q2735.18 1122.77 2729.37 1122.77 Q2723.56 1122.77 2720.48 1118.18 Q2717.43 1113.58 2717.43 1104.85 Q2717.43 1096.1 2720.48 1091.52 Q2723.56 1086.91 2729.37 1086.91 Z" fill="#000000" fill-rule="nonzero" fill-opacity="1" /><path clip-path="url(#clip930)" d="M1995.19 1159.84 L2022.5 1159.84 L2022.5 1165.25 L2001.62 1165.25 L2001.62 1179.25 L2020.46 1179.25 L2020.46 1184.66 L2001.62 1184.66 L2001.62 1207.36 L1995.19 1207.36 L1995.19 1159.84 Z" fill="#000000" fill-rule="nonzero" fill-opacity="1" /><path clip-path="url(#clip930)" d="M2027.69 1171.71 L2033.54 1171.71 L2033.54 1207.36 L2027.69 1207.36 L2027.69 1171.71 M2027.69 1157.83 L2033.54 1157.83 L2033.54 1165.25 L2027.69 1165.25 L2027.69 1157.83 Z" fill="#000000" fill-rule="nonzero" fill-opacity="1" /><path clip-path="url(#clip930)" d="M2051.59 1161.59 L2051.59 1171.71 L2063.65 1171.71 L2063.65 1176.26 L2051.59 1176.26 L2051.59 1195.61 Q2051.59 1199.97 2052.77 1201.22 Q2053.98 1202.46 2057.64 1202.46 L2063.65 1202.46 L2063.65 1207.36 L2057.64 1207.36 Q2050.86 1207.36 2048.28 1204.84 Q2045.7 1202.3 2045.7 1195.61 L2045.7 1176.26 L2041.4 1176.26 L2041.4 1171.71 L2045.7 1171.71 L2045.7 1161.59 L2051.59 1161.59 Z" fill="#000000" fill-rule="nonzero" fill-opacity="1" /><path clip-path="url(#clip930)" d="M2077.15 1161.59 L2077.15 1171.71 L2089.21 1171.71 L2089.21 1176.26 L2077.15 1176.26 L2077.15 1195.61 Q2077.15 1199.97 2078.33 1201.22 Q2079.54 1202.46 2083.2 1202.46 L2089.21 1202.46 L2089.21 1207.36 L2083.2 1207.36 Q2076.42 1207.36 2073.84 1204.84 Q2071.26 1202.3 2071.26 1195.61 L2071.26 1176.26 L2066.96 1176.26 L2066.96 1171.71 L2071.26 1171.71 L2071.26 1161.59 L2077.15 1161.59 Z" fill="#000000" fill-rule="nonzero" fill-opacity="1" /><path clip-path="url(#clip930)" d="M2127.41 1188.07 L2127.41 1190.93 L2100.48 1190.93 Q2100.86 1196.98 2104.11 1200.16 Q2107.39 1203.32 2113.21 1203.32 Q2116.58 1203.32 2119.73 1202.49 Q2122.92 1201.66 2126.04 1200.01 L2126.04 1205.54 Q2122.89 1206.88 2119.58 1207.58 Q2116.27 1208.28 2112.86 1208.28 Q2104.33 1208.28 2099.33 1203.32 Q2094.37 1198.35 2094.37 1189.88 Q2094.37 1181.13 2099.08 1176.01 Q2103.82 1170.85 2111.84 1170.85 Q2119.03 1170.85 2123.2 1175.5 Q2127.41 1180.11 2127.41 1188.07 M2121.55 1186.35 Q2121.49 1181.55 2118.84 1178.68 Q2116.23 1175.82 2111.9 1175.82 Q2107 1175.82 2104.04 1178.59 Q2101.11 1181.35 2100.67 1186.38 L2121.55 1186.35 Z" fill="#000000" fill-rule="nonzero" fill-opacity="1" /><path clip-path="url(#clip930)" d="M2160.48 1177.12 L2160.48 1157.83 L2166.33 1157.83 L2166.33 1207.36 L2160.48 1207.36 L2160.48 1202.01 Q2158.63 1205.19 2155.8 1206.75 Q2153 1208.28 2149.05 1208.28 Q2142.59 1208.28 2138.51 1203.12 Q2134.47 1197.97 2134.47 1189.57 Q2134.47 1181.16 2138.51 1176.01 Q2142.59 1170.85 2149.05 1170.85 Q2153 1170.85 2155.8 1172.41 Q2158.63 1173.94 2160.48 1177.12 M2140.52 1189.57 Q2140.52 1196.03 2143.16 1199.72 Q2145.83 1203.38 2150.48 1203.38 Q2155.13 1203.38 2157.8 1199.72 Q2160.48 1196.03 2160.48 1189.57 Q2160.48 1183.1 2157.8 1179.44 Q2155.13 1175.75 2150.48 1175.75 Q2145.83 1175.75 2143.16 1179.44 Q2140.52 1183.1 2140.52 1189.57 Z" fill="#000000" fill-rule="nonzero" fill-opacity="1" /><path clip-path="url(#clip930)" d="M2194.91 1171.71 L2201.12 1171.71 L2212.26 1201.63 L2223.4 1171.71 L2229.61 1171.71 L2216.24 1207.36 L2208.28 1207.36 L2194.91 1171.71 Z" fill="#000000" fill-rule="nonzero" fill-opacity="1" /><path clip-path="url(#clip930)" d="M2253.89 1189.44 Q2246.79 1189.44 2244.06 1191.06 Q2241.32 1192.69 2241.32 1196.6 Q2241.32 1199.72 2243.36 1201.57 Q2245.43 1203.38 2248.96 1203.38 Q2253.83 1203.38 2256.76 1199.94 Q2259.72 1196.47 2259.72 1190.74 L2259.72 1189.44 L2253.89 1189.44 M2265.57 1187.02 L2265.57 1207.36 L2259.72 1207.36 L2259.72 1201.95 Q2257.71 1205.19 2254.72 1206.75 Q2251.73 1208.28 2247.4 1208.28 Q2241.92 1208.28 2238.68 1205.23 Q2235.46 1202.14 2235.46 1196.98 Q2235.46 1190.97 2239.47 1187.91 Q2243.52 1184.86 2251.5 1184.86 L2259.72 1184.86 L2259.72 1184.28 Q2259.72 1180.24 2257.04 1178.04 Q2254.4 1175.82 2249.59 1175.82 Q2246.54 1175.82 2243.64 1176.55 Q2240.75 1177.28 2238.07 1178.74 L2238.07 1173.33 Q2241.29 1172.09 2244.31 1171.49 Q2247.34 1170.85 2250.2 1170.85 Q2257.93 1170.85 2261.75 1174.86 Q2265.57 1178.87 2265.57 1187.02 Z" fill="#000000" fill-rule="nonzero" fill-opacity="1" /><path clip-path="url(#clip930)" d="M2277.64 1157.83 L2283.49 1157.83 L2283.49 1207.36 L2277.64 1207.36 L2277.64 1157.83 Z" fill="#000000" fill-rule="nonzero" fill-opacity="1" /><path clip-path="url(#clip930)" d="M2295.14 1193.29 L2295.14 1171.71 L2301 1171.71 L2301 1193.07 Q2301 1198.13 2302.97 1200.67 Q2304.94 1203.19 2308.89 1203.19 Q2313.63 1203.19 2316.37 1200.16 Q2319.14 1197.14 2319.14 1191.92 L2319.14 1171.71 L2325 1171.71 L2325 1207.36 L2319.14 1207.36 L2319.14 1201.88 Q2317.01 1205.13 2314.18 1206.72 Q2311.37 1208.28 2307.65 1208.28 Q2301.51 1208.28 2298.32 1204.46 Q2295.14 1200.64 2295.14 1193.29 M2309.88 1170.85 L2309.88 1170.85 Z" fill="#000000" fill-rule="nonzero" fill-opacity="1" /><path clip-path="url(#clip930)" d="M2367.55 1188.07 L2367.55 1190.93 L2340.62 1190.93 Q2341.01 1196.98 2344.25 1200.16 Q2347.53 1203.32 2353.36 1203.32 Q2356.73 1203.32 2359.88 1202.49 Q2363.06 1201.66 2366.18 1200.01 L2366.18 1205.54 Q2363.03 1206.88 2359.72 1207.58 Q2356.41 1208.28 2353.01 1208.28 Q2344.48 1208.28 2339.48 1203.32 Q2334.51 1198.35 2334.51 1189.88 Q2334.51 1181.13 2339.22 1176.01 Q2343.97 1170.85 2351.99 1170.85 Q2359.18 1170.85 2363.35 1175.5 Q2367.55 1180.11 2367.55 1188.07 M2361.7 1186.35 Q2361.63 1181.55 2358.99 1178.68 Q2356.38 1175.82 2352.05 1175.82 Q2347.15 1175.82 2344.19 1178.59 Q2341.26 1181.35 2340.82 1186.38 L2361.7 1186.35 Z" fill="#000000" fill-rule="nonzero" fill-opacity="1" /><path clip-path="url(#clip930)" d="M2399.89 1172.76 L2399.89 1178.3 Q2397.41 1177.03 2394.73 1176.39 Q2392.06 1175.75 2389.19 1175.75 Q2384.83 1175.75 2382.64 1177.09 Q2380.47 1178.43 2380.47 1181.1 Q2380.47 1183.14 2382.03 1184.31 Q2383.59 1185.46 2388.3 1186.51 L2390.31 1186.96 Q2396.55 1188.29 2399.16 1190.74 Q2401.8 1193.16 2401.8 1197.52 Q2401.8 1202.49 2397.85 1205.38 Q2393.94 1208.28 2387.06 1208.28 Q2384.2 1208.28 2381.08 1207.71 Q2377.99 1207.17 2374.55 1206.05 L2374.55 1200.01 Q2377.8 1201.69 2380.95 1202.55 Q2384.1 1203.38 2387.19 1203.38 Q2391.33 1203.38 2393.56 1201.98 Q2395.78 1200.55 2395.78 1197.97 Q2395.78 1195.58 2394.16 1194.31 Q2392.57 1193.04 2387.13 1191.86 L2385.09 1191.38 Q2379.65 1190.23 2377.23 1187.88 Q2374.81 1185.49 2374.81 1181.35 Q2374.81 1176.33 2378.37 1173.59 Q2381.94 1170.85 2388.49 1170.85 Q2391.74 1170.85 2394.61 1171.33 Q2397.47 1171.81 2399.89 1172.76 Z" fill="#000000" fill-rule="nonzero" fill-opacity="1" /><polyline clip-path="url(#clip930)" style="stroke:#000000; stroke-linecap:round; stroke-linejoin:round; stroke-width:4; stroke-opacity:1; fill:none" points="1644.23,1056.49 1644.23,101.872 "/>
<polyline clip-path="url(#clip930)" style="stroke:#000000; stroke-linecap:round; stroke-linejoin:round; stroke-width:4; stroke-opacity:1; fill:none" points="1644.23,1004.15 1663.13,1004.15 "/>
<polyline clip-path="url(#clip930)" style="stroke:#000000; stroke-linecap:round; stroke-linejoin:round; stroke-width:4; stroke-opacity:1; fill:none" points="1644.23,861.997 1663.13,861.997 "/>
<polyline clip-path="url(#clip930)" style="stroke:#000000; stroke-linecap:round; stroke-linejoin:round; stroke-width:4; stroke-opacity:1; fill:none" points="1644.23,719.845 1663.13,719.845 "/>
<polyline clip-path="url(#clip930)" style="stroke:#000000; stroke-linecap:round; stroke-linejoin:round; stroke-width:4; stroke-opacity:1; fill:none" points="1644.23,577.694 1663.13,577.694 "/>
<polyline clip-path="url(#clip930)" style="stroke:#000000; stroke-linecap:round; stroke-linejoin:round; stroke-width:4; stroke-opacity:1; fill:none" points="1644.23,435.543 1663.13,435.543 "/>
<polyline clip-path="url(#clip930)" style="stroke:#000000; stroke-linecap:round; stroke-linejoin:round; stroke-width:4; stroke-opacity:1; fill:none" points="1644.23,293.391 1663.13,293.391 "/>
<polyline clip-path="url(#clip930)" style="stroke:#000000; stroke-linecap:round; stroke-linejoin:round; stroke-width:4; stroke-opacity:1; fill:none" points="1644.23,151.24 1663.13,151.24 "/>
<path clip-path="url(#clip930)" d="M1496.28 1004.6 L1525.96 1004.6 L1525.96 1008.53 L1496.28 1008.53 L1496.28 1004.6 Z" fill="#000000" fill-rule="nonzero" fill-opacity="1" /><path clip-path="url(#clip930)" d="M1536.86 1017.49 L1544.5 1017.49 L1544.5 991.127 L1536.19 992.794 L1536.19 988.535 L1544.46 986.868 L1549.13 986.868 L1549.13 1017.49 L1556.77 1017.49 L1556.77 1021.43 L1536.86 1021.43 L1536.86 1017.49 Z" fill="#000000" fill-rule="nonzero" fill-opacity="1" /><path clip-path="url(#clip930)" d="M1566.21 1015.55 L1571.1 1015.55 L1571.1 1021.43 L1566.21 1021.43 L1566.21 1015.55 Z" fill="#000000" fill-rule="nonzero" fill-opacity="1" /><path clip-path="url(#clip930)" d="M1581.33 986.868 L1599.69 986.868 L1599.69 990.803 L1585.61 990.803 L1585.61 999.275 Q1586.63 998.928 1587.65 998.766 Q1588.67 998.581 1589.69 998.581 Q1595.47 998.581 1598.85 1001.75 Q1602.23 1004.92 1602.23 1010.34 Q1602.23 1015.92 1598.76 1019.02 Q1595.29 1022.1 1588.97 1022.1 Q1586.79 1022.1 1584.52 1021.73 Q1582.28 1021.36 1579.87 1020.62 L1579.87 1015.92 Q1581.95 1017.05 1584.18 1017.61 Q1586.4 1018.16 1588.88 1018.16 Q1592.88 1018.16 1595.22 1016.06 Q1597.56 1013.95 1597.56 1010.34 Q1597.56 1006.73 1595.22 1004.62 Q1592.88 1002.52 1588.88 1002.52 Q1587 1002.52 1585.13 1002.93 Q1583.27 1003.35 1581.33 1004.23 L1581.33 986.868 Z" fill="#000000" fill-rule="nonzero" fill-opacity="1" /><path clip-path="url(#clip930)" d="M1495.29 862.448 L1524.96 862.448 L1524.96 866.383 L1495.29 866.383 L1495.29 862.448 Z" fill="#000000" fill-rule="nonzero" fill-opacity="1" /><path clip-path="url(#clip930)" d="M1535.87 875.341 L1543.51 875.341 L1543.51 848.976 L1535.2 850.643 L1535.2 846.383 L1543.46 844.717 L1548.14 844.717 L1548.14 875.341 L1555.77 875.341 L1555.77 879.277 L1535.87 879.277 L1535.87 875.341 Z" fill="#000000" fill-rule="nonzero" fill-opacity="1" /><path clip-path="url(#clip930)" d="M1565.22 873.397 L1570.1 873.397 L1570.1 879.277 L1565.22 879.277 L1565.22 873.397 Z" fill="#000000" fill-rule="nonzero" fill-opacity="1" /><path clip-path="url(#clip930)" d="M1590.29 847.795 Q1586.68 847.795 1584.85 851.36 Q1583.04 854.902 1583.04 862.031 Q1583.04 869.138 1584.85 872.703 Q1586.68 876.244 1590.29 876.244 Q1593.92 876.244 1595.73 872.703 Q1597.56 869.138 1597.56 862.031 Q1597.56 854.902 1595.73 851.36 Q1593.92 847.795 1590.29 847.795 M1590.29 844.092 Q1596.1 844.092 1599.15 848.698 Q1602.23 853.281 1602.23 862.031 Q1602.23 870.758 1599.15 875.365 Q1596.1 879.948 1590.29 879.948 Q1584.48 879.948 1581.4 875.365 Q1578.34 870.758 1578.34 862.031 Q1578.34 853.281 1581.4 848.698 Q1584.48 844.092 1590.29 844.092 Z" fill="#000000" fill-rule="nonzero" fill-opacity="1" /><path clip-path="url(#clip930)" d="M1496.28 720.297 L1525.96 720.297 L1525.96 724.232 L1496.28 724.232 L1496.28 720.297 Z" fill="#000000" fill-rule="nonzero" fill-opacity="1" /><path clip-path="url(#clip930)" d="M1546.05 705.644 Q1542.44 705.644 1540.61 709.209 Q1538.81 712.75 1538.81 719.88 Q1538.81 726.986 1540.61 730.551 Q1542.44 734.093 1546.05 734.093 Q1549.69 734.093 1551.49 730.551 Q1553.32 726.986 1553.32 719.88 Q1553.32 712.75 1551.49 709.209 Q1549.69 705.644 1546.05 705.644 M1546.05 701.94 Q1551.86 701.94 1554.92 706.547 Q1558 711.13 1558 719.88 Q1558 728.607 1554.92 733.213 Q1551.86 737.797 1546.05 737.797 Q1540.24 737.797 1537.16 733.213 Q1534.11 728.607 1534.11 719.88 Q1534.11 711.13 1537.16 706.547 Q1540.24 701.94 1546.05 701.94 Z" fill="#000000" fill-rule="nonzero" fill-opacity="1" /><path clip-path="url(#clip930)" d="M1566.21 731.246 L1571.1 731.246 L1571.1 737.125 L1566.21 737.125 L1566.21 731.246 Z" fill="#000000" fill-rule="nonzero" fill-opacity="1" /><path clip-path="url(#clip930)" d="M1581.33 702.565 L1599.69 702.565 L1599.69 706.5 L1585.61 706.5 L1585.61 714.973 Q1586.63 714.625 1587.65 714.463 Q1588.67 714.278 1589.69 714.278 Q1595.47 714.278 1598.85 717.449 Q1602.23 720.621 1602.23 726.037 Q1602.23 731.616 1598.76 734.718 Q1595.29 737.797 1588.97 737.797 Q1586.79 737.797 1584.52 737.426 Q1582.28 737.056 1579.87 736.315 L1579.87 731.616 Q1581.95 732.75 1584.18 733.306 Q1586.4 733.861 1588.88 733.861 Q1592.88 733.861 1595.22 731.755 Q1597.56 729.649 1597.56 726.037 Q1597.56 722.426 1595.22 720.32 Q1592.88 718.213 1588.88 718.213 Q1587 718.213 1585.13 718.63 Q1583.27 719.047 1581.33 719.926 L1581.33 702.565 Z" fill="#000000" fill-rule="nonzero" fill-opacity="1" /><path clip-path="url(#clip930)" d="M1545.06 563.493 Q1541.45 563.493 1539.62 567.057 Q1537.81 570.599 1537.81 577.729 Q1537.81 584.835 1539.62 588.4 Q1541.45 591.942 1545.06 591.942 Q1548.69 591.942 1550.5 588.4 Q1552.33 584.835 1552.33 577.729 Q1552.33 570.599 1550.5 567.057 Q1548.69 563.493 1545.06 563.493 M1545.06 559.789 Q1550.87 559.789 1553.92 564.395 Q1557 568.979 1557 577.729 Q1557 586.456 1553.92 591.062 Q1550.87 595.645 1545.06 595.645 Q1539.25 595.645 1536.17 591.062 Q1533.11 586.456 1533.11 577.729 Q1533.11 568.979 1536.17 564.395 Q1539.25 559.789 1545.06 559.789 Z" fill="#000000" fill-rule="nonzero" fill-opacity="1" /><path clip-path="url(#clip930)" d="M1565.22 589.094 L1570.1 589.094 L1570.1 594.974 L1565.22 594.974 L1565.22 589.094 Z" fill="#000000" fill-rule="nonzero" fill-opacity="1" /><path clip-path="url(#clip930)" d="M1590.29 563.493 Q1586.68 563.493 1584.85 567.057 Q1583.04 570.599 1583.04 577.729 Q1583.04 584.835 1584.85 588.4 Q1586.68 591.942 1590.29 591.942 Q1593.92 591.942 1595.73 588.4 Q1597.56 584.835 1597.56 577.729 Q1597.56 570.599 1595.73 567.057 Q1593.92 563.493 1590.29 563.493 M1590.29 559.789 Q1596.1 559.789 1599.15 564.395 Q1602.23 568.979 1602.23 577.729 Q1602.23 586.456 1599.15 591.062 Q1596.1 595.645 1590.29 595.645 Q1584.48 595.645 1581.4 591.062 Q1578.34 586.456 1578.34 577.729 Q1578.34 568.979 1581.4 564.395 Q1584.48 559.789 1590.29 559.789 Z" fill="#000000" fill-rule="nonzero" fill-opacity="1" /><path clip-path="url(#clip930)" d="M1546.05 421.341 Q1542.44 421.341 1540.61 424.906 Q1538.81 428.448 1538.81 435.577 Q1538.81 442.684 1540.61 446.249 Q1542.44 449.79 1546.05 449.79 Q1549.69 449.79 1551.49 446.249 Q1553.32 442.684 1553.32 435.577 Q1553.32 428.448 1551.49 424.906 Q1549.69 421.341 1546.05 421.341 M1546.05 417.638 Q1551.86 417.638 1554.92 422.244 Q1558 426.827 1558 435.577 Q1558 444.304 1554.92 448.911 Q1551.86 453.494 1546.05 453.494 Q1540.24 453.494 1537.16 448.911 Q1534.11 444.304 1534.11 435.577 Q1534.11 426.827 1537.16 422.244 Q1540.24 417.638 1546.05 417.638 Z" fill="#000000" fill-rule="nonzero" fill-opacity="1" /><path clip-path="url(#clip930)" d="M1566.21 446.943 L1571.1 446.943 L1571.1 452.823 L1566.21 452.823 L1566.21 446.943 Z" fill="#000000" fill-rule="nonzero" fill-opacity="1" /><path clip-path="url(#clip930)" d="M1581.33 418.263 L1599.69 418.263 L1599.69 422.198 L1585.61 422.198 L1585.61 430.67 Q1586.63 430.323 1587.65 430.161 Q1588.67 429.976 1589.69 429.976 Q1595.47 429.976 1598.85 433.147 Q1602.23 436.318 1602.23 441.735 Q1602.23 447.313 1598.76 450.415 Q1595.29 453.494 1588.97 453.494 Q1586.79 453.494 1584.52 453.124 Q1582.28 452.753 1579.87 452.013 L1579.87 447.313 Q1581.95 448.448 1584.18 449.003 Q1586.4 449.559 1588.88 449.559 Q1592.88 449.559 1595.22 447.452 Q1597.56 445.346 1597.56 441.735 Q1597.56 438.124 1595.22 436.017 Q1592.88 433.911 1588.88 433.911 Q1587 433.911 1585.13 434.327 Q1583.27 434.744 1581.33 435.624 L1581.33 418.263 Z" fill="#000000" fill-rule="nonzero" fill-opacity="1" /><path clip-path="url(#clip930)" d="M1535.87 306.736 L1543.51 306.736 L1543.51 280.371 L1535.2 282.037 L1535.2 277.778 L1543.46 276.111 L1548.14 276.111 L1548.14 306.736 L1555.77 306.736 L1555.77 310.671 L1535.87 310.671 L1535.87 306.736 Z" fill="#000000" fill-rule="nonzero" fill-opacity="1" /><path clip-path="url(#clip930)" d="M1565.22 304.792 L1570.1 304.792 L1570.1 310.671 L1565.22 310.671 L1565.22 304.792 Z" fill="#000000" fill-rule="nonzero" fill-opacity="1" /><path clip-path="url(#clip930)" d="M1590.29 279.19 Q1586.68 279.19 1584.85 282.755 Q1583.04 286.297 1583.04 293.426 Q1583.04 300.533 1584.85 304.097 Q1586.68 307.639 1590.29 307.639 Q1593.92 307.639 1595.73 304.097 Q1597.56 300.533 1597.56 293.426 Q1597.56 286.297 1595.73 282.755 Q1593.92 279.19 1590.29 279.19 M1590.29 275.486 Q1596.1 275.486 1599.15 280.093 Q1602.23 284.676 1602.23 293.426 Q1602.23 302.153 1599.15 306.759 Q1596.1 311.343 1590.29 311.343 Q1584.48 311.343 1581.4 306.759 Q1578.34 302.153 1578.34 293.426 Q1578.34 284.676 1581.4 280.093 Q1584.48 275.486 1590.29 275.486 Z" fill="#000000" fill-rule="nonzero" fill-opacity="1" /><path clip-path="url(#clip930)" d="M1536.86 164.585 L1544.5 164.585 L1544.5 138.219 L1536.19 139.886 L1536.19 135.627 L1544.46 133.96 L1549.13 133.96 L1549.13 164.585 L1556.77 164.585 L1556.77 168.52 L1536.86 168.52 L1536.86 164.585 Z" fill="#000000" fill-rule="nonzero" fill-opacity="1" /><path clip-path="url(#clip930)" d="M1566.21 162.641 L1571.1 162.641 L1571.1 168.52 L1566.21 168.52 L1566.21 162.641 Z" fill="#000000" fill-rule="nonzero" fill-opacity="1" /><path clip-path="url(#clip930)" d="M1581.33 133.96 L1599.69 133.96 L1599.69 137.895 L1585.61 137.895 L1585.61 146.367 Q1586.63 146.02 1587.65 145.858 Q1588.67 145.673 1589.69 145.673 Q1595.47 145.673 1598.85 148.844 Q1602.23 152.016 1602.23 157.432 Q1602.23 163.011 1598.76 166.113 Q1595.29 169.191 1588.97 169.191 Q1586.79 169.191 1584.52 168.821 Q1582.28 168.451 1579.87 167.71 L1579.87 163.011 Q1581.95 164.145 1584.18 164.701 Q1586.4 165.256 1588.88 165.256 Q1592.88 165.256 1595.22 163.15 Q1597.56 161.043 1597.56 157.432 Q1597.56 153.821 1595.22 151.715 Q1592.88 149.608 1588.88 149.608 Q1587 149.608 1585.13 150.025 Q1583.27 150.442 1581.33 151.321 L1581.33 133.96 Z" fill="#000000" fill-rule="nonzero" fill-opacity="1" /><path clip-path="url(#clip930)" d="M1416.75 706.481 Q1417.45 704.412 1419.74 702.471 Q1422.04 700.498 1426.05 698.524 L1439.03 691.999 L1439.03 698.906 L1426.84 704.985 Q1422.07 707.341 1420.51 709.569 Q1418.95 711.765 1418.95 715.584 L1418.95 722.587 L1439.03 722.587 L1439.03 729.016 L1391.51 729.016 L1391.51 714.502 Q1391.51 706.354 1394.92 702.344 Q1398.32 698.333 1405.2 698.333 Q1409.69 698.333 1412.65 700.434 Q1415.61 702.503 1416.75 706.481 M1396.8 722.587 L1413.67 722.587 L1413.67 714.502 Q1413.67 709.855 1411.53 707.5 Q1409.37 705.113 1405.2 705.113 Q1401.03 705.113 1398.93 707.5 Q1396.8 709.855 1396.8 714.502 L1396.8 722.587 Z" fill="#000000" fill-rule="nonzero" fill-opacity="1" /><path clip-path="url(#clip930)" d="M1419.74 656.415 L1422.61 656.415 L1422.61 683.342 Q1428.66 682.96 1431.84 679.714 Q1434.99 676.435 1434.99 670.611 Q1434.99 667.237 1434.16 664.086 Q1433.34 660.903 1431.68 657.784 L1437.22 657.784 Q1438.56 660.935 1439.26 664.245 Q1439.96 667.555 1439.96 670.961 Q1439.96 679.491 1434.99 684.488 Q1430.03 689.453 1421.56 689.453 Q1412.81 689.453 1407.68 684.742 Q1402.53 680 1402.53 671.979 Q1402.53 664.786 1407.17 660.616 Q1411.79 656.415 1419.74 656.415 M1418.03 662.272 Q1413.22 662.335 1410.36 664.977 Q1407.49 667.587 1407.49 671.916 Q1407.49 676.817 1410.26 679.777 Q1413.03 682.705 1418.06 683.151 L1418.03 662.272 Z" fill="#000000" fill-rule="nonzero" fill-opacity="1" /><path clip-path="url(#clip930)" d="M1404.44 624.077 L1409.97 624.077 Q1408.7 626.56 1408.06 629.233 Q1407.43 631.907 1407.43 634.772 Q1407.43 639.132 1408.76 641.328 Q1410.1 643.493 1412.77 643.493 Q1414.81 643.493 1415.99 641.933 Q1417.13 640.373 1418.19 635.663 L1418.63 633.658 Q1419.97 627.419 1422.42 624.809 Q1424.84 622.168 1429.2 622.168 Q1434.16 622.168 1437.06 626.114 Q1439.96 630.029 1439.96 636.904 Q1439.96 639.769 1439.38 642.888 Q1438.84 645.975 1437.73 649.413 L1431.68 649.413 Q1433.37 646.166 1434.23 643.015 Q1435.05 639.864 1435.05 636.777 Q1435.05 632.639 1433.65 630.411 Q1432.22 628.183 1429.64 628.183 Q1427.26 628.183 1425.98 629.806 Q1424.71 631.398 1423.53 636.841 L1423.05 638.878 Q1421.91 644.32 1419.55 646.739 Q1417.17 649.158 1413.03 649.158 Q1408 649.158 1405.26 645.593 Q1402.53 642.029 1402.53 635.472 Q1402.53 632.225 1403 629.361 Q1403.48 626.496 1404.44 624.077 Z" fill="#000000" fill-rule="nonzero" fill-opacity="1" /><path clip-path="url(#clip930)" d="M1403.38 612.842 L1403.38 606.985 L1439.03 606.985 L1439.03 612.842 L1403.38 612.842 M1389.51 612.842 L1389.51 606.985 L1396.92 606.985 L1396.92 612.842 L1389.51 612.842 Z" fill="#000000" fill-rule="nonzero" fill-opacity="1" /><path clip-path="url(#clip930)" d="M1408.8 571.274 L1389.51 571.274 L1389.51 565.417 L1439.03 565.417 L1439.03 571.274 L1433.69 571.274 Q1436.87 573.12 1438.43 575.953 Q1439.96 578.753 1439.96 582.7 Q1439.96 589.161 1434.8 593.235 Q1429.64 597.278 1421.24 597.278 Q1412.84 597.278 1407.68 593.235 Q1402.53 589.161 1402.53 582.7 Q1402.53 578.753 1404.08 575.953 Q1405.61 573.12 1408.8 571.274 M1421.24 591.23 Q1427.7 591.23 1431.39 588.588 Q1435.05 585.915 1435.05 581.268 Q1435.05 576.621 1431.39 573.947 Q1427.7 571.274 1421.24 571.274 Q1414.78 571.274 1411.12 573.947 Q1407.43 576.621 1407.43 581.268 Q1407.43 585.915 1411.12 588.588 Q1414.78 591.23 1421.24 591.23 Z" fill="#000000" fill-rule="nonzero" fill-opacity="1" /><path clip-path="url(#clip930)" d="M1424.96 553.959 L1403.38 553.959 L1403.38 548.103 L1424.74 548.103 Q1429.8 548.103 1432.35 546.129 Q1434.86 544.156 1434.86 540.209 Q1434.86 535.467 1431.84 532.729 Q1428.82 529.96 1423.6 529.96 L1403.38 529.96 L1403.38 524.104 L1439.03 524.104 L1439.03 529.96 L1433.56 529.96 Q1436.8 532.093 1438.4 534.926 Q1439.96 537.726 1439.96 541.45 Q1439.96 547.593 1436.14 550.776 Q1432.32 553.959 1424.96 553.959 M1402.53 539.222 L1402.53 539.222 Z" fill="#000000" fill-rule="nonzero" fill-opacity="1" /><path clip-path="url(#clip930)" d="M1421.11 495.84 Q1421.11 502.938 1422.74 505.675 Q1424.36 508.412 1428.27 508.412 Q1431.39 508.412 1433.24 506.375 Q1435.05 504.307 1435.05 500.774 Q1435.05 495.904 1431.62 492.976 Q1428.15 490.015 1422.42 490.015 L1421.11 490.015 L1421.11 495.84 M1418.69 484.159 L1439.03 484.159 L1439.03 490.015 L1433.62 490.015 Q1436.87 492.021 1438.43 495.013 Q1439.96 498.004 1439.96 502.333 Q1439.96 507.808 1436.9 511.054 Q1433.81 514.269 1428.66 514.269 Q1422.64 514.269 1419.59 510.258 Q1416.53 506.216 1416.53 498.227 L1416.53 490.015 L1415.96 490.015 Q1411.91 490.015 1409.72 492.689 Q1407.49 495.331 1407.49 500.137 Q1407.49 503.193 1408.22 506.089 Q1408.95 508.985 1410.42 511.659 L1405.01 511.659 Q1403.77 508.444 1403.16 505.421 Q1402.53 502.397 1402.53 499.532 Q1402.53 491.798 1406.54 487.978 Q1410.55 484.159 1418.69 484.159 Z" fill="#000000" fill-rule="nonzero" fill-opacity="1" /><path clip-path="url(#clip930)" d="M1389.51 472.096 L1389.51 466.24 L1439.03 466.24 L1439.03 472.096 L1389.51 472.096 Z" fill="#000000" fill-rule="nonzero" fill-opacity="1" /><path clip-path="url(#clip930)" d="M1404.44 431.26 L1409.97 431.26 Q1408.7 433.743 1408.06 436.416 Q1407.43 439.09 1407.43 441.954 Q1407.43 446.315 1408.76 448.511 Q1410.1 450.675 1412.77 450.675 Q1414.81 450.675 1415.99 449.116 Q1417.13 447.556 1418.19 442.846 L1418.63 440.84 Q1419.97 434.602 1422.42 431.992 Q1424.84 429.35 1429.2 429.35 Q1434.16 429.35 1437.06 433.297 Q1439.96 437.212 1439.96 444.087 Q1439.96 446.951 1439.38 450.071 Q1438.84 453.158 1437.73 456.596 L1431.68 456.596 Q1433.37 453.349 1434.23 450.198 Q1435.05 447.047 1435.05 443.96 Q1435.05 439.822 1433.65 437.594 Q1432.22 435.366 1429.64 435.366 Q1427.26 435.366 1425.98 436.989 Q1424.71 438.581 1423.53 444.023 L1423.05 446.06 Q1421.91 451.503 1419.55 453.922 Q1417.17 456.341 1413.03 456.341 Q1408 456.341 1405.26 452.776 Q1402.53 449.211 1402.53 442.655 Q1402.53 439.408 1403 436.544 Q1403.48 433.679 1404.44 431.26 Z" fill="#000000" fill-rule="nonzero" fill-opacity="1" /><path clip-path="url(#clip930)" d="M1848.94 44.2197 Q1851.57 45.1109 1854.05 48.0275 Q1856.56 50.9442 1859.07 56.0483 L1867.37 72.576 L1858.58 72.576 L1850.85 57.061 Q1847.85 50.9847 1845.01 48.9997 Q1842.22 47.0148 1837.36 47.0148 L1828.44 47.0148 L1828.44 72.576 L1820.26 72.576 L1820.26 12.096 L1838.73 12.096 Q1849.1 12.096 1854.21 16.4305 Q1859.31 20.7649 1859.31 29.5149 Q1859.31 35.2267 1856.64 38.994 Q1854.01 42.7613 1848.94 44.2197 M1828.44 18.8205 L1828.44 40.2903 L1838.73 40.2903 Q1844.65 40.2903 1847.65 37.5762 Q1850.68 34.8216 1850.68 29.5149 Q1850.68 24.2082 1847.65 21.5346 Q1844.65 18.8205 1838.73 18.8205 L1828.44 18.8205 Z" fill="#000000" fill-rule="nonzero" fill-opacity="1" /><path clip-path="url(#clip930)" d="M1912.66 48.0275 L1912.66 51.6733 L1878.39 51.6733 Q1878.88 59.3701 1883.01 63.421 Q1887.18 67.4314 1894.6 67.4314 Q1898.89 67.4314 1902.9 66.3781 Q1906.95 65.3249 1910.92 63.2184 L1910.92 70.267 Q1906.91 71.9684 1902.7 72.8596 Q1898.48 73.7508 1894.15 73.7508 Q1883.29 73.7508 1876.93 67.4314 Q1870.61 61.1119 1870.61 50.3365 Q1870.61 39.1965 1876.61 32.6746 Q1882.65 26.1121 1892.85 26.1121 Q1902.01 26.1121 1907.32 32.0264 Q1912.66 37.9003 1912.66 48.0275 M1905.21 45.84 Q1905.13 39.7232 1901.77 36.0774 Q1898.44 32.4315 1892.93 32.4315 Q1886.7 32.4315 1882.93 35.9558 Q1879.2 39.4801 1878.63 45.8805 L1905.21 45.84 Z" fill="#000000" fill-rule="nonzero" fill-opacity="1" /><path clip-path="url(#clip930)" d="M1953.82 28.5427 L1953.82 35.5912 Q1950.66 33.9709 1947.26 33.1607 Q1943.85 32.3505 1940.21 32.3505 Q1934.66 32.3505 1931.86 34.0519 Q1929.11 35.7533 1929.11 39.156 Q1929.11 41.7486 1931.09 43.2475 Q1933.08 44.7058 1939.07 46.0426 L1941.63 46.6097 Q1949.57 48.3111 1952.89 51.4303 Q1956.25 54.509 1956.25 60.0587 Q1956.25 66.3781 1951.23 70.0644 Q1946.24 73.7508 1937.49 73.7508 Q1933.85 73.7508 1929.88 73.0216 Q1925.95 72.3329 1921.57 70.9151 L1921.57 63.2184 Q1925.71 65.3654 1929.72 66.4591 Q1933.73 67.5124 1937.66 67.5124 Q1942.92 67.5124 1945.76 65.73 Q1948.59 63.9071 1948.59 60.6258 Q1948.59 57.5877 1946.53 55.9673 Q1944.5 54.3469 1937.58 52.8481 L1934.98 52.2405 Q1928.06 50.7821 1924.98 47.7845 Q1921.9 44.7463 1921.9 39.4801 Q1921.9 33.0797 1926.44 29.5959 Q1930.97 26.1121 1939.32 26.1121 Q1943.45 26.1121 1947.1 26.7198 Q1950.74 27.3274 1953.82 28.5427 Z" fill="#000000" fill-rule="nonzero" fill-opacity="1" /><path clip-path="url(#clip930)" d="M1968.12 27.2059 L1975.57 27.2059 L1975.57 72.576 L1968.12 72.576 L1968.12 27.2059 M1968.12 9.54393 L1975.57 9.54393 L1975.57 18.9825 L1968.12 18.9825 L1968.12 9.54393 Z" fill="#000000" fill-rule="nonzero" fill-opacity="1" /><path clip-path="url(#clip930)" d="M2021.02 34.0924 L2021.02 9.54393 L2028.48 9.54393 L2028.48 72.576 L2021.02 72.576 L2021.02 65.7705 Q2018.67 69.8214 2015.07 71.8063 Q2011.5 73.7508 2006.48 73.7508 Q1998.26 73.7508 1993.07 67.1883 Q1987.93 60.6258 1987.93 49.9314 Q1987.93 39.2371 1993.07 32.6746 Q1998.26 26.1121 2006.48 26.1121 Q2011.5 26.1121 2015.07 28.0971 Q2018.67 30.0415 2021.02 34.0924 M1995.62 49.9314 Q1995.62 58.1548 1998.99 62.8538 Q2002.39 67.5124 2008.3 67.5124 Q2014.22 67.5124 2017.62 62.8538 Q2021.02 58.1548 2021.02 49.9314 Q2021.02 41.7081 2017.62 37.0496 Q2014.22 32.3505 2008.3 32.3505 Q2002.39 32.3505 1998.99 37.0496 Q1995.62 41.7081 1995.62 49.9314 Z" fill="#000000" fill-rule="nonzero" fill-opacity="1" /><path clip-path="url(#clip930)" d="M2043.06 54.671 L2043.06 27.2059 L2050.51 27.2059 L2050.51 54.3874 Q2050.51 60.8284 2053.03 64.0691 Q2055.54 67.2693 2060.56 67.2693 Q2066.6 67.2693 2070.08 63.421 Q2073.6 59.5726 2073.6 52.9291 L2073.6 27.2059 L2081.06 27.2059 L2081.06 72.576 L2073.6 72.576 L2073.6 65.6084 Q2070.89 69.7404 2067.29 71.7658 Q2063.72 73.7508 2058.98 73.7508 Q2051.16 73.7508 2047.11 68.8897 Q2043.06 64.0286 2043.06 54.671 M2061.82 26.1121 L2061.82 26.1121 Z" fill="#000000" fill-rule="nonzero" fill-opacity="1" /><path clip-path="url(#clip930)" d="M2117.03 49.7694 Q2108 49.7694 2104.51 51.8354 Q2101.03 53.9013 2101.03 58.8839 Q2101.03 62.8538 2103.62 65.2034 Q2106.26 67.5124 2110.75 67.5124 Q2116.95 67.5124 2120.68 63.1374 Q2124.44 58.7219 2124.44 51.4303 L2124.44 49.7694 L2117.03 49.7694 M2131.9 46.6907 L2131.9 72.576 L2124.44 72.576 L2124.44 65.6895 Q2121.89 69.8214 2118.08 71.8063 Q2114.28 73.7508 2108.77 73.7508 Q2101.8 73.7508 2097.67 69.8619 Q2093.58 65.9325 2093.58 59.3701 Q2093.58 51.7138 2098.68 47.825 Q2103.82 43.9361 2113.99 43.9361 L2124.44 43.9361 L2124.44 43.2069 Q2124.44 38.0623 2121.04 35.2672 Q2117.68 32.4315 2111.56 32.4315 Q2107.67 32.4315 2103.99 33.3632 Q2100.3 34.295 2096.9 36.1584 L2096.9 29.2718 Q2100.99 27.692 2104.84 26.9223 Q2108.69 26.1121 2112.33 26.1121 Q2122.18 26.1121 2127.04 31.2163 Q2131.9 36.3204 2131.9 46.6907 Z" fill="#000000" fill-rule="nonzero" fill-opacity="1" /><path clip-path="url(#clip930)" d="M2147.25 9.54393 L2154.7 9.54393 L2154.7 72.576 L2147.25 72.576 L2147.25 9.54393 Z" fill="#000000" fill-rule="nonzero" fill-opacity="1" /><path clip-path="url(#clip930)" d="M2199.22 28.5427 L2199.22 35.5912 Q2196.06 33.9709 2192.66 33.1607 Q2189.26 32.3505 2185.61 32.3505 Q2180.06 32.3505 2177.27 34.0519 Q2174.51 35.7533 2174.51 39.156 Q2174.51 41.7486 2176.5 43.2475 Q2178.48 44.7058 2184.48 46.0426 L2187.03 46.6097 Q2194.97 48.3111 2198.29 51.4303 Q2201.65 54.509 2201.65 60.0587 Q2201.65 66.3781 2196.63 70.0644 Q2191.65 73.7508 2182.9 73.7508 Q2179.25 73.7508 2175.28 73.0216 Q2171.35 72.3329 2166.98 70.9151 L2166.98 63.2184 Q2171.11 65.3654 2175.12 66.4591 Q2179.13 67.5124 2183.06 67.5124 Q2188.33 67.5124 2191.16 65.73 Q2194 63.9071 2194 60.6258 Q2194 57.5877 2191.93 55.9673 Q2189.91 54.3469 2182.98 52.8481 L2180.39 52.2405 Q2173.46 50.7821 2170.38 47.7845 Q2167.3 44.7463 2167.3 39.4801 Q2167.3 33.0797 2171.84 29.5959 Q2176.38 26.1121 2184.72 26.1121 Q2188.85 26.1121 2192.5 26.7198 Q2196.14 27.3274 2199.22 28.5427 Z" fill="#000000" fill-rule="nonzero" fill-opacity="1" /><path clip-path="url(#clip930)" d="M2234.55 27.2059 L2242.45 27.2059 L2256.62 65.2844 L2270.8 27.2059 L2278.7 27.2059 L2261.69 72.576 L2251.56 72.576 L2234.55 27.2059 Z" fill="#000000" fill-rule="nonzero" fill-opacity="1" /><path clip-path="url(#clip930)" d="M2317.91 28.5427 L2317.91 35.5912 Q2314.76 33.9709 2311.35 33.1607 Q2307.95 32.3505 2304.3 32.3505 Q2298.75 32.3505 2295.96 34.0519 Q2293.2 35.7533 2293.2 39.156 Q2293.2 41.7486 2295.19 43.2475 Q2297.17 44.7058 2303.17 46.0426 L2305.72 46.6097 Q2313.66 48.3111 2316.98 51.4303 Q2320.35 54.509 2320.35 60.0587 Q2320.35 66.3781 2315.32 70.0644 Q2310.34 73.7508 2301.59 73.7508 Q2297.94 73.7508 2293.97 73.0216 Q2290.04 72.3329 2285.67 70.9151 L2285.67 63.2184 Q2289.8 65.3654 2293.81 66.4591 Q2297.82 67.5124 2301.75 67.5124 Q2307.02 67.5124 2309.85 65.73 Q2312.69 63.9071 2312.69 60.6258 Q2312.69 57.5877 2310.62 55.9673 Q2308.6 54.3469 2301.67 52.8481 L2299.08 52.2405 Q2292.15 50.7821 2289.07 47.7845 Q2285.99 44.7463 2285.99 39.4801 Q2285.99 33.0797 2290.53 29.5959 Q2295.07 26.1121 2303.41 26.1121 Q2307.54 26.1121 2311.19 26.7198 Q2314.84 27.3274 2317.91 28.5427 Z" fill="#000000" fill-rule="nonzero" fill-opacity="1" /><path clip-path="url(#clip930)" d="M2358.91 12.096 L2393.67 12.096 L2393.67 18.9825 L2367.09 18.9825 L2367.09 36.8065 L2391.07 36.8065 L2391.07 43.6931 L2367.09 43.6931 L2367.09 72.576 L2358.91 72.576 L2358.91 12.096 Z" fill="#000000" fill-rule="nonzero" fill-opacity="1" /><path clip-path="url(#clip930)" d="M2400.27 27.2059 L2407.72 27.2059 L2407.72 72.576 L2400.27 72.576 L2400.27 27.2059 M2400.27 9.54393 L2407.72 9.54393 L2407.72 18.9825 L2400.27 18.9825 L2400.27 9.54393 Z" fill="#000000" fill-rule="nonzero" fill-opacity="1" /><path clip-path="url(#clip930)" d="M2430.69 14.324 L2430.69 27.2059 L2446.05 27.2059 L2446.05 32.9987 L2430.69 32.9987 L2430.69 57.6282 Q2430.69 63.1779 2432.19 64.7578 Q2433.73 66.3376 2438.39 66.3376 L2446.05 66.3376 L2446.05 72.576 L2438.39 72.576 Q2429.76 72.576 2426.48 69.3758 Q2423.2 66.1351 2423.2 57.6282 L2423.2 32.9987 L2417.73 32.9987 L2417.73 27.2059 L2423.2 27.2059 L2423.2 14.324 L2430.69 14.324 Z" fill="#000000" fill-rule="nonzero" fill-opacity="1" /><path clip-path="url(#clip930)" d="M2463.22 14.324 L2463.22 27.2059 L2478.57 27.2059 L2478.57 32.9987 L2463.22 32.9987 L2463.22 57.6282 Q2463.22 63.1779 2464.72 64.7578 Q2466.26 66.3376 2470.92 66.3376 L2478.57 66.3376 L2478.57 72.576 L2470.92 72.576 Q2462.29 72.576 2459.01 69.3758 Q2455.73 66.1351 2455.73 57.6282 L2455.73 32.9987 L2450.26 32.9987 L2450.26 27.2059 L2455.73 27.2059 L2455.73 14.324 L2463.22 14.324 Z" fill="#000000" fill-rule="nonzero" fill-opacity="1" /><path clip-path="url(#clip930)" d="M2527.18 48.0275 L2527.18 51.6733 L2492.91 51.6733 Q2493.4 59.3701 2497.53 63.421 Q2501.7 67.4314 2509.12 67.4314 Q2513.41 67.4314 2517.42 66.3781 Q2521.47 65.3249 2525.44 63.2184 L2525.44 70.267 Q2521.43 71.9684 2517.22 72.8596 Q2513.01 73.7508 2508.67 73.7508 Q2497.82 73.7508 2491.46 67.4314 Q2485.14 61.1119 2485.14 50.3365 Q2485.14 39.1965 2491.13 32.6746 Q2497.17 26.1121 2507.38 26.1121 Q2516.53 26.1121 2521.84 32.0264 Q2527.18 37.9003 2527.18 48.0275 M2519.73 45.84 Q2519.65 39.7232 2516.29 36.0774 Q2512.97 32.4315 2507.46 32.4315 Q2501.22 32.4315 2497.45 35.9558 Q2493.72 39.4801 2493.16 45.8805 L2519.73 45.84 Z" fill="#000000" fill-rule="nonzero" fill-opacity="1" /><path clip-path="url(#clip930)" d="M2569.27 34.0924 L2569.27 9.54393 L2576.73 9.54393 L2576.73 72.576 L2569.27 72.576 L2569.27 65.7705 Q2566.92 69.8214 2563.32 71.8063 Q2559.75 73.7508 2554.73 73.7508 Q2546.51 73.7508 2541.32 67.1883 Q2536.18 60.6258 2536.18 49.9314 Q2536.18 39.2371 2541.32 32.6746 Q2546.51 26.1121 2554.73 26.1121 Q2559.75 26.1121 2563.32 28.0971 Q2566.92 30.0415 2569.27 34.0924 M2543.87 49.9314 Q2543.87 58.1548 2547.24 62.8538 Q2550.64 67.5124 2556.55 67.5124 Q2562.47 67.5124 2565.87 62.8538 Q2569.27 58.1548 2569.27 49.9314 Q2569.27 41.7081 2565.87 37.0496 Q2562.47 32.3505 2556.55 32.3505 Q2550.64 32.3505 2547.24 37.0496 Q2543.87 41.7081 2543.87 49.9314 Z" fill="#000000" fill-rule="nonzero" fill-opacity="1" /><circle clip-path="url(#clip931)" cx="1675.61" cy="237.984" r="10.8" fill="#4682b4" fill-rule="evenodd" fill-opacity="1" stroke="#000000" stroke-opacity="1" stroke-width="2.4"/>
<circle clip-path="url(#clip931)" cx="1732.95" cy="844.98" r="10.8" fill="#4682b4" fill-rule="evenodd" fill-opacity="1" stroke="#000000" stroke-opacity="1" stroke-width="2.4"/>
<circle clip-path="url(#clip931)" cx="1814.57" cy="702.563" r="10.8" fill="#4682b4" fill-rule="evenodd" fill-opacity="1" stroke="#000000" stroke-opacity="1" stroke-width="2.4"/>
<circle clip-path="url(#clip931)" cx="1924.75" cy="532.403" r="10.8" fill="#4682b4" fill-rule="evenodd" fill-opacity="1" stroke="#000000" stroke-opacity="1" stroke-width="2.4"/>
<circle clip-path="url(#clip931)" cx="2061.04" cy="509.267" r="10.8" fill="#4682b4" fill-rule="evenodd" fill-opacity="1" stroke="#000000" stroke-opacity="1" stroke-width="2.4"/>
<circle clip-path="url(#clip931)" cx="2212.26" cy="380.748" r="10.8" fill="#4682b4" fill-rule="evenodd" fill-opacity="1" stroke="#000000" stroke-opacity="1" stroke-width="2.4"/>
<circle clip-path="url(#clip931)" cx="2360.26" cy="1015.89" r="10.8" fill="#4682b4" fill-rule="evenodd" fill-opacity="1" stroke="#000000" stroke-opacity="1" stroke-width="2.4"/>
<circle clip-path="url(#clip931)" cx="2480.07" cy="522.133" r="10.8" fill="#4682b4" fill-rule="evenodd" fill-opacity="1" stroke="#000000" stroke-opacity="1" stroke-width="2.4"/>
<circle clip-path="url(#clip931)" cx="2561.04" cy="128.89" r="10.8" fill="#4682b4" fill-rule="evenodd" fill-opacity="1" stroke="#000000" stroke-opacity="1" stroke-width="2.4"/>
<circle clip-path="url(#clip931)" cx="2613.07" cy="780.254" r="10.8" fill="#4682b4" fill-rule="evenodd" fill-opacity="1" stroke="#000000" stroke-opacity="1" stroke-width="2.4"/>
<circle clip-path="url(#clip931)" cx="2647.47" cy="199.713" r="10.8" fill="#4682b4" fill-rule="evenodd" fill-opacity="1" stroke="#000000" stroke-opacity="1" stroke-width="2.4"/>
<circle clip-path="url(#clip931)" cx="2671.41" cy="1029.48" r="10.8" fill="#4682b4" fill-rule="evenodd" fill-opacity="1" stroke="#000000" stroke-opacity="1" stroke-width="2.4"/>
<circle clip-path="url(#clip931)" cx="2688.93" cy="811.187" r="10.8" fill="#4682b4" fill-rule="evenodd" fill-opacity="1" stroke="#000000" stroke-opacity="1" stroke-width="2.4"/>
<circle clip-path="url(#clip931)" cx="2702.32" cy="437.523" r="10.8" fill="#4682b4" fill-rule="evenodd" fill-opacity="1" stroke="#000000" stroke-opacity="1" stroke-width="2.4"/>
<circle clip-path="url(#clip931)" cx="2712.87" cy="296.397" r="10.8" fill="#4682b4" fill-rule="evenodd" fill-opacity="1" stroke="#000000" stroke-opacity="1" stroke-width="2.4"/>
<circle clip-path="url(#clip931)" cx="2721.38" cy="741.865" r="10.8" fill="#4682b4" fill-rule="evenodd" fill-opacity="1" stroke="#000000" stroke-opacity="1" stroke-width="2.4"/>
<polyline clip-path="url(#clip931)" style="stroke:#808080; stroke-linecap:round; stroke-linejoin:round; stroke-width:4; stroke-opacity:1; fill:none" stroke-dasharray="2, 4" points="535.709,577.694 3861.28,577.694 "/>
</svg>
