<?xml version="1.0" encoding="utf-8"?>
<svg xmlns="http://www.w3.org/2000/svg" xmlns:xlink="http://www.w3.org/1999/xlink" width="672" height="480" viewBox="0 0 2688 1920">
<defs>
  <clipPath id="clip910">
    <rect x="0" y="0" width="2688" height="1920"/>
  </clipPath>
</defs>
<path clip-path="url(#clip910)" d="M0 1920 L2688 1920 L2688 -4.26326e-14 L0 -4.26326e-14  Z" fill="#ffffff" fill-rule="evenodd" fill-opacity="1"/>
<defs>
  <clipPath id="clip911">
    <rect x="208" y="127" width="2433" height="1607"/>
  </clipPath>
</defs>
<path clip-path="url(#clip910)" d="M208.502 1734.12 L2640.76 1734.12 L2640.76 127.792 L208.502 127.792  Z" fill="#ffffff" fill-rule="evenodd" fill-opacity="1"/>
<polyline clip-path="url(#clip911)" style="stroke:#000000; stroke-linecap:round; stroke-linejoin:round; stroke-width:2; stroke-opacity:0.1; fill:none" points="277.339,1734.12 277.339,127.792 "/>
<polyline clip-path="url(#clip911)" style="stroke:#000000; stroke-linecap:round; stroke-linejoin:round; stroke-width:2; stroke-opacity:0.1; fill:none" points="1042.2,1734.12 1042.2,127.792 "/>
<polyline clip-path="url(#clip911)" style="stroke:#000000; stroke-linecap:round; stroke-linejoin:round; stroke-width:2; stroke-opacity:0.1; fill:none" points="1807.06,1734.12 1807.06,127.792 "/>
<polyline clip-path="url(#clip911)" style="stroke:#000000; stroke-linecap:round; stroke-linejoin:round; stroke-width:2; stroke-opacity:0.1; fill:none" points="2571.92,1734.12 2571.92,127.792 "/>
<polyline clip-path="url(#clip911)" style="stroke:#000000; stroke-linecap:round; stroke-linejoin:round; stroke-width:2; stroke-opacity:0.1; fill:none" points="208.502,1444.47 2640.76,1444.47 "/>
<polyline clip-path="url(#clip911)" style="stroke:#000000; stroke-linecap:round; stroke-linejoin:round; stroke-width:2; stroke-opacity:0.1; fill:none" points="208.502,1130.29 2640.76,1130.29 "/>
<polyline clip-path="url(#clip911)" style="stroke:#000000; stroke-linecap:round; stroke-linejoin:round; stroke-width:2; stroke-opacity:0.1; fill:none" points="208.502,816.124 2640.76,816.124 "/>
<polyline clip-path="url(#clip911)" style="stroke:#000000; stroke-linecap:round; stroke-linejoin:round; stroke-width:2; stroke-opacity:0.1; fill:none" points="208.502,501.954 2640.76,501.954 "/>
<polyline clip-path="url(#clip911)" style="stroke:#000000; stroke-linecap:round; stroke-linejoin:round; stroke-width:2; stroke-opacity:0.1; fill:none" points="208.502,187.783 2640.76,187.783 "/>
<polyline clip-path="url(#clip910)" style="stroke:#000000; stroke-linecap:round; stroke-linejoin:round; stroke-width:4; stroke-opacity:1; fill:none" points="208.502,1734.12 2640.76,1734.12 "/>
<polyline clip-path="url(#clip910)" style="stroke:#000000; stroke-linecap:round; stroke-linejoin:round; stroke-width:4; stroke-opacity:1; fill:none" points="277.339,1734.12 277.339,1715.22 "/>
<polyline clip-path="url(#clip910)" style="stroke:#000000; stroke-linecap:round; stroke-linejoin:round; stroke-width:4; stroke-opacity:1; fill:none" points="1042.2,1734.12 1042.2,1715.22 "/>
<polyline clip-path="url(#clip910)" style="stroke:#000000; stroke-linecap:round; stroke-linejoin:round; stroke-width:4; stroke-opacity:1; fill:none" points="1807.06,1734.12 1807.06,1715.22 "/>
<polyline clip-path="url(#clip910)" style="stroke:#000000; stroke-linecap:round; stroke-linejoin:round; stroke-width:4; stroke-opacity:1; fill:none" points="2571.92,1734.12 2571.92,1715.22 "/>
<path clip-path="url(#clip910)" d="M277.339 1767.34 Q273.728 1767.34 271.899 1770.9 Q270.094 1774.45 270.094 1781.58 Q270.094 1788.68 271.899 1792.25 Q273.728 1795.79 277.339 1795.79 Q280.973 1795.79 282.779 1792.25 Q284.608 1788.68 284.608 1781.58 Q284.608 1774.45 282.779 1770.9 Q280.973 1767.34 277.339 1767.34 M277.339 1763.64 Q283.149 1763.64 286.205 1768.24 Q289.284 1772.83 289.284 1781.58 Q289.284 1790.3 286.205 1794.91 Q283.149 1799.49 277.339 1799.49 Q271.529 1799.49 268.45 1794.91 Q265.395 1790.3 265.395 1781.58 Q265.395 1772.83 268.45 1768.24 Q271.529 1763.64 277.339 1763.64 Z" fill="#000000" fill-rule="nonzero" fill-opacity="1" /><path clip-path="url(#clip910)" d="M1032.48 1764.26 L1050.83 1764.26 L1050.83 1768.2 L1036.76 1768.2 L1036.76 1776.67 Q1037.78 1776.32 1038.8 1776.16 Q1039.81 1775.97 1040.83 1775.97 Q1046.62 1775.97 1050 1779.15 Q1053.38 1782.32 1053.38 1787.73 Q1053.38 1793.31 1049.91 1796.41 Q1046.44 1799.49 1040.12 1799.49 Q1037.94 1799.49 1035.67 1799.12 Q1033.43 1798.75 1031.02 1798.01 L1031.02 1793.31 Q1033.1 1794.45 1035.32 1795 Q1037.55 1795.56 1040.02 1795.56 Q1044.03 1795.56 1046.37 1793.45 Q1048.7 1791.34 1048.7 1787.73 Q1048.7 1784.12 1046.37 1782.02 Q1044.03 1779.91 1040.02 1779.91 Q1038.15 1779.91 1036.27 1780.33 Q1034.42 1780.74 1032.48 1781.62 L1032.48 1764.26 Z" fill="#000000" fill-rule="nonzero" fill-opacity="1" /><path clip-path="url(#clip910)" d="M1781.75 1794.89 L1789.39 1794.89 L1789.39 1768.52 L1781.08 1770.19 L1781.08 1765.93 L1789.34 1764.26 L1794.01 1764.26 L1794.01 1794.89 L1801.65 1794.89 L1801.65 1798.82 L1781.75 1798.82 L1781.75 1794.89 Z" fill="#000000" fill-rule="nonzero" fill-opacity="1" /><path clip-path="url(#clip910)" d="M1821.1 1767.34 Q1817.49 1767.34 1815.66 1770.9 Q1813.85 1774.45 1813.85 1781.58 Q1813.85 1788.68 1815.66 1792.25 Q1817.49 1795.79 1821.1 1795.79 Q1824.73 1795.79 1826.54 1792.25 Q1828.37 1788.68 1828.37 1781.58 Q1828.37 1774.45 1826.54 1770.9 Q1824.73 1767.34 1821.1 1767.34 M1821.1 1763.64 Q1826.91 1763.64 1829.96 1768.24 Q1833.04 1772.83 1833.04 1781.58 Q1833.04 1790.3 1829.96 1794.91 Q1826.91 1799.49 1821.1 1799.49 Q1815.29 1799.49 1812.21 1794.91 Q1809.15 1790.3 1809.15 1781.58 Q1809.15 1772.83 1812.21 1768.24 Q1815.29 1763.64 1821.1 1763.64 Z" fill="#000000" fill-rule="nonzero" fill-opacity="1" /><path clip-path="url(#clip910)" d="M2547.1 1794.89 L2554.74 1794.89 L2554.74 1768.52 L2546.43 1770.19 L2546.43 1765.93 L2554.7 1764.26 L2559.37 1764.26 L2559.37 1794.89 L2567.01 1794.89 L2567.01 1798.82 L2547.1 1798.82 L2547.1 1794.89 Z" fill="#000000" fill-rule="nonzero" fill-opacity="1" /><path clip-path="url(#clip910)" d="M2576.5 1764.26 L2594.86 1764.26 L2594.86 1768.2 L2580.78 1768.2 L2580.78 1776.67 Q2581.8 1776.32 2582.82 1776.16 Q2583.84 1775.97 2584.86 1775.97 Q2590.65 1775.97 2594.02 1779.15 Q2597.4 1782.32 2597.4 1787.73 Q2597.4 1793.31 2593.93 1796.41 Q2590.46 1799.49 2584.14 1799.49 Q2581.96 1799.49 2579.7 1799.12 Q2577.45 1798.75 2575.04 1798.01 L2575.04 1793.31 Q2577.13 1794.45 2579.35 1795 Q2581.57 1795.56 2584.05 1795.56 Q2588.05 1795.56 2590.39 1793.45 Q2592.73 1791.34 2592.73 1787.73 Q2592.73 1784.12 2590.39 1782.02 Q2588.05 1779.91 2584.05 1779.91 Q2582.17 1779.91 2580.3 1780.33 Q2578.45 1780.74 2576.5 1781.62 L2576.5 1764.26 Z" fill="#000000" fill-rule="nonzero" fill-opacity="1" /><path clip-path="url(#clip910)" d="M1346.51 1835.78 L1386.71 1835.78 L1386.71 1841.19 L1369.84 1841.19 L1369.84 1883.3 L1363.37 1883.3 L1363.37 1841.19 L1346.51 1841.19 L1346.51 1835.78 Z" fill="#000000" fill-rule="nonzero" fill-opacity="1" /><path clip-path="url(#clip910)" d="M1390.65 1847.65 L1396.51 1847.65 L1396.51 1883.3 L1390.65 1883.3 L1390.65 1847.65 M1390.65 1833.78 L1396.51 1833.78 L1396.51 1841.19 L1390.65 1841.19 L1390.65 1833.78 Z" fill="#000000" fill-rule="nonzero" fill-opacity="1" /><path clip-path="url(#clip910)" d="M1436.52 1854.5 Q1438.71 1850.55 1441.77 1848.67 Q1444.82 1846.79 1448.96 1846.79 Q1454.53 1846.79 1457.56 1850.71 Q1460.58 1854.59 1460.58 1861.78 L1460.58 1883.3 L1454.69 1883.3 L1454.69 1861.98 Q1454.69 1856.85 1452.88 1854.37 Q1451.06 1851.89 1447.34 1851.89 Q1442.79 1851.89 1440.15 1854.91 Q1437.5 1857.93 1437.5 1863.15 L1437.5 1883.3 L1431.62 1883.3 L1431.62 1861.98 Q1431.62 1856.82 1429.8 1854.37 Q1427.99 1851.89 1424.2 1851.89 Q1419.71 1851.89 1417.07 1854.94 Q1414.43 1857.97 1414.43 1863.15 L1414.43 1883.3 L1408.54 1883.3 L1408.54 1847.65 L1414.43 1847.65 L1414.43 1853.19 Q1416.43 1849.91 1419.23 1848.35 Q1422.03 1846.79 1425.89 1846.79 Q1429.77 1846.79 1432.47 1848.77 Q1435.21 1850.74 1436.52 1854.5 Z" fill="#000000" fill-rule="nonzero" fill-opacity="1" /><path clip-path="url(#clip910)" d="M1502.75 1864.01 L1502.75 1866.88 L1475.83 1866.88 Q1476.21 1872.92 1479.45 1876.11 Q1482.73 1879.26 1488.56 1879.26 Q1491.93 1879.26 1495.08 1878.43 Q1498.26 1877.6 1501.38 1875.95 L1501.38 1881.49 Q1498.23 1882.82 1494.92 1883.52 Q1491.61 1884.22 1488.21 1884.22 Q1479.68 1884.22 1474.68 1879.26 Q1469.71 1874.29 1469.71 1865.83 Q1469.71 1857.07 1474.42 1851.95 Q1479.17 1846.79 1487.19 1846.79 Q1494.38 1846.79 1498.55 1851.44 Q1502.75 1856.06 1502.75 1864.01 M1496.9 1862.29 Q1496.83 1857.49 1494.19 1854.62 Q1491.58 1851.76 1487.25 1851.76 Q1482.35 1851.76 1479.39 1854.53 Q1476.46 1857.3 1476.02 1862.33 L1496.9 1862.29 Z" fill="#000000" fill-rule="nonzero" fill-opacity="1" /><polyline clip-path="url(#clip910)" style="stroke:#000000; stroke-linecap:round; stroke-linejoin:round; stroke-width:4; stroke-opacity:1; fill:none" points="208.502,1734.12 208.502,127.792 "/>
<polyline clip-path="url(#clip910)" style="stroke:#000000; stroke-linecap:round; stroke-linejoin:round; stroke-width:4; stroke-opacity:1; fill:none" points="208.502,1444.47 227.399,1444.47 "/>
<polyline clip-path="url(#clip910)" style="stroke:#000000; stroke-linecap:round; stroke-linejoin:round; stroke-width:4; stroke-opacity:1; fill:none" points="208.502,1130.29 227.399,1130.29 "/>
<polyline clip-path="url(#clip910)" style="stroke:#000000; stroke-linecap:round; stroke-linejoin:round; stroke-width:4; stroke-opacity:1; fill:none" points="208.502,816.124 227.399,816.124 "/>
<polyline clip-path="url(#clip910)" style="stroke:#000000; stroke-linecap:round; stroke-linejoin:round; stroke-width:4; stroke-opacity:1; fill:none" points="208.502,501.954 227.399,501.954 "/>
<polyline clip-path="url(#clip910)" style="stroke:#000000; stroke-linecap:round; stroke-linejoin:round; stroke-width:4; stroke-opacity:1; fill:none" points="208.502,187.783 227.399,187.783 "/>
<path clip-path="url(#clip910)" d="M151.862 1457.81 L168.182 1457.81 L168.182 1461.75 L146.237 1461.75 L146.237 1457.81 Q148.899 1455.06 153.483 1450.43 Q158.089 1445.77 159.27 1444.43 Q161.515 1441.91 162.395 1440.17 Q163.298 1438.41 163.298 1436.72 Q163.298 1433.97 161.353 1432.23 Q159.432 1430.5 156.33 1430.5 Q154.131 1430.5 151.677 1431.26 Q149.247 1432.02 146.469 1433.57 L146.469 1428.85 Q149.293 1427.72 151.747 1427.14 Q154.2 1426.56 156.237 1426.56 Q161.608 1426.56 164.802 1429.25 Q167.997 1431.93 167.997 1436.42 Q167.997 1438.55 167.186 1440.47 Q166.399 1442.37 164.293 1444.96 Q163.714 1445.63 160.612 1448.85 Q157.511 1452.05 151.862 1457.81 Z" fill="#000000" fill-rule="nonzero" fill-opacity="1" /><path clip-path="url(#clip910)" d="M158.598 1117.09 L146.793 1135.54 L158.598 1135.54 L158.598 1117.09 M157.372 1113.01 L163.251 1113.01 L163.251 1135.54 L168.182 1135.54 L168.182 1139.43 L163.251 1139.43 L163.251 1147.57 L158.598 1147.57 L158.598 1139.43 L142.997 1139.43 L142.997 1134.91 L157.372 1113.01 Z" fill="#000000" fill-rule="nonzero" fill-opacity="1" /><path clip-path="url(#clip910)" d="M156.654 814.261 Q153.506 814.261 151.654 816.414 Q149.825 818.566 149.825 822.316 Q149.825 826.043 151.654 828.219 Q153.506 830.372 156.654 830.372 Q159.802 830.372 161.631 828.219 Q163.483 826.043 163.483 822.316 Q163.483 818.566 161.631 816.414 Q159.802 814.261 156.654 814.261 M165.936 799.608 L165.936 803.867 Q164.177 803.034 162.372 802.594 Q160.589 802.154 158.83 802.154 Q154.2 802.154 151.747 805.279 Q149.316 808.404 148.969 814.724 Q150.335 812.71 152.395 811.645 Q154.455 810.557 156.932 810.557 Q162.14 810.557 165.149 813.728 Q168.182 816.877 168.182 822.316 Q168.182 827.64 165.034 830.858 Q161.885 834.076 156.654 834.076 Q150.659 834.076 147.487 829.492 Q144.316 824.886 144.316 816.159 Q144.316 807.965 148.205 803.104 Q152.094 798.219 158.645 798.219 Q160.404 798.219 162.186 798.567 Q163.992 798.914 165.936 799.608 Z" fill="#000000" fill-rule="nonzero" fill-opacity="1" /><path clip-path="url(#clip910)" d="M156.33 502.822 Q152.997 502.822 151.075 504.604 Q149.177 506.387 149.177 509.512 Q149.177 512.637 151.075 514.419 Q152.997 516.201 156.33 516.201 Q159.663 516.201 161.585 514.419 Q163.506 512.613 163.506 509.512 Q163.506 506.387 161.585 504.604 Q159.686 502.822 156.33 502.822 M151.654 500.831 Q148.645 500.09 146.955 498.03 Q145.288 495.97 145.288 493.007 Q145.288 488.864 148.228 486.456 Q151.191 484.049 156.33 484.049 Q161.492 484.049 164.432 486.456 Q167.372 488.864 167.372 493.007 Q167.372 495.97 165.682 498.03 Q164.015 500.09 161.029 500.831 Q164.409 501.618 166.284 503.91 Q168.182 506.201 168.182 509.512 Q168.182 514.535 165.103 517.22 Q162.048 519.905 156.33 519.905 Q150.612 519.905 147.534 517.22 Q144.478 514.535 144.478 509.512 Q144.478 506.201 146.376 503.91 Q148.274 501.618 151.654 500.831 M149.941 493.447 Q149.941 496.132 151.608 497.637 Q153.298 499.141 156.33 499.141 Q159.339 499.141 161.029 497.637 Q162.742 496.132 162.742 493.447 Q162.742 490.762 161.029 489.257 Q159.339 487.752 156.33 487.752 Q153.298 487.752 151.608 489.257 Q149.941 490.762 149.941 493.447 Z" fill="#000000" fill-rule="nonzero" fill-opacity="1" /><path clip-path="url(#clip910)" d="M116.886 201.128 L124.525 201.128 L124.525 174.762 L116.214 176.429 L116.214 172.17 L124.478 170.503 L129.154 170.503 L129.154 201.128 L136.793 201.128 L136.793 205.063 L116.886 205.063 L116.886 201.128 Z" fill="#000000" fill-rule="nonzero" fill-opacity="1" /><path clip-path="url(#clip910)" d="M156.237 173.582 Q152.626 173.582 150.798 177.147 Q148.992 180.688 148.992 187.818 Q148.992 194.924 150.798 198.489 Q152.626 202.031 156.237 202.031 Q159.872 202.031 161.677 198.489 Q163.506 194.924 163.506 187.818 Q163.506 180.688 161.677 177.147 Q159.872 173.582 156.237 173.582 M156.237 169.878 Q162.048 169.878 165.103 174.485 Q168.182 179.068 168.182 187.818 Q168.182 196.545 165.103 201.151 Q162.048 205.735 156.237 205.735 Q150.427 205.735 147.349 201.151 Q144.293 196.545 144.293 187.818 Q144.293 179.068 147.349 174.485 Q150.427 169.878 156.237 169.878 Z" fill="#000000" fill-rule="nonzero" fill-opacity="1" /><path clip-path="url(#clip910)" d="M19.402 1124.11 L37.2578 1124.11 L37.2578 1116.02 Q37.2578 1111.53 34.9343 1109.08 Q32.6108 1106.63 28.314 1106.63 Q24.0489 1106.63 21.7255 1109.08 Q19.402 1111.53 19.402 1116.02 L19.402 1124.11 M14.1184 1130.54 L14.1184 1116.02 Q14.1184 1108.03 17.7469 1103.96 Q21.3435 1099.85 28.314 1099.85 Q35.3481 1099.85 38.9447 1103.96 Q42.5413 1108.03 42.5413 1116.02 L42.5413 1124.11 L61.6384 1124.11 L61.6384 1130.54 L14.1184 1130.54 Z" fill="#000000" fill-rule="nonzero" fill-opacity="1" /><path clip-path="url(#clip910)" d="M30.0964 1079.99 Q30.0964 1084.7 33.7885 1087.44 Q37.4488 1090.18 43.8463 1090.18 Q50.2438 1090.18 53.9359 1087.47 Q57.5962 1084.73 57.5962 1079.99 Q57.5962 1075.31 53.9041 1072.58 Q50.212 1069.84 43.8463 1069.84 Q37.5124 1069.84 33.8203 1072.58 Q30.0964 1075.31 30.0964 1079.99 M25.1311 1079.99 Q25.1311 1072.35 30.0964 1067.99 Q35.0616 1063.63 43.8463 1063.63 Q52.5991 1063.63 57.5962 1067.99 Q62.5615 1072.35 62.5615 1079.99 Q62.5615 1087.66 57.5962 1092.02 Q52.5991 1096.35 43.8463 1096.35 Q35.0616 1096.35 30.0964 1092.02 Q25.1311 1087.66 25.1311 1079.99 Z" fill="#000000" fill-rule="nonzero" fill-opacity="1" /><path clip-path="url(#clip910)" d="M56.2912 1048.26 L75.1974 1048.26 L75.1974 1054.15 L25.9905 1054.15 L25.9905 1048.26 L31.4013 1048.26 Q28.2185 1046.41 26.6907 1043.61 Q25.1311 1040.78 25.1311 1036.86 Q25.1311 1030.37 30.2873 1026.33 Q35.4436 1022.25 43.8463 1022.25 Q52.249 1022.25 57.4052 1026.33 Q62.5615 1030.37 62.5615 1036.86 Q62.5615 1040.78 61.0337 1043.61 Q59.4741 1046.41 56.2912 1048.26 M43.8463 1028.33 Q37.3851 1028.33 33.7248 1031.01 Q30.0327 1033.65 30.0327 1038.3 Q30.0327 1042.94 33.7248 1045.62 Q37.3851 1048.26 43.8463 1048.26 Q50.3075 1048.26 53.9996 1045.62 Q57.6599 1042.94 57.6599 1038.3 Q57.6599 1033.65 53.9996 1031.01 Q50.3075 1028.33 43.8463 1028.33 Z" fill="#000000" fill-rule="nonzero" fill-opacity="1" /><path clip-path="url(#clip910)" d="M47.5702 1013.15 L25.9905 1013.15 L25.9905 1007.3 L47.3474 1007.3 Q52.4082 1007.3 54.9545 1005.32 Q57.4689 1003.35 57.4689 999.402 Q57.4689 994.659 54.4452 991.922 Q51.4215 989.153 46.2016 989.153 L25.9905 989.153 L25.9905 983.297 L61.6384 983.297 L61.6384 989.153 L56.1639 989.153 Q59.4104 991.286 61.0019 994.118 Q62.5615 996.919 62.5615 1000.64 Q62.5615 1006.79 58.742 1009.97 Q54.9226 1013.15 47.5702 1013.15 M25.1311 998.415 L25.1311 998.415 Z" fill="#000000" fill-rule="nonzero" fill-opacity="1" /><path clip-path="url(#clip910)" d="M12.1132 971.234 L12.1132 965.377 L61.6384 965.377 L61.6384 971.234 L12.1132 971.234 Z" fill="#000000" fill-rule="nonzero" fill-opacity="1" /><path clip-path="url(#clip910)" d="M43.719 936.922 Q43.719 944.02 45.3422 946.757 Q46.9655 949.495 50.8804 949.495 Q53.9996 949.495 55.8457 947.458 Q57.6599 945.389 57.6599 941.856 Q57.6599 936.986 54.2224 934.058 Q50.7531 931.098 45.0239 931.098 L43.719 931.098 L43.719 936.922 M41.3 925.241 L61.6384 925.241 L61.6384 931.098 L56.2276 931.098 Q59.4741 933.103 61.0337 936.095 Q62.5615 939.087 62.5615 943.415 Q62.5615 948.89 59.5059 952.136 Q56.4186 955.351 51.2623 955.351 Q45.2467 955.351 42.1912 951.341 Q39.1357 947.299 39.1357 939.31 L39.1357 931.098 L38.5628 931.098 Q34.5205 931.098 32.3244 933.771 Q30.0964 936.413 30.0964 941.219 Q30.0964 944.275 30.8284 947.171 Q31.5605 950.068 33.0246 952.741 L27.6137 952.741 Q26.3724 949.527 25.7677 946.503 Q25.1311 943.479 25.1311 940.615 Q25.1311 932.88 29.1415 929.061 Q33.1519 925.241 41.3 925.241 Z" fill="#000000" fill-rule="nonzero" fill-opacity="1" /><path clip-path="url(#clip910)" d="M15.869 907.386 L25.9905 907.386 L25.9905 895.323 L30.542 895.323 L30.542 907.386 L49.8937 907.386 Q54.2542 907.386 55.4955 906.208 Q56.7368 904.998 56.7368 901.338 L56.7368 895.323 L61.6384 895.323 L61.6384 901.338 Q61.6384 908.118 59.124 910.696 Q56.5777 913.274 49.8937 913.274 L30.542 913.274 L30.542 917.571 L25.9905 917.571 L25.9905 913.274 L15.869 913.274 L15.869 907.386 Z" fill="#000000" fill-rule="nonzero" fill-opacity="1" /><path clip-path="url(#clip910)" d="M25.9905 887.62 L25.9905 881.764 L61.6384 881.764 L61.6384 887.62 L25.9905 887.62 M12.1132 887.62 L12.1132 881.764 L19.5293 881.764 L19.5293 887.62 L12.1132 887.62 Z" fill="#000000" fill-rule="nonzero" fill-opacity="1" /><path clip-path="url(#clip910)" d="M30.0964 855.696 Q30.0964 860.407 33.7885 863.144 Q37.4488 865.881 43.8463 865.881 Q50.2438 865.881 53.9359 863.176 Q57.5962 860.438 57.5962 855.696 Q57.5962 851.017 53.9041 848.28 Q50.212 845.543 43.8463 845.543 Q37.5124 845.543 33.8203 848.28 Q30.0964 851.017 30.0964 855.696 M25.1311 855.696 Q25.1311 848.057 30.0964 843.697 Q35.0616 839.336 43.8463 839.336 Q52.5991 839.336 57.5962 843.697 Q62.5615 848.057 62.5615 855.696 Q62.5615 863.367 57.5962 867.727 Q52.5991 872.056 43.8463 872.056 Q35.0616 872.056 30.0964 867.727 Q25.1311 863.367 25.1311 855.696 Z" fill="#000000" fill-rule="nonzero" fill-opacity="1" /><path clip-path="url(#clip910)" d="M40.1224 799.996 L61.6384 799.996 L61.6384 805.853 L40.3133 805.853 Q35.2526 805.853 32.7381 807.826 Q30.2237 809.799 30.2237 813.746 Q30.2237 818.488 33.2474 821.226 Q36.2711 823.963 41.491 823.963 L61.6384 823.963 L61.6384 829.851 L25.9905 829.851 L25.9905 823.963 L31.5287 823.963 Q28.314 821.862 26.7225 819.03 Q25.1311 816.165 25.1311 812.441 Q25.1311 806.298 28.9505 803.147 Q32.7381 799.996 40.1224 799.996 Z" fill="#000000" fill-rule="nonzero" fill-opacity="1" /><path clip-path="url(#clip910)" d="M14.1184 767.34 L14.1184 758.683 L53.8723 737.612 L14.1184 737.612 L14.1184 731.374 L61.6384 731.374 L61.6384 740.031 L21.8846 761.102 L61.6384 761.102 L61.6384 767.34 L14.1184 767.34 Z" fill="#000000" fill-rule="nonzero" fill-opacity="1" /><path clip-path="url(#clip910)" d="M999.081 12.096 L1007.26 12.096 L1007.26 65.6895 L1036.71 65.6895 L1036.71 72.576 L999.081 72.576 L999.081 12.096 Z" fill="#000000" fill-rule="nonzero" fill-opacity="1" /><path clip-path="url(#clip910)" d="M1061.1 32.4315 Q1055.11 32.4315 1051.62 37.1306 Q1048.14 41.7891 1048.14 49.9314 Q1048.14 58.0738 1051.58 62.7728 Q1055.06 67.4314 1061.1 67.4314 Q1067.06 67.4314 1070.54 62.7323 Q1074.02 58.0333 1074.02 49.9314 Q1074.02 41.8701 1070.54 37.1711 Q1067.06 32.4315 1061.1 32.4315 M1061.1 26.1121 Q1070.82 26.1121 1076.37 32.4315 Q1081.92 38.7509 1081.92 49.9314 Q1081.92 61.0714 1076.37 67.4314 Q1070.82 73.7508 1061.1 73.7508 Q1051.34 73.7508 1045.79 67.4314 Q1040.28 61.0714 1040.28 49.9314 Q1040.28 38.7509 1045.79 32.4315 Q1051.34 26.1121 1061.1 26.1121 Z" fill="#000000" fill-rule="nonzero" fill-opacity="1" /><path clip-path="url(#clip910)" d="M1124.13 49.3643 Q1124.13 41.2625 1120.77 36.8065 Q1117.45 32.3505 1111.41 32.3505 Q1105.42 32.3505 1102.06 36.8065 Q1098.73 41.2625 1098.73 49.3643 Q1098.73 57.4256 1102.06 61.8816 Q1105.42 66.3376 1111.41 66.3376 Q1117.45 66.3376 1120.77 61.8816 Q1124.13 57.4256 1124.13 49.3643 M1131.59 66.9452 Q1131.59 78.5308 1126.44 84.1616 Q1121.3 89.8329 1110.68 89.8329 Q1106.75 89.8329 1103.27 89.2252 Q1099.79 88.6581 1096.51 87.4428 L1096.51 80.1917 Q1099.79 81.9741 1102.99 82.8248 Q1106.19 83.6755 1109.51 83.6755 Q1116.84 83.6755 1120.49 79.8271 Q1124.13 76.0193 1124.13 68.282 L1124.13 64.5957 Q1121.82 68.6061 1118.22 70.5911 Q1114.61 72.576 1109.59 72.576 Q1101.25 72.576 1096.14 66.2161 Q1091.04 59.8562 1091.04 49.3643 Q1091.04 38.832 1096.14 32.472 Q1101.25 26.1121 1109.59 26.1121 Q1114.61 26.1121 1118.22 28.0971 Q1121.82 30.082 1124.13 34.0924 L1124.13 27.2059 L1131.59 27.2059 L1131.59 66.9452 Z" fill="#000000" fill-rule="nonzero" fill-opacity="1" /><path clip-path="url(#clip910)" d="M1146.94 27.2059 L1154.39 27.2059 L1154.39 72.576 L1146.94 72.576 L1146.94 27.2059 M1146.94 9.54393 L1154.39 9.54393 L1154.39 18.9825 L1146.94 18.9825 L1146.94 9.54393 Z" fill="#000000" fill-rule="nonzero" fill-opacity="1" /><path clip-path="url(#clip910)" d="M1198.91 28.5427 L1198.91 35.5912 Q1195.75 33.9709 1192.35 33.1607 Q1188.95 32.3505 1185.3 32.3505 Q1179.75 32.3505 1176.96 34.0519 Q1174.2 35.7533 1174.2 39.156 Q1174.2 41.7486 1176.19 43.2475 Q1178.17 44.7058 1184.17 46.0426 L1186.72 46.6097 Q1194.66 48.3111 1197.98 51.4303 Q1201.34 54.509 1201.34 60.0587 Q1201.34 66.3781 1196.32 70.0644 Q1191.34 73.7508 1182.59 73.7508 Q1178.94 73.7508 1174.97 73.0216 Q1171.04 72.3329 1166.67 70.9151 L1166.67 63.2184 Q1170.8 65.3654 1174.81 66.4591 Q1178.82 67.5124 1182.75 67.5124 Q1188.02 67.5124 1190.85 65.73 Q1193.69 63.9071 1193.69 60.6258 Q1193.69 57.5877 1191.62 55.9673 Q1189.6 54.3469 1182.67 52.8481 L1180.08 52.2405 Q1173.15 50.7821 1170.07 47.7845 Q1166.99 44.7463 1166.99 39.4801 Q1166.99 33.0797 1171.53 29.5959 Q1176.07 26.1121 1184.41 26.1121 Q1188.54 26.1121 1192.19 26.7198 Q1195.83 27.3274 1198.91 28.5427 Z" fill="#000000" fill-rule="nonzero" fill-opacity="1" /><path clip-path="url(#clip910)" d="M1220.58 14.324 L1220.58 27.2059 L1235.94 27.2059 L1235.94 32.9987 L1220.58 32.9987 L1220.58 57.6282 Q1220.58 63.1779 1222.08 64.7578 Q1223.62 66.3376 1228.28 66.3376 L1235.94 66.3376 L1235.94 72.576 L1228.28 72.576 Q1219.65 72.576 1216.37 69.3758 Q1213.09 66.1351 1213.09 57.6282 L1213.09 32.9987 L1207.62 32.9987 L1207.62 27.2059 L1213.09 27.2059 L1213.09 14.324 L1220.58 14.324 Z" fill="#000000" fill-rule="nonzero" fill-opacity="1" /><path clip-path="url(#clip910)" d="M1245.74 27.2059 L1253.19 27.2059 L1253.19 72.576 L1245.74 72.576 L1245.74 27.2059 M1245.74 9.54393 L1253.19 9.54393 L1253.19 18.9825 L1245.74 18.9825 L1245.74 9.54393 Z" fill="#000000" fill-rule="nonzero" fill-opacity="1" /><path clip-path="url(#clip910)" d="M1301.44 28.9478 L1301.44 35.9153 Q1298.28 34.1734 1295.08 33.3227 Q1291.92 32.4315 1288.68 32.4315 Q1281.43 32.4315 1277.42 37.0496 Q1273.41 41.6271 1273.41 49.9314 Q1273.41 58.2358 1277.42 62.8538 Q1281.43 67.4314 1288.68 67.4314 Q1291.92 67.4314 1295.08 66.5807 Q1298.28 65.6895 1301.44 63.9476 L1301.44 70.8341 Q1298.32 72.2924 1294.96 73.0216 Q1291.64 73.7508 1287.87 73.7508 Q1277.62 73.7508 1271.59 67.3098 Q1265.55 60.8689 1265.55 49.9314 Q1265.55 38.832 1271.63 32.472 Q1277.74 26.1121 1288.36 26.1121 Q1291.8 26.1121 1295.08 26.8413 Q1298.36 27.5299 1301.44 28.9478 Z" fill="#000000" fill-rule="nonzero" fill-opacity="1" /><path clip-path="url(#clip910)" d="M1382.34 63.9476 L1382.34 47.7034 L1368.97 47.7034 L1368.97 40.9789 L1390.44 40.9789 L1390.44 66.9452 Q1385.7 70.3075 1379.99 72.0494 Q1374.28 73.7508 1367.79 73.7508 Q1353.62 73.7508 1345.6 65.4869 Q1337.62 57.1826 1337.62 42.3968 Q1337.62 27.5705 1345.6 19.3066 Q1353.62 11.0023 1367.79 11.0023 Q1373.71 11.0023 1379.02 12.4606 Q1384.36 13.9189 1388.86 16.7545 L1388.86 25.464 Q1384.32 21.6156 1379.22 19.6712 Q1374.11 17.7268 1368.48 17.7268 Q1357.38 17.7268 1351.79 23.9246 Q1346.24 30.1225 1346.24 42.3968 Q1346.24 54.6305 1351.79 60.8284 Q1357.38 67.0263 1368.48 67.0263 Q1372.82 67.0263 1376.22 66.2971 Q1379.62 65.5274 1382.34 63.9476 Z" fill="#000000" fill-rule="nonzero" fill-opacity="1" /><path clip-path="url(#clip910)" d="M1431.35 34.1734 Q1430.1 33.4443 1428.6 33.1202 Q1427.14 32.7556 1425.36 32.7556 Q1419.04 32.7556 1415.64 36.8875 Q1412.27 40.9789 1412.27 48.6757 L1412.27 72.576 L1404.78 72.576 L1404.78 27.2059 L1412.27 27.2059 L1412.27 34.2544 Q1414.62 30.1225 1418.39 28.1376 Q1422.16 26.1121 1427.55 26.1121 Q1428.32 26.1121 1429.25 26.2337 Q1430.18 26.3147 1431.31 26.5172 L1431.35 34.1734 Z" fill="#000000" fill-rule="nonzero" fill-opacity="1" /><path clip-path="url(#clip910)" d="M1454.93 32.4315 Q1448.93 32.4315 1445.45 37.1306 Q1441.97 41.7891 1441.97 49.9314 Q1441.97 58.0738 1445.41 62.7728 Q1448.89 67.4314 1454.93 67.4314 Q1460.88 67.4314 1464.37 62.7323 Q1467.85 58.0333 1467.85 49.9314 Q1467.85 41.8701 1464.37 37.1711 Q1460.88 32.4315 1454.93 32.4315 M1454.93 26.1121 Q1464.65 26.1121 1470.2 32.4315 Q1475.75 38.7509 1475.75 49.9314 Q1475.75 61.0714 1470.2 67.4314 Q1464.65 73.7508 1454.93 73.7508 Q1445.17 73.7508 1439.62 67.4314 Q1434.11 61.0714 1434.11 49.9314 Q1434.11 38.7509 1439.62 32.4315 Q1445.17 26.1121 1454.93 26.1121 Z" fill="#000000" fill-rule="nonzero" fill-opacity="1" /><path clip-path="url(#clip910)" d="M1483.77 27.2059 L1491.23 27.2059 L1500.54 62.6108 L1509.82 27.2059 L1518.61 27.2059 L1527.93 62.6108 L1537.2 27.2059 L1544.66 27.2059 L1532.79 72.576 L1524 72.576 L1514.23 35.3887 L1504.43 72.576 L1495.64 72.576 L1483.77 27.2059 Z" fill="#000000" fill-rule="nonzero" fill-opacity="1" /><path clip-path="url(#clip910)" d="M1563.33 14.324 L1563.33 27.2059 L1578.68 27.2059 L1578.68 32.9987 L1563.33 32.9987 L1563.33 57.6282 Q1563.33 63.1779 1564.83 64.7578 Q1566.37 66.3376 1571.03 66.3376 L1578.68 66.3376 L1578.68 72.576 L1571.03 72.576 Q1562.4 72.576 1559.12 69.3758 Q1555.84 66.1351 1555.84 57.6282 L1555.84 32.9987 L1550.37 32.9987 L1550.37 27.2059 L1555.84 27.2059 L1555.84 14.324 L1563.33 14.324 Z" fill="#000000" fill-rule="nonzero" fill-opacity="1" /><path clip-path="url(#clip910)" d="M1626.2 45.1919 L1626.2 72.576 L1618.75 72.576 L1618.75 45.4349 Q1618.75 38.994 1616.24 35.7938 Q1613.73 32.5936 1608.7 32.5936 Q1602.67 32.5936 1599.18 36.4419 Q1595.7 40.2903 1595.7 46.9338 L1595.7 72.576 L1588.2 72.576 L1588.2 9.54393 L1595.7 9.54393 L1595.7 34.2544 Q1598.37 30.163 1601.98 28.1376 Q1605.62 26.1121 1610.36 26.1121 Q1618.18 26.1121 1622.19 30.9732 Q1626.2 35.7938 1626.2 45.1919 Z" fill="#000000" fill-rule="nonzero" fill-opacity="1" /><path clip-path="url(#clip910)" d="M1675.95 18.8205 L1675.95 65.8515 L1685.83 65.8515 Q1698.35 65.8515 1704.14 60.1802 Q1709.97 54.509 1709.97 42.2752 Q1709.97 30.1225 1704.14 24.4918 Q1698.35 18.8205 1685.83 18.8205 L1675.95 18.8205 M1667.76 12.096 L1684.58 12.096 Q1702.16 12.096 1710.38 19.4281 Q1718.6 26.7198 1718.6 42.2752 Q1718.6 57.9117 1710.34 65.2439 Q1702.08 72.576 1684.58 72.576 L1667.76 72.576 L1667.76 12.096 Z" fill="#000000" fill-rule="nonzero" fill-opacity="1" /><path clip-path="url(#clip910)" d="M1751.94 49.7694 Q1742.91 49.7694 1739.42 51.8354 Q1735.94 53.9013 1735.94 58.8839 Q1735.94 62.8538 1738.53 65.2034 Q1741.17 67.5124 1745.66 67.5124 Q1751.86 67.5124 1755.59 63.1374 Q1759.36 58.7219 1759.36 51.4303 L1759.36 49.7694 L1751.94 49.7694 M1766.81 46.6907 L1766.81 72.576 L1759.36 72.576 L1759.36 65.6895 Q1756.8 69.8214 1753 71.8063 Q1749.19 73.7508 1743.68 73.7508 Q1736.71 73.7508 1732.58 69.8619 Q1728.49 65.9325 1728.49 59.3701 Q1728.49 51.7138 1733.59 47.825 Q1738.74 43.9361 1748.9 43.9361 L1759.36 43.9361 L1759.36 43.2069 Q1759.36 38.0623 1755.95 35.2672 Q1752.59 32.4315 1746.47 32.4315 Q1742.58 32.4315 1738.9 33.3632 Q1735.21 34.295 1731.81 36.1584 L1731.81 29.2718 Q1735.9 27.692 1739.75 26.9223 Q1743.6 26.1121 1747.24 26.1121 Q1757.09 26.1121 1761.95 31.2163 Q1766.81 36.3204 1766.81 46.6907 Z" fill="#000000" fill-rule="nonzero" fill-opacity="1" /><path clip-path="url(#clip910)" d="M1789.53 14.324 L1789.53 27.2059 L1804.89 27.2059 L1804.89 32.9987 L1789.53 32.9987 L1789.53 57.6282 Q1789.53 63.1779 1791.03 64.7578 Q1792.57 66.3376 1797.23 66.3376 L1804.89 66.3376 L1804.89 72.576 L1797.23 72.576 Q1788.6 72.576 1785.32 69.3758 Q1782.04 66.1351 1782.04 57.6282 L1782.04 32.9987 L1776.57 32.9987 L1776.57 27.2059 L1782.04 27.2059 L1782.04 14.324 L1789.53 14.324 Z" fill="#000000" fill-rule="nonzero" fill-opacity="1" /><path clip-path="url(#clip910)" d="M1835.31 49.7694 Q1826.28 49.7694 1822.79 51.8354 Q1819.31 53.9013 1819.31 58.8839 Q1819.31 62.8538 1821.9 65.2034 Q1824.53 67.5124 1829.03 67.5124 Q1835.23 67.5124 1838.96 63.1374 Q1842.72 58.7219 1842.72 51.4303 L1842.72 49.7694 L1835.31 49.7694 M1850.18 46.6907 L1850.18 72.576 L1842.72 72.576 L1842.72 65.6895 Q1840.17 69.8214 1836.36 71.8063 Q1832.55 73.7508 1827.05 73.7508 Q1820.08 73.7508 1815.95 69.8619 Q1811.85 65.9325 1811.85 59.3701 Q1811.85 51.7138 1816.96 47.825 Q1822.1 43.9361 1832.27 43.9361 L1842.72 43.9361 L1842.72 43.2069 Q1842.72 38.0623 1839.32 35.2672 Q1835.96 32.4315 1829.84 32.4315 Q1825.95 32.4315 1822.27 33.3632 Q1818.58 34.295 1815.18 36.1584 L1815.18 29.2718 Q1819.27 27.692 1823.12 26.9223 Q1826.96 26.1121 1830.61 26.1121 Q1840.45 26.1121 1845.32 31.2163 Q1850.18 36.3204 1850.18 46.6907 Z" fill="#000000" fill-rule="nonzero" fill-opacity="1" /><circle clip-path="url(#clip911)" cx="277.339" cy="1688.65" r="14.4" fill="#4682b4" fill-rule="evenodd" fill-opacity="0.7" stroke="#000000" stroke-opacity="0.7" stroke-width="3.84"/>
<circle clip-path="url(#clip911)" cx="353.825" cy="1653.27" r="14.4" fill="#4682b4" fill-rule="evenodd" fill-opacity="0.7" stroke="#000000" stroke-opacity="0.7" stroke-width="3.84"/>
<circle clip-path="url(#clip911)" cx="430.311" cy="1640.63" r="14.4" fill="#4682b4" fill-rule="evenodd" fill-opacity="0.7" stroke="#000000" stroke-opacity="0.7" stroke-width="3.84"/>
<circle clip-path="url(#clip911)" cx="506.797" cy="1608.49" r="14.4" fill="#4682b4" fill-rule="evenodd" fill-opacity="0.7" stroke="#000000" stroke-opacity="0.7" stroke-width="3.84"/>
<circle clip-path="url(#clip911)" cx="583.283" cy="1542.79" r="14.4" fill="#4682b4" fill-rule="evenodd" fill-opacity="0.7" stroke="#000000" stroke-opacity="0.7" stroke-width="3.84"/>
<circle clip-path="url(#clip911)" cx="659.769" cy="1503.62" r="14.4" fill="#4682b4" fill-rule="evenodd" fill-opacity="0.7" stroke="#000000" stroke-opacity="0.7" stroke-width="3.84"/>
<circle clip-path="url(#clip911)" cx="736.255" cy="1479.08" r="14.4" fill="#4682b4" fill-rule="evenodd" fill-opacity="0.7" stroke="#000000" stroke-opacity="0.7" stroke-width="3.84"/>
<circle clip-path="url(#clip911)" cx="812.741" cy="1428.09" r="14.4" fill="#4682b4" fill-rule="evenodd" fill-opacity="0.7" stroke="#000000" stroke-opacity="0.7" stroke-width="3.84"/>
<circle clip-path="url(#clip911)" cx="889.227" cy="1368.61" r="14.4" fill="#4682b4" fill-rule="evenodd" fill-opacity="0.7" stroke="#000000" stroke-opacity="0.7" stroke-width="3.84"/>
<circle clip-path="url(#clip911)" cx="965.713" cy="1234.43" r="14.4" fill="#4682b4" fill-rule="evenodd" fill-opacity="0.7" stroke="#000000" stroke-opacity="0.7" stroke-width="3.84"/>
<circle clip-path="url(#clip911)" cx="1042.2" cy="1164.37" r="14.4" fill="#4682b4" fill-rule="evenodd" fill-opacity="0.7" stroke="#000000" stroke-opacity="0.7" stroke-width="3.84"/>
<circle clip-path="url(#clip911)" cx="1118.68" cy="1029.53" r="14.4" fill="#4682b4" fill-rule="evenodd" fill-opacity="0.7" stroke="#000000" stroke-opacity="0.7" stroke-width="3.84"/>
<circle clip-path="url(#clip911)" cx="1195.17" cy="941.161" r="14.4" fill="#4682b4" fill-rule="evenodd" fill-opacity="0.7" stroke="#000000" stroke-opacity="0.7" stroke-width="3.84"/>
<circle clip-path="url(#clip911)" cx="1271.66" cy="863.441" r="14.4" fill="#4682b4" fill-rule="evenodd" fill-opacity="0.7" stroke="#000000" stroke-opacity="0.7" stroke-width="3.84"/>
<circle clip-path="url(#clip911)" cx="1348.14" cy="748.335" r="14.4" fill="#4682b4" fill-rule="evenodd" fill-opacity="0.7" stroke="#000000" stroke-opacity="0.7" stroke-width="3.84"/>
<circle clip-path="url(#clip911)" cx="1424.63" cy="638.88" r="14.4" fill="#4682b4" fill-rule="evenodd" fill-opacity="0.7" stroke="#000000" stroke-opacity="0.7" stroke-width="3.84"/>
<circle clip-path="url(#clip911)" cx="1501.11" cy="595.493" r="14.4" fill="#4682b4" fill-rule="evenodd" fill-opacity="0.7" stroke="#000000" stroke-opacity="0.7" stroke-width="3.84"/>
<circle clip-path="url(#clip911)" cx="1577.6" cy="552.647" r="14.4" fill="#4682b4" fill-rule="evenodd" fill-opacity="0.7" stroke="#000000" stroke-opacity="0.7" stroke-width="3.84"/>
<circle clip-path="url(#clip911)" cx="1654.09" cy="433.265" r="14.4" fill="#4682b4" fill-rule="evenodd" fill-opacity="0.7" stroke="#000000" stroke-opacity="0.7" stroke-width="3.84"/>
<circle clip-path="url(#clip911)" cx="1730.57" cy="411.759" r="14.4" fill="#4682b4" fill-rule="evenodd" fill-opacity="0.7" stroke="#000000" stroke-opacity="0.7" stroke-width="3.84"/>
<circle clip-path="url(#clip911)" cx="1807.06" cy="398.596" r="14.4" fill="#4682b4" fill-rule="evenodd" fill-opacity="0.7" stroke="#000000" stroke-opacity="0.7" stroke-width="3.84"/>
<circle clip-path="url(#clip911)" cx="1883.54" cy="364.575" r="14.4" fill="#4682b4" fill-rule="evenodd" fill-opacity="0.7" stroke="#000000" stroke-opacity="0.7" stroke-width="3.84"/>
<circle clip-path="url(#clip911)" cx="1960.03" cy="270.088" r="14.4" fill="#4682b4" fill-rule="evenodd" fill-opacity="0.7" stroke="#000000" stroke-opacity="0.7" stroke-width="3.84"/>
<circle clip-path="url(#clip911)" cx="2036.52" cy="223.695" r="14.4" fill="#4682b4" fill-rule="evenodd" fill-opacity="0.7" stroke="#000000" stroke-opacity="0.7" stroke-width="3.84"/>
<circle clip-path="url(#clip911)" cx="2113" cy="263.171" r="14.4" fill="#4682b4" fill-rule="evenodd" fill-opacity="0.7" stroke="#000000" stroke-opacity="0.7" stroke-width="3.84"/>
<circle clip-path="url(#clip911)" cx="2189.49" cy="250.725" r="14.4" fill="#4682b4" fill-rule="evenodd" fill-opacity="0.7" stroke="#000000" stroke-opacity="0.7" stroke-width="3.84"/>
<circle clip-path="url(#clip911)" cx="2265.97" cy="232.404" r="14.4" fill="#4682b4" fill-rule="evenodd" fill-opacity="0.7" stroke="#000000" stroke-opacity="0.7" stroke-width="3.84"/>
<circle clip-path="url(#clip911)" cx="2342.46" cy="219.514" r="14.4" fill="#4682b4" fill-rule="evenodd" fill-opacity="0.7" stroke="#000000" stroke-opacity="0.7" stroke-width="3.84"/>
<circle clip-path="url(#clip911)" cx="2418.95" cy="237.3" r="14.4" fill="#4682b4" fill-rule="evenodd" fill-opacity="0.7" stroke="#000000" stroke-opacity="0.7" stroke-width="3.84"/>
<circle clip-path="url(#clip911)" cx="2495.43" cy="185.973" r="14.4" fill="#4682b4" fill-rule="evenodd" fill-opacity="0.7" stroke="#000000" stroke-opacity="0.7" stroke-width="3.84"/>
<circle clip-path="url(#clip911)" cx="2571.92" cy="173.254" r="14.4" fill="#4682b4" fill-rule="evenodd" fill-opacity="0.7" stroke="#000000" stroke-opacity="0.7" stroke-width="3.84"/>
<polyline clip-path="url(#clip911)" style="stroke:#000000; stroke-linecap:round; stroke-linejoin:round; stroke-width:8; stroke-opacity:1; fill:none" stroke-dasharray="32, 20" points="277.339,1680.09 353.825,1659.2 430.311,1633.21 506.797,1601.16 583.283,1562.03 659.769,1514.85 736.255,1458.82 812.741,1393.47 889.227,1318.79 965.713,1235.47 1042.2,1144.93 1118.68,1049.33 1195.17,951.384 1271.66,854.123 1348.14,760.52 1424.63,672.981 1501.11,593.3 1577.6,522.661 1654.09,461.493 1730.57,409.483 1807.06,366.013 1883.54,330.116 1960.03,300.742 2036.52,277.095 2113,258.303 2189.49,243.403 2265.97,231.45 2342.46,221.983 2418.95,214.55 2495.43,208.727 2571.92,204.145 "/>
<path clip-path="url(#clip910)" d="M289.577 336.856 L877.962 336.856 L877.962 181.336 L289.577 181.336  Z" fill="#ffffff" fill-rule="evenodd" fill-opacity="1"/>
<polyline clip-path="url(#clip910)" style="stroke:#000000; stroke-linecap:round; stroke-linejoin:round; stroke-width:4; stroke-opacity:1; fill:none" points="289.577,336.856 877.962,336.856 877.962,181.336 289.577,181.336 289.577,336.856 "/>
<circle clip-path="url(#clip910)" cx="397.677" cy="233.176" r="20.48" fill="#4682b4" fill-rule="evenodd" fill-opacity="0.7" stroke="#000000" stroke-opacity="0.7" stroke-width="5.46133"/>
<path clip-path="url(#clip910)" d="M505.777 215.896 L512.074 215.896 L527.398 244.808 L527.398 215.896 L531.935 215.896 L531.935 250.456 L525.638 250.456 L510.314 221.544 L510.314 250.456 L505.777 250.456 L505.777 215.896 Z" fill="#000000" fill-rule="nonzero" fill-opacity="1" /><path clip-path="url(#clip910)" d="M551.101 227.517 Q547.675 227.517 545.684 230.202 Q543.694 232.864 543.694 237.517 Q543.694 242.169 545.661 244.854 Q547.652 247.516 551.101 247.516 Q554.504 247.516 556.495 244.831 Q558.485 242.146 558.485 237.517 Q558.485 232.91 556.495 230.225 Q554.504 227.517 551.101 227.517 M551.101 223.906 Q556.657 223.906 559.828 227.517 Q562.999 231.128 562.999 237.517 Q562.999 243.882 559.828 247.516 Q556.657 251.128 551.101 251.128 Q545.522 251.128 542.351 247.516 Q539.203 243.882 539.203 237.517 Q539.203 231.128 542.351 227.517 Q545.522 223.906 551.101 223.906 Z" fill="#000000" fill-rule="nonzero" fill-opacity="1" /><path clip-path="url(#clip910)" d="M570.059 224.531 L574.319 224.531 L574.319 250.456 L570.059 250.456 L570.059 224.531 M570.059 214.438 L574.319 214.438 L574.319 219.831 L570.059 219.831 L570.059 214.438 Z" fill="#000000" fill-rule="nonzero" fill-opacity="1" /><path clip-path="url(#clip910)" d="M599.758 225.294 L599.758 229.322 Q597.953 228.396 596.008 227.933 Q594.064 227.47 591.981 227.47 Q588.809 227.47 587.212 228.443 Q585.638 229.415 585.638 231.359 Q585.638 232.841 586.772 233.697 Q587.906 234.53 591.332 235.294 L592.791 235.618 Q597.328 236.591 599.226 238.373 Q601.147 240.132 601.147 243.304 Q601.147 246.915 598.277 249.021 Q595.43 251.128 590.43 251.128 Q588.346 251.128 586.078 250.711 Q583.832 250.317 581.332 249.507 L581.332 245.109 Q583.694 246.336 585.985 246.961 Q588.277 247.563 590.522 247.563 Q593.531 247.563 595.152 246.544 Q596.772 245.503 596.772 243.628 Q596.772 241.892 595.592 240.966 Q594.434 240.04 590.476 239.183 L588.994 238.836 Q585.036 238.003 583.277 236.29 Q581.518 234.554 581.518 231.544 Q581.518 227.887 584.11 225.896 Q586.703 223.906 591.471 223.906 Q593.832 223.906 595.916 224.253 Q597.999 224.6 599.758 225.294 Z" fill="#000000" fill-rule="nonzero" fill-opacity="1" /><path clip-path="url(#clip910)" d="M618.716 252.864 Q616.911 257.493 615.198 258.905 Q613.485 260.317 610.615 260.317 L607.212 260.317 L607.212 256.753 L609.712 256.753 Q611.471 256.753 612.443 255.919 Q613.416 255.086 614.596 251.984 L615.36 250.04 L604.874 224.531 L609.388 224.531 L617.49 244.808 L625.591 224.531 L630.105 224.531 L618.716 252.864 Z" fill="#000000" fill-rule="nonzero" fill-opacity="1" /><path clip-path="url(#clip910)" d="M668.114 228.466 L668.114 214.438 L672.374 214.438 L672.374 250.456 L668.114 250.456 L668.114 246.567 Q666.772 248.882 664.712 250.016 Q662.675 251.128 659.804 251.128 Q655.105 251.128 652.142 247.378 Q649.202 243.628 649.202 237.517 Q649.202 231.405 652.142 227.655 Q655.105 223.906 659.804 223.906 Q662.675 223.906 664.712 225.04 Q666.772 226.151 668.114 228.466 M653.601 237.517 Q653.601 242.216 655.522 244.901 Q657.466 247.563 660.846 247.563 Q664.225 247.563 666.17 244.901 Q668.114 242.216 668.114 237.517 Q668.114 232.817 666.17 230.155 Q664.225 227.47 660.846 227.47 Q657.466 227.47 655.522 230.155 Q653.601 232.817 653.601 237.517 Z" fill="#000000" fill-rule="nonzero" fill-opacity="1" /><path clip-path="url(#clip910)" d="M692.929 237.424 Q687.767 237.424 685.776 238.604 Q683.786 239.785 683.786 242.632 Q683.786 244.901 685.267 246.243 Q686.772 247.563 689.341 247.563 Q692.883 247.563 695.012 245.063 Q697.165 242.54 697.165 238.373 L697.165 237.424 L692.929 237.424 M701.424 235.665 L701.424 250.456 L697.165 250.456 L697.165 246.521 Q695.707 248.882 693.531 250.016 Q691.355 251.128 688.207 251.128 Q684.225 251.128 681.864 248.905 Q679.526 246.66 679.526 242.91 Q679.526 238.535 682.443 236.313 Q685.383 234.091 691.193 234.091 L697.165 234.091 L697.165 233.674 Q697.165 230.734 695.221 229.137 Q693.299 227.517 689.804 227.517 Q687.582 227.517 685.475 228.049 Q683.369 228.581 681.424 229.646 L681.424 225.711 Q683.762 224.808 685.961 224.368 Q688.161 223.906 690.244 223.906 Q695.869 223.906 698.647 226.822 Q701.424 229.739 701.424 235.665 Z" fill="#000000" fill-rule="nonzero" fill-opacity="1" /><path clip-path="url(#clip910)" d="M714.41 217.169 L714.41 224.531 L723.184 224.531 L723.184 227.841 L714.41 227.841 L714.41 241.915 Q714.41 245.086 715.267 245.989 Q716.147 246.891 718.809 246.891 L723.184 246.891 L723.184 250.456 L718.809 250.456 Q713.878 250.456 712.003 248.628 Q710.128 246.776 710.128 241.915 L710.128 227.841 L707.003 227.841 L707.003 224.531 L710.128 224.531 L710.128 217.169 L714.41 217.169 Z" fill="#000000" fill-rule="nonzero" fill-opacity="1" /><path clip-path="url(#clip910)" d="M740.568 237.424 Q735.406 237.424 733.415 238.604 Q731.424 239.785 731.424 242.632 Q731.424 244.901 732.906 246.243 Q734.41 247.563 736.98 247.563 Q740.521 247.563 742.651 245.063 Q744.804 242.54 744.804 238.373 L744.804 237.424 L740.568 237.424 M749.063 235.665 L749.063 250.456 L744.804 250.456 L744.804 246.521 Q743.345 248.882 741.17 250.016 Q738.994 251.128 735.845 251.128 Q731.864 251.128 729.503 248.905 Q727.165 246.66 727.165 242.91 Q727.165 238.535 730.082 236.313 Q733.021 234.091 738.832 234.091 L744.804 234.091 L744.804 233.674 Q744.804 230.734 742.859 229.137 Q740.938 227.517 737.443 227.517 Q735.22 227.517 733.114 228.049 Q731.008 228.581 729.063 229.646 L729.063 225.711 Q731.401 224.808 733.6 224.368 Q735.799 223.906 737.883 223.906 Q743.507 223.906 746.285 226.822 Q749.063 229.739 749.063 235.665 Z" fill="#000000" fill-rule="nonzero" fill-opacity="1" /><polyline clip-path="url(#clip910)" style="stroke:#000000; stroke-linecap:round; stroke-linejoin:round; stroke-width:8; stroke-opacity:1; fill:none" stroke-dasharray="32, 20" points="316.602,285.016 478.752,285.016 "/>
<path clip-path="url(#clip910)" d="M505.777 267.736 L535.013 267.736 L535.013 271.671 L522.745 271.671 L522.745 302.296 L518.046 302.296 L518.046 271.671 L505.777 271.671 L505.777 267.736 Z" fill="#000000" fill-rule="nonzero" fill-opacity="1" /><path clip-path="url(#clip910)" d="M547.397 280.352 Q546.68 279.935 545.823 279.75 Q544.99 279.542 543.972 279.542 Q540.36 279.542 538.416 281.903 Q536.495 284.241 536.495 288.639 L536.495 302.296 L532.212 302.296 L532.212 276.371 L536.495 276.371 L536.495 280.398 Q537.837 278.037 539.99 276.903 Q542.143 275.746 545.221 275.746 Q545.661 275.746 546.194 275.815 Q546.726 275.861 547.374 275.977 L547.397 280.352 Z" fill="#000000" fill-rule="nonzero" fill-opacity="1" /><path clip-path="url(#clip910)" d="M551.425 292.065 L551.425 276.371 L555.684 276.371 L555.684 291.903 Q555.684 295.583 557.12 297.435 Q558.555 299.264 561.425 299.264 Q564.874 299.264 566.865 297.065 Q568.879 294.866 568.879 291.069 L568.879 276.371 L573.138 276.371 L573.138 302.296 L568.879 302.296 L568.879 298.315 Q567.328 300.676 565.268 301.833 Q563.231 302.968 560.522 302.968 Q556.055 302.968 553.74 300.19 Q551.425 297.412 551.425 292.065 M562.143 275.746 L562.143 275.746 Z" fill="#000000" fill-rule="nonzero" fill-opacity="1" /><path clip-path="url(#clip910)" d="M604.087 288.269 L604.087 290.352 L584.504 290.352 Q584.781 294.75 587.143 297.065 Q589.527 299.356 593.763 299.356 Q596.217 299.356 598.508 298.755 Q600.823 298.153 603.092 296.949 L603.092 300.977 Q600.8 301.949 598.393 302.458 Q595.985 302.968 593.508 302.968 Q587.305 302.968 583.67 299.356 Q580.059 295.745 580.059 289.588 Q580.059 283.222 583.485 279.495 Q586.934 275.746 592.768 275.746 Q597.999 275.746 601.031 279.125 Q604.087 282.482 604.087 288.269 M599.828 287.019 Q599.781 283.523 597.86 281.44 Q595.962 279.357 592.814 279.357 Q589.249 279.357 587.096 281.37 Q584.967 283.384 584.643 287.042 L599.828 287.019 Z" fill="#000000" fill-rule="nonzero" fill-opacity="1" /><path clip-path="url(#clip910)" d="M630.36 269.009 L630.36 276.371 L639.133 276.371 L639.133 279.681 L630.36 279.681 L630.36 293.755 Q630.36 296.926 631.216 297.829 Q632.096 298.731 634.758 298.731 L639.133 298.731 L639.133 302.296 L634.758 302.296 Q629.828 302.296 627.953 300.468 Q626.078 298.616 626.078 293.755 L626.078 279.681 L622.953 279.681 L622.953 276.371 L626.078 276.371 L626.078 269.009 L630.36 269.009 Z" fill="#000000" fill-rule="nonzero" fill-opacity="1" /><path clip-path="url(#clip910)" d="M659.758 280.352 Q659.04 279.935 658.184 279.75 Q657.351 279.542 656.332 279.542 Q652.721 279.542 650.776 281.903 Q648.855 284.241 648.855 288.639 L648.855 302.296 L644.573 302.296 L644.573 276.371 L648.855 276.371 L648.855 280.398 Q650.198 278.037 652.351 276.903 Q654.503 275.746 657.582 275.746 Q658.022 275.746 658.554 275.815 Q659.087 275.861 659.735 275.977 L659.758 280.352 Z" fill="#000000" fill-rule="nonzero" fill-opacity="1" /><path clip-path="url(#clip910)" d="M676.008 289.264 Q670.846 289.264 668.855 290.444 Q666.864 291.625 666.864 294.472 Q666.864 296.741 668.346 298.083 Q669.85 299.403 672.42 299.403 Q675.962 299.403 678.091 296.903 Q680.244 294.38 680.244 290.213 L680.244 289.264 L676.008 289.264 M684.503 287.505 L684.503 302.296 L680.244 302.296 L680.244 298.361 Q678.786 300.722 676.61 301.856 Q674.434 302.968 671.286 302.968 Q667.304 302.968 664.943 300.745 Q662.605 298.5 662.605 294.75 Q662.605 290.375 665.522 288.153 Q668.462 285.931 674.272 285.931 L680.244 285.931 L680.244 285.514 Q680.244 282.574 678.299 280.977 Q676.378 279.357 672.883 279.357 Q670.661 279.357 668.554 279.889 Q666.448 280.421 664.503 281.486 L664.503 277.551 Q666.841 276.648 669.04 276.208 Q671.239 275.746 673.323 275.746 Q678.948 275.746 681.725 278.662 Q684.503 281.579 684.503 287.505 Z" fill="#000000" fill-rule="nonzero" fill-opacity="1" /><path clip-path="url(#clip910)" d="M693.276 276.371 L697.535 276.371 L697.535 302.759 Q697.535 307.713 695.637 309.935 Q693.762 312.157 689.573 312.157 L687.952 312.157 L687.952 308.546 L689.086 308.546 Q691.517 308.546 692.397 307.412 Q693.276 306.301 693.276 302.759 L693.276 276.371 M693.276 266.278 L697.535 266.278 L697.535 271.671 L693.276 271.671 L693.276 266.278 Z" fill="#000000" fill-rule="nonzero" fill-opacity="1" /><path clip-path="url(#clip910)" d="M728.623 288.269 L728.623 290.352 L709.04 290.352 Q709.318 294.75 711.679 297.065 Q714.063 299.356 718.299 299.356 Q720.753 299.356 723.045 298.755 Q725.359 298.153 727.628 296.949 L727.628 300.977 Q725.336 301.949 722.929 302.458 Q720.521 302.968 718.045 302.968 Q711.841 302.968 708.207 299.356 Q704.596 295.745 704.596 289.588 Q704.596 283.222 708.022 279.495 Q711.471 275.746 717.304 275.746 Q722.535 275.746 725.568 279.125 Q728.623 282.482 728.623 288.269 M724.364 287.019 Q724.318 283.523 722.396 281.44 Q720.498 279.357 717.35 279.357 Q713.785 279.357 711.633 281.37 Q709.503 283.384 709.179 287.042 L724.364 287.019 Z" fill="#000000" fill-rule="nonzero" fill-opacity="1" /><path clip-path="url(#clip910)" d="M754.271 277.366 L754.271 281.347 Q752.466 280.352 750.637 279.866 Q748.832 279.357 746.98 279.357 Q742.836 279.357 740.545 281.995 Q738.253 284.611 738.253 289.357 Q738.253 294.102 740.545 296.741 Q742.836 299.356 746.98 299.356 Q748.832 299.356 750.637 298.87 Q752.466 298.361 754.271 297.366 L754.271 301.301 Q752.489 302.134 750.568 302.551 Q748.669 302.968 746.517 302.968 Q740.66 302.968 737.211 299.287 Q733.762 295.607 733.762 289.357 Q733.762 283.014 737.234 279.38 Q740.73 275.746 746.794 275.746 Q748.762 275.746 750.637 276.162 Q752.512 276.556 754.271 277.366 Z" fill="#000000" fill-rule="nonzero" fill-opacity="1" /><path clip-path="url(#clip910)" d="M765.892 269.009 L765.892 276.371 L774.665 276.371 L774.665 279.681 L765.892 279.681 L765.892 293.755 Q765.892 296.926 766.748 297.829 Q767.628 298.731 770.29 298.731 L774.665 298.731 L774.665 302.296 L770.29 302.296 Q765.359 302.296 763.484 300.468 Q761.609 298.616 761.609 293.755 L761.609 279.681 L758.484 279.681 L758.484 276.371 L761.609 276.371 L761.609 269.009 L765.892 269.009 Z" fill="#000000" fill-rule="nonzero" fill-opacity="1" /><path clip-path="url(#clip910)" d="M790.313 279.357 Q786.887 279.357 784.896 282.042 Q782.905 284.704 782.905 289.357 Q782.905 294.009 784.873 296.694 Q786.864 299.356 790.313 299.356 Q793.716 299.356 795.706 296.671 Q797.697 293.986 797.697 289.357 Q797.697 284.75 795.706 282.065 Q793.716 279.357 790.313 279.357 M790.313 275.746 Q795.868 275.746 799.04 279.357 Q802.211 282.968 802.211 289.357 Q802.211 295.722 799.04 299.356 Q795.868 302.968 790.313 302.968 Q784.734 302.968 781.563 299.356 Q778.415 295.722 778.415 289.357 Q778.415 282.968 781.563 279.357 Q784.734 275.746 790.313 275.746 Z" fill="#000000" fill-rule="nonzero" fill-opacity="1" /><path clip-path="url(#clip910)" d="M824.294 280.352 Q823.576 279.935 822.72 279.75 Q821.887 279.542 820.868 279.542 Q817.257 279.542 815.313 281.903 Q813.391 284.241 813.391 288.639 L813.391 302.296 L809.109 302.296 L809.109 276.371 L813.391 276.371 L813.391 280.398 Q814.734 278.037 816.887 276.903 Q819.039 275.746 822.118 275.746 Q822.558 275.746 823.09 275.815 Q823.623 275.861 824.271 275.977 L824.294 280.352 Z" fill="#000000" fill-rule="nonzero" fill-opacity="1" /><path clip-path="url(#clip910)" d="M839.549 304.704 Q837.743 309.333 836.03 310.745 Q834.317 312.157 831.447 312.157 L828.044 312.157 L828.044 308.593 L830.544 308.593 Q832.303 308.593 833.276 307.759 Q834.248 306.926 835.428 303.824 L836.192 301.88 L825.706 276.371 L830.22 276.371 L838.322 296.648 L846.424 276.371 L850.937 276.371 L839.549 304.704 Z" fill="#000000" fill-rule="nonzero" fill-opacity="1" /></svg>
