<?xml version="1.0" encoding="utf-8"?>
<svg xmlns="http://www.w3.org/2000/svg" xmlns:xlink="http://www.w3.org/1999/xlink" width="672" height="480" viewBox="0 0 2688 1920">
<defs>
  <clipPath id="clip090">
    <rect x="0" y="0" width="2688" height="1920"/>
  </clipPath>
</defs>
<path clip-path="url(#clip090)" d="M0 1920 L2688 1920 L2688 -4.26326e-14 L0 -4.26326e-14  Z" fill="#ffffff" fill-rule="evenodd" fill-opacity="1"/>
<defs>
  <clipPath id="clip091">
    <rect x="226" y="127" width="2416" height="1607"/>
  </clipPath>
</defs>
<path clip-path="url(#clip090)" d="M226.141 1734.12 L2640.76 1734.12 L2640.76 127.792 L226.141 127.792  Z" fill="#ffffff" fill-rule="evenodd" fill-opacity="1"/>
<polyline clip-path="url(#clip091)" style="stroke:#000000; stroke-linecap:round; stroke-linejoin:round; stroke-width:2; stroke-opacity:0.1; fill:none" points="463.215,1734.12 463.215,127.792 "/>
<polyline clip-path="url(#clip091)" style="stroke:#000000; stroke-linecap:round; stroke-linejoin:round; stroke-width:2; stroke-opacity:0.1; fill:none" points="885.056,1734.12 885.056,127.792 "/>
<polyline clip-path="url(#clip091)" style="stroke:#000000; stroke-linecap:round; stroke-linejoin:round; stroke-width:2; stroke-opacity:0.1; fill:none" points="1306.9,1734.12 1306.9,127.792 "/>
<polyline clip-path="url(#clip091)" style="stroke:#000000; stroke-linecap:round; stroke-linejoin:round; stroke-width:2; stroke-opacity:0.1; fill:none" points="1728.74,1734.12 1728.74,127.792 "/>
<polyline clip-path="url(#clip091)" style="stroke:#000000; stroke-linecap:round; stroke-linejoin:round; stroke-width:2; stroke-opacity:0.1; fill:none" points="2150.58,1734.12 2150.58,127.792 "/>
<polyline clip-path="url(#clip091)" style="stroke:#000000; stroke-linecap:round; stroke-linejoin:round; stroke-width:2; stroke-opacity:0.1; fill:none" points="2572.42,1734.12 2572.42,127.792 "/>
<polyline clip-path="url(#clip091)" style="stroke:#000000; stroke-linecap:round; stroke-linejoin:round; stroke-width:2; stroke-opacity:0.1; fill:none" points="226.141,1453.02 2640.76,1453.02 "/>
<polyline clip-path="url(#clip091)" style="stroke:#000000; stroke-linecap:round; stroke-linejoin:round; stroke-width:2; stroke-opacity:0.1; fill:none" points="226.141,1133.08 2640.76,1133.08 "/>
<polyline clip-path="url(#clip091)" style="stroke:#000000; stroke-linecap:round; stroke-linejoin:round; stroke-width:2; stroke-opacity:0.1; fill:none" points="226.141,813.135 2640.76,813.135 "/>
<polyline clip-path="url(#clip091)" style="stroke:#000000; stroke-linecap:round; stroke-linejoin:round; stroke-width:2; stroke-opacity:0.1; fill:none" points="226.141,493.195 2640.76,493.195 "/>
<polyline clip-path="url(#clip091)" style="stroke:#000000; stroke-linecap:round; stroke-linejoin:round; stroke-width:2; stroke-opacity:0.1; fill:none" points="226.141,173.254 2640.76,173.254 "/>
<polyline clip-path="url(#clip090)" style="stroke:#000000; stroke-linecap:round; stroke-linejoin:round; stroke-width:4; stroke-opacity:1; fill:none" points="226.141,1734.12 2640.76,1734.12 "/>
<polyline clip-path="url(#clip090)" style="stroke:#000000; stroke-linecap:round; stroke-linejoin:round; stroke-width:4; stroke-opacity:1; fill:none" points="463.215,1734.12 463.215,1715.22 "/>
<polyline clip-path="url(#clip090)" style="stroke:#000000; stroke-linecap:round; stroke-linejoin:round; stroke-width:4; stroke-opacity:1; fill:none" points="885.056,1734.12 885.056,1715.22 "/>
<polyline clip-path="url(#clip090)" style="stroke:#000000; stroke-linecap:round; stroke-linejoin:round; stroke-width:4; stroke-opacity:1; fill:none" points="1306.9,1734.12 1306.9,1715.22 "/>
<polyline clip-path="url(#clip090)" style="stroke:#000000; stroke-linecap:round; stroke-linejoin:round; stroke-width:4; stroke-opacity:1; fill:none" points="1728.74,1734.12 1728.74,1715.22 "/>
<polyline clip-path="url(#clip090)" style="stroke:#000000; stroke-linecap:round; stroke-linejoin:round; stroke-width:4; stroke-opacity:1; fill:none" points="2150.58,1734.12 2150.58,1715.22 "/>
<polyline clip-path="url(#clip090)" style="stroke:#000000; stroke-linecap:round; stroke-linejoin:round; stroke-width:4; stroke-opacity:1; fill:none" points="2572.42,1734.12 2572.42,1715.22 "/>
<path clip-path="url(#clip090)" d="M441.097 1767.34 Q437.486 1767.34 435.657 1770.9 Q433.852 1774.45 433.852 1781.58 Q433.852 1788.68 435.657 1792.25 Q437.486 1795.79 441.097 1795.79 Q444.731 1795.79 446.537 1792.25 Q448.365 1788.68 448.365 1781.58 Q448.365 1774.45 446.537 1770.9 Q444.731 1767.34 441.097 1767.34 M441.097 1763.64 Q446.907 1763.64 449.963 1768.24 Q453.041 1772.83 453.041 1781.58 Q453.041 1790.3 449.963 1794.91 Q446.907 1799.49 441.097 1799.49 Q435.287 1799.49 432.208 1794.91 Q429.153 1790.3 429.153 1781.58 Q429.153 1772.83 432.208 1768.24 Q435.287 1763.64 441.097 1763.64 Z" fill="#000000" fill-rule="nonzero" fill-opacity="1" /><path clip-path="url(#clip090)" d="M461.259 1792.94 L466.143 1792.94 L466.143 1798.82 L461.259 1798.82 L461.259 1792.94 Z" fill="#000000" fill-rule="nonzero" fill-opacity="1" /><path clip-path="url(#clip090)" d="M476.375 1764.26 L494.731 1764.26 L494.731 1768.2 L480.657 1768.2 L480.657 1776.67 Q481.675 1776.32 482.694 1776.16 Q483.713 1775.97 484.731 1775.97 Q490.518 1775.97 493.898 1779.15 Q497.277 1782.32 497.277 1787.73 Q497.277 1793.31 493.805 1796.41 Q490.333 1799.49 484.013 1799.49 Q481.838 1799.49 479.569 1799.12 Q477.324 1798.75 474.916 1798.01 L474.916 1793.31 Q477 1794.45 479.222 1795 Q481.444 1795.56 483.921 1795.56 Q487.925 1795.56 490.263 1793.45 Q492.601 1791.34 492.601 1787.73 Q492.601 1784.12 490.263 1782.02 Q487.925 1779.91 483.921 1779.91 Q482.046 1779.91 480.171 1780.33 Q478.319 1780.74 476.375 1781.62 L476.375 1764.26 Z" fill="#000000" fill-rule="nonzero" fill-opacity="1" /><path clip-path="url(#clip090)" d="M852.208 1794.89 L859.847 1794.89 L859.847 1768.52 L851.537 1770.19 L851.537 1765.93 L859.801 1764.26 L864.477 1764.26 L864.477 1794.89 L872.116 1794.89 L872.116 1798.82 L852.208 1798.82 L852.208 1794.89 Z" fill="#000000" fill-rule="nonzero" fill-opacity="1" /><path clip-path="url(#clip090)" d="M881.56 1792.94 L886.444 1792.94 L886.444 1798.82 L881.56 1798.82 L881.56 1792.94 Z" fill="#000000" fill-rule="nonzero" fill-opacity="1" /><path clip-path="url(#clip090)" d="M906.629 1767.34 Q903.018 1767.34 901.19 1770.9 Q899.384 1774.45 899.384 1781.58 Q899.384 1788.68 901.19 1792.25 Q903.018 1795.79 906.629 1795.79 Q910.264 1795.79 912.069 1792.25 Q913.898 1788.68 913.898 1781.58 Q913.898 1774.45 912.069 1770.9 Q910.264 1767.34 906.629 1767.34 M906.629 1763.64 Q912.44 1763.64 915.495 1768.24 Q918.574 1772.83 918.574 1781.58 Q918.574 1790.3 915.495 1794.91 Q912.44 1799.49 906.629 1799.49 Q900.819 1799.49 897.741 1794.91 Q894.685 1790.3 894.685 1781.58 Q894.685 1772.83 897.741 1768.24 Q900.819 1763.64 906.629 1763.64 Z" fill="#000000" fill-rule="nonzero" fill-opacity="1" /><path clip-path="url(#clip090)" d="M1274.55 1794.89 L1282.19 1794.89 L1282.19 1768.52 L1273.88 1770.19 L1273.88 1765.93 L1282.14 1764.26 L1286.82 1764.26 L1286.82 1794.89 L1294.45 1794.89 L1294.45 1798.82 L1274.55 1798.82 L1274.55 1794.89 Z" fill="#000000" fill-rule="nonzero" fill-opacity="1" /><path clip-path="url(#clip090)" d="M1303.9 1792.94 L1308.78 1792.94 L1308.78 1798.82 L1303.9 1798.82 L1303.9 1792.94 Z" fill="#000000" fill-rule="nonzero" fill-opacity="1" /><path clip-path="url(#clip090)" d="M1319.01 1764.26 L1337.37 1764.26 L1337.37 1768.2 L1323.3 1768.2 L1323.3 1776.67 Q1324.31 1776.32 1325.33 1776.16 Q1326.35 1775.97 1327.37 1775.97 Q1333.16 1775.97 1336.54 1779.15 Q1339.92 1782.32 1339.92 1787.73 Q1339.92 1793.31 1336.44 1796.41 Q1332.97 1799.49 1326.65 1799.49 Q1324.48 1799.49 1322.21 1799.12 Q1319.96 1798.75 1317.56 1798.01 L1317.56 1793.31 Q1319.64 1794.45 1321.86 1795 Q1324.08 1795.56 1326.56 1795.56 Q1330.56 1795.56 1332.9 1793.45 Q1335.24 1791.34 1335.24 1787.73 Q1335.24 1784.12 1332.9 1782.02 Q1330.56 1779.91 1326.56 1779.91 Q1324.69 1779.91 1322.81 1780.33 Q1320.96 1780.74 1319.01 1781.62 L1319.01 1764.26 Z" fill="#000000" fill-rule="nonzero" fill-opacity="1" /><path clip-path="url(#clip090)" d="M1699.98 1794.89 L1716.29 1794.89 L1716.29 1798.82 L1694.35 1798.82 L1694.35 1794.89 Q1697.01 1792.13 1701.6 1787.5 Q1706.2 1782.85 1707.38 1781.51 Q1709.63 1778.98 1710.51 1777.25 Q1711.41 1775.49 1711.41 1773.8 Q1711.41 1771.04 1709.47 1769.31 Q1707.54 1767.57 1704.44 1767.57 Q1702.24 1767.57 1699.79 1768.34 Q1697.36 1769.1 1694.58 1770.65 L1694.58 1765.93 Q1697.41 1764.79 1699.86 1764.21 Q1702.31 1763.64 1704.35 1763.64 Q1709.72 1763.64 1712.91 1766.32 Q1716.11 1769.01 1716.11 1773.5 Q1716.11 1775.63 1715.3 1777.55 Q1714.51 1779.45 1712.41 1782.04 Q1711.83 1782.71 1708.73 1785.93 Q1705.62 1789.12 1699.98 1794.89 Z" fill="#000000" fill-rule="nonzero" fill-opacity="1" /><path clip-path="url(#clip090)" d="M1726.11 1792.94 L1730.99 1792.94 L1730.99 1798.82 L1726.11 1798.82 L1726.11 1792.94 Z" fill="#000000" fill-rule="nonzero" fill-opacity="1" /><path clip-path="url(#clip090)" d="M1751.18 1767.34 Q1747.57 1767.34 1745.74 1770.9 Q1743.93 1774.45 1743.93 1781.58 Q1743.93 1788.68 1745.74 1792.25 Q1747.57 1795.79 1751.18 1795.79 Q1754.81 1795.79 1756.62 1792.25 Q1758.45 1788.68 1758.45 1781.58 Q1758.45 1774.45 1756.62 1770.9 Q1754.81 1767.34 1751.18 1767.34 M1751.18 1763.64 Q1756.99 1763.64 1760.04 1768.24 Q1763.12 1772.83 1763.12 1781.58 Q1763.12 1790.3 1760.04 1794.91 Q1756.99 1799.49 1751.18 1799.49 Q1745.37 1799.49 1742.29 1794.91 Q1739.23 1790.3 1739.23 1781.58 Q1739.23 1772.83 1742.29 1768.24 Q1745.37 1763.64 1751.18 1763.64 Z" fill="#000000" fill-rule="nonzero" fill-opacity="1" /><path clip-path="url(#clip090)" d="M2122.31 1794.89 L2138.63 1794.89 L2138.63 1798.82 L2116.69 1798.82 L2116.69 1794.89 Q2119.35 1792.13 2123.93 1787.5 Q2128.54 1782.85 2129.72 1781.51 Q2131.97 1778.98 2132.85 1777.25 Q2133.75 1775.49 2133.75 1773.8 Q2133.75 1771.04 2131.8 1769.31 Q2129.88 1767.57 2126.78 1767.57 Q2124.58 1767.57 2122.13 1768.34 Q2119.7 1769.1 2116.92 1770.65 L2116.92 1765.93 Q2119.74 1764.79 2122.2 1764.21 Q2124.65 1763.64 2126.69 1763.64 Q2132.06 1763.64 2135.25 1766.32 Q2138.45 1769.01 2138.45 1773.5 Q2138.45 1775.63 2137.64 1777.55 Q2136.85 1779.45 2134.74 1782.04 Q2134.17 1782.71 2131.06 1785.93 Q2127.96 1789.12 2122.31 1794.89 Z" fill="#000000" fill-rule="nonzero" fill-opacity="1" /><path clip-path="url(#clip090)" d="M2148.45 1792.94 L2153.33 1792.94 L2153.33 1798.82 L2148.45 1798.82 L2148.45 1792.94 Z" fill="#000000" fill-rule="nonzero" fill-opacity="1" /><path clip-path="url(#clip090)" d="M2163.56 1764.26 L2181.92 1764.26 L2181.92 1768.2 L2167.85 1768.2 L2167.85 1776.67 Q2168.86 1776.32 2169.88 1776.16 Q2170.9 1775.97 2171.92 1775.97 Q2177.71 1775.97 2181.09 1779.15 Q2184.47 1782.32 2184.47 1787.73 Q2184.47 1793.31 2180.99 1796.41 Q2177.52 1799.49 2171.2 1799.49 Q2169.03 1799.49 2166.76 1799.12 Q2164.51 1798.75 2162.1 1798.01 L2162.1 1793.31 Q2164.19 1794.45 2166.41 1795 Q2168.63 1795.56 2171.11 1795.56 Q2175.11 1795.56 2177.45 1793.45 Q2179.79 1791.34 2179.79 1787.73 Q2179.79 1784.12 2177.45 1782.02 Q2175.11 1779.91 2171.11 1779.91 Q2169.23 1779.91 2167.36 1780.33 Q2165.51 1780.74 2163.56 1781.62 L2163.56 1764.26 Z" fill="#000000" fill-rule="nonzero" fill-opacity="1" /><path clip-path="url(#clip090)" d="M2553.73 1780.19 Q2557.08 1780.9 2558.96 1783.17 Q2560.86 1785.44 2560.86 1788.77 Q2560.86 1793.89 2557.34 1796.69 Q2553.82 1799.49 2547.34 1799.49 Q2545.16 1799.49 2542.85 1799.05 Q2540.55 1798.64 2538.1 1797.78 L2538.1 1793.27 Q2540.05 1794.4 2542.36 1794.98 Q2544.67 1795.56 2547.2 1795.56 Q2551.6 1795.56 2553.89 1793.82 Q2556.2 1792.08 2556.2 1788.77 Q2556.2 1785.72 2554.05 1784.01 Q2551.92 1782.27 2548.1 1782.27 L2544.07 1782.27 L2544.07 1778.43 L2548.29 1778.43 Q2551.73 1778.43 2553.56 1777.06 Q2555.39 1775.67 2555.39 1773.08 Q2555.39 1770.42 2553.49 1769.01 Q2551.62 1767.57 2548.1 1767.57 Q2546.18 1767.57 2543.98 1767.99 Q2541.78 1768.4 2539.14 1769.28 L2539.14 1765.12 Q2541.8 1764.38 2544.12 1764.01 Q2546.46 1763.64 2548.52 1763.64 Q2553.84 1763.64 2556.94 1766.07 Q2560.05 1768.47 2560.05 1772.59 Q2560.05 1775.46 2558.4 1777.46 Q2556.76 1779.42 2553.73 1780.19 Z" fill="#000000" fill-rule="nonzero" fill-opacity="1" /><path clip-path="url(#clip090)" d="M2569.72 1792.94 L2574.61 1792.94 L2574.61 1798.82 L2569.72 1798.82 L2569.72 1792.94 Z" fill="#000000" fill-rule="nonzero" fill-opacity="1" /><path clip-path="url(#clip090)" d="M2594.79 1767.34 Q2591.18 1767.34 2589.35 1770.9 Q2587.54 1774.45 2587.54 1781.58 Q2587.54 1788.68 2589.35 1792.25 Q2591.18 1795.79 2594.79 1795.79 Q2598.42 1795.79 2600.23 1792.25 Q2602.06 1788.68 2602.06 1781.58 Q2602.06 1774.45 2600.23 1770.9 Q2598.42 1767.34 2594.79 1767.34 M2594.79 1763.64 Q2600.6 1763.64 2603.66 1768.24 Q2606.73 1772.83 2606.73 1781.58 Q2606.73 1790.3 2603.66 1794.91 Q2600.6 1799.49 2594.79 1799.49 Q2588.98 1799.49 2585.9 1794.91 Q2582.85 1790.3 2582.85 1781.58 Q2582.85 1772.83 2585.9 1768.24 Q2588.98 1763.64 2594.79 1763.64 Z" fill="#000000" fill-rule="nonzero" fill-opacity="1" /><path clip-path="url(#clip090)" d="M1210.44 1841.06 L1210.44 1858.92 L1218.53 1858.92 Q1223.01 1858.92 1225.46 1856.6 Q1227.92 1854.27 1227.92 1849.98 Q1227.92 1845.71 1225.46 1843.39 Q1223.01 1841.06 1218.53 1841.06 L1210.44 1841.06 M1204.01 1835.78 L1218.53 1835.78 Q1226.52 1835.78 1230.59 1839.41 Q1234.69 1843.01 1234.69 1849.98 Q1234.69 1857.01 1230.59 1860.61 Q1226.52 1864.2 1218.53 1864.2 L1210.44 1864.2 L1210.44 1883.3 L1204.01 1883.3 L1204.01 1835.78 Z" fill="#000000" fill-rule="nonzero" fill-opacity="1" /><path clip-path="url(#clip090)" d="M1262.58 1853.13 Q1261.59 1852.55 1260.41 1852.3 Q1259.27 1852.01 1257.87 1852.01 Q1252.9 1852.01 1250.23 1855.26 Q1247.59 1858.47 1247.59 1864.52 L1247.59 1883.3 L1241.7 1883.3 L1241.7 1847.65 L1247.59 1847.65 L1247.59 1853.19 Q1249.43 1849.94 1252.39 1848.39 Q1255.35 1846.79 1259.58 1846.79 Q1260.19 1846.79 1260.92 1846.89 Q1261.65 1846.95 1262.54 1847.11 L1262.58 1853.13 Z" fill="#000000" fill-rule="nonzero" fill-opacity="1" /><path clip-path="url(#clip090)" d="M1297.78 1864.01 L1297.78 1866.88 L1270.85 1866.88 Q1271.23 1872.92 1274.48 1876.11 Q1277.76 1879.26 1283.58 1879.26 Q1286.96 1879.26 1290.11 1878.43 Q1293.29 1877.6 1296.41 1875.95 L1296.41 1881.49 Q1293.26 1882.82 1289.95 1883.52 Q1286.64 1884.22 1283.23 1884.22 Q1274.7 1884.22 1269.71 1879.26 Q1264.74 1874.29 1264.74 1865.83 Q1264.74 1857.07 1269.45 1851.95 Q1274.19 1846.79 1282.21 1846.79 Q1289.41 1846.79 1293.58 1851.44 Q1297.78 1856.06 1297.78 1864.01 M1291.92 1862.29 Q1291.86 1857.49 1289.22 1854.62 Q1286.61 1851.76 1282.28 1851.76 Q1277.38 1851.76 1274.42 1854.53 Q1271.49 1857.3 1271.04 1862.33 L1291.92 1862.29 Z" fill="#000000" fill-rule="nonzero" fill-opacity="1" /><path clip-path="url(#clip090)" d="M1322.22 1886.61 Q1319.74 1892.98 1317.39 1894.92 Q1315.03 1896.86 1311.08 1896.86 L1306.4 1896.86 L1306.4 1891.96 L1309.84 1891.96 Q1312.26 1891.96 1313.6 1890.81 Q1314.93 1889.67 1316.56 1885.4 L1317.61 1882.73 L1303.19 1847.65 L1309.4 1847.65 L1320.54 1875.53 L1331.68 1847.65 L1337.88 1847.65 L1322.22 1886.61 Z" fill="#000000" fill-rule="nonzero" fill-opacity="1" /><path clip-path="url(#clip090)" d="M1390.15 1853.06 L1390.15 1833.78 L1396 1833.78 L1396 1883.3 L1390.15 1883.3 L1390.15 1877.95 Q1388.3 1881.14 1385.47 1882.7 Q1382.67 1884.22 1378.72 1884.22 Q1372.26 1884.22 1368.18 1879.07 Q1364.14 1873.91 1364.14 1865.51 Q1364.14 1857.11 1368.18 1851.95 Q1372.26 1846.79 1378.72 1846.79 Q1382.67 1846.79 1385.47 1848.35 Q1388.3 1849.88 1390.15 1853.06 M1370.19 1865.51 Q1370.19 1871.97 1372.83 1875.66 Q1375.5 1879.32 1380.15 1879.32 Q1384.8 1879.32 1387.47 1875.66 Q1390.15 1871.97 1390.15 1865.51 Q1390.15 1859.05 1387.47 1855.39 Q1384.8 1851.7 1380.15 1851.7 Q1375.5 1851.7 1372.83 1855.39 Q1370.19 1859.05 1370.19 1865.51 Z" fill="#000000" fill-rule="nonzero" fill-opacity="1" /><path clip-path="url(#clip090)" d="M1438.56 1864.01 L1438.56 1866.88 L1411.63 1866.88 Q1412.01 1872.92 1415.26 1876.11 Q1418.54 1879.26 1424.36 1879.26 Q1427.74 1879.26 1430.89 1878.43 Q1434.07 1877.6 1437.19 1875.95 L1437.19 1881.49 Q1434.04 1882.82 1430.73 1883.52 Q1427.42 1884.22 1424.01 1884.22 Q1415.48 1884.22 1410.48 1879.26 Q1405.52 1874.29 1405.52 1865.83 Q1405.52 1857.07 1410.23 1851.95 Q1414.97 1846.79 1422.99 1846.79 Q1430.19 1846.79 1434.36 1851.44 Q1438.56 1856.06 1438.56 1864.01 M1432.7 1862.29 Q1432.64 1857.49 1429.99 1854.62 Q1427.38 1851.76 1423.06 1851.76 Q1418.15 1851.76 1415.19 1854.53 Q1412.27 1857.3 1411.82 1862.33 L1432.7 1862.29 Z" fill="#000000" fill-rule="nonzero" fill-opacity="1" /><path clip-path="url(#clip090)" d="M1477.8 1861.78 L1477.8 1883.3 L1471.94 1883.3 L1471.94 1861.98 Q1471.94 1856.92 1469.97 1854.4 Q1468 1851.89 1464.05 1851.89 Q1459.31 1851.89 1456.57 1854.91 Q1453.83 1857.93 1453.83 1863.15 L1453.83 1883.3 L1447.95 1883.3 L1447.95 1847.65 L1453.83 1847.65 L1453.83 1853.19 Q1455.94 1849.98 1458.77 1848.39 Q1461.63 1846.79 1465.36 1846.79 Q1471.5 1846.79 1474.65 1850.61 Q1477.8 1854.4 1477.8 1861.78 Z" fill="#000000" fill-rule="nonzero" fill-opacity="1" /><path clip-path="url(#clip090)" d="M1512.21 1848.7 L1512.21 1854.24 Q1509.73 1852.97 1507.05 1852.33 Q1504.38 1851.7 1501.51 1851.7 Q1497.15 1851.7 1494.96 1853.03 Q1492.79 1854.37 1492.79 1857.04 Q1492.79 1859.08 1494.35 1860.26 Q1495.91 1861.4 1500.62 1862.45 L1502.63 1862.9 Q1508.87 1864.24 1511.48 1866.69 Q1514.12 1869.11 1514.12 1873.47 Q1514.12 1878.43 1510.17 1881.33 Q1506.26 1884.22 1499.38 1884.22 Q1496.52 1884.22 1493.4 1883.65 Q1490.31 1883.11 1486.87 1882 L1486.87 1875.95 Q1490.12 1877.64 1493.27 1878.49 Q1496.42 1879.32 1499.51 1879.32 Q1503.65 1879.32 1505.87 1877.92 Q1508.1 1876.49 1508.1 1873.91 Q1508.1 1871.52 1506.48 1870.25 Q1504.89 1868.98 1499.44 1867.8 L1497.41 1867.32 Q1491.96 1866.18 1489.55 1863.82 Q1487.13 1861.43 1487.13 1857.3 Q1487.13 1852.27 1490.69 1849.53 Q1494.26 1846.79 1500.81 1846.79 Q1504.06 1846.79 1506.92 1847.27 Q1509.79 1847.75 1512.21 1848.7 Z" fill="#000000" fill-rule="nonzero" fill-opacity="1" /><path clip-path="url(#clip090)" d="M1523.44 1847.65 L1529.3 1847.65 L1529.3 1883.3 L1523.44 1883.3 L1523.44 1847.65 M1523.44 1833.78 L1529.3 1833.78 L1529.3 1841.19 L1523.44 1841.19 L1523.44 1833.78 Z" fill="#000000" fill-rule="nonzero" fill-opacity="1" /><path clip-path="url(#clip090)" d="M1547.35 1837.53 L1547.35 1847.65 L1559.41 1847.65 L1559.41 1852.2 L1547.35 1852.2 L1547.35 1871.56 Q1547.35 1875.92 1548.52 1877.16 Q1549.73 1878.4 1553.39 1878.4 L1559.41 1878.4 L1559.41 1883.3 L1553.39 1883.3 Q1546.61 1883.3 1544.04 1880.79 Q1541.46 1878.24 1541.46 1871.56 L1541.46 1852.2 L1537.16 1852.2 L1537.16 1847.65 L1541.46 1847.65 L1541.46 1837.53 L1547.35 1837.53 Z" fill="#000000" fill-rule="nonzero" fill-opacity="1" /><path clip-path="url(#clip090)" d="M1581.94 1886.61 Q1579.46 1892.98 1577.11 1894.92 Q1574.75 1896.86 1570.8 1896.86 L1566.13 1896.86 L1566.13 1891.96 L1569.56 1891.96 Q1571.98 1891.96 1573.32 1890.81 Q1574.66 1889.67 1576.28 1885.4 L1577.33 1882.73 L1562.91 1847.65 L1569.12 1847.65 L1580.26 1875.53 L1591.4 1847.65 L1597.6 1847.65 L1581.94 1886.61 Z" fill="#000000" fill-rule="nonzero" fill-opacity="1" /><path clip-path="url(#clip090)" d="M1626.66 1835.78 L1633.09 1835.78 L1633.09 1855.26 L1656.45 1855.26 L1656.45 1835.78 L1662.88 1835.78 L1662.88 1883.3 L1656.45 1883.3 L1656.45 1860.67 L1633.09 1860.67 L1633.09 1883.3 L1626.66 1883.3 L1626.66 1835.78 Z" fill="#000000" fill-rule="nonzero" fill-opacity="1" /><polyline clip-path="url(#clip090)" style="stroke:#000000; stroke-linecap:round; stroke-linejoin:round; stroke-width:4; stroke-opacity:1; fill:none" points="226.141,1734.12 226.141,127.792 "/>
<polyline clip-path="url(#clip090)" style="stroke:#000000; stroke-linecap:round; stroke-linejoin:round; stroke-width:4; stroke-opacity:1; fill:none" points="226.141,1453.02 245.038,1453.02 "/>
<polyline clip-path="url(#clip090)" style="stroke:#000000; stroke-linecap:round; stroke-linejoin:round; stroke-width:4; stroke-opacity:1; fill:none" points="226.141,1133.08 245.038,1133.08 "/>
<polyline clip-path="url(#clip090)" style="stroke:#000000; stroke-linecap:round; stroke-linejoin:round; stroke-width:4; stroke-opacity:1; fill:none" points="226.141,813.135 245.038,813.135 "/>
<polyline clip-path="url(#clip090)" style="stroke:#000000; stroke-linecap:round; stroke-linejoin:round; stroke-width:4; stroke-opacity:1; fill:none" points="226.141,493.195 245.038,493.195 "/>
<polyline clip-path="url(#clip090)" style="stroke:#000000; stroke-linecap:round; stroke-linejoin:round; stroke-width:4; stroke-opacity:1; fill:none" points="226.141,173.254 245.038,173.254 "/>
<path clip-path="url(#clip090)" d="M128.159 1438.82 Q124.548 1438.82 122.719 1442.38 Q120.913 1445.92 120.913 1453.05 Q120.913 1460.16 122.719 1463.72 Q124.548 1467.26 128.159 1467.26 Q131.793 1467.26 133.599 1463.72 Q135.427 1460.16 135.427 1453.05 Q135.427 1445.92 133.599 1442.38 Q131.793 1438.82 128.159 1438.82 M128.159 1435.11 Q133.969 1435.11 137.025 1439.72 Q140.103 1444.3 140.103 1453.05 Q140.103 1461.78 137.025 1466.38 Q133.969 1470.97 128.159 1470.97 Q122.349 1470.97 119.27 1466.38 Q116.214 1461.78 116.214 1453.05 Q116.214 1444.3 119.27 1439.72 Q122.349 1435.11 128.159 1435.11 Z" fill="#000000" fill-rule="nonzero" fill-opacity="1" /><path clip-path="url(#clip090)" d="M148.321 1464.42 L153.205 1464.42 L153.205 1470.3 L148.321 1470.3 L148.321 1464.42 Z" fill="#000000" fill-rule="nonzero" fill-opacity="1" /><path clip-path="url(#clip090)" d="M176.237 1439.81 L164.432 1458.26 L176.237 1458.26 L176.237 1439.81 M175.01 1435.74 L180.89 1435.74 L180.89 1458.26 L185.821 1458.26 L185.821 1462.15 L180.89 1462.15 L180.89 1470.3 L176.237 1470.3 L176.237 1462.15 L160.636 1462.15 L160.636 1457.63 L175.01 1435.74 Z" fill="#000000" fill-rule="nonzero" fill-opacity="1" /><path clip-path="url(#clip090)" d="M128.483 1118.87 Q124.872 1118.87 123.043 1122.44 Q121.238 1125.98 121.238 1133.11 Q121.238 1140.22 123.043 1143.78 Q124.872 1147.32 128.483 1147.32 Q132.117 1147.32 133.923 1143.78 Q135.751 1140.22 135.751 1133.11 Q135.751 1125.98 133.923 1122.44 Q132.117 1118.87 128.483 1118.87 M128.483 1115.17 Q134.293 1115.17 137.349 1119.78 Q140.427 1124.36 140.427 1133.11 Q140.427 1141.84 137.349 1146.44 Q134.293 1151.03 128.483 1151.03 Q122.673 1151.03 119.594 1146.44 Q116.539 1141.84 116.539 1133.11 Q116.539 1124.36 119.594 1119.78 Q122.673 1115.17 128.483 1115.17 Z" fill="#000000" fill-rule="nonzero" fill-opacity="1" /><path clip-path="url(#clip090)" d="M148.645 1144.48 L153.529 1144.48 L153.529 1150.36 L148.645 1150.36 L148.645 1144.48 Z" fill="#000000" fill-rule="nonzero" fill-opacity="1" /><path clip-path="url(#clip090)" d="M174.293 1131.21 Q171.145 1131.21 169.293 1133.37 Q167.464 1135.52 167.464 1139.27 Q167.464 1143 169.293 1145.17 Q171.145 1147.32 174.293 1147.32 Q177.441 1147.32 179.27 1145.17 Q181.122 1143 181.122 1139.27 Q181.122 1135.52 179.27 1133.37 Q177.441 1131.21 174.293 1131.21 M183.575 1116.56 L183.575 1120.82 Q181.816 1119.99 180.01 1119.55 Q178.228 1119.11 176.469 1119.11 Q171.839 1119.11 169.385 1122.23 Q166.955 1125.36 166.608 1131.68 Q167.973 1129.66 170.034 1128.6 Q172.094 1127.51 174.571 1127.51 Q179.779 1127.51 182.788 1130.68 Q185.821 1133.83 185.821 1139.27 Q185.821 1144.59 182.672 1147.81 Q179.524 1151.03 174.293 1151.03 Q168.297 1151.03 165.126 1146.44 Q161.955 1141.84 161.955 1133.11 Q161.955 1124.92 165.844 1120.06 Q169.733 1115.17 176.284 1115.17 Q178.043 1115.17 179.825 1115.52 Q181.631 1115.87 183.575 1116.56 Z" fill="#000000" fill-rule="nonzero" fill-opacity="1" /><path clip-path="url(#clip090)" d="M128.738 798.934 Q125.126 798.934 123.298 802.499 Q121.492 806.041 121.492 813.17 Q121.492 820.277 123.298 823.841 Q125.126 827.383 128.738 827.383 Q132.372 827.383 134.177 823.841 Q136.006 820.277 136.006 813.17 Q136.006 806.041 134.177 802.499 Q132.372 798.934 128.738 798.934 M128.738 795.231 Q134.548 795.231 137.603 799.837 Q140.682 804.42 140.682 813.17 Q140.682 821.897 137.603 826.503 Q134.548 831.087 128.738 831.087 Q122.927 831.087 119.849 826.503 Q116.793 821.897 116.793 813.17 Q116.793 804.42 119.849 799.837 Q122.927 795.231 128.738 795.231 Z" fill="#000000" fill-rule="nonzero" fill-opacity="1" /><path clip-path="url(#clip090)" d="M148.899 824.536 L153.784 824.536 L153.784 830.415 L148.899 830.415 L148.899 824.536 Z" fill="#000000" fill-rule="nonzero" fill-opacity="1" /><path clip-path="url(#clip090)" d="M173.969 814.004 Q170.635 814.004 168.714 815.786 Q166.816 817.568 166.816 820.693 Q166.816 823.818 168.714 825.601 Q170.635 827.383 173.969 827.383 Q177.302 827.383 179.223 825.601 Q181.145 823.795 181.145 820.693 Q181.145 817.568 179.223 815.786 Q177.325 814.004 173.969 814.004 M169.293 812.013 Q166.284 811.272 164.594 809.212 Q162.927 807.152 162.927 804.189 Q162.927 800.045 165.867 797.638 Q168.83 795.231 173.969 795.231 Q179.131 795.231 182.071 797.638 Q185.01 800.045 185.01 804.189 Q185.01 807.152 183.321 809.212 Q181.654 811.272 178.668 812.013 Q182.047 812.8 183.922 815.092 Q185.821 817.383 185.821 820.693 Q185.821 825.716 182.742 828.402 Q179.686 831.087 173.969 831.087 Q168.251 831.087 165.173 828.402 Q162.117 825.716 162.117 820.693 Q162.117 817.383 164.015 815.092 Q165.913 812.8 169.293 812.013 M167.58 804.629 Q167.58 807.314 169.247 808.818 Q170.936 810.323 173.969 810.323 Q176.978 810.323 178.668 808.818 Q180.381 807.314 180.381 804.629 Q180.381 801.943 178.668 800.439 Q176.978 798.934 173.969 798.934 Q170.936 798.934 169.247 800.439 Q167.58 801.943 167.58 804.629 Z" fill="#000000" fill-rule="nonzero" fill-opacity="1" /><path clip-path="url(#clip090)" d="M119.455 506.54 L127.094 506.54 L127.094 480.174 L118.784 481.841 L118.784 477.581 L127.048 475.915 L131.724 475.915 L131.724 506.54 L139.362 506.54 L139.362 510.475 L119.455 510.475 L119.455 506.54 Z" fill="#000000" fill-rule="nonzero" fill-opacity="1" /><path clip-path="url(#clip090)" d="M148.807 504.595 L153.691 504.595 L153.691 510.475 L148.807 510.475 L148.807 504.595 Z" fill="#000000" fill-rule="nonzero" fill-opacity="1" /><path clip-path="url(#clip090)" d="M173.876 478.994 Q170.265 478.994 168.436 482.558 Q166.631 486.1 166.631 493.23 Q166.631 500.336 168.436 503.901 Q170.265 507.442 173.876 507.442 Q177.51 507.442 179.316 503.901 Q181.145 500.336 181.145 493.23 Q181.145 486.1 179.316 482.558 Q177.51 478.994 173.876 478.994 M173.876 475.29 Q179.686 475.29 182.742 479.896 Q185.821 484.48 185.821 493.23 Q185.821 501.956 182.742 506.563 Q179.686 511.146 173.876 511.146 Q168.066 511.146 164.987 506.563 Q161.932 501.956 161.932 493.23 Q161.932 484.48 164.987 479.896 Q168.066 475.29 173.876 475.29 Z" fill="#000000" fill-rule="nonzero" fill-opacity="1" /><path clip-path="url(#clip090)" d="M121.052 186.599 L128.691 186.599 L128.691 160.233 L120.381 161.9 L120.381 157.641 L128.645 155.974 L133.321 155.974 L133.321 186.599 L140.96 186.599 L140.96 190.534 L121.052 190.534 L121.052 186.599 Z" fill="#000000" fill-rule="nonzero" fill-opacity="1" /><path clip-path="url(#clip090)" d="M150.404 184.655 L155.288 184.655 L155.288 190.534 L150.404 190.534 L150.404 184.655 Z" fill="#000000" fill-rule="nonzero" fill-opacity="1" /><path clip-path="url(#clip090)" d="M169.501 186.599 L185.821 186.599 L185.821 190.534 L163.876 190.534 L163.876 186.599 Q166.538 183.844 171.122 179.215 Q175.728 174.562 176.909 173.219 Q179.154 170.696 180.034 168.96 Q180.936 167.201 180.936 165.511 Q180.936 162.757 178.992 161.02 Q177.071 159.284 173.969 159.284 Q171.77 159.284 169.316 160.048 Q166.885 160.812 164.108 162.363 L164.108 157.641 Q166.932 156.507 169.385 155.928 Q171.839 155.349 173.876 155.349 Q179.247 155.349 182.441 158.034 Q185.635 160.719 185.635 165.21 Q185.635 167.34 184.825 169.261 Q184.038 171.159 181.932 173.752 Q181.353 174.423 178.251 177.641 Q175.149 180.835 169.501 186.599 Z" fill="#000000" fill-rule="nonzero" fill-opacity="1" /><path clip-path="url(#clip090)" d="M43.4007 970.979 Q37.035 970.979 33.5338 973.621 Q30.0327 976.231 30.0327 980.973 Q30.0327 985.684 33.5338 988.325 Q37.035 990.935 43.4007 990.935 Q49.7346 990.935 53.2357 988.325 Q56.7368 985.684 56.7368 980.973 Q56.7368 976.231 53.2357 973.621 Q49.7346 970.979 43.4007 970.979 M57.2143 965.122 Q66.3172 965.122 70.7414 969.165 Q75.1974 973.207 75.1974 981.546 Q75.1974 984.633 74.72 987.371 Q74.2744 990.108 73.3195 992.686 L67.6222 992.686 Q69.0227 990.108 69.6911 987.593 Q70.3595 985.079 70.3595 982.469 Q70.3595 976.708 67.3358 973.844 Q64.3439 970.979 58.2646 970.979 L55.3682 970.979 Q58.5192 972.793 60.0788 975.626 Q61.6384 978.459 61.6384 982.405 Q61.6384 988.962 56.6414 992.972 Q51.6443 996.983 43.4007 996.983 Q35.1253 996.983 30.1282 992.972 Q25.1311 988.962 25.1311 982.405 Q25.1311 978.459 26.6907 975.626 Q28.2503 972.793 31.4013 970.979 L25.9905 970.979 L25.9905 965.122 L57.2143 965.122 Z" fill="#000000" fill-rule="nonzero" fill-opacity="1" /><path clip-path="url(#clip090)" d="M12.1769 938.991 Q19.4975 943.256 26.6589 945.325 Q33.8203 947.394 41.1727 947.394 Q48.5251 947.394 55.7502 945.325 Q62.9434 943.224 70.2321 938.991 L70.2321 944.084 Q62.7524 948.858 55.5274 951.245 Q48.3023 953.601 41.1727 953.601 Q34.0749 953.601 26.8817 951.245 Q19.6884 948.89 12.1769 944.084 L12.1769 938.991 Z" fill="#000000" fill-rule="nonzero" fill-opacity="1" /><path clip-path="url(#clip090)" d="M14.1184 927.374 L14.1184 920.944 L33.5975 920.944 L33.5975 897.582 L14.1184 897.582 L14.1184 891.153 L61.6384 891.153 L61.6384 897.582 L39.0084 897.582 L39.0084 920.944 L61.6384 920.944 L61.6384 927.374 L14.1184 927.374 Z" fill="#000000" fill-rule="nonzero" fill-opacity="1" /><path clip-path="url(#clip090)" d="M12.1769 879.536 L12.1769 874.443 Q19.6884 869.669 26.8817 867.313 Q34.0749 864.926 41.1727 864.926 Q48.3023 864.926 55.5274 867.313 Q62.7524 869.669 70.2321 874.443 L70.2321 879.536 Q62.9434 875.302 55.7502 873.234 Q48.5251 871.133 41.1727 871.133 Q33.8203 871.133 26.6589 873.234 Q19.4975 875.302 12.1769 879.536 Z" fill="#000000" fill-rule="nonzero" fill-opacity="1" /><path clip-path="url(#clip090)" d="M1013.94 12.096 L1048.69 12.096 L1048.69 18.9825 L1022.12 18.9825 L1022.12 36.8065 L1046.1 36.8065 L1046.1 43.6931 L1022.12 43.6931 L1022.12 72.576 L1013.94 72.576 L1013.94 12.096 Z" fill="#000000" fill-rule="nonzero" fill-opacity="1" /><path clip-path="url(#clip090)" d="M1056.03 54.671 L1056.03 27.2059 L1063.48 27.2059 L1063.48 54.3874 Q1063.48 60.8284 1065.99 64.0691 Q1068.5 67.2693 1073.53 67.2693 Q1079.56 67.2693 1083.05 63.421 Q1086.57 59.5726 1086.57 52.9291 L1086.57 27.2059 L1094.02 27.2059 L1094.02 72.576 L1086.57 72.576 L1086.57 65.6084 Q1083.86 69.7404 1080.25 71.7658 Q1076.69 73.7508 1071.95 73.7508 Q1064.13 73.7508 1060.08 68.8897 Q1056.03 64.0286 1056.03 54.671 M1074.78 26.1121 L1074.78 26.1121 Z" fill="#000000" fill-rule="nonzero" fill-opacity="1" /><path clip-path="url(#clip090)" d="M1147.09 45.1919 L1147.09 72.576 L1139.64 72.576 L1139.64 45.4349 Q1139.64 38.994 1137.12 35.7938 Q1134.61 32.5936 1129.59 32.5936 Q1123.55 32.5936 1120.07 36.4419 Q1116.59 40.2903 1116.59 46.9338 L1116.59 72.576 L1109.09 72.576 L1109.09 27.2059 L1116.59 27.2059 L1116.59 34.2544 Q1119.26 30.163 1122.87 28.1376 Q1126.51 26.1121 1131.25 26.1121 Q1139.07 26.1121 1143.08 30.9732 Q1147.09 35.7938 1147.09 45.1919 Z" fill="#000000" fill-rule="nonzero" fill-opacity="1" /><path clip-path="url(#clip090)" d="M1194.61 28.9478 L1194.61 35.9153 Q1191.45 34.1734 1188.25 33.3227 Q1185.09 32.4315 1181.85 32.4315 Q1174.6 32.4315 1170.59 37.0496 Q1166.57 41.6271 1166.57 49.9314 Q1166.57 58.2358 1170.59 62.8538 Q1174.6 67.4314 1181.85 67.4314 Q1185.09 67.4314 1188.25 66.5807 Q1191.45 65.6895 1194.61 63.9476 L1194.61 70.8341 Q1191.49 72.2924 1188.13 73.0216 Q1184.8 73.7508 1181.04 73.7508 Q1170.79 73.7508 1164.75 67.3098 Q1158.72 60.8689 1158.72 49.9314 Q1158.72 38.832 1164.79 32.472 Q1170.91 26.1121 1181.52 26.1121 Q1184.97 26.1121 1188.25 26.8413 Q1191.53 27.5299 1194.61 28.9478 Z" fill="#000000" fill-rule="nonzero" fill-opacity="1" /><path clip-path="url(#clip090)" d="M1214.94 14.324 L1214.94 27.2059 L1230.3 27.2059 L1230.3 32.9987 L1214.94 32.9987 L1214.94 57.6282 Q1214.94 63.1779 1216.44 64.7578 Q1217.98 66.3376 1222.64 66.3376 L1230.3 66.3376 L1230.3 72.576 L1222.64 72.576 Q1214.01 72.576 1210.73 69.3758 Q1207.45 66.1351 1207.45 57.6282 L1207.45 32.9987 L1201.98 32.9987 L1201.98 27.2059 L1207.45 27.2059 L1207.45 14.324 L1214.94 14.324 Z" fill="#000000" fill-rule="nonzero" fill-opacity="1" /><path clip-path="url(#clip090)" d="M1240.1 27.2059 L1247.55 27.2059 L1247.55 72.576 L1240.1 72.576 L1240.1 27.2059 M1240.1 9.54393 L1247.55 9.54393 L1247.55 18.9825 L1240.1 18.9825 L1240.1 9.54393 Z" fill="#000000" fill-rule="nonzero" fill-opacity="1" /><path clip-path="url(#clip090)" d="M1280.73 32.4315 Q1274.73 32.4315 1271.25 37.1306 Q1267.77 41.7891 1267.77 49.9314 Q1267.77 58.0738 1271.21 62.7728 Q1274.69 67.4314 1280.73 67.4314 Q1286.68 67.4314 1290.17 62.7323 Q1293.65 58.0333 1293.65 49.9314 Q1293.65 41.8701 1290.17 37.1711 Q1286.68 32.4315 1280.73 32.4315 M1280.73 26.1121 Q1290.45 26.1121 1296 32.4315 Q1301.55 38.7509 1301.55 49.9314 Q1301.55 61.0714 1296 67.4314 Q1290.45 73.7508 1280.73 73.7508 Q1270.97 73.7508 1265.42 67.4314 Q1259.91 61.0714 1259.91 49.9314 Q1259.91 38.7509 1265.42 32.4315 Q1270.97 26.1121 1280.73 26.1121 Z" fill="#000000" fill-rule="nonzero" fill-opacity="1" /><path clip-path="url(#clip090)" d="M1351.62 45.1919 L1351.62 72.576 L1344.17 72.576 L1344.17 45.4349 Q1344.17 38.994 1341.65 35.7938 Q1339.14 32.5936 1334.12 32.5936 Q1328.08 32.5936 1324.6 36.4419 Q1321.12 40.2903 1321.12 46.9338 L1321.12 72.576 L1313.62 72.576 L1313.62 27.2059 L1321.12 27.2059 L1321.12 34.2544 Q1323.79 30.163 1327.4 28.1376 Q1331.04 26.1121 1335.78 26.1121 Q1343.6 26.1121 1347.61 30.9732 Q1351.62 35.7938 1351.62 45.1919 Z" fill="#000000" fill-rule="nonzero" fill-opacity="1" /><path clip-path="url(#clip090)" d="M1387.11 49.7694 Q1378.07 49.7694 1374.59 51.8354 Q1371.1 53.9013 1371.1 58.8839 Q1371.1 62.8538 1373.7 65.2034 Q1376.33 67.5124 1380.83 67.5124 Q1387.02 67.5124 1390.75 63.1374 Q1394.52 58.7219 1394.52 51.4303 L1394.52 49.7694 L1387.11 49.7694 M1401.97 46.6907 L1401.97 72.576 L1394.52 72.576 L1394.52 65.6895 Q1391.97 69.8214 1388.16 71.8063 Q1384.35 73.7508 1378.84 73.7508 Q1371.87 73.7508 1367.74 69.8619 Q1363.65 65.9325 1363.65 59.3701 Q1363.65 51.7138 1368.76 47.825 Q1373.9 43.9361 1384.07 43.9361 L1394.52 43.9361 L1394.52 43.2069 Q1394.52 38.0623 1391.12 35.2672 Q1387.75 32.4315 1381.64 32.4315 Q1377.75 32.4315 1374.06 33.3632 Q1370.38 34.295 1366.97 36.1584 L1366.97 29.2718 Q1371.06 27.692 1374.91 26.9223 Q1378.76 26.1121 1382.41 26.1121 Q1392.25 26.1121 1397.11 31.2163 Q1401.97 36.3204 1401.97 46.6907 Z" fill="#000000" fill-rule="nonzero" fill-opacity="1" /><path clip-path="url(#clip090)" d="M1417.33 9.54393 L1424.78 9.54393 L1424.78 72.576 L1417.33 72.576 L1417.33 9.54393 Z" fill="#000000" fill-rule="nonzero" fill-opacity="1" /><path clip-path="url(#clip090)" d="M1495.75 44.2197 Q1498.38 45.1109 1500.86 48.0275 Q1503.37 50.9442 1505.88 56.0483 L1514.18 72.576 L1505.39 72.576 L1497.66 57.061 Q1494.66 50.9847 1491.82 48.9997 Q1489.03 47.0148 1484.17 47.0148 L1475.25 47.0148 L1475.25 72.576 L1467.07 72.576 L1467.07 12.096 L1485.54 12.096 Q1495.91 12.096 1501.02 16.4305 Q1506.12 20.7649 1506.12 29.5149 Q1506.12 35.2267 1503.45 38.994 Q1500.81 42.7613 1495.75 44.2197 M1475.25 18.8205 L1475.25 40.2903 L1485.54 40.2903 Q1491.46 40.2903 1494.45 37.5762 Q1497.49 34.8216 1497.49 29.5149 Q1497.49 24.2082 1494.45 21.5346 Q1491.46 18.8205 1485.54 18.8205 L1475.25 18.8205 Z" fill="#000000" fill-rule="nonzero" fill-opacity="1" /><path clip-path="url(#clip090)" d="M1559.47 48.0275 L1559.47 51.6733 L1525.2 51.6733 Q1525.69 59.3701 1529.82 63.421 Q1533.99 67.4314 1541.4 67.4314 Q1545.7 67.4314 1549.71 66.3781 Q1553.76 65.3249 1557.73 63.2184 L1557.73 70.267 Q1553.72 71.9684 1549.51 72.8596 Q1545.29 73.7508 1540.96 73.7508 Q1530.1 73.7508 1523.74 67.4314 Q1517.42 61.1119 1517.42 50.3365 Q1517.42 39.1965 1523.42 32.6746 Q1529.45 26.1121 1539.66 26.1121 Q1548.82 26.1121 1554.12 32.0264 Q1559.47 37.9003 1559.47 48.0275 M1552.02 45.84 Q1551.94 39.7232 1548.57 36.0774 Q1545.25 32.4315 1539.74 32.4315 Q1533.51 32.4315 1529.74 35.9558 Q1526.01 39.4801 1525.44 45.8805 L1552.02 45.84 Z" fill="#000000" fill-rule="nonzero" fill-opacity="1" /><path clip-path="url(#clip090)" d="M1600.63 28.5427 L1600.63 35.5912 Q1597.47 33.9709 1594.07 33.1607 Q1590.66 32.3505 1587.02 32.3505 Q1581.47 32.3505 1578.67 34.0519 Q1575.92 35.7533 1575.92 39.156 Q1575.92 41.7486 1577.9 43.2475 Q1579.89 44.7058 1585.88 46.0426 L1588.44 46.6097 Q1596.38 48.3111 1599.7 51.4303 Q1603.06 54.509 1603.06 60.0587 Q1603.06 66.3781 1598.04 70.0644 Q1593.05 73.7508 1584.3 73.7508 Q1580.66 73.7508 1576.69 73.0216 Q1572.76 72.3329 1568.38 70.9151 L1568.38 63.2184 Q1572.52 65.3654 1576.53 66.4591 Q1580.54 67.5124 1584.47 67.5124 Q1589.73 67.5124 1592.57 65.73 Q1595.4 63.9071 1595.4 60.6258 Q1595.4 57.5877 1593.34 55.9673 Q1591.31 54.3469 1584.38 52.8481 L1581.79 52.2405 Q1574.87 50.7821 1571.79 47.7845 Q1568.71 44.7463 1568.71 39.4801 Q1568.71 33.0797 1573.24 29.5959 Q1577.78 26.1121 1586.13 26.1121 Q1590.26 26.1121 1593.9 26.7198 Q1597.55 27.3274 1600.63 28.5427 Z" fill="#000000" fill-rule="nonzero" fill-opacity="1" /><path clip-path="url(#clip090)" d="M1622.14 65.7705 L1622.14 89.8329 L1614.65 89.8329 L1614.65 27.2059 L1622.14 27.2059 L1622.14 34.0924 Q1624.49 30.0415 1628.05 28.0971 Q1631.66 26.1121 1636.64 26.1121 Q1644.91 26.1121 1650.05 32.6746 Q1655.24 39.2371 1655.24 49.9314 Q1655.24 60.6258 1650.05 67.1883 Q1644.91 73.7508 1636.64 73.7508 Q1631.66 73.7508 1628.05 71.8063 Q1624.49 69.8214 1622.14 65.7705 M1647.5 49.9314 Q1647.5 41.7081 1644.1 37.0496 Q1640.73 32.3505 1634.82 32.3505 Q1628.9 32.3505 1625.5 37.0496 Q1622.14 41.7081 1622.14 49.9314 Q1622.14 58.1548 1625.5 62.8538 Q1628.9 67.5124 1634.82 67.5124 Q1640.73 67.5124 1644.1 62.8538 Q1647.5 58.1548 1647.5 49.9314 Z" fill="#000000" fill-rule="nonzero" fill-opacity="1" /><path clip-path="url(#clip090)" d="M1685.17 32.4315 Q1679.18 32.4315 1675.69 37.1306 Q1672.21 41.7891 1672.21 49.9314 Q1672.21 58.0738 1675.65 62.7728 Q1679.14 67.4314 1685.17 67.4314 Q1691.13 67.4314 1694.61 62.7323 Q1698.09 58.0333 1698.09 49.9314 Q1698.09 41.8701 1694.61 37.1711 Q1691.13 32.4315 1685.17 32.4315 M1685.17 26.1121 Q1694.89 26.1121 1700.44 32.4315 Q1705.99 38.7509 1705.99 49.9314 Q1705.99 61.0714 1700.44 67.4314 Q1694.89 73.7508 1685.17 73.7508 Q1675.41 73.7508 1669.86 67.4314 Q1664.35 61.0714 1664.35 49.9314 Q1664.35 38.7509 1669.86 32.4315 Q1675.41 26.1121 1685.17 26.1121 Z" fill="#000000" fill-rule="nonzero" fill-opacity="1" /><path clip-path="url(#clip090)" d="M1756.06 45.1919 L1756.06 72.576 L1748.61 72.576 L1748.61 45.4349 Q1748.61 38.994 1746.1 35.7938 Q1743.59 32.5936 1738.56 32.5936 Q1732.53 32.5936 1729.04 36.4419 Q1725.56 40.2903 1725.56 46.9338 L1725.56 72.576 L1718.06 72.576 L1718.06 27.2059 L1725.56 27.2059 L1725.56 34.2544 Q1728.23 30.163 1731.84 28.1376 Q1735.48 26.1121 1740.22 26.1121 Q1748.04 26.1121 1752.05 30.9732 Q1756.06 35.7938 1756.06 45.1919 Z" fill="#000000" fill-rule="nonzero" fill-opacity="1" /><path clip-path="url(#clip090)" d="M1799.85 28.5427 L1799.85 35.5912 Q1796.69 33.9709 1793.29 33.1607 Q1789.89 32.3505 1786.24 32.3505 Q1780.69 32.3505 1777.9 34.0519 Q1775.14 35.7533 1775.14 39.156 Q1775.14 41.7486 1777.13 43.2475 Q1779.11 44.7058 1785.11 46.0426 L1787.66 46.6097 Q1795.6 48.3111 1798.92 51.4303 Q1802.28 54.509 1802.28 60.0587 Q1802.28 66.3781 1797.26 70.0644 Q1792.28 73.7508 1783.53 73.7508 Q1779.88 73.7508 1775.91 73.0216 Q1771.98 72.3329 1767.61 70.9151 L1767.61 63.2184 Q1771.74 65.3654 1775.75 66.4591 Q1779.76 67.5124 1783.69 67.5124 Q1788.96 67.5124 1791.79 65.73 Q1794.63 63.9071 1794.63 60.6258 Q1794.63 57.5877 1792.56 55.9673 Q1790.54 54.3469 1783.61 52.8481 L1781.02 52.2405 Q1774.09 50.7821 1771.01 47.7845 Q1767.93 44.7463 1767.93 39.4801 Q1767.93 33.0797 1772.47 29.5959 Q1777.01 26.1121 1785.35 26.1121 Q1789.48 26.1121 1793.13 26.7198 Q1796.77 27.3274 1799.85 28.5427 Z" fill="#000000" fill-rule="nonzero" fill-opacity="1" /><path clip-path="url(#clip090)" d="M1852.96 48.0275 L1852.96 51.6733 L1818.69 51.6733 Q1819.18 59.3701 1823.31 63.421 Q1827.48 67.4314 1834.89 67.4314 Q1839.19 67.4314 1843.2 66.3781 Q1847.25 65.3249 1851.22 63.2184 L1851.22 70.267 Q1847.21 71.9684 1842.99 72.8596 Q1838.78 73.7508 1834.45 73.7508 Q1823.59 73.7508 1817.23 67.4314 Q1810.91 61.1119 1810.91 50.3365 Q1810.91 39.1965 1816.91 32.6746 Q1822.94 26.1121 1833.15 26.1121 Q1842.31 26.1121 1847.61 32.0264 Q1852.96 37.9003 1852.96 48.0275 M1845.51 45.84 Q1845.43 39.7232 1842.06 36.0774 Q1838.74 32.4315 1833.23 32.4315 Q1826.99 32.4315 1823.23 35.9558 Q1819.5 39.4801 1818.93 45.8805 L1845.51 45.84 Z" fill="#000000" fill-rule="nonzero" fill-opacity="1" /><polyline clip-path="url(#clip091)" style="stroke:#000000; stroke-linecap:round; stroke-linejoin:round; stroke-width:12; stroke-opacity:1; fill:none" stroke-dasharray="48, 30" points="294.479,1675.58 305.926,1659.27 317.373,1643.14 328.82,1627.21 340.266,1611.45 351.713,1595.88 363.16,1580.48 374.607,1565.26 386.054,1550.21 397.501,1535.33 408.948,1520.61 420.395,1506.06 431.842,1491.66 443.289,1477.43 454.736,1463.35 466.183,1449.42 477.63,1435.64 489.077,1422.01 500.523,1408.53 511.97,1395.19 523.417,1381.99 534.864,1368.93 546.311,1356 557.758,1343.21 569.205,1330.55 580.652,1318.02 592.099,1305.62 603.546,1293.35 614.993,1281.2 626.44,1269.17 637.887,1257.26 649.334,1245.47 660.78,1233.8 672.227,1222.25 683.674,1210.81 695.121,1199.47 706.568,1188.25 718.015,1177.14 729.462,1166.14 740.909,1155.24 752.356,1144.44 763.803,1133.75 775.25,1123.16 786.697,1112.67 798.144,1102.28 809.591,1091.98 821.037,1081.78 832.484,1071.67 843.931,1061.66 855.378,1051.74 866.825,1041.9 878.272,1032.16 889.719,1022.51 901.166,1012.94 912.613,1003.46 924.06,994.059 935.507,984.744 946.954,975.512 958.401,966.361 969.848,957.29 981.295,948.298 992.741,939.385 1004.19,930.548 1015.64,921.787 1027.08,913.101 1038.53,904.489 1049.98,895.951 1061.42,887.484 1072.87,879.089 1084.32,870.765 1095.76,862.509 1107.21,854.323 1118.66,846.204 1130.1,838.152 1141.55,830.167 1153,822.246 1164.45,814.39 1175.89,806.598 1187.34,798.869 1198.79,791.202 1210.23,783.597 1221.68,776.052 1233.13,768.567 1244.57,761.142 1256.02,753.775 1267.47,746.466 1278.91,739.214 1290.36,732.019 1301.81,724.879 1313.26,717.795 1324.7,710.765 1336.15,703.79 1347.6,696.868 1359.04,689.998 1370.49,683.181 1381.94,676.415 1393.38,669.7 1404.83,663.035 1416.28,656.421 1427.72,649.855 1439.17,643.339 1450.62,636.87 1462.07,630.449 1473.51,624.076 1484.96,617.749 1496.41,611.468 1507.85,605.232 1519.3,599.042 1530.75,592.896 1542.19,586.794 1553.64,580.737 1565.09,574.722 1576.53,568.75 1587.98,562.82 1599.43,556.932 1610.88,551.086 1622.32,545.28 1633.77,539.515 1645.22,533.79 1656.66,528.105 1668.11,522.459 1679.56,516.852 1691,511.283 1702.45,505.753 1713.9,500.26 1725.34,494.804 1736.79,489.386 1748.24,484.003 1759.69,478.657 1771.13,473.347 1782.58,468.073 1794.03,462.833 1805.47,457.628 1816.92,452.458 1828.37,447.322 1839.81,442.219 1851.26,437.15 1862.71,432.114 1874.16,427.11 1885.6,422.14 1897.05,417.201 1908.5,412.294 1919.94,407.418 1931.39,402.574 1942.84,397.761 1954.28,392.978 1965.73,388.225 1977.18,383.503 1988.62,378.81 2000.07,374.147 2011.52,369.513 2022.97,364.908 2034.41,360.332 2045.86,355.783 2057.31,351.264 2068.75,346.771 2080.2,342.307 2091.65,337.87 2103.09,333.46 2114.54,329.076 2125.99,324.72 2137.43,320.39 2148.88,316.085 2160.33,311.807 2171.78,307.555 2183.22,303.327 2194.67,299.126 2206.12,294.949 2217.56,290.796 2229.01,286.669 2240.46,282.565 2251.9,278.486 2263.35,274.43 2274.8,270.399 2286.24,266.391 2297.69,262.406 2309.14,258.444 2320.59,254.505 2332.03,250.588 2343.48,246.694 2354.93,242.823 2366.37,238.973 2377.82,235.146 2389.27,231.34 2400.71,227.555 2412.16,223.792 2423.61,220.05 2435.05,216.329 2446.5,212.629 2457.95,208.95 2469.4,205.291 2480.84,201.652 2492.29,198.034 2503.74,194.435 2515.18,190.857 2526.63,187.297 2538.08,183.758 2549.52,180.237 2560.97,176.736 2572.42,173.254 "/>
<polyline clip-path="url(#clip091)" style="stroke:#008080; stroke-linecap:round; stroke-linejoin:round; stroke-width:8; stroke-opacity:1; fill:none" points="294.479,1550.9 305.926,1541.89 317.373,1532.85 328.82,1523.78 340.266,1514.66 351.713,1505.46 363.16,1496.18 374.607,1486.79 386.054,1477.27 397.501,1467.62 408.948,1457.8 420.395,1447.8 431.842,1437.61 443.289,1427.2 454.736,1416.56 466.183,1405.67 477.63,1394.51 489.077,1383.07 500.523,1371.33 511.97,1359.26 523.417,1346.86 534.864,1334.1 546.311,1320.96 557.758,1307.45 569.205,1293.62 580.652,1279.56 592.099,1265.36 603.546,1251.12 614.993,1236.91 626.44,1222.83 637.887,1208.96 649.334,1195.4 660.78,1182.23 672.227,1169.53 683.674,1157.41 695.121,1145.95 706.568,1135.23 718.015,1125.35 729.462,1116.39 740.909,1108.44 752.356,1101.59 763.803,1095.93 775.25,1091.54 786.697,1088.52 798.144,1086.95 809.591,1086.91 821.037,1088.27 832.484,1090.85 843.931,1094.45 855.378,1098.88 866.825,1103.93 878.272,1109.43 889.719,1115.16 901.166,1120.95 912.613,1126.58 924.06,1131.88 935.507,1136.64 946.954,1140.66 958.401,1143.76 969.848,1145.74 981.295,1146.41 992.741,1145.56 1004.19,1143.01 1015.64,1138.56 1027.08,1132.01 1038.53,1123.18 1049.98,1111.86 1061.42,1097.89 1072.87,1081.33 1084.32,1062.43 1095.76,1041.41 1107.21,1018.53 1118.66,994.019 1130.1,968.112 1141.55,941.049 1153,913.068 1164.45,884.408 1175.89,855.307 1187.34,826.002 1198.79,796.732 1210.23,767.735 1221.68,739.249 1233.13,711.513 1244.57,684.764 1256.02,659.24 1267.47,635.18 1278.91,612.822 1290.36,592.404 1301.81,574.163 1313.26,558.328 1324.7,544.929 1336.15,533.824 1347.6,524.868 1359.04,517.914 1370.49,512.818 1381.94,509.433 1393.38,507.612 1404.83,507.21 1416.28,508.081 1427.72,510.079 1439.17,513.058 1450.62,516.871 1462.07,521.374 1473.51,526.419 1484.96,531.861 1496.41,537.553 1507.85,543.351 1519.3,549.107 1530.75,554.676 1542.19,559.912 1553.64,564.668 1565.09,568.801 1576.53,572.234 1587.98,574.963 1599.43,576.992 1610.88,578.323 1622.32,578.958 1633.77,578.9 1645.22,578.151 1656.66,576.714 1668.11,574.591 1679.56,571.784 1691,568.296 1702.45,564.129 1713.9,559.285 1725.34,553.768 1736.79,547.579 1748.24,540.721 1759.69,533.196 1771.13,525.007 1782.58,516.155 1794.03,506.645 1805.47,496.477 1816.92,485.655 1828.37,474.222 1839.81,462.284 1851.26,449.952 1862.71,437.336 1874.16,424.548 1885.6,411.697 1897.05,398.897 1908.5,386.256 1919.94,373.886 1931.39,361.898 1942.84,350.403 1954.28,339.511 1965.73,329.334 1977.18,319.982 1988.62,311.567 2000.07,304.199 2011.52,297.988 2022.97,293.047 2034.41,289.486 2045.86,287.416 2057.31,286.947 2068.75,288.19 2080.2,291.19 2091.65,295.851 2103.09,302.06 2114.54,309.706 2125.99,318.676 2137.43,328.858 2148.88,340.138 2160.33,352.405 2171.78,365.546 2183.22,379.448 2194.67,393.999 2206.12,409.087 2217.56,424.599 2229.01,440.423 2240.46,456.445 2251.9,472.555 2263.35,488.638 2274.8,504.584 2286.24,520.278 2297.69,535.609 2309.14,550.465 2320.59,564.732 2332.03,578.331 2343.48,591.277 2354.93,603.601 2366.37,615.333 2377.82,626.505 2389.27,637.147 2400.71,647.292 2412.16,656.97 2423.61,666.212 2435.05,675.05 2446.5,683.514 2457.95,691.635 2469.4,699.446 2480.84,706.976 2492.29,714.257 2503.74,721.321 2515.18,728.198 2526.63,734.919 2538.08,741.515 2549.52,748.019 2560.97,754.46 2572.42,760.87 "/>
<polyline clip-path="url(#clip091)" style="stroke:#ff7f50; stroke-linecap:round; stroke-linejoin:round; stroke-width:8; stroke-opacity:1; fill:none" points="294.479,1420.13 305.926,1414.71 317.373,1409.29 328.82,1403.87 340.266,1398.45 351.713,1393.03 363.16,1387.61 374.607,1382.19 386.054,1376.77 397.501,1371.35 408.948,1365.92 420.395,1360.5 431.842,1355.08 443.289,1349.65 454.736,1344.23 466.183,1338.8 477.63,1333.38 489.077,1327.95 500.523,1322.52 511.97,1317.09 523.417,1311.66 534.864,1306.23 546.311,1300.79 557.758,1295.36 569.205,1289.92 580.652,1284.49 592.099,1279.04 603.546,1273.6 614.993,1268.14 626.44,1262.69 637.887,1257.22 649.334,1251.75 660.78,1246.27 672.227,1240.78 683.674,1235.28 695.121,1229.77 706.568,1224.25 718.015,1218.72 729.462,1213.17 740.909,1207.61 752.356,1202.03 763.803,1196.44 775.25,1190.84 786.697,1185.21 798.144,1179.57 809.591,1173.91 821.037,1168.21 832.484,1162.46 843.931,1156.63 855.378,1150.71 866.825,1144.67 878.272,1138.5 889.719,1132.17 901.166,1125.66 912.613,1118.96 924.06,1112.04 935.507,1104.88 946.954,1097.46 958.401,1089.77 969.848,1081.78 981.295,1073.47 992.741,1064.82 1004.19,1055.81 1015.64,1046.42 1027.08,1036.63 1038.53,1026.42 1049.98,1015.77 1061.42,1004.66 1072.87,993.113 1084.32,981.164 1095.76,968.854 1107.21,956.222 1118.66,943.31 1130.1,930.156 1141.55,916.801 1153,903.285 1164.45,889.647 1175.89,875.928 1187.34,862.167 1198.79,848.404 1210.23,834.68 1221.68,821.034 1233.13,807.505 1244.57,794.135 1256.02,780.963 1267.47,768.029 1278.91,755.373 1290.36,743.035 1301.81,731.054 1313.26,719.469 1324.7,708.295 1336.15,697.521 1347.6,687.141 1359.04,677.144 1370.49,667.523 1381.94,658.268 1393.38,649.37 1404.83,640.82 1416.28,632.61 1427.72,624.731 1439.17,617.174 1450.62,609.93 1462.07,602.99 1473.51,596.346 1484.96,589.988 1496.41,583.907 1507.85,578.096 1519.3,572.544 1530.75,567.243 1542.19,562.185 1553.64,557.36 1565.09,552.759 1576.53,548.373 1587.98,544.192 1599.43,540.205 1610.88,536.401 1622.32,532.769 1633.77,529.301 1645.22,525.984 1656.66,522.808 1668.11,519.763 1679.56,516.838 1691,514.024 1702.45,511.308 1713.9,508.681 1725.34,506.132 1736.79,503.652 1748.24,501.228 1759.69,498.851 1771.13,496.51 1782.58,494.195 1794.03,491.895 1805.47,489.599 1816.92,487.298 1828.37,484.986 1839.81,482.666 1851.26,480.341 1862.71,478.016 1874.16,475.693 1885.6,473.377 1897.05,471.071 1908.5,468.779 1919.94,466.504 1931.39,464.25 1942.84,462.021 1954.28,459.82 1965.73,457.651 1977.18,455.518 1988.62,453.424 2000.07,451.372 2011.52,449.367 2022.97,447.412 2034.41,445.511 2045.86,443.667 2057.31,441.884 2068.75,440.166 2080.2,438.514 2091.65,436.924 2103.09,435.394 2114.54,433.919 2125.99,432.495 2137.43,431.119 2148.88,429.786 2160.33,428.494 2171.78,427.238 2183.22,426.015 2194.67,424.82 2206.12,423.65 2217.56,422.502 2229.01,421.37 2240.46,420.253 2251.9,419.145 2263.35,418.043 2274.8,416.943 2286.24,415.841 2297.69,414.735 2309.14,413.619 2320.59,412.49 2332.03,411.345 2343.48,410.185 2354.93,409.01 2366.37,407.821 2377.82,406.618 2389.27,405.404 2400.71,404.177 2412.16,402.939 2423.61,401.691 2435.05,400.433 2446.5,399.167 2457.95,397.892 2469.4,396.61 2480.84,395.321 2492.29,394.027 2503.74,392.727 2515.18,391.422 2526.63,390.115 2538.08,388.804 2549.52,387.491 2560.97,386.176 2572.42,384.861 "/>
<polyline clip-path="url(#clip091)" style="stroke:#800080; stroke-linecap:round; stroke-linejoin:round; stroke-width:8; stroke-opacity:1; fill:none" points="294.479,1688.65 305.926,1672.41 317.373,1656.18 328.82,1639.97 340.266,1623.79 351.713,1607.64 363.16,1591.54 374.607,1575.51 386.054,1559.54 397.501,1543.64 408.948,1527.84 420.395,1512.12 431.842,1496.52 443.289,1481.03 454.736,1465.67 466.183,1450.44 477.63,1435.36 489.077,1420.43 500.523,1405.67 511.97,1391.08 523.417,1376.67 534.864,1362.46 546.311,1348.45 557.758,1334.65 569.205,1321.06 580.652,1307.68 592.099,1294.51 603.546,1281.54 614.993,1268.77 626.44,1256.19 637.887,1243.82 649.334,1231.63 660.78,1219.63 672.227,1207.82 683.674,1196.19 695.121,1184.74 706.568,1173.47 718.015,1162.38 729.462,1151.46 740.909,1140.71 752.356,1130.12 763.803,1119.7 775.25,1109.44 786.697,1099.35 798.144,1089.4 809.591,1079.61 821.037,1069.97 832.484,1060.46 843.931,1051.09 855.378,1041.84 866.825,1032.71 878.272,1023.69 889.719,1014.76 901.166,1005.93 912.613,997.191 924.06,988.526 935.507,979.933 946.954,971.402 958.401,962.927 969.848,954.5 981.295,946.113 992.741,937.759 1004.19,929.43 1015.64,921.118 1027.08,912.817 1038.53,904.517 1049.98,896.213 1061.42,887.896 1072.87,879.568 1084.32,871.233 1095.76,862.896 1107.21,854.565 1118.66,846.242 1130.1,837.935 1141.55,829.648 1153,821.387 1164.45,813.157 1175.89,804.964 1187.34,796.812 1198.79,788.708 1210.23,780.656 1221.68,772.663 1233.13,764.732 1244.57,756.871 1256.02,749.083 1267.47,741.375 1278.91,733.752 1290.36,726.219 1301.81,718.781 1313.26,711.445 1324.7,704.208 1336.15,697.068 1347.6,690.019 1359.04,683.056 1370.49,676.174 1381.94,669.369 1393.38,662.636 1404.83,655.97 1416.28,649.366 1427.72,642.82 1439.17,636.326 1450.62,629.879 1462.07,623.476 1473.51,617.111 1484.96,610.779 1496.41,604.476 1507.85,598.196 1519.3,591.936 1530.75,585.689 1542.19,579.452 1553.64,573.219 1565.09,566.986 1576.53,560.752 1587.98,554.521 1599.43,548.297 1610.88,542.083 1622.32,535.885 1633.77,529.705 1645.22,523.548 1656.66,517.418 1668.11,511.319 1679.56,505.255 1691,499.229 1702.45,493.247 1713.9,487.312 1725.34,481.427 1736.79,475.598 1748.24,469.828 1759.69,464.12 1771.13,458.48 1782.58,452.911 1794.03,447.417 1805.47,442.002 1816.92,436.67 1828.37,431.422 1839.81,426.257 1851.26,421.171 1862.71,416.162 1874.16,411.227 1885.6,406.363 1897.05,401.568 1908.5,396.838 1919.94,392.171 1931.39,387.565 1942.84,383.016 1954.28,378.522 1965.73,374.08 1977.18,369.688 1988.62,365.342 2000.07,361.04 2011.52,356.779 2022.97,352.557 2034.41,348.37 2045.86,344.217 2057.31,340.094 2068.75,335.998 2080.2,331.929 2091.65,327.893 2103.09,323.896 2114.54,319.942 2125.99,316.038 2137.43,312.189 2148.88,308.402 2160.33,304.682 2171.78,301.035 2183.22,297.466 2194.67,293.981 2206.12,290.587 2217.56,287.288 2229.01,284.091 2240.46,281.002 2251.9,278.026 2263.35,275.168 2274.8,272.435 2286.24,269.833 2297.69,267.367 2309.14,265.043 2320.59,262.866 2332.03,260.841 2343.48,258.96 2354.93,257.218 2366.37,255.607 2377.82,254.12 2389.27,252.751 2400.71,251.493 2412.16,250.338 2423.61,249.28 2435.05,248.312 2446.5,247.427 2457.95,246.618 2469.4,245.879 2480.84,245.201 2492.29,244.579 2503.74,244.005 2515.18,243.472 2526.63,242.975 2538.08,242.504 2549.52,242.055 2560.97,241.619 2572.42,241.191 "/>
<path clip-path="url(#clip090)" d="M306.628 440.536 L997.74 440.536 L997.74 181.336 L306.628 181.336  Z" fill="#ffffff" fill-rule="evenodd" fill-opacity="1"/>
<polyline clip-path="url(#clip090)" style="stroke:#000000; stroke-linecap:round; stroke-linejoin:round; stroke-width:4; stroke-opacity:1; fill:none" points="306.628,440.536 997.74,440.536 997.74,181.336 306.628,181.336 306.628,440.536 "/>
<polyline clip-path="url(#clip090)" style="stroke:#000000; stroke-linecap:round; stroke-linejoin:round; stroke-width:12; stroke-opacity:1; fill:none" stroke-dasharray="48, 30" points="333.457,233.176 494.431,233.176 "/>
<path clip-path="url(#clip090)" d="M521.26 215.896 L550.496 215.896 L550.496 219.831 L538.228 219.831 L538.228 250.456 L533.529 250.456 L533.529 219.831 L521.26 219.831 L521.26 215.896 Z" fill="#000000" fill-rule="nonzero" fill-opacity="1" /><path clip-path="url(#clip090)" d="M562.88 228.512 Q562.163 228.095 561.306 227.91 Q560.473 227.702 559.454 227.702 Q555.843 227.702 553.899 230.063 Q551.978 232.401 551.978 236.799 L551.978 250.456 L547.695 250.456 L547.695 224.531 L551.978 224.531 L551.978 228.558 Q553.32 226.197 555.473 225.063 Q557.626 223.906 560.704 223.906 Q561.144 223.906 561.677 223.975 Q562.209 224.021 562.857 224.137 L562.88 228.512 Z" fill="#000000" fill-rule="nonzero" fill-opacity="1" /><path clip-path="url(#clip090)" d="M566.908 240.225 L566.908 224.531 L571.167 224.531 L571.167 240.063 Q571.167 243.743 572.603 245.595 Q574.038 247.424 576.908 247.424 Q580.357 247.424 582.348 245.225 Q584.362 243.026 584.362 239.229 L584.362 224.531 L588.621 224.531 L588.621 250.456 L584.362 250.456 L584.362 246.475 Q582.811 248.836 580.751 249.993 Q578.714 251.128 576.005 251.128 Q571.538 251.128 569.223 248.35 Q566.908 245.572 566.908 240.225 M577.626 223.906 L577.626 223.906 Z" fill="#000000" fill-rule="nonzero" fill-opacity="1" /><path clip-path="url(#clip090)" d="M619.57 236.429 L619.57 238.512 L599.987 238.512 Q600.264 242.91 602.626 245.225 Q605.01 247.516 609.246 247.516 Q611.7 247.516 613.991 246.915 Q616.306 246.313 618.574 245.109 L618.574 249.137 Q616.283 250.109 613.875 250.618 Q611.468 251.128 608.991 251.128 Q602.788 251.128 599.153 247.516 Q595.542 243.905 595.542 237.748 Q595.542 231.382 598.968 227.655 Q602.417 223.906 608.25 223.906 Q613.482 223.906 616.514 227.285 Q619.57 230.642 619.57 236.429 M615.311 235.179 Q615.264 231.683 613.343 229.6 Q611.445 227.517 608.297 227.517 Q604.732 227.517 602.579 229.53 Q600.45 231.544 600.126 235.202 L615.311 235.179 Z" fill="#000000" fill-rule="nonzero" fill-opacity="1" /><path clip-path="url(#clip090)" d="M658.69 237.192 Q658.69 232.563 656.769 230.017 Q654.871 227.47 651.422 227.47 Q647.996 227.47 646.074 230.017 Q644.176 232.563 644.176 237.192 Q644.176 241.799 646.074 244.345 Q647.996 246.891 651.422 246.891 Q654.871 246.891 656.769 244.345 Q658.69 241.799 658.69 237.192 M662.949 247.239 Q662.949 253.859 660.009 257.077 Q657.07 260.317 651.005 260.317 Q648.76 260.317 646.769 259.97 Q644.778 259.646 642.903 258.952 L642.903 254.808 Q644.778 255.827 646.607 256.313 Q648.435 256.799 650.334 256.799 Q654.523 256.799 656.607 254.6 Q658.69 252.424 658.69 248.003 L658.69 245.896 Q657.371 248.188 655.31 249.322 Q653.25 250.456 650.38 250.456 Q645.611 250.456 642.695 246.822 Q639.778 243.188 639.778 237.192 Q639.778 231.174 642.695 227.54 Q645.611 223.906 650.38 223.906 Q653.25 223.906 655.31 225.04 Q657.371 226.174 658.69 228.466 L658.69 224.531 L662.949 224.531 L662.949 247.239 Z" fill="#000000" fill-rule="nonzero" fill-opacity="1" /><path clip-path="url(#clip090)" d="M681.954 214.484 Q678.852 219.808 677.347 225.017 Q675.843 230.225 675.843 235.572 Q675.843 240.919 677.347 246.174 Q678.875 251.405 681.954 256.706 L678.25 256.706 Q674.778 251.266 673.042 246.012 Q671.329 240.757 671.329 235.572 Q671.329 230.41 673.042 225.179 Q674.755 219.947 678.25 214.484 L681.954 214.484 Z" fill="#000000" fill-rule="nonzero" fill-opacity="1" /><path clip-path="url(#clip090)" d="M690.403 215.896 L695.079 215.896 L695.079 230.063 L712.069 230.063 L712.069 215.896 L716.745 215.896 L716.745 250.456 L712.069 250.456 L712.069 233.998 L695.079 233.998 L695.079 250.456 L690.403 250.456 L690.403 215.896 Z" fill="#000000" fill-rule="nonzero" fill-opacity="1" /><path clip-path="url(#clip090)" d="M725.194 214.484 L728.898 214.484 Q732.37 219.947 734.083 225.179 Q735.819 230.41 735.819 235.572 Q735.819 240.757 734.083 246.012 Q732.37 251.266 728.898 256.706 L725.194 256.706 Q728.273 251.405 729.778 246.174 Q731.305 240.919 731.305 235.572 Q731.305 230.225 729.778 225.017 Q728.273 219.808 725.194 214.484 Z" fill="#000000" fill-rule="nonzero" fill-opacity="1" /><polyline clip-path="url(#clip090)" style="stroke:#008080; stroke-linecap:round; stroke-linejoin:round; stroke-width:8; stroke-opacity:1; fill:none" points="333.457,285.016 494.431,285.016 "/>
<path clip-path="url(#clip090)" d="M543.505 268.871 L543.505 273.431 Q540.843 272.158 538.482 271.533 Q536.121 270.908 533.922 270.908 Q530.103 270.908 528.019 272.389 Q525.959 273.871 525.959 276.602 Q525.959 278.894 527.325 280.074 Q528.714 281.232 532.556 281.949 L535.381 282.528 Q540.612 283.523 543.089 286.046 Q545.589 288.546 545.589 292.759 Q545.589 297.782 542.209 300.375 Q538.853 302.968 532.348 302.968 Q529.894 302.968 527.117 302.412 Q524.362 301.856 521.399 300.769 L521.399 295.954 Q524.246 297.551 526.978 298.361 Q529.709 299.171 532.348 299.171 Q536.353 299.171 538.529 297.597 Q540.705 296.023 540.705 293.107 Q540.705 290.56 539.13 289.125 Q537.58 287.69 534.015 286.972 L531.168 286.417 Q525.936 285.375 523.598 283.153 Q521.26 280.931 521.26 276.972 Q521.26 272.389 524.478 269.75 Q527.719 267.111 533.39 267.111 Q535.82 267.111 538.343 267.551 Q540.867 267.991 543.505 268.871 Z" fill="#000000" fill-rule="nonzero" fill-opacity="1" /><path clip-path="url(#clip090)" d="M557.556 271.579 L557.556 284.565 L563.436 284.565 Q566.7 284.565 568.482 282.875 Q570.265 281.185 570.265 278.06 Q570.265 274.958 568.482 273.269 Q566.7 271.579 563.436 271.579 L557.556 271.579 M552.88 267.736 L563.436 267.736 Q569.246 267.736 572.209 270.375 Q575.195 272.991 575.195 278.06 Q575.195 283.176 572.209 285.792 Q569.246 288.407 563.436 288.407 L557.556 288.407 L557.556 302.296 L552.88 302.296 L552.88 267.736 Z" fill="#000000" fill-rule="nonzero" fill-opacity="1" /><path clip-path="url(#clip090)" d="M586.144 271.579 L586.144 298.454 L591.792 298.454 Q598.945 298.454 602.255 295.213 Q605.588 291.972 605.588 284.982 Q605.588 278.037 602.255 274.82 Q598.945 271.579 591.792 271.579 L586.144 271.579 M581.468 267.736 L591.075 267.736 Q601.121 267.736 605.82 271.926 Q610.519 276.093 610.519 284.982 Q610.519 293.917 605.797 298.106 Q601.075 302.296 591.075 302.296 L581.468 302.296 L581.468 267.736 Z" fill="#000000" fill-rule="nonzero" fill-opacity="1" /><path clip-path="url(#clip090)" d="M617.973 267.736 L639.824 267.736 L639.824 271.671 L622.649 271.671 L622.649 281.903 L639.107 281.903 L639.107 285.838 L622.649 285.838 L622.649 298.361 L640.241 298.361 L640.241 302.296 L617.973 302.296 L617.973 267.736 Z" fill="#000000" fill-rule="nonzero" fill-opacity="1" /><path clip-path="url(#clip090)" d="M673.042 266.324 Q669.94 271.648 668.435 276.857 Q666.931 282.065 666.931 287.412 Q666.931 292.759 668.435 298.014 Q669.963 303.245 673.042 308.546 L669.338 308.546 Q665.866 303.106 664.13 297.852 Q662.417 292.597 662.417 287.412 Q662.417 282.25 664.13 277.019 Q665.843 271.787 669.338 266.324 L673.042 266.324 Z" fill="#000000" fill-rule="nonzero" fill-opacity="1" /><path clip-path="url(#clip090)" d="M686.468 302.296 L678.551 276.371 L683.134 276.371 L689.824 298.13 Q692.602 295.259 694.917 291.278 Q696.676 288.292 696.769 285.699 Q696.815 284.472 696.259 282.158 Q695.611 279.403 693.157 276.371 L697.463 276.371 L697.463 276.371 Q699.06 278.431 700.125 281.301 Q701.097 283.94 701.097 285.745 Q701.097 290.282 697.949 294.333 Q693.852 299.611 691.005 302.296 L686.468 302.296 Z" fill="#000000" fill-rule="nonzero" fill-opacity="1" /><path clip-path="url(#clip090)" d="M708.343 280.769 L738.018 280.769 L738.018 284.657 L708.343 284.657 L708.343 280.769 M708.343 290.213 L738.018 290.213 L738.018 294.148 L708.343 294.148 L708.343 290.213 Z" fill="#000000" fill-rule="nonzero" fill-opacity="1" /><path clip-path="url(#clip090)" d="M748.921 298.361 L756.56 298.361 L756.56 271.996 L748.25 273.662 L748.25 269.403 L756.514 267.736 L761.189 267.736 L761.189 298.361 L768.828 298.361 L768.828 302.296 L748.921 302.296 L748.921 298.361 Z" fill="#000000" fill-rule="nonzero" fill-opacity="1" /><path clip-path="url(#clip090)" d="M778.273 296.417 L783.157 296.417 L783.157 302.296 L778.273 302.296 L778.273 296.417 Z" fill="#000000" fill-rule="nonzero" fill-opacity="1" /><path clip-path="url(#clip090)" d="M793.388 267.736 L811.745 267.736 L811.745 271.671 L797.671 271.671 L797.671 280.144 Q798.689 279.796 799.708 279.634 Q800.726 279.449 801.745 279.449 Q807.532 279.449 810.911 282.62 Q814.291 285.792 814.291 291.208 Q814.291 296.787 810.819 299.889 Q807.347 302.968 801.027 302.968 Q798.851 302.968 796.583 302.597 Q794.337 302.227 791.93 301.486 L791.93 296.787 Q794.013 297.921 796.236 298.477 Q798.458 299.032 800.935 299.032 Q804.939 299.032 807.277 296.926 Q809.615 294.819 809.615 291.208 Q809.615 287.597 807.277 285.491 Q804.939 283.384 800.935 283.384 Q799.06 283.384 797.185 283.801 Q795.333 284.218 793.388 285.097 L793.388 267.736 Z" fill="#000000" fill-rule="nonzero" fill-opacity="1" /><path clip-path="url(#clip090)" d="M822.231 266.324 L825.934 266.324 Q829.407 271.787 831.12 277.019 Q832.856 282.25 832.856 287.412 Q832.856 292.597 831.12 297.852 Q829.407 303.106 825.934 308.546 L822.231 308.546 Q825.31 303.245 826.814 298.014 Q828.342 292.759 828.342 287.412 Q828.342 282.065 826.814 276.857 Q825.31 271.648 822.231 266.324 Z" fill="#000000" fill-rule="nonzero" fill-opacity="1" /><polyline clip-path="url(#clip090)" style="stroke:#ff7f50; stroke-linecap:round; stroke-linejoin:round; stroke-width:8; stroke-opacity:1; fill:none" points="333.457,336.856 494.431,336.856 "/>
<path clip-path="url(#clip090)" d="M525.936 337.632 L525.936 350.294 L533.436 350.294 Q537.209 350.294 539.015 348.743 Q540.843 347.169 540.843 343.951 Q540.843 340.71 539.015 339.183 Q537.209 337.632 533.436 337.632 L525.936 337.632 M525.936 323.419 L525.936 333.835 L532.857 333.835 Q536.283 333.835 537.95 332.562 Q539.64 331.266 539.64 328.627 Q539.64 326.011 537.95 324.715 Q536.283 323.419 532.857 323.419 L525.936 323.419 M521.26 319.576 L533.205 319.576 Q538.552 319.576 541.445 321.798 Q544.339 324.021 544.339 328.118 Q544.339 331.289 542.857 333.164 Q541.376 335.039 538.505 335.502 Q541.955 336.243 543.853 338.604 Q545.774 340.942 545.774 344.46 Q545.774 349.09 542.626 351.613 Q539.478 354.136 533.668 354.136 L521.26 354.136 L521.26 319.576 Z" fill="#000000" fill-rule="nonzero" fill-opacity="1" /><path clip-path="url(#clip090)" d="M551.445 339.252 L563.922 339.252 L563.922 343.048 L551.445 343.048 L551.445 339.252 Z" fill="#000000" fill-rule="nonzero" fill-opacity="1" /><path clip-path="url(#clip090)" d="M587.232 328.974 L587.232 333.002 Q585.427 332.076 583.482 331.613 Q581.538 331.15 579.454 331.15 Q576.283 331.15 574.686 332.123 Q573.112 333.095 573.112 335.039 Q573.112 336.521 574.246 337.377 Q575.38 338.21 578.806 338.974 L580.265 339.298 Q584.802 340.271 586.7 342.053 Q588.621 343.812 588.621 346.984 Q588.621 350.595 585.751 352.701 Q582.903 354.808 577.903 354.808 Q575.82 354.808 573.552 354.391 Q571.306 353.997 568.806 353.187 L568.806 348.789 Q571.167 350.016 573.459 350.641 Q575.751 351.243 577.996 351.243 Q581.005 351.243 582.626 350.224 Q584.246 349.183 584.246 347.308 Q584.246 345.572 583.065 344.646 Q581.908 343.72 577.95 342.863 L576.468 342.516 Q572.51 341.683 570.751 339.97 Q568.991 338.234 568.991 335.224 Q568.991 331.567 571.584 329.576 Q574.177 327.586 578.945 327.586 Q581.306 327.586 583.39 327.933 Q585.473 328.28 587.232 328.974 Z" fill="#000000" fill-rule="nonzero" fill-opacity="1" /><path clip-path="url(#clip090)" d="M599.524 350.247 L599.524 363.997 L595.241 363.997 L595.241 328.211 L599.524 328.211 L599.524 332.146 Q600.866 329.831 602.903 328.72 Q604.963 327.586 607.811 327.586 Q612.533 327.586 615.473 331.335 Q618.436 335.085 618.436 341.197 Q618.436 347.308 615.473 351.058 Q612.533 354.808 607.811 354.808 Q604.963 354.808 602.903 353.696 Q600.866 352.562 599.524 350.247 M614.014 341.197 Q614.014 336.497 612.07 333.835 Q610.149 331.15 606.769 331.15 Q603.389 331.15 601.445 333.835 Q599.524 336.497 599.524 341.197 Q599.524 345.896 601.445 348.581 Q603.389 351.243 606.769 351.243 Q610.149 351.243 612.07 348.581 Q614.014 345.896 614.014 341.197 Z" fill="#000000" fill-rule="nonzero" fill-opacity="1" /><path clip-path="url(#clip090)" d="M625.496 318.118 L629.755 318.118 L629.755 354.136 L625.496 354.136 L625.496 318.118 Z" fill="#000000" fill-rule="nonzero" fill-opacity="1" /><path clip-path="url(#clip090)" d="M638.667 328.211 L642.926 328.211 L642.926 354.136 L638.667 354.136 L638.667 328.211 M638.667 318.118 L642.926 318.118 L642.926 323.511 L638.667 323.511 L638.667 318.118 Z" fill="#000000" fill-rule="nonzero" fill-opacity="1" /><path clip-path="url(#clip090)" d="M673.389 338.488 L673.389 354.136 L669.13 354.136 L669.13 338.627 Q669.13 334.947 667.695 333.118 Q666.259 331.289 663.389 331.289 Q659.94 331.289 657.949 333.488 Q655.959 335.687 655.959 339.484 L655.959 354.136 L651.676 354.136 L651.676 328.211 L655.959 328.211 L655.959 332.238 Q657.486 329.9 659.547 328.743 Q661.63 327.586 664.338 327.586 Q668.806 327.586 671.097 330.363 Q673.389 333.118 673.389 338.488 Z" fill="#000000" fill-rule="nonzero" fill-opacity="1" /><path clip-path="url(#clip090)" d="M704.06 340.109 L704.06 342.192 L684.477 342.192 Q684.755 346.59 687.116 348.905 Q689.5 351.196 693.736 351.196 Q696.19 351.196 698.481 350.595 Q700.796 349.993 703.065 348.789 L703.065 352.817 Q700.773 353.789 698.366 354.298 Q695.958 354.808 693.482 354.808 Q687.278 354.808 683.644 351.196 Q680.033 347.585 680.033 341.428 Q680.033 335.062 683.458 331.335 Q686.907 327.586 692.741 327.586 Q697.972 327.586 701.005 330.965 Q704.06 334.322 704.06 340.109 M699.801 338.859 Q699.755 335.363 697.833 333.28 Q695.935 331.197 692.787 331.197 Q689.222 331.197 687.07 333.21 Q684.94 335.224 684.616 338.882 L699.801 338.859 Z" fill="#000000" fill-rule="nonzero" fill-opacity="1" /><polyline clip-path="url(#clip090)" style="stroke:#800080; stroke-linecap:round; stroke-linejoin:round; stroke-width:8; stroke-opacity:1; fill:none" points="333.457,388.696 494.431,388.696 "/>
<path clip-path="url(#clip090)" d="M543.505 372.551 L543.505 377.111 Q540.843 375.838 538.482 375.213 Q536.121 374.588 533.922 374.588 Q530.103 374.588 528.019 376.069 Q525.959 377.551 525.959 380.282 Q525.959 382.574 527.325 383.754 Q528.714 384.912 532.556 385.629 L535.381 386.208 Q540.612 387.203 543.089 389.726 Q545.589 392.226 545.589 396.439 Q545.589 401.462 542.209 404.055 Q538.853 406.648 532.348 406.648 Q529.894 406.648 527.117 406.092 Q524.362 405.536 521.399 404.449 L521.399 399.634 Q524.246 401.231 526.978 402.041 Q529.709 402.851 532.348 402.851 Q536.353 402.851 538.529 401.277 Q540.705 399.703 540.705 396.787 Q540.705 394.24 539.13 392.805 Q537.58 391.37 534.015 390.652 L531.168 390.097 Q525.936 389.055 523.598 386.833 Q521.26 384.611 521.26 380.652 Q521.26 376.069 524.478 373.43 Q527.719 370.791 533.39 370.791 Q535.82 370.791 538.343 371.231 Q540.867 371.671 543.505 372.551 Z" fill="#000000" fill-rule="nonzero" fill-opacity="1" /><path clip-path="url(#clip090)" d="M557.556 375.259 L557.556 388.245 L563.436 388.245 Q566.7 388.245 568.482 386.555 Q570.265 384.865 570.265 381.74 Q570.265 378.638 568.482 376.949 Q566.7 375.259 563.436 375.259 L557.556 375.259 M552.88 371.416 L563.436 371.416 Q569.246 371.416 572.209 374.055 Q575.195 376.671 575.195 381.74 Q575.195 386.856 572.209 389.472 Q569.246 392.087 563.436 392.087 L557.556 392.087 L557.556 405.976 L552.88 405.976 L552.88 371.416 Z" fill="#000000" fill-rule="nonzero" fill-opacity="1" /><path clip-path="url(#clip090)" d="M586.144 375.259 L586.144 402.134 L591.792 402.134 Q598.945 402.134 602.255 398.893 Q605.588 395.652 605.588 388.662 Q605.588 381.717 602.255 378.5 Q598.945 375.259 591.792 375.259 L586.144 375.259 M581.468 371.416 L591.075 371.416 Q601.121 371.416 605.82 375.606 Q610.519 379.773 610.519 388.662 Q610.519 397.597 605.797 401.786 Q601.075 405.976 591.075 405.976 L581.468 405.976 L581.468 371.416 Z" fill="#000000" fill-rule="nonzero" fill-opacity="1" /><path clip-path="url(#clip090)" d="M617.973 371.416 L639.824 371.416 L639.824 375.351 L622.649 375.351 L622.649 385.583 L639.107 385.583 L639.107 389.518 L622.649 389.518 L622.649 402.041 L640.241 402.041 L640.241 405.976 L617.973 405.976 L617.973 371.416 Z" fill="#000000" fill-rule="nonzero" fill-opacity="1" /><path clip-path="url(#clip090)" d="M665.079 376.254 L665.079 389.148 L677.972 389.148 L677.972 393.083 L665.079 393.083 L665.079 405.976 L661.19 405.976 L661.19 393.083 L648.297 393.083 L648.297 389.148 L661.19 389.148 L661.19 376.254 L665.079 376.254 Z" fill="#000000" fill-rule="nonzero" fill-opacity="1" /><path clip-path="url(#clip090)" d="M687.463 380.051 L691.722 380.051 L691.722 405.976 L687.463 405.976 L687.463 380.051 M687.463 369.958 L691.722 369.958 L691.722 375.351 L687.463 375.351 L687.463 369.958 Z" fill="#000000" fill-rule="nonzero" fill-opacity="1" /><path clip-path="url(#clip090)" d="M722.185 390.328 L722.185 405.976 L717.926 405.976 L717.926 390.467 Q717.926 386.787 716.491 384.958 Q715.055 383.129 712.185 383.129 Q708.736 383.129 706.745 385.328 Q704.755 387.527 704.755 391.324 L704.755 405.976 L700.472 405.976 L700.472 380.051 L704.755 380.051 L704.755 384.078 Q706.282 381.74 708.343 380.583 Q710.426 379.426 713.134 379.426 Q717.602 379.426 719.893 382.203 Q722.185 384.958 722.185 390.328 Z" fill="#000000" fill-rule="nonzero" fill-opacity="1" /><path clip-path="url(#clip090)" d="M749.338 381.046 L749.338 385.027 Q747.532 384.032 745.703 383.546 Q743.898 383.037 742.046 383.037 Q737.903 383.037 735.611 385.675 Q733.319 388.291 733.319 393.037 Q733.319 397.782 735.611 400.421 Q737.903 403.036 742.046 403.036 Q743.898 403.036 745.703 402.55 Q747.532 402.041 749.338 401.046 L749.338 404.981 Q747.555 405.814 745.634 406.231 Q743.736 406.648 741.583 406.648 Q735.727 406.648 732.278 402.967 Q728.829 399.287 728.829 393.037 Q728.829 386.694 732.301 383.06 Q735.796 379.426 741.861 379.426 Q743.828 379.426 745.703 379.842 Q747.578 380.236 749.338 381.046 Z" fill="#000000" fill-rule="nonzero" fill-opacity="1" /><path clip-path="url(#clip090)" d="M776.444 413.847 L776.444 417.157 L751.815 417.157 L751.815 413.847 L776.444 413.847 Z" fill="#000000" fill-rule="nonzero" fill-opacity="1" /><path clip-path="url(#clip090)" d="M799.106 381.046 L799.106 385.027 Q797.3 384.032 795.472 383.546 Q793.666 383.037 791.814 383.037 Q787.671 383.037 785.379 385.675 Q783.088 388.291 783.088 393.037 Q783.088 397.782 785.379 400.421 Q787.671 403.036 791.814 403.036 Q793.666 403.036 795.472 402.55 Q797.3 402.041 799.106 401.046 L799.106 404.981 Q797.324 405.814 795.402 406.231 Q793.504 406.648 791.351 406.648 Q785.495 406.648 782.046 402.967 Q778.597 399.287 778.597 393.037 Q778.597 386.694 782.069 383.06 Q785.564 379.426 791.629 379.426 Q793.597 379.426 795.472 379.842 Q797.347 380.236 799.106 381.046 Z" fill="#000000" fill-rule="nonzero" fill-opacity="1" /><path clip-path="url(#clip090)" d="M816.56 383.037 Q813.134 383.037 811.143 385.722 Q809.152 388.384 809.152 393.037 Q809.152 397.689 811.12 400.374 Q813.11 403.036 816.56 403.036 Q819.962 403.036 821.953 400.351 Q823.944 397.666 823.944 393.037 Q823.944 388.43 821.953 385.745 Q819.962 383.037 816.56 383.037 M816.56 379.426 Q822.115 379.426 825.286 383.037 Q828.458 386.648 828.458 393.037 Q828.458 399.402 825.286 403.036 Q822.115 406.648 816.56 406.648 Q810.981 406.648 807.81 403.036 Q804.661 399.402 804.661 393.037 Q804.661 386.648 807.81 383.037 Q810.981 379.426 816.56 379.426 Z" fill="#000000" fill-rule="nonzero" fill-opacity="1" /><path clip-path="url(#clip090)" d="M857.069 390.328 L857.069 405.976 L852.809 405.976 L852.809 390.467 Q852.809 386.787 851.374 384.958 Q849.939 383.129 847.069 383.129 Q843.62 383.129 841.629 385.328 Q839.638 387.527 839.638 391.324 L839.638 405.976 L835.356 405.976 L835.356 380.051 L839.638 380.051 L839.638 384.078 Q841.166 381.74 843.226 380.583 Q845.309 379.426 848.018 379.426 Q852.485 379.426 854.777 382.203 Q857.069 384.958 857.069 390.328 Z" fill="#000000" fill-rule="nonzero" fill-opacity="1" /><path clip-path="url(#clip090)" d="M884.221 381.046 L884.221 385.027 Q882.416 384.032 880.587 383.546 Q878.781 383.037 876.93 383.037 Q872.786 383.037 870.494 385.675 Q868.203 388.291 868.203 393.037 Q868.203 397.782 870.494 400.421 Q872.786 403.036 876.93 403.036 Q878.781 403.036 880.587 402.55 Q882.416 402.041 884.221 401.046 L884.221 404.981 Q882.439 405.814 880.518 406.231 Q878.619 406.648 876.467 406.648 Q870.61 406.648 867.161 402.967 Q863.712 399.287 863.712 393.037 Q863.712 386.694 867.184 383.06 Q870.68 379.426 876.744 379.426 Q878.712 379.426 880.587 379.842 Q882.462 380.236 884.221 381.046 Z" fill="#000000" fill-rule="nonzero" fill-opacity="1" /><path clip-path="url(#clip090)" d="M903.411 392.944 Q898.249 392.944 896.258 394.124 Q894.267 395.305 894.267 398.152 Q894.267 400.421 895.749 401.763 Q897.254 403.083 899.823 403.083 Q903.365 403.083 905.494 400.583 Q907.647 398.06 907.647 393.893 L907.647 392.944 L903.411 392.944 M911.906 391.185 L911.906 405.976 L907.647 405.976 L907.647 402.041 Q906.189 404.402 904.013 405.536 Q901.837 406.648 898.689 406.648 Q894.707 406.648 892.346 404.425 Q890.008 402.18 890.008 398.43 Q890.008 394.055 892.925 391.833 Q895.865 389.611 901.675 389.611 L907.647 389.611 L907.647 389.194 Q907.647 386.254 905.703 384.657 Q903.781 383.037 900.286 383.037 Q898.064 383.037 895.957 383.569 Q893.851 384.101 891.906 385.166 L891.906 381.231 Q894.244 380.328 896.443 379.888 Q898.642 379.426 900.726 379.426 Q906.351 379.426 909.128 382.342 Q911.906 385.259 911.906 391.185 Z" fill="#000000" fill-rule="nonzero" fill-opacity="1" /><path clip-path="url(#clip090)" d="M917.624 380.051 L922.138 380.051 L930.239 401.81 L938.341 380.051 L942.855 380.051 L933.133 405.976 L927.346 405.976 L917.624 380.051 Z" fill="#000000" fill-rule="nonzero" fill-opacity="1" /><path clip-path="url(#clip090)" d="M970.911 391.949 L970.911 394.032 L951.327 394.032 Q951.605 398.43 953.966 400.745 Q956.35 403.036 960.587 403.036 Q963.04 403.036 965.332 402.435 Q967.647 401.833 969.915 400.629 L969.915 404.657 Q967.624 405.629 965.216 406.138 Q962.809 406.648 960.332 406.648 Q954.128 406.648 950.494 403.036 Q946.883 399.425 946.883 393.268 Q946.883 386.902 950.309 383.175 Q953.758 379.426 959.591 379.426 Q964.823 379.426 967.855 382.805 Q970.911 386.162 970.911 391.949 M966.651 390.699 Q966.605 387.203 964.684 385.12 Q962.786 383.037 959.637 383.037 Q956.073 383.037 953.92 385.05 Q951.79 387.064 951.466 390.722 L966.651 390.699 Z" fill="#000000" fill-rule="nonzero" fill-opacity="1" /></svg>
