<?xml version="1.0" encoding="utf-8"?>
<svg xmlns="http://www.w3.org/2000/svg" xmlns:xlink="http://www.w3.org/1999/xlink" width="672" height="480" viewBox="0 0 2688 1920">
<defs>
  <clipPath id="clip160">
    <rect x="0" y="0" width="2688" height="1920"/>
  </clipPath>
</defs>
<path clip-path="url(#clip160)" d="M0 1920 L2688 1920 L2688 -4.26326e-14 L0 -4.26326e-14  Z" fill="#ffffff" fill-rule="evenodd" fill-opacity="1"/>
<defs>
  <clipPath id="clip161">
    <rect x="181" y="127" width="2460" height="1607"/>
  </clipPath>
</defs>
<path clip-path="url(#clip160)" d="M181.719 1734.12 L2640.76 1734.12 L2640.76 127.792 L181.719 127.792  Z" fill="#ffffff" fill-rule="evenodd" fill-opacity="1"/>
<polyline clip-path="url(#clip161)" style="stroke:#000000; stroke-linecap:round; stroke-linejoin:round; stroke-width:2; stroke-opacity:0.1; fill:none" points="227.882,1734.12 227.882,127.792 "/>
<polyline clip-path="url(#clip161)" style="stroke:#000000; stroke-linecap:round; stroke-linejoin:round; stroke-width:2; stroke-opacity:0.1; fill:none" points="930.866,1734.12 930.866,127.792 "/>
<polyline clip-path="url(#clip161)" style="stroke:#000000; stroke-linecap:round; stroke-linejoin:round; stroke-width:2; stroke-opacity:0.1; fill:none" points="1633.85,1734.12 1633.85,127.792 "/>
<polyline clip-path="url(#clip161)" style="stroke:#000000; stroke-linecap:round; stroke-linejoin:round; stroke-width:2; stroke-opacity:0.1; fill:none" points="2336.83,1734.12 2336.83,127.792 "/>
<polyline clip-path="url(#clip161)" style="stroke:#000000; stroke-linecap:round; stroke-linejoin:round; stroke-width:2; stroke-opacity:0.1; fill:none" points="181.719,1696.61 2640.76,1696.61 "/>
<polyline clip-path="url(#clip161)" style="stroke:#000000; stroke-linecap:round; stroke-linejoin:round; stroke-width:2; stroke-opacity:0.1; fill:none" points="181.719,1409.44 2640.76,1409.44 "/>
<polyline clip-path="url(#clip161)" style="stroke:#000000; stroke-linecap:round; stroke-linejoin:round; stroke-width:2; stroke-opacity:0.1; fill:none" points="181.719,1122.27 2640.76,1122.27 "/>
<polyline clip-path="url(#clip161)" style="stroke:#000000; stroke-linecap:round; stroke-linejoin:round; stroke-width:2; stroke-opacity:0.1; fill:none" points="181.719,835.096 2640.76,835.096 "/>
<polyline clip-path="url(#clip161)" style="stroke:#000000; stroke-linecap:round; stroke-linejoin:round; stroke-width:2; stroke-opacity:0.1; fill:none" points="181.719,547.924 2640.76,547.924 "/>
<polyline clip-path="url(#clip161)" style="stroke:#000000; stroke-linecap:round; stroke-linejoin:round; stroke-width:2; stroke-opacity:0.1; fill:none" points="181.719,260.751 2640.76,260.751 "/>
<polyline clip-path="url(#clip160)" style="stroke:#000000; stroke-linecap:round; stroke-linejoin:round; stroke-width:4; stroke-opacity:1; fill:none" points="181.719,1734.12 2640.76,1734.12 "/>
<polyline clip-path="url(#clip160)" style="stroke:#000000; stroke-linecap:round; stroke-linejoin:round; stroke-width:4; stroke-opacity:1; fill:none" points="227.882,1734.12 227.882,1715.22 "/>
<polyline clip-path="url(#clip160)" style="stroke:#000000; stroke-linecap:round; stroke-linejoin:round; stroke-width:4; stroke-opacity:1; fill:none" points="930.866,1734.12 930.866,1715.22 "/>
<polyline clip-path="url(#clip160)" style="stroke:#000000; stroke-linecap:round; stroke-linejoin:round; stroke-width:4; stroke-opacity:1; fill:none" points="1633.85,1734.12 1633.85,1715.22 "/>
<polyline clip-path="url(#clip160)" style="stroke:#000000; stroke-linecap:round; stroke-linejoin:round; stroke-width:4; stroke-opacity:1; fill:none" points="2336.83,1734.12 2336.83,1715.22 "/>
<path clip-path="url(#clip160)" d="M227.882 1767.34 Q224.271 1767.34 222.442 1770.9 Q220.637 1774.45 220.637 1781.58 Q220.637 1788.68 222.442 1792.25 Q224.271 1795.79 227.882 1795.79 Q231.516 1795.79 233.322 1792.25 Q235.151 1788.68 235.151 1781.58 Q235.151 1774.45 233.322 1770.9 Q231.516 1767.34 227.882 1767.34 M227.882 1763.64 Q233.692 1763.64 236.748 1768.24 Q239.826 1772.83 239.826 1781.58 Q239.826 1790.3 236.748 1794.91 Q233.692 1799.49 227.882 1799.49 Q222.072 1799.49 218.993 1794.91 Q215.938 1790.3 215.938 1781.58 Q215.938 1772.83 218.993 1768.24 Q222.072 1763.64 227.882 1763.64 Z" fill="#000000" fill-rule="nonzero" fill-opacity="1" /><path clip-path="url(#clip160)" d="M905.553 1794.89 L913.192 1794.89 L913.192 1768.52 L904.882 1770.19 L904.882 1765.93 L913.146 1764.26 L917.822 1764.26 L917.822 1794.89 L925.461 1794.89 L925.461 1798.82 L905.553 1798.82 L905.553 1794.89 Z" fill="#000000" fill-rule="nonzero" fill-opacity="1" /><path clip-path="url(#clip160)" d="M944.905 1767.34 Q941.294 1767.34 939.465 1770.9 Q937.66 1774.45 937.66 1781.58 Q937.66 1788.68 939.465 1792.25 Q941.294 1795.79 944.905 1795.79 Q948.539 1795.79 950.345 1792.25 Q952.173 1788.68 952.173 1781.58 Q952.173 1774.45 950.345 1770.9 Q948.539 1767.34 944.905 1767.34 M944.905 1763.64 Q950.715 1763.64 953.771 1768.24 Q956.849 1772.83 956.849 1781.58 Q956.849 1790.3 953.771 1794.91 Q950.715 1799.49 944.905 1799.49 Q939.095 1799.49 936.016 1794.91 Q932.961 1790.3 932.961 1781.58 Q932.961 1772.83 936.016 1768.24 Q939.095 1763.64 944.905 1763.64 Z" fill="#000000" fill-rule="nonzero" fill-opacity="1" /><path clip-path="url(#clip160)" d="M1612.62 1794.89 L1628.94 1794.89 L1628.94 1798.82 L1607 1798.82 L1607 1794.89 Q1609.66 1792.13 1614.24 1787.5 Q1618.85 1782.85 1620.03 1781.51 Q1622.28 1778.98 1623.15 1777.25 Q1624.06 1775.49 1624.06 1773.8 Q1624.06 1771.04 1622.11 1769.31 Q1620.19 1767.57 1617.09 1767.57 Q1614.89 1767.57 1612.44 1768.34 Q1610.01 1769.1 1607.23 1770.65 L1607.23 1765.93 Q1610.05 1764.79 1612.51 1764.21 Q1614.96 1763.64 1617 1763.64 Q1622.37 1763.64 1625.56 1766.32 Q1628.76 1769.01 1628.76 1773.5 Q1628.76 1775.63 1627.95 1777.55 Q1627.16 1779.45 1625.05 1782.04 Q1624.47 1782.71 1621.37 1785.93 Q1618.27 1789.12 1612.62 1794.89 Z" fill="#000000" fill-rule="nonzero" fill-opacity="1" /><path clip-path="url(#clip160)" d="M1648.76 1767.34 Q1645.15 1767.34 1643.32 1770.9 Q1641.51 1774.45 1641.51 1781.58 Q1641.51 1788.68 1643.32 1792.25 Q1645.15 1795.79 1648.76 1795.79 Q1652.39 1795.79 1654.2 1792.25 Q1656.02 1788.68 1656.02 1781.58 Q1656.02 1774.45 1654.2 1770.9 Q1652.39 1767.34 1648.76 1767.34 M1648.76 1763.64 Q1654.57 1763.64 1657.62 1768.24 Q1660.7 1772.83 1660.7 1781.58 Q1660.7 1790.3 1657.62 1794.91 Q1654.57 1799.49 1648.76 1799.49 Q1642.95 1799.49 1639.87 1794.91 Q1636.81 1790.3 1636.81 1781.58 Q1636.81 1772.83 1639.87 1768.24 Q1642.95 1763.64 1648.76 1763.64 Z" fill="#000000" fill-rule="nonzero" fill-opacity="1" /><path clip-path="url(#clip160)" d="M2325.68 1780.19 Q2329.03 1780.9 2330.91 1783.17 Q2332.8 1785.44 2332.8 1788.77 Q2332.8 1793.89 2329.29 1796.69 Q2325.77 1799.49 2319.29 1799.49 Q2317.11 1799.49 2314.8 1799.05 Q2312.5 1798.64 2310.05 1797.78 L2310.05 1793.27 Q2311.99 1794.4 2314.31 1794.98 Q2316.62 1795.56 2319.15 1795.56 Q2323.55 1795.56 2325.84 1793.82 Q2328.15 1792.08 2328.15 1788.77 Q2328.15 1785.72 2326 1784.01 Q2323.87 1782.27 2320.05 1782.27 L2316.02 1782.27 L2316.02 1778.43 L2320.24 1778.43 Q2323.68 1778.43 2325.51 1777.06 Q2327.34 1775.67 2327.34 1773.08 Q2327.34 1770.42 2325.44 1769.01 Q2323.57 1767.57 2320.05 1767.57 Q2318.13 1767.57 2315.93 1767.99 Q2313.73 1768.4 2311.09 1769.28 L2311.09 1765.12 Q2313.75 1764.38 2316.07 1764.01 Q2318.41 1763.64 2320.47 1763.64 Q2325.79 1763.64 2328.89 1766.07 Q2331.99 1768.47 2331.99 1772.59 Q2331.99 1775.46 2330.35 1777.46 Q2328.71 1779.42 2325.68 1780.19 Z" fill="#000000" fill-rule="nonzero" fill-opacity="1" /><path clip-path="url(#clip160)" d="M2351.67 1767.34 Q2348.06 1767.34 2346.23 1770.9 Q2344.43 1774.45 2344.43 1781.58 Q2344.43 1788.68 2346.23 1792.25 Q2348.06 1795.79 2351.67 1795.79 Q2355.3 1795.79 2357.11 1792.25 Q2358.94 1788.68 2358.94 1781.58 Q2358.94 1774.45 2357.11 1770.9 Q2355.3 1767.34 2351.67 1767.34 M2351.67 1763.64 Q2357.48 1763.64 2360.54 1768.24 Q2363.61 1772.83 2363.61 1781.58 Q2363.61 1790.3 2360.54 1794.91 Q2357.48 1799.49 2351.67 1799.49 Q2345.86 1799.49 2342.78 1794.91 Q2339.73 1790.3 2339.73 1781.58 Q2339.73 1772.83 2342.78 1768.24 Q2345.86 1763.64 2351.67 1763.64 Z" fill="#000000" fill-rule="nonzero" fill-opacity="1" /><path clip-path="url(#clip160)" d="M1121.98 1861.02 Q1124.05 1861.72 1125.99 1864.01 Q1127.96 1866.3 1129.94 1870.31 L1136.46 1883.3 L1129.56 1883.3 L1123.48 1871.11 Q1121.12 1866.34 1118.89 1864.78 Q1116.7 1863.22 1112.88 1863.22 L1105.87 1863.22 L1105.87 1883.3 L1099.45 1883.3 L1099.45 1835.78 L1113.96 1835.78 Q1122.11 1835.78 1126.12 1839.19 Q1130.13 1842.59 1130.13 1849.47 Q1130.13 1853.96 1128.03 1856.92 Q1125.96 1859.88 1121.98 1861.02 M1105.87 1841.06 L1105.87 1857.93 L1113.96 1857.93 Q1118.61 1857.93 1120.96 1855.8 Q1123.35 1853.64 1123.35 1849.47 Q1123.35 1845.3 1120.96 1843.2 Q1118.61 1841.06 1113.96 1841.06 L1105.87 1841.06 Z" fill="#000000" fill-rule="nonzero" fill-opacity="1" /><path clip-path="url(#clip160)" d="M1159.25 1865.38 Q1152.15 1865.38 1149.42 1867 Q1146.68 1868.63 1146.68 1872.54 Q1146.68 1875.66 1148.72 1877.51 Q1150.78 1879.32 1154.32 1879.32 Q1159.19 1879.32 1162.12 1875.88 Q1165.08 1872.42 1165.08 1866.69 L1165.08 1865.38 L1159.25 1865.38 M1170.93 1862.96 L1170.93 1883.3 L1165.08 1883.3 L1165.08 1877.89 Q1163.07 1881.14 1160.08 1882.7 Q1157.09 1884.22 1152.76 1884.22 Q1147.28 1884.22 1144.04 1881.17 Q1140.82 1878.08 1140.82 1872.92 Q1140.82 1866.91 1144.83 1863.85 Q1148.88 1860.8 1156.86 1860.8 L1165.08 1860.8 L1165.08 1860.23 Q1165.08 1856.18 1162.4 1853.99 Q1159.76 1851.76 1154.95 1851.76 Q1151.9 1851.76 1149 1852.49 Q1146.11 1853.22 1143.43 1854.69 L1143.43 1849.28 Q1146.65 1848.03 1149.67 1847.43 Q1152.69 1846.79 1155.56 1846.79 Q1163.29 1846.79 1167.11 1850.8 Q1170.93 1854.81 1170.93 1862.96 Z" fill="#000000" fill-rule="nonzero" fill-opacity="1" /><path clip-path="url(#clip160)" d="M1212.63 1861.78 L1212.63 1883.3 L1206.77 1883.3 L1206.77 1861.98 Q1206.77 1856.92 1204.8 1854.4 Q1202.82 1851.89 1198.88 1851.89 Q1194.14 1851.89 1191.4 1854.91 Q1188.66 1857.93 1188.66 1863.15 L1188.66 1883.3 L1182.77 1883.3 L1182.77 1847.65 L1188.66 1847.65 L1188.66 1853.19 Q1190.76 1849.98 1193.59 1848.39 Q1196.46 1846.79 1200.18 1846.79 Q1206.33 1846.79 1209.48 1850.61 Q1212.63 1854.4 1212.63 1861.78 Z" fill="#000000" fill-rule="nonzero" fill-opacity="1" /><path clip-path="url(#clip160)" d="M1247.77 1865.06 Q1247.77 1858.7 1245.12 1855.2 Q1242.51 1851.7 1237.77 1851.7 Q1233.06 1851.7 1230.42 1855.2 Q1227.81 1858.7 1227.81 1865.06 Q1227.81 1871.4 1230.42 1874.9 Q1233.06 1878.4 1237.77 1878.4 Q1242.51 1878.4 1245.12 1874.9 Q1247.77 1871.4 1247.77 1865.06 M1253.62 1878.88 Q1253.62 1887.98 1249.58 1892.4 Q1245.54 1896.86 1237.2 1896.86 Q1234.11 1896.86 1231.37 1896.38 Q1228.64 1895.94 1226.06 1894.98 L1226.06 1889.28 Q1228.64 1890.69 1231.15 1891.35 Q1233.67 1892.02 1236.28 1892.02 Q1242.04 1892.02 1244.9 1889 Q1247.77 1886.01 1247.77 1879.93 L1247.77 1877.03 Q1245.95 1880.18 1243.12 1881.74 Q1240.29 1883.3 1236.34 1883.3 Q1229.78 1883.3 1225.77 1878.3 Q1221.76 1873.31 1221.76 1865.06 Q1221.76 1856.79 1225.77 1851.79 Q1229.78 1846.79 1236.34 1846.79 Q1240.29 1846.79 1243.12 1848.35 Q1245.95 1849.91 1247.77 1853.06 L1247.77 1847.65 L1253.62 1847.65 L1253.62 1878.88 Z" fill="#000000" fill-rule="nonzero" fill-opacity="1" /><path clip-path="url(#clip160)" d="M1296.18 1864.01 L1296.18 1866.88 L1269.25 1866.88 Q1269.63 1872.92 1272.88 1876.11 Q1276.16 1879.26 1281.98 1879.26 Q1285.36 1879.26 1288.51 1878.43 Q1291.69 1877.6 1294.81 1875.95 L1294.81 1881.49 Q1291.66 1882.82 1288.35 1883.52 Q1285.04 1884.22 1281.63 1884.22 Q1273.1 1884.22 1268.1 1879.26 Q1263.14 1874.29 1263.14 1865.83 Q1263.14 1857.07 1267.85 1851.95 Q1272.59 1846.79 1280.61 1846.79 Q1287.81 1846.79 1291.98 1851.44 Q1296.18 1856.06 1296.18 1864.01 M1290.32 1862.29 Q1290.26 1857.49 1287.62 1854.62 Q1285.01 1851.76 1280.68 1851.76 Q1275.78 1851.76 1272.82 1854.53 Q1269.89 1857.3 1269.44 1862.33 L1290.32 1862.29 Z" fill="#000000" fill-rule="nonzero" fill-opacity="1" /><path clip-path="url(#clip160)" d="M1332.18 1877.95 L1332.18 1896.86 L1326.29 1896.86 L1326.29 1847.65 L1332.18 1847.65 L1332.18 1853.06 Q1334.02 1849.88 1336.82 1848.35 Q1339.66 1846.79 1343.57 1846.79 Q1350.06 1846.79 1354.11 1851.95 Q1358.18 1857.11 1358.18 1865.51 Q1358.18 1873.91 1354.11 1879.07 Q1350.06 1884.22 1343.57 1884.22 Q1339.66 1884.22 1336.82 1882.7 Q1334.02 1881.14 1332.18 1877.95 M1352.1 1865.51 Q1352.1 1859.05 1349.43 1855.39 Q1346.78 1851.7 1342.14 1851.7 Q1337.49 1851.7 1334.82 1855.39 Q1332.18 1859.05 1332.18 1865.51 Q1332.18 1871.97 1334.82 1875.66 Q1337.49 1879.32 1342.14 1879.32 Q1346.78 1879.32 1349.43 1875.66 Q1352.1 1871.97 1352.1 1865.51 Z" fill="#000000" fill-rule="nonzero" fill-opacity="1" /><path clip-path="url(#clip160)" d="M1384.09 1865.38 Q1376.99 1865.38 1374.25 1867 Q1371.52 1868.63 1371.52 1872.54 Q1371.52 1875.66 1373.55 1877.51 Q1375.62 1879.32 1379.15 1879.32 Q1384.02 1879.32 1386.95 1875.88 Q1389.91 1872.42 1389.91 1866.69 L1389.91 1865.38 L1384.09 1865.38 M1395.77 1862.96 L1395.77 1883.3 L1389.91 1883.3 L1389.91 1877.89 Q1387.91 1881.14 1384.92 1882.7 Q1381.92 1884.22 1377.59 1884.22 Q1372.12 1884.22 1368.87 1881.17 Q1365.66 1878.08 1365.66 1872.92 Q1365.66 1866.91 1369.67 1863.85 Q1373.71 1860.8 1381.7 1860.8 L1389.91 1860.8 L1389.91 1860.23 Q1389.91 1856.18 1387.24 1853.99 Q1384.6 1851.76 1379.79 1851.76 Q1376.74 1851.76 1373.84 1852.49 Q1370.94 1853.22 1368.27 1854.69 L1368.27 1849.28 Q1371.48 1848.03 1374.51 1847.43 Q1377.53 1846.79 1380.4 1846.79 Q1388.13 1846.79 1391.95 1850.8 Q1395.77 1854.81 1395.77 1862.96 Z" fill="#000000" fill-rule="nonzero" fill-opacity="1" /><path clip-path="url(#clip160)" d="M1428.49 1853.13 Q1427.5 1852.55 1426.32 1852.3 Q1425.18 1852.01 1423.78 1852.01 Q1418.81 1852.01 1416.14 1855.26 Q1413.5 1858.47 1413.5 1864.52 L1413.5 1883.3 L1407.61 1883.3 L1407.61 1847.65 L1413.5 1847.65 L1413.5 1853.19 Q1415.34 1849.94 1418.3 1848.39 Q1421.26 1846.79 1425.5 1846.79 Q1426.1 1846.79 1426.83 1846.89 Q1427.57 1846.95 1428.46 1847.11 L1428.49 1853.13 Z" fill="#000000" fill-rule="nonzero" fill-opacity="1" /><path clip-path="url(#clip160)" d="M1450.83 1865.38 Q1443.73 1865.38 1441 1867 Q1438.26 1868.63 1438.26 1872.54 Q1438.26 1875.66 1440.3 1877.51 Q1442.37 1879.32 1445.9 1879.32 Q1450.77 1879.32 1453.7 1875.88 Q1456.66 1872.42 1456.66 1866.69 L1456.66 1865.38 L1450.83 1865.38 M1462.51 1862.96 L1462.51 1883.3 L1456.66 1883.3 L1456.66 1877.89 Q1454.65 1881.14 1451.66 1882.7 Q1448.67 1884.22 1444.34 1884.22 Q1438.86 1884.22 1435.62 1881.17 Q1432.4 1878.08 1432.4 1872.92 Q1432.4 1866.91 1436.41 1863.85 Q1440.46 1860.8 1448.45 1860.8 L1456.66 1860.8 L1456.66 1860.23 Q1456.66 1856.18 1453.98 1853.99 Q1451.34 1851.76 1446.54 1851.76 Q1443.48 1851.76 1440.58 1852.49 Q1437.69 1853.22 1435.01 1854.69 L1435.01 1849.28 Q1438.23 1848.03 1441.25 1847.43 Q1444.28 1846.79 1447.14 1846.79 Q1454.87 1846.79 1458.69 1850.8 Q1462.51 1854.81 1462.51 1862.96 Z" fill="#000000" fill-rule="nonzero" fill-opacity="1" /><path clip-path="url(#clip160)" d="M1502.33 1854.5 Q1504.53 1850.55 1507.58 1848.67 Q1510.64 1846.79 1514.78 1846.79 Q1520.35 1846.79 1523.37 1850.71 Q1526.39 1854.59 1526.39 1861.78 L1526.39 1883.3 L1520.51 1883.3 L1520.51 1861.98 Q1520.51 1856.85 1518.69 1854.37 Q1516.88 1851.89 1513.15 1851.89 Q1508.6 1851.89 1505.96 1854.91 Q1503.32 1857.93 1503.32 1863.15 L1503.32 1883.3 L1497.43 1883.3 L1497.43 1861.98 Q1497.43 1856.82 1495.62 1854.37 Q1493.8 1851.89 1490.01 1851.89 Q1485.53 1851.89 1482.88 1854.94 Q1480.24 1857.97 1480.24 1863.15 L1480.24 1883.3 L1474.35 1883.3 L1474.35 1847.65 L1480.24 1847.65 L1480.24 1853.19 Q1482.25 1849.91 1485.05 1848.35 Q1487.85 1846.79 1491.7 1846.79 Q1495.58 1846.79 1498.29 1848.77 Q1501.03 1850.74 1502.33 1854.5 Z" fill="#000000" fill-rule="nonzero" fill-opacity="1" /><path clip-path="url(#clip160)" d="M1568.57 1864.01 L1568.57 1866.88 L1541.64 1866.88 Q1542.02 1872.92 1545.27 1876.11 Q1548.55 1879.26 1554.37 1879.26 Q1557.74 1879.26 1560.9 1878.43 Q1564.08 1877.6 1567.2 1875.95 L1567.2 1881.49 Q1564.05 1882.82 1560.74 1883.52 Q1557.43 1884.22 1554.02 1884.22 Q1545.49 1884.22 1540.49 1879.26 Q1535.53 1874.29 1535.53 1865.83 Q1535.53 1857.07 1540.24 1851.95 Q1544.98 1846.79 1553 1846.79 Q1560.2 1846.79 1564.36 1851.44 Q1568.57 1856.06 1568.57 1864.01 M1562.71 1862.29 Q1562.65 1857.49 1560 1854.62 Q1557.39 1851.76 1553.07 1851.76 Q1548.16 1851.76 1545.2 1854.53 Q1542.28 1857.3 1541.83 1862.33 L1562.71 1862.29 Z" fill="#000000" fill-rule="nonzero" fill-opacity="1" /><path clip-path="url(#clip160)" d="M1583.97 1837.53 L1583.97 1847.65 L1596.03 1847.65 L1596.03 1852.2 L1583.97 1852.2 L1583.97 1871.56 Q1583.97 1875.92 1585.15 1877.16 Q1586.36 1878.4 1590.02 1878.4 L1596.03 1878.4 L1596.03 1883.3 L1590.02 1883.3 Q1583.24 1883.3 1580.66 1880.79 Q1578.08 1878.24 1578.08 1871.56 L1578.08 1852.2 L1573.79 1852.2 L1573.79 1847.65 L1578.08 1847.65 L1578.08 1837.53 L1583.97 1837.53 Z" fill="#000000" fill-rule="nonzero" fill-opacity="1" /><path clip-path="url(#clip160)" d="M1634.23 1864.01 L1634.23 1866.88 L1607.3 1866.88 Q1607.68 1872.92 1610.93 1876.11 Q1614.21 1879.26 1620.03 1879.26 Q1623.41 1879.26 1626.56 1878.43 Q1629.74 1877.6 1632.86 1875.95 L1632.86 1881.49 Q1629.71 1882.82 1626.4 1883.52 Q1623.09 1884.22 1619.68 1884.22 Q1611.15 1884.22 1606.16 1879.26 Q1601.19 1874.29 1601.19 1865.83 Q1601.19 1857.07 1605.9 1851.95 Q1610.64 1846.79 1618.66 1846.79 Q1625.86 1846.79 1630.03 1851.44 Q1634.23 1856.06 1634.23 1864.01 M1628.37 1862.29 Q1628.31 1857.49 1625.67 1854.62 Q1623.06 1851.76 1618.73 1851.76 Q1613.83 1851.76 1610.87 1854.53 Q1607.94 1857.3 1607.49 1862.33 L1628.37 1862.29 Z" fill="#000000" fill-rule="nonzero" fill-opacity="1" /><path clip-path="url(#clip160)" d="M1664.5 1853.13 Q1663.51 1852.55 1662.33 1852.3 Q1661.19 1852.01 1659.79 1852.01 Q1654.82 1852.01 1652.15 1855.26 Q1649.51 1858.47 1649.51 1864.52 L1649.51 1883.3 L1643.62 1883.3 L1643.62 1847.65 L1649.51 1847.65 L1649.51 1853.19 Q1651.35 1849.94 1654.31 1848.39 Q1657.27 1846.79 1661.51 1846.79 Q1662.11 1846.79 1662.84 1846.89 Q1663.57 1846.95 1664.47 1847.11 L1664.5 1853.13 Z" fill="#000000" fill-rule="nonzero" fill-opacity="1" /><path clip-path="url(#clip160)" d="M1694 1854.02 Q1695.94 1850.77 1700.75 1847.91 Q1702.63 1846.79 1708.42 1846.79 Q1714.91 1846.79 1718.96 1851.95 Q1723.03 1857.11 1723.03 1865.51 Q1723.03 1873.91 1718.96 1879.07 Q1714.91 1884.22 1708.42 1884.22 Q1704.51 1884.22 1701.67 1882.7 Q1698.87 1881.14 1697.03 1877.95 L1697.03 1896.86 L1691.14 1896.86 L1691.14 1865.83 Q1691.14 1858.47 1694 1854.02 M1716.95 1865.51 Q1716.95 1859.05 1714.28 1855.39 Q1711.64 1851.7 1706.99 1851.7 Q1702.34 1851.7 1699.67 1855.39 Q1697.03 1859.05 1697.03 1865.51 Q1697.03 1871.97 1699.67 1875.66 Q1702.34 1879.32 1706.99 1879.32 Q1711.64 1879.32 1714.28 1875.66 Q1716.95 1871.97 1716.95 1865.51 Z" fill="#000000" fill-rule="nonzero" fill-opacity="1" /><polyline clip-path="url(#clip160)" style="stroke:#000000; stroke-linecap:round; stroke-linejoin:round; stroke-width:4; stroke-opacity:1; fill:none" points="181.719,1734.12 181.719,127.792 "/>
<polyline clip-path="url(#clip160)" style="stroke:#000000; stroke-linecap:round; stroke-linejoin:round; stroke-width:4; stroke-opacity:1; fill:none" points="181.719,1696.61 200.617,1696.61 "/>
<polyline clip-path="url(#clip160)" style="stroke:#000000; stroke-linecap:round; stroke-linejoin:round; stroke-width:4; stroke-opacity:1; fill:none" points="181.719,1409.44 200.617,1409.44 "/>
<polyline clip-path="url(#clip160)" style="stroke:#000000; stroke-linecap:round; stroke-linejoin:round; stroke-width:4; stroke-opacity:1; fill:none" points="181.719,1122.27 200.617,1122.27 "/>
<polyline clip-path="url(#clip160)" style="stroke:#000000; stroke-linecap:round; stroke-linejoin:round; stroke-width:4; stroke-opacity:1; fill:none" points="181.719,835.096 200.617,835.096 "/>
<polyline clip-path="url(#clip160)" style="stroke:#000000; stroke-linecap:round; stroke-linejoin:round; stroke-width:4; stroke-opacity:1; fill:none" points="181.719,547.924 200.617,547.924 "/>
<polyline clip-path="url(#clip160)" style="stroke:#000000; stroke-linecap:round; stroke-linejoin:round; stroke-width:4; stroke-opacity:1; fill:none" points="181.719,260.751 200.617,260.751 "/>
<path clip-path="url(#clip160)" d="M129.455 1682.41 Q125.844 1682.41 124.015 1685.98 Q122.21 1689.52 122.21 1696.65 Q122.21 1703.75 124.015 1707.32 Q125.844 1710.86 129.455 1710.86 Q133.089 1710.86 134.895 1707.32 Q136.724 1703.75 136.724 1696.65 Q136.724 1689.52 134.895 1685.98 Q133.089 1682.41 129.455 1682.41 M129.455 1678.71 Q135.265 1678.71 138.321 1683.31 Q141.399 1687.9 141.399 1696.65 Q141.399 1705.37 138.321 1709.98 Q135.265 1714.56 129.455 1714.56 Q123.645 1714.56 120.566 1709.98 Q117.511 1705.37 117.511 1696.65 Q117.511 1687.9 120.566 1683.31 Q123.645 1678.71 129.455 1678.71 Z" fill="#000000" fill-rule="nonzero" fill-opacity="1" /><path clip-path="url(#clip160)" d="M121.492 1422.79 L129.131 1422.79 L129.131 1396.42 L120.821 1398.09 L120.821 1393.83 L129.085 1392.16 L133.761 1392.16 L133.761 1422.79 L141.399 1422.79 L141.399 1426.72 L121.492 1426.72 L121.492 1422.79 Z" fill="#000000" fill-rule="nonzero" fill-opacity="1" /><path clip-path="url(#clip160)" d="M125.08 1135.61 L141.399 1135.61 L141.399 1139.55 L119.455 1139.55 L119.455 1135.61 Q122.117 1132.86 126.7 1128.23 Q131.307 1123.58 132.488 1122.23 Q134.733 1119.71 135.612 1117.97 Q136.515 1116.22 136.515 1114.53 Q136.515 1111.77 134.571 1110.03 Q132.65 1108.3 129.548 1108.3 Q127.349 1108.3 124.895 1109.06 Q122.464 1109.83 119.687 1111.38 L119.687 1106.66 Q122.511 1105.52 124.964 1104.94 Q127.418 1104.36 129.455 1104.36 Q134.825 1104.36 138.02 1107.05 Q141.214 1109.73 141.214 1114.22 Q141.214 1116.35 140.404 1118.28 Q139.617 1120.17 137.511 1122.77 Q136.932 1123.44 133.83 1126.66 Q130.728 1129.85 125.08 1135.61 Z" fill="#000000" fill-rule="nonzero" fill-opacity="1" /><path clip-path="url(#clip160)" d="M134.27 833.742 Q137.626 834.46 139.501 836.728 Q141.399 838.997 141.399 842.33 Q141.399 847.446 137.881 850.247 Q134.362 853.047 127.881 853.047 Q125.705 853.047 123.39 852.608 Q121.099 852.191 118.645 851.334 L118.645 846.821 Q120.589 847.955 122.904 848.534 Q125.219 849.112 127.742 849.112 Q132.14 849.112 134.432 847.376 Q136.747 845.64 136.747 842.33 Q136.747 839.274 134.594 837.561 Q132.464 835.825 128.645 835.825 L124.617 835.825 L124.617 831.983 L128.83 831.983 Q132.279 831.983 134.108 830.617 Q135.937 829.228 135.937 826.636 Q135.937 823.974 134.038 822.561 Q132.163 821.126 128.645 821.126 Q126.724 821.126 124.525 821.543 Q122.326 821.96 119.687 822.839 L119.687 818.673 Q122.349 817.932 124.663 817.562 Q127.001 817.191 129.062 817.191 Q134.386 817.191 137.487 819.622 Q140.589 822.029 140.589 826.149 Q140.589 829.02 138.946 831.011 Q137.302 832.978 134.27 833.742 Z" fill="#000000" fill-rule="nonzero" fill-opacity="1" /><path clip-path="url(#clip160)" d="M131.816 534.718 L120.011 553.167 L131.816 553.167 L131.816 534.718 M130.589 530.644 L136.469 530.644 L136.469 553.167 L141.399 553.167 L141.399 557.056 L136.469 557.056 L136.469 565.204 L131.816 565.204 L131.816 557.056 L116.214 557.056 L116.214 552.542 L130.589 530.644 Z" fill="#000000" fill-rule="nonzero" fill-opacity="1" /><path clip-path="url(#clip160)" d="M120.497 243.471 L138.853 243.471 L138.853 247.407 L124.779 247.407 L124.779 255.879 Q125.798 255.532 126.816 255.37 Q127.835 255.184 128.853 255.184 Q134.64 255.184 138.02 258.356 Q141.399 261.527 141.399 266.944 Q141.399 272.522 137.927 275.624 Q134.455 278.703 128.136 278.703 Q125.96 278.703 123.691 278.332 Q121.446 277.962 119.039 277.221 L119.039 272.522 Q121.122 273.656 123.344 274.212 Q125.566 274.768 128.043 274.768 Q132.048 274.768 134.386 272.661 Q136.724 270.555 136.724 266.944 Q136.724 263.332 134.386 261.226 Q132.048 259.12 128.043 259.12 Q126.168 259.12 124.293 259.536 Q122.441 259.953 120.497 260.832 L120.497 243.471 Z" fill="#000000" fill-rule="nonzero" fill-opacity="1" /><path clip-path="url(#clip160)" d="M54.859 1060.5 L42.0957 1060.5 L42.0957 1071 L36.8122 1071 L36.8122 1054.13 L57.2143 1054.13 Q59.856 1057.85 61.2247 1062.34 Q62.5615 1066.83 62.5615 1071.92 Q62.5615 1083.06 56.0684 1089.37 Q49.5436 1095.64 37.9262 1095.64 Q26.2769 1095.64 19.7839 1089.37 Q13.2591 1083.06 13.2591 1071.92 Q13.2591 1067.28 14.4049 1063.11 Q15.5507 1058.91 17.7787 1055.37 L24.6219 1055.37 Q21.5981 1058.94 20.0704 1062.95 Q18.5426 1066.96 18.5426 1071.38 Q18.5426 1080.1 23.4124 1084.5 Q28.2821 1088.86 37.9262 1088.86 Q47.5384 1088.86 52.4082 1084.5 Q57.2779 1080.1 57.2779 1071.38 Q57.2779 1067.98 56.705 1065.3 Q56.1003 1062.63 54.859 1060.5 Z" fill="#000000" fill-rule="nonzero" fill-opacity="1" /><path clip-path="url(#clip160)" d="M17.7787 1006.8 L24.5582 1006.8 Q21.5345 1010.05 20.0386 1013.74 Q18.5426 1017.4 18.5426 1021.54 Q18.5426 1029.69 23.5397 1034.02 Q28.5049 1038.34 37.9262 1038.34 Q47.3156 1038.34 52.3127 1034.02 Q57.2779 1029.69 57.2779 1021.54 Q57.2779 1017.4 55.782 1013.74 Q54.2861 1010.05 51.2623 1006.8 L57.9782 1006.8 Q60.2698 1010.18 61.4156 1013.96 Q62.5615 1017.72 62.5615 1021.92 Q62.5615 1032.71 55.973 1038.92 Q49.3526 1045.12 37.9262 1045.12 Q26.4679 1045.12 19.8794 1038.92 Q13.2591 1032.71 13.2591 1021.92 Q13.2591 1017.66 14.4049 1013.9 Q15.5189 1010.11 17.7787 1006.8 Z" fill="#000000" fill-rule="nonzero" fill-opacity="1" /><path clip-path="url(#clip160)" d="M61.6384 984.617 L14.1184 1002.76 L14.1184 996.044 L54.1269 980.989 L14.1184 965.902 L14.1184 959.218 L61.6384 977.329 L61.6384 984.617 Z" fill="#000000" fill-rule="nonzero" fill-opacity="1" /><path clip-path="url(#clip160)" d="M27.0408 909.088 L32.579 909.088 Q31.3059 911.571 30.6693 914.245 Q30.0327 916.918 30.0327 919.783 Q30.0327 924.143 31.3695 926.339 Q32.7063 928.504 35.3799 928.504 Q37.4169 928.504 38.5946 926.944 Q39.7404 925.385 40.7908 920.674 L41.2364 918.669 Q42.5732 912.43 45.0239 909.82 Q47.4429 907.179 51.8034 907.179 Q56.7687 907.179 59.6651 911.125 Q62.5615 915.04 62.5615 921.915 Q62.5615 924.78 61.9886 927.899 Q61.4475 930.986 60.3335 934.424 L54.2861 934.424 Q55.973 931.177 56.8323 928.026 Q57.6599 924.875 57.6599 921.788 Q57.6599 917.65 56.2594 915.422 Q54.8271 913.194 52.249 913.194 Q49.8619 913.194 48.5887 914.817 Q47.3156 916.409 46.1379 921.852 L45.6605 923.889 Q44.5147 929.331 42.1594 931.75 Q39.7722 934.169 35.6345 934.169 Q30.6056 934.169 27.8684 930.604 Q25.1311 927.04 25.1311 920.483 Q25.1311 917.236 25.6085 914.372 Q26.086 911.507 27.0408 909.088 Z" fill="#000000" fill-rule="nonzero" fill-opacity="1" /><path clip-path="url(#clip160)" d="M27.3591 872.199 L32.8336 872.199 Q31.465 874.682 30.7966 877.196 Q30.0964 879.679 30.0964 882.225 Q30.0964 887.922 33.7248 891.073 Q37.3214 894.224 43.8463 894.224 Q50.3711 894.224 53.9996 891.073 Q57.5962 887.922 57.5962 882.225 Q57.5962 879.679 56.9278 877.196 Q56.2276 874.682 54.859 872.199 L60.2698 872.199 Q61.4156 874.65 61.9886 877.292 Q62.5615 879.902 62.5615 882.862 Q62.5615 890.914 57.5007 895.657 Q52.44 900.399 43.8463 900.399 Q35.1253 900.399 30.1282 895.625 Q25.1311 890.819 25.1311 882.48 Q25.1311 879.774 25.704 877.196 Q26.2451 874.618 27.3591 872.199 Z" fill="#000000" fill-rule="nonzero" fill-opacity="1" /><path clip-path="url(#clip160)" d="M30.0964 848.2 Q30.0964 852.911 33.7885 855.648 Q37.4488 858.386 43.8463 858.386 Q50.2438 858.386 53.9359 855.68 Q57.5962 852.943 57.5962 848.2 Q57.5962 843.522 53.9041 840.784 Q50.212 838.047 43.8463 838.047 Q37.5124 838.047 33.8203 840.784 Q30.0964 843.522 30.0964 848.2 M25.1311 848.2 Q25.1311 840.562 30.0964 836.201 Q35.0616 831.841 43.8463 831.841 Q52.5991 831.841 57.5962 836.201 Q62.5615 840.562 62.5615 848.2 Q62.5615 855.871 57.5962 860.232 Q52.5991 864.56 43.8463 864.56 Q35.0616 864.56 30.0964 860.232 Q25.1311 855.871 25.1311 848.2 Z" fill="#000000" fill-rule="nonzero" fill-opacity="1" /><path clip-path="url(#clip160)" d="M31.465 801.476 Q30.8921 802.463 30.6375 803.64 Q30.351 804.786 30.351 806.187 Q30.351 811.152 33.5975 813.826 Q36.8122 816.467 42.8596 816.467 L61.6384 816.467 L61.6384 822.356 L25.9905 822.356 L25.9905 816.467 L31.5287 816.467 Q28.2821 814.621 26.7225 811.661 Q25.1311 808.701 25.1311 804.468 Q25.1311 803.863 25.2266 803.131 Q25.2903 802.399 25.4494 801.508 L31.465 801.476 Z" fill="#000000" fill-rule="nonzero" fill-opacity="1" /><path clip-path="url(#clip160)" d="M42.3504 766.274 L45.2149 766.274 L45.2149 793.201 Q51.2623 792.819 54.4452 789.572 Q57.5962 786.294 57.5962 780.469 Q57.5962 777.095 56.7687 773.944 Q55.9411 770.762 54.2861 767.642 L59.8242 767.642 Q61.161 770.793 61.8612 774.104 Q62.5615 777.414 62.5615 780.819 Q62.5615 789.349 57.5962 794.346 Q52.631 799.312 44.1646 799.312 Q35.4117 799.312 30.2873 794.601 Q25.1311 789.859 25.1311 781.838 Q25.1311 774.645 29.7781 770.475 Q34.3932 766.274 42.3504 766.274 M40.6316 772.13 Q35.8255 772.194 32.9609 774.836 Q30.0964 777.446 30.0964 781.774 Q30.0964 786.676 32.8654 789.636 Q35.6345 792.564 40.6634 793.01 L40.6316 772.13 Z" fill="#000000" fill-rule="nonzero" fill-opacity="1" /><path clip-path="url(#clip160)" d="M1192.19 18.8205 L1192.19 41.5461 L1202.47 41.5461 Q1208.19 41.5461 1211.31 38.5889 Q1214.42 35.6318 1214.42 30.163 Q1214.42 24.7348 1211.31 21.7777 Q1208.19 18.8205 1202.47 18.8205 L1192.19 18.8205 M1184 12.096 L1202.47 12.096 Q1212.64 12.096 1217.83 16.714 Q1223.05 21.2916 1223.05 30.163 Q1223.05 39.1155 1217.83 43.6931 Q1212.64 48.2706 1202.47 48.2706 L1192.19 48.2706 L1192.19 72.576 L1184 72.576 L1184 12.096 Z" fill="#000000" fill-rule="nonzero" fill-opacity="1" /><path clip-path="url(#clip160)" d="M1258.54 34.1734 Q1257.28 33.4443 1255.78 33.1202 Q1254.33 32.7556 1252.54 32.7556 Q1246.22 32.7556 1242.82 36.8875 Q1239.46 40.9789 1239.46 48.6757 L1239.46 72.576 L1231.96 72.576 L1231.96 27.2059 L1239.46 27.2059 L1239.46 34.2544 Q1241.81 30.1225 1245.58 28.1376 Q1249.34 26.1121 1254.73 26.1121 Q1255.5 26.1121 1256.43 26.2337 Q1257.36 26.3147 1258.5 26.5172 L1258.54 34.1734 Z" fill="#000000" fill-rule="nonzero" fill-opacity="1" /><path clip-path="url(#clip160)" d="M1282.12 32.4315 Q1276.12 32.4315 1272.64 37.1306 Q1269.15 41.7891 1269.15 49.9314 Q1269.15 58.0738 1272.6 62.7728 Q1276.08 67.4314 1282.12 67.4314 Q1288.07 67.4314 1291.55 62.7323 Q1295.04 58.0333 1295.04 49.9314 Q1295.04 41.8701 1291.55 37.1711 Q1288.07 32.4315 1282.12 32.4315 M1282.12 26.1121 Q1291.84 26.1121 1297.39 32.4315 Q1302.94 38.7509 1302.94 49.9314 Q1302.94 61.0714 1297.39 67.4314 Q1291.84 73.7508 1282.12 73.7508 Q1272.35 73.7508 1266.8 67.4314 Q1261.29 61.0714 1261.29 49.9314 Q1261.29 38.7509 1266.8 32.4315 Q1272.35 26.1121 1282.12 26.1121 Z" fill="#000000" fill-rule="nonzero" fill-opacity="1" /><path clip-path="url(#clip160)" d="M1338.26 9.54393 L1338.26 15.7418 L1331.13 15.7418 Q1327.12 15.7418 1325.54 17.3622 Q1324 18.9825 1324 23.1955 L1324 27.2059 L1336.28 27.2059 L1336.28 32.9987 L1324 32.9987 L1324 72.576 L1316.51 72.576 L1316.51 32.9987 L1309.38 32.9987 L1309.38 27.2059 L1316.51 27.2059 L1316.51 24.0462 Q1316.51 16.471 1320.03 13.0277 Q1323.56 9.54393 1331.21 9.54393 L1338.26 9.54393 Z" fill="#000000" fill-rule="nonzero" fill-opacity="1" /><path clip-path="url(#clip160)" d="M1344.5 27.2059 L1351.95 27.2059 L1351.95 72.576 L1344.5 72.576 L1344.5 27.2059 M1344.5 9.54393 L1351.95 9.54393 L1351.95 18.9825 L1344.5 18.9825 L1344.5 9.54393 Z" fill="#000000" fill-rule="nonzero" fill-opacity="1" /><path clip-path="url(#clip160)" d="M1367.55 9.54393 L1375 9.54393 L1375 72.576 L1367.55 72.576 L1367.55 9.54393 Z" fill="#000000" fill-rule="nonzero" fill-opacity="1" /><path clip-path="url(#clip160)" d="M1429.41 48.0275 L1429.41 51.6733 L1395.14 51.6733 Q1395.62 59.3701 1399.75 63.421 Q1403.93 67.4314 1411.34 67.4314 Q1415.63 67.4314 1419.64 66.3781 Q1423.69 65.3249 1427.66 63.2184 L1427.66 70.267 Q1423.65 71.9684 1419.44 72.8596 Q1415.23 73.7508 1410.89 73.7508 Q1400.04 73.7508 1393.68 67.4314 Q1387.36 61.1119 1387.36 50.3365 Q1387.36 39.1965 1393.35 32.6746 Q1399.39 26.1121 1409.6 26.1121 Q1418.75 26.1121 1424.06 32.0264 Q1429.41 37.9003 1429.41 48.0275 M1421.95 45.84 Q1421.87 39.7232 1418.51 36.0774 Q1415.19 32.4315 1409.68 32.4315 Q1403.44 32.4315 1399.67 35.9558 Q1395.95 39.4801 1395.38 45.8805 L1421.95 45.84 Z" fill="#000000" fill-rule="nonzero" fill-opacity="1" /><path clip-path="url(#clip160)" d="M1509.57 63.9476 L1509.57 47.7034 L1496.21 47.7034 L1496.21 40.9789 L1517.68 40.9789 L1517.68 66.9452 Q1512.94 70.3075 1507.22 72.0494 Q1501.51 73.7508 1495.03 73.7508 Q1480.85 73.7508 1472.83 65.4869 Q1464.85 57.1826 1464.85 42.3968 Q1464.85 27.5705 1472.83 19.3066 Q1480.85 11.0023 1495.03 11.0023 Q1500.94 11.0023 1506.25 12.4606 Q1511.6 13.9189 1516.1 16.7545 L1516.1 25.464 Q1511.56 21.6156 1506.45 19.6712 Q1501.35 17.7268 1495.72 17.7268 Q1484.62 17.7268 1479.03 23.9246 Q1473.48 30.1225 1473.48 42.3968 Q1473.48 54.6305 1479.03 60.8284 Q1484.62 67.0263 1495.72 67.0263 Q1500.05 67.0263 1503.46 66.2971 Q1506.86 65.5274 1509.57 63.9476 Z" fill="#000000" fill-rule="nonzero" fill-opacity="1" /><path clip-path="url(#clip160)" d="M1577.91 16.7545 L1577.91 25.383 Q1573.78 21.5346 1569.08 19.6307 Q1564.42 17.7268 1559.16 17.7268 Q1548.79 17.7268 1543.28 24.0867 Q1537.77 30.4061 1537.77 42.3968 Q1537.77 54.3469 1543.28 60.7069 Q1548.79 67.0263 1559.16 67.0263 Q1564.42 67.0263 1569.08 65.1223 Q1573.78 63.2184 1577.91 59.3701 L1577.91 67.9175 Q1573.62 70.8341 1568.8 72.2924 Q1564.02 73.7508 1558.67 73.7508 Q1544.94 73.7508 1537.04 65.3654 Q1529.14 56.9395 1529.14 42.3968 Q1529.14 27.8135 1537.04 19.4281 Q1544.94 11.0023 1558.67 11.0023 Q1564.1 11.0023 1568.88 12.4606 Q1573.7 13.8784 1577.91 16.7545 Z" fill="#000000" fill-rule="nonzero" fill-opacity="1" /><path clip-path="url(#clip160)" d="M1606.15 72.576 L1583.06 12.096 L1591.6 12.096 L1610.76 63.0159 L1629.97 12.096 L1638.47 12.096 L1615.42 72.576 L1606.15 72.576 Z" fill="#000000" fill-rule="nonzero" fill-opacity="1" /><polyline clip-path="url(#clip161)" style="stroke:#009af9; stroke-linecap:round; stroke-linejoin:round; stroke-width:8; stroke-opacity:1; fill:none" points="251.315,1490.49 273.124,173.254 315.23,1685.07 396.524,1604.15 553.48,1685.45 856.512,1684.02 1441.58,1688.65 2571.16,1688.59 "/>
<circle clip-path="url(#clip161)" cx="251.315" cy="1490.49" r="14.4" fill="#009af9" fill-rule="evenodd" fill-opacity="1" stroke="#000000" stroke-opacity="1" stroke-width="3.84"/>
<circle clip-path="url(#clip161)" cx="273.124" cy="173.254" r="14.4" fill="#009af9" fill-rule="evenodd" fill-opacity="1" stroke="#000000" stroke-opacity="1" stroke-width="3.84"/>
<circle clip-path="url(#clip161)" cx="315.23" cy="1685.07" r="14.4" fill="#009af9" fill-rule="evenodd" fill-opacity="1" stroke="#000000" stroke-opacity="1" stroke-width="3.84"/>
<circle clip-path="url(#clip161)" cx="396.524" cy="1604.15" r="14.4" fill="#009af9" fill-rule="evenodd" fill-opacity="1" stroke="#000000" stroke-opacity="1" stroke-width="3.84"/>
<circle clip-path="url(#clip161)" cx="553.48" cy="1685.45" r="14.4" fill="#009af9" fill-rule="evenodd" fill-opacity="1" stroke="#000000" stroke-opacity="1" stroke-width="3.84"/>
<circle clip-path="url(#clip161)" cx="856.512" cy="1684.02" r="14.4" fill="#009af9" fill-rule="evenodd" fill-opacity="1" stroke="#000000" stroke-opacity="1" stroke-width="3.84"/>
<circle clip-path="url(#clip161)" cx="1441.58" cy="1688.65" r="14.4" fill="#009af9" fill-rule="evenodd" fill-opacity="1" stroke="#000000" stroke-opacity="1" stroke-width="3.84"/>
<circle clip-path="url(#clip161)" cx="2571.16" cy="1688.59" r="14.4" fill="#009af9" fill-rule="evenodd" fill-opacity="1" stroke="#000000" stroke-opacity="1" stroke-width="3.84"/>
<polyline clip-path="url(#clip161)" style="stroke:#ff0000; stroke-linecap:round; stroke-linejoin:round; stroke-width:6; stroke-opacity:1; fill:none" stroke-dasharray="24, 15" points="1441.58,3340.44 1441.58,-1478.53 "/>
</svg>
